<svg xmlns="http://www.w3.org/2000/svg" width="128pt" height="156" viewBox="0 0 128 117"><path d="m25.25 10.2c8.94-4.28 19.95-3.9 28.55 1.02 4.24 1.99 7.2 5.69 10.47 8.89 3.02-2.91 5.76-6.19 9.41-8.34 9.36-5.56 21.69-6.24 31.25-.76 8.15 4.13 14.48 12.08 16.02 21.14-25.94.2-51.89-.05-77.83.13 1.23-1.25 2.58-3.69.81-5.08-2.56-1.7-5.91-1.78-8.4-3.59-2.49-2.95-2.06-7.7-5.65-9.82-.9.39-1.81.77-2.72 1.15-1.39 2.83-2.03 5.99-3.6 8.72-3.08 2.04-7.93 1.61-9.75 5.31.33 1.28.99 2.38 1.97 3.3-2.75-.09-5.49-.07-8.24-.09 1.9-9.58 8.77-18.06 17.71-21.98z"/><g fill="#fff3db"><path d="m27.16 14.94c.91-.38 1.82-.76 2.72-1.15 3.59 2.12 3.16 6.87 5.65 9.82 2.49 1.81 5.84 1.89 8.4 3.59 1.77 1.39.42 3.83-.81 5.08-2.72.84-5.38 1.85-8.03 2.87-.99 3.25-2.18 6.47-3.99 9.36-.83.01-2.48.04-3.31.05-1.83-2.83-2.61-6.15-4.14-9.11-2.35-1.63-5.16-2.38-7.87-3.18-.98-.92-1.64-2.02-1.97-3.3 1.82-3.7 6.67-3.27 9.75-5.31 1.57-2.73 2.21-5.89 3.6-8.72z"/><path d="m95.18 58.49h2.98c3.12 4.47 4.46 9.8 6.45 14.8 1.4.46 2.81.94 4.2 1.44 2.8 1.1 5.72 1.89 8.48 3.11 1.98.84 2.03 3.68.96 5.27-4.24 2.55-9.42 2.93-13.56 5.68-2.6 4.65-2.83 10.62-6.93 14.37-4.56-.82-4.98-6.2-6.44-9.75l-.13-.9c-.37-1.5-.91-2.95-1.43-4.4-2.93-1.13-5.88-2.22-8.86-3.21-1.92-.85-3.76-1.87-5.62-2.84.46-1.34.34-3.21 1.87-3.89 3.93-2.35 9.06-2.43 12.52-5.51 2.38-4.48 3.29-9.59 5.51-14.17z"/></g><path fill="#959595" d="m7.31 32.18h.23c2.75.02 5.49 0 8.24.09 2.71.8 5.52 1.55 7.87 3.18 1.53 2.96 2.31 6.28 4.14 9.11.83-.01 2.48-.04 3.31-.05 1.81-2.89 3-6.11 3.99-9.36 2.65-1.02 5.31-2.03 8.03-2.87 25.94-.18 51.89.07 77.83-.13h.29c2.05 8.96-.64 18.1-3.88 26.43-6.4-.09-12.8 0-19.2-.09-.75 0-2.24 0-2.98 0-27.86.07-55.73.09-83.58-.01l-.63-.04c-1.64-4.75-3.12-9.59-3.88-14.57-.71-3.86-.53-7.85.22-11.69z"/><g fill="#fff"><path d="m11.6 58.48c27.85.1 55.72.08 83.58.01-2.22 4.58-3.13 9.69-5.51 14.17-3.46 3.08-8.59 3.16-12.52 5.51-1.53.68-1.41 2.55-1.87 3.89 1.86.97 3.7 1.99 5.62 2.84-17.35-.13-34.71-.01-52.06-.05-6.08-6.31-11.18-13.52-15.34-21.23-.9-1.6-1.49-3.35-1.9-5.14z"/><path d="m98.16 58.49c6.4.09 12.8 0 19.2.09-1.9 5.87-6.05 10.6-8.55 16.15-1.39-.5-2.8-.98-4.2-1.44-1.99-5-3.33-10.33-6.45-14.8z"/></g><path fill="#672067" d="m28.84 84.85c17.35.04 34.71-.08 52.06.05 2.98.99 5.93 2.08 8.86 3.21.52 1.45 1.06 2.9 1.43 4.4l.13.9c-8.27 6.77-16.98 13.4-27.16 16.99-8.66-3.65-16.88-8.49-23.93-14.72-3.96-3.43-8.17-6.66-11.39-10.83z"/></svg>