<svg xmlns="http://www.w3.org/2000/svg" width="128pt" height="128pt" viewBox="0 0 128 128"><path fill="#3c3b6e" d="m0 30.46c.8-6.91 6.95-12.73 13.99-12.67 16.69-.09 33.39-.01 50.08-.03.01 2.36.02 4.73.02 7.09.0 2.4.01 4.8.02 7.2.02 2.22.01 4.44.02 6.66-.1 2.51-.26 5.02-.2 7.53.06 2.38.14 4.75.16 7.12.0 2.36.01 4.71.0 7.07-.03 2.33-.25 4.65-.56 6.96-.71-3.09-1.22-6.23-1.54-9.38-1.62 2.93-2.99 5.99-4.16 9.12-.06.13-.17.38-.22.5-2.59-.02-5.17-.03-7.75-.03.1-2.5.03-5.02-.01-7.52-2.24 2.09-3.81 4.73-5.01 7.52-14.95.0-29.89-.01-44.84.01zm10.42-5.34c-.11 1.93-1.17 2.71-3.16 2.37.47.42 1.43 1.27 1.91 1.7-.24.84-.48 1.68-.71 2.53.68-.52 1.36-1.05 2.03-1.57.86.48 1.72.96 2.59 1.45-.27-.6-.8-1.78-1.06-2.37.71-.54 1.42-1.07 2.13-1.61-1.88.18-3.04-.89-3.73-2.5m14.54-.09c-.44 1.89-1.6 2.69-3.46 2.42 1.38 1.1 2.51 2.37 1.19 4.19 1.47-1.54 2.97-1.55 4.51-.02-1.5-1.81-.39-3.05 1.13-4.08-1.98.35-2.94-.78-3.37-2.51m10.78 2.49c.95 1.19 3.43 2.2 1.02 4.09 1.57-1.51 3.09-1.51 4.58.03-1.26-1.79-.25-3.09 1.16-4.2-1.99.5-2.89-.77-3.47-2.44-.37 1.76-1.33 2.87-3.29 2.52m14.14.09c.7.54 1.41 1.09 2.11 1.64-.27.59-.79 1.76-1.06 2.35.85-.48 1.71-.96 2.56-1.44.69.51 1.39 1.03 2.08 1.54-.25-.84-.5-1.68-.75-2.52.48-.43 1.45-1.28 1.94-1.7-2.01.36-3.07-.42-3.19-2.36-.68 1.6-1.81 2.68-3.69 2.49m-18.9 6.92c-.61-.01-1.83-.02-2.44-.03 1.81 1.06 2.26 2.55 1.21 4.34.56-.41 1.69-1.21 2.25-1.61.56.4 1.68 1.2 2.24 1.6-.99-1.77-.65-3.26 1.21-4.24-1.91.31-3.06-.62-3.5-2.49-.32.81-.65 1.62-.97 2.43m-16.66.06c1.8.97 2.22 2.36 1.27 4.18 1.41-1.89 3.03-1.21 4.58-.07-1.48-1.76-.56-3.05 1.09-4.07-2 .32-3.11-.52-3.31-2.52-.62 1.65-1.68 3.08-3.63 2.48m28.43.04c1.68 1.02 2.57 2.33 1.06 4.08 1.56-1.14 3.19-1.85 4.6.07-1.11-1.83-.34-3.17 1.23-4.18-.61-.06-1.82-.19-2.43-.25l-.88-2.08c-.59 1.68-1.68 2.72-3.58 2.36M7.11 41.77c.69.5 1.37.99 2.06 1.49-.22.9-.44 1.8-.66 2.7.68-.53 1.37-1.06 2.05-1.59.6.36 1.81 1.07 2.41 1.43-.3-.82-.6-1.64-.9-2.45.73-.54 1.46-1.07 2.19-1.6-2 .34-3.2-.48-3.58-2.45-.26 2.05-1.67 2.65-3.57 2.47m14.32-.08c.69.58 1.36 1.17 2.04 1.77-.21.63-.64 1.88-.85 2.51.73-.54 1.47-1.07 2.2-1.6.62.37 1.84 1.1 2.45 1.47-.25-.61-.73-1.83-.98-2.43.54-.43 1.62-1.28 2.16-1.71-2.01.38-3.18-.45-3.51-2.47-.42 1.95-1.59 2.77-3.51 2.46m14.19-.03c1.65 1.04 2.52 2.39 1.17 4.21.59-.38 1.78-1.13 2.37-1.51.75.54 1.49 1.07 2.24 1.61-.22-.64-.66-1.9-.88-2.54.52-.43 1.57-1.29 2.1-1.72-1.94.35-3.12-.61-3.59-2.49-.29 2.03-1.42 2.84-3.41 2.44m17.69-2.36c-.37 1.98-1.56 2.79-3.57 2.45.73.53 1.46 1.05 2.18 1.58-.28.81-.56 1.62-.84 2.42 1.53-1.49 3.06-1.27 4.45.15-.24-.88-.47-1.77-.71-2.65.53-.37 1.59-1.1 2.12-1.46-1.83.04-3.4-.38-3.63-2.49m-39.06 9.53c.7.53 1.4 1.07 2.09 1.61-.19.67-.59 1.99-.79 2.66.7-.54 1.4-1.07 2.1-1.6.6.35 1.78 1.04 2.38 1.39-1.3-1.83-.34-3.14 1.28-4.13-1.84.46-2.98-.21-3.4-1.99-.59 1.73-1.96 2.24-3.66 2.06m14.2-.06c1.97.9 2.33 2.39 1.32 4.22.56-.38 1.67-1.14 2.23-1.52.56.38 1.68 1.15 2.24 1.53-1.16-1.81-.43-3.22 1.19-4.25-1.95.4-3.09-.41-3.42-2.44-.35 2.03-1.59 2.86-3.56 2.46m17.67-2.36c-.28 2.06-1.43 2.84-3.44 2.34 1.63.98 2.59 2.31 1.3 4.13.6-.35 1.79-1.04 2.39-1.39.68.54 1.36 1.07 2.04 1.61-.24-.93-.47-1.85-.71-2.77.71-.51 1.42-1 2.14-1.5-1.99.42-3.2-.52-3.72-2.42m-39 9.46c1.64.97 2.49 2.32 1.45 4.27 1.28-1.83 2.78-1.29 4.23-.15-1.03-1.83-.32-3.21 1.4-4.15-1.94.44-3.28-.25-3.41-2.37-.41 1.99-1.69 2.79-3.67 2.4m17.77-2.31c-.43 1.94-1.62 2.7-3.56 2.28 2.03.86 2.27 2.44 1.39 4.31.53-.39 1.59-1.16 2.13-1.55.57.36 1.72 1.06 2.3 1.41-1.22-1.81-.54-3.22 1.25-4.23-2.02.71-2.99-.5-3.51-2.22m10.72 2.22c1.71 1 2.44 2.4 1.28 4.21.58-.34 1.75-1.02 2.34-1.37.52.39 1.56 1.16 2.09 1.55-1.01-1.87-.61-3.39 1.3-4.35-2.04.63-3.02-.61-3.58-2.37-.35 1.93-1.39 2.99-3.43 2.33m16.86.12c-.66-.05-1.99-.13-2.65-.17 1.62 1 2.4 2.45 1.41 4.26 1.44-1.17 2.93-1.66 4.21.15-1.03-1.97-.22-3.35 1.5-4.32-1.91.34-3.37-.23-3.84-2.34-.16.6-.47 1.81-.63 2.42z"/><g fill="#b22334"><path d="m64.07 17.76c16.64.03 33.29-.05 49.93.03 4.93.01 9.53 2.88 12.06 7.05-20.66.03-41.31.01-61.97.01.0-2.36-.01-4.73-.02-7.09z"/><path d="m64.11 32.05c3.95-.58 7.93-.09 11.89-.14 17.33-.06 34.67.04 52-.05v7.28c-13.54.11-27.08-.09-40.61.1-.16-.34-.48-1.03-.64-1.38-.51.47-1.01.94-1.5 1.43-4.88-.21-9.77-.11-14.65-.13-.44 2.18-.42 4.89-2.52 6.24-.94.01-2.81.01-3.75.02-.15-2.05.4-4.03 1.26-5.86-.37-.22-1.1-.64-1.46-.85-.01-2.22.0-4.44-.02-6.66z"/><path d="m88.52 46.12c13.16.22 26.32.06 39.48.1v6.96c-8.47.51-16.98-.1-25.46.33-1.23-1.39-1.44-3.25-1.66-5.02-.32 1.8-1.12 3.43-2.01 5.02-2.6-.16-5.21-.16-7.82-.07-1.47-2.19-2.66-4.6-2.53-7.32z"/><path d="m63.93 46.24c5.79.0 11.58.01 17.37-.04-.7 2.68-1.88 5.18-3.69 7.28-4.51-.19-9.02-.11-13.52-.12-.02-2.37-.1-4.74-.16-7.12z"/><path d="m57.83 67.13c1.17-3.13 2.54-6.19 4.16-9.12.32 3.15.83 6.29 1.54 9.38.31-2.31.53-4.63.56-6.96 3.37.01 6.73.0 10.1-.03-.81 2.47-1.84 4.87-2.96 7.22-2.59-.05-5.18-.04-7.77.02-.76-1.39-1.58-2.74-2.39-4.1-1.09 1.19-2.19 2.37-3.24 3.59z"/><path d="m99.11 59.2c1.75.45 3.5.88 5.29 1.19 1.4.06 2.79.01 4.19.0.27 2.67-.47 5.23-2.26 7.25-2.83-.07-5.66-.08-8.48-.02-1.44-2.32-2.75-4.73-3.7-7.29 1.84.06 3.67.12 5.51.19z"/><path d="m110.28 60.29c5.91.72 11.85-.68 17.72.24v6.53c-.53.25-1.6.74-2.14.99-1.32-2.1-1.62-4.57-1.75-6.98-.51 2.58-1.7 4.91-3.72 6.63-1.89-.08-3.79-.09-5.69-.07-1.87-2.19-3.58-4.55-4.42-7.34z"/><path d="m44.84 67.6c1.2-2.79 2.77-5.43 5.01-7.52.04 2.5.11 5.02.01 7.52-.18 1.33-.39 2.66-.63 3.98-2.34-.22-4.15-1.54-4.39-3.98z"/><path d="m0 74.83c18.35-.48 36.72.0 55.08-.24-.69 2.42-1.44 4.81-2.2 7.2-17.63-.04-35.25-.02-52.88-.01z"/><path d="m118.78 74.63c3.07.01 6.15.01 9.22-.01v7.05c-1.93.03-3.86.2-5.78.42-1.15-2.49-2.29-4.98-3.44-7.46z"/><path d="m0 88.86c17.09-.06 34.17-.01 51.26-.03-.33 2.42-.63 4.85-.83 7.29-16.81-.04-33.62-.03-50.43-.01z"/><path d="m124.44 88.85c.89-.01 2.67-.02 3.56-.03V96c-.68.04-2.03.13-2.71.18-.19-2.46-.5-4.9-.85-7.33z"/><path d="m1.94 103.15c16.17-.04 32.34.02 48.51-.03.4 2.41.98 4.8 1.63 7.15-12.71-.12-25.43.05-38.15-.07-4.91-.04-9.46-2.9-11.99-7.05z"/></g><g fill="#efeeed"><path d="m10.42 25.12c.69 1.61 1.85 2.68 3.73 2.5-.71.54-1.42 1.07-2.13 1.61.26.59.79 1.77 1.06 2.37-.87-.49-1.73-.97-2.59-1.45-.67.52-1.35 1.05-2.03 1.57.23-.85.47-1.69.71-2.53-.48-.43-1.44-1.28-1.91-1.7 1.99.34 3.05-.44 3.16-2.37z"/><path d="m24.96 25.03c.43 1.73 1.39 2.86 3.37 2.51-1.52 1.03-2.63 2.27-1.13 4.08-1.54-1.53-3.04-1.52-4.51.02 1.32-1.82.19-3.09-1.19-4.19 1.86.27 3.02-.53 3.46-2.42z"/><path d="m35.74 27.52c1.96.35 2.92-.76 3.29-2.52.58 1.67 1.48 2.94 3.47 2.44-1.41 1.11-2.42 2.41-1.16 4.2-1.49-1.54-3.01-1.54-4.58-.03 2.41-1.89-.07-2.9-1.02-4.09z"/><path d="m49.88 27.61c1.88.19 3.01-.89 3.69-2.49.12 1.94 1.18 2.72 3.19 2.36-.49.42-1.46 1.27-1.94 1.7.25.84.5 1.68.75 2.52-.69-.51-1.39-1.03-2.08-1.54-.85.48-1.71.96-2.56 1.44.27-.59.79-1.76 1.06-2.35-.7-.55-1.41-1.1-2.11-1.64z"/><path d="m64.09 24.85c20.66.0 41.31.02 61.97-.01.88 1.83 1.57 3.76 1.94 5.76v1.26c-17.33.09-34.67-.01-52 .05-3.96.05-7.94-.44-11.89.14-.01-2.4-.02-4.8-.02-7.2z"/><path d="m30.98 34.53c.32-.81.65-1.62.97-2.43.44 1.87 1.59 2.8 3.5 2.49-1.86.98-2.2 2.47-1.21 4.24-.56-.4-1.68-1.2-2.24-1.6-.56.4-1.69 1.2-2.25 1.61 1.05-1.79.6-3.28-1.21-4.34.61.01 1.83.02 2.44.03z"/><path d="m14.32 34.59c1.95.6 3.01-.83 3.63-2.48.2 2 1.31 2.84 3.31 2.52-1.65 1.02-2.57 2.31-1.09 4.07-1.55-1.14-3.17-1.82-4.58.07.95-1.82.53-3.21-1.27-4.18z"/><path d="m42.75 34.63c1.9.36 2.99-.68 3.58-2.36l.88 2.08c.61.06 1.82.19 2.43.25-1.57 1.01-2.34 2.35-1.23 4.18-1.41-1.92-3.04-1.21-4.6-.07 1.51-1.75.62-3.06-1.06-4.08z"/><path d="m64.13 38.71c.36.21 1.09.63 1.46.85-.86 1.83-1.41 3.81-1.26 5.86.94-.01 2.81-.01 3.75-.02 2.1-1.35 2.08-4.06 2.52-6.24 4.88.02 9.77-.08 14.65.13-1.58 2.14-2.97 4.43-3.95 6.91-5.79.05-11.58.04-17.37.04-.06-2.51.1-5.02.2-7.53z"/><path d="m87.39 39.24c13.53-.19 27.07.01 40.61-.1v7.08c-13.16-.04-26.32.12-39.48-.1-.13-2.32-.42-4.65-1.13-6.88z"/><path d="m7.11 41.77c1.9.18 3.31-.42 3.57-2.47.38 1.97 1.58 2.79 3.58 2.45-.73.53-1.46 1.06-2.19 1.6.3.81.6 1.63.9 2.45-.6-.36-1.81-1.07-2.41-1.43-.68.53-1.37 1.06-2.05 1.59.22-.9.44-1.8.66-2.7-.69-.5-1.37-.99-2.06-1.49z"/><path d="m21.43 41.69c1.92.31 3.09-.51 3.51-2.46.33 2.02 1.5 2.85 3.51 2.47-.54.43-1.62 1.28-2.16 1.71.25.6.73 1.82.98 2.43-.61-.37-1.83-1.1-2.45-1.47-.73.53-1.47 1.06-2.2 1.6.21-.63.64-1.88.85-2.51-.68-.6-1.35-1.19-2.04-1.77z"/><path d="m35.62 41.66c1.99.4 3.12-.41 3.41-2.44.47 1.88 1.65 2.84 3.59 2.49-.53.43-1.58 1.29-2.1 1.72.22.64.66 1.9.88 2.54-.75-.54-1.49-1.07-2.24-1.61-.59.38-1.78 1.13-2.37 1.51 1.35-1.82.48-3.17-1.17-4.21z"/><path d="m53.31 39.3c.23 2.11 1.8 2.53 3.63 2.49-.53.36-1.59 1.09-2.12 1.46.24.88.47 1.77.71 2.65-1.39-1.42-2.92-1.64-4.45-.15.28-.8.56-1.61.84-2.42-.72-.53-1.45-1.05-2.18-1.58 2.01.34 3.2-.47 3.57-2.45z"/><path d="m14.25 48.83c1.7.18 3.07-.33 3.66-2.06.42 1.78 1.56 2.45 3.4 1.99-1.62.99-2.58 2.3-1.28 4.13-.6-.35-1.78-1.04-2.38-1.39-.7.53-1.4 1.06-2.1 1.6.2-.67.6-1.99.79-2.66-.69-.54-1.39-1.08-2.09-1.61z"/><path d="m28.45 48.77c1.97.4 3.21-.43 3.56-2.46.33 2.03 1.47 2.84 3.42 2.44-1.62 1.03-2.35 2.44-1.19 4.25-.56-.38-1.68-1.15-2.24-1.53-.56.38-1.67 1.14-2.23 1.52 1.01-1.83.65-3.32-1.32-4.22z"/><path d="m46.12 46.41c.52 1.9 1.73 2.84 3.72 2.42-.72.5-1.43.99-2.14 1.5.24.92.47 1.84.71 2.77-.68-.54-1.36-1.07-2.04-1.61-.6.35-1.79 1.04-2.39 1.39 1.29-1.82.33-3.15-1.3-4.13 2.01.5 3.16-.28 3.44-2.34z"/><path d="m64.09 53.36c4.5.01 9.01-.07 13.52.12-1.52 2.1-2.58 4.48-3.42 6.92-3.37.03-6.73.04-10.1.03.01-2.36.0-4.71.0-7.07z"/><path d="m91.05 53.44c2.61-.09 5.22-.09 7.82.07-.61 1.87-.45 3.86.24 5.69l.55 1.32c-1.84-.07-3.67-.13-5.51-.19-.88-2.36-1.8-4.72-3.1-6.89z"/><path d="m102.54 53.51c8.48-.43 16.99.18 25.46-.33v7.35c-5.87-.92-11.81.48-17.72-.24-.45-1.07-.93-2.12-1.45-3.16-.11 1.08-.19 2.17-.24 3.26-1.4.01-2.79.06-4.19.0-.24-2.37-.55-4.81-1.86-6.88z"/><path d="m7.12 55.87c1.98.39 3.26-.41 3.67-2.4.13 2.12 1.47 2.81 3.41 2.37-1.72.94-2.43 2.32-1.4 4.15-1.45-1.14-2.95-1.68-4.23.15 1.04-1.95.19-3.3-1.45-4.27z"/><path d="m24.89 53.56c.52 1.72 1.49 2.93 3.51 2.22-1.79 1.01-2.47 2.42-1.25 4.23-.58-.35-1.73-1.05-2.3-1.41-.54.39-1.6 1.16-2.13 1.55.88-1.87.64-3.45-1.39-4.31 1.94.42 3.13-.34 3.56-2.28z"/><path d="m35.61 55.78c2.04.66 3.08-.4 3.43-2.33.56 1.76 1.54 3 3.58 2.37-1.91.96-2.31 2.48-1.3 4.35-.53-.39-1.57-1.16-2.09-1.55-.59.35-1.76 1.03-2.34 1.37 1.16-1.81.43-3.21-1.28-4.21z"/><path d="m52.47 55.9c.16-.61.47-1.82.63-2.42.47 2.11 1.93 2.68 3.84 2.34-1.72.97-2.53 2.35-1.5 4.32-1.28-1.81-2.77-1.32-4.21-.15.99-1.81.21-3.26-1.41-4.26.66.04 1.99.12 2.65.17z"/><path d="m97.85 67.62c2.82-.06 5.65-.05 8.48.02-1.51 2-3.37 3.71-5.29 5.31-1.06-1.78-2.11-3.56-3.19-5.33z"/><path d="m114.7 67.63c1.9-.02 3.8-.01 5.69.07-.24.6-.72 1.82-.97 2.43 2.13 2.88 5.61.65 6.44-2.08.54-.25 1.61-.74 2.14-.99v7.56c-3.07.02-6.15.02-9.22.01-1.18-2.43-2.47-4.83-4.08-7z"/><path d="m0 67.61c14.95-.02 29.89-.01 44.84-.01.24 2.44 2.05 3.76 4.39 3.98.24-1.32.45-2.65.63-3.98 2.58.0 5.16.01 7.75.03-.98 2.27-1.87 4.58-2.53 6.96-18.36.24-36.73-.24-55.08.24z"/><path d="m63.46 67.64c2.59-.06 5.18-.07 7.77-.02-1.14 2.52-2.1 5.12-3.17 7.68-1.82-2.38-3.25-5-4.6-7.66z"/><path d="m0 81.78c17.63-.01 35.25-.03 52.88.01-.71 2.3-1.27 4.66-1.62 7.04-17.09.02-34.17-.03-51.26.03z"/><path d="m122.22 82.09c1.92-.22 3.85-.39 5.78-.42v7.15c-.89.01-2.67.02-3.56.03-.43-2.35-1.26-4.59-2.22-6.76z"/><path d="m0 96.11c16.81-.02 33.62-.03 50.43.01-.14 2.33-.14 4.67.02 7-16.17.05-32.34-.01-48.51.03-.88-1.83-1.57-3.75-1.94-5.75z"/><path d="m125.29 96.18c.68-.05 2.03-.14 2.71-.18v1.25c-.3 2.4-1.27 4.65-2.61 6.64-.2-2.57-.09-5.14-.1-7.71z"/><path d="m81.91 114.16c.76-2 2.27-3.49 3.89-4.8 4.04-.58 8.63.64 10.23 4.8-2 1.71-4.35 3.25-7.07 3.33-2.75.07-5.09-1.59-7.05-3.33z"/></g><g fill="#e0620f"><path d="m85.25 39.29c.49-.49.99-.96 1.5-1.43.16.35.48 1.04.64 1.38.71 2.23 1 4.56 1.13 6.88-.13 2.72 1.06 5.13 2.53 7.32 1.3 2.17 2.22 4.53 3.1 6.89.95 2.56 2.26 4.97 3.7 7.29 1.08 1.77 2.13 3.55 3.19 5.33 1.92-1.6 3.78-3.31 5.29-5.31 1.79-2.02 2.53-4.58 2.26-7.25.05-1.09.13-2.18.24-3.26.52 1.04 1 2.09 1.45 3.16.84 2.79 2.55 5.15 4.42 7.34 1.61 2.17 2.9 4.57 4.08 7 1.15 2.48 2.29 4.97 3.44 7.46.96 2.17 1.79 4.41 2.22 6.76.35 2.43.66 4.87.85 7.33.01 2.57-.1 5.14.1 7.71-1.85 3.29-2.53 7.15-4.8 10.23.6-5.78 3.26-11.22 2.89-17.11-.54-10.44-5.04-20.78-13.08-27.61-3.26 2.38-6.52 6.31-11.01 5.18-2.23-1.97-3.37-4.84-4.95-7.3-2.91-4.97-6.46-9.52-10.04-14.01-6.57 6.91-10.52 15.63-15.18 23.81-3.07-1.08-4.93-3.94-7.67-5.47-1.44-.73-2.03 1.09-2.76 1.97-5.68 9.64-7.37 21.22-6.06 32.24 1.26 6.31 5.3 12.14 11.22 14.87 5.55 3.17 12.11 1.18 18.1 2.35 6.98 1.53 13.93-.79 20.94-.48 4.57.3 8.53-2.27 12.89-3.13-4.83 4.38-11.75 5.29-18 4.46-4.31.35-8.6 1.49-12.96.8-5.7-.95-11.54 1.19-17.15-.72-7.06-1.63-13.48-6.64-15.69-13.7-.65-2.35-1.23-4.74-1.63-7.15-.16-2.33-.16-4.67-.02-7 .2-2.44.5-4.87.83-7.29.35-2.38.91-4.74 1.62-7.04.76-2.39 1.51-4.78 2.2-7.2.66-2.38 1.55-4.69 2.53-6.96.05-.12.16-.37.22-.5 1.05-1.22 2.15-2.4 3.24-3.59.81 1.36 1.63 2.71 2.39 4.1 1.35 2.66 2.78 5.28 4.6 7.66 1.07-2.56 2.03-5.16 3.17-7.68 1.12-2.35 2.15-4.75 2.96-7.22.84-2.44 1.9-4.82 3.42-6.92 1.81-2.1 2.99-4.6 3.69-7.28.98-2.48 2.37-4.77 3.95-6.91z"/><path d="m100.88 48.49c.22 1.77.43 3.63 1.66 5.02 1.31 2.07 1.62 4.51 1.86 6.88-1.79-.31-3.54-.74-5.29-1.19-.69-1.83-.85-3.82-.24-5.69.89-1.59 1.69-3.22 2.01-5.02z"/><path d="m120.39 67.7c2.02-1.72 3.21-4.05 3.72-6.63.13 2.41.43 4.88 1.75 6.98-.83 2.73-4.31 4.96-6.44 2.08.25-.61.73-1.83.97-2.43z"/></g><path fill="#f1b420" d="m84.4 53.27c3.58 4.49 7.13 9.04 10.04 14.01 1.58 2.46 2.72 5.33 4.95 7.3 4.49 1.13 7.75-2.8 11.01-5.18 8.04 6.83 12.54 17.17 13.08 27.61.37 5.89-2.29 11.33-2.89 17.11-1.28 2-2.87 3.81-4.71 5.31-4.36.86-8.32 3.43-12.89 3.13-7.01-.31-13.96 2.01-20.94.48-5.99-1.17-12.55.82-18.1-2.35-5.92-2.73-9.96-8.56-11.22-14.87-1.31-11.02.38-22.6 6.06-32.24.73-.88 1.32-2.7 2.76-1.97 2.74 1.53 4.6 4.39 7.67 5.47 4.66-8.18 8.61-16.9 15.18-23.81m-8.81 28.39c-3.53 4.41-9.18 1.47-13.62.55-3.63 5.91-3.76 13.08-3.59 19.79-.23 4.67 2.16 9.07 5.31 12.34.89 1.2 2.41 1.28 3.77 1.38 2.74 2.03 6.18 2.79 9.5 3.29 5.3.78 10.64 2.17 16.02 1.23 5.97-1.03 12.98-.86 17.54-5.46 4.74-.97 5.71-6.79 6.71-10.76 1.07-8.73-1.12-18.41-7.34-24.9-3.85 2.31-8.36 4.93-12.92 2.95-6.34-3.76-7.32-12.04-12.96-16.49-3.96 4.71-5.76 10.65-8.42 16.08z"/><path fill="#fae135" d="m75.59 81.66c2.66-5.43 4.46-11.37 8.42-16.08 5.64 4.45 6.62 12.73 12.96 16.49 4.56 1.98 9.07-.64 12.92-2.95 6.22 6.49 8.41 16.17 7.34 24.9-1 3.97-1.97 9.79-6.71 10.76.76-2.99 1.46-6.18.66-9.22-1.69-3.17-4.48-5.61-6.13-8.81-1.11-1.62-1.71-3.93-3.79-4.56-2.93-1.08-5.94-2.31-9.08-2.41-2.48.64-4.7 2.06-7.22 2.58-2.75.42-5.57.08-8.31.54-2.13 1.41-3.39 3.72-4.95 5.67-1.93 2.73-4.23 5.24-5.71 8.26-1.33 2.99.22 6.17 1.47 8.89-1.36-.1-2.88-.18-3.77-1.38-3.15-3.27-5.54-7.67-5.31-12.34-.17-6.71-.04-13.88 3.59-19.79 4.44.92 10.09 3.86 13.62-.55z"/><path fill="#fceb6a" d="m84.96 92.36c2.52-.52 4.74-1.94 7.22-2.58 3.14.1 6.15 1.33 9.08 2.41 2.08.63 2.68 2.94 3.79 4.56 1.65 3.2 4.44 5.64 6.13 8.81.8 3.04.1 6.23-.66 9.22-4.56 4.6-11.57 4.43-17.54 5.46-5.38.94-10.72-.45-16.02-1.23-3.32-.5-6.76-1.26-9.5-3.29-1.25-2.72-2.8-5.9-1.47-8.89 1.48-3.02 3.78-5.53 5.71-8.26 1.56-1.95 2.82-4.26 4.95-5.67 2.74-.46 5.56-.12 8.31-.54m-3.15 11.17c-2.53 1.63-5.17 3.51-6.49 6.31-.23 1.85-.17 3.71-.2 5.57 8.41 4.68 19.29 4.87 27.64-.02-.12-2.02.57-4.37-.93-6.04-2.52-3.54-6.08-7.34-10.8-7.14-3.08.04-6.55-.61-9.22 1.32z"/><path fill="#fdf3ad" d="m81.81 103.53c2.67-1.93 6.14-1.28 9.22-1.32 4.72-.2 8.28 3.6 10.8 7.14 1.5 1.67.81 4.02.93 6.04-8.35 4.89-19.23 4.7-27.64.02.03-1.86-.03-3.72.2-5.57 1.32-2.8 3.96-4.68 6.49-6.31m.1 10.63c1.96 1.74 4.3 3.4 7.05 3.33 2.72-.08 5.07-1.62 7.07-3.33-1.6-4.16-6.19-5.38-10.23-4.8-1.62 1.31-3.13 2.8-3.89 4.8z"/></svg>