<svg xmlns="http://www.w3.org/2000/svg" width="52pt" height="80" viewBox="0 0 52 60"><path fill="#233c40" d="m19.79 4.67C20.72 2.69 22.42.41 24.9.74 31.01 1.2 38.11-.54 43.1 4c3.26 3.49 5.23 8.19 5.5 12.97.9 12.64 2.69 25.44.41 38.05-4.91 4.37-11.77 4.65-17.97 4.04-2.96-.37-6.23-2.66-5.39-6.05 1.29-3.33 5-4.53 8.3-4.49.2-2.92 1.59-6.52-.67-8.95-2.93-.76-5.95-.27-8.88.24l-.93.16c-2.11.08-1.93 2.64-.96 3.89 1.71 2.4 1.44 5.87-1.04 7.61-4.53 2.89-10.19 2.83-15.35 2.34-2.73-1.22-6.62-3.13-5.89-6.77 1.43-3.99 6.3-4.65 9.8-3.19 1.15-3.7 1.24-7.6 2.05-11.36 1.17-4.27 2.05-8.61 2.76-12.98 1.35-5.03 2.76-10.09 4.95-14.84m2.37.58c-1.75 3.77-2.81 7.81-4.06 11.76-3.04 9.62-3.58 19.78-5.93 29.55-3.44-.72-7.79-2.17-10.15 1.43 1.35 1.45 2.65 3.42 4.85 3.51 5.08.65 10.75.34 14.74-3.27-1-3.05-1.58-6.26-.91-9.44 4.08-1.65 8.61-1.79 12.92-1.26 1.21.33 2.75 1.05 2.93 2.45.71 3.53.0 7.13-.36 10.65-2.43-.03-4.84.31-7.13 1.13-.52.83-1.03 1.67-1.52 2.52 1.96 2.53 5.44 2.98 8.44 2.91 3.86-.39 7.92-.95 11.18-3.24 1.83-8.91.51-17.96.2-26.95-.75-6.97-.63-14.57-5.13-20.4-3.33-4.89-9.99-4.29-15.17-4.24-2.09-.23-4.12.94-4.9 2.89z"/><g fill="#def1fc"><path d="m22.16 5.25c.78-1.95 2.81-3.12 4.9-2.89 5.18-.05 11.84-.65 15.17 4.24 4.5 5.83 4.38 13.43 5.13 20.4.31 8.99 1.63 18.04-.2 26.95-3.26 2.29-7.32 2.85-11.18 3.24-3 .07-6.48-.38-8.44-2.91.49-.85 1-1.69 1.52-2.52 2.29-.82 4.7-1.16 7.13-1.13.36-3.52 1.07-7.12.36-10.65-.18-1.4-1.72-2.12-2.93-2.45-4.31-.53-8.84-.39-12.92 1.26-.67 3.18-.09 6.39.91 9.44-3.99 3.61-9.66 3.92-14.74 3.27-2.2-.09-3.5-2.06-4.85-3.51 2.36-3.6 6.71-2.15 10.15-1.43 2.35-9.77 2.89-19.93 5.93-29.55 1.25-3.95 2.31-7.99 4.06-11.76m.36 4.47c-.77 3.98 2.51 7.32 6.4 7.33 3.81.02 8.41.06 11.27-2.86 2.18-2.37-.89-5.29-3.3-5.75-4.73-.78-10.04-1.22-14.37 1.28z"/><path d="m29.17 9.57c3.19.07 6.48.17 9.41 1.61-2.47.8-5.04 1.18-7.63 1.33-.44-.73-1.33-2.21-1.78-2.94z"/></g><path fill="#282d31" d="m22.52 9.72c4.33-2.5 9.64-2.06 14.37-1.28 2.41.46 5.48 3.38 3.3 5.75-2.86 2.92-7.46 2.88-11.27 2.86-3.89-.01-7.17-3.35-6.4-7.33m2.29.56c.29 1.49.03 3.47 1.71 4.21 2.91 1.62 6.37.45 9.5.45.74-.64 1.49-1.28 2.23-1.93.08-.46.25-1.37.33-1.83-2.93-1.44-6.22-1.54-9.41-1.61-1.36.32-2.71.66-4.06 1.01z" opacity=".98"/><path fill="#54656e" d="m24.81 10.28.3.3c2.91 4.56 8.69 2.99 13.14 2.43-.74.65-1.49 1.29-2.23 1.93-3.13.0-6.59 1.17-9.5-.45-1.68-.74-1.42-2.72-1.71-4.21z"/><path fill="#9ebfcb" d="m25.11 10.58c1.35-.35 2.7-.69 4.06-1.01.45.73 1.34 2.21 1.78 2.94 2.59-.15 5.16-.53 7.63-1.33-.08.46-.25 1.37-.33 1.83-4.45.56-10.23 2.13-13.14-2.43z"/></svg>