<svg xmlns="http://www.w3.org/2000/svg" width="1500" height="1108pt" viewBox="0 0 1125 1108"><path fill="#b5a8a6" d="m554.19 36c-.37-1.74 3.94-1.74 3.63.0-1.22.1-2.43.1-3.63.0z"/><path fill="#9d827f" d="m547.44 36.59c2.12-.92 4.49-.61 6.75-.59 1.2.1 2.41.1 3.63.0 2.25-.03 4.61-.32 6.75.59.94.33 1.89.68 2.84 1.03 1.73.91 3.47 1.81 5.27 2.59 2.79 1.19 4.42 4 7.23 5.15 2.65 4.23 6.75 7.34 8.87 11.95.24.5.73 1.51.98 2.02.47 1.22 1.09 2.37 1.57 3.6l.68.11c-.01.47-.01 1.42-.01 1.89l.81.08c.2 1.62.76 3.15 1.49 4.61.63 1.66 1.29 3.31 2 4.95.39.96.76 1.92 1.11 2.89.5 2.11.91 4.26 1.92 6.21.38.91.75 1.83 1.1 2.77.32 1.31.56 2.64.83 3.97.39 1.01.77 2.02 1.16 3.04.32 1.3.61 2.62.92 3.93.43 1.31.7 2.66 1 4 .44 1.3.7 2.65.99 4 .44 1.29.72 2.64.98 3.99.49 1.3.74 2.68.96 4.06.38 1 .76 2 1.15 3.01.57 1.43.6 2.99.72 4.52l.84.06c.03 1.1.08 2.2.16 3.31.79 1.23.89 2.69 1.14 4.1.39.99.77 2 1.15 3.01.35 1.31.61 2.64.9 3.96.47 1.73.9 3.47 1.51 5.15.11.93.22 1.86.35 2.8.78 1.12 1.03 2.35.75 3.69-.21 1.05.03 2 .72 2.85l.38 1.03c.15.51.44 1.55.58 2.06.23.36.68 1.08.91 1.45.28 1.31.53 2.64.78 3.97.45 1.29.72 2.64 1.05 3.99.38 1.31.68 2.65 1 3.99.39 1.33.66 2.69.93 4.06.38.99.77 2 1.14 3.01.33 1.3.6 2.62.91 3.93.43 1.31.71 2.65 1.01 4 .38 1.32.67 2.66 1 4 .39 1.32.68 2.66 1.01 4 .36 1.33.66 2.66.99 4 .65 1.58.68 3.3.88 4.97.89 1.52.79 3.3.99 4.99.6 1.28.83 2.67 1.11 4.04.91 1.86.65 3.96.85 5.96.61 1.72 1.04 3.51 1.7 5.23.09 1.25.17 2.51.28 3.77 1.03 1.48.84 3.31 1.06 5.01.94 1.5.79 3.3.99 5 .95 1.5.8 3.3 1 5 1.03 1.41.86 3.14.72 4.79-.19 1.26-.27 2.75.75 3.72.32.38.97 1.14 1.3 1.53.03 1.31.07 2.62.15 3.94 1.11 1.45.85 3.32 1.09 5.02.92 1.51.8 3.3 1 5 .9 1.52.8 3.3 1.01 5 .84 1.54.8 3.3 1.02 5 .49 1.3.79 2.67 1.11 4.04.7 1.99.65 4.14 1.31 6.15.3 1.37.53 2.78 1.2 4.04.1 1.25.18 2.5.3 3.75 1 1.5.83 3.32 1.05 5.02.88 1.53.8 3.31 1.01 5 1.06 1.94.47 4.3 1.62 6.21.2 1.69-.06 3.55 1.05 5.01.08 1.25.15 2.5.25 3.76 1.05 1.47.84 3.31 1.05 5.01.98 1.36.92 3.01.76 4.6.19.49.58 1.47.77 1.96.15.62.46 1.87.61 2.5.87 1.44.7 3.14.56 4.75-.34 1.21.02 2.06 1.1 2.54-.04.59-.1 1.76-.13 2.35-.18 1.05.08 1.99.8 2.82.07.55.21 1.64.28 2.18-.21 1.05.03 2.01.72 2.87.07.53.2 1.6.27 2.14-.26 1.05-.04 2.01.65 2.86.23.4.69 1.18.92 1.57.31 1.29.53 2.6.79 3.91 1.02 1.72.76 3.76.62 5.67-.25 1.05-.03 2.01.67 2.86.23.39.68 1.17.91 1.56.32 1.29.53 2.6.81 3.92.78 1.53.7 3.27.92 4.95.86 1.53.8 3.3 1 5 .9 1.52.79 3.3 1 5 .58 1.28.82 2.66 1.1 4.03.75 1.55.68 3.29.9 4.97.88 1.52.79 3.3 1 5 1.03 1.93.56 4.25 1.54 6.21.2 1.67.3 3.39.86 5.01.33 1.38.49 2.84 1.33 4.05.01 1.14-.01 2.29-.07 3.44-.22 1.05-.01 2 .65 2.87.36.63 1.06 1.89 1.42 2.52.04 1.29.08 2.59.18 3.89 1.09 1.45.84 3.31 1.09 5.01 1.06 1.94.48 4.32 1.64 6.23.09 1.24.18 2.49.3 3.75.68 1.25.86 2.67 1.16 4.05.74 1.56.69 3.29.88 4.97 1.07 1.4.83 3.15.69 4.78-.28 1.28-.02 2.64.81 3.69.65 1.1 1.27 2.22 1.86 3.36.46-.23 1.37-.68 1.83-.91 1.3-.67 2.63-1.31 3.93-1.98 1.33-.65 2.66-1.33 3.99-2 2.68-1.31 5.36-2.64 8.02-4.02 1.08-.51 2.15-1.05 3.25-1.55.91-.49 1.83-.98 2.76-1.45 1.33-.66 2.66-1.31 3.99-1.98 1.34-.67 2.69-1.34 4.03-2.02 1.42-.42 2.82-.93 4.21-1.47.51-.26 1.52-.79 2.02-1.05.95-.57 1.9-1.14 2.85-1.71.37-.02 1.11-.06 1.48-.08l.08-.94c.6-.04 1.79-.12 2.38-.17 1.72-.75 3.49-1.4 5.19-2.2.95-.35 1.91-.67 2.89-.96 1.71-.6 3.42-1.23 5.08-1.97.95-.4 1.92-.76 2.91-1.1.98-.34 1.98-.67 2.99-.96.99-.36 1.99-.7 3.01-1 .99-.37 1.99-.71 3.01-1.02 1.66-.52 3.39-.83 5.06-1.39.47-.12 1.41-.36 1.88-.49 1-.4 2.01-.78 3.05-1.11.98-.37 1.98-.72 2.99-1.06 1.3-.37 2.63-.62 3.99-.87.99-.4 1.99-.78 3.01-1.14 1.3-.37 2.63-.61 3.98-.87.99-.39 1.99-.77 3.01-1.14 1.57-.56 3.25-.62 4.91-.81 1.28-.57 2.66-.83 4.04-1.1 1.29-.46 2.64-.71 4-.98 1.42-.89 3.09-.75 4.7-.6 1.28.24 2.65.08 3.76-.68.41-.23 1.24-.67 1.65-.89 1.88-.61 3.88-.54 5.84-.68 2.28-1.55 5.17-.7 7.74-.71 1.31.28 2.59-.21 3.78-.73 2.3-.82 4.84-.35 7.24-.3 2.25.38 4.51-.02 6.66-.76 3.34-.71 6.82-.19 10.22-.35 2.23.15 4.71-.55 6.69.85 1.96.17 4.01-.01 5.89.78.99.32 1.98.67 2.98 1.03 1.02.34 2.04.73 3.06 1.15.49.07 1.47.22 1.96.29 5.37 3.98 10.58 8.58 13.77 14.56.91 1.7 2.01 3.31 3.06 4.95.63 1.34 1.24 2.7 1.87 4.06.97 1.66 2.06 3.25 3.12 4.86.62 1.99 1.33 3.97 2.29 5.84.52 1.06 1.11 2.1 1.65 3.18.68 2.05 1.44 4.09 2.53 5.98.06.35.16 1.06.21 1.42l.92.08c.04.6.12 1.79.16 2.39.73 1.7 1.36 3.45 2.17 5.13.36.97.7 1.94 1.05 2.93.33.99.66 2 .99 3.01.34.98.67 1.98.99 2.99.34.99.66 1.99.98 3.01.36.98.73 1.97 1.09 2.97.37 1.31.61 2.64.87 3.99.38.99.76 2 1.15 3.02.35 1.3.58 2.64.85 3.98.38 1 .76 2 1.15 3.02.34 1.29.6 2.61.92 3.94.41 1.3.69 2.64 1 3.99.4 1.31.68 2.65 1 4 .81 1.99.46 4.26 1.48 6.19.11.92.23 1.84.37 2.78.97 1.5.81 3.3 1.01 5.01 1.06 1.37.81 3.11.69 4.72-.31 1.3.14 2.58.71 3.76.07.56.22 1.69.3 2.25-.28 1.61.09 3.23.68 4.75.1.79.3 2.37.41 3.16.09 2.84.42 5.68.86 8.5.29 3.88.17 7.79.11 11.68.01.41.01 1.23.02 1.64.04 2.11.25 4.3-.34 6.37-.65 1.82-1.12 3.75-.75 5.7.16 2.54.35 5.15-.35 7.64-.24.4-.73 1.19-.97 1.58-.7.84-.92 1.79-.66 2.85.18 1.55.21 3.17-.53 4.6-.34.99-.69 1.98-1.03 2.98-.35 1.02-.73 2.04-1.13 3.05-.11.47-.32 1.43-.43 1.91-.53 1.29-.94 2.64-1.44 3.96-.3.49-.89 1.47-1.19 1.96-.49 1.38-1.05 2.74-1.45 4.16-1.61 2.22-2.47 4.87-4.06 7.1-.44.9-.87 1.81-1.27 2.73-2.09 3.76-5.13 6.84-7.65 10.29-.43.19-1.3.56-1.74.74v1.14c-2.31 1.11-4.08 3.01-6.32 4.24-1.1.45-2.17.98-3.23 1.5-.97.38-1.93.74-2.9 1.1-1.31.31-2.64.6-3.93.91-3.03 1.33-6.45.43-9.64.68-2.54-.19-5.32.58-7.62-.78-1.67-.19-3.34-.28-4.92-.79-1.03-.4-2.03-.82-3.02-1.24-.49-.08-1.47-.24-1.96-.32-1.36-.78-2.74-1.49-4.12-2.2-.92-.45-1.84-.88-2.75-1.3-5.98-3.12-10.3-8.41-13.97-13.9-.74-1.64-1.51-3.25-2.29-4.84-.3-.53-.91-1.59-1.21-2.12-.08-.47-.26-1.42-.34-1.89-1.4-2.8-1.05-6.29-.17-9.2.34-.98.7-1.94 1.08-2.89.51-1.1 1.05-2.18 1.58-3.26.41-.43 1.24-1.3 1.66-1.73-2.87-2.72-5.34-5.78-7.45-9.1-.37-1.17-.54-2.36-.51-3.56.06-1.59.05-3.18-.02-4.75-.06-1.24.14-2.43.59-3.58.27-.52.82-1.57 1.09-2.09 1.1-2.05 2.78-3.76 4.86-4.83.94-.47 1.88-.94 2.82-1.43 1.6-.8 3.31-1.29 5.09-1.54 3.46-1.41 7.34-.37 10.98-.67-.34-.33-1.03-.98-1.38-1.3-.02-.54-.06-1.61-.08-2.15-.57-.97-1.12-1.94-1.66-2.92-.81-1.46-1.79-2.8-2.57-4.26-2.64-4.69-6.33-8.63-10.14-12.37-1.02.0-2.03.0-3.02.02-2.76 2.73-6.15 4.72-8.74 7.63-4.56 2.63-7.61 7.17-11.51 10.63-6.04 5.38-10.6 12.11-15.7 18.33-.66 1.01-1.32 2.04-1.91 3.1-1.95 2.09-3.57 4.45-4.94 6.95-.92 1.71-2.01 3.32-3.1 4.93-.21.59-.63 1.78-.83 2.37l-.41.16c-1.19 2.08-2.36 4.17-3.23 6.42-.05.35-.14 1.07-.19 1.42l-.65.11c-.5 1.21-1.06 2.41-1.56 3.63-.51.89-1 1.79-1.47 2.7-.37 1.48-.95 2.89-1.55 4.3-.53 1.25-.96 2.54-1.44 3.82-.29 1.01-.6 2.01-.91 3.02-.38 1.03-.78 2.05-1.21 3.07-.12.93-.23 1.88-.33 2.83-1.63 1.66-.46 3.58.52 5.19.33.93.65 1.89.95 2.85.5 1.33.95 2.68 1.49 4.02.11.47.32 1.43.43 1.91.38 1 .74 2.02 1.08 3.06.59 1.71 1.2 3.42 1.97 5.08.37.96.73 1.93 1.09 2.92.48 1.68.81 3.4 1.35 5.08.13.45.4 1.36.53 1.81.5 1.29.79 2.65 1.09 4.03.38 1.31.67 2.64.98 3.99.93 1.85.63 3.95.83 5.95.56 1.14.91 2.34 1.06 3.62-1.13.37-2.25.74-3.37 1.13-1.53-5.74-1.64-11.78-3.58-17.41-1.91-5.45-2.84-11.27-5.68-16.36-3.02-5.51-4.26-11.85-7.87-17.05-1.89-2.73-3.34-5.73-4.37-8.87 2.92.35 7.52 3.07 9.11-.78 2.55-6.8 4.19-13.99 7.81-20.35 5.99-10.11 12.68-19.81 19.93-29.06 5.72-5.91 11.5-11.77 17.63-17.26 3.31-3.1 6.35-6.6 10.43-8.73 4.2-2.21 8.03-5.43 12.79-6.31 2.76 2.27 4.12 5.83 6.34 8.61 4.54 6.05 6.76 13.42 8.23 20.75.22 1.31.36 2.71-.16 3.99-5.6 2.15-11.78 1.18-17.47 2.8-4.81 1.72-6.24 7.38-6.04 11.97.16 1.22.09 2.88 1.3 3.63 3.05 2.01 6.39 3.6 9.19 6.01-2.2 2.12-5.12 4.05-5.55 7.33-.94 5.72-1.49 12.2 1.86 17.29 2 3.54 5.04 6.31 8.15 8.87 2.59 2.1 4.52 5.22 7.85 6.26 4.93 1.58 9.38 4.65 14.64 5.14 6.65.67 13.74-.08 19.51-3.71 3.21-2.01 6.29-4.26 9.17-6.73 4.22-3.65 6.72-8.73 9.63-13.39 7.88-12.65 10.69-27.59 12.75-42.13 2.55-25.95-2.21-52.12-10.72-76.6-1.97-5.8-2.88-11.9-5.1-17.61-2.95-8.76-7.5-16.88-10.24-25.72-1.55-5.29-4.61-9.88-7.68-14.38-3.51-5.91-8.25-11.11-13.76-15.19-8.49-4.7-18.57-4.04-27.94-3.94-12.86.61-25.75 2.09-38.18 5.53-8.05 1.56-15.9 3.93-24 5.22-7.66 2.6-15.25 5.45-22.92 8.04-10.93 4.1-22.23 7.53-32.15 13.84-7.11 3.23-13.91 7.08-20.19 11.74-2.7 2.14-6.15 3.03-8.83 5.18-2.82 2.54-4.86 5.79-7.1 8.83-1.33-4.05-2.61-8.16-4.92-11.78-.19.34-.57 1.01-.76 1.34-1.32.58-2.65 1.1-3.95 1.68 1.2-.74 2.37-1.53 3.43-2.45-1.2-7.84-3.45-15.48-5.13-23.22-4.62-21.39-9.59-42.7-14.46-64.03-13.04-59.29-27.66-118.26-38.64-177.99-5.47-22.48-10.6-45.04-16.04-67.53-3.74-14.56-7.4-29.14-11.04-43.73-2.14-8.63-5.34-16.96-9.05-25.03-3.72-7.83-8.89-15.91-17.31-19.19-8.59-3.11-18.21-.43-25.66 4.31-9.38 5.95-15.14 15.82-19.77 25.61-8.54 18.48-14.76 37.93-20.42 57.45-11.37 41.84-23.67 83.41-35.11 125.23-12.7 43.72-24.32 87.74-37.42 131.35-9.46 32.66-19.52 65.15-29.17 97.76-1.79 5.72-3.64 11.44-6.13 16.9-.7 1.76-2.07 3.08-3.69 4.02-.15-5.73 1.16-11.35 1.53-17.05-9.99.53-19.91 1.88-29.9 2.4-8.62.36-16.82 3.28-25.06 5.54-18.29 6.02-35.98 14.1-52.08 24.71-15.2 10.08-29.52 21.73-41.28 35.74-10.24 12.29-18.73 26.21-23.68 41.48-2.11 6.64-4.85 13.76-2.76 20.76 2.78 8.59 9.29 15.33 16.2 20.85 13.88 11.5 30.87 19.1 48.66 21.96 21.66 3.87 44.08.56 64.75-6.5 14.69-4.73 28.46-11.83 41.85-19.4 9.79-5.75 19.54-11.68 28.18-19.09 6.21-4.69 12.35-10.54 20.47-11.39-1.52 1.84-4.67 3.03-4.87 5.56 3.1 6.36 8.38 12.25 15.49 14.01 6.18 1.84 12.82-.41 17.88-4.06 5.5-4.09 9.83-9.48 14.23-14.67 5.75-7.18 11.47-14.84 13.63-23.96 2.13-7.93 1.1-16.45-2.02-23.98-4.18-11.3-12.28-22.07-24.05-26.08-6.86-2.72-14.35-1.59-21.51-1.22-5.87.59-11.85.25-17.61 1.75-7.23 1.82-14.49 3.54-21.77 5.16-11.72 2.66-23.17 6.32-34.82 9.28-10.21 2.57-20.41 5.54-30.95 6.41.91-2.07 2.16-4.09 4.4-4.89 12.12-5.58 25.1-8.89 37.73-13.07 13.29-3.8 26.49-8.21 40.22-10.19 13.65-2.26 27.79-5.82 41.5-2.01 13.21 4.25 23.54 15.01 29.61 27.23 4.06 8.38 7.22 17.49 7.06 26.91-3.5 3.85-3.97 9.09-5.16 13.91-5.99 15.2-16.51 28.72-30.35 37.55-4.96 2.27-10.53 3.07-15.94 3.19-7.58.17-13.13-6.08-20.43-7.08-.12-.16-.36-.48-.48-.64-1.18-2.05-2.31-4.11-3.43-6.17-15.38 14.96-32.66 28.18-51.96 37.66-12.31 6.01-25.38 10.33-38.77 13.17-3.93.36-6.26 3.76-7.65 7.1-1.61 3.58-2.64 7.39-3.37 11.25-.94-1.12-1.87-2.2-2.8-3.3 1.17-1.2 2.34-2.4 3.5-3.6-1.47-.61-2.93-1.22-4.47-1.59-4.05 4.63-4.81 11.21-3.96 17.1.56 4.19 3 7.85 3.62 12.03.53 5.33-3.03 9.88-3.8 14.99-.01 1.69 1.82 2.38 2.88 3.39-2.5 2.65-5.45 4.94-7.47 8.01-2.38 5.84-2.69 12.27-2.78 18.52-.52 7.05-.47 14.14.09 21.19.62 6.82-.28 13.86 1.95 20.47 1.47 5.59 5.72 10.03 6.65 15.79.95 4.95 3.23 9.51 4.28 14.44.73 3.6 3.55 6.13 5.64 8.98 1.85 2.3 1.77 5.41 2.21 8.19 2.94 3.03 7.07 2.5 10.9 2.7 4.44.41 6.32 4.85 8.93 7.8 3.15 3.37 5.26 7.56 8.63 10.75 2.71 2.55 3.56 6.27 4.52 9.72-.3.32-.89.96-1.18 1.28-6.15-7.06-11.93-14.45-17.06-22.28-1.37-1.71-2.5-4.38-5.09-4.24-2.65-.24-5.24.48-7.75 1.2l-.34.09c0-.6-.02-1.81-.03-2.42-1.1-1.18-1.98-2.51-2.77-3.89-.58-1.39-1.22-2.73-1.84-4.08-1.12-2.45-3.09-4.48-3.68-7.15-1.08-2.28-2.19-4.54-3.4-6.73-.54-1.22-1.1-2.43-1.6-3.64l-.47-.12c-.23-1.62-.79-3.14-1.5-4.58-.73-1.98-1.5-3.91-2.41-5.79-.3-.97-.63-1.93-.97-2.87-.68-1.36-1.25-2.77-1.71-4.2-.33-1-.64-2-.94-3-.38-.99-.75-1.98-1.09-2.96-.34-1.32-.64-2.64-.93-3.95-.41-1.32-.7-2.67-.98-4-1.02-1.74-.68-3.81-.58-5.7.3-1.64-.11-3.25-.7-4.75-.11-.79-.31-2.37-.42-3.16-.01-5.67-.19-11.35.04-17.01.03-.37.09-1.09.12-1.46.42-2.83.83-5.67.86-8.53.15-2.22-.43-4.58.68-6.62.3-1.39.45-2.84 1.21-4.06.07-1.45.1-2.89.13-4.31l.99-.08c0-.73.0-2.19.0-2.92l.8-.04c.48-1.53 1-3.04 1.43-4.57.29-.51.88-1.52 1.18-2.03.28-.99.54-1.98.79-2.96.29-.52.87-1.55 1.16-2.07.79-1.6 1.43-3.26 1.98-4.95.68-1.5 1.44-2.97 1.75-4.59-1.1-1.6-1.27-3.55-1.84-5.34-.13-.46-.37-1.38-.49-1.84-1.05-1.4-.82-3.16-.65-4.76.33-1.21-.01-2.07-1.04-2.56.1-3.61-.68-7.39.53-10.86.34-1 .7-1.99 1.08-2.96.28-1 .57-1.98.89-2.95.34-.52 1.03-1.54 1.38-2.05.01-.6.04-1.8.05-2.41l1.44-.32c-1.05-.79-1.96-2.04-3.43-1.78-9.34.2-18.67.4-28.01.06-.8-.11-2.39-.32-3.18-.43-1.51-.6-3.12-.99-4.73-.69-.82-.07-2.45-.22-3.27-.3-1.17-.56-2.44-1.03-3.74-.72-1.6.15-3.26.32-4.7-.57-1.35-.29-2.69-.56-4-.97-1.32-.32-2.63-.59-3.93-.93-1-.36-1.99-.72-2.98-1.09-1.01-.31-2.01-.63-3.01-.96-.96-.33-1.92-.68-2.86-1.03-2.06-.97-4.22-1.69-6.3-2.6-1.32-.71-2.66-1.37-4.01-2-4.99-3.28-10.39-6.13-14.58-10.46-.75-.67-1.59-1.21-2.5-1.62-1.71-1.54-3.34-3.17-4.88-4.87-1.98-3.64-5.21-6.44-7.06-10.15-.82-1.45-1.79-2.8-2.68-4.18-.33-.97-.66-1.94-.98-2.9-.78-1.74-.61-3.67-.68-5.51l-.93-.07v-.97l1.01-.08c.24-3.18-.77-6.64.76-9.58.18-1.66.25-3.34.81-4.91.34-1 .71-1.99 1.08-2.97.31-1.01.63-2.01.98-3 .31-.99.63-1.97.96-2.94.65-1 1.08-2.13 1.73-3.12.41-1.31.87-2.59 1.31-3.87 1.75-3.28 3.36-6.65 5.07-9.95.63-1.35 1.29-2.68 1.92-4.01 1.03-1.64 2.12-3.25 3.04-4.95 3.99-6.86 8.97-13.08 13.68-19.42 1.78-1.98 4.06-3.64 5.05-6.21.28.0.84-.01 1.12-.01 2.17-4.35 6.45-7.15 9.7-10.65 3.3-1.53 5.17-4.91 8.27-6.75 7.5-6.4 15.81-11.73 23.87-17.37 1.11-.47 2.19-1 3.3-1.46 1.9-1.14 3.71-2.41 5.62-3.51 2.47-1.12 4.88-2.35 7.31-3.56 1.33-.68 2.65-1.36 4-2 1.29-.71 2.62-1.33 3.92-2.03 1.7-.59 3.4-1.22 5.06-1.95 1.67-.64 3.35-1.29 5-1.99 1.68-.67 3.37-1.3 5.02-2.04.95-.38 1.91-.73 2.88-1.05.99-.35 1.98-.67 2.99-.98 1-.35 2-.69 3.01-1 .99-.36 1.99-.7 2.99-1.02 1.68-.51 3.41-.84 5.08-1.37.46-.14 1.38-.4 1.84-.54 1.28-.53 2.64-.78 4-1.06 1.31-.43 2.66-.71 4-1.01 1.31-.41 2.66-.7 4-1 1.57-.69 3.29-.69 4.97-.87 1.79-1.16 3.96-.73 5.97-.93 2.59-1.65 5.8-.55 8.68-.84 2.67-.02 5.34-.02 8.01.02 3.23-.27 6.88.83 9.78-1.04.25-1.22.54-2.42.86-3.61.3-1.35.61-2.69 1.01-4 .3-1.32.57-2.64.9-3.94.39-1.04.81-2.05 1.26-3.05.12-.95.23-1.9.36-2.84.6-1.69 1.03-3.43 1.51-5.15.24-1.39.43-2.8 1.11-4.05.11-.95.22-1.89.33-2.82.44-1.01.85-2.03 1.24-3.05.45-1.67.76-3.37 1.24-5.02.34-1.02.71-2.03 1.11-3.02.23-1.38.49-2.74.93-4.05.3-1.35.57-2.7 1.03-4 .26-1.32.48-2.65.79-3.96.23-.36.68-1.09.9-1.46.16-.51.48-1.53.64-2.04-.26-1.33.03-2.53.87-3.6.05-1.11.09-2.21.13-3.31l.71-.06c.29-1.2.6-2.39.93-3.57.29-1.35.55-2.71 1.04-3.99.24-1.34.48-2.66.78-3.97.23-.36.68-1.09.91-1.46.16-.51.47-1.53.62-2.04-.16-1.26.06-2.44.67-3.54.28-1.35.55-2.71.98-4.01.29-1.35.59-2.69 1.01-4 .26-1.36.53-2.73 1.06-4.01.13-.46.39-1.37.52-1.83.56-1.69.91-3.44 1.44-5.13.28-1.33.53-2.66.9-3.97.36-1.02.75-2.03 1.16-3.02.23-1.37.45-2.74.94-4.04.25-1.37.48-2.74 1.06-4.02.13-.45.38-1.36.51-1.82.54-1.69.91-3.44 1.43-5.13.28-1.33.54-2.66.9-3.96.36-1.02.74-2.02 1.13-3.02.25-1.37.52-2.73.94-4.05.31-1.32.58-2.63.93-3.94.36-1.01.74-2.01 1.14-3.01.24-1.34.49-2.67.85-3.98.36-1.02.75-2.02 1.15-3.01.24-1.37.46-2.75.94-4.06.29-1.32.56-2.64.87-3.95.43-1.04.88-2.06 1.35-3.07.04-1.12.09-2.23.14-3.34l.7-.06c.24-1.23.57-2.42 1-3.59.13-.46.39-1.37.53-1.83.55-1.69.9-3.44 1.44-5.13.26-1.34.5-2.67.85-3.98.41-1.03.86-2.06 1.34-3.07.04-1.11.09-2.23.14-3.33l.7-.08c.3-1.19.61-2.38.94-3.56.29-1.32.58-2.64.92-3.94.36-1.01.74-2.02 1.14-3.01.24-1.37.48-2.74.94-4.06.28-1.35.58-2.71 1.06-4.01.12-.46.36-1.39.48-1.85.4-1.01.79-2.02 1.16-3.04.47-1.68.81-3.4 1.3-5.07.28-1.33.56-2.66.93-3.97.33-1 .69-1.99 1.06-2.97.32-1.03.67-2.05 1.05-3.05.26-1.34.51-2.67.89-3.98.33-1 .69-1.99 1.07-2.97.31-1.03.66-2.04 1.04-3.04.25-1.34.52-2.67.88-3.98.36-1.02.74-2.02 1.14-3.02.25-1.34.5-2.68.86-3.99.34-1 .7-1.99 1.07-2.97.33-1.03.68-2.04 1.05-3.05.27-1.33.5-2.67.87-3.97.37-1.02.75-2.02 1.15-3.01.24-1.35.48-2.69.83-4.01.4-1.03.85-2.06 1.33-3.06.05-1.12.09-2.23.13-3.34l.73-.08c.26-1.17.55-2.34.87-3.5.32-1 .67-1.99 1.05-2.98.33-1.03.69-2.05 1.07-3.06.22-1.36.45-2.73.93-4.03.3-1.31.57-2.63.91-3.94.36-1.01.74-2.01 1.15-3.01.24-1.34.48-2.68.84-3.99.37-1.02.78-2.03 1.23-3.02.11-.47.35-1.41.47-1.88.54-1.67.85-3.4 1.37-5.07.31-1.02.64-2.02 1-3.01.36-1.04.75-2.06 1.18-3.07.1-.97.21-1.92.32-2.88.55-1.33 1.02-2.69 1.56-4.02.29-1.02.6-2.03.94-3.03.33-1.02.69-2.03 1.07-3.03.26-1.34.52-2.68.89-3.99.33-.99.7-1.99 1.08-2.97.3-1.01.62-2.01.97-3.01.33-1.02.68-2.03 1.07-3.04.25-1.33.5-2.67.87-3.98.34-.99.7-1.99 1.08-2.97.3-1.01.63-2.02.98-3.01.33-1.02.68-2.03 1.07-3.04.24-1.33.49-2.67.87-3.98.35-.99.71-1.99 1.1-2.97.28-1.02.6-2.02.94-3.03.39-1.04.81-2.07 1.25-3.09.05-1.11.1-2.22.15-3.33l.73-.06c.17-1.26.52-2.46 1.04-3.61.1-.46.29-1.37.39-1.83.54-1.34 1.01-2.7 1.54-4.03.28-1.02.58-2.03.91-3.04.36-1.02.74-2.03 1.16-3.03.09-.49.28-1.45.37-1.93.58-1.36 1.07-2.75 1.69-4.09.04-.56.13-1.69.17-2.25.33-.28.98-.84 1.3-1.11.17-.51.5-1.52.66-2.02.17-.6.49-1.81.65-2.41.65-1.35 1.28-2.72 1.63-4.19.25-.51.75-1.53 1-2.04.26-.5.78-1.5 1.04-2 .62-1.69 1.21-3.39 1.89-5.06.27-.49.82-1.48 1.09-1.97 1.03-2 2.03-4.02 3.02-6.04.65-1.3 1.33-2.59 1.97-3.89.24-.53.71-1.59.94-2.11 1-1.68 2.11-3.28 3.08-4.97 4.68-7.98 10.73-15.66 19.02-20.09 1.08-.52 2.16-1.04 3.24-1.59.95-.37 1.91-.72 2.89-1.07z"/><path fill="#010101" d="m541.11 51.91c7.45-4.74 17.07-7.42 25.66-4.31 8.42 3.28 13.59 11.36 17.31 19.19 3.71 8.07 6.91 16.4 9.05 25.03 3.64 14.59 7.3 29.17 11.04 43.73 5.44 22.49 10.57 45.05 16.04 67.53 10.98 59.73 25.6 118.7 38.64 177.99 4.87 21.33 9.84 42.64 14.46 64.03 1.68 7.74 3.93 15.38 5.13 23.22-1.06.92-2.23 1.71-3.43 2.45-10.79 6.09-20.75 13.54-31.31 20.02-26.05 16.85-52.02 33.81-78.08 50.66-4.33 3.05-8.9 5.75-13.55 8.31-.63.71-1.22 1.45-1.78 2.22-10.95 5.8-20.91 13.29-31.4 19.86-6.1 4.15-12.46 7.92-18.49 12.17l.03-1.59c.16-9.42-3-18.53-7.06-26.91-6.07-12.22-16.4-22.98-29.61-27.23-13.71-3.81-27.85-.25-41.5 2.01-13.73 1.98-26.93 6.39-40.22 10.19-12.63 4.18-25.61 7.49-37.73 13.07-2.24.8-3.49 2.82-4.4 4.89 10.54-.87 20.74-3.84 30.95-6.41 11.65-2.96 23.1-6.62 34.82-9.28 7.28-1.62 14.54-3.34 21.77-5.16 5.76-1.5 11.74-1.16 17.61-1.75 7.16-.37 14.65-1.5 21.51 1.22 11.77 4.01 19.87 14.78 24.05 26.08 3.12 7.53 4.15 16.05 2.02 23.98-2.16 9.12-7.88 16.78-13.63 23.96-4.4 5.19-8.73 10.58-14.23 14.67-5.06 3.65-11.7 5.9-17.88 4.06-7.11-1.76-12.39-7.65-15.49-14.01.2-2.53 3.35-3.72 4.87-5.56-8.12.85-14.26 6.7-20.47 11.39-8.64 7.41-18.39 13.34-28.18 19.09-13.39 7.57-27.16 14.67-41.85 19.4-20.67 7.06-43.09 10.37-64.75 6.5-17.79-2.86-34.78-10.46-48.66-21.96-6.91-5.52-13.42-12.26-16.2-20.85-2.09-7 .65-14.12 2.76-20.76 4.95-15.27 13.44-29.19 23.68-41.48 11.76-14.01 26.08-25.66 41.28-35.74 16.1-10.61 33.79-18.69 52.08-24.71 8.24-2.26 16.44-5.18 25.06-5.54 9.99-.52 19.91-1.87 29.9-2.4-.37 5.7-1.68 11.32-1.53 17.05 1.62-.94 2.99-2.26 3.69-4.02 2.49-5.46 4.34-11.18 6.13-16.9 9.65-32.61 19.71-65.1 29.17-97.76 13.1-43.61 24.72-87.63 37.42-131.35 11.44-41.82 23.74-83.39 35.11-125.23 5.66-19.52 11.88-38.97 20.42-57.45 4.63-9.79 10.39-19.66 19.77-25.61m43.29 188.4c-1.74 5.3-1.89 11.08-1.3 16.6.31 3.3 3.17 5.64 6.04 6.87 3.85.61 8.03-.48 10.93-3.16-.43-.23-1.28-.68-1.71-.91.27-.29.81-.86 1.08-1.14-.28-4.89 1.2-9.89-.36-14.65-.76-3.14-3.58-5.2-6.22-6.72-2.98-.94-6.86.39-8.46 3.11m-48.29 80.37c-.32 6.9 3.04 13.31 2.65 20.22-20.31-3.41-40.68-6.55-61.06-9.6-7.53-1.37-15.12-2.59-22.76-3.17.62 2.24 1.37 4.46 1.81 6.75-1.5 1.32-3.24 2.33-4.91 3.42 3.45 5.14 10.21 5.31 15.72 6.31.17 9.29 1.47 18.54 3.05 27.68 3.69 12.82 10.63 25.63 22.32 32.76 8.89 6.28 21.68 5.59 30.44-.61 4.73-3.18 9.33-6.85 12.3-11.81 4.97-8.26 8.4-17.38 10.76-26.7 3.48 11.53 7.78 23.37 16.58 31.98 5.79 5.39 12.82 10.32 21.03 10.52 9.08.67 17.3-4.76 22.87-11.5 5.05-6.89 9.61-14.4 11.1-22.93 2.35-8.28 1.36-16.93 2.47-25.37 4.62-2.66 10.14-3.29 14.48-6.46-1.78-1.43-3.58-2.83-5.38-4.22 1.41-1.67 2.83-3.32 4.29-4.96-1.5-1.2-2.81-2.99-4.83-3.21-7.45-.66-14.74 1.48-22.07 2.41-6.04.74-12.04 1.8-18.04 2.81-10.33 1.55-20.73 2.64-31.01 4.54-2.21.48-4.44.09-6.56-.58.12-4.5.29-9.03-.31-13.5-2.62 4.34-2.92 9.54-4.47 14.29-.52.01-1.57.02-2.09.03-1.34-6.85-4-13.61-8.38-19.1m-65.07 79.46c.78 4.12 4.16 6.98 7.13 9.64 5.12 4.59 11.28 8.12 17.97 9.77 7.57.68 16.52.4 22.01-5.67-.28-.22-.84-.66-1.12-.89-6.22.18-12.44 2.06-18.66.73-9.14-1.17-16.84-6.64-23.93-12.14-1.02-.66-2.03-1.93-3.4-1.44m123.61 12.39c-7.15 1.97-14.57.93-21.85.74 1.27 1.09 2.53 2.3 4.22 2.72 5.13 1.66 10.48 3.34 15.95 2.6 7.96-.54 16.19-4.5 20.36-11.49-6.28 1.62-12.28 4.24-18.68 5.43m-68.27 22.23c-5.37 1.6-11.07.64-16.51 1.78-3.01.57-5.86 1.71-8.83 2.44-3.75.95-7.69.56-11.44 1.5-2.97.87-5.63 2.55-8.59 3.44-3.34 1.09-6.98 1.28-10.06 3.07-5.34 3.21-11.69 4.35-16.82 7.97-.15.38-.46 1.14-.62 1.52-.59.0-1.78.01-2.38.02-.36-2.48-.6-4.98-1.31-7.38-.46.08-1.39.22-1.85.3l-.18-1.97c.19-.18.58-.53.77-.7-.51-.14-1.53-.41-2.05-.55l1.53-.84c-1.82.23-4.04-.36-5.44 1.16-2.61 2.35-4.89 5.06-7.71 7.18-1.82 2.85-3.95 5.59-5.02 8.84-.49 3.67-.18 7.39-.46 11.09 1.58 1.58 3.19 3.13 4.85 4.65 4.08.3 8.14 1.44 12.24.65 2.7 4.11 7.44.57 10.81-.62.76-1.72 1.54-3.43 2.33-5.14-.8-.67-1.6-1.34-2.4-2 1.41-2.3 2.38-4.83 2.93-7.46 5.31-2.7 11.26-3.61 16.79-5.77 10.11-3.47 20.2-7.56 31-8.19 4.92.12 9.15-2.91 14.01-3.14 8.39-.63 16.66-2.35 25.08-2.54 16.62-1.35 33.25.89 49.66 3.39 5.1 1.16 10.39 1.48 15.36 3.24 9.02 3.13 18.39 5.19 27.34 8.54.06.32.18.95.24 1.27 2.8.4 6.04 2.11 8.48-.22.24.09.72.28.95.38l-.28-.41c1.18-.34 2.37-.66 3.56-.99-1.66-1.87-3.13-4-5.24-5.38-2.43-1.28-5.09-2.11-7.35-3.69-3.15-2.36-7.18-2.74-10.73-4.23-4.85-1.98-9.9-3.4-14.83-5.14-10.77-3.11-22.14-3.12-32.95-6.04-14.4-2.93-29.09.01-43.61-1.32-3.82-.45-7.61.27-11.27 1.29m119.67 4.34c.19 5 2.62 9.46 5.2 13.62.32-.39.95-1.15 1.26-1.53 2.46 2.69 5 5.37 6.81 8.57.72.93-.04 2.01-.7 2.74-5.08 1.45-10.23 3.26-15.6 2.74-2.97.18-6.71-.74-8.86 1.89-1.69 1.49-.58 4.54 1.51 4.97 5.56 1.85 11.57 1.98 17.32 1 4.07-.35 7.95-2.16 12.09-1.76 2.06-3.42 2.78-7.39 2.41-11.34.36-4.23-2.53-7.63-4.06-11.33-.56-.14-1.11-.27-1.65-.39-2.72-4.63-8.33-5.61-11.9-9.28-1.03-1-2.62.12-3.83.1m-121.39 23.53-.52.42c-2.79.77-5.64 1.41-8.3 2.58-3.56-.93-7.27 1.08-7.82 4.81 4.57 1.66 9.28-.09 13.95.05 4.73.02 9.39-.89 14.07-1.48 9.37-1.34 18.89-1.34 28.24-2.85.56-.41 1.68-1.24 2.24-1.65 1.51-.14 3.03-.37 4.53-.64-2.99-1.19-6.18-1.63-9.38-1.78l-.01-.58c-12.26-2.02-24.9-1.7-37 1.12m-151.5 140.46c-2.69 1.97-3.07 5.59-4.37 8.45 1.29 1.16 2.42 2.49 3.13 4.08 6.08 2.25 13.28 2.55 19.01-.8 1.5-1.62 2.27-3.78 3.08-5.8 1.59-3.34-1.5-7.56-5.06-7.59-5.28-.24-10.79-.25-15.79 1.66z"/><path fill="#b5aaa8" d="m505.13 94.24.85-.22c-.16.5-.49 1.51-.66 2.02-.05-.45-.14-1.35-.19-1.8z"/><path fill="#b2a1a2" d="m615.94 147.04.77.04.58.92c-.16.47-.47 1.42-.63 1.89-.69-.85-.93-1.8-.72-2.85z"/><path fill="#b7aaa8" d="m617.04 150.92.86.24.3 1.05-.58.77c-.14-.51-.43-1.55-.58-2.06z"/><path fill="#210402" d="m584.4 240.31c1.6-2.72 5.48-4.05 8.46-3.11 2.64 1.52 5.46 3.58 6.22 6.72 1.56 4.76.08 9.76.36 14.65-.27.28-.81.85-1.08 1.14.43.23 1.28.68 1.71.91-2.9 2.68-7.08 3.77-10.93 3.16-2.87-1.23-5.73-3.57-6.04-6.87-.59-5.52-.44-11.3 1.3-16.6m1.93 2.79c-1.47 4.78-2.27 9.96-.74 14.83.75.86 1.5 1.73 2.25 2.6 2.14.04 4.28.0 6.43-.08 3.63-5.35 4.5-12.8.7-18.29-1.86-3.19-7.6-2.72-8.64.94z"/><path fill="#c66e5e" d="m586.33 243.1c1.04-3.66 6.78-4.13 8.64-.94 3.8 5.49 2.93 12.94-.7 18.29-2.15.08-4.29.12-6.43.08-.75-.87-1.5-1.74-2.25-2.6-1.53-4.87-.73-10.05.74-14.83m2.22 1.36c-1.54 1.29-1.18 3.71-1.41 5.53.09 2.64-.41 6 2.03 7.79.69.73 2.09 1.33 2.89.42 3.36-2.97 3.09-7.91 2.5-11.94-.49-2.6-4.1-3.24-6.01-1.8z"/><path fill="#ae9e9f" d="m637.93 242.14.59-.05c.97 1.21 1.02 2.46.16 3.77-1.02-.97-.94-2.46-.75-3.72z"/><path fill="#eb583a" d="m588.55 244.46c1.91-1.44 5.52-.8 6.01 1.8.59 4.03.86 8.97-2.5 11.94-.8.91-2.2.31-2.89-.42-2.44-1.79-1.94-5.15-2.03-7.79.23-1.82-.13-4.24 1.41-5.53z"/><path fill="#221f20" d="m536.11 320.68c4.38 5.49 7.04 12.25 8.38 19.1.52-.01 1.57-.02 2.09-.03 1.55-4.75 1.85-9.95 4.47-14.29.6 4.47.43 9 .31 13.5 2.12.67 4.35 1.06 6.56.58 10.28-1.9 20.68-2.99 31.01-4.54 6-1.01 12-2.07 18.04-2.81 7.33-.93 14.62-3.07 22.07-2.41 2.02.22 3.33 2.01 4.83 3.21-1.46 1.64-2.88 3.29-4.29 4.96 1.8 1.39 3.6 2.79 5.38 4.22-4.34 3.17-9.86 3.8-14.48 6.46-1.11 8.44-.12 17.09-2.47 25.37-1.49 8.53-6.05 16.04-11.1 22.93-5.57 6.74-13.79 12.17-22.87 11.5-8.21-.2-15.24-5.13-21.03-10.52-8.8-8.61-13.1-20.45-16.58-31.98-2.36 9.32-5.79 18.44-10.76 26.7-2.97 4.96-7.57 8.63-12.3 11.81-8.76 6.2-21.55 6.89-30.44.61-11.69-7.13-18.63-19.94-22.32-32.76-1.58-9.14-2.88-18.39-3.05-27.68-5.51-1-12.27-1.17-15.72-6.31 1.67-1.09 3.41-2.1 4.91-3.42-.44-2.29-1.19-4.51-1.81-6.75 7.64.58 15.23 1.8 22.76 3.17 20.38 3.05 40.75 6.19 61.06 9.6.39-6.91-2.97-13.32-2.65-20.22m-62.36 25.61c-1.47 13.12.44 27.05 7.96 38.17 4.3 6.84 9.78 13.23 17.12 16.88 5.13 2 10.79 1.61 16.12.75 1.01-.39 2.04-.75 3.08-1.1 9.38-4.44 15.24-13.69 18.7-23.14.54-1.22 1.06-2.46 1.61-3.67.1-.56.31-1.66.41-2.22.57-1.61 1.05-3.24 1.6-4.85.25-3.62.31-7.25.22-10.87-5.43-1.27-11.06-1.38-16.52-2.46-1.43-.14-2.85-.26-4.27-.36-.49 1.61-1 3.2-1.47 4.82-1.5 2.33-3.72 3.96-6.18 5.15-3.99.61-8.21-.43-10.79-3.69-2.57-2.71-2.18-6.65-2.02-10.07-1.49-.14-2.97-.29-4.44-.44-5.22-1.1-10.59-1.31-15.81-2.4-1.77-.2-3.55-.34-5.32-.5m135.14 3.42c-5.34.88-10.71 1.74-16.11 2.08-.84 2.51-1.48 5.09-2.52 7.52-1.51 1.55-3.26 2.91-5.25 3.77-2.4.16-4.77-.43-7.12-.74-1.92-1.98-3.45-4.29-4.24-6.94-6.77.95-13.49 2.19-20.25 3.14-.17.62-.5 1.88-.66 2.51 1 5.07 2.47 10.05 4.42 14.84.31 1.01.64 2.01.98 3.01 3 10.43 10.92 19.08 20.96 23.15 5.11 1.04 11 1.5 15.47-1.72 6.77-4.49 12-11.04 15.72-18.21 1.56-3.59 2.86-7.29 3.95-11.05.2-1.4.42-2.79.67-4.18 1.07-5.84.78-11.82.72-17.73-2.25.15-4.51.29-6.74.55z"/><path fill="#b6aaa6" d="m654.96 323.94.89.17.39 1-.51.79c-.19-.49-.58-1.47-.77-1.96z"/><path fill="#aea89f" d="m656.9 333.15.72-.03c.09.64.28 1.93.38 2.57-1.08-.48-1.44-1.33-1.1-2.54z"/><g fill="#b1a4a2"><path d="m657.87 338.04.78.03.61.9c-.15.47-.45 1.42-.59 1.89-.72-.83-.98-1.77-.8-2.82z"/><path d="m658.95 343.04.77.05.58.92c-.16.48-.48 1.42-.63 1.9-.69-.86-.93-1.82-.72-2.87z"/></g><path fill="#fefefe" d="m473.75 346.29c1.77.16 3.55.3 5.32.5 5.22 1.09 10.59 1.3 15.81 2.4 1.47.15 2.95.3 4.44.44-.16 3.42-.55 7.36 2.02 10.07 2.58 3.26 6.8 4.3 10.79 3.69 2.46-1.19 4.68-2.82 6.18-5.15.47-1.62.98-3.21 1.47-4.82 1.42.1 2.84.22 4.27.36 5.46 1.08 11.09 1.19 16.52 2.46.09 3.62.03 7.25-.22 10.87-.55 1.61-1.03 3.24-1.6 4.85-.1.56-.31 1.66-.41 2.22-.55 1.21-1.07 2.45-1.61 3.67-3.46 9.45-9.32 18.7-18.7 23.14-1.04.35-2.07.71-3.08 1.1-5.33.86-10.99 1.25-16.12-.75-7.34-3.65-12.82-10.04-17.12-16.88-7.52-11.12-9.43-25.05-7.96-38.17z"/><path fill="#afa3a2" d="m659.94 348.05.77.06.55.93c-.17.46-.51 1.4-.67 1.87-.69-.85-.91-1.81-.65-2.86z"/><g fill="#fdfdfd"><path d="m608.89 349.71c2.23-.26 4.49-.4 6.74-.55.06 5.91.35 11.89-.72 17.73-.25 1.39-.47 2.78-.67 4.18-1.09 3.76-2.39 7.46-3.95 11.05-3.72 7.17-8.95 13.72-15.72 18.21-4.47 3.22-10.36 2.76-15.47 1.72-10.04-4.07-17.96-12.72-20.96-23.15-.34-1-.67-2-.98-3.01-1.95-4.79-3.42-9.77-4.42-14.84.16-.63.49-1.89.66-2.51 6.76-.95 13.48-2.19 20.25-3.14.79 2.65 2.32 4.96 4.24 6.94 2.35.31 4.72.9 7.12.74 1.99-.86 3.74-2.22 5.25-3.77 1.04-2.43 1.68-5.01 2.52-7.52 5.4-.34 10.77-1.2 16.11-2.08z"/><path d="m331.26 854.33c.98.43 1.53 1.22 1.67 2.36-1.67-.01-2.23-.8-1.67-2.36z"/><path d="m338.32 864.37c.99.51 1.52 1.31 1.61 2.39-1.68-.04-2.21-.84-1.61-2.39z"/><path d="m340.65 868.25c1.56 1.55 2.96 3.26 4.37 4.95-1.71-1.39-3.48-2.88-4.37-4.95z"/><path d="m346.09 874.15c1.34.79 2.03 2.28 2.05 3.83-1.51.33-2.86-2.67-2.05-3.83z"/><path d="m350.37 884.99c.92 1.48 1.37 3.17 1.56 4.91-1.69-.04-3.12-3.7-1.56-4.91z"/><path d="m352.19 891.31c.17.42.5 1.28.67 1.7 1.03 2.34.62 4.98 1.06 7.46-1.06-2.89-1.48-6.09-1.73-9.16z"/><path d="m354.15 901.26c.6 1.81 1.35 3.69 1.01 5.67-2.22-.22-1.58-4.14-1.01-5.67z"/><path d="m355.12 907.68c.06 2.97.43 5.92.75 8.88-1.7-2.62-.61-5.96-.75-8.88z"/><path d="m355.99 917.73c1.08 12.44 2.1 24.8 3.62 37.2l1.03-.45c-.73 7.15 3.24 13.62 6.23 19.82-1.72-1.59-2.51-3.82-3.61-5.81-.09-.52-.27-1.56-.36-2.08-.57-.98-1.12-1.95-1.67-2.91-.11-.49-.33-1.47-.44-1.96-.92-2.05-.28-4.5-1.65-6.36-.1-1.54-.16-3.07-.26-4.58-1.48-2.53-.31-5.6-1.11-8.31-1.41-3.47-.07-7.41-.99-11-1.42-4.29-.5-9.08-.79-13.56z"/><path d="m830.31 933.17c2.92-4.26 4.04-9.42 6.58-13.89-.48 4.11-2.49 7.68-4.22 11.35-.8.84-1.58 1.69-2.36 2.54z"/><path d="m816.79 943.71c.82-.82 1.85-1.38 2.96-1.73.69 1.56-1.98 3.31-2.96 1.73z"/><path d="m626.07 965.73c.09-.02.27-.06.36-.08-.09.02-.27.06-.36.08z"/><path d="m369.35 977.3c.85.6 1.38 1.43 1.59 2.47-1.76-.05-2.29-.87-1.59-2.47z"/><path d="m371.71 981.37c2.26 2.32 4.61 4.56 6.85 6.91-2.78-1.68-5.21-4.12-6.85-6.91z"/><path d="m383.22 991.06c1.2.07 2.17.84 2.99 1.69-1.03 1.4-3.58-.19-2.99-1.69z"/><path d="m386.66 993.07c3.01 1.22 6.03 2.47 8.85 4.11-1.75-.28-3.3-1.13-4.86-1.88-1.36-.7-2.74-1.37-3.99-2.23z"/></g><path fill="#b0a3a1" d="m662.92 362.06.77.05.55.92c-.16.47-.49 1.42-.65 1.89-.7-.85-.92-1.81-.67-2.86z"/><path fill="#211f20" d="m471.04 400.14c1.37-.49 2.38.78 3.4 1.44 7.09 5.5 14.79 10.97 23.93 12.14 6.22 1.33 12.44-.55 18.66-.73.28.23.84.67 1.12.89-5.49 6.07-14.44 6.35-22.01 5.67-6.69-1.65-12.85-5.18-17.97-9.77-2.97-2.66-6.35-5.52-7.13-9.64z"/><path fill="#b5a9a5" d="m414.13 405.15.87-.22c-.15.51-.46 1.53-.62 2.04l-.58-.77z"/><path fill="#222121" d="m594.65 412.53c6.4-1.19 12.4-3.81 18.68-5.43-4.17 6.99-12.4 10.95-20.36 11.49-5.47.74-10.82-.94-15.95-2.6-1.69-.42-2.95-1.63-4.22-2.72 7.28.19 14.7 1.23 21.85-.74z"/><path fill="#aa9e9c" d="m830.1 417.09c.53-2.22 4.84-1.28 6.66-.76-2.15.74-4.41 1.14-6.66.76z"/><g fill="#b0a4a2"><path d="m819.03 417.47c1.23-1.06 2.51-1.09 3.83-.08-1.19.52-2.47 1.01-3.78.73z"/><path d="m914.92 591.96c-.26-1.06-.04-2.01.66-2.85.17.47.5 1.41.66 1.88l-.55.92z"/></g><path fill="#b4a29f" d="m674.89 418.06.78.06.56.93c-.17.47-.52 1.41-.69 1.88-.66-.87-.87-1.82-.65-2.87z"/><path fill="#b3a7a2" d="m800.05 420.47c1.23-1.02 2.49-1.04 3.8-.07-1.11.76-2.48.92-3.76.68z"/><g fill="#bd7773"><path d="m799.83 426.68c12.43-3.44 25.32-4.92 38.18-5.53 9.37-.1 19.45-.76 27.94 3.94 5.51 4.08 10.25 9.28 13.76 15.19 3.07 4.5 6.13 9.09 7.68 14.38 2.74 8.84 7.29 16.96 10.24 25.72 2.22 5.71 3.13 11.81 5.1 17.61 8.51 24.48 13.27 50.65 10.72 76.6-2.06 14.54-4.87 29.48-12.75 42.13-2.91 4.66-5.41 9.74-9.63 13.39-2.88 2.47-5.96 4.72-9.17 6.73-5.77 3.63-12.86 4.38-19.51 3.71-5.26-.49-9.71-3.56-14.64-5.14-3.33-1.04-5.26-4.16-7.85-6.26-3.11-2.56-6.15-5.33-8.15-8.87-3.35-5.09-2.8-11.57-1.86-17.29.43-3.28 3.35-5.21 5.55-7.33-2.8-2.41-6.14-4-9.19-6.01-1.21-.75-1.14-2.41-1.3-3.63-.2-4.59 1.23-10.25 6.04-11.97 5.69-1.62 11.87-.65 17.47-2.8.52-1.28.38-2.68.16-3.99-1.47-7.33-3.69-14.7-8.23-20.75-2.22-2.78-3.58-6.34-6.34-8.61-4.76.88-8.59 4.1-12.79 6.31-4.08 2.13-7.12 5.63-10.43 8.73-6.13 5.49-11.91 11.35-17.63 17.26-7.25 9.25-13.94 18.95-19.93 29.06-3.62 6.36-5.26 13.55-7.81 20.35-1.59 3.85-6.19 1.13-9.11.78 1.03 3.14 2.48 6.14 4.37 8.87 3.61 5.2 4.85 11.54 7.87 17.05 2.84 5.09 3.77 10.91 5.68 16.36 1.94 5.63 2.05 11.67 3.58 17.41 1.18 4.33.87 8.86.38 13.28-.83 6.91.16 14.07-2.22 20.75-1.91 5.48-3.6 11.19-7.01 15.98-3.56 5-6.66 10.44-11.28 14.58-7.05 6.91-15.66 11.87-23.88 17.22-.67-.23-2-.68-2.66-.9 6.84-4.74 14.46-8.42 20.53-14.21 8.34-7.68 15.74-16.81 19.54-27.62 6.08-17.07 5.48-35.95.94-53.31-4.82-18.39-14.25-35.03-23.6-51.41-6.17-10.29-11.77-20.91-18.02-31.14-.06-1.96.0-3.91.08-5.86 11.43 13.49 21.59 28.07 30.66 43.23 2.87-7.49 5.26-15.21 9.01-22.32 6.42-11.25 14.17-21.71 22.49-31.61 11.56-12.95 24.7-25 40.58-32.37 2.82-1.38 6-1.43 9.08-1.42-1.74 1.7-3.58 3.3-5.39 4.92 6.99 7.59 11.35 17.32 13.68 27.29.4 2.99 1.5 6.66-.6 9.25-5.9 2.31-12.69-.04-18.62 2.35-3.78 2.17-6.06 7.91-2.75 11.45 4 4.43 10.56 4.22 16.05 4.24.74-1.85 1.5-3.68 2.29-5.5 1.38 3.43 2.53 6.97 3.31 10.6.02 3.5-.08 7.17-1.88 10.29-1.37-2.78-2.6-5.62-3.82-8.46-3.51.04-7.02.08-10.52.09-2.19 4.11-3.59 8.88-2.22 13.52 2.29 9.41 10.43 15.83 18.36 20.58 7.8 4.5 17.72 6.88 26.22 2.86 12.67-5.43 21.49-17.11 26.13-29.79 6.31-15.7 8.86-32.74 8.73-49.6-1.39-34.08-12.59-66.8-25.25-98.16-3.86-10.79-9.84-20.95-18.27-28.8-4.88-4.54-11.82-5.26-18.14-5.98-9.95-1.25-19.9.43-29.77 1.56-36.56 5.56-72.68 16.2-104.99 34.45-9.47 5.32-18.7 11.19-27.11 18.06.09 6.32 2.38 12.39 2.77 18.71-.68-.09-2.05-.27-2.73-.36-4.52-8.57-7.24-17.94-8.99-27.43.19-.33.57-1 .76-1.34 2.31 3.62 3.59 7.73 4.92 11.78 2.24-3.04 4.28-6.29 7.1-8.83 2.68-2.15 6.13-3.04 8.83-5.18 6.28-4.66 13.08-8.51 20.19-11.74 9.92-6.31 21.22-9.74 32.15-13.84 7.67-2.59 15.26-5.44 22.92-8.04 8.1-1.29 15.95-3.66 24-5.22z"/><path d="m636.44 451.69c4.58 2.07 9.85 3.81 12.36 8.57l.28.41c-.23-.1-.71-.29-.95-.38-4.7-1.99-9.41-3.98-14.25-5.61.66-.25 1.97-.75 2.63-1-.02-.5-.05-1.49-.07-1.99z"/><path d="m452.94 459.06c.52-.32 1.56-.97 2.09-1.3-.55 1.27-1.05 2.56-1.55 3.85l1.64 1.28c-1.43.53-2.91.93-4.36 1.38-.16-.78-.49-2.34-.65-3.12.94-.7 1.88-1.39 2.83-2.09z"/></g><path fill="#af2c2c" d="m820.01 425.66c9.87-1.13 19.82-2.81 29.77-1.56 6.32.72 13.26 1.44 18.14 5.98 8.43 7.85 14.41 18.01 18.27 28.8 12.66 31.36 23.86 64.08 25.25 98.16.13 16.86-2.42 33.9-8.73 49.6-4.64 12.68-13.46 24.36-26.13 29.79-8.5 4.02-18.42 1.64-26.22-2.86-7.93-4.75-16.07-11.17-18.36-20.58-1.37-4.64.03-9.41 2.22-13.52 3.5-.01 7.01-.05 10.52-.09 1.22 2.84 2.45 5.68 3.82 8.46 1.5 3.16 3.38 6.19 5.9 8.65-1.37.07-2.74.14-4.09.22-2.15-4.24-4.1-8.59-6.46-12.72-1.35-3.39-6.56-3.26-8.56-.67-2.79 7.74 1.38 16.04 6.92 21.42 7.97 6.04 17.26 12.05 27.71 11.2 6.58-1.91 13.27-4.82 17.85-10.12 4.02-4.18 6.81-9.3 10.03-14.07 2.99-4.3 3.38-9.7 5.45-14.41 2.65-6.13 3.59-12.8 4.56-19.34 1.28-15.69 1.74-31.65-1.65-47.13-1.63-6.75-2.18-13.78-4.76-20.28-2.43-6.03-2.29-12.79-5.45-18.56-5.27-13.76-9.94-27.74-15.53-41.37-5.27-9.52-12.23-19.61-23.22-22.83-14.56-3.47-29.53-.7-44.07 1.36-10.02 1.66-20.08 3.22-29.73 6.47-7.13 2.52-14.67 3.57-21.77 6.14-8.24 3.39-16.87 5.82-24.69 10.18-9 3.45-17.28 8.44-25.45 13.5-7.02 4.05-14.85 7.6-20.12 13.91-1.15 6.2 1.36 12.39 2.07 18.55.38 2.18-1.9 3.33-3.25 4.56-.72-2.01-1.44-4.03-2.3-5.98.68.09 2.05.27 2.73.36-.39-6.32-2.68-12.39-2.77-18.71 8.41-6.87 17.64-12.74 27.11-18.06 32.31-18.25 68.43-28.89 104.99-34.45z"/><g fill="#d11d1c"><path d="m813.19 429.19c14.54-2.06 29.51-4.83 44.07-1.36 10.99 3.22 17.95 13.31 23.22 22.83 5.59 13.63 10.26 27.61 15.53 41.37 3.16 5.77 3.02 12.53 5.45 18.56 2.58 6.5 3.13 13.53 4.76 20.28 3.39 15.48 2.93 31.44 1.65 47.13-.97 6.54-1.91 13.21-4.56 19.34-2.07 4.71-2.46 10.11-5.45 14.41-3.22 4.77-6.01 9.89-10.03 14.07-4.58 5.3-11.27 8.21-17.85 10.12-10.45.85-19.74-5.16-27.71-11.2-5.54-5.38-9.71-13.68-6.92-21.42 2-2.59 7.21-2.72 8.56.67 2.36 4.13 4.31 8.48 6.46 12.72 1.35-.08 2.72-.15 4.09-.22.39.4 1.16 1.18 1.55 1.58.23.24.7.74.94.99.52-7.18.19-14.66-2.74-21.34-1.67-3.93-2.97-8.09-5.44-11.6-.32-.67-.83-.89-1.51-.65-2.98.75-5.17 3.41-8.22 3.91-3.18-.21-6.78-1.43-8.36-4.41.33-2.19 1.18-4.25 1.94-6.32 5.75-.96 11.63-.56 17.38-1.43 2.23-.2 3.45-2.34 3.89-4.31 1-3.76-.58-7.48-1.77-10.98-1.91-5.09-3.11-10.51-5.94-15.21-1.22-2.11-2.66-4.1-3.56-6.37-1-2.82 2.42-6.42-.34-8.64-1.94-1.92-4.84-1.24-7.17-.66-8.74 2.2-15.32 8.72-22.76 13.39-7.41 4.74-12.72 11.88-18.92 17.96-3.05 3.03-5.39 6.65-8.07 9.97-3.87 4.84-8.16 9.4-11.14 14.87-2.41 4.54-5.77 8.55-7.67 13.36-1.84 4.57-3.42 9.24-5.04 13.9-1.72-.86-3.26-2.06-4.03-3.87-3.12-6.32-8.2-11.35-11.75-17.4-2.68-4.54-6.2-8.47-9.33-12.68-2.35-3.48-5.09-7.32-9.73-7.45-.42-.1-1.25-.31-1.66-.41-.01.43-.04 1.3-.05 1.73-.18 2.79-.3 5.85 1.53 8.19 2.12 2.96 4.52 5.79 5.53 9.38.98 3.6 4.48 5.54 6.27 8.66 1.61 2.82 2.65 5.95 4.29 8.77 5.82 9.1 10.55 18.84 15.48 28.43 2.58 5.77 5.94 11.19 8.03 17.17 2.06 6.79 4.81 13.42 5.57 20.54 1.96 9.55 2.53 19.43.91 29.08-1.5 7.14-3.01 14.47-7.08 20.66-2.88 6.44-7.83 11.5-12.23 16.89-2.59 3.2-6.44 4.92-9.39 7.71-2.99 3.04-7.63 3.32-10.71 6.23-3.21 2.87-6.78 5.31-10.63 7.25-6.59 3.34-12.26 8.35-19.29 10.85-8.81 3.08-17.2 7.27-26.2 9.83-7.48 2.92-15.34 4.63-22.97 7.06-4.91 1.49-10.04 1.91-15.03 3.02-8.11 2.07-16.54 2.27-24.68 4.19-14.4 1.61-28.92 1.69-43.38 2.41-12.39.68-24.62-1.88-36.98-1.89-8.09.01-16.08-1.35-24-2.8-6.07-1.15-12.3-.56-18.37-1.69-12.54-2.34-25.23-4.03-37.53-7.48-11.47-3.04-22.96-6.15-33.84-10.92-11.05-3.77-21.21-9.53-31.65-14.64-6.99-3.83-14.14-7.44-20.44-12.39-12.53-7.41-24.33-16.15-34.65-26.45-4.09-3.89-6.67-9.03-8.65-14.24-1.35-3.11.24-6.61 2.61-8.72 3.31-2.92 7.42-4.66 11.21-6.86 5.67-3.12 10.41-7.61 15.73-11.25 6.27-4.17 12.88-7.79 19.32-11.65 6.83-5.77 15.12-9.37 22.23-14.77 7.33-5.48 15.21-10.15 23.05-14.83 3.37-1.87 6.17-4.95 9.99-5.88 3.16 1.15 5.31 4.12 8.54 5.18 7.55 2.27 15.8 3.52 23.44.86 6.75-1.33 11.61-6.39 17.09-10.1 8.71-5.49 13.16-15.18 18.45-23.61 3.49-5.27 4.27-11.59 5.62-17.61 1.14-5.48 7.25-6.88 11.23-9.73 6.62-4.74 13.53-9.03 20.18-13.71 5.25-3.18 10.55-6.39 15.04-10.62-.59 5.06 2.14 9.54 6.4 12.07 1.29-1.95 3-3.78 3.53-6.13.53-3.5-.69-6.91-1.64-10.22 7.98-5.78 16.91-10.11 24.78-16.06 6.31-4.76 13.3-8.5 19.59-13.27 7.13-4.69 14.31-9.3 21.82-13.35 9.78-6.52 19.57-12.99 29.35-19.5 3.74-2.2 7.57-4.29 10.87-7.15 4.21-3.61 9.28-5.92 14.27-8.2 2.1 5.69 2.29 11.92 4.88 17.47 2.02 4.24 2.95 9.91 7.8 11.9 1.35-1.23 3.63-2.38 3.25-4.56-.71-6.16-3.22-12.35-2.07-18.55 5.27-6.31 13.1-9.86 20.12-13.91 8.17-5.06 16.45-10.05 25.45-13.5 7.82-4.36 16.45-6.79 24.69-10.18 7.1-2.57 14.64-3.62 21.77-6.14 9.65-3.25 19.71-4.81 29.73-6.47m-69.23 52.64c4.6-.19 9.32-.61 13.59-2.49 2.3-1.6 3.35-5.81.67-7.54-6.23-4.74-16.98 2.34-14.26 10.03m149.41 90.64c-3.59 1.83-5.27 6.12-5.9 9.91-.67 2.95.91 6.41 3.94 7.24 2.18.2 3.97-1.53 4.88-3.35 2.01-3.67 3.59-8.25 1.8-12.31-.52-2.1-3.09-1.91-4.72-1.49m-227.18 90.9c-3.67 2.48-4.47 7.5-4.61 11.62-.5 5 5.7 9.19 10.02 6.7 4.59-4.14 3.28-11.06.76-15.95-.99-2.25-3.91-3.83-6.17-2.37m-221.35 2.51c-2.99 3.81-4.95 9.29-2.68 13.92 1.41 2.9 4.95 1.86 7.53 2.02 2.44-4.78 3.22-10.71 1.22-15.76-.83-2.78-4.63-1.99-6.07-.18m113.6 80.61c-3.74 2.09-8.11 1.47-12.17 2.06-1.56 1.07-2.34 3.25-1.85 5.08 2.08 3.19 5.62 5.43 9.51 5.38 5.3.95 10.18-1.89 14.18-5.04 2.34-2.74 1.43-6.63.55-9.76-3.57-.14-7.09.55-10.22 2.28m-19.81 16.03.67.28.22.71c-1.09 1.26-1.58 2.91-1.28 4.57.06 2.95 3.51 3.71 5.44 5.28 4.41 3.3 10.14 3.36 15.39 4.01 6.37-.4 12.12-4.16 16.26-8.84.26-1.39.29-2.81.4-4.2-.47-.41-1.42-1.23-1.89-1.64l.16-.75c-6.4.99-12.41 4.29-19.05 3.59-5.88.64-10.52-6.5-16.32-3.01z"/><path d="m724.58 880.39c16.43-.68 32.78 2.67 48.22 8.07 3.8 2.35 8.39 3.13 11.95 5.86 3.73 1.76 7.66 3.36 10.78 6.15 1.18.95 1.56 2.64.94 4.04-3.11 8.57-5.49 17.4-9.11 25.79-2.58 5.13-5.51 10.09-7.83 15.35-4.1 10.12-11.69 18.18-18.03 26.9-7.43 8.24-15.31 16.12-24.11 22.91-3.6 2.25-7.75 3.39-11.42 5.49-6.07 3.3-14.1 1.84-18.73-3.18-1.71-3.38-3.55-6.76-4.72-10.36-1.45-8.89-1.03-18.19 2.01-26.73 2.68-7.6 3.61-15.72 6.98-23.08 2.96-9.71 5.62-19.53 7.64-29.48 3.26-8.94 3.12-18.57 5.43-27.73z"/></g><path fill="#b9aaa6" d="m408.13 427.15.88-.22c-.16.51-.48 1.53-.64 2.04l-.57-.77z"/><path fill="#2e0303" d="m526.38 434.76c3.66-1.02 7.45-1.74 11.27-1.29 14.52 1.33 29.21-1.61 43.61 1.32 10.81 2.92 22.18 2.93 32.95 6.04 4.93 1.74 9.98 3.16 14.83 5.14 3.55 1.49 7.58 1.87 10.73 4.23 2.26 1.58 4.92 2.41 7.35 3.69 2.11 1.38 3.58 3.51 5.24 5.38-1.19.33-2.38.65-3.56.99-2.51-4.76-7.78-6.5-12.36-8.57-9.25-4.03-18.72-7.69-28.55-10.02-13.36-2.38-26.65-5.54-40.25-6.09-24.6-.99-49.47.42-73.4 6.51-13.68 3.48-27.07 8.44-39.21 15.67-.53.33-1.57.98-2.09 1.3.14-.64.43-1.94.57-2.58.16-.38.47-1.14.62-1.52 5.13-3.62 11.48-4.76 16.82-7.97 3.08-1.79 6.72-1.98 10.06-3.07 2.96-.89 5.62-2.57 8.59-3.44 3.75-.94 7.69-.55 11.44-1.5 2.97-.73 5.82-1.87 8.83-2.44 5.44-1.14 11.14-.18 16.51-1.78z"/><path fill="#db5f4c" d="m494.24 442.09c23.93-6.09 48.8-7.5 73.4-6.51 13.6.55 26.89 3.71 40.25 6.09-.13.34-.38 1.03-.5 1.38 3.84.97 7.63 2.19 11.25 3.83-1.33.64-2.67 1.27-4 1.89-21.06-5.4-42.86-7.7-64.57-7.15-32.57 1.53-64.87 8.67-94.95 21.27-.41-.32-1.23-.96-1.64-1.28.5-1.29 1-2.58 1.55-3.85 12.14-7.23 25.53-12.19 39.21-15.67z"/><path fill="#340405" d="m646.05 439.1c1.21.02 2.8-1.1 3.83-.1 3.57 3.67 9.18 4.65 11.9 9.28.54.12 1.09.25 1.65.39 1.53 3.7 4.42 7.1 4.06 11.33.37 3.95-.35 7.92-2.41 11.34-4.14-.4-8.02 1.41-12.09 1.76-5.75.98-11.76.85-17.32-1-2.09-.43-3.2-3.48-1.51-4.97 2.15-2.63 5.89-1.71 8.86-1.89 5.37.52 10.52-1.29 15.6-2.74.66-.73 1.42-1.81.7-2.74-1.81-3.2-4.35-5.88-6.81-8.57-.31.38-.94 1.14-1.26 1.53-2.58-4.16-5.01-8.62-5.2-13.62m.62.76c.66 1.42 1.32 2.89 2.44 4.02 4.04 4.22 8.36 8.2 12.01 12.78 1.46 1.68 1.33 3.97 1.57 6.06-.98.63-1.92 1.31-2.94 1.85-8.07 2.53-16.57 2.9-24.96 3.03 1.42 3.65 5.98 3.23 9.2 3.72 6.07-.09 12.62-.19 18.03-3.27 5.09-2.93 4.26-10.22 1.34-14.44-3.63-6.58-10.86-9.54-16.69-13.75z"/><path fill="#c8685d" d="m646.67 439.86c5.83 4.21 13.06 7.17 16.69 13.75 2.92 4.22 3.75 11.51-1.34 14.44-5.41 3.08-11.96 3.18-18.03 3.27-3.22-.49-7.78-.07-9.2-3.72 8.39-.13 16.89-.5 24.96-3.03 1.02-.54 1.96-1.22 2.94-1.85-.24-2.09-.11-4.38-1.57-6.06-3.65-4.58-7.97-8.56-12.01-12.78-1.12-1.13-1.78-2.6-2.44-4.02z"/><path fill="#2e0400" d="m455.12 462.89c30.08-12.6 62.38-19.74 94.95-21.27 21.71-.55 43.51 1.75 64.57 7.15 6.46 1.8 12.88 3.77 19.24 5.91 4.84 1.63 9.55 3.62 14.25 5.61-2.44 2.33-5.68.62-8.48.22-.06-.32-.18-.95-.24-1.27-8.95-3.35-18.32-5.41-27.34-8.54-4.97-1.76-10.26-2.08-15.36-3.24-16.41-2.5-33.04-4.74-49.66-3.39-8.42.19-16.69 1.91-25.08 2.54-4.86.23-9.09 3.26-14.01 3.14-10.8.63-20.89 4.72-31 8.19-5.53 2.16-11.48 3.07-16.79 5.77-2.91 1.28-6.13 1.47-9.25 1.23l-.16-.67c1.45-.45 2.93-.85 4.36-1.38z"/><path fill="#ce675f" d="m607.39 443.05c.12-.35.37-1.04.5-1.38 9.83 2.33 19.3 5.99 28.55 10.02.02.5.05 1.49.07 1.99-.66.25-1.97.75-2.63 1-6.36-2.14-12.78-4.11-19.24-5.91 1.33-.62 2.67-1.25 4-1.89-3.62-1.64-7.41-2.86-11.25-3.83z"/><path fill="#471007" d="m442.6 446.52c1.4-1.52 3.62-.93 5.44-1.16l-1.53.84c-3.48 1.83-5.82 5.12-8.56 7.84-3.39 3.51-6.94 7.73-6.65 12.94-.2 3.83 1.63 8.25 5.68 9.24 4.63.79 9.4.59 14.06.17 1.86.01 2.88-1.71 4.38-2.47-5.91-.91-12.19-.22-17.81-2.56-3.05-1.27-2.24-5.2-1.77-7.75 2.28-6.41 7.06-11.59 11.95-16.16l.18 1.97c-3.44 4.82-8.42 8.71-10.25 14.54-.56 2-.62 4.81 1.49 5.95 4.69 2.57 10.44.65 15.29 2.71.9.83 1.3 2.05 1.96 3.08-3.12 1.62-6.43 2.93-9.96 3.23-4.1.79-8.16-.35-12.24-.65-1.66-1.52-3.27-3.07-4.85-4.65.28-3.7-.03-7.42.46-11.09 1.07-3.25 3.2-5.99 5.02-8.84 2.82-2.12 5.1-4.83 7.71-7.18z"/><path fill="#cd6a5b" d="m437.95 454.04c2.74-2.72 5.08-6.01 8.56-7.84.52.14 1.54.41 2.05.55-.19.17-.58.52-.77.7-4.89 4.57-9.67 9.75-11.95 16.16-.47 2.55-1.28 6.48 1.77 7.75 5.62 2.34 11.9 1.65 17.81 2.56-1.5.76-2.52 2.48-4.38 2.47-4.66.42-9.43.62-14.06-.17-4.05-.99-5.88-5.41-5.68-9.24-.29-5.21 3.26-9.43 6.65-12.94z"/><path fill="#0d030a" d="m447.97 449.42c.46-.08 1.39-.22 1.85-.3.71 2.4.95 4.9 1.31 7.38.6-.01 1.79-.02 2.38-.02-.14.64-.43 1.94-.57 2.58-.95.7-1.89 1.39-2.83 2.09.16.78.49 2.34.65 3.12l.16.67c3.12.24 6.34.05 9.25-1.23-.55 2.63-1.52 5.16-2.93 7.46.8.66 1.6 1.33 2.4 2-.79 1.71-1.57 3.42-2.33 5.14-3.37 1.19-8.11 4.73-10.81.62 3.53-.3 6.84-1.61 9.96-3.23-.66-1.03-1.06-2.25-1.96-3.08-4.85-2.06-10.6-.14-15.29-2.71-2.11-1.14-2.05-3.95-1.49-5.95 1.83-5.83 6.81-9.72 10.25-14.54z"/><path fill="#b5a09c" d="m682.9 456.13c1.76-.33 1.72 2.79.81 3.69-.83-1.05-1.09-2.41-.81-3.69z"/><path fill="#db6049" d="m524.66 462.63c12.1-2.82 24.74-3.14 37-1.12l.01.58c.03.69.07 2.06.1 2.75-14.35 1.34-28.67 2.97-43.04 4.02 1.53-2.18 3.27-4.21 5.41-5.81z"/><path fill="#bb7f7d" d="m561.67 462.09c3.2.15 6.39.59 9.38 1.78-1.5.27-3.02.5-4.53.64-1.59.11-3.18.22-4.75.33-.03-.69-.07-2.06-.1-2.75z"/><path fill="#bf6e61" d="m515.84 465.63c2.66-1.17 5.51-1.81 8.3-2.58-2.14 1.6-3.88 3.63-5.41 5.81-2.89.44-5.82.59-8.73.55 1.89-1.33 3.82-2.64 5.84-3.78z"/><path fill="#4a140d" d="m508.02 470.44c.55-3.73 4.26-5.74 7.82-4.81-2.02 1.14-3.95 2.45-5.84 3.78 2.91.04 5.84-.11 8.73-.55 14.37-1.05 28.69-2.68 43.04-4.02 1.57-.11 3.16-.22 4.75-.33-.56.41-1.68 1.24-2.24 1.65-9.35 1.51-18.87 1.51-28.24 2.85-4.68.59-9.34 1.5-14.07 1.48-4.67-.14-9.38 1.61-13.95-.05z"/><path fill="#aa3030" d="m675.01 470.77c1.3-.58 2.63-1.1 3.95-1.68 1.75 9.49 4.47 18.86 8.99 27.43.86 1.95 1.58 3.97 2.3 5.98-4.85-1.99-5.78-7.66-7.8-11.9-2.59-5.55-2.78-11.78-4.88-17.47-4.99 2.28-10.06 4.59-14.27 8.2-3.3 2.86-7.13 4.95-10.87 7.15-9.78 6.51-19.57 12.98-29.35 19.5-7.51 4.05-14.69 8.66-21.82 13.35-6.29 4.77-13.28 8.51-19.59 13.27-7.87 5.95-16.8 10.28-24.78 16.06-1.61-.3-3.22-.61-4.82-.9 4.65-2.56 9.22-5.26 13.55-8.31 26.06-16.85 52.03-33.81 78.08-50.66 10.56-6.48 20.52-13.93 31.31-20.02z"/><path fill="#f15540" d="m743.96 481.83c-2.72-7.69 8.03-14.77 14.26-10.03 2.68 1.73 1.63 5.94-.67 7.54-4.27 1.88-8.99 2.3-13.59 2.49z"/><path fill="#bbb1ad" d="m376 483h7.99l.02 1.03c-2.67-.04-5.34-.04-8.01-.02z"/><path fill="#b02926" d="m835.11 531.05c2.33-.58 5.23-1.26 7.17.66 2.76 2.22-.66 5.82.34 8.64.9 2.27 2.34 4.26 3.56 6.37 2.83 4.7 4.03 10.12 5.94 15.21 1.19 3.5 2.77 7.22 1.77 10.98-.44 1.97-1.66 4.11-3.89 4.31-5.75.87-11.63.47-17.38 1.43-.76 2.07-1.61 4.13-1.94 6.32 1.58 2.98 5.18 4.2 8.36 4.41 3.05-.5 5.24-3.16 8.22-3.91.68-.24 1.19-.02 1.51.65 2.47 3.51 3.77 7.67 5.44 11.6 2.93 6.68 3.26 14.16 2.74 21.34-.24-.25-.71-.75-.94-.99-2.04-6.79-3.64-13.7-5.57-20.52-.78-3.63-1.93-7.17-3.31-10.6-.79 1.82-1.55 3.65-2.29 5.5-5.49-.02-12.05.19-16.05-4.24-3.31-3.54-1.03-9.28 2.75-11.45 5.93-2.39 12.72-.04 18.62-2.35 2.1-2.59 1-6.26.6-9.25-2.33-9.97-6.69-19.7-13.68-27.29 1.81-1.62 3.65-3.22 5.39-4.92-3.08-.01-6.26.04-9.08 1.42-15.88 7.37-29.02 19.42-40.58 32.37-8.32 9.9-16.07 20.36-22.49 31.61-3.75 7.11-6.14 14.83-9.01 22.32-9.07-15.16-19.23-29.74-30.66-43.23-1.29-1.49-2.6-2.96-3.98-4.34 4.64.13 7.38 3.97 9.73 7.45 3.13 4.21 6.65 8.14 9.33 12.68 3.55 6.05 8.63 11.08 11.75 17.4.77 1.81 2.31 3.01 4.03 3.87 1.62-4.66 3.2-9.33 5.04-13.9 1.9-4.81 5.26-8.82 7.67-13.36 2.98-5.47 7.27-10.03 11.14-14.87 2.68-3.32 5.02-6.94 8.07-9.97 6.2-6.08 11.51-13.22 18.92-17.96 7.44-4.67 14.02-11.19 22.76-13.39z"/><path fill="#b3a2a0" d="m914.9 532.08.64-.06c1.04 1.24 1.07 2.51.07 3.82-.57-1.18-1.02-2.46-.71-3.76z"/><path fill="#b0a19d" d="m915.91 538.09c1.97-.05 1.62 3.6.68 4.75-.59-1.52-.96-3.14-.68-4.75z"/><path fill="#ac9f9f" d="m917 546h1.01c0 2.83.03 5.67-.15 8.5-.44-2.82-.77-5.66-.86-8.5z"/><path fill="#f0563f" d="m550.29 551.98c.56-.77 1.15-1.51 1.78-2.22 1.6.29 3.21.6 4.82.9.95 3.31 2.17 6.72 1.64 10.22-.53 2.35-2.24 4.18-3.53 6.13-4.26-2.53-6.99-7.01-6.4-12.07.55-1 1.11-1.98 1.69-2.96z"/><path fill="#af2b2b" d="m518.89 571.84c10.49-6.57 20.45-14.06 31.4-19.86-.58.98-1.14 1.96-1.69 2.96-4.49 4.23-9.79 7.44-15.04 10.62-6.65 4.68-13.56 8.97-20.18 13.71-3.98 2.85-10.09 4.25-11.23 9.73-1.35 6.02-2.13 12.34-5.62 17.61-5.29 8.43-9.74 18.12-18.45 23.61-5.48 3.71-10.34 8.77-17.09 10.1-7.64 2.66-15.89 1.41-23.44-.86-3.23-1.06-5.38-4.03-8.54-5.18-3.82.93-6.62 4.01-9.99 5.88-7.84 4.68-15.72 9.35-23.05 14.83-7.11 5.4-15.4 9-22.23 14.77-6.44 3.86-13.05 7.48-19.32 11.65-5.32 3.64-10.06 8.13-15.73 11.25-3.79 2.2-7.9 3.94-11.21 6.86-2.37 2.11-3.96 5.61-2.61 8.72 1.98 5.21 4.56 10.35 8.65 14.24 10.32 10.3 22.12 19.04 34.65 26.45 6.3 4.95 13.45 8.56 20.44 12.39 10.44 5.11 20.6 10.87 31.65 14.64 10.88 4.77 22.37 7.88 33.84 10.92 12.3 3.45 24.99 5.14 37.53 7.48 6.07 1.13 12.3.54 18.37 1.69 7.92 1.45 15.91 2.81 24 2.8 12.36.01 24.59 2.57 36.98 1.89 14.46-.72 28.98-.8 43.38-2.41 8.14-1.92 16.57-2.12 24.68-4.19 4.99-1.11 10.12-1.53 15.03-3.02 7.63-2.43 15.49-4.14 22.97-7.06 9-2.56 17.39-6.75 26.2-9.83 7.03-2.5 12.7-7.51 19.29-10.85 3.85-1.94 7.42-4.38 10.63-7.25 3.08-2.91 7.72-3.19 10.71-6.23 2.95-2.79 6.8-4.51 9.39-7.71 4.4-5.39 9.35-10.45 12.23-16.89 4.07-6.19 5.58-13.52 7.08-20.66 1.62-9.65 1.05-19.53-.91-29.08-.76-7.12-3.51-13.75-5.57-20.54-2.09-5.98-5.45-11.4-8.03-17.17-4.93-9.59-9.66-19.33-15.48-28.43-1.64-2.82-2.68-5.95-4.29-8.77-1.79-3.12-5.29-5.06-6.27-8.66-1.01-3.59-3.41-6.42-5.53-9.38-1.83-2.34-1.71-5.4-1.53-8.19 1.81 2.99 3.82 5.86 5.61 8.88 6.25 10.23 11.85 20.85 18.02 31.14 9.35 16.38 18.78 33.02 23.6 51.41 4.54 17.36 5.14 36.24-.94 53.31-3.8 10.81-11.2 19.94-19.54 27.62-6.07 5.79-13.69 9.47-20.53 14.21-5.86 3.36-11.42 7.23-17.32 10.51-26.44 13.92-55.42 22.61-84.87 27.29-14.82 2.17-29.76 3.37-44.72 4.05-9.76-.42-19.53.01-29.29-.3-43.04-2.6-86.67-6.46-127.61-20.9-17.8-6.71-34.86-15.27-51.4-24.64-14.53-8.79-29-17.98-41.5-29.55-7.24-7.35-12.47-17.24-12.44-27.74 15.4-9.75 30.47-20.03 45.8-29.87 20.47-12.58 40.18-26.35 60.64-38.94-.1-.39-.3-1.16-.4-1.55l.48.64c6.47 8.97 18.74 11.2 29.03 9.2 10.99-2.48 19.59-10.46 26.85-18.65 8.6-10.28 15.38-22.89 15.97-36.53 6.03-4.25 12.39-8.02 18.49-12.17z"/><path fill="#bfafb0" d="m917.97 566.18.8-.02c.01.42.02 1.26.02 1.68l-.8-.02c-.01-.41-.01-1.23-.02-1.64z"/><path fill="#f35440" d="m893.37 572.47c1.63-.42 4.2-.61 4.72 1.49 1.79 4.06.21 8.64-1.8 12.31-.91 1.82-2.7 3.55-4.88 3.35-3.03-.83-4.61-4.29-3.94-7.24.63-3.79 2.31-8.08 5.9-9.91z"/><path fill="#d95551" d="m725.01 572.69c.41.1 1.24.31 1.66.41 1.38 1.38 2.69 2.85 3.98 4.34-.08 1.95-.14 3.9-.08 5.86-1.79-3.02-3.8-5.89-5.61-8.88.01-.43.04-1.3.05-1.73z"/><path fill="#ab9f9d" d="m916.9 579.89c-.37-1.95.1-3.88.75-5.7.69 1.48 1.37 5.51-.75 5.7z"/><path fill="#aaa29f" d="m820.97 585.89c-1.76-.05-1.77-4.74-.02-4.75.07 1.57.08 3.16.02 4.75z"/><path fill="#c17874" d="m495.27 596.33c1.19-4.82 1.66-10.06 5.16-13.91l-.03 1.59c-.59 13.64-7.37 26.25-15.97 36.53-7.26 8.19-15.86 16.17-26.85 18.65-10.29 2-22.56-.23-29.03-9.2 7.3 1 12.85 7.25 20.43 7.08 5.41-.12 10.98-.92 15.94-3.19 13.84-8.83 24.36-22.35 30.35-37.55z"/><path fill="#d06f6e" d="m850.44 597.55c1.93 6.82 3.53 13.73 5.57 20.52-.39-.4-1.16-1.18-1.55-1.58-2.52-2.46-4.4-5.49-5.9-8.65 1.8-3.12 1.9-6.79 1.88-10.29z"/><path fill="#2d0103" d="m373.16 603.09c5-1.91 10.51-1.9 15.79-1.66 3.56.03 6.65 4.25 5.06 7.59-.81 2.02-1.58 4.18-3.08 5.8-5.73 3.35-12.93 3.05-19.01.8-.71-1.59-1.84-2.92-3.13-4.08 1.3-2.86 1.68-6.48 4.37-8.45m1.23 3.24c-3.2 2.31-1.55 7.49 1.63 8.93 5.42 1.02 11.35-1.06 15.02-5.15 1.34-1.47.4-3.6.48-5.35-5.5-1.76-12.37-2.16-17.13 1.57z"/><path fill="#c16b65" d="m374.39 606.33c4.76-3.73 11.63-3.33 17.13-1.57-.08 1.75.86 3.88-.48 5.35-3.67 4.09-9.6 6.17-15.02 5.15-3.18-1.44-4.83-6.62-1.63-8.93m4.9-1.07c-3.46.8-5.79 5.55-2.66 8.07 4.67 1.91 9.9-1.42 12.21-5.39-1.23-3.74-6.45-3.81-9.55-2.68z"/><path fill="#e65c3b" d="m379.29 605.26c3.1-1.13 8.32-1.06 9.55 2.68-2.31 3.97-7.54 7.3-12.21 5.39-3.13-2.52-.8-7.27 2.66-8.07z"/><path fill="#1a0505" d="m372.68 660.84c19.3-9.48 36.58-22.7 51.96-37.66 1.12 2.06 2.25 4.12 3.43 6.17.1.39.3 1.16.4 1.55-20.46 12.59-40.17 26.36-60.64 38.94.59-4.24 5.09-5.55 7.68-8.34-.71-.17-2.12-.49-2.83-.66z"/><path fill="#0a0406" d="m333.91 674.01c13.39-2.84 26.46-7.16 38.77-13.17.71.17 2.12.49 2.83.66-2.59 2.79-7.09 4.1-7.68 8.34-15.33 9.84-30.4 20.12-45.8 29.87.31-2.46.51-4.92.86-7.35.73-3.86 1.76-7.67 3.37-11.25 1.39-3.34 3.72-6.74 7.65-7.1z"/><path fill="#f0573c" d="m666.19 663.37c2.26-1.46 5.18.12 6.17 2.37 2.52 4.89 3.83 11.81-.76 15.95-4.32 2.49-10.52-1.7-10.02-6.7.14-4.12.94-9.14 4.61-11.62z"/><path fill="#f1553c" d="m444.84 665.88c1.44-1.81 5.24-2.6 6.07.18 2 5.05 1.22 10.98-1.22 15.76-2.58-.16-6.12.88-7.53-2.02-2.27-4.63-.31-10.11 2.68-13.92z"/><path fill="#b4a0a2" d="m272.08 674.89c1.3-.31 2.57.16 3.74.72-1.31 1-2.58.97-3.81-.08z"/><path fill="#aa9e9d" d="m279.09 675.91c1.61-.3 3.22.09 4.73.69-1.15.93-4.77 1.28-4.73-.69z"/><path fill="#aea09f" d="m287 677.03c9.34.34 18.67.14 28.01-.06L315 678c-9.33.0-18.67.0-28 0z"/><g fill="#9f827c"><path d="m777.85 680.08c1.12-.39 2.24-.76 3.37-1.13 1.11 2.3.73 4.9.91 7.38 1.69 2.59.68 5.87.76 8.78-.36 1.93.11 3.85.76 5.68.68 2.67.23 5.47.37 8.21.38 10.66.27 21.33-.03 32-.2 3.71.48 7.53-.37 11.17-.6 1.49-1.05 3.1-.74 4.73.08 2.4.47 4.91-.25 7.25-.62 1.49-1.03 3.1-.73 4.75.25 1.45.16 2.86-.28 4.24-.56 1.16-1.03 2.43-.73 3.76.27 1.47.18 2.91-.29 4.3-.45 1.14-1.44 2.48-.65 3.73.32 1.39 1.81 1.9 2.97 2.43l.18.34c.6.25 1.82.75 2.42.99.97.28 1.94.58 2.91.91 1.7.92 3.42 1.83 5.18 2.66.51.26 1.51.77 2.01 1.02.52.22 1.56.67 2.08.89 9.01 5.81 16.67 13.83 22.01 23.14.96 1.7 2.08 3.31 3.08 5.01.23.52.69 1.57.92 2.09.53 1.04 1.11 2.07 1.68 3.12.31.99.61 1.99.88 3.02.48.94.96 1.89 1.46 2.85.31 1.04.65 2.09 1.04 3.13.11.47.34 1.4.45 1.87.4 1 .78 2.02 1.13 3.06.34.99.68 1.99 1.01 3.01.5 1.67.83 3.4 1.42 5.06.1.48.31 1.44.41 1.91.23.51.7 1.51.93 2.01-3.24-.17-6.48-.27-9.72-.3 4.23 19.64 7.36 40.05 3.87 60.06-1.25 5.65-2.3 11.6-5.53 16.52-3.08 4.08-7.63 6.82-12.37 8.56-4.94 1.89-10.32 1.34-15.49 1.27-1.65 2.85-3.26 5.73-4.79 8.65 8.83.48 17.69-.96 25.93-4.17v.76c-1.52.5-3.01 1.05-4.52 1.55-1.67.49-3.37.83-5.02 1.33-1.4.27-2.85.44-4.07 1.25-4.04.2-8.08-.14-12.1.16-.6.78-1.13 1.61-1.59 2.5-.85 1.78-2.01 3.37-3.09 5.02-.21.58-.63 1.75-.84 2.33l-.36.22c-.86 1.53-1.84 2.98-2.75 4.48-2.1 2.94-4.09 5.96-6.04 9-.72 1-1.37 2.04-1.98 3.12-1.47 1.55-3.12 3.02-3.99 5.03-2.59 3.15-6.4 5.37-8.07 9.21-.4.0-1.2.01-1.59.01.0.39-.01 1.18-.01 1.57-3.28 1.27-5.01 4.6-7.91 6.43-3.19 2.18-6.08 4.8-9.39 6.82-.53.21-1.59.61-2.12.81-1.62 1.04-3.19 2.15-4.88 3.08-1.43.69-2.84 1.4-4.2 2.2-.62.04-1.87.12-2.5.16-5.67.3-11.34-.05-17.01-.11-2.87-.03-5.73-.01-8.58.02-4.01-2.65-7.82-6.03-9.79-10.5-.36-.99-.7-1.96-1.03-2.93-.56-1.47-.65-3.04-.68-4.56-.18-5.34-.01-10.67.08-16 .02-2.15-.02-4.29.05-6.41 1.18-1.43.92-3.33 1.2-5.01.78-2 .73-4.18 1.41-6.2.3-1.33.59-2.64.93-3.94.34-1 .7-1.99 1.09-2.97.3-1.02.63-2.02.99-3.01.3-1.01.63-2.01.99-3 .33-1.03.68-2.05 1.07-3.04.23-1.37.44-2.74.92-4.03.31-1.36.61-2.7 1.03-4.01.33-1.41.29-2.98 1.34-4.1-.12-1.26-.23-2.49-.39-3.71 2.11-4.29 3.12-8.99 4.13-13.63-6.57-3.49-12.68-7.76-18.75-12.03-3.12-2.43-6.64-4.88-8.15-8.68-1.55-5.12.03-10.55 2.35-15.16 4.34-8.72 8.45-17.55 12.89-26.23 1.15-2.26 1.89-4.71 2.51-7.17-4.02 3.47-6.45 8.26-9.69 12.38-6.01 7.96-12.22 16.16-14.83 25.96-1.36 5.25-2.65 11.44.71 16.23 5.99 9.83 15.74 16.29 24.8 23-15.61 12.03-34.04 19.88-52.65 26.05-29.69 9.25-61.04 12.16-92.02 11.04-16.61-.89-33.19-2.83-49.45-6.37-11.65-2.64-23.47-5.16-34.37-10.21-4.46-1.95-8.74-4.37-13.43-5.73 1.02 1.97 2.26 3.87 4.02 5.28 7.65 6.4 16.21 11.94 25.72 15.14 7.57 2.54 15.18 4.98 22.82 7.31 1.94.65 4.01 1.17 5.71 2.4 2.06 2.18 2.19 5.59 1.58 8.38-1.51 2.25-4.1 3.38-6.39 4.66-13.26 6.71-27.66 10.88-42.17 13.87-14.16 1.49-28.45 1.15-42.64 2.35.13-1.87.27-3.73.49-5.58 2.54-9.28 6.82-17.97 9.53-27.2 1.43-5.24 1.01-10.79-.18-16.03-2.13-8.64-9.38-15.97-18.12-17.84-8.22-.93-16.44 1.94-24.67.64-5.89-1.2-11.43-5.43-13.26-11.28-1.17-5.08.6-10.2 2.23-14.96 8.16 4.09 15.91 9.23 24.69 11.91-7.42-5.45-14.98-10.71-22.37-16.21 4.91-11.93 13.22-22.72 14.68-35.85.55-3.79.01-7.6-.68-11.31-1.5-.02-3-.03-4.49-.03.65 5.71 1.14 11.61-.6 17.19-2.85 9.83-8.35 18.58-12.68 27.78-6.87-5.52-13.14-11.71-19.29-18-.09-.1-.28-.31-.37-.42.29-.32.88-.96 1.18-1.28-.96-3.45-1.81-7.17-4.52-9.72-3.37-3.19-5.48-7.38-8.63-10.75-2.61-2.95-4.49-7.39-8.93-7.8-3.83-.2-7.96.33-10.9-2.7-.44-2.78-.36-5.89-2.21-8.19-2.09-2.85-4.91-5.38-5.64-8.98-1.05-4.93-3.33-9.49-4.28-14.44-.93-5.76-5.18-10.2-6.65-15.79-2.23-6.61-1.33-13.65-1.95-20.47-.56-7.05-.61-14.14-.09-21.19.09-6.25.4-12.68 2.78-18.52 2.02-3.07 4.97-5.36 7.47-8.01-1.06-1.01-2.89-1.7-2.88-3.39.77-5.11 4.33-9.66 3.8-14.99-.62-4.18-3.06-7.84-3.62-12.03-.85-5.89-.09-12.47 3.96-17.1 1.54.37 3 .98 4.47 1.59-1.16 1.2-2.33 2.4-3.5 3.6.93 1.1 1.86 2.18 2.8 3.3-.35 2.43-.55 4.89-.86 7.35-3.26 3.44-1.44 8.44-.53 12.46 5.85 12.46 16.05 22.4 27.43 29.93 7.86 5.95 16.32 11.07 24.71 16.23 9.29 5.97 19.93 9.52 29 15.88-.15.53-.46 1.59-.61 2.12-28.09-12.45-54.28-28.94-78.18-48.22-.37 2.35-.96 5.03 1.34 6.64 15.95 15.65 34.43 28.77 54.47 38.68 7.8 4.15 15.73 8.06 23.55 12.19 17.73 8.81 36.73 14.68 55.84 19.63 20.92 5.33 42.52 7.08 63.95 9.04 41.45 3.55 83.55 3.59 124.52-4.41 28.79-5.51 56.64-15.86 82.07-30.45 16.38-9.88 32.54-21.39 42.99-37.78 4.1-5.08 2.41-11.96 3.14-17.94-6.54 12.74-16.48 23.56-28.27 31.64-9.02 6.06-18.16 12-27.89 16.87 3.32-5.1 9.48-6.99 14.28-10.33 8.22-5.35 16.83-10.31 23.88-17.22 4.62-4.14 7.72-9.58 11.28-14.58 3.41-4.79 5.1-10.5 7.01-15.98 2.38-6.68 1.39-13.84 2.22-20.75.49-4.42.8-8.95-.38-13.28m-419.35 104.59c-7.71 1.53-14.75 6.03-19.26 12.49-5.97 8.09-7.51 19.27-3.84 28.65 2.92 7.88 9.24 14.42 17.02 17.58 11.38 4.87 25.49 2.11 34.04-6.88 6.42-6.33 9.36-15.59 8.73-24.49-1.04-9.74-6.81-19-15.47-23.72-6.31-3.79-14.02-4.95-21.22-3.63m438.76 67.95c.45 7.87 2.31 15.57 2.9 23.43.04 4.95-1.18 10.66-5.37 13.8-1.13-.25-2.15-.8-3.13-1.36-17.35-10.69-37.06-18.34-57.59-19.14-8.77-.44-17.4 1.5-26.02 2.76-7.19.9-13.24 6.23-16.27 12.63-.95 1.93.37 3.86 1.06 5.64 2.16-2.36 4.03-4.98 6.37-7.18 3.01-2.56 6.8-4.2 10.71-4.75 3.25-.07 6.51.08 9.76.38-1.7 10.16-3.34 20.35-6.42 30.22-1.13 8.54-4.61 16.47-6.33 24.88-1.67 8.2-5.2 15.89-6.83 24.11-1 5.65-3.13 11.14-2.94 16.97-.55 10.21.37 22.03 8.53 29.28 3.79 3.42 9.15 3.01 13.9 3.12 5.21.09 9.9-2.48 14.69-4.18 2.79-.94 4.97-2.96 7.06-4.95 2.73-2.68 6.56-3.89 9.19-6.69 5.08-5.61 11.76-9.84 15.34-16.72 1.98-4.14 6.39-6.49 7.98-10.86 1.39-3.48 4.34-5.98 5.91-9.36 2.04-4.14 5.18-7.61 7.09-11.82 2.48-5.54 5.37-10.89 7.39-16.62 3.03-7.86 7.82-15.88 5.65-24.63l.35-1.13c3.86 3.59 7.74 7.17 11.15 11.21 1.65 1.85 3.11 3.97 5.25 5.31.21-.49.62-1.46.82-1.95-1.46-4.3-4.15-8.1-6.99-11.6-3.63-4.43-8.81-7.07-13.06-10.8 3.01-3.05 5.44-6.7 6.45-10.9 2.38-9.68-.46-19.48-2.53-28.93-1.37-.07-2.73-.12-4.07-.17z"/><path d="m357.56 887.57c1.77 1.09 3.54 2.2 5.31 3.31 4.99 3.87 10.21 7.44 14.94 11.63-2.44 6.09-5.05 12.84-2.79 19.41 2.78 8.23 11.71 12.65 19.94 13.1 6.39.09 12.73-1.14 19.13-1.09 4.62.06 9.52 1.62 12.33 5.51 5.65 6.68 6.16 16.18 4.13 24.36-2.98 10.57-7.35 20.84-8.62 31.83-17.01-.98-35.95-5.59-46.21-20.42-7.95-10.38-7.04-23.96-8.55-36.24-2.08-17.3-4.03-34.81-9.61-51.4z"/></g><path fill="#ae9f9e" d="m782.89 695.11c2.13.16 1.45 4.2.76 5.68-.65-1.83-1.12-3.75-.76-5.68z"/><path fill="#b69ea1" d="m313.07 700.3c1.03.49 1.37 1.35 1.04 2.56l-.73.02c-.08-.65-.23-1.94-.31-2.58z"/><path fill="#b47a79" d="m321.5 712.17c-.91-4.02-2.73-9.02.53-12.46-.03 10.5 5.2 20.39 12.44 27.74 12.5 11.57 26.97 20.76 41.5 29.55 16.54 9.37 33.6 17.93 51.4 24.64 40.94 14.44 84.57 18.3 127.61 20.9 9.76.31 19.53-.12 29.29.3 7.83 2.55 16.12.08 24.17 1.11-20.71 2.44-41.61 1.86-62.42 1.72-13.07.04-26.07-1.44-39.09-2.32-36.08-3.46-71.78-12.17-104.9-27.02.15-.53.46-1.59.61-2.12-9.07-6.36-19.71-9.91-29-15.88-8.39-5.16-16.85-10.28-24.71-16.23-11.38-7.53-21.58-17.47-27.43-29.93z"/><path fill="#aca19c" d="m784.02 709h.98v32h-1.01c.3-10.67.41-21.34.03-32z"/><path fill="#080405" d="m747.45 755.35c11.79-8.08 21.73-18.9 28.27-31.64-.73 5.98.96 12.86-3.14 17.94-10.45 16.39-26.61 27.9-42.99 37.78-25.43 14.59-53.28 24.94-82.07 30.45-40.97 8-83.07 7.96-124.52 4.41-21.43-1.96-43.03-3.71-63.95-9.04-19.11-4.95-38.11-10.82-55.84-19.63-7.82-4.13-15.75-8.04-23.55-12.19-20.04-9.91-38.52-23.03-54.47-38.68-2.3-1.61-1.71-4.29-1.34-6.64 23.9 19.28 50.09 35.77 78.18 48.22 33.12 14.85 68.82 23.56 104.9 27.02 13.02.88 26.02 2.36 39.09 2.32 20.81.14 41.71.72 62.42-1.72 38.59-3.23 77.1-12.84 111.12-31.73 9.73-4.87 18.87-10.81 27.89-16.87z"/><path fill="#a62d2b" d="m558.44 746.49c3.13-1.73 6.65-2.42 10.22-2.28.88 3.13 1.79 7.02-.55 9.76-4 3.15-8.88 5.99-14.18 5.04-3.89.05-7.43-2.19-9.51-5.38-.49-1.83.29-4.01 1.85-5.08 4.06-.59 8.43.03 12.17-2.06m2.62 1.93c-2.16.96-4.38 1.77-6.62 2.53-2.2-.23-4.41-.5-6.61-.3-2.27 1.95.9 4.12 2.59 5.03 5.15 3.28 12.09 1.16 15.95-3.13 1.5-2.19 1.07-5.03 1.28-7.53-2.35.81-4.57 1.95-6.59 3.4z"/><path fill="#690000" d="m561.06 748.42c2.02-1.45 4.24-2.59 6.59-3.4-.21 2.5.22 5.34-1.28 7.53-3.86 4.29-10.8 6.41-15.95 3.13-1.69-.91-4.86-3.08-2.59-5.03 2.2-.2 4.41.07 6.61.3-1.62.57-3.24 1.16-4.84 1.78 1.78 1.69 3.74 3.59 6.41 3.45 4.39.26 7.88-2.83 10.45-6.03-1.8-.6-3.61-1.16-5.4-1.73z"/><path fill="#38171a" d="m554.44 750.95c2.24-.76 4.46-1.57 6.62-2.53 1.79.57 3.6 1.13 5.4 1.73-2.57 3.2-6.06 6.29-10.45 6.03-2.67.14-4.63-1.76-6.41-3.45 1.6-.62 3.22-1.21 4.84-1.78z"/><path fill="#b0a29d" d="m782.88 756.9c-.31-1.63.14-3.24.74-4.73.88 1.15 1.25 4.8-.74 4.73z"/><path fill="#a79b99" d="m303.99 754h1c-.03 2.86-.44 5.7-.86 8.53-.18-2.84-.15-5.69-.14-8.53z"/><path fill="#ab2e2e" d="m538.63 762.52c5.8-3.49 10.44 3.65 16.32 3.01 6.64.7 12.65-2.6 19.05-3.59l-.16.75c-.06.24-.18.73-.24.98-6.45 4.26-14.51 5.93-22.1 4.45-4.19-1.48-8.03-3.79-12.2-5.32z"/><path fill="#b87e7b" d="m713.86 771.5c5.9-3.28 11.46-7.15 17.32-10.51.66.22 1.99.67 2.66.9-4.8 3.34-10.96 5.23-14.28 10.33-34.02 18.89-72.53 28.5-111.12 31.73-8.05-1.03-16.34 1.44-24.17-1.11 14.96-.68 29.9-1.88 44.72-4.05 29.45-4.68 58.43-13.37 84.87-27.29z"/><path fill="#3f1314" d="m539.3 762.8c4.17 1.53 8.01 3.84 12.2 5.32 7.59 1.48 15.65-.19 22.1-4.45-.45 5.04-5.18 7.93-9.38 9.77-7.5 2.83-16.32.71-22.25-4.52-1.44-1.45-1.8-3.57-2.45-5.41z"/><path fill="#a32b2a" d="m573.6 763.67c.06-.25.18-.74.24-.98.47.41 1.42 1.23 1.89 1.64-.11 1.39-.14 2.81-.4 4.2-4.14 4.68-9.89 8.44-16.26 8.84-5.25-.65-10.98-.71-15.39-4.01-1.93-1.57-5.38-2.33-5.44-5.28-.3-1.66.19-3.31 1.28-4.57.65 1.84 1.01 3.96 2.45 5.41 5.93 5.23 14.75 7.35 22.25 4.52 4.2-1.84 8.93-4.73 9.38-9.77z"/><path fill="#b1a7a5" d="m303 764 1.01-.01c-.23 5.66-.05 11.34-.04 17.01H303c0-5.67.0-11.34.0-17z"/><path fill="#b2a19c" d="m781.9 768.9c-.3-1.65.11-3.26.73-4.75.86 1.15 1.26 4.82-.73 4.75z"/><path fill="#b1a39d" d="m780.89 776.9c-.3-1.33.17-2.6.73-3.76.99 1.31.96 2.59-.09 3.83z"/><path fill="#aea19c" d="m779.95 784.93c-.79-1.25.2-2.59.65-3.73.91.88 1.1 3.85-.65 3.73z"/><path fill="#a99d9b" d="m304.39 784.16c.59 1.5 1 3.11.7 4.75l-.54.09c-1.23-1.22-1.08-3.51-.16-4.84z"/><path fill="#0b0506" d="m358.5 784.67c7.2-1.32 14.91-.16 21.22 3.63 8.66 4.72 14.43 13.98 15.47 23.72.63 8.9-2.31 18.16-8.73 24.49-8.55 8.99-22.66 11.75-34.04 6.88-7.78-3.16-14.1-9.7-17.02-17.58-3.67-9.38-2.13-20.56 3.84-28.65 4.51-6.46 11.55-10.96 19.26-12.49m-16.97 36.16c7.06-10.35 15.92-19.37 22.88-29.77-14.86-.63-27.89 15.5-22.88 29.77m33.5-27.12c1.79 12.11 5.18 23.94 6.86 36.07.98-.26 2.12-.43 2.5-1.55 2.22-3.7 3.6-7.9 3.97-12.19.37-9.15-4.97-18.45-13.33-22.33m-17 18.54c4.29 1.13 8.61 2.15 12.89 3.31-.45-5.28-1.83-10.42-2.77-15.62-3.59 3.92-6.78 8.18-10.12 12.31m-5.54 6.92c-2.34 3.07-4.99 5.92-7.09 9.17-.5 1.47.98 2.47 1.78 3.48 7.15 7.42 19.02 8.94 28.19 4.57-.82-4.25-1.42-8.55-2.84-12.64-6.79-1-13.33-3.18-20.04-4.58z"/><path fill="#9c8481" d="m341.53 820.83c-5.01-14.27 8.02-30.4 22.88-29.77-6.96 10.4-15.82 19.42-22.88 29.77z"/><path fill="#9e8383" d="m375.03 793.71c8.36 3.88 13.7 13.18 13.33 22.33-.37 4.29-1.75 8.49-3.97 12.19-.38 1.12-1.52 1.29-2.5 1.55-1.68-12.13-5.07-23.96-6.86-36.07z"/><g fill="#988584"><path d="m358.03 812.25c3.34-4.13 6.53-8.39 10.12-12.31.94 5.2 2.32 10.34 2.77 15.62-4.28-1.16-8.6-2.18-12.89-3.31z"/><path d="m834.06 856h.93c.12 1.87-.43 4 .94 5.58.23 2.33-.56 4.98 1 7.01.07 2.57.04 5.15.17 7.74 2.49 3.97-.75 9.31 1.86 13.26.07 8.27.06 16.55-.02 24.83-1.13 1.29-.89 3-1.02 4.58l-.96.01c2.56-11.18 1.03-22.66.43-33.97-.64-9.73-2.11-19.38-3.33-29.04z"/><path d="m332.99 856.84c1.68 2.48 3.39 4.96 5.17 7.39-1-.77-1.95-1.57-2.9-2.38-.75-1.68-2.03-3.15-2.27-5.01z"/><path d="m823.21 940.01c2.45-2.14 4.75-4.43 7.03-6.75-1.41 2.84-3.88 5.93-7.03 6.75z"/><path d="m820.43 941.68c.56-.93 1.37-1.45 2.44-1.58-.02 1.71-.83 2.23-2.44 1.58z"/><path d="m367.19 974.52c.96.44 1.59 1.19 1.89 2.24-1.74.17-2.37-.58-1.89-2.24z"/><path d="m380.23 989.05c1.24-.03 1.91.57 2.01 1.82-1.51.29-2.18-.31-2.01-1.82z"/></g><path fill="#9f827d" d="m352.49 819.17c6.71 1.4 13.25 3.58 20.04 4.58 1.42 4.09 2.02 8.39 2.84 12.64-9.17 4.37-21.04 2.85-28.19-4.57-.8-1.01-2.28-2.01-1.78-3.48 2.1-3.25 4.75-6.1 7.09-9.17z"/><path fill="#251e1e" d="m687.91 857.05c3.24-4.12 5.67-8.91 9.69-12.38-.62 2.46-1.36 4.91-2.51 7.17-4.44 8.68-8.55 17.51-12.89 26.23-2.32 4.61-3.9 10.04-2.35 15.16 1.51 3.8 5.03 6.25 8.15 8.68 6.07 4.27 12.18 8.54 18.75 12.03-1.01 4.64-2.02 9.34-4.13 13.63-1.49 2.2-4.01 3.34-5.98 5.04-1.37.94-2.68 1.96-3.97 3.02-1.98 1.38-3.85 2.93-5.96 4.11-1.04.61-2.1 1.19-3.1 1.87-1 .67-1.98 1.36-2.94 2.08-2.01 1.31-4.05 2.59-6.2 3.67-.93.43-1.85.87-2.76 1.34-.52.26-1.55.79-2.07 1.06-1.08.48-2.14 1-3.21 1.52-.91.48-1.82.96-2.73 1.46-1.07.5-2.13 1.03-3.19 1.57-1.3.49-2.61.95-3.89 1.47-8.09 3.42-16.42 6.34-24.9 8.61-1.77.41-3.55.79-5.29 1.26-.09.02-.27.06-.36.08-.6.15-1.81.46-2.42.61-1.6.49-3.27.76-4.9 1.08-2.12.48-4.35.49-6.34 1.42-2.01.26-4.21-.11-5.98 1.07-2.35.23-4.91-.33-7.01 1.01-2.57.11-5.14.07-7.7.23-1.7 1.16-3.78.84-5.7.89-12.33-.16-24.66.11-36.99-.11-.43-.2-1.31-.59-1.75-.79-3.64-.54-7.6.72-11-.95-2.33-.21-4.77.1-6.96-.87-1.82-.26-3.66-.42-5.33-1.21.03 2.77.03 5.56-.02 8.35-.82 1.06-1.6 2.17-2.32 3.32-.63.62-1.25 1.26-1.87 1.9-2.07 1.29-3.97 2.8-6.02 4.12-1.4.58-2.76 1.25-4.11 1.92-1.11.5-2.21 1.01-3.31 1.51-3.34 1.4-6.6 2.97-9.95 4.36-10.89-.44-20.78 4.86-31.41 6.23-9.28.98-18.49 2.9-27.87 2.75-5.96.3-12.44-1.43-17.78 2.09-4.15-.8-8.3-1.58-12.42-2.46-1.6-.29-3.12-.8-4.62-1.36-1.31-.76-2.65-1.46-3.99-2.13-.94-.52-1.87-1.03-2.79-1.53-2.82-1.64-5.84-2.89-8.85-4.11l-.45-.32c-.82-.85-1.79-1.62-2.99-1.69l-.98-.19c-.1-1.25-.77-1.85-2.01-1.82l-.98-.05c-.17-.18-.52-.54-.69-.72-2.24-2.35-4.59-4.59-6.85-6.91-.19-.4-.58-1.2-.77-1.6-.21-1.04-.74-1.87-1.59-2.47l-.27-.54c-.3-1.05-.93-1.8-1.89-2.24l-.32-.22c-2.99-6.2-6.96-12.67-6.23-19.82l-1.03.45c-1.52-12.4-2.54-24.76-3.62-37.2-.03-.3-.09-.88-.12-1.17-.32-2.96-.69-5.91-.75-8.88l.04-.75c.34-1.98-.41-3.86-1.01-5.67l-.23-.79c-.44-2.48-.03-5.12-1.06-7.46-.17-.42-.5-1.28-.67-1.7-.06-.36-.2-1.06-.26-1.41-.19-1.74-.64-3.43-1.56-4.91l-.38-.95c-.22-.48-.66-1.44-.88-1.92l-.1-1.06c-.18-.5-.54-1.49-.72-1.99l-.15-1.09c-.02-1.55-.71-3.04-2.05-3.83-.27-.24-.8-.71-1.07-.95-1.41-1.69-2.81-3.4-4.37-4.95l-.65-.65-.07-.84c-.09-1.08-.62-1.88-1.61-2.39l-.16-.14c-1.78-2.43-3.49-4.91-5.17-7.39l-.06-.15c-.14-1.14-.69-1.93-1.67-2.36l-.93-.43c2.51-.72 5.1-1.44 7.75-1.2 2.59-.14 3.72 2.53 5.09 4.24 5.13 7.83 10.91 15.22 17.06 22.28.09.11.28.32.37.42.12 4.2 2.5 7.76 4.32 11.4-.51-.04-1.53-.12-2.05-.16-1.77-1.11-3.54-2.22-5.31-3.31 5.58 16.59 7.53 34.1 9.61 51.4 1.51 12.28.6 25.86 8.55 36.24 10.26 14.83 29.2 19.44 46.21 20.42.67.39 1.34.8 2.02 1.21.63-2.01 1.27-4 1.86-6.01-.22 1.85-.36 3.71-.49 5.58 14.19-1.2 28.48-.86 42.64-2.35 14.51-2.99 28.91-7.16 42.17-13.87 2.29-1.28 4.88-2.41 6.39-4.66.61-2.79.48-6.2-1.58-8.38-1.7-1.23-3.77-1.75-5.71-2.4-7.64-2.33-15.25-4.77-22.82-7.31-9.51-3.2-18.07-8.74-25.72-15.14-1.76-1.41-3-3.31-4.02-5.28 4.69 1.36 8.97 3.78 13.43 5.73 10.9 5.05 22.72 7.57 34.37 10.21 16.26 3.54 32.84 5.48 49.45 6.37 30.98 1.12 62.33-1.79 92.02-11.04 18.61-6.17 37.04-14.02 52.65-26.05-9.06-6.71-18.81-13.17-24.8-23-3.36-4.79-2.07-10.98-.71-16.23 2.61-9.8 8.82-18 14.83-25.96z"/><path fill="#291919" d="m393.17 852.67c1.49.0 2.99.01 4.49.03.69 3.71 1.23 7.52.68 11.31-1.46 13.13-9.77 23.92-14.68 35.85 7.39 5.5 14.95 10.76 22.37 16.21-8.78-2.68-16.53-7.82-24.69-11.91-1.63 4.76-3.4 9.88-2.23 14.96 1.83 5.85 7.37 10.08 13.26 11.28 8.23 1.3 16.45-1.57 24.67-.64 8.74 1.87 15.99 9.2 18.12 17.84 1.19 5.24 1.61 10.79.18 16.03-2.71 9.23-6.99 17.92-9.53 27.2-.59 2.01-1.23 4-1.86 6.01-.68-.41-1.35-.82-2.02-1.21 1.27-10.99 5.64-21.26 8.62-31.83 2.03-8.18 1.52-17.68-4.13-24.36-2.81-3.89-7.71-5.45-12.33-5.51-6.4-.05-12.74 1.18-19.13 1.09-8.23-.45-17.16-4.87-19.94-13.1-2.26-6.57.35-13.32 2.79-19.41-4.73-4.19-9.95-7.76-14.94-11.63.52.04 1.54.12 2.05.16-1.82-3.64-4.2-7.2-4.32-11.4 6.15 6.29 12.42 12.48 19.29 18 4.33-9.2 9.83-17.95 12.68-27.78 1.74-5.58 1.25-11.48.6-17.19z"/><path fill="#281c1b" d="m797.26 852.62c1.34.05 2.7.1 4.07.17 2.07 9.45 4.91 19.25 2.53 28.93-1.01 4.2-3.44 7.85-6.45 10.9 4.25 3.73 9.43 6.37 13.06 10.8 2.84 3.5 5.53 7.3 6.99 11.6-.2.49-.61 1.46-.82 1.95-2.14-1.34-3.6-3.46-5.25-5.31-3.41-4.04-7.29-7.62-11.15-11.21l-.06-.06c-1.64-5.25-7.23-6.68-11.48-9.14-6.88-3.9-13.84-8.1-21.71-9.62-3.7-.77-7.36-1.7-10.97-2.75-6.17-1.85-12.66-2.03-19.02-2.65-5.1-.35-10.59-1.39-15.29 1.22-3.94.25-7.88.45-11.79 1s-7.7 2.19-10.71 4.75c-2.34 2.2-4.21 4.82-6.37 7.18-.69-1.78-2.01-3.71-1.06-5.64 3.03-6.4 9.08-11.73 16.27-12.63 8.62-1.26 17.25-3.2 26.02-2.76 20.53.8 40.24 8.45 57.59 19.14.98.56 2 1.11 3.13 1.36 4.19-3.14 5.41-8.85 5.37-13.8-.59-7.86-2.45-15.56-2.9-23.43z"/><path fill="#251e1d" d="m824.4 853.15c3.24.03 6.48.13 9.72.3-.02.64-.05 1.91-.06 2.55 1.22 9.66 2.69 19.31 3.33 29.04.6 11.31 2.13 22.79-.43 33.97l-.07.27c-2.54 4.47-3.66 9.63-6.58 13.89l-.07.09c-2.28 2.32-4.58 4.61-7.03 6.75l-.34.09c-1.07.13-1.88.65-2.44 1.58l-.68.3c-1.11.35-2.14.91-2.96 1.73l-.77.33c-8.24 3.21-17.1 4.65-25.93 4.17 1.53-2.92 3.14-5.8 4.79-8.65 5.17.07 10.55.62 15.49-1.27 4.74-1.74 9.29-4.48 12.37-8.56 3.23-4.92 4.28-10.87 5.53-16.52 3.49-20.01.36-40.42-3.87-60.06z"/><path fill="#550b13" d="m721.71 877.45c4.7-2.61 10.19-1.57 15.29-1.22 6.36.62 12.85.8 19.02 2.65 3.61 1.05 7.27 1.98 10.97 2.75 7.87 1.52 14.83 5.72 21.71 9.62 4.25 2.46 9.84 3.89 11.48 9.14-17.77-12.2-38.58-20.03-60.09-21.89-6.12-.55-12.26-.68-18.38-1.05z"/><path fill="#c07774" d="m709.92 878.45c3.91-.55 7.85-.75 11.79-1 .09 9.99-2.73 19.69-4.89 29.36-3.4 14.79-7.73 29.35-12.19 43.86-3.48 11.36-6.14 23.25-5.02 35.2.7 5.68 2.83 11.45 6.93 15.56 4.21 3.98 10.51 3.75 15.83 2.83 11.93-2.42 21.87-10.16 30.3-18.56 17.83-17.02 30.39-38.76 39.85-61.32 2.86-7.47 4.93-15.2 7.37-22.8 2.17 8.75-2.62 16.77-5.65 24.63-2.02 5.73-4.91 11.08-7.39 16.62-1.91 4.21-5.05 7.68-7.09 11.82-1.57 3.38-4.52 5.88-5.91 9.36-1.59 4.37-6 6.72-7.98 10.86-3.58 6.88-10.26 11.11-15.34 16.72-2.63 2.8-6.46 4.01-9.19 6.69-2.09 1.99-4.27 4.01-7.06 4.95-4.79 1.7-9.48 4.27-14.69 4.18-4.75-.11-10.11.3-13.9-3.12-8.16-7.25-9.08-19.07-8.53-29.28-.19-5.83 1.94-11.32 2.94-16.97 1.63-8.22 5.16-15.91 6.83-24.11 1.72-8.41 5.2-16.34 6.33-24.88 3.08-9.87 4.72-20.06 6.42-30.22-3.25-.3-6.51-.45-9.76-.38z"/><path fill="#ae2a2a" d="m721.71 877.45c6.12.37 12.26.5 18.38 1.05 21.51 1.86 42.32 9.69 60.09 21.89l.06.06-.35 1.13c-2.44 7.6-4.51 15.33-7.37 22.8-9.46 22.56-22.02 44.3-39.85 61.32-8.43 8.4-18.37 16.14-30.3 18.56-5.32.92-11.62 1.15-15.83-2.83-4.1-4.11-6.23-9.88-6.93-15.56-1.12-11.95 1.54-23.84 5.02-35.2 4.46-14.51 8.79-29.07 12.19-43.86 2.16-9.67 4.98-19.37 4.89-29.36m2.87 2.94c-2.31 9.16-2.17 18.79-5.43 27.73-2.02 9.95-4.68 19.77-7.64 29.48-3.37 7.36-4.3 15.48-6.98 23.08-3.04 8.54-3.46 17.84-2.01 26.73 1.17 3.6 3.01 6.98 4.72 10.36 4.63 5.02 12.66 6.48 18.73 3.18 3.67-2.1 7.82-3.24 11.42-5.49 8.8-6.79 16.68-14.67 24.11-22.91 6.34-8.72 13.93-16.78 18.03-26.9 2.32-5.26 5.25-10.22 7.83-15.35 3.62-8.39 6-17.22 9.11-25.79.62-1.4.24-3.09-.94-4.04-3.12-2.79-7.05-4.39-10.78-6.15-3.56-2.73-8.15-3.51-11.95-5.86-15.44-5.4-31.79-8.75-48.22-8.07z"/><path fill="#7e7e7e" d="m348.29 879.07c.18.5.54 1.49.72 1.99l-.89-.18-.37-1.03z"/><path fill="#7b7b7b" d="m349.11 882.12c.22.48.66 1.44.88 1.92l-.88-.13c0-.45.0-1.34.0-1.79z"/><path fill="#a89797" d="m691 977h.99c-.09 5.33-.26 10.66-.08 16h-.92c.04-5.34.02-10.67.01-16z"/><path fill="#9c8280" d="m496.39 993.59c3.35-1.39 6.61-2.96 9.95-4.36-1.05 1.06-2.25 1.92-3.71 2.31.3.47.9 1.4 1.2 1.86.02 2.72 1.42 5.06 2.5 7.48l.29.22c.6 1.11 1.29 2.18 1.96 3.29 2.51 4.46 7.5 6.47 10.75 10.3 7.99 5.88 15.51 12.56 21.15 20.8.28.97.56 1.97.83 2.98.37.97.74 1.96 1.1 2.97 1.02 3.51.9 7.43.07 10.98-.28.53-.84 1.59-1.12 2.12-1.76 2.7-4.09 5.07-6.81 6.82-.53.28-1.61.84-2.15 1.12-1.42.37-2.89.49-4.34.64l-.08.94c-.61-.03-1.81-.1-2.42-.13-1.26-1.18-2.96-1-4.52-1-3.87-.01-7.74.24-11.6-.02-4.46-.62-8.95-1.02-13.45-.95-3.86-.25-7.9.71-11.61-.61-1.27-.32-2.52-.6-3.77-.93-1.69-.87-3.47-1.54-5.21-2.28-.6-.04-1.79-.12-2.39-.16l-.08-.93c-.36-.04-1.09-.11-1.45-.15-1.34-.78-2.7-1.5-4.06-2.18-3.82-1.34-7.36-3.33-10.79-5.44-1.09-.52-2.17-1.03-3.25-1.51-.5-.27-1.5-.82-2-1.09-.58-.23-1.74-.69-2.32-.91l-.22-.33c-2.59-1.44-4.95-3.25-7.51-4.74-2.27-1.01-3.95-2.9-6.11-4.04-3.77-3.51-7.27-7.3-10.99-10.86-2.61-2.42-4.3-5.62-6.89-8.05-2.24-4.34-5.98-7.67-8.02-12.11-.72-1.22-1.56-2.34-2.41-3.44 4.12.88 8.27 1.66 12.42 2.46.26.07.78.22 1.04.29-.09 2.02-.8 4.35.67 6.09 3.57 5.04 6.21 10.87 11.08 14.87 7.56 7.33 16.36 13.17 25.17 18.87 5.11 3.3 11.13 4.64 16.48 7.45 5.59 2.97 11.84 4.23 17.84 6.09 5.95 1.88 12.24 1.93 18.37 2.8 5.37.85 10.75-.35 16.03-1.2 6.54-.83 11.8-6.81 12.34-13.26-.62-5.62-3.49-10.74-6.75-15.24-3.22-4.58-8.46-6.89-12.7-10.29-3.7-2.95-7.39-5.98-10.18-9.83-2.6-3.71-6.38-6.45-8.62-10.42-1.43-2.38-2.98-4.66-4.66-6.86z"/><path fill="#4d0f10" d="m464.98 999.82c10.63-1.37 20.52-6.67 31.41-6.23l-.95.43c-.65.29-1.29.58-1.93.87-14.69 5.54-30.32 8.32-45.94 9.34-8.53.75-17.13-.07-25.61 1.25.25.85.75 2.53 1.01 3.38-.79-1.37-1.65-2.68-2.6-3.91-.26-.07-.78-.22-1.04-.29 5.34-3.52 11.82-1.79 17.78-2.09 9.38.15 18.59-1.77 27.87-2.75z"/><path fill="#c27873" d="m493.51 994.89c.64-.29 1.28-.58 1.93-.87 1.68 2.2 3.23 4.48 4.66 6.86 2.24 3.97 6.02 6.71 8.62 10.42 2.79 3.85 6.48 6.88 10.18 9.83 4.24 3.4 9.48 5.71 12.7 10.29 3.26 4.5 6.13 9.62 6.75 15.24-.54 6.45-5.8 12.43-12.34 13.26-5.28.85-10.66 2.05-16.03 1.2-6.13-.87-12.42-.92-18.37-2.8-6-1.86-12.25-3.12-17.84-6.09-5.35-2.81-11.37-4.15-16.48-7.45-8.81-5.7-17.61-11.54-25.17-18.87-4.87-4-7.51-9.83-11.08-14.87-1.47-1.74-.76-4.07-.67-6.09.95 1.23 1.81 2.54 2.6 3.91 5.54 9.45 13.19 17.62 21.85 24.31 10.3 8.58 22.49 14.63 35.04 19.17 11.96 3.95 24.39 7.27 37.1 6.9 6.01-.29 12.53-1.87 16.57-6.68 3.18-3.4 2.63-8.73.67-12.6-3.51-6.67-9.94-10.96-15.54-15.72-9.86-8.37-19.13-17.76-25.15-29.35z"/><path fill="#b02c2c" d="m447.57 1004.23c15.62-1.02 31.25-3.8 45.94-9.34 6.02 11.59 15.29 20.98 25.15 29.35 5.6 4.76 12.03 9.05 15.54 15.72 1.96 3.87 2.51 9.2-.67 12.6-4.04 4.81-10.56 6.39-16.57 6.68-12.71.37-25.14-2.95-37.1-6.9-12.55-4.54-24.74-10.59-35.04-19.17-8.66-6.69-16.31-14.86-21.85-24.31-.26-.85-.76-2.53-1.01-3.38 8.48-1.32 17.08-.5 25.61-1.25m25.4-1.06c-15.82 3.72-32.18 2.95-48.21 5.08 3.06 5.46 8.68 8.72 12.22 13.81 5.8 7.95 14.24 13.44 22.74 18.13 3.68 2.11 7.19 4.57 11.22 5.98 12.66 4.76 25.55 10.11 39.3 10.15 4.71-.05 9.69 1.18 14.14-.94 3.48-1.53 8.47-2.79 8.63-7.44 1.28-6.36-3.92-11.11-8.22-14.85-5.32-3.95-9.84-8.81-14.47-13.5-3.64-4.03-8.43-6.99-11.04-11.89-2.55-3.03-4.24-7.68-8.25-8.86-5.97 1.66-11.93 3.34-18.06 4.33z"/><path fill="#d01d1c" d="m472.97 1003.17c6.13-.99 12.09-2.67 18.06-4.33 4.01 1.18 5.7 5.83 8.25 8.86 2.61 4.9 7.4 7.86 11.04 11.89 4.63 4.69 9.15 9.55 14.47 13.5 4.3 3.74 9.5 8.49 8.22 14.85-.16 4.65-5.15 5.91-8.63 7.44-4.45 2.12-9.43.89-14.14.94-13.75-.04-26.64-5.39-39.3-10.15-4.03-1.41-7.54-3.87-11.22-5.98-8.5-4.69-16.94-10.18-22.74-18.13-3.54-5.09-9.16-8.35-12.22-13.81 16.03-2.13 32.39-1.36 48.21-5.08m-8.88 28.67c3.09 4.2 8.64 5.64 13.61 4.76.77-4.65-4.08-6.86-6.64-9.87-2.4-.14-4.81-.37-7.2-.12-2.37 1.1-.84 3.7.23 5.23z"/><path fill="#aea29e" d="m711.99 1010.97c5.67.06 11.34.41 17.01.11v.91c-5.67-.02-11.34.02-17 .01z"/><path fill="#f25540" d="m464.09 1031.84c-1.07-1.53-2.6-4.13-.23-5.23 2.39-.25 4.8-.02 7.2.12 2.56 3.01 7.41 5.22 6.64 9.87-4.97.88-10.52-.56-13.61-4.76z"/><path fill="#b59fa1" d="m495.99 1061.96c4.5-.07 8.99.33 13.45.95-4.48.19-8.96.05-13.44.09z"/></svg>