<svg xmlns="http://www.w3.org/2000/svg" width="112pt" height="112pt" viewBox="0 0 112 112"><g fill="#986877"><path d="m22.74 0h.49c-.41 4.03-.51 8.09-.43 12.14.72-1.08 1.45-2.16 2.15-3.25-.02.67-.05 2.02-.07 2.69 1.52-.38 3.04-.77 4.56-1.17.11 1.39.21 2.77.31 4.16-2.29.13-4.58.25-6.87.38-.4-3.94-.64-7.9-1.19-11.82-.38-.12-1.14-.35-1.52-.46-1.24 1.27-2.42 2.61-3.5 4.02.36-1.17.7-2.35 1.03-3.54 1.73-.97 3.41-2.03 5.04-3.15z"/><path d="m47.88 9.73c2.06.75 5.01.77 5.71 3.31 1.62 3.95 3.14 8.04 6.15 11.18-2.63-.69-5.29-1.25-7.98-1.7 1.89 2.34 3.51 5.39 6.59 6.33 2.68.79 5.5.99 8.27 1.35-.8 2.69-2.06 5.42-1.69 8.29 5.96 3.6 13.65 5.99 16.58 12.96 1.51 5.1 1.76 10.69.72 15.9-1.97 2.99-5.49 4.53-8.42 6.44-5.59 3.57-12.55 3.38-18.4 6.31-.28-.62-.84-1.85-1.12-2.47-6.09-.41-12.27-1.3-17.82-3.98-2.33-1.17-3.38-3.71-4.76-5.77-.29-.21-.88-.62-1.17-.83-.68 4.66-1.03 9.61-3.7 13.66-3.65 5.55-9.28 10.23-15.93 11.49-3.5.61-8.21-1.3-8.42-5.31-.71-8.45.78-17-.93-25.39 1.54-1.42 3.03-2.97 4.93-3.91 5.91-.67 11.88-.06 17.82-.14-.42 0-1.25.01-1.66.01-5.54.14-11.54-.29-16.47 2.7-2.39 1.23-2.87 4.08-3.77 6.35 2.58.41 5.15.81 7.73 1.19-2.6 2.99-5.69 5.75-7.24 9.47-.88 3.37-.11 7.95 3.31 9.62 3.86-.27 7.76-1.52 10.95-3.72 5.98-5.49 9.17-13.25 11-21 1.1.96 2.2 1.95 3.29 2.93.95-3.83 2.38-7.61 5.16-10.5-1 3.39-3.42 8.04.12 10.77 6.09 5.75 15.21 4.86 22.86 3.95 4.17-.98 9.47-1.86 11.37-6.26 1.74-3.64 2.33-8.94-1.23-11.71-4.69-3.55-10.87-4.32-16.59-3.96-5.36.25-9.77 3.66-14.78 5.14-.38.09-1.13.28-1.51.37 5.66-3.39 11.55-6.51 17.83-8.57 6.16 2.59 14.21 2.75 18.27 8.79 2.15 3.14 4.49 6.34 5.46 10.07-.8 2.52-2.34 4.7-3.56 7.03 2.21-1 5.5-1.09 6.58-3.61 1.32-5.08-.27-10.57-3.3-14.74-4.38-6.21-14.25-4.39-18.22-11.06-1.44-4.19 2.94-7.29 5.06-10.36-3.09.47-6.25 1.65-9.38.96-2.97-1.76-5.12-4.57-7.5-7.02 2.32-1.72 4.37-3.88 4.82-6.84-3.04.91-6.13 2.85-9.4 2.13-3.3-1.35-3.06-5.55-3.97-8.44 1.61 2.16 3.16 4.37 4.69 6.59.56-.05 1.68-.14 2.24-.19.45-2.61.97-5.2 1.41-7.81z"/><path d="m38.6 20.74c2.5-2.39 4.36 1.56 6.14 2.94-4.35 1.89-8.31 4.71-12.88 6.04-1.63.08-4.65.31-4.45-2.06-.57-1.49.6-2.96 2.15-2.88 3.49-.1 6.48-1.79 9.04-4.04z"/><path d="m95.25 29.79c9.29 3.08 13.09 13.26 14.02 22.16.43 10.76.23 21.53.38 32.29-3.12.19-6.41.73-9.39-.52-4.79-1.93-9.05-4.94-13.85-6.87-.34-3.05-.8-6.09-1.24-9.12 3.13 1.83 6.41 5.55 10.38 4.22 2.23-2.32 4.06-5.49 3.88-8.8-.62-3.73-2.57-7.07-4.4-10.33-3.41-6.05-9.72-9.77-13.03-15.91 4.83 4.18 9.47 8.58 13.95 13.14 5.04 4.6 9.34 10.84 8.69 18 .4 4.33-2.54 7.71-5.2 10.74.56.44 1.12.88 1.7 1.31 1.8 1.4 4.01 2.02 6.2 2.5-.4-2.68-.84-5.36-1.41-8.01 2.97-8.02.21-16.82-3.4-24.14-4.41-5.66-11.08-8.98-16.37-13.75 6.92 1.89 12.39 6.62 18.25 10.49.01-2.73.62-5.66-.45-8.26-2.21-3.61-5.5-6.43-8.71-9.14z"/><path d="m77.9 77.29c2.19-.1 4.38-.2 6.57-.33-.86.52-1.72 1.05-2.57 1.59 3.26 1.64 6.5 3.32 9.67 5.14-4.94 3.95-11.56 4.57-16.71 8.18-4.26 2.57-7.9 6.63-12.99 7.53-4.96.5-9.98.41-14.96.18-4.45-.17-8.02-3.14-11.63-5.39-.13.3-.4.88-.53 1.18 1.04 2.5 3.78 5.27 1.85 8.01-1.88 3.31-4.6 6.04-7.36 8.62h-2.03c3.95-3 6.88-7.14 8.17-11.94-4.92 1.76-9.79 3.65-14.85 4.96-.33 2.33-.74 4.65-1.07 6.98h-1.61c-1.8-2.57-4.54-6.13-2.18-9.2 3.37-4.31 9.16-5.22 14.14-6.5-.13-.32-.39-.96-.52-1.28-2.56-.66-5.12-1.32-7.68-1.98 4.38-4.22 7.46-9.84 12.61-13.21 5.9.34 11.59 3.71 17.69 2.25-4.47 2.63-10.13 2.49-14.18 5.96 3.87 2.18 7.61 4.7 11.8 6.23 4.16 1.41 8.13-1.3 11.91-2.69 5.66-2.49 12.23-3.88 16.45-8.75 1.52-1.55.24-3.75.01-5.54z"/></g><g fill="#eba16c"><path d="m23.23 0h15.3c5.32 4.15 12.2 5.71 17.39 9.99 2.04 2.25 4.13 4.56 6.9 5.95 5.73 3.1 10.72 7.66 17.11 9.45 5 1.85 10.35 2.5 15.32 4.4 3.21 2.71 6.5 5.53 8.71 9.14 1.07 2.6.46 5.53.45 8.26-5.86-3.87-11.33-8.6-18.25-10.49-2.35-1.61-4.66-3.28-7.03-4.85.9 1.71 1.82 3.43 2.87 5.06 3.31 6.14 9.62 9.86 13.03 15.91 1.83 3.26 3.78 6.6 4.4 10.33.18 3.31-1.65 6.48-3.88 8.8-3.97 1.33-7.25-2.39-10.38-4.22.44 3.03.9 6.07 1.24 9.12-.48.03-1.46.08-1.94.11-2.19.13-4.38.23-6.57.33.23 1.79 1.51 3.99-.01 5.54-4.22 4.87-10.79 6.26-16.45 8.75-3.78 1.39-7.75 4.1-11.91 2.69-4.19-1.53-7.93-4.05-11.8-6.23 4.05-3.47 9.71-3.33 14.18-5.96 1.18-.63 2.32-1.33 3.5-1.98 5.85-2.93 12.81-2.74 18.4-6.31 2.93-1.91 6.45-3.45 8.42-6.44 1.04-5.21.79-10.8-.72-15.9-2.93-6.97-10.62-9.36-16.58-12.96-.37-2.87.89-5.6 1.69-8.29-2.77-.36-5.59-.56-8.27-1.35-3.08-.94-4.7-3.99-6.59-6.33 2.69.45 5.35 1.01 7.98 1.7-3.01-3.14-4.53-7.23-6.15-11.18-.7-2.54-3.65-2.56-5.71-3.31-.44 2.61-.96 5.2-1.41 7.81-.56.05-1.68.14-2.24.19-1.53-2.22-3.08-4.43-4.69-6.59-2.62-5.22-9.05-3.67-13.79-3.49-.2.31-.6.93-.8 1.24-.7 1.09-1.43 2.17-2.15 3.25-.08-4.05.02-8.11.43-12.14z"/><path d="m16.67 6.69c1.08-1.41 2.26-2.75 3.5-4.02.11 4.07-.25 8.13-.57 12.19-.47-.1-1.41-.3-1.87-.41-.43-2.3-.91-4.6-1.34-6.9z"/><path d="m30.76 18.73c1.79-1.12 3.77-1.86 5.69-2.69.71 1.57 1.42 3.14 2.15 4.7-2.56 2.25-5.55 3.94-9.04 4.04.3-2.03.49-4.11 1.2-6.05z"/><path d="m18.22 17.66c1.83.01 3.73-.36 5.51.18 1.45.99 2.74 2.19 4.07 3.33-.98 3.32-4.18 3.71-7.16 3.66-.75-2.41-1.55-4.8-2.42-7.17z"/><path d="m38.36 52.43c5.01-1.48 9.42-4.89 14.78-5.14 5.72-.36 11.9.41 16.59 3.96 3.56 2.77 2.97 8.07 1.23 11.71-1.9 4.4-7.2 5.28-11.37 6.26-7.65.91-16.77 1.8-22.86-3.95-3.54-2.73-1.12-7.38-.12-10.77.44-.52 1.31-1.56 1.75-2.07z"/><path d="m6.18 60.16c4.93-2.99 10.93-2.56 16.47-2.7 1.85 1.52 3.71 3.03 5.51 4.61-1.83 7.75-5.02 15.51-11 21-3.19 2.2-7.09 3.45-10.95 3.72-3.42-1.67-4.19-6.25-3.31-9.62 1.55-3.72 4.64-6.48 7.24-9.47-2.58-.38-5.15-.78-7.73-1.19.9-2.27 1.38-5.12 3.77-6.35z"/><path d="m105.93 74.59c.57 2.65 1.01 5.33 1.41 8.01-2.19-.48-4.4-1.1-6.2-2.5 1.59-1.84 3.23-3.64 4.79-5.51z"/><path d="m20.53 105.02c5.06-1.31 9.93-3.2 14.85-4.96-1.29 4.8-4.22 8.94-8.17 11.94h-7.75c.33-2.33.74-4.65 1.07-6.98z"/></g><path fill="#4d272a" d="m20.17 2.67c.38.11 1.14.34 1.52.46.55 3.92.79 7.88 1.19 11.82 2.29-.13 4.58-.25 6.87-.38-.1-1.39-.2-2.77-.31-4.16-1.52.4-3.04.79-4.56 1.17.02-.67.05-2.02.07-2.69.2-.31.6-.93.8-1.24 4.74-.18 11.17-1.73 13.79 3.49.91 2.89.67 7.09 3.97 8.44 3.27.72 6.36-1.22 9.4-2.13-.45 2.96-2.5 5.12-4.82 6.84 2.38 2.45 4.53 5.26 7.5 7.02 3.13.69 6.29-.49 9.38-.96-2.12 3.07-6.5 6.17-5.06 10.36 3.97 6.67 13.84 4.85 18.22 11.06 3.03 4.17 4.62 9.66 3.3 14.74-1.08 2.52-4.37 2.61-6.58 3.61 1.22-2.33 2.76-4.51 3.56-7.03-.97-3.73-3.31-6.93-5.46-10.07-4.06-6.04-12.11-6.2-18.27-8.79-.13-2.83.34-5.8-.56-8.53-1.66-2.54-3.94-4.6-6.17-6.64-1.05-.8-2.18-2.21-3.65-1.5-4.71 1.61-8.84 5.92-14.17 4.81-3.85-2.31-7.25-5.61-12.06-5.69-3.14-5.81-3.96-12.87-1.68-19.13.43 2.3.91 4.6 1.34 6.9.46.11 1.4.31 1.87.41.32-4.06.68-8.12.57-12.19m10.59 16.06c-.71 1.94-.9 4.02-1.2 6.05-1.55-.08-2.72 1.39-2.15 2.88-.2 2.37 2.82 2.14 4.45 2.06 4.57-1.33 8.53-4.15 12.88-6.04-1.78-1.38-3.64-5.33-6.14-2.94-.73-1.56-1.44-3.13-2.15-4.7-1.92.83-3.9 1.57-5.69 2.69m-12.54-1.07c.87 2.37 1.67 4.76 2.42 7.17 2.98.05 6.18-.34 7.16-3.66-1.33-1.14-2.62-2.34-4.07-3.33-1.78-.54-3.68-.17-5.51-.18z"/><path fill="#4d272a" d="m55.92 9.99c4.42 4.26 10.41 6.17 15.26 9.84 6.24 4.62 14 6.39 21.47 7.88 5.59 1.4 10.16 5.33 13.45 9.92 1.45 2.78 2.16 5.87 3.05 8.85.93 4.85-.83 10.33 2.85 14.37v23.78c-5.39 4.11-12.25 1.98-18.37 3.1-6.05 2.7-11.81 6.01-17.79 8.85-4.03 1.73-6.51 5.6-10.25 7.72-7.19.68-14.45-.09-21.67.22-4.61-.1-6.78 4.88-9.92 7.48h-4.76c2.76-2.58 5.48-5.31 7.36-8.62 1.93-2.74-.81-5.51-1.85-8.01.13-.3.4-.88.53-1.18 3.61 2.25 7.18 5.22 11.63 5.39 4.98.23 10 .32 14.96-.18 5.09-.9 8.73-4.96 12.99-7.53 5.15-3.61 11.77-4.23 16.71-8.18-3.17-1.82-6.41-3.5-9.67-5.14.85-.54 1.71-1.07 2.57-1.59.48-.03 1.46-.08 1.94-.11 4.8 1.93 9.06 4.94 13.85 6.87 2.98 1.25 6.27.71 9.39.52-.15-10.76.05-21.53-.38-32.29-.93-8.9-4.73-19.08-14.02-22.16-4.97-1.9-10.32-2.55-15.32-4.4-6.39-1.79-11.38-6.35-17.11-9.45-2.77-1.39-4.86-3.7-6.9-5.95z"/><path fill="#4d272a" d="m79.13 31.85c2.37 1.57 4.68 3.24 7.03 4.85 5.29 4.77 11.96 8.09 16.37 13.75 3.61 7.32 6.37 16.12 3.4 24.14-1.56 1.87-3.2 3.67-4.79 5.51-.58-.43-1.14-.87-1.7-1.31 2.66-3.03 5.6-6.41 5.2-10.74.65-7.16-3.65-13.4-8.69-18-4.48-4.56-9.12-8.96-13.95-13.14-1.05-1.63-1.97-3.35-2.87-5.06z"/><path fill="#4d272a" d="m24.31 57.45c4.92.95 8.67-2.26 12.54-4.65.38-.09 1.13-.28 1.51-.37-.44.51-1.31 1.55-1.75 2.07-2.78 2.89-4.21 6.67-5.16 10.5-1.09-.98-2.19-1.97-3.29-2.93-1.8-1.58-3.66-3.09-5.51-4.61.41 0 1.24-.01 1.66-.01z"/><path fill="#4d272a" d="m0 63.05c.39-.39 1.17-1.16 1.56-1.55 1.71 8.39.22 16.94.93 25.39.21 4.01 4.92 5.92 8.42 5.31 6.65-1.26 12.28-5.94 15.93-11.49 2.67-4.05 3.02-9 3.7-13.66.29.21.88.62 1.17.83 1.38 2.06 2.43 4.6 4.76 5.77 5.55 2.68 11.73 3.57 17.82 3.98.28.62.84 1.85 1.12 2.47-1.18.65-2.32 1.35-3.5 1.98-6.1 1.46-11.79-1.91-17.69-2.25-5.15 3.37-8.23 8.99-12.61 13.21l7.68 1.98.52 1.28c-4.98 1.28-10.77 2.19-14.14 6.5-2.36 3.07.38 6.63 2.18 9.2h-4.76c-5.75-5.1-9.43-11.84-13.09-18.48z"/></svg>