<?xml version="1.0" encoding="UTF-8" ?>
<!DOCTYPE svg PUBLIC "-//W3C//DTD SVG 1.1//EN" "http://www.w3.org/Graphics/SVG/1.1/DTD/svg11.dtd">
<svg width="128pt" height="125pt" viewBox="0 0 128 125" version="1.1" xmlns="http://www.w3.org/2000/svg">
<g id="#f7d62fff">
<path fill="#f7d62f" stroke="#f7d62f" stroke-width="0.09375" opacity="1.00" d=" M 0.00 0.00 L 43.17 0.00 C 38.04 1.61 32.66 2.50 27.78 4.83 C 16.38 10.72 6.47 19.57 0.00 30.71 L 0.00 0.00 Z" />
<path fill="#f7d62f" stroke="#f7d62f" stroke-width="0.09375" opacity="1.00" d=" M 79.30 0.00 L 93.77 0.00 C 92.63 3.10 91.67 6.33 89.56 8.94 C 87.64 4.55 83.75 1.57 79.30 0.00 Z" />
<path fill="#f7d62f" stroke="#f7d62f" stroke-width="0.09375" opacity="1.00" d=" M 37.81 2.96 C 47.75 1.12 57.83 -0.17 67.96 0.62 C 70.29 6.99 72.27 13.50 73.71 20.14 C 63.67 20.58 53.84 22.86 44.09 25.17 C 41.61 17.88 39.21 10.55 37.81 2.96 Z" />
<path fill="#f7d62f" stroke="#f7d62f" stroke-width="0.09375" opacity="1.00" d=" M 69.38 0.40 C 73.96 0.72 78.58 1.40 82.93 2.93 C 85.43 3.75 86.55 6.33 87.49 8.57 C 89.56 13.76 90.81 19.46 89.95 25.05 C 85.39 22.24 80.31 20.62 74.92 20.59 C 73.18 13.83 70.90 7.21 69.38 0.40 Z" />
<path fill="#f7d62f" stroke="#f7d62f" stroke-width="0.09375" opacity="1.00" d=" M 12.90 16.30 C 19.57 9.95 27.82 5.03 36.99 3.44 C 38.73 10.82 40.65 18.17 42.98 25.39 C 34.95 29.66 26.95 33.98 19.12 38.60 C 16.76 33.01 14.81 27.25 13.36 21.35 C 13.04 19.70 12.46 17.99 12.90 16.30 Z" />
<path fill="#f7d62f" stroke="#f7d62f" stroke-width="0.09375" opacity="1.00" d=" M 1.40 32.01 C 2.83 26.12 7.31 21.63 11.74 17.77 C 13.05 25.35 15.76 32.55 18.26 39.79 C 16.28 42.28 14.07 44.61 12.43 47.34 C 12.11 49.00 12.85 50.64 13.01 52.28 C 10.94 51.81 8.19 52.01 7.27 49.64 C 4.46 44.15 1.66 38.25 1.40 32.01 Z" />
<path fill="#f7d62f" stroke="#f7d62f" stroke-width="0.09375" opacity="1.00" d=" M 0.00 34.94 C 0.91 37.58 1.78 40.23 2.72 42.86 C 2.04 42.79 0.68 42.65 0.00 42.59 L 0.00 34.94 Z" />
<path fill="#f7d62f" stroke="#f7d62f" stroke-width="0.09375" opacity="1.00" d=" M 8.53 53.09 C 9.57 51.86 12.49 53.03 11.55 54.72 C 10.53 56.18 7.61 54.76 8.53 53.09 Z" />
<path fill="#f7d62f" stroke="#f7d62f" stroke-width="0.09375" opacity="1.00" d=" M 12.94 54.16 C 16.29 54.25 11.42 57.11 12.94 54.16 Z" />
</g>
<g id="#473a24f3">
<path fill="#473a24" stroke="#473a24" stroke-width="0.09375" opacity="0.95" d=" M 43.17 0.00 L 79.30 0.00 C 83.75 1.57 87.64 4.55 89.56 8.94 C 90.94 14.49 91.69 20.17 91.22 25.89 C 99.33 28.88 107.68 31.98 114.26 37.77 C 118.68 41.72 120.14 47.73 121.94 53.14 C 123.75 61.07 125.41 69.06 128.00 76.79 L 128.00 83.23 C 126.43 86.96 124.75 90.83 121.60 93.54 C 117.04 97.09 115.52 103.36 110.32 106.23 C 106.34 109.25 101.25 108.05 96.68 108.53 C 94.29 110.10 92.26 112.23 89.60 113.38 C 87.11 114.52 84.35 114.84 81.80 115.81 C 78.27 117.45 75.73 120.93 71.74 121.63 C 68.55 122.21 65.50 123.30 62.74 125.00 L 50.70 125.00 C 44.08 122.76 36.96 120.24 32.80 114.22 C 25.29 105.79 22.44 94.56 20.42 83.74 C 17.96 75.14 16.62 66.29 15.39 57.44 C 12.86 56.50 9.75 56.36 7.82 54.30 C 5.83 50.63 5.05 46.39 2.72 42.86 C 1.78 40.23 0.91 37.58 0.00 34.94 L 0.00 30.71 C 6.47 19.57 16.38 10.72 27.78 4.83 C 32.66 2.50 38.04 1.61 43.17 0.00 M 37.81 2.96 C 39.21 10.55 41.61 17.88 44.09 25.17 C 53.84 22.86 63.67 20.58 73.71 20.14 C 72.27 13.50 70.29 6.99 67.96 0.62 C 57.83 -0.17 47.75 1.12 37.81 2.96 M 69.38 0.40 C 70.90 7.21 73.18 13.83 74.92 20.59 C 80.31 20.62 85.39 22.24 89.95 25.05 C 90.81 19.46 89.56 13.76 87.49 8.57 C 86.55 6.33 85.43 3.75 82.93 2.93 C 78.58 1.40 73.96 0.72 69.38 0.40 M 12.90 16.30 C 12.46 17.99 13.04 19.70 13.36 21.35 C 14.81 27.25 16.76 33.01 19.12 38.60 C 26.95 33.98 34.95 29.66 42.98 25.39 C 40.65 18.17 38.73 10.82 36.99 3.44 C 27.82 5.03 19.57 9.95 12.90 16.30 M 1.40 32.01 C 1.66 38.25 4.46 44.15 7.27 49.64 C 8.19 52.01 10.94 51.81 13.01 52.28 C 12.85 50.64 12.11 49.00 12.43 47.34 C 14.07 44.61 16.28 42.28 18.26 39.79 C 15.76 32.55 13.05 25.35 11.74 17.77 C 7.31 21.63 2.83 26.12 1.40 32.01 M 47.94 25.81 C 40.81 27.69 34.53 31.69 28.06 35.08 C 22.63 38.01 17.17 41.68 14.19 47.26 C 14.21 49.41 14.90 51.47 15.38 53.55 C 17.90 62.87 18.24 72.64 20.92 81.93 C 23.32 90.56 24.26 99.94 29.58 107.43 C 32.36 111.23 34.91 115.45 38.95 118.04 C 46.44 122.52 55.59 126.42 64.27 122.86 C 60.30 121.22 56.14 119.80 52.83 116.97 C 58.20 118.18 63.18 121.55 68.86 120.93 C 72.94 120.55 76.44 118.22 79.53 115.70 C 75.53 113.89 71.11 112.87 67.61 110.10 C 73.33 111.30 78.75 114.63 84.78 113.77 C 88.94 113.30 92.21 110.47 95.17 107.76 C 88.86 104.21 84.41 98.02 77.42 95.64 C 81.61 96.33 85.86 96.65 90.10 96.13 C 88.68 97.05 87.25 97.95 85.81 98.84 C 89.50 102.02 93.33 105.49 98.20 106.66 C 102.12 107.23 106.58 107.48 109.93 104.98 C 113.96 102.43 116.87 97.92 116.34 93.01 C 115.97 84.58 114.31 74.90 107.42 69.25 C 107.63 72.04 107.69 74.87 108.37 77.59 C 109.75 79.20 111.73 80.13 113.43 81.35 C 112.82 81.40 111.60 81.50 110.99 81.55 C 111.81 83.75 112.56 85.98 113.07 88.27 C 109.70 83.14 107.02 77.56 102.97 72.88 C 104.35 73.54 105.71 74.24 107.08 74.93 C 105.92 70.54 104.48 66.23 103.06 61.92 C 105.15 64.81 107.34 67.64 110.16 69.87 C 116.52 76.38 116.75 86.05 118.18 94.50 C 123.57 91.85 126.12 85.74 126.50 80.03 C 126.42 74.23 124.19 68.77 122.82 63.20 C 121.41 58.19 120.51 53.05 118.91 48.09 C 116.93 41.75 111.58 37.19 106.02 33.96 C 98.25 29.70 89.84 26.82 81.72 23.32 C 78.35 21.86 74.59 21.71 70.97 21.95 C 63.19 22.49 55.42 23.54 47.94 25.81 M 8.53 53.09 C 7.61 54.76 10.53 56.18 11.55 54.72 C 12.49 53.03 9.57 51.86 8.53 53.09 M 12.94 54.16 C 11.42 57.11 16.29 54.25 12.94 54.16 Z" />
</g>
<g id="#bd9359ff">
<path fill="#bd9359" stroke="#bd9359" stroke-width="0.09375" opacity="1.00" d=" M 47.94 25.81 C 55.42 23.54 63.19 22.49 70.97 21.95 C 74.59 21.71 78.35 21.86 81.72 23.32 C 89.84 26.82 98.25 29.70 106.02 33.96 C 111.58 37.19 116.93 41.75 118.91 48.09 C 120.51 53.05 121.41 58.19 122.82 63.20 C 124.19 68.77 126.42 74.23 126.50 80.03 C 126.12 85.74 123.57 91.85 118.18 94.50 C 116.75 86.05 116.52 76.38 110.16 69.87 C 107.34 67.64 105.15 64.81 103.06 61.92 C 104.48 66.23 105.92 70.54 107.08 74.93 C 105.71 74.24 104.35 73.54 102.97 72.88 C 107.02 77.56 109.70 83.14 113.07 88.27 C 112.56 85.98 111.81 83.75 110.99 81.55 C 111.60 81.50 112.82 81.40 113.43 81.35 C 111.73 80.13 109.75 79.20 108.37 77.59 C 107.69 74.87 107.63 72.04 107.42 69.25 C 114.31 74.90 115.97 84.58 116.34 93.01 C 116.87 97.92 113.96 102.43 109.93 104.98 C 106.58 107.48 102.12 107.23 98.20 106.66 C 93.33 105.49 89.50 102.02 85.81 98.84 C 87.25 97.95 88.68 97.05 90.10 96.13 C 85.86 96.65 81.61 96.33 77.42 95.64 C 84.41 98.02 88.86 104.21 95.17 107.76 C 92.21 110.47 88.94 113.30 84.78 113.77 C 78.75 114.63 73.33 111.30 67.61 110.10 C 71.11 112.87 75.53 113.89 79.53 115.70 C 76.44 118.22 72.94 120.55 68.86 120.93 C 63.18 121.55 58.20 118.18 52.83 116.97 C 56.14 119.80 60.30 121.22 64.27 122.86 C 55.59 126.42 46.44 122.52 38.95 118.04 C 34.91 115.45 32.36 111.23 29.58 107.43 C 24.26 99.94 23.32 90.56 20.92 81.93 C 18.24 72.64 17.90 62.87 15.38 53.55 C 14.90 51.47 14.21 49.41 14.19 47.26 C 17.17 41.68 22.63 38.01 28.06 35.08 C 34.53 31.69 40.81 27.69 47.94 25.81 Z" />
</g>
</svg>
