<svg height="157" viewBox="0 0 126 157" width="126" xmlns="http://www.w3.org/2000/svg"><path d="m91 105h-56c-.41 0-.814.03-1.208.09l-.008 3.508-5.46-.008c-.836 1.264-1.324 2.78-1.324 4.41v36c0 4.418 3.582 8 8 8h56c4.418 0 8-3.582 8-8v-36c0-4.418-3.582-8-8-8z" fill="#00247d"/><path d="m45 147.046-2.444 2.258.242-3.32-3.29-.502 2.746-1.88-1.658-2.886 3.182.976 1.222-3.098 1.224 3.098 3.182-.976-1.66 2.886 2.748 1.88-3.29.502.242 3.32zm37.9-32.922-1.598 1.476.158-2.172-2.154-.328 1.798-1.23-1.084-1.888 2.08.638.8-2.026.802 2.026 2.082-.638-1.086 1.888 1.796 1.23-2.152.328.158 2.172zm-8 12-1.598 1.478.158-2.172-2.154-.328 1.798-1.232-1.084-1.888 2.08.638.8-2.026.802 2.026 2.082-.638-1.086 1.888 1.796 1.232-2.152.328.158 2.172zm18-4-1.598 1.478.158-2.172-2.154-.328 1.798-1.232-1.084-1.888 2.08.638.8-2.026.802 2.026 2.082-.638-1.086 1.888 1.796 1.232-2.152.328.158 2.172zm-10 28-1.598 1.478.158-2.172-2.154-.328 1.798-1.232-1.084-1.888 2.08.638.8-2.026.802 2.026 2.082-.638-1.086 1.888 1.796 1.232-2.152.328.158 2.172zm6.1-23.124.588 1.192 1.314.19-.95.926.224 1.31-1.176-.618-1.176.618.224-1.31-.95-.926 1.314-.19z" fill="#fff"/><path d="m65 131v-26h-30c-.64 0-1.208.09-1.208.09l-.008 3.508-5.46-.008s-.084.118-.254.41c-.68 1.178-1.07 2.544-1.07 4v18z" fill="#00247d"/><path d="m65 105h-4.662l-9.338 6.538v-6.538h-10v5.138l-7.208-5.048c-1.228.188-2.38.65-3.344 1.33l9.404 6.58h-3.472l-7.446-5.218c-.22.258-.422.524-.61.808l6.302 4.41h-7.626v10h7.77l-7.77 5.532v2.468h6.664l7.336-5.136v5.136h10v-6.538l9.336 6.538h4.664v-4.058l-5.63-3.942h5.63v-10h-5.628l5.628-3.942z" fill="#eee"/><path d="m49 105h-6v10h-16v6h16v10h6v-10h16v-6h-16z" fill="#cf1b2b"/><path d="m65 105h-2.922l-11.078 7.758v.242h3.142l10.858-7.604zm-34.552 1.42c-.562.39-1.068.846-1.514 1.362l7.446 5.218h3.47zm9.426 16.58-11.406 8h3.454l9.078-6.356v-1.644zm25.126 7.604v-2.44l-7.374-5.164h-3.486z" fill="#cf1b2b"/><path d="m125.933 70.121c0-7.627-1.357-14.939-3.846-21.704-1.702 19.932-12.328 30.171-23.432 25.403-10.401-4.468-3.392-21.886-2.874-30.197.873-14.088-.044-30.215-25.636-43.623 10.634 20.343 1.232 32.982-8.629 33.751-10.941.855-20.961-9.402-17.262-26.046-11.977 8.825-12.325 23.679-8.63 33.288 3.855 10.017-.155 18.339-9.553 19.263-10.505 1.036-16.342-11.247-10.96-30.821-9.313 10.967-14.935 25.17-14.935 40.686 0 34.728 28.151 62.879 62.878 62.879 34.728 0 62.879-28.151 62.879-62.879z" fill="#f4900c"/><path d="m101.499 88.611c.548 11.407-9.472 15.879-14.865 13.719-7.79-3.118-5.7-8.474-7.704-19.57-2.005-11.097-9.71-18.801-21.113-22.193 8.322 23.424-4.612 32.057-11.392 33.6-6.924 1.575-13.882-.004-14.677-14.821-8.078 8.041-13.079 19.167-13.079 31.461 0 1.362.085 2.701.204 4.032 11.355 11.222 26.953 18.161 44.181 18.161 17.229 0 32.827-6.939 44.182-18.161.118-1.331.204-2.67.204-4.032 0-8.089-2.161-15.668-5.941-22.196z" fill="#ffcc4d"/></svg>