<svg width="265pt" height="360" viewBox="0 0 265 270" version="1.1" xmlns="http://www.w3.org/2000/svg"><g id="#fcc314ff"><path fill="#fcc314" opacity="1" d="M 86.74 29.76 C 117.24 16.14 152.05 15.30 184.10 22.57 C 200.41 26.46 215.81 34.57 227.93 46.17 C 252.05 68.49 263.36 102.92 259.34 135.18 C 258.95 136.62 258.82 138.12 258.59 139.59 C 224.27 144.78 189.29 143.25 154.91 139.37 C 121.48 135.39 88.43 128.43 56.08 119.17 C 43.26 114.79 30.12 111.11 18.04 104.86 L 17.54 104.22 C 17.56 102.59 20.23 100.85 18.17 99.51 C 18.31 98.96 18.59 97.88 18.72 97.33 C 32.97 68.06 56.61 42.83 86.74 29.76 M 76.17 71.20 C 65.17 74.31 58.08 87.64 62.57 98.35 C 64.87 104.53 72.22 108.45 78.59 106.44 C 90.99 103.50 98.22 86.93 90.75 76.25 C 87.60 71.57 81.47 70.02 76.17 71.20 M 153.49 84.55 C 144.06 86.91 138.61 97.61 139.70 106.80 C 140.35 113.54 144.85 120.39 151.81 121.77 C 159.54 123.45 166.98 117.78 169.96 110.94 C 172.28 105.67 172.71 99.57 170.62 94.15 C 168.45 87.26 160.57 82.38 153.49 84.55 Z"/><path fill="#fcc314" opacity="1" d="M 2.73 148.77 C 3.05 160.37 8.07 170.98 12.69 181.39 C 20.52 197.28 29.54 212.56 38.46 227.85 C 30.25 224.41 22.11 220.52 15.16 214.89 C 9.14 210.32 3.90 204.08 2.31 196.55 C 0.32 180.76 0.63 164.50 2.73 148.77 Z"/><path fill="#fcc314" opacity="1" d="M 228.33 198.38 C 237.76 188.09 244.41 175.57 253.99 165.41 C 254.05 168.29 253.85 171.18 254.10 174.05 C 255.68 181.65 259.62 189.20 257.61 197.13 C 255.21 207.73 245.96 214.75 237.25 220.23 C 221.24 229.52 203.17 234.58 185.10 238.10 C 170.01 240.95 154.89 242.20 139.54 242.97 C 156.88 235.63 175.05 230.34 192.69 223.74 C 206.54 218.60 218.75 209.56 228.33 198.38 Z"/></g><g id="#2b2b2bff"><path fill="#2b2b2b" opacity="1" d="M 76.17 71.20 C 81.47 70.02 87.60 71.57 90.75 76.25 C 98.22 86.93 90.99 103.50 78.59 106.44 C 72.22 108.45 64.87 104.53 62.57 98.35 C 58.08 87.64 65.17 74.31 76.17 71.20 Z"/><path fill="#2b2b2b" opacity="1" d="M 153.49 84.55 C 160.57 82.38 168.45 87.26 170.62 94.15 C 172.71 99.57 172.28 105.67 169.96 110.94 C 166.98 117.78 159.54 123.45 151.81 121.77 C 144.85 120.39 140.35 113.54 139.70 106.80 C 138.61 97.61 144.06 86.91 153.49 84.55 Z"/><path fill="#2b2b2b" opacity="1" d="M 17.46 99.49 C 17.51 98.48 17.93 97.76 18.72 97.33 C 18.59 97.88 18.31 98.96 18.17 99.51 C 20.23 100.85 17.56 102.59 17.54 104.22 L 18.04 104.86 C 30.12 111.11 43.26 114.79 56.08 119.17 C 88.43 128.43 121.48 135.39 154.91 139.37 C 189.29 143.25 224.27 144.78 258.59 139.59 C 258.82 138.12 258.95 136.62 259.34 135.18 C 261.22 136.35 263.41 137.19 264.97 138.81 C 264.00 142.92 263.74 147.26 261.81 151.08 C 241.51 167.71 229.00 191.92 208.45 208.31 C 204.61 211.79 200.00 214.28 195.19 216.14 C 175.42 223.61 155.69 231.17 135.91 238.60 C 123.50 243.28 110.93 247.55 98.74 252.76 C 91.93 255.31 85.71 259.12 79.17 262.25 C 67.40 255.22 57.61 245.16 50.38 233.55 C 41.12 219.58 32.79 205.03 24.54 190.45 C 18.87 178.98 13.78 167.20 9.96 154.98 C 7.56 145.59 4.41 136.38 2.44 126.90 C 2.77 123.32 2.72 119.71 3.12 116.15 C 4.95 110.49 7.09 104.94 9.67 99.59 C 12.14 98.86 14.90 99.38 17.46 99.49 M 78.46 144.50 C 65.37 148.04 55.73 159.44 51.60 171.99 C 47.70 182.97 47.71 195.45 51.70 206.30 C 55.51 215.84 63.42 224.45 73.84 226.37 C 85.51 228.85 97.32 222.56 104.39 213.49 C 117.20 197.41 119.52 172.60 107.35 155.54 C 100.90 146.61 89.28 141.80 78.46 144.50 Z"/><path fill="#2b2b2b" opacity="1" d="M 2.15 142.87 C 7.12 165.20 16.18 186.45 27.98 206.00 C 39.15 224.06 48.19 244.25 65.05 257.92 C 69.53 262.06 74.82 265.12 79.96 268.34 C 83.66 263.98 88.96 261.49 94.00 259.00 C 98.68 256.55 103.62 254.68 108.44 252.56 C 132.37 243.10 156.57 234.33 180.86 225.84 C 188.99 222.83 197.45 220.48 204.95 216.03 C 223.83 204.86 235.96 185.98 248.77 168.78 C 251.75 165.40 254.19 161.22 258.34 159.12 C 257.62 161.68 255.74 163.52 253.99 165.41 C 244.41 175.57 237.76 188.09 228.33 198.38 C 218.75 209.56 206.54 218.60 192.69 223.74 C 175.05 230.34 156.88 235.63 139.54 242.97 C 122.84 248.80 106.30 255.37 90.49 263.34 C 87.08 265.33 83.17 266.81 80.65 270.00 L 80.05 270.00 L 79.19 269.19 C 68.75 264.68 59.93 257.04 52.71 248.35 C 47.16 242.09 43.09 234.76 38.46 227.85 C 29.54 212.56 20.52 197.28 12.69 181.39 C 8.07 170.98 3.05 160.37 2.73 148.77 C 2.66 146.79 2.24 144.84 2.15 142.87 Z"/><path fill="#2b2b2b" opacity="1" d="M 68.09 155.15 C 73.38 150.85 80.34 147.65 87.26 148.79 C 75.09 164.65 62.27 180.49 54.49 199.08 C 50.98 183.47 55.94 165.82 68.09 155.15 Z"/><path fill="#2b2b2b" opacity="1" d="M 90.54 149.31 C 97.49 150.99 103.08 156.40 106.25 162.70 C 111.34 172.23 111.59 183.71 109.02 194.03 C 106.96 200.99 103.79 208.04 98.33 212.96 C 91.90 192.38 91.34 170.67 90.54 149.31 Z"/><path fill="#2b2b2b" opacity="1" d="M 71.02 180.96 C 75.61 174.63 79.65 167.51 85.07 162.02 C 85.24 170.28 86.01 178.50 86.74 186.72 C 81.52 185.02 76.25 183.45 71.01 181.82 L 71.02 180.96 Z"/><path fill="#2b2b2b" opacity="1" d="M 67.24 187.10 C 74.15 188.82 80.92 191.25 87.77 193.28 C 89.02 201.38 90.77 209.40 93.50 217.15 C 87.78 221.83 79.61 223.36 72.55 221.26 C 65.70 219.01 60.16 213.55 57.30 207.00 C 60.33 200.22 63.37 193.44 67.24 187.10 Z"/></g><g id="#ffffffff"><path fill="#fff" opacity="1" d="M 2.15 142.87 C 1.54 137.60 1.84 132.17 2.44 126.90 C 4.41 136.38 7.56 145.59 9.96 154.98 C 13.78 167.20 18.87 178.98 24.54 190.45 C 32.79 205.03 41.12 219.58 50.38 233.55 C 57.61 245.16 67.40 255.22 79.17 262.25 C 85.71 259.12 91.93 255.31 98.74 252.76 C 110.93 247.55 123.50 243.28 135.91 238.60 C 155.69 231.17 175.42 223.61 195.19 216.14 C 200.00 214.28 204.61 211.79 208.45 208.31 C 229.00 191.92 241.51 167.71 261.81 151.08 C 260.58 153.72 259.80 156.60 258.34 159.12 C 254.19 161.22 251.75 165.40 248.77 168.78 C 235.96 185.98 223.83 204.86 204.95 216.03 C 197.45 220.48 188.99 222.83 180.86 225.84 C 156.57 234.33 132.37 243.10 108.44 252.56 C 103.62 254.68 98.68 256.55 94.00 259.00 C 88.96 261.49 83.66 263.98 79.96 268.34 C 74.82 265.12 69.53 262.06 65.05 257.92 C 48.19 244.25 39.15 224.06 27.98 206.00 C 16.18 186.45 7.12 165.20 2.15 142.87 Z"/><path fill="#fff" opacity="1" d="M 78.46 144.50 C 89.28 141.80 100.90 146.61 107.35 155.54 C 119.52 172.60 117.20 197.41 104.39 213.49 C 97.32 222.56 85.51 228.85 73.84 226.37 C 63.42 224.45 55.51 215.84 51.70 206.30 C 47.71 195.45 47.70 182.97 51.60 171.99 C 55.73 159.44 65.37 148.04 78.46 144.50 M 68.09 155.15 C 55.94 165.82 50.98 183.47 54.49 199.08 C 62.27 180.49 75.09 164.65 87.26 148.79 C 80.34 147.65 73.38 150.85 68.09 155.15 M 90.54 149.31 C 91.34 170.67 91.90 192.38 98.33 212.96 C 103.79 208.04 106.96 200.99 109.02 194.03 C 111.59 183.71 111.34 172.23 106.25 162.70 C 103.08 156.40 97.49 150.99 90.54 149.31 M 71.02 180.96 L 71.01 181.82 C 76.25 183.45 81.52 185.02 86.74 186.72 C 86.01 178.50 85.24 170.28 85.07 162.02 C 79.65 167.51 75.61 174.63 71.02 180.96 M 67.24 187.10 C 63.37 193.44 60.33 200.22 57.30 207.00 C 60.16 213.55 65.70 219.01 72.55 221.26 C 79.61 223.36 87.78 221.83 93.50 217.15 C 90.77 209.40 89.02 201.38 87.77 193.28 C 80.92 191.25 74.15 188.82 67.24 187.10 Z"/></g></svg>