<svg width="100%" height="100%" viewBox="0 0 386 212" version="1.1" xmlns="http://www.w3.org/2000/svg" xmlns:xlink="http://www.w3.org/1999/xlink" xml:space="preserve" xmlns:serif="http://www.serif.com/" fill-rule="evenodd" clip-rule="evenodd"><g><g><path d="M27.76,2.83C37.09,-0.23 47.68,-0.11 56.54,4.37C59.49,5.86 63.07,7.72 63.59,11.37C64.08,14.21 61.95,16.42 60.42,18.53C54.2,18.96 48.03,17.89 41.84,17.42C41.46,17.18 40.7,16.71 40.32,16.47C37.13,16.5 33.89,16.18 30.73,16.81C27.16,17.92 24.08,20.09 20.85,21.9C16.89,27.49 13.64,34.16 13.58,41.1C15.19,48.68 18.73,56.15 24.7,61.27C31.97,67.32 40.88,70.95 49.77,73.91C58.23,76.66 67.25,76.58 75.87,78.62C87.91,81.6 99.93,76.58 112.03,77.12C116.3,76.74 121.07,78.57 124.87,75.92C131.45,71.94 138.34,68.26 145.94,66.71C155.54,65.02 165.42,63.75 175.11,65.46C177.05,65.87 179.03,65.6 180.86,64.89C189.34,61.57 197.42,57.33 205.81,53.8C213.57,51.34 221.87,49.39 230.03,51.02C235.5,52.32 240.86,49.26 244.68,45.58C250.66,39.36 258.75,35.91 266.44,32.32C273.04,29.21 280.49,27.34 287.8,28.58C291.29,29.15 294.31,32.3 298,31.16C304.47,29.47 311.32,27.51 317.94,29.7C325.42,31.19 330.69,36.96 335.68,42.25C338.45,45.49 340.5,49.37 343.8,52.14C346.21,54.13 348.88,55.79 351.29,57.79C362.46,53.63 374.08,50.59 386.04,50C391.95,48.98 397.94,50.12 403.62,51.8C403.7,52.34 403.84,53.42 403.92,53.96C401.2,57.84 397.73,61.17 395.33,65.27C392.54,70.02 389.43,74.66 385.44,78.49C382.87,80.99 379.55,82.44 376.58,84.34C375.58,90.34 374.82,96.41 372.07,101.92C379.38,101.65 386.63,100.56 393.94,100.37C401.38,100.41 408.67,102.02 416,103.08L416,103.46C411.33,103.43 406.68,103.77 402.07,104.46C391.99,104.94 381.92,105.72 371.89,106.78C367.6,108.78 365.58,113.65 364.69,118.01C366.64,116.03 367.82,113.43 369.37,111.14C368.93,113.16 368.47,115.17 368.1,117.2C383,117.44 398.5,119.29 411.6,126.93C405.86,126.44 400.36,124.59 394.68,123.74C385.85,122.96 376.89,121.98 368.08,123.54C368.46,126.86 369.19,130.11 369.74,133.4C377.13,137.1 383.96,141.76 390.94,146.13C394.07,148.49 397.13,151 400.85,152.38C400.22,152.45 398.96,152.59 398.33,152.66C392.96,150.27 387.09,149 382.09,145.83C378.46,143.53 374.55,141.72 370.61,140.04C372.11,146.01 374.71,151.71 375.48,157.86C376.33,163.9 378.05,169.8 378.32,175.92C378.35,180.71 380.41,185.64 384.35,188.51C390.61,193.2 397.86,196.94 402.66,203.3C404.53,205.76 403.76,208.95 403.46,211.76C406.03,216.98 404.01,223.01 401.37,227.79C401.01,227.72 400.27,227.59 399.91,227.52C398.67,224.49 396.54,222 393.28,221.1C391.61,225.92 391.04,231.96 386.3,234.89C385,231.72 383.22,228.77 380.63,226.49L378.89,226.49C376.83,231.33 373.99,236.14 369.42,239L367.75,239C366.7,235.51 364.66,232.48 362.21,229.82C360.59,229.76 358.97,229.69 357.35,229.64C357.71,232.32 358.37,234.94 358.92,237.6C357.09,237.43 355.13,237.65 353.46,236.75C350.29,235.31 348.74,232 346.53,229.52C344.89,227.91 342.85,226.79 340.98,225.49C340.49,226.16 339.51,227.52 339.02,228.19C336.24,226.75 333.35,225.06 331.98,222.1C329.7,218.36 331.1,213.94 331.37,209.9C331.98,204.62 337.8,202.68 340.1,198.39C340.95,192.66 341.32,186.8 340.9,181C340.53,173.75 337.58,166.93 337.31,159.66C333.66,161.2 330.13,163.62 326.02,163.56C320.39,163.57 314.46,164 309.21,161.58C304.4,159.01 301.28,154.09 299.9,148.92C297.66,140.83 291.25,134.98 287.51,127.67C286.76,126.77 286.6,124.88 285.11,125.05C284.06,126.12 284.36,127.74 284.26,129.09C284.29,135.14 282.19,141.03 282.9,147.1C282.97,151.49 285.76,155.2 288.71,158.18C293.41,160.84 298.96,161.27 304.04,162.87C309.76,164.42 315.33,167.59 318.12,173.02C321.14,173.06 324.25,174.42 325.47,177.35C327.07,183.09 324.49,188.86 321.05,193.37C319.69,191.2 318.3,189.05 316.83,186.97C312.86,190.86 312.79,196.94 309.04,201C307.77,199.47 306.49,197.95 305.19,196.45C303.12,197.78 301.02,199.05 298.85,200.2C298.73,200.82 298.63,201.45 298.55,202.09C299.93,203.18 301.3,204.28 302.67,205.4C298.64,208.07 293.59,207.34 289.46,205.34C288.27,206.08 286.18,206.1 286.04,207.81C287.62,209.15 289.41,210.21 291.14,211.36C287.1,213.44 282.2,214.69 277.8,213.01C275.18,211.87 272.91,210.05 270.34,208.8C270.34,209.89 270.35,210.97 270.38,212.06C271.9,213.14 273.43,214.23 274.94,215.34C268.74,217.97 260.74,217.65 255.94,212.43C255.52,210.05 254.6,207.83 252.91,206.08C249.45,202.23 250.23,196.65 250.83,191.94C251.34,188.84 254.41,185.31 251.49,182.58C245.27,175.24 242.99,165.41 243.62,155.97C237.89,151.58 231.85,147 228.58,140.37C225.23,134.1 225.02,126.84 224.14,119.95C222.67,129.65 224.35,140.89 231.61,148.03C228.53,149.48 225.48,151.02 222.29,152.19C201.43,160.86 174.36,151.11 164.69,130.49C161.92,124.62 161.83,118 159.99,111.87C158.37,121.84 162.95,131.41 166.7,140.38C166.25,142.86 164.41,144.89 163.17,147.04C157.83,155.36 150.9,163.78 140.78,166.05C133.89,166.6 126.61,166.01 120.46,162.55C116.58,160.64 114.83,156.44 112.43,153.1C110.82,154.22 109.33,155.59 107.48,156.3C104.23,157.87 101.26,154.83 98.3,153.85C95.89,153.42 96.92,150.89 96.91,149.2C95.27,143.19 92.23,137.37 92.51,130.99C93.95,124.96 95.4,118.76 98.43,113.31C100.94,109.82 105.29,111.71 108.6,112.68C108.4,107.04 108.63,101.39 109.95,95.89C101.02,92.58 91.43,92.52 82.07,91.7C68.12,91.7 53.83,91.37 40.55,86.65C35.86,84.69 31.29,82.45 26.76,80.15C20.8,77.01 16.91,71.38 12.32,66.66C8.35,61.92 3.81,57.22 2.43,50.97C-0.24,42.85 0.76,34.07 2.72,25.91C5.71,14.22 16.09,5.25 27.76,2.83M255.31,60.16C253.07,61.02 249.43,62.98 250.76,65.89C253.8,71.01 257.89,75.39 261.38,80.2C264.91,84.28 269.4,88.47 275.08,88.81C275.51,89.07 276.38,89.59 276.82,89.85C276.57,88.71 276.81,87.1 275.36,86.74C270.04,84.9 264.65,82.11 261.79,77.01C259.31,72.5 254.32,69.54 253.42,64.18C254.04,63.8 255.29,63.04 255.92,62.66C264.88,59.52 274.86,59.75 283.95,62.23C284.46,62.3 285.48,62.44 285.99,62.51C287.16,63.19 288.35,63.82 289.57,64.4C289.18,63.19 288.64,62.05 287.96,60.99C283,58.55 277.38,58.44 272.02,57.6C266.41,57.87 260.71,58.55 255.31,60.16M381.75,59.69C380.81,60.07 379.87,60.43 378.92,60.79C373.78,63.43 368.72,67.35 366.3,72.72C367.34,72.4 368.14,71.64 368.91,70.9C373.98,65.71 380.69,62.53 387.38,59.97C387.44,59.58 387.57,58.8 387.63,58.41C385.66,58.8 383.71,59.25 381.75,59.69M294.46,62.08C294.42,62.48 294.35,63.28 294.31,63.69C302.15,60.47 311.14,61.79 317.93,66.76C317.02,62.73 312.19,62.18 308.97,60.82C304.1,60.01 299.09,60.28 294.46,62.08M327.35,64.46C332.81,61.98 338.8,61.95 344.63,61.23C338.69,58.95 332.24,60.72 327.35,64.46M260.74,66.7C265.21,70.62 271.75,69.33 276.54,72.55C277.6,73.17 278.78,73.49 279.97,73.8C277.64,71.87 275.28,69.89 272.5,68.66C269.29,67.75 265.73,68.32 262.73,66.61C262.23,66.63 261.24,66.67 260.74,66.7M290.33,90.64C292.06,92.99 293.27,96 296.13,97.22C295.63,94.57 296.11,91.93 296.49,89.31C294.35,89.33 292.2,89.53 290.33,90.64M255.89,90.38C258.36,93.88 262.19,95.96 265.69,98.26C273.3,103.29 282.37,105.44 291.26,106.82C297.35,108.77 303.68,110.14 310.06,110.6C309.08,109.83 308.16,108.82 306.84,108.71C299.1,107.61 291.52,105.72 283.87,104.18C275.34,100.75 266.2,98.07 259.07,92C258.17,91.17 257.11,90.56 255.89,90.38M299.46,90.55C299.36,92.07 299.26,93.58 299.16,95.1C300.3,96.34 301.47,97.57 302.82,98.59C304.46,98.56 305.85,97.58 307.35,97.03C308.67,94.47 308.9,90.8 305.33,90.13C305.34,91.95 305.4,93.78 305.36,95.6C304.05,95.66 302.74,95.69 301.43,95.68C300.81,93.6 301.69,91.69 302.68,89.9C301.61,90.11 300.53,90.33 299.46,90.55M341.38,96.23C342.79,97.83 344.32,99.33 346.01,100.64C347.16,99.96 348.37,99.36 349.43,98.53C350.96,97.03 350.36,94.74 350.36,92.85C349.91,92.56 349.01,91.99 348.56,91.7C347.52,91.67 345.45,91.62 344.42,91.59C343.25,93.03 342.3,94.63 341.38,96.23M354.43,100.32C356.42,98.68 358.46,97.08 360.55,95.57C360.66,95.05 360.87,94.03 360.98,93.51C358.83,92.95 356.68,92.44 354.58,91.73C353.19,94.46 354.51,97.44 354.43,100.32M311.19,92.97C310.89,94.33 310.61,95.7 310.35,97.06C309.42,98.51 308.48,99.94 307.62,101.43C311.61,100.87 315.22,98.98 318.75,97.14C316.23,95.74 313.78,94.24 311.19,92.97M330.4,95.97C330.71,96.56 331.35,97.74 331.66,98.32C334.25,99.88 336.8,101.74 339.91,102.05C339.53,101.06 339.13,100.09 338.7,99.13C338.65,97.01 338.69,94.89 338.73,92.77C335.86,93.59 333.04,94.59 330.4,95.97M369.75,103.82C360.92,106.35 352.65,110.93 343.43,111.95C343.36,112.32 343.22,113.06 343.15,113.43C343.63,113.35 344.6,113.19 345.08,113.12C352.82,111.6 360.27,109 367.92,107.15C371.12,105.87 374.48,105.21 377.92,105C381.14,104.17 384.47,104.42 387.76,104.22C392.7,103.2 397.76,103.36 402.77,103.42L402.64,101.58C398.43,101.55 394.22,101.85 390.01,101.61C383.14,101.09 376.63,104.02 369.75,103.82M249.34,109.15C254.3,109.82 259.24,108.6 264.2,108.76C269.49,109.42 274.78,110.08 280.07,110.79C285.74,111.76 291.3,113.31 297.01,114.06C300.52,114.62 304.07,116.03 307.65,115.21C300.72,112.87 293.46,111.86 286.33,110.38C281.23,109.42 276.11,108.29 270.88,108.49C267.2,108.62 263.63,107.36 259.95,107.6C256.37,107.73 252.52,107.02 249.34,109.15M312.61,108.62C312.66,109.88 312.73,111.14 312.8,112.4C314.08,112.6 315.38,112.85 316.69,112.78C316.77,111.48 316.57,110.19 316.39,108.91C315.13,108.81 313.87,108.71 312.61,108.62M333.4,110.58C333.34,111.64 333.29,112.7 333.26,113.76C334.55,113.72 335.84,113.66 337.14,113.58C337.15,112.5 337.16,111.42 337.17,110.34C335.91,110.41 334.65,110.49 333.4,110.58M318.32,113.57C317.57,117.29 320.84,120.73 324.63,119.53C323.29,116.84 322.12,112.9 318.32,113.57M327.45,116.48C326.08,117.81 325.63,120.01 328.09,120.59C330.38,119.69 333.9,118.81 333.57,115.64C331.52,114.41 329.41,115.84 327.45,116.48M339.01,118.39C345.9,122.55 354.37,122.5 362.14,122.85C361.02,125.79 359.53,128.56 358.17,131.39C350.68,129.76 344.12,125.81 337.57,122.05L337.77,124.2C342.96,129.38 350.26,132.04 357.19,134.08C351.67,140.05 348.58,147.86 342.71,153.54C340.97,155.22 339.3,156.98 337.87,158.93C339.11,158.62 340.26,158.06 341.02,157C347.02,149.7 354.42,142.96 357.55,133.85C363.17,136.87 369.69,137.58 375.31,140.62C381.19,142.85 385.94,148.18 392.43,148.47C384.93,143.36 377.1,138.7 368.86,134.89C365.71,133.71 362.62,132.07 359.17,132.01C361.4,129.22 362.36,125.72 363.58,122.44C370.69,122.34 377.75,120.9 384.88,121.36C389.44,121.83 393.96,122.61 398.49,123.32C394.54,120.35 389.5,120.77 384.95,119.64C375.72,117.77 366.21,118.21 356.93,119.42C350.89,120.15 344.99,118.05 339.01,118.39M293,120.42C286.03,120.4 279.38,122.78 272.82,124.83C266.72,126.72 261.06,129.86 256.23,134.03L256.39,134.92C261.05,132.78 265.51,130.24 270.19,128.14C282.78,123.16 296.38,122.07 309.66,120.16C304.35,118.33 298.48,120.22 293,120.42M308.92,123.4C308.68,123.83 308.18,124.68 307.93,125.1C306.89,128.36 306.61,132.42 309.09,135.12C309.82,132.35 309.8,129.48 309.65,126.65C310.29,126.38 311.58,125.86 312.22,125.6C312.66,127.19 311.72,129.87 314.41,129.88C314.43,128.99 314.48,127.21 314.5,126.32C315.01,126.14 316.04,125.79 316.56,125.62C316.44,126.42 316.22,128.03 316.1,128.83C318.19,129.33 318.6,127.83 318.66,126.1C319.19,126.08 320.23,126.04 320.76,126.02C320.76,126.98 320.77,128.92 320.77,129.88C322.89,129.95 323.12,127.93 323.72,126.4C324.08,126.44 324.81,126.51 325.18,126.55C325.25,128.18 325.48,129.79 325.86,131.38C326.8,129.97 327.54,128.45 327.69,126.74C328.02,126.78 328.69,126.86 329.03,126.9C328.62,128.63 329.02,130.19 330.23,131.6C330.36,130.57 330.62,128.53 330.74,127.5C331.44,126.65 332.13,125.79 332.82,124.93C330.49,124.71 328.12,124.66 325.89,123.9C320.26,123.09 314.57,123.76 308.92,123.4M332.37,127.12C332.47,130.26 333.07,133.36 333.65,136.45C335.48,133.85 335.65,130.7 335.47,127.62C334.43,127.44 333.4,127.27 332.37,127.12M304.97,127.78C304.45,130.56 302.62,133.46 304.15,136.25C304.95,138.82 306.53,141.03 308.32,143.02C308.79,140.71 308.59,137.93 310.78,136.42C311.86,138.71 312.84,141.03 313.99,143.29C314.49,142.66 315.49,141.39 315.99,140.76C316.51,141.33 317.55,142.47 318.07,143.04C318.59,142.52 319.62,141.47 320.13,140.95C320.77,141.84 321.41,142.74 322.06,143.64C322.58,143.11 323.63,142.07 324.16,141.54C324.69,142.21 325.76,143.53 326.3,144.19C327.67,142.6 328.26,140.58 328.98,138.65C329.81,138.29 330.65,137.94 331.5,137.6C331.61,140.02 332,142.42 332.64,144.77C336.08,141.33 337.48,136.6 338.16,131.91C337.81,131.26 337.46,130.62 337.12,129.98C336.03,132.65 336.4,137.5 332.88,138.08C332.16,135.91 332.51,133.59 332.36,131.36C331.54,131.57 329.9,131.99 329.08,132.2C328.79,131.8 328.22,131 327.94,130.6C327.42,130.97 326.4,131.71 325.89,132.08C325.22,131.18 324.56,130.28 323.9,129.38C322.98,130.09 322.06,130.8 321.15,131.52C320.65,130.84 319.65,129.48 319.15,128.81C318.59,129.36 317.47,130.48 316.9,131.04C316.68,130.64 316.23,129.86 316.01,129.47C315.06,129.94 314.13,130.41 313.19,130.88C312.46,130.08 311,128.5 310.27,127.7C310.22,130.35 310.64,132.97 310.7,135.6C306.37,136.06 306.33,130.62 304.97,127.78M309.73,137.83C309.69,138.88 309.61,141 309.57,142.06C310.42,143.64 311.34,145.28 313,146.15C312.9,143.06 312.24,139.91 309.73,137.83M330.35,138.64C328.84,141.22 327.65,143.97 326.41,146.69C327.3,146.65 328.2,146.62 329.1,146.58C329.82,144 331.52,141.36 330.35,138.64M304.83,142.31C305.43,143.88 305.77,145.73 307.12,146.88C310.27,149.31 314.49,148.35 318.09,149.55C324.04,151.06 331.87,150.71 335.44,144.92C325.92,149.65 312.93,150.01 304.83,142.31M315.77,142.07C315.39,143.16 314.64,145.32 314.26,146.41C317.98,147.51 321.87,147.2 325.7,147.36C325.22,145.88 324.72,144.41 324.2,142.96C323.37,143.85 322.54,144.74 321.73,145.64C321.14,144.82 320.55,144 319.98,143.18C319.45,143.72 318.38,144.81 317.84,145.35C317.15,144.25 316.47,143.15 315.77,142.07M316.52,182.06C317.84,183.79 319.12,185.55 320.43,187.29C323.16,185.53 322.63,181.89 322.8,179.1C322.69,176.85 320.11,175.97 318.19,176.26C315.53,176.75 316.57,180.12 316.52,182.06M301.79,187.18C302.63,190.95 305.82,193.4 308.61,195.75C309.92,193.37 309.8,190.53 309.28,187.95C308.41,186.4 306.52,186.12 305.06,185.4C303.97,186 302.88,186.6 301.79,187.18M287.55,193.44C287.46,195.11 286.97,196.87 287.62,198.48C289.35,200.81 292.04,202.13 294.76,202.94C294.27,199.76 293.46,196.63 292.44,193.59C290.81,193.5 289.18,193.45 287.55,193.44M274.45,201.31C274.34,202.85 274.1,204.4 274.3,205.95C275.68,208.74 278.99,209.76 281.86,210.25C281.19,207.65 280.49,205.03 279.3,202.62C278.27,200.88 276.12,201.35 274.45,201.31M259.4,209.44C260.15,210.08 260.89,210.72 261.64,211.37C262.95,211.68 264.26,212.01 265.57,212.35C265.28,209.05 265.02,204.85 261.02,204.07C259.78,205.62 259.15,207.45 259.4,209.44M392.29,215.32C394.6,217.45 397.34,219.01 400.35,219.93C400.49,217.9 400.49,215.86 400.4,213.82C399.3,212.63 398.17,211.47 397.05,210.31C393.93,209.77 392.55,212.67 392.29,215.32M335.54,213.89C335.39,216.57 335.29,219.32 336.57,221.78C336.95,221.74 337.7,221.65 338.07,221.61C340.22,218.63 343.43,215.69 342.55,211.63C339.83,210.79 337.55,212.2 335.54,213.89M382.98,217.36C382.54,217.8 381.66,218.68 381.22,219.12C381.19,223.11 385.42,224.94 388.18,227.05C388.57,224.61 388.7,222.15 388.58,219.7C386.99,218.26 385.25,216.92 382.98,217.36M350.64,220.33C349.97,221.91 349.25,223.48 348.55,225.06C349.69,227.61 351.23,229.97 353.1,232.07C353.04,227.92 355.15,224.3 356.53,220.52C354.66,219.39 352.51,218.91 350.64,220.33M366.58,223.63C365.14,227.53 368.29,230.93 369.99,234.15C372.08,231.73 373.73,228.97 374.45,225.82C373.71,224.28 373.03,222.58 371.5,221.64C369.55,221.27 367.77,222.13 366.58,223.63Z" fill="#010101" fill-rule="nonzero" stroke="#010101" stroke-width=".09" transform="matrix(1,0,0,1,-9.14772,-12.1773) matrix(0.928059,0,0,0.885127,8.57505,11.6993)"/></g><g><path d="M344.3,93.65C345.69,93.46 347.16,92.94 348.49,93.73C348.57,94.9 348.48,96.09 348.43,97.26C347.18,97.26 345.93,97.25 344.69,97.23C344.54,96.03 344.41,94.84 344.3,93.65Z" fill="#010101" fill-rule="nonzero" stroke="#010101" stroke-width=".09" transform="matrix(1,0,0,1,-9.14772,-12.1773) matrix(0.928059,0,0,0.885127,8.57505,11.6993)"/></g></g></svg>