<?xml version="1.0" encoding="UTF-8" standalone="no"?>
<!DOCTYPE svg PUBLIC "-//W3C//DTD SVG 1.1//EN" "http://www.w3.org/Graphics/SVG/1.1/DTD/svg11.dtd">
<svg width="100%" height="100%" viewBox="0 0 395 388" version="1.1" xmlns="http://www.w3.org/2000/svg" xmlns:xlink="http://www.w3.org/1999/xlink" xml:space="preserve" xmlns:serif="http://www.serif.com/" style="fill-rule:evenodd;clip-rule:evenodd;">
    <g transform="matrix(1,0,0,1,-92.8323,0.167677)">
        <g transform="matrix(0.707804,0,0,1.00219,97,0)">
            <path d="M121.22,0L127.46,0C128.91,1.01 131.28,1.86 131.05,4.03C130.51,7.81 127.85,10.83 125.89,13.97C131.3,15.31 136.88,15.95 142.23,17.53C147.83,19.04 163.958,31.268 167.65,34.9C168.956,36.185 165.54,37.91 164.38,39.32C169.64,46.86 176.22,53.54 180.18,61.92C182.19,65.73 182.87,70.38 181.44,74.49C180.23,77.61 176.85,78.79 174.15,80.26C175.94,84.91 179,88.94 182.68,92.28C188.16,97.22 191.87,103.84 194.28,110.77C203.65,107.1 214.34,102.47 224.31,106.65C229.99,108.45 235.09,111.8 238.67,116.6C243.89,115.98 248.22,112.88 253.09,111.23C254.66,102.59 254.78,93.77 255.3,85.03C258.01,70.06 265.53,55.98 276.55,45.49C281.97,41.15 307.5,27.03 307.5,27.03C307.5,27.03 302.53,43.01 299.29,47.23C293.35,57.39 292.21,69.48 292.06,81.02C292.12,95.2 298.12,108.56 305.47,120.41C311.17,119 316.39,123.1 319.38,127.58C324.95,136.13 329.68,145.69 329.93,156.09C334.98,157.59 340.32,158.31 345.02,160.8C347.52,162 350.07,163.73 352.98,163.01C356.79,162.21 361.32,162.94 364.51,160.36C365.19,157.49 365.18,154.38 366.76,151.78C368.86,148.25 372.23,145.76 374.99,142.79C374.84,137.71 375.04,132.61 376.03,127.62C372.7,126.61 369.6,125 366.74,123.04C366.9,119.69 367.01,116.05 369.33,113.38C374.61,106.24 384.04,104.9 390.88,99.84C395.87,96.26 401.86,93.96 408.04,93.86C412.81,93.78 417.58,94.07 422.33,94.59C426.01,91.76 430.11,88.73 435,88.91C441.65,88.47 447.09,92.9 451.88,96.89C456.41,93.89 461.35,90.96 466.96,90.94C473.87,90.4 482.06,93.83 483.87,101.1C486.29,107.61 483.6,114.35 482.18,120.74C486.32,123.81 491.04,125.96 495.41,128.67C502.29,132.94 508.86,137.71 515.11,142.86C526.29,152.97 540.32,159.43 551,170.16L551,175.53C548.97,179.75 545.71,183.99 540.88,184.99C536.33,185.12 532.18,182.85 528.31,180.74C522.36,177.23 516.48,173.54 509.99,171.09C498.81,166.03 485.78,165.23 474.11,169.07C466.99,171.44 459.93,174.38 453.95,179C449.5,182.56 447.66,188.2 443.78,192.26C442.25,191.75 440.84,190.64 439.21,190.51C437.88,191.56 437.63,193.42 437.13,194.94C436.28,198.68 434.31,202.04 432.13,205.14C429.8,208.52 425.84,210.05 422.64,212.41C422.87,212.03 423.32,211.27 423.54,210.89C421.91,212.71 420.3,214.54 418.66,216.35C418.57,217.34 418.49,218.33 418.41,219.32C422.48,224.98 423.48,232.26 422.04,238.99C421.12,245.56 418.13,251.51 415.69,257.59C413.79,261.74 416.85,265.77 417.01,269.93C417.81,276.15 414.9,282.25 410.76,286.73C404.82,292.51 397.28,296.2 390.05,300.1C384.47,303.32 378.06,304.98 372.88,308.9C359.78,319.46 344.7,327.96 328.38,332.27C317.67,341.83 303.81,349.34 289.02,348.01C284.19,347.21 280.72,351.08 276.52,352.6C268.21,355.71 259.3,356.55 250.81,359.03C236.05,363.52 220.41,366.52 204.99,364.19C196.07,363.81 187.52,361.14 178.9,359.13C174.59,359.79 170.82,362.3 166.81,363.91C159.53,367.39 151.66,369.3 144.15,372.17C136.78,374.96 130.42,379.72 123.64,383.63C116.3,387.87 106.26,386.7 100.29,380.63C98.81,379.09 98.3,376.49 99.63,374.7C101.77,371.47 105.32,369.63 108.44,367.48C119.51,360.56 130.41,352.42 137.19,341.02C132.2,337.84 127.04,334.84 122.71,330.76C108.18,332.11 92.99,329.46 80.65,321.38C73.23,316.35 65.48,311.15 60.76,303.3C53.14,307.2 43.77,307.93 35.95,304.2C28.95,300.53 24.53,293.12 23.65,285.36C23.08,278.86 17.72,274.58 14.83,269.13C11.64,263.36 9.03,256.75 10.19,250.05C12.01,240.33 18.86,232.52 21.11,222.93C22.65,217.55 21.59,211.9 22.46,206.43C23.68,196.72 30.51,188.97 37.13,182.29C35.37,172.25 34.53,161.15 39.81,151.97C42.1,148.03 43.16,142.12 48.54,141.45C54.35,148.85 55.63,158.9 62.15,165.86C64.72,168.64 69.22,166.97 71.38,164.49C74.2,160.27 74.97,155.07 77.46,150.67C84.74,136.79 98.14,125.26 113.99,123.08C116.84,122.41 120.29,122.67 122.61,120.67C126.28,106.7 118.24,90.37 104.44,85.59C95.82,82.56 86.72,84.74 78.01,86.07C60.03,88.87 43.37,96.75 25.63,100.55C22.69,101.09 19.7,101.12 16.74,101.39C11.25,102.14 -5.651,99.667 -5.651,98.022C-5.651,96.377 0,90.04 0,90.04C5.59,86.14 11.81,83.25 17.39,79.34C27.1,73.13 35.67,65.32 45.55,59.37C44.49,53.13 43.64,45.48 48.87,40.78C53.65,37.26 59.72,36.19 65.35,34.68C66.25,33.42 67.17,32.16 68.09,30.9C68.09,30.9 81.48,19.81 89.51,14.41C98.92,7.44 109.87,2.78 121.22,0M96.26,16.09C85.8,22.27 76.23,30.12 68.65,39.65C75.7,50.1 63.16,64.57 51.73,61.62C43.44,68.13 35.03,74.53 25.96,79.93C18.18,85.03 9.61,88.83 2.07,94.31C3.04,95.92 3.67,98.36 5.98,98.36C11.03,98.8 15.97,97.11 20.91,96.29C37.6,91.9 54.04,86.61 70.67,81.99C79.87,79.49 89.36,77.44 98.96,78.14C107.28,78.44 115.67,82.35 120.37,89.39C126.54,98.72 129.17,110.33 127.66,121.42C132.89,121.1 137.78,119.07 141.95,115.97C155.3,106.59 172.86,105.72 188.28,109.55C186.78,104.67 183.8,100.4 179.96,97.08C172.97,90.71 165.59,83.49 163.72,73.84C165.49,69.18 170.64,73.43 173.98,73.29C177.12,73.18 176.78,69.34 176.1,67.2C172.96,56.6 165.35,47.78 156.11,41.9C154.09,40.19 150.57,38.99 150.53,35.93C152.66,33.4 156.55,34.9 159.4,34.23C148.77,25.76 135.61,20.25 121.97,19.58C119.99,19.68 118.28,18.84 117.13,17.25C119.76,13.87 122.56,10.61 124.88,7C114.62,6.81 104.99,11.12 96.26,16.09M57.51,41.57C52.99,43.39 50.21,48.25 50.28,53.03C50.15,55.5 51.58,58.42 54.25,58.79C58.35,59.16 62.11,56.55 64.6,53.51C67.12,50.43 69.07,45.6 66.14,42.13C64.05,39.4 60.21,40.51 57.51,41.57M288.59,41.41C274.63,52.18 263.5,67.4 260.19,84.95C259.16,93.64 260.22,102.49 258.22,111.09C264.77,111.39 271.44,112.65 277.26,115.8C283.81,119.4 286.88,127.1 293.76,130.24C301.22,133.8 309.06,136.94 315.39,142.43C318.7,145.14 321.26,148.59 323.84,151.96C323.55,144.42 318.91,138.13 314.35,132.51C312.42,130.27 310.71,127.7 308.16,126.12C306.91,126.73 305.76,127.54 304.58,128.28C299.81,125.64 297.49,120.49 295.14,115.85C290.94,106.9 287.31,97.59 285.49,87.85C283.35,77.35 284.4,66.25 288.23,56.27C290.23,50.62 294.47,46.26 297.49,41.18C294.54,41.21 291.45,40.61 288.59,41.41M430.5,94.45C422.25,97.4 420.56,108.76 425.87,115.11C429.84,120.72 438.33,122.04 443.76,117.76C447.78,115.32 449.01,110.46 449.31,106.07C447.59,98.14 438.72,90.89 430.5,94.45M457.63,100.6C454.2,105.49 455.34,112.44 459.02,116.86C461.66,119.87 465.64,121.28 469.52,121.8C471.98,120.22 475.17,119.46 476.78,116.83C479.36,112.92 480.35,107.72 478.66,103.28C475.26,95.42 462.85,93.74 457.63,100.6M393.11,101.89C398.48,103.64 404.32,105.05 408.39,109.26C401.42,108.47 394.37,104.63 387.38,107.26C381.45,109.36 375.27,112.37 371.68,117.75C371.2,118.74 370.19,121 371.95,121.3C379.03,122.61 386.32,118.73 393.2,121.26C389.53,123.75 385.04,124.84 381.65,127.75C378.02,133.3 380.53,140.39 378.39,146.39C376.83,150.06 372.87,151.64 370.32,154.46C369.3,157.85 370.07,162.32 366.71,164.54C362.67,168.42 356.72,167.25 351.67,167.47C352.94,169.21 354.21,170.97 355.43,172.76C354.35,173.63 353.28,174.5 352.21,175.38C346.36,170.19 340.09,165.1 332.55,162.63C326.95,160.92 320.85,159.27 315.12,161.38C317.81,164.63 321.58,166.57 324.87,169.1C327.07,170.6 326.45,173.56 326.82,175.81C323.14,173.32 320.26,169.76 316.25,167.74C311.58,165.34 306.21,164.05 300.97,164.82C291.83,166.04 283.42,170.55 276.37,176.34C263.27,187.13 256.23,203.95 254.92,220.61C268.88,220.1 281.72,226.36 295.32,228.13C300.4,222.78 307.79,220.6 314.93,219.91C323.56,219.22 332.48,219.99 340.47,223.52C347.66,226.42 353.55,231.87 361.03,234.11C368.93,236.62 377.47,235.67 385.26,233.27C398.8,229.08 409.98,219.28 417.66,207.57C418.3,207.45 419.58,207.22 420.22,207.1C422.28,202.43 417.25,197.46 420.12,192.99C423.65,195.66 421.97,201.24 425.03,204.44C431.86,199.52 432.25,190.09 436.14,183.19C436.93,181.33 439.13,181.8 440.75,181.66C441.57,183.19 442.4,184.71 443.25,186.24C444.16,181.79 445.51,177.16 449.15,174.14C460.39,164.15 475.95,159.46 490.86,160.57C507.3,162.1 523.39,168.4 536.2,178.87C537.24,179.73 538.48,180.45 539.9,180.11C543.41,179.9 545.2,176.47 546.98,173.93C543.15,168.6 537.07,165.8 531.96,161.95C525.12,157.25 518.86,151.79 512.53,146.45C504.44,140 495.42,134.88 486.76,129.25C482.86,126.66 478.57,124.75 474.19,123.13C468.37,126.23 461.2,123.63 456.89,119.15C453.97,116.15 452.9,111.99 452.21,107.98C451.5,111.57 450.89,115.47 448.12,118.12C442.69,124.42 432.35,125.41 426.01,119.9C419.92,114.98 418.12,106.18 420.81,98.98C411.52,96.77 401.92,98.65 393.11,101.89M138.87,124.37C140.17,124.92 141.46,125.49 142.75,126.08C142.17,127.19 141.28,127.74 140.06,127.72C128.97,127.42 117.54,126.49 106.76,129.7C98.93,131.84 92.72,137.54 87.46,143.47C81.59,150.12 79.42,158.94 75.46,166.69C83.88,164.9 92.59,162.38 101.21,164.35C107.21,165.75 113.25,167.94 118.05,171.92C123.3,176.51 124.03,183.96 124.62,190.47C128.3,186.18 132.3,181.99 137.34,179.31C141.13,177.15 145.42,176.15 149.35,174.32C154.02,172.14 156.05,167.08 159.44,163.51C161.1,161.55 163.54,158.86 161.87,156.18C159.07,151.98 154.6,149.21 150.41,146.56C145.91,143.71 140.63,142.72 135.73,140.83C135.69,140.33 135.61,139.35 135.56,138.86C142.22,138.3 148.46,141.71 154.02,144.98C158.79,148.22 164.14,151.67 165.85,157.53C173.83,150.99 185.19,149.28 194.69,153.39C198.46,148.56 202.91,143.83 203.82,137.5C197.69,136.27 191.41,136.83 185.22,136.24C190.05,132.06 197.15,133.82 202.89,134.57C198.87,128.62 192.89,123.71 191.21,116.44C185.12,111.99 177.25,111.59 169.98,111.63C158.4,112.19 148.95,119.55 138.87,124.37M194.2,117.22C196.23,120.93 198.77,124.32 201.55,127.5C204.28,130.72 207.1,134.57 206.58,139.04C205.8,145.18 201.74,150.36 197.21,154.34C199.45,154.77 201.7,155.2 203.95,155.64C207.27,150.48 210.15,145.03 212.39,139.32C213.69,136.47 214.73,132.86 217.97,131.66C219.72,131.52 220.96,133.03 222.34,133.86C225.2,128.55 229.92,124.5 235.29,121.88C232.73,119.71 230.42,117.23 227.71,115.24C223.79,112.37 218.68,112.01 213.99,112.35C207.2,112.94 200.39,114.29 194.2,117.22M245.06,121C236.91,125.27 229.55,131.15 224.06,138.59C226.29,142.69 227.79,147.12 228.68,151.69C236.46,148.39 244.14,143.57 252.91,144.08C255.56,144.18 259.14,144.52 260.11,147.5C260.92,148.85 260.82,151.27 262.9,151.25C272.82,153.37 283.91,154.08 291.69,161.41C297.51,159.14 303.84,158.42 310.05,159.02C312.49,157.35 315.13,155.99 317.9,154.92C315.45,150.06 312.67,144.99 307.88,142.08C302.13,137.75 294.81,137.03 287.99,135.64C283.2,136.2 278.67,138.11 273.87,138.66C277.03,134.96 282.04,134.07 286.49,132.84C283.58,128.14 280.51,123.08 275.37,120.54C265.95,115.61 254.55,116.98 245.06,121M218.04,137.85C217.1,140.33 216.21,142.83 215.22,145.29C210.5,157.45 201.07,167 191.4,175.4C187.22,179.26 181.8,181.17 177.05,184.1C175.89,186.62 175.77,189.52 174.88,192.16C173.8,189.28 173.46,186.19 172.5,183.28C171.72,181.74 169.93,183.57 169.02,184.1C163.58,188.55 159.59,194.67 157.14,201.23C153.58,211.48 151.65,222.21 150.59,232.98C150.03,238.85 151.17,244.7 152.38,250.43C153.07,254.14 155.76,256.93 157.73,260.01C152.23,258.59 148.51,253.79 143.07,252.17C142.57,268.26 150.5,282.98 159.88,295.49C164.41,295.8 168.08,298.39 170.72,301.94C173.66,297.81 177.94,294.56 183,293.63C186.65,292.66 190.21,294.71 192.95,296.95C198.17,301.01 197.95,309.92 192.94,314.07C186.8,319.66 176.33,318.22 170.97,312.17C167.63,317.02 161.98,319.6 156.14,319.46C150.26,334.53 139.89,347.28 128.44,358.49C121.34,365.77 112.67,371.12 104.67,377.29C108.81,379.63 113.65,381.72 118.48,380.54C121.65,379.21 124.31,376.95 127.19,375.13C140.11,366.7 154.98,362.16 168.96,355.89C184.81,348.64 199.86,338.33 210.04,323.96C215.76,317.69 219.53,309.94 222.94,302.25C225.98,294.71 229.06,286.84 228.46,278.55C224.98,279.09 221.65,280.24 218.48,281.73C216.28,282.57 213.69,284.17 211.51,282.26C213.79,280.65 216.64,279.67 218.62,277.7C219.18,274.2 219.01,270.56 220.12,267.15C221.91,261.47 225.04,256.32 228.54,251.54C232.97,245.3 239.3,240.62 243.08,233.88C237.53,229.37 230.49,228.14 223.65,226.97C226.46,225.03 229.9,225.1 233.17,225.22C237.58,218.04 244.41,213.02 251.57,208.85C254.54,190.25 268.01,174.91 283.69,165.37C283.64,164.99 283.55,164.21 283.5,163.83C280.81,163.29 278.05,162.85 275.6,161.54C270.42,158.8 264.94,156.51 259.15,155.49C256.36,154.96 253.72,156.29 251.06,156.89C253.01,154.58 255.09,152.39 257.26,150.29C247.85,149.82 238.42,151.97 229.95,156C227.21,156.98 228.02,160.35 227.3,162.58C226.97,165.94 224.92,168.68 222.37,170.74C225.88,159.86 226.06,146.86 218.04,137.85M46.41,147.82C40.82,157.76 39.78,169.54 41.71,180.63C46.52,176.58 51.91,173.29 57.62,170.69C51.12,164.69 48.47,156.13 46.41,147.82M164.91,165.85C160.09,169.54 156.98,174.9 152.29,178.73C155.89,179.82 159.41,181.15 162.82,182.74C165.45,180.22 168.16,177.19 172.01,176.77C173.56,176.84 175.02,177.41 176.51,177.81C185.4,173.43 193.07,166.87 200.12,159.97C195.16,157.39 189.7,155.17 184.02,155.4C176.65,156.53 170.56,161.31 164.91,165.85M62.29,172.46C50.45,176.55 40.07,184.82 33.36,195.4C28.13,203.62 27.43,213.6 25.88,222.96C23.91,232.82 15.87,240.64 15.71,250.98C15.26,260.37 20.46,268.72 26.02,275.84C26.17,267.57 26.98,259.33 28.27,251.17C28.6,248.84 29.32,246.52 31.1,244.88C31.8,253.28 29.6,261.57 29.36,269.96C29.21,277.63 28.53,285.79 32.03,292.9C34.36,297.89 39.36,301.68 44.95,301.89C50.54,302.53 56,300.53 60.74,297.72C60.28,291.51 59.87,285.23 60.83,279.04C62.13,270.41 66.38,262.64 70.59,255.12C69.32,250.54 67.56,246.1 66.71,241.42C69.49,244.47 71.01,248.36 72.35,252.2C78.55,244.09 84.82,235.74 93.41,229.99C90.99,224.56 89.71,218.6 86.57,213.52C82.86,209.68 76.87,210.51 72.01,210.19C66.28,209.76 60.7,211.71 55.01,211.5C55.05,211.16 55.13,210.48 55.17,210.14C59.61,206.75 65.74,207.43 71.03,206.96C77.04,207.16 84.24,206.57 88.87,211.17C92.44,216.55 93.7,223.07 96.38,228.91C98.03,227.69 99.31,226.08 100.25,224.27C106.33,213.81 114.9,205.07 121.19,194.77C121.74,189.56 120.91,184.1 119.15,179.15C117.87,175.43 114.5,173.16 111.26,171.27C104.49,175.26 98.24,180.08 91.42,183.99C96.7,178.74 102.7,174.28 108.91,170.2C103.23,167.94 97.13,166.26 90.96,167.06C81.3,168.27 71.86,170.77 62.29,172.46M141.43,182.43C131.39,187.01 125.76,196.98 119.55,205.53C113.3,213.5 107.04,221.51 102.06,230.36C105.8,231.78 109.03,234.52 113.03,235.2C116.37,234.87 119.3,232.96 122.62,232.45C120.91,236.11 117.08,238.56 113.01,238.35C108.5,238.29 105.28,234.45 100.98,233.74C96.58,234 93.03,237.05 89.9,239.88C82.86,246.73 76.98,254.76 72.42,263.45C67.26,273.63 62.93,284.98 64.46,296.58C67.76,304.83 73.85,311.94 81.46,316.55C91.73,323.79 104.55,327.05 117.04,326.39C127.14,325.26 136.37,320.73 145.8,317.26C141.46,308.94 145.67,298.55 153.57,294.14C145.88,287.12 142.77,276.72 140.09,266.99C136.39,271.29 133.41,276.4 128.56,279.55C122.22,283.66 114.53,285.63 107,285.14C100.53,285.48 96.24,275.91 101.4,271.81C102.08,275.4 101.27,281.11 106.03,282.05C113.51,282.92 121.32,280.75 127.48,276.45C132.2,272.78 135.22,267.48 139.33,263.22C138.69,257.99 136.39,249.97 142.79,247.44C144.18,248.05 145.57,248.65 146.95,249.26C144.99,235.28 147.32,221.14 150.84,207.59C147.69,205.68 144.28,204.28 140.91,202.83C141.43,201.95 142.13,201.25 143,200.74C146.17,201.41 148.99,203.07 151.83,204.55C153.89,197.74 156.74,191.15 160.81,185.29C154.84,182.61 147.9,180.15 141.43,182.43M238.71,226.42C242.37,227.9 247.11,229.25 248.54,233.38C249.12,237.02 245.17,238.83 243.13,241.15C234.51,250.41 226.57,261.16 223.97,273.78C227.18,273.97 230.97,272.94 233.64,275.25C236.21,277.76 235.37,281.63 235.39,284.84C244.95,284.86 254.5,284.43 264.04,283.86C270.9,283.6 277.89,284.1 284.43,286.3C294.96,283.3 299.37,272.27 307.5,266.1C305.88,271.39 302.15,275.62 298.76,279.86C295.92,283.4 292.15,286.03 288.1,288C290.27,290.19 292.33,292.67 293.05,295.76C294.73,302.87 294.2,310.26 293.73,317.49C296.42,316.98 299.12,316.55 301.85,316.35C299.56,318.4 296.63,319.43 293.68,320.08C292,327.85 290.13,335.72 285.97,342.6C296.49,341.95 307.69,340.75 316.55,334.51C323.45,329.93 327.98,322.71 331.41,315.34C332.67,312.82 333.45,309.91 335.71,308.06C336.12,315.46 331.74,321.8 328.1,327.84C338.97,322.24 349.4,315.81 360.4,310.45C363.89,308.6 367.65,307.2 370.9,304.92C375.43,300.06 375.37,293.02 376.24,286.85C379.12,291.64 377.95,297.8 375.26,302.42C380.93,299.46 386.9,297.03 392.08,293.2C399.2,288.12 406.95,282.83 410.85,274.71C412.82,270.83 410.99,266.6 409.3,263.01C405.13,266.58 399.86,269.23 394.23,268.8C398.44,264.99 404.57,264.2 408.46,259.9C409.99,250.52 417.04,242.75 416.86,232.99C417.04,228.74 414.74,224.99 412.18,221.8C407.37,226.24 402.2,230.36 396.39,233.42C390.27,236.76 383.46,238.45 376.86,240.56C377.67,245.22 378.6,250.24 376.56,254.73C375.61,250.24 375.44,245.64 374.62,241.13C370.05,241.71 365.36,242.14 360.81,241.15C350.57,239.02 342.52,231.77 332.89,228.09C322.4,223.2 310.06,224.39 299.53,228.51C308.85,230.21 318.71,227.88 327.73,231.36C337.79,235.12 345.16,246.21 343.19,257.03C342.57,260.72 341.74,264.81 338.49,267.14C337.78,261.63 341.08,256.46 340.14,250.93C338.98,243.82 333.95,237.39 327.26,234.65C321.84,232.28 315.79,232.57 310,232.45C303.23,232.43 296.44,231.91 289.8,230.58C284.75,234.71 281.05,240.23 275.86,244.2C278.17,238.45 282.59,234.03 287.09,229.94C276.53,227.4 266.05,223.34 254.99,224.18C252.41,224.63 250.15,223.38 248.03,222.12C248.84,221.9 250.45,221.46 251.25,221.24C250.89,219.12 250.62,216.98 250.4,214.84C246.15,218.33 242.18,222.14 238.71,226.42M234.63,287.48C231.09,301.14 223.88,313.46 215.91,324.97C222.81,326.3 230.01,327.21 236.93,325.52C239.26,325.08 241.63,324.07 244.02,324.76C242.72,328 238.86,328.42 235.9,329.03C228.54,330.05 220.95,329.53 213.82,327.44C205.73,336.98 197.19,346.63 185.92,352.48C200.36,355.92 215.16,358.56 230.06,357.62C246.29,357.2 261.45,350.89 277,347.03C280.25,346.26 281.74,342.92 283.41,340.37C287.91,332.36 290.63,323.24 290.69,314.02C290.77,307.61 291.52,300.89 289.28,294.75C286.73,289.08 279.79,288.09 274.33,287.35C261.1,286.46 247.86,288.36 234.63,287.48M181.33,297.22C177.45,298.77 173.66,301.73 172.73,306C172.09,309.91 175.84,312.95 179.28,313.83C184.27,315.48 190.66,313.89 193,308.84C196.43,302.16 187.8,293.93 181.33,297.22M154.49,299.54C150.66,301.09 148.3,305.11 148.13,309.14C148.1,310.71 147.81,312.7 149.34,313.7C152.85,316.65 158.01,316.7 162.19,315.31C166.03,314.04 169.53,310.19 168.48,305.9C167.17,299.88 159.91,296.72 154.49,299.54M128.38,328.92C132.32,332.65 137.26,334.95 142.17,337.1C145.3,332.45 147.82,327.41 149.62,322.1C148.84,321.4 148.07,320.69 147.29,320C141.15,323.31 133.58,324.02 128.38,328.92Z" style="fill:rgb(67,60,58);fill-rule:nonzero;stroke:rgb(67,60,58);stroke-width:0.09px;"/>
        </g>
        <g transform="matrix(0.707804,0,0,1.00219,97,0)">
            <path d="M86.47,33.75C96.79,30.35 106.04,41.28 105.18,51.04C105,57.23 100.13,62.5 94.26,64.01C85.85,66.43 75.29,62.57 71.91,54.14C69.81,49.23 71.82,43.18 76.34,40.38C79.73,38.21 82.5,34.89 86.47,33.75M88.56,36.65C83.85,38.47 79.11,40.89 75.71,44.7C72.12,49.28 74.93,55.84 79.47,58.6C85.47,62.89 94.86,62.67 99.73,56.76C105.78,49.13 98.65,34.65 88.56,36.65Z" style="fill:rgb(67,60,58);fill-rule:nonzero;stroke:rgb(67,60,58);stroke-width:0.09px;"/>
        </g>
        <g transform="matrix(0.707804,0,0,1.00219,97,0)">
            <path d="M92.17,43.18C96.15,41.43 97.25,49.8 93.02,50.39C88.25,51.65 88.67,44.36 92.17,43.18Z" style="fill:rgb(67,60,58);fill-rule:nonzero;stroke:rgb(67,60,58);stroke-width:0.09px;"/>
        </g>
        <g transform="matrix(0.707804,0,0,1.00219,97,0)">
            <path d="M53.16,47.78C54.75,47.42 56.75,48.62 56.3,50.41C55.61,51.77 54.13,53.42 52.46,52.53C51.09,51.22 51.65,48.77 53.16,47.78Z" style="fill:rgb(67,60,58);fill-rule:nonzero;stroke:rgb(67,60,58);stroke-width:0.09px;"/>
        </g>
        <g transform="matrix(0.707804,0,0,1.00219,97,0)">
            <path d="M138.75,62.98C140.18,62.28 141.59,62.27 143,62.96C147.26,64.74 151.15,67.4 154.48,70.58C155.96,71.76 156.1,74.34 154.27,75.27C150.34,76.61 146.05,76.19 142.01,75.63C140.5,75.21 137.86,75.37 138.15,73.12C142.73,72.48 147.38,72.92 151.99,72.73C149.18,70.19 146.07,67.98 142.64,66.35C141.15,65.48 139.08,64.96 138.75,62.98Z" style="fill:rgb(67,60,58);fill-rule:nonzero;stroke:rgb(67,60,58);stroke-width:0.09px;"/>
        </g>
        <g transform="matrix(0.707804,0,0,1.00219,97,0)">
            <path d="M440.51,104.4C441.93,103.07 444.71,104.22 444.75,106.18C445.23,108.55 442.45,111.49 440.12,110.13C438.01,108.8 438.66,105.63 440.51,104.4Z" style="fill:rgb(67,60,58);fill-rule:nonzero;stroke:rgb(67,60,58);stroke-width:0.09px;"/>
        </g>
        <g transform="matrix(0.707804,0,0,1.00219,97,0)">
            <path d="M461.43,104.41C464.57,103.64 467.33,108.3 464.64,110.52C462.77,112.97 459.11,110.7 459.56,107.97C459.67,106.71 459.97,104.76 461.43,104.41Z" style="fill:rgb(67,60,58);fill-rule:nonzero;stroke:rgb(67,60,58);stroke-width:0.09px;"/>
        </g>
        <g transform="matrix(0.707804,0,0,1.00219,97,0)">
            <path d="M395.11,158.99C397.07,154.66 399.61,150.45 403.32,147.4C403.47,152.72 398.92,156.58 397.08,161.31C400.9,160.56 404.71,159.74 408.47,158.74C409.81,156.92 410.72,154.35 413.16,153.78C413.02,158.51 409.52,162.3 408.95,166.96C407.81,171.26 408.62,176.12 406.12,179.98C404.29,173.62 405.18,166.84 407.53,160.75C403.96,162.42 400.2,164.63 396.1,163.97C394.23,163.01 394.26,160.62 395.11,158.99Z" style="fill:rgb(67,60,58);fill-rule:nonzero;stroke:rgb(67,60,58);stroke-width:0.09px;"/>
        </g>
        <g transform="matrix(0.707804,0,0,1.00219,97,0)">
            <path d="M187.57,193.48C191.41,187.5 196.15,181.34 202.98,178.7C206.74,180.01 205.17,184.44 204.56,187.3C202.85,192.99 201.71,199.16 198.02,203.98C197.84,196.51 201.44,189.69 202.08,182.33C196.27,186.47 191.63,192.08 188.33,198.38C185.87,202.68 185.04,207.63 183.03,212.13C180.46,205.56 184.21,198.96 187.57,193.48Z" style="fill:rgb(67,60,58);fill-rule:nonzero;stroke:rgb(67,60,58);stroke-width:0.09px;"/>
        </g>
        <g transform="matrix(0.707804,0,0,1.00219,97,0)">
            <path d="M222.39,190.61C226.48,189.35 232.6,187.83 234.67,192.92C230.86,192.77 226.94,192.32 223.24,193.52C218.12,194.84 214.07,198.42 209.38,200.67C210.98,194.86 217.24,192.41 222.39,190.61Z" style="fill:rgb(67,60,58);fill-rule:nonzero;stroke:rgb(67,60,58);stroke-width:0.09px;"/>
        </g>
        <g transform="matrix(0.707804,0,0,1.00219,97,0)">
            <path d="M363.28,197.28C366.94,196.33 371.24,194.18 374.65,196.94C366.48,200.05 357.87,201.8 349.77,205.13C355.02,206.79 361.32,206.21 365.65,210.06C359.67,210.4 353.65,209.6 347.91,207.96C346.4,207.6 345.65,206.07 344.62,205.09C349.89,200.6 356.92,199.46 363.28,197.28Z" style="fill:rgb(67,60,58);fill-rule:nonzero;stroke:rgb(67,60,58);stroke-width:0.09px;"/>
        </g>
        <g transform="matrix(0.707804,0,0,1.00219,97,0)">
            <path d="M180.73,308.01C179.72,304.68 183.17,302.36 186.1,302.26C186.37,304.11 187.62,306.46 185.9,308C184.61,309.55 181.81,310.06 180.73,308.01Z" style="fill:rgb(67,60,58);fill-rule:nonzero;stroke:rgb(67,60,58);stroke-width:0.09px;"/>
        </g>
        <g transform="matrix(0.707804,0,0,1.00219,97,0)">
            <path d="M156.72,311.14C155.97,308.78 157.81,306.96 158.91,305.11C160.08,305.94 161.74,306.44 162.27,307.95C163.08,310.99 158.87,313.9 156.72,311.14Z" style="fill:rgb(67,60,58);fill-rule:nonzero;stroke:rgb(67,60,58);stroke-width:0.09px;"/>
        </g>
        <g transform="matrix(0.707804,0,0,1.00219,97,0)">
            <path d="M96.26,16.09C104.99,11.12 114.62,6.81 124.88,7C122.56,10.61 119.76,13.87 117.13,17.25C118.28,18.84 119.99,19.68 121.97,19.58C135.61,20.25 148.77,25.76 159.4,34.23C156.55,34.9 152.66,33.4 150.53,35.93C150.57,38.99 154.09,40.19 156.11,41.9C165.35,47.78 172.96,56.6 176.1,67.2C176.78,69.34 177.12,73.18 173.98,73.29C170.64,73.43 165.49,69.18 163.72,73.84C165.59,83.49 172.97,90.71 179.96,97.08C183.8,100.4 186.78,104.67 188.28,109.55C172.86,105.72 155.3,106.59 141.95,115.97C137.78,119.07 132.89,121.1 127.66,121.42C129.17,110.33 126.54,98.72 120.37,89.39C115.67,82.35 107.28,78.44 98.96,78.14C89.36,77.44 79.87,79.49 70.67,81.99C54.04,86.61 37.6,91.9 20.91,96.29C15.97,97.11 11.03,98.8 5.98,98.36C4.536,98.36 -0,97.08 -0,97.08C-0.661,96.848 1.406,94.463 2.07,94.31C9.61,88.83 18.18,85.03 25.96,79.93C35.03,74.53 43.44,68.13 51.73,61.62C63.16,64.57 75.7,50.1 68.65,39.65C76.23,30.12 85.8,22.27 96.26,16.09M86.47,33.75C82.5,34.89 79.73,38.21 76.34,40.38C71.82,43.18 69.81,49.23 71.91,54.14C75.29,62.57 85.85,66.43 94.26,64.01C100.13,62.5 105,57.23 105.18,51.04C106.04,41.28 96.79,30.35 86.47,33.75M138.75,62.98C139.08,64.96 141.15,65.48 142.64,66.35C146.07,67.98 149.18,70.19 151.99,72.73C147.38,72.92 142.73,72.48 138.15,73.12C137.86,75.37 140.5,75.21 142.01,75.63C146.05,76.19 150.34,76.61 154.27,75.27C156.1,74.34 155.96,71.76 154.48,70.58C151.15,67.4 147.26,64.74 143,62.96C141.59,62.27 140.18,62.28 138.75,62.98Z" style="fill:rgb(255,231,83);fill-rule:nonzero;stroke:rgb(255,231,83);stroke-width:0.09px;"/>
        </g>
        <g transform="matrix(0.707804,0,0,1.00219,97,0)">
            <path d="M46.41,147.82C48.47,156.13 51.12,164.69 57.62,170.69C51.91,173.29 46.52,176.58 41.71,180.63C39.78,169.54 40.82,157.76 46.41,147.82Z" style="fill:rgb(255,231,83);fill-rule:nonzero;stroke:rgb(255,231,83);stroke-width:0.09px;"/>
        </g>
        <g transform="matrix(0.707804,0,0,1.00219,97,0)">
            <path d="M88.56,36.65C98.65,34.65 105.78,49.13 99.73,56.76C94.86,62.67 85.47,62.89 79.47,58.6C74.93,55.84 72.12,49.28 75.71,44.7C79.11,40.89 83.85,38.47 88.56,36.65M92.17,43.18C88.67,44.36 88.25,51.65 93.02,50.39C97.25,49.8 96.15,41.43 92.17,43.18Z" style="fill:rgb(255,255,254);fill-rule:nonzero;stroke:rgb(255,255,254);stroke-width:0.09px;"/>
        </g>
        <g transform="matrix(0.707804,0,0,1.00219,97,0)">
            <path d="M57.51,41.57C60.21,40.51 64.05,39.4 66.14,42.13C69.07,45.6 67.12,50.43 64.6,53.51C62.11,56.55 58.35,59.16 54.25,58.79C51.58,58.42 50.15,55.5 50.28,53.03C50.21,48.25 52.99,43.39 57.51,41.57M53.16,47.78C51.65,48.77 51.09,51.22 52.46,52.53C54.13,53.42 55.61,51.77 56.3,50.41C56.75,48.62 54.75,47.42 53.16,47.78Z" style="fill:rgb(255,255,254);fill-rule:nonzero;stroke:rgb(255,255,254);stroke-width:0.09px;"/>
        </g>
        <g transform="matrix(0.707804,0,0,1.00219,97,0)">
            <path d="M430.5,94.45C438.72,90.89 447.59,98.14 449.31,106.07C449.01,110.46 447.78,115.32 443.76,117.76C438.33,122.04 429.84,120.72 425.87,115.11C420.56,108.76 422.25,97.4 430.5,94.45M440.51,104.4C438.66,105.63 438.01,108.8 440.12,110.13C442.45,111.49 445.23,108.55 444.75,106.18C444.71,104.22 441.93,103.07 440.51,104.4Z" style="fill:rgb(255,255,254);fill-rule:nonzero;stroke:rgb(255,255,254);stroke-width:0.09px;"/>
        </g>
        <g transform="matrix(0.707804,0,0,1.00219,97,0)">
            <path d="M457.63,100.6C462.85,93.74 475.26,95.42 478.66,103.28C480.35,107.72 479.36,112.92 476.78,116.83C475.17,119.46 471.98,120.22 469.52,121.8C465.64,121.28 461.66,119.87 459.02,116.86C455.34,112.44 454.2,105.49 457.63,100.6M461.43,104.41C459.97,104.76 459.67,106.71 459.56,107.97C459.11,110.7 462.77,112.97 464.64,110.52C467.33,108.3 464.57,103.64 461.43,104.41Z" style="fill:rgb(255,255,254);fill-rule:nonzero;stroke:rgb(255,255,254);stroke-width:0.09px;"/>
        </g>
        <g transform="matrix(0.707804,0,0,1.00219,97,0)">
            <path d="M181.33,297.22C187.8,293.93 196.43,302.16 193,308.84C190.66,313.89 184.27,315.48 179.28,313.83C175.84,312.95 172.09,309.91 172.73,306C173.66,301.73 177.45,298.77 181.33,297.22M180.73,308.01C181.81,310.06 184.61,309.55 185.9,308C187.62,306.46 186.37,304.11 186.1,302.26C183.17,302.36 179.72,304.68 180.73,308.01Z" style="fill:rgb(255,255,254);fill-rule:nonzero;stroke:rgb(255,255,254);stroke-width:0.09px;"/>
        </g>
        <g transform="matrix(0.707804,0,0,1.00219,97,0)">
            <path d="M154.49,299.54C159.91,296.72 167.17,299.88 168.48,305.9C169.53,310.19 166.03,314.04 162.19,315.31C158.01,316.7 152.85,316.65 149.34,313.7C147.81,312.7 148.1,310.71 148.13,309.14C148.3,305.11 150.66,301.09 154.49,299.54M156.72,311.14C158.87,313.9 163.08,310.99 162.27,307.95C161.74,306.44 160.08,305.94 158.91,305.11C157.81,306.96 155.97,308.78 156.72,311.14Z" style="fill:rgb(255,255,254);fill-rule:nonzero;stroke:rgb(255,255,254);stroke-width:0.09px;"/>
        </g>
        <g transform="matrix(0.707804,0,0,1.00219,97,0)">
            <path d="M288.59,41.41C289.663,41.11 300.931,34.923 300.931,34.923C300.931,34.923 291.888,51.47 288.23,56.27C284.4,66.25 283.35,77.35 285.49,87.85C287.31,97.59 290.94,106.9 295.14,115.85C297.49,120.49 299.81,125.64 304.58,128.28C305.76,127.54 306.91,126.73 308.16,126.12C310.71,127.7 312.42,130.27 314.35,132.51C318.91,138.13 323.55,144.42 323.84,151.96C321.26,148.59 318.7,145.14 315.39,142.43C309.06,136.94 301.22,133.8 293.76,130.24C286.88,127.1 283.81,119.4 277.26,115.8C271.44,112.65 264.77,111.39 258.22,111.09C260.22,102.49 259.16,93.64 260.19,84.95C263.5,67.4 274.63,52.18 288.59,41.41Z" style="fill:rgb(146,111,204);fill-rule:nonzero;stroke:rgb(146,111,204);stroke-width:0.09px;"/>
        </g>
        <g transform="matrix(0.707804,0,0,1.00219,97,0)">
            <path d="M218.04,137.85C226.06,146.86 225.88,159.86 222.37,170.74C224.92,168.68 226.97,165.94 227.3,162.58C228.02,160.35 227.21,156.98 229.95,156C238.42,151.97 247.85,149.82 257.26,150.29C255.09,152.39 253.01,154.58 251.06,156.89C253.72,156.29 256.36,154.96 259.15,155.49C264.94,156.51 270.42,158.8 275.6,161.54C278.05,162.85 280.81,163.29 283.5,163.83C283.55,164.21 283.64,164.99 283.69,165.37C268.01,174.91 254.54,190.25 251.57,208.85C244.41,213.02 237.58,218.04 233.17,225.22C229.9,225.1 226.46,225.03 223.65,226.97C230.49,228.14 237.53,229.37 243.08,233.88C239.3,240.62 232.97,245.3 228.54,251.54C225.04,256.32 221.91,261.47 220.12,267.15C219.01,270.56 219.18,274.2 218.62,277.7C216.64,279.67 213.79,280.65 211.51,282.26C213.69,284.17 216.28,282.57 218.48,281.73C221.65,280.24 224.98,279.09 228.46,278.55C229.06,286.84 225.98,294.71 222.94,302.25C219.53,309.94 215.76,317.69 210.04,323.96C199.86,338.33 184.81,348.64 168.96,355.89C154.98,362.16 140.11,366.7 127.19,375.13C124.31,376.95 121.65,379.21 118.48,380.54C113.65,381.72 108.81,379.63 104.67,377.29C112.67,371.12 121.34,365.77 128.44,358.49C139.89,347.28 150.26,334.53 156.14,319.46C161.98,319.6 167.63,317.02 170.97,312.17C176.33,318.22 186.8,319.66 192.94,314.07C197.95,309.92 198.17,301.01 192.95,296.95C190.21,294.71 186.65,292.66 183,293.63C177.94,294.56 173.66,297.81 170.72,301.94C168.08,298.39 164.41,295.8 159.88,295.49C150.5,282.98 142.57,268.26 143.07,252.17C148.51,253.79 152.23,258.59 157.73,260.01C155.76,256.93 153.07,254.14 152.38,250.43C151.17,244.7 150.03,238.85 150.59,232.98C151.65,222.21 153.58,211.48 157.14,201.23C159.59,194.67 163.58,188.55 169.02,184.1C169.93,183.57 171.72,181.74 172.5,183.28C173.46,186.19 173.8,189.28 174.88,192.16C175.77,189.52 175.89,186.62 177.05,184.1C181.8,181.17 187.22,179.26 191.4,175.4C201.07,167 210.5,157.45 215.22,145.29C216.21,142.83 217.1,140.33 218.04,137.85M187.57,193.48C184.21,198.96 180.46,205.56 183.03,212.13C185.04,207.63 185.87,202.68 188.33,198.38C191.63,192.08 196.27,186.47 202.08,182.33C201.44,189.69 197.84,196.51 198.02,203.98C201.71,199.16 202.85,192.99 204.56,187.3C205.17,184.44 206.74,180.01 202.98,178.7C196.15,181.34 191.41,187.5 187.57,193.48M222.39,190.61C217.24,192.41 210.98,194.86 209.38,200.67C214.07,198.42 218.12,194.84 223.24,193.52C226.94,192.32 230.86,192.77 234.67,192.92C232.6,187.83 226.48,189.35 222.39,190.61Z" style="fill:rgb(146,111,204);fill-rule:nonzero;stroke:rgb(146,111,204);stroke-width:0.09px;"/>
        </g>
        <g transform="matrix(0.707804,0,0,1.00219,97,0)">
            <path d="M393.11,101.89C401.92,98.65 411.52,96.77 420.81,98.98C418.12,106.18 419.92,114.98 426.01,119.9C432.35,125.41 442.69,124.42 448.12,118.12C450.89,115.47 451.5,111.57 452.21,107.98C452.9,111.99 453.97,116.15 456.89,119.15C461.2,123.63 468.37,126.23 474.19,123.13C478.57,124.75 482.86,126.66 486.76,129.25C495.42,134.88 504.44,140 512.53,146.45C518.86,151.79 525.12,157.25 531.96,161.95C537.07,165.8 543.15,168.6 546.98,173.93C545.2,176.47 543.41,179.9 539.9,180.11C538.48,180.45 537.24,179.73 536.2,178.87C523.39,168.4 507.3,162.1 490.86,160.57C475.95,159.46 460.39,164.15 449.15,174.14C445.51,177.16 444.16,181.79 443.25,186.24C442.4,184.71 441.57,183.19 440.75,181.66C439.13,181.8 436.93,181.33 436.14,183.19C432.25,190.09 431.86,199.52 425.03,204.44C421.97,201.24 423.65,195.66 420.12,192.99C417.25,197.46 422.28,202.43 420.22,207.1C419.58,207.22 418.3,207.45 417.66,207.57C409.98,219.28 398.8,229.08 385.26,233.27C377.47,235.67 368.93,236.62 361.03,234.11C353.55,231.87 347.66,226.42 340.47,223.52C332.48,219.99 323.56,219.22 314.93,219.91C307.79,220.6 300.4,222.78 295.32,228.13C281.72,226.36 268.88,220.1 254.92,220.61C256.23,203.95 263.27,187.13 276.37,176.34C283.42,170.55 291.83,166.04 300.97,164.82C306.21,164.05 311.58,165.34 316.25,167.74C320.26,169.76 323.14,173.32 326.82,175.81C326.45,173.56 327.07,170.6 324.87,169.1C321.58,166.57 317.81,164.63 315.12,161.38C320.85,159.27 326.95,160.92 332.55,162.63C340.09,165.1 346.36,170.19 352.21,175.38C353.28,174.5 354.35,173.63 355.43,172.76C354.21,170.97 352.94,169.21 351.67,167.47C356.72,167.25 362.67,168.42 366.71,164.54C370.07,162.32 369.3,157.85 370.32,154.46C372.87,151.64 376.83,150.06 378.39,146.39C380.53,140.39 378.02,133.3 381.65,127.75C385.04,124.84 389.53,123.75 393.2,121.26C386.32,118.73 379.03,122.61 371.95,121.3C370.19,121 371.2,118.74 371.68,117.75C375.27,112.37 381.45,109.36 387.38,107.26C394.37,104.63 401.42,108.47 408.39,109.26C404.32,105.05 398.48,103.64 393.11,101.89M395.11,158.99C394.26,160.62 394.23,163.01 396.1,163.97C400.2,164.63 403.96,162.42 407.53,160.75C405.18,166.84 404.29,173.62 406.12,179.98C408.62,176.12 407.81,171.26 408.95,166.96C409.52,162.3 413.02,158.51 413.16,153.78C410.72,154.35 409.81,156.92 408.47,158.74C404.71,159.74 400.9,160.56 397.08,161.31C398.92,156.58 403.47,152.72 403.32,147.4C399.61,150.45 397.07,154.66 395.11,158.99M363.28,197.28C356.92,199.46 349.89,200.6 344.62,205.09C345.65,206.07 346.4,207.6 347.91,207.96C353.65,209.6 359.67,210.4 365.65,210.06C361.32,206.21 355.02,206.79 349.77,205.13C357.87,201.8 366.48,200.05 374.65,196.94C371.24,194.18 366.94,196.33 363.28,197.28Z" style="fill:rgb(157,222,115);fill-rule:nonzero;stroke:rgb(157,222,115);stroke-width:0.09px;"/>
        </g>
        <g transform="matrix(0.707804,0,0,1.00219,97,0)">
            <path d="M138.87,124.37C148.95,119.55 158.4,112.19 169.98,111.63C177.25,111.59 185.12,111.99 191.21,116.44C192.89,123.71 198.87,128.62 202.89,134.57C197.15,133.82 190.05,132.06 185.22,136.24C191.41,136.83 197.69,136.27 203.82,137.5C202.91,143.83 198.46,148.56 194.69,153.39C185.19,149.28 173.83,150.99 165.85,157.53C164.14,151.67 158.79,148.22 154.02,144.98C148.46,141.71 142.22,138.3 135.56,138.86C135.61,139.35 135.69,140.33 135.73,140.83C140.63,142.72 145.91,143.71 150.41,146.56C154.6,149.21 159.07,151.98 161.87,156.18C163.54,158.86 161.1,161.55 159.44,163.51C156.05,167.08 154.02,172.14 149.35,174.32C145.42,176.15 141.13,177.15 137.34,179.31C132.3,181.99 128.3,186.18 124.62,190.47C124.03,183.96 123.3,176.51 118.05,171.92C113.25,167.94 107.21,165.75 101.21,164.35C92.59,162.38 83.88,164.9 75.46,166.69C79.42,158.94 81.59,150.12 87.46,143.47C92.72,137.54 98.93,131.84 106.76,129.7C117.54,126.49 128.97,127.42 140.06,127.72C141.28,127.74 142.17,127.19 142.75,126.08C141.46,125.49 140.17,124.92 138.87,124.37Z" style="fill:rgb(255,194,185);fill-rule:nonzero;stroke:rgb(255,194,185);stroke-width:0.09px;"/>
        </g>
        <g transform="matrix(0.707804,0,0,1.00219,97,0)">
            <path d="M194.2,117.22C200.39,114.29 207.2,112.94 213.99,112.35C218.68,112.01 223.79,112.37 227.71,115.24C230.42,117.23 232.73,119.71 235.29,121.88C229.92,124.5 225.2,128.55 222.34,133.86C220.96,133.03 219.72,131.52 217.97,131.66C214.73,132.86 213.69,136.47 212.39,139.32C210.15,145.03 207.27,150.48 203.95,155.64C201.7,155.2 199.45,154.77 197.21,154.34C201.74,150.36 205.8,145.18 206.58,139.04C207.1,134.57 204.28,130.72 201.55,127.5C198.77,124.32 196.23,120.93 194.2,117.22Z" style="fill:rgb(255,194,185);fill-rule:nonzero;stroke:rgb(255,194,185);stroke-width:0.09px;"/>
        </g>
        <g transform="matrix(0.707804,0,0,1.00219,97,0)">
            <path d="M245.06,121C254.55,116.98 265.95,115.61 275.37,120.54C280.51,123.08 283.58,128.14 286.49,132.84C282.04,134.07 277.03,134.96 273.87,138.66C278.67,138.11 283.2,136.2 287.99,135.64C294.81,137.03 302.13,137.75 307.88,142.08C312.67,144.99 315.45,150.06 317.9,154.92C315.13,155.99 312.49,157.35 310.05,159.02C303.84,158.42 297.51,159.14 291.69,161.41C283.91,154.08 272.82,153.37 262.9,151.25C260.82,151.27 260.92,148.85 260.11,147.5C259.14,144.52 255.56,144.18 252.91,144.08C244.14,143.57 236.46,148.39 228.68,151.69C227.79,147.12 226.29,142.69 224.06,138.59C229.55,131.15 236.91,125.27 245.06,121Z" style="fill:rgb(255,194,185);fill-rule:nonzero;stroke:rgb(255,194,185);stroke-width:0.09px;"/>
        </g>
        <g transform="matrix(0.707804,0,0,1.00219,97,0)">
            <path d="M164.91,165.85C170.56,161.31 176.65,156.53 184.02,155.4C189.7,155.17 195.16,157.39 200.12,159.97C193.07,166.87 185.4,173.43 176.51,177.81C175.02,177.41 173.56,176.84 172.01,176.77C168.16,177.19 165.45,180.22 162.82,182.74C159.41,181.15 155.89,179.82 152.29,178.73C156.98,174.9 160.09,169.54 164.91,165.85Z" style="fill:rgb(255,194,185);fill-rule:nonzero;stroke:rgb(255,194,185);stroke-width:0.09px;"/>
        </g>
        <g transform="matrix(0.707804,0,0,1.00219,97,0)">
            <path d="M62.29,172.46C71.86,170.77 81.3,168.27 90.96,167.06C97.13,166.26 103.23,167.94 108.91,170.2C102.7,174.28 96.7,178.74 91.42,183.99C98.24,180.08 104.49,175.26 111.26,171.27C114.5,173.16 117.87,175.43 119.15,179.15C120.91,184.1 121.74,189.56 121.19,194.77C114.9,205.07 106.33,213.81 100.25,224.27C99.31,226.08 98.03,227.69 96.38,228.91C93.7,223.07 92.44,216.55 88.87,211.17C84.24,206.57 77.04,207.16 71.03,206.96C65.74,207.43 59.61,206.75 55.17,210.14C55.13,210.48 55.05,211.16 55.01,211.5C60.7,211.71 66.28,209.76 72.01,210.19C76.87,210.51 82.86,209.68 86.57,213.52C89.71,218.6 90.99,224.56 93.41,229.99C84.82,235.74 78.55,244.09 72.35,252.2C71.01,248.36 69.49,244.47 66.71,241.42C67.56,246.1 69.32,250.54 70.59,255.12C66.38,262.64 62.13,270.41 60.83,279.04C59.87,285.23 60.28,291.51 60.74,297.72C56,300.53 50.54,302.53 44.95,301.89C39.36,301.68 34.36,297.89 32.03,292.9C28.53,285.79 29.21,277.63 29.36,269.96C29.6,261.57 31.8,253.28 31.1,244.88C29.32,246.52 28.6,248.84 28.27,251.17C26.98,259.33 26.17,267.57 26.02,275.84C20.46,268.72 15.26,260.37 15.71,250.98C15.87,240.64 23.91,232.82 25.88,222.96C27.43,213.6 28.13,203.62 33.36,195.4C40.07,184.82 50.45,176.55 62.29,172.46Z" style="fill:rgb(255,194,185);fill-rule:nonzero;stroke:rgb(255,194,185);stroke-width:0.09px;"/>
        </g>
        <g transform="matrix(0.707804,0,0,1.00219,97,0)">
            <path d="M141.43,182.43C147.9,180.15 154.84,182.61 160.81,185.29C156.74,191.15 153.89,197.74 151.83,204.55C148.99,203.07 146.17,201.41 143,200.74C142.13,201.25 141.43,201.95 140.91,202.83C144.28,204.28 147.69,205.68 150.84,207.59C147.32,221.14 144.99,235.28 146.95,249.26C145.57,248.65 144.18,248.05 142.79,247.44C136.39,249.97 138.69,257.99 139.33,263.22C135.22,267.48 132.2,272.78 127.48,276.45C121.32,280.75 113.51,282.92 106.03,282.05C101.27,281.11 102.08,275.4 101.4,271.81C96.24,275.91 100.53,285.48 107,285.14C114.53,285.63 122.22,283.66 128.56,279.55C133.41,276.4 136.39,271.29 140.09,266.99C142.77,276.72 145.88,287.12 153.57,294.14C145.67,298.55 141.46,308.94 145.8,317.26C136.37,320.73 127.14,325.26 117.04,326.39C104.55,327.05 91.73,323.79 81.46,316.55C73.85,311.94 67.76,304.83 64.46,296.58C62.93,284.98 67.26,273.63 72.42,263.45C76.98,254.76 82.86,246.73 89.9,239.88C93.03,237.05 96.58,234 100.98,233.74C105.28,234.45 108.5,238.29 113.01,238.35C117.08,238.56 120.91,236.11 122.62,232.45C119.3,232.96 116.37,234.87 113.03,235.2C109.03,234.52 105.8,231.78 102.06,230.36C107.04,221.51 113.3,213.5 119.55,205.53C125.76,196.98 131.39,187.01 141.43,182.43Z" style="fill:rgb(255,194,185);fill-rule:nonzero;stroke:rgb(255,194,185);stroke-width:0.09px;"/>
        </g>
        <g transform="matrix(0.707804,0,0,1.00219,97,0)">
            <path d="M238.71,226.42C242.18,222.14 246.15,218.33 250.4,214.84C250.62,216.98 250.89,219.12 251.25,221.24C250.45,221.46 248.84,221.9 248.03,222.12C250.15,223.38 252.41,224.63 254.99,224.18C266.05,223.34 276.53,227.4 287.09,229.94C282.59,234.03 278.17,238.45 275.86,244.2C281.05,240.23 284.75,234.71 289.8,230.58C296.44,231.91 303.23,232.43 310,232.45C315.79,232.57 321.84,232.28 327.26,234.65C333.95,237.39 338.98,243.82 340.14,250.93C341.08,256.46 337.78,261.63 338.49,267.14C341.74,264.81 342.57,260.72 343.19,257.03C345.16,246.21 337.79,235.12 327.73,231.36C318.71,227.88 308.85,230.21 299.53,228.51C310.06,224.39 322.4,223.2 332.89,228.09C342.52,231.77 350.57,239.02 360.81,241.15C365.36,242.14 370.05,241.71 374.62,241.13C375.44,245.64 375.61,250.24 376.56,254.73C378.6,250.24 377.67,245.22 376.86,240.56C383.46,238.45 390.27,236.76 396.39,233.42C402.2,230.36 407.37,226.24 412.18,221.8C414.74,224.99 417.04,228.74 416.86,232.99C417.04,242.75 409.99,250.52 408.46,259.9C404.57,264.2 398.44,264.99 394.23,268.8C399.86,269.23 405.13,266.58 409.3,263.01C410.99,266.6 412.82,270.83 410.85,274.71C406.95,282.83 399.2,288.12 392.08,293.2C386.9,297.03 380.93,299.46 375.26,302.42C377.95,297.8 379.12,291.64 376.24,286.85C375.37,293.02 375.43,300.06 370.9,304.92C367.65,307.2 363.89,308.6 360.4,310.45C349.4,315.81 338.97,322.24 328.1,327.84C331.74,321.8 336.12,315.46 335.71,308.06C333.45,309.91 332.67,312.82 331.41,315.34C327.98,322.71 323.45,329.93 316.55,334.51C307.69,340.75 296.49,341.95 285.97,342.6C290.13,335.72 292,327.85 293.68,320.08C296.63,319.43 299.56,318.4 301.85,316.35C299.12,316.55 296.42,316.98 293.73,317.49C294.2,310.26 294.73,302.87 293.05,295.76C292.33,292.67 290.27,290.19 288.1,288C292.15,286.03 295.92,283.4 298.76,279.86C302.15,275.62 305.88,271.39 307.5,266.1C299.37,272.27 294.96,283.3 284.43,286.3C277.89,284.1 270.9,283.6 264.04,283.86C254.5,284.43 244.95,284.86 235.39,284.84C235.37,281.63 236.21,277.76 233.64,275.25C230.97,272.94 227.18,273.97 223.97,273.78C226.57,261.16 234.51,250.41 243.13,241.15C245.17,238.83 249.12,237.02 248.54,233.38C247.11,229.25 242.37,227.9 238.71,226.42Z" style="fill:rgb(255,194,185);fill-rule:nonzero;stroke:rgb(255,194,185);stroke-width:0.09px;"/>
        </g>
        <g transform="matrix(0.707804,0,0,1.00219,97,0)">
            <path d="M234.63,287.48C247.86,288.36 261.1,286.46 274.33,287.35C279.79,288.09 286.73,289.08 289.28,294.75C291.52,300.89 290.77,307.61 290.69,314.02C290.63,323.24 287.91,332.36 283.41,340.37C281.74,342.92 280.25,346.26 277,347.03C261.45,350.89 246.29,357.2 230.06,357.62C215.16,358.56 200.36,355.92 185.92,352.48C197.19,346.63 205.73,336.98 213.82,327.44C220.95,329.53 228.54,330.05 235.9,329.03C238.86,328.42 242.72,328 244.02,324.76C241.63,324.07 239.26,325.08 236.93,325.52C230.01,327.21 222.81,326.3 215.91,324.97C223.88,313.46 231.09,301.14 234.63,287.48Z" style="fill:rgb(255,194,185);fill-rule:nonzero;stroke:rgb(255,194,185);stroke-width:0.09px;"/>
        </g>
        <g transform="matrix(0.707804,0,0,1.00219,97,0)">
            <path d="M128.38,328.92C133.58,324.02 141.15,323.31 147.29,320C148.07,320.69 148.84,321.4 149.62,322.1C147.82,327.41 145.3,332.45 142.17,337.1C137.26,334.95 132.32,332.65 128.38,328.92Z" style="fill:rgb(255,194,185);fill-rule:nonzero;stroke:rgb(255,194,185);stroke-width:0.09px;"/>
        </g>
    </g>
</svg>
