<svg xmlns="http://www.w3.org/2000/svg" width="1128" height="1054pt" viewBox="0 0 846 1054"><g fill="#912835"><path d="m31.66 12.63c4.42-1.2 8.88.9 13.37.25 4.3.51 8.71.17 12.93 1.18 2.39-.78 5-.87 7.45-.34 5.22 1.69 10.79 2.52 15.62 5.25 3.48 2.49 7.43 4.52 10.04 8.02 6.94 8.99 10.33 20.12 12.99 31 1.43 5.28.61 10.84 1.73 16.17.82 5.41 1.7 11.44-1.04 16.45-2.79 8.35-7.6 16.67-15.23 21.4-3.55 1.02-6.95 2.46-10.32 3.98-3.43.22-6.84-.16-10.23-.65-3.11 1.16-6.39 1.4-9.67 1.6-.53.09-1.6.26-2.13.35.37 5.92.16 11.88 1.14 17.75.71 4.3.32 8.65.01 12.96-3.3 3.43-8 4.11-12.54 3.95-5.36.1-11.7.0-15.75-4.01.57-5.09-.56-10.08-.83-15.13.08-1.34-.07-2.71-.81-3.86-3.2-4.41-2.36-9.87-2.32-14.97-2.44-5.97-.74-12.61-1.31-18.92-3.08-9.58-1.3-19.81-3.1-29.61-.65-3.05.49-6.31-.8-9.24-1.42-3.58-.29-7.49-.77-11.21-1.38-7.64.28-15.47-.82-23.14-.37-2.01.19-4.02.39-6.02 3.22-3.36 7.97-1.94 12-3.21M55.09 47c-.35 6.03.45 12.03 1.04 17.99 1.68 3.78.56 7.97 1.03 11.95.67 1.63 2.08 3.08 1.85 4.97.28 1.38-.51 3.35.97 4.23 3.65.38 7.35.28 11.01.06 3.96-1.6 6.4-5.47 8.21-9.13-.03-2.79-.09-5.58.08-8.36-.33-.44-1-1.33-1.33-1.77 1.26-6.89-3.11-13.07-8.21-17.2-4.2-2.94-9.72-3-14.65-2.74z"/><path d="m136.92 18.21c8.46-2.48 17.42-2.59 26.12-1.44 6.36.55 13.12-1.22 19.12 1.66 3.71 1.61 8.14 2.47 10.94 5.53 1.8 3.14 4.66 5.41 6.85 8.24 3.16 6.07 3.51 13.1 3.59 19.81.0 3.27.7 6.55 2.37 9.38 1.64 3.26 1.37 7.08 2.09 10.6-.49 7.01-.64 14.08-1.96 21.01-.05 10.38-.06 20.77-.01 31.15-.48.25-1.44.77-1.92 1.02-.22 2.91.64 6.2-1.22 8.73-2.2 3.03-2.81 7.01-5.62 9.63-3.07 3.12-5.35 7.36-9.73 8.86-4.19 2.31-8.78 3.58-13.5 4.23-9.4-.05-18.91.68-28.13-1.42-2.38-.92-4.31-2.76-6.82-3.41-6.87-3.39-12.43-8.99-16.51-15.45.45-2.36-.84-4.33-1.74-6.38-.24-1.87-.03-3.9-1.41-5.4-.48-2.62-.86-5.27-.85-7.94-2.62-2.37.02-6.3-2.29-8.77-1.68-1.89-.72-4.54-1.24-6.79-1.24-4.14 1.9-8.65-.76-12.48-1.01-4.17.44-8.69-.83-12.89 1.28-7.2.22-14.57.71-21.83.73-3.63 1.54-7.29 1.01-11.02.69-.61 1.39-1.21 2.09-1.82.03-1.34.07-2.69.11-4.03 2.2-3.87 5.28-7.11 7.94-10.64 2.82-3.92 6.57-7.57 11.6-8.14m9.45 30.58c.56 2.61-1.08 4.6-2.13 6.77-3.33 8.77-.13 18.27-1.01 27.34-.71 6.04-.74 12.16-.11 18.21.06 1.27.44 2.43 1.15 3.49v1c.36.38 1.06 1.14 1.41 1.52-.37 3.44 2.06 6.2 2.13 9.55 1.4 1.15 2.67 2.55 4.35 3.3 4.81 1.7 8.27 7.05 13.9 6.24 2.56-2.28 5.27-4.38 7.73-6.77-.03-.71-.08-2.14-.11-2.85 1.83-2.31 1.37-5.6 3.33-7.83-.24-5.94 1.19-12.24-1.17-17.86-1.4-8.58-.72-17.31-.74-25.96-3.06-3.25-.21-8.07-2.08-11.78-.72-6.68-7.51-11.49-14.02-11.66-5.26-.76-9.93 3.13-12.63 7.29z"/><path d="m218.83 16.73c3.73-.19 7.42 1.34 11.11.26 4.1-.23 8.09 1.31 12.15 1.8 1.82.29 3.83.7 5.17 2.06.26 2.81.03 5.64.02 8.47.36.42 1.09 1.28 1.45 1.71-.27 6.72.56 13.41 1.35 20.06-2.57 6.34-.37 13.34-2.04 19.92.84 4.59 1.49 9.52-.6 13.89-.61 8.38.09 16.75-.09 25.15.14 6.16-.53 12.42 1.04 18.46 8.97 2.52 18.47-.1 27.57 1.66 2.32.49 4.68.85 7.07.79 3.31-.07 6.19 2.05 8.39 4.34-.17 5.73-.05 11.47-.07 17.21-1.73 1.71-3.59 3.84-6.31 3.54-6.36-.11-12.72-.03-19.07.01-3.77.2-7.29-1.63-11.06-1.39-2.56-.18-4.65 1.63-7.08 2.02-4.31-.12-8.48-1.65-12.83-1.38-4.29.11-9.08-.91-11.42-4.9.28-1.93.25-3.94-1.78-4.88-.48-5.44.23-10.96-.26-16.41-.33-3.1-2.09-5.93-1.9-9.09.04-4.73.03-9.46.05-14.2-1.98-.37-1.35-2.38-1.45-3.82.36-15.22-.12-30.52.39-45.7-1.17-5.32.87-10.96-1.03-16.17-1.89-5.53-1.14-11.42-1.3-17.15-.12-2.36 1.2-4.42 2.53-6.26z"/><path d="m299.26 24.24c3.69-1.75 7.82-1.46 11.74-2.21 3.63-.71 6.9 1.83 10.53 1.31.55.19 1.65.55 2.2.73 1.1 1.45 2.9 2.85 2.69 4.88-1.45 14.97-.43 30.04-1.16 45.03.19 6.66.37 13.32-.25 19.96-1.69 13.95-.74 28.04-.82 42.05.02 4.68 1.24 9.27 1.12 13.95-.84 3.31-4.66 3.7-7.48 4.05-2.46.36-3.29-2.37-3.77-4.2-.66-.07-1.96-.19-2.62-.25.03 1.44.39 2.63 2.78 1.17-.08.88-.24 2.66-.32 3.54-4.42.28-9.46 1.77-13.47-.65-1.13-1.65-1.21-3.66-1.5-5.57-.29-1.79-.68-3.55-.9-5.34-.11-2.13.35-4.33-.19-6.41-1.73-2.7.4-5.42.68-8.19-.34-1.34-.95-2.6-1.48-3.87.39-7.59-.55-15.26.39-22.81-.81-3.42-.26-6.93-.34-10.4.07-21.09-.14-42.18.01-63.27.41-1.33 1.37-2.38 2.16-3.5z"/><path d="m363.69 31.87c7.09-4.63 15.93-7.1 24.35-5.21 4.06 1.01 8.78-.08 12.23 2.82.08.07.25.2.34.27 3.18 2.35 5.97 5.31 9.62 6.97 1.58.71 3.07 1.57 4.5 2.55-.3 3.13 1.39 6.41-.18 9.36-2.65 5.01-5.67 9.8-8.96 14.38-2.07.02-3.68-1.23-5.3-2.32-5.5-2.17-11.56-2.01-17.38-1.73-3.85.98-5.44 5.25-8.58 7.41-.22 1.29-1.11 2.17-2.17 2.85-.04.66-.12 1.98-.16 2.64-.41.38-1.23 1.12-1.64 1.49 1.13 1.88-.31 3.78-1.44 5.19-.05 1.17-.09 2.34-.1 3.51-.67.67-1.34 1.35-2 2.02 1.26 4.63-2.26 8.39-1.98 12.93.01 3.18.06 6.52 1.43 9.47 1.25 2.27.33 4.91.55 7.36-.02 3.8 3.01 6.84 6.3 8.27 2.84.89 5.42 2.37 7.91 4 3.53 2.41 7.94 1.32 11.92 1.57 4.02.53 7.66-2.35 11.68-1.13 1.19 1.19 2.19 2.56 3.29 3.84.09.54.27 1.63.36 2.18 1.92 3.42 4.01 6.73 6.33 9.9.03.7.1 2.11.13 2.82.51.93 1.05 1.85 1.6 2.77-1.39 2.64-4.32 3.51-6.42 5.42-3.37 2.56-7.9 1.74-11.5 3.74-5.1 1.04-10.33.45-15.43 1.52-6.23 1.13-12.76-.63-17.72-4.55-3.79-3.39-9.33-4.23-12.46-8.48-2.77-3.82-7.89-6.59-8.03-11.76-1.99-2.27-3.46-4.93-4.98-7.52-.02-.56-.06-1.69-.08-2.26-2.58-2.32-1.31-6.06-3.03-8.77-.51-2 .2-4.21-.84-6.11-2.46-5.44-.92-11.53-1.37-17.28-.46-3.52 2.75-6.45 1.56-9.98.75-2.78.36-5.67.33-8.5.38-.33 1.14-1 1.51-1.33-.09-1.88-.11-3.75-.22-5.63.69-.74 1.39-1.47 2.1-2.2.03-.61.07-1.84.1-2.45 3.63-4.71 6.8-9.87 8.81-15.5 4.75-5.08 9.5-10.23 15.02-14.54z"/><path d="m426.44 27.52c10.58-.46 21.23-.52 31.72 1.2 5.17 1.1 10.5-.19 15.67.96 8.17 1.03 17.25-1.63 24.68 2.95-.01 1.81-.02 3.61.05 5.41 2.05 2.45 1.52 5.99 1.95 8.98.33 1.61-.97 2.75-1.74 3.97-.13 2.54-2.34 4.39-4.82 4.45-9.99.17-19.98-.09-29.92-1.16-3.84-.46-7.65.47-11.46.74-.15 8.16.11 16.31-.11 24.46 2.27 1.47 5.05.93 7.6 1.03 6.06-.17 12.27-.04 18.1 1.85 2.25.66 4.8.93 6.44 2.82.01 2.14.96 4.01 1.95 5.84.29 1.96.16 3.96.23 5.94 2.51 1.91 1.83 5.27 1.92 8.02-1.26 3.44-5.59 3.83-8.73 3.82-5.3-.23-10.65.32-15.89-.65-3.87-.6-7.66.79-11.52.61.0 6.17-.08 12.35.02 18.53.66 2.92 4.1 2.25 6.34 2.31 7.02-.29 14.12.59 21.07-.62 2.87.33 5.74.64 8.63.7 2.6 1.19 4.45 3.51 6.58 5.35-.06 6.24.55 12.64-.34 18.77-4.71 3.21-10.48 2.52-15.7 4.1-6.74.31-13.52.36-20.19-.73-9.54-1.81-19.26 1.72-28.76-.56-3.14-.7-6.63-2.99-6.38-6.61.09-2.71-1.19-5.44-.13-8.07-1.62-5.94 1.34-12.01-.36-17.98.52-5.63.63-11.33.46-17 .03-2.2-2.22-3.71-2.03-5.94-.1-3.12-.32-6.37 1.15-9.24 1.35-8.54.72-17.2.9-25.81-.02-11.36.03-22.71-.01-34.07 1.02-1.37 1.83-2.87 2.63-4.37z"/><path d="m566.71 32.69c1.06-.28 2.13-.55 3.2-.81 5.92 1.41 12.32.77 18.05 3.16.95.37 1.55 1.08 1.8 2.12.21.48.64 1.44.85 1.92.72.66 1.43 1.34 2.13 2.03.38 2.32 1.45 4.4 3.11 6.07 1.1 3.28 3.2 6.18 3.93 9.6 1.18 1.28 2.6 2.51 2.94 4.32.61 3.58 3.94 5.62 5.32 8.81 1.95 4.26 4.5 8.29 5.64 12.88 2.04 5.35 5.4 10.32 9.42 14.4.9-9.1.44-18.25.62-27.37.6-3.82 1.41-7.71.69-11.58-.82-3.81.61-7.57 1.43-11.25.21-3.39-.01-6.8-.01-10.19 6.65-3.83 14.82-2.89 22.2-2.76 2.7.18 2.53 3.33 4.66 4.34.0 2.93.4 5.97-.6 8.79-1 2.23.75 4.4.61 6.67-.62 2.13-1.53 4.16-2.25 6.26.25.28.76.82 1.01 1.1-1.62 2.41.26 5.21-.04 7.86-.27 4.67.67 9.51-1 13.99.07 4.67-1.94 9.4-.15 13.95-1.79 4.81-.05 10.08-1.17 15.02-1.52 6.6-.91 13.51-2.75 20-.69 6.02-1.71 12.26-.23 18.23-1.01 2.94-.61 6.06-.58 9.1-1.73 1.29-3.56 2.43-5.45 3.45-.76-.22-2.28-.65-3.04-.87-6.32 1.2-13.81.2-18.33-4.82-.03-.53-.07-1.58-.09-2.11l-.99-.63c-1.11-3.53-2.92-6.88-5.14-9.83-1.93-4.37-3.86-8.79-6.6-12.73-2.17-3.22-2.91-7.2-5.27-10.3-2.28-3.8-3.93-7.9-5.92-11.85-1.86-1.38-1.53-3.87-2.62-5.71-.79-1.29-1.02-2.79-1.33-4.23-.44-1.44-1.25-2.68-2.02-3.94-1.34 7.68-1.62 15.51-1.79 23.3-.16 4.36 1.58 8.53 1.24 12.9-.52 7.92 1.27 15.84-.19 23.72-.11 2.41-1.42 5.08-4.19 4.99-4.84 1.78-9.98 1.23-15.02 1.17-1.61-.56-3.26-1.01-4.77-1.78-1.92-3.67-1.82-8.03-1.83-12.07-.86-3.63-.46-7.39-1.18-11.03 1.78-4.83 1.05-9.95 1.09-14.98-.16-2.17 2.1-3.76 1.51-6-1.09-7.05 2.1-14.11.17-21.11 1.28-10.24.01-20.65.42-30.96-.13-3.64 1.43-7.29.13-10.86 1.2-2.66.04-5.39-.19-8.09.01-4.26-.89-9.04 2.57-12.29z"/><path d="m677.06 39.13c4.92-1.57 9.7-4.17 15.01-4.04 7.67.26 15.34-.09 23.01.12 3.99 1.12 9.05 1.58 11.46 5.39 2.3 1.96 4.38 4.22 5.36 7.14 2.66 2.53 2.59 6.37 4.54 9.31.43 7.63 1.43 15.39.79 23.13-1.47-4.14-.3-8.76-.69-13.1-.31 10.31.32 20.62.19 30.94-.05 2.75-.59 5.53-2.02 7.92-.05 3.88.43 7.8-.05 11.66-.29.35-.89 1.03-1.19 1.38-.14 3.34.75 7.26-1.88 9.91.57 3.54-2.25 6.2-2.22 9.65-1.81 2.66-2.56 5.81-3.72 8.77-.04.09-.11.27-.15.36-1 1.95-2.02 3.88-3.04 5.82-2.39 1.39-2.55 4.62-4.96 5.95-3.61 2.88-8.25 3.45-12.5 4.85-11.16 1.03-22.91 4.47-33.69-.29-4.61-2.94-9.12-6.48-12.06-11.14-.23-.48-.68-1.43-.91-1.9-.42-.3-1.26-.89-1.68-1.19-.1-3.07.43-6.22-.18-9.24-3.93-7.38.21-16.14-2.83-23.77-1.15-4.28.86-8.6.01-12.87-.56-3.17-.35-6.4.08-9.57-1.02-4.8.15-9.62.33-14.44-.16-1.44.99-2.42 1.86-3.36.27-2.51-.63-5.33.94-7.52 1.43-1.72 1.08-3.95 1.15-6.01.98-.82 1.84-1.75 2.41-2.91.17-.5.51-1.51.69-2.02 2-8.49 9.13-14.18 15.94-18.93m17.52 20.86c-2.75.17-4.92 1.92-7.2 3.25-.35 1.3-.67 2.65-1.83 3.46.03 2.62.12 5.54-1.83 7.58-.78 2.59-.52 5.53-2.18 7.78-.3 3.97 1 8.24-1.11 11.88-.38 5.28.08 10.59-.17 15.88-.04 1.12-1.03 1.9-1.52 2.83.21 3.81-.72 7.85.88 11.46.88 2.73 1.24 5.92 3.81 7.69 2.44 2.9 6.1 3.95 9.53 5.18 3.1-1.4 7.49-1.73 8.65-5.52.86-1.53 1.96-2.89 3-4.29-.01-2.16-.04-4.32.02-6.47 2.08-1.3 2.12-3.63 2.05-5.82 3.31-4.76-.67-11.05 2.55-15.82.22-4.67-.45-9.39.59-14 .71-4.16-.99-8.22-.52-12.37-.34-.44-1.01-1.31-1.35-1.75-.21-2.86.81-6.28-1.49-8.54-1.92-1.6-4.26-2.63-6.25-4.14-.79-.02-2.37-.05-3.15-.06-.84.6-1.66 1.2-2.48 1.79z"/><path d="m754.08 38.58c5.99.01 11.94-1.53 17.93-.53 5.56 1.11 11.26-.08 16.85.65 7.7.95 15.45.81 23.13 1.74 7.23-.59 14.32 1.06 21.55.81.3 1.58.31 3.41 1.78 4.44-.15 3.73.16 7.47-.14 11.18-1.58 3.65-3.71 8.24-8.29 8.47-4.86 1.58-9.74-.67-14.62.29-1.82.3-3.64.43-5.45.52-.91 2.22-2.67 4.26-2.44 6.8.08 5.38.22 10.76.07 16.15-2.23 2.1-.56 5.47-2.52 7.7-1.42 7.35-.47 14.84-.73 22.26.04 1.4-.91 2.55-1.43 3.78.43 5.78-.54 11.53-1.66 17.18-1.25 6.15 1.81 13.15-2.5 18.46-1.96 1.04-3.43 2.68-3.66 4.98l-.32-.02c-5.27-.98-10.56.32-15.83.17-.91-1.14-2.95-1.85-2.59-3.59.4-8.68 1.68-17.32 1.64-26.03-.28-4.79 2.43-9.16 1.94-13.95-.58-7.09 1.65-14.05.91-21.12-.17-11.28 2.28-22.75.21-33.86-8.32-1.45-16.9-.5-25.33-.8-.75-.19-2.27-.56-3.02-.75-.8-7.81-1.74-15.88-.11-23.63 1.53-.45 3.01-1.2 4.63-1.3z"/><path d="m125.6 234.79c5.03-.74 10.39-1.6 15.31.14 2.61 1.58 4.43 4.26 6.37 6.57.49 3.68-.67 7.58 1 11.06.49 2.88 2.36 5.49 1.71 8.51-.74 5.36.87 10.61.8 15.96 1.16 5.39.05 11.09 1.95 16.37 1.93 4.41-1.42 10.09 2.31 13.83 2.6-4.03 3.81-8.79 6.65-12.68 2.13-4.06 4.03-8.36 7.07-11.86 3.04-2.91 7.43-1.92 11.22-2.07 1.71-.09 3.38.27 5.03.7 1.98.68 4.31.24 6.08 1.46 1.07 3.84 3.45 7.13 4.49 10.99 1.73 4.29 2.76 9.24 6.49 12.33 1.08-9 .28-18.11 1.68-27.06-.44-5.67-.1-11.35.01-17.03.53-1.27 1.04-2.58.91-3.99-.03-6.37-.01-12.73-.05-19.1.75-.72 1.5-1.44 2.26-2.15 7.34-2.2 14.7.64 22 1.59-.13 2.44-1.72 4.38-2.61 6.56-.37 2.38.55 4.72.54 7.1-1.12 6.98.35 14 .71 20.99.17 1.46-.53 2.73-1.28 3.91.34 6.66-.96 13.55.75 20.05-.73 1.92-.92 3.96-.83 6.01.15 10.36-.14 20.73.15 31.08.84 2.24 1.37 4.57 1.15 7-.33 4.77 2.07 9.3 1.17 14.09-4.77 2.57-10.46 1.9-15.66 2.89-5.14-.06-10.43.55-15.49-.38-5.61-5.53-7.43-15.6-15.93-17.61-1.46-4.72-3.75-9.32-6.62-13.33-1.77 2.88-4.4 5.22-5.58 8.44-1.54 4.36-4.95 7.79-6.25 12.24-.28 1.41-1.45 2.32-2.34 3.36-1.38 3.27-3.93 6.53-7.41 7.65-6.44 1.21-12.91-.39-19.26-1.36-3.09-1.54-4.21-4.68-5.67-7.51-.02-1.95.02-3.9.04-5.83-2.08-2.54-.94-5.89-1.8-8.82-.97-3.54-.84-7.22-.75-10.85.38-6.52-1.95-12.75-3.35-19.02-.24-9.76.3-19.53-.05-29.29-.32-.42-.98-1.27-1.3-1.69-.48-6.95 1.19-14.2-1.21-20.88-.18-4.37.18-8.75-.05-13.13-.24-1.47.98-2.51 1.5-3.76 1.44-.33 2.82-.83 4.14-1.48z"/><path d="m239.71 236.69c3.08-.39 6.16-.95 9.27-.68 5.16.34 10.37-.65 15.46.45 6.22.6 12.51-.24 18.73.41 6.22 1.04 12.5 1.95 18.82 1.78 3.81-.09 7.68.5 11.12 2.2-2.74 6.7-1.08 14.19-1.35 21.24-4.35 2.61-9.13-.15-13.71-.3-5.2.19-10.38-1.66-15.56-.33-2.87.92-5.66-.84-8.55-.41-2.59.36-5.17 1.15-7.37 2.59-.45 6.44-.12 12.98-.22 19.46-.23 1.33.95 2.1 1.7 2.98 3.92-.38 7.88-1.26 11.82-.64 4.99.85 10.07.31 15.1.48 2.11 2.03 3.85 4.3 4.75 7.11.0.75.01 2.24.01 2.99.68.64 1.37 1.28 2.06 1.93.24 4.22 1.86 8.66 5.44 11.12-2 5.99-9.53 3.34-14.25 3.62-2.65-1.82-5.95-1.56-9-1.65-5.51.04-11.03-.22-16.51.45-.11 1.54-.22 3.07-.31 4.62.01 4.87.77 9.72.6 14.63 6.3 1.5 12.8 1.11 19.22.95 7.53-1.22 15.38-.66 22.52 2.09.59 3.47 1.51 6.87 2.07 10.34.26 3.64-.02 7.3.09 10.96-.85.91-1.63 1.89-2.61 2.67-8.21 1.98-16.7.71-25.04.97-7.99.28-16.06-.65-23.98.69-2.42.12-4.76-1.17-7.17-.45-2.62.56-5.31.48-7.97.39-1.37-1.44-2.88-2.77-3.96-4.44-.71-2.54.33-5.32-.57-7.82-2.54-5.13.11-11.02-1.39-16.37-1.51-3.82-1.24-8.09-.56-12.07-.75-3.47-.34-7.03-.41-10.55-.76-12.15.48-24.35-1.17-36.44-.39-9.87-.07-19.75-.17-29.62-.36-2.34 1.54-3.93 3.05-5.35z"/><path d="m320.25 239.14c7.79-5.76 17.98-2.71 26.59-.84.09.47.26 1.4.34 1.87-.15 1.08.13 2.02.83 2.82l.56.67-.26.68c-1.79 5.22-1.07 11.09-.14 16.43.62 10.02.05 20.11.19 30.15-3.76 8.9 1.01 19.21-2.6 28.2.36 5.21-.87 10.34-.57 15.53 1.62.51 3.27.9 4.95 1.24 3.88 1.04 7.89 1.65 11.82.45 7.37.29 15.4-.79 22.18 2.56.36 3.37.94 6.77 1.04 10.17.15 3.54-2.42 7.72.81 10.56-4.01 1.92-8.68 1.12-12.91.41-5.62-1.2-11.39-.5-17.08-.65-5.32.07-10.68-.37-15.96.52-1.75.33-3.33-.78-4.97-1.2-2.9 1.43-6.18.65-8.74-1.1-.92-2.09-1.84-4.18-2.63-6.32-.86-.73-1.7-1.46-2.54-2.2 1.59-3.24.33-6.69.08-10.05.0-15.02.03-30.05.12-45.07-3.13-13.75-1.67-27.98-1.88-41.98.04-4.29-.38-8.65.77-12.85z"/><path d="m418.51 242.8c5.84-2.28 12.03-5.41 18.47-3.62 9.38-.13 15.6 8.56 24.54 10.24 2.46 3.65 2.34 8.66-.44 12.12-2.19 3.12-3.75 6.67-6.19 9.6-.07.6-.23 1.78-.3 2.38-5.59 1.77-10.82-1.77-16.04-3.24-3.67 1.05-7.73 1.09-11.02 3.19-1.45 3.71-4.56 6.47-5.96 10.21-1.28 3.31-2.85 6.59-3.09 10.18-.88 2.01-2 3.91-3.13 5.79-.03 5.22.08 10.44-.1 15.67l1.24.1c.15 2.07.72 4.14 2.16 5.71.03 1.62.04 3.25.04 4.88 4.02 2.64 8.83 3.69 12.82 6.43 7.14 1.5 14.59-.37 21.62 1.49.11.63.31 1.91.41 2.54.71.57 1.44 1.14 2.16 1.71.47 1.81.9 3.68 2.1 5.18.1 1.35.32 2.72 1.52 3.55.03 2.85.69 6.65-2.82 7.69-.55.82-1.09 1.65-1.63 2.48-3.5 1.55-6.85 3.81-10.83 3.77-1.8 1.25-4.03 1.43-6.12 1.76-9.16.7-18.41-.93-26.84-4.59-2.19-.61-3.4-2.65-5.05-4.02-2.26-1.42-4.82-2.41-6.72-4.33-2.27-1.96-2.97-5.03-4.87-7.27-.39-1.94-.94-3.84-1.7-5.66-1.95-3.29-4.48-7.02-4.5-11.04-.3-.44-.9-1.31-1.2-1.74.25-2.09-.11-4.08-1.39-5.76.74-5.43-1.2-10.81-.02-16.17.35-3.06-.2-6.15.12-9.2.59-1.97 1.51-3.88 1.37-5.98.31-.39.94-1.18 1.26-1.57-.09-1.6-.13-3.2-.15-4.8 1.26-1.11 1.38-2.79 1.78-4.3 2.21-4.8 3.55-10.06 7.11-14.12 3.47-6.31 9.22-10.73 14.48-15.44 2.01-1.75 4.5-2.74 6.91-3.82z"/><path d="m481.14 251.13c5.43-3.82 10.59-8.25 16.97-10.42 8.18-1.92 16.55-.24 24.8-.01 4.78 1.56 9.63 3.08 14.11 5.42 2.34 2.28 3.61 5.5 5.97 7.81 1.68 2.25 2.02 5.23 3.54 7.61-.41 6.16.65 12.25.81 18.4 1.89 4.1 1 8.63 1.22 12.98-.07 2.22.66 4.79-1.22 6.48-1.45 5.81-.63 11.81-.92 17.71-1.7 2.8-1.05 6.09-1.06 9.18-.38.39-1.16 1.18-1.55 1.57-.14 3.66.98 7.6-1.02 10.92.07 6.26-4.68 11.11-8.94 15.11-3.33 3.09-6.81 6.19-10.99 8.07-4.24 1.33-8.73 1.8-12.82 3.65-6.77 2.95-14.64 1.73-21.12-1.37-3.64-2.47-8.38-3.2-11.39-6.57-2.82-3.9-6.13-7.61-7.65-12.26.13-4.49-1.1-8.97-.23-13.43.21-1.99.18-3.99.18-5.97.33-4.14-2.19-7.8-2.12-11.91-.53-4.73.89-9.32.91-14.02 2.59-5.68.1-12.1 1.71-18.01.79-4.88 2.15-9.69 2.26-14.66 3.18-5.24 4.42-11.63 8.55-16.28m24.97 12.93c-4.11.29-6.5 4.06-8.42 7.25-1.25 3.01-1.94 6.18-1.78 9.46-.52.24-1.54.73-2.06.97 1.05 6.5-1.53 12.81-1.03 19.29.08 1.23-.39 2.24-1.41 3.03.1 4.95-.05 9.92.11 14.88.32.38.96 1.15 1.27 1.54-.03 1.18-.05 2.36-.06 3.55 1.01 1.66 1.46 3.54 1.52 5.49 1.58.86 2.34 2.54 3.23 4.02 3.53 1.45 6.95 3.21 10.62 4.29 2.15-.96 4.12-2.27 6.17-3.44.62-.85 1.25-1.7 1.88-2.55.77-1.85 1.71-3.64 2.29-5.56 1.28-3.68-.37-8.07 2.84-10.99-.01-3.13-.41-6.28.02-9.38 2.41-6.02.66-12.65 1.19-18.95.51-3.81-1.86-7.22-1.32-11.03-2.15-6.19-7.62-13.57-15.06-11.87z"/><path d="m572.88 243.34c7.66-1.49 15.38 1.06 23.12.54 1.95 3.15 4.48 6.04 5.5 9.67 1.89 1.96 2.93 4.5 4.16 6.89 1.56 2.69 3.67 5.24 4.07 8.44 1.07 2.68 2.52 5.23 3.27 8.04.17.52.5 1.56.67 2.07.36 1.1.97 2.04 1.82 2.81.0.77-.01 2.31-.01 3.08 3.62-2.19 5.71-5.97 7.77-9.52 2.75-5.13 6.86-9.39 9.64-14.5 1.61-3.25 4.48-5.61 6.38-8.67 1.61-2.61 4.16-4.69 7.06-5.64 4.55-.28 9.11-.04 13.67-.02 2.72-.24 4.97 1.53 7.42 2.41-.19 7.04-1.87 14.03-2.08 21.1.1 4.37-1.49 8.55-1.46 12.92.0 5.68-1.05 11.33-.54 17.01-.11 3.65.13 7.36-.61 10.96-1.36 5.81-1.37 11.8-1.63 17.73-1.7 4.91.18 10.29-1.19 15.31.68 5.71 1.31 11.66.61 17.39-3.85 3.21-9.06 1.67-13.61 2.02-3.6.24-7.2-.07-10.57-1.43-1.31-7.42-.61-15.07-.51-22.57 1.47-5.69 1.2-11.59 1.5-17.41.2-6.16 1.28-12.31.54-18.47-1.84 2.65-3.18 5.6-4.72 8.43-2.47 4.94-5.97 9.46-7.52 14.81-1.79 1.25-2.88 3.12-3.27 5.25-3.91 2.53-8.75 2.48-13.23 2.3-3.2-.21-5.91-2.24-8-4.53-1.2-4.75-3.82-9.03-5.14-13.75-.2-1.18-.94-2.09-1.65-2.99-.63.97-1.78 1.8-1.75 3.08-.44 3.97-1.02 7.92-.76 11.92.21 2.45-1.56 4.53-1.35 6.98-.11 7.93.15 15.86.03 23.79-1.82 1.42-1.57 4.14-3.16 5.79-6.66.58-13.39.84-19.81-1.39-.33-.37-1.01-1.11-1.34-1.48.04-1.65.04-3.3.09-4.94-.32-.42-.96-1.28-1.29-1.71-.15-1.39-.45-2.76-.91-4.07 2.51-6.1.59-12.71 2.17-18.96.27-7.92-.71-15.9.06-23.78 1.57 2.89.26 6.46.29 9.62l.79.14c.41-3.87.53-7.78.17-11.66-.47-7.11-.06-14.24-.22-21.35-.28-2.05.82-3.82 1.52-5.64.89-5.44.65-10.99 1.26-16.47.63-6.07-.24-12.3 1.34-18.25.36-.33 1.06-.98 1.41-1.3m16.49 27.01c-.86.84-1.3 2.38-.8 3.5 1.64.37 2.63-3.47.8-3.5z"/><path d="m676.08 246.94c.71-.77 1.46-1.53 2.19-2.29 7.55-.02 15.21-.78 22.69.54 7.32.03 14.66.04 21.99-.05 6.18.02 12.11 2 17.75 4.35.81.52 1.6 1.36 1.44 2.43.23 5.73-2.04 11.3-1.34 17.05-6.82 1.4-13.88.29-20.79.66-3.95.42-7.53-1.7-11.45-1.61-3.45-.92-6.84.29-9.87 1.86.11 3.22.47 6.47.13 9.68-.32.27-.97.79-1.3 1.06.17 3.43-1.01 6.76-.73 10.22 3.17 1.71 6.82.42 10.22.92 5.93.96 11.89 1.72 17.81 2.74.61 1.35.98 2.81 1.71 4.11 1.05.46 1.44 1.27 1.17 2.42-.44 4.91 1.54 9.65 1.12 14.56-4.13 2.79-9.17 1.08-13.74 2.02-6.48 1.06-13.26-2.81-19.5-.04.43 5.81-2.04 11.4-1.42 17.24 5.15 1.63 10.54.77 15.78.25 4.8.25 9.77-.8 14.38.95 3.07.51 6.19.85 9.22 1.71-.54 3.8 1.65 8.47-1.47 11.48 2.72-.32.54 1.54.36 2.51-.04.7-.11 2.11-.15 2.82-.36.33-1.08.99-1.44 1.32.02 1.44.05 2.88.1 4.32-3.26.58-6.56.94-9.84 1.23-16.37-.02-32.74-.01-49.1-.02-1.74.13-3.3-.66-4.82-1.36-.31-7.38 1.29-14.66.7-22.06 1.31-13.62 1.48-27.36 3.39-40.93-.45-4.4 1.46-8.47 1.48-12.83.84-4.11.02-8.34.9-12.43.77-3.26-.06-6.64.81-9.88 1.35-4.91.04-10.08 1.62-14.95z"/><path d="m472.53 405.76c1.13-1.04 2.01-3.19 3.97-2.35-.26 4.57 1.11 9.03.74 13.58-.23 10.55 4.34 20.44 4.89 30.88 2.08 7.85 1.56 16.09 3.51 23.96.14 1.37.21 2.76.22 4.16-.47.44-1.41 1.31-1.88 1.75-2.79-1.83-3.3-5.05-4.67-7.8-.89-3.57-.38-7.44-2.19-10.74.04-3.44-.63-6.82-1.69-10.07-1.86-5.51-.26-11.41-1.27-17.05-.98-6.32.79-12.92-1.2-19.09-.69-2.35-.32-4.83-.43-7.23z"/><path d="m332.06 416.3c2.2 2.22 3.93 4.84 4.97 7.8 2.11.93 4.12 2.26 3.88 4.88 1.09.62 2.19 1.24 3.3 1.87.02 1.06.04 2.13.08 3.21 3.87 1.08 5.5 4.86 8.32 7.33 2.09 1.93 3.57 4.39 5.43 6.54 1.92 4.47 5.72 7.76 7.97 12.06 3.89 5.92 6.44 12.61 10.7 18.31 2.01 2.46 2.76 5.64 4.52 8.27.38 2.24 1.02 4.44 2.16 6.43.12 2.18-3.07 2.13-4.2 1.09-1.73-3.07-3.2-6.29-5.37-9.08-6.21-9.25-11.12-19.3-17.63-28.36-1.6-2.46-2.76-5.16-4.12-7.74-2.15-4.02-5.5-7.18-8.04-10.92-1.88-2.77-3.89-5.45-6.12-7.95-3.01-3.29-4.76-7.46-7.33-11.06.37-.67 1.11-2.01 1.48-2.68z"/><path d="m639.17 432.39c.78-1.59 2.51-1.9 4.09-2.14.08 3.26.22 6.59-.76 9.75-3.49 4.02-7.3 7.75-10.6 11.93-6.39 5.24-11.93 11.39-17.9 17.09-5.57 5.16-9.3 11.94-14.95 17.04-2.67 2.24-4.69 5.28-7.78 6.99.2-7.44 7.96-11.43 11.11-17.6 3.78-3.9 8.57-7.25 10.59-12.5 2.12-.73 3.36-2.61 4.66-4.3 4-5.32 8.97-9.86 12.38-15.6 3.24-3.39 6.27-6.97 9.16-10.66z"/><path d="m188.43 517.35c9.18 3.63 17.36 9.34 26.13 13.83 14.41 9.84 29.1 19.44 42.06 31.18 3.91 4.23 8.95 7.17 13.71 10.34 1.1.87 2.16 2.06 2.17 3.58-5.49-.8-10.85-2.56-15.79-5.06-6.68-4.14-11.26-10.76-17.44-15.53-3.78-3.66-8.46-6.14-12.4-9.58-11.3-9.29-24.37-16.07-35.88-25.08-1.16-.97-2.49-2.02-2.56-3.68z"/><path d="m752.42 534.41c1.55-1.2 3.19-2.97 5.35-2.17-1.21 3.14-4.07 5.17-6.73 7.01-2.76 1.87-5.22 4.15-8.15 5.75-10.68 5.26-21.46 10.32-31.89 16.06-5.43 1.94-10.3 4.98-15.34 7.7-2.63 1.41-5.04 3.63-8.23 3.38 3.36-5.71 9.82-8.28 15.33-11.39 11.63-6.82 24.48-11.1 36.03-18.06 2.18-.51 4.24-1.43 6.24-2.46 2.2-2.26 5-3.79 7.39-5.82z"/><path d="m463.38 549.26c6.08-3.51 10.12-9.42 15.73-13.5 1.46.9 2.95 1.75 4.44 2.63 5.7 1.72 11.06 4.43 16.66 6.37 4.67 1.72 9.36 3.45 14.02 5.27 6.87 3.61 14.01 6.63 21.25 9.36 2.93 1.54 6.12 2.47 9.08 3.93 7.31 2.92 14.32 6.47 21.52 9.64 6.81 3.76 13.78 7.29 21.09 10 4.72 1.71 8.75 4.76 13.45 6.51 3.83 2.07 8.05 3.21 11.96 5.09 5 2.55 10.36 4.36 15.33 6.92 3.17-.35 5.44 2.08 7.98 3.53-.25 5.01 1.24 10.44-1.16 15.08-.04 2.67.02 5.37-.78 7.97-1.29 3.93.34 8.27-1.73 11.99.27 8.45-4.33 16.53-2.35 24.96 1.25 4.5-2.51 8.44-1.78 12.97.57 5.75-1.73 11.29-1.3 17.03.58 3.76-1.99 6.92-4.24 9.62-6.38 6.35-10.66 14.5-17.5 20.42-4.69 5.93-10.33 10.96-15.23 16.7-4.95 6.42-10.28 12.55-14.81 19.27-6.53 7.01-11.33 15.71-19.23 21.36-6.94 6.57-13.58 13.43-19.39 21.03-2.45 3.52-6.01 6.03-8.51 9.51-5.48 5.6-9.26 12.61-14.78 18.21-3.07 3.9-6.74 7.25-9.77 11.19-4.45 5.05-7.82 10.99-12.53 15.82-1.53 3.52-4.64 5.96-6.88 9-8.21 10.31-17.11 20.03-26.47 29.3-5.73 5.62-10.54 12.09-16.38 17.6-3.18 2.9-5.81 6.31-8.72 9.46-1.79 1.13-3.65 2.23-5 3.9-3.88 4.79-7.97 9.42-11.7 14.35-2.05 1.27-3.62 3.13-5.12 4.99-2 1.67-4.6 2.28-7.16 2.05-4.28-3.5-9.8-4.85-14.28-8.03-3.29-2.42-7.36-3.58-10.48-6.23-4.64-4.35-10.2-7.57-16-10.08-4.51-2.65-7.99-6.71-12.23-9.71-2.78-1.64-6-2.51-8.53-4.55-6.57-5.32-13.97-9.44-21.08-13.92-3.9-3.79-9.1-5.56-13.73-8.22-7.25-3.62-13.79-8.51-21.09-12.04-1.48-.76-2.84-1.71-4.09-2.78-2.34-2.3-5.76-2.55-8.55-4.07-3.61-2.39-7.64-4.08-11.52-6.02-4.47-2.42-9.97-3.53-13-7.99.03-2.34.33-4.78-.62-6.98-.98-2.59-.32-5.57-2.08-7.89.04-2.14.11-4.27.17-6.4-.37-.4-1.11-1.19-1.48-1.59-.17-5.1.64-10.32-.83-15.3-1.04-3.91.16-8-.52-11.94-2.25-4.03-.31-8.82-2.47-12.93.31-5.08-.99-9.98-1.47-14.97-.52-3.27 2.36-5.28 4.3-7.39 2.52-2.47 4.52-5.41 7.1-7.82 1.98-1.8 2.64-4.71 5.1-6.03 4.59-4.4 9.53-8.41 14.24-12.71 6.27-8 14.63-13.99 21.46-21.47 6.95-6.75 14.82-12.6 20.95-20.15 7.03-7.66 14.93-14.45 22.58-21.43-.13-2.75 2.09-4.61 3.62-6.59 3.25-3.66 6.83-7.01 10.16-10.58 3.16-3.51 7.23-6.04 10.4-9.53 1.61-1.75 3.36-3.37 5.24-4.83 3.18-2.46 5.5-5.78 8.34-8.6 3.72-4.35 8.31-7.88 11.8-12.43 5.83-4.66 10.02-11.05 16.02-15.56 4.46-6.55 11.39-10.71 16.56-16.6 6.82-7.24 14.44-13.7 21.11-21.06 3.2-2.77 5.62-6.38 9.28-8.63 2.43-2.62 5.58-4.97 6.68-8.5 2.1-3.49 5.33-6.18 8.95-7.98m4.3 5.3c-3.5 3.93-8.1 6.72-11.36 10.87-3.12 3.38-3.9 8.38-7.73 11.18-9.59 10.06-20.08 19.19-29.62 29.3.72.21 2.16.63 2.88.84-1.32 3.59-5.96 2.42-8.3 4.81-9.19 8.42-17.78 17.45-26.66 26.19.84.2 2.52.59 3.35.78-2.12 2.64-6.26.69-8.13 3.59-5.36 6-11.47 11.24-17.19 16.87 2.07.13 4.14.24 6.21.47-3.13 2.58-8.04 1.73-11.28 4.35-2.19 1.95-4.56 3.86-5.99 6.48 3.16-1.86 6.47-3.6 10.27-3.15-3.12 3.34-7.29 5.44-11.76 6.32-3.28.51-6.26 2.85-7.19 6.09-.65-.64-1.28-1.27-1.91-1.9.44-.6 1.34-1.82 1.78-2.43-.46.4-1.37 1.21-1.83 1.62-.24-.43-.7-1.3-.93-1.74.87 2.72.93 5.59 1.28 8.41-2.94-.8-4.4 3.24-5.71 5.23-1.42 5.89-.09 12.07-.95 18.05-.07-1.05-.51-1.88-1.3-2.5l1.31.45c-.11-4.64-.17-9.28-.22-13.92-6.57 6.04-12.78 12.48-19.22 18.67-5.19 6.06-11.49 11.04-16.74 17.04.82.37 2.48 1.13 3.3 1.5-2.58 2.97-7.22 1.46-9.96 4.12-6.13 6.18-12.21 12.44-18.62 18.33-5.11 5.04-10.92 9.33-15.99 14.4.63.18 1.89.54 2.52.72-2.9 2.23-6.9 2.2-9.61 4.77-1.26 1.3-3.8 1.97-4.07 3.86 15.15 5.74 28.53 15.17 43.63 21.04 1.63-.48 3.3-.84 4.98-1.13.4 2.01-1.25 2.2-2.81 2.39 1.3.86 2.61 1.73 3.91 2.61 6.03-1.27 13.6-1.66 18.38 2.88-.09.79-.26 2.38-.35 3.17-1.98.95-2.9-1.21-4.1-2.26-1.92-.4-3.91-.16-5.85-.14 4.73 2.97 9.83 5.35 14.35 8.69 6.75 4.68 14.44 7.99 20.8 13.25 1.93 3.66 6 4.8 9.31 6.85 6.77 4.08 14.49 6.14 21.75 9.13-.63.12-1.89.36-2.51.48 6.41 3.76 13.35 6.53 19.83 10.19 4.85 2.62 9.02 6.45 14.2 8.46 2.57-2.49 4.25-5.76 6.94-8.14 4.28-3.71 7.95-8.04 12.1-11.88 4.69-4.35 7.93-9.95 12.51-14.41 4.9-6.42 9.77-12.88 15.28-18.79 2.09-2.27 4.44-4.31 6.2-6.86 5.76-7.84 12.88-14.53 18.79-22.23 4.77-5.21 9.98-10.08 14.14-15.8 2.1-4.22 6.31-6.72 8.63-10.79-.81-.01-2.42-.04-3.23-.05-.2-.42-.62-1.25-.83-1.67 1.74.42 3.67 1.91 5.4.69 1.15-1.55 2.19-3.2 3.59-4.56 11.68-12.34 22.64-25.34 34.32-37.69 18.81-22.45 39.07-43.61 59.01-65.03 2.64-3 5.69-5.64 7.83-9.04 5.48-4.58 10.16-10.08 14.68-15.59-.18-1.3-2.34-3.9-.12-4.33.48.55 1.45 1.66 1.93 2.21 2.68-2.89 5.37-5.78 8.06-8.66-1.75-.27-3.37-.17-3.65 1.94-.26-.95-.54-1.89-.84-2.8-3.98-1.13-7.4-3.81-11.54-4.4-3.37-.32-6.75.45-10.1-.04-1.18-.02-1.97-.6-2.35-1.74 2.52-.3 5.06-.47 7.6-.65-3.86-3.01-9.22-1.35-13.74-1.87.09-1.44.18-2.87.28-4.29-4.9-2.21-9.49-5.05-14.62-6.73-5.94-2-11.26-5.36-16.98-7.86-2.59-1.16-5.3-3.52-8.24-1.95-2.65.44-6.51 3.2-8.31.07 1.97-2.16 5.09-2.01 7.75-2.48-5.3-2.7-11.37-2.4-16.97-.92-3.18.15-6.62 2.03-9.64.45 3.14-3.74 8.59-3.09 12.56-5.34-9.56-3.6-19.03-7.47-28.36-11.63-6.96-3.78-14.6-6.01-21.73-9.4-.59.51-1.18 1.03-1.75 1.57l2.03.65c-.99.49-2.03.8-3.11.94-.32-.39-.97-1.17-1.29-1.56.55-.15 1.63-.47 2.17-.63-.08-.48-.25-1.43-.33-1.9-2.95-.93-5.91-1.81-9.04-1.49-.08-.47-.24-1.4-.32-1.87-3.51 3.86-7.37 7.39-10.86 11.27m125.51 100.69c.56.53.56.53.0.0m12.94 3.87c.27 3.36 2.86-1.67.0.0m-6.89 8.13c.54.54.54.54.0.0m-29.09 27.87c-.58 1.55-.02 2.12 1.66 1.7.55-1.58.0-2.15-1.66-1.7m-.06 9.09c-1.6 2.93 3.32.27.0.0m-1.92 13.87c-1.3.76-1.27 1.41.09 1.96 1.31-.78 1.28-1.43-.09-1.96m-32.9 2.25c.57.51.57.51.0.0m18.7 1.02c.01.43.03 1.27.04 1.7 2.17-.19 4.37-.57 6.2-1.85-1.47-.01-2.9.23-4.3.6-.49-.11-1.45-.34-1.94-.45m21.74 11.73c3.31.18 6.26-1.55 8.29-4.06-2.83 1.13-5.79 2.36-8.29 4.06m-3.16 3.34c-1.06.32-3.25.03-3.31 1.55 1.19 2.15 6.86-1.34 3.31-1.55m-47.04 18.79c.08 3.32 3.01-1.51.0.0m6.64 4.22c-1.52 2.95 3.35.1.0.0m-10.86 5.62c-.01 3.34 3.01-1.42.0.0m-35.86 16.05c.14 3.29 3.02-1.52.0.0m-236.57 1.66c.45 10.51 2.35 20.89 3.27 31.37-.14 5.27.92 10.48.66 15.77-.34 1.94.66 3.57 1.97 4.91 1.4-1.77 2.66-3.65 3.6-5.7 1.39-.52 2.8-1.01 4.23-1.4-1.16 3.68-2.09 8.07-5.52 10.33-1.32.85-2.41 2.42-1.93 4.07.48 3.26.89 6.54.9 9.85 1.46.78 2.97 1.48 4.5 2.13 1.06-.82 2.91-3.35 4.12-1.24-1.07.75-1.63 1.76-1.66 3.03.9-.29 1.81-.57 2.72-.85 1.17 2.69 4.82 5.14 7.57 3.22.02.64.07 1.92.1 2.56 1.81 1.39 3.79-.58 5.6-1.04 1 .78 1.91 1.7 2.91 2.51-1.11.58-2.21 1.17-3.32 1.77 1.68 1.26 3.48 2.33 5.36 3.25 2.71-2.27 6.2-2.62 9.6-2.53-1.8 1.62-4.01 2.91-5.31 5.03 1.09 1 2.46 1.62 3.78 2.3.52-.31 1.56-.92 2.08-1.23 2.34 1.29 4.49 2.97 6.98 3.99 1.53-.14 3-.58 4.49-.91-.81.89-1.62 1.8-2.42 2.71 1.06.73 2.11 1.47 3.18 2.23 1.96-.67 3.99-1.14 6.07-1.2-.8 1.05-1.66 2.06-2.56 3.04 3.37 3.25 7.57 5.51 11.19 8.48 1.98-1.24 4.12-2.21 6.42-2.65-.02.56-.06 1.68-.08 2.24 3.43-1.12 6.98-2.13 10.63-1.84-1.42 3.78-5.89 4.14-8.93 6.09.01.41.02 1.23.03 1.65 2.18 1.56 4.53 2.89 6.81 4.34 2.49-1.9 6.92-2.28 8.46.97-1.8.16-3.59.32-5.38.5.62.75 1.25 1.51 1.87 2.28 3.04-1.58 5.34-5.52 9.17-4.68-2.03 2.25-4.34 4.24-6.83 5.97 1.18.59 2.36 1.22 3.55 1.84 1.83-1.72 3.64-3.89 6.37-4-1.7 1.57-3.53 2.97-5.35 4.41 4.75 2.86 8.92 6.5 13.28 9.9 1.05-.43 2.1-.85 3.16-1.26.16-1.03.35-2.05.55-3.05.13 2.06-.49 4.02-1.55 5.79 3.81 2.49 7.74 4.8 11.28 7.68 1.48 1.22 3.38-.2 4.97-.41-.43.88-.86 1.77-1.29 2.68 5.64 3.28 11.5 6.14 17.43 8.85 1.11.54 2.37.07 3.55.05.57 2.25 2.48 3.65 4.17 5.09 1.49-11.15-.2-22.52 1.51-33.67-1.07.42-3.22 1.26-4.29 1.68.85-2.24 2.56-3.89 4.04-5.69-.52-13.23.88-27.04-3.7-39.71-4.35-2.32-9.02-4.1-13.02-7.04-4.8-3.56-10.92-4.34-15.93-7.5-1.18.45-2.35.92-3.52 1.4.17-.96.35-1.9.54-2.82-1.23-.43-2.46-.83-3.69-1.23-.55 2.22-2.71 2.01-4.54 2.09.38-1.98 2.82-1.64 4.17-2.31-6.41-4.35-13.98-6.56-20.86-9.98-6.52-6.76-14.68-11.71-23.11-15.71-3.5-1.78-6.35-4.66-10.03-6.08-3.17.7-6.14 2.33-9.47 2.16 1.3-2.44 4.27-2.82 6.47-4.08-1.88-1.19-3.73-2.5-5.86-3.2-1.7.12-3.34.61-4.98 1 .17-1.03.34-2.05.51-3.06-4.23-2.13-8.14-5.14-12.87-6.07.15.84.43 2.53.58 3.37-1.43.6-2.95.89-4.5.82.81-1.42 2.03-2.06 3.67-1.92-1.5-1.2-2.48-2.79-2.7-4.71-2.93-1.39-5.73-3.04-8.74-4.24-1.78 1.28-3.3 2.95-5.37 3.8-.42-1.35-.85-2.67-1.27-4 1.6-.26 3.17-.58 4.77-.83-2.93-1.75-5.95-3.4-9.09-4.72-1.75.33-3.47.87-5.27.75.53-.63 1.61-1.88 2.15-2.51-3.33-1.67-6.65-3.36-10.05-4.88m263.3 20.86c2.55-.93 6.74-.56 7.8-3.51-2.47 1.22-6.35.98-7.8 3.51m-43.05-1.3c-.47 1.34.02 1.85 1.46 1.53.45-1.36-.04-1.87-1.46-1.53m8.08 2.89c.43 3.3 2.83-1.75.0.0m20.54 9.58c5.19.57 11.93-1.13 14.62-5.88-4.38 3.12-9.58 4.34-14.62 5.88m-27.76-4.43c-1.52 2.96 3.34.13.0.0m-30.69 24.83c.49.58.49.58.0.0m-20.95 23.08c.52.54.52.54.0.0m12.98 8.9c.48 3.31 2.77-1.87.0.0m19.99 11.96c-.68 1.4-.29 1.85 1.16 1.36.67-1.43.29-1.89-1.16-1.36m-32.03 2c0 3.32 3.03-1.48.0.0m13.02 4.97c-.03 3.33 3.04-1.44.0.0m-15.25 3.19c-1.57 2.96 3.33.11.0.0m-92.69 1.03c-.6 1.44-.17 1.83 1.28 1.2.59-1.45.16-1.85-1.28-1.2m99.86 7.78c.39 3.33 2.82-1.75.0.0z"/><path d="m475.57 549.71c1.41.15 2.82.32 4.24.51-.53.83-1.05 1.66-1.57 2.5-1.17-.76-2.28-1.61-2.67-3.01z"/><path d="m499.97 555.15c2.49.72 5.56.61 7.3 2.82-2.47.25-4.94.27-7.41.23.03-.77.08-2.29.11-3.05z"/><path d="m476.1 558.01c2.54-2.22 6.22-1.65 9.17-.61-1.26.75-2.67 1.6-4.22.98-.22 2.08-.28 4.19-.18 6.29l-1.71-.93c.87-1.4.95-3.08 1.2-4.66-4.87-1.68-3.55 4.12-3.85 6.82-.11-2.64-.45-5.26-.41-7.89z"/><path d="m470.08 559.02c1.42-.48 1.87-.02 1.35 1.39-1.43.46-1.88.0-1.35-1.39z"/><path d="m494.32 558.95c2.99-1.5.2 3.32.0.0z"/><path d="m486.29 561.17c1.7-.55 2.27-.04 1.73 1.55-1.69.52-2.26.01-1.73-1.55z"/><path d="m488.75 564.74c2.47-1.02 5 .21 7.39.85-6.21 2.48-13.11 3.75-19.77 2.99-.22-.34-.66-1-.88-1.33 4.42-.84 8.98-1.04 13.26-2.51z"/><path d="m505.05 564.45c1.15-.93 3 .16 2.97 1.58-.53 2.08-4.71.08-2.97-1.58z"/><path d="m503.35 573.39c.92-1.32 3.74-.05 2.67 1.51-.98 1.22-3.74.04-2.67-1.51z"/><path d="m542.35 576.45c1.35-.63 3.98.8 3.41 2.44-1.36.79-4.07-.84-3.41-2.44z"/><path d="m552.25 585.33c.62.42.62.42.0.0z"/><path d="m470.99 604.14c1.04.25 2.09.51 3.15.78.14.46.42 1.37.57 1.83-1.64-.19-4.15-.27-3.72-2.61z"/><path d="m613.35 605.3c1.3-.98 2.86 1.34 1.73 2.36-1.32.82-2.73-1.35-1.73-2.36z"/><path d="m459.22 606.24c.54.54.54.54.0.0z"/><path d="m605.3 609.4c1.19-.83 2.43 1.28 1.51 2.18-1.21.78-2.41-1.29-1.51-2.18z"/><path d="m427.23 610.18c1.23-.01 2.47.0 3.71.02-1.24 1.71-2.78 3.18-4.81 3.87.35-1.31.72-2.61 1.1-3.89z"/><path d="m619.21 610.19c.51.57.51.57.0.0z"/><path d="m593.13 616.14c4.08-1.54 8.65-3.18 12.87-1.07-3.57 2.29-7.93 2.75-12.07 2.92-.2-.46-.6-1.39-.8-1.85z"/><path d="m468.11 615.12c1.03-1.2 3.66.21 2.62 1.7-1.03 1.22-3.71-.21-2.62-1.7z"/><path d="m612.26 615.2c.59.49.59.49.0.0z"/><path d="m453.23 617.3c.57.52.57.52.0.0z"/><path d="m427.93 620.83c1.75-.1 2.86 1.08 3.07 2.73-.68.02-2.05.05-2.74.07-.08-.7-.25-2.1-.33-2.8z"/><path d="m415.3 632.27c.49.59.49.59.0.0z"/><path d="m705.96 645.01c7.68 1.76 15.33-2.51 22.96-.71 5.4-.1 10.68 1.34 16.12.76 6.87.89 13.81.24 20.67 1.24 1.15.85 3.5 3.48.77 3.81-5.88.38-11.75 2.15-17.65 1.1-4.34-.7-8.77.17-13.1-.63-8.33-1.29-16.75-1.71-25.12-1.98-1.95.91-4.06 1.22-6.19 1.06-.83-.95-1.66-1.89-2.48-2.82 1.1-1.02 2.3-2.46 4.02-1.83z"/><path d="m405.34 650.31c2.25-1.71 5.19-.58 7.7-.23-1.38 1.89-3.96 1.82-6.04 2.24-1.26.79-2.95-.91-1.66-2.01z"/><path d="m371.75 665.18c1.89-3.94 7.15-3.22 10.68-2.53.21.2.63.6.84.8-3.77.93-7.6 2.03-11.52 1.73z"/><path d="m530.35 664.15c1.25-.86 2.01-.63 2.28.68-1.26.84-2.02.61-2.28-.68z"/><path d="m356.29 673.19c.97-1.14 3.24.36 2.39 1.67-1.01 1.11-3.28-.32-2.39-1.67z"/><path d="m519.34 673.19c1.11-.79 2.92-.05 3.44 1.15-.36 1.82-4.27.57-3.44-1.15z"/><path d="m507.24 677.15c1.65-.53 2.22.02 1.71 1.63-1.65.5-2.22-.05-1.71-1.63z"/><path d="m358.39 680.19c1.4.65 3.44.72 3.87 2.52-1.42.04-2.83.08-4.24.12.09-.66.28-1.98.37-2.64z"/><path d="m350.1 683.46c.92-.96 3.33.09 2.47 1.47-.92 1.16-3.59-.07-2.47-1.47z"/><path d="m468.35 683.37c1.18-.64 3.02-.2 3.7 1-.18 2.17-4.82.96-3.7-1z"/><path d="m79.43 700.18c14.46-1.34 28.42 3.03 42.55 5.26 3.21.49 6.26 1.8 9.52 1.98 5.93 1.98 12.19 2.85 18.05 4.97 7.75 1.33 15.09 4.17 22.61 6.38 2.28.77 4.9 1.5 6.12 3.79-.95.61-1.9 1.22-2.84 1.84-2.17-.04-4.34.03-6.44.57-12.25-1.53-24.14-4.84-36.01-8.15-10.08-2.28-20.3-4.03-30.12-7.31-7.9-1.95-15.88-3.77-23.42-6.9-.01-.61-.02-1.82-.02-2.43z"/><path d="m373.19 710.1c2.93-1.58.26 3.33.0.0z"/><path d="m417.29 718.98c1.15-.87 3.08.03 3.53 1.33-.57 1.6-4.14.31-3.53-1.33z"/><path d="m492.07 723.5c1.1-.63 2.97-.52 3.64.71-.03 2.17-5.13 1.29-3.64-.71z"/><path d="m300.49 733.65c-1.75-2.9 3.07-2.74 4.81-2.71-.69 2.03-2.88 2.66-4.81 2.71z"/><path d="m370.3 731.28c1.17.22 2.46.36 3.06 1.59-1.05.37-2.11.74-3.16 1.12.03-.68.08-2.03.1-2.71z"/><path d="m406.28 731.22c2.79-1.79.41 3.34.0.0z"/><path d="m443.4 735.12c2.97-1.54.1 3.34.0.0z"/><path d="m302.13 741.21c4.33.82 8.53-.41 12.78-1.03-.07 1.05-.57 1.78-1.49 2.19-3.71 1.96-8.01 2.51-12.15 2.09-.54-1.21.41-2.22.86-3.25z"/><path d="m427.46 741.2c1.19-.87 1.89-.61 2.13.77-1.2.84-1.91.58-2.13-.77z"/><path d="m291.94 744.87c-1.16-2.42 2.76-2.22 4.16-1.97.26 1.35.13 2.7-.44 3.96.01-.6.03-1.78.04-2.37-.94.09-2.82.29-3.76.38z"/><path d="m439.29 743c3.07-1.46-.03 3.3.0.0z"/><path d="m301.79 752.17c.82-2.13 4.28-2.7 4.93-.15-.69.12-2.06.37-2.75.5.14.47.42 1.42.56 1.9l.01.53c-.81.93-1.87-.4-2.71-.46.57-.57 1.14-1.13 1.71-1.69z"/><path d="m488.31 750.45c1.07-.66 2.92-.41 3.52.8-.08 2.27-4.89 1.26-3.52-.8z"/><path d="m479.76 753.11c1.79-.03 3.58.05 5.38.22-1.49 1.6-4.08 1.62-5.38-.22z"/><path d="m273.13 754.33c.76-1.12 3.83-.42 2.39 1.07-.78 1.11-3.78.45-2.39-1.07z"/><path d="m490.34 756.21c3.08-1.26-.12 3.33.0.0z"/><path d="m278.2 761.27c.74-.72 3.65-.48 2.29.99-1.07 1.91-5.1.63-2.29-.99z"/><path d="m357.34 768.16c1.17-.88 1.89-.64 2.18.71-1.18.87-1.91.63-2.18-.71z"/><path d="m681.41 783.22c2.09 2.26 4.58.99 6.82-.11.21.51.63 1.52.84 2.03 5.55.07 10.49 2.85 15.8 4.09 8.48 1.39 16.47 4.76 24.95 6.22 2.67.71 6.28.46 7.49 3.53-3.39 1.08-6.88.31-10.31-.03-6.14-1.02-12.32-2.39-17.93-5.17-.44.14-1.32.42-1.76.57-2.79-1.31-5.92-3.29-9.01-1.74-2.2-.61-3.87-2.17-5.79-3.29-1.22.02-2.38.42-3.54.7-3.17-2.06-7.66-1.52-9.79-5.07.56-.43 1.67-1.3 2.23-1.73z"/><path d="m254.62 801.06c1.06-2.7 3.74-4.8 6.75-4.2-1.67 2.18-4.26 3.23-6.75 4.2z"/><path d="m263.37 801.2c2.07-1.53 3.25 1.45 1.01 2.19-1.82 1.33-3.18-1.61-1.01-2.19z"/><path d="m256.35 807.67c4.07.12 7.77-1.33 10.95-3.81-1.32 4-6.06 6.14-10.03 5.87-.23-.52-.69-1.54-.92-2.06z"/><path d="m255.25 807.52c.55.55.55.55.0.0z"/><path d="m273.4 808.41c1.98-1.7 4.82-1.25 7.08-.45-1.83 2.55-4.68 4.04-7.52 5.21-.07-1.57-1.37-3.73.44-4.76z"/><path d="m287.84 808.77c1.61-.92 3.46-1.28 5.22-1.78-1.47 6.46-7.35 12.1-14.03 13-.2-.85-.59-2.55-.79-3.4 1.41-.26 2.82-.51 4.24-.75-.34-.48-1.01-1.44-1.34-1.92 1.27-.29 2.55-.57 3.84-.82.99-1.43 1.84-2.94 2.86-4.33z"/><path d="m297.11 812.22c.47-.06 1.42-.19 1.89-.25 2.4 1.1-4.43 3.46-2.69.76z"/><path d="m361.04 813.39c1.63-.57 2.21-.05 1.72 1.55-1.67.57-2.24.05-1.72-1.55z"/><path d="m288.26 817.24c.54.5.54.5.0.0z"/><path d="m266.59 820.96c.54-3.25 4.16-2.64 6.56-2.67-1.75 1.79-4.09 2.55-6.56 2.67z"/><path d="m293.32 820.9c-1.09-2.6 2.17-2.92 3.93-2.96-.37 1.99-2.28 2.47-3.93 2.96z"/><path d="m383.16 819.1c3.02-1.5.06 3.32.0.0z"/><path d="m409.95 819.25c.64-.02 1.92-.07 2.56-.09.45 1.14.92 2.31 1.4 3.47-1.57-.81-4.19-1.05-3.96-3.38z"/><path d="m388.23 820.25c.53.52.53.52.0.0z"/><path d="m275.3 825.06c4.48-.25 8.26-3.43 12.82-2.9-3.55 3.28-8.55 4.87-13.34 4.91.13-.5.39-1.51.52-2.01z"/><path d="m364.22 825.2c.8-1.23 3.73-.31 2.28 1.15-.81 1.19-3.57.32-2.28-1.15z"/><path d="m375.18 826.11c2.91-1.69.22 3.32.0.0z"/><path d="m268.2 827.23c3.36.12-1.55 2.94.0.0z"/><path d="m396.5 828.16c1.95-.35 7.24-1.97 6.31 1.61-2.05.85-4.26 1.19-6.47 1.19.04-.7.12-2.1.16-2.8z"/><path d="m298.32 828.46c.72-1.35 3.7-.65 2.16.94-.71 1.38-3.65.62-2.16-.94z"/><path d="m309.39 830.07c2.3-.46 4.61-.84 6.95-1.12-1.46 1.75-3.03 3.41-4.69 4.99.43.55 1.3 1.66 1.73 2.22-2.63-1.03-5.35-.56-7.94.28.25-2.82 3.62-3.63 3.95-6.37z"/><path d="m265.16 830.15c3.04-1.54.14 3.27.0.0z"/><path d="m270.02 830.29c1.7-.49 2.29.03 1.76 1.57-1.72.49-2.31-.03-1.76-1.57z"/><path d="m279.11 830.37c.94-1.05 3.75-.13 2.76 1.44-.93 1.28-4.07.16-2.76-1.44z"/><path d="m148 831.95c1.36-.58 2.81-.75 4.27-.68.24 1.26.49 2.53.74 3.81-1.49.25-2.64 1.21-3.74 2.18-2.35.72-4.71 1.39-7.06 2.08-6.76.53-13.38 2.26-20.17 2.01-5.32.88-10.72.09-16.04.88-7.79.42-15.34 2.5-22.94 4.07-1.98 1.06-2.95-1.26-3.95-2.42 3.28-3.13 7.9-3.77 11.98-5.28 5.35.32 10.57-1 15.88-1.34 4.48.33 8.8-1.11 13.29-.75.26-.3.77-.9 1.03-1.2 1.86.82 3.83.12 5.74-.03 4.96-.73 10.02-1.06 14.85-2.49 1.98-.63 4.06-.72 6.12-.84z"/><path d="m330.87 833.74c1.34-1.46 3.32-1.41 5.14-1.51-.13 2.72-3.39 1.67-5.14 1.51z"/><path d="m268.23 833.27c.79-1.23 3.74-.31 2.36 1.16-.82 1.06-3.58.31-2.36-1.16z"/><path d="m329.05 837.18c.97-1.28 3.74-.05 2.55 1.5-.92 1.35-3.76.02-2.55-1.5z"/><path d="m390.35 838.29c.75-1.38 3.85-.44 2.24 1.06-.79 1.1-3.54.43-2.24-1.06z"/><path d="m407.29 839.22c2.69-.68 1.58 3.28-.48 2.92-1.76-.29-1-2.84.48-2.92z"/><path d="m383.42 841.33c2.56.05 5.11-.32 7.67-.42 1.46-.09 3.73 1.7 1.78 2.86-3.22.62-6.54.96-9.8.47.09-.73.26-2.18.35-2.91z"/><path d="m272.33 845.02c2.9-1.05 1.79 3.28-.46 2.8-1.79-.17-.75-2.58.46-2.8z"/><path d="m341.8 849c.63-1.6 1.79-2.8 3.34-3.52-.23 1.99-.59 4.78-3.34 3.52z"/><path d="m349.96 846.76c2.73.25 5.46.0 8.1-.74-1.29 2.9-4 4.79-7.11 5.29-.89-1.37-.92-3-.99-4.55z"/><path d="m278.93 851.09c1.69-.27 3.39-.52 5.1-.72-.91 2.02-2.97 2.81-5.09 2.74.0-.51-.01-1.52-.01-2.02z"/><path d="m289.72 852.98c1.47-1.41 3.39-2.03 5.42-2-.98 2.07-3.3 3.45-5.42 2z"/><path d="m350.49 853.63c2-1.45 3.76-3.38 6.39-3.65-.7 3.38-3.82 5.67-6.56 7.44-2.29 1.4-4.56-.19-6.47-1.42.1-.73.29-2.19.39-2.92 2.11-.3 4.17.69 6.25.55z"/><path d="m267.31 852.26c1.47-.55 1.91-.12 1.33 1.28-1.47.54-1.91.11-1.33-1.28z"/><path d="m359.22 851.98c1.63-1.05 1.98 1.52.52 1.92-1.6 1.04-1.99-1.57-.52-1.92z"/><path d="m269.15 854.02c1.47-.5 1.89-.05 1.24 1.34-1.47.49-1.88.04-1.24-1.34z"/><path d="m366.37 854.3c2.59-.68 1.47 3.53-.61 3.05-1.82-.38-.61-2.76.61-3.05z"/><path d="m374.31 854.16c3.85-.92-.57 4.6-1.22 1.27.3-.31.91-.95 1.22-1.27z"/><path d="m271.25 856.28c.56.53.56.53.0.0z"/><path d="m314.1 856.07c1.4-.54 1.88-.09 1.44 1.34-1.39.51-1.87.07-1.44-1.34z"/><path d="m301.48 859.38c.8-1.34 4.29-.95 2.9.99-.73 1.61-4.15.88-2.9-.99z"/><path d="m326.38 861.5c1.86-.88 3.76-1.67 5.72-2.28-2.78 4.04-7.5 7.37-12.44 8.21.74-1.71 2.33-2.66 3.81-3.62-.62-.9-1.23-1.79-1.82-2.68 1.6-.33 3.2-.19 4.73.37z"/><path d="m286.18 860.29c1.66-.68 2.19-.2 1.61 1.45-1.67.66-2.21.18-1.61-1.45z"/><path d="m314.98 861.03c1.72.54 3.45 1.08 5.19 1.6-2.12-.54-4-.11-5.37 1.64-.5-1.1-.22-2.19.18-3.24z"/><path d="m356.87 866.99c-1.43-3.65 3.62-4.84 6.11-5.94-.48 2.99-3.73 4.52-6.11 5.94z"/><path d="m300.3 865.08c1.35.52 1.31 1.15-.12 1.89-1.34-.52-1.3-1.15.12-1.89z"/><path d="m306.28 868.47c-.05-3.65 4.99-4.8 6.4-1.48-2.07.72-4.22 1.2-6.4 1.48z"/><path d="m384.1 865.05c1.4-.5 1.85-.04 1.35 1.39-1.41.48-1.86.02-1.35-1.39z"/><path d="m322.9 868.3c.17.39.51 1.16.68 1.55 1.45-.21 2.91-.4 4.37-.57-2.59 2.91-6.38 4.29-10.02 5.36-1.94.62-3.99.06-5.3-1.46 3.18-1.96 9.5-.3 10.27-4.88z"/><path d="m388.22 868.23c1.23.66 1.17 1.36-.16 2.1-1.22-.69-1.17-1.39.16-2.1z"/><path d="m332.37 869.17c2.71-.59.22 3.06-1.38 2.12-1.66-.67.5-2.07 1.38-2.12z"/><path d="m376.23 876.18c-1.53-3.54 1.4-7.92 5.35-6.51-1.67 2.24-2.84 5.04-5.35 6.51z"/><path d="m299.29 870.18c.56.52.56.52.0.0z"/><path d="m392.48 870.07c1.23-.89 1.91-.65 2.05.72-1.24.87-1.93.63-2.05-.72z"/><path d="m347.26 873c3.03-1.55.06 3.32.0.0z"/><path d="m384.19 874.16c1.19.68 1.09 1.36-.3 2.04-1.22-.71-1.12-1.39.3-2.04z"/><path d="m338.14 875.05c3.91-.89-.27 4.47-1.18 1.26.3-.31.89-.95 1.18-1.26z"/><path d="m391.77 878.67c.05-2.84 2.29-3.98 4.73-4.66-.77 4.24-1.18 10.5-6.19 11.91.29-1.6.74-3.15 1.3-4.66-.8.0-2.41.02-3.21.02.3-1.7 2.12-1.94 3.37-2.61z"/><path d="m322.47 883.27c1.18-3.78 7.89-5.06 9.29-.96-3.11.15-6.2.6-9.29.96z"/><path d="m335.12 880.55c1.12-.77 3.19.75 2.26 2.05-1.15 1.81-3.46-.72-2.26-2.05z"/><path d="m343.46 889.44c.98-3.66 4.43-5.41 7.63-6.77-.22.58-.64 1.74-.85 2.31-2.58 1.04-3.99 3.96-6.78 4.46z"/><path d="m370.37 883.16c1.16.48 2.36.87 3.62 1.08l.03.62c-2.05-.54-4.19-.67-6.21.09l-.22-.73c.69-.27 2.09-.8 2.78-1.06z"/><path d="m351.54 887.17c2.55-.1 5.44-1.26 7.71.42-3.52 1.16-6.94 2.59-10.46 3.75.98-1.36 1.91-2.74 2.75-4.17z"/><path d="m371.24 888.97c3-1.58.11 3.31.0.0z"/><path d="m341.13 893.27c.53.57.53.57.0.0z"/><path d="m378.33 895.17c.81-.89 3.25-.3 2.13 1.12-1.1 1.96-5.05.33-2.13-1.12z"/><path d="m387.24 897.31c3.93-.97-.38 4.48-1.22 1.16.3-.29.92-.87 1.22-1.16z"/><path d="m628.47 901.7c1.68-.08 3.37-.09 5.06-.16 8.39 4.67 16.02 10.55 24.01 15.85 5.73 4.2 11.54 8.46 16.28 13.8 1.54 1.71 1.5 6.32-1.87 5.17-3.55-2.94-7.67-5.11-10.99-8.33-2.88-3-6.75-4.66-9.9-7.3-6.98-5.42-14.41-10.2-21.68-15.21-1.69-.65-.85-2.49-.91-3.82z"/><path d="m356.32 904.17c.41.61.41.61.0.0z"/><path d="m373.27 910.3c.56.51.56.51.0.0z"/><path d="m377.29 915.25c3.04-1.54.04 3.3.0.0z"/><path d="m383.23 918.28c1.84-1.17 1.95 1.39.32 1.71-1.86 1.23-2.06-1.47-.32-1.71z"/><path d="m393.05 928.08c-.46-3.26 1.77-5.84 3.7-8.15.09.45.27 1.34.36 1.79 1.18-.34 2.37-.66 3.56-.97-1.1 1.74-2.13 3.54-3.07 5.37.28-.71.86-2.15 1.14-2.87-3.59-1.11-2.98 3.83-5.69 4.83z"/><path d="m386.76 922.12c1.38-.24 2.78-.46 4.18-.65-.25 1.73-2.24 1.76-3.51 2.41-.17-.44-.5-1.32-.67-1.76z"/><path d="m398.29 927.16c1.66-.99 1.99 1.53.44 1.84-1.71 1-2.07-1.6-.44-1.84z"/><path d="m386.32 928.11c2.77-.52.29 2.98-1.32 2.13-1.63-.64.41-2.12 1.32-2.13z"/><path d="m169.37 946.51c7.49-1.92 12.34-8.76 19.68-11.02 2.08-1 4.43-.63 6.4.43-3.14 4.56-8.87 6.02-12.74 9.8-4.06 2.56-7.78 5.68-12.13 7.78-4.66 3.43-8.43 7.97-13.55 10.79-4.78 2.67-8.62 6.76-13.68 8.93-5.29 2-10.41 5.56-16.35 4.27 1.61-3.55 5.51-5.07 8.57-7.14 6.11-4.24 13.29-6.85 18.79-11.95 3.59-1.58 5.7-4.94 8.51-7.49 2.19-1.43 4.52-2.66 6.5-4.4z"/><path d="m489.72 971.03c1.11-2.37 3.23-4.05 5.63-4.98.1 3.7 1.82 7.16 1.45 10.91-.38 5.98.84 12.15-1.1 17.95.25 9.09-1.06 18.07-1.59 27.13-.43.27-1.29.79-1.72 1.05-.82-1.62-2.21-3.11-2.06-5.02-.13-5.68.15-11.37-.07-17.04-.62-3.66-1.55-7.34-1.11-11.07.99-6.28-.22-12.62.57-18.93z"/><path d="m317.01 978.91c1-.42 2-.83 3.01-1.22.38.09 1.14.27 1.52.36-.93 6-3.75 11.47-6.78 16.67-1.63 2.71-2.67 5.77-4.61 8.31-1.73 4.79-5.5 8.51-7.86 13.01-3.89 4.52-6.27 10.47-11.42 13.79.08-1.93-.47-3.99.38-5.79 3.06-6.66 8.32-12.06 11.15-18.85.86-2.16 2.31-3.98 4.12-5.4 2.13-3.07 3.18-6.75 5.39-9.78 2.42-3.36 2.96-7.59 5.1-11.1z"/></g><g fill="#babea3"><path d="m193.1 23.96c1.57.31 2.49 1.34 2.83 2.84 2.21 1.87 4.07 4.15 5.75 6.5.98 2.15 1.04 4.6 2.27 6.66-.12 5.05.8 10.02.84 15.06 1.79 1.7 1.17 4.18 1.12 6.37-1.67-2.83-2.37-6.11-2.37-9.38-.08-6.71-.43-13.74-3.59-19.81-2.19-2.83-5.05-5.1-6.85-8.24z"/><path d="m323.73 24.07c5.26 1.17 3.33 7.61 3.64 11.49-.36.35-1.09 1.05-1.45 1.4.03 38.24.23 76.48.1 114.73-.77.5-1.55 1.01-2.31 1.52-4.44 1.52-9.12 1.39-13.7 2.01-3.2-.01-6.58.49-9.62-.75-1.99-1.48-1.03-4.34-1.46-6.44.29 1.91.37 3.92 1.5 5.57 4.01 2.42 9.05.93 13.47.65.08-.88.24-2.66.32-3.54-2.39 1.46-2.75.27-2.78-1.17.66.06 1.96.18 2.62.25.48 1.83 1.31 4.56 3.77 4.2 2.82-.35 6.64-.74 7.48-4.05.12-4.68-1.1-9.27-1.12-13.95.08-14.01-.87-28.1.82-42.05.62-6.64.44-13.3.25-19.96.73-14.99-.29-30.06 1.16-45.03.21-2.03-1.59-3.43-2.69-4.88z"/><path d="m91.07 26.99c1.23.71 2.24 1.72 3.14 2.8.07 1.3 1.19 1.98 2.07 2.77.4 5.03 5.34 8.63 5.37 13.79 2.17 1.06.81 3.65 1.55 5.46.78 2.03 1.62 4.05 1.85 6.24.11 1.8 1.84 3.08 1.82 4.91.1 4.36.02 8.73-.05 13.1.35.36 1.04 1.09 1.38 1.45-.13 3.04.22 6.11-.17 9.13l-1.01.81c-.11.53-.33 1.57-.44 2.1-2.02 1.04-1.64 3.6-2.4 5.44-1.57 3.91-3.33 7.9-6.82 10.49-1.54 3.19-4.26 5.82-7.84 6.53 7.63-4.73 12.44-13.05 15.23-21.4 2.74-5.01 1.86-11.04 1.04-16.45-1.12-5.33-.3-10.89-1.73-16.17-2.66-10.88-6.05-22.01-12.99-31z"/><path d="m400.27 29.48c.08.07.25.2.34.27-.09-.07-.26-.2-.34-.27z"/><path d="m589.76 37.16.9.11.44.98-.49.83c-.21-.48-.64-1.44-.85-1.92z"/><path d="m143.23 82.9c.88-9.07-2.32-18.57 1.01-27.34.11 16.35.05 32.69.03 49.04-.71-1.06-1.09-2.22-1.15-3.49-.63-6.05-.6-12.17.11-18.21z"/><path d="m660.21 58.21.91-.15c-.18.51-.52 1.52-.69 2.02l-.58-.83z"/><path d="m752.58 64.26c8.43.3 17.01-.65 25.33.8 2.07 11.11-.38 22.58-.21 33.86.74 7.07-1.49 14.03-.91 21.12.49 4.79-2.22 9.16-1.94 13.95.04 8.71-1.24 17.35-1.64 26.03-.36 1.74 1.68 2.45 2.59 3.59 5.27.15 10.56-1.15 15.83-.17l.13-.01c-5.64.05-11.27.42-16.91.44-1.25-.76-2.08-2.32-1.95-3.79.15-5.71-.74-11.57 1.37-17.02-.34-6.32.68-12.59.68-18.9l.94.52c1.22-6.85-.57-13.88.85-20.71.48-1.95-.14-3.9-.42-5.82-.13-9.31 3.36-18.74 1.17-28.01.45-1.37.68-2.8.79-4.24-1.04-.41-2.06-.82-3.08-1.24-7.72.05-15.49.35-23.18-.38z"/><path d="m622.63 72.92c-.15-1.17.52-2.14 1.09-3.1-.18 9.12.28 18.27-.62 27.37-4.02-4.08-7.38-9.05-9.42-14.4 3.14 2.5 3.76 7.6 8.05 8.71 1.5-6.1.69-12.38.9-18.58z"/><path d="m588.74 95.78c.77 1.26 1.58 2.5 2.02 3.94-4.59 5.62-2.67 13.55-3.09 20.28-.41 3.53 2.33 6.48 1.96 10-.08 7 .08 14-.04 21 .05 1.72-.71 3.28-1.59 4.7 1.46-7.88-.33-15.8.19-23.72.34-4.37-1.4-8.54-1.24-12.9.17-7.79.45-15.62 1.79-23.3z"/><path d="m366.82 113.83c1.62.88 2.05 2.49 2.08 4.23 1.53 1.21 2.97 2.53 4.22 4.04-3.29-1.43-6.32-4.47-6.3-8.27z"/><path d="m57.17 117.29c.53-.09 1.6-.26 2.13-.35-.68 10.58-.18 21.23-.51 31.84-1.98.87-3.65 2.36-5.73 3-2.42.24-4.85.12-7.28.17 4.54.16 9.24-.52 12.54-3.95.31-4.31.7-8.66-.01-12.96-.98-5.87-.77-11.83-1.14-17.75z"/><path d="m28.39 128.95c.74 1.15.89 2.52.81 3.86-1.83.29-1.79-2.92-.81-3.86z"/><path d="m298.03 142.69c-1.86-.52-1.78-5.6-.19-6.41.54 2.08.08 4.28.19 6.41z"/><path d="m725.5 147.67c.04-.09.11-.27.15-.36-.04.09-.11.27-.15.36z"/><path d="m658.34 150.96c.23.47.68 1.42.91 1.9l-.89-.09-.47-.97z"/><path d="m347.18 240.17h.78l.62.86c-.15.49-.43 1.47-.57 1.96-.7-.8-.98-1.74-.83-2.82z"/><path d="m348.17 260.77c-.93-5.34-1.65-11.21.14-16.43.03 5.48.22 10.96-.14 16.43z"/><path d="m570.14 249.14c.29-1.53-.71-3.96 1.33-4.5-1.58 5.95-.71 12.18-1.34 18.25-.61 5.48-.37 11.03-1.26 16.47-.13-9.49-.01-18.98-.05-28.46.33-.44.99-1.32 1.32-1.76z"/><path d="m202.81 281.94c1.51-6.57-.43-13.37.96-19.93-.11 5.68-.45 11.36-.01 17.03-1.4 8.95-.6 18.06-1.68 27.06-3.73-3.09-4.76-8.04-6.49-12.33-1.04-3.86-3.42-7.15-4.49-10.99-1.77-1.22-4.1-.78-6.08-1.46 2.39.21 7.67-1.6 6.62 2.61 1.58 2.71 3.03 5.49 4.59 8.2.29 2.56 1.53 4.82 2.67 7.08 1.42-.26 2.3-1.35 3.24-2.33.79-4.95.3-9.97.67-14.94z"/><path d="m589.37 270.35c1.83.03.84 3.87-.8 3.5-.5-1.12-.06-2.66.8-3.5z"/><path d="m236.83 271.66c1.65 12.09.41 24.29 1.17 36.44-.49-1-.96-2-1.43-3 1.78-3.57-.07-7.38.13-11.1.1-7.45-.12-14.9.13-22.34z"/><path d="m613 276.92.87.19.37 1.06-.57.82c-.17-.51-.5-1.55-.67-2.07z"/><path d="m633.15 311.93c1.54-2.83 2.88-5.78 4.72-8.43.74 6.16-.34 12.31-.54 18.47-.3 5.82-.03 11.72-1.5 17.41.09-9.16-1.2-18.66 1.86-27.49-.27-.86-.79-2.56-1.05-3.42-1.29 1.02-2.45 2.19-3.49 3.46z"/><path d="m566.16 307.96 1.41-1.61c.36 3.88.24 7.79-.17 11.66l-.79-.14c-.03-3.16 1.28-6.73-.29-9.62z"/><path d="m267.47 311.49c5.48-.67 11-.41 16.51-.45 3.05.09 6.35-.17 9 1.65-5.23-1.39-10.7.03-15.99-.91-3.03-.55-6.03.45-9.05.62-.24 1.24-.5 2.47-.78 3.71.09-1.55.2-3.08.31-4.62z"/><path d="m467.68 554.56c3.49-3.88 7.35-7.41 10.86-11.27.08.47.24 1.4.32 1.87 3.13-.32 6.09.56 9.04 1.49.08.47.25 1.42.33 1.9-.54.16-1.62.48-2.17.63.32.39.97 1.17 1.29 1.56 1.08-.14 2.12-.45 3.11-.94l-2.03-.65c.57-.54 1.16-1.06 1.75-1.57 7.13 3.39 14.77 5.62 21.73 9.4 9.33 4.16 18.8 8.03 28.36 11.63-3.97 2.25-9.42 1.6-12.56 5.34 3.02 1.58 6.46-.3 9.64-.45 5.6-1.48 11.67-1.78 16.97.92-2.66.47-5.78.32-7.75 2.48 1.8 3.13 5.66.37 8.31-.07 2.94-1.57 5.65.79 8.24 1.95 5.72 2.5 11.04 5.86 16.98 7.86 5.13 1.68 9.72 4.52 14.62 6.73-.1 1.42-.19 2.85-.28 4.29 4.52.52 9.88-1.14 13.74 1.87-2.54.18-5.08.35-7.6.65.38 1.14 1.17 1.72 2.35 1.74 3.35.49 6.73-.28 10.1.04 4.14.59 7.56 3.27 11.54 4.4.3.91.58 1.85.84 2.8.28-2.11 1.9-2.21 3.65-1.94-2.69 2.88-5.38 5.77-8.06 8.66-.48-.55-1.45-1.66-1.93-2.21-2.22.43-.06 3.03.12 4.33-4.52 5.51-9.2 11.01-14.68 15.59-2.14 3.4-5.19 6.04-7.83 9.04-19.94 21.42-40.2 42.58-59.01 65.03-11.68 12.35-22.64 25.35-34.32 37.69-1.4 1.36-2.44 3.01-3.59 4.56-1.73 1.22-3.66-.27-5.4-.69.21.42.63 1.25.83 1.67.81.01 2.42.04 3.23.05-2.32 4.07-6.53 6.57-8.63 10.79-4.16 5.72-9.37 10.59-14.14 15.8-5.91 7.7-13.03 14.39-18.79 22.23-1.76 2.55-4.11 4.59-6.2 6.86-5.51 5.91-10.38 12.37-15.28 18.79-4.58 4.46-7.82 10.06-12.51 14.41-4.15 3.84-7.82 8.17-12.1 11.88-2.69 2.38-4.37 5.65-6.94 8.14-5.18-2.01-9.35-5.84-14.2-8.46-6.48-3.66-13.42-6.43-19.83-10.19.62-.12 1.88-.36 2.51-.48-7.26-2.99-14.98-5.05-21.75-9.13-3.31-2.05-7.38-3.19-9.31-6.85-6.36-5.26-14.05-8.57-20.8-13.25-4.52-3.34-9.62-5.72-14.35-8.69 1.94-.02 3.93-.26 5.85.14 1.2 1.05 2.12 3.21 4.1 2.26.09-.79.26-2.38.35-3.17-4.78-4.54-12.35-4.15-18.38-2.88-1.3-.88-2.61-1.75-3.91-2.61 1.56-.19 3.21-.38 2.81-2.39-1.68.29-3.35.65-4.98 1.13-15.1-5.87-28.48-15.3-43.63-21.04.27-1.89 2.81-2.56 4.07-3.86 2.71-2.57 6.71-2.54 9.61-4.77-.63-.18-1.89-.54-2.52-.72 5.07-5.07 10.88-9.36 15.99-14.4 6.41-5.89 12.49-12.15 18.62-18.33 2.74-2.66 7.38-1.15 9.96-4.12-.82-.37-2.48-1.13-3.3-1.5 5.25-6 11.55-10.98 16.74-17.04 6.44-6.19 12.65-12.63 19.22-18.67.05 4.64.11 9.28.22 13.92l-1.31-.45c.79.62 1.23 1.45 1.3 2.5.86-5.98-.47-12.16.95-18.05 1.31-1.99 2.77-6.03 5.71-5.23-.35-2.82-.41-5.69-1.28-8.41.23.44.69 1.31.93 1.74.46-.41 1.37-1.22 1.83-1.62-.44.61-1.34 1.83-1.78 2.43.63.63 1.26 1.26 1.91 1.9.93-3.24 3.91-5.58 7.19-6.09 4.47-.88 8.64-2.98 11.76-6.32-3.8-.45-7.11 1.29-10.27 3.15 1.43-2.62 3.8-4.53 5.99-6.48 3.24-2.62 8.15-1.77 11.28-4.35-2.07-.23-4.14-.34-6.21-.47 5.72-5.63 11.83-10.87 17.19-16.87 1.87-2.9 6.01-.95 8.13-3.59-.83-.19-2.51-.58-3.35-.78 8.88-8.74 17.47-17.77 26.66-26.19 2.34-2.39 6.98-1.22 8.3-4.81-.72-.21-2.16-.63-2.88-.84 9.54-10.11 20.03-19.24 29.62-29.3 3.83-2.8 4.61-7.8 7.73-11.18 3.26-4.15 7.86-6.94 11.36-10.87m7.89-4.85c.39 1.4 1.5 2.25 2.67 3.01.52-.84 1.04-1.67 1.57-2.5-1.42-.19-2.83-.36-4.24-.51m24.4 5.44c-.03.76-.08 2.28-.11 3.05 2.47.04 4.94.02 7.41-.23-1.74-2.21-4.81-2.1-7.3-2.82m-23.87 2.86c-.04 2.63.3 5.25.41 7.89.3-2.7-1.02-8.5 3.85-6.82-.25 1.58-.33 3.26-1.2 4.66l1.71.93c-.1-2.1-.04-4.21.18-6.29 1.55.62 2.96-.23 4.22-.98-2.95-1.04-6.63-1.61-9.17.61m-6.02 1.01c-.53 1.39-.08 1.85 1.35 1.39.52-1.41.07-1.87-1.35-1.39m24.24-.07c.2 3.32 2.99-1.5.0.0m-8.03 2.22c-.53 1.56.04 2.07 1.73 1.55.54-1.59-.03-2.1-1.73-1.55m2.46 3.57c-4.28 1.47-8.84 1.67-13.26 2.51.22.33.66.99.88 1.33 6.66.76 13.56-.51 19.77-2.99-2.39-.64-4.92-1.87-7.39-.85m16.3-.29c-1.74 1.66 2.44 3.66 2.97 1.58.03-1.42-1.82-2.51-2.97-1.58m-1.7 8.94c-1.07 1.55 1.69 2.73 2.67 1.51 1.07-1.56-1.75-2.83-2.67-1.51m39 3.06c-.66 1.6 2.05 3.23 3.41 2.44.57-1.64-2.06-3.07-3.41-2.44m9.9 8.88c.62.42.62.42.0.0m-81.26 18.81c-.43 2.34 2.08 2.42 3.72 2.61-.15-.46-.43-1.37-.57-1.83-1.06-.27-2.11-.53-3.15-.78m142.36 1.16c-1 1.01.41 3.18 1.73 2.36 1.13-1.02-.43-3.34-1.73-2.36m-154.13.94c.54.54.54.54.0.0m146.08 3.16c-.9.89.3 2.96 1.51 2.18.92-.9-.32-3.01-1.51-2.18m-178.07.78c-.38 1.28-.75 2.58-1.1 3.89 2.03-.69 3.57-2.16 4.81-3.87-1.24-.02-2.48-.03-3.71-.02m191.98.01c.51.57.51.57.0.0m-26.08 5.95c.2.46.6 1.39.8 1.85 4.14-.17 8.5-.63 12.07-2.92-4.22-2.11-8.79-.47-12.87 1.07m-125.02-1.02c-1.09 1.49 1.59 2.92 2.62 1.7 1.04-1.49-1.59-2.9-2.62-1.7m144.15.08c.59.49.59.49.0.0m-159.03 2.1c.57.52.57.52.0.0m-25.3 3.53c.08.7.25 2.1.33 2.8.69-.02 2.06-.05 2.74-.07-.21-1.65-1.32-2.83-3.07-2.73m-12.63 11.44c.49.59.49.59.0.0m-9.96 18.04c-1.29 1.1.4 2.8 1.66 2.01 2.08-.42 4.66-.35 6.04-2.24-2.51-.35-5.45-1.48-7.7.23m-33.59 14.87c3.92.3 7.75-.8 11.52-1.73-.21-.2-.63-.6-.84-.8-3.53-.69-8.79-1.41-10.68 2.53m158.6-1.03c.26 1.29 1.02 1.52 2.28.68-.27-1.31-1.03-1.54-2.28-.68m-174.06 9.04c-.89 1.35 1.38 2.78 2.39 1.67.85-1.31-1.42-2.81-2.39-1.67m163.05.0c-.83 1.72 3.08 2.97 3.44 1.15-.52-1.2-2.33-1.94-3.44-1.15m-12.1 3.96c-.51 1.58.06 2.13 1.71 1.63.51-1.61-.06-2.16-1.71-1.63m-148.85 3.04c-.09.66-.28 1.98-.37 2.64 1.41-.04 2.82-.08 4.24-.12-.43-1.8-2.47-1.87-3.87-2.52m-8.29 3.27c-1.12 1.4 1.55 2.63 2.47 1.47.86-1.38-1.55-2.43-2.47-1.47m118.25-.09c-1.12 1.96 3.52 3.17 3.7 1-.68-1.2-2.52-1.64-3.7-1m-95.16 26.73c.26 3.33 2.93-1.58.0.0m44.1 8.88c-.61 1.64 2.96 2.93 3.53 1.33-.45-1.3-2.38-2.2-3.53-1.33m74.78 4.52c-1.49 2 3.61 2.88 3.64.71-.67-1.23-2.54-1.34-3.64-.71m-191.58 10.15c1.93-.05 4.12-.68 4.81-2.71-1.74-.03-6.56-.19-4.81 2.71m69.81-2.37c-.02.68-.07 2.03-.1 2.71 1.05-.38 2.11-.75 3.16-1.12-.6-1.23-1.89-1.37-3.06-1.59m35.98-.06c.41 3.34 2.79-1.79.0.0m37.12 3.9c.1 3.34 2.97-1.54.0.0m-141.27 6.09c-.45 1.03-1.4 2.04-.86 3.25 4.14.42 8.44-.13 12.15-2.09.92-.41 1.42-1.14 1.49-2.19-4.25.62-8.45 1.85-12.78 1.03m125.33-.01c.22 1.35.93 1.61 2.13.77-.24-1.38-.94-1.64-2.13-.77m-135.52 3.67c.94-.09 2.82-.29 3.76-.38-.01.59-.03 1.77-.04 2.37.57-1.26.7-2.61.44-3.96-1.4-.25-5.32-.45-4.16 1.97m147.35-1.87c-.03 3.3 3.07-1.46.0.0m-137.5 9.17 1.75.63c-.57.56-1.14 1.12-1.71 1.69.84.06 1.9 1.39 2.71.46l-.01-.53c-.14-.48-.42-1.43-.56-1.9.69-.13 2.06-.38 2.75-.5-.65-2.55-4.11-1.98-4.93.15m186.52-1.72c-1.37 2.06 3.44 3.07 3.52.8-.6-1.21-2.45-1.46-3.52-.8m-8.55 2.66c1.3 1.84 3.89 1.82 5.38.22-1.8-.17-3.59-.25-5.38-.22m-206.63 1.22c-1.39 1.52 1.61 2.18 2.39 1.07 1.44-1.49-1.63-2.19-2.39-1.07m217.21 1.88c-.12 3.33 3.08-1.26.0.0m-212.14 5.06c-2.81 1.62 1.22 2.9 2.29.99 1.36-1.47-1.55-1.71-2.29-.99m79.14 6.89c.27 1.34 1 1.58 2.18.71-.29-1.35-1.01-1.59-2.18-.71m3.7 45.23c-.52 1.6.05 2.12 1.72 1.55.49-1.6-.09-2.12-1.72-1.55m22.12 5.71c.06 3.32 3.02-1.5.0.0m26.79.15c-.23 2.33 2.39 2.57 3.96 3.38-.48-1.16-.95-2.33-1.4-3.47-.64.02-1.92.07-2.56.09m-21.72 1c.53.52.53.52.0.0m-24.01 4.95c-1.29 1.47 1.47 2.34 2.28 1.15 1.45-1.46-1.48-2.38-2.28-1.15m10.96.91c.22 3.32 2.91-1.69.0.0m21.32 2.05c-.04.7-.12 2.1-.16 2.8 2.21.0 4.42-.34 6.47-1.19.93-3.58-4.36-1.96-6.31-1.61m-6.15 10.13c-1.3 1.49 1.45 2.16 2.24 1.06 1.61-1.5-1.49-2.44-2.24-1.06m16.94.93c-1.48.08-2.24 2.63-.48 2.92 2.06.36 3.17-3.6.48-2.92m-23.87 2.11c-.09.73-.26 2.18-.35 2.91 3.26.49 6.58.15 9.8-.47 1.95-1.16-.32-2.95-1.78-2.86-2.56.1-5.11.47-7.67.42z"/><path d="m593.19 655.25c.56.53.56.53.0.0z"/><path d="m606.13 659.12c2.86-1.67.27 3.36.0.0z"/><path d="m599.24 667.25c.54.54.54.54.0.0z"/><path d="m570.15 695.12c1.66-.45 2.21.12 1.66 1.7-1.68.42-2.24-.15-1.66-1.7z"/><path d="m570.09 704.21c3.32.27-1.6 2.93.0.0z"/><path d="m568.17 718.08c1.37.53 1.4 1.18.09 1.96-1.36-.55-1.39-1.2-.09-1.96z"/><path d="m535.27 720.33c.57.51.57.51.0.0z"/><path d="m553.97 721.35c.49.11 1.45.34 1.94.45 1.4-.37 2.83-.61 4.3-.6-1.83 1.28-4.03 1.66-6.2 1.85-.01-.43-.03-1.27-.04-1.7z"/><path d="m575.71 733.08c2.5-1.7 5.46-2.93 8.29-4.06-2.03 2.51-4.98 4.24-8.29 4.06z"/><path d="m572.55 736.42c3.55.21-2.12 3.7-3.31 1.55.06-1.52 2.25-1.23 3.31-1.55z"/><path d="m525.51 755.21c3.01-1.51.08 3.32.0.0z"/><path d="m532.15 759.43c3.35.1-1.52 2.95.0.0z"/><path d="m521.29 765.05c3.01-1.42-.01 3.34.0.0z"/><path d="m485.43 781.1c3.02-1.52.14 3.29.0.0z"/><path d="m248.86 782.76c3.4 1.52 6.72 3.21 10.05 4.88-.54.63-1.62 1.88-2.15 2.51 1.8.12 3.52-.42 5.27-.75 3.14 1.32 6.16 2.97 9.09 4.72-1.6.25-3.17.57-4.77.83.42 1.33.85 2.65 1.27 4 2.07-.85 3.59-2.52 5.37-3.8 3.01 1.2 5.81 2.85 8.74 4.24.22 1.92 1.2 3.51 2.7 4.71-1.64-.14-2.86.5-3.67 1.92 1.55.07 3.07-.22 4.5-.82-.15-.84-.43-2.53-.58-3.37 4.73.93 8.64 3.94 12.87 6.07-.17 1.01-.34 2.03-.51 3.06 1.64-.39 3.28-.88 4.98-1 2.13.7 3.98 2.01 5.86 3.2-2.2 1.26-5.17 1.64-6.47 4.08 3.33.17 6.3-1.46 9.47-2.16 3.68 1.42 6.53 4.3 10.03 6.08 8.43 4 16.59 8.95 23.11 15.71 6.88 3.42 14.45 5.63 20.86 9.98-1.35.67-3.79.33-4.17 2.31 1.83-.08 3.99.13 4.54-2.09 1.23.4 2.46.8 3.69 1.23-.19.92-.37 1.86-.54 2.82 1.17-.48 2.34-.95 3.52-1.4 5.01 3.16 11.13 3.94 15.93 7.5 4 2.94 8.67 4.72 13.02 7.04 4.58 12.67 3.18 26.48 3.7 39.71-1.48 1.8-3.19 3.45-4.04 5.69 1.07-.42 3.22-1.26 4.29-1.68-1.71 11.15-.02 22.52-1.51 33.67-1.69-1.44-3.6-2.84-4.17-5.09-1.18.02-2.44.49-3.55-.05-5.93-2.71-11.79-5.57-17.43-8.85.43-.91.86-1.8 1.29-2.68-1.59.21-3.49 1.63-4.97.41-3.54-2.88-7.47-5.19-11.28-7.68 1.06-1.77 1.68-3.73 1.55-5.79-.2 1-.39 2.02-.55 3.05-1.06.41-2.11.83-3.16 1.26-4.36-3.4-8.53-7.04-13.28-9.9 1.82-1.44 3.65-2.84 5.35-4.41-2.73.11-4.54 2.28-6.37 4-1.19-.62-2.37-1.25-3.55-1.84 2.49-1.73 4.8-3.72 6.83-5.97-3.83-.84-6.13 3.1-9.17 4.68-.62-.77-1.25-1.53-1.87-2.28 1.79-.18 3.58-.34 5.38-.5-1.54-3.25-5.97-2.87-8.46-.97-2.28-1.45-4.63-2.78-6.81-4.34-.01-.42-.02-1.24-.03-1.65 3.04-1.95 7.51-2.31 8.93-6.09-3.65-.29-7.2.72-10.63 1.84.02-.56.06-1.68.08-2.24-2.3.44-4.44 1.41-6.42 2.65-3.62-2.97-7.82-5.23-11.19-8.48.9-.98 1.76-1.99 2.56-3.04-2.08.06-4.11.53-6.07 1.2-1.07-.76-2.12-1.5-3.18-2.23.8-.91 1.61-1.82 2.42-2.71-1.49.33-2.96.77-4.49.91-2.49-1.02-4.64-2.7-6.98-3.99-.52.31-1.56.92-2.08 1.23-1.32-.68-2.69-1.3-3.78-2.3 1.3-2.12 3.51-3.41 5.31-5.03-3.4-.09-6.89.26-9.6 2.53-1.88-.92-3.68-1.99-5.36-3.25 1.11-.6 2.21-1.19 3.32-1.77-1-.81-1.91-1.73-2.91-2.51-1.81.46-3.79 2.43-5.6 1.04-.03-.64-.08-1.92-.1-2.56-2.75 1.92-6.4-.53-7.57-3.22-.91.28-1.82.56-2.72.85.03-1.27.59-2.28 1.66-3.03-1.21-2.11-3.06.42-4.12 1.24-1.53-.65-3.04-1.35-4.5-2.13-.01-3.31-.42-6.59-.9-9.85-.48-1.65.61-3.22 1.93-4.07 3.43-2.26 4.36-6.65 5.52-10.33-1.43.39-2.84.88-4.23 1.4-.94 2.05-2.2 3.93-3.6 5.7-1.31-1.34-2.31-2.97-1.97-4.91.26-5.29-.8-10.5-.66-15.77-.92-10.48-2.82-20.86-3.27-31.37m5.76 18.3c2.49-.97 5.08-2.02 6.75-4.2-3.01-.6-5.69 1.5-6.75 4.2m8.75.14c-2.17.58-.81 3.52 1.01 2.19 2.24-.74 1.06-3.72-1.01-2.19m-7.02 6.47c.23.52.69 1.54.92 2.06 3.97.27 8.71-1.87 10.03-5.87-3.18 2.48-6.88 3.93-10.95 3.81m-1.1-.15c.55.55.55.55.0.0m18.15.89c-1.81 1.03-.51 3.19-.44 4.76 2.84-1.17 5.69-2.66 7.52-5.21-2.26-.8-5.1-1.25-7.08.45m14.44.36c-1.02 1.39-1.87 2.9-2.86 4.33-1.29.25-2.57.53-3.84.82.33.48 1 1.44 1.34 1.92-1.42.24-2.83.49-4.24.75.2.85.59 2.55.79 3.4 6.68-.9 12.56-6.54 14.03-13-1.76.5-3.61.86-5.22 1.78m9.27 3.45-.8.51c-1.74 2.7 5.09.34 2.69-.76-.47.06-1.42.19-1.89.25m-8.85 5.02c.54.5.54.5.0.0m-21.67 3.72c2.47-.12 4.81-.88 6.56-2.67-2.4.03-6.02-.58-6.56 2.67m26.73-.06c1.65-.49 3.56-.97 3.93-2.96-1.76.04-5.02.36-3.93 2.96m-18.02 4.16c-.13.5-.39 1.51-.52 2.01 4.79-.04 9.79-1.63 13.34-4.91-4.56-.53-8.34 2.65-12.82 2.9m-7.1 2.17c-1.55 2.94 3.36.12.0.0m30.12 1.23c-1.49 1.56 1.45 2.32 2.16.94 1.54-1.59-1.44-2.29-2.16-.94m11.07 1.61c-.33 2.74-3.7 3.55-3.95 6.37 2.59-.84 5.31-1.31 7.94-.28-.43-.56-1.3-1.67-1.73-2.22 1.66-1.58 3.23-3.24 4.69-4.99-2.34.28-4.65.66-6.95 1.12m-44.23.08c.14 3.27 3.04-1.54.0.0m4.86.14c-.55 1.54.04 2.06 1.76 1.57.53-1.54-.06-2.06-1.76-1.57m9.09.08c-1.31 1.6 1.83 2.72 2.76 1.44.99-1.57-1.82-2.49-2.76-1.44m51.76 3.37c1.75.16 5.01 1.21 5.14-1.51-1.82.1-3.8.05-5.14 1.51m-62.64-.47c-1.22 1.47 1.54 2.22 2.36 1.16 1.38-1.47-1.57-2.39-2.36-1.16m60.82 3.91c-1.21 1.52 1.63 2.85 2.55 1.5 1.19-1.55-1.58-2.78-2.55-1.5m-56.72 7.84c-1.21.22-2.25 2.63-.46 2.8 2.25.48 3.36-3.85.46-2.8M341.8 849c2.75 1.26 3.11-1.53 3.34-3.52-1.55.72-2.71 1.92-3.34 3.52m8.16-2.24c.07 1.55.1 3.18.99 4.55 3.11-.5 5.82-2.39 7.11-5.29-2.64.74-5.37.99-8.1.74m-71.03 4.33c0 .5.01 1.51.01 2.02 2.12.07 4.18-.72 5.09-2.74-1.71.2-3.41.45-5.1.72m10.79 1.89c2.12 1.45 4.44.07 5.42-2-2.03-.03-3.95.59-5.42 2m60.77.65c-2.08.14-4.14-.85-6.25-.55-.1.73-.29 2.19-.39 2.92 1.91 1.23 4.18 2.82 6.47 1.42 2.74-1.77 5.86-4.06 6.56-7.44-2.63.27-4.39 2.2-6.39 3.65m-83.18-1.37c-.58 1.39-.14 1.82 1.33 1.28.58-1.4.14-1.83-1.33-1.28m91.91-.28c-1.47.35-1.08 2.96.52 1.92 1.46-.4 1.11-2.97-.52-1.92m-90.07 2.04c-.64 1.38-.23 1.83 1.24 1.34.65-1.39.23-1.84-1.24-1.34m97.22.28c-1.22.29-2.43 2.67-.61 3.05 2.08.48 3.2-3.73.61-3.05m7.94-.14c-.31.32-.92.96-1.22 1.27.65 3.33 5.07-2.19 1.22-1.27m-103.06 2.12c.56.53.56.53.0.0m42.85-.21c-.43 1.41.05 1.85 1.44 1.34.44-1.43-.04-1.88-1.44-1.34m-12.62 3.31c-1.25 1.87 2.17 2.6 2.9.99 1.39-1.94-2.1-2.33-2.9-.99m24.9 2.12c-1.53-.56-3.13-.7-4.73-.37.59.89 1.2 1.78 1.82 2.68-1.48.96-3.07 1.91-3.81 3.62 4.94-.84 9.66-4.17 12.44-8.21-1.96.61-3.86 1.4-5.72 2.28m-40.2-1.21c-.6 1.63-.06 2.11 1.61 1.45.58-1.65.05-2.13-1.61-1.45m28.8.74c-.4 1.05-.68 2.14-.18 3.24 1.37-1.75 3.25-2.18 5.37-1.64-1.74-.52-3.47-1.06-5.19-1.6m41.89 5.96c2.38-1.42 5.63-2.95 6.11-5.94-2.49 1.1-7.54 2.29-6.11 5.94m-56.57-1.91c-1.42.74-1.46 1.37-.12 1.89 1.43-.74 1.47-1.37.12-1.89m5.98 3.39c2.18-.28 4.33-.76 6.4-1.48-1.41-3.32-6.45-2.17-6.4 1.48m77.82-3.42c-.51 1.41-.06 1.87 1.35 1.39.5-1.43.05-1.89-1.35-1.39m-61.2 3.25c-.77 4.58-7.09 2.92-10.27 4.88 1.31 1.52 3.36 2.08 5.3 1.46 3.64-1.07 7.43-2.45 10.02-5.36-1.46.17-2.92.36-4.37.57-.17-.39-.51-1.16-.68-1.55m65.32-.07c-1.33.71-1.38 1.41-.16 2.1 1.33-.74 1.39-1.44.16-2.1m-55.85.94c-.88.05-3.04 1.45-1.38 2.12 1.6.94 4.09-2.71 1.38-2.12m43.86 7.01c2.51-1.47 3.68-4.27 5.35-6.51-3.95-1.41-6.88 2.97-5.35 6.51m-76.94-6c.56.52.56.52.0.0m93.19-.11c.12 1.35.81 1.59 2.05.72-.14-1.37-.82-1.61-2.05-.72M347.26 873c.06 3.32 3.03-1.55.0.0m36.93 1.16c-1.42.65-1.52 1.33-.3 2.04 1.39-.68 1.49-1.36.3-2.04m-46.05.89c-.29.31-.88.95-1.18 1.26.91 3.21 5.09-2.15 1.18-1.26m53.63 3.62c-1.25.67-3.07.91-3.37 2.61.8.0 2.41-.02 3.21-.02-.56 1.51-1.01 3.06-1.3 4.66 5.01-1.41 5.42-7.67 6.19-11.91-2.44.68-4.68 1.82-4.73 4.66m-69.3 4.6c3.09-.36 6.18-.81 9.29-.96-1.4-4.1-8.11-2.82-9.29.96m12.65-2.72c-1.2 1.33 1.11 3.86 2.26 2.05.93-1.3-1.14-2.82-2.26-2.05m8.34 8.89c2.79-.5 4.2-3.42 6.78-4.46.21-.57.63-1.73.85-2.31-3.2 1.36-6.65 3.11-7.63 6.77m26.91-6.28c-.69.26-2.09.79-2.78 1.06l.22.73c2.02-.76 4.16-.63 6.21-.09l-.03-.62c-1.26-.21-2.46-.6-3.62-1.08m-18.83 4.01c-.84 1.43-1.77 2.81-2.75 4.17 3.52-1.16 6.94-2.59 10.46-3.75-2.27-1.68-5.16-.52-7.71-.42m19.7 1.8c.11 3.31 3-1.58.0.0m-30.11 4.3c.53.57.53.57.0.0m37.2 1.9c-2.92 1.45 1.03 3.08 2.13 1.12 1.12-1.42-1.32-2.01-2.13-1.12m8.91 2.14c-.3.29-.92.87-1.22 1.16.84 3.32 5.15-2.13 1.22-1.16m-30.92 6.86c.41.61.41.61.0.0m16.95 6.13c.56.51.56.51.0.0m4.02 4.95c.04 3.3 3.04-1.54.0.0m5.94 3.03c-1.74.24-1.54 2.94.32 1.71 1.63-.32 1.52-2.88-.32-1.71m9.82 9.8c2.71-1 2.1-5.94 5.69-4.83-.28.72-.86 2.16-1.14 2.87.94-1.83 1.97-3.63 3.07-5.37-1.19.31-2.38.63-3.56.97-.09-.45-.27-1.34-.36-1.79-1.93 2.31-4.16 4.89-3.7 8.15m-6.29-5.96c.17.44.5 1.32.67 1.76 1.27-.65 3.26-.68 3.51-2.41-1.4.19-2.8.41-4.18.65m11.53 5.04c-1.63.24-1.27 2.84.44 1.84 1.55-.31 1.22-2.83-.44-1.84m-11.97.95c-.91.01-2.95 1.49-1.32 2.13 1.61.85 4.09-2.65 1.32-2.13z"/><path d="m512.16 803.62c1.45-2.53 5.33-2.29 7.8-3.51-1.06 2.95-5.25 2.58-7.8 3.51z"/><path d="m469.11 802.32c1.42-.34 1.91.17 1.46 1.53-1.44.32-1.93-.19-1.46-1.53z"/><path d="m477.19 805.21c2.83-1.75.43 3.3.0.0z"/><path d="m497.73 814.79c5.04-1.54 10.24-2.76 14.62-5.88-2.69 4.75-9.43 6.45-14.62 5.88z"/><path d="m469.97 810.36c3.34.13-1.52 2.96.0.0z"/><path d="m439.28 835.19c.49.58.49.58.0.0z"/><path d="m418.33 858.27c.52.54.52.54.0.0z"/><path d="m431.31 867.17c2.77-1.87.48 3.31.0.0z"/><path d="m451.3 879.13c1.45-.53 1.83-.07 1.16 1.36-1.45.49-1.84.04-1.16-1.36z"/><path d="m419.27 881.13c3.03-1.48.0 3.32.0.0z"/><path d="m432.29 886.1c3.04-1.44-.03 3.33.0.0z"/><path d="m417.04 889.29c3.33.11-1.57 2.96.0.0z"/><path d="m324.35 890.32c1.44-.65 1.87-.25 1.28 1.2-1.45.63-1.88.24-1.28-1.2z"/><path d="m424.21 898.1c2.82-1.75.39 3.33.0.0z"/></g></svg>