<svg xmlns="http://www.w3.org/2000/svg" width="112pt" height="112pt" viewBox="0 0 112 112"><path fill="#669030" d="m43.1 35.01c4.53-11.38 8.35-23.05 12.83-34.45 2.35-.01 4.71-.12 7.03.25 11.97 2.13 23.97 4.03 35.93 6.2-4.13 12.92-9.29 25.5-13.7 38.33-.4 1.13-.57 2.3-.52 3.5 1.43.41 3.42.02 4.34 1.5-3.02.26-5.65 1.84-8.51 2.68-5.82-1.2-11.65-2.42-17.56-3.12-3.87-.45-7.7-1.18-11.5-2.05-1.49-.3-2.98-.56-4.47-.8-3.07-.44-6.11-1.02-9.14-1.66 1.32-.31 2.63-.66 3.96-.93.48-.03 1.44-.09 1.93-.12.86-1.77 1.73-3.53 2.57-5.32 9.76 1.3 19.55 2.7 29.13 5.02.15 1.51.33 3.03.53 4.54 1.35-2.21 2.35-4.59 3-7.09-11.44-1.84-22.82-4.25-34.36-5.31-.51 1.01-1 2.02-1.48 3.04-.01-1.41-.01-2.81-.01-4.21m14.38-31.72c-3.89 9.62-7.12 19.5-10.82 29.19-.65 1.04.28 1.82.91 2.55 3.99-9.4 6.94-19.21 10.79-28.67 8.73 1.08 17.36 2.89 26.06 4.2 1.2.48 3.13.14 3.68 1.57-2.24 9.53-7.22 18.25-9.26 27.84.4-.14 1.2-.4 1.59-.53 3.44-10.16 7.71-20.07 10.67-30.39-11.17-2.11-22.4-3.96-33.62-5.76m-.28 9.84c-2.58 7.3-5.21 14.57-7.93 21.82 1.19.06 2.39.12 3.58.18.28-1.77.37-3.6.98-5.3 2.27-3.07 6.45-4.06 10.09-3.65 4.25.38 9.07 1.52 11.36 5.52 1.78 2.28.25 5.19.06 7.73 2.46-.6 2.81-3.43 3.7-5.4 2.03-6.04 4.5-11.92 6.38-18.01-1.27-1.75-2.04-4.53-4.57-4.71-5.22-.91-10.46-1.68-15.67-2.63-3.24-.73-7.09 1.13-7.98 4.45m-1.82 18.6c1.11 2.07 1.69 5.43 4.7 5.18 4.63.65 6.02-7.74 10.87-4.8-.2 2.14-.78 4.2-1.56 6.19 1.53-1.04 3.02-2.15 4.5-3.26-.91-1.98-1.34-4.44-3.3-5.7-5.25-1.11-6.66 6.57-11.78 5.84.0-2.37.36-4.72 1.13-6.96-1.42 1.29-2.97 2.44-4.56 3.51M44.83 44.89c4.1 1.94 8.62 1.61 13 1.52 4.52 1.83 9.48 1.77 14.07 3.36.29-.45.88-1.33 1.17-1.78-1.16-1.48-1.93-3.72-4.06-3.97-5.64-1.14-11.32-2.13-17.03-2.87-2.94-.44-5.52 1.46-7.15 3.74z"/><path fill="#8cc53d" d="m57.48 3.29C68.7 5.09 79.93 6.94 91.1 9.05c-2.96 10.32-7.23 20.23-10.67 30.39-.39.13-1.19.39-1.59.53 2.04-9.59 7.02-18.31 9.26-27.84-.55-1.43-2.48-1.09-3.68-1.57-8.7-1.31-17.33-3.12-26.06-4.2-3.85 9.46-6.8 19.27-10.79 28.67-.63-.73-1.56-1.51-.91-2.55 3.7-9.69 6.93-19.57 10.82-29.19z"/><path fill="#8dc640" d="m57.2 13.13c.89-3.32 4.74-5.18 7.98-4.45 5.21.95 10.45 1.72 15.67 2.63 2.53.18 3.3 2.96 4.57 4.71-1.88 6.09-4.35 11.97-6.38 18.01-.89 1.97-1.24 4.8-3.7 5.4.19-2.54 1.72-5.45-.06-7.73-2.29-4-7.11-5.14-11.36-5.52-3.64-.41-7.82.58-10.09 3.65-.61 1.7-.7 3.53-.98 5.3-1.19-.06-2.39-.12-3.58-.18 2.72-7.25 5.35-14.52 7.93-21.82m12.09.26c-1.72.31-3.53 1.65-3.15 3.62-.39 3.45 5.21 5.03 6.9 2.01 1.9-2.51-.75-6.33-3.75-5.63z"/><path fill="#68942e" d="m69.29 13.39c3-.7 5.65 3.12 3.75 5.63-1.69 3.02-7.29 1.44-6.9-2.01-.38-1.97 1.43-3.31 3.15-3.62z"/><path fill="#82b53e" d="m55.38 31.73c1.59-1.07 3.14-2.22 4.56-3.51-.77 2.24-1.13 4.59-1.13 6.96 5.12.73 6.53-6.95 11.78-5.84 1.96 1.26 2.39 3.72 3.3 5.7-1.48 1.11-2.97 2.22-4.5 3.26.78-1.99 1.36-4.05 1.56-6.19-4.85-2.94-6.24 5.45-10.87 4.8-3.01.25-3.59-3.11-4.7-5.18z"/><path fill="#4d4d4d" d="m40.48 40.87c.7-2.02 1.41-4.07 2.62-5.86.0 1.4.0 2.8.01 4.21-.45 1.74-.9 3.49-1.32 5.24-1.33.27-2.64.62-3.96.93-.39-.06-1.17-.17-1.56-.23.88-1.03 1.76-2.07 2.63-3.1-4-.46-8.07-.94-12.08-.25-4.07 1.98-7.9 4.43-11.56 7.09-1.95 1.53-4.23 3.36-3.99 6.15-.08 6.09-.4 12.25.45 18.29.36 3.55 4.76 2.94 7.34 3.13-.53 1.22-1.79 1.75-3.07 1.44-2.16-.19-5.28-.55-5.56-3.28-1.33-6.78-1.02-13.77-.77-20.64.28-4.13 4.36-5.98 7.41-7.92 3.38-1.89 6.45-4.4 10.08-5.81 4.45-.61 8.89.35 13.33.61z"/><path fill="#4d4d4d" d="m23.33 66.25c15.53 2.97 31.01 6.13 46.56 9.02.11 1.58.24 3.17.46 4.74-1.3.2-2.61.39-3.91.57-2.8 8.38-6.1 16.6-8.95 24.97-.77 2.16-1.45 4.45-3.09 6.14-.1-.64-.31-1.92-.41-2.56 2.85-10.04 7.94-19.4 9.94-29.68-.97-.17-1.93-.34-2.89-.51-.43-.07-1.29-.21-1.72-.28-1.65-.26-3.29-.56-4.94-.85-.58-.09-1.75-.26-2.33-.35-.71-.09-2.13-.26-2.84-.34-.47-.05-1.4-.14-1.87-.19-2.25-.3-4.48-.7-6.71-1.1-.32-.05-.96-.16-1.28-.21-1.19-.23-2.37-.46-3.55-.69-.65-.11-1.95-.33-2.6-.44l-.94-.14c-.58-.1-1.75-.28-2.34-.37-2.26-.37-4.56-.44-6.84-.32.22-2.46.21-4.94.25-7.41z"/><path fill="#8cc53e" d="m44.59 36.18c11.54 1.06 22.92 3.47 34.36 5.31-.65 2.5-1.65 4.88-3 7.09-.2-1.51-.38-3.03-.53-4.54-9.58-2.32-19.37-3.72-29.13-5.02-.84 1.79-1.71 3.55-2.57 5.32-.49.03-1.45.09-1.93.12.42-1.75.87-3.5 1.32-5.24.48-1.02.97-2.03 1.48-3.04z"/><path fill="#8cc63f" d="m44.83 44.89c1.63-2.28 4.21-4.18 7.15-3.74 5.71.74 11.39 1.73 17.03 2.87 2.13.25 2.9 2.49 4.06 3.97-.29.45-.88 1.33-1.17 1.78-4.59-1.59-9.55-1.53-14.07-3.36-4.38.09-8.9.42-13-1.52z"/><path fill="#9c9c9c" d="m15.26 48.9c3.66-2.66 7.49-5.11 11.56-7.09.84 1.19 1.7 2.38 2.57 3.55-2.75 1.61-5.44 3.3-8.09 5.05-1.18.71-2.43 1.69-3.9 1.3-.79-.88-1.5-1.82-2.14-2.81z"/><path fill="#9c9c9c" d="m14.02 56.26c.74-.11 2.23-.35 2.97-.47 1.22 1.56 1.37 3.42 1.1 5.31-1.4-.05-2.8-.04-4.2.02-.35-1.62-.47-3.28.13-4.86m1.13 1.19c-1.18.93.18 3.35 1.53 2.29 1.17-.93-.19-3.33-1.53-2.29z"/><path fill="#e7e7e7" d="m26.82 41.81c4.01-.69 8.08-.21 12.08.25-.87 1.03-1.75 2.07-2.63 3.1.39.06 1.17.17 1.56.23 3.03.64 6.07 1.22 9.14 1.66-.65.61-1.3 1.22-1.96 1.83 1.76.65 3.51 1.32 5.26 1.99-1.71 1.12-3.39 2.29-5.1 3.4-.11 1.57-.23 3.14-.36 4.72l-.94-.26c-.4-3.39-.37-6.8-.42-10.21-.44-.17-1.32-.52-1.76-.7.77 3.41.91 6.92.64 10.4-9.93-1.17-19.58-4.24-29.57-5 1.65.75 3.34 1.44 5.13 1.8 19.24 3.95 38.63 7.17 57.88 11.14 2.83.61 5.67 1.15 8.56 1.38-1.43-1.12-3.12-1.79-4.91-2.01-10.14-1.71-20.16-4.07-30.32-5.64 1.07-.71 2.15-1.41 3.23-2.1-1.78-.7-3.57-1.38-5.36-2.04 1.68-.99 3.41-1.93 4.92-3.18.78-1.47-.31-3.18-.45-4.72 3.8.87 7.63 1.6 11.5 2.05-.23 3.08-.27 6.17-.06 9.25 1.24-1.38 2.47-2.77 3.68-4.18 1.12 1.39 2.25 2.79 3.32 4.22-.05-2.6-.14-5.26.89-7.71.81 2.03 1.15 4.19 1.27 6.37.44.28 1.33.83 1.78 1.11.26-1.43.52-2.86.76-4.29 1.99-.51 3.96-1.05 5.92-1.65 2.86-.84 5.49-2.42 8.51-2.68 2.6.12 5.2.15 7.8.25-2.19.07-4.36.38-6.44 1.04-4.34 3.07-8.14 6.83-11.81 10.65 2.44.8 4.97 1.32 7.53 1.49-1.36 8.54-1.7 17.24-.82 25.85 1.79-2.89.97-6.42 1.1-9.62.08-4.96-.66-10.38 1.84-14.89 3.4-4.47 8.63-7.27 11.58-12.15-.33 8.83.38 17.71-.35 26.5-3.78 4.33-8.1 8.18-12.18 12.23-5 .18-9.88-.94-14.71-2.06.16-3.44-.09-6.83-2.2-9.62-.22-1.57-.35-3.16-.46-4.74-15.55-2.89-31.03-6.05-46.56-9.02-.04 2.47-.03 4.95-.25 7.41l-.25.95c-1.28.57-2.53 1.2-3.77 1.86-2.58-.19-6.98.42-7.34-3.13-.85-6.04-.53-12.2-.45-18.29-.24-2.79 2.04-4.62 3.99-6.15.64.99 1.35 1.93 2.14 2.81 1.47.39 2.72-.59 3.9-1.3 2.65-1.75 5.34-3.44 8.09-5.05-.87-1.17-1.73-2.36-2.57-3.55m-12.8 14.45c-.6 1.58-.48 3.24-.13 4.86 1.4-.06 2.8-.07 4.2-.02.27-1.89.12-3.75-1.1-5.31-.74.12-2.23.36-2.97.47z"/><path fill="#c2c3c1" d="m46.97 47.05c1.49.24 2.98.5 4.47.8.14 1.54 1.23 3.25.45 4.72-1.51 1.25-3.24 2.19-4.92 3.18 1.79.66 3.58 1.34 5.36 2.04-1.08.69-2.16 1.39-3.23 2.1-1.44-.27-2.87-.57-4.29-.9.13-1.58.25-3.15.36-4.72 1.71-1.11 3.39-2.28 5.1-3.4-1.75-.67-3.5-1.34-5.26-1.99.66-.61 1.31-1.22 1.96-1.83z"/><path fill="#80807f" d="m41.69 47.82c.44.18 1.32.53 1.76.7.05 3.41.02 6.82.42 10.21l.94.26c1.42.33 2.85.63 4.29.9 10.16 1.57 20.18 3.93 30.32 5.64 1.79.22 3.48.89 4.91 2.01-2.89-.23-5.73-.77-8.56-1.38-19.25-3.97-38.64-7.19-57.88-11.14-1.79-.36-3.48-1.05-5.13-1.8 9.99.76 19.64 3.83 29.57 5 .27-3.48.13-6.99-.64-10.4z"/><path fill="#80807f" d="m78.56 62.28c3.67-3.82 7.47-7.58 11.81-10.65 1.9.66 3.8 1.32 5.7 1.97-3.17 3.55-6.98 6.46-9.98 10.17-2.56-.17-5.09-.69-7.53-1.49z"/><path fill="#cdcbcc" d="m62.94 49.9c5.91.7 11.74 1.92 17.56 3.12-1.96.6-3.93 1.14-5.92 1.65-.24 1.43-.5 2.86-.76 4.29-.45-.28-1.34-.83-1.78-1.11-.12-2.18-.46-4.34-1.27-6.37-1.03 2.45-.94 5.11-.89 7.71-1.07-1.43-2.2-2.83-3.32-4.22-1.21 1.41-2.44 2.8-3.68 4.18-.21-3.08-.17-6.17.06-9.25z"/><path fill="#9e9e9e" d="m90.37 51.63c2.08-.66 4.25-.97 6.44-1.04 1.31.34 3.46.48 2.98 2.37-2.95 4.88-8.18 7.68-11.58 12.15-2.5 4.51-1.76 9.93-1.84 14.89-.13 3.2.69 6.73-1.1 9.62-.88-8.61-.54-17.31.82-25.85 3-3.71 6.81-6.62 9.98-10.17-1.9-.65-3.8-1.31-5.7-1.97z"/><path fill="#d9d9d9" d="m15.15 57.45c1.34-1.04 2.7 1.36 1.53 2.29-1.35 1.06-2.71-1.36-1.53-2.29z"/><path fill="#679130" d="m23.08 73.66c2.28-.12 4.58-.05 6.84.32-2.77 10.02-7.73 19.36-9.93 29.54 11.34 1.84 22.66 3.82 34 5.61.1.64.31 1.92.41 2.56-3.15.04-6.32.05-9.41-.57-10.96-2.01-21.95-3.8-32.94-5.61 2.99-10.49 7.66-20.44 10.78-30.9z"/><path fill="#8cc63d" d="m29.92 73.98c.59.09 1.76.27 2.34.37-3.84 8.64-6.9 17.63-9.97 26.57 10.07 1.89 20.14 4.08 30.37 4.96 2.9-7.29 5.36-14.75 8.11-22.09.54-1.77 1.85-3.11 3.16-4.34-2 10.28-7.09 19.64-9.94 29.68-11.34-1.79-22.66-3.77-34-5.61 2.2-10.18 7.16-19.52 9.93-29.54z"/><path fill="#67962c" d="m22.29 100.92c3.07-8.94 6.13-17.93 9.97-26.57l.94.14c-2.32 7.57-5.45 14.85-7.91 22.37 3.21 5.64 10.39 4.66 15.84 6.07 4.02.87 9.68 1.69 12-2.66 2.91-7 5.09-14.29 7.91-21.33.96.17 1.92.34 2.89.51-1.31 1.23-2.62 2.57-3.16 4.34-2.75 7.34-5.21 14.8-8.11 22.09-10.23-.88-20.3-3.07-30.37-4.96z"/><path fill="#8ec640" d="m33.2 74.49 2.6.44c-2.25 3.65.27 7.94 3.83 9.51 4.03 1.76 8.75 2.53 13.05 1.3 3.39-.95 4.8-4.44 6.64-7.08l1.72.28c-2.82 7.04-5 14.33-7.91 21.33-2.32 4.35-7.98 3.53-12 2.66-5.45-1.41-12.63-.43-15.84-6.07 2.46-7.52 5.59-14.8 7.91-22.37m6.13 17.73c-2.11.86-2.9 3.99-1.14 5.56 1.86 2.21 6.42 1.21 6.59-1.89.46-2.82-3.02-5.04-5.45-3.67z"/><path fill="#67902e" d="m35.8 74.93c1.18.23 2.36.46 3.55.69-.53.37-1.6 1.12-2.14 1.5.73 1.95 1.42 3.9 2.11 5.86 4.43.62 7.37-2.79 9.89-5.86.71.08 2.13.25 2.84.34-.28 2.17-.61 4.34-.97 6.5 1.4-1.15 2.8-2.28 4.21-3.42-.31-.91-.61-1.82-.91-2.73 1.65.29 3.29.59 4.94.85-1.84 2.64-3.25 6.13-6.64 7.08-4.3 1.23-9.02.46-13.05-1.3-3.56-1.57-6.08-5.86-3.83-9.51z"/><path fill="#87ba43" d="m39.35 75.62c.32.05.96.16 1.28.21-.2 1.71-.39 3.41-.59 5.12 3.3.7 5.36-1.83 7.3-4.02.47.05 1.4.14 1.87.19-2.52 3.07-5.46 6.48-9.89 5.86-.69-1.96-1.38-3.91-2.11-5.86.54-.38 1.61-1.13 2.14-1.5z"/><path fill="#688f33" d="m40.63 75.83c2.23.4 4.46.8 6.71 1.1-1.94 2.19-4 4.72-7.3 4.02.2-1.71.39-3.41.59-5.12z"/><path fill="#84b143" d="m52.05 77.46c.58.09 1.75.26 2.33.35.3.91.6 1.82.91 2.73-1.41 1.14-2.81 2.27-4.21 3.42.36-2.16.69-4.33.97-6.5z"/><path fill="#68952f" d="m39.33 92.22c2.43-1.37 5.91.85 5.45 3.67-.17 3.1-4.73 4.1-6.59 1.89-1.76-1.57-.97-4.7 1.14-5.56z"/></svg>