<svg clip-rule="evenodd" fill-rule="evenodd" viewBox="0 0 112 112" xmlns="http://www.w3.org/2000/svg"><g fill-rule="nonzero" stroke-width=".09"><path d="m46.48 6.49c33.99-8.14 67.93 26.37 59.21 60.22-5.71 33.48-48.63 51.53-76.6 32.25-17.06-10.55-26.57-31.89-22.74-51.63 3.29-20.17 20.02-37.2 40.13-40.84" fill="#86c8dd" stroke="#86c8dd"/><g stroke="#000"><path d="m52.75 0h6.33c27.46 1.67 51.69 24.84 52.92 52.61v7.09c-1.23 27.33-24.93 51.02-52.25 52.3h-7.09c-27.64-1.22-50.75-25.18-52.66-52.49v-6.53c1.81-27.64 25.13-51.04 52.75-52.98m-6.27 6.49c-20.11 3.64-36.84 20.67-40.13 40.84-3.83 19.74 5.68 41.08 22.74 51.63 27.97 19.28 70.89 1.23 76.6-32.25 8.72-33.85-25.22-68.36-59.21-60.22z"/><path d="m85.51 28.52c4.26-1.18 6.44 5.6 2.14 7.05-4.5 1.97-7.17-6.02-2.14-7.05z"/><path d="m38.48 35.78c4.48-1.94 7.62 5.82 2.7 7.43-4.77 2.26-7.98-6.11-2.7-7.43z"/><path d="m51.522 56.039c7.523-2.737 27.469-3.623 31.031-2.87 2.433.514 4.065 3.069 4.197 5.487.327 6.021 2.641 26.588-11.03 30.044-11.633 2.941-28.363 7.777-34.747 4.592s-6.582-15.659-3.558-23.701c2.737-9.679 7.202-11.039 14.107-13.552z"/></g><path d="m39.58 70.86c5.12-17.49 35.097-17.319 42.03-15.55s1.611 20.673-.429 26.162c-1.656 4.455-7.211 5.568-11.811 6.768-4.14-12.77-17.28-17.98-29.79-17.38z" fill="#4e5aaf" stroke="#4e5aaf"/><path d="m44.06 92.91c-9.09-3.06-7.28-15.02-4.48-22.05 12.51-.6 25.65 4.61 29.79 17.38-8.33 1.85-16.71 5.07-25.31 4.67z" fill="#a85354" stroke="#a85354"/></g></svg>