<svg xmlns="http://www.w3.org/2000/svg" width="128pt" height="128pt" viewBox="0 0 128 128"><path fill="#fac118" d="m34.85 6.93c.97-1.97 3.35-1.52 5.11-1.29 6.35 1.99 11.9 5.86 17.93 8.59 11.09-.81 22.35-.72 33.21 1.93 3.01.46 5.86 1.81 8.88 2.06 7.3-.91 14.68-.99 22.03-.94 1.46.19 3.63-.11 4.07 1.78.63 3.94.25 7.97.17 11.94-.18 7.5-4.18 14.57-2.9 22.16.84 5.61.6 11.33-.48 16.88-.52 3.34-2.05 6.52-1.74 9.97-.38 4.81 2.91 9.32 1.22 14.11-2.31 6.22-8.72 9.43-14.48 11.8-13.58 6.16-28.74 7.57-43.49 7.53 2.41-1.67 5.04-3.02 7.22-5-2.58-5.37-5.28-11.34-3.43-17.41 2.23-3.8 6.33-6.5 10.8-6.63 5.09-.91 8.65 3.52 13.08 5.11 3.61-3 5.82-7.4 8.17-11.4 2.01-3.73 3.23-7.8 4.11-11.92 3.62-.12 7.26.2 10.87-.1l.56-1.12c-3.21-2.36-7.55-.64-11.25-1.25.01-.59.02-1.77.03-2.36-.06-1.55-.12-3.1-.2-4.64 4.46-.4 9.51.68 13.51-1.69-4.46-2.31-9.66 1.14-14.4.23-2.72-6.76-9.51-10.92-16.5-12 1.18-3.25.67-7.81-3-9.1-5.49-.86-9.88 5.15-8.76 10.27-5.56 2.79-10.71 6.44-14.99 10.97-.73.05-1.47.04-2.19-.15-2.41-4.52-5.72-8.48-9.1-12.3 3.79-3.12 5.17-10.21.07-12.75-4.78-.96-8.35 3.46-9.47 7.6-5.56-1.83-11.53-1.02-16.83 1.25 1.42-2.44 4.07-4.16 4.72-7.02 1.23-5.27 2.27-10.61 4.2-15.68 1.26-3.09.99-6.78 3.25-9.43z"/><path fill="#fac118" d="m10.87 68.24.37-.65c.57 3.23.94 6.72 2.9 9.47 2.02-.67 3.8-1.93 5.89-2.39 4.89-.68 10.23 1.06 13.5 4.83 1.7 1.91 1.41 4.64.96 6.96-1.97 4.73-5.65 8.38-8.46 12.56-.02 1.62 1.73 2.6 2.54 3.88 1.79 2.29 3.76 4.43 5.56 6.72-8.6-1.95-17.23-5.99-22.83-13.03-1.13-1.29-1.2-3.09-1.51-4.7-.98-7.87-.43-15.88 1.08-23.65z"/><g fill="#61cff8"><path d="m2.17 30.01c6.41 3.05 12.36 7.07 18.79 10.09l1.72-1.04c5.3-2.27 11.27-3.08 16.83-1.25 3.42 1.1 6.84 2.56 9.4 5.15 3.38 3.82 6.69 7.78 9.1 12.3-6.91-1.42-13.98-2.03-20.97-3.03.73-1.67 2.14-3.42 1.3-5.33-1.15-3.48-5.3-4.76-8.64-4.38-4.49.54-7.9 3.86-10.69 7.14-1.76-.16-3.52-.34-5.27-.55-.11-.36-.32-1.09-.43-1.46-4-1.64-8.04-3.27-11.91-5.17-.05-.3-.17-.92-.22-1.22 4.78.01 9.22 3.17 13.9 4.23.53-1.67 3.24-2.47 2.71-4.37-4.96-2.59-9.65-5.66-14.49-8.48-1.02-.53-1.4-1.4-1.13-2.63z"/><path d="m75.19 44.44c3.7-1.54 7.82-1.85 11.76-1.17 6.99 1.08 13.78 5.24 16.5 12 .22.37.67 1.09.89 1.46.08 1.54.14 3.09.2 4.64C89.77 59.31 75 57.26 60.2 55.41c4.28-4.53 9.43-8.18 14.99-10.97z"/><path d="m28.57 102.9c14.38 1.56 28.65 4 43.03 5.55-2.18 1.98-4.81 3.33-7.22 5-5.51 3.31-11.17 6.47-17.2 8.75-4.84-3.66-9.16-7.94-13.05-12.58-1.8-2.29-3.77-4.43-5.56-6.72z"/></g><path fill="#30302f" d="m39.51 37.81c1.12-4.14 4.69-8.56 9.47-7.6 5.1 2.54 3.72 9.63-.07 12.75-2.56-2.59-5.98-4.05-9.4-5.15z"/><path fill="#30302f" d="m75.19 44.44c-1.12-5.12 3.27-11.13 8.76-10.27 3.67 1.29 4.18 5.85 3 9.1-3.94-.68-8.06-.37-11.76 1.17z"/><path fill="#a0e2fb" d="m29.7 42.52c3.34-.38 7.49.9 8.64 4.38.84 1.91-.57 3.66-1.3 5.33l-.86-.08c-5.78-.77-11.54-1.73-17.35-2.24l.18-.25c2.79-3.28 6.2-6.6 10.69-7.14z"/><path fill="#a0e2fb" d="m103.45 55.27c4.74.91 9.94-2.54 14.4-.23-4 2.37-9.05 1.29-13.51 1.69-.22-.37-.67-1.09-.89-1.46z"/><path fill="#f3aab8" d="m13.1 49.04.64.07c1.75.21 3.51.39 5.27.55l-.18.25c-1.66 2.67-3.01 5.74-2.54 8.97.69 2.98 3.83 6.16 7.07 4.51 2.47-2.29 3.54-5.72 6.06-7.98 1.87-1.75 4.4-2.44 6.76-3.26l.86.08c6.99 1 14.06 1.61 20.97 3.03.72.19 1.46.2 2.19.15 14.8 1.85 29.57 3.9 44.34 5.96-.01.59-.02 1.77-.03 2.36 3.7.61 8.04-1.11 11.25 1.25l-.56 1.12c-3.61.3-7.25-.02-10.87.1-.88 4.12-2.1 8.19-4.11 11.92-27.04-3.99-54.19-7.34-81.26-11.15-2.27-.32-4.54-.66-6.83-.76-.23.34-.67 1.03-.89 1.38l-.37.65c-.13-6.47-.96-13.22 2.23-19.2z"/><path fill="#f3aab8" d="m26.03 99.02c2.81-4.18 6.49-7.83 8.46-12.56 11.25 1.33 22.49 2.81 33.68 4.58-1.85 6.07.85 12.04 3.43 17.41-14.38-1.55-28.65-3.99-43.03-5.55-.81-1.28-2.56-2.26-2.54-3.88z"/><path fill="#f8ccd4" d="m18.83 49.91c5.81.51 11.57 1.47 17.35 2.24-2.36.82-4.89 1.51-6.76 3.26-2.52 2.26-3.59 5.69-6.06 7.98-3.24 1.65-6.38-1.53-7.07-4.51-.47-3.23.88-6.3 2.54-8.97z"/><path fill="#e6e6e6" d="m12.13 66.21c2.29.1 4.56.44 6.83.76 27.07 3.81 54.22 7.16 81.26 11.15-2.35 4-4.56 8.4-8.17 11.4-4.43-1.59-7.99-6.02-13.08-5.11-4.47.13-8.57 2.83-10.8 6.63-11.19-1.77-22.43-3.25-33.68-4.58.45-2.32.74-5.05-.96-6.96-3.27-3.77-8.61-5.51-13.5-4.83-2.09.46-3.87 1.72-5.89 2.39-1.96-2.75-2.33-6.24-2.9-9.47.22-.35.66-1.04.89-1.38z"/></svg>