<svg xmlns="http://www.w3.org/2000/svg" width="128pt" height="128pt" viewBox="0 0 128 128"><g fill="#010101"><path d="m35.48 29.47c10.17-10.12 27.24-11.93 39.35-4.27 7.89 4.74 13.54 13.06 14.87 22.19.46 3.65 1.46 7.21 2.08 10.83.49 2.87-1.41 5.33-3.16 7.36-3.08 3.48-5.81 7.26-8.85 10.78 2.67 1.61 5.18 4.84 8.64 3.97 8.26-1.55 16.78-3.2 25.16-1.53 4.27.84 8.58 2.97 10.85 6.84 2.67 4.6 2.19 10.41.19 15.17-1.46 3.35-5.05 4.81-7.54 7.23-1.42 6.5-1.29 13.31-1.22 19.96h-3.18c-1.57-2.87-2.97-5.99-5.63-8.04-5.91-4.85-13.62-6.57-20.95-7.95-4.06 4.93-9.19 10.2-16.07 10.18-7.17-.34-12.11-6.33-15.71-11.89-18.19.7-36.35 2.46-54.31 5.39v-4.25c16.87-2.82 33.95-4.49 51.05-5.21 4.36-.21 8.08-2.76 12.23-3.82 4.59-1.39 9.44-1.01 14.15-.64-.02-4.26-.02-8.52.0-12.77-21.89 5.54-44.9.79-65.64-6.96.03-.95.1-2.85.13-3.79 7.67 1.71 14.97 4.79 22.7 6.27 15.18 3.21 31.56 4.47 46.3-1.35-.92-2.44-4.3-4.56-6.75-2.97-4.45 2.13-9.12 4.09-14.14 4.26-11.84.9-23.85-5.36-29.86-15.61-7.67-12.27-5.28-29.56 5.31-39.38m5.59-2.39c-8.34 5.35-13.73 15.01-13.78 24.93-.19 8.33 3.32 16.63 9.34 22.36 7.43 7.19 18.56 10.15 28.59 7.66 7.05-1.55 12.93-6.08 17.61-11.4-.56-.35-1.68-1.05-2.24-1.4 4.02-2.4 9.2-5.01 9.75-10.25.23-5.52-5.32-8.17-7.78-12.35 2.39.7 4.2 2.44 6.1 3.96-.91-10.6-7.33-20.6-16.96-25.28-9.57-4.84-21.7-4.18-30.63 1.77m49.62 56.97c-1.13 1.12-.85 1.57.84 1.33 8.67 2 17.95 1.29 26.25 4.91-.15 4.11-.59 8.22-.49 12.34 6.17-3.89 6.59-15.19-.54-18.32-8.28-3.54-17.5-1.43-26.06-.26M79.77 87.8c-.05 5.19-.1 10.38.04 15.57 2.01-1.47 3.71-3.61 6.31-4.02-.67 1.31-1.4 2.58-2.15 3.84 3.57.52 7.13 1.16 10.72 1.53-.79-6.55-3.75-12.64-8.14-17.52-2.28-.19-4.57.01-6.78.6m13.14.34c3.41 5.11 5.52 10.96 6.21 17.06 3.5.06 7.01.09 10.49-.28.42-4.81.8-9.63 1.05-14.45-5.91-.84-11.83-1.59-17.75-2.33m20.07 2.87c-.33 4.46-.58 8.92-.84 13.39.61-.17 1.81-.5 2.41-.67.12-3.88.89-7.75.66-11.64-.56-.27-1.67-.81-2.23-1.08m-56.52 18.24c3.21 4.74 7.33 10.27 13.59 10.51 6.79.03 11.3-5.86 15.27-10.56-4.22 1.91-8.63 3.78-13.35 3.67-5.42.25-10.64-1.43-15.51-3.62m41.68.52c3.42 2.39 7.48 3.66 10.9 6.06.18-2.19.32-4.39.39-6.59-3.76.28-7.54.06-11.29.53m13.84-.77c-.38 3.87-1.95 8.6 1.42 11.6.32-4.2.72-8.4.89-12.61-.58.25-1.73.76-2.31 1.01z"/><path d="m31.05 38.38c4.39-.24 8.79-.24 13.18-.08 1.39 3.54-3.26 1.85-5.22 2.22 1.24 1.79 2.5 3.86 1.77 6.12-1.02 3.89-6.8 4.97-9.08 1.57-2.67-2.97 1.25-6.57-.65-9.83z"/><path d="m51.84 40.07c1.04-1.29 2.54-1.88 4.18-1.66 4.21.18 8.49-.37 12.66.28.43.37 1.3 1.11 1.74 1.48-2.41.59-4.89.61-7.36.58 1.24 2.09 2.53 4.84.9 7.11-1.88 3.19-7.01 3.17-8.85-.04-1.6-2.21-.37-4.86.81-6.91-1.37-.24-2.73-.52-4.08-.84z"/><path d="m41.25 65.21c4.82-5.77 11.3-10.64 18.74-12.29 6.66-1.57 13.54 3.19 15.51 9.5.91 1.92-.8 3.8-2.47 4.54-4.09 1.75-8.67 1.43-13.01 1.32-3.72-.31-7.68-.28-10.95-2.33-2.38-1.41-5.22-.62-7.82-.74m25.13 1.48c2.85-.46 6.91-.26 7.8-3.75-3.32-.96-6.02 1.19-7.8 3.75z"/><path d="m77.43 64.59c.51.01 1.53.03 2.04.04-.08 1.66-.14 3.33-.34 4.99-.9-1.55-1.46-3.26-1.7-5.03z"/><path d="m73.36 68.48c1.64-.52 2.19.03 1.66 1.63-1.62.53-2.17-.01-1.66-1.63z"/></g><g fill="#fff"><path d="m41.07 27.08c8.93-5.95 21.06-6.61 30.63-1.77 9.63 4.68 16.05 14.68 16.96 25.28-1.9-1.52-3.71-3.26-6.1-3.96 2.46 4.18 8.01 6.83 7.78 12.35-.55 5.24-5.73 7.85-9.75 10.25.56.35 1.68 1.05 2.24 1.4-4.68 5.32-10.56 9.85-17.61 11.4-10.03 2.49-21.16-.47-28.59-7.66-6.02-5.73-9.53-14.03-9.34-22.36.05-9.92 5.44-19.58 13.78-24.93m-10.02 11.3c1.9 3.26-2.02 6.86.65 9.83 2.28 3.4 8.06 2.32 9.08-1.57.73-2.26-.53-4.33-1.77-6.12 1.96-.37 6.61 1.32 5.22-2.22-4.39-.16-8.79-.16-13.18.08m20.79 1.69c1.35.32 2.71.6 4.08.84-1.18 2.05-2.41 4.7-.81 6.91 1.84 3.21 6.97 3.23 8.85.04 1.63-2.27.34-5.02-.9-7.11 2.47.03 4.95.01 7.36-.58-.44-.37-1.31-1.11-1.74-1.48-4.17-.65-8.45-.1-12.66-.28-1.64-.22-3.14.37-4.18 1.66M41.25 65.21c2.6.12 5.44-.67 7.82.74 3.27 2.05 7.23 2.02 10.95 2.33 4.34.11 8.92.43 13.01-1.32 1.67-.74 3.38-2.62 2.47-4.54-1.97-6.31-8.85-11.07-15.51-9.5-7.44 1.65-13.92 6.52-18.74 12.29m36.18-.62c.24 1.77.8 3.48 1.7 5.03.2-1.66.26-3.33.34-4.99-.51-.01-1.53-.03-2.04-.04m-4.07 3.89c-.51 1.62.04 2.16 1.66 1.63.53-1.6-.02-2.15-1.66-1.63z"/><path d="m66.38 66.69c1.78-2.56 4.48-4.71 7.8-3.75-.89 3.49-4.95 3.29-7.8 3.75z"/><path d="m91.53 85.38c-1.69.24-1.97-.21-.84-1.33.21.33.63 1 .84 1.33z"/><path d="m79.77 87.8c2.21-.59 4.5-.79 6.78-.6 4.39 4.88 7.35 10.97 8.14 17.52-3.59-.37-7.15-1.01-10.72-1.53.75-1.26 1.48-2.53 2.15-3.84-2.6.41-4.3 2.55-6.31 4.02-.14-5.19-.09-10.38-.04-15.57z"/><path d="m92.91 88.14c5.92.74 11.84 1.49 17.75 2.33-.25 4.82-.63 9.64-1.05 14.45-3.48.37-6.99.34-10.49.28-.69-6.1-2.8-11.95-6.21-17.06z"/><path d="m112.98 91.01c.56.27 1.67.81 2.23 1.08.23 3.89-.54 7.76-.66 11.64-.6.17-1.8.5-2.41.67.26-4.47.51-8.93.84-13.39z"/><path d="m56.46 109.25c4.87 2.19 10.09 3.87 15.51 3.62 4.72.11 9.13-1.76 13.35-3.67-3.97 4.7-8.48 10.59-15.27 10.56-6.26-.24-10.38-5.77-13.59-10.51z"/><path d="m98.14 109.77c3.75-.47 7.53-.25 11.29-.53-.07 2.2-.21 4.4-.39 6.59-3.42-2.4-7.48-3.67-10.9-6.06z"/><path d="m111.98 109c.58-.25 1.73-.76 2.31-1.01-.17 4.21-.57 8.41-.89 12.61-3.37-3-1.8-7.73-1.42-11.6z"/><path d="m0 115.69c17.96-2.93 36.12-4.69 54.31-5.39 3.6 5.56 8.54 11.55 15.71 11.89 6.88.02 12.01-5.25 16.07-10.18 7.33 1.38 15.04 3.1 20.95 7.95 2.66 2.05 4.06 5.17 5.63 8.04H0z"/></g></svg>