<?xml version="1.0" encoding="UTF-8" ?>
<!DOCTYPE svg PUBLIC "-//W3C//DTD SVG 1.1//EN" "http://www.w3.org/Graphics/SVG/1.1/DTD/svg11.dtd">
<svg width="225pt" height="309pt" viewBox="0 0 225 309" version="1.1" xmlns="http://www.w3.org/2000/svg">
<g id="#ffffffff">
<path fill="#ffffff" opacity="1.00" d=" M 100.57 137.22 C 101.98 137.39 103.40 137.57 104.81 137.75 C 104.80 139.01 104.77 140.27 104.72 141.53 C 103.66 141.61 101.55 141.78 100.50 141.86 C 100.52 140.70 100.55 138.38 100.57 137.22 Z" />
<path fill="#ffffff" opacity="1.00" d=" M 78.88 139.13 C 79.16 138.78 79.72 138.07 80.00 137.72 C 80.15 139.76 80.56 141.75 81.45 143.60 C 82.46 144.50 83.45 145.43 84.42 146.39 C 82.74 145.67 81.08 144.91 79.47 144.07 C 78.95 144.04 77.91 143.99 77.39 143.96 C 76.69 143.27 75.99 142.57 75.29 141.89 C 76.30 140.73 77.27 139.44 78.88 139.13 Z" />
<path fill="#ffffff" opacity="1.00" d=" M 107.28 138.17 C 108.63 138.28 109.99 138.44 111.20 139.11 C 112.50 139.78 113.83 140.41 115.18 140.99 C 114.69 141.53 114.20 142.08 113.72 142.63 C 110.94 143.75 108.24 145.06 105.55 146.37 C 105.94 145.59 106.73 144.04 107.12 143.26 C 107.21 141.56 107.24 139.86 107.28 138.17 Z" />
</g>
<g id="#000000ff">
<path fill="#000000" opacity="1.00" d=" M 0.15 3.44 C 1.29 2.24 2.22 0.73 3.79 0.03 C 6.15 0.46 8.40 1.36 10.68 2.08 C 18.15 3.97 25.43 6.31 32.71 8.84 C 33.13 8.93 33.97 9.11 34.39 9.20 C 36.53 10.25 38.68 11.28 40.77 12.43 C 41.40 12.45 42.65 12.48 43.28 12.49 C 46.14 13.70 49.00 14.92 51.70 16.48 C 54.73 16.99 57.98 17.01 60.53 18.98 C 63.12 19.98 65.84 20.57 68.43 21.58 C 71.59 23.63 75.25 24.63 78.59 26.31 C 81.57 27.64 84.71 28.57 87.58 30.15 C 91.09 32.46 95.55 33.04 98.67 35.96 C 99.21 36.01 100.30 36.10 100.84 36.15 C 101.80 36.60 102.76 37.05 103.72 37.49 C 104.27 38.05 104.82 38.61 105.37 39.17 C 108.82 39.70 111.42 42.16 114.39 43.78 C 116.40 44.10 118.32 44.83 120.02 45.96 C 124.32 48.78 128.98 51.00 133.56 53.31 C 137.23 54.93 141.07 56.39 144.17 59.01 C 146.25 60.21 148.37 61.33 150.57 62.28 C 154.10 63.83 157.46 65.76 160.38 68.29 C 162.93 70.10 165.67 71.60 168.58 72.77 C 169.59 73.51 170.57 74.29 171.56 75.07 C 172.39 75.39 173.22 75.70 174.07 76.00 C 175.82 77.31 177.61 78.59 179.46 79.77 C 186.19 82.21 190.61 88.01 196.72 91.46 C 199.31 94.12 201.98 96.70 204.64 99.28 C 206.26 102.71 208.62 105.69 211.17 108.48 C 212.66 110.59 213.84 112.93 214.30 115.49 C 216.24 119.01 217.26 122.91 218.83 126.59 C 219.97 129.68 220.64 132.92 221.15 136.17 C 221.73 138.05 221.93 140.02 221.90 141.98 C 221.85 153.68 221.85 165.37 221.89 177.07 C 221.59 177.45 220.99 178.22 220.68 178.60 C 220.69 179.27 220.70 180.61 220.71 181.28 C 218.66 183.97 218.43 187.29 217.98 190.51 C 217.33 191.38 216.67 192.25 216.01 193.12 C 216.47 193.96 216.93 194.80 217.39 195.64 C 217.42 198.70 217.09 201.85 217.95 204.84 C 219.40 210.13 217.55 215.77 219.20 221.03 C 219.64 222.62 220.10 224.20 220.63 225.76 C 221.36 232.09 219.58 238.77 221.77 244.85 C 221.99 251.89 221.81 258.94 221.84 265.99 C 221.81 267.64 222.04 269.31 222.86 270.79 C 223.62 277.09 221.88 283.71 223.86 289.80 C 224.36 294.35 223.17 299.13 225.00 303.48 L 225.00 309.00 L 220.95 309.00 C 220.75 306.82 220.58 304.61 219.80 302.55 C 219.29 298.42 220.36 294.03 218.62 290.13 C 218.28 284.41 218.69 278.67 218.31 272.96 C 217.87 271.98 217.58 270.97 217.42 269.92 C 216.85 261.54 218.31 253.02 216.47 244.75 C 215.80 238.85 216.61 232.89 216.01 226.98 C 213.30 218.90 214.74 210.25 212.62 202.07 C 211.97 202.73 211.32 203.38 210.67 204.04 C 210.64 204.64 210.58 205.83 210.55 206.43 C 206.79 209.08 206.19 214.26 202.36 216.79 C 200.58 217.67 199.02 215.95 197.51 215.27 C 199.41 213.11 201.40 211.02 203.09 208.69 C 203.98 207.04 204.93 205.42 205.92 203.82 C 206.03 203.29 206.25 202.21 206.36 201.68 C 207.15 200.53 207.94 199.39 208.71 198.23 C 209.31 197.66 209.90 197.11 210.51 196.55 C 210.58 195.95 210.73 194.76 210.80 194.17 C 212.62 191.06 213.70 187.60 214.31 184.06 C 215.18 181.43 215.93 178.75 216.45 176.03 C 216.68 175.61 217.14 174.77 217.37 174.35 C 217.35 163.12 217.32 151.89 217.39 140.67 C 217.15 140.21 216.66 139.30 216.41 138.85 C 215.96 134.66 214.88 130.57 213.73 126.52 C 210.95 118.04 206.90 109.89 200.74 103.35 C 194.85 98.20 186.92 96.78 179.73 94.30 C 178.57 93.64 177.41 92.97 176.26 92.30 C 175.65 92.26 174.43 92.17 173.82 92.13 C 172.12 91.62 170.41 91.18 168.69 90.76 C 161.50 87.68 153.58 89.29 146.02 88.87 C 135.72 88.45 126.01 92.27 116.04 94.02 C 111.46 95.62 106.76 97.02 101.85 96.99 C 97.61 98.03 93.27 98.69 89.08 99.93 C 88.48 100.02 87.29 100.20 86.69 100.29 C 84.51 100.96 82.30 101.52 80.15 102.25 C 79.56 102.30 78.37 102.40 77.78 102.45 C 75.67 103.77 73.38 104.78 70.85 104.91 C 67.37 106.90 63.59 108.26 59.74 109.36 C 60.47 110.20 61.20 111.03 61.93 111.87 C 62.36 113.95 63.27 115.86 64.41 117.64 C 66.47 121.45 65.41 125.91 65.67 130.03 C 65.52 132.80 66.25 135.91 64.45 138.29 C 61.47 142.87 60.29 148.43 56.76 152.67 C 56.73 153.15 56.66 154.10 56.63 154.58 C 54.33 156.65 52.21 158.93 50.53 161.55 C 48.24 165.16 43.08 166.64 42.86 171.47 C 42.02 173.09 41.01 174.62 40.09 176.20 C 39.54 177.94 39.04 179.70 38.48 181.44 C 35.29 182.98 34.19 186.51 32.08 189.09 C 30.60 190.32 28.95 191.33 27.38 192.45 C 27.40 193.13 27.44 194.49 27.45 195.17 C 25.94 196.61 24.43 198.06 22.92 199.51 C 22.91 200.07 22.89 201.19 22.88 201.75 C 25.27 204.23 27.53 207.45 31.22 207.92 C 36.15 208.12 41.09 208.10 46.02 207.94 C 48.10 207.86 49.21 205.73 50.68 204.54 C 53.79 204.46 56.88 204.80 59.82 205.84 C 59.84 208.33 62.98 212.48 58.92 213.04 C 58.92 214.23 58.92 215.43 58.93 216.63 C 58.06 217.31 57.19 218.00 56.33 218.69 C 57.75 219.56 59.14 220.49 60.57 221.36 C 61.88 221.91 63.20 222.44 64.52 222.97 C 64.50 224.48 64.49 225.98 64.47 227.50 C 60.17 226.55 56.50 223.51 51.97 223.60 C 49.14 225.35 46.20 226.91 43.31 228.55 C 41.99 231.37 40.85 234.30 40.61 237.45 C 47.99 235.98 55.49 235.91 62.99 236.13 C 65.91 236.43 68.62 235.40 71.07 233.92 C 71.73 233.94 73.04 233.99 73.69 234.01 C 73.11 232.98 72.53 231.94 71.96 230.90 C 70.89 230.24 69.82 229.59 68.75 228.92 C 69.85 227.83 70.96 226.74 72.07 225.65 C 75.98 226.92 77.78 230.64 80.21 233.60 C 80.25 236.75 80.25 239.90 80.23 243.05 C 78.50 242.83 76.77 242.61 75.04 242.35 C 75.35 240.92 75.65 239.50 75.94 238.07 C 73.39 238.37 71.11 239.60 68.73 240.46 C 62.69 240.86 56.62 240.47 50.57 240.58 C 49.22 241.91 47.85 243.21 46.45 244.51 C 48.18 246.10 49.85 247.76 51.46 249.47 C 56.40 251.52 61.68 250.55 66.67 249.30 C 66.73 250.81 66.80 252.32 66.86 253.84 C 62.90 255.47 58.60 255.34 54.40 255.16 C 53.67 254.79 52.20 254.05 51.47 253.67 C 52.42 254.74 53.39 255.79 54.37 256.84 C 54.39 259.01 54.42 261.18 54.45 263.35 C 52.38 267.28 49.25 270.84 44.57 271.36 C 42.72 272.64 40.89 273.94 39.16 275.38 C 38.52 275.39 37.25 275.39 36.61 275.40 C 36.04 277.04 35.55 278.72 35.01 280.38 C 32.51 282.70 31.46 285.91 30.64 289.12 C 32.13 290.76 33.52 292.48 34.79 294.30 C 36.90 294.56 39.16 294.77 40.75 296.37 C 44.04 299.43 48.47 301.23 52.97 301.24 C 55.65 301.33 58.47 300.98 60.96 302.22 C 66.03 302.54 71.10 302.35 76.17 302.41 C 79.71 300.08 83.24 297.74 86.67 295.26 C 89.36 291.97 93.27 290.26 96.78 288.03 C 99.18 287.91 101.65 287.66 103.43 285.83 C 107.22 284.66 111.09 283.72 114.80 282.30 C 115.35 282.25 116.44 282.14 116.98 282.08 C 122.13 280.26 127.50 279.17 132.69 277.47 C 133.24 276.88 133.79 276.31 134.34 275.74 C 137.67 274.93 140.79 273.48 144.04 272.45 C 151.12 271.19 157.61 267.91 164.09 264.94 C 165.46 264.31 166.99 264.20 168.47 263.98 C 172.24 262.10 175.12 258.97 177.85 255.86 C 179.47 247.28 179.28 238.56 179.09 229.88 C 178.62 226.14 176.85 222.67 174.86 219.52 C 175.70 218.67 176.56 217.82 177.41 216.98 C 178.77 217.82 180.12 218.69 181.48 219.55 C 181.46 220.18 181.42 221.45 181.40 222.09 C 182.16 223.25 182.92 224.43 183.68 225.60 C 183.02 237.12 185.33 249.06 181.36 260.18 C 179.59 261.32 177.92 262.61 176.29 263.95 C 176.04 264.07 175.53 264.31 175.28 264.42 C 174.16 266.30 172.48 267.68 170.65 268.82 C 169.95 268.79 168.55 268.74 167.86 268.71 C 165.23 270.19 162.49 271.48 159.60 272.37 C 155.12 273.90 150.99 276.73 146.12 276.84 C 143.23 278.37 140.14 279.50 136.94 280.19 C 136.15 280.84 135.35 281.49 134.56 282.14 C 134.11 282.18 133.21 282.28 132.76 282.32 C 128.89 283.99 124.68 284.48 120.67 285.69 C 120.70 288.18 120.71 290.67 120.72 293.16 C 121.79 296.31 122.92 299.50 125.07 302.09 C 125.13 302.67 125.23 303.82 125.28 304.40 C 126.94 305.96 128.57 307.55 130.34 309.00 L 123.28 309.00 C 121.66 306.54 120.35 303.89 119.14 301.21 C 118.71 300.83 117.84 300.07 117.41 299.69 C 116.20 295.56 115.24 290.84 117.17 286.79 C 117.18 286.77 117.21 286.74 117.22 286.73 C 113.54 288.54 109.48 289.24 105.54 290.23 C 103.07 291.68 100.35 292.51 97.47 292.40 C 96.55 293.37 95.63 294.33 94.70 295.29 C 92.51 296.55 90.57 298.18 88.55 299.68 C 86.65 301.01 84.94 302.59 83.11 304.02 C 81.53 304.96 79.99 305.97 78.41 306.90 C 70.96 306.63 63.39 307.69 56.09 305.88 C 52.59 305.61 48.88 306.32 45.72 304.39 C 44.66 303.99 43.59 303.62 42.51 303.25 C 40.69 301.74 38.71 300.43 36.81 299.02 C 35.69 299.00 34.57 299.00 33.45 299.00 C 31.15 296.41 28.74 293.90 26.22 291.52 C 26.21 287.77 25.94 283.53 28.62 280.52 C 31.11 278.14 31.43 274.28 34.39 272.28 C 37.11 270.45 40.34 269.36 42.47 266.71 C 45.61 266.04 48.63 264.63 50.01 261.54 C 50.01 260.95 50.00 259.79 50.00 259.20 C 46.83 255.97 43.86 252.52 41.16 248.90 C 40.91 246.69 41.07 244.47 40.88 242.27 C 39.51 240.99 37.90 240.00 36.33 238.97 C 36.32 235.97 36.37 232.97 36.74 230.00 C 39.55 224.44 45.33 221.87 50.41 218.84 C 51.51 217.21 52.85 215.76 54.23 214.38 C 54.38 212.57 54.56 210.78 54.78 208.99 C 54.19 208.99 53.01 208.98 52.42 208.98 C 51.47 210.16 50.53 211.34 49.60 212.54 C 41.76 212.03 33.64 213.69 26.03 211.29 C 23.49 208.96 21.00 206.58 18.38 204.35 C 18.39 202.45 18.31 200.53 18.54 198.64 C 19.47 196.31 21.32 194.55 22.99 192.74 C 22.99 192.16 23.00 191.00 23.00 190.43 C 25.96 187.59 29.42 185.07 31.36 181.37 C 32.21 180.42 33.06 179.48 33.92 178.54 C 34.51 176.88 35.01 175.18 35.59 173.52 C 37.27 171.71 38.57 169.55 38.88 167.06 C 42.84 162.70 47.23 158.66 50.27 153.54 C 51.09 151.40 52.49 149.59 54.00 147.90 C 54.57 146.79 55.17 145.70 55.76 144.60 C 56.83 142.69 57.80 140.71 58.41 138.60 C 59.13 137.52 59.87 136.45 60.59 135.37 C 61.43 131.22 61.19 126.94 61.07 122.73 C 61.10 120.68 59.55 119.15 58.69 117.42 C 57.96 115.37 57.23 113.32 56.39 111.31 C 52.15 114.14 47.10 113.76 42.26 113.65 C 41.96 113.20 41.36 112.30 41.05 111.84 C 41.00 111.30 40.90 110.20 40.85 109.66 C 38.80 104.53 37.18 99.24 35.00 94.16 C 34.19 92.48 34.12 90.59 33.89 88.77 C 33.01 86.75 32.22 84.69 31.67 82.56 C 30.59 79.10 29.43 75.65 27.59 72.51 C 26.99 71.23 26.46 69.92 25.92 68.62 C 25.12 66.56 24.31 64.49 23.73 62.35 C 23.35 61.88 22.60 60.94 22.22 60.47 C 22.15 57.90 21.16 55.55 19.78 53.42 C 18.50 51.22 17.30 48.92 17.01 46.36 C 16.51 45.91 15.50 45.01 14.99 44.56 C 15.02 44.04 15.07 42.99 15.09 42.47 C 14.03 40.72 12.93 39.01 11.72 37.37 C 11.68 36.97 11.61 36.17 11.58 35.77 C 11.07 34.58 10.61 33.38 10.15 32.18 C 7.34 27.60 7.60 22.04 5.20 17.35 C 5.12 16.90 4.97 15.99 4.89 15.54 C 4.20 13.78 3.56 12.01 2.81 10.28 C 2.76 9.86 2.66 9.03 2.62 8.61 C 1.78 6.89 1.00 5.15 0.15 3.44 M 6.77 5.79 C 7.17 7.14 7.60 8.48 7.84 9.88 C 8.38 10.90 8.75 11.97 8.95 13.11 C 9.52 14.61 10.14 16.10 10.87 17.53 C 11.85 19.18 11.70 21.12 11.95 22.95 C 12.28 24.13 12.76 25.25 13.19 26.39 C 14.61 29.30 15.55 32.41 16.41 35.53 C 17.24 36.70 18.15 37.81 19.13 38.87 C 19.22 40.11 19.53 41.32 19.75 42.54 C 20.22 42.99 21.15 43.89 21.62 44.34 C 22.18 47.28 23.61 49.92 24.91 52.58 C 26.43 59.23 30.26 65.03 32.25 71.50 C 34.47 75.47 35.46 80.00 37.96 83.83 C 38.26 84.92 38.67 85.98 39.16 87.01 C 39.59 88.74 39.89 90.49 39.97 92.28 C 41.89 97.03 42.46 102.19 44.47 106.91 C 45.92 107.68 47.39 108.41 48.86 109.16 C 50.64 107.65 52.98 107.98 55.13 108.06 C 55.89 107.08 56.53 106.01 57.08 104.90 C 59.42 104.42 61.65 103.58 63.87 102.71 C 68.80 99.82 74.56 98.91 79.91 97.04 C 85.95 96.77 91.27 93.20 97.37 93.17 C 99.77 91.72 102.65 92.43 105.30 92.14 C 108.26 90.67 111.75 90.69 114.66 89.04 C 116.49 88.92 118.31 88.89 120.14 88.86 C 120.49 88.61 121.18 88.12 121.53 87.88 C 123.05 87.78 124.63 87.69 125.97 86.86 C 126.47 86.76 127.48 86.57 127.98 86.47 C 130.34 84.68 133.67 86.41 135.95 84.49 C 145.28 84.35 154.62 84.33 163.95 84.50 C 165.11 85.68 166.80 85.50 168.29 85.77 C 169.45 86.21 170.62 86.64 171.81 87.01 C 175.19 89.96 179.87 90.25 184.14 90.08 L 182.89 91.30 C 184.38 91.03 185.86 90.73 187.33 90.39 L 185.56 92.35 C 186.24 92.21 187.60 91.93 188.28 91.79 C 187.40 90.35 186.79 88.78 186.76 87.07 C 185.15 86.05 183.45 85.15 181.94 83.98 C 180.53 83.01 179.08 82.09 177.63 81.18 C 174.46 80.16 171.31 79.03 168.35 77.47 C 165.52 75.56 162.66 73.67 159.53 72.30 C 156.78 71.61 154.25 70.25 151.48 69.61 C 148.07 67.99 146.01 64.54 142.51 63.04 C 142.01 63.02 141.03 62.99 140.54 62.98 C 137.60 60.16 133.17 59.59 130.49 56.47 C 129.95 56.39 128.87 56.23 128.34 56.15 C 126.60 55.25 124.82 54.42 123.01 53.69 C 122.98 53.28 122.93 52.45 122.91 52.03 C 120.15 52.02 117.88 50.51 115.71 49.00 C 112.53 47.55 109.13 46.41 106.48 44.02 C 105.98 44.01 104.98 43.99 104.48 43.97 C 102.92 43.00 101.37 41.99 99.88 40.92 C 95.59 40.38 93.03 36.11 88.65 35.78 C 85.10 33.68 81.01 32.79 77.45 30.74 C 74.64 29.03 71.47 28.10 68.46 26.82 C 64.93 24.65 60.44 24.94 57.19 22.17 C 55.02 21.31 52.55 21.77 50.47 20.68 C 45.93 17.66 40.36 17.10 35.46 14.90 C 33.05 13.77 30.53 12.93 28.03 12.05 C 26.92 11.74 25.81 11.41 24.71 11.06 C 21.36 8.71 17.15 9.21 13.48 7.68 C 11.24 7.04 8.97 6.54 6.77 5.79 Z" />
<path fill="#000000" opacity="1.00" d=" M 168.03 115.54 C 170.07 112.70 171.56 108.36 175.86 108.91 C 175.91 111.27 175.55 113.60 174.50 115.74 C 173.84 116.27 173.18 116.80 172.52 117.34 C 171.91 119.61 171.34 121.91 171.06 124.26 C 170.16 125.38 169.37 126.60 168.54 127.78 C 166.81 128.71 165.41 130.11 164.13 131.58 C 162.85 131.59 161.57 131.59 160.30 131.60 C 160.17 133.04 159.76 134.39 159.08 135.65 C 158.98 136.99 158.89 138.32 158.82 139.66 C 157.51 139.50 156.22 139.29 154.93 139.04 C 154.24 136.83 153.74 133.98 155.44 132.10 C 155.46 131.52 155.52 130.37 155.55 129.79 C 156.48 128.87 157.43 127.98 158.36 127.05 C 159.44 127.08 160.52 127.11 161.61 127.13 C 163.29 125.58 164.97 124.01 166.61 122.41 C 166.69 120.67 166.96 118.94 167.72 117.36 C 167.80 116.90 167.95 116.00 168.03 115.54 Z" />
<path fill="#000000" opacity="1.00" d=" M 86.74 113.71 C 91.07 112.97 96.04 114.87 99.97 112.60 C 102.95 112.72 106.35 111.62 108.94 113.51 C 111.09 113.61 113.23 113.63 115.38 113.72 C 117.45 114.74 119.64 115.45 121.83 116.15 C 121.83 116.92 121.83 118.46 121.83 119.24 C 113.86 119.24 105.89 119.25 97.91 119.21 C 96.55 119.08 95.25 119.48 94.09 120.19 C 93.05 120.29 92.00 120.40 90.95 120.51 C 89.67 121.38 88.14 121.50 86.67 121.74 C 83.95 123.26 80.73 122.39 77.77 122.71 C 75.19 123.94 72.33 124.36 69.58 125.06 C 68.65 124.02 67.71 122.98 66.77 121.95 C 67.71 121.13 68.50 120.12 69.60 119.50 C 75.26 117.44 81.23 116.20 86.74 113.71 Z" />
<path fill="#000000" opacity="1.00" d=" M 83.26 125.09 C 85.65 124.58 87.94 123.71 90.13 122.64 C 91.32 123.13 92.52 123.62 93.72 124.09 C 93.72 124.77 93.73 126.13 93.73 126.81 C 92.58 127.21 91.43 127.62 90.29 128.04 C 87.43 127.98 85.05 129.65 82.87 131.30 C 89.60 131.98 96.37 131.33 103.10 131.70 C 104.35 132.61 105.89 132.72 107.36 132.93 C 109.69 134.03 112.06 135.01 114.53 135.73 C 116.61 136.39 118.96 136.81 120.52 138.45 C 121.21 140.27 120.07 141.99 119.50 143.66 C 117.92 145.07 116.36 146.54 114.52 147.62 C 113.43 148.19 112.35 148.77 111.29 149.38 C 109.55 150.29 107.69 150.81 105.75 151.00 C 103.37 152.32 100.59 151.73 98.00 151.84 C 93.68 151.63 89.13 152.53 85.05 150.70 C 84.89 151.33 84.56 152.59 84.40 153.22 C 81.46 153.18 79.69 150.76 77.57 149.12 C 75.33 148.52 72.50 148.31 72.08 145.55 C 71.00 144.94 69.94 144.29 68.90 143.62 C 69.16 141.71 70.39 140.13 71.26 138.47 C 69.80 138.36 68.66 137.45 67.52 136.64 C 70.02 134.69 72.68 132.97 75.11 130.94 C 77.88 129.05 80.29 126.68 83.26 125.09 M 84.51 135.78 C 84.75 140.01 87.37 144.53 91.94 144.99 C 95.58 144.99 100.23 146.28 102.49 142.48 C 98.75 142.50 94.58 143.81 91.15 141.73 C 88.14 140.56 88.20 135.66 84.51 135.78 M 100.57 137.22 C 100.55 138.38 100.52 140.70 100.50 141.86 C 101.55 141.78 103.66 141.61 104.72 141.53 C 104.77 140.27 104.80 139.01 104.81 137.75 C 103.40 137.57 101.98 137.39 100.57 137.22 M 78.88 139.13 C 77.27 139.44 76.30 140.73 75.29 141.89 C 75.99 142.57 76.69 143.27 77.39 143.96 C 77.91 143.99 78.95 144.04 79.47 144.07 C 81.08 144.91 82.74 145.67 84.42 146.39 C 83.45 145.43 82.46 144.50 81.45 143.60 C 80.56 141.75 80.15 139.76 80.00 137.72 C 79.72 138.07 79.16 138.78 78.88 139.13 M 107.28 138.17 C 107.24 139.86 107.21 141.56 107.12 143.26 C 106.73 144.04 105.94 145.59 105.55 146.37 C 108.24 145.06 110.94 143.75 113.72 142.63 C 114.20 142.08 114.69 141.53 115.18 140.99 C 113.83 140.41 112.50 139.78 111.20 139.11 C 109.99 138.44 108.63 138.28 107.28 138.17 Z" />
<path fill="#000000" opacity="1.00" d=" M 162.64 163.38 C 167.35 161.39 172.50 161.91 177.48 162.01 C 179.65 163.42 181.84 164.82 184.14 166.03 C 185.00 167.90 185.89 169.75 186.92 171.54 C 187.14 180.02 186.94 188.51 187.04 196.99 C 187.28 200.50 185.65 203.72 184.52 206.95 C 184.02 206.93 183.03 206.90 182.54 206.88 C 182.53 207.45 182.51 208.57 182.50 209.14 C 179.00 209.13 175.50 209.13 172.01 209.13 C 171.48 208.73 170.44 207.94 169.91 207.54 C 170.93 206.59 171.94 205.62 172.95 204.65 C 175.27 204.64 177.59 204.63 179.91 204.62 C 180.24 203.83 180.91 202.26 181.25 201.48 C 181.31 201.03 181.44 200.14 181.51 199.70 C 182.32 198.64 182.67 197.35 182.54 196.03 C 182.50 189.35 182.51 182.67 182.54 176.00 C 182.63 174.79 182.22 173.66 181.73 172.59 C 181.12 171.43 180.51 170.27 179.91 169.11 C 178.53 168.55 177.44 167.57 176.47 166.48 C 173.41 166.66 169.97 165.60 167.25 167.40 C 166.72 167.48 165.68 167.64 165.16 167.72 C 163.55 169.08 161.77 170.21 159.96 171.29 C 160.02 173.15 160.07 175.02 160.13 176.88 C 160.84 179.35 161.79 181.75 164.35 182.79 C 164.44 183.49 164.63 184.88 164.72 185.57 C 162.90 185.46 161.02 185.74 159.24 185.33 C 154.59 181.31 155.54 174.64 155.59 169.15 C 156.85 167.98 158.09 166.79 159.36 165.63 C 160.49 164.93 161.58 164.17 162.64 163.38 Z" />
<path fill="#000000" opacity="1.00" d=" M 167.34 173.09 C 171.03 172.65 174.60 174.05 176.94 176.95 C 176.80 181.60 177.05 186.26 176.84 190.90 C 176.41 193.11 175.13 195.18 173.33 196.54 C 171.77 196.92 170.15 196.72 168.57 196.79 C 167.96 197.36 167.35 197.93 166.74 198.51 C 166.74 199.28 166.74 200.82 166.75 201.59 C 165.15 201.17 163.60 200.65 162.09 200.01 C 162.32 198.31 162.06 196.39 163.25 194.97 C 163.33 193.75 163.40 192.54 163.46 191.32 C 163.91 190.99 164.81 190.33 165.25 189.99 C 165.81 190.00 166.93 190.00 167.49 190.00 C 168.31 190.90 169.13 191.80 169.95 192.70 C 170.57 192.19 171.81 191.16 172.43 190.65 C 172.38 186.87 172.38 183.09 172.44 179.32 C 171.72 178.74 170.28 177.58 169.56 177.00 C 169.24 178.70 169.00 180.42 168.85 182.15 C 168.26 182.16 167.08 182.19 166.48 182.21 C 165.98 181.80 164.97 180.98 164.47 180.57 C 164.50 179.00 164.53 177.44 164.56 175.87 C 165.48 174.94 166.42 174.03 167.34 173.09 Z" />
<path fill="#000000" opacity="1.00" d=" M 51.40 190.14 C 55.51 188.32 60.35 188.34 64.41 190.27 C 65.26 192.63 66.09 195.00 66.82 197.41 C 68.06 198.76 69.52 199.89 71.22 200.60 C 71.23 201.33 71.26 202.79 71.27 203.52 C 69.53 203.51 67.79 203.50 66.05 203.49 C 64.63 201.91 63.17 200.37 61.79 198.77 C 61.50 197.64 61.21 196.52 60.95 195.39 C 60.64 194.85 60.01 193.76 59.69 193.22 C 58.09 193.32 56.50 193.62 54.91 193.83 C 53.85 194.86 52.69 195.79 51.52 196.70 C 50.91 196.74 49.70 196.82 49.09 196.87 C 48.53 195.94 47.98 195.01 47.43 194.09 C 48.79 192.81 50.11 191.48 51.40 190.14 Z" />
<path fill="#000000" opacity="1.00" d=" M 140.41 190.00 C 140.94 190.00 141.98 190.02 142.51 190.02 C 144.28 191.00 146.28 191.90 147.06 193.93 C 147.73 195.07 148.38 196.22 149.09 197.35 C 150.03 198.47 151.01 199.57 151.97 200.67 C 152.20 202.86 153.18 204.82 154.32 206.67 C 154.39 208.45 154.34 210.29 155.07 211.96 C 155.57 212.64 156.06 213.34 156.53 214.05 C 158.92 218.63 157.35 223.96 157.83 228.89 C 157.07 229.57 156.31 230.25 155.55 230.92 C 155.55 231.65 155.55 233.10 155.55 233.83 C 154.55 233.85 153.56 233.87 152.57 233.89 C 152.02 235.67 150.97 237.13 149.03 237.51 C 148.19 238.84 147.47 240.24 146.49 241.48 C 145.22 241.66 143.95 241.78 142.67 241.84 C 139.04 243.47 136.87 247.11 133.29 248.76 C 132.55 250.57 131.95 252.43 131.61 254.37 C 130.15 253.94 128.70 253.50 127.27 253.03 C 127.35 251.29 127.65 249.59 127.97 247.89 C 129.12 246.08 130.53 244.40 132.65 243.70 C 134.50 242.01 136.24 240.21 137.93 238.36 C 138.52 238.36 139.71 238.37 140.31 238.37 C 142.96 236.67 145.26 234.50 147.87 232.75 C 150.43 231.34 151.33 228.37 153.26 226.33 C 153.31 223.84 153.32 221.35 153.22 218.86 C 151.09 215.83 150.27 212.17 149.65 208.58 C 148.70 205.25 147.40 201.89 144.57 199.70 C 143.53 198.00 142.46 196.32 141.55 194.54 C 140.74 194.52 139.93 194.49 139.13 194.46 C 138.66 194.07 137.74 193.29 137.28 192.90 C 138.32 191.93 139.38 190.97 140.41 190.00 Z" />
<path fill="#000000" opacity="1.00" d=" M 171.49 286.21 C 171.60 284.04 174.26 284.66 175.68 284.05 C 175.61 288.31 176.37 292.74 175.30 296.90 C 173.08 300.89 170.37 304.62 168.93 309.00 L 161.64 309.00 C 162.90 307.95 164.11 306.83 165.31 305.70 C 166.07 301.80 168.72 298.77 170.34 295.26 C 171.73 292.44 170.99 289.20 171.49 286.21 Z" />
</g>
<g id="#fff200ff">
<path fill="#fff200" opacity="1.00" d=" M 6.77 5.79 C 8.97 6.54 11.24 7.04 13.48 7.68 C 17.15 9.21 21.36 8.71 24.71 11.06 C 25.81 11.41 26.92 11.74 28.03 12.05 C 30.53 12.93 33.05 13.77 35.46 14.90 C 40.36 17.10 45.93 17.66 50.47 20.68 C 52.55 21.77 55.02 21.31 57.19 22.17 C 60.44 24.94 64.93 24.65 68.46 26.82 C 71.47 28.10 74.64 29.03 77.45 30.74 C 81.01 32.79 85.10 33.68 88.65 35.78 C 93.03 36.11 95.59 40.38 99.88 40.92 C 101.37 41.99 102.92 43.00 104.48 43.97 C 104.98 43.99 105.98 44.01 106.48 44.02 C 109.13 46.41 112.53 47.55 115.71 49.00 C 117.88 50.51 120.15 52.02 122.91 52.03 C 122.93 52.45 122.98 53.28 123.01 53.69 C 124.82 54.42 126.60 55.25 128.34 56.15 C 128.87 56.23 129.95 56.39 130.49 56.47 C 133.17 59.59 137.60 60.16 140.54 62.98 C 141.03 62.99 142.01 63.02 142.51 63.04 C 146.01 64.54 148.07 67.99 151.48 69.61 C 154.25 70.25 156.78 71.61 159.53 72.30 C 162.66 73.67 165.52 75.56 168.35 77.47 C 171.31 79.03 174.46 80.16 177.63 81.18 C 179.08 82.09 180.53 83.01 181.94 83.98 C 183.45 85.15 185.15 86.05 186.76 87.07 C 186.79 88.78 187.40 90.35 188.28 91.79 C 187.60 91.93 186.24 92.21 185.56 92.35 L 187.33 90.39 C 185.86 90.73 184.38 91.03 182.89 91.30 L 184.14 90.08 C 179.87 90.25 175.19 89.96 171.81 87.01 C 170.62 86.64 169.45 86.21 168.29 85.77 C 166.80 85.50 165.11 85.68 163.95 84.50 C 154.62 84.33 145.28 84.35 135.95 84.49 C 133.67 86.41 130.34 84.68 127.98 86.47 C 127.48 86.57 126.47 86.76 125.97 86.86 C 124.63 87.69 123.05 87.78 121.53 87.88 C 121.18 88.12 120.49 88.61 120.14 88.86 C 118.31 88.89 116.49 88.92 114.66 89.04 C 111.75 90.69 108.26 90.67 105.30 92.14 C 102.65 92.43 99.77 91.72 97.37 93.17 C 91.27 93.20 85.95 96.77 79.91 97.04 C 74.56 98.91 68.80 99.82 63.87 102.71 C 61.65 103.58 59.42 104.42 57.08 104.90 C 56.53 106.01 55.89 107.08 55.13 108.06 C 52.98 107.98 50.64 107.65 48.86 109.16 C 47.39 108.41 45.92 107.68 44.47 106.91 C 42.46 102.19 41.89 97.03 39.97 92.28 C 39.89 90.49 39.59 88.74 39.16 87.01 C 38.67 85.98 38.26 84.92 37.96 83.83 C 35.46 80.00 34.47 75.47 32.25 71.50 C 30.26 65.03 26.43 59.23 24.91 52.58 C 23.61 49.92 22.18 47.28 21.62 44.34 C 21.15 43.89 20.22 42.99 19.75 42.54 C 19.53 41.32 19.22 40.11 19.13 38.87 C 18.15 37.81 17.24 36.70 16.41 35.53 C 15.55 32.41 14.61 29.30 13.19 26.39 C 12.76 25.25 12.28 24.13 11.95 22.95 C 11.70 21.12 11.85 19.18 10.87 17.53 C 10.14 16.10 9.52 14.61 8.95 13.11 C 8.75 11.97 8.38 10.90 7.84 9.88 C 7.60 8.48 7.17 7.14 6.77 5.79 Z" />
</g>
<g id="#e1c2b0ff">
<path fill="#e1c2b0" opacity="1.00" d=" M 116.04 94.02 C 126.01 92.27 135.72 88.45 146.02 88.87 C 153.58 89.29 161.50 87.68 168.69 90.76 C 170.41 91.18 172.12 91.62 173.82 92.13 C 174.43 92.17 175.65 92.26 176.26 92.30 C 177.41 92.97 178.57 93.64 179.73 94.30 C 186.92 96.78 194.85 98.20 200.74 103.35 C 206.90 109.89 210.95 118.04 213.73 126.52 C 214.88 130.57 215.96 134.66 216.41 138.85 C 216.66 139.30 217.15 140.21 217.39 140.67 C 217.32 151.89 217.35 163.12 217.37 174.35 C 217.14 174.77 216.68 175.61 216.45 176.03 C 215.93 178.75 215.18 181.43 214.31 184.06 C 213.70 187.60 212.62 191.06 210.80 194.17 C 210.73 194.76 210.58 195.95 210.51 196.55 C 209.90 197.11 209.31 197.66 208.71 198.23 C 207.94 199.39 207.15 200.53 206.36 201.68 C 206.25 202.21 206.03 203.29 205.92 203.82 C 204.93 205.42 203.98 207.04 203.09 208.69 C 201.40 211.02 199.41 213.11 197.51 215.27 C 199.02 215.95 200.58 217.67 202.36 216.79 C 206.19 214.26 206.79 209.08 210.55 206.43 C 210.58 205.83 210.64 204.64 210.67 204.04 C 211.32 203.38 211.97 202.73 212.62 202.07 C 214.74 210.25 213.30 218.90 216.01 226.98 C 216.61 232.89 215.80 238.85 216.47 244.75 C 218.31 253.02 216.85 261.54 217.42 269.92 C 217.58 270.97 217.87 271.98 218.31 272.96 C 218.69 278.67 218.28 284.41 218.62 290.13 C 220.36 294.03 219.29 298.42 219.80 302.55 C 220.58 304.61 220.75 306.82 220.95 309.00 L 168.93 309.00 C 170.37 304.62 173.08 300.89 175.30 296.90 C 176.37 292.74 175.61 288.31 175.68 284.05 C 174.26 284.66 171.60 284.04 171.49 286.21 C 170.99 289.20 171.73 292.44 170.34 295.26 C 168.72 298.77 166.07 301.80 165.31 305.70 C 164.11 306.83 162.90 307.95 161.64 309.00 L 130.34 309.00 C 128.57 307.55 126.94 305.96 125.28 304.40 C 125.23 303.82 125.13 302.67 125.07 302.09 C 122.92 299.50 121.79 296.31 120.72 293.16 C 120.71 290.67 120.70 288.18 120.67 285.69 C 124.68 284.48 128.89 283.99 132.76 282.32 C 133.21 282.28 134.11 282.18 134.56 282.14 C 135.35 281.49 136.15 280.84 136.94 280.19 C 140.14 279.50 143.23 278.37 146.12 276.84 C 150.99 276.73 155.12 273.90 159.60 272.37 C 162.49 271.48 165.23 270.19 167.86 268.71 C 168.55 268.74 169.95 268.79 170.65 268.82 C 172.48 267.68 174.16 266.30 175.28 264.42 C 175.53 264.31 176.04 264.07 176.29 263.95 C 177.92 262.61 179.59 261.32 181.36 260.18 C 185.33 249.06 183.02 237.12 183.68 225.60 C 182.92 224.43 182.16 223.25 181.40 222.09 C 181.42 221.45 181.46 220.18 181.48 219.55 C 180.12 218.69 178.77 217.82 177.41 216.98 C 176.56 217.82 175.70 218.67 174.86 219.52 C 176.85 222.67 178.62 226.14 179.09 229.88 C 179.28 238.56 179.47 247.28 177.85 255.86 C 175.12 258.97 172.24 262.10 168.47 263.98 C 166.99 264.20 165.46 264.31 164.09 264.94 C 157.61 267.91 151.12 271.19 144.04 272.45 C 140.79 273.48 137.67 274.93 134.34 275.74 C 133.79 276.31 133.24 276.88 132.69 277.47 C 127.50 279.17 122.13 280.26 116.98 282.08 C 116.44 282.14 115.35 282.25 114.80 282.30 C 111.09 283.72 107.22 284.66 103.43 285.83 C 101.65 287.66 99.18 287.91 96.78 288.03 C 93.27 290.26 89.36 291.97 86.67 295.26 C 83.24 297.74 79.71 300.08 76.17 302.41 C 71.10 302.35 66.03 302.54 60.96 302.22 C 58.47 300.98 55.65 301.33 52.97 301.24 C 48.47 301.23 44.04 299.43 40.75 296.37 C 39.16 294.77 36.90 294.56 34.79 294.30 C 33.52 292.48 32.13 290.76 30.64 289.12 C 31.46 285.91 32.51 282.70 35.01 280.38 C 35.55 278.72 36.04 277.04 36.61 275.40 C 37.25 275.39 38.52 275.39 39.16 275.38 C 40.89 273.94 42.72 272.64 44.57 271.36 C 49.25 270.84 52.38 267.28 54.45 263.35 C 54.42 261.18 54.39 259.01 54.37 256.84 C 53.39 255.79 52.42 254.74 51.47 253.67 C 52.20 254.05 53.67 254.79 54.40 255.16 C 58.60 255.34 62.90 255.47 66.86 253.84 C 66.80 252.32 66.73 250.81 66.67 249.30 C 61.68 250.55 56.40 251.52 51.46 249.47 C 49.85 247.76 48.18 246.10 46.45 244.51 C 47.85 243.21 49.22 241.91 50.57 240.58 C 56.62 240.47 62.69 240.86 68.73 240.46 C 71.11 239.60 73.39 238.37 75.94 238.07 C 75.65 239.50 75.35 240.92 75.04 242.35 C 76.77 242.61 78.50 242.83 80.23 243.05 C 80.25 239.90 80.25 236.75 80.21 233.60 C 77.78 230.64 75.98 226.92 72.07 225.65 C 70.96 226.74 69.85 227.83 68.75 228.92 C 69.82 229.59 70.89 230.24 71.96 230.90 C 72.53 231.94 73.11 232.98 73.69 234.01 C 73.04 233.99 71.73 233.94 71.07 233.92 C 68.62 235.40 65.91 236.43 62.99 236.13 C 55.49 235.91 47.99 235.98 40.61 237.45 C 40.85 234.30 41.99 231.37 43.31 228.55 C 46.20 226.91 49.14 225.35 51.97 223.60 C 56.50 223.51 60.17 226.55 64.47 227.50 C 64.49 225.98 64.50 224.48 64.52 222.97 C 63.20 222.44 61.88 221.91 60.57 221.36 C 59.14 220.49 57.75 219.56 56.33 218.69 C 57.19 218.00 58.06 217.31 58.93 216.63 C 58.92 215.43 58.92 214.23 58.92 213.04 C 62.98 212.48 59.84 208.33 59.82 205.84 C 56.88 204.80 53.79 204.46 50.68 204.54 C 49.21 205.73 48.10 207.86 46.02 207.94 C 41.09 208.10 36.15 208.12 31.22 207.92 C 27.53 207.45 25.27 204.23 22.88 201.75 C 22.89 201.19 22.91 200.07 22.92 199.51 C 24.43 198.06 25.94 196.61 27.45 195.17 C 27.44 194.49 27.40 193.13 27.38 192.45 C 28.95 191.33 30.60 190.32 32.08 189.09 C 34.19 186.51 35.29 182.98 38.48 181.44 C 39.04 179.70 39.54 177.94 40.09 176.20 C 41.01 174.62 42.02 173.09 42.86 171.47 C 43.08 166.64 48.24 165.16 50.53 161.55 C 52.21 158.93 54.33 156.65 56.63 154.58 C 56.66 154.10 56.73 153.15 56.76 152.67 C 60.29 148.43 61.47 142.87 64.45 138.29 C 66.25 135.91 65.52 132.80 65.67 130.03 C 65.41 125.91 66.47 121.45 64.41 117.64 C 63.27 115.86 62.36 113.95 61.93 111.87 C 61.20 111.03 60.47 110.20 59.74 109.36 C 63.59 108.26 67.37 106.90 70.85 104.91 C 73.38 104.78 75.67 103.77 77.78 102.45 C 78.37 102.40 79.56 102.30 80.15 102.25 C 82.30 101.52 84.51 100.96 86.69 100.29 C 87.29 100.20 88.48 100.02 89.08 99.93 C 93.27 98.69 97.61 98.03 101.85 96.99 C 106.76 97.02 111.46 95.62 116.04 94.02 M 168.03 115.54 C 167.95 116.00 167.80 116.90 167.72 117.36 C 166.96 118.94 166.69 120.67 166.61 122.41 C 164.97 124.01 163.29 125.58 161.61 127.13 C 160.52 127.11 159.44 127.08 158.36 127.05 C 157.43 127.98 156.48 128.87 155.55 129.79 C 155.52 130.37 155.46 131.52 155.44 132.10 C 153.74 133.98 154.24 136.83 154.93 139.04 C 156.22 139.29 157.51 139.50 158.82 139.66 C 158.89 138.32 158.98 136.99 159.08 135.65 C 159.76 134.39 160.17 133.04 160.30 131.60 C 161.57 131.59 162.85 131.59 164.13 131.58 C 165.41 130.11 166.81 128.71 168.54 127.78 C 169.37 126.60 170.16 125.38 171.06 124.26 C 171.34 121.91 171.91 119.61 172.52 117.34 C 173.18 116.80 173.84 116.27 174.50 115.74 C 175.55 113.60 175.91 111.27 175.86 108.91 C 171.56 108.36 170.07 112.70 168.03 115.54 M 86.74 113.71 C 81.23 116.20 75.26 117.44 69.60 119.50 C 68.50 120.12 67.71 121.13 66.77 121.95 C 67.71 122.98 68.65 124.02 69.58 125.06 C 72.33 124.36 75.19 123.94 77.77 122.71 C 80.73 122.39 83.95 123.26 86.67 121.74 C 88.14 121.50 89.67 121.38 90.95 120.51 C 92.00 120.40 93.05 120.29 94.09 120.19 C 95.25 119.48 96.55 119.08 97.91 119.21 C 105.89 119.25 113.86 119.24 121.83 119.24 C 121.83 118.46 121.83 116.92 121.83 116.15 C 119.64 115.45 117.45 114.74 115.38 113.72 C 113.23 113.63 111.09 113.61 108.94 113.51 C 106.35 111.62 102.95 112.72 99.97 112.60 C 96.04 114.87 91.07 112.97 86.74 113.71 M 83.26 125.09 C 80.29 126.68 77.88 129.05 75.11 130.94 C 72.68 132.97 70.02 134.69 67.52 136.64 C 68.66 137.45 69.80 138.36 71.26 138.47 C 70.39 140.13 69.16 141.71 68.90 143.62 C 69.94 144.29 71.00 144.94 72.08 145.55 C 72.50 148.31 75.33 148.52 77.57 149.12 C 79.69 150.76 81.46 153.18 84.40 153.22 C 84.56 152.59 84.89 151.33 85.05 150.70 C 89.13 152.53 93.68 151.63 98.00 151.84 C 100.59 151.73 103.37 152.32 105.75 151.00 C 107.69 150.81 109.55 150.29 111.29 149.38 C 112.35 148.77 113.43 148.19 114.52 147.62 C 116.36 146.54 117.92 145.07 119.50 143.66 C 120.07 141.99 121.21 140.27 120.52 138.45 C 118.96 136.81 116.61 136.39 114.53 135.73 C 112.06 135.01 109.69 134.03 107.36 132.93 C 105.89 132.72 104.35 132.61 103.10 131.70 C 96.37 131.33 89.60 131.98 82.87 131.30 C 85.05 129.65 87.43 127.98 90.29 128.04 C 91.43 127.62 92.58 127.21 93.73 126.81 C 93.73 126.13 93.72 124.77 93.72 124.09 C 92.52 123.62 91.32 123.13 90.13 122.64 C 87.94 123.71 85.65 124.58 83.26 125.09 M 162.64 163.38 C 161.58 164.17 160.49 164.93 159.36 165.63 C 158.09 166.79 156.85 167.98 155.59 169.15 C 155.54 174.64 154.59 181.31 159.24 185.33 C 161.02 185.74 162.90 185.46 164.72 185.57 C 164.63 184.88 164.44 183.49 164.35 182.79 C 161.79 181.75 160.84 179.35 160.13 176.88 C 160.07 175.02 160.02 173.15 159.96 171.29 C 161.77 170.21 163.55 169.08 165.16 167.72 C 165.68 167.64 166.72 167.48 167.25 167.40 C 169.97 165.60 173.41 166.66 176.47 166.48 C 177.44 167.57 178.53 168.55 179.91 169.11 C 180.51 170.27 181.12 171.43 181.73 172.59 C 182.22 173.66 182.63 174.79 182.54 176.00 C 182.51 182.67 182.50 189.35 182.54 196.03 C 182.67 197.35 182.32 198.64 181.51 199.70 C 181.44 200.14 181.31 201.03 181.25 201.48 C 180.91 202.26 180.24 203.83 179.91 204.62 C 177.59 204.63 175.27 204.64 172.95 204.65 C 171.94 205.62 170.93 206.59 169.91 207.54 C 170.44 207.94 171.48 208.73 172.01 209.13 C 175.50 209.13 179.00 209.13 182.50 209.14 C 182.51 208.57 182.53 207.45 182.54 206.88 C 183.03 206.90 184.02 206.93 184.52 206.95 C 185.65 203.72 187.28 200.50 187.04 196.99 C 186.94 188.51 187.14 180.02 186.92 171.54 C 185.89 169.75 185.00 167.90 184.14 166.03 C 181.84 164.82 179.65 163.42 177.48 162.01 C 172.50 161.91 167.35 161.39 162.64 163.38 M 167.34 173.09 C 166.42 174.03 165.48 174.94 164.56 175.87 C 164.53 177.44 164.50 179.00 164.47 180.57 C 164.97 180.98 165.98 181.80 166.48 182.21 C 167.08 182.19 168.26 182.16 168.85 182.15 C 169.00 180.42 169.24 178.70 169.56 177.00 C 170.28 177.58 171.72 178.74 172.44 179.32 C 172.38 183.09 172.38 186.87 172.43 190.65 C 171.81 191.16 170.57 192.19 169.95 192.70 C 169.13 191.80 168.31 190.90 167.49 190.00 C 166.93 190.00 165.81 190.00 165.25 189.99 C 164.81 190.33 163.91 190.99 163.46 191.32 C 163.40 192.54 163.33 193.75 163.25 194.97 C 162.06 196.39 162.32 198.31 162.09 200.01 C 163.60 200.65 165.15 201.17 166.75 201.59 C 166.74 200.82 166.74 199.28 166.74 198.51 C 167.35 197.93 167.96 197.36 168.57 196.79 C 170.15 196.72 171.77 196.92 173.33 196.54 C 175.13 195.18 176.41 193.11 176.84 190.90 C 177.05 186.26 176.80 181.60 176.94 176.95 C 174.60 174.05 171.03 172.65 167.34 173.09 M 51.40 190.14 C 50.11 191.48 48.79 192.81 47.43 194.09 C 47.98 195.01 48.53 195.94 49.09 196.87 C 49.70 196.82 50.91 196.74 51.52 196.70 C 52.69 195.79 53.85 194.86 54.91 193.83 C 56.50 193.62 58.09 193.32 59.69 193.22 C 60.01 193.76 60.64 194.85 60.95 195.39 C 61.21 196.52 61.50 197.64 61.79 198.77 C 63.17 200.37 64.63 201.91 66.05 203.49 C 67.79 203.50 69.53 203.51 71.27 203.52 C 71.26 202.79 71.23 201.33 71.22 200.60 C 69.52 199.89 68.06 198.76 66.82 197.41 C 66.09 195.00 65.26 192.63 64.41 190.27 C 60.35 188.34 55.51 188.32 51.40 190.14 M 140.41 190.00 C 139.38 190.97 138.32 191.93 137.28 192.90 C 137.74 193.29 138.66 194.07 139.13 194.46 C 139.93 194.49 140.74 194.52 141.55 194.54 C 142.46 196.32 143.53 198.00 144.57 199.70 C 147.40 201.89 148.70 205.25 149.65 208.58 C 150.27 212.17 151.09 215.83 153.22 218.86 C 153.32 221.35 153.31 223.84 153.26 226.33 C 151.33 228.37 150.43 231.34 147.87 232.75 C 145.26 234.50 142.96 236.67 140.31 238.37 C 139.71 238.37 138.52 238.36 137.93 238.36 C 136.24 240.21 134.50 242.01 132.65 243.70 C 130.53 244.40 129.12 246.08 127.97 247.89 C 127.65 249.59 127.35 251.29 127.27 253.03 C 128.70 253.50 130.15 253.94 131.61 254.37 C 131.95 252.43 132.55 250.57 133.29 248.76 C 136.87 247.11 139.04 243.47 142.67 241.84 C 143.95 241.78 145.22 241.66 146.49 241.48 C 147.47 240.24 148.19 238.84 149.03 237.51 C 150.97 237.13 152.02 235.67 152.57 233.89 C 153.56 233.87 154.55 233.85 155.55 233.83 C 155.55 233.10 155.55 231.65 155.55 230.92 C 156.31 230.25 157.07 229.57 157.83 228.89 C 157.35 223.96 158.92 218.63 156.53 214.05 C 156.06 213.34 155.57 212.64 155.07 211.96 C 154.34 210.29 154.39 208.45 154.32 206.67 C 153.18 204.82 152.20 202.86 151.97 200.67 C 151.01 199.57 150.03 198.47 149.09 197.35 C 148.38 196.22 147.73 195.07 147.06 193.93 C 146.28 191.90 144.28 191.00 142.51 190.02 C 141.98 190.02 140.94 190.00 140.41 190.00 Z" />
</g>
<g id="#99d8eaff">
<path fill="#99d8ea" opacity="1.00" d=" M 84.51 135.78 C 88.20 135.66 88.14 140.56 91.15 141.73 C 94.58 143.81 98.75 142.50 102.49 142.48 C 100.23 146.28 95.58 144.99 91.94 144.99 C 87.37 144.53 84.75 140.01 84.51 135.78 Z" />
</g>
</svg>
