<svg xmlns="http://www.w3.org/2000/svg" width="510" height="510"><path fill="#fccc0f" d="m257.17 504.21c137.63-1.2 248.24-113.74 247.04-251.37-1.2-137.64-113.75-248.25-251.39-247.05-137.64 1.21-248.24 113.75-247.02 251.4 1.19 137.61 113.74 248.23 251.37 247.01z"/><path fill="none" stroke="#000" stroke-width="1.56" d="m270.06 176.2c138.27-1.2 249.4-114.27 248.2-252.54-1.2-138.29-114.29-249.4-252.57-248.2C127.41-323.33 16.3-210.26 17.5-71.98s114.3 249.4 252.56 248.18z" transform="matrix(.99536 0 0 .99536 -11.64 328.83)"/><path fill="#162c77" d="m257.1 495.53c132.84-1.17 239.6-109.79 238.43-242.63C494.38 120.05 385.75 13.3 252.9 14.47 120.07 15.62 13.3 124.26 14.47 257.09c1.16 132.84 109.8 239.6 242.62 238.44z"/><path fill="#fff" d="m190.62 170.97c6.73 8.8-11.73-12.73-12.43.51-.68 13.24 4.49 7.18 2.51 10.41-1.98 3.21 16.87 4.26 9.97-5.7-6.9-9.97.83 4.4 6.86 5.95s9.23 1.53 7.59-3.68c-1.64-5.2-1.72-13.2-5.71-11.57-4 1.64-13.64-2.29-8.79 4.08z"/><path fill="none" stroke="#4c4c4c" stroke-width="1.56" d="m207.52-153.57c6.75 8.85-11.8-12.79-12.5.51-.67 13.3 4.52 7.21 2.53 10.46-1.99 3.23 16.95 4.28 10.01-5.73s.84 4.43 6.9 5.98c6.05 1.56 9.27 1.54 7.62-3.7-1.65-5.21-1.73-13.26-5.73-11.62-4.02 1.64-13.71-2.3-8.83 4.1z" transform="matrix(.99536 0 0 .99536 -15.93 323.83)"/><path fill="#fff" d="m239.92 169.74c6.73 8.8-11.74-12.73-12.42.5-.7 13.25 4.47 7.19 2.49 10.42-1.98 3.22 16.87 4.26 9.97-5.7-6.9-9.97.85 4.4 6.87 5.95 6.03 1.55 9.24 1.52 7.6-3.68-1.66-5.19-1.73-13.2-5.73-11.57-4 1.64-13.65-2.29-8.78 4.08z"/><path fill="none" stroke="#4c4c4c" stroke-width="1.56" d="m257.04-154.8c6.76 8.84-11.8-12.8-12.48.5-.7 13.31 4.5 7.22 2.5 10.46-1.98 3.23 16.96 4.28 10.03-5.73-6.93-10 .84 4.42 6.9 5.99 6.06 1.55 9.28 1.52 7.62-3.7-1.65-5.22-1.73-13.27-5.75-11.63-4 1.65-13.71-2.3-8.82 4.1z" transform="matrix(.99536 0 0 .99536 -15.93 323.83)"/><path fill="#fff" d="m290.82 168.9c6.73 8.8-11.74-12.73-12.42.5-.68 13.24 4.47 7.18 2.5 10.41-1.98 3.22 16.87 4.26 9.96-5.7-6.9-9.97.85 4.4 6.88 5.96 6.02 1.54 9.23 1.51 7.58-3.68-1.65-5.2-1.71-13.21-5.72-11.58-3.99 1.64-13.65-2.28-8.78 4.09z"/><path fill="none" stroke="#4c4c4c" stroke-width="1.56" d="m308.18-155.65c6.77 8.85-11.8-12.79-12.47.5-.69 13.3 4.49 7.22 2.5 10.46-1.98 3.24 16.96 4.28 10.01-5.73-6.92-10.01.85 4.42 6.91 5.99 6.05 1.55 9.28 1.52 7.62-3.7s-1.72-13.27-5.74-11.63c-4.01 1.65-13.72-2.3-8.83 4.1z" transform="matrix(.99536 0 0 .99536 -15.93 323.83)"/><path fill="#e50f07" d="m215.47 170.36c3.06 4 1.21.94-2.1-1.48-4-2.9-9.95-5.23-10.33 1.98-.68 13.25 4.48 7.18 2.5 10.41-1.97 3.22 16.88 4.26 9.98-5.7-6.91-9.97.85 4.4 6.86 5.96 6.03 1.54 9.23 1.51 7.6-3.68-1.66-5.2-1.74-13.21-5.72-11.58-4 1.64-13.65-2.28-8.79 4.09z"/><path fill="none" stroke="#000" stroke-width="1.56" d="m232.48-154.18c3.08 4.02 1.22.94-2.11-1.5-4.01-2.9-10-5.24-10.37 2-.69 13.3 4.5 7.21 2.5 10.46-1.98 3.23 16.96 4.28 10.03-5.74-6.94-10 .85 4.43 6.9 6 6.05 1.55 9.27 1.52 7.62-3.7-1.66-5.22-1.74-13.27-5.74-11.63-4.01 1.65-13.71-2.3-8.83 4.1z" transform="matrix(.99536 0 0 .99536 -15.93 323.83)"/><path fill="#e50f07" d="m266.78 169.51c6.73 8.81-11.75-12.73-12.43.5-.69 13.24 4.48 7.19 2.5 10.41-1.98 3.23 16.88 4.25 9.97-5.7-6.9-9.96.84 4.4 6.87 5.95 6.03 1.56 9.24 1.53 7.59-3.67s-1.72-13.22-5.72-11.57c-3.99 1.64-13.65-2.3-8.78 4.08z"/><path fill="none" stroke="#000" stroke-width="1.56" d="m284.02-155.03c6.77 8.84-11.8-12.8-12.47.5-.7 13.3 4.49 7.22 2.5 10.45-1.98 3.24 16.96 4.28 10.02-5.73-6.93-10 .84 4.43 6.9 5.99 6.05 1.56 9.28 1.53 7.62-3.7-1.65-5.22-1.72-13.28-5.74-11.62-4 1.65-13.71-2.3-8.83 4.1z" transform="matrix(.99536 0 0 .99536 -15.93 323.83)"/><path fill="#e50f07" d="m314.87 169.08c6.74 8.82-11.73-12.72-12.4.52-.7 13.23 4.46 7.17 2.48 10.4-1.97 3.23 16.88 4.26 9.97-5.7-6.9-9.96.85 4.4 6.88 5.95 6.02 1.55 9.22 1.53 7.57-3.68-1.65-5.19-1.7-13.2-5.7-11.57s-13.66-2.28-8.8 4.08z"/><path fill="none" stroke="#000" stroke-width="1.56" d="m332.35-155.47c6.77 8.86-11.8-12.78-12.47.52-.7 13.3 4.48 7.21 2.5 10.45-1.99 3.24 16.96 4.28 10.02-5.72-6.93-10.01.85 4.41 6.9 5.97s9.27 1.53 7.62-3.7c-1.66-5.2-1.72-13.27-5.74-11.62-4.02 1.64-13.71-2.3-8.83 4.1z" transform="matrix(.99536 0 0 .99536 -15.93 323.83)"/><path fill="#fff" d="m205.39 164.7s12.25 8.23 19.23 3.4c1.7-1.19-12.44 8.9 4.88 1.13 12.67-5.68 2.54 16.21 14.82-.73 5.93-8.18.18 4.99 13.31 9.7.0.0-3.88-8.38.5-11.22 7.3-4.74 3.22 10.92 16.62-1.75.0.0 3.28 7.58 6.05 4.76 2.79-2.83 1.78-3.82 5-2.65s3.1-1.16 9.77.62c3.92 1.05 2.62 1.31 7.46 3.93.12-9.7-4.22-11.1-8.53-13.53-4.3-2.44-6.78-23.5-8.22-26.9-2.45-5.79.75-6.82-1.99-21.03-2.7-14.2-19.77-16.06-23.78-17.03-4.03-.97-3.83-.38-14.44-.47.0.0-31.74 4.58-7.02 23.4 9.54 7.26 6.26 15.77 6.26 15.77.03 4.45-12.2 11.8-16.63 16.23-5.37 5.37-8.38 15.05-23.03 15.97z"/><path fill="none" stroke="#7f7f7f" stroke-width="1.56" d="m222.35-159.88s12.3 8.28 19.32 3.42c1.71-1.19-12.5 8.94 4.9 1.14 12.73-5.7 2.56 16.29 14.9-.73 5.95-8.22.18 5 13.37 9.75.0.0-3.9-8.42.5-11.28 7.33-4.76 3.24 10.97 16.7-1.76.0.0 3.29 7.62 6.08 4.78 2.8-2.84 1.78-3.84 5.02-2.66 3.23 1.18 3.1-1.16 9.8.63 3.95 1.05 2.64 1.31 7.5 3.94.13-9.74-4.23-11.14-8.56-13.59-4.32-2.45-6.8-23.6-8.26-27.03-2.46-5.81.75-6.85-2-21.13-2.72-14.27-19.86-16.13-23.9-17.1s-3.84-.38-14.5-.48c0 0-31.89 4.6-7.05 23.52 9.58 7.29 6.29 15.84 6.29 15.84.02 4.46-12.27 11.86-16.71 16.3-5.39 5.4-8.42 15.13-23.14 16.05l-.26.4z" transform="matrix(.99536 0 0 .99536 -15.93 323.83)"/><path fill="none" stroke="#8c8c8c" stroke-linecap="round" stroke-width="1.56" d="m261.8-215.25s1.58 2.4 4.01 3.58m-6.77-8.7c1.83 2.5 3.91 4.5 5.53 5.1m-5.93-4.71c2.5 3.82 4.73 6.1 7.76 6.9m15.01 34.9c.25 5.24.23 3.83 1.85 5.22 1.62 1.4 5.8-5.68 5.77-8.1m-7.17-37.36c2.04.68 3.25 2.4 2.84 3.6m-.43-5.24c2.25.48 2.83.8 3.24 2.8m0-3.83c2.4-.02 2.81.57 3.02 1.58m-16 14.21c.37-3.42-1.4 2.43 1.44 3.61m-19.17-7.51c3.84 2.4 8.25 8.07 8.28 12.1m-4.73-11.3c1.84 1.7 4.97 4.7 5.38 6.3" transform="matrix(.99536 0 0 .99536 -15.93 323.83)"/><path fill="none" stroke="#8c8c8c" stroke-linecap="round" stroke-width="1.56" d="m286.42-203.56c.62 4.24.23 3.82 2.86 5.42 2.64 1.58 3.59-5.06 2.55-8.68m1.8-.43c3.28 5.2 6.11 6.8 3.96-8.08m-1.46 16.92c1.25 4.42 5.28 4.79 2.78-4.86m-11.59 10.58c1.65 5.62 4.83-.85 4.4-4.87m-1.55 8.07c-1.66-5.63 2.9 9.23 4.4-2.87m-15.85 10.38c-.04-4.85 2.13 7.37 3.95 4.72.47-.64.9-2.21 1.27-5.18m-25.93.48c-.46-7.25 1.73 13.27 6.43-2.48m-16.01 11.01c.76-4.43-1.93 9.7 4.81-.84m14.12 1.9c-1.27-6.85-1.06 16.51 7.25-.07m-17.25 8.2c-.43-3.63 2.48 6.42 6.43-1.66m27.71-9.92c2.87 6.83 5.69 7.2 7.25.75m-2.08-8.44c-1.28-7.64 3.35 14.46 5.62-1.26m-21.99 19.12c-.86-7.64 2.6 20.11 6.87 1.96m12.43-6.15c-2.47-7.24 4.13 12.45 6.42-3.28m-13.64 6.97c-2.47-6.83 4.56 13.65 6.86 1.54m-31.39 2.7c-1.64-4.42.89 10.05 5.65.34" transform="matrix(.99536 0 0 .99536 -15.93 323.83)"/><path fill="#727272" d="m241.38 102.9c-.13.76-.4 1.71-.4 1.71s3.67-.03 8.78 2.62c3.27 1.7 5.08-2.48 5.04-1.75.15-2.55-.1-4.52.58-5.98.0.0-2.34.05-2.88.14-2.48.4-1.67-.01-3.27.0.0.0-7.07-1.18-7.85 3.27z"/><path fill="#fccc0f" d="m249.7 104.61c1.5.0 2.2-.92 2.69-1.73.37-.62.74-1.49.25-1.8-.5-.3-2.22.12-2.96.12-.88.02-1.8-.15-2.28.27-.35.29-.4 1.08-.4 1.47.01.93 1.22 1.68 2.7 1.67zm-8.19 11.25c1.7 1.7 12.5 2.03 10.86.53-1.65-1.49-5.71-1.62-6.53-4.03.0.0-6.7-11.55-14.55-12.86-7.84-1.3-.85-.23-1.3-.26-3.53-.25-4.33.0-5.24.66-6.93 1.04-16.1-.66-7.35 18.03.83 1.74-.81-2.5 1.59-2.71.0.0 22.1.23 22.52.64z"/><path fill="none" stroke="#595959" stroke-width="1.56" d="m258.64-208.93c1.7 1.7 12.57 2.03 10.9.52-1.64-1.5-5.73-1.62-6.55-4.04.0.0-6.73-11.61-14.61-12.92-7.89-1.31-.86-.23-1.31-.26-3.55-.26-4.35.0-5.26.66-6.97 1.05-16.18-.66-7.39 18.11.83 1.75-.82-2.5 1.6-2.72.0.0 22.2.23 22.62.65z" transform="matrix(.99536 0 0 .99536 -15.93 323.83)"/><path fill="none" stroke="#4c4c4c" stroke-width="1.56" d="m267.06-208c-15.4-3.57-22.9-9.87-25.25-16.97m-6.97 18.4s-.28-4.12 1.54-4.43c1.8-.32 5.03.05 20.02-.7" transform="matrix(.99536 0 0 .99536 -15.93 323.83)"/><path d="m250.26 103.59a.8.8.0 00.78-.8.77.77.0 00-.8-.76.78.78.0 00-.76.78c0 .44.35.78.78.78z"/><path fill="#4c4c4c" d="m231.86 104.04c.06.07.0.25.04.37.1.3.44.44.57.71.24.47.56.72.88 1.13a19 19 0 002.13 2.4c.16-.73-1.37-2.6-1.98-3.04-.36-.45-.75-1.08-1.17-1.85-.27.04-.74-.49-.96-.64-.09.42.23.64.49.92z"/><path fill="#f9db11" d="m61.86 366.74s64.7 119.61 203.98 109.53c134.57-9.71 180.82-108.18 185.27-121.93 1.42-4.39 2.86-7.79-.28-10.63-6.7-6.06-26.84-8.8-30.29-8.42-7.28.81-6.64 6.59-4.8 8.35 1.95 1.83 5.05.42 4.46 1.69-37.22 79.58-126.35 98.14-153.58 99.65.0.0-111.87 15.76-174.85-92.46.0.0 8.78-14.66-5.99-14.27-5.61.14-10.48 13.4-20.4 17.36.0.0-7.7 4.83-3.52 11.13z"/><path fill="none" stroke="#3f3f3f" stroke-linecap="round" stroke-width="1.56" d="m79.78 33.69s10.93.0 6.58 11.7c-1.53 4.16 10.26-13.14 21.83-16.16m362.17-7.11s-1.07-1.27-2.77-1.57c-2.23-.4-5.78 1.57-5.12 6.05.13.86.74 1.54 1.05 1.78 4.15 3.24-10.1-5.6-25.35-6.78" transform="matrix(.99536 0 0 .99536 -15.93 323.83)"/><path fill="#fff" d="m45.68 294.84c-5.85 2.78-5.75 8.18-4.96 11.55 1.5 6.36 7.42 10.39 16.66 8.2 8.27-1.96 13.93-6.4 11.87-15.1-.73-3.08-3.46-8.07-12-7.75l-1.1-4.6c13.72-1.18 16.86 9.44 17.48 12.09 1.89 7.97-1.44 17.02-14.94 20.21-10.81 2.56-19.75-1.83-22.17-12.05-2.14-9.05 2.37-15.08 8.08-17.15zm21.51-38.35 2.01 26.55-35.98 2.73-1.99-26.2 4.31-.33 1.62 21.35 11.03-.84-1.5-19.7 4.31-.32 1.5 19.7 12.02-.92-1.64-21.7 4.3-.32zm-34.06-28.15.38-4.7 35.97 2.88-.44 5.47-30.53 15.94v.1l29.05 2.34-.38 4.71-35.97-2.9.47-5.75 30.5-15.65.01-.1zm1.06-9.18 6.67-28.53 4.21.99-2.78 11.89 30.93 7.23-1.11 4.75-30.93-7.24-2.79 11.9z"/><path fill="#fff" fill-rule="evenodd" d="m77.79 194.58-1.81 4.53-33.53-13.4 6.2-15.5c2.2-5.5 6.32-10.25 13.42-7.41 4.94 1.97 5.76 5.22 6.16 7.88 1.56-1.6 3.17-3.18 7.9-1.5l6.19 2.14c1.89.7 2.68.75 4.03-.33l.75.3-2.22 5.55c-2.32-.17-7.46-2.06-8.72-2.56-2.76-1.1-6.2-1.83-8.37 3.59l-4.38 10.97zm-18.26-7.29 4.2-10.5c1.32-3.32 1.89-7.16-3.06-9.14-5.18-2.07-7.12 1.54-8.01 3.78l-4.52 11.3 11.4 4.56z"/><path fill="#fff" fill-rule="evenodd" d="m81.34 160.94 7.1 8.61-2.58 4.33-24.06-30.13 2.83-4.75 37.69 7.24-2.73 4.57-10.85-2.3zm2.79-13.13-16.37-3.55-.06.08 10.7 13.1z"/><path fill="#fff" d="m101.93 140.5 11.4-14.32 3.38 2.7L102.27 147l-28.23-22.49 3.04-3.8 24.85 19.78zm28.57-24.65-3.6 3.3-24.4-26.58 3.59-3.3 24.4 26.58zm.26-46.05 3.8-2.8 21.4 29.05-4.4 3.24-32.06-12.58-.08.06 17.29 23.46-3.8 2.8L111.5 84l4.65-3.43 31.8 12.77.09-.07-17.3-23.46zm7.69-5.27 25.9-13.68 2.02 3.83-10.8 5.7 14.83 28.08-4.31 2.28-14.83-28.09-10.8 5.7zm67.73 9.54-25.1 8.92-12.09-34 24.77-8.8 1.44 4.06-20.17 7.18 3.7 10.42 18.62-6.62 1.45 4.07-18.61 6.62 4.04 11.36 20.5-7.29zm5.19-5.3 17.92-3.72.88 4.23-22.7 4.71-7.33-35.34 4.78-.99 6.45 31.1zm23.78-4.19 18.23-1.5.35 4.3-23.09 1.9-2.96-35.96 4.86-.4zM259.22 68l-4.88-.01.15-36.1 4.87.02-.14 36.1zm21.47-17.85 15.72 1.87-2.27 19.17-3.16-.37-.6-4.79c-2.84 3.11-7.6 4.77-12.48 4.2-6.14-.73-8.88-3.34-10.5-5.36-4.88-5.84-4.3-12-3.85-15.8 1.04-8.73 7.5-17.93 19.18-16.54 6.68.8 13.68 5.47 13.77 13.63l-4.7-.56c-.8-6.42-5.89-8.34-9.83-8.8-6.44-.77-12.34 3.74-13.46 13.12-.86 7.29.64 15.06 10.18 16.2 1.8.2 4.71.35 7.61-1.43 3.44-2.12 4.62-5.22 5.08-9.07l-11.19-1.32zm42.17 29.52-25.55-7.54 10.21-34.61 25.2 7.43-1.22 4.15-20.53-6.06-3.13 10.61 18.95 5.6-1.23 4.13-18.94-5.58-3.41 11.56 20.87 6.16zm38.87-21.5 4.26 2.05-15.66 32.51-4.93-2.37-3.88-34.23-.1-.05-12.65 26.27-4.25-2.05 15.66-32.51 5.2 2.5L349 84.4l.08.04 12.65-26.26zm26.41 30.13c2.56-5.95-1.08-9.95-3.91-11.96-5.33-3.77-12.43-2.89-17.92 4.86-4.91 6.93-6.23 14 1.07 19.18 2.58 1.83 7.93 3.77 14.13-2.12l3.85 2.73c-9.5 9.95-18.87 4.05-21.1 2.48-6.68-4.74-10.16-13.73-2.14-25.05 6.42-9.06 16.04-11.68 24.6-5.6 7.6 5.37 8.19 12.88 5.27 18.2zm9.19 42.94-19.08-18.59 25.17-25.86 18.83 18.34-3.01 3.1L403.9 93.3l-7.71 7.93L410.34 115l-3.02 3.1-14.15-13.79-8.42 8.65 15.6 15.18z"/><path fill="#fff" fill-rule="evenodd" d="m418.08 141.12-10.85 2.62-2.77-4.2 37.62-8.48 3.03 4.62-22.97 30.74-2.93-4.45 6.82-8.75zm10.59 8.25 10.35-13.18-.06-.08-16.44 3.9z"/><path fill="#fff" d="m445.65 172.07 6.42 14.47-17.64 7.84-1.28-2.9 3.8-2.95c-4.13-.87-7.98-4.1-9.98-8.6-2.51-5.65-1.67-9.33-.78-11.76 2.54-7.18 8.14-9.83 11.62-11.38 8.05-3.57 19.25-2.72 24.03 8.03 2.73 6.16 2.28 14.55-4.69 18.8l-1.91-4.31c5.11-3.98 4.16-9.33 2.55-12.96-2.63-5.93-9.53-8.7-18.17-4.86-6.7 2.98-12.61 8.24-8.72 17.02.74 1.65 2.1 4.23 5.11 5.81 3.58 1.88 6.85 1.3 10.4-.27l-4.58-10.29 3.82-1.7zm-4 50.56-6.67-25.8 34.95-9.03 6.58 25.45-4.19 1.08-5.36-20.73-10.7 2.77 4.94 19.13-4.18 1.08-4.95-19.13-11.68 3.02 5.44 21.07zm38.41 21.34.45 4.7-35.93 3.47-.52-5.46 27.26-21.06v-.1l-29.03 2.8-.46-4.7 35.94-3.47.55 5.76-27.3 20.76.01.1zm-41.4 57.35 1.1-4.75 14.16 3.29 24.08-8.4-1.28 5.53-19.24 6.17 14.55 14-1.29 5.59-17.93-18.14z"/><g fill="#e50f07"><path d="m109.04 387.58-9.58 8.3c-3.03 2.63-7.22 2.95-10.73-1.1-3.44-3.98-2.37-7.9.39-10.29l9.85-8.54 1.73 2-9.3 8.06c-3.21 2.78-2.4 5.5-.85 7.29 1.59 1.83 4.21 3.16 7.42.37l9.35-8.09zm11.84 11.72 1.83 1.78-13.62 14.03-2.13-2.07 3.87-18.25-.04-.04-11 11.33-1.84-1.79 13.63-14.02 2.24 2.18-3.99 18.15.04.03 11-11.33zm-6.21 20.56-2-1.73 12.79-14.8 2 1.74zm14.04-13.53 12.55 9.74-1.44 1.85-5.23-4.06-10.55 13.6-2.1-1.62 10.56-13.6-5.22-4.06zM143.59 441l-12.06-7.92 10.73-16.33 11.9 7.81-1.28 1.96-9.7-6.37-3.28 5 8.94 5.88-1.29 1.96-8.94-5.88-3.59 5.46 9.86 6.47z"/><path fill-rule="evenodd" d="m156.83 426.14 7 3.7c4.51 2.38 5.48 7.26 2.84 12.25-2.04 3.87-6.38 7.99-12.06 4.99l-6.91-3.65zm-5.74 16.53 4.53 2.39c3.03 1.6 6.27.26 8.57-4.1s1.46-7.6-1.72-9.28l-4.36-2.3z"/><path d="m187.54 446.36c.92-2.89-1.1-4.65-3.16-5.42-1.56-.57-4.35-1.12-5.38 1.67-.58 1.55.33 2.47 1.3 3.13l4.79 3.14c2.17 1.44 3.42 3.53 2.34 6.44-1.61 4.34-6.1 4.04-9.23 2.87-3.4-1.26-4.34-2.78-4.88-3.82-1.04-1.98-.77-3.62-.14-5.33l2.32.86c-1.23 3.32 1.11 5.29 3.46 6.16 1.79.67 4.97 1.33 5.94-1.3.72-1.91.05-2.86-2.7-4.7l-3.42-2.25c-1.1-.73-3.49-2.58-2.3-5.77 1.06-2.86 3.97-4.97 8.4-3.32 6.41 2.38 5.63 6.45 4.98 8.5zm5.74-4.01 15.33 4.1-.6 2.27-6.4-1.72-4.44 16.63-2.55-.69 4.44-16.62-6.38-1.7z"/><path fill-rule="evenodd" d="m211.07 460.96-2.96 5.27-2.69-.45 10.51-18.05 2.96.5 3.71 20.46-2.84-.48-.96-5.94-7.73-1.3zm7.18-1.16-1.4-8.96-.06-.01-4.53 7.96 6 1.01z"/><path d="m225.94 449.39 15.83 1.2-.18 2.34-6.6-.5-1.3 17.15-2.64-.2 1.3-17.15-6.59-.51zM258.5 470l-14.43.15-.22-19.54 14.24-.16.03 2.34-11.6.13.06 6 10.7-.13.03 2.34-10.7.12.07 6.53 11.79-.13.02 2.34zm14.63-15.11c-.4-3-2.99-3.73-5.19-3.53-1.65.15-4.4.87-4.13 3.82.15 1.65 1.37 2.1 2.53 2.26l5.67.77c2.58.37 4.61 1.72 4.9 4.81.4 4.61-3.76 6.27-7.1 6.58-3.6.32-5.11-.64-6.05-1.35-1.8-1.33-2.26-2.94-2.43-4.75l2.47-.23c.32 3.53 3.28 4.3 5.78 4.08 1.9-.18 5.06-.95 4.8-3.75-.18-2.03-1.2-2.6-4.45-3.07l-4.08-.56c-1.3-.18-4.25-.82-4.56-4.2-.27-3.05 1.44-6.2 6.15-6.63 6.81-.62 7.86 3.39 8.16 5.52z"/><path fill-rule="evenodd" d="m297.9 465.56c-7.16 1.42-10.53-4.1-11.36-8.23-.82-4.14.18-10.53 7.33-11.95 7.15-1.43 10.53 4.09 11.36 8.22.82 4.14-.18 10.53-7.33 11.96zm-3.57-17.89c-4.16.84-6.02 4.61-5.12 9.13.9 4.51 4.06 7.3 8.23 6.46 4.16-.83 6.02-4.61 5.12-9.12-.9-4.52-4.06-7.3-8.23-6.47z"/><path d="m313.87 461.3-2.54.73-5.4-18.79 13-3.73.65 2.25-10.46 3 1.65 5.76 9.21-2.65.65 2.25-9.22 2.65z"/><path fill-rule="evenodd" d="m336.06 447.92.33 6.04-2.5 1.05-.82-20.86 2.76-1.17 14.11 15.27-2.66 1.12-4-4.5zm5.45-4.84-6.01-6.8-.05.02.46 9.14z"/><path d="m367.3 438.97-5.56-10.12c-.28-.5-1.42-2.7-2.3-4.3l-.05.03 3.08 17.04-2.28 1.26-12.72-11.72-.05.02c.87 1.58 2.12 3.73 2.38 4.23l5.57 10.12-2.24 1.23-9.42-17.14 3.32-1.81 12.85 11.79.05-.03-3.1-17.16 3.3-1.8 9.4 17.13-2.24 1.23zm18.65-12.53-11.82 8.27-11.2-16.01 11.66-8.16 1.34 1.91-9.5 6.65 3.43 4.91 8.77-6.13 1.34 1.91-8.76 6.14 3.74 5.35 9.66-6.76z"/></g><path fill="#e00c05" fill-rule="evenodd" d="m391.83 421.68-2 1.73-12.78-14.79 6.84-5.91c2.43-2.1 5.6-3.36 8.3-.23a4.8 4.8.0 011 5.33c1.14-.38 2.3-.74 4.17 1.25l2.45 2.57c.72.8 1.1 1.03 2.01.84l.29.33-2.45 2.12c-1.07-.66-3.07-2.85-3.56-3.4-1.05-1.22-2.52-2.43-4.9-.36l-4.85 4.18zm-6.96-8.05 4.64-4c1.46-1.27 2.68-2.98.8-5.16-1.98-2.29-3.8-1.03-4.8-.18l-4.99 4.31z"/><path fill="#e50f07" d="m406.96 407.77-1.86 1.87-13.85-13.8 1.87-1.88zm2.36-23.07c-3.08-1.68-5.42.09-6.64 1.52-2.3 2.68-2.18 6.55 1.72 9.9 3.5 3 7.25 4.06 10.4.39 1.11-1.3 2.43-4.1-.43-7.73l1.66-1.95c4.89 5.63 1.24 10.4.29 11.5-2.9 3.37-7.92 4.8-13.63-.09-4.56-3.91-5.5-9.23-1.79-13.55 3.28-3.82 7.36-3.77 10.09-1.93z"/><path fill="#e50f07" fill-rule="evenodd" d="m421.08 382.31 3.53 4.9-1.54 2.25-11.94-17.13 1.7-2.47 20.12 5.24-1.63 2.38-5.8-1.63zm1.98-7-8.73-2.5-.02.05 5.3 7.45z"/><path fill="#fff" d="m285.88 166.53c5.89 5.62 8.1 5.78 2.26-8z"/><path fill="none" stroke="#8c8c8c" stroke-linecap="round" stroke-width="1.56" d="m303.22-158.03c5.91 5.64 8.14 5.8 2.27-8.03z" transform="matrix(.99536 0 0 .99536 -15.93 323.83)"/><path fill="none" stroke="#727272" stroke-linecap="round" stroke-width="1.56" d="m271.13-224.4c-.24.0 2.92 1.08 5.47-2.1m-5.7 1.44c-3.35.77 2.75.5 2.94-2.55" transform="matrix(.99536 0 0 .99536 -15.93 323.83)"/><path fill="none" stroke="#8c8c8c" stroke-linecap="round" stroke-width="1.56" d="m258.25-209.2c3.03 2.2 6.94 7.34 7.36 8.94m17.05 11.93c-.04-4.16 1.56 4.24 3.17 5.05.73.37 1.47-.83 2.06-5.5" transform="matrix(.99536 0 0 .99536 -15.93 323.83)"/><path fill="#fff" d="m151.44 189.18c3.87 1.41 8.1 9.2 8.1 12.89l1.47 169.24c0 15.07 16.1 25.39 29.88 25.39h38.67c12.53.0 21.4 1.08 25.4 16.01 4-14.93 12.85-16.01 25.38-16.01h38.77c13.78.0 29.88-10.32 29.88-25.4l1.47-169.23c0-3.69 4.23-11.48 8.1-12.89h-103.6z"/><path fill="#6b0000" d="m313.4 270.18-58 24.92 10.04 3.49 47.96-28.4z"/><path fill="none" stroke="#000" stroke-width="1.56" d="m330.87-53.9-58.28 25.03 10.1 3.51z" transform="matrix(.99536 0 0 .99536 -15.93 323.83)"/><path fill="#6b0000" d="m230.2 237.2 25.2 57.9 3.45-10.08z"/><path fill="none" stroke="#000" stroke-width="1.56" d="m247.27-87.03 25.32 58.16 3.47-10.12z" transform="matrix(.99536 0 0 .99536 -15.93 323.83)"/><path fill="#6b0000" d="m280.58 353-25.18-57.9 9.7 4.33 15.48 53.56z"/><path fill="none" stroke="#000" stroke-width="1.56" d="m297.9 29.3-25.3-58.17 9.75 4.35z" transform="matrix(.99536 0 0 .99536 -15.93 323.83)"/><path fill="#6b0000" d="m197 319.1 58.4-24-4.54 9.61z"/><path fill="none" stroke="#000" stroke-width="1.56" d="m213.92-4.76 58.67-24.1-4.56 9.65-54.1 14.45z" transform="matrix(.99536 0 0 .99536 -15.93 323.83)"/><path fill="#6b0000" d="m280.47 237.15-25.07 57.95 9.7-4.36z"/><path fill="none" stroke="#000" stroke-width="1.56" d="m297.78-87.08-25.18 58.21 9.76-4.37 15.43-53.84z" transform="matrix(.99536 0 0 .99536 -15.93 323.83)"/><path fill="#6b0000" d="m313.46 319.89-58.06-24.8 10.03-3.5z"/><path fill="none" stroke="#000" stroke-width="1.56" d="m330.93-3.96-58.34-24.9 10.08-3.54 48.26 28.44z" transform="matrix(.99536 0 0 .99536 -15.93 323.83)"/><path fill="#6b0000" d="m229.42 352.64 25.98-57.54 3.3 10.1z"/><path fill="none" stroke="#000" stroke-width="1.56" d="m246.5 28.95 26.1-57.82 3.31 10.15-29.42 47.67z" transform="matrix(.99536 0 0 .99536 -15.93 323.83)"/><path fill="#6b0000" d="m197.33 270.3 58.07 24.8-10.05 3.51-48.02-28.32z"/><path fill="none" stroke="#000" stroke-width="1.56" d="m214.26-53.79 58.33 24.92-10.1 3.53z" transform="matrix(.99536 0 0 .99536 -15.93 323.83)"/><path fill="#e50f07" d="m197.11 319.37 58.29-24.27-10.02-3.62-48.27 27.9z"/><path fill="none" stroke="#000" stroke-width="1.56" d="m214.03-4.48 58.56-24.39-10.06-3.63z" transform="matrix(.99536 0 0 .99536 -15.93 323.83)"/><path fill="#e50f07" d="m280.57 352.98-25.17-57.88-3.47 10.04z"/><path fill="none" stroke="#000" stroke-width="1.56" d="m297.88 29.29-25.28-58.16-3.48 10.1 28.77 48.06z" transform="matrix(.99536 0 0 .99536 -15.93 323.83)"/><path fill="#e50f07" d="m230.2 237.2 25.2 57.9-9.73-4.35-15.46-53.55z"/><path fill="none" stroke="#000" stroke-width="1.56" d="m247.28-87.03 25.31 58.16-9.77-4.36z" transform="matrix(.99536 0 0 .99536 -15.93 323.83)"/><path fill="#e50f07" d="m313.42 270.18-58.02 24.92 4.37-9.7z"/><path fill="none" stroke="#000" stroke-width="1.56" d="m330.88-53.9-58.28 25.03 4.4-9.74 53.9-15.29z" transform="matrix(.99536 0 0 .99536 -15.93 323.83)"/><path fill="#e50f07" d="m197.32 270.31 58.08 24.79-4.41-9.7z"/><path fill="none" stroke="#000" stroke-width="1.56" d="m214.24-53.77 58.35 24.9-4.43-9.74z" transform="matrix(.99536 0 0 .99536 -15.93 323.83)"/><path fill="#e50f07" d="m229.69 352.76 25.7-57.66-9.75 4.25z"/><path fill="none" stroke="#000" stroke-width="1.56" d="m246.76 29.07 25.83-57.94-9.8 4.27z" transform="matrix(.99536 0 0 .99536 -15.93 323.83)"/><path fill="#e50f07" d="m313.46 319.89-58.06-24.8 4.4 9.69 53.66 15.1z"/><path fill="none" stroke="#000" stroke-width="1.56" d="m330.93-3.96-58.34-24.9 4.42 9.72z" transform="matrix(.99536 0 0 .99536 -15.93 323.83)"/><path fill="#e50f07" d="m280.47 237.15-25.07 57.95-3.48-10.07z"/><path fill="none" stroke="#000" stroke-width="1.56" d="m297.78-87.08-25.18 58.21-3.49-10.1 28.68-48.11z" transform="matrix(.99536 0 0 .99536 -15.93 323.83)"/><path fill="#6b0000" d="m306.73 245.23-51.33 49.87 12.04-.37z"/><path fill="none" stroke="#000" stroke-width="1.56" d="m324.16-78.97-51.57 50.1 12.1-.37z" transform="matrix(.99536 0 0 .99536 -15.93 323.83)"/><path fill="#6b0000" d="m305.48 346.18-50.08-51.08 12.02.65z"/><path fill="none" stroke="#000" stroke-width="1.56" d="m322.91 22.46-50.31-51.33 12.09.66 38.23 50.67z" transform="matrix(.99536 0 0 .99536 -15.93 323.83)"/><path fill="#6b0000" d="m203.3 344.14 52.1-49.04-.9 12.01z"/><path fill="none" stroke="#000" stroke-width="1.56" d="m220.25 20.4 52.34-49.27-.9 12.07z" transform="matrix(.99536 0 0 .99536 -15.93 323.83)"/><path fill="#6b0000" d="m205.3 244 50.1 51.1-12.06-.66z"/><path fill="none" stroke="#000" stroke-width="1.56" d="m222.26-80.2 50.33 51.33-12.1-.66z" transform="matrix(.99536 0 0 .99536 -15.93 323.83)"/><path fill="#e50f07" d="m205.28 244.01 50.12 51.09-.44-12.06z"/><path fill="none" stroke="#000" stroke-width="1.56" d="m222.24-80.2 50.35 51.33-.43-12.1-49.92-39.22z" transform="matrix(.99536 0 0 .99536 -15.93 323.83)"/><path fill="#e50f07" d="m203.52 344.38 51.88-49.28-12.06.23z"/><path fill="none" stroke="#000" stroke-width="1.56" d="m220.48 20.65 52.11-49.52-12.11.24z" transform="matrix(.99536 0 0 .99536 -15.93 323.83)"/><path fill="#e50f07" d="m305.48 346.18-50.08-51.08.4 12.04z"/><path fill="none" stroke="#000" stroke-width="1.56" d="m322.91 22.46-50.31-51.33.42 12.1 49.9 39.23z" transform="matrix(.99536 0 0 .99536 -15.93 323.83)"/><path fill="#e50f07" d="m306.73 245.23-51.33 49.87.7-12.04z"/><path fill="none" stroke="#000" stroke-width="1.56" d="m324.16-78.97-51.57 50.1.71-12.1z" transform="matrix(.99536 0 0 .99536 -15.93 323.83)"/><path fill="#e50f07" d="m171.2 295.85 84.2-.75-9.63-9.48-74.56 10.23zm84.81 83.41-.61-84.16-9.75 9z"/><path fill="none" stroke="#000" stroke-width="1.56" d="m273.2 55.7-.6-84.57-9.8 9.06 10.4 75.5z" transform="matrix(.99536 0 0 .99536 -15.93 323.83)"/><path fill="#e50f07" d="m255.05 210.91.35 84.19-9.63-9.6z"/><path fill="none" stroke="#000" stroke-width="1.56" d="m272.24-113.44.35 84.57-9.66-9.63z" transform="matrix(.99536 0 0 .99536 -15.93 323.83)"/><path fill="#e50f07" d="m339.57 294.36-84.17.74 9.53-9.67z"/><path fill="none" stroke="#000" stroke-width="1.56" d="m357.16-29.6-84.57.73 9.58-9.71 74.99 8.97z" transform="matrix(.99536 0 0 .99536 -15.93 323.83)"/><path fill="#6b0000" d="m255.05 210.91.35 84.19 9.53-9.6z"/><path fill="none" stroke="#000" stroke-width="1.56" d="m272.24-113.44.35 84.57 9.58-9.63z" transform="matrix(.99536 0 0 .99536 -15.93 323.83)"/><path fill="#6b0000" d="m256.02 379.26-.62-84.16 9.64 9.47-9.02 74.7z"/><path fill="none" stroke="#000" stroke-width="1.56" d="m273.22 55.7-.63-84.57 9.69 9.52-9.06 75.04z" transform="matrix(.99536 0 0 .99536 -15.93 323.83)"/><path fill="#6b0000" d="m171.2 295.83 84.2-.73-9.75 9-74.44-8.27z"/><path fill="none" stroke="#000" stroke-width="1.56" d="m188.01-28.13 84.58-.74-9.79 9.06z" transform="matrix(.99536 0 0 .99536 -15.93 323.83)"/><path fill="none" stroke="#000" stroke-width="1.56" d="m188.01-28.1 84.58-.77-9.66-9.51L188-28.11z" transform="matrix(.99536 0 0 .99536 -15.93 323.83)"/><path fill="#6b0000" d="m339.57 294.34-84.17.76 9.5 9.47z"/><path fill="none" stroke="#000" stroke-width="1.56" d="m357.16-29.63-84.57.76 9.55 9.52z" transform="matrix(.99536 0 0 .99536 -15.93 323.83)"/><path fill="#fff" d="m467.76 283.88c6.43-.71 8.11-5.85 8.46-9.3.66-6.5-3.61-12.23-13.07-13.2-8.45-.84-15.25 1.5-16.15 10.4-.32 3.15.63 8.76 8.82 11.25l-.48 4.7c-13.35-3.36-12.84-14.42-12.56-17.13.82-8.15 6.93-15.62 20.73-14.23 11.05 1.12 18.07 8.2 17.01 18.64-.93 9.26-7.17 13.47-13.24 13.57z"/></svg>