<svg width="128pt" height="148" viewBox="0 0 128 111" version="1.1" xmlns="http://www.w3.org/2000/svg"><g id="#ff873aff"><path fill="#ff873a" stroke="#ff873a" stroke-width=".094" opacity="1" d="M 44.87 3.86 C 58.00 0.16 72.34 0.31 85.28 4.70 C 99.17 9.46 110.08 20.78 116.02 34.02 C 122.85 48.82 125.13 65.28 125.36 81.46 C 125.03 81.86 124.35 82.66 124.02 83.06 C 119.15 88.56 112.62 92.14 106.02 95.13 C 104.81 91.84 103.45 88.61 101.96 85.44 C 100.88 82.91 99.44 80.55 97.65 78.47 C 97.84 75.59 97.45 72.46 98.83 69.81 C 100.75 67.12 103.46 65.11 105.49 62.50 C 110.57 56.04 112.60 47.25 110.74 39.24 C 108.99 31.35 103.78 24.40 96.89 20.24 C 83.52 11.82 64.32 13.74 53.36 25.33 C 46.50 32.25 43.58 42.74 46.01 52.20 C 49.00 64.18 59.99 73.09 72.01 74.91 C 77.43 76.11 83.56 75.21 88.28 78.68 C 91.38 80.90 94.44 83.56 96.04 87.11 C 97.29 91.57 94.90 96.58 91.15 99.11 C 88.25 100.67 84.88 100.89 81.68 101.37 C 60.87 103.92 38.95 102.22 19.78 93.23 C 13.07 90.22 7.58 85.26 2.67 79.90 L 2.37 79.44 C 2.40 62.87 5.43 45.93 13.03 31.08 C 19.46 18.25 30.95 7.82 44.87 3.86 Z"/></g><g id="#fffefeff"><path fill="#fffefe" stroke="#fffefe" stroke-width=".094" opacity="1" d="M 53.36 25.33 C 64.32 13.74 83.52 11.82 96.89 20.24 C 103.78 24.40 108.99 31.35 110.74 39.24 C 112.60 47.25 110.57 56.04 105.49 62.50 C 103.46 65.11 100.75 67.12 98.83 69.81 C 97.45 72.46 97.84 75.59 97.65 78.47 C 96.09 76.82 94.38 75.29 92.45 74.09 C 93.13 70.19 94.10 66.06 97.24 63.35 C 101.86 59.07 105.53 53.38 105.78 46.93 C 106.35 41.56 104.10 36.53 102.22 31.64 C 97.45 27.11 92.10 22.79 85.51 21.36 C 75.37 18.85 63.77 21.86 56.77 29.80 C 51.68 35.31 49.40 43.39 51.34 50.70 C 53.40 59.13 60.39 65.74 68.47 68.48 C 76.00 71.21 84.63 69.63 91.74 73.69 C 94.85 76.44 98.06 79.24 100.16 82.89 C 102.86 86.49 100.89 91.05 100.46 95.06 C 99.05 99.50 97.22 104.60 92.61 106.61 C 82.53 110.33 71.57 109.59 61.02 109.63 C 52.87 109.76 44.91 107.83 36.85 106.94 C 26.25 104.87 16.31 99.82 8.10 92.83 C 4.53 90.13 1.90 86.32 0.52 82.08 C 0.97 81.47 1.87 80.24 2.32 79.63 L 2.67 79.90 C 7.58 85.26 13.07 90.22 19.78 93.23 C 38.95 102.22 60.87 103.92 81.68 101.37 C 84.88 100.89 88.25 100.67 91.15 99.11 C 94.90 96.58 97.29 91.57 96.04 87.11 C 94.44 83.56 91.38 80.90 88.28 78.68 C 83.56 75.21 77.43 76.11 72.01 74.91 C 59.99 73.09 49.00 64.18 46.01 52.20 C 43.58 42.74 46.50 32.25 53.36 25.33 Z"/><path fill="#fffefe" stroke="#fffefe" stroke-width=".094" opacity="1" d="M 124.02 83.06 C 124.37 82.79 125.07 82.27 125.42 82.01 C 128.05 85.41 125.24 89.23 123.23 92.10 C 119.24 96.66 113.88 100.21 107.99 101.74 C 104.32 102.46 102.26 98.85 100.49 96.32 C 101.44 92.77 101.85 89.10 101.96 85.44 C 103.45 88.61 104.81 91.84 106.02 95.13 C 112.62 92.14 119.15 88.56 124.02 83.06 Z"/></g><g id="#fcc21bff"><path fill="#fcc21b" stroke="#fcc21b" stroke-width=".094" opacity="1" d="M 56.77 29.80 C 63.77 21.86 75.37 18.85 85.51 21.36 C 92.10 22.79 97.45 27.11 102.22 31.64 C 104.10 36.53 106.35 41.56 105.78 46.93 C 105.53 53.38 101.86 59.07 97.24 63.35 C 94.10 66.06 93.13 70.19 92.45 74.09 L 91.74 73.69 C 84.63 69.63 76.00 71.21 68.47 68.48 C 60.39 65.74 53.40 59.13 51.34 50.70 C 49.40 43.39 51.68 35.31 56.77 29.80 M 69.97 35.47 C 65.90 35.44 61.89 36.26 57.86 36.77 L 57.17 37.33 C 55.89 37.45 54.62 37.57 53.34 37.69 C 53.42 38.18 53.59 39.17 53.67 39.67 C 57.20 42.45 58.13 47.06 60.72 50.55 C 65.01 50.65 69.21 49.69 73.24 48.25 C 74.66 44.81 75.38 41.15 75.68 37.45 C 77.20 37.39 78.72 37.34 80.24 37.30 C 81.53 40.64 82.94 44.03 85.54 46.59 C 89.87 46.73 94.18 46.11 98.17 44.35 C 98.51 43.24 98.86 42.13 99.21 41.02 C 99.32 38.36 99.47 35.65 100.51 33.16 C 99.97 32.48 99.43 31.81 98.88 31.14 C 88.94 30.56 79.87 35.89 69.97 35.47 M 80.07 57.75 C 75.64 58.36 71.52 56.43 67.70 54.47 C 66.99 55.84 65.45 57.49 67.43 58.56 C 76.28 64.73 89.99 62.09 95.92 53.02 C 95.00 52.29 94.07 51.56 93.15 50.84 C 89.62 54.39 85.28 57.64 80.07 57.75 Z"/></g><g id="#292f33ff"><path fill="#292f33" stroke="#292f33" stroke-width=".094" opacity="1" d="M 69.97 35.47 C 79.87 35.89 88.94 30.56 98.88 31.14 C 99.43 31.81 99.97 32.48 100.51 33.16 C 99.47 35.65 99.32 38.36 99.21 41.02 C 98.86 42.13 98.51 43.24 98.17 44.35 C 94.18 46.11 89.87 46.73 85.54 46.59 C 82.94 44.03 81.53 40.64 80.24 37.30 C 78.72 37.34 77.20 37.39 75.68 37.45 C 75.38 41.15 74.66 44.81 73.24 48.25 C 69.21 49.69 65.01 50.65 60.72 50.55 C 58.13 47.06 57.20 42.45 53.67 39.67 C 53.59 39.17 53.42 38.18 53.34 37.69 C 54.62 37.57 55.89 37.45 57.17 37.33 L 57.86 36.77 C 61.89 36.26 65.90 35.44 69.97 35.47 Z"/><path fill="#292f33" stroke="#292f33" stroke-width=".094" opacity="1" d="M 80.07 57.75 C 85.28 57.64 89.62 54.39 93.15 50.84 C 94.07 51.56 95.00 52.29 95.92 53.02 C 89.99 62.09 76.28 64.73 67.43 58.56 C 65.45 57.49 66.99 55.84 67.70 54.47 C 71.52 56.43 75.64 58.36 80.07 57.75 Z"/><path fill="#292f33" stroke="#292f33" stroke-width=".094" opacity="1" d="M 91.74 73.69 L 92.45 74.09 C 94.38 75.29 96.09 76.82 97.65 78.47 C 99.44 80.55 100.88 82.91 101.96 85.44 C 101.85 89.10 101.44 92.77 100.49 96.32 L 100.46 95.06 C 100.89 91.05 102.86 86.49 100.16 82.89 C 98.06 79.24 94.85 76.44 91.74 73.69 Z"/></g></svg>