<svg width="112pt" height="112pt" viewBox="0 0 112 112" version="1.1" xmlns="http://www.w3.org/2000/svg"><g id="#020103fe"><path fill="#020103" opacity="1" d="M 30.10 4.60 C 34.67 4.35 38.44 1.29 42.93 0.71 C 50.12 -0.07 57.23 1.84 64.00 4.07 C 67.51 5.53 70.88 3.32 74.12 2.22 C 79.78 -0.10 86.06 -0.06 92.05 0.55 C 99.90 1.83 106.65 6.77 112.00 12.45 L 112.00 15.46 C 106.70 9.55 100.07 4.13 92.05 2.71 C 85.28 1.57 77.92 1.96 71.92 5.59 C 78.52 7.58 85.46 8.12 92.05 10.16 C 95.83 11.32 98.90 13.92 101.68 16.63 C 97.78 14.71 94.04 12.38 89.86 11.10 C 83.87 9.32 77.61 8.55 71.37 8.46 C 68.81 8.41 66.12 8.30 63.89 6.88 C 56.43 2.63 47.37 1.28 39.05 3.51 C 39.33 4.93 39.61 6.35 39.90 7.76 C 35.40 6.98 30.61 5.32 26.09 6.80 C 18.89 10.35 10.02 11.05 4.60 17.61 C 5.57 17.85 7.51 18.32 8.48 18.55 C 1.62 21.75 -0.97 31.07 2.56 37.56 C 5.76 42.14 12.02 41.83 16.98 42.23 C 24.16 41.75 32.19 41.53 38.12 36.98 C 40.15 32.45 41.13 27.51 42.81 22.83 C 37.19 18.74 31.21 14.13 24.01 13.70 C 19.06 14.06 14.36 15.86 9.84 17.81 C 13.95 14.05 19.25 11.31 24.98 12.10 C 30.17 11.83 33.72 15.95 37.76 18.45 C 40.44 20.05 43.56 20.64 46.60 21.14 C 41.58 14.37 33.45 11.36 25.80 8.68 C 32.67 7.73 37.64 13.29 43.48 15.73 C 49.66 16.95 54.03 9.73 60.23 10.74 C 67.66 11.68 75.37 11.83 82.37 14.77 C 87.14 16.69 90.96 20.28 94.51 23.89 C 88.33 21.08 83.33 15.94 76.64 14.21 C 69.25 12.42 61.46 12.32 54.04 13.97 C 51.62 14.51 49.93 16.44 48.25 18.11 C 52.64 17.80 56.81 16.32 61.12 15.62 C 66.93 15.16 72.94 15.52 78.38 17.77 C 83.80 19.88 87.66 24.47 92.62 27.37 C 94.65 28.91 97.47 30.03 98.26 32.67 C 94.13 35.53 89.47 37.58 85.60 40.82 C 84.54 41.63 83.51 42.47 82.47 43.29 C 75.82 48.74 66.52 49.87 58.23 48.82 C 54.22 47.99 50.27 46.84 46.55 45.11 C 45.86 45.70 45.18 46.30 44.50 46.90 C 42.54 44.47 40.52 42.09 38.62 39.61 C 32.88 41.48 27.16 43.78 21.03 43.90 C 15.03 44.34 9.10 43.21 3.19 42.37 C 5.18 44.02 7.28 45.87 9.96 46.18 C 17.46 47.02 24.93 45.55 32.32 44.50 C 27.31 46.14 22.09 46.96 16.90 47.86 C 11.38 48.79 6.48 52.23 3.27 56.76 C 14.26 56.48 25.31 54.99 36.26 56.83 C 40.65 58.02 45.22 58.11 49.64 59.17 C 51.38 59.55 53.10 60.01 54.80 60.55 C 59.69 62.89 65.11 63.63 70.21 65.35 C 73.22 66.35 76.46 67.07 79.04 69.03 C 81.09 70.63 81.49 73.37 81.60 75.81 C 81.67 79.16 81.18 82.50 80.11 85.68 C 79.21 87.25 78.18 88.75 77.07 90.17 C 73.02 91.64 71.47 95.97 68.87 99.03 C 64.57 104.50 58.58 108.24 52.84 112.00 L 10.94 112.00 C 9.36 109.63 7.70 107.08 7.90 104.10 C 7.94 94.04 8.25 83.98 8.18 73.92 C 8.49 68.60 1.94 66.21 2.00 61.00 C 1.98 58.36 1.41 55.34 2.97 53.01 C 4.90 51.00 7.59 50.02 9.98 48.69 C 7.56 47.34 4.68 46.40 2.98 44.07 C 1.58 41.61 0.95 38.80 0.00 36.15 L 0.00 25.60 C 1.47 21.79 2.66 17.60 5.70 14.69 C 8.19 12.40 11.32 11.00 14.34 9.55 C 19.39 7.36 24.49 4.88 30.10 4.60 M 58.38 17.58 C 53.63 18.76 49.28 21.34 45.87 24.84 C 42.96 28.45 40.40 33.10 41.86 37.86 C 43.02 40.55 44.57 43.43 47.32 44.77 C 57.06 48.96 68.35 48.21 78.04 44.27 C 82.98 42.22 86.31 37.78 90.81 35.07 C 92.74 33.74 96.24 33.86 95.99 30.76 C 94.19 29.41 92.01 28.75 90.05 27.70 C 86.67 26.01 84.43 22.78 81.17 20.92 C 74.42 16.91 65.99 15.47 58.38 17.58 M 3.33 61.56 C 6.55 64.83 10.76 68.07 11.01 73.06 C 11.36 82.71 11.24 92.40 10.63 102.04 C 10.70 104.30 10.02 107.26 12.34 108.66 C 15.84 111.74 20.74 110.94 25.01 111.02 C 31.30 110.84 37.62 111.33 43.90 110.78 C 51.30 109.41 58.31 105.93 63.96 100.96 C 68.83 96.79 72.46 91.46 76.72 86.72 C 79.82 83.34 79.98 78.48 79.65 74.16 C 79.64 71.86 77.92 69.85 75.77 69.19 C 67.83 66.55 59.83 64.11 51.71 62.13 C 42.47 59.00 32.63 58.95 23.03 57.91 C 16.39 57.63 8.68 56.70 3.33 61.56 Z"/><path fill="#020103" opacity="1" d="M 11.54 19.40 C 15.73 18.38 21.69 20.11 21.77 25.21 C 21.68 29.12 23.10 34.74 18.71 36.83 C 15.46 39.03 11.30 39.08 7.57 38.38 C 3.83 36.04 3.78 31.39 4.23 27.48 C 4.31 23.47 7.95 20.47 11.54 19.40 M 8.38 27.54 C 8.90 29.37 9.63 31.17 11.06 32.48 C 13.25 31.71 14.26 29.76 13.51 27.55 C 12.06 25.91 10.07 27.07 8.38 27.54 Z"/><path fill="#020103" opacity="1" d="M 52.48 22.38 C 56.25 21.59 60.86 22.51 62.46 26.43 C 63.09 29.96 63.02 33.65 62.41 37.18 C 60.10 40.92 55.30 42.13 51.14 41.75 C 47.55 42.04 44.81 38.27 45.12 34.90 C 45.20 31.90 44.59 28.30 46.98 26.01 C 48.44 24.36 50.30 22.90 52.48 22.38 M 49.54 29.82 C 49.24 32.87 51.13 35.20 54.17 35.51 C 54.40 33.58 54.51 31.64 54.50 29.69 C 52.84 29.71 51.19 29.75 49.54 29.82 Z"/><path fill="#020103" opacity="1" d="M 89.04 44.06 C 88.92 42.74 90.29 40.23 91.75 41.56 C 92.27 43.01 90.66 44.10 89.48 44.49 L 89.04 44.06 Z"/><path fill="#020103" opacity="1" d="M 84.67 46.02 C 85.14 46.60 85.60 47.18 86.06 47.77 C 77.54 50.85 68.91 53.98 59.75 54.36 C 59.13 53.73 58.51 53.10 57.91 52.45 C 67.25 53.23 76.44 50.19 84.67 46.02 Z"/><path fill="#020103" opacity="1" d="M 10.69 64.00 C 15.66 61.13 21.55 61.89 27.04 61.95 C 37.75 62.10 48.09 65.17 58.44 67.60 C 63.18 68.77 67.83 70.48 72.02 73.01 C 75.98 75.19 77.29 81.60 73.68 84.69 C 67.52 90.18 63.54 98.06 55.98 101.93 C 50.37 104.76 44.57 108.20 38.06 107.83 C 30.68 107.66 22.20 108.95 15.97 104.09 C 13.37 102.34 14.11 98.84 14.20 96.18 C 15.25 88.82 15.14 81.37 15.00 73.96 C 15.03 70.16 12.29 67.22 10.69 64.00 M 15.31 63.75 C 16.00 67.20 17.88 70.37 17.85 73.95 C 18.09 83.02 17.99 92.09 17.43 101.14 C 21.12 102.77 24.78 105.04 28.95 105.02 C 36.87 105.13 45.18 105.74 52.47 102.02 L 51.80 101.73 C 57.29 99.31 62.03 95.40 65.23 90.31 C 66.74 89.12 68.05 87.71 69.42 86.37 C 71.65 83.99 75.77 80.54 72.98 77.09 C 65.45 70.39 55.02 68.90 45.53 66.74 C 39.77 64.95 33.80 63.80 27.76 63.63 C 23.61 63.61 19.46 63.49 15.31 63.75 Z"/><path fill="#020103" opacity="1" d="M 97.14 112.00 C 102.95 108.08 108.30 103.36 112.00 97.34 L 112.00 102.32 C 108.85 105.86 105.54 109.33 101.59 112.00 L 97.14 112.00 Z"/></g><g id="#cc0000ff"><path fill="#c00" opacity="1" d="M 39.05 3.51 C 47.37 1.28 56.43 2.63 63.89 6.88 C 66.12 8.30 68.81 8.41 71.37 8.46 C 77.61 8.55 83.87 9.32 89.86 11.10 C 94.04 12.38 97.78 14.71 101.68 16.63 C 98.90 13.92 95.83 11.32 92.05 10.16 C 85.46 8.12 78.52 7.58 71.92 5.59 C 77.92 1.96 85.28 1.57 92.05 2.71 C 100.07 4.13 106.70 9.55 112.00 15.46 L 112.00 97.34 C 108.30 103.36 102.95 108.08 97.14 112.00 L 52.84 112.00 C 58.58 108.24 64.57 104.50 68.87 99.03 C 75.94 99.78 83.07 98.69 89.37 95.34 C 92.54 98.86 95.81 102.29 99.18 105.62 C 101.46 103.80 103.54 101.75 105.40 99.50 C 102.06 96.15 98.69 92.85 95.25 89.62 C 99.52 82.97 102.49 75.16 101.75 67.15 C 100.81 58.33 95.63 50.60 89.48 44.49 C 90.66 44.10 92.27 43.01 91.75 41.56 C 90.29 40.23 88.92 42.74 89.04 44.06 C 87.90 42.97 86.74 41.90 85.60 40.82 C 89.47 37.58 94.13 35.53 98.26 32.67 C 97.47 30.03 94.65 28.91 92.62 27.37 C 87.66 24.47 83.80 19.88 78.38 17.77 C 72.94 15.52 66.93 15.16 61.12 15.62 C 56.81 16.32 52.64 17.80 48.25 18.11 C 49.93 16.44 51.62 14.51 54.04 13.97 C 61.46 12.32 69.25 12.42 76.64 14.21 C 83.33 15.94 88.33 21.08 94.51 23.89 C 90.96 20.28 87.14 16.69 82.37 14.77 C 75.37 11.83 67.66 11.68 60.23 10.74 C 54.03 9.73 49.66 16.95 43.48 15.73 C 37.64 13.29 32.67 7.73 25.80 8.68 C 33.45 11.36 41.58 14.37 46.60 21.14 C 43.56 20.64 40.44 20.05 37.76 18.45 C 33.72 15.95 30.17 11.83 24.98 12.10 C 19.25 11.31 13.95 14.05 9.84 17.81 C 9.50 17.99 8.82 18.37 8.48 18.55 C 7.51 18.32 5.57 17.85 4.60 17.61 C 10.02 11.05 18.89 10.35 26.09 6.80 C 30.61 5.32 35.40 6.98 39.90 7.76 C 39.61 6.35 39.33 4.93 39.05 3.51 Z"/><path fill="#c00" opacity="1" d="M 21.03 43.90 C 27.16 43.78 32.88 41.48 38.62 39.61 C 40.52 42.09 42.54 44.47 44.50 46.90 C 41.41 49.89 38.04 52.82 36.26 56.83 C 25.31 54.99 14.26 56.48 3.27 56.76 C 6.48 52.23 11.38 48.79 16.90 47.86 C 22.09 46.96 27.31 46.14 32.32 44.50 C 24.93 45.55 17.46 47.02 9.96 46.18 C 7.28 45.87 5.18 44.02 3.19 42.37 C 9.10 43.21 15.03 44.34 21.03 43.90 Z"/><path fill="#c00" opacity="1" d="M 58.23 48.82 C 66.52 49.87 75.82 48.74 82.47 43.29 C 83.02 43.97 84.12 45.34 84.67 46.02 C 76.44 50.19 67.25 53.23 57.91 52.45 L 57.47 51.91 C 57.68 50.87 57.94 49.84 58.23 48.82 Z"/><path fill="#c00" opacity="1" d="M 59.75 54.36 C 68.91 53.98 77.54 50.85 86.06 47.77 C 93.48 57.73 96.63 72.67 89.26 83.51 C 86.61 81.04 84.02 78.50 81.60 75.81 C 81.49 73.37 81.09 70.63 79.04 69.03 C 76.46 67.07 73.22 66.35 70.21 65.35 C 67.04 61.39 63.33 57.93 59.75 54.36 Z"/><path fill="#c00" opacity="1" d="M 52.46 57.02 C 53.28 58.17 54.04 59.36 54.80 60.55 C 53.10 60.01 51.38 59.55 49.64 59.17 C 50.57 58.45 51.51 57.74 52.46 57.02 Z"/><path fill="#c00" opacity="1" d="M 77.07 90.17 C 78.18 88.75 79.21 87.25 80.11 85.68 C 80.94 86.64 81.76 87.60 82.59 88.56 C 80.76 89.12 78.91 89.63 77.07 90.17 Z"/></g><g id="#fdfeedff"><path fill="#fdfeed" opacity="1" d="M 9.84 17.81 C 14.36 15.86 19.06 14.06 24.01 13.70 C 31.21 14.13 37.19 18.74 42.81 22.83 C 41.13 27.51 40.15 32.45 38.12 36.98 C 32.19 41.53 24.16 41.75 16.98 42.23 C 12.02 41.83 5.76 42.14 2.56 37.56 C -0.97 31.07 1.62 21.75 8.48 18.55 C 8.82 18.37 9.50 17.99 9.84 17.81 M 11.54 19.40 C 7.95 20.47 4.31 23.47 4.23 27.48 C 3.78 31.39 3.83 36.04 7.57 38.38 C 11.30 39.08 15.46 39.03 18.71 36.83 C 23.10 34.74 21.68 29.12 21.77 25.21 C 21.69 20.11 15.73 18.38 11.54 19.40 Z"/><path fill="#fdfeed" opacity="1" d="M 58.38 17.58 C 65.99 15.47 74.42 16.91 81.17 20.92 C 84.43 22.78 86.67 26.01 90.05 27.70 C 92.01 28.75 94.19 29.41 95.99 30.76 C 96.24 33.86 92.74 33.74 90.81 35.07 C 86.31 37.78 82.98 42.22 78.04 44.27 C 68.35 48.21 57.06 48.96 47.32 44.77 C 44.57 43.43 43.02 40.55 41.86 37.86 C 40.40 33.10 42.96 28.45 45.87 24.84 C 49.28 21.34 53.63 18.76 58.38 17.58 M 52.48 22.38 C 50.30 22.90 48.44 24.36 46.98 26.01 C 44.59 28.30 45.20 31.90 45.12 34.90 C 44.81 38.27 47.55 42.04 51.14 41.75 C 55.30 42.13 60.10 40.92 62.41 37.18 C 63.02 33.65 63.09 29.96 62.46 26.43 C 60.86 22.51 56.25 21.59 52.48 22.38 Z"/><path fill="#fdfeed" opacity="1" d="M 8.38 27.54 C 10.07 27.07 12.06 25.91 13.51 27.55 C 14.26 29.76 13.25 31.71 11.06 32.48 C 9.63 31.17 8.90 29.37 8.38 27.54 Z"/><path fill="#fdfeed" opacity="1" d="M 49.54 29.82 C 51.19 29.75 52.84 29.71 54.50 29.69 C 54.51 31.64 54.40 33.58 54.17 35.51 C 51.13 35.20 49.24 32.87 49.54 29.82 Z"/></g><g id="#ffd500ff"><path fill="#ffd500" opacity="1" d="M 82.47 43.29 C 83.51 42.47 84.54 41.63 85.60 40.82 C 86.74 41.90 87.90 42.97 89.04 44.06 L 89.48 44.49 C 95.63 50.60 100.81 58.33 101.75 67.15 C 102.49 75.16 99.52 82.97 95.25 89.62 C 98.69 92.85 102.06 96.15 105.40 99.50 C 103.54 101.75 101.46 103.80 99.18 105.62 C 95.81 102.29 92.54 98.86 89.37 95.34 C 83.07 98.69 75.94 99.78 68.87 99.03 C 71.47 95.97 73.02 91.64 77.07 90.17 C 78.91 89.63 80.76 89.12 82.59 88.56 C 81.76 87.60 80.94 86.64 80.11 85.68 C 81.18 82.50 81.67 79.16 81.60 75.81 C 84.02 78.50 86.61 81.04 89.26 83.51 C 96.63 72.67 93.48 57.73 86.06 47.77 C 85.60 47.18 85.14 46.60 84.67 46.02 C 84.12 45.34 83.02 43.97 82.47 43.29 Z"/><path fill="#ffd500" opacity="1" d="M 44.50 46.90 C 45.18 46.30 45.86 45.70 46.55 45.11 C 50.27 46.84 54.22 47.99 58.23 48.82 C 57.94 49.84 57.68 50.87 57.47 51.91 L 57.91 52.45 C 58.51 53.10 59.13 53.73 59.75 54.36 C 63.33 57.93 67.04 61.39 70.21 65.35 C 65.11 63.63 59.69 62.89 54.80 60.55 C 54.04 59.36 53.28 58.17 52.46 57.02 C 51.51 57.74 50.57 58.45 49.64 59.17 C 45.22 58.11 40.65 58.02 36.26 56.83 C 38.04 52.82 41.41 49.89 44.50 46.90 Z"/></g><g id="#aa682dff"><path fill="#aa682d" opacity="1" d="M 3.33 61.56 C 8.68 56.70 16.39 57.63 23.03 57.91 C 32.63 58.95 42.47 59.00 51.71 62.13 C 59.83 64.11 67.83 66.55 75.77 69.19 C 77.92 69.85 79.64 71.86 79.65 74.16 C 79.98 78.48 79.82 83.34 76.72 86.72 C 72.46 91.46 68.83 96.79 63.96 100.96 C 58.31 105.93 51.30 109.41 43.90 110.78 C 37.62 111.33 31.30 110.84 25.01 111.02 C 20.74 110.94 15.84 111.74 12.34 108.66 C 10.02 107.26 10.70 104.30 10.63 102.04 C 11.24 92.40 11.36 82.71 11.01 73.06 C 10.76 68.07 6.55 64.83 3.33 61.56 M 10.69 64.00 C 12.29 67.22 15.03 70.16 15.00 73.96 C 15.14 81.37 15.25 88.82 14.20 96.18 C 14.11 98.84 13.37 102.34 15.97 104.09 C 22.20 108.95 30.68 107.66 38.06 107.83 C 44.57 108.20 50.37 104.76 55.98 101.93 C 63.54 98.06 67.52 90.18 73.68 84.69 C 77.29 81.60 75.98 75.19 72.02 73.01 C 67.83 70.48 63.18 68.77 58.44 67.60 C 48.09 65.17 37.75 62.10 27.04 61.95 C 21.55 61.89 15.66 61.13 10.69 64.00 Z"/></g><g id="#e31167ff"><path fill="#e31167" opacity="1" d="M 15.31 63.75 C 19.46 63.49 23.61 63.61 27.76 63.63 C 25.24 67.04 22.42 71.14 24.09 75.58 C 27.18 85.66 35.05 94.15 44.60 98.51 C 46.97 99.64 49.39 100.68 51.80 101.73 L 52.47 102.02 C 45.18 105.74 36.87 105.13 28.95 105.02 C 24.78 105.04 21.12 102.77 17.43 101.14 C 17.99 92.09 18.09 83.02 17.85 73.95 C 17.88 70.37 16.00 67.20 15.31 63.75 Z"/></g><g id="#b41153ff"><path fill="#b41153" opacity="1" d="M 27.76 63.63 C 33.80 63.80 39.77 64.95 45.53 66.74 L 45.67 67.73 C 46.11 75.36 47.94 83.74 54.30 88.68 C 57.36 91.21 61.56 91.07 65.23 90.31 C 62.03 95.40 57.29 99.31 51.80 101.73 C 49.39 100.68 46.97 99.64 44.60 98.51 C 35.05 94.15 27.18 85.66 24.09 75.58 C 22.42 71.14 25.24 67.04 27.76 63.63 Z"/></g><g id="#7a133cff"><path fill="#7a133c" opacity="1" d="M 45.53 66.74 C 55.02 68.90 65.45 70.39 72.98 77.09 C 75.77 80.54 71.65 83.99 69.42 86.37 C 67.70 84.87 65.82 83.49 64.49 81.61 C 62.69 78.88 61.93 75.60 60.08 72.90 C 55.52 70.57 50.15 70.32 45.67 67.73 L 45.53 66.74 Z"/></g><g id="#921246ff"><path fill="#921246" opacity="1" d="M 45.67 67.73 C 50.15 70.32 55.52 70.57 60.08 72.90 C 61.93 75.60 62.69 78.88 64.49 81.61 C 65.82 83.49 67.70 84.87 69.42 86.37 C 68.05 87.71 66.74 89.12 65.23 90.31 C 61.56 91.07 57.36 91.21 54.30 88.68 C 47.94 83.74 46.11 75.36 45.67 67.73 Z"/></g></svg>