<svg xmlns="http://www.w3.org/2000/svg" width="128pt" height="144" viewBox="0 0 128 108"><path fill="#fd0000" d="m36.66.0h3.39c7.43.78 13.82 5 19.75 9.22 7.39 5.48 14.17 11.84 19.95 19.01 4.01 5.24 8.11 11 8.69 17.78.35 3.03-1.02 5.85-2.88 8.13-7.63 3-13.95-3.71-17.91-9.36-14.22-.01-28.44-.04-42.66.02-3.36.17-6.7-.14-10.02-.52 1.87-6.79-3.85-11.94-4.83-18.29-.65-2.9-.3-6.03 1.24-8.6 5.32-9.09 14.72-16.01 25.28-17.39m-15.9 21.09c-2.56.03-5.13.06-7.69.17 1.93 1.51 3.9 2.97 6.01 4.21-1.01 2.31-1.01 4.88-1.89 7.22 2.04-1.3 4.06-2.66 6.03-4.07 2.05 1.4 4.1 2.81 6.19 4.16-.66-2.4-1.37-4.79-2.08-7.18 1.97-1.39 3.88-2.86 5.77-4.37-2.6-.07-5.2-.12-7.8-.18-.59-2.19-1.22-4.37-1.94-6.51-.85 2.19-1.97 4.27-2.6 6.55z"/><path fill="#feab01" d="m20.76 21.09c.63-2.28 1.75-4.36 2.6-6.55.72 2.14 1.35 4.32 1.94 6.51 2.6.06 5.2.11 7.8.18-1.89 1.51-3.8 2.98-5.77 4.37.71 2.39 1.42 4.78 2.08 7.18-2.09-1.35-4.14-2.76-6.19-4.16-1.97 1.41-3.99 2.77-6.03 4.07.88-2.34.88-4.91 1.89-7.22-2.11-1.24-4.08-2.7-6.01-4.21 2.56-.11 5.13-.14 7.69-.17z"/><path fill="#feab01" d="m2.8 90.17C-3.36 76.08 1.16 58.2 13.43 48.85c-1.64 8.83-.49 18.49 5.21 25.71-3.16 6.33-4.43 13.46-3.33 20.48-.57 1.45-1.39 3.26-3.26 3.16-4.42-.48-7.63-4.13-9.25-8.03z"/><path fill="#63b446" d="m14.97 44.28c3.32.38 6.66.69 10.02.52 14.22-.06 28.44-.03 42.66-.02 3.96 5.65 10.28 12.36 17.91 9.36 4.64 7.31 11.21 13.03 16.61 19.73 9.12 10.84 17.51 22.26 25.72 33.79-2.5.08-5 .07-7.49.27-7.65-13.17-17.45-26.03-31.37-32.98-3.97-1.99-8.71-3.92-13.1-2.1-5.44 2.44-8.49 7.89-11.32 12.83-1.13-1.1-2.28-2.2-3.4-3.31-4.27 2.21-8.56 5.01-13.53 5.05-3.58-.19-6.95-1.65-10.49-2.07-1.14.9-1.81 2.26-2.71 3.37-1.73-1.62-3.58-3.11-5.4-4.63-3.6-3.03-7.32-5.97-10.44-9.53-5.7-7.22-6.85-16.88-5.21-25.71.42-1.55 1.08-3.03 1.54-4.57m16.34 4.19c-3.57.82-5.59 5.42-3.26 8.43 2.3 3.47 8.28 2.93 9.71-1.05 1.92-3.91-2.39-8.55-6.45-7.38z"/><path fill="#63b446" d="m49.06 93.13c5.56-.13 10.51-2.99 14.95-6.09-2.55 6.34-3.7 13.13-3.84 19.95-6.7.03-13.39-.03-20.08.09.54-5.55.23-11.44-3.36-16 4.01 1.14 8.11 2.33 12.33 2.05z"/><path fill="#293133" d="m31.31 48.47c4.06-1.17 8.37 3.47 6.45 7.38-1.43 3.98-7.41 4.52-9.71 1.05-2.33-3.01-.31-7.61 3.26-8.43z"/><path fill="#49932a" d="m75.93 72.85c4.39-1.82 9.13.11 13.1 2.1 13.92 6.95 23.72 19.81 31.37 32.98l-1.29.07H40.36l-.27-.92c6.69-.12 13.38-.06 20.08-.09.14-6.82 1.29-13.61 3.84-19.95-4.44 3.1-9.39 5.96-14.95 6.09-4.22.28-8.32-.91-12.33-2.05-.72-.82-1.47-1.6-2.25-2.36.9-1.11 1.57-2.47 2.71-3.37 3.54.42 6.91 1.88 10.49 2.07 4.97-.04 9.26-2.84 13.53-5.05 1.12 1.11 2.27 2.21 3.4 3.31 2.83-4.94 5.88-10.39 11.32-12.83z"/><path fill="#fe8b01" d="m15.31 95.04c-1.1-7.02.17-14.15 3.33-20.48 3.12 3.56 6.84 6.5 10.44 9.53-3.82 4.52-8.43 8.35-13.77 10.95z"/></svg>