<svg clip-rule="evenodd" fill-rule="evenodd" viewBox="0 0 510 498" xmlns="http://www.w3.org/2000/svg"><g fill-rule="nonzero" stroke-width=".09" transform="matrix(.897067 0 0 .899963 -3.925936 -6.4321)"><path d="m116.37 239.31c4.47-2.98 8.36-7.13 13.69-8.55 4.26-.77 26.96-.89 33.96-.12 9.67 1.08 18.94 4.5 27.56 8.93 7.85 4.14 14.29 11.67 15.83 20.54.53 6.92.85 14.48-2.58 20.76-4.11 4.91-8.3 10.26-14.34 12.9-4.24 1.89-8.06 4.67-12.48 6.14-8.59 1.97-32.37 5.72-37.92 5.93 1.19-2.81 2.89-5.66 2.42-8.84-.93-6.35-3.56-12.71-8.42-17.05-6.41-6.03-15.33-9.09-24.09-8.55-5.12-.25-10.04 1.27-15.04 2.04-.39-.32-1.18-.96-1.57-1.29 1-5.2 3.84-9.76 6.41-14.31 4.08-7.28 9.57-13.9 16.57-18.53z" fill="#fefefe" stroke="#fefefe"/><path d="m291.77 278.82c11.21-10.08 25.99-16.7 41.23-16.45 8.35.1 16.8-.58 25.05 1.11 14.2 2.64 28.7 4.35 42.3 9.46 2.82 1.13 5.67 2.21 8.64 2.88 5.59.88 9.69 5.06 14.21 8.08 5.01 4.23 10.06 10.08 9.37 17.12.22 8.25-5.92 14.73-11.7 19.82-3.97 3.75-9.09 5.84-14.24 7.42-19.3 6.88-40.12 7.84-60.42 6.91 2.93-3.53 7.11-7.96 4.77-12.89-2.76-6.44-5.63-13.54-11.76-17.51-4.57-2.98-9.16-6.26-14.57-7.51-6.11-1.4-12.39-2.11-18.66-1.82-7.35.21-14.16 3.36-21.38 4.37-.14-3.59-.57-7.26.2-10.81 1.21-4.01 3.96-7.35 6.96-10.18z" fill="#fefefe" stroke="#fefefe"/><g fill="#4e4e4e" stroke="#4e4e4e"><path d="m224.52 25.65c8.2 7.07 14.52 16.06 23 22.84 6.13 4.87 11.26 11.01 18.13 14.9 8.46 5.26 16.69 10.94 25.64 15.37 14.86 7.31 28.06 17.48 42.62 25.32 7 3.27 14.23 6.11 20.82 10.22 6.85 4.02 14.23 7.04 21.14 10.95 5.35 3.03 11.53 3.86 17.13 6.3.87 2.33.84 8.37 4.63 6.28 3.71-3.02 6-7.4 9.47-10.69 5.71-5.63 10.55-12.26 17.32-16.72 5.56-3.69 11.15-7.4 16.17-11.84 3.39-3.03 7.06-5.72 10.95-8.09 4.88-2.96 8.94-7.06 13.87-9.95 7.8-4.6 15.42-9.54 23.67-13.33 9.93-4.53 19.61-9.83 30.2-12.71 4.54-1.19 9.13-2.18 13.66-3.42 6.41-1.81 13.09-2.2 19.61-3.47 2.99-.43 6.11-1.24 9.11-.39 1.8 2.54 1.51 5.82 1.46 8.76-.79 11.75.7 23.58-1.03 35.28-1.66 10.25-2.33 20.66-5.06 30.71-2.96 18.39-10.43 35.53-17.32 52.69-7.05 15.52-18.37 28.92-32.03 39.03-5.83 3.94-10.63 9.17-15.15 14.51 2.7.85 5.34 1.95 8.21 2.03-.12 11.62-1.58 23.3-5.41 34.31-2.54 9.25-6.72 17.89-10 26.88-3.37 8.72-9.11 16.21-13.3 24.52-3.43 6.99-8.91 12.65-12.76 19.38-3.73 6.38-9.44 11.21-13.99 16.95-5.37 5.94-10.43 12.29-16.87 17.14-6.75 5.18-12.49 11.56-19.4 16.53-8.17 5.18-16.63 9.88-24.66 15.27-11.4 5.82-23.12 11-34.87 16.06-13.28 4.15-26.36 9.31-40.24 11.11-10.76 1.47-21.22 4.63-32.06 5.55-8.12 1.5-16.37 1.81-24.59 2.46-10.78 1.63-21.73 1.25-32.59 1.13-13.8-1.35-27.76-1.62-41.38-4.42-10.54-2.21-21.24-3.84-31.42-7.45-8.69-3.1-17.49-6.02-25.71-10.26-6.98-3.65-14.45-6.44-20.93-10.98-8.95-6.47-19.08-11.21-27.36-18.62-7.87-4.95-14.33-11.65-21.46-17.53-1.49-1.33-2.44-3.13-3.84-4.53 4.77-3.43 10.23-5.64 15.31-8.54 8.33-5.25 16.26-11.11 24.54-16.44 5.25-3.28 9.25-8.1 14.24-11.71 6.3-4.62 12.33-10.27 20.16-12.05 6.59-.98 13.27-.04 19.89-.34 8.31-.03 16.3-2.97 24.63-2.75-2.1 3.62-6.71 4.96-8.4 8.77.19.32.57.96.77 1.27 14.81-4.86 27.05-14.82 40.33-22.61 3.44-2.6 5.54-6.49 8.19-9.81 6.64-8.39 9.17-19.73 7.19-30.19-1.5-9.37-7.39-17.65-15.05-23.06-5.29-4.12-11.51-6.73-17.64-9.3-7.97-3.15-16.57-4.23-25.08-4.47-6.24-.5-12.52-1.42-18.78-.48-7.95.58-15.75 3.78-23.78 2.32-9.86-1.72-19.14-5.63-28.78-8.19-9.27-3.04-18.6-5.89-27.9-8.83-7.79-2.37-14.63-6.95-22.26-9.7-2.46-.84-4.83-2.07-6.69-3.9 11.45-2.53 23.18-3.88 34.43-7.34 11.9-3.64 24.33-4.93 36.36-8.04-.26-2.48 1.01-5.79-1.53-7.4-2.33-1.82-5.14-2.86-7.79-4.11-16.47-7.52-30.93-18.51-46.62-27.43-4.28-2.52-9.89-3.89-11.98-8.9 13.7-.46 27.45.62 41.14-.64 13.07-.79 26.12-2.01 39.2-2.59 6.03-.2 11.9-1.9 17.94-1.87 8.31-.03 16.56-1.18 24.85-1.61 6.67-.43 13.38-.58 19.96-1.82 8.66-1.67 17.61-1.5 26.1-4.05 5.59-1.74 11.55-1.31 17.19-2.77 9.08-2.39 18.5-4.36 26.53-9.48 1.49-.98 2.86-2.21 3.81-3.74-.6-4.94-3.95-8.92-5.7-13.46-2.53-6.34-5.65-12.53-6.86-19.31-1.62-8.37-5.32-16.15-7.19-24.45-1.41-6.34-3.09-12.64-4.11-19.06m287.6 64.29c-12.09 5-22.72 12.75-34.08 19.12-2.05 1.24-3.95 2.7-5.8 4.21-9.56 7.59-19.83 14.18-29.95 20.98-7.61 5.84-16.5 10.05-23.21 17.01 1.4 8.39 9.6 12.9 14.97 18.7 8.33 6.98 15.93 14.78 24.45 21.54 7.19 5.85 12.64 13.62 20.42 18.77 2.93-1.78 6.01-3.45 8.4-5.96 12.68-13.99 20.37-31.52 27.18-48.9 4.95-10.2 7.6-21.24 11.04-31.98 1.92-8.12 3.37-16.36 4.82-24.57.15-4.56 1.11-10.38-2.67-13.76-5.67-2.08-10.59 2.88-15.57 4.84m-207.96 170.29c-9.02 2.5-15.72 9.47-21.52 16.42-9.02 12.04-7.57 30.2 2.59 41.11 8.76 8.48 18.03 16.65 28.85 22.41-.57-1.73-1.15-3.44-1.73-5.15 7.27 1.58 14.14 4.82 21.63 5.4 10.02.9 19.92 3.69 30.05 2.66 11.52-.2 23.1-1.31 34.14-4.74 10.89-2.44 22.23-5.69 30.4-13.74 6.01-4.58 8.7-11.85 11.69-18.5 3.06-6.88-1.48-13.74-4.63-19.65-3.27-6.35-9.77-9.74-15.22-13.88-5.64-4.34-12.87-5.28-19.37-7.7-7.51-2.98-15.64-3.55-23.42-5.56-10.17-1.74-20.22-4.32-30.56-4.91-14.54-1.3-28.99 1.94-42.9 5.83m-211.87 100.31c-6.66.74-13.37.86-20.03 1.52-3.26 2.55-1.23 7.13.93 9.71 4.41 5.98 11.9 7.85 18.35 10.73 4.51 1.79 9.8 4.04 14.49 1.52 6.66-3.32 12.25-8.34 18.37-12.5 2.34-1.69 5.93-4.43 3.89-7.66-3.13-4.32-9.17-3.12-13.79-3.64-7.4-.86-14.8.14-22.21.32z"/><path d="m110.38 29.75c4.96 5.01 9.13 10.73 14.11 15.73 4.51 5.78 9.46 11.17 14.49 16.5 6.82 9.4 15.2 17.62 24.38 24.71 4.52 3.77 8.37 8.3 13.15 11.75 6.97 4.68 14 9.28 21.59 12.9-8.19.49-16.18 2.65-24.39 3.04-7.4.38-14.67 2.42-22.11 1.99-4.28-.27-8.34 1.54-12.61 1.51-8.7-.12-17.31 1.19-25.95 1.9-5.17.4-10.39 1.35-15.56.6-2.74-.69-1.97-4.23-2.17-6.34.62-13.18-1.13-26.53 1.36-39.58.39-3.73.11-7.61 1.66-11.12 2.7-6.57 3.2-13.78 5.86-20.36 1.8-4.52 4.03-8.87 6.19-13.23z"/><path d="m376.1 425.11c2.61-3.13 5.73-5.74 8.84-8.34.37 5.3.62 10.61 1.32 15.88 1.8 12.21 2.57 24.54 3.49 36.84-6.81 1.98-13.9 3.13-20.48 5.8-4.24 1.47-4.55 6.49-5.21 10.23-.81 7.36-2.63 14.63-2.59 22.08.02 6.14-1.59 12.38.15 18.42 1.01 3.81 1.29 7.78.71 11.69-1.03 7.39-.9 14.94.45 22.29h-1.04c-1.82-8.17-1.41-16.63-.61-24.89.086-.737.127-1.472.131-2.207.018-2.686-.446-5.355-.941-7.993-.363.359-.721.73-1.076 1.11-5.005 5.349-9.43 12.442-17.264 13.32-4.81.83-9.04-1.8-12.59-4.69 4.95 2.19 10.77 3.99 16.06 1.9 5.74-2.45 12.242-9.47 15.452-14.58-4.428 1.801-10.276 5.838-15.452 7.766-1.838.685-3.666 1.112-5.44 1.094-4.73.15-9.63-3.86-9.34-8.79 1.34-5.99 6.36-10.72 6.48-17.09.22-8.13-1.84-16.1-3.96-23.89-.6-2.79-1.48-5.78-.62-8.59 1.99-3.5 5.28-5.99 7.75-9.11 10.48-14.03 23.56-25.8 35.78-38.25z"/></g><g fill="#010101" stroke="#010101"><path d="m216.14 24.1c-1.42-5.52-.66-11.24.3-16.76 4.75 5.68 10.76 10.06 15.99 15.25 9.29 11.03 19.67 21.19 31.24 29.82 10.61 7.61 21.78 14.41 33.26 20.62 16.49 9.15 31.77 20.42 48.92 28.37 8.89 4.12 17.02 9.7 26.02 13.58 2.75 1.22 5.39 2.66 8.02 4.13 5.96 3.51 13.31 4.27 20.01 2.94 5.05-2.37 7.81-7.64 12.13-11.01 6.86-5.43 12.85-11.99 20.34-16.61 6.86-4.37 12.69-10.2 19.81-14.18 7.45-4.14 14.34-9.16 21.65-13.52 5.39-3.47 11.32-5.93 16.86-9.11 3.54-2.05 7.33-3.59 11.2-4.9 6.88-2.33 13.53-5.35 20.63-6.97 3.65-.84 7.33-1.54 10.95-2.53 9.92-2.92 38.122-4.96 38.122-4.96s.429 18.162-.628 40.5c-.655 13.824-3.499 32.58-6.964 47.41-2.68 11.47-5.25 23.06-10.01 33.89-3.56 7.83-5.76 16.29-10.45 23.58-3.7 5.67-5.92 12.3-10.72 17.2-4.95 5.04-9.39 10.62-14.94 15.02-3.89 3.16-7.1 7.05-9.95 11.15-.47 11.14-.81 22.46-3.77 33.29-2.64 8.42-4.5 17.16-8.42 25.13-4.12 8.51-7.2 17.5-11.59 25.89-8.4 13.59-17.09 27.11-27.7 39.12-6.12 7.52-11.93 15.5-19.69 21.47-3.91 2.98-7.04 6.85-11.03 9.74-2.51 1.82-5.01 3.67-7.25 5.83-7.22 7.07-16.79 10.82-25.09 16.39 1.25 14.2 6.05 56.23 7.4 63.5 5.09.12 10.19.16 15.29.22 3.58 6.11 7.07 12.34 9.08 19.18 1.28 4.57 3.43 8.81 5.81 12.91 2.26 3.88.88 8.67 2.64 12.71 2.68 3.31 6.65 5.34 9.15 8.86 7.65 10.52 17.13 19.52 26.46 28.53 3.1 3.01 5.39 6.69 7.84 10.22h-41.38c3.32-1.06 5.62-4.17 9.11-4.81 4.54-.66 9.14-.58 13.71-.91-1.88-2.4-3.44-5.05-5.58-7.22-5.94-5.76-10.45-12.82-16.68-18.3-5.07-4.44-9.53-9.49-13.79-14.69-2.73-3.36-6.64-.8-9.57.82-6.26 3.66-13.34 5.43-19.99 8.21-3.15 1.17-7.22 2.82-10.08.13-3.37-3.46-4.47-8.36-6.42-12.63-1.42-3.7-3.82-6.88-6.33-9.9-.51 12.76.37 25.52.42 38.28-.22 7-.36 14.01-.06 21.02h-7.64c-1.35-7.35-1.48-14.9-.45-22.29.58-3.91.3-7.88-.71-11.69-1.74-6.04-.13-12.28-.15-18.42-.04-7.45 1.78-14.72 2.59-22.08.66-3.74.97-8.76 5.21-10.23 6.58-2.67 13.67-3.82 20.48-5.8-.92-12.3-1.69-24.63-3.49-36.84-.7-5.27-.95-10.58-1.32-15.88-3.11 2.6-6.23 5.21-8.84 8.34-12.22 12.45-25.3 24.22-35.78 38.25-2.47 3.12-5.76 5.61-7.75 9.11-.86 2.81.02 5.8.62 8.59 2.12 7.79 4.18 15.76 3.96 23.89-.12 6.37-5.14 11.1-6.48 17.09-.29 4.93 4.61 8.94 9.34 8.79 6.439-.154 14.3-6.82 20.892-8.86-3.21 5.11-9.712 12.13-15.452 14.58-5.29 2.09-11.11.29-16.06-1.9-2.38-1.64-4.78-3.25-7.21-4.82-.55 10.08-1.91 20.1-2.62 30.17h-6.73c-.95-11.89.49-23.9-1.65-35.7-5.96 4.26-10.89 9.72-16.5 14.41-7.73 6.48-14.68 13.79-21.41 21.29h-12.16c3.76-3.89 7.52-7.78 11.07-11.87 3.35-3.65 3.12-8.91 3.89-13.49.85-5.15-.87-10.48.89-15.52 2.18-6.53 3.62-13.31 3.74-20.22.3 1.71-.33-6.99 3.13-11.93 8.96-4.27 19.09-4.22 28.56-6.69 2.94-.69 5.97-.77 8.98-.89.64-8.3-.83-16.59-3.11-24.55-1.79-6.06-2.44-12.37-3.28-18.61-6.91.28-13.65 1.86-20.37 3.31-7.08 1.19-14.28 1.49-21.37 2.57-18.7 1.61-37.44 4.67-56.24 2.92-6.53-.78-13.15-.26-19.64-1.37-6.35-1.05-12.83-1.05-19.14-2.4-18.333-1.147-110.302-45.186-118.8-56.65-7.41-5.95-15.54-11.91-19.66-20.75-1.2-3.73 2.86-5.98 5.46-7.66 10.33-5.81 20.6-11.78 29.95-19.1 8.46-5.37 16.6-11.22 24.24-17.71 3.37-1.96 5.63-5.31 9.03-7.18-8.6-2.29-17.03-7.3-20.95-15.6-5.48-11.36-3.56-24.96 2.11-35.86 3.69-7.63 18.65-26.85 20.72-29.89-18.96-4.97-37.69-10.82-56.21-17.26-11.44-4.87-23.25-9.15-33.8-15.85-5.22-3.37-15.74-9.95-15.74-9.95s14.36-.55 21.48-1.85c15.01-1.07 29.37-5.79 43.98-9 4.67-.87 9.2-2.27 13.69-3.78-2.264-1.562-43.462-26.48-54.93-35.34-5.958-4.603-13.88-17.82-13.88-17.82s15.35 2.62 23.09 2.63c12.66-.16 25.37.5 38-.71 4.16-.35 8.34-.37 12.52-.39.07-9.18-.32-18.36-.17-27.54.05-6.58-.4-13.23.83-19.74 1.99-9.89 3.05-20 6.41-29.56 2.42-8.32 12.85-22.11 12.85-22.11s43.917 43.947 48 47.95c4.34 4.3 8.62 8.7 13.42 12.51 5.74 4.61 11.11 9.7 17.17 13.91 7.05 5.03 15.31 7.92 23.42 10.72 3.35 1.27 6.88.12 10.17-.72 6.02-1.78 12.56-2.7 17.69-6.6.69-2.23-.4-4.49-1.08-6.57-3.46-8.99-8.55-17.4-10.27-26.99-1.65-8.52-5.11-16.56-6.75-25.08-1.09-5.93-2.7-11.75-4.07-17.62m8.38 1.55c1.02 6.42 2.7 12.72 4.11 19.06 1.87 8.3 5.57 16.08 7.19 24.45 1.21 6.78 4.33 12.97 6.86 19.31 1.75 4.54 5.1 8.52 5.7 13.46-.95 1.53-2.32 2.76-3.81 3.74-8.03 5.12-17.45 7.09-26.53 9.48-5.64 1.46-11.6 1.03-17.19 2.77-8.49 2.55-17.44 2.38-26.1 4.05-6.58 1.24-13.29 1.39-19.96 1.82-8.29.43-16.54 1.58-24.85 1.61-6.04-.03-11.91 1.67-17.94 1.87-13.08.58-26.13 1.8-39.2 2.59-13.69 1.26-27.44.18-41.14.64 2.09 5.01 7.7 6.38 11.98 8.9 15.69 8.92 30.15 19.91 46.62 27.43 2.65 1.25 5.46 2.29 7.79 4.11 2.54 1.61 1.27 4.92 1.53 7.4-12.03 3.11-24.46 4.4-36.36 8.04-11.25 3.46-22.98 4.81-34.43 7.34 1.86 1.83 4.23 3.06 6.69 3.9 7.63 2.75 14.47 7.33 22.26 9.7 9.3 2.94 18.63 5.79 27.9 8.83 9.64 2.56 18.92 6.47 28.78 8.19 8.03 1.46 15.83-1.74 23.78-2.32 6.26-.94 12.54-.02 18.78.48 8.51.24 17.11 1.32 25.08 4.47 6.13 2.57 12.35 5.18 17.64 9.3 7.66 5.41 13.55 13.69 15.05 23.06 1.98 10.46-.55 21.8-7.19 30.19-2.65 3.32-4.75 7.21-8.19 9.81-13.28 7.79-25.52 17.75-40.33 22.61-.2-.31-.58-.95-.77-1.27 1.69-3.81 6.3-5.15 8.4-8.77-8.33-.22-16.32 2.72-24.63 2.75-6.62.3-13.3-.64-19.89.34-7.83 1.78-13.86 7.43-20.16 12.05-4.99 3.61-8.99 8.43-14.24 11.71-8.28 5.33-16.21 11.19-24.54 16.44-5.08 2.9-10.54 5.11-15.31 8.54 1.4 1.4 2.35 3.2 3.84 4.53 7.13 5.88 13.59 12.58 21.46 17.53 8.28 7.41 18.41 12.15 27.36 18.62 6.48 4.54 13.95 7.33 20.93 10.98 8.22 4.24 17.02 7.16 25.71 10.26 10.18 3.61 20.88 5.24 31.42 7.45 13.62 2.8 27.58 3.07 41.38 4.42 10.86.12 21.81.5 32.59-1.13 8.22-.65 16.47-.96 24.59-2.46 10.84-.92 21.3-4.08 32.06-5.55 13.88-1.8 26.96-6.96 40.24-11.11 11.75-5.06 23.47-10.24 34.87-16.06 8.03-5.39 16.49-10.09 24.66-15.27 6.91-4.97 12.65-11.35 19.4-16.53 6.44-4.85 11.5-11.2 16.87-17.14 4.55-5.74 10.26-10.57 13.99-16.95 3.85-6.73 9.33-12.39 12.76-19.38 4.19-8.31 9.93-15.8 13.3-24.52 3.28-8.99 7.46-17.63 10-26.88 3.83-11.01 5.29-22.69 5.41-34.31-2.87-.08-5.51-1.18-8.21-2.03 4.52-5.34 9.32-10.57 15.15-14.51 13.66-10.11 24.98-23.51 32.03-39.03 6.89-17.16 14.36-34.3 17.32-52.69 2.73-10.05 3.4-20.46 5.06-30.71 1.73-11.7.24-23.53 1.03-35.28.05-2.94.34-6.22-1.46-8.76-3-.85-6.12-.04-9.11.39-6.52 1.27-13.2 1.66-19.61 3.47-4.53 1.24-9.12 2.23-13.66 3.42-10.59 2.88-20.27 8.18-30.2 12.71-8.25 3.79-15.87 8.73-23.67 13.33-4.93 2.89-8.99 6.99-13.87 9.95-3.89 2.37-7.56 5.06-10.95 8.09-5.02 4.44-10.61 8.15-16.17 11.84-6.77 4.46-11.61 11.09-17.32 16.72-3.47 3.29-5.76 7.67-9.47 10.69-3.79 2.09-3.76-3.95-4.63-6.28-5.6-2.44-11.78-3.27-17.13-6.3-6.91-3.91-14.29-6.93-21.14-10.95-6.59-4.11-13.82-6.95-20.82-10.22-14.56-7.84-27.76-18.01-42.62-25.32-8.95-4.43-17.18-10.11-25.64-15.37-6.87-3.89-12-10.03-18.13-14.9-8.48-6.78-14.8-15.77-23-22.84m-114.14 4.1c-2.16 4.36-4.39 8.71-6.19 13.23-2.66 6.58-3.16 13.79-5.86 20.36-1.55 3.51-1.27 7.39-1.66 11.12-2.49 13.05-.74 26.4-1.36 39.58.2 2.11-.57 5.65 2.17 6.34 5.17.75 10.39-.2 15.56-.6 8.64-.71 17.25-2.02 25.95-1.9 4.27.03 8.33-1.78 12.61-1.51 7.44.43 14.71-1.61 22.11-1.99 8.21-.39 16.2-2.55 24.39-3.04-7.59-3.62-14.62-8.22-21.59-12.9-4.78-3.45-8.63-7.98-13.15-11.75-9.18-7.09-17.56-15.31-24.38-24.71-5.03-5.33-9.98-10.72-14.49-16.5-4.98-5-9.15-10.72-14.11-15.73m5.99 209.56c-7 4.63-12.49 11.25-16.57 18.53-2.57 4.55-5.41 9.11-6.41 14.31.39.33 1.18.97 1.57 1.29 5-.77 9.92-2.29 15.04-2.04 8.76-.54 17.68 2.52 24.09 8.55 4.86 4.34 7.49 10.7 8.42 17.05.47 3.18-1.23 6.03-2.42 8.84 5.55-.21 29.33-3.96 37.92-5.93 4.42-1.47 8.24-4.25 12.48-6.14 6.04-2.64 10.23-7.99 14.34-12.9 3.43-6.28 3.11-13.84 2.58-20.76-1.54-8.87-7.98-16.4-15.83-20.54-8.62-4.43-17.89-7.85-27.56-8.93-7-.77-14.02.03-21.03-.25-4.31-.04-8.67-.4-12.93.37-5.33 1.42-9.22 5.57-13.69 8.55m282.66 240.45c-6.09-.17-11.99 1.52-18 2.16-2.26.39-4.86.33-6.57 2.1 1.13 4.97 4.01 9.32 5.33 14.24 1.62 5.77 4.28 11.15 7.23 16.34 3.56-.43 7.11-.97 10.61-1.75-.42-.5 13.58-5.01 20.71-7.6 2.04-1.06 5.59-2.3 4.82-5.21-1.57-5.2-4.87-9.68-6.45-14.88-1.14-2.36-1.53-6.2-4.74-6.5-4.34-.01-8.58 1.22-12.94 1.1m-85.4 12.65c-4.4-1.05-8.93-1.26-13.43-.98.11.41 12.03 8.92 15.43 14.86 1.4 1.97 2.36 4.56 4.58 5.76 2.12.16 4.22-.29 6.33-.45 1.29-7.25-.49-14.48-2.17-21.5-3.4 1.36-6.96 3.42-10.74 2.31m-22.33 6.4c-.38 2.79-2.46 16.09-4.4 23.16-.87 2.87-.89 5.88-.69 8.85l2.36-.32c4.32-7.23 11.72-11.46 18.12-16.57-.66-2.61-.85-5.65-3.32-7.27-3.77-2.94-6.96-7.38-12.07-7.85z"/><path d="m512.12 89.94c4.98-1.96 9.9-6.92 15.57-4.84 3.78 3.38 2.82 9.2 2.67 13.76-1.45 8.21-2.9 16.45-4.82 24.57-3.44 10.74-6.09 21.78-11.04 31.98-6.81 17.38-14.5 34.91-27.18 48.9-2.39 2.51-5.47 4.18-8.4 5.96-7.78-5.15-13.23-12.92-20.42-18.77-8.52-6.76-16.12-14.56-24.45-21.54-5.37-5.8-13.57-10.31-14.97-18.7 6.71-6.96 15.6-11.17 23.21-17.01 10.12-6.8 20.39-13.39 29.95-20.98 1.85-1.51 3.75-2.97 5.8-4.21 11.36-6.37 21.99-14.12 34.08-19.12m-7.69 11.62c-4.52 2.28-8.27 5.76-12.7 8.18-9.48 4.8-17.41 12-26.46 17.49-8.18 6.3-17.31 11.21-25.45 17.57-3.41 2.68-7.48 4.75-10 8.39-.75 1.99 1.26 3.32 2.4 4.62 5.66 4.99 11.32 10 17.16 14.8 4.56 3.76 8.53 8.2 13.27 11.77 5.76 4.32 9.22 11.18 15.59 14.75 2.15 1.25 4.29-.77 5.67-2.27 3.09-3.67 5.43-7.9 8.02-11.94 5.03-7.95 8.19-16.86 12.66-25.1 4.54-8.3 6.62-17.6 10.27-26.28 2.34-6.01 2.91-12.52 5-18.61 2.29-6.87 2.42-14.2 2.41-21.37-6.45 1.48-11.96 5.17-17.84 8z"/><path d="m304.16 260.23c13.91-3.89 28.36-7.13 42.9-5.83 10.34.59 20.39 3.17 30.56 4.91 7.78 2.01 15.91 2.58 23.42 5.56 6.5 2.42 13.73 3.36 19.37 7.7 5.45 4.14 11.95 7.53 15.22 13.88 3.15 5.91 7.69 12.77 4.63 19.65-2.99 6.65-5.68 13.92-11.69 18.5-8.17 8.05-19.51 11.3-30.4 13.74-11.04 3.43-22.62 4.54-34.14 4.74-10.13 1.03-20.03-1.76-30.05-2.66-7.49-.58-14.36-3.82-21.63-5.4.58 1.71 1.16 3.42 1.73 5.15-10.82-5.76-20.09-13.93-28.85-22.41-10.16-10.91-11.61-29.07-2.59-41.11 5.8-6.95 12.5-13.92 21.52-16.42m-12.39 18.59c-3 2.83-5.75 6.17-6.96 10.18-.77 3.55-.34 7.22-.2 10.81 7.22-1.01 14.03-4.16 21.38-4.37 6.27-.29 12.55.42 18.66 1.82 5.41 1.25 10 4.53 14.57 7.51 6.13 3.97 9 11.07 11.76 17.51 2.34 4.93-1.84 9.36-4.77 12.89 20.3.93 41.12-.03 60.42-6.91 5.15-1.58 10.27-3.67 14.24-7.42 5.78-5.09 11.92-11.57 11.7-19.82.69-7.04-4.36-12.89-9.37-17.12-4.52-3.02-8.62-7.2-14.21-8.08-2.97-.67-5.82-1.75-8.64-2.88-13.6-5.11-28.1-6.82-42.3-9.46-8.25-1.69-16.7-1.01-25.05-1.11-15.24-.25-30.02 6.37-41.23 16.45z"/><path d="m92.29 360.54c7.41-.18 14.81-1.18 22.21-.32 4.62.52 10.66-.68 13.79 3.64 2.04 3.23-1.55 5.97-3.89 7.66-6.12 4.16-11.71 9.18-18.37 12.5-4.69 2.52-9.98.27-14.49-1.52-6.45-2.88-13.94-4.75-18.35-10.73-2.16-2.58-4.19-7.16-.93-9.71 6.66-.66 13.37-.78 20.03-1.52m-11.95 6.96c-.01 1.06-.01 2.12-.01 3.19 5.76 2.56 11.44 5.53 17.68 6.76 2.47.25 5.28.61 7.4-.98 3.47-2.3 6.8-4.83 10.53-6.73.31-.8.63-1.59.95-2.37-12.19-.18-24.37.42-36.55.13z"/></g><path d="m504.43 101.56c5.88-2.83 11.39-6.52 17.84-8 .01 7.17-.12 14.5-2.41 21.37-2.09 6.09-2.66 12.6-5 18.61-3.65 8.68-5.73 17.98-10.27 26.28-4.47 8.24-7.63 17.15-12.66 25.1-2.59 4.04-4.93 8.27-8.02 11.94-1.38 1.5-3.52 3.52-5.67 2.27-6.37-3.57-9.83-10.43-15.59-14.75-4.74-3.57-8.71-8.01-13.27-11.77-5.84-4.8-11.5-9.81-17.16-14.8-1.14-1.3-3.15-2.63-2.4-4.62 2.52-3.64 6.59-5.71 10-8.39 8.14-6.36 17.27-11.27 25.45-17.57 9.05-5.49 16.98-12.69 26.46-17.49 4.43-2.42 8.18-5.9 12.7-8.18z" fill="#909090" stroke="#909090"/><path d="m329.39 534.65c6.217 4.602 24.984-7.682 30.18-11.453.858-.622 1.346-1.013 1.346-1.057 4.093-.007 4.341 29.662 1.864 37.86h-43.22c.71-10.07.982-25.945 2.62-30.17 1.045-2.695 4.83 3.18 7.21 4.82z" fill="#909090" stroke="#909090"/><path d="m80.34 367.5c12.18.29 24.36-.31 36.55-.13-.32.78-.64 1.57-.95 2.37-3.73 1.9-7.06 4.43-10.53 6.73-2.12 1.59-4.93 1.23-7.4.98-6.24-1.23-11.92-4.2-17.68-6.76 0-1.07 0-2.13.01-3.19z" fill="#fad8d7" stroke="#fad8d7"/><g fill="#698c6f" stroke="#698c6f"><path d="m399.03 479.76c4.36.12 8.6-1.11 12.94-1.1 3.21.3 3.6 4.14 4.74 6.5 1.58 5.2 4.88 9.68 6.45 14.88.77 2.91-2.78 4.15-4.82 5.21-7.13 2.59-21.13 7.1-20.71 7.6-3.5.78-7.05 1.32-10.61 1.75-2.95-5.19-5.61-10.57-7.23-16.34-1.32-4.92-4.2-9.27-5.33-14.24 1.71-1.77 4.31-1.71 6.57-2.1 6.01-.64 11.91-2.33 18-2.16z"/><path d="m313.63 492.41c3.78 1.11 7.34-.95 10.74-2.31 1.68 7.02 3.46 14.25 2.17 21.5-2.11.16-4.21.61-6.33.45-2.22-1.2-3.18-3.79-4.58-5.76-3.4-5.94-15.32-14.45-15.43-14.86 4.5-.28 9.03-.07 13.43.98z"/><path d="m289.33 500.23c-.394-4.255 10.065 1.271 14.04 6.43 2.47 1.62 2.66 4.66 3.32 7.27-6.4 5.11-13.8 9.34-18.12 16.57-.59.08-1.77.24-2.36.32-.2-2.97-.18-5.98.69-8.85 1.94-7.07 2.52-14.44 2.43-21.74z"/><path d="m370.06 500.7c4.259 3.137 15.7 25.125 19.69 23.485 6.446-2.195 22.7-11.716 30.052-11.716 1.539 0 2.074 1.673 2.648 1.601 4.26 5.2 8.72 10.25 13.79 14.69 6.23 5.48 10.74 12.54 16.68 18.3 2.14 2.17 3.7 4.82 5.58 7.22-4.57.33-9.17.25-13.71.91-3.49.64-5.79 3.75-9.11 4.81h-65.26c-.4-6.37-.1-12.653 0-19.033.13-11.07-1.08-29.217-.36-40.267z"/><path d="m294.68 538.71c5.61-4.69 10.54-10.15 16.5-14.41 2.14 11.8.7 23.81 1.65 35.7h-39.56c6.73-7.5 13.68-14.81 21.41-21.29z"/></g></g></svg>