<?xml version="1.0" encoding="UTF-8" standalone="no"?>
<!DOCTYPE svg PUBLIC "-//W3C//DTD SVG 1.1//EN" "http://www.w3.org/Graphics/SVG/1.1/DTD/svg11.dtd">
<svg width="100%" height="100%" viewBox="0 0 238 231" version="1.1" xmlns="http://www.w3.org/2000/svg" xmlns:xlink="http://www.w3.org/1999/xlink" xml:space="preserve" xmlns:serif="http://www.serif.com/" style="fill-rule:evenodd;clip-rule:evenodd;">
    <g transform="matrix(1,0,0,1,0.193271,-5.25879)">
        <path d="M64.44,13.61C67.79,8.89 73.21,5.66 79.06,5.47C88.83,5.14 97.95,9.43 106.75,12.86C106.34,14.58 103.37,14.99 103.82,16.78C105.32,17.58 107.58,17.19 108.58,18.78C107.96,19.57 106.73,21.17 106.11,21.96C104.4,20.23 103.58,17.78 101.62,16.24C94.72,18.73 87.31,17.51 80.28,16.91C76.75,20.15 72.1,24.59 73.95,29.85C75.06,30.3 76.19,30.71 77.33,31.07C75.76,35.96 73.94,40.77 72.15,45.58C68.64,40.35 59.67,40.98 57.35,46.99C54.33,39.09 53.62,30.05 56.88,22.1C58.4,18.61 60.54,14.81 64.44,13.61Z" style="fill:rgb(246,245,246);fill-rule:nonzero;stroke:rgb(246,245,246);stroke-width:0.09px;"/>
        <path d="M110.78,79.32C116.23,80.17 121.38,78.22 126.4,76.52C125.36,79.21 122.58,80.71 120.28,82.24C117.25,84.18 111.77,82.88 110.78,79.32Z" style="fill:rgb(246,245,246);fill-rule:nonzero;stroke:rgb(246,245,246);stroke-width:0.09px;"/>
        <path d="M111.06,108.77C108.86,104.45 114.67,100.06 118.41,102.7C120.31,106.79 114.68,110.28 111.06,108.77Z" style="fill:rgb(246,245,246);fill-rule:nonzero;stroke:rgb(246,245,246);stroke-width:0.09px;"/>
        <path d="M89.24,108.12C89.62,108.13 90.38,108.16 90.76,108.17C93.21,109.09 90.8,112.01 88.92,110.79C89,110.13 89.16,108.79 89.24,108.12Z" style="fill:rgb(246,245,246);fill-rule:nonzero;stroke:rgb(246,245,246);stroke-width:0.09px;"/>
        <path d="M91.07,161.52C92.35,160.78 93.76,162.76 92.66,163.75C91.32,165.01 89.52,162.4 91.07,161.52Z" style="fill:rgb(246,245,246);fill-rule:nonzero;stroke:rgb(246,245,246);stroke-width:0.09px;"/>
        <path d="M92.32,192.06C94.03,191.48 94.58,192.05 93.99,193.77C92.36,194.22 91.8,193.65 92.32,192.06Z" style="fill:rgb(246,245,246);fill-rule:nonzero;stroke:rgb(246,245,246);stroke-width:0.09px;"/>
        <path d="M93.12,229.21C94.44,227.94 96.7,230.16 95.27,231.41C93.87,233.02 91.7,230.61 93.12,229.21Z" style="fill:rgb(246,245,246);fill-rule:nonzero;stroke:rgb(246,245,246);stroke-width:0.09px;"/>
        <path d="M80.28,16.91C87.31,17.51 94.72,18.73 101.62,16.24C103.58,17.78 104.4,20.23 106.11,21.96C107.42,25.56 108.65,29.25 108.82,33.11C106.93,31.87 106.89,34.42 108.82,33.11C108.94,34.04 109.2,35.89 109.32,36.81C108.028,39.287 106.141,76.057 104.38,81.09C101.37,83.59 98.63,86.4 95.82,89.12C92.77,92.37 92.06,97.11 89.84,100.91C87.63,99.18 87.58,96.12 85.97,93.96C84.23,91.64 81.58,90.29 79.4,88.45C79.12,88.26 78.57,87.9 78.3,87.72C73.7,84.29 69.13,80.7 65.31,76.4C65.08,72.04 64.45,67.58 65.16,63.27C67.33,62.72 70.62,63.47 71.79,61.08C68.73,61.72 65.63,61.76 62.66,60.68C62.43,60.63 61.97,60.53 61.74,60.48C58.6,56.75 57,51.85 57.35,46.99C59.67,40.98 68.64,40.35 72.15,45.58C73.94,40.77 75.76,35.96 77.33,31.07C76.19,30.71 75.06,30.3 73.95,29.85C72.1,24.59 76.75,20.15 80.28,16.91" style="fill:rgb(255,136,96);fill-rule:nonzero;stroke:rgb(255,136,96);stroke-width:0.09px;"/>
        <path d="M122.56,94.22C132.87,97.76 142.89,102.4 151.97,108.47C149.78,110.17 147.44,111.66 145.33,113.45C143.27,114.33 140.74,115.08 139.62,117.19C135.18,110.78 128.76,106.07 121.55,103.2C119.98,100.7 117.2,100.49 114.63,99.74C116.52,97.96 118.81,96.7 120.71,94.93C121.17,94.76 122.1,94.4 122.56,94.22Z" style="fill:rgb(255,136,96);fill-rule:nonzero;stroke:rgb(255,136,96);stroke-width:0.09px;"/>
        <path d="M165.09,118.98C166.35,112.66 171.23,107.5 177.16,105.24C179.72,105 182.31,105.06 184.85,105.43C185.65,105.74 186.39,106.18 187.05,106.75C179.82,103.65 171.05,107.95 168.04,114.95C164.16,123.03 165.82,132.62 169.49,140.47C174.77,152.44 184.11,161.88 191.77,172.3C192.13,173.38 192.48,174.46 192.83,175.55C192.58,175.35 192.08,174.96 191.83,174.77C184.34,164.1 174.86,154.74 169.09,142.93C165.36,135.62 163.11,127.14 165.09,118.98Z" style="fill:rgb(255,136,96);fill-rule:nonzero;stroke:rgb(255,136,96);stroke-width:0.09px;"/>
        <path d="M103.87,108.26C105.35,107.89 106.85,107.68 108.37,107.66C109.21,108.98 109.81,110.78 111.51,111.22C113.77,111.6 115.87,110.5 118.04,110.06C124.15,111.73 129.77,115.65 133.27,120.95C128.2,122.98 127.89,129.15 125.27,133.28C121.4,139.65 120.82,147.21 119.22,154.33C119,155.59 118.33,156.85 117.07,157.34C116.17,156.27 115.03,155.32 114.58,153.97C113.92,145.93 114.18,137.87 114.52,129.83C112.67,132.84 113.53,136.59 112.99,139.94C112.22,146.57 114.5,153.05 114.01,159.65C110.89,159.18 109.08,156.43 107.66,153.9C107.85,151.59 106.61,149.59 106.17,147.41C104.83,141.57 105.74,135.56 105.45,129.65C104.37,130.37 104.66,131.84 104.44,132.95C103.92,138.46 104.45,143.96 104.75,149.45C104.03,154.23 103.37,159.2 101.39,163.65C100.47,163.88 99.57,163.83 98.69,163.5C96.58,159.96 96.27,155.9 96.04,151.89C95.22,144.36 96.16,136.67 98.45,129.47C97.79,130.37 97.02,131.25 96.73,132.36C94.89,138.69 93.99,145.34 94.4,151.93C92.91,154.72 92.58,158.08 90.24,160.37L88.76,160.09C86.61,156.08 87.1,151.38 87.08,147C87.52,143.04 86.9,138.91 88.06,135.08C88.48,133.82 88.78,132.52 89.14,131.25C89.42,121.27 98.64,115.57 103.87,108.26M94.01,123.75C97.22,121.78 100.15,126 103.32,124.16C106.87,121.9 109.98,126.35 113.6,125.36C115.55,124.92 117.45,125.65 119.33,126.05C118.05,123.26 114.42,123.92 111.98,124.33C109.24,123.71 106.5,121.45 103.63,122.84C100.58,125.06 96.54,120.18 94.01,123.75Z" style="fill:rgb(255,136,96);fill-rule:nonzero;stroke:rgb(255,136,96);stroke-width:0.09px;"/>
        <path d="M109.32,36.81C115.19,30.21 124.9,28.2 133.19,30.76C143.61,33.46 151.59,42.71 154.11,52.98C155.53,58.19 153.46,63.33 152.37,68.38C150.03,69.92 147.48,71.06 144.92,72.17C146.65,68.89 146.35,64.94 144.69,61.7C142.2,62.47 142.42,66.52 140.06,67.97C138,64.09 136.32,59.96 133.54,56.51C127.77,54.84 122.17,51.79 118.58,46.85C116.29,50.77 114.57,55.85 110.07,57.74C109.96,56.01 110.12,54.3 110.53,52.6C108.05,55.03 105.63,57.59 102.52,59.26C102.32,58.72 101.92,57.66 101.72,57.12C101.91,55.84 102.13,54.57 102.38,53.3C103.24,50.81 103.82,48.22 103.92,45.58C105.4,42.48 107.1,39.46 109.32,36.81Z" style="fill:rgb(56,76,112);fill-rule:nonzero;stroke:rgb(56,76,112);stroke-width:0.09px;"/>
        <path d="M35.67,73.72C42.17,68.95 48.92,64.02 56.81,61.88C60.98,66.07 61.85,72.26 63.79,77.63C66.93,85.05 67.03,93.29 68.94,101.06C69.14,102.33 69.28,103.6 69.63,104.84C72.54,118.72 74.13,132.84 76.65,146.79C81.75,176.42 86.4,206.14 89.8,236L73.02,236C67.57,220.82 62.21,205.6 56.46,190.53C48.23,164.92 38.58,139.71 32.35,113.5C31.25,109.8 30.33,105.92 30.83,102.04C34.54,100.25 38.78,101.08 42.75,100.8C39.66,96.14 35.5,92.31 32.17,87.83C30.89,85.41 27.29,83.44 28.3,80.37C30.29,77.71 33.2,75.91 35.67,73.72Z" style="fill:rgb(56,76,112);fill-rule:nonzero;stroke:rgb(56,76,112);stroke-width:0.09px;"/>
        <path d="M107.41,84.5C110.14,89.47 114.2,95.56 120.71,94.93C118.81,96.7 116.52,97.96 114.63,99.74C114.05,100.19 113.44,100.58 112.78,100.9C109.47,99.66 107.79,103.59 105.97,105.59C107.03,104.02 106.75,102.02 106.8,100.23L106.8,97.92C107.37,93.47 106.97,88.95 107.41,84.5Z" style="fill:rgb(56,76,112);fill-rule:nonzero;stroke:rgb(56,76,112);stroke-width:0.09px;"/>
        <path d="M104.91,149.49C106.9,149.66 106.54,152.61 107.66,153.9C109.08,156.43 110.89,159.18 114.01,159.65C114.22,170.79 117.61,181.56 119.96,192.37C119.72,192.78 119.23,193.61 118.98,194.02C117.19,208.03 114.06,221.91 113.08,236L105.09,236C105.16,207.16 104.67,178.32 104.91,149.49Z" style="fill:rgb(56,76,112);fill-rule:nonzero;stroke:rgb(56,76,112);stroke-width:0.09px;"/>
        <path d="M139.62,117.19C140.74,115.08 143.27,114.33 145.33,113.45C144.22,116.4 142.06,118.72 140.21,121.2C138.55,123.4 137.3,125.94 135.27,127.86C134.51,125.58 134.11,123.2 133.27,120.95L134.13,121.2C135.87,119.78 138.35,119.1 139.62,117.19Z" style="fill:rgb(248,168,209);fill-rule:nonzero;stroke:rgb(248,168,209);stroke-width:0.09px;"/>
        <path d="M110.07,57.74C114.57,55.85 116.29,50.77 118.58,46.85C122.17,51.79 127.77,54.84 133.54,56.51C136.32,59.96 138,64.09 140.06,67.97C142.42,66.52 142.2,62.47 144.69,61.7C146.35,64.94 146.65,68.89 144.92,72.17C144.16,73.07 143.37,73.94 142.33,74.51C134.08,79.93 126.18,85.91 118.78,92.46C120,93.13 121.28,93.67 122.56,94.22C122.1,94.4 121.17,94.76 120.71,94.93C114.2,95.56 110.14,89.47 107.41,84.5C106.13,81.14 105.08,77.7 104.06,74.26L103.78,73.32C102.86,68.68 102.85,63.95 102.52,59.26C105.63,57.59 108.05,55.03 110.53,52.6C110.12,54.3 109.96,56.01 110.07,57.74M111.142,79.253C112.132,82.813 117.25,84.18 120.28,82.24C122.58,80.71 125.36,79.21 126.4,76.52C121.38,78.22 116.592,80.103 111.142,79.253Z" style="fill:rgb(248,168,209);fill-rule:nonzero;stroke:rgb(248,168,209);stroke-width:0.09px;"/>
        <path d="M102.27,33.79C103.3,31.24 106.93,31.87 108.82,33.11C106.89,34.42 104.45,33.88 102.27,33.79Z" style="fill:rgb(17,33,43);fill-rule:nonzero;stroke:rgb(17,33,43);stroke-width:0.09px;"/>
        <path d="M82.32,35.69C81.75,33.27 85.19,32.94 86.87,32.6C88.54,32.36 92.66,32.07 91.76,34.83C88.51,33.89 85.33,35.57 82.32,35.69Z" style="fill:rgb(17,33,43);fill-rule:nonzero;stroke:rgb(17,33,43);stroke-width:0.09px;"/>
        <path d="M102.19,52.06C105.18,46.46 99.79,40.29 101.43,34.43C101.66,35.83 101.89,37.22 102.1,38.62C102.641,38.516 103.871,38.03 104.817,38.062C105.514,38.085 106.057,38.62 106.057,38.62C106.057,38.62 105.46,38.744 105.241,39.122C104.976,39.58 105.063,40.329 104.817,40.658C104.406,41.209 103.387,41.039 103.18,41.514C102.726,42.56 103.906,44.391 103.92,45.58C103.82,48.22 103.24,50.81 102.38,53.3C100.44,53.38 98.44,53.41 96.58,52.75C98.3,51.75 100.31,52.19 102.19,52.06Z" style="fill:rgb(17,33,43);fill-rule:nonzero;stroke:rgb(17,33,43);stroke-width:0.09px;"/>
        <path d="M85.22,40.11C85.555,39.031 86.469,38.715 87.487,38.703C88.414,38.692 89.427,38.932 90.17,39.08C88.47,39.34 88.4,40.63 88.19,42.04C86.76,43 84.94,41.82 85.22,40.11Z" style="fill:rgb(17,33,43);fill-rule:nonzero;stroke:rgb(17,33,43);stroke-width:0.09px;"/>
        <path d="M85.31,57.31C90.53,58.75 96.12,59.33 101.41,57.92L101.72,57.12C101.92,57.66 102.32,58.72 102.52,59.26C97,60.1 89.57,61.89 85.31,57.31Z" style="fill:rgb(17,33,43);fill-rule:nonzero;stroke:rgb(17,33,43);stroke-width:0.09px;"/>
        <path d="M119.43,60.15C120.44,58.66 123.16,57.69 124.34,59.46C125.4,60.58 124.11,62.35 122.76,62.38C121.65,61.62 120.73,60.61 119.43,60.15Z" style="fill:rgb(17,33,43);fill-rule:nonzero;stroke:rgb(17,33,43);stroke-width:0.09px;"/>
        <path d="M61.74,60.48C61.97,60.53 62.43,60.63 62.66,60.68C63.83,61.28 64.66,62.14 65.16,63.27C64.45,67.58 65.08,72.04 65.31,76.4L63.79,77.63C61.85,72.26 60.98,66.07 56.81,61.88C58.46,61.44 60.11,61 61.74,60.48Z" style="fill:rgb(17,33,43);fill-rule:nonzero;stroke:rgb(17,33,43);stroke-width:0.09px;"/>
        <path d="M105.28,60.36C108.01,58.73 109.85,63.9 106.46,63.64C105.91,62.62 105.27,61.56 105.28,60.36Z" style="fill:rgb(17,33,43);fill-rule:nonzero;stroke:rgb(17,33,43);stroke-width:0.09px;"/>
        <path d="M110.523,74.694C109.923,70.811 110.703,61.859 110.523,61.133C110.358,60.464 111.344,60.644 111.414,61.133C111.718,63.251 111.3,69.48 112.01,73.84C112.596,74.05 113.792,73.454 115.31,72.45C116.08,74.73 112.003,75.074 110.523,74.694Z" style="fill:rgb(17,33,43);fill-rule:nonzero;stroke:rgb(17,33,43);stroke-width:0.09px;"/>
        <path d="M79.91,74.05C87.45,77.31 96.67,78.15 103.78,73.32L104.06,74.26C104.03,76.55 103.93,78.83 104.38,81.09C95.64,82.67 86.64,79.64 79.91,74.05Z" style="fill:rgb(17,33,43);fill-rule:nonzero;stroke:rgb(17,33,43);stroke-width:0.09px;"/>
        <path d="M105.97,105.59C107.79,103.59 109.47,99.66 112.78,100.9C110.23,102.09 108.13,104.73 108.37,107.66C106.85,107.68 105.35,107.89 103.87,108.26C104.26,107.13 104.97,106.24 105.97,105.59Z" style="fill:rgb(17,33,43);fill-rule:nonzero;stroke:rgb(17,33,43);stroke-width:0.09px;"/>
        <path d="M121.55,103.2C128.76,106.07 135.18,110.78 139.62,117.19C138.35,119.1 135.87,119.78 134.13,121.2L133.27,120.95C129.77,115.65 124.15,111.73 118.04,110.06C120.09,108.34 121.71,106 121.55,103.2Z" style="fill:rgb(17,33,43);fill-rule:nonzero;stroke:rgb(17,33,43);stroke-width:0.09px;"/>
        <path d="M188.25,201.53L188.34,200.86C189.85,206.47 192.73,211.56 195.21,216.77C196.71,220.12 198.16,223.52 200.17,226.6C200.25,229.81 198.96,232.81 198.79,236L122.05,236C122.83,232.35 122.65,228.55 123.65,224.94C124.76,220.56 124.75,215.93 126.38,211.68C141.06,216.91 157.2,214.2 171.73,209.76C177.47,207.6 183.57,205.66 188.25,201.53Z" style="fill:rgb(17,33,43);fill-rule:nonzero;stroke:rgb(17,33,43);stroke-width:0.09px;"/>
        <path d="M80.78,60.59C80.52,57.44 80.86,53.51 83.22,51.29C81.87,55.25 80.67,59.67 82.66,63.64C81.1,63.58 81.13,61.73 80.78,60.59Z" style="fill:rgb(254,236,177);fill-rule:nonzero;stroke:rgb(254,236,177);stroke-width:0.09px;"/>
        <path d="M62.66,60.68C65.63,61.76 68.73,61.72 71.79,61.08C70.62,63.47 67.33,62.72 65.16,63.27C64.66,62.14 63.83,61.28 62.66,60.68Z" style="fill:rgb(254,236,177);fill-rule:nonzero;stroke:rgb(254,236,177);stroke-width:0.09px;"/>
        <path d="M112.78,100.9C113.44,100.58 114.05,100.19 114.63,99.74C117.2,100.49 119.98,100.7 121.55,103.2C121.71,106 120.09,108.34 118.04,110.06C115.87,110.5 113.77,111.6 111.51,111.22C109.81,110.78 109.21,108.98 108.37,107.66C108.13,104.73 110.23,102.09 112.78,100.9M111.06,108.77C114.68,110.28 120.31,106.79 118.41,102.7C114.67,100.06 108.86,104.45 111.06,108.77Z" style="fill:rgb(254,236,177);fill-rule:nonzero;stroke:rgb(254,236,177);stroke-width:0.09px;"/>
        <path d="M159.28,113.37C164.95,109.72 170.67,106.13 176.22,102.31C179.07,103.42 182,104.32 184.85,105.43C182.31,105.06 179.72,105 177.16,105.24C171.23,107.5 166.35,112.66 165.09,118.98C163.11,127.14 165.36,135.62 169.09,142.93C174.86,154.74 184.34,164.1 191.83,174.77C190.28,183.4 189.33,192.15 188.34,200.86L188.25,201.53C183.57,205.66 177.47,207.6 171.73,209.76C157.2,214.2 141.06,216.91 126.38,211.68C123.62,205.47 121.56,198.98 119.96,192.37C117.61,181.56 114.22,170.79 114.01,159.65C114.5,153.05 112.22,146.57 112.99,139.94C113.53,136.59 112.67,132.84 114.52,129.83C114.18,137.87 113.92,145.93 114.58,153.97C115.03,155.32 116.17,156.27 117.07,157.34C118.33,156.85 119,155.59 119.22,154.33C120.82,147.21 121.4,139.65 125.27,133.28C127.89,129.15 128.2,122.98 133.27,120.95C134.11,123.2 134.51,125.58 135.27,127.86C137.3,125.94 138.55,123.4 140.21,121.2C142.06,118.72 144.22,116.4 145.33,113.45C147.44,111.66 149.78,110.17 151.97,108.47C154.6,109.82 156.75,111.9 159.28,113.37Z" style="fill:rgb(254,236,177);fill-rule:nonzero;stroke:rgb(254,236,177);stroke-width:0.09px;"/>
        <path d="M168.04,114.95C171.05,107.95 179.82,103.65 187.05,106.75C190.51,109.43 192.88,113.17 195.58,116.56C202.8,127.02 209.88,137.57 216.64,148.33C222.39,157.94 227.57,167.88 233.3,177.5C234.96,180.09 236.48,182.94 236.7,186.07C237.22,193.71 236.74,201.38 235.89,208.99C235.51,218.02 234.09,226.95 232.87,235.9L234.03,236L198.79,236C198.96,232.81 200.25,229.81 200.17,226.6C202.58,215.78 204.41,204.84 206.3,193.92C202.15,187.57 197.03,181.89 192.83,175.55C192.48,174.46 192.13,173.38 191.77,172.3C184.11,161.88 174.77,152.44 169.49,140.47C165.82,132.62 164.16,123.03 168.04,114.95Z" style="fill:rgb(254,236,177);fill-rule:nonzero;stroke:rgb(254,236,177);stroke-width:0.09px;"/>
        <path d="M94.01,123.75C96.54,120.18 100.58,125.06 103.63,122.84C106.5,121.45 109.24,123.71 111.98,124.33C114.42,123.92 118.05,123.26 119.33,126.05C117.45,125.65 115.55,124.92 113.6,125.36C109.98,126.35 106.87,121.9 103.32,124.16C100.15,126 97.22,121.78 94.01,123.75Z" style="fill:rgb(254,236,177);fill-rule:nonzero;stroke:rgb(254,236,177);stroke-width:0.09px;"/>
        <path d="M96.73,132.36C97.02,131.25 97.79,130.37 98.45,129.47C96.16,136.67 95.22,144.36 96.04,151.89C95.63,151.9 94.81,151.92 94.4,151.93C93.99,145.34 94.89,138.69 96.73,132.36Z" style="fill:rgb(254,236,177);fill-rule:nonzero;stroke:rgb(254,236,177);stroke-width:0.09px;"/>
        <path d="M104.44,132.95C104.66,131.84 104.37,130.37 105.45,129.65C105.74,135.56 104.83,141.57 106.17,147.41C106.61,149.59 107.85,151.59 107.66,153.9C106.54,152.61 106.9,149.66 104.91,149.49L104.75,149.45C104.45,143.96 103.92,138.46 104.44,132.95Z" style="fill:rgb(254,236,177);fill-rule:nonzero;stroke:rgb(254,236,177);stroke-width:0.09px;"/>
        <path d="M152.37,68.38C161.72,62.52 171.92,57.69 182.92,56.07C185.93,55.75 189.04,56.06 191.91,57.05C198.54,59.29 203.17,66.05 203.52,72.93C203.83,77.36 200.91,81.07 198.03,84.08C191.39,90.87 183.87,96.71 176.22,102.31C170.67,106.13 164.95,109.72 159.28,113.37C156.75,111.9 154.6,109.82 151.97,108.47C142.89,102.4 132.87,97.76 122.56,94.22C121.28,93.67 120,93.13 118.78,92.46C126.18,85.91 134.08,79.93 142.33,74.51C143.37,73.94 144.16,73.07 144.92,72.17C147.48,71.06 150.03,69.92 152.37,68.38Z" style="fill:rgb(29,48,75);fill-rule:nonzero;stroke:rgb(29,48,75);stroke-width:0.09px;"/>
        <path d="M9.68,100.35C15.92,94.36 23.95,90.38 32.17,87.83C35.5,92.31 39.66,96.14 42.75,100.8C38.78,101.08 34.54,100.25 30.83,102.04C30.33,105.92 31.25,109.8 32.35,113.5C38.58,139.71 48.23,164.92 56.46,190.53C62.21,205.6 67.57,220.82 73.02,236L0,236L0,110.64C2.18,107.05 4.81,103.68 8.26,101.22C9.68,100.207 8.742,100.8 9.68,100.35Z" style="fill:rgb(29,48,75);fill-rule:nonzero;stroke:rgb(29,48,75);stroke-width:0.09px;"/>
        <path d="M118.98,194.02C119.23,193.61 119.72,192.78 119.96,192.37C121.56,198.98 123.62,205.47 126.38,211.68C124.75,215.93 124.76,220.56 123.65,224.94C122.65,228.55 122.83,232.35 122.05,236L113.08,236C114.06,221.91 117.19,208.03 118.98,194.02Z" style="fill:rgb(29,48,75);fill-rule:nonzero;stroke:rgb(29,48,75);stroke-width:0.09px;"/>
        <path d="M104.06,74.26C105.08,77.7 106.13,81.14 107.41,84.5C106.97,88.95 107.37,93.47 106.8,97.92C105.54,99.79 104.29,101.66 102.99,103.51C100.82,98.61 98.9,93.54 95.82,89.12C98.63,86.4 101.37,83.59 104.38,81.09C103.93,78.83 104.03,76.55 104.06,74.26Z" style="fill:rgb(154,203,236);fill-rule:nonzero;stroke:rgb(154,203,236);stroke-width:0.09px;"/>
        <path d="M63.79,77.63L65.31,76.4C69.13,80.7 73.7,84.29 78.3,87.72C76.15,93.61 75.44,99.89 74.36,105.99C72.48,104.43 70.63,102.83 68.94,101.06C67.03,93.29 66.93,85.05 63.79,77.63Z" style="fill:rgb(154,203,236);fill-rule:nonzero;stroke:rgb(154,203,236);stroke-width:0.09px;"/>
        <path d="M75.73,108.41C76.48,101.69 77.39,94.93 79.4,88.45C81.58,90.29 84.23,91.64 85.97,93.96C87.58,96.12 87.63,99.18 89.84,100.91C88.46,104.11 87.24,107.5 87.27,111.03C87.51,119.04 87.93,127.06 88.06,135.08C86.9,138.91 87.52,143.04 87.08,147C87.1,151.38 86.61,156.08 88.76,160.09C89.1,185.4 90.16,210.72 91.19,236L89.8,236C86.4,206.14 81.75,176.42 76.65,146.79C74.13,132.84 72.54,118.72 69.63,104.84L69.81,103.44C71.87,104.98 73.32,107.34 75.73,108.41Z" style="fill:rgb(154,203,236);fill-rule:nonzero;stroke:rgb(154,203,236);stroke-width:0.09px;"/>
        <path d="M95.3,91.78C95.56,91.96 96.07,92.32 96.33,92.5C98.61,96.84 100.45,101.39 102.28,105.93C104.57,105.25 104.84,101.7 106.8,100.23C106.75,102.02 107.03,104.02 105.97,105.59C104.97,106.24 104.26,107.13 103.87,108.26C98.64,115.57 89.42,121.27 89.14,131.25C89.08,124.43 88.87,117.61 88.92,110.79C90.8,112.01 93.21,109.09 90.76,108.17C90.38,108.16 89.62,108.13 89.24,108.12C90.62,102.46 93.36,97.26 95.3,91.78Z" style="fill:rgb(154,203,236);fill-rule:nonzero;stroke:rgb(154,203,236);stroke-width:0.09px;"/>
        <path d="M104.75,149.45L104.91,149.49C104.67,178.32 105.16,207.16 105.09,236L92.19,236C92.12,219.31 91.01,202.64 90.84,185.95C90.76,177.42 89.9,168.89 90.24,160.37C92.58,158.08 92.91,154.72 94.4,151.93C94.81,151.92 95.63,151.9 96.04,151.89C96.27,155.9 96.58,159.96 98.69,163.5C99.57,163.83 100.47,163.88 101.39,163.65C103.37,159.2 104.03,154.23 104.75,149.45M91.07,161.52C89.52,162.4 91.32,165.01 92.66,163.75C93.76,162.76 92.35,160.78 91.07,161.52M92.32,192.06C91.8,193.65 92.36,194.22 93.99,193.77C94.58,192.05 94.03,191.48 92.32,192.06M93.12,229.21C91.7,230.61 93.87,233.02 95.27,231.41C96.7,230.16 94.44,227.94 93.12,229.21Z" style="fill:rgb(154,203,236);fill-rule:nonzero;stroke:rgb(154,203,236);stroke-width:0.09px;"/>
        <path d="M78.3,87.72C78.57,87.9 79.12,88.26 79.4,88.45C77.39,94.93 76.48,101.69 75.73,108.41C73.32,107.34 71.87,104.98 69.81,103.44L69.63,104.84C69.28,103.6 69.14,102.33 68.94,101.06C70.63,102.83 72.48,104.43 74.36,105.99C75.44,99.89 76.15,93.61 78.3,87.72Z" style="fill:rgb(103,145,161);fill-rule:nonzero;stroke:rgb(103,145,161);stroke-width:0.09px;"/>
        <path d="M89.84,100.91C92.06,97.11 92.77,92.37 95.82,89.12C98.9,93.54 100.82,98.61 102.99,103.51C104.29,101.66 105.54,99.79 106.8,97.92L106.8,100.23C104.84,101.7 104.57,105.25 102.28,105.93C100.45,101.39 98.61,96.84 96.33,92.5C96.07,92.32 95.56,91.96 95.3,91.78C93.36,97.26 90.62,102.46 89.24,108.12C89.16,108.79 89,110.13 88.92,110.79C88.87,117.61 89.08,124.43 89.14,131.25C88.78,132.52 88.48,133.82 88.06,135.08C87.93,127.06 87.51,119.04 87.27,111.03C87.24,107.5 88.46,104.11 89.84,100.91Z" style="fill:rgb(103,145,161);fill-rule:nonzero;stroke:rgb(103,145,161);stroke-width:0.09px;"/>
        <path d="M88.76,160.09L90.24,160.37C89.9,168.89 90.76,177.42 90.84,185.95C91.01,202.64 92.12,219.31 92.19,236L91.19,236C90.16,210.72 89.1,185.4 88.76,160.09Z" style="fill:rgb(103,145,161);fill-rule:nonzero;stroke:rgb(103,145,161);stroke-width:0.09px;"/>
        <path d="M34.73,203.64C34.366,199.037 34.017,194.51 34.02,189.98C32.46,170.69 32.57,151.31 32.18,131.97C32.18,129.64 31.83,127.29 30.63,125.27C25.15,115.61 16.69,108.22 8.26,101.22C8.66,100.8 9.14,100.5 9.68,100.35C9.99,100.76 10.61,101.59 10.92,102C18.83,108.03 25.97,115.24 31.26,123.69C33.5,126.99 33.72,131.11 33.75,134.97C33.97,157.2 33.82,179.51 36.56,201.61M36.56,201.61L36.8,205.54C37.82,215.67 38.49,225.84 39.1,236L37.81,236C36.88,225.27 36.06,214.33 34.73,203.64" style="fill:rgb(103,145,161);fill-rule:nonzero;stroke:rgb(103,145,161);stroke-width:0.09px;"/>
    </g>
</svg>
