<svg xmlns="http://www.w3.org/2000/svg" width="931pt" height="1220" viewBox="0 0 931 915"><g fill="#070409"><path d="M 482.89 4.64 C 490.31 2.70 498.06 3.49 505.64 3.37 C 510.96 3.24 516.05 4.92 521.19 6.02 C 526.56 7.31 531.86 5.03 537.18 4.55 C 541.45 4.22 545.74 4.39 550.02 4.38 C 559.84 4.20 569.45 6.56 579.08 8.19 C 585.78 9.33 592.44 6.43 599.15 7.81 C 604.60 9.04 610.28 7.86 615.70 9.29 C 624.79 11.34 633.56 14.81 642.85 15.94 C 645.76 16.43 648.74 16.49 651.62 17.22 C 659.58 19.02 666.38 24.08 674.41 25.68 C 684.79 27.93 695.19 30.70 704.65 35.65 C 710.84 39.21 716.35 43.84 722.48 47.50 C 729.39 51.22 737.30 53.37 743.23 58.73 C 747.72 62.84 751.41 67.84 756.45 71.35 C 765.78 77.78 775.87 83.11 784.71 90.25 C 788.12 92.92 791.85 95.14 795.38 97.66 C 802.84 103.31 811.48 107.29 818.57 113.46 C 821.91 116.43 824.82 119.85 828.06 122.94 C 834.86 129.14 840.70 136.32 847.57 142.45 C 856.93 152.08 866.63 161.38 875.95 171.05 C 882.23 177.41 889.09 183.31 894.44 190.51 C 899.60 198.79 903.10 207.97 907.33 216.73 C 911.17 223.49 915.75 230.04 917.44 237.77 C 919.46 244.99 919.34 252.66 921.90 259.74 C 923.36 264.13 924.10 268.78 926.28 272.90 C 928.39 276.93 930.41 281.09 931.00 285.66 L 931.00 354.17 C 930.49 358.89 930.92 363.98 928.20 368.15 C 921.95 377.67 916.75 387.88 912.27 398.35 C 909.99 403.44 906.33 407.69 903.28 412.31 C 895.95 423.08 888.77 434.24 878.65 442.65 C 871.63 449.65 863.93 455.90 857.01 462.98 C 850.60 469.29 843.31 474.61 837.05 481.07 C 832.89 485.29 826.98 486.86 822.25 490.25 C 816.79 494.17 811.09 497.70 805.68 501.68 C 800.94 505.08 793.62 505.89 791.28 511.92 C 789.52 518.43 789.84 525.29 788.79 531.94 C 789.31 537.48 791.33 542.79 792.04 548.33 C 793.50 559.22 796.85 569.76 798.38 580.64 C 798.53 586.21 798.77 591.93 801.16 597.07 C 803.60 603.47 810.00 607.09 813.09 613.07 C 814.91 616.61 815.75 620.55 817.19 624.25 C 818.69 628.10 821.50 631.26 823.16 635.05 C 825.90 640.94 824.74 648.06 828.54 653.56 C 832.40 659.47 834.57 666.29 835.97 673.17 C 836.90 679.05 841.84 683.09 843.51 688.69 C 846.12 696.80 847.15 705.30 848.76 713.64 C 850.27 720.72 856.31 725.72 857.66 732.85 C 858.41 736.67 860.77 739.80 863.06 742.84 C 865.77 746.22 865.77 750.73 866.53 754.81 C 867.15 760.72 873.96 763.35 875.02 769.11 C 877.31 779.58 876.74 790.39 876.70 801.04 C 876.87 805.06 875.01 808.70 873.11 812.11 C 870.66 816.38 868.96 821.04 866.31 825.20 C 864.57 827.98 862.44 830.65 861.82 833.96 C 861.45 837.76 861.96 841.60 861.44 845.40 C 858.40 845.62 854.03 846.82 852.33 843.46 C 849.42 839.30 850.53 833.95 850.30 829.20 C 849.96 823.89 854.06 819.98 856.73 815.86 C 860.19 811.15 860.44 805.10 862.43 799.78 C 863.56 796.22 865.53 792.82 865.54 789.00 C 865.59 784.15 864.39 779.35 862.72 774.83 C 860.98 769.94 856.41 766.64 855.07 761.59 C 853.72 756.80 853.30 751.64 850.54 747.36 C 846.51 741.16 846.13 733.49 842.65 727.05 C 840.57 722.99 838.25 719.01 836.90 714.63 C 834.83 708.15 834.50 701.28 832.75 694.74 C 831.54 689.94 827.55 686.58 825.70 682.09 C 823.51 676.65 823.56 670.60 821.31 665.18 C 819.54 661.14 816.76 657.62 815.17 653.51 C 813.51 649.32 813.28 644.76 812.04 640.46 C 811.03 637.21 808.75 634.59 807.18 631.62 C 805.12 628.00 804.10 623.92 802.36 620.16 C 800.28 615.90 796.24 613.10 793.58 609.27 C 791.52 606.15 790.44 602.52 789.45 598.97 C 788.15 594.07 786.70 589.16 786.43 584.07 C 785.73 573.77 781.98 564.02 780.63 553.82 C 779.77 546.85 777.12 540.12 777.38 533.03 C 777.31 529.22 777.70 524.74 774.78 521.81 C 772.82 520.95 770.54 521.52 768.80 522.60 C 765.42 524.55 762.24 526.82 758.87 528.79 C 749.98 533.96 741.82 540.28 732.94 545.45 C 726.69 548.96 719.41 550.99 714.40 556.39 C 707.55 563.31 698.97 568.09 691.86 574.69 C 685.75 579.29 681.08 585.43 675.24 590.31 C 672.48 592.87 668.62 593.15 665.13 593.95 C 661.05 594.68 658.73 598.62 655.05 600.19 C 651.33 601.76 647.24 602.54 643.87 604.88 C 641.01 606.82 637.85 608.22 634.77 609.76 C 632.72 610.80 630.56 612.57 630.52 615.07 C 630.21 621.22 632.77 627.01 633.71 633.01 C 635.52 641.14 635.93 649.49 637.46 657.66 C 639.55 666.22 641.87 674.77 642.80 683.56 C 643.42 688.29 644.97 692.83 645.88 697.51 C 647.36 706.59 649.48 715.55 650.79 724.66 C 653.55 733.38 652.62 742.60 652.64 751.60 C 652.35 759.74 653.25 767.96 651.69 776.03 C 651.54 783.28 651.97 790.57 650.89 797.78 C 652.22 805.31 654.18 812.73 655.18 820.32 C 657.05 831.49 660.16 842.41 661.85 853.62 C 664.61 865.22 663.76 877.20 663.49 889.01 C 663.49 892.80 660.73 895.71 658.16 898.17 C 655.55 900.59 653.15 903.23 650.43 905.53 C 646.34 908.87 640.93 909.59 635.93 910.61 C 630.98 911.66 625.85 912.04 620.82 911.46 C 620.47 911.22 619.78 910.74 619.43 910.50 C 619.39 907.70 618.15 903.50 621.53 902.23 C 628.90 897.92 638.62 899.98 645.36 894.30 C 650.58 890.44 652.25 883.74 653.28 877.68 C 654.05 870.51 651.34 863.63 649.86 856.74 C 646.22 838.73 643.38 820.59 639.77 802.58 C 638.29 793.03 640.40 783.50 640.77 773.96 C 642.21 763.38 640.31 752.63 642.17 742.08 C 639.42 724.18 635.85 706.40 631.78 688.74 C 628.55 674.06 626.77 659.09 623.05 644.51 C 622.32 641.63 621.27 638.75 619.33 636.45 C 614.43 637.79 610.54 641.41 605.62 642.71 C 600.33 644.17 595.76 647.29 591.27 650.31 C 587.34 652.97 582.51 653.54 578.23 655.40 C 574.37 657.09 571.57 660.77 567.32 661.64 C 562.86 662.66 558.21 662.71 553.86 664.22 C 545.87 666.89 538.05 670.06 530.27 673.29 C 526.40 674.95 522.11 674.54 518.01 674.66 C 515.18 674.62 512.31 674.91 509.51 674.40 C 507.72 673.55 506.17 672.30 504.57 671.16 C 504.58 668.96 504.59 666.77 504.58 664.59 C 506.29 663.93 507.99 663.24 509.73 662.64 C 515.91 662.34 522.05 661.59 528.22 661.11 C 533.93 660.56 538.69 657.22 543.44 654.31 C 549.72 650.33 557.66 651.37 564.17 647.94 C 569.11 645.29 574.19 642.90 579.58 641.31 C 586.14 639.41 590.90 633.76 597.70 632.47 C 604.75 631.03 611.22 627.20 616.13 621.99 C 618.52 619.84 617.63 615.30 614.50 614.39 C 611.14 612.62 607.53 614.57 604.22 615.42 C 600.47 616.81 596.43 616.60 592.51 616.62 C 591.74 614.45 590.71 612.33 590.47 610.03 C 591.98 604.93 597.28 602.58 602.19 602.16 C 611.90 601.16 621.35 598.64 630.94 596.90 C 636.14 595.90 640.32 592.44 644.89 589.99 C 650.12 587.18 655.18 583.97 660.80 581.94 C 663.82 580.77 667.04 579.76 669.44 577.48 C 672.54 574.56 675.34 571.31 678.78 568.76 C 688.50 561.50 697.14 552.84 707.45 546.35 C 713.39 541.81 720.51 539.09 726.23 534.23 C 729.77 531.22 733.74 528.76 738.00 526.92 C 746.00 523.37 753.31 518.53 760.50 513.59 C 765.72 510.05 772.32 507.09 774.52 500.68 C 775.75 498.34 776.05 494.86 778.93 493.91 C 785.63 492.26 793.34 495.69 799.40 491.44 C 807.19 486.59 814.44 480.91 822.40 476.33 C 826.73 473.83 830.35 470.35 833.59 466.57 C 837.31 462.21 842.74 459.85 846.65 455.68 C 850.21 451.92 853.61 447.93 857.82 444.84 C 862.24 441.65 866.11 437.78 870.29 434.29 C 879.64 425.74 886.57 414.95 893.26 404.30 C 896.71 399.04 901.12 394.34 903.32 388.35 C 905.69 381.90 909.31 376.02 913.54 370.64 C 918.29 364.69 917.73 356.64 920.46 349.84 C 922.95 343.36 927.15 337.23 927.17 330.04 C 925.69 318.21 923.02 306.57 920.59 294.91 C 919.48 288.08 918.63 280.96 914.72 275.04 C 910.65 269.02 909.61 261.79 907.89 254.90 C 905.63 247.19 905.42 238.94 902.18 231.53 C 897.09 221.01 892.12 210.44 886.58 200.16 C 882.17 192.58 875.46 186.78 869.35 180.63 C 859.05 169.94 848.02 159.96 838.24 148.78 C 830.56 141.79 823.41 134.24 815.54 127.46 C 808.54 119.85 799.09 115.32 791.08 108.95 C 784.69 104.66 778.05 100.77 771.90 96.13 C 763.23 90.15 754.20 84.66 746.06 77.95 C 741.53 74.16 737.80 69.54 733.47 65.55 C 729.18 61.65 723.26 60.62 718.23 58.04 C 711.62 54.99 706.34 49.76 699.75 46.69 C 695.83 44.87 691.83 43.24 687.90 41.46 C 680.08 37.91 671.28 37.36 663.49 33.73 C 656.84 30.63 649.97 27.94 642.81 26.26 C 636.23 24.65 629.22 24.99 622.98 22.11 C 616.69 19.24 609.70 19.60 603.00 18.77 C 591.49 18.59 579.97 18.80 568.47 18.63 C 561.47 18.56 555.30 13.85 548.21 14.53 C 541.38 15.15 534.91 18.24 527.94 17.69 C 517.03 18.51 506.59 11.71 495.74 14.89 C 483.26 17.78 470.53 19.38 458.07 22.31 C 452.13 23.74 445.99 23.72 439.99 24.71 C 433.90 25.95 427.37 24.81 421.76 28.07 C 423.92 28.80 426.11 29.49 428.38 29.85 C 421.41 31.03 415.60 35.45 408.87 37.39 C 400.00 40.01 390.94 41.99 381.78 43.26 C 377.24 43.80 372.99 45.58 369.05 47.82 C 361.49 52.15 352.64 53.49 345.10 57.88 C 338.53 61.63 332.26 65.97 325.21 68.80 C 318.89 71.40 313.16 75.30 306.59 77.33 C 292.56 82.82 280.47 92.05 267.28 99.16 C 262.25 101.97 257.92 105.84 252.93 108.72 C 248.50 111.28 243.90 113.58 239.88 116.80 C 234.73 120.90 228.75 123.73 223.11 127.06 C 213.59 133.37 204.59 140.41 195.55 147.38 C 187.84 152.57 180.58 158.42 173.94 164.93 C 170.58 168.22 167.78 172.06 164.15 175.07 C 160.87 177.82 157.71 180.71 154.80 183.84 C 150.15 188.89 143.98 192.50 140.28 198.41 C 137.58 202.56 134.71 206.70 130.76 209.77 C 125.51 213.85 121.98 219.61 117.12 224.09 C 113.70 227.47 109.47 230.93 108.74 235.96 C 110.56 240.85 113.34 245.40 116.71 249.38 C 119.72 253.00 124.64 253.50 128.93 254.47 C 135.73 255.72 141.56 259.82 148.32 261.24 C 153.20 262.62 158.34 262.24 163.28 263.31 C 172.56 264.93 181.01 269.81 187.96 276.04 C 194.21 282.24 198.38 290.19 204.56 296.46 C 207.80 299.91 211.64 302.71 215.53 305.38 C 223.38 310.80 229.42 318.32 235.26 325.75 C 239.32 330.88 241.96 336.93 245.84 342.18 C 249.47 347.39 253.62 352.61 254.81 359.01 C 255.63 362.45 255.84 366.16 257.70 369.26 C 260.06 372.90 264.35 374.61 266.99 378.00 C 268.32 379.99 268.88 382.36 269.52 384.64 C 271.64 393.36 273.85 402.09 274.82 411.03 C 277.14 423.05 279.89 435.00 282.28 447.01 C 281.55 456.84 280.06 467.11 283.07 476.75 C 283.95 480.46 285.29 484.14 285.35 487.99 C 284.78 492.57 282.92 497.01 283.41 501.70 C 283.36 504.75 284.77 507.85 283.70 510.84 C 282.60 515.01 280.37 518.94 280.40 523.35 C 280.21 528.68 281.02 534.20 279.09 539.33 C 276.27 547.06 272.79 554.54 268.57 561.60 C 264.93 567.55 264.64 574.90 260.73 580.71 C 258.70 583.71 256.16 586.47 253.00 588.30 C 250.31 589.72 247.33 590.83 245.18 593.08 C 242.83 595.31 240.98 598.44 237.64 599.30 C 233.93 600.29 230.25 601.70 227.45 604.44 C 224.51 606.58 221.60 610.46 217.52 609.52 C 212.81 607.09 209.49 602.44 204.35 600.71 C 198.33 598.15 191.95 600.90 185.90 601.87 C 179.28 602.96 172.80 604.69 166.28 606.21 C 156.46 607.10 146.56 608.23 136.69 607.41 C 119.51 604.54 104.98 594.00 88.44 589.12 C 80.98 586.81 75.85 579.72 67.93 578.57 C 62.47 578.20 57.10 579.96 52.11 582.01 C 47.92 583.48 47.70 589.04 49.29 592.49 C 51.93 597.08 56.00 600.70 58.29 605.53 C 60.50 610.24 64.70 613.40 68.54 616.70 C 63.37 616.23 58.31 615.07 53.24 614.05 C 50.89 607.59 46.39 602.20 41.48 597.50 C 37.11 592.83 33.14 587.79 29.27 582.70 C 25.42 577.75 24.56 571.36 21.92 565.81 C 19.01 559.23 16.41 552.42 15.53 545.23 C 14.42 536.38 11.80 527.82 10.76 518.96 C 10.09 510.96 7.38 503.35 6.10 495.45 C 2.91 482.88 4.66 469.80 4.33 456.99 C 3.98 445.38 5.11 433.68 8.39 422.51 C 9.99 416.87 10.24 410.99 10.93 405.21 C 13.47 392.08 16.58 379.01 17.46 365.62 C 17.60 360.97 19.17 356.51 21.32 352.44 C 25.50 344.38 29.11 336.04 32.54 327.64 C 34.77 322.05 36.20 316.17 38.65 310.68 C 40.59 305.95 45.55 303.45 47.70 298.87 C 50.31 293.34 50.53 286.94 53.70 281.65 C 56.49 277.21 60.55 273.66 62.80 268.85 C 64.99 264.28 68.44 260.54 71.30 256.41 C 76.67 247.65 85.17 241.52 91.70 233.71 C 96.34 228.35 100.56 222.60 105.94 217.94 C 111.89 212.81 115.51 205.56 121.71 200.69 C 126.31 197.18 128.83 191.87 132.50 187.55 C 138.68 180.72 145.80 174.79 151.76 167.76 C 155.84 163.16 160.74 159.40 165.21 155.20 C 171.67 148.93 178.89 143.53 185.86 137.84 C 195.14 131.13 203.76 123.53 213.29 117.15 C 219.03 112.61 226.06 110.17 231.91 105.81 C 237.78 101.47 244.69 98.83 250.57 94.52 C 255.24 91.17 259.95 87.86 264.70 84.62 C 269.50 81.25 275.02 79.12 279.87 75.81 C 293.13 67.05 308.23 61.85 322.69 55.51 C 329.60 52.36 335.47 47.38 342.31 44.09 C 348.49 40.95 355.22 39.12 361.60 36.43 C 367.59 34.05 373.17 30.46 379.63 29.40 C 387.24 28.09 394.72 26.14 402.35 24.98 C 409.79 23.76 415.38 17.92 422.78 16.55 C 434.47 14.08 446.16 11.60 457.94 9.63 C 466.15 7.43 474.67 6.78 482.89 4.64 M 82.73 263.61 C 82.64 265.72 82.72 267.90 81.86 269.89 C 85.17 269.04 87.55 266.75 88.90 263.66 C 86.84 263.64 84.79 263.63 82.73 263.61 M 130.02 268.27 C 131.77 270.56 133.15 273.15 135.19 275.21 C 137.00 275.43 138.83 275.22 140.65 275.11 C 142.26 276.12 143.60 277.49 145.03 278.75 C 145.96 277.92 146.84 277.03 147.62 276.07 C 146.83 274.94 145.94 273.90 145.15 272.79 C 142.31 272.69 139.45 272.94 136.64 272.53 C 134.66 270.78 132.68 268.90 130.02 268.27 M 178.60 286.38 C 179.39 288.27 179.61 290.30 179.85 292.32 C 180.76 294.67 183.70 295.16 185.23 297.00 C 189.13 302.76 191.83 309.81 197.98 313.64 C 202.97 317.72 209.17 319.73 214.32 323.57 C 211.43 321.18 207.83 319.37 206.25 315.76 C 203.74 310.66 198.17 308.54 194.03 305.09 C 191.53 303.09 190.32 299.97 190.17 296.84 C 188.39 296.58 186.39 296.70 185.16 295.13 C 182.90 292.27 180.83 289.26 178.60 286.38 M 214.98 325.35 C 220.57 332.32 224.70 340.61 231.76 346.30 C 229.63 343.23 225.65 341.18 225.31 337.14 C 224.19 331.67 218.56 329.06 214.98 325.35 M 126.60 336.52 C 130.15 339.66 133.03 343.58 137.33 345.83 C 134.61 343.32 132.18 340.40 131.04 336.82 C 129.56 336.73 128.08 336.64 126.60 336.52 M 75.76 343.81 C 73.36 344.83 72.10 347.29 70.58 349.26 C 68.44 352.46 65.57 355.29 64.36 359.03 C 62.13 366.28 59.59 373.43 57.29 380.67 C 54.00 380.65 50.71 380.78 47.43 380.56 C 47.49 375.52 47.47 370.44 44.94 365.92 C 42.97 367.31 40.41 368.10 39.02 370.17 C 35.77 378.19 35.87 387.30 31.55 394.94 C 28.66 399.63 25.65 404.43 24.98 410.03 C 23.81 419.97 22.98 430.02 20.16 439.69 C 18.97 443.03 19.69 446.56 20.45 449.90 C 20.88 459.70 20.63 469.52 20.61 479.33 C 21.15 483.50 22.12 487.66 23.39 491.69 C 23.80 493.45 25.44 494.48 26.95 495.25 C 30.02 496.09 32.70 493.72 35.67 493.51 C 42.02 493.22 48.17 491.44 54.23 489.64 C 59.94 489.24 65.60 488.24 71.08 486.59 C 79.80 486.62 87.92 482.77 96.55 482.08 C 103.37 481.35 107.97 475.53 114.34 473.60 C 118.95 473.43 124.12 473.02 127.45 469.40 C 130.43 466.14 134.46 464.26 138.08 461.85 C 140.96 458.44 142.87 454.21 146.51 451.43 C 150.18 448.74 150.65 444.01 152.23 440.08 C 154.07 435.14 157.48 430.53 157.33 425.03 C 157.13 419.06 157.43 413.09 157.45 407.12 C 156.56 400.34 155.21 393.61 153.88 386.90 C 153.50 385.21 153.28 383.31 151.92 382.08 C 148.15 378.69 143.17 376.48 140.56 371.93 C 137.71 367.00 133.56 363.05 130.05 358.62 C 128.22 356.30 125.35 355.28 122.81 353.97 C 118.85 352.11 115.36 349.43 111.40 347.57 C 107.77 345.87 103.67 345.82 99.89 344.62 C 96.18 343.61 92.68 341.99 89.01 340.85 C 84.68 342.21 80.25 343.17 75.76 343.81 M 43.26 343.39 C 44.82 345.18 46.18 347.15 47.05 349.37 C 47.67 349.33 48.30 349.29 48.92 349.26 C 49.99 347.93 51.20 346.72 52.53 345.65 C 49.24 345.94 45.98 345.37 43.26 343.39 M 236.80 353.28 C 236.66 355.65 237.10 358.23 235.78 360.36 C 237.63 360.28 239.50 360.29 241.35 360.41 C 239.27 358.45 237.68 356.00 236.80 353.28 M 263.42 452.64 C 264.96 453.72 266.57 454.72 268.10 455.83 C 267.09 453.65 267.34 451.21 267.32 448.88 C 266.14 450.25 264.83 451.50 263.42 452.64 M 157.58 462.55 C 154.08 466.29 152.30 471.16 150.42 475.82 C 148.71 480.24 145.46 483.83 143.60 488.17 C 142.83 491.43 146.53 493.28 148.96 494.46 C 152.31 494.66 155.67 494.37 159.03 494.43 C 165.70 494.46 171.60 490.20 178.27 490.43 C 181.19 490.52 183.74 488.90 186.40 487.94 C 186.90 482.06 186.07 476.19 183.77 470.74 C 182.81 467.75 179.33 467.02 176.78 465.90 C 171.88 464.37 167.51 461.64 162.85 459.59 C 160.52 458.96 159.03 461.14 157.58 462.55 M 269.01 495.44 C 269.23 494.54 270.66 493.65 269.77 492.77 C 267.94 490.58 267.13 487.93 266.67 485.17 C 266.99 488.65 267.14 492.38 269.01 495.44 M 265.71 507.48 C 265.68 510.65 266.01 513.92 264.96 516.98 C 264.15 519.13 264.60 521.45 265.00 523.65 C 266.78 519.29 267.45 514.58 268.52 510.05 C 267.74 509.06 266.60 508.36 265.71 507.48 M 252.36 557.55 C 247.37 561.43 244.02 567.81 244.44 574.11 C 240.38 578.58 234.11 579.86 229.93 584.12 C 227.76 586.20 224.71 587.18 222.79 589.53 C 220.90 592.33 219.79 595.71 217.04 597.87 C 217.65 598.31 218.31 598.70 218.94 599.14 C 220.56 595.31 224.72 594.10 227.86 591.92 C 230.18 589.01 232.38 585.63 236.09 584.39 C 237.48 584.30 239.01 584.93 240.32 584.23 C 245.63 581.54 248.50 575.33 247.52 569.50 C 249.23 568.12 251.82 567.26 252.22 564.80 C 252.86 561.64 253.64 558.28 256.50 556.37 C 255.22 557.09 253.80 557.35 252.36 557.55 Z"/><path d="M 484.22 309.30 C 489.77 307.59 495.47 309.14 501.00 310.08 C 511.29 311.73 521.80 313.31 531.38 317.63 C 534.09 318.98 537.20 320.34 538.61 323.22 C 540.15 326.49 540.46 330.16 541.37 333.64 C 542.30 337.77 544.09 341.66 545.03 345.79 C 546.06 350.30 544.59 355.12 546.35 359.52 C 548.85 366.08 550.52 372.92 551.87 379.80 C 553.62 389.40 554.10 399.77 559.75 408.10 C 564.64 415.43 565.62 424.34 567.30 432.76 C 569.72 443.23 571.16 453.89 573.71 464.33 C 575.37 469.63 572.19 474.78 572.43 480.13 C 572.53 488.19 568.68 495.47 567.13 503.22 C 565.42 511.29 563.78 519.38 562.34 527.51 C 561.64 531.80 559.60 535.66 557.38 539.34 C 554.09 544.73 554.94 551.38 552.63 557.13 C 550.83 561.69 549.20 566.31 547.56 570.93 C 545.18 577.59 539.59 582.48 537.17 589.13 C 535.52 593.49 534.23 598.12 531.24 601.81 C 524.57 604.55 517.89 607.51 510.69 608.51 C 504.31 609.38 497.95 610.36 491.62 611.46 C 485.07 612.61 479.74 607.79 473.59 606.68 C 468.55 605.77 463.33 605.53 458.58 603.49 C 449.97 599.89 440.97 597.25 432.63 593.02 C 425.10 589.20 417.87 584.70 409.93 581.76 C 404.91 579.73 399.06 581.33 394.30 578.54 C 390.97 576.57 387.88 574.23 384.75 571.98 C 376.53 563.28 367.31 555.38 360.75 545.26 C 358.43 541.14 358.31 536.29 356.94 531.85 C 355.73 527.56 353.06 523.94 350.86 520.13 C 348.98 517.13 347.38 513.73 344.30 511.78 C 339.05 508.35 333.55 505.22 328.90 500.99 C 326.35 498.74 325.66 495.26 324.92 492.11 C 323.50 485.19 321.83 478.33 320.69 471.36 C 319.76 465.53 322.07 459.85 321.66 454.01 C 321.86 449.52 319.96 445.16 320.72 440.68 C 321.91 434.31 324.14 428.13 324.61 421.63 C 325.42 412.16 327.99 402.98 331.06 394.03 C 333.07 388.29 333.92 382.12 336.83 376.71 C 339.62 371.41 344.93 368.11 348.01 363.02 C 350.74 358.93 353.39 353.69 358.66 352.60 C 364.07 352.80 369.61 356.14 374.97 354.03 C 380.11 349.86 384.02 344.33 389.34 340.33 C 392.82 337.27 397.33 335.95 401.66 334.63 C 409.53 332.79 412.64 323.63 420.54 321.76 C 432.92 318.60 445.72 317.42 458.11 314.26 C 466.69 311.98 475.66 311.74 484.22 309.30 M 417.44 345.49 C 418.75 345.37 420.09 345.40 421.39 345.11 C 423.43 342.97 424.35 340.08 425.70 337.51 C 421.14 336.78 417.19 341.08 417.44 345.49 M 408.95 362.54 C 404.26 362.38 399.53 363.20 395.22 365.07 C 391.28 367.41 387.69 370.31 384.18 373.25 C 381.47 375.40 381.21 379.01 380.35 382.10 C 379.43 385.61 377.53 388.82 375.04 391.45 C 371.14 391.66 366.70 392.51 363.35 389.98 C 361.64 392.53 359.77 395.05 358.85 398.02 C 358.33 401.18 358.93 404.44 358.27 407.58 C 356.64 413.72 354.29 419.71 353.57 426.05 C 353.25 430.39 351.15 434.48 351.65 438.90 C 352.23 446.97 350.35 455.29 353.17 463.08 C 353.95 469.92 354.94 476.77 357.13 483.33 C 357.94 488.49 358.29 493.81 360.06 498.77 C 361.28 502.97 366.17 503.73 369.66 505.22 C 376.29 506.40 382.87 504.23 389.30 502.82 C 399.50 501.15 409.70 499.49 419.71 496.88 C 426.75 495.94 434.75 496.08 440.38 491.06 C 444.63 487.34 450.77 486.81 454.62 482.51 C 459.08 478.12 467.69 478.37 469.65 471.61 C 472.86 463.51 474.74 454.74 474.33 446.00 C 474.28 438.58 475.45 430.92 472.85 423.77 C 471.80 416.49 471.20 409.04 468.78 402.03 C 468.30 397.50 467.92 392.55 464.89 388.87 C 462.15 385.43 457.44 384.02 455.36 380.00 C 453.04 375.63 451.21 370.83 447.57 367.34 C 443.57 363.17 437.90 361.40 432.57 359.61 C 424.64 356.37 416.89 362.28 408.95 362.54 M 545.72 423.68 C 546.77 422.66 548.14 422.27 549.55 422.05 C 547.26 420.10 546.07 417.29 545.08 414.53 C 543.65 417.60 546.46 420.49 545.72 423.68 M 335.58 440.55 C 335.61 442.89 335.60 445.23 335.60 447.58 C 336.92 448.32 338.24 449.06 339.54 449.84 C 339.60 446.69 338.62 443.69 338.26 440.59 C 337.37 440.57 336.47 440.56 335.58 440.55 M 335.81 461.38 C 335.70 463.95 335.24 466.47 334.71 468.99 C 335.45 472.79 336.76 476.54 336.57 480.47 C 336.19 484.79 339.16 488.31 339.96 492.40 C 341.26 491.01 342.71 489.79 344.20 488.61 C 343.41 486.50 342.35 484.41 342.46 482.11 C 342.37 474.70 340.07 467.44 335.81 461.38 M 482.54 476.08 C 482.53 477.36 482.63 478.63 482.74 479.91 C 484.33 477.67 485.97 475.45 487.61 473.24 C 485.82 473.93 483.64 474.34 482.54 476.08 M 463.96 514.30 C 464.53 515.45 465.26 516.52 465.89 517.66 C 467.17 516.03 468.73 514.65 470.22 513.22 C 469.05 512.25 467.81 511.38 466.48 510.67 C 465.56 511.82 464.67 513.00 463.96 514.30 M 427.20 525.27 C 425.92 529.12 422.81 532.09 421.72 536.00 C 422.72 539.65 423.81 543.32 423.58 547.16 C 423.04 550.20 425.82 552.25 428.35 553.18 C 433.98 555.44 439.76 557.28 445.54 559.14 C 449.19 560.39 452.50 557.42 456.13 557.50 C 459.59 557.62 462.75 555.97 466.13 555.56 C 472.49 555.86 478.43 553.10 484.21 550.79 C 488.81 549.05 489.99 543.71 489.49 539.31 C 485.01 536.63 480.70 533.49 475.68 531.89 C 471.08 530.34 466.22 529.89 461.45 529.23 C 456.85 527.86 452.03 528.92 447.34 528.40 C 444.74 526.42 442.64 523.81 439.78 522.20 C 436.86 520.55 433.93 518.89 431.35 516.75 C 429.23 519.19 428.19 522.25 427.20 525.27 M 535.43 557.36 C 536.37 557.32 537.30 557.31 538.25 557.30 C 537.95 552.70 539.81 548.30 539.22 543.72 C 538.93 548.54 536.03 552.62 535.43 557.36 M 493.15 562.10 C 494.83 562.22 496.52 562.34 498.21 562.51 C 497.94 560.23 499.05 558.35 500.60 556.77 C 498.32 558.82 495.79 560.55 493.15 562.10 M 415.71 563.42 C 412.50 564.61 409.78 567.29 406.10 566.84 C 408.05 568.30 409.67 570.14 411.56 571.68 C 415.00 574.33 419.16 575.75 423.19 577.26 C 426.28 578.39 429.07 580.26 432.23 581.23 C 434.88 581.43 437.54 581.23 440.20 581.10 C 441.81 582.73 443.12 584.61 444.58 586.38 C 445.38 586.05 446.18 585.67 446.96 585.29 C 446.38 584.24 445.72 583.24 445.04 582.28 C 443.47 579.59 439.94 579.70 437.44 578.44 C 435.67 576.93 435.47 574.31 433.93 572.67 C 429.92 570.42 425.66 568.61 421.80 566.07 C 419.83 565.14 417.96 563.48 415.71 563.42 M 453.44 587.69 C 455.49 588.99 457.30 590.61 459.23 592.08 C 460.27 591.53 461.23 590.84 462.18 590.16 C 460.43 588.76 458.65 587.38 457.11 585.75 C 455.92 586.46 454.70 587.12 453.44 587.69 M 474.21 594.03 C 475.29 595.13 476.27 596.35 477.48 597.33 C 479.21 597.42 480.95 597.36 482.69 597.32 C 480.54 595.91 478.71 594.09 477.03 592.16 C 476.10 592.81 475.16 593.43 474.21 594.03 Z"/><path d="M 262.86 610.90 C 269.81 612.63 277.22 613.52 283.32 617.56 C 288.35 620.46 292.11 625.57 297.99 626.92 C 305.88 628.97 313.82 630.91 321.53 633.57 C 327.52 635.85 333.28 639.33 339.88 639.41 C 351.01 639.53 361.90 644.37 373.08 641.93 C 380.98 640.21 388.73 643.30 396.59 643.65 C 402.48 644.60 408.37 645.50 414.34 645.80 C 420.63 647.16 427.07 645.97 433.42 646.56 C 438.57 647.50 443.26 650.24 448.54 650.66 C 452.33 651.42 456.39 650.91 459.98 652.52 C 465.19 655.23 470.31 658.85 472.29 664.66 C 467.60 664.76 462.85 665.03 458.22 664.14 C 446.84 662.10 435.51 659.71 423.99 658.72 C 420.19 658.55 416.36 658.77 412.59 658.16 C 402.73 656.55 392.76 655.81 382.80 655.40 C 374.15 653.43 365.25 655.42 356.50 654.33 C 346.92 653.04 337.20 652.24 327.87 649.61 C 321.38 647.89 316.26 642.87 309.56 641.81 C 303.59 640.76 297.56 639.70 291.96 637.30 C 286.35 634.87 281.65 630.79 276.07 628.31 C 271.20 626.10 265.70 626.13 260.68 624.41 C 260.12 621.45 259.08 618.46 259.53 615.42 C 260.22 613.65 261.67 612.33 262.86 610.90 Z"/></g><path fill="#fcc80d" d="M 495.74 14.89 C 506.59 11.71 517.03 18.51 527.94 17.69 C 534.91 18.24 541.38 15.15 548.21 14.53 C 555.30 13.85 561.47 18.56 568.47 18.63 C 579.97 18.80 591.49 18.59 603.00 18.77 C 609.70 19.60 616.69 19.24 622.98 22.11 C 629.22 24.99 636.23 24.65 642.81 26.26 C 649.97 27.94 656.84 30.63 663.49 33.73 C 671.28 37.36 680.08 37.91 687.90 41.46 C 691.83 43.24 695.83 44.87 699.75 46.69 C 706.34 49.76 711.62 54.99 718.23 58.04 C 723.26 60.62 729.18 61.65 733.47 65.55 C 737.80 69.54 741.53 74.16 746.06 77.95 C 754.20 84.66 763.23 90.15 771.90 96.13 C 778.05 100.77 784.69 104.66 791.08 108.95 C 799.09 115.32 808.54 119.85 815.54 127.46 C 823.41 134.24 830.56 141.79 838.24 148.78 C 848.02 159.96 859.05 169.94 869.35 180.63 C 875.46 186.78 882.17 192.58 886.58 200.16 C 892.12 210.44 897.09 221.01 902.18 231.53 C 905.42 238.94 905.63 247.19 907.89 254.90 C 909.61 261.79 910.65 269.02 914.72 275.04 C 918.63 280.96 919.48 288.08 920.59 294.91 C 923.02 306.57 925.69 318.21 927.17 330.04 C 927.15 337.23 922.95 343.36 920.46 349.84 C 917.73 356.64 918.29 364.69 913.54 370.64 C 909.31 376.02 905.69 381.90 903.32 388.35 C 901.12 394.34 896.71 399.04 893.26 404.30 C 886.57 414.95 879.64 425.74 870.29 434.29 C 866.11 437.78 862.24 441.65 857.82 444.84 C 853.61 447.93 850.21 451.92 846.65 455.68 C 842.74 459.85 837.31 462.21 833.59 466.57 C 830.35 470.35 826.73 473.83 822.40 476.33 C 814.44 480.91 807.19 486.59 799.40 491.44 C 793.34 495.69 785.63 492.26 778.93 493.91 C 776.05 494.86 775.75 498.34 774.52 500.68 C 772.32 507.09 765.72 510.05 760.50 513.59 C 753.31 518.53 746.00 523.37 738.00 526.92 C 733.74 528.76 729.77 531.22 726.23 534.23 C 720.51 539.09 713.39 541.81 707.45 546.35 C 697.14 552.84 688.50 561.50 678.78 568.76 C 675.34 571.31 672.54 574.56 669.44 577.48 C 667.04 579.76 663.82 580.77 660.80 581.94 C 655.18 583.97 650.12 587.18 644.89 589.99 C 640.32 592.44 636.14 595.90 630.94 596.90 C 621.35 598.64 611.90 601.16 602.19 602.16 C 597.28 602.58 591.98 604.93 590.47 610.03 C 590.71 612.33 591.74 614.45 592.51 616.62 C 596.43 616.60 600.47 616.81 604.22 615.42 C 607.53 614.57 611.14 612.62 614.50 614.39 C 617.63 615.30 618.52 619.84 616.13 621.99 C 611.22 627.20 604.75 631.03 597.70 632.47 C 590.90 633.76 586.14 639.41 579.58 641.31 C 574.19 642.90 569.11 645.29 564.17 647.94 C 557.66 651.37 549.72 650.33 543.44 654.31 C 538.69 657.22 533.93 660.56 528.22 661.11 C 522.05 661.59 515.91 662.34 509.73 662.64 C 509.71 660.92 509.71 659.21 509.71 657.50 C 507.29 656.72 504.31 656.68 502.57 654.57 C 501.20 652.98 500.05 651.23 498.80 649.57 C 503.09 648.09 507.24 646.17 511.66 645.11 C 513.96 644.44 516.40 644.02 518.45 642.72 C 521.32 640.43 522.55 636.75 525.13 634.20 C 528.67 631.22 534.58 630.66 536.27 625.80 C 536.79 622.61 536.55 619.35 536.67 616.14 C 532.53 615.13 528.22 615.26 524.11 616.31 C 518.33 617.81 512.31 617.00 506.48 618.13 C 503.59 618.66 500.78 617.65 498.00 617.06 C 506.06 616.39 513.92 614.08 521.38 611.00 C 525.70 609.26 528.67 605.52 531.24 601.81 C 534.23 598.12 535.52 593.49 537.17 589.13 C 539.59 582.48 545.18 577.59 547.56 570.93 C 549.20 566.31 550.83 561.69 552.63 557.13 C 554.94 551.38 554.09 544.73 557.38 539.34 C 559.60 535.66 561.64 531.80 562.34 527.51 C 563.78 519.38 565.42 511.29 567.13 503.22 C 568.68 495.47 572.53 488.19 572.43 480.13 C 572.19 474.78 575.37 469.63 573.71 464.33 C 571.16 453.89 569.72 443.23 567.30 432.76 C 565.62 424.34 564.64 415.43 559.75 408.10 C 554.10 399.77 553.62 389.40 551.87 379.80 C 550.52 372.92 548.85 366.08 546.35 359.52 C 544.59 355.12 546.06 350.30 545.03 345.79 C 544.09 341.66 542.30 337.77 541.37 333.64 C 540.46 330.16 540.15 326.49 538.61 323.22 C 537.20 320.34 534.09 318.98 531.38 317.63 C 521.80 313.31 511.29 311.73 501.00 310.08 C 495.47 309.14 489.77 307.59 484.22 309.30 C 475.66 311.74 466.69 311.98 458.11 314.26 C 445.72 317.42 432.92 318.60 420.54 321.76 C 412.64 323.63 409.53 332.79 401.66 334.63 C 397.33 335.95 392.82 337.27 389.34 340.33 C 384.02 344.33 380.11 349.86 374.97 354.03 C 369.61 356.14 364.07 352.80 358.66 352.60 C 353.39 353.69 350.74 358.93 348.01 363.02 C 344.93 368.11 339.62 371.41 336.83 376.71 C 333.92 382.12 333.07 388.29 331.06 394.03 C 327.99 402.98 325.42 412.16 324.61 421.63 C 324.14 428.13 321.91 434.31 320.72 440.68 C 319.96 445.16 321.86 449.52 321.66 454.01 C 322.07 459.85 319.76 465.53 320.69 471.36 C 321.83 478.33 323.50 485.19 324.92 492.11 C 325.66 495.26 326.35 498.74 328.90 500.99 C 333.55 505.22 339.05 508.35 344.30 511.78 C 347.38 513.73 348.98 517.13 350.86 520.13 C 353.06 523.94 355.73 527.56 356.94 531.85 C 358.31 536.29 358.43 541.14 360.75 545.26 C 367.31 555.38 376.53 563.28 384.75 571.98 C 386.62 574.94 388.41 577.95 390.32 580.90 C 388.72 584.34 386.71 588.03 387.61 591.96 C 392.77 596.37 400.17 594.87 406.37 596.17 C 413.53 597.24 419.51 601.62 425.03 606.01 C 428.89 609.13 433.15 611.80 436.62 615.38 C 440.38 619.29 440.33 625.19 443.29 629.58 C 445.74 633.18 449.54 635.71 451.61 639.62 C 454.22 644.00 455.64 649.42 459.98 652.52 C 456.39 650.91 452.33 651.42 448.54 650.66 C 443.26 650.24 438.57 647.50 433.42 646.56 C 427.07 645.97 420.63 647.16 414.34 645.80 C 408.37 645.50 402.48 644.60 396.59 643.65 C 388.73 643.30 380.98 640.21 373.08 641.93 C 361.90 644.37 351.01 639.53 339.88 639.41 C 333.28 639.33 327.52 635.85 321.53 633.57 C 313.82 630.91 305.88 628.97 297.99 626.92 C 292.11 625.57 288.35 620.46 283.32 617.56 C 277.22 613.52 269.81 612.63 262.86 610.90 C 261.41 608.63 259.76 606.21 256.95 605.59 C 253.06 604.45 248.28 602.75 247.57 598.15 C 249.14 594.82 252.47 592.71 255.02 590.16 C 254.52 589.70 253.51 588.77 253.00 588.30 C 256.16 586.47 258.70 583.71 260.73 580.71 C 264.64 574.90 264.93 567.55 268.57 561.60 C 272.79 554.54 276.27 547.06 279.09 539.33 C 281.02 534.20 280.21 528.68 280.40 523.35 C 280.37 518.94 282.60 515.01 283.70 510.84 C 284.77 507.85 283.36 504.75 283.41 501.70 C 282.92 497.01 284.78 492.57 285.35 487.99 C 285.29 484.14 283.95 480.46 283.07 476.75 C 280.06 467.11 281.55 456.84 282.28 447.01 C 279.89 435.00 277.14 423.05 274.82 411.03 C 273.85 402.09 271.64 393.36 269.52 384.64 C 268.88 382.36 268.32 379.99 266.99 378.00 C 264.35 374.61 260.06 372.90 257.70 369.26 C 255.84 366.16 255.63 362.45 254.81 359.01 C 253.62 352.61 249.47 347.39 245.84 342.18 C 241.96 336.93 239.32 330.88 235.26 325.75 C 229.42 318.32 223.38 310.80 215.53 305.38 C 211.64 302.71 207.80 299.91 204.56 296.46 C 198.38 290.19 194.21 282.24 187.96 276.04 C 181.01 269.81 172.56 264.93 163.28 263.31 C 158.34 262.24 153.20 262.62 148.32 261.24 C 141.56 259.82 135.73 255.72 128.93 254.47 C 124.64 253.50 119.72 253.00 116.71 249.38 C 113.34 245.40 110.56 240.85 108.74 235.96 C 109.47 230.93 113.70 227.47 117.12 224.09 C 121.98 219.61 125.51 213.85 130.76 209.77 C 134.71 206.70 137.58 202.56 140.28 198.41 C 143.98 192.50 150.15 188.89 154.80 183.84 C 157.71 180.71 160.87 177.82 164.15 175.07 C 167.78 172.06 170.58 168.22 173.94 164.93 C 180.58 158.42 187.84 152.57 195.55 147.38 C 204.59 140.41 213.59 133.37 223.11 127.06 C 228.75 123.73 234.73 120.90 239.88 116.80 C 243.90 113.58 248.50 111.28 252.93 108.72 C 257.92 105.84 262.25 101.97 267.28 99.16 C 280.47 92.05 292.56 82.82 306.59 77.33 C 313.16 75.30 318.89 71.40 325.21 68.80 C 332.26 65.97 338.53 61.63 345.10 57.88 C 352.64 53.49 361.49 52.15 369.05 47.82 C 372.99 45.58 377.24 43.80 381.78 43.26 C 390.94 41.99 400.00 40.01 408.87 37.39 C 415.60 35.45 421.41 31.03 428.38 29.85 C 435.82 29.65 443.49 29.47 450.24 25.91 C 446.91 24.99 443.46 24.30 439.99 24.71 C 445.99 23.72 452.13 23.74 458.07 22.31 C 470.53 19.38 483.26 17.78 495.74 14.89 M 684.12 48.62 C 689.77 58.26 700.86 62.98 711.16 65.90 C 718.84 67.16 723.40 74.10 729.88 77.70 C 731.23 76.80 732.59 75.90 733.96 75.00 C 731.88 72.12 729.87 68.92 726.64 67.21 C 723.69 65.66 720.22 65.91 717.14 64.85 C 713.99 63.08 711.52 60.31 708.43 58.43 C 703.91 55.63 699.56 52.53 694.94 49.90 C 691.70 47.82 687.73 48.57 684.12 48.62 Z"/><g fill="#fcfcfd"><path d="M 82.73 263.61 C 84.79 263.63 86.84 263.64 88.90 263.66 C 87.55 266.75 85.17 269.04 81.86 269.89 C 82.72 267.90 82.64 265.72 82.73 263.61 Z"/><path d="M 130.02 268.27 C 132.68 268.90 134.66 270.78 136.64 272.53 C 139.45 272.94 142.31 272.69 145.15 272.79 C 145.94 273.90 146.83 274.94 147.62 276.07 C 146.84 277.03 145.96 277.92 145.03 278.75 C 143.60 277.49 142.26 276.12 140.65 275.11 C 138.83 275.22 137.00 275.43 135.19 275.21 C 133.15 273.15 131.77 270.56 130.02 268.27 Z"/><path d="M 178.60 286.38 C 180.83 289.26 182.90 292.27 185.16 295.13 C 186.39 296.70 188.39 296.58 190.17 296.84 C 190.32 299.97 191.53 303.09 194.03 305.09 C 198.17 308.54 203.74 310.66 206.25 315.76 C 207.83 319.37 211.43 321.18 214.32 323.57 C 209.17 319.73 202.97 317.72 197.98 313.64 C 191.83 309.81 189.13 302.76 185.23 297.00 C 183.70 295.16 180.76 294.67 179.85 292.32 C 179.61 290.30 179.39 288.27 178.60 286.38 Z"/><path d="M 214.98 325.35 C 218.56 329.06 224.19 331.67 225.31 337.14 C 225.65 341.18 229.63 343.23 231.76 346.30 C 224.70 340.61 220.57 332.32 214.98 325.35 Z"/><path d="M 126.60 336.52 C 128.08 336.64 129.56 336.73 131.04 336.82 C 132.18 340.40 134.61 343.32 137.33 345.83 C 133.03 343.58 130.15 339.66 126.60 336.52 Z"/><path d="M 417.44 345.49 C 417.19 341.08 421.14 336.78 425.70 337.51 C 424.35 340.08 423.43 342.97 421.39 345.11 C 420.09 345.40 418.75 345.37 417.44 345.49 Z"/><path d="M 75.76 343.81 C 80.25 343.17 84.68 342.21 89.01 340.85 C 92.68 341.99 96.18 343.61 99.89 344.62 C 103.67 345.82 107.77 345.87 111.40 347.57 C 115.36 349.43 118.85 352.11 122.81 353.97 C 125.35 355.28 128.22 356.30 130.05 358.62 C 133.56 363.05 137.71 367.00 140.56 371.93 C 143.17 376.48 148.15 378.69 151.92 382.08 C 153.28 383.31 153.50 385.21 153.88 386.90 C 155.21 393.61 156.56 400.34 157.45 407.12 C 157.43 413.09 157.13 419.06 157.33 425.03 C 157.48 430.53 154.07 435.14 152.23 440.08 C 150.65 444.01 150.18 448.74 146.51 451.43 C 142.87 454.21 140.96 458.44 138.08 461.85 C 134.46 464.26 130.43 466.14 127.45 469.40 C 124.12 473.02 118.95 473.43 114.34 473.60 C 107.97 475.53 103.37 481.35 96.55 482.08 C 87.92 482.77 79.80 486.62 71.08 486.59 C 65.60 488.24 59.94 489.24 54.23 489.64 C 48.17 491.44 42.02 493.22 35.67 493.51 C 32.70 493.72 30.02 496.09 26.95 495.25 C 25.44 494.48 23.80 493.45 23.39 491.69 C 22.12 487.66 21.15 483.50 20.61 479.33 C 20.63 469.52 20.88 459.70 20.45 449.90 C 19.69 446.56 18.97 443.03 20.16 439.69 C 22.98 430.02 23.81 419.97 24.98 410.03 C 25.65 404.43 28.66 399.63 31.55 394.94 C 35.87 387.30 35.77 378.19 39.02 370.17 C 40.41 368.10 42.97 367.31 44.94 365.92 C 47.47 370.44 47.49 375.52 47.43 380.56 C 50.71 380.78 54.00 380.65 57.29 380.67 C 59.59 373.43 62.13 366.28 64.36 359.03 C 65.57 355.29 68.44 352.46 70.58 349.26 C 72.10 347.29 73.36 344.83 75.76 343.81 Z"/><path d="M 43.26 343.39 C 45.98 345.37 49.24 345.94 52.53 345.65 C 51.20 346.72 49.99 347.93 48.92 349.26 C 48.30 349.29 47.67 349.33 47.05 349.37 C 46.18 347.15 44.82 345.18 43.26 343.39 Z"/><path d="M 236.80 353.28 C 237.68 356.00 239.27 358.45 241.35 360.41 C 239.50 360.29 237.63 360.28 235.78 360.36 C 237.10 358.23 236.66 355.65 236.80 353.28 Z"/><path d="M 408.95 362.54 C 416.89 362.28 424.64 356.37 432.57 359.61 C 437.90 361.40 443.57 363.17 447.57 367.34 C 451.21 370.83 453.04 375.63 455.36 380.00 C 457.44 384.02 462.15 385.43 464.89 388.87 C 467.92 392.55 468.30 397.50 468.78 402.03 C 471.20 409.04 471.80 416.49 472.85 423.77 C 475.45 430.92 474.28 438.58 474.33 446.00 C 474.74 454.74 472.86 463.51 469.65 471.61 C 467.69 478.37 459.08 478.12 454.62 482.51 C 450.77 486.81 444.63 487.34 440.38 491.06 C 434.75 496.08 426.75 495.94 419.71 496.88 C 409.70 499.49 399.50 501.15 389.30 502.82 C 382.87 504.23 376.29 506.40 369.66 505.22 C 366.17 503.73 361.28 502.97 360.06 498.77 C 358.29 493.81 357.94 488.49 357.13 483.33 C 354.94 476.77 353.95 469.92 353.17 463.08 C 350.35 455.29 352.23 446.97 351.65 438.90 C 351.15 434.48 353.25 430.39 353.57 426.05 C 354.29 419.71 356.64 413.72 358.27 407.58 C 358.93 404.44 358.33 401.18 358.85 398.02 C 359.77 395.05 361.64 392.53 363.35 389.98 C 366.70 392.51 371.14 391.66 375.04 391.45 C 377.53 388.82 379.43 385.61 380.35 382.10 C 381.21 379.01 381.47 375.40 384.18 373.25 C 387.69 370.31 391.28 367.41 395.22 365.07 C 399.53 363.20 404.26 362.38 408.95 362.54 Z"/><path d="M 545.72 423.68 C 546.46 420.49 543.65 417.60 545.08 414.53 C 546.07 417.29 547.26 420.10 549.55 422.05 C 548.14 422.27 546.77 422.66 545.72 423.68 Z"/><path d="M 335.58 440.55 C 336.47 440.56 337.37 440.57 338.26 440.59 C 338.62 443.69 339.60 446.69 339.54 449.84 C 338.24 449.06 336.92 448.32 335.60 447.58 C 335.60 445.23 335.61 442.89 335.58 440.55 Z"/><path d="M 263.42 452.64 C 264.83 451.50 266.14 450.25 267.32 448.88 C 267.34 451.21 267.09 453.65 268.10 455.83 C 266.57 454.72 264.96 453.72 263.42 452.64 Z"/><path d="M 157.58 462.55 C 159.03 461.14 160.52 458.96 162.85 459.59 C 167.51 461.64 171.88 464.37 176.78 465.90 C 179.33 467.02 182.81 467.75 183.77 470.74 C 186.07 476.19 186.90 482.06 186.40 487.94 C 183.74 488.90 181.19 490.52 178.27 490.43 C 171.60 490.20 165.70 494.46 159.03 494.43 C 155.67 494.37 152.31 494.66 148.96 494.46 C 146.53 493.28 142.83 491.43 143.60 488.17 C 145.46 483.83 148.71 480.24 150.42 475.82 C 152.30 471.16 154.08 466.29 157.58 462.55 Z"/><path d="M 335.81 461.38 C 340.07 467.44 342.37 474.70 342.46 482.11 C 342.35 484.41 343.41 486.50 344.20 488.61 C 342.71 489.79 341.26 491.01 339.96 492.40 C 339.16 488.31 336.19 484.79 336.57 480.47 C 336.76 476.54 335.45 472.79 334.71 468.99 C 335.24 466.47 335.70 463.95 335.81 461.38 Z"/><path d="M 482.54 476.08 C 483.64 474.34 485.82 473.93 487.61 473.24 C 485.97 475.45 484.33 477.67 482.74 479.91 C 482.63 478.63 482.53 477.36 482.54 476.08 Z"/><path d="M 269.01 495.44 C 267.14 492.38 266.99 488.65 266.67 485.17 C 267.13 487.93 267.94 490.58 269.77 492.77 C 270.66 493.65 269.23 494.54 269.01 495.44 Z"/><path d="M 265.71 507.48 C 266.60 508.36 267.74 509.06 268.52 510.05 C 267.45 514.58 266.78 519.29 265.00 523.65 C 264.60 521.45 264.15 519.13 264.96 516.98 C 266.01 513.92 265.68 510.65 265.71 507.48 Z"/><path d="M 463.96 514.30 C 464.67 513.00 465.56 511.82 466.48 510.67 C 467.81 511.38 469.05 512.25 470.22 513.22 C 468.73 514.65 467.17 516.03 465.89 517.66 C 465.26 516.52 464.53 515.45 463.96 514.30 Z"/><path d="M 427.20 525.27 C 428.19 522.25 429.23 519.19 431.35 516.75 C 433.93 518.89 436.86 520.55 439.78 522.20 C 442.64 523.81 444.74 526.42 447.34 528.40 C 452.03 528.92 456.85 527.86 461.45 529.23 C 466.22 529.89 471.08 530.34 475.68 531.89 C 480.70 533.49 485.01 536.63 489.49 539.31 C 489.99 543.71 488.81 549.05 484.21 550.79 C 478.43 553.10 472.49 555.86 466.13 555.56 C 462.75 555.97 459.59 557.62 456.13 557.50 C 452.50 557.42 449.19 560.39 445.54 559.14 C 439.76 557.28 433.98 555.44 428.35 553.18 C 425.82 552.25 423.04 550.20 423.58 547.16 C 423.81 543.32 422.72 539.65 421.72 536.00 C 422.81 532.09 425.92 529.12 427.20 525.27 Z"/><path d="M 535.43 557.36 C 536.03 552.62 538.93 548.54 539.22 543.72 C 539.81 548.30 537.95 552.70 538.25 557.30 C 537.30 557.31 536.37 557.32 535.43 557.36 Z"/><path d="M 252.36 557.55 C 253.80 557.35 255.22 557.09 256.50 556.37 C 253.64 558.28 252.86 561.64 252.22 564.80 C 251.82 567.26 249.23 568.12 247.52 569.50 C 248.50 575.33 245.63 581.54 240.32 584.23 C 239.01 584.93 237.48 584.30 236.09 584.39 C 232.38 585.63 230.18 589.01 227.86 591.92 C 224.72 594.10 220.56 595.31 218.94 599.14 C 218.31 598.70 217.65 598.31 217.04 597.87 C 219.79 595.71 220.90 592.33 222.79 589.53 C 224.71 587.18 227.76 586.20 229.93 584.12 C 234.11 579.86 240.38 578.58 244.44 574.11 C 244.02 567.81 247.37 561.43 252.36 557.55 Z"/><path d="M 493.15 562.10 C 495.79 560.55 498.32 558.82 500.60 556.77 C 499.05 558.35 497.94 560.23 498.21 562.51 C 496.52 562.34 494.83 562.22 493.15 562.10 Z"/><path d="M 415.71 563.42 C 417.96 563.48 419.83 565.14 421.80 566.07 C 425.66 568.61 429.92 570.42 433.93 572.67 C 435.47 574.31 435.67 576.93 437.44 578.44 C 439.94 579.70 443.47 579.59 445.04 582.28 C 445.72 583.24 446.38 584.24 446.96 585.29 C 446.18 585.67 445.38 586.05 444.58 586.38 C 443.12 584.61 441.81 582.73 440.20 581.10 C 437.54 581.23 434.88 581.43 432.23 581.23 C 429.07 580.26 426.28 578.39 423.19 577.26 C 419.16 575.75 415.00 574.33 411.56 571.68 C 409.67 570.14 408.05 568.30 406.10 566.84 C 409.78 567.29 412.50 564.61 415.71 563.42 Z"/><path d="M 453.44 587.69 C 454.70 587.12 455.92 586.46 457.11 585.75 C 458.65 587.38 460.43 588.76 462.18 590.16 C 461.23 590.84 460.27 591.53 459.23 592.08 C 457.30 590.61 455.49 588.99 453.44 587.69 Z"/><path d="M 474.21 594.03 C 475.16 593.43 476.10 592.81 477.03 592.16 C 478.71 594.09 480.54 595.91 482.69 597.32 C 480.95 597.36 479.21 597.42 477.48 597.33 C 476.27 596.35 475.29 595.13 474.21 594.03 Z"/></g><g fill="#398db9"><path d="M 384.75 571.98 C 387.88 574.23 390.97 576.57 394.30 578.54 C 399.06 581.33 404.91 579.73 409.93 581.76 C 417.87 584.70 425.10 589.20 432.63 593.02 C 440.97 597.25 449.97 599.89 458.58 603.49 C 463.33 605.53 468.55 605.77 473.59 606.68 C 479.74 607.79 485.07 612.61 491.62 611.46 C 497.95 610.36 504.31 609.38 510.69 608.51 C 517.89 607.51 524.57 604.55 531.24 601.81 C 528.67 605.52 525.70 609.26 521.38 611.00 C 513.92 614.08 506.06 616.39 498.00 617.06 C 500.78 617.65 503.59 618.66 506.48 618.13 C 512.31 617.00 518.33 617.81 524.11 616.31 C 528.22 615.26 532.53 615.13 536.67 616.14 C 536.55 619.35 536.79 622.61 536.27 625.80 C 534.58 630.66 528.67 631.22 525.13 634.20 C 522.55 636.75 521.32 640.43 518.45 642.72 C 516.40 644.02 513.96 644.44 511.66 645.11 C 507.24 646.17 503.09 648.09 498.80 649.57 C 500.05 651.23 501.20 652.98 502.57 654.57 C 504.31 656.68 507.29 656.72 509.71 657.50 C 509.71 659.21 509.71 660.92 509.73 662.64 C 507.99 663.24 506.29 663.93 504.58 664.59 C 504.59 666.77 504.58 668.96 504.57 671.16 C 500.29 672.40 495.81 672.64 491.38 672.34 C 491.53 676.61 492.00 680.87 492.59 685.11 C 493.60 691.65 492.90 698.31 494.05 704.84 C 495.55 713.96 496.43 723.17 498.10 732.26 C 499.12 740.72 499.10 749.29 500.25 757.73 C 501.05 763.90 503.47 769.80 503.64 776.06 C 503.79 778.84 502.18 781.26 501.02 783.67 C 494.71 778.07 491.82 769.90 490.25 761.84 C 487.26 751.12 488.87 739.96 488.65 729.02 C 488.63 722.44 486.60 716.12 485.27 709.74 C 483.00 699.70 481.56 689.49 479.25 679.47 C 478.06 674.05 474.57 669.61 472.29 664.66 C 470.31 658.85 465.19 655.23 459.98 652.52 C 455.64 649.42 454.22 644.00 451.61 639.62 C 449.54 635.71 445.74 633.18 443.29 629.58 C 440.33 625.19 440.38 619.29 436.62 615.38 C 433.15 611.80 428.89 609.13 425.03 606.01 C 419.51 601.62 413.53 597.24 406.37 596.17 C 400.17 594.87 392.77 596.37 387.61 591.96 C 386.71 588.03 388.72 584.34 390.32 580.90 C 388.41 577.95 386.62 574.94 384.75 571.98 Z"/><path d="M 52.11 582.01 C 57.10 579.96 62.47 578.20 67.93 578.57 C 75.85 579.72 80.98 586.81 88.44 589.12 C 104.98 594.00 119.51 604.54 136.69 607.41 C 146.56 608.23 156.46 607.10 166.28 606.21 C 172.80 604.69 179.28 602.96 185.90 601.87 C 191.95 600.90 198.33 598.15 204.35 600.71 C 209.49 602.44 212.81 607.09 217.52 609.52 C 221.60 610.46 224.51 606.58 227.45 604.44 C 230.25 601.70 233.93 600.29 237.64 599.30 C 240.98 598.44 242.83 595.31 245.18 593.08 C 247.33 590.83 250.31 589.72 253.00 588.30 C 253.51 588.77 254.52 589.70 255.02 590.16 C 252.47 592.71 249.14 594.82 247.57 598.15 C 248.28 602.75 253.06 604.45 256.95 605.59 C 259.76 606.21 261.41 608.63 262.86 610.90 C 261.67 612.33 260.22 613.65 259.53 615.42 C 259.08 618.46 260.12 621.45 260.68 624.41 C 253.00 620.38 244.46 618.42 235.86 617.61 C 233.87 617.43 232.10 618.53 230.47 619.51 C 222.65 624.52 214.89 630.30 205.58 632.13 C 199.43 633.38 193.33 634.90 187.46 637.14 C 189.37 637.33 191.28 637.51 193.20 637.70 C 182.35 638.90 171.80 641.77 161.02 643.42 C 160.42 648.10 160.68 652.83 160.10 657.51 C 159.82 661.11 156.19 662.77 154.07 665.22 C 151.62 667.45 151.39 670.93 151.05 674.01 C 149.59 691.42 148.09 708.82 145.92 726.16 C 145.30 732.10 146.63 738.02 146.49 743.97 C 146.41 751.98 146.67 759.99 146.73 768.01 C 146.85 776.32 144.95 784.94 147.87 793.00 C 149.27 797.29 152.55 800.57 154.42 804.63 C 148.64 808.61 139.83 806.80 135.02 802.03 C 133.74 796.80 134.69 791.32 134.45 785.99 C 134.09 778.16 136.26 770.43 135.38 762.60 C 134.79 757.41 134.29 752.16 134.93 746.95 C 136.00 738.61 134.56 730.17 135.89 721.85 C 136.89 716.55 135.26 711.21 136.08 705.92 C 137.57 695.63 139.80 685.44 141.12 675.12 C 142.24 667.56 139.74 660.17 139.26 652.67 C 132.61 650.68 125.87 649.07 119.12 647.48 C 110.44 645.40 102.95 640.28 94.52 637.53 C 90.88 636.29 87.16 635.16 83.83 633.20 C 75.63 627.39 65.49 625.34 57.27 619.58 C 55.29 618.29 54.12 616.17 53.24 614.05 C 58.31 615.07 63.37 616.23 68.54 616.70 C 64.70 613.40 60.50 610.24 58.29 605.53 C 56.00 600.70 51.93 597.08 49.29 592.49 C 47.70 589.04 47.92 583.48 52.11 582.01 Z"/></g></svg>