<svg xmlns="http://www.w3.org/2000/svg" width="464" height="464" viewBox="0 0 348 348"><g fill="#f9d02d"><path d="M 176.46 35.60 C 192.91 33.05 208.08 40.37 223.85 43.30 C 239.53 47.31 253.17 57.32 262.66 70.32 C 276.30 88.44 289.16 107.65 296.35 129.33 C 299.09 142.05 297.03 155.18 296.16 168.02 C 293.14 163.69 290.60 158.86 286.48 155.47 C 281.72 150.65 274.35 151.15 268.24 149.54 C 267.14 136.72 266.73 122.55 257.55 112.48 C 249.54 103.78 239.37 96.92 228.29 92.83 C 220.75 92.01 212.13 90.16 205.16 94.20 C 197.28 98.97 189.07 104.28 184.67 112.70 C 177.88 125.04 174.84 139.57 176.58 153.59 C 180.38 167.54 187.55 182.14 200.99 189.00 C 207.74 193.16 215.90 193.41 223.54 194.42 C 227.44 202.15 233.45 209.49 242.08 211.95 C 256.35 214.95 271.42 212.56 283.92 205.10 C 279.58 213.01 276.03 221.40 270.80 228.80 C 262.86 239.60 252.14 248.29 240.12 254.13 C 228.70 257.52 216.94 259.63 205.36 262.38 C 182.54 267.97 158.83 272.69 135.33 268.60 C 108.55 263.59 82.47 251.37 63.66 231.33 C 54.32 222.04 49.41 209.32 45.89 196.89 C 50.29 204.29 55.45 212.21 64.08 215.02 C 74.98 218.89 87.14 218.92 98.35 216.37 C 109.45 212.51 116.30 201.53 121.54 191.61 C 131.23 191.16 142.49 191.26 150.08 184.11 C 157.10 178.54 160.59 169.98 164.21 162.06 C 167.27 155.52 167.06 148.04 167.01 140.99 C 167.70 113.79 142.08 89.31 114.98 91.09 C 102.48 91.99 90.06 98.96 84.83 110.70 C 80.39 123.45 77.98 137.34 81.04 150.70 C 74.11 151.76 66.79 152.79 60.88 156.89 C 52.18 162.05 46.96 171.17 43.22 180.29 C 43.99 162.92 44.25 145.14 50.54 128.67 C 59.39 103.82 73.62 80.85 91.55 61.55 C 96.72 56.35 102.30 51.28 109.06 48.26 C 112.51 47.06 116.18 48.43 119.65 47.50 C 126.86 45.31 133.92 42.71 140.94 40.02 C 152.62 37.56 164.63 37.07 176.46 35.60 M 147.85 202.86 C 149.36 204.60 150.21 207.92 152.99 207.85 C 165.18 207.61 177.41 207.38 189.58 206.44 C 193.36 205.69 192.31 200.60 188.91 200.18 C 175.21 199.24 161.27 199.80 147.85 202.86 Z"/><path d="M 197.35 163.66 C 198.48 162.63 200.36 164.52 199.34 165.65 C 198.19 166.73 196.26 164.81 197.35 163.66 Z"/></g><path d="M 174.45 28.60 C 190.13 25.50 205.01 31.39 219.92 34.98 C 231.72 37.00 242.90 42.30 252.17 49.83 C 266.70 62.61 277.62 78.82 288.05 94.96 C 294.79 106.84 301.86 119.07 304.38 132.65 C 305.07 146.15 304.63 159.82 302.31 173.17 C 301.06 180.48 297.18 186.96 295.08 194.02 C 291.45 207.39 284.93 219.83 277.42 231.39 C 268.59 243.54 256.78 253.37 243.59 260.51 C 238.09 262.89 232.04 263.56 226.30 265.17 C 201.40 270.23 176.71 278.32 150.98 277.03 C 129.57 276.99 108.60 270.36 89.96 260.07 C 77.27 253.80 66.97 243.83 57.17 233.83 C 47.87 225.06 43.24 212.71 39.14 200.92 C 33.65 183.78 36.82 165.53 38.23 148.03 C 42.67 119.86 57.03 94.40 73.87 71.85 C 82.53 61.30 91.54 50.55 103.30 43.33 C 113.59 36.91 126.05 36.92 137.33 33.29 C 149.54 30.73 162.08 30.13 174.45 28.60 M 176.46 35.60 C 164.63 37.07 152.62 37.56 140.94 40.02 C 133.92 42.71 126.86 45.31 119.65 47.50 C 116.18 48.43 112.51 47.06 109.06 48.26 C 102.30 51.28 96.72 56.35 91.55 61.55 C 73.62 80.85 59.39 103.82 50.54 128.67 C 44.25 145.14 43.99 162.92 43.22 180.29 C 42.61 185.84 43.62 191.76 45.89 196.89 C 49.41 209.32 54.32 222.04 63.66 231.33 C 82.47 251.37 108.55 263.59 135.33 268.60 C 158.83 272.69 182.54 267.97 205.36 262.38 C 216.94 259.63 228.70 257.52 240.12 254.13 C 252.14 248.29 262.86 239.60 270.80 228.80 C 276.03 221.40 279.58 213.01 283.92 205.10 C 286.22 198.05 287.94 190.79 290.98 184.00 C 293.30 178.88 294.96 173.50 296.16 168.02 C 297.03 155.18 299.09 142.05 296.35 129.33 C 289.16 107.65 276.30 88.44 262.66 70.32 C 253.17 57.32 239.53 47.31 223.85 43.30 C 208.08 40.37 192.91 33.05 176.46 35.60 Z"/><path d="M 84.83 110.70 C 90.06 98.96 102.48 91.99 114.98 91.09 C 142.08 89.31 167.70 113.79 167.01 140.99 C 167.06 148.04 167.27 155.52 164.21 162.06 C 160.59 169.98 157.10 178.54 150.08 184.11 C 142.49 191.26 131.23 191.16 121.54 191.61 C 114.16 191.18 105.91 190.19 100.63 184.41 C 90.45 175.82 83.77 163.65 81.04 150.70 C 77.98 137.34 80.39 123.45 84.83 110.70 M 94.51 108.58 C 87.37 117.35 88.68 129.50 88.13 140.04 C 87.06 156.26 95.30 173.04 108.70 182.24 C 118.39 186.02 129.32 183.29 139.40 182.85 C 128.91 180.38 118.04 177.64 109.73 170.29 C 103.75 164.79 97.37 158.64 95.61 150.38 C 94.57 141.95 94.64 133.43 95.05 124.96 C 95.24 115.92 100.00 107.95 105.00 100.73 C 100.97 102.50 96.85 104.65 94.51 108.58 Z"/><path d="M 205.16 94.20 C 212.13 90.16 220.75 92.01 228.29 92.83 C 239.37 96.92 249.54 103.78 257.55 112.48 C 266.73 122.55 267.14 136.72 268.24 149.54 C 268.72 161.17 261.51 170.64 255.88 180.10 C 261.38 175.37 267.03 170.51 274.42 169.09 C 275.22 170.18 276.02 171.27 276.84 172.36 C 276.90 173.03 277.02 174.37 277.09 175.04 C 270.21 179.39 263.70 184.79 255.70 186.95 C 245.04 189.73 234.68 193.93 223.54 194.42 C 215.90 193.41 207.74 193.16 200.99 189.00 C 187.55 182.14 180.38 167.54 176.58 153.59 C 174.84 139.57 177.88 125.04 184.67 112.70 C 189.07 104.28 197.28 98.97 205.16 94.20 M 183.20 146.97 C 183.25 154.36 187.65 160.52 190.17 167.18 C 192.22 171.41 193.88 176.30 198.08 178.89 C 208.40 187.33 222.68 188.07 235.30 186.26 C 240.60 184.33 245.28 181.05 249.61 177.48 C 235.02 177.25 219.00 177.63 206.78 168.22 C 198.01 159.76 192.09 148.50 189.51 136.63 C 188.69 130.67 189.58 124.64 189.60 118.65 C 186.04 127.64 182.52 137.12 183.20 146.97 Z"/><path d="M 64.31 161.18 C 66.95 160.44 68.35 163.63 69.94 165.05 C 75.51 172.11 82.72 177.64 88.82 184.22 C 89.96 185.47 91.03 186.96 90.98 188.75 C 89.76 190.30 87.40 191.91 85.51 190.52 C 79.75 185.61 74.88 179.79 69.30 174.69 C 66.23 171.50 62.01 168.14 62.08 163.27 C 62.72 162.46 63.46 161.76 64.31 161.18 Z"/><path d="M 57.27 176.68 C 56.13 174.25 58.52 169.45 61.39 171.63 C 67.13 177.17 72.53 183.10 78.84 188.04 C 77.18 189.66 75.28 193.27 72.57 191.39 C 67.21 186.98 59.67 183.66 57.27 176.68 Z"/><path d="M 256.01 193.58 C 263.00 188.24 270.18 182.95 278.20 179.30 C 281.36 177.81 283.89 181.85 282.79 184.62 C 279.11 187.94 274.29 189.60 270.19 192.30 C 266.66 194.15 263.48 196.96 259.50 197.81 C 258.18 196.53 257.11 195.04 256.01 193.58 Z"/><path d="M 53.24 179.82 C 58.42 183.07 62.80 187.56 68.28 190.43 C 67.47 192.30 66.60 194.15 65.72 195.99 C 60.42 193.71 53.58 191.52 51.30 185.67 C 50.30 183.46 51.73 181.33 53.24 179.82 Z"/><path d="M 263.97 200.50 C 268.79 197.31 272.97 192.59 278.62 190.91 C 280.06 192.70 281.02 194.80 282.09 196.83 C 277.27 199.57 272.64 202.75 267.52 204.90 C 266.18 203.55 265.08 202.01 263.97 200.50 Z"/><path d="M 147.85 202.86 C 161.27 199.80 175.21 199.24 188.91 200.18 C 192.31 200.60 193.36 205.69 189.58 206.44 C 177.41 207.38 165.18 207.61 152.99 207.85 C 150.21 207.92 149.36 204.60 147.85 202.86 Z"/><g fill="#fff"><path d="M 94.51 108.58 C 96.85 104.65 100.97 102.50 105.00 100.73 C 100.00 107.95 95.24 115.92 95.05 124.96 C 94.64 133.43 94.57 141.95 95.61 150.38 C 97.37 158.64 103.75 164.79 109.73 170.29 C 118.04 177.64 128.91 180.38 139.40 182.85 C 129.32 183.29 118.39 186.02 108.70 182.24 C 95.30 173.04 87.06 156.26 88.13 140.04 C 88.68 129.50 87.37 117.35 94.51 108.58 Z"/><path d="M 183.20 146.97 C 182.52 137.12 186.04 127.64 189.60 118.65 C 189.58 124.64 188.69 130.67 189.51 136.63 C 192.09 148.50 198.01 159.76 206.78 168.22 C 219.00 177.63 235.02 177.25 249.61 177.48 C 245.28 181.05 240.60 184.33 235.30 186.26 C 222.68 188.07 208.40 187.33 198.08 178.89 C 193.88 176.30 192.22 171.41 190.17 167.18 C 187.65 160.52 183.25 154.36 183.20 146.97 M 197.35 163.66 C 196.26 164.81 198.19 166.73 199.34 165.65 C 200.36 164.52 198.48 162.63 197.35 163.66 Z"/></g><g fill="#f9832d"><path d="M 268.24 149.54 C 274.35 151.15 281.72 150.65 286.48 155.47 C 290.60 158.86 293.14 163.69 296.16 168.02 C 294.96 173.50 293.30 178.88 290.98 184.00 C 287.94 190.79 286.22 198.05 283.92 205.10 C 271.42 212.56 256.35 214.95 242.08 211.95 C 233.45 209.49 227.44 202.15 223.54 194.42 C 234.68 193.93 245.04 189.73 255.70 186.95 C 263.70 184.79 270.21 179.39 277.09 175.04 C 277.02 174.37 276.90 173.03 276.84 172.36 C 276.02 171.27 275.22 170.18 274.42 169.09 C 267.03 170.51 261.38 175.37 255.88 180.10 C 261.51 170.64 268.72 161.17 268.24 149.54 M 256.01 193.58 C 257.11 195.04 258.18 196.53 259.50 197.81 C 263.48 196.96 266.66 194.15 270.19 192.30 C 274.29 189.60 279.11 187.94 282.79 184.62 C 283.89 181.85 281.36 177.81 278.20 179.30 C 270.18 182.95 263.00 188.24 256.01 193.58 M 263.97 200.50 C 265.08 202.01 266.18 203.55 267.52 204.90 C 272.64 202.75 277.27 199.57 282.09 196.83 C 281.02 194.80 280.06 192.70 278.62 190.91 C 272.97 192.59 268.79 197.31 263.97 200.50 Z"/><path d="M 60.88 156.89 C 66.79 152.79 74.11 151.76 81.04 150.70 C 83.77 163.65 90.45 175.82 100.63 184.41 C 105.91 190.19 114.16 191.18 121.54 191.61 C 116.30 201.53 109.45 212.51 98.35 216.37 C 87.14 218.92 74.98 218.89 64.08 215.02 C 55.45 212.21 50.29 204.29 45.89 196.89 C 43.62 191.76 42.61 185.84 43.22 180.29 C 46.96 171.17 52.18 162.05 60.88 156.89 M 64.31 161.18 C 63.46 161.76 62.72 162.46 62.08 163.27 C 62.01 168.14 66.23 171.50 69.30 174.69 C 74.88 179.79 79.75 185.61 85.51 190.52 C 87.40 191.91 89.76 190.30 90.98 188.75 C 91.03 186.96 89.96 185.47 88.82 184.22 C 82.72 177.64 75.51 172.11 69.94 165.05 C 68.35 163.63 66.95 160.44 64.31 161.18 M 57.27 176.68 C 59.67 183.66 67.21 186.98 72.57 191.39 C 75.28 193.27 77.18 189.66 78.84 188.04 C 72.53 183.10 67.13 177.17 61.39 171.63 C 58.52 169.45 56.13 174.25 57.27 176.68 M 53.24 179.82 C 51.73 181.33 50.30 183.46 51.30 185.67 C 53.58 191.52 60.42 193.71 65.72 195.99 C 66.60 194.15 67.47 192.30 68.28 190.43 C 62.80 187.56 58.42 183.07 53.24 179.82 Z"/></g></svg>