<?xml version="1.0" encoding="UTF-8" standalone="no"?>
<!DOCTYPE svg PUBLIC "-//W3C//DTD SVG 1.1//EN" "http://www.w3.org/Graphics/SVG/1.1/DTD/svg11.dtd">
<svg width="100%" height="100%" viewBox="0 0 891 765" version="1.1" xmlns="http://www.w3.org/2000/svg" xmlns:xlink="http://www.w3.org/1999/xlink" xml:space="preserve" xmlns:serif="http://www.serif.com/" style="fill-rule:evenodd;clip-rule:evenodd;">
    <g transform="matrix(1,0,0,1,-0.00773457,-0.00746025)">
        <g transform="matrix(1,0,0,1,-6.78302,-294.527)">
            <clipPath id="_clip1">
                <rect x="8.816" y="294.855" width="890.184" height="763.84"/>
            </clipPath>
            <g clip-path="url(#_clip1)">
                <g>
                    <path d="M7.47,435.42C13.8,433.87 19.71,431.09 25.66,428.49C33.59,424.9 41.76,421.88 50.05,419.26C65.73,414.49 81.42,409.41 97.69,407.13C103.74,405.7 109.77,404.04 116.01,403.67C128.69,402.53 141.22,399.7 154,399.58C162.61,399.41 171.23,399.73 179.85,399.74C175.95,391.91 169.36,385.85 163.2,379.8C155.44,372.84 147.73,365.7 138.88,360.13C130.19,354.7 121.71,348.57 111.72,345.74C123.3,343.28 135.11,341.09 147,341.61C156.76,341.61 166.62,340.96 176.26,342.94C185.44,344.15 194.73,344.65 203.76,346.86C210.42,348.06 217.18,348.82 223.64,350.94C230.25,352.59 236.97,353.8 243.46,355.9C250.73,358.35 258.37,359.59 265.51,362.46C273.17,365.5 281.14,367.79 288.58,371.39C294.67,374.36 301.08,376.7 306.96,380.11C313.05,383.47 318.98,387.15 325.38,389.93C326.22,380.58 325.32,371.22 323.67,362.01C323.16,351.6 319.27,341.88 316.88,331.84C313.81,323.89 311.88,315.52 308.19,307.82C306.2,303.41 303.57,299.3 301.97,294.72C306.02,296.56 309.47,299.38 313.1,301.89C322.02,307.83 330.38,314.56 339.02,320.9C346.75,326.6 351.95,334.8 357.69,342.33C367.58,354.58 376.01,367.97 382.88,382.13C390.52,395.87 394.6,411.2 397.77,426.49C408.47,421.03 417.43,412.95 427.32,406.26C432.61,402.66 436.74,397.67 441.93,393.96C447.74,389.85 452.92,384.93 458.4,380.41C462.29,377.24 464.99,372.58 469.82,370.66C463.31,388.77 452.92,405.17 441.93,420.87C437.3,427.7 431.41,433.63 427.34,440.86C429.44,445.65 432.12,450.59 431.51,456.02C431.32,462.95 427.22,468.84 423.02,474.02C419.69,478.18 414.84,480.6 410.65,483.75C412.78,485.62 415,487.75 418,487.99C422.86,488.68 427.85,489.41 432.13,492C447.08,501.02 457.83,516.31 462.33,533.08C464.74,547.46 464.78,563.32 457.32,576.32C454.97,580.46 452.08,584.28 449.74,588.45C457.96,587.87 465.95,585.72 473.95,583.86C483.57,581.59 492.28,576.81 501.49,573.39C507.59,571.09 513.03,567.38 519.03,564.84C525.45,562.1 529.98,556.31 536.63,553.99C537.24,559.29 534.79,564.17 532.93,568.97C529.08,578.5 523.21,587 517.47,595.46C511.99,603.19 506.43,610.98 499.53,617.53C494.72,622.08 490.55,627.28 485.3,631.36C471.35,643.72 456.47,655.24 439.91,663.92C423.95,673.73 405.79,679.75 387.34,682.64C372.45,685.92 357.09,684.87 342,686.28C336.97,686.56 331.94,685.02 326.94,685.98C326.06,689.25 326.68,692.66 327.09,695.95C328.09,702.64 328.27,709.43 329.63,716.07C337.23,710.11 346.15,705.17 355.97,704.55C361.33,704.29 366.72,704.26 372.07,704.74C379.19,705.4 385.13,709.75 391.82,711.86C399.39,714.18 406.58,717.5 414.05,720.12C425.32,725.2 437.18,728.78 448.56,733.58C459.95,738.38 471.96,741.57 483.25,746.63C511.22,757.55 539.56,767.52 567.51,778.53C574.03,780.61 580.21,783.87 586.98,785.09C591.71,783.48 595.28,779.64 599.93,777.81C609.61,773.7 620.17,768.16 629.02,765.61C636.774,763.376 644.962,762.683 653.03,762.51C666.025,762.232 690.408,761.128 702.7,761.48C709.298,761.669 720.392,763.878 726.78,764.62C733.044,765.347 739.35,766.357 745.32,768.39C754.712,771.588 771.58,776.42 783.13,783.81C795.01,790.46 806.217,801.98 813.82,810.21C820.019,816.92 824.78,824.93 828.75,833.19C830.6,837.01 831.35,841.25 832.95,845.18C833.63,847.59 836.41,847.88 838.37,848.79C845.63,851.32 852.56,855.84 856.29,862.75C862.56,872.99 861.55,885.49 861.68,897C863.466,902.7 855.505,947.61 851.9,960.81C850.194,967.056 845.902,974.112 840.05,976.2C834.198,978.288 827.11,975.18 820.78,976.8C823.78,978.84 827.34,979.72 830.93,980.04C836.36,980.25 842.5,982.78 847.4,979.33C851.92,976.29 856.56,972.78 862.23,972.51C870.6,972.22 878.71,969.23 887.15,970.49C883.12,971.49 879.1,972.53 875.3,974.19C871.17,976.05 866.55,975.42 862.2,976.13C859.15,976.57 856.39,977.98 853.67,979.35C860.42,980.07 867.19,980.6 873.99,980.68C877.37,980.84 880.93,980.67 884.11,982.05C887.61,984 890.18,987.2 892.88,990.1C889.45,988.11 886.28,985.7 882.78,983.84C878.05,983.14 873.24,983.31 868.5,983.8C870.48,985.28 872.88,985.82 875.29,986.1C880.16,988.02 883.73,992 887.29,995.67C883.05,993.71 879.12,991.03 874.61,989.72C871.83,988.83 868.87,988.21 866.48,986.46C864.46,985.17 862.62,983.12 860.04,983.19C853.11,982.81 846.23,984.26 839.31,983.84C839.06,986.7 838.15,989.66 838.84,992.52C843.82,1001.35 854.22,1005.02 863.79,1006C866.73,1006.73 869.48,1008.03 872.13,1009.48C871.39,1010.37 870.66,1011.27 869.94,1012.19C865.2,1009.84 860.06,1008.46 854.8,1008.02C856.41,1012.99 858.89,1017.62 862,1021.82C858.25,1018.54 854.91,1014.82 852.52,1010.44C850.52,1006.41 846.05,1004.95 842.83,1002.18C839.1,999.26 836.31,994.72 831.37,993.74C826.69,992.96 822.12,994.8 817.57,995.62C812.01,996.92 806.24,996.22 800.65,997.26C796.51,997.99 792.31,998.24 788.13,998.59C783.2,999.04 778.71,1001.34 774.62,1004C781.85,1006.03 789.42,1005.94 796.83,1006.85C796.95,1007.59 797.2,1009.07 797.32,1009.81C791.02,1009.94 784.77,1009.02 778.5,1008.61C780.82,1009.86 783.23,1010.94 785.65,1012C784.1,1012.7 782.55,1013.4 781.01,1014.11C775.75,1012.85 771.56,1009.51 767.05,1006.78C760.95,1004.54 754.27,1005.68 747.92,1005.24C745.59,1004.73 744.15,1006.64 742.78,1008.15C742.36,1008.07 741.53,1007.93 741.11,1007.85C735.29,1006.27 729.74,1009.46 724.02,1009.7C720.61,1008.78 716.86,1007.33 713.58,1009.56C711.83,1010.92 713.23,1012.88 713.83,1014.45C708.98,1017.84 703.13,1019.65 698.58,1023.45C698.55,1025.92 699.34,1028.32 699.63,1030.78L698.89,1031.22C697.11,1029.88 695.59,1028.22 694.56,1026.25C694.45,1025.22 694.36,1024.21 694.29,1023.2C696.85,1020.41 698.75,1016.5 702.7,1015.49C705.56,1014.67 707.87,1012.76 709.57,1010.36C699.24,1010.31 688.91,1011.76 678.86,1014.07C674.5,1014.9 671.52,1018.39 668.74,1021.54C666.38,1021.62 664.03,1021.61 661.68,1021.6C661.62,1021.16 661.51,1020.26 661.45,1019.81C666.87,1019.28 670.26,1014.85 673.84,1011.31C669.47,1010.52 665.11,1009.63 660.84,1008.41C659.29,1006.57 657.92,1004.15 655.32,1003.76C646.54,1001.45 638.19,1006.96 629.35,1005.37C630.26,1006.89 631.18,1008.41 631.96,1010.03C632.64,1012.55 632.61,1015.19 632.4,1017.78C630.91,1015.19 629.94,1012.28 628.07,1009.93C625.43,1007.76 621.97,1007.05 618.79,1006.05C616.15,1005.31 613.49,1004.49 611.22,1002.9C604.04,997.96 594.9,998.62 586.61,998.38C588.48,997.21 590.3,995.94 592.15,994.72C586.14,991.5 580.11,988.17 575.14,983.44C574.07,984.12 573.02,984.81 571.96,985.5C569.57,983.64 566.9,982.16 563.97,981.38C564.07,985.79 565.77,989.88 568.02,993.61C567.48,993.59 566.4,993.56 565.86,993.54C563.4,990.17 561.35,986.49 560.13,982.49C554.75,985.08 548.78,985.75 542.95,986.66C535.04,987.69 527.8,991.29 520.05,992.97C527.79,988.96 535.7,985.23 543.88,982.21C540.62,981.66 537.4,980.79 534.39,979.4C536.53,978.64 538.71,977.97 540.89,977.34C540.04,976.17 539.18,975 538.33,973.85C541.53,975.56 544.61,977.68 548.17,978.6C552.24,979.02 556.35,978.46 560.37,977.84C564.01,977.31 567.62,978.29 571.21,978.71C568.55,975.67 565.43,972.95 561.59,971.55C557.65,970.11 554.12,967.67 550.09,966.54C547.03,967.03 544.1,968.37 540.95,968.12C533.51,967.8 526.14,966.62 518.72,966.12C527.14,964.43 535.75,966.15 544.22,964.93C542.18,963.7 540.13,962.51 538.05,961.35C541.28,962.17 544.57,962.75 547.88,963.11C543.95,958.07 539.23,953.7 535.55,948.46C533.4,945.67 531.49,942.52 528.46,940.61C525.47,939.39 522.15,939.59 518.99,939.66C500.37,941.24 481.66,940 463,940.76C443.34,941.85 423.62,940.83 403.97,942.21C383.01,942.43 362.05,942.4 341.1,942.7C331.39,943.69 321.63,943.4 311.88,943.54C301.25,944.27 290.58,943.45 279.96,944.32C266.97,944.51 253.98,945.09 240.99,944.67C228.69,944.32 216.43,945.45 204.14,945.26C189.43,946.03 174.68,945.14 159.98,946.18C152.82,946.68 145.65,945.37 138.5,946.2C125.69,947.11 112.83,946.32 100,946.8C79.05,948.37 57.98,946.47 37.04,948.28C27.52,948.62 17.95,947.96 8.46,948.9M315.06,309.09C317.06,314.68 319.5,320.11 321.36,325.76C325.83,339.13 328.2,353.07 330.44,366.96C331.55,373.91 331.3,380.98 332.1,387.97C332.62,392.46 332.72,397.27 330.08,401.17C327.39,399.88 324.79,398.39 322.44,396.55C311.94,388.33 299.53,383.16 287.51,377.64C283.35,375.67 279.19,373.68 274.79,372.28C264.98,369.25 255.6,364.92 245.57,362.58C226.46,356.74 206.74,353.17 187.03,350.06C178.95,349.2 170.97,347.18 162.81,347.43C151.87,347.59 140.93,346.96 129.99,347.31C133.82,350.51 138.18,352.93 142.39,355.58C156.16,364.81 169.09,375.63 179.19,388.87C183.78,393.96 188.52,399.32 189.89,406.27C185.91,408.36 181.67,406.24 177.59,405.79C154.96,404.03 132.33,406.86 109.96,410.12C102.5,411.17 95.31,413.51 87.9,414.85C79.97,416.3 72.29,418.77 64.44,420.59C50.14,424.54 36.32,429.95 22.64,435.66C18.91,437.4 14.38,438.12 11.74,441.56C18.41,443.67 25.58,443.31 32.19,445.64C39.7,448.24 47.72,448.95 55.17,451.74C69.18,456.69 83.7,460.99 96.34,469C94.42,474.51 87.94,475.38 84.11,479.11C71.29,490.25 59.25,502.32 48.25,515.25C44.05,519.4 40.4,524.06 36.31,528.32C30.17,534.61 25.35,542.01 19.75,548.76C16.43,552.58 14.49,557.35 11.23,561.22C9.45,563.53 7.13,565.85 7.06,568.97C6.87,573.97 7.47,578.96 7.44,583.96C13.82,583.8 18.96,579.63 24.91,577.91C29.86,576.35 34.32,573.51 39.39,572.32C43.05,571.43 46.66,570.41 50.25,569.28C56.04,567.54 62.17,567.72 68.13,568.24C68.32,570.71 68.09,573.35 65.84,574.86C61.56,578.47 58.5,583.2 56.05,588.18C52.59,595.2 47.76,601.46 44.6,608.64C40.21,618.62 35.45,628.44 31.39,638.55C28.78,643.85 25.65,648.91 23.64,654.5C18.57,667.55 12.38,680.25 9.1,693.91C6.56,704.25 7.1,715.04 8.59,725.49C12.94,721.55 17.15,717.44 20.78,712.82C27.26,705.31 34.07,698.06 41.73,691.72C49.59,683.64 58.47,676.38 68.78,671.65C72.24,670.21 75.94,668.77 79.76,669.17C80.41,670.18 81.12,671.4 80.57,672.65C79.36,676.48 77.23,679.94 76.06,683.79C67.11,711.74 59.51,740.16 54.01,768.99C52.15,780 50.04,790.97 48.12,801.98C46.23,815.63 46.22,829.47 47.61,843.18C51.23,839.61 54.21,835.4 58.21,832.22C62.67,828.71 66.3,824.28 70.82,820.84C80.25,813.35 89.98,806.03 100.96,800.95C106.75,797.93 113.12,796.32 119.23,794.11C120.99,793.01 122.67,794.56 123.45,796.1C123.3,798.78 121.47,800.92 120.1,803.1C116.49,808.11 114.25,813.91 111.57,819.43C108.98,825.3 105.97,831.05 104.38,837.31C103.68,840.02 102.5,842.58 101.15,845.04C99.11,848.69 98.85,852.95 97.83,856.93C96.62,862.09 94.09,866.85 93.24,872.11C91.86,880.77 88.53,889.13 88.61,898.01C88.59,909.04 88.66,920.22 91.14,931.03C95.82,923.28 99.87,914.88 106.8,908.81C116.28,901 126.27,893.69 137.26,888.14C144.71,883.9 152.85,878.7 161.84,880.34C162.95,885.8 158.8,889.96 156.31,894.33C152.49,900.37 150.37,907.23 147.62,913.78C143.59,922.64 140.48,931.99 139.11,941.64C144.42,941.65 149.74,941.68 155.06,941.6C169.38,940.94 183.72,941.28 198.04,940.64C201.88,940.58 204.3,936.8 207.98,936.3C211.2,937.06 213.26,940.84 216.92,940.4C230.63,940.12 244.34,939.21 258.04,939.79C270.02,938.99 282.04,939.61 294.01,938.84C304.32,938.62 314.64,938.72 324.95,938.63C322.4,933.65 319.36,928.9 317.55,923.59C316.02,919.23 314.39,914.89 312.01,910.93C307.27,902.93 303.58,894.37 300.06,885.79C297.57,879.56 293.05,874.35 291.06,867.9C288.93,860.84 284.58,854.78 282.02,847.91C278.87,839.67 274.26,832.11 270.92,823.95C266.15,815.31 262.46,806.11 257.34,797.66C254.12,792.11 251.93,786.01 248.35,780.66C243.43,771.39 238.07,761.77 237.81,751.02C238.21,746.66 238.63,742.31 238.87,737.95C239.09,732.65 241.73,727.89 244.6,723.58C249.25,716.05 258.86,714.09 267.04,713.44C267.43,704.31 265.43,695.19 262.32,686.65C260.75,680.82 260.23,673.93 255.2,669.88C243.6,665.12 233.09,658.14 222.46,651.58C217.71,648.82 214.04,644.7 209.97,641.1C206.53,638.18 203.18,635.12 200.35,631.59C194.52,624.35 187.83,617.66 183.85,609.13C179.71,600.07 174.76,591.23 172.63,581.41C169.45,571.05 169.23,560.14 167.88,549.46C161.96,548.78 155.98,547.91 150.43,545.63C145.41,543.74 141.17,540.34 137.18,536.84C132.64,532.84 130.11,527.21 126.74,522.3C123.57,517.64 123.08,511.89 122.23,506.48C121.58,502.3 121.3,497.92 122.84,493.9C124.93,488.32 126.74,482.35 130.95,477.95C134.75,473.78 139.95,471.33 144.91,468.82C150.18,466.12 156.3,466.34 162.05,466.69C180.84,468.85 197.03,482.51 204.5,499.56C206.41,500.09 208.33,498.73 210.16,498.24C215.11,496.09 220.54,495.44 225.49,493.33C230.8,490.81 236.82,491.1 242.46,489.83C254.28,488.73 266.15,487.98 278.02,487.94C289.7,488.58 301.23,490.74 312.77,492.52C322.35,494.68 331.34,498.84 340.37,502.59C344.74,504.27 348.04,507.74 352.13,509.87C356.08,509.48 358.99,506.31 361.58,503.6C368.03,495.74 376.1,489.46 383.12,482.13C390.72,473.4 399.09,465.32 405.95,455.95C416.54,446.36 424.55,434.41 432.97,422.96C437.95,415.06 443.86,407.81 449.08,400.07C450.36,398.22 451.25,396.13 452.03,394.03C446.38,396.74 442.36,401.67 437.6,405.58C432.39,410.17 426.68,414.14 420.82,417.84C415.34,421.25 410.84,425.97 405.32,429.32C401.37,431.69 397.88,434.82 393.74,436.88C392.33,437.69 390.58,437.35 389.7,435.96C390.11,432.28 391.68,428.73 391.32,424.98C390.91,420.73 389.68,416.61 388.71,412.47C386.25,401.33 380.64,391.3 375.95,381.01C372.49,372.69 366.71,365.67 361.72,358.26C355.31,350.61 350.79,341.44 343.38,334.63C334.54,325.49 325.14,316.85 315.06,309.09M421.63,446.57C415.69,455.18 408.28,462.58 401.29,470.31C399.96,471.7 398.94,473.33 398.06,475.03C401.54,476.57 404.54,479 407.98,480.61C410.08,479.66 411.43,477.62 413.08,476.08C416.75,472.1 421.33,468.72 423.61,463.68C426.18,458.17 425.97,451.83 423.49,446.33C423.03,446.39 422.09,446.51 421.63,446.57M7.65,555.13C11.16,551.75 13.38,547.31 16.63,543.7C22.59,535.39 29.42,527.77 35.69,519.7C50.35,504.37 63.52,487.36 80.79,474.76C82.37,473.3 85.12,471.91 84.68,469.39C81.69,467.03 77.93,466.02 74.5,464.52C69.92,462.55 65.32,460.63 60.44,459.54C44.853,454.534 28.948,450.557 12.88,447.424C11.165,447.09 9.447,446.775 7.73,446.45M127.75,504.01C127.83,513.6 132.83,522.15 138.42,529.59C143.49,536.33 151.43,539.91 159,543.08C163.04,544.82 167.45,545.27 171.79,545.57C173.21,545.48 174.9,546.51 174.74,548.12C174.83,552.75 174.19,557.41 174.82,562.03C175.38,566.04 176.24,570 176.83,574.01C177.49,578.85 179.68,583.28 181.01,587.95C182.63,593.66 185.54,598.88 187.81,604.35C189.95,609.48 194.11,613.35 196.94,618.08C199.89,622.97 203.97,627 207.73,631.26C211.35,635.35 215.99,638.34 219.92,642.1C235.65,655.21 254.53,664.02 273.98,670.08C278.02,672.21 282.7,672.7 287.1,673.81C293.63,675.04 300.13,677.12 306.85,676.84C309.83,677.88 312.97,678.42 316.13,678.51C323.76,678.6 331.34,679.9 338.99,679.63C349.63,679.38 360.3,680.04 370.9,679.03C381.18,676.95 391.79,676.9 401.89,673.94C410.06,672.3 417.45,668.3 425.17,665.34C431.95,662.81 437.6,658.18 444.06,655.05C452.46,650.79 459.74,644.73 467.41,639.34C473.91,634.58 479.2,628.41 485.61,623.53C490.46,619.73 493.95,614.58 498.15,610.14C506.2,601.6 513.62,592.39 519.41,582.15C517.5,579.52 515.95,576.6 513.65,574.29C512.78,574.45 511.96,574.74 511.18,575.15C503.25,579.43 494.53,581.93 486.26,585.44C477.56,589.32 468.12,590.96 458.89,593.05C453.33,594.36 447.61,594.48 441.93,594.46C438.44,594.37 435.45,596.37 432.25,597.42C428.01,598.98 423.42,598.61 418.99,598.61C414.56,598.57 410.08,597.79 406.06,595.86C399.01,592.34 392.01,588.18 387.2,581.77C380.55,574.74 376.79,565.7 373.14,556.89C369.32,547.79 368.38,537.74 368.63,527.97C369.06,515.83 376.1,504.8 385.28,497.27C391.69,493.2 398.37,488.88 406.15,488.19C403.33,484.07 399.38,480.78 395.01,478.43C393.67,479.26 392.5,480.33 391.39,481.44C380.99,492.33 370.29,502.94 359.29,513.23C358.1,514.09 356.85,515.67 355.2,515.04C348.49,513.13 341.89,510.61 335.87,507.06C327.79,502.44 318.55,500.63 309.66,498.26C301.33,495.83 292.59,495.71 284.03,494.67C267.96,493.88 251.87,495.16 235.96,497.33C225.93,498.46 216.55,502.63 206.51,503.74C206.56,509.1 206.48,514.48 205.52,519.77C205.01,519.72 203.99,519.62 203.47,519.57C201.87,515.58 201.1,511.36 200.48,507.14C199.48,500.45 195.53,494.73 191.42,489.55C182.45,479.15 169.13,471.28 154.99,472.51C139.25,472.97 125.92,488.37 127.75,504.01M402.48,494.73C389.95,498.06 379.71,508.2 375.67,520.45C374.2,525.15 374.47,530.13 374.48,535C374.33,543.38 377.18,551.41 379.89,559.22C386.05,573.53 396.56,587.75 412.32,591.96C421.31,593.67 431.2,593.05 439.08,587.98C447.79,583.35 453.07,574.42 456.13,565.34C458.17,559.45 457.5,553.13 457.66,547.01C457.95,537.21 455.5,527.18 450.09,518.95C445.13,509.99 437.77,502.21 428.87,497.11C423.45,493.73 416.92,494.88 410.92,493.87C408.07,493.43 405.22,494.02 402.48,494.73M519.92,570C517,571.95 520.58,577.79 523.6,575.82C527.59,572.67 529.33,567.63 530.95,563C527.02,564.88 523.14,567.03 519.92,570M43.65,577.37C32.94,579.81 22.94,584.53 12.88,588.83C11.09,589.67 8.95,590.3 7.86,592.12C6.97,597.69 7.04,663.03 8.36,675.98C11.52,670.44 13.32,664.35 15.41,658.38C19.8,650.17 23.04,641.43 26.91,632.98C32.17,620.22 38.16,607.78 44.65,595.61C47.8,588.54 52.47,582.34 56.61,575.86C56.22,575.53 55.44,574.87 55.05,574.54C51.12,574.87 47.45,576.42 43.65,577.37M44.01,698.01C36.55,704.54 29.68,711.71 23.12,719.14C17.8,724.26 12.93,729.94 8.92,736.13C7.26,743.62 6.21,938.69 7.67,942.44C7.94,943.91 9.85,943.56 10.93,943.75C27.28,943.52 43.64,943.75 59.98,943.25C69.86,942.24 79.81,942.73 89.72,942.47C89.35,939.39 88.66,936.35 87.39,933.53C84.41,926.83 82.8,919.58 82.21,912.28C81.34,907.4 81.12,902.38 82.23,897.52C86.14,872.44 92.9,847.72 103.33,824.55C105.71,817.34 110.34,810.95 111.62,803.38C99.64,806.22 90.09,814.32 80.16,821.11C72.97,826.18 66.81,832.5 59.99,838.03C54.13,843.59 48.11,849.38 45.15,857.1C44.28,856.6 43.4,856.11 42.53,855.63C42.92,848.71 41.49,841.89 41.53,835C41.37,827 41.24,819 41.35,811.01C41.37,804.93 43,799.03 43.46,793C43.65,785.48 46.3,778.35 47.43,770.97C48.69,761.85 51.06,752.95 53.14,744C56.04,735.07 56.85,725.64 59.79,716.72C63.35,705.6 66.42,694.32 70.18,683.25C70.49,681.38 72.26,678.97 70.07,677.66C59.76,681.99 51.83,690.28 44.01,698.01M269.49,681.2C269.12,690.23 272.69,698.74 274.51,707.45C275.3,709.62 275.33,713.14 278.26,713.51C287.75,715.57 297.43,717.54 306.19,721.93C311.87,725.03 317.98,727.25 324.33,728.54C324.58,723.55 324.67,718.44 323.25,713.61C322.56,710.81 319.44,710.01 317.3,708.62C306.63,702.37 295.98,696.06 285.63,689.27C280.49,686.17 275.57,682.25 269.49,681.2M346.37,712.5C342.25,714.4 339.19,717.89 335.83,720.83C333.88,722.83 331.1,724.8 331.36,727.95C331.4,730.24 330.95,733.33 333.58,734.4C340.45,738.21 347.48,741.76 354.18,745.89C356.85,750.19 362.46,749.14 366.22,751.77C369.57,753.89 372.94,756.01 376.66,757.44C376.25,749.18 372.96,741.36 372.97,733.05C376.12,735.18 379.53,737.61 380.39,741.58C382.36,749.03 383.41,756.88 387.23,763.71C388.03,765.33 389.77,766.05 391.31,766.81C402.84,772.15 414.73,776.66 426.39,781.71C429.4,783.03 432.53,784.07 435.71,784.91C439.12,773.84 441.75,762.17 448.55,752.56C450.77,749.3 454.8,747.04 455.93,743.22C450.51,740.33 444.45,738.89 438.97,736.08C418.53,728.59 398.19,720.84 377.87,713.01C372.49,710.84 366.69,710.33 360.97,709.83C356,709.89 351.01,710.71 346.37,712.5M244.61,738.99C244.29,746.42 243.74,754.23 246.84,761.21C250.84,770.18 255.63,778.8 259.16,787.98C263.65,797.53 268.82,806.75 273.71,816.1C277.46,826.86 283.9,836.38 288.12,846.94C293.27,859.2 299.37,871.04 304.87,883.14C307.36,888.84 310.85,894.05 312.94,899.95C318.63,911.07 325.13,921.86 329.27,933.72C330.1,935.49 330.41,938.47 333,938.32C342.73,938.71 352.48,938.26 362.21,937.86C362.37,930.47 362.5,923.07 362.15,915.7C363.15,923.04 362.37,930.47 363.08,937.83C367.86,937.48 372.65,937.29 377.45,937.35C390.95,937.41 404.46,937 417.96,936.98C425.3,936.04 432.72,937.07 440.03,935.91C439.29,932.01 437.88,928.3 436.25,924.71C426.64,899.94 417.15,875.12 407.83,850.24C406.58,847.07 405.4,843.55 402.47,841.52C397.65,838.02 391.86,836.25 386.86,833.07C382.76,830.46 378.43,828.25 373.88,826.57C372.02,829.18 370.42,831.97 368.51,834.54C366.32,837.4 362.87,838.78 359.72,840.29C357.27,838.19 354.16,837.32 351.03,836.89C346.83,834.2 342.83,831.19 338.74,828.33C331.91,823.56 326.31,817.35 319.71,812.31C313.95,807.38 307.73,802.85 303.03,796.84C305.18,797.55 307.32,798.42 309.12,799.86C316.08,805.29 323.5,810.1 330.46,815.55C336.45,819.9 342.23,824.66 348.82,828.1C348.83,822.13 348.15,816.13 349.01,810.2C349.98,803.31 348.93,796.24 350.81,789.47C353.32,778.56 358.67,767.38 368.62,761.48C365.9,758.36 362.05,756.65 358.65,754.41C349.28,749.42 339.92,744.4 330.61,739.29C318.28,733.39 305.74,727.88 292.91,723.15C281.94,720.36 270.44,717.82 259.15,720.3C250.76,722.37 245.61,730.85 244.61,738.99M459.92,748.96C453.38,754.53 449.44,762.37 446.28,770.2C443.95,776.38 442.29,782.9 442.41,789.54C456.42,793.44 469.06,800.96 482.86,805.46C490.19,808.66 497.73,811.37 504.88,814.98C513.1,818.67 521.54,821.83 529.95,825.07C532.17,825.8 534.49,826.86 536.89,826.34C539.07,823.85 540.05,820.6 542.03,817.98C547.9,812.66 556.12,811.87 563.69,812.59C566.32,809.52 568.28,805.98 570.44,802.59C573.5,797.93 579.26,795.33 581,789.79C570.9,786.08 561.13,781.46 550.8,778.37C546.24,777.15 542.11,774.82 537.69,773.25C523.78,767.61 509.45,763.09 495.66,757.2C485.81,754.53 476.75,749.67 466.96,746.85C464.38,745.84 461.83,747.34 459.92,748.96M370.62,766.53C365.45,769.33 362.45,774.75 359.58,779.65C356.54,786.42 355.18,793.86 354.19,801.18C354.07,804.38 352.7,808.84 356.29,810.67C373.95,821.51 392.71,830.37 411.01,840.05C420.95,845.82 431.26,850.95 440.94,857.16C450.98,862.54 460.23,869.22 470.01,875.05C474.66,878 478.86,881.59 483.49,884.57C493.45,891.06 501.9,899.54 511.26,906.77C517.97,910.11 520.7,917.4 524.59,923.3C530.98,933.12 537.26,943.1 545.32,951.67C550.73,957.32 555.9,964.04 563.66,966.47C570.44,968.71 577.47,970.07 584.39,971.81C595.18,975.25 606.23,971.31 617.08,970.38C620.11,969.98 623.98,969.52 625.36,966.32C627.32,961.25 627.68,955.75 628.71,950.45C629.27,947.95 628.84,945.42 628.09,943.03C622.7,942.81 617.3,942.26 612.08,940.87C606.06,939.24 599.67,938.96 593.95,936.3C596.33,935.88 598.75,935.57 601.17,935.82C607.92,936.43 614.69,936.84 621.42,937.73C623.77,937.92 626.24,938.4 628.54,937.6C629.75,932.27 629.26,926.72 628.74,921.34C627.6,913.59 628.55,905.71 627.26,897.98C626.58,894.5 626.73,890.46 624.37,887.61C619.6,887.09 614.75,887.74 609.99,886.94C605.54,886.23 600.71,886.8 596.65,884.6C601.88,884.01 607.28,884.9 612.4,883.36C607.55,882.61 602.64,882.67 597.76,882.77C608.54,882.06 619.52,883.51 630.15,881.06C635.77,879.96 639.12,874.28 640.17,869.06C641.25,860.46 640.08,851.08 635.26,843.73C629.04,838.08 620.02,838.06 612.12,837.44C601.79,836.17 591.36,836.75 581.01,835.83C575.4,835.27 568.75,837.15 564.19,832.88C560.12,829.96 562.19,824.42 561.46,820.24C561.77,817.82 558.75,817.42 556.99,817.71C552.4,818.37 548.18,820.73 544.63,823.63C538.73,829.39 539.62,838.43 535.6,845.2C534.74,841.14 534.48,837 534.33,832.88C530.09,831.55 526.06,829.66 521.91,828.13C520.02,826.85 518,825.77 515.88,824.98C507.79,821.93 500.01,818.13 491.97,814.97C484.07,812.01 476.39,808.52 468.59,805.32C458.72,800.52 448.14,797.42 438.21,792.77C425.47,786.97 412.24,782.38 399.53,776.52C392.15,773.65 384.83,770.64 377.59,767.41C375.4,766.55 372.9,765.04 370.62,766.53M638.09,770.31C630.97,771.25 624.65,774.87 617.89,777.02C606.75,780.82 595.96,786.2 587.44,794.46C580.64,800.03 574.96,806.88 570.56,814.48C568.38,818.19 568,822.74 568.8,826.9C570.18,829.49 573.42,829.43 575.95,829.67C582.52,830.02 589.22,831.11 595.75,829.95C601.88,821.58 605.61,811.48 613.06,804.04C619.48,797.11 626.09,790.1 634.34,785.32C639.03,782.66 643.36,779.32 648.41,777.31C655.79,774.36 662.99,770.74 670.91,769.43C670.66,768.98 670.17,768.07 669.92,767.61C659.2,766.59 648.67,769.07 638.09,770.31M683.99,771.86C676.26,772.69 669.12,775.95 661.64,777.83C648.83,782.52 637.09,789.95 626.74,798.79C621.47,803.89 616.55,809.41 612.5,815.55C609.12,820.5 604.44,825.2 604.03,831.5C613.3,831.43 622.81,831.58 631.52,835.14C637.68,836.4 641.31,842.07 643.81,847.35C646.63,852.8 646.91,859.04 647.2,865.05C647.12,874.71 640.87,884.1 631.62,887.23C631.48,891.2 632.02,895.14 632.76,899.04C633.73,904.04 633.25,909.16 633.93,914.2C635.08,921.74 634.41,929.39 634.59,936.99C634.9,946.85 633.44,956.69 631.22,966.28C630.45,968.75 630.09,972.06 627.33,973.16C621.82,975.56 615.8,976.38 609.98,977.66C610.57,981.25 613.27,983.83 615.61,986.4C619.07,989.95 622.81,993.21 626.45,996.58C628.77,998.68 631.63,1000.91 634.98,1000.4C640.75,999.38 646.4,996.08 652.4,997.61C656.34,998.66 660.95,998.87 663.86,1002.1C666.49,1004.85 669.94,1007.19 673.95,1006.61C689.97,1006.23 705.97,1005.3 722,1005.32C727.28,1005.02 732.72,1004.83 737.68,1002.79C741.56,1001.5 745.05,999.04 749.13,998.4C752.44,998.89 755.54,1000.54 758.97,1000.39C763.18,1000.35 767.46,1000.34 771.59,999.37C775.12,997.95 777.69,994.83 781.26,993.45C787.03,991.02 793.66,994.07 799.34,991.36C804.15,988.68 807.54,984.19 811.15,980.15C812.7,978.11 814.88,976.05 814.78,973.29C812.42,970.58 808.78,969.28 806.74,966.27C803.69,961.81 802.25,956.37 802.44,950.99C802.62,943.43 801.96,935.69 804.23,928.36C806.73,919.79 804.13,910.78 806.1,902.14C806.68,898.83 807.74,895.49 807.29,892.1C806.84,890.73 805.15,890.54 804.09,889.87C799.45,888.07 793.605,886.404 791.72,881.87C789.823,877.308 791.32,868.86 792.71,862.5C793.85,857.36 793.89,851.66 797.19,847.29C798.41,845.35 800.97,845.57 802.97,845.39C810.72,845.17 818.47,845.57 826.22,845.67C825.66,841.97 824.66,838.34 822.96,835.01C813.35,815.15 797.27,798.87 778.58,787.38C765.96,779.86 751.78,775.34 737.4,772.67C725.84,769.6 713.82,770.56 702.01,770.48C695.96,770.36 689.96,771.04 683.99,771.86M358.2,833.04C364.1,833.74 367.36,828.01 368.77,823.16C364.61,820.15 360.33,817.29 355.61,815.24C353.18,821.14 355,827.8 358.2,833.04M414.08,847.88C414.34,853.07 417.07,857.58 418.93,862.29C423.17,872.17 426.3,882.47 430.54,892.35C434.71,903.45 438.68,914.64 443.24,925.59C444.79,929.11 445.12,933.49 448.09,936.19C457.36,937.13 466.7,935.93 476,936.27C484.35,936.66 492.64,935.34 501,935.52C509.04,935.7 517.08,935.6 525.11,935.22C522.47,930.43 519.78,925.67 516.83,921.08C513.03,915.04 507.26,910.7 502.19,905.82C496.58,900.69 490.91,895.57 484.56,891.38C476.92,885.55 469.21,879.78 460.8,875.1C451.7,869.16 442.55,863.27 433.15,857.8C426.9,854.33 420.89,850.18 414.08,847.88M800.08,852.91C798.56,857.49 797.86,862.29 796.96,867.03C796.36,871.01 795.73,875.91 799.06,878.94C802.16,881.87 805.54,884.94 809.77,886.05C818.33,887.69 827.22,887.63 835.58,890.33C835.63,890.9 835.72,892.04 835.77,892.61C830.16,892.72 824.56,892.48 818.96,892.38C817.18,892.52 814.98,892.04 813.72,893.64C811.29,896.12 811.7,899.84 811.53,903.03C811.53,911.03 811.18,919.04 811.46,927.05C811.23,930.12 814.5,931.52 817.03,931.97C822.56,932.96 827.67,935.61 833.33,936.03C832.91,936.51 832.08,937.47 831.66,937.95C824.41,937.6 817.12,935.79 809.88,937.22L809.16,937.16C808.41,944.04 808,951.09 809.27,957.94C809.9,962.37 813.8,965.4 817.59,967.23C821.55,968.81 825.75,969.82 829.98,970.4C836.09,971.19 842.37,967.66 845.08,962.16C848.99,954.05 850.88,945.2 853.17,936.55C855.95,924.56 856.41,912.23 857.38,900.01C857.86,893.62 856.67,887.31 856,880.99C855.38,876.03 855,870.84 852.52,866.4C848.78,859.85 842.8,853.91 835.02,852.86C825.66,849.87 815.71,849.23 805.94,849.79C803.78,850.15 800.64,850.24 800.08,852.91M137.44,894.36C129.14,898.71 121.15,903.87 114.51,910.54C111.56,913.58 107.19,915.08 104.93,918.79C102.15,923.21 100.19,928.09 97.57,932.6C95.81,935.6 94.97,939.01 94.32,942.4C107.09,942.88 119.85,941.66 132.62,941.61C134.35,935.61 135.16,929.35 137.6,923.57C138.99,920.34 139.49,916.84 140.54,913.5C143.61,904.7 148.15,896.53 151.91,888.03C146.44,888.34 141.87,891.44 137.44,894.36M577.83,977.14C580.14,980.14 582.79,982.85 585.71,985.27C589.08,988.05 592.48,991.16 596.89,992.15C603.02,993.63 609,995.7 615.18,996.98C612.78,991.59 607.39,988.62 604.1,983.89C602.39,981.93 601.07,978.89 598.05,978.92C593.51,978.5 588.94,978.69 584.4,978.72C584.81,978.19 585.23,977.67 585.65,977.16C583.04,977.14 580.43,977.11 577.83,977.14M809.09,992.95C817.82,992.79 826.16,989.38 834.97,990.07C835.53,988.17 836.14,986.29 836.79,984.42C830.81,983.78 825.01,981.66 819,981.49C814.32,983.89 811.86,988.74 809.09,992.95Z" style="fill:rgb(5,3,3);fill-rule:nonzero;stroke:rgb(5,3,3);stroke-width:0.09px;"/>
                </g>
                <path d="M402.48,494.73C405.22,494.02 408.07,493.43 410.92,493.87C416.92,494.88 423.45,493.73 428.87,497.11C437.77,502.21 445.13,509.99 450.09,518.95C455.5,527.18 457.95,537.21 457.66,547.01C457.5,553.13 458.17,559.45 456.13,565.34C453.07,574.42 447.79,583.35 439.08,587.98C431.2,593.05 421.31,593.67 412.32,591.96C396.56,587.75 386.05,573.53 379.89,559.22C377.18,551.41 374.33,543.38 374.48,535C374.47,530.13 374.2,525.15 375.67,520.45C379.71,508.2 389.95,498.06 402.48,494.73M442.64,545.77C438.55,549.1 438.75,556.27 443.07,559.32C444.97,559.85 447.02,559.83 448.95,559.41C453.75,556.8 453.34,549.99 451.22,545.74C448.85,543.54 445.23,544.51 442.64,545.77Z" style="fill:white;fill-rule:nonzero;stroke:white;stroke-width:0.09px;"/>
                <path d="M246.42,517.4C261.44,514.92 277.22,516.79 291.22,522.79C298.28,525.11 304.06,529.95 310.37,533.71C318.36,540.48 325.77,549.27 327.19,560.01C328.66,571.04 324.84,582.37 318.02,591.02C315.82,593.89 312.89,596.08 309.76,597.83C305.12,600.49 300.49,603.67 295.02,604.18C290.32,604.56 285.53,605.16 280.84,604.36C263.08,600.15 244.99,597.54 226.99,594.63C222.99,594.18 219.57,591.87 216.34,589.64C209.52,584.47 202.64,577.85 201.21,569.01C199.24,558.96 200.42,547.37 207.33,539.37C212.55,532.42 219.99,527.6 227.46,523.38C233.26,520.02 239.87,518.5 246.42,517.4M257.48,561.66C252.38,562.54 250.3,570.44 254.98,573.11C259.06,576.4 265.7,576.45 269.14,572.22C270.54,569.17 270.52,564.56 267.22,562.77C264.42,560.6 260.7,560.36 257.48,561.66Z" style="fill:white;fill-rule:nonzero;stroke:white;stroke-width:0.09px;"/>
                <path d="M315.06,309.09C325.14,316.85 334.54,325.49 343.38,334.63C350.79,341.44 355.31,350.61 361.72,358.26C366.71,365.67 372.49,372.69 375.95,381.01C380.64,391.3 386.25,401.33 388.71,412.47C389.68,416.61 390.91,420.73 391.32,424.98C391.68,428.73 390.11,432.28 389.7,435.96C390.58,437.35 392.33,437.69 393.74,436.88C397.88,434.82 401.37,431.69 405.32,429.32C410.84,425.97 415.34,421.25 420.82,417.84C426.68,414.14 432.39,410.17 437.6,405.58C442.36,401.67 446.38,396.74 452.03,394.03C451.25,396.13 450.36,398.22 449.08,400.07C443.86,407.81 437.95,415.06 432.97,422.96C424.55,434.41 416.54,446.36 405.95,455.95C399.09,465.32 390.72,473.4 383.12,482.13C376.1,489.46 368.03,495.74 361.58,503.6C358.99,506.31 356.08,509.48 352.13,509.87C348.04,507.74 344.74,504.27 340.37,502.59C331.34,498.84 322.35,494.68 312.77,492.52C301.23,490.74 289.7,488.58 278.02,487.94C266.15,487.98 254.28,488.73 242.46,489.83C236.82,491.1 230.8,490.81 225.49,493.33C220.54,495.44 215.11,496.09 210.16,498.24C208.33,498.73 206.41,500.09 204.5,499.56C197.03,482.51 180.84,468.85 162.05,466.69C156.3,466.34 150.18,466.12 144.91,468.82C139.95,471.33 134.75,473.78 130.95,477.95C126.74,482.35 124.93,488.32 122.84,493.9C121.3,497.92 121.58,502.3 122.23,506.48C123.08,511.89 123.57,517.64 126.74,522.3C130.11,527.21 132.64,532.84 137.18,536.84C141.17,540.34 145.41,543.74 150.43,545.63C155.98,547.91 161.96,548.78 167.88,549.46C169.23,560.14 169.45,571.05 172.63,581.41C174.76,591.23 179.71,600.07 183.85,609.13C187.83,617.66 194.52,624.35 200.35,631.59C203.18,635.12 206.53,638.18 209.97,641.1C214.04,644.7 217.71,648.82 222.46,651.58C233.09,658.14 243.6,665.12 255.2,669.88C260.23,673.93 260.75,680.82 262.32,686.65C265.43,695.19 267.43,704.31 267.04,713.44C258.86,714.09 249.25,716.05 244.6,723.58C241.73,727.89 239.09,732.65 238.87,737.95C238.63,742.31 238.21,746.66 237.81,751.02C238.07,761.77 243.43,771.39 248.35,780.66C251.93,786.01 254.12,792.11 257.34,797.66C262.46,806.11 266.15,815.31 270.92,823.95C274.26,832.11 278.87,839.67 282.02,847.91C284.58,854.78 288.93,860.84 291.06,867.9C293.05,874.35 297.57,879.56 300.06,885.79C303.58,894.37 307.27,902.93 312.01,910.93C314.39,914.89 316.02,919.23 317.55,923.59C319.36,928.9 322.4,933.65 324.95,938.63C314.64,938.72 304.32,938.62 294.01,938.84C282.04,939.61 270.02,938.99 258.04,939.79C244.34,939.21 230.63,940.12 216.92,940.4C213.26,940.84 211.2,937.06 207.98,936.3C204.3,936.8 201.88,940.58 198.04,940.64C183.72,941.28 169.38,940.94 155.06,941.6C149.74,941.68 144.42,941.65 139.11,941.64C140.48,931.99 143.59,922.64 147.62,913.78C150.37,907.23 152.49,900.37 156.31,894.33C158.8,889.96 162.95,885.8 161.84,880.34C152.85,878.7 144.71,883.9 137.26,888.14C126.27,893.69 116.28,901 106.8,908.81C99.87,914.88 95.82,923.28 91.14,931.03C88.66,920.22 88.59,909.04 88.61,898.01C88.53,889.13 91.86,880.77 93.24,872.11C94.09,866.85 96.62,862.09 97.83,856.93C98.85,852.95 99.11,848.69 101.15,845.04C102.5,842.58 103.68,840.02 104.38,837.31C105.97,831.05 108.98,825.3 111.57,819.43C114.25,813.91 116.49,808.11 120.1,803.1C121.47,800.92 123.3,798.78 123.45,796.1C122.67,794.56 120.99,793.01 119.23,794.11C113.12,796.32 106.75,797.93 100.96,800.95C89.98,806.03 80.25,813.35 70.82,820.84C66.3,824.28 62.67,828.71 58.21,832.22C54.21,835.4 51.23,839.61 47.61,843.18C46.22,829.47 46.23,815.63 48.12,801.98C50.04,790.97 52.15,780 54.01,768.99C59.51,740.16 67.11,711.74 76.06,683.79C77.23,679.94 79.36,676.48 80.57,672.65C81.12,671.4 80.41,670.18 79.76,669.17C75.94,668.77 72.24,670.21 68.78,671.65C58.47,676.38 49.59,683.64 41.73,691.72C34.07,698.06 27.26,705.31 20.78,712.82C17.15,717.44 12.94,721.55 8.59,725.49C7.1,715.04 6.56,704.25 9.1,693.91C12.38,680.25 18.57,667.55 23.64,654.5C25.65,648.91 28.78,643.85 31.39,638.55C35.45,628.44 40.21,618.62 44.6,608.64C47.76,601.46 52.59,595.2 56.05,588.18C58.5,583.2 61.56,578.47 65.84,574.86C68.09,573.35 68.32,570.71 68.13,568.24C62.17,567.72 56.04,567.54 50.25,569.28C46.66,570.41 43.05,571.43 39.39,572.32C34.32,573.51 29.86,576.35 24.91,577.91C18.96,579.63 13.82,583.8 7.44,583.96C7.47,578.96 6.87,573.97 7.06,568.97C7.13,565.85 9.45,563.53 11.23,561.22C14.49,557.35 16.43,552.58 19.75,548.76C25.35,542.01 30.17,534.61 36.31,528.32C40.4,524.06 44.05,519.4 48.25,515.25C59.25,502.32 71.29,490.25 84.11,479.11C87.94,475.38 94.42,474.51 96.34,469C83.7,460.99 69.18,456.69 55.17,451.74C47.72,448.95 39.7,448.24 32.19,445.64C25.58,443.31 18.41,443.67 11.74,441.56C14.38,438.12 18.91,437.4 22.64,435.66C36.32,429.95 50.14,424.54 64.44,420.59C72.29,418.77 79.97,416.3 87.9,414.85C95.31,413.51 102.5,411.17 109.96,410.12C132.33,406.86 154.96,404.03 177.59,405.79C181.67,406.24 185.91,408.36 189.89,406.27C188.52,399.32 183.78,393.96 179.19,388.87C169.09,375.63 156.16,364.81 142.39,355.58C138.18,352.93 133.82,350.51 129.99,347.31C140.93,346.96 151.87,347.59 162.81,347.43C170.97,347.18 178.95,349.2 187.03,350.06C206.74,353.17 226.46,356.74 245.57,362.58C255.6,364.92 264.98,369.25 274.79,372.28C279.19,373.68 283.35,375.67 287.51,377.64C299.53,383.16 311.94,388.33 322.44,396.55C324.79,398.39 327.39,399.88 330.08,401.17C332.72,397.27 332.62,392.46 332.1,387.97C331.3,380.98 331.55,373.91 330.44,366.96C328.2,353.07 325.83,339.13 321.36,325.76C319.5,320.11 317.06,314.68 315.06,309.09Z" style="fill:rgb(132,104,78);fill-rule:nonzero;stroke:rgb(132,104,78);stroke-width:0.09px;"/>
                <path d="M421.63,446.57C422.09,446.51 423.03,446.39 423.49,446.33C425.97,451.83 426.18,458.17 423.61,463.68C421.33,468.72 416.75,472.1 413.08,476.08C411.43,477.62 410.08,479.66 407.98,480.61C404.54,479 401.54,476.57 398.06,475.03C398.94,473.33 399.96,471.7 401.29,470.31C408.28,462.58 415.69,455.18 421.63,446.57Z" style="fill:rgb(226,191,158);fill-rule:nonzero;stroke:rgb(226,191,158);stroke-width:0.09px;"/>
                <path d="M127.75,504.01C125.92,488.37 139.25,472.97 154.99,472.51C169.13,471.28 182.45,479.15 191.42,489.55C195.53,494.73 199.48,500.45 200.48,507.14C201.1,511.36 201.87,515.58 203.47,519.57C203.99,519.62 205.01,519.72 205.52,519.77C206.48,514.48 206.56,509.1 206.51,503.74C216.55,502.63 225.93,498.46 235.96,497.33C251.87,495.16 267.96,493.88 284.03,494.67C292.59,495.71 301.33,495.83 309.66,498.26C318.55,500.63 327.79,502.44 335.87,507.06C341.89,510.61 348.49,513.13 355.2,515.04C356.85,515.67 358.1,514.09 359.29,513.23C370.29,502.94 380.99,492.33 391.39,481.44C392.5,480.33 393.67,479.26 395.01,478.43C399.38,480.78 403.33,484.07 406.15,488.19C398.37,488.88 391.69,493.2 385.28,497.27C376.1,504.8 369.06,515.83 368.63,527.97C368.38,537.74 369.32,547.79 373.14,556.89C376.79,565.7 380.55,574.74 387.2,581.77C392.01,588.18 399.01,592.34 406.06,595.86C410.08,597.79 414.56,598.57 418.99,598.61C423.42,598.61 428.01,598.98 432.25,597.42C435.45,596.37 438.44,594.37 441.93,594.46C447.61,594.48 453.33,594.36 458.89,593.05C468.12,590.96 477.56,589.32 486.26,585.44C494.53,581.93 503.25,579.43 511.18,575.15C511.96,574.74 512.78,574.45 513.65,574.29C515.95,576.6 517.5,579.52 519.41,582.15C513.62,592.39 506.2,601.6 498.15,610.14C493.95,614.58 490.46,619.73 485.61,623.53C479.2,628.41 473.91,634.58 467.41,639.34C459.74,644.73 452.46,650.79 444.06,655.05C437.6,658.18 431.95,662.81 425.17,665.34C417.45,668.3 410.06,672.3 401.89,673.94C391.79,676.9 381.18,676.95 370.9,679.03C360.3,680.04 349.63,679.38 338.99,679.63C331.34,679.9 323.76,678.6 316.13,678.51C312.97,678.42 309.83,677.88 306.85,676.84C307.44,676.77 308.6,676.62 309.19,676.55C305.42,675.52 301.57,674.81 297.74,674.09C300.54,673.56 303.35,673.07 306.2,672.83C316.07,674.28 326.06,673.42 335.99,673.45C352.31,672.89 368.41,669.19 383.77,663.78C394.08,660.52 404.74,658.18 414.59,653.59C418.3,651.77 422.32,650.79 426.35,649.96C423.96,647.46 421.07,645.42 417.69,644.56C396.65,638.42 376.09,630.81 355.3,623.91C346.53,620.29 337.15,618.66 328.13,615.85C320.2,613.58 312.22,611.45 304.21,609.49C304.26,609.02 304.36,608.07 304.42,607.6C312.71,604.22 320.3,598.78 325.16,591.14C329.23,584.4 333,577.05 333.37,569.03C333.72,562.81 333.37,556.28 330.45,550.65C326.82,543.36 322.08,536.48 315.86,531.16C304.44,522.09 290.99,515.58 276.8,512.25C268.28,510.88 259.55,509.99 250.94,511.02C240.11,512.51 229.28,515.42 219.72,520.82C210.23,527.06 201.53,535.26 196.74,545.72C193.98,553.4 194.22,561.88 195.43,569.84C196.74,578.03 202.68,584.21 207.73,590.37C204.06,590.64 200.38,590.85 196.72,591.19C196.55,594.4 196.8,597.68 198.27,600.59C201.72,607.93 205.13,615.38 210.13,621.82C221.64,636.92 235.08,651.46 252.63,659.49C261.18,663.16 269.98,666.38 279.17,668.03C276.67,667.8 274.16,667.77 271.66,667.76C272.41,668.54 273.19,669.31 273.98,670.08C254.53,664.02 235.65,655.21 219.92,642.1C215.99,638.34 211.35,635.35 207.73,631.26C203.97,627 199.89,622.97 196.94,618.08C194.11,613.35 189.95,609.48 187.81,604.35C185.54,598.88 182.63,593.66 181.01,587.95C179.68,583.28 177.49,578.85 176.83,574.01C176.24,570 175.38,566.04 174.82,562.03C174.19,557.41 174.83,552.75 174.74,548.12C174.9,546.51 173.21,545.48 171.79,545.57C167.45,545.27 163.04,544.82 159,543.08C151.43,539.91 143.49,536.33 138.42,529.59C132.83,522.15 127.83,513.6 127.75,504.01M151.82,503.24C157.04,503.75 162.56,504.03 167.13,506.91C172.07,509.54 175.74,513.87 180.21,517.13C182.12,518.63 184.41,515.94 183.33,514.06C181.22,508.91 176.12,506.01 171.48,503.46C165.51,499.96 158.03,500.92 151.82,503.24Z" style="fill:rgb(229,192,158);fill-rule:nonzero;stroke:rgb(229,192,158);stroke-width:0.09px;"/>
                <path d="M459.92,748.96C461.83,747.34 464.38,745.84 466.96,746.85C476.75,749.67 485.81,754.53 495.66,757.2C509.45,763.09 523.78,767.61 537.69,773.25C542.11,774.82 546.24,777.15 550.8,778.37C561.13,781.46 570.9,786.08 581,789.79C579.26,795.33 573.5,797.93 570.44,802.59C568.28,805.98 566.32,809.52 563.69,812.59C556.12,811.87 547.9,812.66 542.03,817.98C540.05,820.6 539.07,823.85 536.89,826.34C534.49,826.86 532.17,825.8 529.95,825.07C521.54,821.83 513.1,818.67 504.88,814.98C497.73,811.37 490.19,808.66 482.86,805.46C469.06,800.96 456.42,793.44 442.41,789.54C442.29,782.9 443.95,776.38 446.28,770.2C449.44,762.37 453.38,754.53 459.92,748.96Z" style="fill:rgb(229,192,158);fill-rule:nonzero;stroke:rgb(229,192,158);stroke-width:0.09px;"/>
                <path d="M362.33,777.37C364.89,773.64 367.39,768.89 372.06,767.65C376.95,767.84 381.35,770.35 385.8,772.15C403.73,780 422.04,786.95 439.94,794.88C458.03,801.95 475.78,809.81 493.79,817.08C503.17,820.75 512.17,825.41 521.91,828.13C526.06,829.66 530.09,831.55 534.33,832.88C534.48,837 534.74,841.14 535.6,845.2C539.62,838.43 538.73,829.39 544.63,823.63C548.18,820.73 552.4,818.37 556.99,817.71C558.75,817.42 561.77,817.82 561.46,820.24C562.19,824.42 560.12,829.96 564.19,832.88C568.75,837.15 575.4,835.27 581.01,835.83C591.36,836.75 601.79,836.17 612.12,837.44C620.02,838.06 629.04,838.08 635.26,843.73C640.08,851.08 641.25,860.46 640.17,869.06C639.12,874.28 635.77,879.96 630.15,881.06C619.52,883.51 608.54,882.06 597.76,882.77C593.71,882.87 589.66,883.16 585.64,883.65C591.04,886.33 597.11,887.01 603.04,887.55C610.1,888.13 617.17,888.62 624.26,888.76C625.84,896.45 626.15,904.33 626.85,912.14C627.32,920.21 628.17,928.33 627.29,936.4C613.99,937.04 600.71,932.68 587.46,935.09C592.33,939.5 599.25,939.05 605.23,940.64C612.39,942.47 619.68,943.67 627.05,944.29C627.27,950.3 626.7,956.35 625.33,962.21C624.72,964.82 623.38,967.75 620.57,968.56C617.05,969.52 613.37,969.52 609.78,970.05C602.55,970.98 595.19,973.02 587.92,971.22C579.97,969.23 571.76,968.14 564.12,965.08C556.37,962.09 550.73,955.66 545.33,949.62C534.65,937.87 526.65,924.07 518.33,910.63C515.92,906.22 510.74,904.96 507.13,901.87C499.77,895.53 492.52,889.01 484.4,883.65C456.69,863.84 427.07,846.81 396.75,831.31C387.75,826.18 378.13,822.21 369.28,816.79C365.13,814.22 360.57,812.28 356.69,809.27C354.48,807.74 355.34,804.75 355.37,802.5C356.55,793.9 357.63,784.88 362.33,777.37Z" style="fill:rgb(229,192,158);fill-rule:nonzero;stroke:rgb(229,192,158);stroke-width:0.09px;"/>
                <path d="M800.08,852.91C800.64,850.24 803.78,850.15 805.94,849.79C815.71,849.23 825.66,849.87 835.02,852.86C842.8,853.91 848.78,859.85 852.52,866.4C855,870.84 855.38,876.03 856,880.99C856.67,887.31 857.86,893.62 857.38,900.01C856.41,912.23 855.95,924.56 853.17,936.55C850.88,945.2 848.99,954.05 845.08,962.16C842.37,967.66 836.09,971.19 829.98,970.4C825.75,969.82 821.55,968.81 817.59,967.23C813.8,965.4 809.9,962.37 809.27,957.94C808,951.09 808.41,944.04 809.16,937.16L809.88,937.22C819.54,937.52 829.14,940.06 838.83,938.86C837.4,937.21 835.5,936.19 833.33,936.03C827.67,935.61 822.56,932.96 817.03,931.97C814.5,931.52 811.23,930.12 811.46,927.05C811.18,919.04 811.53,911.03 811.53,903.03C811.7,899.84 811.29,896.12 813.72,893.64C814.98,892.04 817.18,892.52 818.96,892.38C824.56,892.48 830.16,892.72 835.77,892.61C835.72,892.04 835.63,890.9 835.58,890.33C827.22,887.63 818.33,887.69 809.77,886.05C805.54,884.94 802.16,881.87 799.06,878.94C795.73,875.91 796.36,871.01 796.96,867.03C797.86,862.29 798.56,857.49 800.08,852.91Z" style="fill:rgb(229,192,158);fill-rule:nonzero;stroke:rgb(229,192,158);stroke-width:0.09px;"/>
                <path d="M151.82,503.24C158.03,500.92 165.51,499.96 171.48,503.46C176.12,506.01 181.22,508.91 183.33,514.06C184.41,515.94 182.12,518.63 180.21,517.13C175.74,513.87 172.07,509.54 167.13,506.91C162.56,504.03 157.04,503.75 151.82,503.24Z" style="fill:rgb(6,3,1);fill-rule:nonzero;stroke:rgb(6,3,1);stroke-width:0.09px;"/>
                <path d="M219.72,520.82C229.28,515.42 240.11,512.51 250.94,511.02C259.55,509.99 268.28,510.88 276.8,512.25C290.99,515.58 304.44,522.09 315.86,531.16C322.08,536.48 326.82,543.36 330.45,550.65C333.37,556.28 333.72,562.81 333.37,569.03C333,577.05 329.23,584.4 325.16,591.14C320.3,598.78 312.71,604.22 304.42,607.6C304.36,608.07 304.26,609.02 304.21,609.49C312.22,611.45 320.2,613.58 328.13,615.85C337.15,618.66 346.53,620.29 355.3,623.91C376.09,630.81 396.65,638.42 417.69,644.56C421.07,645.42 423.96,647.46 426.35,649.96C422.32,650.79 418.3,651.77 414.59,653.59C404.74,658.18 394.08,660.52 383.77,663.78C368.41,669.19 352.31,672.89 335.99,673.45C326.06,673.42 316.07,674.28 306.2,672.83C297.15,671.42 288.01,670.52 279.17,668.03C269.98,666.38 261.18,663.16 252.63,659.49C235.08,651.46 221.64,636.92 210.13,621.82C205.13,615.38 201.72,607.93 198.27,600.59C196.8,597.68 196.55,594.4 196.72,591.19C200.38,590.85 204.06,590.64 207.73,590.37C202.68,584.21 196.74,578.03 195.43,569.84C194.22,561.88 193.98,553.4 196.74,545.72C201.53,535.26 210.23,527.06 219.72,520.82M246.42,517.4C239.87,518.5 233.26,520.02 227.46,523.38C219.99,527.6 212.55,532.42 207.33,539.37C200.42,547.37 199.24,558.96 201.21,569.01C202.64,577.85 209.52,584.47 216.34,589.64C219.57,591.87 222.99,594.18 226.99,594.63C244.99,597.54 263.08,600.15 280.84,604.36C285.53,605.16 290.32,604.56 295.02,604.18C300.49,603.67 305.12,600.49 309.76,597.83C312.89,596.08 315.82,593.89 318.02,591.02C324.84,582.37 328.66,571.04 327.19,560.01C325.77,549.27 318.36,540.48 310.37,533.71C304.06,529.95 298.28,525.11 291.22,522.79C277.22,516.79 261.44,514.92 246.42,517.4M203.05,597.77C206.19,604.48 209.2,611.38 213.79,617.25C221.31,626.32 228.3,636.01 237.54,643.46C244.02,648.74 251.6,652.38 259.1,655.95C268.59,660.42 279.01,662.14 289.12,664.61C306.19,667.72 323.69,669.23 341.01,667.43C360.58,666.52 378.98,659.32 397.47,653.52C401.67,651.93 406.2,651.19 410.15,648.97C403.64,647.16 397.65,643.97 391.22,641.94C385.39,639.94 379.22,638.97 373.57,636.43C366.24,633.3 358.57,631.09 350.93,628.9C340.35,624.95 329.5,621.7 318.44,619.4C304.58,615.45 290.58,611.88 276.42,609.18C273.62,614.28 270.39,619.15 266.6,623.58C265.41,624.87 264.03,626.53 262.05,626.24C259.45,625.92 257.76,623.66 256.27,621.74C252.5,616.38 249.06,610.78 245.74,605.13C244.65,602.98 242.04,602.69 239.94,602.21C234.36,601.19 228.69,600.85 223.12,599.82C216.48,598.78 209.82,596.74 203.05,597.77M252.4,605.38C255.41,610.1 257.91,615.23 261.92,619.23C264.82,615.62 270.75,612.14 268.55,606.77C263.12,606.76 257.85,604.61 252.4,605.38Z" style="fill:rgb(5,3,1);fill-rule:nonzero;stroke:rgb(5,3,1);stroke-width:0.09px;"/>
                <path d="M442.64,545.77C445.23,544.51 448.85,543.54 451.22,545.74C453.34,549.99 453.75,556.8 448.95,559.41C447.02,559.83 444.97,559.85 443.07,559.32C438.75,556.27 438.55,549.1 442.64,545.77Z" style="fill:rgb(2,2,2);fill-rule:nonzero;stroke:rgb(2,2,2);stroke-width:0.09px;"/>
                <path d="M257.48,561.66C260.7,560.36 264.42,560.6 267.22,562.77C270.52,564.56 270.54,569.17 269.14,572.22C265.7,576.45 259.06,576.4 254.98,573.11C250.3,570.44 252.38,562.54 257.48,561.66Z" style="fill:rgb(2,2,2);fill-rule:nonzero;stroke:rgb(2,2,2);stroke-width:0.09px;"/>
                <path d="M519.92,570C523.14,567.03 527.02,564.88 530.95,563C529.33,567.63 527.59,572.67 523.6,575.82C520.58,577.79 517,571.95 519.92,570Z" style="fill:rgb(119,100,79);fill-rule:nonzero;stroke:rgb(119,100,79);stroke-width:0.09px;"/>
                <path d="M203.05,597.77C209.82,596.74 216.48,598.78 223.12,599.82C228.69,600.85 234.36,601.19 239.94,602.21C242.04,602.69 244.65,602.98 245.74,605.13C249.06,610.78 252.5,616.38 256.27,621.74C257.76,623.66 259.45,625.92 262.05,626.24C264.03,626.53 265.41,624.87 266.6,623.58C270.39,619.15 273.62,614.28 276.42,609.18C290.58,611.88 304.58,615.45 318.44,619.4C329.5,621.7 340.35,624.95 350.93,628.9C358.57,631.09 366.24,633.3 373.57,636.43C379.22,638.97 385.39,639.94 391.22,641.94C397.65,643.97 403.64,647.16 410.15,648.97C406.2,651.19 401.67,651.93 397.47,653.52C378.98,659.32 360.58,666.52 341.01,667.43C323.69,669.23 306.19,667.72 289.12,664.61C279.01,662.14 268.59,660.42 259.1,655.95C251.6,652.38 244.02,648.74 237.54,643.46C228.3,636.01 221.31,626.32 213.79,617.25C209.2,611.38 206.19,604.48 203.05,597.77Z" style="fill:rgb(135,72,71);fill-rule:nonzero;stroke:rgb(135,72,71);stroke-width:0.09px;"/>
                <path d="M252.4,605.38C257.85,604.61 263.12,606.76 268.55,606.77C270.75,612.14 264.82,615.62 261.92,619.23C257.91,615.23 255.41,610.1 252.4,605.38Z" style="fill:rgb(251,251,252);fill-rule:nonzero;stroke:rgb(251,251,252);stroke-width:0.09px;"/>
                <path d="M271.66,667.76C274.16,667.77 276.67,667.8 279.17,668.03C288.01,670.52 297.15,671.42 306.2,672.83C303.35,673.07 300.54,673.56 297.74,674.09C301.57,674.81 305.42,675.52 309.19,676.55C308.6,676.62 307.44,676.77 306.85,676.84C300.13,677.12 293.63,675.04 287.1,673.81C282.7,672.7 278.02,672.21 273.98,670.08C273.19,669.31 272.41,668.54 271.66,667.76Z" style="fill:rgb(199,174,153);fill-rule:nonzero;stroke:rgb(199,174,153);stroke-width:0.09px;"/>
                <path d="M269.49,681.2C275.57,682.25 280.49,686.17 285.63,689.27C295.98,696.06 306.63,702.37 317.3,708.62C319.44,710.01 322.56,710.81 323.25,713.61C324.67,718.44 324.58,723.55 324.33,728.54C317.98,727.25 311.87,725.03 306.19,721.93C297.43,717.54 287.75,715.57 278.26,713.51C275.33,713.14 275.3,709.62 274.51,707.45C272.69,698.74 269.12,690.23 269.49,681.2Z" style="fill:rgb(228,192,158);fill-rule:nonzero;stroke:rgb(228,192,158);stroke-width:0.09px;"/>
                <path d="M346.37,712.5C351.01,710.71 356,709.89 360.97,709.83C362,713.77 362.74,717.84 362.32,721.94C361.56,730.62 360.98,739.31 360.34,748.01C358.26,747.36 356.19,746.7 354.18,745.89C347.48,741.76 340.45,738.21 333.58,734.4C330.95,733.33 331.4,730.24 331.36,727.95C331.1,724.8 333.88,722.83 335.83,720.83C339.19,717.89 342.25,714.4 346.37,712.5Z" style="fill:rgb(243,226,115);fill-rule:nonzero;stroke:rgb(243,226,115);stroke-width:0.09px;"/>
                <path d="M244.61,738.99C245.61,730.85 250.76,722.37 259.15,720.3C270.44,717.82 281.94,720.36 292.91,723.15C305.74,727.88 318.28,733.39 330.61,739.29C339.92,744.4 349.28,749.42 358.65,754.41C362.05,756.65 365.9,758.36 368.62,761.48C358.67,767.38 353.32,778.56 350.81,789.47C348.93,796.24 349.98,803.31 349.01,810.2C348.15,816.13 348.83,822.13 348.82,828.1C342.23,824.66 336.45,819.9 330.46,815.55C323.5,810.1 316.08,805.29 309.12,799.86C307.32,798.42 305.18,797.55 303.03,796.84C307.73,802.85 313.95,807.38 319.71,812.31C326.31,817.35 331.91,823.56 338.74,828.33C342.83,831.19 346.83,834.2 351.03,836.89C353.27,838.16 355.63,839.18 357.98,840.23C358.62,846.79 359.49,853.36 359.33,859.97C359.09,871.64 359.65,883.31 359.63,894.99C359.58,901.98 361.24,908.8 362.15,915.7C362.5,923.07 362.37,930.47 362.21,937.86C352.48,938.26 342.73,938.71 333,938.32C330.41,938.47 330.1,935.49 329.27,933.72C325.13,921.86 318.63,911.07 312.94,899.95C310.85,894.05 307.36,888.84 304.87,883.14C299.37,871.04 293.27,859.2 288.12,846.94C283.9,836.38 277.46,826.86 273.71,816.1C268.82,806.75 263.65,797.53 259.16,787.98C255.63,778.8 250.84,770.18 246.84,761.21C243.74,754.23 244.29,746.42 244.61,738.99Z" style="fill:rgb(243,226,115);fill-rule:nonzero;stroke:rgb(243,226,115);stroke-width:0.09px;"/>
                <path d="M360.97,709.83C366.69,710.33 372.49,710.84 377.87,713.01C398.19,720.84 418.53,728.59 438.97,736.08C444.45,738.89 450.51,740.33 455.93,743.22C454.8,747.04 450.77,749.3 448.55,752.56C441.75,762.17 439.12,773.84 435.71,784.91C432.53,784.07 429.4,783.03 426.39,781.71C414.73,776.66 402.84,772.15 391.31,766.81C389.77,766.05 388.03,765.33 387.23,763.71C383.41,756.88 382.36,749.03 380.39,741.58C379.53,737.61 376.12,735.18 372.97,733.05C372.96,741.36 376.25,749.18 376.66,757.44C372.94,756.01 369.57,753.89 366.22,751.77C362.46,749.14 356.85,750.19 354.18,745.89C356.19,746.7 358.26,747.36 360.34,748.01C360.98,739.31 361.56,730.62 362.32,721.94C362.74,717.84 362,713.77 360.97,709.83Z" style="fill:rgb(54,54,54);fill-rule:nonzero;stroke:rgb(54,54,54);stroke-width:0.09px;"/>
                <path d="M368.51,834.54C370.42,831.97 372.02,829.18 373.88,826.57C378.43,828.25 382.76,830.46 386.86,833.07C391.86,836.25 397.65,838.02 402.47,841.52C405.4,843.55 406.58,847.07 407.83,850.24C417.15,875.12 426.64,899.94 436.25,924.71C437.88,928.3 439.29,932.01 440.03,935.91C432.72,937.07 425.3,936.04 417.96,936.98C404.46,937 390.95,937.41 377.45,937.35C372.65,937.29 367.86,937.48 363.08,937.83C362.37,930.47 363.15,923.04 362.15,915.7C361.24,908.8 359.58,901.98 359.63,894.99C359.65,883.31 359.09,871.64 359.33,859.97C359.49,853.36 358.62,846.79 357.98,840.23C355.63,839.18 353.27,838.16 351.03,836.89C354.16,837.32 357.27,838.19 359.72,840.29C362.87,838.78 366.32,837.4 368.51,834.54Z" style="fill:rgb(54,54,54);fill-rule:nonzero;stroke:rgb(54,54,54);stroke-width:0.09px;"/>
                <path d="M370.62,766.53C372.9,765.04 375.4,766.55 377.59,767.41C384.83,770.64 392.15,773.65 399.53,776.52C412.24,782.38 425.47,786.97 438.21,792.77C448.14,797.42 458.72,800.52 468.59,805.32C476.39,808.52 484.07,812.01 491.97,814.97C500.01,818.13 507.79,821.93 515.88,824.98C518,825.77 520.02,826.85 521.91,828.13C512.17,825.41 503.17,820.75 493.79,817.08C475.78,809.81 458.03,801.95 439.94,794.88C422.04,786.95 403.73,780 385.8,772.15C381.35,770.35 376.95,767.84 372.06,767.65C367.39,768.89 364.89,773.64 362.33,777.37C357.63,784.88 356.55,793.9 355.37,802.5C355.34,804.75 354.48,807.74 356.69,809.27C360.57,812.28 365.13,814.22 369.28,816.79C378.13,822.21 387.75,826.18 396.75,831.31C427.07,846.81 456.69,863.84 484.4,883.65C492.52,889.01 499.77,895.53 507.13,901.87C510.74,904.96 515.92,906.22 518.33,910.63C526.65,924.07 534.65,937.87 545.33,949.62C550.73,955.66 556.37,962.09 564.12,965.08C571.76,968.14 579.97,969.23 587.92,971.22C595.19,973.02 602.55,970.98 609.78,970.05C613.37,969.52 617.05,969.52 620.57,968.56C623.38,967.75 624.72,964.82 625.33,962.21C626.7,956.35 627.27,950.3 627.05,944.29C619.68,943.67 612.39,942.47 605.23,940.64C599.25,939.05 592.33,939.5 587.46,935.09C600.71,932.68 613.99,937.04 627.29,936.4C628.17,928.33 627.32,920.21 626.85,912.14C626.15,904.33 625.84,896.45 624.26,888.76C617.17,888.62 610.1,888.13 603.04,887.55C597.11,887.01 591.04,886.33 585.64,883.65C589.66,883.16 593.71,882.87 597.76,882.77C602.64,882.67 607.55,882.61 612.4,883.36C607.28,884.9 601.88,884.01 596.65,884.6C600.71,886.8 605.54,886.23 609.99,886.94C614.75,887.74 619.6,887.09 624.37,887.61C626.73,890.46 626.58,894.5 627.26,897.98C628.55,905.71 627.6,913.59 628.74,921.34C629.26,926.72 629.75,932.27 628.54,937.6C626.24,938.4 623.77,937.92 621.42,937.73C614.69,936.84 607.92,936.43 601.17,935.82C598.75,935.57 596.33,935.88 593.95,936.3C599.67,938.96 606.06,939.24 612.08,940.87C617.3,942.26 622.7,942.81 628.09,943.03C628.84,945.42 629.27,947.95 628.71,950.45C627.68,955.75 627.32,961.25 625.36,966.32C623.98,969.52 620.11,969.98 617.08,970.38C606.23,971.31 595.18,975.25 584.39,971.81C577.47,970.07 570.44,968.71 563.66,966.47C555.9,964.04 550.73,957.32 545.32,951.67C537.26,943.1 530.98,933.12 524.59,923.3C520.7,917.4 517.97,910.11 511.26,906.77C501.9,899.54 493.45,891.06 483.49,884.57C478.86,881.59 474.66,878 470.01,875.05C460.23,869.22 450.98,862.54 440.94,857.16C431.26,850.95 420.95,845.82 411.01,840.05C392.71,830.37 373.95,821.51 356.29,810.67C352.7,808.84 354.07,804.38 354.19,801.18C355.18,793.86 356.54,786.42 359.58,779.65C362.45,774.75 365.45,769.33 370.62,766.53Z" style="fill:rgb(103,73,45);fill-rule:nonzero;stroke:rgb(103,73,45);stroke-width:0.09px;"/>
                <path d="M638.09,770.31C648.67,769.07 659.2,766.59 669.92,767.61C670.17,768.07 670.66,768.98 670.91,769.43C662.99,770.74 655.79,774.36 648.41,777.31C643.36,779.32 639.03,782.66 634.34,785.32C626.09,790.1 619.48,797.11 613.06,804.04C605.61,811.48 601.88,821.58 595.75,829.95C589.22,831.11 582.52,830.02 575.95,829.67C573.42,829.43 570.18,829.49 568.8,826.9C568,822.74 568.38,818.19 570.56,814.48C574.96,806.88 580.64,800.03 587.44,794.46C595.96,786.2 606.75,780.82 617.89,777.02C624.65,774.87 630.97,771.25 638.09,770.31Z" style="fill:rgb(224,213,134);fill-rule:nonzero;stroke:rgb(224,213,134);stroke-width:0.09px;"/>
                <path d="M683.99,771.86C689.96,771.04 695.96,770.36 702.01,770.48C713.82,770.56 725.84,769.6 737.4,772.67C751.78,775.34 765.96,779.86 778.58,787.38C797.27,798.87 813.35,815.15 822.96,835.01C824.66,838.34 825.66,841.97 826.22,845.67C818.47,845.57 810.72,845.17 802.97,845.39C800.97,845.57 798.41,845.35 797.19,847.29C793.89,851.66 793.85,857.36 792.71,862.5C791.32,868.86 789.823,877.308 791.72,881.87C793.605,886.404 799.45,888.07 804.09,889.87C805.15,890.54 806.84,890.73 807.29,892.1C807.74,895.49 806.68,898.83 806.1,902.14C804.13,910.78 806.73,919.79 804.23,928.36C801.96,935.69 802.62,943.43 802.44,950.99C802.25,956.37 803.69,961.81 806.74,966.27C808.78,969.28 812.42,970.58 814.78,973.29C814.88,976.05 812.7,978.11 811.15,980.15C807.54,984.19 804.15,988.68 799.34,991.36C793.66,994.07 787.03,991.02 781.26,993.45C777.69,994.83 775.12,997.95 771.59,999.37C767.46,1000.34 763.18,1000.35 758.97,1000.39C755.54,1000.54 752.44,998.89 749.13,998.4C745.05,999.04 741.56,1001.5 737.68,1002.79C732.72,1004.83 727.28,1005.02 722,1005.32C705.97,1005.3 689.97,1006.23 673.95,1006.61C669.94,1007.19 666.49,1004.85 663.86,1002.1C660.95,998.87 656.34,998.66 652.4,997.61C646.4,996.08 640.75,999.38 634.98,1000.4C631.63,1000.91 628.77,998.68 626.45,996.58C622.81,993.21 619.07,989.95 615.61,986.4C613.27,983.83 610.57,981.25 609.98,977.66C615.8,976.38 621.82,975.56 627.33,973.16C630.09,972.06 630.45,968.75 631.22,966.28C633.44,956.69 634.9,946.85 634.59,936.99C634.41,929.39 635.08,921.74 633.93,914.2C633.25,909.16 633.73,904.04 632.76,899.04C632.02,895.14 631.48,891.2 631.62,887.23C640.87,884.1 647.12,874.71 647.2,865.05C646.91,859.04 646.63,852.8 643.81,847.35C641.31,842.07 637.68,836.4 631.52,835.14C622.81,831.58 613.3,831.43 604.03,831.5C604.44,825.2 609.12,820.5 612.5,815.55C616.55,809.41 621.47,803.89 626.74,798.79C637.09,789.95 648.83,782.52 661.64,777.83C669.12,775.95 676.26,772.69 683.99,771.86M689.78,798.81C687.03,807.8 688.34,817.28 687.58,826.52C673.93,828.92 660,827.63 646.31,829.53C645.23,836.74 646.04,844.09 648.02,851.07C656.71,851.33 665.39,850.13 674.08,850.84C675.29,861.84 674.84,872.92 675.22,883.96C675.54,901.97 674.88,919.96 674.82,937.96C667.4,938.05 659.92,936.13 652.55,937.59C649.53,938.08 648.92,941.52 647.85,943.87C646.01,949.3 642.92,954.26 641.8,959.94C656.69,961.83 671.73,961.25 686.7,961.29C686.86,969.91 685.2,978.46 685.8,987.07C691.51,987.67 697.35,987.61 702.87,985.83C704.15,978.11 703.49,970.19 705.36,962.56C709.52,962 713.71,961.71 717.92,961.81C718.5,969.42 718.02,977.06 718.46,984.68C723.96,986.03 729.95,986.32 735.34,984.31C736.95,982.27 736.71,979.47 736.89,977.04C736.87,970.57 736.69,964.09 737.52,957.66C745.94,956.35 754.08,953.53 761.65,949.63C771.09,944.55 778.47,935.6 781.01,925.12C783.08,916.59 784.34,907.04 780.16,898.92C778.15,893.92 773.67,890.73 769.86,887.2C777.77,879.53 780.88,868.41 781.63,857.72C781.67,850.79 778.45,844.17 774.1,838.92C771.53,835.85 768.85,832.56 765.02,831.06C759.09,828.72 752.74,827.7 746.47,826.81C748.31,820.42 747.09,813.69 748.37,807.21C748.57,804.73 749.58,800.69 746.33,799.81C739.69,799.09 732.99,798.68 726.31,798.21C723.36,807.47 724.77,817.26 723.81,826.77C718.85,827.51 713.85,827.94 708.84,828.11C707.82,817.82 709.66,807.51 709.01,797.23C702.58,797.52 696.08,797.29 689.78,798.81Z" style="fill:rgb(248,234,148);fill-rule:nonzero;stroke:rgb(248,234,148);stroke-width:0.09px;"/>
                <path d="M708.48,848.47C718.46,847.97 729.08,847.25 738.37,851.65C743.68,854.13 746.51,860.25 745.92,865.96C745.55,870.1 745.1,874.85 741.84,877.83C738.35,880.81 733.63,881.55 729.26,882.29C723.53,883.03 717.78,883.71 712,883.72C710.51,883.54 708.51,883.92 707.68,882.34C706.78,878.21 707.37,873.95 707.58,869.78C708.23,862.69 708.19,855.57 708.48,848.47Z" style="fill:rgb(248,234,148);fill-rule:nonzero;stroke:rgb(248,234,148);stroke-width:0.09px;"/>
                <path d="M708.25,900.97C717.15,900.6 726.1,900.66 735,901.13C741.13,901.27 746.99,904.54 750.4,909.62C753.09,914.07 753.87,919.64 752.63,924.69C751.28,929.79 746.79,933.45 741.93,935.04C736.54,937.17 730.66,936.7 725,936.65C718.93,936.49 712.83,937.13 706.81,936.19C707.74,924.46 707.6,912.7 708.25,900.97Z" style="fill:rgb(248,234,148);fill-rule:nonzero;stroke:rgb(248,234,148);stroke-width:0.09px;"/>
                <path d="M689.78,798.81C696.08,797.29 702.58,797.52 709.01,797.23C709.66,807.51 707.82,817.82 708.84,828.11C713.85,827.94 718.85,827.51 723.81,826.77C724.77,817.26 723.36,807.47 726.31,798.21C732.99,798.68 739.69,799.09 746.33,799.81C749.58,800.69 748.57,804.73 748.37,807.21C747.09,813.69 748.31,820.42 746.47,826.81C752.74,827.7 759.09,828.72 765.02,831.06C768.85,832.56 771.53,835.85 774.1,838.92C778.45,844.17 781.67,850.79 781.63,857.72C780.88,868.41 777.77,879.53 769.86,887.2C773.67,890.73 778.15,893.92 780.16,898.92C784.34,907.04 783.08,916.59 781.01,925.12C778.47,935.6 771.09,944.55 761.65,949.63C754.08,953.53 745.94,956.35 737.52,957.66C736.69,964.09 736.87,970.57 736.89,977.04C736.71,979.47 736.95,982.27 735.34,984.31C729.95,986.32 723.96,986.03 718.46,984.68C718.02,977.06 718.5,969.42 717.92,961.81C713.71,961.71 709.52,962 705.36,962.56C703.49,970.19 704.15,978.11 702.87,985.83C697.35,987.61 691.51,987.67 685.8,987.07C685.2,978.46 686.86,969.91 686.7,961.29C671.73,961.25 656.69,961.83 641.8,959.94C642.92,954.26 646.01,949.3 647.85,943.87C648.92,941.52 649.53,938.08 652.55,937.59C659.92,936.13 667.4,938.05 674.82,937.96C674.88,919.96 675.54,901.97 675.22,883.96C674.84,872.92 675.29,861.84 674.08,850.84C665.39,850.13 656.71,851.33 648.02,851.07C646.04,844.09 645.23,836.74 646.31,829.53C660,827.63 673.93,828.92 687.58,826.52C688.34,817.28 687.03,807.8 689.78,798.81M708.48,848.47C708.19,855.57 708.23,862.69 707.58,869.78C707.37,873.95 706.78,878.21 707.68,882.34C708.51,883.92 710.51,883.54 712,883.72C717.78,883.71 723.53,883.03 729.26,882.29C733.63,881.55 738.35,880.81 741.84,877.83C745.1,874.85 745.55,870.1 745.92,865.96C746.51,860.25 743.68,854.13 738.37,851.65C729.08,847.25 718.46,847.97 708.48,848.47M708.25,900.97C707.6,912.7 707.74,924.46 706.81,936.19C712.83,937.13 718.93,936.49 725,936.65C730.66,936.7 736.54,937.17 741.93,935.04C746.79,933.45 751.28,929.79 752.63,924.69C753.87,919.64 753.09,914.07 750.4,909.62C746.99,904.54 741.13,901.27 735,901.13C726.1,900.66 717.15,900.6 708.25,900.97Z" style="fill:rgb(169,163,105);fill-rule:nonzero;stroke:rgb(169,163,105);stroke-width:0.09px;"/>
                <path d="M358.2,833.04C355,827.8 353.18,821.14 355.61,815.24C360.33,817.29 364.61,820.15 368.77,823.16C367.36,828.01 364.1,833.74 358.2,833.04Z" style="fill:rgb(184,174,97);fill-rule:nonzero;stroke:rgb(184,174,97);stroke-width:0.09px;"/>
                <path d="M833.33,936.03C835.5,936.19 837.4,937.21 838.83,938.86C829.14,940.06 819.54,937.52 809.88,937.22C817.12,935.79 824.41,937.6 831.66,937.95C832.08,937.47 832.91,936.51 833.33,936.03Z" style="fill:rgb(126,99,75);fill-rule:nonzero;stroke:rgb(126,99,75);stroke-width:0.09px;"/>
                <path d="M577.83,977.14C580.43,977.11 583.04,977.14 585.65,977.16C585.23,977.67 584.81,978.19 584.4,978.72C588.94,978.69 593.51,978.5 598.05,978.92C601.07,978.89 602.39,981.93 604.1,983.89C607.39,988.62 612.78,991.59 615.18,996.98C609,995.7 603.02,993.63 596.89,992.15C592.48,991.16 589.08,988.05 585.71,985.27C582.79,982.85 580.14,980.14 577.83,977.14Z" style="fill:rgb(221,212,135);fill-rule:nonzero;stroke:rgb(221,212,135);stroke-width:0.09px;"/>
                <path d="M565.86,993.54C566.4,993.56 567.48,993.59 568.02,993.61C576.03,994.48 584.08,994.92 592.15,994.72C590.3,995.94 588.48,997.21 586.61,998.38C578.03,998.39 569.47,997.19 560.89,997.68C555.86,997.82 552.6,1003.54 547.42,1002.59C546.001,1002.4 544.596,1002.15 543.2,1001.85C538.95,1000.96 534.778,999.685 530.51,998.88C534.74,998.64 538.98,998.46 543.2,998.95C545.37,999.12 547.66,999.6 549.8,998.94C552.74,997.55 555.03,994.95 558.25,994.15C560.74,993.56 563.31,993.57 565.86,993.54Z" style="fill:rgb(15,15,15);fill-rule:nonzero;stroke:rgb(15,15,15);stroke-width:0.09px;"/>
                <path d="M603.89,1006.88C605.9,1004.87 608.6,1003.86 611.22,1002.9C613.49,1004.49 616.15,1005.31 618.79,1006.05C615.81,1005.57 612.61,1005.53 609.86,1006.93C606,1008.77 603.48,1012.36 600.94,1015.64C603.2,1017.09 608.45,1018.61 606.26,1022.17C601.86,1025.85 596.36,1027.92 591.64,1031.16C594.47,1033.3 597.4,1035.33 600.2,1037.53C596.38,1036.72 592.38,1036 589.11,1033.74C587.66,1032.79 587.41,1030.79 587.73,1029.24C592.22,1025.59 597.78,1023.63 602.78,1020.79C598.18,1019.59 593.28,1019.29 589.01,1017.06C586.42,1015.8 583.78,1014.39 580.85,1014.24C576.38,1013.87 572.4,1016.49 567.99,1016.63C564.96,1016.94 561.68,1016.37 558.88,1017.82C555.61,1019.87 553.51,1023.31 550.31,1025.47C550.07,1025.6 549.58,1025.86 549.33,1025.99C548.95,1025.89 548.18,1025.68 547.79,1025.57C548.19,1025.06 548.97,1024.03 549.37,1023.52C551.47,1020.71 553.29,1017.71 555.15,1014.75C552.65,1014.65 550.15,1014.57 547.65,1014.45C552.44,1011.09 558.37,1011.88 563.86,1011.42C565.22,1012.15 566.54,1012.99 568.01,1013.53C572.14,1012.74 575.9,1010.06 580.25,1010.48C585.6,1011.04 590.55,1013.61 595.92,1014.08C599.19,1012.47 601.21,1009.24 603.89,1006.88Z" style="fill:rgb(10,10,10);fill-rule:nonzero;stroke:rgb(10,10,10);stroke-width:0.09px;"/>
                <path d="M631.96,1010.03C634.17,1015.52 637.82,1020.22 642.04,1024.33C648.33,1022.12 654.85,1020.69 661.45,1019.81C661.51,1020.26 661.62,1021.16 661.68,1021.6C664.03,1021.61 666.38,1021.62 668.74,1021.54C672.57,1021.44 676.5,1020.69 680.27,1021.8C685.28,1023.27 689.9,1025.76 694.71,1027.77C694.67,1027.39 694.6,1026.63 694.56,1026.25C695.59,1028.22 697.11,1029.88 698.89,1031.22C690.2,1031.77 681.23,1034.63 675.51,1041.55C673.51,1043.47 671.78,1047.73 675.19,1049.18C679.82,1049.62 684.25,1047.48 688.87,1047.56C690.46,1047.93 691.75,1049.01 693.12,1049.87C697.48,1052.95 702.35,1055.18 706.94,1057.9C700.2,1056.81 694.09,1053.8 687.91,1051.19C681.48,1051.41 675.41,1053.92 669.64,1056.57C667.18,1057.51 664.65,1058.29 662.03,1058.56C661.44,1058.5 660.27,1058.38 659.69,1058.32C660.11,1058.12 660.96,1057.72 661.38,1057.52C664.02,1056.19 666.8,1055.08 669.18,1053.3C670.16,1049.12 669.39,1044.47 671.68,1040.65C676.21,1034.07 683.91,1029.62 692.07,1030.38C687.25,1028.78 682.8,1026.21 677.89,1024.93C672.46,1023.81 667.53,1027.56 662.21,1027.49C657.01,1026.39 651.54,1023.9 646.4,1026.74C647.84,1027.76 649.32,1028.78 650.81,1029.76C647.46,1029.66 643.44,1028.14 640.6,1030.61C634.63,1035.66 632.74,1043.81 627.28,1049.28C624.34,1052.27 620.03,1053.01 616.03,1053.28C616.03,1052.77 616.05,1051.75 616.05,1051.23C619.08,1050.07 622.27,1048.97 624.72,1046.74C628.09,1043.65 630.09,1039.4 631.39,1035.09C625.91,1032.53 619.78,1032.62 613.97,1031.42C620.51,1029.94 627.68,1029.37 633.84,1032.56C635.58,1030.45 637.34,1028.36 639.1,1026.26C636.68,1023.59 634.06,1021.01 632.4,1017.78C632.61,1015.19 632.64,1012.55 631.96,1010.03M661.8,1023.23C661.38,1024.69 663.84,1024.93 664.31,1023.77C664.71,1022.29 662.25,1022.02 661.8,1023.23Z" style="fill:rgb(10,10,10);fill-rule:nonzero;stroke:rgb(10,10,10);stroke-width:0.09px;"/>
                <path d="M863.79,1006C874.88,1007.75 886.12,1008.3 897.16,1010.34C889.33,1010.58 881.51,1009.99 873.69,1009.89C876.55,1012.82 879.7,1015.45 882.93,1017.97C878.52,1016.2 874.21,1014.24 869.94,1012.19C870.66,1011.27 871.39,1010.37 872.13,1009.48C869.48,1008.03 866.73,1006.73 863.79,1006Z" style="fill:rgb(57,57,57);fill-rule:nonzero;stroke:rgb(57,57,57);stroke-width:0.09px;"/>
                <path d="M796.83,1006.85C799.65,1007.72 803.54,1008.59 804.12,1012.07C805.54,1019.96 798.73,1026.01 797.88,1033.56C806.63,1038.35 816.72,1039.37 826.4,1040.99C825.13,1041.43 823.87,1041.89 822.63,1042.37C813.74,1041.57 804.98,1039.45 796.02,1039.51C797.84,1042.09 799.49,1044.81 800.63,1047.77C797.62,1045.45 793.66,1043.67 792.11,1040.01C792.9,1038.4 794.04,1037.01 795.11,1035.6C793.42,1028.27 798.89,1022.36 800.74,1015.73C801.61,1013.07 798.95,1011.36 797.32,1009.81C797.2,1009.07 796.95,1007.59 796.83,1006.85Z" style="fill:rgb(11,11,11);fill-rule:nonzero;stroke:rgb(11,11,11);stroke-width:0.09px;"/>
                <path d="M785.65,1012C787.5,1012.86 789.81,1013.69 790.24,1016C789.64,1018.27 787.39,1019.43 785.42,1020.35C775.55,1024.53 765.12,1027.14 755.04,1030.75C759.81,1037.14 760.24,1047.61 769.19,1049.98C768.57,1050.32 767.34,1051 766.72,1051.34C758.71,1049.29 756.07,1040.98 753.29,1034.22C748.58,1033.43 746.91,1038.82 742.78,1039.69C738.51,1040.87 734.22,1041.95 729.88,1042.82C727.88,1042.86 725.88,1042.8 723.89,1042.76C724.97,1042.2 726.06,1041.64 727.18,1041.15C732.51,1039.76 737.78,1038.14 742.93,1036.19C742.86,1034.15 741.92,1031.44 744.21,1030.27C749.25,1027.1 755.48,1026.98 761,1025C769.5,1022.16 778.21,1019.85 786.45,1016.26C784.64,1015.49 782.84,1014.77 781.01,1014.11C782.55,1013.4 784.1,1012.7 785.65,1012Z" style="fill:rgb(8,8,8);fill-rule:nonzero;stroke:rgb(8,8,8);stroke-width:0.09px;"/>
                <path d="M703.73,1020.83C709.03,1022.41 713.87,1025.21 719.19,1026.76C723.58,1028.01 728.09,1028.81 732.45,1030.18C731.14,1030.35 729.85,1030.6 728.56,1030.83C722.69,1030.3 716.88,1029.14 711.18,1027.66C707.83,1026.69 703.49,1025.05 703.73,1020.83Z" style="fill:rgb(18,18,18);fill-rule:nonzero;stroke:rgb(18,18,18);stroke-width:0.09px;"/>
            </g>
        </g>
    </g>
</svg>
