<svg xmlns="http://www.w3.org/2000/svg" width="352" height="348" viewBox="0 0 264 261"><g fill="#010101"><path d="m102.28 1.27c10.51-1.34 21.15-1.07 31.72-.91 6.65.51 13.39-.55 19.96.86 8.07 1.56 16.53 2.11 23.94 5.98 4.86 2.51 10 4.46 14.85 7 15.76 8.87 30.83 19.6 42.16 33.87 7.33 10.98 15.94 21.46 20.01 34.23 3.24 10.34 5.97 20.87 7.84 31.55.4 7.37.34 14.76.51 22.15-.06 5.83.33 11.83-1.6 17.44-1.87 5.71-2.04 11.81-3.85 17.54-2.95 9.68-6.41 19.35-11.96 27.89-3.09 4.82-7.17 8.9-10.5 13.55-2.08 2.89-3.67 6.13-6.09 8.78-2.7 2.98-5.86 5.5-8.78 8.26-5.38 5.18-12.15 8.53-17.99 13.13-5.38 4.19-12.1 5.87-18.25 8.56-2.96 1.25-5.47 3.48-8.67 4.17-26.75 6.44-55.09 6.77-81.83.03-4.46-1.09-8.25-3.82-12.41-5.65-14.3-6.45-28.21-14.46-39.3-25.7-6.74-6.64-14.05-13-18.53-21.47-12.1-18.29-20.61-39.43-21.7-61.49-.56-8.71-1.67-17.46-.69-26.19.4-4.34 1.79-8.53 1.89-12.91.18-7.46 3.14-14.43 5.82-21.27 4.54-11.28 9.62-22.58 17.27-32.12 2.81-5.16 6.89-9.52 11.8-12.72 14.43-11.83 29.18-24.7 47.68-29.46 5.51-1.87 10.83-4.5 16.7-5.1m3.63 15.6c-7.86 2.83-16.32 3.69-24 7.07-4.59 2.27-8.8 5.21-13.21 7.81-6.13 3.81-12.61 7.15-18.11 11.88-10.33 8.73-19.2 19.24-26.02 30.93-5.02 8.52-7.54 18.17-10.01 27.66-2.13 8.4-2.24 17.1-2.52 25.71.06 13.09 1.4 26.4 6.3 38.64 2.27 5.22 3.32 10.98 6.4 15.84 2.21 3.22 4.92 6.07 7.43 9.06.79-1.44 1.55-2.9 2.36-4.33 2.41 2.29.68 5.12.52 7.87 1.37 1.41 3.16 2.37 4.99 3.05 1.19-.21 1.93-1.27 2.86-1.93.29 1.12.59 2.25.88 3.37 2.38-2.11 5.35-4.04 8.48-2.06-1.42 2.16-3.18 4.12-4.14 6.54-.21 3.5 4.8 2.95 6.34 5.46 4.52 6.22 11.82 9.14 18.17 13.02 3.48 2.45 7.73-1.48 11.31.54 2.8 1.3 5.93 1.17 8.93 1.41 13.41 1.33 26.92 2.76 40.39 1.28 4.85-.71 9.93.99 14.63-.83 2.29-.81 3.88-2.75 5.64-4.31 1.66 1.81 4.08 2.6 6.5 2.07 2.88 0 3.97-3.25 6.47-4.12 3.19-1.38 7.56.24 9.95-2.87 1.54-2.48 3.03-5.84 1.48-8.64-6.91-7.81-14.32-15.65-23.91-20.13-2.59-1.01-4.08-4.83-7.26-3.62-6.58 1.53-12.94 4.39-19.85 3.89-5.35 1.19-9.69-2.61-14.41-4.33-3.48-1.42-7.5-1.83-10.99-.18-2.94 1.4-6.51 1.48-8.99 3.8-4.81 4.35-11.76 3.03-17.41 5.37-1.79.57-3.54 1.45-5.46 1.47-.64-1.1-.99-2.33-1.53-3.47-2.34-.95-4.82-1.53-7.16-2.48-1.23 1.46-2.38 2.98-3.69 4.37-1.02-3.02-.7-6.23-.8-9.35 2.32 1.31 4.61 2.69 6.85 4.14-.28-2.51-1.02-5.03-.71-7.57 1-2.53 3.15-4.32 5.38-5.76 1.34.47 2.68.92 4.04 1.36.08-.76.24-2.3.33-3.06 2.56-1.79 4.35-4.56 7.24-5.88 7.02-3.08 14.72-3.87 22.12-5.55 5.25-1.33 5.66-8.25 10.77-9.66 2.69-1.1 5.42-2.18 8.29-2.69 2.53.27 5.28 2.4 7.71.67 5.71-3.72 11.42-8.55 18.55-8.85 4.8.73 7.91 5.04 8.72 9.57 3.02.81 6.32 1.56 7.41 4.95 1.12 3.34 4.98 2.07 7.63 2.18 4.18 1.07 6 6.23 10.44 6.84 5.73.82 11.38 3.99 17.25 2.22 3.62-1.21 7.48-.54 11.21-.88.37.53 1.11 1.59 1.48 2.13 1.25-.96 2.45-2.01 3.8-2.84 4.17-1.19 4.5 6.53 8.97 4.78 4-2.2 7.08-5.77 10.66-8.58-.61-.86-1.21-1.72-1.81-2.57 1.79-.62 4.09-.81 5.13-2.64.86-1.25.33-2.87.47-4.27.32-.58.96-1.74 1.27-2.33 1.82.64 3.62 1.32 5.41 2.01-.74-4.6-1.13-9.51.92-13.86 1.21-3.77 5.09-6.81 4.19-11.09-1.13-6.88-1.85-13.83-3.38-20.63-.83.15-2.49.43-3.32.58-.05-.77-.16-2.3-.21-3.06.7-.22 2.11-.65 2.82-.87-1.62-10.71-6.8-20.52-12.91-29.33-2.48-3.74-6.25-6.4-8.64-10.23-9.53-14.62-24.77-23.96-39.45-32.7-3.99-2.76-8.81-3.84-12.97-6.27-7.09-3.92-15.41-4.09-22.95-6.7-4.88-1.69-10.11-1.8-15.22-1.88-9.38.41-19.02-.21-28.05 2.86z"/><path d="m137.16 80.34c1.49-4.8 6.43-6.83 10.13-9.62 2.63-.64 7.12-.17 7.47 3.29-.85 3.15-3.55 5.22-5.18 7.94 3.25 1.27 6.19-1.34 9.43-1.22 2.46-.13 4.79.81 7.21 1.11 2.93.09 5.91-.84 8.77.25 3.86 1.34 7.51 3.55 11.74 3.4.49-3.83 1.6-7.57 3.78-10.8 3.01.38 5.39 2.41 7.29 4.64 2.59 2.78 2.77 6.84 5.03 9.84 1.89 2.36.65 5.25.11 7.84.44.54 1.32 1.61 1.76 2.14 1.12-1 2.24-2 3.35-3.01.73.11 2.2.33 2.93.44-.4 2.96-.83 5.91-1.27 8.86-1.35-.6-2.52-1.49-3.53-2.55.37 3.37-2.44 5.4-5.15 6.61-1.46 3.37-2.62 6.85-3.84 10.31-1.76 3.43 1.8 6.59.75 10.12-1.79 7.47-8.51 13.52-16.11 14.62-4.87 1.04-9.75-.51-14.26-2.25-2.76-1.04-5.67-1.93-7.96-3.89 1.15-1.13 2.38-2.17 3.72-3.07-6.59-2.42-12.69-5.95-19.13-8.72.82.84 1.66 1.68 2.51 2.5.09.72.27 2.16.36 2.88-.74-.02-2.23-.07-2.98-.09-1.05-1.06-2.12-2.11-2.97-3.34-.68-4.31-.27-8.8-1.6-13.01-1.1-2.94-3.14-5.56-3.28-8.81-.27-4.89-2.2-9.95-.29-14.72 1.63-3.77-.51-7.94 1.21-11.69m31.18 21.61c.58.99 1.21 1.95 1.88 2.88-1.63 1.15-3.42 2.13-4.73 3.66-1.57 2.27-.84 5.13-.07 7.55 3.33-.74 4.76-5.14 8.58-5.34-.05-2.46.23-4.99-.54-7.37-1.11-1.73-3.41-1.13-5.12-1.38z"/><path d="m105.7 73.08c1.46-.51 2.93-.99 4.42-1.43 1.19 2.07 1.93 4.33 2.64 6.59.64 2.45 3.12 3.72 4.23 5.9.5 1.48.02 3.01-.26 4.48-1.64 5.72.61 11.55.29 17.34-.03 7.44-1.45 16.49-8.55 20.52-3.07 2.5-7.81 3.05-9.37 7.13-1.02.01-2.04.03-3.05.06-.98 1.41-1.66 3.44-3.57 3.78-5.82 1.46-12.18 3.05-18.01.8-5.89-2.69-9.87-8.75-10.52-15.15 1.06.28 3.16.82 4.21 1.09-1.89-2.51-2.74-5.57-4.29-8.26-1.37-2.75-5.71-1.94-6.63-5.06-1.7-4.18-2.99-8.55-3.98-12.95-.5-4.2 2.27-7.68 5.06-10.45 1-3.96 3.59-7.1 7.35-8.74.27.83.81 2.48 1.08 3.3-.89 2.86-2.05 5.63-3.05 8.45 1.59-1.35 2.99-2.97 4.85-3.96 6.67-3.6 13.45-7.73 21.19-8.33 5.87-.27 11.75.19 17.61-.28-.5-1.62-1.07-3.23-1.65-4.83m-19.4 26.3c-1.96.67-2.4 2.88-2.31 4.7.15 3.77 1.22 7.56 3.17 10.79 1.62 1.81 4.62 1.14 5.7-.9 1.82-3.31 1.81-7.26.98-10.86-.85-3.14-4.44-5.48-7.54-3.73m-13.78 28.14c1.32 4.32 6.46 4.32 10.14 4.55-2.87-2.45-6.64-3.38-10.14-4.55z"/><path d="m114.35 196.39c3.6-1.75 6.78-5.6 11.16-4.72 6.02 1.02 12.46.08 18.12 2.74 4.14 1.89 8.21 4.29 11.15 7.84 1.63 2.7 1.64 6.48-.35 9.01-1.98 1.56-4.31 2.62-6.62 3.58-4.59 1.84-9.18-.89-13.83-.94-2.45.11-4.31-1.58-6.04-3.05-3.89-.23-7.8 1.52-11.6.13-3.41-1.19-7.38-3.13-8.32-6.96-.37-3.8 3.6-5.87 6.33-7.63z"/></g><g fill="#fff"><path d="m105.91 16.87c9.03-3.07 18.67-2.45 28.05-2.86 5.11.08 10.34.19 15.22 1.88 7.54 2.61 15.86 2.78 22.95 6.7 4.16 2.43 8.98 3.51 12.97 6.27 14.68 8.74 29.92 18.08 39.45 32.7 2.39 3.83 6.16 6.49 8.64 10.23 6.11 8.81 11.29 18.62 12.91 29.33-.71.22-2.12.65-2.82.87.05.76.16 2.29.21 3.06.83-.15 2.49-.43 3.32-.58 1.53 6.8 2.25 13.75 3.38 20.63.9 4.28-2.98 7.32-4.19 11.09-2.05 4.35-1.66 9.26-.92 13.86-1.79-.69-3.59-1.37-5.41-2.01-.31.59-.95 1.75-1.27 2.33-.14 1.4.39 3.02-.47 4.27-1.04 1.83-3.34 2.02-5.13 2.64.6.85 1.2 1.71 1.81 2.57-3.58 2.81-6.66 6.38-10.66 8.58-4.47 1.75-4.8-5.97-8.97-4.78-1.35.83-2.55 1.88-3.8 2.84-.37-.54-1.11-1.6-1.48-2.13-3.73.34-7.59-.33-11.21.88-5.87 1.77-11.52-1.4-17.25-2.22-4.44-.61-6.26-5.77-10.44-6.84-2.65-.11-6.51 1.16-7.63-2.18-1.09-3.39-4.39-4.14-7.41-4.95-.81-4.53-3.92-8.84-8.72-9.57-7.13.3-12.84 5.13-18.55 8.85-2.43 1.73-5.18-.4-7.71-.67-2.87.51-5.6 1.59-8.29 2.69-5.11 1.41-5.52 8.33-10.77 9.66-7.4 1.68-15.1 2.47-22.12 5.55-2.89 1.32-4.68 4.09-7.24 5.88-.09.76-.25 2.3-.33 3.06-1.36-.44-2.7-.89-4.04-1.36-2.23 1.44-4.38 3.23-5.38 5.76-.31 2.54.43 5.06.71 7.57-2.24-1.45-4.53-2.83-6.85-4.14.1 3.12-.22 6.33.8 9.35 1.31-1.39 2.46-2.91 3.69-4.37 2.34.95 4.82 1.53 7.16 2.48.54 1.14.89 2.37 1.53 3.47 1.92-.02 3.67-.9 5.46-1.47 5.65-2.34 12.6-1.02 17.41-5.37 2.48-2.32 6.05-2.4 8.99-3.8 3.49-1.65 7.51-1.24 10.99.18 4.72 1.72 9.06 5.52 14.41 4.33 6.91.5 13.27-2.36 19.85-3.89 3.18-1.21 4.67 2.61 7.26 3.62 9.59 4.48 17 12.32 23.91 20.13 1.55 2.8.06 6.16-1.48 8.64-2.39 3.11-6.76 1.49-9.95 2.87-2.5.87-3.59 4.12-6.47 4.12-2.42.53-4.84-.26-6.5-2.07-1.76 1.56-3.35 3.5-5.64 4.31-4.7 1.82-9.78.12-14.63.83-13.47 1.48-26.98.05-40.39-1.28-3-.24-6.13-.11-8.93-1.41-3.58-2.02-7.83 1.91-11.31-.54-6.35-3.88-13.65-6.8-18.17-13.02-1.54-2.51-6.55-1.96-6.34-5.46.96-2.42 2.72-4.38 4.14-6.54-3.13-1.98-6.1-.05-8.48 2.06-.29-1.12-.59-2.25-.88-3.37-.93.66-1.67 1.72-2.86 1.93-1.83-.68-3.62-1.64-4.99-3.05.16-2.75 1.89-5.58-.52-7.87-.81 1.43-1.57 2.89-2.36 4.33-2.51-2.99-5.22-5.84-7.43-9.06-3.08-4.86-4.13-10.62-6.4-15.84-4.9-12.24-6.24-25.55-6.3-38.64.28-8.61.39-17.31 2.52-25.71 2.47-9.49 4.99-19.14 10.01-27.66 6.82-11.69 15.69-22.2 26.02-30.93 5.5-4.73 11.98-8.07 18.11-11.88 4.41-2.6 8.62-5.54 13.21-7.81 7.68-3.38 16.14-4.24 24-7.07m31.25 63.47c-1.72 3.75.42 7.92-1.21 11.69-1.91 4.77.02 9.83.29 14.72.14 3.25 2.18 5.87 3.28 8.81 1.33 4.21.92 8.7 1.6 13.01.85 1.23 1.92 2.28 2.97 3.34.75.02 2.24.07 2.98.09-.09-.72-.27-2.16-.36-2.88-.85-.82-1.69-1.66-2.51-2.5 6.44 2.77 12.54 6.3 19.13 8.72-1.34.9-2.57 1.94-3.72 3.07 2.29 1.96 5.2 2.85 7.96 3.89 4.51 1.74 9.39 3.29 14.26 2.25 7.6-1.1 14.32-7.15 16.11-14.62 1.05-3.53-2.51-6.69-.75-10.12 1.22-3.46 2.38-6.94 3.84-10.31 2.71-1.21 5.52-3.24 5.15-6.61 1.01 1.06 2.18 1.95 3.53 2.55.44-2.95.87-5.9 1.27-8.86-.73-.11-2.2-.33-2.93-.44-1.11 1.01-2.23 2.01-3.35 3.01-.44-.53-1.32-1.6-1.76-2.14.54-2.59 1.78-5.48-.11-7.84-2.26-3-2.44-7.06-5.03-9.84-1.9-2.23-4.28-4.26-7.29-4.64-2.18 3.23-3.29 6.97-3.78 10.8-4.23.15-7.88-2.06-11.74-3.4-2.86-1.09-5.84-.16-8.77-.25-2.42-.3-4.75-1.24-7.21-1.11-3.24-.12-6.18 2.49-9.43 1.22 1.63-2.72 4.33-4.79 5.18-7.94-.35-3.46-4.84-3.93-7.47-3.29-3.7 2.79-8.64 4.82-10.13 9.62m-31.46-7.26c.58 1.6 1.15 3.21 1.65 4.83-5.86.47-11.74.01-17.61.28-7.74.6-14.52 4.73-21.19 8.33-1.86.99-3.26 2.61-4.85 3.96 1-2.82 2.16-5.59 3.05-8.45-.27-.82-.81-2.47-1.08-3.3-3.76 1.64-6.35 4.78-7.35 8.74-2.79 2.77-5.56 6.25-5.06 10.45.99 4.4 2.28 8.77 3.98 12.95.92 3.12 5.26 2.31 6.63 5.06 1.55 2.69 2.4 5.75 4.29 8.26-1.05-.27-3.15-.81-4.21-1.09.65 6.4 4.63 12.46 10.52 15.15 5.83 2.25 12.19.66 18.01-.8 1.91-.34 2.59-2.37 3.57-3.78 1.01-.03 2.03-.05 3.05-.06 1.56-4.08 6.3-4.63 9.37-7.13 7.1-4.03 8.52-13.08 8.55-20.52.32-5.79-1.93-11.62-.29-17.34.28-1.47.76-3 .26-4.48-1.11-2.18-3.59-3.45-4.23-5.9-.71-2.26-1.45-4.52-2.64-6.59-1.49.44-2.96.92-4.42 1.43m8.65 123.31c-2.73 1.76-6.7 3.83-6.33 7.63.94 3.83 4.91 5.77 8.32 6.96 3.8 1.39 7.71-.36 11.6-.13 1.73 1.47 3.59 3.16 6.04 3.05 4.65.05 9.24 2.78 13.83.94 2.31-.96 4.64-2.02 6.62-3.58 1.99-2.53 1.98-6.31.35-9.01-2.94-3.55-7.01-5.95-11.15-7.84-5.66-2.66-12.1-1.72-18.12-2.74-4.38-.88-7.56 2.97-11.16 4.72z"/><path d="m86.3 99.38c3.1-1.75 6.69.59 7.54 3.73.83 3.6.84 7.55-.98 10.86-1.08 2.04-4.08 2.71-5.7.9-1.95-3.23-3.02-7.02-3.17-10.79-.09-1.82.35-4.03 2.31-4.7z"/><path d="m168.34 101.95c1.71.25 4.01-.35 5.12 1.38.77 2.38.49 4.91.54 7.37-3.82.2-5.25 4.6-8.58 5.34-.77-2.42-1.5-5.28.07-7.55 1.31-1.53 3.1-2.51 4.73-3.66-.67-.93-1.3-1.89-1.88-2.88z"/><path d="m72.52 127.52c3.5 1.17 7.27 2.1 10.14 4.55-3.68-.23-8.82-.23-10.14-4.55z"/></g></svg>