<svg xmlns="http://www.w3.org/2000/svg" width="748" height="413pt" viewBox="0 0 561 413"><g fill="#3a392d"><path d="M 331.78 11.80 C 333.33 8.75 337.17 9.62 339.97 9.44 C 342.53 9.67 346.01 8.79 347.69 11.31 C 349.80 16.07 346.76 21.64 348.83 26.28 C 349.70 24.83 350.16 22.75 351.98 22.15 C 355.89 21.32 359.94 21.75 363.87 22.23 C 368.91 20.45 376.09 20.87 379.00 25.96 C 382.79 23.25 387.16 21.00 391.96 21.24 C 399.36 20.92 406.96 25.10 409.78 32.12 C 412.50 37.88 411.79 44.37 411.17 50.50 C 409.98 54.59 407.28 58.32 403.58 60.50 C 398.88 63.29 393.10 63.69 387.81 62.76 C 381.54 61.63 376.07 56.88 374.12 50.81 C 372.77 46.86 372.59 42.63 372.82 38.48 C 370.98 38.05 369.18 37.06 367.25 37.25 C 364.98 45.11 367.35 53.57 365.50 61.52 C 361.22 63.09 356.54 62.58 352.09 62.30 C 348.77 61.51 349.59 57.22 348.89 54.84 C 348.12 57.15 348.78 62.19 345.03 62.36 C 340.74 62.53 336.17 63.17 332.13 61.36 C 327.04 63.34 321.23 63.98 316.09 61.86 C 313.37 60.72 311.49 58.10 310.69 55.33 C 309.39 49.22 309.72 42.94 309.70 36.73 C 309.13 36.58 308.00 36.29 307.43 36.15 C 307.41 43.80 307.53 51.45 307.40 59.10 C 307.56 60.93 305.63 62.36 303.95 62.40 C 300.66 62.62 297.35 62.64 294.07 62.37 C 291.86 62.30 290.54 60.03 290.61 58.02 C 290.33 50.86 290.88 43.68 290.40 36.54 C 289.26 34.91 286.65 36.40 286.54 38.09 C 285.45 45.32 286.64 52.70 285.78 59.94 C 285.05 62.91 281.34 62.49 278.99 62.55 C 275.95 62.24 272.10 63.45 269.85 60.78 C 268.66 55.87 269.74 50.75 269.12 45.77 C 268.52 48.32 269.10 51.15 267.47 53.40 C 262.53 63.79 247.99 65.84 238.77 60.23 C 232.66 56.47 229.85 48.91 230.26 41.97 C 230.07 35.99 232.23 29.69 236.97 25.84 C 244.04 19.39 255.88 19.85 262.96 26.04 C 266.69 29.48 268.35 34.49 269.31 39.34 C 269.52 34.22 268.84 29.03 269.72 23.96 C 272.63 20.50 277.92 21.76 281.86 22.12 C 285.62 23.64 289.18 20.71 293.01 21.23 C 298.24 21.15 302.82 24.16 306.14 27.97 C 306.18 26.54 306.22 25.12 306.27 23.69 C 307.34 23.02 308.41 22.35 309.49 21.70 C 309.88 19.43 310.19 16.71 312.58 15.65 C 316.26 13.78 319.73 10.33 324.07 10.61 C 328.48 12.21 326.19 17.85 326.69 21.42 C 328.34 21.82 329.99 22.24 331.64 22.66 C 331.60 19.05 331.22 15.39 331.78 11.80 M 335.57 21.51 C 338.49 21.51 341.42 21.50 344.34 21.47 C 344.33 18.82 344.33 16.17 344.34 13.53 C 341.41 13.49 338.49 13.49 335.57 13.49 C 335.57 16.16 335.57 18.84 335.57 21.51 M 313.64 21.77 C 313.68 23.07 313.72 24.38 313.75 25.68 C 312.39 25.75 311.04 25.81 309.69 25.89 C 309.69 28.12 309.68 30.36 309.67 32.60 C 310.99 32.66 312.32 32.71 313.66 32.77 C 313.81 37.87 313.61 42.98 313.81 48.09 C 314.34 50.45 314.45 52.87 314.55 55.28 C 317.82 60.28 324.62 59.52 329.62 58.10 C 329.43 55.90 329.14 53.72 328.67 51.57 C 327.09 51.73 325.51 51.87 323.94 51.98 C 323.63 51.51 323.00 50.58 322.69 50.12 C 322.67 44.34 322.68 38.56 322.68 32.78 C 324.69 32.76 326.71 32.75 328.72 32.74 C 328.70 30.41 328.69 28.08 328.65 25.75 C 326.65 25.73 324.65 25.70 322.66 25.65 C 322.69 21.91 322.69 18.17 322.67 14.43 C 319.61 16.78 314.38 17.39 313.64 21.77 M 239.67 28.68 C 235.85 31.94 234.02 37.08 234.28 42.03 C 233.95 46.78 235.37 51.80 238.89 55.14 C 243.35 59.64 250.51 59.97 256.28 58.24 C 260.36 56.94 263.09 53.35 264.83 49.62 C 261.91 49.10 258.98 48.60 256.03 48.25 C 255.24 51.30 252.05 53.53 248.91 52.58 C 246.41 52.33 245.05 49.96 243.58 48.23 C 243.53 47.36 243.44 45.62 243.40 44.74 C 250.72 44.73 258.05 44.82 265.37 44.68 C 265.18 39.99 264.75 34.98 261.94 31.04 C 257.03 24.13 245.99 23.25 239.67 28.68 M 281.35 30.73 C 281.37 29.07 281.38 27.41 281.39 25.75 C 278.72 25.75 276.06 25.74 273.39 25.71 C 273.28 36.65 273.33 47.59 273.37 58.53 C 276.25 58.50 279.14 58.50 282.02 58.50 C 282.12 51.64 281.75 44.75 282.42 37.91 C 282.71 34.19 286.42 31.30 290.08 31.85 C 293.05 32.05 294.70 35.31 294.55 37.99 C 294.66 44.82 294.55 51.64 294.58 58.47 C 297.52 58.50 300.46 58.51 303.40 58.51 C 303.35 49.95 303.52 41.39 303.29 32.83 C 302.14 30.71 301.37 28.07 299.03 26.93 C 293.24 23.41 285.33 25.41 281.35 30.73 M 361.42 30.42 C 361.44 28.86 361.45 27.30 361.47 25.75 C 358.78 25.74 356.09 25.74 353.41 25.74 C 353.36 36.66 353.39 47.58 353.39 58.51 C 356.30 58.50 359.22 58.51 362.15 58.50 C 362.16 52.31 362.09 46.11 362.47 39.93 C 362.62 37.36 363.53 34.29 366.14 33.23 C 368.17 32.49 370.24 33.49 372.17 34.10 C 373.08 31.60 373.97 29.11 374.84 26.60 C 372.37 25.71 369.73 24.77 367.08 25.41 C 364.53 26.14 363.04 28.51 361.42 30.42 M 380.52 30.48 C 376.02 35.87 376.86 43.52 377.91 49.95 C 382.37 62.32 403.45 62.51 407.17 49.58 C 404.42 49.09 401.66 48.63 398.89 48.21 C 397.68 50.93 395.15 53.56 391.87 52.65 C 388.10 52.30 386.65 48.51 385.34 45.53 C 392.65 43.83 400.34 45.19 407.81 44.75 C 407.76 40.35 407.49 35.74 405.11 31.89 C 400.16 23.44 386.51 22.92 380.52 30.48 M 335.57 58.51 C 338.49 58.51 341.42 58.50 344.34 58.47 C 344.33 47.57 344.34 36.66 344.34 25.76 C 341.41 25.74 338.49 25.74 335.58 25.74 C 335.56 36.66 335.57 47.59 335.57 58.51 M 326.73 36.92 C 326.72 40.43 326.72 43.94 326.71 47.45 C 328.34 47.54 329.96 47.65 331.60 47.76 C 331.50 43.92 331.50 40.08 331.59 36.24 C 329.96 36.48 328.35 36.71 326.73 36.92 Z"/><path d="M 80.77 16.77 C 83.59 14.43 86.93 12.79 90.15 11.09 C 92.24 9.78 95.15 10.70 96.27 12.84 C 96.55 15.72 96.39 18.61 96.37 21.49 C 98.65 21.81 100.87 22.53 102.44 24.30 C 102.34 27.64 102.66 31.00 102.23 34.32 C 101.22 36.58 98.58 36.66 96.47 36.92 C 96.38 40.41 96.38 43.91 96.39 47.40 C 98.58 47.52 101.25 47.60 102.25 49.95 C 102.85 53.39 102.73 56.90 102.81 60.38 C 97.67 63.74 90.88 64.00 85.28 61.70 C 81.93 60.15 80.09 56.51 79.74 52.96 C 79.25 47.58 79.56 42.16 79.47 36.76 C 78.96 36.65 77.95 36.43 77.45 36.32 C 77.52 41.18 77.36 46.05 77.49 50.91 C 77.56 53.40 78.69 55.67 79.25 58.05 C 79.85 60.49 77.40 62.80 75.00 62.46 C 71.21 62.44 67.18 63.14 63.62 61.49 C 58.11 63.75 51.43 64.03 46.27 60.73 C 43.56 59.20 41.98 56.37 40.96 53.53 C 38.34 57.07 35.30 60.66 30.94 62.00 C 23.65 64.35 14.72 63.51 9.06 57.95 C 3.72 52.52 2.63 44.22 3.93 36.99 C 4.88 31.59 8.07 26.56 12.90 23.84 C 22.76 17.75 38.14 22.47 41.09 34.22 C 42.72 28.26 47.16 22.75 53.52 21.70 C 60.93 20.64 70.01 20.68 75.18 27.03 C 75.32 24.39 76.97 22.48 79.36 21.56 C 79.66 19.93 79.32 17.93 80.77 16.77 M 83.44 19.49 C 83.49 21.57 83.51 23.65 83.54 25.73 C 82.18 25.74 80.83 25.75 79.48 25.76 C 79.48 28.08 79.47 30.39 79.46 32.70 C 80.81 32.72 82.16 32.75 83.51 32.77 C 83.56 38.83 83.41 44.90 83.56 50.96 C 83.62 53.62 84.45 56.71 86.99 58.05 C 90.74 59.77 94.97 59.20 98.83 58.19 C 98.69 55.95 98.54 53.72 98.41 51.48 C 96.47 51.86 94.49 52.04 92.57 51.45 C 92.19 45.23 92.39 38.99 92.35 32.76 C 94.36 32.75 96.38 32.73 98.39 32.70 C 98.38 30.39 98.38 28.07 98.38 25.76 C 96.36 25.75 94.35 25.74 92.34 25.74 C 92.35 21.95 92.37 18.15 92.30 14.36 C 89.33 16.05 86.37 17.74 83.44 19.49 M 11.80 29.79 C 8.40 33.23 7.26 38.28 7.45 42.98 C 7.44 48.01 9.26 53.42 13.51 56.42 C 18.03 59.61 24.10 59.81 29.26 58.29 C 33.41 57.04 36.20 53.40 37.94 49.61 C 34.90 48.99 31.84 48.52 28.75 48.28 C 28.64 48.94 28.42 50.25 28.31 50.90 C 25.97 52.62 22.77 53.49 20.15 51.84 C 17.49 50.53 16.75 47.43 16.22 44.77 C 23.66 44.69 31.10 44.85 38.54 44.67 C 38.46 40.00 37.83 35.05 35.11 31.12 C 29.96 23.71 17.79 23.14 11.80 29.79 M 54.37 25.59 C 49.71 26.25 46.59 30.20 45.20 34.43 C 47.81 34.90 50.43 35.35 53.06 35.73 C 54.56 31.54 59.75 30.88 63.34 32.63 C 64.83 33.74 64.68 35.72 64.95 37.35 C 61.00 38.49 56.95 39.19 52.97 40.18 C 50.13 40.88 47.14 42.11 45.63 44.79 C 43.92 47.23 44.60 50.33 44.67 53.10 C 46.57 56.01 49.28 58.70 52.95 58.95 C 57.54 60.00 62.12 58.03 65.59 55.11 C 65.96 56.24 66.33 57.37 66.70 58.51 C 69.54 58.50 72.39 58.50 75.23 58.53 C 72.47 52.41 73.67 45.57 73.45 39.08 C 73.43 35.19 73.80 30.30 70.22 27.72 C 65.65 24.54 59.63 25.01 54.37 25.59 Z"/><path d="M 133.81 22.76 C 139.33 20.44 145.89 20.68 150.79 24.32 C 157.78 19.46 168.98 20.13 173.53 27.99 C 173.63 26.19 174.19 24.48 174.71 22.77 C 178.34 21.51 182.22 21.58 186.00 21.80 C 187.55 21.96 189.55 21.99 190.34 23.62 C 192.45 27.57 193.31 32.05 195.16 36.12 C 196.76 31.99 197.71 27.61 199.58 23.58 C 200.86 21.40 203.84 21.91 205.98 21.70 C 209.08 21.90 213.10 20.98 215.28 23.80 C 216.42 25.96 215.26 28.32 214.56 30.41 C 209.89 42.54 205.66 54.84 200.84 66.92 C 197.28 75.38 186.22 77.54 178.34 74.50 C 175.02 71.27 176.69 65.87 176.44 61.70 C 179.37 60.45 182.57 60.70 185.68 60.57 C 185.70 58.73 185.61 56.86 184.81 55.17 C 181.65 47.34 178.80 39.40 175.55 31.62 C 175.33 40.95 175.75 50.30 175.38 59.63 C 174.42 63.23 169.87 62.41 167.02 62.56 C 164.12 62.49 159.72 63.13 158.72 59.51 C 158.19 51.55 158.90 43.54 158.35 35.58 C 156.48 36.20 155.62 38.08 155.63 39.93 C 155.27 46.26 155.74 52.60 155.44 58.92 C 155.55 60.80 153.82 62.40 151.98 62.39 C 148.35 62.57 144.66 62.79 141.06 62.18 C 138.95 61.41 138.61 58.94 138.62 57.00 C 138.56 49.92 138.69 42.84 138.58 35.76 C 137.37 36.08 135.95 36.49 135.98 38.05 C 135.06 44.95 135.96 51.94 135.49 58.87 C 135.44 60.77 133.90 62.45 131.95 62.39 C 127.81 62.57 123.51 63.00 119.53 61.58 C 118.19 57.84 118.67 53.84 118.62 49.95 C 118.60 41.51 118.68 33.06 118.58 24.62 C 122.08 20.03 128.96 21.60 133.81 22.76 M 130.80 30.02 C 130.78 28.59 130.76 27.17 130.75 25.74 C 128.06 25.74 125.36 25.74 122.67 25.74 C 122.66 36.66 122.66 47.58 122.67 58.50 C 125.63 58.51 128.60 58.50 131.56 58.49 C 131.79 51.34 131.05 44.11 132.03 37.01 C 132.48 32.75 137.18 30.92 140.89 32.23 C 141.69 33.71 142.69 35.20 142.59 36.96 C 142.72 44.13 142.59 51.31 142.63 58.48 C 145.58 58.51 148.54 58.51 151.49 58.50 C 151.64 51.67 151.16 44.80 151.79 37.99 C 151.95 34.45 155.37 31.15 158.98 31.95 C 160.53 32.15 161.41 33.55 162.44 34.56 C 162.68 42.52 162.55 50.49 162.57 58.46 C 165.53 58.50 168.49 58.51 171.46 58.51 C 171.40 49.99 171.60 41.46 171.31 32.94 C 170.08 28.38 165.82 25.03 161.05 25.22 C 156.84 24.80 153.37 27.52 150.33 30.05 C 148.22 27.02 144.78 24.85 140.98 25.21 C 136.96 24.97 133.69 27.58 130.80 30.02 M 177.32 25.74 C 179.12 28.55 179.91 31.81 181.24 34.83 C 181.77 36.26 182.32 37.69 182.85 39.12 C 185.44 45.71 187.98 52.32 190.50 58.94 C 189.44 60.93 188.57 63.33 186.38 64.37 C 184.40 65.12 182.22 64.67 180.16 64.68 C 180.32 66.88 180.47 69.08 180.62 71.29 C 184.72 71.82 189.18 72.13 192.92 70.03 C 195.58 68.50 197.09 65.66 198.12 62.87 C 202.68 50.49 207.29 38.13 211.87 25.76 C 208.86 25.74 205.85 25.74 202.84 25.74 C 200.30 33.47 197.68 41.17 195.16 48.91 C 192.22 41.35 190.08 33.47 187.04 25.96 C 183.83 25.48 180.56 25.84 177.32 25.74 Z"/><path d="M 429.05 35.02 C 429.39 28.15 435.40 22.35 442.14 21.53 C 448.69 20.88 456.29 20.77 461.50 25.49 C 463.71 27.32 464.61 30.11 464.97 32.86 C 466.31 27.92 470.08 23.56 475.12 22.24 C 480.29 20.88 485.86 20.82 491.04 22.15 C 496.24 23.41 500.28 27.94 501.46 33.08 C 502.00 35.68 499.86 37.27 497.71 38.05 C 499.98 40.11 501.73 42.68 502.56 45.66 C 503.38 45.48 505.02 45.13 505.85 44.95 C 504.10 42.90 502.34 40.68 501.86 37.95 C 500.37 32.34 503.52 26.19 508.59 23.58 C 513.97 20.80 520.38 20.79 526.22 21.81 C 532.25 22.80 537.24 27.90 538.40 33.83 C 538.29 36.15 536.14 37.31 534.24 38.07 C 537.99 41.09 540.34 46.14 539.03 50.94 C 538.32 56.25 533.79 60.22 528.97 61.94 C 519.45 65.01 507.37 62.94 501.67 54.02 C 498.75 59.87 492.27 63.01 485.92 63.17 C 479.36 63.42 471.66 62.29 467.56 56.55 C 467.23 58.76 466.82 61.90 464.07 62.33 C 459.74 62.77 455.34 62.65 451.07 61.79 C 446.20 63.17 440.88 64.02 436.08 61.87 C 431.00 59.86 427.59 54.45 428.06 48.99 C 427.94 44.97 430.41 41.62 433.04 38.84 C 431.47 37.94 428.90 37.32 429.05 35.02 M 432.92 34.43 C 435.53 34.92 438.15 35.37 440.80 35.69 C 442.49 29.86 453.69 30.40 452.67 37.34 C 447.35 39.02 441.61 39.33 436.52 41.70 C 430.79 44.58 430.54 53.79 435.91 57.16 C 441.18 60.67 448.55 59.43 453.06 55.20 C 453.54 56.32 454.08 57.40 454.69 58.45 C 457.44 58.62 460.19 58.50 462.95 58.47 C 462.62 57.63 461.95 55.96 461.62 55.12 C 461.06 48.40 461.49 41.65 461.28 34.91 C 460.67 32.89 460.78 30.48 459.14 28.93 C 455.07 24.50 448.37 25.07 442.92 25.45 C 437.99 25.86 434.16 29.79 432.92 34.43 M 469.63 31.83 C 468.82 35.27 469.01 39.61 472.14 41.87 C 477.17 45.49 483.68 45.49 489.27 47.76 C 491.80 51.74 485.90 53.53 482.94 52.99 C 479.84 53.18 477.85 50.79 476.59 48.30 C 473.75 47.85 470.87 48.93 468.05 49.22 C 468.55 50.63 469.09 52.03 469.61 53.44 C 475.15 59.82 485.12 60.59 492.57 57.51 C 498.55 55.17 500.90 46.41 495.95 41.93 C 490.55 37.90 483.32 38.24 477.37 35.38 C 477.38 34.43 477.39 33.49 477.41 32.54 C 481.54 30.87 487.47 30.55 489.70 35.26 C 492.34 34.76 494.97 34.25 497.62 33.74 C 496.45 30.97 494.81 28.22 492.07 26.79 C 488.30 24.97 483.96 25.10 479.89 25.33 C 475.67 25.59 471.27 27.72 469.63 31.83 M 506.40 31.32 C 504.43 35.15 505.82 40.28 509.55 42.49 C 514.70 45.46 520.81 45.82 526.32 47.82 C 526.36 48.66 526.43 50.34 526.47 51.18 C 522.09 54.13 514.66 53.84 513.00 47.95 C 510.08 48.35 507.18 48.80 504.28 49.28 C 505.52 52.27 507.23 55.26 510.20 56.81 C 515.37 59.55 521.71 59.85 527.28 58.25 C 531.23 57.16 534.02 53.86 535.49 50.17 C 535.36 48.78 535.23 47.40 535.12 46.02 C 534.30 44.22 533.37 42.32 531.61 41.27 C 526.43 37.94 519.90 38.24 514.51 35.50 C 512.73 34.58 513.62 32.79 515.08 32.20 C 518.77 30.81 524.15 30.85 525.99 35.04 C 528.69 34.81 531.37 34.34 534.03 33.80 C 533.35 30.66 531.06 28.03 528.22 26.61 C 524.68 25.04 520.70 25.13 516.92 25.29 C 512.77 25.50 508.21 27.32 506.40 31.32 M 465.75 42.52 C 465.77 43.12 465.83 44.32 465.85 44.93 C 466.97 45.68 467.87 45.51 468.55 44.42 C 468.36 43.29 466.94 41.84 465.75 42.52 Z"/><path d="M 16.33 39.43 C 16.57 35.43 19.57 30.99 24.09 31.93 C 27.85 32.27 29.62 36.13 29.71 39.49 C 25.25 39.50 20.79 39.53 16.33 39.43 Z"/><path d="M 243.27 39.47 C 243.15 35.29 246.59 30.91 251.08 31.95 C 254.78 32.38 256.24 36.22 256.73 39.43 C 252.25 39.53 247.76 39.51 243.27 39.47 Z"/><path d="M 386.41 35.66 C 388.04 33.64 390.11 31.46 392.99 31.83 C 396.83 32.03 399.28 35.84 398.95 39.46 C 394.72 39.52 390.49 39.49 386.27 39.50 C 386.30 38.54 386.38 36.62 386.41 35.66 Z"/><path d="M 54.83 45.73 C 57.98 44.18 61.55 43.86 64.91 43.00 C 64.76 45.88 65.30 49.49 62.62 51.44 C 59.98 53.75 56.04 53.56 53.49 51.22 C 53.44 49.34 52.71 46.78 54.83 45.73 Z"/><path d="M 441.75 45.87 C 445.23 44.56 448.87 43.76 452.51 42.98 C 452.36 45.45 452.96 48.23 451.37 50.36 C 449.13 53.35 443.54 54.49 441.36 50.86 C 439.97 49.31 441.10 47.45 441.75 45.87 Z"/><path d="M 539.54 49.96 C 540.35 47.61 542.30 45.56 544.99 45.81 C 548.71 45.97 553.56 44.62 556.36 47.76 C 557.37 51.40 556.82 55.34 556.77 59.09 C 556.90 61.60 554.10 62.70 552.00 62.50 C 548.17 62.47 544.10 63.09 540.56 61.26 C 540.44 57.47 539.81 53.73 539.54 49.96 M 544.27 49.74 C 544.26 52.67 544.26 55.59 544.28 58.52 C 547.12 58.51 549.97 58.50 552.82 58.50 C 552.81 55.58 552.81 52.66 552.80 49.74 C 549.95 49.74 547.11 49.74 544.27 49.74 Z"/><path d="M 126.68 80.65 C 128.65 80.83 130.61 81.10 132.58 81.38 C 133.52 82.06 134.49 82.70 135.46 83.35 C 135.79 83.94 136.47 85.11 136.80 85.70 C 136.40 85.91 135.59 86.34 135.18 86.55 C 137.56 87.23 139.26 89.09 141.27 90.42 C 142.05 92.19 142.88 93.95 144.05 95.49 C 145.42 97.61 146.79 99.73 148.06 101.92 C 150.64 107.01 154.55 111.27 158.21 115.61 C 163.09 119.81 167.15 124.85 170.61 130.26 C 171.55 130.64 172.50 131.02 173.45 131.41 C 176.37 140.07 183.77 145.91 189.06 153.05 C 189.39 153.29 190.05 153.77 190.38 154.01 L 190.79 154.29 C 191.68 155.86 192.60 157.42 193.44 159.02 C 193.72 159.05 194.28 159.12 194.56 159.15 C 196.43 162.19 198.74 164.96 200.12 168.29 C 199.05 171.22 196.63 172.77 193.68 173.39 C 191.14 170.99 188.51 168.62 186.41 165.83 C 186.41 164.77 186.04 163.88 185.28 163.17 C 184.32 162.03 183.29 160.92 182.62 159.58 L 182.49 159.32 L 182.30 159.10 C 178.08 153.92 172.63 149.74 169.40 143.78 C 167.62 140.09 164.49 137.34 162.60 133.72 C 162.06 132.16 160.13 132.60 158.90 132.11 C 157.53 130.15 155.94 128.37 154.35 126.59 C 151.70 123.55 150.27 119.72 148.08 116.38 C 145.94 112.87 143.12 109.85 140.04 107.16 L 139.36 106.55 L 139.21 106.18 C 137.83 101.99 134.16 99.24 131.62 95.79 C 131.63 96.18 131.65 96.96 131.66 97.35 L 131.67 97.71 C 129.78 94.87 128.28 91.79 126.50 88.88 C 125.17 86.06 120.59 86.36 120.26 82.89 C 122.55 82.64 124.71 81.84 126.68 80.65 Z"/><path d="M 233.79 111.10 C 238.93 106.22 246.50 104.27 253.41 105.61 C 258.27 107.25 263.30 108.77 267.58 111.70 C 272.64 115.12 278.38 117.32 283.62 120.41 C 286.35 122.50 287.92 125.68 290.10 128.27 C 294.52 128.16 298.82 126.96 303.20 126.67 C 307.69 127.69 312.28 127.49 316.83 127.88 C 325.29 129.58 334.03 130.21 342.12 133.39 C 343.29 130.97 344.38 128.42 346.34 126.51 C 348.92 124.06 350.50 120.59 353.73 118.83 C 355.14 117.33 356.76 116.07 358.44 114.88 C 360.60 113.47 361.81 110.82 364.46 110.16 C 365.85 109.59 367.26 109.02 368.67 108.46 C 369.11 108.12 370.00 107.42 370.44 107.07 C 383.42 103.72 398.26 107.21 407.30 117.40 C 407.69 117.51 408.47 117.72 408.86 117.83 C 411.51 122.23 415.26 125.88 417.48 130.55 C 419.65 133.73 419.84 137.65 420.79 141.26 C 422.50 147.77 420.66 154.44 419.36 160.84 C 419.48 160.93 419.71 161.11 419.82 161.20 C 419.22 163.33 418.80 165.51 418.34 167.68 C 418.53 167.95 418.90 168.51 419.09 168.78 C 417.66 171.57 416.45 174.46 415.20 177.33 C 416.60 182.56 419.22 187.50 419.39 193.01 C 419.50 196.53 420.45 199.93 421.41 203.30 C 421.03 203.68 420.27 204.46 419.88 204.85 C 420.58 206.04 421.27 207.23 421.97 208.42 C 422.01 208.92 422.10 209.91 422.14 210.41 C 422.67 211.39 423.21 212.38 423.76 213.36 C 424.04 214.84 424.44 216.29 424.83 217.76 C 424.39 224.25 424.72 232.31 431.45 235.57 C 431.82 235.58 432.55 235.60 432.91 235.61 C 434.98 238.70 439.15 238.68 442.13 240.50 C 442.67 240.14 443.23 239.78 443.79 239.42 C 445.28 241.04 447.04 242.37 448.92 243.52 C 450.14 243.53 451.37 243.54 452.60 243.56 C 454.33 245.09 456.11 246.57 457.94 247.99 C 458.45 249.64 459.02 251.29 459.49 252.96 C 459.56 254.19 460.11 255.17 461.16 255.88 C 462.51 263.70 464.14 271.47 465.87 279.21 C 466.37 280.32 466.87 281.43 467.37 282.56 C 467.74 285.00 468.37 287.39 469.20 289.72 C 469.28 292.16 469.22 294.73 471.02 296.63 C 471.35 299.22 471.79 301.79 472.30 304.34 C 472.68 305.67 473.06 307.01 473.44 308.35 C 473.70 309.85 473.96 311.36 474.14 312.88 C 479.61 317.53 486.89 319.50 493.96 319.66 C 500.43 321.42 507.77 319.20 513.48 323.51 C 515.19 323.97 517.05 324.38 518.21 325.86 C 524.33 332.67 529.28 340.47 533.46 348.61 C 537.63 355.04 541.75 361.51 546.45 367.58 C 549.63 371.51 550.18 376.68 551.82 381.31 C 552.69 381.83 553.57 382.36 554.46 382.90 C 554.47 383.56 554.49 384.90 554.49 385.57 C 554.96 385.96 555.90 386.75 556.37 387.14 C 556.36 388.24 556.36 389.34 556.37 390.45 C 556.92 391.05 557.46 391.66 558.02 392.27 C 558.43 394.87 559.53 397.31 559.99 399.90 C 560.21 403.07 559.98 406.24 559.98 409.42 C 554.37 411.87 548.21 410.16 542.33 410.65 C 546.30 410.07 550.32 410.68 554.32 410.37 C 556.02 409.60 555.43 407.53 555.60 406.05 C 555.98 401.86 552.65 398.89 550.79 395.52 C 547.37 390.27 547.36 383.58 543.68 378.46 C 540.26 373.47 537.59 367.98 533.68 363.33 C 527.03 355.27 524.05 344.79 516.71 337.24 C 512.92 332.92 508.64 327.12 502.04 328.50 C 497.28 328.42 496.37 333.86 493.43 336.42 C 488.81 338.69 483.86 340.23 479.24 342.51 C 474.66 344.81 470.13 347.25 465.41 349.25 C 462.37 350.64 458.87 350.12 455.82 351.43 C 453.69 352.28 451.62 353.34 449.82 354.76 C 449.37 357.11 449.76 359.58 449.05 361.89 C 446.07 364.91 442.24 367.24 440.40 371.23 C 435.53 380.94 433.52 391.80 428.89 401.62 C 427.36 404.86 426.43 408.32 425.61 411.80 C 423.75 411.77 421.89 411.74 420.03 411.72 C 420.69 402.37 425.27 394.06 427.82 385.20 C 429.14 379.70 429.95 373.94 432.68 368.91 C 434.88 365.30 438.38 362.76 440.86 359.37 C 434.39 366.79 424.84 370.09 417.13 375.96 C 413.05 379.29 407.91 380.82 403.43 383.50 C 396.00 387.80 387.49 389.45 379.66 392.81 C 372.34 394.99 365.59 398.83 358.06 400.36 C 354.09 401.32 349.97 401.35 345.96 402.08 C 340.82 402.58 341.19 409.02 339.50 412.67 C 337.31 412.66 335.11 412.65 332.92 412.64 C 334.28 407.62 336.13 402.74 338.48 398.10 C 335.13 392.39 332.01 386.56 329.52 380.43 C 326.60 376.02 323.65 371.61 320.56 367.33 C 318.83 364.99 315.89 366.86 314.65 368.70 C 311.06 373.39 305.07 377.83 298.91 375.89 C 295.29 378.68 290.61 377.11 286.45 377.67 C 283.67 380.32 283.04 384.30 282.15 387.87 C 289.58 386.03 297.07 383.79 303.65 379.80 C 305.12 378.91 306.79 378.50 308.44 378.07 C 310.35 380.18 312.35 382.36 313.13 385.19 C 316.42 394.71 323.17 402.92 324.85 413.00 L 322.28 413.00 C 321.19 412.96 320.12 412.90 319.04 412.84 C 318.18 410.33 316.95 407.98 315.28 405.93 C 312.20 408.02 309.18 410.21 306.28 412.54 C 291.84 412.41 277.41 411.93 262.97 411.67 C 258.07 411.57 253.23 412.65 248.32 412.39 C 248.63 410.66 248.95 408.95 249.27 407.23 C 247.64 403.38 247.03 399.19 245.30 395.38 C 242.30 395.51 238.41 396.67 236.37 393.71 C 232.98 389.69 228.47 386.62 225.94 381.92 C 223.56 377.64 219.56 374.32 218.38 369.40 C 217.26 364.77 212.07 362.45 211.46 357.63 C 210.59 352.48 209.09 347.29 209.77 342.03 C 210.10 338.87 210.79 335.61 209.75 332.52 C 208.20 327.30 208.12 321.77 206.22 316.65 C 202.00 316.46 197.78 316.36 193.56 316.51 C 193.60 318.05 193.65 319.60 193.71 321.15 C 196.29 321.84 198.90 322.43 201.55 322.83 C 202.80 327.65 201.96 332.82 203.95 337.47 C 205.23 340.64 205.57 344.04 205.71 347.43 C 203.30 348.69 200.67 349.37 198.16 350.36 C 195.97 351.54 194.44 353.59 192.69 355.31 C 193.49 355.37 195.11 355.48 195.91 355.54 C 197.43 356.65 198.95 357.76 200.48 358.85 C 201.37 370.71 195.98 383.52 202.16 394.61 C 203.04 400.00 205.36 405.12 205.67 410.58 C 203.56 412.43 200.19 411.33 197.57 411.75 C 197.53 410.46 197.50 409.17 197.46 407.90 C 196.50 407.31 195.53 406.74 194.57 406.16 C 194.53 403.11 194.67 400.04 194.27 397.01 C 193.82 393.93 191.39 391.31 191.81 388.10 C 192.51 382.31 192.41 376.44 193.41 370.68 C 190.70 365.93 188.01 360.86 183.04 358.10 C 183.86 356.06 184.65 353.86 186.62 352.65 C 190.22 350.29 192.49 346.14 196.80 344.90 C 196.63 342.48 196.18 340.07 195.11 337.88 C 193.02 333.50 191.08 328.83 187.54 325.38 C 186.10 323.55 183.89 325.11 182.20 325.65 C 176.07 328.53 169.45 330.09 162.95 331.90 C 162.75 332.40 162.34 333.40 162.14 333.90 C 153.66 339.88 151.02 350.43 146.26 359.10 C 144.43 361.92 144.98 367.37 140.86 367.77 C 142.44 370.59 141.61 373.91 141.21 376.94 C 140.26 381.77 139.77 386.86 137.23 391.18 C 136.11 393.36 134.49 395.47 134.54 398.04 C 134.54 402.03 136.39 405.71 136.95 409.62 C 135.92 409.63 133.84 409.65 132.81 409.66 C 131.78 408.73 130.76 407.80 129.74 406.88 C 129.18 408.17 128.64 409.48 128.10 410.80 C 113.65 411.16 99.23 409.96 84.77 409.92 C 88.48 409.95 92.26 409.53 95.62 407.83 C 100.79 405.29 106.76 404.77 111.63 401.57 C 114.52 399.66 117.68 398.25 120.95 397.11 C 121.72 394.74 122.68 392.42 123.22 389.99 C 122.52 387.37 120.74 384.84 121.62 382.02 C 122.73 376.73 123.63 371.37 123.48 365.94 C 119.10 369.00 115.06 372.56 110.60 375.46 C 105.80 377.02 102.30 381.25 97.21 381.96 C 91.40 385.68 84.76 387.91 78.02 389.21 C 71.03 389.79 64.04 390.53 57.01 390.60 C 52.33 390.76 47.91 388.94 43.40 387.95 C 43.33 390.95 43.52 393.98 43.10 396.97 C 42.49 399.02 40.97 400.63 39.89 402.44 C 45.79 403.21 51.54 404.80 57.05 407.02 C 57.46 407.72 57.82 408.45 58.12 409.22 C 64.85 408.80 71.58 409.39 78.31 408.99 C 78.39 409.19 78.55 409.59 78.63 409.79 C 64.93 410.40 51.29 408.81 37.59 408.96 C 35.76 407.73 33.92 406.50 32.06 405.30 C 30.34 406.90 28.55 408.71 25.98 408.54 C 24.79 407.28 25.05 405.43 24.74 403.87 C 24.42 400.42 22.77 397.30 21.61 394.09 C 24.58 391.07 28.63 390.17 32.73 390.83 C 33.54 389.96 34.34 389.10 35.14 388.25 C 35.11 385.32 35.35 382.39 36.51 379.67 C 36.22 379.40 35.65 378.86 35.37 378.60 C 36.49 376.17 37.50 373.67 39.08 371.49 C 41.76 367.43 46.66 365.95 50.47 363.24 C 51.81 363.24 53.15 363.25 54.48 363.27 C 54.61 362.86 54.88 362.04 55.01 361.63 C 56.27 361.29 57.48 360.83 58.64 360.24 C 58.13 358.77 57.53 357.35 56.92 355.94 C 56.62 354.42 56.38 352.89 56.15 351.36 C 52.75 348.63 49.89 345.28 46.40 342.67 C 39.66 339.48 31.52 340.80 24.95 337.13 C 22.00 334.28 21.42 329.95 20.17 326.22 C 18.41 327.53 16.63 328.80 14.84 330.08 C 10.78 326.48 10.06 320.89 7.52 316.36 C 6.10 313.30 3.71 310.54 3.46 307.07 C 3.06 301.47 2.80 295.24 6.47 290.57 C 11.44 284.09 17.13 278.05 23.92 273.46 C 24.85 273.42 26.71 273.35 27.64 273.31 C 27.59 274.22 27.49 276.03 27.44 276.93 C 25.81 279.03 25.34 281.61 25.36 284.23 L 25.10 284.68 C 22.66 287.62 24.32 291.45 24.81 294.77 C 26.86 296.90 28.68 299.28 31.02 301.14 C 31.61 299.64 32.21 298.15 32.81 296.66 C 34.54 292.34 36.21 287.88 39.81 284.73 C 41.92 281.31 45.65 279.77 49.16 278.22 C 49.96 279.02 50.76 279.82 51.56 280.63 C 51.50 282.88 51.44 285.14 51.39 287.39 C 52.46 286.45 53.51 285.50 54.57 284.56 C 52.71 280.95 50.56 277.21 50.60 273.03 C 50.33 265.40 51.26 257.06 56.32 250.98 C 58.40 251.38 60.45 251.90 62.51 252.41 C 63.39 253.79 64.30 255.15 65.22 256.51 C 65.77 256.49 66.89 256.46 67.45 256.44 C 70.73 261.86 75.08 266.54 79.02 271.47 C 81.05 271.98 83.06 272.82 84.36 274.54 C 87.21 276.11 90.40 276.74 93.48 277.67 C 97.90 279.98 102.56 282.09 105.99 285.85 C 108.52 290.59 113.32 294.90 111.87 300.82 C 115.14 302.05 115.94 305.77 117.95 308.28 C 119.95 316.21 113.71 322.59 112.53 330.05 C 110.64 337.40 111.40 345.03 110.93 352.53 C 112.91 351.79 114.86 350.59 117.02 350.59 C 119.67 351.14 122.16 352.25 124.76 352.98 C 125.39 354.61 125.97 356.26 126.56 357.91 C 128.07 357.44 129.58 356.99 131.10 356.57 C 131.10 363.88 128.55 370.88 128.42 378.17 C 129.12 379.33 129.80 380.49 130.50 381.66 C 130.15 381.94 129.46 382.49 129.12 382.76 C 129.75 383.93 130.36 385.11 130.98 386.30 C 133.27 381.33 134.46 375.97 135.77 370.70 C 136.15 369.85 136.52 369.01 136.89 368.17 C 137.93 367.19 138.14 366.06 137.54 364.78 C 137.61 362.03 138.22 359.31 140.05 357.18 C 141.35 356.08 141.96 354.47 142.08 352.81 C 142.88 350.76 143.62 348.70 144.38 346.65 C 147.14 342.53 149.00 337.85 152.30 334.10 C 155.16 330.30 159.32 327.87 162.88 324.83 C 169.02 323.20 175.04 321.12 181.23 319.66 C 181.89 319.11 182.55 318.57 183.21 318.02 C 183.70 318.00 184.68 317.94 185.16 317.92 C 186.53 316.39 187.99 314.96 189.34 313.42 C 190.37 312.68 191.38 311.93 192.38 311.16 C 198.10 309.52 204.07 310.65 209.91 310.50 C 211.05 307.79 212.13 304.85 214.67 303.11 C 214.81 302.74 215.10 302.02 215.25 301.65 C 215.78 301.62 216.85 301.54 217.38 301.51 C 218.81 300.52 220.39 299.80 222.07 299.34 C 222.08 298.79 222.11 297.68 222.13 297.12 C 217.87 296.61 213.77 294.91 210.64 291.95 C 209.40 291.49 207.67 291.78 206.91 290.48 C 205.21 288.14 203.24 286.01 201.59 283.64 C 201.24 280.56 201.58 277.45 201.61 274.37 C 200.74 274.38 198.99 274.41 198.12 274.42 C 196.26 278.88 193.74 283.10 189.90 286.13 C 187.90 286.08 185.89 286.04 183.89 286.02 C 182.30 284.40 180.68 282.81 179.27 281.03 C 176.22 275.53 177.81 269.17 177.30 263.24 C 176.36 261.15 174.64 259.53 173.31 257.70 C 168.34 251.47 165.16 243.24 166.95 235.24 C 165.65 234.07 164.35 232.90 163.11 231.67 C 159.02 226.70 158.19 220.28 157.99 214.08 C 160.21 207.01 162.47 199.24 168.75 194.66 C 173.25 192.33 178.56 191.06 183.57 192.39 C 188.87 193.04 193.28 196.20 197.99 198.45 C 203.20 194.06 210.67 192.46 214.33 186.33 C 217.46 181.37 219.94 175.89 221.05 170.11 C 221.88 169.28 222.72 168.46 223.56 167.64 C 221.20 157.51 218.48 147.42 217.47 137.04 C 216.98 133.06 219.76 129.76 220.50 126.00 C 221.38 119.66 227.36 116.04 231.60 111.92 C 232.15 111.71 233.25 111.31 233.79 111.10 M 234.98 115.95 C 232.65 117.90 229.80 119.49 228.28 122.21 C 227.14 127.10 224.56 131.96 225.74 137.11 C 226.73 141.59 226.00 146.45 228.39 150.57 C 231.12 158.24 231.84 167.08 228.55 174.72 C 227.24 174.69 225.94 174.66 224.63 174.63 C 224.67 175.32 224.74 176.70 224.77 177.38 C 224.37 177.78 223.57 178.57 223.18 178.97 C 227.42 176.36 232.14 174.57 237.02 173.58 C 239.79 173.68 242.52 174.27 245.29 174.42 C 245.66 175.37 246.04 176.33 246.42 177.28 C 242.25 177.73 237.89 177.21 233.90 178.78 C 229.77 179.76 226.40 182.72 222.07 182.99 C 219.68 184.47 218.53 187.18 217.07 189.47 C 223.21 189.54 229.28 190.66 235.32 191.67 C 238.25 192.08 240.67 193.81 242.75 195.82 C 242.40 196.57 241.71 198.07 241.36 198.81 C 238.74 198.84 236.87 197.08 235.26 195.24 C 235.00 195.59 234.48 196.29 234.22 196.64 C 232.31 195.22 230.01 195.80 227.87 196.15 C 222.99 195.33 217.98 195.05 213.05 195.57 C 209.06 197.40 205.51 200.15 201.32 201.63 C 201.40 201.97 201.56 202.63 201.64 202.97 C 206.07 205.33 209.20 209.64 214.12 211.16 C 216.68 211.80 216.71 214.44 216.61 216.59 C 213.31 216.78 210.09 215.99 206.83 215.64 C 205.73 215.48 204.49 215.46 203.66 214.59 C 198.20 209.56 192.75 204.27 185.99 201.03 C 182.10 198.66 177.28 199.00 172.95 199.58 C 169.19 202.20 168.04 207.27 166.88 211.47 C 165.48 215.75 167.45 220.02 167.59 224.32 C 169.67 227.80 172.70 230.56 174.89 233.96 C 174.54 234.35 173.83 235.13 173.47 235.52 C 173.79 235.88 174.42 236.60 174.74 236.96 C 174.57 238.23 174.41 239.51 174.26 240.79 C 175.72 242.74 176.64 244.97 176.72 247.43 C 177.12 247.76 177.91 248.41 178.31 248.74 C 179.25 254.39 184.30 257.49 188.28 260.97 C 191.06 263.59 195.14 263.71 198.32 265.66 C 202.69 268.59 208.13 267.08 212.94 268.57 C 222.43 270.94 231.47 265.23 240.90 265.33 C 243.44 265.32 246.22 264.96 248.40 266.62 C 243.24 271.25 236.11 272.28 229.54 273.39 C 222.21 275.44 214.53 274.59 207.03 274.41 C 207.60 279.00 211.85 281.24 214.89 284.12 C 217.09 286.20 220.25 286.62 222.79 288.17 C 228.54 291.88 235.06 294.73 241.98 295.05 C 248.32 295.42 254.54 297.15 260.92 296.71 C 266.30 296.43 271.65 297.25 277.03 297.05 C 282.29 297.43 287.60 298.05 292.85 297.19 C 298.72 295.70 304.44 298.62 310.33 298.59 C 311.12 299.15 311.93 299.71 312.73 300.28 C 316.86 300.09 320.89 301.08 324.75 302.44 C 324.71 303.42 324.63 305.39 324.59 306.37 C 323.11 307.06 321.66 307.85 320.09 308.32 C 314.35 307.61 308.78 305.90 303.11 304.81 C 295.42 303.78 287.65 304.57 279.93 304.44 C 278.54 304.51 277.25 304.05 276.04 303.42 C 271.71 303.49 267.37 303.73 263.03 303.57 C 258.73 303.34 254.43 304.70 250.17 303.57 C 246.34 303.43 242.55 303.02 238.77 302.41 C 238.47 302.75 237.87 303.41 237.57 303.75 C 237.33 308.48 242.06 310.72 245.53 312.70 C 251.77 317.27 259.94 316.94 266.89 319.90 C 273.83 322.75 281.62 322.32 288.49 325.32 C 287.63 328.84 290.32 331.31 292.27 333.81 C 292.42 336.30 293.42 338.58 294.74 340.67 C 295.62 340.65 297.37 340.60 298.25 340.58 C 299.87 339.13 301.52 337.70 303.18 336.29 C 303.59 336.71 304.40 337.54 304.80 337.95 C 311.41 336.72 317.68 334.09 324.17 332.35 C 336.47 330.12 348.98 328.64 360.97 324.92 C 364.45 324.27 368.02 323.75 371.16 322.00 C 378.24 318.34 386.44 317.41 393.24 313.14 C 402.07 309.15 411.57 305.70 418.35 298.44 C 422.88 293.51 429.71 289.89 431.32 282.91 C 428.43 277.33 425.79 271.63 422.82 266.09 C 422.20 265.88 420.94 265.46 420.32 265.25 C 422.03 261.74 421.79 257.77 421.41 254.00 C 420.50 247.39 419.66 240.75 419.49 234.08 C 419.26 229.87 417.69 225.94 416.65 221.92 C 414.58 209.19 412.79 196.26 408.42 184.08 C 408.60 181.97 408.80 179.85 409.43 177.83 C 412.58 168.49 414.72 158.78 415.24 148.93 C 414.37 142.13 411.89 135.66 407.98 130.04 C 405.55 125.01 401.17 121.48 396.74 118.30 C 389.51 114.10 381.05 111.06 372.62 112.96 C 367.12 114.85 362.69 118.74 358.01 122.04 C 355.53 123.87 353.67 126.36 351.91 128.84 C 350.42 131.15 347.65 132.55 347.08 135.40 C 348.90 135.87 350.72 136.35 352.56 136.79 C 352.56 138.01 352.61 139.23 352.50 140.45 C 351.06 141.55 349.47 142.43 347.93 143.38 C 342.98 140.34 336.94 140.55 331.77 138.02 C 322.67 136.29 313.54 133.93 304.20 134.32 C 295.39 133.84 286.34 135.37 278.59 139.71 C 273.72 141.99 269.81 145.85 264.86 147.99 C 264.66 149.16 264.47 150.33 264.29 151.50 C 262.51 151.60 260.74 151.70 258.97 151.78 C 259.33 146.93 263.40 143.76 266.91 140.96 C 272.41 137.30 277.86 133.46 284.08 131.09 C 276.77 124.89 267.52 121.84 259.68 116.45 C 255.64 113.38 250.35 113.25 245.92 111.03 C 242.35 112.88 238.08 113.24 234.98 115.95 M 434.85 247.57 C 438.01 250.18 440.75 253.57 440.80 257.87 C 442.50 263.58 440.96 269.42 440.52 275.18 C 439.91 278.20 438.56 281.04 438.23 284.13 C 436.30 286.62 435.30 289.62 433.86 292.37 C 427.94 298.30 421.18 303.33 414.74 308.68 C 409.67 312.01 404.58 315.49 398.81 317.53 C 392.22 320.13 386.00 324.00 378.89 325.02 C 374.98 326.24 371.51 328.82 367.26 328.89 C 366.62 329.40 365.98 329.92 365.35 330.44 C 360.11 330.78 355.23 332.82 350.09 333.66 C 348.60 333.86 347.26 334.57 345.93 335.21 C 339.23 335.81 332.68 337.38 326.08 338.60 C 322.95 339.23 319.56 338.23 316.67 339.86 C 314.85 340.78 312.78 340.75 310.80 340.96 C 310.71 342.60 310.63 344.24 310.55 345.89 C 313.36 348.24 315.86 350.94 317.81 354.06 C 320.49 358.38 324.15 361.97 326.90 366.25 C 328.86 368.95 330.08 372.19 332.60 374.48 C 335.17 376.93 335.78 380.63 337.73 383.51 C 339.98 387.91 343.09 391.84 344.97 396.43 C 351.54 397.29 357.85 395.07 363.96 392.96 C 370.57 390.02 377.72 388.56 384.28 385.49 C 393.32 382.71 403.25 381.00 410.51 374.45 C 414.14 370.53 418.71 367.57 423.56 365.38 C 426.80 363.76 429.32 361.07 432.38 359.15 C 432.44 358.58 432.55 357.43 432.61 356.86 C 435.97 353.49 440.56 351.58 443.43 347.72 C 447.02 343.35 452.01 340.20 454.74 335.12 C 458.75 327.82 464.76 320.84 464.68 312.06 C 465.14 306.87 462.56 302.14 461.93 297.08 C 458.77 287.65 457.12 277.80 455.86 267.96 C 455.48 263.45 453.19 259.46 451.67 255.28 C 446.56 251.73 440.11 250.81 434.85 247.57 M 428.33 252.85 C 429.22 256.60 429.62 260.48 430.80 264.16 C 432.04 267.04 433.91 269.69 434.09 272.93 C 435.60 265.88 434.90 257.19 428.33 252.85 M 55.79 262.13 C 55.13 268.90 55.23 276.77 60.53 281.81 C 60.55 283.53 60.55 285.26 60.56 286.99 C 56.83 290.05 52.63 292.57 49.56 296.38 C 49.59 298.71 49.62 301.04 49.68 303.38 C 49.47 303.66 49.05 304.22 48.84 304.50 C 49.31 305.95 50.66 308.36 48.44 308.97 C 49.98 309.95 49.50 311.93 49.74 313.49 C 50.35 314.23 50.97 314.97 51.59 315.71 C 51.59 317.46 51.58 319.21 51.56 320.96 C 47.42 320.27 45.75 315.56 45.44 311.91 C 45.22 303.93 45.33 295.95 45.49 287.98 C 41.98 290.27 39.84 293.95 37.58 297.37 C 35.22 301.49 34.77 306.33 34.16 310.94 C 32.67 312.97 30.30 314.00 28.09 315.05 C 28.86 312.23 29.62 309.41 30.01 306.52 C 27.93 306.59 25.85 306.56 23.78 306.43 C 24.06 301.96 20.69 298.63 18.46 295.11 C 18.52 291.17 19.71 287.37 19.81 283.43 C 19.25 283.44 18.12 283.45 17.55 283.45 C 17.51 284.07 17.43 285.32 17.38 285.94 C 13.97 288.31 11.97 292.12 8.63 294.57 C 7.69 298.81 7.38 303.15 8.82 307.33 C 11.10 309.30 12.11 311.98 11.72 314.97 C 14.65 316.79 16.09 320.03 18.28 322.57 C 19.77 321.37 21.37 320.24 23.36 320.15 C 23.68 322.64 24.17 325.12 24.72 327.58 C 26.98 329.86 29.68 331.93 32.96 332.32 C 36.82 332.73 40.67 333.24 44.41 334.34 C 46.96 335.30 48.81 332.78 51.04 332.04 C 52.22 336.22 56.46 338.75 56.95 343.12 C 60.79 343.80 64.68 345.32 68.60 344.37 C 71.66 343.63 74.79 343.26 77.93 343.20 C 78.75 345.20 78.48 347.41 76.46 348.56 C 72.29 350.30 68.10 352.28 63.55 352.78 C 63.26 356.91 64.42 360.93 64.52 365.03 C 64.81 371.49 60.67 377.12 61.28 383.62 C 66.04 383.44 70.84 383.94 75.58 383.31 C 84.50 381.79 93.59 379.12 101.06 373.93 C 104.55 360.98 104.83 347.46 104.36 334.14 C 106.27 328.98 107.87 323.57 110.73 318.79 C 112.04 316.39 111.23 313.46 109.65 311.40 C 106.85 307.70 104.06 303.93 100.55 300.87 C 100.12 302.36 99.69 303.86 99.28 305.36 C 96.58 306.36 93.68 306.84 90.93 305.73 C 89.42 306.07 87.92 306.43 86.41 306.79 C 86.67 310.99 88.15 314.99 89.03 319.07 C 91.29 323.08 90.19 327.75 90.27 332.11 C 93.72 331.06 97.07 329.63 100.01 327.49 C 101.64 327.47 103.28 327.47 104.91 327.49 C 104.66 329.32 103.69 331.01 101.97 331.81 C 95.51 334.68 88.20 336.90 83.66 342.69 C 82.73 343.89 81.42 344.81 79.85 344.80 C 77.48 344.80 79.15 341.71 79.70 340.68 C 79.34 340.24 78.61 339.36 78.25 338.91 C 78.67 338.78 79.52 338.52 79.95 338.39 C 81.87 334.95 84.12 331.62 85.35 327.86 C 85.83 317.79 80.74 308.80 77.16 299.72 C 76.82 299.58 76.15 299.31 75.82 299.17 C 74.23 303.08 72.68 307.00 70.85 310.81 C 69.46 313.73 69.15 317.34 66.53 319.54 C 64.92 321.21 62.56 321.54 60.39 321.91 C 60.39 321.38 60.38 320.30 60.37 319.76 C 62.35 318.62 64.75 317.59 65.40 315.16 C 67.19 310.14 69.28 305.24 71.25 300.29 C 72.16 295.34 70.96 289.74 74.62 285.62 C 75.51 285.58 76.40 285.55 77.28 285.52 C 77.57 287.23 77.48 289.11 78.58 290.56 C 81.63 294.80 82.80 299.98 84.96 304.68 C 87.52 304.59 89.44 302.45 92.01 302.51 C 93.70 302.39 95.39 302.39 97.08 302.36 C 99.01 299.13 100.26 295.55 99.74 291.74 C 92.93 286.68 84.59 284.29 77.97 278.98 C 72.81 275.99 69.20 271.11 65.51 266.56 C 63.13 263.56 59.99 261.25 57.83 258.07 C 57.13 259.40 56.21 260.67 55.79 262.13 M 184.60 268.37 C 184.58 269.28 184.55 271.09 184.54 272.00 C 185.69 274.06 186.80 276.15 187.93 278.22 C 188.79 275.95 190.21 273.82 190.58 271.39 C 188.97 269.75 186.70 269.10 184.60 268.37 M 228.51 301.38 C 224.35 304.94 220.26 308.61 216.54 312.65 C 215.60 313.47 215.75 314.84 215.72 315.97 C 216.24 325.33 219.35 334.60 217.97 343.99 C 217.71 349.60 217.81 355.45 220.46 360.55 C 223.15 364.65 227.10 367.85 229.16 372.38 C 231.20 377.30 235.90 380.23 238.91 384.47 C 239.65 384.48 240.40 384.49 241.16 384.50 C 243.62 378.52 246.53 372.76 249.44 366.99 C 251.02 362.69 255.50 360.54 257.69 356.62 C 260.89 351.01 265.95 346.87 270.87 342.84 C 274.29 339.71 279.11 339.20 283.39 337.97 C 283.47 337.50 283.63 336.56 283.71 336.09 C 283.39 335.62 282.73 334.67 282.40 334.20 C 282.37 332.71 282.35 331.23 282.32 329.75 C 277.97 329.71 273.55 329.51 269.42 327.98 C 262.33 325.50 255.00 323.82 247.76 321.86 C 242.14 320.99 237.29 317.71 232.59 314.72 C 231.38 310.84 232.44 306.95 232.68 303.04 C 232.75 300.88 229.84 301.83 228.51 301.38 M 468.55 314.99 C 468.45 316.18 468.37 317.37 468.29 318.56 C 468.64 318.93 469.34 319.67 469.69 320.04 C 469.54 321.59 469.55 323.26 468.55 324.56 C 464.89 330.22 462.30 336.69 457.53 341.54 C 457.49 341.98 457.42 342.84 457.38 343.28 C 457.85 343.52 458.79 344.00 459.26 344.25 C 466.88 341.59 473.99 337.75 481.49 334.78 C 484.67 333.60 487.95 332.72 491.07 331.36 C 490.11 330.09 489.17 328.83 488.23 327.56 C 483.78 325.78 478.33 324.82 476.11 320.00 C 473.45 318.54 471.10 316.60 468.55 314.99 M 286.12 342.59 C 283.06 343.84 280.03 345.15 277.06 346.59 C 274.57 347.78 272.31 350.01 272.32 352.96 C 274.96 351.82 278.56 350.82 279.22 347.61 C 279.94 344.49 283.79 344.19 286.12 342.59 M 279.88 363.87 C 278.79 364.46 279.31 366.29 279.91 367.09 C 283.21 369.95 287.84 370.31 292.01 370.39 C 296.05 370.41 300.27 371.05 304.11 369.46 C 307.86 368.22 310.04 364.67 312.92 362.20 C 313.32 358.30 310.23 355.69 308.04 352.93 C 306.65 352.46 305.28 351.97 303.91 351.47 C 296.14 356.05 287.56 359.13 279.88 363.87 M 263.53 355.40 C 259.69 363.52 251.64 370.32 252.45 380.02 C 252.66 384.34 250.73 388.63 252.04 392.90 C 253.09 398.43 255.64 403.71 255.51 409.42 C 256.81 410.36 258.18 411.48 259.91 411.37 C 269.39 411.88 278.90 411.78 288.40 411.74 C 289.82 406.95 293.43 403.07 298.09 401.28 C 301.69 400.10 304.82 397.71 308.62 397.15 C 308.67 395.56 308.64 393.97 308.60 392.38 C 304.40 391.73 300.82 394.39 297.25 396.14 C 291.73 399.30 285.28 400.53 278.98 400.64 C 280.23 398.47 281.50 396.31 282.76 394.15 C 282.24 394.23 281.20 394.40 280.68 394.48 C 279.05 398.45 277.85 402.89 274.36 405.70 C 274.76 395.75 277.61 386.11 279.74 376.44 C 274.80 374.32 270.52 370.62 268.01 365.84 C 266.85 362.41 266.98 358.69 266.62 355.12 C 265.59 355.21 264.55 355.31 263.53 355.40 M 109.64 357.23 C 108.75 360.47 107.97 363.74 107.24 367.02 L 106.65 367.87 C 106.58 369.21 106.51 370.55 106.44 371.90 C 110.87 370.75 114.46 367.79 117.66 364.66 C 117.67 362.66 117.68 360.66 117.70 358.66 C 115.04 358.02 112.36 357.50 109.64 357.23 M 47.58 373.78 C 47.68 375.68 46.71 378.09 48.37 379.56 C 50.33 382.00 53.35 382.99 56.27 383.71 C 57.40 377.13 59.53 370.67 58.59 363.90 C 54.68 366.92 50.54 369.74 47.58 373.78 M 34.48 394.44 C 34.47 395.76 34.46 397.08 34.45 398.41 C 35.02 398.50 36.14 398.68 36.71 398.76 C 36.56 397.38 36.41 395.99 36.27 394.62 C 35.82 394.57 34.93 394.48 34.48 394.44 M 122.66 402.05 C 118.59 403.58 114.44 405.05 110.76 407.42 C 108.85 408.71 106.54 409.06 104.34 409.54 C 111.36 410.03 118.38 410.17 125.41 410.52 C 125.90 407.00 126.53 403.49 126.70 399.94 C 125.30 400.53 123.96 401.27 122.66 402.05 Z"/><path d="M 230.77 140.78 C 234.99 134.20 243.21 130.12 251.00 131.26 C 253.25 131.50 256.36 131.36 257.38 133.90 C 258.67 137.73 253.29 139.86 250.80 137.22 C 247.20 137.69 243.62 138.63 240.43 140.39 C 238.39 142.32 238.07 145.34 236.54 147.61 C 234.72 149.22 231.65 148.89 230.23 146.86 C 230.41 144.84 230.12 142.72 230.77 140.78 Z"/><path d="M 366.36 135.01 C 367.41 133.83 368.46 132.64 369.52 131.46 C 376.13 131.04 382.64 132.68 388.62 135.43 C 392.35 137.52 396.09 141.55 394.54 146.17 C 394.31 148.44 391.26 147.31 389.79 147.63 C 384.78 139.51 374.19 140.56 366.32 137.50 C 366.33 136.87 366.35 135.63 366.36 135.01 Z"/><path d="M 243.78 142.95 C 246.44 140.71 250.33 141.63 253.54 141.49 C 253.20 143.61 254.35 146.74 252.02 147.98 C 249.30 149.07 246.37 149.49 243.46 149.57 C 243.34 147.36 243.05 145.08 243.78 142.95 Z"/><path d="M 377.46 144.82 C 379.82 144.33 382.18 143.81 384.54 143.28 C 385.58 144.78 386.46 146.39 386.98 148.16 C 385.38 149.25 383.85 150.48 382.08 151.29 C 380.51 151.31 379.06 150.63 377.59 150.22 C 377.55 148.42 377.48 146.62 377.46 144.82 Z"/><path d="M 278.98 181.99 C 281.59 181.23 284.31 181.17 287.01 181.26 C 286.35 182.54 285.87 184.17 284.17 184.30 C 279.79 185.37 275.33 187.16 270.75 186.26 C 267.88 185.81 264.98 185.62 262.08 185.54 C 262.19 185.03 262.41 184.01 262.52 183.50 C 267.75 181.17 273.61 183.67 278.98 181.99 Z"/><path d="M 257.32 196.65 C 261.53 195.70 265.84 195.21 270.15 195.71 C 270.23 196.18 270.38 197.13 270.46 197.60 C 267.70 199.22 264.54 199.72 261.37 199.45 C 260.05 198.47 258.69 197.55 257.32 196.65 Z"/><path d="M 308.04 199.93 C 310.94 199.00 313.97 197.91 317.06 198.28 C 320.17 199.01 323.10 200.71 325.12 203.22 C 328.04 206.29 328.83 210.57 330.47 214.34 C 332.05 218.02 331.49 222.10 331.50 225.98 C 331.40 230.79 332.13 235.97 329.53 240.31 C 326.25 245.86 322.19 251.20 316.84 254.90 C 314.10 256.90 310.43 253.91 311.35 250.83 C 318.09 247.59 323.04 241.10 325.20 234.03 C 325.86 229.13 325.74 223.94 323.74 219.34 C 322.12 215.49 322.38 210.77 319.32 207.61 C 317.71 205.89 315.58 203.89 313.01 204.48 C 309.96 205.65 306.95 206.97 303.92 208.18 C 297.84 211.80 292.13 216.63 284.92 217.74 C 284.06 217.02 283.19 216.31 282.33 215.60 C 282.42 215.16 282.61 214.28 282.71 213.84 C 292.07 210.98 299.41 204.24 308.04 199.93 Z"/><path d="M 175.17 218.04 C 178.18 215.35 181.70 211.30 186.22 212.82 C 189.78 213.47 191.73 216.74 193.53 219.52 C 192.49 221.02 192.18 222.80 192.13 224.60 C 194.68 224.62 197.22 224.65 199.77 224.71 C 199.14 225.96 198.47 227.19 197.76 228.40 C 195.75 228.60 193.48 228.15 191.74 229.40 C 188.22 231.63 185.39 235.69 180.75 235.40 C 179.11 234.33 179.75 232.24 179.51 230.61 C 179.05 230.27 178.14 229.58 177.69 229.24 C 177.34 227.78 176.96 226.33 176.59 224.88 C 176.84 224.33 177.36 223.24 177.62 222.69 C 178.17 222.43 179.28 221.92 179.83 221.67 C 181.43 222.10 183.05 222.50 184.67 222.90 C 184.59 222.28 184.43 221.04 184.36 220.43 C 181.07 220.53 176.91 221.81 175.17 218.04 Z"/><path d="M 228.69 213.48 C 234.09 212.94 239.52 212.34 244.92 213.22 C 250.44 212.99 255.88 213.75 261.34 214.38 C 262.74 215.45 263.72 216.87 263.98 218.64 C 260.42 220.24 256.71 218.40 253.03 218.52 C 243.96 218.48 234.79 219.02 225.85 217.13 C 226.75 215.88 227.74 214.70 228.69 213.48 Z"/><path d="M 298.97 224.90 C 302.26 222.68 305.98 220.44 310.13 221.36 C 311.56 222.92 313.04 224.42 314.55 225.90 C 314.54 226.68 314.51 228.23 314.50 229.01 C 313.43 232.41 312.56 236.09 309.60 238.40 C 308.03 238.71 306.47 239.06 304.92 239.43 C 302.97 238.79 301.07 238.01 299.34 236.91 C 297.21 236.34 295.39 235.10 294.23 233.19 C 295.57 230.32 296.71 227.21 298.97 224.90 M 302.95 229.06 C 302.21 229.65 301.26 230.21 301.42 231.29 C 302.97 230.55 304.55 229.86 306.13 229.19 C 306.21 228.77 306.35 227.93 306.42 227.50 C 305.11 227.68 303.66 227.71 302.95 229.06 Z"/><path d="M 356.90 232.83 C 361.05 229.66 366.37 230.29 371.06 231.74 C 371.95 233.78 372.95 235.78 374.00 237.76 C 370.43 237.53 366.26 238.20 363.50 235.39 C 361.67 233.47 357.88 235.84 356.90 232.83 Z"/><path d="M 337.70 261.66 C 343.58 257.63 345.99 250.27 351.86 246.28 C 352.41 247.16 352.97 248.06 353.54 248.95 C 352.47 250.56 351.30 252.15 350.59 253.97 C 352.54 263.08 351.51 272.64 348.19 281.30 C 347.20 282.01 346.22 282.71 345.22 283.39 C 340.47 282.60 335.91 281.12 332.28 277.76 L 331.66 280.58 C 331.39 278.94 331.68 277.27 331.73 275.63 C 327.17 274.19 322.75 276.27 318.53 277.75 C 318.46 278.05 318.32 278.67 318.25 278.98 C 311.57 277.63 304.47 279.64 297.89 277.55 C 296.79 277.90 295.69 278.25 294.59 278.61 C 294.51 285.56 288.56 293.31 280.98 291.36 C 274.04 289.66 271.90 282.22 266.69 278.20 C 266.64 277.02 266.58 275.83 266.54 274.66 C 261.24 274.92 255.83 273.80 251.47 270.71 C 251.37 269.41 251.43 268.11 251.44 266.81 C 252.59 266.35 253.73 265.89 254.88 265.43 C 259.69 267.07 264.87 269.11 269.99 267.76 C 271.61 268.34 273.22 269.05 274.97 269.13 C 280.35 269.41 285.57 271.10 291.00 270.70 C 295.43 270.36 300.06 271.49 304.33 270.01 C 315.95 274.43 328.76 269.39 337.70 261.66 M 338.28 268.06 C 339.13 269.81 339.99 271.56 340.84 273.32 C 341.29 273.47 342.19 273.76 342.63 273.91 C 342.17 270.18 343.79 266.64 343.51 262.93 C 341.96 264.82 340.51 266.90 338.28 268.06 M 278.98 277.16 C 280.62 279.59 281.73 283.61 285.45 282.75 C 285.58 281.28 285.71 279.81 285.84 278.34 C 283.59 277.77 281.29 277.37 278.98 277.16 Z"/><path d="M 10.29 327.24 C 10.44 327.61 10.74 328.36 10.89 328.73 C 11.96 329.34 13.04 329.94 14.12 330.53 C 15.28 330.20 16.43 329.87 17.59 329.55 C 17.98 329.16 18.77 328.38 19.17 327.99 C 19.84 329.13 19.88 330.43 19.81 331.73 C 19.47 331.41 18.81 330.78 18.47 330.47 C 17.24 330.75 16.02 331.03 14.79 331.33 C 13.41 330.55 12.03 329.78 10.64 329.02 C 10.56 328.58 10.38 327.68 10.29 327.24 Z"/><path d="M 473.98 348.05 C 475.40 345.64 478.22 345.35 480.72 345.00 C 480.91 345.80 481.27 347.39 481.46 348.19 C 479.08 351.53 475.41 353.87 473.76 357.78 C 468.15 365.92 463.49 374.76 460.58 384.22 C 460.12 388.19 461.83 392.08 461.28 396.08 C 460.61 401.35 460.56 406.66 460.86 411.97 C 458.78 412.38 456.69 412.77 454.57 412.70 C 454.33 404.45 455.51 396.25 455.36 388.01 C 455.36 386.29 455.58 384.57 456.16 382.94 C 458.84 375.45 461.30 367.72 466.00 361.18 C 469.07 357.05 470.89 352.15 473.98 348.05 Z"/></g><g fill="#fff"><path d="M 335.57 21.51 C 335.57 18.84 335.57 16.16 335.57 13.49 C 338.49 13.49 341.41 13.49 344.34 13.53 C 344.33 16.17 344.33 18.82 344.34 21.47 C 341.42 21.50 338.49 21.51 335.57 21.51 Z"/><path d="M 83.44 19.49 C 86.37 17.74 89.33 16.05 92.30 14.36 C 92.37 18.15 92.35 21.95 92.34 25.74 C 94.35 25.74 96.36 25.75 98.38 25.76 C 98.38 28.07 98.38 30.39 98.39 32.70 C 96.38 32.73 94.36 32.75 92.35 32.76 C 92.39 38.99 92.19 45.23 92.57 51.45 C 94.49 52.04 96.47 51.86 98.41 51.48 C 98.54 53.72 98.69 55.95 98.83 58.19 C 94.97 59.20 90.74 59.77 86.99 58.05 C 84.45 56.71 83.62 53.62 83.56 50.96 C 83.41 44.90 83.56 38.83 83.51 32.77 C 82.16 32.75 80.81 32.72 79.46 32.70 C 79.47 30.39 79.48 28.08 79.48 25.76 C 80.83 25.75 82.18 25.74 83.54 25.73 C 83.51 23.65 83.49 21.57 83.44 19.49 Z"/><path d="M 313.64 21.77 C 314.38 17.39 319.61 16.78 322.67 14.43 C 322.69 18.17 322.69 21.91 322.66 25.65 C 324.65 25.70 326.65 25.73 328.65 25.75 C 328.69 28.08 328.70 30.41 328.72 32.74 C 326.71 32.75 324.69 32.76 322.68 32.78 C 322.68 38.56 322.67 44.34 322.69 50.12 C 323.00 50.58 323.63 51.51 323.94 51.98 C 325.51 51.87 327.09 51.73 328.67 51.57 C 329.14 53.72 329.43 55.90 329.62 58.10 C 324.62 59.52 317.82 60.28 314.55 55.28 C 314.45 52.87 314.34 50.45 313.81 48.09 C 313.61 42.98 313.81 37.87 313.66 32.77 C 312.32 32.71 310.99 32.66 309.67 32.60 C 309.68 30.36 309.69 28.12 309.69 25.89 C 311.04 25.81 312.39 25.75 313.75 25.68 C 313.72 24.38 313.68 23.07 313.64 21.77 Z"/><path d="M 11.80 29.79 C 17.79 23.14 29.96 23.71 35.11 31.12 C 37.83 35.05 38.46 40.00 38.54 44.67 C 31.10 44.85 23.66 44.69 16.22 44.77 C 16.75 47.43 17.49 50.53 20.15 51.84 C 22.77 53.49 25.97 52.62 28.31 50.90 C 28.42 50.25 28.64 48.94 28.75 48.28 C 31.84 48.52 34.90 48.99 37.94 49.61 C 36.20 53.40 33.41 57.04 29.26 58.29 C 24.10 59.81 18.03 59.61 13.51 56.42 C 9.26 53.42 7.44 48.01 7.45 42.98 C 7.26 38.28 8.40 33.23 11.80 29.79 M 16.33 39.43 C 20.79 39.53 25.25 39.50 29.71 39.49 C 29.62 36.13 27.85 32.27 24.09 31.93 C 19.57 30.99 16.57 35.43 16.33 39.43 Z"/><path d="M 54.37 25.59 C 59.63 25.01 65.65 24.54 70.22 27.72 C 73.80 30.30 73.43 35.19 73.45 39.08 C 73.67 45.57 72.47 52.41 75.23 58.53 C 72.39 58.50 69.54 58.50 66.70 58.51 C 66.33 57.37 65.96 56.24 65.59 55.11 C 62.12 58.03 57.54 60.00 52.95 58.95 C 49.28 58.70 46.57 56.01 44.67 53.10 C 44.60 50.33 43.92 47.23 45.63 44.79 C 47.14 42.11 50.13 40.88 52.97 40.18 C 56.95 39.19 61.00 38.49 64.95 37.35 C 64.68 35.72 64.83 33.74 63.34 32.63 C 59.75 30.88 54.56 31.54 53.06 35.73 C 50.43 35.35 47.81 34.90 45.20 34.43 C 46.59 30.20 49.71 26.25 54.37 25.59 M 54.83 45.73 C 52.71 46.78 53.44 49.34 53.49 51.22 C 56.04 53.56 59.98 53.75 62.62 51.44 C 65.30 49.49 64.76 45.88 64.91 43.00 C 61.55 43.86 57.98 44.18 54.83 45.73 Z"/><path d="M 130.80 30.02 C 133.69 27.58 136.96 24.97 140.98 25.21 C 144.78 24.85 148.22 27.02 150.33 30.05 C 153.37 27.52 156.84 24.80 161.05 25.22 C 165.82 25.03 170.08 28.38 171.31 32.94 C 171.60 41.46 171.40 49.99 171.46 58.51 C 168.49 58.51 165.53 58.50 162.57 58.46 C 162.55 50.49 162.68 42.52 162.44 34.56 C 161.41 33.55 160.53 32.15 158.98 31.95 C 155.37 31.15 151.95 34.45 151.79 37.99 C 151.16 44.80 151.64 51.67 151.49 58.50 C 148.54 58.51 145.58 58.51 142.63 58.48 C 142.59 51.31 142.72 44.13 142.59 36.96 C 142.69 35.20 141.69 33.71 140.89 32.23 C 137.18 30.92 132.48 32.75 132.03 37.01 C 131.05 44.11 131.79 51.34 131.56 58.49 C 128.60 58.50 125.63 58.51 122.67 58.50 C 122.66 47.58 122.66 36.66 122.67 25.74 C 125.36 25.74 128.06 25.74 130.75 25.74 C 130.76 27.17 130.78 28.59 130.80 30.02 Z"/><path d="M 239.67 28.68 C 245.99 23.25 257.03 24.13 261.94 31.04 C 264.75 34.98 265.18 39.99 265.37 44.68 C 258.05 44.82 250.72 44.73 243.40 44.74 C 243.44 45.62 243.53 47.36 243.58 48.23 C 245.05 49.96 246.41 52.33 248.91 52.58 C 252.05 53.53 255.24 51.30 256.03 48.25 C 258.98 48.60 261.91 49.10 264.83 49.62 C 263.09 53.35 260.36 56.94 256.28 58.24 C 250.51 59.97 243.35 59.64 238.89 55.14 C 235.37 51.80 233.95 46.78 234.28 42.03 C 234.02 37.08 235.85 31.94 239.67 28.68 M 243.27 39.47 C 247.76 39.51 252.25 39.53 256.73 39.43 C 256.24 36.22 254.78 32.38 251.08 31.95 C 246.59 30.91 243.15 35.29 243.27 39.47 Z"/><path d="M 281.35 30.73 C 285.33 25.41 293.24 23.41 299.03 26.93 C 301.37 28.07 302.14 30.71 303.29 32.83 C 303.52 41.39 303.35 49.95 303.40 58.51 C 300.46 58.51 297.52 58.50 294.58 58.47 C 294.55 51.64 294.66 44.82 294.55 37.99 C 294.70 35.31 293.05 32.05 290.08 31.85 C 286.42 31.30 282.71 34.19 282.42 37.91 C 281.75 44.75 282.12 51.64 282.02 58.50 C 279.14 58.50 276.25 58.50 273.37 58.53 C 273.33 47.59 273.28 36.65 273.39 25.71 C 276.06 25.74 278.72 25.75 281.39 25.75 C 281.38 27.41 281.37 29.07 281.35 30.73 Z"/><path d="M 361.42 30.42 C 363.04 28.51 364.53 26.14 367.08 25.41 C 369.73 24.77 372.37 25.71 374.84 26.60 C 373.97 29.11 373.08 31.60 372.17 34.10 C 370.24 33.49 368.17 32.49 366.14 33.23 C 363.53 34.29 362.62 37.36 362.47 39.93 C 362.09 46.11 362.16 52.31 362.15 58.50 C 359.22 58.51 356.30 58.50 353.39 58.51 C 353.39 47.58 353.36 36.66 353.41 25.74 C 356.09 25.74 358.78 25.74 361.47 25.75 C 361.45 27.30 361.44 28.86 361.42 30.42 Z"/><path d="M 380.52 30.48 C 386.51 22.92 400.16 23.44 405.11 31.89 C 407.49 35.74 407.76 40.35 407.81 44.75 C 400.34 45.19 392.65 43.83 385.34 45.53 C 386.65 48.51 388.10 52.30 391.87 52.65 C 395.15 53.56 397.68 50.93 398.89 48.21 C 401.66 48.63 404.42 49.09 407.17 49.58 C 403.45 62.51 382.37 62.32 377.91 49.95 C 376.86 43.52 376.02 35.87 380.52 30.48 M 386.41 35.66 C 386.38 36.62 386.30 38.54 386.27 39.50 C 390.49 39.49 394.72 39.52 398.95 39.46 C 399.28 35.84 396.83 32.03 392.99 31.83 C 390.11 31.46 388.04 33.64 386.41 35.66 Z"/><path d="M 432.92 34.43 C 434.16 29.79 437.99 25.86 442.92 25.45 C 448.37 25.07 455.07 24.50 459.14 28.93 C 460.78 30.48 460.67 32.89 461.28 34.91 C 461.49 41.65 461.06 48.40 461.62 55.12 C 461.95 55.96 462.62 57.63 462.95 58.47 C 460.19 58.50 457.44 58.62 454.69 58.45 C 454.08 57.40 453.54 56.32 453.06 55.20 C 448.55 59.43 441.18 60.67 435.91 57.16 C 430.54 53.79 430.79 44.58 436.52 41.70 C 441.61 39.33 447.35 39.02 452.67 37.34 C 453.69 30.40 442.49 29.86 440.80 35.69 C 438.15 35.37 435.53 34.92 432.92 34.43 M 441.75 45.87 C 441.10 47.45 439.97 49.31 441.36 50.86 C 443.54 54.49 449.13 53.35 451.37 50.36 C 452.96 48.23 452.36 45.45 452.51 42.98 C 448.87 43.76 445.23 44.56 441.75 45.87 Z"/><path d="M 469.63 31.83 C 471.27 27.72 475.67 25.59 479.89 25.33 C 483.96 25.10 488.30 24.97 492.07 26.79 C 494.81 28.22 496.45 30.97 497.62 33.74 C 494.97 34.25 492.34 34.76 489.70 35.26 C 487.47 30.55 481.54 30.87 477.41 32.54 C 477.39 33.49 477.38 34.43 477.37 35.38 C 483.32 38.24 490.55 37.90 495.95 41.93 C 500.90 46.41 498.55 55.17 492.57 57.51 C 485.12 60.59 475.15 59.82 469.61 53.44 C 469.09 52.03 468.55 50.63 468.05 49.22 C 470.87 48.93 473.75 47.85 476.59 48.30 C 477.85 50.79 479.84 53.18 482.94 52.99 C 485.90 53.53 491.80 51.74 489.27 47.76 C 483.68 45.49 477.17 45.49 472.14 41.87 C 469.01 39.61 468.82 35.27 469.63 31.83 Z"/><path d="M 506.40 31.32 C 508.21 27.32 512.77 25.50 516.92 25.29 C 520.70 25.13 524.68 25.04 528.22 26.61 C 531.06 28.03 533.35 30.66 534.03 33.80 C 531.37 34.34 528.69 34.81 525.99 35.04 C 524.15 30.85 518.77 30.81 515.08 32.20 C 513.62 32.79 512.73 34.58 514.51 35.50 C 519.90 38.24 526.43 37.94 531.61 41.27 C 533.37 42.32 534.30 44.22 535.12 46.02 C 535.23 47.40 535.36 48.78 535.49 50.17 C 534.02 53.86 531.23 57.16 527.28 58.25 C 521.71 59.85 515.37 59.55 510.20 56.81 C 507.23 55.26 505.52 52.27 504.28 49.28 C 507.18 48.80 510.08 48.35 513.00 47.95 C 514.66 53.84 522.09 54.13 526.47 51.18 C 526.43 50.34 526.36 48.66 526.32 47.82 C 520.81 45.82 514.70 45.46 509.55 42.49 C 505.82 40.28 504.43 35.15 506.40 31.32 Z"/><path d="M 177.32 25.74 C 180.56 25.84 183.83 25.48 187.04 25.96 C 190.08 33.47 192.22 41.35 195.16 48.91 C 197.68 41.17 200.30 33.47 202.84 25.74 C 205.85 25.74 208.86 25.74 211.87 25.76 C 207.29 38.13 202.68 50.49 198.12 62.87 C 197.09 65.66 195.58 68.50 192.92 70.03 C 189.18 72.13 184.72 71.82 180.62 71.29 C 180.47 69.08 180.32 66.88 180.16 64.68 C 182.22 64.67 184.40 65.12 186.38 64.37 C 188.57 63.33 189.44 60.93 190.50 58.94 C 187.98 52.32 185.44 45.71 182.85 39.12 C 182.32 37.69 181.77 36.26 181.24 34.83 C 179.91 31.81 179.12 28.55 177.32 25.74 Z"/><path d="M 335.57 58.51 C 335.57 47.59 335.56 36.66 335.58 25.74 C 338.49 25.74 341.41 25.74 344.34 25.76 C 344.34 36.66 344.33 47.57 344.34 58.47 C 341.42 58.50 338.49 58.51 335.57 58.51 Z"/><path d="M 544.27 49.74 C 547.11 49.74 549.95 49.74 552.80 49.74 C 552.81 52.66 552.81 55.58 552.82 58.50 C 549.97 58.50 547.12 58.51 544.28 58.52 C 544.26 55.59 544.26 52.67 544.27 49.74 Z"/></g><g fill="#a8a58a"><path d="M 131.62 95.79 C 134.16 99.24 137.83 101.99 139.21 106.18 C 137.09 104.55 134.29 103.41 133.53 100.59 C 132.90 99.51 132.28 98.43 131.66 97.35 C 131.65 96.96 131.63 96.18 131.62 95.79 Z"/><path d="M 148.06 101.92 C 148.50 102.07 149.39 102.37 149.83 102.52 C 151.70 105.07 153.81 107.46 155.51 110.13 C 157.85 112.99 161.20 115.19 162.37 118.84 C 162.76 118.39 163.53 117.47 163.92 117.01 C 163.90 117.79 163.87 119.34 163.85 120.11 C 164.44 119.59 165.60 118.54 166.19 118.01 C 165.64 119.12 165.08 120.23 164.51 121.33 C 166.85 121.05 167.17 123.54 168.13 125.03 C 168.42 124.62 169.00 123.80 169.30 123.39 C 170.34 125.48 171.69 127.44 172.19 129.77 L 174.02 128.10 C 174.76 130.26 175.47 132.45 175.66 134.75 C 176.32 134.61 177.65 134.32 178.31 134.18 C 177.73 134.57 176.58 135.34 176.00 135.72 C 178.81 135.48 180.91 137.42 183.06 138.87 L 180.19 138.88 C 180.56 139.54 181.31 140.86 181.69 141.51 C 183.81 142.67 185.56 144.40 186.68 146.56 C 187.39 148.20 188.15 149.87 188.35 151.68 C 188.86 152.26 189.87 153.42 190.38 154.01 C 190.05 153.77 189.39 153.29 189.06 153.05 C 183.77 145.91 176.37 140.07 173.45 131.41 C 172.50 131.02 171.55 130.64 170.61 130.26 C 167.15 124.85 163.09 119.81 158.21 115.61 C 154.55 111.27 150.64 107.01 148.06 101.92 Z"/><path d="M 140.04 107.16 C 143.12 109.85 145.94 112.87 148.08 116.38 C 146.82 115.93 145.58 115.43 144.35 114.93 C 143.80 112.76 141.66 111.92 140.11 110.62 C 140.04 109.46 140.02 108.31 140.04 107.16 Z"/><path d="M 234.98 115.95 C 238.08 113.24 242.35 112.88 245.92 111.03 C 250.35 113.25 255.64 113.38 259.68 116.45 C 267.52 121.84 276.77 124.89 284.08 131.09 C 277.86 133.46 272.41 137.30 266.91 140.96 C 263.40 143.76 259.33 146.93 258.97 151.78 C 260.74 151.70 262.51 151.60 264.29 151.50 C 264.47 150.33 264.66 149.16 264.86 147.99 C 269.81 145.85 273.72 141.99 278.59 139.71 C 286.34 135.37 295.39 133.84 304.20 134.32 C 313.54 133.93 322.67 136.29 331.77 138.02 C 336.94 140.55 342.98 140.34 347.93 143.38 C 349.47 142.43 351.06 141.55 352.50 140.45 C 352.61 139.23 352.56 138.01 352.56 136.79 C 350.72 136.35 348.90 135.87 347.08 135.40 C 347.65 132.55 350.42 131.15 351.91 128.84 C 353.67 126.36 355.53 123.87 358.01 122.04 C 362.69 118.74 367.12 114.85 372.62 112.96 C 381.05 111.06 389.51 114.10 396.74 118.30 C 401.17 121.48 405.55 125.01 407.98 130.04 C 411.89 135.66 414.37 142.13 415.24 148.93 C 414.72 158.78 412.58 168.49 409.43 177.83 C 408.80 179.85 408.60 181.97 408.42 184.08 C 412.79 196.26 414.58 209.19 416.65 221.92 C 417.69 225.94 419.26 229.87 419.49 234.08 C 419.66 240.75 420.50 247.39 421.41 254.00 C 421.79 257.77 422.03 261.74 420.32 265.25 C 420.94 265.46 422.20 265.88 422.82 266.09 C 425.79 271.63 428.43 277.33 431.32 282.91 C 429.71 289.89 422.88 293.51 418.35 298.44 C 411.57 305.70 402.07 309.15 393.24 313.14 C 386.44 317.41 378.24 318.34 371.16 322.00 C 368.02 323.75 364.45 324.27 360.97 324.92 C 348.98 328.64 336.47 330.12 324.17 332.35 C 317.68 334.09 311.41 336.72 304.80 337.95 C 304.40 337.54 303.59 336.71 303.18 336.29 C 301.52 337.70 299.87 339.13 298.25 340.58 C 297.37 340.60 295.62 340.65 294.74 340.67 C 293.42 338.58 292.42 336.30 292.27 333.81 C 290.32 331.31 287.63 328.84 288.49 325.32 C 281.62 322.32 273.83 322.75 266.89 319.90 C 259.94 316.94 251.77 317.27 245.53 312.70 C 242.06 310.72 237.33 308.48 237.57 303.75 C 237.87 303.41 238.47 302.75 238.77 302.41 C 242.55 303.02 246.34 303.43 250.17 303.57 C 254.43 304.70 258.73 303.34 263.03 303.57 C 267.37 303.73 271.71 303.49 276.04 303.42 C 277.25 304.05 278.54 304.51 279.93 304.44 C 287.65 304.57 295.42 303.78 303.11 304.81 C 308.78 305.90 314.35 307.61 320.09 308.32 C 321.66 307.85 323.11 307.06 324.59 306.37 C 324.63 305.39 324.71 303.42 324.75 302.44 C 320.89 301.08 316.86 300.09 312.73 300.28 C 311.93 299.71 311.12 299.15 310.33 298.59 C 304.44 298.62 298.72 295.70 292.85 297.19 C 287.60 298.05 282.29 297.43 277.03 297.05 C 271.65 297.25 266.30 296.43 260.92 296.71 C 254.54 297.15 248.32 295.42 241.98 295.05 C 235.06 294.73 228.54 291.88 222.79 288.17 C 220.25 286.62 217.09 286.20 214.89 284.12 C 211.85 281.24 207.60 279.00 207.03 274.41 C 214.53 274.59 222.21 275.44 229.54 273.39 C 236.11 272.28 243.24 271.25 248.40 266.62 C 246.22 264.96 243.44 265.32 240.90 265.33 C 231.47 265.23 222.43 270.94 212.94 268.57 C 208.13 267.08 202.69 268.59 198.32 265.66 C 195.14 263.71 191.06 263.59 188.28 260.97 C 184.30 257.49 179.25 254.39 178.31 248.74 C 177.91 248.41 177.12 247.76 176.72 247.43 C 176.64 244.97 175.72 242.74 174.26 240.79 C 174.41 239.51 174.57 238.23 174.74 236.96 C 174.42 236.60 173.79 235.88 173.47 235.52 C 173.83 235.13 174.54 234.35 174.89 233.96 C 172.70 230.56 169.67 227.80 167.59 224.32 C 167.45 220.02 165.48 215.75 166.88 211.47 C 168.04 207.27 169.19 202.20 172.95 199.58 C 177.28 199.00 182.10 198.66 185.99 201.03 C 192.75 204.27 198.20 209.56 203.66 214.59 C 204.49 215.46 205.73 215.48 206.83 215.64 C 210.09 215.99 213.31 216.78 216.61 216.59 C 216.71 214.44 216.68 211.80 214.12 211.16 C 209.20 209.64 206.07 205.33 201.64 202.97 C 201.56 202.63 201.40 201.97 201.32 201.63 C 205.51 200.15 209.06 197.40 213.05 195.57 C 217.98 195.05 222.99 195.33 227.87 196.15 C 230.01 195.80 232.31 195.22 234.22 196.64 C 234.48 196.29 235.00 195.59 235.26 195.24 C 236.87 197.08 238.74 198.84 241.36 198.81 C 241.71 198.07 242.40 196.57 242.75 195.82 C 240.67 193.81 238.25 192.08 235.32 191.67 C 229.28 190.66 223.21 189.54 217.07 189.47 C 218.53 187.18 219.68 184.47 222.07 182.99 C 226.40 182.72 229.77 179.76 233.90 178.78 C 237.89 177.21 242.25 177.73 246.42 177.28 C 246.04 176.33 245.66 175.37 245.29 174.42 C 242.52 174.27 239.79 173.68 237.02 173.58 C 232.14 174.57 227.42 176.36 223.18 178.97 C 223.57 178.57 224.37 177.78 224.77 177.38 C 224.74 176.70 224.67 175.32 224.63 174.63 C 225.94 174.66 227.24 174.69 228.55 174.72 C 231.84 167.08 231.12 158.24 228.39 150.57 C 226.00 146.45 226.73 141.59 225.74 137.11 C 224.56 131.96 227.14 127.10 228.28 122.21 C 229.80 119.49 232.65 117.90 234.98 115.95 M 230.77 140.78 C 230.12 142.72 230.41 144.84 230.23 146.86 C 231.65 148.89 234.72 149.22 236.54 147.61 C 238.07 145.34 238.39 142.32 240.43 140.39 C 243.62 138.63 247.20 137.69 250.80 137.22 C 253.29 139.86 258.67 137.73 257.38 133.90 C 256.36 131.36 253.25 131.50 251.00 131.26 C 243.21 130.12 234.99 134.20 230.77 140.78 M 366.36 135.01 C 366.35 135.63 366.33 136.87 366.32 137.50 C 374.19 140.56 384.78 139.51 389.79 147.63 C 391.26 147.31 394.31 148.44 394.54 146.17 C 396.09 141.55 392.35 137.52 388.62 135.43 C 382.64 132.68 376.13 131.04 369.52 131.46 C 368.46 132.64 367.41 133.83 366.36 135.01 M 243.78 142.95 C 243.05 145.08 243.34 147.36 243.46 149.57 C 246.37 149.49 249.30 149.07 252.02 147.98 C 254.35 146.74 253.20 143.61 253.54 141.49 C 250.33 141.63 246.44 140.71 243.78 142.95 M 377.46 144.82 C 377.48 146.62 377.55 148.42 377.59 150.22 C 379.06 150.63 380.51 151.31 382.08 151.29 C 383.85 150.48 385.38 149.25 386.98 148.16 C 386.46 146.39 385.58 144.78 384.54 143.28 C 382.18 143.81 379.82 144.33 377.46 144.82 M 278.98 181.99 C 273.61 183.67 267.75 181.17 262.52 183.50 C 262.41 184.01 262.19 185.03 262.08 185.54 C 264.98 185.62 267.88 185.81 270.75 186.26 C 275.33 187.16 279.79 185.37 284.17 184.30 C 285.87 184.17 286.35 182.54 287.01 181.26 C 284.31 181.17 281.59 181.23 278.98 181.99 M 257.32 196.65 C 258.69 197.55 260.05 198.47 261.37 199.45 C 264.54 199.72 267.70 199.22 270.46 197.60 C 270.38 197.13 270.23 196.18 270.15 195.71 C 265.84 195.21 261.53 195.70 257.32 196.65 M 308.04 199.93 C 299.41 204.24 292.07 210.98 282.71 213.84 C 282.61 214.28 282.42 215.16 282.33 215.60 C 283.19 216.31 284.06 217.02 284.92 217.74 C 292.13 216.63 297.84 211.80 303.92 208.18 C 306.95 206.97 309.96 205.65 313.01 204.48 C 315.58 203.89 317.71 205.89 319.32 207.61 C 322.38 210.77 322.12 215.49 323.74 219.34 C 325.74 223.94 325.86 229.13 325.20 234.03 C 323.04 241.10 318.09 247.59 311.35 250.83 C 310.43 253.91 314.10 256.90 316.84 254.90 C 322.19 251.20 326.25 245.86 329.53 240.31 C 332.13 235.97 331.40 230.79 331.50 225.98 C 331.49 222.10 332.05 218.02 330.47 214.34 C 328.83 210.57 328.04 206.29 325.12 203.22 C 323.10 200.71 320.17 199.01 317.06 198.28 C 313.97 197.91 310.94 199.00 308.04 199.93 M 175.17 218.04 C 176.91 221.81 181.07 220.53 184.36 220.43 C 184.43 221.04 184.59 222.28 184.67 222.90 C 183.05 222.50 181.43 222.10 179.83 221.67 C 179.28 221.92 178.17 222.43 177.62 222.69 C 177.36 223.24 176.84 224.33 176.59 224.88 C 176.96 226.33 177.34 227.78 177.69 229.24 C 178.14 229.58 179.05 230.27 179.51 230.61 C 179.75 232.24 179.11 234.33 180.75 235.40 C 185.39 235.69 188.22 231.63 191.74 229.40 C 193.48 228.15 195.75 228.60 197.76 228.40 C 198.47 227.19 199.14 225.96 199.77 224.71 C 197.22 224.65 194.68 224.62 192.13 224.60 C 192.18 222.80 192.49 221.02 193.53 219.52 C 191.73 216.74 189.78 213.47 186.22 212.82 C 181.70 211.30 178.18 215.35 175.17 218.04 M 228.69 213.48 C 227.74 214.70 226.75 215.88 225.85 217.13 C 234.79 219.02 243.96 218.48 253.03 218.52 C 256.71 218.40 260.42 220.24 263.98 218.64 C 263.72 216.87 262.74 215.45 261.34 214.38 C 255.88 213.75 250.44 212.99 244.92 213.22 C 239.52 212.34 234.09 212.94 228.69 213.48 M 298.97 224.90 C 296.71 227.21 295.57 230.32 294.23 233.19 C 295.39 235.10 297.21 236.34 299.34 236.91 C 301.07 238.01 302.97 238.79 304.92 239.43 C 306.47 239.06 308.03 238.71 309.60 238.40 C 312.56 236.09 313.43 232.41 314.50 229.01 C 314.51 228.23 314.54 226.68 314.55 225.90 C 313.04 224.42 311.56 222.92 310.13 221.36 C 305.98 220.44 302.26 222.68 298.97 224.90 M 356.90 232.83 C 357.88 235.84 361.67 233.47 363.50 235.39 C 366.26 238.20 370.43 237.53 374.00 237.76 C 372.95 235.78 371.95 233.78 371.06 231.74 C 366.37 230.29 361.05 229.66 356.90 232.83 M 337.70 261.66 C 328.76 269.39 315.95 274.43 304.33 270.01 C 300.06 271.49 295.43 270.36 291.00 270.70 C 285.57 271.10 280.35 269.41 274.97 269.13 C 273.22 269.05 271.61 268.34 269.99 267.76 C 264.87 269.11 259.69 267.07 254.88 265.43 C 253.73 265.89 252.59 266.35 251.44 266.81 C 251.43 268.11 251.37 269.41 251.47 270.71 C 255.83 273.80 261.24 274.92 266.54 274.66 C 266.58 275.83 266.64 277.02 266.69 278.20 C 271.90 282.22 274.04 289.66 280.98 291.36 C 288.56 293.31 294.51 285.56 294.59 278.61 C 295.69 278.25 296.79 277.90 297.89 277.55 C 304.47 279.64 311.57 277.63 318.25 278.98 C 318.32 278.67 318.46 278.05 318.53 277.75 C 322.75 276.27 327.17 274.19 331.73 275.63 C 331.68 277.27 331.39 278.94 331.66 280.58 L 332.28 277.76 C 335.91 281.12 340.47 282.60 345.22 283.39 C 346.22 282.71 347.20 282.01 348.19 281.30 C 351.51 272.64 352.54 263.08 350.59 253.97 C 351.30 252.15 352.47 250.56 353.54 248.95 C 352.97 248.06 352.41 247.16 351.86 246.28 C 345.99 250.27 343.58 257.63 337.70 261.66 Z"/><path d="M 231.60 111.92 C 232.15 111.71 233.25 111.31 233.79 111.10 C 233.25 111.31 232.15 111.71 231.60 111.92 Z"/><path d="M 182.30 159.10 L 182.49 159.32 L 182.62 159.58 C 182.54 159.46 182.38 159.22 182.30 159.10 Z"/><path d="M 185.28 163.17 C 186.04 163.88 186.41 164.77 186.41 165.83 C 184.70 165.67 184.33 164.78 185.28 163.17 Z"/><path d="M 302.95 229.06 C 303.66 227.71 305.11 227.68 306.42 227.50 C 306.35 227.93 306.21 228.77 306.13 229.19 C 304.55 229.86 302.97 230.55 301.42 231.29 C 301.26 230.21 302.21 229.65 302.95 229.06 Z"/><path d="M 163.11 231.67 C 164.35 232.90 165.65 234.07 166.95 235.24 C 165.16 243.24 168.34 251.47 173.31 257.70 C 174.64 259.53 176.36 261.15 177.30 263.24 C 177.81 269.17 176.22 275.53 179.27 281.03 C 178.35 279.88 177.47 278.71 176.60 277.52 C 176.77 274.99 176.68 272.46 176.35 269.95 C 176.39 267.27 175.41 264.71 175.45 262.04 C 170.24 254.58 163.99 245.92 166.22 236.29 L 163.68 236.19 C 164.37 235.88 165.05 235.57 165.74 235.26 C 164.82 234.09 163.94 232.89 163.11 231.67 Z"/><path d="M 434.85 247.57 C 440.11 250.81 446.56 251.73 451.67 255.28 C 453.19 259.46 455.48 263.45 455.86 267.96 C 457.12 277.80 458.77 287.65 461.93 297.08 C 462.56 302.14 465.14 306.87 464.68 312.06 C 464.76 320.84 458.75 327.82 454.74 335.12 C 452.01 340.20 447.02 343.35 443.43 347.72 C 440.56 351.58 435.97 353.49 432.61 356.86 C 432.55 357.43 432.44 358.58 432.38 359.15 C 429.32 361.07 426.80 363.76 423.56 365.38 C 418.71 367.57 414.14 370.53 410.51 374.45 C 403.25 381.00 393.32 382.71 384.28 385.49 C 377.72 388.56 370.57 390.02 363.96 392.96 C 357.85 395.07 351.54 397.29 344.97 396.43 C 343.09 391.84 339.98 387.91 337.73 383.51 C 335.78 380.63 335.17 376.93 332.60 374.48 C 330.08 372.19 328.86 368.95 326.90 366.25 C 324.15 361.97 320.49 358.38 317.81 354.06 C 315.86 350.94 313.36 348.24 310.55 345.89 C 310.63 344.24 310.71 342.60 310.80 340.96 C 312.78 340.75 314.85 340.78 316.67 339.86 C 319.56 338.23 322.95 339.23 326.08 338.60 C 332.68 337.38 339.23 335.81 345.93 335.21 C 347.26 334.57 348.60 333.86 350.09 333.66 C 355.23 332.82 360.11 330.78 365.35 330.44 C 365.98 329.92 366.62 329.40 367.26 328.89 C 371.51 328.82 374.98 326.24 378.89 325.02 C 386.00 324.00 392.22 320.13 398.81 317.53 C 404.58 315.49 409.67 312.01 414.74 308.68 C 421.18 303.33 427.94 298.30 433.86 292.37 C 435.30 289.62 436.30 286.62 438.23 284.13 C 438.56 281.04 439.91 278.20 440.52 275.18 C 440.96 269.42 442.50 263.58 440.80 257.87 C 440.75 253.57 438.01 250.18 434.85 247.57 Z"/><path d="M 428.33 252.85 C 434.90 257.19 435.60 265.88 434.09 272.93 C 433.91 269.69 432.04 267.04 430.80 264.16 C 429.62 260.48 429.22 256.60 428.33 252.85 Z"/><path d="M 459.49 252.96 C 461.01 253.20 461.57 254.17 461.16 255.88 C 460.11 255.17 459.56 254.19 459.49 252.96 Z"/><path d="M 55.79 262.13 C 56.21 260.67 57.13 259.40 57.83 258.07 C 59.99 261.25 63.13 263.56 65.51 266.56 C 69.20 271.11 72.81 275.99 77.97 278.98 C 84.59 284.29 92.93 286.68 99.74 291.74 C 100.26 295.55 99.01 299.13 97.08 302.36 C 95.39 302.39 93.70 302.39 92.01 302.51 C 89.44 302.45 87.52 304.59 84.96 304.68 C 82.80 299.98 81.63 294.80 78.58 290.56 C 77.48 289.11 77.57 287.23 77.28 285.52 C 76.40 285.55 75.51 285.58 74.62 285.62 C 70.96 289.74 72.16 295.34 71.25 300.29 C 69.28 305.24 67.19 310.14 65.40 315.16 C 64.75 317.59 62.35 318.62 60.37 319.76 C 60.38 320.30 60.39 321.38 60.39 321.91 C 62.56 321.54 64.92 321.21 66.53 319.54 C 69.15 317.34 69.46 313.73 70.85 310.81 C 72.68 307.00 74.23 303.08 75.82 299.17 C 76.15 299.31 76.82 299.58 77.16 299.72 C 80.74 308.80 85.83 317.79 85.35 327.86 C 84.12 331.62 81.87 334.95 79.95 338.39 C 79.52 338.52 78.67 338.78 78.25 338.91 C 78.61 339.36 79.34 340.24 79.70 340.68 C 79.15 341.71 77.48 344.80 79.85 344.80 C 81.42 344.81 82.73 343.89 83.66 342.69 C 88.20 336.90 95.51 334.68 101.97 331.81 C 103.69 331.01 104.66 329.32 104.91 327.49 C 103.28 327.47 101.64 327.47 100.01 327.49 C 97.07 329.63 93.72 331.06 90.27 332.11 C 90.19 327.75 91.29 323.08 89.03 319.07 C 88.15 314.99 86.67 310.99 86.41 306.79 C 87.92 306.43 89.42 306.07 90.93 305.73 C 93.68 306.84 96.58 306.36 99.28 305.36 C 99.69 303.86 100.12 302.36 100.55 300.87 C 104.06 303.93 106.85 307.70 109.65 311.40 C 111.23 313.46 112.04 316.39 110.73 318.79 C 107.87 323.57 106.27 328.98 104.36 334.14 C 104.83 347.46 104.55 360.98 101.06 373.93 C 93.59 379.12 84.50 381.79 75.58 383.31 C 70.84 383.94 66.04 383.44 61.28 383.62 C 60.67 377.12 64.81 371.49 64.52 365.03 C 64.42 360.93 63.26 356.91 63.55 352.78 C 68.10 352.28 72.29 350.30 76.46 348.56 C 78.48 347.41 78.75 345.20 77.93 343.20 C 74.79 343.26 71.66 343.63 68.60 344.37 C 64.68 345.32 60.79 343.80 56.95 343.12 C 56.46 338.75 52.22 336.22 51.04 332.04 C 48.81 332.78 46.96 335.30 44.41 334.34 C 40.67 333.24 36.82 332.73 32.96 332.32 C 29.68 331.93 26.98 329.86 24.72 327.58 C 24.17 325.12 23.68 322.64 23.36 320.15 C 21.37 320.24 19.77 321.37 18.28 322.57 C 16.09 320.03 14.65 316.79 11.72 314.97 C 12.11 311.98 11.10 309.30 8.82 307.33 C 7.38 303.15 7.69 298.81 8.63 294.57 C 11.97 292.12 13.97 288.31 17.38 285.94 C 17.43 285.32 17.51 284.07 17.55 283.45 C 18.12 283.45 19.25 283.44 19.81 283.43 C 19.71 287.37 18.52 291.17 18.46 295.11 C 20.69 298.63 24.06 301.96 23.78 306.43 C 25.85 306.56 27.93 306.59 30.01 306.52 C 29.62 309.41 28.86 312.23 28.09 315.05 C 30.30 314.00 32.67 312.97 34.16 310.94 C 34.77 306.33 35.22 301.49 37.58 297.37 C 39.84 293.95 41.98 290.27 45.49 287.98 C 45.33 295.95 45.22 303.93 45.44 311.91 C 45.75 315.56 47.42 320.27 51.56 320.96 C 51.58 319.21 51.59 317.46 51.59 315.71 C 50.97 314.97 50.35 314.23 49.74 313.49 C 49.50 311.93 49.98 309.95 48.44 308.97 C 50.66 308.36 49.31 305.95 48.84 304.50 C 49.05 304.22 49.47 303.66 49.68 303.38 C 49.62 301.04 49.59 298.71 49.56 296.38 C 52.63 292.57 56.83 290.05 60.56 286.99 C 60.55 285.26 60.55 283.53 60.53 281.81 C 55.23 276.77 55.13 268.90 55.79 262.13 Z"/><path d="M 338.28 268.06 C 340.51 266.90 341.96 264.82 343.51 262.93 C 343.79 266.64 342.17 270.18 342.63 273.91 C 342.19 273.76 341.29 273.47 340.84 273.32 C 339.99 271.56 339.13 269.81 338.28 268.06 Z"/><path d="M 184.60 268.37 C 186.70 269.10 188.97 269.75 190.58 271.39 C 190.21 273.82 188.79 275.95 187.93 278.22 C 186.80 276.15 185.69 274.06 184.54 272.00 C 184.55 271.09 184.58 269.28 184.60 268.37 Z"/><path d="M 15.52 277.59 C 19.31 276.17 22.29 273.32 25.87 271.50 C 27.06 272.03 28.25 272.55 29.45 273.08 C 29.54 275.02 29.77 276.95 30.30 278.83 C 29.05 279.02 27.81 279.23 26.57 279.46 C 26.44 280.63 26.28 281.80 26.11 282.96 C 25.92 283.28 25.55 283.91 25.36 284.23 C 25.34 281.61 25.81 279.03 27.44 276.93 C 27.49 276.03 27.59 274.22 27.64 273.31 C 26.71 273.35 24.85 273.42 23.92 273.46 C 17.13 278.05 11.44 284.09 6.47 290.57 C 2.80 295.24 3.06 301.47 3.46 307.07 C 3.71 310.54 6.10 313.30 7.52 316.36 C 10.06 320.89 10.78 326.48 14.84 330.08 C 16.63 328.80 18.41 327.53 20.17 326.22 C 21.42 329.95 22.00 334.28 24.95 337.13 C 31.52 340.80 39.66 339.48 46.40 342.67 C 49.89 345.28 52.75 348.63 56.15 351.36 C 56.38 352.89 56.62 354.42 56.92 355.94 C 56.16 354.39 55.59 352.74 55.41 351.01 C 53.54 349.68 51.63 348.28 49.28 347.99 C 48.71 346.95 48.18 345.89 47.66 344.84 C 47.39 345.18 46.86 345.87 46.59 346.21 C 45.66 345.20 44.72 344.20 43.79 343.20 C 37.68 342.10 31.37 341.59 25.49 339.52 C 24.22 338.23 22.84 337.05 21.37 335.99 C 21.38 335.59 21.40 334.80 21.41 334.41 C 21.01 333.74 20.21 332.40 19.81 331.73 C 19.88 330.43 19.84 329.13 19.17 327.99 C 18.77 328.38 17.98 329.16 17.59 329.55 C 16.43 329.87 15.28 330.20 14.12 330.53 C 13.04 329.94 11.96 329.34 10.89 328.73 C 10.74 328.36 10.44 327.61 10.29 327.24 C 9.59 324.60 8.69 321.99 7.04 319.78 C 6.23 315.97 4.49 312.48 1.98 309.51 C 1.99 306.86 1.94 304.20 1.68 301.56 C 1.79 300.16 1.74 298.74 1.53 297.35 C 2.72 292.88 5.77 289.30 7.78 285.22 C 8.17 285.28 8.96 285.39 9.36 285.44 C 9.37 284.92 9.41 283.88 9.42 283.36 C 9.93 283.37 10.94 283.40 11.45 283.41 C 11.45 282.91 11.46 281.90 11.47 281.40 C 11.85 281.40 12.62 281.41 13.01 281.42 C 13.82 280.12 14.66 278.84 15.52 277.59 Z"/><path d="M 278.98 277.16 C 281.29 277.37 283.59 277.77 285.84 278.34 C 285.71 279.81 285.58 281.28 285.45 282.75 C 281.73 283.61 280.62 279.59 278.98 277.16 Z"/><path d="M 24.81 294.77 C 24.32 291.45 22.66 287.62 25.10 284.68 C 25.20 285.89 25.84 286.69 27.01 287.08 C 26.39 289.03 26.37 291.09 26.27 293.11 C 27.55 294.71 28.77 296.36 29.88 298.09 C 30.85 297.60 31.83 297.13 32.81 296.66 C 32.21 298.15 31.61 299.64 31.02 301.14 C 28.68 299.28 26.86 296.90 24.81 294.77 Z"/><path d="M 228.51 301.38 C 229.84 301.83 232.75 300.88 232.68 303.04 C 232.44 306.95 231.38 310.84 232.59 314.72 C 237.29 317.71 242.14 320.99 247.76 321.86 C 255.00 323.82 262.33 325.50 269.42 327.98 C 273.55 329.51 277.97 329.71 282.32 329.75 C 282.35 331.23 282.37 332.71 282.40 334.20 C 282.73 334.67 283.39 335.62 283.71 336.09 C 283.63 336.56 283.47 337.50 283.39 337.97 C 279.11 339.20 274.29 339.71 270.87 342.84 C 265.95 346.87 260.89 351.01 257.69 356.62 C 255.50 360.54 251.02 362.69 249.44 366.99 C 246.53 372.76 243.62 378.52 241.16 384.50 C 240.40 384.49 239.65 384.48 238.91 384.47 C 235.90 380.23 231.20 377.30 229.16 372.38 C 227.10 367.85 223.15 364.65 220.46 360.55 C 217.81 355.45 217.71 349.60 217.97 343.99 C 219.35 334.60 216.24 325.33 215.72 315.97 C 215.75 314.84 215.60 313.47 216.54 312.65 C 220.26 308.61 224.35 304.94 228.51 301.38 Z"/><path d="M 468.55 314.99 C 471.10 316.60 473.45 318.54 476.11 320.00 C 478.33 324.82 483.78 325.78 488.23 327.56 C 489.17 328.83 490.11 330.09 491.07 331.36 C 487.95 332.72 484.67 333.60 481.49 334.78 C 473.99 337.75 466.88 341.59 459.26 344.25 C 458.79 344.00 457.85 343.52 457.38 343.28 C 457.42 342.84 457.49 341.98 457.53 341.54 C 462.30 336.69 464.89 330.22 468.55 324.56 C 469.55 323.26 469.54 321.59 469.69 320.04 C 469.34 319.67 468.64 318.93 468.29 318.56 C 468.37 317.37 468.45 316.18 468.55 314.99 Z"/><path d="M 193.56 316.51 C 197.78 316.36 202.00 316.46 206.22 316.65 C 208.12 321.77 208.20 327.30 209.75 332.52 C 210.79 335.61 210.10 338.87 209.77 342.03 C 209.09 347.29 210.59 352.48 211.46 357.63 C 212.07 362.45 217.26 364.77 218.38 369.40 C 219.56 374.32 223.56 377.64 225.94 381.92 C 228.47 386.62 232.98 389.69 236.37 393.71 C 238.41 396.67 242.30 395.51 245.30 395.38 C 247.03 399.19 247.64 403.38 249.27 407.23 C 248.95 408.95 248.63 410.66 248.32 412.39 C 240.70 412.16 233.08 412.03 225.46 411.81 C 219.95 411.48 214.52 413.05 209.00 412.50 C 182.04 411.86 155.07 411.34 128.10 410.80 C 128.64 409.48 129.18 408.17 129.74 406.88 C 130.76 407.80 131.78 408.73 132.81 409.66 C 133.84 409.65 135.92 409.63 136.95 409.62 C 136.39 405.71 134.54 402.03 134.54 398.04 C 134.49 395.47 136.11 393.36 137.23 391.18 C 139.77 386.86 140.26 381.77 141.21 376.94 C 141.61 373.91 142.44 370.59 140.86 367.77 C 144.98 367.37 144.43 361.92 146.26 359.10 C 151.02 350.43 153.66 339.88 162.14 333.90 C 162.34 333.40 162.75 332.40 162.95 331.90 C 169.45 330.09 176.07 328.53 182.20 325.65 C 183.89 325.11 186.10 323.55 187.54 325.38 C 191.08 328.83 193.02 333.50 195.11 337.88 C 196.18 340.07 196.63 342.48 196.80 344.90 C 192.49 346.14 190.22 350.29 186.62 352.65 C 184.65 353.86 183.86 356.06 183.04 358.10 C 188.01 360.86 190.70 365.93 193.41 370.68 C 192.41 376.44 192.51 382.31 191.81 388.10 C 191.39 391.31 193.82 393.93 194.27 397.01 C 194.67 400.04 194.53 403.11 194.57 406.16 C 195.53 406.74 196.50 407.31 197.46 407.90 C 197.50 409.17 197.53 410.46 197.57 411.75 C 200.19 411.33 203.56 412.43 205.67 410.58 C 205.36 405.12 203.04 400.00 202.16 394.61 C 195.98 383.52 201.37 370.71 200.48 358.85 C 198.95 357.76 197.43 356.65 195.91 355.54 C 195.11 355.48 193.49 355.37 192.69 355.31 C 194.44 353.59 195.97 351.54 198.16 350.36 C 200.67 349.37 203.30 348.69 205.71 347.43 C 205.57 344.04 205.23 340.64 203.95 337.47 C 201.96 332.82 202.80 327.65 201.55 322.83 C 198.90 322.43 196.29 321.84 193.71 321.15 C 193.65 319.60 193.60 318.05 193.56 316.51 Z"/><path d="M 493.43 336.42 C 496.37 333.86 497.28 328.42 502.04 328.50 C 508.64 327.12 512.92 332.92 516.71 337.24 C 524.05 344.79 527.03 355.27 533.68 363.33 C 537.59 367.98 540.26 373.47 543.68 378.46 C 547.36 383.58 547.37 390.27 550.79 395.52 C 552.65 398.89 555.98 401.86 555.60 406.05 C 555.43 407.53 556.02 409.60 554.32 410.37 C 550.32 410.68 546.30 410.07 542.33 410.65 L 540.91 411.21 C 529.98 411.83 519.01 410.08 508.11 411.36 C 501.10 412.10 494.04 410.95 487.03 411.65 C 478.35 412.98 469.57 411.17 460.86 411.97 C 460.56 406.66 460.61 401.35 461.28 396.08 C 461.83 392.08 460.12 388.19 460.58 384.22 C 463.49 374.76 468.15 365.92 473.76 357.78 C 475.41 353.87 479.08 351.53 481.46 348.19 C 481.27 347.39 480.91 345.80 480.72 345.00 C 478.22 345.35 475.40 345.64 473.98 348.05 C 470.89 352.15 469.07 357.05 466.00 361.18 C 461.30 367.72 458.84 375.45 456.16 382.94 C 455.58 384.57 455.36 386.29 455.36 388.01 C 455.51 396.25 454.33 404.45 454.57 412.70 C 449.96 412.55 445.28 411.96 440.73 413.00 L 418.34 413.00 C 415.38 411.78 412.18 411.50 409.02 411.84 C 405.46 413.03 401.68 412.43 398.01 412.45 C 387.34 412.31 376.68 411.92 366.01 411.77 C 363.29 411.68 360.66 412.50 358.02 413.00 L 324.85 413.00 C 323.17 402.92 316.42 394.71 313.13 385.19 C 312.35 382.36 310.35 380.18 308.44 378.07 C 306.79 378.50 305.12 378.91 303.65 379.80 C 297.07 383.79 289.58 386.03 282.15 387.87 C 283.04 384.30 283.67 380.32 286.45 377.67 C 290.61 377.11 295.29 378.68 298.91 375.89 C 305.07 377.83 311.06 373.39 314.65 368.70 C 315.89 366.86 318.83 364.99 320.56 367.33 C 323.65 371.61 326.60 376.02 329.52 380.43 C 332.01 386.56 335.13 392.39 338.48 398.10 C 336.13 402.74 334.28 407.62 332.92 412.64 C 335.11 412.65 337.31 412.66 339.50 412.67 C 341.19 409.02 340.82 402.58 345.96 402.08 C 349.97 401.35 354.09 401.32 358.06 400.36 C 365.59 398.83 372.34 394.99 379.66 392.81 C 387.49 389.45 396.00 387.80 403.43 383.50 C 407.91 380.82 413.05 379.29 417.13 375.96 C 424.84 370.09 434.39 366.79 440.86 359.37 C 438.38 362.76 434.88 365.30 432.68 368.91 C 429.95 373.94 429.14 379.70 427.82 385.20 C 425.27 394.06 420.69 402.37 420.03 411.72 C 421.89 411.74 423.75 411.77 425.61 411.80 C 426.43 408.32 427.36 404.86 428.89 401.62 C 433.52 391.80 435.53 380.94 440.40 371.23 C 442.24 367.24 446.07 364.91 449.05 361.89 C 449.76 359.58 449.37 357.11 449.82 354.76 C 451.62 353.34 453.69 352.28 455.82 351.43 C 458.87 350.12 462.37 350.64 465.41 349.25 C 470.13 347.25 474.66 344.81 479.24 342.51 C 483.86 340.23 488.81 338.69 493.43 336.42 Z"/><path d="M 286.12 342.59 C 283.79 344.19 279.94 344.49 279.22 347.61 C 278.56 350.82 274.96 351.82 272.32 352.96 C 272.31 350.01 274.57 347.78 277.06 346.59 C 280.03 345.15 283.06 343.84 286.12 342.59 Z"/><path d="M 279.88 363.87 C 287.56 359.13 296.14 356.05 303.91 351.47 C 305.28 351.97 306.65 352.46 308.04 352.93 C 310.23 355.69 313.32 358.30 312.92 362.20 C 310.04 364.67 307.86 368.22 304.11 369.46 C 300.27 371.05 296.05 370.41 292.01 370.39 C 287.84 370.31 283.21 369.95 279.91 367.09 C 279.31 366.29 278.79 364.46 279.88 363.87 Z"/><path d="M 140.05 357.18 C 139.12 355.37 140.38 353.51 142.08 352.81 C 141.96 354.47 141.35 356.08 140.05 357.18 Z"/><path d="M 263.53 355.40 C 264.55 355.31 265.59 355.21 266.62 355.12 C 266.98 358.69 266.85 362.41 268.01 365.84 C 270.52 370.62 274.80 374.32 279.74 376.44 C 277.61 386.11 274.76 395.75 274.36 405.70 C 277.85 402.89 279.05 398.45 280.68 394.48 C 281.20 394.40 282.24 394.23 282.76 394.15 C 281.50 396.31 280.23 398.47 278.98 400.64 C 285.28 400.53 291.73 399.30 297.25 396.14 C 300.82 394.39 304.40 391.73 308.60 392.38 C 308.64 393.97 308.67 395.56 308.62 397.15 C 304.82 397.71 301.69 400.10 298.09 401.28 C 293.43 403.07 289.82 406.95 288.40 411.74 C 278.90 411.78 269.39 411.88 259.91 411.37 C 258.18 411.48 256.81 410.36 255.51 409.42 C 255.64 403.71 253.09 398.43 252.04 392.90 C 250.73 388.63 252.66 384.34 252.45 380.02 C 251.64 370.32 259.69 363.52 263.53 355.40 Z"/><path d="M 109.64 357.23 C 112.36 357.50 115.04 358.02 117.70 358.66 C 117.68 360.66 117.67 362.66 117.66 364.66 C 114.46 367.79 110.87 370.75 106.44 371.90 C 106.51 370.55 106.58 369.21 106.65 367.87 L 107.24 367.02 C 107.97 363.74 108.75 360.47 109.64 357.23 Z"/><path d="M 47.58 373.78 C 50.54 369.74 54.68 366.92 58.59 363.90 C 59.53 370.67 57.40 377.13 56.27 383.71 C 53.35 382.99 50.33 382.00 48.37 379.56 C 46.71 378.09 47.68 375.68 47.58 373.78 Z"/><path d="M 136.89 368.17 C 136.24 366.84 136.45 365.71 137.54 364.78 C 138.14 366.06 137.93 367.19 136.89 368.17 Z"/><path d="M 110.60 375.46 C 115.06 372.56 119.10 369.00 123.48 365.94 C 123.63 371.37 122.73 376.73 121.62 382.02 C 120.74 384.84 122.52 387.37 123.22 389.99 C 122.68 392.42 121.72 394.74 120.95 397.11 C 117.68 398.25 114.52 399.66 111.63 401.57 C 106.76 404.77 100.79 405.29 95.62 407.83 C 92.26 409.53 88.48 409.95 84.77 409.92 C 82.72 409.90 80.67 409.82 78.63 409.79 C 78.55 409.59 78.39 409.19 78.31 408.99 C 71.58 409.39 64.85 408.80 58.12 409.22 C 57.82 408.45 57.46 407.72 57.05 407.02 C 51.54 404.80 45.79 403.21 39.89 402.44 C 40.97 400.63 42.49 399.02 43.10 396.97 C 43.52 393.98 43.33 390.95 43.40 387.95 C 47.91 388.94 52.33 390.76 57.01 390.60 C 64.04 390.53 71.03 389.79 78.02 389.21 C 84.76 387.91 91.40 385.68 97.21 381.96 C 102.30 381.25 105.80 377.02 110.60 375.46 Z"/><path d="M 34.48 394.44 C 34.93 394.48 35.82 394.57 36.27 394.62 C 36.41 395.99 36.56 397.38 36.71 398.76 C 36.14 398.68 35.02 398.50 34.45 398.41 C 34.46 397.08 34.47 395.76 34.48 394.44 Z"/><path d="M 122.66 402.05 C 123.96 401.27 125.30 400.53 126.70 399.94 C 126.53 403.49 125.90 407.00 125.41 410.52 C 118.38 410.17 111.36 410.03 104.34 409.54 C 106.54 409.06 108.85 408.71 110.76 407.42 C 114.44 405.05 118.59 403.58 122.66 402.05 Z"/><path d="M 25.98 408.54 C 28.55 408.71 30.34 406.90 32.06 405.30 C 33.92 406.50 35.76 407.73 37.59 408.96 C 33.72 408.89 29.85 408.69 25.98 408.54 Z"/><path d="M 306.28 412.54 C 309.18 410.21 312.20 408.02 315.28 405.93 C 316.95 407.98 318.18 410.33 319.04 412.84 C 314.79 412.60 310.53 412.53 306.28 412.54 Z"/></g></svg>