<?xml version="1.0" encoding="UTF-8" ?>
<!DOCTYPE svg PUBLIC "-//W3C//DTD SVG 1.1//EN" "http://www.w3.org/Graphics/SVG/1.1/DTD/svg11.dtd">
<svg width="72pt" height="72pt" viewBox="0 0 72 72" version="1.1" xmlns="http://www.w3.org/2000/svg">
<g id="#2c6c68ff">
<path fill="#2c6c68" opacity="1.00" d=" M 0.18 23.97 C -0.29 12.57 10.75 2.46 22.07 4.04 C 27.62 4.56 32.59 7.70 35.98 12.04 C 39.09 8.25 43.26 5.16 48.19 4.33 C 53.54 3.02 59.09 4.76 63.70 7.48 C 62.36 8.56 61.02 9.64 59.79 10.84 C 45.26 25.47 30.61 39.97 16.10 54.61 C 8.08 46.22 0.87 35.93 0.18 23.97 Z" />
</g>
<g id="#2d343aff">
<path fill="#2d343a" opacity="1.00" d=" M 59.79 10.84 C 61.02 9.64 62.36 8.56 63.70 7.48 C 65.43 10.49 68.34 12.70 69.58 16.01 C 73.23 23.96 70.21 33.00 66.34 40.26 C 59.40 52.19 48.79 62.28 35.99 67.65 C 28.40 64.89 22.43 59.37 16.10 54.61 C 30.61 39.97 45.26 25.47 59.79 10.84 Z" />
</g>
</svg>
