<?xml version="1.0" encoding="UTF-8" ?>
<!DOCTYPE svg PUBLIC "-//W3C//DTD SVG 1.1//EN" "http://www.w3.org/Graphics/SVG/1.1/DTD/svg11.dtd">
<svg width="47pt" height="60pt" viewBox="0 0 47 60" version="1.1" xmlns="http://www.w3.org/2000/svg">
<g id="#787875ff">
<path fill="#787875" opacity="1.00" d=" M 11.78 9.35 C 11.71 3.15 18.70 0.42 23.94 0.45 C 24.18 1.17 24.65 2.60 24.88 3.31 C 22.51 2.40 19.54 1.91 17.36 3.56 C 15.62 4.55 15.39 6.70 14.72 8.39 C 19.84 7.78 25.01 7.83 30.09 8.67 C 29.91 7.93 29.55 6.45 29.37 5.71 C 29.88 6.01 30.88 6.60 31.39 6.89 C 34.26 10.61 35.42 15.13 35.61 19.76 C 35.64 17.77 35.62 15.78 35.61 13.79 C 36.23 13.70 37.46 13.51 38.07 13.42 C 37.95 17.94 35.64 21.90 33.74 25.86 C 31.37 21.39 34.60 15.82 31.36 11.62 C 29.39 7.79 24.59 8.46 21.00 8.35 C 17.89 8.56 14.23 8.39 11.87 10.78 C 10.27 12.24 9.31 14.24 8.50 16.22 C 8.48 15.05 8.44 12.69 8.42 11.51 C 5.88 14.73 4.65 18.72 3.46 22.58 C 3.16 26.07 4.38 29.71 2.63 32.99 C 3.08 35.10 3.50 37.21 3.77 39.35 C 2.04 35.80 0.84 31.93 0.76 27.96 C 1.26 24.39 2.66 21.04 3.77 17.64 C 4.99 14.51 6.71 11.61 8.96 9.11 C 9.66 9.17 11.07 9.29 11.78 9.35 Z" />
<path fill="#787875" opacity="1.00" d=" M 27.59 55.70 C 28.37 54.08 30.03 53.07 31.84 53.42 C 31.29 55.30 29.22 55.48 27.59 55.70 Z" />
<path fill="#787875" opacity="1.00" d=" M 34.79 58.06 C 35.95 56.38 37.20 54.75 38.70 53.36 C 38.08 55.35 37.13 57.19 36.03 58.95 C 35.49 58.65 34.41 58.05 33.86 57.75 C 33.96 57.21 34.16 56.14 34.26 55.60 L 34.84 54.52 C 34.83 55.41 34.81 57.18 34.79 58.06 Z" />
</g>
<g id="#a4a6a6ff">
<path fill="#a4a6a6" opacity="1.00" d=" M 23.94 0.45 C 27.55 -0.20 30.70 1.75 33.30 4.01 C 32.47 4.20 30.81 4.57 29.98 4.75 L 30.85 6.06 L 31.39 6.89 C 30.88 6.60 29.88 6.01 29.37 5.71 C 27.90 4.86 26.41 4.06 24.88 3.31 C 24.65 2.60 24.18 1.17 23.94 0.45 Z" />
<path fill="#a4a6a6" opacity="1.00" d=" M 3.77 17.64 C 3.32 13.98 6.56 11.36 8.96 9.11 C 6.71 11.61 4.99 14.51 3.77 17.64 Z" />
<path fill="#a4a6a6" opacity="1.00" d=" M 35.71 9.16 C 38.19 10.90 40.21 13.18 42.31 15.34 C 42.00 14.01 41.36 11.35 41.04 10.02 C 42.46 12.23 44.07 14.40 44.95 16.90 C 45.27 19.80 44.76 22.79 45.76 25.61 C 44.91 23.76 43.98 21.94 43.07 20.12 C 39.46 23.21 34.78 26.67 35.85 32.15 C 35.29 30.01 34.56 27.92 33.74 25.86 C 35.64 21.90 37.95 17.94 38.07 13.42 C 37.46 13.51 36.23 13.70 35.61 13.79 C 35.62 12.25 35.66 10.70 35.71 9.16 Z" />
<path fill="#a4a6a6" opacity="1.00" d=" M 40.70 23.19 C 41.18 23.23 42.13 23.29 42.60 23.33 C 43.19 27.11 41.08 30.40 38.86 33.23 C 38.32 29.71 40.09 26.55 40.70 23.19 Z" />
<path fill="#a4a6a6" opacity="1.00" d=" M 38.73 46.08 C 40.97 48.17 41.83 51.62 38.71 53.35 L 37.64 52.71 C 38.48 51.81 39.32 50.93 40.15 50.03 C 39.64 48.72 39.17 47.41 38.73 46.08 Z" />
</g>
<g id="#262324ff">
<path fill="#262324" opacity="1.00" d=" M 17.36 3.56 C 19.54 1.91 22.51 2.40 24.88 3.31 C 26.41 4.06 27.90 4.86 29.37 5.71 C 29.55 6.45 29.91 7.93 30.09 8.67 C 25.01 7.83 19.84 7.78 14.72 8.39 C 15.39 6.70 15.62 4.55 17.36 3.56 Z" />
<path fill="#262324" opacity="1.00" d=" M 9.03 23.40 C 11.54 23.25 15.15 23.85 15.38 26.99 C 16.11 28.65 15.37 30.22 13.79 30.97 C 14.07 29.30 13.63 28.07 12.46 27.28 C 12.50 26.96 12.58 26.30 12.62 25.97 C 12.26 25.68 11.52 25.11 11.16 24.82 C 10.01 24.88 9.30 24.41 9.03 23.40 Z" />
<path fill="#262324" opacity="1.00" d=" M 17.63 25.68 C 21.32 24.17 25.38 23.90 29.25 24.84 C 25.48 25.94 21.52 25.69 17.63 25.68 Z" />
<path fill="#262324" opacity="1.00" d=" M 8.50 30.48 C 7.78 27.83 9.49 27.09 11.75 27.16 C 12.23 29.37 10.63 30.81 8.50 30.48 Z" />
<path fill="#262324" opacity="1.00" d=" M 22.71 27.54 C 23.60 27.52 24.50 27.49 25.39 27.47 C 25.50 28.02 25.72 29.11 25.83 29.65 C 24.26 29.68 22.69 29.62 21.16 29.25 C 21.55 28.83 22.32 27.97 22.71 27.54 Z" />
<path fill="#262324" opacity="1.00" d=" M 12.60 36.51 L 13.49 36.62 C 13.45 37.08 13.37 38.00 13.33 38.46 C 14.51 38.69 15.64 39.05 16.72 39.55 C 17.78 42.28 15.21 41.53 13.49 41.52 C 13.42 41.99 13.29 42.94 13.23 43.41 C 16.41 43.38 19.59 43.42 22.76 43.31 C 22.70 43.84 22.59 44.90 22.53 45.43 C 18.44 45.21 14.37 44.57 10.27 44.74 C 10.39 43.63 10.52 42.52 10.63 41.41 C 11.09 41.47 11.99 41.59 12.45 41.65 C 12.50 39.93 12.55 38.22 12.60 36.51 Z" />
</g>
<g id="#474547f5">
<path fill="#474547" opacity="0.96" d=" M 33.30 4.01 C 35.88 6.01 38.50 7.96 41.04 10.02 C 41.36 11.35 42.00 14.01 42.31 15.34 C 40.21 13.18 38.19 10.90 35.71 9.16 C 34.09 8.12 32.42 7.18 30.85 6.06 L 29.98 4.75 C 30.81 4.57 32.47 4.20 33.30 4.01 Z" />
</g>
<g id="#f0f1f2ff">
<path fill="#f0f1f2" opacity="1.00" d=" M 30.85 6.06 C 32.42 7.18 34.09 8.12 35.71 9.16 C 35.66 10.70 35.62 12.25 35.61 13.79 C 35.62 15.78 35.64 17.77 35.61 19.76 C 35.42 15.13 34.26 10.61 31.39 6.89 L 30.85 6.06 Z" />
<path fill="#f0f1f2" opacity="1.00" d=" M 11.87 10.78 C 14.23 8.39 17.89 8.56 21.00 8.35 C 24.59 8.46 29.39 7.79 31.36 11.62 C 34.60 15.82 31.37 21.39 33.74 25.86 C 34.56 27.92 35.29 30.01 35.85 32.15 C 37.83 37.57 33.30 42.09 33.24 47.29 C 35.05 45.48 35.40 42.81 36.57 40.62 C 37.89 37.15 41.45 35.33 43.05 32.03 C 43.35 32.26 43.94 32.72 44.23 32.95 C 43.85 34.03 43.48 35.11 43.11 36.19 C 43.09 40.26 37.78 39.83 37.14 43.48 C 36.37 45.63 34.99 49.50 38.15 50.22 C 37.68 50.26 36.76 50.33 36.30 50.36 C 36.06 49.28 35.71 48.25 35.24 47.25 C 34.92 47.80 34.29 48.90 33.97 49.44 L 32.55 49.75 L 32.36 47.55 C 30.36 49.33 28.41 51.18 26.50 53.08 C 22.08 55.18 17.10 55.75 12.57 53.58 C 11.44 52.24 10.30 50.90 9.13 49.59 L 8.46 50.07 C 9.16 43.33 3.04 36.98 6.73 30.41 C 6.77 28.87 6.79 27.33 6.87 25.79 C 7.46 22.61 7.86 19.40 8.50 16.22 C 9.31 14.24 10.27 12.24 11.87 10.78 M 9.03 23.40 C 9.30 24.41 10.01 24.88 11.16 24.82 C 11.52 25.11 12.26 25.68 12.62 25.97 C 12.58 26.30 12.50 26.96 12.46 27.28 C 13.63 28.07 14.07 29.30 13.79 30.97 C 15.37 30.22 16.11 28.65 15.38 26.99 C 15.15 23.85 11.54 23.25 9.03 23.40 M 17.63 25.68 C 21.52 25.69 25.48 25.94 29.25 24.84 C 25.38 23.90 21.32 24.17 17.63 25.68 M 8.50 30.48 C 10.63 30.81 12.23 29.37 11.75 27.16 C 9.49 27.09 7.78 27.83 8.50 30.48 M 22.71 27.54 C 22.32 27.97 21.55 28.83 21.16 29.25 C 22.69 29.62 24.26 29.68 25.83 29.65 C 25.72 29.11 25.50 28.02 25.39 27.47 C 24.50 27.49 23.60 27.52 22.71 27.54 M 27.32 28.01 C 27.00 29.42 27.53 30.00 28.89 29.73 C 29.21 28.31 28.69 27.74 27.32 28.01 M 12.60 36.51 C 12.55 38.22 12.50 39.93 12.45 41.65 C 11.99 41.59 11.09 41.47 10.63 41.41 C 10.52 42.52 10.39 43.63 10.27 44.74 C 14.37 44.57 18.44 45.21 22.53 45.43 C 22.59 44.90 22.70 43.84 22.76 43.31 C 19.59 43.42 16.41 43.38 13.23 43.41 C 13.29 42.94 13.42 41.99 13.49 41.52 C 15.21 41.53 17.78 42.28 16.72 39.55 C 15.64 39.05 14.51 38.69 13.33 38.46 C 13.37 38.00 13.45 37.08 13.49 36.62 L 12.60 36.51 M 13.92 47.56 C 14.41 48.76 15.11 49.84 15.94 50.83 C 17.05 49.79 18.12 48.71 19.11 47.57 C 17.38 47.53 15.65 47.53 13.92 47.56 Z" />
</g>
<g id="#1f2121ff">
<path fill="#1f2121" opacity="1.00" d=" M 3.46 22.58 C 4.65 18.72 5.88 14.73 8.42 11.51 C 8.44 12.69 8.48 15.05 8.50 16.22 C 7.86 19.40 7.46 22.61 6.87 25.79 C 3.55 30.53 6.54 36.38 4.06 41.35 C 3.99 40.85 3.84 39.85 3.77 39.35 C 3.50 37.21 3.08 35.10 2.63 32.99 C 4.38 29.71 3.16 26.07 3.46 22.58 Z" />
</g>
<g id="#433f40ff">
<path fill="#433f40" opacity="1.00" d=" M 35.85 32.15 C 34.78 26.67 39.46 23.21 43.07 20.12 C 43.98 21.94 44.91 23.76 45.76 25.61 C 45.97 26.29 46.39 27.64 46.60 28.31 C 45.96 29.95 44.25 30.83 43.05 32.03 C 41.45 35.33 37.89 37.15 36.57 40.62 C 35.40 42.81 35.05 45.48 33.24 47.29 C 33.30 42.09 37.83 37.57 35.85 32.15 M 40.70 23.19 C 40.09 26.55 38.32 29.71 38.86 33.23 C 41.08 30.40 43.19 27.11 42.60 23.33 C 42.13 23.29 41.18 23.23 40.70 23.19 Z" />
</g>
<g id="#414246ff">
<path fill="#414246" opacity="1.00" d=" M 4.06 41.35 C 6.54 36.38 3.55 30.53 6.87 25.79 C 6.79 27.33 6.77 28.87 6.73 30.41 C 3.04 36.98 9.16 43.33 8.46 50.07 C 7.68 49.97 6.12 49.77 5.35 49.68 C 5.02 46.89 4.49 44.13 4.06 41.35 Z" />
</g>
<g id="#c0c0bfff">
<path fill="#c0c0bf" opacity="1.00" d=" M 46.60 28.31 L 47.00 27.03 L 47.00 32.25 C 46.15 33.68 45.35 35.16 44.84 36.76 L 44.66 38.71 C 44.27 38.08 43.49 36.82 43.11 36.19 C 43.48 35.11 43.85 34.03 44.23 32.95 C 43.94 32.72 43.35 32.26 43.05 32.03 C 44.25 30.83 45.96 29.95 46.60 28.31 Z" />
</g>
<g id="#878686ff">
<path fill="#878686" opacity="1.00" d=" M 27.32 28.01 C 28.69 27.74 29.21 28.31 28.89 29.73 C 27.53 30.00 27.00 29.42 27.32 28.01 Z" />
</g>
<g id="#1e2022ff">
<path fill="#1e2022" opacity="1.00" d=" M 43.11 36.19 C 43.49 36.82 44.27 38.08 44.66 38.71 C 44.07 42.12 41.37 44.22 38.73 46.08 C 39.17 47.41 39.64 48.72 40.15 50.03 C 39.32 50.93 38.48 51.81 37.64 52.71 L 38.71 53.35 L 38.70 53.36 C 37.20 54.75 35.95 56.38 34.79 58.06 C 34.81 57.18 34.83 55.41 34.84 54.52 L 35.13 53.92 L 35.58 53.70 L 35.67 53.27 C 35.83 52.54 36.14 51.09 36.30 50.36 C 36.76 50.33 37.68 50.26 38.15 50.22 C 34.99 49.50 36.37 45.63 37.14 43.48 C 37.78 39.83 43.09 40.26 43.11 36.19 Z" />
</g>
<g id="#63615eff">
<path fill="#63615e" opacity="1.00" d=" M 13.92 47.56 C 15.65 47.53 17.38 47.53 19.11 47.57 C 18.12 48.71 17.05 49.79 15.94 50.83 C 15.11 49.84 14.41 48.76 13.92 47.56 Z" />
<path fill="#63615e" opacity="1.00" d=" M 9.38 56.78 C 9.47 56.48 9.64 55.87 9.72 55.56 C 10.80 56.53 11.89 57.50 12.97 58.47 C 14.90 58.38 16.83 58.27 18.77 58.15 C 17.45 57.40 16.14 56.65 14.83 55.89 C 17.08 55.95 19.33 55.89 21.58 55.92 C 21.92 56.37 22.58 57.29 22.92 57.74 C 24.33 57.37 25.70 56.86 27.07 56.36 C 26.39 57.27 25.72 58.18 25.06 59.09 C 20.75 59.19 16.38 59.82 12.11 59.03 C 10.81 58.90 10.05 57.75 9.38 56.78 Z" />
</g>
<g id="#222526ff">
<path fill="#222526" opacity="1.00" d=" M 26.50 53.08 C 28.41 51.18 30.36 49.33 32.36 47.55 L 32.55 49.75 L 33.97 49.44 C 33.26 50.77 32.58 52.11 31.84 53.42 C 30.03 53.07 28.37 54.08 27.59 55.70 C 27.46 55.87 27.20 56.20 27.07 56.36 C 25.70 56.86 24.33 57.37 22.92 57.74 C 22.58 57.29 21.92 56.37 21.58 55.92 C 23.63 55.78 25.23 54.60 26.50 53.08 Z" />
</g>
<g id="#333335ff">
<path fill="#333335" opacity="1.00" d=" M 8.46 50.07 L 9.13 49.59 C 10.30 50.90 11.44 52.24 12.57 53.58 C 12.86 54.00 13.45 54.84 13.74 55.25 C 14.01 55.41 14.56 55.73 14.83 55.89 C 16.14 56.65 17.45 57.40 18.77 58.15 C 16.83 58.27 14.90 58.38 12.97 58.47 C 11.89 57.50 10.80 56.53 9.72 55.56 C 9.64 55.87 9.47 56.48 9.38 56.78 C 8.70 56.58 7.34 56.18 6.66 55.98 C 6.79 54.33 6.96 52.68 7.19 51.04 C 7.51 50.80 8.14 50.31 8.46 50.07 Z" />
</g>
<g id="#8d8d8eff">
<path fill="#8d8d8e" opacity="1.00" d=" M 12.57 53.58 C 17.10 55.75 22.08 55.18 26.50 53.08 C 25.23 54.60 23.63 55.78 21.58 55.92 C 19.33 55.89 17.08 55.95 14.83 55.89 C 14.56 55.73 14.01 55.41 13.74 55.25 C 13.45 54.84 12.86 54.00 12.57 53.58 Z" />
</g>
<g id="#939393cc">
<path fill="#939393" opacity="0.80" d=" M 35.32 53.54 L 35.67 53.27 L 35.58 53.70 L 35.13 53.92 L 35.32 53.54 Z" />
</g>
</svg>
