<svg xmlns="http://www.w3.org/2000/svg" width="37pt" height="80" viewBox="0 0 37 60"><path fill="#d8bbb2" d="m29.58 2.14c.48-2.66 3.6-2.11 5.33-1.11-.45.15-1.34.45-1.79.6-1.18.19-2.35.37-3.54.51z" opacity=".97"/><path fill="#856457" d="m29.58 2.14c1.19-.14 2.36-.32 3.54-.51.17.57.51 1.7.68 2.27-.73-.06-2.19-.2-2.92-.26.69 1.19 1.22 2.48.96 3.89-.62-1.89-3.81-3.21-2.26-5.39z" opacity=".87"/><path fill="#a58376" d="m33.12 1.63c.45-.15 1.34-.45 1.79-.6-.02 2.4-.06 4.8-.08 7.2-.75.04-2.25.13-3 .17l.01-.87c.26-1.41-.27-2.7-.96-3.89.73.06 2.19.2 2.92.26-.17-.57-.51-1.7-.68-2.27z" opacity=".93"/><g fill="#4f3e3a"><path d="m10.61 10.78c1.48-2.96 4.36-4.94 7.75-4.33.12.56.34 1.67.45 2.22-1.85.32-3.69.68-5.52 1.08.0 1.59.0 3.17-.02 4.75-.57-.23-1.71-.71-2.28-.94-.1-.7-.29-2.08-.38-2.78z"/><path d="m31.83 8.4c.75-.04 2.25-.13 3-.17v.57c-.76.05-2.26.17-3.02.23z"/><path d="m14.64 13.5c.51-.2 1.51-.62 2.02-.83 1.22 1.29-1.77 2.48-2.02.83z"/><path d="m18.02 13.62c-2-1.1 1.26-2.02 1.93-.78l.04.62c-.49.04-1.48.12-1.97.16z"/></g><g fill="#f3d8cd"><path d="m13.29 9.75c1.83-.4 3.67-.76 5.52-1.08.34 1.4.76 2.78 1.14 4.17-.67-1.24-3.93-.32-1.93.78.49-.04 1.48-.12 1.97-.16.0.93-.02 2.78-.03 3.71-.65-1.03-1.35-2.03-2.08-3-.73 1.21-1.46 2.42-2.19 3.62-.79-1.11-1.56-2.23-2.42-3.29.02-1.58.02-3.16.02-4.75m1.35 3.75c.25 1.65 3.24.46 2.02-.83-.51.21-1.51.63-2.02.83z"/><path d="m13.16 17.88c.57 1.21 1.05 2.47 1.52 3.72-1.36 2.72-2.15 5.77-2.1 8.81.09.93.25 2.8.34 3.73-.9-.7-2.7-2.11-3.6-2.81 1.06-3.41 2.7-6.59 3.9-9.95.2-1.16.18-2.33-.06-3.5z"/><path d="m15.9 21.34c.76-.18 2.27-.53 3.03-.7-2.23 3.58-2.66 7.75-3.48 11.78l-.37-1c-.49-3.4-.1-6.8.82-10.08z"/></g><path fill="#aca5ae" d="m31.81 9.03c.76-.06 2.26-.18 3.02-.23.15.06.46.18.61.24.25.84.74 2.51.99 3.35-1.63-.43-3.2-1.04-4.66-1.86.01-.38.03-1.13.04-1.5z"/><path fill="#05081c" d="m35.44 9.04 1.56.68v3.12c-1.62 1.6-2.02 4.44-.28 6.11-1.72 4.76-7.79 5.91-9.11 10.78-1.23-1.58-2.9-3.29-2.33-5.5 1.05-1.81 2.88-2.97 4.39-4.35-.5-.08-1.49-.25-1.99-.34 1.3-.76 2.59-1.54 3.89-2.31.1-2.24.15-4.47.2-6.7 1.46.82 3.03 1.43 4.66 1.86-.25-.84-.74-2.51-.99-3.35z"/><path fill="#232e45" d="m36.72 18.95c-1.74-1.67-1.34-4.51.28-6.11v5.67z" opacity=".82"/><path fill="#ba9283" d="m10.99 13.56c.57.23 1.71.71 2.28.94.86 1.06 1.63 2.18 2.42 3.29.73-1.2 1.46-2.41 2.19-3.62.73.97 1.43 1.97 2.08 3-.11.49-.33 1.47-.44 1.97-.15.37-.44 1.12-.59 1.5-.76.17-2.27.52-3.03.7l-1.22.26c-.47-1.25-.95-2.51-1.52-3.72-.61-.79-1.24-1.57-1.87-2.35-.08-.49-.23-1.48-.3-1.97z"/><path fill="#091935" d="m19.52 19.14c.4.35 1.19 1.05 1.59 1.4.95-.8 1.91-1.58 2.9-2.33 1.21.48 2.44.92 3.67 1.33.5.09 1.49.26 1.99.34-1.51 1.38-3.34 2.54-4.39 4.35-.57 2.21 1.1 3.92 2.33 5.5-.07.43-.21 1.31-.29 1.75-4.77 3.45-10.45 5.09-15.65 7.73-.47-.85-.94-1.7-1.42-2.55-.47-1.21-.86-2.44-1.16-3.7l-.08-.65.31-.98c.9.7 2.7 2.11 3.6 2.81.63.36 1.3.67 1.95 1.01.15-.68.44-2.05.58-2.73.82-4.03 1.25-8.2 3.48-11.78.15-.38.44-1.13.59-1.5z"/><path fill="#445170" d="m7.62 25.4c1.93-1.26 3.86-2.52 5.6-4.02-1.2 3.36-2.84 6.54-3.9 9.95l-.31.98c-.33-2.27-.3-4.73-1.7-6.69l.06-.05c.07-.04.19-.13.25-.17z" opacity=".96"/><path fill="#cb3d55" d="m12.58 30.41c-.05-3.04.74-6.09 2.1-8.81l1.22-.26c-.92 3.28-1.31 6.68-.82 10.08-.63-.25-1.87-.76-2.5-1.01z"/><path fill="#2a3346" d="m7.37 25.57c.07-.04.19-.13.25-.17-.06.04-.18.13-.25.17z" opacity=".56"/><path fill="#1f2d4b" d="m7.31 25.62c1.4 1.96 1.37 4.42 1.7 6.69l.08.65c-.7-.22-2.08-.67-2.78-.9.29-2.15.34-4.35 1-6.44z"/><path fill="#8b293a" d="m12.58 30.41c.63.25 1.87.76 2.5 1.01l.37 1c-.14.68-.43 2.05-.58 2.73-.65-.34-1.32-.65-1.95-1.01-.09-.93-.25-2.8-.34-3.73z"/><path fill="#040a1b" d="m6.31 32.06c.7.23 2.08.68 2.78.9.3 1.26.69 2.49 1.16 3.7-2.01 5.1-2.93 10.55-5.11 15.59-.27-.15-.8-.45-1.07-.6.95-4.5 2.25-9.27.77-13.8.47-1.94 1.05-3.84 1.47-5.79z"/><path fill="#193152" d="m11.67 39.21c5.2-2.64 10.88-4.28 15.65-7.73-.08.51-.26 1.53-.35 2.04-1.11 1.56-2.49 3.31-1.63 5.35 1.44 4.86 2.98 9.77 2.78 14.93l-.33.4c-1.02-2.44-3.58-1.5-5.58-1.43-1.4-1.53-2.8-3.09-3.94-4.84-.09-.37-.28-1.1-.38-1.46-.63-2.37-1.48-4.67-2.57-6.86-.26 2.15-.41 4.32-.4 6.49.03.39.08 1.18.1 1.58-.44 1.95-.77 3.97-1.69 5.76-1.35.95-2.81 1.75-4.09 2.82.7.08 2.09.24 2.79.32-.52.69-1.04 1.38-1.56 2.07.39.34 1.16 1.01 1.55 1.35H7.7c1.14-1.77 1.4-3.87 1.7-5.91l-1.41.52c.01-.65.03-1.94.04-2.58.95-1.16 1.49-2.64 1.16-4.14 1.17-2.79 3.87-5.47 2.48-8.68z"/><path fill="#26395a" d="m25.34 38.87c-.86-2.04.52-3.79 1.63-5.35 1 5.64 3.26 11.04 3.53 16.85-.39.33-1.17 1-1.55 1.34.01 2.18-.08 4.39-.73 6.48-.02-1.46-.05-2.93-.1-4.39.2-5.16-1.34-10.07-2.78-14.93z" opacity=".95"/><path fill="#223353" d="m1.88 50.9c.14-4.5 1.33-8.88 2.96-13.05 1.48 4.53.18 9.3-.77 13.8-.55-.19-1.64-.56-2.19-.75z" opacity=".96"/><path fill="#931e37" d="m15.32 39.61c1.09 2.19 1.94 4.49 2.57 6.86-.74-.09-2.22-.28-2.97-.37-.01-2.17.14-4.34.4-6.49z"/><path fill="#92819a" d="m14.92 46.1c.75.09 2.23.28 2.97.37.1.36.29 1.09.38 1.46-.81-.06-2.44-.19-3.25-.25-.02-.4-.07-1.19-.1-1.58z"/><path fill="#060b19" d="m8.03 52.03c-.47-1.46-.65-3.54 1.16-4.14.33 1.5-.21 2.98-1.16 4.14z" opacity=".95"/><path fill="#111219" d="m15.02 47.68c.81.06 2.44.19 3.25.25 1.14 1.75 2.54 3.31 3.94 4.84 2-.07 4.56-1.01 5.58 1.43-.38.38-1.15 1.12-1.53 1.49-3.83.47-5.53-4.3-9.07-4.44-2.97.29-1.94 3.77-.79 5.43-1.46-.01-2.91-.02-4.37-.1-.7-.08-2.09-.24-2.79-.32 1.28-1.07 2.74-1.87 4.09-2.82.92-1.79 1.25-3.81 1.69-5.76z"/><path fill="#e0bfba" d="m0 55.8c.67-1.62 1.45-3.2 1.88-4.9.55.19 1.64.56 2.19.75.27.15.8.45 1.07.6-.35.85-1.05 2.56-1.4 3.41.57.11 1.73.34 2.31.45.74 1.83-2 2.73-3.03 3.89H1.56c.23-1.4.32-3.85-1.56-4.06z"/><path fill="#102546" d="m16.4 56.68c-1.15-1.66-2.18-5.14.79-5.43 3.54.14 5.24 4.91 9.07 4.44.38-.37 1.15-1.11 1.53-1.49l.33-.4c.05 1.46.08 2.93.1 4.39-.13.46-.39 1.36-.52 1.81h-9.39c.04-.49.13-1.46.17-1.94-2.24.07-4.64.06-6.21 1.94h-.25c-.39-.34-1.16-1.01-1.55-1.35.52-.69 1.04-1.38 1.56-2.07 1.46.08 2.91.09 4.37.1z"/><path fill="#040b1f" d="m12.27 60c1.57-1.88 3.97-1.87 6.21-1.94-.04.48-.13 1.45-.17 1.94z"/></svg>