<?xml version="1.0" encoding="UTF-8" ?>
<!DOCTYPE svg PUBLIC "-//W3C//DTD SVG 1.1//EN" "http://www.w3.org/Graphics/SVG/1.1/DTD/svg11.dtd">
<svg width="512pt" height="512pt" viewBox="0 0 512 512" version="1.1" xmlns="http://www.w3.org/2000/svg">
<g id="#ff00ffff">
<path fill="#ff00ff" opacity="1.00" d=" M 258.61 9.34 C 258.94 9.06 259.59 8.50 259.92 8.22 C 264.53 8.46 269.28 7.59 273.77 8.96 C 276.78 9.96 280.39 8.21 283.03 10.38 C 284.75 10.42 286.47 10.44 288.20 10.46 C 290.05 12.20 292.67 11.43 294.94 11.58 C 299.07 10.85 302.08 14.78 306.27 14.08 C 312.44 16.36 319.29 16.91 324.93 20.56 C 326.39 21.21 327.88 21.80 329.44 22.18 C 331.81 24.15 335.04 24.38 337.59 26.05 C 344.15 29.33 350.35 33.23 356.51 37.20 C 358.68 38.53 360.81 39.97 362.59 41.80 C 364.63 43.25 366.33 45.19 368.63 46.25 C 370.50 47.91 372.28 49.68 374.00 51.51 C 374.33 51.51 375.00 51.49 375.33 51.48 C 379.48 56.21 384.55 60.10 388.27 65.22 C 389.84 67.47 392.16 69.16 393.32 71.70 C 394.53 73.10 395.81 74.46 397.01 75.89 C 398.38 78.77 401.50 80.37 402.57 83.44 C 403.89 86.99 407.44 89.33 408.09 93.15 C 409.15 94.57 410.08 96.07 410.78 97.71 C 411.49 99.05 412.43 100.24 413.40 101.40 C 413.40 101.95 413.38 103.04 413.38 103.59 C 414.07 104.15 414.76 104.70 415.45 105.26 C 415.81 107.05 416.45 108.77 417.27 110.40 C 417.62 111.43 417.93 112.48 418.20 113.54 C 419.16 115.60 420.11 117.67 421.24 119.66 C 421.39 121.09 421.48 122.57 422.17 123.89 C 423.25 125.50 423.88 127.31 423.99 129.27 C 426.22 134.18 426.11 139.68 427.84 144.75 C 428.95 148.50 429.68 152.28 429.49 156.22 C 430.89 159.27 430.25 162.73 431.55 165.81 C 431.87 173.45 431.68 181.11 431.62 188.76 C 429.56 191.22 431.54 194.79 429.42 197.22 C 429.38 200.07 429.42 202.93 429.32 205.79 C 428.38 207.10 428.20 208.70 427.95 210.25 C 425.83 214.87 426.18 220.10 424.03 224.71 C 423.82 226.63 423.26 228.47 422.33 230.16 C 420.96 233.33 419.64 236.52 418.02 239.56 C 418.00 240.01 417.97 240.91 417.95 241.35 C 415.55 243.61 415.47 247.17 413.47 249.71 C 413.44 250.17 413.40 251.08 413.38 251.54 C 412.00 253.01 410.97 254.74 410.00 256.50 C 410.00 257.00 410.02 258.01 410.02 258.51 C 409.40 259.22 408.80 259.94 408.21 260.67 C 405.61 264.66 401.94 268.03 400.57 272.76 C 399.53 273.68 398.49 274.59 397.46 275.50 C 397.44 275.84 397.42 276.52 397.41 276.86 C 395.59 278.61 393.84 280.44 392.19 282.37 C 390.01 286.29 386.18 288.93 383.21 292.23 C 380.82 294.41 378.91 297.29 375.82 298.54 C 375.82 298.81 375.82 299.35 375.82 299.62 C 372.80 300.72 370.93 303.44 368.72 305.60 C 362.47 308.71 357.75 314.15 351.25 316.91 C 349.99 317.72 348.82 318.67 347.69 319.64 C 347.39 319.63 346.78 319.63 346.48 319.63 C 345.99 320.22 345.01 321.41 344.52 322.00 C 343.95 321.97 342.80 321.90 342.23 321.86 C 341.36 322.66 340.50 323.47 339.64 324.28 C 339.12 324.24 338.10 324.16 337.59 324.11 C 335.98 325.12 334.46 326.25 333.02 327.49 C 331.51 327.65 329.97 327.79 328.56 328.40 C 327.74 328.85 326.93 329.31 326.12 329.78 C 322.88 329.71 320.17 331.61 317.15 332.41 C 314.72 333.12 312.38 334.09 310.18 335.34 C 308.51 335.78 306.94 336.47 305.42 337.27 C 302.83 337.96 300.22 338.53 297.66 339.32 C 294.72 341.14 290.90 339.05 288.12 341.22 C 285.79 341.43 283.14 340.74 281.21 342.44 C 270.29 342.44 259.37 342.53 248.45 342.40 C 247.86 343.83 247.19 345.23 246.50 346.63 C 245.64 348.70 245.73 350.98 245.22 353.14 C 243.67 354.84 243.21 356.99 243.23 359.25 C 241.65 363.73 240.27 368.27 239.21 372.90 C 239.07 373.38 238.80 374.32 238.67 374.79 C 237.86 377.48 237.26 380.24 236.26 382.87 C 235.28 384.53 235.40 386.46 235.33 388.32 C 234.19 390.19 233.27 392.19 232.66 394.30 C 232.24 395.69 232.01 397.13 231.80 398.58 C 231.37 399.82 230.97 401.07 230.60 402.33 C 230.15 403.62 229.74 404.93 229.38 406.25 C 231.64 406.41 234.04 406.02 236.13 407.10 C 238.40 407.94 240.67 408.77 242.94 409.61 C 244.54 409.84 246.16 410.13 247.68 410.73 C 248.08 410.84 248.90 411.07 249.31 411.18 C 252.57 412.16 256.04 412.56 259.10 414.17 C 260.87 414.42 262.87 414.02 264.43 415.13 C 267.45 416.88 270.96 417.55 274.39 418.02 C 272.47 421.22 271.98 424.85 271.34 428.45 C 269.18 430.85 270.32 434.28 268.65 436.84 C 268.58 437.29 268.43 438.18 268.36 438.63 C 267.10 441.79 266.50 445.18 265.20 448.34 C 265.10 448.78 264.88 449.65 264.78 450.09 C 263.81 453.32 263.41 456.74 261.88 459.80 C 261.71 461.64 261.74 463.56 260.92 465.28 C 260.73 465.50 260.34 465.93 260.15 466.14 C 259.02 469.46 259.56 473.51 256.54 476.01 C 253.86 476.54 251.52 475.01 249.29 473.79 C 247.50 473.69 245.65 473.80 243.99 473.02 C 242.60 472.18 241.14 471.44 239.66 470.79 C 237.15 470.14 234.41 470.44 232.11 469.09 C 229.60 467.47 226.37 468.52 223.89 466.85 C 221.57 465.18 218.44 466.37 216.20 464.60 C 215.43 464.58 213.90 464.54 213.13 464.52 C 212.63 465.58 212.10 466.62 211.54 467.66 C 212.39 471.70 208.72 474.61 209.04 478.57 C 208.83 478.92 208.40 479.63 208.18 479.98 C 208.02 481.46 207.91 482.98 207.34 484.38 C 205.64 486.88 205.90 489.95 205.17 492.76 C 204.69 493.84 204.20 494.92 203.69 495.99 C 203.48 499.82 201.21 503.13 200.84 506.95 C 197.59 506.79 194.43 505.88 191.37 504.82 C 188.17 503.76 185.06 502.31 181.69 501.90 C 177.38 499.79 172.25 500.61 168.28 497.75 C 166.49 497.65 164.63 497.79 163.00 496.92 C 159.16 493.91 154.03 494.81 149.94 492.54 C 148.26 491.67 146.32 492.00 144.52 491.87 C 144.12 491.45 143.33 490.61 142.94 490.19 C 143.77 487.94 144.19 485.58 144.79 483.27 C 145.23 482.06 145.70 480.87 146.26 479.72 C 146.34 479.26 146.50 478.33 146.58 477.87 C 147.52 475.93 147.81 473.78 148.55 471.77 C 148.67 471.32 148.90 470.40 149.02 469.95 C 149.59 468.56 149.96 467.12 150.13 465.63 C 152.01 460.62 152.25 455.18 154.78 450.39 C 155.34 449.12 155.61 447.75 155.88 446.40 C 154.20 446.30 152.52 446.25 150.85 446.17 C 146.60 443.96 141.62 443.97 137.31 441.90 C 135.04 441.93 132.82 441.60 130.92 440.30 C 127.36 438.59 123.44 437.97 119.71 436.77 C 117.91 435.86 115.89 436.06 113.95 435.97 C 113.47 435.58 112.51 434.79 112.03 434.40 C 112.15 432.58 112.18 430.70 113.29 429.16 C 113.30 428.80 113.32 428.08 113.32 427.72 C 115.15 425.42 116.12 422.72 115.73 419.77 C 118.05 417.07 117.71 413.47 118.70 410.28 C 120.26 403.65 122.77 397.32 124.59 390.77 C 124.71 390.31 124.96 389.38 125.08 388.92 C 126.23 385.69 125.85 382.02 128.08 379.16 C 128.10 378.61 128.13 377.51 128.14 376.96 C 128.40 376.83 128.92 376.56 129.18 376.43 C 129.63 376.76 130.54 377.42 131.00 377.75 C 132.58 377.86 134.19 377.98 135.65 378.69 C 138.99 380.09 142.79 379.67 145.97 381.48 C 148.05 382.75 150.63 382.11 152.81 383.12 C 155.60 384.06 158.09 385.99 161.14 385.91 C 163.20 386.00 164.99 387.13 166.77 388.04 C 168.63 388.09 170.48 388.11 172.34 388.15 C 172.76 387.16 173.21 386.19 173.65 385.22 C 173.88 383.58 174.16 381.95 174.76 380.41 C 174.87 379.98 175.08 379.13 175.19 378.70 C 175.86 377.17 176.05 375.51 176.25 373.87 C 176.67 373.05 177.10 372.24 177.52 371.43 C 177.94 370.37 178.33 369.31 178.71 368.24 C 179.97 366.04 179.44 363.44 179.53 361.03 C 179.82 360.89 180.41 360.61 180.70 360.47 C 180.71 359.62 180.73 357.90 180.74 357.04 C 182.61 353.89 181.52 349.85 183.30 346.54 C 184.29 343.85 183.82 340.80 185.44 338.31 C 185.90 337.26 186.33 336.21 186.73 335.14 C 187.34 333.72 187.54 332.18 187.69 330.66 C 188.84 328.83 189.75 326.85 190.24 324.74 C 187.60 323.61 184.99 322.43 182.40 321.20 C 179.94 320.10 177.78 318.50 175.58 316.99 C 172.77 315.51 170.08 313.82 167.40 312.12 C 165.30 310.62 163.61 308.54 161.17 307.53 C 161.19 307.13 161.23 306.32 161.25 305.91 C 160.82 305.94 159.96 305.98 159.53 306.01 C 155.94 302.10 151.99 298.54 148.35 294.67 C 146.38 292.71 144.53 290.46 141.87 289.44 C 141.89 289.04 141.93 288.24 141.95 287.84 C 141.53 287.77 140.68 287.62 140.26 287.54 C 138.79 284.83 136.41 282.83 134.32 280.63 C 133.69 279.30 132.89 278.06 132.08 276.84 C 129.92 273.67 127.43 270.73 125.45 267.44 C 121.81 262.37 119.51 256.41 115.66 251.51 C 115.66 251.04 115.66 250.09 115.66 249.61 C 114.23 248.20 113.16 246.51 112.12 244.81 C 112.16 244.25 112.22 243.11 112.26 242.55 C 111.71 242.05 110.60 241.05 110.05 240.55 C 110.14 236.32 107.72 232.65 106.14 228.87 C 105.50 227.27 105.02 225.62 104.47 223.99 C 104.02 221.83 103.35 219.73 102.73 217.62 C 101.45 214.98 102.41 211.92 101.20 209.27 C 100.09 205.33 99.29 201.36 99.61 197.24 C 98.20 194.69 98.40 191.65 97.42 188.94 C 97.27 180.67 97.38 172.40 97.40 164.12 C 99.05 162.16 98.17 159.52 98.88 157.27 C 100.36 153.93 99.31 150.19 99.74 146.68 C 100.37 144.69 101.08 142.72 101.85 140.78 C 101.58 137.15 102.66 133.70 103.91 130.36 C 104.57 127.31 105.29 124.20 106.93 121.51 C 107.60 119.70 107.94 117.79 108.48 115.95 C 108.68 115.70 109.06 115.21 109.25 114.96 C 109.59 113.82 109.90 112.67 110.17 111.51 C 112.18 109.18 112.50 105.98 114.15 103.43 C 116.36 99.16 118.69 94.97 120.94 90.73 C 121.64 89.64 122.44 88.61 123.28 87.63 C 125.05 84.85 126.66 81.94 128.92 79.51 C 129.90 77.87 131.06 76.34 132.01 74.69 C 133.60 72.91 135.29 71.23 136.85 69.43 C 138.44 66.00 141.79 63.92 144.21 61.13 C 147.83 57.76 150.91 53.64 155.20 51.09 C 156.98 49.52 158.65 47.85 160.40 46.26 C 163.28 45.10 165.11 42.47 167.28 40.39 C 169.12 39.46 170.82 38.28 172.62 37.27 C 176.18 34.56 180.34 32.74 183.78 29.84 C 184.23 29.85 185.12 29.88 185.57 29.89 C 189.58 26.32 194.68 24.51 199.62 22.67 C 200.70 22.29 201.81 21.95 202.93 21.67 C 204.14 21.03 205.37 20.40 206.57 19.71 C 210.88 20.08 213.82 15.79 218.12 16.06 C 220.21 16.04 222.03 14.87 223.82 13.92 C 225.22 13.89 226.62 13.89 228.03 13.88 C 228.37 13.58 229.05 12.98 229.39 12.68 C 230.12 12.69 231.57 12.71 232.29 12.72 C 234.56 10.88 237.57 11.77 240.23 11.56 C 242.45 9.65 245.52 10.66 248.17 10.40 C 251.16 8.19 255.18 9.68 258.61 9.34 M 256.26 70.85 C 253.79 70.90 251.32 70.89 248.85 70.99 C 246.02 72.99 242.39 71.36 239.33 72.67 C 237.74 73.20 236.20 73.86 234.71 74.59 C 231.11 75.27 228.02 77.39 224.44 78.01 C 223.97 78.45 223.03 79.34 222.56 79.78 C 220.71 80.08 218.95 80.73 217.20 81.38 C 216.66 82.10 216.13 82.83 215.59 83.55 C 214.97 83.51 213.73 83.42 213.11 83.38 C 212.41 84.20 211.71 85.02 211.00 85.84 C 210.46 85.81 209.37 85.76 208.83 85.73 C 207.06 87.41 204.90 88.56 202.85 89.84 C 198.98 92.99 194.69 95.65 191.43 99.49 C 188.19 103.32 183.69 106.07 181.33 110.60 C 180.45 111.75 179.67 112.96 178.98 114.22 C 178.64 114.20 177.98 114.16 177.65 114.14 C 176.62 116.85 175.10 119.32 173.55 121.76 C 173.01 122.85 172.48 123.95 171.93 125.04 C 169.75 128.76 167.97 132.69 166.14 136.59 C 165.69 138.48 165.01 140.31 164.43 142.17 C 163.31 144.30 163.82 146.83 162.73 148.98 C 160.04 153.84 160.66 159.71 159.12 164.95 C 158.86 171.92 158.77 178.96 159.18 185.93 C 160.39 188.88 159.45 192.34 161.15 195.09 C 161.49 197.69 160.56 200.65 162.22 202.92 C 162.30 203.38 162.46 204.30 162.54 204.76 C 163.35 206.14 163.61 207.70 163.78 209.28 C 166.52 214.51 165.64 220.94 169.20 225.86 C 169.20 226.37 169.18 227.39 169.17 227.89 C 169.78 228.41 171.00 229.45 171.61 229.97 C 171.55 230.80 171.50 231.62 171.44 232.46 C 171.94 232.89 172.93 233.75 173.43 234.18 C 174.57 236.52 176.41 238.42 177.60 240.75 C 178.84 241.93 180.09 243.11 181.33 244.30 C 182.16 246.53 183.84 248.24 185.47 249.92 C 185.98 249.96 186.99 250.04 187.50 250.09 C 187.50 250.49 187.49 251.29 187.49 251.69 C 189.49 252.38 190.93 253.92 192.32 255.44 C 194.88 256.90 197.54 258.28 199.73 260.30 C 200.88 260.30 202.03 260.31 203.19 260.33 C 204.23 256.48 205.50 252.41 208.04 249.29 C 208.03 248.78 208.01 247.75 208.00 247.24 C 208.68 246.51 209.36 245.78 210.04 245.05 C 210.95 242.51 211.97 240.00 213.64 237.86 C 213.67 233.52 214.73 228.70 212.12 224.89 C 211.30 222.42 210.96 219.77 209.33 217.61 C 207.87 215.19 208.19 212.31 207.40 209.69 C 206.25 207.92 205.59 205.93 205.65 203.79 C 205.17 203.03 204.70 202.26 204.24 201.49 C 203.58 199.62 203.31 197.64 202.64 195.78 C 202.28 194.69 201.90 193.62 201.50 192.56 C 201.07 191.73 200.63 190.91 200.20 190.08 C 200.18 188.03 199.66 186.07 198.59 184.32 C 198.02 182.94 197.82 181.46 197.61 180.00 C 195.81 176.30 195.76 171.99 193.36 168.58 C 191.90 166.15 192.23 163.26 191.38 160.65 C 190.35 158.88 189.75 156.92 189.59 154.87 C 189.20 153.80 188.34 152.77 188.66 151.56 C 191.61 148.19 194.77 144.98 198.28 142.18 C 202.13 139.65 204.82 135.73 208.54 133.02 C 211.44 131.05 213.77 128.41 216.40 126.12 C 220.50 123.93 222.91 119.62 226.89 117.24 C 228.11 114.76 230.72 113.67 232.75 112.00 C 234.23 111.97 235.71 111.94 237.19 111.93 C 239.48 114.04 241.21 116.91 244.20 118.13 C 248.92 122.11 252.68 127.12 257.60 130.88 C 260.51 132.80 262.79 135.47 265.38 137.77 C 270.34 140.45 273.39 145.57 277.81 149.00 C 275.85 152.18 273.09 154.69 270.56 157.40 C 269.30 157.64 268.06 157.96 266.92 158.54 C 262.56 161.13 257.06 160.02 252.81 157.75 C 252.27 157.72 251.20 157.67 250.67 157.64 C 249.69 156.58 248.73 155.53 247.75 154.48 C 245.16 153.07 242.49 151.69 240.33 149.64 C 239.86 149.63 238.91 149.60 238.44 149.58 C 235.02 152.78 231.76 156.13 228.51 159.49 C 228.55 160.51 228.60 161.53 228.65 162.55 C 229.04 163.22 229.82 164.54 230.21 165.21 C 233.37 167.49 236.77 169.98 238.38 173.66 C 238.77 173.65 239.55 173.62 239.94 173.61 C 239.97 174.05 240.02 174.94 240.05 175.38 C 243.16 177.64 243.71 181.62 246.14 184.43 C 247.44 187.13 248.59 189.90 249.99 192.56 C 251.58 196.91 254.52 200.91 253.82 205.78 C 254.89 207.18 254.85 208.94 254.94 210.63 C 255.20 210.92 255.72 211.50 255.98 211.80 C 255.89 220.74 255.96 229.68 255.94 238.62 C 257.08 238.64 258.24 238.67 259.39 238.69 C 259.38 237.63 259.37 236.57 259.36 235.51 C 259.98 235.02 261.21 234.05 261.83 233.56 C 261.76 233.04 261.62 231.99 261.55 231.46 C 262.38 230.60 263.22 229.75 264.05 228.89 C 264.01 228.31 263.91 227.15 263.86 226.57 C 264.48 226.04 265.71 224.98 266.33 224.44 C 266.28 223.85 266.17 222.67 266.12 222.08 C 266.81 221.39 267.51 220.70 268.21 220.02 C 268.60 219.21 269.01 218.42 269.44 217.64 C 271.15 214.30 272.56 210.81 274.41 207.54 C 277.18 210.12 279.89 212.78 282.60 215.43 C 286.43 217.40 288.92 221.05 291.93 224.00 C 293.49 223.84 295.06 223.66 296.61 223.35 C 297.73 222.39 298.79 221.36 299.85 220.33 C 300.40 220.34 301.51 220.37 302.06 220.38 C 303.12 219.44 304.20 218.52 305.39 217.75 C 307.89 216.74 310.32 215.57 312.79 214.48 C 313.36 213.77 313.92 213.06 314.49 212.35 C 315.08 212.36 316.25 212.36 316.84 212.36 C 317.98 211.41 319.15 210.46 320.42 209.66 C 322.29 209.00 324.09 207.70 326.18 208.28 C 325.22 209.77 324.36 211.32 323.42 212.82 C 322.85 214.35 322.30 215.90 321.86 217.48 C 321.04 218.61 320.29 219.77 319.57 220.96 C 317.88 223.73 314.56 225.21 313.50 228.40 C 313.26 228.34 312.80 228.22 312.56 228.16 C 310.13 233.61 304.10 236.33 301.21 241.55 C 300.36 242.11 299.23 242.38 298.70 243.31 C 295.81 249.04 289.39 251.91 286.51 257.67 C 283.96 259.83 282.16 262.66 280.55 265.55 C 280.16 266.93 279.95 268.35 279.76 269.76 C 279.32 270.95 278.91 272.14 278.53 273.35 C 277.69 274.98 277.63 276.82 277.48 278.61 C 279.72 278.45 282.22 279.14 284.10 277.51 C 285.10 277.45 286.10 277.39 287.11 277.33 C 289.87 275.19 293.66 277.20 296.59 275.41 C 297.77 275.04 298.95 274.65 300.12 274.23 C 301.55 274.01 302.99 273.82 304.36 273.33 C 307.01 271.94 309.88 271.01 312.79 270.36 C 313.37 269.65 313.94 268.94 314.52 268.24 C 315.15 268.26 316.42 268.31 317.06 268.33 C 317.79 267.54 318.53 266.75 319.28 265.96 C 319.83 265.99 320.93 266.04 321.48 266.06 C 322.19 265.43 322.91 264.81 323.65 264.20 C 324.90 263.51 326.10 262.71 327.26 261.87 C 329.20 260.51 330.91 258.83 332.99 257.68 C 335.78 256.08 337.21 252.76 340.37 251.72 C 340.40 251.29 340.46 250.42 340.48 249.99 C 340.92 250.00 341.78 250.01 342.21 250.01 C 343.75 246.60 346.90 244.41 349.18 241.55 C 352.00 237.44 354.62 233.20 357.26 228.97 C 357.68 228.22 358.11 227.47 358.56 226.73 C 359.23 225.24 359.80 223.70 360.05 222.07 C 360.72 221.26 361.41 220.44 362.10 219.64 C 362.09 218.64 362.10 217.64 362.11 216.64 C 364.18 213.41 364.89 209.57 366.42 206.09 C 367.81 202.98 367.97 199.62 367.90 196.26 C 369.63 193.77 368.72 190.64 368.91 187.83 C 369.21 187.54 369.81 186.95 370.10 186.65 C 369.93 179.42 370.35 172.17 369.91 164.96 C 368.11 158.22 368.20 151.08 365.17 144.69 C 364.30 143.19 364.35 141.44 364.25 139.78 C 363.51 139.07 362.77 138.37 362.03 137.68 C 362.04 136.68 362.06 135.68 362.07 134.69 C 360.33 131.09 358.55 127.52 356.72 123.96 C 355.76 122.37 354.54 120.96 353.29 119.59 C 351.78 115.83 349.45 112.42 346.57 109.59 C 345.00 105.98 341.79 103.36 338.52 101.32 C 337.55 99.33 336.01 97.73 334.49 96.16 C 333.96 96.08 332.89 95.93 332.36 95.85 C 332.38 95.48 332.42 94.75 332.44 94.39 C 330.64 93.70 329.32 92.33 327.94 91.07 C 325.55 89.26 322.87 87.88 320.39 86.21 C 319.15 85.39 318.03 84.40 316.93 83.42 C 316.34 83.45 315.17 83.50 314.58 83.53 C 313.98 82.81 313.38 82.09 312.78 81.38 C 308.58 79.50 304.38 77.60 299.95 76.32 C 298.05 75.63 296.06 75.23 294.15 74.58 C 292.30 74.01 290.49 73.33 288.64 72.75 C 285.94 71.48 282.68 72.77 280.17 70.98 C 275.48 70.73 270.67 71.46 266.16 69.85 C 262.88 69.93 259.20 68.96 256.26 70.85 M 236.22 247.69 C 237.41 252.85 240.27 257.45 243.16 261.82 C 241.97 264.65 241.17 267.62 240.06 270.48 C 240.00 272.40 239.96 274.32 239.92 276.26 C 242.10 276.28 244.27 276.31 246.45 276.34 C 247.74 273.30 249.23 270.35 250.53 267.31 C 251.80 266.16 253.06 265.00 254.31 263.84 C 256.36 263.93 258.31 263.43 260.11 262.45 C 260.64 262.10 261.72 261.39 262.26 261.04 C 263.05 260.27 263.86 259.51 264.77 258.88 C 262.36 258.27 260.07 257.31 257.70 256.57 C 255.90 255.89 253.98 255.83 252.10 255.55 C 250.87 254.82 249.77 253.89 248.56 253.14 C 245.74 251.46 242.82 249.90 240.29 247.80 C 238.93 247.75 237.57 247.72 236.22 247.69 Z" />
<path fill="#ff00ff" opacity="1.00" d=" M 245.71 109.19 C 252.74 101.92 260.11 95.00 267.06 87.65 C 272.69 91.65 278.59 95.50 282.92 100.98 C 283.52 102.41 284.55 103.54 285.65 104.61 C 285.66 105.78 285.68 106.96 285.70 108.14 C 283.92 109.79 282.23 111.63 279.93 112.54 C 279.94 112.97 279.96 113.81 279.97 114.24 C 279.51 114.23 278.57 114.21 278.10 114.21 C 277.74 116.21 276.61 117.67 274.56 118.05 C 270.98 121.06 268.29 125.25 263.83 127.09 C 261.36 124.97 259.24 122.49 256.79 120.35 C 252.25 118.48 250.27 113.18 245.67 111.42 C 245.68 110.87 245.70 109.75 245.71 109.19 Z" />
<path fill="#ff00ff" opacity="1.00" d=" M 277.73 123.91 C 283.77 120.86 286.86 114.01 292.95 111.09 C 294.15 111.66 295.36 112.20 296.58 112.73 C 299.72 114.71 302.07 117.66 304.65 120.27 C 306.61 124.22 309.60 127.52 311.92 131.24 C 312.09 134.80 307.93 136.81 305.34 138.58 C 302.68 141.27 299.32 143.09 296.62 145.74 C 294.76 146.63 293.37 148.19 291.95 149.63 C 291.49 149.65 290.57 149.69 290.11 149.71 C 290.13 150.13 290.17 150.95 290.19 151.37 C 286.34 153.59 282.86 156.44 279.57 159.42 C 279.89 157.49 280.89 155.84 282.21 154.42 C 282.20 151.13 282.19 147.84 282.23 144.55 C 279.01 141.50 276.35 137.73 272.40 135.55 C 271.64 134.20 270.68 132.98 269.67 131.81 C 271.02 130.56 272.32 129.26 273.62 127.96 C 274.05 127.98 274.91 128.00 275.34 128.02 C 275.33 127.44 275.32 126.29 275.32 125.72 C 275.89 125.71 277.04 125.71 277.61 125.70 C 277.64 125.25 277.70 124.36 277.73 123.91 Z" />
<path fill="#ff00ff" opacity="1.00" d=" M 313.78 141.65 C 314.29 141.65 315.31 141.65 315.82 141.65 C 317.05 142.88 318.30 144.08 319.56 145.29 C 320.68 147.44 322.04 149.46 322.93 151.72 C 323.74 152.83 324.68 153.82 325.63 154.81 C 325.60 155.40 325.54 156.59 325.51 157.19 C 326.30 157.87 327.11 158.57 327.91 159.26 C 327.82 161.73 328.04 164.22 327.66 166.67 C 325.85 168.13 323.35 168.37 321.45 169.75 C 318.60 171.87 315.41 173.46 312.56 175.58 C 309.12 177.75 305.39 179.43 302.22 182.01 C 295.70 184.57 290.57 189.80 284.06 192.27 C 281.07 186.49 275.80 181.94 273.89 175.64 C 273.52 174.79 273.17 173.95 272.82 173.10 C 275.84 171.85 277.74 168.99 280.65 167.55 C 282.09 166.25 283.57 165.00 285.25 164.02 C 287.98 161.17 291.55 159.36 294.29 156.53 C 294.58 156.52 295.17 156.48 295.46 156.47 C 297.75 153.14 301.56 151.62 304.40 148.90 C 307.56 146.53 310.60 144.00 313.78 141.65 Z" />
<path fill="#ff00ff" opacity="1.00" d=" M 328.79 173.65 C 329.46 174.60 330.14 175.54 330.82 176.50 C 331.60 177.75 332.59 178.84 333.59 179.92 C 333.57 180.47 333.53 181.58 333.51 182.14 C 334.13 182.88 334.75 183.64 335.35 184.41 C 335.76 186.19 335.89 188.02 336.11 189.83 C 336.54 190.99 336.92 192.16 337.28 193.35 C 334.32 194.78 331.87 197.35 328.50 197.82 C 326.61 199.84 323.80 200.17 321.43 201.34 C 320.36 201.69 319.29 201.99 318.20 202.25 C 313.55 205.33 308.33 207.30 303.35 209.77 C 300.99 210.07 299.18 211.68 297.15 212.75 C 297.05 213.03 296.86 213.59 296.76 213.87 C 294.77 211.65 292.61 209.60 290.42 207.60 C 290.01 205.35 289.14 203.22 288.00 201.24 C 287.95 200.19 287.91 199.15 287.88 198.11 C 292.92 194.85 298.36 192.22 303.31 188.83 C 304.49 188.01 305.63 187.12 306.74 186.19 C 307.26 186.16 308.30 186.10 308.82 186.08 C 310.03 185.17 311.26 184.29 312.57 183.53 C 315.43 181.43 318.60 179.82 321.49 177.77 C 323.78 176.15 326.36 175.04 328.79 173.65 Z" />
</g>
</svg>
