<svg height="128pt" viewBox="0 0 128 128" width="128pt" xmlns="http://www.w3.org/2000/svg"><path d="m100.19.0h.4c2.8 2.34 6.11 4.15 8.33 7.13 2.49 2.93 3.49 6.76 3.89 10.5.49 5.51-1.95 10.84-1.29 16.31.55 3.8 5.6 5.13 8.51 3.12 4.21-2.62 5.12-7.83 6.16-12.28.79 1.87 1.38 3.82 1.81 5.8v8.92c-1.13 6.74-4 13.23-8.75 18.2-.59-4.16-1.45-8.32-3.13-12.2-1.19 2.21-1.83 5.22-4.45 6.18-2.39 1.26-5.97-.03-6.46-2.82-.95-4.22-.68-8.97-3.42-12.6-1.93-2.92-5.18-4.43-8.3-5.71.63 3.7 1.79 7.61.45 11.3-1.36 3.9-5.74 6.95-9.9 5.92-3.16-1-3.31-4.83-4.32-7.44-4.38 4.79-6.87 11.2-6.36 17.73-5.86-6.17-9.38-14.52-9.3-23.06.25-6.09 2.16-12.07 5.41-17.22.66-1.03 1.35-2.05 2.06-3.05-.18.77-.54 2.3-.72 3.07-.8 3.81-.82 8.43 2.06 11.42 2.85 3.04 8.57 1.33 9.75-2.52.9-3.04-.5-6.05-1.3-8.93-1.3-5.23 1.01-10.58 4.87-14.11-.25 3.48-.42 7.39 1.95 10.26 2.76 3.82 9.32 4.37 12.09.27 3.19-4.22 1.27-9.66-.04-14.19z" fill="#f4900c"/><path d="m0 30.19c.96-6.42 6.42-12.02 13.03-12.31 9.77-.21 19.55-.01 29.32-.08.01 30.8.01 61.6.0 92.4-9.46-.03-18.92.05-28.38-.02-7.03.13-13.14-5.72-13.97-12.58z" fill="#002495"/><g fill="#eee"><path d="m42.35 17.8c9.04-.01 18.08.03 27.12-.02-3.25 5.15-5.16 11.13-5.41 17.22-.08 8.54 3.44 16.89 9.3 23.06 3.44 3.49 7.77 5.94 12.26 7.83-.02 14.77-.01 29.54.0 44.31-14.42.0-28.85.0-43.27.0.01-30.8.01-61.6.0-92.4z"/><path d="m72.87 29.22c-2.88-2.99-2.86-7.61-2.06-11.42 3.5.0 7 .02 10.51-.03.8 2.88 2.2 5.89 1.3 8.93-1.18 3.85-6.9 5.56-9.75 2.52z"/></g><g fill="#ed2939"><path d="m112.81 17.63c5.36-.04 10.51 2.59 13.38 7.15-1.04 4.45-1.95 9.66-6.16 12.28-2.91 2.01-7.96.68-8.51-3.12-.66-5.47 1.78-10.8 1.29-16.31z"/><path d="m119.25 57.7c4.75-4.97 7.62-11.46 8.75-18.2v57.99c-.76 6.92-6.93 12.83-13.99 12.69-9.46.07-18.93-.01-28.39.02-.01-14.77-.02-29.54.0-44.31 11.51 4.36 25.3.77 33.63-8.19z"/></g><path d="m93.49 30.55c3.12 1.28 6.37 2.79 8.3 5.71 2.74 3.63 2.47 8.38 3.42 12.6.49 2.79 4.07 4.08 6.46 2.82 2.62-.96 3.26-3.97 4.45-6.18 1.68 3.88 2.54 8.04 3.13 12.2-8.33 8.96-22.12 12.55-33.63 8.19-4.49-1.89-8.82-4.34-12.26-7.83-.51-6.53 1.98-12.94 6.36-17.73 1.01 2.61 1.16 6.44 4.32 7.44 4.16 1.03 8.54-2.02 9.9-5.92 1.34-3.69.18-7.6-.45-11.3z" fill="#ffcc4d"/></svg>