<?xml version="1.0" encoding="UTF-8" ?>
<!DOCTYPE svg PUBLIC "-//W3C//DTD SVG 1.1//EN" "http://www.w3.org/Graphics/SVG/1.1/DTD/svg11.dtd">
<svg width="244pt" height="234pt" viewBox="0 0 244 234" version="1.1" xmlns="http://www.w3.org/2000/svg">
<g id="#9fd9f0ff">
<path fill="#9fd9f0" opacity="1.00" d=" M 102.55 1.77 C 110.97 -0.24 119.83 -0.25 128.07 2.57 C 152.55 7.30 177.61 8.05 202.04 13.13 C 211.69 15.06 221.37 17.34 230.43 21.28 C 235.22 23.52 240.69 26.49 241.85 32.16 C 242.91 38.74 242.22 45.44 241.95 52.06 C 240.64 62.30 240.41 72.64 239.28 82.91 C 238.64 98.96 238.65 115.06 240.20 131.06 C 241.35 144.70 242.73 158.33 242.97 172.04 C 242.99 174.19 242.82 176.57 241.22 178.20 C 236.85 182.98 231.30 186.45 225.97 190.04 C 215.35 196.82 204.49 203.22 193.84 209.95 C 185.81 214.77 178.69 220.90 170.99 226.20 C 162.54 232.51 151.30 234.09 141.10 232.17 C 114.55 227.03 88.48 219.72 62.04 214.10 C 55.28 212.90 48.42 212.41 41.60 211.65 C 33.78 210.23 25.24 210.04 18.43 205.43 C 13.35 202.05 13.48 195.28 12.91 189.88 C 11.38 180.00 11.40 169.96 10.33 160.03 C 9.93 153.67 10.15 147.27 9.51 140.92 C 8.56 131.36 9.07 121.65 7.27 112.18 C 5.56 100.24 3.33 88.39 1.63 76.45 C 0.65 71.36 0.61 66.11 0.92 60.95 C 0.85 59.36 2.13 58.23 3.14 57.20 C 6.56 54.15 10.52 51.80 14.41 49.41 C 30.44 39.81 46.58 30.40 62.26 20.24 C 74.74 12.30 88.04 5.15 102.55 1.77 M 106.24 6.29 C 92.11 9.49 79.11 16.37 67.03 24.20 C 53.47 33.55 38.72 40.98 24.78 49.72 C 19.55 53.08 13.83 56.05 9.67 60.77 C 8.25 63.88 7.83 67.92 9.45 71.05 C 8.30 72.45 8.35 73.80 9.60 75.09 C 9.57 83.50 12.09 91.68 13.09 99.99 C 14.03 104.95 14.76 109.95 15.74 114.91 C 16.77 120.40 14.92 126.20 17.09 131.52 C 16.92 134.59 16.85 137.69 17.37 140.73 C 17.66 145.50 17.06 150.45 18.46 155.06 C 17.31 156.70 17.33 159.40 18.62 160.96 C 18.54 163.65 19.10 166.32 19.03 169.02 C 18.67 177.05 20.42 184.95 21.11 192.92 C 21.97 199.35 28.60 202.40 34.18 203.82 C 48.32 206.99 62.97 207.01 77.04 210.60 C 98.13 215.02 118.87 220.94 140.01 225.12 C 149.65 227.18 160.26 226.17 168.71 220.82 C 175.25 216.38 181.56 211.62 187.94 206.97 C 202.32 197.64 217.53 189.56 231.35 179.38 C 233.92 177.10 237.65 175.35 238.35 171.67 C 239.42 168.34 239.23 164.77 238.43 161.41 C 238.31 158.60 237.87 155.80 237.95 152.99 C 237.81 149.61 238.59 145.90 236.57 142.91 C 237.71 141.58 237.61 139.17 236.36 137.96 C 236.27 131.69 236.29 125.32 235.22 119.11 C 234.41 110.06 235.09 100.98 234.83 91.92 C 234.46 82.56 236.88 73.34 236.34 63.98 C 237.59 62.78 237.74 60.35 236.56 59.07 C 238.75 55.78 237.68 51.69 237.98 47.99 C 237.84 43.37 238.67 38.52 237.00 34.08 C 235.56 29.40 230.60 27.44 226.65 25.31 C 212.14 19.03 196.33 16.90 180.87 14.24 C 165.21 12.56 149.59 10.62 134.00 8.36 C 129.66 7.42 125.45 5.89 120.98 5.64 C 116.08 4.69 111.15 5.98 106.24 6.29 Z" />
</g>
<g id="#92b7c4d1">
<path fill="#92b7c4" opacity="0.82" d=" M 106.24 6.29 C 111.15 5.98 116.08 4.69 120.98 5.64 C 125.45 5.89 129.66 7.42 134.00 8.36 C 149.59 10.62 165.21 12.56 180.87 14.24 C 196.33 16.90 212.14 19.03 226.65 25.31 C 230.60 27.44 235.56 29.40 237.00 34.08 C 238.67 38.52 237.84 43.37 237.98 47.99 C 237.68 51.69 238.75 55.78 236.56 59.07 C 235.47 60.54 235.78 62.38 236.34 63.98 C 236.88 73.34 234.46 82.56 234.83 91.92 C 235.09 100.98 234.41 110.06 235.22 119.11 C 236.29 125.32 236.27 131.69 236.36 137.96 C 235.79 139.57 235.48 141.43 236.57 142.91 C 238.59 145.90 237.81 149.61 237.95 152.99 C 237.87 155.80 238.31 158.60 238.43 161.41 C 238.12 164.82 238.04 168.25 238.35 171.67 C 237.65 175.35 233.92 177.10 231.35 179.38 C 217.53 189.56 202.32 197.64 187.94 206.97 C 181.56 211.62 175.25 216.38 168.71 220.82 C 160.26 226.17 149.65 227.18 140.01 225.12 C 118.87 220.94 98.13 215.02 77.04 210.60 C 62.97 207.01 48.32 206.99 34.18 203.82 C 28.60 202.40 21.97 199.35 21.11 192.92 C 20.42 184.95 18.67 177.05 19.03 169.02 C 19.10 166.32 18.54 163.65 18.62 160.96 C 19.26 159.02 19.45 156.92 18.46 155.06 C 17.06 150.45 17.66 145.50 17.37 140.73 C 17.94 137.67 18.39 134.47 17.09 131.52 C 14.92 126.20 16.77 120.40 15.74 114.91 C 14.76 109.95 14.03 104.95 13.09 99.99 C 12.09 91.68 9.57 83.50 9.60 75.09 C 10.28 73.81 10.34 72.26 9.45 71.05 C 7.83 67.92 8.25 63.88 9.67 60.77 C 13.83 56.05 19.55 53.08 24.78 49.72 C 38.72 40.98 53.47 33.55 67.03 24.20 C 79.11 16.37 92.11 9.49 106.24 6.29 M 95.19 17.12 C 84.25 22.79 73.49 28.80 62.62 34.59 C 50.66 40.50 38.82 46.94 28.42 55.37 C 24.40 58.89 19.26 63.03 19.86 68.99 C 21.12 86.84 24.48 104.53 24.38 122.46 C 24.94 129.31 25.60 136.16 25.88 143.03 C 26.02 148.63 27.61 154.24 26.25 159.81 C 26.42 160.04 26.75 160.51 26.92 160.74 C 26.97 167.19 28.34 173.52 28.71 179.94 C 28.85 182.57 29.26 185.19 30.25 187.65 C 31.46 186.38 32.68 185.13 33.74 183.73 C 41.69 184.60 48.78 179.83 55.27 175.89 C 55.60 176.26 56.26 177.00 56.60 177.38 C 48.32 184.55 35.54 184.98 28.75 194.07 C 30.02 195.64 31.60 196.94 33.63 197.34 C 40.62 199.14 47.86 199.92 55.08 200.00 C 61.83 200.41 68.53 201.44 75.28 201.78 C 86.04 204.78 97.09 206.53 107.98 208.92 C 117.22 210.64 126.53 213.08 136.00 212.32 C 135.81 212.65 135.43 213.32 135.25 213.65 C 142.84 214.76 150.80 216.23 158.35 214.30 C 178.64 204.78 197.67 192.78 216.19 180.23 C 217.67 179.28 219.38 178.34 219.77 176.46 C 223.29 173.79 227.53 171.73 230.09 168.02 C 234.53 157.38 231.62 145.69 231.42 134.63 C 231.16 134.61 230.65 134.55 230.40 134.52 C 230.72 127.01 228.78 119.63 228.76 112.11 C 228.46 106.76 226.96 101.46 227.78 96.07 C 228.43 78.02 230.91 60.02 229.96 41.94 C 229.81 38.33 228.92 34.39 225.94 32.05 C 221.31 28.27 215.31 26.86 209.63 25.50 C 197.17 23.27 184.54 22.23 171.98 20.64 C 160.92 19.45 150.08 16.90 139.20 14.66 C 134.77 13.79 130.30 12.64 125.75 13.10 C 121.87 12.22 117.95 11.41 113.98 11.07 C 107.20 10.83 101.09 14.23 95.19 17.12 Z" />
</g>
<g id="#fbf2f4ff">
<path fill="#fbf2f4" opacity="1.00" d=" M 95.19 17.12 C 101.09 14.23 107.20 10.83 113.98 11.07 C 117.95 11.41 121.87 12.22 125.75 13.10 C 127.74 13.85 129.68 14.74 131.61 15.63 C 125.71 15.99 119.83 16.66 114.05 17.88 C 102.49 20.30 91.92 25.90 81.77 31.76 C 75.86 35.47 69.99 39.29 64.47 43.56 C 61.11 46.37 57.31 49.48 56.45 54.02 C 56.37 57.82 60.73 58.64 63.33 60.22 C 60.02 63.87 57.06 67.81 54.49 72.00 L 54.05 72.03 C 45.51 72.60 36.12 76.00 31.87 83.97 C 25.79 95.87 26.36 109.59 24.38 122.46 C 24.48 104.53 21.12 86.84 19.86 68.99 C 19.26 63.03 24.40 58.89 28.42 55.37 C 38.82 46.94 50.66 40.50 62.62 34.59 C 73.49 28.80 84.25 22.79 95.19 17.12 Z" />
<path fill="#fbf2f4" opacity="1.00" d=" M 188.18 53.18 C 197.68 49.92 206.55 45.17 215.86 41.49 C 209.11 48.16 200.67 52.77 192.85 58.05 L 192.66 58.19 C 191.17 56.51 189.67 54.85 188.18 53.18 Z" />
</g>
<g id="#b2d8e4f1">
<path fill="#b2d8e4" opacity="0.95" d=" M 125.75 13.10 C 130.30 12.64 134.77 13.79 139.20 14.66 C 150.08 16.90 160.92 19.45 171.98 20.64 C 184.54 22.23 197.17 23.27 209.63 25.50 C 215.31 26.86 221.31 28.27 225.94 32.05 C 228.92 34.39 229.81 38.33 229.96 41.94 C 230.91 60.02 228.43 78.02 227.78 96.07 C 226.96 101.46 228.46 106.76 228.76 112.11 C 228.38 110.82 227.93 109.55 227.51 108.28 C 224.76 119.32 224.74 130.81 225.62 142.09 C 226.21 149.17 224.57 156.47 220.55 162.39 C 216.78 161.02 212.79 160.53 208.86 159.93 C 214.42 146.01 217.66 131.04 217.01 116.00 C 216.41 105.23 213.97 94.56 209.73 84.64 C 205.84 74.83 199.84 65.93 192.85 58.05 C 200.67 52.77 209.11 48.16 215.86 41.49 C 206.55 45.17 197.68 49.92 188.18 53.18 L 188.03 53.22 C 176.76 42.26 161.71 35.26 146.00 34.08 C 139.79 34.02 133.96 36.55 127.94 37.72 C 123.11 38.89 118.12 38.64 113.20 38.60 L 113.18 38.36 C 113.81 38.29 115.08 38.15 115.71 38.08 C 115.13 31.35 113.93 24.66 114.05 17.88 C 119.83 16.66 125.71 15.99 131.61 15.63 C 129.68 14.74 127.74 13.85 125.75 13.10 Z" />
</g>
<g id="#a3c8d4e1">
<path fill="#a3c8d4" opacity="0.88" d=" M 81.77 31.76 C 91.92 25.90 102.49 20.30 114.05 17.88 C 113.93 24.66 115.13 31.35 115.71 38.08 C 115.08 38.15 113.81 38.29 113.18 38.36 C 112.75 34.31 113.48 29.62 110.80 26.20 C 108.50 23.40 104.56 24.89 101.71 25.82 C 98.83 26.97 94.75 27.41 94.00 31.06 C 94.53 34.28 95.73 37.34 96.67 40.46 C 89.40 42.79 81.98 45.13 75.60 49.46 C 71.22 52.47 67.18 55.97 63.61 59.91 L 63.33 60.22 C 60.73 58.64 56.37 57.82 56.45 54.02 C 57.31 49.48 61.11 46.37 64.47 43.56 C 69.99 39.29 75.86 35.47 81.77 31.76 Z" />
<path fill="#a3c8d4" opacity="0.88" d=" M 31.87 83.97 C 36.12 76.00 45.51 72.60 54.05 72.03 C 47.25 82.51 39.10 92.61 36.17 105.02 C 34.60 110.51 34.77 116.26 34.44 121.90 C 34.55 129.15 34.55 136.54 36.61 143.56 C 38.02 148.47 40.15 153.15 42.55 157.66 C 46.16 164.14 50.33 170.34 55.27 175.89 C 48.78 179.83 41.69 184.60 33.74 183.73 C 35.93 180.28 38.21 175.42 35.26 171.73 C 32.48 168.06 29.52 164.54 26.92 160.74 C 26.75 160.51 26.42 160.04 26.25 159.81 C 27.61 154.24 26.02 148.63 25.88 143.03 C 25.60 136.16 24.94 129.31 24.38 122.46 C 26.36 109.59 25.79 95.87 31.87 83.97 Z" />
</g>
<g id="#759179ff">
<path fill="#759179" opacity="1.00" d=" M 101.71 25.82 C 104.56 24.89 108.50 23.40 110.80 26.20 C 113.48 29.62 112.75 34.31 113.18 38.36 L 113.20 38.60 C 113.38 40.17 113.60 41.73 113.82 43.29 C 112.85 44.15 111.93 45.07 111.00 45.97 C 108.30 42.27 109.16 37.56 108.31 33.34 C 107.80 31.57 106.08 33.12 104.96 33.32 C 103.00 34.09 101.02 34.83 99.04 35.55 C 102.07 44.76 104.38 54.65 111.10 62.03 C 111.71 61.24 112.31 60.45 112.95 59.69 C 114.34 58.06 115.81 56.51 117.28 54.96 L 118.08 54.12 C 119.47 57.60 120.55 61.19 121.37 64.84 C 117.21 64.82 113.06 64.99 108.91 64.96 L 108.12 64.83 C 106.02 61.74 104.16 58.51 102.32 55.26 C 100.70 51.71 99.31 48.06 97.98 44.39 C 97.53 43.08 97.10 41.77 96.67 40.46 C 95.73 37.34 94.53 34.28 94.00 31.06 C 94.75 27.41 98.83 26.97 101.71 25.82 Z" />
</g>
<g id="#598b64ff">
<path fill="#598b64" opacity="1.00" d=" M 104.96 33.32 C 106.08 33.12 107.80 31.57 108.31 33.34 C 109.16 37.56 108.30 42.27 111.00 45.97 C 111.93 45.07 112.85 44.15 113.82 43.29 C 114.37 42.92 115.46 42.16 116.00 41.78 C 116.76 46.14 117.17 50.54 117.28 54.96 C 115.81 56.51 114.34 58.06 112.95 59.69 C 108.66 55.96 110.48 49.97 108.80 45.14 C 107.56 41.19 106.03 37.33 104.96 33.32 Z" />
</g>
<g id="#88b37bff">
<path fill="#88b37b" opacity="1.00" d=" M 99.04 35.55 C 101.02 34.83 103.00 34.09 104.96 33.32 C 106.03 37.33 107.56 41.19 108.80 45.14 C 110.48 49.97 108.66 55.96 112.95 59.69 C 112.31 60.45 111.71 61.24 111.10 62.03 C 104.38 54.65 102.07 44.76 99.04 35.55 Z" />
</g>
<g id="#ab7b6cff">
<path fill="#ab7b6c" opacity="1.00" d=" M 127.94 37.72 C 133.96 36.55 139.79 34.02 146.00 34.08 C 161.71 35.26 176.76 42.26 188.03 53.22 C 185.86 54.02 183.68 54.76 181.50 55.51 C 171.19 46.94 158.47 41.00 145.02 39.88 C 139.19 39.34 133.38 40.44 127.68 41.57 C 124.22 38.81 119.50 39.46 116.00 41.78 C 115.46 42.16 114.37 42.92 113.82 43.29 C 113.60 41.73 113.38 40.17 113.20 38.60 C 118.12 38.64 123.11 38.89 127.94 37.72 Z" />
</g>
<g id="#60916cff">
<path fill="#60916c" opacity="1.00" d=" M 116.00 41.78 C 119.50 39.46 124.22 38.81 127.68 41.57 C 130.28 43.30 132.78 45.46 135.94 46.04 C 139.36 46.27 142.59 43.34 146.02 44.88 C 151.29 46.90 154.94 51.47 158.50 55.63 C 160.14 57.55 162.88 56.25 165.04 56.32 C 167.72 55.67 170.06 57.24 172.30 58.46 C 170.67 58.89 169.05 59.30 167.41 59.66 C 164.35 59.09 161.35 59.86 158.35 60.41 C 154.55 55.69 150.76 50.50 144.83 48.27 C 141.09 47.91 137.40 48.98 133.71 49.48 C 134.92 54.87 137.54 59.80 140.95 64.12 C 139.03 64.43 137.11 64.74 135.17 64.88 L 134.16 64.91 C 133.14 63.04 132.16 61.15 131.32 59.19 C 130.91 58.25 130.50 57.31 130.08 56.38 C 128.30 54.31 126.37 51.99 123.64 51.24 C 121.30 50.66 119.59 52.69 118.08 54.12 L 117.28 54.96 C 117.17 50.54 116.76 46.14 116.00 41.78 Z" />
<path fill="#60916c" opacity="1.00" d=" M 176.99 69.68 C 177.83 68.89 178.71 68.16 179.59 67.41 C 181.55 71.77 181.70 76.71 183.91 80.97 C 186.33 85.70 187.96 90.79 188.94 96.01 C 189.74 101.34 194.54 104.87 195.64 110.13 C 197.84 115.77 196.98 121.99 194.52 127.38 C 190.36 136.16 189.30 146.21 183.78 154.37 L 183.55 154.76 C 182.82 154.54 181.38 154.11 180.65 153.89 C 183.27 148.64 186.14 143.43 187.32 137.63 C 188.67 130.79 193.23 124.93 193.74 117.90 C 193.55 112.39 191.71 106.81 187.92 102.70 C 185.10 97.11 185.11 90.54 182.04 85.03 C 179.38 80.26 178.53 74.84 176.99 69.68 Z" />
<path fill="#60916c" opacity="1.00" d=" M 167.51 91.64 C 167.86 90.33 168.22 89.01 168.58 87.70 C 173.00 97.88 177.43 108.16 180.00 118.99 C 182.50 127.69 184.75 136.85 182.87 145.90 C 181.12 148.55 178.48 150.49 176.52 152.98 C 175.93 152.97 174.74 152.95 174.15 152.93 C 176.48 149.60 176.97 144.27 173.35 141.65 C 167.79 137.57 164.11 131.63 161.06 125.57 C 161.08 125.08 161.13 124.10 161.15 123.61 C 161.82 117.96 162.72 112.33 163.77 106.73 C 164.51 109.77 165.29 112.84 165.29 115.99 C 164.97 122.34 167.42 128.62 171.80 133.19 C 174.62 136.06 177.50 138.88 179.96 142.08 C 182.03 135.39 180.35 128.37 178.25 121.92 C 175.24 111.64 172.41 101.22 167.51 91.64 Z" />
</g>
<g id="#e2b16cff">
<path fill="#e2b16c" opacity="1.00" d=" M 127.68 41.57 C 133.38 40.44 139.19 39.34 145.02 39.88 C 158.47 41.00 171.19 46.94 181.50 55.51 L 181.75 55.73 C 178.66 56.53 175.61 57.48 172.56 58.39 L 172.30 58.46 C 170.06 57.24 167.72 55.67 165.04 56.32 C 162.88 56.25 160.14 57.55 158.50 55.63 C 154.94 51.47 151.29 46.90 146.02 44.88 C 142.59 43.34 139.36 46.27 135.94 46.04 C 132.78 45.46 130.28 43.30 127.68 41.57 Z" />
</g>
<g id="#8c6d64ff">
<path fill="#8c6d64" opacity="1.00" d=" M 75.60 49.46 C 81.98 45.13 89.40 42.79 96.67 40.46 C 97.10 41.77 97.53 43.08 97.98 44.39 C 87.31 47.63 77.39 53.39 69.51 61.32 L 69.07 61.23 C 67.23 60.84 65.42 60.37 63.61 59.91 C 67.18 55.97 71.22 52.47 75.60 49.46 Z" />
</g>
<g id="#d7736cff">
<path fill="#d7736c" opacity="1.00" d=" M 69.51 61.32 C 77.39 53.39 87.31 47.63 97.98 44.39 C 99.31 48.06 100.70 51.71 102.32 55.26 C 97.79 52.31 92.92 48.39 87.13 49.71 C 90.51 52.23 94.65 53.49 97.94 56.16 C 101.03 58.48 103.56 61.41 106.14 64.26 C 103.01 63.92 99.86 63.95 96.72 63.75 C 92.92 63.31 89.09 63.16 85.27 63.09 C 80.00 62.65 74.74 62.08 69.51 61.32 Z" />
</g>
<g id="#54a66dff">
<path fill="#54a66d" opacity="1.00" d=" M 133.71 49.48 C 137.40 48.98 141.09 47.91 144.83 48.27 C 150.76 50.50 154.55 55.69 158.35 60.41 C 161.35 59.86 164.35 59.09 167.41 59.66 C 158.79 62.13 149.91 63.71 140.95 64.12 C 137.54 59.80 134.92 54.87 133.71 49.48 Z" />
</g>
<g id="#997166ff">
<path fill="#997166" opacity="1.00" d=" M 87.13 49.71 C 92.92 48.39 97.79 52.31 102.32 55.26 C 104.16 58.51 106.02 61.74 108.12 64.83 C 107.62 64.69 106.63 64.40 106.14 64.26 C 103.56 61.41 101.03 58.48 97.94 56.16 C 94.65 53.49 90.51 52.23 87.13 49.71 Z" />
</g>
<g id="#b9946cff">
<path fill="#b9946c" opacity="1.00" d=" M 118.08 54.12 C 119.59 52.69 121.30 50.66 123.64 51.24 C 126.37 51.99 128.30 54.31 130.08 56.38 C 126.72 58.41 123.99 61.26 122.29 64.82 C 122.06 64.83 121.60 64.84 121.37 64.84 C 120.55 61.19 119.47 57.60 118.08 54.12 Z" />
</g>
<g id="#e5c0b9ff">
<path fill="#e5c0b9" opacity="1.00" d=" M 188.03 53.22 L 188.18 53.18 C 189.67 54.85 191.17 56.51 192.66 58.19 C 190.99 59.31 189.34 60.46 187.69 61.61 L 187.45 61.36 C 185.63 59.41 183.75 57.50 181.75 55.73 L 181.50 55.51 C 183.68 54.76 185.86 54.02 188.03 53.22 Z" />
</g>
<g id="#fcdbb9ff">
<path fill="#fcdbb9" opacity="1.00" d=" M 172.56 58.39 C 175.61 57.48 178.66 56.53 181.75 55.73 C 183.75 57.50 185.63 59.41 187.45 61.36 C 184.79 63.31 182.15 65.30 179.54 67.31 C 177.65 64.02 175.12 61.17 172.56 58.39 Z" />
</g>
<g id="#a67c6dff">
<path fill="#a67c6d" opacity="1.00" d=" M 122.29 64.82 C 123.99 61.26 126.72 58.41 130.08 56.38 C 130.50 57.31 130.91 58.25 131.32 59.19 C 129.06 60.66 127.08 62.51 125.67 64.81 C 124.82 64.81 123.13 64.82 122.29 64.82 Z" />
</g>
<g id="#ac7b6cff">
<path fill="#ac7b6c" opacity="1.00" d=" M 192.66 58.19 L 192.85 58.05 C 199.84 65.93 205.84 74.83 209.73 84.64 C 207.64 86.84 205.64 89.13 203.72 91.48 C 200.88 80.44 195.69 69.85 187.69 61.61 C 189.34 60.46 190.99 59.31 192.66 58.19 Z" />
</g>
<g id="#bed8b9ff">
<path fill="#bed8b9" opacity="1.00" d=" M 167.41 59.66 C 169.05 59.30 170.67 58.89 172.30 58.46 L 172.56 58.39 C 175.12 61.17 177.65 64.02 179.54 67.31 L 179.59 67.41 C 178.71 68.16 177.83 68.89 176.99 69.68 C 172.05 74.49 170.08 81.18 168.58 87.70 C 168.22 89.01 167.86 90.33 167.51 91.64 C 166.30 96.47 164.78 101.21 163.87 106.11 C 161.54 102.24 159.23 98.22 155.61 95.39 C 151.93 92.57 149.98 88.30 147.51 84.51 C 144.47 80.13 143.78 74.62 140.68 70.27 C 139.12 68.43 140.62 66.10 140.95 64.12 C 149.91 63.71 158.79 62.13 167.41 59.66 Z" />
</g>
<g id="#7ea2aeb9">
<path fill="#7ea2ae" opacity="0.73" d=" M 236.34 63.98 C 235.78 62.38 235.47 60.54 236.56 59.07 C 237.74 60.35 237.59 62.78 236.34 63.98 Z" />
</g>
<g id="#d8bdb9ff">
<path fill="#d8bdb9" opacity="1.00" d=" M 63.33 60.22 L 63.61 59.91 C 65.42 60.37 67.23 60.84 69.07 61.23 C 66.31 64.81 63.47 68.33 60.85 72.01 L 60.32 71.99 C 58.38 71.95 56.43 71.95 54.49 72.00 C 57.06 67.81 60.02 63.87 63.33 60.22 Z" />
</g>
<g id="#b98d6cff">
<path fill="#b98d6c" opacity="1.00" d=" M 125.67 64.81 C 127.08 62.51 129.06 60.66 131.32 59.19 C 132.16 61.15 133.14 63.04 134.16 64.91 C 131.32 64.91 128.49 64.86 125.67 64.81 Z" />
</g>
<g id="#f4bfbbff">
<path fill="#f4bfbb" opacity="1.00" d=" M 69.07 61.23 L 69.51 61.32 C 74.74 62.08 80.00 62.65 85.27 63.09 C 78.18 64.66 70.59 66.66 65.61 72.35 L 65.27 72.32 C 63.79 72.20 62.32 72.10 60.85 72.01 C 63.47 68.33 66.31 64.81 69.07 61.23 Z" />
</g>
<g id="#e2b36cff">
<path fill="#e2b36c" opacity="1.00" d=" M 179.54 67.31 C 182.15 65.30 184.79 63.31 187.45 61.36 L 187.69 61.61 C 195.69 69.85 200.88 80.44 203.72 91.48 C 209.13 113.25 208.00 136.99 197.92 157.27 C 193.10 156.91 188.41 155.71 183.78 154.37 C 189.30 146.21 190.36 136.16 194.52 127.38 C 196.98 121.99 197.84 115.77 195.64 110.13 C 194.54 104.87 189.74 101.34 188.94 96.01 C 187.96 90.79 186.33 85.70 183.91 80.97 C 181.70 76.71 181.55 71.77 179.59 67.41 L 179.54 67.31 Z" />
</g>
<g id="#dfbfb9ff">
<path fill="#dfbfb9" opacity="1.00" d=" M 85.27 63.09 C 89.09 63.16 92.92 63.31 96.72 63.75 C 100.80 67.16 106.08 68.15 111.17 68.92 C 110.42 67.60 109.67 66.28 108.91 64.96 C 113.06 64.99 117.21 64.82 121.37 64.84 C 121.60 64.84 122.06 64.83 122.29 64.82 C 123.13 64.82 124.82 64.81 125.67 64.81 C 125.31 66.09 124.94 67.36 124.57 68.64 C 121.82 68.81 119.06 68.97 116.32 69.16 C 115.72 70.09 115.12 71.02 114.52 71.96 C 112.60 72.16 110.60 72.11 108.77 72.79 C 107.13 74.06 105.92 75.77 104.61 77.36 L 104.04 77.27 C 103.51 77.20 102.45 77.05 101.92 76.97 C 103.38 75.20 104.85 73.42 106.30 71.63 C 101.60 68.13 95.60 67.37 89.94 66.88 C 82.53 66.30 74.42 67.39 68.70 72.53 C 67.92 72.49 66.38 72.40 65.61 72.35 C 70.59 66.66 78.18 64.66 85.27 63.09 Z" />
</g>
<g id="#f7c6bcff">
<path fill="#f7c6bc" opacity="1.00" d=" M 96.72 63.75 C 99.86 63.95 103.01 63.92 106.14 64.26 C 106.63 64.40 107.62 64.69 108.12 64.83 L 108.91 64.96 C 109.67 66.28 110.42 67.60 111.17 68.92 C 106.08 68.15 100.80 67.16 96.72 63.75 Z" />
</g>
<g id="#c3cab9ff">
<path fill="#c3cab9" opacity="1.00" d=" M 135.17 64.88 C 137.11 64.74 139.03 64.43 140.95 64.12 C 140.62 66.10 139.12 68.43 140.68 70.27 C 143.78 74.62 144.47 80.13 147.51 84.51 C 149.98 88.30 151.93 92.57 155.61 95.39 C 159.23 98.22 161.54 102.24 163.87 106.11 L 163.77 106.73 C 162.72 112.33 161.82 117.96 161.15 123.61 C 160.43 117.46 161.28 110.69 157.83 105.19 C 155.15 100.65 149.59 98.61 147.45 93.67 C 146.43 91.27 144.65 89.40 142.62 87.83 C 142.50 87.69 142.25 87.42 142.13 87.28 C 139.50 82.85 138.56 77.64 135.69 73.33 C 133.78 70.84 134.86 67.68 135.17 64.88 Z" />
</g>
<g id="#ebc8b9ff">
<path fill="#ebc8b9" opacity="1.00" d=" M 125.67 64.81 C 128.49 64.86 131.32 64.91 134.16 64.91 L 135.17 64.88 C 134.86 67.68 133.78 70.84 135.69 73.33 C 138.56 77.64 139.50 82.85 142.13 87.28 C 137.88 83.61 132.41 81.85 126.98 80.84 C 125.75 80.59 124.52 80.33 123.30 80.11 C 121.05 76.73 118.11 73.88 114.52 71.96 C 115.12 71.02 115.72 70.09 116.32 69.16 C 119.06 68.97 121.82 68.81 124.57 68.64 C 124.94 67.36 125.31 66.09 125.67 64.81 Z" />
</g>
<g id="#f7cabcff">
<path fill="#f7cabc" opacity="1.00" d=" M 68.70 72.53 C 74.42 67.39 82.53 66.30 89.94 66.88 C 95.60 67.37 101.60 68.13 106.30 71.63 C 104.85 73.42 103.38 75.20 101.92 76.97 L 101.12 76.86 C 94.05 75.68 86.97 74.53 79.85 73.74 C 76.15 73.18 72.43 72.71 68.70 72.53 Z" />
</g>
<g id="#54af6dff">
<path fill="#54af6d" opacity="1.00" d=" M 168.58 87.70 C 170.08 81.18 172.05 74.49 176.99 69.68 C 178.53 74.84 179.38 80.26 182.04 85.03 C 185.11 90.54 185.10 97.11 187.92 102.70 C 188.96 105.34 189.58 108.20 189.02 111.03 C 188.78 115.04 186.04 118.18 184.91 121.91 C 183.27 120.93 181.64 119.96 180.00 118.99 C 177.43 108.16 173.00 97.88 168.58 87.70 Z" />
<path fill="#54af6d" opacity="1.00" d=" M 163.87 106.11 C 164.78 101.21 166.30 96.47 167.51 91.64 C 172.41 101.22 175.24 111.64 178.25 121.92 C 177.43 123.03 176.61 124.15 175.79 125.27 C 173.95 123.55 172.66 121.36 172.39 118.83 C 169.67 118.96 167.31 117.71 165.29 115.99 C 165.29 112.84 164.51 109.77 163.77 106.73 L 163.87 106.11 Z" />
</g>
<g id="#7ea0acb7">
<path fill="#7ea0ac" opacity="0.72" d=" M 9.45 71.05 C 10.34 72.26 10.28 73.81 9.60 75.09 C 8.35 73.80 8.30 72.45 9.45 71.05 Z" />
</g>
<g id="#866960ff">
<path fill="#866960" opacity="1.00" d=" M 54.05 72.03 L 54.49 72.00 C 56.43 71.95 58.38 71.95 60.32 71.99 C 57.45 76.45 54.39 80.79 51.42 85.19 C 47.34 91.50 43.56 98.15 41.57 105.44 C 40.83 107.54 41.68 109.64 42.31 111.64 C 38.49 115.30 40.28 120.96 40.12 125.62 C 38.70 124.16 37.00 122.82 34.87 122.75 C 34.76 122.54 34.55 122.11 34.44 121.90 C 34.77 116.26 34.60 110.51 36.17 105.02 C 39.10 92.61 47.25 82.51 54.05 72.03 Z" />
</g>
<g id="#c76c66ff">
<path fill="#c76c66" opacity="1.00" d=" M 60.32 71.99 L 60.85 72.01 C 62.32 72.10 63.79 72.20 65.27 72.32 C 64.22 76.49 62.76 80.54 61.18 84.54 C 64.77 85.04 69.32 85.39 70.44 89.59 C 70.12 90.15 69.49 91.28 69.17 91.84 C 68.03 91.52 66.90 91.20 65.76 90.88 C 63.38 96.04 61.09 101.35 60.48 107.06 C 59.94 111.53 55.94 114.40 52.31 116.46 C 51.34 115.83 50.37 115.19 49.39 114.56 C 51.64 105.03 54.81 95.77 57.54 86.38 C 55.50 85.98 53.46 85.59 51.42 85.19 C 54.39 80.79 57.45 76.45 60.32 71.99 Z" />
</g>
<g id="#d4736bff">
<path fill="#d4736b" opacity="1.00" d=" M 65.27 72.32 L 65.61 72.35 C 66.38 72.40 67.92 72.49 68.70 72.53 C 72.43 72.71 76.15 73.18 79.85 73.74 C 76.72 76.89 74.90 80.94 73.11 84.93 C 72.27 86.51 71.35 88.05 70.44 89.59 C 69.32 85.39 64.77 85.04 61.18 84.54 C 62.76 80.54 64.22 76.49 65.27 72.32 Z" />
</g>
<g id="#fcccb9ff">
<path fill="#fcccb9" opacity="1.00" d=" M 108.77 72.79 C 110.60 72.11 112.60 72.16 114.52 71.96 C 118.11 73.88 121.05 76.73 123.30 80.11 C 121.33 79.75 119.35 79.44 117.37 79.20 C 113.09 78.77 108.86 78.01 104.61 77.36 C 105.92 75.77 107.13 74.06 108.77 72.79 Z" />
</g>
<g id="#d78c6cff">
<path fill="#d78c6c" opacity="1.00" d=" M 79.85 73.74 C 86.97 74.53 94.05 75.68 101.12 76.86 C 98.05 80.34 94.92 83.78 91.82 87.24 C 85.84 84.54 79.26 86.75 73.11 84.93 C 74.90 80.94 76.72 76.89 79.85 73.74 Z" />
</g>
<g id="#a17364ff">
<path fill="#a17364" opacity="1.00" d=" M 101.12 76.86 L 101.92 76.97 C 102.45 77.05 103.51 77.20 104.04 77.27 C 95.56 86.30 87.45 95.93 81.93 107.09 C 77.81 117.50 75.83 128.72 75.54 139.90 C 75.51 146.22 76.11 152.52 76.96 158.78 C 77.15 160.08 77.33 161.39 77.57 162.68 C 75.75 163.75 73.94 164.82 72.13 165.90 C 71.53 162.09 70.78 158.31 70.25 154.49 C 70.23 154.19 70.20 153.58 70.19 153.28 C 70.04 149.69 69.79 146.10 69.77 142.51 C 70.07 130.59 72.68 118.82 76.65 107.60 C 80.48 100.00 86.16 93.52 91.82 87.24 C 94.92 83.78 98.05 80.34 101.12 76.86 Z" />
</g>
<g id="#d98860ff">
<path fill="#d98860" opacity="1.00" d=" M 104.04 77.27 L 104.61 77.36 C 108.86 78.01 113.09 78.77 117.37 79.20 C 118.10 84.00 117.63 88.89 118.36 93.68 C 120.71 96.14 124.18 96.94 127.25 98.12 C 129.39 102.33 132.34 106.06 135.69 109.36 C 131.12 113.71 124.55 110.86 119.03 110.85 C 106.69 109.33 94.48 106.11 81.93 107.09 C 87.45 95.93 95.56 86.30 104.04 77.27 Z" />
</g>
<g id="#e2926cff">
<path fill="#e2926c" opacity="1.00" d=" M 117.37 79.20 C 119.35 79.44 121.33 79.75 123.30 80.11 C 124.52 80.33 125.75 80.59 126.98 80.84 C 126.20 80.87 124.65 80.93 123.87 80.97 C 124.60 86.75 125.79 92.48 127.25 98.12 C 124.18 96.94 120.71 96.14 118.36 93.68 C 117.63 88.89 118.10 84.00 117.37 79.20 Z" />
</g>
<g id="#c08d6cff">
<path fill="#c08d6c" opacity="1.00" d=" M 123.87 80.97 C 124.65 80.93 126.20 80.87 126.98 80.84 C 132.41 81.85 137.88 83.61 142.13 87.28 C 142.25 87.42 142.50 87.69 142.62 87.83 C 148.27 103.77 148.75 120.87 150.66 137.51 C 150.24 137.54 149.39 137.61 148.97 137.64 C 146.61 131.91 147.18 125.35 144.09 119.89 C 141.80 116.00 138.78 112.61 135.69 109.36 C 132.34 106.06 129.39 102.33 127.25 98.12 C 125.79 92.48 124.60 86.75 123.87 80.97 Z" />
</g>
<g id="#ba6964ff">
<path fill="#ba6964" opacity="1.00" d=" M 41.57 105.44 C 43.56 98.15 47.34 91.50 51.42 85.19 C 53.46 85.59 55.50 85.98 57.54 86.38 C 54.81 95.77 51.64 105.03 49.39 114.56 C 50.37 115.19 51.34 115.83 52.31 116.46 C 47.84 118.44 43.77 121.17 40.71 125.03 L 40.12 125.62 C 40.28 120.96 38.49 115.30 42.31 111.64 C 41.68 109.64 40.83 107.54 41.57 105.44 Z" />
</g>
<g id="#ce8467ff">
<path fill="#ce8467" opacity="1.00" d=" M 73.11 84.93 C 79.26 86.75 85.84 84.54 91.82 87.24 C 86.16 93.52 80.48 100.00 76.65 107.60 C 72.14 106.53 67.98 109.00 63.82 110.31 C 64.59 103.88 67.74 98.11 69.17 91.84 C 69.49 91.28 70.12 90.15 70.44 89.59 C 71.35 88.05 72.27 86.51 73.11 84.93 Z" />
</g>
<g id="#c46b6cff">
<path fill="#c46b6c" opacity="1.00" d=" M 203.72 91.48 C 205.64 89.13 207.64 86.84 209.73 84.64 C 213.97 94.56 216.41 105.23 217.01 116.00 C 217.66 131.04 214.42 146.01 208.86 159.93 L 208.57 159.87 C 204.99 159.02 201.42 158.14 197.78 157.55 L 197.92 157.27 C 208.00 136.99 209.13 113.25 203.72 91.48 Z" />
</g>
<g id="#eec9b9ff">
<path fill="#eec9b9" opacity="1.00" d=" M 142.62 87.83 C 144.65 89.40 146.43 91.27 147.45 93.67 C 149.59 98.61 155.15 100.65 157.83 105.19 C 161.28 110.69 160.43 117.46 161.15 123.61 C 161.13 124.10 161.08 125.08 161.06 125.57 C 160.11 132.55 159.71 139.59 158.82 146.58 C 157.18 145.20 155.77 143.56 154.87 141.61 C 153.52 141.06 152.16 140.52 150.81 139.99 C 150.77 139.37 150.69 138.13 150.66 137.51 C 148.75 120.87 148.27 103.77 142.62 87.83 Z" />
</g>
<g id="#ce716aff">
<path fill="#ce716a" opacity="1.00" d=" M 60.48 107.06 C 61.09 101.35 63.38 96.04 65.76 90.88 C 66.90 91.20 68.03 91.52 69.17 91.84 C 67.74 98.11 64.59 103.88 63.82 110.31 C 62.67 111.32 61.40 112.39 61.05 113.97 C 59.19 120.53 58.57 127.37 56.98 134.00 C 56.44 137.69 52.19 138.54 49.79 140.77 C 47.91 141.91 47.44 144.11 46.86 146.05 C 47.60 146.26 48.35 146.48 49.09 146.70 C 49.83 150.06 53.46 151.00 55.51 153.33 C 56.14 157.93 55.63 162.59 55.67 167.21 C 53.60 164.11 51.40 160.87 51.19 157.02 C 49.62 155.54 48.23 153.85 47.42 151.83 C 46.08 148.66 44.68 145.48 43.94 142.10 C 42.76 136.42 40.81 130.89 40.71 125.03 C 43.77 121.17 47.84 118.44 52.31 116.46 C 55.94 114.40 59.94 111.53 60.48 107.06 Z" />
</g>
<g id="#54a26dff">
<path fill="#54a26d" opacity="1.00" d=" M 187.92 102.70 C 191.71 106.81 193.55 112.39 193.74 117.90 C 193.23 124.93 188.67 130.79 187.32 137.63 C 186.14 143.43 183.27 148.64 180.65 153.89 C 179.29 153.52 177.90 153.22 176.52 152.98 C 178.48 150.49 181.12 148.55 182.87 145.90 C 184.75 136.85 182.50 127.69 180.00 118.99 C 181.64 119.96 183.27 120.93 184.91 121.91 C 186.04 118.18 188.78 115.04 189.02 111.03 C 189.58 108.20 188.96 105.34 187.92 102.70 Z" />
</g>
<g id="#d78a6cff">
<path fill="#d78a6c" opacity="1.00" d=" M 63.82 110.31 C 67.98 109.00 72.14 106.53 76.65 107.60 C 72.68 118.82 70.07 130.59 69.77 142.51 C 67.39 140.40 65.54 137.16 62.27 136.38 C 59.52 140.93 54.51 144.13 54.00 149.83 C 58.65 153.39 64.58 153.69 70.19 153.28 C 70.20 153.58 70.23 154.19 70.25 154.49 C 69.24 155.11 68.23 155.71 67.21 156.31 C 67.80 159.52 68.82 162.68 68.89 165.97 C 67.38 169.88 65.28 173.54 63.10 177.11 C 60.30 174.06 57.97 170.63 55.67 167.21 C 55.63 162.59 56.14 157.93 55.51 153.33 C 53.46 151.00 49.83 150.06 49.09 146.70 C 48.35 146.48 47.60 146.26 46.86 146.05 C 47.44 144.11 47.91 141.91 49.79 140.77 C 52.19 138.54 56.44 137.69 56.98 134.00 C 58.57 127.37 59.19 120.53 61.05 113.97 C 61.40 112.39 62.67 111.32 63.82 110.31 Z" />
</g>
<g id="#e29364ff">
<path fill="#e29364" opacity="1.00" d=" M 81.93 107.09 C 94.48 106.11 106.69 109.33 119.03 110.85 C 118.37 119.07 120.33 127.20 119.73 135.40 C 116.85 137.77 115.38 141.26 113.11 144.13 C 110.41 147.00 106.64 148.49 103.28 150.44 C 103.74 150.92 104.67 151.88 105.13 152.36 L 103.54 152.25 C 103.16 152.10 102.39 151.79 102.00 151.64 C 93.10 147.91 84.68 143.04 75.54 139.90 C 75.83 128.72 77.81 117.50 81.93 107.09 M 103.27 118.16 C 98.40 119.61 96.66 126.22 100.15 129.89 C 103.56 134.49 111.83 132.44 113.05 126.95 C 114.86 121.44 108.58 115.61 103.27 118.16 Z" />
</g>
<g id="#e2916cff">
<path fill="#e2916c" opacity="1.00" d=" M 135.69 109.36 C 138.78 112.61 141.80 116.00 144.09 119.89 C 147.18 125.35 146.61 131.91 148.97 137.64 C 149.39 137.61 150.24 137.54 150.66 137.51 C 150.69 138.13 150.77 139.37 150.81 139.99 C 150.85 143.66 150.76 147.33 150.93 151.00 C 143.99 149.95 136.95 150.49 129.98 149.90 C 123.22 148.90 119.83 141.61 119.73 135.40 C 120.33 127.20 118.37 119.07 119.03 110.85 C 124.55 110.86 131.12 113.71 135.69 109.36 Z" />
</g>
<g id="#fbf2f5ff">
<path fill="#fbf2f5" opacity="1.00" d=" M 227.51 108.28 C 227.93 109.55 228.38 110.82 228.76 112.11 C 228.78 119.63 230.72 127.01 230.40 134.52 C 230.65 134.55 231.16 134.61 231.42 134.63 C 231.62 145.69 234.53 157.38 230.09 168.02 C 227.53 171.73 223.29 173.79 219.77 176.46 C 211.08 181.91 202.47 187.54 193.43 192.41 C 202.87 182.78 212.59 173.33 220.55 162.39 C 224.57 156.47 226.21 149.17 225.62 142.09 C 224.74 130.81 224.76 119.32 227.51 108.28 Z" />
<path fill="#fbf2f5" opacity="1.00" d=" M 26.92 160.74 C 29.52 164.54 32.48 168.06 35.26 171.73 C 38.21 175.42 35.93 180.28 33.74 183.73 C 32.68 185.13 31.46 186.38 30.25 187.65 C 29.26 185.19 28.85 182.57 28.71 179.94 C 28.34 173.52 26.97 167.19 26.92 160.74 Z" />
</g>
<g id="#54a06dff">
<path fill="#54a06d" opacity="1.00" d=" M 165.29 115.99 C 167.31 117.71 169.67 118.96 172.39 118.83 C 172.66 121.36 173.95 123.55 175.79 125.27 C 176.61 124.15 177.43 123.03 178.25 121.92 C 180.35 128.37 182.03 135.39 179.96 142.08 C 177.50 138.88 174.62 136.06 171.80 133.19 C 167.42 128.62 164.97 122.34 165.29 115.99 Z" />
</g>
<g id="#e2aa7eff">
<path fill="#e2aa7e" opacity="1.00" d=" M 103.27 118.16 C 108.58 115.61 114.86 121.44 113.05 126.95 C 111.83 132.44 103.56 134.49 100.15 129.89 C 96.66 126.22 98.40 119.61 103.27 118.16 Z" />
</g>
<g id="#946f64ff">
<path fill="#946f64" opacity="1.00" d=" M 36.61 143.56 C 34.55 136.54 34.55 129.15 34.44 121.90 C 34.55 122.11 34.76 122.54 34.87 122.75 C 37.00 122.82 38.70 124.16 40.12 125.62 L 40.71 125.03 C 40.81 130.89 42.76 136.42 43.94 142.10 C 44.68 145.48 46.08 148.66 47.42 151.83 C 45.80 153.78 44.18 155.72 42.55 157.66 C 40.15 153.15 38.02 148.47 36.61 143.56 Z" />
</g>
<g id="#c2906cff">
<path fill="#c2906c" opacity="1.00" d=" M 161.06 125.57 C 164.11 131.63 167.79 137.57 173.35 141.65 C 176.97 144.27 176.48 149.60 174.15 152.93 C 172.84 154.94 171.34 156.82 169.93 158.76 C 167.79 156.80 165.94 154.50 164.98 151.72 C 162.88 150.41 160.80 149.06 158.74 147.70 C 158.76 147.42 158.80 146.86 158.82 146.58 C 159.71 139.59 160.11 132.55 161.06 125.57 Z" />
</g>
<g id="#80a3afba">
<path fill="#80a3af" opacity="0.73" d=" M 17.09 131.52 C 18.39 134.47 17.94 137.67 17.37 140.73 C 16.85 137.69 16.92 134.59 17.09 131.52 Z" />
</g>
<g id="#d8a768ff">
<path fill="#d8a768" opacity="1.00" d=" M 62.27 136.38 C 65.54 137.16 67.39 140.40 69.77 142.51 C 69.79 146.10 70.04 149.69 70.19 153.28 C 64.58 153.69 58.65 153.39 54.00 149.83 C 54.51 144.13 59.52 140.93 62.27 136.38 Z" />
</g>
<g id="#e2855dff">
<path fill="#e2855d" opacity="1.00" d=" M 113.11 144.13 C 115.38 141.26 116.85 137.77 119.73 135.40 C 119.83 141.61 123.22 148.90 129.98 149.90 C 136.95 150.49 143.99 149.95 150.93 151.00 C 151.00 152.97 151.04 154.94 151.05 156.91 C 145.69 154.40 140.00 152.09 134.00 151.94 C 128.99 152.04 124.05 153.10 119.04 153.19 C 114.38 153.46 109.77 152.56 105.13 152.36 C 104.67 151.88 103.74 150.92 103.28 150.44 C 106.64 148.49 110.41 147.00 113.11 144.13 Z" />
</g>
<g id="#7ea1adb9">
<path fill="#7ea1ad" opacity="0.73" d=" M 236.57 142.91 C 235.48 141.43 235.79 139.57 236.36 137.96 C 237.61 139.17 237.71 141.58 236.57 142.91 Z" />
</g>
<g id="#dbba64ff">
<path fill="#dbba64" opacity="1.00" d=" M 75.54 139.90 C 84.68 143.04 93.10 147.91 102.00 151.64 C 96.71 154.79 90.93 157.15 86.18 161.15 C 84.42 163.15 81.90 161.88 79.89 161.10 C 78.92 160.33 77.94 159.55 76.96 158.78 C 76.11 152.52 75.51 146.22 75.54 139.90 Z" />
</g>
<g id="#fcceb9ff">
<path fill="#fcceb9" opacity="1.00" d=" M 150.81 139.99 C 152.16 140.52 153.52 141.06 154.87 141.61 C 155.77 143.56 157.18 145.20 158.82 146.58 C 158.80 146.86 158.76 147.42 158.74 147.70 C 157.60 163.00 156.68 178.30 155.74 193.62 C 154.02 187.83 153.56 181.78 152.64 175.84 C 152.09 169.53 150.94 163.26 151.05 156.91 C 151.04 154.94 151.00 152.97 150.93 151.00 C 150.76 147.33 150.85 143.66 150.81 139.99 Z" />
</g>
<g id="#da955dff">
<path fill="#da955d" opacity="1.00" d=" M 158.74 147.70 C 160.80 149.06 162.88 150.41 164.98 151.72 C 165.94 154.50 167.79 156.80 169.93 158.76 C 168.83 160.54 168.12 162.52 167.42 164.48 C 171.05 164.35 175.02 164.34 178.03 161.98 C 180.53 160.16 181.92 157.30 183.55 154.76 L 183.78 154.37 C 184.43 155.30 185.08 156.22 185.73 157.14 C 181.81 167.26 175.86 176.53 168.31 184.32 C 166.42 186.31 163.81 187.99 163.37 190.91 C 157.03 193.49 150.47 195.45 143.89 197.34 C 143.23 191.04 141.87 184.79 141.99 178.43 C 145.27 176.27 148.99 174.37 151.13 170.95 C 151.38 169.10 149.51 167.84 148.19 166.91 C 140.83 162.60 133.31 158.41 125.20 155.69 C 121.77 154.43 118.09 154.85 114.55 155.23 C 110.75 154.79 107.03 153.83 103.54 152.25 L 105.13 152.36 C 109.77 152.56 114.38 153.46 119.04 153.19 C 124.05 153.10 128.99 152.04 134.00 151.94 C 140.00 152.09 145.69 154.40 151.05 156.91 C 150.94 163.26 152.09 169.53 152.64 175.84 C 153.56 181.78 154.02 187.83 155.74 193.62 C 156.68 178.30 157.60 163.00 158.74 147.70 Z" />
</g>
<g id="#a26c5dff">
<path fill="#a26c5d" opacity="1.00" d=" M 47.42 151.83 C 48.23 153.85 49.62 155.54 51.19 157.02 C 51.40 160.87 53.60 164.11 55.67 167.21 C 57.97 170.63 60.30 174.06 63.10 177.11 C 67.08 180.73 70.58 185.13 75.62 187.35 C 78.50 188.80 81.70 189.40 84.85 189.96 C 79.47 182.64 73.10 175.34 72.13 165.90 C 73.94 164.82 75.75 163.75 77.57 162.68 C 78.99 171.93 84.59 179.72 90.02 187.06 C 91.22 189.12 93.66 189.41 95.62 190.33 C 97.66 191.48 99.37 193.10 101.29 194.41 C 98.47 195.12 95.67 195.88 92.88 196.69 C 91.59 197.05 90.30 197.42 89.01 197.78 C 86.73 197.31 84.43 196.95 82.13 196.64 C 72.41 192.07 63.93 185.15 56.60 177.38 C 56.26 177.00 55.60 176.26 55.27 175.89 C 50.33 170.34 46.16 164.14 42.55 157.66 C 44.18 155.72 45.80 153.78 47.42 151.83 Z" />
</g>
<g id="#d3b95dff">
<path fill="#d3b95d" opacity="1.00" d=" M 86.18 161.15 C 90.93 157.15 96.71 154.79 102.00 151.64 C 102.39 151.79 103.16 152.10 103.54 152.25 C 107.03 153.83 110.75 154.79 114.55 155.23 C 122.75 158.18 131.60 160.89 137.87 167.26 C 135.95 170.08 134.38 173.14 133.24 176.36 C 121.10 177.48 109.05 174.62 97.39 171.53 C 92.37 170.38 88.12 167.38 83.74 164.82 C 82.49 163.55 81.23 162.28 79.89 161.10 C 81.90 161.88 84.42 163.15 86.18 161.15 Z" />
</g>
<g id="#51845dff">
<path fill="#51845d" opacity="1.00" d=" M 174.15 152.93 C 174.74 152.95 175.93 152.97 176.52 152.98 C 177.90 153.22 179.29 153.52 180.65 153.89 C 181.38 154.11 182.82 154.54 183.55 154.76 C 181.92 157.30 180.53 160.16 178.03 161.98 C 175.02 164.34 171.05 164.35 167.42 164.48 C 168.12 162.52 168.83 160.54 169.93 158.76 C 171.34 156.82 172.84 154.94 174.15 152.93 Z" />
</g>
<g id="#7ca1afb9">
<path fill="#7ca1af" opacity="0.73" d=" M 18.46 155.06 C 19.45 156.92 19.26 159.02 18.62 160.96 C 17.33 159.40 17.31 156.70 18.46 155.06 Z" />
</g>
<g id="#cf7f64ff">
<path fill="#cf7f64" opacity="1.00" d=" M 67.21 156.31 C 68.23 155.71 69.24 155.11 70.25 154.49 C 70.78 158.31 71.53 162.09 72.13 165.90 C 73.10 175.34 79.47 182.64 84.85 189.96 C 81.70 189.40 78.50 188.80 75.62 187.35 C 70.58 185.13 67.08 180.73 63.10 177.11 C 65.28 173.54 67.38 169.88 68.89 165.97 C 68.82 162.68 67.80 159.52 67.21 156.31 Z" />
</g>
<g id="#d5a85dff">
<path fill="#d5a85d" opacity="1.00" d=" M 114.55 155.23 C 118.09 154.85 121.77 154.43 125.20 155.69 C 133.31 158.41 140.83 162.60 148.19 166.91 C 149.51 167.84 151.38 169.10 151.13 170.95 C 148.99 174.37 145.27 176.27 141.99 178.43 L 141.62 178.66 C 140.91 174.74 140.66 170.39 137.87 167.26 C 131.60 160.89 122.75 158.18 114.55 155.23 Z" />
</g>
<g id="#daa35dff">
<path fill="#daa35d" opacity="1.00" d=" M 183.78 154.37 C 188.41 155.71 193.10 156.91 197.92 157.27 L 197.78 157.55 C 190.82 171.09 180.68 183.92 166.20 189.79 C 165.49 190.07 164.08 190.63 163.37 190.91 C 163.81 187.99 166.42 186.31 168.31 184.32 C 175.86 176.53 181.81 167.26 185.73 157.14 C 185.08 156.22 184.43 155.30 183.78 154.37 Z" />
</g>
<g id="#c0585dff">
<path fill="#c0585d" opacity="1.00" d=" M 166.20 189.79 C 180.68 183.92 190.82 171.09 197.78 157.55 C 201.42 158.14 204.99 159.02 208.57 159.87 C 202.70 174.89 191.52 187.72 177.38 195.47 C 171.40 198.96 164.89 201.43 158.34 203.59 C 160.28 198.61 164.38 194.85 166.20 189.79 Z" />
</g>
<g id="#da8e5dff">
<path fill="#da8e5d" opacity="1.00" d=" M 76.96 158.78 C 77.94 159.55 78.92 160.33 79.89 161.10 C 81.23 162.28 82.49 163.55 83.74 164.82 C 90.84 172.67 99.27 179.88 109.45 183.33 C 115.61 185.13 121.96 186.22 128.27 187.35 C 126.63 190.04 124.31 192.53 121.11 193.24 C 115.33 194.64 109.26 194.02 103.48 195.50 C 102.74 195.16 102.00 194.80 101.29 194.41 C 99.37 193.10 97.66 191.48 95.62 190.33 C 93.66 189.41 91.22 189.12 90.02 187.06 C 84.59 179.72 78.99 171.93 77.57 162.68 C 77.33 161.39 77.15 160.08 76.96 158.78 Z" />
</g>
<g id="#93b8c4e2">
<path fill="#93b8c4" opacity="0.89" d=" M 208.57 159.87 L 208.86 159.93 C 212.79 160.53 216.78 161.02 220.55 162.39 C 212.59 173.33 202.87 182.78 193.43 192.41 C 202.47 187.54 211.08 181.91 219.77 176.46 C 219.38 178.34 217.67 179.28 216.19 180.23 C 197.67 192.78 178.64 204.78 158.35 214.30 C 150.80 216.23 142.84 214.76 135.25 213.65 C 135.43 213.32 135.81 212.65 136.00 212.32 C 138.70 212.05 141.38 211.62 144.05 211.14 C 144.28 209.48 144.49 207.83 144.66 206.17 L 144.94 206.14 C 149.48 205.79 154.00 205.04 158.34 203.59 C 164.89 201.43 171.40 198.96 177.38 195.47 C 191.52 187.72 202.70 174.89 208.57 159.87 Z" />
<path fill="#93b8c4" opacity="0.89" d=" M 56.60 177.38 C 63.93 185.15 72.41 192.07 82.13 196.64 C 78.17 196.60 74.18 196.94 70.40 198.13 C 71.70 199.74 73.33 201.05 75.28 201.78 C 68.53 201.44 61.83 200.41 55.08 200.00 C 47.86 199.92 40.62 199.14 33.63 197.34 C 31.60 196.94 30.02 195.64 28.75 194.07 C 35.54 184.98 48.32 184.55 56.60 177.38 Z" />
</g>
<g id="#7ca5b3bf">
<path fill="#7ca5b3" opacity="0.75" d=" M 238.35 171.67 C 238.04 168.25 238.12 164.82 238.43 161.41 C 239.23 164.77 239.42 168.34 238.35 171.67 Z" />
</g>
<g id="#d6a15dff">
<path fill="#d6a15d" opacity="1.00" d=" M 83.74 164.82 C 88.12 167.38 92.37 170.38 97.39 171.53 C 109.05 174.62 121.10 177.48 133.24 176.36 C 132.33 178.78 131.42 181.19 130.38 183.55 C 129.73 184.85 129.01 186.11 128.27 187.35 C 121.96 186.22 115.61 185.13 109.45 183.33 C 99.27 179.88 90.84 172.67 83.74 164.82 Z" />
</g>
<g id="#edbb6eff">
<path fill="#edbb6e" opacity="1.00" d=" M 133.24 176.36 C 134.38 173.14 135.95 170.08 137.87 167.26 C 140.66 170.39 140.91 174.74 141.62 178.66 C 138.23 181.01 134.56 183.11 130.38 183.55 C 131.42 181.19 132.33 178.78 133.24 176.36 Z" />
</g>
<g id="#f1a36eff">
<path fill="#f1a36e" opacity="1.00" d=" M 141.62 178.66 L 141.99 178.43 C 141.87 184.79 143.23 191.04 143.89 197.34 C 138.45 198.76 132.91 199.91 127.27 200.07 C 119.17 200.01 110.93 198.82 103.48 195.50 C 109.26 194.02 115.33 194.64 121.11 193.24 C 124.31 192.53 126.63 190.04 128.27 187.35 C 129.01 186.11 129.73 184.85 130.38 183.55 C 134.56 183.11 138.23 181.01 141.62 178.66 Z" />
</g>
<g id="#b75f5dff">
<path fill="#b75f5d" opacity="1.00" d=" M 163.37 190.91 C 164.08 190.63 165.49 190.07 166.20 189.79 C 164.38 194.85 160.28 198.61 158.34 203.59 C 154.00 205.04 149.48 205.79 144.94 206.14 C 144.54 203.21 144.19 200.28 143.89 197.34 C 150.47 195.45 157.03 193.49 163.37 190.91 Z" />
</g>
<g id="#bd816eff">
<path fill="#bd816e" opacity="1.00" d=" M 101.29 194.41 C 102.00 194.80 102.74 195.16 103.48 195.50 C 110.93 198.82 119.17 200.01 127.27 200.07 C 125.81 202.58 123.98 204.86 121.61 206.56 C 111.47 205.71 100.89 203.35 92.88 196.69 C 95.67 195.88 98.47 195.12 101.29 194.41 Z" />
</g>
<g id="#d8e4eaf5">
<path fill="#d8e4ea" opacity="0.96" d=" M 70.40 198.13 C 74.18 196.94 78.17 196.60 82.13 196.64 C 84.43 196.95 86.73 197.31 89.01 197.78 C 90.30 197.42 91.59 197.05 92.88 196.69 C 100.89 203.35 111.47 205.71 121.61 206.56 C 129.25 207.29 137.06 207.41 144.66 206.17 C 144.49 207.83 144.28 209.48 144.05 211.14 C 141.38 211.62 138.70 212.05 136.00 212.32 C 126.53 213.08 117.22 210.64 107.98 208.92 C 97.09 206.53 86.04 204.78 75.28 201.78 C 73.33 201.05 71.70 199.74 70.40 198.13 Z" />
</g>
<g id="#c8796eff">
<path fill="#c8796e" opacity="1.00" d=" M 127.27 200.07 C 132.91 199.91 138.45 198.76 143.89 197.34 C 144.19 200.28 144.54 203.21 144.94 206.14 L 144.66 206.17 C 137.06 207.41 129.25 207.29 121.61 206.56 C 123.98 204.86 125.81 202.58 127.27 200.07 Z" />
</g>
</svg>
