<?xml version="1.0" encoding="UTF-8" ?>
<!DOCTYPE svg PUBLIC "-//W3C//DTD SVG 1.1//EN" "http://www.w3.org/Graphics/SVG/1.1/DTD/svg11.dtd">
<svg width="128pt" height="128pt" viewBox="0 0 128 128" version="1.1" xmlns="http://www.w3.org/2000/svg">
<g id="#000000ff">
<path fill="#000000" opacity="1.00" d=" M 59.55 1.69 C 60.41 1.44 61.26 1.21 62.13 0.99 C 64.31 3.09 66.73 4.94 68.93 7.02 C 71.66 9.59 73.75 12.76 76.59 15.22 C 76.99 15.23 77.80 15.25 78.21 15.26 C 78.30 15.34 78.48 15.50 78.57 15.58 C 78.48 15.50 78.30 15.34 78.21 15.26 C 80.17 10.53 76.09 6.41 74.88 2.12 C 80.65 5.81 85.26 10.96 89.62 16.17 C 92.80 21.16 94.31 27.18 94.64 33.04 C 94.85 38.31 91.01 43.05 85.73 43.70 C 87.79 48.41 91.60 51.93 94.55 56.04 C 96.91 60.01 95.10 64.73 92.62 68.16 C 93.86 69.15 95.30 69.95 96.26 71.24 C 96.99 73.56 95.73 75.66 94.21 77.31 C 96.45 81.68 100.23 84.93 102.87 89.02 C 102.93 90.76 101.27 91.86 99.77 92.19 C 96.23 92.94 92.59 92.82 89.00 92.95 C 88.80 93.56 88.39 94.77 88.18 95.38 C 85.16 98.09 81.61 100.23 79.14 103.52 C 82.55 107.35 83.66 113.07 88.41 115.64 C 90.77 119.82 92.86 124.23 95.94 128.00 L 95.29 128.00 C 92.93 124.59 91.14 120.73 87.96 117.95 C 87.79 117.55 87.44 116.75 87.27 116.34 C 87.44 116.75 87.79 117.55 87.96 117.95 C 88.36 121.34 88.90 124.73 89.90 128.00 L 89.52 128.00 C 87.53 119.51 84.44 111.15 79.00 104.23 C 77.89 106.58 75.95 108.83 75.84 111.48 C 77.42 116.86 78.51 122.38 78.76 128.00 L 77.95 128.00 C 77.83 122.56 76.71 117.21 75.32 111.97 C 73.88 113.47 73.44 116.55 70.93 116.65 C 63.05 117.97 54.95 115.39 48.10 111.57 C 49.86 117.25 52.20 122.74 54.97 128.00 L 54.12 128.00 C 49.69 119.06 44.56 109.12 46.92 98.86 C 46.86 98.16 46.74 96.76 46.69 96.07 C 42.42 99.32 39.31 104.01 37.83 109.14 C 37.44 115.41 37.84 121.72 37.59 128.00 L 37.33 128.00 C 37.52 121.56 37.28 115.13 37.13 108.70 C 34.60 109.75 32.17 111.06 30.02 112.76 C 23.84 117.55 17.50 122.20 12.22 128.00 L 11.10 128.00 C 17.80 121.68 24.68 115.47 32.47 110.49 C 34.61 109.05 36.98 107.73 38.42 105.50 C 40.38 102.52 41.83 99.07 44.79 96.89 C 45.56 95.98 47.20 95.42 47.06 94.01 C 47.00 90.13 46.63 85.98 44.58 82.59 C 41.10 80.76 38.22 78.19 35.77 75.15 C 30.03 72.67 24.10 69.44 20.93 63.79 C 17.75 57.21 20.59 50.03 23.05 43.74 C 19.65 42.42 16.29 40.99 13.04 39.35 C 16.19 37.03 19.82 35.50 23.01 33.24 C 22.95 29.52 20.03 26.45 18.80 23.02 C 22.45 25.12 26.19 27.07 30.21 28.40 C 33.77 24.67 36.98 20.24 41.65 17.83 C 49.54 16.84 57.64 17.39 65.35 19.41 C 64.11 13.32 62.75 7.11 59.55 1.69 M 60.72 1.72 C 62.84 7.73 65.38 13.70 65.87 20.13 C 58.08 18.21 49.79 16.38 41.85 18.49 C 36.94 20.78 33.41 25.18 30.15 29.37 C 26.90 27.89 23.71 26.30 20.43 24.88 C 21.54 27.88 23.48 30.66 23.59 33.96 C 20.20 35.51 16.80 37.06 13.75 39.23 C 17.11 40.59 20.42 42.13 23.89 43.20 C 21.17 49.70 18.30 57.52 21.80 64.28 C 25.04 69.16 30.12 72.95 35.92 74.09 C 36.46 72.05 36.31 69.58 38.03 68.07 C 39.61 66.15 42.13 65.66 44.48 65.51 C 47.10 67.63 48.75 70.60 50.85 73.17 C 52.26 64.98 49.34 56.80 45.21 49.82 C 44.48 48.78 43.88 47.29 42.36 47.24 C 42.01 46.07 41.69 44.88 41.37 43.70 C 40.58 43.40 39.79 43.10 39.01 42.79 C 40.46 42.70 41.91 42.63 43.36 42.57 C 43.96 43.30 44.56 44.02 45.17 44.75 C 46.67 44.72 48.16 44.72 49.66 44.72 C 48.48 41.02 45.43 38.51 42.75 35.90 C 48.79 33.61 55.04 36.43 61.04 37.43 C 69.41 38.90 77.61 41.23 86.01 42.50 C 90.44 43.29 93.53 38.81 94.04 34.91 C 94.54 29.97 93.00 25.08 91.38 20.47 C 89.92 16.05 86.14 13.11 83.26 9.64 C 81.15 7.10 78.55 5.02 75.84 3.16 C 78.15 9.37 81.84 15.69 80.59 22.59 C 75.22 14.70 69.68 5.85 60.72 1.72 M 43.93 35.91 C 46.31 39.00 50.36 41.47 49.85 45.91 C 47.45 45.65 45.09 45.23 42.75 44.70 C 48.26 53.54 54.04 64.02 50.95 74.80 C 48.94 72.11 47.56 68.90 44.99 66.67 C 41.95 65.41 38.37 67.39 37.25 70.33 C 34.95 75.29 40.09 81.63 45.38 80.90 C 45.57 83.73 47.15 86.23 47.41 89.04 C 47.75 93.75 47.98 98.51 47.35 103.21 C 47.15 105.48 46.78 107.95 47.72 110.10 C 52.19 114.05 58.29 115.40 64.04 116.26 C 66.77 116.37 69.86 116.86 72.33 115.43 C 76.18 110.04 77.19 102.45 83.17 98.77 C 84.87 97.23 88.29 96.17 87.84 93.35 C 83.39 91.80 78.52 92.79 73.99 93.51 C 79.89 90.77 86.71 92.89 92.99 92.31 C 96.06 91.80 99.92 92.84 102.20 90.21 C 102.03 86.66 98.50 84.08 95.57 82.46 C 95.06 80.71 94.62 78.93 93.84 77.27 C 90.85 77.44 87.85 77.66 84.85 77.56 C 88.32 76.40 92.39 77.69 95.48 75.42 C 95.90 73.88 96.33 72.01 95.44 70.58 C 92.38 67.95 88.15 69.40 84.65 68.16 C 82.64 66.85 80.87 65.22 78.98 63.76 C 78.06 65.13 77.15 66.51 76.19 67.86 C 76.89 66.18 77.59 64.50 78.06 62.73 C 70.84 61.56 63.14 61.65 56.39 64.76 C 56.76 65.56 57.49 67.16 57.85 67.95 C 55.40 65.40 54.84 61.67 54.80 58.27 C 55.41 57.89 56.02 57.50 56.62 57.11 C 55.63 58.53 55.18 60.12 55.28 61.90 C 62.43 58.32 70.64 58.22 78.40 59.27 C 77.08 56.58 75.24 54.23 73.40 51.88 C 75.97 53.64 77.58 56.35 78.80 59.15 C 84.19 57.87 89.70 57.44 95.22 57.93 C 93.88 54.82 91.23 52.08 87.68 51.80 C 88.36 51.68 89.72 51.42 90.40 51.30 C 88.47 48.50 85.77 46.30 84.52 43.05 C 74.26 40.63 63.87 38.66 53.57 36.39 C 50.40 35.72 47.15 35.25 43.93 35.91 M 42.14 44.21 C 42.29 44.33 42.60 44.57 42.75 44.70 C 42.60 44.57 42.29 44.33 42.14 44.21 C 41.66 43.67 41.66 43.67 42.14 44.21 M 78.75 59.92 C 78.63 60.55 78.38 61.83 78.25 62.47 C 81.89 61.29 85.70 60.66 89.52 60.63 L 89.46 58.14 C 85.86 58.50 82.24 58.91 78.75 59.92 M 91.00 60.78 C 92.39 60.82 93.77 60.85 95.15 60.88 C 95.01 60.27 94.73 59.03 94.59 58.42 C 92.62 58.40 90.14 57.97 91.00 60.78 M 62.20 60.09 C 60.37 60.91 57.13 60.67 56.69 63.10 C 60.18 63.39 63.52 61.51 67.06 61.41 C 67.54 58.15 63.95 59.88 62.20 60.09 M 68.24 59.56 C 68.53 60.00 69.13 60.89 69.43 61.33 C 72.26 61.46 75.11 61.48 77.86 62.24 C 77.75 61.40 77.63 60.57 77.52 59.73 C 74.43 59.49 71.32 59.11 68.24 59.56 M 78.81 62.85 C 81.96 65.08 84.70 68.99 89.08 68.24 C 92.79 68.71 94.82 64.62 95.08 61.50 C 89.63 61.14 84.07 61.19 78.81 62.85 Z" />
<path fill="#000000" opacity="1.00" d=" M 40.58 69.57 C 43.02 69.79 45.95 70.31 46.79 72.99 C 45.79 72.14 44.78 71.31 43.74 70.51 C 41.16 71.22 42.22 74.27 42.60 76.15 C 43.83 76.70 45.05 77.26 46.24 77.88 C 42.63 77.97 40.30 74.57 41.75 71.13 C 40.70 71.69 39.66 72.25 38.61 72.80 C 39.24 71.70 39.91 70.64 40.58 69.57 Z" />
</g>
<g id="#ea7117ff">
<path fill="#ea7117" opacity="1.00" d=" M 60.72 1.72 C 69.68 5.85 75.22 14.70 80.59 22.59 C 81.84 15.69 78.15 9.37 75.84 3.16 C 78.55 5.02 81.15 7.10 83.26 9.64 C 86.14 13.11 89.92 16.05 91.38 20.47 C 93.00 25.08 94.54 29.97 94.04 34.91 C 93.53 38.81 90.44 43.29 86.01 42.50 C 77.61 41.23 69.41 38.90 61.04 37.43 C 55.04 36.43 48.79 33.61 42.75 35.90 C 45.43 38.51 48.48 41.02 49.66 44.72 C 48.16 44.72 46.67 44.72 45.17 44.75 C 44.56 44.02 43.96 43.30 43.36 42.57 C 41.91 42.63 40.46 42.70 39.01 42.79 C 39.79 43.10 40.58 43.40 41.37 43.70 C 41.69 44.88 42.01 46.07 42.36 47.24 C 43.88 47.29 44.48 48.78 45.21 49.82 C 49.34 56.80 52.26 64.98 50.85 73.17 C 48.75 70.60 47.10 67.63 44.48 65.51 C 42.13 65.66 39.61 66.15 38.03 68.07 C 36.31 69.58 36.46 72.05 35.92 74.09 C 30.12 72.95 25.04 69.16 21.80 64.28 C 18.30 57.52 21.17 49.70 23.89 43.20 C 20.42 42.13 17.11 40.59 13.75 39.23 C 16.80 37.06 20.20 35.51 23.59 33.96 C 23.48 30.66 21.54 27.88 20.43 24.88 C 23.71 26.30 26.90 27.89 30.15 29.37 C 33.41 25.18 36.94 20.78 41.85 18.49 C 49.79 16.38 58.08 18.21 65.87 20.13 C 65.38 13.70 62.84 7.73 60.72 1.72 Z" />
</g>
<g id="#feb692ff">
<path fill="#feb692" opacity="1.00" d=" M 43.93 35.91 C 47.15 35.25 50.40 35.72 53.57 36.39 C 63.87 38.66 74.26 40.63 84.52 43.05 C 85.77 46.30 88.47 48.50 90.40 51.30 C 89.72 51.42 88.36 51.68 87.68 51.80 C 91.23 52.08 93.88 54.82 95.22 57.93 C 89.70 57.44 84.19 57.87 78.80 59.15 C 77.58 56.35 75.97 53.64 73.40 51.88 C 75.24 54.23 77.08 56.58 78.40 59.27 C 70.64 58.22 62.43 58.32 55.28 61.90 C 55.18 60.12 55.63 58.53 56.62 57.11 C 56.02 57.50 55.41 57.89 54.80 58.27 C 54.84 61.67 55.40 65.40 57.85 67.95 C 57.49 67.16 56.76 65.56 56.39 64.76 C 63.14 61.65 70.84 61.56 78.06 62.73 C 77.59 64.50 76.89 66.18 76.19 67.86 C 77.15 66.51 78.06 65.13 78.98 63.76 C 80.87 65.22 82.64 66.85 84.65 68.16 C 88.15 69.40 92.38 67.95 95.44 70.58 C 96.33 72.01 95.90 73.88 95.48 75.42 C 92.39 77.69 88.32 76.40 84.85 77.56 C 87.85 77.66 90.85 77.44 93.84 77.27 C 94.62 78.93 95.06 80.71 95.57 82.46 C 98.50 84.08 102.03 86.66 102.20 90.21 C 99.92 92.84 96.06 91.80 92.99 92.31 C 86.71 92.89 79.89 90.77 73.99 93.51 C 78.52 92.79 83.39 91.80 87.84 93.35 C 88.29 96.17 84.87 97.23 83.17 98.77 C 77.19 102.45 76.18 110.04 72.33 115.43 C 69.86 116.86 66.77 116.37 64.04 116.26 C 58.29 115.40 52.19 114.05 47.72 110.10 C 46.78 107.95 47.15 105.48 47.35 103.21 C 47.98 98.51 47.75 93.75 47.41 89.04 C 47.15 86.23 45.57 83.73 45.38 80.90 C 40.09 81.63 34.95 75.29 37.25 70.33 C 38.37 67.39 41.95 65.41 44.99 66.67 C 47.56 68.90 48.94 72.11 50.95 74.80 C 54.04 64.02 48.26 53.54 42.75 44.70 C 45.09 45.23 47.45 45.65 49.85 45.91 C 50.36 41.47 46.31 39.00 43.93 35.91 M 40.58 69.57 C 39.91 70.64 39.24 71.70 38.61 72.80 C 39.66 72.25 40.70 71.69 41.75 71.13 C 40.30 74.57 42.63 77.97 46.24 77.88 C 45.05 77.26 43.83 76.70 42.60 76.15 C 42.22 74.27 41.16 71.22 43.74 70.51 C 44.78 71.31 45.79 72.14 46.79 72.99 C 45.95 70.31 43.02 69.79 40.58 69.57 Z" />
<path fill="#feb692" opacity="1.00" d=" M 42.14 44.21 C 41.66 43.67 41.66 43.67 42.14 44.21 Z" />
<path fill="#feb692" opacity="1.00" d=" M 42.14 44.21 C 42.29 44.33 42.60 44.57 42.75 44.70 C 42.60 44.57 42.29 44.33 42.14 44.21 Z" />
<path fill="#feb692" opacity="1.00" d=" M 78.81 62.85 C 84.07 61.19 89.63 61.14 95.08 61.50 C 94.82 64.62 92.79 68.71 89.08 68.24 C 84.70 68.99 81.96 65.08 78.81 62.85 Z" />
</g>
<g id="#f6f6f6ff">
<path fill="#f6f6f6" opacity="1.00" d=" M 78.75 59.92 C 82.24 58.91 85.86 58.50 89.46 58.14 L 89.52 60.63 C 85.70 60.66 81.89 61.29 78.25 62.47 C 78.38 61.83 78.63 60.55 78.75 59.92 Z" />
<path fill="#f6f6f6" opacity="1.00" d=" M 91.00 60.78 C 90.14 57.97 92.62 58.40 94.59 58.42 C 94.73 59.03 95.01 60.27 95.15 60.88 C 93.77 60.85 92.39 60.82 91.00 60.78 Z" />
<path fill="#f6f6f6" opacity="1.00" d=" M 62.20 60.09 C 63.95 59.88 67.54 58.15 67.06 61.41 C 63.52 61.51 60.18 63.39 56.69 63.10 C 57.13 60.67 60.37 60.91 62.20 60.09 Z" />
<path fill="#f6f6f6" opacity="1.00" d=" M 68.24 59.56 C 71.32 59.11 74.43 59.49 77.52 59.73 C 77.63 60.57 77.75 61.40 77.86 62.24 C 75.11 61.48 72.26 61.46 69.43 61.33 C 69.13 60.89 68.53 60.00 68.24 59.56 Z" />
<path fill="#f6f6f6" opacity="1.00" d=" M 54.97 128.00 C 52.20 122.74 49.86 117.25 48.10 111.57 C 54.95 115.39 63.05 117.97 70.93 116.65 C 73.44 116.55 73.88 113.47 75.32 111.97 C 76.71 117.21 77.83 122.56 77.95 128.00 L 54.97 128.00 Z" />
</g>
<g id="#ab2426ff">
<path fill="#ab2426" opacity="1.00" d=" M 46.69 96.07 C 46.74 96.76 46.86 98.16 46.92 98.86 C 44.56 109.12 49.69 119.06 54.12 128.00 L 37.59 128.00 C 37.84 121.72 37.44 115.41 37.83 109.14 C 39.31 104.01 42.42 99.32 46.69 96.07 Z" />
<path fill="#ab2426" opacity="1.00" d=" M 79.00 104.23 C 84.44 111.15 87.53 119.51 89.52 128.00 L 78.76 128.00 C 78.51 122.38 77.42 116.86 75.84 111.48 C 75.95 108.83 77.89 106.58 79.00 104.23 Z" />
<path fill="#ab2426" opacity="1.00" d=" M 30.02 112.76 C 32.17 111.06 34.60 109.75 37.13 108.70 C 37.28 115.13 37.52 121.56 37.33 128.00 L 12.22 128.00 C 17.50 122.20 23.84 117.55 30.02 112.76 Z" />
<path fill="#ab2426" opacity="1.00" d=" M 87.27 116.34 C 87.44 116.75 87.79 117.55 87.96 117.95 C 87.79 117.55 87.44 116.75 87.27 116.34 Z" />
<path fill="#ab2426" opacity="1.00" d=" M 87.96 117.95 C 91.14 120.73 92.93 124.59 95.29 128.00 L 89.90 128.00 C 88.90 124.73 88.36 121.34 87.96 117.95 Z" />
</g>
</svg>
