<?xml version="1.0" encoding="UTF-8" ?>
<!DOCTYPE svg PUBLIC "-//W3C//DTD SVG 1.1//EN" "http://www.w3.org/Graphics/SVG/1.1/DTD/svg11.dtd">
<svg width="502pt" height="301pt" viewBox="0 0 502 301" version="1.1" xmlns="http://www.w3.org/2000/svg">
<g id="#fefefeff">
</g>
<g id="#cd0000ff">
<path fill="#cd0000" opacity="1.00" d=" M 138.00 32.51 C 159.65 29.71 182.53 32.90 203.04 23.95 C 205.32 22.60 208.82 24.01 208.63 26.90 C 209.87 36.61 211.36 46.31 212.38 56.05 C 210.72 59.71 207.25 62.17 204.12 64.53 C 208.70 63.89 213.94 65.27 215.98 69.82 C 219.62 61.20 223.47 52.66 227.10 44.04 C 227.78 42.64 228.33 40.76 230.08 40.41 C 234.04 39.58 238.06 39.02 242.07 38.49 C 243.93 38.16 246.52 38.86 246.64 41.11 C 247.16 46.49 246.99 51.91 247.36 57.30 C 252.32 57.91 257.00 61.49 257.07 66.83 C 260.17 67.02 263.95 67.83 265.27 71.05 C 265.73 74.72 265.31 78.43 265.38 82.12 C 270.39 75.07 274.45 67.41 279.25 60.22 C 285.28 50.83 291.31 41.13 299.94 33.88 C 304.89 29.64 311.52 26.92 318.10 28.06 C 319.88 28.33 321.32 30.10 320.87 31.92 C 319.57 40.97 318.23 50.01 316.92 59.05 C 316.69 61.09 315.66 62.88 314.79 64.70 C 316.43 65.68 317.84 66.97 318.94 68.55 C 321.59 68.20 324.72 68.27 326.60 70.50 C 327.99 72.02 327.87 74.15 327.83 76.06 C 331.71 70.50 336.97 64.02 344.45 64.36 C 348.37 61.12 354.28 62.13 357.09 66.30 C 357.92 65.48 358.58 64.23 359.90 64.15 C 363.56 63.52 367.27 62.80 371.00 62.85 C 372.80 62.90 373.62 64.74 374.64 65.93 C 375.05 64.53 375.03 62.42 376.76 61.94 C 380.42 61.01 384.22 60.65 387.97 60.30 C 390.06 60.12 391.36 61.87 392.29 63.46 C 392.86 62.10 392.96 60.28 394.44 59.54 C 398.45 58.13 403.01 58.90 406.84 56.85 C 409.33 55.50 412.27 54.86 415.04 55.72 C 419.04 56.73 421.61 60.48 422.66 64.27 C 426.27 58.44 431.48 53.06 438.49 51.75 C 441.47 45.31 444.38 38.83 447.45 32.43 C 447.96 30.94 449.62 30.74 450.95 30.51 C 453.96 30.07 456.98 29.57 460.03 29.40 C 461.82 29.55 464.06 30.89 463.83 32.94 C 462.17 42.48 459.92 51.95 459.08 61.61 L 457.61 62.08 C 457.87 62.21 458.41 62.47 458.67 62.60 C 459.46 61.44 460.13 60.12 461.30 59.27 C 465.16 57.05 470.62 60.64 470.49 64.89 C 467.34 73.89 463.78 82.82 458.63 90.89 C 463.77 89.83 468.85 88.50 474.03 87.60 C 476.91 86.95 480.09 89.94 478.78 92.87 C 472.53 120.29 466.21 147.70 459.98 175.12 C 459.28 178.90 456.13 181.45 454.02 184.46 C 457.51 186.36 460.43 189.82 460.22 194.00 C 460.38 200.97 454.14 205.34 450.38 210.42 C 446.01 215.01 442.71 220.76 437.43 224.39 C 432.01 227.53 424.21 228.17 419.39 223.60 C 415.80 220.22 415.83 214.35 418.53 210.44 C 421.02 206.70 423.73 203.10 426.28 199.40 C 424.90 197.41 425.22 195.07 425.75 192.88 C 420.89 199.99 416.11 207.17 411.16 214.22 C 405.47 222.11 393.17 226.24 384.89 219.94 C 378.63 227.17 366.75 230.89 358.59 224.62 C 353.40 230.69 344.87 234.25 336.98 232.05 C 332.67 230.80 330.06 226.89 328.50 222.93 C 322.00 236.09 311.79 248.14 298.25 254.36 C 286.06 259.99 270.36 255.40 263.11 244.10 C 256.39 234.69 256.93 222.68 256.73 211.69 C 252.50 218.51 248.92 226.53 241.42 230.40 C 236.48 233.52 230.00 232.65 225.44 229.24 C 220.21 233.96 213.13 237.07 205.99 236.11 C 202.83 235.78 200.20 233.86 197.86 231.86 C 193.81 236.75 187.67 240.68 181.07 239.56 C 176.98 238.99 174.00 235.72 172.42 232.10 C 170.66 235.92 170.59 242.66 165.07 242.82 C 160.14 243.29 155.19 245.10 150.23 244.05 C 145.47 246.30 139.18 247.74 134.64 244.30 C 129.14 238.59 126.34 230.63 120.16 225.52 C 115.79 238.61 110.68 251.95 101.30 262.34 C 91.64 273.16 76.62 279.78 62.07 277.53 C 54.09 276.41 48.33 270.39 42.07 265.93 C 37.81 262.54 33.17 259.60 29.22 255.84 C 21.75 248.32 21.30 235.99 25.90 226.85 C 29.41 219.46 37.97 215.12 46.02 216.46 C 50.32 211.89 56.75 209.56 62.94 211.07 C 58.82 206.53 54.67 202.01 50.64 197.39 C 46.53 192.42 46.77 185.38 48.32 179.47 C 50.52 171.79 55.17 165.03 60.50 159.18 C 55.37 152.11 50.15 145.11 44.94 138.10 C 37.79 128.87 41.76 113.26 52.68 108.86 C 55.70 107.42 59.08 107.40 62.35 107.32 C 65.46 104.98 68.79 102.86 72.75 102.35 C 69.51 95.49 62.87 89.23 64.39 81.03 C 66.29 69.78 74.80 61.12 83.40 54.32 C 99.24 42.45 118.14 34.10 138.00 32.51 M 169.97 33.99 C 161.75 33.83 153.58 35.01 145.37 35.08 C 137.68 36.00 129.89 36.49 122.39 38.58 C 109.25 42.26 96.86 48.53 85.98 56.75 C 79.82 61.61 74.07 67.32 70.56 74.43 C 68.89 77.97 67.83 82.08 68.71 85.98 C 69.40 89.36 72.57 91.96 75.99 92.12 C 83.58 92.98 90.73 89.03 96.37 84.33 C 101.78 79.46 106.79 73.10 107.25 65.56 C 101.67 69.71 96.22 76.22 88.42 75.02 C 87.62 74.20 86.82 73.39 86.01 72.58 C 84.70 65.82 90.63 60.88 95.47 57.31 C 108.06 49.12 122.96 44.01 138.08 44.22 C 124.19 55.69 115.59 71.95 107.89 87.88 C 106.70 89.18 104.67 89.26 103.13 90.01 C 96.17 92.54 88.55 96.91 86.98 104.79 C 87.45 105.12 88.38 105.77 88.85 106.10 C 92.61 100.64 97.58 95.51 104.22 93.82 C 99.84 101.85 94.82 109.81 87.83 115.83 C 85.02 118.26 80.04 120.22 77.18 116.81 C 74.53 113.88 76.59 109.82 78.32 107.00 C 72.88 104.45 67.10 107.42 63.62 111.73 C 59.13 110.17 53.98 111.36 50.50 114.53 C 45.94 118.83 44.87 125.78 46.45 131.63 C 48.65 137.64 54.87 141.37 61.04 142.01 C 73.89 143.37 86.91 137.96 95.94 128.92 C 104.16 120.75 109.29 110.13 113.63 99.54 C 114.94 96.29 116.67 93.17 117.23 89.68 C 117.89 89.68 119.21 89.68 119.87 89.68 C 120.12 91.94 120.00 94.52 121.62 96.33 C 123.14 98.11 125.57 98.51 127.70 99.15 C 125.62 95.87 124.14 92.06 124.62 88.10 C 129.85 86.22 136.28 85.57 139.73 80.66 C 141.74 77.71 142.01 72.18 137.89 70.98 C 129.65 69.27 122.02 77.17 121.31 84.99 C 120.89 84.99 120.04 84.99 119.62 84.99 C 122.67 77.13 126.27 69.47 130.44 62.15 C 134.27 55.69 138.64 49.25 144.97 44.98 C 151.65 44.86 158.34 45.41 165.02 44.93 C 173.81 43.82 182.38 41.12 190.31 37.18 C 195.25 34.65 200.11 31.71 203.77 27.45 C 193.03 31.78 181.45 33.34 169.97 33.99 M 305.44 34.34 C 298.76 38.95 293.81 45.54 289.23 52.13 C 284.37 59.33 279.79 66.72 275.32 74.16 C 271.82 79.49 268.81 85.21 264.40 89.87 C 263.84 88.47 263.28 87.07 262.72 85.67 C 260.76 86.85 259.51 88.74 258.84 90.89 C 259.63 92.49 262.16 94.55 260.29 96.30 C 255.16 102.51 249.48 108.56 242.33 112.47 C 240.25 113.67 237.21 113.44 235.79 111.32 C 233.82 108.90 235.12 105.66 235.68 102.96 C 234.76 101.32 232.50 102.15 230.98 101.95 C 227.72 101.90 225.72 104.88 223.72 106.99 C 221.05 105.98 217.95 105.59 215.51 107.41 C 211.20 110.29 210.34 116.34 211.97 120.97 C 213.86 128.72 221.11 134.62 229.02 135.19 C 237.38 136.18 245.90 133.48 252.47 128.28 C 261.05 122.04 266.30 112.61 271.97 103.89 C 274.94 104.88 277.98 105.68 281.05 106.31 C 279.81 112.68 280.01 119.16 279.46 125.60 C 283.98 125.13 288.53 124.89 292.98 123.91 C 292.79 116.92 293.34 109.96 293.92 103.00 C 302.67 97.42 306.47 87.44 311.34 78.79 C 313.03 79.31 314.77 79.68 316.45 80.24 C 314.19 84.39 311.31 88.22 309.69 92.69 C 308.12 96.57 307.07 101.37 309.78 104.99 C 312.13 108.14 316.66 107.15 319.52 105.31 C 322.46 103.63 323.96 100.49 325.97 97.92 C 327.35 99.35 327.77 101.54 329.49 102.69 C 331.81 104.63 335.13 104.16 337.89 103.74 C 344.30 101.63 347.75 95.44 351.10 90.07 C 352.73 89.67 354.36 89.26 356.00 88.87 C 355.62 92.99 356.05 97.72 359.97 100.09 C 366.18 101.23 370.50 96.11 373.45 91.44 C 375.01 93.99 376.34 97.75 380.00 97.46 C 384.53 97.88 387.58 94.15 390.41 91.24 C 390.15 92.88 389.73 94.50 389.53 96.15 C 392.44 95.83 395.33 95.35 398.23 94.95 C 399.81 88.85 400.66 82.57 402.34 76.51 C 404.83 73.16 406.32 69.21 408.85 65.90 C 410.34 73.22 404.94 79.66 405.75 86.94 C 406.00 90.76 410.30 93.97 413.99 92.53 C 418.21 91.33 420.04 86.96 422.56 83.80 C 424.16 87.13 426.97 90.59 431.08 90.26 C 436.35 90.76 440.39 86.87 443.66 83.30 C 445.87 86.42 450.06 88.64 453.79 86.84 C 458.90 83.99 460.79 78.09 462.85 72.99 C 463.90 69.98 465.60 67.15 466.11 63.98 C 466.61 61.71 463.00 62.25 462.79 63.91 C 460.62 69.01 458.71 74.25 455.78 78.98 C 455.07 79.02 453.66 79.08 452.96 79.11 C 451.84 75.41 452.94 71.59 453.38 67.88 C 455.49 56.20 457.29 44.48 459.70 32.86 C 456.82 33.09 453.97 33.52 451.16 34.11 C 449.42 42.06 448.01 50.10 445.81 57.94 C 442.32 53.76 436.16 55.34 432.67 58.64 C 425.06 64.64 423.56 74.80 418.41 82.50 C 417.87 84.26 415.47 82.52 416.13 81.26 C 416.87 74.83 420.89 67.89 417.31 61.65 C 416.07 59.18 413.37 58.71 410.86 58.84 C 407.90 61.06 406.69 64.67 404.21 67.31 C 404.64 65.34 405.11 63.37 405.51 61.40 C 402.72 61.80 399.92 62.10 397.12 62.39 C 395.67 66.72 395.52 71.43 393.44 75.54 C 391.45 79.53 389.87 83.75 387.36 87.46 C 386.72 88.74 385.40 89.20 384.05 89.25 C 382.39 80.62 386.29 72.26 387.67 63.86 C 384.79 64.14 381.94 64.65 379.09 65.09 C 378.04 68.79 377.68 72.67 376.40 76.30 C 374.96 79.48 373.28 82.54 371.79 85.70 C 370.43 88.23 369.16 91.24 366.26 92.32 C 365.63 89.98 365.04 87.55 365.62 85.14 C 366.77 78.81 368.37 72.57 369.94 66.33 C 366.98 66.76 363.99 67.02 361.07 67.72 C 360.27 71.53 359.41 75.32 358.42 79.09 C 357.41 82.15 355.45 85.52 352.06 86.27 C 353.49 81.63 355.64 76.86 354.81 71.90 C 354.31 69.62 353.48 66.84 351.04 66.01 C 347.91 65.27 346.05 68.59 345.32 71.10 C 344.11 76.19 343.95 81.87 346.37 86.64 C 346.96 87.79 347.50 89.32 346.49 90.44 C 344.89 92.58 342.91 95.18 339.99 95.25 C 337.84 95.40 336.91 93.13 336.30 91.47 C 335.24 85.44 336.64 79.04 339.87 73.86 C 341.13 71.69 344.29 70.73 344.18 67.87 C 339.14 67.99 335.70 72.41 332.79 76.01 C 327.09 83.05 326.48 93.49 318.96 99.12 C 315.80 91.27 320.11 83.00 323.28 75.85 C 324.59 74.36 323.51 70.96 321.23 72.15 C 318.70 73.97 316.07 75.83 312.88 76.18 C 313.57 73.76 316.71 70.08 313.54 68.26 C 309.52 67.40 307.34 72.67 308.97 75.84 C 306.79 80.28 304.41 84.61 302.10 88.98 C 300.30 92.23 298.46 95.83 294.92 97.49 C 297.64 76.34 304.71 55.96 313.82 36.76 C 314.75 34.85 315.60 32.90 316.31 30.90 C 312.48 31.16 308.61 32.10 305.44 34.34 M 231.78 43.71 C 228.38 50.51 225.84 57.76 222.74 64.72 C 219.99 70.80 218.17 77.47 213.61 82.54 C 208.48 88.90 202.09 96.60 193.07 96.08 C 190.78 94.16 189.63 91.02 190.57 88.10 C 192.37 81.70 195.84 75.29 201.56 71.61 C 203.28 70.88 206.16 69.47 207.33 71.70 C 203.62 71.75 199.34 73.94 199.01 78.03 C 200.48 82.74 207.23 82.28 209.79 78.79 C 211.91 76.71 212.23 73.75 212.13 70.93 C 210.85 69.39 209.24 67.80 207.05 67.99 C 199.45 67.78 192.59 72.27 187.35 77.40 C 182.63 81.92 180.40 88.25 176.23 93.20 C 173.87 95.97 171.93 99.83 167.98 100.46 C 167.40 97.56 167.78 94.57 168.94 91.87 C 171.49 85.71 174.23 79.63 176.99 73.57 C 173.28 73.92 169.63 74.65 165.95 75.12 C 163.36 79.85 162.16 85.34 158.65 89.54 C 155.34 93.61 152.57 98.12 148.87 101.86 C 147.78 102.89 146.69 104.26 145.00 104.07 C 143.51 101.70 144.68 98.96 145.43 96.56 C 148.09 89.92 151.34 83.54 154.15 76.97 C 150.49 77.90 146.60 77.79 143.03 79.04 C 139.93 84.47 137.76 90.40 135.02 96.02 C 133.13 100.02 130.69 104.35 131.76 108.93 C 132.21 111.78 135.30 113.42 138.00 113.01 C 144.99 112.72 150.08 107.27 154.42 102.39 C 154.60 105.08 155.61 107.65 158.04 109.07 C 161.27 109.04 164.71 109.30 167.60 107.55 C 172.09 105.45 175.00 101.34 178.32 97.86 C 178.98 101.99 182.69 105.31 186.95 105.02 C 197.04 105.18 204.63 97.55 211.60 91.28 C 210.24 94.81 208.68 98.25 207.42 101.82 C 211.20 101.13 215.01 100.66 218.78 99.88 C 221.46 93.23 224.11 86.56 227.01 80.00 C 228.37 79.99 229.73 79.99 231.09 80.00 C 231.71 84.69 229.00 89.16 230.11 93.84 C 231.58 97.77 236.89 98.02 240.08 96.21 C 249.25 90.68 255.37 81.63 260.94 72.75 C 261.60 70.90 259.18 70.94 258.09 70.43 C 253.79 76.15 250.43 83.29 243.85 86.72 C 242.13 87.69 242.11 84.77 241.81 83.85 C 241.38 80.07 237.67 78.22 234.67 76.67 C 237.44 73.75 239.25 69.86 242.73 67.68 C 242.80 68.42 242.94 69.92 243.01 70.67 C 241.75 71.81 240.46 73.82 243.00 74.46 C 247.36 73.86 252.73 70.90 252.81 65.97 C 251.81 59.99 243.71 59.83 239.61 62.65 C 233.89 65.77 232.71 72.78 228.27 77.08 C 232.66 65.23 237.95 53.72 242.39 41.89 C 238.88 42.59 235.17 42.60 231.78 43.71 M 182.12 74.40 C 182.10 75.08 182.07 76.43 182.05 77.10 C 183.47 75.84 184.85 74.55 186.20 73.22 C 184.84 73.62 183.48 74.02 182.12 74.40 M 159.12 76.36 C 157.80 77.17 158.95 79.83 160.36 78.54 C 161.59 77.70 160.55 75.17 159.12 76.36 M 458.38 95.21 C 453.57 122.15 448.47 149.06 443.84 176.03 C 447.67 175.87 451.50 175.56 455.31 175.13 C 461.68 147.18 468.32 119.29 474.66 91.34 C 469.27 92.71 463.56 93.16 458.38 95.21 M 418.58 100.31 C 416.82 104.21 415.91 108.45 414.09 112.34 C 410.22 109.14 405.35 112.41 402.56 115.45 C 399.28 118.63 398.11 123.69 393.92 125.92 C 394.29 121.85 397.22 118.28 396.10 114.04 C 392.41 111.54 389.68 115.64 387.54 118.12 C 387.76 117.30 388.20 115.68 388.42 114.87 C 386.53 115.16 383.53 114.50 383.04 117.08 C 381.60 121.56 378.95 125.58 375.71 128.96 C 375.30 128.96 374.49 128.95 374.08 128.95 C 373.72 124.44 376.58 120.53 377.55 116.24 C 375.46 116.54 373.40 117.00 371.55 118.02 C 368.13 115.67 364.14 118.08 361.46 120.43 C 358.54 123.22 355.69 126.76 355.59 130.99 C 355.45 133.73 358.62 135.41 361.03 134.79 C 363.82 134.36 366.07 132.57 368.18 130.82 C 368.81 131.57 369.45 132.33 370.10 133.09 C 373.25 133.46 375.87 131.69 378.11 129.69 C 378.00 130.31 377.79 131.55 377.69 132.17 C 379.41 131.97 381.12 131.64 382.78 131.15 C 384.10 125.65 386.42 120.32 390.79 116.55 C 391.47 121.32 385.18 125.77 389.09 130.17 C 392.80 130.69 395.57 128.23 397.65 125.50 C 400.53 130.65 407.12 128.29 410.43 124.91 C 412.11 125.85 413.89 127.77 415.96 126.64 C 420.99 124.31 423.19 118.69 425.70 114.11 C 425.36 114.16 424.69 114.25 424.36 114.29 C 421.92 116.96 420.67 120.57 417.92 122.98 C 416.23 123.45 415.74 121.28 416.45 120.14 C 418.57 112.98 421.28 106.00 423.57 98.89 C 421.94 99.35 419.85 99.06 418.58 100.31 M 430.28 114.73 C 427.60 120.94 424.03 126.71 421.01 132.76 C 424.32 135.05 422.78 139.08 422.12 142.29 C 426.70 141.47 431.29 140.64 435.88 139.87 C 437.03 133.84 438.21 127.81 439.31 121.77 C 439.62 119.76 440.37 117.86 441.35 116.09 C 437.63 117.63 433.62 116.72 430.28 114.73 M 332.70 132.33 C 339.45 136.81 342.83 144.59 344.57 152.22 C 346.70 144.26 349.14 136.39 351.46 128.48 C 348.63 126.98 346.36 124.59 345.42 121.48 C 342.56 126.40 338.25 130.65 332.70 132.33 M 147.93 130.01 C 137.96 130.38 127.98 131.05 118.08 132.36 C 103.51 135.01 89.78 141.34 77.63 149.73 C 68.86 155.85 60.66 163.32 55.57 172.86 C 52.54 178.17 51.12 184.45 52.26 190.51 C 53.31 194.47 56.87 197.67 60.99 198.00 C 69.09 198.97 76.68 194.57 82.52 189.37 C 88.97 183.36 94.32 175.23 94.52 166.16 C 91.76 167.84 90.10 170.71 87.57 172.66 C 84.22 175.30 80.30 177.51 75.99 177.89 C 72.01 177.21 69.78 172.66 71.05 168.96 C 73.31 161.67 79.73 156.66 85.99 152.81 C 98.61 145.47 113.12 140.54 127.87 141.52 C 116.29 151.98 108.50 165.79 101.98 179.78 C 99.85 184.52 97.31 189.10 95.80 194.09 C 87.56 197.21 77.97 200.74 74.29 209.51 C 73.59 211.29 72.26 215.40 75.56 214.99 C 79.38 208.70 84.72 202.66 92.13 200.80 C 87.76 209.49 83.06 218.19 76.38 225.35 C 73.91 227.97 70.84 230.57 67.05 230.61 C 64.04 230.59 61.65 227.95 61.06 225.15 C 60.50 221.90 62.23 218.97 63.38 216.07 C 60.55 215.06 57.36 214.43 54.46 215.58 C 51.48 216.59 49.47 219.13 47.49 221.42 C 42.85 220.31 37.44 220.34 33.66 223.66 C 28.18 228.32 27.06 236.21 28.01 242.98 C 29.44 252.02 38.22 258.36 47.00 259.03 C 58.65 260.13 70.41 255.76 79.22 248.21 C 91.15 237.92 97.41 222.91 102.57 208.41 C 103.82 204.29 106.16 200.40 106.14 195.99 C 107.20 196.02 108.27 196.03 109.33 196.03 C 109.71 198.90 109.55 202.16 111.52 204.51 C 113.15 206.61 115.85 207.24 118.23 208.08 C 115.74 203.84 114.29 199.13 114.46 194.18 C 118.80 193.38 123.11 192.08 126.99 189.93 C 131.34 187.54 133.73 181.88 132.04 177.16 C 130.73 173.66 126.25 172.63 123.02 173.86 C 115.68 176.12 111.20 183.68 110.24 190.97 C 109.92 190.70 109.27 190.14 108.94 189.87 C 113.74 176.96 118.63 163.89 126.40 152.42 C 129.09 148.37 132.38 144.61 136.65 142.18 C 144.06 143.32 151.62 143.28 159.08 142.94 C 168.32 141.75 177.31 138.82 185.57 134.54 C 191.07 131.53 196.59 128.09 200.32 122.93 C 183.82 129.91 165.56 130.12 147.93 130.01 M 127.90 127.41 C 129.66 127.25 131.40 126.97 133.14 126.75 C 131.78 125.95 130.44 125.12 129.13 124.24 C 128.73 125.30 128.31 126.35 127.90 127.41 M 296.65 128.69 C 296.46 130.07 296.27 131.45 296.09 132.84 C 297.91 131.75 299.76 130.69 301.62 129.67 C 301.28 128.04 301.00 126.40 300.76 124.75 C 299.42 126.10 298.05 127.40 296.65 128.69 M 206.97 127.99 C 207.46 134.06 209.23 139.93 209.90 145.97 C 207.56 151.21 202.67 154.83 198.04 157.97 C 185.94 165.58 171.61 170.07 157.25 169.46 C 158.19 171.52 158.63 173.97 160.08 175.72 C 165.24 175.18 170.34 174.07 175.52 173.68 C 179.80 170.03 186.67 169.08 191.24 172.72 C 194.65 175.32 195.35 179.75 196.46 183.62 C 200.77 177.36 206.31 171.86 212.97 168.15 C 217.82 165.45 223.72 164.37 229.09 166.10 C 229.60 164.71 230.10 163.32 230.61 161.94 C 224.83 160.95 219.23 158.17 215.68 153.39 C 210.88 147.29 211.04 139.15 209.41 131.91 C 209.36 130.21 208.04 129.12 206.97 127.99 M 299.57 135.50 C 284.27 145.28 272.70 160.42 265.98 177.19 C 261.01 190.04 258.95 204.65 263.40 217.95 C 266.96 228.23 276.87 236.41 288.00 236.32 C 296.66 236.95 304.54 232.33 311.04 227.08 C 324.27 216.01 333.13 200.35 337.86 183.90 C 340.96 172.21 342.34 159.67 338.91 147.90 C 336.95 141.80 332.93 135.68 326.50 133.74 C 319.88 131.61 312.45 135.06 308.42 140.43 C 307.75 141.70 305.97 143.01 307.01 144.60 C 310.63 143.57 314.01 140.86 317.98 141.79 C 322.08 142.60 324.41 146.59 325.79 150.20 C 328.61 158.47 327.99 167.32 327.94 175.92 C 326.86 188.19 324.05 200.74 316.99 211.04 C 312.31 218.00 305.27 223.80 296.86 225.35 C 291.94 226.35 286.82 224.00 283.70 220.21 C 279.88 215.77 278.52 209.81 278.38 204.08 C 278.35 189.62 282.43 175.39 288.81 162.49 C 293.92 152.30 300.53 142.67 309.27 135.26 C 311.52 133.26 314.40 131.97 316.16 129.45 C 310.12 129.37 304.67 132.60 299.57 135.50 M 272.65 133.32 C 269.12 139.98 264.68 146.14 259.39 151.52 C 258.31 155.68 259.99 160.34 258.59 164.54 C 257.66 167.30 256.61 170.01 255.68 172.77 C 257.99 173.31 260.02 174.52 261.72 176.16 C 264.87 167.59 269.66 159.70 275.16 152.45 C 273.05 146.33 275.29 139.69 274.78 133.35 C 274.25 133.34 273.19 133.33 272.65 133.32 M 405.13 139.02 C 404.39 142.66 403.63 146.29 402.88 149.92 C 398.90 151.19 393.91 150.39 391.13 154.14 C 394.98 154.03 398.87 154.13 402.66 153.29 C 398.94 163.08 400.42 174.50 394.43 183.43 C 391.84 187.98 389.63 193.20 384.95 196.01 C 382.24 193.85 381.81 190.13 382.48 186.93 C 383.74 180.04 385.32 173.22 386.99 166.42 C 382.33 167.17 377.66 167.85 373.07 168.93 C 371.97 173.07 371.46 177.36 370.15 181.44 C 368.56 184.72 366.48 187.73 364.77 190.95 C 362.48 194.80 360.35 199.23 356.08 201.22 C 353.25 198.35 353.76 194.12 354.34 190.48 C 355.80 184.09 357.31 177.71 359.01 171.37 C 354.33 172.18 349.63 172.85 345.01 173.90 C 343.01 181.26 341.51 188.74 339.45 196.08 C 338.66 199.99 338.26 204.70 341.20 207.87 C 344.09 211.13 348.97 211.10 352.88 210.11 C 359.29 208.78 363.81 203.55 367.29 198.35 C 368.48 201.76 371.14 205.08 375.03 205.25 C 383.72 206.49 391.80 200.68 395.51 193.12 C 396.35 194.96 397.09 196.99 398.78 198.25 C 401.59 200.77 405.68 200.28 409.13 199.87 C 415.69 198.52 420.69 193.28 423.53 187.44 C 426.05 182.29 428.80 177.25 431.09 172.00 C 429.81 170.99 428.19 170.65 426.72 170.08 C 422.23 176.33 420.16 184.21 414.61 189.70 C 413.03 191.65 410.52 189.79 410.15 187.83 C 408.99 182.55 410.75 177.30 411.69 172.14 C 413.19 165.41 414.03 158.47 416.00 151.87 C 423.19 150.46 430.60 149.98 437.87 148.91 C 439.37 146.95 440.80 144.94 442.16 142.88 C 433.67 144.17 425.29 146.15 416.75 147.10 C 417.25 143.59 418.03 140.14 418.76 136.68 C 414.18 137.24 409.64 138.06 405.13 139.02 M 242.12 141.88 C 238.58 152.30 234.79 162.63 231.44 173.11 C 229.24 171.37 226.97 169.23 223.96 169.28 C 217.52 169.27 211.99 173.18 207.40 177.31 C 198.76 185.14 194.81 196.56 187.13 205.17 C 186.07 206.59 184.58 205.83 184.86 204.09 C 185.74 197.73 189.77 192.27 190.91 185.96 C 191.10 183.11 191.47 179.93 189.67 177.49 C 188.00 174.48 183.98 174.18 181.01 175.09 C 176.24 177.46 174.17 182.75 170.49 186.32 C 171.41 183.46 172.62 180.72 173.68 177.91 C 169.49 178.64 165.24 179.02 161.08 179.92 C 158.44 186.20 156.65 192.95 152.42 198.42 C 148.30 204.10 145.34 211.11 139.18 214.95 C 136.99 212.39 138.03 208.69 138.76 205.75 C 141.56 197.68 144.77 189.74 148.02 181.84 C 143.87 182.32 139.66 182.70 135.60 183.64 C 131.96 192.06 128.73 200.68 125.30 209.19 C 123.86 212.58 123.46 216.35 124.00 219.98 C 124.49 222.80 127.02 225.43 130.05 225.14 C 136.94 225.86 142.27 220.76 146.71 216.25 C 145.94 218.57 145.11 220.88 144.23 223.17 C 148.46 222.82 152.61 221.93 156.83 221.53 C 160.48 213.67 162.73 205.21 166.32 197.33 C 170.46 193.25 173.29 188.14 176.96 183.68 C 178.20 193.69 168.83 201.17 168.90 211.02 C 168.71 215.17 172.88 218.80 176.99 218.09 C 184.55 218.02 188.83 210.88 193.31 205.85 C 194.15 209.76 196.93 213.49 201.07 214.18 C 209.54 215.77 217.67 210.68 222.79 204.28 C 225.17 210.68 233.99 211.96 238.96 207.84 C 247.69 201.51 251.25 190.76 256.94 182.00 C 258.61 180.25 258.20 177.31 255.49 177.11 C 253.50 178.29 252.42 180.38 251.32 182.32 C 248.51 187.37 245.53 192.33 242.13 197.02 C 241.24 198.56 239.46 199.13 238.00 199.99 C 235.11 197.73 236.82 193.96 237.46 191.06 C 242.73 173.92 248.50 156.92 254.25 139.94 C 250.24 140.82 246.12 140.98 242.12 141.88 M 377.32 156.23 C 375.81 158.20 373.33 158.54 371.03 158.76 C 367.34 159.06 363.65 160.35 359.96 159.34 C 355.30 162.18 348.13 162.68 345.06 157.32 C 345.24 161.40 345.24 165.49 345.00 169.58 C 349.69 168.85 354.32 167.80 359.02 167.16 C 361.57 166.74 364.36 169.45 363.46 172.03 C 361.81 178.77 359.87 185.45 358.76 192.31 C 362.63 183.57 365.43 174.27 369.78 165.77 C 373.37 163.84 377.77 164.10 381.68 163.03 C 382.61 160.89 383.55 158.76 384.54 156.65 C 382.12 157.18 379.62 157.20 377.32 156.23 M 144.51 163.64 C 140.62 165.07 138.65 171.08 142.39 173.72 C 146.64 175.73 151.88 171.56 151.18 167.00 C 151.21 163.83 147.09 161.94 144.51 163.64 M 306.29 170.22 C 304.28 171.29 302.13 170.32 300.28 169.42 C 292.09 180.23 286.03 192.75 283.15 206.03 C 283.17 210.85 285.15 215.95 288.90 219.12 C 291.51 221.35 295.27 221.63 298.39 220.42 C 307.81 217.26 314.23 208.68 317.91 199.81 C 319.22 194.67 318.80 189.25 318.71 184.00 C 318.29 178.75 318.10 172.72 314.24 168.70 C 311.71 166.56 308.76 169.38 306.29 170.22 M 415.45 176.13 C 415.13 177.73 414.82 179.34 414.50 180.94 C 415.58 179.18 416.65 177.41 417.70 175.62 C 416.94 175.79 416.19 175.95 415.45 176.13 M 443.27 188.18 C 439.74 189.29 436.51 191.81 435.15 195.32 C 434.29 197.97 434.42 201.52 437.13 203.07 C 444.40 207.04 455.88 201.89 455.77 192.99 C 455.11 187.14 447.69 186.73 443.27 188.18 Z" />
<path fill="#cd0000" opacity="1.00" d=" M 291.53 61.11 C 295.18 54.30 298.51 46.81 304.63 41.84 C 299.51 50.97 294.49 60.24 291.27 70.23 C 287.70 81.06 283.54 91.79 281.69 103.08 C 278.94 102.59 276.29 101.68 273.69 100.66 C 279.69 87.51 285.39 74.20 291.53 61.11 Z" />
<path fill="#cd0000" opacity="1.00" d=" M 437.25 60.17 C 438.46 58.76 440.39 59.01 442.05 58.82 C 446.43 63.30 445.06 69.95 443.24 75.25 C 441.78 78.16 439.61 81.86 435.91 81.80 C 432.70 80.80 431.97 76.92 431.99 74.01 C 432.21 69.06 433.51 63.67 437.25 60.17 Z" />
<path fill="#cd0000" opacity="1.00" d=" M 349.14 83.36 C 349.32 79.73 347.46 74.55 351.48 72.42 C 351.16 76.09 351.85 80.42 349.14 83.36 Z" />
<path fill="#cd0000" opacity="1.00" d=" M 125.97 84.01 C 128.03 79.70 131.03 75.31 135.89 73.95 C 137.10 79.84 130.83 83.16 125.97 84.01 Z" />
<path fill="#cd0000" opacity="1.00" d=" M 408.25 113.17 C 409.50 112.20 411.61 112.08 412.28 113.82 C 413.76 115.94 412.14 118.49 411.29 120.53 C 410.06 123.29 406.45 125.87 403.87 123.13 C 403.80 119.39 405.14 115.44 408.25 113.17 Z" />
<path fill="#cd0000" opacity="1.00" d=" M 366.23 119.18 C 368.35 117.34 370.95 119.54 370.65 121.96 C 369.92 125.70 367.85 129.65 363.96 130.86 C 362.39 130.49 361.64 129.51 361.72 127.93 C 361.58 124.49 363.49 121.16 366.23 119.18 Z" />
<path fill="#cd0000" opacity="1.00" d=" M 217.81 175.77 C 219.70 174.12 222.41 173.27 224.85 174.09 C 227.81 176.81 228.86 181.47 227.31 185.19 C 225.90 188.78 225.27 192.77 222.82 195.86 C 220.05 199.77 216.16 203.99 210.85 203.11 C 208.72 200.96 207.63 197.90 208.09 194.89 C 209.09 187.72 212.12 180.47 217.81 175.77 Z" />
<path fill="#cd0000" opacity="1.00" d=" M 116.02 189.23 C 118.27 184.55 121.10 178.41 126.95 177.83 C 127.87 184.13 121.78 188.79 116.02 189.23 Z" />
</g>
<g id="#f8e132ff">
<path fill="#f8e132" opacity="1.00" d=" M 169.97 33.99 C 181.45 33.34 193.03 31.78 203.77 27.45 C 200.11 31.71 195.25 34.65 190.31 37.18 C 182.38 41.12 173.81 43.82 165.02 44.93 C 158.34 45.41 151.65 44.86 144.97 44.98 C 138.64 49.25 134.27 55.69 130.44 62.15 C 126.27 69.47 122.67 77.13 119.62 84.99 C 120.04 84.99 120.89 84.99 121.31 84.99 C 122.02 77.17 129.65 69.27 137.89 70.98 C 142.01 72.18 141.74 77.71 139.73 80.66 C 136.28 85.57 129.85 86.22 124.62 88.10 C 124.14 92.06 125.62 95.87 127.70 99.15 C 125.57 98.51 123.14 98.11 121.62 96.33 C 120.00 94.52 120.12 91.94 119.87 89.68 C 119.21 89.68 117.89 89.68 117.23 89.68 C 116.67 93.17 114.94 96.29 113.63 99.54 C 109.29 110.13 104.16 120.75 95.94 128.92 C 86.91 137.96 73.89 143.37 61.04 142.01 C 54.87 141.37 48.65 137.64 46.45 131.63 C 44.87 125.78 45.94 118.83 50.50 114.53 C 53.98 111.36 59.13 110.17 63.62 111.73 C 67.10 107.42 72.88 104.45 78.32 107.00 C 76.59 109.82 74.53 113.88 77.18 116.81 C 80.04 120.22 85.02 118.26 87.83 115.83 C 94.82 109.81 99.84 101.85 104.22 93.82 C 97.58 95.51 92.61 100.64 88.85 106.10 C 88.38 105.77 87.45 105.12 86.98 104.79 C 88.55 96.91 96.17 92.54 103.13 90.01 C 104.67 89.26 106.70 89.18 107.89 87.88 C 115.59 71.95 124.19 55.69 138.08 44.22 C 122.96 44.01 108.06 49.12 95.47 57.31 C 90.63 60.88 84.70 65.82 86.01 72.58 C 86.82 73.39 87.62 74.20 88.42 75.02 C 96.22 76.22 101.67 69.71 107.25 65.56 C 106.79 73.10 101.78 79.46 96.37 84.33 C 90.73 89.03 83.58 92.98 75.99 92.12 C 72.57 91.96 69.40 89.36 68.71 85.98 C 67.83 82.08 68.89 77.97 70.56 74.43 C 74.07 67.32 79.82 61.61 85.98 56.75 C 96.86 48.53 109.25 42.26 122.39 38.58 C 129.89 36.49 137.68 36.00 145.37 35.08 C 153.58 35.01 161.75 33.83 169.97 33.99 M 125.97 84.01 C 130.83 83.16 137.10 79.84 135.89 73.95 C 131.03 75.31 128.03 79.70 125.97 84.01 Z" />
<path fill="#f8e132" opacity="1.00" d=" M 305.44 34.34 C 308.61 32.10 312.48 31.16 316.31 30.90 C 315.60 32.90 314.75 34.85 313.82 36.76 C 304.71 55.96 297.64 76.34 294.92 97.49 C 298.46 95.83 300.30 92.23 302.10 88.98 C 304.41 84.61 306.79 80.28 308.97 75.84 C 307.34 72.67 309.52 67.40 313.54 68.26 C 316.71 70.08 313.57 73.76 312.88 76.18 C 316.07 75.83 318.70 73.97 321.23 72.15 C 323.51 70.96 324.59 74.36 323.28 75.85 C 320.11 83.00 315.80 91.27 318.96 99.12 C 326.48 93.49 327.09 83.05 332.79 76.01 C 335.70 72.41 339.14 67.99 344.18 67.87 C 344.29 70.73 341.13 71.69 339.87 73.86 C 336.64 79.04 335.24 85.44 336.30 91.47 C 336.91 93.13 337.84 95.40 339.99 95.25 C 342.91 95.18 344.89 92.58 346.49 90.44 C 347.50 89.32 346.96 87.79 346.37 86.64 C 343.95 81.87 344.11 76.19 345.32 71.10 C 346.05 68.59 347.91 65.27 351.04 66.01 C 353.48 66.84 354.31 69.62 354.81 71.90 C 355.64 76.86 353.49 81.63 352.06 86.27 C 355.45 85.52 357.41 82.15 358.42 79.09 C 359.41 75.32 360.27 71.53 361.07 67.72 C 363.99 67.02 366.98 66.76 369.94 66.33 C 368.37 72.57 366.77 78.81 365.62 85.14 C 365.04 87.55 365.63 89.98 366.26 92.32 C 369.16 91.24 370.43 88.23 371.79 85.70 C 373.28 82.54 374.96 79.48 376.40 76.30 C 377.68 72.67 378.04 68.79 379.09 65.09 C 381.94 64.65 384.79 64.14 387.67 63.86 C 386.29 72.26 382.39 80.62 384.05 89.25 C 385.40 89.20 386.72 88.74 387.36 87.46 C 389.87 83.75 391.45 79.53 393.44 75.54 C 395.52 71.43 395.67 66.72 397.12 62.39 C 399.92 62.10 402.72 61.80 405.51 61.40 C 405.11 63.37 404.64 65.34 404.21 67.31 C 406.69 64.67 407.90 61.06 410.86 58.84 C 413.37 58.71 416.07 59.18 417.31 61.65 C 420.89 67.89 416.87 74.83 416.13 81.26 C 415.47 82.52 417.87 84.26 418.41 82.50 C 423.56 74.80 425.06 64.64 432.67 58.64 C 436.16 55.34 442.32 53.76 445.81 57.94 C 448.01 50.10 449.42 42.06 451.16 34.11 C 453.97 33.52 456.82 33.09 459.70 32.86 C 457.29 44.48 455.49 56.20 453.38 67.88 C 452.94 71.59 451.84 75.41 452.96 79.11 C 453.66 79.08 455.07 79.02 455.78 78.98 C 458.71 74.25 460.62 69.01 462.79 63.91 C 463.00 62.25 466.61 61.71 466.11 63.98 C 465.60 67.15 463.90 69.98 462.85 72.99 C 460.79 78.09 458.90 83.99 453.79 86.84 C 450.06 88.64 445.87 86.42 443.66 83.30 C 440.39 86.87 436.35 90.76 431.08 90.26 C 426.97 90.59 424.16 87.13 422.56 83.80 C 420.04 86.96 418.21 91.33 413.99 92.53 C 410.30 93.97 406.00 90.76 405.75 86.94 C 404.94 79.66 410.34 73.22 408.85 65.90 C 406.32 69.21 404.83 73.16 402.34 76.51 C 400.66 82.57 399.81 88.85 398.23 94.95 C 395.33 95.35 392.44 95.83 389.53 96.15 C 389.73 94.50 390.15 92.88 390.41 91.24 C 387.58 94.15 384.53 97.88 380.00 97.46 C 376.34 97.75 375.01 93.99 373.45 91.44 C 370.50 96.11 366.18 101.23 359.97 100.09 C 356.05 97.72 355.62 92.99 356.00 88.87 C 354.36 89.26 352.73 89.67 351.10 90.07 C 347.75 95.44 344.30 101.63 337.89 103.74 C 335.13 104.16 331.81 104.63 329.49 102.69 C 327.77 101.54 327.35 99.35 325.97 97.92 C 323.96 100.49 322.46 103.63 319.52 105.31 C 316.66 107.15 312.13 108.14 309.78 104.99 C 307.07 101.37 308.12 96.57 309.69 92.69 C 311.31 88.22 314.19 84.39 316.45 80.24 C 314.77 79.68 313.03 79.31 311.34 78.79 C 306.47 87.44 302.67 97.42 293.92 103.00 C 293.34 109.96 292.79 116.92 292.98 123.91 C 288.53 124.89 283.98 125.13 279.46 125.60 C 280.01 119.16 279.81 112.68 281.05 106.31 C 277.98 105.68 274.94 104.88 271.97 103.89 C 266.30 112.61 261.05 122.04 252.47 128.28 C 245.90 133.48 237.38 136.18 229.02 135.19 C 221.11 134.62 213.86 128.72 211.97 120.97 C 210.34 116.34 211.20 110.29 215.51 107.41 C 217.95 105.59 221.05 105.98 223.72 106.99 C 225.72 104.88 227.72 101.90 230.98 101.95 C 232.50 102.15 234.76 101.32 235.68 102.96 C 235.12 105.66 233.82 108.90 235.79 111.32 C 237.21 113.44 240.25 113.67 242.33 112.47 C 249.48 108.56 255.16 102.51 260.29 96.30 C 262.16 94.55 259.63 92.49 258.84 90.89 C 259.51 88.74 260.76 86.85 262.72 85.67 C 263.28 87.07 263.84 88.47 264.40 89.87 C 268.81 85.21 271.82 79.49 275.32 74.16 C 279.79 66.72 284.37 59.33 289.23 52.13 C 293.81 45.54 298.76 38.95 305.44 34.34 M 291.53 61.11 C 285.39 74.20 279.69 87.51 273.69 100.66 C 276.29 101.68 278.94 102.59 281.69 103.08 C 283.54 91.79 287.70 81.06 291.27 70.23 C 294.49 60.24 299.51 50.97 304.63 41.84 C 298.51 46.81 295.18 54.30 291.53 61.11 M 437.25 60.17 C 433.51 63.67 432.21 69.06 431.99 74.01 C 431.97 76.92 432.70 80.80 435.91 81.80 C 439.61 81.86 441.78 78.16 443.24 75.25 C 445.06 69.95 446.43 63.30 442.05 58.82 C 440.39 59.01 438.46 58.76 437.25 60.17 M 349.14 83.36 C 351.85 80.42 351.16 76.09 351.48 72.42 C 347.46 74.55 349.32 79.73 349.14 83.36 Z" />
<path fill="#f8e132" opacity="1.00" d=" M 231.78 43.71 C 235.17 42.60 238.88 42.59 242.39 41.89 C 237.95 53.72 232.66 65.23 228.27 77.08 C 232.71 72.78 233.89 65.77 239.61 62.65 C 243.71 59.83 251.81 59.99 252.81 65.97 C 252.73 70.90 247.36 73.86 243.00 74.46 C 240.46 73.82 241.75 71.81 243.01 70.67 C 242.94 69.92 242.80 68.42 242.73 67.68 C 239.25 69.86 237.44 73.75 234.67 76.67 C 237.67 78.22 241.38 80.07 241.81 83.85 C 242.11 84.77 242.13 87.69 243.85 86.72 C 250.43 83.29 253.79 76.15 258.09 70.43 C 259.18 70.94 261.60 70.90 260.94 72.75 C 255.37 81.63 249.25 90.68 240.08 96.21 C 236.89 98.02 231.58 97.77 230.11 93.84 C 229.00 89.16 231.71 84.69 231.09 80.00 C 229.73 79.99 228.37 79.99 227.01 80.00 C 224.11 86.56 221.46 93.23 218.78 99.88 C 215.01 100.66 211.20 101.13 207.42 101.82 C 208.68 98.25 210.24 94.81 211.60 91.28 C 204.63 97.55 197.04 105.18 186.95 105.02 C 182.69 105.31 178.98 101.99 178.32 97.86 C 175.00 101.34 172.09 105.45 167.60 107.55 C 164.71 109.30 161.27 109.04 158.04 109.07 C 155.61 107.65 154.60 105.08 154.42 102.39 C 150.08 107.27 144.99 112.72 138.00 113.01 C 135.30 113.42 132.21 111.78 131.76 108.93 C 130.69 104.35 133.13 100.02 135.02 96.02 C 137.76 90.40 139.93 84.47 143.03 79.04 C 146.60 77.79 150.49 77.90 154.15 76.97 C 151.34 83.54 148.09 89.92 145.43 96.56 C 144.68 98.96 143.51 101.70 145.00 104.07 C 146.69 104.26 147.78 102.89 148.87 101.86 C 152.57 98.12 155.34 93.61 158.65 89.54 C 162.16 85.34 163.36 79.85 165.95 75.12 C 169.63 74.65 173.28 73.92 176.99 73.57 C 174.23 79.63 171.49 85.71 168.94 91.87 C 167.78 94.57 167.40 97.56 167.98 100.46 C 171.93 99.83 173.87 95.97 176.23 93.20 C 180.40 88.25 182.63 81.92 187.35 77.40 C 192.59 72.27 199.45 67.78 207.05 67.99 C 209.24 67.80 210.85 69.39 212.13 70.93 C 212.23 73.75 211.91 76.71 209.79 78.79 C 207.23 82.28 200.48 82.74 199.01 78.03 C 199.34 73.94 203.62 71.75 207.33 71.70 C 206.16 69.47 203.28 70.88 201.56 71.61 C 195.84 75.29 192.37 81.70 190.57 88.10 C 189.63 91.02 190.78 94.16 193.07 96.08 C 202.09 96.60 208.48 88.90 213.61 82.54 C 218.17 77.47 219.99 70.80 222.74 64.72 C 225.84 57.76 228.38 50.51 231.78 43.71 Z" />
<path fill="#f8e132" opacity="1.00" d=" M 458.38 95.21 C 463.56 93.16 469.27 92.71 474.66 91.34 C 468.32 119.29 461.68 147.18 455.31 175.13 C 451.50 175.56 447.67 175.87 443.84 176.03 C 448.47 149.06 453.57 122.15 458.38 95.21 Z" />
<path fill="#f8e132" opacity="1.00" d=" M 418.58 100.31 C 419.85 99.06 421.94 99.35 423.57 98.89 C 421.28 106.00 418.57 112.98 416.45 120.14 C 415.74 121.28 416.23 123.45 417.92 122.98 C 420.67 120.57 421.92 116.96 424.36 114.29 C 424.69 114.25 425.36 114.16 425.70 114.11 C 423.19 118.69 420.99 124.31 415.96 126.64 C 413.89 127.77 412.11 125.85 410.43 124.91 C 407.12 128.29 400.53 130.65 397.65 125.50 C 395.57 128.23 392.80 130.69 389.09 130.17 C 385.18 125.77 391.47 121.32 390.79 116.55 C 386.42 120.32 384.10 125.65 382.78 131.15 C 381.12 131.64 379.41 131.97 377.69 132.17 C 377.79 131.55 378.00 130.31 378.11 129.69 C 375.87 131.69 373.25 133.46 370.10 133.09 C 369.45 132.33 368.81 131.57 368.18 130.82 C 366.07 132.57 363.82 134.36 361.03 134.79 C 358.62 135.41 355.45 133.73 355.59 130.99 C 355.69 126.76 358.54 123.22 361.46 120.43 C 364.14 118.08 368.13 115.67 371.55 118.02 C 373.40 117.00 375.46 116.54 377.55 116.24 C 376.58 120.53 373.72 124.44 374.08 128.95 C 374.49 128.95 375.30 128.96 375.71 128.96 C 378.95 125.58 381.60 121.56 383.04 117.08 C 383.53 114.50 386.53 115.16 388.42 114.87 C 388.20 115.68 387.76 117.30 387.54 118.12 C 389.68 115.64 392.41 111.54 396.10 114.04 C 397.22 118.28 394.29 121.85 393.92 125.92 C 398.11 123.69 399.28 118.63 402.56 115.45 C 405.35 112.41 410.22 109.14 414.09 112.34 C 415.91 108.45 416.82 104.21 418.58 100.31 M 408.25 113.17 C 405.14 115.44 403.80 119.39 403.87 123.13 C 406.45 125.87 410.06 123.29 411.29 120.53 C 412.14 118.49 413.76 115.94 412.28 113.82 C 411.61 112.08 409.50 112.20 408.25 113.17 M 366.23 119.18 C 363.49 121.16 361.58 124.49 361.72 127.93 C 361.64 129.51 362.39 130.49 363.96 130.86 C 367.85 129.65 369.92 125.70 370.65 121.96 C 370.95 119.54 368.35 117.34 366.23 119.18 Z" />
<path fill="#f8e132" opacity="1.00" d=" M 147.93 130.01 C 165.56 130.12 183.82 129.91 200.32 122.93 C 196.59 128.09 191.07 131.53 185.57 134.54 C 177.31 138.82 168.32 141.75 159.08 142.94 C 151.62 143.28 144.06 143.32 136.65 142.18 C 132.38 144.61 129.09 148.37 126.40 152.42 C 118.63 163.89 113.74 176.96 108.94 189.87 C 109.27 190.14 109.92 190.70 110.24 190.97 C 111.20 183.68 115.68 176.12 123.02 173.86 C 126.25 172.63 130.73 173.66 132.04 177.16 C 133.73 181.88 131.34 187.54 126.99 189.93 C 123.11 192.08 118.80 193.38 114.46 194.18 C 114.29 199.13 115.74 203.84 118.23 208.08 C 115.85 207.24 113.15 206.61 111.52 204.51 C 109.55 202.16 109.71 198.90 109.33 196.03 C 108.27 196.03 107.20 196.02 106.14 195.99 C 106.16 200.40 103.82 204.29 102.57 208.41 C 97.41 222.91 91.15 237.92 79.22 248.21 C 70.41 255.76 58.65 260.13 47.00 259.03 C 38.22 258.36 29.44 252.02 28.01 242.98 C 27.06 236.21 28.18 228.32 33.66 223.66 C 37.44 220.34 42.85 220.31 47.49 221.42 C 49.47 219.13 51.48 216.59 54.46 215.58 C 57.36 214.43 60.55 215.06 63.38 216.07 C 62.23 218.97 60.50 221.90 61.06 225.15 C 61.65 227.95 64.04 230.59 67.05 230.61 C 70.84 230.57 73.91 227.97 76.38 225.35 C 83.06 218.19 87.76 209.49 92.13 200.80 C 84.72 202.66 79.38 208.70 75.56 214.99 C 72.26 215.40 73.59 211.29 74.29 209.51 C 77.97 200.74 87.56 197.21 95.80 194.09 C 97.31 189.10 99.85 184.52 101.98 179.78 C 108.50 165.79 116.29 151.98 127.87 141.52 C 113.12 140.54 98.61 145.47 85.99 152.81 C 79.73 156.66 73.31 161.67 71.05 168.96 C 69.78 172.66 72.01 177.21 75.99 177.89 C 80.30 177.51 84.22 175.30 87.57 172.66 C 90.10 170.71 91.76 167.84 94.52 166.16 C 94.32 175.23 88.97 183.36 82.52 189.37 C 76.68 194.57 69.09 198.97 60.99 198.00 C 56.87 197.67 53.31 194.47 52.26 190.51 C 51.12 184.45 52.54 178.17 55.57 172.86 C 60.66 163.32 68.86 155.85 77.63 149.73 C 89.78 141.34 103.51 135.01 118.08 132.36 C 127.98 131.05 137.96 130.38 147.93 130.01 M 116.02 189.23 C 121.78 188.79 127.87 184.13 126.95 177.83 C 121.10 178.41 118.27 184.55 116.02 189.23 Z" />
<path fill="#f8e132" opacity="1.00" d=" M 299.57 135.50 C 304.67 132.60 310.12 129.37 316.16 129.45 C 314.40 131.97 311.52 133.26 309.27 135.26 C 300.53 142.67 293.92 152.30 288.81 162.49 C 282.43 175.39 278.35 189.62 278.38 204.08 C 278.52 209.81 279.88 215.77 283.70 220.21 C 286.82 224.00 291.94 226.35 296.86 225.35 C 305.27 223.80 312.31 218.00 316.99 211.04 C 324.05 200.74 326.86 188.19 327.94 175.92 C 327.99 167.32 328.61 158.47 325.79 150.20 C 324.41 146.59 322.08 142.60 317.98 141.79 C 314.01 140.86 310.63 143.57 307.01 144.60 C 305.97 143.01 307.75 141.70 308.42 140.43 C 312.45 135.06 319.88 131.61 326.50 133.74 C 332.93 135.68 336.95 141.80 338.91 147.90 C 342.34 159.67 340.96 172.21 337.86 183.90 C 333.13 200.35 324.27 216.01 311.04 227.08 C 304.54 232.33 296.66 236.95 288.00 236.32 C 276.87 236.41 266.96 228.23 263.40 217.95 C 258.95 204.65 261.01 190.04 265.98 177.19 C 272.70 160.42 284.27 145.28 299.57 135.50 Z" />
<path fill="#f8e132" opacity="1.00" d=" M 405.13 139.02 C 409.64 138.06 414.18 137.24 418.76 136.68 C 418.03 140.14 417.25 143.59 416.75 147.10 C 425.29 146.15 433.67 144.17 442.16 142.88 C 440.80 144.94 439.37 146.95 437.87 148.91 C 430.60 149.98 423.19 150.46 416.00 151.87 C 414.03 158.47 413.19 165.41 411.69 172.14 C 410.75 177.30 408.99 182.55 410.15 187.83 C 410.52 189.79 413.03 191.65 414.61 189.70 C 420.16 184.21 422.23 176.33 426.72 170.08 C 428.19 170.65 429.81 170.99 431.09 172.00 C 428.80 177.25 426.05 182.29 423.53 187.44 C 420.69 193.28 415.69 198.52 409.13 199.87 C 405.68 200.28 401.59 200.77 398.78 198.25 C 397.09 196.99 396.35 194.96 395.51 193.12 C 391.80 200.68 383.72 206.49 375.03 205.25 C 371.14 205.08 368.48 201.76 367.29 198.35 C 363.81 203.55 359.29 208.78 352.88 210.11 C 348.97 211.10 344.09 211.13 341.20 207.87 C 338.26 204.70 338.66 199.99 339.45 196.08 C 341.51 188.74 343.01 181.26 345.01 173.90 C 349.63 172.85 354.33 172.18 359.01 171.37 C 357.31 177.71 355.80 184.09 354.34 190.48 C 353.76 194.12 353.25 198.35 356.08 201.22 C 360.35 199.23 362.48 194.80 364.77 190.95 C 366.48 187.73 368.56 184.72 370.15 181.44 C 371.46 177.36 371.97 173.07 373.07 168.93 C 377.66 167.85 382.33 167.17 386.99 166.42 C 385.32 173.22 383.74 180.04 382.48 186.93 C 381.81 190.13 382.24 193.85 384.95 196.01 C 389.63 193.20 391.84 187.98 394.43 183.43 C 400.42 174.50 398.94 163.08 402.66 153.29 C 398.87 154.13 394.98 154.03 391.13 154.14 C 393.91 150.39 398.90 151.19 402.88 149.92 C 403.63 146.29 404.39 142.66 405.13 139.02 Z" />
<path fill="#f8e132" opacity="1.00" d=" M 242.12 141.88 C 246.12 140.98 250.24 140.82 254.25 139.94 C 248.50 156.92 242.73 173.92 237.46 191.06 C 236.82 193.96 235.11 197.73 238.00 199.99 C 239.46 199.13 241.24 198.56 242.13 197.02 C 245.53 192.33 248.51 187.37 251.32 182.32 C 252.42 180.38 253.50 178.29 255.49 177.11 C 258.20 177.31 258.61 180.25 256.94 182.00 C 251.25 190.76 247.69 201.51 238.96 207.84 C 233.99 211.96 225.17 210.68 222.79 204.28 C 217.67 210.68 209.54 215.77 201.07 214.18 C 196.93 213.49 194.15 209.76 193.31 205.85 C 188.83 210.88 184.55 218.02 176.99 218.09 C 172.88 218.80 168.71 215.17 168.90 211.02 C 168.83 201.17 178.20 193.69 176.96 183.68 C 173.29 188.14 170.46 193.25 166.32 197.33 C 162.73 205.21 160.48 213.67 156.83 221.53 C 152.61 221.93 148.46 222.82 144.23 223.17 C 145.11 220.88 145.94 218.57 146.71 216.25 C 142.27 220.76 136.94 225.86 130.05 225.14 C 127.02 225.43 124.49 222.80 124.00 219.98 C 123.46 216.35 123.86 212.58 125.30 209.19 C 128.73 200.68 131.96 192.06 135.60 183.64 C 139.66 182.70 143.87 182.32 148.02 181.84 C 144.77 189.74 141.56 197.68 138.76 205.75 C 138.03 208.69 136.99 212.39 139.18 214.95 C 145.34 211.11 148.30 204.10 152.42 198.42 C 156.65 192.95 158.44 186.20 161.08 179.92 C 165.24 179.02 169.49 178.64 173.68 177.91 C 172.62 180.72 171.41 183.46 170.49 186.32 C 174.17 182.75 176.24 177.46 181.01 175.09 C 183.98 174.18 188.00 174.48 189.67 177.49 C 191.47 179.93 191.10 183.11 190.91 185.96 C 189.77 192.27 185.74 197.73 184.86 204.09 C 184.58 205.83 186.07 206.59 187.13 205.17 C 194.81 196.56 198.76 185.14 207.40 177.31 C 211.99 173.18 217.52 169.27 223.96 169.28 C 226.97 169.23 229.24 171.37 231.44 173.11 C 234.79 162.63 238.58 152.30 242.12 141.88 M 217.81 175.77 C 212.12 180.47 209.09 187.72 208.09 194.89 C 207.63 197.90 208.72 200.96 210.85 203.11 C 216.16 203.99 220.05 199.77 222.82 195.86 C 225.27 192.77 225.90 188.78 227.31 185.19 C 228.86 181.47 227.81 176.81 224.85 174.09 C 222.41 173.27 219.70 174.12 217.81 175.77 Z" />
<path fill="#f8e132" opacity="1.00" d=" M 144.51 163.64 C 147.09 161.94 151.21 163.83 151.18 167.00 C 151.88 171.56 146.64 175.73 142.39 173.72 C 138.65 171.08 140.62 165.07 144.51 163.64 Z" />
<path fill="#f8e132" opacity="1.00" d=" M 443.27 188.18 C 447.69 186.73 455.11 187.14 455.77 192.99 C 455.88 201.89 444.40 207.04 437.13 203.07 C 434.42 201.52 434.29 197.97 435.15 195.32 C 436.51 191.81 439.74 189.29 443.27 188.18 Z" />
</g>
</svg>
