<?xml version="1.0" encoding="UTF-8" standalone="no"?>
<!DOCTYPE svg PUBLIC "-//W3C//DTD SVG 1.1//EN" "http://www.w3.org/Graphics/SVG/1.1/DTD/svg11.dtd">
<svg width="100%" height="100%" viewBox="0 0 472 286" version="1.1" xmlns="http://www.w3.org/2000/svg" xmlns:xlink="http://www.w3.org/1999/xlink" xml:space="preserve" xmlns:serif="http://www.serif.com/" style="fill-rule:evenodd;clip-rule:evenodd;">
    <g transform="matrix(1,0,0,1,-38.8399,-93.1267)">
        <path d="M318.05,98.81C320.933,95.92 324.516,93.313 324.26,93.32C324.26,93.32 329.85,117.01 338.95,125.02C354.12,137.97 373.98,143.25 393.11,147.17C402.73,149.08 412.37,150.95 421.92,153.18C433.96,155.91 446.07,159.16 456.86,165.33C474.51,175.07 490.07,189.29 499.72,207.13C507.29,219.99 511.32,235.05 510.51,249.98C510.06,267.78 502.68,284.94 491.65,298.74C484.95,307.2 477.4,315.25 467.99,320.71C457.51,327.22 445.77,331.76 433.57,333.73C433.41,346.29 433.19,358.98 430.51,371.3C429.55,375.06 424.83,374.13 421.9,374.57C408.39,376.64 394.66,377.26 381.02,376.39C378.96,376.36 377.31,375.01 375.59,374.09C375.61,372.42 375.65,370.75 375.73,369.09C370.52,369.3 365.28,370.17 360.08,369.56C357.99,369.03 357.98,366.33 358.97,364.82C363.07,356.59 365.92,347.56 365.9,338.29C350.38,341.36 334.66,343.33 318.9,344.46C306.93,344.74 294.95,344.73 282.98,344.45C265.44,343.14 247.95,340.52 231.03,335.58C228.62,347.92 227.21,360.44 226.4,372.98C226.44,374.42 225.65,375.98 224.2,376.43C216.51,379.52 208.09,378.63 200,378.76C191.9,378.83 183.73,378.43 175.9,376.23C174.39,375.69 172.98,374.86 171.75,373.84C171.04,372.26 171.66,370.48 171.63,368.83C167.03,368.68 161.73,368.09 158.57,364.35C156.59,361.81 157.94,358.66 158.88,356.02C162.86,345.72 165.76,335.04 168.47,324.36C169.97,319.03 170.16,313.43 169.82,307.94C169.66,306.7 169.78,305.08 168.35,304.55C162.07,300.5 154.21,300.67 147.2,302.42C130.52,306.38 113.94,310.95 96.96,313.49C91.01,313.85 84.97,314.08 79.06,313.26C71.75,311.19 64.91,306.91 60.11,301C61.05,300.02 61.99,299.07 62.94,298.11C61.67,293.58 59.84,289.1 59.61,284.35C59.5,282.63 61.19,281.12 62.89,281.6C66.64,284.17 69.66,287.65 73.26,290.41C73.5,286.58 72.69,282.19 75.94,279.36C80.27,281.52 83.77,284.9 87.35,288.07C88.52,285.98 88.69,283.01 90.69,281.55C95.64,280.28 99.99,283.95 104.31,285.75C107.88,285.59 111.14,283.72 114.53,282.72C123.17,279.3 132.01,276.17 140.09,271.55C130.09,271.47 120.09,274.24 110.07,272.81C104.48,272.56 98.9,272.2 93.3,272.08C90.76,274.44 88.68,279.22 84.58,278.42C81.34,276.37 79.2,273.05 76.92,270.05C74.97,273.45 73.52,277.37 70.11,279.63C65.65,275.19 63.77,269.02 60.84,263.59C58.88,268.53 58.56,274.87 53.92,278.19C52.44,277.71 51.17,276.76 50.61,275.26C48.08,269.64 46.32,263.71 44.04,257.98C43.12,254.63 38.22,253.4 39.15,249.38C40.65,240.66 43.51,232 48.48,224.61C50.92,220.86 55.39,218.5 59.87,218.72C66.46,220.51 70.67,226.41 74.24,231.83C96.96,232.25 119.61,230.47 142.32,230.27C145.06,224.39 147.87,218.15 153.25,214.18C157.36,211.02 163.35,209.24 168.15,211.94C172.25,213.92 174.41,218.16 176.44,222C180.67,217.01 185.26,211.22 192.16,210.23C197.12,209.01 202.14,211.94 204.97,215.92C208.76,221.12 209.95,227.62 210.79,233.85C215.22,230.24 218.12,225.08 222.82,221.78C225.13,220.26 227.59,222.22 229.36,223.67C233.09,226.9 236.45,230.55 240.2,233.78C244.34,230.04 247.86,225.65 252.12,222.03C253.6,220.7 255.97,219.9 257.65,221.38C262.5,224.96 266.3,229.74 270.94,233.59C275.2,229.99 279.16,226 283.74,222.79C285.68,221.4 288.66,220.61 290.6,222.45C294.7,225.93 297.31,231.23 302.16,233.76C306,233.07 308.66,229.69 312.06,227.97C315.41,226.22 318.74,222.6 322.81,223.71C327.34,227.08 331.19,231.3 335.81,234.6C340.87,231.61 345.23,227.66 350.05,224.33C355.17,227.48 359.34,231.85 363.95,235.64C368.24,232.19 372.49,228.6 377.33,225.92C379.18,224.74 380.96,226.67 382.24,227.83C385.42,231.21 388.57,234.63 391.81,237.96C395.78,234.47 399.46,229.74 404.72,228.39C409.85,232.17 414.01,237.24 419.32,240.81C423.19,241.15 425.74,237.71 427.98,235.09C432.14,230.12 432.96,223 431.04,216.95C427.92,211.38 422.13,207.93 416.5,205.29C406.13,200.24 394.61,198.58 383.51,195.87C367.52,191.65 351.74,185.57 338.37,175.66C326.82,166.8 317.51,154.41 314.3,140.04C310.76,126.37 312.89,111.78 318.05,98.81M321.04,102.7C316.33,117 315.63,132.89 321.05,147.11C326.44,158.87 335.38,168.79 346.2,175.81C358.03,182.6 370.74,188.03 384.05,191.12C396.62,194.34 409.92,196.06 421.36,202.63C427.44,205.95 433.71,210.56 435.63,217.57C438.4,225.81 435,235.08 428.99,240.99C425.36,244.66 420.05,246.09 415.01,246.05C402.11,245.16 389.23,244.05 376.4,242.39C367.76,241.19 359.01,241.55 350.35,240.55C332.35,238.42 314.19,236.43 296.06,237.63C289.85,237.85 283.61,237.45 277.44,238.35C268.29,238.54 259.14,238.69 250,238.84C242.01,239.83 233.95,239.34 225.93,239.7C219.85,240.31 213.78,241.13 207.81,242.45C205.44,236.02 206.36,228.83 203.45,222.54C202.05,218.8 199.17,215.15 194.98,214.58C190.46,214.38 186.42,217.29 183.55,220.54C180.66,223.71 178.91,228.54 174.19,229.35C172.24,225 171.15,219.87 167.19,216.8C164.98,214.82 161.69,215.11 159.06,215.92C152.36,219.47 149.04,226.61 146.1,233.21C142.93,235.45 138.69,234.49 135.04,234.8C114.1,235.83 93.11,236 72.14,235.88C68.96,231.52 65.99,226.52 61,224.02C58.06,222.41 54.46,224.12 52.62,226.6C48.77,231.7 46.91,237.91 44.95,243.9C44.4,245.98 43.53,248.09 43.74,250.28C47.55,253.48 52.43,254.99 56.92,256.96C71.43,262.33 86.49,266.66 102,267.66C118.91,269.65 136.29,268.26 152.48,262.85C152.95,260.04 153.47,257.25 154.22,254.51C154.79,254.45 155.94,254.35 156.51,254.29C157.32,258 157.28,261.91 158.73,265.46C160.77,269.34 165.04,271.6 166.48,275.88C164.87,275.77 163.22,275.86 161.64,275.46C159.19,273.55 157.18,271.14 154.96,268.98C135.03,280.74 113.12,288.75 90.91,294.99C83.06,297.61 74.84,298.93 67.09,301.85C73.7,308.13 83.03,310.42 91.95,309.42C110.67,307.59 128.68,301.79 147.01,297.85C155.07,296.84 164.16,295.95 171.22,300.84C175.01,304.27 177.25,309.08 179.17,313.74C181.91,321.42 184.63,329.32 184.67,337.58C184.74,342.81 185.02,348.19 183.42,353.25C181.44,359.52 178.69,365.5 176.15,371.56C177.81,372.14 179.49,372.71 181.22,373.05C190.78,374.29 200.43,374.56 210.06,374.47C213.99,374.02 217.89,373.3 221.76,372.48C223.31,358.5 224.27,344.4 227.83,330.73C229.47,327.05 233.467,325.597 236.94,324.24C241.92,322.293 250.72,320.5 257.71,319.05C269.05,316.11 280.67,314.59 292.22,312.8C299.49,312.05 307.02,312.16 314.15,311.14C315.7,311.69 317.41,311.04 319.03,311.03C327.05,310.08 335.07,311.48 343.08,311.91C358.04,314.2 373.49,317.38 386.36,325.77C389.98,327.87 389.52,332.43 389.35,336C388.15,348.15 384.77,359.99 380.25,371.31C390.72,373.64 401.57,372.11 412.12,371.1C416.46,370.46 420.97,370.68 425.15,369.22C427.32,368.24 426.76,365.32 427.33,363.38C429.16,352.43 428.54,341.32 428.87,330.28C436.88,328.32 445.04,326.74 452.69,323.54C465.19,318.1 476.77,310.01 485.16,299.14C495.54,287.46 502.83,272.97 505.41,257.52C505.98,251.43 505.84,245.28 505.64,239.17C503.93,222.35 495.75,206.83 485.03,193.99C473.86,181.11 459.79,170.65 443.94,164.26C433.78,160.14 422.91,158.33 412.28,155.84C405.92,154.5 383.87,149.83 379.23,148.73C363.07,144.75 346.97,138.48 334.47,127.15C331.54,123.52 328.26,120.08 326.18,115.85C324.12,111.61 323,106.99 321.04,102.7M214.36,236.69C221.21,236.82 227.97,235.5 234.81,235.36C231.88,231.87 228.3,229.03 224.93,225.99C221.27,229.41 217.64,232.89 214.36,236.69M246.06,234.89C252.31,235.04 258.57,234.88 264.83,234.58C262.05,231.23 259.07,227.77 255.11,225.83C251.33,227.95 248.82,231.66 246.06,234.89M277.56,233.91C283.32,234.02 289.08,233.84 294.84,233.82C292.24,231.37 290.01,228.59 287.81,225.8C284.03,228.02 280.83,231.03 277.56,233.91M311.75,233.51C317.2,233.68 322.63,234.11 328.07,234.51C325.75,232.37 323.58,230.03 321.01,228.2C317.68,229.49 314.79,231.67 311.75,233.51M343.01,235.31C348.01,236.18 353.07,236.54 358.14,236.67C355.45,234.46 353.07,231.82 350.02,230.11C347.44,231.49 345.23,233.44 343.01,235.31M368.98,237.35C374.56,238.38 380.22,238.81 385.88,238.81C383.66,235.96 381.3,233.2 378.7,230.68C375.08,232.29 372.19,235.09 368.98,237.35M395.94,240.32C401.79,241.12 407.67,241.78 413.6,241.78C410.78,238.72 407.65,235.98 404.54,233.23C401.4,235.23 398.56,237.68 395.94,240.32M48.97,258.84C50.21,262.94 51.85,266.93 53.98,270.66C54.84,267.64 55.7,264.6 55.98,261.46C53.66,260.53 51.33,259.63 48.97,258.84M66.34,265.08C67.68,267.57 68.94,270.11 70.33,272.57C71.2,270.67 72.05,268.77 72.85,266.85C70.67,266.29 68.51,265.67 66.34,265.08M81.89,269.49C83.12,270.83 84.38,272.15 85.68,273.43C86.49,272.51 87.31,271.6 88.14,270.7C86.06,270.26 83.99,269.8 81.89,269.49M92.72,285.79C92.61,287.13 92.44,288.49 92.61,289.84C94.57,289.31 96.49,288.62 98.42,287.99C96.55,287.18 94.65,286.43 92.72,285.79M77.72,286.52C77.6,288.98 77.54,291.43 77.51,293.89C79.62,293.51 81.74,293.1 83.79,292.46C83.83,289.24 79.92,288.11 77.72,286.52M66.78,296.6C68.47,296.82 70.14,296.29 71.79,295.98C69.69,293.43 67.23,291.24 64.78,289.05C65.51,291.55 66.01,294.11 66.78,296.6M174.98,315.77C172.9,327.98 169.13,339.79 165.35,351.56C164.06,355.1 162.7,358.66 162.17,362.41C166.08,363.62 170.11,364.37 174.2,364.61C176.66,359.24 179.03,353.75 179.97,347.88C181.69,336.93 178.55,326.02 174.98,315.77M300.15,316.45C302.25,324.24 302.55,332.57 300,340.3C308.35,340.54 316.66,339.74 325,339.44C326.65,339.29 328.8,339.44 329.6,337.61C334.01,331.4 332.97,323.42 332.49,316.28C321.72,315.88 310.93,316.09 300.15,316.45M337.03,316.41C337.43,318.94 337.92,321.46 338.14,324.02C338.16,329.03 336.5,333.82 335.1,338.57C342.39,337.44 349.78,336.89 356.98,335.21C359.18,334.78 359.47,332.22 360.24,330.49C360.95,326.96 360.79,323.07 359.1,319.83C351.94,317.73 344.44,317.04 337.03,316.41M272.21,320.35C272.96,326.48 272.72,332.82 270.28,338.57C278.42,339.61 286.64,340.13 294.84,339.82C297.57,332.76 297.68,324.65 295.59,317.43C287.73,317.09 279.96,319.24 272.21,320.35M365.21,321.05C365.35,325.25 365.34,329.45 365.03,333.65C371.16,332.33 377.25,330.8 383.27,329.01C377.53,325.75 371.41,323.25 365.21,321.05M250.04,325.72C250.26,329.03 250.38,332.35 250.26,335.67C254.98,336.44 259.69,337.77 264.51,337.68C269,333.86 267.5,327.19 267.72,321.98C261.67,322.36 255.9,324.33 250.04,325.72M233.21,330.93C237.21,332.46 241.35,333.69 245.63,334C245.63,331.76 245.57,329.52 245.45,327.28C241.29,328.2 237.22,329.5 233.21,330.93M370.47,337.46C370.54,346.85 367.75,355.91 364.71,364.69C369.15,364.62 373.61,364.53 378.01,363.8C379.3,360.38 380.65,356.96 381.45,353.39C382.84,346.78 385.14,340.2 384.44,333.35C379.86,334.97 375.16,336.2 370.47,337.46Z" style="fill:rgb(15,6,15);fill-rule:nonzero;stroke:rgb(15,6,15);stroke-width:0.09px;"/>
        <path d="M158.4,221.36C161.57,220.56 165.5,222.61 165.68,226.08C165.98,230.29 166.03,234.55 165.64,238.76C164.98,243.78 156.93,244.31 154.66,240.34C153.72,235.39 154.12,230.24 154.39,225.23C154.37,223.11 156.57,221.8 158.4,221.36Z" style="fill:rgb(15,6,15);fill-rule:nonzero;stroke:rgb(15,6,15);stroke-width:0.09px;"/>
        <path d="M190.52,221.52C193.73,220.49 197.7,221.89 198.39,225.47C198.95,229.85 198.76,234.32 198.42,238.71C197.49,243.61 190.02,244.46 187.44,240.51C186.76,235.75 187.06,230.86 187.17,226.06C187.05,223.97 188.49,222.02 190.52,221.52Z" style="fill:rgb(15,6,15);fill-rule:nonzero;stroke:rgb(15,6,15);stroke-width:0.09px;"/>
        <path d="M52.32,231.16C53.44,231.24 54.55,231.31 55.67,231.39C55.83,235.16 55.75,238.94 55.67,242.72C54.54,242.72 53.4,242.73 52.26,242.75C52.17,238.89 52.16,235.02 52.32,231.16Z" style="fill:rgb(15,6,15);fill-rule:nonzero;stroke:rgb(15,6,15);stroke-width:0.09px;"/>
        <path d="M61.43,231.32C61.43,231.32 64.12,231.34 65.46,231.37C65.6,235.13 65.63,238.89 65.55,242.65C64.19,242.62 62.84,242.58 61.49,242.52C61.36,238.79 61.43,231.32 61.43,231.32Z" style="fill:rgb(15,6,15);fill-rule:nonzero;stroke:rgb(15,6,15);stroke-width:0.09px;"/>
        <path d="M321.04,102.7C323,106.99 324.12,111.61 326.18,115.85C328.26,120.08 331.54,123.52 334.47,127.15C330.54,134.08 328.44,142.93 321.05,147.11C315.63,132.89 316.33,117 321.04,102.7Z" style="fill:rgb(215,2,112);fill-rule:nonzero;stroke:rgb(215,2,112);stroke-width:0.09px;"/>
        <path d="M159.06,215.92C161.69,215.11 164.98,214.82 167.19,216.8C171.15,219.87 172.24,225 174.19,229.35C178.91,228.54 180.66,223.71 183.55,220.54C186.42,217.29 190.46,214.38 194.98,214.58C199.17,215.15 202.05,218.8 203.45,222.54C206.36,228.83 205.44,236.02 207.81,242.45C213.78,241.13 219.85,240.31 225.93,239.7C233.95,239.34 242.01,239.83 250,238.84C259.14,238.69 268.29,238.54 277.44,238.35C276.49,243.53 274.83,248.58 272.17,253.14C262.21,271.21 253.83,290.08 244.57,308.51C241.88,313.68 239.66,319.08 236.94,324.24C233.97,326.45 229.47,327.05 227.83,330.73C223.6,339.75 225.06,350.37 220.09,359.13C216.97,364.34 216.07,371.62 210.06,374.47C200.43,374.56 190.78,374.29 181.22,373.05C179.49,372.71 177.81,372.14 176.15,371.56C178.69,365.5 181.44,359.52 183.42,353.25C185.02,348.19 184.74,342.81 184.67,337.58C184.63,329.32 181.91,321.42 179.17,313.74C177.25,309.08 175.01,304.27 171.22,300.84C164.16,295.95 155.07,296.84 147.01,297.85C128.68,301.79 110.67,307.59 91.95,309.42C83.03,310.42 73.7,308.13 67.09,301.85C74.84,298.93 83.06,297.61 90.91,294.99C113.12,288.75 135.03,280.74 154.96,268.98C157.18,271.14 159.19,273.55 161.64,275.46C163.22,275.86 164.87,275.77 166.48,275.88C165.04,271.6 160.77,269.34 158.73,265.46C157.28,261.91 157.32,258 156.51,254.29C155.94,254.35 154.79,254.45 154.22,254.51C153.47,257.25 152.95,260.04 152.48,262.85C136.29,268.26 118.91,269.65 102,267.66C86.49,266.66 71.43,262.33 56.92,256.96C52.43,254.99 47.55,253.48 43.74,250.28C43.53,248.09 44.4,245.98 44.95,243.9C46.91,237.91 48.77,231.7 52.62,226.6C54.46,224.12 58.06,222.41 61,224.02C65.99,226.52 68.96,231.52 72.14,235.88C93.11,236 114.1,235.83 135.04,234.8C138.69,234.49 142.93,235.45 146.1,233.21C149.04,226.61 152.36,219.47 159.06,215.92M158.4,221.36C156.57,221.8 154.37,223.11 154.39,225.23C154.12,230.24 153.72,235.39 154.66,240.34C156.93,244.31 164.98,243.78 165.64,238.76C166.03,234.55 165.98,230.29 165.68,226.08C165.5,222.61 161.57,220.56 158.4,221.36M190.52,221.52C188.49,222.02 187.05,223.97 187.17,226.06C187.06,230.86 186.76,235.75 187.44,240.51C190.02,244.46 197.49,243.61 198.42,238.71C198.76,234.32 198.95,229.85 198.39,225.47C197.7,221.89 193.73,220.49 190.52,221.52M52.32,231.16C52.16,235.02 52.17,238.89 52.26,242.75C53.4,242.73 54.54,242.72 55.67,242.72C55.75,238.94 55.83,235.16 55.67,231.39C54.55,231.31 53.44,231.24 52.32,231.16M61.43,231.32C61.32,235.05 61.36,238.79 61.49,242.52C62.84,242.58 64.19,242.62 65.55,242.65C65.63,238.89 65.6,235.13 65.46,231.37C64.12,231.34 62.77,231.32 61.43,231.32Z" style="fill:rgb(215,2,112);fill-rule:nonzero;stroke:rgb(215,2,112);stroke-width:0.09px;"/>
        <path d="M174.98,315.77C178.55,326.02 181.69,336.93 179.97,347.88C179.03,353.75 176.66,359.24 174.2,364.61C170.11,364.37 166.08,363.62 162.17,362.41C162.7,358.66 164.06,355.1 165.35,351.56C169.13,339.79 172.9,327.98 174.98,315.77Z" style="fill:rgb(215,2,112);fill-rule:nonzero;stroke:rgb(215,2,112);stroke-width:0.09px;"/>
        <path d="M334.47,127.15C346.97,138.48 363.07,144.75 379.23,148.73C383.87,149.83 395.652,152.094 396.572,152.534C394.052,155.904 390.82,160.11 388.87,163.86C386.45,168.42 385.44,173.58 383.06,178.16C381.84,180.7 380.18,183.1 379.59,185.9C380.52,188.04 382.35,189.59 384.05,191.12C370.74,188.03 358.03,182.6 346.2,175.81C335.38,168.79 326.44,158.87 321.05,147.11C328.44,142.93 330.54,134.08 334.47,127.15Z" style="fill:rgb(115,79,150);fill-rule:nonzero;stroke:rgb(115,79,150);stroke-width:0.09px;"/>
        <path d="M277.44,238.35C283.61,237.45 289.85,237.85 296.06,237.63C314.19,236.43 332.35,238.42 350.35,240.55C346.18,250.75 341.85,260.9 336.71,270.66C332.03,279.21 328.29,288.23 324.07,297.02C321.56,302.21 318.87,310.92 319.03,311.03C311.904,312.788 299.49,312.05 292.22,312.8C280.67,314.59 269.05,316.11 257.71,319.05C250.72,320.5 243.98,323 236.94,324.24C239.66,319.08 241.88,313.68 244.57,308.51C253.83,290.08 262.21,271.21 272.17,253.14C274.83,248.58 276.49,243.53 277.44,238.35Z" style="fill:rgb(115,79,150);fill-rule:nonzero;stroke:rgb(115,79,150);stroke-width:0.09px;"/>
        <path d="M220.09,359.13C225.06,350.37 223.6,339.75 227.83,330.73C224.27,344.4 223.31,358.5 221.76,372.48C217.89,373.3 213.99,374.02 210.06,374.47C216.07,371.62 216.97,364.34 220.09,359.13Z" style="fill:rgb(115,79,150);fill-rule:nonzero;stroke:rgb(115,79,150);stroke-width:0.09px;"/>
        <path d="M392.186,158.515C391.71,158.287 396.572,152.534 396.572,152.534C396.572,152.534 409.209,155.193 412.28,155.84C422.91,158.33 433.78,160.14 443.94,164.26C459.79,170.65 473.86,181.11 485.03,193.99C495.75,206.83 503.93,222.35 505.64,239.17C505.84,245.28 505.98,251.43 505.41,257.52C502.83,272.97 495.54,287.46 485.16,299.14C476.77,310.01 465.19,318.1 452.69,323.54C445.04,326.74 436.88,328.32 428.87,330.28C428.54,341.32 429.16,352.43 427.33,363.38C426.76,365.32 427.32,368.24 425.15,369.22C420.97,370.68 416.46,370.46 412.12,371.1C401.57,372.11 390.72,373.64 380.25,371.31C384.77,359.99 388.15,348.15 389.35,336C389.52,332.43 389.98,327.87 386.36,325.77C373.49,317.38 358.04,314.2 343.08,311.91C335.07,311.48 327.05,310.08 319.03,311.03C317.41,311.04 321.56,302.21 324.07,297.02C328.29,288.23 332.03,279.21 336.71,270.66C341.85,260.9 346.18,250.75 350.35,240.55C359.01,241.55 367.76,241.19 376.4,242.39C389.23,244.05 402.11,245.16 415.01,246.05C420.05,246.09 425.36,244.66 428.99,240.99C435,235.08 438.4,225.81 435.63,217.57C433.71,210.56 427.44,205.95 421.36,202.63C409.92,196.06 377.33,191.213 376.4,189.073C376.99,186.273 386.45,168.42 388.87,163.86C390.82,160.11 389.666,161.885 392.186,158.515Z" style="fill:rgb(0,56,168);fill-rule:nonzero;stroke:rgb(0,56,168);stroke-width:0.09px;"/>
        <path d="M370.47,337.46C375.16,336.2 379.86,334.97 384.44,333.35C385.14,340.2 382.84,346.78 381.45,353.39C380.65,356.96 379.3,360.38 378.01,363.8C373.61,364.53 369.15,364.62 364.71,364.69C367.75,355.91 370.54,346.85 370.47,337.46Z" style="fill:rgb(0,56,168);fill-rule:nonzero;stroke:rgb(0,56,168);stroke-width:0.09px;"/>
        <path d="M214.36,236.69C217.64,232.89 221.27,229.41 224.93,225.99C228.3,229.03 231.88,231.87 234.81,235.36C227.97,235.5 221.21,236.82 214.36,236.69Z" style="fill:rgb(208,200,233);fill-rule:nonzero;stroke:rgb(208,200,233);stroke-width:0.09px;"/>
        <path d="M246.06,234.89C248.82,231.66 251.33,227.95 255.11,225.83C259.07,227.77 262.05,231.23 264.83,234.58C258.57,234.88 252.31,235.04 246.06,234.89Z" style="fill:rgb(208,200,233);fill-rule:nonzero;stroke:rgb(208,200,233);stroke-width:0.09px;"/>
        <path d="M277.56,233.91C280.83,231.03 284.03,228.02 287.81,225.8C290.01,228.59 292.24,231.37 294.84,233.82C289.08,233.84 283.32,234.02 277.56,233.91Z" style="fill:rgb(208,200,233);fill-rule:nonzero;stroke:rgb(208,200,233);stroke-width:0.09px;"/>
        <path d="M311.75,233.51C314.79,231.67 317.68,229.49 321.01,228.2C323.58,230.03 325.75,232.37 328.07,234.51C322.63,234.11 317.2,233.68 311.75,233.51Z" style="fill:rgb(208,200,233);fill-rule:nonzero;stroke:rgb(208,200,233);stroke-width:0.09px;"/>
        <path d="M343.01,235.31C345.23,233.44 347.44,231.49 350.02,230.11C353.07,231.82 355.45,234.46 358.14,236.67C353.07,236.54 348.01,236.18 343.01,235.31Z" style="fill:rgb(208,200,233);fill-rule:nonzero;stroke:rgb(208,200,233);stroke-width:0.09px;"/>
        <path d="M368.98,237.35C372.19,235.09 375.08,232.29 378.7,230.68C381.3,233.2 383.66,235.96 385.88,238.81C380.22,238.81 374.56,238.38 368.98,237.35Z" style="fill:rgb(208,200,233);fill-rule:nonzero;stroke:rgb(208,200,233);stroke-width:0.09px;"/>
        <path d="M395.94,240.32C398.56,237.68 401.4,235.23 404.54,233.23C407.65,235.98 410.78,238.72 413.6,241.78C407.67,241.78 401.79,241.12 395.94,240.32Z" style="fill:rgb(208,200,233);fill-rule:nonzero;stroke:rgb(208,200,233);stroke-width:0.09px;"/>
        <path d="M48.97,258.84C51.33,259.63 53.66,260.53 55.98,261.46C55.7,264.6 54.84,267.64 53.98,270.66C51.85,266.93 50.21,262.94 48.97,258.84Z" style="fill:rgb(208,200,233);fill-rule:nonzero;stroke:rgb(208,200,233);stroke-width:0.09px;"/>
        <path d="M66.34,265.08C68.51,265.67 70.67,266.29 72.85,266.85C72.05,268.77 71.2,270.67 70.33,272.57C68.94,270.11 67.68,267.57 66.34,265.08Z" style="fill:rgb(208,200,233);fill-rule:nonzero;stroke:rgb(208,200,233);stroke-width:0.09px;"/>
        <path d="M81.89,269.49C83.99,269.8 86.06,270.26 88.14,270.7C87.31,271.6 86.49,272.51 85.68,273.43C84.38,272.15 83.12,270.83 81.89,269.49Z" style="fill:rgb(208,200,233);fill-rule:nonzero;stroke:rgb(208,200,233);stroke-width:0.09px;"/>
        <path d="M92.72,285.79C94.65,286.43 96.55,287.18 98.42,287.99C96.49,288.62 94.57,289.31 92.61,289.84C92.44,288.49 92.61,287.13 92.72,285.79Z" style="fill:rgb(208,200,233);fill-rule:nonzero;stroke:rgb(208,200,233);stroke-width:0.09px;"/>
        <path d="M77.72,286.52C79.92,288.11 83.83,289.24 83.79,292.46C81.74,293.1 79.62,293.51 77.51,293.89C77.54,291.43 77.6,288.98 77.72,286.52Z" style="fill:rgb(208,200,233);fill-rule:nonzero;stroke:rgb(208,200,233);stroke-width:0.09px;"/>
        <path d="M66.78,296.6C66.01,294.11 65.51,291.55 64.78,289.05C67.23,291.24 69.69,293.43 71.79,295.98C70.14,296.29 68.47,296.82 66.78,296.6Z" style="fill:rgb(208,200,233);fill-rule:nonzero;stroke:rgb(208,200,233);stroke-width:0.09px;"/>
        <path d="M300.15,316.45C310.93,316.09 321.72,315.88 332.49,316.28C332.97,323.42 334.01,331.4 329.6,337.61C328.8,339.44 326.65,339.29 325,339.44C316.66,339.74 308.35,340.54 300,340.3C302.55,332.57 302.25,324.24 300.15,316.45Z" style="fill:rgb(208,200,233);fill-rule:nonzero;stroke:rgb(208,200,233);stroke-width:0.09px;"/>
        <path d="M337.03,316.41C344.44,317.04 351.94,317.73 359.1,319.83C360.79,323.07 360.95,326.96 360.24,330.49C359.47,332.22 359.18,334.78 356.98,335.21C349.78,336.89 342.39,337.44 335.1,338.57C336.5,333.82 338.16,329.03 338.14,324.02C337.92,321.46 337.43,318.94 337.03,316.41Z" style="fill:rgb(208,200,233);fill-rule:nonzero;stroke:rgb(208,200,233);stroke-width:0.09px;"/>
        <path d="M272.21,320.35C279.96,319.24 287.73,317.09 295.59,317.43C297.68,324.65 297.57,332.76 294.84,339.82C286.64,340.13 278.42,339.61 270.28,338.57C272.72,332.82 272.96,326.48 272.21,320.35Z" style="fill:rgb(208,200,233);fill-rule:nonzero;stroke:rgb(208,200,233);stroke-width:0.09px;"/>
        <path d="M365.21,321.05C371.41,323.25 377.53,325.75 383.27,329.01C377.25,330.8 371.16,332.33 365.03,333.65C365.34,329.45 365.35,325.25 365.21,321.05Z" style="fill:rgb(208,200,233);fill-rule:nonzero;stroke:rgb(208,200,233);stroke-width:0.09px;"/>
        <path d="M250.04,325.72C255.9,324.33 261.67,322.36 267.72,321.98C267.5,327.19 269,333.86 264.51,337.68C259.69,337.77 254.98,336.44 250.26,335.67C250.38,332.35 250.26,329.03 250.04,325.72Z" style="fill:rgb(208,200,233);fill-rule:nonzero;stroke:rgb(208,200,233);stroke-width:0.09px;"/>
        <path d="M233.21,330.93C237.22,329.5 241.29,328.2 245.45,327.28C245.57,329.52 245.63,331.76 245.63,334C241.35,333.69 237.21,332.46 233.21,330.93Z" style="fill:rgb(208,200,233);fill-rule:nonzero;stroke:rgb(208,200,233);stroke-width:0.09px;"/>
    </g>
</svg>
