<svg clip-rule="evenodd" fill-rule="evenodd" viewBox="0 0 885 600" xmlns="http://www.w3.org/2000/svg"><path d="m996.482 81.925c0-40.417-37.599-73.231-83.91-73.231h-821.305c-46.312 0-83.911 32.814-83.911 73.231v146.462c0 40.417 37.599 73.23 83.911 73.23h821.305c46.311 0 83.91-32.813 83.91-73.23z" transform="matrix(.89381 0 0 1.02416 -6.3846 -8.90417)"/><path d="m996.482 81.925c0-40.417-37.599-73.231-83.91-73.231h-821.305c-46.312 0-83.911 32.814-83.911 73.231v146.462c0 40.417 37.599 73.23 83.911 73.23h821.305c46.311 0 83.91-32.813 83.91-73.23z" fill="#ffce00" transform="matrix(.89381 0 0 1.02416 -6.575 291.096)"/><path d="m0 200h1000v400h-1000z" fill="#d00" fill-rule="nonzero" transform="matrix(.884091 0 0 .5 .1904 100)"/><path d="m1351.01 228.29c0 312.973-234.74 570.51-520 570.51-285.264 0-520-257.537-520-570.51s234.736-570.51 520-570.51c285.26 0 520 257.537 520 570.51z" fill="#d00" fill-rule="nonzero" transform="matrix(.22320674 0 0 .2056096 256.554257 251.257016)"/><path d="m1605.68 2445.31 175.51 82.98 18.55-13.92-164.76-77.69z" fill="#ffc709" fill-rule="nonzero" stroke="#000" stroke-width="6.25" transform="matrix(-.204591 0 0 .204548 776.3635 -59.16239)"/><path d="m1605.68 2445.31 175.51 82.98 18.55-13.92-164.76-77.69z" fill="#ffc709" fill-rule="nonzero" stroke="#000" stroke-width="6.25" transform="matrix(-.204591 0 0 .204548 780.162755 -56.314816)"/><path d="m1605.68 2445.31 175.51 82.98 18.55-13.92-164.76-77.69z" fill="#ffc709" fill-rule="nonzero" stroke="#000" stroke-width="6.25" transform="matrix(-.204591 0 0 .204548 783.959964 -53.481315)"/><path d="m1605.68 2445.31 175.51 82.98 18.55-13.92-164.76-77.69z" fill="#ffc709" fill-rule="nonzero" stroke="#000" stroke-width="6.25" transform="matrix(-.204591 0 0 .204548 787.746944 -50.637873)"/><path d="m1605.68 2445.31 175.51 82.98 18.55-13.92-164.76-77.69z" fill="#ffc709" fill-rule="nonzero" stroke="#000" stroke-width="6.25" transform="matrix(-.204591 0 0 .204548 791.542107 -47.796499)"/><path d="m1605.68 2445.31 175.51 82.98 18.55-13.92-164.76-77.69z" fill="#ffc709" fill-rule="nonzero" stroke="#000" stroke-width="6.25" transform="matrix(.204591 0 0 .204548 107.438659 -59.184359)"/><path d="m1605.68 2445.31 175.51 82.98 18.55-13.92-164.76-77.69z" fill="#ffc709" fill-rule="nonzero" stroke="#000" stroke-width="6.25" transform="matrix(.204591 0 0 .204548 103.596583 -56.328889)"/><path d="m1605.68 2445.31 175.51 82.98 18.55-13.92-164.76-77.69z" fill="#ffc709" fill-rule="nonzero" stroke="#000" stroke-width="6.25" transform="matrix(.204591 0 0 .204548 99.754487 -53.47344)"/><path d="m1605.68 2445.31 175.51 82.98 18.55-13.92-164.76-77.69z" fill="#ffc709" fill-rule="nonzero" stroke="#000" stroke-width="6.25" transform="matrix(.204591 0 0 .204548 95.952061 -50.646096)"/><path d="m1605.68 2445.31 175.51 82.98 18.55-13.92-164.76-77.69z" fill="#ffc709" fill-rule="nonzero" stroke="#000" stroke-width="6.25" transform="matrix(.204591 0 0 .204548 92.172324 -47.830493)"/><path d="m1718.03 1214.38-249.53 13.4v147l249.53 13.41h27.03l208.06-30.56v-112.69l-208.06-30.56z" fill-rule="nonzero" stroke="#000" stroke-linejoin="round" stroke-width="12.5" transform="matrix(.204591 0 0 .204548 92.172324 -47.830493)"/><g fill="#ffc709"><path d="m1774.22 1529.84c0-35.81-29.07-64.89-64.88-64.89s-64.88 29.08-64.88 64.89v605.07c0 35.81 29.07 64.89 64.88 64.89s64.88-29.08 64.88-64.89z" stroke="#000" stroke-linejoin="round" stroke-width="13.75" transform="matrix(.204591 0 0 .204548 92.172324 -47.830493)"/><path d="m2002.87 1700.09c-73.75 76.15-176.98 123.57-291.28 123.57-81.71 0-157.75-24.29-221.44-65.91l-51.9 76.72c78.5 51.66 172.4 81.81 273.34 81.81 140.09 0 266.67-58.01 357.22-151.19z" fill-rule="nonzero" stroke="#000" stroke-width="13.75" transform="matrix(.204591 0 0 .204548 92.172324 -47.830493)"/><path d="m1662.75 1371.5-357.41 660.16 404.6-522.13 404.62 522.13-357.37-660.16-47.22 66.31z" fill-rule="nonzero" stroke="#000" stroke-width="13.75" transform="matrix(.204591 0 0 .204548 92.172324 -47.830493)"/><path d="m1717.6 1221.35-171.41 8.22-71.18 28.57v86.28l70.25 28.57 172.34 9.15h26.27l202.27-29.67v-102.84l-202.27-28.28z" fill-rule="nonzero" transform="matrix(.204591 0 0 .204548 92.172324 -47.830493)"/><path d="m1768.69 1411.27c0-32.79-26.61-59.41-59.39-59.41-32.79 0-59.4 26.62-59.4 59.41v2.92c0 32.79 26.61 59.41 59.4 59.41 32.78 0 59.39-26.62 59.39-59.41z" stroke="#000" stroke-linejoin="round" stroke-width="17.72" transform="matrix(.204591 0 0 .204548 92.172324 -47.830493)"/><g fill-rule="nonzero"><path d="m1734.85 1412.92c0 14.55-11.97 26.52-26.52 26.52s-26.52-11.97-26.52-26.52 11.97-26.52 26.52-26.52 26.52 11.97 26.52 26.52z" stroke="#000" stroke-linejoin="round" stroke-width="6.25" transform="matrix(.19412228 0 0 .19406062 110.270505 -33.253543)"/><path d="m1247.35 2299.71-224.59-251.16-88.15-315.15 31.39-291.01 143.7-278.94 222.18-171.46 132.82-49.51 37.44 54.34 65.2 19.32-37.43 31.39-4.83 80.91-227.01 148.52-137.66 229.42-13.28 258.41 68.83 224.6 263.23 251.16z" transform="matrix(.204591 0 0 .204548 92.172324 -47.830493)"/><path d="m991.04 1855.71s8.82 28.99 30.21 63.99c23.74 36.42 41.25 34.85 41.25 34.85s26.61 4.85 30.37-15.94c1.4-20.79-12.67-28.28-12.67-28.75 0 .47-15.36-11.27-35.2-20.16-17.02-11.23-15.93-11-25.78-24.61-6.1-15.48-4.22-4.7-19.22-65.23s-21.25-94.22-21.72-94.22l-21.49 4.21 19.46 88.14 6.81 30.03z" stroke="#000" stroke-linejoin="round" stroke-width="6.25" transform="matrix(.2044797 -.0067462 .0067476 .20443673 75.350688 -24.123584)"/><path d="m1049.23 1688.66 40.82 156.98s4.89 17.06 7.61 34.47c-.57 20.69-4.54 28.81-4.54 28.81-.47 0-2.6 10.95-4.01 22.2-.94 15.47 5.58 26.24 5.58 25.77 0 .47 4.99 8.28 20.16 9.69 17.5-.47 20.15-12.97 20.15-12.97s2.7-1.25 1.98-18.75c-.73-17.5-9.48-45-9.48-45l-58.75-212z" stroke="#000" stroke-linejoin="round" stroke-width="6.25" transform="matrix(.20445802 -.00737561 .00737712 .20441504 61.08063 -30.759305)"/><path d="m1049.23 1688.66 40.82 156.98s4.89 17.06 7.61 34.47c-.57 20.69-4.54 28.81-4.54 28.81-.47 0-2.6 10.95-4.01 22.2-.94 15.47 5.58 26.24 5.58 25.77 0 .47 4.99 8.28 20.16 9.69 17.5-.47 20.15-12.97 20.15-12.97s2.7-1.25 1.98-18.75c-.73-17.5-9.48-45-9.48-45l-58.75-212z" stroke="#000" stroke-linejoin="round" stroke-width="6.25" transform="matrix(.204591 0 0 .204548 67.575371 -46.52679)"/><path d="m991.04 1855.71s8.82 28.99 30.21 63.99c23.74 36.42 41.25 34.85 41.25 34.85s26.61 4.85 30.37-15.94c1.4-20.79-12.67-28.28-12.67-28.75 0 .47-15.36-11.27-35.2-20.16-17.02-11.23-15.93-11-25.78-24.61-6.1-15.48-4.22-4.7-19.22-65.23s-21.25-94.22-21.72-94.22l-21.49 4.21 19.46 88.14 6.81 30.03z" stroke="#000" stroke-linejoin="round" stroke-width="6.25" transform="matrix(.20455008 -.00408544 .0040863 .20450709 74.875485 -29.424773)"/><path d="m991.04 1855.71s8.82 28.99 30.21 63.99c23.74 36.42 41.25 34.85 41.25 34.85s26.61 4.85 30.37-15.94c1.4-20.79-12.67-28.28-12.67-28.75 0 .47-15.36-11.27-35.2-20.16-17.02-11.23-15.93-11-25.78-24.61-6.1-15.48-4.22-4.7-19.22-65.23s-21.25-94.22-21.72-94.22l-21.49 4.21 19.46 88.14 6.81 30.03z" stroke="#000" stroke-linejoin="round" stroke-width="6.25" transform="matrix(.1812488 .00003613 -.00004028 .20202326 122.306737 -47.942706)"/><path d="m991.04 1855.71s8.82 28.99 30.21 63.99c23.74 36.42 41.25 34.85 41.25 34.85s26.61 4.85 30.37-15.94c1.4-20.79-12.67-28.28-12.67-28.75 0 .47-15.36-11.27-35.2-20.16-17.02-11.23-15.93-11-25.78-24.61-6.1-15.48-4.22-4.7-19.22-65.23s-21.25-94.22-21.72-94.22l-21.49 4.21 19.46 88.14 6.81 30.03z" stroke="#000" stroke-linejoin="round" stroke-width="6.25" transform="matrix(.204591 0 0 .204548 103.646995 -51.830122)"/><path d="m1049.23 1688.66 40.82 156.98s4.89 17.06 7.61 34.47c-.57 20.69-4.54 28.81-4.54 28.81-.47 0-2.6 10.95-4.01 22.2-.94 15.47 5.58 26.24 5.58 25.77 0 .47 4.99 8.28 20.16 9.69 17.5-.47 20.15-12.97 20.15-12.97s2.7-1.25 1.98-18.75c-.73-17.5-9.48-45-9.48-45l-58.75-212z" stroke="#000" stroke-linejoin="round" stroke-width="6.25" transform="matrix(.204591 0 0 .204548 87.011373 -50.866844)"/><path d="m1049.23 1688.66 40.82 156.98s4.89 17.06 7.61 34.47c-.57 20.69-4.54 28.81-4.54 28.81-.47 0-2.6 10.95-4.01 22.2-.94 15.47 5.58 26.24 5.58 25.77 0 .47 4.99 8.28 20.16 9.69 17.5-.47 20.15-12.97 20.15-12.97s2.7-1.25 1.98-18.75c-.73-17.5-9.48-45-9.48-45l-58.75-212z" stroke="#000" stroke-linejoin="round" stroke-width="6.25" transform="matrix(.20421148 -.012453 .01245558 .20416856 82.05264 -27.288555)"/><path d="m991.04 1855.71s8.82 28.99 30.21 63.99c23.74 36.42 41.25 34.85 41.25 34.85s26.61 4.85 30.37-15.94c1.4-20.79-12.67-28.28-12.67-28.75 0 .47-15.36-11.27-35.2-20.16-17.02-11.23-15.93-11-25.78-24.61-6.1-15.48-4.22-4.7-19.22-65.23s-21.25-94.22-21.72-94.22l-21.49 4.21 19.46 88.14 6.81 30.03z" stroke="#000" stroke-linejoin="round" stroke-width="6.25" transform="matrix(.20449709 -.00619118 .00619246 .20445411 108.683002 -27.214304)"/><path d="m991.04 1855.71s8.82 28.99 30.21 63.99c23.74 36.42 41.25 34.85 41.25 34.85s26.61 4.85 30.37-15.94c1.4-20.79-12.67-28.28-12.67-28.75 0 .47-15.36-11.27-35.2-20.16-17.02-11.23-15.93-11-25.78-24.61-6.1-15.48-4.22-4.7-19.22-65.23s-21.25-94.22-21.72-94.22l-21.49 4.21 19.46 88.14 6.81 30.03z" stroke="#000" stroke-linejoin="round" stroke-width="6.25" transform="matrix(.204591 0 0 .204548 97.063727 -44.415257)"/><path d="m991.04 1855.71s8.82 28.99 30.21 63.99c23.74 36.42 41.25 34.85 41.25 34.85s26.61 4.85 30.37-15.94c1.4-20.79-12.67-28.28-12.67-28.75 0 .47-15.36-11.27-35.2-20.16-17.02-11.23-15.93-11-25.78-24.61-6.1-15.48-4.22-4.7-19.22-65.23s-21.25-94.22-21.72-94.22l-21.49 4.21 19.46 88.14 6.81 30.03z" stroke="#000" stroke-linejoin="round" stroke-width="6.25" transform="matrix(.204591 0 0 .204548 92.172324 -47.830493)"/><path d="m1049.23 1688.66 40.82 156.98s4.89 17.06 7.61 34.47c-.57 20.69-4.54 28.81-4.54 28.81-.47 0-2.6 10.95-4.01 22.2-.94 15.47 5.58 26.24 5.58 25.77 0 .47 4.99 8.28 20.16 9.69 17.5-.47 20.15-12.97 20.15-12.97s2.7-1.25 1.98-18.75c-.73-17.5-9.48-45-9.48-45l-58.75-212z" stroke="#000" stroke-linejoin="round" stroke-width="6.25" transform="matrix(.204591 0 0 .204548 92.172324 -47.830493)"/><path d="m991.04 1855.71s8.82 28.99 30.21 63.99c23.74 36.42 41.25 34.85 41.25 34.85s26.61 4.85 30.37-15.94c1.4-20.79-12.67-28.28-12.67-28.75 0 .47-15.36-11.27-35.2-20.16-17.02-11.23-15.93-11-25.78-24.61-6.1-15.48-4.22-4.7-19.22-65.23s-21.25-94.22-21.72-94.22l-21.49 4.21 19.46 88.14 6.81 30.03z" stroke="#000" stroke-linejoin="round" stroke-width="6.25" transform="matrix(.20402735 -.01517276 .01517593 .20398447 98.050203 -15.857186)"/><path d="m1130.62 1752.82 56.1 149.93s6.54 16.22 10.96 33.1c1.48 20.6-1.66 29.22-1.66 29.22-.47.06-1.51 11.21-1.8 22.57.6 15.48 8.14 25.24 8.09 24.78.05.46 5.79 7.5 21 6.76 17.36-2.93 18.76-15.7 18.76-15.7s2.57-16.63-2.23-32.95c-3.86-20.53-40.61-87.86-55.16-133.38l-32.42-99.19z" stroke="#000" stroke-linejoin="round" stroke-width="6.25" transform="matrix(.204591 0 0 .204548 92.172324 -47.830493)"/><path d="m1072.69 1170.14s-21.08 23.85-50.19 72.22c-28.17 47.44-29.37 49.38-42.5 85-9.38 34.69-9.47 46.41-2.97 65.78 8.38 15.62 16.58 18.91 24.22 19.22s11.57-1.78 17.18-10.41c11.25-25.53-2.93-38.34-7.18-59.59s-2.49-4.91-2.5-20.65c2.34-20.9 8.9-26.37 11.72-32.01 4.22-7.97 7.2-13.98 30.78-49.17 24.52-37.54 36.25-58.17 36.25-58.17s2.59-8.39-3.08-12.5c-5.43-3.94-11.73.28-11.73.28z" stroke="#000" stroke-width="6.25" transform="matrix(.204591 0 0 .204548 99.340374 -46.430222)"/><path d="m1072.69 1170.14s-21.08 23.85-50.19 72.22c-28.17 47.44-29.37 49.38-42.5 85-9.38 34.69-9.47 46.41-2.97 65.78 8.38 15.62 16.58 18.91 24.22 19.22s11.57-1.78 17.18-10.41c11.25-25.53-2.93-38.34-7.18-59.59s-2.49-4.91-2.5-20.65c2.34-20.9 8.9-26.37 11.72-32.01 4.22-7.97 7.2-13.98 30.78-49.17 24.52-37.54 36.25-58.17 36.25-58.17s2.59-8.39-3.08-12.5c-5.43-3.94-11.73.28-11.73.28z" stroke="#000" stroke-width="6.25" transform="matrix(.204591 0 0 .204548 96.134556 -47.964333)"/><path d="m1072.69 1170.14s-21.08 23.85-50.19 72.22c-28.17 47.44-29.37 49.38-42.5 85-9.38 34.69-9.47 46.41-2.97 65.78 8.38 15.62 16.58 18.91 24.22 19.22s11.57-1.78 17.18-10.41c11.25-25.53-2.93-38.34-7.18-59.59s-2.49-4.91-2.5-20.65c2.34-20.9 8.9-26.37 11.72-32.01 4.22-7.97 7.2-13.98 30.78-49.17 24.52-37.54 36.25-58.17 36.25-58.17s2.59-8.39-3.08-12.5c-5.43-3.94-11.73.28-11.73.28z" stroke="#000" stroke-width="6.25" transform="matrix(.20286016 .02655115 -.02655673 .20281752 155.755115 -82.155283)"/><path d="m1286.66 1173.43s-46.05 55.18-62.91 76.43c-20.14 23.13-40.43 57.03-57.5 74.06-19.89 15.63-37.5 16.1-51.25 25.94-15.63 10.32-19.06 15.94-21.25 26.25-1.72 14.07 10.53 26.25 25 23.75 14 .32 32.5-19.5 32.5-19.5s25.15-34.35 42.5-58c38.47-56.49 110.75-137.5 110.75-137.5z" stroke="#000" stroke-width="6.25" transform="matrix(.20239512 -.02988855 .02989484 .20235259 31.715274 -15.325361)"/><path d="m1072.69 1170.14s-21.08 23.85-50.19 72.22c-28.17 47.44-29.37 49.38-42.5 85-9.38 34.69-9.47 46.41-2.97 65.78 8.38 15.62 16.58 18.91 24.22 19.22s11.57-1.78 17.18-10.41c11.25-25.53-2.93-38.34-7.18-59.59s-2.49-4.91-2.5-20.65c2.34-20.9 8.9-26.37 11.72-32.01 4.22-7.97 7.2-13.98 30.78-49.17 24.52-37.54 36.25-58.17 36.25-58.17s2.59-8.39-3.08-12.5c-5.43-3.94-11.73.28-11.73.28z" stroke="#000" stroke-width="6.25" transform="matrix(.204591 0 0 .204548 92.172324 -47.830493)"/><path d="m1286.66 1173.43s-46.05 55.18-62.91 76.43c-20.14 23.13-40.43 57.03-57.5 74.06-19.89 15.63-37.5 16.1-51.25 25.94-15.63 10.32-19.06 15.94-21.25 26.25-1.72 14.07 10.53 26.25 25 23.75 14 .32 32.5-19.5 32.5-19.5s25.15-34.35 42.5-58c38.47-56.49 110.75-137.5 110.75-137.5z" stroke="#000" stroke-width="6.25" transform="matrix(.204591 0 0 .204548 87.544148 -54.673175)"/><path d="m1072.69 1170.14s-21.08 23.85-50.19 72.22c-28.17 47.44-29.37 49.38-42.5 85-9.38 34.69-9.47 46.41-2.97 65.78 8.38 15.62 16.58 18.91 24.22 19.22s11.57-1.78 17.18-10.41c11.25-25.53-2.93-38.34-7.18-59.59s-2.49-4.91-2.5-20.65c2.34-20.9 8.9-26.37 11.72-32.01 4.22-7.97 7.2-13.98 30.78-49.17 24.52-37.54 36.25-58.17 36.25-58.17s2.59-8.39-3.08-12.5c-5.43-3.94-11.73.28-11.73.28z" stroke="#000" stroke-width="6.25" transform="matrix(.20318628 .02392823 -.02393326 .20314357 155.428997 -77.198881)"/><path d="m1286.66 1173.43s-46.05 55.18-62.91 76.43c-20.14 23.13-40.43 57.03-57.5 74.06-19.89 15.63-37.5 16.1-51.25 25.94-15.63 10.32-19.06 15.94-21.25 26.25-1.72 14.07 10.53 26.25 25 23.75 14 .32 32.5-19.5 32.5-19.5s25.15-34.35 42.5-58c38.47-56.49 110.75-137.5 110.75-137.5z" stroke="#000" stroke-width="6.25" transform="matrix(.204591 0 0 .204548 91.138902 -53.034337)"/><path d="m1072.69 1170.14s-21.08 23.85-50.19 72.22c-28.17 47.44-29.37 49.38-42.5 85-9.38 34.69-9.47 46.41-2.97 65.78 8.38 15.62 16.58 18.91 24.22 19.22s11.57-1.78 17.18-10.41c11.25-25.53-2.93-38.34-7.18-59.59s-2.49-4.91-2.5-20.65c2.34-20.9 8.9-26.37 11.72-32.01 4.22-7.97 7.2-13.98 30.78-49.17 24.52-37.54 36.25-58.17 36.25-58.17s2.59-8.39-3.08-12.5c-5.43-3.94-11.73.28-11.73.28z" stroke="#000" stroke-width="6.25" transform="matrix(.20308828 .02474601 -.02475121 .20304559 148.704705 -82.521424)"/><path d="m1286.66 1173.43s-46.05 55.18-62.91 76.43c-20.14 23.13-40.43 57.03-57.5 74.06-19.89 15.63-37.5 16.1-51.25 25.94-15.63 10.32-19.06 15.94-21.25 26.25-1.72 14.07 10.53 26.25 25 23.75 14 .32 32.5-19.5 32.5-19.5s25.15-34.35 42.5-58c38.47-56.49 110.75-137.5 110.75-137.5z" stroke="#000" stroke-width="6.25" transform="matrix(.204591 0 0 .204548 92.172324 -47.830493)"/><path d="m1286.66 1173.43s-46.05 55.18-62.91 76.43c-20.14 23.13-40.43 57.03-57.5 74.06-19.89 15.63-37.5 16.1-51.25 25.94-15.63 10.32-19.06 15.94-21.25 26.25-1.72 14.07 10.53 26.25 25 23.75 14 .32 32.5-19.5 32.5-19.5s25.15-34.35 42.5-58c38.47-56.49 110.75-137.5 110.75-137.5z" stroke="#000" stroke-width="6.25" transform="matrix(.22621218 -.00890796 .01077699 .21428858 48.834836 -38.642646)"/><path d="m1324.2 1275.25s-6.23 8.37-58.65 83.36c-47.27 81.57-54.3 96.83-54.3 96.83s-7.49 15.67-15.62 20.67-22.42 5.24-26.88 2.19c-4.25-2.91-6.56-3.28-8.75-18.44 1.1-9.06 3.53-12.78 7.09-16.34 7.3-6.15 11.13-7.31 20.31-10.76 8.97-5.26 12.28-10.05 18.11-18.91 11.41-20.21 16.46-30.07 35.84-59.66 25.09-39.08 45.16-63.14 68.33-93.95z" stroke="#000" stroke-width="6.25" transform="matrix(.20431746 .01057235 -.01057453 .20427452 98.438292 -63.065862)"/><path d="m1286.66 1173.43s-46.05 55.18-62.91 76.43c-20.14 23.13-40.43 57.03-57.5 74.06-19.89 15.63-37.5 16.1-51.25 25.94-15.63 10.32-19.06 15.94-21.25 26.25-1.72 14.07 10.53 26.25 25 23.75 14 .32 32.5-19.5 32.5-19.5s25.15-34.35 42.5-58c38.47-56.49 110.75-137.5 110.75-137.5z" stroke="#000" stroke-width="6.25" transform="matrix(.2301526 -.0255642 .02920557 .20288359 25.629511 3.484464)"/><path d="m1324.2 1275.25s-6.23 8.37-58.65 83.36c-47.27 81.57-54.3 96.83-54.3 96.83s-7.49 15.67-15.62 20.67-22.42 5.24-26.88 2.19c-4.25-2.91-6.56-3.28-8.75-18.44 1.1-9.06 3.53-12.78 7.09-16.34 7.3-6.15 11.13-7.31 20.31-10.76 8.97-5.26 12.28-10.05 18.11-18.91 11.41-20.21 16.46-30.07 35.84-59.66 25.09-39.08 45.16-63.14 68.33-93.95z" stroke="#000" stroke-width="6.25" transform="matrix(.204591 0 0 .204548 92.172324 -47.830493)"/><path d="m1627.16 871.97c-72.04 7.59-141.32 24.5-206.53 49.66l5.56 11.15c65.15-24.99 133.59-41.32 202.97-48.69 6.04-.68 4.7-12.78-2-12.12z" stroke="#000" stroke-linecap="round" stroke-linejoin="round" stroke-width="5.14" transform="matrix(.204591 0 0 .204548 92.172324 -47.830493)"/><path d="m1668.81 891.22c-66.16 3.43-119.49 13.52-174.59 29.62-21.42 6.15-42.54 13.26-63.34 21.25l5.65 11.32c74.64-28.39 153.64-45.22 233.38-49.75 7.35-.8 6.31-12.32-1.1-12.44z" stroke="#000" stroke-linecap="round" stroke-linejoin="round" stroke-width="5" transform="matrix(.204591 0 0 .204548 92.172324 -47.830493)"/><path d="m1638.19 916.41c-67.28 6.84-133.74 22.31-197 46.25l4.75 9.5c62.31-23.45 127.75-38.58 193.97-45.38 6.13-.44 4.89-10.94-1.72-10.37z" stroke="#000" stroke-linecap="round" stroke-linejoin="round" stroke-width="5" transform="matrix(.204591 0 0 .204548 92.172324 -47.830493)"/><path d="m1449.69 979.66 5.62 11.22c88.96-32.39 168.25-44.8 236.41-46.82 7.07-.43 7.09-11.94-.94-12.37-77.42 2.68-166.49 19.97-241.09 47.97z" stroke="#000" stroke-linecap="round" stroke-linejoin="round" stroke-width="5" transform="matrix(.204591 0 0 .204548 92.172324 -47.830493)"/><path d="m1654.69 956.06c-59.27 4.9-125.95 18.84-194.69 44.19l5.75 11.47c59.11-21.89 138.31-39.45 191.09-43.34 7.34-1.09 5.61-12.91-2.15-12.32z" stroke="#000" stroke-linecap="round" stroke-linejoin="round" stroke-width="5" transform="matrix(.204591 0 0 .204548 92.172324 -47.830493)"/><path d="m1471.38 1022.91 5.59 11.18c60.17-22.09 158.98-42.99 216.34-42.03 6.2-.48 5.69-12.04-.53-12.53-71.94-.04-147.15 16.44-221.4 43.38z" stroke="#000" stroke-linecap="round" stroke-linejoin="round" stroke-width="5" transform="matrix(.204591 0 0 .204548 92.172324 -47.830493)"/><path d="m1648.13 1006.22c-56.4 6.45-112.14 19.57-165.54 39.09l5.6 11.16c50.27-18.16 105.78-32.17 161.37-37.72 8.24-1.16 7.09-13.05-1.43-12.53z" stroke="#000" stroke-linecap="round" stroke-linejoin="round" stroke-width="5" transform="matrix(.204591 0 0 .204548 92.172324 -47.830493)"/><path d="m1493.75 1067.59 5.63 11.19c49.24-17.66 127.05-34.13 180-36.87 7.69-.88 6.67-12.49-1.07-12.69-61.98 2.35-129.52 19.07-184.56 38.37z" stroke="#000" stroke-linecap="round" stroke-linejoin="round" stroke-width="5" transform="matrix(.204591 0 0 .204548 92.172324 -47.830493)"/><path d="m1683.91 1056.22c-45.91.35-126.34 17.26-177.97 35.66l5.62 11.21c49.35-17.46 130.66-33.53 172.94-34.53 8.52-.09 8.33-12.25-.59-12.34z" stroke="#000" stroke-linecap="round" stroke-linejoin="round" stroke-width="5" transform="matrix(.204591 0 0 .204548 92.172324 -47.830493)"/><path d="m1644.75 1085.25c-43.05 6.13-85.59 16.45-126.66 30.91l5.6 11.15c39.21-14.21 82.91-24.7 123.65-30.03 7.86-1.66 5.99-13.72-2.59-12.03z" stroke="#000" stroke-linecap="round" stroke-linejoin="round" stroke-width="5" transform="matrix(.204591 0 0 .204548 92.172324 -47.830493)"/><path d="m1682.31 1105.81c-47.42 1.7-109.34 15.64-153.78 31.19l5.63 11.22c41.43-14.3 100.57-28.18 148.34-29.91 8.66-.47 7.93-13.03-.19-12.5z" stroke="#000" stroke-linecap="round" stroke-linejoin="round" stroke-width="5" transform="matrix(.204591 0 0 .204548 92.172324 -47.830493)"/><path d="m900.43 1739.54s15.46 103.82 68.07 77.08c35.91-41.93-68.07-77.08-68.07-77.08z" stroke="#000" stroke-linejoin="round" stroke-width="6.29" transform="matrix(-.07014341 .18136739 -.18510228 -.06830962 803.696858 126.90975)"/><path d="m900.43 1739.54s15.46 103.82 68.07 77.08c35.91-41.93-68.07-77.08-68.07-77.08z" stroke="#000" stroke-linejoin="round" stroke-width="6.29" transform="matrix(-.12583615 -.13683279 -.13986925 .12305076 770.774074 93.544699)"/><path d="m900.43 1739.54s15.46 103.82 68.07 77.08c35.91-41.93-68.07-77.08-68.07-77.08z" stroke="#000" stroke-linejoin="round" stroke-width="6.29" transform="matrix(.01698969 .18691739 -.18564035 .01710649 709.331305 -27.518467)"/><path d="m900.43 1739.54s15.46 103.82 68.07 77.08c35.91-41.93-68.07-77.08-68.07-77.08z" stroke="#000" stroke-linejoin="round" stroke-width="6.29" transform="matrix(-.10913723 -.14100639 -.14080219 .1106711 745.267714 124.274354)"/><path d="m900.43 1739.54s15.46 103.82 68.07 77.08c35.91-41.93-68.07-77.08-68.07-77.08z" stroke="#000" stroke-linejoin="round" stroke-width="6.29" transform="matrix(.03883158 .17940762 -.17960778 .03878844 666.708862 -54.335467)"/><path d="m900.43 1739.54s15.46 103.82 68.07 77.08c35.91-41.93-68.07-77.08-68.07-77.08z" stroke="#000" stroke-linejoin="round" stroke-width="6.29" transform="matrix(-.10047219 -.1401837 -.13387555 .1119121 715.147827 126.515586)"/><path d="m900.43 1739.54s15.46 103.82 68.07 77.08c35.91-41.93-68.07-77.08-68.07-77.08z" stroke="#000" stroke-linejoin="round" stroke-width="6.29" transform="matrix(.07483693 .15963601 -.16662709 .07169694 599.860799 -88.418952)"/><path d="m900.43 1739.54s15.46 103.82 68.07 77.08c35.91-41.93-68.07-77.08-68.07-77.08z" stroke="#000" stroke-linejoin="round" stroke-width="6.29" transform="matrix(-.13042247 -.12234139 -.12278672 .13352362 714.675222 77.120517)"/><path d="m900.43 1739.54s15.46 103.82 68.07 77.08c35.91-41.93-68.07-77.08-68.07-77.08z" stroke="#000" stroke-linejoin="round" stroke-width="6.29" transform="matrix(-.13711055 -.09842952 -.0992252 .13812042 671.046191 53.147696)"/><path d="m900.43 1739.54s15.46 103.82 68.07 77.08c35.91-41.93-68.07-77.08-68.07-77.08z" stroke="#000" stroke-linejoin="round" stroke-width="6.29" transform="matrix(.07597016 .15499175 -.16299704 .07223879 582.726303 -77.701046)"/><path d="m900.43 1739.54s15.46 103.82 68.07 77.08c35.91-41.93-68.07-77.08-68.07-77.08z" stroke="#000" stroke-linejoin="round" stroke-width="6.29" transform="matrix(.09462395 .14686771 -.15208947 .09137486 537.190484 -96.886217)"/><path d="m900.43 1739.54s15.46 103.82 68.07 77.08c35.91-41.93-68.07-77.08-68.07-77.08z" stroke="#000" stroke-linejoin="round" stroke-width="6.29" transform="matrix(-.13828285 -.10990957 -.09915932 .15000425 663.664548 50.15884)"/><path d="m900.43 1739.54s15.46 103.82 68.07 77.08c35.91-41.93-68.07-77.08-68.07-77.08z" stroke="#000" stroke-linejoin="round" stroke-width="6.29" transform="matrix(-.07080629 .2090276 -.20355618 -.07227458 821.052313 78.436783)"/><path d="m900.43 1739.54s15.46 103.82 68.07 77.08c35.91-41.93-68.07-77.08-68.07-77.08z" stroke="#000" stroke-linejoin="round" stroke-width="6.29" transform="matrix(.05639285 .20188315 -.20506565 .05538342 690.717616 -138.551826)"/><path d="m900.43 1739.54s15.46 103.82 68.07 77.08c35.91-41.93-68.07-77.08-68.07-77.08z" stroke="#000" stroke-linejoin="round" stroke-width="6.29" transform="matrix(.06731412 .21675338 -.21141411 .06931129 680.258924 -170.963684)"/><path d="m900.43 1739.54s15.46 103.82 68.07 77.08c35.91-41.93-68.07-77.08-68.07-77.08z" stroke="#000" stroke-linejoin="round" stroke-width="6.29" transform="matrix(.08070092 .20547051 -.19940032 .08320297 635.218215 -179.052739)"/><path d="m900.43 1739.54s15.46 103.82 68.07 77.08c35.91-41.93-68.07-77.08-68.07-77.08z" stroke="#000" stroke-linejoin="round" stroke-width="6.29" transform="matrix(.10816644 .17900302 -.18267971 .10448619 568.812069 -184.377124)"/><path d="m900.43 1739.54s15.46 103.82 68.07 77.08c35.91-41.93-68.07-77.08-68.07-77.08z" stroke="#000" stroke-linejoin="round" stroke-width="6.29" transform="matrix(.11309402 .17769167 -.17833297 .11245067 547.252269 -190.095263)"/><path d="m900.43 1739.54s15.46 103.82 68.07 77.08c35.91-41.93-68.07-77.08-68.07-77.08z" stroke="#000" stroke-linejoin="round" stroke-width="6.29" transform="matrix(.11164244 .17801853 -.17923726 .11026487 541.026565 -179.987728)"/><path d="m900.43 1739.54s15.46 103.82 68.07 77.08c35.91-41.93-68.07-77.08-68.07-77.08z" stroke="#000" stroke-linejoin="round" stroke-width="6.29" transform="matrix(.13156449 .16264409 -.16261097 .1316293 484.66379 -194.950414)"/><path d="m900.43 1739.54s15.46 103.82 68.07 77.08c35.91-41.93-68.07-77.08-68.07-77.08z" stroke="#000" stroke-linejoin="round" stroke-width="6.29" transform="matrix(-.1845687 -.09861443 -.09737775 .18691167 759.402907 -81.436297)"/><path d="m900.43 1739.54s15.46 103.82 68.07 77.08c35.91-41.93-68.07-77.08-68.07-77.08z" stroke="#000" stroke-linejoin="round" stroke-width="6.29" transform="matrix(-.03093273 .22006501 -.20223861 -.03365919 793.432528 6.50932)"/><path d="m900.43 1739.54s15.46 103.82 68.07 77.08c35.91-41.93-68.07-77.08-68.07-77.08z" stroke="#000" stroke-linejoin="round" stroke-width="6.29" transform="matrix(-.12790047 -.17652226 -.17623898 .12810575 834.690349 103.322502)"/><path d="m900.43 1739.54s15.46 103.82 68.07 77.08c35.91-41.93-68.07-77.08-68.07-77.08z" stroke="#000" stroke-linejoin="round" stroke-width="6.29" transform="matrix(.02316297 .21553632 -.21844999 .02285415 758.28584 -86.170561)"/><path d="m900.43 1739.54s15.46 103.82 68.07 77.08c35.91-41.93-68.07-77.08-68.07-77.08z" stroke="#000" stroke-linejoin="round" stroke-width="6.29" transform="matrix(-.13150496 -.18312876 -.17591982 .13689334 823.313043 98.404555)"/><path d="m900.43 1739.54s15.46 103.82 68.07 77.08c35.91-41.93-68.07-77.08-68.07-77.08z" stroke="#000" stroke-linejoin="round" stroke-width="6.29" transform="matrix(-.12912781 -.16598007 -.16420699 .13052187 788.039509 100.605082)"/><path d="m900.43 1739.54s15.46 103.82 68.07 77.08c35.91-41.93-68.07-77.08-68.07-77.08z" stroke="#000" stroke-linejoin="round" stroke-width="6.29" transform="matrix(.04973198 .23523838 -.23129831 .05057858 742.411624 -148.312243)"/><path d="m900.43 1739.54s15.46 103.82 68.07 77.08c35.91-41.93-68.07-77.08-68.07-77.08z" stroke="#000" stroke-linejoin="round" stroke-width="6.29" transform="matrix(.08590285 .20410699 -.20928023 .08377938 655.826667 -169.722691)"/><path d="m900.43 1739.54s15.46 103.82 68.07 77.08c35.91-41.93-68.07-77.08-68.07-77.08z" stroke="#000" stroke-linejoin="round" stroke-width="6.29" transform="matrix(-.14336244 -.15335966 -.14596095 .15062894 757.670021 60.079418)"/><path d="m900.43 1739.54s15.46 103.82 68.07 77.08c35.91-41.93-68.07-77.08-68.07-77.08z" stroke="#000" stroke-linejoin="round" stroke-width="6.29" transform="matrix(.10595727 .19690486 -.19984633 .10439721 608.028072 -191.52444)"/><path d="m900.43 1739.54s15.46 103.82 68.07 77.08c35.91-41.93-68.07-77.08-68.07-77.08z" stroke="#000" stroke-linejoin="round" stroke-width="6.29" transform="matrix(.11356458 .18002576 -.18265557 .11192907 559.945095 -181.860365)"/><path d="m900.43 1739.54s15.46 103.82 68.07 77.08c35.91-41.93-68.07-77.08-68.07-77.08z" stroke="#000" stroke-linejoin="round" stroke-width="6.29" transform="matrix(-.17257026 -.12895974 -.13015425 .17098576 746.196558 9.498994)"/><path d="m900.43 1739.54s15.46 103.82 68.07 77.08c35.91-41.93-68.07-77.08-68.07-77.08z" stroke="#000" stroke-linejoin="round" stroke-width="6.29" transform="matrix(.20992673 -.10792505 .11724803 .18543953 -84.115352 166.621722)"/><path d="m900.43 1739.54s15.46 103.82 68.07 77.08c35.91-41.93-68.07-77.08-68.07-77.08z" stroke="#000" stroke-linejoin="round" stroke-width="6.29" transform="matrix(.20397007 -.13146055 .13279224 .20192426 -98.264252 168.998569)"/><path d="m900.43 1739.54s15.46 103.82 68.07 77.08c35.91-41.93-68.07-77.08-68.07-77.08z" stroke="#000" stroke-linejoin="round" stroke-width="6.29" transform="matrix(.16665185 -.118654 .11867853 .16661682 -28.994854 228.890224)"/><path d="m900.43 1739.54s15.46 103.82 68.07 77.08c35.91-41.93-68.07-77.08-68.07-77.08z" stroke="#000" stroke-linejoin="round" stroke-width="6.29" transform="matrix(-.13051515 .15752098 .15755369 .13048771 183.776512 4.561614)"/><path d="m900.43 1739.54s15.46 103.82 68.07 77.08c35.91-41.93-68.07-77.08-68.07-77.08z" stroke="#000" stroke-linejoin="round" stroke-width="6.29" transform="matrix(.19846227 -.07626797 .0754104 .20071804 18.634135 110.81755)"/><path d="m900.43 1739.54s15.46 103.82 68.07 77.08c35.91-41.93-68.07-77.08-68.07-77.08z" stroke="#000" stroke-linejoin="round" stroke-width="6.29" transform="matrix(.17844488 -.10005384 .10007446 .17840738 12.950597 167.298775)"/><path d="m900.43 1739.54s15.46 103.82 68.07 77.08c35.91-41.93-68.07-77.08-68.07-77.08z" stroke="#000" stroke-linejoin="round" stroke-width="6.29" transform="matrix(-.11906194 .1741808 .17252791 .12020202 154.845299 16.657969)"/><path d="m900.43 1739.54s15.46 103.82 68.07 77.08c35.91-41.93-68.07-77.08-68.07-77.08z" stroke="#000" stroke-linejoin="round" stroke-width="6.29" transform="matrix(.18079379 -.11449349 .1156066 .17905211 -27.187293 195.767766)"/><path d="m900.43 1739.54s15.46 103.82 68.07 77.08c35.91-41.93-68.07-77.08-68.07-77.08z" stroke="#000" stroke-linejoin="round" stroke-width="6.29" transform="matrix(-.09497912 .17073744 .16471928 .10647623 164.888671 35.722865)"/><path d="m900.43 1739.54s15.46 103.82 68.07 77.08c35.91-41.93-68.07-77.08-68.07-77.08z" stroke="#000" stroke-linejoin="round" stroke-width="6.29" transform="matrix(.16379085 -.10677774 .10691844 .16366908 22.983126 206.076985)"/><path d="m900.43 1739.54s15.46 103.82 68.07 77.08c35.91-41.93-68.07-77.08-68.07-77.08z" stroke="#000" stroke-linejoin="round" stroke-width="6.29" transform="matrix(-.10402225 .15352268 .15569498 .10107412 198.192608 67.866152)"/><path d="m900.43 1739.54s15.46 103.82 68.07 77.08c35.91-41.93-68.07-77.08-68.07-77.08z" stroke="#000" stroke-linejoin="round" stroke-width="6.29" transform="matrix(.15460369 -.13396912 .13399688 .1545712 -9.1706 254.045537)"/><path d="m900.43 1739.54s15.46 103.82 68.07 77.08c35.91-41.93-68.07-77.08-68.07-77.08z" stroke="#000" stroke-linejoin="round" stroke-width="6.29" transform="matrix(-.09935573 .18752838 .18795059 .09913214 119.089748 50.582664)"/><path d="m900.43 1739.54s15.46 103.82 68.07 77.08c35.91-41.93-68.07-77.08-68.07-77.08z" stroke="#000" stroke-linejoin="round" stroke-width="6.29" transform="matrix(-.0979193 .17959908 .17963601 .09789872 142.583751 68.592911)"/><path d="m900.43 1739.54s15.46 103.82 68.07 77.08c35.91-41.93-68.07-77.08-68.07-77.08z" stroke="#000" stroke-linejoin="round" stroke-width="6.29" transform="matrix(-.12278427 .16361651 .1636505 .12275846 210.410373 30.177569)"/><path d="m900.43 1739.54s15.46 103.82 68.07 77.08c35.91-41.93-68.07-77.08-68.07-77.08z" stroke="#000" stroke-linejoin="round" stroke-width="6.29" transform="matrix(.1914401 .0999307 -.10162015 .18741649 293.473705 -184.134734)"/><path d="m900.43 1739.54s15.46 103.82 68.07 77.08c35.91-41.93-68.07-77.08-68.07-77.08z" stroke="#000" stroke-linejoin="round" stroke-width="6.29" transform="matrix(.20059166 .0864021 -.08754899 .19580357 256.349441 -174.059518)"/><path d="m900.43 1739.54s15.46 103.82 68.07 77.08c35.91-41.93-68.07-77.08-68.07-77.08z" stroke="#000" stroke-linejoin="round" stroke-width="6.29" transform="matrix(.2179467 .073256 -.07897785 .19758498 222.240439 -152.695707)"/><path d="m900.43 1739.54s15.46 103.82 68.07 77.08c35.91-41.93-68.07-77.08-68.07-77.08z" stroke="#000" stroke-linejoin="round" stroke-width="6.29" transform="matrix(.21158597 .05715726 -.05592986 .21855749 185.67123 -162.033732)"/><path d="m900.43 1739.54s15.46 103.82 68.07 77.08c35.91-41.93-68.07-77.08-68.07-77.08z" stroke="#000" stroke-linejoin="round" stroke-width="6.29" transform="matrix(.21470393 .04707774 -.04818384 .20969647 168.062696 -124.513697)"/><path d="m900.43 1739.54s15.46 103.82 68.07 77.08c35.91-41.93-68.07-77.08-68.07-77.08z" stroke="#000" stroke-linejoin="round" stroke-width="6.29" transform="matrix(.1644703 .15992544 -.17108411 .15365707 461.195157 -191.048252)"/><path d="m900.43 1739.54s15.46 103.82 68.07 77.08c35.91-41.93-68.07-77.08-68.07-77.08z" stroke="#000" stroke-linejoin="round" stroke-width="6.29" transform="matrix(-.21308766 -.03589388 -.03617987 .21128581 580.690622 -98.851105)"/><path d="m900.43 1739.54s15.46 103.82 68.07 77.08c35.91-41.93-68.07-77.08-68.07-77.08z" stroke="#000" stroke-linejoin="round" stroke-width="6.29" transform="matrix(.18004806 .12502812 -.12827221 .17539664 363.040579 -183.473021)"/><path d="m900.43 1739.54s15.46 103.82 68.07 77.08c35.91-41.93-68.07-77.08-68.07-77.08z" stroke="#000" stroke-linejoin="round" stroke-width="6.29" transform="matrix(.1473624 .12474053 -.14485534 .14146662 445.196141 -118.143049)"/><path d="m900.43 1739.54s15.46 103.82 68.07 77.08c35.91-41.93-68.07-77.08-68.07-77.08z" stroke="#000" stroke-linejoin="round" stroke-width="6.29" transform="matrix(-.17175394 -.02883288 -.02639122 .1833691 539.659897 -40.437657)"/><path d="m900.43 1739.54s15.46 103.82 68.07 77.08c35.91-41.93-68.07-77.08-68.07-77.08z" stroke="#000" stroke-linejoin="round" stroke-width="6.29" transform="matrix(.1518681 .09631736 -.10248557 .162298 360.992623 -117.179833)"/><path d="m900.43 1739.54s15.46 103.82 68.07 77.08c35.91-41.93-68.07-77.08-68.07-77.08z" stroke="#000" stroke-linejoin="round" stroke-width="6.29" transform="matrix(-.20938866 -.02635908 -.0262656 .2114699 555.845091 -95.641951)"/><path d="m900.43 1739.54s15.46 103.82 68.07 77.08c35.91-41.93-68.07-77.08-68.07-77.08z" stroke="#000" stroke-linejoin="round" stroke-width="6.29" transform="matrix(.21038502 .09572499 -.09743237 .20658325 275.625187 -197.146442)"/><path d="m900.43 1739.54s15.46 103.82 68.07 77.08c35.91-41.93-68.07-77.08-68.07-77.08z" stroke="#000" stroke-linejoin="round" stroke-width="6.29" transform="matrix(-.17800072 -.00745193 -.00745249 .17453344 508.778932 -34.193871)"/><path d="m900.43 1739.54s15.46 103.82 68.07 77.08c35.91-41.93-68.07-77.08-68.07-77.08z" stroke="#000" stroke-linejoin="round" stroke-width="6.29" transform="matrix(.16200702 .0794896 -.09142251 .15487065 329.422186 -76.748057)"/><path d="m900.43 1739.54s15.46 103.82 68.07 77.08c35.91-41.93-68.07-77.08-68.07-77.08z" stroke="#000" stroke-linejoin="round" stroke-width="6.29" transform="matrix(-.21664346 .0104423 .01062863 .215297 493.90312 -124.136306)"/><path d="m900.43 1739.54s15.46 103.82 68.07 77.08c35.91-41.93-68.07-77.08-68.07-77.08z" stroke="#000" stroke-linejoin="round" stroke-width="6.29" transform="matrix(.20700313 .07421042 -.06908138 .22224754 225.052542 -191.212913)"/><path d="m900.43 1739.54s15.46 103.82 68.07 77.08c35.91-41.93-68.07-77.08-68.07-77.08z" stroke="#000" stroke-linejoin="round" stroke-width="6.29" transform="matrix(-.17862124 .00277034 .00233976 .1895845 490.253217 -60.432511)"/><path d="m900.43 1739.54s15.46 103.82 68.07 77.08c35.91-41.93-68.07-77.08-68.07-77.08z" stroke="#000" stroke-linejoin="round" stroke-width="6.29" transform="matrix(.16792359 .06699908 -.07494905 .16480044 293.10892 -70.615912)"/><path d="m900.43 1739.54s15.46 103.82 68.07 77.08c35.91-41.93-68.07-77.08-68.07-77.08z" stroke="#000" stroke-linejoin="round" stroke-width="6.29" transform="matrix(-.21232659 .02524245 .02510516 .21288538 462.166964 -120.324145)"/><path d="m900.43 1739.54s15.46 103.82 68.07 77.08c35.91-41.93-68.07-77.08-68.07-77.08z" stroke="#000" stroke-linejoin="round" stroke-width="6.29" transform="matrix(.21541591 .03741858 -.03587524 .22455689 157.452198 -147.118705)"/><path d="m900.43 1739.54s15.46 103.82 68.07 77.08c35.91-41.93-68.07-77.08-68.07-77.08z" stroke="#000" stroke-linejoin="round" stroke-width="6.29" transform="matrix(.21437863 .02668779 -.02644093 .2163811 129.247896 -105.920284)"/><path d="m900.43 1739.54s15.46 103.82 68.07 77.08c35.91-41.93-68.07-77.08-68.07-77.08z" stroke="#000" stroke-linejoin="round" stroke-width="6.29" transform="matrix(-.18211545 .03329653 .03264168 .17814781 438.561254 -57.325447)"/><path d="m900.43 1739.54s15.46 103.82 68.07 77.08c35.91-41.93-68.07-77.08-68.07-77.08z" stroke="#000" stroke-linejoin="round" stroke-width="6.29" transform="matrix(.19277035 .04009468 -.05123818 .18524031 227.137938 -68.887277)"/><path d="m900.43 1739.54s15.46 103.82 68.07 77.08c35.91-41.93-68.07-77.08-68.07-77.08z" stroke="#000" stroke-linejoin="round" stroke-width="6.29" transform="matrix(-.20797494 .04300642 .04131858 .21315129 429.211446 -124.980884)"/><path d="m900.43 1739.54s15.46 103.82 68.07 77.08c35.91-41.93-68.07-77.08-68.07-77.08z" stroke="#000" stroke-linejoin="round" stroke-width="6.29" transform="matrix(.21057938 .01472418 -.01424757 .21750407 122.624876 -100.661355)"/><path d="m900.43 1739.54s15.46 103.82 68.07 77.08c35.91-41.93-68.07-77.08-68.07-77.08z" stroke="#000" stroke-linejoin="round" stroke-width="6.29" transform="matrix(-.1770017 .05006455 .0517515 .17626576 400.212717 -58.414174)"/><path d="m900.43 1739.54s15.46 103.82 68.07 77.08c35.91-41.93-68.07-77.08-68.07-77.08z" stroke="#000" stroke-linejoin="round" stroke-width="6.29" transform="matrix(.17180488 .02766103 -.03413417 .18717308 216.765174 -49.040729)"/><path d="m900.43 1739.54s15.46 103.82 68.07 77.08c35.91-41.93-68.07-77.08-68.07-77.08z" stroke="#000" stroke-linejoin="round" stroke-width="6.29" transform="matrix(-.17753875 .04325188 .05580322 .1706861 394.252982 -31.97925)"/><path d="m900.43 1739.54s15.46 103.82 68.07 77.08c35.91-41.93-68.07-77.08-68.07-77.08z" stroke="#000" stroke-linejoin="round" stroke-width="6.29" transform="matrix(.204591 0 0 .204548 92.172324 -47.830493)"/></g></g><path d="m1100.38 1955.66s-58.75.73-97.94-11.7c-51.44-14.06-71.93-61.6-71.93-61.6s-7.54 10.89-7.07 26.37c.47 14.08 10.53 46.57 35.78 80.97 26.19 42.38 44.02 92.35 65.14 125.16 16.89 29.53 52.55 56.25 52.55 56.25s113.48-13.56 124.46-15.91c14.61-2.23 114.88-25.34 137.38-26.59s73.59 2.03 73.59 2.03-17.98-33.12-26.67-39.53c-17.36-14.38-38.34-20.24-60.06-41.25-11.86-13.03-31.86-36.09-43.11-48.59-14.07-13.44-24.69-26.67-40-35.29-12.5-8.15-142.12-10.32-142.12-10.32z" fill-rule="nonzero" stroke="#000" stroke-width="3.12" transform="matrix(.204591 0 0 .204548 92.172324 -47.830493)"/><path d="m1356.85 2074.5s-41.71 1.06-61.79 3.63c-22.19 3.51-69.89 9.28-108.19 13.2-34.4 3.8-63.54 6.02-102.37 6.43l-70.52-3.23c2.25 4.19 8.53 15.46 14.77 24.42 7.5 11.49 13.4 19.14 27.12 31.92 11.27 10.67 18.22 16.21 21.45 18.68 8.45-.94 61.8-7.33 83.34-10.31 35.43-3.45 53.42-8.19 94.22-16.84 21.33-4.35 70.77-14.75 83.63-15.46 14.51-1.17 66.09 1.55 71.49 2.02-3.4-5.59-7.44-12.28-13.09-21.8-8-13.51-14.19-16.99-25.44-24.52-4.46-2.9-14.25-7.99-14.62-8.14z" fill="#ffc709" fill-rule="nonzero" transform="matrix(.204591 0 0 .204548 92.172324 -47.830493)"/><path d="m972.03 2008.78c3.29 6.1 11.95 23.58 19.69 39.21 9.9 21.42 15.36 33.09 22.59 47.14 15.72 1.17 31.06 1.62 70.2 2.87 38.83-.41 67.95-2.63 102.36-6.42 38.29-3.91 86.01-9.64 108.21-13.14 20.08-2.56 62.42-3.58 62.42-3.58s-18.81-11.37-27.56-18.87c-10.86-10.08-15.85-17.27-24.71-26.6-11.49-.94-27.5-1.01-45-2.26-30.63-1.72-77.73 1.48-103.98 1.48s-70.63-.89-108.05-5.25c-50.8-3.65-63.03-12-76.17-14.58z" fill="#d00" fill-rule="nonzero" transform="matrix(.204591 0 0 .204548 92.172324 -47.830493)"/><path d="m929.73 1892.89c7.78 12.04 15.61 24.31 28.13 34.53 21.25 15.17 26.73 18.18 67.78 27.82 36.99 5.85 45.32 4.23 94.64 5.75 48.06 1.48 61.95 2.6 93.04 5.12 15.03 1.21 20.06 2.47 26.53 3.51" fill="none" stroke="#ffc709" stroke-linecap="round" stroke-width="5" transform="matrix(.204591 0 0 .204548 92.172324 -47.830493)"/><g fill-rule="nonzero"><path d="m1247.35 2299.71-224.59-251.16-88.15-315.15 31.39-291.01 143.7-278.94 222.18-171.46 132.82-49.51 37.44 54.34 65.2 19.32-37.43 31.39-4.83 80.91-227.01 148.52-137.66 229.42-13.28 258.41 68.83 224.6 263.23 251.16z" fill="#ffc709" transform="matrix(-.204591 0 0 .204548 792.034148 -47.830493)"/><path d="m991.04 1855.71s8.82 28.99 30.21 63.99c23.74 36.42 41.25 34.85 41.25 34.85s26.61 4.85 30.37-15.94c1.4-20.79-12.67-28.28-12.67-28.75 0 .47-15.36-11.27-35.2-20.16-17.02-11.23-15.93-11-25.78-24.61-6.1-15.48-4.22-4.7-19.22-65.23s-21.25-94.22-21.72-94.22l-21.49 4.21 19.46 88.14 6.81 30.03z" fill="#ffc709" stroke="#000" stroke-linejoin="round" stroke-width="6.25" transform="matrix(-.2044797 -.0067462 -.0067476 .20443673 808.855784 -24.123584)"/><path d="m1049.23 1688.66 40.82 156.98s4.89 17.06 7.61 34.47c-.57 20.69-4.54 28.81-4.54 28.81-.47 0-2.6 10.95-4.01 22.2-.94 15.47 5.58 26.24 5.58 25.77 0 .47 4.99 8.28 20.16 9.69 17.5-.47 20.15-12.97 20.15-12.97s2.7-1.25 1.98-18.75c-.73-17.5-9.48-45-9.48-45l-58.75-212z" fill="#ffc709" stroke="#000" stroke-linejoin="round" stroke-width="6.25" transform="matrix(-.20445802 -.00737561 -.00737712 .20441504 823.125842 -30.759305)"/><path d="m1049.23 1688.66 40.82 156.98s4.89 17.06 7.61 34.47c-.57 20.69-4.54 28.81-4.54 28.81-.47 0-2.6 10.95-4.01 22.2-.94 15.47 5.58 26.24 5.58 25.77 0 .47 4.99 8.28 20.16 9.69 17.5-.47 20.15-12.97 20.15-12.97s2.7-1.25 1.98-18.75c-.73-17.5-9.48-45-9.48-45l-58.75-212z" fill="#ffc709" stroke="#000" stroke-linejoin="round" stroke-width="6.25" transform="matrix(-.204591 0 0 .204548 816.631101 -46.52679)"/><path d="m991.04 1855.71s8.82 28.99 30.21 63.99c23.74 36.42 41.25 34.85 41.25 34.85s26.61 4.85 30.37-15.94c1.4-20.79-12.67-28.28-12.67-28.75 0 .47-15.36-11.27-35.2-20.16-17.02-11.23-15.93-11-25.78-24.61-6.1-15.48-4.22-4.7-19.22-65.23s-21.25-94.22-21.72-94.22l-21.49 4.21 19.46 88.14 6.81 30.03z" fill="#ffc709" stroke="#000" stroke-linejoin="round" stroke-width="6.25" transform="matrix(-.20455008 -.00408544 -.0040863 .20450709 809.330987 -29.424773)"/><path d="m991.04 1855.71s8.82 28.99 30.21 63.99c23.74 36.42 41.25 34.85 41.25 34.85s26.61 4.85 30.37-15.94c1.4-20.79-12.67-28.28-12.67-28.75 0 .47-15.36-11.27-35.2-20.16-17.02-11.23-15.93-11-25.78-24.61-6.1-15.48-4.22-4.7-19.22-65.23s-21.25-94.22-21.72-94.22l-21.49 4.21 19.46 88.14 6.81 30.03z" fill="#ffc709" stroke="#000" stroke-linejoin="round" stroke-width="6.25" transform="matrix(-.1812488 .00003613 .00004028 .20202326 761.899735 -47.942706)"/><path d="m991.04 1855.71s8.82 28.99 30.21 63.99c23.74 36.42 41.25 34.85 41.25 34.85s26.61 4.85 30.37-15.94c1.4-20.79-12.67-28.28-12.67-28.75 0 .47-15.36-11.27-35.2-20.16-17.02-11.23-15.93-11-25.78-24.61-6.1-15.48-4.22-4.7-19.22-65.23s-21.25-94.22-21.72-94.22l-21.49 4.21 19.46 88.14 6.81 30.03z" fill="#ffc709" stroke="#000" stroke-linejoin="round" stroke-width="6.25" transform="matrix(-.204591 0 0 .204548 780.559478 -51.830122)"/><path d="m1049.23 1688.66 40.82 156.98s4.89 17.06 7.61 34.47c-.57 20.69-4.54 28.81-4.54 28.81-.47 0-2.6 10.95-4.01 22.2-.94 15.47 5.58 26.24 5.58 25.77 0 .47 4.99 8.28 20.16 9.69 17.5-.47 20.15-12.97 20.15-12.97s2.7-1.25 1.98-18.75c-.73-17.5-9.48-45-9.48-45l-58.75-212z" fill="#ffc709" stroke="#000" stroke-linejoin="round" stroke-width="6.25" transform="matrix(-.204591 0 0 .204548 797.195099 -50.866844)"/><path d="m1049.23 1688.66 40.82 156.98s4.89 17.06 7.61 34.47c-.57 20.69-4.54 28.81-4.54 28.81-.47 0-2.6 10.95-4.01 22.2-.94 15.47 5.58 26.24 5.58 25.77 0 .47 4.99 8.28 20.16 9.69 17.5-.47 20.15-12.97 20.15-12.97s2.7-1.25 1.98-18.75c-.73-17.5-9.48-45-9.48-45l-58.75-212z" fill="#ffc709" stroke="#000" stroke-linejoin="round" stroke-width="6.25" transform="matrix(-.20421148 -.012453 -.01245558 .20416856 802.153833 -27.288555)"/><path d="m991.04 1855.71s8.82 28.99 30.21 63.99c23.74 36.42 41.25 34.85 41.25 34.85s26.61 4.85 30.37-15.94c1.4-20.79-12.67-28.28-12.67-28.75 0 .47-15.36-11.27-35.2-20.16-17.02-11.23-15.93-11-25.78-24.61-6.1-15.48-4.22-4.7-19.22-65.23s-21.25-94.22-21.72-94.22l-21.49 4.21 19.46 88.14 6.81 30.03z" fill="#ffc709" stroke="#000" stroke-linejoin="round" stroke-width="6.25" transform="matrix(-.20449709 -.00619118 -.00619246 .20445411 775.52347 -27.214304)"/><path d="m991.04 1855.71s8.82 28.99 30.21 63.99c23.74 36.42 41.25 34.85 41.25 34.85s26.61 4.85 30.37-15.94c1.4-20.79-12.67-28.28-12.67-28.75 0 .47-15.36-11.27-35.2-20.16-17.02-11.23-15.93-11-25.78-24.61-6.1-15.48-4.22-4.7-19.22-65.23s-21.25-94.22-21.72-94.22l-21.49 4.21 19.46 88.14 6.81 30.03z" fill="#ffc709" stroke="#000" stroke-linejoin="round" stroke-width="6.25" transform="matrix(-.204591 0 0 .204548 787.142746 -44.415257)"/><path d="m991.04 1855.71s8.82 28.99 30.21 63.99c23.74 36.42 41.25 34.85 41.25 34.85s26.61 4.85 30.37-15.94c1.4-20.79-12.67-28.28-12.67-28.75 0 .47-15.36-11.27-35.2-20.16-17.02-11.23-15.93-11-25.78-24.61-6.1-15.48-4.22-4.7-19.22-65.23s-21.25-94.22-21.72-94.22l-21.49 4.21 19.46 88.14 6.81 30.03z" fill="#ffc709" stroke="#000" stroke-linejoin="round" stroke-width="6.25" transform="matrix(-.204591 0 0 .204548 792.034148 -47.830493)"/><path d="m1049.23 1688.66 40.82 156.98s4.89 17.06 7.61 34.47c-.57 20.69-4.54 28.81-4.54 28.81-.47 0-2.6 10.95-4.01 22.2-.94 15.47 5.58 26.24 5.58 25.77 0 .47 4.99 8.28 20.16 9.69 17.5-.47 20.15-12.97 20.15-12.97s2.7-1.25 1.98-18.75c-.73-17.5-9.48-45-9.48-45l-58.75-212z" fill="#ffc709" stroke="#000" stroke-linejoin="round" stroke-width="6.25" transform="matrix(-.204591 0 0 .204548 792.034148 -47.830493)"/><path d="m991.04 1855.71s8.82 28.99 30.21 63.99c23.74 36.42 41.25 34.85 41.25 34.85s26.61 4.85 30.37-15.94c1.4-20.79-12.67-28.28-12.67-28.75 0 .47-15.36-11.27-35.2-20.16-17.02-11.23-15.93-11-25.78-24.61-6.1-15.48-4.22-4.7-19.22-65.23s-21.25-94.22-21.72-94.22l-21.49 4.21 19.46 88.14 6.81 30.03z" fill="#ffc709" stroke="#000" stroke-linejoin="round" stroke-width="6.25" transform="matrix(-.20402735 -.01517276 -.01517593 .20398447 786.156269 -15.857186)"/><path d="m1130.62 1752.82 56.1 149.93s6.54 16.22 10.96 33.1c1.48 20.6-1.66 29.22-1.66 29.22-.47.06-1.51 11.21-1.8 22.57.6 15.48 8.14 25.24 8.09 24.78.05.46 5.79 7.5 21 6.76 17.36-2.93 18.76-15.7 18.76-15.7s2.57-16.63-2.23-32.95c-3.86-20.53-40.61-87.86-55.16-133.38l-32.42-99.19z" fill="#ffc709" stroke="#000" stroke-linejoin="round" stroke-width="6.25" transform="matrix(-.204591 0 0 .204548 792.034148 -47.830493)"/><path d="m1072.69 1170.14s-21.08 23.85-50.19 72.22c-28.17 47.44-29.37 49.38-42.5 85-9.38 34.69-9.47 46.41-2.97 65.78 8.38 15.62 16.58 18.91 24.22 19.22s11.57-1.78 17.18-10.41c11.25-25.53-2.93-38.34-7.18-59.59s-2.49-4.91-2.5-20.65c2.34-20.9 8.9-26.37 11.72-32.01 4.22-7.97 7.2-13.98 30.78-49.17 24.52-37.54 36.25-58.17 36.25-58.17s2.59-8.39-3.08-12.5c-5.43-3.94-11.73.28-11.73.28z" fill="#ffc709" stroke="#000" stroke-width="6.25" transform="matrix(-.204591 0 0 .204548 784.866098 -46.430222)"/><path d="m1072.69 1170.14s-21.08 23.85-50.19 72.22c-28.17 47.44-29.37 49.38-42.5 85-9.38 34.69-9.47 46.41-2.97 65.78 8.38 15.62 16.58 18.91 24.22 19.22s11.57-1.78 17.18-10.41c11.25-25.53-2.93-38.34-7.18-59.59s-2.49-4.91-2.5-20.65c2.34-20.9 8.9-26.37 11.72-32.01 4.22-7.97 7.2-13.98 30.78-49.17 24.52-37.54 36.25-58.17 36.25-58.17s2.59-8.39-3.08-12.5c-5.43-3.94-11.73.28-11.73.28z" fill="#ffc709" stroke="#000" stroke-width="6.25" transform="matrix(-.204591 0 0 .204548 788.071916 -47.964333)"/><path d="m1072.69 1170.14s-21.08 23.85-50.19 72.22c-28.17 47.44-29.37 49.38-42.5 85-9.38 34.69-9.47 46.41-2.97 65.78 8.38 15.62 16.58 18.91 24.22 19.22s11.57-1.78 17.18-10.41c11.25-25.53-2.93-38.34-7.18-59.59s-2.49-4.91-2.5-20.65c2.34-20.9 8.9-26.37 11.72-32.01 4.22-7.97 7.2-13.98 30.78-49.17 24.52-37.54 36.25-58.17 36.25-58.17s2.59-8.39-3.08-12.5c-5.43-3.94-11.73.28-11.73.28z" fill="#ffc709" stroke="#000" stroke-width="6.25" transform="matrix(-.20286016 .02655115 .02655673 .20281752 728.451357 -82.155283)"/><path d="m1286.66 1173.43s-46.05 55.18-62.91 76.43c-20.14 23.13-40.43 57.03-57.5 74.06-19.89 15.63-37.5 16.1-51.25 25.94-15.63 10.32-19.06 15.94-21.25 26.25-1.72 14.07 10.53 26.25 25 23.75 14 .32 32.5-19.5 32.5-19.5s25.15-34.35 42.5-58c38.47-56.49 110.75-137.5 110.75-137.5z" fill="#ffc709" stroke="#000" stroke-width="6.25" transform="matrix(-.20239512 -.02988855 -.02989484 .20235259 852.491198 -15.325361)"/><path d="m1072.69 1170.14s-21.08 23.85-50.19 72.22c-28.17 47.44-29.37 49.38-42.5 85-9.38 34.69-9.47 46.41-2.97 65.78 8.38 15.62 16.58 18.91 24.22 19.22s11.57-1.78 17.18-10.41c11.25-25.53-2.93-38.34-7.18-59.59s-2.49-4.91-2.5-20.65c2.34-20.9 8.9-26.37 11.72-32.01 4.22-7.97 7.2-13.98 30.78-49.17 24.52-37.54 36.25-58.17 36.25-58.17s2.59-8.39-3.08-12.5c-5.43-3.94-11.73.28-11.73.28z" fill="#ffc709" stroke="#000" stroke-width="6.25" transform="matrix(-.204591 0 0 .204548 792.034148 -47.830493)"/><path d="m1286.66 1173.43s-46.05 55.18-62.91 76.43c-20.14 23.13-40.43 57.03-57.5 74.06-19.89 15.63-37.5 16.1-51.25 25.94-15.63 10.32-19.06 15.94-21.25 26.25-1.72 14.07 10.53 26.25 25 23.75 14 .32 32.5-19.5 32.5-19.5s25.15-34.35 42.5-58c38.47-56.49 110.75-137.5 110.75-137.5z" fill="#ffc709" stroke="#000" stroke-width="6.25" transform="matrix(-.204591 0 0 .204548 796.662324 -54.673175)"/><path d="m1072.69 1170.14s-21.08 23.85-50.19 72.22c-28.17 47.44-29.37 49.38-42.5 85-9.38 34.69-9.47 46.41-2.97 65.78 8.38 15.62 16.58 18.91 24.22 19.22s11.57-1.78 17.18-10.41c11.25-25.53-2.93-38.34-7.18-59.59s-2.49-4.91-2.5-20.65c2.34-20.9 8.9-26.37 11.72-32.01 4.22-7.97 7.2-13.98 30.78-49.17 24.52-37.54 36.25-58.17 36.25-58.17s2.59-8.39-3.08-12.5c-5.43-3.94-11.73.28-11.73.28z" fill="#ffc709" stroke="#000" stroke-width="6.25" transform="matrix(-.20318628 .02392823 .02393326 .20314357 728.777475 -77.198881)"/><path d="m1286.66 1173.43s-46.05 55.18-62.91 76.43c-20.14 23.13-40.43 57.03-57.5 74.06-19.89 15.63-37.5 16.1-51.25 25.94-15.63 10.32-19.06 15.94-21.25 26.25-1.72 14.07 10.53 26.25 25 23.75 14 .32 32.5-19.5 32.5-19.5s25.15-34.35 42.5-58c38.47-56.49 110.75-137.5 110.75-137.5z" fill="#ffc709" stroke="#000" stroke-width="6.25" transform="matrix(-.204591 0 0 .204548 793.06757 -53.034337)"/><path d="m1072.69 1170.14s-21.08 23.85-50.19 72.22c-28.17 47.44-29.37 49.38-42.5 85-9.38 34.69-9.47 46.41-2.97 65.78 8.38 15.62 16.58 18.91 24.22 19.22s11.57-1.78 17.18-10.41c11.25-25.53-2.93-38.34-7.18-59.59s-2.49-4.91-2.5-20.65c2.34-20.9 8.9-26.37 11.72-32.01 4.22-7.97 7.2-13.98 30.78-49.17 24.52-37.54 36.25-58.17 36.25-58.17s2.59-8.39-3.08-12.5c-5.43-3.94-11.73.28-11.73.28z" fill="#ffc709" stroke="#000" stroke-width="6.25" transform="matrix(-.20308828 .02474601 .02475121 .20304559 735.501768 -82.521424)"/><path d="m1286.66 1173.43s-46.05 55.18-62.91 76.43c-20.14 23.13-40.43 57.03-57.5 74.06-19.89 15.63-37.5 16.1-51.25 25.94-15.63 10.32-19.06 15.94-21.25 26.25-1.72 14.07 10.53 26.25 25 23.75 14 .32 32.5-19.5 32.5-19.5s25.15-34.35 42.5-58c38.47-56.49 110.75-137.5 110.75-137.5z" fill="#ffc709" stroke="#000" stroke-width="6.25" transform="matrix(-.204591 0 0 .204548 792.034148 -47.830493)"/><path d="m1286.66 1173.43s-46.05 55.18-62.91 76.43c-20.14 23.13-40.43 57.03-57.5 74.06-19.89 15.63-37.5 16.1-51.25 25.94-15.63 10.32-19.06 15.94-21.25 26.25-1.72 14.07 10.53 26.25 25 23.75 14 .32 32.5-19.5 32.5-19.5s25.15-34.35 42.5-58c38.47-56.49 110.75-137.5 110.75-137.5z" fill="#ffc709" stroke="#000" stroke-width="6.25" transform="matrix(-.22621218 -.00890796 -.01077699 .21428858 835.371637 -38.642646)"/><path d="m1324.2 1275.25s-6.23 8.37-58.65 83.36c-47.27 81.57-54.3 96.83-54.3 96.83s-7.49 15.67-15.62 20.67-22.42 5.24-26.88 2.19c-4.25-2.91-6.56-3.28-8.75-18.44 1.1-9.06 3.53-12.78 7.09-16.34 7.3-6.15 11.13-7.31 20.31-10.76 8.97-5.26 12.28-10.05 18.11-18.91 11.41-20.21 16.46-30.07 35.84-59.66 25.09-39.08 45.16-63.14 68.33-93.95z" fill="#ffc709" stroke="#000" stroke-width="6.25" transform="matrix(-.20431746 .01057235 .01057453 .20427452 785.76818 -63.065862)"/><path d="m1286.66 1173.43s-46.05 55.18-62.91 76.43c-20.14 23.13-40.43 57.03-57.5 74.06-19.89 15.63-37.5 16.1-51.25 25.94-15.63 10.32-19.06 15.94-21.25 26.25-1.72 14.07 10.53 26.25 25 23.75 14 .32 32.5-19.5 32.5-19.5s25.15-34.35 42.5-58c38.47-56.49 110.75-137.5 110.75-137.5z" fill="#ffc709" stroke="#000" stroke-width="6.25" transform="matrix(-.2301526 -.0255642 -.02920557 .20288359 858.576962 3.484464)"/><path d="m1324.2 1275.25s-6.23 8.37-58.65 83.36c-47.27 81.57-54.3 96.83-54.3 96.83s-7.49 15.67-15.62 20.67-22.42 5.24-26.88 2.19c-4.25-2.91-6.56-3.28-8.75-18.44 1.1-9.06 3.53-12.78 7.09-16.34 7.3-6.15 11.13-7.31 20.31-10.76 8.97-5.26 12.28-10.05 18.11-18.91 11.41-20.21 16.46-30.07 35.84-59.66 25.09-39.08 45.16-63.14 68.33-93.95z" fill="#ffc709" stroke="#000" stroke-width="6.25" transform="matrix(-.204591 0 0 .204548 792.034148 -47.830493)"/><path d="m1627.16 871.97c-72.04 7.59-141.32 24.5-206.53 49.66l5.56 11.15c65.15-24.99 133.59-41.32 202.97-48.69 6.04-.68 4.7-12.78-2-12.12z" fill="#ffc709" stroke="#000" stroke-linecap="round" stroke-linejoin="round" stroke-width="5.14" transform="matrix(-.204591 0 0 .204548 792.034148 -47.830493)"/><path d="m1668.81 891.22c-66.16 3.43-119.49 13.52-174.59 29.62-21.42 6.15-42.54 13.26-63.34 21.25l5.65 11.32c74.64-28.39 153.64-45.22 233.38-49.75 7.35-.8 6.31-12.32-1.1-12.44z" fill="#ffc709" stroke="#000" stroke-linecap="round" stroke-linejoin="round" stroke-width="5" transform="matrix(-.204591 0 0 .204548 792.034148 -47.830493)"/><path d="m1638.19 916.41c-67.28 6.84-133.74 22.31-197 46.25l4.75 9.5c62.31-23.45 127.75-38.58 193.97-45.38 6.13-.44 4.89-10.94-1.72-10.37z" fill="#ffc709" stroke="#000" stroke-linecap="round" stroke-linejoin="round" stroke-width="5" transform="matrix(-.204591 0 0 .204548 792.034148 -47.830493)"/><path d="m1449.69 979.66 5.62 11.22c88.96-32.39 168.25-44.8 236.41-46.82 7.07-.43 7.09-11.94-.94-12.37-77.42 2.68-166.49 19.97-241.09 47.97z" fill="#ffc709" stroke="#000" stroke-linecap="round" stroke-linejoin="round" stroke-width="5" transform="matrix(-.204591 0 0 .204548 792.034148 -47.830493)"/><path d="m1654.69 956.06c-59.27 4.9-125.95 18.84-194.69 44.19l5.75 11.47c59.11-21.89 138.31-39.45 191.09-43.34 7.34-1.09 5.61-12.91-2.15-12.32z" fill="#ffc709" stroke="#000" stroke-linecap="round" stroke-linejoin="round" stroke-width="5" transform="matrix(-.204591 0 0 .204548 792.034148 -47.830493)"/><path d="m1471.38 1022.91 5.59 11.18c60.17-22.09 158.98-42.99 216.34-42.03 6.2-.48 5.69-12.04-.53-12.53-71.94-.04-147.15 16.44-221.4 43.38z" fill="#ffc709" stroke="#000" stroke-linecap="round" stroke-linejoin="round" stroke-width="5" transform="matrix(-.204591 0 0 .204548 792.034148 -47.830493)"/><path d="m1648.13 1006.22c-56.4 6.45-112.14 19.57-165.54 39.09l5.6 11.16c50.27-18.16 105.78-32.17 161.37-37.72 8.24-1.16 7.09-13.05-1.43-12.53z" fill="#ffc709" stroke="#000" stroke-linecap="round" stroke-linejoin="round" stroke-width="5" transform="matrix(-.204591 0 0 .204548 792.034148 -47.830493)"/><path d="m1493.75 1067.59 5.63 11.19c49.24-17.66 127.05-34.13 180-36.87 7.69-.88 6.67-12.49-1.07-12.69-61.98 2.35-129.52 19.07-184.56 38.37z" fill="#ffc709" stroke="#000" stroke-linecap="round" stroke-linejoin="round" stroke-width="5" transform="matrix(-.204591 0 0 .204548 792.034148 -47.830493)"/><path d="m1683.91 1056.22c-45.91.35-126.34 17.26-177.97 35.66l5.62 11.21c49.35-17.46 130.66-33.53 172.94-34.53 8.52-.09 8.33-12.25-.59-12.34z" fill="#ffc709" stroke="#000" stroke-linecap="round" stroke-linejoin="round" stroke-width="5" transform="matrix(-.204591 0 0 .204548 792.034148 -47.830493)"/><path d="m1644.75 1085.25c-43.05 6.13-85.59 16.45-126.66 30.91l5.6 11.15c39.21-14.21 82.91-24.7 123.65-30.03 7.86-1.66 5.99-13.72-2.59-12.03z" fill="#ffc709" stroke="#000" stroke-linecap="round" stroke-linejoin="round" stroke-width="5" transform="matrix(-.204591 0 0 .204548 792.034148 -47.830493)"/><path d="m1682.31 1105.81c-47.42 1.7-109.34 15.64-153.78 31.19l5.63 11.22c41.43-14.3 100.57-28.18 148.34-29.91 8.66-.47 7.93-13.03-.19-12.5z" fill="#ffc709" stroke="#000" stroke-linecap="round" stroke-linejoin="round" stroke-width="5" transform="matrix(-.204591 0 0 .204548 792.034148 -47.830493)"/><path d="m900.43 1739.54s15.46 103.82 68.07 77.08c35.91-41.93-68.07-77.08-68.07-77.08z" fill="#ffc709" stroke="#000" stroke-linejoin="round" stroke-width="6.29" transform="matrix(.07014341 .18136739 .18510228 -.06830962 80.509614 126.90975)"/><path d="m900.43 1739.54s15.46 103.82 68.07 77.08c35.91-41.93-68.07-77.08-68.07-77.08z" fill="#ffc709" stroke="#000" stroke-linejoin="round" stroke-width="6.29" transform="matrix(.12583615 -.13683279 .13986925 .12305076 113.432398 93.544699)"/><path d="m900.43 1739.54s15.46 103.82 68.07 77.08c35.91-41.93-68.07-77.08-68.07-77.08z" fill="#ffc709" stroke="#000" stroke-linejoin="round" stroke-width="6.29" transform="matrix(-.01698969 .18691739 .18564035 .01710649 174.875167 -27.518467)"/><path d="m900.43 1739.54s15.46 103.82 68.07 77.08c35.91-41.93-68.07-77.08-68.07-77.08z" fill="#ffc709" stroke="#000" stroke-linejoin="round" stroke-width="6.29" transform="matrix(.10913723 -.14100639 .14080219 .1106711 138.938758 124.274354)"/><path d="m900.43 1739.54s15.46 103.82 68.07 77.08c35.91-41.93-68.07-77.08-68.07-77.08z" fill="#ffc709" stroke="#000" stroke-linejoin="round" stroke-width="6.29" transform="matrix(-.03883158 .17940762 .17960778 .03878844 217.49761 -54.335467)"/><path d="m900.43 1739.54s15.46 103.82 68.07 77.08c35.91-41.93-68.07-77.08-68.07-77.08z" fill="#ffc709" stroke="#000" stroke-linejoin="round" stroke-width="6.29" transform="matrix(.10047219 -.1401837 .13387555 .1119121 169.058645 126.515586)"/><path d="m900.43 1739.54s15.46 103.82 68.07 77.08c35.91-41.93-68.07-77.08-68.07-77.08z" fill="#ffc709" stroke="#000" stroke-linejoin="round" stroke-width="6.29" transform="matrix(-.07483693 .15963601 .16662709 .07169694 284.345673 -88.418952)"/><path d="m900.43 1739.54s15.46 103.82 68.07 77.08c35.91-41.93-68.07-77.08-68.07-77.08z" fill="#ffc709" stroke="#000" stroke-linejoin="round" stroke-width="6.29" transform="matrix(.13042247 -.12234139 .12278672 .13352362 169.53125 77.120517)"/><path d="m900.43 1739.54s15.46 103.82 68.07 77.08c35.91-41.93-68.07-77.08-68.07-77.08z" fill="#ffc709" stroke="#000" stroke-linejoin="round" stroke-width="6.29" transform="matrix(.13711055 -.09842952 .0992252 .13812042 213.160281 53.147696)"/><path d="m900.43 1739.54s15.46 103.82 68.07 77.08c35.91-41.93-68.07-77.08-68.07-77.08z" fill="#ffc709" stroke="#000" stroke-linejoin="round" stroke-width="6.29" transform="matrix(-.07597016 .15499175 .16299704 .07223879 301.48017 -77.701046)"/><path d="m900.43 1739.54s15.46 103.82 68.07 77.08c35.91-41.93-68.07-77.08-68.07-77.08z" fill="#ffc709" stroke="#000" stroke-linejoin="round" stroke-width="6.29" transform="matrix(-.09462395 .14686771 .15208947 .09137486 347.015989 -96.886217)"/><path d="m900.43 1739.54s15.46 103.82 68.07 77.08c35.91-41.93-68.07-77.08-68.07-77.08z" fill="#ffc709" stroke="#000" stroke-linejoin="round" stroke-width="6.29" transform="matrix(.13828285 -.10990957 .09915932 .15000425 220.541924 50.15884)"/><path d="m900.43 1739.54s15.46 103.82 68.07 77.08c35.91-41.93-68.07-77.08-68.07-77.08z" fill="#ffc709" stroke="#000" stroke-linejoin="round" stroke-width="6.29" transform="matrix(.07080629 .2090276 .20355618 -.07227458 63.15416 78.436783)"/><path d="m900.43 1739.54s15.46 103.82 68.07 77.08c35.91-41.93-68.07-77.08-68.07-77.08z" fill="#ffc709" stroke="#000" stroke-linejoin="round" stroke-width="6.29" transform="matrix(-.05639285 .20188315 .20506565 .05538342 193.488856 -138.551826)"/><path d="m900.43 1739.54s15.46 103.82 68.07 77.08c35.91-41.93-68.07-77.08-68.07-77.08z" fill="#ffc709" stroke="#000" stroke-linejoin="round" stroke-width="6.29" transform="matrix(-.06731412 .21675338 .21141411 .06931129 203.947548 -170.963684)"/><path d="m900.43 1739.54s15.46 103.82 68.07 77.08c35.91-41.93-68.07-77.08-68.07-77.08z" fill="#ffc709" stroke="#000" stroke-linejoin="round" stroke-width="6.29" transform="matrix(-.08070092 .20547051 .19940032 .08320297 248.988257 -179.052739)"/><path d="m900.43 1739.54s15.46 103.82 68.07 77.08c35.91-41.93-68.07-77.08-68.07-77.08z" fill="#ffc709" stroke="#000" stroke-linejoin="round" stroke-width="6.29" transform="matrix(-.10816644 .17900302 .18267971 .10448619 315.394404 -184.377124)"/><path d="m900.43 1739.54s15.46 103.82 68.07 77.08c35.91-41.93-68.07-77.08-68.07-77.08z" fill="#ffc709" stroke="#000" stroke-linejoin="round" stroke-width="6.29" transform="matrix(-.11309402 .17769167 .17833297 .11245067 336.954203 -190.095263)"/><path d="m900.43 1739.54s15.46 103.82 68.07 77.08c35.91-41.93-68.07-77.08-68.07-77.08z" fill="#ffc709" stroke="#000" stroke-linejoin="round" stroke-width="6.29" transform="matrix(-.11164244 .17801853 .17923726 .11026487 343.179907 -179.987728)"/><path d="m900.43 1739.54s15.46 103.82 68.07 77.08c35.91-41.93-68.07-77.08-68.07-77.08z" fill="#ffc709" stroke="#000" stroke-linejoin="round" stroke-width="6.29" transform="matrix(-.13156449 .16264409 .16261097 .1316293 399.542682 -194.950414)"/><path d="m900.43 1739.54s15.46 103.82 68.07 77.08c35.91-41.93-68.07-77.08-68.07-77.08z" fill="#ffc709" stroke="#000" stroke-linejoin="round" stroke-width="6.29" transform="matrix(.1845687 -.09861443 .09737775 .18691167 124.803566 -81.436297)"/><path d="m900.43 1739.54s15.46 103.82 68.07 77.08c35.91-41.93-68.07-77.08-68.07-77.08z" fill="#ffc709" stroke="#000" stroke-linejoin="round" stroke-width="6.29" transform="matrix(.03093273 .22006501 .20223861 -.03365919 90.773945 6.50932)"/><path d="m900.43 1739.54s15.46 103.82 68.07 77.08c35.91-41.93-68.07-77.08-68.07-77.08z" fill="#ffc709" stroke="#000" stroke-linejoin="round" stroke-width="6.29" transform="matrix(.12790047 -.17652226 .17623898 .12810575 49.516124 103.322502)"/><path d="m900.43 1739.54s15.46 103.82 68.07 77.08c35.91-41.93-68.07-77.08-68.07-77.08z" fill="#ffc709" stroke="#000" stroke-linejoin="round" stroke-width="6.29" transform="matrix(-.02316297 .21553632 .21844999 .02285415 125.920633 -86.170561)"/><path d="m900.43 1739.54s15.46 103.82 68.07 77.08c35.91-41.93-68.07-77.08-68.07-77.08z" fill="#ffc709" stroke="#000" stroke-linejoin="round" stroke-width="6.29" transform="matrix(.13150496 -.18312876 .17591982 .13689334 60.893429 98.404555)"/><path d="m900.43 1739.54s15.46 103.82 68.07 77.08c35.91-41.93-68.07-77.08-68.07-77.08z" fill="#ffc709" stroke="#000" stroke-linejoin="round" stroke-width="6.29" transform="matrix(.12912781 -.16598007 .16420699 .13052187 96.166963 100.605082)"/><path d="m900.43 1739.54s15.46 103.82 68.07 77.08c35.91-41.93-68.07-77.08-68.07-77.08z" fill="#ffc709" stroke="#000" stroke-linejoin="round" stroke-width="6.29" transform="matrix(-.04973198 .23523838 .23129831 .05057858 141.794848 -148.312243)"/><path d="m900.43 1739.54s15.46 103.82 68.07 77.08c35.91-41.93-68.07-77.08-68.07-77.08z" fill="#ffc709" stroke="#000" stroke-linejoin="round" stroke-width="6.29" transform="matrix(-.08590285 .20410699 .20928023 .08377938 228.379805 -169.722691)"/><path d="m900.43 1739.54s15.46 103.82 68.07 77.08c35.91-41.93-68.07-77.08-68.07-77.08z" fill="#ffc709" stroke="#000" stroke-linejoin="round" stroke-width="6.29" transform="matrix(.14336244 -.15335966 .14596095 .15062894 126.536451 60.079418)"/><path d="m900.43 1739.54s15.46 103.82 68.07 77.08c35.91-41.93-68.07-77.08-68.07-77.08z" fill="#ffc709" stroke="#000" stroke-linejoin="round" stroke-width="6.29" transform="matrix(-.10595727 .19690486 .19984633 .10439721 276.178401 -191.52444)"/><path d="m900.43 1739.54s15.46 103.82 68.07 77.08c35.91-41.93-68.07-77.08-68.07-77.08z" fill="#ffc709" stroke="#000" stroke-linejoin="round" stroke-width="6.29" transform="matrix(-.11356458 .18002576 .18265557 .11192907 324.261378 -181.860365)"/><path d="m900.43 1739.54s15.46 103.82 68.07 77.08c35.91-41.93-68.07-77.08-68.07-77.08z" fill="#ffc709" stroke="#000" stroke-linejoin="round" stroke-width="6.29" transform="matrix(.17257026 -.12895974 .13015425 .17098576 138.009915 9.498994)"/><path d="m900.43 1739.54s15.46 103.82 68.07 77.08c35.91-41.93-68.07-77.08-68.07-77.08z" fill="#ffc709" stroke="#000" stroke-linejoin="round" stroke-width="6.29" transform="matrix(-.20992673 -.10792505 -.11724803 .18543953 968.321825 166.621722)"/><path d="m900.43 1739.54s15.46 103.82 68.07 77.08c35.91-41.93-68.07-77.08-68.07-77.08z" fill="#ffc709" stroke="#000" stroke-linejoin="round" stroke-width="6.29" transform="matrix(-.20397007 -.13146055 -.13279224 .20192426 982.470724 168.998569)"/><path d="m900.43 1739.54s15.46 103.82 68.07 77.08c35.91-41.93-68.07-77.08-68.07-77.08z" fill="#ffc709" stroke="#000" stroke-linejoin="round" stroke-width="6.29" transform="matrix(-.16665185 -.118654 -.11867853 .16661682 913.201327 228.890224)"/><path d="m900.43 1739.54s15.46 103.82 68.07 77.08c35.91-41.93-68.07-77.08-68.07-77.08z" fill="#ffc709" stroke="#000" stroke-linejoin="round" stroke-width="6.29" transform="matrix(.13051515 .15752098 -.15755369 .13048771 700.42996 4.561614)"/><path d="m900.43 1739.54s15.46 103.82 68.07 77.08c35.91-41.93-68.07-77.08-68.07-77.08z" fill="#ffc709" stroke="#000" stroke-linejoin="round" stroke-width="6.29" transform="matrix(-.19846227 -.07626797 -.0754104 .20071804 865.572337 110.81755)"/><path d="m900.43 1739.54s15.46 103.82 68.07 77.08c35.91-41.93-68.07-77.08-68.07-77.08z" fill="#ffc709" stroke="#000" stroke-linejoin="round" stroke-width="6.29" transform="matrix(-.17844488 -.10005384 -.10007446 .17840738 871.255875 167.298775)"/><path d="m900.43 1739.54s15.46 103.82 68.07 77.08c35.91-41.93-68.07-77.08-68.07-77.08z" fill="#ffc709" stroke="#000" stroke-linejoin="round" stroke-width="6.29" transform="matrix(.11906194 .1741808 -.17252791 .12020202 729.361173 16.657969)"/><path d="m900.43 1739.54s15.46 103.82 68.07 77.08c35.91-41.93-68.07-77.08-68.07-77.08z" fill="#ffc709" stroke="#000" stroke-linejoin="round" stroke-width="6.29" transform="matrix(-.18079379 -.11449349 -.1156066 .17905211 911.393765 195.767766)"/><path d="m900.43 1739.54s15.46 103.82 68.07 77.08c35.91-41.93-68.07-77.08-68.07-77.08z" fill="#ffc709" stroke="#000" stroke-linejoin="round" stroke-width="6.29" transform="matrix(.09497912 .17073744 -.16471928 .10647623 719.317801 35.722865)"/><path d="m900.43 1739.54s15.46 103.82 68.07 77.08c35.91-41.93-68.07-77.08-68.07-77.08z" fill="#ffc709" stroke="#000" stroke-linejoin="round" stroke-width="6.29" transform="matrix(-.16379085 -.10677774 -.10691844 .16366908 861.223346 206.076985)"/><path d="m900.43 1739.54s15.46 103.82 68.07 77.08c35.91-41.93-68.07-77.08-68.07-77.08z" fill="#ffc709" stroke="#000" stroke-linejoin="round" stroke-width="6.29" transform="matrix(.10402225 .15352268 -.15569498 .10107412 686.013864 67.866152)"/><path d="m900.43 1739.54s15.46 103.82 68.07 77.08c35.91-41.93-68.07-77.08-68.07-77.08z" fill="#ffc709" stroke="#000" stroke-linejoin="round" stroke-width="6.29" transform="matrix(-.15460369 -.13396912 -.13399688 .1545712 893.377072 254.045537)"/><path d="m900.43 1739.54s15.46 103.82 68.07 77.08c35.91-41.93-68.07-77.08-68.07-77.08z" fill="#ffc709" stroke="#000" stroke-linejoin="round" stroke-width="6.29" transform="matrix(.09935573 .18752838 -.18795059 .09913214 765.116724 50.582664)"/><path d="m900.43 1739.54s15.46 103.82 68.07 77.08c35.91-41.93-68.07-77.08-68.07-77.08z" fill="#ffc709" stroke="#000" stroke-linejoin="round" stroke-width="6.29" transform="matrix(.0979193 .17959908 -.17963601 .09789872 741.622721 68.592911)"/><path d="m900.43 1739.54s15.46 103.82 68.07 77.08c35.91-41.93-68.07-77.08-68.07-77.08z" fill="#ffc709" stroke="#000" stroke-linejoin="round" stroke-width="6.29" transform="matrix(.12278427 .16361651 -.1636505 .12275846 673.796099 30.177569)"/><path d="m900.43 1739.54s15.46 103.82 68.07 77.08c35.91-41.93-68.07-77.08-68.07-77.08z" fill="#ffc709" stroke="#000" stroke-linejoin="round" stroke-width="6.29" transform="matrix(-.1914401 .0999307 .10162015 .18741649 590.732767 -184.134734)"/><path d="m900.43 1739.54s15.46 103.82 68.07 77.08c35.91-41.93-68.07-77.08-68.07-77.08z" fill="#ffc709" stroke="#000" stroke-linejoin="round" stroke-width="6.29" transform="matrix(-.20059166 .0864021 .08754899 .19580357 627.857031 -174.059518)"/><path d="m900.43 1739.54s15.46 103.82 68.07 77.08c35.91-41.93-68.07-77.08-68.07-77.08z" fill="#ffc709" stroke="#000" stroke-linejoin="round" stroke-width="6.29" transform="matrix(-.2179467 .073256 .07897785 .19758498 661.966034 -152.695707)"/><path d="m900.43 1739.54s15.46 103.82 68.07 77.08c35.91-41.93-68.07-77.08-68.07-77.08z" fill="#ffc709" stroke="#000" stroke-linejoin="round" stroke-width="6.29" transform="matrix(-.21158597 .05715726 .05592986 .21855749 698.535243 -162.033732)"/><path d="m900.43 1739.54s15.46 103.82 68.07 77.08c35.91-41.93-68.07-77.08-68.07-77.08z" fill="#ffc709" stroke="#000" stroke-linejoin="round" stroke-width="6.29" transform="matrix(-.21470393 .04707774 .04818384 .20969647 716.143776 -124.513697)"/><path d="m900.43 1739.54s15.46 103.82 68.07 77.08c35.91-41.93-68.07-77.08-68.07-77.08z" fill="#ffc709" stroke="#000" stroke-linejoin="round" stroke-width="6.29" transform="matrix(-.1644703 .15992544 .17108411 .15365707 423.011315 -191.048252)"/><path d="m900.43 1739.54s15.46 103.82 68.07 77.08c35.91-41.93-68.07-77.08-68.07-77.08z" fill="#ffc709" stroke="#000" stroke-linejoin="round" stroke-width="6.29" transform="matrix(.21308766 -.03589388 .03617987 .21128581 303.51585 -98.851105)"/><path d="m900.43 1739.54s15.46 103.82 68.07 77.08c35.91-41.93-68.07-77.08-68.07-77.08z" fill="#ffc709" stroke="#000" stroke-linejoin="round" stroke-width="6.29" transform="matrix(-.18004806 .12502812 .12827221 .17539664 521.165894 -183.473021)"/><path d="m900.43 1739.54s15.46 103.82 68.07 77.08c35.91-41.93-68.07-77.08-68.07-77.08z" fill="#ffc709" stroke="#000" stroke-linejoin="round" stroke-width="6.29" transform="matrix(-.1473624 .12474053 .14485534 .14146662 439.010332 -118.143049)"/><path d="m900.43 1739.54s15.46 103.82 68.07 77.08c35.91-41.93-68.07-77.08-68.07-77.08z" fill="#ffc709" stroke="#000" stroke-linejoin="round" stroke-width="6.29" transform="matrix(.17175394 -.02883288 .02639122 .1833691 344.546575 -40.437657)"/><path d="m900.43 1739.54s15.46 103.82 68.07 77.08c35.91-41.93-68.07-77.08-68.07-77.08z" fill="#ffc709" stroke="#000" stroke-linejoin="round" stroke-width="6.29" transform="matrix(-.1518681 .09631736 .10248557 .162298 523.21385 -117.179833)"/><path d="m900.43 1739.54s15.46 103.82 68.07 77.08c35.91-41.93-68.07-77.08-68.07-77.08z" fill="#ffc709" stroke="#000" stroke-linejoin="round" stroke-width="6.29" transform="matrix(.20938866 -.02635908 .0262656 .2114699 328.361381 -95.641951)"/><path d="m900.43 1739.54s15.46 103.82 68.07 77.08c35.91-41.93-68.07-77.08-68.07-77.08z" fill="#ffc709" stroke="#000" stroke-linejoin="round" stroke-width="6.29" transform="matrix(-.21038502 .09572499 .09743237 .20658325 608.581286 -197.146442)"/><path d="m900.43 1739.54s15.46 103.82 68.07 77.08c35.91-41.93-68.07-77.08-68.07-77.08z" fill="#ffc709" stroke="#000" stroke-linejoin="round" stroke-width="6.29" transform="matrix(.17800072 -.00745193 .00745249 .17453344 375.427541 -34.193871)"/><path d="m900.43 1739.54s15.46 103.82 68.07 77.08c35.91-41.93-68.07-77.08-68.07-77.08z" fill="#ffc709" stroke="#000" stroke-linejoin="round" stroke-width="6.29" transform="matrix(-.16200702 .0794896 .09142251 .15487065 554.784287 -76.748057)"/><path d="m900.43 1739.54s15.46 103.82 68.07 77.08c35.91-41.93-68.07-77.08-68.07-77.08z" fill="#ffc709" stroke="#000" stroke-linejoin="round" stroke-width="6.29" transform="matrix(.21664346 .0104423 -.01062863 .215297 390.303352 -124.136306)"/><path d="m900.43 1739.54s15.46 103.82 68.07 77.08c35.91-41.93-68.07-77.08-68.07-77.08z" fill="#ffc709" stroke="#000" stroke-linejoin="round" stroke-width="6.29" transform="matrix(-.20700313 .07421042 .06908138 .22224754 659.15393 -191.212913)"/><path d="m900.43 1739.54s15.46 103.82 68.07 77.08c35.91-41.93-68.07-77.08-68.07-77.08z" fill="#ffc709" stroke="#000" stroke-linejoin="round" stroke-width="6.29" transform="matrix(.17862124 .00277034 -.00233976 .1895845 393.953256 -60.432511)"/><path d="m900.43 1739.54s15.46 103.82 68.07 77.08c35.91-41.93-68.07-77.08-68.07-77.08z" fill="#ffc709" stroke="#000" stroke-linejoin="round" stroke-width="6.29" transform="matrix(-.16792359 .06699908 .07494905 .16480044 591.097553 -70.615912)"/><path d="m900.43 1739.54s15.46 103.82 68.07 77.08c35.91-41.93-68.07-77.08-68.07-77.08z" fill="#ffc709" stroke="#000" stroke-linejoin="round" stroke-width="6.29" transform="matrix(.21232659 .02524245 -.02510516 .21288538 422.039508 -120.324145)"/><path d="m900.43 1739.54s15.46 103.82 68.07 77.08c35.91-41.93-68.07-77.08-68.07-77.08z" fill="#ffc709" stroke="#000" stroke-linejoin="round" stroke-width="6.29" transform="matrix(-.21541591 .03741858 .03587524 .22455689 726.754275 -147.118705)"/><path d="m900.43 1739.54s15.46 103.82 68.07 77.08c35.91-41.93-68.07-77.08-68.07-77.08z" fill="#ffc709" stroke="#000" stroke-linejoin="round" stroke-width="6.29" transform="matrix(-.21437863 .02668779 .02644093 .2163811 754.958576 -105.920284)"/><path d="m900.43 1739.54s15.46 103.82 68.07 77.08c35.91-41.93-68.07-77.08-68.07-77.08z" fill="#ffc709" stroke="#000" stroke-linejoin="round" stroke-width="6.29" transform="matrix(.18211545 .03329653 -.03264168 .17814781 445.645218 -57.325447)"/><path d="m900.43 1739.54s15.46 103.82 68.07 77.08c35.91-41.93-68.07-77.08-68.07-77.08z" fill="#ffc709" stroke="#000" stroke-linejoin="round" stroke-width="6.29" transform="matrix(-.19277035 .04009468 .05123818 .18524031 657.068534 -68.887277)"/><path d="m900.43 1739.54s15.46 103.82 68.07 77.08c35.91-41.93-68.07-77.08-68.07-77.08z" fill="#ffc709" stroke="#000" stroke-linejoin="round" stroke-width="6.29" transform="matrix(.20797494 .04300642 -.04131858 .21315129 454.995027 -124.980884)"/><path d="m900.43 1739.54s15.46 103.82 68.07 77.08c35.91-41.93-68.07-77.08-68.07-77.08z" fill="#ffc709" stroke="#000" stroke-linejoin="round" stroke-width="6.29" transform="matrix(-.21057938 .01472418 .01424757 .21750407 761.581596 -100.661355)"/><path d="m900.43 1739.54s15.46 103.82 68.07 77.08c35.91-41.93-68.07-77.08-68.07-77.08z" fill="#ffc709" stroke="#000" stroke-linejoin="round" stroke-width="6.29" transform="matrix(.1770017 .05006455 -.0517515 .17626576 483.993755 -58.414174)"/><path d="m900.43 1739.54s15.46 103.82 68.07 77.08c35.91-41.93-68.07-77.08-68.07-77.08z" fill="#ffc709" stroke="#000" stroke-linejoin="round" stroke-width="6.29" transform="matrix(-.17180488 .02766103 .03413417 .18717308 667.441298 -49.040729)"/><path d="m900.43 1739.54s15.46 103.82 68.07 77.08c35.91-41.93-68.07-77.08-68.07-77.08z" fill="#ffc709" stroke="#000" stroke-linejoin="round" stroke-width="6.29" transform="matrix(.17753875 .04325188 -.05580322 .1706861 489.953491 -31.97925)"/><path d="m900.43 1739.54s15.46 103.82 68.07 77.08c35.91-41.93-68.07-77.08-68.07-77.08z" fill="#ffc709" stroke="#000" stroke-linejoin="round" stroke-width="6.29" transform="matrix(-.204591 0 0 .204548 792.034148 -47.830493)"/><path d="m1100.38 1955.66s-58.75.73-97.94-11.7c-51.44-14.06-71.93-61.6-71.93-61.6s-7.54 10.89-7.07 26.37c.47 14.08 10.53 46.57 35.78 80.97 26.19 42.38 44.02 92.35 65.14 125.16 16.89 29.53 52.55 56.25 52.55 56.25s113.48-13.56 124.46-15.91c14.61-2.23 114.88-25.34 137.38-26.59s73.59 2.03 73.59 2.03-17.98-33.12-26.67-39.53c-17.36-14.38-38.34-20.24-60.06-41.25-11.86-13.03-31.86-36.09-43.11-48.59-14.07-13.44-24.69-26.67-40-35.29-12.5-8.15-142.12-10.32-142.12-10.32z" stroke="#000" stroke-width="3.12" transform="matrix(-.204591 0 0 .204548 792.034148 -47.830493)"/><path d="m1356.85 2074.5s-41.71 1.06-61.79 3.63c-22.19 3.51-69.89 9.28-108.19 13.2-34.4 3.8-63.54 6.02-102.37 6.43l-70.52-3.23c2.25 4.19 8.53 15.46 14.77 24.42 7.5 11.49 13.4 19.14 27.12 31.92 11.27 10.67 18.22 16.21 21.45 18.68 8.45-.94 61.8-7.33 83.34-10.31 35.43-3.45 53.42-8.19 94.22-16.84 21.33-4.35 70.77-14.75 83.63-15.46 14.51-1.17 66.09 1.55 71.49 2.02-3.4-5.59-7.44-12.28-13.09-21.8-8-13.51-14.19-16.99-25.44-24.52-4.46-2.9-14.25-7.99-14.62-8.14z" fill="#ffc709" transform="matrix(-.204591 0 0 .204548 792.034148 -47.830493)"/><path d="m972.03 2008.78c3.29 6.1 11.95 23.58 19.69 39.21 9.9 21.42 15.36 33.09 22.59 47.14 15.72 1.17 31.06 1.62 70.2 2.87 38.83-.41 67.95-2.63 102.36-6.42 38.29-3.91 86.01-9.64 108.21-13.14 20.08-2.56 62.42-3.58 62.42-3.58s-18.81-11.37-27.56-18.87c-10.86-10.08-15.85-17.27-24.71-26.6-11.49-.94-27.5-1.01-45-2.26-30.63-1.72-77.73 1.48-103.98 1.48s-70.63-.89-108.05-5.25c-50.8-3.65-63.03-12-76.17-14.58z" fill="#d00" transform="matrix(-.204591 0 0 .204548 792.034148 -47.830493)"/></g><path d="m929.73 1892.89c7.78 12.04 15.61 24.31 28.13 34.53 21.25 15.17 26.73 18.18 67.78 27.82 36.99 5.85 45.32 4.23 94.64 5.75 48.06 1.48 61.95 2.6 93.04 5.12 15.03 1.21 20.06 2.47 26.53 3.51" fill="none" stroke="#ffc709" stroke-linecap="round" stroke-width="5" transform="matrix(-.204591 0 0 .204548 792.034148 -47.830493)"/><path d="m1509.38 2175.78c-6.86.06-14.16 1.01-21.22 2.25-47.09 8.16-82.57 35.76-199.88 63.5-40.41 11.07-81.72 14.69-129.44 12.31-3.52-.98-6.35-4.94-6.4-9.09l-11.5-6.56c-5.03 7.77-1.97 15.72-.16 20.56 1.49 3.98 3.86 8.49 7.38 11.28 84.81 60.39 86.99 73.38 135.78 119.41 26.9 26.51 35.01 34.9 124.56 20.69 17.67 28.65 21.49 43.59 72.44 28.78l8.56 21.47c7.92 14.79 18.78 15.02 46.34 9.15 71.38-15.35 92.03-32.76 173.54-34.56 81.53 1.8 102.17 19.2 173.56 34.56 27.56 5.87 38.42 5.64 46.34-9.15l8.56-21.47c50.96 14.81 54.78-.13 72.44-28.78 89.56 14.21 97.67 5.82 124.56-20.69 48.79-46.03 50.97-59.02 135.79-119.41 3.51-2.79 5.85-7.3 7.34-11.28 1.81-4.84 4.91-12.79-.13-20.56l-11.5 6.56c-.05 4.15-2.88 8.11-6.4 9.09-47.72 2.38-89.03-1.24-129.44-12.31-117.31-27.74-152.79-55.34-199.87-63.5-18.84-3.31-39.5-4.56-48.29 7.66-10.14 12.37-18.57 35.85-33.09 57.72-27.23-8.65-48.85-16.62-71.12-21.32-29.76-6.26-51.21-5.88-68.75-5.88-17.26 0-38.98-.38-68.72 5.88-22.28 4.7-43.9 12.67-71.13 21.32-14.52-21.87-22.94-45.35-33.09-57.72-5.49-7.64-15.64-10-27.06-9.91z" fill-rule="nonzero" stroke="#000" stroke-width="3.13" transform="matrix(.204591 0 0 .204548 92.172324 -47.830493)"/><path d="m1500.69 2234.12c7.34 13.07 10.33 23.42 13.17 34.8" fill="none" stroke="#ffc709" stroke-width="5" transform="matrix(.204591 0 0 .204548 92.172324 -47.830493)"/><path d="m1216.31 2320.84c29.99-3.25 38.72-4.07 63.52-8.19 23.26-4.25 42.47-8.51 63.38-14.16 6.33 9.42 12.22 18.47 18.78 27.82 5.88 9.37 8.5 12.82 17.62 32.14-18.82 1.71-34.4 4.57-54.2 7.1-16.99 2.22-36.47 4.88-56.4 7.32-7.64-7.49-13.47-13.62-21.79-22.24-10.15-10.23-17.89-18.2-30.91-29.79z" fill="#d00" fill-rule="nonzero" transform="matrix(.204591 0 0 .204548 92.172324 -47.830493)"/><path d="m1426.69 2314.44c-30.18 6.36-33.92 6.97-56.58 14.31 11.51 20.05 17.96 38.98 25.98 55.64 23.24-5.27 35.06-7.72 57.57-12.36l-11.41-24.5z" fill="#d00" fill-rule="nonzero" transform="matrix(.204591 0 0 .204548 92.172324 -47.830493)"/><path d="m1268.92 2372.81c18.44-2.19 36.55-4.72 55.33-7.17 21.95-2.95 36.72-5.42 56.88-7.43 4.16 9.68 6.3 14.89 11.24 25.78 4.13 9.09 9.59 17.71 13.7 25.05-13.35 1.86-23.57 3.45-38.25 4.98-15.85 1.33-21.58 1.84-34.4 1.02-12.61-1.14-21.84-3.61-33.06-12.38-7.26-5.85-18.81-17.61-31.44-29.85z" fill="#ffc709" fill-rule="nonzero" transform="matrix(.204591 0 0 .204548 92.172324 -47.830493)"/><path d="m1396.1 2384.39c20.06-4.68 38.05-8.47 59.22-12.7 5.04 12.15 7.01 17.69 11.31 30.21 4.48 12.61 8.22 24.02 12.33 36.03-10.06 2.71-13.8 3.55-25.04 5-9.09.67-17.58-.3-24.14-5.57-5.26-3.79-12.75-15.3-19.8-27.63-5.32-9.49-9-15.26-13.88-25.34z" fill="#ffc709" fill-rule="nonzero" transform="matrix(.204591 0 0 .204548 92.172324 -47.830493)"/><path d="m1697.78 2292.5c-17.64.95-35.26 3.18-41.03 4.56-33.99 8.32-54.28 15.41-77.53 23.22-41.16 13.76-54.13 20.08-77.28 27.16-18.32 5.61-31.32 8.64-48 12.47 8.02 19.03 14.01 36.37 21.22 57.09 20.94-3.6 37.72-7.34 58.59-13.62 23.4-7.71 43.97-14.27 69.19-21.91 21.82-6.61 37.31-10.33 66.34-15.25 11.59-1.09 20.03-1.77 28.81-2.06v.03c4.19-.14 7.77-.2 11.29-.22 3.52.02 7.11.08 11.31.22v-.03c8.78.3 17.23.97 28.81 2.06 29.03 4.92 44.52 8.64 66.34 15.25 25.22 7.64 45.79 14.2 69.19 21.91 20.87 6.28 37.66 10.02 58.6 13.62 7.21-20.72 13.2-38.06 21.21-57.09-16.67-3.83-29.68-6.86-48-12.47-23.15-7.08-36.12-13.4-77.28-27.16-23.25-7.81-43.54-14.9-77.53-23.22-5.77-1.38-23.39-3.61-41.03-4.56-10.8-.45-12.47-.45-23.22 0z" fill="#d00" fill-rule="nonzero" transform="matrix(.204591 0 0 .204548 92.172324 -47.830493)"/><path d="m1699.53 2363.94v.06c-19.31.33-32.89 1.89-61.72 8.09-47.74 11.11-89.45 27.46-116.9 34.97-16.16 4.09-30.12 6.98-45.72 10.07 5.12 16.14 10.71 30.88 16.56 44.25 6.16 10.05 14.93 11.19 24.5 10.06 15.28-2.35 27.85-5.05 43.31-9.03 30.72-8.27 55.78-16.82 85.13-22.82 23.46-4.26 42.07-5.5 64.69-6.15 22.61.65 41.21 1.89 64.68 6.15 29.35 6 54.44 14.55 85.16 22.82 15.47 3.98 28.03 6.68 43.31 9.03 9.57 1.13 18.35-.01 24.5-10.06 5.85-13.37 11.44-28.11 16.56-44.25-15.6-3.09-29.59-5.98-45.75-10.07-27.45-7.51-69.13-23.86-116.87-34.97-28.82-6.19-42.42-7.76-61.72-8.09v-.06c-3.79-.02-6.58.03-9.87.03s-6.07-.05-9.85-.03z" fill="#ffc709" fill-rule="nonzero" transform="matrix(.204591 0 0 .204548 92.172324 -47.830493)"/><path d="m1917.82 2234.9c-5.78 12.04-10.32 23.15-13.42 34.02" fill="none" stroke="#ffc709" stroke-width="5" transform="matrix(.204591 0 0 .204548 92.172324 -47.830493)"/><path d="m2202.47 2320.84c-29.99-3.25-38.73-4.07-63.53-8.19-23.26-4.25-42.46-8.51-63.37-14.16-6.33 9.42-12.23 18.47-18.79 27.82-5.88 9.37-8.49 12.82-17.62 32.14 18.83 1.71 34.4 4.57 54.21 7.1 16.99 2.22 36.46 4.88 56.39 7.32 7.65-7.49 13.48-13.62 21.79-22.24 10.16-10.23 17.9-18.2 30.92-29.79z" fill="#d00" fill-rule="nonzero" transform="matrix(.204591 0 0 .204548 92.172324 -47.830493)"/><path d="m1992.09 2314.44c30.18 6.36 33.91 6.97 56.58 14.31-11.52 20.05-17.97 38.98-25.98 55.64-23.25-5.27-35.07-7.72-57.57-12.36l11.4-24.5z" fill="#d00" fill-rule="nonzero" transform="matrix(.204591 0 0 .204548 92.172324 -47.830493)"/><path d="m2149.85 2372.81c-18.44-2.19-36.55-4.72-55.32-7.17-21.95-2.95-36.73-5.42-56.88-7.43-4.17 9.68-6.31 14.89-11.25 25.78-4.13 9.09-9.58 17.71-13.69 25.05 13.34 1.86 23.57 3.45 38.24 4.98 15.85 1.33 21.58 1.84 34.4 1.02 12.62-1.14 21.85-3.61 33.07-12.38 7.26-5.85 18.8-17.61 31.43-29.85z" fill="#ffc709" fill-rule="nonzero" transform="matrix(.204591 0 0 .204548 92.172324 -47.830493)"/><path d="m2022.67 2384.39c-20.05-4.68-38.05-8.47-59.22-12.7-5.04 12.15-7.01 17.69-11.31 30.21-4.48 12.61-8.22 24.02-12.32 36.03 10.05 2.71 13.79 3.55 25.03 5 9.09.67 17.58-.3 24.15-5.57 5.26-3.79 12.75-15.3 19.79-27.63 5.32-9.49 9.01-15.26 13.88-25.34z" fill="#ffc709" fill-rule="nonzero" transform="matrix(.204591 0 0 .204548 92.172324 -47.830493)"/><path d="m1413.63 2286.61c4.8 13.35 15.25 30.37 22.05 44.73 2.9 5.54 12.28 25.16 19.09 43.1" fill="none" stroke="#ffc709" stroke-width="3.13" transform="matrix(.204591 0 0 .204548 92.172324 -47.830493)"/><path d="m1327.29 2272.5c11.19 17.49 21.65 33.53 33.62 50.68 8.63 12.57 14.02 24.8 19.55 37.43" fill="none" stroke="#ffc709" stroke-width="3.13" transform="matrix(.204591 0 0 .204548 92.172324 -47.830493)"/><path d="m2091.23 2274.32c-11.19 17.48-21.4 31.71-33.37 48.86-8.62 12.57-14.02 24.8-19.55 37.43" fill="none" stroke="#ffc709" stroke-width="3.13" transform="matrix(.204591 0 0 .204548 92.172324 -47.830493)"/><path d="m2005.07 2285.33c-4.79 13.35-15.24 31.67-22.05 46.03-2.9 5.54-12.28 25.16-19.08 43.1" fill="none" stroke="#ffc709" stroke-width="3.13" transform="matrix(.204591 0 0 .204548 92.172324 -47.830493)"/><path d="m1146.37 2241.24c-1.84 2.8-.62 7.08.8 9.66 1.21 2.19 5.21 7.42 10.62 8.18 40.88 1.61 67.19 1.09 109.44-7.02 44.63-10.55 84.82-20.5 129.96-37.38 26.56-9.58 58.2-23.15 77.2-28.33 23.89-6.43 47.25-10.47 55.56-.32 5.97 9.34-13.87 20.31-33.89 26.95-23.27 7.06-45.17 10.68-68.57 13.76-24.71 4.52-50.93 9.45-73.03 16.18-13.83 4.47-29.64 15.73-27.94 25.57 2.86 12.86 21.18 9.19 37.51 3.78l108.34-41.37c12.35-4.51 25.61-2.99 28.4 3.64 2.45 6.79.5 16.19-16.16 19.54l-51.87 8.76c-18.41 3.34-20.46 16.72-19.07 21.54 1.55 5.02 9.03 12.04 31.19 6.75 50.88-12.46 86.36-30.15 119.23-40.27 80.1-27.2 95-29.25 145.21-29.45 48.44.1 63.79 1.77 145.38 29.45 32.87 10.12 68.35 27.81 119.23 40.27 22.16 5.29 29.39-2.51 30.93-7.53 1.4-4.82-1.18-15.35-18.8-20.76l-51.87-8.76c-16.66-3.35-18.61-12.75-16.17-19.54 2.8-6.63 16.05-8.15 28.4-3.64l108.34 41.37c16.34 5.41 35.43 9.6 38.3-3.26 1.7-9.84-11.01-20.84-28.73-26.09-22.1-6.73-48.32-11.66-73.02-16.18-23.41-3.08-45.3-6.7-68.57-13.76-20.03-6.64-39.87-17.35-34.16-26.95 9.62-10.41 33.49-6.37 55.82.32 19 5.18 50.65 18.75 77.21 28.33 45.14 16.88 85.32 26.83 129.96 37.38 42.24 8.11 68.55 8.63 109.44 7.02 5.41-.76 9.41-5.99 10.62-8.18 1.42-2.58 2.64-6.86.79-9.66" fill="none" stroke="#ffc709" stroke-width="5" transform="matrix(.204591 0 0 .204548 92.172324 -47.830493)"/></svg>