<svg height="1663" width="1628" xmlns="http://www.w3.org/2000/svg" xmlns:xlink="http://www.w3.org/1999/xlink"><path d="m1351.0111 228.28503a520.00061 570.51495.0 11-1040.00121.0 520.00061 570.51495.0 111040.00121.0z" fill="#d00" transform="matrix(1.0912344 0 0 1.0056705 -93.129746 593.09453)"/><g transform="matrix(1.000224 0 0 1.000478 -896.77553 -869.78977)"><use height="1052.362" transform="matrix(-1 0 0 1 3344.188 -55.39965)" width="744.094" xlink:href="#a"/><use height="1052.362" transform="matrix(-1 0 0 1 3362.762 -41.47837)" width="744.094" xlink:href="#a"/><use height="1052.362" transform="matrix(-1 0 0 1 3381.317 -27.62595)" width="744.094" xlink:href="#a"/><use height="1052.362" transform="matrix(-1 0 0 1 3399.832 -13.72483)" width="744.094" xlink:href="#a"/><use height="1052.362" transform="matrix(-1 0 0 1 3418.376 .166189)" width="744.094" xlink:href="#a"/><use height="1052.362" transform="translate(74.6188 -55.50708)" width="744.094" xlink:href="#a"/><use height="1052.362" transform="translate(55.83946 -41.54721)" width="744.094" xlink:href="#a"/><use height="1052.362" transform="translate(37.06012 -27.58735)" width="744.094" xlink:href="#a"/><use height="1052.362" transform="translate(18.4746 -13.76497)" width="744.094" xlink:href="#a"/><path id="a" d="m1605.6754 2445.3135 175.518 82.9752 18.5452-13.9201-164.7552-77.6892z" fill="#ffc709" fill-rule="evenodd" stroke="#000" stroke-width="6.25"/></g><path d="m1718.0294 1214.375-249.5307 13.4062v66.5938 13.8125 66.5937l249.5307 13.4063h27.0312l208.0621-30.5625v-49.4375-13.8125-49.4375l-208.0621-30.5625z" stroke="#000" stroke-linejoin="round" stroke-miterlimit="5" stroke-width="12.5" transform="matrix(1.000224 0 0 1.000478 -896.77553 -869.78977)"/><g fill="#ffc709" transform="matrix(1.000224 0 0 1.000478 -896.77553 -869.78977)"><g stroke="#000"><rect height="734.849" rx="21.866" stroke-linejoin="round" stroke-width="13.75" width="129.763" x="1644.46" y="1464.953"/><path d="m2002.8726 1700.0938c-73.748 76.1484-176.9824 123.5624-291.2806 123.5624-81.7117.0-157.7494-24.2838-221.4371-65.9062l-51.9061 76.7188c78.5031 51.6634 172.4019 81.8124 273.3432 81.8124 140.0917.0 266.6678-58.007 357.218-151.1874z" stroke-width="13.75"/><path d="m1662.7483 1371.5-357.4055 660.1562 404.5929-522.125 404.6242 522.125L1757.1856 1371.5z" fill-rule="evenodd" stroke-width="13.75"/></g><path d="m1717.5958 1221.3535-171.4038 8.2143-71.1801 28.5715v86.2838l70.2497 28.5715 172.3342 9.1449h26.2787l202.2697-29.6676v-44.3368-12.7773-45.7324l-202.2697-28.2719z"/><rect height="121.744" rx="59.397" stroke="#000" stroke-linejoin="round" stroke-miterlimit="5" stroke-width="17.717" width="118.793" x="1649.899" y="1351.864"/><path d="m1734.846 1412.9161a26.518162 26.518162.0 11-53.0363.0 26.518162 26.518162.0 1153.0363.0z" stroke="#000" stroke-linejoin="round" stroke-width="6.25" transform="matrix(.948831 0 0 .948729 88.46034 71.26418)"/></g><g id="b" transform="matrix(1.000224 0 0 1.000478 -896.77553 -869.78977)"><path d="m1247.3526 2299.7148-224.5959-251.161-88.14787-315.1588 31.39513-291.0087 143.69314-278.9337 222.1809-171.46567 132.8255-49.5077 37.4327 54.33772 65.2052 19.32005-37.4326 31.3952-4.83 80.9028-227.011 148.5231-137.6555 229.4259-13.2826 258.4061 68.8278 224.5959 263.2361 251.1611z" fill="#ffc709" fill-rule="evenodd"/><use height="1052.362" transform="matrix(.999456 -.032981 .03298088 .999456 -82.2208 115.8993)" width="744.094" xlink:href="#c"/><use height="1052.362" transform="matrix(.99935 -.03605805 .03605791 .99935 -151.9702 83.45806)" width="744.094" xlink:href="#d"/><use height="1052.362" transform="translate(-120.2254 6.373583)" width="744.094" xlink:href="#d"/><use height="1052.362" transform="matrix(.9998 -.01997304 .01997296 .9998 -84.54348 89.98236)" width="744.094" xlink:href="#c"/><use height="1052.362" transform="matrix(.885908 .00017663 -.00019689 .987657 147.2906 -.54859)" width="744.094" xlink:href="#c"/><use height="1052.362" transform="translate(56.08591 -19.55353)" width="744.094" xlink:href="#c"/><use height="1052.362" transform="translate(-25.2257 -14.84422)" width="744.094" xlink:href="#d"/><use height="1052.362" transform="matrix(.998145 -.0608806 .06088038 .998145 -49.46301 100.4263)" width="744.094" xlink:href="#d"/><use height="1052.362" transform="matrix(.999541 -.03026764 .03026752 .999541 80.70093 100.7888)" width="744.094" xlink:href="#c"/><use height="1052.362" transform="translate(23.90821 16.69647)" width="744.094" xlink:href="#c"/><path id="c" d="m991.04165 1855.7068s8.81604 28.9937 30.20795 63.9977c23.7381 36.4117 41.2499 34.8462 41.2499 34.8462s26.6138 4.8462 30.3677-15.9424c1.4077-20.7887-12.6694-28.2769-12.6694-28.7461.0.4692-15.356-11.2737-35.1943-20.1577-17.0228-11.2302-15.9306-11.0047-25.7847-24.6128-6.1002-15.485-4.2192-4.7018-19.21917-65.2295s-21.25391-94.2271-21.72315-94.2271l-21.48953 4.2192 19.46273 88.1356 6.81485 30.0316z" fill="#ffc709" fill-rule="evenodd" stroke="#000" stroke-linejoin="round" stroke-width="6.25"/><path id="d" d="m1049.2277 1688.6562 40.8242 156.9868s4.8872 17.056 7.6052 34.4645c-.5667 20.6932-4.5347 28.8162-4.5347 28.8162-.4692.0-2.6014 10.9424-4.0091 22.1924-.9385 15.4732 5.5746 26.2461 5.5746 25.7769.0.4692 4.996 8.2807 20.1577 9.6884 17.5079-.4692 20.1538-12.9692 20.1538-12.9692s2.7034-1.25 1.9767-18.75-9.4767-45-9.4767-45l-58.7499-211.9986z" fill="#ffc709" fill-rule="evenodd" stroke="#000" stroke-linejoin="round" stroke-width="6.25"/><use height="1052.362" transform="matrix(.997245 -.07417704 .07417692 .997245 28.72989 156.3117)" width="744.094" xlink:href="#c"/><path d="m1130.6244 1752.8215 56.0929 149.9252s6.5436 16.2251 10.9649 33.1054c1.4793 20.6003-1.6645 29.2146-1.6645 29.2146-.4666.066-1.5066 11.2176-1.7958 22.572.5943 15.4764 8.1344 25.2417 8.0881 24.7764.0463.4653 5.7854 7.5077 21.0011 6.7676 17.3632-2.9321 18.7602-15.7005 18.7602-15.7005s2.5649-16.6362-2.2315-32.9494c-3.8579-20.5363-40.6127-87.8674-55.1593-133.384l-32.4247-99.188z" fill="#ffc709" fill-rule="evenodd" stroke="#000" stroke-linejoin="round" stroke-width="6.25"/><use height="1052.362" transform="translate(35.03599 6.845677)" width="744.094" xlink:href="#e"/><use height="1052.362" transform="translate(19.3666 -.654323)" width="744.094" xlink:href="#e"/><use height="1052.362" transform="matrix(.99154 .129804 -.129804 .99154 310.7798 -167.8081)" width="744.094" xlink:href="#e"/><use height="1052.362" transform="matrix(.989267 -.14612 .14612 .989267 -295.5019 158.9123)" width="744.094" xlink:href="#f"/><path id="e" d="m1072.6899 1170.1423s-21.0786 23.8443-50.1903 72.2199c-28.17325 47.4371-29.36903 49.377-42.49993 85-9.37695 34.6845-9.46468 46.4077-2.96529 65.7808 8.37636 15.619 16.57717 18.9074 24.21522 19.2192 7.6428.312 11.5655-1.7817 17.1845-10.4137 11.25-25.5248-2.9308-38.3363-7.1845-59.5863s-2.4921-4.9167-2.5-20.6543c2.3383-20.8993 8.9038-26.3725 11.7192-32.0034 4.2232-7.9772 7.1965-13.9825 30.7807-49.1757 24.5229-37.5394 36.25-58.1666 36.25-58.1666s2.5857-8.389-3.0786-12.5c-5.4329-3.9431-11.731.2801-11.731.2801z" fill="#ffc709" fill-rule="evenodd" stroke="#000" stroke-width="6.25"/><use height="1052.362" transform="translate(-22.62156 -33.45269)" width="744.094" xlink:href="#f"/><use height="1052.362" transform="matrix(.993134 .116981 -.116981 .993134 309.1862 -143.5774)" width="744.094" xlink:href="#e"/><use height="1052.362" transform="translate(-5.051164 -25.44072)" width="744.094" xlink:href="#f"/><use height="1052.362" transform="matrix(.992655 .120979 -.120979 .992655 276.319 -169.5983)" width="744.094" xlink:href="#e"/><path id="f" d="m1286.6644 1173.427s-46.0592 55.1852-62.9152 76.4352c-20.1407 23.127-40.4269 57.0229-57.4999 74.0615-19.8884 15.6309-37.496 16.0923-51.2499 25.9385-15.6309 10.3155-19.0615 15.9345-21.25 26.25-1.7192 14.0694 10.5273 26.25 25 23.75 14.0035.3155 32.4999-19.4989 32.4999-19.4989s25.1498-34.3539 42.4999-58.0011c38.4661-56.4943 110.7464-137.5 110.7464-137.5z" fill="#ffc709" fill-rule="evenodd" stroke="#000" stroke-width="6.25"/><use height="1052.362" transform="matrix(1.105681 -.04354951 .05267582 1.047619 -211.8254 44.91779)" width="744.094" xlink:href="#f"/><use height="1052.362" transform="matrix(.998663 .05168639 -.05168621 .998663 30.62677 -74.48307)" width="744.094" xlink:href="#g"/><use height="1052.362" transform="matrix(1.124942 -.124979 .142751 .991863 -325.2479 250.8697)" width="744.094" xlink:href="#f"/><path id="g" d="m1324.2038 1275.2528s-6.229 8.3633-58.6553 83.3594c-47.2646 81.5655-54.2993 96.83-54.2993 96.83s-7.4858 15.67-15.6179 20.67c-8.132 5-22.4242 5.2386-26.882 2.1885-4.2512-2.9087-6.5615-3.2768-8.75-18.4385 1.0962-9.0615 3.5272-12.7788 7.0883-16.3399 7.2985-6.1488 11.134-7.3141 20.3095-10.7602 8.9725-5.259 12.2814-10.0486 18.1147-18.9161 11.4064-20.209 16.4544-30.0619 35.8378-59.6558 25.0867-39.079 45.1571-63.1423 68.3339-93.9532z" fill="#ffc709" fill-rule="evenodd" stroke="#000" stroke-width="6.25"/><path d="m1627.1562 871.96875c-72.0388 7.58879-141.3154 24.5039-206.5312 49.65625l5.5625 11.15625c65.1507-24.99536 133.5884-41.3247 202.9687-48.6875 6.0418-.68744 4.7043-12.77925-2-12.125z" fill="#ffc709" stroke="#000" stroke-linecap="round" stroke-linejoin="round" stroke-width="5.138"/><path d="m1668.8125 891.21875c-66.1617 3.42816-119.4908 13.52612-174.5937 29.625-21.4165 6.14532-42.5438 13.26102-63.3438 21.25l5.6562 11.3125c74.64-28.38852 153.6425-45.21846 233.375-49.75 7.3501-.79161 6.3147-12.31673-1.0937-12.4375z" fill="#ffc709" stroke="#000" stroke-linecap="round" stroke-linejoin="round" stroke-width="5"/><path d="m1638.1875 916.40625c-67.2771 6.83999-133.7328 22.31749-197 46.25l4.75 9.5c62.3083-23.44254 127.7487-38.57674 193.9687-45.375 6.1355-.43953 4.8918-10.94173-1.7187-10.375z" fill="#ffc709" stroke="#000" stroke-linecap="round" stroke-linejoin="round" stroke-width="5"/><path d="m1449.6875 979.65625 5.625 11.21875c88.9622-32.38139 168.245-44.79189 236.4063-46.8125 7.0668-.43535 7.0896-11.93965-.9376-12.375-77.4244 2.6856-166.4926 19.96838-241.0937 47.96875z" fill="#ffc709" stroke="#000" stroke-linecap="round" stroke-linejoin="round" stroke-width="5"/><path d="m1654.6875 956.0625c-59.2637 4.90141-125.9518 18.84084-194.6875 44.1875l5.75 11.4688c59.1136-21.88926 138.3119-39.44726 191.0938-43.3438 7.3314-1.08537 5.6063-12.90425-2.1563-12.3125z" fill="#ffc709" stroke="#000" stroke-linecap="round" stroke-linejoin="round" stroke-width="5"/><path d="m1471.375 1022.9062 5.5938 11.1876c60.176-22.0891 158.9773-42.99803 216.3437-42.0313 6.1959-.48744 5.6834-12.04381-.5313-12.53125-71.9408-.03655-147.1541 16.43943-221.4062 43.37495z" fill="#ffc709" stroke="#000" stroke-linecap="round" stroke-linejoin="round" stroke-width="5"/><path d="m1648.125 1006.2188c-56.3983 6.4542-112.1397 19.5682-165.5312 39.0937l5.5937 11.1563c50.277-18.1637 105.7809-32.172 161.375-37.7188 8.2418-1.1583 7.0918-13.05-1.4375-12.5312z" fill="#ffc709" stroke="#000" stroke-linecap="round" stroke-linejoin="round" stroke-width="5"/><path d="m1493.75 1067.5938 5.625 11.1874c49.246-17.6634 127.052-34.129 180-36.875 7.696-.8749 6.671-12.4833-1.0625-12.6874-61.9843 2.3549-129.527 19.0753-184.5625 38.375z" fill="#ffc709" stroke="#000" stroke-linecap="round" stroke-linejoin="round" stroke-width="5"/><path d="m1683.9062 1056.2188c-45.9062.3473-126.3391 17.2594-177.9687 35.6562l5.625 11.2188c49.3521-17.4634 130.6525-33.5348 172.9375-34.5313 8.523-.0895 8.3251-12.2542-.5938-12.3437z" fill="#ffc709" stroke="#000" stroke-linecap="round" stroke-linejoin="round" stroke-width="5"/><path d="m1644.75 1085.25c-43.0466 6.1332-85.5945 16.4515-126.6562 30.9062l5.5937 11.1563c39.2161-14.2115 82.9142-24.6995 123.6563-30.0313 7.8564-1.6624 5.9855-13.723-2.5938-12.0312z" fill="#ffc709" stroke="#000" stroke-linecap="round" stroke-linejoin="round" stroke-width="5"/><path d="m1682.3125 1105.8125c-47.4196 1.6978-109.3393 15.6419-153.7813 31.1875l5.625 11.2188c41.4299-14.2962 100.5784-28.1747 148.3438-29.9063 8.6585-.477 7.9251-13.0292-.1875-12.5z" fill="#ffc709" stroke="#000" stroke-linecap="round" stroke-linejoin="round" stroke-width="5"/><use height="1052.362" transform="matrix(-.342847 .886674 -.904743 -.333954 3477.79 854.2747)" width="744.094" xlink:href="#h"/><use height="1052.362" transform="matrix(-.615062 -.668952 -.683653 .601574 3316.868 691.1588)" width="744.094" xlink:href="#h"/><use height="1052.362" transform="matrix(.08304219 .913807 -.907373 .08363065 3016.55 99.30195)" width="744.094" xlink:href="#h"/><use height="1052.362" transform="matrix(-.533441 -.689356 -.688213 .541052 3192.195 841.3906)" width="744.094" xlink:href="#h"/><use height="1052.362" transform="matrix(.189801 .877093 -.877887 .18963 2808.218 -31.80175)" width="744.094" xlink:href="#h"/><use height="1052.362" transform="matrix(-.491088 -.685334 -.654357 .547119 3044.978 852.3477)" width="744.094" xlink:href="#h"/><use height="1052.362" transform="matrix(.365788 .780433 -.81444 .350514 2481.48 -198.4304)" width="744.094" xlink:href="#h"/><use height="1052.362" transform="matrix(-.637479 -.598106 -.600157 .652774 3042.67 610.8642)" width="744.094" xlink:href="#h"/><use height="1052.362" transform="matrix(-.670169 -.481205 -.484993 .675247 2829.417 493.6649)" width="744.094" xlink:href="#h"/><use height="1052.362" transform="matrix(.371327 .757728 -.796697 .353163 2397.734 -146.0319)" width="744.094" xlink:href="#h"/><use height="1052.362" transform="matrix(.462503 .718011 -.743383 .446716 2175.161 -239.825)" width="744.094" xlink:href="#h"/><use height="1052.362" transform="matrix(-.675899 -.537329 -.484671 .733345 2793.343 479.0532)" width="744.094" xlink:href="#h"/><use height="1052.362" transform="matrix(-.346087 1.021902 -.994942 -.353338 3562.619 617.2993)" width="744.094" xlink:href="#h"/><use height="1052.362" transform="matrix(.275637 .986972 -1.002316 .27076 2925.568 -443.5212)" width="744.094" xlink:href="#h"/><use height="1052.362" transform="matrix(.329018 1.059671 -1.033348 .338851 2874.447 -601.9771)" width="744.094" xlink:href="#h"/><use height="1052.362" transform="matrix(.39445 1.004511 -.974629 .406765 2654.295 -641.5226)" width="744.094" xlink:href="#h"/><use height="1052.362" transform="matrix(.528696 .875115 -.892902 .510815 2329.721 -667.5531)" width="744.094" xlink:href="#h"/><use height="1052.362" transform="matrix(.552781 .868704 -.871656 .549752 2224.343 -695.5079)" width="744.094" xlink:href="#h"/><use height="1052.362" transform="matrix(.545686 .870302 -.876076 .539066 2193.914 -646.0939)" width="744.094" xlink:href="#h"/><use height="1052.362" transform="matrix(.643061 .795139 -.79481 .643513 1918.417 -719.2436)" width="744.094" xlink:href="#h"/><use height="1052.362" transform="matrix(-.902135 -.482109 -.475963 .913779 3261.291 -164.2933)" width="744.094" xlink:href="#h"/><use height="1052.362" transform="matrix(-.151193 1.075858 -.988502 -.164554 3427.625 265.658)" width="744.094" xlink:href="#h"/><use height="1052.362" transform="matrix(-.625152 -.862987 -.861421 .626287 3629.281 738.9606)" width="744.094" xlink:href="#h"/><use height="1052.362" transform="matrix(.113216 1.053721 -1.06774 .11173 3255.83 -187.4381)" width="744.094" xlink:href="#h"/><use height="1052.362" transform="matrix(-.64277 -.895285 -.859861 .669248 3573.671 714.9177)" width="744.094" xlink:href="#h"/><use height="1052.362" transform="matrix(-.631151 -.811448 -.802611 .638099 3401.265 725.6758)" width="744.094" xlink:href="#h"/><use height="1052.362" transform="matrix(.24308 1.150042 -1.130545 .24727 3178.236 -491.238)" width="744.094" xlink:href="#h"/><use height="1052.362" transform="matrix(.419876 .997844 -1.022915 .409583 2755.035 -595.9101)" width="744.094" xlink:href="#h"/><use height="1052.362" transform="matrix(-.700727 -.749749 -.713428 .736399 3252.822 527.5531)" width="744.094" xlink:href="#h"/><use height="1052.362" transform="matrix(.517898 .962634 -.976809 .51038 2521.404 -702.4952)" width="744.094" xlink:href="#h"/><use height="1052.362" transform="matrix(.555081 .880115 -.892784 .547202 2286.381 -655.2489)" width="744.094" xlink:href="#h"/><use height="1052.362" transform="matrix(-.843489 -.630462 -.636168 .83592 3196.744 280.2743)" width="744.094" xlink:href="#h"/><use height="1052.362" transform="matrix(1.026081 -.527627 .573085 .906582 -861.6593 1048.425)" width="744.094" xlink:href="#h"/><use height="1052.362" transform="matrix(.996965 -.642688 .649062 .987173 -930.8159 1060.041)" width="744.094" xlink:href="#h"/><use height="1052.362" transform="matrix(.814561 -.580079 .580077 .814561 -592.2413 1352.839)" width="744.094" xlink:href="#h"/><use height="1052.362" transform="matrix(-.637932 .770093 .770091 .637932 447.7431 256.1363)" width="744.094" xlink:href="#h"/><use height="1052.362" transform="matrix(.970044 -.372861 .368591 .981276 -359.4397 775.603)" width="744.094" xlink:href="#h"/><use height="1052.362" transform="matrix(.872203 -.489146 .489144 .872203 -387.2204 1051.731)" width="744.094" xlink:href="#h"/><use height="1052.362" transform="matrix(-.581951 .85154 .843282 .587647 306.333 315.2726)" width="744.094" xlink:href="#h"/><use height="1052.362" transform="matrix(.883684 -.559739 .565062 .875355 -583.406 1190.914)" width="744.094" xlink:href="#h"/><use height="1052.362" transform="matrix(-.464239 .834706 .805115 .520544 355.4233 408.478)" width="744.094" xlink:href="#h"/><use height="1052.362" transform="matrix(.800577 -.522018 .522596 .80015 -338.1829 1241.306)" width="744.094" xlink:href="#h"/><use height="1052.362" transform="matrix(-.50844 .750546 .761006 .494134 518.2056 565.6206)" width="744.094" xlink:href="#h"/><use height="1052.362" transform="matrix(.755672 -.654952 .65495 .755672 -495.3443 1475.821)" width="744.094" xlink:href="#h"/><use height="1052.362" transform="matrix(-.485631 .916794 .918665 .48464 131.5668 481.1247)" width="744.094" xlink:href="#h"/><use height="1052.362" transform="matrix(-.47861 .878029 .878025 .47861 246.4011 569.1745)" width="744.094" xlink:href="#h"/><use height="1052.362" transform="matrix(-.600145 .799893 .799891 .600145 577.9245 381.3682)" width="744.094" xlink:href="#h"/><use height="1052.362" transform="matrix(.935721 .488544 -.496699 .916247 983.9212 -666.3682)" width="744.094" xlink:href="#h"/><use height="1052.362" transform="matrix(.980452 .422405 -.427922 .95725 802.4647 -617.1123)" width="744.094" xlink:href="#h"/><use height="1052.362" transform="matrix(1.065277 .358136 -.386028 .965959 635.7466 -512.6684)" width="744.094" xlink:href="#h"/><use height="1052.362" transform="matrix(1.034188 .279432 -.273374 1.068487 457.0037 -558.3204)" width="744.094" xlink:href="#h"/><use height="1052.362" transform="matrix(1.049426 .230155 -.235513 1.025168 370.9369 -374.8913)" width="744.094" xlink:href="#h"/><use height="1052.362" transform="matrix(.803898 .781848 -.836225 .751203 1803.706 -700.1667)" width="744.094" xlink:href="#h"/><use height="1052.362" transform="matrix(-1.041525 -.175479 -.17684 1.032943 2387.776 -249.4307)" width="744.094" xlink:href="#h"/><use height="1052.362" transform="matrix(.880039 .611241 -.626969 .857484 1323.951 -663.1332)" width="744.094" xlink:href="#h"/><use height="1052.362" transform="matrix(.720278 .609835 -.708024 .691606 1725.51 -343.7461)" width="744.094" xlink:href="#h"/><use height="1052.362" transform="matrix(-.839499 -.140959 -.128995 .89646 2187.226 36.14228)" width="744.094" xlink:href="#h"/><use height="1052.362" transform="matrix(.742301 .470879 -.500929 .793447 1313.941 -339.0369)" width="744.094" xlink:href="#h"/><use height="1052.362" transform="matrix(-1.023452 -.128865 -.128381 1.033841 2266.341 -233.7415)" width="744.094" xlink:href="#h"/><use height="1052.362" transform="matrix(1.02832 .467983 -.47623 1.009946 896.6814 -729.9796)" width="744.094" xlink:href="#h"/><use height="1052.362" transform="matrix(-.870032 -.03643122 -.03642634 .853264 2036.286 66.66707)" width="744.094" xlink:href="#h"/><use height="1052.362" transform="matrix(.791858 .388611 -.446855 .757136 1159.631 -141.3732)" width="744.094" xlink:href="#h"/><use height="1052.362" transform="matrix(-1.058907 .05105063 .05195064 1.05255 1963.583 -373.0458)" width="744.094" xlink:href="#h"/><use height="1052.362" transform="matrix(1.011791 .362802 -.337656 1.086531 649.4917 -700.9716)" width="744.094" xlink:href="#h"/><use height="1052.362" transform="matrix(-.873065 .01354367 .01143627 .926846 1945.742 -61.60909)" width="744.094" xlink:href="#h"/><use height="1052.362" transform="matrix(.820777 .327547 -.366336 .805681 982.1377 -111.3936)" width="744.094" xlink:href="#h"/><use height="1052.362" transform="matrix(-1.037813 .123406 .122709 1.040759 1808.458 -354.4088)" width="744.094" xlink:href="#h"/><use height="1052.362" transform="matrix(1.052907 .182933 -.175351 1.097822 319.0755 -485.403)" width="744.094" xlink:href="#h"/><use height="1052.362" transform="matrix(1.047843 .130472 -.129238 1.057852 181.2178 -283.9914)" width="744.094" xlink:href="#h"/><use height="1052.362" transform="matrix(-.890144 .162781 .159546 .870934 1693.077 -46.41922)" width="744.094" xlink:href="#h"/><use height="1052.362" transform="matrix(.942223 .196016 -.250442 .905608 659.6853 -102.9433)" width="744.094" xlink:href="#h"/><use height="1052.362" transform="matrix(-1.016537 .210251 .201957 1.042059 1647.379 -377.1752)" width="744.094" xlink:href="#h"/><use height="1052.362" transform="matrix(1.029275 .07198404 -.0696393 1.063337 148.8458 -258.281)" width="744.094" xlink:href="#h"/><use height="1052.362" transform="matrix(-.865149 .244757 .252951 .861733 1505.641 -51.74182)" width="744.094" xlink:href="#h"/><use height="1052.362" transform="matrix(.839748 .13523 -.166841 .915057 608.985 -5.916645)" width="744.094" xlink:href="#h"/><use height="1052.362" transform="matrix(-.867774 .211451 .272755 .834455 1476.512 77.49399)" width="744.094" xlink:href="#h"/><path id="h" d="m900.42771 1739.5376s15.46127 103.8268 68.06734 77.0832c35.91235-41.9349-68.06734-77.0832-68.06734-77.0832z" fill="#ffc709" fill-rule="evenodd" stroke="#000" stroke-linejoin="round" stroke-width="6.289"/><path d="m1100.3751 1955.6557s-58.75.7316-97.9342-11.6916c-51.44308-14.0655-71.93152-61.6019-71.93152-61.6019s-7.54035 10.8842-7.07111 26.3692c.46924 14.0773 10.52738 46.5724 35.78068 80.9731 26.1918 42.3778 44.02015 92.3422 65.13895 125.1577 16.8955 29.5308 52.5551 56.25 52.5551 56.25s113.4747-13.5645 124.4535-15.9107c14.6156-2.229 114.8825-25.3393 137.3825-26.5893 22.4999-1.25 73.5921 2.0308 73.5921 2.0308s-17.9856-33.127-26.6665-39.5308c-17.362-14.3809-38.3465-20.2455-60.0631-41.25-11.8625-13.0274-31.8625-36.0923-43.1124-48.5923-14.0655-13.4385-24.6846-26.674-40-35.2909-12.4999-8.1476-142.124-10.3233-142.124-10.3233z" fill-rule="evenodd" stroke="#000" stroke-width="3.125"/><path d="m1356.854 2074.4961s-41.7115 1.061-61.7922 3.6332c-22.1924 3.514-69.8928 9.2799-108.1873 13.2008-34.4032 3.7997-63.5477 6.0175-102.3748 6.4279l-70.5197-3.2256c2.2508 4.1834 8.5324 15.4545 14.7698 24.4221 7.4999 11.4891 13.398 19.1363 27.1249 31.92 11.2635 10.6651 18.2194 16.2085 21.4457 18.6803 8.4463-.9416 61.7976-7.3366 83.3353-10.3161 35.4392-3.4499 53.422-8.1934 94.2263-16.8379 21.3308-4.3483 70.7694-14.7521 83.6326-15.4583 14.5055-1.1772 66.0882 1.5435 71.4845 2.0145-3.402-5.591-7.4439-12.2783-13.0938-21.7923-7.9959-13.5161-14.1876-16.9946-25.4374-24.5201-4.4533-2.9023-14.2487-7.9992-14.6139-8.1485z" fill="#ffc709" fill-rule="evenodd"/><path d="m972.03317 2008.7806c3.28471 6.1001 11.95129 23.5777 19.6859 39.2086 9.90313 21.4159 15.36093 33.0883 22.59403 47.1419 15.7197 1.1732 31.058 1.6218 70.2004 2.8718 38.8271-.409 67.9499-2.6345 102.3531-6.4215 38.2945-3.9077 86.0172-9.6381 108.2096-13.1402 20.0807-2.5636 62.423-3.579 62.423-3.579s-18.8087-11.3673-27.5587-18.8673c-10.8616-10.0808-15.8498-17.2758-24.7066-26.6019-11.4964-.9385-27.5-1.0154-45-2.2654-30.6387-1.7193-77.7344 1.4846-103.9844 1.4846-26.2499.0-70.6268-.8969-108.0499-5.2507-50.79641-3.6498-63.02763-12.0001-76.16643-14.5809z" fill="#d00" fill-rule="evenodd"/><path d="m929.72968 1892.8915c7.77971 12.0426 15.61235 24.3128 28.13488 34.5292 21.24721 15.1711 26.72411 18.1839 67.77944 27.8151 36.9909 5.8571 45.3195 4.2363 94.6355 5.7549 48.0628 1.4801 61.9463 2.6002 93.0369 5.1154 15.0305 1.216 20.0621 2.4778 26.5363 3.5169" fill="none" stroke="#ffc709" stroke-linecap="round" stroke-width="5"/></g><use height="1052.362" transform="matrix(-1 0 0 1 1627.9996 0)" width="744.094" xlink:href="#b"/><g transform="matrix(1.000224 0 0 1.000478 -896.77553 -869.78977)"><path d="m1509.375 2175.7812c-6.8537.0566-14.1562 1.0072-21.2188 2.25-47.0846 8.161-82.5619 35.7587-199.875 63.5-40.4081 11.0689-81.7194 14.6887-129.4374 12.3126-3.5268-.9859-6.3503-4.9444-6.4063-9.0938l-11.5-6.5625c-5.032 7.7732-1.9629 15.7273-.1563 20.5625 1.488 3.9825 3.8613 8.4878 7.375 11.2812 84.8121 60.3899 86.9972 73.3755 135.7813 119.4063 26.8977 26.5157 35.0077 34.8989 124.5625 20.6875 17.6658 28.6502 21.4851 43.5994 72.4375 28.7812l8.5625 21.4688c7.9247 14.7973 18.7813 15.0232 46.3438 9.1562 71.3803-15.3549 92.0275-32.7591 173.5312-34.5624 81.5316 1.7993 102.1724 19.2054 173.5625 34.5624 27.5624 5.867 38.419 5.6411 46.3437-9.1562l8.5626-21.4688c50.9525 14.8182 54.7717-.131 72.4374-28.7812 89.5549 14.2114 97.6648 5.8282 124.5626-20.6875 48.784-46.0308 50.9692-59.0164 135.7812-119.4063 3.5138-2.7934 5.8559-7.2987 7.3438-11.2812 1.8065-4.8352 4.907-12.7893-.125-20.5625l-11.5 6.5625c-.0561 4.1494-2.8796 8.1079-6.4063 9.0938-47.7181 2.3761-89.0294-1.2437-129.4375-12.3126-117.313-27.7413-152.7903-55.339-199.875-63.5-18.8335-3.3142-39.4991-4.5633-48.2812 7.6563-10.1477 12.3699-18.5701 35.85-33.0938 57.7187-27.2264-8.6479-48.8491-16.62-71.125-21.3124-29.7535-6.2677-51.209-5.8834-68.75-5.8835-17.2513.0-38.9785-.3814-68.7188 5.8835-22.2759 4.6924-43.8986 12.6645-71.125 21.3124-14.5236-21.8687-22.9461-45.3488-33.0937-57.7187-5.4889-7.6372-15.6396-10.0005-27.0625-9.9063z" fill-rule="evenodd" stroke="#000" stroke-width="3.125"/><path d="m1500.6903 2234.121c7.3409 13.0737 10.3266 23.414 13.1654 34.8006" fill="none" stroke="#ffc709" stroke-width="5"/><g fill-rule="evenodd"><path d="m1216.3066 2320.8437c29.9892-3.2526 38.7254-4.0768 63.5242-8.1985 23.2632-4.2421 42.4645-8.5034 63.3747-14.1582 6.3334 9.4246 12.2246 18.4723 18.7842 27.8215 5.8809 9.3744 8.4992 12.8185 17.6223 32.1453-18.8242 1.709-34.4014 4.562-54.2057 7.1004-16.9895 2.2116-36.4671 4.8757-56.3971 7.3135-7.6402-7.4895-13.4709-13.6218-21.7897-22.2422-10.1535-10.2289-17.8943-18.1958-30.9129-29.7818z" fill="#d00"/><path d="m1426.6875 2314.4375c-30.1796 6.366-33.9151 6.9747-56.5792 14.3132 11.5117 20.0445 17.963 38.982 25.9795 55.6349 23.2447-5.2667 35.0637-7.7123 57.5684-12.3544l-11.4062-24.5z" fill="#d00"/><path d="m1268.9197 2372.8098c18.4428-2.1918 36.5536-4.7157 55.3284-7.1731 21.9481-2.9444 36.725-5.4162 56.8803-7.431 4.1629 9.6881 6.3064 14.8931 11.2435 25.7819 4.1307 9.0889 9.5847 17.7146 13.695 25.054-13.3456 1.8573-23.5704 3.4489-38.244 4.9742-15.8497 1.3362-21.5784 1.8449-34.4018 1.0207-12.6156-1.1373-21.8448-3.6025-33.066-12.3758-7.2569-5.8494-18.8052-17.6127-31.4354-29.8509z" fill="#ffc709"/><path d="m1396.1015 2384.3877c20.0549-4.6789 38.0533-8.4672 59.2215-12.7007 5.0405 12.1505 7.0117 17.6953 11.3099 30.2169 4.4792 12.6032 8.2162 24.0188 12.3243 36.0281-10.053 2.7041-13.7972 3.5526-25.0376 4.9949-9.0864.6691-17.579-.2946-24.1418-5.5631-5.2623-3.794-12.7512-15.307-19.7948-27.6364-5.3214-9.4857-9.0054-15.2603-13.8815-25.3397z" fill="#ffc709"/><path d="m1697.7812 2292.5c-17.6439.9452-35.2647 3.1783-41.0312 4.5625-33.9937 8.3195-54.2767 15.4061-77.5312 23.2187-41.1556 13.7545-54.1271 20.0832-77.2813 27.1563-18.313 5.6126-31.3221 8.6451-48 12.4687 8.018 19.0335 14.0085 36.3772 21.2187 57.0938 20.9396-3.5968 37.7214-7.3355 58.5938-13.625 23.401-7.7092 43.9689-14.2642 69.1875-21.9062 21.8272-6.6079 37.3134-10.3252 66.3437-15.25 11.5925-1.0916 20.0266-1.7642 28.8126-2.0626v.0313c4.185-.142 7.7663-.1973 11.2812-.2187 3.5233.0211 7.1159.0763 11.3125.2187v-.0313c8.7777.2989 17.23.972 28.8125 2.0626 29.0304 4.9248 44.5166 8.6421 66.3438 15.25 25.2185 7.642 45.7865 14.197 69.1874 21.9062 20.8724 6.2895 37.6542 10.0282 58.5938 13.625 7.2102-20.7166 13.2007-38.0603 21.2188-57.0938-16.678-3.8236-29.687-6.8561-48-12.4687-23.1543-7.0731-36.1258-13.4018-77.2813-27.1563-23.2546-7.8126-43.5376-14.8992-77.5313-23.2187-5.7664-1.3842-23.3872-3.6173-41.0312-4.5625-10.8007-.4452-12.4738-.4452-23.2188.0z" fill="#d00"/><path d="m1699.5312 2363.9375V2364c-19.3096.3251-32.8879 1.8938-61.7187 8.0938-47.7406 11.1084-89.4476 27.4528-116.9063 34.9687-16.1531 4.087-30.1113 6.976-45.7187 10.0625 5.1227 16.1406 10.7123 30.8835 16.5625 44.25 6.1558 10.0595 14.9336 11.1901 24.5 10.0625 15.2847-2.3465 27.8458-5.0476 43.3125-9.0313 30.7139-8.268 55.7753-16.8181 85.125-22.8124 23.4673-4.2672 42.0741-5.5027 64.6875-6.1563 22.6153.6536 41.2188 1.8889 64.6875 6.1563 29.3496 5.9943 54.4424 14.5444 85.1563 22.8124 15.4666 3.9837 28.0278 6.6848 43.3124 9.0313 9.5664 1.1276 18.3442-.003 24.5-10.0625 5.8503-13.3665 11.4399-28.1094 16.5626-44.25-15.6074-3.0865-29.5969-5.9755-45.75-10.0625-27.4586-7.5159-69.1344-23.8603-116.875-34.9687-28.8178-6.1972-42.4231-7.7677-61.7188-8.0938v-.0625c-3.789-.0221-6.5845.0292-9.875.0313-3.2856-.002-6.0611-.0534-9.8438-.0313z" fill="#ffc709"/></g><path d="m1917.8244 2234.899c-5.785 12.0364-10.3266 23.1546-13.4247 34.0226" fill="none" stroke="#ffc709" stroke-width="5"/><path d="m2202.4674 2320.8437c-29.9892-3.2526-38.7254-4.0768-63.5242-8.1985-23.2632-4.2421-42.4645-8.5034-63.3747-14.1582-6.3334 9.4246-12.2246 18.4723-18.7842 27.8215-5.8809 9.3744-8.4992 12.8185-17.6223 32.1453 18.8242 1.709 34.4014 4.562 54.2057 7.1004 16.9895 2.2116 36.4671 4.8757 56.3971 7.3135 7.6402-7.4895 13.4709-13.6218 21.7897-22.2422 10.1535-10.2289 17.8943-18.1958 30.9129-29.7818z" fill="#d00" fill-rule="evenodd"/><path d="m1992.0865 2314.4375c30.1796 6.366 33.9151 6.9747 56.5792 14.3132-11.5117 20.0445-17.963 38.982-25.9795 55.6349-23.2447-5.2667-35.0637-7.7123-57.5684-12.3544l11.4062-24.5z" fill="#d00" fill-rule="evenodd"/><path d="m2149.8543 2372.8098c-18.4428-2.1918-36.5536-4.7157-55.3284-7.1731-21.9481-2.9444-36.725-5.4162-56.8803-7.431-4.1629 9.6881-6.3064 14.8931-11.2435 25.7819-4.1307 9.0889-9.5847 17.7146-13.695 25.054 13.3456 1.8573 23.5704 3.4489 38.244 4.9742 15.8497 1.3362 21.5784 1.8449 34.4018 1.0207 12.6156-1.1373 21.8448-3.6025 33.066-12.3758 7.2569-5.8494 18.8052-17.6127 31.4354-29.8509z" fill="#ffc709" fill-rule="evenodd"/><path d="m2022.6725 2384.3877c-20.0549-4.6789-38.0533-8.4672-59.2215-12.7007-5.0405 12.1505-7.0117 17.6953-11.3099 30.2169-4.4792 12.6032-8.2162 24.0188-12.3243 36.0281 10.053 2.7041 13.7972 3.5526 25.0376 4.9949 9.0864.6691 17.579-.2946 24.1418-5.5631 5.2623-3.794 12.7512-15.307 19.7948-27.6364 5.3214-9.4857 9.0054-15.2603 13.8815-25.3397z" fill="#ffc709" fill-rule="evenodd"/><path d="m1413.6307 2286.6114c4.7966 13.3486 15.2467 30.3715 22.0542 44.7256 2.8972 5.5419 12.2744 25.1607 19.0819 43.1037" fill="none" stroke="#ffc709" stroke-width="3.125"/><path d="m1327.2892 2272.5022c11.1863 17.4842 21.6541 33.5311 33.6225 50.6801 8.6268 12.5642 14.0196 24.7992 19.552 37.4293" fill="none" stroke="#ffc709" stroke-width="3.125"/><path d="m2091.2255 2274.3173c-11.1863 17.4842-21.3948 31.716-33.3632 48.865-8.6268 12.5642-14.0196 24.7992-19.552 37.4293" fill="none" stroke="#ffc709" stroke-width="3.125"/><path d="m2005.0727 2285.3348c-4.7966 13.3486-15.2467 31.668-22.0542 46.0221-2.8972 5.5419-12.2744 25.1607-19.0819 43.1037" fill="none" stroke="#ffc709" stroke-width="3.125"/><path d="m1146.3701 2241.2391c-1.8413 2.7994-.622 7.0797.7989 9.6596 1.2088 2.1948 5.2071 7.4258 10.6163 8.1796 40.8876 1.6126 67.1948 1.0869 109.4432-7.0208 44.6353-10.5427 84.819-20.5021 129.957-37.3797 26.5602-9.5809 58.2066-23.1483 77.2062-28.3303 23.8898-6.4319 47.2441-10.4667 55.5622-.3217 5.9681 9.3433-13.8698 20.3127-33.8971 26.9494-23.2688 7.0612-45.163 10.6859-68.5693 13.7606-24.7077 4.5228-50.9275 9.4579-73.0234 16.1801-13.8338 4.4769-29.6483 15.7334-27.9485 25.5715 2.8642 12.8668 21.1806 9.194 37.5164 3.778l108.3389-41.3643c12.3538-4.5134 25.6055-2.9941 28.4011 3.6429 2.4467 6.7864.4946 16.1846-16.1663 19.5343l-51.8669 8.7567c-18.407 3.3443-20.4617 16.7204-19.0643 21.5456 1.5444 5.0176 9.0248 12.0378 31.189 6.7455 50.8768-12.4593 86.3576-30.1422 119.2265-40.2646 80.1015-27.2025 95.0021-29.2516 145.2099-29.4508 48.4351.1011 63.7861 1.7725 145.3841 29.4508 32.8689 10.1224 68.3497 27.8053 119.2265 40.2646 22.1642 5.2923 29.3853-2.5058 30.9297-7.5234 1.3974-4.8252-1.176-15.3489-18.805-20.7677l-51.8669-8.7567c-16.6609-3.3497-18.613-12.7479-16.1663-19.5343 2.7956-6.637 16.0473-8.1563 28.4011-3.6429l108.3389 41.3643c16.3358 5.416 35.4302 9.6074 38.2944-3.2594 1.6998-9.8381-11.0031-20.8353-28.7265-26.0901-22.0959-6.7222-48.3157-11.6573-73.0234-16.1801-23.4063-3.0747-45.3005-6.6994-68.5693-13.7606-20.0273-6.6367-39.8652-17.3467-34.1564-26.9494 9.6147-10.4043 33.4876-6.3695 55.8215.3217 18.9996 5.182 50.646 18.7494 77.2062 28.3303 45.138 16.8776 85.3217 26.837 129.957 37.3797 42.2484 8.1077 68.5556 8.6334 109.4432 7.0208 5.4092-.7538 9.4075-5.9848 10.6163-8.1796 1.4209-2.5799 2.6402-6.8602.7989-9.6596" fill="none" stroke="#ffc709" stroke-width="5"/></g></svg>