<svg height="512pt" viewBox="0 0 512 512" width="512pt" xmlns="http://www.w3.org/2000/svg"><path d="m398.71 20.13c19.35 10.66 35.68 28.79 39.72 51.03 2.03 9.17 1.63 18.6 1.47 27.92-.7 9.75-3.44 19.23-4.17 28.98-1.27 7.1-.87 14.64 1.84 21.36 2.66 5.96 9.22 8.74 15.35 9.43 7.26-.02 13.58-4.56 17.79-10.18 4.84-6.51 7.64-14.28 9.66-22.06 1.27-5.08 1.4-10.38 3.06-15.36 8.38 28.77 7.24 60.34-4.42 88.05-4.97 11.74-11.6 22.85-20.14 32.34.79-16.46-2.13-33.15-9.53-47.94-.05 7.16-1.41 14.82-6.54 20.19-3.69 4.15-9.25 6.8-14.88 5.99-6.47-.88-11.69-6.56-12.61-12.95-2.18-13-1.44-26.81-7.29-38.97-5.6-12.58-16.97-21.96-29.89-26.32 3.44 11.61 5.54 23.92 3.38 35.98-1.69 8.96-6.5 17.58-14.19 22.71-5.16 3.55-11.68 5.34-17.9 4.19-4.36-.92-7.76-4.33-9.68-8.21-3.08-6.12-3.69-13.07-4.15-19.79-11.89 13.39-18.96 30.73-20.82 48.46-.64 5.51-.45 11.07-.53 16.6-8.57-9.45-15.11-20.63-20.07-32.35-16.87-40.13-12.08-89.17 13.91-124.37-3.03 13.35-4.87 27.61-.93 40.98 1.92 6.25 5.77 12.77 12.38 14.83 6.83 1.55 14.76-.05 19.41-5.61 6.93-7.72 6.31-19.31 3.51-28.63-2.85-8-4.03-16.54-3.72-25.02.56-13.92 6.07-28.07 16.88-37.21-2.18 12.46-1.53 26.37 6.06 36.98 4.82 6.76 12.83 11.67 21.34 10.97 7.38-.02 13.83-4.88 17.55-10.98 9.37-15.7 5.18-35.29-1.85-51.04z" fill="#f48f0b"/><g fill="#141414"><path d="m15.76 88.76c10.56-11.17 25.82-17.71 41.2-17.61 92.35-.04 184.71.01 277.07-.03 1.57.03 3.14.16 4.7.29-.31 8.48.87 17.02 3.72 25.02 2.8 9.32 3.42 20.91-3.51 28.63-4.65 5.56-12.58 7.16-19.41 5.61-6.61-2.06-10.46-8.58-12.38-14.83-3.94-13.37-2.1-27.63.93-40.98-25.99 35.2-30.78 84.24-13.91 124.37-98.05.03-196.11-.06-294.17.05v-72.73c.41-13.96 6.03-27.73 15.76-37.79z"/><path d="m361.67 71.18c12.96-.09 25.93-.06 38.89-.01-3.72 6.1-10.17 10.96-17.55 10.98-8.51.7-16.52-4.21-21.34-10.97z"/><path d="m438.43 71.16c9.96.19 20.09-.85 29.88 1.53 10.4 2.43 20.04 7.93 27.48 15.59 9.73 9.85 15.42 23.35 16.21 37.13v73.71c-10.99.3-21.99-.05-32.99.18 11.66-27.71 12.8-59.28 4.42-88.05-1.66 4.98-1.79 10.28-3.06 15.36-2.02 7.78-4.82 15.55-9.66 22.06-4.21 5.62-10.53 10.16-17.79 10.18-6.13-.69-12.69-3.47-15.35-9.43-2.71-6.72-3.11-14.26-1.84-21.36.73-9.75 3.47-19.23 4.17-28.98.16-9.32.56-18.75-1.47-27.92z"/></g><path d="m378.13 131.64c12.92 4.36 24.29 13.74 29.89 26.32 5.85 12.16 5.11 25.97 7.29 38.97.92 6.39 6.14 12.07 12.61 12.95 5.63.81 11.19-1.84 14.88-5.99 5.13-5.37 6.49-13.03 6.54-20.19 7.4 14.79 10.32 31.48 9.53 47.94-14.48 16.41-34.14 28.6-55.81 32.48-4.33.66-8.69 1.07-13.02 1.76-4.71.7-9.38-.44-14.04-.99-23.99-2.31-45.93-15.51-61.76-33.31.08-5.53-.11-11.09.53-16.6 1.86-17.73 8.93-35.07 20.82-48.46.46 6.72 1.07 13.67 4.15 19.79 1.92 3.88 5.32 7.29 9.68 8.21 6.22 1.15 12.74-.64 17.9-4.19 7.69-5.13 12.5-13.75 14.19-22.71 2.16-12.06.06-24.37-3.38-35.98z" fill="#fecb4c"/><path d="m0 199.28c98.06-.11 196.12-.02 294.17-.05 4.96 11.72 11.5 22.9 20.07 32.35 15.83 17.8 37.77 31 61.76 33.31 4.66.55 9.33 1.69 14.04.99 4.33-.69 8.69-1.1 13.02-1.76 21.67-3.88 41.33-16.07 55.81-32.48 8.54-9.49 15.17-20.6 20.14-32.34 11-.23 22 .12 32.99-.18v127.96c-21.32.44-42.67.06-64 .19-149.17-.02-298.34.03-447.51-.02l-.49.76z" fill="#ed1f24"/><path d="m0 328.01.49-.76c149.17.05 298.34 0 447.51.02 21.33-.13 42.68.25 64-.19v59.21c-.72 15.11-7.51 29.85-18.83 39.93-10.56 9.64-24.86 14.92-39.14 14.66-132.35-.02-264.71-.01-397.06-.01-15.84.08-31.52-6.87-42.13-18.63-9.19-9.98-14.46-23.34-14.84-36.89z" fill="#ffcd05"/></svg>