<?xml version="1.0" encoding="UTF-8" ?>
<!DOCTYPE svg PUBLIC "-//W3C//DTD SVG 1.1//EN" "http://www.w3.org/Graphics/SVG/1.1/DTD/svg11.dtd">
<svg width="512pt" height="512pt" viewBox="0 0 512 512" version="1.1" xmlns="http://www.w3.org/2000/svg">
<g id="#f48f0bff">
<path fill="#f48f0b" opacity="1.00" d=" M 398.71 20.13 C 418.06 30.79 434.39 48.92 438.43 71.16 C 440.46 80.33 440.06 89.76 439.90 99.08 C 439.20 108.83 436.46 118.31 435.73 128.06 C 434.46 135.16 434.86 142.70 437.57 149.42 C 440.23 155.38 446.79 158.16 452.92 158.85 C 460.18 158.83 466.50 154.29 470.71 148.67 C 475.55 142.16 478.35 134.39 480.37 126.61 C 481.64 121.53 481.77 116.23 483.43 111.25 C 491.81 140.02 490.67 171.59 479.01 199.30 C 474.04 211.04 467.41 222.15 458.87 231.64 C 459.66 215.18 456.74 198.49 449.34 183.70 C 449.29 190.86 447.93 198.52 442.80 203.89 C 439.11 208.04 433.55 210.69 427.92 209.88 C 421.45 209.00 416.23 203.32 415.31 196.93 C 413.13 183.93 413.87 170.12 408.02 157.96 C 402.42 145.38 391.05 136.00 378.13 131.64 C 381.57 143.25 383.67 155.56 381.51 167.62 C 379.82 176.58 375.01 185.20 367.32 190.33 C 362.16 193.88 355.64 195.67 349.42 194.52 C 345.06 193.60 341.66 190.19 339.74 186.31 C 336.66 180.19 336.05 173.24 335.59 166.52 C 323.70 179.91 316.63 197.25 314.77 214.98 C 314.13 220.49 314.32 226.05 314.24 231.58 C 305.67 222.13 299.13 210.95 294.17 199.23 C 277.30 159.10 282.09 110.06 308.08 74.86 C 305.05 88.21 303.21 102.47 307.15 115.84 C 309.07 122.09 312.92 128.61 319.53 130.67 C 326.36 132.22 334.29 130.62 338.94 125.06 C 345.87 117.34 345.25 105.75 342.45 96.43 C 339.60 88.43 338.42 79.89 338.73 71.41 C 339.29 57.49 344.80 43.34 355.61 34.20 C 353.43 46.66 354.08 60.57 361.67 71.18 C 366.49 77.94 374.50 82.85 383.01 82.15 C 390.39 82.13 396.84 77.27 400.56 71.17 C 409.93 55.47 405.74 35.88 398.71 20.13 Z" />
</g>
<g id="#141414ff">
<path fill="#141414" opacity="1.00" d=" M 15.76 88.76 C 26.32 77.59 41.58 71.05 56.96 71.15 C 149.31 71.11 241.67 71.16 334.03 71.12 C 335.60 71.15 337.17 71.28 338.73 71.41 C 338.42 79.89 339.60 88.43 342.45 96.43 C 345.25 105.75 345.87 117.34 338.94 125.06 C 334.29 130.62 326.36 132.22 319.53 130.67 C 312.92 128.61 309.07 122.09 307.15 115.84 C 303.21 102.47 305.05 88.21 308.08 74.86 C 282.09 110.06 277.30 159.10 294.17 199.23 C 196.12 199.26 98.06 199.17 0.00 199.28 L 0.00 126.55 C 0.41 112.59 6.03 98.82 15.76 88.76 Z" />
<path fill="#141414" opacity="1.00" d=" M 361.67 71.18 C 374.63 71.09 387.60 71.12 400.56 71.17 C 396.84 77.27 390.39 82.13 383.01 82.15 C 374.50 82.85 366.49 77.94 361.67 71.18 Z" />
<path fill="#141414" opacity="1.00" d=" M 438.43 71.16 C 448.39 71.35 458.52 70.31 468.31 72.69 C 478.71 75.12 488.35 80.62 495.79 88.28 C 505.52 98.13 511.21 111.63 512.00 125.41 L 512.00 199.12 C 501.01 199.42 490.01 199.07 479.01 199.30 C 490.67 171.59 491.81 140.02 483.43 111.25 C 481.77 116.23 481.64 121.53 480.37 126.61 C 478.35 134.39 475.55 142.16 470.71 148.67 C 466.50 154.29 460.18 158.83 452.92 158.85 C 446.79 158.16 440.23 155.38 437.57 149.42 C 434.86 142.70 434.46 135.16 435.73 128.06 C 436.46 118.31 439.20 108.83 439.90 99.08 C 440.06 89.76 440.46 80.33 438.43 71.16 Z" />
</g>
<g id="#fecb4cff">
<path fill="#fecb4c" opacity="1.00" d=" M 378.13 131.64 C 391.05 136.00 402.42 145.38 408.02 157.96 C 413.87 170.12 413.13 183.93 415.31 196.93 C 416.23 203.32 421.45 209.00 427.92 209.88 C 433.55 210.69 439.11 208.04 442.80 203.89 C 447.93 198.52 449.29 190.86 449.34 183.70 C 456.74 198.49 459.66 215.18 458.87 231.64 C 444.39 248.05 424.73 260.24 403.06 264.12 C 398.73 264.78 394.37 265.19 390.04 265.88 C 385.33 266.58 380.66 265.44 376.00 264.89 C 352.01 262.58 330.07 249.38 314.24 231.58 C 314.32 226.05 314.13 220.49 314.77 214.98 C 316.63 197.25 323.70 179.91 335.59 166.52 C 336.05 173.24 336.66 180.19 339.74 186.31 C 341.66 190.19 345.06 193.60 349.42 194.52 C 355.64 195.67 362.16 193.88 367.32 190.33 C 375.01 185.20 379.82 176.58 381.51 167.62 C 383.67 155.56 381.57 143.25 378.13 131.64 Z" />
</g>
<g id="#ed1f24ff">
<path fill="#ed1f24" opacity="1.00" d=" M 0.00 199.28 C 98.06 199.17 196.12 199.26 294.17 199.23 C 299.13 210.95 305.67 222.13 314.24 231.58 C 330.07 249.38 352.01 262.58 376.00 264.89 C 380.66 265.44 385.33 266.58 390.04 265.88 C 394.37 265.19 398.73 264.78 403.06 264.12 C 424.73 260.24 444.39 248.05 458.87 231.64 C 467.41 222.15 474.04 211.04 479.01 199.30 C 490.01 199.07 501.01 199.42 512.00 199.12 L 512.00 327.08 C 490.68 327.52 469.33 327.14 448.00 327.27 C 298.83 327.25 149.66 327.30 0.49 327.25 L 0.00 328.01 L 0.00 199.28 Z" />
</g>
<g id="#ffcd05ff">
<path fill="#ffcd05" opacity="1.00" d=" M 0.00 328.01 L 0.49 327.25 C 149.66 327.30 298.83 327.25 448.00 327.27 C 469.33 327.14 490.68 327.52 512.00 327.08 L 512.00 386.29 C 511.28 401.40 504.49 416.14 493.17 426.22 C 482.61 435.86 468.31 441.14 454.03 440.88 C 321.68 440.86 189.32 440.87 56.97 440.87 C 41.13 440.95 25.45 434.00 14.84 422.24 C 5.65 412.26 0.38 398.90 0.00 385.35 L 0.00 328.01 Z" />
</g>
</svg>
