<svg height="1351pt" viewBox="0 0 1500 1351" width="2e3" xmlns="http://www.w3.org/2000/svg"><path d="m805.25.0h47.57c17.02 1.01 34.1.63 51.14.96 70.36.74 140.71 1.36 211.07 2.18 119.68 207.24 239.33 414.5 358.98 621.77-43.35 75.08-86.7 150.17-130.05 225.25 20.3-4.81 41.06-9.45 62.06-8.25 15.5.75 28.96 9.9 40 20.12 12.18 11.36 22.31 24.77 30.91 39 8.42 14.13 15.43 29.22 19.67 45.16 3.06 11.82 4.67 24.41 1.68 36.42-2.69 10.96-5.63 21.96-10.53 32.17-2.75 5.56-6.42 11.14-12.11 14.02-4.68 2.42-10.44 1.94-14.96-.59-6.16-3.32-10.44-9.04-14.52-14.54-1.61 9.27.43 18.59 2.76 27.54 2.51 9.72 6.66 18.92 9.14 28.66 4.43 16.94 7.9 34.5 6.25 52.08-1.09 12.47-4.06 25.02-10.43 35.9-3.91 6.55-9.33 12.71-16.66 15.42-5.93 2.26-12.88 1.22-17.95-2.57-6.79-5-10.54-12.99-12.99-20.84-3.71-13.74-9.12-27.18-17.18-38.96-3.08-4.14-6.22-8.72-11.18-10.73-6-2.38-12.51-2.94-18.87-3.61-21.5-1.85-43.06-2.86-64.61-3.96 15.44 12.91 31.99 24.5 46.63 38.37 10.09 9.52 18.57 20.7 25.04 32.97 8.71 16.58 16.11 33.96 20.8 52.13 2.17 7.91 1.55 16.2.28 24.21-2.67 16.29-8.67 31.92-16.54 46.38-5.71 10.19-12.34 20.07-21.04 27.97-5.21 4.6-11.46 8.74-18.6 9.16-6.25.43-12.21-2.98-15.98-7.79-4.46-5.7-5.63-13.1-6.37-20.09-1.12-12.68-.67-25.42-.97-38.13-.34-8.2-.11-16.7-3-24.5-3.2-7.61-11.3-11.12-18.08-14.85-22.56-11.04-45.77-21.66-65.18-37.88-4.34-3.34-6.55-9.01-11.51-11.51-4.26.48-7.96 2.84-11.75 4.63 9.65 5.65 20.47 9.08 29.77 15.37 12.04 7.67 21.61 19.31 26.04 32.95 5.87 17.75 5.24 36.87 3.15 55.21-1.82 15.76-7.71 31.43-18.9 42.96-8.01 8.54-17.66 15.34-27.53 21.55-8.86 5.57-19.18 8.58-29.58 9.29h-4.85c-10.01-.57-20.76-4.01-26.76-12.55-4.11-5.41-4.82-12.86-2.32-19.1 4.3-11.25 12.21-20.53 18.65-30.55 2.72-4.58 6.44-9.24 6.25-14.83-1.2-7.45-4.84-14.62-10.56-19.61-10.09-8.83-24.18-13.56-37.51-11.28-4.16.47-6.54 5.19-10.96 4.83-17.03-.23-34.06-.06-51.1-.11-222.25.0-444.5.01-666.75-.01-1.4-2.07-2.17-5.26-5.08-5.54-7.08-1.41-13.79-4.87-21.15-4.56-11.33.21-22.59 4.66-30.97 12.31-5.26 4.69-8.51 11.31-9.99 18.14-.88 5.41 2.68 10.12 5.28 14.54 6.32 10 14.1 19.18 18.81 30.12 2.46 5.48 3.08 12.07.32 17.57-3.76 7.91-11.91 12.85-20.26 14.65-14.92 3.19-30.87-.48-43.65-8.59-9.6-6.09-18.99-12.74-26.79-21.08-11.03-11.4-16.95-26.81-18.79-42.38-2.13-18.1-2.81-36.92 2.65-54.52 4.13-13.5 13.16-25.26 24.85-33.11 9.68-6.91 21.14-10.53 31.38-16.43-3.77-1.8-7.47-4.2-11.7-4.64-5.16 2.51-7.41 8.52-11.98 11.87-18.16 14.95-39.48 25.34-60.58 35.42-6.27 3.17-12.79 6.17-18.07 10.9-4.93 4.39-5.98 11.3-6.57 17.53-1.35 16.64-.16 33.38-1.48 50.03-.64 6.39-1.5 13.03-4.78 18.69-3.43 5.85-9.76 10.37-16.72 10.32-6.31-.01-12.11-3.19-16.95-6.99-7.45-5.94-13.29-13.6-18.49-21.5-9.69-15.15-16.81-31.99-20.68-49.56-1.85-9.47-3.34-19.4-.92-28.91 2.71-11.26 6.81-22.14 11.32-32.78 7.12-16.3 15.28-32.5 27.46-45.67 16.04-17.44 35.88-30.69 53.98-45.83-24.65 1.53-49.4 2.02-73.92 5.1-5.74.9-11.94 2.35-15.88 6.99-9.21 10.39-15 23.31-19.51 36.3-2.71 9.24-5.15 19.1-11.87 26.38-4.74 5.39-12.37 8.47-19.48 6.58-9.45-2.36-16.05-10.53-20.41-18.79-8-15.73-10.19-33.88-8.99-51.33 1.71-17.6 5.87-34.94 12.03-51.51 4.02-12.4 8.22-25.46 6.2-38.64-4.58 6.36-9.79 13.02-17.4 15.82-5.63 2.13-12.19.44-16.46-3.69-7.07-6.79-10.29-16.4-13.39-25.44-3.38-11.54-7.38-23.33-6.33-35.52 1.22-17.2 7.25-33.66 14.75-49.05 8.91-17.86 20.2-34.62 34.09-48.99 8.37-8.49 17.76-16.3 28.77-21.09 10.74-4.7 22.78-4.42 34.23-3.51 17.59 1.66 34.89 5.53 51.95 10.04-42.86-74.18-85.69-148.38-128.51-222.58 120.86-205.63 241.68-411.3 362.58-616.91 103.24-1.07 206.48-1.99 309.71-3.14 11.46 20.44 22.79 41.06 31.69 62.78 3.19 7.21 3.88 15.12 5.26 22.8-6.24-.83-12.43-2.6-18.77-2.22-6.72.35-13.35 1.68-19.86 3.29-25.72 6.73-50.14 17.49-74.3 28.43-37.23 17.2-73.46 36.46-109.7 55.65 11.6 1.09 23.28 1.28 34.9.45 32.07-2.18 63.17-12.09 92.06-25.88 36.33-17.32 69.71-39.98 103.57-61.57-2.18-4.63-4.35-9.27-6.51-13.91 4.72 3 9.43 6.01 14.13 9.04 2.49-1.58 4.97-3.17 7.46-4.75-1.19 2.41-2.38 4.82-3.55 7.23 39.11 24.93 77.83 51.34 121.2 68.43 33.35 13.24 69.69 19.76 105.54 16.14-18.9-10.03-37.82-20.04-56.86-29.81-33.22-16.89-66.74-33.38-101.72-46.34-14.05-4.94-28.37-9.69-43.27-11.1-7.02-.81-13.9 1.14-20.79 2.1.67-3.87 1.27-7.76 1.95-11.63.97-5.9 3.38-11.43 5.67-16.92 8.65-19.56 18.81-38.41 29.33-57.02m8.76 15.19c-9.53 17.3-18.89 34.76-26.4 53.05 23.44 1.72 45.61 10.37 67.29 18.87 35.85 14.71 70.47 32.22 104.83 50.07 25.81 13.63 51.65 27.2 77.46 40.83-15.18 2.76-30.23 6.51-45.64 7.78-35.42 3.44-71.37-2.26-104.67-14.53-37.41-13.61-71.55-34.51-104.98-55.81 34.9 74.66 69.8 149.32 104.73 223.96 98.82-.63 197.65-1.23 296.48-1.95-4 27.92-6.45 56.65-.47 84.48 3.56 16.92 10.76 33.18 21.68 46.65 12.67 15.88 29.45 27.75 46.36 38.7 14.73 9.32 29.36 18.8 43.68 28.73-10.16 6.82-20.45 13.54-29.34 22.02-24.99 23.11-46.09 50.83-59.91 82.03-8.19 18.86-13.59 39.34-12.74 60.03-.16 1.23.48 2.28 1.33 3.13 45 47.73 90.05 95.42 135.03 143.16 42.62-73.83 85.25-147.66 127.87-221.5-116.75-202.23-233.55-404.44-350.25-606.71-97.45-1.11-194.89-2.01-292.34-2.99m-407.24 7.75c-117.95 200.66-235.86 401.33-353.79 602 42.25 73.19 84.52 146.37 126.76 219.57 44.49-46.76 88.95-93.54 133.49-140.26.78-1.01 2.09-1.84 2.1-3.24 1.06-9.17.47-18.45-.6-27.59-2.41-18.99-7.54-37.61-14.82-55.31-7.12-17.05-16.31-33.48-28.89-47.13-9.46-10.17-21.27-18.86-35.04-21.88-8.61-1.38-17.26-2.44-25.88-3.71 18.88-11.8 38.11-23.1 56.25-36.05 23.02-16.48 45.56-34.78 61.32-58.63 11.82-17.72 17.94-39.48 15.2-60.76-1.68-17.12-8.83-32.93-15.98-48.35 98.61-.68 197.21-1.27 295.81-1.95 35.95-72.92 71.77-145.91 107.65-218.86-29.3 18.7-59.13 36.95-91.32 50.3-34.92 14.63-73.02 22.65-110.96 20.04-17.66-.87-34.87-5.09-52.19-8.3 25.94-13.69 51.89-27.33 77.84-41.01 38.33-19.85 76.93-39.46 117.3-54.9 17.58-6.46 35.63-12.59 54.45-13.85-7.52-18.29-16.88-35.75-26.41-53.05-97.43.99-194.86 1.91-292.29 2.92m225.41 331.7c-94.09.72-188.18 1.23-282.27 1.89 7.45 19.47 10.89 40.89 7.06 61.55-3.74 21.34-14.82 40.73-28.8 57.02-21.86 25.34-49.48 44.8-77.4 62.87 18.65 8 33.37 22.97 44.59 39.57 12.48 18.53 21.35 39.33 27.5 60.76 4.9 17.42 8.09 35.43 8.13 53.56 71.7.01 143.41.01 215.11.0.03-51.76-.02-103.52.03-155.28 25.08-14.4 50.11-28.88 75.13-43.36 25.07 14.45 50.16 28.88 75.18 43.41-.02 51.74.0 103.49-.01 155.23 38.89.01 77.78.01 116.67.0.03-51.77-.05-103.54.04-155.3 25.08-14.37 50.09-28.87 75.12-43.34 25.07 14.45 50.14 28.88 75.17 43.41-.01 51.74.0 103.49.0 155.23 71.26.01 142.53.01 213.79.0 1.08-28.17 11.14-55.27 25.03-79.55 16.9-29.08 39.01-55.29 65.41-76.2-14.64-9.61-29.71-18.57-43.84-28.92-13.72-10.05-26.47-21.72-36.2-35.76-10.3-14.68-16.97-31.72-20.33-49.29-4.45-22.87-3.9-46.41-1.37-69.48-96.29.73-192.58 1.27-288.87 1.88-39.81-85.04-79.54-170.13-119.34-255.18-41.86 85.09-83.69 170.19-125.53 255.28m-70.99 190.7c.02 54.92.0 109.84.01 164.76 20.03 11.53 40.07 23.07 60.06 34.69 20.05-11.53 40.07-23.11 60.09-34.7.0-54.92-.01-109.84.0-164.76-19.99-11.61-40.03-23.14-60.05-34.7-20.02 11.6-40.08 23.13-60.11 34.71m266.99.0c.02 54.92.0 109.84.01 164.76 20.03 11.55 40.08 23.06 60.06 34.69 20.06-11.53 40.08-23.11 60.09-34.7.0-54.93.0-109.85.0-164.77-19.99-11.6-40.03-23.12-60.04-34.69-20.04 11.58-40.08 23.14-60.12 34.71m-502.68 161.58c1.04.99 2.07 2 3.11 3.01-46.99 49.4-94.02 98.76-140.98 148.19 72 124.88 144.2 249.65 216.16 374.55 233.96.15 467.92.02 701.88.06 71.73-124.24 143.48-248.47 215.18-372.73-47.19-50.05-94.41-100.06-141.59-150.12 1.03-.99 2.08-1.98 3.14-2.95-72.99.01-145.98.0-218.97.0-.01 3.97-.01 7.93-.01 11.9-25.06 14.44-50.08 28.96-75.16 43.37-25.04-14.52-50.13-28.94-75.17-43.45.01-3.94.01-7.88.01-11.81-38.9.02-77.79-.08-116.68.05.02 3.94.01 7.89.0 11.84-25.05 14.44-50.06 28.94-75.13 43.35-25.07-14.46-50.13-28.94-75.19-43.42.01-3.95.01-7.89.0-11.82-73.53-.02-147.06.01-220.6-.02m-238.12 144.61c-12.56 3.9-22.58 13.1-31.44 22.45-13.89 15.2-25.01 32.88-33.18 51.75-5.07 12.15-9.19 25-9.44 38.28-.22 6.62 1.83 13 3.43 19.35 2.23 7.95 4.64 15.96 8.62 23.23 1.43 2.3 2.95 4.93 5.62 5.93 3.74-.88 6.29-4.08 8.71-6.84 10.37-13.02 16.29-28.78 25.24-42.7 7.29-11.42 15.05-22.76 25.07-31.98 7.68-6.02 15.7-11.6 23.51-17.44 5.99 5.03 11.98 10.06 17.95 15.11 10.38 8.94 22.13 16.08 33.88 23.05 11.46 6.57 23.58 11.98 34.68 19.2 2.95 1.62 4.39 4.99 5.15 8.12-.19 4.58-5.26 6.58-9.24 6.38-32 .69-63.93-2.4-95.92-2.56-6.9.27-14.85-.12-20.33 4.85-5.1 4.7-10.05 10.13-11.95 16.97-1.4 4.66.31 9.48-.14 14.23-.96 12.39-4.4 24.45-8.61 36.1-4.49 12.33-7.51 25.18-9.43 38.16-2.16 15-1.19 30.66 4.02 44.96 2.48 6.3 5.75 12.77 11.41 16.78 2.35 1.76 5.84 2.25 8.17.18 4.51-3.75 6.55-9.54 8.25-14.96 3.53-13.24 8.92-26.01 16.06-37.71 5.3-8.05 11.41-16.56 20.94-19.79 12.7-4.3 26.31-4.26 39.54-5.42 20.68-1.22 41.37-2.48 62.07-3.22 3.83-.12 9.29.63 10.37 5.07.98 3.4-1.43 6.43-3.86 8.5-10.71 9.32-21.91 18.06-33.06 26.84-14.05 11.16-28.58 22.26-39.19 36.93-9.22 12.95-15.79 27.58-21.63 42.3-3.23 8.91-6.82 17.9-7.8 27.4.05 16.1 5.22 31.74 11.86 46.25 5.72 11.88 12.66 23.48 22.33 32.58 3.34 2.8 7.16 6.21 11.81 5.9 4.68-1.57 6.05-6.97 6.74-11.3 1.86-13.07 1.13-26.33 1.46-39.49.3-10.38.16-21.09 3.82-30.96 2.43-6.64 7.54-11.91 13.37-15.73 9.34-6.16 19.72-10.42 29.68-15.44 14.33-7.13 28.44-14.93 41.18-24.69 6.6-4.66 9.92-13.17 17.84-16.09 6.93-2.67 14.14.71 20.33 3.77 4.74 2.35 10.31 5.41 11.4 11.1 1.06 4.8-2.15 9.26-5.94 11.84-8.39 5.79-18.23 8.91-27.07 13.88-8.76 4.88-16.73 11.67-21.54 20.59-6.47 11.76-7.66 25.53-7.49 38.71.47 14.59 1.49 29.85 8.48 42.99 5.43 10.13 14.32 17.82 23.57 24.39 6.2 4.27 12.43 8.78 19.68 11.11 8.31 2.72 17.58 3.64 25.98.8 3.81-1.38 7.82-4.04 8.7-8.25.08-3.77-2.01-7.1-3.71-10.3-6.13-10.68-14.38-20.04-19.82-31.13-2.69-5.36-3.65-11.65-2.15-17.5 2.16-8.3 6.04-16.33 12.25-22.37 12.61-12.44 31-18.9 48.62-16.81-69.89-121-139.74-242.03-209.6-363.05-14.34-3.97-28.84-7.46-43.55-9.76-11.77-1.64-23.98-3.32-35.7-.54m1246.03 15.06c-69.9 121.01-139.73 242.06-209.63 363.07 19.71-2.26 40.69 5.98 52.89 21.78 4.19 5.76 6.99 12.54 8.36 19.52 1.45 7.82-2.05 15.35-6.08 21.82-5.78 9.56-13.1 18.16-18.13 28.17-1.16 2.62-2.76 5.72-1.33 8.56 2.44 4.81 7.96 6.89 12.99 7.76 11.72 1.79 23.85-1.64 33.57-8.25 11.46-7.5 23.06-15.89 30.08-27.96 7.15-12.4 8.5-27.07 9.14-41.1.47-14.67-.51-30.21-8.1-43.16-4.47-7.64-11.26-13.69-18.8-18.19-9.34-5.63-19.96-8.84-29-14.97-3.78-2.56-7.05-6.95-6.08-11.74.91-5.49 6.14-8.65 10.72-10.92 6.37-3.16 13.73-6.85 20.92-4.17 8.02 2.89 11.38 11.5 18.05 16.19 16.96 12.99 36.25 22.4 55.44 31.56 8.35 4.21 17.13 8.37 23.46 15.48 5.69 6.41 7.58 15.14 8.34 23.46 1.37 16.43.29 32.95 1.43 49.39.46 4.57.8 9.33 2.85 13.53 1.25 2.26 3.59 4.65 6.43 4.15 4.28-.93 7.75-3.85 10.9-6.74 7.42-7.15 13.07-15.9 17.99-24.9 7.68-14.56 13.51-30.38 15.08-46.85 1.36-10.12-2.8-19.78-5.88-29.18-8.45-22.33-18.58-45.01-36.29-61.62-19.12-18.09-41.27-32.62-60.7-50.34-3.07-2.58-3.64-7.76-.4-10.43 3.36-2.04 7.5-1.8 11.29-1.65 22.06.95 44.11 2.14 66.14 3.61 11.39 1.05 23.16 1.25 33.94 5.51 8.44 3.34 13.95 10.96 18.87 18.2 7.54 12.02 13.12 25.25 16.77 38.95 1.79 5.6 3.92 11.76 8.95 15.28 3.99 2.44 8.36-.93 10.98-3.86 7.29-8.48 10.39-19.71 12.01-30.56 2.63-17.53-.72-35.23-5.15-52.17-2.64-10.37-7.12-20.15-9.63-30.55-2.13-8.88-4.28-18.05-3.1-27.23.79-5.67-1.75-11.17-5.04-15.63-3.14-3.86-6.44-7.87-10.85-10.3-6.84-2.96-14.52-2.32-21.79-2.45-30.34.51-60.65 3.18-91.01 2.53-4 .21-8.81-1.78-9.28-6.26.81-3.11 2.19-6.52 5.14-8.16 14.23-9.13 29.95-15.65 44.12-24.89 15.53-8.97 28.83-21.08 42.52-32.53 6.57 4.8 13.14 9.62 19.69 14.46 5.42 3.84 9.83 8.88 14.04 13.97 7.4 9.17 13.89 19.04 19.73 29.26 7.27 12.84 13.06 26.85 23.3 37.71 1.99 1.85 5.32 5.1 7.85 2.27 5.33-5.73 7.54-13.54 10.05-20.77 2.64-9.56 6.22-19.23 5.4-29.32-.73-11.42-4.12-22.5-8.38-33.06-6.33-15.43-14.81-29.95-24.94-43.19-9.34-11.91-19.99-23.35-33.5-30.52-8.47-4.67-18.46-4.62-27.83-4.03-19.87 1.51-39.32 6.27-58.51 11.46m-1237.13 76.66c-9.57 9.97-17.17 21.62-24.2 33.47 10.76-8.32 25.11-7 37.89-6.99 21.83.59 43.63 2.02 65.47 2.42-9.51-4.86-18.84-10.04-27.88-15.73-12.43-7.44-23.68-16.6-34.61-26.06-5.55 4.3-11.65 7.95-16.67 12.89m1269.25 9.27c-13.02 9.16-26.79 17.24-41 24.41 25.51-.35 50.98-2.54 76.51-2.47 9.33.03 19.34 1.06 26.9 7.1-6.49-11.01-13.55-21.77-22.12-31.3-5.31-6.13-12.44-10.18-18.77-15.11-7.11 5.86-13.95 12.09-21.52 17.37z"/><path d="m589.95 584.47c20.88.0 41.77-.01 62.65.0 8.97 15.58 17.97 31.14 26.95 46.72-8.68 5.06-17.4 10.05-26.09 15.1-6.13-10.52-12.18-21.09-18.29-31.62-9.27.0-18.55-.02-27.82.0-6.07 10.54-12.14 21.07-18.24 31.59-8.71-5.03-17.39-10.09-26.13-15.07 9-15.57 17.98-31.15 26.97-46.72z"/><path d="m856.94 584.47c20.88-.01 41.76.0 62.64.0 9 15.56 17.97 31.15 26.97 46.71-8.69 5.07-17.41 10.08-26.11 15.11-6.1-10.54-12.17-21.09-18.27-31.62-9.27.0-18.54.0-27.81.0-6.08 10.52-12.16 21.06-18.25 31.58-8.71-5.02-17.39-10.08-26.13-15.05 8.99-15.58 17.98-31.15 26.96-46.73z"/><g fill="red"><path d="m814.01 15.19c97.45.98 194.89 1.88 292.34 2.99 116.7 202.27 233.5 404.48 350.25 606.71-42.62 73.84-85.25 147.67-127.87 221.5-44.98-47.74-90.03-95.43-135.03-143.16-.85-.85-1.49-1.9-1.33-3.13-.85-20.69 4.55-41.17 12.74-60.03 13.82-31.2 34.92-58.92 59.91-82.03 8.89-8.48 19.18-15.2 29.34-22.02-14.32-9.93-28.95-19.41-43.68-28.73-16.91-10.95-33.69-22.82-46.36-38.7-10.92-13.47-18.12-29.73-21.68-46.65-5.98-27.83-3.53-56.56.47-84.48-98.83.72-197.66 1.32-296.48 1.95-34.93-74.64-69.83-149.3-104.73-223.96 33.43 21.3 67.57 42.2 104.98 55.81 33.3 12.27 69.25 17.97 104.67 14.53 15.41-1.27 30.46-5.02 45.64-7.78-25.81-13.63-51.65-27.2-77.46-40.83-34.36-17.85-68.98-35.36-104.83-50.07-21.68-8.5-43.85-17.15-67.29-18.87 7.51-18.29 16.87-35.75 26.4-53.05z"/><path d="m406.77 22.94c97.43-1.01 194.86-1.93 292.29-2.92 9.53 17.3 18.89 34.76 26.41 53.05-18.82 1.26-36.87 7.39-54.45 13.85-40.37 15.44-78.97 35.05-117.3 54.9-25.95 13.68-51.9 27.32-77.84 41.01 17.32 3.21 34.53 7.43 52.19 8.3 37.94 2.61 76.04-5.41 110.96-20.04 32.19-13.35 62.02-31.6 91.32-50.3-35.88 72.95-71.7 145.94-107.65 218.86-98.6.68-197.2 1.27-295.81 1.95 7.15 15.42 14.3 31.23 15.98 48.35 2.74 21.28-3.38 43.04-15.2 60.76-15.76 23.85-38.3 42.15-61.32 58.63-18.14 12.95-37.37 24.25-56.25 36.05 8.62 1.27 17.27 2.33 25.88 3.71 13.77 3.02 25.58 11.71 35.04 21.88 12.58 13.65 21.77 30.08 28.89 47.13 7.28 17.7 12.41 36.32 14.82 55.31 1.07 9.14 1.66 18.42.6 27.59-.01 1.4-1.32 2.23-2.1 3.24-44.54 46.72-89 93.5-133.49 140.26-42.24-73.2-84.51-146.38-126.76-219.57 117.93-200.67 235.84-401.34 353.79-602z"/><path d="m325.5 706.92c73.54.03 147.07.0 220.6.02.01 3.93.01 7.87.0 11.82 25.06 14.48 50.12 28.96 75.19 43.42 25.07-14.41 50.08-28.91 75.13-43.35.01-3.95.02-7.9.0-11.84 38.89-.13 77.78-.03 116.68-.05.0 3.93.0 7.87-.01 11.81 25.04 14.51 50.13 28.93 75.17 43.45 25.08-14.41 50.1-28.93 75.16-43.37.0-3.97.0-7.93.01-11.9 72.99.0 145.98.01 218.97.0-1.06.97-2.11 1.96-3.14 2.95 47.18 50.06 94.4 100.07 141.59 150.12-71.7 124.26-143.45 248.49-215.18 372.73-233.96-.04-467.92.09-701.88-.06-71.96-124.9-144.16-249.67-216.16-374.55 46.96-49.43 93.99-98.79 140.98-148.19-1.04-1.01-2.07-2.02-3.11-3.01z"/><path d="m87.38 851.53c11.72-2.78 23.93-1.1 35.7.54 14.71 2.3 29.21 5.79 43.55 9.76 69.86 121.02 139.71 242.05 209.6 363.05-17.62-2.09-36.01 4.37-48.62 16.81-6.21 6.04-10.09 14.07-12.25 22.37-1.5 5.85-.54 12.14 2.15 17.5 5.44 11.09 13.69 20.45 19.82 31.13 1.7 3.2 3.79 6.53 3.71 10.3-.88 4.21-4.89 6.87-8.7 8.25-8.4 2.84-17.67 1.92-25.98-.8-7.25-2.33-13.48-6.84-19.68-11.11-9.25-6.57-18.14-14.26-23.57-24.39-6.99-13.14-8.01-28.4-8.48-42.99-.17-13.18 1.02-26.95 7.49-38.71 4.81-8.92 12.78-15.71 21.54-20.59 8.84-4.97 18.68-8.09 27.07-13.88 3.79-2.58 7-7.04 5.94-11.84-1.09-5.69-6.66-8.75-11.4-11.1-6.19-3.06-13.4-6.44-20.33-3.77-7.92 2.92-11.24 11.43-17.84 16.09-12.74 9.76-26.85 17.56-41.18 24.69-9.96 5.02-20.34 9.28-29.68 15.44-5.83 3.82-10.94 9.09-13.37 15.73-3.66 9.87-3.52 20.58-3.82 30.96-.33 13.16.4 26.42-1.46 39.49-.69 4.33-2.06 9.73-6.74 11.3-4.65.31-8.47-3.1-11.81-5.9-9.67-9.1-16.61-20.7-22.33-32.58-6.64-14.51-11.81-30.15-11.86-46.25.98-9.5 4.57-18.49 7.8-27.4 5.84-14.72 12.41-29.35 21.63-42.3 10.61-14.67 25.14-25.77 39.19-36.93 11.15-8.78 22.35-17.52 33.06-26.84 2.43-2.07 4.84-5.1 3.86-8.5-1.08-4.44-6.54-5.19-10.37-5.07-20.7.74-41.39 2-62.07 3.22-13.23 1.16-26.84 1.12-39.54 5.42-9.53 3.23-15.64 11.74-20.94 19.79-7.14 11.7-12.53 24.47-16.06 37.71-1.7 5.42-3.74 11.21-8.25 14.96-2.33 2.07-5.82 1.58-8.17-.18-5.66-4.01-8.93-10.48-11.41-16.78-5.21-14.3-6.18-29.96-4.02-44.96 1.92-12.98 4.94-25.83 9.43-38.16 4.21-11.65 7.65-23.71 8.61-36.1.45-4.75-1.26-9.57.14-14.23 1.9-6.84 6.85-12.27 11.95-16.97 5.48-4.97 13.43-4.58 20.33-4.85 31.99.16 63.92 3.25 95.92 2.56 3.98.2 9.05-1.8 9.24-6.38-.76-3.13-2.2-6.5-5.15-8.12-11.1-7.22-23.22-12.63-34.68-19.2-11.75-6.97-23.5-14.11-33.88-23.05-5.97-5.05-11.96-10.08-17.95-15.11-7.81 5.84-15.83 11.42-23.51 17.44-10.02 9.22-17.78 20.56-25.07 31.98-8.95 13.92-14.87 29.68-25.24 42.7-2.42 2.76-4.97 5.96-8.71 6.84-2.67-1-4.19-3.63-5.62-5.93-3.98-7.27-6.39-15.28-8.62-23.23-1.6-6.35-3.65-12.73-3.43-19.35.25-13.28 4.37-26.13 9.44-38.28 8.17-18.87 19.29-36.55 33.18-51.75 8.86-9.35 18.88-18.55 31.44-22.45z"/><path d="m1333.41 866.59c19.19-5.19 38.64-9.95 58.51-11.46 9.37-.59 19.36-.64 27.83 4.03 13.51 7.17 24.16 18.61 33.5 30.52 10.13 13.24 18.61 27.76 24.94 43.19 4.26 10.56 7.65 21.64 8.38 33.06.82 10.09-2.76 19.76-5.4 29.32-2.51 7.23-4.72 15.04-10.05 20.77-2.53 2.83-5.86-.42-7.85-2.27-10.24-10.86-16.03-24.87-23.3-37.71-5.84-10.22-12.33-20.09-19.73-29.26-4.21-5.09-8.62-10.13-14.04-13.97-6.55-4.84-13.12-9.66-19.69-14.46-13.69 11.45-26.99 23.56-42.52 32.53-14.17 9.24-29.89 15.76-44.12 24.89-2.95 1.64-4.33 5.05-5.14 8.16.47 4.48 5.28 6.47 9.28 6.26 30.36.65 60.67-2.02 91.01-2.53 7.27.13 14.95-.51 21.79 2.45 4.41 2.43 7.71 6.44 10.85 10.3 3.29 4.46 5.83 9.96 5.04 15.63-1.18 9.18.97 18.35 3.1 27.23 2.51 10.4 6.99 20.18 9.63 30.55 4.43 16.94 7.78 34.64 5.15 52.17-1.62 10.85-4.72 22.08-12.01 30.56-2.62 2.93-6.99 6.3-10.98 3.86-5.03-3.52-7.16-9.68-8.95-15.28-3.65-13.7-9.23-26.93-16.77-38.95-4.92-7.24-10.43-14.86-18.87-18.2-10.78-4.26-22.55-4.46-33.94-5.51-22.03-1.47-44.08-2.66-66.14-3.61-3.79-.15-7.93-.39-11.29 1.65-3.24 2.67-2.67 7.85.4 10.43 19.43 17.72 41.58 32.25 60.7 50.34 17.71 16.61 27.84 39.29 36.29 61.62 3.08 9.4 7.24 19.06 5.88 29.18-1.57 16.47-7.4 32.29-15.08 46.85-4.92 9-10.57 17.75-17.99 24.9-3.15 2.89-6.62 5.81-10.9 6.74-2.84.5-5.18-1.89-6.43-4.15-2.05-4.2-2.39-8.96-2.85-13.53-1.14-16.44-.06-32.96-1.43-49.39-.76-8.32-2.65-17.05-8.34-23.46-6.33-7.11-15.11-11.27-23.46-15.48-19.19-9.16-38.48-18.57-55.44-31.56-6.67-4.69-10.03-13.3-18.05-16.19-7.19-2.68-14.55 1.01-20.92 4.17-4.58 2.27-9.81 5.43-10.72 10.92-.97 4.79 2.3 9.18 6.08 11.74 9.04 6.13 19.66 9.34 29 14.97 7.54 4.5 14.33 10.55 18.8 18.19 7.59 12.95 8.57 28.49 8.1 43.16-.64 14.03-1.99 28.7-9.14 41.1-7.02 12.07-18.62 20.46-30.08 27.96-9.72 6.61-21.85 10.04-33.57 8.25-5.03-.87-10.55-2.95-12.99-7.76-1.43-2.84.17-5.94 1.33-8.56 5.03-10.01 12.35-18.61 18.13-28.17 4.03-6.47 7.53-14 6.08-21.82-1.37-6.98-4.17-13.76-8.36-19.52-12.2-15.8-33.18-24.04-52.89-21.78 69.9-121.01 139.73-242.06 209.63-363.07z"/></g><g fill="#fff"><path d="m561.19 545.34c20.03-11.58 40.09-23.11 60.11-34.71 20.02 11.56 40.06 23.09 60.05 34.7-.01 54.92.0 109.84.0 164.76-20.02 11.59-40.04 23.17-60.09 34.7-19.99-11.62-40.03-23.16-60.06-34.69-.01-54.92.01-109.84-.01-164.76m28.76 39.13c-8.99 15.57-17.97 31.15-26.97 46.72 8.74 4.98 17.42 10.04 26.13 15.07 6.1-10.52 12.17-21.05 18.24-31.59 9.27-.02 18.55.0 27.82.0 6.11 10.53 12.16 21.1 18.29 31.62 8.69-5.05 17.41-10.04 26.09-15.1-8.98-15.58-17.98-31.14-26.95-46.72-20.88-.01-41.77.0-62.65.0z"/><path d="m828.18 545.34c20.04-11.57 40.08-23.13 60.12-34.71 20.01 11.57 40.05 23.09 60.04 34.69v164.77c-20.01 11.59-40.03 23.17-60.09 34.7-19.98-11.63-40.03-23.14-60.06-34.69-.01-54.92.01-109.84-.01-164.76m28.76 39.13c-8.98 15.58-17.97 31.15-26.96 46.73 8.74 4.97 17.42 10.03 26.13 15.05 6.09-10.52 12.17-21.06 18.25-31.58h27.81c6.1 10.53 12.17 21.08 18.27 31.62 8.7-5.03 17.42-10.04 26.11-15.11-9-15.56-17.97-31.15-26.97-46.71-20.88.0-41.76-.01-62.64.0z"/></g></svg>