<svg height="2108" viewBox="0 0 2e3 1581" width="2e3pt" xmlns="http://www.w3.org/2000/svg"><g fill="#7902aa"><path d="m197.54.0h1604.99c13.01 22.46 25.65 45.14 38.76 67.55.79 1.63 1.6 3.27 2.42 4.9 14.39 24.58 28.18 49.52 42.58 74.1.79 1.63 1.59 3.26 2.42 4.89 13.06 22.25 25.52 44.86 38.58 67.11.79 1.63 1.6 3.27 2.42 4.9 6.84 11.57 13.43 23.28 20.05 34.98 4.97 8.3 9.48 16.86 14.52 25.12.46.97.94 1.94 1.45 2.92 2.33 3.6 4.21 7.47 6.54 11.09 1.89 4.11 4.41 7.88 6.48 11.9.8 1.37 1.67 2.72 2.51 4.1 3 5.72 6.47 11.18 9.5 16.89 2.74 4.57 5.33 9.23 7.99 13.85-.37 1.09-.69 2.19-.98 3.3-12 20.99-23.88 42.06-36.06 62.95-.83 1.63-1.63 3.26-2.42 4.9-9.04 15.25-17.56 30.81-26.53 46.1-3.94 7.04-7.88 14.09-12.05 21-.83 1.63-1.63 3.26-2.42 4.9-13.06 22.25-25.52 44.85-38.58 67.1-.82 1.63-1.63 3.26-2.42 4.9-9.04 15.25-17.56 30.81-26.52 46.1-3.94 7.05-7.91 14.08-12.04 21.01-4.89 9.75-11 18.85-15.86 28.62 12.18 20.23 23.38 41.05 35.42 61.37.79 1.63 1.6 3.26 2.42 4.9 13.31 22.58 25.84 45.62 39.26 68.13.01.43.02 1.3.03 1.73-.84 1.03-1.59 2.09-2.34 3.17-.78 1.65-1.57 3.31-2.36 4.97-5.07 8.24-9.56 16.82-14.54 25.11-9.28 16.37-18.55 32.75-28.05 48.99-.82 1.62-1.63 3.26-2.42 4.9-13.06 22.25-25.52 44.85-38.58 67.1-.82 1.63-1.63 3.26-2.42 4.9-11 18.92-21.89 37.92-32.57 57.03-.71.98-1.35 2-1.98 3.03-1.19 2.43-2.57 4.76-4.02 7.04-.83 1.62-1.64 3.26-2.43 4.9-10.36 17.58-20.23 35.46-30.52 53.1-1.23 2.39-2.6 4.71-4.04 6.99-.5.95-.98 1.92-1.44 2.9-2.36 3.61-4.23 7.5-6.58 11.12-.82 1.62-1.63 3.25-2.42 4.89-5.51 9.23-10.78 18.62-16.05 27.99-7.64 12.96-14.83 26.19-22.53 39.11-.82 1.62-1.63 3.26-2.42 4.9-11.84 20.2-23.23 40.67-34.98 60.93-1.99 3.7-4.28 7.23-6.04 11.06-3.99 6.65-7.77 13.42-11.58 20.18-9.09 15.59-17.8 31.4-26.98 46.94-.83 1.62-1.63 3.25-2.43 4.9-2.83 4.57-5.46 9.27-8.05 13.99-10.3 17.63-20.15 35.52-30.52 53.1-.82 1.62-1.63 3.25-2.42 4.9-14.4 24.58-28.19 49.52-42.58 74.1-.82 1.62-1.63 3.25-2.42 4.9-6.52 10.86-12.55 22.01-18.98 32.93-6.49 11.41-12.91 22.87-19.6 34.17-.82 1.62-1.63 3.25-2.42 4.9-8.15 13.36-15.21 27.38-23.64 40.55H550.21c-8.17-13.32-15.45-27.17-23.5-40.55-.81-1.65-1.62-3.28-2.42-4.9-13.06-22.25-25.52-44.86-38.58-67.1-.81-1.65-1.62-3.28-2.42-4.9-14.39-24.58-28.18-49.52-42.58-74.1-.81-1.65-1.62-3.28-2.42-4.9-3.69-5.95-6.95-12.14-10.51-18.16-10.08-17.99-20.71-35.69-30.51-53.83-13.02-22.27-25.51-44.86-38.56-67.11-.81-1.64-1.62-3.28-2.42-4.9-13.05-22.25-25.54-44.84-38.56-67.11-2.01-4.3-4.58-8.28-6.85-12.44-11.45-19.81-22.6-39.81-34.17-59.56-.81-1.63-1.61-3.27-2.42-4.89-14.39-24.58-28.19-49.52-42.58-74.1-.81-1.64-1.61-3.28-2.42-4.9-13.06-22.25-25.52-44.86-38.58-67.11-.81-1.63-1.61-3.27-2.42-4.89-13.06-22.25-25.52-44.86-38.58-67.1-.81-1.64-1.61-3.27-2.42-4.9-7.69-12.94-14.95-26.14-22.52-39.16-7.37-13.36-15.47-26.35-22.46-39.91-.74-1.08-1.52-2.15-2.3-3.17.01-.43.02-1.29.02-1.72 13.42-22.51 25.95-45.56 39.26-68.14.81-1.64 1.61-3.27 2.42-4.9 10.84-18.57 21.43-37.29 32.05-55.98 1.1-1.81 2.35-3.55 3.17-5.51-3.81-8.17-8.76-15.78-13.2-23.62-3.17-6.46-7.07-12.52-10.51-18.83-10.23-17.69-20.16-35.55-30.51-53.16-.81-1.64-1.61-3.27-2.42-4.89-13.06-22.25-25.52-44.86-38.58-67.11-.81-1.64-1.61-3.27-2.42-4.9-13.05-22.25-25.54-44.84-38.56-67.11-3.17-6.46-7.07-12.52-10.51-18.83-8.89-15.35-17.49-30.86-26.49-46.14-.49-.98-.98-1.96-1.47-2.93-.33-1.08-.67-2.15-1.02-3.21 8.04-13.95 15.86-28.02 24.05-41.88.81-1.63 1.61-3.26 2.42-4.88 11.53-19.6 22.5-39.54 34-59.15 2.73-5.07 5.58-10.07 8.58-14.97.81-1.64 1.61-3.27 2.42-4.9 13.06-22.25 25.52-44.85 38.58-67.1.81-1.63 1.61-3.27 2.42-4.9 14.4-24.58 28.18-49.52 42.58-74.1.81-1.64 1.61-3.29 2.4-4.93.86-1.35 1.75-2.68 2.61-4.03.47-.98.94-1.96 1.41-2.95 6.85-11.56 13.44-23.29 20.06-34.99 5.05-8.44 9.65-17.15 14.77-25.55m40.98 75.4c-.44 1.15-.89 2.29-1.35 3.43-.77 1.01-1.53 2.03-2.22 3.09-14.77 25.31-29.2 50.81-43.65 76.3-34.28 60.04-68.45 120.13-102.6 180.24-1.14 2.22-2.5 4.38-3.21 6.79-.24 1.94 1.56 3.35 2.5 4.87 13.89 26.15 29.33 51.47 43.59 77.42 23.57 40.89 46.58 82.1 70.26 122.93 1.26 2.33 2.67 4.57 4.31 6.66.47 1.15.92 2.31 1.37 3.48.46.04 1.38.13 1.84.17l.68-4.14.99 10.83.7-6.2c.64.08 1.91.25 2.55.34l.69 7.52.76-6.62c2.18.01 4.36.01 6.55.0l.74 6.66.72-7.65c2.22.0 4.44-.03 6.67-.06-.65-.36-1.97-1.09-2.62-1.45 3.21.27 4.17-2.51 5.23-4.82 6.18-9.64 11.55-19.78 17.37-29.64 10.66-18.75 21.53-37.38 31.63-56.42.92-1.4 2.29-2.69 2.55-4.39-.23-1.94-1.48-3.58-2.27-5.32-6.3-10.45-11.83-21.35-18.01-31.87-12.25-21.68-24.84-43.17-36.89-64.96-3.15-5.37-5.95-10.95-9.38-16.16.02-.91.05-1.82.08-2.72 3.44-5.2 6.18-10.81 9.38-16.15 6.26-11.66 13.03-23.03 19.51-34.56 19.16-33.28 37.91-66.8 57.15-100.03.63-1.04 1.35-2.02 2.05-3.02 45.27-.31 90.55.0 135.82-.4-.15-.33-.44-1-.59-1.33.82-.79 1.57-1.64 2.26-2.56 16.52-28.17 32.52-56.65 48.56-85.1.28-.55.84-1.65 1.12-2.2.42-2.22.86-4.43 1.32-6.64l-4.18 2.04-.05-2.06c2.23-.17 6.68-.52 8.91-.69l-8.09-.77c.41-2.27.84-4.54 1.3-6.79l-2.81 2.68c.92-1.84 2.77-5.53 3.7-7.38l-3.5 2.86-1.42 4.37c-.42-2.9.02-5.61 1.34-8.13l-2.22.95-.53-2.8-1.42 3.78-.21-4.41c-.85.76-2.55 2.28-3.4 3.04.54-.74 1.62-2.22 2.15-2.96-30.75-.3-61.51-.22-92.26-.23-51.16.03-102.32-.11-153.47.18m1271.14.06c.08 2.16-.56 4.77-3.32 4.37.09.75.27 2.26.37 3.02-.56-.16-1.68-.49-2.24-.66.03 2.4-.01 4.8.03 7.2-.47-.68-1.42-2.05-1.89-2.73-.12 1.73-.15 3.47-.23 5.21l.72-.68c.47 1.37 1.13 2.7 1.94 3.92.93 1.79 1.78 3.63 2.65 5.47 14.89 26.02 29.4 52.28 44.6 78.14 2.04 3.2 3.39 6.93 6.3 9.5-.15.33-.45.99-.6 1.33 45.27.41 90.55.09 135.82.4 8.21 13.03 15.46 26.66 23.27 39.95 11.46 20.5 23.25 40.83 34.86 61.26 10.2 17.39 19.65 35.22 29.96 52.55.0.89.04 1.79.09 2.7-1.26 1.95-2.53 3.9-3.62 5.94-19.48 35.34-40.28 69.96-59.43 105.48-1.3 1.84-2.65 3.72-3.36 5.88-.66 2.14 1.35 3.77 2.41 5.42 11.74 22.06 24.36 43.66 36.77 65.36 4.16 6.86 7.67 14.16 12.38 20.68.51 1.27.99 2.54 1.53 3.84.41-.23 1.22-.71 1.62-.94.2 1.4.6 4.22.8 5.62l.51-3.22c1.61.02 3.24.05 4.9.07l.03 7.72 3.44-5.38-2.4-1.28c2.83-.04 5.7-.07 8.55-.31 2.21-2.44 6.8-.54 8.04-4.1 13.89-23.57 27.42-47.36 40.84-71.2 21.42-37.29 42.53-74.74 63.87-112.07 4.33-7.98 9.27-15.64 13.1-23.88.98-1.25 1.93-2.51 2.93-3.77-1.03-2.69-2.27-5.3-3.6-7.84-44.81-78.81-89.65-157.6-134.56-236.34-4.72-7.69-8.65-15.9-13.92-23.22-.48-1.15-.94-2.31-1.32-3.47-30.49-.16-60.97-.22-91.45-.18-53.46.04-106.93-.15-160.39.24m-916.79 5.41c-29.92 51.53-59.15 103.46-88.65 155.22-31.76 55.64-63.37 111.35-95.12 166.99-72.07 126.82-144.44 253.48-216.39 380.37-1.12 2.38-2.89 4.64-3.22 7.29.7 2.42 2.08 4.58 3.23 6.81 48.34 85.22 96.99 170.27 145.42 255.44 42.07 73.61 83.89 147.36 125.98 220.97 20.87 37.09 42.27 73.88 63.12 110.98 20.49 35.52 40.46 71.32 61.06 106.78 2.03 3.2 3.39 6.91 6.26 9.53-.14.33-.42.98-.56 1.3 49.62.38 99.24.23 148.86.09l-.5-.73c2.16-1.13 4.1-2.64 6.29-3.69-.1-1.29-.2-2.55-.3-3.8l1.29.3c-.04-1.71-.05-3.39-.06-5.05 1.88-4.13 3.11-8.98.89-13.23-.83-1.19-1.63-2.38-2.33-3.61-15.73-28.79-32.53-56.98-48.47-85.66-22.24-38.75-44.18-77.67-66.37-116.46-4.2-7.07-7.69-14.56-12.21-21.43-.02-.87-.02-1.73-.01-2.56.72-1.11 1.46-2.17 2.12-3.3 20.26-36.59 41.49-72.64 61.92-109.13 41.76-73.06 83.34-146.23 125.06-219.3 23.6-.17 47.2-.24 70.8-.21 102.95.12 205.89-.24 308.84.21 58.53 102.56 116.92 205.21 175.45 307.79 4.72 7.88 8.63 16.23 13.65 23.94-.02.83-.02 1.69.0 2.56-6.29 10.06-11.55 20.73-17.62 30.93-33.32 58.37-66.45 116.84-99.79 175.19-4.11 6.92-7.53 14.24-11.88 21.02-.69 1.41-1.46 2.82-1.82 4.38-.82 2.43.2 6.5-4.58 5.36l5.56.69 1.44 1.87-4.21-1.11-4.3 1.75 7.88.19c-.09.83-.27 2.48-.36 3.31l1.36-.66c-.07 1.29-.19 3.89-.25 5.19.65-.65 1.94-1.96 2.58-2.62-.38 1.86-1.2 3.51-2.44 4.96l4.72-.24-2.57 2.64c1.51-.42 4.54-1.24 6.06-1.65-1.4.5-4.2 1.51-5.6 2.01 50.97.45 101.94.37 152.91.06-.15-.33-.45-1-.6-1.33 4.28-4.49 6.47-10.51 9.88-15.64 68.89-120.59 137.46-241.36 206.35-361.96 19.94-35.55 40.53-70.74 60.47-106.3 41.8-73.2 83.55-146.45 125.16-219.76 1.13-2.39 2.86-4.63 3.25-7.29-.72-2.44-2.1-4.6-3.24-6.84-29.45-52.09-59.15-104.04-88.72-156.07-83.81-147.2-167.61-294.41-251.41-441.62-20.02-34.95-39.61-70.16-60.1-104.81-.26-2.61-3.07-2.62-5.04-2.54-61.33-.32-122.66-.11-183.99-.17-167.34.0-334.67.0-502.01.0-40 .06-80.01-.17-120.02.24-1.74-.41-2.38 1.22-3.12 2.41m261.86 912.56c-1.19 2.41-2.48 4.77-3.96 7.02-24.66 42.81-49.01 85.81-73.45 128.75-11.62 20.4-23.4 40.7-34.83 61.2-9.84 17.49-20.18 34.71-29.51 52.47-1.04 1.56-2.67 3.04-2.57 5.08-.15 2.07 1.5 3.6 2.57 5.21 3.44 7.06 7.58 13.75 11.37 20.63 32.29 56.73 64.55 113.47 96.9 170.17 10.3 17.67 19.88 35.79 30.7 53.15.81 1.36 1.64 2.72 2.55 4.05-.09.36-.28 1.06-.38 1.41 45.96.32 91.92.18 137.88.21 51.13-.04 102.26.13 153.39-.2.81-1.83 1.66-3.65 2.55-5.43 10.88-17.1 20.23-35.14 30.48-52.62 32.11-56.27 64.13-112.59 96.18-168.9 4.1-7.54 8.79-14.79 12.37-22.6.97-1.24 1.91-2.49 2.89-3.71-.28-2.43-1.28-4.64-2.82-6.51-3.74-7.44-8.05-14.58-12.11-21.84-32-56.34-64.09-112.62-96.17-168.91-10.36-17.69-19.86-35.9-30.8-53.23-.89-1.8-1.76-3.61-2.58-5.41-46.46-.33-92.91-.1-139.37-.14-50.43.08-100.86-.23-151.28.15z"/><path d="m977.48 151.72c57.5-6.42 117.57 12.28 160.49 51.25 27.73 24.24 48.76 56.06 60.16 91.09 13.86 42.08 13.78 88.6-.24 130.62-11.55 35.19-32.94 67.01-60.91 91.25-30.47 27.17-69.41 44.55-109.86 49.79-31.12 4.06-63.17 1.07-92.95-8.88-54.52-17.88-100.51-59.6-124.12-111.83-18.94-41.57-23.54-89.46-12.97-133.89 11.25-49.17 41.63-93.27 82.67-122.39 28.7-20.42 62.71-33.25 97.73-37.01m5.03 75.03c-14.56 1.87-28.8 6.23-41.91 12.82-33.69 16.6-59.67 48.1-69.33 84.41-9.56 34.73-4.33 73.35 14.61 104.04 18.14 30.4 49.01 52.81 83.46 60.84 28.56 6.72 59.37 3.84 86.04-8.48 19.57-9.01 37.1-22.65 50.16-39.83 14.24-18.36 23.63-40.5 26.64-63.56 3.63-26.55-.88-54.19-13.08-78.07-11.42-22.63-29.39-41.96-51.29-54.77-25.38-15.24-55.99-21.31-85.3-17.4z"/><path d="m592.12 606.96c70.48-.25 140.95-.33 211.43.04 24.96 43.01 49.27 86.38 74 129.51 9.26 15.94 17.95 32.2 27.23 48.12.84 1.5 1.67 3.01 2.54 4.51-2.72-.03-5.44-.02-8.16-.08-32.64-.07-65.29.36-97.94-.06-5.71-8.89-10.44-18.34-15.86-27.41-11.44-20.06-23.02-40.05-34.49-60.1-35.22-.39-70.43-.34-105.64-.03-14.39 24.36-27.92 49.2-41.99 73.74-2.63 4.57-5.4 9.07-7.74 13.8-32.89.41-65.77.0-98.65.06-3.06.07-6.12.04-9.18.08 1.19-1.6 2.31-3.24 3.27-4.97 29.75-52.31 59.35-104.7 89.36-156.85 4-6.75 7.45-13.83 11.82-20.36z"/><path d="m1196.45 607c70.47-.37 140.95-.29 211.43-.04 3.69 5.51 6.71 11.41 9.98 17.18 31.24 54.12 61.85 108.62 92.88 162.85.42.48 1.27 1.45 1.69 1.93-.96.02-2.89.05-3.85.07-34.69.04-69.38.41-104.07.01-8.79-15.97-18.05-31.67-26.87-47.62-7.61-13.33-14.97-26.8-22.9-39.94-35.18-.27-70.37-.32-105.55.03-11.57 20.02-23.09 40.07-34.56 60.14-5.42 9.06-10.15 18.51-15.85 27.39-34.15.43-68.31-.03-102.47.04-.91.03-2.73.08-3.64.11.48-.83.97-1.67 1.47-2.49 13.43-23.72 26.67-47.55 40.29-71.15 20.69-36.16 41.08-72.49 62.02-108.51z"/><path d="m932.23 1035.95c45.18-.33 90.36-.33 135.54.0 22.94 39.95 45.76 79.96 68.38 120.09-22.64 40.07-45.42 80.08-68.39 119.97-45.17.3-90.35.3-135.52.0-22.97-39.89-45.74-79.9-68.39-119.97 22.62-40.13 45.44-80.14 68.38-120.09z"/></g><g fill="#d08d3b"><path d="m238.52 75.4c51.15-.29 102.31-.15 153.47-.18 30.75.01 61.51-.07 92.26.23-.53.74-1.61 2.22-2.15 2.96.85-.76 2.55-2.28 3.4-3.04l.21 4.41 1.42-3.78.53 2.8 2.22-.95c-1.32 2.52-1.76 5.23-1.34 8.13l1.42-4.37 3.5-2.86c-.93 1.85-2.78 5.54-3.7 7.38l2.81-2.68c-.46 2.25-.89 4.52-1.3 6.79l8.09.77c-2.23.17-6.68.52-8.91.69l.05 2.06 4.18-2.04c-.46 2.21-.9 4.42-1.32 6.64-.28.55-.84 1.65-1.12 2.2-16.04 28.45-32.04 56.93-48.56 85.1-.69.92-1.44 1.77-2.26 2.56.15.33.44 1 .59 1.33-45.27.4-90.55.09-135.82.4-.7 1-1.42 1.98-2.05 3.02-19.24 33.23-37.99 66.75-57.15 100.03-6.48 11.53-13.25 22.9-19.51 34.56-3.2 5.34-5.94 10.95-9.38 16.15-.03.9-.06 1.81-.08 2.72 3.43 5.21 6.23 10.79 9.38 16.16 12.05 21.79 24.64 43.28 36.89 64.96 6.18 10.52 11.71 21.42 18.01 31.87.79 1.74 2.04 3.38 2.27 5.32-.26 1.7-1.63 2.99-2.55 4.39-10.1 19.04-20.97 37.67-31.63 56.42-5.82 9.86-11.19 20-17.37 29.64-1.06 2.31-2.02 5.09-5.23 4.82.65.36 1.97 1.09 2.62 1.45-2.23.03-4.45.06-6.67.06l-.72 7.65-.74-6.66c-2.19.01-4.37.01-6.55.0l-.76 6.62-.69-7.52c-.64-.09-1.91-.26-2.55-.34l-.7 6.2-.99-10.83-.68 4.14c-.46-.04-1.38-.13-1.84-.17-.45-1.17-.9-2.33-1.37-3.48-1.64-2.09-3.05-4.33-4.31-6.66-23.68-40.83-46.69-82.04-70.26-122.93-14.26-25.95-29.7-51.27-43.59-77.42-.94-1.52-2.74-2.93-2.5-4.87.71-2.41 2.07-4.57 3.21-6.79 34.15-60.11 68.32-120.2 102.6-180.24 14.45-25.49 28.88-50.99 43.65-76.3.69-1.06 1.45-2.08 2.22-3.09.46-1.14.91-2.28 1.35-3.43m25.7 19.84c-10.22 2.52-19.22 8.99-25.63 17.25-9.03 11.31-15.88 24.12-22.99 36.67-23.31 40.74-46.43 81.59-69.74 122.33-8.66 15.64-18.13 30.87-25.84 47.03-2.9 5.88-4.6 12.23-6.23 18.55-1.95 6.29-1.54 13.05.69 19.2 2.91 12.08 9.15 22.91 14.98 33.75 19.14 33.79 38.39 67.52 57.69 101.22 5.58 9.15 10.63 18.77 17.92 26.72 4.51 4.19 10.26 9 16.9 7.23 7.36-2.55 12.68-8.68 16.9-14.98 8.5-12.82 15.84-26.86 18.35-42.2.49-3.22.19-6.49-.47-9.65-1.86-8.63-4.74-17.04-8.77-24.89-11.67-23.44-27.46-45.04-35.1-70.33-2.54-7.47-1.15-15.44-1.53-23.15-.4-10.34 3.59-20.11 7.65-29.41 7.83-16.97 17.84-32.8 26.86-49.14 7.44-12.94 14.76-25.95 22.39-38.78 6.78-11.31 14.26-22.45 24.22-31.22 7.94-6.74 17.32-11.83 27.4-14.48 4.86-1.37 9.93-1.57 14.92-2.22 6.65-.84 13.39.21 20.01-.95 17.83-1.52 35.97 1.44 53.62-2.29 7.3-1.36 14.61-3.44 20.83-7.63 10.21-6.21 16.59-16.68 22.61-26.65 5.09-8.38 8.08-17.78 10.41-27.24-1.26-3.34-2.02-7.04-4.36-9.83-3.74-3.67-8.97-5.22-13.97-6.27-5.26-1.02-10.54-2.19-15.91-2.3-47.02.03-94.04.0-141.06.02-7.69.32-15.31 1.69-22.75 3.64z"/><path d="m1509.66 75.46c53.46-.39 106.93-.2 160.39-.24 30.48-.04 60.96.02 91.45.18.38 1.16.84 2.32 1.32 3.47 5.27 7.32 9.2 15.53 13.92 23.22 44.91 78.74 89.75 157.53 134.56 236.34 1.33 2.54 2.57 5.15 3.6 7.84-1 1.26-1.95 2.52-2.93 3.77-3.83 8.24-8.77 15.9-13.1 23.88-21.34 37.33-42.45 74.78-63.87 112.07-13.42 23.84-26.95 47.63-40.84 71.2-1.24 3.56-5.83 1.66-8.04 4.1-2.85.24-5.72.27-8.55.31l2.4 1.28-3.44 5.38-.03-7.72c-1.66-.02-3.29-.05-4.9-.07l-.51 3.22c-.2-1.4-.6-4.22-.8-5.62-.4.23-1.21.71-1.62.94-.54-1.3-1.02-2.57-1.53-3.84-4.71-6.52-8.22-13.82-12.38-20.68-12.41-21.7-25.03-43.3-36.77-65.36-1.06-1.65-3.07-3.28-2.41-5.42.71-2.16 2.06-4.04 3.36-5.88 19.15-35.52 39.95-70.14 59.43-105.48 1.09-2.04 2.36-3.99 3.62-5.94-.05-.91-.09-1.81-.09-2.7-10.31-17.33-19.76-35.16-29.96-52.55-11.61-20.43-23.4-40.76-34.86-61.26-7.81-13.29-15.06-26.92-23.27-39.95-45.27-.31-90.55.01-135.82-.4.15-.34.45-1 .6-1.33-2.91-2.57-4.26-6.3-6.3-9.5-15.2-25.86-29.71-52.12-44.6-78.14-.87-1.84-1.72-3.68-2.65-5.47-.81-1.22-1.47-2.55-1.94-3.92l-.72.68c.08-1.74.11-3.48.23-5.21.47.68 1.42 2.05 1.89 2.73-.04-2.4.0-4.8-.03-7.2.56.17 1.68.5 2.24.66-.1-.76-.28-2.27-.37-3.02 2.76.4 3.4-2.21 3.32-4.37m58.08 15.22c-6.59.41-13.16 1.54-19.38 3.78-4.52 1.59-8.81 4.67-10.62 9.25-2.82 6.59.32 13.71 2.58 19.99 6.18 14.31 14.28 28.31 26.2 38.63 6.14 4.86 13.56 8.05 21.28 9.35 18.97 5.12 38.78 3.3 58.2 3.61 7.47-.44 14.83 1.13 22.29 1.12 15.85.68 30.77 8.2 42.13 19.04 10.39 10.66 18.06 23.54 25.56 36.29 10.12 17.82 20.36 35.57 30.47 53.4 7.07 12.6 14.27 25.3 18.73 39.11 2.29 7.04 1.36 14.53 1.54 21.8-.22 6.93.86 14.16-1.78 20.78-8.66 24.19-23.53 45.44-34.94 68.32-4.39 9.12-7.49 18.94-8.63 29.01 1.3 15.74 8.55 30.17 16.65 43.47 4.82 7.18 9.84 14.96 18.13 18.5 5.56 3.27 12.05-.32 16.42-3.98 6.72-6.16 11.32-14.17 16.17-21.78 18.25-31.49 36.17-63.18 54.16-94.82 7.72-13.71 15.84-27.31 21.69-41.96 2.48-8.14 5.31-16.9 2.94-25.4-1.9-9.86-5.84-19.18-10.54-28.01-8.85-16.37-18.14-32.5-27.36-48.66-19.89-34.77-39.59-69.64-59.5-104.39-8.71-14.76-16.42-30.16-26.67-43.94-4.73-6.24-10.67-11.63-17.63-15.26-6.53-3.47-13.92-4.69-21.06-6.21-9.85-1.63-19.84-2.35-29.81-2.01-31.32-.03-62.65-.01-93.97-.01-11.09.11-22.22-.49-33.25.98z"/><path d="m592.87 80.87c.74-1.19 1.38-2.82 3.12-2.41 40.01-.41 80.02-.18 120.02-.24h502.01c61.33.06 122.66-.15 183.99.17 1.97-.08 4.78-.07 5.04 2.54 20.49 34.65 40.08 69.86 60.1 104.81 83.8 147.21 167.6 294.42 251.41 441.62 29.57 52.03 59.27 103.98 88.72 156.07 1.14 2.24 2.52 4.4 3.24 6.84-.39 2.66-2.12 4.9-3.25 7.29-41.61 73.31-83.36 146.56-125.16 219.76-19.94 35.56-40.53 70.75-60.47 106.3-68.89 120.6-137.46 241.37-206.35 361.96-3.41 5.13-5.6 11.15-9.88 15.64.15.33.45 1 .6 1.33-50.97.31-101.94.39-152.91-.06 1.4-.5 4.2-1.51 5.6-2.01-1.52.41-4.55 1.23-6.06 1.65l2.57-2.64-4.72.24c1.24-1.45 2.06-3.1 2.44-4.96-.64.66-1.93 1.97-2.58 2.62.06-1.3.18-3.9.25-5.19l-1.36.66c.09-.83.27-2.48.36-3.31l-7.88-.19 4.3-1.75 4.21 1.11-1.44-1.87-5.56-.69c4.78 1.14 3.76-2.93 4.58-5.36.36-1.56 1.13-2.97 1.82-4.38 4.35-6.78 7.77-14.1 11.88-21.02 33.34-58.35 66.47-116.82 99.79-175.19 6.07-10.2 11.33-20.87 17.62-30.93-.02-.87-.02-1.73.0-2.56-5.02-7.71-8.93-16.06-13.65-23.94-58.53-102.58-116.92-205.23-175.45-307.79-102.95-.45-205.89-.09-308.84-.21-23.6-.03-47.2.04-70.8.21-41.72 73.07-83.3 146.24-125.06 219.3-20.43 36.49-41.66 72.54-61.92 109.13-.66 1.13-1.4 2.19-2.12 3.3-.01.83-.01 1.69.01 2.56 4.52 6.87 8.01 14.36 12.21 21.43 22.19 38.79 44.13 77.71 66.37 116.46 15.94 28.68 32.74 56.87 48.47 85.66.7 1.23 1.5 2.42 2.33 3.61 2.22 4.25.99 9.1-.89 13.23.01 1.66.02 3.34.06 5.05l-1.29-.3c.1 1.25.2 2.51.3 3.8-2.19 1.05-4.13 2.56-6.29 3.69l.5.73c-49.62.14-99.24.29-148.86-.09.14-.32.42-.97.56-1.3-2.87-2.62-4.23-6.33-6.26-9.53-20.6-35.46-40.57-71.26-61.06-106.78-20.85-37.1-42.25-73.89-63.12-110.98-42.09-73.61-83.91-147.36-125.98-220.97-48.43-85.17-97.08-170.22-145.42-255.44-1.15-2.23-2.53-4.39-3.23-6.81.33-2.65 2.1-4.91 3.22-7.29C264.66 656.56 337.03 529.9 409.1 403.08c31.75-55.64 63.36-111.35 95.12-166.99 29.5-51.76 58.73-103.69 88.65-155.22m49.87 12.72c-3.49.13-6.99.31-10.41 1.03-7.06 1.49-14.35 2.43-20.92 5.58-8.57 3.73-15.15 10.77-20.66 18.11-9.36 13.29-16.96 27.69-25.12 41.72C462.49 341.2 359.35 522.38 256.21 703.55c-8.45 14.85-16.93 29.68-25.28 44.59-6.59 12.7-13.85 25.65-15.32 40.14-.9 8.63 2.7 16.73 5.54 24.67 5.43 12.6 12.34 24.49 19.14 36.4 111.28 195.38 222.65 390.72 333.93 586.11 7.17 12.07 13.77 24.67 23.31 35.1 6.29 6.51 14.4 11.36 23.29 13.29 7.36 1.54 14.71 3.67 22.3 3.48 5.64-.08 11.21 1.28 16.87 1.01 5.99-.23 12.01.34 17.99-.37 6.72-.98 13.59-.32 20.23-1.9 6.29-1.43 13.3-2.12 18.39-6.47 3.11-2.66 5.15-6.54 5.53-10.61-2.4-13.16-8.44-25.29-15.07-36.8-17.58-31.04-35.26-62.02-52.92-93.01-9.82-17.31-19.85-34.51-29.08-52.13-3.89-8.98-8.57-18-9.1-27.95-1.38-9.93-.67-20.03 1.11-29.85 3.74-12.72 9.95-24.51 16.42-36.01 40.96-72.03 82.05-143.98 123.02-216 8.82-15.18 17.1-30.72 27.38-44.98 4.2-5.62 8.55-11.27 14.15-15.58 10.68-8.78 23.98-15.09 37.99-15.36 5.66-.47 11.31-1.31 17.01-1.03 97.65.03 195.3.01 292.94.01 8.3-.35 16.51 1.01 24.74 1.77 14.08 1.9 26.7 9.75 36.72 19.54 13.66 14.98 22.95 33.17 33.08 50.57 38.8 67.87 77.46 135.82 116.14 203.76 8.77 15.73 18.57 31.04 24.59 48.12 2.56 6.1 2.77 12.79 3.4 19.29.4 10.69-.24 21.76-4.58 31.7-4.12 11.1-10.05 21.36-15.77 31.68-23 40.6-46.23 81.07-69.2 121.69-7.1 12.5-14.45 25.3-16.93 39.66.36 5.97 3.77 12.13 9.61 14.29 9.41 3.53 19.5 5.07 29.53 5.1 9.18 1.22 18.45.86 27.68.75 5.64-.77 11.32-.92 17.02-1.05 8.57-1.27 17.21-2.81 25.32-6 13.61-5.74 22.25-18.47 29.61-30.67 18.72-31.75 36.54-64.02 54.93-95.96 95.58-167.76 191.22-335.49 286.74-503.28 9.52-17.22 20.49-34.1 25.16-53.44 1.65-6.44.1-13.07-1.49-19.35-2.91-11.92-9.23-22.58-14.88-33.35-106.48-187.25-213.11-374.42-319.67-561.62-11.23-19.39-21.83-39.15-33.66-58.19-6.25-9.62-13.64-19.23-24.11-24.46-10.98-5.17-23.24-6.84-35.24-7.37-10.85-1.44-21.81-.54-32.7-.78-223.02.0-446.05-.02-669.07.01-3.42.14-6.8.74-10.21.88z"/><path d="m1223.04 587.94c7.32-.35 14.58-1.68 21.93-1.36 40.03.04 80.07-.01 120.1.02 12.9 1 26.07 1.93 38.22 6.79 14.31 4.84 25.62 15.65 34.39 27.62 8.37 11.6 15.32 24.11 22.54 36.43 11.07 19.84 22.61 39.42 33.62 59.29 8.04 14.33 15.86 29.11 19.37 45.3.33 2.3.5 4.63.71 6.96-.27 4.18-.66 8.42-2.39 12.3-.81 1.48-.41 3.12-.52 4.74-.07.24-.21.72-.27.96-31.03-54.23-61.64-108.73-92.88-162.85-3.27-5.77-6.29-11.67-9.98-17.18-70.48-.25-140.96-.33-211.43.04-20.94 36.02-41.33 72.35-62.02 108.51-13.62 23.6-26.86 47.43-40.29 71.15-.69-6.69-4.65-12.84-3.51-19.72 1.2-8.05 3.32-16.02 6.45-23.53 6.23-14.44 14.24-28.01 22-41.66 10.74-18.63 21.22-37.4 31.99-56.02 8.84-14.81 17.54-30.32 31.07-41.44 11.44-9.71 26.29-14.22 40.9-16.35z"/><path d="m635.05 588.56c5.36.25 10.63-1.03 15.99-1.05 27.64.09 55.27.01 82.91.04 5.43.04 10.89-.33 16.3.44 8.51 1.29 17.18-.29 25.69 1.27 11.74.96 23.29 4.51 33.47 10.48 12.49 7.47 21.59 19.23 29.39 31.27 14.12 23.1 27.13 46.85 40.63 70.31 8.14 14.68 17.32 28.92 23.24 44.7 2.36 7.14 5.46 14.33 4.9 22.03.41 5.69-1.04 11.22-2.79 16.58-9.28-15.92-17.97-32.18-27.23-48.12-24.73-43.13-49.04-86.5-74-129.51-70.48-.37-140.95-.29-211.43-.04-4.37 6.53-7.82 13.61-11.82 20.36-30.01 52.15-59.61 104.54-89.36 156.85-4.64-9.52-3.61-20.56-.86-30.46 5.72-17.84 15.55-33.91 24.73-50.1 9.05-16.23 18.39-32.29 27.58-48.44 8.13-13.91 15.89-28.19 26.34-40.54 7.28-8.58 16.53-15.57 27-19.78 12.5-4.77 25.96-6.81 39.32-6.29z"/><path d="m645.23 701.46c35.21-.31 70.42-.36 105.64.03 11.47 20.05 23.05 40.04 34.49 60.1 5.42 9.07 10.15 18.52 15.86 27.41 32.65.42 65.3-.01 97.94.06-3.23 5.28-8.79 8.4-14.17 11.1-9.34 4.47-19.76 5.5-29.94 6.3-18.21.53-37.28-.1-53.89-8.45-11.77-5.57-21.35-14.88-28.66-25.53-9.74-12.96-16.57-28.18-28.49-39.42-6.78-6.56-15.74-10.34-24.89-12.15-11.95-1.57-24.11-2.09-36.1-.68-13.23.8-26.3 6.68-34.99 16.82-12.96 15.05-20.44 34.22-34.96 48.03-8.8 9.29-20.53 15.33-32.81 18.58-13.89 2.89-28.15 3.39-42.29 2.65-7.38-.93-14.96-1.27-21.96-4.01-7.34-2.66-14.98-6.29-19.16-13.24 32.88-.06 65.76.35 98.65-.06 2.34-4.73 5.11-9.23 7.74-13.8 14.07-24.54 27.6-49.38 41.99-73.74z"/><path d="m1249.19 701.47c35.18-.35 70.37-.3 105.55-.03 7.93 13.14 15.29 26.61 22.9 39.94 8.82 15.95 18.08 31.65 26.87 47.62 34.69.4 69.38.03 104.07-.01-4.89 5.88-10.78 11.16-18.06 13.8-6.17 2.12-12.36 4.49-18.91 5.01-7.86.69-15.69 1.97-23.6 1.65-17.52-.91-35.87-3.12-50.92-12.91-13.39-8.28-22.47-21.59-30.7-34.66-6.2-9.7-12.25-19.74-20.86-27.54-5.03-4.72-11.32-7.91-17.86-9.92-10.98-2.99-22.44-1.79-33.67-2.07-11.06-.12-22.51 2.09-31.56 8.8-13.92 10-21.31 25.96-30.89 39.66-9.34 13.89-21.83 26.53-37.91 32.19-6.84 1.98-13.71 4.02-20.78 4.95-8.61.79-17.24 2.04-25.9 1.35-11.96-1.1-24.23-2.43-35.25-7.53-6.18-2.79-11.25-7.45-15.4-12.73 34.16-.07 68.32.39 102.47-.04 5.7-8.88 10.43-18.33 15.85-27.39 11.47-20.07 22.99-40.12 34.56-60.14z"/><path d="m854.73 993.43c50.42-.38 100.85-.07 151.28-.15 46.46.04 92.91-.19 139.37.14.82 1.8 1.69 3.61 2.58 5.41 10.94 17.33 20.44 35.54 30.8 53.23 32.08 56.29 64.17 112.57 96.17 168.91 4.06 7.26 8.37 14.4 12.11 21.84 1.54 1.87 2.54 4.08 2.82 6.51-.98 1.22-1.92 2.47-2.89 3.71-3.58 7.81-8.27 15.06-12.37 22.6-32.05 56.31-64.07 112.63-96.18 168.9-10.25 17.48-19.6 35.52-30.48 52.62-.89 1.78-1.74 3.6-2.55 5.43-51.13.33-102.26.16-153.39.2-45.96-.03-91.92.11-137.88-.21.1-.35.29-1.05.38-1.41-.91-1.33-1.74-2.69-2.55-4.05-10.82-17.36-20.4-35.48-30.7-53.15-32.35-56.7-64.61-113.44-96.9-170.17-3.79-6.88-7.93-13.57-11.37-20.63-1.07-1.61-2.72-3.14-2.57-5.21-.1-2.04 1.53-3.52 2.57-5.08 9.33-17.76 19.67-34.98 29.51-52.47 11.43-20.5 23.21-40.8 34.83-61.2 24.44-42.94 48.79-85.94 73.45-128.75 1.48-2.25 2.77-4.61 3.96-7.02m36.71 21.99c-3.87.0-7.86-.3-11.54 1.09-6.32 2.27-12.57 5.2-17.46 9.91-9.06 8.39-15.21 19.27-21.41 29.81-24.7 42.99-49.23 86.09-73.85 129.14-8.31 15.24-17.81 29.96-23.82 46.32-3.8 9.87-4.15 21.15-.48 31.12 5.47 16.1 14.8 30.46 22.9 45.3 19.6 34.38 39.23 68.74 58.76 103.16 8.85 15.39 17.27 31.07 27.07 45.9 6.18 8.52 13.62 16.78 23.53 20.94 8.32 4.2 17.81 4.6 26.91 5.41 57.98.06 115.96.01 173.94.03 10.31-.21 20.68.58 30.94-.82 8.95-.48 17.6-3.75 25.12-8.53 13.57-9.64 21.26-24.8 29.6-38.73 20.98-36.71 41.78-73.5 62.8-110.19 8.97-16.03 18.39-31.81 26.77-48.17 4.12-8.53 7.94-17.5 8.27-27.11.87-7.59-1.57-14.97-4.2-21.96-3.27-8.41-7.87-16.21-12.04-24.18-28.45-50.11-56.96-100.19-85.76-150.09-5.97-9.86-11.8-20.12-20.49-27.88-4.64-4.22-10.42-6.85-16.19-9.12-5.43-2.19-11.38-1.09-17.06-1.37-6.52-.5-13.37 1.99-17.86 6.75-1.46 4.49-.29 9.47 2.27 13.36 9.58 16.08 19.84 31.76 28.98 48.1 8.87 16.1 18.86 31.8 24.6 49.39 4.28 11.62 4.8 24.46 2.53 36.57-3.87 18.17-13.65 34.26-22.44 50.39-8.6 14.85-16.76 30.05-27.14 43.77-9.37 12.94-23.05 23.08-38.65 27-11.65 3.63-23.97 4.01-36.07 3.74-13.25 1.48-26.67 1.43-39.92.0-19.65.66-40.71-1.71-57.1-13.48-15.2-10.27-24.43-26.65-33.76-41.95-9.64-16.86-19.83-33.47-27.61-51.31-7.03-16.07-9.89-34.71-4.22-51.64 4.42-16.06 13.2-30.34 21.13-44.83 9.47-16.68 19.25-33.19 29.57-49.35 3.18-5.56 7.81-11.22 6.49-18.07-.67-3.81-5.01-5.16-8-6.78-4.69-2.4-10.06-1.48-15.11-1.64m40.79 20.53c-22.94 39.95-45.76 79.96-68.38 120.09 22.65 40.07 45.42 80.08 68.39 119.97 45.17.3 90.35.3 135.52.0 22.97-39.89 45.75-79.9 68.39-119.97-22.62-40.13-45.44-80.14-68.38-120.09-45.18-.33-90.36-.33-135.54.0z"/></g><g fill="#f2c40f"><path d="m1567.74 90.68c11.03-1.47 22.16-.87 33.25-.98 31.32.0 62.65-.02 93.97.01 9.97-.34 19.96.38 29.81 2.01 7.14 1.52 14.53 2.74 21.06 6.21 6.96 3.63 12.9 9.02 17.63 15.26 10.25 13.78 17.96 29.18 26.67 43.94 19.91 34.75 39.61 69.62 59.5 104.39 9.22 16.16 18.51 32.29 27.36 48.66 4.7 8.83 8.64 18.15 10.54 28.01 2.37 8.5-.46 17.26-2.94 25.4-5.85 14.65-13.97 28.25-21.69 41.96-17.99 31.64-35.91 63.33-54.16 94.82-4.85 7.61-9.45 15.62-16.17 21.78-4.37 3.66-10.86 7.25-16.42 3.98-8.29-3.54-13.31-11.32-18.13-18.5-8.1-13.3-15.35-27.73-16.65-43.47 1.14-10.07 4.24-19.89 8.63-29.01 11.41-22.88 26.28-44.13 34.94-68.32 2.64-6.62 1.56-13.85 1.78-20.78-.18-7.27.75-14.76-1.54-21.8-4.46-13.81-11.66-26.51-18.73-39.11-10.11-17.83-20.35-35.58-30.47-53.4-7.5-12.75-15.17-25.63-25.56-36.29-11.36-10.84-26.28-18.36-42.13-19.04-7.46.01-14.82-1.56-22.29-1.12-19.42-.31-39.23 1.51-58.2-3.61-7.72-1.3-15.14-4.49-21.28-9.35-11.92-10.32-20.02-24.32-26.2-38.63-2.26-6.28-5.4-13.4-2.58-19.99 1.81-4.58 6.1-7.66 10.62-9.25 6.22-2.24 12.79-3.37 19.38-3.78m26.72 20.3c-8.24 1.01-17.5-.44-24.51 4.97-3.63 2.49-4.12 7.36-2.88 11.27 2.24 7.36 7.02 13.88 13.04 18.62 8.59 6.18 19.52 7.58 29.84 7.73 18.96 2.12 38.13-.61 57.08 1.87 8.84.76 17.73 2 26.09 5.14 16.51 5.38 30.55 16.77 40.68 30.72 11.27 14.65 19.41 31.32 28.96 47.08 8.87 16.04 18.33 31.75 27.16 47.82 7.25 14.19 15.26 28.4 17.88 44.34 4.39 17.73-.39 36.23-7.52 52.57-8.45 19.75-20.58 37.61-30.1 56.81-4.01 8.07-7.06 16.96-6.58 26.08.56 8.14 3.4 16.29 8.79 22.51 2.31 2.61 5.58 4.86 9.21 4.78 4.86-.72 8.69-4.27 11.59-8.02 8.16-10.58 13.92-22.71 20.81-34.1 13.71-23.97 27.39-47.95 40.93-72.02 4.44-8.29 8.83-16.77 10.88-26.02 1.52-7.98.62-16.35-2.32-23.92-3.67-10.56-9.9-19.92-15.1-29.75-23.5-40.9-46.71-81.96-70.13-122.9-9.17-15.47-17.08-31.72-27.59-46.36-5.26-6.66-11.65-13-19.9-15.68-9.19-3.41-19.11-2.94-28.71-3.88-26.35-.07-52.7.0-79.05-.03-9.52.19-19.06-.44-28.55.37z"/><path d="m264.22 95.24c7.44-1.95 15.06-3.32 22.75-3.64 47.02-.02 94.04.01 141.06-.02 5.37.11 10.65 1.28 15.91 2.3 5 1.05 10.23 2.6 13.97 6.27 2.34 2.79 3.1 6.49 4.36 9.83-2.33 9.46-5.32 18.86-10.41 27.24-6.02 9.97-12.4 20.44-22.61 26.65-6.22 4.19-13.53 6.27-20.83 7.63-17.65 3.73-35.79.77-53.62 2.29-6.62 1.16-13.36.11-20.01.95-4.99.65-10.06.85-14.92 2.22-10.08 2.65-19.46 7.74-27.4 14.48-9.96 8.77-17.44 19.91-24.22 31.22-7.63 12.83-14.95 25.84-22.39 38.78-9.02 16.34-19.03 32.17-26.86 49.14-4.06 9.3-8.05 19.07-7.65 29.41.38 7.71-1.01 15.68 1.53 23.15 7.64 25.29 23.43 46.89 35.1 70.33 4.03 7.85 6.91 16.26 8.77 24.89.66 3.16.96 6.43.47 9.65-2.51 15.34-9.85 29.38-18.35 42.2-4.22 6.3-9.54 12.43-16.9 14.98-6.64 1.77-12.39-3.04-16.9-7.23-7.29-7.95-12.34-17.57-17.92-26.72-19.3-33.7-38.55-67.43-57.69-101.22-5.83-10.84-12.07-21.67-14.98-33.75-2.23-6.15-2.64-12.91-.69-19.2 1.63-6.32 3.33-12.67 6.23-18.55 7.71-16.16 17.18-31.39 25.84-47.03 23.31-40.74 46.43-81.59 69.74-122.33 7.11-12.55 13.96-25.36 22.99-36.67 6.41-8.26 15.41-14.73 25.63-17.25m26.09 20.03c-9.67.63-19.87 2.14-27.77 8.22-10.96 8.18-16.91 20.88-23.77 32.31-8.57 14.54-16.56 29.4-25.14 43.93-8.32 14.36-16.06 29.05-24.69 43.23-11.88 21.64-24.58 42.82-36.46 64.46-6.24 10.87-12.52 22.13-14.54 34.66-.63 6.66 1.42 13.27 3.54 19.51 5.78 13.33 13.26 25.82 20.6 38.33 9.94 17.99 20.33 35.71 30.47 53.59 3.7 6.79 7.66 13.45 12.02 19.84 2.9 4 5.84 8.35 10.35 10.67 4.07 1.92 8.77-.48 11.23-3.86 3.52-4.94 5.54-11.03 5.55-17.11-.27-10.11-5.04-19.34-9.68-28.09-4.24-8.85-9.74-17.01-14.27-25.71-9.89-18.03-19.86-36.91-21.3-57.83-1.43-19.3 4.39-38.56 13.56-55.41 5.27-11.1 11.75-21.54 17.58-32.34 12.25-21.1 23.93-42.53 36.77-63.28 7.48-12.11 16.51-23.45 27.87-32.14 11.56-8.71 25.55-13.85 39.79-16 9.29-1.01 18.62-1.7 27.95-2.28 7.34-.56 14.65.72 21.99.47 8.95.31 17.79-1.24 26.68-1.96 9.2-.93 18.59-5.07 23.93-12.9 2.72-3.82 4.23-9.03 2.35-13.52-2.01-3.29-6.01-4.59-9.58-5.37-15.64-2.68-31.61-2.39-47.4-1.58-16.62-.99-33.29-.27-49.93-.4-9.23.03-18.5-.57-27.7.56z"/><path d="m642.74 93.59c3.41-.14 6.79-.74 10.21-.88 223.02-.03 446.05-.01 669.07-.01 10.89.24 21.85-.66 32.7.78 12 .53 24.26 2.2 35.24 7.37 10.47 5.23 17.86 14.84 24.11 24.46 11.83 19.04 22.43 38.8 33.66 58.19 106.56 187.2 213.19 374.37 319.67 561.62 5.65 10.77 11.97 21.43 14.88 33.35 1.59 6.28 3.14 12.91 1.49 19.35-4.67 19.34-15.64 36.22-25.16 53.44-95.52 167.79-191.16 335.52-286.74 503.28-18.39 31.94-36.21 64.21-54.93 95.96-7.36 12.2-16 24.93-29.61 30.67-8.11 3.19-16.75 4.73-25.32 6-5.7.13-11.38.28-17.02 1.05-9.23.11-18.5.47-27.68-.75-10.03-.03-20.12-1.57-29.53-5.1-5.84-2.16-9.25-8.32-9.61-14.29 2.48-14.36 9.83-27.16 16.93-39.66 22.97-40.62 46.2-81.09 69.2-121.69 5.72-10.32 11.65-20.58 15.77-31.68 4.34-9.94 4.98-21.01 4.58-31.7-.63-6.5-.84-13.19-3.4-19.29-6.02-17.08-15.82-32.39-24.59-48.12-38.68-67.94-77.34-135.89-116.14-203.76-10.13-17.4-19.42-35.59-33.08-50.57-10.02-9.79-22.64-17.64-36.72-19.54-8.23-.76-16.44-2.12-24.74-1.77-97.64.0-195.29.02-292.94-.01-5.7-.28-11.35.56-17.01 1.03-14.01.27-27.31 6.58-37.99 15.36-5.6 4.31-9.95 9.96-14.15 15.58-10.28 14.26-18.56 29.8-27.38 44.98-40.97 72.02-82.06 143.97-123.02 216-6.47 11.5-12.68 23.29-16.42 36.01-1.78 9.82-2.49 19.92-1.11 29.85.53 9.95 5.21 18.97 9.1 27.95 9.23 17.62 19.26 34.82 29.08 52.13 17.66 30.99 35.34 61.97 52.92 93.01 6.63 11.51 12.67 23.64 15.07 36.8-.38 4.07-2.42 7.95-5.53 10.61-5.09 4.35-12.1 5.04-18.39 6.47-6.64 1.58-13.51.92-20.23 1.9-5.98.71-12 .14-17.99.37-5.66.27-11.23-1.09-16.87-1.01-7.59.19-14.94-1.94-22.3-3.48-8.89-1.93-17-6.78-23.29-13.29-9.54-10.43-16.14-23.03-23.31-35.1-111.28-195.39-222.65-390.73-333.93-586.11-6.8-11.91-13.71-23.8-19.14-36.4-2.84-7.94-6.44-16.04-5.54-24.67 1.47-14.49 8.73-27.44 15.32-40.14 8.35-14.91 16.83-29.74 25.28-44.59 103.14-181.17 206.28-362.35 309.42-543.52 8.16-14.03 15.76-28.43 25.12-41.72 5.51-7.34 12.09-14.38 20.66-18.11 6.57-3.15 13.86-4.09 20.92-5.58 3.42-.72 6.92-.9 10.41-1.03m-4.18 18.54c-6.69.99-13.55 2.03-19.65 5.14-8.23 4.2-14.22 11.64-19.27 19.19-10.26 16-19.01 32.9-28.67 49.25-25.5 45.12-51.26 90.09-76.86 135.15-9.39 16.88-19.38 33.43-28.64 50.39-36.07 63-71.8 126.19-107.82 189.22-19.65 34.9-39.8 69.52-59.37 104.47-9.89 16.6-18.82 33.75-28.81 50.3-9.39 17.19-19.58 33.94-28.4 51.44-3.77 8.22-6.85 17.17-6.26 26.34 1.07 13.2 8.12 24.76 14.12 36.23 38.19 67.44 76.75 134.67 115.04 202.06 7.08 11.95 13.47 24.3 20.66 36.2 5.64 9.48 10.88 19.2 16.34 28.8 9.52 15.94 18.19 32.37 27.62 48.36 35.2 61.8 70.4 123.6 105.6 185.4 20.01 34.69 39.46 69.7 59.59 104.31 4.49 7.57 8.98 15.28 15.26 21.53 5.25 5.43 12.02 9.48 19.45 11.01 7.42 1.47 14.95 2.64 22.55 2.33 12.58-.15 25.48.79 37.69-2.91 5.26-1.35 7.97-7.31 6.98-12.36-1.24-6.9-4.45-13.22-7.53-19.44-8.72-16.43-18.41-32.32-27.43-48.58-9.19-16.41-18.78-32.58-27.87-49.03-9.49-16.99-19.88-33.54-27.8-51.35-6.2-13.97-10.25-29.29-8.62-44.67 1.17-12.34 5.61-24.11 10.75-35.29 9.09-18.27 19.65-35.74 29.66-53.51 36.99-65.01 74.04-129.99 111.09-194.97 8.72-15.03 16.97-30.48 28.1-43.92 12.69-15.78 31.57-26.32 51.57-29.29 7.35-1.53 14.86-1.64 22.34-1.95 7.65-.87 15.34-.8 23.03-.71 82.68-.01 165.35.0 248.03.0 9.36.12 18.74-.45 28.07.63 8.67.47 17.43.47 25.94 2.44 18.94 3.64 36.82 13.75 48.91 28.9 10.88 13.35 19.35 28.43 27.68 43.45 17.08 29.35 33.68 58.98 50.6 88.42 19.72 34.9 39.79 69.61 59.44 104.56 8.56 14.8 17.17 29.59 25.26 44.67 7.47 13.8 14.35 28.31 16.3 44.07 1.81 12.23-.3 24.68-3.95 36.38-7.13 19.44-18.1 37.1-28.09 55.13-19.06 33.3-37.94 66.72-56.99 100.02-4.12 8.61-10.05 17.12-9.58 27.09-.14 2.95.88 6.12 3.62 7.63 6.78 4.06 15.08 3.93 22.74 4.56 12.37-.24 24.9.95 37.12-1.62 8.41-1.14 16.37-5.11 22.35-11.13 7.46-7.16 12.24-16.46 17.62-25.15 110.52-193.85 220.93-387.76 331.43-581.62 7.14-12.6 14.63-25.05 20.57-38.28 3.38-7.88 6.26-16.46 4.94-25.15-1.14-10.61-6.45-20.03-11.13-29.41-9.35-17.48-19.68-34.42-29.24-51.79-104.24-183.08-208.48-366.16-312.68-549.26-7.41-12.4-13.94-26.05-25.57-35.14-7.42-6.09-17.25-7.51-26.46-8.69-10.63-.58-21.29-.11-31.94-.25-224.64.0-449.29.0-673.93.0-5.17.02-10.36-.21-15.5.4z"/><path d="m1226.59 559.08c9.77-.83 19.59-.16 29.39-.37 32.01-.01 64.02.0 96.03.0 9.66.12 19.35-.47 28.98.68 21.36 1.57 43.43 7.29 59.91 21.65 6.38 6.27 13.02 12.4 18.09 19.83 10.3 14.75 19 30.54 27.82 46.2 9.39 15.42 17.67 31.47 26.92 46.97 8.08 14.7 17.11 28.92 23.56 44.46 4.22 10.01 7.94 20.54 8.17 31.53.54 9.96.07 20.32-4.27 29.49-6.06 14.8-19.48 25.57-34.2 31.09-10.17 4.03-21.18 4.91-31.96 6.05-9.63 1.17-19.34.39-29 .68-10.11.1-20.15-1.42-30.16-2.63-18.81-3.02-36.89-11.64-50.28-25.33-5.22-5.81-10.21-11.85-14.5-18.38-6.99-10.03-12.2-21.44-20.95-30.15-5.28-5.64-12.69-8.79-20.17-10.19-8.44-.98-17.36-.9-25.21 2.78-6.93 2.64-12.08 8.26-16.6 13.92-6.15 7.72-10.27 16.78-16.19 24.66-7.81 11.51-17.59 21.81-29.15 29.6-11.38 7.28-24.46 11.75-37.83 13.5-9.65 1.09-19.31 2.46-29.04 2.2-8.07-.21-16.17.4-24.21-.48-9.61-1.04-19.36-1.56-28.65-4.42-14.32-4.1-28-12.47-35.86-25.44-5.34-9.02-8.86-19.45-8.62-30.02-.6-20.59 8.31-39.89 17.9-57.6 7.73-13.9 15.69-27.67 23.52-41.51 9.1-15.35 17.34-31.19 26.56-46.47 8.52-14.99 17.22-30.12 29-42.85 12.75-13.55 29.77-23.15 48.13-26.42 7.53-1.64 15.19-2.46 22.87-3.03m-3.55 28.86c-14.61 2.13-29.46 6.64-40.9 16.35-13.53 11.12-22.23 26.63-31.07 41.44-10.77 18.62-21.25 37.39-31.99 56.02-7.76 13.65-15.77 27.22-22 41.66-3.13 7.51-5.25 15.48-6.45 23.53-1.14 6.88 2.82 13.03 3.51 19.72-.5.82-.99 1.66-1.47 2.49.91-.03 2.73-.08 3.64-.11 4.15 5.28 9.22 9.94 15.4 12.73 11.02 5.1 23.29 6.43 35.25 7.53 8.66.69 17.29-.56 25.9-1.35 7.07-.93 13.94-2.97 20.78-4.95 16.08-5.66 28.57-18.3 37.91-32.19 9.58-13.7 16.97-29.66 30.89-39.66 9.05-6.71 20.5-8.92 31.56-8.8 11.23.28 22.69-.92 33.67 2.07 6.54 2.01 12.83 5.2 17.86 9.92 8.61 7.8 14.66 17.84 20.86 27.54 8.23 13.07 17.31 26.38 30.7 34.66 15.05 9.79 33.4 12 50.92 12.91 7.91.32 15.74-.96 23.6-1.65 6.55-.52 12.74-2.89 18.91-5.01 7.28-2.64 13.17-7.92 18.06-13.8.96-.02 2.89-.05 3.85-.07-.42-.48-1.27-1.45-1.69-1.93.06-.24.2-.72.27-.96.11-1.62-.29-3.26.52-4.74 1.73-3.88 2.12-8.12 2.39-12.3-.21-2.33-.38-4.66-.71-6.96-3.51-16.19-11.33-30.97-19.37-45.3-11.01-19.87-22.55-39.45-33.62-59.29-7.22-12.32-14.17-24.83-22.54-36.43-8.77-11.97-20.08-22.78-34.39-27.62-12.15-4.86-25.32-5.79-38.22-6.79-40.03-.03-80.07.02-120.1-.02-7.35-.32-14.61 1.01-21.93 1.36z"/><path d="m628.39 566.66c16.22-.52 32.47-.06 48.7-.21 27.96-.02 55.93.02 83.89-.03 5.36.02 10.66.9 16.02 1.03 9.14.11 18.13 2.23 26.86 4.81 13.15 3.84 24.68 11.94 34.35 21.49 12.82 13.47 21.86 29.89 31.07 45.9 10.25 17.19 19.55 34.94 29.81 52.12 10.16 18.42 21.65 36.26 28.92 56.09 4.52 13.3 6.57 28.03 2.48 41.71-3.2 11.78-11.41 21.89-21.75 28.23-8.2 5.22-17.71 7.84-27.16 9.69-15.07 2.36-30.36 2.26-45.56 2-15.35-.91-31.06-2.77-45.06-9.53-11.73-5.44-21.52-14.21-29.95-23.86-9.14-10.88-15.68-23.59-23.96-35.09-5.13-6.63-11.56-12.76-19.66-15.48-13.49-4.37-28.51-4.11-41.71 1.14-10.72 4.82-17.37 15.05-23.36 24.67-9.32 14.82-19.03 30.1-33.5 40.45-18.02 14.01-41.6 17.42-63.79 17.8-18.46.11-37.4.25-55.13-5.64-13.66-4.59-26.47-13.83-32.39-27.32-5.93-12.4-6.11-26.76-2.62-39.87 5.24-20.01 16.06-37.86 26.36-55.57 8.43-14.9 16.57-29.95 25.38-44.63 9.98-17.74 19.87-35.61 31.72-52.19 9.08-11.26 19.7-21.79 32.96-28.01 11.79-5.5 24.73-8.57 37.74-8.96 3.12-.15 6.22-.5 9.34-.74m6.66 21.9c-13.36-.52-26.82 1.52-39.32 6.29-10.47 4.21-19.72 11.2-27 19.78-10.45 12.35-18.21 26.63-26.34 40.54-9.19 16.15-18.53 32.21-27.58 48.44-9.18 16.19-19.01 32.26-24.73 50.1-2.75 9.9-3.78 20.94.86 30.46-.96 1.73-2.08 3.37-3.27 4.97 3.06-.04 6.12-.01 9.18-.08 4.18 6.95 11.82 10.58 19.16 13.24 7 2.74 14.58 3.08 21.96 4.01 14.14.74 28.4.24 42.29-2.65 12.28-3.25 24.01-9.29 32.81-18.58 14.52-13.81 22-32.98 34.96-48.03 8.69-10.14 21.76-16.02 34.99-16.82 11.99-1.41 24.15-.89 36.1.68 9.15 1.81 18.11 5.59 24.89 12.15 11.92 11.24 18.75 26.46 28.49 39.42 7.31 10.65 16.89 19.96 28.66 25.53 16.61 8.35 35.68 8.98 53.89 8.45 10.18-.8 20.6-1.83 29.94-6.3 5.38-2.7 10.94-5.82 14.17-11.1 2.72.06 5.44.05 8.16.08-.87-1.5-1.7-3.01-2.54-4.51 1.75-5.36 3.2-10.89 2.79-16.58.56-7.7-2.54-14.89-4.9-22.03-5.92-15.78-15.1-30.02-23.24-44.7-13.5-23.46-26.51-47.21-40.63-70.31-7.8-12.04-16.9-23.8-29.39-31.27-10.18-5.97-21.73-9.52-33.47-10.48-8.51-1.56-17.18.02-25.69-1.27-5.41-.77-10.87-.4-16.3-.44-27.64-.03-55.27.05-82.91-.04-5.36.02-10.63 1.3-15.99 1.05z"/><path d="m891.44 1015.42c5.05.16 10.42-.76 15.11 1.64 2.99 1.62 7.33 2.97 8 6.78 1.32 6.85-3.31 12.51-6.49 18.07-10.32 16.16-20.1 32.67-29.57 49.35-7.93 14.49-16.71 28.77-21.13 44.83-5.67 16.93-2.81 35.57 4.22 51.64 7.78 17.84 17.97 34.45 27.61 51.31 9.33 15.3 18.56 31.68 33.76 41.95 16.39 11.77 37.45 14.14 57.1 13.48 13.25 1.43 26.67 1.48 39.92.0 12.1.27 24.42-.11 36.07-3.74 15.6-3.92 29.28-14.06 38.65-27 10.38-13.72 18.54-28.92 27.14-43.77 8.79-16.13 18.57-32.22 22.44-50.39 2.27-12.11 1.75-24.95-2.53-36.57-5.74-17.59-15.73-33.29-24.6-49.39-9.14-16.34-19.4-32.02-28.98-48.1-2.56-3.89-3.73-8.87-2.27-13.36 4.49-4.76 11.34-7.25 17.86-6.75 5.68.28 11.63-.82 17.06 1.37 5.77 2.27 11.55 4.9 16.19 9.12 8.69 7.76 14.52 18.02 20.49 27.88 28.8 49.9 57.31 99.98 85.76 150.09 4.17 7.97 8.77 15.77 12.04 24.18 2.63 6.99 5.07 14.37 4.2 21.96-.33 9.61-4.15 18.58-8.27 27.11-8.38 16.36-17.8 32.14-26.77 48.17-21.02 36.69-41.82 73.48-62.8 110.19-8.34 13.93-16.03 29.09-29.6 38.73-7.52 4.78-16.17 8.05-25.12 8.53-10.26 1.4-20.63.61-30.94.82-57.98-.02-115.96.03-173.94-.03-9.1-.81-18.59-1.21-26.91-5.41-9.91-4.16-17.35-12.42-23.53-20.94-9.8-14.83-18.22-30.51-27.07-45.9-19.53-34.42-39.16-68.78-58.76-103.16-8.1-14.84-17.43-29.2-22.9-45.3-3.67-9.97-3.32-21.25.48-31.12 6.01-16.36 15.51-31.08 23.82-46.32 24.62-43.05 49.15-86.15 73.85-129.14 6.2-10.54 12.35-21.42 21.41-29.81 4.89-4.71 11.14-7.64 17.46-9.91 3.68-1.39 7.67-1.09 11.54-1.09m-84.86 166.3c-9.02 13.05-16.48 27.11-24.19 40.96-3.93 8.28-8.55 16.9-8.23 26.33.11 5.91 2.45 11.45 4.77 16.79 4.51 10.43 10.62 20.05 15.99 30.04 9.24 15.25 17.53 31.04 26.53 46.42 8.28 13.84 15.62 28.22 24 42.01 9.14 15.34 17.11 31.36 26.62 46.48 4.59 6.71 9.69 13.74 17.42 17.04 12.04 5.45 25.62 4.99 38.54 4.96 51.97-.01 103.94.0 155.9.0 10.47-.44 21.52-1.34 30.58-7.13 7.41-4.72 11.79-12.62 16.48-19.79 5.45-9.84 10.98-19.63 16.77-29.28 22.53-40.38 45.99-80.23 68.38-120.7 4.36-8.06 8.73-16.49 9.56-25.78.53-5.36-.79-10.68-2.73-15.63-4.46-11.36-11.13-21.64-16.89-32.35-3.72-6.52-7.61-12.95-11.81-19.17-3.04-4.27-6.63-9.37-12.55-9.03-6.59 7.68-9.83 17.4-13.81 26.53-3.58 8.33-8.28 16.11-12.63 24.05-8.21 15.01-16.77 29.82-25.41 44.59-9.1 14.59-19.5 28.82-33.57 39.01-14.61 10.54-32.52 15.74-50.35 16.97-7.97.44-15.91 1.57-23.91 1.24-26.18-.42-52.5 1.28-78.51-2.39-18.72-3.14-37.21-10.99-50.44-24.92-12.14-11.26-20.33-25.86-28.87-39.85-8.05-14.9-17.16-29.19-24.88-44.26-6.36-11.05-10.64-23.11-16.32-34.49-1.39-2.88-3.71-5.64-7.02-6.19-4.17.76-6.97 4.37-9.42 7.54z"/></g><g fill="#fed701"><path d="m1594.46 110.98c9.49-.81 19.03-.18 28.55-.37 26.35.03 52.7-.04 79.05.03 9.6.94 19.52.47 28.71 3.88 8.25 2.68 14.64 9.02 19.9 15.68 10.51 14.64 18.42 30.89 27.59 46.36 23.42 40.94 46.63 82 70.13 122.9 5.2 9.83 11.43 19.19 15.1 29.75 2.94 7.57 3.84 15.94 2.32 23.92-2.05 9.25-6.44 17.73-10.88 26.02-13.54 24.07-27.22 48.05-40.93 72.02-6.89 11.39-12.65 23.52-20.81 34.1-2.9 3.75-6.73 7.3-11.59 8.02-3.63.08-6.9-2.17-9.21-4.78-5.39-6.22-8.23-14.37-8.79-22.51-.48-9.12 2.57-18.01 6.58-26.08 9.52-19.2 21.65-37.06 30.1-56.81 7.13-16.34 11.91-34.84 7.52-52.57-2.62-15.94-10.63-30.15-17.88-44.34-8.83-16.07-18.29-31.78-27.16-47.82-9.55-15.76-17.69-32.43-28.96-47.08-10.13-13.95-24.17-25.34-40.68-30.72-8.36-3.14-17.25-4.38-26.09-5.14-18.95-2.48-38.12.25-57.08-1.87-10.32-.15-21.25-1.55-29.84-7.73-6.02-4.74-10.8-11.26-13.04-18.62-1.24-3.91-.75-8.78 2.88-11.27 7.01-5.41 16.27-3.96 24.51-4.97z"/><path d="m638.56 112.13c5.14-.61 10.33-.38 15.5-.4h673.93c10.65.14 21.31-.33 31.94.25 9.21 1.18 19.04 2.6 26.46 8.69 11.63 9.09 18.16 22.74 25.57 35.14 104.2 183.1 208.44 366.18 312.68 549.26 9.56 17.37 19.89 34.31 29.24 51.79 4.68 9.38 9.99 18.8 11.13 29.41 1.32 8.69-1.56 17.27-4.94 25.15-5.94 13.23-13.43 25.68-20.57 38.28-110.5 193.86-220.91 387.77-331.43 581.62-5.38 8.69-10.16 17.99-17.62 25.15-5.98 6.02-13.94 9.99-22.35 11.13-12.22 2.57-24.75 1.38-37.12 1.62-7.66-.63-15.96-.5-22.74-4.56-2.74-1.51-3.76-4.68-3.62-7.63-.47-9.97 5.46-18.48 9.58-27.09 19.05-33.3 37.93-66.72 56.99-100.02 9.99-18.03 20.96-35.69 28.09-55.13 3.65-11.7 5.76-24.15 3.95-36.38-1.95-15.76-8.83-30.27-16.3-44.07-8.09-15.08-16.7-29.87-25.26-44.67-19.65-34.95-39.72-69.66-59.44-104.56-16.92-29.44-33.52-59.07-50.6-88.42-8.33-15.02-16.8-30.1-27.68-43.45-12.09-15.15-29.97-25.26-48.91-28.9-8.51-1.97-17.27-1.97-25.94-2.44-9.33-1.08-18.71-.51-28.07-.63-82.68.0-165.35-.01-248.03.0-7.69-.09-15.38-.16-23.03.71-7.48.31-14.99.42-22.34 1.95-20 2.97-38.88 13.51-51.57 29.29-11.13 13.44-19.38 28.89-28.1 43.92-37.05 64.98-74.1 129.96-111.09 194.97-10.01 17.77-20.57 35.24-29.66 53.51-5.14 11.18-9.58 22.95-10.75 35.29-1.63 15.38 2.42 30.7 8.62 44.67 7.92 17.81 18.31 34.36 27.8 51.35 9.09 16.45 18.68 32.62 27.87 49.03 9.02 16.26 18.71 32.15 27.43 48.58 3.08 6.22 6.29 12.54 7.53 19.44.99 5.05-1.72 11.01-6.98 12.36-12.21 3.7-25.11 2.76-37.69 2.91-7.6.31-15.13-.86-22.55-2.33-7.43-1.53-14.2-5.58-19.45-11.01-6.28-6.25-10.77-13.96-15.26-21.53-20.13-34.61-39.58-69.62-59.59-104.31-35.2-61.8-70.4-123.6-105.6-185.4-9.43-15.99-18.1-32.42-27.62-48.36-5.46-9.6-10.7-19.32-16.34-28.8-7.19-11.9-13.58-24.25-20.66-36.2-38.29-67.39-76.85-134.62-115.04-202.06-6-11.47-13.05-23.03-14.12-36.23-.59-9.17 2.49-18.12 6.26-26.34 8.82-17.5 19.01-34.25 28.4-51.44 9.99-16.55 18.92-33.7 28.81-50.3 19.57-34.95 39.72-69.57 59.37-104.47 36.02-63.03 71.75-126.22 107.82-189.22 9.26-16.96 19.25-33.51 28.64-50.39 25.6-45.06 51.36-90.03 76.86-135.15 9.66-16.35 18.41-33.25 28.67-49.25 5.05-7.55 11.04-14.99 19.27-19.19 6.1-3.11 12.96-4.15 19.65-5.14m338.92 39.59c-35.02 3.76-69.03 16.59-97.73 37.01-41.04 29.12-71.42 73.22-82.67 122.39-10.57 44.43-5.97 92.32 12.97 133.89 23.61 52.23 69.6 93.95 124.12 111.83 29.78 9.95 61.83 12.94 92.95 8.88 40.45-5.24 79.39-22.62 109.86-49.79 27.97-24.24 49.36-56.06 60.91-91.25 14.02-42.02 14.1-88.54.24-130.62-11.4-35.03-32.43-66.85-60.16-91.09-42.92-38.97-102.99-57.67-160.49-51.25m249.11 407.36c-7.68.57-15.34 1.39-22.87 3.03-18.36 3.27-35.38 12.87-48.13 26.42-11.78 12.73-20.48 27.86-29 42.85-9.22 15.28-17.46 31.12-26.56 46.47-7.83 13.84-15.79 27.61-23.52 41.51-9.59 17.71-18.5 37.01-17.9 57.6-.24 10.57 3.28 21 8.62 30.02 7.86 12.97 21.54 21.34 35.86 25.44 9.29 2.86 19.04 3.38 28.65 4.42 8.04.88 16.14.27 24.21.48 9.73.26 19.39-1.11 29.04-2.2 13.37-1.75 26.45-6.22 37.83-13.5 11.56-7.79 21.34-18.09 29.15-29.6 5.92-7.88 10.04-16.94 16.19-24.66 4.52-5.66 9.67-11.28 16.6-13.92 7.85-3.68 16.77-3.76 25.21-2.78 7.48 1.4 14.89 4.55 20.17 10.19 8.75 8.71 13.96 20.12 20.95 30.15 4.29 6.53 9.28 12.57 14.5 18.38 13.39 13.69 31.47 22.31 50.28 25.33 10.01 1.21 20.05 2.73 30.16 2.63 9.66-.29 19.37.49 29-.68 10.78-1.14 21.79-2.02 31.96-6.05 14.72-5.52 28.14-16.29 34.2-31.09 4.34-9.17 4.81-19.53 4.27-29.49-.23-10.99-3.95-21.52-8.17-31.53-6.45-15.54-15.48-29.76-23.56-44.46-9.25-15.5-17.53-31.55-26.92-46.97-8.82-15.66-17.52-31.45-27.82-46.2-5.07-7.43-11.71-13.56-18.09-19.83-16.48-14.36-38.55-20.08-59.91-21.65-9.63-1.15-19.32-.56-28.98-.68-32.01.0-64.02-.01-96.03.0-9.8.21-19.62-.46-29.39.37m-598.2 7.58c-3.12.24-6.22.59-9.34.74-13.01.39-25.95 3.46-37.74 8.96-13.26 6.22-23.88 16.75-32.96 28.01-11.85 16.58-21.74 34.45-31.72 52.19-8.81 14.68-16.95 29.73-25.38 44.63-10.3 17.71-21.12 35.56-26.36 55.57-3.49 13.11-3.31 27.47 2.62 39.87 5.92 13.49 18.73 22.73 32.39 27.32 17.73 5.89 36.67 5.75 55.13 5.64 22.19-.38 45.77-3.79 63.79-17.8 14.47-10.35 24.18-25.63 33.5-40.45 5.99-9.62 12.64-19.85 23.36-24.67 13.2-5.25 28.22-5.51 41.71-1.14 8.1 2.72 14.53 8.85 19.66 15.48 8.28 11.5 14.82 24.21 23.96 35.09 8.43 9.65 18.22 18.42 29.95 23.86 14 6.76 29.71 8.62 45.06 9.53 15.2.26 30.49.36 45.56-2 9.45-1.85 18.96-4.47 27.16-9.69 10.34-6.34 18.55-16.45 21.75-28.23 4.09-13.68 2.04-28.41-2.48-41.71-7.27-19.83-18.76-37.67-28.92-56.09-10.26-17.18-19.56-34.93-29.81-52.12-9.21-16.01-18.25-32.43-31.07-45.9-9.67-9.55-21.2-17.65-34.35-21.49-8.73-2.58-17.72-4.7-26.86-4.81-5.36-.13-10.66-1.01-16.02-1.03-27.96.05-55.93.01-83.89.03-16.23.15-32.48-.31-48.7.21z"/><path d="m290.31 115.27c9.2-1.13 18.47-.53 27.7-.56 16.64.13 33.31-.59 49.93.4 15.79-.81 31.76-1.1 47.4 1.58 3.57.78 7.57 2.08 9.58 5.37 1.88 4.49.37 9.7-2.35 13.52-5.34 7.83-14.73 11.97-23.93 12.9-8.89.72-17.73 2.27-26.68 1.96-7.34.25-14.65-1.03-21.99-.47-9.33.58-18.66 1.27-27.95 2.28-14.24 2.15-28.23 7.29-39.79 16-11.36 8.69-20.39 20.03-27.87 32.14-12.84 20.75-24.52 42.18-36.77 63.28-5.83 10.8-12.31 21.24-17.58 32.34-9.17 16.85-14.99 36.11-13.56 55.41 1.44 20.92 11.41 39.8 21.3 57.83 4.53 8.7 10.03 16.86 14.27 25.71 4.64 8.75 9.41 17.98 9.68 28.09-.01 6.08-2.03 12.17-5.55 17.11-2.46 3.38-7.16 5.78-11.23 3.86-4.51-2.32-7.45-6.67-10.35-10.67-4.36-6.39-8.32-13.05-12.02-19.84-10.14-17.88-20.53-35.6-30.47-53.59-7.34-12.51-14.82-25-20.6-38.33-2.12-6.24-4.17-12.85-3.54-19.51 2.02-12.53 8.3-23.79 14.54-34.66 11.88-21.64 24.58-42.82 36.46-64.46 8.63-14.18 16.37-28.87 24.69-43.23 8.58-14.53 16.57-29.39 25.14-43.93 6.86-11.43 12.81-24.13 23.77-32.31 7.9-6.08 18.1-7.59 27.77-8.22z"/><path d="m982.51 226.75c29.31-3.91 59.92 2.16 85.3 17.4 21.9 12.81 39.87 32.14 51.29 54.77 12.2 23.88 16.71 51.52 13.08 78.07-3.01 23.06-12.4 45.2-26.64 63.56-13.06 17.18-30.59 30.82-50.16 39.83-26.67 12.32-57.48 15.2-86.04 8.48-34.45-8.03-65.32-30.44-83.46-60.84-18.94-30.69-24.17-69.31-14.61-104.04 9.66-36.31 35.64-67.81 69.33-84.41 13.11-6.59 27.35-10.95 41.91-12.82z"/><path d="m806.58 1181.72c2.45-3.17 5.25-6.78 9.42-7.54 3.31.55 5.63 3.31 7.02 6.19 5.68 11.38 9.96 23.44 16.32 34.49 7.72 15.07 16.83 29.36 24.88 44.26 8.54 13.99 16.73 28.59 28.87 39.85 13.23 13.93 31.72 21.78 50.44 24.92 26.01 3.67 52.33 1.97 78.51 2.39 8 .33 15.94-.8 23.91-1.24 17.83-1.23 35.74-6.43 50.35-16.97 14.07-10.19 24.47-24.42 33.57-39.01 8.64-14.77 17.2-29.58 25.41-44.59 4.35-7.94 9.05-15.72 12.63-24.05 3.98-9.13 7.22-18.85 13.81-26.53 5.92-.34 9.51 4.76 12.55 9.03 4.2 6.22 8.09 12.65 11.81 19.17 5.76 10.71 12.43 20.99 16.89 32.35 1.94 4.95 3.26 10.27 2.73 15.63-.83 9.29-5.2 17.72-9.56 25.78-22.39 40.47-45.85 80.32-68.38 120.7-5.79 9.65-11.32 19.44-16.77 29.28-4.69 7.17-9.07 15.07-16.48 19.79-9.06 5.79-20.11 6.69-30.58 7.13-51.96.0-103.93-.01-155.9.0-12.92.03-26.5.49-38.54-4.96-7.73-3.3-12.83-10.33-17.42-17.04-9.51-15.12-17.48-31.14-26.62-46.48-8.38-13.79-15.72-28.17-24-42.01-9-15.38-17.29-31.17-26.53-46.42-5.37-9.99-11.48-19.61-15.99-30.04-2.32-5.34-4.66-10.88-4.77-16.79-.32-9.43 4.3-18.05 8.23-26.33 7.71-13.85 15.17-27.91 24.19-40.96z"/></g></svg>