<svg height="2108" viewBox="0 0 2e3 1581" width="2e3pt" xmlns="http://www.w3.org/2000/svg"><g fill="#361142"><path d="m197.59.0h1605c65.51 114.76 130.73 229.67 196.27 344.41-3.03 7.97-8.08 14.93-12.06 22.43-42.1 73.9-84.2 147.8-126.25 221.73-12.68 22.11-25.32 44.23-37.71 66.49 26.17 44.6 50.96 90 77.16 134.57-.03.41-.11 1.25-.14 1.67-42.4 73.92-84.34 148.13-126.66 222.11-61.92 108.96-124.06 217.8-186 326.75-20.9 36.42-41.46 73.04-62.41 109.43-19.83 35.23-40.11 70.21-59.93 105.44-5.2 8.58-9.6 17.66-15.24 25.97H550.24c-6.13-9.81-11.57-20.04-17.38-30.04-95.64-168.01-191.33-336-287-504-48.59-85.21-96.98-170.55-145.72-255.66-.03-.42-.11-1.26-.14-1.68 26.21-44.56 50.99-89.97 77.16-134.56-13.91-25-28.15-49.82-42.37-74.65-19.96-35.39-40.32-70.57-60.24-105.98-23.74-41.26-47.01-82.78-70.79-124.02-1.03-1.91-1.81-3.95-2.64-5.95 6.54-11.26 12.92-22.61 19.43-33.89 19.89-35.43 40.34-70.55 60.24-105.98 19.62-34.06 38.83-68.35 58.41-102.43 19.5-34.03 38.59-68.31 58.39-102.16m41.57 75.69c-1.29 2.93-2.73 5.8-4.52 8.46-5.67 8.56-10.76 17.49-15.9 26.38-39.6 69.41-79.16 138.85-118.62 208.34-4.99 10.62-4.73 22.7-4.66 34.17-.07 3.24 1.6 6.16 1.92 9.35.18 6.4 4.37 11.61 7.21 17.08 10.11 18.22 21.04 36 30.6 54.51 15.83 26.96 31.03 54.29 46.58 81.41 6.41 11.48 13.43 22.63 19.53 34.28.87-.11 2.59-.33 3.46-.44-.13.6-.39 1.81-.51 2.42 1.84-.04 3.69-.05 5.54-.02 3.3 1.68 7.1.65 10.64.91 5.06.43 9.67-2.25 14.71-2.17.98-1.18 1.96-2.36 2.82-3.62 14.47-24.84 28.72-49.81 42.64-74.96 1.17-2.38 2.46-4.71 4.15-6.75-5.23-10.49-11.15-20.66-16.95-30.84-15.31-26.75-30.6-53.51-45.59-80.44-1.45-2.93-3.79-5.5-4.54-8.72.58-2.24 2.04-4.1 3.13-6.1 27.01-48.19 54.54-96.1 81.99-144.05 1.01-1.8 2.17-3.5 3.35-5.19 33.72-.13 67.43-.14 101.15-.18 8.64-1.3 17.02-4.31 24.76-8.37 10.2-4.7 19.25-12 26-20.97 8.26-14.12 16.3-28.38 24.09-42.75 3.36-4.34 2.83-10.29 1.25-15.22-1.58-4.73-3.08-9.63-6.19-13.61-2.94-3.98-6.96-6.97-11.05-9.67-2.47-1.59-4.96-3.75-8.1-3.43-72.96.01-145.93-.29-218.89.19m1292.86 6.31c-7.58 4.52-11.49 12.93-14.22 20.95-.52 4.74-.56 9.63.0 14.36 9.75 18.12 20.03 35.97 30.53 53.67 3.53 6.16 8.01 11.78 10.84 18.34 44.91.4 89.82.12 134.74.4.98 1.47 1.99 2.95 2.9 4.49 9.13 16.17 18.68 32.1 27.65 48.37 19.34 33.8 38.75 67.57 57.64 101.61.6 2.84-2.07 5.11-3.15 7.56-15.43 27.57-31.04 55.04-46.75 82.46-1.4 1.97-2.56 4.09-3.62 6.26-4.26 8.29-9.57 16.06-13.3 24.61.65.86 1.29 1.76 1.92 2.68 14.6 26.63 29.73 52.98 44.97 79.25 2.55 4.23 7.65 5.54 12.29 5.57l.08 1.01c7.64.22 15.19-1.25 22.75-2.22 23.09-38.79 44.66-78.47 67.52-117.39 1.93-4.28 4.39-8.29 6.62-12.42 11.08-19.59 22.44-39.02 33.26-58.75 3.24-5.7 5.79-11.79 9.59-17.16-4.23-7.53-8.01-15.3-12.27-22.81-22.32-39.93-45.26-79.52-67.72-119.37-20.51-35.56-40.45-71.44-61.16-106.88-3.91-7.09-9.19-13.4-12.28-20.92-71.29-.45-142.57-.14-213.86-.21-5.8-.5-10.27 3.87-14.97 6.54m-936.97-3.3c-4.64 8.88-10.46 17.07-15.41 25.78-11.69 20.02-23.23 40.12-34.54 60.36-21.45 37.32-42.53 74.84-63.96 112.17-18.45 32.8-37.35 65.35-55.8 98.15-11.09 19.69-22.7 39.1-33.38 59.01h-.36c-58.49 102.34-116.62 204.89-175.04 307.28-9.24 16.19-18.02 32.66-27.65 48.61 1.36 4.28 3.9 8.01 6.08 11.9 2.41 3.83 4.05 8.16 7.03 11.63 1.51 4.07 4.25 7.54 6.19 11.41 51.59 90.7 103.26 181.36 154.97 272 9.78 16.91 19.09 34.09 29.06 50.9 1.19 1.82 2.35 3.67 3.43 5.58 29.96 52.67 60.03 105.29 89.97 157.98 32.17 56.18 63.97 112.58 96.29 168.68 4.06 7.6 9.67 14.31 13.23 22.19 40.63.4 81.26.17 121.9.19 1.8.04 3.65-.23 5.19-1.26 4.65-2.85 9.86-5.35 12.9-10.11 5.68-7.61 10.2-17.57 7.75-27.16-31.28-55.64-63.07-110.99-94.55-166.51-9.26-16.46-18.96-32.76-27.64-49.48 17.99-33.73 37.84-66.56 56.34-100.04h.48c42.32-74.5 84.88-148.89 127.24-223.37 1.37-2.09 2.69-4.22 3.53-6.58l.14-.02c.61-1.16 1.23-2.31 1.88-3.44.41.09 1.24.27 1.66.36 114.99.11 229.99-.11 344.98.08 10.36-.18 20.74.42 31.08-.31 1.9.11 2.95 1.64 3.56 3.32l.11.01c.8 2.38 2.13 4.52 3.54 6.59 21.75 38.28 43.54 76.54 65.42 114.74 20.43 36.3 41.35 72.34 61.81 108.62h.47c18.48 33.17 37.8 65.89 56.08 99.16.72 1.35-.58 2.66-1.06 3.87-33.99 60.24-68.35 120.28-102.52 180.42-3.46 6.64-7.95 12.77-10.58 19.81-2.27 5.32-1.17 11.18-1.45 16.78-.17 3.27.17 6.6 1.58 9.61 4.02 11.15 14.38 19.04 25.5 22.32 3.39 1.06 6.72 2.68 10.37 2.63 34.65-.06 69.31.14 103.97-.24 1.32-2.96 2.87-5.83 4.71-8.5 5.13-7.66 9.69-15.68 14.32-23.64 42.06-73.73 84.05-147.49 126.08-221.24 19.42-33.59 38.1-67.63 57.82-101.04 39.02-68.08 77.67-136.38 116.66-204.48 20.37-36.48 41.69-72.44 61.82-109.04 2.87-3.71 4.73-8.07 7.19-12.05 5.32-9.32 10.59-18.68 15.93-27.99.56-1.47 1.93-3.12 1.27-4.71-47.53-84.16-95.56-168.03-143.27-252.09-19.76-34.4-39.17-69-58.97-103.38l-.36.01c-3.29-6.42-6.92-12.67-10.48-18.93-40.45-70.9-80.82-141.84-121.16-212.79-19.02-33.04-37.49-66.39-56.79-99.26-4.76-8.24-10.28-16.04-14.67-24.49-61.64-.5-123.3-.16-184.94-.26-157.66.0-315.31.0-472.96.0-50.66.08-101.33-.2-151.99.26m259.42 914.41c-6.74 13.17-15.13 25.49-21.64 38.76-22.3 38.5-44.26 77.23-66.1 115.99-11.31 20.24-22.83 40.36-34.25 60.54-3.38 6.28-7.7 12.2-9.49 19.2-1.18 6.4-1.28 12.94-2.31 19.36-.39 2.09.22 4.2.46 6.3.88 6.64.76 13.59 3.5 19.83 1.68 4.22 4.22 8.03 6.42 12 35.36 62.29 70.8 124.54 106.35 186.71 6.95 8.66 15.32 16.41 25.18 21.67 6.84 3.9 14.42 6.11 21.86 8.55 2.75.77 5.66.51 8.5.54 73.09.0 146.18.08 219.27-.04 14.57-2.92 28.79-9.28 39.8-19.45 4.01-4.28 8.86-7.93 11.74-13.15 15.74-28.16 32.14-55.94 47.83-84.12 20.83-36.25 41.4-72.64 62.05-108.98 5.16-8.73 4.16-19.16 5.76-28.79-.93-6.79-1.33-13.64-2.39-20.4-2.14-7.96-7.19-14.65-10.98-21.85-10.91-19.31-21.94-38.55-32.74-57.91-1.38-2.95-3.1-5.69-4.7-8.5-20.52-35.8-40.63-71.85-61.42-107.49-6.49-13.29-14.91-25.6-21.64-38.77-45.84-.24-91.67-.07-137.51-.1-51.19.04-102.37-.15-153.55.1z"/><path d="m592.15 606.86c70.46-.2 140.91-.34 211.37.07 13.78 23.82 27.59 47.63 41.05 71.63 20.94 36.76 42 73.44 62.52 110.44-6.1.05-12.2.13-18.29.04-29.23-.11-58.45.0-87.68-.05-17.13-29.04-33.24-58.7-50.82-87.47-35.02-.2-70.03-.23-105.05.02-13.76 23.84-27.31 47.83-40.89 71.78-2.97 5.23-6.19 10.33-8.83 15.74-26.86-.09-53.74-.14-80.61.03-8.99.15-17.98-.07-26.97-.09 8.88-14.6 16.95-29.69 25.49-44.49 22.39-39.61 44.88-79.16 67.62-118.58 3.72-6.34 6.95-12.98 11.09-19.07z"/><path d="m1196.47 606.92c70.46-.39 140.92-.26 211.38-.06 3.91 5.72 6.96 11.96 10.44 17.94 21.59 37.47 43.03 75.02 64.28 112.68 9.88 17.14 19.26 34.57 29.47 51.51-10.06.06-20.12.26-30.18.12-25.62-.15-51.26-.25-76.88.04l-.48.02c-4.93-9.78-10.98-18.95-16.08-28.65-11.54-19.59-21.86-39.93-34.31-58.97-34.96-.25-69.92-.27-104.87.01-10.12 18.01-20.74 35.74-30.91 53.71-6.71 11.25-12.74 22.9-19.67 34.02-1.85-.05-3.69-.11-5.52-.18-21.8-.18-43.6-.21-65.39.02-11.61.15-23.22-.06-34.83-.15 13.67-24.58 27.51-49.08 41.46-73.51 20.66-36.2 41.11-72.53 62.09-108.55z"/><path d="m932.24 1035.99c5.81-.01 11.62-.12 17.43-.04 33.56.08 67.12.07 100.67.0 5.8-.08 11.61.04 17.42.04 21.35 37.3 42.61 74.66 63.84 112.03 1.6 2.62 3.19 5.27 4.72 7.96-22.58 40.22-45.46 80.28-68.51 120.23-45.21.28-90.42.29-135.62.0-23.05-39.96-45.95-80.01-68.51-120.25 1.53-2.69 3.12-5.33 4.74-7.96 21.22-37.37 42.47-74.72 63.82-112.01z"/></g><g fill="#040105"><path d="m239.16 75.69c72.96-.48 145.93-.18 218.89-.19 3.14-.32 5.63 1.84 8.1 3.43 4.09 2.7 8.11 5.69 11.05 9.67 3.11 3.98 4.61 8.88 6.19 13.61 1.58 4.93 2.11 10.88-1.25 15.22-7.79 14.37-15.83 28.63-24.09 42.75-6.75 8.97-15.8 16.27-26 20.97-7.74 4.06-16.12 7.07-24.76 8.37-33.72.04-67.43.05-101.15.18-1.18 1.69-2.34 3.39-3.35 5.19-27.45 47.95-54.98 95.86-81.99 144.05-1.09 2-2.55 3.86-3.13 6.1.75 3.22 3.09 5.79 4.54 8.72 14.99 26.93 30.28 53.69 45.59 80.44-16.81-.22-33.62-.37-50.43-.18-11.01.06-22.02.07-33.03-.01-16.39-.25-32.78.16-49.15-.03-9.56-18.51-20.49-36.29-30.6-54.51-2.84-5.47-7.03-10.68-7.21-17.08-.32-3.19-1.99-6.11-1.92-9.35-.07-11.47-.33-23.55 4.66-34.17 39.46-69.49 79.02-138.93 118.62-208.34 5.14-8.89 10.23-17.82 15.9-26.38 1.79-2.66 3.23-5.53 4.52-8.46z"/><path d="m1532.02 82c4.7-2.67 9.17-7.04 14.97-6.54 71.29.07 142.57-.24 213.86.21 3.09 7.52 8.37 13.83 12.28 20.92 20.71 35.44 40.65 71.32 61.16 106.88 22.46 39.85 45.4 79.44 67.72 119.37 4.26 7.51 8.04 15.28 12.27 22.81-3.8 5.37-6.35 11.46-9.59 17.16-10.82 19.73-22.18 39.16-33.26 58.75-2.23 4.13-4.69 8.14-6.62 12.42-13.26.31-26.54-.32-39.8.04-17.07.08-34.13.05-51.19.01-13.88-.32-27.75.08-41.62.18 15.71-27.42 31.32-54.89 46.75-82.46 1.08-2.45 3.75-4.72 3.15-7.56-18.89-34.04-38.3-67.81-57.64-101.61-8.97-16.27-18.52-32.2-27.65-48.37-.91-1.54-1.92-3.02-2.9-4.49-44.92-.28-89.83.0-134.74-.4-2.83-6.56-7.31-12.18-10.84-18.34-10.5-17.7-20.78-35.55-30.53-53.67-.56-4.73-.52-9.62.0-14.36 2.73-8.02 6.64-16.43 14.22-20.95z"/><path d="m595.05 78.7c50.66-.46 101.33-.18 151.99-.26H1220c61.64.1 123.3-.24 184.94.26 4.39 8.45 9.91 16.25 14.67 24.49 19.3 32.87 37.77 66.22 56.79 99.26 40.34 70.95 80.71 141.89 121.16 212.79 3.56 6.26 7.19 12.51 10.48 18.93-10.55.02-21.09-.53-31.63-.11-226.82-.14-453.64-.02-680.45-.06-156.2.02-312.4-.05-468.6.05-11.8-.35-23.6.05-35.4.12 10.68-19.91 22.29-39.32 33.38-59.01 18.45-32.8 37.35-65.35 55.8-98.15 21.43-37.33 42.51-74.85 63.96-112.17 11.31-20.24 22.85-40.34 34.54-60.36 4.95-8.71 10.77-16.9 15.41-25.78z"/></g><g fill="#867c89"><path d="m135.19 433.98c16.37.19 32.76-.22 49.15.03 6.12 10.42 12.31 21.13 21.54 29.14 2.85 2.71 7.23 3.27 10.85 1.98 4.34-2.32 5.23-7.67 5.01-12.14.29-6.62-2.04-12.9-4.37-18.97 16.81-.19 33.62-.04 50.43.18 5.8 10.18 11.72 20.35 16.95 30.84-1.69 2.04-2.98 4.37-4.15 6.75-13.92 25.15-28.17 50.12-42.64 74.96-.86 1.26-1.84 2.44-2.82 3.62-5.04-.08-9.65 2.6-14.71 2.17-3.54-.26-7.34.77-10.64-.91-1.85-.03-3.7-.02-5.54.02.12-.61.38-1.82.51-2.42-.87.11-2.59.33-3.46.44-6.1-11.65-13.12-22.8-19.53-34.28-15.55-27.12-30.75-54.45-46.58-81.41z"/><path d="m391.6 434.17h.36c11.8-.07 23.6-.47 35.4-.12-3.04 7.3-7.33 13.97-11.12 20.9-45.82 80.21-91.61 160.43-137.13 240.81-8.34 14.98-17.12 29.72-25.23 44.83-7.8 15.18-16.16 30.97-16.49 48.45-4.66.11-9.31.21-13.97.06-7.97-.22-15.96-.23-23.9.58 1.38 7.9 2.25 15.88 2.5 23.91-2.98-3.47-4.62-7.8-7.03-11.63-2.18-3.89-4.72-7.62-6.08-11.9 9.63-15.95 18.41-32.42 27.65-48.61 58.42-102.39 116.55-204.94 175.04-307.28z"/><path d="m1576.41 434.06c10.54-.42 21.08.13 31.63.11l.36-.01c19.8 34.38 39.21 68.98 58.97 103.38 47.71 84.06 95.74 167.93 143.27 252.09.66 1.59-.71 3.24-1.27 4.71-5.34 9.31-10.61 18.67-15.93 27.99-2.46 3.98-4.32 8.34-7.19 12.05 5.59-14.4 11.78-29.35 10.32-45.14-7.31-.3-14.62-.32-21.92-.16-2.74.06-5.46.08-8.16.06-1.43-13.96-5.66-27.58-12.35-39.91-6.91-14.36-15.1-28.06-22.9-41.94-10.8-18.88-21.54-37.78-32.25-56.71-36.96-65.33-74.34-130.43-111.48-195.65-3.74-6.94-8.15-13.54-11.1-20.87z"/><path d="m1732.2 434.21c13.87-.1 27.74-.5 41.62-.18-3 9.8-6.56 19.95-5.03 30.36 1.01 6.49 3.95 13.54 10.23 16.52 4.54 1.59 9.73.43 13.59-2.34 6.47-4.49 10.92-11.18 15.4-17.51 6.12-8.74 10.7-18.43 17-27.04 13.26-.36 26.54.27 39.8-.04-22.86 38.92-44.43 78.6-67.52 117.39-7.56.97-15.11 2.44-22.75 2.22l-.08-1.01c-4.64-.03-9.74-1.34-12.29-5.57-15.24-26.27-30.37-52.62-44.97-79.25-.63-.92-1.27-1.82-1.92-2.68 3.73-8.55 9.04-16.32 13.3-24.61 1.06-2.17 2.22-4.29 3.62-6.26z"/><path d="m1217.23 568.11c13.7-3.08 27.81-3.18 41.74-4.41 28.01-.08 56.02.05 84.03-.06 5 .06 9.97.93 14.99.99 8.61.1 17.15 1.46 25.64 2.85 10.44 1.92 20.91 4.32 30.57 8.86 16.58 7.23 30.55 19.46 41.72 33.54 7.69 9.81 14.32 20.39 20.83 31.01 11.09 19 22.18 38.01 32.59 57.39 7.73 14.54 15.31 29.39 19.09 45.53 3.02 10.01 3.85 20.67 2.24 31.01-.99 4.68-2.17 9.33-2.62 14.11-5.34-.23-10.68-.1-16.01.06-10.21-16.94-19.59-34.37-29.47-51.51-21.25-37.66-42.69-75.21-64.28-112.68-3.48-5.98-6.53-12.22-10.44-17.94-70.46-.2-140.92-.33-211.38.06-20.98 36.02-41.43 72.35-62.09 108.55-13.95 24.43-27.79 48.93-41.46 73.51-5.41-.15-10.81-.26-16.2-.05-1.44-10.14-5.56-20.22-3.34-30.57 2.35-21.55 11.65-41.5 21.94-60.3 4.72-8.35 8.95-16.96 13.95-25.15 10.64-18.22 20.62-36.88 32.8-54.14 8.87-12.99 19.78-24.66 32.67-33.73 12.81-8.49 27.39-14.17 42.49-16.93z"/><path d="m611.38 577.11c17.26-3.69 34.99-4.97 52.62-4.64 27.35-.01 54.71-.02 82.06-.01 9.75.79 19.57 1.1 29.22 2.88 19.31 2.92 38.07 10.65 53.08 23.28 10.16 8.94 18.81 19.47 26.39 30.65 13.01 20.02 24.65 40.89 36.31 61.7 9.19 16.6 18.37 33.46 23.2 51.94 2.87 8.41 2.4 17.37 2.28 26.12-.19 7.08-2.79 13.83-6.16 19.97-.82.0-2.47.0-3.29.0-20.52-37-41.58-73.68-62.52-110.44-13.46-24-27.27-47.81-41.05-71.63-70.46-.41-140.91-.27-211.37-.07-4.14 6.09-7.37 12.73-11.09 19.07-22.74 39.42-45.23 78.97-67.62 118.58-8.54 14.8-16.61 29.89-25.49 44.49-.82.0-2.46.0-3.27.0-2.43-5.59-4.59-11.34-5.7-17.34-1.56-10.01-.31-20.23 2.6-29.88 5.44-20.33 16.19-38.63 26.22-56.95 15.85-26.99 30.03-55.45 51.22-78.8 8.66-8.27 18.22-15.88 29.16-20.91 7.41-3.49 15.17-6.32 23.2-8.01z"/><path d="m645.25 701.54c35.02-.25 70.03-.22 105.05-.02 17.58 28.77 33.69 58.43 50.82 87.47-3.68-.02-7.34.06-11.01.14-7.08.24-14.16-.27-21.24-.17-9.49-8.85-16.56-19.9-25.86-28.92-5.35-5.27-10.39-11.14-17.19-14.59-8.31-4.18-17.43-7.47-26.87-6.98-15.68-.69-31.33 6.04-42 17.49-11.05 9.99-18.76 23.03-29.85 32.98-9.68-.04-19.36.6-29.03.25-.64-.03-1.9-.09-2.54-.13 2.64-5.41 5.86-10.51 8.83-15.74 13.58-23.95 27.13-47.94 40.89-71.78z"/><path d="m1249.24 701.56c34.95-.28 69.91-.26 104.87-.01 12.45 19.04 22.77 39.38 34.31 58.97 5.1 9.7 11.15 18.87 16.08 28.65-9.57.37-19.15-.14-28.71-.16-7.03-7.3-13.74-14.9-20.05-22.81-8.74-10.44-18.44-20.98-31.43-26-5.7-2.22-11.82-3.04-17.82-4-6.75-1.14-13.47.73-20.06 1.97-13.65 2.88-24.64 12.4-33.54 22.66-8.63 9.4-15.87 20.14-25.83 28.24-9.47.02-18.93.35-28.4.22 6.93-11.12 12.96-22.77 19.67-34.02 10.17-17.97 20.79-35.7 30.91-53.71z"/><path d="m854.47 993.11c51.18-.25 102.36-.06 153.55-.1 45.84.03 91.67-.14 137.51.1 6.73 13.17 15.15 25.48 21.64 38.77-5.9-6.13-10.96-13.12-17.85-18.24-15.55-13.04-36.28-18.6-56.32-18.14-20.77 1.36-41.17 6.17-60.88 12.74-4.2 1.42-7.78 4.1-11.22 6.81 8.37 8.86 20.27 12.99 29.44 20.9-33.55.07-67.11.08-100.67.0 9.06-7.92 20.9-11.99 29.29-20.72-3.39-2.77-6.9-5.55-11.08-6.99-20.33-6.73-41.39-11.78-62.85-12.77-9.08-.21-18.09 1.56-26.88 3.64-10.97 3.09-21.07 8.93-29.68 16.35-5.86 4.83-10.39 10.97-15.64 16.41 6.51-13.27 14.9-25.59 21.64-38.76z"/></g><g fill="#a1a0a1"><path d="m184.34 434.01c11.01.08 22.02.07 33.03.01 2.33 6.07 4.66 12.35 4.37 18.97.22 4.47-.67 9.82-5.01 12.14-3.62 1.29-8 .73-10.85-1.98-9.23-8.01-15.42-18.72-21.54-29.14z"/><path d="m427.36 434.05c156.2-.1 312.4-.03 468.6-.05 226.81.04 453.63-.08 680.45.06 2.95 7.33 7.36 13.93 11.1 20.87 37.14 65.22 74.52 130.32 111.48 195.65 10.71 18.93 21.45 37.83 32.25 56.71 7.8 13.88 15.99 27.58 22.9 41.94 6.69 12.33 10.92 25.95 12.35 39.91-4.93-.11-9.87-.21-14.78-.06-73.56-.17-147.13-.1-220.69-.04-.74-.03-2.23-.09-2.97-.11.45-4.78 1.63-9.43 2.62-14.11 1.61-10.34.78-21-2.24-31.01-3.78-16.14-11.36-30.99-19.09-45.53-10.41-19.38-21.5-38.39-32.59-57.39-6.51-10.62-13.14-21.2-20.83-31.01-11.17-14.08-25.14-26.31-41.72-33.54-9.66-4.54-20.13-6.94-30.57-8.86-8.49-1.39-17.03-2.75-25.64-2.85-5.02-.06-9.99-.93-14.99-.99-28.01.11-56.02-.02-84.03.06-13.93 1.23-28.04 1.33-41.74 4.41-15.1 2.76-29.68 8.44-42.49 16.93-12.89 9.07-23.8 20.74-32.67 33.73-12.18 17.26-22.16 35.92-32.8 54.14-5 8.19-9.23 16.8-13.95 25.15-10.29 18.8-19.59 38.75-21.94 60.3-2.22 10.35 1.9 20.43 3.34 30.57-.69.03-2.05.08-2.74.11-49.21-.05-98.42-.1-147.63.02-5.33-.11-10.65-.04-15.97-.06 3.37-6.14 5.97-12.89 6.16-19.97.12-8.75.59-17.71-2.28-26.12-4.83-18.48-14.01-35.34-23.2-51.94-11.66-20.81-23.3-41.68-36.31-61.7-7.58-11.18-16.23-21.71-26.39-30.65-15.01-12.63-33.77-20.36-53.08-23.28-9.65-1.78-19.47-2.09-29.22-2.88-27.35-.01-54.71.0-82.06.01-17.63-.33-35.36.95-52.62 4.64-8.03 1.69-15.79 4.52-23.2 8.01-10.94 5.03-20.5 12.64-29.16 20.91-21.19 23.35-35.37 51.81-51.22 78.8-10.03 18.32-20.78 36.62-26.22 56.95-2.91 9.65-4.16 19.87-2.6 29.88 1.11 6 3.27 11.75 5.7 17.34-1.95.01-3.9.06-5.84.13-77.21-.24-154.44-.19-231.66-.04-3.26-.09-6.53-.12-9.79-.05.33-17.48 8.69-33.27 16.49-48.45 8.11-15.11 16.89-29.85 25.23-44.83 45.52-80.38 91.31-160.6 137.13-240.81 3.79-6.93 8.08-13.6 11.12-20.9z"/><path d="m1773.82 434.03c17.06.04 34.12.07 51.19-.01-6.3 8.61-10.88 18.3-17 27.04-4.48 6.33-8.93 13.02-15.4 17.51-3.86 2.77-9.05 3.93-13.59 2.34-6.28-2.98-9.22-10.03-10.23-16.52-1.53-10.41 2.03-20.56 5.03-30.36z"/><path d="m1286.43 738.17c6.59-1.24 13.31-3.11 20.06-1.97 6 .96 12.12 1.78 17.82 4 12.99 5.02 22.69 15.56 31.43 26 6.31 7.91 13.02 15.51 20.05 22.81-6.91.0-13.81-.06-20.71.05-35.37-.06-70.74-.06-106.1-.01-7.31-.09-14.62-.07-21.92.02 9.96-8.1 17.2-18.84 25.83-28.24 8.9-10.26 19.89-19.78 33.54-22.66z"/><path d="m656.95 755.96c10.67-11.45 26.32-18.18 42-17.49 9.44-.49 18.56 2.8 26.87 6.98 6.8 3.45 11.84 9.32 17.19 14.59 9.3 9.02 16.37 20.07 25.86 28.92-5.94.09-11.89-.02-17.83.09-38.7-.04-77.41-.09-116.11.11-2.62-.09-5.22-.18-7.83-.22 11.09-9.95 18.8-22.99 29.85-32.98z"/><path d="m199.52 789.68c7.94-.81 15.93-.8 23.9-.58.28 7-.95 14.29 1.78 20.98 5.01 16.75 13.82 31.95 22.17 47.21 34.02 60.24 68.43 120.26 102.66 180.39 19.78 34.83 39.84 69.51 59.43 104.45 1.2 2 2.56 3.92 3.94 5.82-7.06.11-14.11.05-21.16-.05-9.97-16.81-19.28-33.99-29.06-50.9-51.71-90.64-103.38-181.3-154.97-272-1.94-3.87-4.68-7.34-6.19-11.41-.25-8.03-1.12-16.01-2.5-23.91z"/><path d="m514.92 789.09c26.87-.17 53.75-.12 80.61-.03.64.04 1.9.1 2.54.13-12.08 8.77-27.24 12.69-42.06 12.37-5.95-.22-12.07.68-17.85-1.18-8.25-2.47-17.25-4.59-23.24-11.29z"/><path d="m790.11 789.13c3.67-.08 7.33-.16 11.01-.14 29.23.05 58.45-.06 87.68.05-3.13.42-5.43 2.68-7.82 4.51-4.81 3.8-10.79 5.55-16.44 7.7-3.12 1.21-6.39 2.03-9.74 2.18-5.64.24-11.1 3.32-16.78 1.63-4.79-1.51-9.84-1.52-14.71-2.58-8.3-2.42-16.81-4.69-24.23-9.27-2.82-1.69-5.57-3.85-8.97-4.08z"/><path d="m1127.75 789.13c21.79-.23 43.59-.2 65.39-.02-.44 1.63-.95 3.45-2.56 4.31-4.56 3.18-10.27 3.18-15.56 3.82-6.69.79-13.41.26-20.11.42-6.67.14-13.4-.16-19.91-1.7-3.5-.8-6.28-3.37-7.25-6.83z"/><path d="m1404.98 789.15c25.62-.29 51.26-.19 76.88-.04-4.18 5.96-11.43 8.16-18.09 10.03-4.63.59-9.29.83-13.92 1.35-6.77.68-13.48-.6-20.21-.96-5.59-.16-10.73-2.59-15.95-4.33-3.46-1.1-6.29-3.43-8.71-6.05z"/><path d="m1774.65 789.08c7.3-.16 14.61-.14 21.92.16 1.46 15.79-4.73 30.74-10.32 45.14-20.13 36.6-41.45 72.56-61.82 109.04-38.99 68.1-77.64 136.4-116.66 204.48-7.63.13-15.26.12-22.88.07 3.34-2.49 4.93-6.45 6.91-9.96 52.81-93.15 106.1-186.02 158.95-279.14 8.75-15.97 17.94-31.93 23.27-49.45 1.26-6.7.25-13.57.63-20.34z"/><path d="m878.43 900.38c73.18.05 146.37.01 219.56.02 10.05.28 20.17-.62 30.18.53 6.63 1.07 13.37-.09 20.02.84 7.1.97 14.4.91 21.29 3.13 6.64 2.23 13.98 4.01 18.56 9.78-10.34.73-20.72.13-31.08.31-114.99-.19-229.99.03-344.98-.08 1.89-2.11 3.77-4.4 6.45-5.51 7.54-3.31 15.54-5.67 23.7-6.79 6.62-.27 13.18-1.59 19.82-1.2 5.53.36 10.98-.83 16.48-1.03z"/><path d="m801.04 919.7c2.06-1.59 4.81-1.36 7.26-1.69-.84 2.36-2.16 4.49-3.53 6.58-42.36 74.48-84.92 148.87-127.24 223.37h-.48c-4.94.0-9.87.12-14.79-.06-.46-4.7 1.92-8.75 4.46-12.46 24.44-42.9 48.96-85.77 73.44-128.65 10.3-17.95 20.31-36.09 31.56-53.46 8.03-12.57 17.44-24.47 29.32-33.63z"/><path d="m1191.71 918.01c2.65.3 5.66.14 7.71 2.19 19.12 15.18 31.42 36.76 43.57 57.49 29.9 52.17 59.66 104.43 89.41 156.68 2.53 4.17 5.83 8.31 5.37 13.52-4.94.18-9.88.08-14.82.07h-.47c-20.46-36.28-41.38-72.32-61.81-108.62-21.88-38.2-43.67-76.46-65.42-114.74-1.41-2.07-2.74-4.21-3.54-6.59z"/><path d="m878.15 999.11c8.79-2.08 17.8-3.85 26.88-3.64 21.46.99 42.52 6.04 62.85 12.77 4.18 1.44 7.69 4.22 11.08 6.99-8.39 8.73-20.23 12.8-29.29 20.72-5.81-.08-11.62.03-17.43.04-21.35 37.29-42.6 74.64-63.82 112.01-3.67-.01-7.33.03-10.99-.04 2.75-17.93 8.16-35.53 16.74-51.55 7.46-15.15 16.44-29.5 23.68-44.75 1.76-6.63.19-13.65.88-20.43-2-1.32-4-3.07-6.56-2.85-5.87.11-11.77-.36-17.6.27-4.61 1.4-8.57 4.36-12.37 7.23-13.22 11.26-22 26.5-30.85 41.19-10.44 17.49-21.04 34.88-31.55 52.33-3.66 6.14-7.85 11.99-10.77 18.56-7.44.1-14.87.06-22.3-.1 21.84-38.76 43.8-77.49 66.1-115.99 5.25-5.44 9.78-11.58 15.64-16.41 8.61-7.42 18.71-13.26 29.68-16.35z"/><path d="m1032.12 1008.24c19.71-6.57 40.11-11.38 60.88-12.74 20.04-.46 40.77 5.1 56.32 18.14 6.89 5.12 11.95 12.11 17.85 18.24 20.79 35.64 40.9 71.69 61.42 107.49 1.6 2.81 3.32 5.55 4.7 8.5-5.23.07-10.45.25-15.67.07-2.34-1.39-4.31-3.32-5.63-5.69-10.57-18.37-21.51-36.52-32.2-54.81-9.05-15.26-17.54-30.97-28.56-44.94-7.2-9.43-16.71-17.43-28.08-21.24-4.45-1.39-8.91-2.87-13.51-3.62-5.2-.82-10.14 1.52-14.84 3.38-4.3 1.58-8.19 5.41-9.05 9.92 6.46 17.67 17.3 33.2 26.49 49.5 8.61 14.94 16.86 30.26 22.04 46.78 2.04 6.67 2.58 13.72 2.26 20.67-1.67.04-3.31.08-4.94.13-21.23-37.37-42.49-74.73-63.84-112.03-5.81.0-11.62-.12-17.42-.04-9.17-7.91-21.07-12.04-29.44-20.9 3.44-2.71 7.02-5.39 11.22-6.81z"/></g><g fill="#e0dae2"><path d="m223.42 789.1c4.66.15 9.31.05 13.97-.06 3.26-.07 6.53-.04 9.79.05 1.36 10.24 3 20.58 7.31 30.07 7.81 17.52 17.77 33.96 27.08 50.71 49.66 87.33 99.56 174.53 149.21 261.87 3.1 5.2 6.11 10.48 8.15 16.21-8.51.21-17.02-.21-25.53.0-1.38-1.9-2.74-3.82-3.94-5.82-19.59-34.94-39.65-69.62-59.43-104.45-34.23-60.13-68.64-120.15-102.66-180.39-8.35-15.26-17.16-30.46-22.17-47.21-2.73-6.69-1.5-13.98-1.78-20.98z"/><path d="m478.84 789.13c1.94-.07 3.89-.12 5.84-.13h3.27c8.99.02 17.98.24 26.97.09 5.99 6.7 14.99 8.82 23.24 11.29 5.78 1.86 11.9.96 17.85 1.18 14.82.32 29.98-3.6 42.06-12.37 9.67.35 19.35-.29 29.03-.25 2.61.04 5.21.13 7.83.22-4.27 6.95-10.77 12.05-17.2 16.9-12.55 9.3-27.22 15.65-42.59 18.46-9.92 1.99-20.09 1.01-30.13 1.27-8.58.2-17.22-.68-25.42-3.31-9.43-3.04-18.9-6.92-26.31-13.69-5.97-5.54-12.38-11.45-14.44-19.66z"/><path d="m751.04 789.05c5.94-.11 11.89.0 17.83-.09 7.08-.1 14.16.41 21.24.17 3.4.23 6.15 2.39 8.97 4.08 7.42 4.58 15.93 6.85 24.23 9.27 4.87 1.06 9.92 1.07 14.71 2.58 5.68 1.69 11.14-1.39 16.78-1.63 3.35-.15 6.62-.97 9.74-2.18 5.65-2.15 11.63-3.9 16.44-7.7 2.39-1.83 4.69-4.09 7.82-4.51 6.09.09 12.19.01 18.29-.04h3.29c5.32.02 10.64-.05 15.97.06-3.73 11.14-11.53 20.48-20.7 27.63-13.56 10.47-30.49 15.94-47.4 17.67-6.07-.03-12.1.79-18.15.83-8.83-1.35-17.72-2.54-26.35-4.92-16.73-4.12-32.34-12.35-45.45-23.5-6.47-5.18-11.68-11.66-17.26-17.72z"/><path d="m1073.98 789.04c.69-.03 2.05-.08 2.74-.11 5.39-.21 10.79-.1 16.2.05 11.61.09 23.22.3 34.83.15.97 3.46 3.75 6.03 7.25 6.83 6.51 1.54 13.24 1.84 19.91 1.7 6.7-.16 13.42.37 20.11-.42 5.29-.64 11-.64 15.56-3.82 1.61-.86 2.12-2.68 2.56-4.31 1.83.07 3.67.13 5.52.18 9.47.13 18.93-.2 28.4-.22 7.3-.09 14.61-.11 21.92-.02-8.12 9.2-16.55 18.28-26.87 25.06-16.23 11.32-35.6 17.48-55.11 19.89-4.32.68-8.67 1.79-13.07 1.15-6.7-.82-13.52-.49-20.15-1.9-17.13-3.01-33.94-10.19-46.42-22.56-5.91-6.15-11.32-13.22-13.38-21.65z"/><path d="m1355.08 789.06c6.9-.11 13.8-.05 20.71-.05 9.56.02 19.14.53 28.71.16l.48-.02c2.42 2.62 5.25 4.95 8.71 6.05 5.22 1.74 10.36 4.17 15.95 4.33 6.73.36 13.44 1.64 20.21.96 4.63-.52 9.29-.76 13.92-1.35 6.66-1.87 13.91-4.07 18.09-10.03 10.06.14 20.12-.06 30.18-.12 5.33-.16 10.67-.29 16.01-.06.74.02 2.23.08 2.97.11-2.28 6.21-5.52 12.07-9.91 17.04-11.15 13.75-28.07 21.82-45.3 24.69-6.27.96-12.44 2.64-18.8 2.8-6.67.25-13.26-1.08-19.91-1.06-6.4.0-12.65-1.56-18.89-2.77-17.7-3.59-34.2-12.27-47.63-24.29-5.94-4.7-10.99-10.35-15.5-16.39z"/><path d="m1751.71 789.08c4.91-.15 9.85-.05 14.78.06 2.7.02 5.42.0 8.16-.06-.38 6.77.63 13.64-.63 20.34-5.33 17.52-14.52 33.48-23.27 49.45-52.85 93.12-106.14 185.99-158.95 279.14-1.98 3.51-3.57 7.47-6.91 9.96-8.46-.17-16.92.15-25.38-.01 2.24-5.55 5.16-10.76 8.25-15.87 51.31-90.3 102.9-180.44 154.21-270.74 7.91-13.9 15.91-27.79 22.35-42.44 4.14-9.44 6.3-19.62 7.39-29.83z"/><path d="m826.18 872.33c12.74-2.87 25.71-5.53 38.85-4.86 11.01.53 21.98-.87 32.98-.28 4.2-.26 8.48-1.06 12.61.2 4.7 1.36 9.62 1.26 14.41.46 6.66-1.21 13.33.95 20.01.07 4.94-.59 9.94-.68 14.9-.04 8.32 1.09 16.73.42 25.1.63 4.32.11 8.65-.02 12.95-.54 5.69-.86 11.39.92 17.08-.08 5.61-.99 11.24.53 16.88.04 3.68-.37 7.37.0 11.05.39 4.7.47 9.32-1.05 14.03-.73 7.98.97 15.99-.28 23.97.81 12.95-1.87 26.07.01 39.04-1.69 9.33-.42 18.72-.38 27.91 1.5 9.31.19 18.37 2.44 27.42 4.5 10.12 2.62 19.96 6.51 29 11.8 13.42 7.35 24.67 18.06 34.56 29.6 10.37 12.97 18.96 27.25 27.37 41.53 27.54 48.15 54.99 96.35 82.48 144.54 8.98 15.98 18.39 31.72 27.2 47.8-12.74.2-25.48-.27-38.21-.09.46-5.21-2.84-9.35-5.37-13.52-29.75-52.25-59.51-104.51-89.41-156.68-12.15-20.73-24.45-42.31-43.57-57.49-2.05-2.05-5.06-1.89-7.71-2.19l-.11-.01c-.61-1.68-1.66-3.21-3.56-3.32-4.58-5.77-11.92-7.55-18.56-9.78-6.89-2.22-14.19-2.16-21.29-3.13-6.65-.93-13.39.23-20.02-.84-10.01-1.15-20.13-.25-30.18-.53-73.19-.01-146.38.03-219.56-.02-5.5.2-10.95 1.39-16.48 1.03-6.64-.39-13.2.93-19.82 1.2-8.16 1.12-16.16 3.48-23.7 6.79-2.68 1.11-4.56 3.4-6.45 5.51-.42-.09-1.25-.27-1.66-.36-.65 1.13-1.27 2.28-1.88 3.44l-.14.02c-2.45.33-5.2.1-7.26 1.69-11.88 9.16-21.29 21.06-29.32 33.63-11.25 17.37-21.26 35.51-31.56 53.46-24.48 42.88-49 85.75-73.44 128.65-2.54 3.71-4.92 7.76-4.46 12.46-12.72-.2-25.44.28-38.16.08 4.97-9.23 10.37-18.22 15.42-27.41 9.54-16.2 18.4-32.79 28.05-48.92 9.29-16.95 19.23-33.52 28.7-50.37 9.28-16.65 19.02-33.04 28.27-49.72 9.65-16.83 19.33-33.68 30.56-49.52 7.51-10.62 16.57-20.08 26.63-28.3 13.19-10 28.29-17.64 44.45-21.41z"/><path d="m1094.8 1021.02c4.7-1.86 9.64-4.2 14.84-3.38 4.6.75 9.06 2.23 13.51 3.62 11.37 3.81 20.88 11.81 28.08 21.24 11.02 13.97 19.51 29.68 28.56 44.94 10.69 18.29 21.63 36.44 32.2 54.81 1.32 2.37 3.29 4.3 5.63 5.69-27.02-.02-54.06.13-81.08-.05.32-6.95-.22-14-2.26-20.67-5.18-16.52-13.43-31.84-22.04-46.78-9.19-16.3-20.03-31.83-26.49-49.5.86-4.51 4.75-8.34 9.05-9.92z"/><path d="m874.57 1028.65c5.83-.63 11.73-.16 17.6-.27 2.56-.22 4.56 1.53 6.56 2.85-.69 6.78.88 13.8-.88 20.43-7.24 15.25-16.22 29.6-23.68 44.75-8.58 16.02-13.99 33.62-16.74 51.55-22.8.05-45.6.02-68.4.0 2.92-6.57 7.11-12.42 10.77-18.56 10.51-17.45 21.11-34.84 31.55-52.33 8.85-14.69 17.63-29.93 30.85-41.19 3.8-2.87 7.76-5.83 12.37-7.23z"/></g><path d="m247.18 789.09c77.22-.15 154.45-.2 231.66.04 2.06 8.21 8.47 14.12 14.44 19.66 7.41 6.77 16.88 10.65 26.31 13.69 8.2 2.63 16.84 3.51 25.42 3.31 10.04-.26 20.21.72 30.13-1.27 15.37-2.81 30.04-9.16 42.59-18.46 6.43-4.85 12.93-9.95 17.2-16.9 38.7-.2 77.41-.15 116.11-.11 5.58 6.06 10.79 12.54 17.26 17.72 13.11 11.15 28.72 19.38 45.45 23.5 8.63 2.38 17.52 3.57 26.35 4.92 6.05-.04 12.08-.86 18.15-.83 16.91-1.73 33.84-7.2 47.4-17.67 9.17-7.15 16.97-16.49 20.7-27.63 49.21-.12 98.42-.07 147.63-.02 2.06 8.43 7.47 15.5 13.38 21.65 12.48 12.37 29.29 19.55 46.42 22.56 6.63 1.41 13.45 1.08 20.15 1.9 4.4.64 8.75-.47 13.07-1.15 19.51-2.41 38.88-8.57 55.11-19.89 10.32-6.78 18.75-15.86 26.87-25.06 35.36-.05 70.73-.05 106.1.01 4.51 6.04 9.56 11.69 15.5 16.39 13.43 12.02 29.93 20.7 47.63 24.29 6.24 1.21 12.49 2.77 18.89 2.77 6.65-.02 13.24 1.31 19.91 1.06 6.36-.16 12.53-1.84 18.8-2.8 17.23-2.87 34.15-10.94 45.3-24.69 4.39-4.97 7.63-10.83 9.91-17.04 73.56-.06 147.13-.13 220.69.04-1.09 10.21-3.25 20.39-7.39 29.83-6.44 14.65-14.44 28.54-22.35 42.44-51.31 90.3-102.9 180.44-154.21 270.74-3.09 5.11-6.01 10.32-8.25 15.87-61.18.09-122.36.08-183.53.02-8.81-16.08-18.22-31.82-27.2-47.8-27.49-48.19-54.94-96.39-82.48-144.54-8.41-14.28-17-28.56-27.37-41.53-9.89-11.54-21.14-22.25-34.56-29.6-9.04-5.29-18.88-9.18-29-11.8-9.05-2.06-18.11-4.31-27.42-4.5-9.19-1.88-18.58-1.92-27.91-1.5-12.97 1.7-26.09-.18-39.04 1.69-7.98-1.09-15.99.16-23.97-.81-4.71-.32-9.33 1.2-14.03.73-3.68-.39-7.37-.76-11.05-.39-5.64.49-11.27-1.03-16.88-.04-5.69 1-11.39-.78-17.08.08-4.3.52-8.63.65-12.95.54-8.37-.21-16.78.46-25.1-.63-4.96-.64-9.96-.55-14.9.04-6.68.88-13.35-1.28-20.01-.07-4.79.8-9.71.9-14.41-.46-4.13-1.26-8.41-.46-12.61-.2-11-.59-21.97.81-32.98.28-13.14-.67-26.11 1.99-38.85 4.86-16.16 3.77-31.26 11.41-44.45 21.41-10.06 8.22-19.12 17.68-26.63 28.3-11.23 15.84-20.91 32.69-30.56 49.52-9.25 16.68-18.99 33.07-28.27 49.72-9.47 16.85-19.41 33.42-28.7 50.37-9.65 16.13-18.51 32.72-28.05 48.92-5.05 9.19-10.45 18.18-15.42 27.41-61.73.05-123.45.08-185.17-.03-2.04-5.73-5.05-11.01-8.15-16.21-49.65-87.34-99.55-174.54-149.21-261.87-9.31-16.75-19.27-33.19-27.08-50.71-4.31-9.49-5.95-19.83-7.31-30.07z" fill="#fdfdfd"/><g fill="#760278"><path d="m392.24 1147.9c7.05.1 14.1.16 21.16.05 8.51-.21 17.02.21 25.53.0 61.72.11 123.44.08 185.17.03 12.72.2 25.44-.28 38.16-.08 4.92.18 9.85.06 14.79.06-18.5 33.48-38.35 66.31-56.34 100.04 8.68 16.72 18.38 33.02 27.64 49.48 31.48 55.52 63.27 110.87 94.55 166.51 2.45 9.59-2.07 19.55-7.75 27.16-3.04 4.76-8.25 7.26-12.9 10.11-1.54 1.03-3.39 1.3-5.19 1.26-40.64-.02-81.27.21-121.9-.19-3.56-7.88-9.17-14.59-13.23-22.19-32.32-56.1-64.12-112.5-96.29-168.68-29.94-52.69-60.01-105.31-89.97-157.98-1.08-1.91-2.24-3.76-3.43-5.58z"/><path d="m732.48 1208.4c11.42-20.18 22.94-40.3 34.25-60.54 7.43.16 14.86.2 22.3.1 22.8.02 45.6.05 68.4.0 3.66.07 7.32.03 10.99.04-1.62 2.63-3.21 5.27-4.74 7.96 22.56 40.24 45.46 80.29 68.51 120.25 45.2.29 90.41.28 135.62.0 23.05-39.95 45.93-80.01 68.51-120.23-1.53-2.69-3.12-5.34-4.72-7.96 1.63-.05 3.27-.09 4.94-.13 27.02.18 54.06.03 81.08.05 5.22.18 10.44.0 15.67-.07 10.8 19.36 21.83 38.6 32.74 57.91 3.79 7.2 8.84 13.89 10.98 21.85 1.06 6.76 1.46 13.61 2.39 20.4-1.6 9.63-.6 20.06-5.76 28.79-20.65 36.34-41.22 72.73-62.05 108.98-15.69 28.18-32.09 55.96-47.83 84.12-2.88 5.22-7.73 8.87-11.74 13.15-11.01 10.17-25.23 16.53-39.8 19.45-73.09.12-146.18.04-219.27.04-2.84-.03-5.75.23-8.5-.54-7.44-2.44-15.02-4.65-21.86-8.55-9.86-5.26-18.23-13.01-25.18-21.67-35.55-62.17-70.99-124.42-106.35-186.71-2.2-3.97-4.74-7.78-6.42-12-2.74-6.24-2.62-13.19-3.5-19.83-.24-2.1-.85-4.21-.46-6.3 1.03-6.42 1.13-12.96 2.31-19.36 1.79-7 6.11-12.92 9.49-19.2z"/><path d="m1322.95 1147.96c4.94.01 9.88.11 14.82-.07 12.73-.18 25.47.29 38.21.09 61.17.06 122.35.07 183.53-.02 8.46.16 16.92-.16 25.38.01 7.62.05 15.25.06 22.88-.07-19.72 33.41-38.4 67.45-57.82 101.04-42.03 73.75-84.02 147.51-126.08 221.24-4.63 7.96-9.19 15.98-14.32 23.64-1.84 2.67-3.39 5.54-4.71 8.5-34.66.38-69.32.18-103.97.24-3.65.05-6.98-1.57-10.37-2.63-11.12-3.28-21.48-11.17-25.5-22.32-1.41-3.01-1.75-6.34-1.58-9.61.28-5.6-.82-11.46 1.45-16.78 2.63-7.04 7.12-13.17 10.58-19.81 34.17-60.14 68.53-120.18 102.52-180.42.48-1.21 1.78-2.52 1.06-3.87-18.28-33.27-37.6-65.99-56.08-99.16z"/></g></svg>