<svg height="101pt" viewBox="0 0 128 101" width="128pt" xmlns="http://www.w3.org/2000/svg"><g fill="#261447"><path d="m12.27.57C45.92.55 79.57.58 113.23.53c4.21 7.18 8.22 14.48 12.48 21.63-3.61 6.54-7.47 12.94-11.1 19.48 1.68 2.78 3.29 5.6 4.94 8.4C110 66.48 100.7 83.07 91.13 99.5c-18.93-.04-37.86.13-56.79-.08-9.36-16.49-18.78-32.94-28.26-49.36 1.63-2.85 3.27-5.69 4.95-8.51-3.67-6.39-7.23-12.84-11.03-19.17v-.57c4.28-6.97 8.13-14.19 12.27-21.24m2.71 4.6c-3.34 5.59-6.46 11.3-9.75 16.91 2.95 4.81 5.31 10.14 8.69 14.58 1.27-2.37 2.62-4.69 3.97-7.01-1.37-2.55-2.87-5.02-4.29-7.54 1.93-3.18 3.64-6.5 5.64-9.64 2.84.03 5.68.06 8.52-.04 1.34-2.44 2.77-4.83 4.15-7.26-5.65.02-11.29.04-16.93.0m78.81.22c1.45 2.4 2.79 4.87 4.3 7.24 2.76-.03 5.52-.02 8.28-.08 1.98 3.14 3.71 6.44 5.61 9.63-1.34 2.54-2.85 4.99-4.22 7.51 1.42 2.44 2.82 4.89 4.22 7.34 2.75-4.96 5.61-9.86 8.39-14.8-3.28-5.59-6.37-11.3-9.7-16.86-5.63-.01-11.25-.03-16.88.02m-56.55.09c-4.73 8.24-9.36 16.54-14.11 24.76-2.4 4.04-4.71 8.14-6.96 12.26l-.1-.04c-1.47 2.51-2.9 5.05-4.32 7.59 3.54 6.24 7.19 12.4 10.73 18.63 4.83 8.69 9.9 17.25 14.88 25.87 3.54.0 7.09-.01 10.64.0-3.08-5.2-5.98-10.49-9.02-15.71 1.55-3.17 3.52-6.11 5.15-9.23 2.2-3.98 4.47-7.92 6.8-11.81 7.96.01 15.91-.1 23.86.05 1.99 3.55 4.06 7.05 6.07 10.6 1.81 3.52 3.97 6.86 5.81 10.37-3.07 5.21-5.99 10.5-9.01 15.74 3.54-.03 7.08.0 10.62-.03 5-8.68 10.11-17.29 14.96-26.05 3.52-6.16 7.12-12.27 10.64-18.43-1.4-2.48-2.79-4.97-4.26-7.41-2.37-4.07-4.68-8.17-6.99-12.27h-.15c-4.7-8.35-9.36-16.74-14.23-24.99-17 .15-34.01-.05-51.01.1m7.31 73.27c3.1 5.25 6.05 10.57 9.09 15.85 6.06.07 12.11-.06 18.17.07 3.25-5.17 6.04-10.61 9.21-15.83-2.84-5.47-6.08-10.74-9.12-16.1-6.03-.06-12.07.01-18.1-.04-3.19 5.29-6.21 10.67-9.25 16.05z"/><path d="m37.14 38.59c4.42-.05 8.83.01 13.25-.05 1.08 1.73 2.1 3.5 3.1 5.28 1.15 2.14 2.36 4.25 3.57 6.36-2.21-.09-4.57.43-6.69-.31-1.36-1.72-1.93-4.07-3.59-5.51-2.11-.19-4.22-.07-6.33-.02-1.12 1.93-2.24 3.86-3.4 5.77-2.16.05-4.32.07-6.49.09.97-1.77 1.97-3.51 2.93-5.28 1.18-2.13 2.4-4.24 3.65-6.33z"/><path d="m75.15 38.73c4.4-.06 8.8.0 13.21-.06 1.24 1.91 2.4 3.88 3.49 5.88 1.04 1.94 2.17 3.84 3.28 5.75-2.12.0-4.24.06-6.35.13-1.32-1.86-2.37-3.89-3.58-5.82-2.2-.52-4.49-.19-6.73-.2-1.12 1.95-2.25 3.91-3.4 5.85-2.19.05-4.38.05-6.56.07 1.27-2.19 2.53-4.39 3.75-6.61.94-1.68 1.9-3.34 2.89-4.99z"/><path d="m58.52 65.44c2.75.02 5.51-.11 8.26.03 1.99 2.08 3 5.05 4.63 7.46-1.47 2.48-2.88 5-4.33 7.48-2.82.0-5.64.0-8.45.05-1.56-2.45-2.94-5.01-4.4-7.52 1.43-2.5 2.85-5.01 4.29-7.5z"/></g><g fill="#c86b40"><path d="m14.98 5.17c5.64.04 11.28.02 16.93.0-1.38 2.43-2.81 4.82-4.15 7.26-2.84.1-5.68.07-8.52.04-2 3.14-3.71 6.46-5.64 9.64 1.42 2.52 2.92 4.99 4.29 7.54-1.35 2.32-2.7 4.64-3.97 7.01-3.38-4.44-5.74-9.77-8.69-14.58 3.29-5.61 6.41-11.32 9.75-16.91z"/><path d="m93.79 5.39c5.63-.05 11.25-.03 16.88-.02 3.33 5.56 6.42 11.27 9.7 16.86-2.78 4.94-5.64 9.84-8.39 14.8-1.4-2.45-2.8-4.9-4.22-7.34 1.37-2.52 2.88-4.97 4.22-7.51-1.9-3.19-3.63-6.49-5.61-9.63-2.76.06-5.52.05-8.28.08-1.51-2.37-2.85-4.84-4.3-7.24z"/><path d="m16.17 42.5c2.25-4.12 4.56-8.22 6.96-12.26 26.44.43 52.9.18 79.35.13h.15c2.31 4.1 4.62 8.2 6.99 12.27-5.16 4.25-12.02-.22-17.77 1.91-1.09-2-2.25-3.97-3.49-5.88-4.41.06-8.81.0-13.21.06-.99 1.65-1.95 3.31-2.89 4.99-6.24.85-12.52.69-18.77.1-1-1.78-2.02-3.55-3.1-5.28-4.42.06-8.83.0-13.25.05-1.25 2.09-2.47 4.2-3.65 6.33-5.76-1.05-12.01.66-17.32-2.42z"/><path d="m44.55 78.75c3.04-5.38 6.06-10.76 9.25-16.05 6.03.05 12.07-.02 18.1.04 3.04 5.36 6.28 10.63 9.12 16.1-3.17 5.22-5.96 10.66-9.21 15.83-6.06-.13-12.11.0-18.17-.07-3.04-5.28-5.99-10.6-9.09-15.85m13.97-13.31c-1.44 2.49-2.86 5-4.29 7.5 1.46 2.51 2.84 5.07 4.4 7.52 2.81-.05 5.63-.05 8.45-.05 1.45-2.48 2.86-5 4.33-7.48-1.63-2.41-2.64-5.38-4.63-7.46-2.75-.14-5.51-.01-8.26-.03z"/></g><path d="m37.24 5.48c17-.15 34.01.05 51.01-.1 4.87 8.25 9.53 16.64 14.23 24.99-26.45.05-52.91.3-79.35-.13 4.75-8.22 9.38-16.52 14.11-24.76z" fill="#d8882f"/><path d="m16.07 42.46.1.04c5.31 3.08 11.56 1.37 17.32 2.42-.96 1.77-1.96 3.51-2.93 5.28 2.17-.02 4.33-.04 6.49-.09 1.16-1.91 2.28-3.84 3.4-5.77 2.11-.05 4.22-.17 6.33.02 1.66 1.44 2.23 3.79 3.59 5.51 2.12.74 4.48.22 6.69.31-1.21-2.11-2.42-4.22-3.57-6.36 6.25.59 12.53.75 18.77-.1-1.22 2.22-2.48 4.42-3.75 6.61 2.18-.02 4.37-.02 6.56-.07 1.15-1.94 2.28-3.9 3.4-5.85 2.24.01 4.53-.32 6.73.2 1.21 1.93 2.26 3.96 3.58 5.82 2.11-.07 4.23-.13 6.35-.13-1.11-1.91-2.24-3.81-3.28-5.75 5.75-2.13 12.61 2.34 17.77-1.91 1.47 2.44 2.86 4.93 4.26 7.41-3.52 6.16-7.12 12.27-10.64 18.43-7.27-1.7-15.09-1.64-22.38-.03-2.01-3.55-4.08-7.05-6.07-10.6-7.95-.15-15.9-.04-23.86-.05-2.33 3.89-4.6 7.83-6.8 11.81-1.21-.98-2.35-2.3-4.07-2.14-5.86-.03-11.94-.81-17.58 1.21-3.54-6.23-7.19-12.39-10.73-18.63 1.42-2.54 2.85-5.08 4.32-7.59z" fill="#b94c4e"/><g fill="#a82b5f"><path d="m22.48 68.68c5.64-2.02 11.72-1.24 17.58-1.21 1.72-.16 2.86 1.16 4.07 2.14-1.63 3.12-3.6 6.06-5.15 9.23 3.04 5.22 5.94 10.51 9.02 15.71-3.55-.01-7.1.0-10.64.0-4.98-8.62-10.05-17.18-14.88-25.87z"/><path d="m80.86 68.45c7.29-1.61 15.11-1.67 22.38.03-4.85 8.76-9.96 17.37-14.96 26.05-3.54.03-7.08.0-10.62.03 3.02-5.24 5.94-10.53 9.01-15.74-1.84-3.51-4-6.85-5.81-10.37z"/></g></svg>