<svg height="2108" viewBox="0 0 2e3 1581" width="2e3pt" xmlns="http://www.w3.org/2000/svg"><g fill="#331f53"><path d="m197.56.0H1802.6c65.47 114.76 130.75 229.62 196.21 344.39-.4 1.02-.74 2.05-1.02 3.09-41.11 72.33-82.38 144.56-123.45 216.91-17.2 30.22-34.63 60.31-51.5 90.7 21.78 37.03 42.52 74.67 64.01 111.87 4.42 7.52 8.4 15.3 13.16 22.61-.03.45-.09 1.34-.12 1.79-41.28 71.7-81.94 143.84-123.04 215.67-105.01 184.55-210.18 369.02-315.19 553.58-4.13 6.73-7.45 13.98-12.08 20.39h-899.3c-4.76-7.23-8.69-14.97-13.08-22.42-144.47-253.75-288.98-507.47-433.48-761.2-1.04-2.11-2.17-4.17-3.61-6.02-.03-.45-.09-1.34-.12-1.79 5.82-9.17 10.85-18.82 16.35-28.18 20.4-35.36 40.11-71.12 60.82-106.3-21.16-38.08-43.15-75.72-64.5-113.7-36.9-64.59-73.64-129.27-110.45-193.91-.3-1.05-.64-2.08-1.02-3.09 41.9-73.49 83.78-147 125.6-220.53 23.72-41.22 46.86-82.77 70.77-123.86m41.1 75.36c-39.71 68.53-78.4 137.64-117.88 206.3-4.83 9.44-10.7 18.33-15.47 27.79-6.2 9.55-11.33 19.81-17.16 29.6-1.21 2.2-2.7 4.4-3.05 6.94 5.6 10.05 11.43 19.99 16.98 30.09.57.87 1.21 1.7 1.95 2.46.75 2.72 2.54 4.98 3.9 7.42 23.9 42.05 47.8 84.11 71.83 126.08 6.33 11.95 13.48 23.45 19.99 35.3.63.84.89 2.23 1.98 2.61 1.2 4.06 4.11 7.26 5.82 11.1l.15.01c1.23 2.34 2.59 4.61 3.84 6.95h.15c2.39 4.17 4.37 8.61 7.21 12.51 2.89-3.88 4.99-8.24 7.16-12.53h.47c1.25-2.8 2.74-5.48 4.44-8.03 1.49-3.47 3.96-6.4 5.37-9.9 16.47-27.97 32.26-56.33 48.27-84.56.61-1.21-.18-2.46-.69-3.53-8.92-15.46-17.45-31.14-26.37-46.6-.36-.45-1.07-1.34-1.43-1.79-4.03-8.31-9.13-16.09-13.53-24.23-6.88-11.81-13.37-23.82-20.17-35.66-.94-1.84-1.81-3.77-3.41-5.13-.47-1.63-1.26-3.23-1.07-4.97 1.78-1.61 2.7-3.83 3.8-5.9 25.82-45.75 51.96-91.33 77.98-136.98 1.61-2.83 3.63-5.49 4.48-8.69.8-.63 1.58-1.28 2.35-1.95 1.07-.05 2.13-.13 3.19-.24 6.42.37 12.85.1 19.27.17 27.82-.21 55.65.02 83.46-.28 9.65.69 19.33.03 28.99.14 2.44-3.74 4.49-7.72 6.79-11.55 2.01-3.83 4.71-7.3 6.07-11.45 1.51-1.1 2.03-3.01 2.97-4.55 6.28-10.96 12.55-21.94 18.82-32.91 5.7-9.75 10.94-19.78 16.87-29.39l-.1-.29c4.99-7.94 9.18-16.35 13.95-24.44-10.03.09-20.06-.55-30.08-.18-11.72.14-23.45-.49-35.16.15-67.63-.23-135.29-.22-202.93.11m1254.52-.08c4.5 7.82 8.75 15.77 13.29 23.57 3.93 6.32 7.07 13.11 11.25 19.28 7.05 13.2 14.67 26.13 22.07 39.17 3.73 6.11 6.85 12.62 10.9 18.52 2.04 4.98 5.13 9.46 7.84 14.09 6.32-.06 12.65.4 18.96-.18 31.63.21 63.3.46 94.94.08 7.07.27 14.16.16 21.24.15 4.43 5.53 6.85 12.42 11.11 18.09.82 2.65 2.52 4.89 3.86 7.3 21.02 37.09 42.25 74.05 63.3 111.13 3.37 5.7 6.19 11.84 10.11 17.2.34 3.39-2.32 5.8-3.67 8.63-1.96 3.82-4.47 7.34-6.21 11.27-16.18 28.03-32.22 56.26-48.15 84.46-.44.69-.67 1.43-.69 2.24-2.51 2.08-3.47 5.27-5.15 7.94-1.22 2.15-2.85 4.2-3.19 6.7 2.6 4.51 4.92 9.21 7.93 13.48 7.97 14.75 16.41 29.34 24.74 43.93.94 1.58 1.51 3.51 3.03 4.7 3.7 7.99 8.55 15.42 12.96 23.04 1.36 3.44 3.81 6.28 5.27 9.68 1.74 2.67 3.34 5.45 4.54 8.42h.65c2.01 4.28 4.16 8.53 6.99 12.35 2.86-3.9 4.79-8.39 7.24-12.55h.12c1.25-2.32 2.61-4.58 3.84-6.91l.15-.01c1.7-3.84 4.62-7.04 5.82-11.12l.47-.07c3.8-6.98 8.34-13.6 11.59-20.86 1.33-.97 1.82-2.64 2.65-4 31.06-54.59 62.17-109.15 93.2-163.75 3.02-5.03 5.91-10.14 8.78-15.26-.41-2.78-2.11-5.15-3.43-7.56-1.9-2.92-3.08-6.29-5.44-8.89-3.44-7.22-7.86-13.96-11.68-20.99-21.39-37.91-43.14-75.61-64.53-113.51-20.34-35.25-40.09-70.83-60.6-105.98-2.31-4.81-5.28-9.27-7.82-13.96-6.3.03-12.6-.4-18.87.16-16.53-.26-33.07-.15-49.59-.21-49.21.05-98.42-.16-147.62.18-8.06-.57-16.14-.02-24.21-.15-9.33-.31-18.66.3-27.99.2m-898.94 3.12c-14.16 24.19-28.02 48.58-41.93 72.92-73.93 130.04-147.98 260.02-222 390.01-1.66 2.83-3.48 5.58-4.58 8.7h-.53c-5.49 10.44-11.56 20.56-17.37 30.83-22.16 38.83-44.24 77.72-66.35 116.57-9.03 16.13-18.49 32.01-27.36 48.22-7.79 13.07-15.05 26.56-22.75 39.73-1.17 2.3-3.23 5.04-1.37 7.57 6.83 12.42 13.99 24.67 20.93 37.02.75 1.61 1.65 3.16 2.95 4.41.97 2.98 2.9 5.5 4.42 8.22 8.4 15.23 17.13 30.28 25.75 45.4 22.83 39.82 45.3 79.82 68.23 119.58 3.59 6.86 8.07 13.25 11.13 20.39h.62c10.11 18.72 21.06 36.99 31.49 55.55 72.08 126.46 144.02 253.03 216.25 379.39 7.12 13.53 15.02 26.65 22.73 39.85 19.15.37 38.31.2 57.47.24 29.59-.01 59.19.08 88.78-.21 8.1.52 16.23.04 24.34-.14-3.4-6.82-7.06-13.53-11.19-19.93-8.96-15.67-17.18-31.81-26.84-47.05-2.64-5.73-6.25-10.98-9.22-16.55-32.09-56.52-64.38-112.94-96.36-169.53-1.49-2.5 1.18-4.73 2.13-6.87 20.49-36.75 41.75-73.07 62.33-109.76 20.03-34.99 39.99-70.01 59.89-105.07 12.4-21.61 24.72-43.28 37.12-64.89 8.06-15.16 17.46-29.67 25.25-44.92l.41-.26c.5-2.47 2.67-3.14 4.92-3.04 8.3.42 16.65.21 24.97.04 21.48.41 42.98.0 64.47.14 86.15-.1 172.32.19 258.47-.14 8.65.15 17.35.44 26-.08 1.93.09 3.46 1.13 3.94 3.08l.42.26c.72 2.97 2.95 5.18 4.19 7.92 19.49 33.91 38.66 67.99 58.18 101.89 41.29 72.66 82.85 145.18 124.03 217.9.75 1.09 1.17 2.6.33 3.8-38.75 68.53-77.84 136.87-116.72 205.32-3.77 5.41-6.44 11.47-9.83 17.12-5.69 10.13-11.43 20.23-16.92 30.47 19.11.06 38.25 1.05 57.34.19 29.72.15 59.47.22 89.2-.05 7.94.76 15.95.24 23.92.15 3.61-6.05 7.37-12.05 10.36-18.43 4.96-7.96 9.38-16.27 14.15-24.36 11.78-21.1 23.93-41.99 35.87-63 19.18-33.84 38.47-67.61 57.78-101.37 18.98-33.89 38.62-67.42 57.61-101.3 22.49-39.22 44.76-78.56 67.17-117.82 9.1-16.22 18.71-32.17 27.5-48.55l.64-.01c2.92-6.88 7.21-13.04 10.71-19.62 29.57-51.47 58.66-103.19 88.29-154.63 4.06-8.31 9.48-15.98 13.38-24.33 1.79-2.13 3.15-4.58 4.4-7.06 5.28-9.07 10.33-18.27 15.61-27.33.87-1.96 2.64-4.19 1.28-6.33-4.64-8.88-9.88-17.45-14.7-26.23-2.34-3.51-3.76-7.6-6.6-10.75-.25-.94-.57-1.83-.97-2.67-28.88-50.22-57.35-100.66-86.04-150.98-9.03-16.01-18.45-31.81-27.18-47.98h-.61c-.84-2.95-2.58-5.48-4.12-8.07-50.81-89.21-101.61-178.43-152.37-267.66-10.45-18.51-21.24-36.84-31.5-55.45-21.48-37.17-42.31-74.71-63.92-111.8-5.28-9.73-10.69-19.43-16.5-28.85-11.74-.01-23.49-.57-35.21.04-41.84-.31-83.7-.07-125.54-.15-165.66.0-331.32.0-496.98.0-51.27.06-102.53-.17-153.79.3m260.2 914.7c-3.32 7.14-7.99 13.57-11.41 20.67l-.65.42c-2.15 4.81-5.19 9.15-7.61 13.83-15.62 28.16-32.03 55.89-47.7 84.03-20.09 35.17-40.27 70.3-60.06 105.63-5.82 9.11-10.77 18.75-16.23 28.08-1.65 2.35.16 4.9 1.37 6.97 5.08 8.46 9.49 17.32 14.87 25.6 17.92 31.88 36.05 63.66 54.21 95.42 18.76 33.1 37.6 66.17 56.57 99.14 5.04 10.23 11.4 19.76 16.73 29.85 11.96.11 23.95.65 35.9-.05 25.86.27 51.73.07 77.6.14 47.19-.08 94.4.16 141.59-.14 11.93.7 23.91.16 35.85.05 5.32-10.1 11.7-19.62 16.73-29.87 17.61-30.62 35.17-61.32 52.55-92.09 19.5-34.1 39-68.22 58.23-102.46 5.84-9.11 10.78-18.77 16.26-28.1 1.61-2.36-.2-4.89-1.38-6.94-5.09-8.46-9.48-17.32-14.87-25.59-24.56-43.9-49.82-87.45-74.55-131.26-11.03-19.5-22.41-38.8-33.21-58.41-2.43-4.68-5.48-9.02-7.62-13.84l-.65-.41c-3.41-7.1-8.08-13.53-11.4-20.67-9.96.07-19.93-.32-29.88.03-12.43-.14-24.87-.17-37.29.0-25.14-.31-50.28.04-75.42-.07-27.12.12-54.23-.24-81.34.07-12.77-.17-25.55-.15-38.31.01-9.62-.38-19.26.04-28.88-.04z"/><path d="m592.24 606.91c1.81.03 3.63.06 5.46.04 66.53-.1 133.07-.08 199.6-.01 2.09.04 4.18.04 6.29.05 1.12 1.97 2.27 3.94 3.4 5.92 27.58 48.18 54.98 96.46 82.47 144.7 3.02 5.11 5.69 10.42 8.74 15.52 3 5.07 5.83 10.23 8.74 15.35l.35.61c-3.39-.12-6.78-.11-10.16-.09-6.19-.04-12.37.06-18.55.04-25.76.03-51.52.09-77.27-.02-3.44-5.04-6.26-10.45-9.24-15.76-8.67-15.5-17.58-30.86-26.47-46.23-4.85-8.67-9.56-17.43-14.82-25.85-12.35-.09-24.7-.35-37.05-.07-9.81-.01-19.63-.02-29.44.0-13.03-.28-26.06-.02-39.09.07-5.99 9.44-11.14 19.38-16.7 29.07-7.92 14.34-16.21 28.48-24.06 42.87-3 5.26-6.32 10.37-8.87 15.87-26.36.18-52.72.06-79.07.05-5.96.02-11.92-.08-17.88-.03-3.35-.01-6.7-.05-10.04.06l-.88.03.43-.55c3.45-4.73 5.81-10.15 8.89-15.12 3.13-5.34 6.12-10.76 9.22-16.12 20.16-35.22 40-70.62 60.26-105.78 7.26-12.8 14.78-25.45 21.79-38.39 1.18-2.16 2.42-4.3 3.95-6.23z"/><path d="m1196.41 606.99c2.08-.01 4.16-.02 6.26-.05 66.56-.07 133.12-.09 199.67.01 1.79.02 3.6-.01 5.41-.04 1.52 1.93 2.77 4.07 3.96 6.23 19.78 35.47 40.45 70.44 60.23 105.91 7.3 12.74 14.5 25.55 21.82 38.28 3.09 5.35 6.09 10.76 9.22 16.09 2.3 3.91 4.36 7.97 6.82 11.8.5 1.46 1.55 2.65 2.53 3.86-1.36-.03-2.71-.05-4.04-.05-3.36-.04-6.71-.03-10.05-.03-5.96-.04-11.91.04-17.86.03-24.63.06-49.25.0-73.87.04-.52-.02-1.57-.07-2.09-.09-.26-.52-.78-1.56-1.04-2.09-3.45-6.45-7.13-12.8-10.92-19.05-6.62-12.79-14.18-25.07-21.02-37.74-5.57-9.63-10.67-19.54-16.64-28.92-12.03-.1-24.07-.33-36.1-.09-10.15-.01-20.3-.02-30.44.0-13.02-.24-26.03-.01-39.05.1-5.85 9.48-11.13 19.32-16.68 28.98-7.31 12.89-14.9 25.63-22.01 38.64-3.69 6.31-7.27 12.68-10.75 19.1-.7.4-1.38.81-2.08 1.15-24.4-.03-48.8.02-73.19-.03-5.9.02-11.79-.07-17.68-.02-3.67.0-7.34-.05-10.99.03-.78.01-2.34.05-3.12.07.49-.84.97-1.68 1.44-2.52 2.48-4.54 5.06-9.02 7.67-13.48 3.02-5.1 5.7-10.4 8.72-15.5 27.51-48.28 54.94-96.59 82.53-144.82 1.1-1.94 2.23-3.87 3.34-5.8z"/><path d="m932.22 1036.04c6.82-.17 13.65-.2 20.47-.14 14.77.23 29.55-.07 44.32.01 23.34-.13 46.68.35 70.02-.06 1.27 1.45 2.45 2.97 3.46 4.64 10.38 18.86 21.34 37.41 31.94 56.15 9.97 17.21 19.39 34.74 29.52 51.86 1.48 2.46 2.86 4.97 4.25 7.5-1.42 2.59-2.9 5.14-4.35 7.71-9.97 16.83-19.18 34.08-29.04 50.98-9.88 17.65-20.41 34.96-29.96 52.79-1.66 2.9-3.36 5.77-5.07 8.64-2.47.0-4.92.01-7.37.05-25.14-.36-50.28.13-75.42-.06-15.13.1-30.26-.34-45.38.05-2.47-.03-4.94-.04-7.39-.04-1.57-2.64-3.13-5.27-4.68-7.9-8.55-16.17-18.13-31.77-27.05-47.74-11.32-19.41-21.97-39.21-33.38-58.56-1.1-1.98-2.21-3.95-3.31-5.91 1.38-2.55 2.78-5.09 4.28-7.57 2.59-4.23 4.99-8.57 7.45-12.88 18.71-33.28 37.75-66.38 56.69-99.52z"/></g><path d="m238.66 75.36c67.64-.33 135.3-.34 202.93-.11 9.74 3.13 20.26 5.97 27.45 13.74 7.49 7.49 9.87 18.77 8.49 29-.56 3.8-.93 7.61-1.42 11.41-6.27 10.97-12.54 21.95-18.82 32.91-.94 1.54-1.46 3.45-2.97 4.55-5.82 3.85-10.79 8.86-16.84 12.37-7.72 4.85-16.64 7.09-25.01 10.49-27.81.3-55.64.07-83.46.28-6.42-.07-12.85.2-19.27-.17 6.7-2.8 13.25-6.1 20.4-7.65 14-3.75 28.55-3.74 42.86-5.37 17-.69 34.6-2.04 50.03-9.84 17.07-8.32 29.76-24.94 33.54-43.51 1.79-7.49-.69-15.63-5.6-21.43-5.16-5.51-12.39-8.59-19.6-10.4-12.58-2.95-25.57-2.88-38.38-3.84-23.67-.26-47.35-.29-71.02-.24-6.01-.12-12.01.01-17.99.66-12.48.74-25.11 1.79-37.1 5.58-9.73 3.42-19.14 8.3-26.65 15.49-13.36 12.16-22.45 27.98-31.53 43.38-17.17 29.59-33.87 59.45-50.87 89.12-10.44 18.62-21.33 36.98-31.21 55.9-7.66 15.36-14 31.95-14.07 49.34 1.07 15.44 6.31 30.33 13.4 43.99 10.77 22.05 23.71 42.93 35.66 64.33 9.56 16.51 18.84 33.33 30.92 48.17 5.87 7.24 13.9 13.35 23.27 14.9 8.51 1.26 16.63-3.3 22.5-9.08 13.81-13.76 20.12-34.14 17.96-53.36-2.14-17.81-10.63-33.86-18.61-49.63-6.76-14.21-13.91-28.5-16.94-44.07-.93-4.52-1.06-9.15-1.7-13.71 1.6 1.36 2.47 3.29 3.41 5.13 6.8 11.84 13.29 23.85 20.17 35.66 4.4 8.14 9.5 15.92 13.53 24.23 5.17 14.21 12.44 28.05 13.38 43.43.16 8.95.7 18.09-1.77 26.82-3.93 15.3-11.57 29.88-22.78 41.11-5.08 4.85-10.99 9.22-17.87 11.03-9.03 1.76-18.87.74-26.64-4.5-8.45-4.71-13.55-13.19-20.68-19.43-24.03-41.97-47.93-84.03-71.83-126.08-1.36-2.44-3.15-4.7-3.9-7.42-1.48-8.92-4.43-17.55-5-26.61-1.82-14.49 2.67-28.64 6.28-42.48 4.77-9.46 10.64-18.35 15.47-27.79 39.48-68.66 78.17-137.77 117.88-206.3z" fill="#7d55a1"/><path d="m441.59 75.25c11.71-.64 23.44-.01 35.16-.15 7.77 6.35 13.21 15.05 16.13 24.62l.1.29c-5.93 9.61-11.17 19.64-16.87 29.39.49-3.8.86-7.61 1.42-11.41 1.38-10.23-1-21.51-8.49-29-7.19-7.77-17.71-10.61-27.45-13.74z" fill="#68458a"/><g fill="#573979"><path d="m476.75 75.1c10.02-.37 20.05.27 30.08.18-4.77 8.09-8.96 16.5-13.95 24.44-2.92-9.57-8.36-18.27-16.13-24.62z"/><path d="m1493.18 75.28c9.33.1 18.66-.51 27.99-.2-6.87 6.48-12.52 14.45-14.7 23.77-4.54-7.8-8.79-15.75-13.29-23.57z"/></g><path d="m1521.17 75.08c8.07.13 16.15-.42 24.21.15-7.25 3.28-14.65 7.04-19.75 13.35-7.04 8.02-7.94 19.35-7.91 29.55-4.18-6.17-7.32-12.96-11.25-19.28 2.18-9.32 7.83-17.29 14.7-23.77z" fill="#644387"/><path d="m1545.38 75.23c49.2-.34 98.41-.13 147.62-.18 16.52.06 33.06-.05 49.59.21 9.24 3.88 18.1 8.63 26.69 13.8 20.51 35.15 40.26 70.73 60.6 105.98 21.39 37.9 43.14 75.6 64.53 113.51 3.82 7.03 8.24 13.77 11.68 20.99.5 10.56.43 21.15.09 31.71-31.03 54.6-62.14 109.16-93.2 163.75-.83 1.36-1.32 3.03-2.65 4-6.91 4.39-13.5 9.88-21.74 11.5-9.43 2.41-19.68-.1-27.47-5.74-3.5-2.55-6.94-5.18-10.43-7.73-1.52-1.19-2.09-3.12-3.03-4.7-8.33-14.59-16.77-29.18-24.74-43.93-1.04-9.39.74-18.74.41-28.12.02-.81.25-1.55.69-2.24 15.93-28.2 31.97-56.43 48.15-84.46-5.73 29.74-26.49 53.83-33.39 83.2-1.96 7.93-1.39 16.17-1.4 24.26.05 11.53 4.89 22.32 10.41 32.21 3.89 7.08 9.41 13.19 15.69 18.25 5.16 4.25 11.84 6.46 18.53 6.18 7.86.25 15-3.93 20.78-8.89 11.23-9.8 18.91-22.76 26.63-35.31 11.5-19.58 22.64-39.37 33.93-59.07 9.04-16.28 18.85-32.32 25.02-49.97 5.24-14.49 6.88-30.39 3.63-45.51-2.29-11.74-7.38-22.66-12.73-33.27-6.62-13.7-14.44-26.76-21.89-40.02-19.2-33.83-38.34-67.69-57.69-101.44-9.05-14.97-17.53-30.5-29.31-43.57-10.25-11.62-23.97-20.15-39-23.98-21.01-5.48-42.89-4.06-64.37-4.26-26.31.08-52.63-.15-78.94.12-13.27 1.07-27.27 1.73-39.08 8.55-7.39 4.04-12.81 11.53-14.17 19.85-1.53 14.2 4.49 28.2 12.85 39.4 9.25 13.52 23.62 23.27 39.37 27.6 27.89 7.72 57.83 2.57 85.39 11.9-31.64.38-63.31.13-94.94-.08-9.33-3.87-18.04-8.95-26.8-13.91-4.05-5.9-7.17-12.41-10.9-18.52-7.4-13.04-15.02-25.97-22.07-39.17-.03-10.2.87-21.53 7.91-29.55 5.1-6.31 12.5-10.07 19.75-13.35z" fill="#77519b"/><g fill="#654488"><path d="m1742.59 75.26c6.27-.56 12.57-.13 18.87-.16 2.54 4.69 5.51 9.15 7.82 13.96-8.59-5.17-17.45-9.92-26.69-13.8z"/><path d="m1550.69 175.82c8.76 4.96 17.47 10.04 26.8 13.91-6.31.58-12.64.12-18.96.18-2.71-4.63-5.8-9.11-7.84-14.09z"/><path d="m1718.18 458.22c1.68-2.67 2.64-5.86 5.15-7.94.33 9.38-1.45 18.73-.41 28.12-3.01-4.27-5.33-8.97-7.93-13.48.34-2.5 1.97-4.55 3.19-6.7z"/></g><path d="m594.24 78.4c51.26-.47 102.52-.24 153.79-.3h496.98c41.84.08 83.7-.16 125.54.15 10.42 3.21 21.25 5.79 30.49 11.87 8.03 4.41 13.98 11.5 21.22 16.94 21.61 37.09 42.44 74.63 63.92 111.8 10.26 18.61 21.05 36.94 31.5 55.45 50.76 89.23 101.56 178.45 152.37 267.66 1.54 2.59 3.28 5.12 4.12 8.07-4.08-.01-8.15-.08-12.21-.02-8.59-14.22-16.54-28.8-24.89-43.16-19.94-34.18-39.15-68.78-58.9-103.08-35.02-62.21-70.86-123.96-105.71-186.28-8.8-15.53-17.56-31.09-26.46-46.55-9.27-15.85-18.14-32-29.25-46.66-5.79-7.15-12.29-13.81-19.62-19.39-15.12-10.55-33.96-14.11-52.09-14.42-9.37.47-18.65-1.4-28.02-.99-213.66.05-427.33-.01-640.99.03-5.03.12-10 .99-15.02.98-19.84-.45-40.76 2.66-57.51 13.99-11.09 8.14-20.21 18.76-27.75 30.21-9.69 14.87-18.42 30.33-27.15 45.77-36.09 63.61-72.08 127.28-108.34 190.8-33.88 59.7-67.68 119.46-102.29 178.74h-1.06c-3.73-.02-7.46.01-11.18.02 1.1-3.12 2.92-5.87 4.58-8.7 74.02-129.99 148.07-259.97 222-390.01 13.91-24.34 27.77-48.73 41.93-72.92z" fill="#7c54a0"/><path d="m1370.55 78.25c11.72-.61 23.47-.05 35.21-.04 5.81 9.42 11.22 19.12 16.5 28.85-7.24-5.44-13.19-12.53-21.22-16.94-9.24-6.08-20.07-8.66-30.49-11.87z" fill="#6a478d"/><path d="m1548.99 91.06c11.81-6.82 25.81-7.48 39.08-8.55 26.31-.27 52.63-.04 78.94-.12 21.48.2 43.36-1.22 64.37 4.26 15.03 3.83 28.75 12.36 39 23.98 11.78 13.07 20.26 28.6 29.31 43.57 19.35 33.75 38.49 67.61 57.69 101.44 7.45 13.26 15.27 26.32 21.89 40.02 5.35 10.61 10.44 21.53 12.73 33.27 3.25 15.12 1.61 31.02-3.63 45.51-6.17 17.65-15.98 33.69-25.02 49.97-11.29 19.7-22.43 39.49-33.93 59.07-7.72 12.55-15.4 25.51-26.63 35.31-5.78 4.96-12.92 9.14-20.78 8.89-6.69.28-13.37-1.93-18.53-6.18-6.28-5.06-11.8-11.17-15.69-18.25-5.52-9.89-10.36-20.68-10.41-32.21.01-8.09-.56-16.33 1.4-24.26 6.9-29.37 27.66-53.46 33.39-83.2 1.74-3.93 4.25-7.45 6.21-11.27 1.35-2.83 4.01-5.24 3.67-8.63-3.92-5.36-6.74-11.5-10.11-17.2-.66-10-5.13-19.12-9.14-28.13-8.09-16.57-17.2-32.62-26.62-48.47-9.26-14.74-18.04-30.35-31.4-41.83-4.26-5.67-6.68-12.56-11.11-18.09-7.08.01-14.17.12-21.24-.15-27.56-9.33-57.5-4.18-85.39-11.9-15.75-4.33-30.12-14.08-39.37-27.6-8.36-11.2-14.38-25.2-12.85-39.4 1.36-8.32 6.78-15.81 14.17-19.85m44.44 2.58c-7.81.75-15.71 1.32-23.21 3.76-6.54 1.8-13.01 5.18-16.76 11.03-3.9 5.47-3.37 12.59-2.64 18.91 5.02 19.82 22.31 34.99 41.79 39.99 13.47 3.85 27.55 4 41.41 5.13 19.54.93 39.53 3.47 57.31 12.15 7.94 4.4 15.61 9.48 22.01 15.98 12.56 11.91 21.72 26.79 30.57 41.52 8.05 13.14 15.45 26.65 22.82 40.17 8.99 16.9 16.86 34.84 19.06 54.03 1.71 9.52-.09 19.18-1.89 28.55-5.21 23.86-18.77 44.59-28.15 66.85-3.55 8.64-6.75 17.77-6.34 27.24.16 6.22-.55 12.58 1 18.69 3.01 12.1 9.83 23.61 20.43 30.51 4.67 2.91 10.45 2.71 15.73 2.21 6.57-1.18 11.6-6.04 16.13-10.62 7.32-7.25 12.86-16 18.28-24.7 7.67-12.48 14.69-25.34 22.01-38.03 10.71-18.81 21.92-37.4 30.76-57.2 3.69-8.41 6.66-17.24 7.58-26.43.43-8.41.71-17.02-1.63-25.21-4.68-18.43-14.23-35.07-23.57-51.46-10.05-18.17-20.65-36.03-30.7-54.19-8.8-15.24-17.22-30.7-26.11-45.88-9.74-16.73-18.85-33.93-30.37-49.53-9.4-12.83-22.22-23.69-37.61-28.41-17.2-5.64-35.47-5.42-53.35-5.29-28.19.12-56.39-.21-84.56.23z" fill="#865cab"/><path d="m266.88 93.79c11.99-3.79 24.62-4.84 37.1-5.58 5.98-.65 11.98-.78 17.99-.66 23.67-.05 47.35-.02 71.02.24 12.81.96 25.8.89 38.38 3.84 7.21 1.81 14.44 4.89 19.6 10.4 4.91 5.8 7.39 13.94 5.6 21.43-3.78 18.57-16.47 35.19-33.54 43.51-15.43 7.8-33.03 9.15-50.03 9.84-14.31 1.63-28.86 1.62-42.86 5.37-7.15 1.55-13.7 4.85-20.4 7.65-1.06.11-2.12.19-3.19.24-.77.67-1.55 1.32-2.35 1.95-14.25 8.12-24.65 21.15-33.85 34.42-10.61 16.02-20.03 32.78-29.29 49.6-11.48 20.87-22.63 43.23-23.12 67.55-.19 1.74.6 3.34 1.07 4.97.64 4.56.77 9.19 1.7 13.71 3.03 15.57 10.18 29.86 16.94 44.07 7.98 15.77 16.47 31.82 18.61 49.63 2.16 19.22-4.15 39.6-17.96 53.36-5.87 5.78-13.99 10.34-22.5 9.08-9.37-1.55-17.4-7.66-23.27-14.9-12.08-14.84-21.36-31.66-30.92-48.17-11.95-21.4-24.89-42.28-35.66-64.33-7.09-13.66-12.33-28.55-13.4-43.99.07-17.39 6.41-33.98 14.07-49.34 9.88-18.92 20.77-37.28 31.21-55.9 17-29.67 33.7-59.53 50.87-89.12 9.08-15.4 18.17-31.22 31.53-43.38 7.51-7.19 16.92-12.07 26.65-15.49m34.56 9.93c-3.41.4-6.82.75-10.24.94-12.95 1.34-25.95 5.17-36.44 13.12-12.38 9.49-20.92 22.84-28.92 36-16.98 29.14-33.33 58.64-50.15 87.88-10.03 18.21-20.97 35.91-30.62 54.34-6.25 10.77-11.45 22.27-14.45 34.4-1.54 5.73-1.06 11.7-1.15 17.56-.43 8.74 2.4 17.18 5.29 25.3 8.63 20.21 20.12 39.02 30.94 58.1 7.03 12.22 13.89 24.56 21.64 36.35 3.42 5.14 6.7 10.42 11 14.89 4.41 4.72 9.17 9.74 15.71 11.26 4.24 1.48 8.94.26 12.48-2.32 6.78-5.11 10.98-13.04 12.7-21.24.55-4.43.2-8.91.28-13.36.1-5.86-1.8-11.48-3.57-16.99-2.98-9.48-7.88-18.17-11.79-27.27-5.12-10.13-10.34-20.24-13.98-31.01-7.15-18.9-8.99-39.85-4.16-59.54 6.41-26.37 21.04-49.57 34-73.07 10.95-18.87 22.16-37.85 37.02-53.97 9.28-9.14 20.03-17 32.05-22.16 15.13-6.48 31.57-9.27 47.9-10.41 6.04.03 11.99-1.27 18.04-1.1 11.81-.83 23.87-1.87 34.85-6.67 11.73-4.94 22.43-14.89 24.57-27.91.35-5.51-1.75-11.51-6.37-14.8-6.99-5.1-15.8-6.65-24.23-7.4-5.99-.04-11.88-1.36-17.88-1.14-28.17.17-56.36-.29-84.52.22z" fill="#9163b6"/><path d="m661.01 90.5c5.02.01 9.99-.86 15.02-.98 213.66-.04 427.33.02 640.99-.03 9.37-.41 18.65 1.46 28.02.99 18.13.31 36.97 3.87 52.09 14.42 7.33 5.58 13.83 12.24 19.62 19.39 11.11 14.66 19.98 30.81 29.25 46.66 8.9 15.46 17.66 31.02 26.46 46.55 34.85 62.32 70.69 124.07 105.71 186.28 19.75 34.3 38.96 68.9 58.9 103.08 8.35 14.36 16.3 28.94 24.89 43.16-3.99.04-7.97-.01-11.94-.06-2.33-.03-4.64-.03-6.93.01-7.99-14.86-16.69-29.33-24.95-44.04-36.99-64.73-73.66-129.63-110.63-194.37-27.46-47.92-54.46-96.1-82.02-143.96-8.77-14.58-17.17-29.68-29.35-41.75-7.73-7.25-17.03-12.97-27.3-15.72-18.45-5.48-37.84-4.31-56.82-5.02-7.36.21-14.73.76-22.05-.17-6.66-.89-13.28.59-19.93.52-6-.03-11.99-.09-17.98-.05-7.37.1-14.69-1.38-22.05-.69-8.96.88-18 1.08-26.97.23-5.69-.59-11.35.52-17.03.5-8.35-.03-16.68-.07-25.02.01-7.67.16-15.29-1.19-22.96-.91-8.01.21-16.05-.32-24.04.42-7.99.9-15.97-.66-23.98-.34-7.7-.4-15.36 1.35-23.04.4-12.32-1.27-24.67.45-36.99-.25-10.63.96-21.3.57-31.96.67-6.67.05-13.29-1.12-19.96-.88-6.35.17-12.7.08-19.05.02-5.35-.06-10.65 1.07-16 .68-7.64-.74-15.32-.11-22.97-.4-9.68 1.02-19.34-1.13-29.01-.06-11.31 1.17-22.68.64-33.98-.19-17.32 1.2-34.7.69-52.04.77-10.01-.73-20.05-1.09-30.08-.74-13.6 1.09-27.32 1.22-40.92.02-6-.38-11.96 1.22-17.96.54-8.33-.96-16.72-.45-25.08-.63-6.34-.13-12.62.98-18.95.95-11.81-.18-23.67.78-35.25 3.12-15.81 3.13-30.18 12.33-40.08 24.98-8.77 10.93-15.76 23.14-22.89 35.17-72.52 126.97-144.51 254.24-217.1 381.18-3.21-.04-6.42.05-9.63.06-3.03-.01-6.07-.02-9.1-.03 34.61-59.28 68.41-119.04 102.29-178.74 36.26-63.52 72.25-127.19 108.34-190.8 8.73-15.44 17.46-30.9 27.15-45.77 7.54-11.45 16.66-22.07 27.75-30.21 16.75-11.33 37.67-14.44 57.51-13.99z" fill="#9063b5"/><path d="m1593.43 93.64c28.17-.44 56.37-.11 84.56-.23 17.88-.13 36.15-.35 53.35 5.29 15.39 4.72 28.21 15.58 37.61 28.41 11.52 15.6 20.63 32.8 30.37 49.53 8.89 15.18 17.31 30.64 26.11 45.88 10.05 18.16 20.65 36.02 30.7 54.19 9.34 16.39 18.89 33.03 23.57 51.46 2.34 8.19 2.06 16.8 1.63 25.21-.92 9.19-3.89 18.02-7.58 26.43-8.84 19.8-20.05 38.39-30.76 57.2-7.32 12.69-14.34 25.55-22.01 38.03-5.42 8.7-10.96 17.45-18.28 24.7-4.53 4.58-9.56 9.44-16.13 10.62-5.28.5-11.06.7-15.73-2.21-10.6-6.9-17.42-18.41-20.43-30.51-1.55-6.11-.84-12.47-1-18.69-.41-9.47 2.79-18.6 6.34-27.24 9.38-22.26 22.94-42.99 28.15-66.85 1.8-9.37 3.6-19.03 1.89-28.55-2.2-19.19-10.07-37.13-19.06-54.03-7.37-13.52-14.77-27.03-22.82-40.17-8.85-14.73-18.01-29.61-30.57-41.52-6.4-6.5-14.07-11.58-22.01-15.98-17.78-8.68-37.77-11.22-57.31-12.15-13.86-1.13-27.94-1.28-41.41-5.13-19.48-5-36.77-20.17-41.79-39.99-.73-6.32-1.26-13.44 2.64-18.91 3.75-5.85 10.22-9.23 16.76-11.03 7.5-2.44 15.4-3.01 23.21-3.76m17.95 15.86c-11.12 1.48-24.24.48-32.73 9.2-4.07 3.43-4 9.48-2.37 14.11 2.89 6.92 8.92 12.06 15.4 15.54 9.39 4.46 19.8 6.32 30.11 7.09 17.73.71 35.47 2.23 52.86 5.96 21.13 5.02 40.63 16.6 55.06 32.85 11.29 11.88 19.52 26.13 28.14 39.95 9.32 15.55 18.08 31.42 26.55 47.45 9.49 18.47 16.99 38.41 18.05 59.34.62 20.6-5.28 40.92-14.09 59.38-3.24 6.23-5.73 12.81-9 19.03-5.79 11.17-11.1 22.97-12.38 35.63-1.02 6.48.38 13.13 2.84 19.14 2.27 5.15 7.03 10.39 13.22 9.54 7.42.74 13.1-5.03 17.57-10.15 7.59-8.41 12.86-18.48 18.87-27.99 7.27-12.47 14.35-25.04 21.62-37.51 9.31-16.41 19.27-33.01 23.24-51.68 3.9-18.44-3.33-36.86-11.66-53-9.99-18.27-20.51-36.24-30.76-54.36-18.08-31.59-35.76-63.41-54.09-94.86-8.13-13.04-16.84-26.65-30.36-34.68-9.72-6.14-21.15-8.67-32.47-9.64-13.66-.95-27.35-1.6-41.05-1.14-8.32-.46-16.6 1.02-24.89.13-9.21 1.02-18.45.33-27.68.67z" fill="#9768bd"/><path d="m301.44 103.72c28.16-.51 56.35-.05 84.52-.22 6-.22 11.89 1.1 17.88 1.14 8.43.75 17.24 2.3 24.23 7.4 4.62 3.29 6.72 9.29 6.37 14.8-2.14 13.02-12.84 22.97-24.57 27.91-10.98 4.8-23.04 5.84-34.85 6.67-6.05-.17-12 1.13-18.04 1.1-16.33 1.14-32.77 3.93-47.9 10.41-12.02 5.16-22.77 13.02-32.05 22.16-14.86 16.12-26.07 35.1-37.02 53.97-12.96 23.5-27.59 46.7-34 73.07-4.83 19.69-2.99 40.64 4.16 59.54 3.64 10.77 8.86 20.88 13.98 31.01 3.91 9.1 8.81 17.79 11.79 27.27 1.77 5.51 3.67 11.13 3.57 16.99-.08 4.45.27 8.93-.28 13.36-1.72 8.2-5.92 16.13-12.7 21.24-3.54 2.58-8.24 3.8-12.48 2.32-6.54-1.52-11.3-6.54-15.71-11.26-4.3-4.47-7.58-9.75-11-14.89-7.75-11.79-14.61-24.13-21.64-36.35-10.82-19.08-22.31-37.89-30.94-58.1-2.89-8.12-5.72-16.56-5.29-25.3.09-5.86-.39-11.83 1.15-17.56 3-12.13 8.2-23.63 14.45-34.4 9.65-18.43 20.59-36.13 30.62-54.34 16.82-29.24 33.17-58.74 50.15-87.88 8-13.16 16.54-26.51 28.92-36 10.49-7.95 23.49-11.78 36.44-13.12 3.42-.19 6.83-.54 10.24-.94M170.77 306.84c-5.92 7.47-11.83 15.39-14.25 24.77-1.71 6.31-3.24 12.95-1.91 19.48 1.15 5.54 2.77 11.03 5.21 16.15 4.98 9.11 10.42 18.89 20.18 23.59.92-12.3-.49-24.57-1.16-36.84-.5-4.78-.83-9.6-.21-14.38.78-6.2.49-12.46 1.16-18.67.66-6.5.66-13.06.15-19.57-3.42 1.08-6.97 2.46-9.17 5.47z" fill="#a673cc"/><path d="m672.02 105.53c6.33.03 12.61-1.08 18.95-.95 8.36.18 16.75-.33 25.08.63 6 .68 11.96-.92 17.96-.54 13.6 1.2 27.32 1.07 40.92-.02 10.03-.35 20.07.01 30.08.74 17.34-.08 34.72.43 52.04-.77 11.3.83 22.67 1.36 33.98.19 9.67-1.07 19.33 1.08 29.01.06 7.65.29 15.33-.34 22.97.4 5.35.39 10.65-.74 16-.68 6.35.06 12.7.15 19.05-.02 6.67-.24 13.29.93 19.96.88 10.66-.1 21.33.29 31.96-.67 12.32.7 24.67-1.02 36.99.25 7.68.95 15.34-.8 23.04-.4 8.01-.32 15.99 1.24 23.98.34 7.99-.74 16.03-.21 24.04-.42 7.67-.28 15.29 1.07 22.96.91 8.34-.08 16.67-.04 25.02-.01 5.68.02 11.34-1.09 17.03-.5 8.97.85 18.01.65 26.97-.23 7.36-.69 14.68.79 22.05.69 5.99-.04 11.98.02 17.98.05 6.65.07 13.27-1.41 19.93-.52 7.32.93 14.69.38 22.05.17 18.98.71 38.37-.46 56.82 5.02 10.27 2.75 19.57 8.47 27.3 15.72 12.18 12.07 20.58 27.17 29.35 41.75 27.56 47.86 54.56 96.04 82.02 143.96 36.97 64.74 73.64 129.64 110.63 194.37 8.26 14.71 16.96 29.18 24.95 44.04-.87.02-2.61.05-3.48.07-5.58.06-11.15-.16-16.71-.03l-1.01.01c-36.8-64.26-73.29-128.69-109.88-193.08-18.49-32.23-36.83-64.55-55.22-96.84-16.87-29.18-33.2-58.66-50.13-87.81-5.71-9.67-11.84-19.17-19.43-27.5-9.91-11.78-25.17-18.1-40.31-19.19-10.9-1.54-21.92-.95-32.88-1.04-216.02-.01-432.05.01-648.07-.01-13.26.77-27.16 1.72-38.89 8.61-15.91 8.92-25.21 25.33-34.45 40.39-16.71 28.71-32.78 57.78-49.45 86.5-55.08 96.62-109.85 193.41-165.04 289.95-5.92-.14-11.84.14-17.76.04-.92-.02-2.76-.05-3.68-.06 72.59-126.94 144.58-254.21 217.1-381.18 7.13-12.03 14.12-24.24 22.89-35.17 9.9-12.65 24.27-21.85 40.08-24.98 11.58-2.34 23.44-3.3 35.25-3.12z" fill="#a370c9"/><path d="m1611.38 109.5c9.23-.34 18.47.35 27.68-.67 8.29.89 16.57-.59 24.89-.13 13.7-.46 27.39.19 41.05 1.14 11.32.97 22.75 3.5 32.47 9.64 13.52 8.03 22.23 21.64 30.36 34.68 18.33 31.45 36.01 63.27 54.09 94.86 10.25 18.12 20.77 36.09 30.76 54.36 8.33 16.14 15.56 34.56 11.66 53-3.97 18.67-13.93 35.27-23.24 51.68-7.27 12.47-14.35 25.04-21.62 37.51-6.01 9.51-11.28 19.58-18.87 27.99-4.47 5.12-10.15 10.89-17.57 10.15-6.19.85-10.95-4.39-13.22-9.54-2.46-6.01-3.86-12.66-2.84-19.14 1.28-12.66 6.59-24.46 12.38-35.63 3.27-6.22 5.76-12.8 9-19.03 8.81-18.46 14.71-38.78 14.09-59.38-1.06-20.93-8.56-40.87-18.05-59.34-8.47-16.03-17.23-31.9-26.55-47.45-8.62-13.82-16.85-28.07-28.14-39.95-14.43-16.25-33.93-27.83-55.06-32.85-17.39-3.73-35.13-5.25-52.86-5.96-10.31-.77-20.72-2.63-30.11-7.09-6.48-3.48-12.51-8.62-15.4-15.54-1.63-4.63-1.7-10.68 2.37-14.11 8.49-8.72 21.61-7.72 32.73-9.2z" fill="#a874ce"/><path d="m627.08 133.16c11.73-6.89 25.63-7.84 38.89-8.61 216.02.02 432.05.0 648.07.01 10.96.09 21.98-.5 32.88 1.04 15.14 1.09 30.4 7.41 40.31 19.19 7.59 8.33 13.72 17.83 19.43 27.5 16.93 29.15 33.26 58.63 50.13 87.81 18.39 32.29 36.73 64.61 55.22 96.84 36.59 64.39 73.08 128.82 109.88 193.08-6.3.05-12.59-.07-18.87.0-79.8-.09-159.6.06-239.4.02-40.74-.06-81.49-.07-122.23.0-160.91-.05-321.81-.06-482.72.0-52.78-.07-105.56-.06-158.33.0-66.37-.03-132.73-.06-199.1-.02-7.43-.08-14.86.07-22.29-.01l-.81-.01c55.19-96.54 109.96-193.33 165.04-289.95 16.67-28.72 32.74-57.79 49.45-86.5 9.24-15.06 18.54-31.47 34.45-40.39z" fill="#b57edc"/><path d="m437.48 179.23c6.05-3.51 11.02-8.52 16.84-12.37-1.36 4.15-4.06 7.62-6.07 11.45-2.3 3.83-4.35 7.81-6.79 11.55-9.66-.11-19.34.55-28.99-.14 8.37-3.4 17.29-5.64 25.01-10.49z" fill="#69468b"/><path d="m270.35 226.44c9.2-13.27 19.6-26.3 33.85-34.42-.85 3.2-2.87 5.86-4.48 8.69-26.02 45.65-52.16 91.23-77.98 136.98-1.1 2.07-2.02 4.29-3.8 5.9.49-24.32 11.64-46.68 23.12-67.55 9.26-16.82 18.68-33.58 29.29-49.6z" fill="#8057a4"/><path d="m1704.78 208.05c13.36 11.48 22.14 27.09 31.4 41.83 9.42 15.85 18.53 31.9 26.62 48.47 4.01 9.01 8.48 18.13 9.14 28.13-21.05-37.08-42.28-74.04-63.3-111.13-1.34-2.41-3.04-4.65-3.86-7.3z" fill="#79529d"/><path d="m170.77 306.84c2.2-3.01 5.75-4.39 9.17-5.47.51 6.51.51 13.07-.15 19.57-.67 6.21-.38 12.47-1.16 18.67-.62 4.78-.29 9.6.21 14.38.67 12.27 2.08 24.54 1.16 36.84-9.76-4.7-15.2-14.48-20.18-23.59-2.44-5.12-4.06-10.61-5.21-16.15-1.33-6.53.2-13.17 1.91-19.48 2.42-9.38 8.33-17.3 14.25-24.77z" fill="#ac78d3"/><g fill="#6e4a91"><path d="m88.15 339.05c5.83-9.79 10.96-20.05 17.16-29.6-3.61 13.84-8.1 27.99-6.28 42.48.57 9.06 3.52 17.69 5 26.61-.74-.76-1.38-1.59-1.95-2.46-5.55-10.1-11.38-20.04-16.98-30.09.35-2.54 1.84-4.74 3.05-6.94z"/><path d="m256.12 413.58c.36.45 1.07 1.34 1.43 1.79 8.92 15.46 17.45 31.14 26.37 46.6.51 1.07 1.3 2.32.69 3.53-16.01 28.23-31.8 56.59-48.27 84.56-11.53-.18-23.08.06-34.61-.11-1.09-.38-1.35-1.77-1.98-2.61-6.51-11.85-13.66-23.35-19.99-35.3 7.13 6.24 12.23 14.72 20.68 19.43 7.77 5.24 17.61 6.26 26.64 4.5 6.88-1.81 12.79-6.18 17.87-11.03 11.21-11.23 18.85-25.81 22.78-41.11 2.47-8.73 1.93-17.87 1.77-26.82-.94-15.38-8.21-29.22-13.38-43.43z"/></g><path d="m1906.09 329.54c2.36 2.6 3.54 5.97 5.44 8.89 1.32 2.41 3.02 4.78 3.43 7.56-2.87 5.12-5.76 10.23-8.78 15.26.34-10.56.41-21.15-.09-31.71z" fill="#68468b"/><path d="m1750.69 527.03c3.49 2.55 6.93 5.18 10.43 7.73 7.79 5.64 18.04 8.15 27.47 5.74 8.24-1.62 14.83-7.11 21.74-11.5-3.25 7.26-7.79 13.88-11.59 20.86l-.47.07c-11.54.21-23.08-.07-34.62.14-4.41-7.62-9.26-15.05-12.96-23.04z" fill="#6b478e"/><g fill="#7b6e8f"><path d="m201.73 549.95c11.53.17 23.08-.07 34.61.11-1.41 3.5-3.88 6.43-5.37 9.9-7.65 1.61-15.5 1.81-23.27 1.1l-.15-.01c-1.71-3.84-4.62-7.04-5.82-11.1z"/><path d="m1763.65 550.07c11.54-.21 23.08.07 34.62-.14-1.2 4.08-4.12 7.28-5.82 11.12l-.15.01c-7.81.68-15.74.63-23.38-1.31-1.46-3.4-3.91-6.24-5.27-9.68z"/></g><path d="m325.2 550.03h.53c3.72-.01 7.45-.04 11.18-.02-27.59 47.26-53.73 95.36-81.12 142.74-11.08 19.44-22.69 38.63-32.12 58.95-5.9 12.26-9.27 25.72-9.97 39.29.82 10.14 2.62 20.33 6.47 29.8 6.89 17.56 16.49 33.87 25.68 50.3 17.16 30.18 34.26 60.39 51.44 90.56 12.51 22.15 25.41 44.08 37.72 66.34-3.66.01-7.32-.02-10.98-.02h-.62c-3.06-7.14-7.54-13.53-11.13-20.39-22.93-39.76-45.4-79.76-68.23-119.58-8.62-15.12-17.35-30.17-25.75-45.4-1.52-2.72-3.45-5.24-4.42-8.22-3.46-10.39-7.95-20.51-9.43-31.46-2.38-13.63-.36-27.7 3.87-40.76 2.02-5.48 4.14-10.91 5.8-16.51 8.87-16.21 18.33-32.09 27.36-48.22 22.11-38.85 44.19-77.74 66.35-116.57 5.81-10.27 11.88-20.39 17.37-30.83z" fill="#a69db4"/><path d="m336.91 550.01h1.06c3.03.01 6.07.02 9.1.03-27.94 49.07-55.55 98.34-83.62 147.34-8.89 16.1-18.59 31.78-26.67 48.32-5.5 10.62-10.38 21.83-12.11 33.74-.37 7.64-.48 15.34.11 22.97 2.83 17.06 11.63 32.24 19.52 47.37 32.02 56.88 64.47 113.52 96.81 170.22 1.44 2.63 2.83 5.3 4.21 7.98-1.47-.01-2.94.0-4.41.01-1.97-.01-3.93-.02-5.9.0-12.31-22.26-25.21-44.19-37.72-66.34-17.18-30.17-34.28-60.38-51.44-90.56-9.19-16.43-18.79-32.74-25.68-50.3-3.85-9.47-5.65-19.66-6.47-29.8.7-13.57 4.07-27.03 9.97-39.29 9.43-20.32 21.04-39.51 32.12-58.95 27.39-47.38 53.53-95.48 81.12-142.74z" fill="#bbb5c6"/><path d="m347.07 550.04c3.21-.01 6.42-.1 9.63-.06.92.01 2.76.04 3.68.06-4.87 9.66-10.81 18.73-15.86 28.3-18.86 33.2-37.81 66.36-56.57 99.62-7.7 13.89-15.98 27.45-23.56 41.42-8.9 16.1-18.84 31.87-24.47 49.52-5.28 14.85-4.71 31.59.98 46.25 5.67 15.96 14.54 30.47 22.84 45.16 31.51 56.04 63.65 111.71 95.3 167.67-4.58.05-9.15-.03-13.72.0-1.38-2.68-2.77-5.35-4.21-7.98-32.34-56.7-64.79-113.34-96.81-170.22-7.89-15.13-16.69-30.31-19.52-47.37-.59-7.63-.48-15.33-.11-22.97 1.73-11.91 6.61-23.12 12.11-33.74 8.08-16.54 17.78-32.22 26.67-48.32 28.07-49 55.68-98.27 83.62-147.34z" fill="#d0ccd7"/><path d="m360.38 550.04c5.92.1 11.84-.18 17.76-.04l.81.01c-18.49 31.61-36.28 63.62-54.47 95.39-16.88 29.81-33.92 59.52-50.68 89.39-9.39 16.97-19.51 34.49-21.18 54.22.06 13.75 5.47 26.78 11.38 38.96 16.82 31.54 34.98 62.34 52.49 93.49 14.89 26.39 30.12 52.58 45.08 78.94 5.08 9.24 10.72 18.17 15.48 27.59-3.06.01-6.12.01-9.18.0-2.95-.03-5.89-.04-8.83-.01-31.65-55.96-63.79-111.63-95.3-167.67-8.3-14.69-17.17-29.2-22.84-45.16-5.69-14.66-6.26-31.4-.98-46.25 5.63-17.65 15.57-33.42 24.47-49.52 7.58-13.97 15.86-27.53 23.56-41.42 18.76-33.26 37.71-66.42 56.57-99.62 5.05-9.57 10.99-18.64 15.86-28.3z" fill="#e6e3ea"/><path d="m378.95 550.01c7.43.08 14.86-.07 22.29.01-8.84 15.84-17.73 31.65-26.93 47.29-20 35.91-40.68 71.43-60.79 107.28-9.76 17.23-19.86 34.28-29.04 51.84-6.12 12.27-12.06 25.8-9.83 39.84 1.71 14.02 8.95 26.4 15.4 38.67 31.83 56.42 64.05 112.62 96.05 168.93 4.68 8.03 9.25 16.13 14 24.12-7.68.04-15.37-.04-23.05.0-4.76-9.42-10.4-18.35-15.48-27.59-14.96-26.36-30.19-52.55-45.08-78.94-17.51-31.15-35.67-61.95-52.49-93.49-5.91-12.18-11.32-25.21-11.38-38.96 1.67-19.73 11.79-37.25 21.18-54.22 16.76-29.87 33.8-59.58 50.68-89.39 18.19-31.77 35.98-63.78 54.47-95.39z" fill="#f6f5f7"/><g fill="#fff"><path d="m401.24 550.02c66.37-.04 132.73-.01 199.1.02-15.26 4.57-30.44 10.36-43.33 19.94-11.9 8.98-22.4 19.8-31.13 31.89-11.3 15.18-20.34 31.84-29.99 48.06-10.07 18.8-21.74 36.74-30.9 56.03-8.76 16.98-15.49 35.21-17.81 54.26-1.72 11.93.73 23.98 4.19 35.37 8.37 23.25 29.09 40.66 52.48 47.62 12.73 3.71 25.91 6.28 39.21 6.17 8.18-.11 16.4.33 24.54-.69 17.61-2.11 35.23-6.61 50.75-15.41 11.98-6.44 22.63-15.17 31.66-25.31 7.25-7.76 13.69-16.22 20.78-24.12 6.95-7.14 15.83-13.65 26.17-13.97 10.06-.4 19.23 5.12 26.29 11.82 7.13 7.26 13.17 15.49 20.04 23 8.29 8.73 16.74 17.45 26.77 24.22 9.23 6.96 20.14 11.53 28.81 19.24 3.58 2.63 3.15 7.92.21 10.86-5.28 5.54-11.97 9.44-17.93 14.18-11.33 8.13-21.58 17.73-30.47 28.48-11.27 13.51-20.08 28.82-29.15 43.84-15.7 27.45-31.53 54.83-46.89 82.47-91.51.03-183.03.02-274.54.0-4.75-7.99-9.32-16.09-14-24.12-32-56.31-64.22-112.51-96.05-168.93-6.45-12.27-13.69-24.65-15.4-38.67-2.23-14.04 3.71-27.57 9.83-39.84 9.18-17.56 19.28-34.61 29.04-51.84 20.11-35.85 40.79-71.37 60.79-107.28 9.2-15.64 18.09-31.45 26.93-47.29z"/><path d="m758.67 550.04c160.91-.06 321.81-.05 482.72.0-10.02 1.4-20.22 1.48-30.06 3.99-25.85 4.74-49.81 18.5-67.12 38.23-10.78 12.29-19.69 26.05-28.04 40.06-8.41 14.28-16.75 28.62-24.91 43.05-9.89 17.82-20.06 35.62-27.32 54.73-6.14 17.54-10.21 36.76-5.42 55.15 3.42 15.61 13.03 29 24.09 40.19 6.8 6.84 15.26 11.93 21.25 19.59-1.33 2.72-3.01 5.68-6.29 6.23-10.65 2.63-21.6 3.77-32.5 4.79-9.22.98-18.52-.12-27.73 1.05-12.75.92-25.55.18-38.32.41-14-.27-28.05.69-42-.78-7.35-.57-14.73.14-22.06-.66-11.16-1.13-22.44-2.11-33.31-4.93-3.1-.58-4.37-3.56-5.48-6.12 6.2-7.77 14.7-13.19 21.73-20.12 10.71-10.82 19.76-23.83 23.33-38.82 5.16-19.62.88-40.32-6.39-58.82-6.92-17.59-16.08-34.18-25.36-50.62-15.5-26.01-28.93-53.45-47.81-77.29-6.37-8.24-13.65-15.78-21.89-22.17-15.07-12.4-33.66-19.99-52.75-23.49-9.29-2.4-18.92-2.27-28.36-3.65z"/><path d="m1363.62 550.04c79.8.04 159.6-.11 239.4-.02 8.71 14.39 16.58 29.26 25.12 43.74 27.61 48.46 55.11 96.97 82.63 145.47 8.64 16.16 19.34 32.75 19.01 51.77.41 11.84-4.63 22.87-9.62 33.29-8.34 15.83-17.32 31.3-26 46.94-19.13 32.93-37.6 66.23-56.74 99.16-10.76 19.26-21.96 38.26-32.59 57.6-94.94.02-189.88.03-284.81-.01-8.93-16.55-18.7-32.63-27.69-49.14-11.28-19.33-21.9-39.08-34.34-57.71-8.3-12.45-18.04-23.94-29.23-33.88-12.42-10.46-26.62-18.46-40.76-26.32-3.34-2.14-8.57-4.67-7.46-9.48 1.91-3.08 5.42-4.64 8.44-6.41 9.72-4.89 19.73-9.23 29.17-14.67 13.26-7.25 24.56-17.51 34.69-28.62 9.27-10 16.87-21.73 28.02-29.85 7.25-5.33 16.42-8.57 25.48-7.15 10.23 1.36 18.72 8.01 25.7 15.2 7.36 8.02 13.86 16.81 21.56 24.51 5.67 5.65 11.15 11.57 17.59 16.38 20.21 15.37 45.64 22.67 70.8 23.67 9.1-.05 18.24.37 27.31-.73 12.1-1.24 24-4.4 35.16-9.23 12.36-5.43 22.91-14.47 30.97-25.22 6.45-9.64 10.85-20.78 12.1-32.35 1.34-9.27.03-18.64-1.53-27.79-2.99-14.56-8.89-28.33-15.4-41.63-9.06-18.03-19.27-35.44-29.17-53.01-9.75-16.42-18.81-33.32-30.23-48.67-9.65-12.88-20.7-24.98-34.13-34-13.98-9.55-30.2-15.45-46.79-18.49-8.76-2.06-17.79-2.08-26.66-3.35z"/></g><path d="m600.34 550.04c52.77-.06 105.55-.07 158.33.0 9.44 1.38 19.07 1.25 28.36 3.65 19.09 3.5 37.68 11.09 52.75 23.49 8.24 6.39 15.52 13.93 21.89 22.17 18.88 23.84 32.31 51.28 47.81 77.29 9.28 16.44 18.44 33.03 25.36 50.62 7.27 18.5 11.55 39.2 6.39 58.82-3.57 14.99-12.62 28-23.33 38.82-7.03 6.93-15.53 12.35-21.73 20.12 1.11 2.56 2.38 5.54 5.48 6.12 10.87 2.82 22.15 3.8 33.31 4.93 7.33.8 14.71.09 22.06.66 13.95 1.47 28 .51 42 .78 12.77-.23 25.57.51 38.32-.41 9.21-1.17 18.51-.07 27.73-1.05 10.9-1.02 21.85-2.16 32.5-4.79 3.28-.55 4.96-3.51 6.29-6.23-5.99-7.66-14.45-12.75-21.25-19.59-11.06-11.19-20.67-24.58-24.09-40.19-4.79-18.39-.72-37.61 5.42-55.15 7.26-19.11 17.43-36.91 27.32-54.73 8.16-14.43 16.5-28.77 24.91-43.05 8.35-14.01 17.26-27.77 28.04-40.06 17.31-19.73 41.27-33.49 67.12-38.23 9.84-2.51 20.04-2.59 30.06-3.99 40.74-.07 81.49-.06 122.23.0 8.87 1.27 17.9 1.29 26.66 3.35 16.59 3.04 32.81 8.94 46.79 18.49 13.43 9.02 24.48 21.12 34.13 34 11.42 15.35 20.48 32.25 30.23 48.67 9.9 17.57 20.11 34.98 29.17 53.01 6.51 13.3 12.41 27.07 15.4 41.63 1.56 9.15 2.87 18.52 1.53 27.79-1.25 11.57-5.65 22.71-12.1 32.35-8.06 10.75-18.61 19.79-30.97 25.22-11.16 4.83-23.06 7.99-35.16 9.23-9.07 1.1-18.21.68-27.31.73-25.16-1-50.59-8.3-70.8-23.67-6.44-4.81-11.92-10.73-17.59-16.38-7.7-7.7-14.2-16.49-21.56-24.51-6.98-7.19-15.47-13.84-25.7-15.2-9.06-1.42-18.23 1.82-25.48 7.15-11.15 8.12-18.75 19.85-28.02 29.85-10.13 11.11-21.43 21.37-34.69 28.62-9.44 5.44-19.45 9.78-29.17 14.67-3.02 1.77-6.53 3.33-8.44 6.41-1.11 4.81 4.12 7.34 7.46 9.48 14.14 7.86 28.34 15.86 40.76 26.32 11.19 9.94 20.93 21.43 29.23 33.88 12.44 18.63 23.06 38.38 34.34 57.71 8.99 16.51 18.76 32.59 27.69 49.14-4.01.03-8.02.0-12.01.01l-.76.01c-9.11-17.13-19.14-33.75-28.55-50.71-7.81-13.2-14.95-26.81-23.36-39.66-8.02-12.93-16.85-25.51-28.06-35.91-14.35-14-32.51-24.03-51.92-28.96-8.04-1.89-16.15-3.51-24.35-4.48-10.29-1.36-20.69-.9-31.03-1.37-13.64.65-27.32-.06-40.93 1.35-52.35.04-104.7-.02-157.05.02-7.01-.12-13.96-1.28-20.97-1.1-13.01.23-26.01.02-39 .14-12.11.11-24.06 2.36-35.82 5.04-16.15 3.78-31.26 11.4-44.43 21.4-9.7 7.9-18.54 16.94-25.81 27.14-11.77 16.34-21.69 33.9-31.76 51.31-10.4 18.66-21.32 37.02-31.51 55.79-6.02-.03-12.05.02-18.06-.01 15.36-27.64 31.19-55.02 46.89-82.47 9.07-15.02 17.88-30.33 29.15-43.84 8.89-10.75 19.14-20.35 30.47-28.48 5.96-4.74 12.65-8.64 17.93-14.18 2.94-2.94 3.37-8.23-.21-10.86-8.67-7.71-19.58-12.28-28.81-19.24-10.03-6.77-18.48-15.49-26.77-24.22-6.87-7.51-12.91-15.74-20.04-23-7.06-6.7-16.23-12.22-26.29-11.82-10.34.32-19.22 6.83-26.17 13.97-7.09 7.9-13.53 16.36-20.78 24.12-9.03 10.14-19.68 18.87-31.66 25.31-15.52 8.8-33.14 13.3-50.75 15.41-8.14 1.02-16.36.58-24.54.69-13.3.11-26.48-2.46-39.21-6.17-23.39-6.96-44.11-24.37-52.48-47.62-3.46-11.39-5.91-23.44-4.19-35.37 2.32-19.05 9.05-37.28 17.81-54.26 9.16-19.29 20.83-37.23 30.9-56.03 9.65-16.22 18.69-32.88 29.99-48.06 8.73-12.09 19.23-22.91 31.13-31.89 12.89-9.58 28.07-15.37 43.33-19.94m70.1 10.63c-12.43 1.71-25.02-.22-37.45 1.48-26.28 1.12-53.08 9.18-73.21 26.64-7.04 5.26-12.46 12.24-18.09 18.91-12.97 16.3-22.94 34.66-33.5 52.54-9.21 16.19-18.71 32.22-27.07 48.88-7.01 14.37-13.16 29.41-15.5 45.32-.44 6.19-.23 12.42-.17 18.63 1.03 14.18 7.47 27.88 17.83 37.66 11.46 11.24 26.95 17.77 42.68 20.25 10.18 2.35 20.67 1.44 31.03 1.65 10.29.21 20.45-1.93 30.4-4.33 19.13-4.87 36.02-16.2 49.77-30.14 4.76-5.27 9.25-10.78 13.97-16.08 6.32-6.97 11.58-15.14 19.67-20.28 7.79-6.02 17.41-9.33 27.17-10.08 7.62.64 15.23 2.75 22 6.35 8.05 5.01 15.12 11.54 20.93 19.03 4.75 5.87 9.48 11.78 14.86 17.1 16 18.52 38.03 31.96 62.06 36.88 18.19 4.55 37.54 5.02 55.77.44 17.84-4.28 35.13-13.82 45.72-29.15 8.62-11.42 11.8-26.2 11.21-40.29-.95-10.01-2.38-20.12-6.13-29.51-4.3-11.28-9.02-22.46-15.05-32.93-11-20.75-22.97-40.96-34.8-61.25-12.46-20.98-26.65-41.86-47.01-55.93-13.7-9.86-30.06-15.16-46.47-18.41-7.25-1.25-14.61-1.48-21.91-2.28-10.36-1.03-20.8.34-31.15-.78-8.97-1.07-18.01-.41-27.01-.59-10.18.15-20.38-.34-30.55.27m594.99.96c-6.46.8-12.97.96-19.47.8-17.19.34-34.39 3.09-50.62 8.86-5.34 2.18-10.47 4.84-15.5 7.63-14.26 8.11-26.24 19.78-35.83 33.01-12.99 16.96-23 35.89-33.81 54.24-9.36 17.05-19.78 33.57-27.6 51.42-8.39 18.12-14.32 38.3-11.58 58.42 2.06 9.48 4.81 19.27 11.14 26.87 5.14 6.15 10.77 12.03 17.61 16.31 12.43 8.53 27.46 12.24 42.27 13.85 14.31 1.66 28.72-.4 42.71-3.43 7.96-1.64 15.37-5.1 22.89-8.07 8.15-4.12 15.83-9.22 22.88-15.03 5.3-4.68 10.12-9.86 15.13-14.84 6.1-6.6 11.3-13.99 17.5-20.5 5.73-6.1 11.89-12.14 19.73-15.43 7.83-3.43 16.65-6.04 25.23-4.15 9.45 1.79 18.59 5.95 25.66 12.56 7.11 6.31 12.86 13.91 18.89 21.2 4 4.96 8.76 9.24 13.01 13.98 20.24 21.44 50 32.94 79.33 32.22 5.96-.08 11.92.12 17.88-.06 16.54-1.29 33.18-5.95 46.72-15.83 13.09-9.56 22.06-24.67 23.84-40.81.21-11.25.93-22.82-2.77-33.66-4.96-17.84-13.92-34.13-22.39-50.47-10.32-18-20.48-36.08-31.08-53.92-9.07-14.26-18.01-28.93-30.55-40.47-18.76-20.48-46.38-30.68-73.59-32.92-11.98-1.77-24.12-.2-36.1-1.87-23.84-.08-47.69-.27-71.53.09z" fill="#f3f2f5"/><path d="m1603.02 550.02c6.28-.07 12.57.05 18.87.0l1.01-.01c5.71 8.83 10.31 18.31 15.79 27.28 18 31.68 36.03 63.32 54.03 95 12.69 22.61 25.81 44.98 38.28 67.72 5.14 9.75 10.73 19.34 14.16 29.87 3.86 10.34 4.49 21.74 2.35 32.53-3.02 14.83-11.15 27.82-17.91 41.14-27.11 48.15-54.66 96.06-81.97 144.09-7.55 13.48-15.63 26.66-22.79 40.35-.63.0-1.9-.01-2.53-.01-5.83.0-11.66.04-17.48.01 10.63-19.34 21.83-38.34 32.59-57.6 19.14-32.93 37.61-66.23 56.74-99.16 8.68-15.64 17.66-31.11 26-46.94 4.99-10.42 10.03-21.45 9.62-33.29.33-19.02-10.37-35.61-19.01-51.77-27.52-48.5-55.02-97.01-82.63-145.47-8.54-14.48-16.41-29.35-25.12-43.74z" fill="#f4f3f6"/><path d="m1622.9 550.01c5.56-.13 11.13.09 16.71.03 16.31 29.9 33.69 59.21 50.3 88.94 19.99 35.63 40.79 70.81 60.19 106.76 4.88 9.62 9.5 19.52 11.95 30.07 3.59 15.09.86 31.02-5.23 45.09-6.67 15.68-15.66 30.22-23.71 45.2-30.68 54-61.59 107.88-92.28 161.88-5.33-.03-10.67.05-15.99.01 7.16-13.69 15.24-26.87 22.79-40.35 27.31-48.03 54.86-95.94 81.97-144.09 6.76-13.32 14.89-26.31 17.91-41.14 2.14-10.79 1.51-22.19-2.35-32.53-3.43-10.53-9.02-20.12-14.16-29.87-12.47-22.74-25.59-45.11-38.28-67.72-18-31.68-36.03-63.32-54.03-95-5.48-8.97-10.08-18.45-15.79-27.28z" fill="#e4e2e8"/><path d="m1639.61 550.04c.87-.02 2.61-.05 3.48-.07 2.29-.04 4.6-.04 6.93-.01 4.98 7.55 8.95 15.69 13.59 23.46 28.56 49.86 56.62 100.01 85.2 149.85 11.49 20.84 24.39 42.28 25.57 66.69-.62 18.4-8.22 35.64-16.78 51.63-19.28 35.46-39.85 70.2-59.52 105.43-9.5 16.55-18.96 33.12-28.42 49.69-5.77 10.48-12.19 20.6-17.57 31.28-3.76-.02-7.51.01-11.26-.01 30.69-54 61.6-107.88 92.28-161.88 8.05-14.98 17.04-29.52 23.71-45.2 6.09-14.07 8.82-30 5.23-45.09-2.45-10.55-7.07-20.45-11.95-30.07-19.4-35.95-40.2-71.13-60.19-106.76-16.61-29.73-33.99-59.04-50.3-88.94z" fill="#d3ced9"/><g fill="#bfb9c9"><path d="m1650.02 549.96c3.97.05 7.95.1 11.94.06 27.46 48.56 54.64 97.29 82.48 145.64 10.6 18.89 22.01 37.39 30.94 57.16 6.12 14.16 10.74 29.64 8.83 45.22-2.77 20.94-13.06 39.77-23.12 57.99-32.44 57.45-65.11 114.77-98 171.96-3.31-.02-6.6.01-9.89.01l-1.11-.01c5.38-10.68 11.8-20.8 17.57-31.28 9.46-16.57 18.92-33.14 28.42-49.69 19.67-35.23 40.24-69.97 59.52-105.43 8.56-15.99 16.16-33.23 16.78-51.63-1.18-24.41-14.08-45.85-25.57-66.69-28.58-49.84-56.64-99.99-85.2-149.85-4.64-7.77-8.61-15.91-13.59-23.46z"/><path d="m647.01 586.5c7.34.2 14.64-.44 21.96-.93 21-.01 42-.01 63-.01 14.45 1.07 29.02 1.28 43.29 4.07 14.9 2.61 29.31 8.53 41.29 17.85 9.8 7.13 17.51 16.63 24.62 26.34 9.75 13.92 18.02 28.79 26.62 43.42 6.7 11.75 13.32 23.56 19.25 35.72 5.11 9.89 9.35 20.28 11.95 31.12 2.21 9.52 2.56 19.75-.79 29.05-3.05-5.1-5.72-10.41-8.74-15.52.55-10.35-2.6-20.39-6.21-29.95-3.56-9.32-8.01-18.28-12.91-26.97-7.25-13.62-15.18-26.86-22.95-40.18-8.41-13.82-17.19-27.65-28.84-38.99-3.4-3.45-7.55-5.96-11.56-8.61-1.13-1.98-2.28-3.95-3.4-5.92-2.11-.01-4.2-.01-6.29-.05-11.68-6.2-24.84-8.81-37.88-10.21-7.5-.2-14.95-1.41-22.47-1.24-26.67.01-53.34.01-80.01.0-5.99-.08-11.93.9-17.9 1.1-14.26.95-28.43 4.13-41.34 10.36-1.83.02-3.65-.01-5.46-.04-1.53 1.93-2.77 4.07-3.95 6.23-8.05 4.35-14.42 11.06-20.16 18.06-11.84 14.32-20.83 30.67-30.18 46.65-11.26 20.01-23.55 39.87-29.84 62.15-1.74 5.61-1.5 11.52-1.87 17.31-3.1 5.36-6.09 10.78-9.22 16.12-1.31-5.38-2.89-10.85-2.42-16.44 1.05-11.03 3.86-21.87 8.29-32.02 7.18-16.59 16.05-32.36 25.07-48 7.44-12.8 14.5-25.84 22.96-38.01 9.36-14.27 20.76-27.67 35.49-36.62 17.95-11.55 39.7-14.66 60.6-15.84z"/><path d="m1235.01 588.17c7.39-.72 14.78-1.73 22.22-1.71 13.24.0 26.48-.11 39.72-.02 5.68.08 11.33-1.05 17.03-.64 16.23 1.38 32.6-.3 48.81 1.63 10.99.97 22.03 2.61 32.47 6.32 13.68 4.52 26.02 12.66 36.05 22.95 11.24 11.16 19.5 24.8 27.82 38.16 11.25 19.26 22.77 38.41 32.54 58.49 6.9 13.67 12.39 28.32 13.71 43.69.37 5.56-1.19 11-2.4 16.38-3.13-5.33-6.13-10.74-9.22-16.09-.41-5.24-.07-10.58-1.48-15.7-4.96-19.68-15.45-37.25-25.03-54.93-8.3-14.27-16.39-28.7-25.56-42.43-8.45-11.65-17.18-23.93-29.98-31.13-1.19-2.16-2.44-4.3-3.96-6.23-1.81.03-3.62.06-5.41.04-14.73-7.06-31.07-10.28-47.34-10.73-8.62-1.07-17.3-.64-25.96-.72-20.67.0-41.35.0-62.02.0-8.84-.36-17.59 1.01-26.4 1.23-13.07 1.35-26.21 4.11-37.95 10.21-2.1.03-4.18.04-6.26.05-1.11 1.93-2.24 3.86-3.34 5.8-11.98 7.14-20.85 18.24-28.77 29.48-10.14 14.57-18.65 30.16-27.55 45.48-8.77 15.98-18 31.92-23.38 49.43-2.03 6.61-3.13 13.5-2.83 20.43-3.02 5.1-5.7 10.4-8.72 15.5-2.83-8.29-3.11-17.25-1.31-25.79 3.37-18.45 12.64-35.01 21.35-51.37 8.99-16.24 18.18-32.38 27.89-48.2 9.7-15.43 20.56-30.71 35.52-41.47 14.3-10.89 32.06-16.18 49.74-18.11z"/></g><path d="m1661.96 550.02c4.06-.06 8.13.01 12.21.02h.61c8.73 16.17 18.15 31.97 27.18 47.98 28.69 50.32 57.16 100.76 86.04 150.98.4.84.72 1.73.97 2.67 1.23 7.3 4.49 14.05 5.79 21.34 2.56 12.06 2.45 24.72-.44 36.71-1.47 6.64-4.3 12.9-5.34 19.65-3.9 8.35-9.32 16.02-13.38 24.33-29.63 51.44-58.72 103.16-88.29 154.63-3.5 6.58-7.79 12.74-10.71 19.62l-.64.01c-4.3.0-8.59.06-12.87.03 32.89-57.19 65.56-114.51 98-171.96 10.06-18.22 20.35-37.05 23.12-57.99 1.91-15.58-2.71-31.06-8.83-45.22-8.93-19.77-20.34-38.27-30.94-57.16-27.84-48.35-55.02-97.08-82.48-145.64z" fill="#a79fb5"/><g fill="#6d5f84"><path d="m207.7 561.06c7.77.71 15.62.51 23.27-1.1-1.7 2.55-3.19 5.23-4.44 8.03h-.47c-4.79-.12-9.58-.11-14.37.02h-.15c-1.25-2.34-2.61-4.61-3.84-6.95z"/><path d="m1768.92 559.75c7.64 1.94 15.57 1.99 23.38 1.31-1.23 2.33-2.59 4.59-3.84 6.91h-.12c-4.75-.09-9.49.16-14.23.2h-.65c-1.2-2.97-2.8-5.75-4.54-8.42z"/></g><path d="m670.44 560.67c10.17-.61 20.37-.12 30.55-.27 9 .18 18.04-.48 27.01.59 10.35 1.12 20.79-.25 31.15.78 7.3.8 14.66 1.03 21.91 2.28 16.41 3.25 32.77 8.55 46.47 18.41 20.36 14.07 34.55 34.95 47.01 55.93 11.83 20.29 23.8 40.5 34.8 61.25 6.03 10.47 10.75 21.65 15.05 32.93 3.75 9.39 5.18 19.5 6.13 29.51.59 14.09-2.59 28.87-11.21 40.29-10.59 15.33-27.88 24.87-45.72 29.15-18.23 4.58-37.58 4.11-55.77-.44-24.03-4.92-46.06-18.36-62.06-36.88-5.38-5.32-10.11-11.23-14.86-17.1-5.81-7.49-12.88-14.02-20.93-19.03-6.77-3.6-14.38-5.71-22-6.35-9.76.75-19.38 4.06-27.17 10.08-8.09 5.14-13.35 13.31-19.67 20.28-4.72 5.3-9.21 10.81-13.97 16.08-13.75 13.94-30.64 25.27-49.77 30.14-9.95 2.4-20.11 4.54-30.4 4.33-10.36-.21-20.85.7-31.03-1.65-15.73-2.48-31.22-9.01-42.68-20.25-10.36-9.78-16.8-23.48-17.83-37.66-.06-6.21-.27-12.44.17-18.63 2.34-15.91 8.49-30.95 15.5-45.32 8.36-16.66 17.86-32.69 27.07-48.88 10.56-17.88 20.53-36.24 33.5-52.54 5.63-6.67 11.05-13.65 18.09-18.91 20.13-17.46 46.93-25.52 73.21-26.64 12.43-1.7 25.02.23 37.45-1.48m-34.43 15.09c-11.13 1.24-22.3 2.7-32.99 6.16-16.07 4.66-30.43 14.07-42.2 25.83-11.54 12.22-20.62 26.45-29.36 40.73-11.34 19.17-22.34 38.54-32.85 58.17-7.91 15.52-15.14 31.86-17 49.36-.9 11.11.51 22.92 6.52 32.54l-.43.55.88-.03c3 6.37 8.45 11.11 13.69 15.62 13.28 9.38 29.68 13.35 45.75 13.88 14.47.39 29.17-1.39 42.68-6.76 17.67-6.61 32.92-18.77 44.75-33.33 9.03-10.26 16.85-21.83 27.91-30.11 7.28-5.18 15.7-8.89 24.5-10.48 5.67-.73 11.42-.41 17.12-.31 12.68.82 24.37 7.39 33.58 15.88 8.98 8.08 15.8 18.14 24.03 26.92 8.8 10.67 19.7 19.58 31.73 26.37 23.57 12.21 51.82 15.39 77.38 8.09 14.32-4.08 28.23-12.4 35.59-25.75l-.35-.61c1.39-1.89 2.69-3.88 3.48-6.11 3.33-8.94 5.2-18.73 3.36-28.22-3.35-23.88-15.43-45.23-26.93-66.01-13.46-23-25.61-46.91-41.82-68.16-8.23-10.69-17.96-20.41-29.42-27.62-15.85-9.72-34.25-14.45-52.63-16.21-7.96-1.27-16.06-.11-24.03-1.19-2.96-.36-5.93-.5-8.9-.46-21.34.14-42.68-.1-64.02.11-9.96 1.44-20.03.27-30.02 1.15z" fill="#e7e4ea"/><path d="m1265.43 561.63c23.84-.36 47.69-.17 71.53-.09 11.98 1.67 24.12.1 36.1 1.87 27.21 2.24 54.83 12.44 73.59 32.92 12.54 11.54 21.48 26.21 30.55 40.47 10.6 17.84 20.76 35.92 31.08 53.92 8.47 16.34 17.43 32.63 22.39 50.47 3.7 10.84 2.98 22.41 2.77 33.66-1.78 16.14-10.75 31.25-23.84 40.81-13.54 9.88-30.18 14.54-46.72 15.83-5.96.18-11.92-.02-17.88.06-29.33.72-59.09-10.78-79.33-32.22-4.25-4.74-9.01-9.02-13.01-13.98-6.03-7.29-11.78-14.89-18.89-21.2-7.07-6.61-16.21-10.77-25.66-12.56-8.58-1.89-17.4.72-25.23 4.15-7.84 3.29-14 9.33-19.73 15.43-6.2 6.51-11.4 13.9-17.5 20.5-5.01 4.98-9.83 10.16-15.13 14.84-7.05 5.81-14.73 10.91-22.88 15.03-7.52 2.97-14.93 6.43-22.89 8.07-13.99 3.03-28.4 5.09-42.71 3.43-14.81-1.61-29.84-5.32-42.27-13.85-6.84-4.28-12.47-10.16-17.61-16.31-6.33-7.6-9.08-17.39-11.14-26.87-2.74-20.12 3.19-40.3 11.58-58.42 7.82-17.85 18.24-34.37 27.6-51.42 10.81-18.35 20.82-37.28 33.81-54.24 9.59-13.23 21.57-24.9 35.83-33.01 5.03-2.79 10.16-5.45 15.5-7.63 16.23-5.77 33.43-8.52 50.62-8.86 6.5.16 13.01.0 19.47-.8m-69.8 26.89c-15.27 7.11-28.22 18.5-38.46 31.76-8.89 11.73-16.85 24.14-24.13 36.92-10.34 17.8-20.94 35.47-29.89 54.02-8.47 15.66-14.6 32.91-15.52 50.8.77 8.44 2.23 17.12 6.52 24.57-.47.84-.95 1.68-1.44 2.52.78-.02 2.34-.06 3.12-.07 2.95 5.78 8.01 10.13 12.98 14.17 18.31 12.42 41.66 15.45 63.21 12.29 18.3-2.69 36.07-10.17 49.96-22.53 9.22-7.13 16.13-16.61 23.69-25.37 10.13-12.23 21.49-24.91 37.25-29.58 8.66-3.18 17.98-2.61 27.03-2.39 14.29 1.36 27.31 9.01 37.11 19.26 13 13.38 22.94 29.84 38.23 40.91 14.01 11.35 31.46 17.87 49.25 20.12 19.21 2.31 39.49-.29 56.57-9.74 6.72-4.46 14.21-9.26 17.18-17.15 1.33.0 2.68.02 4.04.05-.98-1.21-2.03-2.4-2.53-3.86l.68.89c.84-1.44 1.72-2.86 2.38-4.39 3.78-10.41 4.94-21.86 2.49-32.72-3.17-18.47-12.63-34.9-20.89-51.45-8.29-15.22-17.03-30.2-25.67-45.22-9.64-15.97-19.73-31.88-32.9-45.21-13.33-12.42-29.75-21.79-47.65-25.61-7.99-1.73-16.07-3.16-24.2-3.94-6.38.02-12.66-1.27-19.02-1.13-23.36.0-46.71.0-70.07.0-8.61.18-17.26-.46-25.83.63-18.23 1.03-36.77 3.74-53.49 11.45z" fill="#e5e2e9"/><g fill="#63547c"><path d="m211.69 568.01c4.79-.13 9.58-.14 14.37-.02-2.17 4.29-4.27 8.65-7.16 12.53-2.84-3.9-4.82-8.34-7.21-12.51z"/><path d="m1774.11 568.17c4.74-.04 9.48-.29 14.23-.2-2.45 4.16-4.38 8.65-7.24 12.55-2.83-3.82-4.98-8.07-6.99-12.35z"/></g><g fill="#d3cfda"><path d="m636.01 575.76c9.99-.88 20.06.29 30.02-1.15 21.34-.21 42.68.03 64.02-.11 2.97-.04 5.94.1 8.9.46 7.97 1.08 16.07-.08 24.03 1.19 18.38 1.76 36.78 6.49 52.63 16.21 11.46 7.21 21.19 16.93 29.42 27.62 16.21 21.25 28.36 45.16 41.82 68.16 11.5 20.78 23.58 42.13 26.93 66.01 1.84 9.49-.03 19.28-3.36 28.22-.79 2.23-2.09 4.22-3.48 6.11-2.91-5.12-5.74-10.28-8.74-15.35 3.35-9.3 3-19.53.79-29.05-2.6-10.84-6.84-21.23-11.95-31.12-5.93-12.16-12.55-23.97-19.25-35.72-8.6-14.63-16.87-29.5-26.62-43.42-7.11-9.71-14.82-19.21-24.62-26.34-11.98-9.32-26.39-15.24-41.29-17.85-14.27-2.79-28.84-3-43.29-4.07-21 0-42 0-63 .01-7.32.49-14.62 1.13-21.96.93-20.9 1.18-42.65 4.29-60.6 15.84-14.73 8.95-26.13 22.35-35.49 36.62-8.46 12.17-15.52 25.21-22.96 38.01-9.02 15.64-17.89 31.41-25.07 48-4.43 10.15-7.24 20.99-8.29 32.02-.47 5.59 1.11 11.06 2.42 16.44-3.08 4.97-5.44 10.39-8.89 15.12-6.01-9.62-7.42-21.43-6.52-32.54 1.86-17.5 9.09-33.84 17-49.36 10.51-19.63 21.51-39 32.85-58.17 8.74-14.28 17.82-28.51 29.36-40.73 11.77-11.76 26.13-21.17 42.2-25.83 10.69-3.46 21.86-4.92 32.99-6.16z"/><path d="m1255.67 745.65c12.07-11.55 28.55-18.46 45.31-18.27 16.24-.63 32.48 5.31 44.76 15.88 11.16 9.6 19.26 22.07 29.26 32.77 11.46 12.86 25.97 23.42 42.63 28.3 20.07 6.06 42.4 6.16 61.93-1.89 7.23-2.9 13.26-7.96 18.68-13.44 3.34.0 6.69-.01 10.05.03-2.97 7.89-10.46 12.69-17.18 17.15-17.08 9.45-37.36 12.05-56.57 9.74-17.79-2.25-35.24-8.77-49.25-20.12-15.29-11.07-25.23-27.53-38.23-40.91-9.8-10.25-22.82-17.9-37.11-19.26-9.05-.22-18.37-.79-27.03 2.39-15.76 4.67-27.12 17.35-37.25 29.58-7.56 8.76-14.47 18.24-23.69 25.37-13.89 12.36-31.66 19.84-49.96 22.53-21.55 3.16-44.9.13-63.21-12.29-4.97-4.04-10.03-8.39-12.98-14.17 3.65-.08 7.32-.03 10.99-.03 3.64 3.75 7.29 7.62 11.93 10.18 13.85 8 30.29 10.13 46.04 9.19 18.64-1.37 37.05-8.14 51.38-20.29 15.39-11.98 25.29-29.28 39.5-42.44z"/></g><path d="m1195.63 588.52c16.72-7.71 35.26-10.42 53.49-11.45 8.57-1.09 17.22-.45 25.83-.63h70.07c6.36-.14 12.64 1.15 19.02 1.13 8.13.78 16.21 2.21 24.2 3.94 17.9 3.82 34.32 13.19 47.65 25.61 13.17 13.33 23.26 29.24 32.9 45.21 8.64 15.02 17.38 30 25.67 45.22 8.26 16.55 17.72 32.98 20.89 51.45 2.45 10.86 1.29 22.31-2.49 32.72-.66 1.53-1.54 2.95-2.38 4.39l-.68-.89c-2.46-3.83-4.52-7.89-6.82-11.8 1.21-5.38 2.77-10.82 2.4-16.38-1.32-15.37-6.81-30.02-13.71-43.69-9.77-20.08-21.29-39.23-32.54-58.49-8.32-13.36-16.58-27-27.82-38.16-10.03-10.29-22.37-18.43-36.05-22.95-10.44-3.71-21.48-5.35-32.47-6.32-16.21-1.93-32.58-.25-48.81-1.63-5.7-.41-11.35.72-17.03.64-13.24-.09-26.48.02-39.72.02-7.44-.02-14.83.99-22.22 1.71-17.68 1.93-35.44 7.22-49.74 18.11-14.96 10.76-25.82 26.04-35.52 41.47-9.71 15.82-18.9 31.96-27.89 48.2-8.71 16.36-17.98 32.92-21.35 51.37-1.8 8.54-1.52 17.5 1.31 25.79-2.61 4.46-5.19 8.94-7.67 13.48-4.29-7.45-5.75-16.13-6.52-24.57.92-17.89 7.05-35.14 15.52-50.8 8.95-18.55 19.55-36.22 29.89-54.02 7.28-12.78 15.24-25.19 24.13-36.92 10.24-13.26 23.19-24.65 38.46-31.76z" fill="#d2cdd9"/><g fill="#a9a1b6"><path d="m639.04 596.59c5.97-.2 11.91-1.18 17.9-1.1 26.67.01 53.34.01 80.01.0 7.52-.17 14.97 1.04 22.47 1.24 13.04 1.4 26.2 4.01 37.88 10.21-66.53-.07-133.07-.09-199.6.01 12.91-6.23 27.08-9.41 41.34-10.36z"/><path d="m1240.62 596.73c8.81-.22 17.56-1.59 26.4-1.23h62.02c8.66.08 17.34-.35 25.96.72 16.27.45 32.61 3.67 47.34 10.73-66.55-.1-133.11-.08-199.67-.01 11.74-6.1 24.88-8.86 37.95-10.21z"/></g><g fill="#aaa1b7"><path d="m568.13 631.2c5.74-7 12.11-13.71 20.16-18.06-7.01 12.94-14.53 25.59-21.79 38.39-20.26 35.16-40.1 70.56-60.26 105.78.37-5.79.13-11.7 1.87-17.31 6.29-22.28 18.58-42.14 29.84-62.15 9.35-15.98 18.34-32.33 30.18-46.65z"/><path d="m806.99 612.91c4.01 2.65 8.16 5.16 11.56 8.61 11.65 11.34 20.43 25.17 28.84 38.99 7.77 13.32 15.7 26.56 22.95 40.18 4.9 8.69 9.35 17.65 12.91 26.97 3.61 9.56 6.76 19.6 6.21 29.95-27.49-48.24-54.89-96.52-82.47-144.7z"/><path d="m1164.3 642.27c7.92-11.24 16.79-22.34 28.77-29.48-27.59 48.23-55.02 96.54-82.53 144.82-.3-6.93.8-13.82 2.83-20.43 5.38-17.51 14.61-33.45 23.38-49.43 8.9-15.32 17.41-30.91 27.55-45.48z"/><path d="m1411.71 613.14c12.8 7.2 21.53 19.48 29.98 31.13 9.17 13.73 17.26 28.16 25.56 42.43 9.58 17.68 20.07 35.25 25.03 54.93 1.41 5.12 1.07 10.46 1.48 15.7-7.32-12.73-14.52-25.54-21.82-38.28-19.78-35.47-40.45-70.44-60.23-105.91z"/></g><g fill="#8a7e9c"><path d="m645.2 701.18c13.03-.09 26.06-.35 39.09-.07-11.55 2.71-23.47 5.16-33.61 11.66-8.24 4.71-14.72 11.72-22.18 17.48 5.56-9.69 10.71-19.63 16.7-29.07z"/><path d="m1249.21 701.19c13.02-.11 26.03-.34 39.05-.1-11.14 2.27-22.44 4.91-32.28 10.86-8.8 4.73-15.85 11.88-23.45 18.22 5.55-9.66 10.83-19.5 16.68-28.98z"/></g><g fill="#a097af"><path d="m684.29 701.11c9.81-.02 19.63-.01 29.44.0 11.24 2.64 22.55 5.71 32.48 11.84 7.19 3.7 12.1 10.54 19.39 14.08 8.89 15.37 17.8 30.73 26.47 46.23-17.66-13.41-27.75-34.48-45.97-47.29-8.92-6.56-19.38-10.82-30.17-13.1-8.51-1.99-17.31-1.54-25.97-1.37-15.46 1.19-30.75 6.78-42.82 16.62-16.39 12.89-26.24 32.19-42.7 45 7.85-14.39 16.14-28.53 24.06-42.87 7.46-5.76 13.94-12.77 22.18-17.48 10.14-6.5 22.06-8.95 33.61-11.66z"/><path d="m865.99 910.5c9.34-.05 18.62-1.39 27.98-.99 67-.01 134 0 201.01.0 10.14.06 20.31-.33 30.43.73 12.11.33 24.43.71 36.03 4.58-86.15.33-172.32.04-258.47.14-21.49-.14-42.99.27-64.47-.14 8.87-2.85 18.19-4.04 27.49-4.32z"/></g><g fill="#897d9b"><path d="m713.73 701.11c12.35-.28 24.7-.02 37.05.07 5.26 8.42 9.97 17.18 14.82 25.85-7.29-3.54-12.2-10.38-19.39-14.08-9.93-6.13-21.24-9.2-32.48-11.84z"/><path d="m1318.7 701.09c12.03-.24 24.07-.01 36.1.09 5.97 9.38 11.07 19.29 16.64 28.92-7.71-6.87-15.05-14.45-24.4-19.11-8.79-4.97-18.64-7.42-28.34-9.9z"/></g><path d="m1288.26 701.09c10.14-.02 20.29-.01 30.44.0 9.7 2.48 19.55 4.93 28.34 9.9 9.35 4.66 16.69 12.24 24.4 19.11 6.84 12.67 14.4 24.95 21.02 37.74-6.91-4.84-11.77-11.81-17.22-18.1-6.15-7.18-11.89-14.81-19.25-20.83-6.43-5.6-13.84-9.99-21.7-13.27-8.01-3.36-16.68-4.62-25.24-5.71-9.02-1.19-18.08.45-26.95 2-19.3 3.73-35.8 16.19-47.96 31.22-7.81 8.6-14.18 18.69-23.62 25.66 7.11-13.01 14.7-25.75 22.01-38.64 7.6-6.34 14.65-13.49 23.45-18.22 9.84-5.95 21.14-8.59 32.28-10.86z" fill="#9e94ad"/><g fill="#b2aabe"><path d="m1282.1 711.93c8.87-1.55 17.93-3.19 26.95-2 8.56 1.09 17.23 2.35 25.24 5.71 7.86 3.28 15.27 7.67 21.7 13.27 7.36 6.02 13.1 13.65 19.25 20.83 5.45 6.29 10.31 13.26 17.22 18.1 3.79 6.25 7.47 12.6 10.92 19.05-8.63-3.9-15.2-10.89-21.74-17.52-11.43-11.91-20.36-26.27-33.59-36.41-10.12-8.05-22.68-12.83-35.45-14.39-10.93-.17-22.18-1.15-32.72 2.38-13.06 3.57-24.71 11.19-33.94 21.01-11.25 11.78-20.33 25.58-32.76 36.24-4.14 3.68-8.8 6.67-13.41 9.71 3.48-6.42 7.06-12.79 10.75-19.1 9.44-6.97 15.81-17.06 23.62-25.66 12.16-15.03 28.66-27.49 47.96-31.22z"/><path d="m1124.5 789.03c24.39.05 48.79.0 73.19.03-16.02 8.73-35.04 11.68-52.95 8.34-7.3-1.2-14.32-3.89-20.24-8.37z"/><path d="m1406.51 789.07c24.62-.04 49.24.02 73.87-.04-9.7 6.93-21.73 9.29-33.39 10.17-14-.3-28.24-3.09-40.48-10.13z"/></g><path d="m689.96 711.5c8.66-.17 17.46-.62 25.97 1.37 10.79 2.28 21.25 6.54 30.17 13.1 18.22 12.81 28.31 33.88 45.97 47.29 2.98 5.31 5.8 10.72 9.24 15.76 25.75.11 51.51.05 77.27.02-4.65 4.04-10.2 6.91-16.15 8.46-28.29 8.55-60.42-1.07-80.85-22.04-10.53-9.91-18.68-21.96-28.71-32.33-7.52-7.77-16.27-14.64-26.48-18.45-19.96-7.62-43.1-7-62.34 2.45-11.67 5.62-20.43 15.5-28.9 25.01-11.2 13.69-22.58 27.87-37.93 37.13-16.72 9.52-36.66 13.46-55.7 10.37-8.97-1.65-18-4.57-25.02-10.6 26.35.01 52.71.13 79.07-.05 2.55-5.5 5.87-10.61 8.87-15.87 16.46-12.81 26.31-32.11 42.7-45 12.07-9.84 27.36-15.43 42.82-16.62z" fill="#b5aec0"/><path d="m1279.88 720.95c10.54-3.53 21.79-2.55 32.72-2.38 12.77 1.56 25.33 6.34 35.45 14.39 13.23 10.14 22.16 24.5 33.59 36.41 6.54 6.63 13.11 13.62 21.74 17.52.26.53.78 1.57 1.04 2.09.52.02 1.57.07 2.09.09 12.24 7.04 26.48 9.83 40.48 10.13 11.66-.88 23.69-3.24 33.39-10.17 5.95.01 11.9-.07 17.86-.03-5.42 5.48-11.45 10.54-18.68 13.44-19.53 8.05-41.86 7.95-61.93 1.89-16.66-4.88-31.17-15.44-42.63-28.3-10-10.7-18.1-23.17-29.26-32.77-12.28-10.57-28.52-16.51-44.76-15.88-16.76-.19-33.24 6.72-45.31 18.27-14.21 13.16-24.11 30.46-39.5 42.44-14.33 12.15-32.74 18.92-51.38 20.29-15.75.94-32.19-1.19-46.04-9.19-4.64-2.56-8.29-6.43-11.93-10.18 5.89-.05 11.78.04 17.68.02 5.92 4.48 12.94 7.17 20.24 8.37 17.91 3.34 36.93.39 52.95-8.34.7-.34 1.38-.75 2.08-1.15 4.61-3.04 9.27-6.03 13.41-9.71 12.43-10.66 21.51-24.46 32.76-36.24 9.23-9.82 20.88-17.44 33.94-21.01z" fill="#c4becd"/><path d="m664.05 727.13c19.24-9.45 42.38-10.07 62.34-2.45 10.21 3.81 18.96 10.68 26.48 18.45 10.03 10.37 18.18 22.42 28.71 32.33 20.43 20.97 52.56 30.59 80.85 22.04 5.95-1.55 11.5-4.42 16.15-8.46 6.18.02 12.36-.08 18.55-.04-4.45 4.58-8.83 9.42-14.5 12.53-12 6.71-25.96 9.56-39.64 9.07-19.51.64-39.24-5.13-55.08-16.6-9.19-6.28-16.95-14.33-24.01-22.88-8.88-10.11-16.66-21.52-27.81-29.33-13.76-10.15-31.73-14.36-48.56-11.44-14.05 2.03-26.85 9.43-36.9 19.26-10.39 10.99-19.02 23.57-29.94 34.08-12.2 12.34-28.02 21.02-44.91 24.9-10.98 2.66-22.37 2.09-33.57 1.81-16.37-1.45-33.42-7.92-43.59-21.39 5.96-.05 11.92.05 17.88.03 7.02 6.03 16.05 8.95 25.02 10.6 19.04 3.09 38.98-.85 55.7-10.37 15.35-9.26 26.73-23.44 37.93-37.13 8.47-9.51 17.23-19.39 28.9-25.01z" fill="#c8c3d1"/><path d="m687.53 730.35c16.83-2.92 34.8 1.29 48.56 11.44 11.15 7.81 18.93 19.22 27.81 29.33 7.06 8.55 14.82 16.6 24.01 22.88 15.84 11.47 35.57 17.24 55.08 16.6 13.68.49 27.64-2.36 39.64-9.07 5.67-3.11 10.05-7.95 14.5-12.53 3.38-.02 6.77-.03 10.16.09-7.36 13.35-21.27 21.67-35.59 25.75-25.56 7.3-53.81 4.12-77.38-8.09-12.03-6.79-22.93-15.7-31.73-26.37-8.23-8.78-15.05-18.84-24.03-26.92-9.21-8.49-20.9-15.06-33.58-15.88-5.7-.1-11.45-.42-17.12.31-8.8 1.59-17.22 5.3-24.5 10.48-11.06 8.28-18.88 19.85-27.91 30.11-11.83 14.56-27.08 26.72-44.75 33.33-13.51 5.37-28.21 7.15-42.68 6.76-16.07-.53-32.47-4.5-45.75-13.88-5.24-4.51-10.69-9.25-13.69-15.62 3.34-.11 6.69-.07 10.04-.06 10.17 13.47 27.22 19.94 43.59 21.39 11.2.28 22.59.85 33.57-1.81 16.89-3.88 32.71-12.56 44.91-24.9 10.92-10.51 19.55-23.09 29.94-34.08 10.05-9.83 22.85-17.23 36.9-19.26z" fill="#d7d3dd"/><path d="m191.37 785.38c7.7-13.17 14.96-26.66 22.75-39.73-1.66 5.6-3.78 11.03-5.8 16.51-4.23 13.06-6.25 27.13-3.87 40.76 1.48 10.95 5.97 21.07 9.43 31.46-1.3-1.25-2.2-2.8-2.95-4.41-6.94-12.35-14.1-24.6-20.93-37.02-1.86-2.53.2-5.27 1.37-7.57z" fill="#9085a1"/><path d="m1788.97 751.67c2.84 3.15 4.26 7.24 6.6 10.75 4.82 8.78 10.06 17.35 14.7 26.23 1.36 2.14-.41 4.37-1.28 6.33-5.28 9.06-10.33 18.26-15.61 27.33-1.25 2.48-2.61 4.93-4.4 7.06 1.04-6.75 3.87-13.01 5.34-19.65 2.89-11.99 3-24.65.44-36.71-1.3-7.29-4.56-14.04-5.79-21.34z" fill="#8f84a1"/><path d="m826.21 872.36c11.76-2.68 23.71-4.93 35.82-5.04 12.99-.12 25.99.09 39-.14 7.01-.18 13.96.98 20.97 1.1 52.35-.04 104.7.02 157.05-.02 13.61-1.41 27.29-.7 40.93-1.35 10.34.47 20.74.01 31.03 1.37 8.2.97 16.31 2.59 24.35 4.48 19.41 4.93 37.57 14.96 51.92 28.96 11.21 10.4 20.04 22.98 28.06 35.91 8.41 12.85 15.55 26.46 23.36 39.66 9.41 16.96 19.44 33.58 28.55 50.71-4.64.01-9.27-.04-13.9-.01-10.11-18.84-21.05-37.21-31.54-55.84-8.64-14.54-16.91-29.37-26.91-43.04-9.07-11.83-19.53-22.89-32.31-30.74-14.65-9.4-31.85-14.03-49-16-26.37-3.72-53.06-.86-79.54-2.68-14.32.59-28.7 1.22-43.01.0-12.65.76-25.34 1.05-38.01.86-5.01-.15-9.99-.89-14.99-.54-7.67.61-15.33-1.04-22.99-.12-9.67.97-19.39.44-29.07-.08-26.77 1.71-53.77-1.22-80.41 2.67-15.22 1.79-30.35 5.78-43.79 13.29-16.54 9.1-29.65 23.33-40.35 38.67-11.04 15.69-20.03 32.69-29.76 49.19-8.23 14.84-17.06 29.35-24.97 44.36-1.8-.02-3.6-.02-5.38.0-2.88.0-5.75.01-8.62.01 10.19-18.77 21.11-37.13 31.51-55.79 10.07-17.41 19.99-34.97 31.76-51.31 7.27-10.2 16.11-19.24 25.81-27.14 13.17-10 28.28-17.62 44.43-21.4z" fill="#e8e6ec"/><path d="m845.57 882.48c26.64-3.89 53.64-.96 80.41-2.67 9.68.52 19.4 1.05 29.07.08 7.66-.92 15.32.73 22.99.12 5-.35 9.98.39 14.99.54 12.67.19 25.36-.1 38.01-.86 14.31 1.22 28.69.59 43.01.0 26.48 1.82 53.17-1.04 79.54 2.68 17.15 1.97 34.35 6.6 49 16 12.78 7.85 23.24 18.91 32.31 30.74 10 13.67 18.27 28.5 26.91 43.04 10.49 18.63 21.43 37 31.54 55.84-3.75.01-7.5-.02-11.23.0-10.34-18.64-21.14-37.02-31.61-55.58-7.61-12.88-15.13-25.87-24.22-37.78-10.74-14.26-24.45-26.7-41.02-33.75-17.14-6.94-35.82-9.74-54.26-9.37-5.35.0-10.63-.95-15.97-.99-76.67.01-153.34.01-230.01.0-5.35.07-10.65 1.01-16 .99-19.2-.48-38.66 2.61-56.33 10.3-16.4 7.4-29.78 20.21-40.32 34.59-8.69 12.19-16.5 24.99-23.91 37.98-10.31 17.81-20.57 35.65-30.6 53.61-3.73-.02-7.45.02-11.17.0 7.91-15.01 16.74-29.52 24.97-44.36 9.73-16.5 18.72-33.5 29.76-49.19 10.7-15.34 23.81-29.57 40.35-38.67 13.44-7.51 28.57-11.5 43.79-13.29z" fill="#d8d4de"/><path d="m869.03 891.51c5.35.02 10.65-.92 16-.99 76.67.01 153.34.01 230.01.0 5.34.04 10.62.99 15.97.99 18.44-.37 37.12 2.43 54.26 9.37 16.57 7.05 30.28 19.49 41.02 33.75 9.09 11.91 16.61 24.9 24.22 37.78 10.47 18.56 21.27 36.94 31.61 55.58-1.76.0-3.5.0-5.22.0-2.65-.02-5.3-.04-7.93-.01-8.12-15.06-16.83-29.8-25.28-44.68-9.67-16.61-19.18-33.5-31.76-48.14-5.82-6.64-12.37-12.78-20.13-17.08l-.42-.26c-.48-1.95-2.01-2.99-3.94-3.08-6.71-2.91-13.25-6.34-20.41-8.03-21.86-5.57-44.61-5.39-67-5.25-69.69.0-139.37-.01-209.06.0-20.48-.2-41.3.51-61.12 6.15-5.81 1.49-11.12 4.28-16.32 7.17-2.25-.1-4.42.57-4.92 3.04l-.41.26c-13.41 7.53-23.07 20.01-31.8 32.36-11.6 17.4-21.69 35.75-32.08 53.89-4.47 7.86-9.12 15.63-13.32 23.65-.49-.01-1.46-.01-1.95-.01-3.73-.01-7.46.04-11.18.02 10.03-17.96 20.29-35.8 30.6-53.61 7.41-12.99 15.22-25.79 23.91-37.98 10.54-14.38 23.92-27.19 40.32-34.59 17.67-7.69 37.13-10.78 56.33-10.3z" fill="#c5bfce"/><path d="m829.85 907.61c19.82-5.64 40.64-6.35 61.12-6.15 69.69-.01 139.37.0 209.06.0 22.39-.14 45.14-.32 67 5.25 7.16 1.69 13.7 5.12 20.41 8.03-8.65.52-17.35.23-26 .08-11.6-3.87-23.92-4.25-36.03-4.58-10.12-1.06-20.29-.67-30.43-.73-67.01.0-134.01-.01-201.01.0-9.36-.4-18.64.94-27.98.99-9.3.28-18.62 1.47-27.49 4.32-8.32.17-16.67.38-24.97-.04 5.2-2.89 10.51-5.68 16.32-7.17z" fill="#afa8bc"/><g fill="#aba3b8"><path d="m776.4 950.44c8.73-12.35 18.39-24.83 31.8-32.36-7.79 15.25-17.19 29.76-25.25 44.92-12.4 21.61-24.72 43.28-37.12 64.89-4.95.06-9.89.15-14.83.09 4.2-8.02 8.85-15.79 13.32-23.65 10.39-18.14 20.48-36.49 32.08-53.89z"/><path d="m1191.8 918.08c7.76 4.3 14.31 10.44 20.13 17.08 12.58 14.64 22.09 31.53 31.76 48.14 8.45 14.88 17.16 29.62 25.28 44.68-4.94.05-9.87-.03-14.8-.09-19.52-33.9-38.69-67.98-58.18-101.89-1.24-2.74-3.47-4.95-4.19-7.92z"/></g><g fill="#877c9a"><path d="m854.44 993.1c9.62.08 19.26-.34 28.88.04-9.52 2.91-19.2 5.99-27.51 11.65-4.3 2.94-8.32 6.28-12.78 8.98 3.42-7.1 8.09-13.53 11.41-20.67z"/><path d="m1115.68 993.13c9.95-.35 19.92.04 29.88-.03 3.32 7.14 7.99 13.57 11.4 20.67-3.84-2.31-7.44-4.99-10.98-7.72-8.83-6.78-19.66-10.19-30.3-12.92z"/></g><path d="m883.32 993.14c12.76-.16 25.54-.18 38.31-.01 22.49 2.89 44.68 8.31 67.41 9.26 30.12 2.16 59.71-5.14 89.35-9.26 12.42-.17 24.86-.14 37.29.0 10.64 2.73 21.47 6.14 30.3 12.92 3.54 2.73 7.14 5.41 10.98 7.72l.65.41c2.14 4.82 5.19 9.16 7.62 13.84-2-.03-3.98-.03-5.95-.03-6.81-7.38-14.25-14.39-23.2-19.11-15.06-7.93-32.7-10.94-49.53-8.35-10.33 1.26-20.67 3.49-30.18 7.8-4.05 2.09-8.79 4.78-9.78 9.63.57 3.69 2.73 6.84 4.54 10.02-28.33.05-56.66-.16-85 .02-5 .02-10.01.0-15.01-.02 2.56-3.66 6.26-7.71 5.3-12.51-2.01-3.6-5.87-5.65-9.44-7.39-11.22-4.84-23.27-7.5-35.41-8.62-10.91-1.63-22.02-.12-32.65 2.52-15.52 4.05-28.72 14.09-39.15 26.01-1.67.0-3.34.0-5 .03 2.42-4.68 5.46-9.02 7.61-13.83l.65-.42c4.46-2.7 8.48-6.04 12.78-8.98 8.31-5.66 17.99-8.74 27.51-11.65z" fill="#968ba6"/><path d="m921.63 993.13c27.11-.31 54.22.05 81.34-.07 25.14.11 50.28-.24 75.42.07-29.64 4.12-59.23 11.42-89.35 9.26-22.73-.95-44.92-6.37-67.41-9.26z" fill="#8d829f"/><path d="m878.92 1001.98c10.63-2.64 21.74-4.15 32.65-2.52 12.14 1.12 24.19 3.78 35.41 8.62 3.57 1.74 7.43 3.79 9.44 7.39.96 4.8-2.74 8.85-5.3 12.51-7.43-.06-14.85.08-22.27.0-.78-3.45-1.17-7.35-3.89-9.91-5.65-5.49-13.61-7.63-21.15-8.99-7.91-1.47-15.97-.08-23.64 1.95-10.84 2.99-20.89 8.82-28.66 16.96-3.92.02-7.83-.02-11.74.0 10.43-11.92 23.63-21.96 39.15-26.01z" fill="#a49bb2"/><path d="m1086.55 1000.53c16.83-2.59 34.47.42 49.53 8.35 8.95 4.72 16.39 11.73 23.2 19.11-4.25-.03-8.49.02-12.73.0-11.98-12.24-29.49-19.05-46.61-17.41-7.82.74-16.29 2.5-21.95 8.39-2.53 2.33-3.08 5.84-3.86 9.01-4.22.03-8.44.03-12.65.01-3.45-.04-6.9-.06-10.35-.01-1.81-3.18-3.97-6.33-4.54-10.02.99-4.85 5.73-7.54 9.78-9.63 9.51-4.31 19.85-6.54 30.18-7.8z" fill="#a79eb4"/><path d="m880.17 1011.03c7.67-2.03 15.73-3.42 23.64-1.95 7.54 1.36 15.5 3.5 21.15 8.99 2.72 2.56 3.11 6.46 3.89 9.91-1.96-.03-3.9-.03-5.83-.02-5.45.03-10.89.05-16.33.03-3.72-3.32-7.97-6.34-13.03-7.05-9.28-1.47-18.54 2.09-26.24 7.04-5.31.09-10.61-.05-15.91.01 7.77-8.14 17.82-13.97 28.66-16.96z" fill="#b7afc2"/><path d="m1099.94 1010.58c17.12-1.64 34.63 5.17 46.61 17.41-4.99-.04-9.98.08-14.96-.01-7.33-4.55-15.93-7.61-24.66-6.37-4.85.4-8.81 3.45-12.45 6.38-5.91.03-11.8-.02-17.7-.02-.66.0-1.99.01-2.65.01.78-3.17 1.33-6.68 3.86-9.01 5.66-5.89 14.13-7.65 21.95-8.39z" fill="#b8b1c3"/><g fill="#c3bdcd"><path d="m867.42 1027.98c7.7-4.95 16.96-8.51 26.24-7.04 5.06.71 9.31 3.73 13.03 7.05-11.15.02-22.3-.02-33.45.03-1.95-.02-3.89-.06-5.82-.04z"/><path d="m1094.48 1027.99c3.64-2.93 7.6-5.98 12.45-6.38 8.73-1.24 17.33 1.82 24.66 6.37-1.64.0-3.27.01-4.88.03-10.75-.03-21.49.0-32.23-.02z"/></g><path d="m324.03 1027.97c3.66.0 7.32.03 10.98.02 1.97-.02 3.93-.01 5.9.0 67.47 118.84 135.29 237.47 202.85 356.26 10.02 17.6 19.84 35.33 30.53 52.54 7.18 12.01 15.43 23.64 26.18 32.73 14.43 11.65 33.19 16.68 51.5 17.05 10.7-.01 21.52.59 32.08-1.62 9.05-1.64 18.8-4.65 24.47-12.42 5.25-6.68 4.58-15.78 3.56-23.71-3.77-17.13-13.15-32.22-21.38-47.49-17.61-31.35-35.77-62.41-53.01-93.97-9.23-18.21-17.61-37.63-18.15-58.35.07-16.22 4.81-32.09 11.68-46.67 8.62-18.84 19.3-36.62 29.43-54.66 17.48-31.4 35.88-62.28 53.35-93.68 5.01-8.68 9.83-17.48 15.05-26.03.49.0 1.46.0 1.95.01 4.94.06 9.88-.03 14.83-.09-19.9 35.06-39.86 70.08-59.89 105.07-20.58 36.69-41.84 73.01-62.33 109.76-.95 2.14-3.62 4.37-2.13 6.87 31.98 56.59 64.27 113.01 96.36 169.53 2.97 5.57 6.58 10.82 9.22 16.55 1.18 4.48 2.44 8.94 3.86 13.36 2.07 6.43 2.05 13.28 1.75 19.96-.41 9.06-5.85 17.36-13.29 22.34-8.05 5.7-17.89 7.84-27.46 9.4-6.91 1.2-13.95 1.04-20.93.98-12.71-.28-25.55.85-38.11-1.62-15.54-2.14-30.63-8.19-42.69-18.31-7.16-5.26-12.01-12.83-18.42-18.87-72.23-126.36-144.17-252.93-216.25-379.39-10.43-18.56-21.38-36.83-31.49-55.55z" fill="#405936"/><path d="m340.91 1027.99c1.47-.01 2.94-.02 4.41-.01 4.57-.03 9.14.05 13.72.0 2.94-.03 5.88-.02 8.83.01 19.72 33.23 38.26 67.15 57.63 100.6 20.11 36.08 41.12 71.65 61.23 107.73 26.83 46.56 53.26 93.36 79.95 139.99 8.49 15.39 17.3 30.61 26.44 45.62 4.92 8.13 10.64 15.8 17.17 22.72 7.69 7.36 17.27 13.08 27.8 15.17 10.07 1.84 20.8 2.5 30.54-1.25 5.59-2.06 10.2-7.09 10.84-13.13.76-6.88-1.78-13.54-4.15-19.86-4.88-11.91-11.35-23.08-17.62-34.3-9.73-16.97-19.22-34.07-29.04-50.99-8.17-14.44-16.16-29.02-22.74-44.26-6.5-15.18-10.68-31.46-11.29-48.01.59-16.56 4.76-32.87 11.3-48.05 7.34-17.05 16.55-33.21 25.76-49.3 18.14-32.38 36.77-64.49 55.1-96.76 4.7-8.73 10.18-17.01 14.53-25.92 1.78-.02 3.58-.02 5.38.0 3.72.02 7.44-.02 11.17.0 3.72.02 7.45-.03 11.18-.02-5.22 8.55-10.04 17.35-15.05 26.03-17.47 31.4-35.87 62.28-53.35 93.68-10.13 18.04-20.81 35.82-29.43 54.66-6.87 14.58-11.61 30.45-11.68 46.67.54 20.72 8.92 40.14 18.15 58.35 17.24 31.56 35.4 62.62 53.01 93.97 8.23 15.27 17.61 30.36 21.38 47.49 1.02 7.93 1.69 17.03-3.56 23.71-5.67 7.77-15.42 10.78-24.47 12.42-10.56 2.21-21.38 1.61-32.08 1.62-18.31-.37-37.07-5.4-51.5-17.05-10.75-9.09-19-20.72-26.18-32.73-10.69-17.21-20.51-34.94-30.53-52.54-67.56-118.79-135.38-237.42-202.85-356.26z" fill="#456c2d"/><path d="m367.87 1027.99c3.06.01 6.12.01 9.18.0 7.68-.04 15.37.04 23.05.0 91.51.02 183.03.03 274.54.0 6.01.03 12.04-.02 18.06.01 2.87.0 5.74-.01 8.62-.01-4.35 8.91-9.83 17.19-14.53 25.92-18.33 32.27-36.96 64.38-55.1 96.76-9.21 16.09-18.42 32.25-25.76 49.3-6.54 15.18-10.71 31.49-11.3 48.05.61 16.55 4.79 32.83 11.29 48.01 6.58 15.24 14.57 29.82 22.74 44.26 9.82 16.92 19.31 34.02 29.04 50.99 6.27 11.22 12.74 22.39 17.62 34.3 2.37 6.32 4.91 12.98 4.15 19.86-.64 6.04-5.25 11.07-10.84 13.13-9.74 3.75-20.47 3.09-30.54 1.25-10.53-2.09-20.11-7.81-27.8-15.17-6.53-6.92-12.25-14.59-17.17-22.72-9.14-15.01-17.95-30.23-26.44-45.62-26.69-46.63-53.12-93.43-79.95-139.99-20.11-36.08-41.12-71.65-61.23-107.73-19.37-33.45-37.91-67.37-57.63-100.6z" fill="#497f23"/><path d="m787.07 1112.05c15.67-28.14 32.08-55.87 47.7-84.03 1.66-.03 3.33-.03 5-.03 3.91-.02 7.82.02 11.74.0 5.3-.06 10.6.08 15.91-.01 1.93-.02 3.87.02 5.82.04-13.06 6.79-22.84 18.34-30.72 30.52-10.83 16.43-20.27 33.7-30.53 50.47-18.75 30.82-37.53 61.66-54.37 93.58-5.01 10.33-9.61 21-11.91 32.3-2.24 11.88-1.54 24.36 2.51 35.79 4.63 15.44 12.97 29.31 20.54 43.41 19.2 33.81 38.32 67.66 57.72 101.35 10.99 18.41 21.57 37.86 38.45 51.64 8.52 6.93 18.93 11.28 29.63 13.5 12.29 2.75 24.93 2.9 37.44 3.8 37.98.03 75.97-.02 113.95-.01 10.83-.11 21.69.43 32.49-.67 18.63-.7 38.21-3.47 53.86-14.38 14.43-10.79 24.58-26.02 33.75-41.29 18.79-31.74 36.69-63.99 55.04-96 11.13-20.55 24.31-40.32 31.19-62.85 4.26-13.69 4.31-28.66-.03-42.33-4.91-16.98-14.03-32.23-22.52-47.59-8.6-15.01-17.27-29.98-26.22-44.78-11.55-18.53-22.56-37.39-33.69-56.17-6.74-10.84-13.04-22.05-21.19-31.92-6.16-7.34-13.34-13.99-21.92-18.38 1.61-.02 3.24-.03 4.88-.03 4.98.09 9.97-.03 14.96.01 4.24.02 8.48-.03 12.73.0 1.97.0 3.95.0 5.95.03 10.8 19.61 22.18 38.91 33.21 58.41 24.73 43.81 49.99 87.36 74.55 131.26 1.96 10.02 4.75 20 4.58 30.3.12 10.3-2.61 20.3-4.59 30.33-19.23 34.24-38.73 68.36-58.23 102.46-17.38 30.77-34.94 61.47-52.55 92.09-6.97 5.74-12.9 12.76-20.68 17.48-9.58 6.46-20.93 9.28-31.9 12.34-47.19.3-94.4.06-141.59.14-25.87-.07-51.74.13-77.6-.14-10.55-2.88-21.31-5.76-30.69-11.56-8.29-4.83-14.78-12-21.94-18.24-18.97-32.97-37.81-66.04-56.57-99.14-18.16-31.76-36.29-63.54-54.21-95.42-2.06-10.35-4.85-20.7-4.6-31.34-.17-9.98 2.84-19.58 4.59-29.31 19.79-35.33 39.97-70.46 60.06-105.63z" fill="#415a35"/><path d="m873.24 1028.02c11.15-.05 22.3-.01 33.45-.03 5.44.02 10.88.0 16.33-.03-1.94 9-6.83 16.86-11.72 24.5-9.82 15.09-19.37 30.38-27.66 46.38-6.97 13.06-12.84 26.87-15.56 41.49-.4 2.68-.16 5.4.0 8.11-1.5 2.48-2.9 5.02-4.28 7.57 1.1 1.96 2.21 3.93 3.31 5.91-.23 10.16 3.11 19.87 6.54 29.29 5.63 14.84 13.54 28.68 21.89 42.13 5.68 8.82 12.06 17.2 19.01 25.07 3.59 4.15 8.2 7.2 12.99 9.81 1.55 2.63 3.11 5.26 4.68 7.9 2.45.0 4.92.01 7.39.04 18.57 9.59 39.9 10.49 60.35 11.45 20.47-.96 41.84-1.89 60.45-11.44 2.45-.04 4.9-.05 7.37-.05 1.71-2.87 3.41-5.74 5.07-8.64 5.35-3.4 10.43-7.31 14.45-12.26 13.12-14.97 23.21-32.29 32.17-49.98 6.16-13.06 12.27-26.84 12.38-41.53 1.45-2.57 2.93-5.12 4.35-7.71-1.39-2.53-2.77-5.04-4.25-7.5 1.15-8.02-1.64-15.77-3.98-23.29-3.44-10.86-8.94-20.86-14-31-8.65-16.05-18.7-31.28-28.42-46.69-3.92-6.02-6.89-12.61-8.77-19.55 5.9.0 11.79.05 17.7.02 10.74.02 21.48-.01 32.23.02 8.58 4.39 15.76 11.04 21.92 18.38 8.15 9.87 14.45 21.08 21.19 31.92 11.13 18.78 22.14 37.64 33.69 56.17 8.95 14.8 17.62 29.77 26.22 44.78 8.49 15.36 17.61 30.61 22.52 47.59 4.34 13.67 4.29 28.64.03 42.33-6.88 22.53-20.06 42.3-31.19 62.85-18.35 32.01-36.25 64.26-55.04 96-9.17 15.27-19.32 30.5-33.75 41.29-15.65 10.91-35.23 13.68-53.86 14.38-10.8 1.1-21.66.56-32.49.67-37.98-.01-75.97.04-113.95.01-12.51-.9-25.15-1.05-37.44-3.8-10.7-2.22-21.11-6.57-29.63-13.5-16.88-13.78-27.46-33.23-38.45-51.64-19.4-33.69-38.52-67.54-57.72-101.35-7.57-14.1-15.91-27.97-20.54-43.41-4.05-11.43-4.75-23.91-2.51-35.79 2.3-11.3 6.9-21.97 11.91-32.3 16.84-31.92 35.62-62.76 54.37-93.58 10.26-16.77 19.7-34.04 30.53-50.47 7.88-12.18 17.66-23.73 30.72-30.52m-59.87 117.33c-15.9 19.22-28.48 40.92-40.07 62.93-4.01 7.75-7.41 15.87-9.59 24.33-1.8 6.65-1.27 13.58-1.31 20.39-.07 5.66 1.32 11.21 3.11 16.55 2.88 8.35 6.52 16.43 10.91 24.1 3.9 7.91 8.36 15.54 12.62 23.27 18.44 32.52 36.9 65.04 55.59 97.42 6.85 11.5 14.02 22.99 23.2 32.8 8.76 8.85 20.17 15.09 32.42 17.45 9.09 2.11 18.46 2.05 27.71 2.92 42.69.09 85.38.02 128.06.05 8.33-.05 16.7.33 24.99-.73 12.46-.61 25.28-2.41 36.31-8.62 6.36-3.68 12.59-7.91 17.29-13.64 4.55-5.5 8.92-11.16 12.69-17.23 9.98-15.89 19.12-32.29 28.43-48.58 8.83-15.22 17.4-30.58 26.21-45.8 9.92-18.12 20.9-35.72 29.22-54.66 4.26-9.49 7.15-19.81 6.48-30.3.62-9.99-2.01-19.82-5.88-28.94-7.32-16.87-16.8-32.7-26.57-48.25-8.71-12.68-17.13-26.03-29.34-35.7-2.5-2.28-6.02-1.77-9.09-1.55-1.44 4.17-2.35 8.5-3.14 12.84-3.61 19.39-7.87 38.89-16.31 56.83-10.97 23.61-23.61 46.7-40.23 66.85-10.33 12.24-22.95 22.82-37.69 29.3-16.43 7.44-34.52 9.98-52.36 11.09-11.69-.04-23.38-.01-35.06-.02-19.95-1.29-40.25-4.73-58.02-14.32-15.23-8.46-28.06-20.86-38.05-35.05-11.17-15.11-20.52-31.5-28.71-48.38-7.95-15.03-13.21-31.33-17.12-47.83-2.59-10.96-2.26-23.09-8.91-32.69-7.63 1.52-13.06 7.45-17.79 13.17z" fill="#446b2d"/><g fill="#405737"><path d="m923.02 1027.96c1.93-.01 3.87-.01 5.83.02 7.42.08 14.84-.06 22.27.0 5 .02 10.01.04 15.01.02-4.9 1.83-9.21 4.87-13.44 7.9-6.82-.06-13.65-.03-20.47.14-18.94 33.14-37.98 66.24-56.69 99.52-2.46 4.31-4.86 8.65-7.45 12.88-.16-2.71-.4-5.43.0-8.11 2.72-14.62 8.59-28.43 15.56-41.49 8.29-16 17.84-31.29 27.66-46.38 4.89-7.64 9.78-15.5 11.72-24.5z"/><path d="m1061.48 1027.99c4.21.02 8.43.02 12.65-.01.66.0 1.99-.01 2.65-.01 1.88 6.94 4.85 13.53 8.77 19.55 9.72 15.41 19.77 30.64 28.42 46.69 5.06 10.14 10.56 20.14 14 31 2.34 7.52 5.13 15.27 3.98 23.29-10.13-17.12-19.55-34.65-29.52-51.86-10.6-18.74-21.56-37.29-31.94-56.15-1.01-1.67-2.19-3.19-3.46-4.64-2.19-2.37-3.98-5.06-5.55-7.86z"/><path d="m1102.81 1214.69c9.86-16.9 19.07-34.15 29.04-50.98-.11 14.69-6.22 28.47-12.38 41.53-8.96 17.69-19.05 35.01-32.17 49.98-4.02 4.95-9.1 8.86-14.45 12.26 9.55-17.83 20.08-35.14 29.96-52.79z"/></g><path d="m966.13 1028c28.34-.18 56.67.03 85-.02 3.45-.05 6.9-.03 10.35.01 1.57 2.8 3.36 5.49 5.55 7.86-23.34.41-46.68-.07-70.02.06-14.77-.08-29.55.22-44.32-.01 4.23-3.03 8.54-6.07 13.44-7.9z" fill="#3d4b3d"/><path d="m1254.17 1027.89c4.93.06 9.86.14 14.8.09 2.63-.03 5.28-.01 7.93.01 17.17 30.78 34.88 61.25 52.21 91.93 11.21 19.78 22.84 39.33 33.59 59.37 7.74 13.67 14.6 27.95 18.88 43.11 3.09 11.75 5.04 24.08 3.06 36.21-1.8 16.66-8.71 32.15-15.93 47.08-17.71 33-36.73 65.27-55.07 97.93-4.65 8.16-8.77 16.6-12.88 25.04-3.83 7.87-6.5 16.38-7.18 25.14-.47 6.75 2.03 13.89 7.38 18.23 7.71 6.54 18.1 8.27 27.84 9.33 18.5 1.06 37.88.41 54.88-7.79 7.12-3.82 13.82-8.58 19.5-14.34 13.63-14.79 22.95-32.76 33.12-49.93 63.3-111.3 126.84-222.46 190.18-333.74 8.81-15.91 18.29-31.45 26.72-47.56 3.29.0 6.58-.03 9.89-.01 4.28.03 8.57-.03 12.87-.03-8.79 16.38-18.4 32.33-27.5 48.55-22.41 39.26-44.68 78.6-67.17 117.82-18.99 33.88-38.63 67.41-57.61 101.3-19.31 33.76-38.6 67.53-57.78 101.37-11.94 21.01-24.09 41.9-35.87 63-4.77 8.09-9.19 16.4-14.15 24.36-7.03 4.78-13.79 10.18-21.74 13.38-4.18 1.66-8.32 3.4-12.54 4.9-29.73.27-59.48.2-89.2.05-6.92-2.72-14.04-5.49-19.77-10.34-6.56-5.9-10.85-14.47-11.06-23.33-.1-4.71-.15-9.43.24-14.11 38.88-68.45 77.97-136.79 116.72-205.32.84-1.2.42-2.71-.33-3.8-41.18-72.72-82.74-145.24-124.03-217.9z" fill="#415b35"/><path d="m1276.9 1027.99h5.22c3.73-.02 7.48.01 11.23.0 4.63-.03 9.26.02 13.9.01l.76-.01c7.78 15.54 17.25 30.15 25.49 45.45 18.31 32.34 37.1 64.4 55.08 96.93 8.52 16.55 17.35 33.27 21.44 51.58 5.17 20.24 3.59 41.8-2.38 61.69-5.85 17.65-14.62 34.14-23.59 50.38-13.67 25.21-28.74 49.63-42.11 75-3.99 7.9-7.98 16.05-9.29 24.9-.88 5.41 1.3 11.37 5.88 14.53 3.19 2.13 7.09 2.86 10.87 3.15 12.57.81 25.13-4.44 34.16-13.08 9.65-9.69 16.8-21.49 23.89-33.09 65.13-114.21 130.44-228.32 195.39-342.62 6.39-11.67 13.52-22.93 19.47-34.83.63.0 1.9.01 2.53.01 5.32.04 10.66-.04 15.99-.01 3.75.02 7.5-.01 11.26.01l1.11.01c-8.43 16.11-17.91 31.65-26.72 47.56-63.34 111.28-126.88 222.44-190.18 333.74-10.17 17.17-19.49 35.14-33.12 49.93-5.68 5.76-12.38 10.52-19.5 14.34-17 8.2-36.38 8.85-54.88 7.79-9.74-1.06-20.13-2.79-27.84-9.33-5.35-4.34-7.85-11.48-7.38-18.23.68-8.76 3.35-17.27 7.18-25.14 4.11-8.44 8.23-16.88 12.88-25.04 18.34-32.66 37.36-64.93 55.07-97.93 7.22-14.93 14.13-30.42 15.93-47.08 1.98-12.13.03-24.46-3.06-36.21-4.28-15.16-11.14-29.44-18.88-43.11-10.75-20.04-22.38-39.59-33.59-59.37-17.33-30.68-35.04-61.15-52.21-91.93z" fill="#46712a"/><path d="m1308.01 1027.99c3.99-.01 8 .02 12.01-.01 94.93.04 189.87.03 284.81.01 5.82.03 11.65-.01 17.48-.01-5.95 11.9-13.08 23.16-19.47 34.83-64.95 114.3-130.26 228.41-195.39 342.62-7.09 11.6-14.24 23.4-23.89 33.09-9.03 8.64-21.59 13.89-34.16 13.08-3.78-.29-7.68-1.02-10.87-3.15-4.58-3.16-6.76-9.12-5.88-14.53 1.31-8.85 5.3-17 9.29-24.9 13.37-25.37 28.44-49.79 42.11-75 8.97-16.24 17.74-32.73 23.59-50.38 5.97-19.89 7.55-41.45 2.38-61.69-4.09-18.31-12.92-35.03-21.44-51.58-17.98-32.53-36.77-64.59-55.08-96.93-8.24-15.3-17.71-29.91-25.49-45.45z" fill="#498023"/><path d="m813.37 1145.35c4.73-5.72 10.16-11.65 17.79-13.17 6.65 9.6 6.32 21.73 8.91 32.69 3.91 16.5 9.17 32.8 17.12 47.83 8.19 16.88 17.54 33.27 28.71 48.38 9.99 14.19 22.82 26.59 38.05 35.05 17.77 9.59 38.07 13.03 58.02 14.32 11.68.01 23.37-.02 35.06.02 17.84-1.11 35.93-3.65 52.36-11.09 14.74-6.48 27.36-17.06 37.69-29.3 16.62-20.15 29.26-43.24 40.23-66.85 8.44-17.94 12.7-37.44 16.31-56.83.79-4.34 1.7-8.67 3.14-12.84 3.07-.22 6.59-.73 9.09 1.55 12.21 9.67 20.63 23.02 29.34 35.7 9.77 15.55 19.25 31.38 26.57 48.25 3.87 9.12 6.5 18.95 5.88 28.94.67 10.49-2.22 20.81-6.48 30.3-8.32 18.94-19.3 36.54-29.22 54.66-8.81 15.22-17.38 30.58-26.21 45.8-9.31 16.29-18.45 32.69-28.43 48.58-3.77 6.07-8.14 11.73-12.69 17.23-4.7 5.73-10.93 9.96-17.29 13.64-11.03 6.21-23.85 8.01-36.31 8.62-8.29 1.06-16.66.68-24.99.73-42.68-.03-85.37.04-128.06-.05-9.25-.87-18.62-.81-27.71-2.92-12.25-2.36-23.66-8.6-32.42-17.45-9.18-9.81-16.35-21.3-23.2-32.8-18.69-32.38-37.15-64.9-55.59-97.42-4.26-7.73-8.72-15.36-12.62-23.27-4.39-7.67-8.03-15.75-10.91-24.1-1.79-5.34-3.18-10.89-3.11-16.55.04-6.81-.49-13.74 1.31-20.39 2.18-8.46 5.58-16.58 9.59-24.33 11.59-22.01 24.17-43.71 40.07-62.93z" fill="#497e24"/><g fill="#405836"><path d="m867.11 1161.92c11.41 19.35 22.06 39.15 33.38 58.56 8.92 15.97 18.5 31.57 27.05 47.74-4.79-2.61-9.4-5.66-12.99-9.81-6.95-7.87-13.33-16.25-19.01-25.07-8.35-13.45-16.26-27.29-21.89-42.13-3.43-9.42-6.77-19.13-6.54-29.29z"/><path d="m939.61 1276.16c15.12-.39 30.25.05 45.38-.05 25.14.19 50.28-.3 75.42.06-18.61 9.55-39.98 10.48-60.45 11.44-20.45-.96-41.78-1.86-60.35-11.45z"/></g><g fill="#3d4a3d"><path d="m710.78 1245.76c5.46-9.33 10.41-18.97 16.23-28.08-1.75 9.73-4.76 19.33-4.59 29.31-.25 10.64 2.54 20.99 4.6 31.34-5.38-8.28-9.79-17.14-14.87-25.6-1.21-2.07-3.02-4.62-1.37-6.97z"/><path d="m1272.99 1217.69c5.39 8.27 9.78 17.13 14.87 25.59 1.18 2.05 2.99 4.58 1.38 6.94-5.48 9.33-10.42 18.99-16.26 28.1 1.98-10.03 4.71-20.03 4.59-30.33.17-10.3-2.62-20.28-4.58-30.3z"/></g><path d="m727.06 1435.67c9.66 15.24 17.88 31.38 26.84 47.05-2.82 7.59-7.3 14.45-13.15 20.07-29.59.29-59.19.2-88.78.21-19.16-.04-38.32.13-57.47-.24-7.71-13.2-15.61-26.32-22.73-39.85 6.41 6.04 11.26 13.61 18.42 18.87 12.06 10.12 27.15 16.17 42.69 18.31 12.56 2.47 25.4 1.34 38.11 1.62 6.98.06 14.02.22 20.93-.98 9.57-1.56 19.41-3.7 27.46-9.4 7.44-4.98 12.88-13.28 13.29-22.34.3-6.68.32-13.53-1.75-19.96-1.42-4.42-2.68-8.88-3.86-13.36z" fill="#3d493e"/><path d="m1251.98 1472.03c3.39-5.65 6.06-11.71 9.83-17.12-.39 4.68-.34 9.4-.24 14.11.21 8.86 4.5 17.43 11.06 23.33 5.73 4.85 12.85 7.62 19.77 10.34-19.09.86-38.23-.13-57.34-.19 5.49-10.24 11.23-20.34 16.92-30.47z" fill="#3b4241"/><g fill="#3c483e"><path d="m837.8 1472.89c7.16 6.24 13.65 13.41 21.94 18.24 9.38 5.8 20.14 8.68 30.69 11.56-11.95.7-23.94.16-35.9.05-5.33-10.09-11.69-19.62-16.73-29.85z"/><path d="m1141.52 1490.35c7.78-4.72 13.71-11.74 20.68-17.48-5.03 10.25-11.41 19.77-16.73 29.87-11.94.11-23.92.65-35.85-.05 10.97-3.06 22.32-5.88 31.9-12.34z"/></g><path d="m753.9 1482.72c4.13 6.4 7.79 13.11 11.19 19.93-8.11.18-16.24.66-24.34.14 5.85-5.62 10.33-12.48 13.15-20.07z" fill="#393846"/><path d="m1394.14 1497.74c7.95-3.2 14.71-8.6 21.74-13.38-2.99 6.38-6.75 12.38-10.36 18.43-7.97.09-15.98.61-23.92-.15 4.22-1.5 8.36-3.24 12.54-4.9z" fill="#3c463f"/></svg>