<svg height="128pt" viewBox="0 0 128 128" width="128pt" xmlns="http://www.w3.org/2000/svg"><g fill="#e9d038"><path d="m39.55 1.01c2.03 6 4.22 11.94 6.37 17.88.58 1.58 1.16 3.15 1.77 4.72 1.05 2.95 2.48 5.85 2.86 8.99-2.45 3.75-7.63 5.01-11.75 3.64-2.98-.57-1.77-4.55-2.17-6.73.85-3.5 1.12-7.09 1.36-10.67.51-5.94.9-11.9 1.56-17.83z"/><path d="m84.48 18.93c2.16-5.94 4.26-11.91 6.54-17.81.15 5.95.83 11.86 1.3 17.78.56 4.67-.04 9.71 2.2 14.01-1.77 5.38-8.78 4.93-12.66 2.26-4.22-2.76-.03-7.9.82-11.5.61-1.57 1.21-3.15 1.8-4.74z"/><path d="m15.54 66.37c3.87.98 6.47 4 7.67 7.72-.76.4-2.28 1.2-3.05 1.6-1.1.55-2.2 1.11-3.32 1.64-5.24 2.48-10.52 4.88-15.65 7.58 3.55-4.76 7.37-9.31 11.12-13.9 1.17-1.48 2.26-3.02 3.23-4.64z"/><path d="m104.56 75.58c.41-3.85 2.76-6.97 6.29-8.53.61.64 1.83 1.91 2.44 2.55.9.97 1.78 1.95 2.68 2.92 3.66 3.99 7.45 7.86 11.16 11.81-4.84-1.95-9.72-3.81-14.6-5.69-1.4-.54-2.81-1.09-4.22-1.63-1.25-.48-2.5-.95-3.75-1.43z"/></g><g fill="#261447"><path d="m3.9 39.81c4.08-6.92 7.96-13.95 11.95-20.91 7.38-.03 14.76.05 22.14-.06-.24 3.58-.51 7.17-1.36 10.67-2.75 4.63-5.45 9.29-8.05 14.01-.97-.01-1.95-.04-2.93-.07-.27 2.82-.43 5.77-1.97 8.25-2.81 4.83-5.68 9.64-8.14 14.67-.97 1.62-2.06 3.16-3.23 4.64-.81-1.37-1.61-2.75-2.42-4.12 1.57-2.76 3.14-5.53 4.78-8.25-3.6-6.27-7.09-12.6-10.77-18.83m14.32-16.68c-3.17 5.55-6.33 11.11-9.45 16.7 2.79 4.89 5.53 9.8 8.35 14.68 1.65-2.42 3.11-4.96 4.44-7.57-1.36-2.37-2.72-4.73-4.1-7.08 1.75-3.09 3.5-6.19 5.32-9.24 2.69.02 5.39.04 8.09.06 1.45-2.43 2.86-4.88 4.27-7.33-5.63-.46-11.28-.16-16.92-.22z"/><path d="m92.32 18.9c6.96-.04 13.91.01 20.87-.03 4.04 6.99 7.96 14.06 12.04 21.03-3.6 6.25-7.15 12.52-10.72 18.78 1.62 2.72 3.18 5.47 4.75 8.21-1.1 1.87-2.19 3.75-3.29 5.63-.9-.97-1.78-1.95-2.68-2.92.18-1.78.52-3.69-.57-5.26-3.03-5.43-6.05-10.87-9.42-16.1.01-1.47.04-2.94.08-4.4-2.89.22-5.81.23-8.64-.45 1.97.21 3.95.33 5.93.45-1.92-3.71-4.09-7.29-6.15-10.93-2.24-4.3-1.64-9.34-2.2-14.01m1.97 4.66c1.39 2.35 2.76 4.71 4.12 7.08 2.75.0 5.5.01 8.25.05 1.68 3.11 3.44 6.18 5.22 9.24-1.38 2.37-2.74 4.75-4.09 7.13 1.25 2.25 2.39 4.56 3.83 6.69.18-.01.53-.02.71-.03 2.76-4.49 5.16-9.2 7.85-13.74-3.05-5.5-6.17-10.95-9.29-16.41-5.53-.05-11.06-.04-16.6-.01z"/><path d="m30.99 103.83c1.59-.38 3.18-.76 4.77-1.14.9 1.79 1.79 3.57 2.69 5.36-.84 1.48-1.66 2.97-2.46 4.48-1.71-2.88-3.36-5.79-5-8.7z"/></g><path d="m45.92 18.89c12.85.04 25.71-.03 38.56.04-.59 1.59-1.19 3.17-1.8 4.74-2.14-.04-4.27-.06-6.4-.16l-.07-.28c-.62.44-1.23.88-1.85 1.31-6.61-2-13.66-.5-20.46-.91-.18-.01-.54-.02-.73-.03-1.83.0-3.65-.02-5.48.01-.61-1.57-1.19-3.14-1.77-4.72z" fill="#261448"/><g fill="#f6a724"><path d="m18.22 23.13c5.64.06 11.29-.24 16.92.22-1.41 2.45-2.82 4.9-4.27 7.33-2.7-.02-5.4-.04-8.09-.06-1.82 3.05-3.57 6.15-5.32 9.24 1.38 2.35 2.74 4.71 4.1 7.08-1.33 2.61-2.79 5.15-4.44 7.57-2.82-4.88-5.56-9.79-8.35-14.68 3.12-5.59 6.28-11.15 9.45-16.7z"/><path d="m47.69 23.61c1.83-.03 3.65-.01 5.48-.01-1.01 4.99-1.93 10.72 1.4 15.08L56 40.94c-3.48-1.09-6.97-2.72-10.71-2.42 2.39 1.83 4.98 3.38 7.32 5.27-2.51-.05-5.02-.09-7.53-.31-.14-.02-.43-.07-.58-.09-5.26-1.54-10.59.19-15.92.13 2.6-4.72 5.3-9.38 8.05-14.01.4 2.18-.81 6.16 2.17 6.73 4.12 1.37 9.3.11 11.75-3.64-.38-3.14-1.81-6.04-2.86-8.99z"/><path d="m76.28 23.51c2.13.1 4.26.12 6.4.16-.85 3.6-5.04 8.74-.82 11.5 3.88 2.67 10.89 3.12 12.66-2.26 2.06 3.64 4.23 7.22 6.15 10.93-1.98-.12-3.96-.24-5.93-.45-3.65-.99-7.42-.75-11.04.22-2.34.12-4.68.11-7.03.1 2.42-1.67 4.85-3.33 7.21-5.08-3.59.81-7.15 1.76-10.65 2.92 1.54-2.38 3.32-4.73 3.93-7.56.74-3.5-.09-7.07-.88-10.48z"/><path d="m94.29 23.56c5.54-.03 11.07-.04 16.6.01 3.12 5.46 6.24 10.91 9.29 16.41-2.69 4.54-5.09 9.25-7.85 13.74-.18.01-.53.02-.71.03-1.44-2.13-2.58-4.44-3.83-6.69 1.35-2.38 2.71-4.76 4.09-7.13-1.78-3.06-3.54-6.13-5.22-9.24-2.75-.04-5.5-.05-8.25-.05-1.36-2.37-2.73-4.73-4.12-7.08z"/></g><path d="m74.36 24.54c.62-.43 1.23-.87 1.85-1.31l.07.28c.79 3.41 1.62 6.98.88 10.48-.61 2.83-2.39 5.18-3.93 7.56 3.5-1.16 7.06-2.11 10.65-2.92-2.36 1.75-4.79 3.41-7.21 5.08 2.35.01 4.69.02 7.03-.1-3.95 2.26-8.18 4.48-10.88 8.28-2.07 2.94-3.5 6.27-4.81 9.59.14-6.26 4.17-11.21 6.77-16.6-8.08 6.07-8.83 16.79-10.33 25.95-.27-2.79-.41-5.6-.41-8.41 1.18-10.02.71-20.17.34-30.24 3.36-2.5 6.5-5.29 9.98-7.64z" fill="#533c68"/><g fill="#5f4779"><path d="m53.17 23.6c.19.01.55.02.73.03 3.57 2.76 6.93 5.77 10.48 8.55.37 10.07.84 20.22-.34 30.24-1.28-4.6-2.44-9.46-5.39-13.33-1.83-2.55-3.93-4.89-6.09-7.16 1.66-.07 3.31-.13 4.97-.18-1-1.01-1.98-2.05-2.96-3.07-3.33-4.36-2.41-10.09-1.4-15.08z"/><path d="m25.65 43.45c.98.03 1.96.06 2.93.07 5.33.06 10.66-1.67 15.92-.13-6.28-.81-12.49 1.11-18.78.58.41 5.39-.61 10.71-.75 16.08.37 6.73 2.77 13.61 7.54 18.5 3.95 3.87 9.36 6.31 14.94 6.31-1.97 3.25-3.84 6.55-5.59 9.92 2.82 4.96 5.71 9.87 8.45 14.87-.41.23-1.22.7-1.63.94-2.03-2.92-4.71-5.36-8.4-5.74-.61 1.07-1.22 2.13-1.83 3.2-.9-1.79-1.79-3.57-2.69-5.36.72-.18 2.17-.53 2.9-.71.18-4.06-2.59-6.94-5.61-9.18-.51.41-1.55 1.23-2.06 1.64-1.06-1.72-2.11-3.45-3.17-5.17 1.15-.33 2.29-.67 3.43-1.02-.89-3.55-2.91-6.61-6.2-8.34-.44.37-1.32 1.09-1.76 1.45-1.04-1.89-2.09-3.78-3.13-5.67.77-.4 2.29-1.2 3.05-1.6-1.2-3.72-3.8-6.74-7.67-7.72 2.46-5.03 5.33-9.84 8.14-14.67 1.54-2.48 1.7-5.43 1.97-8.25z"/><path d="m45.08 43.48c2.51.22 5.02.26 7.53.31 1.54 1.41 2.97 2.93 4.47 4.38 1.57 3.5 3.14 7.03 4.15 10.74 1.02 3.68.69 7.53.93 11.3-1.04-5.42-1.44-11.14-4.46-15.93-2.6-5.16-7.78-8.09-12.62-10.8z"/><path d="m103.3 48.24c3.37 5.23 6.39 10.67 9.42 16.1 1.09 1.57.75 3.48.57 5.26-.61-.64-1.83-1.91-2.44-2.55-3.53 1.56-5.88 4.68-6.29 8.53 1.25.48 2.5.95 3.75 1.43-.8 1.35-1.61 2.7-2.41 4.04-.47-.36-1.39-1.1-1.85-1.46-3.21 1.85-5.34 4.84-5.87 8.53.82.22 2.46.65 3.28.87-.85 1.3-1.7 2.59-2.57 3.88-4.26-1.49-7.27 3.02-8.81 6.32 1.4.78 2.78 1.58 4.2 2.33-.93 1.57-1.85 3.14-2.78 4.71-.32-.54-.97-1.63-1.29-2.18-3.63.76-6.57 2.97-7.97 6.43-1.15-.29-2.3-.51-3.45-.75 2.55-5.04 5.97-9.63 8.1-14.87-.91-3.64-3.33-6.66-5.11-9.92 5.27-.2 10.4-2.35 14.25-5.94 4.27-3.99 6.55-9.65 7.62-15.29 1.02-5.14-.47-10.31-.35-15.47z"/></g><path d="m53.9 23.63c6.8.41 13.85-1.09 20.46.91-3.48 2.35-6.62 5.14-9.98 7.64-3.55-2.78-6.91-5.79-10.48-8.55z" fill="#f4a625"/><path d="m45.29 38.52c3.74-.3 7.23 1.33 10.71 2.42l-1.43-2.26c.98 1.02 1.96 2.06 2.96 3.07-1.66.05-3.31.11-4.97.18 2.16 2.27 4.26 4.61 6.09 7.16l-1.57-.92c-1.5-1.45-2.93-2.97-4.47-4.38-2.34-1.89-4.93-3.44-7.32-5.27z" fill="#8b7598"/><g fill="#a92f2c"><path d="m83.7 43.61c3.62-.97 7.39-1.21 11.04-.22 2.83.68 5.75.67 8.64.45-.04 1.46-.07 2.93-.08 4.4-.12 5.16 1.37 10.33.35 15.47-1.07 5.64-3.35 11.3-7.62 15.29-3.85 3.59-8.98 5.74-14.25 5.94-1.74-.12-3.47-.32-5.2-.53-.87 1.38-2.41 2.74-1.85 4.57.69 3.89 2.82 7.29 4.75 10.67.39.66.77 1.31 1.17 1.97-.58.66-1.16 1.32-1.75 1.98-2.22-3.77-4.81-7.41-6-11.68-.91-2.77-1.17-5.78-2.52-8.39-1.55-2.3-3.67-4.15-5.47-6.24-.42-1.49-.87-2.98-1.52-4.39 1.05-.39 2.08-.83 3.1-1.31.97-3.28.97-6.75 1.52-10.11 1.31-3.32 2.74-6.65 4.81-9.59 2.7-3.8 6.93-6.02 10.88-8.28m.74 6.69c1.22.48 2.44.93 3.67 1.39-3.16.02-6.58.3-9.24 2.18-2.07 1.83-3.13 4.5-4.18 6.99-2.94 5.25.38 11.13-1.11 16.64 4.56-.55 9.1 1.04 13.64.01-1.46-.41-2.92-.79-4.35-1.24 4.23.48 9.43-.61 11.67-4.63 1.66-3.32 1.81-7.17 1.8-10.82.44 1.51.88 3.02 1.36 4.52.67-5.01-1.06-10-.05-14.98-4.4.85-8.79-.68-13.21-.06M66.02 74.14c-1.62 2.94 3.34.22.0.0z"/><path d="m64.9 79.19c1.5 1.48 3.21 2.79 4.41 4.53 1.25 2.43 1.63 5.18 2.42 7.77 1.31 4.7 3.94 8.86 6.37 13.03-.88.93-1.76 1.87-2.67 2.78-1.78 1.15-3.6 2.25-5.41 3.35-1.78 1.02-3.52 2.11-5.25 3.2-.12-5.02-.1-10.05.28-15.06.5 1.58 3.39.65 1.73-.69-.42-.01-1.27-.04-1.69-.06.0-.79-.01-2.39-.01-3.18.63 1.53 3.43.37 1.66-.83-.42.02-1.26.06-1.68.08-.55-4.96-.55-9.95-.16-14.92m1.12 22.98c-1.61 2.94 3.34.21.0.0m0 4.13c-1.62 2.93 3.33.22.0.0z"/></g><g fill="#c73535"><path d="m25.72 43.97c6.29.53 12.5-1.39 18.78-.58.15.02.44.07.58.09 4.84 2.71 10.02 5.64 12.62 10.8 3.02 4.79 3.42 10.51 4.46 15.93.31.67.92 2.02 1.23 2.69.65 1.41 1.1 2.9 1.52 4.39-2.56 1.88-5.57 3.64-6.9 6.68-1.09 2.79-1.54 5.79-2.53 8.62-1.3 3.91-3.66 7.33-5.54 10.96-.41-.46-1.22-1.37-1.63-1.83.43-.74.87-1.47 1.3-2.21 1.99-3.62 4.37-7.28 4.7-11.51.29-1.47-1.21-2.32-1.93-3.37-1.64.06-3.29.18-4.93.23-5.58.0-10.99-2.44-14.94-6.31-4.77-4.89-7.17-11.77-7.54-18.5.14-5.37 1.16-10.69.75-16.08m5.6 6.38c.94 4.99-.73 9.98-.05 14.99.46-1.49.88-2.99 1.31-4.49.01 4.25-.09 9.23 3.12 12.47 2.63 2.79 6.79 3.23 10.41 2.96-1.43.48-2.88.89-4.32 1.33 4.52.78 9.01-.61 13.54-.14-1.44-5.5 1.79-11.33-1.02-16.61-.94-2.31-1.99-4.66-3.74-6.48-2.52-2.49-6.34-2.68-9.68-2.71 1.18-.41 2.36-.83 3.54-1.24-4.37-.84-8.74.83-13.11-.08m30.77 23.81c-1.54 2.98 3.34.14.0.0z"/><path d="m58.6 87.58c.65-3.68 3.39-6.29 5.96-8.74l.34.35c-.39 4.97-.39 9.96.16 14.92l.02.75c0 .79.01 2.39.01 3.18l-.04.75c-.38 5.01-.4 10.04-.28 15.06-4.91-2.54-10.02-5.02-13.81-9.15 3.36-5.31 6.28-10.95 7.64-17.12m3.51 10.5c-1.59 2.94 3.34.19.0.0m-.02 4.1c-1.55 2.97 3.34.14.0.0m-.02 4.14c-1.43 3.03 3.35.03.0.0z"/></g><path d="m64.45 70.83c1.5-9.16 2.25-19.88 10.33-25.95-2.6 5.39-6.63 10.34-6.77 16.6-.55 3.36-.55 6.83-1.52 10.11-1.02.48-2.05.92-3.1 1.31-.31-.67-.92-2.02-1.23-2.69-.24-3.77.09-7.62-.93-11.3-1.01-3.71-2.58-7.24-4.15-10.74l1.57.92c2.95 3.87 4.11 8.73 5.39 13.33.0 2.81.14 5.62.41 8.41z" fill="#6c5c90"/><path d="m31.32 50.35c4.37.91 8.74-.76 13.11.08-1.18.41-2.36.83-3.54 1.24-4.33 1.08-7.42 4.91-8.31 9.18-.43 1.5-.85 3-1.31 4.49-.68-5.01.99-10 .05-14.99z" fill="#7a231c"/><path d="m84.44 50.3c4.42-.62 8.81.91 13.21.06-1.01 4.98.72 9.97.05 14.98-.48-1.5-.92-3.01-1.36-4.52-.88-4.25-3.95-8-8.23-9.13-1.23-.46-2.45-.91-3.67-1.39z" fill="#5a170e"/><path d="m32.58 60.85c.89-4.27 3.98-8.1 8.31-9.18 3.34.03 7.16.22 9.68 2.71 1.75 1.82 2.8 4.17 3.74 6.48.93 6.15-1.69 13.61-8.2 15.42-3.62.27-7.78-.17-10.41-2.96-3.21-3.24-3.11-8.22-3.12-12.47m10.67-6.41c-7.71.29-10.83 10.89-5.93 16.21 2.91 3.97 9.35 3.84 12.17-.15 4.78-5.41 1.48-16-6.24-16.06z" fill="#e74d36"/><path d="m78.87 53.87c2.66-1.88 6.08-2.16 9.24-2.18 4.28 1.13 7.35 4.88 8.23 9.13.01 3.65-.14 7.5-1.8 10.82-2.24 4.02-7.44 5.11-11.67 4.63-6.53-1.75-9.21-9.27-8.18-15.41 1.05-2.49 2.11-5.16 4.18-6.99m6.36.57c-8.76.56-10.91 13.78-3.69 17.99 4.9 3.32 11.55-.97 12.14-6.43 1.21-5.33-2.66-11.68-8.45-11.56z" fill="#c4442c"/><path d="m43.25 54.44c7.72.06 11.02 10.65 6.24 16.06-2.82 3.99-9.26 4.12-12.17.15-4.9-5.32-1.78-15.92 5.93-16.21m-4.93 9.59c1 2.87 3.89 6.15 7.22 4.29 4.22-1.69 3.03-8.73-1.56-8.82-2.94-.51-4.49 2.38-5.66 4.53z" fill="#d08e1d"/><path d="m85.23 54.44c5.79-.12 9.66 6.23 8.45 11.56-.59 5.46-7.24 9.75-12.14 6.43-7.22-4.21-5.07-17.43 3.69-17.99m-1.89 5.93c-2.77 1.59-3.16 5.85-.48 7.71 2.91 2.83 8.19-.22 7.54-4.11-.1-3.33-4.31-5.45-7.06-3.6z" fill="#d08d1d"/><g fill="#35b437"><path d="m38.32 64.03c1.17-2.15 2.72-5.04 5.66-4.53 4.59.09 5.78 7.13 1.56 8.82-3.33 1.86-6.22-1.42-7.22-4.29m3.92-1.83c-1.67.94-.59 2.97-.49 4.38 2.1.01 3.94-.67 4.99-2.57-1.25-.95-2.77-3.63-4.5-1.81z"/><path d="m70.02 110.65c1.81-1.1 3.63-2.2 5.41-3.35-.65.95-1.3 1.9-1.94 2.85-1.16.15-2.31.32-3.47.5z"/></g><path d="m83.34 60.37c2.75-1.85 6.96.27 7.06 3.6.65 3.89-4.63 6.94-7.54 4.11-2.68-1.86-2.29-6.12.48-7.71m1.07 2.14c-2.78 1.73.54 5.77 2.83 3.76 2.65-1.68-.5-5.66-2.83-3.76z" fill="#3fa231"/><path d="m54.31 60.86c2.81 5.28-.42 11.11 1.02 16.61-4.53-.47-9.02.92-13.54.14 1.44-.44 2.89-.85 4.32-1.33 6.51-1.81 9.13-9.27 8.2-15.42z" fill="#78231b"/><path d="m73.58 77.5c1.49-5.51-1.83-11.39 1.11-16.64-1.03 6.14 1.65 13.66 8.18 15.41 1.43.45 2.89.83 4.35 1.24-4.54 1.03-9.08-.56-13.64-.01z" fill="#59170d"/><path d="m42.24 62.2c1.73-1.82 3.25.86 4.5 1.81-1.05 1.9-2.89 2.58-4.99 2.57-.1-1.41-1.18-3.44.49-4.38z" fill="#020501"/><path d="m84.41 62.51c2.33-1.9 5.48 2.08 2.83 3.76-2.29 2.01-5.61-2.03-2.83-3.76z" fill="#010401"/><path d="m62.09 74.16c3.34.14-1.54 2.98.0.0z" fill="#82231d"/><g fill="#631910"><path d="m66.02 74.14c3.34.22-1.62 2.94.0.0z"/><path d="m66.02 102.17c3.34.21-1.61 2.94.0.0z"/></g><path d="m16.84 77.33c1.12-.53 2.22-1.09 3.32-1.64 1.04 1.89 2.09 3.78 3.13 5.67-1.2.99-2.41 1.98-3.62 2.97-.82-2.38-1.77-4.71-2.83-7z" fill="#261446"/><path d="m108.31 77.01c1.41.54 2.82 1.09 4.22 1.63-1.02 1.76-2.03 3.52-3.05 5.28-1.19-.96-2.39-1.92-3.58-2.87.8-1.34 1.61-2.69 2.41-4.04z" fill="#291646"/><path d="m58.01 83.97c1.33-3.04 4.34-4.8 6.9-6.68 1.8 2.09 3.92 3.94 5.47 6.24 1.35 2.61 1.61 5.62 2.52 8.39 1.19 4.27 3.78 7.91 6 11.68-.2.23-.6.69-.8.92-2.43-4.17-5.06-8.33-6.37-13.03-.79-2.59-1.17-5.34-2.42-7.77-1.2-1.74-2.91-3.05-4.41-4.53l-.34-.35c-2.57 2.45-5.31 5.06-5.96 8.74-1.36 6.17-4.28 11.81-7.64 17.12-.26-.29-.77-.86-1.02-1.15 1.88-3.63 4.24-7.05 5.54-10.96.99-2.83 1.44-5.83 2.53-8.62z" fill="#c93949"/><g fill="#ef7826"><path d="m23.29 81.36c.44-.36 1.32-1.08 1.76-1.45 3.29 1.73 5.31 4.79 6.2 8.34-1.14.35-2.28.69-3.43 1.02-1.46.4-2.94.77-4.42 1.13-5.24 1.23-10.44 2.6-15.68 3.83 3.78-3.54 7.94-6.64 11.95-9.9 1.21-.99 2.42-1.98 3.62-2.97z"/><path d="m98.18 88.12c.53-3.69 2.66-6.68 5.87-8.53.46.36 1.38 1.1 1.85 1.46 1.19.95 2.39 1.91 3.58 2.87 4.05 3.32 8.12 6.61 12.2 9.88-5.3-.94-10.44-2.54-15.69-3.7-1.51-.36-3.03-.72-4.53-1.11-.82-.22-2.46-.65-3.28-.87z"/></g><path d="m47.45 84.86c1.64-.05 3.29-.17 4.93-.23-2.1 3.32-3.98 6.77-5.84 10.22 1.02 1.55 2.04 3.11 3.07 4.66-.43.74-.87 1.47-1.3 2.21.41.46 1.22 1.37 1.63 1.83.25.29.76.86 1.02 1.15 3.79 4.13 8.9 6.61 13.81 9.15 1.73-1.09 3.47-2.18 5.25-3.2 1.16-.18 2.31-.35 3.47-.5.64-.95 1.29-1.9 1.94-2.85.91-.91 1.79-1.85 2.67-2.78.2-.23.6-.69.8-.92.59-.66 1.17-1.32 1.75-1.98-.4-.66-.78-1.31-1.17-1.97 1.03-1.59 2.06-3.18 3.09-4.78-1.86-3.56-3.77-7.11-5.99-10.46 1.73.21 3.46.41 5.2.53 1.78 3.26 4.2 6.28 5.11 9.92-2.13 5.24-5.55 9.83-8.1 14.87 1.15.24 2.3.46 3.45.75 2.04 1.31 3.96 2.79 5.87 4.28-14.91.04-29.82.06-44.73-.01 1.78-1.38 3.5-2.83 5.3-4.16.41-.24 1.22-.71 1.63-.94-2.74-5-5.63-9.91-8.45-14.87 1.75-3.37 3.62-6.67 5.59-9.92z" fill="#261547"/><g fill="#3aa833"><path d="m52.38 84.63c.72 1.05 2.22 1.9 1.93 3.37-.33 4.23-2.71 7.89-4.7 11.51-1.03-1.55-2.05-3.11-3.07-4.66 1.86-3.45 3.74-6.9 5.84-10.22z"/><path d="m74.73 88.98c-.56-1.83.98-3.19 1.85-4.57 2.22 3.35 4.13 6.9 5.99 10.46-1.03 1.6-2.06 3.19-3.09 4.78-1.93-3.38-4.06-6.78-4.75-10.67z"/></g><path d="m101.46 88.99c1.5.39 3.02.75 4.53 1.11-1.3 2.34-2.63 4.65-3.99 6.95-1.04-1.4-2.05-2.81-3.11-4.18.87-1.29 1.72-2.58 2.57-3.88z" fill="#271547"/><path d="m23.4 90.4c1.48-.36 2.96-.73 4.42-1.13 1.06 1.72 2.11 3.45 3.17 5.17-1.23.98-2.44 1.98-3.65 2.98-1.33-2.33-2.64-4.67-3.94-7.02z" fill="#271546"/><g fill="#6bb350"><path d="m30.99 94.44c.51-.41 1.55-1.23 2.06-1.64 3.02 2.24 5.79 5.12 5.61 9.18-.73.18-2.18.53-2.9.71-1.59.38-3.18.76-4.77 1.14-5.25 1.18-10.45 2.59-15.72 3.71 3.97-3.44 8.05-6.74 12.07-10.12 1.21-1 2.42-2 3.65-2.98z"/><path d="m90.08 99.19c1.54-3.3 4.55-7.81 8.81-6.32 1.06 1.37 2.07 2.78 3.11 4.18 3.29 4.38 6.72 8.67 10.01 13.05-4.63-2.07-9.12-4.43-13.72-6.58-1.34-.65-2.69-1.31-4.01-2-1.42-.75-2.8-1.55-4.2-2.33z"/></g><path d="m65.06 94.11 1.68-.08c1.77 1.2-1.03 2.36-1.66.83z" fill="#731e17"/><path d="m62.11 98.08c3.34.19-1.59 2.94.0.0z" fill="#84241f"/><path d="m65.09 98.04c.42.02 1.27.05 1.69.06 1.66 1.34-1.23 2.27-1.73.69z" fill="#701d16"/><path d="m62.09 102.18c3.34.14-1.55 2.97.0.0z" fill="#81231e"/><path d="m94.28 101.52c1.32.69 2.67 1.35 4.01 2-1.36 2.48-2.76 4.94-4.19 7.38-.84-1.57-1.7-3.13-2.6-4.67.93-1.57 1.85-3.14 2.78-4.71z" fill="#261548"/><g fill="#33acc7"><path d="m40.28 104.85c3.69.38 6.37 2.82 8.4 5.74-1.8 1.33-3.52 2.78-5.3 4.16-4.79 3.62-9.53 7.32-14.36 10.89 2.35-4.36 4.68-8.72 6.97-13.11.8-1.51 1.62-3 2.46-4.48.61-1.07 1.22-2.13 1.83-3.2z"/><path d="m82.24 110.48c1.4-3.46 4.34-5.67 7.97-6.43.32.55.97 1.64 1.29 2.18.9 1.54 1.76 3.1 2.6 4.67 2.44 4.69 5.1 9.26 7.38 14.03-4.46-3.39-8.92-6.77-13.37-10.17-1.91-1.49-3.83-2.97-5.87-4.28z"/></g><path d="m62.07 106.32c3.35.03-1.43 3.03.0.0z" fill="#81231d"/><path d="m66.02 106.3c3.33.22-1.62 2.93.0.0z" fill="#621910"/></svg>