<svg height="64pt" viewBox="0 0 63 64" width="84" xmlns="http://www.w3.org/2000/svg"><path d="m21.57 3.37C26.93.16 34.11-.67 39.94 1.94c2.96 1.26 6.33 2.01 8.54 4.53 6.19 6.68 9.36 15.69 10.35 24.63 1.08 6.68 3.56 13.13 3.82 19.93.32 2.91-1.96 5.04-2.53 7.72-1.52.66-2.61 2.02-3.3 3.49-1.84 1.06-4.06 1.85-6.03.62 2.43-1.42 4.87-2.84 7.06-4.62-1.67-.81-2.9-2.19-4.04-3.62 1.62-3.96 1.57-8.26 1.58-12.45-.21.11-.65.33-.86.44-.74.22-2.23.68-2.97.91-.19.4-.58 1.21-.77 1.61-1.2-5.29-2.03-10.67-3.34-15.94-.46 1.61.34 4.46-1.92 4.78-.49-4.39-.85-8.78-1.42-13.15 1.62.61 3.31.96 4.99 1.3-3.01-2.61-4.18-6.53-4-10.42l-1.59.04c-.86 2.55.99 5.02 1.57 7.42-5.33-2.09-9.82-6.47-11.24-12.12-.33.47-1 1.4-1.33 1.86-.37.04-1.12.1-1.49.14-.35.06-1.05.2-1.4.26-.14.77-.26 1.54-.37 2.31-1.63-1.35-3.02-2.94-4.03-4.8.08 1.28.16 2.57.23 3.85-1.62-.05-3.25-.05-4.87.05.56-1.15.82-2.36.79-3.64.0-.22.0-.67.0-.9-.36-.48-1.08-1.46-1.43-1.94.35-.19 1.05-.55 1.4-.73l.12-.07z" fill="#d3b50b"/><path d="m21.34 3.5c.06-.03.17-.1.23-.13l-.11.06z" fill="#705c18" opacity=".93"/><path d="m14.29 10.88c.71-3.02 2.7-5.56 5.65-6.65.35.48 1.07 1.46 1.43 1.94v.9c-1.97-.27-3.01 2.15-2.31 3.74-1.48.21-2.88.77-4.26 1.34z" fill="#bca53a"/><path d="m19.06 10.81c-.7-1.59.34-4.01 2.31-3.74.03 1.28-.23 2.49-.79 3.64-.38.02-1.14.07-1.52.1z" fill="#8a6c05"/><path d="m25.22 6.81c1.01 1.86 2.4 3.45 4.03 4.8.11-.77.23-1.54.37-2.31.35-.06 1.05-.2 1.4-.26-.35 1.81 1.16 3.47 2.9 3.72.0-1.41-.61-2.73-1.41-3.86.33-.46 1-1.39 1.33-1.86 1.42 5.65 5.91 10.03 11.24 12.12-.58-2.4-2.43-4.87-1.57-7.42l1.59-.04c-.18 3.89.99 7.81 4 10.42-1.68-.34-3.37-.69-4.99-1.3-.61-.26-1.84-.78-2.46-1.04 1.06 5.37.96 10.91 2.41 16.21 1.41 7.43 1.36 16.28-4.34 22 1.59-.13 3.25.1 4.77-.44 2.15-1.01 3.08-3.69 5.5-4.29-.99 1.84-1.9 3.71-2.78 5.6 6.54-2.14 8.61-10.1 7.32-16.25.21-.11.65-.33.86-.44-.01 4.19.04 8.49-1.58 12.45-1.42 2.9-4.19 4.66-6.85 6.29-.18.11-.53.34-.7.45-.13-.64-.39-1.9-.53-2.54-2.87.83-5.76-.07-8.52-.9 3.83-2.57 5.84-6.8 5.83-11.38-2.02 1.85-3.61 4.62-6.57 4.99-2.53.05-4.98-1-6.96-2.53 2.18.12 4.28.77 6.41 1.17 3.23-.38 5.02-3.57 6.6-6.06 1.41-3.25.16-6.9-.17-10.26l-1.17.33c-1.64.44-3.3.83-4.99 1.06 1.5-1.96 4-2.41 6.14-3.32-.52-4.47-1.25-8.92-1.72-13.41-.85-.88-1.82-1.3-2.93-1.28.53-1.44-1.3-2.27-1.91-3.35-3.36-.26-6.65-.94-9.78-2.12-3.33.84-6.74 1.07-10.14 1.4 1.69 1.75 3.7 3.24 6.27 2.98-.46 2.98-4.62.97-6.56.38-.48.4-1.45 1.19-1.93 1.59l-.87-.29c.42-1.5.69-3.03.71-4.58.27-.79.54-1.58.82-2.36l.51 1.27c1.38-.57 2.78-1.13 4.26-1.34.38-.03 1.14-.08 1.52-.1 1.62-.1 3.25-.1 4.87-.05-.07-1.28-.15-2.57-.23-3.85z" fill="#7e6521"/><path d="m31.02 9.04c.37-.04 1.12-.1 1.49-.14.8 1.13 1.41 2.45 1.41 3.86-1.74-.25-3.25-1.91-2.9-3.72z" fill="#c8ac34"/><path d="m15.85 13.16c3.4-.33 6.81-.56 10.14-1.4 3.13 1.18 6.42 1.86 9.78 2.12.61 1.08 2.44 1.91 1.91 3.35-.88-.77-1.7-1.62-2.7-2.25-1.72-.3-3.18.79-4.7 1.38-1.61 1.06-3.62-.87-5.14.51 3.01 2.22 6.55 1.08 9.9.59 1.45.86 2.61 2.11 3.95 3.13-.4-1.14-.83-2.26-1.31-3.36 1.11-.02 2.08.4 2.93 1.28.47 4.49 1.2 8.94 1.72 13.41-2.14.91-4.64 1.36-6.14 3.32 1.69-.23 3.35-.62 4.99-1.06-1.24 2.85-1.54 6.01-1 9.06l2.34.87c-1.58 2.49-3.37 5.68-6.6 6.06-2.13-.4-4.23-1.05-6.41-1.17 1.98 1.53 4.43 2.58 6.96 2.53 2.96-.37 4.55-3.14 6.57-4.99.01 4.58-2 8.81-5.83 11.38 2.76.83 5.65 1.73 8.52.9.14.64.4 1.9.53 2.54.13.66.39 1.98.51 2.64h-1.22c-1.78-.68-3.63-1.26-5.56-1.17-7.66-.02-15.31.33-22.97.3-2.23-.06-4.45.33-6.61.87h-1.19c.49-5.4 1.54-10.72 2.21-16.1.67-2.56-2.92-4.05-2.05-6.62 1.11-4.96.39-10.05.86-15.07.59-1.71 1.94-3.01 2.96-4.47 1.55.06 3.11.11 4.66.16-.29 1.38-.57 2.77-.86 4.16.87-.01 2.62-.04 3.49-.05-.26-.81-.78-2.41-1.04-3.21 1.36-1.77 3.85-2.94 4.09-5.33-1.28.46-2.3 1.3-3.05 2.54-.74-.84-1.49-1.67-2.24-2.49-1.44.7-2.86 1.45-4.26 2.25-.09-.42-.27-1.25-.36-1.66.48-.4 1.45-1.19 1.93-1.59 1.94.59 6.1 2.6 6.56-.38-2.57.26-4.58-1.23-6.27-2.98m9.31 5.92c-.26 1.25-.09 2.43.54 3.55 1.64-.33 3.31-.53 4.97-.71-.04.5-.12 1.49-.16 1.99 1.6.51 2.57.01 2.92-1.49 1.09.9 3.33 4.32 4.28 1.56-1.64-.92-2.53-2.72-4.18-3.6-1.99-1.3-4.46-.22-6.43.6-.65-.64-1.29-1.27-1.94-1.9m-1.54 2.03c-.33 1.8-2.35 2.15-3.06 3.65 1.78.92 3.55 1.87 5.46 2.5.02-.49.07-1.46.1-1.94-.54-.05-1.61-.16-2.15-.21.3-.89.6-1.79.9-2.68-.32-.33-.94-.99-1.25-1.32m-7.33 8.07c-1.94.87-2.62 2.98-3.3 4.81.43.0 1.3.01 1.73.01.01 1.98 2.96 1.31 4.35 1.87-1.54-.12-3.48-1.03-4.37.79 2.87.57 5.71 1.55 8.67 1.34-.07-.39-.2-1.17-.27-1.55.25-.26.76-.78 1.02-1.04 1.47.68 3.1.85 4.68 1.1.33-.24.98-.73 1.3-.98-1.32-.59-2.54-1.45-4-1.66l-.07-1.02.86.64c-.37-1.52-1.63-2.64-2.87-3.48-1.43-.94-4.28-.02-3.57-2.63-1.04 1.25-2.69 1.39-4.16 1.8m-5.05.94c-.4 1.21-.44 2.42-.11 3.66 1.93.12 2.83-4.85.11-3.66m20.71 8.11c3.15 1.57 2.91-4.26.83-4.77-.53 1.53-.69 3.16-.83 4.77m-15.7 2.16c-1.37.81-.31 3.82 1.15 2.18 1.14-.8.29-3.46-1.15-2.18m-3.46 4.66c.13.39.38 1.16.5 1.55 2.78.28 5.58.42 8.35.78-1.61-2.62-5.97-2.27-8.85-2.33z" fill="#b8a49d"/><path d="m8.09 24.66c2.18-3.65 2.49-8.13 5.38-11.42-.02 1.55-.29 3.08-.71 4.58-.55 2.74-2.23 5-3.37 7.49-.34 4.21.57 8.51-.56 12.64-.71 2.51-.58 5.12-.18 7.67-.71-.62-2.13-1.86-2.85-2.48.57 1.12 1.14 2.25 1.71 3.37.92-.08 1.83-.17 2.75-.25.09 1.74.11 3.49.11 5.24-.71-.01-2.12-.03-2.83-.03-4.27-2.89-5.61-8.56-5.04-13.42.19-5.13 5.18-8.32 5.59-13.39z" fill="#d9b527"/><path d="m30.28 16.36c1.52-.59 2.98-1.68 4.7-1.38 1 .63 1.82 1.48 2.7 2.25.48 1.1.91 2.22 1.31 3.36-1.34-1.02-2.5-2.27-3.95-3.13-3.35.49-6.89 1.63-9.9-.59 1.52-1.38 3.53.55 5.14-.51z" fill="#38312a"/><path d="m12.76 17.82.87.29c.09.41.27 1.24.36 1.66 1.4-.8 2.82-1.55 4.26-2.25.75.82 1.5 1.65 2.24 2.49.75-1.24 1.77-2.08 3.05-2.54-.24 2.39-2.73 3.56-4.09 5.33.26.8.78 2.4 1.04 3.21-.87.01-2.62.04-3.49.05.29-1.39.57-2.78.86-4.16-1.55-.05-3.11-.1-4.66-.16-1.02 1.46-2.37 2.76-2.96 4.47-.47 5.02.25 10.11-.86 15.07-.87 2.57 2.72 4.06 2.05 6.62-.67 5.38-1.72 10.7-2.21 16.1H8.8c.21-2.53.43-5.06.55-7.59.04-.87.12-2.61.16-3.47-.49-.37-1.48-1.11-1.97-1.47.71.0 2.12.02 2.83.03.0-1.75-.02-3.5-.11-5.24-.92.08-1.83.17-2.75.25-.57-1.12-1.14-2.25-1.71-3.37.72.62 2.14 1.86 2.85 2.48-.4-2.55-.53-5.16.18-7.67 1.13-4.13.22-8.43.56-12.64 1.14-2.49 2.82-4.75 3.37-7.49z" fill="#6d695b"/><path d="m25.16 19.08c.65.63 1.29 1.26 1.94 1.9 1.97-.82 4.44-1.9 6.43-.6 1.65.88 2.54 2.68 4.18 3.6-.95 2.76-3.19-.66-4.28-1.56-.35 1.5-1.32 2-2.92 1.49.04-.5.12-1.49.16-1.99-1.66.18-3.33.38-4.97.71-.63-1.12-.8-2.3-.54-3.55z" fill="#665a50"/><path d="m41.65 19.78c.62.26 1.85.78 2.46 1.04.57 4.37.93 8.76 1.42 13.15 2.26-.32 1.46-3.17 1.92-4.78 1.31 5.27 2.14 10.65 3.34 15.94.5 2.71 1.1 5.8-.8 8.13-2.42.6-3.35 3.28-5.5 4.29-1.52.54-3.18.31-4.77.44 5.7-5.72 5.75-14.57 4.34-22-1.45-5.3-1.35-10.84-2.41-16.21z" fill="#cfac20"/><path d="m23.62 21.11c.31.33.93.99 1.25 1.32-.3.89-.6 1.79-.9 2.68.54.05 1.61.16 2.15.21-.03.48-.08 1.45-.1 1.94-1.91-.63-3.68-1.58-5.46-2.5.71-1.5 2.73-1.85 3.06-3.65z" fill="#776b63"/><g fill="#ddbc39"><path d="m.45 37.04c1.51-4.63 4.09-9.01 7.64-12.38-.41 5.07-5.4 8.26-5.59 13.39-.57 4.86.77 10.53 5.04 13.42.49.36 1.48 1.1 1.97 1.47-.04.86-.12 2.6-.16 3.47l-1.08-.54c-.05-1.16-.36-2.24-.92-3.24-1-.28-2.02-.47-3.06-.56-2.64-4.5-4.53-9.75-3.84-15.03z"/><path d="m46.96 60.91c2.66-1.63 5.43-3.39 6.85-6.29 1.14 1.43 2.37 2.81 4.04 3.62-2.19 1.78-4.63 3.2-7.06 4.62-1.29-.62-2.57-1.27-3.83-1.95z"/></g><path d="m16.29 29.18c1.47-.41 3.12-.55 4.16-1.8-.71 2.61 2.14 1.69 3.57 2.63 1.24.84 2.5 1.96 2.87 3.48l-.86-.64c-2.88-2.62-8.45-5.14-11.05-.9 3.9-.45 7.55.47 11.12 1.92 1.46.21 2.68 1.07 4 1.66-.32.25-.97.74-1.3.98-1.58-.25-3.21-.42-4.68-1.1-2.87-1.67-6.21-1.44-9.4-1.41-.43.0-1.3-.01-1.73-.01.68-1.83 1.36-3.94 3.3-4.81z" fill="#524f4b"/><path d="m11.24 30.12c2.72-1.19 1.82 3.78-.11 3.66-.33-1.24-.29-2.45.11-3.66z" fill="#918460"/><path d="m14.98 31.95c2.6-4.24 8.17-1.72 11.05.9l.07 1.02c-3.57-1.45-7.22-2.37-11.12-1.92z" fill="#e8edeb"/><path d="m14.72 34c3.19-.03 6.53-.26 9.4 1.41-.26.26-.77.78-1.02 1.04-1.35-.19-2.69-.38-4.03-.58-1.39-.56-4.34.11-4.35-1.87z" fill="#cbbeb7"/><path d="m31.95 38.23c.14-1.61.3-3.24.83-4.77 2.08.51 2.32 6.34-.83 4.77z" fill="#8e7d75"/><g fill="#c29e83"><path d="m41.18 34.18 1.17-.33c.33 3.36 1.58 7.01.17 10.26-.78-.29-1.56-.58-2.34-.87-.54-3.05-.24-6.21 1-9.06z"/><path d="m4.29 52.07c1.04.09 2.06.28 3.06.56.56 1 .87 2.08.92 3.24-1.8-.66-3.03-2.22-3.98-3.8z"/></g><path d="m14.7 36.66c.89-1.82 2.83-.91 4.37-.79 1.34.2 2.68.39 4.03.58.07.38.2 1.16.27 1.55-2.96.21-5.8-.77-8.67-1.34z" fill="#6a5e57"/><path d="m16.25 40.39c1.44-1.28 2.29 1.38 1.15 2.18-1.46 1.64-2.52-1.37-1.15-2.18z" fill="#8c7b75"/><path d="m51.56 43.52c.74-.23 2.23-.69 2.97-.91 1.29 6.15-.78 14.11-7.32 16.25.88-1.89 1.79-3.76 2.78-5.6 1.9-2.33 1.3-5.42.8-8.13.19-.4.58-1.21.77-1.61z" fill="#d4b41d"/><path d="m12.79 45.05c2.88.06 7.24-.29 8.85 2.33-2.77-.36-5.57-.5-8.35-.78-.12-.39-.37-1.16-.5-1.55z" fill="#7b6963"/><path d="m56.82 62.24c.69-1.47 1.78-2.83 3.3-3.49.29 2.03-1.39 3.45-3.3 3.49z" fill="#3d2006" opacity=".43"/><path d="m10.41 64c2.16-.54 4.38-.93 6.61-.87 7.66.03 15.31-.32 22.97-.3 1.93-.09 3.78.49 5.56 1.17z" fill="#ac9793" opacity=".93"/></svg>