<?xml version="1.0" encoding="UTF-8" standalone="no"?>
<!DOCTYPE svg PUBLIC "-//W3C//DTD SVG 1.1//EN" "http://www.w3.org/Graphics/SVG/1.1/DTD/svg11.dtd">
<svg width="100%" height="100%" viewBox="0 0 222 195" version="1.1" xmlns="http://www.w3.org/2000/svg" xmlns:xlink="http://www.w3.org/1999/xlink" xml:space="preserve" xmlns:serif="http://www.serif.com/" style="fill-rule:evenodd;clip-rule:evenodd;stroke-linejoin:round;stroke-miterlimit:2;">
    <g transform="matrix(1,0,0,1,-4.45011,-13.1054)">
        <path d="M96.34,14.16C96.74,14.09 97.55,13.94 97.96,13.87C113.4,11.8 128.87,14.4 144.21,16.15C144.17,17.63 144.14,19.11 144.09,20.59C142.32,20.39 140.55,20.22 138.79,19.97C138.15,19.85 136.88,19.59 136.24,19.47C133.4,16.64 129.25,16.52 125.52,16.11C117.81,15.53 109.9,14.38 102.33,16.59C92.33,19.1 82.18,20.86 72.13,23.12C72.8,24.77 73.46,26.42 74.13,28.08C72.3,28.13 70.48,28.26 68.65,28.34C67.99,28.28 66.66,28.17 66,28.12C69.24,25.07 71.59,20.48 76.17,19.2C82.84,17.35 89.71,16.2 96.34,14.16Z" style="fill:rgb(204,170,91);fill-rule:nonzero;"/>
        <path d="M102.33,16.59C109.9,14.38 117.81,15.53 125.52,16.11C129.25,16.52 133.4,16.64 136.24,19.47C138.33,23.22 138.96,28.18 142.57,30.84C152.71,33.09 163.88,31.41 173.18,36.77C174.82,37.72 175.72,39.46 176.73,40.98C176.99,41.4 177.51,42.23 177.77,42.64C177.4,42.39 176.67,41.9 176.31,41.65C166.47,34.27 153.66,34.45 142.1,36.48C139.02,32.05 136.33,27.33 133.07,23.03C129.51,20.89 125.07,20.97 121.12,20.17C117.85,19.75 114.61,18.59 111.27,19.02C100.81,20.26 90.51,22.63 80.02,23.66C81.54,27.16 83.91,30.69 83.61,34.65C82.36,38.31 78.59,40.11 75.46,41.91C74.05,41.85 72.63,41.78 71.22,41.73C70.42,41.7 68.83,41.64 68.03,41.62C67.28,40.96 66.53,40.31 65.81,39.62C70.56,39.46 75.3,37.81 78.94,34.72C80.54,30.38 77.17,28.92 74.13,28.08C73.46,26.42 72.8,24.77 72.13,23.12C82.18,20.86 92.33,19.1 102.33,16.59Z" style="fill:rgb(231,187,83);fill-rule:nonzero;"/>
        <path d="M144.21,16.15C155.77,18.72 167.52,21.41 178.23,26.65C183.31,29.08 186.38,33.96 189.93,38.09C193.84,42.45 196.65,47.62 199.48,52.7C196.39,52.76 193.33,52.82 190.25,52.87C187.45,49.44 184.66,45.99 181.58,42.8L181.09,42.27C182.78,42.21 184.47,42.14 186.17,42.07C183.73,37.9 181.67,33.31 178.1,29.95C167.65,24.19 155.92,21.48 144.09,20.59C144.14,19.11 144.17,17.63 144.21,16.15Z" style="fill:rgb(190,156,77);fill-rule:nonzero;"/>
        <path d="M111.27,19.02C114.61,18.59 117.85,19.75 121.12,20.17C125.07,20.97 129.51,20.89 133.07,23.03C136.33,27.33 139.02,32.05 142.1,36.48C134.68,40.07 126.38,41.91 119.44,46.38C112.99,50.7 112.45,58.89 109.6,65.44C107.91,69.5 104.57,72.46 101.21,75.13C99.17,68.4 96.83,61.75 95.16,54.91C87.4,51.96 84.59,42.17 75.46,41.91C78.59,40.11 82.36,38.31 83.61,34.65C83.91,30.69 81.54,27.16 80.02,23.66C90.51,22.63 100.81,20.26 111.27,19.02Z" style="fill:rgb(252,202,82);fill-rule:nonzero;"/>
        <path d="M136.24,19.47C136.88,19.59 138.15,19.85 138.79,19.97C141.33,21.79 143.42,24.29 146.28,25.65C151.83,27.12 157.55,27.8 163.22,28.63C169.18,33.18 176.47,36.12 181.09,42.27L181.58,42.8C179.98,42.15 178.35,41.57 176.73,40.98C175.72,39.46 174.82,37.72 173.18,36.77C163.88,31.41 152.71,33.09 142.57,30.84C138.96,28.18 138.33,23.22 136.24,19.47Z" style="fill:rgb(219,171,67);fill-rule:nonzero;"/>
        <path d="M138.79,19.97C140.55,20.22 142.32,20.39 144.09,20.59C155.92,21.48 167.65,24.19 178.1,29.95C181.67,33.31 183.73,37.9 186.17,42.07C184.47,42.14 182.78,42.21 181.09,42.27C176.47,36.12 169.18,33.18 163.22,28.63C157.55,27.8 151.83,27.12 146.28,25.65C143.42,24.29 141.33,21.79 138.79,19.97Z" style="fill:rgb(200,158,56);fill-rule:nonzero;"/>
        <path d="M38.4,52.75C47.02,43.91 54.68,33.75 66,28.12C66.66,28.17 67.99,28.28 68.65,28.34C66.82,29.1 65,29.88 63.17,30.66C63.9,33.67 64.53,36.77 65.81,39.62C66.53,40.31 67.28,40.96 68.03,41.62C61.81,40.57 57.71,45.91 53.33,49.25C48.77,51.79 43.49,52.26 38.4,52.75Z" style="fill:rgb(195,159,78);fill-rule:nonzero;"/>
        <path d="M68.65,28.34C70.48,28.26 72.3,28.13 74.13,28.08C77.17,28.92 80.54,30.38 78.94,34.72C75.3,37.81 70.56,39.46 65.81,39.62C64.53,36.77 63.9,33.67 63.17,30.66C65,29.88 66.82,29.1 68.65,28.34Z" style="fill:rgb(209,169,60);fill-rule:nonzero;"/>
        <path d="M142.1,36.48C153.66,34.45 166.47,34.27 176.31,41.65C175.83,42.03 174.88,42.77 174.4,43.15C163.95,36.11 150.5,37.75 139.08,41.25C129.25,44.48 119.6,50.28 114.92,59.92C108.47,72.5 103.25,88.59 110.02,102.04C114.82,111.72 119.11,122.29 128.03,129C135.38,134.17 144.45,135.7 152.35,139.78L152.12,140.81C152.07,141.58 151.97,143.13 151.92,143.9C150.19,142.83 148.46,141.77 146.67,140.83C136.1,136.17 122.88,134.33 116.05,123.9C111.18,116.01 108.49,106.64 101.73,99.94C97.69,106.75 92.85,113.05 89.43,120.22C82.63,132.93 68.13,137.28 56.52,144.24C55.57,142.93 54.62,141.62 53.66,140.33C54.11,139.5 54.56,138.68 55.01,137.86C61.86,136.09 69.33,134.75 74.63,129.64C84.05,122.05 91.62,112.01 95.27,100.4C99.26,86.65 96.52,71.93 90.51,59.23C87.65,54.33 84.11,49.32 78.87,46.76C76.17,45.45 73.37,44.33 70.67,43.02C70.8,42.69 71.08,42.05 71.22,41.73C72.63,41.78 74.05,41.85 75.46,41.91C84.59,42.17 87.4,51.96 95.16,54.91C96.83,61.75 99.17,68.4 101.21,75.13C104.57,72.46 107.91,69.5 109.6,65.44C112.45,58.89 112.99,50.7 119.44,46.38C126.38,41.91 134.68,40.07 142.1,36.48Z" style="fill:rgb(251,207,107);fill-rule:nonzero;"/>
        <path d="M139.08,41.25C150.5,37.75 163.95,36.11 174.4,43.15C174.72,43.5 175.35,44.21 175.67,44.57C161.66,40.55 145.33,38.65 132.68,47.54C121.09,53.6 111.75,65.22 111.49,78.73C109.73,91.66 112.07,105.46 119.93,116.09C124.24,120.56 128.9,124.86 134.33,127.97C140.17,131.32 146.64,133.55 153.17,135.18L153.89,135.33C153.36,136.81 152.81,138.28 152.35,139.78C144.45,135.7 135.38,134.17 128.03,129C119.11,122.29 114.82,111.72 110.02,102.04C103.25,88.59 108.47,72.5 114.92,59.92C119.6,50.28 129.25,44.48 139.08,41.25Z" style="fill:rgb(252,216,137);fill-rule:nonzero;"/>
        <path d="M53.33,49.25C57.71,45.91 61.81,40.57 68.03,41.62C68.83,41.64 70.42,41.7 71.22,41.73C71.08,42.05 70.8,42.69 70.67,43.02C62.81,47.19 54.97,51.5 48.03,57.12C43.2,57.02 38.15,56.61 33.55,58.43C29.43,60.11 27.82,64.71 26.14,68.41C25.24,68.04 24.33,67.68 23.43,67.31C23.56,73.39 22.99,79.44 22.35,85.48C21.5,85.85 20.66,86.22 19.82,86.61C19.88,80.41 18.89,73.77 22.17,68.14C24.86,60.81 31.62,56.02 38.4,52.75C43.49,52.26 48.77,51.79 53.33,49.25Z" style="fill:rgb(217,182,107);fill-rule:nonzero;"/>
        <path d="M132.68,47.54C145.33,38.65 161.66,40.55 175.67,44.57C181.06,50.49 186.47,56.39 191.65,62.49C200.11,75.03 204.19,90.61 204.67,105.6L204.13,106.25C203.6,105.46 203.07,104.68 202.55,103.89C201.29,93.49 199.42,82.88 194.28,73.6C188.98,64.27 183.1,55.09 175.18,47.76C173.34,46.04 170.92,45.07 168.47,44.63C160.53,43.21 152.26,42.34 144.33,44.32C140.02,45.44 136.68,48.53 132.98,50.84C128.98,53.46 124.34,55.39 121.37,59.29C112.54,70.59 110,86.37 114.93,99.88C117.33,111.66 126.54,119.63 134.33,127.97C128.9,124.86 124.24,120.56 119.93,116.09C112.07,105.46 109.73,91.66 111.49,78.73C111.75,65.22 121.09,53.6 132.68,47.54Z" style="fill:rgb(250,223,163);fill-rule:nonzero;"/>
        <path d="M176.73,40.98C178.35,41.57 179.98,42.15 181.58,42.8C184.66,45.99 187.45,49.44 190.25,52.87C193.33,52.82 196.39,52.76 199.48,52.7C201.21,55.75 202.68,58.93 204.25,62.07C207.39,68.16 210.46,74.29 213.58,80.4C217.69,88.38 225.397,96.342 226,104.27C226.603,112.198 219.36,123.76 217.2,127.97C217.7,125.53 218.07,123.07 218.5,120.62C219.77,115.4 221.21,110.02 220.14,104.61C218.72,94.81 212.32,86.87 208.85,77.83C205.86,70.26 202.96,60.2 193.56,58.92C187.76,54.04 182.37,48.68 177.77,42.64C177.51,42.23 176.99,41.4 176.73,40.98Z" style="fill:rgb(214,177,94);fill-rule:nonzero;"/>
        <path d="M174.4,43.15C174.88,42.77 175.83,42.03 176.31,41.65C176.67,41.9 177.4,42.39 177.77,42.64C182.37,48.68 187.76,54.04 193.56,58.92C193.93,59.45 194.68,60.5 195.05,61.03C193.92,61.52 192.78,62 191.65,62.49C186.47,56.39 181.06,50.49 175.67,44.57C175.35,44.21 174.72,43.5 174.4,43.15Z" style="fill:rgb(227,200,129);fill-rule:nonzero;"/>
        <path d="M144.33,44.32C152.26,42.34 160.53,43.21 168.47,44.63C170.92,45.07 173.34,46.04 175.18,47.76C183.1,55.09 188.98,64.27 194.28,73.6C199.42,82.88 201.29,93.49 202.55,103.89C200.74,105.28 198.93,106.66 197.12,108.04L197.31,107.12C202.82,90.37 191.82,75.42 184.61,61.32C182.45,57.01 178.31,54.29 174.76,51.23C166.36,43.31 152.97,44.45 142.9,47.93C135.37,51.97 126.76,55.48 121.79,62.86C114.89,70.69 115.68,82.12 116.3,91.82C116.95,96.35 117.46,100.99 119.06,105.31C122.37,112.38 128.33,117.7 134.13,122.71C140.6,128 148.76,130.43 156.64,132.77L157.67,133.03C156.15,133.71 154.66,134.44 153.17,135.18C146.64,133.55 140.17,131.32 134.33,127.97C126.54,119.63 117.33,111.66 114.93,99.88C110,86.37 112.54,70.59 121.37,59.29C124.34,55.39 128.98,53.46 132.98,50.84C136.68,48.53 140.02,45.44 144.33,44.32Z" style="fill:rgb(251,232,192);fill-rule:nonzero;"/>
        <path d="M48.03,57.12C54.97,51.5 62.81,47.19 70.67,43.02C73.37,44.33 76.17,45.45 78.87,46.76C79.23,47.89 79.6,49.02 79.99,50.15C76.34,48.31 72.04,46.58 67.97,48.06C61.58,50.44 56.06,54.66 51.11,59.26C49.63,60.48 48.36,61.93 47.11,63.37C48.54,63.76 49.97,64.15 51.4,64.54C42.64,68.09 37.9,76.38 31.53,82.81C30.12,83.09 28.72,83.35 27.32,83.65C27.58,77.46 30.21,71.65 33.7,66.63C37.54,62.22 43.58,60.78 48.03,57.12Z" style="fill:rgb(240,212,153);fill-rule:nonzero;"/>
        <path d="M142.9,47.93C152.97,44.45 166.36,43.31 174.76,51.23C178.31,54.29 182.45,57.01 184.61,61.32C191.82,75.42 202.82,90.37 197.31,107.12C196.29,107.79 195.28,108.47 194.27,109.15C195.05,102.69 194.7,96.09 192.1,90.04C190.9,92.16 190.05,94.47 188.68,96.5C188.55,90.51 189.1,84.38 187.29,78.58C183.64,71.29 178.94,64.34 171.97,59.81C173.61,60.27 175.25,60.71 176.91,61.14C176.65,57.08 174.23,53.73 170.24,52.62C163.88,49.94 156.64,47.01 149.8,49.51C142.67,52.17 135.03,54.27 128.89,58.92C123.13,64.6 119.29,72.4 118.37,80.44C116.84,89.42 121.54,97.78 121.78,106.64C127.19,109.79 130.83,114.92 134.97,119.45C143.17,125.48 153.49,127.54 163.33,129.18C161.04,130.26 158.83,131.5 156.64,132.77C148.76,130.43 140.6,128 134.13,122.71C128.33,117.7 122.37,112.38 119.06,105.31C117.46,100.99 116.95,96.35 116.3,91.82C115.68,82.12 114.89,70.69 121.79,62.86C126.76,55.48 135.37,51.97 142.9,47.93Z" style="fill:rgb(251,240,222);fill-rule:nonzero;"/>
        <path d="M67.97,48.06C72.04,46.58 76.34,48.31 79.99,50.15C83.89,56.34 89.02,62.01 90.67,69.34C93.48,81.44 94.07,94.63 89.39,106.35C82.92,122.1 67.38,132.81 50.8,135.43C50.26,135.55 49.19,135.78 48.65,135.9L47.45,135.76C48.01,135.27 49.13,134.27 49.69,133.78C57.08,129.6 65.87,128.18 72.4,122.45C80.56,115.77 88.02,106.51 88.58,95.53C89.17,84.8 90.62,72.84 84.76,63.18C82.35,59.17 79.85,54.46 75.13,52.81C69.07,49.75 62.35,53.08 57.04,56.09C55.95,56.71 54.9,57.38 53.84,58.04C52.92,58.43 52.01,58.84 51.11,59.26C56.06,54.66 61.58,50.44 67.97,48.06Z" style="fill:rgb(252,228,178);fill-rule:nonzero;"/>
        <path d="M78.87,46.76C84.11,49.32 87.65,54.33 90.51,59.23C96.52,71.93 99.26,86.65 95.27,100.4C91.62,112.01 84.05,122.05 74.63,129.64C69.33,134.75 61.86,136.09 55.01,137.86C53.61,137.05 52.21,136.23 50.8,135.43C67.38,132.81 82.92,122.1 89.39,106.35C94.07,94.63 93.48,81.44 90.67,69.34C89.02,62.01 83.89,56.34 79.99,50.15C79.6,49.02 79.23,47.89 78.87,46.76Z" style="fill:rgb(252,218,139);fill-rule:nonzero;"/>
        <path d="M149.8,49.51C156.64,47.01 163.88,49.94 170.24,52.62C174.23,53.73 176.65,57.08 176.91,61.14C175.25,60.71 173.61,60.27 171.97,59.81C164.65,58.2 156.35,56.17 149.22,59.26C142.97,63.08 136.33,67.68 134.09,75.07C132.18,80.94 128.48,87.95 131.87,94.03C134.76,99.32 137.19,105.18 141.93,109.11C149.37,114.68 159.13,114.36 167.95,114.04C171.35,113.56 175.37,113.61 177.74,110.8C181.52,106.14 185.21,101.4 188.68,96.5C190.05,94.47 190.9,92.16 192.1,90.04C194.7,96.09 195.05,102.69 194.27,109.15C189.13,121.32 175.93,127.95 163.33,129.18C153.49,127.54 143.17,125.48 134.97,119.45C130.83,114.92 127.19,109.79 121.78,106.64C121.54,97.78 116.84,89.42 118.37,80.44C119.29,72.4 123.13,64.6 128.89,58.92C135.03,54.27 142.67,52.17 149.8,49.51Z" style="fill:rgb(249,245,244);fill-rule:nonzero;"/>
        <path d="M57.04,56.09C62.35,53.08 69.07,49.75 75.13,52.81C79.85,54.46 82.35,59.17 84.76,63.18C90.62,72.84 89.17,84.8 88.58,95.53C88.02,106.51 80.56,115.77 72.4,122.45C65.87,128.18 57.08,129.6 49.69,133.78C49.23,133.13 48.31,131.83 47.85,131.18C55.7,126.54 64.3,123.17 71.66,117.74C76.42,113.45 80.51,108.37 83.82,102.89C86.6,94.83 86.22,86.04 85.76,77.63C84.66,68.92 77.44,62.79 73.63,55.26C70.6,55.57 67.44,55.41 64.51,56.4C64.17,58.01 63.5,61.23 63.16,62.84C60.14,61.62 58.2,59.05 57.04,56.09Z" style="fill:rgb(251,240,215);fill-rule:nonzero;"/>
        <path d="M64.51,56.4C67.44,55.41 70.6,55.57 73.63,55.26C77.44,62.79 84.66,68.92 85.76,77.63C86.22,86.04 86.6,94.83 83.82,102.89C80.51,108.37 76.42,113.45 71.66,117.74C64.3,123.17 55.7,126.54 47.85,131.18C43.31,129.85 38.22,128.77 34.89,125.1C31.48,121.99 32.4,116.8 31.78,112.64C41.91,111.75 52.91,116.15 62.16,110.19C66.6,107.15 68.79,102.02 71.73,97.7C75.97,91.81 75.77,83.8 73.78,77.11C71.75,71.38 67.26,67.13 63.16,62.84C63.5,61.23 64.17,58.01 64.51,56.4Z" style="fill:rgb(247,246,245);fill-rule:nonzero;"/>
        <path d="M33.55,58.43C38.15,56.61 43.2,57.02 48.03,57.12C43.58,60.78 37.54,62.22 33.7,66.63C30.21,71.65 27.58,77.46 27.32,83.65C25.62,84.13 23.98,84.79 22.35,85.48C22.99,79.44 23.56,73.39 23.43,67.31C24.33,67.68 25.24,68.04 26.14,68.41C27.82,64.71 29.43,60.11 33.55,58.43Z" style="fill:rgb(242,200,116);fill-rule:nonzero;"/>
        <path d="M53.84,58.04C54.9,57.38 55.95,56.71 57.04,56.09C58.2,59.05 60.14,61.62 63.16,62.84C67.26,67.13 71.75,71.38 73.78,77.11C75.77,83.8 75.97,91.81 71.73,97.7C68.79,102.02 66.6,107.15 62.16,110.19C52.91,116.15 41.91,111.75 31.78,112.64C31.68,110.56 31.6,108.48 31.5,106.4C32.09,105.91 32.68,105.42 33.27,104.94C38.07,110.54 45.24,113.64 52.68,111.66C68.85,106.47 77,84.98 67.22,70.74C64.29,64.81 55.3,64.97 53.84,58.04Z" style="fill:rgb(233,228,217);fill-rule:nonzero;"/>
        <path d="M149.22,59.26C156.35,56.17 164.65,58.2 171.97,59.81C178.94,64.34 183.64,71.29 187.29,78.58C189.1,84.38 188.55,90.51 188.68,96.5C185.21,101.4 181.52,106.14 177.74,110.8C175.37,113.61 171.35,113.56 167.95,114.04C159.13,114.36 149.37,114.68 141.93,109.11C137.19,105.18 134.76,99.32 131.87,94.03C128.48,87.95 132.18,80.94 134.09,75.07C136.33,67.68 142.97,63.08 149.22,59.26M157.28,59.31C140.93,61.78 129.35,80.52 135.71,96.16C136.98,103.2 144.05,106.76 149.29,110.64C159.95,114.54 173.85,112.39 180.68,102.63C183.54,96.42 188.13,89.52 185.62,82.37C183.85,77.98 182.47,73.25 179.51,69.47C173.48,63.89 166.17,57.94 157.28,59.31Z" style="fill:rgb(234,227,220);fill-rule:nonzero;"/>
        <path d="M51.11,59.26C52.01,58.84 52.92,58.43 53.84,58.04C55.3,64.97 64.29,64.81 67.22,70.74C77,84.98 68.85,106.47 52.68,111.66C45.24,113.64 38.07,110.54 33.27,104.94C32.85,103.53 32.53,102.1 32.25,100.67L32.13,99.66C36.98,103.76 40.48,111.24 48.05,110.06C56.15,111.24 62.05,104.12 66.33,98.34C70.11,89.07 70.21,77.3 63.76,69.16C60.38,66.14 55.56,65.9 51.4,64.54C49.97,64.15 48.54,63.76 47.11,63.37C48.36,61.93 49.63,60.48 51.11,59.26Z" style="fill:rgb(219,208,190);fill-rule:nonzero;"/>
        <path d="M157.28,59.31C166.17,57.94 173.48,63.89 179.51,69.47C182.47,73.25 183.85,77.98 185.62,82.37C188.13,89.52 183.54,96.42 180.68,102.63C173.85,112.39 159.95,114.54 149.29,110.64C144.05,106.76 136.98,103.2 135.71,96.16C129.35,80.52 140.93,61.78 157.28,59.31M156.39,61.46C150.24,64.39 143.06,67.15 139.29,73.22C134.23,83.23 134.37,97.8 144.54,104.53C150.78,111.73 160.86,110.97 169.29,109.26C175.16,105.75 181.5,100.85 182.76,93.68C185.1,85.28 182.6,75.62 176.74,69.25C171.12,64.91 163.88,60.22 156.39,61.46Z" style="fill:rgb(215,204,192);fill-rule:nonzero;"/>
        <path d="M193.56,58.92C202.96,60.2 205.86,70.26 208.85,77.83C212.32,86.87 218.72,94.81 220.14,104.61C221.21,110.02 219.77,115.4 218.5,120.62C215.44,114.7 211.98,108.98 207.91,103.71C207.47,93.94 207.03,83.83 203.06,74.75C200.68,70.02 197.92,65.48 195.05,61.03C194.68,60.5 193.93,59.45 193.56,58.92Z" style="fill:rgb(243,196,91);fill-rule:nonzero;"/>
        <path d="M156.39,61.46C163.88,60.22 171.12,64.91 176.74,69.25C182.6,75.62 185.1,85.28 182.76,93.68C181.5,100.85 175.16,105.75 169.29,109.26C160.86,110.97 150.78,111.73 144.54,104.53C134.37,97.8 134.23,83.23 139.29,73.22C143.06,67.15 150.24,64.39 156.39,61.46M155.43,64.43C149.88,66.09 144.55,69.39 141.01,74.04C136.22,83.04 136.07,96.38 145.15,102.85C151.14,109.75 161.4,110.75 169.51,107.43C173.67,104.77 177.35,101.17 180.1,97.08C182.87,91.14 182.08,84.06 179.91,78.08C176.76,68.25 165.43,61.88 155.43,64.43Z" style="fill:rgb(194,180,162);fill-rule:nonzero;"/>
        <path d="M191.65,62.49C192.78,62 193.92,61.52 195.05,61.03C197.92,65.48 200.68,70.02 203.06,74.75C207.03,83.83 207.47,93.94 207.91,103.71C206.82,104.33 205.74,104.97 204.67,105.6C204.19,90.61 200.11,75.03 191.65,62.49Z" style="fill:rgb(252,210,121);fill-rule:nonzero;"/>
        <path d="M155.43,64.43C165.43,61.88 176.76,68.25 179.91,78.08C182.08,84.06 182.87,91.14 180.1,97.08C177.35,101.17 173.67,104.77 169.51,107.43C161.4,110.75 151.14,109.75 145.15,102.85C136.07,96.38 136.22,83.04 141.01,74.04C144.55,69.39 149.88,66.09 155.43,64.43M156.39,66.34C143.71,67.68 134.9,83.68 141.01,95C145.5,104.92 157.92,110 168.12,106.08C174.45,102.49 180.44,96.57 179.73,88.6C182.27,75.61 169.06,63.17 156.39,66.34Z" style="fill:rgb(174,156,130);fill-rule:nonzero;"/>
        <path d="M51.4,64.54C55.56,65.9 60.38,66.14 63.76,69.16C70.21,77.3 70.11,89.07 66.33,98.34C62.05,104.12 56.15,111.24 48.05,110.06C40.48,111.24 36.98,103.76 32.13,99.66C31.76,95.13 31.35,90.6 31.23,86.06C31.3,84.97 31.42,83.89 31.53,82.81C37.9,76.38 42.64,68.09 51.4,64.54M51.44,67.51C39.11,69.56 34.78,83.98 34.53,94.73C36.55,99.92 38.68,106.49 44.33,108.67C52.09,109.76 59.61,105.15 63.73,98.77C69.37,91.47 67.83,81.24 64.69,73.27C62.79,68.01 56.36,66.49 51.44,67.51Z" style="fill:rgb(203,181,158);fill-rule:nonzero;"/>
        <path d="M156.39,66.34C169.06,63.17 182.27,75.61 179.73,88.6C180.44,96.57 174.45,102.49 168.12,106.08C157.92,110 145.5,104.92 141.01,95C134.9,83.68 143.71,67.68 156.39,66.34M156.39,68.34C149.02,68.09 144.07,74.64 141.79,80.86C137.85,92.58 148.52,106.52 160.98,104.96C169.22,105.18 178.2,98.79 177.94,89.87C181.19,77.39 168.77,64.89 156.39,68.34Z" style="fill:rgb(152,132,98);fill-rule:nonzero;"/>
        <path d="M51.44,67.51C56.36,66.49 62.79,68.01 64.69,73.27C67.83,81.24 69.37,91.47 63.73,98.77C59.61,105.15 52.09,109.76 44.33,108.67C38.68,106.49 36.55,99.92 34.53,94.73C34.78,83.98 39.11,69.56 51.44,67.51M50.47,69.5C42.28,72.25 37.18,81.5 37.68,89.94C36.47,96.21 38.4,103.51 44.64,106.41C50.15,108.95 55.05,104.24 59.33,101.33C67.41,95.05 66.35,83.06 63.58,74.39C61.8,69.06 55.14,68.44 50.47,69.5Z" style="fill:rgb(179,159,131);fill-rule:nonzero;"/>
        <path d="M156.39,68.34C168.77,64.89 181.19,77.39 177.94,89.87C178.2,98.79 169.22,105.18 160.98,104.96C148.52,106.52 137.85,92.58 141.79,80.86C144.07,74.64 149.02,68.09 156.39,68.34M154.42,70.41C149.51,70.64 147.3,75.5 145.12,79.17C141.49,84.99 142.5,93.73 148,98.03C152.97,103.46 161.03,102.32 167.51,101.53C177.39,97.59 179.44,83.13 172.29,75.74C168.89,69.18 160.72,69.07 154.42,70.41Z" style="fill:rgb(132,108,67);fill-rule:nonzero;"/>
        <path d="M50.47,69.5C55.14,68.44 61.8,69.06 63.58,74.39C66.35,83.06 67.41,95.05 59.33,101.33C55.05,104.24 50.15,108.95 44.64,106.41C38.4,103.51 36.47,96.21 37.68,89.94C37.18,81.5 42.28,72.25 50.47,69.5M53.34,70.32C47.04,72.13 41.13,77.72 40.4,84.43C40.06,90.76 38.4,99.42 44.17,103.9C50.61,106.96 56.86,101.44 60.56,96.63C64.94,91.48 64.65,84.15 63.11,77.95C61.99,73.76 57.83,69.89 53.34,70.32Z" style="fill:rgb(156,134,100);fill-rule:nonzero;"/>
        <path d="M53.34,70.32C57.83,69.89 61.99,73.76 63.11,77.95C64.65,84.15 64.94,91.48 60.56,96.63C56.86,101.44 50.61,106.96 44.17,103.9C38.4,99.42 40.06,90.76 40.4,84.43C41.13,77.72 47.04,72.13 53.34,70.32M47.12,76.14C40.11,81.71 42.68,91.42 41.65,99.09C44.87,100.89 48.44,103.28 52.33,101.4C60.65,97.09 64.7,86.77 61.11,77.93C59.02,72.4 50.69,71.62 47.12,76.14Z" style="fill:rgb(135,110,67);fill-rule:nonzero;"/>
        <path d="M154.42,70.41C160.72,69.07 168.89,69.18 172.29,75.74C179.44,83.13 177.39,97.59 167.51,101.53C161.03,102.32 152.97,103.46 148,98.03C142.5,93.73 141.49,84.99 145.12,79.17C147.3,75.5 149.51,70.64 154.42,70.41M158.2,72.54C149.87,71.11 147.76,80.23 146.78,86.25C147.75,90.56 148.48,95.95 152.37,98.62C157.41,100.59 163.18,99.66 168.19,98.16C172.3,95.13 174.5,89.35 173.72,84.38C171.68,80.82 170.07,76.78 166.99,73.95C164.61,71.74 161.15,72.36 158.2,72.54Z" style="fill:rgb(115,86,35);fill-rule:nonzero;"/>
        <path d="M158.2,72.54C161.15,72.36 164.61,71.74 166.99,73.95C170.07,76.78 171.68,80.82 173.72,84.38C174.5,89.35 172.3,95.13 168.19,98.16C163.18,99.66 157.41,100.59 152.37,98.62C148.48,95.95 147.75,90.56 146.78,86.25C147.76,80.23 149.87,71.11 158.2,72.54Z" style="fill:rgb(102,69,7);fill-rule:nonzero;"/>
        <path d="M47.12,76.14C50.69,71.62 59.02,72.4 61.11,77.93C64.7,86.77 60.65,97.09 52.33,101.4C48.44,103.28 44.87,100.89 41.65,99.09C42.68,91.42 40.11,81.71 47.12,76.14M46.29,80.31C43.38,85.36 43.64,91.49 42.57,97.06C45.56,98.86 49.3,101.16 52.6,98.58C57.86,94.27 61.05,87.34 61.31,80.55C58.47,79.11 55.66,77.62 52.88,76.09C50.66,77.44 48.11,78.41 46.29,80.31Z" style="fill:rgb(116,87,39);fill-rule:nonzero;"/>
        <path d="M46.29,80.31C48.11,78.41 50.66,77.44 52.88,76.09C55.66,77.62 58.47,79.11 61.31,80.55C61.05,87.34 57.86,94.27 52.6,98.58C49.3,101.16 45.56,98.86 42.57,97.06C43.64,91.49 43.38,85.36 46.29,80.31Z" style="fill:rgb(105,70,14);fill-rule:nonzero;"/>
        <path d="M22.35,85.48C23.98,84.79 25.62,84.13 27.32,83.65C28.72,83.35 30.12,83.09 31.53,82.81C31.42,83.89 31.3,84.97 31.23,86.06C26.29,90.19 25.28,97.11 23.86,103.04C22.69,102.69 21.51,102.35 20.34,102C21.1,99.8 21.95,97.63 22.81,95.47C21.98,95.53 21.14,95.59 20.31,95.66C20.16,92.95 19.96,90.24 19.83,87.53L19.82,86.61C20.66,86.22 21.5,85.85 22.35,85.48Z" style="fill:rgb(241,171,147);fill-rule:nonzero;"/>
        <path d="M23.86,103.04C25.28,97.11 26.29,90.19 31.23,86.06C31.35,90.6 31.76,95.13 32.13,99.66L32.25,100.67C30.65,100.13 29.04,99.6 27.43,99.08C26.59,108.84 21.71,120.63 28.91,129.09C33.25,134.78 41.02,134.72 47.45,135.76L48.65,135.9C47.51,136.71 46.38,137.55 45.25,138.38C39.35,136.77 32.64,136.24 27.74,132.19C21.15,124.02 23.24,112.73 23.86,103.04Z" style="fill:rgb(245,174,181);fill-rule:nonzero;"/>
        <path d="M19.65,88.47L19.83,87.53C19.96,90.24 20.16,92.95 20.31,95.66C21.14,95.59 21.98,95.53 22.81,95.47C21.95,97.63 21.1,99.8 20.34,102C19.94,103.16 19.57,104.32 19.19,105.49C11.57,117.78 9.58,132.66 10.71,146.86C11.15,150.57 11.98,154.29 13.65,157.65C14.24,158.85 14.86,160.04 15.51,161.22C13.99,160.92 12.47,160.6 10.95,160.28C9.79,152.93 2.78,146.73 4.82,139.04C8.38,121.79 14.97,105.39 19.65,88.47Z" style="fill:rgb(218,134,127);fill-rule:nonzero;"/>
        <path d="M27.43,99.08C29.04,99.6 30.65,100.13 32.25,100.67C32.53,102.1 32.85,103.53 33.27,104.94C32.68,105.42 32.09,105.91 31.5,106.4C25.24,110.27 26.6,118.93 29.42,124.6C33.22,131.88 42.61,131.91 49.69,133.78C49.13,134.27 48.01,135.27 47.45,135.76C41.02,134.72 33.25,134.78 28.91,129.09C21.71,120.63 26.59,108.84 27.43,99.08Z" style="fill:rgb(250,196,204);fill-rule:nonzero;"/>
        <path d="M101.73,99.94C108.49,106.64 111.18,116.01 116.05,123.9C122.88,134.33 136.1,136.17 146.67,140.83C145.9,144.28 144.83,148.05 146.46,151.41C150.06,160.37 151.87,170.81 159.49,177.46C157.39,178.38 155.29,179.3 153.19,180.23C153.59,181.77 154,183.3 154.4,184.84C151.16,185.92 147.77,187 144.33,186.87C141.74,182.25 143.42,174.99 137.59,172.68C130.07,171.97 122.36,172.79 114.89,173.94C108.24,174.24 102.72,179.15 95.91,178.41C85.8,178.57 76.77,170.15 66.58,174.45C60.84,175.58 62.25,183 60.55,187.29C56.67,184.55 52.63,181.95 48.09,180.47C47.61,177.59 47.12,174.71 46.64,171.83C54.22,164.63 55.38,154.03 56.52,144.24C68.13,137.28 82.63,132.93 89.43,120.22C92.85,113.05 97.69,106.75 101.73,99.94" style="fill:rgb(253,203,80);fill-rule:nonzero;"/>
        <path d="M20.34,102C21.51,102.35 22.69,102.69 23.86,103.04C23.24,112.73 21.15,124.02 27.74,132.19C32.64,136.24 39.35,136.77 45.25,138.38C44.87,138.68 44.09,139.26 43.7,139.55C42.81,140.22 41.93,140.88 41.04,141.53C35.76,140.05 30.37,138.77 25.34,136.56C22.21,135.3 22.37,131.05 21.28,128.52C19.34,121.02 19.31,113.19 19.19,105.49C19.57,104.32 19.94,103.16 20.34,102Z" style="fill:rgb(247,147,163);fill-rule:nonzero;"/>
        <path d="M202.55,103.89C203.07,104.68 203.6,105.46 204.13,106.25C197.95,111.95 195.81,120.79 188.89,125.81C181.07,132.93 170.3,135.52 160,136.16C157.95,136 155.91,135.71 153.89,135.33L153.17,135.18C154.66,134.44 156.15,133.71 157.67,133.03C169.77,134.11 181.08,128.63 190.24,121.23C194.24,117.97 195.9,112.86 197.12,108.04C198.93,106.66 200.74,105.28 202.55,103.89Z" style="fill:rgb(252,192,198);fill-rule:nonzero;"/>
        <path d="M204.67,105.6C205.74,104.97 206.82,104.33 207.91,103.71C211.98,108.98 215.44,114.7 218.5,120.62C218.07,123.07 217.7,125.53 217.2,127.97C216.75,129.77 216.28,131.56 215.81,133.36C211.45,126.37 213.66,115.8 206.23,110.99C205.93,110.75 205.33,110.26 205.03,110.01C204.9,108.54 204.78,107.07 204.67,105.6Z" style="fill:rgb(249,169,115);fill-rule:nonzero;"/>
        <path d="M10.71,146.86C9.58,132.66 11.57,117.78 19.19,105.49C19.31,113.19 19.34,121.02 21.28,128.52C22.37,131.05 22.21,135.3 25.34,136.56C30.37,138.77 35.76,140.05 41.04,141.53C42.78,147.84 42.24,154.38 40,160.48C35.46,159.75 30.43,160.85 26.15,158.81C20.56,155.45 15.37,151.43 10.71,146.86Z" style="fill:rgb(249,126,144);fill-rule:nonzero;"/>
        <path d="M204.13,106.25L204.67,105.6C204.78,107.07 204.9,108.54 205.03,110.01C199.28,116.91 195.64,125.97 187.66,130.72C179.73,136.73 169.36,136.77 159.96,138.18C159.97,137.67 159.99,136.66 160,136.16C170.3,135.52 181.07,132.93 188.89,125.81C195.81,120.79 197.95,111.95 204.13,106.25Z" style="fill:rgb(250,165,177);fill-rule:nonzero;"/>
        <path d="M29.42,124.6C26.6,118.93 25.24,110.27 31.5,106.4C31.6,108.48 31.68,110.56 31.78,112.64C32.4,116.8 31.48,121.99 34.89,125.1C38.22,128.77 43.31,129.85 47.85,131.18C48.31,131.83 49.23,133.13 49.69,133.78C42.61,131.91 33.22,131.88 29.42,124.6Z" style="fill:rgb(252,219,228);fill-rule:nonzero;"/>
        <path d="M194.27,109.15C195.28,108.47 196.29,107.79 197.31,107.12L197.12,108.04C195.9,112.86 194.24,117.97 190.24,121.23C181.08,128.63 169.77,134.11 157.67,133.03L156.64,132.77C158.83,131.5 161.04,130.26 163.33,129.18C175.93,127.95 189.13,121.32 194.27,109.15Z" style="fill:rgb(252,216,228);fill-rule:nonzero;"/>
        <path d="M187.66,130.72C195.64,125.97 199.28,116.91 205.03,110.01C205.33,110.26 205.93,110.75 206.23,110.99C205.83,113.73 205.4,116.48 204.99,119.22C198.44,124.63 194.53,133.25 186.12,136.21C179.28,138.71 172.58,141.97 165.32,143.05C163.52,143.13 161.71,143.15 159.9,143.18C159.9,141.51 159.92,139.85 159.96,138.18C169.36,136.77 179.73,136.73 187.66,130.72Z" style="fill:rgb(250,140,159);fill-rule:nonzero;"/>
        <path d="M204.99,119.22C205.4,116.48 205.83,113.73 206.23,110.99C213.66,115.8 211.45,126.37 215.81,133.36C215.45,134.78 208.2,146.49 208.17,152.2C206.58,148.64 203.65,145.19 205.36,140.98C207.21,133.8 208.82,126.05 204.99,119.22Z" style="fill:rgb(246,140,127);fill-rule:nonzero;"/>
        <path d="M186.12,136.21C194.53,133.25 198.44,124.63 204.99,119.22C208.82,126.05 207.21,133.8 205.36,140.98C203.65,145.19 206.58,148.64 208.17,152.2L208.06,152.8C203.47,154.79 198.89,156.77 194.44,159.05C195.8,159.34 198.51,159.9 199.87,160.18C197.19,161.84 194.59,163.62 192.1,165.56C192.08,163.45 192.05,161.34 192.01,159.24C183.39,162.43 174.4,164.26 165.22,164.62C164.61,157.44 165.56,150.24 165.32,143.05C172.58,141.97 179.28,138.71 186.12,136.21Z" style="fill:rgb(252,122,145);fill-rule:nonzero;"/>
        <path d="M48.65,135.9C49.19,135.78 50.26,135.55 50.8,135.43C52.21,136.23 53.61,137.05 55.01,137.86C54.56,138.68 54.11,139.5 53.66,140.33C52.89,141.77 52.15,143.23 51.49,144.74C50.3,143.98 49.12,143.21 47.94,142.43C46.53,141.47 45.11,140.51 43.7,139.55C44.09,139.26 44.87,138.68 45.25,138.38C46.38,137.55 47.51,136.71 48.65,135.9Z" style="fill:rgb(250,182,133);fill-rule:nonzero;"/>
        <path d="M153.89,135.33C155.91,135.71 157.95,136 160,136.16C159.99,136.66 159.97,137.67 159.96,138.18C159.92,139.85 159.9,141.51 159.9,143.18L159.91,144.05C158.19,144.1 156.48,144.16 154.76,144.22C153.88,143.08 153,141.94 152.12,140.81L152.35,139.78C152.81,138.28 153.36,136.81 153.89,135.33Z" style="fill:rgb(249,174,142);fill-rule:nonzero;"/>
        <path d="M41.04,141.53C41.93,140.88 42.81,140.22 43.7,139.55C45.11,140.51 46.53,141.47 47.94,142.43C47.29,148.04 49.7,154.88 45.38,159.34C42.02,162.85 37.93,167.09 32.44,165.46C25.89,163.66 19.86,160.34 13.65,157.65C11.98,154.29 11.15,150.57 10.71,146.86C15.37,151.43 20.56,155.45 26.15,158.81C30.43,160.85 35.46,159.75 40,160.48C42.24,154.38 42.78,147.84 41.04,141.53Z" style="fill:rgb(248,142,124);fill-rule:nonzero;"/>
        <path d="M51.49,144.74C52.15,143.23 52.89,141.77 53.66,140.33C54.62,141.62 55.57,142.93 56.52,144.24C55.38,154.03 54.22,164.63 46.64,171.83C47.12,174.71 47.61,177.59 48.09,180.47C44.51,179.27 41.08,177.69 37.74,175.95C36.09,174.99 34.38,174.14 32.65,173.34C32.51,172.34 32.38,171.35 32.25,170.35C38.23,169.48 44.39,167.03 48,161.96C50.77,156.71 50.21,150.38 51.49,144.74Z" style="fill:rgb(249,184,98);fill-rule:nonzero;"/>
        <path d="M146.67,140.83C148.46,141.77 150.19,142.83 151.92,143.9C152.4,151.59 152.02,160.03 156.17,166.86C159.54,171.32 164.36,174.53 169.33,176.98C169.65,177.89 169.98,178.79 170.31,179.7C164.82,180.78 159.46,182.47 154.4,184.84C154,183.3 153.59,181.77 153.19,180.23C155.29,179.3 157.39,178.38 159.49,177.46C151.87,170.81 150.06,160.37 146.46,151.41C144.83,148.05 145.9,144.28 146.67,140.83Z" style="fill:rgb(251,192,93);fill-rule:nonzero;"/>
        <path d="M152.12,140.81C153,141.94 153.88,143.08 154.76,144.22C155.92,152.14 156.58,160.63 161.77,167.17C164.17,170.56 168.73,170.67 172.35,171.98C172.99,173.66 173.62,175.33 174.25,177.01C173.21,177.84 172.2,178.68 171.15,179.49L170.31,179.7C169.98,178.79 169.65,177.89 169.33,176.98C164.36,174.53 159.54,171.32 156.17,166.86C152.02,160.03 152.4,151.59 151.92,143.9C151.97,143.13 152.07,141.58 152.12,140.81Z" style="fill:rgb(251,172,104);fill-rule:nonzero;"/>
        <path d="M45.38,159.34C49.7,154.88 47.29,148.04 47.94,142.43C49.12,143.21 50.3,143.98 51.49,144.74C50.21,150.38 50.77,156.71 48,161.96C44.39,167.03 38.23,169.48 32.25,170.35C32.38,171.35 32.51,172.34 32.65,173.34C26.3,170.37 20.07,166.65 15.51,161.22C14.86,160.04 14.24,158.85 13.65,157.65C19.86,160.34 25.89,163.66 32.44,165.46C37.93,167.09 42.02,162.85 45.38,159.34Z" style="fill:rgb(245,161,108);fill-rule:nonzero;"/>
        <path d="M159.9,143.18C161.71,143.15 163.52,143.13 165.32,143.05C165.56,150.24 164.61,157.44 165.22,164.62C174.4,164.26 183.39,162.43 192.01,159.24C192.05,161.34 192.08,163.45 192.1,165.56C194.59,163.62 197.19,161.84 199.87,160.18C198.51,159.9 195.8,159.34 194.44,159.05C198.89,156.77 203.47,154.79 208.06,152.8C206.09,156.55 203.21,159.71 200.79,163.16C199.87,164.51 195.17,167.88 194.96,167.95C192.76,168.34 190.53,168.65 188.36,169.24C181.05,166.85 173.18,168.82 165.85,167.05C158.9,161.79 160.73,151.57 159.91,144.05L159.9,143.18Z" style="fill:rgb(247,132,131);fill-rule:nonzero;"/>
        <path d="M154.76,144.22C156.48,144.16 158.19,144.1 159.91,144.05C160.73,151.57 158.9,161.79 165.85,167.05C173.18,168.82 181.05,166.85 188.36,169.24C183.36,171.21 178.39,173.52 174.25,177.01C173.62,175.33 172.99,173.66 172.35,171.98C168.73,170.67 164.17,170.56 161.77,167.17C156.58,160.63 155.92,152.14 154.76,144.22Z" style="fill:rgb(248,152,116);fill-rule:nonzero;"/>
        <path d="M10.95,160.28C12.47,160.6 13.99,160.92 15.51,161.22C20.07,166.65 26.3,170.37 32.65,173.34C34.38,174.14 36.09,174.99 37.74,175.95C42.89,181.42 49.56,185.04 55.78,189.12C58.35,190.65 60.77,192.52 63.55,193.68C71.81,197.24 82.53,195.55 88.98,202.77C89.301,203.122 90.091,203.743 90.834,204.425C91.733,205.251 92.565,206.166 92.416,206.807C88.226,205.687 82.11,205.14 78,203.78C77.506,203.708 69.8,201.098 68.97,200.54C67.275,199.799 60.442,197.132 59.35,196.48C57.714,195.503 51.445,190.921 49.76,189.86C47.423,188.388 41.376,184.4 40.86,184.11C37.808,182.395 27.915,176.738 24.22,174.42C22.256,173.188 20.463,171.695 18.69,170.2" style="fill:rgb(193,149,90);fill-rule:nonzero;"/>
        <path d="M188.36,169.24C190.53,168.65 192.76,168.34 194.96,167.95C190.78,174.71 181.11,174.23 176.47,180.67C176.2,181.08 175.66,181.9 175.39,182.31C173.75,181.54 172.11,180.79 170.48,180.03L171.15,179.49C172.2,178.68 173.21,177.84 174.25,177.01C178.39,173.52 183.36,171.21 188.36,169.24Z" style="fill:rgb(219,138,105);fill-rule:nonzero;"/>
        <path d="M114.89,173.94C122.36,172.79 130.07,171.97 137.59,172.68C143.42,174.99 141.74,182.25 144.33,186.87C147.77,187 151.16,185.92 154.4,184.84C159.46,182.47 164.82,180.78 170.31,179.7L171.15,179.49L170.48,180.03C163.49,186.75 154.18,189.49 144.7,190.02C142.84,190.01 140.98,189.92 139.12,189.86C139.06,185.12 138.36,180.43 137.93,175.72C121.04,176.32 104.62,182.71 87.57,180.43C81.06,179.27 74.79,177.11 68.65,174.71C65.86,180.17 64.537,188.08 63.987,194.1C61.157,193.09 58.249,190.74 55.78,189.12C49.56,185.04 42.89,181.42 37.74,175.95C41.08,177.69 44.51,179.27 48.09,180.47C52.63,181.95 56.67,184.55 60.55,187.29C62.25,183 60.84,175.58 66.58,174.45C76.77,170.15 85.8,178.57 95.91,178.41C102.72,179.15 108.24,174.24 114.89,173.94Z" style="fill:rgb(232,184,76);fill-rule:nonzero;"/>
        <path d="M68.65,174.71C74.79,177.11 81.06,179.27 87.57,180.43C104.62,182.71 121.04,176.32 137.93,175.72C138.36,180.43 139.06,185.12 139.12,189.86C140.98,189.92 142.84,190.01 144.7,190.02C141.83,191.23 139.01,192.57 136.21,193.93C136.36,193.45 132.85,195.31 130.71,196.73C130.42,195.29 130.19,193.83 129.94,192.39C117.23,193.01 104.56,195.36 91.79,194.52C86.68,194.08 61.44,191.13 64.27,192.14C64.126,185.983 65.762,180.151 68.65,174.71M77.07,182.21C72.58,181.03 68.53,184.6 68.07,188.94C75.49,190.2 82.91,191.47 90.38,192.47C101.39,193.81 112.24,190.93 123.23,190.95C128.21,191.63 132.77,189.79 136.76,187.01C135.84,185.75 134.89,184.52 133.87,183.34C133.53,181.9 133.28,180.43 133.07,178.96C114.57,182.08 95.76,181.9 77.07,182.21Z" style="fill:rgb(213,166,63);fill-rule:nonzero;"/>
        <path d="M77.07,182.21C95.76,181.9 114.57,182.08 133.07,178.96C133.28,180.43 133.53,181.9 133.87,183.34C134.89,184.52 135.84,185.75 136.76,187.01C132.77,189.79 128.21,191.63 123.23,190.95C112.24,190.93 101.39,193.81 90.38,192.47C82.91,191.47 75.49,190.2 68.07,188.94C68.53,184.6 72.58,181.03 77.07,182.21M73.33,185.41C74.59,186.87 75.81,188.41 77.39,189.55C94.97,192.41 112.9,190.53 130.39,187.9C126.09,182.91 118.9,182.69 112.82,183.23C99.66,183.89 86.28,182.29 73.33,185.41Z" style="fill:rgb(198,151,49);fill-rule:nonzero;"/>
        <path d="M144.7,190.02C154.18,189.49 163.49,186.75 170.48,180.03C172.11,180.79 173.75,181.54 175.39,182.31C175.07,182.85 174.776,183.953 174.12,184.47C173.337,185.087 171.902,186.034 171.041,186.539C170.175,187.046 168.981,187.521 167.799,188.154C165.661,189.299 158.055,192.831 157.86,192.88C152.423,194.247 132.588,198.49 125.81,200.88C121.764,202.306 115.99,204.87 113.91,205.78C112.55,206.37 111.297,207.428 109.82,207.5C106.239,207.674 96.17,206.37 92.426,206.824C92.315,206.291 91.336,204.919 91.336,204.919C91.336,204.919 106.42,206.9 112.98,202.99C118.41,199.62 124.65,198.41 130.71,196.73C132.85,195.31 136.36,193.45 136.21,193.93C139.01,192.57 141.83,191.23 144.7,190.02Z" style="fill:rgb(185,143,81);fill-rule:nonzero;"/>
        <path d="M73.33,185.41C86.28,182.29 99.66,183.89 112.82,183.23C118.9,182.69 126.09,182.91 130.39,187.9C112.9,190.53 94.97,192.41 77.39,189.55C75.81,188.41 74.59,186.87 73.33,185.41M80.5,186.23C85.77,189.34 92,189.94 98.01,189.95C105.57,189.75 113.54,189.62 120.52,186.33C107.42,183.44 93.71,184.86 80.5,186.23Z" style="fill:rgb(181,135,37);fill-rule:nonzero;"/>
        <path d="M80.5,186.23C93.71,184.86 107.42,183.44 120.52,186.33C113.54,189.62 105.57,189.75 98.01,189.95C92,189.94 85.77,189.34 80.5,186.23Z" style="fill:rgb(167,120,23);fill-rule:nonzero;"/>
        <path d="M63.776,194.059C64.202,192.832 64.095,189.767 64.71,190.398C64.71,190.398 86.68,194.08 91.79,194.52C104.56,195.36 117.23,193.01 129.94,192.39C130.19,193.83 130.42,195.29 130.71,196.73C124.65,198.41 118.41,199.62 112.98,202.99C106.42,206.9 98.516,206.045 91.416,205.035C91.205,205.127 89.063,202.825 88.98,202.77C82.53,195.55 72.036,197.619 63.776,194.059Z" style="fill:rgb(225,179,82);fill-rule:nonzero;"/>
    </g>
</svg>
