<svg height="246pt" viewBox="0 0 254 246" width="254pt" xmlns="http://www.w3.org/2000/svg"><path d="m147.88 6.81c7.94-1.27 16-.67 24-.98 8.1-.11 14.91 4.76 21.25 9.18-1.37.02-2.74.02-4.1 0-5.44-2.63-10.67-6.5-16.98-6.46-8.5-.17-17.14-.62-25.48 1.39-6.09 1.53-12.52 2.48-18.71.96-8.36-2.17-17.71-2.52-25.62 1.39-5.66 3.1-10.08 8.06-13.47 13.47-1.1.89-2.23 1.72-3.37 2.55.35-3.56 1.93-6.92 4.34-9.55 3.7-4.04 7.7-8.03 12.81-10.24 6.38-1.8 13.1-1.77 19.66-1.38 3.69.15 7.07 2.01 10.78 1.93 5.13.5 9.82-2.11 14.89-2.26z" fill="#102004"/><path d="m146.57 9.94c8.34-2.01 16.98-1.56 25.48-1.39 6.31-.04 11.54 3.83 16.98 6.46 4.87 3.44 8.47 8.26 12.22 12.81 2.69 3.29 5.93 6.07 8.64 9.34 4.26 5.09 6.5 11.43 9.99 17l.23.75c.27 3.91 1.02 7.93.02 11.79-7.63.01-15.26.04-22.88-.15-.21-1.25-.41-2.5-.61-3.74-.8-5.48-2.5-11.03-6.12-15.33-3.16-3.76-6.83-7.07-10.36-10.48-10.49-9.96-26.36-10.38-39.68-7.18-6.74 1.27-13.01 4.3-18.64 8.14 1.89-2.47 3.94-5.05 7.04-6.03 7.46-2.74 15.02-5.9 23.09-6.05 11.05-.28 22.32 3.16 30.94 10.18 4.41 3.56 8.7 7.44 11.84 12.21 2.47 3.78 2.83 8.42 4.68 12.47.9 1.85 3.13 2.34 4.92 2.88 3.61.8 7.43 1.33 11.08.51 2.63-3.98-.28-8.92-1.64-12.89-3.56-9.38-10.99-16.26-17.01-24.01-4.82-7.03-12.28-12.23-20.49-14.47-12.3-2.4-24.86-.26-37.1 1.52-4.89.76-9.84.2-14.64-.83-6.46-1.4-13.44-1.16-19.53 1.57-4.67 2.39-8.62 6.09-11.75 10.27-1.52 2.19-3.15 5.27-1.44 7.82 2.49 4.1 6.4 7.23 8.3 11.71 2.14 5.03 3.42 10.37 5.48 15.43 1.87-4 3.41-8.18 5.68-11.98 1.83-3.16 5.01-5.09 7.83-7.24-2.33 3.16-4.37 6.51-6.26 9.95-3.53 5.68-4.41 12.43-5.39 18.91-2.35-.63-4.71-1.27-7.07-1.88.99-8.9-.03-18.2-4.41-26.12-2.39-4.2-6.9-6.67-9.27-10.86.49-1.82 1.26-3.56 2.05-5.27 3.39-5.41 7.81-10.37 13.47-13.47 7.91-3.91 17.26-3.56 25.62-1.39 6.19 1.52 12.62.57 18.71-.96z" fill="#ceb84a"/><path d="m105.02 15.02c6.09-2.73 13.07-2.97 19.53-1.57 4.8 1.03 9.75 1.59 14.64.83 12.24-1.78 24.8-3.92 37.1-1.52 8.21 2.24 15.67 7.44 20.49 14.47 6.02 7.75 13.45 14.63 17.01 24.01 1.36 3.97 4.27 8.91 1.64 12.89-3.65.82-7.47.29-11.08-.51-1.79-.54-4.02-1.03-4.92-2.88-1.85-4.05-2.21-8.69-4.68-12.47-3.14-4.77-7.43-8.65-11.84-12.21-8.62-7.02-19.89-10.46-30.94-10.18-8.07.15-15.63 3.31-23.09 6.05-3.1.98-5.15 3.56-7.04 6.03-.9 1.03-1.81 2.06-2.72 3.07-2.82 2.15-6 4.08-7.83 7.24-2.27 3.8-3.81 7.98-5.68 11.98-2.06-5.06-3.34-10.4-5.48-15.43-1.9-4.48-5.81-7.61-8.3-11.71-1.71-2.55-.08-5.63 1.44-7.82 3.13-4.18 7.08-7.88 11.75-10.27z" fill="#e3be0c"/><path d="m189.03 15.01c1.36.02 2.73.02 4.1 0 4.52 2.7 7.72 6.89 10.8 11.04 3.01 4.31 8.47 6.34 10.77 11.22 2.61 5.3 4.05 11.12 5.18 16.89-3.49-5.57-5.73-11.91-9.99-17-2.71-3.27-5.95-6.05-8.64-9.34-3.75-4.55-7.35-9.37-12.22-12.81z" fill="#271500"/><path d="m85.4 28.31c1.14-.83 2.27-1.66 3.37-2.55-.79 1.71-1.56 3.45-2.05 5.27 2.37 4.19 6.88 6.66 9.27 10.86 4.38 7.92 5.4 17.22 4.41 26.12-.73.53-1.46 1.07-2.19 1.6.98.25 1.96.51 2.95.76-6.44.09-13 1.82-18.13 5.82-.21-.55-.64-1.63-.85-2.18 4.06-6.06 3.94-13.78 2.45-20.65-.87-4.52-3.1-8.59-4.45-12.96.38-.24 1.16-.73 1.54-.97 3.7 5.18 5.26 11.5 6.3 17.68.79 4.59-.34 9.19-.74 13.76 3.74-.98 7.46-2.03 11.14-3.22 1.26-9.39-1-19.03-6.13-26.98-2.25-2.93-5.25-5.19-8.34-7.18.17-.53.49-1.58.65-2.1.29-1.02.56-2.05.8-3.08z" fill="#3a3a10"/><path d="m68.81 28.74c2.84-.6 5.89-1.31 8.72-.3 2.39.88 4.68 2.03 7.07 2.95-.16.52-.48 1.57-.65 2.1-3.98-2.18-8.38-3.61-12.93-3.95 2.58 2.03 5.36 3.84 7.73 6.12-.5.29-1.51.86-2.01 1.14-2.65-1.5-5.09-3.33-7.64-4.99-.07-.77-.22-2.3-.29-3.07z" fill="#113353"/><path d="m140.48 29.82c13.32-3.2 29.19-2.78 39.68 7.18-.55.29-1.66.87-2.22 1.16-2.35-1.84-4.88-3.43-7.57-4.71-4.19-2.08-8.85-2.9-13.48-3.18 1.83 1.21 3.67 2.4 5.59 3.47-.5.23-1.48.7-1.98.93-4.82-2.14-9.83-4.06-15.2-3.91-1.61-.28-3.21-.64-4.82-.94z" fill="#5a3500"/><path d="m71.02 29.54c4.55.34 8.95 1.77 12.93 3.95 3.09 1.99 6.09 4.25 8.34 7.18 5.13 7.95 7.39 17.59 6.13 26.98-3.68 1.19-7.4 2.24-11.14 3.22.4-4.57 1.53-9.17.74-13.76-1.04-6.18-2.6-12.5-6.3-17.68-.92-1.31-1.9-2.58-2.97-3.77-2.37-2.28-5.15-4.09-7.73-6.12z" fill="#b9cef2"/><path d="m121.84 37.96c5.63-3.84 11.9-6.87 18.64-8.14 1.61.3 3.21.66 4.82.94-6.39 2.1-13.31 3.51-18.66 7.86-3.7 3.01-6.71 6.75-9.72 10.42.08-.42.24-1.26.32-1.69-1.5 1.16-2.98 2.34-4.38 3.63 1.89-3.44 3.93-6.79 6.26-9.95.91-1.01 1.82-2.04 2.72-3.07z" fill="#866000"/><path d="m156.89 30.27c4.63.28 9.29 1.1 13.48 3.18-.88.85-1.75 1.7-2.63 2.55-1.7-.88-3.47-1.59-5.26-2.26-1.92-1.07-3.76-2.26-5.59-3.47z" fill="#daccd3"/><path d="m145.3 30.76c5.37-.15 10.38 1.77 15.2 3.91 1.74 1.21 3.43 2.5 5.13 3.78-7.4 2.3-12.6-6.17-19.89-4.6-6.5 1.22-13.3 3.01-18.27 7.62-4.76 4.45-9.56 9.49-11.08 16.05-2.35 8.74-3.96 19.29 2.19 26.9 5.69 6.05 13.18 10.01 20.56 13.63 4.03 2.04 8.3 4.2 12.95 3.88 6.18-.29 11.4-4.09 16.25-7.56 3.19-2.24 5.62-5.42 7.02-9.05 2.47-6.34 5.18-13.23 3.46-20.12-.95-3.93-1.45-8.05.1-11.91 4.77 7.74 4.25 17.35 2.53 25.92-3.55 8.17-9.18 15.35-16.45 20.52-3.27 2.29-6.9 4.44-10.97 4.77-4.43.42-8.77-.92-12.83-2.58-7.77-3.53-15.83-7.07-22-13.15-3.52-3.36-6.17-7.53-8.21-11.93-1.67-9.67.84-19.53 5.93-27.8 3.01-3.67 6.02-7.41 9.72-10.42 5.35-4.35 12.27-5.76 18.66-7.86z" fill="#c6ae3a"/><path d="m145.74 33.85c7.29-1.57 12.49 6.9 19.89 4.6 5.45 3.9 10.11 8.93 13.29 14.84-1.55 3.86-1.05 7.98-.1 11.91 1.72 6.89-.99 13.78-3.46 20.12-1.4 3.63-3.83 6.81-7.02 9.05-4.85 3.47-10.07 7.27-16.25 7.56-4.65.32-8.92-1.84-12.95-3.88-7.38-3.62-14.87-7.58-20.56-13.63-6.15-7.61-4.54-18.16-2.19-26.9 1.52-6.56 6.32-11.6 11.08-16.05 4.97-4.61 11.77-6.4 18.27-7.62m-6.44 26.71c-5.05.1-11.07 1.19-13.88 5.89-2.22 3.61-.09 7.74.71 11.43.96 3.26.82 6.8 2.14 9.94 4.15 2.46 8.91 3.7 13.41 5.39 2.82 1.14 5.69-.27 8.37-1.13-.69-1.6-1.22-3.3-2.24-4.74-1.54-1.15-3.35-1.87-5.07-2.71 3.37-.1 7.29.6 10.04-1.84 5.3-4.12 6.46-13.23 1.4-17.97-4.28-3.04-9.72-4.05-14.88-4.26z" fill="#debc0a"/><path d="m160.5 34.67c.5-.23 1.48-.7 1.98-.93 1.79.67 3.56 1.38 5.26 2.26 7.39 6.41 15.05 13.69 17.22 23.62 1.52 9.17.58 19.01-4.13 27.16.33-2.51.38-5.05.62-7.57 1.72-8.57 2.24-18.18-2.53-25.92-3.18-5.91-7.84-10.94-13.29-14.84-1.7-1.28-3.39-2.57-5.13-3.78z" fill="#3e4222"/><path d="m167.74 36c.88-.85 1.75-1.7 2.63-2.55 2.69 1.28 5.22 2.87 7.57 4.71 5.81 5.63 12.69 11.03 14.92 19.2 2.57 6.56 1.92 13.74.15 20.41-2.79 5.69-6.09 11.18-10.28 15.96-2.8 3.32-7.01 4.73-10.76 6.65-.13-.89-.26-1.78-.38-2.66 3.37-3.37 6.81-6.8 9.24-10.94 4.71-8.15 5.65-17.99 4.13-27.16-2.17-9.93-9.83-17.21-17.22-23.62z" fill="#bbcbf4"/><path d="m76.74 36.8c.5-.28 1.51-.85 2.01-1.14 1.07 1.19 2.05 2.46 2.97 3.77-.38.24-1.16.73-1.54.97-2.16-.35-4.7-1.6-6.59.17-2.48 1.37-2.02 4.42-2 6.8-.81.97-1.58 1.98-2.36 2.98-2.89.49-5.7 1.38-8.48 2.3.81 1.9 1.66 3.78 2.58 5.62-.74.83-1.49 1.65-2.26 2.45-1.36 1.35-2.61 2.81-3.85 4.27 1.54 1.8 3 3.71 4.89 5.17 1.88 1.03 3.85 1.9 5.81 2.77-1.69.15-3.38.31-5.07.5-1.26.11-2.5.41-3.71.77l.04.87c.91-4.77-4.31-9.49-.96-13.79 2.89-3.19 1.04-7.78 2.5-11.45 2.15-1.01 4.46-1.61 6.71-2.37.98-2.36 1.54-4.94 2.94-7.1 1.98-1.42 4.29-2.3 6.37-3.56z" fill="#4a4213"/><path d="m180.16 37c3.53 3.41 7.2 6.72 10.36 10.48 3.62 4.3 5.32 9.85 6.12 15.33.11 2.32.12 4.65.09 6.98-.03.74-.09 2.24-.12 2.98-.87 2.83-2.01 5.56-3.16 8.28-.17-1.09-.32-2.19-.44-3.28 1.77-6.67 2.42-13.85-.15-20.41-2.23-8.17-9.11-13.57-14.92-19.2.56-.29 1.67-.87 2.22-1.16z" fill="#4a3c1a"/><path d="m73.59 40.57c1.89-1.77 4.43-.52 6.59-.17 1.35 4.37 3.58 8.44 4.45 12.96 1.49 6.87 1.61 14.59-2.45 20.65-1.48 1.33-3.05 2.55-4.65 3.73-3.8-2.04-7.83-.57-11.16 1.65-2.83-1.07-5.31-2.84-7.23-5.19 1.21-.36 2.45-.66 3.71-.77 4.94.34 10.85 2.08 15.01-1.53 2.85-2.29 1.82-6.28 1.89-9.44 1.1.6 2.22 1.16 3.34 1.73 2.15-7.73-2.13-14.89-5.44-21.55-2.09 1.48-4.16 3.01-6.06 4.73-.02-2.38-.48-5.43 2-6.8z" fill="#c8b14c"/><path d="m71.59 47.37c1.9-1.72 3.97-3.25 6.06-4.73 3.31 6.66 7.59 13.82 5.44 21.55-1.12-.57-2.24-1.13-3.34-1.73-3.65-2.26-7.48-4.55-11.92-4.67-1.09-3.47 1.77-5.71 4.11-7.72-.68.07-2.03.21-2.71.28.78-1 1.55-2.01 2.36-2.98z" fill="#dbbb18"/><path d="m112.86 50.98c1.4-1.29 2.88-2.47 4.38-3.63-.08.43-.24 1.27-.32 1.69-5.09 8.27-7.6 18.13-5.93 27.8.06.44.17 1.3.22 1.73-.79-.45-1.58-.9-2.37-1.35-.67-1.62-1.03-3.48-2.27-4.78-1.61-1.12-3.56-1.56-5.41-2.07-.99-.25-1.97-.51-2.95-.76.73-.53 1.46-1.07 2.19-1.6 2.36.61 4.72 1.25 7.07 1.88.98-6.48 1.86-13.23 5.39-18.91z" fill="#573500"/><path d="m60.75 52.65c2.78-.92 5.59-1.81 8.48-2.3.68-.07 2.03-.21 2.71-.28-2.34 2.01-5.2 4.25-4.11 7.72-1.5.11-3 .3-4.5.48-.92-1.84-1.77-3.72-2.58-5.62z" fill="#ceb360"/><path d="m60.71 81.49c2.4.23 4.79.49 7.2.53-1.66 1.16-3.3 2.39-4.61 3.95.77 1.28 1.7 2.46 2.61 3.65-1.49.09-2.98.1-4.47.13-.23-2.75-.49-5.5-.73-8.26z" fill="#ceb360"/><path d="m220.11 54.91c1.34 2.7 3.09 5.18 4.47 7.86 7.75-.14 15.92 2.63 20.62 9.08 2.09 3.83 1.55 8.52-.85 12.1.31-3.31.54-6.64.26-9.96-2.33-2.98-5.19-5.74-8.81-7.05-3.9-1.47-8.25-.74-11.97.91-1.5.6-3 1.19-4.5 1.78-.11-.2-.33-.58-.44-.78.31-.54.93-1.61 1.24-2.15 1-3.86.25-7.88-.02-11.79z" fill="#2f1208"/><path d="m63.33 58.27c1.5-.18 3-.37 4.5-.48 4.44.12 8.27 2.41 11.92 4.67-.07 3.16.96 7.15-1.89 9.44-4.16 3.61-10.07 1.87-15.01 1.53 1.69-.19 3.38-.35 5.07-.5-1.96-.87-3.93-1.74-5.81-2.77 3.68 1.59 7.85 2.03 11.77 1.17 2.86-.66 5.03-4.32 2.86-6.81-3.69-4.6-10.35-4.44-15.67-3.8.77-.8 1.52-1.62 2.26-2.45z" fill="#776723"/><path d="m139.3 60.56c5.16.21 10.6 1.22 14.88 4.26 5.06 4.74 3.9 13.85-1.4 17.97-2.75 2.44-6.67 1.74-10.04 1.84 1.72.84 3.53 1.56 5.07 2.71 1.02 1.44 1.55 3.14 2.24 4.74-2.68.86-5.55 2.27-8.37 1.13-4.5-1.69-9.26-2.93-13.41-5.39-1.32-3.14-1.18-6.68-2.14-9.94-.8-3.69-2.93-7.82-.71-11.43 2.81-4.7 8.83-5.79 13.88-5.89m-5.49 2.29c-3.97.98-8.01 4.52-7.44 8.95.04 2.01 1.95 3.15 3.12 4.54.28 2.55 3.97 2.56 5.99 2.35 5.06.85 10.31 1.34 15.38.36 1.63-.3 2.28-2.01 3.24-3.14 1.66-3.57-.18-7.33-2.02-10.41l-.8.05c-5.18-3.09-11.59-4.72-17.47-2.7m-4.82 15.93c.44 4.96 4.8 8 8.51 10.65 3.12 1.9 8.08 3.74 10.86.36-3.35-.87-7.17-.87-9.95-3.2-3.19-2.56-5.55-6.18-9.42-7.81z" fill="#ccb43f"/><path d="m57.22 64.99c1.24-1.46 2.49-2.92 3.85-4.27 5.32-.64 11.98-.8 15.67 3.8 2.17 2.49 0 6.15-2.86 6.81-3.92.86-8.09.42-11.77-1.17-1.89-1.46-3.35-3.37-4.89-5.17m9.48-1.15c-.05.4-.16 1.2-.22 1.6.77.41 1.53.82 2.3 1.24-.01-1.11-.02-2.22-.03-3.33-.51.12-1.53.37-2.05.49z" fill="#fef6f8"/><path d="m133.81 62.85c5.88-2.02 12.29-.39 17.47 2.7-.57.02-1.71.07-2.28.1-5.72-.95-12.05-2.56-17.27 1-2.97 1.35-2.32 4.83-2.33 7.48.02.55.07 1.65.09 2.21-1.17-1.39-3.08-2.53-3.12-4.54-.57-4.43 3.47-7.97 7.44-8.95z" fill="#6a5400"/><path d="m66.7 63.84c.52-.12 1.54-.37 2.05-.49.01 1.11.02 2.22.03 3.33-.77-.42-1.53-.83-2.3-1.24.06-.4.17-1.2.22-1.6z" fill="#060107"/><path d="m106.09 159.53c.79-.2 1.58-.4 2.37-.59 3 1.39 6.29 1.98 9.45.72 3.16-1.25 5.69 2.4 8.85 1.77 2.54-.37 5.11-1.77 7.68-.76 3.13 1.21 6.54 1.33 9.69.1 2.38 2.2 3.54 5.3 4.14 8.41-.57.8-1.15 1.61-1.72 2.42-7.46-1.18-15.13-2.02-22.65-.99-1.23.54-2.37 1.25-3.48 1.99-.59 1.26-1.11 2.55-1.62 3.84-3.75.35-7.52.06-11.27.14-.75-.01-1.49-.03-2.23-.06 2.55-5.36 2.36-11.37.79-16.99z" fill="#060107"/><path d="m196.73 69.79c.03-2.33.02-4.66-.09-6.98.2 1.24.4 2.49.61 3.74 7.62.19 15.25.16 22.88.15-.31.54-.93 1.61-1.24 2.15.11.2.33.58.44.78 1.5-.59 3-1.18 4.5-1.78-1.35 1.38-2.61 2.83-3.86 4.29-1 .26-2 .5-3 .72-.12-1.11-.22-2.21-.33-3.32-6.64-.04-13.29-.33-19.91.25z" fill="#593900"/><path d="m131.73 66.65c5.22-3.56 11.55-1.95 17.27-1 1.09 1.77 2.36 3.48 3.08 5.45.06 1.81-.32 3.59-.54 5.38-.4.07-1.21.22-1.62.3-6.93 1.1-13.98-.36-20.52-2.65.01-2.65-.64-6.13 2.33-7.48m6.77-.25c.04 1.33.06 2.67.22 4 1.83.48 3.35-.35 4.18-1.99-1.45-.7-2.92-1.37-4.4-2.01z" fill="#fefaf6"/><path d="m151.28 65.55.8-.05c1.84 3.08 3.68 6.84 2.02 10.41-.64.14-1.92.43-2.56.57.22-1.79.6-3.57.54-5.38-.72-1.97-1.99-3.68-3.08-5.45.57-.03 1.71-.08 2.28-.1z" fill="#8c783b"/><path d="m44.12 149.19c.37 1.53.75 3.07 1.13 4.61-5.58.76-11.43-.09-16.37-2.86l-.66-.38c4.49.77 9.01 1.33 13.51 2.01.8-1.13 1.59-2.26 2.39-3.38z" fill="#8c783b"/><path d="m138.5 66.4c1.48.64 2.95 1.31 4.4 2.01-.83 1.64-2.35 2.47-4.18 1.99-.16-1.33-.18-2.67-.22-4z" fill="#324043"/><path d="m223.83 67.85c3.72-1.65 8.07-2.38 11.97-.91 3.62 1.31 6.48 4.07 8.81 7.05-.59 4.46-.81 10.35-5.72 12.32-3.85.25-7.08-3.26-6.49-7.06 2.02-2.02 4.55-3.39 6.85-5.05-3.36.36-7.83-.12-9.82 3.28-1.12 4.06.9 7.94 3.18 11.16 4.81 9.46 9.23 19.57 9.45 30.36.47 7.93.67 16.14-2.21 23.68-4.99 13.64-13.07 26.65-25.08 35.15-11.51 8.61-27.38 13.1-41.29 8.03-2.23-.91-4.41-1.94-6.65-2.81 7.11.59 13.95 3.62 21.18 2.88 11.01-1.16 21.66-5.69 29.99-13 2.27-2.14 3.87-4.85 5.71-7.34 2.49-3.47 5.53-6.53 7.7-10.23 4.8-8.28 8.07-17.69 7.83-27.36-.2-7.41-1.68-14.74-3.52-21.9-2.17-8.17-7.85-15.26-8.44-23.84-.36-5.02 3.52-8.62 6.81-11.79-4.77-.33-9.54.32-14.12 1.67 1.25-1.46 2.51-2.91 3.86-4.29z" fill="#d0b843"/><path d="m196.73 69.79c6.62-.58 13.27-.29 19.91-.25.11 1.11.21 2.21.33 3.32-5.09.35-10.53-2.76-15.29-.2-4.01 5.6-4.43 12.97-8.47 18.59-4.77 6.4-11.32 11.6-18.95 14.12-7.88 2.66-16.24 5.99-24.68 4.12-6.8-1.57-13.5-3.87-19.53-7.44-6.79-3.96-14.21-7.59-19-14.07-2.83-3.87-2.78-9.32-6.25-12.73-3.88-1.92-8.49-.71-12.54.04-5.19.91-9.25 5.15-10.89 10.01-.59 1.48.21 3.01 1.28 4.02 4.96.4 9.9-.68 14.85-.98-5.28 3.09-11.53 4.09-17.46 2.48-.78-1.75-1.56-3.5-2.34-5.25 1.47-3.29 3.1-6.53 5.33-9.38 5.13-4 11.69-5.73 18.13-5.82 1.85.51 3.8.95 5.41 2.07 1.24 1.3 1.6 3.16 2.27 4.78 3.81 13.3 16.42 21.54 28.81 25.92 5.49 2.29 11.36 3.95 17.36 3.64 4.9.06 9.48-1.82 14.13-3.08 1.02-.21 2.05-.41 3.08-.61.41-.07 1.22-.22 1.62-.29 3.86-.38 7.65-1.74 10.31-4.67 6.66-6.76 12.69-15.46 12.46-25.36.03-.74.09-2.24.12-2.98z" fill="#d2b843"/><path d="m219.97 72.14c4.58-1.35 9.35-2 14.12-1.67-3.29 3.17-7.17 6.77-6.81 11.79.59 8.58 6.27 15.67 8.44 23.84 1.84 7.16 3.32 14.49 3.52 21.9.24 9.67-3.03 19.08-7.83 27.36-2.17 3.7-5.21 6.76-7.7 10.23-1.84 2.49-3.44 5.2-5.71 7.34-8.33 7.31-18.98 11.84-29.99 13-7.23.74-14.07-2.29-21.18-2.88-3.62-.69-7.43-.31-10.45 1.95 3.69.62 7.41 1.1 11.14 1.46.44 1.55.88 3.1 1.31 4.65-5.61 2.41-11.62 3.85-16.98 6.86-8.12 1.99-16.54 1.86-24.84 1.77-4.33-.07-8.65-.61-12.83-1.72-1.38-2.61-2.94-5.14-4.93-7.33-1.35-.7-2.74-1.32-4.15-1.87.52-.04 1.57-.12 2.09-.16-3.55-1.45-7.6-1.9-10.76-4.18-2.56-2.95 1.17-5.94 2.76-8.32.62 1 1.26 2 1.9 2.99 1.04.91 2.11 1.86 3.44 2.32 5.23 1.95 10.88 1.12 16.32 1.13 6.74-.1 13.45 1.23 20.18.49 5.27-.2 7.5-5.93 8.76-10.24 1.51-5.98 1.22-14.52-5.62-17.01-11.69-1.59-23.48.39-35.21-.53-5.05-.32-9.63-2.65-14.53-3.66-4.27 1.07-8.69 1.43-13.05.71.41.89.81 1.79 1.22 2.68-.77.54-1.53 1.09-2.31 1.61-.47-.67-.94-1.34-1.41-2.01-5.39 2.59-11.58 3.71-17.25 1.22 3.81-.26 7.57-.93 11.33-1.57-2.98-4.68-4.65-10.04-4.29-15.63-3.42-.88-8.16-.7-9.9-4.4-1.39-4.61-.85-9.54-.94-14.28-.12-5.7 2.31-10.93 4.03-16.23 1.42-.55 2.84-1.11 4.26-1.66-1.51-1.27-2.89-3.24-5.1-3.02-8.52-.15-15.23 5.72-22.39 9.44-5.95 2.95-10.42 8.13-16.57 10.74 9.14-9.44 20.65-16.1 32.58-21.36 5.95-2.12 12.38-.93 18.54-1.76 8.54-1.2 17.48 1.09 25.73-2.12 1.8-.53 2.6-2.36 3.52-3.82.53-1 1.02-2.01 1.52-3.02-2.16.34-4.31.72-6.45 1.17-4.95.3-9.89 1.38-14.85.98-1.07-1.01-1.87-2.54-1.28-4.02 1.64-4.86 5.7-9.1 10.89-10.01 4.05-.75 8.66-1.96 12.54-.04 3.47 3.41 3.42 8.86 6.25 12.73 4.79 6.48 12.21 10.11 19 14.07 6.03 3.57 12.73 5.87 19.53 7.44 8.44 1.87 16.8-1.46 24.68-4.12 7.63-2.52 14.18-7.72 18.95-14.12 4.04-5.62 4.46-12.99 8.47-18.59 4.76-2.56 10.2.55 15.29.2 1-.22 2-.46 3-.72z" fill="#dfbe0a"/><path d="m193.45 81.05c1.15-2.72 2.29-5.45 3.16-8.28.23 9.9-5.8 18.6-12.46 25.36-2.66 2.93-6.45 4.29-10.31 4.67 8.97-4.52 15.93-12.44 19.61-21.75z" fill="#b7a65f"/><path d="m77.53 77.74c1.6-1.18 3.17-2.4 4.65-3.73.21.55.64 1.63.85 2.18-2.23 2.85-3.86 6.09-5.33 9.38-.97.41-1.93.81-2.89 1.2.83-3.03 1.72-6.05 2.72-9.03z" fill="#6a4c00"/><path d="m129.4 74.13c6.54 2.29 13.59 3.75 20.52 2.65-4.77.93-9.63 1.24-14.44 1.91-2.02.21-5.71.2-5.99-2.35-.02-.56-.07-1.66-.09-2.21z" fill="#92855a"/><path d="m229.43 77.48c1.99-3.4 6.46-2.92 9.82-3.28-2.3 1.66-4.83 3.03-6.85 5.05-.59 3.8 2.64 7.31 6.49 7.06 4.91-1.97 5.13-7.86 5.72-12.32.28 3.32.05 6.65-.26 9.96-1.94 1.34-3.84 3.11-6.38 2.95-1.83.42-4.43-.38-5.36 1.74-2.28-3.22-4.3-7.1-3.18-11.16z" fill="#704a00"/><path d="m59.18 75.07-.04-.87c1.92 2.35 4.4 4.12 7.23 5.19 1.1.5 2.19 1 3.29 1.51-.44.28-1.31.84-1.75 1.12-2.41-.04-4.8-.3-7.2-.53.24 2.76.5 5.51.73 8.26 1.49-.03 2.98-.04 4.47-.13 3.05-.65 6.01-1.67 8.9-2.85.96-.39 1.92-.79 2.89-1.2l2.34 5.25c-1.06.68-2.12 1.37-3.2 2.02-6.55 1.73-13.33 1.67-20.04 1.79 1.25-.31 2.5-.6 3.76-.88-.68-6.21-.54-12.48-1.38-18.68m5.19 16.84c.03.17.09.51.12.68 4.24-.71 8.78-.85 12.55-3.14-4.25.7-8.33 2.25-12.67 2.46z" fill="#58430d"/><path d="m66.37 79.39c3.33-2.22 7.36-3.69 11.16-1.65-1 2.98-1.89 6-2.72 9.03-2.89 1.18-5.85 2.2-8.9 2.85-.91-1.19-1.84-2.37-2.61-3.65 1.31-1.56 2.95-2.79 4.61-3.95.44-.28 1.31-.84 1.75-1.12-1.1-.51-2.19-1.01-3.29-1.51z" fill="#cebd1f"/><path d="m151.54 76.48c.64-.14 1.92-.43 2.56-.57-.96 1.13-1.61 2.84-3.24 3.14-5.07.98-10.32.49-15.38-.36 4.81-.67 9.67-.98 14.44-1.91.41-.08 1.22-.23 1.62-.3z" fill="#564809"/><path d="m108.84 77.22c.79.45 1.58.9 2.37 1.35-.05-.43-.16-1.29-.22-1.73 2.04 4.4 4.69 8.57 8.21 11.93 6.17 6.08 14.23 9.62 22 13.15-1.18.41-2.37.82-3.55 1.22-12.39-4.38-25-12.62-28.81-25.92z" fill="#765100"/><path d="m182.73 93.73c4.19-4.78 7.49-10.27 10.28-15.96.12 1.09.27 2.19.44 3.28-3.68 9.31-10.64 17.23-19.61 21.75-.4.07-1.21.22-1.62.29-.73-.3-2.2-.89-2.93-1.19.88-.52 1.78-1.03 2.68-1.52 3.75-1.92 7.96-3.33 10.76-6.65z" fill="#494546"/><path d="m128.99 78.78c3.87 1.63 6.23 5.25 9.42 7.81 2.78 2.33 6.6 2.33 9.95 3.2-2.78 3.38-7.74 1.54-10.86-.36-3.71-2.65-8.07-5.69-8.51-10.65z" fill="#664300"/><path d="m165 99.73c7.27-5.17 12.9-12.35 16.45-20.52-.24 2.52-.29 5.06-.62 7.57-2.43 4.14-5.87 7.57-9.24 10.94-1.37 1.21-2.83 2.32-4.3 3.41.67.25 1.33.51 2 .77.73.3 2.2.89 2.93 1.19-1.03.2-2.06.4-3.08.61-1.24-.25-2.46-.55-3.68-.85-.15-1.04-.31-2.08-.46-3.12z" fill="#5e5c21"/><path d="m91.58 186.45c-1.85-2.72-1.2-6.28-.82-9.34.2 1.05.41 2.11.63 3.16.25-.28.76-.84 1.01-1.12.51 2.19.5 4.71 1.94 6.55 2.8 2.8 7.08 2.71 10.76 3.12 1.41.55 2.8 1.17 4.15 1.87-.86.24-2.56.72-3.42.96 1.81 3.2 4.59 5.8 8.35 6.37 4.18 1.11 8.5 1.65 12.83 1.72 8.3.09 16.72.22 24.84-1.77 8.62-1.19 16.46-5.12 24.78-7.41l-.09 1.07c-7.66 5.62-17.18 7.54-26.32 9.24-5.06.83-10.16 1.93-15.31 1.44-3.04-1.22-6.23-.52-9.22.43l-.67-.1c-11.96-2.12-24.38-4.79-34.33-12.16.35.07 1.07.22 1.42.3 3.99 2.23 8.1 4.35 12.62 5.27-.49-1.49-.99-2.97-1.5-4.45-4.03-1.24-8.65-1.89-11.65-5.15z" fill="#5e5c21"/><path d="m97.5 88.34c2.14-.45 4.29-.83 6.45-1.17-.5 1.01-.99 2.02-1.52 3.02-4.09 1.42-8.13 3.18-12.47 3.68-4.4.7-8.77-.48-13.12-1.03 1.08-.65 2.14-1.34 3.2-2.02 5.93 1.61 12.18.61 17.46-2.48z" fill="#5c3500"/><g fill="#fff1c5"><path d="m64.37 91.91c4.34-.21 8.42-1.76 12.67-2.46-3.77 2.29-8.31 2.43-12.55 3.14-.03-.17-.09-.51-.12-.68z"/><path d="m167.29 101.13c1.47-1.09 2.93-2.2 4.3-3.41.12.88.25 1.77.38 2.66-.9.49-1.8 1-2.68 1.52-.67-.26-1.33-.52-2-.77z"/><path d="m95.93 156.91c3.18-.72 6.41-.27 9.62-.07-.25.77-.75 2.29-.99 3.06-3.27.29-6.37-.51-8.63-2.99z"/></g><path d="m89.96 93.87c4.34-.5 8.38-2.26 12.47-3.68-.92 1.46-1.72 3.29-3.52 3.82-8.25 3.21-17.19.92-25.73 2.12-6.16.83-12.59-.36-18.54 1.76-11.93 5.26-23.44 11.92-32.58 21.36-4.99 4.67-9.35 10-13.26 15.59-2.13 2.94-2.77 6.58-3.39 10.07 4.23 2.49 9.09 6.18 14.19 3.76 1.16 1.05 2.34 2.09 3.51 3.14-5.52.6-11.3.04-16.2-2.72-3.22-2.11-5.6-5.84-4.68-9.8 2.66-7.36 8.98-12.4 13.78-18.32 11.14-11.89 24.91-21.96 40.79-26.34 6.71-.12 13.49-.06 20.04-1.79 4.35.55 8.72 1.73 13.12 1.03z" fill="#d0b25c"/><path d="m38.63 108.51c7.16-3.72 13.87-9.59 22.39-9.44 2.21-.22 3.59 1.75 5.1 3.02-1.42.55-2.84 1.11-4.26 1.66-1.72 5.3-4.15 10.53-4.03 16.23.09 4.74-.45 9.67.94 14.28 1.74 3.7 6.48 3.52 9.9 4.4-.36 5.59 1.31 10.95 4.29 15.63-3.76.64-7.52 1.31-11.33 1.57-5.09-1.72-9.77-4.44-14.67-6.64.54 1.27 1.07 2.54 1.61 3.8-1.11.26-2.21.54-3.32.78-.38-1.54-.76-3.08-1.13-4.61-.8 1.12-1.59 2.25-2.39 3.38-4.5-.68-9.02-1.24-13.51-2.01-2.53-1.76-5.56-3.57-8.62-1.89-5.1 2.42-9.96-1.27-14.19-3.76.62-3.49 1.26-7.13 3.39-10.07 3.91-5.59 8.27-10.92 13.26-15.59 6.15-2.61 10.62-7.79 16.57-10.74z" fill="#e6c50e"/><path d="m154.03 104.5c4.07-.33 7.7-2.48 10.97-4.77.15 1.04.31 2.08.46 3.12 1.22.3 2.44.6 3.68.85-4.65 1.26-9.23 3.14-14.13 3.08-6 .31-11.87-1.35-17.36-3.64 1.18-.4 2.37-.81 3.55-1.22 4.06 1.66 8.4 3 12.83 2.58z" fill="#4b3000"/><path d="m242.06 119c2.71.03 5.42.1 8.14.13-1.83.18-3.65.44-5.46.69-.04 5.61.91 11.19.58 16.8-1.98 5.23-4.69 10.17-6.23 15.56-2.81 5.32-5.44 10.83-9.5 15.34-4.17 5.32-9.45 9.67-13.34 15.22-.71.13-2.12.4-2.83.54-7.19 2.07-13.86 6-21.46 6.6-5.09 1.04-10.57-.44-15.42 1.75l.09-1.07c-1.45-1.92-3.58-3.07-5.8-3.88.66-.2 1.99-.61 2.65-.82 13.91 5.07 29.78.58 41.29-8.03 12.01-8.5 20.09-21.51 25.08-35.15 2.88-7.54 2.68-15.75 2.21-23.68z" fill="#3d3509"/><path d="m250.2 119.13c1.26-.05 2.53-.09 3.8-.13v7.11c-3.12 3.31-6.21 6.67-8.68 10.51.33-5.61-.62-11.19-.58-16.8 1.81-.25 3.63-.51 5.46-.69z" fill="#b6cbf5"/><path d="m245.32 136.62c2.47-3.84 5.56-7.2 8.68-10.51v2.87c-4.3 4.86-6.94 10.84-8.43 17.11-3.54 10.62-2.31 21.96-1.19 32.87.54 10.48 3.61 20.57 4.97 30.93 1.29 9.97 3.55 19.79 4.65 29.79v6.32h-1c-2.6-8.9-3.14-18.23-4.93-27.31-1.06-9.17-2.69-18.25-4.87-27.23-1.37-6.23-1.69-12.61-2.39-18.94-.74-6.77.48-13.75-1.72-20.34 1.54-5.39 4.25-10.33 6.23-15.56z" fill="#31457f"/><path d="m245.57 146.09c1.49-6.27 4.13-12.25 8.43-17.11v110.7c-1.1-10-3.36-19.82-4.65-29.79-1.36-10.36-4.43-20.45-4.97-30.93-1.12-10.91-2.35-22.25 1.19-32.87z" fill="#b4cafd"/><path d="m19.6 148.67c3.06-1.68 6.09.13 8.62 1.89l.66.38c-1.95.13-3.85.57-5.77.87-1.17-1.05-2.35-2.09-3.51-3.14z" fill="#9b770d"/><path d="m46.96 149.22c4.9 2.2 9.58 4.92 14.67 6.64 5.67 2.49 11.86 1.37 17.25-1.22.47.67.94 1.34 1.41 2.01-4.43 3.29-10.14 2.21-15.27 2.2-1.08-1.06-3.06-1.83-4.18-.38-4.17-1.63-8.24-3.5-12.27-5.45-.54-1.26-1.07-2.53-1.61-3.8z" fill="#c0ad4f"/><path d="m81.38 152.36c4.36.72 8.78.36 13.05-.71.03 1.39.04 2.79.05 4.18-.35.12-1.04.35-1.38.47-2.34-.6-4.88-1-7.15.07-1.12-.45-2.24-.89-3.35-1.33-.41-.89-.81-1.79-1.22-2.68z" fill="#cdb840"/><path d="m94.43 151.65c4.9 1.01 9.48 3.34 14.53 3.66 11.73.92 23.52-1.06 35.21.53 2.86 4.53 5.59 9.73 4.35 15.27-.06-.48-.19-1.45-.25-1.93-.6-3.11-1.76-6.21-4.14-8.41-1.45-1.41-2.94-3.21-5.14-3.23-4.57-.48-9.16-.05-13.73.11-6.56-.54-13.14-.65-19.71-.81-3.21-.2-6.44-.65-9.62.07-.36-.27-1.09-.81-1.45-1.08-.01-1.39-.02-2.79-.05-4.18z" fill="#735d0d"/><path d="m229.59 167.52c4.06-4.51 6.69-10.02 9.5-15.34 2.2 6.59.98 13.57 1.72 20.34.7 6.33 1.02 12.71 2.39 18.94 2.18 8.98 3.81 18.06 4.87 27.23 1.79 9.08 2.33 18.41 4.93 27.31h-109.89c2.86-9 4.24-18.33 5.32-27.68 5.64 5.15 9.7 11.67 12.97 18.51 8.33-3.93 15.79-9.67 21.91-16.53 4.88-5.45 10.81-9.86 15.49-15.5 6.02-7.19 12.57-13.99 17.45-22.06 3.89-5.55 9.17-9.9 13.34-15.22z" fill="#b7d1fe"/><path d="m85.95 156.37c2.27-1.07 4.81-.67 7.15-.07-2.24 1.11-4.91 1.27-7.15.07z" fill="#6c521a"/><path d="m94.48 155.83c.36.27 1.09.81 1.45 1.08 2.26 2.48 5.36 3.28 8.63 2.99.24-.77.74-2.29.99-3.06 6.57.16 13.15.27 19.71.81-5.57.98-11.29-.07-16.8 1.29-.79.19-1.58.39-2.37.59 1.57 5.62 1.76 11.63-.79 16.99.78-4.7 1.08-9.49.38-14.23-1.56.08-3.11.18-4.67.27-.54 3.29-.89 6.78-2.78 9.64-1.66 2.54-3.81 4.71-5.83 6.95-.25.28-.76.84-1.01 1.12-.22-1.05-.43-2.11-.63-3.16 2.55-3.29 5.24-6.48 7.26-10.14-.75-.04-2.24-.12-2.98-.15 1.25-.83 2.57-1.57 3.78-2.45.91-3.56-4.03-5.03-4.34-8.54z" fill="#73633e"/><path d="m144.17 155.84c6.84 2.49 7.13 11.03 5.62 17.01-1.26 4.31-3.49 10.04-8.76 10.24-6.73.74-13.44-.59-20.18-.49-5.44-.01-11.09.82-16.32-1.13 7.87-.69 15.79-1.18 23.69-.66 4.07.36 8.21.47 12.2-.5 3.92-1.64 7.43-4.82 8.1-9.2 1.24-5.54-1.49-10.74-4.35-15.27z" fill="#e3b74b"/><path d="m60.84 158.47c1.12-1.45 3.1-.68 4.18.38-1.39.46-2.93.46-4.18-.38z" fill="#756513"/><path d="m108.46 158.94c5.51-1.36 11.23-.31 16.8-1.29 4.57-.16 9.16-.59 13.73-.11 2.2.02 3.69 1.82 5.14 3.23-3.15 1.23-6.56 1.11-9.69-.1-2.57-1.01-5.14.39-7.68.76-3.16.63-5.69-3.02-8.85-1.77-3.16 1.26-6.45.67-9.45-.72z" fill="#efe6e1"/><path d="m101.01 162.56c1.56-.09 3.11-.19 4.67-.27.7 4.74.4 9.53-.38 14.23-1.41.87-2.81 1.74-4.21 2.63-.64-.99-1.28-1.99-1.9-2.99-1.59 2.38-5.32 5.37-2.76 8.32 3.16 2.28 7.21 2.73 10.76 4.18-.52.04-1.57.12-2.09.16-3.68-.41-7.96-.32-10.76-3.12-1.44-1.84-1.43-4.36-1.94-6.55 2.02-2.24 4.17-4.41 5.83-6.95 1.89-2.86 2.24-6.35 2.78-9.64z" fill="#c4ac32"/><path d="m91.1 169.74c1.29-1 2.59-2 3.94-2.92.74.03 2.23.11 2.98.15-2.02 3.66-4.71 6.85-7.26 10.14-.38 3.06-1.03 6.62.82 9.34 3 3.26 7.62 3.91 11.65 5.15.51 1.48 1.01 2.96 1.5 4.45-4.52-.92-8.63-3.04-12.62-5.27-1.96-2.44-4.77-4.65-5.36-7.86.26-4.69 2.47-8.97 4.35-13.18z" fill="#bec0df"/><path d="m146.55 171.6c.57-.81 1.15-1.62 1.72-2.42.06.48.19 1.45.25 1.93-.67 4.38-4.18 7.56-8.1 9.2.01-.49.02-1.47.03-1.96-.89.07-1.78.15-2.66.24-3.2-2.49-7.36-1.84-11.12-2.24-2.32-.2-4.65-.21-6.97.01l-.9.08c.51-1.29 1.03-2.58 1.62-3.84.06.49.18 1.47.24 1.96 3.02.03 6.04.1 9.05.21-.26-1.28-.53-2.57-.79-3.84-1.67-.13-3.34-.27-5.02-.32 7.52-1.03 15.19-.19 22.65.99m-15.92 2.7c3.31.82 6.58 2.12 10.03 2.23 2.06-.29 2.84-2.3 4.26-3.48-4.36-2.23-11.12-3.47-14.29 1.25z" fill="#7b2c02"/><path d="m84.32 175.21c1.95-2.18 4.35-3.87 6.78-5.47-1.88 4.21-4.09 8.49-4.35 13.18.59 3.21 3.4 5.42 5.36 7.86-.35-.08-1.07-.23-1.42-.3-1.14-.26-2.28-.49-3.41-.71.36 12.67 5.79 24.35 10.66 35.82-.7.43-1.39.87-2.09 1.32-9.01-15.64-11.37-33.94-11.53-51.7z" fill="#365083"/><path d="m120.42 172.6c1.11-.74 2.25-1.45 3.48-1.99 1.68.05 3.35.19 5.02.32.26 1.27.53 2.56.79 3.84-3.01-.11-6.03-.18-9.05-.21-.06-.49-.18-1.47-.24-1.96z" fill="#cc6550"/><path d="m130.63 174.3c3.17-4.72 9.93-3.48 14.29-1.25-1.42 1.18-2.2 3.19-4.26 3.48-3.45-.11-6.72-1.41-10.03-2.23z" fill="#d16242"/><path d="m65.86 211.74c5.16-12.56 8.05-26.99 18.46-36.53.16 17.76 2.52 36.06 11.53 51.7 2.09 6.42-.86 13-2.78 19.09h-43.55c5.61-7.76 8.93-16.8 13.07-25.36 1.36-2.86 2.3-5.89 3.27-8.9z" fill="#bcd7ff"/><path d="m101.09 179.15c1.4-.89 2.8-1.76 4.21-2.63.74.03 1.48.05 2.23.06.04.52.11 1.55.15 2.06.04.38.12 1.13.15 1.5 6.8.31 13.62-.1 20.39.67-7.9-.52-15.82-.03-23.69.66-1.33-.46-2.4-1.41-3.44-2.32z" fill="#7d6103"/><path d="m107.53 176.58c3.75-.08 7.52.21 11.27-.14l.9-.08c-.05.31-.15.93-.2 1.24 2.46.31 4.93.6 7.38 1.05-6.4-.46-12.8.01-19.2-.01-.04-.51-.11-1.54-.15-2.06z" fill="#d8cac1"/><path d="m119.7 176.36c2.32-.22 4.65-.21 6.97-.01 3.76.4 7.92-.25 11.12 2.24-3.62.47-7.29.45-10.91.06-2.45-.45-4.92-.74-7.38-1.05.05-.31.15-.93.2-1.24z" fill="#ebaa94"/><path d="m137.79 178.59c.88-.09 1.77-.17 2.66-.24-.01.49-.02 1.47-.03 1.96-3.99.97-8.13.86-12.2.5-6.77-.77-13.59-.36-20.39-.67-.03-.37-.11-1.12-.15-1.5 6.4.02 12.8-.45 19.2.01 3.62.39 7.29.41 10.91-.06z" fill="#644207"/><path d="m156.38 185c3.02-2.26 6.83-2.64 10.45-1.95 2.24.87 4.42 1.9 6.65 2.81-.66.21-1.99.62-2.65.82-1.11-.06-2.21-.14-3.31-.22-3.73-.36-7.45-.84-11.14-1.46z" fill="#916700"/><path d="m191.96 189.88c7.6-.6 14.27-4.53 21.46-6.6-9.81 12.47-20.44 24.28-31.92 35.25-5.56 5.75-11.69 10.97-18.57 15.08-1.9-3.81-3.99-7.55-6.65-10.89-4.53-5.77-9.19-11.68-15.45-15.69-1.63-1.18-3.34-2.25-5.03-3.33-.22-.35-.67-1.04-.89-1.39 5.15.49 10.25-.61 15.31-1.44 9.14-1.7 18.66-3.62 26.32-9.24 4.85-2.19 10.33-.71 15.42-1.75z" fill="#b8d2fc"/><path d="m213.42 183.28c.71-.14 2.12-.41 2.83-.54-4.88 8.07-11.43 14.87-17.45 22.06-4.68 5.64-10.61 10.05-15.49 15.5-6.12 6.86-13.58 12.6-21.91 16.53-3.27-6.84-7.33-13.36-12.97-18.51-1.08 9.35-2.46 18.68-5.32 27.68h-1.67c1.6-4.1 2.81-8.36 3.65-12.68 1.2-5.68.51-11.94 4.01-16.91-2.21-3.5-5.61-6.19-8.27-9.38 6.26 4.01 10.92 9.92 15.45 15.69 2.66 3.34 4.75 7.08 6.65 10.89 6.88-4.11 13.01-9.33 18.57-15.08 11.48-10.97 22.11-22.78 31.92-35.25z" fill="#385089"/><path d="m167.52 186.46c1.1.08 2.2.16 3.31.22 2.22.81 4.35 1.96 5.8 3.88-8.32 2.29-16.16 6.22-24.78 7.41 5.36-3.01 11.37-4.45 16.98-6.86-.43-1.55-.87-3.1-1.31-4.65z" fill="#ccb14f"/><path d="m87.28 189.77c1.13.22 2.27.45 3.41.71 9.95 7.37 22.37 10.04 34.33 12.16-1.57 1.08-3.15 2.14-4.68 3.28-3.58 2.9-6.68 6.38-9.42 10.09-3.32 4.17-6.36 8.56-9.19 13.07-.96-.71-1.91-1.42-2.83-2.17-.24-.33-.72-.99-.96-1.32-4.87-11.47-10.3-23.15-10.66-35.82z" fill="#b9d3fe"/><path d="m105.83 191.65c.86-.24 2.56-.72 3.42-.96 1.99 2.19 3.55 4.72 4.93 7.33-3.76-.57-6.54-3.17-8.35-6.37z" fill="#cfaf56"/><path d="m125.69 202.74c2.99-.95 6.18-1.65 9.22-.43.22.35.67 1.04.89 1.39-3.39-.15-6.77-.36-10.11-.96z" fill="#1e1301"/><path d="m125.02 202.64.67.1c3.34.6 6.72.81 10.11.96 1.69 1.08 3.4 2.15 5.03 3.33 2.66 3.19 6.06 5.88 8.27 9.38-3.5 4.97-2.81 11.23-4.01 16.91-.84 4.32-2.05 8.58-3.65 12.68h-13.54c-.56-1.9-1.13-3.79-1.67-5.69.22-1.42.46-2.84.71-4.25 1.4 2.63 2.76 5.27 4.11 7.93 2.96-.82 6.1-1.37 8.73-3.04 1.88-1.31 1.67-3.94 2.21-5.93.8-6.27 2.47-12.53 2.01-18.9-.13-2.91-2.69-4.72-4.68-6.47-.95-.8-1.92-1.56-2.93-2.27-4.95-2.69-10.71-1.19-16.05-1.46 1.53-1.14 3.11-2.2 4.68-3.28z" fill="#001b57"/><path d="m120.34 205.92c5.34.27 11.1-1.23 16.05 1.46-5.22 3.11-12.04 3.91-16.08 8.72 3.49 5.78 4.67 13.08 10.17 17.47 1.37 1.27 3.5 3 5.18 1.14 7.09-6.3 3.8-16.81 3.66-25.06 1.99 1.75 4.55 3.56 4.68 6.47.46 6.37-1.21 12.63-2.01 18.9-.54 1.99-.33 4.62-2.21 5.93-2.63 1.67-5.77 2.22-8.73 3.04-1.35-2.66-2.71-5.3-4.11-7.93-.25 1.41-.49 2.83-.71 4.25-3.17-7.12-6.24-14.29-9.26-21.47-.52-1.02-1.08-2.01-1.63-3.01-1.43.44-2.85.89-4.29 1.29-.03-.28-.1-.83-.13-1.11 2.74-3.71 5.84-7.19 9.42-10.09z" fill="#093774"/><path d="m120.31 216.1c4.04-4.81 10.86-5.61 16.08-8.72 1.01.71 1.98 1.47 2.93 2.27.14 8.25 3.43 18.76-3.66 25.06-1.68 1.86-3.81.13-5.18-1.14-5.5-4.39-6.68-11.69-10.17-17.47z" fill="#023e85"/><path d="m47.86 246c7.8-10.41 11.33-23.18 18-34.26-.97 3.01-1.91 6.04-3.27 8.9-4.14 8.56-7.46 17.6-13.07 25.36z" fill="#898cbc"/><path d="m101.73 229.08c2.83-4.51 5.87-8.9 9.19-13.07.03.28.1.83.13 1.11 1.44-.4 2.86-.85 4.29-1.29.55 1 1.11 1.99 1.63 3.01-.97-.75-1.95-1.49-2.93-2.23-3.24 3.75-6.02 7.87-8.35 12.24-1.67 3.21-4.58 5.44-7.13 7.91.84-2.81 3.1-4.74 5.33-6.47-1.97-.61-3.91-1.52-4.99-3.38.92.75 1.87 1.46 2.83 2.17z" fill="#435d8e"/><path d="m114.04 216.61c.98.74 1.96 1.48 2.93 2.23 3.02 7.18 6.09 14.35 9.26 21.47.54 1.9 1.11 3.79 1.67 5.69h-31.56c.87-3.05 1.48-6.16 2.22-9.24 2.55-2.47 5.46-4.7 7.13-7.91 2.33-4.37 5.11-8.49 8.35-12.24z" fill="#bbd2fe"/><path d="m95.85 226.91c.7-.45 1.39-.89 2.09-1.32l.96 1.32c1.08 1.86 3.02 2.77 4.99 3.38-2.23 1.73-4.49 3.66-5.33 6.47-.74 3.08-1.35 6.19-2.22 9.24h-3.27c1.92-6.09 4.87-12.67 2.78-19.09z" fill="#274172"/></svg>