<svg xmlns="http://www.w3.org/2000/svg" fill-rule="evenodd" stroke-linejoin="round" stroke-miterlimit="2" clip-rule="evenodd" viewBox="0 0 429 276"><g fill="#b79f9d" fill-rule="nonzero"><path d="M208.16,35.14C230.51,14.38 260.53,2.19 290.99,1.14C323.92,0.25 357.33,11.93 381.66,34.34C387.01,39.3 392.09,44.58 397.01,49.97C409.72,66.13 419.06,84.99 423.92,104.99C427.35,121.03 429.06,137.64 426.87,153.97C423.87,181.8 412.36,208.76 393.69,229.68C371.3,256.21 337.69,272.83 303.04,274.75C299.46,274.804 295.876,274.829 292.293,274.824C289.851,274.82 287.41,274.802 284.97,274.77C275.88,274.34 266.97,272.27 258.29,269.66C253.2,268.36 248.14,266.68 243.75,263.72C246.73,263.4 249.67,262.82 252.61,262.24C261.47,269.97 274.19,271.52 285.26,268.47C286.25,268.22 287.23,267.94 288.2,267.61C289.88,266.55 291.46,265.36 293.05,264.18C293.9,263.55 294.76,262.93 295.63,262.32C297.44,261.06 299.27,259.81 300.99,258.42C301.32,258.13 302,257.57 302.33,257.29C303.08,256.18 303.8,255.06 304.49,253.91C312.52,241.11 311.47,223.13 301.44,211.69C298.14,207.8 293.95,204.7 289.31,202.61C282.27,198.82 273.93,199 266.32,200.67C264.35,201.24 262.43,201.96 260.5,202.66C256.53,204.2 252.28,204.97 248.02,204.83C240.16,204.63 232.26,204.33 224.43,205.26C229.37,198.9 235.83,193.5 238.84,185.83C242.2,177.76 240.6,168.46 237.25,160.67C226.82,143.07 209,129.34 188.49,126.25C189.11,140.03 192.06,153.57 194.48,167.11C197.37,180.3 200.13,193.52 203.71,206.54C196.79,206.7 189.85,206.53 182.95,207.17C177.66,200.46 174.87,192.29 171.65,184.48C167.26,171.47 164.79,157.82 163.89,144.12C162.9,134.36 164.25,124.57 166.09,115C179.74,115.04 193.34,116.75 207,116.32C216.35,116.33 225.7,116.41 235.04,116.07C242.41,118.65 250.39,120.24 258.1,118.17C260.43,117.72 262.69,117.01 264.9,116.17C266.07,115.48 267.2,114.73 268.29,113.93C269.4,113.08 270.49,112.2 271.58,111.33C271.739,111.366 278.76,104.97 279.4,104.01C284.02,96.99 286.18,88.36 285.28,79.99C284.01,68.87 277.01,58.64 267.18,53.31C265.29,52.26 263.35,51.25 261.27,50.62C257.74,49.48 254.01,49 250.3,49.06C247.74,49.09 245.18,49.28 242.65,49.7C240.75,50.04 238.86,50.44 236.95,50.74C229.27,51.12 221.67,49.51 214,49.64C207.69,49.72 201.28,49.13 195.08,50.55C197.74,44.22 203.03,39.5 208.16,35.14Z"/><path d="M131.37,71.34C137.87,63.01 147.2,56.33 157.97,55.38C166.99,54.72 176.86,54.67 184.69,59.85C181.53,62.89 179.69,66.96 177.67,70.78C170.96,83.19 165.98,96.66 163.75,110.62C161.1,123.6 161.49,136.87 161.75,150.04C162.02,157.66 163.84,165.1 165.37,172.54C161.88,175.05 158.38,177.83 154.13,178.91C149.5,180.05 144.69,179.81 139.96,179.92C140.23,180.15 140.77,180.61 141.04,180.84C140.71,181.56 140.36,182.26 139.99,182.96C137.25,187.56 134.42,192.27 133.5,197.63C131.86,204.87 132.9,212.29 133.34,219.6C133.36,219.97 133.39,220.7 133.41,221.06C132.26,228.82 136.04,235.96 139.16,242.78C143,250.82 148.66,257.79 154.83,264.14C136.22,265.66 117.73,269.09 99,268.71C93.31,268.63 87.63,268.81 81.94,268.7C73.51,268.58 65.25,266.6 57.07,264.72C45.65,262.12 34.85,255.77 27.86,246.27C22.98,237.94 20.27,227.38 24.2,218.13C32.42,219.7 40.54,222.13 48.97,222.31C54.98,222.48 60.99,222.26 67,222.36C81.6,222.75 96.01,219.95 110.52,218.83C114.06,220.59 117.4,222.9 121.29,223.85C124.93,224.73 128.7,224.33 132.4,224.14C132.08,221.35 131.75,218.55 131.52,215.75C131.49,215.31 131.44,214.42 131.41,213.97C131.23,207.11 132.1,200.21 133.74,193.55C134.87,188.8 138.53,184.75 138.27,179.68C138.81,179.6 139.89,179.46 140.44,179.38C141.63,179.27 142.82,179.16 144.01,179.06C144.16,173.64 144.47,167.99 147.32,163.21C153.47,151.94 160.73,139.74 158.77,126.35C156.75,115.93 151.4,105.64 142.47,99.53C135.52,94.7 127.19,92.37 118.93,91C122.77,84.26 126.13,77.15 131.37,71.34Z"/><path d="M105.94,66.24C115.28,65.07 124.67,63.89 134.1,64.31C126.83,72.02 119.68,80.42 117.03,90.94C107.96,90.35 100.18,96.46 94.68,103.05C88.39,100.25 82.15,96.66 75.03,96.82C79.5,102.14 86.9,102.61 92.72,105.76C89.95,110 87.85,114.82 87.71,119.96C87.48,125.96 87.47,131.98 87.75,137.98C77.97,135.84 68.02,134.3 58.01,133.79C46.33,133.79 34.57,136.29 24.1,141.51C24.15,137.32 24.12,133.13 24.34,128.94C24.67,118.63 30.31,109.41 36.63,101.61C46.28,90.04 59.7,82.6 73.05,76.11C79.6,72.85 86.72,71.08 93.68,68.97C97.69,67.76 101.78,66.78 105.94,66.24Z"/><path d="M44.49,137.78C51.26,136.55 58.19,136.29 65.04,137.04C73.08,137.69 80.88,140.16 88.98,140.29C95.14,147.47 98.43,156.52 101.62,165.28C104.22,177.08 102.12,189.25 101.34,201.14C100.94,207.41 103.53,213.76 108.72,217.44C102.74,216.16 96.71,217.71 90.77,218.35C83.21,219.17 75.61,219.75 68,219.72C57.6,219.55 47.05,220.46 36.82,218.08C28.75,216.68 21.65,212.39 14.81,208.12C7.53,203.62 2.87,195.38 2.38,186.88C2.11,177.6 4.62,168.24 9.43,160.3C13.18,153.95 18.99,149.19 24.79,144.79C30.5,140.54 37.62,138.99 44.49,137.78Z"/><path d="M156.98,181.14C160.31,179.8 163.15,177.57 166.03,175.5C169.82,187.59 174.1,199.65 180.7,210.53C188.15,223.77 198.22,235.44 209.7,245.34C214.21,249.03 218.79,252.82 224.18,255.18C221.8,259.28 218.66,263.08 214.31,265.18C206.48,269.17 197.93,272.38 189,271.89C177.16,272.46 165.13,268.6 156.04,260.98C145.32,251.31 139.56,237.69 134.69,224.42C135.25,224.53 136.36,224.76 136.91,224.88C137.582,224.17 139.458,222.638 139.77,222.64C142.73,218.89 145.6,214.74 146.05,209.84C147.08,200.58 145.68,191.29 145.35,182.02C149.22,182.44 153.3,182.61 156.98,181.14Z"/></g><path fill="#5a5c6c" fill-rule="nonzero" d="M242.65,49.7C245.18,49.28 247.74,49.09 250.3,49.06L249.49,49.23C248.4,49.51 247.32,49.81 246.25,50.11C250.59,53.78 255.36,57.73 256.67,63.56C258.22,70.68 257.06,78.68 252.6,84.58C247.8,90.75 239.66,93.62 232.01,93.27C225.53,92.63 219.2,88.85 216.18,82.97C216.25,82.33 216.39,81.06 216.47,80.43C219.2,81.99 221.1,84.59 223.55,86.52C229.25,90.86 237.5,91.54 243.66,87.74C252.97,83 257.19,70.25 252.07,61.04C249.84,56.72 245.61,54.07 241.7,51.45C242.01,50.86 242.33,50.28 242.65,49.7Z"/><path fill="#5a5c6c" fill-rule="nonzero" d="M266.74,105.13C270.33,105.5 273.69,107.54 277.41,106.85C276.09,108.55 273.05,109.76 271.58,111.33C271.19,111.24 271.98,111.42 271.58,111.33C270.9,109.99 270.22,108.64 269.54,107.3C268.3,107.95 267.06,108.58 265.88,109.32C265.82,111.18 267.38,112.47 268.29,113.93C267.2,114.73 266.07,115.48 264.9,116.17C263.48,112.58 261.75,106.72 266.74,105.13Z"/><path fill="#5a5c6c" fill-rule="nonzero" d="M266.32,200.67C273.93,199 282.27,198.82 289.31,202.61C287.06,202.03 284.77,201.64 282.46,201.38C280.21,201.17 277.94,201.14 275.68,201.06C274.19,200.99 272.71,200.95 271.23,200.92C274.57,203.53 278.06,206.31 279.74,210.34C282.2,216.27 283.14,223.28 280.43,229.3C277.83,235.06 273.2,240.31 267,242.19C261.56,243.83 255.51,244.08 250.14,242.05C246.25,240.6 243.53,237.34 240.79,234.4C240.72,235.67 240.64,236.95 240.61,238.23C240.58,240.21 240.6,242.2 240.71,244.18C239.08,239.65 238.77,234.73 239.65,230C240.4,229.84 241.15,229.68 241.9,229.53C244.59,234.34 248.32,239.25 254.25,239.87C265.49,242.81 277.21,233.93 278.82,222.77C279.13,219.16 278.21,215.54 276.89,212.21C274.9,207.19 270.26,204.05 266.32,200.67Z"/><path fill="#2e2e39" fill-rule="nonzero" d="M250.3,49.06C254.01,49 257.74,49.48 261.27,50.62C259.39,50.65 257.51,50.76 255.63,50.86C258.08,52.85 261.24,54.58 262.05,57.9C264.51,65.78 263.84,74.33 262.05,82.28C260.5,89.94 253.19,94.4 246.61,97.43C237.86,101.34 227.91,99.81 219.29,96.36C219.01,96.83 218.45,97.77 218.18,98.24C217.62,96.92 217.12,95.58 216.71,94.21C216.74,92.37 216.84,90.52 216.93,88.68C221.74,92.08 226.87,95.8 233.04,95.8C241.27,96.74 248.88,92.11 254.32,86.33C259.2,80.61 260.24,72.53 259.38,65.29C258.58,58.75 253.98,53.66 249.49,49.23L250.3,49.06Z"/><path fill="#2e2e39" fill-rule="nonzero" d="M275.68,201.06C277.94,201.14 280.21,201.17 282.46,201.38C282.68,204.28 284.2,206.76 285.63,209.21C287.95,213.03 287.73,217.67 287.7,221.98C287.61,228.03 286.11,234.36 281.98,238.97C275.18,246.83 264.38,250.81 254.11,249.66C250.2,248.98 246.6,247.2 243.17,245.29C243.04,246.27 242.77,248.23 242.64,249.21C241.9,247.57 241.23,245.9 240.71,244.18C240.6,242.2 240.58,240.21 240.61,238.23C246.39,244.01 254.8,247.47 263,246.03C270.93,245.01 277.42,239.23 281.51,232.67C286.58,222.54 284.87,208.28 275.68,201.06Z"/><path fill="#8a93a1" fill-rule="nonzero" d="M185.28,59.61C189.236,53.225 190.026,50.665 195.08,50.55C201.28,49.13 207.69,49.72 214,49.64C221.67,49.51 229.27,51.12 236.95,50.74C236.33,51.75 235.7,52.77 235.08,53.78C239.74,54.82 245.03,55.86 247.94,60.08C254.74,68.69 249.42,83.2 238.94,85.85C234.11,87.35 228.45,86.82 224.5,83.47C220.87,80.62 220,75.85 218.58,71.74C217.88,72.41 217.19,73.09 216.51,73.78C218.81,64.9 224.88,57.41 232.94,53.07C224,53.14 215.03,53.49 206.11,52.71C200.92,51.92 193.85,50.02 190.34,55.25C177.77,72.23 169.74,92.34 165.67,113C174.66,113.49 183.68,112.93 192.66,113.64C205.04,114.78 217.49,114.08 229.9,114.23C229.72,113.64 229.37,112.46 229.19,111.86C231.11,113.31 233.03,114.75 235.04,116.07C225.7,116.41 216.35,116.33 207,116.32C193.34,116.75 179.74,115.04 166.09,115C165.31,113.53 164.53,112.08 163.75,110.62C165.98,96.66 170.96,83.19 177.67,70.78C179.69,66.96 181.53,62.89 184.69,59.85L185.28,59.61ZM234.32,57.22C225.58,59.36 220.23,70.13 223.61,78.41C226.44,83.59 233.48,84.74 238.64,82.77C245.93,79.86 249.37,70.54 246.74,63.36C244.61,58.96 239.12,56.05 234.32,57.22Z"/><path fill="#8a93a1" fill-rule="nonzero" d="M248.02,204.83C252.28,204.97 256.53,204.2 260.5,202.66C260.42,203.14 260.25,204.12 260.17,204.6C263.69,205.58 267.52,206.19 270.43,208.58C274,211.52 275.52,216.37 275.38,220.88C274.76,228.53 268.69,235.73 260.92,236.71C256.42,237.33 251.21,236.49 248.11,232.9C245.66,229.44 244.3,225.36 242.48,221.57C244.76,215.18 250.08,210.75 254.54,205.91C244.12,204.75 233.73,206.84 223.32,206.19C223.6,205.96 224.15,205.49 224.43,205.26C232.26,204.33 240.16,204.63 248.02,204.83M255.54,209.41C252.96,211.15 250.75,213.43 248.98,215.98C246.96,218.89 247.39,222.68 247.63,226.02C248.14,230.64 252.37,234.36 256.98,234.46C262.36,235 267.33,231.47 270.12,227.11C272.19,223.13 271.87,218.35 271.27,214.04C269.24,207.81 260.68,207.06 255.54,209.41Z"/><path fill="#8a93a1" fill-rule="nonzero" d="M182.95,207.17C189.85,206.53 196.79,206.7 203.71,206.54C203.9,207.11 204.28,208.26 204.46,208.83C197.23,208.88 189.99,208.57 182.76,208.89C194.18,230.34 212.9,247.41 234.06,259.03C239.26,262.23 245.51,261.72 251.32,261.28C251.64,261.52 252.29,262 252.61,262.24C249.67,262.82 246.73,263.4 243.75,263.72C236.677,263.521 231.481,258.812 225.36,255.59C225.089,255.447 224.48,255.28 224.18,255.18C218.79,252.82 214.21,249.03 209.7,245.34C198.22,235.44 188.15,223.77 180.7,210.53L182.95,207.17Z"/><path fill="#6b6f83" fill-rule="nonzero" d="M236.95,50.74C238.86,50.44 240.75,50.04 242.65,49.7C242.33,50.28 242.01,50.86 241.7,51.45C245.61,54.07 249.84,56.72 252.07,61.04C257.19,70.25 252.97,83 243.66,87.74C237.5,91.54 229.25,90.86 223.55,86.52C221.1,84.59 219.2,81.99 216.47,80.43C216.39,81.06 216.25,82.33 216.18,82.97C215.98,85.69 215.84,88.43 215.89,91.17C215.07,87.71 214.68,84.16 214.7,80.6C215.14,78.29 215.73,76 216.51,73.78C217.19,73.09 217.88,72.41 218.58,71.74C220,75.85 220.87,80.62 224.5,83.47C228.45,86.82 234.11,87.35 238.94,85.85C249.42,83.2 254.74,68.69 247.94,60.08C245.03,55.86 239.74,54.82 235.08,53.78C235.7,52.77 236.33,51.75 236.95,50.74Z"/><path fill="#6b6f83" fill-rule="nonzero" d="M260.5,202.66C262.43,201.96 264.35,201.24 266.32,200.67C270.26,204.05 274.9,207.19 276.89,212.21C278.21,215.54 279.13,219.16 278.82,222.77C277.21,233.93 265.49,242.81 254.25,239.87C248.32,239.25 244.59,234.34 241.9,229.53C241.15,229.68 240.4,229.84 239.65,230C240.39,227.13 241.38,224.32 242.48,221.57C244.3,225.36 245.66,229.44 248.11,232.9C251.21,236.49 256.42,237.33 260.92,236.71C268.69,235.73 274.76,228.53 275.38,220.88C275.52,216.37 274,211.52 270.43,208.58C267.52,206.19 263.69,205.58 260.17,204.6C260.25,204.12 260.42,203.14 260.5,202.66Z"/><path fill="#444550" fill-rule="nonzero" d="M246.25,50.11C247.32,49.81 248.4,49.51 249.49,49.23C253.98,53.66 258.58,58.75 259.38,65.29C260.24,72.53 259.2,80.61 254.32,86.33C248.88,92.11 241.27,96.74 233.04,95.8C226.87,95.8 221.74,92.08 216.93,88.68C216.84,90.52 216.74,92.37 216.71,94.21C216.4,93.21 216.13,92.19 215.89,91.17C215.84,88.43 215.98,85.69 216.18,82.97C219.2,88.85 225.53,92.63 232.01,93.27C239.66,93.62 247.8,90.75 252.6,84.58C257.06,78.68 258.22,70.68 256.67,63.56C255.36,57.73 250.59,53.78 246.25,50.11Z"/><path fill="#444550" fill-rule="nonzero" d="M271.23,200.92C272.71,200.95 274.19,200.99 275.68,201.06C284.87,208.28 286.58,222.54 281.51,232.67C277.42,239.23 270.93,245.01 263,246.03C254.8,247.47 246.39,244.01 240.61,238.23C240.64,236.95 240.72,235.67 240.79,234.4C243.53,237.34 246.25,240.6 250.14,242.05C255.51,244.08 261.56,243.83 267,242.19C273.2,240.31 277.83,235.06 280.43,229.3C283.14,223.28 282.2,216.27 279.74,210.34C278.06,206.31 274.57,203.53 271.23,200.92Z"/><path fill="#444550" fill-rule="nonzero" d="M289.01,257.02C292.54,253.49 297.1,257.72 300.99,258.42C299.27,259.81 297.44,261.06 295.63,262.32C295.55,261.4 295.37,259.55 295.29,258.62C293.79,258.64 292.3,258.67 290.81,258.7C290.71,259.52 290.52,261.16 290.42,261.98C291.29,262.71 292.17,263.44 293.05,264.18C291.46,265.36 289.88,266.55 288.2,267.61C288.1,264.15 286.5,259.95 289.01,257.02Z"/><path fill="#1b1b27" fill-rule="nonzero" d="M255.63,50.86C257.51,50.76 259.39,50.65 261.27,50.62C263.35,51.25 265.29,52.26 267.18,53.31C266.57,53.49 265.34,53.86 264.73,54.04C266.14,55.7 267.64,57.28 269.13,58.88C268.05,58.54 266.97,58.21 265.9,57.87C268.29,63.26 269.3,69.16 268.83,75.04C268.81,80.99 266.78,86.76 266.91,92.7C270.78,96.79 275.78,99.65 279.4,104.01C278.76,104.97 278.09,105.92 277.41,106.85C273.69,107.54 270.33,105.5 266.74,105.13C261.75,106.72 263.48,112.58 264.9,116.17C262.69,117.01 260.43,117.72 258.1,118.17C256.66,118.12 255.22,118 253.78,117.89C255.63,117.34 257.48,116.81 259.34,116.28C258.13,116.08 256.93,115.89 255.73,115.7C255.66,114.89 255.6,114.08 255.54,113.27C255.19,113.22 254.48,113.11 254.13,113.06C255.03,109.63 255.1,106.08 254.74,102.57C249.04,104.44 242.96,104.33 237.03,104.35C231.81,104.35 226.81,102.64 221.63,102.25C222.07,103.47 222.51,104.7 223.01,105.9C221.06,103.58 219.46,100.98 218.18,98.24C218.45,97.77 219.01,96.83 219.29,96.36C227.91,99.81 237.86,101.34 246.61,97.43C253.19,94.4 260.5,89.94 262.05,82.28C263.84,74.33 264.51,65.78 262.05,57.9C261.24,54.58 258.08,52.85 255.63,50.86Z"/><path fill="#1b1b27" fill-rule="nonzero" d="M285.63,209.21C284.2,206.76 282.68,204.28 282.46,201.38C284.77,201.64 287.06,202.03 289.31,202.61C293.95,204.7 298.14,207.8 301.44,211.69C299.17,209.86 296.56,208.46 293.8,207.54C293.49,209.32 293.46,211.13 293.42,212.94C292.77,213.02 291.47,213.19 290.81,213.28C291.48,216.79 291.82,220.42 290.96,223.93C289.55,229.68 289.45,235.72 287.21,241.26C287.48,241.96 287.75,242.66 288.03,243.36C284.3,245.7 280.86,248.51 278.1,251.97C271.32,253.52 264.3,253.54 257.54,255.18C253.92,256.13 250.33,254.62 247.41,252.56C247.06,253.19 246.35,254.45 246,255.08C244.72,253.22 243.61,251.24 242.64,249.21C242.77,248.23 243.04,246.27 243.17,245.29C246.6,247.2 250.2,248.98 254.11,249.66C264.38,250.81 275.18,246.83 281.98,238.97C286.11,234.36 287.61,228.03 287.7,221.98C287.73,217.67 287.95,213.03 285.63,209.21Z"/><path fill="#1b1b27" fill-rule="nonzero" d="M284.5,252.56C287.76,250.11 292.25,250.08 296.06,251.02C299.19,251.72 300.66,254.87 302.33,257.29C302,257.57 301.32,258.13 300.99,258.42C297.1,257.72 292.54,253.49 289.01,257.02C286.5,259.95 288.1,264.15 288.2,267.61C286.21,265.9 283.64,264.36 283.04,261.6C282.31,258.63 281.89,254.76 284.5,252.56Z"/><path fill="#acdade" fill-rule="nonzero" d="M190.34,55.25C193.85,50.02 200.92,51.92 206.11,52.71C208.94,53.44 211.72,54.34 214.52,55.18C212.17,57.22 209.55,59.09 207.87,61.77C207.11,63.72 207.44,65.9 207.32,67.95C207.49,74.28 205.3,80.4 205.6,86.74C207.03,85.94 208.46,85.13 209.89,84.32C210.98,85.92 212.07,87.52 213.16,89.12C213.65,86.28 214.15,83.43 214.7,80.6C214.68,84.16 215.07,87.71 215.89,91.17C216.13,92.19 216.4,93.21 216.71,94.21C217.12,95.58 217.62,96.92 218.18,98.24C219.46,100.98 221.06,103.58 223.01,105.9C224.81,108.14 226.93,110.11 229.19,111.86C229.37,112.46 229.72,113.64 229.9,114.23C217.49,114.08 205.04,114.78 192.66,113.64C183.68,112.93 174.66,113.49 165.67,113C169.74,92.34 177.77,72.23 190.34,55.25Z"/><path fill="#acdade" fill-rule="nonzero" d="M223.32,206.19C233.73,206.84 244.12,204.75 254.54,205.91C250.08,210.75 244.76,215.18 242.48,221.57C241.38,224.32 240.39,227.13 239.65,230C238.77,234.73 239.08,239.65 240.71,244.18C241.23,245.9 241.9,247.57 242.64,249.21C243.61,251.24 244.72,253.22 246,255.08C247.59,257.29 249.39,259.35 251.32,261.28C245.51,261.72 239.26,262.23 234.06,259.03C212.9,247.41 194.18,230.34 182.76,208.89C189.99,208.57 197.23,208.88 204.46,208.83C205.02,210.37 205.64,211.9 206.25,213.42C212.26,211.81 217.75,208.89 223.32,206.19Z"/><path fill="#acdade" fill-rule="nonzero" d="M206.11,52.71C215.03,53.49 224,53.14 232.94,53.07C224.88,57.41 218.81,64.9 216.51,73.78C215.73,76 215.14,78.29 214.7,80.6C214.15,83.43 213.65,86.28 213.16,89.12C212.07,87.52 210.98,85.92 209.89,84.32C208.46,85.13 207.03,85.94 205.6,86.74C205.3,80.4 207.49,74.28 207.32,67.95C207.44,65.9 207.11,63.72 207.87,61.77C209.55,59.09 212.17,57.22 214.52,55.18C211.72,54.34 208.94,53.44 206.11,52.71Z"/><path fill="#9e8987" fill-rule="nonzero" d="M146.983,57.463C156.483,53.033 167.09,53.323 177.11,55.333C183.029,56.521 184.69,59.85 184.69,59.85C176.86,54.67 166.99,54.72 157.97,55.38C147.2,56.33 137.87,63.01 131.37,71.34C126.13,77.15 122.77,84.26 118.93,91L118.08,90.97L117.03,90.94C119.68,80.42 126.83,72.02 134.1,64.31C124.67,63.89 115.28,65.07 105.94,66.24C101.78,66.78 97.69,67.76 93.68,68.97C86.72,71.08 79.6,72.85 73.05,76.11C59.7,82.6 46.28,90.04 36.63,101.61C30.31,109.41 24.67,118.63 24.34,128.94C24.12,133.13 24.15,137.32 24.1,141.51C34.57,136.29 46.33,133.79 58.01,133.79C68.02,134.3 77.97,135.84 87.75,137.98C88.06,138.56 88.67,139.71 88.98,140.29C80.88,140.16 73.08,137.69 65.04,137.04C58.19,136.29 51.26,136.55 44.49,137.78C37.62,138.99 30.5,140.54 24.79,144.79C18.99,149.19 13.18,153.95 9.43,160.3C4.62,168.24 2.11,177.6 2.38,186.88C2.87,195.38 7.53,203.62 14.81,208.12C21.65,212.39 28.75,216.68 36.82,218.08C47.05,220.46 57.6,219.55 68,219.72C75.61,219.75 83.21,219.17 90.77,218.35C96.71,217.71 102.74,216.16 108.72,217.44C109.39,217.77 110.72,218.43 111.39,218.76L110.52,218.83C96.01,219.95 81.6,222.75 67,222.36C60.99,222.26 54.98,222.48 48.97,222.31C40.54,222.13 32.42,219.7 24.2,218.13C20.27,227.38 22.98,237.94 27.86,246.27C34.85,255.77 45.65,262.12 57.07,264.72C65.25,266.6 73.51,268.58 81.94,268.7C87.63,268.81 93.31,268.63 99,268.71C117.73,269.09 136.22,265.66 154.83,264.14C148.66,257.79 143,250.82 139.16,242.78C136.04,235.96 132.26,228.82 133.41,221.06C133.82,222.18 134.25,223.3 134.69,224.42C139.56,237.69 145.32,251.31 156.04,260.98C165.13,268.6 177.16,272.46 189,271.89C197.93,272.38 206.48,269.17 214.31,265.18C218.66,263.08 221.8,259.28 224.18,255.18C224.48,255.28 225.07,255.49 225.36,255.59C221.33,262.49 214.87,267.97 207.23,270.43C199.49,273.04 191.13,274.46 182.99,273.16C173.98,272.97 165.81,268.87 157.89,265.1C144.65,266.25 131.5,268.36 118.24,269.33C111.87,270.32 105.39,269.73 99.01,270.56C91.68,271.34 84.4,269.86 77.07,269.82C63.28,268.29 48.98,265.68 37.18,257.94C32.57,254.57 28.39,250.45 25.43,245.55C20.55,236.56 19.47,225.35 23.7,215.9C17.97,212.63 11.71,209.72 7.63,204.33C0.96,196.66 -0.16,185.66 1.93,176.04C3.81,162.68 12.26,150.92 23.52,143.72C21.1,133.46 22.77,122.62 27.14,113.1C32.98,100.99 43,91.37 54.22,84.2C66.46,76.25 80.14,70.63 94.31,67.18C103.37,64.76 112.76,64.17 122.05,63.18C126.99,62.88 132,62.75 136.88,63.76C140.5,62.24 143.213,58.773 146.983,57.463Z"/><path fill="#9e8987" fill-rule="nonzero" d="M75.03,96.82C82.15,96.66 88.39,100.25 94.68,103.05C93.99,103.93 93.34,104.84 92.72,105.76C86.9,102.61 79.5,102.14 75.03,96.82Z"/><path fill="#9e8987" fill-rule="nonzero" d="M163.75,110.62C164.53,112.08 165.31,113.53 166.09,115C164.25,124.57 162.9,134.36 163.89,144.12C164.79,157.82 167.26,171.47 171.65,184.48C174.87,192.29 177.66,200.46 182.95,207.17C182.2,208.29 181.45,209.41 180.7,210.53C174.1,199.65 169.82,187.59 166.03,175.5C163.15,177.57 160.31,179.8 156.98,181.14C153.3,182.61 149.22,182.44 145.35,182.02C143.9,181.69 142.46,181.3 141.04,180.84C140.77,180.61 140.23,180.15 139.96,179.92C144.69,179.81 149.5,180.05 154.13,178.91C158.38,177.83 161.88,175.05 165.37,172.54C163.84,165.1 162.02,157.66 161.75,150.04C161.49,136.87 161.1,123.6 163.75,110.62Z"/><path fill="#0a0914" fill-rule="nonzero" d="M264.73,54.04C265.34,53.86 266.57,53.49 267.18,53.31C277.01,58.64 284.01,68.87 285.28,79.99C286.18,88.36 284.02,96.99 279.4,104.01C275.78,99.65 270.78,96.79 266.91,92.7C266.78,86.76 268.81,80.99 268.83,75.04C269.3,69.16 268.29,63.26 265.9,57.87C266.97,58.21 268.05,58.54 269.13,58.88C267.64,57.28 266.14,55.7 264.73,54.04Z"/><path fill="#0a0914" fill-rule="nonzero" d="M221.63,102.25C226.81,102.64 231.81,104.35 237.03,104.35C242.96,104.33 249.04,104.44 254.74,102.57C255.1,106.08 255.03,109.63 254.13,113.06C254.48,113.11 255.19,113.22 255.54,113.27C255.6,114.08 255.66,114.89 255.73,115.7C256.93,115.89 258.13,116.08 259.34,116.28C257.48,116.81 255.63,117.34 253.78,117.89C255.22,118 256.66,118.12 258.1,118.17C250.39,120.24 242.41,118.65 235.04,116.07C233.03,114.75 231.11,113.31 229.19,111.86C226.93,110.11 224.81,108.14 223.01,105.9C222.51,104.7 222.07,103.47 221.63,102.25Z"/><path fill="#0a0914" fill-rule="nonzero" d="M257.54,255.18C264.3,253.54 271.32,253.52 278.1,251.97C276.98,253.33 275.91,254.73 274.84,256.12C277.31,258.42 279.63,260.87 281.8,263.46C281.02,264.6 280.25,265.75 279.48,266.9C281.4,267.44 283.31,268.01 285.26,268.47C274.19,271.52 261.47,269.97 252.61,262.24C252.29,262 251.64,261.52 251.32,261.28C249.39,259.35 247.59,257.29 246,255.08C246.35,254.45 247.06,253.19 247.41,252.56C250.33,254.62 253.92,256.13 257.54,255.18Z"/><g fill="#fdfdfd" fill-rule="nonzero"><path d="M234.32,57.22C239.12,56.05 244.61,58.96 246.74,63.36C249.37,70.54 245.93,79.86 238.64,82.77C233.48,84.74 226.44,83.59 223.61,78.41C220.23,70.13 225.58,59.36 234.32,57.22Z"/><path d="M265.88,109.32C267.06,108.58 268.3,107.95 269.54,107.3C270.22,108.64 270.9,109.99 271.58,111.33C270.49,112.2 269.4,113.08 268.29,113.93C267.38,112.47 265.82,111.18 265.88,109.32Z"/><path d="M255.54,209.41C260.68,207.06 269.24,207.81 271.27,214.04C271.87,218.35 272.19,223.13 270.12,227.11C267.33,231.47 262.36,235 256.98,234.46C252.37,234.36 248.14,230.64 247.63,226.02C247.39,222.68 246.96,218.89 248.98,215.98C250.75,213.43 252.96,211.15 255.54,209.41Z"/><path d="M290.81,258.7C292.3,258.67 293.79,258.64 295.29,258.62C295.37,259.55 295.55,261.4 295.63,262.32C294.76,262.93 293.9,263.55 293.05,264.18C292.17,263.44 291.29,262.71 290.42,261.98C290.52,261.16 290.71,259.52 290.81,258.7Z"/></g><path fill="#bca6a8" fill-rule="nonzero" d="M94.68,103.05C100.18,96.46 107.96,90.35 117.03,90.94L118.08,90.97C117.44,93.92 116.66,96.85 115.71,99.73C111.71,111.68 111,124.47 111.83,136.98C112.59,149.86 117.94,162.68 127.45,171.56C130.92,174.85 135.31,176.88 139.56,178.95L140.44,179.38C139.89,179.46 138.81,179.6 138.27,179.68C124.92,174.37 115.65,161.66 112.18,148C109.99,140.85 110.28,133.32 110.3,125.93C110.59,118.5 104.12,113.4 98.72,109.43C97.83,108.86 96.92,108.31 96.02,107.77C90.46,115.9 89.62,126.63 93.27,135.7C95.08,140.01 96.82,144.34 98.45,148.72C100.88,155.21 105.43,160.96 106.06,168.05C106.84,176.47 106.42,184.96 105.65,193.37C104.97,200.2 104.88,207.93 109.42,213.56C112.03,216.79 116.64,215.89 120.27,215.78C124.02,215.45 127.71,214.66 131.41,213.97C131.44,214.42 131.49,215.31 131.52,215.75C124.85,216.99 118.15,218.17 111.39,218.76C110.72,218.43 109.39,217.77 108.72,217.44C103.53,213.76 100.94,207.41 101.34,201.14C102.12,189.25 104.22,177.08 101.62,165.28C98.43,156.52 95.14,147.47 88.98,140.29C88.67,139.71 88.06,138.56 87.75,137.98C87.47,131.98 87.48,125.96 87.71,119.96C87.85,114.82 89.95,110 92.72,105.76C93.34,104.84 93.99,103.93 94.68,103.05M97.41,105.45C101.16,110.16 106.01,113.82 109.87,118.42C111.38,110.96 113.1,103.55 114.44,96.06C113.82,95.79 112.56,95.25 111.94,94.99C106.61,97.74 101.7,101.25 97.41,105.45Z"/><path fill="#bca6a8" fill-rule="nonzero" d="M141.04,180.84C142.46,181.3 143.9,181.69 145.35,182.02C145.68,191.29 147.08,200.58 146.05,209.84C145.6,214.74 142.73,218.89 139.77,222.64C139.093,223.331 137.206,224.608 136.91,224.88C136.36,224.76 135.25,224.53 134.69,224.42C133.875,223.398 132.775,220.123 133.34,219.6C136.91,217.63 141.54,215.53 142.14,210.96C142.84,204.66 142.22,198.3 142.47,191.98C142.72,188.75 141.66,185.68 139.99,182.96C140.36,182.26 140.71,181.56 141.04,180.84Z"/><path fill="#cdb6b5" fill-rule="nonzero" d="M118.08,90.97L118.93,91C127.19,92.37 135.52,94.7 142.47,99.53C151.4,105.64 156.75,115.93 158.77,126.35C160.73,139.74 153.47,151.94 147.32,163.21C144.47,167.99 144.331,174.339 144.181,179.759C142.991,179.859 141.537,179.894 140.347,180.004L139.56,178.95C137.25,168.23 144.08,158.76 149.18,150.01C157.47,135.8 154.73,115.65 141.93,105.01C135.89,100.59 128.77,97.37 121.33,96.3C118.75,95.63 117.08,97.96 115.71,99.73C116.66,96.85 117.44,93.92 118.08,90.97Z"/><path fill="#cdb6b5" fill-rule="nonzero" d="M93.27,135.7C89.62,126.63 90.46,115.9 96.02,107.77C96.92,108.31 97.83,108.86 98.72,109.43C93.73,114.51 93.43,122.12 94.07,128.79C94.84,136.94 99.98,143.66 102.59,151.22C104.75,157.41 108.26,163.28 108.67,169.95C109.45,180.68 107.09,191.33 107.55,202.05C107.73,205.84 108.4,209.95 111.14,212.8C113.43,215.35 117.11,215.48 120.27,215.78C116.64,215.89 112.03,216.79 109.42,213.56C104.88,207.93 104.97,200.2 105.65,193.37C106.42,184.96 106.84,176.47 106.06,168.05C105.43,160.96 100.88,155.21 98.45,148.72C96.82,144.34 95.08,140.01 93.27,135.7Z"/><path fill="#cdb6b5" fill-rule="nonzero" d="M111.39,218.76C118.15,218.17 124.85,216.99 131.52,215.75C131.75,218.55 132.08,221.35 132.4,224.14C128.7,224.33 124.93,224.73 121.29,223.85C117.4,222.9 114.06,220.59 110.52,218.83L111.39,218.76Z"/><g fill="#e2ccc7" fill-rule="nonzero"><path d="M97.41,105.45C101.7,101.25 106.61,97.74 111.94,94.99C112.56,95.25 113.82,95.79 114.44,96.06C113.1,103.55 111.38,110.96 109.87,118.42C106.01,113.82 101.16,110.16 97.41,105.45Z"/><path d="M115.71,99.73C117.08,97.96 118.75,95.63 121.33,96.3C128.77,97.37 135.89,100.59 141.93,105.01C154.73,115.65 157.47,135.8 149.18,150.01C144.08,158.76 137.25,168.23 139.56,178.95C135.31,176.88 130.92,174.85 127.45,171.56C117.94,162.68 112.59,149.86 111.83,136.98C111,124.47 111.71,111.68 115.71,99.73Z"/><path d="M94.07,128.79C93.43,122.12 93.73,114.51 98.72,109.43C104.12,113.4 110.59,118.5 110.3,125.93C110.28,133.32 109.99,140.85 112.18,148C115.65,161.66 124.92,174.37 138.27,179.68C138.53,184.75 134.87,188.8 133.74,193.55C132.1,200.21 131.23,207.11 131.41,213.97C127.71,214.66 124.02,215.45 120.27,215.78C117.11,215.48 113.43,215.35 111.14,212.8C108.4,209.95 107.73,205.84 107.55,202.05C107.09,191.33 109.45,180.68 108.67,169.95C108.26,163.28 104.75,157.41 102.59,151.22C99.98,143.66 94.84,136.94 94.07,128.79Z"/><path d="M133.5,197.63C134.42,192.27 137.25,187.56 139.99,182.96C141.66,185.68 142.72,188.75 142.47,191.98C142.22,198.3 142.84,204.66 142.14,210.96C141.54,215.53 136.91,217.63 133.34,219.6C132.9,212.29 131.86,204.87 133.5,197.63Z"/></g><path fill="#020103" fill-rule="nonzero" d="M188.49,126.25C209,129.34 226.82,143.07 237.25,160.67C240.6,168.46 242.2,177.76 238.84,185.83C235.83,193.5 229.37,198.9 224.43,205.26C224.15,205.49 223.6,205.96 223.32,206.19C217.75,208.89 212.26,211.81 206.25,213.42C205.64,211.9 205.02,210.37 204.46,208.83C204.28,208.26 203.9,207.11 203.71,206.54C200.13,193.52 197.37,180.3 194.48,167.11C192.06,153.57 189.11,140.03 188.49,126.25M189.45,127.22C189.58,139.91 192.55,152.38 194.66,164.85C197.97,180.58 201.13,196.39 206.02,211.73C208.68,211.92 210.962,210.175 213.452,209.215C213.082,203.665 212.01,199.5 211.12,194.02C206.88,172.47 202.56,150.81 195.07,130.11C194.49,127.48 191.64,127.31 189.45,127.22Z"/><path fill="#020103" fill-rule="nonzero" d="M293.8,207.54C296.56,208.46 299.17,209.86 301.44,211.69C311.47,223.13 312.52,241.11 304.49,253.91C303.61,253.37 302.74,252.82 301.87,252.28C302.4,251.21 302.93,250.15 303.47,249.08C298.36,246.61 292.82,242.55 292.89,236.25C293.1,228.29 295.44,220.55 296.02,212.6C295.37,212.69 294.07,212.85 293.42,212.94C293.46,211.13 293.49,209.32 293.8,207.54Z"/><path fill="#eff0e8" fill-rule="nonzero" d="M189.45,127.22C191.64,127.31 194.49,127.48 195.07,130.11C202.56,150.81 206.88,172.47 211.12,194.02C212.01,199.5 213.256,203.844 213.626,209.394C211.136,210.354 208.68,211.92 206.02,211.73C201.13,196.39 197.97,180.58 194.66,164.85C192.55,152.38 189.58,139.91 189.45,127.22Z"/><path fill="#14121d" fill-rule="nonzero" d="M290.81,213.28C291.47,213.19 292.77,213.02 293.42,212.94C294.07,212.85 295.37,212.69 296.02,212.6C295.44,220.55 293.1,228.29 292.89,236.25C292.82,242.55 298.36,246.61 303.47,249.08C302.93,250.15 302.4,251.21 301.87,252.28C302.74,252.82 303.61,253.37 304.49,253.91C303.8,255.06 303.08,256.18 302.33,257.29C300.66,254.87 299.19,251.72 296.06,251.02C292.25,250.08 287.76,250.11 284.5,252.56C281.89,254.76 282.31,258.63 283.04,261.6C283.64,264.36 286.21,265.9 288.2,267.61C287.23,267.94 286.25,268.22 285.26,268.47C283.31,268.01 281.4,267.44 279.48,266.9C280.25,265.75 281.02,264.6 281.8,263.46C279.63,260.87 277.31,258.42 274.84,256.12C275.91,254.73 276.98,253.33 278.1,251.97C280.86,248.51 284.3,245.7 288.03,243.36C287.75,242.66 287.48,241.96 287.21,241.26C289.45,235.72 289.55,229.68 290.96,223.93C291.82,220.42 291.48,216.79 290.81,213.28Z"/></svg>