<svg xmlns="http://www.w3.org/2000/svg" width="712" height="137pt" viewBox="0 0 534 137"><g fill="#34aa2f"><path d="M 6.04 28.86 C 6.97 22.91 14.80 20.07 19.63 23.37 C 21.97 24.70 23.20 27.18 23.85 29.69 C 24.20 33.73 21.08 37.30 17.32 38.35 C 14.75 39.29 12.10 38.27 9.62 37.57 L 9.42 37.51 C 7.66 34.95 5.06 32.30 6.04 28.86 Z"/><path d="M 37.24 26.39 C 41.21 26.76 45.43 25.96 49.26 26.77 C 49.31 30.57 49.31 34.33 49.23 38.14 C 47.67 44.40 44.44 50.77 39.08 54.52 C 38.12 53.93 37.18 53.31 36.25 52.66 C 34.92 51.71 33.48 50.94 32.10 50.09 C 34.62 45.79 36.93 41.10 36.89 36.00 C 37.15 32.81 36.47 29.51 37.24 26.39 Z"/><path d="M 76.44 51.61 C 81.51 44.98 91.49 43.66 98.72 47.27 C 102.56 49.03 104.67 52.79 106.82 56.20 C 112.26 42.28 134.81 41.55 141.24 55.03 C 143.24 59.04 143.50 63.63 143.45 68.04 C 143.40 80.35 143.50 92.66 143.40 104.97 C 138.92 105.06 134.44 104.95 129.95 105.02 C 129.17 105.00 127.61 104.97 126.82 104.95 C 126.75 92.27 126.93 79.58 126.74 66.91 C 126.85 65.55 125.85 64.59 125.32 63.46 C 123.17 58.25 115.12 57.43 111.36 61.39 C 109.30 63.35 108.44 66.27 108.57 69.06 C 108.57 80.89 108.54 92.71 108.59 104.54 L 108.19 104.99 C 103.94 105.04 99.69 104.97 95.45 105.01 C 94.68 104.96 93.14 104.87 92.38 104.83 C 92.50 92.90 92.39 80.97 92.43 69.04 C 92.35 67.54 92.56 65.88 91.70 64.57 C 90.73 64.00 90.27 63.18 90.32 62.11 C 85.72 55.95 75.18 59.51 74.40 66.86 C 73.83 79.50 74.37 92.21 74.13 104.88 C 69.71 105.16 65.29 104.91 60.87 105.01 C 60.03 105.01 58.36 104.99 57.53 104.99 C 57.56 85.35 57.41 65.70 57.61 46.07 C 62.77 46.15 67.94 46.02 73.11 46.14 C 73.06 47.67 73.11 49.20 73.27 50.72 C 73.47 52.53 73.35 54.36 73.32 56.18 C 74.40 54.68 74.99 52.83 76.44 51.61 Z"/><path d="M 310.26 54.34 C 316.51 45.50 330.29 42.22 339.29 48.71 C 342.09 50.57 343.52 53.73 345.71 56.14 C 345.61 52.79 345.60 49.44 345.69 46.09 C 351.07 46.11 356.45 46.07 361.83 46.10 C 361.87 47.69 361.74 49.28 361.93 50.86 C 362.44 69.21 362.07 87.62 362.12 106.00 C 362.32 114.10 357.45 121.88 350.00 125.11 C 339.58 129.65 327.17 129.77 316.71 125.30 C 311.90 122.27 307.04 117.75 306.35 111.87 C 311.29 111.25 316.22 110.52 321.16 109.91 C 322.00 112.30 324.52 113.05 325.97 114.97 C 332.31 118.18 342.68 116.99 345.34 109.68 C 347.19 105.23 344.79 99.76 345.47 94.90 C 342.61 99.19 338.51 103.27 333.14 103.86 C 327.59 105.06 321.89 103.85 316.69 101.84 C 309.87 97.61 305.58 89.81 304.72 81.88 C 303.70 72.50 304.42 62.15 310.26 54.34 M 321.41 73.10 C 321.09 78.60 321.58 85.05 325.96 88.94 C 329.01 92.55 334.70 92.54 338.75 90.74 C 344.08 88.05 345.78 81.53 345.78 75.99 C 345.70 71.78 345.64 66.80 342.34 63.69 L 341.88 63.57 C 342.39 61.94 340.63 61.18 339.65 60.35 C 336.89 58.32 333.24 58.33 330.01 58.93 C 324.11 60.78 321.63 67.44 321.41 73.10 Z"/><path d="M 456.42 51.86 C 464.15 42.57 480.74 43.21 487.76 53.06 C 488.66 54.30 489.50 55.60 490.29 56.93 C 493.51 66.29 491.40 76.36 492.11 86.03 C 492.11 92.30 492.16 98.59 492.08 104.87 C 487.67 105.18 483.24 104.89 478.83 105.02 C 477.65 105.13 476.52 105.04 475.43 104.77 C 475.57 93.84 475.45 82.91 475.49 71.98 C 475.47 69.53 475.62 66.89 474.28 64.71 C 471.28 57.64 460.41 57.19 456.27 63.36 C 454.58 65.51 454.18 68.31 454.15 70.97 C 454.15 82.27 454.20 93.58 454.13 104.88 C 449.72 105.16 445.29 104.91 440.87 105.01 C 440.03 105.01 438.36 104.99 437.53 104.98 C 437.52 85.35 437.50 65.72 437.54 46.09 C 442.73 46.12 447.92 46.03 453.12 46.14 C 453.05 47.67 453.10 49.19 453.26 50.71 C 453.46 52.54 453.35 54.37 453.34 56.20 C 454.37 54.76 455.15 53.13 456.42 51.86 Z"/><path d="M 6.54 46.09 C 11.97 46.11 17.40 46.06 22.83 46.11 C 22.93 47.72 22.60 49.37 23.08 50.94 C 23.25 68.92 23.15 86.90 23.13 104.88 C 18.66 105.16 14.17 104.90 9.70 105.02 C 8.90 105.01 7.32 104.99 6.53 104.98 C 6.52 85.35 6.50 65.72 6.54 46.09 Z"/><path d="M 175.87 46.13 C 181.60 46.07 187.34 46.08 193.07 46.12 C 193.56 47.51 193.85 48.95 194.36 50.34 C 198.44 62.75 201.87 75.40 205.40 87.99 C 205.63 87.58 206.11 86.76 206.34 86.35 C 210.55 73.04 214.17 59.55 218.12 46.16 C 223.89 46.08 229.69 45.97 235.46 46.22 C 234.60 47.47 234.83 49.78 233.45 50.41 C 233.39 51.01 233.28 52.22 233.23 52.83 C 227.51 70.14 221.17 87.24 215.34 104.51 L 214.98 104.93 C 209.51 105.12 204.03 104.92 198.56 105.03 C 197.99 104.96 196.85 104.83 196.29 104.76 C 189.61 85.17 182.64 65.68 175.87 46.13 Z"/><path d="M 247.37 53.33 C 259.58 40.73 283.87 43.13 292.21 59.04 C 295.55 65.40 295.87 72.73 295.67 79.76 C 282.33 80.01 268.97 79.77 255.62 79.88 C 255.37 83.92 256.88 88.18 259.95 90.88 C 265.60 96.09 277.04 94.84 279.98 87.18 C 284.93 87.33 289.87 87.94 294.84 88.01 C 294.74 89.31 294.53 90.61 294.22 91.89 C 291.57 98.29 285.69 103.06 279.08 104.90 C 270.89 107.26 262.04 106.60 254.11 103.68 C 251.99 103.30 250.58 101.31 248.93 100.05 C 242.72 94.51 239.40 86.27 239.22 78.03 C 238.69 69.20 241.00 59.76 247.37 53.33 M 260.30 60.26 C 257.84 61.84 257.11 64.83 255.34 66.93 L 255.61 67.49 L 255.30 67.43 C 255.29 67.95 255.25 68.99 255.24 69.51 C 263.39 69.87 271.61 69.38 279.79 69.65 C 280.27 67.64 279.59 65.43 278.35 63.81 C 275.28 57.20 265.72 55.78 260.30 60.26 Z"/><path d="M 389.50 46.63 C 397.68 44.48 406.73 44.91 414.42 48.57 C 418.75 50.63 421.84 54.48 424.07 58.62 C 424.36 60.73 424.74 62.83 424.72 64.97 C 424.76 78.27 424.67 91.58 424.76 104.88 C 420.51 105.17 416.25 104.90 412.00 105.02 C 411.25 104.99 409.74 104.94 408.99 104.92 L 408.79 103.46 C 408.77 101.28 408.80 99.09 408.83 96.91 C 403.24 107.53 388.46 108.46 378.84 103.19 C 372.74 98.94 370.55 90.92 372.26 83.89 C 373.28 78.05 378.53 73.94 383.98 72.38 C 390.98 69.97 398.57 70.57 405.65 68.55 C 408.52 67.73 408.73 64.12 407.34 61.94 C 406.14 58.11 401.63 57.13 398.10 57.56 C 394.01 57.41 390.56 60.34 389.08 63.97 C 385.35 63.92 381.61 63.85 377.93 63.25 C 376.92 63.14 374.89 62.91 373.88 62.80 C 375.24 54.87 381.89 48.66 389.50 46.63 M 390.54 82.67 C 386.67 84.76 386.51 91.24 390.52 93.25 C 393.05 95.38 396.88 95.00 399.93 94.36 C 405.21 93.13 408.94 87.82 408.31 82.43 L 407.83 82.51 C 407.92 81.49 408.10 79.47 408.19 78.46 C 402.42 80.13 395.95 79.78 390.54 82.67 Z"/><path d="M 505.26 97.08 C 504.72 90.76 512.05 85.78 517.78 88.33 C 520.28 89.53 522.80 91.71 523.72 94.30 C 524.33 97.96 523.39 101.99 520.19 104.17 C 517.73 106.54 514.10 106.04 511.03 105.73 L 510.49 105.65 C 507.89 103.47 505.07 100.78 505.26 97.08 Z"/></g><path d="M 23.85 29.69 C 27.52 32.23 27.39 38.18 24.04 40.95 C 20.40 44.45 14.04 44.14 10.80 40.24 C 10.50 39.58 9.92 38.24 9.62 37.57 C 12.10 38.27 14.75 39.29 17.32 38.35 C 21.08 37.30 24.20 33.73 23.85 29.69 Z"/><path d="M 49.23 38.14 C 51.06 36.14 47.72 30.22 52.20 31.73 C 52.10 36.23 52.74 40.87 51.34 45.24 C 49.60 50.45 46.52 55.36 42.09 58.69 C 40.09 56.76 36.32 56.36 35.28 53.90 L 36.25 52.66 C 37.18 53.31 38.12 53.93 39.08 54.52 C 44.44 50.77 47.67 44.40 49.23 38.14 Z"/><path d="M 73.27 50.72 C 74.46 50.62 75.84 50.24 76.44 51.61 C 74.99 52.83 74.40 54.68 73.32 56.18 C 73.35 54.36 73.47 52.53 73.27 50.72 Z"/><path d="M 194.36 50.34 C 194.79 50.47 195.65 50.73 196.09 50.86 C 199.51 61.88 202.73 72.98 206.06 84.03 C 206.13 84.61 206.27 85.77 206.34 86.35 C 206.11 86.76 205.63 87.58 205.40 87.99 C 201.87 75.40 198.44 62.75 194.36 50.34 Z"/><path d="M 453.26 50.71 C 454.60 50.54 455.96 50.24 456.42 51.86 C 455.15 53.13 454.37 54.76 453.34 56.20 C 453.35 54.37 453.46 52.54 453.26 50.71 Z"/><path d="M 23.08 50.94 C 23.76 50.88 25.12 50.77 25.80 50.72 C 25.88 69.75 25.84 88.78 25.82 107.81 C 20.49 107.86 15.15 107.79 9.81 107.85 C 9.78 107.14 9.73 105.73 9.70 105.02 C 14.17 104.90 18.66 105.16 23.13 104.88 C 23.15 86.90 23.25 68.92 23.08 50.94 Z"/><path d="M 233.23 52.83 C 233.65 52.03 234.03 51.22 234.37 50.38 C 235.37 50.47 237.38 50.65 238.39 50.74 C 231.61 69.77 224.68 88.75 217.87 107.78 C 211.69 107.83 205.51 107.93 199.34 107.72 C 199.15 107.05 198.75 105.70 198.56 105.03 C 204.03 104.92 209.51 105.12 214.98 104.93 L 215.34 104.51 C 221.17 87.24 227.51 70.14 233.23 52.83 Z"/><path d="M 361.93 50.86 C 362.65 50.84 364.09 50.79 364.81 50.76 C 364.86 70.19 364.85 89.61 364.82 109.04 C 364.86 114.66 362.44 120.29 358.04 123.85 C 351.89 128.84 343.69 130.39 335.96 130.38 C 329.30 130.33 322.22 129.31 316.71 125.30 C 327.17 129.77 339.58 129.65 350.00 125.11 C 357.45 121.88 362.32 114.10 362.12 106.00 C 362.07 87.62 362.44 69.21 361.93 50.86 Z"/><path d="M 141.24 55.03 C 144.56 58.91 146.15 63.97 146.13 69.04 C 146.12 81.96 146.20 94.88 146.09 107.80 C 140.68 107.85 135.27 107.84 129.85 107.81 C 129.88 107.11 129.93 105.72 129.95 105.02 C 134.44 104.95 138.92 105.06 143.40 104.97 C 143.50 92.66 143.40 80.35 143.45 68.04 C 143.50 63.63 143.24 59.04 141.24 55.03 Z"/><path d="M 490.29 56.93 C 493.61 60.79 494.77 66.05 494.81 71.03 C 494.81 83.29 494.83 95.55 494.79 107.81 C 489.44 107.87 484.09 107.77 478.75 107.86 C 478.77 107.15 478.81 105.73 478.83 105.02 C 483.24 104.89 487.67 105.18 492.08 104.87 C 492.16 98.59 492.11 92.30 492.11 86.03 C 491.40 76.36 493.51 66.29 490.29 56.93 Z"/><path d="M 260.30 60.26 C 265.72 55.78 275.28 57.20 278.35 63.81 C 272.67 60.02 263.86 61.24 260.34 67.37 C 259.57 69.17 256.26 69.75 255.61 67.49 L 255.34 66.93 C 257.11 64.83 257.84 61.84 260.30 60.26 Z"/><path d="M 389.08 63.97 C 390.56 60.34 394.01 57.41 398.10 57.56 C 401.63 57.13 406.14 58.11 407.34 61.94 C 401.59 60.51 394.02 61.59 391.88 67.99 C 386.93 67.70 381.99 67.33 377.06 66.88 C 377.15 65.63 377.44 64.42 377.93 63.25 C 381.61 63.85 385.35 63.92 389.08 63.97 Z"/><path d="M 74.40 66.86 C 75.18 59.51 85.72 55.95 90.32 62.11 L 90.42 63.24 C 87.56 63.53 84.12 62.36 81.56 64.30 C 78.60 66.11 76.89 69.50 76.86 72.94 C 76.81 84.56 76.86 96.18 76.83 107.80 C 71.43 107.88 66.02 107.77 60.61 107.86 C 60.68 107.15 60.80 105.72 60.87 105.01 C 65.29 104.91 69.71 105.16 74.13 104.88 C 74.37 92.21 73.83 79.50 74.40 66.86 Z"/><path d="M 111.36 61.39 C 115.12 57.43 123.17 58.25 125.32 63.46 C 123.58 63.78 121.83 62.80 120.03 63.16 C 115.14 62.65 111.32 67.44 111.30 72.02 C 111.19 83.95 111.36 95.89 111.22 107.82 C 105.94 107.77 100.65 107.96 95.38 107.72 C 95.39 107.05 95.43 105.69 95.45 105.01 C 99.69 104.97 103.94 105.04 108.19 104.99 L 108.59 104.54 C 108.54 92.71 108.57 80.89 108.57 69.06 C 108.44 66.27 109.30 63.35 111.36 61.39 Z"/><path d="M 292.21 59.04 C 297.71 65.62 298.72 74.54 298.43 82.80 C 285.18 83.00 271.92 82.85 258.68 82.87 C 257.81 85.60 258.92 88.38 259.95 90.88 C 256.88 88.18 255.37 83.92 255.62 79.88 C 268.97 79.77 282.33 80.01 295.67 79.76 C 295.87 72.73 295.55 65.40 292.21 59.04 Z"/><path d="M 321.41 73.10 C 321.63 67.44 324.11 60.78 330.01 58.93 C 333.24 58.33 336.89 58.32 339.65 60.35 C 340.63 61.18 342.39 61.94 341.88 63.57 C 337.14 61.60 330.87 62.16 327.64 66.53 C 323.07 72.94 323.10 81.83 325.96 88.94 C 321.58 85.05 321.09 78.60 321.41 73.10 Z"/><path d="M 424.07 58.62 C 426.70 61.33 427.39 65.37 427.49 69.02 C 427.55 81.78 427.42 94.54 427.55 107.30 L 427.16 107.85 C 422.13 107.79 417.09 107.86 412.05 107.81 C 412.04 107.12 412.01 105.72 412.00 105.02 C 416.25 104.90 420.51 105.17 424.76 104.88 C 424.67 91.58 424.76 78.27 424.72 64.97 C 424.74 62.83 424.36 60.73 424.07 58.62 Z"/><path d="M 456.27 63.36 C 460.41 57.19 471.28 57.64 474.28 64.71 C 469.77 62.18 463.23 62.48 459.64 66.51 C 457.58 68.80 456.83 71.97 456.84 74.98 C 456.83 85.92 456.86 96.87 456.83 107.81 C 451.42 107.88 446.02 107.77 440.62 107.86 C 440.68 107.15 440.80 105.73 440.87 105.01 C 445.29 104.91 449.72 105.16 454.13 104.88 C 454.20 93.58 454.15 82.27 454.15 70.97 C 454.18 68.31 454.58 65.51 456.27 63.36 Z"/><path d="M 390.54 82.67 C 395.95 79.78 402.42 80.13 408.19 78.46 C 408.10 79.47 407.92 81.49 407.83 82.51 C 404.30 83.69 400.54 83.39 397.01 84.53 C 392.88 85.09 389.29 88.87 390.52 93.25 C 386.51 91.24 386.67 84.76 390.54 82.67 Z"/><path d="M 294.22 91.89 L 294.73 91.29 C 295.51 91.30 297.08 91.33 297.86 91.35 C 296.92 98.54 290.97 104.21 284.43 106.77 C 278.93 109.10 272.84 108.97 266.98 108.73 C 262.49 108.42 258.16 106.84 254.28 104.61 L 254.11 103.68 C 262.04 106.60 270.89 107.26 279.08 104.90 C 285.69 103.06 291.57 98.29 294.22 91.89 Z"/><path d="M 345.47 94.90 C 344.79 99.76 347.19 105.23 345.34 109.68 C 344.99 107.12 345.10 104.42 345.34 101.84 C 339.18 107.93 329.47 108.16 321.77 105.25 C 320.03 104.26 317.59 103.78 316.69 101.84 C 321.89 103.85 327.59 105.06 333.14 103.86 C 338.51 103.27 342.61 99.19 345.47 94.90 Z"/><path d="M 523.72 94.30 C 526.24 94.57 526.71 98.62 526.59 100.86 C 526.25 108.18 515.00 111.88 511.03 105.73 C 514.10 106.04 517.73 106.54 520.19 104.17 C 523.39 101.99 524.33 97.96 523.72 94.30 Z"/><path d="M 378.84 103.19 C 388.46 108.46 403.24 107.53 408.83 96.91 C 408.80 99.09 408.77 101.28 408.79 103.46 C 403.66 109.30 395.13 109.48 388.02 108.32 C 384.64 107.36 381.18 105.91 378.84 103.19 Z"/></svg>