<svg height="100pt" viewBox="0 0 100 100" width="100pt" xmlns="http://www.w3.org/2000/svg"><g fill="#fcfbfa"><path d="m16.49 3.54c1.82-2.57 6.26-1.65 7.45 1.11.77.03 2.3.09 3.06.12 5.14 2.3 8.76 6.79 13.45 9.75 1.1.72 1.75 1.92 2.62 2.87 1.4.44 1.97-1.4 3.06-1.91 1.72-.57 3.52.01 5.25.19.44 2.96.01 6.1 1.3 8.89 1.01 2.02 2.23 3.93 3.24 5.95.43.77 1 1.4 1.7 1.9 3.6 1.63 7.62.53 11.42.9 7.65.6 15.33.25 23 .33 1.56-.02 3.05.51 4.53.95.33 6.98-.26 13.98.33 20.95-.91.46-1.84.99-2.9.94-6.19.11-12.38-.11-18.57.08 2.19 1.17 4.55 2.01 6.69 3.27.47.37 1.4 1.11 1.86 1.48 1.84.39 3.68.78 5.48 1.34 1.64 2.66.4 5.52-1.29 7.79-1.08.03-2.15.06-3.22.09-1.19.97-2.53 1.72-3.91 2.38-3.58 5.84-5.31 13.94-12.11 16.93-3.2 4.45-7.92 7.63-13.12 9.24-2.05.6-4.13.03-6.04-.71-.29-2.81-.57-5.63-1.39-8.35-4.12.98-8.31 1.7-12.36 2.98-4.12 1.28-8.01-1.61-9.9-5.07-2.6-2.46-6.04-5.01-5.81-9.01.14-4.63-.86-10.13 2.43-13.91-.14-1.25-.47-2.45-.86-3.64-.09-.49-.27-1.49-.36-1.99-.19-1.01-.53-1.98-1.01-2.9-5.96.36-11.93.12-17.89-.15-.37-7.57-.31-15.16-.04-22.73 3.36-.14 6.73-.23 10.1-.26.12-.68.36-2.04.48-2.72 2.12-5.75.67-11.88 2.07-17.76-.49-3.15-.21-6.46 1.26-9.32m1 4.51c-1.68 2.51 1.5 5.44-.88 7.86.08.4.23 1.19.3 1.58-1.77 2.58-.23 5.66-.83 8.49-.41 2.04-.73 4.1-.66 6.2 2.72.94 5.56 1.47 8.45 1.33 2.13-1.97 4.79-.75 7.16-.1 7.94-.18 15.89.04 23.83-.01-.62-1.57-1.31-3.11-2.06-4.63l-.25-.03c-1.43-2.26-2.92-4.63-2.97-7.4.01-1.34-.02-2.68-.05-4.01-.5.05-1.52.14-2.03.19-1.42 1.45-3.13 2.54-5.15 2.9-1.28-4.05-5.31-5.67-8.23-8.3l-.61.11c-.32-1.49-1.23-2.38-2.73-2.66-1.67-2.15-4.28-2.76-6.89-2.33-1.24-1.06-2.42-2.18-3.64-3.25-2.42-.26-2.99 2.12-2.76 4.06m-12.43 28.02c.07 5.95.06 11.91.01 17.86 29.48-.12 58.97.04 88.45-.07.34-.33 1.01-.99 1.34-1.33.07-5.01.07-10.04 0-15.05-.33-.34-1-1.01-1.33-1.35-29.49-.1-58.98.04-88.47-.06m18.23 22.13c.37 1.12-.35 3.53 1.28 3.69.13.8.4 2.39.54 3.19-2.12.03-2.69 3.14-3.19 4.87-.31 4.09-1.48 8.86 1.29 12.36 1.67 1.85 4.1 3.02 5.17 5.38 1.24 2.3 3.94 4.35 6.68 3.51 1.86-.61 4.26-.36 5.78-1.63 4.54-.06 9.17-1.69 12.04-5.35.49 1.98-.33 3.52-2.12 4.31-.15 2.97.61 5.97 1.62 8.75 1.67-.07 3.35-.2 4.97-.61 2.12-1 4.17-2.14 6.17-3.37l.07-.32c1.47-1.68 2.84-3.43 4.27-5.13 4.36-.92 6.06-5.85 7.98-9.35l.17-.01c1.44-2.69 2.91-5.37 4.62-7.89.51-.12 1.52-.34 2.03-.46 1.18-1.37 2.67-2.45 4.58-1.79.5-1.14.92-2.32 1.26-3.52-1.7-1.18-3.78-1.25-5.76-1.44-.82-.92-1.63-1.84-2.44-2.76-.6-.03-1.79-.09-2.39-.12-1.23-.71-2.47-1.4-3.79-1.92-2.44-.78-5.55-1.26-7.44.92-4.18-2.52-8.99-2.11-13.68-2.45-1.23-.09-1.84.55-1.83 1.93-.62-2.33-2.96-1.48-4.56-.92-3.87-.5-8.6-1.79-11.97.31-.22-.4-.65-1.2-.86-1.6l-.12 1c-3.44-1.79-6.83 1.39-10.37.42z"/><path d="m13.24 39.19c.35.09 1.05.26 1.41.35 2.25 2.55 3.86 5.61 5.77 8.41-.08-2.85-.08-5.7-.05-8.55l1.56.02c-.04 3.86.2 7.73-.2 11.58-3.5-1.44-4.37-5.95-6.95-8.5-.02 2.73-.02 5.46-.07 8.18-.37.01-1.12.02-1.49.03-.1-3.84-.12-7.68.02-11.52z"/><path d="m24.17 42.98c-.38-4.83 7.67-4.89 8.39-.43-2.16 1.19-2.49-2.2-4.61-1.77-1.35.08-2.13.81-2.34 2.2 2.49 1.14 7.1 1.14 7.02 4.81-1.06 4.55-8.93 3.72-8.98-1.05 2.08-.35 2.32 2.63 4.28 2.47 1.46.4 3.12-.46 3.23-2.05-1.87-2.12-5.89-1.19-6.99-4.18z"/><path d="m34.48 39.21c2.61-.01 1.32 3.19 1.62 4.81 1.83-.01 3.65-.02 5.48-.03 0-1.53 0-3.05 0-4.58h1.71c.02 3.74.02 7.49 0 11.23l-1.71.02c0-1.73.01-3.46.01-5.18-1.83.01-3.67.01-5.5 0-.36 1.7 1.13 5.42-1.63 5.31-.04-3.86-.06-7.72.02-11.58z"/><path d="m48.55 39.36c.44.03 1.3.09 1.73.12 1.47 3.76 3.07 7.47 4.53 11.24-2.28.62-2.55-1.83-3.12-3.37-1.49-.01-2.98-.02-4.47-.03-.65 1.44-.8 3.98-3.01 3.39 1.4-3.8 2.88-7.57 4.34-11.35m-.87 6.64h3.43c-.61-1.66-1.18-3.34-1.72-5.03-.52 1.7-1.1 3.37-1.71 5.03z"/><path d="m64.21 39.38c.38-.01 1.16-.01 1.54-.01.08 3.25.06 6.5.06 9.75 1.92.37 4.74-.99 5.87 1.2 1.26-3.61 2.53-7.23 4.11-10.71l1.52-.44c1.61 3.85 3.32 7.65 4.67 11.6-2.24.45-2.43-1.98-3.16-3.45-1.48.01-2.97.02-4.45.03-.36 1.1-.73 2.2-1.1 3.3-3.03-.2-6.06.1-9.09-.01-.02-3.75-.05-7.51.03-11.26m12.44 1.57c-.54 1.69-1.11 3.38-1.7 5.05h3.41c-.62-1.67-1.2-3.35-1.71-5.05z"/><path d="m83.22 39.4c.36-.02 1.06-.07 1.42-.09.02 1.56.02 3.13.04 4.7h5.43c.04-1.6.07-3.21.14-4.81.36.08 1.08.23 1.44.31.23 3.71.06 7.44.06 11.16-.39.01-1.16.02-1.55.03-.04-1.73-.05-3.47-.07-5.2-1.82 0-3.65-.01-5.47-.01 0 1.75-.01 3.51-.02 5.26-.35-.02-1.06-.06-1.41-.08-.34-3.74-.32-7.53-.01-11.27z"/><path d="m55.61 39.4 1.71.02c.01 3.22.03 6.44-.03 9.66 1.82.04 3.65.08 5.47.11-.01.36-.03 1.07-.03 1.43-2.38.03-4.76.04-7.14.01 0-3.74-.01-7.48.02-11.23z"/></g><path d="m17.49 8.05c-.23-1.94.34-4.32 2.76-4.06.87 3.48 3.67 6.02 6.23 8.35 1.32.77 2.69 1.46 4.05 2.17.53 2.07 1.02 4.15 1.49 6.24 4.16 1.93 5.86 6.3 8.45 9.75 1.6 1.56 3.73.22 5.44-.39 1.27.57 2.51 1.19 3.75 1.81-.18-1.19-.36-2.39-.54-3.59 1.14.14 2.29.28 3.43.41l.25.03c.75 1.52 1.44 3.06 2.06 4.63-7.94.05-15.89-.17-23.83.01-2.37-.65-5.03-1.87-7.16.1-2.89.14-5.73-.39-8.45-1.33-.07-2.1.25-4.16.66-6.2.6-2.83-.94-5.91.83-8.49.36 1.71.6 3.43.86 5.16 1.4-.49 2.81-.95 4.21-1.43 2.58 3.69 4.07 9.26 9.18 10.08-1.2-5.43-7.67-9.1-6.35-15.07 1.53 1.62 3.01 3.3 4.52 4.94.09 1.35.19 2.7.27 4.05 2.27 2.58 4.96 4.73 7.7 6.8-1.69-3.16-1.38-7.59-4.63-9.73-4.17-2.93-6.64-7.49-9.97-11.24-1.01 1.37-1.94 2.83-2.27 4.53-1.29-2.38-2.13-4.96-2.94-7.53m2.52 14.82c-.21 2.7-.57 5.43-1.81 7.88 1.66-.17 3.31-.27 4.98-.28-.99-2.56-2.06-5.09-3.17-7.6z" fill="#e6ca9d"/><path d="m47.5 17.52c.51-.05 1.53-.14 2.03-.19.03 1.33.06 2.67.05 4.01-.29.03-.88.09-1.17.11.07.56.21 1.69.28 2.25-2.13-1.07-4.33-2.01-6.34-3.28 2.02-.36 3.73-1.45 5.15-2.9z" fill="#e6ca9d"/><path d="m9.13 39.07c.43.08 1.28.23 1.71.3.31 3.75.26 7.56.02 11.31-.43.08-1.29.25-1.72.34-.24-3.98-.23-7.97-.01-11.95z" fill="#e6ca9d"/><path d="m23.29 58.2c3.54.97 6.93-2.21 10.37-.42-.09.53-.27 1.57-.36 2.09-2.88.81-5.79 1.48-8.73 2.02-1.63-.16-.91-2.57-1.28-3.69z" fill="#e6ca9d"/><path d="m34.64 58.38c3.37-2.1 8.1-.81 11.97-.31 1.6-.56 3.94-1.41 4.56.92-.02.44-.05 1.32-.07 1.76.43.53 1.29 1.6 1.72 2.13-1.2 1.39-2 3.39-3.86 4.02-1.57.23-2.55-1.27-3.69-2.06.51-1.26.98-2.53 1.47-3.8-3.63-.68-7.31-1.11-11-1.22-.28-.36-.83-1.08-1.1-1.44z" fill="#e6ca9d"/><path d="m52.05 57.79c1.3.03 2.6.05 3.9.07l-.72 1.3c2.5.06 4.72 1.19 6.79 2.51-1.03 2.37-4.1 3.31-4.01 6.25-1.29 1.43-2.45 2.97-3.45 4.62-1.26-1.82-1.77-4.37-.61-6.35 1-.69 2.03-1.33 3.09-1.92-1.34-1.4-2.75-2.73-4.16-4.06-.21-.6-.62-1.82-.83-2.42z" fill="#e6ca9d"/><g fill="#717d83"><path d="m26.48 12.34c-2.56-2.33-5.36-4.87-6.23-8.35 1.22 1.07 2.4 2.19 3.64 3.25.88.74 1.78 1.47 2.68 2.19-.03.97-.06 1.94-.09 2.91z"/><path d="m22.7 11.05c3.33 3.75 5.8 8.31 9.97 11.24 3.25 2.14 2.94 6.57 4.63 9.73-2.74-2.07-5.43-4.22-7.7-6.8-.08-1.35-.18-2.7-.27-4.05-1.51-1.64-2.99-3.32-4.52-4.94-1.19-1.14-2.88-1.75-4.38-.65.33-1.7 1.26-3.16 2.27-4.53z"/><path d="m48.41 21.45c.29-.02.88-.08 1.17-.11.05 2.77 1.54 5.14 2.97 7.4-1.14-.13-2.29-.27-3.43-.41.18 1.2.36 2.4.54 3.59-1.24-.62-2.48-1.24-3.75-1.81-.31-1.53-.61-3.06-.91-4.59 1.16.41 2.32.81 3.47 1.23.08-1.02.19-2.03.22-3.05-.07-.56-.21-1.69-.28-2.25z"/><path d="m20.01 22.87c1.11 2.51 2.18 5.04 3.17 7.6-1.67.01-3.32.11-4.98.28 1.24-2.45 1.6-5.18 1.81-7.88z"/><path d="m51.17 58.99c-.01-1.38.6-2.02 1.83-1.93 4.69.34 9.5-.07 13.68 2.45-3.01 2.68-5.73 5.65-8.67 8.41-.09-2.94 2.98-3.88 4.01-6.25-2.07-1.32-4.29-2.45-6.79-2.51l.72-1.3c-1.3-.02-2.6-.04-3.9-.07.21.6.62 1.82.83 2.42.29 1.23.56 2.47.83 3.7-.22-.26-.67-.77-.89-1.03-.43-.53-1.29-1.6-1.72-2.13.02-.44.05-1.32.07-1.76z"/><path d="m71.87 58.87c.57-.07 1.69-.21 2.25-.28 1.32.52 2.56 1.21 3.79 1.92.6.03 1.79.09 2.39.12.81.92 1.62 1.84 2.44 2.76 1.98.19 4.06.26 5.76 1.44-.34 1.2-.76 2.38-1.26 3.52-1.91-.66-3.4.42-4.58 1.79-.51.12-1.52.34-2.03.46-1.71 2.52-3.18 5.2-4.62 7.89l-.17.01c-1.04.09-2.07.17-3.1.26-.12-.46-.36-1.38-.48-1.84-.88-.17-1.76-.33-2.64-.5.68-2.73.9-5.56.13-8.29-.91-3.26 1.27-6.24 2.12-9.26m-.59 6.91c2.76.29 4.27-2.19 4.48-4.62-2.25.77-5.1 1.61-4.48 4.62z"/><path d="m31.24 63.7c.6-.89 1.2-1.78 1.77-2.69-.1.48-.3 1.43-.4 1.91 1.5 1.66 3.32 2.97 5.2 4.16.35 3.58.81 7.26 3.13 10.18-1.58 2.78-4.47 3.89-7.53 4.11-1.22-.77-2.43-1.54-3.63-2.32-.08-.6-.23-1.79-.3-2.38 1.45-.48 2.89-.96 4.34-1.45-1.32-1.69-2.67-3.34-4.01-5.01l-.32-.74c.4-.05 1.19-.15 1.59-.2 1.86.87 3.85 1.37 5.88 1.72.01-1.23.01-2.46.01-3.68-2.36-.38-4-2.15-5.73-3.61z"/><path d="m54.56 72.54c1-1.65 2.16-3.19 3.45-4.62-1.12 2.45-2.11 4.98-2.74 7.6-.1 2.47 1.06 4.76 2.73 6.51 3.09 1.97 6.97 1.09 10.32.4-.2.7-.43 1.39-.69 2.07-2.02-1.5-2.74 1.08-3.82 2.31-1.89 2.92-5.22 4.29-8.1 6-1.32-1.77-3.1-3.11-4.95-4.28 1.79-.79 2.61-2.33 2.12-4.31-2.87 3.66-7.5 5.29-12.04 5.35.62-.83 1.24-1.66 1.84-2.5-.91-1.32-1.85-2.62-2.74-3.94-1.04 1.8-2.24 3.51-3.67 5.02-.19-.8-.57-2.41-.77-3.22 1.5-1.84 3.33-3.4 5.57-4.23 1 1.63 1.99 3.27 2.98 4.91 3.79-2.54 6.81-6.26 8.05-10.7-.82-.18-1.65-.36-2.47-.54-.23 1.82-.6 3.63-1.52 5.24-.25-1.65-.47-3.31-.66-4.97-.36 1.58-.73 3.17-1.11 4.76-1.01.18-2.01.38-3.01.59.05-1.91.08-3.81.08-5.71.96-1.44 1.77-2.96 2.61-4.46.99.5 1.98 1 2.95 1.53 1.47 1.07 2.94 2.14 4.42 3.2.38-.68.77-1.35 1.17-2.01m-1.57 2.67c-1.43 3.09 3.26.04 0 0z"/><path d="m29.58 86.08c1.38-.38 1.86.14 1.44 1.56-1.38.37-1.86-.15-1.44-1.56z"/></g><path d="m23.89 7.24c2.61-.43 5.22.18 6.89 2.33-1.37 1.94.91 3.6 2.73 2.66l.61-.11c2.92 2.63 6.95 4.25 8.23 8.3 2.01 1.27 4.21 2.21 6.34 3.28-.03 1.02-.14 2.03-.22 3.05-1.15-.42-2.31-.82-3.47-1.23.3 1.53.6 3.06.91 4.59-1.71.61-3.84 1.95-5.44.39-2.59-3.45-4.29-7.82-8.45-9.75-.47-2.09-.96-4.17-1.49-6.24-1.36-.71-2.73-1.4-4.05-2.17.03-.97.06-1.94.09-2.91-.9-.72-1.8-1.45-2.68-2.19z" fill="#d0ab7c"/><path d="m17.49 8.05c.81 2.57 1.65 5.15 2.94 7.53 1.5-1.1 3.19-.49 4.38.65-1.32 5.97 5.15 9.64 6.35 15.07-5.11-.82-6.6-6.39-9.18-10.08-1.4.48-2.81.94-4.21 1.43-.26-1.73-.5-3.45-.86-5.16-.07-.39-.22-1.18-.3-1.58 2.38-2.42-.8-5.35.88-7.86z" fill="#d0ab7c"/><path d="m24.57 61.89c2.94-.54 5.85-1.21 8.73-2.02l-.29 1.14c-.57.91-1.17 1.8-1.77 2.69 1.73 1.46 3.37 3.23 5.73 3.61 0 1.22 0 2.45-.01 3.68-2.03-.35-4.02-.85-5.88-1.72-.81-.84-1.62-1.69-2.44-2.52-1.12-.67-2.31-1.21-3.53-1.67-.14-.8-.41-2.39-.54-3.19z" fill="#d0ab7c"/><path d="m35.74 59.82c3.69.11 7.37.54 11 1.22-.49 1.27-.96 2.54-1.47 3.8 1.14.79 2.12 2.29 3.69 2.06 1.86-.63 2.66-2.63 3.86-4.02.22.26.67.77.89 1.03-.27-1.23-.54-2.47-.83-3.7 1.41 1.33 2.82 2.66 4.16 4.06-1.06.59-2.09 1.23-3.09 1.92-1.16 1.98-.65 4.53.61 6.35-.4.66-.79 1.33-1.17 2.01-1.48-1.06-2.95-2.13-4.42-3.2-.38-.4-1.14-1.2-1.52-1.6.63-.2 1.9-.6 2.54-.81-6.1-.21-10.85-4.43-14.25-9.12z" fill="#d0ab7c"/><path d="m33.51 12.23c-1.82.94-4.1-.72-2.73-2.66 1.5.28 2.41 1.17 2.73 2.66z" fill="#94a8b2"/><path d="m65.37 63.89c1.33-2.53 3.54-4.67 6.5-5.02-.85 3.02-3.03 6-2.12 9.26.77 2.73.55 5.56-.13 8.29l-.15.74c-1.15-4.48-2.08-9.07-4.1-13.27z" fill="#94a8b2"/><path d="m60.46 69.71c1.98.22 3.95.54 5.9.93.78 2.09 1.42 4.24 1.67 6.47-2.75-2.23-4.87-5.11-7.57-7.4z" fill="#94a8b2"/><path d="m29.48 76.67c-.38-2.17-.99-4.46.33-6.46 1.34 1.67 2.69 3.32 4.01 5.01-1.45.49-2.89.97-4.34 1.45z" fill="#94a8b2"/><path d="m40.94 77.26c.83-.99 1.65-1.99 2.47-2.98 0 1.9-.03 3.8-.08 5.71-.56.18-1.69.53-2.26.71-2.24.83-4.07 2.39-5.57 4.23.2.81.58 2.42.77 3.22 1.43-1.51 2.63-3.22 3.67-5.02.89 1.32 1.83 2.62 2.74 3.94-.6.84-1.22 1.67-1.84 2.5-1.52 1.27-3.92 1.02-5.78 1.63-2.74.84-5.44-1.21-6.68-3.51-1.07-2.36-3.5-3.53-5.17-5.38.47-2.01.99-4.04 2.21-5.75.01 1.67.02 3.35.02 5.03l.99.1c.21-1.36.41-2.73.63-4.08.56 1.37 1.09 2.76 1.64 4.14 1.57-.11 3.14-.2 4.71-.38 3.06-.22 5.95-1.33 7.53-4.11m-11.36 8.82c-.42 1.41.06 1.93 1.44 1.56.42-1.42-.06-1.94-1.44-1.56z" fill="#94a8b2"/><path d="m55.27 75.52c2.05 1.25 3.9 2.85 6.07 3.9 1.75.31 3.53.24 5.3.29.57.9 1.13 1.81 1.68 2.72-3.35.69-7.23 1.57-10.32-.4-1.67-1.75-2.83-4.04-2.73-6.51z" fill="#94a8b2"/><path d="m63.81 86.81c1.08-1.23 1.8-3.81 3.82-2.31-.97 3.01-3.41 5.35-4.04 8.48l-.07.32c-2 1.23-4.05 2.37-6.17 3.37-1.19-.16-3.58-.5-4.78-.66 1.1-.36 3.28-1.06 4.37-1.41-.4-.6-.81-1.2-1.23-1.79 2.88-1.71 6.21-3.08 8.1-6z" fill="#94a8b2"/><path d="m5.06 36.07c29.49.1 58.98-.04 88.47.06.33.34 1 1.01 1.33 1.35.07 5.01.07 10.04 0 15.05-.33.34-1 1-1.34 1.33-29.48.11-58.97-.05-88.45.07.05-5.95.06-11.91-.01-17.86m4.07 3c-.22 3.98-.23 7.97.01 11.95.43-.09 1.29-.26 1.72-.34.24-3.75.29-7.56-.02-11.31-.43-.07-1.28-.22-1.71-.3m4.11.12c-.14 3.84-.12 7.68-.02 11.52.37-.01 1.12-.02 1.49-.03.05-2.72.05-5.45.07-8.18 2.58 2.55 3.45 7.06 6.95 8.5.4-3.85.16-7.72.2-11.58l-1.56-.02c-.03 2.85-.03 5.7.05 8.55-1.91-2.8-3.52-5.86-5.77-8.41-.36-.09-1.06-.26-1.41-.35m10.93 3.79c1.1 2.99 5.12 2.06 6.99 4.18-.11 1.59-1.77 2.45-3.23 2.05-1.96.16-2.2-2.82-4.28-2.47.05 4.77 7.92 5.6 8.98 1.05.08-3.67-4.53-3.67-7.02-4.81.21-1.39.99-2.12 2.34-2.2 2.12-.43 2.45 2.96 4.61 1.77-.72-4.46-8.77-4.4-8.39.43m10.31-3.77c-.08 3.86-.06 7.72-.02 11.58 2.76.11 1.27-3.61 1.63-5.31 1.83.01 3.67.01 5.5 0 0 1.72-.01 3.45-.01 5.18l1.71-.02c.02-3.74.02-7.49 0-11.23h-1.71v4.58c-1.83.01-3.65.02-5.48.03-.3-1.62.99-4.82-1.62-4.81m14.07.15c-1.46 3.78-2.94 7.55-4.34 11.35 2.21.59 2.36-1.95 3.01-3.39 1.49.01 2.98.02 4.47.03.57 1.54.84 3.99 3.12 3.37-1.46-3.77-3.06-7.48-4.53-11.24-.43-.03-1.29-.09-1.73-.12m15.66.02c-.08 3.75-.05 7.51-.03 11.26 3.03.11 6.06-.19 9.09.01.37-1.1.74-2.2 1.1-3.3 1.48-.01 2.97-.02 4.45-.03.73 1.47.92 3.9 3.16 3.45-1.35-3.95-3.06-7.75-4.67-11.6l-1.52.44c-1.58 3.48-2.85 7.1-4.11 10.71-1.13-2.19-3.95-.83-5.87-1.2 0-3.25.02-6.5-.06-9.75-.38 0-1.16 0-1.54.01m19.01.02c-.31 3.74-.33 7.53.01 11.27.35.02 1.06.06 1.41.08.01-1.75.02-3.51.02-5.26 1.82 0 3.65.01 5.47.01.02 1.73.03 3.47.07 5.2.39-.01 1.16-.02 1.55-.03 0-3.72.17-7.45-.06-11.16-.36-.08-1.08-.23-1.44-.31-.07 1.6-.1 3.21-.14 4.81-1.81 0-3.62 0-5.43 0-.02-1.57-.02-3.14-.04-4.7-.36.02-1.06.07-1.42.09m-27.61 0c-.03 3.75-.02 7.49-.02 11.23 2.38.03 4.76.02 7.14-.01 0-.36.02-1.07.03-1.43-1.82-.03-3.65-.07-5.47-.11.06-3.22.04-6.44.03-9.66z" fill="#dc2506"/><path d="m76.65 40.95c.51 1.7 1.09 3.38 1.71 5.05-.86 0-2.56 0-3.41 0 .59-1.67 1.16-3.36 1.7-5.05z" fill="#dc2506"/><path d="m47.68 46c.61-1.66 1.19-3.33 1.71-5.03.54 1.69 1.11 3.37 1.72 5.03-.86 0-2.57 0-3.43 0z" fill="#dc2506"/><path d="m33.78 56.78c.21.4.64 1.2.86 1.6.27.36.82 1.08 1.1 1.44 3.4 4.69 8.15 8.91 14.25 9.12-.64.21-1.91.61-2.54.81l1.52 1.6c-.97-.53-1.96-1.03-2.95-1.53-.84 1.5-1.65 3.02-2.61 4.46-.82.99-1.64 1.99-2.47 2.98-2.32-2.92-2.78-6.6-3.13-10.18-1.88-1.19-3.7-2.5-5.2-4.16.1-.48.3-1.43.4-1.91l.29-1.14c.09-.52.27-1.56.36-2.09z" fill="#3f3c39"/><path d="m71.28 65.78c-.62-3.01 2.23-3.85 4.48-4.62-.21 2.43-1.72 4.91-4.48 4.62z" fill="#3f3c39"/><path d="m26.65 70.76c.65-1.34 1.32-2.68 1.99-4.01.82.83 1.63 1.68 2.44 2.52-.4.05-1.19.15-1.59.2l.32.74c-1.32 2-.71 4.29-.33 6.46.07.59.22 1.78.3 2.38 1.2.78 2.41 1.55 3.63 2.32-1.57.18-3.14.27-4.71.38-.55-1.38-1.08-2.77-1.64-4.14-.22 1.35-.42 2.72-.63 4.08l-.99-.1c0-1.68-.01-3.36-.02-5.03 1.27-1.68 1.27-3.8 1.23-5.8z" fill="#3f3c39"/><path d="m49.63 74.37c.82.18 1.65.36 2.47.54-1.24 4.44-4.26 8.16-8.05 10.7-.99-1.64-1.98-3.28-2.98-4.91.57-.18 1.7-.53 2.26-.71 1-.21 2-.41 3.01-.59.38-1.59.75-3.18 1.11-4.76.19 1.66.41 3.32.66 4.97.92-1.61 1.29-3.42 1.52-5.24z" fill="#3f3c39"/><path d="m52.99 75.21c3.26.04-1.43 3.09 0 0z" fill="#3f3c39"/><path d="m69.62 76.42c.88.17 1.76.33 2.64.5.12.46.36 1.38.48 1.84 1.03-.09 2.06-.17 3.1-.26-1.92 3.5-3.62 8.43-7.98 9.35-1.43 1.7-2.8 3.45-4.27 5.13.63-3.13 3.07-5.47 4.04-8.48.26-.68.49-1.37.69-2.07.46-1.74.83-3.5 1.15-5.27z" fill="#3f3c39"/><path d="m52.38 97.28c-1.01-2.78-1.77-5.78-1.62-8.75 1.85 1.17 3.63 2.51 4.95 4.28.42.59.83 1.19 1.23 1.79-1.09.35-3.27 1.05-4.37 1.41 1.2.16 3.59.5 4.78.66-1.62.41-3.3.54-4.97.61z" fill="#3f3c39"/><path d="m66.68 59.51c1.89-2.18 5-1.7 7.44-.92-.56.07-1.68.21-2.25.28-2.96.35-5.17 2.49-6.5 5.02 2.02 4.2 2.95 8.79 4.1 13.27-.32 1.77-.69 3.53-1.15 5.27-.55-.91-1.11-1.82-1.68-2.72-1.77-.05-3.55.02-5.3-.29-2.17-1.05-4.02-2.65-6.07-3.9.63-2.62 1.62-5.15 2.74-7.6 2.94-2.76 5.66-5.73 8.67-8.41m-6.22 10.2c2.7 2.29 4.82 5.17 7.57 7.4-.25-2.23-.89-4.38-1.67-6.47-1.95-.39-3.92-.71-5.9-.93z" fill="#b5c4cd"/><path d="m25.11 65.08c1.22.46 2.41 1 3.53 1.67-.67 1.33-1.34 2.67-1.99 4.01.04 2 .04 4.12-1.23 5.8-1.22 1.71-1.74 3.74-2.21 5.75-2.77-3.5-1.6-8.27-1.29-12.36.5-1.73 1.07-4.84 3.19-4.87z" fill="#b5c4cd"/></svg>