<svg xmlns="http://www.w3.org/2000/svg" width="128pt" height="128" viewBox="0 0 128 96"><g fill="#00f0fd"><path d="M 54.76 6.18 C 55.41 4.61 56.05 3.04 56.70 1.47 C 60.58 8.07 60.48 16.41 57.55 23.34 C 57.18 17.54 58.41 11.23 54.76 6.18 Z"/><path d="M 81.61 3.27 C 85.64 10.48 92.15 15.73 98.74 20.48 C 98.09 16.82 97.57 13.11 96.41 9.56 C 97.37 7.37 98.43 5.23 99.54 3.11 C 102.30 8.85 104.83 14.78 106.40 20.97 C 105.25 20.33 104.11 19.68 102.98 19.02 C 103.30 20.93 103.60 22.84 103.92 24.75 C 110.98 30.76 117.85 37.37 121.97 45.81 C 127.76 58.15 125.09 74.41 114.16 83.06 C 117.88 77.40 120.91 70.97 120.64 64.03 C 121.19 51.98 113.60 41.51 104.98 33.87 C 106.57 43.57 107.95 53.29 109.07 63.05 C 109.21 68.71 108.54 74.59 105.78 79.64 C 105.22 62.63 102.48 45.79 99.85 29.00 C 95.65 25.43 91.32 22.00 86.72 18.96 C 87.84 21.94 89.43 24.75 90.20 27.84 C 90.56 33.26 90.70 39.57 86.64 43.77 C 84.48 46.19 80.96 45.70 78.08 45.48 C 72.90 44.03 69.97 39.09 68.27 34.34 C 67.09 38.56 66.17 43.51 62.03 45.91 C 57.86 49.32 51.16 48.11 48.45 43.45 C 43.94 36.54 46.72 27.95 48.21 20.53 C 47.78 20.71 46.92 21.07 46.49 21.24 C 43.61 28.91 43.80 37.32 40.84 44.94 C 39.97 47.32 37.91 50.23 34.98 49.45 C 31.86 48.12 30.31 44.80 29.21 41.80 C 26.88 35.77 26.68 29.11 27.82 22.80 C 22.51 18.44 27.18 11.10 31.05 7.41 C 29.54 11.18 25.93 15.96 29.74 19.57 C 30.78 19.11 31.82 18.66 32.86 18.22 C 31.97 20.24 30.67 22.04 28.94 23.42 C 28.96 28.89 28.93 34.61 31.28 39.67 C 32.34 41.65 34.25 44.05 36.80 43.30 C 39.06 41.59 40.14 38.82 40.68 36.12 C 42.05 29.04 42.66 21.57 46.19 15.13 C 47.17 13.20 49.39 12.65 51.23 11.88 C 52.72 20.65 45.42 30.52 51.71 38.39 C 56.12 43.39 64.18 39.50 66.00 33.90 C 68.34 26.20 66.95 17.88 64.51 10.37 C 65.59 8.26 66.64 6.14 67.75 4.05 C 70.54 12.15 72.13 20.64 72.33 29.20 C 72.27 36.13 82.19 41.87 87.21 35.85 C 87.40 31.82 84.73 28.34 83.67 24.56 C 81.50 19.76 81.65 14.23 79.20 9.57 C 80.02 7.47 80.79 5.36 81.61 3.27 Z"/><path d="M 40.98 8.65 C 41.77 7.22 42.57 5.72 44.09 4.95 C 44.65 5.58 45.77 6.84 46.32 7.47 C 45.45 7.40 43.72 7.26 42.85 7.19 L 43.12 8.76 L 43.84 8.17 C 44.88 9.13 45.93 10.07 47.01 11.00 C 46.36 11.11 45.06 11.35 44.41 11.46 C 41.56 14.59 38.72 17.96 34.71 19.62 C 37.39 16.44 40.84 14.04 43.50 10.85 C 42.65 10.12 41.81 9.38 40.98 8.65 Z"/><path d="M 4.65 30.48 C 7.31 24.30 12.55 19.87 17.41 15.45 C 20.34 21.48 20.97 28.21 22.21 34.70 C 23.31 40.49 23.36 46.40 24.13 52.23 C 29.68 53.44 35.34 54.09 41.00 54.52 C 39.37 58.92 37.73 63.37 37.12 68.05 C 41.40 67.68 45.76 66.88 49.47 64.62 C 52.59 62.65 55.58 60.48 58.78 58.66 C 58.71 60.45 58.58 62.24 58.42 64.03 C 60.48 66.46 63.62 68.69 66.92 67.18 C 72.15 65.49 72.46 58.96 76.98 56.39 C 76.64 58.43 76.12 60.44 75.60 62.44 C 77.90 65.49 81.88 65.32 84.99 63.71 C 82.45 60.61 82.41 56.59 84.61 53.28 C 88.10 57.09 87.79 62.91 86.37 67.53 C 85.45 71.03 81.39 72.28 78.18 71.45 C 75.72 71.19 74.59 68.60 73.02 67.02 C 71.49 70.06 69.57 73.42 65.97 74.26 C 60.81 75.93 55.66 71.15 55.71 66.00 C 50.56 70.40 44.42 73.49 37.91 75.30 C 39.65 79.26 42.37 82.88 46.46 84.60 C 53.93 87.58 62.45 86.59 69.77 83.61 C 79.29 79.86 89.00 75.41 96.15 67.88 C 95.61 65.30 94.38 62.92 93.41 60.49 C 91.75 56.71 90.99 52.62 89.46 48.80 C 90.25 46.52 90.95 44.20 91.63 41.88 C 93.67 44.71 96.07 47.25 97.97 50.18 C 97.23 50.22 95.76 50.29 95.03 50.32 C 96.70 54.77 98.58 59.27 99.11 64.03 C 98.82 68.42 97.59 73.24 94.06 76.17 C 84.73 85.07 72.72 91.18 60.05 93.57 C 54.31 94.09 47.87 94.53 42.94 90.98 C 37.97 87.59 35.84 81.40 35.37 75.63 C 26.40 74.92 21.59 65.90 20.52 57.89 C 13.75 55.89 6.08 52.94 3.04 46.00 C 0.59 40.95 2.40 35.24 4.65 30.48 M 6.16 36.35 C 7.13 43.47 13.44 48.48 19.70 51.08 C 18.67 40.74 17.49 30.32 14.41 20.37 C 9.88 24.42 5.71 29.93 6.16 36.35 M 25.44 59.09 C 27.30 63.40 30.50 67.27 35.24 68.43 C 35.76 65.60 36.32 62.77 36.97 59.97 C 33.12 59.76 29.28 59.50 25.44 59.09 Z"/><path d="M 76.72 31.55 C 75.00 28.56 76.52 25.48 77.87 22.71 C 79.58 24.59 81.24 26.58 81.46 29.24 C 79.92 30.08 78.33 30.85 76.72 31.55 M 76.97 27.00 C 75.81 28.42 78.19 30.18 79.31 28.84 C 80.44 27.47 78.05 25.65 76.97 27.00 Z"/><path d="M 58.68 31.55 C 59.46 28.86 60.54 26.26 62.02 23.88 C 63.12 24.48 64.21 25.10 65.29 25.74 C 64.92 26.26 64.18 27.29 63.82 27.81 C 63.35 27.41 62.43 26.63 61.97 26.23 C 60.35 29.20 59.41 32.45 58.31 35.62 C 57.49 33.75 56.71 31.87 55.93 29.98 C 54.61 29.43 53.32 28.81 52.06 28.16 C 52.39 26.95 52.73 25.74 53.09 24.54 C 56.48 25.28 57.29 28.90 58.68 31.55 Z"/><path d="M 72.65 46.28 C 74.79 47.26 76.95 48.20 79.10 49.17 C 78.71 51.51 78.31 53.87 77.48 56.10 C 75.44 55.18 73.32 54.38 71.51 53.05 C 71.31 50.74 72.17 48.51 72.65 46.28 Z"/><path d="M 59.98 55.07 C 60.12 52.83 60.77 50.68 61.30 48.51 C 63.43 49.53 65.57 50.54 67.69 51.58 C 67.22 53.81 66.75 56.04 66.30 58.28 C 64.12 57.41 61.54 56.96 59.98 55.07 Z"/><path d="M 50.33 49.83 C 52.40 50.77 54.47 51.72 56.55 52.63 C 56.05 54.79 55.55 56.95 55.01 59.10 C 52.68 58.58 50.57 57.45 48.59 56.13 C 49.10 54.01 49.68 51.91 50.33 49.83 Z"/><path d="M 70.85 80.63 C 69.70 76.62 71.61 72.92 73.46 69.49 C 73.53 70.09 73.68 71.30 73.75 71.90 C 74.87 73.09 76.88 73.99 76.76 75.91 C 77.59 79.29 73.69 81.20 70.85 80.63 M 72.39 74.85 C 72.25 75.73 71.98 77.47 71.84 78.34 C 73.20 77.93 74.57 77.50 75.92 77.05 C 74.76 76.30 73.58 75.57 72.39 74.85 Z"/><path d="M 49.44 79.57 C 48.43 77.30 50.16 74.89 50.59 72.64 C 52.63 73.70 54.68 74.73 56.73 75.77 C 56.28 77.81 55.84 79.85 55.26 81.86 C 53.27 81.26 51.10 80.90 49.44 79.57 Z"/><path d="M 24.34 76.26 C 25.58 74.92 27.50 75.63 29.05 75.72 C 28.76 76.97 28.41 78.21 28.02 79.44 C 26.99 79.23 25.97 78.99 24.96 78.71 C 24.64 79.06 23.99 79.76 23.67 80.11 C 25.10 80.54 26.51 81.06 27.99 81.32 C 29.90 80.55 31.66 79.45 33.52 78.56 C 32.09 83.98 25.92 85.42 21.39 87.32 C 22.20 86.15 23.07 85.04 23.97 83.94 C 23.01 83.04 22.07 82.12 21.17 81.17 C 22.13 79.48 22.92 77.63 24.34 76.26 Z"/><path d="M 93.07 82.51 C 94.46 80.20 96.09 75.58 99.50 76.55 C 101.51 76.91 100.31 79.10 100.18 80.43 C 98.50 80.57 96.81 80.41 95.13 80.59 C 96.61 81.36 98.04 82.50 99.78 82.60 C 101.68 81.74 103.48 80.68 105.43 79.92 C 103.92 85.34 97.76 86.56 93.27 88.56 C 94.13 87.40 95.05 86.27 95.99 85.17 C 94.99 84.31 94.02 83.42 93.07 82.51 Z"/></g></svg>