<?xml version="1.0" encoding="UTF-8" ?>
<!DOCTYPE svg PUBLIC "-//W3C//DTD SVG 1.1//EN" "http://www.w3.org/Graphics/SVG/1.1/DTD/svg11.dtd">
<svg width="800pt" height="712pt" viewBox="0 0 800 712" version="1.1" xmlns="http://www.w3.org/2000/svg">
<g id="#ffffffff">
<path fill="#ffffff" opacity="1.00" d=" M 694.39 43.43 C 695.97 43.12 696.66 43.76 696.45 45.36 C 694.86 45.66 694.17 45.02 694.39 43.43 Z" />
<path fill="#ffffff" opacity="1.00" d=" M 392.53 196.44 C 393.01 196.36 393.96 196.19 394.44 196.11 C 394.51 197.53 394.60 198.96 394.70 200.38 C 394.74 201.50 394.83 202.62 394.97 203.74 C 395.10 205.26 395.24 206.78 395.38 208.30 C 395.78 215.12 394.93 221.93 393.96 228.67 C 392.24 228.73 390.54 228.81 388.84 228.92 L 389.39 228.88 L 390.37 227.85 C 389.88 217.54 390.29 207.16 392.45 197.02 L 392.53 196.44 Z" />
<path fill="#ffffff" opacity="1.00" d=" M 289.71 202.79 C 293.81 200.84 298.41 200.53 302.85 200.00 C 298.87 206.00 297.26 214.39 301.24 220.77 C 303.05 224.05 307.69 224.90 310.61 222.61 C 314.75 218.91 316.29 213.06 315.92 207.65 C 319.22 215.28 315.41 225.50 307.32 228.23 C 301.46 228.05 295.66 227.12 289.94 225.89 C 284.46 223.69 280.35 218.58 278.72 212.97 C 278.77 212.55 278.87 211.70 278.93 211.28 C 282.03 207.90 285.49 204.70 289.71 202.79 Z" />
<path fill="#ffffff" opacity="1.00" d=" M 302.70 202.28 C 304.87 202.96 306.54 204.49 306.30 206.93 C 306.20 208.96 306.13 210.98 306.04 213.00 C 305.44 213.44 304.24 214.32 303.64 214.76 C 301.42 212.33 301.14 209.04 301.73 205.93 C 302.01 204.70 302.33 203.48 302.70 202.28 Z" />
<path fill="#ffffff" opacity="1.00" d=" M 361.98 204.20 C 364.28 203.58 366.59 202.98 368.95 202.60 C 370.52 202.62 372.32 202.07 373.68 203.13 C 373.71 203.74 373.72 204.35 373.72 204.96 C 371.70 208.42 370.47 212.57 371.55 216.54 C 372.55 219.97 376.88 221.97 380.03 220.04 C 385.33 216.96 385.94 210.03 385.48 204.53 C 388.47 205.92 387.02 209.53 387.01 212.08 C 386.28 216.04 385.81 221.33 381.61 223.15 C 376.02 224.51 370.33 225.35 364.67 226.34 C 360.47 220.10 357.89 211.00 361.98 204.20 Z" />
<path fill="#ffffff" opacity="1.00" d=" M 373.90 207.20 C 374.52 205.62 375.23 204.07 375.94 202.53 C 376.66 203.45 377.37 204.39 378.07 205.34 C 377.91 207.24 377.68 209.14 377.43 211.04 C 377.13 211.43 376.54 212.22 376.25 212.62 C 375.64 212.18 374.43 211.30 373.83 210.86 C 373.85 209.63 373.88 208.41 373.90 207.20 Z" />
<path fill="#ffffff" opacity="1.00" d=" M 324.40 286.04 C 333.98 285.22 343.41 282.41 353.07 283.07 C 356.51 283.49 360.84 284.13 362.15 287.89 C 361.67 288.19 360.71 288.80 360.23 289.11 C 356.39 289.13 352.69 287.96 348.86 287.81 C 344.16 287.45 339.50 288.25 334.86 288.85 C 331.13 289.37 327.73 287.36 324.40 286.04 Z" />
<path fill="#ffffff" opacity="1.00" d=" M 203.99 330.22 L 204.32 329.20 C 205.30 331.32 206.32 333.42 207.41 335.48 C 206.26 335.73 205.10 335.98 203.95 336.21 C 203.94 334.21 203.86 332.21 203.99 330.22 Z" />
<path fill="#ffffff" opacity="1.00" d=" M 176.17 345.18 C 184.68 341.36 193.94 339.44 203.20 338.60 C 203.57 338.94 204.31 339.61 204.68 339.94 L 204.60 338.56 C 206.14 338.45 207.68 338.32 209.22 338.19 C 209.85 339.12 210.49 340.06 211.13 340.99 C 210.32 348.36 210.91 355.86 212.71 363.05 C 201.83 362.50 190.94 361.88 180.05 361.96 C 174.88 361.31 169.63 362.90 164.52 361.63 C 162.71 361.33 161.76 359.74 160.91 358.29 C 163.43 351.56 170.07 348.11 176.17 345.18 Z" />
<path fill="#ffffff" opacity="1.00" d=" M 209.01 366.45 C 211.01 366.05 213.07 366.22 215.09 366.36 C 229.78 367.47 244.49 368.30 259.17 369.65 C 263.68 370.02 268.06 371.40 272.05 373.53 C 282.62 379.04 292.96 385.18 302.16 392.80 C 304.87 394.94 307.02 397.73 308.31 400.94 C 304.92 396.33 299.16 394.30 293.62 394.14 C 280.89 393.30 268.95 402.40 265.26 414.40 C 251.15 394.18 231.91 377.32 209.61 366.72 L 209.01 366.45 Z" />
<path fill="#ffffff" opacity="1.00" d=" M 350.12 367.33 C 353.78 366.70 357.43 366.01 361.08 365.32 C 386.08 369.53 409.91 379.38 431.35 392.78 C 429.40 407.50 423.05 421.72 424.74 436.80 C 418.20 444.32 411.70 451.88 405.12 459.37 C 400.68 449.22 395.60 439.14 388.25 430.75 C 378.60 420.85 364.25 418.12 350.99 417.31 C 350.00 402.90 350.03 388.46 349.75 374.03 C 349.76 371.79 349.63 369.52 350.12 367.33 Z" />
<path fill="#ffffff" opacity="1.00" d=" M 471.84 522.40 C 473.42 523.46 474.99 524.52 476.56 525.61 C 471.14 536.17 465.38 546.67 461.98 558.10 C 460.23 558.16 458.49 558.25 456.77 558.38 C 461.33 546.20 466.53 534.27 471.84 522.40 Z" />
</g>
<g id="#000000ff">
<path fill="#000000" opacity="1.00" d=" M 691.41 46.03 C 692.17 43.95 691.66 39.98 694.87 40.24 C 697.85 40.81 697.78 44.44 698.04 46.78 C 696.22 46.51 694.43 46.09 692.68 45.56 C 692.37 53.20 693.48 60.80 695.94 68.04 C 690.58 62.19 688.77 53.52 691.41 46.03 M 694.39 43.43 C 694.17 45.02 694.86 45.66 696.45 45.36 C 696.66 43.76 695.97 43.12 694.39 43.43 Z" />
<path fill="#000000" opacity="1.00" d=" M 703.13 67.10 C 699.81 58.60 702.43 48.58 709.03 42.41 C 713.16 42.17 714.72 46.79 713.58 50.14 C 711.34 48.73 709.43 46.89 707.72 44.89 C 705.30 52.08 703.52 59.50 703.13 67.10 M 709.05 44.36 C 709.35 44.69 709.35 44.69 709.05 44.36 Z" />
<path fill="#000000" opacity="1.00" d=" M 694.18 74.09 C 695.08 71.62 696.05 68.52 698.96 67.82 C 705.19 66.57 709.96 74.85 707.09 80.07 C 710.36 80.95 713.73 79.41 717.04 80.29 C 730.66 83.09 742.56 91.14 753.09 99.90 C 764.55 109.53 772.39 123.75 772.46 138.91 C 772.25 143.25 769.96 148.36 764.96 148.51 C 763.72 153.80 761.91 159.95 756.59 162.48 C 752.23 164.52 747.41 161.82 744.47 158.57 C 740.84 154.18 738.20 149.08 735.79 143.96 C 734.42 145.58 732.89 146.69 731.40 144.31 C 733.29 150.36 736.01 156.67 734.95 163.12 C 734.36 167.62 729.25 170.18 725.09 169.13 C 715.10 166.56 706.25 160.24 700.05 152.06 C 696.75 158.11 691.59 164.16 684.38 165.15 C 676.83 166.19 669.80 162.31 663.89 158.06 C 655.46 151.63 648.08 143.81 642.13 135.03 C 639.73 131.48 637.98 127.34 637.99 122.99 C 638.26 117.59 641.51 112.94 645.05 109.09 C 653.80 99.93 664.90 93.25 676.57 88.50 C 683.69 86.07 690.15 81.67 697.74 80.68 C 697.27 80.32 696.34 79.60 695.88 79.24 C 698.11 80.34 700.93 81.98 703.29 80.24 C 707.75 77.74 704.21 71.43 700.79 69.66 C 697.60 67.99 695.53 71.81 694.18 74.09 M 703.47 82.59 C 708.10 88.17 710.07 95.51 709.46 102.68 C 711.45 101.27 713.75 100.51 716.21 100.79 C 712.77 94.74 710.45 88.16 707.79 81.76 C 706.34 82.04 704.91 82.31 703.47 82.59 M 709.88 82.48 C 712.70 89.60 713.89 97.89 719.48 103.52 C 718.76 103.12 718.04 102.74 717.32 102.39 C 714.63 103.10 711.90 103.62 709.14 103.89 L 709.68 104.39 C 708.22 120.38 706.68 136.83 700.02 151.64 C 705.47 158.01 712.69 162.80 720.55 165.67 C 723.76 166.66 727.62 167.94 730.68 165.89 C 733.40 163.78 733.21 159.90 732.56 156.87 C 728.32 139.08 721.04 122.09 711.80 106.34 L 712.58 106.86 C 714.08 108.72 715.40 110.72 716.70 112.73 C 717.94 111.65 719.02 110.23 720.61 109.63 C 721.98 109.59 723.34 109.85 724.73 109.86 L 724.66 110.81 C 730.56 125.15 735.66 139.94 743.72 153.28 C 745.77 156.49 748.30 159.83 752.08 161.08 C 759.00 162.62 764.01 154.43 763.51 148.33 C 757.99 146.81 754.91 141.62 751.42 137.53 C 743.77 128.27 735.86 119.23 727.14 110.96 C 738.55 120.07 748.73 130.70 757.83 142.12 C 760.00 144.72 763.29 148.36 767.00 146.37 C 770.87 144.03 771.13 138.92 770.80 134.88 C 769.87 121.73 761.57 110.35 751.61 102.28 C 744.69 96.66 737.17 91.79 729.30 87.62 C 723.36 84.41 716.72 82.06 709.88 82.48 M 693.40 84.48 C 678.60 90.75 662.12 94.34 649.70 105.12 C 644.74 109.55 639.72 114.96 639.05 121.90 C 638.80 126.96 641.48 131.66 644.54 135.50 C 651.44 144.18 659.23 152.20 668.09 158.89 C 673.75 162.90 681.23 166.33 688.13 163.44 C 695.02 160.43 699.45 153.57 701.52 146.56 C 705.33 133.71 706.22 120.25 707.27 106.97 C 707.78 99.49 707.58 90.81 701.98 85.12 C 699.72 82.55 696.18 83.48 693.40 84.48 M 717.24 113.31 C 719.19 116.84 721.28 120.29 723.09 123.89 C 724.22 122.51 725.68 121.73 727.54 122.08 C 727.01 120.45 726.51 118.82 726.02 117.19 C 724.23 117.75 722.40 118.17 720.54 118.34 C 721.41 116.25 723.39 115.31 725.51 114.94 C 725.06 113.61 724.63 112.28 724.19 110.96 C 721.93 111.91 719.61 112.72 717.24 113.31 M 723.37 124.65 C 726.29 129.78 728.31 135.34 730.37 140.85 C 730.71 142.51 732.64 142.50 733.89 143.12 C 733.84 141.64 733.98 140.10 733.36 138.72 C 731.34 133.62 729.04 128.59 727.85 123.22 C 726.49 124.07 724.96 124.55 723.37 124.65 Z" />
<path fill="#000000" opacity="1.00" d=" M 273.10 71.86 C 292.91 68.61 313.17 69.29 333.01 71.90 C 351.12 74.63 369.20 78.27 386.45 84.54 C 400.87 89.95 414.73 98.29 423.92 110.93 C 428.41 116.98 431.31 124.00 433.60 131.13 C 430.31 127.89 427.38 123.99 422.96 122.24 C 420.09 120.83 416.86 120.55 413.72 120.40 C 419.81 126.96 425.30 134.29 428.18 142.86 C 429.48 146.83 430.60 150.86 431.53 154.93 C 425.81 147.88 418.87 141.58 410.23 138.39 C 417.85 151.96 420.46 167.77 419.63 183.19 C 416.82 172.71 412.92 161.86 404.17 154.83 C 406.47 168.13 406.28 181.78 404.25 195.11 C 403.16 194.70 402.07 194.30 400.99 193.91 C 400.93 197.41 405.03 198.19 406.26 201.06 C 408.44 204.66 406.25 208.96 403.25 211.29 C 403.86 217.80 404.80 224.46 403.50 230.95 C 402.17 235.58 396.50 236.63 392.33 236.31 C 393.35 254.85 394.53 273.54 392.11 292.02 C 388.65 312.05 379.96 330.62 374.29 350.04 C 372.74 355.38 369.20 359.87 365.04 363.47 C 388.85 367.79 411.32 377.55 431.95 390.03 C 432.76 383.33 433.09 376.58 434.11 369.91 C 434.99 363.63 438.18 357.93 442.16 353.09 C 450.74 342.48 458.45 331.19 465.71 319.64 C 470.00 313.09 474.19 306.36 479.90 300.92 C 492.86 287.82 509.91 280.02 526.61 272.88 C 529.68 271.38 533.86 272.46 535.44 275.56 C 537.68 279.55 536.73 284.38 535.30 288.48 C 530.75 300.18 521.60 309.61 510.94 315.99 C 509.25 321.17 507.21 326.43 503.34 330.43 C 502.34 331.86 500.02 332.85 500.62 334.94 C 500.91 338.21 500.75 341.54 499.66 344.66 C 515.44 343.38 531.35 343.34 547.09 345.09 C 550.81 345.72 554.40 344.25 557.97 343.44 C 568.84 340.75 579.96 338.99 591.16 338.58 C 594.24 338.60 596.82 336.71 599.58 335.61 C 611.12 330.97 623.73 329.88 636.07 330.04 C 641.14 330.37 646.81 330.64 650.81 334.22 C 652.71 335.81 653.48 338.25 653.97 340.60 C 658.59 343.92 658.29 350.49 655.07 354.68 C 655.44 358.35 652.73 361.09 650.82 363.88 C 648.62 367.00 645.57 369.29 642.58 371.59 C 638.47 378.29 632.24 383.26 626.02 387.91 C 612.44 397.84 597.72 406.07 583.04 414.24 C 576.52 417.92 569.29 420.56 563.72 425.70 C 551.05 435.49 537.15 443.96 521.89 449.03 C 510.89 452.55 500.58 460.01 496.01 470.89 C 508.12 476.17 520.47 480.96 533.12 484.78 C 541.76 487.48 551.68 489.95 556.84 498.14 C 562.91 498.83 568.98 497.51 575.02 497.97 C 627.94 511.24 680.87 524.48 733.81 537.69 C 723.44 579.08 712.76 620.38 702.49 661.79 C 691.03 664.52 679.50 666.98 668.00 669.53 C 644.21 674.49 619.62 668.06 598.04 657.98 C 564.06 658.72 530.08 660.20 496.09 661.01 L 496.34 660.11 C 497.53 656.09 498.41 651.99 499.39 647.92 L 498.12 647.99 C 485.74 647.82 473.36 647.79 460.98 647.81 C 451.01 647.37 441.03 647.44 431.06 647.57 C 426.84 648.95 423.50 652.36 419.22 653.61 C 335.94 665.33 251.03 669.49 167.43 658.69 C 148.58 655.92 129.58 653.00 111.57 646.58 C 111.53 646.57 111.44 646.53 111.40 646.52 C 108.45 645.26 105.30 644.11 102.87 641.97 C 102.15 641.01 101.20 640.27 100.04 639.95 C 99.75 639.67 99.16 639.12 98.87 638.84 C 98.44 637.17 97.07 635.57 95.19 635.83 L 93.98 635.83 L 93.88 635.13 C 93.51 634.77 92.78 634.05 92.42 633.69 C 89.14 631.52 86.03 628.61 83.78 625.41 C 83.40 625.03 82.65 624.28 82.28 623.90 L 81.35 623.64 C 81.19 623.29 80.88 622.60 80.72 622.25 C 80.33 621.93 79.55 621.28 79.17 620.96 L 79.02 620.16 C 78.92 618.91 78.26 618.23 77.04 618.13 L 76.26 618.03 L 75.99 617.45 C 75.22 615.53 74.01 613.85 72.69 612.29 C 61.34 598.73 51.84 583.67 44.09 567.79 C 35.29 549.16 29.26 528.79 29.56 508.03 C 30.00 478.19 46.22 449.46 70.54 432.47 C 73.75 430.15 77.38 428.40 80.34 425.73 C 80.53 425.57 80.91 425.24 81.10 425.08 L 82.35 425.20 C 83.94 425.64 85.21 424.41 86.00 423.20 C 86.41 422.92 87.25 422.38 87.66 422.11 C 92.41 420.86 96.86 418.71 101.54 417.23 C 116.96 412.03 133.26 409.95 149.49 409.65 C 150.82 407.05 151.58 403.89 154.07 402.11 C 157.21 399.83 160.50 397.76 163.50 395.29 C 162.18 394.87 160.87 394.47 159.55 394.08 C 159.22 393.98 158.55 393.78 158.22 393.68 L 158.22 393.53 C 158.27 383.02 158.26 372.52 158.20 362.02 C 157.80 356.82 160.80 351.84 164.90 348.85 C 167.85 346.51 171.41 345.07 174.29 342.64 C 174.48 342.49 174.85 342.20 175.03 342.05 L 175.72 341.92 C 183.82 339.90 191.73 336.99 200.12 336.26 C 190.78 327.40 185.83 314.67 186.12 301.85 C 185.10 302.41 184.09 302.99 183.07 303.55 C 174.61 307.88 165.00 308.86 155.64 309.00 C 155.99 308.58 156.69 307.73 157.04 307.30 C 158.84 306.72 160.67 306.23 162.52 305.82 C 167.80 305.26 171.24 300.50 172.91 295.87 C 175.25 289.67 173.83 282.78 171.03 276.99 C 166.27 266.34 157.03 258.54 151.98 248.05 C 146.38 236.61 145.49 223.59 145.75 211.05 C 146.24 194.95 148.94 178.62 155.97 164.01 C 161.70 152.19 170.37 141.74 181.31 134.42 C 184.95 132.20 186.31 127.98 188.41 124.53 C 190.88 120.00 194.65 116.35 197.07 111.79 L 197.42 111.18 L 198.20 111.11 C 199.46 111.07 200.09 110.42 200.07 109.16 L 200.11 108.12 L 201.18 108.07 C 202.45 108.08 203.08 107.45 203.08 106.18 L 203.11 105.42 C 222.36 87.52 247.07 75.60 273.10 71.86 M 241.01 83.81 C 220.56 92.77 202.04 107.15 190.33 126.36 C 188.69 129.05 187.50 132.05 185.47 134.49 C 182.54 137.30 178.86 139.18 175.86 141.91 C 168.66 148.55 162.50 156.43 158.32 165.32 C 151.95 177.95 149.55 192.14 148.50 206.12 C 147.94 218.36 148.01 231.03 152.48 242.63 C 157.54 256.87 171.05 266.26 175.32 280.90 C 178.28 289.09 176.31 298.72 170.23 304.98 C 177.02 304.19 183.04 300.68 188.75 297.16 C 188.01 309.93 191.00 323.74 200.59 332.83 C 200.30 327.34 201.38 321.88 203.53 316.84 C 205.53 321.65 205.95 327.00 208.41 331.65 C 210.39 335.50 211.58 340.35 215.97 342.20 C 213.00 333.57 211.43 324.28 213.41 315.24 C 214.59 310.60 215.11 305.40 218.45 301.70 C 214.01 316.23 213.96 332.28 220.15 346.33 C 217.26 345.34 214.52 343.95 212.15 342.01 C 213.82 348.87 214.14 356.02 213.30 363.03 C 227.88 363.83 242.46 364.72 257.01 366.01 C 262.17 366.45 267.43 367.32 272.04 369.80 C 279.54 373.92 287.17 377.86 294.18 382.81 C 299.20 386.40 304.45 389.96 308.12 395.03 C 310.63 398.81 310.91 403.51 311.55 407.88 C 312.91 421.01 313.60 434.20 314.73 447.35 C 328.30 449.94 342.12 451.62 355.96 451.20 C 364.34 450.73 373.44 448.73 379.31 442.25 C 382.72 438.51 382.96 433.25 382.73 428.47 C 373.71 421.27 362.00 419.53 350.99 417.57 C 351.27 420.08 351.57 422.60 351.66 425.14 C 347.96 413.51 347.67 401.15 347.69 389.05 C 347.94 381.77 348.02 374.38 349.82 367.28 C 342.16 368.47 334.45 367.05 327.03 365.13 C 311.51 360.89 296.81 354.09 282.86 346.14 C 275.95 341.94 268.61 338.49 261.75 334.20 C 252.71 328.76 245.73 320.28 241.15 310.86 C 239.95 308.39 237.87 306.09 238.33 303.15 C 238.97 304.32 239.64 305.49 240.15 306.74 C 242.78 314.08 247.63 320.48 253.23 325.84 C 259.40 331.76 267.17 335.53 274.72 339.35 C 280.04 341.90 284.93 345.25 290.22 347.87 C 304.29 355.50 319.36 361.31 334.94 365.01 C 342.16 366.78 349.72 366.17 356.97 364.93 C 363.72 362.25 369.45 356.78 371.69 349.77 C 377.09 331.02 385.40 313.13 389.18 293.92 C 392.06 275.43 390.79 256.63 389.88 238.03 C 384.92 238.07 379.97 237.93 375.03 237.54 C 368.99 237.03 362.62 237.40 357.08 234.52 C 356.35 237.04 355.41 239.50 354.36 241.91 C 359.81 242.42 366.23 245.68 366.22 251.93 C 365.23 257.08 360.33 260.08 356.37 262.92 C 358.77 259.28 362.70 256.38 363.58 251.94 C 362.88 245.72 355.68 244.66 350.73 243.69 C 352.44 241.32 354.09 238.92 355.86 236.59 C 355.90 235.61 355.92 234.62 355.91 233.64 C 354.64 232.66 352.99 231.69 352.84 229.92 C 351.63 222.77 351.05 215.52 349.81 208.37 C 345.17 206.99 339.22 205.82 335.19 209.05 C 333.97 215.83 333.67 222.76 332.38 229.54 C 330.67 235.10 325.15 238.40 319.76 239.66 C 308.06 242.52 295.91 242.05 283.97 242.48 C 276.83 242.26 267.91 242.19 263.56 235.47 C 260.46 231.59 260.79 226.36 258.80 222.03 C 257.08 218.49 252.60 217.91 249.15 218.74 C 241.17 220.62 233.39 223.35 225.23 224.38 C 226.34 228.80 226.69 233.41 225.81 237.91 C 223.03 233.90 223.29 228.77 224.80 224.33 C 221.85 225.16 218.82 225.68 215.76 225.94 C 215.78 226.53 215.81 227.71 215.83 228.30 C 215.27 227.08 214.68 225.88 214.10 224.68 C 217.73 226.64 221.67 223.29 225.39 222.72 L 225.32 222.48 C 232.88 220.36 240.41 218.11 247.99 216.04 C 251.39 215.23 255.67 214.81 258.35 217.57 C 262.91 222.09 261.26 229.66 265.69 234.33 C 270.24 239.55 277.72 239.25 284.04 239.43 C 294.68 239.38 305.42 239.31 315.93 237.44 C 321.29 236.47 327.45 234.19 329.70 228.78 C 331.20 221.81 331.20 214.58 332.69 207.60 C 337.76 203.09 345.47 204.37 351.22 206.96 C 352.59 214.05 353.21 221.27 354.52 228.37 C 354.97 231.42 358.26 232.52 360.77 233.44 C 367.65 235.55 374.94 234.32 382.01 234.98 C 386.79 235.62 391.32 233.79 395.98 233.15 C 398.11 232.84 401.02 232.18 401.40 229.63 C 403.01 217.61 398.35 205.87 398.98 193.85 C 395.95 191.98 392.88 190.14 390.03 188.00 C 389.20 187.31 388.05 186.64 388.42 185.35 L 390.67 186.48 C 394.55 187.85 398.24 189.68 402.04 191.26 C 404.26 177.85 403.27 164.15 400.96 150.82 C 401.12 150.50 401.43 149.87 401.59 149.55 C 407.47 153.63 412.27 159.09 416.04 165.16 C 415.57 153.90 410.14 143.74 405.01 133.98 C 412.78 135.92 419.83 139.90 426.00 144.92 C 423.10 134.62 415.98 126.36 408.63 118.92 C 414.79 116.95 421.22 118.36 426.93 121.01 C 420.06 106.49 406.69 96.08 392.25 89.72 C 374.02 81.84 354.40 77.91 334.89 74.80 C 303.57 70.19 270.41 70.98 241.01 83.81 M 401.80 199.55 C 401.86 202.29 402.07 205.04 402.33 207.78 C 402.77 207.60 403.64 207.23 404.08 207.05 C 405.03 204.25 404.68 201.05 401.80 199.55 M 528.30 274.65 C 529.93 277.59 532.73 280.42 532.23 284.05 C 531.63 286.90 528.51 287.92 526.44 289.51 C 523.77 291.02 520.77 294.05 517.51 292.33 C 514.44 289.85 513.71 285.65 512.66 282.06 C 501.76 287.01 491.45 293.46 482.70 301.67 C 476.23 307.73 471.55 315.35 466.77 322.73 C 459.42 334.52 451.33 345.83 442.65 356.67 C 438.62 361.52 436.66 367.72 436.14 373.93 C 434.83 387.42 433.77 401.01 430.27 414.15 C 428.14 421.86 426.84 429.83 426.95 437.85 C 403.15 466.54 377.74 493.84 353.08 521.78 C 356.68 515.99 361.68 511.25 365.86 505.89 C 365.77 505.40 365.59 504.42 365.49 503.94 L 365.78 505.38 C 369.74 501.78 372.86 497.40 376.40 493.41 C 385.88 482.05 395.70 470.95 404.98 459.41 C 401.67 453.92 398.54 448.32 394.83 443.09 C 391.15 437.98 388.01 432.32 383.00 428.35 C 384.06 433.93 383.61 440.18 379.54 444.53 C 372.35 452.26 361.06 453.72 351.04 453.77 C 338.74 453.36 326.42 451.34 314.73 447.47 C 315.44 453.90 315.69 460.43 317.50 466.68 C 319.05 470.27 322.75 472.21 325.96 474.10 C 335.44 478.92 345.81 481.60 355.98 484.52 C 359.59 485.49 362.83 488.29 363.82 491.96 C 362.27 488.87 359.48 486.29 356.03 485.59 C 345.10 482.94 333.99 480.28 324.00 474.98 C 320.59 472.91 316.51 470.40 315.91 466.10 C 311.82 444.58 312.39 422.45 308.31 400.94 C 307.02 397.73 304.87 394.94 302.16 392.80 C 292.96 385.18 282.62 379.04 272.05 373.53 C 268.06 371.40 263.68 370.02 259.17 369.65 C 244.49 368.30 229.78 367.47 215.09 366.36 C 213.07 366.22 211.01 366.05 209.01 366.45 C 206.41 365.74 203.71 365.65 201.04 365.50 C 190.37 364.96 179.68 364.27 169.00 364.70 C 166.06 364.86 163.31 363.73 160.72 362.47 C 160.78 372.03 160.75 381.58 160.74 391.14 C 164.02 393.01 167.24 395.16 170.97 396.03 C 177.18 397.59 183.27 399.56 189.41 401.35 C 192.69 402.48 196.38 403.49 198.52 406.46 C 204.81 414.47 211.44 422.20 218.27 429.75 C 225.83 438.51 234.85 445.80 243.67 453.22 C 260.77 467.56 278.02 481.75 296.08 494.87 C 302.84 499.71 309.14 505.15 315.21 510.82 C 319.77 515.19 324.69 519.40 327.78 525.02 C 312.28 505.92 290.46 493.78 271.42 478.71 C 256.79 467.38 242.33 455.83 228.38 443.67 C 216.95 433.69 207.05 422.11 197.81 410.11 C 196.63 408.69 195.62 407.02 193.97 406.10 C 185.12 401.69 175.11 400.56 165.98 396.95 C 162.30 399.51 158.61 402.07 154.92 404.63 C 166.95 410.27 176.01 420.61 183.71 431.16 C 196.28 448.47 210.91 464.19 223.51 481.48 C 230.60 490.89 234.89 501.97 238.90 512.95 C 245.40 531.01 251.07 549.37 256.24 567.86 C 265.52 570.96 274.88 573.84 284.29 576.48 C 287.41 569.09 292.53 562.79 297.35 556.46 C 306.10 545.03 316.04 533.67 329.65 528.02 C 334.59 526.30 339.76 524.82 345.05 525.21 C 346.93 525.06 349.32 526.05 350.76 524.38 L 349.63 525.56 C 361.06 527.17 371.63 532.44 383.14 533.66 C 393.15 534.88 403.76 534.38 412.96 539.16 C 420.90 542.95 425.88 550.68 429.52 558.39 C 434.89 570.09 439.72 582.04 444.87 593.84 C 447.90 601.57 452.41 609.55 450.59 618.16 C 448.88 629.24 440.41 637.25 432.94 644.86 C 448.96 645.06 464.98 645.03 481.00 645.24 C 487.43 645.27 493.87 645.23 500.30 645.27 C 504.66 624.21 509.27 603.19 513.43 582.09 C 509.11 576.65 506.16 570.28 502.64 564.32 C 508.17 555.91 513.33 547.27 518.94 538.90 C 513.36 526.74 508.46 514.27 502.76 502.16 C 499.31 494.51 495.92 486.81 493.10 478.90 C 503.38 498.79 512.33 519.35 521.33 539.85 C 515.77 548.25 510.25 556.67 504.48 564.92 C 507.55 570.62 510.00 576.66 513.56 582.08 C 519.50 553.71 525.54 525.37 531.43 497.00 C 539.09 497.40 546.71 498.32 554.35 499.05 C 549.98 492.53 542.03 490.30 534.97 488.06 C 521.25 483.97 507.80 478.99 494.69 473.27 C 489.77 483.99 484.69 494.64 479.70 505.33 C 477.10 510.98 474.30 516.54 471.81 522.24 C 474.05 522.96 476.27 523.75 478.44 524.69 C 473.69 536.40 468.26 547.81 462.78 559.19 C 460.78 559.00 458.77 558.80 456.78 558.59 C 452.70 567.99 450.47 578.07 446.46 587.48 C 455.95 548.92 472.64 512.69 490.52 477.41 C 491.58 475.35 492.57 473.25 493.33 471.07 C 495.96 463.31 501.87 457.04 508.59 452.54 C 515.14 448.12 522.89 446.20 530.10 443.15 C 543.30 437.43 555.31 429.28 566.46 420.25 C 571.83 416.86 577.70 414.31 583.24 411.21 C 599.30 402.19 615.51 393.20 629.94 381.67 C 629.78 379.62 629.96 377.57 630.12 375.54 C 623.07 379.21 615.91 382.74 609.39 387.32 C 599.31 394.27 587.86 399.20 575.89 401.76 C 586.67 397.91 597.10 392.97 606.45 386.31 C 616.74 378.60 628.46 372.97 640.35 368.21 C 640.03 367.03 639.81 365.75 638.82 364.94 C 639.44 363.57 640.14 362.25 640.87 360.94 C 634.37 364.48 627.52 367.33 621.03 370.90 C 615.61 373.85 610.59 377.53 604.99 380.16 C 597.29 384.14 589.09 387.06 580.82 389.61 C 578.03 390.55 575.32 392.08 572.28 391.61 C 586.99 387.69 600.63 380.54 613.45 372.44 C 625.69 364.77 639.28 359.69 652.05 353.05 C 656.35 351.02 655.48 344.77 651.93 342.41 C 636.00 355.06 614.75 355.59 596.75 363.72 C 586.66 368.35 576.21 372.47 565.29 374.61 C 576.51 370.86 587.28 365.87 597.92 360.73 C 609.75 355.18 622.75 352.99 635.08 348.90 C 634.55 347.31 633.48 345.61 634.26 343.91 C 635.43 340.85 639.09 339.88 642.02 339.52 C 644.56 339.41 647.59 339.43 649.45 341.48 C 649.90 341.26 650.80 340.81 651.26 340.58 C 651.05 336.82 647.51 334.46 644.17 333.68 C 638.54 332.35 632.70 332.42 626.97 332.77 C 618.32 333.09 609.67 334.52 601.55 337.58 C 598.05 338.91 594.82 341.29 590.92 341.17 C 577.40 341.57 564.12 344.44 551.06 347.74 C 544.03 347.86 537.04 346.32 529.99 346.50 C 518.49 345.88 506.98 346.58 495.53 347.61 C 497.98 343.05 499.05 337.74 497.54 332.69 C 502.92 327.86 507.11 321.64 508.47 314.44 C 518.40 308.75 527.07 300.42 531.89 289.93 C 533.64 285.85 535.39 281.05 533.28 276.76 C 532.36 274.92 530.07 274.79 528.30 274.65 M 512.98 281.81 C 514.66 284.94 516.57 287.98 519.01 290.60 C 522.79 288.61 526.67 286.62 529.95 283.87 C 531.59 280.94 528.76 277.93 528.17 275.05 C 523.01 277.08 517.98 279.41 512.98 281.81 M 203.95 336.21 C 205.10 335.98 206.26 335.73 207.41 335.48 C 206.32 333.42 205.30 331.32 204.32 329.20 C 204.89 328.08 203.62 327.03 203.40 325.99 C 202.66 329.39 202.85 332.91 203.95 336.21 M 176.17 345.18 C 170.07 348.11 163.43 351.56 160.91 358.29 C 161.76 359.74 162.71 361.33 164.52 361.63 C 169.63 362.90 174.88 361.31 180.05 361.96 C 190.94 361.88 201.83 362.50 212.71 363.05 C 210.91 355.86 210.32 348.36 211.13 340.99 C 210.49 340.06 209.85 339.12 209.22 338.19 C 207.68 338.32 206.14 338.45 204.60 338.56 L 204.68 339.94 C 204.31 339.61 203.57 338.94 203.20 338.60 C 193.94 339.44 184.68 341.36 176.17 345.18 M 637.35 343.35 C 635.46 344.42 635.11 346.72 635.29 348.69 C 640.21 346.95 645.18 344.93 649.23 341.54 C 645.22 341.38 641.03 341.62 637.35 343.35 M 643.69 359.75 C 643.15 361.68 642.59 363.66 641.25 365.21 C 641.03 365.88 640.59 367.23 640.38 367.91 C 646.08 365.55 651.20 361.30 652.78 355.10 C 649.60 356.34 646.66 358.08 643.69 359.75 M 350.12 367.33 C 349.63 369.52 349.76 371.79 349.75 374.03 C 350.03 388.46 350.00 402.90 350.99 417.31 C 364.25 418.12 378.60 420.85 388.25 430.75 C 395.60 439.14 400.68 449.22 405.12 459.37 C 411.70 451.88 418.20 444.32 424.74 436.80 C 423.05 421.72 429.40 407.50 431.35 392.78 C 409.91 379.38 386.08 369.53 361.08 365.32 C 357.43 366.01 353.78 366.70 350.12 367.33 M 632.15 374.39 C 632.15 376.17 632.14 377.95 632.14 379.74 C 635.33 377.03 638.35 373.98 640.18 370.16 C 637.52 371.60 634.88 373.10 632.15 374.39 M 150.83 412.53 C 123.42 411.97 95.27 418.71 72.45 434.27 C 53.23 447.54 39.27 468.22 34.12 491.00 C 30.16 508.90 32.50 527.61 37.85 544.96 C 44.46 565.83 55.35 585.14 68.32 602.69 C 77.79 615.09 88.27 626.85 100.41 636.70 C 108.21 643.27 118.14 646.31 127.86 648.72 C 139.12 651.55 150.59 653.47 162.05 655.27 C 207.69 661.78 253.94 663.18 299.98 661.75 C 339.81 660.46 379.56 656.67 419.00 650.96 C 422.37 649.51 425.55 647.57 428.55 645.48 C 434.74 639.66 440.69 633.40 444.96 626.00 C 448.69 619.26 448.90 610.93 445.87 603.89 C 440.58 590.80 434.67 577.98 429.27 564.94 C 425.53 556.31 421.24 546.87 412.56 542.21 C 402.93 536.98 391.63 537.90 381.12 536.37 C 367.15 534.74 354.22 526.70 339.85 528.41 C 327.04 530.13 316.18 538.30 307.77 547.69 C 299.38 557.13 291.39 567.04 285.22 578.10 C 283.00 581.93 282.35 586.36 281.44 590.63 C 287.37 588.32 293.59 586.44 300.04 586.75 C 318.93 586.68 336.77 595.92 349.96 609.02 C 357.79 617.14 364.21 626.52 369.68 636.35 C 373.04 642.26 375.65 648.57 379.15 654.41 L 377.84 652.80 L 376.79 654.56 C 376.99 654.02 377.39 652.92 377.59 652.38 C 374.09 646.50 371.16 640.29 367.37 634.58 C 358.86 621.25 348.95 608.22 335.32 599.78 C 323.84 592.11 309.78 588.19 295.99 589.18 C 279.41 590.67 266.47 603.43 249.93 605.05 C 245.63 605.32 240.94 605.46 237.40 608.27 C 233.18 611.95 230.92 617.24 227.45 621.55 C 220.61 630.26 211.98 637.64 202.15 642.77 C 212.56 636.21 222.02 627.91 228.62 617.45 C 231.46 613.13 233.63 607.91 238.35 605.27 C 242.45 602.83 247.41 603.65 251.91 602.74 C 262.31 600.32 271.52 594.71 281.32 590.68 C 281.48 586.39 281.86 582.03 283.61 578.06 C 282.88 577.25 282.14 576.47 281.40 575.69 C 272.43 574.49 263.84 571.34 255.12 569.01 C 248.19 547.29 241.20 525.54 232.58 504.43 C 228.56 494.13 222.77 484.65 215.92 476.00 C 209.70 467.90 203.35 459.90 196.93 451.97 C 190.17 443.63 184.13 434.77 177.82 426.11 C 171.62 417.57 163.85 410.01 154.58 404.88 C 153.41 407.47 152.15 410.01 150.83 412.53 M 533.26 500.06 C 525.11 539.48 516.70 578.85 508.47 618.25 C 505.58 631.68 503.16 645.21 499.42 658.44 C 502.37 658.54 505.34 658.56 508.27 658.09 L 509.28 658.10 C 519.37 605.95 531.56 554.22 544.59 502.73 C 542.80 502.87 541.04 503.03 539.27 503.18 C 531.39 535.95 523.63 568.75 515.55 601.47 C 515.52 599.92 515.36 598.36 515.69 596.84 C 522.91 564.90 529.97 532.92 537.20 500.98 C 538.43 500.77 539.67 500.59 540.91 500.39 C 538.36 500.24 535.81 500.13 533.26 500.06 M 565.19 500.50 L 565.74 500.89 C 563.35 500.93 560.98 501.15 558.59 501.19 C 558.64 501.82 558.73 503.07 558.78 503.69 C 557.25 506.90 557.20 510.54 556.44 513.97 C 547.63 561.25 537.65 608.31 526.24 655.03 C 526.47 651.64 527.19 648.31 527.82 644.99 C 536.39 598.76 546.20 552.77 557.17 507.05 C 557.55 505.68 558.06 504.36 558.70 503.09 C 558.06 502.53 557.42 502.00 556.78 501.48 C 555.58 501.54 553.19 501.66 551.99 501.72 C 551.65 503.08 551.49 504.50 550.80 505.75 C 542.96 549.41 533.42 592.76 523.41 635.98 C 521.87 643.16 519.51 650.16 518.38 657.44 C 521.70 657.28 525.01 656.87 528.30 656.40 C 530.03 657.49 532.09 657.40 534.04 657.34 C 555.70 656.50 577.38 656.08 599.04 655.15 C 618.60 664.90 640.91 670.81 662.84 667.88 C 674.67 665.60 686.37 662.72 698.15 660.21 C 700.00 660.22 700.71 658.59 700.99 657.03 C 710.75 617.89 720.90 578.84 730.59 539.68 C 678.82 526.47 626.94 513.69 575.13 500.65 C 571.84 500.11 568.50 500.58 565.19 500.50 M 544.69 502.73 C 534.85 554.92 522.42 606.58 509.37 658.05 C 512.33 657.90 515.29 657.68 518.24 657.33 C 518.72 651.45 520.13 645.72 521.10 639.93 C 529.42 596.73 538.67 553.70 549.22 510.99 C 549.87 508.09 550.65 505.15 550.60 502.16 C 548.63 502.34 546.65 502.53 544.69 502.73 M 471.84 522.40 C 466.53 534.27 461.33 546.20 456.77 558.38 C 458.49 558.25 460.23 558.16 461.98 558.10 C 465.38 546.67 471.14 536.17 476.56 525.61 C 474.99 524.52 473.42 523.46 471.84 522.40 Z" />
<path fill="#000000" opacity="1.00" d=" M 734.39 95.38 C 738.81 94.45 742.55 97.69 745.50 100.53 C 748.14 103.47 751.14 106.72 751.55 110.84 C 751.56 113.65 748.13 114.92 745.80 113.99 C 748.52 114.16 751.93 112.21 750.12 109.10 C 747.04 104.19 742.39 99.95 736.99 97.76 C 734.49 96.58 732.09 99.64 733.18 101.97 C 734.76 106.21 738.48 109.21 741.95 111.92 C 737.77 109.52 733.42 106.54 731.49 101.96 C 730.27 99.34 731.99 96.51 734.39 95.38 Z" />
<path fill="#000000" opacity="1.00" d=" M 674.85 98.85 C 678.03 97.24 682.46 95.83 685.38 98.67 C 687.93 100.95 687.25 104.94 685.34 107.41 C 680.07 114.66 672.09 120.69 662.90 121.33 C 671.95 119.15 678.93 112.26 683.91 104.73 C 686.23 101.61 681.97 98.35 678.95 99.34 C 672.77 100.83 667.83 105.25 663.25 109.44 C 666.12 104.99 670.36 101.56 674.85 98.85 Z" />
<path fill="#000000" opacity="1.00" d=" M 675.14 131.07 C 676.40 126.98 678.94 122.99 682.99 121.21 C 686.67 119.83 690.94 123.18 690.08 127.15 C 688.79 132.97 682.94 137.69 676.83 136.89 C 682.51 136.31 686.25 131.26 687.27 125.99 C 687.38 123.51 684.28 121.90 682.24 123.15 C 678.72 124.48 676.63 127.81 675.14 131.07 Z" />
<path fill="#000000" opacity="1.00" d=" M 750.66 122.25 C 754.01 121.60 758.29 122.54 759.76 125.98 C 761.73 129.31 758.15 134.19 754.35 132.54 C 750.93 130.79 750.38 126.50 748.87 123.34 C 750.94 125.54 752.52 128.25 754.99 130.04 C 756.81 130.54 758.23 128.80 757.70 127.08 C 756.83 124.01 753.22 123.30 750.66 122.25 Z" />
<path fill="#000000" opacity="1.00" d=" M 304.45 123.19 C 314.30 122.79 324.15 123.02 334.00 123.19 C 336.14 123.32 338.64 122.99 340.25 124.74 C 348.44 132.18 355.76 141.12 358.69 152.00 C 361.14 145.29 361.78 138.14 362.33 131.07 C 367.21 134.69 371.95 138.94 374.25 144.72 C 376.90 150.27 376.25 156.57 374.77 162.34 C 378.32 159.50 381.29 156.05 384.46 152.81 C 387.41 159.60 390.06 166.60 391.08 173.98 C 391.52 177.76 392.84 181.83 391.06 185.44 C 390.58 181.21 389.50 177.06 389.27 172.80 C 385.73 172.70 382.06 172.34 378.68 173.67 C 373.81 175.29 370.04 178.94 365.53 181.24 C 361.76 182.13 357.85 182.17 354.00 182.27 C 359.41 175.63 367.42 170.92 376.09 170.62 C 380.38 170.14 384.52 171.85 388.79 171.69 C 387.37 166.59 386.07 161.46 384.29 156.48 C 379.64 161.53 374.08 165.63 368.14 169.04 C 370.40 165.94 373.13 162.95 373.88 159.06 C 375.99 150.21 371.17 141.28 364.74 135.47 C 364.33 144.76 361.51 153.66 358.38 162.33 C 357.64 157.31 357.58 152.06 355.45 147.36 C 351.73 138.69 344.89 131.94 338.25 125.45 C 327.89 125.45 317.51 125.75 307.16 125.19 C 306.41 140.35 302.59 156.48 291.40 167.45 C 289.36 169.42 287.07 171.12 284.92 172.97 C 288.95 171.33 292.42 167.61 297.04 168.05 C 308.69 168.51 320.44 170.27 331.23 174.88 C 328.81 177.32 326.38 179.75 323.97 182.19 C 306.75 179.23 287.96 175.96 271.60 184.08 C 269.96 183.49 268.31 182.90 266.66 182.32 C 271.35 180.23 275.96 177.97 280.44 175.46 C 282.97 174.03 284.33 171.32 285.90 168.99 C 290.33 162.18 292.34 153.46 289.97 145.55 C 283.67 165.29 266.72 180.49 246.98 186.15 C 253.25 176.25 257.21 164.93 258.26 153.24 C 258.60 154.81 259.05 156.40 258.88 158.03 C 258.07 166.46 254.77 174.34 251.64 182.11 C 270.97 174.91 286.43 157.50 289.57 136.88 C 291.09 140.45 292.61 144.09 293.04 147.98 C 293.74 152.79 292.72 157.59 292.11 162.34 C 301.16 151.50 303.93 136.94 304.45 123.19 M 286.34 174.35 C 282.65 176.37 278.48 177.59 275.25 180.39 C 279.95 179.48 284.53 177.91 289.33 177.50 C 299.96 176.09 310.61 177.93 321.14 179.30 C 323.28 179.73 324.96 177.81 325.89 176.12 C 316.85 172.20 306.79 171.03 297.02 170.53 C 293.02 170.12 289.73 172.69 286.34 174.35 M 361.19 179.39 C 366.66 179.54 370.75 175.23 375.34 172.84 C 370.12 173.25 364.63 175.31 361.19 179.39 Z" />
<path fill="#000000" opacity="1.00" d=" M 251.89 159.70 C 254.64 154.72 256.20 149.16 259.20 144.30 C 258.87 146.44 258.41 148.56 257.62 150.58 C 254.04 159.89 249.39 168.74 244.48 177.40 C 239.48 186.11 232.87 193.99 224.59 199.75 C 224.38 202.34 224.18 204.92 224.04 207.52 C 223.10 204.42 221.88 201.31 221.95 198.02 C 224.68 195.33 228.16 193.57 230.90 190.89 C 240.20 182.26 246.07 170.79 251.89 159.70 Z" />
<path fill="#000000" opacity="1.00" d=" M 265.32 187.92 C 270.32 186.06 275.57 184.83 280.91 184.53 C 292.28 183.88 303.70 183.33 315.08 184.17 C 318.42 184.48 322.00 184.39 324.98 186.19 C 328.80 188.28 331.48 191.88 333.30 195.75 C 339.02 195.74 344.72 195.37 350.44 195.51 C 351.01 192.15 351.79 188.52 354.77 186.43 C 353.29 189.44 352.39 192.69 351.72 195.97 C 345.02 196.68 338.28 196.99 331.55 196.88 C 329.86 191.31 324.98 186.60 319.02 186.20 C 306.49 185.50 293.92 185.97 281.39 186.62 C 274.42 187.37 266.61 188.22 261.40 193.44 C 258.79 195.87 258.26 199.53 257.66 202.86 C 246.52 206.49 235.25 209.73 223.93 212.76 C 219.68 213.87 215.39 214.82 211.11 215.81 C 211.81 217.97 212.44 220.16 213.05 222.36 C 210.70 217.50 206.70 212.77 201.07 211.96 C 193.78 210.52 186.68 214.64 182.18 220.12 C 176.14 227.64 173.28 237.40 173.24 246.97 C 173.45 261.94 180.47 276.47 191.22 286.73 C 199.94 295.09 214.03 298.12 224.88 292.27 C 223.68 292.96 222.48 293.65 221.28 294.34 C 220.85 295.47 220.42 296.61 219.95 297.72 C 219.75 298.21 219.37 299.18 219.17 299.67 C 219.19 298.16 219.10 296.65 219.06 295.15 C 214.03 296.38 208.68 297.07 203.65 295.43 C 189.26 291.32 179.08 278.44 174.01 264.87 C 168.92 251.62 169.01 235.92 176.48 223.56 C 180.97 215.68 189.35 208.62 198.96 209.66 C 203.30 209.90 206.93 212.49 210.18 215.14 C 214.70 213.27 219.30 211.56 224.02 210.26 C 234.52 207.22 245.05 204.29 255.70 201.86 C 255.95 196.29 259.30 191.48 263.95 188.60 C 264.29 188.43 264.98 188.09 265.32 187.92 Z" />
<path fill="#000000" opacity="1.00" d=" M 277.43 193.70 C 288.48 191.69 299.78 191.03 310.98 192.04 C 315.26 192.47 320.21 192.29 323.60 195.38 C 326.84 198.26 326.43 203.02 326.38 206.96 C 325.86 213.23 325.66 219.67 323.52 225.65 C 322.36 228.43 320.59 231.90 317.15 232.01 C 322.85 228.36 323.42 221.03 323.75 214.91 C 323.90 209.77 324.58 204.49 323.37 199.44 C 321.98 195.67 317.40 195.31 314.00 195.01 C 300.63 193.95 287.07 193.70 273.78 195.73 C 274.87 194.86 275.98 193.89 277.43 193.70 Z" />
<path fill="#000000" opacity="1.00" d=" M 357.86 195.08 C 368.42 192.80 379.65 191.52 390.19 194.60 C 389.81 194.84 389.05 195.34 388.67 195.59 C 379.17 194.94 369.67 196.33 360.37 198.18 C 359.58 206.46 358.98 214.83 359.94 223.12 C 360.13 225.72 361.84 227.78 363.98 229.12 C 360.70 228.99 358.42 226.13 358.00 223.05 C 356.43 213.82 356.14 204.31 357.86 195.08 Z" />
<path fill="#000000" opacity="1.00" d=" M 391.06 196.08 C 391.30 195.72 391.79 195.00 392.03 194.64 C 392.14 195.24 392.34 196.43 392.45 197.02 C 390.29 207.16 389.88 217.54 390.37 227.85 L 389.39 228.88 C 386.64 218.17 387.05 206.42 391.06 196.08 Z" />
<path fill="#000000" opacity="1.00" d=" M 278.93 211.28 C 284.23 198.44 302.24 193.48 313.35 201.94 C 310.02 201.23 306.64 200.67 303.24 200.47 C 303.10 200.93 302.83 201.83 302.70 202.28 C 302.33 203.48 302.01 204.70 301.73 205.93 C 300.78 210.62 300.71 216.16 303.88 220.06 C 305.64 222.13 308.84 221.22 310.40 219.38 C 314.12 215.16 315.05 209.22 314.65 203.78 C 315.07 205.07 315.54 206.34 315.92 207.65 C 316.29 213.06 314.75 218.91 310.61 222.61 C 307.69 224.90 303.05 224.05 301.24 220.77 C 297.26 214.39 298.87 206.00 302.85 200.00 C 298.41 200.53 293.81 200.84 289.71 202.79 C 285.49 204.70 282.03 207.90 278.93 211.28 Z" />
<path fill="#000000" opacity="1.00" d=" M 361.98 204.20 C 367.73 198.85 376.90 199.01 383.57 202.50 C 384.32 203.03 385.65 203.37 385.48 204.53 C 385.94 210.03 385.33 216.96 380.03 220.04 C 376.88 221.97 372.55 219.97 371.55 216.54 C 370.47 212.57 371.70 208.42 373.72 204.96 C 373.76 205.52 373.85 206.64 373.90 207.20 C 373.88 208.41 373.85 209.63 373.83 210.86 C 373.89 213.35 373.17 216.78 375.93 218.14 C 377.54 219.47 379.61 218.10 380.74 216.81 C 383.77 213.34 384.34 208.53 384.57 204.10 C 379.42 203.15 374.22 201.29 368.95 202.60 C 366.59 202.98 364.28 203.58 361.98 204.20 Z" />
<path fill="#000000" opacity="1.00" d=" M 308.26 204.12 C 309.50 203.75 310.52 204.97 310.83 206.04 C 311.74 208.65 311.78 211.83 310.25 214.22 C 308.94 216.27 307.34 213.70 306.04 213.00 C 306.13 210.98 306.20 208.96 306.30 206.93 C 306.86 205.94 307.39 204.89 308.26 204.12 Z" />
<path fill="#000000" opacity="1.00" d=" M 378.07 205.34 C 379.50 205.40 381.85 204.97 382.05 207.03 C 382.38 209.56 383.20 213.93 379.96 214.78 C 378.25 214.36 377.98 212.42 377.43 211.04 C 377.68 209.14 377.91 207.24 378.07 205.34 Z" />
<path fill="#000000" opacity="1.00" d=" M 395.38 208.30 C 395.41 207.09 396.03 206.01 396.42 204.89 C 397.63 213.24 397.32 221.74 395.70 230.01 C 392.66 230.14 389.18 231.13 386.57 229.04 C 387.14 229.01 388.27 228.95 388.84 228.92 C 390.54 228.81 392.24 228.73 393.96 228.67 C 394.93 221.93 395.78 215.12 395.38 208.30 Z" />
<path fill="#000000" opacity="1.00" d=" M 269.71 227.26 C 268.65 222.78 266.76 218.20 267.75 213.53 C 268.65 218.24 269.84 222.90 271.46 227.41 C 272.23 229.50 273.47 232.01 276.01 232.18 C 288.17 233.97 300.58 233.90 312.78 232.56 C 313.03 232.77 313.52 233.19 313.77 233.40 C 301.25 234.65 288.53 236.61 275.99 234.64 C 272.31 234.16 270.51 230.47 269.71 227.26 Z" />
<path fill="#000000" opacity="1.00" d=" M 364.67 226.34 C 370.33 225.35 376.02 224.51 381.61 223.15 C 381.95 223.18 382.62 223.23 382.96 223.26 C 377.99 227.58 370.79 228.63 364.67 226.34 Z" />
<path fill="#000000" opacity="1.00" d=" M 195.42 226.35 C 197.15 224.55 200.35 225.30 201.46 227.44 C 206.77 235.20 211.61 243.27 216.69 251.18 C 215.25 252.13 213.06 252.83 213.01 254.90 C 212.22 258.80 215.53 261.66 218.07 264.04 C 221.10 266.79 224.33 270.54 223.36 274.97 C 221.92 280.30 215.52 282.89 210.47 281.38 C 200.33 278.48 189.75 271.38 188.19 260.13 C 191.00 270.89 201.46 277.67 211.84 279.75 C 216.05 280.85 222.15 278.03 221.48 273.04 C 220.03 266.80 212.37 264.44 211.14 258.06 C 210.44 255.43 211.75 252.94 213.35 250.96 C 209.88 245.30 206.53 239.56 203.01 233.93 C 201.71 231.88 200.88 229.47 199.08 227.79 C 197.63 227.40 196.43 228.53 195.38 229.33 C 191.16 233.06 186.78 236.64 183.20 241.01 C 186.44 235.50 190.56 230.52 195.42 226.35 Z" />
<path fill="#000000" opacity="1.00" d=" M 289.94 225.89 C 295.66 227.12 301.46 228.05 307.32 228.23 C 301.93 231.77 294.27 230.54 289.94 225.89 Z" />
<path fill="#000000" opacity="1.00" d=" M 199.25 253.00 C 195.44 247.00 196.79 238.04 202.48 233.69 C 200.33 239.91 198.70 246.36 199.25 253.00 Z" />
<path fill="#000000" opacity="1.00" d=" M 342.03 261.83 C 344.46 258.26 349.28 256.75 353.25 258.56 C 349.65 260.06 345.91 261.34 342.03 261.83 Z" />
<path fill="#000000" opacity="1.00" d=" M 319.67 286.13 C 330.39 284.10 340.94 279.09 352.06 281.18 C 356.21 282.00 361.45 283.30 362.89 287.87 C 363.35 293.85 362.24 300.40 358.14 305.02 C 356.82 306.39 355.45 308.07 353.39 308.18 C 346.45 309.17 339.17 309.13 332.53 306.64 C 327.14 304.86 322.52 301.47 317.99 298.15 C 316.47 297.11 315.44 295.58 314.49 294.06 C 315.42 294.67 316.35 295.31 317.28 295.94 C 327.45 302.73 339.75 307.12 352.10 305.67 C 353.77 305.58 355.17 304.60 356.53 303.73 C 360.55 299.48 362.04 293.60 362.15 287.89 C 360.84 284.13 356.51 283.49 353.07 283.07 C 343.41 282.41 333.98 285.22 324.40 286.04 C 327.73 287.36 331.13 289.37 334.86 288.85 C 339.50 288.25 344.16 287.45 348.86 287.81 C 352.69 287.96 356.39 289.13 360.23 289.11 C 357.85 290.91 354.76 290.24 352.00 290.29 C 347.32 290.06 342.62 290.37 338.02 291.25 C 344.45 292.62 351.83 295.32 354.83 301.65 C 345.51 294.35 332.99 291.76 321.46 294.20 C 324.04 292.45 327.06 291.61 330.08 290.94 C 326.87 288.86 323.73 286.11 319.67 286.13 Z" />
<path fill="#000000" opacity="1.00" d=" M 338.73 320.35 C 343.23 320.93 347.89 320.80 352.25 322.20 C 347.86 324.96 342.37 323.72 338.73 320.35 Z" />
<path fill="#000000" opacity="1.00" d=" M 639.86 352.89 C 643.43 350.00 648.28 349.63 652.68 350.13 L 652.69 351.36 C 647.02 351.89 640.76 353.55 637.97 359.05 C 638.04 356.91 638.00 354.35 639.86 352.89 Z" />
<path fill="#000000" opacity="1.00" d=" M 209.61 366.72 C 231.91 377.32 251.15 394.18 265.26 414.40 C 268.95 402.40 280.89 393.30 293.62 394.14 C 288.58 395.05 283.45 396.27 279.14 399.16 C 271.88 403.73 267.48 411.94 266.52 420.35 C 252.54 400.64 235.01 383.36 214.60 370.35 C 212.88 369.22 211.23 367.97 209.61 366.72 Z" />
<path fill="#000000" opacity="1.00" d=" M 84.10 429.50 C 98.19 428.04 112.61 433.48 122.58 443.46 C 136.77 456.81 143.11 475.85 148.52 494.02 C 151.55 503.19 153.62 513.25 160.31 520.59 C 166.74 527.84 177.11 530.25 182.79 538.29 C 187.72 545.37 190.12 553.78 193.53 561.63 C 200.92 580.43 209.01 598.98 215.84 617.99 C 206.48 596.70 197.17 575.40 188.02 554.02 C 185.05 547.39 182.77 539.90 176.74 535.30 C 169.74 529.99 160.78 526.96 155.63 519.45 C 149.41 511.47 148.25 501.13 145.24 491.77 C 140.63 476.89 135.53 461.65 125.68 449.33 C 115.84 436.87 100.26 428.29 84.10 429.50 Z" />
<path fill="#000000" opacity="1.00" d=" M 482.64 507.15 C 488.25 510.26 493.58 513.86 499.05 517.23 C 490.87 528.93 482.53 540.51 473.95 551.93 C 476.56 556.52 478.17 561.67 478.32 566.97 C 478.54 592.74 480.22 618.48 480.93 644.24 C 478.43 618.89 476.16 593.48 475.87 567.99 C 475.90 562.11 474.06 556.46 471.37 551.31 C 479.92 539.85 488.34 528.29 497.16 517.04 C 492.31 513.76 487.22 510.81 482.64 507.15 Z" />
<path fill="#000000" opacity="1.00" d=" M 563.37 514.22 C 563.40 516.49 563.31 518.78 562.81 521.01 C 554.44 559.83 545.66 598.57 535.79 637.04 C 535.27 638.87 534.39 640.57 533.57 642.29 C 542.19 599.30 552.65 556.72 563.37 514.22 Z" />
<path fill="#000000" opacity="1.00" d=" M 596.38 522.62 C 599.30 522.43 602.78 522.38 605.22 524.13 L 605.02 524.49 C 602.11 523.99 599.25 523.25 596.38 522.62 Z" />
<path fill="#000000" opacity="1.00" d=" M 606.07 524.29 C 607.40 523.87 608.86 524.47 610.21 524.64 C 645.91 532.36 681.57 540.23 717.06 548.86 C 712.78 568.23 707.88 587.47 703.41 606.80 C 686.31 603.02 669.44 598.21 652.33 594.45 C 623.60 587.35 594.57 581.50 565.94 573.96 C 568.83 560.55 572.07 547.22 575.31 533.90 C 575.78 532.06 576.14 530.06 577.56 528.68 C 574.72 543.22 571.80 557.74 568.73 572.24 C 612.97 582.36 656.73 594.48 701.11 604.01 C 702.91 604.90 702.74 602.21 703.21 601.25 C 706.76 584.27 710.62 567.36 714.30 550.41 C 678.07 542.34 641.99 533.60 605.96 524.71 L 606.07 524.29 Z" />
<path fill="#000000" opacity="1.00" d=" M 375.94 555.47 C 383.98 557.93 392.04 561.00 398.44 566.63 C 411.73 577.07 419.67 592.54 425.81 607.93 C 427.55 611.87 428.51 616.11 430.50 619.94 C 430.34 619.81 430.01 619.54 429.84 619.40 C 422.99 603.72 416.19 587.43 404.11 574.96 C 398.98 569.47 392.80 564.94 385.93 561.89 C 397.32 574.02 407.04 587.76 414.26 602.77 C 418.47 610.96 420.81 619.96 422.83 628.90 C 417.37 611.38 408.50 595.07 397.75 580.26 C 391.20 571.38 383.53 563.44 375.94 555.47 Z" />
<path fill="#000000" opacity="1.00" d=" M 562.83 596.81 C 565.76 592.13 572.43 591.84 577.10 593.77 C 584.24 597.14 589.66 603.73 597.62 605.48 C 604.05 606.80 610.50 609.01 615.10 613.94 C 627.79 626.94 639.58 640.79 651.71 654.31 C 653.42 656.13 654.80 658.22 656.02 660.41 C 643.77 647.51 631.62 634.50 619.58 621.40 C 616.17 617.81 612.83 613.94 608.39 611.58 C 602.11 608.31 594.52 608.39 588.62 604.27 C 584.33 601.31 580.44 597.76 575.76 595.39 C 574.92 598.76 574.11 602.14 573.30 605.53 C 577.56 607.12 581.39 604.41 584.93 602.42 C 583.51 604.74 581.87 607.20 579.19 608.19 C 576.62 609.39 572.77 609.67 571.15 606.85 C 570.09 602.36 573.31 598.58 575.28 594.89 C 572.32 594.97 568.80 594.14 566.38 596.32 C 563.78 598.47 563.78 602.28 564.80 605.22 C 566.40 609.28 569.30 612.63 572.04 615.97 C 579.76 624.96 588.46 633.30 594.21 643.79 L 594.34 645.21 C 591.05 640.99 588.00 636.57 584.34 632.66 C 577.95 625.38 570.56 618.98 564.95 611.04 C 562.13 607.01 560.39 601.42 562.83 596.81 Z" />
<path fill="#000000" opacity="1.00" d=" M 514.82 605.26 C 513.51 604.20 513.47 601.62 515.55 601.58 C 515.55 602.84 515.31 604.07 514.82 605.26 Z" />
</g>
<g id="#cfcfcfff">
<path fill="#cfcfcf" opacity="1.00" d=" M 709.05 44.36 C 709.35 44.69 709.35 44.69 709.05 44.36 Z" />
</g>
<g id="#fef2ceff">
<path fill="#fef2ce" opacity="1.00" d=" M 694.18 74.09 C 695.53 71.81 697.60 67.99 700.79 69.66 C 704.21 71.43 707.75 77.74 703.29 80.24 C 700.93 81.98 698.11 80.34 695.88 79.24 C 694.81 77.75 694.53 75.85 694.18 74.09 Z" />
<path fill="#fef2ce" opacity="1.00" d=" M 733.18 101.97 C 732.09 99.64 734.49 96.58 736.99 97.76 C 742.39 99.95 747.04 104.19 750.12 109.10 C 751.93 112.21 748.52 114.16 745.80 113.99 C 744.44 113.43 743.15 112.72 741.95 111.92 C 738.48 109.21 734.76 106.21 733.18 101.97 Z" />
<path fill="#fef2ce" opacity="1.00" d=" M 663.25 109.44 C 667.83 105.25 672.77 100.83 678.95 99.34 C 681.97 98.35 686.23 101.61 683.91 104.73 C 678.93 112.26 671.95 119.15 662.90 121.33 C 661.48 121.31 660.08 121.19 658.69 120.98 C 658.47 119.43 658.08 117.91 657.75 116.39 C 658.89 113.61 661.24 111.58 663.25 109.44 Z" />
<path fill="#fef2ce" opacity="1.00" d=" M 682.24 123.15 C 684.28 121.90 687.38 123.51 687.27 125.99 C 686.25 131.26 682.51 136.31 676.83 136.89 C 675.38 135.24 674.22 133.32 675.14 131.07 C 676.63 127.81 678.72 124.48 682.24 123.15 Z" />
<path fill="#fef2ce" opacity="1.00" d=" M 748.87 123.34 C 749.32 123.07 750.21 122.52 750.66 122.25 C 753.22 123.30 756.83 124.01 757.70 127.08 C 758.23 128.80 756.81 130.54 754.99 130.04 C 752.52 128.25 750.94 125.54 748.87 123.34 Z" />
</g>
<g id="#363439ff">
<path fill="#363439" opacity="1.00" d=" M 241.01 83.81 C 270.41 70.98 303.57 70.19 334.89 74.80 C 354.40 77.91 374.02 81.84 392.25 89.72 C 406.69 96.08 420.06 106.49 426.93 121.01 C 421.22 118.36 414.79 116.95 408.63 118.92 C 415.98 126.36 423.10 134.62 426.00 144.92 C 419.83 139.90 412.78 135.92 405.01 133.98 C 410.14 143.74 415.57 153.90 416.04 165.16 C 412.27 159.09 407.47 153.63 401.59 149.55 C 401.43 149.87 401.12 150.50 400.96 150.82 C 403.27 164.15 404.26 177.85 402.04 191.26 C 398.24 189.68 394.55 187.85 390.67 186.48 C 390.77 186.22 390.96 185.70 391.06 185.44 C 392.84 181.83 391.52 177.76 391.08 173.98 C 390.06 166.60 387.41 159.60 384.46 152.81 C 381.29 156.05 378.32 159.50 374.77 162.34 C 376.25 156.57 376.90 150.27 374.25 144.72 C 371.95 138.94 367.21 134.69 362.33 131.07 C 361.78 138.14 361.14 145.29 358.69 152.00 C 355.76 141.12 348.44 132.18 340.25 124.74 C 338.64 122.99 336.14 123.32 334.00 123.19 C 324.15 123.02 314.30 122.79 304.45 123.19 C 303.93 136.94 301.16 151.50 292.11 162.34 C 292.72 157.59 293.74 152.79 293.04 147.98 C 292.61 144.09 291.09 140.45 289.57 136.88 C 286.43 157.50 270.97 174.91 251.64 182.11 C 254.77 174.34 258.07 166.46 258.88 158.03 C 259.05 156.40 258.60 154.81 258.26 153.24 C 258.06 152.35 257.84 151.46 257.62 150.58 C 258.41 148.56 258.87 146.44 259.20 144.30 C 256.20 149.16 254.64 154.72 251.89 159.70 C 246.07 170.79 240.20 182.26 230.90 190.89 C 228.16 193.57 224.68 195.33 221.95 198.02 C 221.88 201.31 223.10 204.42 224.04 207.52 C 224.04 208.20 224.03 209.57 224.02 210.26 C 219.30 211.56 214.70 213.27 210.18 215.14 C 206.93 212.49 203.30 209.90 198.96 209.66 C 189.35 208.62 180.97 215.68 176.48 223.56 C 169.01 235.92 168.92 251.62 174.01 264.87 C 179.08 278.44 189.26 291.32 203.65 295.43 C 208.68 297.07 214.03 296.38 219.06 295.15 C 219.10 296.65 219.19 298.16 219.17 299.67 C 218.93 300.34 218.69 301.02 218.45 301.70 C 215.11 305.40 214.59 310.60 213.41 315.24 C 211.43 324.28 213.00 333.57 215.97 342.20 C 211.58 340.35 210.39 335.50 208.41 331.65 C 205.95 327.00 205.53 321.65 203.53 316.84 C 201.38 321.88 200.30 327.34 200.59 332.83 C 191.00 323.74 188.01 309.93 188.75 297.16 C 183.04 300.68 177.02 304.19 170.23 304.98 C 176.31 298.72 178.28 289.09 175.32 280.90 C 171.05 266.26 157.54 256.87 152.48 242.63 C 148.01 231.03 147.94 218.36 148.50 206.12 C 149.55 192.14 151.95 177.95 158.32 165.32 C 162.50 156.43 168.66 148.55 175.86 141.91 C 178.86 139.18 182.54 137.30 185.47 134.49 C 187.50 132.05 188.69 129.05 190.33 126.36 C 202.04 107.15 220.56 92.77 241.01 83.81 Z" />
<path fill="#363439" opacity="1.00" d=" M 211.11 215.81 C 215.39 214.82 219.68 213.87 223.93 212.76 C 224.05 216.04 224.26 219.35 225.32 222.48 L 225.39 222.72 C 221.67 223.29 217.73 226.64 214.10 224.68 C 213.73 223.91 213.38 223.14 213.05 222.36 C 212.44 220.16 211.81 217.97 211.11 215.81 Z" />
<path fill="#363439" opacity="1.00" d=" M 215.76 225.94 C 218.82 225.68 221.85 225.16 224.80 224.33 C 223.29 228.77 223.03 233.90 225.81 237.91 C 225.77 238.23 225.70 238.88 225.67 239.20 C 220.82 237.34 217.69 232.97 215.83 228.30 C 215.81 227.71 215.78 226.53 215.76 225.94 Z" />
</g>
<g id="#b79e35ff">
<path fill="#b79e35" opacity="1.00" d=" M 703.47 82.59 C 704.91 82.31 706.34 82.04 707.79 81.76 C 710.45 88.16 712.77 94.74 716.21 100.79 C 713.75 100.51 711.45 101.27 709.46 102.68 C 710.07 95.51 708.10 88.17 703.47 82.59 Z" />
<path fill="#b79e35" opacity="1.00" d=" M 709.14 103.89 C 711.90 103.62 714.63 103.10 717.32 102.39 C 718.04 102.74 718.76 103.12 719.48 103.52 C 721.84 105.43 724.04 107.55 726.13 109.76 L 724.73 109.86 C 723.34 109.85 721.98 109.59 720.61 109.63 C 719.02 110.23 717.94 111.65 716.70 112.73 C 715.40 110.72 714.08 108.72 712.58 106.86 L 711.80 106.34 C 711.08 105.69 710.37 105.04 709.68 104.39 L 709.14 103.89 Z" />
<path fill="#b79e35" opacity="1.00" d=" M 717.24 113.31 C 719.61 112.72 721.93 111.91 724.19 110.96 C 724.63 112.28 725.06 113.61 725.51 114.94 C 723.39 115.31 721.41 116.25 720.54 118.34 C 722.40 118.17 724.23 117.75 726.02 117.19 C 726.51 118.82 727.01 120.45 727.54 122.08 C 725.68 121.73 724.22 122.51 723.09 123.89 C 721.28 120.29 719.19 116.84 717.24 113.31 Z" />
<path fill="#b79e35" opacity="1.00" d=" M 723.37 124.65 C 724.96 124.55 726.49 124.07 727.85 123.22 C 729.04 128.59 731.34 133.62 733.36 138.72 C 733.98 140.10 733.84 141.64 733.89 143.12 C 732.64 142.50 730.71 142.51 730.37 140.85 C 728.31 135.34 726.29 129.78 723.37 124.65 Z" />
</g>
<g id="#f4d967ff">
<path fill="#f4d967" opacity="1.00" d=" M 709.88 82.48 C 716.72 82.06 723.36 84.41 729.30 87.62 C 737.17 91.79 744.69 96.66 751.61 102.28 C 761.57 110.35 769.87 121.73 770.80 134.88 C 771.13 138.92 770.87 144.03 767.00 146.37 C 763.29 148.36 760.00 144.72 757.83 142.12 C 748.73 130.70 738.55 120.07 727.14 110.96 C 735.86 119.23 743.77 128.27 751.42 137.53 C 754.91 141.62 757.99 146.81 763.51 148.33 C 764.01 154.43 759.00 162.62 752.08 161.08 C 748.30 159.83 745.77 156.49 743.72 153.28 C 735.66 139.94 730.56 125.15 724.66 110.81 L 724.73 109.86 L 726.13 109.76 C 724.04 107.55 721.84 105.43 719.48 103.52 C 713.89 97.89 712.70 89.60 709.88 82.48 M 734.39 95.38 C 731.99 96.51 730.27 99.34 731.49 101.96 C 733.42 106.54 737.77 109.52 741.95 111.92 C 743.15 112.72 744.44 113.43 745.80 113.99 C 748.13 114.92 751.56 113.65 751.55 110.84 C 751.14 106.72 748.14 103.47 745.50 100.53 C 742.55 97.69 738.81 94.45 734.39 95.38 M 750.66 122.25 C 750.21 122.52 749.32 123.07 748.87 123.34 C 750.38 126.50 750.93 130.79 754.35 132.54 C 758.15 134.19 761.73 129.31 759.76 125.98 C 758.29 122.54 754.01 121.60 750.66 122.25 Z" />
<path fill="#f4d967" opacity="1.00" d=" M 693.40 84.48 C 696.18 83.48 699.72 82.55 701.98 85.12 C 707.58 90.81 707.78 99.49 707.27 106.97 C 706.22 120.25 705.33 133.71 701.52 146.56 C 699.45 153.57 695.02 160.43 688.13 163.44 C 681.23 166.33 673.75 162.90 668.09 158.89 C 659.23 152.20 651.44 144.18 644.54 135.50 C 641.48 131.66 638.80 126.96 639.05 121.90 C 639.72 114.96 644.74 109.55 649.70 105.12 C 662.12 94.34 678.60 90.75 693.40 84.48 M 674.85 98.85 C 670.36 101.56 666.12 104.99 663.25 109.44 C 661.24 111.58 658.89 113.61 657.75 116.39 C 655.72 116.83 656.53 121.36 658.69 120.98 C 660.08 121.19 661.48 121.31 662.90 121.33 C 672.09 120.69 680.07 114.66 685.34 107.41 C 687.25 104.94 687.93 100.95 685.38 98.67 C 682.46 95.83 678.03 97.24 674.85 98.85 M 675.14 131.07 C 674.22 133.32 675.38 135.24 676.83 136.89 C 682.94 137.69 688.79 132.97 690.08 127.15 C 690.94 123.18 686.67 119.83 682.99 121.21 C 678.94 122.99 676.40 126.98 675.14 131.07 Z" />
<path fill="#f4d967" opacity="1.00" d=" M 709.68 104.39 C 710.37 105.04 711.08 105.69 711.80 106.34 C 721.04 122.09 728.32 139.08 732.56 156.87 C 733.21 159.90 733.40 163.78 730.68 165.89 C 727.62 167.94 723.76 166.66 720.55 165.67 C 712.69 162.80 705.47 158.01 700.02 151.64 C 706.68 136.83 708.22 120.38 709.68 104.39 Z" />
</g>
<g id="#1919198a">
<path fill="#191919" opacity="0.54" d=" M 201.18 108.07 C 200.96 106.58 201.59 105.95 203.08 106.18 C 203.08 107.45 202.45 108.08 201.18 108.07 Z" />
<path fill="#191919" opacity="0.54" d=" M 198.20 111.11 C 197.94 109.62 198.57 108.97 200.07 109.16 C 200.09 110.42 199.46 111.07 198.20 111.11 Z" />
</g>
<g id="#c6b886ff">
<path fill="#c6b886" opacity="1.00" d=" M 658.69 120.98 C 656.53 121.36 655.72 116.83 657.75 116.39 C 658.08 117.91 658.47 119.43 658.69 120.98 Z" />
</g>
<g id="#fcbf93ff">
<path fill="#fcbf93" opacity="1.00" d=" M 307.16 125.19 C 317.51 125.75 327.89 125.45 338.25 125.45 C 344.89 131.94 351.73 138.69 355.45 147.36 C 357.58 152.06 357.64 157.31 358.38 162.33 C 361.51 153.66 364.33 144.76 364.74 135.47 C 371.17 141.28 375.99 150.21 373.88 159.06 C 373.13 162.95 370.40 165.94 368.14 169.04 C 374.08 165.63 379.64 161.53 384.29 156.48 C 386.07 161.46 387.37 166.59 388.79 171.69 C 384.52 171.85 380.38 170.14 376.09 170.62 C 367.42 170.92 359.41 175.63 354.00 182.27 C 357.85 182.17 361.76 182.13 365.53 181.24 C 370.04 178.94 373.81 175.29 378.68 173.67 C 382.06 172.34 385.73 172.70 389.27 172.80 C 389.50 177.06 390.58 181.21 391.06 185.44 C 390.96 185.70 390.77 186.22 390.67 186.48 L 388.42 185.35 C 386.67 184.50 384.87 183.76 383.08 183.04 C 384.44 184.28 385.81 185.49 387.19 186.72 C 376.40 186.76 365.40 183.69 354.77 186.43 C 351.79 188.52 351.01 192.15 350.44 195.51 C 344.72 195.37 339.02 195.74 333.30 195.75 C 331.48 191.88 328.80 188.28 324.98 186.19 C 322.00 184.39 318.42 184.48 315.08 184.17 C 303.70 183.33 292.28 183.88 280.91 184.53 C 275.57 184.83 270.32 186.06 265.32 187.92 C 267.18 186.29 269.40 185.18 271.60 184.08 C 287.96 175.96 306.75 179.23 323.97 182.19 C 326.38 179.75 328.81 177.32 331.23 174.88 C 320.44 170.27 308.69 168.51 297.04 168.05 C 292.42 167.61 288.95 171.33 284.92 172.97 C 287.07 171.12 289.36 169.42 291.40 167.45 C 302.59 156.48 306.41 140.35 307.16 125.19 Z" />
<path fill="#fcbf93" opacity="1.00" d=" M 289.97 145.55 C 292.34 153.46 290.33 162.18 285.90 168.99 C 284.33 171.32 282.97 174.03 280.44 175.46 C 275.96 177.97 271.35 180.23 266.66 182.32 C 261.98 184.59 257.19 186.68 252.83 189.55 C 256.58 190.10 260.29 189.32 263.95 188.60 C 259.30 191.48 255.95 196.29 255.70 201.86 C 245.05 204.29 234.52 207.22 224.02 210.26 C 224.03 209.57 224.04 208.20 224.04 207.52 C 224.18 204.92 224.38 202.34 224.59 199.75 C 232.87 193.99 239.48 186.11 244.48 177.40 C 249.39 168.74 254.04 159.89 257.62 150.58 C 257.84 151.46 258.06 152.35 258.26 153.24 C 257.21 164.93 253.25 176.25 246.98 186.15 C 266.72 180.49 283.67 165.29 289.97 145.55 Z" />
<path fill="#fcbf93" opacity="1.00" d=" M 273.78 195.73 C 287.07 193.70 300.63 193.95 314.00 195.01 C 317.40 195.31 321.98 195.67 323.37 199.44 C 324.58 204.49 323.90 209.77 323.75 214.91 C 323.42 221.03 322.85 228.36 317.15 232.01 C 315.69 232.18 314.23 232.37 312.78 232.56 C 300.58 233.90 288.17 233.97 276.01 232.18 C 273.47 232.01 272.23 229.50 271.46 227.41 C 269.84 222.90 268.65 218.24 267.75 213.53 C 266.96 208.38 265.45 202.76 267.94 197.83 C 269.88 197.13 271.79 196.31 273.78 195.73 M 278.93 211.28 C 278.87 211.70 278.77 212.55 278.72 212.97 C 280.35 218.58 284.46 223.69 289.94 225.89 C 294.27 230.54 301.93 231.77 307.32 228.23 C 315.41 225.50 319.22 215.28 315.92 207.65 C 315.54 206.34 315.07 205.07 314.65 203.78 C 314.32 203.32 313.68 202.40 313.35 201.94 C 302.24 193.48 284.23 198.44 278.93 211.28 Z" />
<path fill="#fcbf93" opacity="1.00" d=" M 360.37 198.18 C 369.67 196.33 379.17 194.94 388.67 195.59 C 389.27 195.71 390.46 195.96 391.06 196.08 C 387.05 206.42 386.64 218.17 389.39 228.88 L 388.84 228.92 C 388.27 228.95 387.14 229.01 386.57 229.04 C 379.06 229.32 371.38 231.41 363.98 229.12 C 361.84 227.78 360.13 225.72 359.94 223.12 C 358.98 214.83 359.58 206.46 360.37 198.18 M 361.98 204.20 C 357.89 211.00 360.47 220.10 364.67 226.34 C 370.79 228.63 377.99 227.58 382.96 223.26 C 382.62 223.23 381.95 223.18 381.61 223.15 C 385.81 221.33 386.28 216.04 387.01 212.08 C 387.02 209.53 388.47 205.92 385.48 204.53 C 385.65 203.37 384.32 203.03 383.57 202.50 C 376.90 199.01 367.73 198.85 361.98 204.20 Z" />
<path fill="#fcbf93" opacity="1.00" d=" M 335.19 209.05 C 339.22 205.82 345.17 206.99 349.81 208.37 C 351.05 215.52 351.63 222.77 352.84 229.92 C 352.99 231.69 354.64 232.66 355.91 233.64 C 355.92 234.62 355.90 235.61 355.86 236.59 C 354.09 238.92 352.44 241.32 350.73 243.69 C 355.68 244.66 362.88 245.72 363.58 251.94 C 362.70 256.38 358.77 259.28 356.37 262.92 C 360.33 260.08 365.23 257.08 366.22 251.93 C 366.23 245.68 359.81 242.42 354.36 241.91 C 355.41 239.50 356.35 237.04 357.08 234.52 C 362.62 237.40 368.99 237.03 375.03 237.54 C 379.97 237.93 384.92 238.07 389.88 238.03 C 390.79 256.63 392.06 275.43 389.18 293.92 C 385.40 313.13 377.09 331.02 371.69 349.77 C 369.45 356.78 363.72 362.25 356.97 364.93 C 349.72 366.17 342.16 366.78 334.94 365.01 C 319.36 361.31 304.29 355.50 290.22 347.87 C 284.93 345.25 280.04 341.90 274.72 339.35 C 267.17 335.53 259.40 331.76 253.23 325.84 C 247.63 320.48 242.78 314.08 240.15 306.74 C 239.64 305.49 238.97 304.32 238.33 303.15 C 237.87 306.09 239.95 308.39 241.15 310.86 C 245.73 320.28 252.71 328.76 261.75 334.20 C 268.61 338.49 275.95 341.94 282.86 346.14 C 296.81 354.09 311.51 360.89 327.03 365.13 C 334.45 367.05 342.16 368.47 349.82 367.28 C 348.02 374.38 347.94 381.77 347.69 389.05 C 347.67 401.15 347.96 413.51 351.66 425.14 C 351.57 422.60 351.27 420.08 350.99 417.57 C 362.00 419.53 373.71 421.27 382.73 428.47 C 382.96 433.25 382.72 438.51 379.31 442.25 C 373.44 448.73 364.34 450.73 355.96 451.20 C 342.12 451.62 328.30 449.94 314.73 447.35 C 313.60 434.20 312.91 421.01 311.55 407.88 C 310.91 403.51 310.63 398.81 308.12 395.03 C 304.45 389.96 299.20 386.40 294.18 382.81 C 287.17 377.86 279.54 373.92 272.04 369.80 C 267.43 367.32 262.17 366.45 257.01 366.01 C 242.46 364.72 227.88 363.83 213.30 363.03 C 214.14 356.02 213.82 348.87 212.15 342.01 C 214.52 343.95 217.26 345.34 220.15 346.33 C 213.96 332.28 214.01 316.23 218.45 301.70 C 218.69 301.02 218.93 300.34 219.17 299.67 C 219.37 299.18 219.75 298.21 219.95 297.72 C 220.42 296.61 220.85 295.47 221.28 294.34 C 222.48 293.65 223.68 292.96 224.88 292.27 C 214.03 298.12 199.94 295.09 191.22 286.73 C 180.47 276.47 173.45 261.94 173.24 246.97 C 173.28 237.40 176.14 227.64 182.18 220.12 C 186.68 214.64 193.78 210.52 201.07 211.96 C 206.70 212.77 210.70 217.50 213.05 222.36 C 213.38 223.14 213.73 223.91 214.10 224.68 C 214.68 225.88 215.27 227.08 215.83 228.30 C 217.69 232.97 220.82 237.34 225.67 239.20 C 225.70 238.88 225.77 238.23 225.81 237.91 C 226.69 233.41 226.34 228.80 225.23 224.38 C 233.39 223.35 241.17 220.62 249.15 218.74 C 252.60 217.91 257.08 218.49 258.80 222.03 C 260.79 226.36 260.46 231.59 263.56 235.47 C 267.91 242.19 276.83 242.26 283.97 242.48 C 295.91 242.05 308.06 242.52 319.76 239.66 C 325.15 238.40 330.67 235.10 332.38 229.54 C 333.67 222.76 333.97 215.83 335.19 209.05 M 195.42 226.35 C 190.56 230.52 186.44 235.50 183.20 241.01 C 186.78 236.64 191.16 233.06 195.38 229.33 C 196.43 228.53 197.63 227.40 199.08 227.79 C 200.88 229.47 201.71 231.88 203.01 233.93 C 206.53 239.56 209.88 245.30 213.35 250.96 C 211.75 252.94 210.44 255.43 211.14 258.06 C 212.37 264.44 220.03 266.80 221.48 273.04 C 222.15 278.03 216.05 280.85 211.84 279.75 C 201.46 277.67 191.00 270.89 188.19 260.13 C 189.75 271.38 200.33 278.48 210.47 281.38 C 215.52 282.89 221.92 280.30 223.36 274.97 C 224.33 270.54 221.10 266.79 218.07 264.04 C 215.53 261.66 212.22 258.80 213.01 254.90 C 213.06 252.83 215.25 252.13 216.69 251.18 C 211.61 243.27 206.77 235.20 201.46 227.44 C 200.35 225.30 197.15 224.55 195.42 226.35 M 199.25 253.00 C 198.70 246.36 200.33 239.91 202.48 233.69 C 196.79 238.04 195.44 247.00 199.25 253.00 M 342.03 261.83 C 345.91 261.34 349.65 260.06 353.25 258.56 C 349.28 256.75 344.46 258.26 342.03 261.83 M 319.67 286.13 C 316.72 287.67 314.42 290.24 313.76 293.57 L 314.49 294.06 C 315.44 295.58 316.47 297.11 317.99 298.15 C 322.52 301.47 327.14 304.86 332.53 306.64 C 339.17 309.13 346.45 309.17 353.39 308.18 C 355.45 308.07 356.82 306.39 358.14 305.02 C 362.24 300.40 363.35 293.85 362.89 287.87 C 361.45 283.30 356.21 282.00 352.06 281.18 C 340.94 279.09 330.39 284.10 319.67 286.13 M 338.73 320.35 C 342.37 323.72 347.86 324.96 352.25 322.20 C 347.89 320.80 343.23 320.93 338.73 320.35 Z" />
<path fill="#fcbf93" opacity="1.00" d=" M 528.30 274.65 C 530.07 274.79 532.36 274.92 533.28 276.76 C 535.39 281.05 533.64 285.85 531.89 289.93 C 527.07 300.42 518.40 308.75 508.47 314.44 C 507.11 321.64 502.92 327.86 497.54 332.69 C 499.05 337.74 497.98 343.05 495.53 347.61 C 506.98 346.58 518.49 345.88 529.99 346.50 C 537.04 346.32 544.03 347.86 551.06 347.74 C 564.12 344.44 577.40 341.57 590.92 341.17 C 594.82 341.29 598.05 338.91 601.55 337.58 C 609.67 334.52 618.32 333.09 626.97 332.77 C 632.70 332.42 638.54 332.35 644.17 333.68 C 647.51 334.46 651.05 336.82 651.26 340.58 C 650.80 340.81 649.90 341.26 649.45 341.48 C 647.59 339.43 644.56 339.41 642.02 339.52 C 639.09 339.88 635.43 340.85 634.26 343.91 C 633.48 345.61 634.55 347.31 635.08 348.90 C 622.75 352.99 609.75 355.18 597.92 360.73 C 587.28 365.87 576.51 370.86 565.29 374.61 C 576.21 372.47 586.66 368.35 596.75 363.72 C 614.75 355.59 636.00 355.06 651.93 342.41 C 655.48 344.77 656.35 351.02 652.05 353.05 C 639.28 359.69 625.69 364.77 613.45 372.44 C 600.63 380.54 586.99 387.69 572.28 391.61 C 575.32 392.08 578.03 390.55 580.82 389.61 C 589.09 387.06 597.29 384.14 604.99 380.16 C 610.59 377.53 615.61 373.85 621.03 370.90 C 627.52 367.33 634.37 364.48 640.87 360.94 C 640.14 362.25 639.44 363.57 638.82 364.94 C 639.81 365.75 640.03 367.03 640.35 368.21 C 628.46 372.97 616.74 378.60 606.45 386.31 C 597.10 392.97 586.67 397.91 575.89 401.76 C 587.86 399.20 599.31 394.27 609.39 387.32 C 615.91 382.74 623.07 379.21 630.12 375.54 C 629.96 377.57 629.78 379.62 629.94 381.67 C 615.51 393.20 599.30 402.19 583.24 411.21 C 577.70 414.31 571.83 416.86 566.46 420.25 C 555.31 429.28 543.30 437.43 530.10 443.15 C 522.89 446.20 515.14 448.12 508.59 452.54 C 501.87 457.04 495.96 463.31 493.33 471.07 C 492.57 473.25 491.58 475.35 490.52 477.41 C 472.64 512.69 455.95 548.92 446.46 587.48 C 445.78 589.55 445.21 591.67 444.87 593.84 C 439.72 582.04 434.89 570.09 429.52 558.39 C 425.88 550.68 420.90 542.95 412.96 539.16 C 403.76 534.38 393.15 534.88 383.14 533.66 C 371.63 532.44 361.06 527.17 349.63 525.56 L 350.76 524.38 C 351.56 523.54 352.33 522.67 353.08 521.78 C 377.74 493.84 403.15 466.54 426.95 437.85 C 426.84 429.83 428.14 421.86 430.27 414.15 C 433.77 401.01 434.83 387.42 436.14 373.93 C 436.66 367.72 438.62 361.52 442.65 356.67 C 451.33 345.83 459.42 334.52 466.77 322.73 C 471.55 315.35 476.23 307.73 482.70 301.67 C 491.45 293.46 501.76 287.01 512.66 282.06 C 513.71 285.65 514.44 289.85 517.51 292.33 C 520.77 294.05 523.77 291.02 526.44 289.51 C 528.51 287.92 531.63 286.90 532.23 284.05 C 532.73 280.42 529.93 277.59 528.30 274.65 M 639.86 352.89 C 638.00 354.35 638.04 356.91 637.97 359.05 C 640.76 353.55 647.02 351.89 652.69 351.36 L 652.68 350.13 C 648.28 349.63 643.43 350.00 639.86 352.89 Z" />
<path fill="#fcbf93" opacity="1.00" d=" M 512.98 281.81 C 517.98 279.41 523.01 277.08 528.17 275.05 C 528.76 277.93 531.59 280.94 529.95 283.87 C 526.67 286.62 522.79 288.61 519.01 290.60 C 516.57 287.98 514.66 284.94 512.98 281.81 Z" />
<path fill="#fcbf93" opacity="1.00" d=" M 637.35 343.35 C 641.03 341.62 645.22 341.38 649.23 341.54 C 645.18 344.93 640.21 346.95 635.29 348.69 C 635.11 346.72 635.46 344.42 637.35 343.35 Z" />
<path fill="#fcbf93" opacity="1.00" d=" M 643.69 359.75 C 646.66 358.08 649.60 356.34 652.78 355.10 C 651.20 361.30 646.08 365.55 640.38 367.91 C 640.59 367.23 641.03 365.88 641.25 365.21 C 642.59 363.66 643.15 361.68 643.69 359.75 Z" />
<path fill="#fcbf93" opacity="1.00" d=" M 632.15 374.39 C 634.88 373.10 637.52 371.60 640.18 370.16 C 638.35 373.98 635.33 377.03 632.14 379.74 C 632.14 377.95 632.15 376.17 632.15 374.39 Z" />
<path fill="#fcbf93" opacity="1.00" d=" M 566.38 596.32 C 568.80 594.14 572.32 594.97 575.28 594.89 C 573.31 598.58 570.09 602.36 571.15 606.85 C 572.77 609.67 576.62 609.39 579.19 608.19 C 581.87 607.20 583.51 604.74 584.93 602.42 C 581.39 604.41 577.56 607.12 573.30 605.53 C 574.11 602.14 574.92 598.76 575.76 595.39 C 580.44 597.76 584.33 601.31 588.62 604.27 C 594.52 608.39 602.11 608.31 608.39 611.58 C 612.83 613.94 616.17 617.81 619.58 621.40 C 631.62 634.50 643.77 647.51 656.02 660.41 C 658.17 663.01 660.53 665.42 662.84 667.88 C 640.91 670.81 618.60 664.90 599.04 655.15 C 597.83 651.21 596.43 647.29 594.21 643.79 C 588.46 633.30 579.76 624.96 572.04 615.97 C 569.30 612.63 566.40 609.28 564.80 605.22 C 563.78 602.28 563.78 598.47 566.38 596.32 Z" />
</g>
<g id="#343137ff">
<path fill="#343137" opacity="1.00" d=" M 286.34 174.35 C 289.73 172.69 293.02 170.12 297.02 170.53 C 306.79 171.03 316.85 172.20 325.89 176.12 C 324.96 177.81 323.28 179.73 321.14 179.30 C 310.61 177.93 299.96 176.09 289.33 177.50 C 284.53 177.91 279.95 179.48 275.25 180.39 C 278.48 177.59 282.65 176.37 286.34 174.35 Z" />
<path fill="#343137" opacity="1.00" d=" M 252.83 189.55 C 257.19 186.68 261.98 184.59 266.66 182.32 C 268.31 182.90 269.96 183.49 271.60 184.08 C 269.40 185.18 267.18 186.29 265.32 187.92 C 264.98 188.09 264.29 188.43 263.95 188.60 C 260.29 189.32 256.58 190.10 252.83 189.55 Z" />
</g>
<g id="#2c292fff">
<path fill="#2c292f" opacity="1.00" d=" M 361.19 179.39 C 364.63 175.31 370.12 173.25 375.34 172.84 C 370.75 175.23 366.66 179.54 361.19 179.39 Z" />
</g>
<g id="#543929ff">
<path fill="#543929" opacity="1.00" d=" M 383.08 183.04 C 384.87 183.76 386.67 184.50 388.42 185.35 C 388.05 186.64 389.20 187.31 390.03 188.00 C 392.88 190.14 395.95 191.98 398.98 193.85 C 398.35 205.87 403.01 217.61 401.40 229.63 C 401.02 232.18 398.11 232.84 395.98 233.15 C 391.32 233.79 386.79 235.62 382.01 234.98 C 374.94 234.32 367.65 235.55 360.77 233.44 C 358.26 232.52 354.97 231.42 354.52 228.37 C 353.21 221.27 352.59 214.05 351.22 206.96 C 345.47 204.37 337.76 203.09 332.69 207.60 C 331.20 214.58 331.20 221.81 329.70 228.78 C 327.45 234.19 321.29 236.47 315.93 237.44 C 305.42 239.31 294.68 239.38 284.04 239.43 C 277.72 239.25 270.24 239.55 265.69 234.33 C 261.26 229.66 262.91 222.09 258.35 217.57 C 255.67 214.81 251.39 215.23 247.99 216.04 C 240.41 218.11 232.88 220.36 225.32 222.48 C 224.26 219.35 224.05 216.04 223.93 212.76 C 235.25 209.73 246.52 206.49 257.66 202.86 C 258.26 199.53 258.79 195.87 261.40 193.44 C 266.61 188.22 274.42 187.37 281.39 186.62 C 293.92 185.97 306.49 185.50 319.02 186.20 C 324.98 186.60 329.86 191.31 331.55 196.88 C 338.28 196.99 345.02 196.68 351.72 195.97 C 352.39 192.69 353.29 189.44 354.77 186.43 C 365.40 183.69 376.40 186.76 387.19 186.72 C 385.81 185.49 384.44 184.28 383.08 183.04 M 277.43 193.70 C 275.98 193.89 274.87 194.86 273.78 195.73 C 271.79 196.31 269.88 197.13 267.94 197.83 C 265.45 202.76 266.96 208.38 267.75 213.53 C 266.76 218.20 268.65 222.78 269.71 227.26 C 270.51 230.47 272.31 234.16 275.99 234.64 C 288.53 236.61 301.25 234.65 313.77 233.40 C 313.52 233.19 313.03 232.77 312.78 232.56 C 314.23 232.37 315.69 232.18 317.15 232.01 C 320.59 231.90 322.36 228.43 323.52 225.65 C 325.66 219.67 325.86 213.23 326.38 206.96 C 326.43 203.02 326.84 198.26 323.60 195.38 C 320.21 192.29 315.26 192.47 310.98 192.04 C 299.78 191.03 288.48 191.69 277.43 193.70 M 357.86 195.08 C 356.14 204.31 356.43 213.82 358.00 223.05 C 358.42 226.13 360.70 228.99 363.98 229.12 C 371.38 231.41 379.06 229.32 386.57 229.04 C 389.18 231.13 392.66 230.14 395.70 230.01 C 397.32 221.74 397.63 213.24 396.42 204.89 C 396.03 206.01 395.41 207.09 395.38 208.30 C 395.24 206.78 395.10 205.26 394.97 203.74 C 396.91 204.03 396.54 199.87 394.70 200.38 C 394.60 198.96 394.51 197.53 394.44 196.11 C 393.96 196.19 393.01 196.36 392.53 196.44 L 392.45 197.02 C 392.34 196.43 392.14 195.24 392.03 194.64 C 391.79 195.00 391.30 195.72 391.06 196.08 C 390.46 195.96 389.27 195.71 388.67 195.59 C 389.05 195.34 389.81 194.84 390.19 194.60 C 379.65 191.52 368.42 192.80 357.86 195.08 Z" />
</g>
<g id="#1a120eff">
<path fill="#1a120e" opacity="1.00" d=" M 394.70 200.38 C 396.54 199.87 396.91 204.03 394.97 203.74 C 394.83 202.62 394.74 201.50 394.70 200.38 Z" />
</g>
<g id="#442e21ff">
<path fill="#442e21" opacity="1.00" d=" M 401.80 199.55 C 404.68 201.05 405.03 204.25 404.08 207.05 C 403.64 207.23 402.77 207.60 402.33 207.78 C 402.07 205.04 401.86 202.29 401.80 199.55 Z" />
</g>
<g id="#48466fff">
<path fill="#48466f" opacity="1.00" d=" M 303.24 200.47 C 306.64 200.67 310.02 201.23 313.35 201.94 C 313.68 202.40 314.32 203.32 314.65 203.78 C 315.05 209.22 314.12 215.16 310.40 219.38 C 308.84 221.22 305.64 222.13 303.88 220.06 C 300.71 216.16 300.78 210.62 301.73 205.93 C 301.14 209.04 301.42 212.33 303.64 214.76 C 304.24 214.32 305.44 213.44 306.04 213.00 C 307.34 213.70 308.94 216.27 310.25 214.22 C 311.78 211.83 311.74 208.65 310.83 206.04 C 310.52 204.97 309.50 203.75 308.26 204.12 C 307.39 204.89 306.86 205.94 306.30 206.93 C 306.54 204.49 304.87 202.96 302.70 202.28 C 302.83 201.83 303.10 200.93 303.24 200.47 Z" />
<path fill="#48466f" opacity="1.00" d=" M 368.95 202.60 C 374.22 201.29 379.42 203.15 384.57 204.10 C 384.34 208.53 383.77 213.34 380.74 216.81 C 379.61 218.10 377.54 219.47 375.93 218.14 C 373.17 216.78 373.89 213.35 373.83 210.86 C 374.43 211.30 375.64 212.18 376.25 212.62 C 376.54 212.22 377.13 211.43 377.43 211.04 C 377.98 212.42 378.25 214.36 379.96 214.78 C 383.20 213.93 382.38 209.56 382.05 207.03 C 381.85 204.97 379.50 205.40 378.07 205.34 C 377.37 204.39 376.66 203.45 375.94 202.53 C 375.23 204.07 374.52 205.62 373.90 207.20 C 373.85 206.64 373.76 205.52 373.72 204.96 C 373.72 204.35 373.71 203.74 373.68 203.13 C 372.32 202.07 370.52 202.62 368.95 202.60 Z" />
</g>
<g id="#9b5347ff">
<path fill="#9b5347" opacity="1.00" d=" M 313.76 293.57 C 314.42 290.24 316.72 287.67 319.67 286.13 C 323.73 286.11 326.87 288.86 330.08 290.94 C 327.06 291.61 324.04 292.45 321.46 294.20 C 320.07 294.79 318.67 295.36 317.28 295.94 C 316.35 295.31 315.42 294.67 314.49 294.06 L 313.76 293.57 Z" />
<path fill="#9b5347" opacity="1.00" d=" M 362.15 287.89 C 362.04 293.60 360.55 299.48 356.53 303.73 C 355.98 303.01 355.40 302.34 354.83 301.65 C 351.83 295.32 344.45 292.62 338.02 291.25 C 342.62 290.37 347.32 290.06 352.00 290.29 C 354.76 290.24 357.85 290.91 360.23 289.11 C 360.71 288.80 361.67 288.19 362.15 287.89 Z" />
</g>
<g id="#e7b0b0ff">
<path fill="#e7b0b0" opacity="1.00" d=" M 321.46 294.20 C 332.99 291.76 345.51 294.35 354.83 301.65 C 355.40 302.34 355.98 303.01 356.53 303.73 C 355.17 304.60 353.77 305.58 352.10 305.67 C 339.75 307.12 327.45 302.73 317.28 295.94 C 318.67 295.36 320.07 294.79 321.46 294.20 Z" />
</g>
<g id="#6c6c6c99">
<path fill="#6c6c6c" opacity="0.60" d=" M 153.78 307.91 C 154.83 307.21 155.92 307.01 157.04 307.30 C 156.69 307.73 155.99 308.58 155.64 309.00 C 154.90 309.84 152.16 308.95 153.78 307.91 Z" />
</g>
<g id="#565656af">
<path fill="#565656" opacity="0.69" d=" M 203.95 336.21 C 202.85 332.91 202.66 329.39 203.40 325.99 C 203.62 327.03 204.89 328.08 204.32 329.20 L 203.99 330.22 C 203.86 332.21 203.94 334.21 203.95 336.21 Z" />
</g>
<g id="#c23724ff">
<path fill="#c23724" opacity="1.00" d=" M 160.72 362.47 C 163.31 363.73 166.06 364.86 169.00 364.70 C 179.68 364.27 190.37 364.96 201.04 365.50 C 203.71 365.65 206.41 365.74 209.01 366.45 L 209.61 366.72 C 211.23 367.97 212.88 369.22 214.60 370.35 C 235.01 383.36 252.54 400.64 266.52 420.35 C 267.48 411.94 271.88 403.73 279.14 399.16 C 283.45 396.27 288.58 395.05 293.62 394.14 C 299.16 394.30 304.92 396.33 308.31 400.94 C 312.39 422.45 311.82 444.58 315.91 466.10 C 316.51 470.40 320.59 472.91 324.00 474.98 C 333.99 480.28 345.10 482.94 356.03 485.59 C 359.48 486.29 362.27 488.87 363.82 491.96 C 365.07 495.84 364.71 499.97 365.49 503.94 C 365.59 504.42 365.77 505.40 365.86 505.89 C 361.68 511.25 356.68 515.99 353.08 521.78 C 352.33 522.67 351.56 523.54 350.76 524.38 C 349.32 526.05 346.93 525.06 345.05 525.21 C 339.76 524.82 334.59 526.30 329.65 528.02 C 329.03 527.01 328.40 526.01 327.78 525.02 C 324.69 519.40 319.77 515.19 315.21 510.82 C 309.14 505.15 302.84 499.71 296.08 494.87 C 278.02 481.75 260.77 467.56 243.67 453.22 C 234.85 445.80 225.83 438.51 218.27 429.75 C 211.44 422.20 204.81 414.47 198.52 406.46 C 196.38 403.49 192.69 402.48 189.41 401.35 C 183.27 399.56 177.18 397.59 170.97 396.03 C 167.24 395.16 164.02 393.01 160.74 391.14 C 160.75 381.58 160.78 372.03 160.72 362.47 Z" />
<path fill="#c23724" opacity="1.00" d=" M 471.81 522.24 C 474.30 516.54 477.10 510.98 479.70 505.33 C 480.67 505.92 481.65 506.53 482.64 507.15 C 487.22 510.81 492.31 513.76 497.16 517.04 C 488.34 528.29 479.92 539.85 471.37 551.31 C 474.06 556.46 475.90 562.11 475.87 567.99 C 476.16 593.48 478.43 618.89 480.93 644.24 L 481.00 645.24 C 464.98 645.03 448.96 645.06 432.94 644.86 C 440.41 637.25 448.88 629.24 450.59 618.16 C 452.41 609.55 447.90 601.57 444.87 593.84 C 445.21 591.67 445.78 589.55 446.46 587.48 C 450.47 578.07 452.70 567.99 456.78 558.59 C 458.77 558.80 460.78 559.00 462.78 559.19 C 468.26 547.81 473.69 536.40 478.44 524.69 C 476.27 523.75 474.05 522.96 471.81 522.24 Z" />
</g>
<g id="#c9c9ffff">
<path fill="#c9c9ff" opacity="1.00" d=" M 154.92 404.63 C 158.61 402.07 162.30 399.51 165.98 396.95 C 175.11 400.56 185.12 401.69 193.97 406.10 C 195.62 407.02 196.63 408.69 197.81 410.11 C 207.05 422.11 216.95 433.69 228.38 443.67 C 242.33 455.83 256.79 467.38 271.42 478.71 C 290.46 493.78 312.28 505.92 327.78 525.02 C 328.40 526.01 329.03 527.01 329.65 528.02 C 316.04 533.67 306.10 545.03 297.35 556.46 C 292.53 562.79 287.41 569.09 284.29 576.48 C 274.88 573.84 265.52 570.96 256.24 567.86 C 251.07 549.37 245.40 531.01 238.90 512.95 C 234.89 501.97 230.60 490.89 223.51 481.48 C 210.91 464.19 196.28 448.47 183.71 431.16 C 176.01 420.61 166.95 410.27 154.92 404.63 Z" />
<path fill="#c9c9ff" opacity="1.00" d=" M 150.83 412.53 C 152.15 410.01 153.41 407.47 154.58 404.88 C 163.85 410.01 171.62 417.57 177.82 426.11 C 184.13 434.77 190.17 443.63 196.93 451.97 C 203.35 459.90 209.70 467.90 215.92 476.00 C 222.77 484.65 228.56 494.13 232.58 504.43 C 241.20 525.54 248.19 547.29 255.12 569.01 C 263.84 571.34 272.43 574.49 281.40 575.69 C 282.14 576.47 282.88 577.25 283.61 578.06 C 281.86 582.03 281.48 586.39 281.32 590.68 C 271.52 594.71 262.31 600.32 251.91 602.74 C 247.41 603.65 242.45 602.83 238.35 605.27 C 233.63 607.91 231.46 613.13 228.62 617.45 C 222.02 627.91 212.56 636.21 202.15 642.77 C 211.98 637.64 220.61 630.26 227.45 621.55 C 230.92 617.24 233.18 611.95 237.40 608.27 C 240.94 605.46 245.63 605.32 249.93 605.05 C 266.47 603.43 279.41 590.67 295.99 589.18 C 309.78 588.19 323.84 592.11 335.32 599.78 C 348.95 608.22 358.86 621.25 367.37 634.58 C 371.16 640.29 374.09 646.50 377.59 652.38 C 377.39 652.92 376.99 654.02 376.79 654.56 L 377.84 652.80 L 379.15 654.41 C 375.65 648.57 373.04 642.26 369.68 636.35 C 364.21 626.52 357.79 617.14 349.96 609.02 C 336.77 595.92 318.93 586.68 300.04 586.75 C 293.59 586.44 287.37 588.32 281.44 590.63 C 282.35 586.36 283.00 581.93 285.22 578.10 C 291.39 567.04 299.38 557.13 307.77 547.69 C 316.18 538.30 327.04 530.13 339.85 528.41 C 354.22 526.70 367.15 534.74 381.12 536.37 C 391.63 537.90 402.93 536.98 412.56 542.21 C 421.24 546.87 425.53 556.31 429.27 564.94 C 434.67 577.98 440.58 590.80 445.87 603.89 C 448.90 610.93 448.69 619.26 444.96 626.00 C 440.69 633.40 434.74 639.66 428.55 645.48 C 425.55 647.57 422.37 649.51 419.00 650.96 C 379.56 656.67 339.81 660.46 299.98 661.75 C 253.94 663.18 207.69 661.78 162.05 655.27 C 150.59 653.47 139.12 651.55 127.86 648.72 C 118.14 646.31 108.21 643.27 100.41 636.70 C 88.27 626.85 77.79 615.09 68.32 602.69 C 55.35 585.14 44.46 565.83 37.85 544.96 C 32.50 527.61 30.16 508.90 34.12 491.00 C 39.27 468.22 53.23 447.54 72.45 434.27 C 95.27 418.71 123.42 411.97 150.83 412.53 M 84.10 429.50 C 100.26 428.29 115.84 436.87 125.68 449.33 C 135.53 461.65 140.63 476.89 145.24 491.77 C 148.25 501.13 149.41 511.47 155.63 519.45 C 160.78 526.96 169.74 529.99 176.74 535.30 C 182.77 539.90 185.05 547.39 188.02 554.02 C 197.17 575.40 206.48 596.70 215.84 617.99 C 209.01 598.98 200.92 580.43 193.53 561.63 C 190.12 553.78 187.72 545.37 182.79 538.29 C 177.11 530.25 166.74 527.84 160.31 520.59 C 153.62 513.25 151.55 503.19 148.52 494.02 C 143.11 475.85 136.77 456.81 122.58 443.46 C 112.61 433.48 98.19 428.04 84.10 429.50 M 375.94 555.47 C 383.53 563.44 391.20 571.38 397.75 580.26 C 408.50 595.07 417.37 611.38 422.83 628.90 C 420.81 619.96 418.47 610.96 414.26 602.77 C 407.04 587.76 397.32 574.02 385.93 561.89 C 392.80 564.94 398.98 569.47 404.11 574.96 C 416.19 587.43 422.99 603.72 429.84 619.40 C 430.01 619.54 430.34 619.81 430.50 619.94 C 428.51 616.11 427.55 611.87 425.81 607.93 C 419.67 592.54 411.73 577.07 398.44 566.63 C 392.04 561.00 383.98 557.93 375.94 555.47 Z" />
<path fill="#c9c9ff" opacity="1.00" d=" M 479.70 505.33 C 484.69 494.64 489.77 483.99 494.69 473.27 C 507.80 478.99 521.25 483.97 534.97 488.06 C 542.03 490.30 549.98 492.53 554.35 499.05 C 546.71 498.32 539.09 497.40 531.43 497.00 C 525.54 525.37 519.50 553.71 513.56 582.08 C 510.00 576.66 507.55 570.62 504.48 564.92 C 510.25 556.67 515.77 548.25 521.33 539.85 C 512.33 519.35 503.38 498.79 493.10 478.90 C 495.92 486.81 499.31 494.51 502.76 502.16 C 508.46 514.27 513.36 526.74 518.94 538.90 C 513.33 547.27 508.17 555.91 502.64 564.32 C 506.16 570.28 509.11 576.65 513.43 582.09 C 509.27 603.19 504.66 624.21 500.30 645.27 C 493.87 645.23 487.43 645.27 481.00 645.24 L 480.93 644.24 C 480.22 618.48 478.54 592.74 478.32 566.97 C 478.17 561.67 476.56 556.52 473.95 551.93 C 482.53 540.51 490.87 528.93 499.05 517.23 C 493.58 513.86 488.25 510.26 482.64 507.15 C 481.65 506.53 480.67 505.92 479.70 505.33 Z" />
</g>
<g id="#3737377e">
<path fill="#373737" opacity="0.49" d=" M 82.35 425.20 C 81.91 423.64 84.80 422.55 86.00 423.20 C 85.21 424.41 83.94 425.64 82.35 425.20 Z" />
</g>
<g id="#ffeea4ff">
<path fill="#ffeea4" opacity="1.00" d=" M 383.00 428.35 C 388.01 432.32 391.15 437.98 394.83 443.09 C 398.54 448.32 401.67 453.92 404.98 459.41 C 395.70 470.95 385.88 482.05 376.40 493.41 C 372.86 497.40 369.74 501.78 365.78 505.38 L 365.49 503.94 C 364.71 499.97 365.07 495.84 363.82 491.96 C 362.83 488.29 359.59 485.49 355.98 484.52 C 345.81 481.60 335.44 478.92 325.96 474.10 C 322.75 472.21 319.05 470.27 317.50 466.68 C 315.69 460.43 315.44 453.90 314.73 447.47 C 326.42 451.34 338.74 453.36 351.04 453.77 C 361.06 453.72 372.35 452.26 379.54 444.53 C 383.61 440.18 384.06 433.93 383.00 428.35 Z" />
</g>
<g id="#64422eff">
<path fill="#64422e" opacity="1.00" d=" M 533.26 500.06 C 535.81 500.13 538.36 500.24 540.91 500.39 C 539.67 500.59 538.43 500.77 537.20 500.98 C 529.97 532.92 522.91 564.90 515.69 596.84 C 515.36 598.36 515.52 599.92 515.55 601.47 L 515.55 601.58 C 513.47 601.62 513.51 604.20 514.82 605.26 C 510.92 622.93 506.25 640.42 502.19 658.05 C 504.20 658.05 506.23 658.07 508.27 658.09 C 505.34 658.56 502.37 658.54 499.42 658.44 C 503.16 645.21 505.58 631.68 508.47 618.25 C 516.70 578.85 525.11 539.48 533.26 500.06 Z" />
<path fill="#64422e" opacity="1.00" d=" M 565.19 500.50 C 568.50 500.58 571.84 500.11 575.13 500.65 C 626.94 513.69 678.82 526.47 730.59 539.68 C 720.90 578.84 710.75 617.89 700.99 657.03 C 700.71 658.59 700.00 660.22 698.15 660.21 C 686.37 662.72 674.67 665.60 662.84 667.88 C 660.53 665.42 658.17 663.01 656.02 660.41 C 654.80 658.22 653.42 656.13 651.71 654.31 C 639.58 640.79 627.79 626.94 615.10 613.94 C 610.50 609.01 604.05 606.80 597.62 605.48 C 589.66 603.73 584.24 597.14 577.10 593.77 C 572.43 591.84 565.76 592.13 562.83 596.81 C 560.39 601.42 562.13 607.01 564.95 611.04 C 570.56 618.98 577.95 625.38 584.34 632.66 C 588.00 636.57 591.05 640.99 594.34 645.21 L 594.21 643.79 C 596.43 647.29 597.83 651.21 599.04 655.15 C 577.38 656.08 555.70 656.50 534.04 657.34 C 532.09 657.40 530.03 657.49 528.30 656.40 C 528.89 656.29 530.07 656.06 530.66 655.95 C 531.16 653.04 531.74 650.14 532.26 647.24 C 534.38 646.94 535.08 644.27 533.28 643.05 C 533.35 642.86 533.50 642.48 533.57 642.29 C 534.39 640.57 535.27 638.87 535.79 637.04 C 545.66 598.57 554.44 559.83 562.81 521.01 C 563.31 518.78 563.40 516.49 563.37 514.22 C 563.41 513.89 563.51 513.23 563.55 512.90 C 565.46 514.88 565.94 510.78 564.20 510.13 C 565.06 507.27 565.87 504.39 566.62 501.51 C 566.40 501.35 565.96 501.04 565.74 500.89 L 565.19 500.50 M 579.62 518.57 C 578.96 521.95 578.35 525.33 577.56 528.68 C 576.14 530.06 575.78 532.06 575.31 533.90 C 572.07 547.22 568.83 560.55 565.94 573.96 C 594.57 581.50 623.60 587.35 652.33 594.45 C 669.44 598.21 686.31 603.02 703.41 606.80 C 707.88 587.47 712.78 568.23 717.06 548.86 C 681.57 540.23 645.91 532.36 610.21 524.64 C 608.86 524.47 607.40 523.87 606.07 524.29 L 605.96 524.71 L 605.02 524.49 L 605.22 524.13 C 602.78 522.38 599.30 522.43 596.38 522.62 C 590.74 521.50 585.18 520.01 579.62 518.57 Z" />
</g>
<g id="#d4c8bfff">
<path fill="#d4c8bf" opacity="1.00" d=" M 558.59 501.19 C 560.98 501.15 563.35 500.93 565.74 500.89 C 565.96 501.04 566.40 501.35 566.62 501.51 C 565.87 504.39 565.06 507.27 564.20 510.13 C 564.04 510.82 563.71 512.21 563.55 512.90 C 563.51 513.23 563.41 513.89 563.37 514.22 C 552.65 556.72 542.19 599.30 533.57 642.29 C 533.50 642.48 533.35 642.86 533.28 643.05 C 532.70 644.37 532.46 645.80 532.26 647.24 C 531.74 650.14 531.16 653.04 530.66 655.95 C 530.07 656.06 528.89 656.29 528.30 656.40 C 525.01 656.87 521.70 657.28 518.38 657.44 C 519.51 650.16 521.87 643.16 523.41 635.98 C 533.42 592.76 542.96 549.41 550.80 505.75 C 551.49 504.50 551.65 503.08 551.99 501.72 C 553.19 501.66 555.58 501.54 556.78 501.48 C 557.42 502.00 558.06 502.53 558.70 503.09 C 558.06 504.36 557.55 505.68 557.17 507.05 C 546.20 552.77 536.39 598.76 527.82 644.99 C 527.19 648.31 526.47 651.64 526.24 655.03 C 537.65 608.31 547.63 561.25 556.44 513.97 C 557.20 510.54 557.25 506.90 558.78 503.69 C 558.73 503.07 558.64 501.82 558.59 501.19 Z" />
<path fill="#d4c8bf" opacity="1.00" d=" M 539.27 503.18 C 541.04 503.03 542.80 502.87 544.59 502.73 C 531.56 554.22 519.37 605.95 509.28 658.10 L 508.27 658.09 C 506.23 658.07 504.20 658.05 502.19 658.05 C 506.25 640.42 510.92 622.93 514.82 605.26 C 515.31 604.07 515.55 602.84 515.55 601.58 L 515.55 601.47 C 523.63 568.75 531.39 535.95 539.27 503.18 Z" />
<path fill="#d4c8bf" opacity="1.00" d=" M 544.69 502.73 C 546.65 502.53 548.63 502.34 550.60 502.16 C 550.65 505.15 549.87 508.09 549.22 510.99 C 538.67 553.70 529.42 596.73 521.10 639.93 C 520.13 645.72 518.72 651.45 518.24 657.33 C 515.29 657.68 512.33 657.90 509.37 658.05 C 522.42 606.58 534.85 554.92 544.69 502.73 Z" />
<path fill="#d4c8bf" opacity="1.00" d=" M 579.62 518.57 C 585.18 520.01 590.74 521.50 596.38 522.62 C 599.25 523.25 602.11 523.99 605.02 524.49 L 605.96 524.71 C 641.99 533.60 678.07 542.34 714.30 550.41 C 710.62 567.36 706.76 584.27 703.21 601.25 C 702.74 602.21 702.91 604.90 701.11 604.01 C 656.73 594.48 612.97 582.36 568.73 572.24 C 571.80 557.74 574.72 543.22 577.56 528.68 C 578.35 525.33 578.96 521.95 579.62 518.57 M 591.27 532.59 C 595.52 533.11 599.39 535.20 603.74 535.26 C 603.61 534.75 603.34 533.75 603.21 533.25 C 599.41 532.39 595.62 531.49 591.83 530.61 C 590.15 529.56 589.48 532.58 591.27 532.59 M 591.00 539.96 C 589.34 539.45 587.68 538.94 586.03 538.45 C 585.28 538.65 583.76 539.04 583.00 539.23 C 580.72 544.04 577.60 549.40 579.22 554.89 C 581.35 559.21 586.67 560.56 591.08 561.17 C 593.58 561.36 597.41 561.21 597.86 558.04 C 599.14 553.43 601.14 548.78 600.88 543.93 C 598.94 541.92 595.59 541.75 593.08 540.57 C 593.62 538.55 596.40 536.28 594.82 534.19 C 592.53 534.68 592.35 538.20 591.00 539.96 M 619.98 539.93 C 616.90 543.10 612.90 545.08 609.36 547.65 C 609.94 548.65 610.52 549.65 611.11 550.66 C 611.78 550.87 613.13 551.29 613.80 551.50 C 613.69 551.93 613.47 552.79 613.36 553.22 C 610.96 555.00 606.39 556.29 606.40 559.66 C 608.92 559.86 610.56 557.19 612.64 556.14 C 612.09 559.62 612.10 563.45 609.59 566.22 C 610.63 567.73 613.14 567.54 613.57 565.64 C 614.52 562.65 614.67 559.47 615.31 556.41 C 618.77 559.26 620.53 563.37 621.89 567.52 C 625.00 567.30 622.52 563.62 622.01 561.96 C 620.87 558.09 616.32 556.35 615.71 552.34 C 617.40 552.22 619.10 552.12 620.80 551.99 C 620.58 551.54 620.15 550.62 619.93 550.17 C 619.21 550.09 617.77 549.93 617.05 549.85 C 617.48 548.00 617.89 546.15 618.27 544.30 C 620.78 542.12 623.39 539.92 625.02 536.97 C 625.37 535.86 627.07 533.59 624.79 533.39 C 623.07 535.48 621.92 538.01 619.98 539.93 M 629.29 542.66 C 630.37 544.36 631.65 547.13 634.16 546.07 C 633.53 544.22 632.16 542.58 630.70 541.31 C 629.52 541.04 629.05 541.49 629.29 542.66 M 634.91 543.96 C 634.13 547.58 633.59 551.24 632.73 554.84 C 631.05 554.46 629.37 554.10 627.70 553.79 C 627.82 556.19 630.33 556.38 632.06 557.14 C 631.24 560.83 629.10 563.91 626.96 566.94 L 628.11 567.41 C 631.98 565.88 632.80 561.32 634.14 557.85 C 635.82 558.40 637.50 559.09 639.30 559.19 C 640.44 556.74 636.28 556.77 634.89 555.74 C 635.84 551.67 636.77 547.58 637.14 543.41 C 636.58 543.55 635.47 543.82 634.91 543.96 M 627.16 545.01 C 625.15 547.23 627.72 549.32 629.17 550.99 C 630.31 551.00 630.75 550.51 630.48 549.52 C 629.74 547.77 628.35 546.43 627.16 545.01 M 656.60 549.28 C 654.30 548.70 652.01 548.12 649.72 547.56 C 649.57 548.07 649.26 549.09 649.11 549.60 C 651.99 550.87 656.38 550.10 657.85 553.48 C 655.56 553.02 653.35 552.26 651.04 552.00 C 648.77 552.31 648.52 555.15 647.71 556.84 C 645.99 556.74 644.18 556.84 643.71 558.84 C 648.24 559.39 652.79 560.06 657.06 561.75 C 656.97 562.56 656.78 564.16 656.68 564.96 C 651.44 563.96 646.27 562.53 640.97 561.88 L 640.44 563.17 C 645.25 565.64 651.08 565.63 656.30 567.12 C 656.00 568.25 655.70 569.38 655.41 570.52 C 651.65 569.76 647.86 567.09 644.02 567.90 L 644.02 568.99 C 647.43 570.74 651.31 571.32 654.94 572.51 C 653.77 575.32 652.66 578.27 650.52 580.51 C 649.07 582.13 647.00 583.32 646.48 585.60 C 652.41 584.17 655.31 577.89 657.29 572.66 C 658.77 572.79 659.98 573.42 660.92 574.57 C 662.02 572.84 662.29 570.79 662.93 568.88 C 664.65 568.86 666.38 569.10 668.13 569.09 C 668.82 566.61 665.13 567.01 663.64 566.24 C 664.55 563.53 665.63 560.84 666.02 557.99 C 665.25 554.50 659.24 556.44 659.11 552.31 C 661.74 552.79 664.35 553.51 667.02 553.87 C 667.07 553.41 667.16 552.48 667.20 552.02 C 664.63 551.07 661.93 550.55 659.29 549.88 C 659.21 549.08 659.06 547.49 658.99 546.70 C 657.67 547.04 656.87 547.90 656.60 549.28 M 685.90 558.31 C 683.80 558.50 680.18 557.78 679.89 560.79 C 679.19 565.57 678.52 570.39 678.59 575.23 C 676.92 575.45 672.18 572.93 672.62 575.96 C 675.51 577.51 679.07 577.29 682.21 578.19 C 680.25 579.57 678.12 580.71 676.23 582.19 C 676.47 582.57 676.94 583.31 677.18 583.68 C 680.24 582.40 682.94 580.43 685.72 578.64 C 687.26 578.95 688.83 579.28 690.39 579.60 C 691.12 582.45 691.87 585.34 693.32 587.93 C 693.74 587.90 694.57 587.82 694.99 587.78 C 694.66 585.14 693.36 582.76 692.58 580.26 C 695.87 581.18 698.97 582.72 702.36 583.33 C 702.06 580.62 699.06 580.38 697.13 579.34 C 699.16 574.56 700.68 569.60 702.59 564.79 C 700.70 561.69 695.09 562.44 695.09 558.28 C 694.47 558.70 693.24 559.53 692.62 559.95 C 691.34 559.61 690.08 559.28 688.81 558.95 C 688.76 557.61 688.71 556.27 688.67 554.94 C 686.57 554.67 686.43 556.86 685.90 558.31 Z" />
<path fill="#d4c8bf" opacity="1.00" d=" M 581.37 552.99 C 580.65 548.51 582.97 544.36 584.73 540.40 C 588.65 541.99 592.90 542.61 596.75 544.35 C 599.00 545.39 597.91 548.08 597.76 549.96 C 592.94 549.25 588.43 546.32 583.45 547.10 C 583.27 547.51 582.90 548.33 582.71 548.73 C 587.69 548.98 592.38 550.68 597.13 552.04 C 596.54 554.61 596.43 558.55 593.02 558.91 C 588.66 559.07 582.61 557.94 581.37 552.99 Z" />
<path fill="#d4c8bf" opacity="1.00" d=" M 612.37 548.93 C 611.80 547.39 614.20 546.06 615.50 546.35 C 616.24 547.97 613.88 550.22 612.37 548.93 Z" />
<path fill="#d4c8bf" opacity="1.00" d=" M 649.87 557.33 C 650.56 553.33 654.79 555.03 657.34 556.18 C 657.30 557.26 657.28 558.35 657.28 559.45 C 654.85 558.59 652.36 557.92 649.87 557.33 Z" />
<path fill="#d4c8bf" opacity="1.00" d=" M 659.52 556.25 C 660.95 557.06 662.95 557.36 663.72 559.00 C 663.57 559.97 663.39 560.94 663.18 561.91 C 661.96 561.35 660.73 560.80 659.53 560.25 C 659.51 558.91 659.50 557.58 659.52 556.25 Z" />
<path fill="#d4c8bf" opacity="1.00" d=" M 681.42 563.97 C 681.76 561.65 683.99 560.77 686.05 560.50 C 685.95 563.23 685.78 565.96 685.64 568.70 C 684.13 568.64 682.51 568.13 681.19 569.13 C 680.63 571.54 684.39 570.35 685.62 571.14 C 685.15 572.80 684.69 574.47 684.20 576.12 C 682.53 575.87 680.87 575.62 679.21 575.38 C 681.28 571.86 679.67 567.62 681.42 563.97 Z" />
<path fill="#d4c8bf" opacity="1.00" d=" M 688.51 561.18 C 689.97 561.57 691.42 561.97 692.88 562.38 C 692.58 564.99 692.27 567.61 691.94 570.23 C 690.73 569.97 689.52 569.72 688.33 569.48 C 688.38 566.71 688.48 563.94 688.51 561.18 Z" />
<path fill="#d4c8bf" opacity="1.00" d=" M 658.96 563.04 C 659.67 563.09 661.09 563.20 661.80 563.25 C 661.79 563.87 661.76 565.09 661.75 565.70 C 661.13 565.71 659.89 565.71 659.27 565.72 C 659.19 565.05 659.04 563.71 658.96 563.04 Z" />
<path fill="#d4c8bf" opacity="1.00" d=" M 694.97 563.30 C 696.43 564.00 697.89 564.80 699.21 565.77 C 698.73 567.86 698.27 569.96 697.80 572.06 C 696.51 571.67 695.23 571.29 693.95 570.91 C 694.28 568.37 694.60 565.83 694.97 563.30 Z" />
<path fill="#d4c8bf" opacity="1.00" d=" M 657.84 571.12 C 658.05 569.94 658.32 568.77 658.64 567.63 C 659.25 567.75 660.45 568.00 661.05 568.12 C 660.72 569.83 659.68 571.02 657.84 571.12 Z" />
<path fill="#d4c8bf" opacity="1.00" d=" M 688.10 571.53 C 689.27 571.84 690.43 572.14 691.62 572.46 C 691.40 574.11 691.19 575.77 690.99 577.43 C 689.66 577.20 688.33 576.98 687.02 576.77 C 687.37 575.01 687.73 573.27 688.10 571.53 Z" />
<path fill="#d4c8bf" opacity="1.00" d=" M 693.58 573.07 C 694.71 573.42 695.85 573.78 696.99 574.16 C 696.02 575.99 695.72 579.25 692.89 578.33 C 693.10 576.57 693.35 574.82 693.58 573.07 Z" />
</g>
<g id="#3c2e26ff">
<path fill="#3c2e26" opacity="1.00" d=" M 564.20 510.13 C 565.94 510.78 565.46 514.88 563.55 512.90 C 563.71 512.21 564.04 510.82 564.20 510.13 Z" />
</g>
<g id="#26201dff">
<path fill="#26201d" opacity="1.00" d=" M 591.27 532.59 C 589.48 532.58 590.15 529.56 591.83 530.61 C 595.62 531.49 599.41 532.39 603.21 533.25 C 603.34 533.75 603.61 534.75 603.74 535.26 C 599.39 535.20 595.52 533.11 591.27 532.59 Z" />
<path fill="#26201d" opacity="1.00" d=" M 591.00 539.96 C 592.35 538.20 592.53 534.68 594.82 534.19 C 596.40 536.28 593.62 538.55 593.08 540.57 C 595.59 541.75 598.94 541.92 600.88 543.93 C 601.14 548.78 599.14 553.43 597.86 558.04 C 597.41 561.21 593.58 561.36 591.08 561.17 C 586.67 560.56 581.35 559.21 579.22 554.89 C 577.60 549.40 580.72 544.04 583.00 539.23 C 583.76 539.04 585.28 538.65 586.03 538.45 C 587.68 538.94 589.34 539.45 591.00 539.96 M 581.37 552.99 C 582.61 557.94 588.66 559.07 593.02 558.91 C 596.43 558.55 596.54 554.61 597.13 552.04 C 592.38 550.68 587.69 548.98 582.71 548.73 C 582.90 548.33 583.27 547.51 583.45 547.10 C 588.43 546.32 592.94 549.25 597.76 549.96 C 597.91 548.08 599.00 545.39 596.75 544.35 C 592.90 542.61 588.65 541.99 584.73 540.40 C 582.97 544.36 580.65 548.51 581.37 552.99 Z" />
<path fill="#26201d" opacity="1.00" d=" M 619.98 539.93 C 621.92 538.01 623.07 535.48 624.79 533.39 C 627.07 533.59 625.37 535.86 625.02 536.97 C 623.39 539.92 620.78 542.12 618.27 544.30 C 617.89 546.15 617.48 548.00 617.05 549.85 C 617.77 549.93 619.21 550.09 619.93 550.17 C 620.15 550.62 620.58 551.54 620.80 551.99 C 619.10 552.12 617.40 552.22 615.71 552.34 C 616.32 556.35 620.87 558.09 622.01 561.96 C 622.52 563.62 625.00 567.30 621.89 567.52 C 620.53 563.37 618.77 559.26 615.31 556.41 C 614.67 559.47 614.52 562.65 613.57 565.64 C 613.14 567.54 610.63 567.73 609.59 566.22 C 612.10 563.45 612.09 559.62 612.64 556.14 C 610.56 557.19 608.92 559.86 606.40 559.66 C 606.39 556.29 610.96 555.00 613.36 553.22 C 613.47 552.79 613.69 551.93 613.80 551.50 C 613.13 551.29 611.78 550.87 611.11 550.66 C 610.52 549.65 609.94 548.65 609.36 547.65 C 612.90 545.08 616.90 543.10 619.98 539.93 M 612.37 548.93 C 613.88 550.22 616.24 547.97 615.50 546.35 C 614.20 546.06 611.80 547.39 612.37 548.93 Z" />
<path fill="#26201d" opacity="1.00" d=" M 629.29 542.66 C 629.05 541.49 629.52 541.04 630.70 541.31 C 632.16 542.58 633.53 544.22 634.16 546.07 C 631.65 547.13 630.37 544.36 629.29 542.66 Z" />
<path fill="#26201d" opacity="1.00" d=" M 634.91 543.96 C 635.47 543.82 636.58 543.55 637.14 543.41 C 636.77 547.58 635.84 551.67 634.89 555.74 C 636.28 556.77 640.44 556.74 639.30 559.19 C 637.50 559.09 635.82 558.40 634.14 557.85 C 632.80 561.32 631.98 565.88 628.11 567.41 L 626.96 566.94 C 629.10 563.91 631.24 560.83 632.06 557.14 C 630.33 556.38 627.82 556.19 627.70 553.79 C 629.37 554.10 631.05 554.46 632.73 554.84 C 633.59 551.24 634.13 547.58 634.91 543.96 Z" />
<path fill="#26201d" opacity="1.00" d=" M 627.16 545.01 C 628.35 546.43 629.74 547.77 630.48 549.52 C 630.75 550.51 630.31 551.00 629.17 550.99 C 627.72 549.32 625.15 547.23 627.16 545.01 Z" />
<path fill="#26201d" opacity="1.00" d=" M 656.60 549.28 C 656.87 547.90 657.67 547.04 658.99 546.70 C 659.06 547.49 659.21 549.08 659.29 549.88 C 661.93 550.55 664.63 551.07 667.20 552.02 C 667.16 552.48 667.07 553.41 667.02 553.87 C 664.35 553.51 661.74 552.79 659.11 552.31 C 659.24 556.44 665.25 554.50 666.02 557.99 C 665.63 560.84 664.55 563.53 663.64 566.24 C 665.13 567.01 668.82 566.61 668.13 569.09 C 666.38 569.10 664.65 568.86 662.93 568.88 C 662.29 570.79 662.02 572.84 660.92 574.57 C 659.98 573.42 658.77 572.79 657.29 572.66 C 655.31 577.89 652.41 584.17 646.48 585.60 C 647.00 583.32 649.07 582.13 650.52 580.51 C 652.66 578.27 653.77 575.32 654.94 572.51 C 651.31 571.32 647.43 570.74 644.02 568.99 L 644.02 567.90 C 647.86 567.09 651.65 569.76 655.41 570.52 C 655.70 569.38 656.00 568.25 656.30 567.12 C 651.08 565.63 645.25 565.64 640.44 563.17 L 640.97 561.88 C 646.27 562.53 651.44 563.96 656.68 564.96 C 656.78 564.16 656.97 562.56 657.06 561.75 C 652.79 560.06 648.24 559.39 643.71 558.84 C 644.18 556.84 645.99 556.74 647.71 556.84 C 648.52 555.15 648.77 552.31 651.04 552.00 C 653.35 552.26 655.56 553.02 657.85 553.48 C 656.38 550.10 651.99 550.87 649.11 549.60 C 649.26 549.09 649.57 548.07 649.72 547.56 C 652.01 548.12 654.30 548.70 656.60 549.28 M 649.87 557.33 C 652.36 557.92 654.85 558.59 657.28 559.45 C 657.28 558.35 657.30 557.26 657.34 556.18 C 654.79 555.03 650.56 553.33 649.87 557.33 M 659.52 556.25 C 659.50 557.58 659.51 558.91 659.53 560.25 C 660.73 560.80 661.96 561.35 663.18 561.91 C 663.39 560.94 663.57 559.97 663.72 559.00 C 662.95 557.36 660.95 557.06 659.52 556.25 M 658.96 563.04 C 659.04 563.71 659.19 565.05 659.27 565.72 C 659.89 565.71 661.13 565.71 661.75 565.70 C 661.76 565.09 661.79 563.87 661.80 563.25 C 661.09 563.20 659.67 563.09 658.96 563.04 M 657.84 571.12 C 659.68 571.02 660.72 569.83 661.05 568.12 C 660.45 568.00 659.25 567.75 658.64 567.63 C 658.32 568.77 658.05 569.94 657.84 571.12 Z" />
<path fill="#26201d" opacity="1.00" d=" M 685.90 558.31 C 686.43 556.86 686.57 554.67 688.67 554.94 C 688.71 556.27 688.76 557.61 688.81 558.95 C 690.08 559.28 691.34 559.61 692.62 559.95 C 693.24 559.53 694.47 558.70 695.09 558.28 C 695.09 562.44 700.70 561.69 702.59 564.79 C 700.68 569.60 699.16 574.56 697.13 579.34 C 699.06 580.38 702.06 580.62 702.36 583.33 C 698.97 582.72 695.87 581.18 692.58 580.26 C 693.36 582.76 694.66 585.14 694.99 587.78 C 694.57 587.82 693.74 587.90 693.32 587.93 C 691.87 585.34 691.12 582.45 690.39 579.60 C 688.83 579.28 687.26 578.95 685.72 578.64 C 682.94 580.43 680.24 582.40 677.18 583.68 C 676.94 583.31 676.47 582.57 676.23 582.19 C 678.12 580.71 680.25 579.57 682.21 578.19 C 679.07 577.29 675.51 577.51 672.62 575.96 C 672.18 572.93 676.92 575.45 678.59 575.23 C 678.52 570.39 679.19 565.57 679.89 560.79 C 680.18 557.78 683.80 558.50 685.90 558.31 M 681.42 563.97 C 679.67 567.62 681.28 571.86 679.21 575.38 C 680.87 575.62 682.53 575.87 684.20 576.12 C 684.69 574.47 685.15 572.80 685.62 571.14 C 684.39 570.35 680.63 571.54 681.19 569.13 C 682.51 568.13 684.13 568.64 685.64 568.70 C 685.78 565.96 685.95 563.23 686.05 560.50 C 683.99 560.77 681.76 561.65 681.42 563.97 M 688.51 561.18 C 688.48 563.94 688.38 566.71 688.33 569.48 C 689.52 569.72 690.73 569.97 691.94 570.23 C 692.27 567.61 692.58 564.99 692.88 562.38 C 691.42 561.97 689.97 561.57 688.51 561.18 M 694.97 563.30 C 694.60 565.83 694.28 568.37 693.95 570.91 C 695.23 571.29 696.51 571.67 697.80 572.06 C 698.27 569.96 698.73 567.86 699.21 565.77 C 697.89 564.80 696.43 564.00 694.97 563.30 M 688.10 571.53 C 687.73 573.27 687.37 575.01 687.02 576.77 C 688.33 576.98 689.66 577.20 690.99 577.43 C 691.19 575.77 691.40 574.11 691.62 572.46 C 690.43 572.14 689.27 571.84 688.10 571.53 M 693.58 573.07 C 693.35 574.82 693.10 576.57 692.89 578.33 C 695.72 579.25 696.02 575.99 696.99 574.16 C 695.85 573.78 694.71 573.42 693.58 573.07 Z" />
</g>
<g id="#35353550">
<path fill="#353535" opacity="0.31" d=" M 77.04 618.13 C 78.26 618.23 78.92 618.91 79.02 620.16 C 77.51 620.37 76.85 619.69 77.04 618.13 Z" />
</g>
<g id="#48484878">
<path fill="#484848" opacity="0.47" d=" M 79.17 620.96 C 79.55 621.28 80.33 621.93 80.72 622.25 L 79.95 622.49 C 79.76 622.11 79.36 621.34 79.17 620.96 Z" />
</g>
<g id="#30303080">
<path fill="#303030" opacity="0.50" d=" M 82.28 623.90 C 82.65 624.28 83.40 625.03 83.78 625.41 L 82.92 625.56 C 82.76 625.15 82.44 624.32 82.28 623.90 Z" />
</g>
<g id="#6d6d6d8e">
<path fill="#6d6d6d" opacity="0.56" d=" M 92.42 633.69 C 92.78 634.05 93.51 634.77 93.88 635.13 L 93.02 635.29 C 92.87 634.89 92.57 634.09 92.42 633.69 Z" />
</g>
<g id="#8e8e8eae">
<path fill="#8e8e8e" opacity="0.68" d=" M 100.04 639.95 C 101.20 640.27 102.15 641.01 102.87 641.97 C 101.71 643.21 99.13 641.43 100.04 639.95 Z" />
</g>
<g id="#443730ff">
<path fill="#443730" opacity="1.00" d=" M 533.28 643.05 C 535.08 644.27 534.38 646.94 532.26 647.24 C 532.46 645.80 532.70 644.37 533.28 643.05 Z" />
</g>
<g id="#6b6b6bab">
<path fill="#6b6b6b" opacity="0.67" d=" M 111.40 646.52 C 111.44 646.53 111.53 646.57 111.57 646.58 C 111.53 646.57 111.44 646.53 111.40 646.52 Z" />
</g>
</svg>
