<svg shape-rendering="crispEdges" viewBox="0 -.5 30 30" xmlns="http://www.w3.org/2000/svg"><path d="m11 0h8m-11 1h13m-15 1h5m8 0h4m-18 1h3m13 0h4m-21 1h2m17 0h3m-22 1h2m17 0h3m-23 1h2m17 0h5m-25 1h2m21 0h3m-26 1h2m22 0h2m-27 1h2m24 0h2m-28 1h2m24 0h2m-29 1h2m24 0h4m-30 1h2m24 0h2m-28 1h2m20 0h6m-28 1h2m19 0h9m-30 1h2m18 0h6m1 0h3m-29 1h2m17 0h6m1 0h2m-28 1h2m15 0h7m2 0h2m-27 1h2m15 0h4m3 0h2m-26 1h2m15 0h4m3 0h2m-25 1h2m15 0h2m3 0h2m-24 1h2m15 0h2m3 0h2m-23 1h2m17 0h3m-21 1h3m10 0h7m-19 1h5m8 0h4m-16 1h15m-16 1h2m3 0h8m2 0h2m-18 1h2m15 0h3m-20 1h2m15 0h3m-20 1h2m15 0h3" stroke="#030001"/><path d="m11 2h8m-11 1h2m10 0h1m-15 1h1m15 0h1m-17 1h1m15 0h1m-18 1h1m10 0h1m4 0h1m-18 1h1m8 0h1m9 0h2m-14 1h1m13 0h1m-23 1h1m22 0h1m-15 1h1m4 0h1m8 0h1m-25 1h1m15 0h1m-17 1h1m22 0h1m-24 1h1m8 0h1m9 0h1m-20 1h1m8 0h1m6 0h1m1 0h1m-9 1h1m4 0h1m-15 1h1m12 1h1m-13 1h1m20 0h1m-21 1h1m12 0h1m4 0h2m-19 1h1m15 0h1m-17 1h1m15 0h1m-16 1h1m2 1h2m4 0h1m-9 3h2m10 0h1m-14 1h1m3 0h8m2 0h1m-15 1h1m3 0h1m6 0h1m2 0h1m-15 1h1m13 0h1" stroke="#f58582"/><path d="m10 3h10m-13 1h15m-15 1h15m-16 1h7m4 0h4m-16 1h7m2 0h9m-19 1h7m1 0h13m-21 1h22m-23 1h9m6 0h8m-23 1h9m7 0h7m-23 1h9m7 0h6m-22 1h8m8 0h2m-18 1h8m8 0h1m-17 1h9m6 0h2m-16 1h15m-15 1h12m-11 1h13m-12 1h12m-11 1h12m-12 1h12m-11 1h14m-10 1h4" stroke="#f8b1a5"/><path d="m13 6h3" stroke="#040102"/><path d="m12 7h1" stroke="#050000"/><path d="m13 10h4m-5 1h6m-6 1h4m-4 1h4m-4 1h6m-5 1h4" stroke="#030102"/><path d="m16 12h2m-2 1h2" stroke="#fcefdc"/><path d="m18 12h1m10 0h1m-12 1h1m10 0h1m-28 2h1m23 0h1m-8 1h1m6 0h1m-24 1h1m13 0h1m7 0h2m-9 1h1m4 0h2m-21 1h1m20 0h1m-21 1h1m13 0h1m3 0h2m-20 1h1m13 0h1m3 0h2m-19 1h1m15 0h1m-15 1h2m7 0h1m-7 1h8" stroke="#db5960"/><path d="m28 12h1m-1 1h1" stroke="#fdefdc"/><path d="m10 26h1m-3 1h3m-3 1h2m-2 1h2" stroke="#fcb3aa"/><path d="m19 26h1m-1 1h2m-1 1h1m-1 1h1" stroke="#fab3a7"/><path d="m10 28h1m-1 1h1" stroke="#070102"/><path d="m12 28h6m-7 1h8" stroke="#fab0a4"/><path d="m19 28h1m-1 1h1" stroke="#0f0202"/></svg>