<svg width="112pt" height="112pt" viewBox="0 0 112 112" version="1.1" xmlns="http://www.w3.org/2000/svg"><g id="#0ed145ff"><path fill="#0ed145" opacity="1" d="M 45.54 10.83 C 48.63 9.92 51.70 8.57 54.99 8.78 C 59.01 9.04 62.93 10.06 66.78 11.20 C 70.27 12.10 74.02 12.08 77.29 13.72 C 78.27 15.18 78.87 16.86 79.60 18.45 C 82.81 18.41 86.03 18.47 89.22 18.86 C 90.75 20.67 92.19 22.57 93.48 24.56 C 94.74 25.26 96.04 25.92 97.20 26.80 C 97.50 29.26 97.52 31.76 96.97 34.19 C 97.83 35.47 98.68 36.77 99.52 38.07 C 100.18 38.07 101.51 38.09 102.17 38.09 C 102.44 38.65 102.97 39.76 103.23 40.32 L 103.32 40.93 C 102.91 41.75 102.48 42.56 102.05 43.36 C 103.17 44.12 104.92 44.39 105.08 46.00 C 104.88 47.16 104.64 48.31 104.38 49.46 L 106.25 48.28 C 106.20 49.44 106.15 50.60 106.12 51.77 C 104.33 52.89 102.52 53.97 100.68 55.00 C 99.26 53.96 97.83 52.94 96.38 51.95 C 96.47 51.37 96.64 50.23 96.73 49.66 C 90.95 50.04 85.22 50.93 79.47 51.58 L 79.83 50.25 C 77.41 50.18 74.99 50.11 72.58 50.08 C 70.56 49.23 68.50 48.49 66.43 47.78 C 64.49 47.02 62.50 46.37 60.48 45.82 C 58.19 48.09 56.17 52.33 52.29 51.16 C 48.43 51.07 44.57 51.47 40.72 51.75 C 40.18 52.32 39.63 52.88 39.08 53.45 C 33.90 53.44 28.51 54.46 23.64 52.11 C 23.57 52.90 23.41 54.48 23.33 55.27 C 20.52 55.43 17.70 55.57 14.89 55.29 C 13.69 54.75 12.55 54.10 11.40 53.47 C 11.01 53.67 10.22 54.06 9.83 54.25 C 9.02 53.89 8.21 53.52 7.40 53.16 C 5.78 54.02 4.15 54.87 2.52 55.70 C 1.73 54.32 0.83 52.99 0.00 51.63 L 0.00 50.19 C 1.60 46.67 2.54 42.90 3.96 39.30 C 4.58 39.16 5.82 38.87 6.45 38.72 C 7.83 33.60 12.14 30.29 14.96 26.03 C 19.84 19.05 27.90 14.79 36.29 13.86 C 38.49 10.95 41.97 9.17 45.54 10.83 M 92.26 27.22 C 92.84 27.70 92.84 27.70 92.26 27.22 M 93.04 37.42 C 91.80 40.53 96.37 37.23 93.04 37.42 M 95.19 41.24 C 95.77 41.79 95.77 41.79 95.19 41.24 M 100.41 48.01 C 100.86 46.88 100.55 46.01 99.48 45.41 C 97.72 45.57 98.96 48.85 100.41 48.01 M 80.31 47.25 C 81.00 50.51 82.98 45.23 80.31 47.25 Z"/><path fill="#0ed145" opacity="1" d="M 90.13 59.99 C 90.71 59.81 91.89 59.46 92.48 59.28 C 91.89 59.46 90.71 59.81 90.13 59.99 Z"/></g><g id="#ffdb6bff"><path fill="#ffdb6b" opacity="1" d="M 92.26 27.22 C 92.84 27.70 92.84 27.70 92.26 27.22 Z"/><path fill="#ffdb6b" opacity="1" d="M 93.04 37.42 C 96.37 37.23 91.80 40.53 93.04 37.42 Z"/><path fill="#ffdb6b" opacity="1" d="M 80.31 47.25 C 82.98 45.23 81.00 50.51 80.31 47.25 Z"/><path fill="#ffdb6b" opacity="1" d="M 63.73 77.79 C 66.80 75.85 69.60 73.26 73.19 72.34 C 76.41 72.15 79.55 73.11 82.72 73.51 C 82.10 74.98 82.21 76.42 83.07 77.83 C 82.82 82.00 80.87 86.60 83.71 90.32 C 83.35 92.25 83.04 94.19 82.75 96.13 C 77.42 98.38 71.94 100.24 66.26 101.37 C 66.32 102.07 66.45 103.46 66.52 104.16 C 61.72 103.34 57.25 106.99 52.52 105.28 C 45.96 103.33 39.61 100.78 33.19 98.44 C 32.20 95.62 32.77 92.67 32.97 89.78 C 42.07 89.26 50.94 86.82 60.05 86.55 C 64.61 86.60 69.13 87.26 73.66 87.69 C 73.96 86.18 74.27 84.68 74.58 83.17 C 71.16 81.02 67.91 78.23 63.73 77.79 M 37.85 95.28 C 42.45 97.65 47.43 99.11 52.37 100.60 C 52.37 100.03 52.36 98.89 52.36 98.32 C 47.76 98.77 43.27 97.34 39.81 94.29 C 39.32 94.54 38.34 95.03 37.85 95.28 Z"/><path fill="#ffdb6b" opacity="1" d="M 20.19 77.98 C 20.28 81.50 20.82 85.17 24.29 86.92 C 24.42 87.46 24.68 88.53 24.81 89.07 C 26.38 89.65 27.95 90.22 29.51 90.82 C 29.60 93.45 29.72 96.10 30.27 98.69 C 28.72 97.58 27.44 96.18 26.40 94.59 C 24.41 94.05 22.48 93.32 20.65 92.36 C 19.13 91.69 17.64 90.95 16.17 90.17 C 14.80 89.61 13.45 89.00 12.13 88.33 L 12.69 87.17 C 13.81 85.12 15.15 83.20 16.60 81.37 L 17.08 80.76 C 18.09 79.80 19.15 78.90 20.19 77.98 Z"/><path fill="#ffdb6b" opacity="1" d="M 79.71 101.08 C 81.23 99.92 83.08 98.60 85.10 99.27 L 85.04 99.87 C 83.75 101.46 81.54 101.49 79.71 101.08 Z"/></g><g id="#ffffffff"><path fill="#fff" opacity="1" d="M 97.20 26.80 C 98.37 29.52 98.60 32.50 99.14 35.38 C 100.20 36.23 101.24 37.11 102.17 38.09 C 101.51 38.09 100.18 38.07 99.52 38.07 C 98.68 36.77 97.83 35.47 96.97 34.19 C 97.52 31.76 97.50 29.26 97.20 26.80 Z"/><path fill="#fff" opacity="1" d="M 103.23 40.32 C 104.66 43.18 105.66 46.22 107.06 49.09 C 107.00 49.31 106.90 49.74 106.85 49.96 C 108.19 50.53 109.53 51.13 110.86 51.75 C 110.65 52.37 110.25 53.61 110.04 54.23 C 107.87 59.90 109.25 66.09 108.24 71.95 C 107.83 76.17 105.65 79.99 105.59 84.27 C 103.35 86.96 101.75 91.14 97.53 90.63 C 96.70 91.42 95.87 92.21 95.05 93.00 C 93.60 97.27 89.33 100.78 84.88 101.51 L 85.04 99.87 L 85.10 99.27 C 85.58 95.56 85.85 91.84 85.99 88.11 C 85.64 87.21 85.29 86.31 84.95 85.42 C 86.47 79.54 87.66 73.22 84.80 67.52 C 85.05 67.29 85.54 66.83 85.79 66.60 C 85.77 65.04 85.63 63.48 85.47 61.93 C 87.05 61.36 88.59 60.67 90.13 59.99 C 90.71 59.81 91.89 59.46 92.48 59.28 C 93.90 58.56 95.31 57.82 96.70 57.06 C 95.95 56.38 94.44 55.03 93.69 54.36 C 90.69 54.22 88.26 56.41 85.59 57.44 L 84.77 57.86 C 84.50 57.99 83.94 58.26 83.67 58.39 C 79.18 59.09 74.81 60.38 70.32 61.08 C 66.65 61.33 62.97 61.48 59.30 61.59 C 59.02 63.00 58.74 64.41 58.47 65.83 C 54.85 65.74 51.32 66.85 48.82 69.56 C 49.34 71.31 49.84 73.06 50.33 74.81 C 48.99 73.37 47.69 71.90 46.38 70.44 C 45.90 70.56 44.95 70.81 44.47 70.94 C 44.48 69.61 44.49 68.28 44.50 66.96 C 42.07 68.04 39.70 69.53 36.99 69.70 C 34.81 69.46 33.20 67.72 31.45 66.57 C 34.54 66.33 37.67 66.45 40.72 65.84 C 41.97 64.84 41.90 63.13 42.14 61.70 C 41.46 61.53 40.09 61.19 39.41 61.02 C 36.37 60.39 33.25 60.63 30.18 60.41 C 28.37 59.83 26.57 59.23 24.77 58.66 C 23.92 58.07 23.08 57.49 22.23 56.91 C 21.97 56.80 21.44 56.59 21.17 56.48 C 19.06 56.24 16.92 55.98 14.89 55.29 C 17.70 55.57 20.52 55.43 23.33 55.27 C 23.41 54.48 23.57 52.90 23.64 52.11 C 28.51 54.46 33.90 53.44 39.08 53.45 C 39.63 52.88 40.18 52.32 40.72 51.75 C 44.57 51.47 48.43 51.07 52.29 51.16 C 56.17 52.33 58.19 48.09 60.48 45.82 C 62.50 46.37 64.49 47.02 66.43 47.78 C 68.50 48.49 70.56 49.23 72.58 50.08 C 74.99 50.11 77.41 50.18 79.83 50.25 L 79.47 51.58 C 85.22 50.93 90.95 50.04 96.73 49.66 C 96.64 50.23 96.47 51.37 96.38 51.95 C 97.83 52.94 99.26 53.96 100.68 55.00 C 102.52 53.97 104.33 52.89 106.12 51.77 C 106.15 50.60 106.20 49.44 106.25 48.28 L 104.38 49.46 C 104.64 48.31 104.88 47.16 105.08 46.00 C 104.92 44.39 103.17 44.12 102.05 43.36 C 102.48 42.56 102.91 41.75 103.32 40.93 L 103.23 40.32 Z"/><path fill="#fff" opacity="1" d="M 95.19 41.24 C 95.77 41.79 95.77 41.79 95.19 41.24 Z"/><path fill="#fff" opacity="1" d="M 100.41 48.01 C 98.96 48.85 97.72 45.57 99.48 45.41 C 100.55 46.01 100.86 46.88 100.41 48.01 Z"/><path fill="#fff" opacity="1" d="M 8.70 65.47 C 9.11 65.72 9.94 66.23 10.36 66.48 C 13.35 70.82 16.78 75.28 17.08 80.76 L 16.60 81.37 C 15.62 78.47 14.63 75.59 13.62 72.71 C 13.29 75.18 12.94 77.66 12.56 80.13 C 11.27 79.35 9.97 78.56 8.68 77.78 C 8.73 77.41 8.82 76.67 8.87 76.30 C 9.14 73.82 9.45 71.34 9.82 68.87 C 9.44 67.74 9.07 66.60 8.70 65.47 Z"/><path fill="#fff" opacity="1" d="M 37.85 95.28 C 38.34 95.03 39.32 94.54 39.81 94.29 C 43.27 97.34 47.76 98.77 52.36 98.32 C 52.36 98.89 52.37 100.03 52.37 100.60 C 47.43 99.11 42.45 97.65 37.85 95.28 Z"/></g><g id="#fdb76eff"><path fill="#fdb76e" opacity="1" d="M 107.06 49.09 C 108.90 49.01 110.52 49.76 111.99 50.82 L 112.00 50.32 L 112.00 51.37 C 111.51 52.08 110.53 53.51 110.04 54.23 C 110.25 53.61 110.65 52.37 110.86 51.75 C 109.53 51.13 108.19 50.53 106.85 49.96 C 106.90 49.74 107.00 49.31 107.06 49.09 Z"/><path fill="#fdb76e" opacity="1" d="M 2.52 55.70 C 4.15 54.87 5.78 54.02 7.40 53.16 C 8.21 53.52 9.02 53.89 9.83 54.25 C 10.22 54.06 11.01 53.67 11.40 53.47 C 12.55 54.10 13.69 54.75 14.89 55.29 C 16.92 55.98 19.06 56.24 21.17 56.48 C 21.44 56.59 21.97 56.80 22.23 56.91 C 23.08 57.49 23.92 58.07 24.77 58.66 C 26.57 59.23 28.37 59.83 30.18 60.41 C 26.85 60.28 23.49 60.54 20.19 60.00 C 17.04 59.25 14.12 57.79 10.96 57.07 C 10.58 57.85 9.83 59.41 9.46 60.18 C 11.15 61.16 12.84 62.13 14.56 63.04 C 15.43 63.50 16.38 63.76 17.33 63.97 C 18.01 64.13 19.38 64.44 20.06 64.59 C 20.22 66.01 20.41 67.42 20.65 68.83 C 18.86 69.20 17.08 69.78 15.24 69.79 C 14.04 69.07 12.96 68.18 11.81 67.39 C 11.45 67.16 10.72 66.71 10.36 66.48 C 9.94 66.23 9.11 65.72 8.70 65.47 C 9.07 66.60 9.44 67.74 9.82 68.87 C 9.45 71.34 9.14 73.82 8.87 76.30 C 7.46 77.06 6.03 77.80 4.59 78.51 C 4.42 72.49 3.99 66.44 5.07 60.47 C 4.16 58.91 3.35 57.30 2.52 55.70 Z"/></g><g id="#010000ff"><path fill="#010000" opacity="1" d="M 85.59 57.44 C 88.26 56.41 90.69 54.22 93.69 54.36 C 90.81 55.76 87.79 56.82 84.77 57.86 L 85.59 57.44 Z"/><path fill="#010000" opacity="1" d="M 10.96 57.07 C 14.12 57.79 17.04 59.25 20.19 60.00 C 23.49 60.54 26.85 60.28 30.18 60.41 C 33.25 60.63 36.37 60.39 39.41 61.02 C 32.00 60.95 24.58 61.09 17.17 60.86 C 15.03 59.85 12.26 55.96 10.32 59.08 C 11.56 60.58 13.03 61.85 14.56 63.04 C 12.84 62.13 11.15 61.16 9.46 60.18 C 9.83 59.41 10.58 57.85 10.96 57.07 Z"/><path fill="#010000" opacity="1" d="M 59.30 61.59 C 62.97 61.48 66.65 61.33 70.32 61.08 C 66.64 61.66 62.92 61.78 59.24 62.28 C 60.25 63.43 61.28 64.75 63.01 64.50 C 65.94 64.73 68.96 64.93 71.83 64.11 C 76.28 62.84 80.94 62.77 85.47 61.93 C 85.63 63.48 85.77 65.04 85.79 66.60 C 85.54 66.83 85.05 67.29 84.80 67.52 C 84.30 67.98 83.29 68.90 82.79 69.36 C 78.49 69.68 73.41 69.79 70.93 65.56 C 66.77 65.77 62.62 65.77 58.47 65.83 C 58.74 64.41 59.02 63.00 59.30 61.59 Z"/><path fill="#010000" opacity="1" d="M 17.33 63.97 C 25.25 64.41 33.16 64.52 41.09 64.13 C 37.79 65.37 34.26 65.37 30.79 65.21 C 32.59 69.84 26.84 73.00 23.09 70.81 C 22.85 70.69 22.38 70.45 22.15 70.32 C 21.77 69.95 21.02 69.21 20.65 68.83 C 20.41 67.42 20.22 66.01 20.06 64.59 C 19.38 64.44 18.01 64.13 17.33 63.97 Z"/><path fill="#010000" opacity="1" d="M 82.72 73.51 L 83.47 73.58 C 83.71 74.01 84.20 74.88 84.45 75.32 C 84.10 75.95 83.41 77.20 83.07 77.83 C 82.21 76.42 82.10 74.98 82.72 73.51 Z"/></g><g id="#01a7f1ff"><path fill="#01a7f1" opacity="1" d="M 84.77 57.86 C 87.79 56.82 90.81 55.76 93.69 54.36 C 94.44 55.03 95.95 56.38 96.70 57.06 C 95.31 57.82 93.90 58.56 92.48 59.28 C 91.89 59.46 90.71 59.81 90.13 59.99 C 88.59 60.67 87.05 61.36 85.47 61.93 C 80.94 62.77 76.28 62.84 71.83 64.11 C 68.96 64.93 65.94 64.73 63.01 64.50 C 61.28 64.75 60.25 63.43 59.24 62.28 C 62.92 61.78 66.64 61.66 70.32 61.08 C 74.81 60.38 79.18 59.09 83.67 58.39 C 83.94 58.26 84.50 57.99 84.77 57.86 Z"/><path fill="#01a7f1" opacity="1" d="M 10.32 59.08 C 12.26 55.96 15.03 59.85 17.17 60.86 C 24.58 61.09 32.00 60.95 39.41 61.02 C 40.09 61.19 41.46 61.53 42.14 61.70 C 41.88 62.31 41.35 63.53 41.09 64.13 C 33.16 64.52 25.25 64.41 17.33 63.97 C 16.38 63.76 15.43 63.50 14.56 63.04 C 13.03 61.85 11.56 60.58 10.32 59.08 Z"/><path fill="#01a7f1" opacity="1" d="M 82.79 69.36 C 83.29 68.90 84.30 67.98 84.80 67.52 C 87.66 73.22 86.47 79.54 84.95 85.42 C 85.29 86.31 85.64 87.21 85.99 88.11 C 85.85 91.84 85.58 95.56 85.10 99.27 C 83.08 98.60 81.23 99.92 79.71 101.08 C 75.64 101.81 71.62 102.86 67.71 104.19 C 67.41 104.18 66.81 104.17 66.52 104.16 C 66.45 103.46 66.32 102.07 66.26 101.37 C 71.94 100.24 77.42 98.38 82.75 96.13 C 83.04 94.19 83.35 92.25 83.71 90.32 C 80.87 86.60 82.82 82.00 83.07 77.83 C 83.41 77.20 84.10 75.95 84.45 75.32 C 84.20 74.88 83.71 74.01 83.47 73.58 C 83.16 72.19 82.95 70.77 82.79 69.36 Z"/><path fill="#01a7f1" opacity="1" d="M 22.15 70.32 C 22.38 70.45 22.85 70.69 23.09 70.81 L 23.65 71.09 C 24.40 71.45 25.89 72.17 26.64 72.53 C 25.49 73.48 24.32 74.41 23.15 75.33 C 23.36 77.59 23.49 79.86 23.60 82.13 C 24.80 83.06 25.99 84.00 27.18 84.94 C 27.26 85.39 27.42 86.27 27.49 86.72 C 29.08 87.37 30.68 88.03 32.21 88.82 L 32.97 89.78 C 32.77 92.67 32.20 95.62 33.19 98.44 C 34.15 100.70 36.06 102.27 37.75 103.96 C 36.42 104.31 35.09 104.63 33.75 104.95 C 32.51 102.91 31.28 100.85 30.27 98.69 C 29.72 96.10 29.60 93.45 29.51 90.82 C 27.95 90.22 26.38 89.65 24.81 89.07 C 24.68 88.53 24.42 87.46 24.29 86.92 C 20.82 85.17 20.28 81.50 20.19 77.98 C 19.50 75.16 20.56 72.71 22.84 71.00 L 22.15 70.32 Z"/></g><g id="#fed26bff"><path fill="#fed26b" opacity="1" d="M 42.14 61.70 C 41.90 63.13 41.97 64.84 40.72 65.84 C 37.67 66.45 34.54 66.33 31.45 66.57 C 33.20 67.72 34.81 69.46 36.99 69.70 C 39.70 69.53 42.07 68.04 44.50 66.96 C 44.49 68.28 44.48 69.61 44.47 70.94 C 44.95 70.81 45.90 70.56 46.38 70.44 C 47.69 71.90 48.99 73.37 50.33 74.81 C 49.84 73.06 49.34 71.31 48.82 69.56 C 51.32 66.85 54.85 65.74 58.47 65.83 C 62.62 65.77 66.77 65.77 70.93 65.56 C 73.41 69.79 78.49 69.68 82.79 69.36 C 82.95 70.77 83.16 72.19 83.47 73.58 L 82.72 73.51 C 79.55 73.11 76.41 72.15 73.19 72.34 C 69.60 73.26 66.80 75.85 63.73 77.79 C 58.49 76.88 53.13 76.63 47.85 77.30 C 42.70 77.79 37.78 79.64 32.60 79.93 C 31.61 80.87 30.59 81.79 29.73 82.86 C 29.32 85.20 30.85 87.12 32.21 88.82 C 30.68 88.03 29.08 87.37 27.49 86.72 C 27.42 86.27 27.26 85.39 27.18 84.94 C 25.99 84.00 24.80 83.06 23.60 82.13 C 23.49 79.86 23.36 77.59 23.15 75.33 C 24.32 74.41 25.49 73.48 26.64 72.53 C 25.89 72.17 24.40 71.45 23.65 71.09 L 23.09 70.81 C 26.84 73.00 32.59 69.84 30.79 65.21 C 34.26 65.37 37.79 65.37 41.09 64.13 C 41.35 63.53 41.88 62.31 42.14 61.70 Z"/><path fill="#fed26b" opacity="1" d="M 10.36 66.48 C 10.72 66.71 11.45 67.16 11.81 67.39 C 12.96 68.18 14.04 69.07 15.24 69.79 C 17.08 69.78 18.86 69.20 20.65 68.83 C 21.02 69.21 21.77 69.95 22.15 70.32 L 22.84 71.00 C 20.56 72.71 19.50 75.16 20.19 77.98 C 19.15 78.90 18.09 79.80 17.08 80.76 C 16.78 75.28 13.35 70.82 10.36 66.48 Z"/><path fill="#fed26b" opacity="1" d="M 12.56 80.13 C 12.94 77.66 13.29 75.18 13.62 72.71 C 14.63 75.59 15.62 78.47 16.60 81.37 C 15.15 83.20 13.81 85.12 12.69 87.17 C 12.91 86.69 13.34 85.75 13.56 85.27 C 12.61 85.32 10.69 85.42 9.74 85.47 C 9.13 84.36 8.53 83.24 7.94 82.12 C 8.22 80.68 8.47 79.23 8.68 77.78 C 9.97 78.56 11.27 79.35 12.56 80.13 Z"/></g><g id="#ec1c24ff"><path fill="#ec1c24" opacity="1" d="M 32.60 79.93 C 37.78 79.64 42.70 77.79 47.85 77.30 C 53.13 76.63 58.49 76.88 63.73 77.79 C 67.91 78.23 71.16 81.02 74.58 83.17 C 74.27 84.68 73.96 86.18 73.66 87.69 C 69.13 87.26 64.61 86.60 60.05 86.55 C 50.94 86.82 42.07 89.26 32.97 89.78 L 32.21 88.82 C 30.85 87.12 29.32 85.20 29.73 82.86 C 30.59 81.79 31.61 80.87 32.60 79.93 Z"/></g></svg>