<svg height="128pt" viewBox="0 0 128 128" width="128pt" xmlns="http://www.w3.org/2000/svg"><path d="m99.79 0h.14c6.78 3.38 12.63 9.65 12.89 17.58.44 5.53-1.87 10.88-1.27 16.37.55 3.77 5.6 5.13 8.48 3.07 4.23-2.6 5.06-7.86 6.19-12.27.83 2.09 1.48 4.26 1.78 6.5v8.08c-1.04 6.94-4.08 13.57-8.96 18.65-.31-4.33-1.29-8.56-2.87-12.59-1.25 2.19-1.82 5.28-4.45 6.27-2.37 1.27-5.99.06-6.46-2.75-1.03-4.23-.76-9-3.47-12.65-1.95-2.91-5.26-4.34-8.27-5.88.56 3.76 1.73 7.71.43 11.44-1.34 3.9-5.67 6.93-9.82 5.98-3.24-.99-3.4-4.96-4.51-7.59-4.44 4.89-5.74 11.37-7.48 17.53-4.09-5.84-7.61-12.26-8.28-19.49.14-7.15 1.62-14.42 5.62-20.47.66-1.04 1.32-2.07 2-3.1-.17.78-.5 2.34-.66 3.12-.77 3.81-.85 8.39 2.02 11.39 2.84 3.07 8.61 1.38 9.78-2.5.88-3.03-.53-6.03-1.29-8.92-1.34-5.25 1.05-10.52 4.82-14.13-.15 3.48-.4 7.4 1.98 10.27 2.76 3.84 9.35 4.38 12.11.26 3.09-4.22 1.57-9.83-.45-14.17z" fill="#f4900c"/><g fill="#d52b1e"><path d="m0 30.63c.68-6.58 6.23-12.42 12.96-12.74 7.47-.26 14.95 0 22.42-.09.01 30.8.01 61.6 0 92.4-7.47-.09-14.96.17-22.43-.09-6.69-.32-12.18-6.09-12.95-12.61z"/><path d="m112.82 17.58c5.36.07 10.46 2.63 13.4 7.17-1.13 4.41-1.96 9.67-6.19 12.27-2.88 2.06-7.93.7-8.48-3.07-.6-5.49 1.71-10.84 1.27-16.37z"/><path d="m59.64 46.18c1.47-2.61 2.97-5.21 4.22-7.93.67 7.23 4.19 13.65 8.28 19.49.09.13.26.39.35.53 4.74 3.39 9.54 7.09 15.4 8.25-3.61 2.98-7.26 5.89-10.83 8.91.41 1.49.83 2.98 1.27 4.47-4.33-.55-8.67-.98-12.98-1.55.22 4.63.66 9.25.86 13.89-.82-.01-2.47-.01-3.29-.01.54-4.6.8-9.23.87-13.86-4.28.55-8.59.94-12.85 1.62.37-1.62.75-3.24 1.09-4.86-4.36-3.34-8.56-6.89-12.84-10.33 1.11-.61 2.23-1.21 3.35-1.8-.79-2.91-1.58-5.82-2.4-8.72 2.72.56 5.44 1.11 8.17 1.57.35-1.36.7-2.71 1.05-4.07 2.27 2.77 4.62 5.53 7.55 7.65.12-5.21-1.21-10.27-2.24-15.33 1.64.73 3.31 1.39 4.97 2.08z"/><path d="m119.04 57.98c4.88-5.08 7.92-11.71 8.96-18.65v58.05c-.69 6.58-6.23 12.4-12.94 12.73-7.48.26-14.96 0-22.44.09 0-14.25-.02-28.5.01-42.75 9.66 1.28 19.63-2.57 26.41-9.47z"/></g><path d="m35.38 17.8c11.37-.01 22.73.02 34.1-.02-4 6.05-5.48 13.32-5.62 20.47-1.25 2.72-2.75 5.32-4.22 7.93-1.66-.69-3.33-1.35-4.97-2.08 1.03 5.06 2.36 10.12 2.24 15.33-2.93-2.12-5.28-4.88-7.55-7.65-.35 1.36-.7 2.71-1.05 4.07-2.73-.46-5.45-1.01-8.17-1.57.82 2.9 1.61 5.81 2.4 8.72-1.12.59-2.24 1.19-3.35 1.8 4.28 3.44 8.48 6.99 12.84 10.33-.34 1.62-.72 3.24-1.09 4.86 4.26-.68 8.57-1.07 12.85-1.62-.07 4.63-.33 9.26-.87 13.86.82 0 2.47 0 3.29.01-.2-4.64-.64-9.26-.86-13.89 4.31.57 8.65 1 12.98 1.55-.44-1.49-.86-2.98-1.27-4.47 3.57-3.02 7.22-5.93 10.83-8.91 1.57.36 3.15.68 4.74.93-.03 14.25-.01 28.5-.01 42.75-19.08 0-38.16 0-57.24 0 .01-30.8.01-61.6 0-92.4z" fill="#eee"/><path d="m72.84 29.19c-2.87-3-2.79-7.58-2.02-11.39 3.5.01 7.01.01 10.51-.03.76 2.89 2.17 5.89 1.29 8.92-1.17 3.88-6.94 5.57-9.78 2.5z" fill="#eee"/><path d="m93.52 30.38c3.01 1.54 6.32 2.97 8.27 5.88 2.71 3.65 2.44 8.42 3.47 12.65.47 2.81 4.09 4.02 6.46 2.75 2.63-.99 3.2-4.08 4.45-6.27 1.58 4.03 2.56 8.26 2.87 12.59-6.78 6.9-16.75 10.75-26.41 9.47-1.59-.25-3.17-.57-4.74-.93-5.86-1.16-10.66-4.86-15.4-8.25-.09-.14-.26-.4-.35-.53 1.74-6.16 3.04-12.64 7.48-17.53 1.11 2.63 1.27 6.6 4.51 7.59 4.15.95 8.48-2.08 9.82-5.98 1.3-3.73.13-7.68-.43-11.44z" fill="#ffcc4d"/></svg>