<?xml version="1.0" encoding="UTF-8" ?>
<!DOCTYPE svg PUBLIC "-//W3C//DTD SVG 1.1//EN" "http://www.w3.org/Graphics/SVG/1.1/DTD/svg11.dtd">
<svg width="128pt" height="128pt" viewBox="0 0 128 128" version="1.1" xmlns="http://www.w3.org/2000/svg">
<g id="#f4900cff">
<path fill="#f4900c" opacity="1.00" d=" M 99.79 0.00 L 99.93 0.00 C 106.71 3.38 112.56 9.65 112.82 17.58 C 113.26 23.11 110.95 28.46 111.55 33.95 C 112.10 37.72 117.15 39.08 120.03 37.02 C 124.26 34.42 125.09 29.16 126.22 24.75 C 127.05 26.84 127.70 29.01 128.00 31.25 L 128.00 39.33 C 126.96 46.27 123.92 52.90 119.04 57.98 C 118.73 53.65 117.75 49.42 116.17 45.39 C 114.92 47.58 114.35 50.67 111.72 51.66 C 109.35 52.93 105.73 51.72 105.26 48.91 C 104.23 44.68 104.50 39.91 101.79 36.26 C 99.84 33.35 96.53 31.92 93.52 30.38 C 94.08 34.14 95.25 38.09 93.95 41.82 C 92.61 45.72 88.28 48.75 84.13 47.80 C 80.89 46.81 80.73 42.84 79.62 40.21 C 75.18 45.10 73.88 51.58 72.14 57.74 C 68.05 51.90 64.53 45.48 63.86 38.25 C 64.00 31.10 65.48 23.83 69.48 17.78 C 70.14 16.74 70.80 15.71 71.48 14.68 C 71.31 15.46 70.98 17.02 70.82 17.80 C 70.05 21.61 69.97 26.19 72.84 29.19 C 75.68 32.26 81.45 30.57 82.62 26.69 C 83.50 23.66 82.09 20.66 81.33 17.77 C 79.99 12.52 82.38 7.25 86.15 3.64 C 86.00 7.12 85.75 11.04 88.13 13.91 C 90.89 17.75 97.48 18.29 100.24 14.17 C 103.33 9.95 101.81 4.34 99.79 0.00 Z" />
</g>
<g id="#d52b1eff">
<path fill="#d52b1e" opacity="1.00" d=" M 0.00 30.63 C 0.68 24.05 6.23 18.21 12.96 17.89 C 20.43 17.63 27.91 17.89 35.38 17.80 C 35.39 48.60 35.39 79.40 35.38 110.20 C 27.91 110.11 20.42 110.37 12.95 110.11 C 6.26 109.79 0.77 104.02 0.00 97.50 L 0.00 30.63 Z" />
<path fill="#d52b1e" opacity="1.00" d=" M 112.82 17.58 C 118.18 17.65 123.28 20.21 126.22 24.75 C 125.09 29.16 124.26 34.42 120.03 37.02 C 117.15 39.08 112.10 37.72 111.55 33.95 C 110.95 28.46 113.26 23.11 112.82 17.58 Z" />
<path fill="#d52b1e" opacity="1.00" d=" M 59.64 46.18 C 61.11 43.57 62.61 40.97 63.86 38.25 C 64.53 45.48 68.05 51.90 72.14 57.74 C 72.23 57.87 72.40 58.13 72.49 58.27 C 77.23 61.66 82.03 65.36 87.89 66.52 C 84.28 69.50 80.63 72.41 77.06 75.43 C 77.47 76.92 77.89 78.41 78.33 79.90 C 74.00 79.35 69.66 78.92 65.35 78.35 C 65.57 82.98 66.01 87.60 66.21 92.24 C 65.39 92.23 63.74 92.23 62.92 92.23 C 63.46 87.63 63.72 83.00 63.79 78.37 C 59.51 78.92 55.20 79.31 50.94 79.99 C 51.31 78.37 51.69 76.75 52.03 75.13 C 47.67 71.79 43.47 68.24 39.19 64.80 C 40.30 64.19 41.42 63.59 42.54 63.00 C 41.75 60.09 40.96 57.18 40.14 54.28 C 42.86 54.84 45.58 55.39 48.31 55.85 C 48.66 54.49 49.01 53.14 49.36 51.78 C 51.63 54.55 53.98 57.31 56.91 59.43 C 57.03 54.22 55.70 49.16 54.67 44.10 C 56.31 44.83 57.98 45.49 59.64 46.18 Z" />
<path fill="#d52b1e" opacity="1.00" d=" M 119.04 57.98 C 123.92 52.90 126.96 46.27 128.00 39.33 L 128.00 97.38 C 127.31 103.96 121.77 109.78 115.06 110.11 C 107.58 110.37 100.10 110.11 92.62 110.20 C 92.62 95.95 92.60 81.70 92.63 67.45 C 102.29 68.73 112.26 64.88 119.04 57.98 Z" />
</g>
<g id="#eeeeeeff">
<path fill="#eeeeee" opacity="1.00" d=" M 35.38 17.80 C 46.75 17.79 58.11 17.82 69.48 17.78 C 65.48 23.83 64.00 31.10 63.86 38.25 C 62.61 40.97 61.11 43.57 59.64 46.18 C 57.98 45.49 56.31 44.83 54.67 44.10 C 55.70 49.16 57.03 54.22 56.91 59.43 C 53.98 57.31 51.63 54.55 49.36 51.78 C 49.01 53.14 48.66 54.49 48.31 55.85 C 45.58 55.39 42.86 54.84 40.14 54.28 C 40.96 57.18 41.75 60.09 42.54 63.00 C 41.42 63.59 40.30 64.19 39.19 64.80 C 43.47 68.24 47.67 71.79 52.03 75.13 C 51.69 76.75 51.31 78.37 50.94 79.99 C 55.20 79.31 59.51 78.92 63.79 78.37 C 63.72 83.00 63.46 87.63 62.92 92.23 C 63.74 92.23 65.39 92.23 66.21 92.24 C 66.01 87.60 65.57 82.98 65.35 78.35 C 69.66 78.92 74.00 79.35 78.33 79.90 C 77.89 78.41 77.47 76.92 77.06 75.43 C 80.63 72.41 84.28 69.50 87.89 66.52 C 89.46 66.88 91.04 67.20 92.63 67.45 C 92.60 81.70 92.62 95.95 92.62 110.20 C 73.54 110.20 54.46 110.20 35.38 110.20 C 35.39 79.40 35.39 48.60 35.38 17.80 Z" />
<path fill="#eeeeee" opacity="1.00" d=" M 72.84 29.19 C 69.97 26.19 70.05 21.61 70.82 17.80 C 74.32 17.81 77.83 17.81 81.33 17.77 C 82.09 20.66 83.50 23.66 82.62 26.69 C 81.45 30.57 75.68 32.26 72.84 29.19 Z" />
</g>
<g id="#ffcc4dff">
<path fill="#ffcc4d" opacity="1.00" d=" M 93.52 30.38 C 96.53 31.92 99.84 33.35 101.79 36.26 C 104.50 39.91 104.23 44.68 105.26 48.91 C 105.73 51.72 109.35 52.93 111.72 51.66 C 114.35 50.67 114.92 47.58 116.17 45.39 C 117.75 49.42 118.73 53.65 119.04 57.98 C 112.26 64.88 102.29 68.73 92.63 67.45 C 91.04 67.20 89.46 66.88 87.89 66.52 C 82.03 65.36 77.23 61.66 72.49 58.27 C 72.40 58.13 72.23 57.87 72.14 57.74 C 73.88 51.58 75.18 45.10 79.62 40.21 C 80.73 42.84 80.89 46.81 84.13 47.80 C 88.28 48.75 92.61 45.72 93.95 41.82 C 95.25 38.09 94.08 34.14 93.52 30.38 Z" />
</g>
</svg>
