<svg height="128pt" viewBox="0 0 105 128" width="140" xmlns="http://www.w3.org/2000/svg"><g stroke-width=".094"><path d="m21.87 17.27c2.86-5.67 7.02-10.83 12.38-14.31.88 2.1 1.24 4.35 1.58 6.59 2.87 16.42 5.69 32.85 8.59 49.26-7.45-.12-14.9.25-22.34-.12-2.15.09-3.7-1.43-4.97-2.95l-.38-.4c-.56-12.81-.99-26.37 5.14-38.07z" fill="#cdd7de" stroke="#cdd7de"/><path d="m17.11 55.74c1.27 1.52 2.82 3.04 4.97 2.95 7.44.37 14.89 0 22.34.12.42 2.11.71 4.24 1 6.37-3.79-.01-7.6.29-11.3 1.14-3.86-4.14-10.05-3.49-15.19-4.15-2.04-1.44-1.31-4.31-1.82-6.43z" fill="#abb9c3" stroke="#abb9c3"/><path d="m34.12 66.32c3.7-.85 7.51-1.15 11.3-1.14-.11.49-.32 1.47-.43 1.97l-.45.51-.67.26-.82.13c-3.28.38-6.04 2.33-8.31 4.61l-.28.24c-2.13-1.22-1.55-5-.34-6.58z" fill="#2b3238" stroke="#2b3238"/><path d="m46.99 89.6c.93 1.12 1.89 2.22 2.92 3.26-.11 3.09-.26 6.18-.07 9.28-1.58-.85-3.16-1.71-4.73-2.58 1.71-3.05 1.56-6.6 1.88-9.96z" fill="#2b3238" stroke="#2b3238"/><g fill="#ffdd5d" stroke="#ffdd5d"><path d="m44.99 67.15c4.19-1.1 8.53-2.72 12.91-1.53 8.09 2.01 14.28 8.61 17.84 15.91 3.87 8.18 5.22 18.17 1.35 26.59-4.66 10.29-16.45 14.76-27.1 15.05.4-2.02.94-4.03 1.01-6.09-.46-1.9-1.77-3.41-2.79-5.03 1.03-1.65 2.32-3.2 2.84-5.11-.28-1.63-.81-3.2-1.21-4.8-.19-3.1-.04-6.19.07-9.28 3.61 2.6 8.14 3.26 12.49 3.35-.02-.53-.05-1.61-.06-2.15-4.26-.35-9.43-.38-12.27-4.13-2.7-3.04-1.92-7.34-2.03-11.06-.58 0-1.75.02-2.33.03-.28 4.72-.06 9.46-.07 14.19.32 3.06-2.39 6.39-5.62 5.92-2.06-.03-3.63-1.82-4.4-3.58-.92-7.55.74-15.28-.88-22.77 2.27-2.28 5.03-4.23 8.31-4.61l.82-.13.67-.26z"/><path d="m22.47 80.25c2.16-4.06 7.47-2.55 11.21-2.73.02 3.34.05 6.67-.02 10.01-2.79.08-5.59.19-8.37.4l-.43.03c-1.87-2.05-4.13-4.86-2.39-7.71z"/><path d="m20.24 94.01c.13-3.4 3.9-5.5 7-4.39 2.13.29 4.27.49 6.42.68.08 3.01-.41 6.47 2.03 8.74-3.9-.19-7.83-.26-11.7.25l-1.07.11c-1.23-1.58-2.98-3.16-2.68-5.39z"/><path d="m27.07 101.11c6.24.8 12.77-.92 18.84.86 4.01 1.45 3.61 7.43-.27 8.68-6.6.74-13.27-.03-19.89.32-.86-1.59-2.39-3.06-2.17-5-.11-2.25 1.89-3.67 3.49-4.86z"/><path d="m32.41 113.07c3.85.12 7.71-.1 11.56.11 2.27.01 4.19 1.99 4.8 4.06.57 2.51-1.58 4.29-3.05 5.95-4.52-.27-9.09.31-13.57-.32-4.82-1.07-4.57-9 .26-9.8z"/></g><path d="m34.46 72.9.28-.24c1.62 7.49-.04 15.22.88 22.77.77 1.76 2.34 3.55 4.4 3.58 3.23.47 5.94-2.86 5.62-5.92.01-4.73-.21-9.47.07-14.19.58-.01 1.75-.03 2.33-.03.11 3.72-.67 8.02 2.03 11.06 2.84 3.75 8.01 3.78 12.27 4.13.01.54.04 1.62.06 2.15-4.35-.09-8.88-.75-12.49-3.35-1.03-1.04-1.99-2.14-2.92-3.26-.32 3.36-.17 6.91-1.88 9.96 1.57.87 3.15 1.73 4.73 2.58.4 1.6.93 3.17 1.21 4.8-.52 1.91-1.81 3.46-2.84 5.11 1.02 1.62 2.33 3.13 2.79 5.03-.07 2.06-.61 4.07-1.01 6.09-1.43-.01-2.85 0-4.27.02 1.47-1.66 3.62-3.44 3.05-5.95-.61-2.07-2.53-4.05-4.8-4.06-3.85-.21-7.71.01-11.56-.11-2.38-.08-4.9-.29-6.66-2.1 6.62-.35 13.29.42 19.89-.32 3.88-1.25 4.28-7.23.27-8.68-6.07-1.78-12.6-.06-18.84-.86-1.05-.38-3.15-1.15-4.2-1.53l1.12-.29c3.87-.51 7.8-.44 11.7-.25-2.44-2.27-1.95-5.73-2.03-8.74-2.15-.19-4.29-.39-6.42-.68-.49-.42-1.47-1.27-1.95-1.69 2.78-.21 5.58-.32 8.37-.4.07-3.34.04-6.67.02-10.01.05-1.56.03-3.2.78-4.62z" fill="#f69943" stroke="#f69943"/></g></svg>