<?xml version="1.0" encoding="UTF-8" ?>
<!DOCTYPE svg PUBLIC "-//W3C//DTD SVG 1.1//EN" "http://www.w3.org/Graphics/SVG/1.1/DTD/svg11.dtd">
<svg width="416pt" height="500pt" viewBox="0 0 416 500" version="1.1" xmlns="http://www.w3.org/2000/svg">
<g id="#d10000ff">
<path fill="#d10000" opacity="1.00" d=" M 179.93 2.47 C 198.25 0.48 216.81 0.21 235.12 2.52 C 253.36 5.15 271.24 10.39 287.99 18.07 C 314.89 30.77 339.26 48.69 359.81 70.17 C 384.47 96.08 403.81 127.83 411.82 162.92 C 418.98 193.67 416.38 226.53 404.65 255.83 C 396.98 274.51 389.91 293.47 384.77 313.02 C 378.50 337.01 374.67 362.23 378.72 386.92 C 380.29 394.98 381.94 403.22 386.01 410.45 C 332.95 437.91 279.83 465.27 226.75 492.69 C 222.33 495.02 217.64 496.94 213.64 500.00 L 212.41 500.00 C 209.72 493.74 203.42 490.40 197.04 489.08 C 183.41 485.89 169.19 487.27 155.53 489.60 C 153.39 477.52 147.25 466.17 138.01 458.06 C 124.91 446.38 107.11 441.72 89.93 440.80 C 63.78 439.58 37.91 445.40 13.03 452.93 C 14.71 429.32 16.76 405.74 18.51 382.13 C 18.76 379.63 18.92 376.75 20.92 374.95 C 23.97 371.89 28.53 371.69 32.32 370.12 C 33.96 369.48 35.08 367.73 34.14 366.05 C 31.40 359.25 24.30 356.00 19.39 351.05 C 19.00 343.56 26.71 339.39 33.02 337.94 C 24.62 333.98 16.30 329.71 8.82 324.16 C 5.49 321.45 1.36 318.53 0.61 314.03 C 2.03 307.68 7.12 302.95 12.09 299.13 C 14.70 296.99 18.38 295.49 19.42 291.99 C 18.14 287.76 13.69 285.94 10.42 283.49 C 6.37 280.97 2.78 277.00 2.33 272.06 C 1.63 266.43 5.15 261.61 8.26 257.31 C 16.14 246.19 24.19 235.19 31.85 223.91 C 34.53 219.71 37.55 215.62 39.28 210.91 C 40.20 208.58 38.97 206.17 37.83 204.18 C 33.35 197.08 26.32 192.26 19.89 187.10 C 16.85 184.88 17.11 180.72 17.73 177.44 C 19.58 168.69 24.59 161.14 28.40 153.17 C 32.25 145.33 35.16 136.93 36.11 128.21 C 37.01 121.22 36.04 114.07 37.65 107.16 C 39.95 96.68 45.67 87.41 51.54 78.59 C 63.50 60.63 78.66 44.73 96.47 32.50 C 121.10 15.48 150.30 5.79 179.93 2.47 M 118.95 38.83 C 100.18 49.10 82.14 61.92 69.57 79.52 C 60.69 91.83 53.55 106.09 52.77 121.50 C 51.54 139.72 47.46 157.73 40.49 174.62 C 39.30 178.23 36.50 182.33 38.79 186.07 C 42.16 191.61 48.21 195.20 50.57 201.42 C 52.84 207.01 50.15 212.91 48.09 218.12 C 41.06 233.91 31.47 248.39 21.70 262.59 C 20.28 264.83 18.51 267.23 18.73 270.03 C 19.81 273.38 22.93 275.44 25.57 277.52 C 28.65 279.67 32.09 282.18 36.06 281.72 C 40.92 280.93 43.88 275.73 48.93 275.51 C 54.93 275.86 58.89 282.42 65.13 281.64 C 70.52 280.94 72.79 274.37 71.25 269.71 C 70.04 266.96 67.67 264.86 66.70 261.99 C 66.52 259.69 69.05 258.36 71.05 258.63 C 75.39 259.06 78.99 262.85 79.50 267.13 C 80.47 274.97 76.86 282.88 71.00 288.02 C 61.26 296.99 47.30 299.55 34.46 298.70 C 29.40 303.58 25.13 309.21 21.24 315.05 C 30.19 320.51 40.65 322.57 50.92 323.80 C 65.84 325.53 80.89 325.34 95.86 324.51 C 95.17 321.38 93.96 317.82 95.99 314.92 C 97.59 312.31 101.10 312.75 103.61 313.51 C 109.41 315.36 113.53 320.25 116.84 325.12 C 121.26 331.83 125.42 339.00 127.01 346.96 C 127.51 349.12 127.02 352.95 124.00 352.47 C 112.58 350.68 104.83 340.71 93.97 337.44 C 81.38 333.50 67.80 334.31 55.05 337.08 C 48.65 338.61 41.95 340.34 37.00 344.93 C 39.57 347.03 42.38 348.98 44.24 351.79 C 48.60 358.68 48.37 367.41 46.65 375.10 C 45.45 381.80 41.62 387.48 38.65 393.45 C 35.04 404.81 34.70 416.92 34.04 428.74 C 46.06 430.30 58.50 429.81 70.14 426.25 C 78.59 423.40 86.70 419.68 94.86 416.10 C 98.07 414.78 101.45 413.36 105.00 413.59 C 107.52 414.19 109.41 416.24 111.94 416.81 C 114.39 416.76 116.71 415.85 118.98 415.00 C 127.15 411.68 135.56 408.99 143.66 405.51 C 156.98 399.97 169.15 392.09 180.89 383.79 C 184.01 381.68 187.20 379.36 190.99 378.72 C 195.05 378.79 198.98 380.77 203.08 379.96 C 209.83 378.96 215.72 375.08 220.83 370.75 C 228.35 364.23 234.48 356.28 239.99 348.03 C 246.06 338.63 250.99 327.52 249.43 316.09 C 248.56 310.79 242.53 309.22 239.71 305.25 C 238.41 302.92 240.44 300.62 241.26 298.53 C 243.56 301.07 245.44 304.62 248.98 305.51 C 253.63 303.43 256.55 298.46 261.84 297.65 C 261.38 299.41 260.74 301.16 260.63 303.00 C 262.23 305.53 265.74 305.99 267.93 303.93 C 274.16 298.74 276.67 290.68 281.20 284.20 C 283.77 280.37 288.64 279.64 292.33 277.35 C 299.12 273.22 303.65 266.47 308.03 260.04 C 315.33 249.30 320.99 237.43 324.53 224.93 C 326.10 219.74 325.59 214.15 323.81 209.08 C 318.60 194.05 303.84 182.93 288.02 181.80 C 278.73 181.17 269.68 185.67 263.68 192.61 C 258.82 197.87 256.62 204.85 252.83 210.82 C 251.78 212.32 250.69 214.00 248.94 214.75 C 244.12 214.41 239.48 212.80 234.89 211.35 C 230.81 210.35 229.81 205.48 226.34 203.66 C 222.69 202.87 218.49 204.13 215.31 201.70 C 213.49 200.55 211.80 198.13 213.33 196.07 C 214.46 192.83 218.82 189.88 216.80 186.23 C 214.30 183.35 210.98 181.32 208.35 178.56 C 205.33 175.31 199.80 175.32 197.80 171.02 C 194.37 164.27 196.49 156.04 192.69 149.40 C 190.56 145.38 185.04 143.80 184.70 138.76 C 192.58 138.16 199.35 143.18 203.88 149.16 C 205.43 151.01 208.23 154.25 210.59 151.64 C 213.71 148.29 214.92 143.29 213.72 138.87 C 210.61 125.03 199.92 114.16 197.43 100.12 C 197.06 98.38 197.18 94.42 200.00 95.43 C 205.48 99.33 207.84 105.99 211.67 111.28 C 215.24 116.08 220.85 118.66 226.25 120.83 C 231.52 122.94 236.11 126.34 241.22 128.74 C 242.91 129.51 245.35 130.51 246.75 128.68 C 246.51 126.84 245.16 125.44 244.24 123.92 C 246.43 123.57 249.15 124.06 250.66 122.02 C 249.27 117.01 243.99 114.73 239.46 113.30 C 235.87 112.31 232.99 109.91 230.24 107.51 C 232.80 107.83 235.34 108.25 237.92 108.38 C 247.11 109.24 255.53 103.91 261.98 97.90 C 264.79 95.45 266.92 89.93 271.51 91.64 C 277.87 94.42 283.82 98.83 291.01 99.16 C 300.11 98.90 308.47 93.13 317.70 94.35 C 319.87 96.91 321.15 100.09 323.22 102.74 C 329.29 110.60 336.09 118.13 344.69 123.28 C 355.10 129.99 368.21 133.61 380.38 129.87 C 371.64 115.73 362.30 101.96 352.32 88.67 C 343.37 77.07 334.07 65.56 322.67 56.25 C 306.84 43.23 288.34 33.83 269.22 26.66 C 220.44 8.91 164.51 14.54 118.95 38.83 M 271.95 352.91 C 268.30 355.55 263.76 356.09 259.55 357.33 C 257.25 364.36 255.65 371.69 252.19 378.28 C 249.44 383.57 244.81 387.60 239.80 390.71 C 233.70 394.46 227.44 397.96 221.00 401.11 C 219.35 401.99 217.35 402.80 216.83 404.81 C 209.45 425.04 202.39 445.41 194.61 465.50 C 193.35 468.78 191.75 472.77 194.03 476.00 C 197.44 480.99 203.48 483.07 208.86 485.21 C 214.94 487.30 221.43 490.01 227.94 488.43 C 232.73 486.68 233.47 480.96 236.28 477.34 C 239.28 475.20 244.12 476.74 246.47 473.47 C 249.41 468.89 249.57 463.24 251.18 458.16 C 260.60 427.13 267.28 395.26 278.80 364.89 C 279.98 361.62 280.79 357.50 278.52 354.51 C 277.11 352.47 274.09 351.14 271.95 352.91 M 298.22 395.18 C 295.19 397.52 295.18 401.62 294.40 405.03 C 291.24 420.36 287.16 435.47 283.44 450.66 C 283.04 452.39 283.38 454.17 283.37 455.94 C 290.34 452.95 296.51 448.09 304.05 446.51 C 307.39 445.46 312.08 445.48 313.69 441.76 C 315.77 437.11 316.24 431.97 317.46 427.07 C 320.44 414.57 323.25 401.91 323.57 389.02 C 323.78 386.78 322.66 384.02 320.09 383.95 C 311.68 384.73 304.40 389.74 298.22 395.18 Z" />
<path fill="#d10000" opacity="1.00" d=" M 96.41 169.50 C 101.33 166.82 106.22 163.02 112.01 162.87 C 128.67 169.57 145.94 174.64 163.02 180.16 C 159.15 182.65 154.94 186.79 149.94 184.96 C 138.70 181.93 127.70 177.42 115.98 176.68 C 112.62 176.38 109.21 177.39 106.92 179.94 C 101.36 185.60 94.15 189.15 88.10 194.17 C 85.80 195.89 88.05 198.97 89.99 199.91 C 97.16 203.50 105.45 202.23 113.12 203.54 C 118.82 204.53 122.02 210.77 127.94 211.20 C 137.44 211.92 146.41 208.04 154.77 204.01 C 155.06 208.52 157.25 214.62 152.89 217.87 C 145.13 223.07 134.58 220.36 127.00 226.05 C 120.56 229.72 115.67 236.51 107.91 237.47 C 105.68 237.92 103.53 237.01 101.41 236.46 C 103.72 231.51 105.10 225.24 110.39 222.56 C 112.40 221.09 115.72 220.20 115.95 217.29 C 113.27 216.23 110.27 215.97 107.46 216.58 C 103.81 217.50 101.35 220.57 98.81 223.12 C 99.62 223.65 101.24 224.73 102.05 225.26 C 99.58 228.22 97.25 232.26 93.04 232.76 C 89.02 233.05 87.43 228.42 84.25 226.82 C 77.64 223.62 69.63 225.18 63.43 220.84 C 65.57 215.81 70.37 211.70 70.34 205.95 C 68.74 202.31 62.55 203.51 61.70 199.26 C 60.95 195.26 60.70 190.96 61.94 187.04 C 62.66 184.71 65.08 183.73 67.13 182.88 C 77.17 179.09 87.12 174.91 96.41 169.50 Z" />
<path fill="#d10000" opacity="1.00" d=" M 268.95 209.85 C 273.72 205.88 278.46 201.64 284.13 199.00 C 286.58 197.54 289.04 199.78 291.21 200.81 C 295.26 203.57 299.92 205.98 302.75 210.09 C 304.90 216.43 305.77 223.27 305.47 229.96 C 305.53 232.42 304.38 234.60 303.10 236.61 C 299.96 231.05 300.01 224.14 296.01 218.99 C 294.38 216.60 291.13 214.59 288.32 216.33 C 284.08 218.59 280.10 222.23 278.76 226.97 C 278.86 232.48 283.03 236.76 284.43 241.94 C 286.21 248.03 287.62 255.32 283.90 260.98 C 280.21 266.13 273.35 266.30 267.80 267.87 C 262.71 269.21 262.08 275.48 258.12 278.16 C 254.06 279.77 250.34 276.67 247.24 274.46 C 249.81 271.91 252.42 269.40 255.02 266.88 C 254.18 266.61 252.49 266.08 251.65 265.82 C 254.94 260.44 260.69 256.88 263.13 250.97 C 264.46 247.42 260.66 245.39 258.32 243.67 C 258.63 242.54 258.96 241.42 259.31 240.30 C 261.22 240.93 263.13 241.60 265.01 242.34 C 267.34 239.42 268.98 235.81 268.14 232.00 C 267.76 226.61 262.07 223.94 260.74 218.98 C 262.45 215.16 265.98 212.63 268.95 209.85 Z" />
<path fill="#d10000" opacity="1.00" d=" M 60.61 354.01 C 60.50 350.93 62.92 348.11 66.00 347.83 C 71.16 347.16 76.39 348.71 80.99 350.98 C 83.41 352.35 86.19 354.16 86.71 357.11 C 86.96 360.46 84.55 363.22 82.05 365.13 C 77.43 368.57 71.91 370.49 66.71 372.86 C 63.79 366.94 60.55 360.77 60.61 354.01 Z" />
</g>
<g id="#ffd900ff">
<path fill="#ffd900" opacity="1.00" d=" M 118.95 38.83 C 164.51 14.54 220.44 8.91 269.22 26.66 C 288.34 33.83 306.84 43.23 322.67 56.25 C 334.07 65.56 343.37 77.07 352.32 88.67 C 362.30 101.96 371.64 115.73 380.38 129.87 C 368.21 133.61 355.10 129.99 344.69 123.28 C 336.09 118.13 329.29 110.60 323.22 102.74 C 321.15 100.09 319.87 96.91 317.70 94.35 C 308.47 93.13 300.11 98.90 291.01 99.16 C 283.82 98.83 277.87 94.42 271.51 91.64 C 266.92 89.93 264.79 95.45 261.98 97.90 C 255.53 103.91 247.11 109.24 237.92 108.38 C 235.34 108.25 232.80 107.83 230.24 107.51 C 232.99 109.91 235.87 112.31 239.46 113.30 C 243.99 114.73 249.27 117.01 250.66 122.02 C 249.15 124.06 246.43 123.57 244.24 123.92 C 245.16 125.44 246.51 126.84 246.75 128.68 C 245.35 130.51 242.91 129.51 241.22 128.74 C 236.11 126.34 231.52 122.94 226.25 120.83 C 220.85 118.66 215.24 116.08 211.67 111.28 C 207.84 105.99 205.48 99.33 200.00 95.43 C 197.18 94.42 197.06 98.38 197.43 100.12 C 199.92 114.16 210.61 125.03 213.72 138.87 C 214.92 143.29 213.71 148.29 210.59 151.64 C 208.23 154.25 205.43 151.01 203.88 149.16 C 199.35 143.18 192.58 138.16 184.70 138.76 C 185.04 143.80 190.56 145.38 192.69 149.40 C 196.49 156.04 194.37 164.27 197.80 171.02 C 199.80 175.32 205.33 175.31 208.35 178.56 C 210.98 181.32 214.30 183.35 216.80 186.23 C 218.82 189.88 214.46 192.83 213.33 196.07 C 211.80 198.13 213.49 200.55 215.31 201.70 C 218.49 204.13 222.69 202.87 226.34 203.66 C 229.81 205.48 230.81 210.35 234.89 211.35 C 239.48 212.80 244.12 214.41 248.94 214.75 C 250.69 214.00 251.78 212.32 252.83 210.82 C 256.62 204.85 258.82 197.87 263.68 192.61 C 269.68 185.67 278.73 181.17 288.02 181.80 C 303.84 182.93 318.60 194.05 323.81 209.08 C 325.59 214.15 326.10 219.74 324.53 224.93 C 320.99 237.43 315.33 249.30 308.03 260.04 C 303.65 266.47 299.12 273.22 292.33 277.35 C 288.64 279.64 283.77 280.37 281.20 284.20 C 276.67 290.68 274.16 298.74 267.93 303.93 C 265.74 305.99 262.23 305.53 260.63 303.00 C 260.74 301.16 261.38 299.41 261.84 297.65 C 256.55 298.46 253.63 303.43 248.98 305.51 C 245.44 304.62 243.56 301.07 241.26 298.53 C 240.44 300.62 238.41 302.92 239.71 305.25 C 242.53 309.22 248.56 310.79 249.43 316.09 C 250.99 327.52 246.06 338.63 239.99 348.03 C 234.48 356.28 228.35 364.23 220.83 370.75 C 215.72 375.08 209.83 378.96 203.08 379.96 C 198.98 380.77 195.05 378.79 190.99 378.72 C 187.20 379.36 184.01 381.68 180.89 383.79 C 169.15 392.09 156.98 399.97 143.66 405.51 C 135.56 408.99 127.15 411.68 118.98 415.00 C 116.71 415.85 114.39 416.76 111.94 416.81 C 109.41 416.24 107.52 414.19 105.00 413.59 C 101.45 413.36 98.07 414.78 94.86 416.10 C 86.70 419.68 78.59 423.40 70.14 426.25 C 58.50 429.81 46.06 430.30 34.04 428.74 C 34.70 416.92 35.04 404.81 38.65 393.45 C 41.62 387.48 45.45 381.80 46.65 375.10 C 48.37 367.41 48.60 358.68 44.24 351.79 C 42.38 348.98 39.57 347.03 37.00 344.93 C 41.95 340.34 48.65 338.61 55.05 337.08 C 67.80 334.31 81.38 333.50 93.97 337.44 C 104.83 340.71 112.58 350.68 124.00 352.47 C 127.02 352.95 127.51 349.12 127.01 346.96 C 125.42 339.00 121.26 331.83 116.84 325.12 C 113.53 320.25 109.41 315.36 103.61 313.51 C 101.10 312.75 97.59 312.31 95.99 314.92 C 93.96 317.82 95.17 321.38 95.86 324.51 C 80.89 325.34 65.84 325.53 50.92 323.80 C 40.65 322.57 30.19 320.51 21.24 315.05 C 25.13 309.21 29.40 303.58 34.46 298.70 C 47.30 299.55 61.26 296.99 71.00 288.02 C 76.86 282.88 80.47 274.97 79.50 267.13 C 78.99 262.85 75.39 259.06 71.05 258.63 C 69.05 258.36 66.52 259.69 66.70 261.99 C 67.67 264.86 70.04 266.96 71.25 269.71 C 72.79 274.37 70.52 280.94 65.13 281.64 C 58.89 282.42 54.93 275.86 48.93 275.51 C 43.88 275.73 40.92 280.93 36.06 281.72 C 32.09 282.18 28.65 279.67 25.57 277.52 C 22.93 275.44 19.81 273.38 18.73 270.03 C 18.51 267.23 20.28 264.83 21.70 262.59 C 31.47 248.39 41.06 233.91 48.09 218.12 C 50.15 212.91 52.84 207.01 50.57 201.42 C 48.21 195.20 42.16 191.61 38.79 186.07 C 36.50 182.33 39.30 178.23 40.49 174.62 C 47.46 157.73 51.54 139.72 52.77 121.50 C 53.55 106.09 60.69 91.83 69.57 79.52 C 82.14 61.92 100.18 49.10 118.95 38.83 M 96.41 169.50 C 87.12 174.91 77.17 179.09 67.13 182.88 C 65.08 183.73 62.66 184.71 61.94 187.04 C 60.70 190.96 60.95 195.26 61.70 199.26 C 62.55 203.51 68.74 202.31 70.34 205.95 C 70.37 211.70 65.57 215.81 63.43 220.84 C 69.63 225.18 77.64 223.62 84.25 226.82 C 87.43 228.42 89.02 233.05 93.04 232.76 C 97.25 232.26 99.58 228.22 102.05 225.26 C 101.24 224.73 99.62 223.65 98.81 223.12 C 101.35 220.57 103.81 217.50 107.46 216.58 C 110.27 215.97 113.27 216.23 115.95 217.29 C 115.72 220.20 112.40 221.09 110.39 222.56 C 105.10 225.24 103.72 231.51 101.41 236.46 C 103.53 237.01 105.68 237.92 107.91 237.47 C 115.67 236.51 120.56 229.72 127.00 226.05 C 134.58 220.36 145.13 223.07 152.89 217.87 C 157.25 214.62 155.06 208.52 154.77 204.01 C 146.41 208.04 137.44 211.92 127.94 211.20 C 122.02 210.77 118.82 204.53 113.12 203.54 C 105.45 202.23 97.16 203.50 89.99 199.91 C 88.05 198.97 85.80 195.89 88.10 194.17 C 94.15 189.15 101.36 185.60 106.92 179.94 C 109.21 177.39 112.62 176.38 115.98 176.68 C 127.70 177.42 138.70 181.93 149.94 184.96 C 154.94 186.79 159.15 182.65 163.02 180.16 C 145.94 174.64 128.67 169.57 112.01 162.87 C 106.22 163.02 101.33 166.82 96.41 169.50 M 268.95 209.85 C 265.98 212.63 262.45 215.16 260.74 218.98 C 262.07 223.94 267.76 226.61 268.14 232.00 C 268.98 235.81 267.34 239.42 265.01 242.34 C 263.13 241.60 261.22 240.93 259.31 240.30 C 258.96 241.42 258.63 242.54 258.32 243.67 C 260.66 245.39 264.46 247.42 263.13 250.97 C 260.69 256.88 254.94 260.44 251.65 265.82 C 252.49 266.08 254.18 266.61 255.02 266.88 C 252.42 269.40 249.81 271.91 247.24 274.46 C 250.34 276.67 254.06 279.77 258.12 278.16 C 262.08 275.48 262.71 269.21 267.80 267.87 C 273.35 266.30 280.21 266.13 283.90 260.98 C 287.62 255.32 286.21 248.03 284.43 241.94 C 283.03 236.76 278.86 232.48 278.76 226.97 C 280.10 222.23 284.08 218.59 288.32 216.33 C 291.13 214.59 294.38 216.60 296.01 218.99 C 300.01 224.14 299.96 231.05 303.10 236.61 C 304.38 234.60 305.53 232.42 305.47 229.96 C 305.77 223.27 304.90 216.43 302.75 210.09 C 299.92 205.98 295.26 203.57 291.21 200.81 C 289.04 199.78 286.58 197.54 284.13 199.00 C 278.46 201.64 273.72 205.88 268.95 209.85 M 60.61 354.01 C 60.55 360.77 63.79 366.94 66.71 372.86 C 71.91 370.49 77.43 368.57 82.05 365.13 C 84.55 363.22 86.96 360.46 86.71 357.11 C 86.19 354.16 83.41 352.35 80.99 350.98 C 76.39 348.71 71.16 347.16 66.00 347.83 C 62.92 348.11 60.50 350.93 60.61 354.01 Z" />
<path fill="#ffd900" opacity="1.00" d=" M 271.95 352.91 C 274.09 351.14 277.11 352.47 278.52 354.51 C 280.79 357.50 279.98 361.62 278.80 364.89 C 267.28 395.26 260.60 427.13 251.18 458.16 C 249.57 463.24 249.41 468.89 246.47 473.47 C 244.12 476.74 239.28 475.20 236.28 477.34 C 233.47 480.96 232.73 486.68 227.94 488.43 C 221.43 490.01 214.94 487.30 208.86 485.21 C 203.48 483.07 197.44 480.99 194.03 476.00 C 191.75 472.77 193.35 468.78 194.61 465.50 C 202.39 445.41 209.45 425.04 216.83 404.81 C 217.35 402.80 219.35 401.99 221.00 401.11 C 227.44 397.96 233.70 394.46 239.80 390.71 C 244.81 387.60 249.44 383.57 252.19 378.28 C 255.65 371.69 257.25 364.36 259.55 357.33 C 263.76 356.09 268.30 355.55 271.95 352.91 Z" />
<path fill="#ffd900" opacity="1.00" d=" M 298.22 395.18 C 304.40 389.74 311.68 384.73 320.09 383.95 C 322.66 384.02 323.78 386.78 323.57 389.02 C 323.25 401.91 320.44 414.57 317.46 427.07 C 316.24 431.97 315.77 437.11 313.69 441.76 C 312.08 445.48 307.39 445.46 304.05 446.51 C 296.51 448.09 290.34 452.95 283.37 455.94 C 283.38 454.17 283.04 452.39 283.44 450.66 C 287.16 435.47 291.24 420.36 294.40 405.03 C 295.18 401.62 295.19 397.52 298.22 395.18 Z" />
</g>
</svg>
