<svg width="397pt" height="463pt" viewBox="0 0 397 463" version="1.1" xmlns="http://www.w3.org/2000/svg"><g id="#ffffffff"><path fill="#fff" stroke="#fff" stroke-width=".094" opacity="1" d="M 232.10 22.14 C 243.80 14.19 257.83 9.80 271.97 9.69 C 280.84 10.09 289.73 11.39 298.21 14.07 C 304.08 15.39 309.96 17.06 316.02 17.18 C 320.73 17.09 325.40 16.34 329.99 15.32 C 325.70 22.54 321.58 30.39 314.00 34.71 C 308.19 32.43 302.50 29.75 296.36 28.44 C 290.03 26.90 283.43 27.17 277.01 28.00 C 277.34 28.52 277.98 29.58 278.31 30.11 C 286.53 30.88 295.10 31.27 302.49 35.39 C 310.23 39.84 318.99 42.62 327.96 42.81 C 337.99 42.86 348.27 42.47 357.79 38.95 C 362.82 37.17 367.54 34.64 372.29 32.24 C 370.40 43.27 363.69 53.33 354.21 59.27 C 350.88 61.55 347.07 62.93 343.53 64.82 C 348.48 65.49 353.48 63.02 358.32 64.75 C 364.50 66.87 370.93 68.49 377.49 68.75 C 382.72 69.02 387.91 68.11 393.12 67.79 C 393.00 70.05 393.14 72.37 392.59 74.59 C 388.56 79.24 382.76 81.85 377.23 84.27 C 371.98 86.71 366.08 85.96 360.49 86.48 C 363.62 88.95 367.62 88.33 371.27 88.90 C 379.46 92.80 382.81 101.95 388.43 108.49 C 390.40 111.01 393.51 113.34 393.02 116.93 C 392.90 130.27 393.20 143.63 392.83 156.97 C 387.27 155.63 381.70 154.21 376.34 152.18 C 380.92 149.71 385.68 147.16 388.92 142.95 C 384.32 136.68 375.97 136.30 369.52 132.92 C 373.06 129.73 377.38 126.70 378.71 121.88 C 379.26 120.05 377.54 118.29 375.78 118.15 C 367.83 116.67 359.43 117.31 351.81 114.22 C 350.11 113.57 348.36 113.06 346.61 112.60 C 348.19 116.10 351.03 119.06 354.87 119.95 C 361.16 121.72 367.75 121.57 374.17 122.58 C 371.29 125.85 367.42 128.40 365.40 132.33 C 364.25 134.38 367.05 135.52 368.39 136.52 C 373.05 138.56 377.72 140.56 382.10 143.17 C 379.05 146.08 375.54 148.66 373.13 152.14 C 372.88 154.55 375.67 155.55 377.41 156.49 C 382.40 158.32 387.64 159.39 392.60 161.32 C 389.89 164.71 386.23 167.15 383.32 170.35 C 381.59 171.96 381.68 175.01 383.39 176.58 C 386.17 178.51 389.63 179.01 392.62 180.55 C 393.22 183.32 392.99 186.19 393.03 189.01 C 392.89 200.92 393.17 212.83 392.87 224.74 C 387.62 221.51 383.25 216.99 377.68 214.29 C 373.15 211.99 368.35 210.20 363.39 209.11 C 363.82 203.39 364.38 197.38 362.03 191.97 C 359.68 185.54 355.13 180.33 350.94 175.05 C 351.88 172.29 353.35 169.36 352.48 166.39 C 350.63 162.36 347.02 159.64 343.86 156.69 C 346.98 153.84 351.64 150.94 351.08 146.08 C 349.83 141.75 345.94 139.06 343.16 135.76 C 340.28 132.31 336.79 129.34 334.37 125.53 C 332.56 121.70 332.26 117.36 330.44 113.53 C 325.81 103.49 321.91 92.87 314.63 84.36 C 311.19 78.93 307.52 73.61 302.56 69.44 C 294.17 59.76 281.68 54.64 269.31 52.46 C 259.69 50.33 249.77 51.39 240.06 52.21 C 234.01 52.53 228.46 55.20 222.66 56.68 C 211.24 59.23 199.92 62.94 189.88 69.05 C 183.08 72.69 175.42 75.24 169.98 80.97 C 166.10 85.09 161.13 88.00 157.19 92.02 C 153.53 97.64 148.34 102.08 144.96 107.90 C 140.28 114.99 137.49 123.09 135.16 131.20 C 132.44 137.59 133.11 144.68 133.62 151.42 C 134.87 162.03 138.38 172.19 141.75 182.28 C 143.88 188.47 147.44 194.00 150.17 199.93 C 138.25 192.65 130.58 180.00 127.18 166.70 C 125.65 162.33 129.32 157.99 128.19 153.62 C 126.14 149.67 123.40 146.03 122.26 141.66 C 118.89 130.88 120.38 119.00 124.65 108.70 C 126.86 104.58 129.50 100.69 132.38 97.00 C 133.13 100.84 133.35 104.77 134.34 108.56 C 135.06 107.10 135.85 105.62 136.03 103.98 C 136.85 97.46 138.40 91.05 139.85 84.65 C 144.55 68.79 156.49 55.91 170.59 47.69 C 169.82 51.66 168.57 55.58 168.69 59.67 C 173.77 54.48 175.57 46.93 180.85 41.90 C 182.73 40.09 184.64 38.30 186.60 36.58 C 190.35 33.31 195.08 31.59 199.40 29.26 C 207.57 24.48 216.86 21.54 226.30 20.87 C 222.63 25.11 217.22 28.90 217.85 35.25 C 221.79 30.08 226.46 25.45 232.10 22.14 Z"/><path fill="#fff" stroke="#fff" stroke-width=".094" opacity="1" d="M 215.32 65.30 C 229.52 61.10 244.15 58.02 258.99 57.55 C 266.19 57.89 273.45 59.07 280.09 61.96 C 286.30 64.69 292.80 67.41 297.53 72.45 C 307.05 82.70 316.02 93.82 321.45 106.83 C 323.86 111.52 325.95 116.35 327.57 121.37 C 328.42 123.66 329.11 126.16 331.01 127.85 C 335.43 132.18 338.93 137.32 342.98 141.98 C 344.45 143.79 346.25 145.54 346.69 147.94 C 344.47 151.12 339.05 153.08 340.17 157.74 C 342.14 161.33 346.14 163.43 347.75 167.28 C 347.91 169.00 347.52 170.71 347.30 172.41 C 343.75 170.75 340.24 168.94 336.42 167.99 C 340.89 174.61 348.03 178.89 352.57 185.49 C 357.73 191.86 359.30 200.27 359.21 208.29 C 353.95 207.57 348.58 207.51 343.33 208.36 C 346.09 211.57 350.21 212.96 354.06 214.35 C 352.63 218.77 351.20 223.40 347.79 226.74 C 342.78 231.83 336.46 236.59 329.06 236.94 C 321.44 237.64 313.89 235.93 306.34 235.21 C 299.64 233.27 292.63 232.61 285.72 233.71 C 285.19 229.67 284.45 225.39 281.63 222.25 C 280.42 232.31 279.61 242.78 274.85 251.93 C 272.72 254.65 269.83 257.68 266.02 257.12 C 261.37 257.49 259.55 252.26 258.29 248.71 C 256.61 241.24 257.38 233.46 256.08 225.93 C 254.74 217.84 252.77 209.65 248.52 202.54 C 245.99 198.12 242.16 194.66 239.15 190.59 C 238.65 190.98 237.66 191.76 237.16 192.15 C 241.91 201.04 247.11 209.90 249.39 219.81 C 250.85 226.15 251.66 232.62 252.43 239.07 C 252.51 241.46 253.16 244.28 251.36 246.23 C 247.71 250.71 243.74 255.18 241.87 260.76 C 240.45 265.23 239.38 269.81 237.93 274.28 C 236.40 278.44 232.03 280.45 228.29 282.25 C 222.69 285.00 216.47 285.81 210.41 286.99 C 205.00 287.76 199.25 286.63 194.92 283.17 C 190.19 279.95 188.56 274.20 186.92 269.05 C 184.99 262.24 183.14 255.15 184.14 248.02 C 184.32 245.60 185.04 243.11 184.32 240.72 C 182.42 234.85 178.33 230.15 174.68 225.31 C 168.80 216.33 161.61 208.28 155.86 199.22 C 149.15 187.07 144.47 173.92 140.74 160.58 C 139.10 154.39 138.91 147.95 138.21 141.61 C 137.56 135.76 139.37 129.97 141.81 124.72 C 145.42 117.60 149.38 110.58 154.15 104.16 C 169.54 84.85 192.27 73.02 215.32 65.30 M 222.45 128.47 C 221.79 133.70 221.77 140.52 226.88 143.58 C 226.84 140.45 226.37 137.34 226.43 134.21 C 226.61 128.86 228.85 123.91 230.01 118.76 C 225.81 120.17 222.80 124.07 222.45 128.47 M 205.10 134.07 C 204.80 137.24 209.77 136.52 211.52 138.52 C 214.24 141.75 216.55 145.43 220.33 147.58 C 221.00 142.57 217.88 137.92 214.22 134.82 C 211.81 132.42 208.00 133.07 205.10 134.07 M 280.79 135.69 C 274.66 135.75 268.70 137.67 262.55 137.39 C 257.91 137.21 253.20 137.73 248.64 136.65 C 243.77 135.62 238.41 134.43 233.69 136.64 C 232.03 138.56 231.15 141.11 231.07 143.64 C 233.31 145.86 235.97 147.64 238.74 149.12 C 242.31 150.94 246.41 150.40 250.25 150.99 C 258.71 152.26 267.20 150.66 275.66 150.21 C 272.45 153.56 269.65 157.52 268.95 162.22 C 267.50 167.95 269.52 173.69 270.19 179.37 C 270.90 179.30 272.30 179.18 273.00 179.11 C 272.49 172.49 271.28 165.43 274.03 159.13 C 276.74 153.08 283.83 150.81 289.98 150.73 C 297.11 150.64 303.50 154.74 307.95 160.03 C 315.27 167.34 321.86 176.32 322.85 186.92 C 324.11 194.20 322.72 202.84 316.61 207.66 C 313.51 210.41 309.11 210.66 305.17 210.68 C 298.95 210.62 293.54 207.10 287.59 205.83 C 293.40 213.96 304.48 217.48 313.95 214.35 C 321.34 212.63 325.38 205.34 327.51 198.65 C 329.55 189.76 327.90 180.21 323.75 172.16 C 317.66 161.79 309.46 152.31 298.58 146.82 C 303.37 144.17 307.64 140.70 311.74 137.08 C 306.03 136.93 300.58 134.90 294.89 134.68 C 290.16 134.60 285.51 135.69 280.79 135.69 M 203.64 148.37 C 201.16 152.21 200.28 156.77 199.07 161.11 C 197.59 165.53 196.45 170.06 194.73 174.39 C 191.42 180.53 187.35 186.26 184.61 192.70 C 182.39 197.58 177.50 200.44 174.92 205.08 C 173.60 207.45 171.86 209.61 170.93 212.17 C 168.98 215.15 172.12 220.09 175.41 217.45 C 180.72 213.71 185.65 209.47 190.12 204.76 C 189.65 214.19 190.88 224.01 195.70 232.30 C 198.29 236.88 200.72 241.70 204.89 245.09 C 209.58 249.21 215.42 253.15 221.98 252.53 C 229.32 252.68 237.40 249.91 241.04 243.09 C 243.99 239.12 243.47 234.00 243.75 229.36 C 243.18 229.34 242.05 229.30 241.48 229.28 C 239.87 233.11 238.48 237.05 236.63 240.77 C 234.75 244.19 230.87 245.60 227.31 246.52 C 222.18 248.04 216.16 247.48 211.80 244.22 C 200.83 235.45 194.33 221.48 194.44 207.45 C 194.41 204.31 194.09 200.79 196.19 198.17 C 198.32 195.30 200.28 192.29 202.61 189.58 C 204.87 186.79 208.82 187.20 212.01 187.34 C 217.77 187.84 221.54 192.81 226.28 195.52 C 225.86 193.44 225.56 191.29 224.64 189.35 C 222.67 186.84 219.93 184.95 216.96 183.80 C 213.32 182.67 209.45 183.20 205.71 183.29 C 210.62 174.93 213.75 165.55 214.67 155.90 C 215.12 153.00 213.40 150.47 211.37 148.61 C 209.41 146.38 205.98 147.37 203.64 148.37 M 283.20 172.37 C 281.26 176.19 282.77 180.69 284.91 184.09 C 287.42 188.09 290.27 192.37 294.72 194.36 C 297.00 195.63 299.06 193.65 301.01 192.69 C 301.45 185.12 297.12 178.19 291.50 173.51 C 289.02 172.35 285.76 170.41 283.20 172.37 M 213.50 206.41 C 210.78 207.30 210.35 210.51 210.44 212.97 C 211.11 218.66 213.88 224.06 217.87 228.14 C 219.90 230.24 223.13 229.53 225.75 229.98 C 226.92 227.50 228.91 224.95 228.10 222.05 C 226.94 216.50 223.98 211.07 219.14 207.91 C 217.51 206.82 215.52 205.49 213.50 206.41 Z"/><path fill="#fff" stroke="#fff" stroke-width=".094" opacity="1" d="M 385.08 173.69 C 387.74 171.16 390.44 168.67 393.00 166.04 C 392.99 169.60 392.99 173.16 392.98 176.72 C 390.36 175.68 387.72 174.70 385.08 173.69 Z"/><path fill="#fff" stroke="#fff" stroke-width=".094" opacity="1" d="M 360.87 212.84 C 369.97 213.64 377.72 218.94 384.91 224.14 C 388.02 226.90 393.20 229.06 392.99 233.92 C 393.10 239.67 393.09 245.43 392.73 251.17 C 384.52 248.95 379.43 241.68 375.17 234.86 C 372.96 231.46 372.05 227.42 370.00 223.93 C 367.77 219.63 364.26 216.23 360.87 212.84 Z"/><path fill="#fff" stroke="#fff" stroke-width=".094" opacity="1" d="M 357.92 216.91 C 363.84 220.64 366.58 227.34 369.76 233.25 C 373.16 239.02 375.59 245.67 381.03 249.92 C 384.63 252.48 388.75 254.22 392.95 255.53 C 393.08 317.02 392.93 378.51 393.03 440.00 C 392.92 443.82 393.63 448.01 391.46 451.43 C 389.44 454.64 387.57 458.76 383.39 459.41 C 382.42 455.68 381.83 451.88 381.59 448.05 C 380.96 438.34 376.85 429.28 371.89 421.06 C 370.43 418.65 368.43 416.65 366.45 414.68 C 364.09 417.76 366.83 421.01 368.22 423.84 C 371.56 430.14 375.09 436.72 375.81 443.91 C 373.66 449.54 369.14 453.98 365.85 459.00 C 365.20 458.96 363.91 458.89 363.26 458.85 C 359.02 445.37 355.58 431.63 350.39 418.47 C 349.78 415.94 347.10 416.50 345.16 416.69 C 346.02 430.96 343.71 445.61 337.43 458.52 C 335.46 459.23 333.31 458.92 331.25 459.01 C 328.98 454.86 327.24 450.42 324.56 446.51 C 320.41 440.75 316.37 434.65 310.36 430.64 C 304.33 426.70 298.77 422.12 292.73 418.20 C 288.93 415.72 285.71 412.52 282.42 409.43 C 282.00 413.91 281.33 418.38 280.03 422.70 C 278.61 427.54 278.10 432.82 275.24 437.12 C 273.83 439.36 271.97 441.27 270.12 443.16 C 269.38 438.83 269.29 434.37 267.98 430.15 C 262.47 414.77 252.66 401.53 244.50 387.53 C 241.33 381.78 238.14 375.99 236.38 369.62 C 234.25 371.02 231.97 372.37 230.53 374.53 C 225.70 381.67 221.72 389.46 215.81 395.80 C 211.84 399.58 207.45 402.90 203.03 406.13 C 204.84 399.97 207.30 393.87 207.50 387.37 C 207.72 378.38 206.90 369.28 203.87 360.77 C 202.02 351.54 198.19 342.53 198.82 332.96 C 198.74 328.58 202.81 325.04 201.38 320.58 C 197.06 322.94 193.21 326.10 188.73 328.17 C 185.21 329.63 181.50 330.56 177.77 331.31 C 181.89 325.27 185.71 318.92 188.03 311.95 C 190.36 304.25 193.42 296.32 192.09 288.14 C 199.28 292.46 207.96 291.93 215.97 291.12 C 223.33 290.29 230.08 287.07 236.62 283.79 C 236.26 289.68 233.74 295.07 232.21 300.69 C 230.48 305.95 226.62 310.05 223.51 314.51 C 219.99 319.52 215.86 324.05 212.08 328.87 C 212.49 329.86 212.92 330.86 213.34 331.86 C 219.11 332.84 225.11 332.60 230.48 330.08 C 229.26 333.72 225.45 338.17 228.34 341.81 C 237.99 342.24 245.35 334.75 251.38 328.16 C 251.09 331.91 251.40 335.68 252.12 339.37 C 257.38 339.98 261.09 335.63 263.71 331.70 C 268.96 323.90 271.35 314.65 274.03 305.76 C 280.79 309.82 289.32 309.95 296.77 307.94 C 302.32 305.67 307.87 302.17 310.50 296.54 C 312.79 291.51 315.31 286.18 314.32 280.50 C 326.18 281.23 338.27 278.61 348.49 272.48 C 354.57 267.89 363.03 265.14 365.46 257.10 C 362.45 255.99 359.24 256.02 356.16 256.78 C 359.78 254.24 362.73 250.91 365.21 247.27 C 364.26 245.94 363.32 244.60 362.40 243.25 C 359.29 243.48 356.18 243.73 353.07 244.01 C 355.74 240.71 360.07 237.79 359.95 233.11 C 360.21 231.83 358.82 231.13 357.91 230.63 C 353.85 231.38 350.03 233.07 346.04 234.09 C 351.52 229.56 355.38 223.51 357.92 216.91 M 324.57 335.72 C 325.55 337.89 326.81 339.90 328.15 341.86 C 332.74 348.70 334.90 356.74 337.60 364.42 C 339.03 368.26 339.28 372.91 342.65 375.71 C 342.34 368.19 340.91 360.70 338.41 353.61 C 335.95 346.40 332.14 338.63 324.57 335.72 M 344.96 346.78 C 345.53 352.63 347.65 358.16 348.81 363.90 C 350.07 370.06 351.93 376.27 355.62 381.45 C 356.22 373.83 353.82 366.39 351.59 359.20 C 350.01 354.79 348.82 349.82 344.96 346.78 M 358.82 355.87 C 359.11 358.42 359.69 360.95 360.73 363.32 C 363.45 369.63 364.08 376.77 367.83 382.64 C 368.45 380.25 369.02 377.77 368.58 375.30 C 367.29 368.06 364.09 361.06 358.82 355.87 Z"/><path fill="#fff" stroke="#fff" stroke-width=".094" opacity="1" d="M 283.79 281.85 C 288.93 280.22 294.40 280.80 299.70 280.45 C 295.26 289.13 285.35 293.92 275.81 293.64 C 277.22 289.10 279.21 284.00 283.79 281.85 Z"/><path fill="#fff" stroke="#fff" stroke-width=".094" opacity="1" d="M 92.72 309.52 C 96.63 309.71 100.66 310.78 103.67 313.38 C 110.93 321.95 114.97 332.61 118.76 343.04 C 121.12 352.87 124.48 362.42 127.66 372.01 C 129.99 379.74 133.07 387.22 136.72 394.42 C 138.61 398.22 140.27 403.37 145.02 404.29 C 148.97 405.40 151.89 401.75 153.91 398.93 C 158.65 390.31 159.89 380.26 164.67 371.64 C 167.61 366.50 170.91 361.18 176.06 357.99 C 177.58 356.81 179.59 357.25 181.37 357.10 C 181.67 360.06 182.19 363.03 182.12 366.02 C 181.19 374.90 179.76 383.84 176.13 392.07 C 171.45 402.61 168.80 413.97 163.20 424.11 C 156.65 435.45 150.84 448.08 139.59 455.61 C 137.01 457.25 134.30 459.20 131.08 459.01 C 115.02 459.00 98.96 459.01 82.91 459.00 C 79.68 459.25 77.24 456.88 74.63 455.39 C 69.67 452.16 64.29 449.68 58.98 447.10 C 51.79 444.16 44.08 442.88 36.51 441.30 C 27.72 438.66 18.09 438.23 10.38 432.72 C 10.36 432.12 10.31 430.92 10.28 430.32 C 14.53 427.98 19.35 427.10 24.17 427.33 C 34.44 427.82 44.73 427.77 55.02 427.77 C 58.00 427.63 61.28 427.56 63.81 425.79 C 65.79 424.25 64.89 421.18 63.34 419.67 C 53.65 408.98 39.90 403.69 27.03 397.99 C 21.09 395.63 16.59 390.93 12.32 386.36 C 13.69 384.42 14.49 381.48 17.07 380.91 C 24.12 379.26 31.37 380.89 38.31 382.34 C 45.57 383.74 51.76 388.06 58.82 390.09 C 64.36 392.36 70.58 393.92 76.52 392.47 C 78.35 391.01 80.71 388.38 79.18 385.97 C 74.97 377.57 67.27 371.79 60.60 365.45 C 53.38 360.05 46.50 353.97 41.40 346.46 C 40.28 344.50 39.71 342.29 39.01 340.15 C 42.69 338.88 46.79 337.76 50.58 339.30 C 57.35 341.77 63.88 345.08 69.79 349.23 C 75.84 354.46 81.37 360.29 87.21 365.77 C 91.05 369.32 94.56 373.61 99.69 375.32 C 103.87 377.05 108.87 373.38 109.18 369.03 C 110.37 360.46 105.64 352.76 102.52 345.13 C 100.46 339.42 97.50 334.08 95.80 328.24 C 93.99 322.20 91.54 315.92 92.72 309.52 Z"/><path fill="#fff" stroke="#fff" stroke-width=".094" opacity="1" d="M 189.97 397.90 C 192.48 386.83 194.83 375.44 200.94 365.69 C 203.74 373.48 203.65 381.88 203.17 390.03 C 202.58 396.62 199.57 402.68 198.82 409.24 C 205.55 410.80 211.08 405.78 215.99 401.99 C 221.35 397.98 225.25 392.49 229.00 387.04 C 231.36 383.06 232.08 378.41 233.44 374.05 C 236.62 382.65 239.65 391.41 244.86 399.04 C 249.52 408.48 255.81 416.98 260.55 426.37 C 263.94 433.07 264.69 440.59 266.28 447.82 C 271.83 448.72 276.19 444.37 279.09 440.21 C 283.04 433.63 284.23 425.89 285.97 418.54 C 295.43 426.61 306.87 432.39 314.96 442.05 C 319.24 447.29 323.26 452.82 326.35 458.87 C 291.56 459.20 256.76 458.86 221.97 459.05 C 219.82 458.95 217.54 459.23 215.50 458.42 C 208.10 453.62 203.34 445.97 196.87 440.14 C 193.74 436.87 190.12 433.81 187.96 429.81 C 186.97 419.16 187.48 408.32 189.97 397.90 Z"/><path fill="#fff" stroke="#fff" stroke-width=".094" opacity="1" d="M 172.07 418.06 C 176.15 424.76 180.98 430.96 186.16 436.85 C 188.96 440.06 192.30 442.75 194.96 446.09 C 198.40 450.63 203.47 453.58 206.80 458.22 C 204.25 458.77 201.64 459.05 199.03 459.04 C 180.21 458.95 161.38 459.03 142.56 458.99 C 147.48 454.44 153.14 450.55 156.95 444.95 C 162.91 436.53 167.53 427.29 172.07 418.06 Z"/><path fill="#fff" stroke="#fff" stroke-width=".094" opacity="1" d="M 349.50 430.08 C 351.79 439.91 355.85 449.22 358.41 458.98 C 352.78 459.02 347.14 459.02 341.51 458.91 C 346.58 450.26 349.70 440.15 349.50 430.08 Z"/><path fill="#fff" stroke="#fff" stroke-width=".094" opacity="1" d="M 371.40 458.72 C 373.52 456.22 375.70 453.77 377.90 451.35 C 378.62 453.90 379.29 456.48 379.97 459.06 C 377.11 459.01 374.25 458.92 371.40 458.72 Z"/><path fill="#fff" stroke="#fff" stroke-width=".094" opacity="1" d="M 392.18 456.45 C 393.64 456.42 393.50 458.88 392.15 458.98 C 390.65 459.01 390.87 456.57 392.18 456.45 Z"/></g><g id="#010101ff"><path fill="#010101" stroke="#010101" stroke-width=".094" opacity="1" d="M 242.82 10.72 C 256.93 3.76 273.37 3.12 288.62 5.98 C 300.38 8.17 312.10 13.33 324.27 11.02 C 327.62 10.65 331.17 8.89 334.45 10.49 C 335.05 12.41 335.08 14.52 334.38 16.42 C 331.48 23.97 326.75 30.74 320.65 36.06 C 330.71 36.92 341.02 37.10 350.87 34.62 C 359.27 32.17 367.18 28.05 375.87 26.67 C 378.62 40.24 370.66 54.06 359.17 61.01 C 363.78 61.89 368.34 63.11 373.04 63.44 C 381.04 64.20 389.04 63.22 397.00 62.52 L 397.00 78.90 C 390.82 82.66 384.54 86.48 377.58 88.64 C 385.28 95.15 390.42 103.96 397.00 111.49 L 397.00 463.00 L 77.02 463.00 C 74.08 460.92 71.22 458.69 67.93 457.16 C 58.33 452.56 48.36 448.60 37.94 446.24 C 28.49 443.49 17.90 443.40 9.66 437.44 C 7.71 435.81 4.98 433.94 5.29 431.06 C 5.30 427.75 7.82 425.08 10.78 423.98 C 19.84 420.45 29.63 422.18 39.04 422.48 C 46.49 422.72 53.94 423.85 61.40 423.17 C 58.95 421.05 56.36 419.11 53.69 417.29 C 42.55 409.31 29.05 405.68 17.45 398.52 C 12.24 395.09 7.29 389.00 8.55 382.41 C 9.81 376.51 16.56 375.51 21.55 374.66 C 35.38 374.50 48.23 380.56 60.56 386.15 C 65.09 388.21 70.14 388.56 75.04 388.28 C 67.74 377.30 57.17 369.17 47.41 360.52 C 42.67 356.16 38.19 351.29 35.40 345.42 C 32.95 340.71 36.87 334.37 42.03 333.92 C 47.04 333.30 52.18 334.28 56.82 336.19 C 66.30 340.36 74.88 346.48 82.08 353.90 C 86.84 358.80 90.61 364.76 96.42 368.56 C 98.39 369.74 100.46 371.34 102.88 371.15 C 105.93 367.06 103.92 361.67 102.66 357.29 C 98.79 347.27 93.69 337.74 90.46 327.47 C 88.44 321.50 86.18 314.82 88.56 308.62 C 91.38 302.91 99.73 303.20 104.04 306.99 C 109.00 311.37 113.60 316.45 116.29 322.58 C 119.19 329.48 122.35 336.29 124.52 343.48 C 128.72 355.64 130.32 368.61 135.54 380.43 C 138.30 387.53 140.12 395.39 146.00 400.72 C 149.58 397.02 152.21 392.47 153.46 387.46 C 155.69 378.36 159.26 369.47 164.96 361.97 C 167.70 358.42 170.49 354.61 174.69 352.69 C 177.46 351.22 181.31 350.99 183.72 353.27 C 186.47 355.67 186.83 359.59 187.28 362.98 C 188.49 374.38 184.51 385.39 180.94 396.01 C 178.82 402.43 174.67 408.19 173.76 414.98 C 176.08 419.92 180.63 423.30 184.38 427.12 C 184.24 416.15 183.59 405.04 185.97 394.24 C 188.09 384.98 191.00 375.82 195.37 367.36 C 196.73 364.55 198.66 361.93 199.31 358.84 C 199.13 355.22 197.47 351.89 196.70 348.38 C 194.85 342.10 195.06 335.47 195.73 329.02 C 191.87 330.91 187.92 332.68 183.74 333.73 C 180.59 334.43 176.63 335.33 174.12 332.68 C 174.60 330.57 175.78 328.72 176.86 326.88 C 179.81 322.10 181.31 316.65 183.19 311.41 C 186.16 302.96 188.13 293.95 187.08 284.96 C 186.43 280.22 183.96 276.03 182.63 271.48 C 181.30 266.92 180.13 262.29 179.58 257.57 C 179.01 252.88 180.39 248.27 180.74 243.63 C 181.14 240.55 178.45 238.43 176.75 236.26 C 169.35 228.15 165.14 217.56 156.92 210.15 C 153.48 207.40 149.34 205.72 145.78 203.14 C 140.13 199.18 135.94 193.62 131.92 188.11 C 126.84 181.40 123.00 173.22 123.31 164.64 C 123.40 160.45 124.60 155.81 121.79 152.19 C 118.18 146.88 116.47 140.56 115.83 134.23 C 114.71 121.23 118.06 107.61 126.44 97.43 C 128.17 95.40 130.54 94.09 132.85 92.82 C 134.61 74.78 144.99 57.98 160.39 48.40 C 164.42 45.76 168.97 44.07 173.13 41.67 C 176.72 39.16 179.21 35.38 182.86 32.94 C 192.85 25.98 203.95 20.27 215.96 17.84 C 220.65 16.83 225.45 17.49 230.19 17.21 C 234.86 16.14 238.55 12.74 242.82 10.72 M 232.10 22.14 C 226.46 25.45 221.79 30.08 217.85 35.25 C 217.22 28.90 222.63 25.11 226.30 20.87 C 216.86 21.54 207.57 24.48 199.40 29.26 C 195.08 31.59 190.35 33.31 186.60 36.58 C 184.64 38.30 182.73 40.09 180.85 41.90 C 175.57 46.93 173.77 54.48 168.69 59.67 C 168.57 55.58 169.82 51.66 170.59 47.69 C 156.49 55.91 144.55 68.79 139.85 84.65 C 138.40 91.05 136.85 97.46 136.03 103.98 C 135.85 105.62 135.06 107.10 134.34 108.56 C 133.35 104.77 133.13 100.84 132.38 97.00 C 129.50 100.69 126.86 104.58 124.65 108.70 C 120.38 119.00 118.89 130.88 122.26 141.66 C 123.40 146.03 126.14 149.67 128.19 153.62 C 129.32 157.99 125.65 162.33 127.18 166.70 C 130.58 180.00 138.25 192.65 150.17 199.93 C 147.44 194.00 143.88 188.47 141.75 182.28 C 138.38 172.19 134.87 162.03 133.62 151.42 C 133.11 144.68 132.44 137.59 135.16 131.20 C 137.49 123.09 140.28 114.99 144.96 107.90 C 148.34 102.08 153.53 97.64 157.19 92.02 C 161.13 88.00 166.10 85.09 169.98 80.97 C 175.42 75.24 183.08 72.69 189.88 69.05 C 199.92 62.94 211.24 59.23 222.66 56.68 C 228.46 55.20 234.01 52.53 240.06 52.21 C 249.77 51.39 259.69 50.33 269.31 52.46 C 281.68 54.64 294.17 59.76 302.56 69.44 C 307.52 73.61 311.19 78.93 314.63 84.36 C 321.91 92.87 325.81 103.49 330.44 113.53 C 332.26 117.36 332.56 121.70 334.37 125.53 C 336.79 129.34 340.28 132.31 343.16 135.76 C 345.94 139.06 349.83 141.75 351.08 146.08 C 351.64 150.94 346.98 153.84 343.86 156.69 C 347.02 159.64 350.63 162.36 352.48 166.39 C 353.35 169.36 351.88 172.29 350.94 175.05 C 355.13 180.33 359.68 185.54 362.03 191.97 C 364.38 197.38 363.82 203.39 363.39 209.11 C 368.35 210.20 373.15 211.99 377.68 214.29 C 383.25 216.99 387.62 221.51 392.87 224.74 C 393.17 212.83 392.89 200.92 393.03 189.01 C 392.99 186.19 393.22 183.32 392.62 180.55 C 389.63 179.01 386.17 178.51 383.39 176.58 C 381.68 175.01 381.59 171.96 383.32 170.35 C 386.23 167.15 389.89 164.71 392.60 161.32 C 387.64 159.39 382.40 158.32 377.41 156.49 C 375.67 155.55 372.88 154.55 373.13 152.14 C 375.54 148.66 379.05 146.08 382.10 143.17 C 377.72 140.56 373.05 138.56 368.39 136.52 C 367.05 135.52 364.25 134.38 365.40 132.33 C 367.42 128.40 371.29 125.85 374.17 122.58 C 367.75 121.57 361.16 121.72 354.87 119.95 C 351.03 119.06 348.19 116.10 346.61 112.60 C 348.36 113.06 350.11 113.57 351.81 114.22 C 359.43 117.31 367.83 116.67 375.78 118.15 C 377.54 118.29 379.26 120.05 378.71 121.88 C 377.38 126.70 373.06 129.73 369.52 132.92 C 375.97 136.30 384.32 136.68 388.92 142.95 C 385.68 147.16 380.92 149.71 376.34 152.18 C 381.70 154.21 387.27 155.63 392.83 156.97 C 393.20 143.63 392.90 130.27 393.02 116.93 C 393.51 113.34 390.40 111.01 388.43 108.49 C 382.81 101.95 379.46 92.80 371.27 88.90 C 367.62 88.33 363.62 88.95 360.49 86.48 C 366.08 85.96 371.98 86.71 377.23 84.27 C 382.76 81.85 388.56 79.24 392.59 74.59 C 393.14 72.37 393.00 70.05 393.12 67.79 C 387.91 68.11 382.72 69.02 377.49 68.75 C 370.93 68.49 364.50 66.87 358.32 64.75 C 353.48 63.02 348.48 65.49 343.53 64.82 C 347.07 62.93 350.88 61.55 354.21 59.27 C 363.69 53.33 370.40 43.27 372.29 32.24 C 367.54 34.64 362.82 37.17 357.79 38.95 C 348.27 42.47 337.99 42.86 327.96 42.81 C 318.99 42.62 310.23 39.84 302.49 35.39 C 295.10 31.27 286.53 30.88 278.31 30.11 C 277.98 29.58 277.34 28.52 277.01 28.00 C 283.43 27.17 290.03 26.90 296.36 28.44 C 302.50 29.75 308.19 32.43 314.00 34.71 C 321.58 30.39 325.70 22.54 329.99 15.32 C 325.40 16.34 320.73 17.09 316.02 17.18 C 309.96 17.06 304.08 15.39 298.21 14.07 C 289.73 11.39 280.84 10.09 271.97 9.69 C 257.83 9.80 243.80 14.19 232.10 22.14 M 215.32 65.30 C 192.27 73.02 169.54 84.85 154.15 104.16 C 149.38 110.58 145.42 117.60 141.81 124.72 C 139.37 129.97 137.56 135.76 138.21 141.61 C 138.91 147.95 139.10 154.39 140.74 160.58 C 144.47 173.92 149.15 187.07 155.86 199.22 C 161.61 208.28 168.80 216.33 174.68 225.31 C 178.33 230.15 182.42 234.85 184.32 240.72 C 185.04 243.11 184.32 245.60 184.14 248.02 C 183.14 255.15 184.99 262.24 186.92 269.05 C 188.56 274.20 190.19 279.95 194.92 283.17 C 199.25 286.63 205.00 287.76 210.41 286.99 C 216.47 285.81 222.69 285.00 228.29 282.25 C 232.03 280.45 236.40 278.44 237.93 274.28 C 239.38 269.81 240.45 265.23 241.87 260.76 C 243.74 255.18 247.71 250.71 251.36 246.23 C 253.16 244.28 252.51 241.46 252.43 239.07 C 251.66 232.62 250.85 226.15 249.39 219.81 C 247.11 209.90 241.91 201.04 237.16 192.15 C 237.66 191.76 238.65 190.98 239.15 190.59 C 242.16 194.66 245.99 198.12 248.52 202.54 C 252.77 209.65 254.74 217.84 256.08 225.93 C 257.38 233.46 256.61 241.24 258.29 248.71 C 259.55 252.26 261.37 257.49 266.02 257.12 C 269.83 257.68 272.72 254.65 274.85 251.93 C 279.61 242.78 280.42 232.31 281.63 222.25 C 284.45 225.39 285.19 229.67 285.72 233.71 C 292.63 232.61 299.64 233.27 306.34 235.21 C 313.89 235.93 321.44 237.64 329.06 236.94 C 336.46 236.59 342.78 231.83 347.79 226.74 C 351.20 223.40 352.63 218.77 354.06 214.35 C 350.21 212.96 346.09 211.57 343.33 208.36 C 348.58 207.51 353.95 207.57 359.21 208.29 C 359.30 200.27 357.73 191.86 352.57 185.49 C 348.03 178.89 340.89 174.61 336.42 167.99 C 340.24 168.94 343.75 170.75 347.30 172.41 C 347.52 170.71 347.91 169.00 347.75 167.28 C 346.14 163.43 342.14 161.33 340.17 157.74 C 339.05 153.08 344.47 151.12 346.69 147.94 C 346.25 145.54 344.45 143.79 342.98 141.98 C 338.93 137.32 335.43 132.18 331.01 127.85 C 329.11 126.16 328.42 123.66 327.57 121.37 C 325.95 116.35 323.86 111.52 321.45 106.83 C 316.02 93.82 307.05 82.70 297.53 72.45 C 292.80 67.41 286.30 64.69 280.09 61.96 C 273.45 59.07 266.19 57.89 258.99 57.55 C 244.15 58.02 229.52 61.10 215.32 65.30 M 385.08 173.69 C 387.72 174.70 390.36 175.68 392.98 176.72 C 392.99 173.16 392.99 169.60 393.00 166.04 C 390.44 168.67 387.74 171.16 385.08 173.69 M 360.87 212.84 C 364.26 216.23 367.77 219.63 370.00 223.93 C 372.05 227.42 372.96 231.46 375.17 234.86 C 379.43 241.68 384.52 248.95 392.73 251.17 C 393.09 245.43 393.10 239.67 392.99 233.92 C 393.20 229.06 388.02 226.90 384.91 224.14 C 377.72 218.94 369.97 213.64 360.87 212.84 M 357.92 216.91 C 355.38 223.51 351.52 229.56 346.04 234.09 C 350.03 233.07 353.85 231.38 357.91 230.63 C 358.82 231.13 360.21 231.83 359.95 233.11 C 360.07 237.79 355.74 240.71 353.07 244.01 C 356.18 243.73 359.29 243.48 362.40 243.25 C 363.32 244.60 364.26 245.94 365.21 247.27 C 362.73 250.91 359.78 254.24 356.16 256.78 C 359.24 256.02 362.45 255.99 365.46 257.10 C 363.03 265.14 354.57 267.89 348.49 272.48 C 338.27 278.61 326.18 281.23 314.32 280.50 C 315.31 286.18 312.79 291.51 310.50 296.54 C 307.87 302.17 302.32 305.67 296.77 307.94 C 289.32 309.95 280.79 309.82 274.03 305.76 C 271.35 314.65 268.96 323.90 263.71 331.70 C 261.09 335.63 257.38 339.98 252.12 339.37 C 251.40 335.68 251.09 331.91 251.38 328.16 C 245.35 334.75 237.99 342.24 228.34 341.81 C 225.45 338.17 229.26 333.72 230.48 330.08 C 225.11 332.60 219.11 332.84 213.34 331.86 C 212.92 330.86 212.49 329.86 212.08 328.87 C 215.86 324.05 219.99 319.52 223.51 314.51 C 226.62 310.05 230.48 305.95 232.21 300.69 C 233.74 295.07 236.26 289.68 236.62 283.79 C 230.08 287.07 223.33 290.29 215.97 291.12 C 207.96 291.93 199.28 292.46 192.09 288.14 C 193.42 296.32 190.36 304.25 188.03 311.95 C 185.71 318.92 181.89 325.27 177.77 331.31 C 181.50 330.56 185.21 329.63 188.73 328.17 C 193.21 326.10 197.06 322.94 201.38 320.58 C 202.81 325.04 198.74 328.58 198.82 332.96 C 198.19 342.53 202.02 351.54 203.87 360.77 C 206.90 369.28 207.72 378.38 207.50 387.37 C 207.30 393.87 204.84 399.97 203.03 406.13 C 207.45 402.90 211.84 399.58 215.81 395.80 C 221.72 389.46 225.70 381.67 230.53 374.53 C 231.97 372.37 234.25 371.02 236.38 369.62 C 238.14 375.99 241.33 381.78 244.50 387.53 C 252.66 401.53 262.47 414.77 267.98 430.15 C 269.29 434.37 269.38 438.83 270.12 443.16 C 271.97 441.27 273.83 439.36 275.24 437.12 C 278.10 432.82 278.61 427.54 280.03 422.70 C 281.33 418.38 282.00 413.91 282.42 409.43 C 285.71 412.52 288.93 415.72 292.73 418.20 C 298.77 422.12 304.33 426.70 310.36 430.64 C 316.37 434.65 320.41 440.75 324.56 446.51 C 327.24 450.42 328.98 454.86 331.25 459.01 C 333.31 458.92 335.46 459.23 337.43 458.52 C 343.71 445.61 346.02 430.96 345.16 416.69 C 347.10 416.50 349.78 415.94 350.39 418.47 C 355.58 431.63 359.02 445.37 363.26 458.85 C 363.91 458.89 365.20 458.96 365.85 459.00 C 369.14 453.98 373.66 449.54 375.81 443.91 C 375.09 436.72 371.56 430.14 368.22 423.84 C 366.83 421.01 364.09 417.76 366.45 414.68 C 368.43 416.65 370.43 418.65 371.89 421.06 C 376.85 429.28 380.96 438.34 381.59 448.05 C 381.83 451.88 382.42 455.68 383.39 459.41 C 387.57 458.76 389.44 454.64 391.46 451.43 C 393.63 448.01 392.92 443.82 393.03 440.00 C 392.93 378.51 393.08 317.02 392.95 255.53 C 388.75 254.22 384.63 252.48 381.03 249.92 C 375.59 245.67 373.16 239.02 369.76 233.25 C 366.58 227.34 363.84 220.64 357.92 216.91 M 283.79 281.85 C 279.21 284.00 277.22 289.10 275.81 293.64 C 285.35 293.92 295.26 289.13 299.70 280.45 C 294.40 280.80 288.93 280.22 283.79 281.85 M 92.72 309.52 C 91.54 315.92 93.99 322.20 95.80 328.24 C 97.50 334.08 100.46 339.42 102.52 345.13 C 105.64 352.76 110.37 360.46 109.18 369.03 C 108.87 373.38 103.87 377.05 99.69 375.32 C 94.56 373.61 91.05 369.32 87.21 365.77 C 81.37 360.29 75.84 354.46 69.79 349.23 C 63.88 345.08 57.35 341.77 50.58 339.30 C 46.79 337.76 42.69 338.88 39.01 340.15 C 39.71 342.29 40.28 344.50 41.40 346.46 C 46.50 353.97 53.38 360.05 60.60 365.45 C 67.27 371.79 74.97 377.57 79.18 385.97 C 80.71 388.38 78.35 391.01 76.52 392.47 C 70.58 393.92 64.36 392.36 58.82 390.09 C 51.76 388.06 45.57 383.74 38.31 382.34 C 31.37 380.89 24.12 379.26 17.07 380.91 C 14.49 381.48 13.69 384.42 12.32 386.36 C 16.59 390.93 21.09 395.63 27.03 397.99 C 39.90 403.69 53.65 408.98 63.34 419.67 C 64.89 421.18 65.79 424.25 63.81 425.79 C 61.28 427.56 58.00 427.63 55.02 427.77 C 44.73 427.77 34.44 427.82 24.17 427.33 C 19.35 427.10 14.53 427.98 10.28 430.32 C 10.31 430.92 10.36 432.12 10.38 432.72 C 18.09 438.23 27.72 438.66 36.51 441.30 C 44.08 442.88 51.79 444.16 58.98 447.10 C 64.29 449.68 69.67 452.16 74.63 455.39 C 77.24 456.88 79.68 459.25 82.91 459.00 C 98.96 459.01 115.02 459.00 131.08 459.01 C 134.30 459.20 137.01 457.25 139.59 455.61 C 150.84 448.08 156.65 435.45 163.20 424.11 C 168.80 413.97 171.45 402.61 176.13 392.07 C 179.76 383.84 181.19 374.90 182.12 366.02 C 182.19 363.03 181.67 360.06 181.37 357.10 C 179.59 357.25 177.58 356.81 176.06 357.99 C 170.91 361.18 167.61 366.50 164.67 371.64 C 159.89 380.26 158.65 390.31 153.91 398.93 C 151.89 401.75 148.97 405.40 145.02 404.29 C 140.27 403.37 138.61 398.22 136.72 394.42 C 133.07 387.22 129.99 379.74 127.66 372.01 C 124.48 362.42 121.12 352.87 118.76 343.04 C 114.97 332.61 110.93 321.95 103.67 313.38 C 100.66 310.78 96.63 309.71 92.72 309.52 M 189.97 397.90 C 187.48 408.32 186.97 419.16 187.96 429.81 C 190.12 433.81 193.74 436.87 196.87 440.14 C 203.34 445.97 208.10 453.62 215.50 458.42 C 217.54 459.23 219.82 458.95 221.97 459.05 C 256.76 458.86 291.56 459.20 326.35 458.87 C 323.26 452.82 319.24 447.29 314.96 442.05 C 306.87 432.39 295.43 426.61 285.97 418.54 C 284.23 425.89 283.04 433.63 279.09 440.21 C 276.19 444.37 271.83 448.72 266.28 447.82 C 264.69 440.59 263.94 433.07 260.55 426.37 C 255.81 416.98 249.52 408.48 244.86 399.04 C 239.65 391.41 236.62 382.65 233.44 374.05 C 232.08 378.41 231.36 383.06 229.00 387.04 C 225.25 392.49 221.35 397.98 215.99 401.99 C 211.08 405.78 205.55 410.80 198.82 409.24 C 199.57 402.68 202.58 396.62 203.17 390.03 C 203.65 381.88 203.74 373.48 200.94 365.69 C 194.83 375.44 192.48 386.83 189.97 397.90 M 172.07 418.06 C 167.53 427.29 162.91 436.53 156.95 444.95 C 153.14 450.55 147.48 454.44 142.56 458.99 C 161.38 459.03 180.21 458.95 199.03 459.04 C 201.64 459.05 204.25 458.77 206.80 458.22 C 203.47 453.58 198.40 450.63 194.96 446.09 C 192.30 442.75 188.96 440.06 186.16 436.85 C 180.98 430.96 176.15 424.76 172.07 418.06 M 349.50 430.08 C 349.70 440.15 346.58 450.26 341.51 458.91 C 347.14 459.02 352.78 459.02 358.41 458.98 C 355.85 449.22 351.79 439.91 349.50 430.08 M 371.40 458.72 C 374.25 458.92 377.11 459.01 379.97 459.06 C 379.29 456.48 378.62 453.90 377.90 451.35 C 375.70 453.77 373.52 456.22 371.40 458.72 M 392.18 456.45 C 390.87 456.57 390.65 459.01 392.15 458.98 C 393.50 458.88 393.64 456.42 392.18 456.45 Z"/><path fill="#010101" stroke="#010101" stroke-width=".094" opacity="1" d="M 222.45 128.47 C 222.80 124.07 225.81 120.17 230.01 118.76 C 228.85 123.91 226.61 128.86 226.43 134.21 C 226.37 137.34 226.84 140.45 226.88 143.58 C 221.77 140.52 221.79 133.70 222.45 128.47 Z"/><path fill="#010101" stroke="#010101" stroke-width=".094" opacity="1" d="M 205.10 134.07 C 208.00 133.07 211.81 132.42 214.22 134.82 C 217.88 137.92 221.00 142.57 220.33 147.58 C 216.55 145.43 214.24 141.75 211.52 138.52 C 209.77 136.52 204.80 137.24 205.10 134.07 Z"/><path fill="#010101" stroke="#010101" stroke-width=".094" opacity="1" d="M 280.79 135.69 C 285.51 135.69 290.16 134.60 294.89 134.68 C 300.58 134.90 306.03 136.93 311.74 137.08 C 307.64 140.70 303.37 144.17 298.58 146.82 C 309.46 152.31 317.66 161.79 323.75 172.16 C 327.90 180.21 329.55 189.76 327.51 198.65 C 325.38 205.34 321.34 212.63 313.95 214.35 C 304.48 217.48 293.40 213.96 287.59 205.83 C 293.54 207.10 298.95 210.62 305.17 210.68 C 309.11 210.66 313.51 210.41 316.61 207.66 C 322.72 202.84 324.11 194.20 322.85 186.92 C 321.86 176.32 315.27 167.34 307.95 160.03 C 303.50 154.74 297.11 150.64 289.98 150.73 C 283.83 150.81 276.74 153.08 274.03 159.13 C 271.28 165.43 272.49 172.49 273.00 179.11 C 272.30 179.18 270.90 179.30 270.19 179.37 C 269.52 173.69 267.50 167.95 268.95 162.22 C 269.65 157.52 272.45 153.56 275.66 150.21 C 267.20 150.66 258.71 152.26 250.25 150.99 C 246.41 150.40 242.31 150.94 238.74 149.12 C 235.97 147.64 233.31 145.86 231.07 143.64 C 231.15 141.11 232.03 138.56 233.69 136.64 C 238.41 134.43 243.77 135.62 248.64 136.65 C 253.20 137.73 257.91 137.21 262.55 137.39 C 268.70 137.67 274.66 135.75 280.79 135.69 Z"/><path fill="#010101" stroke="#010101" stroke-width=".094" opacity="1" d="M 203.64 148.37 C 205.98 147.37 209.41 146.38 211.37 148.61 C 213.40 150.47 215.12 153.00 214.67 155.90 C 213.75 165.55 210.62 174.93 205.71 183.29 C 209.45 183.20 213.32 182.67 216.96 183.80 C 219.93 184.95 222.67 186.84 224.64 189.35 C 225.56 191.29 225.86 193.44 226.28 195.52 C 221.54 192.81 217.77 187.84 212.01 187.34 C 208.82 187.20 204.87 186.79 202.61 189.58 C 200.28 192.29 198.32 195.30 196.19 198.17 C 194.09 200.79 194.41 204.31 194.44 207.45 C 194.33 221.48 200.83 235.45 211.80 244.22 C 216.16 247.48 222.18 248.04 227.31 246.52 C 230.87 245.60 234.75 244.19 236.63 240.77 C 238.48 237.05 239.87 233.11 241.48 229.28 C 242.05 229.30 243.18 229.34 243.75 229.36 C 243.47 234.00 243.99 239.12 241.04 243.09 C 237.40 249.91 229.32 252.68 221.98 252.53 C 215.42 253.15 209.58 249.21 204.89 245.09 C 200.72 241.70 198.29 236.88 195.70 232.30 C 190.88 224.01 189.65 214.19 190.12 204.76 C 185.65 209.47 180.72 213.71 175.41 217.45 C 172.12 220.09 168.98 215.15 170.93 212.17 C 171.86 209.61 173.60 207.45 174.92 205.08 C 177.50 200.44 182.39 197.58 184.61 192.70 C 187.35 186.26 191.42 180.53 194.73 174.39 C 196.45 170.06 197.59 165.53 199.07 161.11 C 200.28 156.77 201.16 152.21 203.64 148.37 Z"/><path fill="#010101" stroke="#010101" stroke-width=".094" opacity="1" d="M 283.20 172.37 C 285.76 170.41 289.02 172.35 291.50 173.51 C 297.12 178.19 301.45 185.12 301.01 192.69 C 299.06 193.65 297.00 195.63 294.72 194.36 C 290.27 192.37 287.42 188.09 284.91 184.09 C 282.77 180.69 281.26 176.19 283.20 172.37 Z"/><path fill="#010101" stroke="#010101" stroke-width=".094" opacity="1" d="M 213.50 206.41 C 215.52 205.49 217.51 206.82 219.14 207.91 C 223.98 211.07 226.94 216.50 228.10 222.05 C 228.91 224.95 226.92 227.50 225.75 229.98 C 223.13 229.53 219.90 230.24 217.87 228.14 C 213.88 224.06 211.11 218.66 210.44 212.97 C 210.35 210.51 210.78 207.30 213.50 206.41 Z"/><path fill="#010101" stroke="#010101" stroke-width=".094" opacity="1" d="M 324.57 335.72 C 332.14 338.63 335.95 346.40 338.41 353.61 C 340.91 360.70 342.34 368.19 342.65 375.71 C 339.28 372.91 339.03 368.26 337.60 364.42 C 334.90 356.74 332.74 348.70 328.15 341.86 C 326.81 339.90 325.55 337.89 324.57 335.72 Z"/><path fill="#010101" stroke="#010101" stroke-width=".094" opacity="1" d="M 344.96 346.78 C 348.82 349.82 350.01 354.79 351.59 359.20 C 353.82 366.39 356.22 373.83 355.62 381.45 C 351.93 376.27 350.07 370.06 348.81 363.90 C 347.65 358.16 345.53 352.63 344.96 346.78 Z"/><path fill="#010101" stroke="#010101" stroke-width=".094" opacity="1" d="M 358.82 355.87 C 364.09 361.06 367.29 368.06 368.58 375.30 C 369.02 377.77 368.45 380.25 367.83 382.64 C 364.08 376.77 363.45 369.63 360.73 363.32 C 359.69 360.95 359.11 358.42 358.82 355.87 Z"/></g></svg>