<svg height="256pt" viewBox="0 0 190 256" width="190pt" xmlns="http://www.w3.org/2000/svg"><path d="m13.29 0h163.22c4.62 1.01 8.23 5.26 8.14 10.06.1 26.65.02 53.32.04 79.98-6.13.02-12.26-.05-18.39.04l-1.4.02c-.11-21.08.07-42.16-.08-63.23.21-4.62-4.21-8.31-8.7-7.8-41.06.03-82.13-.06-123.19.05-4.23-.21-7.97 3.61-7.76 7.83-.13 21.05.03 42.1-.07 63.15l-1.41-.02c-6.05-.1-12.1.01-18.16-.06-.04-27.38-.11-54.77.04-82.14.75-3.9 3.99-6.84 7.72-7.88z" fill="#ca9e68"/><g fill="#96412c"><path d="m5.26 19.05c.03-3.72-.23-7.48.31-11.17-.15 27.37-.08 54.76-.04 82.14 6.06.07 12.11-.04 18.16.06-.35 12.76.01 25.53-.2 38.29v.34c-7.83-.32-15.66-.1-23.49-.16v-38.51c1.75 0 3.5 0 5.25-.01.03-23.66 0-47.32.01-70.98z"/><path d="m166.3 90.08c6.13-.09 12.26-.02 18.39-.04h5.31v38.71c-7.82-.33-15.66-.29-23.49-.03 0-.09 0-.26 0-.35-.21-12.77.16-25.53-.21-38.29z"/><path d="m0 208.74c7.76-.23 15.52-.08 23.28-.11h.41c-.26 9.79-.17 19.59-.09 29.38-.05 7.48 3.95 15.29 11.25 17.99h-19.82c-7.41-1.55-13.39-7.5-15.03-14.89z"/><path d="m166.31 208.63h.4c7.77-.01 15.53-.01 23.29 0v32.33c-1.55 7.44-7.55 13.41-14.96 15.04h-19.35c2.88-1.78 5.87-3.7 7.58-6.73 2.9-4.51 3.27-10.04 3.21-15.26-.11-8.46.13-16.92-.17-25.38z"/></g><g fill="#7d5032"><path d="m25.17 26.95c-.21-4.22 3.53-8.04 7.76-7.83 41.06-.11 82.13-.02 123.19-.05 4.49-.51 8.91 3.18 8.7 7.8.15 21.07-.03 42.15.08 63.23-2.83.04-5.66.02-8.49-.05.04-7.02-.04-14.04.06-21.06 5.24-7.95 7.58-17.62 7.2-27.09-.34-6.96-3.76-14.05-9.86-17.7-5.63-3.47-13.31-2.94-18.51 1.12-3.35 2.47-5.5 6.19-6.94 10.03-5.11-2.79-11.21-2.7-16.32.01-2.5-7.2-8.99-13.6-17.01-13.46-7.82-.25-14.47 5.73-16.95 12.84-5.16-3.16-11.59-3.03-16.79-.03-1.84-4.47-4.84-8.67-9.22-10.93-5.75-3.13-13.31-2.27-18.28 1.96-5.05 4.13-7.48 10.77-7.54 17.17-.15 9.14 2.15 18.42 7.25 26.08.1 7.02.01 14.04.05 21.06-2.82.07-5.63.09-8.45.05.1-21.05-.06-42.1.07-63.15z"/><path d="m55.47 68.99c.35-.59.7-1.17 1.05-1.75 1.03 2.36 2.24 4.64 3.41 6.94.35 5.27.05 10.57.15 15.85-1.56.01-3.11.01-4.66 0 .04-7.01-.04-14.03.05-21.04z"/><path d="m133.5 67.32c.33.56.66 1.11.99 1.67.1 7.01.01 14.03.06 21.04-1.56.01-3.12.01-4.67 0 .07-5.15-.18-10.31.14-15.45 1.25-2.38 2.51-4.75 3.48-7.26z"/><path d="m83.16 67.63c.19.35.57 1.06.75 1.41.31 6.99.04 13.99.13 20.99-1.53.01-3.05.01-4.57.01.1-5.3-.14-10.6.12-15.89 1.1-2.22 2.37-4.35 3.57-6.52z"/><path d="m106.05 69.04c.19-.36.58-1.1.78-1.46 1.2 2.34 2.54 4.61 3.72 6.97.29 5.15.05 10.32.14 15.49-1.59 0-3.18 0-4.77-.01.09-6.99-.18-14 .13-20.99z"/></g><g fill="#dd2e44"><path d="m33.79 25.74c4.97-4.23 12.53-5.09 18.28-1.96 4.38 2.26 7.38 6.46 9.22 10.93 3.19 10.82.81 22.89-4.77 32.53-.35.58-.7 1.16-1.05 1.75-7.32.02-14.65.02-21.97 0-5.1-7.66-7.4-16.94-7.25-26.08.06-6.4 2.49-13.04 7.54-17.17z"/><path d="m78.08 34.74c2.48-7.11 9.13-13.09 16.95-12.84 8.02-.14 14.51 6.26 17.01 13.46 2.76 10.82.44 22.69-5.21 32.22-.2.36-.59 1.1-.78 1.46-7.38-.07-14.76-.06-22.14 0-.18-.35-.56-1.06-.75-1.41-5.78-9.71-8.11-21.89-5.08-32.89z"/><path d="m135.3 25.32c5.2-4.06 12.88-4.59 18.51-1.12 6.1 3.65 9.52 10.74 9.86 17.7.38 9.47-1.96 19.14-7.2 27.09-7.33.02-14.65.02-21.98 0-.33-.56-.66-1.11-.99-1.67-5.61-9.46-7.76-21.24-5.14-31.97 1.44-3.84 3.59-7.56 6.94-10.03z"/></g><path d="m61.29 34.71c5.2-3 11.63-3.13 16.79.03-3.03 11-.7 23.18 5.08 32.89-1.2 2.17-2.47 4.3-3.57 6.52-6.55-.01-13.11-.06-19.66.03-1.17-2.3-2.38-4.58-3.41-6.94 5.58-9.64 7.96-21.71 4.77-32.53z" fill="#800318"/><path d="m112.04 35.36c5.11-2.71 11.21-2.8 16.32-.01-2.62 10.73-.47 22.51 5.14 31.97-.97 2.51-2.23 4.88-3.48 7.26-6.49-.09-12.98-.05-19.47-.03-1.18-2.36-2.52-4.63-3.72-6.97 5.65-9.53 7.97-21.4 5.21-32.22z" fill="#800318"/><path d="m33.5 68.99c7.32.02 14.65.02 21.97 0-.09 7.01-.01 14.03-.05 21.04-7.29-.04-14.58-.08-21.87.02-.04-7.02.05-14.04-.05-21.06z" fill="#edd6a6"/><path d="m83.91 69.04c7.38-.06 14.76-.07 22.14 0-.31 6.99-.04 14-.13 20.99-7.29-.05-14.59-.05-21.88 0-.09-7 .18-14-.13-20.99z" fill="#edd6a6"/><path d="m134.49 68.99c7.33.02 14.65.02 21.98 0-.1 7.02-.02 14.04-.06 21.06-7.29-.11-14.58-.06-21.86-.02-.05-7.01.04-14.03-.06-21.04z" fill="#edd6a6"/><path d="m59.93 74.18c6.55-.09 13.11-.04 19.66-.03-.26 5.29-.02 10.59-.12 15.89-6.46-.07-12.93-.06-19.39-.01-.1-5.28.2-10.58-.15-15.85z" fill="#d99e82"/><path d="m110.55 74.55c6.49-.02 12.98-.06 19.47.03-.32 5.14-.07 10.3-.14 15.45-6.4-.05-12.79-.06-19.19.01-.09-5.17.15-10.34-.14-15.49z" fill="#d99e82"/><path d="m23.69 90.08 1.41.02c2.82.04 5.63.02 8.45-.05 7.29-.1 14.58-.06 21.87-.02 1.55.01 3.1.01 4.66 0 6.46-.05 12.93-.06 19.39.01 1.52 0 3.04 0 4.57-.01 7.29-.05 14.59-.05 21.88 0 1.59.01 3.18.01 4.77.01 6.4-.07 12.79-.06 19.19-.01 1.55.01 3.11.01 4.67 0 7.28-.04 14.57-.09 21.86.02 2.83.07 5.66.09 8.49.05l1.4-.02c.37 12.76 0 25.52.21 38.29-7.82.36-15.64.11-23.47.18-39.85-.12-79.7.23-119.55-.18.21-12.76-.15-25.53.2-38.29z" fill="#c95f44"/><path d="m23.69 208.63c47.54.01 95.08.01 142.62 0 .3 8.46.06 16.92.17 25.38.06 5.22-.31 10.75-3.21 15.26-1.71 3.03-4.7 4.95-7.58 6.73h-120.84c-7.3-2.7-11.3-10.51-11.25-17.99-.08-9.79-.17-19.59.09-29.38z" fill="#c95f44"/><path d="m23.49 128.71c0-.08 0-.25 0-.34 39.85.41 79.7.06 119.55.18 7.83-.07 15.65.18 23.47-.18v.35c.14 26.63-.27 53.28.2 79.91h-.4c-47.54.01-95.08.01-142.62 0h-.41c.48-26.63.07-53.28.21-79.92z" fill="#d9984a"/><path d="m0 128.55c7.83.06 15.66-.16 23.49.16-.14 26.64.27 53.29-.21 79.92-7.76.03-15.52-.12-23.28.11z" fill="#aa783c"/><path d="m166.51 128.72c7.83-.26 15.67-.3 23.49.03v79.88c-7.76-.01-15.52-.01-23.29 0-.47-26.63-.06-53.28-.2-79.91z" fill="#aa783c"/></svg>