<svg viewBox="0 0 105.178 92.112" xmlns="http://www.w3.org/2000/svg" xmlns:xlink="http://www.w3.org/1999/xlink"><linearGradient id="a" gradientUnits="userSpaceOnUse" x1="47.182" x2="79.107" y1="17.174" y2="17.174"><stop stop-color="#fff" stop-opacity="0"/><stop offset=".47" stop-color="#ababaa" stop-opacity=".074"/><stop offset=".606" stop-color="#1d1d1b" stop-opacity=".2"/></linearGradient><g transform="translate(-4.114 -3.448)"><path d="m99.968 29a1.807 1.807.0 00-1.491-1.7c-5.194-.864-10.463.026-15.634.785-1.874.422-3.624-.523-5.365-1.046-10.414-3.115-19.641-2.011-24.658-1.62a1.915 1.915.0 00-1.492 1.02c-.66 1.149-6.168.644-6.725 2.039a1.867 1.867.0 01-1.7 1.227c-1.822.019-4.142.068-4.258.027-8.53-2.562-1.627 1.248-7.271-.363a1.818 1.818.0 00-2.316 1.839c.15 2.77 1.38 4.639-1.078 8.69-.054.088.581-.4.513-.318-2.861 3.275-4.182 6.235-6.162 10.986-.6 1.618-1.886 3.148-2.622 4.766a2.035 2.035.0 00-.1 1.178c.249 1.529-4.619 9.436-7.278 13.819a1.794 1.794.0 00-.052 1.792c.667 1.21 1.317.6 1.735 2.5a1.876 1.876.0 00.337.732c2.462 3.23 3.074 2.151 3.587 5.6.664 3.475 3.639 5.864 6.5 7.621 7.089 4.027 15.249 5.6 23.249 6.607.04.0.079.008.119.011 13.553.9 27.663.48 40.31-4.986 4.058-1.844 8.425-4.5 9.754-9.032a1.846 1.846.0 00.072-.448c.087-2.566-.893-5.041-.893-7.6-.289-4.248.921-8.363 1.538-12.525.43-2.874-.109-5.747-.39-8.6-.406-3.779 1.163-7.356 1.491-11.072A89.746 89.746.0 0099.968 29z" fill="#fbc11c"/><path d="m105.353 27.317c1.216.662 5.269.439-1.324 2.554-30.812 9.885-57.816 10.187-80.781-7.937 33.173-14.303 59.134-7.134 82.105 5.383z" fill="#cc983e"/><path d="m106.986 26.008c4.956 3.484.138 3.117-1.761 2.072-31.1-17.106-49.819-17.664-81.073-6.147-1.01.372-3.41-.2-.7-1.948.03-.02.063-.035.1-.053 15.33-8.322 51.943-12.891 79.64 3.644.122.077 3.671 2.346 3.794 2.432z" fill="#b3812b"/><path d="m21.461 22.482c.323-1.825 1.23-1.345 1.475-1.15 23.287 18.468 56.612 18.031 82.887 7.213 5-3.467 3.922 3.907.98 4.988-20.235 5.334-40.72 9.169-61.176 2.6-8-2.161-16.32-7.449-23.534-11.393-.054-.03 1.1.865 1.051.825-1.139-.979-1.92-1.743-1.683-3.083z" fill="#e04412"/><path d="m106.1 37.9c-26.864 7.453-59.425 10.727-82.968-7.483.0-2.366-2.5-5.572-1.546-7.447 28.552 19.228 55.448 17.236 87.4 7.765-.008 2.448-.394 3.555-2.886 7.165z" fill="#f49b18"/><path d="m72.751 39.514c-.772 1.287-1.3 1.958-2.092 3.222 1.486-.034 2.232-.066 3.736-.155-.713-1.217-.929-1.858-1.644-3.067z" fill="#5994b6"/><path d="m80.718 38.758c-.656 1.385-1.2 2.121-1.964 3.481 1.534-.149 2.34-.255 3.83-.464-.752-1.227-1.043-1.838-1.866-3.017z" fill="#5994b6"/><path d="m64.744 39.574c-.776 1.2-1.259 1.83-2.041 3.017 1.482.091 2.221.12 3.7.151-.692-1.251-.942-1.911-1.659-3.168z" fill="#5994b6"/><path d="m68.752 39.634c-.78 1.241-1.286 1.891-2.074 3.114 1.479.026 2.218.025 3.7-.006-.687-1.23-.916-1.879-1.626-3.108z" fill="#5994b6"/><path d="m56.721 38.878c-.785 1.132-1.243 1.731-2.064 2.861 1.521.228 2.273.325 3.77.488-.708-1.316-.998-2.013-1.706-3.349z" fill="#5994b6"/><path d="m60.733 39.325c-.773 1.163-1.239 1.776-2.027 2.932 1.5.158 2.239.221 3.721.316-.701-1.279-.974-1.956-1.694-3.248z" fill="#5994b6"/><path d="m48.709 37.356c-.9 1.086-1.4 1.665-2.42 2.762 1.6.377 2.39.548 3.949.854-.659-1.416-.944-2.166-1.529-3.616z" fill="#5994b6"/><path d="m52.712 38.225c-.824 1.106-1.291 1.693-2.184 2.8 1.555.3 2.323.434 3.846.667-.698-1.358-.995-2.079-1.662-3.467z" fill="#5994b6"/><path d="m41.2 35.138c-1 1.056-1.381 1.716-2.3 2.816 1.221.443 1.861.656 3.219 1.062a39.443 39.443.0 01-.919-3.878z" fill="#5994b6"/><path d="m44.766 36.277c-.974 1.078-1.436 1.7-2.39 2.814 1.37.4 2.091.595 3.624.959-.544-1.471-.8-2.277-1.234-3.773z" fill="#5994b6"/><path d="m34.987 32.627a14.712 14.712.0 00-2.016 2.739c1.006.518 1.525.77 2.618 1.254a33.163 33.163.0 01-.602-3.993z" fill="#5994b6"/><path d="m37.974 33.936a24.88 24.88.0 00-2.181 2.774c1.1.482 1.672.715 2.884 1.161a34.487 34.487.0 01-.703-3.935z" fill="#5994b6"/><path d="m29.3 29.506c-.944.9-.913 1.734-1.405 2.885.9.587 1.356.874 2.292 1.43a43.935 43.935.0 01-.887-4.315z" fill="#5994b6"/><path d="m32.132 31.166c-1 .908-1.1 1.677-1.768 2.758.94.554 1.42.823 2.42 1.345a35.658 35.658.0 01-.652-4.103z" fill="#5994b6"/><path d="m23.3 25.413c-.652 1.059-.262 2.129-.2 3.657.906.648 1.35.966 2.24 1.586-.66-1.927-1.494-3.309-2.04-5.243z" fill="#5994b6"/><path d="m26.393 27.6c-.831.942-.638 1.874-.894 3.168.89.618 1.332.92 2.232 1.51-.422-1.744-1.057-2.973-1.338-4.678z" fill="#5994b6"/><path d="m103.179 33.579a24.569 24.569.0 01-2.7 4.311c1.194-.324 1.784-.487 2.961-.809a4.812 4.812.0 00-.261-3.502z" fill="#5994b6"/><path d="m106.608 32.554a22.607 22.607.0 01-2.947 4.468c1.176-.321 1.76-.48 2.931-.789a5 5 0 00.016-3.679z" fill="#5994b6"/><path d="m96.028 35.588a28.268 28.268.0 01-2.146 4.01c1.271-.306 1.894-.463 3.122-.782a5.484 5.484.0 00-.976-3.228z" fill="#5994b6"/><path d="m99.65 34.6a26.287 26.287.0 01-2.417 4.159c1.226-.32 1.829-.482 3.025-.807A4.921 4.921.0 0099.65 34.6z" fill="#5994b6"/><path d="m88.525 37.379a35.252 35.252.0 01-1.793 3.732c1.4-.252 2.081-.386 3.414-.668a9.5 9.5.0 00-1.621-3.064z" fill="#5994b6"/><path d="m92.317 36.523a31.161 31.161.0 01-1.923 3.868c1.329-.283 1.977-.432 3.252-.736a6.809 6.809.0 00-1.329-3.132z" fill="#5994b6"/><path d="m76.739 39.221c-.74 1.338-1.275 2.033-2.065 3.343 1.506-.093 2.263-.153 3.795-.3-.769-1.209-.988-1.845-1.73-3.043z" fill="#5994b6"/><path d="m84.657 38.133c-.577 1.416-1.058 2.162-1.8 3.6 1.485-.212 2.2-.329 3.61-.578a15.967 15.967.0 00-1.81-3.022z" fill="#5994b6"/><path d="m16.874 38.015c6.238 2.231 10.019 4.9 15.454 8.536a1.5 1.5.0 01.672 1.53c-.4 1.879-4.091-.968-5.991-2.036-1.42-1.363-12.695-6.309-10.135-8.03z" fill="#9da8a5"/><path d="m17.045 43.686c2.861 1.152 5.857 3.142 8.7 4.467 2.8 1.482 5.694 2.472 8.5 3.951a1.149 1.149.0 01-.863 1.844c-3-1-5.747-2.425-8.616-3.477C22 49.314 17.709 46.741 17 46.414c-1.156-.531-1.12-3.198.045-2.728z" fill="#9da8a5"/><path d="m72.948 53.8c.21-.046 2.789-.157 3-.181 5.723-.663 8.249-1.648 13.655-1.834 1.135-.039 1.3 2.175.179 2.431a130.288 130.288.0 01-19.7 2.624c-.84.062-.726-1.649.057-2.056a10.88 10.88.0 012.809-.984z" fill="#9da8a5"/><path d="m66.373 61.217a1.321 1.321.0 01-.862-1.09c0-1.911 2.954-1.579 4.223-1.444 6.059-.11 10.992-.167 16.845.183 1.528.091 1.565.863 1.179 1.77a1.112 1.112.0 01-.947.725c-3.1.128-6.263.0-9.362.068-4.449.022-8.749-.301-11.076-.212z" fill="#9da8a5"/><path d="m43.276 65.206c1.978-1.769 4.525-3.554 6.6-5.205 1.249 1.836 2.366 4.764 3.732 6.524-1.006 2.472-2.338 5.624-5.465 5.733-3.021-.185-3.702-4.94-4.867-7.052z" fill="#e73b67"/><path d="m9.847 70.4c.025-1.183 1.1-2.6 1.827-4 .56-1.085 2.053-1.028 2.564-2.178 1.352-1.789 3.268-4.234 5.163-3.407 1.555 1.143 11.772 6.289 11.521 8.008-.815 1.77-10.756-5.989-11.732-5.479-1.119.0-2.383 2.406-3.79 3.33A6.954 6.954.0 0012.749 69.8c-.536 3.3 4.067 5.24 4.931 8.055-.568 3.53-7.929-5.971-7.833-7.455z" fill="#1d1d1b"/><path d="m77.093 72.525a2.11 2.11.0 00-2.538-.927c-2.6.676-7.36 2.432-8.9 2.459-2 .035-2.156-.31-1.089-1.124 1.141-.871 6.2-2.4 6.276-2.459a46.728 46.728.0 015.037-1.388c1.225-.237 3.175 1.128 3.685 2.266.457 1.019 1.194.7 1.165 2.524-.021 1.306 1.69 1.348 1.82 2.569.106.984.669.492.633 1.159-.067 1.244 1.65 2.459-.422 4.091-1.985 1.563-5.887 4.5-6.832 5.194a.857.857.0 01-1.211-1.206c.5-.567 3.385-2.866 5.131-4.421.974-.867.964-2 .672-3.447-.379-1.9-1.829-1.229-3.427-5.29z" fill="#1d1d1b"/><path d="m89.938 43.965c-.018-.009-.037-.016-.055-.024l-.053-.028A10.459 10.459.0 0075.36 56.692c0 .026.639 1.659.931 2.261l.055.1c.518 1.622 1.413 3.01.471 6.3a19.579 19.579.0 01-2.028 4.52A19.049 19.049.0 0073 72.373a46.556 46.556.0 00-5.046 11.041 1.523 1.523.0 00-.046.229 2.928 2.928.0 004.637 2.233 1.511 1.511.0 00.155-.176 46.6 46.6.0 005.486-10.83 18.917 18.917.0 00.838-2.957 19.55 19.55.0 012.27-4.4c1.981-2.786 3.625-2.951 5.216-3.558l.115-.022c.653-.147 2.326-.667 2.349-.681a10.459 10.459.0 00.968-19.281z" fill="#7c4f3a"/><path d="m74.807 53.651a10.51 10.51.0 00.553 3.041c0 .026.639 1.659.931 2.261l.055.1c.518 1.622 1.413 3.01.471 6.3a19.579 19.579.0 01-2.028 4.52A19.049 19.049.0 0073 72.373a46.556 46.556.0 00-5.046 11.041 1.523 1.523.0 00-.046.229 2.928 2.928.0 004.637 2.233 1.511 1.511.0 00.155-.176 46.6 46.6.0 005.486-10.83 18.917 18.917.0 00.838-2.957 19.55 19.55.0 012.27-4.4c1.981-2.786 3.625-2.951 5.216-3.558l.115-.022c.653-.147 2.326-.667 2.349-.681a10.518 10.518.0 002.722-1.464z" fill="none"/><path d="m89.938 43.965c-.018-.009-.037-.016-.055-.024l-.053-.028a10.376 10.376.0 00-10.345.677l16.374 7.885a10.377 10.377.0 00-5.921-8.51z" fill="none"/><path d="m94.568 58.489-18.98-9.14a10.427 10.427.0 00-.781 4.3l16.885 8.131a10.418 10.418.0 002.876-3.291z" fill="#82aa36"/><path d="m94.9 57.839c.087-.185.167-.372.242-.56l-1.963-.945-.479-.234-3.03-1.459-.488-.235-3.03-1.459-.487-.235-3.03-1.459-.488-.235-3.03-1.459-.487-.235-2.451-1.18c-.1.176-.2.355-.287.539-.109.22-.207.443-.3.667l18.98 9.14c.114-.213.228-.428.328-.651z" fill="#f49b18"/><path d="m79.112 49.558 3.311-3-.281 4.458.488.235 3.31-3-.28 4.458.487.235 3.311-3-.281 4.458.488.235 3.311-3L92.7 56.1l.488.235 2.7-2.451a10.324 10.324.0 00-.029-1.408L79.485 44.59q-.3.2-.589.42l-.271 4.313z" fill="#e84f1b"/><path d="m78.9 45.01a10.438 10.438.0 00-2.722 3.133l2.451 1.18z" fill="#5995b7"/></g><path d="m74.998 46.11 3.03 1.459.281-4.458z" fill="#5995b7"/><path d="m78.516 47.804 3.03 1.459.28-4.458z" fill="#5995b7"/><path d="m82.033 49.498 3.03 1.459.281-4.458z" fill="#5995b7"/><path d="m85.551 51.192 3.03 1.459.28-4.458z" fill="#5995b7"/><path d="m95.146 57.279a10.427 10.427.0 00.742-3.4l-2.7 2.451z" fill="#5995b7" transform="translate(-4.114 -3.448)"/><path d="m12.954 32.125c-.019.0-.038.009-.058.012l-.059.008A10.478 10.478.0 008.394 50.917c.018.02 1.469.992 2.05 1.318l.1.053c1.349 1.031 2.87 1.654 3.984 4.886a19.712 19.712.0 01.939 4.867 19.149 19.149.0 00-.024 3.074 46.93 46.93.0 002.218 11.94 1.556 1.556.0 00.093.214 2.429 2.429.0 002.771 1.094 2.428 2.428.0 002.275-1.927 1.506 1.506.0 00.021-.233 46.97 46.97.0 00-1.739-12.019 19.218 19.218.0 00-1.01-2.9 19.663 19.663.0 01-.676-4.91c.016-3.418 1.256-4.5 2.2-5.908.027-.028.057-.058.08-.083.446-.5 1.508-1.882 1.518-1.907a10.478 10.478.0 00-10.24-16.351z" fill="#7c4f3a" transform="translate(-4.114 -3.448)"/><path d="m13.009 32.116c-.019.0-.038.009-.058.012l-.058.008a10.322 10.322.0 00-8.421 7.772l19.009-3.138a10.321 10.321.0 00-10.472-4.654z" fill="none" transform="translate(-4.114 -3.448)"/><path d="m5.637 47.794a10.47 10.47.0 002.813 3.114c.017.02 1.468.992 2.05 1.317.03.017.067.036.1.054 1.349 1.031 2.87 1.654 3.983 4.886a19.657 19.657.0 01.939 4.867 19.052 19.052.0 00-.023 3.074 46.879 46.879.0 002.217 11.939 1.414 1.414.0 00.094.215 2.428 2.428.0 002.771 1.094 2.429 2.429.0 002.272-1.927 1.653 1.653.0 00.02-.233 46.926 46.926.0 00-1.739-12.019 19 19 0 00-1.01-2.9 19.71 19.71.0 01-.676-4.91c.016-3.418 1.256-4.5 2.2-5.908.028-.028.057-.058.08-.083.447-.5 1.508-1.882 1.518-1.907a10.5 10.5.0 001.663-3.853z" fill="none" transform="translate(-4.114 -3.448)"/><path d="m25.124 42.959L4.907 46.3a10.419 10.419.0 00.73 1.5l19.277-3.183a10.63 10.63.0 00.21-1.658z" fill="#ba964e" transform="translate(-4.114 -3.448)"/><path d="m25.052 41.122-2.221.366.579-1.658-2.194.362 1.084 1.385-3.32.548.579-1.658-2.194.362 1.081 1.384-3.319.548.573-1.661-2.194.362 1.081 1.384-3.317.554.579-1.658-2.194.358 1.081 1.384-3.32.549L8 42.375l-2.2.363 1.081 1.384-2.5.412a10.561 10.561.0 00.526 1.766l20.217-3.338a10.614 10.614.0 00-.072-1.84z" fill="#e84540" transform="translate(-4.114 -3.448)"/><path d="m5.8 42.738 2.2-.363.579-1.658L9.655 42.1l2.194-.362.578-1.658 1.081 1.384L15.7 41.1l.579-1.658 1.081 1.384 2.194-.362.579-1.659 1.081 1.384 2.194-.362.579-1.658.5.639a10.444 10.444.0 00-1.007-2.041L4.472 39.908a10.5 10.5.0 00-.29 2.986l.538-1.54z" fill="#e73487" transform="translate(-4.114 -3.448)"/><path d="m5.8 42.738-1.08-1.384-.538 1.54a10.8 10.8.0 00.118 1.151c.025.165.056.327.088.489l2.5-.412z" fill="#78c092" transform="translate(-4.114 -3.448)"/><path d="m3.881 38.928-.579 1.658 3.32-.548-1.081-1.384-1.082-1.384z" fill="#78c092"/><path d="m7.735 38.291-.579 1.659 3.319-.549-1.081-1.384-1.081-1.384z" fill="#78c092"/><path d="m11.588 37.655-.578 1.658 3.319-.548-1.081-1.384-1.081-1.384z" fill="#78c092"/><path d="m15.442 37.019-.579 1.658 3.32-.548-1.081-1.384-1.081-1.384z" fill="#78c092"/><path d="m23.41 39.83-.579 1.658 2.221-.366c-.021-.164-.045-.328-.074-.492a10.63 10.63.0 00-.49-1.819l-.5-.639z" fill="#78c092" transform="translate(-4.114 -3.448)"/><path d="m35.974 47.762c-.872-4.544 3.2-8.829 7.382-6.924a4.231 4.231.0 012.318 3.211c.639 5.354-5.62 9.811-9.027 5.421a6.293 6.293.0 01-.673-1.708z" fill="#1d1d1b" transform="translate(-4.114 -3.448)"/><path d="m70.177 47.688c1.294 4.4-2.48 10.507-7.378 7.53-6.561-4.994 3.201-15.794 7.378-7.53z" fill="#1d1d1b" transform="translate(-4.114 -3.448)"/><path d="m41.389 56.692c1.142 1.734.969 7.647 3.953 4.488 1.484-.947 3.377-5.4 5.187-3.113C51.9 59.7 53.181 66.082 56 63.5c1.056-.929 2.967-3.068 4.075-3.929s2.9.085 2.037 1.194a26.543 26.543.0 01-5.269 5.339c-5.09 4.608-5.126-6.2-8.218-4.961-1.713.8-4.55 5.908-6.475 3.92-1.747-2.108-1.788-3.317-3.2-6.957-1.108-2.867 1.65-2.891 2.439-1.414z" fill="#1d1d1b" transform="translate(-4.114 -3.448)"/><path d="m96.561 21.875c.069-.015 3.772-1.444 4.29.988.711 3.341.514 6.919-3.665 6.691-7.275-.4-9.887-.82-13.067-1.159-.621-.066-.8-.2-.353-.632 3.144-3.056 9.041-5.063 12.795-5.888z" fill="#f9c01c" transform="translate(-4.114 -3.448)"/><path d="m83.722 28.711a.365.365.0 01-.064-.694c.09-.053 1.568.478 2.275.579a48.966 48.966.0 0012.831.326c1.3-.172 1.249.426.791.643-.559.264-1.339.672-1.739.8-.039.012-2.313.226-2.354.229-3.067.232-5.575-.435-9.606-1.328-.356-.077-1-.239-2.134-.555z" fill="#7c4f3a" transform="translate(-4.114 -3.448)"/><path d="m31.273 17.015c2.961-7.584 10.1-1.264 12.223 2.74 2.224 4.2-.158 5.9-1.633 5.622-3.623-.683-13.224.031-10.59-8.362z" fill="#f9c01c" transform="translate(-4.114 -3.448)"/><path d="m31.7 21.884c4.46 2.582 6.073 2.613 11.25 3.367.843.123.356.478-.259.475-3.175-.017-9.064-.758-11.714-2.5-.558-.364.145-1.674.723-1.342z" fill="#7c4f3a" transform="translate(-4.114 -3.448)"/><path d="m64.132 3.448c9.484 3.846 13.774 11.977 14.975 24.27-17.03 4.655-16.819 4.707-31.925-3.238C49.7 10.877 57.915 4.291 64.132 3.448z" fill="#f49b18" transform="translate(-4.114 -3.448)"/><path d="m78.714 24.562c-5.636 2.069-9.634 2.538-15.94 2.27a37.588 37.588.0 01-15.035-4.9q-.312 1.23-.557 2.546c4.144 2.18 7.023 3.8 9.534 4.848a18.52 18.52.0 006.119 1.53 21.641 21.641.0 005.6-.442c2.728-.518 6.07-1.439 10.675-2.7q-.162-1.623-.396-3.152z" fill="#8aba47" transform="translate(-4.114 -3.448)"/><path d="m49.491 16.737c-.415.963-.8 1.978-1.139 3.051 8.229 5.753 18.186 7.765 29.96 2.486q-.371-1.838-.873-3.516c-11.183 4.987-18.078 3.013-27.948-2.021z" fill="#5994b6" transform="translate(-4.114 -3.448)"/><path d="m64.132 3.448c9.484 3.846 13.774 11.977 14.975 24.27-17.03 4.655-16.819 4.707-31.925-3.238C49.7 10.877 57.915 4.291 64.132 3.448z" fill="url(#a)" transform="translate(-4.114 -3.448)"/></svg>