<svg xmlns="http://www.w3.org/2000/svg" xmlns:xlink="http://www.w3.org/1999/xlink" viewBox="0 0 97.71 69.76"><defs><style>.cls-1{fill:#fac01a}.cls-2{fill:url(#Gradient_32)}.cls-3{fill:url(#Gradient_32-2)}.cls-4{fill:#f99025}.cls-5{fill:#ea6a2d}.cls-6{fill:#302f2d}.cls-7{fill:#302f2e}.cls-8{fill:#36352c}.cls-9{fill:#3d3a28}.cls-10{fill:#3e392b}</style><radialGradient id="Gradient_32" cx="15.51" cy="37.27" r="9.7" gradientUnits="userSpaceOnUse"><stop offset=".23" stop-color="#f99025" stop-opacity=".7"/><stop offset=".34" stop-color="#f99024" stop-opacity=".68"/><stop offset=".45" stop-color="#f89021" stop-opacity=".63"/><stop offset=".58" stop-color="#f8901d" stop-opacity=".54"/><stop offset=".7" stop-color="#f79116" stop-opacity=".42"/><stop offset=".83" stop-color="#f5910e" stop-opacity=".26"/><stop offset=".96" stop-color="#f49203" stop-opacity=".07"/><stop offset="1" stop-color="#f39200" stop-opacity="0"/></radialGradient><radialGradient id="Gradient_32-2" cx="67.48" cy="37.84" r="8.92" xlink:href="#Gradient_32"/></defs><g id="melt" data-name="melt"><path class="cls-1" d="M51.11,95.88c-14-.35-26.85-1-39.18-5.23C1.81,87.18.64,84.7,2.1,74.27c1.33-9.55,6.53-17.67,9.1-26.75,1.3-4.59,2.56-9.18,3.63-13.83.79-3.41,2.07-6.39,5.86-7.39s6.41,2.16,7.75,4.87c4.26,8.57,2.68,6.34,8.9,5,9.29-2,22-2.16,31,1.51,5.44,2.22,9.71,1.61,14.28-1.55A27.83,27.83,0,0,1,89.46,33c4.85-1.46,6.66,1.53,5.66,6.57C94,45.05,93,50.56,92.2,56.11a7.8,7.8,0,0,0,1,4,75.57,75.57,0,0,1,5.66,17.18c1.12,5.42.26,8.26-5.86,11.21-8.7,4.19-15.35,5.29-24.78,6.26C63.08,95.32,55.16,95.67,51.11,95.88Z" transform="translate(-1.58 -26.12)"/><ellipse class="cls-2" cx="15.51" cy="37.27" rx="10.39" ry="8.96"/><ellipse class="cls-3" cx="67.48" cy="37.84" rx="9.81" ry="7.94"/><ellipse class="cls-4" cx="15.51" cy="37.27" rx="4.77" ry="4.11"/><ellipse class="cls-4" cx="67.48" cy="37.84" rx="4.55" ry="3.54"/><path class="cls-5" d="M40.08,59.46a30.06,30.06,0,0,1,3.55-.09c2.47.27,5.23-2.39,5.2,3.49,0,4.12-2,7.63-6.86,8.09-3.72.36-6.9-3.72-6.8-8.31C35.27,57.53,37.73,59.89,40.08,59.46Z" transform="translate(-1.58 -26.12)"/><path class="cls-6" d="M68.44,53.31c0,3.86-2.87,2.22-6.12,1.69-3.43-.58-5.67-.33-9.37-.38-.91,0-1.94-.14-2.11-1.28a2,2,0,0,1,1.79-2.15C56.3,50.52,65.8,51.19,68.44,53.31Z" transform="translate(-1.58 -26.12)"/><path class="cls-7" d="M20.27,55.83c-1.49.14-1.31-2.68.12-3.11a41.26,41.26,0,0,1,11.35-1.33c.87,0,2.6.69,2.64,1.86a1.73,1.73,0,0,1-2.09,1.82C27.75,54.43,24.14,55.45,20.27,55.83Z" transform="translate(-1.58 -26.12)"/><path class="cls-8" d="M13.8,72.4c3.25-1.54,5.08-3.15,8-2.16-4.66,3.5-13.06,8.15-15.93,8.15C6.23,75.26,10.72,74.17,13.8,72.4Z" transform="translate(-1.58 -26.12)"/><path class="cls-9" d="M71.59,85.27c-3.24-2.1-9.07-7.63-10.71-11.11-.35-.74.38-2.3,1-1.76,2.76,2.4,8.47,8.12,10.56,11.11C72.93,84.21,72.3,85.73,71.59,85.27Z" transform="translate(-1.58 -26.12)"/><path class="cls-10" d="M66.24,67.79c-.95-.56-3-.9-2.08-2.54.65-1.12,2.4-.56,3.55,0,2.93,1.47,2.52,1.44,6.64,3.71.73.41,4,2.08,5,2.56,1.44.75,1.4,2.35-2.77.75C76.53,72.29,68.59,69.14,66.24,67.79Z" transform="translate(-1.58 -26.12)"/><path class="cls-8" d="M9.11,62.6c.19-.16,8.05-.75,11.73-1,1.19-.08,2.7,0,2.71,1.35,0,1.1-1.51,1.09-2.53,1.1-3.82,0-11.67.09-11.78.06l-2.1-.32Z" transform="translate(-1.58 -26.12)"/></g></svg>