<svg viewBox="0 0 75.39 70.014" xmlns="http://www.w3.org/2000/svg"><path d="m86.1 14.938v-2.917c0-2.031-.858-2.323-2.6-2.353-1.535-.026-4.137.973-5.828 1.736-6.551 3.578-5.772 3.34-10.892 1.193-2.753-1.155-1.974-1.01-5.292-1.358-1.55-.107-4.174-.563-5.724-.661-7.7-.627-13.442-.426-20.367 3.193-.193.154-2.037 1.156-2.453.315a57.313 57.313.0 00-6.007-5.519c-1.565-1.294-3.345-3.112-5.737-2.088-2.428 1.04-3.79 2.007-3.79 5.585.0 5.854-.211 12.748-.1 18.531-.425.244-1.446 4.163-1.721 3.928-3.01 6.358-4.018 8.395-4.569 15.477a74.773 74.773.0 00-.228 9.844c-.1 3.367 1.276 6.58 3.421 8.147 7.057 5.153 14.1 6.444 23.47 7.763a93.5 93.5.0 0021.612-.35c8.759-1.394 16.981-2.452 23.9-8.225a7.821 7.821.0 002.65-4.079 10.728 10.728.0 00-.358-4.8c-.175-1.236-.83-2.5-.927-3.743-.257-3.283.852-6.047 1.321-9.579.362-3.84-1.384-12.853-1.729-16.085-.352-3.3 1.948-10.633 1.948-13.955z" fill="#fbc11c" transform="translate(-10.713 -6.179)"/><path d="m29.183 33.388c-5.178-4.7 1.331-13.085 6.709-7.892 2.762 3.579-3.015 10.404-6.709 7.892z" fill="#1a2030" transform="translate(-10.713 -6.179)"/><path d="m62.249 26.972c-4.924-3.727-9.05 3.359-7.515 7.65 4.389 5.998 12.826-2.952 7.515-7.65z" fill="#1a2030" transform="translate(-10.713 -6.179)"/><path d="m65.11 30.908-.241.711c-.107-.212-.3-.423-.3-.635s.19-.422.3-.634z" fill="#fdca1a" transform="translate(-10.713 -6.179)"/><path d="m41.342 68.677C48.7 68.2 52.434 64.683 53.757 57.17c.218-1.235.359-2.481.535-3.722a2.664 2.664.0 00-1.6-3.379l-.131-.03q-1.236-.462-2.477-.812a35.819 35.819.0 00-8.746-1.162A35.812 35.812.0 0032.6 49.227q-1.242.353-2.478.812l-.131.03a2.665 2.665.0 00-1.6 3.379c.176 1.241.317 2.487.535 3.722 1.323 7.513 5.06 11.03 12.416 11.507z" fill="#fff" transform="translate(-10.713 -6.179)"/><ellipse cx="42.935" cy="54.622" fill="#fbc11b" rx="3.06" ry="3.952"/><g transform="translate(-10.713 -6.179)"><path d="m31.554 51.665c6.819-2.142 13.227-2.406 19.813.323-4.945 3.543-13.536 3.412-19.813-.323z" fill="#852f1c"/><path d="m60.634 56.345a15.075 15.075.0 00-8.283.4c-.681 1.255-2.445 1.67-2.2 3.572a2.971 2.971.0 00-.222 3.41c-.176 1.225.957 2.014 1.049 3.149l.136.355c.524.666 1.017 1.358 1.58 1.989.432.485.967 1.324 1.617.877.769-.528.472-1.324-.229-1.93a4.133 4.133.0 01-.624-.94 16.072 16.072.0 01-2.179-3.882c-.292-.814.413-2.639.936-3.331 1.624-2.146 3.3-2.367 5.882-2.067.771.031 1.543.037 2.311.1.647.052 1.5.427 1.628-.558.121-.867-.786-1.031-1.402-1.144z" fill="#444443"/><path d="m51.05 38.575c-1.417-.281-2.221 1.711-2.961 2.838-1.814 2.764-2.318 2.114-3.433-.078-2.006-3.942-2.006-3.943-4.584-.222-.164.237-.307.488-.46.733-.139.01-.566.591-.685.663-1.065.582-1.382.324-1.9-.5-.19-.17-.314-1.088-.5-1.258-.135-.451-.244-.912-.411-1.351-.293-.773-.44-1.846-1.678-1.359-1.256.5-.577 1.369-.287 2.137-.092.053.222.5.187.6.353.692.587 1.1.949 1.789 1.806 3.428 3.671 3.405 5.9.092l-.062-.033c1.644-2.044 1.931.563 3.088 1.967 2.242 1.349 2.242 1.349 4.955-1.388a11.45 11.45.0 002.332-3.649c0-.629-.3-.656-.45-.981z" fill="#3d3a32"/><path d="m21.849 44.308c-2.455-.535-3.212-.6-3.551-2.345s.028-2.732 1.855-3.8c1.736-1.019 3.368-.807 6.1-.9 2.32.0 4.762-.365 5.672 2.491.265 1.756.65 3.618-2.014 4.558a38.929 38.929.0 01-8.062-.004z" fill="#fb9e1d"/><path d="m22.578 43.55c-1.913-.416-2.5-.464-2.766-1.826s.022-2.128 1.445-2.963c1.352-.793 2.623-.628 4.748-.7 1.807.0 3.709-.284 4.417 1.94.206 1.368.506 2.818-1.569 3.55a30.282 30.282.0 01-6.275-.001z" fill="#fb831e"/><path d="m26.376 44.177a16.113 16.113.0 01-2.991 2.346c-2.174.895-3.712 2.448-6.126 2.7a.7.7.0 01-.605-1.141c1.522-1.8 3.648-1.648 5.429-2.877a17 17 0 012.6-1.362c.817-.012 1.681-.517 1.693.334z" fill="#52452a"/><path d="m20.358 38.319-1.725.2c-.374-.07-.93-.01-1.086-.232-.445-.635.325-.794.624-.9 2.09-.714 9.4-.55 10.7-.748 1.006.438.545 1.176-.593 1.176-1.53.008-5.211.406-7.92.504z" fill="#634c28"/><path d="m60.39 46.8c-.729-.02-1.465.021-2.184-.069a4.139 4.139.0 01-3.9-3.473c-.3-2.086 1.487-3.254 3.214-3.64s3.048-.99 5.407-.349c2.191.847 4.118.861 4.879 3.248-.375 1.656-.2 3.44-2.422 4.225-.614.178-1.279-.071-1.893.107A8.02 8.02.0 0060.39 46.8z" fill="#fb9e1d"/><path d="m60.555 45.811c-.543-.014-1.092.017-1.628-.051a3.084 3.084.0 01-2.907-2.589c-.222-1.556 1.108-2.427 2.4-2.714a6.965 6.965.0 014.032-.261c1.633.632 3.071.643 3.638 2.422-.28 1.235-.146 2.565-1.806 3.151-.458.132-.954-.054-1.411.079a6.015 6.015.0 00-2.318-.037z" fill="#fb831e"/><path d="m60.434 47.054c1.266-1.749 1.925-.111 2.939.444 2.163 1.888 4.974 2.969 7.2 5.32a.544.544.0 01-.51.9c-2.862-.663-4.681-2.366-7.03-4.181-.982-.937-1.993-1.405-2.599-2.483z" fill="#393829"/><path d="m63.13 40.818c0-.542.438-.958 1.393-.94 3.154 1.109 7.3 1.022 9.523 3.211-1.68.682-3.393.231-5.017-.235a.751.751.0 01-.094-.034c-.818-.366-.135-.238-5.805-2.002z" fill="#34332c"/><path d="m41.619 43.926c2.147-.521 2.97 1.039 4 1.6 1.826 1.837 4.851 3.963 5.748 6.465-6.248-2.327-11.945-2.764-19.813-.323-.1-4.38-.473-4.668-2.265-6.467-.1-.106-2.627-1.509-3.591-3.231a4.713 4.713.0 01-.818-2.338c.119-.872-.591-3.869-.006-4.335.919-.733 3.18 1.079 3.4 1.651 1.4 3.633 1.682 2.436 3.159 3.362l4.133.938c.789-.007 2.501 1.984 6.053 2.678z" fill="#fde5af" opacity=".7"/></g></svg>