<svg id="Hug" data-name="Hug" xmlns="http://www.w3.org/2000/svg" xmlns:xlink="http://www.w3.org/1999/xlink" viewBox="0 0 95.79 88.22"><defs><style>.cls-1{fill:#fbc11b;}.cls-2{fill:#1d1d1b;}.cls-3{fill:url(#Gradient_57);}.cls-4{fill:url(#Gradient_48);}.cls-5{fill:#090601;}.cls-6{fill:#f99025;}.cls-7{fill:#0d0902;}.cls-8{fill:#cb4078;}.cls-9{fill:#cb4079;}.cls-10{fill:#040300;}.cls-11{fill:#f8a221;}</style><radialGradient id="Gradient_57" cx="54.45" cy="66.44" r="6.46" gradientTransform="matrix(1.01, -0.11, 0.04, 0.66, -3.03, 28.52)" gradientUnits="userSpaceOnUse"><stop offset="0" stop-color="#f99025" stop-opacity="0.9"/><stop offset="0.4" stop-color="#f99025" stop-opacity="0.89"/><stop offset="0.55" stop-color="#f99226" stop-opacity="0.87"/><stop offset="0.65" stop-color="#f99427" stop-opacity="0.82"/><stop offset="0.73" stop-color="#f99728" stop-opacity="0.75"/><stop offset="0.81" stop-color="#f99c2a" stop-opacity="0.66"/><stop offset="0.87" stop-color="#f9a12c" stop-opacity="0.55"/><stop offset="0.93" stop-color="#f9a72f" stop-opacity="0.42"/><stop offset="0.98" stop-color="#f9ae31" stop-opacity="0.28"/><stop offset="1" stop-color="#f9b233" stop-opacity="0.2"/></radialGradient><radialGradient id="Gradient_48" cx="18.91" cy="72.09" r="7.26" gradientTransform="translate(0 14.42) scale(1 0.8)" gradientUnits="userSpaceOnUse"><stop offset="0" stop-color="#f99b22" stop-opacity="0.9"/><stop offset="0.4" stop-color="#f99b22" stop-opacity="0.89"/><stop offset="0.55" stop-color="#f99c23" stop-opacity="0.87"/><stop offset="0.65" stop-color="#f99e24" stop-opacity="0.82"/><stop offset="0.73" stop-color="#f9a026" stop-opacity="0.75"/><stop offset="0.81" stop-color="#f9a328" stop-opacity="0.66"/><stop offset="0.87" stop-color="#f9a62a" stop-opacity="0.55"/><stop offset="0.93" stop-color="#f9ab2e" stop-opacity="0.42"/><stop offset="0.98" stop-color="#f9af31" stop-opacity="0.28"/><stop offset="1" stop-color="#f9b233" stop-opacity="0.2"/></radialGradient></defs><path class="cls-1" d="M33.53,95.55c-8.75,0-24.25-1.28-29.79-9.88-1.38-2.14-.58-4.37.12-6.34.53-1.49,1-2.9.64-4.17-1.94-4.7-3.16-12.63-1.15-18.71a5,5,0,0,1,.55-1.11,1.2,1.2,0,0,0,.19-1.29c-.21-.66-.44-1.33-.66-2-1.24-3.7-2.41-7.19-.84-9.37C3.42,41.53,4.83,41,6.91,41a18.29,18.29,0,0,1,3.21.33l.73.14a43.72,43.72,0,0,0,7.57.95,11.63,11.63,0,0,0,2.26-.19l.39-.08a49.1,49.1,0,0,1,9.62-1.26,24.46,24.46,0,0,1,6.62.9l.18,0a4.51,4.51,0,0,0,1.37-.39c.29-.11.57-.22.83-.29,3.69-1.11,7.54-2.19,10.5-2.19a7.83,7.83,0,0,1,2.36.32c2.4.77,2.06,4.06,1.76,7-.13,1.24-.34,3.32,0,3.71,6.18,4.6,10.27,13,11.71,17.17l.15.43c.31.88.46,1.32.11,1.81l-.3.42-.58,0a1.81,1.81,0,0,1-.58-.12,3.68,3.68,0,0,0-.48-.14,32.36,32.36,0,0,0-5.26-.78c-4.58,0-6,1.07-8.21,3.51A6.34,6.34,0,0,0,49.4,78a8.79,8.79,0,0,0,4.29,5.89A40,40,0,0,1,58,86.3,26.27,26.27,0,0,0,61.09,88c.59.23,1.49.58,1.48,1.46s-.78,1.12-1.39,1.34l-.49.18-.41.17a46.06,46.06,0,0,1-8.16,2.61A94.85,94.85,0,0,1,33.53,95.55Z" transform="translate(-0.83 -8.34)"/><path class="cls-2" d="M50.19,39.92a6.81,6.81,0,0,1,2.06.27c2.92.94-.33,9.2,1.44,10.52,6.21,4.62,10.17,13.18,11.38,16.7.37,1.09.5,1.37.32,1.37s-.41-.15-.87-.24a37.83,37.83,0,0,0-5.45-.8c-4.93,0-6.61,1.23-9,3.84-4.32,4.81-.32,11.72,3.18,13.25C55.94,86,59,88.22,60.72,88.91c1.55.6.7.68-.41,1.13a46.65,46.65,0,0,1-8.39,2.72,93,93,0,0,1-18.39,1.79c-12,0-24.37-2.32-28.95-9.43-2.05-3.18,1.93-6.8.88-10.25C3.34,69.73,2.53,62.12,4.3,56.76c.38-1.14,1.23-1.42.74-3C3.3,48.18.32,42,6.91,42a16.72,16.72,0,0,1,3,.32,49,49,0,0,0,8.47,1.1,12.85,12.85,0,0,0,2.47-.21,50.25,50.25,0,0,1,9.81-1.32,23.76,23.76,0,0,1,6.36.86,1.61,1.61,0,0,0,.44.06A9.42,9.42,0,0,0,40,42.06c3.42-1,7.35-2.14,10.22-2.14m0-2h0c-3.09,0-7,1.1-10.79,2.23-.31.09-.61.21-.9.32a5.14,5.14,0,0,1-1,.31,26.06,26.06,0,0,0-6.83-.91,49.68,49.68,0,0,0-9.81,1.28l-.39.08a11.34,11.34,0,0,1-2.08.17A43.37,43.37,0,0,1,11,40.47l-.72-.14A18.58,18.58,0,0,0,6.91,40h0c-2.39,0-4.12.71-5.13,2.12-1.87,2.59-.62,6.32.7,10.26.22.67.45,1.33.65,2a1.57,1.57,0,0,1,.06.23L3,54.82a6.39,6.39,0,0,0-.64,1.31c-2.07,6.29-.85,14.43,1.17,19.4A6.65,6.65,0,0,1,2.91,79c-.74,2.07-1.66,4.66,0,7.21,5.8,9,21.68,10.34,30.63,10.34a95.46,95.46,0,0,0,18.8-1.83,47.24,47.24,0,0,0,8.33-2.66l.4-.17.46-.17c.66-.24,2-.74,2-2.26s-1.48-2.16-2.11-2.41a25.86,25.86,0,0,1-2.91-1.61A41.71,41.71,0,0,0,54.09,83a7.79,7.79,0,0,1-3.71-5.18,5.29,5.29,0,0,1,1.22-4.9c2.08-2.31,3.26-3.18,7.47-3.18a30.85,30.85,0,0,1,5.06.76l.36.11a2.82,2.82,0,0,0,.9.17,2,2,0,0,0,1.69-.87,2.71,2.71,0,0,0,0-2.71L67,66.76C65.5,62.51,61.4,54.1,55.15,49.31a17.52,17.52,0,0,1,.16-3c.32-3.12.72-7-2.45-8a8.57,8.57,0,0,0-2.67-.37Z" transform="translate(-0.83 -8.34)"/><path class="cls-3" d="M62,64.18c.9,2.41-1.28,5.43-4.87,6.76s-9,1-9.91-1.36,3.1-6,6.68-7.33S61.15,61.78,62,64.18Z" transform="translate(-0.83 -8.34)"/><path class="cls-4" d="M26.81,72.09c0,3.62-4.84,6.56-8.74,6.56a6.58,6.58,0,1,1,0-13.12C22,65.53,26.81,68.47,26.81,72.09Z" transform="translate(-0.83 -8.34)"/><path class="cls-5" d="M31.73,68.68c.17,1.09,1.1,2,.36,3.14-1.21,1.49,0,4,1.68,2.1.36-.66,1.08-1.63,2-1.39A16.4,16.4,0,0,0,41,71.71c1-.69,1.46-.34,2.11.71.85,1.53,3.34,0,1.95-1.32-1.46-1.16-1-2.76-1.07-4.34-.69-2.11-2.9.09-2.54,1.58.06,1.49-5.65,2.27-6.78.92a6.09,6.09,0,0,1-.91-1.82C33.11,66.65,31.45,67.62,31.73,68.68Z" transform="translate(-0.83 -8.34)"/><path class="cls-5" d="M29.37,60.33c0-.66-.19-.9-.6-1.06s-.88.21-1.09.51a7.6,7.6,0,0,1-2.62,2.45c-.95.53-3.73.62-4.63,0-.6-.4-1-.68-1.61-1.09a1,1,0,0,0-1.23,0,.87.87,0,0,0,0,1.24A5.46,5.46,0,0,0,19.2,63.8a7.35,7.35,0,0,0,9.64-2.38A3.41,3.41,0,0,0,29.37,60.33Z" transform="translate(-0.83 -8.34)"/><path class="cls-5" d="M52.69,57.46A1.13,1.13,0,0,0,52,56.23c-.63-.25-1,.26-1.24.67a6.33,6.33,0,0,1-2.78,2.48c-1.83.86-3.33.27-4.87-.59a3.25,3.25,0,0,1-.74-.6c-.47-.46-.95-.72-1.47-.13a1.25,1.25,0,0,0,0,1.74,4.09,4.09,0,0,0,1.76,1.28,7.43,7.43,0,0,0,5.18.64,8.55,8.55,0,0,0,4.59-3.21A1.48,1.48,0,0,0,52.69,57.46Z" transform="translate(-0.83 -8.34)"/><path class="cls-6" d="M22.87,72.09c0,1.82-2.42,3.29-4.38,3.29a3.3,3.3,0,1,1,0-6.58C20.45,68.8,22.87,70.27,22.87,72.09Z" transform="translate(-0.83 -8.34)"/><path class="cls-7" d="M9.48,77.18A47.07,47.07,0,0,0,20,75a1.17,1.17,0,0,0-.8-2.16c-4.3.68-8.34,1.11-11.73,3C6.38,77.21,8.66,77.18,9.48,77.18Z" transform="translate(-0.83 -8.34)"/><path class="cls-5" d="M7.82,65.48a1.25,1.25,0,0,0,.84,1.22c2.3,1,4.12,2.06,6.13,3C17.43,71,20,72,20.15,70.5c.32-2.4-4.69-3.07-6-4C12.91,65.9,7.89,62.42,7.82,65.48Z" transform="translate(-0.83 -8.34)"/><path class="cls-6" d="M58.77,65.35c.36,1.3-.79,2.75-2.58,3.25s-4.43.05-4.79-1.25,1.69-2.95,3.48-3.45S58.41,64.05,58.77,65.35Z" transform="translate(-0.83 -8.34)"/><path class="cls-1" d="M67,94.46c-.55,0-3.82-.1-7-.31-6.52-.43-7-.89-7.22-1.66a1.14,1.14,0,0,1,.46-1.28c1.06-.76,2-1.38,2.8-1.88a8.52,8.52,0,0,0,2.24-1.7c-.08-.68-3.43-2.88-5-3.94-3.74-2.47-5.32-5.79-4.32-9.11,1.19-4,5.71-6.87,10.73-6.87a13,13,0,0,1,5.85,1.38c.3-1.4-.29-6.63-8.94-15.14-4.36-4.28-4.49-7.18-4.64-10.54a21.73,21.73,0,0,0-1.06-6.52,1.79,1.79,0,0,1,.17-1.7,2.1,2.1,0,0,1,1.84-.76c2.18,0,6.25,1.68,8,2.79a5.7,5.7,0,0,0,3.35,1c.47,0,.94,0,1.45-.06s1.25-.08,2-.08a18.39,18.39,0,0,1,5.72.93,11.94,11.94,0,0,0,4,.72,37.53,37.53,0,0,0,5.4-.55,40.73,40.73,0,0,1,5.88-.61c2.66,0,4.41.7,5.36,2.12,1.29,2,1,5.05-1,9.74l-.25.61h-.12l-.38.65a13.6,13.6,0,0,1,2.57,6,24.57,24.57,0,0,1,.28,11.69,19.67,19.67,0,0,1-1,2.88c-.69,1.74-1.64,4.13-1,5.08,1.64,2.7,1.81,5.37.48,7.74-3.63,6.48-17.42,9.39-26,9.39Z" transform="translate(-0.83 -8.34)"/><path d="M52.87,35.43c2,0,5.88,1.63,7.44,2.63a6.7,6.7,0,0,0,3.89,1.12c1,0,2.11-.14,3.41-.14a17.27,17.27,0,0,1,5.42.88,12.87,12.87,0,0,0,4.32.77,39.17,39.17,0,0,0,5.54-.57,41.12,41.12,0,0,1,5.74-.59c4.42,0,7.05,1.91,3.41,10.47,0,0-1,1.7-1,1.72a13.24,13.24,0,0,1,2.78,6.2,23.46,23.46,0,0,1,.27,11.23c-.56,2.48-3.18,6.68-1.94,8.71,6.38,10.41-13.47,15.61-24.71,15.61H67c-1.21,0-14.59-.45-13.21-1.44,6-4.33,8.42-3.59,0-9.17-8.68-5.72-2.34-14.14,5.86-14.14a12.27,12.27,0,0,1,5.86,1.51.49.49,0,0,0,.22.06c1.32,0,2.44-6.3-8.47-17-6.48-6.38-3-9.26-5.45-16.67-.28-.83.2-1.14,1.06-1.14m0-2a3.08,3.08,0,0,0-2.66,1.17,2.82,2.82,0,0,0-.3,2.61,20.78,20.78,0,0,1,1,6.24c.15,3.42.3,6.66,4.93,11.21C62.28,61,64.12,65.4,64.49,67.57a14,14,0,0,0-4.84-.86c-5.45,0-10.37,3.19-11.69,7.58-1.13,3.78.59,7.51,4.73,10.23a46.56,46.56,0,0,1,4.22,3c-.39.29-.94.64-1.42.95-.79.5-1.76,1.13-2.84,1.91a2.1,2.1,0,0,0-.83,2.39c.48,1.55,1.85,1.94,8.1,2.35,3.23.22,6.53.32,7.08.32h.43c8.88,0,23.1-3.08,26.93-9.91,1-1.89,1.82-4.93-.51-8.75-.3-.61.67-3,1.13-4.19a20.36,20.36,0,0,0,1-3,25.6,25.6,0,0,0-.28-12.15,14.37,14.37,0,0,0-2.27-5.7l.4-1c2.14-5,2.44-8.42.94-10.68-1.7-2.57-5.08-2.57-6.19-2.57a41.38,41.38,0,0,0-6,.62,38.39,38.39,0,0,1-5.25.54A11.24,11.24,0,0,1,73.64,38a19.2,19.2,0,0,0-6-1c-.74,0-1.42,0-2,.08s-1,.06-1.39.06a4.74,4.74,0,0,1-2.81-.8c-1.6-1-6-3-8.52-3Z" transform="translate(-0.83 -8.34)"/><path d="M68.9,66.09C67.19,65,66.71,68.2,64.73,69c.33-.13.84.44,1.16.61C66.75,70,70.28,67.74,68.9,66.09Z" transform="translate(-0.83 -8.34)"/><path class="cls-7" d="M61.84,59.52A44.62,44.62,0,0,0,53,64.08a1,1,0,0,0,1.23,1.65c3.66-1.68,7.13-3.09,9.68-5.55C64.59,58.71,62.57,59.31,61.84,59.52Z" transform="translate(-0.83 -8.34)"/><path class="cls-8" d="M6.31,24a7.87,7.87,0,0,0-.42,3.67c.46,4.79,6.46,7.12,10.7,8.74.88.29,2.54,1.78,3.12.84,2.53-4.13,7.56-7.43,7.54-12.88a5.72,5.72,0,0,0-10.77-2.7C14.33,25.12,9.73,16.74,6.31,24Z" transform="translate(-0.83 -8.34)"/><path class="cls-9" d="M59,31.52c2.8-3.12,11.84-9.1,7.38-17.8-3-5.81-8.41-8-17.24-1-1.09.66-2.16-.84-3-1.44-4.54-3.63-11.59-4.06-14.5,1.5C26.37,22.34,36.49,29.43,43,35,51.58,42.46,48.67,39.71,59,31.52Z" transform="translate(-0.83 -8.34)"/><path class="cls-8" d="M91.6,25.72C88.51,16.8,81.66,24.34,80,21.08c-2.3-4.45-8.89-2.77-10,1.89-1.51,6.08,4.4,9.76,7.14,14.34.73,1.24,5.05-1.47,7.12-2.32C87.83,33.69,92.69,31.17,91.6,25.72Z" transform="translate(-0.83 -8.34)"/><path class="cls-5" d="M80.78,59.4a4.58,4.58,0,0,0-1.14-2.9c-3-3.41-9.56,2.1-6.14,7.19C76,67.4,81.37,63.27,80.78,59.4Z" transform="translate(-0.83 -8.34)"/><path class="cls-10" d="M91.76,64.2A1.2,1.2,0,0,0,89.91,63c-1.81.93-3.68,1.77-5.45,2.77-1.45.81-3,1.35-4.49,2.12a.88.88,0,0,0-.42,1.22.77.77,0,0,0,1.12.44c1.31-.53,4.65-1.94,4.94-2.09a42.41,42.41,0,0,1,4.78-2C91,65.19,91.73,64.86,91.76,64.2Z" transform="translate(-0.83 -8.34)"/><circle class="cls-11" cx="14.89" cy="63.75" r="0.12"/><path class="cls-10" d="M92.06,75.64a1.19,1.19,0,0,0-.76-2c-2-.36-4-.83-6-1.11-1.65-.23-3.22-.76-4.85-1a.89.89,0,0,0-1.08.72.77.77,0,0,0,.62,1c1.37.37,4.63,1.44,5,1.48a36.61,36.61,0,0,1,5.29,1.13C90.86,76,91.63,76.15,92.06,75.64Z" transform="translate(-0.83 -8.34)"/><path class="cls-1" d="M52.84,93.2a1.13,1.13,0,0,1-.55-1,1.15,1.15,0,0,1,.51-1c1.79-1.29,4-2.89,4.12-3.5L57,86.25l1.76.89c.74.37,1.43.72,1.91.91s1.49.58,1.47,1.46-.77,1.12-1.38,1.34l-.49.18-.35.15a50.17,50.17,0,0,1-6.26,2.16l-.43.11Z" transform="translate(-0.83 -8.34)"/><path d="M57.92,87.84c.89.45,1.76.9,2.37,1.14,1.55.6.7.68-.41,1.13a52.83,52.83,0,0,1-6.48,2.26c-.14-.09-.15-.18,0-.28,2.68-1.93,4.49-3.25,4.53-4.25m-1.86-3.17-.13,2.84a26.65,26.65,0,0,1-3.71,2.95A2.14,2.14,0,0,0,52.29,94l.75.49.87-.23a49.06,49.06,0,0,0,6.36-2.19l.36-.15c.16-.07.32-.12.46-.17.66-.24,2-.74,2-2.26s-1.47-2.16-2.1-2.41c-.44-.18-1.15-.53-1.84-.88l-.37-.19-2.76-1.38Z" transform="translate(-0.83 -8.34)"/><path class="cls-1" d="M55.36,91.76a.75.75,0,0,1-.2.1c-5.62,1.6-3.58,1.24-5.41-.55a3.79,3.79,0,0,1-.41-3.54c.56-1.4,1.72-3.51,2.52-3.15,2,.9,5.07,2.62,6.24,3.27S55.76,91.45,55.36,91.76Z" transform="translate(-0.83 -8.34)"/></svg>