<svg id="cactus" data-name="cactus" xmlns="http://www.w3.org/2000/svg" viewBox="0 0 129.88 116.289">
  <defs>
    <style>
      .cls-1 {
        fill: #fbc11c;
      }

      .cls-2 {
        fill: #1d1d1b;
      }

      .cls-3 {
        fill: #9fa9a6;
      }

      .cls-4 {
        fill: #933434;
      }

      .cls-5 {
        fill: #ff8383;
      }

      .cls-6 {
        fill: #4ab02e;
      }
    </style>
  </defs>
  <path class="cls-1" d="M133.327,13.666c-8.237-1.911-16.633-.469-24.858.744-2.734.618-5.286-.767-7.826-1.533C83.451,7.71,68.476,10.462,62.107,10.656a47.706,47.706,0,0,0-20-9.5C37.071,9.9,37.071,9.9,35.079,19.263c-2.106,9.389-1.612,10.462-5.647,14.664a34.046,34.046,0,0,0-4.756,6.054,81.622,81.622,0,0,0-8.5,21.936c-1.181,5.433-2.7,10.144-2.119,13.5.137,5.265-1.042,11.251-.267,16.482.968,5.093,5.309,8.595,9.478,11.171,10.367,5.917,22.306,8.218,34.006,9.694,19.8,1.328,40.42.721,58.9-7.3,6.015-2.747,12.5-6.719,14.32-13.563.228-3.88-1.287-7.612-1.287-11.48-.421-6.227,1.344-12.258,2.244-18.359.627-4.212-.159-8.424-.569-12.613-.593-5.54,1.7-10.782,2.176-16.23A127.337,127.337,0,0,0,133.327,13.666Z" transform="translate(-3.707 -1.16)"/>
  <g>
    <path class="cls-2" d="M48.287,35c3.977,4.679,2.671,3.132,6.055,7.323.9,1.115,1.709,3.035.747,4.1-.863.955-1.707,1.315-4.012,1.622-3.036.6-7.195-.572-8.5-3.626-1.405-2.914-.216-6.806,1.519-9.336C46.069,32.207,47.062,33.559,48.287,35Z" transform="translate(-3.707 -1.16)"/>
    <path class="cls-2" d="M75.579,48.643c3.837-2.417,6.956-3.871,10.425-5.952,3.247-1.948,2.673,3.535,2.647,4.3-.151,4.508-1.864,9.7-7.18,9.528C77.273,57.025,72.045,51.662,75.579,48.643Z" transform="translate(-3.707 -1.16)"/>
  </g>
  <g>
    <path class="cls-3" d="M5.579,26.929a.613.613,0,0,1,.641-.094A123.993,123.993,0,0,1,26.332,37.7c4.183,2.51,4.4,2.269,9.507,6.3.048.037.056,2.315-1.448,1.776a47.617,47.617,0,0,1-9.634-4.346c-6.325-3.71-12.711-7.349-18.974-11.179a2.028,2.028,0,0,1-.254-3.274Z" transform="translate(-3.707 -1.16)"/>
    <path class="cls-3" d="M5.415,36.974c5.4,2,11.087,4.728,16.446,7.021,5.286,2.566,10.182,4.815,15.483,7.375,1.2,1.778.139,2.2-1.127,2.2-5.29-2.151-10.222-4.537-15.638-6.36-5.222-2-13.95-5.479-15.293-6.046C3.108,40.241,3.215,36.162,5.415,36.974Z" transform="translate(-3.707 -1.16)"/>
    <path class="cls-3" d="M95.7,54.205c9.526-.919,18.944-2.819,28.521-3.068a1.607,1.607,0,0,1,.311,3.189,296.668,296.668,0,0,1-34.246,3.441,1.284,1.284,0,0,1-.524-2.481A28.171,28.171,0,0,1,95.7,54.205Z" transform="translate(-3.707 -1.16)"/>
    <path class="cls-3" d="M85.583,64.459c-.06,0-1.546-.5-1.514-1.535.067-2.166,3.905-2,6.135-1.814,10.3.135,20.592-.453,30.874.04,2.684.128,2.749,1.214,2.071,2.49a1.955,1.955,0,0,1-1.664,1.021c-5.452.18-11-.007-16.446.095C97.219,64.787,89.675,64.333,85.583,64.459Z" transform="translate(-3.707 -1.16)"/>
  </g>
  <g>
    <path class="cls-4" d="M48.841,62.372c2.791-1.59,5.927-3.939,8.729-5.506,1.773,3.2,3.606,7.032,5.219,10.327,4.667-1.213,9.356-5.009,13.968-6.473-.218,3.009-.73,7.6-2.068,10.5-15.641.454-20.836.167-35.575,2.488C40.1,68.86,43.3,61.5,45.031,56.866,46.576,57.964,47.285,61.274,48.841,62.372Z" transform="translate(-3.707 -1.16)"/>
    <path class="cls-5" d="M39.413,71.608c11.271-2.873,24.741-1.826,36.237-1.479a5.273,5.273,0,0,1,.379,1.315c-.833,4.889-.825,5.424-1.617,10.312-.215,3.562-4.74,4.869-8.187-.589-1.35-2.138-3.529.519-6.755.08-4.042-.549-4.523-4.4-9.391-5.442-6.786-1.446-3.565,3.933-10.847.309C37.571,75.287,37.868,74,38,73.772A19.886,19.886,0,0,1,39.413,71.608Z" transform="translate(-3.707 -1.16)"/>
  </g>
  <path class="cls-2" d="M44.5,50.729c.58.1,1.548.573,1.643.876.684,2.164,1.339,4.334,2.027,6.493a1.223,1.223,0,0,0,1.762.693c2.558-1.435,5.1-2.9,7.717-4.236a1.229,1.229,0,0,1,1.66.561c1.358,2.809,2.678,5.641,4.035,8.45a1.22,1.22,0,0,0,1.739.507c2.961-1.851,5.65-4.123,8.982-4.877a14.036,14.036,0,0,1,3.992-.014c.773.07,1.843.831,1.612,1.573C78.188,65.5,77.6,66.413,76.945,71.33c-.527,3.98-1.615,7.018-2.533,10.919-.927,4.337-4.109,4.681-6.77,1.957A20.273,20.273,0,0,0,65.3,82.1c-2.409-1.608-2.772-.065-6.1.311-.247.027-2.1-1.169-2.341-1.233-5.116-1.356-2.354-5.021-5.67-4.191-.49.123-1.99.007-2.28-.406-1.678-2.389-6.245,4.354-7.907,1.957a1.222,1.222,0,0,0-1.365-.472c-1.7.526-4.88-1.056-4.69-2.017,1.133-5.73,2.718-6.491,4.455-11.093a91.86,91.86,0,0,0,3.739-10.9,10.041,10.041,0,0,0-.01-2.129A1.521,1.521,0,0,1,44.5,50.729Zm3.687,11.658c-.906-.642-2-4.307-2.9-4.949-.658-.468-1.391,2.853-1.666,3.613-1.452,4.014-2.366,7.379-4.064,11.683-.055.139-1.257,1.957-.692,2.11,1.2.324,1.25-.185,2.69-.082.315.022,1.471,1.32,1.634,1.59,1.259,2.1,5.081-3.894,6.862-2.2a1.227,1.227,0,0,0,.947.326c3.341-.31,3.1,4.856,6.375,4.225a2.941,2.941,0,0,1,2.079.8c2.358,2.073,3.46-1.081,6.1.061a25.23,25.23,0,0,1,3.76,2.712c2.24,1.593,2.3,2.432,3.176-.547.8-4.928,1.038-6.093,1.869-11.022,0-.027.008-.054.01-.081.21-2.2,1.489-6.017,1.662-8.224.077-.987-2.313-.508-3.164,0-3.137,1.874-5.99,4.681-9.621,5.186-1.083.15-1.172-.11-1.433-.639-1.288-2.614-2.609-5.21-4-7.766a1.228,1.228,0,0,0-1.678-.482q-3.324,1.863-6.64,3.746A1.227,1.227,0,0,1,48.182,62.387Z" transform="translate(-3.707 -1.16)"/>
  <g>
    <g>
      <path class="cls-6" d="M48.91,108.046c-8.793,14.544-19.228,10.5-30.321-.493-2.647-2.622.739-6.985,3.181-7.908,8.264-3.126,15.064,8.237,17.854,4.21,2.052-2.96-7.8-7.043-10.846-9.285C22.377,90.611,18.2,89.1,12.344,83.806c-5.443-4.92.4-17.01,8.72-14.383,6.111,1.93,20.927,14.508,25.016,11.369,4.039-4.861-16.72-9.844-17.877-18.268-.257-1.868,3.184-4.924,4.683-4.931,5.917-.027,14.469,5.429,20.379,10.6,7.277,4.7,2.055,13.147.821,19.886.5,7.167,1.149,4.381,7.575,9.317,4.422,3.98-4.7,16.566-9.544,12.337" transform="translate(-3.707 -1.16)"/>
      <circle class="cls-2" cx="16.751" cy="68.109" r="1.376"/>
      <circle class="cls-2" cx="23.92" cy="75.62" r="1.376"/>
      <circle class="cls-2" cx="39.04" cy="86.878" r="1.376"/>
      <circle class="cls-2" cx="27.7" cy="91.972" r="1.376"/>
      <circle class="cls-2" cx="11.512" cy="84.76" r="1.376"/>
      <circle class="cls-2" cx="33.37" cy="67.342" r="1.376"/>
      <circle class="cls-2" cx="44.052" cy="65.965" r="1.376"/>
      <circle class="cls-2" cx="41.792" cy="102.408" r="1.376"/>
      <circle class="cls-2" cx="29.076" cy="102.901" r="1.376"/>
      <circle class="cls-2" cx="20.14" cy="110.111" r="1.376"/>
      <circle class="cls-2" cx="35.506" cy="114.898" r="1.376"/>
    </g>
    <circle class="cls-2" cx="34.13" cy="57.81" r="1.376"/>
  </g>
  <path class="cls-2" d="M59.006,99.485c-2.488-6.849-3.715-7.5.211-13.908,1.482-1.986,22.385-5.691,17.541.265C70.992,87.02,65.532,83.61,61.229,87.8c-1.792,1.886-1.488,2.067-1.632,4.725-.419,1.688,1.268.747.877,2.6.686,5.623,13.774,7.715,17.8,10.033C81.411,111.429,60.709,101.481,59.006,99.485Z" transform="translate(-3.707 -1.16)"/>
</svg>
