<?xml version="1.0" encoding="UTF-8" ?>
<!DOCTYPE svg PUBLIC "-//W3C//DTD SVG 1.1//EN" "http://www.w3.org/Graphics/SVG/1.1/DTD/svg11.dtd">
<svg width="1000pt" height="1000pt" viewBox="0 0 1000 1000" version="1.1" xmlns="http://www.w3.org/2000/svg">
<g id="#dd2e44ff">
<path fill="#dd2e44" opacity="1.00" d=" M 111.28 93.29 C 122.77 87.19 136.16 84.91 149.05 86.28 C 165.73 87.72 181.32 96.20 192.66 108.36 C 203.91 120.11 216.01 130.98 227.07 142.90 C 242.27 157.75 257.02 173.09 272.33 187.82 C 287.36 203.42 302.99 218.45 318.13 233.96 C 324.07 239.31 329.69 245.02 335.09 250.92 C 347.84 263.49 360.50 276.15 373.08 288.90 C 379.01 294.28 384.68 299.96 390.06 305.89 C 397.79 313.53 405.51 321.17 413.18 328.88 C 423.37 339.50 434.31 349.38 444.40 360.08 C 444.82 349.78 451.27 340.04 460.71 335.84 C 468.27 332.18 476.84 333.62 484.92 333.33 C 510.00 333.60 535.08 332.75 560.16 333.28 C 549.12 333.43 538.08 333.26 527.04 333.37 C 517.14 333.50 507.66 339.50 503.15 348.28 C 497.90 358.05 499.38 370.91 506.75 379.22 C 511.20 384.57 517.76 387.66 524.51 388.91 C 507.48 389.17 490.44 388.83 473.42 389.08 C 481.51 397.83 490.65 405.54 498.59 414.44 C 507.05 422.85 515.54 431.22 523.93 439.69 C 532.43 431.25 540.90 422.79 549.41 414.38 C 557.27 405.45 566.45 397.83 574.52 389.10 C 586.28 377.24 598.33 365.65 609.89 353.60 C 613.26 350.06 616.66 346.54 620.39 343.37 C 636.40 327.04 652.84 311.12 668.71 294.65 C 680.91 283.23 692.35 271.00 704.34 259.34 C 712.91 251.27 720.46 242.17 729.34 234.42 C 741.76 221.85 754.24 209.34 766.83 196.94 C 776.14 186.55 786.75 177.46 796.33 167.32 C 806.53 156.85 817.27 146.90 827.20 136.17 C 836.96 126.59 846.77 117.09 856.32 107.31 C 868.21 94.89 884.77 86.67 902.06 86.06 C 914.23 85.23 926.71 87.89 937.47 93.71 C 960.68 105.62 975.95 131.79 973.95 157.92 C 973.35 173.79 966.44 189.12 955.67 200.68 C 947.40 209.45 938.36 217.47 930.31 226.44 C 923.74 233.20 916.66 239.42 910.16 246.26 C 898.36 258.42 885.94 269.98 874.37 282.36 C 867.07 289.73 859.38 296.69 852.22 304.22 C 841.89 314.87 830.96 324.94 820.91 335.83 C 812.55 344.17 803.91 352.19 795.73 360.72 C 785.61 371.00 775.13 380.95 765.21 391.41 C 756.92 399.72 748.35 407.73 740.21 416.20 C 731.10 425.67 721.25 434.43 712.52 444.27 C 704.95 451.80 697.04 458.98 689.66 466.71 C 678.66 478.02 667.09 488.77 656.34 500.31 C 650.65 506.24 644.41 511.59 638.78 517.58 C 632.61 523.72 626.48 529.92 620.31 536.07 C 626.50 542.19 632.61 548.39 638.78 554.54 C 645.89 561.98 653.75 568.67 660.61 576.36 C 662.84 578.79 665.28 581.02 667.60 583.38 C 678.64 594.33 689.62 605.36 700.57 616.41 C 709.01 623.96 716.42 632.54 724.58 640.36 C 737.06 652.59 749.14 665.23 761.77 677.29 C 767.77 682.85 772.75 689.53 779.28 694.50 C 780.17 695.80 781.30 696.96 782.52 698.01 C 791.26 707.08 800.28 715.88 809.12 724.87 C 817.74 732.57 825.30 741.34 833.65 749.33 C 840.82 756.51 848.05 763.63 855.16 770.86 C 863.53 779.49 872.58 787.44 880.63 796.38 C 891.54 807.01 902.06 818.06 913.13 828.51 C 919.58 835.83 927.36 841.86 933.70 849.30 C 939.64 855.38 945.76 861.29 951.75 867.33 C 952.52 868.51 953.99 867.59 954.98 867.31 C 954.51 867.68 953.57 868.43 953.10 868.81 C 967.34 882.37 975.45 902.30 973.97 921.97 C 973.17 940.36 964.03 958.02 950.05 969.89 C 934.35 983.47 912.25 989.21 891.94 984.77 C 881.56 982.71 871.85 977.88 863.56 971.38 C 856.09 965.23 849.68 957.93 842.77 951.20 C 838.65 946.76 833.92 942.97 829.79 938.54 C 816.95 925.15 803.52 912.31 790.56 899.02 C 782.86 890.84 774.19 883.63 766.82 875.14 C 751.78 860.53 737.32 845.33 722.16 830.86 C 718.64 827.56 715.48 823.91 712.09 820.48 C 698.85 807.62 686.00 794.35 672.85 781.41 C 659.56 768.39 646.72 754.92 633.39 741.93 C 623.75 731.78 613.18 722.57 603.77 712.20 C 597.74 706.32 591.88 700.26 585.77 694.47 C 575.73 683.76 565.10 673.64 554.64 663.36 C 544.76 652.76 534.20 642.79 523.98 632.52 C 513.77 642.78 503.22 652.73 493.37 663.32 C 482.89 673.61 472.24 683.74 462.21 694.46 C 454.14 702.29 446.08 710.15 438.41 718.38 C 426.81 729.61 415.42 741.05 404.02 752.50 C 398.11 758.44 391.95 764.13 386.34 770.36 C 379.30 777.69 371.65 784.40 364.69 791.80 C 351.46 805.17 337.99 818.28 324.95 831.82 C 313.15 842.70 302.24 854.50 290.73 865.68 C 283.19 872.81 276.29 880.56 268.87 887.82 C 261.70 894.25 255.15 901.34 248.35 908.16 C 238.89 917.78 229.07 927.06 219.85 936.92 C 216.16 940.70 212.34 944.34 208.48 947.94 C 197.37 958.29 187.96 970.89 174.44 978.30 C 152.98 990.72 124.60 989.68 104.03 975.87 C 88.08 965.51 76.74 948.26 73.81 929.45 C 71.94 915.77 73.54 901.39 79.89 889.00 C 86.88 873.73 100.94 863.81 111.81 851.56 C 117.79 846.00 123.15 839.78 129.31 834.38 C 142.12 821.48 154.97 808.60 167.91 795.84 C 175.58 787.20 184.35 779.65 192.34 771.33 C 205.44 758.08 218.81 745.09 231.73 731.66 C 241.65 722.28 251.13 712.44 260.81 702.80 C 263.48 700.04 266.51 697.60 268.69 694.40 C 273.88 690.78 277.79 685.64 282.25 681.19 C 302.11 661.74 321.78 642.08 341.23 622.21 C 354.55 609.56 367.21 596.23 380.34 583.37 C 387.82 576.17 394.54 568.20 402.39 561.37 C 410.74 552.90 419.17 544.52 427.52 536.05 C 417.33 526.05 407.58 515.57 397.10 505.87 C 390.59 499.54 384.62 492.71 378.02 486.48 C 369.60 478.09 361.18 469.70 352.83 461.23 C 349.96 458.39 347.28 455.33 344.08 452.85 C 339.78 448.47 335.27 444.31 331.27 439.66 C 318.70 427.25 306.19 414.77 293.80 402.18 C 287.84 396.83 282.17 391.14 276.82 385.19 C 261.13 369.92 245.99 354.09 230.19 338.96 C 215.34 323.45 199.81 308.59 184.83 293.21 C 178.87 287.86 173.19 282.17 167.84 276.21 C 154.89 263.49 142.08 250.63 129.33 237.72 C 125.00 234.06 121.19 229.85 117.11 225.91 C 108.49 216.20 98.51 207.78 89.91 198.04 C 75.82 181.70 70.37 158.47 75.79 137.58 C 80.51 118.64 93.84 102.05 111.28 93.29 Z" />
</g>
<g id="#55aceeff">
<path fill="#55acee" opacity="1.00" d=" M 560.16 333.28 C 568.25 333.43 576.35 333.24 584.44 333.38 C 596.07 333.66 607.23 342.19 609.89 353.60 C 598.33 365.65 586.28 377.24 574.52 389.10 C 557.85 388.84 541.18 389.04 524.51 388.91 C 517.76 387.66 511.20 384.57 506.75 379.22 C 499.38 370.91 497.90 358.05 503.15 348.28 C 507.66 339.50 517.14 333.50 527.04 333.37 C 538.08 333.26 549.12 333.43 560.16 333.28 Z" />
<path fill="#55acee" opacity="1.00" d=" M 689.66 466.71 C 697.04 458.98 704.95 451.80 712.52 444.27 C 725.29 444.73 738.08 444.27 750.85 444.50 C 756.20 445.26 760.37 449.24 764.08 452.89 C 774.46 463.97 782.10 477.23 789.63 490.32 C 806.10 520.29 820.42 551.46 833.11 583.20 C 777.95 583.54 722.77 583.19 667.60 583.38 C 665.28 581.02 662.84 578.79 660.61 576.36 C 653.75 568.67 645.89 561.98 638.78 554.54 C 638.96 542.22 638.95 529.89 638.78 517.58 C 644.41 511.59 650.65 506.24 656.34 500.31 C 667.09 488.77 678.66 478.02 689.66 466.71 Z" />
<path fill="#55acee" opacity="1.00" d=" M 308.17 579.08 C 328.94 546.45 351.41 514.64 378.02 486.48 C 384.62 492.71 390.59 499.54 397.10 505.87 C 407.58 515.57 417.33 526.05 427.52 536.05 C 419.17 544.52 410.74 552.90 402.39 561.37 C 394.54 568.20 387.82 576.17 380.34 583.37 C 355.52 583.17 330.68 583.58 305.87 583.17 C 306.55 581.76 307.30 580.38 308.17 579.08 Z" />
</g>
<g id="#e1e8edff">
<path fill="#e1e8ed" opacity="1.00" d=" M 473.42 389.08 C 490.44 388.83 507.48 389.17 524.51 388.91 C 541.18 389.04 557.85 388.84 574.52 389.10 C 566.45 397.83 557.27 405.45 549.41 414.38 C 540.90 422.79 532.43 431.25 523.93 439.69 C 515.54 431.22 507.05 422.85 498.59 414.44 C 490.65 405.54 481.51 397.83 473.42 389.08 Z" />
<path fill="#e1e8ed" opacity="1.00" d=" M 740.21 416.20 C 748.35 407.73 756.92 399.72 765.21 391.41 C 774.22 394.27 782.29 399.53 789.49 405.58 C 801.41 415.72 810.99 428.26 819.64 441.22 C 837.78 469.17 851.36 499.80 863.22 530.87 C 873.07 557.18 881.73 583.95 888.90 611.11 C 919.21 610.97 949.26 623.96 969.88 646.18 C 984.86 662.09 995.01 682.50 998.51 704.08 C 998.78 705.58 998.85 707.29 1000.00 708.46 L 1000.00 709.76 C 998.96 709.21 997.99 708.32 998.20 707.04 C 998.31 702.74 997.00 698.62 996.01 694.49 C 923.76 694.46 851.52 694.44 779.28 694.50 C 772.75 689.53 767.77 682.85 761.77 677.29 C 749.14 665.23 737.06 652.59 724.58 640.36 C 716.42 632.54 709.01 623.96 700.57 616.41 C 689.62 605.36 678.64 594.33 667.60 583.38 C 722.77 583.19 777.95 583.54 833.11 583.20 C 820.42 551.46 806.10 520.29 789.63 490.32 C 782.10 477.23 774.46 463.97 764.08 452.89 C 760.37 449.24 756.20 445.26 750.85 444.50 C 738.08 444.27 725.29 444.73 712.52 444.27 C 721.25 434.43 731.10 425.67 740.21 416.20 Z" />
<path fill="#e1e8ed" opacity="1.00" d=" M 344.08 452.85 C 347.28 455.33 349.96 458.39 352.83 461.23 C 361.18 469.70 369.60 478.09 378.02 486.48 C 351.41 514.64 328.94 546.45 308.17 579.08 C 307.30 580.38 306.55 581.76 305.87 583.17 C 330.68 583.58 355.52 583.17 380.34 583.37 C 367.21 596.23 354.55 609.56 341.23 622.21 C 321.78 642.08 302.11 661.74 282.25 681.19 C 277.79 685.64 273.88 690.78 268.69 694.40 C 266.61 693.99 264.48 694.05 262.40 694.35 C 186.00 694.72 109.58 694.18 33.18 694.62 C 30.93 701.34 29.01 708.17 28.04 715.20 C 29.35 699.32 35.93 684.13 45.60 671.55 C 57.76 655.66 74.01 643.43 91.16 633.39 C 108.69 623.17 127.40 615.11 146.52 608.37 C 180.06 596.47 215.00 588.72 250.06 583.14 C 258.60 568.71 267.52 554.51 276.79 540.54 C 297.29 509.91 319.20 480.11 344.08 452.85 Z" />
<path fill="#e1e8ed" opacity="1.00" d=" M 620.31 536.07 C 626.48 529.92 632.61 523.72 638.78 517.58 C 638.95 529.89 638.96 542.22 638.78 554.54 C 632.61 548.39 626.50 542.19 620.31 536.07 Z" />
<path fill="#e1e8ed" opacity="1.00" d=" M 493.37 663.32 C 503.22 652.73 513.77 642.78 523.98 632.52 C 534.20 642.79 544.76 652.76 554.64 663.36 C 565.10 673.64 575.73 683.76 585.77 694.47 C 544.59 694.47 503.40 694.47 462.21 694.46 C 472.24 683.74 482.89 673.61 493.37 663.32 Z" />
<path fill="#e1e8ed" opacity="1.00" d=" M 695.09 852.87 C 696.85 840.54 703.07 829.02 712.09 820.48 C 715.48 823.91 718.64 827.56 722.16 830.86 C 737.32 845.33 751.78 860.53 766.82 875.14 C 774.19 883.63 782.86 890.84 790.56 899.02 C 779.59 910.92 763.20 917.51 747.04 916.54 C 730.61 915.78 714.81 907.16 705.17 893.86 C 696.57 882.23 692.91 867.15 695.09 852.87 Z" />
<path fill="#e1e8ed" opacity="1.00" d=" M 290.73 865.68 C 302.24 854.50 313.15 842.70 324.95 831.82 C 336.51 849.99 335.94 874.89 323.56 892.51 C 315.55 904.27 302.87 912.75 288.89 915.51 C 275.10 918.35 260.25 915.72 248.35 908.16 C 255.15 901.34 261.70 894.25 268.87 887.82 C 276.29 880.56 283.19 872.81 290.73 865.68 Z" />
</g>
<g id="#292f33ff">
<path fill="#292f33" opacity="1.00" d=" M 438.41 718.38 C 446.08 710.15 454.14 702.29 462.21 694.46 C 503.40 694.47 544.59 694.47 585.77 694.47 C 591.88 700.26 597.74 706.32 603.77 712.20 C 613.18 722.57 623.75 731.78 633.39 741.93 C 610.08 765.03 593.37 794.85 586.86 827.07 C 583.21 844.40 582.32 862.33 584.53 879.91 C 584.82 882.73 585.54 885.51 585.45 888.37 C 548.29 888.73 511.12 888.40 473.95 888.53 C 463.41 888.38 452.86 888.72 442.32 888.39 C 442.36 885.55 442.87 882.75 443.24 879.96 C 448.81 834.50 434.27 786.92 404.02 752.50 C 415.42 741.05 426.81 729.61 438.41 718.38 Z" />
<path fill="#292f33" opacity="1.00" d=" M 33.18 694.62 C 109.58 694.18 186.00 694.72 262.40 694.35 C 261.09 695.94 258.85 695.41 257.08 695.79 C 218.78 700.35 182.43 719.00 156.17 747.21 C 130.44 774.44 114.41 810.64 111.65 848.01 C 111.69 848.90 111.77 850.68 111.81 851.56 C 100.94 863.81 86.88 873.73 79.89 889.00 C 72.25 889.00 64.62 888.99 56.99 889.00 C 39.37 889.72 21.77 881.14 11.20 867.06 C 5.94 859.89 1.58 851.45 0.95 842.48 L 0.00 842.50 L 0.00 825.08 C 1.33 822.93 1.03 820.25 1.98 817.95 C 5.91 804.03 15.73 792.23 28.12 784.95 C 28.10 781.95 27.58 778.98 27.53 776.00 C 27.55 758.66 27.54 741.32 27.54 723.99 C 27.53 721.05 27.79 718.12 28.04 715.20 C 29.01 708.17 30.93 701.34 33.18 694.62 Z" />
<path fill="#292f33" opacity="1.00" d=" M 779.28 694.50 C 851.52 694.44 923.76 694.46 996.01 694.49 C 997.00 698.62 998.31 702.74 998.20 707.04 C 997.99 708.32 998.96 709.21 1000.00 709.76 L 1000.00 788.94 C 998.69 792.88 998.86 797.12 997.74 801.12 C 995.01 813.91 990.01 826.21 982.97 837.24 L 982.51 837.51 L 982.42 838.06 C 975.20 849.40 965.80 859.33 954.98 867.31 C 953.99 867.59 952.52 868.51 951.75 867.33 C 945.76 861.29 939.64 855.38 933.70 849.30 C 927.36 841.86 919.58 835.83 913.13 828.51 C 911.98 819.16 908.77 810.18 905.58 801.36 C 889.12 757.98 853.63 722.30 810.28 705.72 C 801.30 702.36 792.09 699.06 782.52 698.01 C 781.30 696.96 780.17 695.80 779.28 694.50 Z" />
<path fill="#292f33" opacity="1.00" d=" M 642.40 888.96 C 632.36 851.13 644.08 808.14 672.85 781.41 C 686.00 794.35 698.85 807.62 712.09 820.48 C 703.07 829.02 696.85 840.54 695.09 852.87 C 692.91 867.15 696.57 882.23 705.17 893.86 C 714.81 907.16 730.61 915.78 747.04 916.54 C 763.20 917.51 779.59 910.92 790.56 899.02 C 803.52 912.31 816.95 925.15 829.79 938.54 C 818.64 949.71 805.37 958.82 790.63 964.54 C 764.13 975.01 733.57 974.74 707.29 963.68 C 675.59 950.66 650.84 922.18 642.40 888.96 Z" />
<path fill="#292f33" opacity="1.00" d=" M 324.95 831.82 C 337.99 818.28 351.46 805.17 364.69 791.80 C 386.27 818.63 394.20 855.70 385.33 888.98 C 377.07 921.70 352.93 949.84 321.91 963.09 C 301.69 971.90 278.81 974.36 257.15 970.29 C 239.42 966.97 222.58 959.18 208.48 947.94 C 212.34 944.34 216.16 940.70 219.85 936.92 C 229.07 927.06 238.89 917.78 248.35 908.16 C 260.25 915.72 275.10 918.35 288.89 915.51 C 302.87 912.75 315.55 904.27 323.56 892.51 C 335.94 874.89 336.51 849.99 324.95 831.82 Z" />
</g>
<g id="#66757fff">
<path fill="#66757f" opacity="1.00" d=" M 262.40 694.35 C 264.48 694.05 266.61 693.99 268.69 694.40 C 266.51 697.60 263.48 700.04 260.81 702.80 C 251.13 712.44 241.65 722.28 231.73 731.66 C 218.81 745.09 205.44 758.08 192.34 771.33 C 184.35 779.65 175.58 787.20 167.91 795.84 C 154.97 808.60 142.12 821.48 129.31 834.38 C 123.15 839.78 117.79 846.00 111.81 851.56 C 111.77 850.68 111.69 848.90 111.65 848.01 C 114.41 810.64 130.44 774.44 156.17 747.21 C 182.43 719.00 218.78 700.35 257.08 695.79 C 258.85 695.41 261.09 695.94 262.40 694.35 Z" />
<path fill="#66757f" opacity="1.00" d=" M 782.52 698.01 C 792.09 699.06 801.30 702.36 810.28 705.72 C 853.63 722.30 889.12 757.98 905.58 801.36 C 908.77 810.18 911.98 819.16 913.13 828.51 C 902.06 818.06 891.54 807.01 880.63 796.38 C 872.58 787.44 863.53 779.49 855.16 770.86 C 848.05 763.63 840.82 756.51 833.65 749.33 C 825.30 741.34 817.74 732.57 809.12 724.87 C 800.28 715.88 791.26 707.08 782.52 698.01 Z" />
<path fill="#66757f" opacity="1.00" d=" M 633.39 741.93 C 646.72 754.92 659.56 768.39 672.85 781.41 C 644.08 808.14 632.36 851.13 642.40 888.96 C 556.71 888.94 471.02 888.92 385.33 888.98 C 394.20 855.70 386.27 818.63 364.69 791.80 C 371.65 784.40 379.30 777.69 386.34 770.36 C 391.95 764.13 398.11 758.44 404.02 752.50 C 434.27 786.92 448.81 834.50 443.24 879.96 C 442.87 882.75 442.36 885.55 442.32 888.39 C 452.86 888.72 463.41 888.38 473.95 888.53 C 511.12 888.40 548.29 888.73 585.45 888.37 C 585.54 885.51 584.82 882.73 584.53 879.91 C 582.32 862.33 583.21 844.40 586.86 827.07 C 593.37 794.85 610.08 765.03 633.39 741.93 Z" />
<path fill="#66757f" opacity="1.00" d=" M 982.51 837.51 L 982.97 837.24 C 982.84 837.44 982.56 837.85 982.42 838.06 L 982.51 837.51 Z" />
</g>
</svg>
