<svg xmlns="http://www.w3.org/2000/svg" fill-rule="evenodd" stroke-linejoin="round" stroke-miterlimit="2" clip-rule="evenodd" viewBox="0 0 350 280"><g fill="#bb812c" fill-rule="nonzero"><path d="M307.2,34.52C308.38,28.85 314.49,24.7 320.18,26.11C323.43,27.11 325.95,29.53 328.88,31.16C331.72,34.9 334.83,38.92 334.63,43.9C339.69,48.61 343.82,54.88 343.86,62.04C343.8,65.52 344.06,69.31 342.4,72.49C342.08,71.32 341.79,70.15 341.52,68.97C341.65,68.11 341.77,67.25 341.89,66.39C342.12,63.91 342.03,61.42 341.63,58.97C340.78,55.55 339.56,52.15 337.28,49.41C335.93,48.02 334.48,46.73 332.99,45.5C332.82,45.4 332.49,45.21 332.32,45.12C332.42,44.03 332.55,42.94 332.61,41.85C332.34,40.91 332.04,39.99 331.71,39.07C329.63,35.32 326.52,32.26 323.02,29.84C318.96,27.09 313.25,27.94 310.42,32.02C306.43,37.45 310.51,43.63 314.3,47.82C314.14,48.67 313.81,50.37 313.65,51.21C313.3,50.3 312.96,49.39 312.63,48.48C309.03,44.92 305.83,39.77 307.2,34.52Z"/><path d="M275.07,66.03C278.03,62.76 282.72,61.42 287.02,61.98C292.04,62.78 295.89,66.91 297.54,71.54C299.96,78.54 298.26,86.17 300.14,93.24C308.02,85.73 313.02,75.46 314.4,64.68C314.78,65.85 315.22,67 315.66,68.15C315.47,69.19 315.26,70.22 315.02,71.24C313.25,78.46 309.61,85.1 304.98,90.88C303.74,92.46 302.46,94.04 300.9,95.32C299.71,94.93 298.59,94.37 297.56,93.63C297.55,89.41 296.89,85.21 296.98,80.98C296.93,78.93 296.69,76.88 296.36,74.86C295.26,71.38 293.61,67.81 290.56,65.62C288.21,63.95 285.22,63.75 282.44,63.86C280.1,64.7 277.91,65.97 276.17,67.77C274.31,70.82 274.64,74.62 276.47,77.6C278.53,80.78 281.88,83.01 283.38,86.58C285.9,92.37 285.03,98.9 283.75,104.89C281.85,111.28 284.03,118.09 288.56,122.81C290.33,124.46 292.34,125.8 294.36,127.13C295.83,131.99 301.02,134.56 305.86,134.22C315.94,133.36 323.72,126.26 331.04,120C337.05,114.93 341.18,108.02 343.95,100.74C345.14,96.54 345.09,92.11 344.54,87.81C344.18,85.7 343.33,83.7 342.38,81.8C341.67,80.69 340.92,79.62 340.15,78.56C340.47,78.1 341.09,77.17 341.4,76.71C346.91,83.65 348.74,93.65 345.43,101.95C342.32,111 336.14,118.82 328.6,124.63C321.86,130.29 314.21,136.13 305.01,136.31C300.42,136.73 295.82,134.16 293.61,130.15C292.39,127.5 289.32,126.65 287.49,124.52C282.7,119.82 280.44,112.74 281.66,106.12C282.71,100.73 283.28,95.14 282.41,89.69C281.27,83.56 274.26,80.85 273.27,74.7C272.01,71.7 273.41,68.55 275.07,66.03Z"/><path d="M197.43,70.47C214.83,72.19 230.46,82.3 242.3,94.79C253.74,107.41 262.03,122.92 265.56,139.61C269.94,161.45 267.61,184.85 258.08,205.06C257.08,207.34 254.88,209.22 255.2,211.93C255.3,217.7 255.03,223.56 253.43,229.13C252.29,232.73 249.07,236.43 244.92,235.76C241.49,236.05 239.08,233.19 236.04,232.37C232.51,234.91 229.17,237.8 225.26,239.77L224.34,238.4C228.03,235.99 231.83,233.63 234.84,230.36C231.94,228.4 228.68,226.76 226.63,223.82C230.06,224.81 232.84,227.1 235.74,229.09C236.62,229.67 237.52,230.24 238.44,230.77C240.79,231.96 243.2,233.39 245.88,233.56C247.9,233.64 249.26,231.96 250.36,230.51C251.17,228.84 251.92,227.14 252.41,225.34C253.28,220.96 253.45,216.47 253.27,212.02C253.16,208.76 252.22,205.52 252.79,202.26C253.46,203.8 254.09,205.36 254.7,206.93C257.17,202.89 259.12,198.54 260.42,193.97C263.8,183.66 265.6,172.84 265.63,161.99C265.6,156.6 265.81,151.1 264.26,145.87C264.18,145.54 264,144.9 263.92,144.57C263.59,140.33 262.78,136.14 261.35,132.13C259.54,125.16 256.46,118.55 252.75,112.4C244.3,97.17 230.9,84.61 215.05,77.36C210.89,75.74 206.72,73.86 202.3,73.09L201.09,73.86C199.42,73.27 198.34,71.91 197.43,70.47Z"/><path d="M22.02,101.55C22.53,101.72 23.53,102.06 24.03,102.23C26.24,109.21 27.99,116.59 32.47,122.54C35.31,126.32 38.21,130.37 42.62,132.43C47.97,135.62 55.73,136.05 60.43,131.49C61.05,130.67 61.63,129.83 62.2,128.98C62.63,129.26 63.48,129.81 63.91,130.09C62.18,133.07 59.59,135.72 56.01,136.21C46.42,138.79 36.97,132.76 31.73,125.07C26.85,118.03 24,109.82 22.02,101.55Z"/></g><path fill="#fcd556" fill-rule="nonzero" d="M310.42,32.02C313.25,27.94 318.96,27.09 323.02,29.84C320.58,29.99 318.15,30.07 315.72,30.21C314.26,30.23 312.88,30.73 312.32,32.19C312.75,34.01 314.72,34.83 316.04,35.95C318.73,37.58 320.53,40.2 322.73,42.37C320.98,43.58 319.32,44.92 317.67,46.25C317.71,44.93 317.69,43.62 317.67,42.3C313.88,40.03 311.46,36.26 310.42,32.02Z"/><path fill="#be842c" fill-rule="nonzero" d="M2.05,41.86C2.21,35.4 7.96,30.7 14.03,29.87C16.13,30.67 18.54,31.17 20.09,32.94C22.38,35.41 22.97,38.86 24.41,41.82C26.97,41.06 29.63,41.33 32.23,41.65C38.25,45.38 39.19,53.49 37.12,59.73C42.82,58.66 49.39,59.18 54,63.01C55.47,64.62 57.19,66.63 57.22,68.87C56.86,69.29 56.16,70.13 55.81,70.55C55.35,69.48 54.87,68.43 54.36,67.38C52.42,63.15 47.33,61.68 43.03,61.5C39.5,61.22 36.33,62.98 33.21,64.35C32.9,64.49 32.29,64.76 31.98,64.89L31.24,65.22C30.86,64.91 30.1,64.28 29.72,63.97C31.28,62.82 33,61.86 34.43,60.53C36.2,57.39 36.05,53.58 35.68,50.11C35.4,47.03 33.19,43.85 29.95,43.48C25.46,42.66 20.91,45.27 18.63,49.07C17.21,51.43 16.26,54.05 15.59,56.72C14.19,61.95 14.99,67.37 15.19,72.68C15.73,79.81 17.24,87.01 20.65,93.35C21.39,95.33 21.76,97.41 21.73,99.53C16.45,91.53 14.11,81.96 13.13,72.52C12.84,71.01 12.85,69.37 12.06,68.01C6.74,60.35 1.5,51.52 2.05,41.86M6.61,35.76C6.51,36.21 6.31,37.12 6.21,37.57C2.42,41.84 4.66,48.08 5.83,52.98C7.8,57.13 9.77,61.31 12.52,65.01C12.83,56.6 14.61,46.87 22.47,42.19C21.82,40.43 21.18,38.66 20.53,36.91L20.5,36.97C19.15,34.67 17.06,32.59 14.29,32.26C11.49,32.86 9,34.26 6.61,35.76Z"/><path fill="#fddd71" fill-rule="nonzero" d="M312.32,32.19C312.88,30.73 314.26,30.23 315.72,30.21C318.56,33.11 322.33,35.21 324.08,39.03C326.49,39.65 330.27,42.52 331.71,39.07C332.04,39.99 332.34,40.91 332.61,41.85C329.31,41.7 325.99,41.75 322.73,42.37C320.53,40.2 318.73,37.58 316.04,35.95C314.72,34.83 312.75,34.01 312.32,32.19Z"/><path fill="#f6efa7" fill-rule="nonzero" d="M315.72,30.21C318.15,30.07 320.58,29.99 323.02,29.84C326.52,32.26 329.63,35.32 331.71,39.07C330.27,42.52 326.49,39.65 324.08,39.03C322.33,35.21 318.56,33.11 315.72,30.21Z"/><path fill="#fbc439" fill-rule="nonzero" d="M314.3,47.82C310.51,43.63 306.43,37.45 310.42,32.02C311.46,36.26 313.88,40.03 317.67,42.3C317.69,43.62 317.71,44.93 317.67,46.25C317.29,47.58 316.79,48.87 316.32,50.17C315.64,49.39 314.97,48.61 314.3,47.82Z"/><path fill="#f1f6b5" fill-rule="nonzero" d="M6.61,35.76C9,34.26 11.49,32.86 14.29,32.26C15.03,34.2 16.18,35.92 17.54,37.47C15.25,38.9 12.9,40.24 10.69,41.78C8.13,43.39 7.64,46.62 6.2,49.06C5.05,45.31 5.39,41.35 6.21,37.57C6.31,37.12 6.51,36.21 6.61,35.76Z"/><path fill="#fddf7a" fill-rule="nonzero" d="M14.29,32.26C17.06,32.59 19.15,34.67 20.5,36.97C19.58,38.82 18.98,40.8 18.25,42.73C14.74,46.81 10.31,50 5.83,52.98C4.66,48.08 2.42,41.84 6.21,37.57C5.39,41.35 5.05,45.31 6.2,49.06C7.64,46.62 8.13,43.39 10.69,41.78C12.9,40.24 15.25,38.9 17.54,37.47C16.18,35.92 15.03,34.2 14.29,32.26Z"/><path fill="#f8d154" fill-rule="nonzero" d="M20.5,36.97L20.53,36.91C21.18,38.66 21.82,40.43 22.47,42.19C14.61,46.87 12.83,56.6 12.52,65.01C9.77,61.31 7.8,57.13 5.83,52.98C10.31,50 14.74,46.81 18.25,42.73C18.98,40.8 19.58,38.82 20.5,36.97Z"/><g fill="#c98419" fill-rule="nonzero"><path d="M322.73,42.37C325.99,41.75 329.31,41.7 332.61,41.85C332.55,42.94 332.42,44.03 332.32,45.12C329.47,43.95 326.25,43 323.34,44.56C321.9,45.53 320.51,46.57 319.18,47.67C317.09,51.5 319.51,55.25 321.29,58.61C323.1,61.78 323.06,65.51 323.24,69.04C326.29,68.95 329.48,68.52 332.4,69.66C335.06,70.78 337.33,72.61 339.73,74.18C340.34,72.45 340.96,70.72 341.52,68.97C341.79,70.15 342.08,71.32 342.4,72.49L342.52,72.95C341.91,74.13 341.59,75.41 341.4,76.71C341.09,77.17 340.47,78.1 340.15,78.56C337.99,75.78 335.62,72.87 332.22,71.6C327.63,69.93 321.8,70.67 318.63,74.67C317.13,76.33 317.07,78.66 316.76,80.75C317.34,83.55 318.6,86.32 320.87,88.15C323.4,90.31 326.86,91.68 328.3,94.89C329.19,96.67 328.36,98.61 327.89,100.37C327,97.81 326.63,94.99 324.89,92.83C324.03,97.36 322.71,101.79 320.71,105.96C319.86,106.8 318.96,107.6 318.08,108.39C318.07,107.88 318.04,106.84 318.03,106.32C319.96,101.94 323.06,97.48 322.51,92.51C320.62,89.99 318.07,88.07 316.13,85.59C314.21,80.65 314.72,74.57 319.31,71.27C321.82,69.74 321.61,66.49 321.17,63.97C320.27,60.2 318.26,56.83 316.21,53.59C316.15,58.45 316.54,63.34 315.66,68.15C315.22,67 314.78,65.85 314.4,64.68C314.61,60.17 314.32,55.68 313.65,51.21C313.81,50.37 314.14,48.67 314.3,47.82C314.97,48.61 315.64,49.39 316.32,50.17C316.79,48.87 317.29,47.58 317.67,46.25C319.32,44.92 320.98,43.58 322.73,42.37Z"/><path d="M57.22,68.87C57.52,69.44 58.11,70.58 58.41,71.15C58.73,71.47 59.37,72.11 59.68,72.43C59.52,72.73 59.2,73.35 59.04,73.65C57.74,75.99 57.06,79.02 54.49,80.36C51.31,82.23 47.55,82.58 44.11,83.76C40.93,85.73 39.03,89.13 38.57,92.8C38.17,95.24 38.15,97.72 38.13,100.19C37.68,100.38 36.78,100.76 36.33,100.94C36.36,98.09 36.48,95.25 36.52,92.4C37.5,88.67 39.03,84.68 42.41,82.49C46.09,80.65 50.42,80.61 53.98,78.46C56.18,76.38 55.68,73.27 55.81,70.55C56.16,70.13 56.86,69.29 57.22,68.87Z"/><path d="M191.99,90.04C192.38,90.12 193.17,90.29 193.56,90.38L194.03,90.54C194.72,93.08 195.27,95.89 197.43,97.65C200.31,100.11 203.82,101.69 207.2,103.32C206.15,103.6 205.1,103.9 204.06,104.21C201,102.63 197.86,101.03 195.41,98.55C193.08,96.35 192.85,92.96 191.99,90.04Z"/><path d="M157.35,92.66C157.65,92.63 158.24,92.55 158.53,92.51L158.84,94.17L158.43,95.29C156.36,102.16 150.52,108.16 143.24,109.15C143.43,108.67 143.8,107.73 143.99,107.26C149.78,105.46 154.76,100.84 156.49,94.95C156.7,94.38 157.14,93.24 157.35,92.66Z"/></g><path fill="#fad862" fill-rule="nonzero" d="M18.63,49.07C20.91,45.27 25.46,42.66 29.95,43.48C33.19,43.85 35.4,47.03 35.68,50.11C36.05,53.58 36.2,57.39 34.43,60.53C33,61.86 31.28,62.82 29.72,63.97C23.85,68.12 21.29,75.43 20.71,82.34C20.45,81.93 19.94,81.11 19.68,80.7C20.18,78.42 20.84,75.84 19.27,73.8C18.72,71.81 16.66,72.69 15.19,72.68C14.99,67.37 14.19,61.95 15.59,56.72C15.75,58.7 16.17,60.65 16.68,62.57C20.37,60.07 23.53,56.89 27.04,54.17C29.8,53.09 32.62,51.95 34.15,49.22C33.84,48.81 33.24,48 32.93,47.59C29.88,42.43 23.04,45.7 19.43,48.53L18.63,49.07Z"/><path fill="#f9e78e" fill-rule="nonzero" d="M323.34,44.56C326.25,43 329.47,43.95 332.32,45.12C332.49,45.21 332.82,45.4 332.99,45.5C331.37,45.97 329.44,45.93 328.21,47.25C329.06,50.94 332.91,53.24 336.39,54.11C336.67,52.54 336.97,50.97 337.28,49.41C339.56,52.15 340.78,55.55 341.63,58.97C340.16,59.55 338.71,60.14 337.25,60.72C333.57,56.65 328.84,53.82 324.73,50.28C322.88,48.93 323.46,46.51 323.34,44.56Z"/><path fill="#f6f7b6" fill-rule="nonzero" d="M19.43,48.53C23.04,45.7 29.88,42.43 32.93,47.59C31.04,48.15 29.15,48.68 27.26,49.22C25.45,51.95 23.28,54.49 20.25,55.89C19.8,53.46 19.5,51 19.43,48.53Z"/><path fill="#fdda69" fill-rule="nonzero" d="M319.18,47.67C320.51,46.57 321.9,45.53 323.34,44.56C323.46,46.51 322.88,48.93 324.73,50.28C328.84,53.82 333.57,56.65 337.25,60.72C338.71,60.14 340.16,59.55 341.63,58.97C342.03,61.42 342.12,63.91 341.89,66.39C339.28,65.86 336.28,65.78 334.29,63.77C331.82,61.44 330.51,57.44 326.68,57.07C324.62,53.42 319.52,52.39 319.18,47.67Z"/><path fill="#f8f3af" fill-rule="nonzero" d="M328.21,47.25C329.44,45.93 331.37,45.97 332.99,45.5C334.48,46.73 335.93,48.02 337.28,49.41C336.97,50.97 336.67,52.54 336.39,54.11C332.91,53.24 329.06,50.94 328.21,47.25Z"/><path fill="#fcec96" fill-rule="nonzero" d="M27.26,49.22C29.15,48.68 31.04,48.15 32.93,47.59C33.24,48 33.84,48.81 34.15,49.22C32.62,51.95 29.8,53.09 27.04,54.17C23.53,56.89 20.37,60.07 16.68,62.57C16.17,60.65 15.75,58.7 15.59,56.72C16.26,54.05 17.21,51.43 18.63,49.07L19.43,48.53C19.5,51 19.8,53.46 20.25,55.89C23.28,54.49 25.45,51.95 27.26,49.22Z"/><path fill="#fccf4d" fill-rule="nonzero" d="M321.29,58.61C319.51,55.25 317.09,51.5 319.18,47.67C319.52,52.39 324.62,53.42 326.68,57.07C330.51,57.44 331.82,61.44 334.29,63.77C336.28,65.78 339.28,65.86 341.89,66.39C341.77,67.25 341.65,68.11 341.52,68.97C340.96,70.72 340.34,72.45 339.73,74.18C337.33,72.61 335.06,70.78 332.4,69.66C329.48,68.52 326.29,68.95 323.24,69.04C323.06,65.51 323.1,61.78 321.29,58.61Z"/><path fill="#c79424" fill-rule="nonzero" d="M63.03,58.04C65.43,52.64 70.75,47.86 77,48.36C83.09,47.88 89.14,53.77 88.32,59.97C87.97,66.03 82.77,69.92 79.25,74.3C76.26,77.58 74.4,81.72 73.6,86.07C71.12,94.57 72.68,103.47 73.12,112.12C72.76,114.78 72.2,117.51 70.79,119.82C69.47,122.05 66.82,122.75 64.61,123.72C64.54,125.3 65.15,127.15 63.85,128.42C63.76,125.75 63.04,122.23 66.09,120.91C72.31,117.54 71.1,109.6 70.62,103.73C69.68,93.14 70.7,81.55 77.51,72.91C79.8,70.31 82.4,67.95 84.22,64.97C86.53,61.43 87.19,56.58 83.83,53.44C82.69,52.44 81.46,51.56 80.15,50.79C76.19,50.25 71.8,50.97 68.89,53.91C66.73,56.19 65.29,59.04 63.9,61.82C62.78,64.02 62.27,66.45 61.62,68.81C61.02,70.04 60.34,71.23 59.68,72.43C59.37,72.11 58.73,71.47 58.41,71.15C60.29,66.9 60.9,62.2 63.03,58.04Z"/><path fill="#fbefa6" fill-rule="nonzero" d="M68.89,53.91C71.8,50.97 76.19,50.25 80.15,50.79C80.68,51.8 81.22,52.81 81.76,53.81C78.71,55.99 75.23,57.41 71.72,58.64C71.28,59.52 70.84,60.39 70.4,61.26C68.19,61.79 66.03,62.54 63.97,63.52C63.96,63.1 63.92,62.25 63.9,61.82C65.29,59.04 66.73,56.19 68.89,53.91Z"/><path fill="#fbdf77" fill-rule="nonzero" d="M80.15,50.79C81.46,51.56 82.69,52.44 83.83,53.44C83.78,56.21 84.92,58.93 83.89,61.66C83,61.17 82.1,60.67 81.21,60.18C78.17,62.2 74.23,62.06 71.31,64.29C68.35,66.33 65.47,68.98 61.62,68.81C62.27,66.45 62.78,64.02 63.9,61.82C63.92,62.25 63.96,63.1 63.97,63.52C66.03,62.54 68.19,61.79 70.4,61.26C70.84,60.39 71.28,59.52 71.72,58.64C75.23,57.41 78.71,55.99 81.76,53.81C81.22,52.81 80.68,51.8 80.15,50.79Z"/><path fill="#fbd450" fill-rule="nonzero" d="M83.83,53.44C87.19,56.58 86.53,61.43 84.22,64.97C79.81,65.99 76.05,68.56 72.28,70.93C72.35,72.69 71.03,75.51 73.05,76.43C74.22,75.3 74.92,73.82 75.72,72.44C76.17,72.55 77.06,72.79 77.51,72.91C70.7,81.55 69.68,93.14 70.62,103.73C70.28,106.13 70.21,109.13 67.46,109.97C67.18,111.2 66.9,112.43 66.63,113.66C65.1,114.2 63.57,114.75 62.04,115.29C59.28,112.08 56.2,109.17 53.41,105.99C54.07,105.83 55.39,105.51 56.05,105.35C56.92,105.76 57.8,106.17 58.68,106.57C59.02,105.79 59.35,105.01 59.69,104.23C60.44,105.14 61.19,106.05 61.94,106.95C63.52,104.17 64.68,101.18 65.54,98.09C65.97,99.39 66.4,100.69 66.84,101.99C66.37,96.76 67.08,91.57 67.37,86.37C66.5,86.75 65.65,87.13 64.79,87.52C63.35,82.7 60.64,78.41 59.04,73.65C59.2,73.35 59.52,72.73 59.68,72.43C60.34,71.23 61.02,70.04 61.62,68.81C65.47,68.98 68.35,66.33 71.31,64.29C74.23,62.06 78.17,62.2 81.21,60.18C82.1,60.67 83,61.17 83.89,61.66C84.92,58.93 83.78,56.21 83.83,53.44Z"/><path fill="#fbd55d" fill-rule="nonzero" d="M316.21,53.59C318.26,56.83 320.27,60.2 321.17,63.97C321.61,66.49 321.82,69.74 319.31,71.27C319.19,70.79 318.97,69.84 318.85,69.36C317.57,69.98 316.29,70.61 315.02,71.24C315.26,70.22 315.47,69.19 315.66,68.15C316.54,63.34 316.15,58.45 316.21,53.59Z"/><path fill="#6e3406" fill-rule="nonzero" d="M180.22,57.53C181.04,56.62 182.38,57.66 183.39,57.84C187.43,62.62 191.3,68.3 197.43,70.47C198.34,71.91 199.42,73.27 201.09,73.86C203.47,74.86 205.9,75.73 208.32,76.64C208.6,77.09 209.16,78 209.44,78.45C206.21,78.52 202.95,78.62 199.76,78.01C200.09,77.52 200.75,76.56 201.08,76.08C199.01,75.01 196.83,74.15 194.79,73.03C192.2,71.3 190.36,67.43 186.69,68.5C184.27,65.6 182.94,62 181.93,58.4C181.5,58.18 180.65,57.75 180.22,57.53Z"/><path fill="#6d491b" fill-rule="nonzero" d="M163.35,60.16C163.83,60.01 164.78,59.73 165.25,59.58C164.22,63.28 163.26,67.03 161.48,70.46C159.77,70.46 158.06,70.44 156.34,70.39C159.03,67.22 161.1,63.63 163.35,60.16Z"/><path fill="#faf6b8" fill-rule="nonzero" d="M33.21,64.35C36.33,62.98 39.5,61.22 43.03,61.5C47.33,61.68 52.42,63.15 54.36,67.38C53.87,69.86 53.44,72.35 53.11,74.86C51.68,73.28 50.42,71.08 48.01,71.06C42.45,70.58 37.47,67.8 33.21,64.35Z"/><g fill="#d18919" fill-rule="nonzero"><path d="M20.71,82.34C21.29,75.43 23.85,68.12 29.72,63.97C30.1,64.28 30.86,64.91 31.24,65.22C28.12,67.88 26.1,71.52 24.33,75.15C21.23,83.83 22.13,93.38 24.03,102.23C23.53,102.06 22.53,101.72 22.02,101.55C21.81,100.9 21.71,100.22 21.73,99.53C21.76,97.41 21.39,95.33 20.65,93.35C20.44,89.68 20.49,86 20.71,82.34Z"/><path d="M50.39,105.33C51.15,105.49 52.65,105.83 53.41,105.99C56.2,109.17 59.28,112.08 62.04,115.29C63.5,117.08 64.8,118.99 66.09,120.91C63.04,122.23 63.76,125.75 63.85,128.42C63.87,128.84 63.9,129.67 63.91,130.09C63.48,129.81 62.63,129.26 62.2,128.98C62.72,126.48 62.84,123.82 61.81,121.43C59.79,116.32 56.38,111.92 52.24,108.34C51.6,107.35 50.98,106.35 50.39,105.33Z"/></g><path fill="#fbe281" fill-rule="nonzero" d="M276.17,67.77C277.91,65.97 280.1,64.7 282.44,63.86C283.2,66.29 284.03,68.71 284.88,71.11C289.06,70.57 290.63,74.67 292.68,77.44C294.49,78.75 295.45,75.94 296.36,74.86C296.69,76.88 296.93,78.93 296.98,80.98C296.22,82.07 295.8,84.89 294.02,84.15C291.58,82.3 290.12,79.45 288.9,76.7C287.99,76.71 287.09,76.74 286.19,76.76C283.13,73.46 279.91,70.31 276.17,67.77Z"/><path fill="#fdf1a6" fill-rule="nonzero" d="M282.44,63.86C285.22,63.75 288.21,63.95 290.56,65.62C293.61,67.81 295.26,71.38 296.36,74.86C295.45,75.94 294.49,78.75 292.68,77.44C290.63,74.67 289.06,70.57 284.88,71.11C284.03,68.71 283.2,66.29 282.44,63.86Z"/><path fill="#fbd864" fill-rule="nonzero" d="M31.24,65.22L31.98,64.89C31.71,66.77 31.51,68.67 31.31,70.56C37.86,71.07 43.31,76.05 50.07,75.86C51.39,76.7 52.68,77.59 53.98,78.46C50.42,80.61 46.09,80.65 42.41,82.49C39.03,84.68 37.5,88.67 36.52,92.4C35.68,88.3 36.44,84.13 36.15,80C32.6,77.5 27.24,78.83 24.33,75.15C26.1,71.52 28.12,67.88 31.24,65.22Z"/><path fill="#fbe78e" fill-rule="nonzero" d="M31.98,64.89C32.29,64.76 32.9,64.49 33.21,64.35C37.47,67.8 42.45,70.58 48.01,71.06C50.42,71.08 51.68,73.28 53.11,74.86C53.44,72.35 53.87,69.86 54.36,67.38C54.87,68.43 55.35,69.48 55.81,70.55C55.68,73.27 56.18,76.38 53.98,78.46C52.68,77.59 51.39,76.7 50.07,75.86C43.31,76.05 37.86,71.07 31.31,70.56C31.51,68.67 31.71,66.77 31.98,64.89Z"/><path fill="#ffc639" fill-rule="nonzero" d="M72.28,70.93C76.05,68.56 79.81,65.99 84.22,64.97C82.4,67.95 79.8,70.31 77.51,72.91C77.06,72.79 76.17,72.55 75.72,72.44C74.92,73.82 74.22,75.3 73.05,76.43C71.03,75.51 72.35,72.69 72.28,70.93Z"/><path fill="#99582b" fill-rule="nonzero" d="M186.69,68.5C190.36,67.43 192.2,71.3 194.79,73.03C196.83,74.15 199.01,75.01 201.08,76.08C200.75,76.56 200.09,77.52 199.76,78.01C197.07,77.35 194.51,76.29 192.04,75.07C190.37,73.45 188.62,71.89 186.48,70.94C183.39,68.7 179.38,69.8 175.86,69.08L175.16,68.99C178.99,68.51 182.86,68.96 186.69,68.5Z"/><path fill="#fbd351" fill-rule="nonzero" d="M276.47,77.6C274.64,74.62 274.31,70.82 276.17,67.77C279.91,70.31 283.13,73.46 286.19,76.76C287.09,76.74 287.99,76.71 288.9,76.7C290.12,79.45 291.58,82.3 294.02,84.15C295.8,84.89 296.22,82.07 296.98,80.98C296.89,85.21 297.55,89.41 297.56,93.63C297.23,96.02 298.8,98.05 300.61,99.4C305.47,100.58 310.5,101.18 315.32,102.52C317.67,103.25 315.8,106.03 315.64,107.55C315.43,108.42 315.31,109.32 315.16,110.21C314.39,109.52 313.62,108.82 312.85,108.13C313.56,110.48 315.15,112.88 314.38,115.42C313.5,119.15 312.84,122.97 311.22,126.47C312.53,127.18 313.83,127.9 315.13,128.64C311.8,130.21 307.83,130.65 305.86,134.22C301.02,134.56 295.83,131.99 294.36,127.13C293.63,123.46 293.15,119.67 293.79,115.95C294.11,117.61 294.5,119.26 294.87,120.92C295.12,123.04 295.07,125.23 295.71,127.29C297.67,128.56 299.95,129.2 302.14,129.99C304.67,124.2 304.53,117.69 306.98,111.86C308.47,109.67 305.97,108.35 304.24,107.68C302.11,107.51 299.98,107.49 297.85,107.53C299.26,106.8 300.7,106.13 302.13,105.43C300.79,103.39 298.23,104.53 296.57,105.52C293.84,107.31 292.58,110.46 291.44,113.37C291.43,111.38 291.48,109.4 291.69,107.42C291.37,107.41 290.73,107.4 290.41,107.39C290.26,106.77 289.98,105.53 289.83,104.91C287.9,105.48 286.75,106.89 286.36,108.83C286.25,108.3 286.04,107.24 285.93,106.7C285.52,106.57 284.71,106.3 284.3,106.17C284.16,105.85 283.89,105.21 283.75,104.89C285.03,98.9 285.9,92.37 283.38,86.58C281.88,83.01 278.53,80.78 276.47,77.6Z"/><path fill="#f9e177" fill-rule="nonzero" d="M315.02,71.24C316.29,70.61 317.57,69.98 318.85,69.36C318.97,69.84 319.19,70.79 319.31,71.27C314.72,74.57 314.21,80.65 316.13,85.59C314.03,89.35 311.64,92.93 308.83,96.2C307.37,95.39 306.44,94.14 306.26,92.47C305.94,92.07 305.3,91.28 304.98,90.88C309.61,85.1 313.25,78.46 315.02,71.24Z"/><path fill="#792f07" fill-rule="nonzero" d="M150.34,75.73C152.82,74.57 154.55,72.38 156.34,70.39C158.06,70.44 159.77,70.46 161.48,70.46L161.16,71.01C160.55,72.04 159.95,73.08 159.36,74.12C158.29,75.9 157.16,77.64 155.94,79.32C154.34,80.37 152.75,81.42 151.13,82.43C148.08,83.91 144.81,85.09 141.39,85.16C140.67,85.08 139.22,84.93 138.5,84.85C138.45,84.45 138.36,83.66 138.32,83.26C143.03,82.09 147.28,79.51 150.34,75.73Z"/><path fill="#d08c27" fill-rule="nonzero" d="M161.16,71.01C166.07,70.48 170.9,69.16 175.86,69.08C179.38,69.8 183.39,68.7 186.48,70.94C177.98,70.79 168.62,70.29 161.16,75.01C160.71,74.79 159.81,74.34 159.36,74.12C159.95,73.08 160.55,72.04 161.16,71.01Z"/><path fill="#f3bb40" fill-rule="nonzero" d="M161.16,75.01C168.62,70.29 177.98,70.79 186.48,70.94C188.62,71.89 190.37,73.45 192.04,75.07C191.54,74.97 190.55,74.79 190.06,74.69C185.09,73.83 180.02,72.81 174.98,73.74C170.03,74.6 164.9,75.01 160.3,77.17C158.83,77.85 157.38,78.58 155.94,79.32C157.16,77.64 158.29,75.9 159.36,74.12C159.81,74.34 160.71,74.79 161.16,75.01Z"/><path fill="#fae17c" fill-rule="nonzero" d="M318.63,74.67C321.8,70.67 327.63,69.93 332.22,71.6C328.34,71.44 324.29,71.72 321.05,74.09C325.73,76.54 330.12,79.52 334.94,81.72C335.72,81.19 336.52,80.67 337.32,80.14C337.55,82.41 337.84,84.68 338.54,86.87C340.55,85.96 341.16,83.48 342.38,81.8C343.33,83.7 344.18,85.7 344.54,87.81C344.35,90.74 343.73,93.69 341.9,96.06C340.98,94.63 340.09,93.18 339.19,91.75C335.44,89.68 331.38,88.29 327.48,86.56C324,84.49 321.56,78.66 316.76,80.75C317.07,78.66 317.13,76.33 318.63,74.67Z"/><path fill="#fbc93e" fill-rule="nonzero" d="M15.19,72.68C16.66,72.69 18.72,71.81 19.27,73.8C20.84,75.84 20.18,78.42 19.68,80.7C19.94,81.11 20.45,81.93 20.71,82.34C20.49,86 20.44,89.68 20.65,93.35C17.24,87.01 15.73,79.81 15.19,72.68Z"/><path fill="#f9f1ad" fill-rule="nonzero" d="M321.05,74.09C324.29,71.72 328.34,71.44 332.22,71.6C335.62,72.87 337.99,75.78 340.15,78.56C340.92,79.62 341.67,80.69 342.38,81.8C341.16,83.48 340.55,85.96 338.54,86.87C337.84,84.68 337.55,82.41 337.32,80.14C336.52,80.67 335.72,81.19 334.94,81.72C330.12,79.52 325.73,76.54 321.05,74.09Z"/><path fill="#f1b34b" fill-rule="nonzero" d="M202.3,73.09C206.72,73.86 210.89,75.74 215.05,77.36C214.66,77.59 213.89,78.03 213.51,78.25C213.52,78.71 213.56,79.64 213.57,80.1C212.76,79.74 211.94,79.4 211.11,79.08C210.69,78.92 209.86,78.61 209.44,78.45C209.16,78 208.6,77.09 208.32,76.64C205.9,75.73 203.47,74.86 201.09,73.86L202.3,73.09Z"/><path fill="#fce070" fill-rule="nonzero" d="M54.49,80.36C57.06,79.02 57.74,75.99 59.04,73.65C60.64,78.41 63.35,82.7 64.79,87.52C65.65,87.13 66.5,86.75 67.37,86.37C67.08,91.57 66.37,96.76 66.84,101.99C66.4,100.69 65.97,99.39 65.54,98.09C64.68,101.18 63.52,104.17 61.94,106.95C61.19,106.05 60.44,105.14 59.69,104.23C59.35,105.01 59.02,105.79 58.68,106.57C57.8,106.17 56.92,105.76 56.05,105.35C55.39,105.51 54.07,105.83 53.41,105.99C52.65,105.83 51.15,105.49 50.39,105.33C50.98,106.35 51.6,107.35 52.24,108.34C50.69,108.62 49.14,108.9 47.59,109.19C50.88,116.57 55.79,123.16 59.29,130.47C60.43,127.55 61.19,124.5 61.81,121.43C62.84,123.82 62.72,126.48 62.2,128.98C61.63,129.83 61.05,130.67 60.43,131.49C57.46,131.62 54.43,132.33 51.49,131.51C51.97,131.04 52.92,130.1 53.4,129.63C53.63,129.39 54.1,128.91 54.33,128.67C50.3,122.68 45.5,117.06 43.27,110.05C44.19,107.53 45.96,104.86 44.9,102.11C43.46,98.25 43.68,94.1 42.63,90.16C43.37,88.77 44.13,87.39 44.89,86.01C44.7,85.45 44.3,84.32 44.11,83.76C47.55,82.58 51.31,82.23 54.49,80.36Z"/><path fill="#fbf0c0" fill-rule="nonzero" d="M160.3,77.17C164.9,75.01 170.03,74.6 174.98,73.74C180.02,72.81 185.09,73.83 190.06,74.69C190.74,75.46 191.4,76.25 192.07,77.04C188.07,79.32 183.58,78.17 179.28,78.46C173.08,80.41 166.32,79.26 160.3,77.17Z"/><path fill="#fcc939" fill-rule="nonzero" d="M24.03,102.23C22.13,93.38 21.23,83.83 24.33,75.15C27.24,78.83 32.6,77.5 36.15,80C36.44,84.13 35.68,88.3 36.52,92.4C36.48,95.25 36.36,98.09 36.33,100.94C36.78,100.76 37.68,100.38 38.13,100.19C38.15,97.72 38.17,95.24 38.57,92.8C38.5,94.54 38.49,96.29 38.65,98.03C38.76,101.61 43.07,103.8 42.28,107.57C41.51,111.92 43.84,115.89 45.16,119.89C46.65,124.02 49.51,127.54 53.4,129.63C52.92,130.1 51.97,131.04 51.49,131.51C54.43,132.33 57.46,131.62 60.43,131.49C55.73,136.05 47.97,135.62 42.62,132.43C38.21,130.37 35.31,126.32 32.47,122.54C27.99,116.59 26.24,109.21 24.03,102.23Z"/><path fill="#fae8a3" fill-rule="nonzero" d="M190.06,74.69C190.55,74.79 191.54,74.97 192.04,75.07C194.51,76.29 197.07,77.35 199.76,78.01C202.95,78.62 206.21,78.52 209.44,78.45C209.86,78.61 210.69,78.92 211.11,79.08C209.37,80.38 207.69,81.81 205.74,82.8C203.95,83.12 202.14,82.67 200.36,82.47C200.2,82.04 199.89,81.2 199.73,80.77C195.8,81.23 191.99,82.65 187.99,82.4C183.79,82.25 179.97,84.38 175.85,84.85C171.12,85.62 166.64,83.3 161.96,83.09C160.43,83.72 159.16,84.81 157.69,85.55C156.46,85.59 155.61,84.33 154.57,83.81C153.4,83.4 152.25,82.95 151.13,82.43C152.75,81.42 154.34,80.37 155.94,79.32C157.38,78.58 158.83,77.85 160.3,77.17C166.32,79.26 173.08,80.41 179.28,78.46C183.58,78.17 188.07,79.32 192.07,77.04C191.4,76.25 190.74,75.46 190.06,74.69Z"/><path fill="#b9883c" fill-rule="nonzero" d="M136.9,83.02C141.2,80.29 145.38,77.16 150.34,75.73C147.28,79.51 143.03,82.09 138.32,83.26C138.36,83.66 138.45,84.45 138.5,84.85C137.33,85.34 136.23,85.95 135.19,86.66C122.7,96.21 111.85,108.52 106.13,123.31C103.44,130.31 101,137.46 99.91,144.91L99.79,145.78C97.37,157.08 98.29,168.73 99.86,180.08C100.42,183.43 101.68,186.6 102.49,189.89C103.1,192.47 103.99,194.97 104.82,197.48C104.72,198.24 104.53,199.76 104.43,200.52C95.96,183.06 94.73,162.87 97.89,143.94C101.81,119.43 116.28,96.86 136.9,83.02Z"/><path fill="#fcc32c" fill-rule="nonzero" d="M213.51,78.25C213.89,78.03 214.66,77.59 215.05,77.36C230.9,84.61 244.3,97.17 252.75,112.4C251.46,115.76 253.19,118.85 254.15,121.98C254.68,133.69 256.09,145.34 256.54,157.05C257.37,162.65 257.72,168.33 256.98,173.97C256.35,178.02 258.34,181.89 258.06,185.94C258.2,188.76 257.1,192.54 260.42,193.97C259.12,198.54 257.17,202.89 254.7,206.93C254.09,205.36 253.46,203.8 252.79,202.26C252.22,205.52 253.16,208.76 253.27,212.02C253.45,216.47 253.28,220.96 252.41,225.34C252.56,223.35 252.54,220.2 249.77,220.29C246.65,220.89 244.09,223.14 241.21,224.42C241.3,225.22 241.4,226.03 241.5,226.83C240.09,226.59 238.68,226.36 237.27,226.13C236.76,227.11 236.25,228.1 235.74,229.09C232.84,227.1 230.06,224.81 226.63,223.82C228.68,226.76 231.94,228.4 234.84,230.36C231.83,233.63 228.03,235.99 224.34,238.4C211.44,245.59 196.91,250.45 181.99,249.91C166.86,250.45 151.71,246 138.85,238.11C134.23,234.82 128.8,232.06 126.02,226.87C128.54,224.37 131.42,222.29 134.14,220.03C133.22,219.81 132.31,219.6 131.38,219.44C128.08,219.47 124.66,219.51 121.71,217.77C123.4,216.76 125.19,215.92 126.97,215.07C130.97,212.83 134.3,209.54 137.21,206.03C138.54,206.33 139.85,206.11 141.08,205.56C141.59,205.89 142.08,206.25 142.56,206.64C143.67,205.82 144.79,205.01 145.94,204.26C147.21,207.75 149.33,210.84 152.15,213.28C153.15,213.14 154.42,211.74 155.23,212.74C156.03,215.12 156.34,217.71 157.84,219.8C158.84,218.9 159.8,217.94 160.93,217.2C164.79,217.75 167.18,221.78 171.39,221.46C171.68,222.04 172.27,223.19 172.56,223.77C179.3,224.94 185.95,222.24 192.66,223.39C193.38,222.77 194.1,222.15 194.84,221.55C197.78,221.77 199.96,219.63 202.48,218.52C205.14,217.83 207.96,218.29 210.63,217.64C213.71,216.71 215.9,214.19 218.66,212.67C221.62,212.46 224.54,213.57 227.49,213.85C230.39,215.54 233.43,217.79 236.98,217.35C240.86,217.22 242.99,213.25 243.67,209.89C244.87,202.06 243.28,194.17 242.03,186.45C242.84,185.81 243.65,185.17 244.47,184.53C244.97,185.34 245.47,186.15 245.97,186.97C245.72,184.91 245.45,182.85 245.18,180.8C245.55,180.65 246.28,180.37 246.65,180.22C246.89,178.85 247.12,177.47 247.37,176.1C248.75,176.4 250.13,176.7 251.51,177.02C248.62,172.58 250.26,166.95 249.96,161.97C249.73,159.87 252.44,160.08 253.73,159.36C253.77,158.37 253.81,157.37 253.85,156.38C252.73,156.47 251.62,156.57 250.5,156.68C248.22,151.21 247.65,145.33 246.5,139.58C245.97,136.45 246.83,132.89 244.83,130.16C243.61,129.21 241.89,129.51 240.44,129.23C239.4,125.21 241.03,119.52 236.44,117.39C232.59,113.53 228.32,109.89 223,108.26C221.62,109.03 220.46,110.13 219.25,111.14C219.33,110.52 219.47,109.28 219.55,108.65C220.79,107.58 222.01,106.48 223.23,105.39C223.26,104.07 223.24,102.76 223.28,101.45C221.57,100.2 219.91,98.9 218.14,97.75C218.22,96.42 217.4,94.67 218.88,93.85C221.79,94.78 224.7,95.83 227.8,95.83C227.48,93.73 228.02,91.21 226.47,89.51C224.11,86.86 221.33,84.59 218.33,82.7C216.78,81.77 215.2,80.89 213.57,80.1C213.56,79.64 213.52,78.71 213.51,78.25Z"/><path fill="#f9de86" fill-rule="nonzero" d="M211.11,79.08C211.94,79.4 212.76,79.74 213.57,80.1C215.2,80.89 216.78,81.77 218.33,82.7C218.71,83.62 219.1,84.54 219.49,85.45C217.73,86.71 216.04,88.08 214.45,89.55C212.11,88.15 209.65,86.77 206.84,86.75C208.03,90.14 212.05,91.3 212.96,94.85C206.21,90.45 198.25,87.05 190.02,87.87C188.47,87.74 187.54,88.42 187.22,89.9C184.63,90 182.47,88.43 180.1,87.7C175.53,88.06 170.73,89 167.28,92.25C167.01,92.26 166.45,92.28 166.17,92.29C165.99,91.9 165.62,91.11 165.44,90.72C153.1,85.89 140.43,93.7 131.85,102.16C133.5,99.42 135.62,97.04 138.09,95.03C139.45,93.87 137.89,92.15 137.5,90.89C138.78,88.97 140.09,87.07 141.39,85.16C144.81,85.09 148.08,83.91 151.13,82.43C152.25,82.95 153.4,83.4 154.57,83.81C155.61,84.33 156.46,85.59 157.69,85.55C159.16,84.81 160.43,83.72 161.96,83.09C166.64,83.3 171.12,85.62 175.85,84.85C179.97,84.38 183.79,82.25 187.99,82.4C191.99,82.65 195.8,81.23 199.73,80.77C199.89,81.2 200.2,82.04 200.36,82.47C202.14,82.67 203.95,83.12 205.74,82.8C207.69,81.81 209.37,80.38 211.11,79.08Z"/><path fill="#fdd257" fill-rule="nonzero" d="M316.76,80.75C321.56,78.66 324,84.49 327.48,86.56C331.38,88.29 335.44,89.68 339.19,91.75C340.09,93.18 340.98,94.63 341.9,96.06C343.73,93.69 344.35,90.74 344.54,87.81C345.09,92.11 345.14,96.54 343.95,100.74C342.24,100.58 340.53,100.42 338.82,100.27C338.11,99.11 337.4,97.94 336.69,96.79C335.56,97.08 334.42,96.94 333.31,96.7C333.04,97.66 332.77,98.62 332.51,99.57C330.24,102.84 326.49,104.58 324.42,107.95C324.16,106.7 323.9,105.47 323.65,104.23C322.93,105.52 322.2,106.81 321.48,108.09C321.28,107.56 320.9,106.49 320.71,105.96C322.71,101.79 324.03,97.36 324.89,92.83C326.63,94.99 327,97.81 327.89,100.37C328.36,98.61 329.19,96.67 328.3,94.89C326.86,91.68 323.4,90.31 320.87,88.15C318.6,86.32 317.34,83.55 316.76,80.75Z"/><path fill="#fdcf50" fill-rule="nonzero" d="M218.33,82.7C221.33,84.59 224.11,86.86 226.47,89.51C228.02,91.21 227.48,93.73 227.8,95.83C224.7,95.83 221.79,94.78 218.88,93.85C217.4,94.67 218.22,96.42 218.14,97.75C217,97.15 215.83,96.62 214.69,96.06C214.11,95.66 213.53,95.26 212.96,94.85C212.05,91.3 208.03,90.14 206.84,86.75C209.65,86.77 212.11,88.15 214.45,89.55C216.04,88.08 217.73,86.71 219.49,85.45C219.1,84.54 218.71,83.62 218.33,82.7Z"/><path fill="#fcd55d" fill-rule="nonzero" d="M38.57,92.8C39.03,89.13 40.93,85.73 44.11,83.76C44.3,84.32 44.7,85.45 44.89,86.01C44.13,87.39 43.37,88.77 42.63,90.16C43.68,94.1 43.46,98.25 44.9,102.11C45.96,104.86 44.19,107.53 43.27,110.05C45.5,117.06 50.3,122.68 54.33,128.67C54.1,128.91 53.63,129.39 53.4,129.63C49.51,127.54 46.65,124.02 45.16,119.89C43.84,115.89 41.51,111.92 42.28,107.57C43.07,103.8 38.76,101.61 38.65,98.03C38.49,96.29 38.5,94.54 38.57,92.8Z"/><path fill="#fecd4c" fill-rule="nonzero" d="M135.19,86.66C136.23,85.95 137.33,85.34 138.5,84.85C139.22,84.93 140.67,85.08 141.39,85.16C140.09,87.07 138.78,88.97 137.5,90.89C137.89,92.15 139.45,93.87 138.09,95.03C135.62,97.04 133.5,99.42 131.85,102.16C129.45,105.16 125.56,107.28 124.78,111.32C125.92,110.55 127.05,109.76 128.07,108.83C129.53,109.07 131.22,110.68 132.66,109.62C136.44,107.09 140.48,104.9 143.83,101.78C145.52,100.02 148.15,100.16 150.27,99.23C152.31,97.76 154.17,96.01 156.49,94.95C154.76,100.84 149.78,105.46 143.99,107.26C139,106.32 135.82,111.05 131.04,111.18C129.02,111.58 127.03,112.18 124.98,112.43C122.95,110.86 124.2,107.94 125.38,106.22C127.78,103.42 130.23,100.64 132.71,97.91C132.28,97.29 131.86,96.67 131.45,96.05C132.94,94.33 134.58,92.73 135.9,90.86C136.65,89.47 135.45,88.02 135.19,86.66Z"/><path fill="#fbd861" fill-rule="nonzero" d="M316.13,85.59C318.07,88.07 320.62,89.99 322.51,92.51C323.06,97.48 319.96,101.94 318.03,106.32C317.26,106.78 316.45,107.17 315.64,107.55C315.8,106.03 317.67,103.25 315.32,102.52C310.5,101.18 305.47,100.58 300.61,99.4C298.8,98.05 297.23,96.02 297.56,93.63C298.59,94.37 299.71,94.93 300.9,95.32C302.46,94.04 303.74,92.46 304.98,90.88C305.3,91.28 305.94,92.07 306.26,92.47C306.44,94.14 307.37,95.39 308.83,96.2C311.64,92.93 314.03,89.35 316.13,85.59Z"/><path fill="#fcc42c" fill-rule="nonzero" d="M106.13,123.31C111.85,108.52 122.7,96.21 135.19,86.66C135.45,88.02 136.65,89.47 135.9,90.86C134.58,92.73 132.94,94.33 131.45,96.05C131.86,96.67 132.28,97.29 132.71,97.91C130.23,100.64 127.78,103.42 125.38,106.22C124.2,107.94 122.95,110.86 124.98,112.43C127.03,112.18 129.02,111.58 131.04,111.18C132.17,112.9 133.38,114.59 134.24,116.47C133.43,118.48 131.83,120.08 129.89,121.02C129.41,120.12 128.94,119.22 128.47,118.31C127.79,120.77 126.11,122.69 124.66,124.72C124.36,128.06 125.1,131.55 123.57,134.71C122.26,139.18 118.03,142.95 119.08,147.92C119.23,149.11 119.44,150.3 119.65,151.49C118.81,151.53 117.97,151.58 117.13,151.62C115.69,153.99 114.75,156.63 115.09,159.44C115.66,159.73 116.82,160.3 117.4,160.59C118.12,163.27 119.21,165.88 119.57,168.65C119.24,170.37 118.06,171.77 117.23,173.28C118.14,179.09 114.93,184.76 116.69,190.53C116.02,196.97 114.79,203.46 116.18,209.91C115.77,211.38 116.31,213.74 114.44,214.3C112.44,214.1 110.45,213.68 108.43,213.8C107.59,208.64 107.65,203.41 107.57,198.2C106.88,198.02 105.51,197.66 104.82,197.48C103.99,194.97 103.1,192.47 102.49,189.89C103.41,190.58 104.32,191.27 105.23,191.97C104.91,181.15 107.64,170.41 105.81,159.62C106.64,154.09 106.59,148.45 107.87,142.99C109.18,137.46 108.3,131.78 107.67,126.23C107.67,125.03 106.94,124.1 106.13,123.31Z"/><path fill="#fccf52" fill-rule="nonzero" d="M167.28,92.25C170.73,89 175.53,88.06 180.1,87.7C182.47,88.43 184.63,90 187.22,89.9C187.84,89.88 189.09,89.85 189.71,89.84C190.28,89.89 191.42,89.99 191.99,90.04C192.85,92.96 193.08,96.35 195.41,98.55C197.86,101.03 201,102.63 204.06,104.21C204.66,105.12 205.27,106.04 205.87,106.97C204.84,107.99 203.82,109.02 202.79,110.05C205.93,114.8 213.22,116.06 214.1,122.27C207.11,115.45 198.77,109.31 188.91,107.71C177.43,105.77 165.13,107.21 155.14,113.48C155.67,112.14 155.49,109.81 157.37,109.52C161.22,108.67 165.2,107.84 168.29,105.19C167.61,104.4 166.94,103.61 166.26,102.83C172.35,106.08 179.21,102.82 185.62,104.51C190.43,105.8 195.17,107.71 200.26,107.39C199.7,106.73 199.14,106.07 198.58,105.41C198.85,105.19 199.39,104.75 199.67,104.52C198.29,103.73 196.8,103.08 195.62,102.01C193.83,99.82 193.08,96.91 191.08,94.87C189.42,93.5 187.37,95.03 185.49,94.81C177.43,94.16 169.23,93.83 161.24,95.25C160.3,95.34 159.37,95.35 158.43,95.29L158.84,94.17C160.82,93.53 162.81,92.92 164.8,92.31C165.15,92.31 165.83,92.3 166.17,92.29C166.45,92.28 167.01,92.26 167.28,92.25Z"/><g fill="#430501" fill-rule="nonzero"><path d="M187.22,89.9C187.54,88.42 188.47,87.74 190.02,87.87C198.25,87.05 206.21,90.45 212.96,94.85C213.53,95.26 214.11,95.66 214.69,96.06C217.41,98.32 220.63,100.18 222.75,103.06C222.75,103.6 222.76,104.69 222.76,105.23C213.68,97.06 202.76,88.31 189.71,89.84C189.09,89.85 187.84,89.88 187.22,89.9Z"/><path d="M131.85,102.16C140.43,93.7 153.1,85.89 165.44,90.72C165.62,91.11 165.99,91.9 166.17,92.29C165.83,92.3 165.15,92.31 164.8,92.31C162.65,91.78 160.47,91.37 158.27,91.14L158.53,92.51C158.24,92.55 157.65,92.63 157.35,92.66L158.26,91.32C153.46,90.75 148.79,92.5 144.67,94.8C139.25,98.03 134.29,102.05 130.09,106.76C129.41,107.45 128.74,108.14 128.07,108.83C127.05,109.76 125.92,110.55 124.78,111.32C125.56,107.28 129.45,105.16 131.85,102.16Z"/><path d="M153.09,139.98C155.37,135.91 159.84,131.23 164.97,133.13C169.28,134.24 169.91,139.18 171.59,142.6C172.98,145.02 175.12,146.97 177.37,148.59C180.02,149.33 181.38,146.27 182.5,144.45C184.95,140.1 186.81,134.13 191.97,132.45C196.94,133.83 198.68,139.63 200.06,144.05C201.33,151.19 205.3,157.65 205.48,165.01C205.62,168.01 206.23,170.98 206.31,173.99C205.56,176.63 204.29,179.09 203.29,181.64C197.77,176.71 191.47,172.15 184.09,170.65C178.06,170.42 171.61,169.96 166.1,172.92C160.86,174.97 156.59,178.77 152.63,182.66C151.08,181.86 149.16,181.23 148.61,179.37C146.63,174.14 147.63,168.41 147.36,162.96C146.89,154.93 149.54,147.07 153.09,139.98Z"/></g><g fill="#fbe8a5" fill-rule="nonzero"><path d="M189.71,89.84C202.76,88.31 213.68,97.06 222.76,105.23C222.76,104.69 222.75,103.6 222.75,103.06C220.63,100.18 217.41,98.32 214.69,96.06C215.83,96.62 217,97.15 218.14,97.75C219.91,98.9 221.57,100.2 223.28,101.45C223.24,102.76 223.26,104.07 223.23,105.39C222.52,105.45 221.08,105.58 220.36,105.64C214.83,100.14 207.36,97.19 200.59,93.54C198.52,92.29 196.33,91.28 194.03,90.54L193.56,90.38C193.17,90.29 192.38,90.12 191.99,90.04C191.42,89.99 190.28,89.89 189.71,89.84Z"/><path d="M111.39,224.02C111.75,223.41 112.48,222.19 112.84,221.57C116.19,222.15 119.53,222.8 122.76,223.85C122.11,225.08 121.57,226.4 120.74,227.53C118.84,227.94 116.9,228.04 114.98,228.25C113.73,226.88 112.53,225.47 111.39,224.02Z"/></g><g fill="#f5e090" fill-rule="nonzero"><path d="M144.67,94.8C148.79,92.5 153.46,90.75 158.26,91.32L157.35,92.66C153.14,93.69 149.5,96.13 145.54,97.81C142.75,100.46 138.9,101.55 136.24,104.37C134.68,106.17 132.32,106.51 130.09,106.76C134.29,102.05 139.25,98.03 144.67,94.8Z"/><path d="M158.27,91.14C160.47,91.37 162.65,91.78 164.8,92.31C162.81,92.92 160.82,93.53 158.84,94.17L158.53,92.51L158.27,91.14Z"/></g><path fill="#fbd158" fill-rule="nonzero" d="M194.03,90.54C196.33,91.28 198.52,92.29 200.59,93.54C207.36,97.19 214.83,100.14 220.36,105.64C219.8,105.97 218.66,106.63 218.1,106.96C214.69,105.17 211.06,103.71 207.2,103.32C203.82,101.69 200.31,100.11 197.43,97.65C195.27,95.89 194.72,93.08 194.03,90.54Z"/><path fill="#fad56c" fill-rule="nonzero" d="M145.54,97.81C149.5,96.13 153.14,93.69 157.35,92.66C157.14,93.24 156.7,94.38 156.49,94.95C154.17,96.01 152.31,97.76 150.27,99.23C148.15,100.16 145.52,100.02 143.83,101.78C140.48,104.9 136.44,107.09 132.66,109.62C131.22,110.68 129.53,109.07 128.07,108.83C128.74,108.14 129.41,107.45 130.09,106.76C132.32,106.51 134.68,106.17 136.24,104.37C138.9,101.55 142.75,100.46 145.54,97.81Z"/><path fill="#fcca38" fill-rule="nonzero" d="M161.24,95.25C169.23,93.83 177.43,94.16 185.49,94.81C187.37,95.03 189.42,93.5 191.08,94.87C193.08,96.91 193.83,99.82 195.62,102.01C196.8,103.08 198.29,103.73 199.67,104.52C199.39,104.75 198.85,105.19 198.58,105.41C199.14,106.07 199.7,106.73 200.26,107.39C195.17,107.71 190.43,105.8 185.62,104.51C179.21,102.82 172.35,106.08 166.26,102.83C166.94,103.61 167.61,104.4 168.29,105.19C165.2,107.84 161.22,108.67 157.37,109.52C155.49,109.81 155.67,112.14 155.14,113.48C151.8,115.94 148.84,118.85 145.59,121.41C142.35,120.9 139.33,123.24 138.1,126.11C138.41,127.26 138.77,128.4 139.19,129.52C133.27,138.75 128.65,148.75 125.18,159.14C121.47,169.34 119.43,180.04 116.69,190.53C114.93,184.76 118.14,179.09 117.23,173.28C118.06,171.77 119.24,170.37 119.57,168.65C119.21,165.88 118.12,163.27 117.4,160.59C116.82,160.3 115.66,159.73 115.09,159.44C114.75,156.63 115.69,153.99 117.13,151.62C117.97,151.58 118.81,151.53 119.65,151.49C119.44,150.3 119.23,149.11 119.08,147.92C118.03,142.95 122.26,139.18 123.57,134.71C125.1,131.55 124.36,128.06 124.66,124.72C126.11,122.69 127.79,120.77 128.47,118.31C128.94,119.22 129.41,120.12 129.89,121.02C131.83,120.08 133.43,118.48 134.24,116.47C133.38,114.59 132.17,112.9 131.04,111.18C135.82,111.05 139,106.32 143.99,107.26C143.8,107.73 143.43,108.67 143.24,109.15C150.52,108.16 156.36,102.16 158.43,95.29C159.37,95.35 160.3,95.34 161.24,95.25Z"/><path fill="#fcca36" fill-rule="nonzero" d="M333.31,96.7C334.42,96.94 335.56,97.08 336.69,96.79C337.4,97.94 338.11,99.11 338.82,100.27C340.53,100.42 342.24,100.58 343.95,100.74C341.18,108.02 337.05,114.93 331.04,120C323.72,126.26 315.94,133.36 305.86,134.22C307.83,130.65 311.8,130.21 315.13,128.64C313.83,127.9 312.53,127.18 311.22,126.47C312.84,122.97 313.5,119.15 314.38,115.42C315.15,112.88 313.56,110.48 312.85,108.13C313.62,108.82 314.39,109.52 315.16,110.21C315.31,109.32 315.43,108.42 315.64,107.55C316.45,107.17 317.26,106.78 318.03,106.32C318.04,106.84 318.07,107.88 318.08,108.39C318.96,107.6 319.86,106.8 320.71,105.96C320.9,106.49 321.28,107.56 321.48,108.09C322.2,106.81 322.93,105.52 323.65,104.23C323.9,105.47 324.16,106.7 324.42,107.95C326.49,104.58 330.24,102.84 332.51,99.57C332.77,98.62 333.04,97.66 333.31,96.7Z"/><path fill="#fccb39" fill-rule="nonzero" d="M207.2,103.32C211.06,103.71 214.69,105.17 218.1,106.96C218.66,106.63 219.8,105.97 220.36,105.64C221.08,105.58 222.52,105.45 223.23,105.39C222.01,106.48 220.79,107.58 219.55,108.65C219.47,109.28 219.33,110.52 219.25,111.14C220.46,110.13 221.62,109.03 223,108.26C228.32,109.89 232.59,113.53 236.44,117.39C241.03,119.52 239.4,125.21 240.44,129.23C241.89,129.51 243.61,129.21 244.83,130.16C246.83,132.89 245.97,136.45 246.5,139.58C247.65,145.33 248.22,151.21 250.5,156.68C251.62,156.57 252.73,156.47 253.85,156.38C253.81,157.37 253.77,158.37 253.73,159.36C252.44,160.08 249.73,159.87 249.96,161.97C250.26,166.95 248.62,172.58 251.51,177.02C250.13,176.7 248.75,176.4 247.37,176.1C247.12,177.47 246.89,178.85 246.65,180.22C246.28,180.37 245.55,180.65 245.18,180.8C245.45,182.85 245.72,184.91 245.97,186.97C245.47,186.15 244.97,185.34 244.47,184.53C243.65,185.17 242.84,185.81 242.03,186.45C236.22,163.83 228.51,140.98 214.1,122.27C213.22,116.06 205.93,114.8 202.79,110.05C203.82,109.02 204.84,107.99 205.87,106.97C205.27,106.04 204.66,105.12 204.06,104.21C205.1,103.9 206.15,103.6 207.2,103.32Z"/><path fill="#feca40" fill-rule="nonzero" d="M70.62,103.73C71.1,109.6 72.31,117.54 66.09,120.91C64.8,118.99 63.5,117.08 62.04,115.29C63.57,114.75 65.1,114.2 66.63,113.66C66.9,112.43 67.18,111.2 67.46,109.97C70.21,109.13 70.28,106.13 70.62,103.73Z"/><path fill="#e7931c" fill-rule="nonzero" d="M296.57,105.52C298.23,104.53 300.79,103.39 302.13,105.43C300.7,106.13 299.26,106.8 297.85,107.53C295.13,109.47 294.21,112.8 293.79,115.95C293.15,119.67 293.63,123.46 294.36,127.13C292.34,125.8 290.33,124.46 288.56,122.81C290.56,120.08 290.83,116.59 291.44,113.37C292.58,110.46 293.84,107.31 296.57,105.52Z"/><path fill="#f9c330" fill-rule="nonzero" d="M288.56,122.81C284.03,118.09 281.85,111.28 283.75,104.89C283.89,105.21 284.16,105.85 284.3,106.17C284.71,106.3 285.52,106.57 285.93,106.7C286.04,107.24 286.25,108.3 286.36,108.83C286.75,106.89 287.9,105.48 289.83,104.91C289.98,105.53 290.26,106.77 290.41,107.39C290.73,107.4 291.37,107.41 291.69,107.42C291.48,109.4 291.43,111.38 291.44,113.37C290.83,116.59 290.56,120.08 288.56,122.81Z"/><path fill="#c97723" fill-rule="nonzero" d="M155.14,113.48C165.13,107.21 177.43,105.77 188.91,107.71C198.77,109.31 207.11,115.45 214.1,122.27C228.51,140.98 236.22,163.83 242.03,186.45C243.28,194.17 244.87,202.06 243.67,209.89C242.99,213.25 240.86,217.22 236.98,217.35C233.43,217.79 230.39,215.54 227.49,213.85C219.68,207.25 215.07,197.9 208.53,190.2C205.04,186.07 201.39,181.97 196.87,178.94C196.48,178.7 195.71,178.21 195.32,177.97C192.41,175.84 189.24,174.01 185.7,173.17C178.7,170.4 171.46,172.93 164.95,175.71C160.04,178.25 155.79,181.91 151.94,185.84C146.24,191.97 142.01,199.22 137.21,206.03C134.3,209.54 130.97,212.83 126.97,215.07C122.41,216.68 117.99,214.15 116.18,209.91C114.79,203.46 116.02,196.97 116.69,190.53C119.43,180.04 121.47,169.34 125.18,159.14C128.65,148.75 133.27,138.75 139.19,129.52C141.43,126.91 143.56,124.2 145.59,121.41C148.84,118.85 151.8,115.94 155.14,113.48M170.1,109.66C156.55,112.21 145.63,122.31 138.87,133.93C129.56,148.54 124.75,165.44 120.71,182.14C119.02,189.91 116.89,197.81 117.54,205.83C118.07,208.68 118.69,212.58 121.99,213.46C126.45,214.58 130.1,210.93 132.9,207.99C140.02,199.96 144.51,189.86 152.63,182.66C156.59,178.77 160.86,174.97 166.1,172.92C171.61,169.96 178.06,170.42 184.09,170.65C191.47,172.15 197.77,176.71 203.29,181.64L203.18,181.9C213.77,190.5 218.52,204.32 229.36,212.69C231.75,214.55 234.9,216.34 238.01,215.33C240.66,214.47 241.44,211.46 241.93,209.04C243.06,200.49 240.96,192 239.48,183.64C234.93,167.13 229.27,150.83 221.13,135.72C215.21,125.04 206.24,115.4 194.49,111.28C186.75,108.3 178.19,108.33 170.1,109.66Z"/><path fill="#fae68e" fill-rule="nonzero" d="M297.85,107.53C299.98,107.49 302.11,107.51 304.24,107.68C304.05,110.3 304.08,113.14 302.24,115.23C299.59,118.26 302.06,123 298.98,125.84C298.5,125.68 297.54,125.36 297.06,125.2C296.31,123.78 295.57,122.36 294.87,120.92C294.5,119.26 294.11,117.61 293.79,115.95C294.21,112.8 295.13,109.47 297.85,107.53Z"/><path fill="#fddd70" fill-rule="nonzero" d="M304.24,107.68C305.97,108.35 308.47,109.67 306.98,111.86C304.53,117.69 304.67,124.2 302.14,129.99C299.95,129.2 297.67,128.56 295.71,127.29C295.07,125.23 295.12,123.04 294.87,120.92C295.57,122.36 296.31,123.78 297.06,125.2C297.54,125.36 298.5,125.68 298.98,125.84C302.06,123 299.59,118.26 302.24,115.23C304.08,113.14 304.05,110.3 304.24,107.68Z"/><path fill="#faf3ac" fill-rule="nonzero" d="M47.59,109.19C49.14,108.9 50.69,108.62 52.24,108.34C56.38,111.92 59.79,116.32 61.81,121.43C61.19,124.5 60.43,127.55 59.29,130.47C55.79,123.16 50.88,116.57 47.59,109.19Z"/><path fill="#860f00" fill-rule="nonzero" d="M170.1,109.66C178.19,108.33 186.75,108.3 194.49,111.28C206.24,115.4 215.21,125.04 221.13,135.72C229.27,150.83 234.93,167.13 239.48,183.64C240.96,192 243.06,200.49 241.93,209.04C241.44,211.46 240.66,214.47 238.01,215.33C234.9,216.34 231.75,214.55 229.36,212.69C218.52,204.32 213.77,190.5 203.18,181.9L203.29,181.64C204.29,179.09 205.56,176.63 206.31,173.99C206.23,170.98 205.62,168.01 205.48,165.01C205.3,157.65 201.33,151.19 200.06,144.05C198.68,139.63 196.94,133.83 191.97,132.45C186.81,134.13 184.95,140.1 182.5,144.45C181.38,146.27 180.02,149.33 177.37,148.59C175.12,146.97 172.98,145.02 171.59,142.6C169.91,139.18 169.28,134.24 164.97,133.13C159.84,131.23 155.37,135.91 153.09,139.98C149.54,147.07 146.89,154.93 147.36,162.96C147.63,168.41 146.63,174.14 148.61,179.37C149.16,181.23 151.08,181.86 152.63,182.66C144.51,189.86 140.02,199.96 132.9,207.99C130.1,210.93 126.45,214.58 121.99,213.46C118.69,212.58 118.07,208.68 117.54,205.83C116.89,197.81 119.02,189.91 120.71,182.14C124.75,165.44 129.56,148.54 138.87,133.93C145.63,122.31 156.55,112.21 170.1,109.66M228.2,208.19C227.49,210.18 230.04,210.47 231.19,211.37C231.43,210.77 231.91,209.56 232.14,208.95C231.56,207.29 229.46,208.02 228.2,208.19Z"/><path fill="#fcc94c" fill-rule="nonzero" d="M254.15,121.98C253.19,118.85 251.46,115.76 252.75,112.4C256.46,118.55 259.54,125.16 261.35,132.13C260.48,130.84 259.55,129.58 258.62,128.34C256.52,132.72 258.29,137.56 258.37,142.15C258.3,151.77 259.01,161.38 259.9,170.95C260.36,175.31 259.54,179.89 261.35,184.02C262.04,179.97 263.38,176.05 263.9,171.96C263.79,163.26 264.67,154.57 264.26,145.87C265.81,151.1 265.6,156.6 265.63,161.99C265.6,172.84 263.8,183.66 260.42,193.97C257.1,192.54 258.2,188.76 258.06,185.94C258.34,181.89 256.35,178.02 256.98,173.97C257.72,168.33 257.37,162.65 256.54,157.05C256.09,145.34 254.68,133.69 254.15,121.98Z"/><path fill="#ffc757" fill-rule="nonzero" d="M138.1,126.11C139.33,123.24 142.35,120.9 145.59,121.41C143.56,124.2 141.43,126.91 139.19,129.52C138.77,128.4 138.41,127.26 138.1,126.11Z"/><path fill="#fdd87c" fill-rule="nonzero" d="M106.13,123.31C106.94,124.1 107.67,125.03 107.67,126.23C108.3,131.78 109.18,137.46 107.87,142.99C106.59,148.45 106.64,154.09 105.81,159.62C104.14,168.01 106.07,177 102.53,185.03C100.75,179.49 99.69,173.71 99.79,167.88C100.46,168.6 101.12,169.32 101.78,170.04C102.7,164.19 102.17,158.27 102.59,152.39C102.77,149.21 103.76,145.82 102.13,142.84C101.39,143.53 100.65,144.22 99.91,144.91C101,137.46 103.44,130.31 106.13,123.31Z"/><path fill="#fcd776" fill-rule="nonzero" d="M258.37,142.15C258.29,137.56 256.52,132.72 258.62,128.34C259.55,129.58 260.48,130.84 261.35,132.13C262.78,136.14 263.59,140.33 263.92,144.57C262.09,142.29 261.7,139.33 260.41,136.77C259.3,142.23 261.88,147.53 261.26,153C260.73,159.95 261.58,166.87 262.39,173.76C262.89,173.15 263.39,172.56 263.9,171.96C263.38,176.05 262.04,179.97 261.35,184.02C259.54,179.89 260.36,175.31 259.9,170.95C259.01,161.38 258.3,151.77 258.37,142.15Z"/><path fill="#fee494" fill-rule="nonzero" d="M260.41,136.77C261.7,139.33 262.09,142.29 263.92,144.57C264,144.9 264.18,145.54 264.26,145.87C264.67,154.57 263.79,163.26 263.9,171.96C263.39,172.56 262.89,173.15 262.39,173.76C261.58,166.87 260.73,159.95 261.26,153C261.88,147.53 259.3,142.23 260.41,136.77Z"/><path fill="#fcedab" fill-rule="nonzero" d="M99.91,144.91C100.65,144.22 101.39,143.53 102.13,142.84C103.76,145.82 102.77,149.21 102.59,152.39C102.17,158.27 102.7,164.19 101.78,170.04C101.12,169.32 100.46,168.6 99.79,167.88C99.48,160.51 99.51,153.15 99.79,145.78L99.91,144.91Z"/><path fill="#f4c65a" fill-rule="nonzero" d="M99.86,180.08C98.29,168.73 97.37,157.08 99.79,145.78C99.51,153.15 99.48,160.51 99.79,167.88C99.69,173.71 100.75,179.49 102.53,185.03C106.07,177 104.14,168.01 105.81,159.62C107.64,170.41 104.91,181.15 105.23,191.97C104.32,191.27 103.41,190.58 102.49,189.89C101.68,186.6 100.42,183.43 99.86,180.08Z"/><path fill="#fdde6d" fill-rule="nonzero" d="M164.95,175.71C171.46,172.93 178.7,170.4 185.7,173.17C188.4,175.62 191.45,178.1 195.32,177.97C195.71,178.21 196.48,178.7 196.87,178.94C196.31,179.06 195.2,179.28 194.64,179.4C194.31,180.68 194.65,182.55 192.96,182.94C188.21,184.78 182.94,184.11 177.96,184.07C173.62,183.27 169.43,181.61 165.37,179.86C165.74,179.06 166.1,178.26 166.46,177.47C166.08,177.03 165.32,176.15 164.95,175.71Z"/><g fill="#fbd85d" fill-rule="nonzero"><path d="M185.7,173.17C189.24,174.01 192.41,175.84 195.32,177.97C191.45,178.1 188.4,175.62 185.7,173.17Z"/><path d="M151.94,185.84C155.79,181.91 160.04,178.25 164.95,175.71C165.32,176.15 166.08,177.03 166.46,177.47C166.1,178.26 165.74,179.06 165.37,179.86C169.43,181.61 173.62,183.27 177.96,184.07C182.94,184.11 188.21,184.78 192.96,182.94C194.65,182.55 194.31,180.68 194.64,179.4C195.2,179.28 196.31,179.06 196.87,178.94C201.39,181.97 205.04,186.07 208.53,190.2C208.29,190.9 207.81,192.3 207.58,192.99C205.29,193.5 204.42,190.47 202.28,190.37C201.22,190.24 200.16,190.14 199.1,190.08C199.24,190.63 199.53,191.75 199.68,192.3C201.12,192.68 202.56,193.06 204.01,193.44C201.54,196.4 198.04,198.07 194.26,198.58C194.77,199.54 195.28,200.49 195.8,201.46C193.5,201.1 191.26,200.46 188.97,200.06C185.6,199.85 182.36,201.15 179.01,201.17C176.05,201.13 173.58,199.23 170.78,198.58C168.6,198.18 165.71,199.04 164.42,196.68C162.73,195 162.64,192.71 163.18,190.55C161.1,190.3 158.96,190.77 156.91,190.28C155.1,188.98 153.57,187.35 151.94,185.84Z"/></g><path fill="#fcce44" fill-rule="nonzero" d="M137.21,206.03C142.01,199.22 146.24,191.97 151.94,185.84C153.57,187.35 155.1,188.98 156.91,190.28C158.96,190.77 161.1,190.3 163.18,190.55C162.64,192.71 162.73,195 164.42,196.68C165.71,199.04 168.6,198.18 170.78,198.58C173.58,199.23 176.05,201.13 179.01,201.17C182.36,201.15 185.6,199.85 188.97,200.06C191.26,200.46 193.5,201.1 195.8,201.46C195.28,200.49 194.77,199.54 194.26,198.58C198.04,198.07 201.54,196.4 204.01,193.44C202.56,193.06 201.12,192.68 199.68,192.3C199.53,191.75 199.24,190.63 199.1,190.08C200.16,190.14 201.22,190.24 202.28,190.37C204.42,190.47 205.29,193.5 207.58,192.99C207.81,192.3 208.29,190.9 208.53,190.2C215.07,197.9 219.68,207.25 227.49,213.85C224.54,213.57 221.62,212.46 218.66,212.67C215.9,214.19 213.71,216.71 210.63,217.64C207.96,218.29 205.14,217.83 202.48,218.52C199.96,219.63 197.78,221.77 194.84,221.55C194.1,222.15 193.38,222.77 192.66,223.39C185.95,222.24 179.3,224.94 172.56,223.77C172.27,223.19 171.68,222.04 171.39,221.46C167.18,221.78 164.79,217.75 160.93,217.2C159.8,217.94 158.84,218.9 157.84,219.8C156.34,217.71 156.03,215.12 155.23,212.74C154.42,211.74 153.15,213.14 152.15,213.28C149.33,210.84 147.21,207.75 145.94,204.26C144.79,205.01 143.67,205.82 142.56,206.64C142.08,206.25 141.59,205.89 141.08,205.56C139.85,206.11 138.54,206.33 137.21,206.03Z"/><path fill="#d2821a" fill-rule="nonzero" d="M104.82,197.48C105.51,197.66 106.88,198.02 107.57,198.2C107.65,203.41 107.59,208.64 108.43,213.8C108.75,215.58 109.13,217.36 109.6,219.12C110.03,220.81 110.64,222.44 111.39,224.02C112.53,225.47 113.73,226.88 114.98,228.25C116.28,229.15 117.88,230.04 119.51,229.43C123.12,227.77 125.41,224.32 128.39,221.82C129.36,221 130.38,220.22 131.38,219.44C132.31,219.6 133.22,219.81 134.14,220.03C131.42,222.29 128.54,224.37 126.02,226.87C128.8,232.06 134.23,234.82 138.85,238.11C151.71,246 166.86,250.45 181.99,249.91C196.91,250.45 211.44,245.59 224.34,238.4L225.26,239.77C218.28,244.4 210.32,247.71 202.14,249.52C197.08,250.22 192.05,251.24 186.95,251.64C180.57,252.32 174.2,251.18 167.83,250.9C151.38,248.59 136.15,240.55 124.13,229.2C121.43,231.21 117.45,232.99 114.42,230.57C108,225.84 106.72,217.45 105.95,210.05C105.53,207.07 106.31,203.68 104.35,201.12L104.43,200.52C104.53,199.76 104.72,198.24 104.82,197.48Z"/><path fill="#921723" fill-rule="nonzero" d="M228.2,208.19C229.46,208.02 231.56,207.29 232.14,208.95C231.91,209.56 231.43,210.77 231.19,211.37C230.04,210.47 227.49,210.18 228.2,208.19Z"/><path fill="#fcc040" fill-rule="nonzero" d="M116.18,209.91C117.99,214.15 122.41,216.68 126.97,215.07C125.19,215.92 123.4,216.76 121.71,217.77C124.66,219.51 128.08,219.47 131.38,219.44C130.38,220.22 129.36,221 128.39,221.82C125.78,220.76 123.04,220.09 120.28,219.55C116.74,218.91 113.94,216.22 110.29,215.96C110.11,216.75 109.77,218.33 109.6,219.12C109.13,217.36 108.75,215.58 108.43,213.8C110.45,213.68 112.44,214.1 114.44,214.3C116.31,213.74 115.77,211.38 116.18,209.91Z"/><path fill="#f9d667" fill-rule="nonzero" d="M110.29,215.96C113.94,216.22 116.74,218.91 120.28,219.55C123.04,220.09 125.78,220.76 128.39,221.82C125.41,224.32 123.12,227.77 119.51,229.43C117.88,230.04 116.28,229.15 114.98,228.25C116.9,228.04 118.84,227.94 120.74,227.53C121.57,226.4 122.11,225.08 122.76,223.85C119.53,222.8 116.19,222.15 112.84,221.57C112.48,222.19 111.75,223.41 111.39,224.02C110.64,222.44 110.03,220.81 109.6,219.12C109.77,218.33 110.11,216.75 110.29,215.96Z"/><path fill="#fbcf68" fill-rule="nonzero" d="M241.21,224.42C244.09,223.14 246.65,220.89 249.77,220.29C252.54,220.2 252.56,223.35 252.41,225.34C251.92,227.14 251.17,228.84 250.36,230.51C250.08,228.26 249.81,226.01 249.51,223.76C247.71,224.79 246.29,226.33 244.56,227.45C242.47,228.47 240.22,229.22 238.44,230.77C237.52,230.24 236.62,229.67 235.74,229.09C236.25,228.1 236.76,227.11 237.27,226.13C238.68,226.36 240.09,226.59 241.5,226.83C241.4,226.03 241.3,225.22 241.21,224.42Z"/><path fill="#f7e89b" fill-rule="nonzero" d="M244.56,227.45C246.29,226.33 247.71,224.79 249.51,223.76C249.81,226.01 250.08,228.26 250.36,230.51C249.26,231.96 247.9,233.64 245.88,233.56C243.2,233.39 240.79,231.96 238.44,230.77C240.22,229.22 242.47,228.47 244.56,227.45Z"/><path fill="#e2b77f" fill-rule="nonzero" d="M186.95,251.64C192.05,251.24 197.08,250.22 202.14,249.52C198.23,252.05 193.4,251.17 189.03,251.97C181.98,252.26 174.74,252.6 167.83,250.9C174.2,251.18 180.57,252.32 186.95,251.64Z"/></svg>