<?xml version="1.0" encoding="UTF-8" standalone="no"?>
<!DOCTYPE svg PUBLIC "-//W3C//DTD SVG 1.1//EN" "http://www.w3.org/Graphics/SVG/1.1/DTD/svg11.dtd">
<svg width="100%" height="100%" viewBox="0 0 1201 1091" version="1.1" xmlns="http://www.w3.org/2000/svg" xmlns:xlink="http://www.w3.org/1999/xlink" xml:space="preserve" xmlns:serif="http://www.serif.com/" style="fill-rule:evenodd;clip-rule:evenodd;">
    <g transform="matrix(1,0,0,1,0.184627,0.184627)">
        <g transform="matrix(1,0,0,0.908352,0,0)">
            <path d="M899.71,0L916.14,0C952.09,1.5 987.19,12.44 1018.89,29.17C1067.36,54.79 1108.72,93.05 1139.89,138C1176.9,191.29 1199.06,255.28 1200,320.34L1200,333.99C1199.15,353.53 1197.23,373.03 1193.79,392.29C928.88,392.37 663.97,392.3 399.06,392.33C393.13,392.28 387.21,392.43 381.29,392.23C283.22,291.32 185.13,190.42 87.03,89.55C99.6,76.17 113.53,64.04 128.56,53.48C170.55,23.77 221.04,7.4 272.07,2.99C315.58,-1.09 360.23,2.7 401.49,17.63C431.85,28.4 460.15,44.65 485.29,64.73C512.11,86.12 535.44,111.69 555.33,139.59C573.07,164.65 588.5,191.47 600.12,219.92C610.23,195.04 621.79,170.69 635.76,147.72C653.86,117.88 676.09,90.31 702.9,67.85C728.48,46.32 758.12,29.71 789.69,18.76C825,6.36 862.42,1.1 899.71,0Z" style="fill:rgb(20,20,20);fill-rule:nonzero;stroke:rgb(20,20,20);stroke-width:0.09px;"/>
        </g>
        <g transform="matrix(1,0,0,0.908352,0,0)">
            <path d="M9.48,240.86C22,185.02 47.61,131.42 87.03,89.55C185.13,190.42 283.22,291.32 381.29,392.23C448.65,461.46 515.99,530.73 583.31,600C516.02,669.27 448.68,738.5 381.36,807.75C354.18,835.65 327.09,863.65 299.88,891.52C275.46,864.75 251.28,837.74 228.32,809.69C178.43,748.93 132.71,684.6 93.79,616.24C70.94,575.91 50.47,534.15 34.1,490.76C15.26,440.67 1.67,388.03 0,334.31L0,318.78C0.74,292.59 3.67,266.43 9.48,240.86Z" style="fill:rgb(213,16,51);fill-rule:nonzero;stroke:rgb(213,16,51);stroke-width:0.09px;"/>
        </g>
        <g transform="matrix(1,0,0,0.908352,0,0)">
            <path d="M381.29,392.23C387.21,392.43 393.13,392.28 399.06,392.33C663.97,392.3 928.88,392.37 1193.79,392.29C1187.7,426.87 1177.88,460.72 1165.86,493.68C1150.61,535.37 1131.79,575.68 1110.82,614.78C1074.21,682.64 1031.32,747.05 983.68,807.64C854.78,807.66 725.89,807.64 596.99,807.65C525.11,807.71 453.24,807.52 381.36,807.75C448.68,738.5 516.02,669.27 583.31,600C515.99,530.73 448.65,461.46 381.29,392.23Z" style="fill:rgb(238,238,238);fill-rule:nonzero;stroke:rgb(238,238,238);stroke-width:0.09px;"/>
        </g>
        <g transform="matrix(1,0,0,0.908352,0,0)">
            <path d="M299.88,891.52C327.09,863.65 354.18,835.65 381.36,807.75C453.24,807.52 525.11,807.71 596.99,807.65C725.89,807.64 854.78,807.66 983.68,807.64C965.98,830.14 947.51,852.06 928.27,873.27C881.82,924.43 833.18,973.54 784.08,1022.15C727.71,1077.8 670.47,1132.57 612.6,1186.66C608.03,1191.17 602.92,1195.18 598.68,1200L598.05,1200C496.17,1099.64 396.22,997.24 299.88,891.52Z" style="fill:rgb(0,114,47);fill-rule:nonzero;stroke:rgb(0,114,47);stroke-width:0.09px;"/>
        </g>
    </g>
</svg>
