<svg width="72" height="62" viewBox="0 0 72 62" xmlns="http://www.w3.org/2000/svg" xmlns:xlink="http://www.w3.org/1999/xlink" version="1.1"><g id="1f1f5-1f1ed"><path id="Path" d="M72 54 C72 58.418 68.418 62 64 62 L8 62 C3.582 62 0 58.418 0 54 L0 18 C0 13.582 3.582 10 8 10 L64 10 C68.418 10 72 13.582 72 18 Z" fill="#ce1126" fill-opacity="1" stroke="none"/><path id="Path-1" d="M64 10 L8 10 C3.582 10 0 13.582 0 18 L0 36 72 36 72 18 C72 13.582 68.418 10 64 10 Z" fill="#0038a8" fill-opacity="1" stroke="none"/><path id="Path-2" d="M2.626 59.89 L38.062 36.128 2.66 12.082 C1.038 13.546 0 15.644 0 18 L0 54 C0 56.342 1.024 58.428 2.626 59.89 Z" fill="#eee" fill-opacity="1" stroke="none"/><path id="Path-3" d="M32.14 33.04 L32.226 35.346 34.456 35.934 32.29 36.726 32.42 39.03 30.996 37.214 28.846 38.048 30.132 36.134 28.672 34.348 30.892 34.98 Z M3.206 15.964 L4.938 17.49 6.898 16.276 5.982 18.394 7.742 19.884 5.446 19.668 4.572 21.8 4.07 19.55 1.768 19.378 3.754 18.206 Z M4.068 50.39 L5.216 52.39 7.464 51.876 5.916 53.584 7.104 55.562 5 54.618 3.486 56.36 3.732 54.064 1.61 53.164 3.866 52.688 Z M20 36 C20 39.314 17.314 42 14 42 10.686 42 8 39.312 8 36 8 32.686 10.686 30 14 30 17.314 30 20 32.686 20 36 Z" fill="#fcd116" fill-opacity="1" stroke="none"/><path id="Path-4" d="M15.19 25.194 L14.876 30.49 14.388 30.418 14.558 24.27 14 23.906 13.442 24.27 13.612 30.418 13.124 30.49 12.81 25.194 12.104 25.63 12.762 31.024 15.238 31.024 15.896 25.63 Z M12.81 46.806 L13.124 41.51 13.612 41.582 13.44 47.73 14 48.094 14.558 47.73 14.388 41.582 14.876 41.51 15.19 46.806 15.896 46.37 15.238 40.974 12.762 40.974 12.104 46.37 Z M5.516 42.798 L9.486 39.28 9.778 39.672 5.312 43.898 5.448 44.552 6.102 44.69 10.328 40.22 10.722 40.514 7.2 44.484 8.008 44.672 11.358 40.394 10.482 39.518 9.606 38.642 5.328 41.992 Z M22.484 29.2 L18.514 32.722 18.222 32.328 22.688 28.102 22.552 27.448 21.898 27.31 17.672 31.778 17.278 31.486 20.8 27.516 19.992 27.328 16.642 31.606 17.518 32.482 18.394 33.358 22.672 30.008 Z M3.194 34.81 L8.492 35.124 8.418 35.612 2.27 35.44 1.906 36 2.27 36.558 8.418 36.388 8.492 36.876 3.194 37.19 3.63 37.896 9.024 37.238 9.024 34.76 3.63 34.104 Z M24.806 37.19 L19.508 36.876 19.582 36.388 25.73 36.558 26.094 36 25.73 35.44 19.582 35.612 19.508 35.124 24.806 34.81 24.37 34.104 18.974 34.76 18.974 37.238 24.37 37.896 Z M7.2 27.516 L10.722 31.486 10.328 31.778 6.102 27.31 5.448 27.448 5.312 28.102 9.778 32.328 9.486 32.722 5.516 29.2 5.328 30.008 9.606 33.358 10.482 32.482 11.358 31.606 8.008 27.328 Z M20.8 44.484 L17.278 40.514 17.672 40.22 21.898 44.69 22.552 44.552 22.688 43.898 18.222 39.672 18.514 39.28 22.484 42.798 22.672 41.992 18.394 38.642 17.518 39.518 16.642 40.394 19.992 44.672 Z" fill="#fcd116" fill-opacity="1" stroke="none"/></g><g id="fire"><path id="Path-5" d="M72 20.054 C72 17.878 71.613 15.791 70.902 13.86 70.417 19.549 67.384 22.471 64.215 21.11 61.246 19.835 63.247 14.864 63.395 12.492 63.644 8.471 63.382 3.869 56.078 0.042 59.113 5.848 56.43 9.455 53.615 9.675 50.493 9.918 47.633 6.991 48.689 2.241 45.271 4.76 45.171 8.999 46.226 11.741 47.326 14.6 46.182 16.975 43.499 17.239 40.501 17.535 38.836 14.029 40.372 8.443 37.713 11.573 36.109 15.626 36.109 20.054 36.109 29.966 44.143 38 54.054 38 63.966 38 72 29.966 72 20.054 Z" fill="#f4900c" fill-opacity="1" stroke="none"/><path id="Path-6" d="M65.027 25.332 C65.183 28.587 62.323 29.863 60.784 29.247 58.561 28.357 59.157 26.828 58.585 23.662 58.013 20.495 55.814 18.296 52.56 17.328 54.935 24.013 51.243 26.477 49.308 26.917 47.332 27.367 45.347 26.916 45.12 22.687 42.814 24.982 41.387 28.157 41.387 31.666 41.387 32.055 41.411 32.437 41.445 32.817 44.686 36.02 49.137 38 54.054 38 58.972 38 63.423 36.02 66.664 32.817 66.698 32.437 66.722 32.055 66.722 31.666 66.722 29.358 66.105 27.195 65.027 25.332 Z" fill="#ffcc4d" fill-opacity="1" stroke="none"/></g></svg>