<svg xmlns="http://www.w3.org/2000/svg" viewBox="0 -0.5 60 49" shape-rendering="crispEdges">
<metadata>Made with Pixels to Svg https://codepen.io/shshaw/pen/XbxvNj</metadata>
<path stroke="#202020" d="M33 0h14M33 1h14M9 2h9M31 2h18M9 3h9M31 3h18M4 4h16M29 4h2M40 4h4M47 4h2M4 5h16M29 5h2M40 5h4M47 5h2M4 6h16M29 6h2M40 6h4M47 6h2M2 7h11M18 7h6M27 7h11M42 7h2M47 7h2M2 8h11M18 8h6M27 8h11M42 8h2M47 8h2M2 9h2M7 9h4M16 9h2M24 9h3M38 9h2M42 9h5M2 10h2M7 10h4M16 10h2M24 10h3M38 10h2M42 10h5M4 11h5M13 11h3M18 11h4M29 11h7M40 11h4M4 12h5M13 12h3M18 12h4M29 12h7M40 12h4M7 13h2M11 13h2M16 13h2M20 13h11M33 13h5M40 13h2M7 14h2M11 14h2M16 14h2M20 14h11M33 14h5M40 14h2M7 15h2M11 15h2M16 15h2M20 15h11M33 15h5M40 15h2M7 16h2M11 16h31M7 17h2M11 17h31M9 18h7M27 18h6M40 18h4M9 19h7M27 19h6M40 19h4M11 20h2M33 20h5M44 20h5M11 21h2M33 21h5M44 21h5M9 22h2M38 22h4M49 22h2M9 23h2M38 23h4M49 23h2M9 24h2M38 24h4M49 24h2M7 25h4M42 25h2M51 25h5M7 26h4M42 26h2M51 26h5M4 27h3M9 27h2M44 27h3M49 27h2M56 27h2M4 28h3M9 28h2M44 28h3M49 28h2M56 28h2M2 29h2M9 29h2M47 29h2M58 29h2M2 30h2M9 30h2M47 30h2M58 30h2M2 31h2M9 31h2M31 31h5M40 31h2M47 31h4M58 31h2M2 32h2M9 32h2M31 32h5M40 32h2M47 32h4M58 32h2M0 33h11M36 33h4M47 33h11M0 34h11M36 34h4M47 34h11M0 35h11M36 35h4M47 35h11M0 36h2M9 36h4M33 36h3M40 36h2M44 36h3M49 36h2M0 37h2M9 37h4M33 37h3M40 37h2M44 37h3M49 37h2M0 38h2M9 38h4M31 38h2M44 38h3M49 38h2M0 39h2M9 39h4M31 39h2M44 39h3M49 39h2M0 40h2M7 40h4M13 40h3M42 40h2M47 40h2M0 41h2M7 41h4M13 41h3M42 41h2M47 41h2M2 42h5M16 42h2M42 42h5M2 43h5M16 43h2M42 43h5M2 44h5M16 44h2M42 44h5M18 45h4M36 45h6M18 46h4M36 46h6M22 47h14M22 48h14" />
<path stroke="#f8a8a8" d="M31 4h9M31 5h9M31 6h9M13 7h5M38 7h2M13 8h5M38 8h2M11 9h5M11 10h5M11 11h2M11 12h2M33 18h7M33 19h7M38 20h6M38 21h6M7 27h2M42 27h2M47 27h2M51 27h5M7 28h2M42 28h2M47 28h2M51 28h5M7 29h2M44 29h3M49 29h9M7 30h2M44 30h3M49 30h9M7 31h2M11 31h2M44 31h3M51 31h7M7 32h2M11 32h2M44 32h3M51 32h7M11 33h5M44 33h3M11 34h5M44 34h3M11 35h5M44 35h3M2 36h7M13 36h7M36 36h2M42 36h2M2 37h7M13 37h7M36 37h2M42 37h2M2 38h7M13 38h11M33 38h11M2 39h7M13 39h11M33 39h11M2 40h5M16 40h26M2 41h5M16 41h26M18 42h22M18 43h22M18 44h22M22 45h14M22 46h14" />
<path stroke="#687878" d="M44 4h3M44 5h3M44 6h3M44 7h3M44 8h3M4 9h3M4 10h3" />
<path stroke="#c87868" d="M40 7h2M40 8h2M22 9h2M40 9h2M22 10h2M40 10h2M9 11h2M9 12h2M9 13h2M9 14h2M9 15h2M9 16h2M9 17h2M11 22h2M11 23h2M11 24h2M38 31h2M38 32h2M38 36h2M47 36h2M38 37h2M47 37h2M47 38h2M47 39h2M44 40h3M44 41h3M40 42h2M40 43h2M40 44h2" />
<path stroke="#f8d8d8" d="M18 9h4M27 9h11M18 10h4M27 10h11M16 11h2M22 11h7M36 11h4M16 12h2M22 12h7M36 12h4M13 13h3M38 13h2M13 14h3M38 14h2M13 15h3M38 15h2M16 18h11M16 19h11M13 20h20M13 21h20M13 22h25M42 22h7M13 23h25M42 23h7M13 24h25M42 24h7M11 25h31M44 25h7M11 26h31M44 26h7M11 27h31M11 28h31M4 29h3M11 29h33M4 30h3M11 30h33M4 31h3M13 31h18M36 31h2M42 31h2M4 32h3M13 32h18M36 32h2M42 32h2M16 33h20M40 33h4M16 34h20M40 34h4M16 35h20M40 35h4M20 36h13M20 37h13M24 38h7M24 39h7" />
<path stroke="#f8f8f8" d="M18 13h2M31 13h2M18 14h2M31 14h2M18 15h2M31 15h2" />
</svg>