<?xml version="1.0" encoding="UTF-8" ?>
<!DOCTYPE svg PUBLIC "-//W3C//DTD SVG 1.1//EN" "http://www.w3.org/Graphics/SVG/1.1/DTD/svg11.dtd">
<svg width="512pt" height="512pt" viewBox="0 0 512 512" version="1.1" xmlns="http://www.w3.org/2000/svg">
<g id="#f48f0bff">
<path fill="#f48f0b" opacity="1.00" d=" M 398.72 20.11 C 417.80 30.77 434.33 48.56 438.20 70.68 C 440.23 78.98 439.40 87.56 439.58 96.02 C 439.86 107.16 436.58 117.98 435.44 128.98 C 435.39 137.11 433.97 146.53 439.85 153.15 C 446.62 160.49 459.41 160.54 466.52 153.56 C 471.31 149.64 474.02 143.97 476.63 138.51 C 480.26 130.34 481.45 121.37 483.05 112.64 C 485.65 117.68 486.29 123.37 486.99 128.91 C 489.80 145.08 488.84 161.69 485.85 177.77 C 484.30 184.77 481.45 191.39 479.49 198.28 C 479.46 198.36 479.38 198.50 479.35 198.57 C 475.62 203.49 474.42 209.75 470.75 214.72 C 467.91 220.38 463.57 224.98 459.73 229.95 C 458.49 224.81 459.48 219.48 458.57 214.29 C 456.98 203.67 454.32 193.00 449.15 183.52 C 449.26 190.01 448.19 196.79 444.12 202.05 C 440.27 207.26 433.78 211.08 427.15 209.71 C 420.88 208.10 415.93 202.41 415.21 195.97 C 413.18 182.30 413.82 167.63 406.78 155.23 C 400.92 143.81 390.12 135.41 377.97 131.56 C 379.82 138.56 381.99 145.62 381.98 152.93 C 381.94 159.40 382.49 166.08 380.25 172.29 C 377.32 181.82 370.17 190.27 360.60 193.55 C 355.30 195.33 348.77 195.74 344.33 191.75 C 337.07 185.62 336.28 175.22 335.81 166.37 C 319.78 183.46 313.36 207.65 313.79 230.65 C 309.17 224.96 304.62 219.17 301.26 212.62 C 294.96 200.87 289.61 188.50 286.87 175.39 C 285.07 162.99 283.34 150.39 285.04 137.87 C 286.07 130.20 286.51 122.36 289.12 115.00 C 292.82 101.43 298.59 88.33 306.89 76.92 C 306.49 82.28 305.07 87.55 305.37 92.96 C 305.64 101.31 304.29 110.02 307.58 117.96 C 309.58 122.61 312.14 127.79 317.16 129.75 C 323.33 133.20 331.13 131.41 336.66 127.54 C 340.53 123.98 343.44 119.19 344.33 113.96 C 344.77 108.32 344.88 102.43 342.77 97.08 C 341.33 93.57 340.34 89.91 339.88 86.15 C 340.14 80.67 338.22 75.36 338.87 69.89 C 339.61 56.46 345.25 43.03 355.60 34.19 C 353.41 46.50 354.20 59.97 361.18 70.71 C 364.63 75.81 369.77 80.04 375.86 81.45 C 379.92 81.78 384.04 81.80 388.10 81.43 C 393.39 80.23 397.74 76.23 400.45 71.66 C 409.81 55.74 405.88 36.06 398.72 20.11 Z" />
</g>
<g id="#ffffffff">
<path fill="#ffffff" opacity="1.00" d=" M 25.34 80.30 C 35.68 73.05 48.57 70.62 60.99 70.57 C 153.51 70.65 246.03 70.50 338.55 70.64 C 338.21 75.88 339.03 81.01 339.88 86.15 C 340.34 89.91 341.33 93.57 342.77 97.08 C 344.88 102.43 344.77 108.32 344.33 113.96 C 343.44 119.19 340.53 123.98 336.66 127.54 C 331.13 131.41 323.33 133.20 317.16 129.75 C 312.14 127.79 309.58 122.61 307.58 117.96 C 304.29 110.02 305.64 101.31 305.37 92.96 C 305.07 87.55 306.49 82.28 306.89 76.92 C 298.59 88.33 292.82 101.43 289.12 115.00 C 286.51 122.36 286.07 130.20 285.04 137.87 C 283.34 150.39 285.07 162.99 286.87 175.39 C 289.61 188.50 294.96 200.87 301.26 212.62 C 304.62 219.17 309.17 224.96 313.79 230.65 C 319.95 237.04 326.12 243.57 333.47 248.62 C 337.01 251.21 341.96 252.23 344.05 256.43 C 345.60 256.81 347.18 257.13 348.71 257.61 C 348.20 257.62 347.17 257.64 346.65 257.65 C 344.83 258.36 342.91 258.61 340.98 258.54 C 227.32 258.21 113.66 257.84 0.00 257.50 L 0.00 123.63 C 0.79 106.21 10.90 89.83 25.34 80.30 Z" />
<path fill="#ffffff" opacity="1.00" d=" M 361.18 70.71 C 374.28 70.49 387.39 70.55 400.49 70.67 L 400.45 71.66 C 397.74 76.23 393.39 80.23 388.10 81.43 C 384.04 81.80 379.92 81.78 375.86 81.45 C 369.77 80.04 364.63 75.81 361.18 70.71 Z" />
<path fill="#ffffff" opacity="1.00" d=" M 438.20 70.68 C 445.81 70.63 453.47 70.17 461.04 71.27 C 487.45 73.09 510.19 96.34 512.00 122.66 L 512.00 258.50 C 484.66 258.41 457.32 258.66 429.99 258.90 C 427.06 258.91 424.14 258.82 421.24 258.52 C 422.47 256.52 424.63 256.64 426.70 256.83 C 431.85 252.80 437.98 250.26 443.04 246.11 C 448.89 241.02 455.19 236.34 459.73 229.95 C 463.57 224.98 467.91 220.38 470.75 214.72 C 474.42 209.75 475.62 203.49 479.35 198.57 C 479.38 198.50 479.46 198.36 479.49 198.28 C 481.45 191.39 484.30 184.77 485.85 177.77 C 488.84 161.69 489.80 145.08 486.99 128.91 C 486.29 123.37 485.65 117.68 483.05 112.64 C 481.45 121.37 480.26 130.34 476.63 138.51 C 474.02 143.97 471.31 149.64 466.52 153.56 C 459.41 160.54 446.62 160.49 439.85 153.15 C 433.97 146.53 435.39 137.11 435.44 128.98 C 436.58 117.98 439.86 107.16 439.58 96.02 C 439.40 87.56 440.23 78.98 438.20 70.68 Z" />
</g>
<g id="#fecb4cff">
<path fill="#fecb4c" opacity="1.00" d=" M 377.97 131.56 C 390.12 135.41 400.92 143.81 406.78 155.23 C 413.82 167.63 413.18 182.30 415.21 195.97 C 415.93 202.41 420.88 208.10 427.15 209.71 C 433.78 211.08 440.27 207.26 444.12 202.05 C 448.19 196.79 449.26 190.01 449.15 183.52 C 454.32 193.00 456.98 203.67 458.57 214.29 C 459.48 219.48 458.49 224.81 459.73 229.95 C 455.19 236.34 448.89 241.02 443.04 246.11 C 437.98 250.26 431.85 252.80 426.70 256.83 C 424.63 256.64 422.47 256.52 421.24 258.52 C 411.83 263.24 401.20 264.46 390.89 265.77 C 384.81 266.75 378.80 265.09 372.78 264.51 C 364.42 263.58 356.51 260.60 348.71 257.61 C 347.18 257.13 345.60 256.81 344.05 256.43 C 341.96 252.23 337.01 251.21 333.47 248.62 C 326.12 243.57 319.95 237.04 313.79 230.65 C 313.36 207.65 319.78 183.46 335.81 166.37 C 336.28 175.22 337.07 185.62 344.33 191.75 C 348.77 195.74 355.30 195.33 360.60 193.55 C 370.17 190.27 377.32 181.82 380.25 172.29 C 382.49 166.08 381.94 159.40 381.98 152.93 C 381.99 145.62 379.82 138.56 377.97 131.56 Z" />
<path fill="#fecb4c" opacity="1.00" d=" M 479.35 198.57 C 479.38 198.50 479.46 198.36 479.49 198.28 C 479.46 198.36 479.38 198.50 479.35 198.57 Z" />
</g>
<g id="#ed1f24ff">
<path fill="#ed1f24" opacity="1.00" d=" M 0.00 257.50 C 113.66 257.84 227.32 258.21 340.98 258.54 C 342.91 258.61 344.83 258.36 346.65 257.65 C 347.17 257.64 348.20 257.62 348.71 257.61 C 356.51 260.60 364.42 263.58 372.78 264.51 C 378.80 265.09 384.81 266.75 390.89 265.77 C 401.20 264.46 411.83 263.24 421.24 258.52 C 424.14 258.82 427.06 258.91 429.99 258.90 C 457.32 258.66 484.66 258.41 512.00 258.50 L 512.00 389.65 C 510.66 405.83 501.68 421.08 488.49 430.47 C 478.95 437.64 466.94 441.13 455.08 441.16 C 322.38 441.15 189.68 441.15 56.98 441.16 C 44.64 441.19 32.19 437.23 22.41 429.63 C 9.79 420.25 1.36 405.38 0.00 389.69 L 0.00 257.50 Z" />
</g>
</svg>
