<?xml version="1.0" encoding="UTF-8" ?>
<!DOCTYPE svg PUBLIC "-//W3C//DTD SVG 1.1//EN" "http://www.w3.org/Graphics/SVG/1.1/DTD/svg11.dtd">
<svg width="459pt" height="307pt" viewBox="0 0 459 307" version="1.1" xmlns="http://www.w3.org/2000/svg">
<g id="#ffffffff">
<path fill="#ffffff" opacity="1.00" d=" M 175.72 3.76 C 177.65 2.69 180.04 0.56 182.31 1.75 C 187.68 6.82 190.70 13.83 195.49 19.37 C 198.55 20.38 201.85 19.93 205.03 19.96 C 219.39 19.42 233.86 20.65 248.12 18.38 C 255.81 17.37 263.44 15.95 271.10 14.72 C 282.71 13.42 294.49 12.93 306.12 14.24 C 311.22 14.74 316.02 16.78 321.12 17.19 C 323.79 16.90 326.43 15.61 329.13 16.50 C 333.55 17.62 337.98 18.86 342.58 18.89 C 341.11 16.59 339.03 14.81 337.10 12.92 C 338.77 11.35 341.11 9.16 343.57 10.60 C 346.72 12.32 349.74 15.25 350.01 19.02 C 349.91 21.09 349.13 23.73 346.93 24.42 C 343.04 25.32 339.03 24.53 335.08 24.75 C 338.02 31.61 342.55 37.77 344.42 45.08 C 347.32 56.63 345.52 68.63 343.66 80.20 C 342.84 85.12 343.94 90.01 344.52 94.88 C 345.49 107.51 343.41 120.11 343.19 132.73 C 345.99 133.17 349.16 132.51 351.66 134.13 C 352.07 135.53 351.72 137.00 351.63 138.42 C 376.72 138.49 401.85 139.68 426.91 138.26 C 428.87 136.48 430.99 133.75 434.00 134.59 C 438.05 136.10 440.40 140.15 442.12 143.89 C 447.62 156.53 449.15 170.38 451.12 183.90 C 453.21 197.50 452.91 211.29 453.37 225.00 C 453.58 252.34 453.67 279.67 453.84 307.00 L 5.81 307.00 C 6.15 268.02 6.57 229.03 7.51 190.06 C 7.78 178.63 11.34 167.63 12.59 156.32 C 9.76 152.89 6.88 148.82 7.33 144.12 C 7.73 141.78 8.36 138.78 10.84 137.81 C 13.62 136.72 16.86 135.77 19.71 137.21 C 24.00 139.49 28.39 136.13 32.82 136.34 C 35.07 137.55 37.35 138.89 40.03 138.60 C 65.33 139.19 90.65 138.82 115.96 138.52 C 127.22 138.14 138.55 139.13 149.77 138.46 C 142.41 138.03 134.96 138.59 127.56 138.38 C 127.30 137.26 127.11 136.13 126.98 134.99 C 128.44 133.17 130.93 133.44 133.00 133.23 C 146.67 132.56 160.37 133.38 174.03 132.58 C 175.93 132.28 178.11 131.99 179.15 130.11 C 186.93 119.25 191.39 106.16 192.95 92.96 C 192.27 88.16 190.75 82.79 186.88 79.60 C 178.41 78.78 170.39 83.59 161.88 82.84 C 155.50 81.87 149.57 78.95 143.11 78.34 C 139.95 77.75 136.07 78.11 133.79 75.40 C 130.99 72.03 128.75 68.11 127.57 63.87 C 127.02 61.32 126.67 57.70 129.37 56.23 C 133.95 55.13 139.46 56.82 143.29 53.30 C 148.01 49.17 152.88 44.33 154.75 38.20 C 151.47 32.60 145.84 27.99 145.19 21.14 C 144.83 16.62 145.03 11.59 147.77 7.77 C 148.68 6.45 151.01 4.89 152.06 6.93 C 156.20 12.73 162.70 16.14 168.99 19.13 C 170.47 13.80 170.38 6.95 175.72 3.76 M 174.55 7.42 C 172.03 11.06 172.36 15.74 170.72 19.72 C 169.14 22.01 166.49 20.28 164.65 19.32 C 159.28 16.26 153.56 13.12 150.15 7.76 C 146.79 12.19 146.43 18.23 147.73 23.47 C 149.39 28.64 153.64 32.37 156.38 36.93 C 157.48 38.77 156.08 40.82 155.27 42.47 C 152.18 47.47 148.31 52.08 143.57 55.61 C 139.54 58.50 134.33 57.55 129.69 57.95 C 128.07 63.64 131.59 68.97 134.73 73.40 C 136.54 76.18 140.21 75.80 143.06 76.27 C 149.91 76.81 156.12 80.13 162.90 80.94 C 170.46 80.91 177.56 77.67 185.09 77.31 C 188.13 77.04 190.30 79.56 191.53 82.03 C 193.61 86.30 195.68 91.08 194.70 95.93 C 192.50 108.60 188.26 121.17 180.56 131.60 C 179.30 133.37 177.29 134.68 175.06 134.57 C 161.71 135.40 148.32 134.64 134.96 135.13 C 132.75 135.28 130.41 135.21 128.39 136.26 C 135.43 137.73 142.70 136.82 149.82 137.75 C 149.80 138.18 149.77 139.03 149.75 139.45 C 144.35 139.54 138.96 140.11 133.55 140.00 C 129.34 139.95 125.16 140.61 120.95 140.57 C 94.65 140.76 68.33 141.18 42.03 140.68 C 38.71 140.51 34.82 140.94 32.37 138.21 C 31.65 138.27 30.93 138.34 30.21 138.41 C 29.83 138.62 29.06 139.06 28.68 139.28 C 26.12 139.68 23.56 140.08 20.99 140.39 C 19.65 139.50 18.29 138.62 16.92 137.77 C 18.09 139.39 19.63 140.93 19.77 143.05 C 18.46 145.35 17.23 147.73 15.51 149.76 C 15.26 150.85 15.02 151.96 14.77 153.05 C 14.53 160.60 12.70 167.94 11.18 175.29 C 10.97 176.69 10.70 178.09 10.63 179.51 C 9.26 186.37 8.71 193.50 9.20 200.49 C 8.63 235.66 8.06 270.83 7.83 306.00 C 155.83 305.98 303.84 305.98 451.84 306.00 C 451.43 273.45 451.93 240.89 450.89 208.37 C 450.98 201.96 450.47 195.57 449.82 189.21 C 449.58 186.16 449.03 183.14 448.67 180.11 C 447.40 171.52 446.05 162.94 443.91 154.52 C 442.33 149.54 440.82 144.39 437.79 140.07 C 436.17 137.90 433.33 135.38 430.60 137.32 C 429.76 138.26 429.02 139.27 428.27 140.27 C 421.85 140.87 415.40 140.85 408.97 140.93 C 388.12 140.83 367.25 141.08 346.43 140.05 C 341.33 140.35 336.05 138.95 331.08 140.12 L 334.11 137.94 L 331.85 137.89 L 331.01 137.60 C 337.50 136.70 344.12 137.69 350.56 136.36 C 348.30 133.87 344.50 135.74 341.70 134.38 C 341.32 133.30 341.14 132.18 341.17 131.04 C 341.60 118.24 343.75 105.39 342.23 92.59 C 341.02 86.97 341.18 81.16 342.34 75.55 C 344.27 63.25 345.51 49.86 339.73 38.36 C 337.94 34.05 335.00 30.32 333.35 25.94 C 332.50 24.69 333.70 23.11 334.98 22.90 C 338.95 21.99 343.30 23.85 347.09 22.07 C 349.94 17.75 344.64 11.38 339.94 12.45 C 341.21 13.74 342.48 15.03 343.56 16.49 C 344.18 18.08 344.39 20.71 342.11 20.94 C 337.31 20.95 332.72 19.36 328.08 18.33 C 325.65 17.59 323.45 19.55 321.05 19.29 C 315.65 18.69 310.53 16.63 305.11 16.13 C 293.80 14.99 282.36 15.43 271.08 16.74 C 261.41 18.37 251.74 20.10 241.98 21.19 C 228.69 22.46 215.33 21.42 202.00 22.01 C 199.07 21.85 195.31 22.62 193.22 20.01 C 189.14 14.41 185.77 8.28 181.08 3.14 C 178.75 4.30 176.29 5.44 174.55 7.42 M 9.54 143.01 C 8.40 147.56 11.36 151.69 14.18 154.93 C 14.50 153.34 14.84 151.76 15.19 150.18 C 11.43 147.46 11.93 142.57 12.72 138.57 C 11.27 139.71 9.82 141.08 9.54 143.01 M 14.74 140.32 C 13.93 142.69 14.14 145.18 14.98 147.50 C 16.10 145.61 17.08 143.65 17.85 141.59 C 16.81 141.16 15.79 140.69 14.74 140.32 Z" />
<path fill="#ffffff" opacity="1.00" d=" M 273.94 98.33 C 281.20 97.38 287.86 93.66 295.17 93.03 C 299.65 95.05 300.34 100.71 299.97 105.04 C 298.96 113.67 293.88 121.03 289.37 128.20 C 288.32 129.78 288.31 131.71 288.06 133.51 C 289.30 133.50 291.80 133.48 293.04 133.47 L 292.62 132.59 C 295.05 131.46 297.84 130.79 299.87 128.96 C 302.70 123.59 303.63 117.46 306.33 112.03 C 307.87 108.22 310.46 105.00 312.52 101.47 C 314.32 98.52 314.95 95.03 316.82 92.11 C 321.71 93.72 325.70 97.13 329.30 100.68 C 333.70 104.74 334.95 111.15 334.50 116.90 C 334.09 122.29 333.12 127.85 330.40 132.59 C 328.83 135.16 325.54 134.72 322.98 134.89 C 312.34 134.82 301.67 135.40 291.06 134.39 C 276.16 135.19 261.15 135.44 246.24 134.43 C 247.33 129.68 248.01 124.53 245.69 120.01 C 241.72 112.10 238.08 103.89 236.01 95.27 C 241.64 94.63 247.10 96.61 252.57 97.62 C 259.59 98.91 266.85 99.50 273.94 98.33 M 277.51 99.73 C 271.72 100.95 265.74 101.30 259.86 100.65 C 252.54 100.17 245.55 97.75 238.28 96.92 C 240.88 104.05 243.29 111.29 246.95 117.97 C 249.38 122.43 249.80 127.67 248.76 132.59 C 261.15 133.19 273.61 133.30 285.99 132.55 C 286.56 126.53 291.49 122.37 293.77 117.01 C 297.30 110.46 300.65 101.22 295.02 94.86 C 289.06 96.01 283.37 98.19 277.51 99.73 M 317.64 94.40 C 316.35 98.79 314.30 102.91 311.63 106.62 C 306.97 113.19 305.38 121.19 302.38 128.52 C 301.70 130.77 299.40 131.71 297.67 133.00 C 306.45 132.85 315.24 133.04 324.02 132.80 C 325.91 132.63 328.53 132.72 329.30 130.52 C 331.91 124.46 333.04 117.67 332.34 111.11 C 331.29 103.12 324.08 98.12 317.64 94.40 Z" />
<path fill="#ffffff" opacity="1.00" d=" M 211.00 103.00 C 213.15 100.90 214.80 97.57 217.94 96.95 C 221.48 98.99 223.93 102.36 226.43 105.50 C 230.38 110.91 234.35 116.32 237.93 122.00 C 240.85 125.91 238.22 131.53 234.58 134.01 L 234.67 134.32 C 223.15 135.20 211.60 134.80 200.06 134.98 C 197.46 134.97 194.84 135.20 192.27 134.76 C 192.76 130.57 195.18 126.67 196.73 122.72 C 200.25 115.34 206.12 109.47 211.00 103.00 M 217.52 98.93 C 212.19 104.16 207.83 110.26 203.19 116.08 C 199.13 121.03 196.93 127.11 194.63 132.99 C 206.81 132.70 219.02 133.34 231.17 132.31 C 236.24 132.64 238.99 125.52 235.58 122.04 C 229.94 114.09 225.04 105.30 217.52 98.93 Z" />
<path fill="#ffffff" opacity="1.00" d=" M 162.57 137.65 C 169.36 137.79 176.15 137.66 182.94 137.69 C 216.28 136.79 249.65 137.14 283.00 137.28 C 294.38 138.10 305.79 137.51 317.19 137.76 C 317.24 138.03 317.34 138.57 317.39 138.83 L 317.03 138.71 C 313.87 137.40 310.37 138.15 307.06 137.99 C 300.55 138.23 294.00 137.52 287.53 138.38 C 276.36 138.81 265.17 138.48 254.00 138.37 C 234.33 138.37 214.66 138.36 194.99 138.39 C 193.30 138.36 191.63 138.15 189.96 138.01 C 180.97 137.97 171.98 138.02 162.99 137.99 L 162.97 139.00 C 171.95 138.95 180.93 139.11 189.90 138.92 C 206.24 138.24 222.65 138.83 239.01 138.55 C 246.38 138.81 253.77 138.33 261.13 138.85 L 261.37 138.97 C 259.26 139.64 257.03 139.64 254.84 139.65 C 237.54 139.60 220.24 139.53 202.93 139.45 C 189.38 139.51 175.82 138.74 162.27 139.30 C 162.34 138.89 162.50 138.06 162.57 137.65 Z" />
</g>
<g id="#000000ff">
<path fill="#000000" opacity="1.00" d=" M 174.55 7.42 C 176.29 5.44 178.75 4.30 181.08 3.14 C 185.77 8.28 189.14 14.41 193.22 20.01 C 195.31 22.62 199.07 21.85 202.00 22.01 C 215.33 21.42 228.69 22.46 241.98 21.19 C 251.74 20.10 261.41 18.37 271.08 16.74 C 282.36 15.43 293.80 14.99 305.11 16.13 C 310.53 16.63 315.65 18.69 321.05 19.29 C 323.45 19.55 325.65 17.59 328.08 18.33 C 332.72 19.36 337.31 20.95 342.11 20.94 C 344.39 20.71 344.18 18.08 343.56 16.49 C 342.48 15.03 341.21 13.74 339.94 12.45 C 344.64 11.38 349.94 17.75 347.09 22.07 C 343.30 23.85 338.95 21.99 334.98 22.90 C 333.70 23.11 332.50 24.69 333.35 25.94 C 335.00 30.32 337.94 34.05 339.73 38.36 C 345.51 49.86 344.27 63.25 342.34 75.55 C 341.18 81.16 341.02 86.97 342.23 92.59 C 343.75 105.39 341.60 118.24 341.17 131.04 C 341.14 132.18 341.32 133.30 341.70 134.38 C 344.50 135.74 348.30 133.87 350.56 136.36 C 344.12 137.69 337.50 136.70 331.01 137.60 L 331.85 137.89 L 330.90 137.88 C 328.88 140.36 325.62 140.69 322.65 140.76 C 320.99 140.70 319.34 140.55 317.69 140.40 L 317.39 138.83 C 317.34 138.57 317.24 138.03 317.19 137.76 C 305.79 137.51 294.38 138.10 283.00 137.28 C 249.65 137.14 216.28 136.79 182.94 137.69 C 176.15 137.66 169.36 137.79 162.57 137.65 C 162.50 138.06 162.34 138.89 162.27 139.30 C 160.30 139.95 158.37 140.70 156.40 141.35 C 152.77 141.68 148.78 140.01 145.47 142.12 C 144.65 142.35 143.85 142.62 143.05 142.86 C 140.10 141.30 136.89 140.24 133.55 140.00 C 138.96 140.11 144.35 139.54 149.75 139.45 C 149.77 139.03 149.80 138.18 149.82 137.75 C 142.70 136.82 135.43 137.73 128.39 136.26 C 130.41 135.21 132.75 135.28 134.96 135.13 C 148.32 134.64 161.71 135.40 175.06 134.57 C 177.29 134.68 179.30 133.37 180.56 131.60 C 188.26 121.17 192.50 108.60 194.70 95.93 C 195.68 91.08 193.61 86.30 191.53 82.03 C 190.30 79.56 188.13 77.04 185.09 77.31 C 177.56 77.67 170.46 80.91 162.90 80.94 C 156.12 80.13 149.91 76.81 143.06 76.27 C 140.21 75.80 136.54 76.18 134.73 73.40 C 131.59 68.97 128.07 63.64 129.69 57.95 C 134.33 57.55 139.54 58.50 143.57 55.61 C 148.31 52.08 152.18 47.47 155.27 42.47 C 156.08 40.82 157.48 38.77 156.38 36.93 C 153.64 32.37 149.39 28.64 147.73 23.47 C 146.43 18.23 146.79 12.19 150.15 7.76 C 153.56 13.12 159.28 16.26 164.65 19.32 C 166.49 20.28 169.14 22.01 170.72 19.72 C 172.36 15.74 172.03 11.06 174.55 7.42 M 273.94 98.33 C 266.85 99.50 259.59 98.91 252.57 97.62 C 247.10 96.61 241.64 94.63 236.01 95.27 C 238.08 103.89 241.72 112.10 245.69 120.01 C 248.01 124.53 247.33 129.68 246.24 134.43 C 261.15 135.44 276.16 135.19 291.06 134.39 C 301.67 135.40 312.34 134.82 322.98 134.89 C 325.54 134.72 328.83 135.16 330.40 132.59 C 333.12 127.85 334.09 122.29 334.50 116.90 C 334.95 111.15 333.70 104.74 329.30 100.68 C 325.70 97.13 321.71 93.72 316.82 92.11 C 314.95 95.03 314.32 98.52 312.52 101.47 C 310.46 105.00 307.87 108.22 306.33 112.03 C 303.63 117.46 302.70 123.59 299.87 128.96 C 297.84 130.79 295.05 131.46 292.62 132.59 L 293.04 133.47 C 291.80 133.48 289.30 133.50 288.06 133.51 C 288.31 131.71 288.32 129.78 289.37 128.20 C 293.88 121.03 298.96 113.67 299.97 105.04 C 300.34 100.71 299.65 95.05 295.17 93.03 C 287.86 93.66 281.20 97.38 273.94 98.33 M 211.00 103.00 C 206.12 109.47 200.25 115.34 196.73 122.72 C 195.18 126.67 192.76 130.57 192.27 134.76 C 194.84 135.20 197.46 134.97 200.06 134.98 C 211.60 134.80 223.15 135.20 234.67 134.32 L 234.58 134.01 C 238.22 131.53 240.85 125.91 237.93 122.00 C 234.35 116.32 230.38 110.91 226.43 105.50 C 223.93 102.36 221.48 98.99 217.94 96.95 C 214.80 97.57 213.15 100.90 211.00 103.00 Z" />
</g>
<g id="#283032ff">
<path fill="#283032" opacity="1.00" d=" M 430.60 137.32 C 433.33 135.38 436.17 137.90 437.79 140.07 C 440.82 144.39 442.33 149.54 443.91 154.52 C 443.55 155.15 442.84 156.41 442.48 157.04 C 441.57 154.28 440.40 151.61 438.91 149.12 C 438.29 150.00 437.68 150.88 437.09 151.78 C 434.59 150.30 431.71 150.78 428.98 150.93 C 424.72 151.21 420.40 149.77 416.22 151.05 C 411.62 152.38 406.87 153.51 402.06 152.97 C 393.66 152.22 385.39 150.19 376.93 150.22 C 365.61 150.27 354.29 150.37 342.97 150.23 C 337.49 150.05 331.71 152.32 326.53 149.60 C 324.37 150.22 322.22 150.86 320.06 151.50 C 322.84 151.81 325.63 152.13 328.41 152.52 C 319.60 154.88 310.83 151.27 301.96 151.85 C 290.29 152.56 278.59 151.95 266.92 152.46 C 254.49 153.63 241.55 156.26 229.30 152.60 C 234.13 151.76 239.70 152.32 243.38 148.44 C 239.55 148.51 235.79 149.22 232.11 150.22 C 226.85 151.78 221.41 150.17 216.07 150.23 C 207.47 149.83 198.98 151.80 190.39 151.36 C 188.83 150.62 187.31 149.82 185.78 149.02 C 190.91 148.16 196.34 148.09 200.96 145.42 C 202.58 146.01 204.20 146.61 205.82 147.21 C 205.21 145.98 204.62 144.74 204.02 143.51 C 215.70 143.49 227.39 143.39 239.07 143.56 C 244.15 143.31 249.33 143.65 254.32 142.42 C 254.09 142.14 253.62 141.59 253.39 141.31 C 250.32 140.57 247.10 141.05 243.97 141.01 C 230.28 140.96 216.58 141.07 202.88 140.94 L 202.93 139.45 C 220.24 139.53 237.54 139.60 254.84 139.65 C 254.94 140.91 255.04 142.17 255.15 143.43 C 258.38 143.45 261.61 143.50 264.85 143.65 C 264.76 142.63 264.64 141.61 264.55 140.60 C 263.48 140.07 262.42 139.52 261.37 138.97 L 261.13 138.85 C 270.37 138.79 279.61 138.86 288.86 138.75 C 291.12 138.94 293.40 139.02 295.68 139.08 C 300.04 139.37 304.40 139.72 308.78 139.76 L 308.83 141.02 C 294.57 141.19 280.27 140.32 266.04 141.37 L 265.16 141.32 C 266.53 142.71 267.30 145.08 269.45 145.42 C 274.29 146.15 279.20 145.57 284.07 145.93 C 292.25 146.58 300.44 144.98 308.18 142.44 L 308.88 142.23 C 308.97 142.70 309.15 143.65 309.24 144.12 C 311.44 143.45 313.57 142.53 315.53 141.33 C 315.42 141.90 315.20 143.06 315.09 143.64 C 320.40 143.66 325.86 143.59 330.77 141.26 C 328.07 141.03 325.36 140.87 322.65 140.76 C 325.62 140.69 328.88 140.36 330.90 137.88 L 331.85 137.89 L 334.11 137.94 L 331.08 140.12 C 331.06 140.82 331.02 142.23 331.00 142.93 C 332.27 143.23 333.57 143.41 334.88 143.51 C 340.23 143.49 345.56 144.02 350.90 144.07 C 355.65 144.17 360.23 142.43 364.98 142.55 C 378.24 144.59 391.73 143.93 405.11 143.87 C 405.64 143.45 406.17 143.04 406.71 142.63 C 411.97 145.88 418.10 142.68 423.80 143.51 C 427.80 143.54 433.39 146.00 435.37 140.97 C 434.68 140.92 433.32 140.82 432.64 140.78 C 433.08 139.56 433.53 138.34 433.98 137.12 C 433.14 137.17 431.45 137.27 430.60 137.32 Z" />
</g>
<g id="#464644ff">
<path fill="#464644" opacity="1.00" d=" M 30.21 138.41 C 30.93 138.34 31.65 138.27 32.37 138.21 C 34.82 140.94 38.71 140.51 42.03 140.68 C 68.33 141.18 94.65 140.76 120.95 140.57 C 125.16 140.61 129.34 139.95 133.55 140.00 C 136.89 140.24 140.10 141.30 143.05 142.86 C 135.26 145.40 127.03 143.58 119.05 143.48 C 110.68 143.39 102.30 143.31 93.93 143.51 C 84.06 144.15 74.13 144.78 64.25 143.79 C 59.82 143.33 55.38 143.70 50.96 144.13 C 43.57 144.89 36.14 143.04 28.77 144.26 C 29.52 142.58 30.31 140.92 30.99 139.22 L 30.21 138.41 Z" />
</g>
<g id="#474947ff">
<path fill="#474947" opacity="1.00" d=" M 428.27 140.27 C 429.02 139.27 429.76 138.26 430.60 137.32 C 431.45 137.27 433.14 137.17 433.98 137.12 C 433.53 138.34 433.08 139.56 432.64 140.78 C 433.32 140.82 434.68 140.92 435.37 140.97 C 433.39 146.00 427.80 143.54 423.80 143.51 C 418.10 142.68 411.97 145.88 406.71 142.63 C 406.17 143.04 405.64 143.45 405.11 143.87 C 391.73 143.93 378.24 144.59 364.98 142.55 C 360.23 142.43 355.65 144.17 350.90 144.07 C 345.56 144.02 340.23 143.49 334.88 143.51 C 337.79 140.17 342.40 140.36 346.43 140.05 C 367.25 141.08 388.12 140.83 408.97 140.93 C 415.40 140.85 421.85 140.87 428.27 140.27 Z" />
</g>
<g id="#313733ff">
<path fill="#313733" opacity="1.00" d=" M 16.92 137.77 C 18.29 138.62 19.65 139.50 20.99 140.39 C 23.56 140.08 26.12 139.68 28.68 139.28 C 26.52 143.64 24.81 148.22 23.48 152.90 C 21.69 149.85 20.33 146.55 19.77 143.05 C 19.63 140.93 18.09 139.39 16.92 137.77 Z" />
</g>
<g id="#080c0bff">
<path fill="#080c0b" opacity="1.00" d=" M 28.68 139.28 C 29.06 139.06 29.83 138.62 30.21 138.41 L 30.99 139.22 C 30.31 140.92 29.52 142.58 28.77 144.26 C 27.92 146.21 27.15 148.22 26.84 150.34 C 26.37 154.22 25.94 158.32 22.81 161.08 C 22.93 158.35 23.06 155.61 23.48 152.90 C 24.81 148.22 26.52 143.64 28.68 139.28 Z" />
</g>
<g id="#505a59ff">
<path fill="#505a59" opacity="1.00" d=" M 295.68 139.08 C 302.79 138.90 309.92 139.28 317.03 138.71 L 317.39 138.83 L 317.69 140.40 C 319.34 140.55 320.99 140.70 322.65 140.76 C 325.36 140.87 328.07 141.03 330.77 141.26 C 325.86 143.59 320.40 143.66 315.09 143.64 C 315.20 143.06 315.42 141.90 315.53 141.33 L 315.87 139.76 C 313.50 139.77 311.14 139.79 308.78 139.76 C 304.40 139.72 300.04 139.37 295.68 139.08 Z" />
<path fill="#505a59" opacity="1.00" d=" M 145.47 142.12 C 148.78 140.01 152.77 141.68 156.40 141.35 C 158.13 141.33 159.85 141.30 161.57 141.25 C 161.38 141.90 160.99 143.19 160.79 143.83 C 155.65 143.57 150.56 142.82 145.47 142.12 Z" />
</g>
<g id="#0b0b0bff">
<path fill="#0b0b0b" opacity="1.00" d=" M 9.54 143.01 C 9.82 141.08 11.27 139.71 12.72 138.57 C 11.93 142.57 11.43 147.46 15.19 150.18 C 14.84 151.76 14.50 153.34 14.18 154.93 C 11.36 151.69 8.40 147.56 9.54 143.01 Z" />
</g>
<g id="#0f1417ff">
<path fill="#0f1417" opacity="1.00" d=" M 156.40 141.35 C 158.37 140.70 160.30 139.95 162.27 139.30 C 175.82 138.74 189.38 139.51 202.93 139.45 L 202.88 140.94 C 202.85 141.58 202.80 142.87 202.78 143.52 C 189.42 143.48 175.97 145.14 162.68 143.38 C 162.31 142.67 161.94 141.96 161.57 141.25 C 159.85 141.30 158.13 141.33 156.40 141.35 M 194.54 141.05 C 194.65 142.48 195.29 142.74 196.46 141.83 C 196.35 140.40 195.70 140.14 194.54 141.05 Z" />
</g>
<g id="#101518ff">
<path fill="#101518" opacity="1.00" d=" M 254.84 139.65 C 257.03 139.64 259.26 139.64 261.37 138.97 C 262.42 139.52 263.48 140.07 264.55 140.60 C 264.64 141.61 264.76 142.63 264.85 143.65 C 261.61 143.50 258.38 143.45 255.15 143.43 C 255.04 142.17 254.94 140.91 254.84 139.65 Z" />
</g>
<g id="#0c1210ff">
<path fill="#0c1210" opacity="1.00" d=" M 308.78 139.76 C 311.14 139.79 313.50 139.77 315.87 139.76 L 315.53 141.33 C 313.57 142.53 311.44 143.45 309.24 144.12 C 309.15 143.65 308.97 142.70 308.88 142.23 L 308.83 141.02 L 308.78 139.76 Z" />
</g>
<g id="#0d1615ff">
<path fill="#0d1615" opacity="1.00" d=" M 331.08 140.12 C 336.05 138.95 341.33 140.35 346.43 140.05 C 342.40 140.36 337.79 140.17 334.88 143.51 C 333.57 143.41 332.27 143.23 331.00 142.93 C 331.02 142.23 331.06 140.82 331.08 140.12 Z" />
</g>
<g id="#232a29ff">
<path fill="#232a29" opacity="1.00" d=" M 161.57 141.25 C 161.94 141.96 162.31 142.67 162.68 143.38 C 175.97 145.14 189.42 143.48 202.78 143.52 L 204.02 143.51 C 204.62 144.74 205.21 145.98 205.82 147.21 C 204.20 146.61 202.58 146.01 200.96 145.42 C 196.34 148.09 190.91 148.16 185.78 149.02 C 187.31 149.82 188.83 150.62 190.39 151.36 C 185.99 151.98 181.57 153.19 177.09 152.51 C 170.81 151.62 164.49 150.69 158.13 151.07 C 154.90 151.25 152.07 152.98 148.96 153.62 C 144.99 153.89 141.11 152.78 137.20 152.31 C 129.77 151.08 122.35 153.59 114.91 152.51 C 104.32 151.16 93.64 153.61 83.08 151.91 C 78.37 151.15 73.68 152.15 69.00 152.56 C 64.62 153.09 60.68 150.50 56.36 150.48 C 52.87 150.41 49.38 150.37 45.91 150.05 C 42.49 149.57 39.33 151.25 36.01 151.66 C 34.32 151.49 32.68 151.08 31.03 150.70 C 30.82 151.33 30.41 152.60 30.20 153.24 C 29.13 152.21 27.99 151.27 26.84 150.34 C 27.15 148.22 27.92 146.21 28.77 144.26 C 36.14 143.04 43.57 144.89 50.96 144.13 C 55.38 143.70 59.82 143.33 64.25 143.79 C 74.13 144.78 84.06 144.15 93.93 143.51 C 102.30 143.31 110.68 143.39 119.05 143.48 C 127.03 143.58 135.26 145.40 143.05 142.86 C 143.85 142.62 144.65 142.35 145.47 142.12 C 150.56 142.82 155.65 143.57 160.79 143.83 C 160.99 143.19 161.38 141.90 161.57 141.25 Z" />
</g>
<g id="#363b3eff">
<path fill="#363b3e" opacity="1.00" d=" M 194.54 141.05 C 195.70 140.14 196.35 140.40 196.46 141.83 C 195.29 142.74 194.65 142.48 194.54 141.05 Z" />
</g>
<g id="#515555ff">
<path fill="#515555" opacity="1.00" d=" M 202.88 140.94 C 216.58 141.07 230.28 140.96 243.97 141.01 C 247.10 141.05 250.32 140.57 253.39 141.31 C 253.62 141.59 254.09 142.14 254.32 142.42 C 249.33 143.65 244.15 143.31 239.07 143.56 C 227.39 143.39 215.70 143.49 204.02 143.51 L 202.78 143.52 C 202.80 142.87 202.85 141.58 202.88 140.94 Z" />
</g>
<g id="#3d4142ff">
<path fill="#3d4142" opacity="1.00" d=" M 265.16 141.32 L 266.04 141.37 C 269.66 142.09 273.33 142.71 277.05 142.51 C 287.42 142.18 297.81 142.39 308.18 142.44 C 300.44 144.98 292.25 146.58 284.07 145.93 C 279.20 145.57 274.29 146.15 269.45 145.42 C 267.30 145.08 266.53 142.71 265.16 141.32 Z" />
</g>
<g id="#595d5dff">
<path fill="#595d5d" opacity="1.00" d=" M 266.04 141.37 C 280.27 140.32 294.57 141.19 308.83 141.02 L 308.88 142.23 L 308.18 142.44 C 297.81 142.39 287.42 142.18 277.05 142.51 C 273.33 142.71 269.66 142.09 266.04 141.37 Z" />
</g>
<g id="#141e22ff">
<path fill="#141e22" opacity="1.00" d=" M 15.51 149.76 C 17.23 147.73 18.46 145.35 19.77 143.05 C 20.33 146.55 21.69 149.85 23.48 152.90 C 23.06 155.61 22.93 158.35 22.81 161.08 C 25.94 158.32 26.37 154.22 26.84 150.34 C 27.99 151.27 29.13 152.21 30.20 153.24 C 30.41 152.60 30.82 151.33 31.03 150.70 C 32.68 151.08 34.32 151.49 36.01 151.66 C 39.33 151.25 42.49 149.57 45.91 150.05 C 49.38 150.37 52.87 150.41 56.36 150.48 C 60.68 150.50 64.62 153.09 69.00 152.56 C 73.68 152.15 78.37 151.15 83.08 151.91 C 93.64 153.61 104.32 151.16 114.91 152.51 C 122.35 153.59 129.77 151.08 137.20 152.31 C 141.11 152.78 144.99 153.89 148.96 153.62 C 152.07 152.98 154.90 151.25 158.13 151.07 C 164.49 150.69 170.81 151.62 177.09 152.51 C 181.57 153.19 185.99 151.98 190.39 151.36 C 198.98 151.80 207.47 149.83 216.07 150.23 C 221.41 150.17 226.85 151.78 232.11 150.22 C 235.79 149.22 239.55 148.51 243.38 148.44 C 239.70 152.32 234.13 151.76 229.30 152.60 C 241.55 156.26 254.49 153.63 266.92 152.46 C 278.59 151.95 290.29 152.56 301.96 151.85 C 310.83 151.27 319.60 154.88 328.41 152.52 C 325.63 152.13 322.84 151.81 320.06 151.50 C 322.22 150.86 324.37 150.22 326.53 149.60 C 331.71 152.32 337.49 150.05 342.97 150.23 C 354.29 150.37 365.61 150.27 376.93 150.22 C 385.39 150.19 393.66 152.22 402.06 152.97 C 406.87 153.51 411.62 152.38 416.22 151.05 C 420.40 149.77 424.72 151.21 428.98 150.93 C 431.71 150.78 434.59 150.30 437.09 151.78 C 437.68 150.88 438.29 150.00 438.91 149.12 C 440.40 151.61 441.57 154.28 442.48 157.04 C 442.84 156.41 443.55 155.15 443.91 154.52 C 446.05 162.94 447.40 171.52 448.67 180.11 C 447.41 179.32 446.16 178.53 444.91 177.74 C 444.82 177.25 444.65 176.26 444.56 175.77 C 443.69 171.40 442.93 167.00 441.59 162.75 C 439.26 161.49 436.61 161.04 433.99 161.09 C 418.32 161.54 402.66 160.01 387.00 160.99 C 379.68 161.58 372.38 160.43 365.06 160.89 C 357.70 161.30 350.35 160.49 342.99 160.72 C 293.66 160.52 244.32 160.67 194.99 160.65 C 168.00 160.71 141.01 160.65 114.03 161.11 C 99.68 160.16 85.35 161.47 71.01 161.58 C 61.85 161.39 53.45 165.80 44.33 166.09 C 42.62 165.47 40.96 164.53 39.12 164.44 C 36.89 164.72 34.82 165.64 32.71 166.35 C 30.59 164.87 28.48 163.38 26.36 161.89 C 24.09 165.72 22.79 170.00 22.07 174.37 C 21.99 174.77 21.84 175.57 21.76 175.97 C 20.54 182.87 20.89 189.92 19.86 196.84 C 19.24 196.83 18.01 196.82 17.39 196.82 C 18.82 189.99 19.39 183.02 19.74 176.06 C 19.30 177.92 18.87 179.77 18.43 181.63 C 17.88 177.20 17.58 172.74 17.83 168.27 C 16.66 169.63 15.49 170.99 14.25 172.28 C 14.22 170.21 14.19 168.13 14.16 166.05 C 14.62 166.70 15.08 167.35 15.54 168.01 C 14.99 164.24 16.75 160.94 19.30 158.32 C 18.15 156.28 16.61 154.50 14.77 153.05 C 15.02 151.96 15.26 150.85 15.51 149.76 Z" />
</g>
<g id="#080d10ff">
<path fill="#080d10" opacity="1.00" d=" M 14.77 153.05 C 16.61 154.50 18.15 156.28 19.30 158.32 C 16.75 160.94 14.99 164.24 15.54 168.01 C 15.08 167.35 14.62 166.70 14.16 166.05 C 14.19 168.13 14.22 170.21 14.25 172.28 C 13.25 173.31 12.21 174.30 11.18 175.29 C 12.70 167.94 14.53 160.60 14.77 153.05 Z" />
</g>
<g id="#39424eff">
<path fill="#39424e" opacity="1.00" d=" M 71.01 161.58 C 85.35 161.47 99.68 160.16 114.03 161.11 C 141.01 160.65 168.00 160.71 194.99 160.65 C 244.32 160.67 293.66 160.52 342.99 160.72 C 350.35 160.49 357.70 161.30 365.06 160.89 C 372.38 160.43 379.68 161.58 387.00 160.99 C 402.66 160.01 418.32 161.54 433.99 161.09 C 436.61 161.04 439.26 161.49 441.59 162.75 C 427.05 163.70 412.51 162.49 397.97 162.77 C 372.88 162.88 347.80 162.51 322.72 162.57 C 272.32 162.37 221.91 162.18 171.51 162.46 C 167.32 162.17 163.14 161.82 158.94 161.94 C 135.40 162.50 111.85 161.70 88.31 162.35 C 83.25 162.37 78.97 165.57 74.00 166.10 C 68.81 166.85 62.55 167.28 59.90 172.61 C 49.21 174.64 38.25 173.28 27.43 173.54 C 26.62 172.45 25.81 171.36 24.99 170.28 C 24.70 170.68 24.12 171.48 23.83 171.88 C 23.39 172.50 22.51 173.75 22.07 174.37 C 22.79 170.00 24.09 165.72 26.36 161.89 C 28.48 163.38 30.59 164.87 32.71 166.35 C 34.82 165.64 36.89 164.72 39.12 164.44 C 40.96 164.53 42.62 165.47 44.33 166.09 C 53.45 165.80 61.85 161.39 71.01 161.58 Z" />
<path fill="#39424e" opacity="1.00" d=" M 60.94 227.13 C 63.95 226.74 66.99 226.58 70.02 226.74 C 82.68 227.39 95.36 226.47 108.01 227.43 C 120.65 228.33 133.32 227.73 145.96 228.08 C 168.26 229.56 190.61 228.54 212.93 229.26 C 214.99 229.23 217.06 229.49 218.92 230.46 C 216.61 231.42 214.13 231.83 211.64 231.71 C 195.13 230.64 178.56 231.20 162.03 230.96 C 153.67 230.79 145.34 229.98 136.99 230.00 C 127.33 229.98 117.66 230.28 108.02 229.42 C 93.00 228.31 77.87 229.84 62.88 228.56 C 62.39 228.20 61.42 227.49 60.94 227.13 Z" />
</g>
<g id="#57616dff">
<path fill="#57616d" opacity="1.00" d=" M 88.31 162.35 C 111.85 161.70 135.40 162.50 158.94 161.94 C 163.14 161.82 167.32 162.17 171.51 162.46 C 168.01 162.78 164.52 163.17 161.00 163.12 C 149.14 162.95 137.27 163.29 125.40 163.31 C 124.61 164.20 123.81 165.09 123.02 165.99 C 120.75 165.34 118.42 164.30 116.01 164.90 C 106.09 166.89 95.98 168.00 85.87 168.28 C 83.60 168.43 81.37 168.96 79.14 169.37 C 81.20 170.53 83.28 171.66 85.37 172.79 C 78.45 174.39 71.31 173.61 64.31 174.45 C 52.01 175.29 39.67 175.30 27.35 175.21 C 27.10 175.91 26.60 177.30 26.36 178.00 C 25.48 175.97 24.60 173.95 23.83 171.88 C 24.12 171.48 24.70 170.68 24.99 170.28 C 25.81 171.36 26.62 172.45 27.43 173.54 C 38.25 173.28 49.21 174.64 59.90 172.61 C 62.55 167.28 68.81 166.85 74.00 166.10 C 78.97 165.57 83.25 162.37 88.31 162.35 Z" />
</g>
<g id="#67727eff">
<path fill="#67727e" opacity="1.00" d=" M 125.40 163.31 C 137.27 163.29 149.14 162.95 161.00 163.12 C 164.52 163.17 168.01 162.78 171.51 162.46 C 221.91 162.18 272.32 162.37 322.72 162.57 C 323.71 163.25 324.70 163.94 325.70 164.62 C 324.34 164.97 322.99 165.33 321.64 165.68 C 327.03 166.92 332.57 166.60 338.04 167.08 C 347.04 167.91 356.03 165.89 365.02 167.04 C 373.34 168.02 381.71 166.98 390.05 167.26 C 395.37 167.50 400.62 166.28 405.94 166.52 C 411.44 166.79 416.98 166.37 422.45 167.19 C 426.30 167.76 430.17 167.00 434.04 167.19 C 435.92 167.08 437.04 168.77 438.36 169.81 C 440.60 171.60 442.87 173.42 444.56 175.77 C 444.65 176.26 444.82 177.25 444.91 177.74 C 444.97 178.25 445.08 179.25 445.13 179.75 C 445.09 180.35 445.00 181.56 444.95 182.17 C 443.82 178.56 441.95 175.26 440.04 172.02 C 438.74 173.02 437.43 174.02 436.14 175.03 C 431.25 174.85 426.40 174.06 421.51 173.88 C 415.62 173.86 409.75 174.62 403.97 175.68 C 396.97 177.01 389.86 175.79 382.80 175.93 C 377.76 176.07 372.72 175.63 367.68 175.76 C 354.14 176.54 340.57 176.61 327.01 176.32 C 318.02 176.72 309.03 176.23 300.03 176.27 C 294.03 175.97 288.02 175.45 282.03 176.17 C 272.65 177.23 263.34 175.42 253.99 175.15 C 244.69 174.24 235.36 173.79 226.03 173.30 C 216.68 173.70 207.33 173.09 197.97 173.21 C 190.99 173.27 184.06 172.34 177.27 170.76 C 167.72 174.28 157.75 170.55 148.00 170.50 C 144.35 170.54 140.73 169.95 137.23 168.93 C 131.87 170.97 126.10 170.40 120.49 170.32 C 120.27 171.65 120.05 172.99 119.82 174.33 C 114.65 174.28 109.37 172.74 104.27 174.20 C 101.70 174.95 99.04 175.34 96.36 175.45 C 99.02 177.20 101.60 179.70 105.02 179.58 C 111.36 179.67 117.70 179.55 124.04 179.73 C 138.09 178.94 151.98 182.03 166.02 181.88 C 174.76 182.51 183.58 182.02 192.25 183.50 C 188.13 184.08 183.98 184.38 179.84 184.62 C 187.53 188.55 196.35 187.41 204.66 187.54 C 210.10 187.36 215.52 188.62 220.96 187.88 C 227.24 187.00 233.42 188.80 239.64 189.38 C 252.12 189.59 264.51 191.92 277.03 191.29 C 294.70 191.37 312.37 191.88 330.03 191.91 C 338.16 191.87 346.29 190.62 354.40 191.59 C 359.93 191.54 365.48 191.37 370.99 192.05 C 386.86 193.55 403.06 190.39 418.71 194.29 C 425.35 195.90 432.10 193.94 438.81 194.43 C 439.23 194.84 440.08 195.67 440.50 196.09 C 433.26 196.17 426.02 196.06 418.78 196.27 C 407.55 195.21 396.27 195.63 385.01 195.63 C 373.67 195.73 362.34 195.40 351.01 195.59 C 344.69 195.70 338.41 196.63 332.09 196.57 C 304.73 196.50 277.37 196.72 250.01 196.87 C 241.03 197.58 232.02 197.86 223.03 198.32 C 210.09 200.13 196.99 198.96 183.99 198.80 C 176.53 199.38 169.05 199.83 161.56 199.69 C 150.21 197.46 138.43 200.53 127.24 197.23 C 132.50 195.30 138.17 196.14 143.63 195.47 C 149.69 194.74 155.80 195.05 161.85 195.72 C 162.53 195.40 163.22 195.07 163.90 194.75 C 169.08 195.12 173.99 193.35 178.85 191.85 C 177.88 192.76 176.90 193.67 175.93 194.59 C 178.71 194.62 181.50 194.64 184.28 194.58 C 181.87 192.74 179.26 190.77 176.04 191.08 C 167.22 191.28 158.79 188.08 149.98 188.13 C 138.94 188.40 128.03 186.46 117.00 186.46 C 111.21 186.44 105.28 186.66 99.76 184.61 C 99.03 185.11 98.31 185.60 97.59 186.10 C 97.50 185.05 97.41 184.00 97.33 182.95 C 92.98 181.62 88.45 181.66 83.96 181.72 C 73.09 179.68 61.97 180.09 50.98 179.22 C 46.60 178.74 42.39 180.12 38.20 181.15 C 35.10 181.95 32.05 180.54 29.13 179.65 C 28.76 180.49 28.39 181.32 28.02 182.16 C 26.48 181.87 24.94 181.59 23.40 181.30 C 23.42 183.17 23.42 185.03 23.40 186.90 C 21.27 183.65 21.36 179.68 21.76 175.97 C 21.84 175.57 21.99 174.77 22.07 174.37 C 22.51 173.75 23.39 172.50 23.83 171.88 C 24.60 173.95 25.48 175.97 26.36 178.00 C 26.60 177.30 27.10 175.91 27.35 175.21 C 39.67 175.30 52.01 175.29 64.31 174.45 C 71.31 173.61 78.45 174.39 85.37 172.79 C 83.28 171.66 81.20 170.53 79.14 169.37 C 81.37 168.96 83.60 168.43 85.87 168.28 C 95.98 168.00 106.09 166.89 116.01 164.90 C 118.42 164.30 120.75 165.34 123.02 165.99 C 123.81 165.09 124.61 164.20 125.40 163.31 Z" />
</g>
<g id="#556170ff">
<path fill="#556170" opacity="1.00" d=" M 322.72 162.57 C 347.80 162.51 372.88 162.88 397.97 162.77 C 412.51 162.49 427.05 163.70 441.59 162.75 C 442.93 167.00 443.69 171.40 444.56 175.77 C 442.87 173.42 440.60 171.60 438.36 169.81 C 437.04 168.77 435.92 167.08 434.04 167.19 C 430.17 167.00 426.30 167.76 422.45 167.19 C 416.98 166.37 411.44 166.79 405.94 166.52 C 400.62 166.28 395.37 167.50 390.05 167.26 C 381.71 166.98 373.34 168.02 365.02 167.04 C 356.03 165.89 347.04 167.91 338.04 167.08 C 332.57 166.60 327.03 166.92 321.64 165.68 C 322.99 165.33 324.34 164.97 325.70 164.62 C 324.70 163.94 323.71 163.25 322.72 162.57 Z" />
</g>
<g id="#222d33ff">
<path fill="#222d33" opacity="1.00" d=" M 14.25 172.28 C 15.49 170.99 16.66 169.63 17.83 168.27 C 17.58 172.74 17.88 177.20 18.43 181.63 C 18.87 179.77 19.30 177.92 19.74 176.06 C 19.39 183.02 18.82 189.99 17.39 196.82 C 16.53 199.57 15.64 202.36 14.10 204.82 C 11.94 204.47 10.62 202.64 9.33 201.07 C 9.60 200.41 10.13 199.09 10.39 198.43 C 12.10 198.60 13.80 198.77 15.51 198.94 C 15.69 196.78 15.87 194.62 16.00 192.46 C 16.25 189.11 16.61 185.78 17.01 182.45 C 17.28 179.88 17.53 177.29 17.39 174.71 C 16.07 174.43 14.12 173.69 13.34 175.29 C 12.32 177.18 11.83 179.30 11.09 181.31 C 10.98 180.86 10.75 179.96 10.63 179.51 C 10.70 178.09 10.97 176.69 11.18 175.29 C 12.21 174.30 13.25 173.31 14.25 172.28 Z" />
</g>
<g id="#818894ff">
<path fill="#818894" opacity="1.00" d=" M 120.49 170.32 C 126.10 170.40 131.87 170.97 137.23 168.93 C 140.73 169.95 144.35 170.54 148.00 170.50 C 157.75 170.55 167.72 174.28 177.27 170.76 C 184.06 172.34 190.99 173.27 197.97 173.21 C 207.33 173.09 216.68 173.70 226.03 173.30 C 235.36 173.79 244.69 174.24 253.99 175.15 C 263.34 175.42 272.65 177.23 282.03 176.17 C 288.02 175.45 294.03 175.97 300.03 176.27 C 309.03 176.23 318.02 176.72 327.01 176.32 C 340.57 176.61 354.14 176.54 367.68 175.76 C 372.72 175.63 377.76 176.07 382.80 175.93 C 389.86 175.79 396.97 177.01 403.97 175.68 C 409.75 174.62 415.62 173.86 421.51 173.88 C 426.40 174.06 431.25 174.85 436.14 175.03 C 437.43 174.02 438.74 173.02 440.04 172.02 C 441.95 175.26 443.82 178.56 444.95 182.17 C 444.92 182.53 444.85 183.26 444.81 183.63 C 444.21 183.96 443.02 184.63 442.42 184.97 C 443.13 189.05 442.91 193.22 441.67 197.18 C 441.38 196.90 440.80 196.36 440.50 196.09 C 440.08 195.67 439.23 194.84 438.81 194.43 C 432.10 193.94 425.35 195.90 418.71 194.29 C 403.06 190.39 386.86 193.55 370.99 192.05 C 365.48 191.37 359.93 191.54 354.40 191.59 C 346.29 190.62 338.16 191.87 330.03 191.91 C 312.37 191.88 294.70 191.37 277.03 191.29 C 264.51 191.92 252.12 189.59 239.64 189.38 C 233.42 188.80 227.24 187.00 220.96 187.88 C 215.52 188.62 210.10 187.36 204.66 187.54 C 196.35 187.41 187.53 188.55 179.84 184.62 C 183.98 184.38 188.13 184.08 192.25 183.50 C 183.58 182.02 174.76 182.51 166.02 181.88 C 151.98 182.03 138.09 178.94 124.04 179.73 C 117.70 179.55 111.36 179.67 105.02 179.58 C 101.60 179.70 99.02 177.20 96.36 175.45 C 99.04 175.34 101.70 174.95 104.27 174.20 C 109.37 172.74 114.65 174.28 119.82 174.33 C 120.05 172.99 120.27 171.65 120.49 170.32 M 249.80 182.41 C 257.05 182.90 264.34 182.98 271.59 182.41 C 275.27 182.13 278.94 182.64 282.58 183.15 C 282.55 183.59 282.50 184.48 282.48 184.92 C 286.45 186.07 290.54 186.72 294.65 187.12 C 297.93 189.93 302.17 187.67 305.95 187.83 C 309.61 188.25 313.15 189.77 316.90 189.35 C 324.28 188.78 331.68 190.13 339.05 189.13 C 343.26 188.50 347.51 188.72 351.69 189.40 C 355.47 190.37 358.28 186.56 362.02 186.91 C 368.25 187.39 374.42 185.21 380.61 186.44 C 383.98 187.17 387.21 185.67 390.31 184.56 C 385.77 181.97 380.54 183.61 375.66 182.62 C 372.14 182.09 368.60 182.76 365.07 182.54 C 360.02 182.25 354.99 181.04 349.93 181.68 C 347.74 181.87 345.57 182.37 343.37 182.29 C 340.56 181.73 338.12 179.56 335.14 180.03 C 327.42 180.57 319.72 179.54 312.05 178.88 C 306.00 178.39 299.95 179.25 293.91 179.20 C 283.94 178.97 273.98 179.10 264.02 179.31 C 259.12 179.39 254.41 180.86 249.80 182.41 Z" />
</g>
<g id="#565e6eff">
<path fill="#565e6e" opacity="1.00" d=" M 13.34 175.29 C 14.12 173.69 16.07 174.43 17.39 174.71 C 17.53 177.29 17.28 179.88 17.01 182.45 C 15.29 182.52 13.57 182.59 11.85 182.66 C 11.59 185.38 11.31 188.09 11.02 190.81 C 11.66 190.22 12.31 189.63 12.96 189.05 C 13.10 189.77 13.38 191.23 13.53 191.96 C 13.37 188.92 13.73 185.88 14.58 182.97 C 15.23 186.10 15.83 189.26 16.00 192.46 C 15.87 194.62 15.69 196.78 15.51 198.94 C 13.80 198.77 12.10 198.60 10.39 198.43 C 10.13 199.09 9.60 200.41 9.33 201.07 L 9.20 200.49 C 8.71 193.50 9.26 186.37 10.63 179.51 C 10.75 179.96 10.98 180.86 11.09 181.31 C 11.83 179.30 12.32 177.18 13.34 175.29 Z" />
</g>
<g id="#515c6eff">
<path fill="#515c6e" opacity="1.00" d=" M 19.86 196.84 C 20.89 189.92 20.54 182.87 21.76 175.97 C 21.36 179.68 21.27 183.65 23.40 186.90 C 23.42 185.03 23.42 183.17 23.40 181.30 C 24.94 181.59 26.48 181.87 28.02 182.16 C 28.39 181.32 28.76 180.49 29.13 179.65 C 32.05 180.54 35.10 181.95 38.20 181.15 C 42.39 180.12 46.60 178.74 50.98 179.22 C 61.97 180.09 73.09 179.68 83.96 181.72 C 88.45 181.66 92.98 181.62 97.33 182.95 C 97.41 184.00 97.50 185.05 97.59 186.10 C 98.31 185.60 99.03 185.11 99.76 184.61 C 105.28 186.66 111.21 186.44 117.00 186.46 C 128.03 186.46 138.94 188.40 149.98 188.13 C 158.79 188.08 167.22 191.28 176.04 191.08 C 179.26 190.77 181.87 192.74 184.28 194.58 C 181.50 194.64 178.71 194.62 175.93 194.59 C 176.90 193.67 177.88 192.76 178.85 191.85 C 173.99 193.35 169.08 195.12 163.90 194.75 C 163.22 195.07 162.53 195.40 161.85 195.72 C 155.80 195.05 149.69 194.74 143.63 195.47 C 138.17 196.14 132.50 195.30 127.24 197.23 C 138.43 200.53 150.21 197.46 161.56 199.69 C 151.10 200.93 140.55 200.09 130.05 200.14 C 118.83 198.67 107.58 200.15 96.34 200.51 C 76.88 200.61 57.43 200.35 37.97 200.38 C 32.94 200.30 27.86 200.93 22.86 200.18 C 21.54 199.42 20.82 197.97 19.86 196.84 Z" />
</g>
<g id="#222830ff">
<path fill="#222830" opacity="1.00" d=" M 444.91 177.74 C 446.16 178.53 447.41 179.32 448.67 180.11 C 449.03 183.14 449.58 186.16 449.82 189.21 C 449.42 193.46 448.61 197.66 447.47 201.78 C 445.97 194.52 445.87 187.09 445.13 179.75 C 445.08 179.25 444.97 178.25 444.91 177.74 Z" />
</g>
<g id="#9398a2ff">
<path fill="#9398a2" opacity="1.00" d=" M 249.80 182.41 C 254.41 180.86 259.12 179.39 264.02 179.31 C 273.98 179.10 283.94 178.97 293.91 179.20 C 299.95 179.25 306.00 178.39 312.05 178.88 C 319.72 179.54 327.42 180.57 335.14 180.03 C 338.12 179.56 340.56 181.73 343.37 182.29 C 345.57 182.37 347.74 181.87 349.93 181.68 C 354.99 181.04 360.02 182.25 365.07 182.54 C 368.60 182.76 372.14 182.09 375.66 182.62 C 380.54 183.61 385.77 181.97 390.31 184.56 C 387.21 185.67 383.98 187.17 380.61 186.44 C 374.42 185.21 368.25 187.39 362.02 186.91 C 358.28 186.56 355.47 190.37 351.69 189.40 C 347.51 188.72 343.26 188.50 339.05 189.13 C 331.68 190.13 324.28 188.78 316.90 189.35 C 313.15 189.77 309.61 188.25 305.95 187.83 C 302.17 187.67 297.93 189.93 294.65 187.12 C 290.54 186.72 286.45 186.07 282.48 184.92 C 282.50 184.48 282.55 183.59 282.58 183.15 C 278.94 182.64 275.27 182.13 271.59 182.41 C 264.34 182.98 257.05 182.90 249.80 182.41 Z" />
</g>
<g id="#555d67ff">
<path fill="#555d67" opacity="1.00" d=" M 445.13 179.75 C 445.87 187.09 445.97 194.52 447.47 201.78 L 447.36 202.21 C 446.71 202.12 445.40 201.94 444.75 201.85 C 442.89 199.97 440.96 197.60 438.03 197.74 C 430.98 197.35 423.91 197.81 416.86 197.31 L 418.78 196.27 C 426.02 196.06 433.26 196.17 440.50 196.09 C 440.80 196.36 441.38 196.90 441.67 197.18 C 442.91 193.22 443.13 189.05 442.42 184.97 C 443.02 184.63 444.21 183.96 444.81 183.63 C 444.85 183.26 444.92 182.53 444.95 182.17 C 445.00 181.56 445.09 180.35 445.13 179.75 Z" />
</g>
<g id="#79818eff">
<path fill="#79818e" opacity="1.00" d=" M 11.85 182.66 C 13.57 182.59 15.29 182.52 17.01 182.45 C 16.61 185.78 16.25 189.11 16.00 192.46 C 15.83 189.26 15.23 186.10 14.58 182.97 C 13.73 185.88 13.37 188.92 13.53 191.96 C 13.38 191.23 13.10 189.77 12.96 189.05 C 12.31 189.63 11.66 190.22 11.02 190.81 C 11.31 188.09 11.59 185.38 11.85 182.66 Z" />
</g>
<g id="#030d0cff">
<path fill="#030d0c" opacity="1.00" d=" M 447.47 201.78 C 448.61 197.66 449.42 193.46 449.82 189.21 C 450.47 195.57 450.98 201.96 450.89 208.37 C 450.38 206.44 449.75 204.56 449.15 202.68 C 447.89 207.99 447.13 213.50 447.94 218.95 C 449.65 231.20 449.17 243.66 447.60 255.89 C 431.40 256.37 415.20 255.30 399.01 255.98 C 388.69 255.92 378.36 255.91 368.03 256.07 C 363.89 256.28 359.99 254.76 355.98 254.04 C 351.99 254.74 348.10 256.24 343.97 255.91 C 338.61 255.47 333.71 258.34 328.35 258.04 C 328.13 255.96 327.91 253.88 327.69 251.81 C 319.97 252.84 312.14 253.02 304.45 251.61 C 304.16 250.43 303.88 249.25 303.60 248.07 C 298.54 247.93 293.48 247.83 288.42 247.82 C 288.20 246.08 287.98 244.35 287.76 242.62 C 284.42 241.98 281.13 241.18 277.83 240.40 C 272.39 239.03 266.72 240.75 261.28 239.46 C 258.66 238.34 256.78 236.09 254.72 234.22 C 252.65 234.04 250.57 233.88 248.50 233.73 C 248.22 232.54 247.94 231.36 247.67 230.18 C 245.27 229.99 242.87 229.81 240.47 229.63 C 240.17 228.59 239.86 227.56 239.57 226.52 C 231.58 225.05 223.71 222.20 215.46 223.15 C 216.92 223.76 218.38 224.37 219.84 224.98 C 220.19 225.73 220.55 226.48 220.90 227.23 C 217.35 225.91 213.94 224.24 210.74 222.21 C 209.59 224.01 208.44 225.82 207.30 227.62 C 204.79 226.74 202.31 225.64 199.66 225.34 C 195.76 225.10 191.82 225.97 187.94 225.22 C 184.97 224.73 182.02 223.78 178.98 223.90 C 176.38 224.30 174.08 225.64 171.77 226.80 C 169.48 225.33 166.87 224.84 164.53 226.50 C 160.93 226.31 157.34 225.88 153.75 225.49 C 157.62 225.20 161.50 224.88 165.36 224.51 C 157.93 223.10 150.45 224.30 143.01 224.78 C 139.93 225.25 137.45 223.17 134.84 221.95 C 130.38 219.73 125.32 219.48 120.53 218.46 C 120.26 217.87 119.73 216.68 119.46 216.09 C 114.30 215.95 109.04 216.34 104.01 214.92 C 98.11 213.25 91.91 214.15 85.89 213.26 C 77.93 212.14 69.99 214.02 62.01 213.91 C 55.35 214.75 48.78 216.89 41.98 215.90 C 37.13 216.18 33.97 212.07 29.97 210.13 C 27.35 209.04 24.79 210.76 22.37 211.61 C 20.54 207.78 19.27 203.61 19.80 199.33 C 20.12 200.89 20.50 202.44 20.87 204.00 C 21.02 204.62 21.32 205.86 21.47 206.49 C 25.05 207.03 28.68 207.41 32.31 207.19 C 38.17 206.80 44.01 207.93 49.87 207.40 C 55.60 206.95 61.31 207.86 67.04 207.74 C 77.05 207.58 87.05 207.85 97.06 207.72 C 100.83 207.61 104.33 209.23 108.02 209.69 C 112.33 208.99 116.52 207.35 120.97 207.67 C 131.97 208.19 142.99 208.23 154.00 208.09 C 176.01 208.29 198.01 208.05 220.02 208.23 C 223.85 208.20 227.66 207.75 231.50 207.79 C 244.98 208.43 258.49 208.12 271.99 208.09 C 277.19 208.08 281.73 211.52 287.02 211.07 C 293.30 210.78 299.75 213.08 305.88 210.92 C 307.41 210.45 308.93 209.96 310.46 209.48 C 315.08 211.46 320.12 211.27 325.02 210.96 C 330.68 210.57 336.27 212.08 341.93 211.65 C 345.93 211.40 349.99 210.78 353.97 211.57 C 358.47 212.38 362.89 214.52 367.57 213.54 C 372.06 212.75 376.56 213.69 381.05 213.94 C 383.13 214.15 384.20 211.90 385.63 210.79 C 386.82 211.34 388.03 211.91 389.23 212.48 C 388.53 213.73 387.85 214.99 387.15 216.24 C 398.69 212.32 410.98 214.43 422.89 213.99 C 423.63 212.93 424.37 211.88 425.12 210.83 C 431.03 210.89 436.79 212.68 442.69 212.59 C 445.77 210.12 446.10 205.72 447.36 202.21 L 447.47 201.78 Z" />
</g>
<g id="#4c565fff">
<path fill="#4c565f" opacity="1.00" d=" M 332.09 196.57 C 338.41 196.63 344.69 195.70 351.01 195.59 C 362.34 195.40 373.67 195.73 385.01 195.63 C 396.27 195.63 407.55 195.21 418.78 196.27 L 416.86 197.31 C 399.56 197.28 382.27 197.81 364.97 197.72 C 358.98 197.69 353.02 198.51 347.03 198.20 C 329.41 197.12 311.76 198.08 294.15 198.75 C 289.14 199.34 284.13 199.99 279.07 200.05 C 264.64 200.29 250.32 202.58 235.88 202.49 C 230.59 202.56 225.34 203.44 220.05 203.48 C 213.99 203.60 207.99 202.57 201.94 202.46 C 174.28 202.24 146.63 202.65 118.98 202.29 C 111.41 202.12 103.55 203.56 96.34 200.51 C 107.58 200.15 118.83 198.67 130.05 200.14 C 140.55 200.09 151.10 200.93 161.56 199.69 C 169.05 199.83 176.53 199.38 183.99 198.80 C 196.99 198.96 210.09 200.13 223.03 198.32 C 232.02 197.86 241.03 197.58 250.01 196.87 C 277.37 196.72 304.73 196.50 332.09 196.57 Z" />
</g>
<g id="#010100ff">
<path fill="#010100" opacity="1.00" d=" M 14.10 204.82 C 15.64 202.36 16.53 199.57 17.39 196.82 C 18.01 196.82 19.24 196.83 19.86 196.84 C 19.85 197.46 19.82 198.71 19.80 199.33 C 19.27 203.61 20.54 207.78 22.37 211.61 C 24.79 210.76 27.35 209.04 29.97 210.13 C 33.97 212.07 37.13 216.18 41.98 215.90 C 48.78 216.89 55.35 214.75 62.01 213.91 C 69.99 214.02 77.93 212.14 85.89 213.26 C 91.91 214.15 98.11 213.25 104.01 214.92 C 109.04 216.34 114.30 215.95 119.46 216.09 C 119.73 216.68 120.26 217.87 120.53 218.46 C 125.32 219.48 130.38 219.73 134.84 221.95 C 137.45 223.17 139.93 225.25 143.01 224.78 C 150.45 224.30 157.93 223.10 165.36 224.51 C 161.50 224.88 157.62 225.20 153.75 225.49 C 157.34 225.88 160.93 226.31 164.53 226.50 C 166.87 224.84 169.48 225.33 171.77 226.80 C 174.08 225.64 176.38 224.30 178.98 223.90 C 182.02 223.78 184.97 224.73 187.94 225.22 C 191.82 225.97 195.76 225.10 199.66 225.34 C 202.31 225.64 204.79 226.74 207.30 227.62 C 208.44 225.82 209.59 224.01 210.74 222.21 C 213.94 224.24 217.35 225.91 220.90 227.23 C 220.55 226.48 220.19 225.73 219.84 224.98 C 218.38 224.37 216.92 223.76 215.46 223.15 C 223.71 222.20 231.58 225.05 239.57 226.52 C 239.86 227.56 240.17 228.59 240.47 229.63 C 242.87 229.81 245.27 229.99 247.67 230.18 C 247.94 231.36 248.22 232.54 248.50 233.73 C 250.57 233.88 252.65 234.04 254.72 234.22 C 256.78 236.09 258.66 238.34 261.28 239.46 C 266.72 240.75 272.39 239.03 277.83 240.40 C 281.13 241.18 284.42 241.98 287.76 242.62 C 287.98 244.35 288.20 246.08 288.42 247.82 C 293.48 247.83 298.54 247.93 303.60 248.07 C 303.88 249.25 304.16 250.43 304.45 251.61 C 312.14 253.02 319.97 252.84 327.69 251.81 C 327.91 253.88 328.13 255.96 328.35 258.04 C 333.71 258.34 338.61 255.47 343.97 255.91 C 348.10 256.24 351.99 254.74 355.98 254.04 C 359.99 254.76 363.89 256.28 368.03 256.07 C 378.36 255.91 388.69 255.92 399.01 255.98 C 415.20 255.30 431.40 256.37 447.60 255.89 C 449.17 243.66 449.65 231.20 447.94 218.95 C 447.13 213.50 447.89 207.99 449.15 202.68 C 449.75 204.56 450.38 206.44 450.89 208.37 C 451.93 240.89 451.43 273.45 451.84 306.00 C 303.84 305.98 155.83 305.98 7.83 306.00 C 8.06 270.83 8.63 235.66 9.20 200.49 L 9.33 201.07 C 10.62 202.64 11.94 204.47 14.10 204.82 M 58.42 225.14 C 58.05 225.68 57.31 226.76 56.94 227.30 C 54.85 226.01 52.46 225.29 50.00 225.49 C 46.25 225.77 42.12 225.01 38.80 227.20 C 39.11 232.17 31.01 231.16 32.64 236.44 C 32.43 236.63 32.02 236.99 31.81 237.17 C 32.09 239.24 32.27 241.33 32.39 243.42 C 36.34 244.44 40.34 245.36 44.44 245.51 C 45.29 245.70 46.99 246.07 47.84 246.25 L 47.38 244.82 C 48.46 247.45 49.83 249.95 51.11 252.49 C 51.25 252.51 51.52 252.56 51.65 252.58 C 52.01 253.02 52.72 253.91 53.07 254.35 C 57.34 255.02 61.77 254.96 66.04 254.32 C 68.81 253.22 69.06 249.94 69.88 247.49 C 76.58 247.36 83.27 247.59 89.97 247.57 C 102.79 247.55 115.68 249.44 128.45 247.79 C 140.95 249.01 153.57 247.75 166.10 248.63 C 167.22 254.73 168.15 260.87 169.13 266.99 C 169.68 270.14 169.32 273.64 171.33 276.35 C 184.67 276.23 198.02 276.47 211.36 276.39 C 212.81 269.51 214.18 262.54 214.64 255.51 L 215.08 257.32 C 217.92 248.60 217.59 239.26 219.27 230.32 L 218.92 230.46 C 217.06 229.49 214.99 229.23 212.93 229.26 C 190.61 228.54 168.26 229.56 145.96 228.08 C 133.32 227.73 120.65 228.33 108.01 227.43 C 95.36 226.47 82.68 227.39 70.02 226.74 C 66.99 226.58 63.95 226.74 60.94 227.13 C 60.08 226.48 59.25 225.80 58.42 225.14 Z" />
</g>
<g id="#29343bff">
<path fill="#29343b" opacity="1.00" d=" M 19.86 196.84 C 20.82 197.97 21.54 199.42 22.86 200.18 C 27.86 200.93 32.94 200.30 37.97 200.38 C 57.43 200.35 76.88 200.61 96.34 200.51 C 103.55 203.56 111.41 202.12 118.98 202.29 C 146.63 202.65 174.28 202.24 201.94 202.46 C 207.99 202.57 213.99 203.60 220.05 203.48 C 225.34 203.44 230.59 202.56 235.88 202.49 C 250.32 202.58 264.64 200.29 279.07 200.05 C 284.13 199.99 289.14 199.34 294.15 198.75 C 311.76 198.08 329.41 197.12 347.03 198.20 C 353.02 198.51 358.98 197.69 364.97 197.72 C 382.27 197.81 399.56 197.28 416.86 197.31 C 423.91 197.81 430.98 197.35 438.03 197.74 C 440.96 197.60 442.89 199.97 444.75 201.85 C 432.19 200.37 419.62 202.64 407.07 202.78 C 399.60 202.39 392.11 203.10 384.65 202.47 C 381.03 202.15 377.47 202.97 373.91 203.54 C 368.92 204.34 363.96 202.57 358.96 203.14 C 355.28 203.55 351.64 204.60 347.91 204.38 C 336.33 203.70 324.73 204.25 313.15 204.42 C 299.45 205.30 285.75 203.86 272.04 204.27 C 254.01 204.84 235.99 205.22 217.96 205.59 C 191.64 204.73 165.30 204.90 138.98 204.38 C 119.33 204.34 99.68 204.60 80.03 204.30 C 70.04 203.78 60.03 203.79 50.03 203.82 C 40.31 203.87 30.58 203.45 20.87 204.00 C 20.50 202.44 20.12 200.89 19.80 199.33 C 19.82 198.71 19.85 197.46 19.86 196.84 Z" />
</g>
<g id="#0d181dff">
<path fill="#0d181d" opacity="1.00" d=" M 407.07 202.78 C 419.62 202.64 432.19 200.37 444.75 201.85 C 445.40 201.94 446.71 202.12 447.36 202.21 C 446.10 205.72 445.77 210.12 442.69 212.59 C 436.79 212.68 431.03 210.89 425.12 210.83 C 424.37 211.88 423.63 212.93 422.89 213.99 C 410.98 214.43 398.69 212.32 387.15 216.24 C 387.85 214.99 388.53 213.73 389.23 212.48 C 388.03 211.91 386.82 211.34 385.63 210.79 C 384.20 211.90 383.13 214.15 381.05 213.94 C 376.56 213.69 372.06 212.75 367.57 213.54 C 362.89 214.52 358.47 212.38 353.97 211.57 C 349.99 210.78 345.93 211.40 341.93 211.65 C 336.27 212.08 330.68 210.57 325.02 210.96 C 320.12 211.27 315.08 211.46 310.46 209.48 C 308.93 209.96 307.41 210.45 305.88 210.92 C 299.75 213.08 293.30 210.78 287.02 211.07 C 281.73 211.52 277.19 208.08 271.99 208.09 C 258.49 208.12 244.98 208.43 231.50 207.79 C 227.66 207.75 223.85 208.20 220.02 208.23 C 198.01 208.05 176.01 208.29 154.00 208.09 C 142.99 208.23 131.97 208.19 120.97 207.67 C 116.52 207.35 112.33 208.99 108.02 209.69 C 104.33 209.23 100.83 207.61 97.06 207.72 C 87.05 207.85 77.05 207.58 67.04 207.74 C 61.31 207.86 55.60 206.95 49.87 207.40 C 44.01 207.93 38.17 206.80 32.31 207.19 C 28.68 207.41 25.05 207.03 21.47 206.49 C 21.32 205.86 21.02 204.62 20.87 204.00 C 30.58 203.45 40.31 203.87 50.03 203.82 C 60.03 203.79 70.04 203.78 80.03 204.30 C 99.68 204.60 119.33 204.34 138.98 204.38 C 165.30 204.90 191.64 204.73 217.96 205.59 C 235.99 205.22 254.01 204.84 272.04 204.27 C 285.75 203.86 299.45 205.30 313.15 204.42 C 324.73 204.25 336.33 203.70 347.91 204.38 C 351.64 204.60 355.28 203.55 358.96 203.14 C 363.96 202.57 368.92 204.34 373.91 203.54 C 377.47 202.97 381.03 202.15 384.65 202.47 C 392.11 203.10 399.60 202.39 407.07 202.78 Z" />
</g>
<g id="#1c0000ff">
<path fill="#1c0000" opacity="1.00" d=" M 58.42 225.14 C 59.25 225.80 60.08 226.48 60.94 227.13 C 61.42 227.49 62.39 228.20 62.88 228.56 C 77.87 229.84 93.00 228.31 108.02 229.42 C 117.66 230.28 127.33 229.98 136.99 230.00 C 145.34 229.98 153.67 230.79 162.03 230.96 C 178.56 231.20 195.13 230.64 211.64 231.71 C 212.86 232.06 214.07 232.44 215.28 232.85 C 206.23 233.92 197.12 233.22 188.04 233.36 C 180.34 233.48 172.67 232.63 164.97 232.68 C 143.65 232.58 122.35 231.76 101.03 231.30 C 88.47 230.36 75.88 230.26 63.29 230.28 C 63.17 230.27 62.94 230.26 62.83 230.26 C 60.82 229.35 58.87 228.35 56.94 227.30 C 57.31 226.76 58.05 225.68 58.42 225.14 Z" />
</g>
<g id="#bc3e3eff">
<path fill="#bc3e3e" opacity="1.00" d=" M 38.80 227.20 C 42.12 225.01 46.25 225.77 50.00 225.49 C 52.46 225.29 54.85 226.01 56.94 227.30 C 58.87 228.35 60.82 229.35 62.83 230.26 C 62.12 230.49 60.69 230.96 59.98 231.20 C 58.63 230.59 57.31 229.93 55.98 229.28 C 56.79 231.30 57.57 233.33 58.43 235.34 C 56.45 233.05 54.48 230.75 52.64 228.35 C 47.90 228.05 41.93 226.43 38.68 231.01 C 37.89 231.78 37.08 232.54 36.26 233.28 C 35.06 234.34 33.85 235.39 32.64 236.44 C 31.01 231.16 39.11 232.17 38.80 227.20 Z" />
</g>
<g id="#bf0702ff">
<path fill="#bf0702" opacity="1.00" d=" M 38.68 231.01 C 41.93 226.43 47.90 228.05 52.64 228.35 C 54.48 230.75 56.45 233.05 58.43 235.34 C 61.25 238.97 64.02 242.64 66.72 246.36 C 67.61 248.19 68.47 250.90 66.32 252.24 C 61.76 254.48 56.45 253.25 51.65 252.58 C 51.52 252.56 51.25 252.51 51.11 252.49 C 49.83 249.95 48.46 247.45 47.38 244.82 C 47.26 244.55 47.04 244.01 46.93 243.74 C 44.71 239.17 41.49 235.21 38.68 231.01 Z" />
</g>
<g id="#c11006ff">
<path fill="#c11006" opacity="1.00" d=" M 55.98 229.28 C 57.31 229.93 58.63 230.59 59.98 231.20 C 69.46 236.85 80.70 232.75 90.87 235.37 C 90.59 237.08 90.32 238.79 90.06 240.51 C 90.77 240.75 92.18 241.24 92.88 241.48 C 90.64 242.01 88.40 242.55 86.16 243.12 C 86.56 243.88 86.96 244.65 87.36 245.42 C 81.25 245.05 75.12 244.33 68.99 244.63 C 68.59 244.96 67.78 245.62 67.37 245.95 L 66.72 246.36 C 64.02 242.64 61.25 238.97 58.43 235.34 C 57.57 233.33 56.79 231.30 55.98 229.28 Z" />
</g>
<g id="#a50201ff">
<path fill="#a50201" opacity="1.00" d=" M 62.83 230.26 C 62.94 230.26 63.17 230.27 63.29 230.28 C 63.79 230.78 64.80 231.77 65.30 232.27 C 78.56 232.12 91.73 233.60 104.98 233.74 C 120.31 234.98 135.70 234.33 151.06 234.84 C 166.34 236.01 181.68 235.44 196.99 235.70 C 203.68 235.82 210.38 235.79 217.06 235.28 C 216.79 239.70 215.92 244.04 214.94 248.35 C 215.07 244.92 214.98 241.48 214.90 238.05 C 199.15 239.47 183.34 240.04 167.53 239.93 C 167.51 241.42 167.48 242.90 167.45 244.40 C 166.73 242.93 166.01 241.45 165.29 239.99 C 159.94 240.01 154.57 239.88 149.32 238.78 C 143.96 237.64 138.48 238.32 133.06 238.03 C 119.03 236.70 104.85 237.39 90.87 235.37 C 80.70 232.75 69.46 236.85 59.98 231.20 C 60.69 230.96 62.12 230.49 62.83 230.26 Z" />
</g>
<g id="#690203ff">
<path fill="#690203" opacity="1.00" d=" M 63.29 230.28 C 75.88 230.26 88.47 230.36 101.03 231.30 C 122.35 231.76 143.65 232.58 164.97 232.68 C 172.67 232.63 180.34 233.48 188.04 233.36 C 197.12 233.22 206.23 233.92 215.28 232.85 C 214.07 232.44 212.86 232.06 211.64 231.71 C 214.13 231.83 216.61 231.42 218.92 230.46 L 219.27 230.32 C 217.59 239.26 217.92 248.60 215.08 257.32 L 214.64 255.51 C 214.62 253.12 214.74 250.73 214.94 248.35 C 215.92 244.04 216.79 239.70 217.06 235.28 C 210.38 235.79 203.68 235.82 196.99 235.70 C 181.68 235.44 166.34 236.01 151.06 234.84 C 135.70 234.33 120.31 234.98 104.98 233.74 C 91.73 233.60 78.56 232.12 65.30 232.27 C 64.80 231.77 63.79 230.78 63.29 230.28 Z" />
</g>
<g id="#920500ff">
<path fill="#920500" opacity="1.00" d=" M 36.26 233.28 C 37.08 232.54 37.89 231.78 38.68 231.01 C 41.49 235.21 44.71 239.17 46.93 243.74 C 47.04 244.01 47.26 244.55 47.38 244.82 L 47.84 246.25 C 46.99 246.07 45.29 245.70 44.44 245.51 C 43.66 244.74 42.91 243.95 42.18 243.15 C 39.98 240.00 38.16 236.61 36.26 233.28 Z" />
</g>
<g id="#c4170eff">
<path fill="#c4170e" opacity="1.00" d=" M 32.64 236.44 C 33.85 235.39 35.06 234.34 36.26 233.28 C 38.16 236.61 39.98 240.00 42.18 243.15 C 40.25 243.02 38.28 243.03 36.40 242.57 C 34.57 241.04 33.28 239.00 31.81 237.17 C 32.02 236.99 32.43 236.63 32.64 236.44 Z" />
</g>
<g id="#bc0102ff">
<path fill="#bc0102" opacity="1.00" d=" M 90.06 240.51 C 90.32 238.79 90.59 237.08 90.87 235.37 C 104.85 237.39 119.03 236.70 133.06 238.03 C 138.48 238.32 143.96 237.64 149.32 238.78 C 154.57 239.88 159.94 240.01 165.29 239.99 C 166.01 241.45 166.73 242.93 167.45 244.40 C 167.48 242.90 167.51 241.42 167.53 239.93 C 183.34 240.04 199.15 239.47 214.90 238.05 C 214.98 241.48 215.07 244.92 214.94 248.35 C 214.74 250.73 214.62 253.12 214.64 255.51 C 214.18 262.54 212.81 269.51 211.36 276.39 C 198.02 276.47 184.67 276.23 171.33 276.35 C 169.32 273.64 169.68 270.14 169.13 266.99 C 168.15 260.87 167.22 254.73 166.10 248.63 C 153.57 247.75 140.95 249.01 128.45 247.79 C 114.96 246.28 101.34 246.48 87.78 246.24 L 87.36 245.42 C 86.96 244.65 86.56 243.88 86.16 243.12 C 88.40 242.55 90.64 242.01 92.88 241.48 C 92.18 241.24 90.77 240.75 90.06 240.51 Z" />
</g>
<g id="#a22a28ff">
<path fill="#a22a28" opacity="1.00" d=" M 31.81 237.17 C 33.28 239.00 34.57 241.04 36.40 242.57 C 38.28 243.03 40.25 243.02 42.18 243.15 C 42.91 243.95 43.66 244.74 44.44 245.51 C 40.34 245.36 36.34 244.44 32.39 243.42 C 32.27 241.33 32.09 239.24 31.81 237.17 Z" />
</g>
<g id="#b4241bff">
<path fill="#b4241b" opacity="1.00" d=" M 68.99 244.63 C 75.12 244.33 81.25 245.05 87.36 245.42 L 87.78 246.24 C 80.97 246.42 74.17 246.12 67.37 245.95 C 67.78 245.62 68.59 244.96 68.99 244.63 Z" />
</g>
<g id="#6b0b0aff">
<path fill="#6b0b0a" opacity="1.00" d=" M 66.72 246.36 L 67.37 245.95 C 74.17 246.12 80.97 246.42 87.78 246.24 C 101.34 246.48 114.96 246.28 128.45 247.79 C 115.68 249.44 102.79 247.55 89.97 247.57 C 83.27 247.59 76.58 247.36 69.88 247.49 C 69.06 249.94 68.81 253.22 66.04 254.32 C 61.77 254.96 57.34 255.02 53.07 254.35 C 52.72 253.91 52.01 253.02 51.65 252.58 C 56.45 253.25 61.76 254.48 66.32 252.24 C 68.47 250.90 67.61 248.19 66.72 246.36 Z" />
</g>
</svg>
