<svg xmlns="http://www.w3.org/2000/svg" fill-rule="evenodd" stroke-linejoin="round" stroke-miterlimit="2" clip-rule="evenodd" viewBox="0 0 370 369"><path fill="#fecd4b" fill-rule="nonzero" d="M178.59,0L192.34,0C227.42,1.59 262.04,12.97 290.82,33.18C321.34,54.34 345.19,84.93 358.27,119.69C365.31,138.19 369.04,157.84 370,177.58L370,193.29C368.92,207.04 367.12,220.8 363.21,234.07C363.93,225.4 363.59,216.68 363.54,208C363.17,184.37 354.99,160.55 339.12,142.83C330.62,133.98 321.22,125 309.23,121.31C311.51,117.87 314.95,113.75 312.71,109.43C311.08,105.13 306.2,103.99 302.07,104.26C286.84,104.64 271.18,101.14 258.47,92.5C248.69,85.73 240.5,76.68 234.68,66.31C233.07,63.67 231.69,60.73 229.18,58.82C224.75,55.7 217.6,57.94 216.1,63.27C214.59,67.64 217.44,71.81 219.53,75.45C229.01,91.44 242.45,105.5 259.41,113.53C252.5,117.64 244.97,121.52 240.32,128.35C237.13,133.23 234.73,138.62 232.86,144.14C232.05,146.31 228.9,157.3 228.11,161.12C226.998,166.497 226.299,170.524 225.788,174.629C225.684,175.464 225.585,176.299 225.491,177.134C224.452,186.377 224.009,195.695 223.75,204.99C223.62,210.14 223.83,215.38 225.53,220.29C225.15,224 224.46,227.79 225.36,231.49C227.3,240.57 230.41,249.36 233.78,258C239.32,272.29 248.38,285.01 258.91,296.04C267.46,305.26 278.27,312.76 290.58,315.83C299.12,317.98 307.87,315.78 316.34,314.4C292.42,338.5 261.76,355.86 228.74,363.8C216.51,366.83 203.96,368.32 191.4,369L178.62,369C143.21,367.65 108.22,356.2 79.19,335.82C47.99,314.21 23.79,282.74 10.9,247.05C4.56,229.81 1.28,211.6 0,193.31L0,174.83C1.07,163.76 2.26,152.68 4.96,141.87C14.48,101.42 38.3,64.57 71.12,39.12C101.64,15.15 139.84,1.42 178.59,0M160.5,31.68C157.41,32.57 155.76,35.57 153.97,37.98C144.52,51.97 130.82,63.42 114.64,68.69C111.18,69.93 107.47,70.53 104.18,72.23C99.17,75.25 98.97,83.83 104.31,86.66C107.49,88.97 111.55,87.93 115.03,87.04C125.45,84.14 135.41,79.49 144.17,73.15C154.48,65.9 162.82,56.19 169.91,45.85C172.55,42.32 172.71,36.75 169.41,33.57C167.18,31.18 163.51,30.92 160.5,31.68M141.35,104.24C119.98,109.13 99.52,118 81.38,130.35C73.21,135.64 65.22,141.38 58.59,148.56C51.59,156.73 46.38,166.31 42.7,176.39C38.62,192.44 38.74,209.46 42.69,225.54C46.02,239.79 53.54,252.92 63.4,263.65C77.34,277.8 94.99,288.39 114.26,293.35C127.03,295.27 139.84,298.52 152.85,297.27C157.87,296.67 163.02,296.62 167.88,295.06C177.61,291.95 187.3,287.97 195.07,281.14C203.97,274.46 209.76,264.48 213.27,254.08C217.94,239.33 219.62,223.62 217.94,208.23C217.52,202.09 216.93,195.97 215.89,189.9C213.47,167.91 207.07,145.92 194.51,127.51C186.45,116.2 174.93,106.47 160.94,103.96C154.45,103.2 147.81,103.13 141.35,104.24Z"/><g fill="#664301" fill-rule="nonzero"><path d="M160.5,31.68C163.51,30.92 167.18,31.18 169.41,33.57C172.71,36.75 172.55,42.32 169.91,45.85C162.82,56.19 154.48,65.9 144.17,73.15C135.41,79.49 125.45,84.14 115.03,87.04C111.55,87.93 107.49,88.97 104.31,86.66C98.97,83.83 99.17,75.25 104.18,72.23C107.47,70.53 111.18,69.93 114.64,68.69C130.82,63.42 144.52,51.97 153.97,37.98C155.76,35.57 157.41,32.57 160.5,31.68Z"/><path d="M216.1,63.27C217.6,57.94 224.75,55.7 229.18,58.82C231.69,60.73 233.07,63.67 234.68,66.31C240.5,76.68 248.69,85.73 258.47,92.5C271.18,101.14 286.84,104.64 302.07,104.26C306.2,103.99 311.08,105.13 312.71,109.43C314.95,113.75 313.268,120.46 309.23,121.31C300.326,123.184 274.803,123.004 259.41,113.53C242.45,105.5 229.01,91.44 219.53,75.45C217.44,71.81 214.59,67.64 216.1,63.27Z"/><path d="M141.48,107.74C149.01,106.89 156.94,106.93 164.02,109.96C177.44,115.53 187.52,126.89 194.79,139.17C207.36,160.44 207.96,188.65 194.91,209.84C185.6,224.39 171.02,236.05 153.98,239.9C138.25,243.48 121.04,241.97 106.74,234.21C96.08,228.39 87.04,219.66 80.63,209.37C70.91,193.11 68.96,172.34 75.71,154.63C81.02,141.04 92.33,131.07 104.19,123.19C115.47,115.7 128.08,110.02 141.48,107.74M168.52,135.76C158.88,138.25 151.76,148.09 152.56,158.04C152.86,166.3 158.57,173.8 166.08,176.97C172.74,179.6 180.72,178.76 186.55,174.55C191.94,170.43 196.1,164.02 195.71,157.02C196.3,149.51 191.78,142.39 185.71,138.31C180.73,134.83 174.28,134.88 168.52,135.76M101.38,183.45C98.52,184.44 96.47,187.14 95.66,189.99C94.82,195.18 99.61,200.66 104.98,199.78C111.6,199.93 115.05,190.85 110.87,186.09C108.81,183 104.69,182.8 101.38,183.45M135.52,211.52C133.28,212.19 132.48,216.04 134.57,217.41C136.77,220.07 141.59,217.55 140.63,214.22C140.81,211.52 137.56,210.84 135.52,211.52Z"/><path d="M260.42,135.79C269.54,134.78 279.17,135.24 287.51,139.44C297.26,144.18 305.02,152.25 310.38,161.59C303.29,156.65 293.47,155.46 285.73,159.55C278.65,163.2 274.59,171.24 274.68,179.05C275,185.23 277.86,191.34 282.84,195.12C289.44,200.78 299.66,201.27 307.07,196.97C312.09,194.11 315.26,189.05 317.43,183.86C317.51,189.59 317.88,195.39 316.76,201.06C314.14,216.84 304.63,231.57 290.77,239.73C279.48,246.41 265.22,247.49 252.87,243.33C241.19,239.41 232.25,230.3 225.53,220.29C223.83,215.38 223.62,210.14 223.75,204.99C224.16,190.29 224.94,175.52 228.11,161.12C228.9,157.3 230.68,153.73 233.23,150.77C240.38,143.08 249.89,137.24 260.42,135.79M247.44,196.57C244.58,197.46 242.45,200.26 241.97,203.18C241.12,208.23 245.81,213.35 251,212.4C256.7,211.82 259.58,204.86 256.76,200.14C255.02,196.79 250.91,195.75 247.44,196.57M278.54,210.5C275.79,212.68 276.98,218.55 281,218.49C285.59,219.34 287.64,212.09 283.62,210.15C282.1,208.91 280.03,209.64 278.54,210.5Z"/></g><g fill="#fefffe" fill-rule="nonzero"><path d="M141.35,104.24C147.81,103.13 154.45,103.2 160.94,103.96C174.93,106.47 186.45,116.2 194.51,127.51C207.07,145.92 213.47,167.91 215.89,189.9C216.93,195.97 217.52,202.09 217.94,208.23C219.62,223.62 217.94,239.33 213.27,254.08C209.76,264.48 203.97,274.46 195.07,281.14C187.3,287.97 177.61,291.95 167.88,295.06C163.02,296.62 157.87,296.67 152.85,297.27C139.84,298.52 127.03,295.27 114.26,293.35C94.99,288.39 77.34,277.8 63.4,263.65C53.54,252.92 46.02,239.79 42.69,225.54C38.74,209.46 38.62,192.44 42.7,176.39C46.38,166.31 51.59,156.73 58.59,148.56C65.22,141.38 73.21,135.64 81.38,130.35C99.52,118 119.98,109.13 141.35,104.24M141.48,107.74C128.08,110.02 115.47,115.7 104.19,123.19C92.33,131.07 81.02,141.04 75.71,154.63C68.96,172.34 70.91,193.11 80.63,209.37C87.04,219.66 96.08,228.39 106.74,234.21C121.04,241.97 138.25,243.48 153.98,239.9C171.02,236.05 185.6,224.39 194.91,209.84C207.96,188.65 207.36,160.44 194.79,139.17C187.52,126.89 177.44,115.53 164.02,109.96C156.94,106.93 149.01,106.89 141.48,107.74Z"/><path d="M240.32,128.35C244.97,121.52 252.5,117.64 259.41,113.53C274.84,120.88 292.34,122.66 309.23,121.31C321.22,125 330.62,133.98 339.12,142.83C354.99,160.55 363.17,184.37 363.54,208C363.59,216.68 363.93,225.4 363.21,234.07C354.87,264.3 338.42,292.17 316.34,314.4C307.87,315.78 299.12,317.98 290.58,315.83C278.27,312.76 267.46,305.26 258.91,296.04C248.38,285.01 239.32,272.29 233.78,258C230.41,249.36 227.3,240.57 225.36,231.49C224.46,227.79 225.15,224 225.53,220.29C232.25,230.3 241.19,239.41 252.87,243.33C265.22,247.49 279.48,246.41 290.77,239.73C304.63,231.57 314.14,216.84 316.76,201.06C317.88,195.39 317.51,189.59 317.43,183.86C315.26,189.05 312.09,194.11 307.07,196.97C299.66,201.27 289.44,200.78 282.84,195.12C277.86,191.34 275,185.23 274.68,179.05C274.59,171.24 278.65,163.2 285.73,159.55C293.47,155.46 303.29,156.65 310.38,161.59C305.02,152.25 297.26,144.18 287.51,139.44C281.475,137.688 271.286,134.923 260.42,135.79C249.633,136.651 225.442,177.69 225.442,177.69C225.218,177.21 227.171,159.004 229.037,153.917C229.078,153.805 232.667,144.67 232.86,144.14C234.87,138.623 237.13,133.23 240.32,128.35Z"/><path d="M168.52,135.76C174.28,134.88 180.73,134.83 185.71,138.31C191.78,142.39 196.3,149.51 195.71,157.02C196.1,164.02 191.94,170.43 186.55,174.55C180.72,178.76 172.74,179.6 166.08,176.97C158.57,173.8 152.86,166.3 152.56,158.04C151.76,148.09 158.88,138.25 168.52,135.76Z"/><path d="M101.38,183.45C104.69,182.8 108.81,183 110.87,186.09C115.05,190.85 111.6,199.93 104.98,199.78C99.61,200.66 94.82,195.18 95.66,189.99C96.47,187.14 98.52,184.44 101.38,183.45Z"/><path d="M247.44,196.57C250.91,195.75 255.02,196.79 256.76,200.14C259.58,204.86 256.7,211.82 251,212.4C245.81,213.35 241.12,208.23 241.97,203.18C242.45,200.26 244.58,197.46 247.44,196.57Z"/><path d="M278.54,210.5C280.03,209.64 282.1,208.91 283.62,210.15C287.64,212.09 285.59,219.34 281,218.49C276.98,218.55 275.79,212.68 278.54,210.5Z"/><path d="M135.52,211.52C137.56,210.84 140.81,211.52 140.63,214.22C141.59,217.55 136.77,220.07 134.57,217.41C132.48,216.04 133.28,212.19 135.52,211.52Z"/></g></svg>