<?xml version="1.0" encoding="UTF-8" standalone="no"?>
<!DOCTYPE svg PUBLIC "-//W3C//DTD SVG 1.1//EN" "http://www.w3.org/Graphics/SVG/1.1/DTD/svg11.dtd">
<svg width="100%" height="100%" viewBox="0 0 439 438" version="1.1" xmlns="http://www.w3.org/2000/svg" xmlns:xlink="http://www.w3.org/1999/xlink" xml:space="preserve" xmlns:serif="http://www.serif.com/" style="fill-rule:evenodd;clip-rule:evenodd;">
    <g transform="matrix(1,0,0,1,-42.7477,-141.483)">
        <path d="M243.24,148.32C257.072,135.544 345.421,143.239 357.89,154.23C362.127,157.964 367.09,162.202 367.64,167.04C368.19,171.878 363.83,178.11 361.19,183.26C359.23,187.15 356.73,190.7 353.97,194.06C351.72,193.36 349.46,192.67 347.26,191.83C346.17,191.39 345.08,190.96 343.99,190.53C343.48,190.36 342.45,190.01 341.94,189.84C339.66,189.12 337.32,188.61 335,188.08C329.32,186.62 323.98,183.63 317.93,184.19C315.87,183.88 313.86,183.35 311.85,182.89C309.93,182.47 308,182.1 306.07,181.74C304.51,181.45 302.97,181.14 301.42,180.85C282.05,177.46 262.67,173.53 242.96,172.79C244.61,167.05 238.95,162.62 239.2,156.97C239.08,153.76 240.902,150.479 243.24,148.32Z" style="fill:rgb(100,128,64);fill-rule:nonzero;stroke:rgb(100,128,64);stroke-width:0.09px;"/>
        <path d="M238.41,181.24C240.05,178.5 241.5,175.64 242.96,172.79C262.67,173.53 282.05,177.46 301.42,180.85C301.46,189.7 297.25,197.87 296.94,206.66C297.98,207.05 299.01,207.44 300.05,207.85C301.59,208.37 303.18,208.77 304.76,209.17C306.15,209.51 307.56,209.81 308.96,210.12C315.5,211.81 322.26,212.03 328.98,212.04C330.38,212.05 331.78,212.04 333.19,212.01C335.2,211.84 337.19,211.57 339.18,211.25C341.28,210.91 342.93,209.42 343.38,207.33C344.79,202.2 345.72,196.93 347.26,191.83C349.46,192.67 351.72,193.36 353.97,194.06C352.19,198.18 351,202.53 349.78,206.85C348.78,210.09 350.7,213.3 350.35,216.56C349.83,218.83 348.74,220.91 347.79,223.02C344.56,224.68 341.15,226.3 338.87,229.23C326.15,233.98 311.89,233.64 298.93,230.01C291.72,226.04 284.02,222.8 277.6,217.52C268.54,210.25 259.6,202.83 251.1,194.91C247.63,191.52 243.57,188.71 240.79,184.68C239.97,183.55 239.19,182.39 238.41,181.24Z" style="fill:rgb(1,1,2);fill-rule:nonzero;stroke:rgb(1,1,2);stroke-width:0.09px;"/>
        <path d="M272.51,309.35C271.83,306.54 271.5,303.65 271.81,300.77C272.02,301.95 272.24,303.14 272.48,304.33L272.72,305.52C273.87,304.13 274.97,302.68 275.96,301.16C276.22,303.37 276.72,305.54 277.31,307.68C280.29,306.65 283.17,305.16 286.33,304.78C287.58,305.79 288.58,307.08 289.63,308.3C290.76,306.83 291.92,305.39 293.16,304.01L293.94,304.07C294.32,306.21 294.69,308.37 295.01,310.53C293.43,314.04 291.71,317.48 289.91,320.88C289.34,322.1 288.47,323.43 288.97,324.85C290.44,331.17 292.51,337.41 292.92,343.94C293.17,348.72 292.1,353.43 291.16,358.08C286.94,360.26 286.34,365.24 285.38,369.39C284.13,375.69 282.66,382.13 278.99,387.53C276.67,379.93 276.45,371.9 274.7,364.18C274.05,361.01 271.85,358.53 270.16,355.88C269.05,344.01 275.99,333.58 279.99,322.9C278.14,318.19 274.27,314.26 272.51,309.35Z" style="fill:rgb(1,1,2);fill-rule:nonzero;stroke:rgb(1,1,2);stroke-width:0.09px;"/>
        <path d="M301.42,180.85C302.97,181.14 304.51,181.45 306.07,181.74C302.76,190.09 301.61,199.06 300.05,207.85C299.01,207.44 297.98,207.05 296.94,206.66C297.25,197.87 301.46,189.7 301.42,180.85Z" style="fill:rgb(38,40,39);fill-rule:nonzero;stroke:rgb(38,40,39);stroke-width:0.09px;"/>
        <path d="M228.79,188.83C232,186.31 235.24,183.81 238.41,181.24C239.19,182.39 239.97,183.55 240.79,184.68C236.15,186.46 236.59,191.9 236.52,196C236.8,205.76 235.94,215.62 237.82,225.27C238.7,229.62 238.79,234.05 238.79,238.47C237.4,240.25 235.49,241.78 234.91,244.05C233.64,248.89 232.77,253.92 233.12,258.93C234.16,265.54 238.42,271.07 239.87,277.56C239.78,281.17 239.73,284.86 240.72,288.37C244.23,300.1 248.05,311.76 253.02,322.96C256.62,330.65 260.88,338.02 264.12,345.88C265.88,350.01 267.48,354.21 269.5,358.22C269.67,357.64 270,356.47 270.16,355.88C271.85,358.53 274.05,361.01 274.7,364.18C276.45,371.9 276.67,379.93 278.99,387.53C282.66,382.13 284.13,375.69 285.38,369.39C286.34,365.24 286.94,360.26 291.16,358.08C294.44,355.98 295.01,351.8 296.66,348.55C301.52,336.1 308.05,324.04 309.87,310.64C310.43,303.24 312.03,296.01 314.13,288.91C317.94,282.15 318.87,274.26 322.2,267.31C324.43,262.73 330.91,261.62 332,256.33C333.29,249.2 337.75,243.24 339.36,236.2C339.68,233.86 339.4,231.51 338.87,229.23C341.15,226.3 344.56,224.68 347.79,223.02C351.28,224.39 355.19,225.26 357.89,228.05C359.76,229.87 361.71,231.62 363.53,233.49C365.57,235.6 366.35,238.56 368.26,240.76C370.15,242.57 372.47,243.86 374.78,245.06C375.69,251.52 378.49,257.52 381.96,262.97C382.95,264.56 384.38,265.81 385.95,266.82C384.91,267.08 383.87,267.35 382.85,267.64C382.68,268.15 382.34,269.16 382.17,269.67C381.11,272.53 380.28,275.75 377.75,277.72C374.6,280.32 371.23,282.65 368.15,285.34C369.28,293.41 377.41,297.73 379.52,305.39C381.56,312.21 386.56,318.37 385.71,325.83C384.85,333.02 382.67,340.38 378.08,346.1C367.85,356.85 352.54,359.99 341.05,368.96C335.53,372.78 332.65,379.31 326.96,382.96C321.78,386.22 316.51,389.36 311.09,392.2C306.45,395.82 302.93,400.65 298.73,404.73C295.8,407.53 291.75,408.98 289.29,412.3C286.34,416.16 284.13,420.51 281.57,424.62C277.9,430.52 275.22,437.21 270.05,442.03C268.31,443.72 265.72,444.05 263.42,443.69C260.83,441.24 261.45,437.31 261.12,434.11C261.18,430.37 260.12,426.79 259.06,423.26C257.97,419.54 259.64,415.47 257.95,411.89C256.47,408.78 255.36,405.51 254.72,402.13C253.94,398.17 251.45,394.85 250.35,391C248.72,385 245.84,379.39 244.88,373.22C245.83,372.25 246.74,371.25 247.64,370.25C246.33,368.39 246.07,366.21 246.66,364.05C247.63,360.76 245.49,357.88 243.92,355.19C240.1,349.1 236.56,342.7 231.37,337.64C227.33,333.7 221.76,331.64 216.18,331.41C212.01,331.46 209.15,328.01 205.57,326.45C198.4,323.15 190.17,323.37 183.02,319.97C179.14,318.05 174.79,317.46 170.51,318.07C166.96,314.92 163.42,311.74 159.68,308.8L159.64,308.11C162.76,297.02 162.88,284.52 169.95,274.94C173.97,268.36 183.63,270.6 188.02,264.37C185.64,262.45 183.02,260.85 180.16,259.75C175.26,256.79 170.38,253.15 164.3,253.56C162.54,247.93 160.37,242.1 161.85,236.13C166.69,234.96 168.03,229.41 171.92,226.86C176.62,223.64 181.12,220.16 185.33,216.3C189.49,212.38 195.35,211.73 200.33,209.35C203.8,207.6 208.06,207.7 211.11,205.11C214.06,202.7 217.05,200.34 219.99,197.94C223.3,195.26 225.41,191.42 228.79,188.83M291.14,359.17C289.63,362.19 294.45,359.27 291.14,359.17Z" style="fill:rgb(59,77,87);fill-rule:nonzero;stroke:rgb(59,77,87);stroke-width:0.09px;"/>
        <path d="M306.07,181.74C308,182.1 309.93,182.47 311.85,182.89C309.84,185.53 309.19,188.78 308.58,191.97L307.8,192.39C306.15,197.85 304.26,203.36 304.76,209.17C303.18,208.77 301.59,208.37 300.05,207.85C301.61,199.06 302.76,190.09 306.07,181.74Z" style="fill:rgb(67,73,69);fill-rule:nonzero;stroke:rgb(67,73,69);stroke-width:0.09px;"/>
        <path d="M311.85,182.89C313.86,183.35 315.87,183.88 317.93,184.19C316.2,186.81 314.51,189.46 312.91,192.16C311.46,192.12 310.02,192.06 308.58,191.97C309.19,188.78 309.84,185.53 311.85,182.89Z" style="fill:rgb(92,97,103);fill-rule:nonzero;stroke:rgb(92,97,103);stroke-width:0.09px;"/>
        <path d="M317.93,184.19C323.98,183.63 329.32,186.62 335,188.08C334.83,196.42 331.25,204.14 328.98,212.04C322.26,212.03 315.5,211.81 308.96,210.12C308.576,209.702 309.07,208.02 309.66,207.93C313.25,207.81 317.43,206.07 320.63,208.37C322.08,209.26 323.59,210.06 325.14,210.78C325.77,207.51 325.02,203.29 328.21,201.18C329.36,199.79 332.12,198.79 331.48,196.59C329.6,194.93 326.95,194.43 324.72,193.37C323.74,190.81 322.54,188.34 321.1,186.01C319.23,187.95 317.43,189.95 315.69,192.01C314.99,192.04 313.6,192.12 312.91,192.16C314.51,189.46 316.2,186.81 317.93,184.19Z" style="fill:rgb(127,121,118);fill-rule:nonzero;stroke:rgb(127,121,118);stroke-width:0.09px;"/>
        <path d="M236.52,196C236.59,191.9 236.15,186.46 240.79,184.68C243.57,188.71 247.63,191.52 251.1,194.91C259.6,202.83 268.54,210.25 277.6,217.52C277.72,218.8 277.84,220.09 277.98,221.39C274.44,218.46 271.56,214.81 267.92,212.02C266.8,210.92 265.19,211.31 263.8,211.24C263.98,215.37 262.6,219.28 260.39,222.7C261.58,224.32 262.62,226.03 263.81,227.64C262.16,228.01 260.51,228.39 258.86,228.76C258.5,234.01 253.64,237.66 253.85,242.97C253.84,245.07 253.91,247.25 254.7,249.24C256.82,250.61 259.29,251.32 261.37,252.78C263.06,256.95 261.82,261.6 263.02,265.9C269.4,263.12 275.38,259.48 281.83,256.89C283.33,256.19 284.82,257.18 286.17,257.77C290.21,259.91 294.69,262.05 296.78,266.4C291.37,264.77 286.79,261.46 282.17,258.34C280.4,260.23 278.73,262.2 276.98,264.11C276.02,264.53 275.05,264.92 274.06,265.26C270,265.34 264.58,265.12 262.67,269.6C261.88,274.16 263.21,279.05 260.83,283.32C259.63,279.85 258.04,276.5 257.3,272.89C256.57,269.75 256.2,266.39 254.31,263.68C250.63,258.41 246.38,253.54 242.85,248.16C240.87,245.17 241.52,241.04 238.79,238.47C238.79,234.05 238.7,229.62 237.82,225.27C235.94,215.62 236.8,205.76 236.52,196Z" style="fill:rgb(194,46,49);fill-rule:nonzero;stroke:rgb(194,46,49);stroke-width:0.09px;"/>
        <path d="M315.69,192.01C317.43,189.95 319.23,187.95 321.1,186.01C322.54,188.34 323.74,190.81 324.72,193.37C326.95,194.43 329.6,194.93 331.48,196.59C332.12,198.79 329.36,199.79 328.21,201.18C325.02,203.29 325.77,207.51 325.14,210.78C323.59,210.06 322.08,209.26 320.63,208.37C317.43,206.07 313.25,207.81 309.66,207.93C310.18,205.38 311.07,202.82 310.88,200.19C310.16,197.48 308.84,194.98 307.8,192.39L308.58,191.97C310.02,192.06 311.46,192.12 312.91,192.16C313.6,192.12 314.99,192.04 315.69,192.01Z" style="fill:rgb(223,51,43);fill-rule:nonzero;stroke:rgb(223,51,43);stroke-width:0.09px;"/>
        <path d="M263.8,211.24C265.19,211.31 266.8,210.92 267.92,212.02C271.56,214.81 274.44,218.46 277.98,221.39C277.84,220.09 277.72,218.8 277.6,217.52C284.02,222.8 291.72,226.04 298.93,230.01C306.04,235.95 315.75,234.04 324.25,234.45C321.24,237.99 315.89,236.87 312.32,239.43C311.02,241.97 311.08,244.88 311.02,247.66C313.7,248.04 316.39,248.43 319.06,248.91C322.83,249.91 327.07,249.99 330.22,247.34C330.79,246.47 331.35,245.59 331.91,244.7C331.59,244.45 330.96,243.94 330.65,243.68C328.68,242.22 326.27,241.67 323.91,241.23C327.98,240.38 332.12,241.11 336.19,241.55C335.93,240.48 335.7,239.41 335.48,238.33C336.76,237.61 338.05,236.89 339.36,236.2C337.75,243.24 333.29,249.2 332,256.33C330.91,261.62 324.43,262.73 322.2,267.31C318.87,274.26 317.94,282.15 314.13,288.91L313.44,289.46C313.9,284.61 314.76,279.69 313.66,274.86C313.36,273.21 313.44,271.52 313.62,269.86C313.78,268.07 314.08,265.73 312.23,264.67C310.99,263.75 309.58,264.65 308.36,265.07C305,266.45 301.5,267.65 297.81,267.6C297.56,267.3 297.04,266.7 296.78,266.4C294.69,262.05 290.21,259.91 286.17,257.77C284.82,257.18 283.33,256.19 281.83,256.89C275.38,259.48 269.4,263.12 263.02,265.9C261.82,261.6 263.06,256.95 261.37,252.78C259.29,251.32 256.82,250.61 254.7,249.24C253.91,247.25 253.84,245.07 253.85,242.97C253.64,237.66 258.5,234.01 258.86,228.76C260.51,228.39 262.16,228.01 263.81,227.64C262.62,226.03 261.58,224.32 260.39,222.7C262.6,219.28 263.98,215.37 263.8,211.24M265.67,228.93C269.53,238.01 278.78,243.6 288.16,245.45C288.41,246.89 288.21,248.59 289.3,249.74C291.18,250.67 293.31,250.81 295.35,251.12C295.46,250.02 295.58,248.94 295.71,247.85C296.05,247.6 296.74,247.11 297.08,246.86C296.23,244.24 298.58,242.24 299.53,240C297.47,238.51 295.21,237.31 293.18,235.77C291.41,234.01 290.32,231.29 287.47,231.12L287.76,232.12C284.84,229.16 284.93,223.85 280.71,222.18C278.98,221.28 276.92,221.81 275.05,221.69L274.53,222.37C271.01,223.66 267.93,225.94 265.67,228.93Z" style="fill:rgb(223,51,43);fill-rule:nonzero;stroke:rgb(223,51,43);stroke-width:0.09px;"/>
        <path d="M335,188.08C337.32,188.61 339.66,189.12 341.94,189.84C341.29,189.93 339.98,190.09 339.32,190.18C339.03,193.55 339.02,197.07 337.57,200.2C335.81,204.04 335.8,208.54 333.19,212.01C331.78,212.04 330.38,212.05 328.98,212.04C331.25,204.14 334.83,196.42 335,188.08Z" style="fill:rgb(84,91,95);fill-rule:nonzero;stroke:rgb(84,91,95);stroke-width:0.09px;"/>
        <path d="M339.32,190.18C339.98,190.09 341.29,189.93 341.94,189.84C342.45,190.01 343.48,190.36 343.99,190.53C342.1,197.36 339.99,204.19 339.18,211.25C337.19,211.57 335.2,211.84 333.19,212.01C335.8,208.54 335.81,204.04 337.57,200.2C339.02,197.07 339.03,193.55 339.32,190.18Z" style="fill:rgb(72,69,73);fill-rule:nonzero;stroke:rgb(72,69,73);stroke-width:0.09px;"/>
        <path d="M339.18,211.25C339.99,204.19 342.1,197.36 343.99,190.53C345.08,190.96 346.17,191.39 347.26,191.83C345.72,196.93 344.79,202.2 343.38,207.33C342.93,209.42 341.28,210.91 339.18,211.25Z" style="fill:rgb(37,37,32);fill-rule:nonzero;stroke:rgb(37,37,32);stroke-width:0.09px;"/>
        <path d="M304.76,209.17C304.26,203.36 306.15,197.85 307.8,192.39C308.84,194.98 310.16,197.48 310.88,200.19C311.07,202.82 310.18,205.38 309.66,207.93C309.07,208.02 308.4,209.51 308.96,210.12C307.56,209.81 306.15,209.51 304.76,209.17Z" style="fill:rgb(84,91,91);fill-rule:nonzero;stroke:rgb(84,91,91);stroke-width:0.09px;"/>
        <path d="M265.67,228.93C267.93,225.94 271.01,223.66 274.53,222.37C273.11,224.13 271.65,225.85 270.15,227.55C275.51,228.22 280.53,230.42 284.25,234.4C280.4,234.38 276.63,232.86 272.77,233.58C272.3,233.64 271.36,233.77 270.88,233.84C273.19,235.91 275.66,237.8 278.26,239.49C279.69,240.19 281.2,240.72 282.74,241.12C285.26,241.28 287.79,241.33 290.32,241.47C291.23,241.59 292.16,241.69 293.09,241.77C294.01,241.16 294.9,240.5 295.8,239.85C292.31,238.22 289.78,235.31 287.76,232.12L287.47,231.12C290.32,231.29 291.41,234.01 293.18,235.77C295.21,237.31 297.47,238.51 299.53,240C298.58,242.24 296.23,244.24 297.08,246.86C296.74,247.11 296.05,247.6 295.71,247.85C295.58,248.94 295.46,250.02 295.35,251.12C293.31,250.81 291.18,250.67 289.3,249.74C288.21,248.59 288.41,246.89 288.16,245.45C278.78,243.6 269.53,238.01 265.67,228.93Z" style="fill:rgb(193,47,52);fill-rule:nonzero;stroke:rgb(193,47,52);stroke-width:0.09px;"/>
        <path d="M274.53,222.37L275.05,221.69C276.92,221.81 278.98,221.28 280.71,222.18C284.93,223.85 284.84,229.16 287.76,232.12C289.78,235.31 292.31,238.22 295.8,239.85C294.9,240.5 294.01,241.16 293.09,241.77C290.21,239.23 287.2,236.85 284.25,234.4C280.53,230.42 275.51,228.22 270.15,227.55C271.65,225.85 273.11,224.13 274.53,222.37Z" style="fill:rgb(10,3,3);fill-rule:nonzero;stroke:rgb(10,3,3);stroke-width:0.09px;"/>
        <path d="M298.93,230.01C311.89,233.64 326.15,233.98 338.87,229.23C339.4,231.51 339.68,233.86 339.36,236.2C338.05,236.89 336.76,237.61 335.48,238.33C332.25,236.68 328.3,235.08 324.81,237C321.52,238.72 318.07,240.11 314.4,240.77C314.48,241.97 314.49,243.17 314.45,244.37C315.89,244.62 317.33,244.92 318.77,245.24L318.64,245.94C318.69,246.65 318.77,247.37 318.89,248.09L319.06,248.91C316.39,248.43 313.7,248.04 311.02,247.66C311.08,244.88 311.02,241.97 312.32,239.43C315.89,236.87 321.24,237.99 324.25,234.45C315.75,234.04 306.04,235.95 298.93,230.01Z" style="fill:rgb(209,55,57);fill-rule:nonzero;stroke:rgb(209,55,57);stroke-width:0.09px;"/>
        <path d="M272.77,233.58C276.63,232.86 280.4,234.38 284.25,234.4C287.2,236.85 290.21,239.23 293.09,241.77C292.16,241.69 291.23,241.59 290.32,241.47C287.94,239.95 285.44,238.57 282.64,238.03C282.67,239.06 282.7,240.09 282.74,241.12C281.2,240.72 279.69,240.19 278.26,239.49C278.59,238.07 278.91,236.64 279.26,235.23C277.1,234.66 274.97,233.99 272.77,233.58Z" style="fill:rgb(189,55,56);fill-rule:nonzero;stroke:rgb(189,55,56);stroke-width:0.09px;"/>
        <path d="M318.77,245.24C320.38,243.78 322.17,242.54 323.91,241.23C326.27,241.67 328.68,242.22 330.65,243.68C330.11,244.11 329.04,244.95 328.5,245.37C329.07,246.02 329.65,246.68 330.22,247.34C327.07,249.99 322.83,249.91 319.06,248.91L318.89,248.09C321.15,247.86 323.42,247.64 325.7,247.47L325.7,245.49C323.35,245.65 320.99,245.83 318.64,245.94L318.77,245.24Z" style="fill:rgb(189,55,56);fill-rule:nonzero;stroke:rgb(189,55,56);stroke-width:0.09px;"/>
        <path d="M270.88,233.84C271.36,233.77 272.3,233.64 272.77,233.58C274.97,233.99 277.1,234.66 279.26,235.23C278.91,236.64 278.59,238.07 278.26,239.49C275.66,237.8 273.19,235.91 270.88,233.84Z" style="fill:rgb(245,211,94);fill-rule:nonzero;stroke:rgb(245,211,94);stroke-width:0.09px;"/>
        <path d="M282.64,238.03C285.44,238.57 287.94,239.95 290.32,241.47C287.79,241.33 285.26,241.28 282.74,241.12C282.7,240.09 282.67,239.06 282.64,238.03Z" style="fill:rgb(245,211,94);fill-rule:nonzero;stroke:rgb(245,211,94);stroke-width:0.09px;"/>
        <path d="M330.65,243.68C330.96,243.94 331.59,244.45 331.91,244.7C331.35,245.59 330.79,246.47 330.22,247.34C329.65,246.68 329.07,246.02 328.5,245.37C329.04,244.95 330.11,244.11 330.65,243.68Z" style="fill:rgb(245,211,94);fill-rule:nonzero;stroke:rgb(245,211,94);stroke-width:0.09px;"/>
        <path d="M318.64,245.94C320.99,245.83 323.35,245.65 325.7,245.49L325.7,247.47C323.42,247.64 321.15,247.86 318.89,248.09C318.77,247.37 318.69,246.65 318.64,245.94Z" style="fill:rgb(245,211,94);fill-rule:nonzero;stroke:rgb(245,211,94);stroke-width:0.09px;"/>
        <path d="M118.31,252.6C131.08,243.48 146.44,238.45 161.85,236.13C160.37,242.1 162.54,247.93 164.3,253.56C156.05,254.5 148.45,258.11 141.58,262.6C138.68,264.11 134.65,267.4 131.68,264.33C127.34,260.28 122.29,257.04 118.31,252.6M129.38,247.2C129.39,250.58 127.4,253.11 125.15,255.38C128.55,256.3 131.23,258.46 132.61,261.72C134.67,258.5 138.05,257.13 141.77,257.06C139.57,254.64 138.31,251.65 139.01,248.35C135.73,249.05 132.4,248.62 129.38,247.2Z" style="fill:rgb(2,2,2);fill-rule:nonzero;stroke:rgb(2,2,2);stroke-width:0.09px;"/>
        <path d="M374.78,245.06C385.02,245.52 394.76,249.05 404.16,252.87C406.43,253.78 408.47,255.16 410.51,256.5C408.19,257.97 405.67,259.07 403.03,259.83C403.97,262.42 404.74,265.08 405.36,267.77C408.42,268.44 411.43,269.36 414.31,270.61C415.23,268.08 416.31,265.61 417.56,263.23C414.8,261.65 412.47,259.47 411.07,256.59C414.31,257.04 417.89,258.27 419.5,261.35C421.87,266.31 421.45,271.95 421.46,277.29C416.22,280.23 411.4,275.08 406.68,273.35C400.11,270.24 393.06,268.22 385.95,266.82C384.38,265.81 382.95,264.56 381.96,262.97C378.49,257.52 375.69,251.52 374.78,245.06Z" style="fill:rgb(2,2,2);fill-rule:nonzero;stroke:rgb(2,2,2);stroke-width:0.09px;"/>
        <path d="M187.87,530.38C188.25,525.16 192.04,520.54 197.37,519.91C197.56,525.06 193.46,530.95 187.87,530.38Z" style="fill:rgb(2,2,2);fill-rule:nonzero;stroke:rgb(2,2,2);stroke-width:0.09px;"/>
        <path d="M324.81,237C328.3,235.08 332.25,236.68 335.48,238.33C335.7,239.41 335.93,240.48 336.19,241.55C332.12,241.11 327.98,240.38 323.91,241.23C322.17,242.54 320.38,243.78 318.77,245.24C317.33,244.92 315.89,244.62 314.45,244.37C314.49,243.17 314.48,241.97 314.4,240.77C318.07,240.11 321.52,238.72 324.81,237Z" style="fill:rgb(24,2,2);fill-rule:nonzero;stroke:rgb(24,2,2);stroke-width:0.09px;"/>
        <path d="M238.79,238.47C241.52,241.04 240.87,245.17 242.85,248.16C246.38,253.54 250.63,258.41 254.31,263.68C256.2,266.39 256.57,269.75 257.3,272.89C258.04,276.5 259.63,279.85 260.83,283.32C260.89,285.37 260.62,287.52 261.35,289.49C262.53,290.85 264.09,291.81 265.57,292.82C265.7,295.99 266.07,299.15 267.04,302.18C268.11,300.01 269.2,297.85 270.35,295.72C271.2,297.28 271.75,298.98 271.81,300.77C271.5,303.65 271.83,306.54 272.51,309.35C269.79,312.94 268.14,317.15 265.9,321.02C258.7,316.45 254.23,308.95 250.52,301.5C246.15,293.91 243.09,285.68 239.87,277.56C238.42,271.07 234.16,265.54 233.12,258.93C232.77,253.92 233.64,248.89 234.91,244.05C235.49,241.78 237.4,240.25 238.79,238.47Z" style="fill:rgb(195,197,174);fill-rule:nonzero;stroke:rgb(195,197,174);stroke-width:0.09px;"/>
        <path d="M129.38,247.2C132.4,248.62 135.73,249.05 139.01,248.35C138.31,251.65 139.57,254.64 141.77,257.06C138.05,257.13 134.67,258.5 132.61,261.72C131.23,258.46 128.55,256.3 125.15,255.38C127.4,253.11 129.39,250.58 129.38,247.2Z" style="fill:rgb(197,56,59);fill-rule:nonzero;stroke:rgb(197,56,59);stroke-width:0.09px;"/>
        <path d="M112.81,257.82C114.07,255.55 116.22,254.04 118.31,252.6C122.29,257.04 127.34,260.28 131.68,264.33C134.65,267.4 138.68,264.11 141.58,262.6C148.45,258.11 156.05,254.5 164.3,253.56C170.38,253.15 175.26,256.79 180.16,259.75C171.92,261.13 162.14,262.6 157.01,269.95C154.98,276.03 156.29,282.64 157.12,288.84C158.46,295.2 158.33,301.75 159.64,308.11L159.68,308.8C159.89,311.39 159.63,313.99 159.18,316.54C157,312.46 155.93,307.88 153.64,303.85C150.48,298.46 148.83,292.17 144.52,287.49C138,280.31 131.93,272.16 123.05,267.74C118.11,271.36 116.05,277.3 113.57,282.63C109.74,290.86 109.14,300.11 108.78,309.05C108.63,317.51 107.42,326.01 108.63,334.45C109.38,340.31 111.32,345.91 112.64,351.66C109.47,352.25 106.32,352.98 103.22,353.87C107.98,362.8 110.82,372.71 116.66,381.04C112.13,381.27 107.59,381.48 103.09,382.13C108.1,386.36 114.54,388.43 119.39,392.87C113.37,395.75 106.73,397.01 100.77,400.02C102.69,402.05 104.66,404.04 106.66,405.99C104.05,411.44 101.04,416.82 100.12,422.88C104.12,425.45 108.81,426.46 113.19,428.18C110.24,430.92 106.52,432.53 103.03,434.45C98.82,436.69 93.41,437.31 90.46,441.41C87.48,445.19 85.78,449.75 84.27,454.27C82.52,454.85 80.81,455.56 79.12,456.29C77.42,453.75 75.09,451.24 75.06,448C74.99,443.84 75.55,439.61 74.39,435.55C72.83,429.58 72.24,423.35 72.96,417.22C73.46,413.45 73.59,409.28 76.26,406.3C80.19,401.87 76.59,395.26 79.42,390.38C81.18,388.13 85.15,386.64 84.07,383.15C82.35,376.2 79.4,368.95 81.59,361.74C82.85,356.31 88.59,353.24 89.61,347.79C89.59,341.18 88.16,334.62 88.59,327.98C88.69,319.29 93.08,311.58 95.57,303.47C96.65,299.49 99.48,296.18 100.04,292.03C100.71,286.34 103.62,281.29 104.76,275.71C106.2,269.27 109.49,263.46 112.81,257.82Z" style="fill:rgb(86,103,51);fill-rule:nonzero;stroke:rgb(86,103,51);stroke-width:0.09px;"/>
        <path d="M403.03,259.83C405.67,259.07 408.19,257.97 410.51,256.5L411.07,256.59C412.47,259.47 414.8,261.65 417.56,263.23C416.31,265.61 415.23,268.08 414.31,270.61C411.43,269.36 408.42,268.44 405.36,267.77C404.74,265.08 403.97,262.42 403.03,259.83Z" style="fill:rgb(199,53,56);fill-rule:nonzero;stroke:rgb(199,53,56);stroke-width:0.09px;"/>
        <path d="M282.17,258.34C286.79,261.46 291.37,264.77 296.78,266.4C297.04,266.7 297.56,267.3 297.81,267.6C298.88,268.73 300.03,269.78 301.17,270.85C301.18,271.93 301.22,273.01 301.29,274.1C298.52,274.38 295.59,274.34 293.11,272.9C287.73,269.97 282.38,266.99 276.98,264.11C278.73,262.2 280.4,260.23 282.17,258.34Z" style="fill:rgb(117,16,13);fill-rule:nonzero;stroke:rgb(117,16,13);stroke-width:0.09px;"/>
        <path d="M157.01,269.95C162.14,262.6 171.92,261.13 180.16,259.75C183.02,260.85 185.64,262.45 188.02,264.37C183.63,270.6 173.97,268.36 169.95,274.94C162.88,284.52 162.76,297.02 159.64,308.11C158.33,301.75 158.46,295.2 157.12,288.84C156.29,282.64 154.98,276.03 157.01,269.95Z" style="fill:rgb(101,127,66);fill-rule:nonzero;stroke:rgb(101,127,66);stroke-width:0.09px;"/>
        <path d="M276.98,264.11C282.38,266.99 287.73,269.97 293.11,272.9C295.59,274.34 298.52,274.38 301.29,274.1C305.66,273.6 309.92,272.26 313.62,269.86C313.44,271.52 313.36,273.21 313.66,274.86C313.32,274.83 312.65,274.77 312.31,274.74C310.57,280.34 305.59,283.68 301.61,287.59C300.45,288.87 298.62,288.84 297.03,288.91C293.19,288.95 288.97,288.68 285.91,286.08C282.29,283.04 279.01,279.56 276.26,275.71C274.05,272.69 274.29,268.8 274.06,265.26C275.05,264.92 276.02,264.53 276.98,264.11M275.03,266C275.01,267.78 275.38,269.75 277.18,270.58C277.23,271.3 277.33,272.75 277.39,273.47C282.27,277.68 287.54,282.68 294.47,282.47C299.84,283.38 306.23,281.66 308.9,276.56L308,276.98C309.02,275.98 309.97,274.92 310.94,273.87C306.96,274.58 303.1,276.08 299.02,276C293.92,275.69 289.11,273.72 284.67,271.33C281.41,269.62 278.61,267.04 275.03,266Z" style="fill:rgb(189,50,57);fill-rule:nonzero;stroke:rgb(189,50,57);stroke-width:0.09px;"/>
        <path d="M297.81,267.6C301.5,267.65 305,266.45 308.36,265.07C306.49,267.6 304.02,269.54 301.17,270.85C300.03,269.78 298.88,268.73 297.81,267.6Z" style="fill:rgb(189,50,57);fill-rule:nonzero;stroke:rgb(189,50,57);stroke-width:0.09px;"/>
        <path d="M308.36,265.07C309.58,264.65 310.99,263.75 312.23,264.67C314.08,265.73 313.78,268.07 313.62,269.86C309.92,272.26 305.66,273.6 301.29,274.1C301.22,273.01 301.18,271.93 301.17,270.85C304.02,269.54 306.49,267.6 308.36,265.07Z" style="fill:rgb(122,15,10);fill-rule:nonzero;stroke:rgb(122,15,10);stroke-width:0.09px;"/>
        <path d="M281.59,299.65C285.13,301.8 288.99,303.58 293.16,304.01C291.92,305.39 290.76,306.83 289.63,308.3C288.58,307.08 287.58,305.79 286.33,304.78C283.17,305.16 280.29,306.65 277.31,307.68C276.72,305.54 276.22,303.37 275.96,301.16L276.36,299.81C277.45,301.26 278.21,302.9 278.97,304.54C279.83,302.9 280.68,301.26 281.59,299.65Z" style="fill:rgb(122,15,10);fill-rule:nonzero;stroke:rgb(122,15,10);stroke-width:0.09px;"/>
        <path d="M262.67,269.6C264.58,265.12 270,265.34 274.06,265.26C274.29,268.8 274.05,272.69 276.26,275.71C279.01,279.56 282.29,283.04 285.91,286.08C288.97,288.68 293.19,288.95 297.03,288.91C298.62,288.84 300.45,288.87 301.61,287.59C305.59,283.68 310.57,280.34 312.31,274.74C312.65,274.77 313.32,274.83 313.66,274.86C314.76,279.69 313.9,284.61 313.44,289.46C310.38,294.4 307.66,299.57 304.11,304.2C303.96,303.48 303.67,302.02 303.53,301.29C302.21,303.68 300.42,305.77 298.15,307.3C298.38,305.6 298.67,303.92 298.98,302.24C298.1,303.13 297.23,304.04 296.39,304.96C295.98,303.81 295.59,302.67 295.21,301.52C294.76,301.41 293.86,301.19 293.41,301.08C293.58,302.07 293.76,303.07 293.94,304.07L293.16,304.01C288.99,303.58 285.13,301.8 281.59,299.65C280.68,301.26 279.83,302.9 278.97,304.54C278.21,302.9 277.45,301.26 276.36,299.81C274.54,300.8 273.21,302.39 272.48,304.33C272.24,303.14 272.02,301.95 271.81,300.77C271.75,298.98 271.2,297.28 270.35,295.72C269.2,297.85 268.11,300.01 267.04,302.18C266.07,299.15 265.7,295.99 265.57,292.82C264.09,291.81 262.53,290.85 261.35,289.49C260.62,287.52 260.89,285.37 260.83,283.32C263.21,279.05 261.88,274.16 262.67,269.6Z" style="fill:rgb(117,16,14);fill-rule:nonzero;stroke:rgb(117,16,14);stroke-width:0.09px;"/>
        <path d="M275.03,266C278.61,267.04 281.41,269.62 284.67,271.33C289.11,273.72 293.92,275.69 299.02,276C303.1,276.08 306.96,274.58 310.94,273.87C309.97,274.92 309.02,275.98 308,276.98C305.17,278.36 302.3,279.92 299.15,280.39C295.1,280.13 291.09,279.02 287.38,277.39C284.04,275.04 280.74,272.6 277.18,270.58C275.38,269.75 275.01,267.78 275.03,266Z" style="fill:rgb(255,248,243);fill-rule:nonzero;stroke:rgb(255,248,243);stroke-width:0.09px;"/>
        <path d="M382.85,267.64C383.87,267.35 384.91,267.08 385.95,266.82C393.06,268.22 400.11,270.24 406.68,273.35C411.4,275.08 416.22,280.23 421.46,277.29C424.28,283.06 428.3,288.21 430.6,294.24C433.54,302.51 436.33,311.13 435.74,320.03C435.72,326.06 433.37,331.7 432.39,337.57C431.73,341.08 433.35,344.44 433.55,347.9C433.18,351.95 430.16,355.64 430.98,359.79C433.24,364.07 438.12,366.43 439.81,371.1C443.2,380.07 440.9,389.74 440.67,399C440.67,406.04 440.17,413.19 441.74,420.11C443.44,427.96 444.27,435.97 444.59,443.99C444.42,447.16 445.05,450.4 447.86,452.27C436.71,450.73 425.48,450.33 414.24,450.49C414.81,440.35 413.35,430.24 412.66,420.14C411.85,413.09 412.51,405.89 410.83,398.95C406.19,405.71 405.45,414.14 402.6,421.66C399.26,431.64 393.8,440.7 389.87,450.43L386.89,450.43C391.22,428.37 397.17,406.61 400.29,384.32C401.27,377.27 401.18,370.13 401.84,363.05C402.43,356.77 401.44,350.48 401.89,344.2C405.61,342.37 409.59,340.42 411.73,336.67C415.88,329.71 420.44,321.8 418.49,313.38C416.67,304.4 415.77,295.07 412.13,286.59C410.16,290.52 408.59,294.67 406.1,298.33C404.97,295.36 404.09,292.28 402.46,289.53C397.33,281.51 391.18,273.53 382.17,269.67C382.34,269.16 382.68,268.15 382.85,267.64Z" style="fill:rgb(86,102,52);fill-rule:nonzero;stroke:rgb(86,102,52);stroke-width:0.09px;"/>
        <path d="M113.57,282.63C116.05,277.3 118.11,271.36 123.05,267.74C131.93,272.16 138,280.31 144.52,287.49C148.83,292.17 150.48,298.46 153.64,303.85C155.93,307.88 157,312.46 159.18,316.54C159.63,313.99 159.89,311.39 159.68,308.8C163.42,311.74 166.96,314.92 170.51,318.07C168.88,319.31 167.28,320.65 165.4,321.51C160.12,323.56 154.1,320.89 148.91,322.98C143.79,327.51 138.94,332.36 134.02,337.11C131.37,339.18 134.26,342.51 133.12,345.11C131.58,348.91 129.61,352.68 129.48,356.87C129.18,365.38 128.94,373.96 130.42,382.38C130.94,389.32 133.89,395.68 135.84,402.27C137.32,407.5 141.54,411.28 143.55,416.25C146.41,423.42 149.99,430.45 150.55,438.3C149.37,438.78 148.18,439.26 146.99,439.73C143.86,441.13 140.44,441.47 137.05,441.35C135.25,437.82 133.43,432.8 128.76,432.59C122.28,432.39 115.63,431.68 109.27,433.35C107.21,433.82 105.12,434.11 103.03,434.45C106.52,432.53 110.24,430.92 113.19,428.18C108.81,426.46 104.12,425.45 100.12,422.88C101.04,416.82 104.05,411.44 106.66,405.99C104.66,404.04 102.69,402.05 100.77,400.02C106.73,397.01 113.37,395.75 119.39,392.87C114.54,388.43 108.1,386.36 103.09,382.13C107.59,381.48 112.13,381.27 116.66,381.04C110.82,372.71 107.98,362.8 103.22,353.87C106.32,352.98 109.47,352.25 112.64,351.66C111.32,345.91 109.38,340.31 108.63,334.45C107.42,326.01 108.63,317.51 108.78,309.05C109.14,300.11 109.74,290.86 113.57,282.63Z" style="fill:rgb(99,128,64);fill-rule:nonzero;stroke:rgb(99,128,64);stroke-width:0.09px;"/>
        <path d="M382.17,269.67C391.18,273.53 397.33,281.51 402.46,289.53C404.09,292.28 404.97,295.36 406.1,298.33C408.59,294.67 410.16,290.52 412.13,286.59C415.77,295.07 416.67,304.4 418.49,313.38C420.44,321.8 415.88,329.71 411.73,336.67C409.59,340.42 405.61,342.37 401.89,344.2C401.44,350.48 402.43,356.77 401.84,363.05C401.18,370.13 401.27,377.27 400.29,384.32C397.17,406.61 391.22,428.37 386.89,450.43C379.91,450.57 372.93,450.47 365.95,450.55C352.99,451.4 340.06,452.53 327.07,452.66C317.66,453.66 308.2,454.09 298.8,455.15C291.78,456.71 284.53,456.23 277.5,457.73C272.85,458.77 267.42,458.64 263.91,462.38C254.71,457.92 245.49,453.42 235.72,450.35C234.56,450.27 233.41,450.34 232.26,450.54C233.59,445.01 235.74,439.72 237.32,434.26C240.89,422.35 235.88,409.53 240.42,397.8C240.66,396.51 240.83,395.22 240.98,393.93C240.63,387.87 239.5,381.88 239.56,375.8C241.4,375.08 243.18,374.22 244.88,373.22C245.84,379.39 248.72,385 250.35,391C251.45,394.85 253.94,398.17 254.72,402.13C255.36,405.51 256.47,408.78 257.95,411.89C259.64,415.47 257.97,419.54 259.06,423.26C260.12,426.79 261.18,430.37 261.12,434.11C261.45,437.31 260.83,441.24 263.42,443.69C265.72,444.05 268.31,443.72 270.05,442.03C275.22,437.21 277.9,430.52 281.57,424.62C284.13,420.51 286.34,416.16 289.29,412.3C291.75,408.98 295.8,407.53 298.73,404.73C302.93,400.65 306.45,395.82 311.09,392.2C316.51,389.36 321.78,386.22 326.96,382.96C332.65,379.31 335.53,372.78 341.05,368.96C352.54,359.99 367.85,356.85 378.08,346.1C382.67,340.38 384.85,333.02 385.71,325.83C386.56,318.37 381.56,312.21 379.52,305.39C377.41,297.73 369.28,293.41 368.15,285.34C371.23,282.65 374.6,280.32 377.75,277.72C380.28,275.75 381.11,272.53 382.17,269.67Z" style="fill:rgb(99,128,64);fill-rule:nonzero;stroke:rgb(99,128,64);stroke-width:0.09px;"/>
        <path d="M277.18,270.58C280.74,272.6 284.04,275.04 287.38,277.39C291.09,279.02 295.1,280.13 299.15,280.39C302.3,279.92 305.17,278.36 308,276.98L308.9,276.56C306.23,281.66 299.84,283.38 294.47,282.47C287.54,282.68 282.27,277.68 277.39,273.47C277.33,272.75 277.23,271.3 277.18,270.58Z" style="fill:rgb(12,0,0);fill-rule:nonzero;stroke:rgb(12,0,0);stroke-width:0.09px;"/>
        <path d="M239.87,277.56C243.09,285.68 246.15,293.91 250.52,301.5C254.23,308.95 258.7,316.45 265.9,321.02C268.14,317.15 269.79,312.94 272.51,309.35C274.27,314.26 278.14,318.19 279.99,322.9C275.99,333.58 269.05,344.01 270.16,355.88C270,356.47 269.67,357.64 269.5,358.22C267.48,354.21 265.88,350.01 264.12,345.88C260.88,338.02 256.62,330.65 253.02,322.96C248.05,311.76 244.23,300.1 240.72,288.37C239.73,284.86 239.78,281.17 239.87,277.56Z" style="fill:rgb(211,218,195);fill-rule:nonzero;stroke:rgb(211,218,195);stroke-width:0.09px;"/>
        <path d="M313.44,289.46L314.13,288.91C312.03,296.01 310.43,303.24 309.87,310.64C305.34,315.1 301.64,320.77 295.56,323.28C295.54,319.03 295.8,314.74 295.01,310.53C294.69,308.37 294.32,306.21 293.94,304.07C293.76,303.07 293.58,302.07 293.41,301.08C293.86,301.19 294.76,301.41 295.21,301.52C295.59,302.67 295.98,303.81 296.39,304.96C297.23,304.04 298.1,303.13 298.98,302.24C298.67,303.92 298.38,305.6 298.15,307.3C300.42,305.77 302.21,303.68 303.53,301.29C303.67,302.02 303.96,303.48 304.11,304.2C307.66,299.57 310.38,294.4 313.44,289.46Z" style="fill:rgb(195,196,175);fill-rule:nonzero;stroke:rgb(195,196,175);stroke-width:0.09px;"/>
        <path d="M272.48,304.33C273.21,302.39 274.54,300.8 276.36,299.81L275.96,301.16C274.97,302.68 273.87,304.13 272.72,305.52L272.48,304.33Z" style="fill:rgb(210,217,196);fill-rule:nonzero;stroke:rgb(210,217,196);stroke-width:0.09px;"/>
        <path d="M295.01,310.53C295.8,314.74 295.54,319.03 295.56,323.28C301.64,320.77 305.34,315.1 309.87,310.64C308.05,324.04 301.52,336.1 296.66,348.55C295.01,351.8 294.44,355.98 291.16,358.08C292.1,353.43 293.17,348.72 292.92,343.94C292.51,337.41 290.44,331.17 288.97,324.85C288.47,323.43 289.34,322.1 289.91,320.88C291.71,317.48 293.43,314.04 295.01,310.53Z" style="fill:rgb(210,217,196);fill-rule:nonzero;stroke:rgb(210,217,196);stroke-width:0.09px;"/>
        <path d="M170.51,318.07C174.79,317.46 179.14,318.05 183.02,319.97C190.17,323.37 198.4,323.15 205.57,326.45C209.15,328.01 212.01,331.46 216.18,331.41C221.76,331.64 227.33,333.7 231.37,337.64C236.56,342.7 240.1,349.1 243.92,355.19C245.49,357.88 247.63,360.76 246.66,364.05C245.03,362.83 243.17,361.8 241.96,360.13C240.37,357.17 240,353.68 238.12,350.86C236.47,348.59 234.24,346.86 232.16,345.01C232.78,349 233.1,353.04 232.92,357.09C230.25,354.11 228.37,350.27 224.87,348.15C218.98,345.41 212.23,345.69 205.9,346.19C211.58,349.99 219.4,351.8 222.11,358.82C216.28,358.05 210.31,355.61 204.49,357.77C207.77,359.99 211.23,361.9 214.51,364.11C211.04,366.72 206.17,367.72 202.11,365.93C198.64,363.91 196.14,360.04 196.15,355.97C195.88,348.96 196.59,341.63 193.96,334.96C190.86,330.05 184.44,328.53 178.97,328.86C170.26,328.98 162.01,333.45 156.58,340.16C158.62,343.45 161.62,345.93 164.12,348.85C159.76,348.14 155.49,347 151.14,346.24C150.9,347.04 150.65,347.85 150.39,348.65C151.97,350.21 153.45,351.88 155.01,353.46C152.11,353.87 149.23,354.5 146.53,355.64C148.58,357.07 150.66,358.46 152.82,359.72C150.1,360.3 146.07,359.65 145.03,363C141.67,371.27 143.15,380.39 143.9,389.01C144.4,395.33 146.71,401.27 148.45,407.32C145.9,409.72 143.2,412.41 143.55,416.25C141.54,411.28 137.32,407.5 135.84,402.27C133.89,395.68 130.94,389.32 130.42,382.38C128.94,373.96 129.18,365.38 129.48,356.87C129.61,352.68 131.58,348.91 133.12,345.11C134.26,342.51 131.37,339.18 134.02,337.11C138.94,332.36 143.79,327.51 148.91,322.98C154.1,320.89 160.12,323.56 165.4,321.51C167.28,320.65 168.88,319.31 170.51,318.07Z" style="fill:rgb(155,121,52);fill-rule:nonzero;stroke:rgb(155,121,52);stroke-width:0.09px;"/>
        <path d="M156.58,340.16C162.01,333.45 170.26,328.98 178.97,328.86C184.44,328.53 190.86,330.05 193.96,334.96C196.59,341.63 195.88,348.96 196.15,355.97C196.14,360.04 198.64,363.91 202.11,365.93C206.17,367.72 211.04,366.72 214.51,364.11C211.23,361.9 207.77,359.99 204.49,357.77C210.31,355.61 216.28,358.05 222.11,358.82C219.4,351.8 211.58,349.99 205.9,346.19C212.23,345.69 218.98,345.41 224.87,348.15C228.37,350.27 230.25,354.11 232.92,357.09C233.1,353.04 232.78,349 232.16,345.01C234.24,346.86 236.47,348.59 238.12,350.86C240,353.68 240.37,357.17 241.96,360.13C243.17,361.8 245.03,362.83 246.66,364.05C246.07,366.21 246.33,368.39 247.64,370.25C246.74,371.25 245.83,372.25 244.88,373.22C243.18,374.22 241.4,375.08 239.56,375.8C235.03,377.45 230.16,376.02 225.56,376.72C220.76,379.27 215.07,381.83 209.73,379.09C204.75,376.16 200.63,371.98 195.75,368.9C193.77,363.22 193.77,357.03 191.47,351.47C189.92,347.77 184.94,346.39 181.62,348.57C178.81,350.13 178.18,353.53 177.12,356.3C173.67,357.87 169.37,358.78 167.42,362.4C165.25,366.35 164.71,370.92 163.21,375.14C161.95,378.53 162.66,382.22 161.89,385.7C160.33,390.13 157.01,393.6 154.42,397.43C152.19,400.58 150.99,404.37 148.45,407.32C146.71,401.27 144.4,395.33 143.9,389.01C143.15,380.39 141.67,371.27 145.03,363C146.07,359.65 150.1,360.3 152.82,359.72C150.66,358.46 148.58,357.07 146.53,355.64C149.23,354.5 152.11,353.87 155.01,353.46C153.45,351.88 151.97,350.21 150.39,348.65C150.65,347.85 150.9,347.04 151.14,346.24C155.49,347 159.76,348.14 164.12,348.85C161.62,345.93 158.62,343.45 156.58,340.16Z" style="fill:rgb(181,144,55);fill-rule:nonzero;stroke:rgb(181,144,55);stroke-width:0.09px;"/>
        <path d="M181.62,348.57C184.94,346.39 189.92,347.77 191.47,351.47C193.77,357.03 193.77,363.22 195.75,368.9C194.42,373.58 193.16,378.29 192.13,383.05C191.59,388.46 185.25,389.38 182.08,392.9C182.58,392.99 183.58,393.16 184.07,393.25C181.3,395.33 178.61,397.53 176,399.82C177.24,399.52 178.48,399.23 179.72,398.93C177.36,402.13 180.69,405.09 181.57,408.16C181.08,412.72 179.01,416.96 178.49,421.54C177.11,431.72 177.06,442.31 179.86,452.27C182.21,459.69 185.25,466.95 189.56,473.45C190.64,474.96 191.71,476.7 193.51,477.45C202.21,480.41 211.88,479.26 219.98,475.05C219.34,481.14 218.98,487.52 216.03,493.03C215.14,494.78 214.29,496.55 213.61,498.4C205.37,503.64 194.64,503.04 185.93,499.3C186.59,499.26 187.91,499.19 188.58,499.15C185.6,491.87 185.87,484 185.71,476.3C181.3,474.1 176.18,472.99 172.65,469.33C167.31,463.99 162.01,458.51 157.73,452.25C154.65,447.94 154.23,442.25 150.55,438.3C149.99,430.45 146.41,423.42 143.55,416.25C143.2,412.41 145.9,409.72 148.45,407.32C150.99,404.37 152.19,400.58 154.42,397.43C157.01,393.6 160.33,390.13 161.89,385.7C162.66,382.22 161.95,378.53 163.21,375.14C164.71,370.92 165.25,366.35 167.42,362.4C169.37,358.78 173.67,357.87 177.12,356.3C178.18,353.53 178.81,350.13 181.62,348.57Z" style="fill:rgb(238,208,178);fill-rule:nonzero;stroke:rgb(238,208,178);stroke-width:0.09px;"/>
        <path d="M86.86,530.68C88.94,530.38 91.19,529.86 93.21,530.71C99.57,546.81 103.55,563.96 112.44,579L62.64,579C59.99,573.91 57.9,568.56 55.85,563.21C54.08,557.46 53.28,551.44 51.26,545.76C57.07,540.09 64.78,537.14 72.13,534.09C77.04,532.96 81.92,531.66 86.86,530.68Z" style="fill:rgb(238,208,178);fill-rule:nonzero;stroke:rgb(238,208,178);stroke-width:0.09px;"/>
        <path d="M291.14,359.17C294.45,359.27 289.63,362.19 291.14,359.17Z" style="fill:rgb(170,179,185);fill-rule:nonzero;stroke:rgb(170,179,185);stroke-width:0.09px;"/>
        <path d="M192.13,383.05C193.16,378.29 194.42,373.58 195.75,368.9C200.63,371.98 204.75,376.16 209.73,379.09C215.07,381.83 220.76,379.27 225.56,376.72C230.16,376.02 235.03,377.45 239.56,375.8C239.5,381.88 240.63,387.87 240.98,393.93C236.46,388.83 228.84,390.41 223.82,393.86C224.01,394.55 224.37,395.94 224.56,396.63C229.82,397.09 235.76,394.43 240.42,397.8C235.88,409.53 240.89,422.35 237.32,434.26C235.74,439.72 233.59,445.01 232.26,450.54C231.9,451.7 231.5,452.87 231.11,454.03C230.48,454.01 229.86,454 229.24,453.99C228.89,461.1 225.82,467.64 222.08,473.56C221.56,473.93 220.5,474.68 219.98,475.05C211.88,479.26 202.21,480.41 193.51,477.45C191.71,476.7 190.64,474.96 189.56,473.45C185.25,466.95 182.21,459.69 179.86,452.27C177.06,442.31 177.11,431.72 178.49,421.54C179.01,416.96 181.08,412.72 181.57,408.16C180.69,405.09 177.36,402.13 179.72,398.93C187.49,396.42 195.64,396.37 203.71,396.64C204.17,395.64 204.71,394.7 205.33,393.81C198.72,390.92 190.64,389.47 184.07,393.25C183.58,393.16 182.58,392.99 182.08,392.9C185.25,389.38 191.59,388.46 192.13,383.05M204.21,405.96C206.57,411.88 208.03,418.4 206.81,424.76C205.39,427.25 203.3,429.62 204.13,432.72C208.38,434.29 213.25,436.05 217.63,433.91C216.84,422.86 214.06,412.07 211.71,401.27C208.99,402.14 205.06,402.79 204.21,405.96M230.25,405.23C229.5,408.31 234.16,410.59 235.96,407.94C237.76,406.07 236.53,403.52 234.82,402.13C233.06,402.75 231.17,403.47 230.25,405.23M191.37,404.31C190.03,405.91 189.46,409.32 191.96,410.11C194.75,411.94 198.26,407.49 195.97,405.12C195.02,403.5 192.86,403.57 191.37,404.31M202.01,445.29C202.17,446.35 202.28,447.41 202.35,448.49C208.8,449.04 215.29,448.41 221.68,447.57C224.1,447.31 226.85,446.06 227.07,443.32C218.73,442.16 210.05,442.71 202.01,445.29M209.1,454.28C210.81,457.49 214.38,458.51 217.81,457.72C220.16,457.63 220.25,454.78 221.02,453.14C217.01,453.01 213,453.38 209.1,454.28Z" style="fill:rgb(254,234,217);fill-rule:nonzero;stroke:rgb(254,234,217);stroke-width:0.09px;"/>
        <path d="M76.22,531.98C85.88,528.89 96.19,528.32 106.2,529.74C107.93,530.08 110.06,530.3 111.02,532.02C115.4,538.68 118.36,546.12 121.61,553.36C125.89,562.21 130.68,570.81 136.11,579L112.44,579C103.55,563.96 99.57,546.81 93.21,530.71C91.19,529.86 88.94,530.38 86.86,530.68C81.92,531.66 77.04,532.96 72.13,534.09C73.5,533.39 74.84,532.64 76.22,531.98Z" style="fill:rgb(254,234,217);fill-rule:nonzero;stroke:rgb(254,234,217);stroke-width:0.09px;"/>
        <path d="M184.07,393.25C190.64,389.47 198.72,390.92 205.33,393.81C204.71,394.7 204.17,395.64 203.71,396.64C195.64,396.37 187.49,396.42 179.72,398.93C178.48,399.23 177.24,399.52 176,399.82C178.61,397.53 181.3,395.33 184.07,393.25Z" style="fill:rgb(177,143,64);fill-rule:nonzero;stroke:rgb(177,143,64);stroke-width:0.09px;"/>
        <path d="M223.82,393.86C228.84,390.41 236.46,388.83 240.98,393.93C240.83,395.22 240.66,396.51 240.42,397.8C235.76,394.43 229.82,397.09 224.56,396.63C224.37,395.94 224.01,394.55 223.82,393.86Z" style="fill:rgb(179,144,63);fill-rule:nonzero;stroke:rgb(179,144,63);stroke-width:0.09px;"/>
        <path d="M402.6,421.66C405.45,414.14 406.19,405.71 410.83,398.95C412.51,405.89 411.85,413.09 412.66,420.14C413.35,430.24 414.81,440.35 414.24,450.49C406.11,450.48 397.99,450.58 389.87,450.43C393.8,440.7 399.26,431.64 402.6,421.66Z" style="fill:rgb(101,127,65);fill-rule:nonzero;stroke:rgb(101,127,65);stroke-width:0.09px;"/>
        <path d="M204.21,405.96C205.06,402.79 208.99,402.14 211.71,401.27C214.06,412.07 216.84,422.86 217.63,433.91C213.25,436.05 208.38,434.29 204.13,432.72C203.3,429.62 205.39,427.25 206.81,424.76C208.03,418.4 206.57,411.88 204.21,405.96Z" style="fill:rgb(237,208,178);fill-rule:nonzero;stroke:rgb(237,208,178);stroke-width:0.09px;"/>
        <path d="M230.25,405.23C231.17,403.47 233.06,402.75 234.82,402.13C236.53,403.52 237.76,406.07 235.96,407.94C234.16,410.59 229.5,408.31 230.25,405.23M233.12,404.18C231.41,404.61 232.2,407.5 233.89,407.1C235.6,406.67 234.75,403.84 233.12,404.18Z" style="fill:rgb(132,155,156);fill-rule:nonzero;stroke:rgb(132,155,156);stroke-width:0.09px;"/>
        <path d="M191.37,404.31C192.86,403.57 195.02,403.5 195.97,405.12C198.26,407.49 194.75,411.94 191.96,410.11C189.46,409.32 190.03,405.91 191.37,404.31M192.29,406.3C191.04,407.54 193.14,409.69 194.4,408.45C195.58,407.25 193.52,405.1 192.29,406.3Z" style="fill:rgb(132,155,156);fill-rule:nonzero;stroke:rgb(132,155,156);stroke-width:0.09px;"/>
        <path d="M233.12,404.18C234.75,403.84 235.6,406.67 233.89,407.1C232.2,407.5 231.41,404.61 233.12,404.18Z" style="fill:rgb(21,65,72);fill-rule:nonzero;stroke:rgb(21,65,72);stroke-width:0.09px;"/>
        <path d="M192.29,406.3C193.52,405.1 195.58,407.25 194.4,408.45C193.14,409.69 191.04,407.54 192.29,406.3Z" style="fill:rgb(21,65,72);fill-rule:nonzero;stroke:rgb(21,65,72);stroke-width:0.09px;"/>
        <path d="M109.27,433.35C115.63,431.68 122.28,432.39 128.76,432.59C133.43,432.8 135.25,437.82 137.05,441.35C137.5,444.68 137.53,448.04 137.54,451.39C135.92,451.68 133.55,450.78 132.71,452.69C130.83,457.79 131.37,463.44 131.77,468.76C130.03,464.95 133.38,459.02 128.43,456.96C128.37,457.48 128.25,458.53 128.19,459.06C127.39,457.76 126.61,456.47 125.84,455.17C125.2,455.18 123.93,455.19 123.29,455.2C122.73,458.27 122.29,461.38 122.14,464.51C120.49,463.35 118.98,461.98 118.08,460.15C117.57,459.21 117.06,458.28 116.55,457.36C115.48,457.43 114.4,457.41 113.33,457.3C112.3,461.12 111.97,465.08 112.23,469.02C110.32,467.91 108.55,466.58 107,465.01C106.25,463.71 105.5,462.42 104.75,461.12C104.03,461.6 103.32,462.08 102.6,462.56C102.26,465.09 101.88,467.63 101.74,470.19C99.94,467.27 97.74,464.4 97.3,460.89C96.76,458.58 96.94,455.68 94.7,454.22C91.79,451.27 87.66,453.68 84.27,454.27C85.78,449.75 87.48,445.19 90.46,441.41C93.41,437.31 98.82,436.69 103.03,434.45C105.12,434.11 107.21,433.82 109.27,433.35Z" style="fill:rgb(211,49,44);fill-rule:nonzero;stroke:rgb(211,49,44);stroke-width:0.09px;"/>
        <path d="M146.99,439.73C148.18,439.26 149.37,438.78 150.55,438.3C154.23,442.25 154.65,447.94 157.73,452.25C162.01,458.51 167.31,463.99 172.65,469.33C176.18,472.99 181.3,474.1 185.71,476.3C185.87,484 185.6,491.87 188.58,499.15C187.91,499.19 186.59,499.26 185.93,499.3C178.42,496.36 171.57,491.93 165.44,486.73C161.95,483.1 159.81,478.43 156.42,474.71C155.36,473.46 154.13,472.25 153.65,470.64C150.94,460.73 149.88,450.5 148.67,440.34C148.25,440.18 147.41,439.88 146.99,439.73Z" style="fill:rgb(222,194,164);fill-rule:nonzero;stroke:rgb(222,194,164);stroke-width:0.09px;"/>
        <path d="M137.05,441.35C140.44,441.47 143.86,441.13 146.99,439.73C147.41,439.88 148.25,440.18 148.67,440.34C149.88,450.5 150.94,460.73 153.65,470.64C154.13,472.25 155.36,473.46 156.42,474.71C159.81,478.43 161.95,483.1 165.44,486.73C163.5,488.9 161.26,490.93 158.24,491.27C155.16,486.03 152.2,480.47 147.42,476.56C143.72,475.54 139.69,476.48 135.86,475.99C134.21,479.11 130.22,478.05 127.39,479.11C123.71,480.51 120.41,482.84 117.5,485.46C112.26,490.58 111.57,498.24 108.01,504.34C101.32,497.39 96.14,489.18 89.86,481.89C85.55,484.76 83.39,489.71 81.5,494.34C77.84,506.54 76.89,519.32 76.22,531.98C74.84,532.64 73.5,533.39 72.13,534.09C64.78,537.14 57.07,540.09 51.26,545.76C48.42,548.5 46.25,551.8 44.17,555.13C41.89,544.39 43.27,533.32 44.41,522.53C46.29,504.64 51.53,487.03 60.28,471.28C64.23,463.95 71.64,459.39 79.12,456.29C80.81,455.56 82.52,454.85 84.27,454.27C87.66,453.68 91.79,451.27 94.7,454.22C96.94,455.68 96.76,458.58 97.3,460.89C97.74,464.4 99.94,467.27 101.74,470.19C102.2,473.27 102.59,476.36 103.23,479.41C103.69,479.11 104.61,478.5 105.07,478.19C106.53,473.98 106.93,469.45 107,465.01C108.55,466.58 110.32,467.91 112.23,469.02C112.84,470.98 113.63,472.87 114.34,474.8C118.91,471.62 119.43,465.12 118.08,460.15C118.98,461.98 120.49,463.35 122.14,464.51C122.12,467.82 122.46,471.19 124.08,474.15C127.72,470.07 127.46,464.15 128.19,459.06C128.25,458.53 128.37,457.48 128.43,456.96C133.38,459.02 130.03,464.95 131.77,468.76C132.8,469.53 133.88,470.24 134.92,471.02C138.04,464.93 138.01,458.04 137.54,451.39C137.53,448.04 137.5,444.68 137.05,441.35Z" style="fill:rgb(241,246,250);fill-rule:nonzero;stroke:rgb(241,246,250);stroke-width:0.09px;"/>
        <path d="M232.26,450.54C233.41,450.34 234.56,450.27 235.72,450.35C245.49,453.42 254.71,457.92 263.91,462.38C263.14,463.16 262.4,463.98 261.7,464.83C260.27,466.43 258.83,468.03 257.56,469.77C256.52,471.75 255.62,473.81 254.52,475.76C253.99,476.64 253.47,477.52 252.95,478.41C252.8,477.08 252.48,475.76 252.52,474.42C253.09,473.4 254.07,472.69 254.86,471.86C251.49,467.35 245.22,464.32 239.76,466.76C236.65,470.02 235.28,475.18 230.6,476.75C227.48,478.67 225.49,474.85 223.44,473.14C223.27,473.6 222.92,474.52 222.75,474.99C222.58,474.63 222.25,473.92 222.08,473.56C225.82,467.64 228.89,461.1 229.24,453.99C229.86,454 230.48,454.01 231.11,454.03C231.5,452.87 231.9,451.7 232.26,450.54Z" style="fill:rgb(241,246,250);fill-rule:nonzero;stroke:rgb(241,246,250);stroke-width:0.09px;"/>
        <path d="M202.01,445.29C210.05,442.71 218.73,442.16 227.07,443.32C226.85,446.06 224.1,447.31 221.68,447.57C215.29,448.41 208.8,449.04 202.35,448.49C202.28,447.41 202.17,446.35 202.01,445.29Z" style="fill:rgb(237,208,181);fill-rule:nonzero;stroke:rgb(237,208,181);stroke-width:0.09px;"/>
        <path d="M327.07,452.66C340.06,452.53 352.99,451.4 365.95,450.55C372.93,450.47 379.91,450.57 386.89,450.43L389.87,450.43C397.99,450.58 406.11,450.48 414.24,450.49C425.48,450.33 436.71,450.73 447.86,452.27C458.94,452.6 469.94,454.13 481,454.57L481,479.26C455.64,475.95 429.35,475.22 404.53,482.27C396.26,484.55 387.66,488.32 382.72,495.69C379.71,500.47 381.64,506.78 385.5,510.48C393.35,518.25 403.84,522.61 414.23,525.85C435.8,532.42 458.53,534.64 481,533.72L481,578.09C450.06,578.77 419.09,578.36 388.14,578.32C387.01,576.38 386.05,574.24 384.27,572.8C380.32,569.77 376.38,566.69 372.83,563.2C370.58,560.1 368.67,555.91 364.24,555.87C361.74,551.19 357.26,548.11 353.72,544.28C348.78,540.22 344.22,535.72 339.17,531.8C336.67,529.63 334.86,526.8 332.3,524.69C328.86,521.8 326.32,517.85 322.18,515.84C317.89,513.85 316.61,508.77 312.71,506.31C309.58,504.14 307.34,500.99 304.28,498.75C296.85,493.52 291.63,485.56 283.59,481.16C280.72,478.4 279.14,474.52 275.98,472.03C272.66,469.36 269.25,466.73 266.87,463.14C264.79,465.02 262.83,467.02 261,469.15C261.19,467.7 261.42,466.25 261.7,464.83C262.4,463.98 263.14,463.16 263.91,462.38C267.42,458.64 272.85,458.77 277.5,457.73C284.53,456.23 291.78,456.71 298.8,455.15C308.2,454.09 317.66,453.66 327.07,452.66Z" style="fill:rgb(0,165,201);fill-rule:nonzero;stroke:rgb(0,165,201);stroke-width:0.09px;"/>
        <path d="M231.5,579C234.75,554.74 239.56,530.71 245.07,506.87C245.84,507.71 246.97,507.76 248.04,507.83C250.66,510.04 251.73,513.67 254.79,515.39C257.9,517.03 257.88,521.28 260.84,523.16C265.82,526.68 269.49,532.69 275.92,533.6C276.01,535.3 276.34,537.06 277.82,538.15C283.35,543.18 288.03,549.29 294.67,552.97C298.44,554.94 300.41,558.85 303.06,561.97C305.27,564.64 308.73,565.73 311.27,568.03C313.55,570.1 315.86,572.15 318.38,573.93C318.16,574.93 318.02,575.95 317.89,576.98C319.77,577.68 321.64,578.43 323.57,579L231.5,579Z" style="fill:rgb(0,165,201);fill-rule:nonzero;stroke:rgb(0,165,201);stroke-width:0.09px;"/>
        <path d="M132.71,452.69C133.55,450.78 135.92,451.68 137.54,451.39C138.01,458.04 138.04,464.93 134.92,471.02C133.88,470.24 132.8,469.53 131.77,468.76C131.37,463.44 130.83,457.79 132.71,452.69Z" style="fill:rgb(6,3,5);fill-rule:nonzero;stroke:rgb(6,3,5);stroke-width:0.09px;"/>
        <path d="M209.1,454.28C213,453.38 217.01,453.01 221.02,453.14C220.25,454.78 220.16,457.63 217.81,457.72C214.38,458.51 210.81,457.49 209.1,454.28Z" style="fill:rgb(236,207,185);fill-rule:nonzero;stroke:rgb(236,207,185);stroke-width:0.09px;"/>
        <path d="M123.29,455.2C123.93,455.19 125.2,455.18 125.84,455.17C126.61,456.47 127.39,457.76 128.19,459.06C127.46,464.15 127.72,470.07 124.08,474.15C122.46,471.19 122.12,467.82 122.14,464.51C122.29,461.38 122.73,458.27 123.29,455.2Z" style="fill:rgb(6,4,3);fill-rule:nonzero;stroke:rgb(6,4,3);stroke-width:0.09px;"/>
        <path d="M113.33,457.3C114.4,457.41 115.48,457.43 116.55,457.36C117.06,458.28 117.57,459.21 118.08,460.15C119.43,465.12 118.91,471.62 114.34,474.8C113.63,472.87 112.84,470.98 112.23,469.02C111.97,465.08 112.3,461.12 113.33,457.3Z" style="fill:rgb(12,3,4);fill-rule:nonzero;stroke:rgb(12,3,4);stroke-width:0.09px;"/>
        <path d="M102.6,462.56C103.32,462.08 104.03,461.6 104.75,461.12C105.5,462.42 106.25,463.71 107,465.01C106.93,469.45 106.53,473.98 105.07,478.19C104.61,478.5 103.69,479.11 103.23,479.41C102.59,476.36 102.2,473.27 101.74,470.19C101.88,467.63 102.26,465.09 102.6,462.56Z" style="fill:rgb(6,2,3);fill-rule:nonzero;stroke:rgb(6,2,3);stroke-width:0.09px;"/>
        <path d="M261,469.15C262.83,467.02 264.79,465.02 266.87,463.14C269.25,466.73 272.66,469.36 275.98,472.03C279.14,474.52 280.72,478.4 283.59,481.16C291.63,485.56 296.85,493.52 304.28,498.75C307.34,500.99 309.58,504.14 312.71,506.31C316.61,508.77 317.89,513.85 322.18,515.84C326.32,517.85 328.86,521.8 332.3,524.69C334.86,526.8 336.67,529.63 339.17,531.8C344.22,535.72 348.78,540.22 353.72,544.28C357.26,548.11 361.74,551.19 364.24,555.87C368.67,555.91 370.58,560.1 372.83,563.2C376.38,566.69 380.32,569.77 384.27,572.8C386.05,574.24 387.01,576.38 388.14,578.32C383.96,578.18 379.52,579.1 375.54,577.53C372.48,574.91 370.46,571.2 366.96,569.06C362.87,566.57 359.87,562.81 356.46,559.53C347.54,552.17 339.34,544 331.16,535.84C325.54,531.14 320.43,525.88 314.82,521.18C309.65,516.69 305.77,510.92 300.35,506.72C293.7,501.72 287.81,495.83 281.33,490.63C276,485.28 269.93,480.74 264.65,475.34C262.9,473.64 261.58,471.53 261,469.15Z" style="fill:rgb(0,180,208);fill-rule:nonzero;stroke:rgb(0,180,208);stroke-width:0.09px;"/>
        <path d="M257.56,469.77C258.83,468.03 260.27,466.43 261.7,464.83C261.42,466.25 261.19,467.7 261,469.15C261.58,471.53 262.9,473.64 264.65,475.34C269.93,480.74 276,485.28 281.33,490.63C287.81,495.83 293.7,501.72 300.35,506.72C305.77,510.92 309.65,516.69 314.82,521.18C320.43,525.88 325.54,531.14 331.16,535.84C339.34,544 347.54,552.17 356.46,559.53C359.87,562.81 362.87,566.57 366.96,569.06C370.46,571.2 372.48,574.91 375.54,577.53C379.52,579.1 383.96,578.18 388.14,578.32C419.09,578.36 450.06,578.77 481,578.09L481,579L370.65,579C370.03,578.81 368.77,578.44 368.15,578.25C367.56,572.81 361.74,571.11 358.68,567.35C355.1,562.88 350.18,559.84 346.28,555.71C340.5,550.14 334.24,545.09 328.34,539.66C324,534.29 317.76,530.94 313.5,525.51C309.84,520.76 304.46,517.91 300.22,513.78C296.22,510.13 293.01,505.7 288.75,502.35C284.79,499.3 281.71,495.3 277.73,492.28C274.22,489.51 270.31,487.07 267.71,483.34C266.08,480.99 263.93,479.12 261.71,477.37C259.3,475.54 258.59,472.45 257.56,469.77Z" style="fill:rgb(78,193,220);fill-rule:nonzero;stroke:rgb(78,193,220);stroke-width:0.09px;"/>
        <path d="M239.76,466.76C245.22,464.32 251.49,467.35 254.86,471.86C254.07,472.69 253.09,473.4 252.52,474.42C252.48,475.76 252.8,477.08 252.95,478.41C251.68,482.9 250.23,487.32 248.88,491.78C248.42,493.31 247.97,494.85 247.55,496.4C246.96,498.59 246.39,500.79 245.88,503.01C245.6,504.29 245.33,505.57 245.07,506.87C239.56,530.71 234.75,554.74 231.5,579L136.11,579C130.68,570.81 125.89,562.21 121.61,553.36C118.36,546.12 115.4,538.68 111.02,532.02C110.06,530.3 107.93,530.08 106.2,529.74C96.19,528.32 85.88,528.89 76.22,531.98C76.89,519.32 77.84,506.54 81.5,494.34C83.39,489.71 85.55,484.76 89.86,481.89C96.14,489.18 101.32,497.39 108.01,504.34C111.57,498.24 112.26,490.58 117.5,485.46C120.41,482.84 123.71,480.51 127.39,479.11C130.22,478.05 134.21,479.11 135.86,475.99C139.69,476.48 143.72,475.54 147.42,476.56C152.2,480.47 155.16,486.03 158.24,491.27C161.26,490.93 163.5,488.9 165.44,486.73C171.57,491.93 178.42,496.36 185.93,499.3C194.64,503.04 205.37,503.64 213.61,498.4C218.78,495.3 223.06,490.32 224.22,484.29C224.95,481.11 223.83,477.93 222.75,474.99C222.92,474.52 223.27,473.6 223.44,473.14C225.49,474.85 227.48,478.67 230.6,476.75C235.28,475.18 236.65,470.02 239.76,466.76M187.87,530.38C193.46,530.95 197.56,525.06 197.37,519.91C192.04,520.54 188.25,525.16 187.87,530.38M169.47,542.03C168.27,550.51 171.67,559.36 177.69,565.34C180.35,568.17 184.09,565.93 187.1,565.12C191.34,563.57 195.58,568.68 199.62,565.8C203.22,563.14 205.13,558.84 207,554.91C204.12,552.64 200.85,550.01 200.75,546.01C199.99,541.84 202.66,538.26 205.6,535.66C203.37,532.74 199.64,531.1 195.99,531.46C193.21,531.69 190.75,533.35 187.98,533.52C185.01,532.88 182.17,531.12 179.04,531.67C173.99,532.49 170.11,537.05 169.47,542.03Z" style="fill:white;fill-rule:nonzero;stroke:white;stroke-width:0.09px;"/>
        <path d="M254.52,475.76C255.62,473.81 256.52,471.75 257.56,469.77C258.59,472.45 259.3,475.54 261.71,477.37C263.93,479.12 266.08,480.99 267.71,483.34C270.31,487.07 274.22,489.51 277.73,492.28C281.71,495.3 284.79,499.3 288.75,502.35C293.01,505.7 296.22,510.13 300.22,513.78C304.46,517.91 309.84,520.76 313.5,525.51C317.76,530.94 324,534.29 328.34,539.66C334.24,545.09 340.5,550.14 346.28,555.71C350.18,559.84 355.1,562.88 358.68,567.35C361.74,571.11 367.56,572.81 368.15,578.25C364.54,577.61 359.37,579.47 357.23,575.54C356.02,573.78 354.13,572.72 352.47,571.47C349.79,569.5 348.04,566.6 345.56,564.42C339.12,558.9 332.67,553.33 327.04,546.97C323.42,542.86 317.82,540.99 314.77,536.31C311.95,531.73 306.75,529.65 303.42,525.58C298.4,519.59 291.35,515.72 286.42,509.64C284.37,506.96 281.9,504.63 279,502.89C274.36,500 271.31,495.3 267.04,491.97C263.62,489.31 260.87,485.9 257.43,483.27C254.93,481.65 255.27,478.29 254.52,475.76Z" style="fill:rgb(117,201,225);fill-rule:nonzero;stroke:rgb(117,201,225);stroke-width:0.09px;"/>
        <path d="M219.98,475.05C220.5,474.68 221.56,473.93 222.08,473.56C222.25,473.92 222.58,474.63 222.75,474.99C223.83,477.93 224.95,481.11 224.22,484.29C223.06,490.32 218.78,495.3 213.61,498.4C214.29,496.55 215.14,494.78 216.03,493.03C218.98,487.52 219.34,481.14 219.98,475.05Z" style="fill:rgb(163,168,168);fill-rule:nonzero;stroke:rgb(163,168,168);stroke-width:0.09px;"/>
        <path d="M252.95,478.41C253.47,477.52 253.99,476.64 254.52,475.76C255.27,478.29 254.93,481.65 257.43,483.27C260.87,485.9 263.62,489.31 267.04,491.97C271.31,495.3 274.36,500 279,502.89C281.9,504.63 284.37,506.96 286.42,509.64C291.35,515.72 298.4,519.59 303.42,525.58C306.75,529.65 311.95,531.73 314.77,536.31C317.82,540.99 323.42,542.86 327.04,546.97C332.67,553.33 339.12,558.9 345.56,564.42C348.04,566.6 349.79,569.5 352.47,571.47C354.13,572.72 356.02,573.78 357.23,575.54C359.37,579.47 364.54,577.61 368.15,578.25C368.77,578.44 370.03,578.81 370.65,579L344.76,579C345.38,578.48 346,577.96 346.62,577.45C344.83,576.56 342.96,575.78 341.34,574.6C339.48,572.79 338.78,569.89 336.29,568.73C333.53,567.26 331.08,565.31 329.08,562.92C324.57,557.74 318.78,553.91 314.2,548.82C312.29,546.72 310.33,544.64 308.06,542.94C300.73,537.71 295.14,530.51 288.16,524.86C283.06,521 279,515.99 274.14,511.85C268.43,506.86 263.27,501.26 257.17,496.73C255.07,495.01 253.44,492.8 251.79,490.67C250.82,491.06 249.85,491.43 248.88,491.78C250.23,487.32 251.68,482.9 252.95,478.41Z" style="fill:rgb(151,210,235);fill-rule:nonzero;stroke:rgb(151,210,235);stroke-width:0.09px;"/>
        <path d="M404.53,482.27C429.35,475.22 455.64,475.95 481,479.26L481,491.42C468.23,488.56 455.02,487.73 441.99,488.78C434.05,489.59 425.93,490.96 418.83,494.8C417.23,495.58 416.16,497.02 415.08,498.38C420.06,498.63 424.99,497.8 429.93,497.39C446.91,495.91 463.94,494.57 481,494.64L481,509.79C461.58,510.16 442.16,511.32 422.86,513.56C428.39,517.01 434.84,518.37 441.1,519.86C454.17,522.67 467.71,523.12 481,521.86L481,533.72C458.53,534.64 435.8,532.42 414.23,525.85C403.84,522.61 393.35,518.25 385.5,510.48C381.64,506.78 379.71,500.47 382.72,495.69C387.66,488.32 396.26,484.55 404.53,482.27Z" style="fill:rgb(242,249,251);fill-rule:nonzero;stroke:rgb(242,249,251);stroke-width:0.09px;"/>
        <path d="M418.83,494.8C425.93,490.96 434.05,489.59 441.99,488.78C455.02,487.73 468.23,488.56 481,491.42L481,494.64C463.94,494.57 446.91,495.91 429.93,497.39C424.99,497.8 420.06,498.63 415.08,498.38C416.16,497.02 417.23,495.58 418.83,494.8Z" style="fill:rgb(0,125,153);fill-rule:nonzero;stroke:rgb(0,125,153);stroke-width:0.09px;"/>
        <path d="M248.88,491.78C249.85,491.43 250.82,491.06 251.79,490.67C253.44,492.8 255.07,495.01 257.17,496.73C263.27,501.26 268.43,506.86 274.14,511.85C279,515.99 283.06,521 288.16,524.86C295.14,530.51 300.73,537.71 308.06,542.94C310.33,544.64 312.29,546.72 314.2,548.82C318.78,553.91 324.57,557.74 329.08,562.92C331.08,565.31 333.53,567.26 336.29,568.73C338.78,569.89 339.48,572.79 341.34,574.6C342.96,575.78 344.83,576.56 346.62,577.45C346,577.96 345.38,578.48 344.76,579L336.48,579C338.25,578.59 340.01,578.11 341.78,577.67C337.45,576.55 334.33,573.35 331.19,570.39C327.31,567.43 324.34,563.51 320.78,560.21C298.26,541.15 277.77,519.86 255.72,500.28C254.03,498.8 252.51,497.13 251.08,495.4C249.91,495.74 248.73,496.07 247.55,496.4C247.97,494.85 248.42,493.31 248.88,491.78Z" style="fill:rgb(118,200,225);fill-rule:nonzero;stroke:rgb(118,200,225);stroke-width:0.09px;"/>
        <path d="M247.55,496.4C248.73,496.07 249.91,495.74 251.08,495.4C252.51,497.13 254.03,498.8 255.72,500.28C277.77,519.86 298.26,541.15 320.78,560.21C324.34,563.51 327.31,567.43 331.19,570.39C334.33,573.35 337.45,576.55 341.78,577.67C340.01,578.11 338.25,578.59 336.48,579L331.87,579C332.59,578.4 333.31,577.8 334.03,577.21C325.01,569.87 315.99,562.51 307.85,554.18C304.45,550.54 300.64,547.34 296.8,544.2C288.99,538.04 282.8,530.15 275.07,523.9C269.28,519.38 264.84,513.42 258.97,508.99C255.93,506.68 253.99,503.32 251.23,500.76C249.09,499.31 247.45,501.93 245.88,503.01C246.39,500.79 246.96,498.59 247.55,496.4Z" style="fill:rgb(76,193,219);fill-rule:nonzero;stroke:rgb(76,193,219);stroke-width:0.09px;"/>
        <path d="M245.88,503.01C247.45,501.93 249.09,499.31 251.23,500.76C253.99,503.32 255.93,506.68 258.97,508.99C264.84,513.42 269.28,519.38 275.07,523.9C282.8,530.15 288.99,538.04 296.8,544.2C300.64,547.34 304.45,550.54 307.85,554.18C315.99,562.51 325.01,569.87 334.03,577.21C333.31,577.8 332.59,578.4 331.87,579L323.57,579C321.64,578.43 319.77,577.68 317.89,576.98C318.02,575.95 318.16,574.93 318.38,573.93C315.86,572.15 313.55,570.1 311.27,568.03C308.73,565.73 305.27,564.64 303.06,561.97C300.41,558.85 298.44,554.94 294.67,552.97C288.03,549.29 283.35,543.18 277.82,538.15C276.34,537.06 276.01,535.3 275.92,533.6C269.49,532.69 265.82,526.68 260.84,523.16C257.88,521.28 257.9,517.03 254.79,515.39C251.73,513.67 250.66,510.04 248.04,507.83C246.97,507.76 245.84,507.71 245.07,506.87C245.33,505.57 245.6,504.29 245.88,503.01Z" style="fill:rgb(0,179,208);fill-rule:nonzero;stroke:rgb(0,179,208);stroke-width:0.09px;"/>
        <path d="M422.86,513.56C442.16,511.32 461.58,510.16 481,509.79L481,521.86C467.71,523.12 454.17,522.67 441.1,519.86C434.84,518.37 428.39,517.01 422.86,513.56Z" style="fill:rgb(0,126,155);fill-rule:nonzero;stroke:rgb(0,126,155);stroke-width:0.09px;"/>
        <path d="M169.47,542.03C170.11,537.05 173.99,532.49 179.04,531.67C182.17,531.12 185.01,532.88 187.98,533.52C190.75,533.35 193.21,531.69 195.99,531.46C199.64,531.1 203.37,532.74 205.6,535.66C202.66,538.26 199.99,541.84 200.75,546.01C200.85,550.01 204.12,552.64 207,554.91C205.13,558.84 203.22,563.14 199.62,565.8C195.58,568.68 191.34,563.57 187.1,565.12C184.09,565.93 180.35,568.17 177.69,565.34C171.67,559.36 168.27,550.51 169.47,542.03Z" style="fill-rule:nonzero;stroke:black;stroke-width:0.09px;"/>
        <path d="M51.26,545.76C53.28,551.44 54.08,557.46 55.85,563.21C51.48,561.48 45.88,560.1 44.17,555.13C46.25,551.8 48.42,548.5 51.26,545.76Z" style="fill:rgb(161,168,172);fill-rule:nonzero;stroke:rgb(161,168,172);stroke-width:0.09px;"/>
    </g>
</svg>
