<svg height="62" viewBox="0 0 72 62" width="72" xmlns="http://www.w3.org/2000/svg"><path d="m64 10h-30v26h-34v18c0 4.418 3.582 8 8 8h56c4.418 0 8-3.582 8-8v-36c0-4.418-3.582-8-8-8z" fill="#fe0000"/><path d="m34 10h-26c-4.418 0-8 3.582-8 8v18h34zm-12.126 9.22 4.07-1.096-2.982 2.974c-.242-.696-.614-1.33-1.088-1.878zm.502 3.78c0 2.692-2.182 4.876-4.876 4.876s-4.876-2.184-4.876-4.876 2.184-4.876 4.876-4.876 4.876 2.184 4.876 4.876zm0-8.444-1.096 4.07c-.546-.474-1.182-.846-1.878-1.088zm-4.876-1.306 1.084 4.068c-.35-.066-.714-.104-1.084-.104s-.734.038-1.084.104zm-1.902 4.288c-.696.242-1.33.614-1.878 1.088l-1.096-4.07zm-2.472 1.682c-.474.546-.846 1.182-1.088 1.878l-2.982-2.974zm-1.308 2.696c-.068.352-.104.714-.104 1.084s.036.734.104 1.084l-4.068-1.084zm.22 2.984c.242.696.616 1.332 1.088 1.878l-4.07 1.096zm.586 6.544 1.096-4.07c.546.472 1.182.846 1.878 1.088zm4.876 1.306-1.084-4.068c.352.068.714.104 1.084.104s.734-.036 1.084-.104zm1.902-4.288c.696-.242 1.332-.616 1.878-1.088l1.096 4.07zm2.472-1.682c.474-.546.846-1.182 1.088-1.878l2.982 2.974zm1.308-2.696c.068-.352.104-.714.104-1.084s-.036-.734-.104-1.084l4.068 1.084z" fill="#000095"/><path d="m18.584 17.318-1.084-4.068-1.084 4.068c.35-.066.714-.104 1.084-.104s.734.038 1.084.104zm-6.87 5.682c0-.37.036-.734.104-1.084l-4.068 1.084 4.068 1.084c-.066-.35-.104-.714-.104-1.084zm4.702 5.682 1.084 4.068 1.084-4.068c-.352.068-.714.104-1.084.104s-.734-.038-1.084-.104zm6.87-5.682c0 .37-.036.734-.104 1.084l4.068-1.084-4.068-1.084c.066.35.104.714.104 1.084zm-.91-8.444-2.974 2.982c.696.244 1.332.616 1.878 1.088zm-.502 12.224 4.07 1.096-2.982-2.974c-.242.696-.614 1.33-1.088 1.878zm-9.25 4.664 2.974-2.982c-.696-.242-1.332-.616-1.878-1.088zm.502-12.224-4.07-1.096 2.982 2.974c.242-.696.614-1.33 1.088-1.878zm6.276 9.242 2.974 2.982-1.096-4.07c-.548.474-1.182.846-1.878 1.088zm-7.364-3.562-2.982 2.974 4.07-1.096c-.474-.546-.846-1.18-1.088-1.878zm3.56-7.362-2.974-2.982 1.096 4.07c.548-.474 1.182-.846 1.878-1.088zm10.346.586-4.07 1.096c.474.546.846 1.182 1.088 1.878z" fill="#fff"/><path d="m22.376 23c0 2.693-2.183 4.876-4.876 4.876s-4.876-2.183-4.876-4.876 2.183-4.876 4.876-4.876 4.876 2.183 4.876 4.876z" fill="#fff"/><path d="m72 20.054c0-2.176-.387-4.263-1.098-6.194-.485 5.689-3.518 8.611-6.687 7.25-2.969-1.275-.968-6.246-.82-8.618.249-4.021-.013-8.623-7.317-12.45 3.035 5.806.352 9.413-2.463 9.633-3.122.243-5.982-2.684-4.926-7.434-3.418 2.519-3.518 6.758-2.463 9.5 1.1 2.859-.044 5.234-2.727 5.498-2.998.296-4.663-3.21-3.127-8.796-2.659 3.13-4.263 7.183-4.263 11.611 0 9.912 8.034 17.946 17.945 17.946 9.912 0 17.946-8.034 17.946-17.946z" fill="#f4900c"/><path d="m65.027 25.332c.156 3.255-2.704 4.531-4.243 3.915-2.223-.89-1.627-2.419-2.199-5.585-.572-3.167-2.771-5.366-6.025-6.334 2.375 6.685-1.317 9.149-3.252 9.589-1.976.45-3.961-.001-4.188-4.23-2.306 2.295-3.733 5.47-3.733 8.979 0 .389.024.771.058 1.151 3.241 3.203 7.692 5.183 12.609 5.183 4.918 0 9.369-1.98 12.61-5.183.034-.38.058-.762.058-1.151 0-2.308-.617-4.471-1.695-6.334z" fill="#ffcc4d"/></svg>