<?xml version="1.0" encoding="UTF-8" standalone="no"?>
<!DOCTYPE svg PUBLIC "-//W3C//DTD SVG 1.1//EN" "http://www.w3.org/Graphics/SVG/1.1/DTD/svg11.dtd">
<svg width="100%" height="100%" viewBox="0 0 900 600" version="1.1" xmlns="http://www.w3.org/2000/svg" xmlns:xlink="http://www.w3.org/1999/xlink" xml:space="preserve" xmlns:serif="http://www.serif.com/" style="fill-rule:evenodd;clip-rule:evenodd;stroke-linejoin:round;stroke-miterlimit:2;">
    <path d="M900,75C900,33.606 866.394,0 825,0L75,0C33.606,0 0,33.606 0,75L0,300L900,300L900,75Z" style="fill:rgb(0,128,255);"/>
    <g transform="matrix(1,0,0,0.960672,0,23.5968)">
        <path d="M900,521.93L900,287.719L0,287.719L0,521.93C0,565.018 33.606,600 75,600L825,600C866.394,600 900,565.018 900,521.93Z" style="fill:rgb(0,128,0);"/>
    </g>
    <circle cx="450" cy="300" r="200" style="fill:rgb(248,0,0);"/>
    <g>
        <g id="h">
            <g id="s" transform="matrix(0.19509,-0.980785,0.980785,0.19509,67.9738,682.826)">
                <circle cx="450" cy="140.625" r="20.625" style="fill:rgb(0,128,255);"/>
                <circle cx="450" cy="242.5" r="7.5" style="fill:rgb(0,128,255);"/>
                <g transform="matrix(0.991445,-0.130526,0.130526,0.991445,-35.308,61.3033)">
                    <path d="M450,140.625L450,242.5L462,242.5L480,140.625L450,140.625Z" style="fill:rgb(0,128,255);fill-rule:nonzero;"/>
                </g>
                <g transform="matrix(0.991445,0.130526,-0.130526,0.991445,43.0077,-56.1702)">
                    <path d="M450,140.625L450,242.5L438,242.5L420,140.625L450,140.625Z" style="fill:rgb(0,128,255);fill-rule:nonzero;"/>
                </g>
            </g>
            <g id="s1" serif:id="s" transform="matrix(0.55557,-0.83147,0.83147,0.55557,-49.4475,507.49)">
                <circle cx="450" cy="140.625" r="20.625" style="fill:rgb(0,128,255);"/>
                <circle cx="450" cy="242.5" r="7.5" style="fill:rgb(0,128,255);"/>
                <g transform="matrix(0.991445,-0.130526,0.130526,0.991445,-35.308,61.3033)">
                    <path d="M450,140.625L450,242.5L462,242.5L480,140.625L450,140.625Z" style="fill:rgb(0,128,255);fill-rule:nonzero;"/>
                </g>
                <g transform="matrix(0.991445,0.130526,-0.130526,0.991445,43.0077,-56.1702)">
                    <path d="M450,140.625L450,242.5L438,242.5L420,140.625L450,140.625Z" style="fill:rgb(0,128,255);fill-rule:nonzero;"/>
                </g>
            </g>
            <g id="s2" serif:id="s" transform="matrix(0.83147,-0.55557,0.55557,0.83147,-90.8324,300.566)">
                <circle cx="450" cy="140.625" r="20.625" style="fill:rgb(0,128,255);"/>
                <circle cx="450" cy="242.5" r="7.5" style="fill:rgb(0,128,255);"/>
                <g transform="matrix(0.991445,-0.130526,0.130526,0.991445,-35.308,61.3033)">
                    <path d="M450,140.625L450,242.5L462,242.5L480,140.625L450,140.625Z" style="fill:rgb(0,128,255);fill-rule:nonzero;"/>
                </g>
                <g transform="matrix(0.991445,0.130526,-0.130526,0.991445,43.0077,-56.1702)">
                    <path d="M450,140.625L450,242.5L438,242.5L420,140.625L450,140.625Z" style="fill:rgb(0,128,255);fill-rule:nonzero;"/>
                </g>
            </g>
            <g id="s3" serif:id="s" transform="matrix(0.980785,-0.19509,0.19509,0.980785,-49.8805,93.5551)">
                <circle cx="450" cy="140.625" r="20.625" style="fill:rgb(0,128,255);"/>
                <circle cx="450" cy="242.5" r="7.5" style="fill:rgb(0,128,255);"/>
                <g transform="matrix(0.991445,-0.130526,0.130526,0.991445,-35.308,61.3033)">
                    <path d="M450,140.625L450,242.5L462,242.5L480,140.625L450,140.625Z" style="fill:rgb(0,128,255);fill-rule:nonzero;"/>
                </g>
                <g transform="matrix(0.991445,0.130526,-0.130526,0.991445,43.0077,-56.1702)">
                    <path d="M450,140.625L450,242.5L438,242.5L420,140.625L450,140.625Z" style="fill:rgb(0,128,255);fill-rule:nonzero;"/>
                </g>
            </g>
            <g id="s4" serif:id="s" transform="matrix(0.980785,0.19509,-0.19509,0.980785,67.1737,-82.0262)">
                <circle cx="450" cy="140.625" r="20.625" style="fill:rgb(0,128,255);"/>
                <circle cx="450" cy="242.5" r="7.5" style="fill:rgb(0,128,255);"/>
                <g transform="matrix(0.991445,-0.130526,0.130526,0.991445,-35.308,61.3033)">
                    <path d="M450,140.625L450,242.5L462,242.5L480,140.625L450,140.625Z" style="fill:rgb(0,128,255);fill-rule:nonzero;"/>
                </g>
                <g transform="matrix(0.991445,0.130526,-0.130526,0.991445,43.0077,-56.1702)">
                    <path d="M450,140.625L450,242.5L438,242.5L420,140.625L450,140.625Z" style="fill:rgb(0,128,255);fill-rule:nonzero;"/>
                </g>
            </g>
            <g id="s5" serif:id="s" transform="matrix(0.83147,0.55557,-0.55557,0.83147,242.51,-199.447)">
                <circle cx="450" cy="140.625" r="20.625" style="fill:rgb(0,128,255);"/>
                <circle cx="450" cy="242.5" r="7.5" style="fill:rgb(0,128,255);"/>
                <g transform="matrix(0.991445,-0.130526,0.130526,0.991445,-35.308,61.3033)">
                    <path d="M450,140.625L450,242.5L462,242.5L480,140.625L450,140.625Z" style="fill:rgb(0,128,255);fill-rule:nonzero;"/>
                </g>
                <g transform="matrix(0.991445,0.130526,-0.130526,0.991445,43.0077,-56.1702)">
                    <path d="M450,140.625L450,242.5L438,242.5L420,140.625L450,140.625Z" style="fill:rgb(0,128,255);fill-rule:nonzero;"/>
                </g>
            </g>
            <g id="s6" serif:id="s" transform="matrix(0.55557,0.83147,-0.83147,0.55557,449.434,-240.832)">
                <circle cx="450" cy="140.625" r="20.625" style="fill:rgb(0,128,255);"/>
                <circle cx="450" cy="242.5" r="7.5" style="fill:rgb(0,128,255);"/>
                <g transform="matrix(0.991445,-0.130526,0.130526,0.991445,-35.308,61.3033)">
                    <path d="M450,140.625L450,242.5L462,242.5L480,140.625L450,140.625Z" style="fill:rgb(0,128,255);fill-rule:nonzero;"/>
                </g>
                <g transform="matrix(0.991445,0.130526,-0.130526,0.991445,43.0077,-56.1702)">
                    <path d="M450,140.625L450,242.5L438,242.5L420,140.625L450,140.625Z" style="fill:rgb(0,128,255);fill-rule:nonzero;"/>
                </g>
            </g>
            <g id="s7" serif:id="s" transform="matrix(0.19509,0.980785,-0.980785,0.19509,656.445,-199.88)">
                <circle cx="450" cy="140.625" r="20.625" style="fill:rgb(0,128,255);"/>
                <circle cx="450" cy="242.5" r="7.5" style="fill:rgb(0,128,255);"/>
                <g transform="matrix(0.991445,-0.130526,0.130526,0.991445,-35.308,61.3033)">
                    <path d="M450,140.625L450,242.5L462,242.5L480,140.625L450,140.625Z" style="fill:rgb(0,128,255);fill-rule:nonzero;"/>
                </g>
                <g transform="matrix(0.991445,0.130526,-0.130526,0.991445,43.0077,-56.1702)">
                    <path d="M450,140.625L450,242.5L438,242.5L420,140.625L450,140.625Z" style="fill:rgb(0,128,255);fill-rule:nonzero;"/>
                </g>
            </g>
        </g>
    </g>
    <g id="h1" serif:id="h" transform="matrix(-1,-7.65714e-16,7.65714e-16,-1,900,600)">
        <g id="s8" serif:id="s" transform="matrix(0.19509,-0.980785,0.980785,0.19509,67.9738,682.826)">
            <circle cx="450" cy="140.625" r="20.625" style="fill:rgb(0,128,0);"/>
            <circle cx="450" cy="242.5" r="7.5" style="fill:rgb(0,128,0);"/>
            <g transform="matrix(0.991445,-0.130526,0.130526,0.991445,-35.308,61.3033)">
                <path d="M450,140.625L450,242.5L462,242.5L480,140.625L450,140.625Z" style="fill:rgb(0,128,0);fill-rule:nonzero;"/>
            </g>
            <g transform="matrix(0.991445,0.130526,-0.130526,0.991445,43.0077,-56.1702)">
                <path d="M450,140.625L450,242.5L438,242.5L420,140.625L450,140.625Z" style="fill:rgb(0,128,0);fill-rule:nonzero;"/>
            </g>
        </g>
        <g id="s9" serif:id="s" transform="matrix(0.55557,-0.83147,0.83147,0.55557,-49.4475,507.49)">
            <circle cx="450" cy="140.625" r="20.625" style="fill:rgb(0,128,0);"/>
            <circle cx="450" cy="242.5" r="7.5" style="fill:rgb(0,128,0);"/>
            <g transform="matrix(0.991445,-0.130526,0.130526,0.991445,-35.308,61.3033)">
                <path d="M450,140.625L450,242.5L462,242.5L480,140.625L450,140.625Z" style="fill:rgb(0,128,0);fill-rule:nonzero;"/>
            </g>
            <g transform="matrix(0.991445,0.130526,-0.130526,0.991445,43.0077,-56.1702)">
                <path d="M450,140.625L450,242.5L438,242.5L420,140.625L450,140.625Z" style="fill:rgb(0,128,0);fill-rule:nonzero;"/>
            </g>
        </g>
        <g id="s10" serif:id="s" transform="matrix(0.83147,-0.55557,0.55557,0.83147,-90.8324,300.566)">
            <circle cx="450" cy="140.625" r="20.625" style="fill:rgb(0,128,0);"/>
            <circle cx="450" cy="242.5" r="7.5" style="fill:rgb(0,128,0);"/>
            <g transform="matrix(0.991445,-0.130526,0.130526,0.991445,-35.308,61.3033)">
                <path d="M450,140.625L450,242.5L462,242.5L480,140.625L450,140.625Z" style="fill:rgb(0,128,0);fill-rule:nonzero;"/>
            </g>
            <g transform="matrix(0.991445,0.130526,-0.130526,0.991445,43.0077,-56.1702)">
                <path d="M450,140.625L450,242.5L438,242.5L420,140.625L450,140.625Z" style="fill:rgb(0,128,0);fill-rule:nonzero;"/>
            </g>
        </g>
        <g id="s11" serif:id="s" transform="matrix(0.980785,-0.19509,0.19509,0.980785,-49.8805,93.5551)">
            <circle cx="450" cy="140.625" r="20.625" style="fill:rgb(0,128,0);"/>
            <circle cx="450" cy="242.5" r="7.5" style="fill:rgb(0,128,0);"/>
            <g transform="matrix(0.991445,-0.130526,0.130526,0.991445,-35.308,61.3033)">
                <path d="M450,140.625L450,242.5L462,242.5L480,140.625L450,140.625Z" style="fill:rgb(0,128,0);fill-rule:nonzero;"/>
            </g>
            <g transform="matrix(0.991445,0.130526,-0.130526,0.991445,43.0077,-56.1702)">
                <path d="M450,140.625L450,242.5L438,242.5L420,140.625L450,140.625Z" style="fill:rgb(0,128,0);fill-rule:nonzero;"/>
            </g>
        </g>
        <g id="s12" serif:id="s" transform="matrix(0.980785,0.19509,-0.19509,0.980785,67.1737,-82.0262)">
            <circle cx="450" cy="140.625" r="20.625" style="fill:rgb(0,128,0);"/>
            <circle cx="450" cy="242.5" r="7.5" style="fill:rgb(0,128,0);"/>
            <g transform="matrix(0.991445,-0.130526,0.130526,0.991445,-35.308,61.3033)">
                <path d="M450,140.625L450,242.5L462,242.5L480,140.625L450,140.625Z" style="fill:rgb(0,128,0);fill-rule:nonzero;"/>
            </g>
            <g transform="matrix(0.991445,0.130526,-0.130526,0.991445,43.0077,-56.1702)">
                <path d="M450,140.625L450,242.5L438,242.5L420,140.625L450,140.625Z" style="fill:rgb(0,128,0);fill-rule:nonzero;"/>
            </g>
        </g>
        <g id="s13" serif:id="s" transform="matrix(0.83147,0.55557,-0.55557,0.83147,242.51,-199.447)">
            <circle cx="450" cy="140.625" r="20.625" style="fill:rgb(0,128,0);"/>
            <circle cx="450" cy="242.5" r="7.5" style="fill:rgb(0,128,0);"/>
            <g transform="matrix(0.991445,-0.130526,0.130526,0.991445,-35.308,61.3033)">
                <path d="M450,140.625L450,242.5L462,242.5L480,140.625L450,140.625Z" style="fill:rgb(0,128,0);fill-rule:nonzero;"/>
            </g>
            <g transform="matrix(0.991445,0.130526,-0.130526,0.991445,43.0077,-56.1702)">
                <path d="M450,140.625L450,242.5L438,242.5L420,140.625L450,140.625Z" style="fill:rgb(0,128,0);fill-rule:nonzero;"/>
            </g>
        </g>
        <g id="s14" serif:id="s" transform="matrix(0.55557,0.83147,-0.83147,0.55557,449.434,-240.832)">
            <circle cx="450" cy="140.625" r="20.625" style="fill:rgb(0,128,0);"/>
            <circle cx="450" cy="242.5" r="7.5" style="fill:rgb(0,128,0);"/>
            <g transform="matrix(0.991445,-0.130526,0.130526,0.991445,-35.308,61.3033)">
                <path d="M450,140.625L450,242.5L462,242.5L480,140.625L450,140.625Z" style="fill:rgb(0,128,0);fill-rule:nonzero;"/>
            </g>
            <g transform="matrix(0.991445,0.130526,-0.130526,0.991445,43.0077,-56.1702)">
                <path d="M450,140.625L450,242.5L438,242.5L420,140.625L450,140.625Z" style="fill:rgb(0,128,0);fill-rule:nonzero;"/>
            </g>
        </g>
        <g id="s15" serif:id="s" transform="matrix(0.19509,0.980785,-0.980785,0.19509,656.445,-199.88)">
            <circle cx="450" cy="140.625" r="20.625" style="fill:rgb(0,128,0);"/>
            <circle cx="450" cy="242.5" r="7.5" style="fill:rgb(0,128,0);"/>
            <g transform="matrix(0.991445,-0.130526,0.130526,0.991445,-35.308,61.3033)">
                <path d="M450,140.625L450,242.5L462,242.5L480,140.625L450,140.625Z" style="fill:rgb(0,128,0);fill-rule:nonzero;"/>
            </g>
            <g transform="matrix(0.991445,0.130526,-0.130526,0.991445,43.0077,-56.1702)">
                <path d="M450,140.625L450,242.5L438,242.5L420,140.625L450,140.625Z" style="fill:rgb(0,128,0);fill-rule:nonzero;"/>
            </g>
        </g>
    </g>
</svg>
