<svg width="72" height="62" viewBox="0 0 72 62" xmlns="http://www.w3.org/2000/svg" xmlns:xlink="http://www.w3.org/1999/xlink">
    <g id="Group">
        <path id="Path-copy-2" fill="#ce2028" stroke="none" d="M 71.980766 54.004272 C 71.980766 58.419914 68.400681 62 63.985043 62 L 8.014957 62 C 3.599317 62 0.019231 58.419914 0.019231 54.004272 L 0.019231 46.008545 L 71.980766 46.008545 L 71.980766 54.004272 Z"/>
        <path id="Path-copy-1" fill="#22408c" stroke="none" d="M 0.019231 26.01923 L 71.980766 26.01923 L 71.980766 46.008545 L 0.019231 46.008545 Z"/>
        <path id="Path-copy" fill="#eeeeee" stroke="none" d="M 63.985043 10.027779 L 8.014957 10.027779 C 3.599317 10.027779 0.019231 13.607864 0.019231 18.023506 L 0.019231 26.01923 L 71.980766 26.01923 L 71.980766 18.023506 C 71.980766 13.607864 68.400681 10.027779 63.985043 10.027779 Z"/>
    </g>
    <path id="Path" fill="#f4900c" stroke="none" d="M 72 20.054001 C 72 17.877998 71.612999 15.791 70.902 13.860001 C 70.417 19.549 67.384003 22.471001 64.214996 21.110001 C 61.245998 19.834999 63.247002 14.863998 63.395 12.492001 C 63.644001 8.471001 63.382 3.868999 56.077999 0.042 C 59.112999 5.848 56.43 9.455002 53.615002 9.674999 C 50.493 9.917999 47.632999 6.991001 48.688999 2.241001 C 45.271 4.760002 45.171001 8.999001 46.226002 11.741001 C 47.326 14.599998 46.181999 16.974998 43.499001 17.238998 C 40.500999 17.535 38.835999 14.028999 40.372002 8.443001 C 37.713001 11.572998 36.109001 15.625999 36.109001 20.054001 C 36.109001 29.966 44.143002 38 54.054001 38 C 63.966 38 72 29.966 72 20.054001 Z"/>
    <path id="path1" fill="#ffcc4d" stroke="none" d="M 65.027 25.332001 C 65.182999 28.586998 62.323002 29.862999 60.784 29.247002 C 58.561001 28.357002 59.157001 26.827999 58.584999 23.662003 C 58.013 20.495003 55.813999 18.295998 52.560001 17.327999 C 54.935001 24.013 51.243 26.476997 49.307999 26.917 C 47.332001 27.367001 45.347 26.916 45.119999 22.687 C 42.813999 24.982002 41.387001 28.156998 41.387001 31.666 C 41.387001 32.055 41.410999 32.437 41.445 32.817001 C 44.686001 36.02 49.137001 38 54.054001 38 C 58.972 38 63.423 36.02 66.664001 32.817001 C 66.697998 32.437 66.722 32.055 66.722 31.666 C 66.722 29.358002 66.105003 27.195 65.027 25.332001 Z"/>
</svg>
