<svg xmlns="http://www.w3.org/2000/svg" width="72" height="62" viewBox="0 0 72 62"><path fill="#006c35" d="M64 10 L8 10 C3.582 10 0 13.582 0 18 L0 54 C0 58.418 3.582 62 8 62 L64 62 C68.418 62 72 58.418 72 54 L72 18 C72 13.582 68.418 10 64 10 Z"/><g fill="#fff"><path d="M17.838 28.1 C19.102 28.22 18.404 25.962 18.862 25.552 18.948 25.35 19.108 25.348 19.12 25.604 L19.12 27.52 C19.108 28.144 19.518 28.326 19.836 28.456 20.168 28.43 20.388 28.442 20.518 28.764 L20.674 32.08 C20.674 32.08 21.442 32.3 21.478 30.214 21.516 28.99 21.234 27.966 21.4 27.728 21.406 27.494 21.704 27.48 21.912 27.594 22.242 27.826 22.39 28.114 22.902 28 23.684 27.786 24.152 27.406 24.164 26.806 24.118 26.236 24.054 25.666 23.808 25.096 23.842 24.992 23.658 24.724 23.692 24.62 23.832 24.84 24.046 24.822 24.094 24.62 23.962 24.182 23.756 23.762 23.42 23.58 23.144 23.336 22.74 23.386 22.592 23.894 22.524 24.478 22.804 25.174 23.228 25.74 23.318 25.962 23.446 26.33 23.39 26.662 23.164 26.79 22.936 26.738 22.748 26.538 22.748 26.538 22.126 26.072 22.126 25.968 22.292 24.912 22.164 24.792 22.072 24.5 22.008 24.096 21.816 23.966 21.66 23.69 21.504 23.526 21.294 23.526 21.194 23.69 20.918 24.166 21.046 25.19 21.246 25.648 21.388 26.068 21.608 26.334 21.504 26.334 21.418 26.572 21.242 26.516 21.114 26.242 20.93 25.674 20.894 24.828 20.894 24.446 20.838 23.974 20.778 22.964 20.468 22.708 20.278 22.45 19.996 22.574 19.898 22.812 19.878 23.28 19.874 23.75 19.928 24.184 20.14 24.942 20.208 25.61 20.312 26.388 20.34 27.43 19.71 26.84 19.738 26.324 19.884 25.654 19.846 24.598 19.716 24.33 19.614 24.064 19.492 23.996 19.244 24.04 19.048 24.024 18.54 24.58 18.396 25.5 18.396 25.5 18.274 25.974 18.222 26.396 18.152 26.872 17.84 27.208 17.62 26.33 17.43 25.692 17.314 24.118 16.996 24.486 16.904 25.716 16.794 27.88 17.838 28.1 Z"/><path d="M19.74 28.998 C18.7 29.018 17.178 30.364 17.136 31.11 18.232 30.582 19.31 30.074 20.426 29.53 20.246 29.26 20.416 29.018 19.74 28.998 Z"/><path d="M25.474 33.032 C25.956 31.426 25.396 30.242 25.658 30.248 26.212 30.846 26.988 30.328 27.158 30.12 27.232 30.016 27.414 29.948 27.542 30.084 27.976 30.396 28.74 30.248 28.898 29.7 28.99 29.164 29.064 28.608 29.082 28.034 28.728 28.144 28.464 28.218 28.44 28.364 L28.366 28.84 C28.336 28.994 28.03 29 28.018 28.804 27.884 28.194 27.328 28.114 26.992 29.06 26.766 29.244 26.358 29.28 26.314 29.006 26.368 28.372 26.112 28.286 25.6 28.584 25.436 27.326 25.27 26.124 25.106 24.866 25.32 24.86 25.516 25.018 25.71 24.774 25.496 24.108 25.044 22.748 24.794 22.65 24.672 22.502 24.568 22.594 24.41 22.632 24.142 22.718 23.892 22.95 23.97 23.4 24.288 25.33 24.496 26.8 24.812 28.73 24.86 28.956 24.672 29.254 24.428 29.224 24.014 28.944 23.91 28.376 23.202 28.4 22.688 28.406 22.102 28.962 22.03 29.5 21.944 29.926 21.914 30.39 22.03 30.764 22.39 31.196 22.824 31.154 23.202 31.056 23.512 30.928 23.77 30.616 23.878 30.69 23.952 30.78 23.896 31.806 22.414 32.594 21.516 32.996 20.802 33.088 20.418 32.356 20.18 31.898 20.436 30.158 19.85 30.562 18.116 35.032 23.91 35.652 24.558 30.746 24.62 30.544 24.864 30.342 24.906 30.672 24.772 35.116 20.424 35.422 19.686 34.024 19.502 33.694 19.448 32.962 19.43 32.522 19.32 31.648 18.862 31.984 18.79 32.85 18.716 33.332 18.736 33.468 18.736 33.93 18.966 37.44 24.566 35.932 25.474 33.032 Z M23.314 29.996 C23.278 30.064 23.12 30.036 23.004 30.036 22.872 30.03 22.81 30.008 22.73 29.902 22.694 29.782 22.806 29.668 22.856 29.578 22.918 29.472 23.252 29.362 23.37 29.658 23.422 29.792 23.376 29.93 23.314 29.996 Z"/><path d="M27.204 26.018 C27.552 25.89 29.202 24.004 29.202 24.004 29.116 23.93 29.04 23.876 28.954 23.802 28.862 23.722 28.872 23.642 28.954 23.564 29.362 23.326 29.232 22.804 29.018 22.566 28.664 22.406 28.356 22.458 28.13 22.574 27.844 22.848 27.776 23.288 28.002 23.564 28.222 23.668 28.442 23.89 28.296 24.012 27.622 24.732 25.774 25.974 25.988 26.018 26.034 26.078 27.168 26.076 27.204 26.018 Z M28.426 23.056 C28.532 23.03 28.668 23.124 28.732 23.264 28.796 23.404 28.762 23.538 28.658 23.564 L28.654 23.564 C28.55 23.59 28.414 23.496 28.35 23.356 28.288 23.214 28.322 23.082 28.426 23.056 Z M17.724 34.516 C17.452 35.07 17.338 34.69 17.314 34.38 17.272 33.792 17.328 33.25 17.392 32.822 17.46 32.382 17.392 32.516 17.252 32.694 16.634 33.678 16.58 35.15 16.922 35.588 17.102 35.796 17.4 35.888 17.622 35.82 18.01 35.652 18.18 34.864 18.088 34.578 17.956 34.376 17.854 34.344 17.724 34.516 Z M38.086 24.1 C38.798 25.056 39.474 26.03 40.136 27.022 40.266 27.882 40.36 28.722 40.416 29.556 40.526 31.164 40.558 32.904 40.458 34.598 40.758 34.61 41.244 34.11 41.412 33.38 41.522 32.37 41.372 30.572 41.362 29.976 41.352 29.658 41.332 29.268 41.308 28.856 42.096 30.144 42.864 31.492 43.614 32.99 43.888 32.862 43.828 31.33 43.668 31.114 43.068 29.828 42.242 28.556 41.978 28.068 41.88 27.888 41.546 27.376 41.148 26.79 41.086 26.118 41.024 25.574 40.98 25.394 40.856 24.538 41.334 25.488 41.268 24.99 41.114 24.134 40.638 23.556 40.082 22.772 39.902 22.518 39.908 22.466 39.63 22.834 39.514 23.096 39.492 23.322 39.498 23.536 39.426 23.43 39.346 23.32 39.22 23.166 38.738 22.752 38.71 22.728 38.31 22.39 38.108 22.246 37.616 21.986 37.528 22.418 37.484 22.8 37.508 23.006 37.572 23.326 37.624 23.54 37.934 23.896 38.086 24.1 Z M39.566 24.052 C39.604 24.218 39.644 24.384 39.67 24.554 L39.7 24.716 C39.582 24.556 39.484 24.424 39.438 24.372 39.11 23.984 39.382 24.068 39.566 24.052 Z"/><path d="M43.838 33.386 C43.142 34.112 42.138 35.006 41.046 35.42 40.928 35.552 41.338 36.118 41.866 36.118 42.752 36.014 43.532 35.516 44.254 34.206 44.448 33.902 44.788 33.248 44.796 32.74 44.862 29.768 44.648 27.454 44.202 25.306 44.172 25.098 44.19 24.852 44.226 24.788 44.282 24.72 44.478 24.788 44.582 24.62 44.732 24.464 44.18 23.184 43.864 22.692 43.752 22.472 43.714 22.324 43.528 22.718 43.332 23.038 43.202 23.596 43.218 24.116 43.64 27.042 43.77 29.604 44.046 32.53 44.068 32.812 44.026 33.224 43.838 33.386 Z M55.498 25.966 C55.468 25.758 55.376 25.274 55.412 25.212 55.468 25.064 55.758 25.228 55.862 25.058 56.014 24.904 55.114 23.748 54.8 23.256 54.686 23.036 54.648 22.888 54.462 23.282 54.266 23.602 54.198 24.176 54.276 24.68 54.746 27.858 55.096 30.246 55.168 33.064 55.126 33.332 55.118 33.476 54.992 33.812 54.714 34.168 54.408 34.612 54.118 34.828 53.83 35.042 53.216 35.248 53.014 35.406 52.38 35.776 52.378 36.198 52.894 36.212 53.778 36.108 54.826 36.036 55.548 34.944 55.742 34.64 55.972 33.814 55.982 33.306 56.048 30.334 55.944 28.114 55.498 25.966 Z M48.796 28.44 C48.804 28.032 48.842 27.492 48.864 27.154 48.874 27.028 48.904 26.886 49.024 26.854 49.146 26.822 49.362 26.978 49.364 26.846 49.34 26.588 49.288 26.204 49.142 26.022 48.942 25.726 48.412 25.798 48.318 26.262 48.32 26.434 48.398 26.526 48.384 26.682 48.36 26.77 48.268 26.83 48.05 26.726 48.086 26.694 47.908 26.448 47.908 26.448 47.738 26.344 47.51 26.454 47.364 26.548 47.282 26.696 47.224 26.95 47.316 27.208 47.556 27.662 48.394 28.432 48.796 28.44 Z"/><path d="M48.514 24.962 C49.1 25.68 49.698 26.408 50.3 27.148 50.43 28.8 50.464 30.152 50.592 31.804 50.574 32.504 50.358 33.114 50.152 33.202 50.152 33.202 49.842 33.382 49.634 33.184 49.482 33.122 48.876 32.174 48.876 32.174 48.566 31.89 48.362 31.97 48.142 32.174 47.534 32.76 47.26 33.86 46.848 34.616 46.74 34.786 46.44 34.93 46.106 34.604 45.26 33.446 45.756 31.8 45.652 32.224 44.898 33.074 45.23 34.48 45.4 34.784 45.648 35.28 45.85 35.6 46.334 35.846 46.774 36.17 47.118 35.966 47.306 35.74 47.75 35.278 47.756 34.108 47.964 33.872 48.108 33.446 48.478 33.518 48.656 33.708 48.83 33.956 49.034 34.116 49.286 34.254 49.7 34.62 50.194 34.686 50.68 34.352 51.012 34.166 51.23 33.924 51.424 33.446 51.64 32.87 51.522 30.222 51.478 28.634 51.788 29.034 52.09 29.452 52.396 29.87 52.53 31.196 52.606 32.516 52.562 33.864 52.53 34.134 53.502 33.064 53.494 32.556 53.49 32.146 53.494 31.774 53.494 31.424 53.962 32.128 54.418 32.854 54.846 33.622 55.114 33.482 55.026 31.972 54.856 31.764 54.362 30.936 53.704 30.074 53.25 29.458 53.22 29.38 53.204 29.292 53.168 29.218 52.986 28.796 53.1 28.456 53.014 28.008 52.93 27.558 52.952 26.886 52.822 26.352 52.786 26.144 52.678 25.476 52.71 25.414 52.762 25.264 52.962 25.418 53.06 25.246 53.206 25.086 52.554 23.396 52.222 22.912 52.102 22.696 51.886 22.77 51.618 23.122 51.372 23.354 51.464 23.882 51.558 24.384 51.792 25.6 51.988 26.766 52.156 27.92 51.834 27.49 51.444 26.982 51.066 26.494 L51.05 26.406 C51.05 26.384 50.996 25.358 50.948 25.114 50.94 25.016 50.916 24.986 51.02 24.998 51.13 25.09 51.144 25.096 51.214 25.128 51.326 25.148 51.424 24.958 51.358 24.784 L50.324 22.88 C50.242 22.798 50.134 22.71 50.004 22.902 49.878 23.012 49.744 23.212 49.748 23.468 49.78 23.918 49.858 24.378 49.888 24.83 L49.932 25.074 C49.886 25.02 49.83 24.952 49.806 24.928 48.928 24.004 50.21 24.778 49.638 24.064 49.154 23.532 49.014 23.366 48.598 23.046 48.39 22.912 48.264 22.656 48.196 23.092 48.17 23.474 48.142 23.92 48.166 24.242 48.166 24.426 48.352 24.762 48.514 24.962 Z M30.712 27.12 C31.216 27.328 31.538 26.368 31.746 25.316 31.886 25.02 31.994 24.988 32.066 25.14 32.048 26.54 32.166 26.85 32.526 27.276 33.328 27.896 33.992 27.354 34.046 27.302 L34.67 26.678 C34.808 26.532 34.994 26.522 35.19 26.652 35.382 26.824 35.356 27.124 35.764 27.332 36.108 27.47 36.844 27.364 37.014 27.068 37.244 26.676 37.3 26.54 37.404 26.392 37.568 26.174 37.848 26.272 37.848 26.34 37.822 26.462 37.658 26.584 37.77 26.802 37.966 26.948 38.01 26.854 38.126 26.822 38.534 26.626 38.838 25.742 38.838 25.742 38.856 25.412 38.672 25.44 38.552 25.508 38.396 25.602 38.386 25.634 38.23 25.73 38.03 25.76 37.644 25.892 37.454 25.596 37.258 25.24 37.254 24.744 37.106 24.386 37.106 24.36 36.846 23.82 37.088 23.786 37.21 23.808 37.468 23.876 37.51 23.66 37.636 23.448 37.236 22.844 36.964 22.538 36.726 22.278 36.396 22.246 36.078 22.512 35.854 22.718 35.886 22.946 35.842 23.164 35.786 23.412 35.798 23.72 36.052 24.05 36.274 24.488 36.68 25.054 36.546 25.846 36.546 25.846 36.31 26.222 35.896 26.174 35.724 26.136 35.444 26.062 35.296 24.962 35.184 24.128 35.324 22.962 34.97 22.416 34.842 22.086 34.75 21.768 34.438 22.332 34.354 22.554 33.994 22.89 34.256 23.584 34.47 24.022 34.556 24.736 34.46 25.532 34.312 25.758 34.28 25.834 34.086 26.06 33.814 26.352 33.52 26.278 33.294 26.168 33.082 26.026 32.918 25.952 32.822 25.5 32.84 24.78 32.88 23.6 32.748 23.35 32.554 22.962 32.234 23.102 32.096 23.22 31.438 23.822 31.114 24.836 30.916 25.642 30.734 26.23 30.54 26.062 30.404 25.824 30.072 25.512 30.05 23.078 29.648 23.48 29.002 25.308 30.012 27.316 30.712 27.12 Z"/><path d="M40.274 31.048 L40.082 30.938 36.32 30.92 C36.126 30.846 36.184 30.782 36.32 30.73 37.218 30.608 38.816 30.348 38.922 28.814 38.904 28.016 38.578 27.492 37.598 27.348 36.88 27.404 36.366 28.102 36.448 28.868 36.414 29.076 36.516 29.48 36.306 29.526 34.924 29.652 33.418 30.516 33.368 31.136 33.284 31.194 33.096 31.026 33.12 30.762 33.068 29.692 32.716 28.482 32.17 27.55 31.734 27.114 31.87 27.258 31.578 27.464 31.39 27.68 31.356 27.828 31.366 28.258 31.366 28.274 31.718 29.256 32.016 29.944 32.214 30.65 32.4 31.456 32.266 32.218 31.802 33.226 30.868 34.13 29.968 34.62 29.504 34.77 29.106 34.716 29.008 34.612 28.722 34.42 28.736 34.066 28.758 34.06 29.516 33.53 30.384 33.104 31.064 31.678 31.264 31.134 31.324 30.804 31.126 29.962 31.048 29.646 30.948 29.39 30.732 29.166 30.854 29.086 31.204 29.352 31.258 29.194 31.178 28.79 30.904 28.25 30.596 27.974 30.326 27.728 30.032 27.7 29.784 27.926 29.504 28.082 29.444 28.638 29.578 29.126 29.726 29.494 30.128 29.556 30.416 30.294 30.416 30.31 30.52 30.846 30.372 31.056 30.254 31.424 28.724 32.626 28.64 32.68 28.598 32.732 28.616 32.654 28.61 32.454 28.6 32.21 28.708 31.634 28.678 31.63 28.18 31.952 28.014 32.938 27.924 33.23 26.664 34.1 25.238 34.748 24.414 35.632 23.984 36.302 27.37 34.862 27.764 34.688 27.852 34.752 27.842 35.054 28.078 35.324 28.43 35.8 29.174 36.094 29.904 35.912 31.124 35.47 31.83 34.638 32.546 33.716 32.648 33.566 32.808 33.452 32.956 33.566 33.448 34.668 34.87 35.448 36.704 35.53 37.13 35.012 36.924 34.762 36.752 34.654 36.752 34.638 35.846 34.294 35.708 33.95 35.624 33.638 35.828 33.364 36.236 33.156 37.414 33.014 38.572 32.856 39.694 32.496 39.706 32.12 39.924 31.556 40.074 31.312 40.218 31.064 40.296 31.138 40.274 31.048 Z M37.18 28.704 C37.236 28.61 37.422 28.614 37.596 28.716 37.77 28.816 37.868 28.976 37.81 29.07 37.754 29.166 37.566 29.16 37.392 29.058 37.218 28.958 37.124 28.8 37.18 28.704 Z M35.666 32.504 C35.262 32.642 34.874 32.75 34.874 33.334 35.024 34.146 34.668 33.868 34.458 33.756 34.21 33.578 33.512 33.148 33.412 32.22 33.396 31.998 33.57 31.812 33.848 31.812 34.266 31.926 34.884 31.934 35.42 31.99 35.858 32.018 36.076 32.362 35.666 32.504 Z M21.732 23.494 C22.164 23.702 22.98 23.614 22.944 22.914 22.944 22.852 22.928 22.644 22.922 22.588 22.834 22.382 22.594 22.432 22.538 22.646 22.52 22.716 22.568 22.828 22.506 22.864 22.47 22.9 22.332 22.878 22.338 22.686 22.338 22.624 22.292 22.558 22.266 22.52 22.238 22.502 22.222 22.496 22.172 22.496 22.112 22.498 22.112 22.514 22.08 22.566 22.066 22.616 22.046 22.668 22.046 22.726 22.038 22.794 22.012 22.818 21.962 22.83 21.906 22.83 21.918 22.836 21.874 22.806 21.846 22.776 21.812 22.764 21.812 22.714 21.812 22.662 21.8 22.578 21.784 22.542 21.76 22.51 21.722 22.496 21.678 22.484 21.442 22.484 21.426 22.754 21.44 22.858 21.418 22.876 21.41 23.36 21.732 23.494 Z"/><path d="M35.024 28.054 C35.024 27.992 34.978 27.928 34.952 27.888 34.924 27.87 34.908 27.864 34.858 27.864 34.798 27.866 34.8 27.882 34.766 27.934 34.752 27.986 34.732 28.036 34.732 28.094 34.726 28.164 34.698 28.188 34.648 28.198 34.592 28.198 34.604 28.204 34.558 28.176 34.53 28.146 34.496 28.134 34.496 28.084 34.496 28.032 34.484 27.946 34.468 27.912 34.444 27.88 34.406 27.866 34.362 27.856 34.126 27.856 34.11 28.126 34.122 28.228 34.104 28.248 34.094 28.73 34.416 28.866 34.85 29.072 35.88 28.952 35.628 28.286 35.628 28.224 35.612 28.016 35.606 27.958 35.518 27.752 35.276 27.804 35.222 28.016 35.206 28.086 35.254 28.198 35.19 28.234 35.158 28.27 35.018 28.248 35.024 28.054 Z M41.818 26.64 C42.25 26.848 43.064 26.76 43.028 26.062 43.028 26 43.012 25.792 43.006 25.734 42.918 25.528 42.678 25.58 42.624 25.792 42.606 25.862 42.654 25.974 42.59 26.01 42.554 26.046 42.416 26.026 42.422 25.832 42.422 25.77 42.376 25.704 42.35 25.666 42.322 25.648 42.306 25.642 42.254 25.642 42.194 25.646 42.196 25.66 42.162 25.712 42.148 25.764 42.128 25.814 42.128 25.872 42.12 25.942 42.094 25.966 42.044 25.976 41.988 25.976 42 25.982 41.954 25.954 41.926 25.924 41.894 25.912 41.894 25.862 41.894 25.81 41.882 25.724 41.866 25.688 41.84 25.656 41.804 25.642 41.758 25.632 41.522 25.632 41.506 25.902 41.52 26.004 41.506 26.024 41.496 26.506 41.818 26.64 Z M42.11 23.936 C42.264 24.368 41.992 24.78 42.154 24.84 42.3 24.908 42.508 24.394 42.584 23.92 42.674 23.536 42.4 22.75 42.012 22.588 41.776 22.532 41.44 22.672 41.548 22.988 41.494 23.14 42.024 23.656 42.11 23.936 Z M46.1 34.064 C46.402 34.066 46.75 33.374 46.898 32.688 46.98 31.744 46.842 31.17 46.818 30.614 46.792 30.06 46.192 25.83 46.068 25.41 45.922 24.616 46.654 25.304 46.574 24.842 46.32 24.26 45.69 23.414 45.49 22.908 45.37 22.692 45.422 22.5 45.154 22.852 44.908 23.662 44.822 24.322 44.916 24.826 45.552 28.146 46.204 30.906 46.1 34.064 Z M53.612 25.384 C53.682 25.6 53.506 26.298 53.652 26.362 53.786 26.434 53.974 25.88 54.044 25.366 54.082 25.084 53.876 24.1 53.522 23.924 53.306 23.864 53 24.014 53.1 24.358 53.05 24.524 53.534 25.08 53.612 25.384 Z M27.374 32.696 C27.504 32.75 27.682 32.342 27.75 31.964 27.788 31.756 27.588 31.034 27.25 30.904 27.042 30.86 26.758 30.916 26.846 31.224 26.836 31.39 27.306 31.59 27.334 31.976 27.402 32.136 27.234 32.65 27.374 32.696 Z M18.262 23.466 C18.328 23.632 18.196 24.162 18.334 24.212 18.46 24.268 18.638 23.844 18.704 23.454 18.742 23.238 18.712 22.506 18.212 22.356 18.006 22.31 17.72 22.424 17.814 22.686 17.766 22.81 18.188 23.234 18.262 23.466 Z M28.066 25.812 C27.684 26.02 27.534 26.636 27.774 26.994 27.996 27.312 28.348 27.194 28.396 27.194 28.772 27.24 28.994 26.49 28.994 26.49 28.994 26.49 29.006 26.28 28.56 26.678 28.372 26.714 28.348 26.644 28.302 26.536 28.262 26.342 28.27 26.146 28.36 25.952 28.424 25.766 28.28 25.684 28.066 25.812 Z M30.95 23.506 C31.092 23.402 31.14 23.334 31.186 23.158 31.244 22.866 30.876 23.296 30.83 22.97 30.748 22.668 30.984 22.544 31.208 22.252 31.216 22.05 31.212 21.908 30.938 22.072 30.746 22.202 30.362 22.598 30.35 23.054 30.338 23.312 30.29 23.31 30.46 23.474 30.582 23.652 30.704 23.634 30.95 23.506 Z M33.548 23.662 C33.796 22.99 33.796 22.706 33.814 22.42 33.738 21.986 33.444 22 33.25 22.482 33.166 22.664 33.068 23.622 33.084 23.622 33.018 23.908 33.382 24.03 33.548 23.662 Z M49.888 28.428 C49.888 28.428 47.882 29.854 47.834 29.904 47.634 30.08 47.734 30.704 47.834 30.632 47.976 30.688 49.994 29.318 49.954 29.158 50.048 29.162 50.094 28.356 49.888 28.428 Z M49.642 32.296 C49.776 32.368 50.13 31.93 50.116 31.384 50.156 31.102 50.014 30.068 49.662 29.892 49.446 29.832 49.158 30.016 49.258 30.358 49.208 30.522 49.506 31.096 49.584 31.4 49.654 31.618 49.496 32.232 49.642 32.296 Z M38.282 35.288 C38.282 35.306 38.452 35.452 38.652 35.336 39.072 35.174 39.336 35.018 39.924 34.888 40.078 34.886 40.068 34.472 39.824 34.458 39.506 34.474 39.21 34.49 38.892 34.742 38.696 34.786 38.664 34.668 38.62 34.56 38.572 34.294 38.73 34.11 38.696 33.912 38.708 33.924 38.514 33.746 38.316 33.846 38.306 33.846 37.874 34.138 37.736 34.342 37.65 34.408 37.66 34.464 37.686 34.574 37.752 34.726 37.87 34.68 38.002 34.608 38.178 34.584 38.262 34.7 38.248 34.91 38.164 35.176 38.282 35.274 38.282 35.288 Z M51.384 35.62 C51.318 35.734 51.274 35.906 51.478 35.96 51.854 36.066 52.72 35.502 52.72 35.492 52.86 35.386 52.814 35.188 52.802 35.188 52.72 35.094 52.536 35.148 52.412 35.134 52.354 35.134 52.158 35.104 52.252 34.932 52.328 34.826 52.356 34.76 52.408 34.63 52.466 34.5 52.416 34.414 52.204 34.344 51.99 34.304 51.904 34.324 51.666 34.344 51.538 34.372 51.494 34.428 51.47 34.584 51.48 34.82 51.622 34.808 51.77 34.902 51.856 35.012 51.912 35.112 51.764 35.29 51.624 35.42 51.526 35.492 51.384 35.62 Z M51 46 L48 46 48 45 C48 44.448 47.552 44 47 44 46.448 44 46 44.448 46 45 L46 46 22 46 C22 46 22 48 28 48 L46 48 46 49 C46 49.552 46.448 50 47 50 47.552 50 48 49.552 48 49 L48 48 50 48 50 49 C50 49.552 50.448 50 51 50 51.552 50 52 49.552 52 49 L52 47 C52 46.448 51.552 46 51 46 Z"/></g><g><path fill="#f4900c" d="M72 20.054 C72 17.878 71.613 15.791 70.902 13.86 70.417 19.549 67.384 22.471 64.215 21.11 61.246 19.835 63.247 14.864 63.395 12.492 63.644 8.471 63.382 3.869 56.078 0.042 59.113 5.848 56.43 9.455 53.615 9.675 50.493 9.918 47.633 6.991 48.689 2.241 45.271 4.76 45.171 8.999 46.226 11.741 47.326 14.6 46.182 16.975 43.499 17.239 40.501 17.535 38.836 14.029 40.372 8.443 37.713 11.573 36.109 15.626 36.109 20.054 36.109 29.966 44.143 38 54.054 38 63.966 38 72 29.966 72 20.054 Z"/><path fill="#ffcc4d" d="M65.027 25.332 C65.183 28.587 62.323 29.863 60.784 29.247 58.561 28.357 59.157 26.828 58.585 23.662 58.013 20.495 55.814 18.296 52.56 17.328 54.935 24.013 51.243 26.477 49.308 26.917 47.332 27.367 45.347 26.916 45.12 22.687 42.814 24.982 41.387 28.157 41.387 31.666 41.387 32.055 41.411 32.437 41.445 32.817 44.686 36.02 49.137 38 54.054 38 58.972 38 63.423 36.02 66.664 32.817 66.698 32.437 66.722 32.055 66.722 31.666 66.722 29.358 66.105 27.195 65.027 25.332 Z"/></g></svg>