<?xml version="1.0" encoding="UTF-8" standalone="no"?>
<!DOCTYPE svg PUBLIC "-//W3C//DTD SVG 1.1//EN" "http://www.w3.org/Graphics/SVG/1.1/DTD/svg11.dtd">
<svg width="100%" height="100%" viewBox="0 0 648 835" version="1.1" xmlns="http://www.w3.org/2000/svg" xmlns:xlink="http://www.w3.org/1999/xlink" xml:space="preserve" xmlns:serif="http://www.serif.com/" style="fill-rule:evenodd;clip-rule:evenodd;">
    <g transform="matrix(1,0,0,1,-35.1967,-41.7454)">
        <path d="M464.89,264.29C468.17,263.93 471.27,262.79 474.28,261.49C474.89,266.82 474.12,273.12 469.42,276.46C463.9,277.93 458.13,278.31 452.61,279.84C447.92,281.59 445.12,276.53 442.37,273.72C444.47,270.85 447.48,268.86 451.18,269.49C456.69,270.56 459.76,264.65 464.89,264.29Z" style="fill:rgb(255,58,42);fill-rule:nonzero;stroke:rgb(255,58,42);stroke-width:0.09px;"/>
        <path d="M249.45,269.87C251.32,269.79 253.2,269.75 255.08,269.69C254.28,272.25 253.46,274.81 252.58,277.35C251.09,275.06 250.09,272.52 249.45,269.87Z" style="fill:rgb(255,58,42);fill-rule:nonzero;stroke:rgb(255,58,42);stroke-width:0.09px;"/>
        <path d="M270.36,278.4C276.95,280.49 280.79,268.95 287.1,275.22C287.33,280.98 281.38,285.66 275.97,286.2C269.33,286.78 261.08,287.74 256.62,281.61C261.65,282.03 265.33,277.27 270.36,278.4Z" style="fill:rgb(255,58,42);fill-rule:nonzero;stroke:rgb(255,58,42);stroke-width:0.09px;"/>
        <path d="M35.39,731.22C55.27,730.59 75.18,731.01 95.07,730.98C101.7,730.52 108.1,736.14 107.74,742.93C107.81,762.97 107.77,783.02 107.76,803.06C108.23,809.56 102.65,815.71 96.04,815.44C84.03,815.55 72.02,815.44 60,815.4C59.2,835.51 59.88,855.67 59.68,875.8C51.59,875.93 43.49,875.97 35.4,875.75C35.49,827.58 35.5,779.4 35.39,731.22M59.95,755.32C59.38,767.28 59.63,779.28 59.81,791.25C67.77,791.48 75.75,791.64 83.71,791.13C83.66,779.2 83.7,767.27 83.67,755.34C75.76,755.37 67.85,755.38 59.95,755.32Z" style="fill:white;fill-rule:nonzero;stroke:white;stroke-width:0.09px;"/>
        <path d="M117.4,731.21C137.28,730.6 157.19,731.01 177.07,730.97C183.72,730.5 190.15,736.12 189.78,742.94C189.67,763.88 190.12,784.87 189.57,805.8C188.57,814.35 178.97,816.54 171.78,815.9C179.03,836.08 187.97,855.64 195.18,875.84C187.22,875.86 179.26,876.23 171.3,875.81C164.03,856.97 157.04,838.02 149.95,819.12C149.27,814.92 145.07,815.43 141.83,815.62C141.46,835.67 141.78,855.74 141.69,875.8C133.6,875.93 125.5,875.97 117.4,875.76C117.5,827.58 117.51,779.39 117.4,731.21M141.95,755.32C141.4,767.28 141.65,779.27 141.82,791.24C149.78,791.48 157.76,791.64 165.71,791.13C165.64,779.2 165.69,767.27 165.66,755.34C157.76,755.37 149.86,755.39 141.95,755.32Z" style="fill:white;fill-rule:nonzero;stroke:white;stroke-width:0.09px;"/>
        <path d="M529.32,737.34C531.29,731.19 538.51,730.46 544,730.6C562.86,730.93 581.75,730.17 600.59,731C600.51,746.93 600.48,762.86 600.6,778.8C592.5,779.27 584.38,779.18 576.27,778.89C576.17,770.96 576.51,763.04 576.13,755.13C569.8,755.03 563.46,755.02 557.13,755.11C570.86,786.17 585,817.06 598.96,848.02C601.27,854.17 600.89,861.12 599.37,867.43C597.81,873.6 590.62,875.49 585.03,875.6C566.09,875.63 547.15,875.52 528.21,875.64C528.11,859.52 528.14,843.39 528.2,827.26C536.16,827.22 544.11,827.22 552.06,827.24C552.49,835.18 552.16,843.12 552.25,851.06C558.89,851.44 565.55,851.43 572.2,851.09C558.26,819.82 543.54,788.89 529.3,757.75C527.39,751.21 527.51,743.89 529.32,737.34Z" style="fill:white;fill-rule:nonzero;stroke:white;stroke-width:0.09px;"/>
        <path d="M611.4,737.38C613.33,731.22 620.51,730.43 626,730.6C644.87,730.91 663.76,730.2 682.61,730.97C682.56,746.91 682.53,762.86 682.63,778.81C674.53,779.28 666.42,779.2 658.32,778.84C658.26,770.93 658.6,763.02 658.19,755.12C651.84,755.04 645.5,755.02 639.15,755.11C652.62,785.19 666.17,815.24 679.83,845.24C683.51,851.98 683.4,860.21 681.5,867.47C679.75,873.58 672.68,875.51 667.04,875.6C648.12,875.62 629.19,875.52 610.28,875.64C610.21,859.52 610.28,843.39 610.25,827.27C618.21,827.21 626.18,827.24 634.15,827.24C634.56,835.16 634.22,843.1 634.3,851.03C640.94,851.45 647.6,851.43 654.24,851.09C640.41,819.75 625.53,788.87 611.38,757.68C609.5,751.17 609.6,743.89 611.4,737.38Z" style="fill:white;fill-rule:nonzero;stroke:white;stroke-width:0.09px;"/>
        <g transform="matrix(1.38222,0,0,0.872212,-146.802,15.8508)">
            <path d="M372.845,29.688L379.167,61.168L399.628,61.168L383.075,80.624L389.398,112.104L372.845,92.648L356.292,112.104L362.614,80.624L346.061,61.168L366.522,61.168L372.845,29.688Z" style="fill:rgb(255,211,47);"/>
        </g>
        <g transform="matrix(1.17902,0,0,0.915439,-50.0391,7.77078)">
            <path d="M266.844,77.229L271.695,97.217L287.395,97.217L274.693,109.57L279.545,129.558L266.844,117.205L254.142,129.558L258.994,109.57L246.292,97.217L261.992,97.217L266.844,77.229Z" style="fill:rgb(255,211,47);"/>
        </g>
        <g transform="matrix(1.17902,0,0,0.915439,-128.568,45.8909)">
            <path d="M266.844,77.229L271.695,97.217L287.395,97.217L274.693,109.57L279.545,129.558L266.844,117.205L254.142,129.558L258.994,109.57L246.292,97.217L261.992,97.217L266.844,77.229Z" style="fill:rgb(255,211,47);"/>
        </g>
        <g transform="matrix(1.17902,0,0,0.915439,152.445,8.02358)">
            <path d="M266.844,77.229L271.695,97.217L287.395,97.217L274.693,109.57L279.545,129.558L266.844,117.205L254.142,129.558L258.994,109.57L246.292,97.217L261.992,97.217L266.844,77.229Z" style="fill:rgb(255,211,47);"/>
        </g>
        <g transform="matrix(1.17902,0,0,0.915439,231.185,45.4387)">
            <path d="M266.844,77.229L271.695,97.217L287.395,97.217L274.693,109.57L279.545,129.558L266.844,117.205L254.142,129.558L258.994,109.57L246.292,97.217L261.992,97.217L266.844,77.229Z" style="fill:rgb(255,211,47);"/>
        </g>
        <path d="M439.62,263.67C443.84,264.03 445.02,267.22 443.34,270.87C441.07,269.07 439.71,266.58 439.62,263.67Z" style="fill:rgb(255,211,47);fill-rule:nonzero;stroke:rgb(255,211,47);stroke-width:0.09px;"/>
        <path d="M260.96,277.97C256.96,279.15 256.67,274.95 257.65,272.2C258.95,273.93 262.04,275.4 260.96,277.97Z" style="fill:rgb(255,211,47);fill-rule:nonzero;stroke:rgb(255,211,47);stroke-width:0.09px;"/>
        <path d="M201.83,731.07C224.93,730.97 248.04,730.95 271.15,731.06C271.5,737.09 271.5,743.12 271.17,749.15C263.21,749.57 255.23,749.17 247.26,749.3C247.25,752.4 247.27,755.51 247.31,758.62C259.54,755.98 273.22,766.09 272.21,778.98C271.88,795.96 272.61,812.98 271.88,829.94C270.74,841.39 258.34,846.65 248.07,845.2C248,848.7 248.03,852.21 248.17,855.72C255.83,855.78 263.5,855.41 271.16,855.87C271.49,862.56 271.5,869.27 271.17,875.98C247.73,876.11 224.28,876.18 200.84,875.93C200.48,868.99 200.49,862.04 200.84,855.1C208.8,854.75 216.77,855.35 224.73,854.77C224.75,851.59 224.75,848.42 224.73,845.26C217.42,845.16 209.13,844.9 203.67,839.32C199.88,834.46 199.57,827.92 199.58,822.01C199.79,807.32 199.55,792.64 199.66,777.96C200.38,765.59 212.89,756.13 225.06,758.64C225.26,755.52 225.28,752.39 225.12,749.28C217.35,749.19 209.57,749.56 201.81,749.14C201.45,743.12 201.44,737.09 201.83,731.07M224.09,779.09C223.98,794.29 223.68,809.51 224.22,824.7C232.04,824.65 239.86,824.65 247.68,824.7C247.7,809.53 247.65,794.36 247.71,779.19C239.84,778.83 231.96,778.87 224.09,779.09Z" style="fill:rgb(255,211,47);fill-rule:nonzero;stroke:rgb(255,211,47);stroke-width:0.09px;"/>
        <path d="M281.66,743.97C281.22,737.5 286.12,730.61 292.99,730.73C309.32,730.54 325.68,730.69 342.03,730.66C348.81,730.18 354.48,736.3 354.16,742.95C354.39,781.63 354.12,820.32 354.3,859C354.25,863.44 354.23,868.5 350.87,871.88C347.7,875.57 342.43,875.41 337.99,875.43C319.29,875.13 300.57,875.65 281.87,875.18C281.52,859.11 281.56,843.03 281.85,826.97C289.89,826.84 297.94,826.84 305.99,827.03C306.35,834.98 305.92,842.95 306.13,850.91C314,851.13 321.87,851.16 329.74,850.84C329.73,838.99 329.73,827.14 329.72,815.3C317.47,815.1 305.2,815.63 292.95,815.16C286.21,815.09 281.3,808.48 281.68,802.04C281.65,782.69 281.69,763.32 281.66,743.97M306.18,755.17C306.06,767.07 306.05,778.97 306.16,790.87C314.04,791.14 321.92,791.15 329.79,790.83C329.92,778.94 329.89,767.05 329.8,755.16C321.93,754.89 314.05,754.96 306.18,755.17Z" style="fill:rgb(255,211,47);fill-rule:nonzero;stroke:rgb(255,211,47);stroke-width:0.09px;"/>
        <path d="M363.92,731.02C383.97,730.96 404.02,731.03 424.07,730.98C431.04,730.6 436.8,737.13 436.28,743.96C436.09,764.57 436.86,785.26 435.92,805.83C434.22,816.94 421.28,816.31 412.77,816.02C419.84,836.3 428.92,855.82 436.19,876.02C428.16,876.14 420.13,876.17 412.11,875.98C403.76,856.78 396.85,836.98 388.41,817.82C387.94,837.2 388.63,856.59 388.11,875.96C380.05,876.17 371.99,876.15 363.94,876.02C363.76,827.69 363.8,779.35 363.92,731.02M388.31,755.29C388.22,767.42 388.28,779.55 388.28,791.69C396.11,791.61 403.95,791.61 411.78,791.68C412.17,779.56 412.23,767.41 411.76,755.29C403.94,755.33 396.12,755.33 388.31,755.29Z" style="fill:rgb(255,211,47);fill-rule:nonzero;stroke:rgb(255,211,47);stroke-width:0.09px;"/>
        <path d="M445.82,743.96C445.32,737.21 451.02,730.66 457.94,730.99C473.97,731.06 490.03,730.89 506.07,730.98C512.71,730.56 518.48,736.36 518.27,742.96C518.36,755.03 518.51,767.11 518.13,779.18C510.13,779.49 502.11,779.52 494.11,779.16C493.73,771.21 494.38,763.24 493.77,755.3C485.96,755.33 478.14,755.33 470.32,755.3C470.27,767.77 470.31,780.25 470.27,792.73C477.47,792.84 484.68,792.5 491.89,792.87C492.12,799.94 492.12,807.02 491.87,814.1C484.68,814.45 477.48,814.12 470.28,814.25C470.32,826.53 470.27,838.81 470.26,851.1C478.14,851.6 486.04,851.53 493.92,851.16C494.3,843.21 493.68,835.25 494.17,827.31C502.14,827.34 510.11,827.32 518.08,827.32C518.64,839.54 518.34,851.79 518.31,864.02C518.46,870.59 512.67,876.36 506.07,875.99C490.04,876.08 473.99,876.17 457.97,875.99C451.12,876.08 445.36,869.85 445.78,863.05C445.74,823.36 445.81,783.65 445.82,743.96Z" style="fill:rgb(255,211,47);fill-rule:nonzero;stroke:rgb(255,211,47);stroke-width:0.09px;"/>
        <path d="M324.21,147.11C332.53,141.79 342.63,141.35 352.04,139.37C369.4,138.39 386.88,140.06 403.98,143.12C420.04,147.02 434.27,156.67 446.62,167.36C432.39,172.48 420.06,181.48 406.14,187.17C400.16,190.3 394.98,194.66 389.84,198.98C386.57,202 380.95,200.2 378.41,204.3C370.76,212.18 368.53,224.67 374.35,234.26C381.29,233.4 388.75,236.16 395.29,233.22C411.15,222.14 425.78,209.34 442.29,199.19C449.26,194.1 458.41,194.52 465.94,190.69C469.46,189.05 472.84,186.47 476.92,186.67C483.92,186.96 489.87,191.09 496,194.04C504.61,200.89 509.62,211.13 516.25,219.71C521.56,225.13 529.21,220.12 534.93,218.03C545.43,214.36 552.78,205.83 560.59,198.41C567.73,195.62 574.9,192.59 581.13,188.05C588.5,182.58 591.13,173.39 595.8,165.89C600.08,158.26 606.2,151.78 609.92,143.82C625.92,144.41 638.12,157.41 645.37,170.62C651.86,182.17 659.03,196.06 654.6,209.51C646.08,206.31 636.86,207.35 628.01,206.1C619.39,204.94 610.68,205.25 602.01,205.16C583.09,203.92 566.54,214.7 549.87,221.96C540.35,225.71 530.86,229.55 521.15,232.79C524.1,239.67 527.5,246.37 531.55,252.67C546.66,280.61 568.95,304.44 580.79,334.19C586.3,348.51 589.67,364.28 586.51,379.56C585.54,386.07 582.58,392.05 581.37,398.49C579.25,412.74 581.4,427.19 584.86,441.05C589.06,456.84 592.89,472.74 596.09,488.77C598.58,500.92 598.65,513.79 594.57,525.62C590.66,537.69 587.66,551 578.81,560.54C571.13,566.94 565.2,575.11 557.79,581.81C538.14,599.84 518.47,618.99 493.63,629.74C482.92,634.1 472.7,639.76 461.39,642.54C445.8,646.64 430.38,652.8 414,652.41C381.56,655.09 348.56,651.74 317.62,641.5C302.42,635.59 286.16,631.85 272.4,622.73C257.88,614.42 243.16,601.79 240.77,584.27C246.16,582.12 251.75,580.53 257.4,579.22C270.38,576.18 281.85,569.11 293.98,563.85C303.13,558.16 313.47,551.46 316.55,540.46C318.58,534.22 325.76,532.49 329.59,527.66C339.62,515.27 348.7,501.3 351.07,485.21C355.17,472.45 354.13,459.02 355.67,445.92C363.88,446.26 371.99,444.89 379.9,442.79C391.4,439.86 403.3,441.14 415.01,441.05C429.76,441.16 444.6,437.97 459.21,441.35C473.93,442.32 488.01,446.94 501.59,452.37C509.62,457.97 517.36,464.02 525.49,469.49C529.86,472.05 527.35,478.1 530.56,481.45C532.75,483.94 534.69,486.63 536.07,489.66C537.89,493.75 543.2,495.24 544.17,499.83C545.28,504.06 546.07,508.39 547.6,512.51C556.96,486.7 551.83,458.8 546.23,432.79C544.4,417.93 538.77,404.01 533.88,389.98C530.8,381.34 524.58,374.23 517.6,368.46C492.94,350.67 471.86,326.96 460.12,298.72C460.35,292.19 468.57,290.19 473.76,288.62C486.16,285.59 497.69,279.87 508.75,273.63C511.09,272.47 512.29,270.1 513.34,267.85C506.73,269.85 502.38,275.8 495.87,278C490.17,280.05 484.47,282.1 478.65,283.81C470.01,286.47 460.14,283.21 452.3,288.65C458.92,298.88 462.01,310.83 467.49,321.65C472.99,333.34 475.84,349.58 465.6,359.57C460.75,365.05 452.96,363.81 446.46,363.68C452.33,371.13 462.28,372.88 469.81,378.12C479.87,384 486.19,394.02 492.8,403.26C507.64,421.67 519.25,442.6 526.14,465.23C509.47,454.06 492.88,440.28 472.25,437.84C448.71,431.57 424.16,431.91 400,432.22C381.16,433.95 362,432.33 343.4,436.5C321.94,439.95 300.9,445.51 279.9,451.05C252.03,457.9 225.22,470.55 203.79,489.84C194.8,496.28 187.69,505.17 177.96,510.54C182.39,501.59 190.53,495.39 196.46,487.51C208.74,471.51 226.64,461.46 244.01,451.93C255.72,446.1 268.51,442.99 281.16,439.98C286.91,438.86 288.54,432.66 289.54,427.73C291.56,416.83 295.01,405.86 302.02,397.08C311.89,384.29 325.65,375.46 339.26,367.15C345.77,362.35 353.97,362.01 361.64,360.72C354.99,358.33 347.9,357.5 341.31,354.87C334.97,352.23 328.87,356.78 322.6,356.57C316.69,353.22 314.69,345.8 309.26,341.76C298.64,331.38 280.8,327.17 268.14,336.4C269.65,345.78 272.28,354.99 277.22,363.18C265.03,364.99 252.94,353.32 254.73,341.01C255.08,321.32 272.17,306.48 289.53,300.34C302.47,295.63 314.69,288.57 328.39,286.24C333.77,274.64 336.11,261.98 341.07,250.25C343.6,243.65 349.27,239.15 355.27,235.81C350.56,235.3 345.12,235.11 341.95,231.02C332.5,220.54 322.5,206.36 327.74,191.58C325.2,191.24 322.66,190.95 320.12,190.63C318.78,186.24 316.4,181.26 318.63,176.77C321.05,173.33 325.68,172.96 329.5,172.37C340.73,171.3 351.91,169.76 363.1,168.3C353.82,167.4 344.44,168.88 335.22,166.95C329.45,165.64 322.45,167.86 317.52,164.29C314.96,157.54 322.85,153.19 324.21,147.11M600.27,182.15C598.18,186.77 596.4,194.02 601.97,196.93C608.67,198.72 615.85,197.93 622.67,197.12C616.58,195.52 609.6,195.76 604.51,191.56C601.42,189.34 602.96,185.13 604.2,182.29C608.37,173.78 612.58,165.19 614.94,155.96C608.33,163.59 604.61,173.16 600.27,182.15M355.85,186.14C349.56,190.78 341.45,187.95 334.65,191.12C340.36,192.66 344.46,196.8 347.99,201.31C351.32,197.09 354.67,192.28 360.3,191.11C369.05,187.23 378.7,190.34 387.7,188.02C378.09,182.6 366.16,183.69 355.85,186.14M399.99,238.59C405.27,241.19 410.03,244.75 413.66,249.41L412.79,249.59C420.78,253.25 426.48,259.74 430.88,267.17C438.05,270.89 443.44,276.9 449.11,282.48C454.27,280.98 459.56,279.71 464.98,279.82C476.4,280.04 487.38,276.38 498.13,272.97C505.3,270.78 511.76,264.09 511.51,256.31C504.87,244.82 502.82,231.41 495.89,219.99C492.04,209.62 480.13,205.74 469.94,207.11C443.95,209.19 419.71,222.04 399.99,238.59M421.66,333.76C412.3,338.66 406.75,347.95 402.21,357.09C404.98,359.95 408.24,362.3 411.88,363.95C415.6,361.14 419.18,357.37 424.05,356.88C428.44,357.68 432.01,361.26 436.59,361.33C441.91,360.99 445.35,356.31 448.48,352.56C451.87,347.88 455.61,342.36 454.69,336.31C452.62,332.15 448.55,327.41 443.36,328.42C435.92,329.04 428.11,329.57 421.66,333.76M496.64,522.82C502.48,527.94 514.01,522.01 509.97,514.16C505.5,517.09 498.94,517.27 496.64,522.82M494,608.13C474.01,616.77 452.62,621.8 431.03,624.17C425.45,624.77 419.26,622.59 414.26,625.92C418.39,629.39 423.94,629.11 428.99,628.93C447.97,629.25 466.82,625.38 484.84,619.67C503.86,612.53 519.89,599.39 533.84,584.92C535.77,582.39 536.42,579.2 537.18,576.18C523.79,588.04 511.08,601.61 494,608.13Z" style="fill:rgb(255,92,83);fill-rule:nonzero;stroke:rgb(255,92,83);stroke-width:0.09px;"/>
        <path d="M85.02,181.04C89.74,176.83 97.33,177.15 102.31,180.72C111.88,187.41 119,196.92 125.43,206.52C129.29,212.79 133.71,219.2 140.54,222.52C160.44,232.55 184.24,233.93 205.42,227.31C204.05,230.17 203.07,233.47 200.54,235.57C194.81,237.29 188.83,234.93 182.99,235.16C174.61,234.88 167.37,240.38 159.02,240.29C149.09,240.24 139.44,237.6 129.79,235.57C109.14,233.03 89.91,244.59 69.42,243.9C66.78,239.52 67.56,233.88 66.9,228.93C65.43,214.81 72.15,201.84 76.49,188.82C79.2,186.09 82.13,183.57 85.02,181.04M88.79,184.75C85.59,188.17 81.08,191.73 81.36,196.9C83.31,202.19 89.94,206.14 87.72,212.54C87.27,222.49 79,228.88 74.58,237.07C86.66,238.29 98.72,235.14 110.34,232.13C114.6,230.69 119.8,229.49 122.25,225.35C125.03,216.96 118.99,209.48 115.52,202.35C111.62,194.28 104.07,188.97 96.58,184.53C94.23,183.08 90.78,182.28 88.79,184.75Z" style="fill:rgb(255,92,83);fill-rule:nonzero;stroke:rgb(255,92,83);stroke-width:0.09px;"/>
        <path d="M249.02,194.07C255.11,190.32 261.29,186.56 268.05,184.12C267.31,186.69 265.13,190.09 267.56,192.37C278.1,203.37 292.62,208.72 305.53,216.24C316.21,220.69 324.18,229.32 333.33,236.1C332.59,236.76 331.86,237.43 331.13,238.1C313.24,223.84 292.2,214.54 272.07,204.02C264.71,200.06 258.04,193.33 249.02,194.07Z" style="fill:rgb(255,92,83);fill-rule:nonzero;stroke:rgb(255,92,83);stroke-width:0.09px;"/>
        <path d="M576.92,179.97C587.36,167.19 593.51,148.8 610.32,142.94L609.92,143.82C606.2,151.78 600.08,158.26 595.8,165.89C591.13,173.39 588.5,182.58 581.13,188.05C574.9,192.59 567.73,195.62 560.59,198.41C560.08,198.22 559.04,197.84 558.53,197.65C564.36,191.45 571.65,186.73 576.92,179.97Z" style="fill:rgb(65,5,2);fill-rule:nonzero;stroke:rgb(65,5,2);stroke-width:0.09px;"/>
        <path d="M302.43,155.39C309.69,152.63 316.88,149.68 324.21,147.11C322.85,153.19 314.96,157.54 317.52,164.29C322.45,167.86 329.45,165.64 335.22,166.95C344.44,168.88 353.82,167.4 363.1,168.3C351.91,169.76 340.73,171.3 329.5,172.37C325.68,172.96 321.05,173.33 318.63,176.77C316.4,181.26 318.78,186.24 320.12,190.63C322.66,190.95 325.2,191.24 327.74,191.58C322.5,206.36 332.5,220.54 341.95,231.02C345.12,235.11 350.56,235.3 355.27,235.81C349.27,239.15 343.6,243.65 341.07,250.25C336.11,261.98 333.77,274.64 328.39,286.24C314.69,288.57 302.47,295.63 289.53,300.34C272.17,306.48 255.08,321.32 254.73,341.01C252.94,353.32 265.03,364.99 277.22,363.18C272.28,354.99 269.65,345.78 268.14,336.4C280.8,327.17 298.64,331.38 309.26,341.76C314.69,345.8 316.69,353.22 322.6,356.57C328.87,356.78 334.97,352.23 341.31,354.87C347.9,357.5 354.99,358.33 361.64,360.72C353.97,362.01 345.77,362.35 339.26,367.15C325.65,375.46 311.89,384.29 302.02,397.08C295.01,405.86 291.56,416.83 289.54,427.73C288.54,432.66 286.91,438.86 281.16,439.98C268.51,442.99 255.72,446.1 244.01,451.93C226.64,461.46 208.74,471.51 196.46,487.51C190.53,495.39 182.39,501.59 177.96,510.54C187.69,505.17 194.8,496.28 203.79,489.84C225.22,470.55 252.03,457.9 279.9,451.05C300.9,445.51 321.94,439.95 343.4,436.5C362,432.33 381.16,433.95 400,432.22C424.16,431.91 448.71,431.57 472.25,437.84C492.88,440.28 509.47,454.06 526.14,465.23C519.25,442.6 507.64,421.67 492.8,403.26C486.19,394.02 479.87,384 469.81,378.12C462.28,372.88 452.33,371.13 446.46,363.68C452.96,363.81 460.75,365.05 465.6,359.57C475.84,349.58 472.99,333.34 467.49,321.65C462.01,310.83 458.92,298.88 452.3,288.65C460.14,283.21 470.01,286.47 478.65,283.81C484.47,282.1 490.17,280.05 495.87,278C502.38,275.8 506.73,269.85 513.34,267.85C512.29,270.1 511.09,272.47 508.75,273.63C497.69,279.87 486.16,285.59 473.76,288.62C468.57,290.19 460.35,292.19 460.12,298.72C471.86,326.96 492.94,350.67 517.6,368.46C524.58,374.23 530.8,381.34 533.88,389.98C538.77,404.01 544.4,417.93 546.23,432.79C551.83,458.8 556.96,486.7 547.6,512.51C546.07,508.39 545.28,504.06 544.17,499.83C543.2,495.24 537.89,493.75 536.07,489.66C534.69,486.63 532.75,483.94 530.56,481.45C527.35,478.1 529.86,472.05 525.49,469.49C517.36,464.02 509.62,457.97 501.59,452.37C488.01,446.94 473.93,442.32 459.21,441.35C444.6,437.97 429.76,441.16 415.01,441.05C403.3,441.14 391.4,439.86 379.9,442.79C371.99,444.89 363.88,446.26 355.67,445.92C354.13,459.02 355.17,472.45 351.07,485.21C348.7,501.3 339.62,515.27 329.59,527.66C325.76,532.49 318.58,534.22 316.55,540.46C313.47,551.46 303.13,558.16 293.98,563.85C281.85,569.11 270.38,576.18 257.4,579.22C251.75,580.53 246.16,582.12 240.77,584.27C243.16,601.79 257.88,614.42 272.4,622.73C286.16,631.85 302.42,635.59 317.62,641.5C348.56,651.74 381.56,655.09 414,652.41C430.38,652.8 445.8,646.64 461.39,642.54C472.7,639.76 482.92,634.1 493.63,629.74C518.47,618.99 538.14,599.84 557.79,581.81C565.2,575.11 576.367,559.209 584.047,552.809C585.337,556.369 578.12,567.54 576.79,570.76C567.42,591.1 552.79,608.37 537.85,624.8C529.9,633.29 519.09,637.86 510.3,645.29C504.96,649.27 500.84,654.88 494.71,657.76C476.2,666.13 457.97,675.83 437.94,680.03C426.28,680.7 414.66,682.32 402.95,681.77C384.27,683.77 365.28,684.32 346.58,682.28C319.26,676.71 291.55,673.12 264.46,666.46C224.93,659.07 187.48,640.44 158.09,612.96C149.76,601.52 139.69,591.14 133.99,577.99C128.55,565.8 118.87,554.91 118.7,540.95C116.98,527.89 115.24,514.45 119.17,501.58C122.62,476.08 136.37,452.22 133.65,425.94C131.31,409.12 128.98,391.99 131.73,375.06C134.09,355.93 143.45,338.69 153.53,322.61C162.44,305.75 175.63,291.56 184.46,274.71C183.73,269.47 179.87,264.4 175.04,261.98C159.55,253.7 142.57,247.98 125.02,246.51C105.86,247.09 86.96,256.17 67.73,251.48C62.58,250.9 62.04,245.09 61.68,241.01C61.1,222.68 64.08,203.11 76.49,188.82C72.15,201.84 65.43,214.81 66.9,228.93C67.56,233.88 66.78,239.52 69.42,243.9C89.91,244.59 109.14,233.03 129.79,235.57C139.44,237.6 149.09,240.24 159.02,240.29C167.37,240.38 174.61,234.88 182.99,235.16C188.83,234.93 194.81,237.29 200.54,235.57C203.07,233.47 204.05,230.17 205.42,227.31C214.11,210.83 229.27,195.06 249.02,194.07C258.04,193.33 264.71,200.06 272.07,204.02C292.2,214.54 313.24,223.84 331.13,238.1C331.86,237.43 332.59,236.76 333.33,236.1C324.18,229.32 316.21,220.69 305.53,216.24C292.62,208.72 278.1,203.37 267.56,192.37C265.13,190.09 267.31,186.69 268.05,184.12C277.06,172.09 288.82,161.87 302.43,155.39M246.95,242.92C237.5,249.75 229.46,258.28 220.78,266.03C228.15,277.35 241.16,281.96 253.86,284.2C251.56,280.86 248.79,277.81 246.94,274.17C242.84,263.17 248.81,249.62 260.14,245.92C256.05,244.23 251.28,239.21 246.95,242.92M275.84,253.63C273.82,257.28 276.98,259.48 279.81,261.12C283.37,262.96 283.49,267.34 284.44,270.75C285.05,270.8 286.27,270.89 286.88,270.94C291.22,262.92 284.32,253.93 275.84,253.63M249.45,269.87C250.09,272.52 251.09,275.06 252.58,277.35C253.46,274.81 254.28,272.25 255.08,269.69C253.2,269.75 251.32,269.79 249.45,269.87M260.96,277.97C262.04,275.4 258.95,273.93 257.65,272.2C256.67,274.95 256.96,279.15 260.96,277.97M270.36,278.4C265.33,277.27 261.65,282.03 256.62,281.61C261.08,287.74 269.33,286.78 275.97,286.2C281.38,285.66 287.33,280.98 287.1,275.22C280.79,268.95 276.95,280.49 270.36,278.4Z" style="fill:rgb(65,5,2);fill-rule:nonzero;stroke:rgb(65,5,2);stroke-width:0.09px;"/>
        <path d="M600.27,182.15C604.61,173.16 608.33,163.59 614.94,155.96C612.58,165.19 608.37,173.78 604.2,182.29C602.96,185.13 601.42,189.34 604.51,191.56C609.6,195.76 616.58,195.52 622.67,197.12C615.85,197.93 608.67,198.72 601.97,196.93C596.4,194.02 598.18,186.77 600.27,182.15Z" style="fill:rgb(65,5,2);fill-rule:nonzero;stroke:rgb(65,5,2);stroke-width:0.09px;"/>
        <path d="M446.62,167.36C456.27,161.87 467.67,166.22 476.15,171.85C483.16,177.38 491.09,182.31 495.79,190.14C496.73,191.3 496.07,192.73 496,194.04C489.87,191.09 483.92,186.96 476.92,186.67C472.84,186.47 469.46,189.05 465.94,190.69C458.41,194.52 449.26,194.1 442.29,199.19C425.78,209.34 411.15,222.14 395.29,233.22C388.75,236.16 381.29,233.4 374.35,234.26C368.53,224.67 370.76,212.18 378.41,204.3C380.95,200.2 386.57,202 389.84,198.98C394.98,194.66 400.16,190.3 406.14,187.17C420.06,181.48 432.39,172.48 446.62,167.36Z" style="fill:rgb(65,5,2);fill-rule:nonzero;stroke:rgb(65,5,2);stroke-width:0.09px;"/>
        <path d="M88.79,184.75C90.78,182.28 94.23,183.08 96.58,184.53C104.07,188.97 111.62,194.28 115.52,202.35C118.99,209.48 125.03,216.96 122.25,225.35C119.8,229.49 114.6,230.69 110.34,232.13C98.72,235.14 86.66,238.29 74.58,237.07C79,228.88 87.27,222.49 87.72,212.54C89.94,206.14 83.31,202.19 81.36,196.9C81.08,191.73 85.59,188.17 88.79,184.75Z" style="fill:rgb(65,5,2);fill-rule:nonzero;stroke:rgb(65,5,2);stroke-width:0.09px;"/>
        <path d="M355.85,186.14C366.16,183.69 378.09,182.6 387.7,188.02C378.7,190.34 369.05,187.23 360.3,191.11C354.67,192.28 351.32,197.09 347.99,201.31C344.46,196.8 340.36,192.66 334.65,191.12C341.45,187.95 349.56,190.78 355.85,186.14Z" style="fill:rgb(65,5,2);fill-rule:nonzero;stroke:rgb(65,5,2);stroke-width:0.09px;"/>
        <path d="M549.87,221.96C566.54,214.7 583.09,203.92 602.01,205.16C610.68,205.25 619.39,204.94 628.01,206.1C636.86,207.35 646.08,206.31 654.6,209.51C652.63,211.33 650.49,213.17 647.74,213.62C637.01,216.02 625.95,216.18 615.01,216.08C605.87,216 596.59,214.3 587.57,216.48C576.89,218.91 566.09,221.9 556.75,227.83C546.71,234.1 536.15,241.24 531.55,252.67C527.5,246.37 524.1,239.67 521.15,232.79C530.86,229.55 540.35,225.71 549.87,221.96Z" style="fill:rgb(65,5,2);fill-rule:nonzero;stroke:rgb(65,5,2);stroke-width:0.09px;"/>
        <path d="M399.99,238.59C419.71,222.04 443.95,209.19 469.94,207.11C480.13,205.74 492.04,209.62 495.89,219.99C502.82,231.41 504.87,244.82 511.51,256.31C511.76,264.09 505.3,270.78 498.13,272.97C487.38,276.38 476.4,280.04 464.98,279.82C459.56,279.71 454.27,280.98 449.11,282.48C443.44,276.9 438.05,270.89 430.88,267.17C428.99,255.15 433.87,240.36 446.48,236.46C456.39,234.63 466.31,240.05 472.83,247.21C479.87,255.62 477.31,267.84 473.36,277.07C482.82,276.12 492.23,273.74 500.91,269.86C505.72,267.16 511.54,260.32 507.08,254.98C501.65,248.25 495.64,241.83 492.15,233.79C487.59,223.53 474.48,221.7 464.65,223.8C455.63,226.22 446.19,228.79 438.76,234.72C431.61,241.37 423.89,248.48 413.66,249.41C410.03,244.75 405.27,241.19 399.99,238.59M454.82,249.55C461.03,252.29 463.1,258.7 466.96,263.66C473.88,257.28 466.43,245.59 458.09,245.69C456.09,245.89 455.71,248.15 454.82,249.55M464.89,264.29C459.76,264.65 456.69,270.56 451.18,269.49C447.48,268.86 444.47,270.85 442.37,273.72C445.12,276.53 447.92,281.59 452.61,279.84C458.13,278.31 463.9,277.93 469.42,276.46C474.12,273.12 474.89,266.82 474.28,261.49C471.27,262.79 468.17,263.93 464.89,264.29M439.62,263.67C439.71,266.58 441.07,269.07 443.34,270.87C445.02,267.22 443.84,264.03 439.62,263.67Z" style="fill:rgb(65,5,2);fill-rule:nonzero;stroke:rgb(65,5,2);stroke-width:0.09px;"/>
        <path d="M421.66,333.76C428.11,329.57 435.92,329.04 443.36,328.42C448.55,327.41 452.62,332.15 454.69,336.31C455.61,342.36 451.87,347.88 448.48,352.56C445.35,356.31 441.91,360.99 436.59,361.33C432.01,361.26 428.44,357.68 424.05,356.88C419.18,357.37 415.6,361.14 411.88,363.95C408.24,362.3 404.98,359.95 402.21,357.09C406.75,347.95 412.3,338.66 421.66,333.76Z" style="fill:rgb(65,5,2);fill-rule:nonzero;stroke:rgb(65,5,2);stroke-width:0.09px;"/>
        <path d="M496.64,522.82C498.94,517.27 505.5,517.09 509.97,514.16C514.01,522.01 502.48,527.94 496.64,522.82Z" style="fill:rgb(65,5,2);fill-rule:nonzero;stroke:rgb(65,5,2);stroke-width:0.09px;"/>
        <path d="M494,608.13C511.08,601.61 523.79,588.04 537.18,576.18C536.42,579.2 535.77,582.39 533.84,584.92C519.89,599.39 503.86,612.53 484.84,619.67C466.82,625.38 447.97,629.25 428.99,628.93C423.94,629.11 418.39,629.39 414.26,625.92C419.26,622.59 425.45,624.77 431.03,624.17C452.62,621.8 474.01,616.77 494,608.13Z" style="fill:rgb(65,5,2);fill-rule:nonzero;stroke:rgb(65,5,2);stroke-width:0.09px;"/>
        <path d="M464.65,223.8C474.48,221.7 487.59,223.53 492.15,233.79C495.64,241.83 501.65,248.25 507.08,254.98C511.54,260.32 505.72,267.16 500.91,269.86C492.23,273.74 482.82,276.12 473.36,277.07C477.31,267.84 479.87,255.62 472.83,247.21C466.31,240.05 456.39,234.63 446.48,236.46C433.87,240.36 428.99,255.15 430.88,267.17C426.48,259.74 420.78,253.25 412.79,249.59L413.66,249.41C423.89,248.48 431.61,241.37 438.76,234.72C446.19,228.79 455.63,226.22 464.65,223.8Z" style="fill:rgb(255,254,215);fill-rule:nonzero;stroke:rgb(255,254,215);stroke-width:0.09px;"/>
        <path d="M246.95,242.92C251.28,239.21 256.05,244.23 260.14,245.92C248.81,249.62 242.84,263.17 246.94,274.17C248.79,277.81 251.56,280.86 253.86,284.2C241.16,281.96 228.15,277.35 220.78,266.03C229.46,258.28 237.5,249.75 246.95,242.92Z" style="fill:rgb(255,254,215);fill-rule:nonzero;stroke:rgb(255,254,215);stroke-width:0.09px;"/>
        <path d="M454.82,249.55C455.71,248.15 456.09,245.89 458.09,245.69C466.43,245.59 473.88,257.28 466.96,263.66C463.1,258.7 461.03,252.29 454.82,249.55Z" style="fill:rgb(255,254,215);fill-rule:nonzero;stroke:rgb(255,254,215);stroke-width:0.09px;"/>
        <path d="M275.84,253.63C284.32,253.93 291.22,262.92 286.88,270.94C286.27,270.89 285.05,270.8 284.44,270.75C283.49,267.34 283.37,262.96 279.81,261.12C276.98,259.48 273.82,257.28 275.84,253.63Z" style="fill:rgb(255,254,215);fill-rule:nonzero;stroke:rgb(255,254,215);stroke-width:0.09px;"/>
    </g>
</svg>
