<?xml version="1.0" encoding="UTF-8" standalone="no"?>
<!DOCTYPE svg PUBLIC "-//W3C//DTD SVG 1.1//EN" "http://www.w3.org/Graphics/SVG/1.1/DTD/svg11.dtd">
<svg width="100%" height="100%" viewBox="0 0 148 198" version="1.1" xmlns="http://www.w3.org/2000/svg" xmlns:xlink="http://www.w3.org/1999/xlink" xml:space="preserve" xmlns:serif="http://www.serif.com/" style="fill-rule:evenodd;clip-rule:evenodd;">
    <g id="_-000000ff" serif:id="#000000ff">
        <path d="M61.41,0L93.41,0C109.92,4.53 127.31,14.05 132.59,31.48C139.61,37.76 145.52,45.27 148,54.57L148,64.52C146.98,72.81 137.69,78.13 140.13,87.07C144.56,117.13 137.72,147.98 130.07,176.93C119.81,184.8 98.61,186.58 92.08,173.03C87.92,165.9 95.39,150.13 82.39,153.3C81.94,159.93 82.15,166.61 81.2,173.21C78.48,195.86 37.96,197.93 32.03,176.9C31.6,168.69 31.1,160.43 29.88,152.3C23.83,151.36 16.9,153.48 11.67,149.38C2.26,143.48 2.3,131.03 0,121.35L0,102.66C1.96,89.64 1.22,76.31 3.35,63.38C6.53,51.42 20.7,52.35 30.3,50.16C32.74,29.95 39.64,6.75 61.41,0M49,21.96C42.18,33.06 41.63,46.25 38.58,58.58C38.32,98.17 36.45,138.02 42.85,177.23C51.4,182.73 64.3,182.13 70.73,173.64C72,164.11 68.34,152.16 74.13,144.06C87.25,142.59 100.92,146.31 114.32,145.03C111.42,149.55 105.93,150.82 101.73,153.68C99.63,159.82 98.49,168.55 103.67,173.26C109.98,173.41 119.87,176.02 123.61,169.57C124.36,142.68 135.89,116.09 129.84,88.78C130.08,86.52 131.1,81.6 127.37,83.51C109.08,88.58 86.3,94.78 70.47,80.54C61.14,68.56 59.06,50.63 64.75,36.75C77.42,23.16 99.15,28.27 115.88,26.76C110.02,18.07 100.22,12.58 90,10.93C75.8,10.41 57.01,6.89 49,21.96M77.07,40.06C67.94,47.98 69.8,65.65 79.99,72.02C91.94,82.04 109.15,79.42 122.78,74.71C131.27,72.36 140.68,64.88 138.48,55.04C129.2,30.88 97.36,34.33 77.07,40.06M26.43,61.36C21.53,61.35 14.15,61.21 13.62,67.72C10.21,89.82 8.73,112.62 12.39,134.8C14.64,141.24 22.91,142.73 28.92,141.68C28.2,116.88 26.23,91.81 28.87,66.98C28.76,64.74 30.15,60.31 26.43,61.36Z" style="fill-rule:nonzero;stroke:black;stroke-width:0.09px;"/>
    </g>
    <g id="_-d52614ff" serif:id="#d52614ff">
        <path d="M49,21.96C57.01,6.89 75.8,10.41 90,10.93C100.22,12.58 110.02,18.07 115.88,26.76C99.15,28.27 77.42,23.16 64.75,36.75C59.06,50.63 61.14,68.56 70.47,80.54C86.3,94.78 109.08,88.58 127.37,83.51C131.1,81.6 130.08,86.52 129.84,88.78C126.68,101.41 127.69,118.45 114.53,125.55C98.8,132.1 81.25,128.06 65.33,124.58C52.45,113.83 50.21,95.64 47.85,80.02C44.54,60.75 44.95,41.07 49,21.96Z" style="fill:rgb(213,38,20);fill-rule:nonzero;stroke:rgb(213,38,20);stroke-width:0.09px;"/>
    </g>
    <g id="_-911847ff" serif:id="#911847ff">
        <path d="M38.58,58.58C41.63,46.25 42.18,33.06 49,21.96C44.95,41.07 44.54,60.75 47.85,80.02C50.21,95.64 52.45,113.83 65.33,124.58C81.25,128.06 98.8,132.1 114.53,125.55C127.69,118.45 126.68,101.41 129.84,88.78C135.89,116.09 124.36,142.68 123.61,169.57C119.87,176.02 109.98,173.41 103.67,173.26C98.49,168.55 99.63,159.82 101.73,153.68C105.93,150.82 111.42,149.55 114.32,145.03C100.92,146.31 87.25,142.59 74.13,144.06C68.34,152.16 72,164.11 70.73,173.64C64.3,182.13 51.4,182.73 42.85,177.23C36.45,138.02 38.32,98.17 38.58,58.58Z" style="fill:rgb(145,24,71);fill-rule:nonzero;stroke:rgb(145,24,71);stroke-width:0.09px;"/>
    </g>
    <g id="_-a3d2e2ff" serif:id="#a3d2e2ff">
        <path d="M77.07,40.06C97.36,34.33 129.2,30.88 138.48,55.04C131.91,62.53 121.11,61.47 112.12,62.38C103.86,62.49 94.6,64.52 87.22,59.74C80.62,55.38 79.42,47 77.07,40.06M100.36,39.48C94.03,40.75 94.73,51.39 101.85,50.27C110.22,49.56 122.97,56.26 128.52,48.8C125.33,38.51 109.39,39.25 100.36,39.48Z" style="fill:rgb(163,210,226);fill-rule:nonzero;stroke:rgb(163,210,226);stroke-width:0.09px;"/>
    </g>
    <g id="_-fdffffff" serif:id="#fdffffff">
        <path d="M100.36,39.48C109.39,39.25 125.33,38.51 128.52,48.8C122.97,56.26 110.22,49.56 101.85,50.27C94.73,51.39 94.03,40.75 100.36,39.48Z" style="fill:rgb(253,255,255);fill-rule:nonzero;stroke:rgb(253,255,255);stroke-width:0.09px;"/>
    </g>
    <g id="_-5a7780ff" serif:id="#5a7780ff">
        <path d="M79.99,72.02C69.8,65.65 67.94,47.98 77.07,40.06C79.42,47 80.62,55.38 87.22,59.74C94.6,64.52 103.86,62.49 112.12,62.38C121.11,61.47 131.91,62.53 138.48,55.04C140.68,64.88 131.27,72.36 122.78,74.71C109.15,79.42 91.94,82.04 79.99,72.02Z" style="fill:rgb(90,119,128);fill-rule:nonzero;stroke:rgb(90,119,128);stroke-width:0.09px;"/>
    </g>
    <g id="_-911947ff" serif:id="#911947ff">
        <path d="M26.43,61.36C30.15,60.31 28.76,64.74 28.87,66.98C26.23,91.81 28.2,116.88 28.92,141.68C22.91,142.73 14.64,141.24 12.39,134.8C8.73,112.62 10.21,89.82 13.62,67.72C14.15,61.21 21.53,61.35 26.43,61.36Z" style="fill:rgb(145,25,71);fill-rule:nonzero;stroke:rgb(145,25,71);stroke-width:0.09px;"/>
    </g>
    <g id="_-474c4dff" serif:id="#474c4dff">
        <path d="M81.2,173.21C84.83,173.21 88.45,173.14 92.08,173.03C98.61,186.58 119.81,184.8 130.07,176.93C136.39,178.17 143.07,179.58 148,184.02L148,186.99C134.37,196.82 116.2,195.09 100.33,198L57.78,198C43.45,194.58 26.66,196.51 14.39,187.42C12.91,178.95 26.12,178.79 32.03,176.9C37.96,197.93 78.48,195.86 81.2,173.21Z" style="fill:rgb(71,76,77);fill-rule:nonzero;stroke:rgb(71,76,77);stroke-width:0.09px;"/>
    </g>
    <g transform="matrix(0.708035,0,0,0.708035,31.6508,30.5914)">
        <path d="M91.161,89.653C90.651,94.633 90.501,99.663 90.561,104.673C92.651,102.323 93.831,99.403 95.101,96.573C93.611,94.373 92.431,91.983 91.161,89.653ZM101.301,102.433C100.071,101.383 98.851,100.323 97.621,99.283C97.021,102.833 96.871,106.453 97.031,110.053C98.991,107.843 100.151,105.113 101.301,102.433ZM122.271,103.113C120.541,103.983 118.791,104.823 117.011,105.583C117.301,107.103 117.611,108.623 117.921,110.143C119.491,107.873 120.831,105.453 122.271,103.113ZM112.101,105.483C110.301,105.283 108.501,105.043 106.711,104.803C106.781,107.393 106.911,109.993 107.181,112.573C109.161,110.463 110.651,107.973 112.101,105.483Z" style="fill:white;fill-rule:nonzero;"/>
    </g>
    <g transform="matrix(0.708035,0,0,0.708035,34.9136,-46.1575)">
        <path d="M96.253,203.41C92.703,200.11 91.373,194.74 86.743,192.57C84.433,192.53 82.343,194.63 82.523,196.96C82.163,202.98 82.053,209.01 81.993,215.03C83.563,220.73 84.083,227.6 89.323,231.34C92.693,234.29 97.493,234.1 101.623,233.34C105.883,231.98 108.363,228.09 110.733,224.58C112.093,224.6 113.773,225.85 114.763,224.4C119.293,218.41 121.133,210.93 124.893,204.5C126.243,202.68 125.293,200.6 123.773,199.29C121.723,202.2 119.293,204.89 116.043,206.47C109.973,210.7 101.023,208.76 96.253,203.41M86.553,198.05C87.823,200.38 89.003,202.77 90.493,204.97C89.223,207.8 88.043,210.72 85.953,213.07C85.893,208.06 86.043,203.03 86.553,198.05M96.693,210.83C95.543,213.51 94.383,216.24 92.423,218.45C92.263,214.85 92.413,211.23 93.013,207.68C94.243,208.72 95.463,209.78 96.693,210.83M117.663,211.51C116.223,213.85 114.883,216.27 113.313,218.54C113.003,217.02 112.693,215.5 112.403,213.98C114.183,213.22 115.933,212.38 117.663,211.51M107.493,213.88C106.043,216.37 104.553,218.86 102.573,220.97C102.303,218.39 102.173,215.79 102.103,213.2C103.893,213.44 105.693,213.68 107.493,213.88Z" style="fill:rgb(1,1,1);fill-rule:nonzero;"/>
    </g>
</svg>
