<?xml version="1.0" encoding="UTF-8" ?>
<!DOCTYPE svg PUBLIC "-//W3C//DTD SVG 1.1//EN" "http://www.w3.org/Graphics/SVG/1.1/DTD/svg11.dtd">
<svg width="93pt" height="128pt" viewBox="0 0 93 128" version="1.1" xmlns="http://www.w3.org/2000/svg">
<g id="#0000006b">
<path fill="#000000" opacity="0.42" d=" M 22.93 0.00 L 24.15 0.00 C 20.00 2.12 15.52 3.62 10.83 3.70 C 12.03 4.95 13.23 6.21 14.40 7.48 C 12.23 7.46 10.05 7.42 7.88 7.40 C 8.86 8.77 9.84 10.13 10.82 11.50 C 9.30 12.24 7.78 12.97 6.26 13.69 C 7.95 15.99 8.86 18.69 9.32 21.48 C 6.60 22.61 3.90 23.79 1.23 25.04 C 3.31 25.53 5.39 26.00 7.47 26.47 C 5.44 31.59 4.78 37.10 4.48 42.57 C 6.14 44.91 7.65 47.35 8.96 49.90 C 9.84 49.48 10.71 49.04 11.58 48.61 C 11.78 50.60 11.99 52.58 12.35 54.55 L 11.48 54.43 C 9.37 53.73 7.30 52.71 5.05 52.57 C 3.26 52.87 1.65 53.74 0.00 54.45 L 0.00 29.62 C 1.57 22.05 2.12 13.95 5.96 7.10 C 9.27 1.06 16.88 0.72 22.93 0.00 Z" />
<path fill="#000000" opacity="0.42" d=" M 0.00 59.18 C 1.26 61.72 3.43 64.03 3.63 66.97 C 3.30 71.07 1.24 74.74 0.00 78.60 L 0.00 59.18 Z" />
<path fill="#000000" opacity="0.42" d=" M 0.00 81.91 C 1.39 82.96 2.78 84.00 4.18 85.04 C 6.15 84.53 8.12 84.01 10.08 83.47 C 11.41 89.59 13.18 95.61 15.36 101.48 C 17.50 107.28 19.70 113.35 24.16 117.82 C 28.59 122.14 33.89 125.49 39.53 128.00 L 30.52 128.00 C 23.54 124.66 16.64 120.11 12.81 113.16 C 7.30 104.22 6.99 92.88 0.00 84.77 L 0.00 81.91 Z" />
</g>
<g id="#030303ff">
<path fill="#030303" opacity="1.00" d=" M 24.15 0.00 L 75.19 0.00 C 72.45 2.89 78.11 2.94 77.79 0.00 L 81.13 0.00 C 83.84 0.47 86.56 0.85 89.28 1.22 C 88.42 1.90 87.56 2.57 86.70 3.25 C 87.56 4.30 88.41 5.36 89.26 6.42 C 87.49 6.71 85.73 6.99 83.97 7.27 C 86.11 8.27 88.23 9.29 90.35 10.34 C 90.19 14.05 91.51 17.54 93.00 20.87 L 93.00 31.13 C 92.05 31.58 91.10 32.02 90.16 32.48 C 91.25 38.35 88.76 44.07 89.16 49.94 C 89.60 57.31 88.78 64.66 87.75 71.94 C 86.20 82.72 83.97 93.76 78.04 103.08 C 71.57 113.49 62.96 123.34 51.33 128.00 L 39.53 128.00 C 33.89 125.49 28.59 122.14 24.16 117.82 C 19.70 113.35 17.50 107.28 15.36 101.48 C 13.18 95.61 11.41 89.59 10.08 83.47 C 8.12 84.01 6.15 84.53 4.18 85.04 C 2.78 84.00 1.39 82.96 0.00 81.91 L 0.00 78.60 C 1.24 74.74 3.30 71.07 3.63 66.97 C 3.43 64.03 1.26 61.72 0.00 59.18 L 0.00 54.45 C 1.65 53.74 3.26 52.87 5.05 52.57 C 7.30 52.71 9.37 53.73 11.48 54.43 C 10.15 55.57 12.30 58.64 13.09 56.37 C 12.91 55.91 12.54 55.00 12.35 54.55 C 11.99 52.58 11.78 50.60 11.58 48.61 C 10.71 49.04 9.84 49.48 8.96 49.90 C 7.65 47.35 6.14 44.91 4.48 42.57 C 4.78 37.10 5.44 31.59 7.47 26.47 C 5.39 26.00 3.31 25.53 1.23 25.04 C 3.90 23.79 6.60 22.61 9.32 21.48 C 8.86 18.69 7.95 15.99 6.26 13.69 C 7.78 12.97 9.30 12.24 10.82 11.50 C 9.84 10.13 8.86 8.77 7.88 7.40 C 10.05 7.42 12.23 7.46 14.40 7.48 C 13.23 6.21 12.03 4.95 10.83 3.70 C 15.52 3.62 20.00 2.12 24.15 0.00 M 46.01 6.78 C 44.32 8.94 41.30 7.83 39.23 9.25 C 38.08 9.85 37.07 10.67 36.00 11.40 C 38.78 16.66 41.82 21.86 46.47 25.71 C 46.02 23.82 45.53 21.95 45.28 20.02 C 47.32 22.07 48.27 24.83 49.65 27.31 C 50.76 28.67 52.35 29.50 53.68 30.61 C 54.67 34.01 54.66 37.61 55.58 41.04 C 56.86 39.12 57.95 37.08 59.38 35.26 C 60.45 40.24 57.91 44.84 54.95 48.62 C 51.08 46.73 47.57 44.21 43.89 42.00 C 42.88 41.33 41.65 41.09 40.46 41.28 C 36.42 46.26 34.42 52.65 35.17 59.05 C 35.13 62.84 36.14 69.21 41.07 68.96 C 45.14 69.61 46.96 65.19 50.40 64.05 C 49.00 69.79 45.71 76.26 39.43 77.70 C 38.87 74.97 41.50 73.89 43.27 72.54 C 40.44 72.40 37.18 72.16 35.45 69.56 C 31.40 64.22 31.18 56.79 32.70 50.49 C 34.00 46.72 33.12 42.70 33.65 38.82 C 30.81 38.41 27.94 38.09 25.20 37.21 C 27.15 36.37 31.16 37.74 30.67 34.45 C 32.32 34.53 33.97 34.58 35.63 34.60 C 31.95 32.33 27.68 30.44 25.65 26.37 C 24.98 26.33 23.63 26.25 22.96 26.22 C 22.43 29.60 21.80 32.95 20.76 36.21 C 19.86 38.58 20.82 41.10 20.22 43.49 C 18.21 51.53 17.30 59.91 14.24 67.64 C 12.69 63.99 11.87 59.85 9.21 56.79 C 7.70 54.99 5.26 55.34 3.18 55.33 C 2.07 60.06 8.18 62.39 7.39 66.97 C 6.38 72.07 2.93 76.76 4.31 82.19 C 9.94 81.05 9.72 74.37 13.08 70.89 C 13.27 73.94 13.04 77.00 13.08 80.05 C 12.96 86.71 15.75 92.91 17.81 99.10 C 20.27 106.77 23.65 114.79 30.33 119.72 C 36.13 124.33 43.88 126.94 51.25 125.27 C 58.64 122.24 64.48 116.52 69.40 110.37 C 75.59 102.83 80.58 94.08 82.63 84.47 C 86.85 69.35 87.78 53.29 85.44 37.80 C 84.68 38.36 83.92 38.92 83.16 39.48 C 84.15 44.65 82.89 49.82 83.27 55.02 C 82.67 61.97 81.40 70.31 74.55 73.90 C 76.75 74.65 79.71 74.54 80.76 77.06 C 73.60 79.63 65.74 71.47 67.66 64.41 C 69.65 66.19 71.13 68.41 72.59 70.63 C 74.90 70.38 77.41 69.49 78.17 67.04 C 81.49 59.49 81.94 50.25 78.29 42.74 C 75.09 44.65 71.95 46.68 68.66 48.45 C 65.62 43.89 63.93 38.58 62.92 33.24 C 64.67 33.77 66.41 34.32 68.17 34.81 C 68.92 32.47 69.82 30.17 71.08 28.06 C 71.73 30.36 71.05 32.65 70.67 34.93 C 72.75 31.22 72.94 26.73 75.44 23.23 C 75.47 25.27 75.29 27.32 75.07 29.35 C 76.50 27.52 78.05 25.77 79.75 24.18 C 79.64 25.86 79.57 27.54 79.38 29.21 C 78.38 31.34 75.66 32.36 75.21 34.72 C 78.10 31.60 83.24 28.54 81.66 23.54 C 78.79 17.05 73.09 12.54 67.59 8.34 C 64.01 5.86 59.38 6.05 55.25 6.60 C 55.24 7.06 55.23 7.98 55.22 8.44 C 52.67 8.42 50.12 8.36 47.58 8.13 C 47.32 6.46 47.07 4.79 46.86 3.11 C 46.62 4.35 46.42 5.59 46.01 6.78 M 17.20 3.92 C 19.97 6.96 24.00 8.26 27.79 9.50 C 24.84 6.74 21.28 4.46 17.20 3.92 M 76.58 8.42 C 79.56 9.94 82.87 10.61 86.20 10.69 C 83.18 9.31 79.92 8.43 76.58 8.42 M 13.58 8.88 C 15.56 10.56 17.94 11.62 20.49 12.07 C 18.75 10.00 16.34 8.70 13.58 8.88 M 85.44 14.38 C 84.83 15.54 86.69 17.01 87.66 16.07 C 88.33 14.89 86.39 13.54 85.44 14.38 M 33.59 16.07 C 33.86 16.62 34.41 17.73 34.68 18.28 C 35.13 18.35 36.04 18.50 36.50 18.57 C 36.53 18.03 36.61 16.93 36.64 16.38 C 35.88 16.30 34.36 16.15 33.59 16.07 M 12.59 19.06 C 14.85 19.43 17.15 19.47 19.43 19.26 C 17.25 18.23 14.83 18.11 12.59 19.06 M 26.82 20.98 C 28.77 21.37 30.74 21.66 32.71 21.94 C 32.61 21.25 32.42 19.87 32.32 19.18 C 30.48 19.77 28.66 20.39 26.82 20.98 M 24.10 23.09 C 25.34 23.60 26.55 24.16 27.76 24.71 C 26.80 23.78 25.83 22.84 24.90 21.87 C 24.64 22.28 24.37 22.69 24.10 23.09 M 8.49 31.06 C 10.87 30.60 12.94 29.35 14.55 27.55 C 12.27 28.21 10.05 29.20 8.49 31.06 M 18.22 28.15 C 17.24 28.37 15.83 29.44 16.40 30.57 C 18.04 31.87 21.27 27.84 18.22 28.15 M 9.42 34.41 C 8.36 34.51 6.94 35.80 7.59 36.92 C 8.93 37.90 11.37 34.97 9.42 34.41 M 84.33 35.19 C 82.97 35.86 82.94 36.53 84.23 37.19 C 85.60 36.51 85.63 35.84 84.33 35.19 Z" />
<path fill="#030303" opacity="1.00" d=" M 50.47 17.60 C 55.87 17.80 61.26 18.05 66.67 17.97 C 65.09 21.40 61.09 20.33 58.06 20.48 C 55.21 20.72 52.74 19.09 50.47 17.60 Z" />
<path fill="#030303" opacity="1.00" d=" M 52.70 22.89 C 58.72 22.70 64.97 23.80 70.68 21.30 C 66.31 26.19 57.89 26.90 52.70 22.89 Z" />
<path fill="#030303" opacity="1.00" d=" M 61.87 42.93 C 65.15 48.26 65.66 54.93 65.61 61.10 C 66.04 66.24 67.78 71.14 69.11 76.09 C 69.88 79.24 68.73 83.72 64.92 84.04 C 61.30 83.85 57.70 82.46 54.17 84.01 C 54.80 83.52 56.08 82.54 56.71 82.05 C 53.91 80.26 51.93 77.60 50.28 74.77 C 48.46 77.88 46.87 81.59 43.33 83.07 C 45.07 77.95 48.58 73.75 51.11 69.03 C 52.07 66.69 55.66 65.21 57.44 67.42 C 59.09 68.72 58.39 71.00 58.57 72.80 C 57.17 71.38 55.87 69.87 54.53 68.39 C 52.66 70.97 53.13 74.47 55.11 76.84 C 58.02 80.02 62.38 81.47 66.63 80.77 C 66.96 77.11 66.00 73.59 64.90 70.14 C 63.04 61.22 59.84 52.11 61.87 42.93 Z" />
<path fill="#030303" opacity="1.00" d=" M 45.59 51.81 C 46.54 51.79 47.48 51.78 48.43 51.77 C 48.57 54.17 49.24 56.97 46.99 58.64 C 44.83 56.94 45.44 54.20 45.59 51.81 Z" />
<path fill="#030303" opacity="1.00" d=" M 75.64 51.82 C 76.56 51.84 77.47 51.87 78.39 51.89 C 78.76 54.53 78.91 57.29 76.98 59.39 C 75.63 57.08 75.27 54.46 75.64 51.82 Z" />
<path fill="#030303" opacity="1.00" d=" M 18.19 75.39 C 19.96 74.38 21.14 77.36 19.56 78.27 C 17.83 79.38 16.72 76.26 18.19 75.39 Z" />
<path fill="#030303" opacity="1.00" d=" M 35.18 79.75 C 35.99 79.49 37.59 78.98 38.40 78.73 C 44.62 83.32 48.44 92.19 57.07 92.70 C 62.11 93.61 65.66 89.48 69.58 87.19 C 68.83 90.89 67.31 94.37 65.73 97.79 C 64.05 102.55 59.00 104.54 55.72 108.01 C 52.25 109.61 47.55 108.97 44.72 106.23 C 42.00 103.59 39.52 100.42 38.67 96.65 C 37.33 91.06 36.21 85.41 35.18 79.75 M 39.38 83.50 C 39.42 87.35 39.38 91.51 42.00 94.64 C 42.30 92.58 42.96 90.51 42.68 88.43 C 41.72 86.69 40.50 85.12 39.38 83.50 M 45.33 91.29 C 45.55 93.41 45.98 95.50 46.49 97.57 C 47.02 97.55 48.07 97.51 48.59 97.49 C 48.56 95.93 48.63 94.36 48.38 92.82 C 47.35 92.33 46.34 91.81 45.33 91.29 M 53.38 95.50 C 53.49 97.07 53.60 98.65 53.72 100.22 C 54.13 100.29 54.97 100.42 55.38 100.48 C 55.92 98.90 56.44 97.31 56.87 95.70 C 55.71 95.63 54.55 95.56 53.38 95.50 M 61.51 95.69 C 61.45 96.72 61.38 97.75 61.32 98.77 C 61.79 98.66 62.74 98.42 63.22 98.30 C 63.36 97.32 63.50 96.35 63.65 95.37 C 63.12 95.45 62.05 95.61 61.51 95.69 Z" />
<path fill="#030303" opacity="1.00" d=" M 48.98 81.41 C 50.62 80.88 51.18 81.44 50.64 83.08 C 49.02 83.57 48.46 83.02 48.98 81.41 Z" />
<path fill="#030303" opacity="1.00" d=" M 17.63 83.46 C 18.26 83.52 19.52 83.63 20.15 83.69 C 20.12 84.28 20.07 85.47 20.04 86.06 C 19.41 86.15 18.16 86.32 17.54 86.41 C 17.56 85.67 17.61 84.20 17.63 83.46 Z" />
<path fill="#030303" opacity="1.00" d=" M 23.20 83.27 C 24.64 82.17 26.35 84.67 24.86 85.66 C 23.38 86.82 21.78 84.30 23.20 83.27 Z" />
<path fill="#030303" opacity="1.00" d=" M 32.11 85.55 C 33.08 84.56 35.29 85.23 34.75 86.82 C 34.20 89.07 30.04 87.30 32.11 85.55 Z" />
<path fill="#030303" opacity="1.00" d=" M 61.93 85.51 C 63.21 84.51 64.78 86.74 63.53 87.69 C 62.20 88.70 60.71 86.51 61.93 85.51 Z" />
<path fill="#030303" opacity="1.00" d=" M 58.24 87.33 C 59.61 86.98 60.09 87.51 59.70 88.91 C 58.36 89.26 57.87 88.73 58.24 87.33 Z" />
<path fill="#030303" opacity="1.00" d=" M 27.46 87.63 C 27.92 87.69 28.85 87.80 29.32 87.85 C 29.34 88.65 29.38 90.25 29.40 91.05 C 28.97 91.07 28.09 91.09 27.66 91.10 C 27.61 90.23 27.51 88.50 27.46 87.63 Z" />
<path fill="#030303" opacity="1.00" d=" M 72.08 89.76 C 72.99 89.13 73.89 88.51 74.80 87.88 C 74.42 89.42 74.03 90.96 73.63 92.50 C 73.24 91.81 72.47 90.44 72.08 89.76 Z" />
<path fill="#030303" opacity="1.00" d=" M 22.06 91.12 C 23.46 90.05 25.31 92.45 23.86 93.50 C 22.44 94.56 20.63 92.18 22.06 91.12 Z" />
<path fill="#030303" opacity="1.00" d=" M 75.64 91.33 C 76.13 91.20 77.12 90.93 77.61 90.80 C 77.57 91.42 77.47 92.66 77.43 93.28 C 76.95 93.37 76.00 93.55 75.53 93.64 C 75.55 93.06 75.61 91.91 75.64 91.33 Z" />
<path fill="#030303" opacity="1.00" d=" M 20.17 97.33 C 21.61 96.21 23.39 98.59 21.91 99.64 C 20.51 100.73 18.63 98.34 20.17 97.33 Z" />
<path fill="#030303" opacity="1.00" d=" M 29.13 96.89 C 30.63 95.68 32.07 98.37 30.71 99.36 C 29.20 100.53 27.73 97.86 29.13 96.89 Z" />
<path fill="#030303" opacity="1.00" d=" M 74.11 98.40 C 76.69 97.68 74.50 101.55 73.67 99.12 L 74.11 98.40 Z" />
<path fill="#030303" opacity="1.00" d=" M 25.18 100.37 C 26.59 99.28 28.39 101.70 26.95 102.75 C 25.51 103.83 23.76 101.44 25.18 100.37 Z" />
<path fill="#030303" opacity="1.00" d=" M 67.31 104.43 C 67.79 102.95 68.84 101.83 70.07 100.91 C 70.11 102.07 70.14 103.23 70.17 104.40 C 69.45 104.41 68.02 104.42 67.31 104.43 Z" />
<path fill="#030303" opacity="1.00" d=" M 32.99 101.91 C 33.63 101.85 34.91 101.75 35.54 101.70 C 35.47 102.91 35.38 104.12 35.29 105.33 C 34.66 105.37 33.41 105.45 32.78 105.49 C 32.85 104.30 32.92 103.10 32.99 101.91 Z" />
<path fill="#030303" opacity="1.00" d=" M 60.88 104.42 C 61.97 105.12 62.90 105.98 63.68 107.01 C 62.79 107.82 61.86 108.60 60.89 109.32 C 60.78 107.69 60.77 106.05 60.88 104.42 Z" />
<path fill="#030303" opacity="1.00" d=" M 24.17 106.89 C 24.88 106.91 26.32 106.95 27.03 106.97 C 27.07 107.71 27.15 109.19 27.19 109.93 C 25.45 109.67 24.44 108.61 24.17 106.89 Z" />
<path fill="#030303" opacity="1.00" d=" M 28.60 106.61 C 29.36 107.42 30.14 108.21 30.84 109.08 C 30.10 109.93 29.36 110.78 28.61 111.62 C 28.52 109.95 28.51 108.28 28.60 106.61 Z" />
<path fill="#030303" opacity="1.00" d=" M 40.97 107.62 C 42.44 106.41 44.22 108.85 42.50 109.81 C 41.07 111.24 39.42 108.56 40.97 107.62 Z" />
<path fill="#030303" opacity="1.00" d=" M 36.41 109.51 C 38.03 109.00 38.58 109.56 38.05 111.19 C 36.45 111.72 35.90 111.16 36.41 109.51 Z" />
<path fill="#030303" opacity="1.00" d=" M 65.17 109.39 C 66.60 108.17 68.55 110.49 66.74 111.47 C 65.32 112.73 63.38 110.33 65.17 109.39 Z" />
<path fill="#030303" opacity="1.00" d=" M 55.44 110.85 C 57.05 110.33 57.61 110.89 57.09 112.51 C 55.46 113.04 54.91 112.49 55.44 110.85 Z" />
<path fill="#030303" opacity="1.00" d=" M 50.01 113.13 C 51.07 113.49 52.77 113.34 52.61 114.93 C 52.09 115.68 51.54 116.41 50.96 117.12 C 50.62 115.79 50.31 114.46 50.01 113.13 Z" />
<path fill="#030303" opacity="1.00" d=" M 60.95 113.36 C 62.57 112.83 63.11 113.39 62.57 115.05 C 60.96 115.57 60.42 115.00 60.95 113.36 Z" />
<path fill="#030303" opacity="1.00" d=" M 32.87 113.73 C 33.66 113.78 35.24 113.89 36.02 113.95 C 36.03 114.75 36.04 116.36 36.05 117.17 C 35.26 117.20 33.70 117.25 32.92 117.28 C 32.91 116.39 32.88 114.62 32.87 113.73 Z" />
<path fill="#030303" opacity="1.00" d=" M 50.07 118.99 C 53.96 119.55 55.99 115.79 58.44 113.53 C 59.80 119.64 51.73 124.71 46.64 121.37 C 44.05 120.01 43.05 117.03 43.37 114.25 C 46.44 114.78 46.84 119.30 50.07 118.99 Z" />
<path fill="#030303" opacity="1.00" d=" M 39.00 116.39 C 40.50 115.22 42.03 117.85 40.57 118.83 C 39.08 120.11 37.66 117.36 39.00 116.39 Z" />
</g>
<g id="#fefefeff">
<path fill="#fefefe" opacity="1.00" d=" M 75.19 0.00 L 77.79 0.00 C 78.11 2.94 72.45 2.89 75.19 0.00 Z" />
<path fill="#fefefe" opacity="1.00" d=" M 46.01 6.78 C 46.42 5.59 46.62 4.35 46.86 3.11 C 47.07 4.79 47.32 6.46 47.58 8.13 C 50.12 8.36 52.67 8.42 55.22 8.44 C 55.23 7.98 55.24 7.06 55.25 6.60 C 59.38 6.05 64.01 5.86 67.59 8.34 C 73.09 12.54 78.79 17.05 81.66 23.54 C 83.24 28.54 78.10 31.60 75.21 34.72 C 75.66 32.36 78.38 31.34 79.38 29.21 C 79.57 27.54 79.64 25.86 79.75 24.18 C 78.05 25.77 76.50 27.52 75.07 29.35 C 75.29 27.32 75.47 25.27 75.44 23.23 C 72.94 26.73 72.75 31.22 70.67 34.93 C 71.05 32.65 71.73 30.36 71.08 28.06 C 69.82 30.17 68.92 32.47 68.17 34.81 C 66.41 34.32 64.67 33.77 62.92 33.24 C 63.93 38.58 65.62 43.89 68.66 48.45 C 71.95 46.68 75.09 44.65 78.29 42.74 C 81.94 50.25 81.49 59.49 78.17 67.04 C 77.41 69.49 74.90 70.38 72.59 70.63 C 71.13 68.41 69.65 66.19 67.66 64.41 C 65.74 71.47 73.60 79.63 80.76 77.06 C 79.71 74.54 76.75 74.65 74.55 73.90 C 81.40 70.31 82.67 61.97 83.27 55.02 C 82.89 49.82 84.15 44.65 83.16 39.48 C 83.92 38.92 84.68 38.36 85.44 37.80 C 87.78 53.29 86.85 69.35 82.63 84.47 C 80.58 94.08 75.59 102.83 69.40 110.37 C 64.48 116.52 58.64 122.24 51.25 125.27 C 43.88 126.94 36.13 124.33 30.33 119.72 C 23.65 114.79 20.27 106.77 17.81 99.10 C 15.75 92.91 12.96 86.71 13.08 80.05 C 13.04 77.00 13.27 73.94 13.08 70.89 C 9.72 74.37 9.94 81.05 4.31 82.19 C 2.93 76.76 6.38 72.07 7.39 66.97 C 8.18 62.39 2.07 60.06 3.18 55.33 C 5.26 55.34 7.70 54.99 9.21 56.79 C 11.87 59.85 12.69 63.99 14.24 67.64 C 17.30 59.91 18.21 51.53 20.22 43.49 C 20.82 41.10 19.86 38.58 20.76 36.21 C 21.80 32.95 22.43 29.60 22.96 26.22 C 23.63 26.25 24.98 26.33 25.65 26.37 C 27.68 30.44 31.95 32.33 35.63 34.60 C 33.97 34.58 32.32 34.53 30.67 34.45 C 31.16 37.74 27.15 36.37 25.20 37.21 C 27.94 38.09 30.81 38.41 33.65 38.82 C 33.12 42.70 34.00 46.72 32.70 50.49 C 31.18 56.79 31.40 64.22 35.45 69.56 C 37.18 72.16 40.44 72.40 43.27 72.54 C 41.50 73.89 38.87 74.97 39.43 77.70 C 45.71 76.26 49.00 69.79 50.40 64.05 C 46.96 65.19 45.14 69.61 41.07 68.96 C 36.14 69.21 35.13 62.84 35.17 59.05 C 34.42 52.65 36.42 46.26 40.46 41.28 C 41.65 41.09 42.88 41.33 43.89 42.00 C 47.57 44.21 51.08 46.73 54.95 48.62 C 57.91 44.84 60.45 40.24 59.38 35.26 C 57.95 37.08 56.86 39.12 55.58 41.04 C 54.66 37.61 54.67 34.01 53.68 30.61 C 52.35 29.50 50.76 28.67 49.65 27.31 C 48.27 24.83 47.32 22.07 45.28 20.02 C 45.53 21.95 46.02 23.82 46.47 25.71 C 41.82 21.86 38.78 16.66 36.00 11.40 C 37.07 10.67 38.08 9.85 39.23 9.25 C 41.30 7.83 44.32 8.94 46.01 6.78 M 50.47 17.60 C 52.74 19.09 55.21 20.72 58.06 20.48 C 61.09 20.33 65.09 21.40 66.67 17.97 C 61.26 18.05 55.87 17.80 50.47 17.60 M 52.70 22.89 C 57.89 26.90 66.31 26.19 70.68 21.30 C 64.97 23.80 58.72 22.70 52.70 22.89 M 61.87 42.93 C 59.84 52.11 63.04 61.22 64.90 70.14 C 66.00 73.59 66.96 77.11 66.63 80.77 C 62.38 81.47 58.02 80.02 55.11 76.84 C 53.13 74.47 52.66 70.97 54.53 68.39 C 55.87 69.87 57.17 71.38 58.57 72.80 C 58.39 71.00 59.09 68.72 57.44 67.42 C 55.66 65.21 52.07 66.69 51.11 69.03 C 48.58 73.75 45.07 77.95 43.33 83.07 C 46.87 81.59 48.46 77.88 50.28 74.77 C 51.93 77.60 53.91 80.26 56.71 82.05 C 56.08 82.54 54.80 83.52 54.17 84.01 C 57.70 82.46 61.30 83.85 64.92 84.04 C 68.73 83.72 69.88 79.24 69.11 76.09 C 67.78 71.14 66.04 66.24 65.61 61.10 C 65.66 54.93 65.15 48.26 61.87 42.93 M 45.59 51.81 C 45.44 54.20 44.83 56.94 46.99 58.64 C 49.24 56.97 48.57 54.17 48.43 51.77 C 47.48 51.78 46.54 51.79 45.59 51.81 M 75.64 51.82 C 75.27 54.46 75.63 57.08 76.98 59.39 C 78.91 57.29 78.76 54.53 78.39 51.89 C 77.47 51.87 76.56 51.84 75.64 51.82 M 18.19 75.39 C 16.72 76.26 17.83 79.38 19.56 78.27 C 21.14 77.36 19.96 74.38 18.19 75.39 M 35.18 79.75 C 36.21 85.41 37.33 91.06 38.67 96.65 C 39.52 100.42 42.00 103.59 44.72 106.23 C 47.55 108.97 52.25 109.61 55.72 108.01 C 59.00 104.54 64.05 102.55 65.73 97.79 C 67.31 94.37 68.83 90.89 69.58 87.19 C 65.66 89.48 62.11 93.61 57.07 92.70 C 48.44 92.19 44.62 83.32 38.40 78.73 C 37.59 78.98 35.99 79.49 35.18 79.75 M 48.98 81.41 C 48.46 83.02 49.02 83.57 50.64 83.08 C 51.18 81.44 50.62 80.88 48.98 81.41 M 17.63 83.46 C 17.61 84.20 17.56 85.67 17.54 86.41 C 18.16 86.32 19.41 86.15 20.04 86.06 C 20.07 85.47 20.12 84.28 20.15 83.69 C 19.52 83.63 18.26 83.52 17.63 83.46 M 23.20 83.27 C 21.78 84.30 23.38 86.82 24.86 85.66 C 26.35 84.67 24.64 82.17 23.20 83.27 M 32.11 85.55 C 30.04 87.30 34.20 89.07 34.75 86.82 C 35.29 85.23 33.08 84.56 32.11 85.55 M 61.93 85.51 C 60.71 86.51 62.20 88.70 63.53 87.69 C 64.78 86.74 63.21 84.51 61.93 85.51 M 58.24 87.33 C 57.87 88.73 58.36 89.26 59.70 88.91 C 60.09 87.51 59.61 86.98 58.24 87.33 M 27.46 87.63 C 27.51 88.50 27.61 90.23 27.66 91.10 C 28.09 91.09 28.97 91.07 29.40 91.05 C 29.38 90.25 29.34 88.65 29.32 87.85 C 28.85 87.80 27.92 87.69 27.46 87.63 M 72.08 89.76 C 72.47 90.44 73.24 91.81 73.63 92.50 C 74.03 90.96 74.42 89.42 74.80 87.88 C 73.89 88.51 72.99 89.13 72.08 89.76 M 22.06 91.12 C 20.63 92.18 22.44 94.56 23.86 93.50 C 25.31 92.45 23.46 90.05 22.06 91.12 M 75.64 91.33 C 75.61 91.91 75.55 93.06 75.53 93.64 C 76.00 93.55 76.95 93.37 77.43 93.28 C 77.47 92.66 77.57 91.42 77.61 90.80 C 77.12 90.93 76.13 91.20 75.64 91.33 M 20.17 97.33 C 18.63 98.34 20.51 100.73 21.91 99.64 C 23.39 98.59 21.61 96.21 20.17 97.33 M 29.13 96.89 C 27.73 97.86 29.20 100.53 30.71 99.36 C 32.07 98.37 30.63 95.68 29.13 96.89 M 74.11 98.40 L 73.67 99.12 C 74.50 101.55 76.69 97.68 74.11 98.40 M 25.18 100.37 C 23.76 101.44 25.51 103.83 26.95 102.75 C 28.39 101.70 26.59 99.28 25.18 100.37 M 67.31 104.43 C 68.02 104.42 69.45 104.41 70.17 104.40 C 70.14 103.23 70.11 102.07 70.07 100.91 C 68.84 101.83 67.79 102.95 67.31 104.43 M 32.99 101.91 C 32.92 103.10 32.85 104.30 32.78 105.49 C 33.41 105.45 34.66 105.37 35.29 105.33 C 35.38 104.12 35.47 102.91 35.54 101.70 C 34.91 101.75 33.63 101.85 32.99 101.91 M 60.88 104.42 C 60.77 106.05 60.78 107.69 60.89 109.32 C 61.86 108.60 62.79 107.82 63.68 107.01 C 62.90 105.98 61.97 105.12 60.88 104.42 M 24.17 106.89 C 24.44 108.61 25.45 109.67 27.19 109.93 C 27.15 109.19 27.07 107.71 27.03 106.97 C 26.32 106.95 24.88 106.91 24.17 106.89 M 28.60 106.61 C 28.51 108.28 28.52 109.95 28.61 111.62 C 29.36 110.78 30.10 109.93 30.84 109.08 C 30.14 108.21 29.36 107.42 28.60 106.61 M 40.97 107.62 C 39.42 108.56 41.07 111.24 42.50 109.81 C 44.22 108.85 42.44 106.41 40.97 107.62 M 36.41 109.51 C 35.90 111.16 36.45 111.72 38.05 111.19 C 38.58 109.56 38.03 109.00 36.41 109.51 M 65.17 109.39 C 63.38 110.33 65.32 112.73 66.74 111.47 C 68.55 110.49 66.60 108.17 65.17 109.39 M 55.44 110.85 C 54.91 112.49 55.46 113.04 57.09 112.51 C 57.61 110.89 57.05 110.33 55.44 110.85 M 50.01 113.13 C 50.31 114.46 50.62 115.79 50.96 117.12 C 51.54 116.41 52.09 115.68 52.61 114.93 C 52.77 113.34 51.07 113.49 50.01 113.13 M 60.95 113.36 C 60.42 115.00 60.96 115.57 62.57 115.05 C 63.11 113.39 62.57 112.83 60.95 113.36 M 32.87 113.73 C 32.88 114.62 32.91 116.39 32.92 117.28 C 33.70 117.25 35.26 117.20 36.05 117.17 C 36.04 116.36 36.03 114.75 36.02 113.95 C 35.24 113.89 33.66 113.78 32.87 113.73 M 50.07 118.99 C 46.84 119.30 46.44 114.78 43.37 114.25 C 43.05 117.03 44.05 120.01 46.64 121.37 C 51.73 124.71 59.80 119.64 58.44 113.53 C 55.99 115.79 53.96 119.55 50.07 118.99 M 39.00 116.39 C 37.66 117.36 39.08 120.11 40.57 118.83 C 42.03 117.85 40.50 115.22 39.00 116.39 Z" />
<path fill="#fefefe" opacity="1.00" d=" M 33.59 16.07 C 34.36 16.15 35.88 16.30 36.64 16.38 C 36.61 16.93 36.53 18.03 36.50 18.57 C 36.04 18.50 35.13 18.35 34.68 18.28 C 34.41 17.73 33.86 16.62 33.59 16.07 Z" />
<path fill="#fefefe" opacity="1.00" d=" M 26.82 20.98 C 28.66 20.39 30.48 19.77 32.32 19.18 C 32.42 19.87 32.61 21.25 32.71 21.94 C 30.74 21.66 28.77 21.37 26.82 20.98 Z" />
<path fill="#fefefe" opacity="1.00" d=" M 24.10 23.09 C 24.37 22.69 24.64 22.28 24.90 21.87 C 25.83 22.84 26.80 23.78 27.76 24.71 C 26.55 24.16 25.34 23.60 24.10 23.09 Z" />
<path fill="#fefefe" opacity="1.00" d=" M 39.38 83.50 C 40.50 85.12 41.72 86.69 42.68 88.43 C 42.96 90.51 42.30 92.58 42.00 94.64 C 39.38 91.51 39.42 87.35 39.38 83.50 Z" />
<path fill="#fefefe" opacity="1.00" d=" M 45.33 91.29 C 46.34 91.81 47.35 92.33 48.38 92.82 C 48.63 94.36 48.56 95.93 48.59 97.49 C 48.07 97.51 47.02 97.55 46.49 97.57 C 45.98 95.50 45.55 93.41 45.33 91.29 Z" />
<path fill="#fefefe" opacity="1.00" d=" M 53.38 95.50 C 54.55 95.56 55.71 95.63 56.87 95.70 C 56.44 97.31 55.92 98.90 55.38 100.48 C 54.97 100.42 54.13 100.29 53.72 100.22 C 53.60 98.65 53.49 97.07 53.38 95.50 Z" />
<path fill="#fefefe" opacity="1.00" d=" M 61.51 95.69 C 62.05 95.61 63.12 95.45 63.65 95.37 C 63.50 96.35 63.36 97.32 63.22 98.30 C 62.74 98.42 61.79 98.66 61.32 98.77 C 61.38 97.75 61.45 96.72 61.51 95.69 Z" />
</g>
<g id="#aeaeaeff">
<path fill="#aeaeae" opacity="1.00" d=" M 17.20 3.92 C 21.28 4.46 24.84 6.74 27.79 9.50 C 24.00 8.26 19.97 6.96 17.20 3.92 Z" />
<path fill="#aeaeae" opacity="1.00" d=" M 76.58 8.42 C 79.92 8.43 83.18 9.31 86.20 10.69 C 82.87 10.61 79.56 9.94 76.58 8.42 Z" />
<path fill="#aeaeae" opacity="1.00" d=" M 85.44 14.38 C 86.39 13.54 88.33 14.89 87.66 16.07 C 86.69 17.01 84.83 15.54 85.44 14.38 Z" />
<path fill="#aeaeae" opacity="1.00" d=" M 12.59 19.06 C 14.83 18.11 17.25 18.23 19.43 19.26 C 17.15 19.47 14.85 19.43 12.59 19.06 Z" />
<path fill="#aeaeae" opacity="1.00" d=" M 8.49 31.06 C 10.05 29.20 12.27 28.21 14.55 27.55 C 12.94 29.35 10.87 30.60 8.49 31.06 Z" />
<path fill="#aeaeae" opacity="1.00" d=" M 18.22 28.15 C 21.27 27.84 18.04 31.87 16.40 30.57 C 15.83 29.44 17.24 28.37 18.22 28.15 Z" />
<path fill="#aeaeae" opacity="1.00" d=" M 9.42 34.41 C 11.37 34.97 8.93 37.90 7.59 36.92 C 6.94 35.80 8.36 34.51 9.42 34.41 Z" />
<path fill="#aeaeae" opacity="1.00" d=" M 84.33 35.19 C 85.63 35.84 85.60 36.51 84.23 37.19 C 82.94 36.53 82.97 35.86 84.33 35.19 Z" />
</g>
<g id="#4f4f4ffe">
<path fill="#4f4f4f" opacity="1.00" d=" M 13.58 8.88 C 16.34 8.70 18.75 10.00 20.49 12.07 C 17.94 11.62 15.56 10.56 13.58 8.88 Z" />
<path fill="#4f4f4f" opacity="1.00" d=" M 11.48 54.43 L 12.35 54.55 C 12.54 55.00 12.91 55.91 13.09 56.37 C 12.30 58.64 10.15 55.57 11.48 54.43 Z" />
</g>
</svg>
