<?xml version="1.0" encoding="UTF-8" ?>
<!DOCTYPE svg PUBLIC "-//W3C//DTD SVG 1.1//EN" "http://www.w3.org/Graphics/SVG/1.1/DTD/svg11.dtd">
<svg width="93pt" height="128pt" viewBox="0 0 93 128" version="1.1" xmlns="http://www.w3.org/2000/svg">
<g id="#030303ff">
<path fill="#030303" opacity="1.00" d=" M 24.30 0.00 L 81.12 0.00 C 83.53 0.45 85.96 0.82 88.39 1.14 C 88.38 2.98 88.44 4.81 88.52 6.65 C 87.04 6.82 85.55 6.98 84.06 7.15 C 86.27 8.36 88.49 9.57 90.67 10.84 C 89.57 13.89 89.73 17.14 91.27 20.00 C 90.45 22.21 91.45 24.15 93.00 25.73 L 93.00 26.42 C 92.02 29.38 90.28 32.22 90.37 35.43 C 90.45 40.68 88.43 45.72 88.75 50.99 C 89.57 62.23 87.79 73.48 85.45 84.44 C 84.38 89.86 82.07 94.88 79.94 99.94 C 78.88 101.99 80.43 104.04 80.97 106.00 C 79.69 106.11 78.42 106.22 77.15 106.33 C 71.37 105.55 66.42 102.04 60.95 100.61 C 59.69 101.33 58.84 102.57 57.80 103.55 C 56.91 101.86 56.12 100.12 55.53 98.30 C 57.62 98.81 59.65 99.63 61.81 99.80 C 64.84 98.72 67.66 97.13 70.55 95.72 C 70.87 96.61 71.51 98.39 71.83 99.28 C 72.76 97.92 73.54 96.46 74.61 95.21 C 76.68 93.97 79.06 93.40 81.31 92.58 C 81.51 85.02 84.74 77.97 85.57 70.49 C 87.17 56.33 87.29 41.70 83.05 27.97 C 81.38 20.43 75.76 14.70 69.84 10.16 C 66.15 6.74 60.27 4.93 55.61 7.37 C 53.75 8.20 51.70 8.84 49.65 8.41 C 47.34 8.66 47.13 5.92 46.22 4.41 C 46.06 5.42 45.89 6.43 45.71 7.44 C 42.87 8.21 40.06 9.10 37.39 10.37 C 35.31 11.48 33.10 9.97 31.10 9.37 C 32.87 10.91 34.57 12.54 36.28 14.16 C 33.07 16.82 30.45 20.69 25.85 20.70 C 22.35 27.71 20.52 35.51 20.28 43.32 C 18.68 51.45 17.00 59.60 14.66 67.56 C 12.49 64.16 11.73 59.99 9.15 56.87 C 7.63 55.08 5.15 55.47 3.08 55.33 C 2.88 59.28 6.37 61.77 7.49 65.25 C 7.61 71.13 2.89 76.05 3.67 82.02 C 9.52 81.47 10.01 74.84 12.49 70.81 C 13.25 75.02 11.96 79.34 13.15 83.51 C 15.10 91.79 17.92 99.88 21.22 107.72 C 25.93 118.89 38.17 127.47 50.53 125.33 C 55.86 123.34 60.83 120.04 64.42 115.60 C 64.61 113.74 64.40 111.87 64.54 110.01 C 65.31 111.25 66.05 112.51 66.76 113.80 C 69.11 110.74 72.05 108.12 75.77 106.91 C 70.97 112.98 66.09 119.20 59.58 123.55 C 56.92 125.21 54.12 126.62 51.30 128.00 L 39.57 128.00 C 33.58 125.17 27.89 121.50 23.28 116.71 C 18.87 111.47 16.74 104.81 14.51 98.46 C 12.72 93.53 11.39 88.45 10.39 83.31 C 7.93 83.93 5.33 85.26 2.78 84.37 C 1.13 83.16 0.03 81.10 0.43 79.03 C 1.11 74.55 3.66 70.60 4.22 66.09 C 3.28 63.57 1.44 61.53 0.00 59.29 L 0.00 54.77 C 1.34 53.94 2.66 53.05 4.12 52.45 C 6.76 52.34 9.15 53.68 11.55 54.58 C 11.76 52.82 12.00 51.06 12.23 49.30 C 11.01 49.47 9.80 49.65 8.58 49.83 C 8.08 46.73 6.78 43.80 4.32 41.77 C 5.48 40.23 6.67 38.71 8.04 37.35 C 8.73 36.53 10.80 35.76 10.10 34.44 C 8.47 33.93 7.18 35.94 7.44 37.40 C 6.82 37.46 5.57 37.59 4.94 37.65 C 5.40 33.57 6.10 29.49 8.05 25.81 C 5.84 25.66 3.63 25.51 1.42 25.24 C 4.15 23.52 7.19 22.42 10.28 21.55 C 9.40 19.91 8.83 18.13 8.63 16.29 C 7.71 15.60 6.79 14.92 5.86 14.24 C 7.64 13.28 9.41 12.32 11.13 11.27 C 10.05 9.86 8.96 8.46 7.92 7.02 C 9.71 7.36 11.49 7.76 13.27 8.18 C 13.60 7.65 14.27 6.59 14.60 6.06 C 13.02 5.17 11.44 4.29 9.88 3.38 C 15.00 4.18 19.88 2.48 24.30 0.00 M 77.10 95.38 C 75.80 96.09 76.99 98.44 78.20 97.19 C 79.43 96.38 78.42 94.19 77.10 95.38 Z" />
<path fill="#030303" opacity="1.00" d=" M 51.22 17.14 C 56.05 18.54 61.05 18.58 66.03 18.39 C 65.87 18.88 65.54 19.86 65.38 20.35 C 60.82 20.58 56.09 21.04 51.80 19.10 C 51.66 18.61 51.37 17.63 51.22 17.14 Z" />
<path fill="#030303" opacity="1.00" d=" M 38.75 20.00 C 41.70 20.84 43.90 23.03 46.01 25.13 C 45.74 23.51 45.47 21.90 45.32 20.27 C 48.99 23.50 49.67 28.68 51.84 32.85 C 52.12 31.81 52.67 29.73 52.95 28.70 C 54.74 32.66 54.62 37.10 55.75 41.25 C 56.89 39.25 57.41 36.65 59.70 35.61 C 59.43 40.30 58.02 45.28 54.32 48.43 C 51.38 45.44 48.38 42.49 45.05 39.95 C 43.68 38.74 41.85 39.64 40.95 40.94 C 37.43 45.08 34.96 50.45 35.21 55.98 C 35.12 60.50 35.09 66.12 39.25 68.99 C 43.47 70.47 46.72 66.48 49.29 63.78 C 49.51 64.33 49.95 65.41 50.17 65.95 C 48.37 70.53 45.75 75.47 40.98 77.49 C 40.57 77.39 39.74 77.19 39.33 77.09 C 38.97 74.69 41.62 73.84 43.07 72.51 C 39.37 72.95 35.80 71.24 34.12 67.86 C 29.36 58.08 32.09 45.89 39.22 37.97 C 36.97 37.54 34.72 37.01 32.63 36.03 C 35.34 35.59 37.93 34.71 40.34 33.40 C 38.51 31.03 36.79 28.56 34.58 26.52 C 36.06 26.62 37.54 26.74 39.02 26.89 C 38.03 25.66 37.08 24.42 36.21 23.11 C 39.26 23.77 41.28 26.41 44.22 27.35 C 42.72 24.65 39.78 22.96 38.75 20.00 Z" />
<path fill="#030303" opacity="1.00" d=" M 62.05 23.35 C 64.98 23.22 67.70 22.02 70.49 21.23 C 69.01 23.94 65.84 24.84 63.01 25.34 C 59.50 25.70 55.35 25.73 52.88 22.76 C 55.96 22.65 58.97 23.57 62.05 23.35 Z" />
<path fill="#030303" opacity="1.00" d=" M 71.78 33.51 C 72.74 30.10 72.67 26.00 75.56 23.50 C 75.54 25.37 75.34 27.22 75.12 29.07 C 76.66 27.31 78.07 25.24 80.43 24.52 C 79.60 27.05 77.86 29.09 76.43 31.28 C 78.34 30.31 80.21 29.23 82.23 28.47 C 80.17 31.41 77.52 33.88 75.54 36.87 C 77.29 35.66 78.98 34.31 81.05 33.69 C 80.07 35.49 78.82 37.12 77.50 38.68 C 82.52 42.89 83.49 49.87 83.34 56.03 C 82.68 62.66 81.19 70.42 74.76 73.89 C 76.86 74.45 78.95 75.03 80.97 75.83 C 79.57 76.80 78.08 78.21 76.23 77.59 C 71.51 76.52 68.73 72.21 66.91 68.06 C 67.76 72.00 69.91 75.83 69.20 79.97 C 68.83 82.76 65.81 85.00 63.05 84.07 C 57.67 83.46 52.64 80.03 50.51 74.99 C 48.49 77.74 47.17 81.53 43.65 82.66 C 44.78 78.03 48.11 74.43 50.26 70.27 C 51.28 68.16 53.09 65.78 55.77 66.35 C 58.51 66.85 58.88 70.13 58.73 72.43 C 57.03 71.29 55.55 69.86 53.93 68.63 C 52.99 71.59 53.27 75.13 55.71 77.32 C 58.67 79.77 62.72 82.03 66.63 80.56 C 66.99 75.78 64.84 71.41 64.03 66.80 C 62.62 59.30 60.84 51.79 61.23 44.11 C 61.78 44.14 62.90 44.19 63.46 44.21 C 63.89 51.77 65.41 59.20 66.60 66.66 C 67.28 66.02 67.98 65.39 68.69 64.77 C 70.33 66.67 71.31 70.00 73.99 70.46 C 78.53 69.51 79.15 64.10 80.22 60.39 C 80.95 54.05 81.59 46.32 76.67 41.42 C 72.77 41.34 71.50 47.65 67.62 47.53 C 65.39 42.89 63.17 37.97 63.24 32.72 C 65.99 34.32 66.07 37.87 67.56 40.40 C 68.23 36.23 68.24 31.71 71.04 28.26 C 71.33 30.01 71.58 31.76 71.78 33.51 Z" />
<path fill="#030303" opacity="1.00" d=" M 45.37 52.25 C 46.44 52.19 47.52 52.17 48.60 52.18 C 48.64 54.00 48.64 55.83 48.58 57.65 C 47.52 57.67 46.47 57.69 45.41 57.69 C 45.34 55.87 45.32 54.06 45.37 52.25 Z" />
<path fill="#030303" opacity="1.00" d=" M 75.38 52.38 C 76.44 52.27 77.51 52.20 78.57 52.16 C 78.64 54.24 78.61 56.32 78.43 58.39 C 77.48 58.38 76.52 58.37 75.57 58.36 C 75.39 56.37 75.33 54.37 75.38 52.38 Z" />
<path fill="#030303" opacity="1.00" d=" M 17.56 75.44 C 18.12 75.38 19.25 75.25 19.81 75.18 C 19.74 76.35 19.66 77.53 19.58 78.70 C 19.12 78.58 18.21 78.35 17.75 78.24 C 17.69 77.30 17.63 76.37 17.56 75.44 Z" />
<path fill="#030303" opacity="1.00" d=" M 48.55 81.27 C 49.20 81.27 50.51 81.27 51.17 81.27 C 50.85 82.49 50.54 83.70 50.21 84.92 C 49.67 83.70 49.07 82.50 48.55 81.27 Z" />
<path fill="#030303" opacity="1.00" d=" M 37.12 82.52 C 38.65 81.33 40.04 84.00 38.67 84.99 C 37.19 86.20 35.72 83.46 37.12 82.52 Z" />
<path fill="#030303" opacity="1.00" d=" M 71.13 82.46 C 72.77 81.80 74.49 85.45 72.42 85.80 C 71.22 85.36 70.40 83.58 71.13 82.46 Z" />
<path fill="#030303" opacity="1.00" d=" M 17.59 83.52 C 18.09 83.47 19.11 83.37 19.62 83.32 C 19.64 83.95 19.68 85.22 19.70 85.85 C 19.11 85.84 17.94 85.83 17.36 85.82 C 17.42 85.24 17.53 84.09 17.59 83.52 Z" />
<path fill="#030303" opacity="1.00" d=" M 23.21 83.29 C 24.66 82.15 26.35 84.70 24.87 85.69 C 23.38 86.85 21.82 84.32 23.21 83.29 Z" />
<path fill="#030303" opacity="1.00" d=" M 76.22 84.23 C 77.48 84.90 77.45 85.58 76.12 86.27 C 74.86 85.59 74.89 84.91 76.22 84.23 Z" />
<path fill="#030303" opacity="1.00" d=" M 46.11 86.49 C 47.63 85.31 49.06 87.95 47.68 88.95 C 46.21 90.16 44.70 87.44 46.11 86.49 Z" />
<path fill="#030303" opacity="1.00" d=" M 51.37 87.48 C 52.79 87.98 52.57 90.86 51.13 91.30 C 49.36 90.91 50.23 88.14 51.37 87.48 Z" />
<path fill="#030303" opacity="1.00" d=" M 56.48 87.29 C 58.11 86.74 58.62 87.28 58.01 88.92 C 56.39 89.50 55.88 88.96 56.48 87.29 Z" />
<path fill="#030303" opacity="1.00" d=" M 63.12 87.49 C 64.64 86.31 66.06 88.96 64.67 89.95 C 63.20 91.16 61.70 88.43 63.12 87.49 Z" />
<path fill="#030303" opacity="1.00" d=" M 68.22 87.18 C 70.10 86.96 70.80 90.06 68.89 90.54 C 67.21 90.77 66.72 87.69 68.22 87.18 Z" />
<path fill="#030303" opacity="1.00" d=" M 27.36 88.07 C 27.89 88.12 28.94 88.21 29.47 88.25 C 29.51 88.88 29.58 90.14 29.62 90.77 C 29.07 90.77 27.96 90.77 27.41 90.77 C 27.40 90.10 27.37 88.74 27.36 88.07 Z" />
<path fill="#030303" opacity="1.00" d=" M 73.15 88.20 C 74.40 88.90 74.36 89.57 73.02 90.23 C 71.76 89.52 71.81 88.85 73.15 88.20 Z" />
<path fill="#030303" opacity="1.00" d=" M 41.17 89.52 C 42.15 88.47 44.28 89.30 43.76 90.85 C 43.22 93.16 39.14 91.24 41.17 89.52 Z" />
<path fill="#030303" opacity="1.00" d=" M 58.17 90.52 C 59.15 89.47 61.28 90.30 60.76 91.85 C 60.22 94.17 56.14 92.24 58.17 90.52 Z" />
<path fill="#030303" opacity="1.00" d=" M 22.06 91.17 C 23.46 90.09 25.33 92.47 23.86 93.53 C 22.46 94.60 20.62 92.22 22.06 91.17 Z" />
<path fill="#030303" opacity="1.00" d=" M 34.25 92.69 C 34.97 92.65 36.42 92.56 37.14 92.52 C 36.88 93.70 36.52 94.85 36.04 95.96 C 34.96 95.16 34.55 93.94 34.25 92.69 Z" />
<path fill="#030303" opacity="1.00" d=" M 28.31 97.94 C 29.07 97.27 29.85 96.63 30.66 96.04 C 30.75 97.37 30.81 98.70 30.82 100.04 C 29.66 99.71 28.82 99.01 28.31 97.94 Z" />
<path fill="#030303" opacity="1.00" d=" M 20.18 97.32 C 21.63 96.19 23.37 98.61 21.90 99.65 C 20.48 100.75 18.65 98.33 20.18 97.32 Z" />
<path fill="#030303" opacity="1.00" d=" M 38.15 100.14 C 38.88 98.76 39.49 97.23 40.93 96.43 C 41.96 98.23 42.65 100.19 42.77 102.27 C 41.20 101.64 39.68 100.87 38.15 100.14 Z" />
<path fill="#030303" opacity="1.00" d=" M 44.24 98.86 C 46.02 98.43 47.84 98.23 49.66 98.10 C 49.54 99.38 49.40 100.65 49.25 101.93 C 47.56 100.95 45.91 99.88 44.24 98.86 Z" />
<path fill="#030303" opacity="1.00" d=" M 24.53 100.04 C 25.36 100.19 27.01 100.49 27.84 100.64 C 27.22 101.80 26.60 102.95 25.95 104.09 C 25.45 102.75 24.97 101.40 24.53 100.04 Z" />
<path fill="#030303" opacity="1.00" d=" M 51.06 100.33 C 54.41 100.45 49.53 103.34 51.06 100.33 Z" />
<path fill="#030303" opacity="1.00" d=" M 33.35 102.22 C 33.94 102.22 35.13 102.22 35.73 102.22 C 35.59 103.25 35.45 104.28 35.31 105.31 C 34.77 105.41 33.69 105.60 33.16 105.70 C 33.21 104.54 33.28 103.38 33.35 102.22 Z" />
<path fill="#030303" opacity="1.00" d=" M 37.07 104.33 C 40.41 104.45 35.54 107.34 37.07 104.33 Z" />
<path fill="#030303" opacity="1.00" d=" M 50.28 105.27 C 51.70 104.13 53.60 106.44 51.97 107.47 C 50.59 108.58 48.58 106.24 50.28 105.27 Z" />
<path fill="#030303" opacity="1.00" d=" M 62.35 105.09 C 63.06 104.34 65.78 104.87 64.36 106.09 C 63.12 107.54 59.60 106.63 62.35 105.09 Z" />
<path fill="#030303" opacity="1.00" d=" M 24.38 107.20 C 24.92 107.23 26.00 107.27 26.54 107.29 C 26.56 107.92 26.60 109.18 26.61 109.81 C 26.11 109.73 25.09 109.58 24.59 109.50 C 24.53 108.93 24.43 107.78 24.38 107.20 Z" />
<path fill="#030303" opacity="1.00" d=" M 28.42 107.20 C 29.17 107.46 29.91 107.77 30.62 108.12 C 30.60 108.72 30.55 109.92 30.53 110.52 C 29.97 110.57 28.84 110.67 28.28 110.72 C 28.32 109.55 28.37 108.37 28.42 107.20 Z" />
<path fill="#030303" opacity="1.00" d=" M 42.10 107.47 C 43.15 106.51 45.21 107.40 44.78 108.92 C 44.24 111.22 40.25 109.13 42.10 107.47 Z" />
<path fill="#030303" opacity="1.00" d=" M 65.56 107.15 C 66.54 106.00 68.87 107.40 67.84 108.75 C 66.89 109.92 64.56 108.46 65.56 107.15 Z" />
<path fill="#030303" opacity="1.00" d=" M 59.10 108.47 C 60.15 107.51 62.21 108.40 61.77 109.93 C 61.24 112.22 57.25 110.13 59.10 108.47 Z" />
<path fill="#030303" opacity="1.00" d=" M 36.48 109.30 C 37.81 108.25 39.37 110.49 37.97 111.42 C 36.64 112.51 35.15 110.22 36.48 109.30 Z" />
<path fill="#030303" opacity="1.00" d=" M 47.12 110.06 C 48.59 108.81 50.07 111.55 48.69 112.51 C 47.19 113.68 45.70 111.05 47.12 110.06 Z" />
<path fill="#030303" opacity="1.00" d=" M 32.85 114.12 C 33.64 114.21 35.22 114.40 36.01 114.50 C 35.41 115.78 34.74 117.02 34.03 118.25 C 33.61 116.88 33.23 115.50 32.85 114.12 Z" />
<path fill="#030303" opacity="1.00" d=" M 47.32 121.80 C 44.57 120.69 41.42 116.37 44.75 114.11 C 46.49 116.10 47.67 119.82 50.95 119.33 C 53.82 118.21 56.38 116.45 59.19 115.20 C 57.82 120.04 52.32 124.27 47.32 121.80 Z" />
<path fill="#030303" opacity="1.00" d=" M 50.46 114.87 C 51.87 114.44 52.37 114.92 51.94 116.30 C 50.54 116.74 50.04 116.26 50.46 114.87 Z" />
<path fill="#030303" opacity="1.00" d=" M 38.12 116.50 C 38.86 116.42 40.34 116.24 41.08 116.16 C 40.77 117.49 40.43 118.82 40.05 120.13 C 39.37 118.94 38.74 117.73 38.12 116.50 Z" />
</g>
<g id="#fdfdfdff">
<path fill="#fdfdfd" opacity="1.00" d=" M 46.22 4.41 C 47.13 5.92 47.34 8.66 49.65 8.41 C 51.70 8.84 53.75 8.20 55.61 7.37 C 60.27 4.93 66.15 6.74 69.84 10.16 C 75.76 14.70 81.38 20.43 83.05 27.97 C 87.29 41.70 87.17 56.33 85.57 70.49 C 84.74 77.97 81.51 85.02 81.31 92.58 C 79.06 93.40 76.68 93.97 74.61 95.21 C 73.54 96.46 72.76 97.92 71.83 99.28 C 71.51 98.39 70.87 96.61 70.55 95.72 C 67.66 97.13 64.84 98.72 61.81 99.80 C 59.65 99.63 57.62 98.81 55.53 98.30 C 56.12 100.12 56.91 101.86 57.80 103.55 C 58.84 102.57 59.69 101.33 60.95 100.61 C 66.42 102.04 71.37 105.55 77.15 106.33 C 76.80 106.48 76.12 106.77 75.77 106.91 C 72.05 108.12 69.11 110.74 66.76 113.80 C 66.05 112.51 65.31 111.25 64.54 110.01 C 64.40 111.87 64.61 113.74 64.42 115.60 C 60.83 120.04 55.86 123.34 50.53 125.33 C 38.17 127.47 25.93 118.89 21.22 107.72 C 17.92 99.88 15.10 91.79 13.15 83.51 C 11.96 79.34 13.25 75.02 12.49 70.81 C 10.01 74.84 9.52 81.47 3.67 82.02 C 2.89 76.05 7.61 71.13 7.49 65.25 C 6.37 61.77 2.88 59.28 3.08 55.33 C 5.15 55.47 7.63 55.08 9.15 56.87 C 11.73 59.99 12.49 64.16 14.66 67.56 C 17.00 59.60 18.68 51.45 20.28 43.32 C 20.52 35.51 22.35 27.71 25.85 20.70 C 30.45 20.69 33.07 16.82 36.28 14.16 C 34.57 12.54 32.87 10.91 31.10 9.37 C 33.10 9.97 35.31 11.48 37.39 10.37 C 40.06 9.10 42.87 8.21 45.71 7.44 C 45.89 6.43 46.06 5.42 46.22 4.41 M 51.22 17.14 C 51.37 17.63 51.66 18.61 51.80 19.10 C 56.09 21.04 60.82 20.58 65.38 20.35 C 65.54 19.86 65.87 18.88 66.03 18.39 C 61.05 18.58 56.05 18.54 51.22 17.14 M 38.75 20.00 C 39.78 22.96 42.72 24.65 44.22 27.35 C 41.28 26.41 39.26 23.77 36.21 23.11 C 37.08 24.42 38.03 25.66 39.02 26.89 C 37.54 26.74 36.06 26.62 34.58 26.52 C 36.79 28.56 38.51 31.03 40.34 33.40 C 37.93 34.71 35.34 35.59 32.63 36.03 C 34.72 37.01 36.97 37.54 39.22 37.97 C 32.09 45.89 29.36 58.08 34.12 67.86 C 35.80 71.24 39.37 72.95 43.07 72.51 C 41.62 73.84 38.97 74.69 39.33 77.09 C 39.74 77.19 40.57 77.39 40.98 77.49 C 45.75 75.47 48.37 70.53 50.17 65.95 C 49.95 65.41 49.51 64.33 49.29 63.78 C 46.72 66.48 43.47 70.47 39.25 68.99 C 35.09 66.12 35.12 60.50 35.21 55.98 C 34.96 50.45 37.43 45.08 40.95 40.94 C 41.85 39.64 43.68 38.74 45.05 39.95 C 48.38 42.49 51.38 45.44 54.32 48.43 C 58.02 45.28 59.43 40.30 59.70 35.61 C 57.41 36.65 56.89 39.25 55.75 41.25 C 54.62 37.10 54.74 32.66 52.95 28.70 C 52.67 29.73 52.12 31.81 51.84 32.85 C 49.67 28.68 48.99 23.50 45.32 20.27 C 45.47 21.90 45.74 23.51 46.01 25.13 C 43.90 23.03 41.70 20.84 38.75 20.00 M 62.05 23.35 C 58.97 23.57 55.96 22.65 52.88 22.76 C 55.35 25.73 59.50 25.70 63.01 25.34 C 65.84 24.84 69.01 23.94 70.49 21.23 C 67.70 22.02 64.98 23.22 62.05 23.35 M 71.78 33.51 C 71.58 31.76 71.33 30.01 71.04 28.26 C 68.24 31.71 68.23 36.23 67.56 40.40 C 66.07 37.87 65.99 34.32 63.24 32.72 C 63.17 37.97 65.39 42.89 67.62 47.53 C 71.50 47.65 72.77 41.34 76.67 41.42 C 81.59 46.32 80.95 54.05 80.22 60.39 C 79.15 64.10 78.53 69.51 73.99 70.46 C 71.31 70.00 70.33 66.67 68.69 64.77 C 67.98 65.39 67.28 66.02 66.60 66.66 C 65.41 59.20 63.89 51.77 63.46 44.21 C 62.90 44.19 61.78 44.14 61.23 44.11 C 60.84 51.79 62.62 59.30 64.03 66.80 C 64.84 71.41 66.99 75.78 66.63 80.56 C 62.72 82.03 58.67 79.77 55.71 77.32 C 53.27 75.13 52.99 71.59 53.93 68.63 C 55.55 69.86 57.03 71.29 58.73 72.43 C 58.88 70.13 58.51 66.85 55.77 66.35 C 53.09 65.78 51.28 68.16 50.26 70.27 C 48.11 74.43 44.78 78.03 43.65 82.66 C 47.17 81.53 48.49 77.74 50.51 74.99 C 52.64 80.03 57.67 83.46 63.05 84.07 C 65.81 85.00 68.83 82.76 69.20 79.97 C 69.91 75.83 67.76 72.00 66.91 68.06 C 68.73 72.21 71.51 76.52 76.23 77.59 C 78.08 78.21 79.57 76.80 80.97 75.83 C 78.95 75.03 76.86 74.45 74.76 73.89 C 81.19 70.42 82.68 62.66 83.34 56.03 C 83.49 49.87 82.52 42.89 77.50 38.68 C 78.82 37.12 80.07 35.49 81.05 33.69 C 78.98 34.31 77.29 35.66 75.54 36.87 C 77.52 33.88 80.17 31.41 82.23 28.47 C 80.21 29.23 78.34 30.31 76.43 31.28 C 77.86 29.09 79.60 27.05 80.43 24.52 C 78.07 25.24 76.66 27.31 75.12 29.07 C 75.34 27.22 75.54 25.37 75.56 23.50 C 72.67 26.00 72.74 30.10 71.78 33.51 M 45.37 52.25 C 45.32 54.06 45.34 55.87 45.41 57.69 C 46.47 57.69 47.52 57.67 48.58 57.65 C 48.64 55.83 48.64 54.00 48.60 52.18 C 47.52 52.17 46.44 52.19 45.37 52.25 M 75.38 52.38 C 75.33 54.37 75.39 56.37 75.57 58.36 C 76.52 58.37 77.48 58.38 78.43 58.39 C 78.61 56.32 78.64 54.24 78.57 52.16 C 77.51 52.20 76.44 52.27 75.38 52.38 M 17.56 75.44 C 17.63 76.37 17.69 77.30 17.75 78.24 C 18.21 78.35 19.12 78.58 19.58 78.70 C 19.66 77.53 19.74 76.35 19.81 75.18 C 19.25 75.25 18.12 75.38 17.56 75.44 M 48.55 81.27 C 49.07 82.50 49.67 83.70 50.21 84.92 C 50.54 83.70 50.85 82.49 51.17 81.27 C 50.51 81.27 49.20 81.27 48.55 81.27 M 37.12 82.52 C 35.72 83.46 37.19 86.20 38.67 84.99 C 40.04 84.00 38.65 81.33 37.12 82.52 M 71.13 82.46 C 70.40 83.58 71.22 85.36 72.42 85.80 C 74.49 85.45 72.77 81.80 71.13 82.46 M 17.59 83.52 C 17.53 84.09 17.42 85.24 17.36 85.82 C 17.94 85.83 19.11 85.84 19.70 85.85 C 19.68 85.22 19.64 83.95 19.62 83.32 C 19.11 83.37 18.09 83.47 17.59 83.52 M 23.21 83.29 C 21.82 84.32 23.38 86.85 24.87 85.69 C 26.35 84.70 24.66 82.15 23.21 83.29 M 76.22 84.23 C 74.89 84.91 74.86 85.59 76.12 86.27 C 77.45 85.58 77.48 84.90 76.22 84.23 M 46.11 86.49 C 44.70 87.44 46.21 90.16 47.68 88.95 C 49.06 87.95 47.63 85.31 46.11 86.49 M 51.37 87.48 C 50.23 88.14 49.36 90.91 51.13 91.30 C 52.57 90.86 52.79 87.98 51.37 87.48 M 56.48 87.29 C 55.88 88.96 56.39 89.50 58.01 88.92 C 58.62 87.28 58.11 86.74 56.48 87.29 M 63.12 87.49 C 61.70 88.43 63.20 91.16 64.67 89.95 C 66.06 88.96 64.64 86.31 63.12 87.49 M 68.22 87.18 C 66.72 87.69 67.21 90.77 68.89 90.54 C 70.80 90.06 70.10 86.96 68.22 87.18 M 27.36 88.07 C 27.37 88.74 27.40 90.10 27.41 90.77 C 27.96 90.77 29.07 90.77 29.62 90.77 C 29.58 90.14 29.51 88.88 29.47 88.25 C 28.94 88.21 27.89 88.12 27.36 88.07 M 73.15 88.20 C 71.81 88.85 71.76 89.52 73.02 90.23 C 74.36 89.57 74.40 88.90 73.15 88.20 M 41.17 89.52 C 39.14 91.24 43.22 93.16 43.76 90.85 C 44.28 89.30 42.15 88.47 41.17 89.52 M 58.17 90.52 C 56.14 92.24 60.22 94.17 60.76 91.85 C 61.28 90.30 59.15 89.47 58.17 90.52 M 22.06 91.17 C 20.62 92.22 22.46 94.60 23.86 93.53 C 25.33 92.47 23.46 90.09 22.06 91.17 M 34.25 92.69 C 34.55 93.94 34.96 95.16 36.04 95.96 C 36.52 94.85 36.88 93.70 37.14 92.52 C 36.42 92.56 34.97 92.65 34.25 92.69 M 28.31 97.94 C 28.82 99.01 29.66 99.71 30.82 100.04 C 30.81 98.70 30.75 97.37 30.66 96.04 C 29.85 96.63 29.07 97.27 28.31 97.94 M 20.18 97.32 C 18.65 98.33 20.48 100.75 21.90 99.65 C 23.37 98.61 21.63 96.19 20.18 97.32 M 38.15 100.14 C 39.68 100.87 41.20 101.64 42.77 102.27 C 42.65 100.19 41.96 98.23 40.93 96.43 C 39.49 97.23 38.88 98.76 38.15 100.14 M 44.24 98.86 C 45.91 99.88 47.56 100.95 49.25 101.93 C 49.40 100.65 49.54 99.38 49.66 98.10 C 47.84 98.23 46.02 98.43 44.24 98.86 M 24.53 100.04 C 24.97 101.40 25.45 102.75 25.95 104.09 C 26.60 102.95 27.22 101.80 27.84 100.64 C 27.01 100.49 25.36 100.19 24.53 100.04 M 51.06 100.33 C 49.53 103.34 54.41 100.45 51.06 100.33 M 33.35 102.22 C 33.28 103.38 33.21 104.54 33.16 105.70 C 33.69 105.60 34.77 105.41 35.31 105.31 C 35.45 104.28 35.59 103.25 35.73 102.22 C 35.13 102.22 33.94 102.22 33.35 102.22 M 37.07 104.33 C 35.54 107.34 40.41 104.45 37.07 104.33 M 50.28 105.27 C 48.58 106.24 50.59 108.58 51.97 107.47 C 53.60 106.44 51.70 104.13 50.28 105.27 M 62.35 105.09 C 59.60 106.63 63.12 107.54 64.36 106.09 C 65.78 104.87 63.06 104.34 62.35 105.09 M 24.38 107.20 C 24.43 107.78 24.53 108.93 24.59 109.50 C 25.09 109.58 26.11 109.73 26.61 109.81 C 26.60 109.18 26.56 107.92 26.54 107.29 C 26.00 107.27 24.92 107.23 24.38 107.20 M 28.42 107.20 C 28.37 108.37 28.32 109.55 28.28 110.72 C 28.84 110.67 29.97 110.57 30.53 110.52 C 30.55 109.92 30.60 108.72 30.62 108.12 C 29.91 107.77 29.17 107.46 28.42 107.20 M 42.10 107.47 C 40.25 109.13 44.24 111.22 44.78 108.92 C 45.21 107.40 43.15 106.51 42.10 107.47 M 65.56 107.15 C 64.56 108.46 66.89 109.92 67.84 108.75 C 68.87 107.40 66.54 106.00 65.56 107.15 M 59.10 108.47 C 57.25 110.13 61.24 112.22 61.77 109.93 C 62.21 108.40 60.15 107.51 59.10 108.47 M 36.48 109.30 C 35.15 110.22 36.64 112.51 37.97 111.42 C 39.37 110.49 37.81 108.25 36.48 109.30 M 47.12 110.06 C 45.70 111.05 47.19 113.68 48.69 112.51 C 50.07 111.55 48.59 108.81 47.12 110.06 M 32.85 114.12 C 33.23 115.50 33.61 116.88 34.03 118.25 C 34.74 117.02 35.41 115.78 36.01 114.50 C 35.22 114.40 33.64 114.21 32.85 114.12 M 47.32 121.80 C 52.32 124.27 57.82 120.04 59.19 115.20 C 56.38 116.45 53.82 118.21 50.95 119.33 C 47.67 119.82 46.49 116.10 44.75 114.11 C 41.42 116.37 44.57 120.69 47.32 121.80 M 50.46 114.87 C 50.04 116.26 50.54 116.74 51.94 116.30 C 52.37 114.92 51.87 114.44 50.46 114.87 M 38.12 116.50 C 38.74 117.73 39.37 118.94 40.05 120.13 C 40.43 118.82 40.77 117.49 41.08 116.16 C 40.34 116.24 38.86 116.42 38.12 116.50 Z" />
<path fill="#fdfdfd" opacity="1.00" d=" M 77.10 95.38 C 78.42 94.19 79.43 96.38 78.20 97.19 C 76.99 98.44 75.80 96.09 77.10 95.38 Z" />
</g>
</svg>
