<?xml version="1.0" encoding="UTF-8" standalone="no"?>
<!DOCTYPE svg PUBLIC "-//W3C//DTD SVG 1.1//EN" "http://www.w3.org/Graphics/SVG/1.1/DTD/svg11.dtd">
<svg width="100%" height="100%" viewBox="0 0 194 222" version="1.1" xmlns="http://www.w3.org/2000/svg" xmlns:xlink="http://www.w3.org/1999/xlink" xml:space="preserve" xmlns:serif="http://www.serif.com/" style="fill-rule:evenodd;clip-rule:evenodd;">
    <g transform="matrix(1,0,0,1,-14.9791,-1.79839)">
        <path d="M68.54,5.74C74.81,3.57 81.48,4.86 87.95,4.2C93.83,4.36 99.87,3.47 105.59,5.18C115.09,7.11 124.97,9.22 132.91,15.12C140.02,21.05 147.8,26.17 154.75,32.32C161.21,38.98 164.97,47.83 167.23,56.7C168.25,59.69 167.78,62.91 167.9,66C166.25,64.49 164.75,62.79 162.92,61.49C157.91,61.2 152.8,61.45 147.94,62.82C147.24,63.47 146.54,64.13 145.83,64.79C145.82,65.99 145.81,67.19 145.8,68.39C146.15,68.39 146.84,68.4 147.19,68.4C147.19,67.84 147.19,66.73 147.18,66.18C147.74,65.67 148.85,64.65 149.4,64.14C153.64,63.06 158.13,62.3 162.48,63.22C164.2,65.88 166.91,67.51 169.85,68.53C173.18,72.48 173.84,77.98 174.07,82.96C173.69,82.83 172.93,82.57 172.55,82.44C173.35,83.86 174.05,85.33 174.75,86.81C166.16,87.12 157.54,86.49 148.98,87.15C146.99,87.69 144.47,87.45 143.06,89.18C142.84,91.54 142.94,93.93 142.83,96.31C136.63,91.79 128.11,88.59 120.93,92.86C120.04,90.36 118.8,87.98 116.84,86.15C114.76,85.53 112.76,84.69 110.79,83.78C104,81.79 96.87,82.76 89.91,82.53C84.58,82.33 79.24,82.76 74.01,83.82C73.71,85.16 74.03,86.89 72.63,87.71C68.73,88.09 64.79,88.11 60.88,87.91C55.55,87.12 50.4,85.33 44.98,85.16C40.47,83.51 35.62,83.91 30.91,84.02C28.6,84.21 26.81,85.9 24.9,87.02C24.96,90.33 24.58,93.64 24.66,96.95C25.36,99.04 28.03,99.58 29.43,101.19C30.41,100.34 31.47,99.42 31,97.96C30.04,96.94 28.91,96.09 27.85,95.18C28.02,93.23 28.13,91.27 28.2,89.31C29.13,88.63 30.05,87.94 30.98,87.25C34.1,87.25 37.23,87.2 40.35,87.34C43.01,88.79 46.13,88.33 49,88.92C52.44,89.3 55.68,90.59 59.05,91.28C63.62,91.47 68.2,91.38 72.77,91.07C72.84,97.97 72.63,104.88 72.89,111.78C82.82,116.59 94.06,117.41 104.95,117.03C109.71,117.47 114.3,116.2 118.93,115.37C120.88,110.48 120.31,105.07 120.91,99.95C121.09,98.21 122.06,96.76 123.17,95.49C124.36,95.15 125.53,94.74 126.67,94.26C132.43,93.45 137.19,97.12 141.82,99.89C140.4,103.77 141.16,107.94 140.97,111.96C140.92,113.9 140.83,116.69 143.16,117.35C147.93,117.72 152.85,116.84 157.42,118.66C159.93,119.12 162.58,119.25 165,118.31C168.6,117.13 172.39,116.98 176.12,117.37L177.41,116.04C177.7,116.78 178.29,118.24 178.58,118.98C183.29,120.77 188.63,122.16 191.78,126.41C194.47,130.27 196.03,134.8 197.42,139.26C197.9,140.75 197.3,142.25 196.89,143.68C197.82,145.61 198.44,147.66 198.72,149.79C197.24,149.5 195.3,147.67 194.46,149.89C196,150.47 197.55,151.01 199.08,151.62C198.62,152.34 198.13,153.04 197.6,153.71C198.04,154.19 198.92,155.15 199.36,155.64C197.74,154.92 196.1,154.24 194.44,153.62C195.14,155.67 197.23,156.48 198.83,157.65C198.69,159.77 198.41,161.88 197.98,163.96C196.77,163.22 195.34,159.41 193.79,161.12C194.63,162.58 195.76,163.84 196.86,165.1C196.66,166.94 196.47,168.8 195.9,170.58C194.83,168.46 194.16,165.92 191.99,164.62C192.13,167.4 193.96,169.66 194.94,172.18C193.11,175.02 191.31,177.89 189.06,180.41C189.18,179.42 189.42,177.45 189.54,176.46C189.01,176.74 187.94,177.31 187.41,177.59C186.98,177.26 186.14,176.61 185.72,176.29C186.13,178.28 187.41,180.43 186.27,182.44C185.27,186.13 181.62,187.88 178.94,190.2C179.02,189.38 179.18,187.76 179.26,186.94L177.75,186.95C177.71,188.61 177.68,190.27 177.62,191.93C175.82,190.11 175.21,187.44 173.25,185.76C172.91,188.34 174.71,190.51 175.71,192.76C174.14,193.5 172.62,194.31 171.07,195.07C170.77,194.29 170.18,192.75 169.88,191.98C168.18,193.44 170.36,195.81 168.75,197.36C168.16,195.75 167.33,194.25 166.02,193.12C166.1,194.99 167.42,197.06 165.98,198.7C165,196.99 163.04,194.65 161.13,196.92C161.91,197.22 163.49,197.82 164.27,198.12C163.27,199.59 161.46,199.85 159.93,200.44C159.501,200.539 155.024,203.695 154,201.94C151.65,203.16 153.17,197.52 151.09,199.13C149.12,199.65 150.98,201.37 151.34,202.43C149.35,202.78 147.38,203.23 145.42,203.74C145.65,202.96 146.1,201.39 146.33,200.61C144.1,200.55 144.11,202.96 143.22,204.37C143.04,202.84 143.2,201.35 143.68,199.9C143.22,199.71 142.29,199.31 141.83,199.12C141.8,200.59 141.79,202.07 141.8,203.55C138.91,202.57 135.84,202.67 132.84,202.85C131.86,203.29 130.87,203.71 129.87,204.09C129.83,204.57 129.76,205.52 129.73,206C129.36,206 128.62,206.01 128.24,206.01C128.47,205.08 128.93,203.21 129.16,202.28C126.91,203.12 127.13,205.65 125.84,207.24C125.59,205.56 124.83,204.43 123.58,203.84C123.59,204.63 123.61,206.21 123.62,207C123.09,206.95 122.02,206.86 121.48,206.81C120.97,205.09 119.48,204.48 117.87,204.13C117.86,204.98 117.85,206.7 117.85,207.55C115.59,207.54 113.32,207.53 111.06,207.51C112.09,205.76 112.25,204.33 109.77,204.12C109.78,205.01 109.81,206.8 109.82,207.69C109.2,207.6 107.95,207.42 107.33,207.32C107.96,206.36 108.6,205.39 109.25,204.45C108.58,203.79 107.9,203.13 107.23,202.47C106.4,203.87 105.89,205.49 104.83,206.75C103.46,205.84 102.11,204.88 100.74,203.97C100.39,204.72 99.69,206.2 99.35,206.95C97.55,205.86 95.74,203.42 93.79,205.92C93.48,205.1 92.85,203.45 92.54,202.62C91.87,203.32 91.21,204.03 90.56,204.75C88.83,204.26 85.57,204.24 88.75,202.13C86.91,200.76 85.86,202.17 85.25,203.96C81.68,203.23 84.02,200.07 84.14,197.76C82.69,199.02 81.91,200.76 81.28,202.52C79.04,202 78.54,199.65 77.07,198.21L76.91,200.73C74.78,199.62 72.63,198.54 70.5,197.44C70,196 69.55,194.49 68.37,193.45C68.14,194.19 67.69,195.68 67.47,196.42C66.87,195.71 66.35,194.95 65.91,194.15C66.54,193.68 67.81,192.75 68.44,192.28C67.65,191.71 66.84,191.15 66.02,190.63C65.54,191.82 65.09,193.02 64.66,194.22C62.72,193.32 60.87,192.24 59.28,190.8C58.62,189.02 58.44,187.25 60.3,186.06C59.36,186.76 58.85,184.88 57.96,185.82C57.73,186.41 57.29,187.61 57.07,188.2C55.76,187.02 54.46,185.85 53.12,184.71C53.5,184.26 54.27,183.34 54.66,182.89C52.38,183.26 50.43,182.44 48.81,180.9C49.77,179.14 50.78,177.41 51.72,175.64C50.66,175.16 49.61,174.7 48.55,174.24C48.229,174.784 47.394,180.024 46.5,179.9C45.193,179.719 43.761,173.827 43.63,172.52C41.87,173.35 44.78,171.67 46.5,171.18C45.53,170.13 44.12,170.35 42.84,170.38C42.78,168.62 44.35,165.6 42.16,164.7C41.85,167.07 41.6,169.46 40.75,171.72C40.37,172.07 35.84,169.44 36.16,164.04C36.41,157.36 36.15,150.67 36.27,143.99C36.66,137.12 33.98,130.43 30.25,124.78C29.15,123.51 28.33,122.04 27.83,120.44C23.68,116.93 24.24,110.87 21.57,106.46C21.75,103.24 19.72,100.7 18.47,97.92C17.14,90.34 16.68,82.59 17.97,74.96C18.9,71.04 17.34,66.76 19.31,63.08C19.96,61.49 20.5,59.85 21.07,58.23C21.35,54.78 21.83,51.33 22.57,47.94C23.65,45.37 25.49,43.21 26.65,40.68C27.18,37.76 27.51,34.81 28.16,31.91C29.92,29.84 32.64,28.58 33.82,25.98C35.43,23.27 36.46,19.46 39.94,18.66C43.29,17.64 46.2,15.6 49.54,14.56C56.49,12.98 61.5,7.14 68.54,5.74M72.89,24.08C72.87,24.9 72.81,26.54 72.78,27.37C75.56,23.66 80.28,24.09 84.38,24.38C86.04,24.88 87.76,25.2 89.42,25.72C92.84,26.6 96.24,27.57 99.52,28.89C109.88,30.33 120.34,29.19 130.73,30.05C129.79,28.26 127.65,28.52 125.98,28.34C117.52,28.16 108.98,28.84 100.6,27.41C91.82,24.41 82.1,20.87 72.89,24.08M85.24,40.89L85.18,42.25C89.48,42.29 93.78,42.17 98.08,42.27C99.38,42.2 100.37,43.18 101.4,43.8C107.77,46.45 114.19,49.16 120.98,50.51C128.26,52.07 135.32,48.54 142.63,49.48C142.52,49.11 142.32,48.36 142.21,47.99C136.38,47.35 130.75,49.08 125.02,49.48C116.32,48.2 107.92,44.99 100.13,40.97C95.17,40.75 90.2,40.98 85.24,40.89M69.38,63.58C66.56,66.82 62.63,70.06 62.67,74.71C65.6,72.81 65.99,68.87 68.99,67.08C71.31,63.92 75.17,62.28 78.82,61.19C85.1,60.79 91.41,61.04 97.7,61.13C98.12,61.67 98.96,62.75 99.38,63.29C102.05,64.38 104.8,65.32 107.32,66.74C107.24,65.87 107.16,64.99 107.08,64.12C105.04,63.55 103.04,62.85 101.03,62.17C100.39,61.4 99.76,60.62 99.12,59.85C92.75,59.33 86.34,59.6 79.95,59.58C76.04,59.54 72.63,61.68 69.38,63.58M115.59,74.45C118.44,75.82 117.31,79.79 119.79,81.34C119.92,79.21 119.71,77.07 119.05,75.04C117.28,72.79 113.86,71.75 113.57,68.55C110.63,70.3 113.6,73.38 115.59,74.45M140.02,72.83C137.96,75.25 136.85,78.21 136.14,81.26C139.54,81.02 138.79,76.32 141.25,74.54C142.62,73.99 143.99,73.33 144.58,71.84C143.04,72.11 141.54,72.49 140.02,72.83M135.87,111.61C135.09,115.51 136.48,119.2 137.97,122.72C141,125.77 143.91,128.95 146.87,132.06C146.37,135.26 144.26,137.91 142.53,140.55C142.36,142.02 142.19,143.49 142,144.95C140.12,143.99 138.18,143.09 136.02,143.01C135.83,143.4 135.45,144.17 135.26,144.55C137.95,144.56 140.81,148.7 143.1,146.17C144.55,145.03 144.22,143.13 144.43,141.52C146.06,139.4 147.5,137.11 148.46,134.61C148.72,133.31 149.85,131.46 148.42,130.48C145.39,127.69 142.7,124.57 139.88,121.59C138.46,118.58 137.57,115.37 137.65,112.01C137.2,111.91 136.31,111.71 135.87,111.61M160.19,132.27C155.12,135.51 152.54,141.28 147.99,145.08C143.98,148.54 139.74,151.9 134.79,153.9C132.09,154.99 129.82,157.15 126.9,157.64C111.03,154.34 97.02,145.68 84.07,136.28C80.55,133.59 76.86,130.86 72.48,129.8C65.9,129.01 59.59,132.45 55.09,137.01C53.55,143.17 51.76,149.66 53.55,155.99C54.84,163.11 60.4,168.2 63.39,174.56C71.22,181.84 79.32,189.12 89.04,193.85C99.93,198.91 112.28,199.12 124.01,197.79C132.71,195.79 141.62,194.95 150.18,192.36C157.7,191.06 164.14,186.66 170,182.01C175.26,176.94 181.3,172.19 184.16,165.22C187.36,158.25 187.75,150.19 186.67,142.69C185.68,135.59 180.18,129.12 172.97,127.95C168.57,128.9 164.27,130.37 160.19,132.27M113.01,132.69C111.34,133.21 109.17,132.79 107.98,134.33C106.78,138.49 108.89,143.52 113.02,145.13C114.83,145.33 116.66,145.13 118.48,145.02C117.24,142.31 113.69,143.55 111.54,142.01C110.59,139.87 109.46,137.72 109.65,135.3C112.32,135.36 114.9,134.68 117.17,133.26C116.21,131.25 114.43,132.6 113.01,132.69M121.89,143.01C124.3,144.01 126.85,142.87 129.29,142.62C127.97,139.49 123.6,140.83 121.89,143.01M190.32,168.97C190.15,170.27 190.65,171.36 191.82,172.22C192.84,172.26 193.32,171.75 193.24,170.68C192.61,169.28 191.63,168.71 190.32,168.97M171.96,193.32C174.04,193.32 174.02,189.58 172.26,188.97C170.76,189.73 171.52,192.07 171.96,193.32Z" style="fill:white;fill-rule:nonzero;stroke:white;stroke-width:0.09px;"/>
        <path d="M77.52,86.55C83.95,85.45 90.47,85.8 96.96,85.75C103.26,85.44 109.81,86.35 115.18,89.82C118.4,92.22 117.44,96.53 117.56,99.98C117.74,104.14 116.72,108.21 116.45,112.35C113.31,112.88 110.23,113.94 107,113.73C98.63,113.47 89.73,114.66 81.88,111.06C79.94,110.59 77.98,110.22 76.04,109.76C76.09,104.51 76.03,99.26 76.06,94.01C76.16,91.47 76.05,88.75 77.52,86.55M91.99,90.04C87.58,92.75 83.52,97.54 84.63,103.08C84.55,107.88 89.72,109.7 93.13,111.81C97.53,114.74 102.81,112.16 106.91,109.91C107.9,105.8 111.08,102.41 111.07,98C111.12,95.24 110.51,91.63 107.54,90.56C102.67,88.55 96.96,88.11 91.99,90.04Z" style="fill:white;fill-rule:nonzero;stroke:white;stroke-width:0.09px;"/>
        <path d="M93.27,90.9C98.34,89.26 103.96,89.95 108.66,92.37C111.97,98.27 107.9,104.23 105.58,109.6C102.81,110.57 100.03,111.96 97.04,111.97C93.6,111.28 90.57,109.28 87.8,107.21C85.83,105.95 86.07,103.45 85.61,101.46C85.61,96.68 89.36,93.04 93.27,90.9M100.57,104.4C103.83,106.9 105.96,101.62 107.15,99.35C106.4,99.47 104.92,99.7 104.18,99.82C104.13,99.4 104.03,98.56 103.98,98.14C104.82,98.26 106.49,98.49 107.33,98.6C104.19,93.12 96.32,100.5 100.57,104.4Z" style="fill:white;fill-rule:nonzero;stroke:white;stroke-width:0.09px;"/>
        <path d="M146.23,91.26C149.06,90.66 151.91,90.15 154.79,89.93C154.47,90.56 153.81,91.84 153.49,92.48C149.48,95.17 147.62,99.81 144.73,103.5C145.21,99.41 146.51,95.43 146.23,91.26Z" style="fill:white;fill-rule:nonzero;stroke:white;stroke-width:0.09px;"/>
        <path d="M154.62,90.3C161.38,90.04 168.16,90.07 174.93,90.22C174.44,95.14 173.14,100.03 173.72,105.03C174.49,106.73 175.56,108.28 176.17,110.06C176.73,110.82 177.3,111.57 177.84,112.35C171.94,114.08 165.69,114.03 159.84,115.9C161.78,114.16 164.6,113.21 165.5,110.54C167.36,107.32 167.7,103.49 167.1,99.87C166.9,98.67 165.64,98.12 164.82,97.39C162.46,95.99 161.07,93.5 159.96,91.08C158.14,91.12 156.27,91.21 154.62,90.3Z" style="fill:white;fill-rule:nonzero;stroke:white;stroke-width:0.09px;"/>
        <path d="M147.6,101.45C150.06,97.67 152.45,93.23 157.22,92.11C160.72,93.36 161.67,97.46 165.02,99C167.47,102.2 166.05,106.84 164.33,110.12C163.43,112.64 160.56,114.12 157.98,113.96C154.72,114.05 150.95,113.89 148.62,111.27C146.46,108.6 145.49,104.42 147.6,101.45M156.68,104.1C157.42,105.18 157.94,106.47 159.02,107.28C160.56,107.94 161.84,106.55 163.13,105.96C163.2,104.64 163.19,103.32 163.11,102C162.15,100.8 160.49,100.83 159.15,100.39C158.33,101.63 157.51,102.87 156.68,104.1Z" style="fill:white;fill-rule:nonzero;stroke:white;stroke-width:0.09px;"/>
        <path d="M176.52,93.83C179.03,97.73 177.44,102.78 177.97,107.17C177.53,106.8 176.65,106.07 176.21,105.7C175.02,101.83 176.2,97.76 176.52,93.83Z" style="fill:white;fill-rule:nonzero;stroke:white;stroke-width:0.09px;"/>
        <path d="M102.21,103.26C102.84,103.78 102.84,103.78 102.21,103.26Z" style="fill:white;fill-rule:nonzero;stroke:white;stroke-width:0.09px;"/>
        <path d="M144.24,105.1L145.41,104.96C145.3,108.75 147.2,112.21 150.35,114.3C148.35,114.3 146.36,114.32 144.37,114.34C144.28,111.26 144.28,108.18 144.24,105.1Z" style="fill:white;fill-rule:nonzero;stroke:white;stroke-width:0.09px;"/>
        <path d="M160.02,134.27C164.01,131.8 168.61,130.76 173.01,129.3C176.24,130.65 179.8,132.01 181.83,135.05C186.99,142.27 186.39,151.84 184.43,160.07C182.62,167.59 177.32,173.56 171.49,178.35C171.58,168.26 168.68,158.55 166.29,148.85C164.95,143.71 162.9,138.75 160.02,134.27Z" style="fill:white;fill-rule:nonzero;stroke:white;stroke-width:0.09px;"/>
        <path d="M57.6,136.54C61.42,133.54 66.03,130.98 71.03,131.09C74.16,131.5 76.95,133.18 79.59,134.8C77.54,140.54 75.01,146.08 72.87,151.78C69.64,158.36 66.42,164.98 63.95,171.9C59.2,165.07 53.66,157.81 54.22,149.01C54.76,144.78 55.13,140.15 57.6,136.54Z" style="fill:white;fill-rule:nonzero;stroke:white;stroke-width:0.09px;"/>
        <path d="M137.12,154.73C145.83,150.05 152.81,142.95 158.75,135.15C164.07,142.83 165.56,152.23 167.8,161.1C169.27,167.23 170.15,173.5 169.97,179.82C164.99,184.23 159.4,188.23 152.94,190.12C149.01,191.2 145.06,192.19 141.09,193.08C141.02,187.68 140.21,182.33 139.93,176.95C139.45,169.47 136.76,162.26 137.12,154.73Z" style="fill:white;fill-rule:nonzero;stroke:white;stroke-width:0.09px;"/>
        <path d="M74.81,150.96C76.68,145.84 78.86,140.83 80.86,135.76C87.34,140.8 94.15,145.43 101.47,149.18C100.85,154.59 98.8,159.69 97.9,165.06C97.29,168.34 96.78,171.65 95.77,174.84C94.05,180.93 93.64,187.38 91.13,193.24C81.41,188.45 72.67,181.71 65.34,173.76C66.97,165.77 71.61,158.5 74.81,150.96Z" style="fill:white;fill-rule:nonzero;stroke:white;stroke-width:0.09px;"/>
        <path d="M102.87,150.15C110.28,154.63 118.68,157.16 127.04,159.19C130.22,158.55 132.85,156.45 135.71,155.04C135.45,163.18 138.32,170.96 138.7,179.05C138.86,183.88 139.71,188.65 139.6,193.49C130.71,194.46 122.06,197.53 113.02,196.99C106.17,197.42 99.39,196.03 92.92,193.86C96.45,179.34 99.38,164.68 102.87,150.15Z" style="fill:white;fill-rule:nonzero;stroke:white;stroke-width:0.09px;"/>
        <path d="M48.22,177.24C48.82,177.8 48.82,177.8 48.22,177.24Z" style="fill:white;fill-rule:nonzero;stroke:white;stroke-width:0.09px;"/>
        <path d="M67.04,3.96C73.44,1.54 80.36,3.13 86.98,2.16C93.51,2.14 100.19,1.4 106.57,3.19C116.03,5.25 125.91,7.2 133.82,13.18C140.98,19.04 148.68,24.23 155.68,30.31C164.58,39.53 169.96,52.17 170.32,64.98C171.4,67.51 173.69,69.4 174.36,72.13C175.27,75.33 176.19,78.59 176.13,81.96C175.95,85.42 177.38,88.86 179.85,91.28C182.53,98.16 180.06,105.69 181.82,112.72C181.34,113.65 180.86,114.58 180.37,115.51C180.41,116.12 180.48,117.34 180.52,117.95C185.56,119.94 191.34,121.82 194.01,126.97C196.68,131.85 199.26,137.16 199.12,142.86C201.14,142.94 203.16,143.03 205.18,143.22C203.48,144.87 201.19,144.34 199.09,144.25C199.52,146.02 199.91,147.8 200.23,149.59C200.97,150.26 201.71,150.93 202.44,151.6C204.81,151.6 207.43,151.87 207.95,154.76C206.59,154.08 205.23,153.39 203.88,152.7C203.91,154.57 203.63,156.43 203.05,158.22C203.45,159.87 203.87,161.51 204.26,163.17C205.34,162.51 206.42,161.85 207.52,161.22C206.79,162.61 206.11,164.07 204.92,165.13C203.55,164.91 202.22,164.51 200.88,164.15C200.86,161.92 200.9,159.68 200.71,157.45C199.93,162.74 197.61,167.92 198.58,173.34C199.06,175.18 199.42,177.07 199.29,178.98C199.01,181.74 199.93,185.45 196.67,186.66C198.4,182.7 196.89,178.6 195.47,174.82C193.7,176.99 191.9,179.16 190.45,181.56C190.11,183.3 190.18,185.1 190.03,186.86C188.9,187.96 187.78,189.06 186.67,190.18C186.31,192.64 186.12,195.37 183.66,196.68C183.75,193.74 183.93,190.81 184.19,187.89C182.52,189.3 180.84,190.7 179.1,192.03C180.34,194.6 181.25,197.31 182.09,200.04C181.01,200.63 179.91,201.18 178.79,201.71C177.41,199 176.57,196.07 177.33,193.02C172.45,194.86 176.76,200.89 173.02,203.71C173.09,200.94 173.53,198.19 173.23,195.42C169.71,197.87 171.67,202.56 170.7,206.16C172.48,206.34 174.25,206.69 176.03,206.93C176.01,207.53 175.97,208.73 175.95,209.32C172.68,208.73 169.61,207.44 166.43,206.52C162.99,205.96 159.49,205.81 156.01,205.53C155.34,206.77 154.68,208.02 153.99,209.25C153.95,208.35 153.86,206.54 153.82,205.64C150.8,205.65 147.78,205.65 144.76,205.72C145.7,208.7 149.37,211.18 147.92,214.56C147.01,212.88 146.11,211.21 145.05,209.63C143.05,209.49 140.87,209.12 140.37,206.7C141.61,207.17 142.83,207.69 144.06,208.19C144.03,207.38 143.98,205.74 143.96,204.92L142.83,207.06C142.41,206.18 142,205.31 141.59,204.44L142.32,206.3C140.98,206.29 138.3,206.27 136.95,206.26C135.83,204.91 134.6,203.66 132.64,204.11C133.53,204.54 135.32,205.41 136.21,205.85C135.39,207.4 133.98,208.11 132.39,207.15C130.86,207.26 129.33,207.39 127.81,207.53C128.21,208.92 128.63,210.31 129.05,211.69C129.12,212.09 129.26,212.88 129.33,213.27C128.93,213.49 128.13,213.92 127.72,214.13C127.37,211.86 126.82,209.62 126.27,207.39C124.64,208.93 123.65,210.94 122.87,213C125.27,214.53 129.1,214.8 129.47,218.28C127.71,217.32 125.98,216.31 124.2,215.38C123.04,215.93 121.35,219.21 120.16,217.1C117.75,215.07 119.84,211.7 118.68,209.14C116.18,208.87 113.66,209.01 111.15,209.07C112.14,211.72 114.39,213.43 116.58,215.06C115.22,215.61 113.9,215.2 112.88,214.22C110.37,212.74 110.82,208.5 107.27,208.5C108.77,209.95 109.79,212.35 107.08,213.04C107.6,211.89 105.59,208.57 105.22,211.05C104.45,214.7 108.89,215.48 111.08,217.08C108.17,217.4 105.06,216.9 102.34,218.14C100.75,219.53 99.84,221.48 98.79,223.26C95.85,223.26 92.92,223.27 89.99,223.29C89.12,219.37 85.37,218 82.32,216.11C80.18,215.9 78.02,215.93 75.89,216.26C75.91,215.94 75.95,215.31 75.97,214.99L77.72,215.05C75.37,211.02 78.12,206.91 77.9,202.69C75.64,201.67 73.42,200.57 71.25,199.39C71.93,201.37 72.49,203.4 72.96,205.45C71.05,207.53 68.88,211.02 71.8,213.29C70.9,213.26 69.92,213.47 69.12,212.93C68.56,210.37 68.89,207.7 69.9,205.29C69.42,205.09 68.47,204.7 67.99,204.5L68.22,204.26C68.97,204.07 70.45,203.7 71.2,203.52C70.64,201.94 70.07,200.37 69.52,198.8C69.37,199.6 69.07,201.19 68.92,201.98C68.74,201.92 68.38,201.8 68.2,201.74C67.95,200.26 68,198.73 67.59,197.29C66.97,197.17 65.72,196.92 65.1,196.8C62.91,198.02 62.69,200.78 62.84,203.02C61.75,204.92 60.29,201.75 59.19,201.29C59.18,197.77 58.9,194.18 56.83,191.2C53.83,192.4 50.66,193.93 49.21,197.03C47.63,200.49 45.24,203.43 42.67,206.19C40.86,205.91 38.43,206.51 37.65,204.32C39.05,204.14 40.44,203.99 41.84,203.85C45.32,200.45 47.04,195.81 50.13,192.11C50.37,191.07 50.86,189 51.1,187.97C51.66,188.97 52.21,189.98 52.76,191C53.85,190.39 54.95,189.78 56.06,189.18C55.11,188.44 54.17,187.7 53.24,186.96L52.81,189.24C52.33,187.96 51.91,186.65 51.54,185.34C50.19,184.01 48.83,182.69 47.45,181.39C49.7,185.17 48.53,189.31 47.32,193.2C45.2,191.09 47.2,188.22 47.69,185.87C46.96,184.53 46.23,183.2 45.48,181.88C44.54,183.25 42.77,184.32 42.73,186.16C42.33,188.06 43.06,190.56 40.95,191.67C40.07,188.39 43.2,184.26 40.33,181.67C40.3,179.84 40.33,178.01 40.37,176.19C38.183,175.584 29.278,169.834 31.94,169.94C34.3,165.7 34.57,160.79 34.35,156.05C34.03,149.01 35.34,141.72 32.76,134.96C30.89,127.43 24.28,122.24 22.22,114.78C20.44,109.55 19.41,104.04 16.73,99.16C14.41,90.63 15.1,81.68 16.12,72.98C16.7,69.16 15.75,65.08 17.56,61.5C19.36,57.37 19.35,52.81 20.26,48.47C20.93,45.26 23.22,42.77 24.52,39.83C25.21,36.85 25.64,33.81 25.96,30.77C28.36,28.58 31.2,26.65 32.52,23.56C33.67,21.13 35.25,18.95 37.23,17.14C41.54,16.14 45.37,13.85 49.52,12.4C55.71,10.29 60.7,5.69 67.04,3.96M68.54,5.74C61.5,7.14 56.49,12.98 49.54,14.56C46.2,15.6 43.29,17.64 39.94,18.66C36.46,19.46 35.43,23.27 33.82,25.98C32.64,28.58 29.92,29.84 28.16,31.91C27.51,34.81 27.18,37.76 26.65,40.68C25.49,43.21 23.65,45.37 22.57,47.94C21.83,51.33 21.35,54.78 21.07,58.23C20.5,59.85 19.96,61.49 19.31,63.08C17.34,66.76 18.9,71.04 17.97,74.96C16.68,82.59 17.14,90.34 18.47,97.92C19.72,100.7 21.75,103.24 21.57,106.46C24.24,110.87 23.68,116.93 27.83,120.44C28.33,122.04 29.15,123.51 30.25,124.78C33.98,130.43 36.66,137.12 36.27,143.99C36.15,150.67 37.65,169.353 37.65,169.353C37.65,169.353 40.37,172.07 40.75,171.72C41.6,169.46 41.85,167.07 42.16,164.7C44.35,165.6 42.78,168.62 42.84,170.38C44.12,170.35 45.53,170.13 46.5,171.18C44.78,171.67 43.07,172.23 41.49,173.08C41.64,175.81 41.75,178.56 41.47,181.29C43.1,182.64 45.01,181.21 46.59,180.6C45.42,179.3 44.21,178.04 42.96,176.82C40.438,171.346 40.453,171.069 43.454,172.18C43.467,172.312 43.483,172.444 43.502,172.577C43.794,174.661 44.757,176.842 46.28,178.29C47.01,176.92 47.76,175.58 48.55,174.24C49.61,174.7 50.66,175.16 51.72,175.64C50.78,177.41 49.77,179.14 48.81,180.9C50.43,182.44 52.38,183.26 54.66,182.89C54.27,183.34 53.5,184.26 53.12,184.71C54.46,185.85 55.76,187.02 57.07,188.2C57.29,187.61 57.73,186.41 57.96,185.82C58.85,184.88 59.36,186.76 60.3,186.06C58.44,187.25 58.62,189.02 59.28,190.8C60.87,192.24 62.72,193.32 64.66,194.22C65.09,193.02 65.54,191.82 66.02,190.63C66.84,191.15 67.65,191.71 68.44,192.28C67.81,192.75 66.54,193.68 65.91,194.15C66.35,194.95 66.87,195.71 67.47,196.42C67.69,195.68 68.14,194.19 68.37,193.45C69.55,194.49 70,196 70.5,197.44C72.63,198.54 74.78,199.62 76.91,200.73L77.07,198.21C78.54,199.65 79.04,202 81.28,202.52C81.91,200.76 82.69,199.02 84.14,197.76C84.02,200.07 81.68,203.23 85.25,203.96C85.86,202.17 86.91,200.76 88.75,202.13C85.57,204.24 88.83,204.26 90.56,204.75C91.21,204.03 91.87,203.32 92.54,202.62C92.85,203.45 93.48,205.1 93.79,205.92C95.74,203.42 97.55,205.86 99.35,206.95C99.69,206.2 100.39,204.72 100.74,203.97C102.11,204.88 103.46,205.84 104.83,206.75C105.89,205.49 106.4,203.87 107.23,202.47C107.9,203.13 108.58,203.79 109.25,204.45C108.6,205.39 107.96,206.36 107.33,207.32C107.95,207.42 109.2,207.6 109.82,207.69C109.81,206.8 109.78,205.01 109.77,204.12C112.25,204.33 112.09,205.76 111.06,207.51C113.32,207.53 115.59,207.54 117.85,207.55C117.85,206.7 117.86,204.98 117.87,204.13C119.48,204.48 120.97,205.09 121.48,206.81C122.02,206.86 123.09,206.95 123.62,207C123.61,206.21 123.59,204.63 123.58,203.84C124.83,204.43 125.59,205.56 125.84,207.24C127.13,205.65 126.91,203.12 129.16,202.28C128.93,203.21 128.47,205.08 128.24,206.01C128.62,206.01 129.36,206 129.73,206C129.76,205.52 129.83,204.57 129.87,204.09C130.87,203.71 131.86,203.29 132.84,202.85C135.84,202.67 138.91,202.57 141.8,203.55C141.79,202.07 141.8,200.59 141.83,199.12C142.29,199.31 143.22,199.71 143.68,199.9C143.2,201.35 143.04,202.84 143.22,204.37C144.11,202.96 144.1,200.55 146.33,200.61C146.1,201.39 145.65,202.96 145.42,203.74C147.38,203.23 149.35,202.78 151.34,202.43C150.98,201.37 149.12,199.65 151.09,199.13C153.17,197.52 151.65,203.16 154,201.94C154.92,201.77 159.298,200.51 160.228,200.33C160.068,200.94 160.655,201.31 160.495,201.91L154.97,203.08C157.25,204.75 160.34,203.44 162.97,203.77C161.56,203.24 156.74,198.78 158.4,197.34C158.78,198.11 159.55,199.66 159.93,200.44C161.46,199.85 163.27,199.59 164.27,198.12C163.49,197.82 161.91,197.22 161.13,196.92C163.04,194.65 165,196.99 165.98,198.7C167.42,197.06 166.1,194.99 166.02,193.12C167.33,194.25 168.16,195.75 168.75,197.36C170.36,195.81 168.18,193.44 169.88,191.98C170.18,192.75 170.77,194.29 171.07,195.07C172.62,194.31 174.14,193.5 175.71,192.76C174.71,190.51 172.91,188.34 173.25,185.76C175.21,187.44 175.82,190.11 177.62,191.93C177.68,190.27 177.71,188.61 177.75,186.95L179.26,186.94C179.18,187.76 179.02,189.38 178.94,190.2C181.62,187.88 185.27,186.13 186.27,182.44C187.41,180.43 186.13,178.28 185.72,176.29C186.14,176.61 186.98,177.26 187.41,177.59C187.94,177.31 189.01,176.74 189.54,176.46C189.42,177.45 189.18,179.42 189.06,180.41C191.31,177.89 193.11,175.02 194.94,172.18C193.96,169.66 192.13,167.4 191.99,164.62C194.16,165.92 194.83,168.46 195.9,170.58C196.47,168.8 196.66,166.94 196.86,165.1C195.76,163.84 194.63,162.58 193.79,161.12C195.34,159.41 196.77,163.22 197.98,163.96C198.41,161.88 198.69,159.77 198.83,157.65C197.23,156.48 195.14,155.67 194.44,153.62C196.1,154.24 197.74,154.92 199.36,155.64C198.92,155.15 198.04,154.19 197.6,153.71C198.13,153.04 198.62,152.34 199.08,151.62C197.55,151.01 196,150.47 194.46,149.89C195.3,147.67 197.24,149.5 198.72,149.79C198.44,147.66 197.82,145.61 196.89,143.68C197.3,142.25 197.9,140.75 197.42,139.26C196.03,134.8 194.47,130.27 191.78,126.41C188.63,122.16 183.29,120.77 178.58,118.98C178.29,118.24 177.7,116.78 177.41,116.04L176.12,117.37C172.39,116.98 168.6,117.13 165,118.31C162.58,119.25 159.93,119.12 157.42,118.66C152.85,116.84 147.93,117.72 143.16,117.35C140.83,116.69 140.92,113.9 140.97,111.96C141.16,107.94 140.4,103.77 141.82,99.89C137.19,97.12 132.43,93.45 126.67,94.26C125.53,94.74 124.36,95.15 123.17,95.49C122.06,96.76 121.09,98.21 120.91,99.95C120.31,105.07 120.88,110.48 118.93,115.37C114.3,116.2 109.71,117.47 104.95,117.03C94.06,117.41 82.82,116.59 72.89,111.78C72.63,104.88 72.84,97.97 72.77,91.07C68.2,91.38 63.62,91.47 59.05,91.28C55.68,90.59 52.44,89.3 49,88.92C46.13,88.33 43.01,88.79 40.35,87.34C37.23,87.2 34.1,87.25 30.98,87.25C30.05,87.94 29.13,88.63 28.2,89.31C28.13,91.27 28.02,93.23 27.85,95.18C28.91,96.09 30.04,96.94 31,97.96C31.47,99.42 30.41,100.34 29.43,101.19C28.03,99.58 25.36,99.04 24.66,96.95C24.58,93.64 24.96,90.33 24.9,87.02C26.81,85.9 28.6,84.21 30.91,84.02C35.62,83.91 40.47,83.51 44.98,85.16C50.4,85.33 55.55,87.12 60.88,87.91C64.79,88.11 68.73,88.09 72.63,87.71C74.03,86.89 73.71,85.16 74.01,83.82C79.24,82.76 84.58,82.33 89.91,82.53C96.87,82.76 104,81.79 110.79,83.78C112.76,84.69 114.76,85.53 116.84,86.15C118.8,87.98 120.04,90.36 120.93,92.86C128.11,88.59 136.63,91.79 142.83,96.31C142.94,93.93 142.84,91.54 143.06,89.18C144.47,87.45 146.99,87.69 148.98,87.15C157.54,86.49 166.16,87.12 174.75,86.81C174.05,85.33 173.35,83.86 172.55,82.44C172.93,82.57 173.69,82.83 174.07,82.96C173.84,77.98 173.18,72.48 169.85,68.53C166.91,67.51 164.2,65.88 162.48,63.22C158.13,62.3 153.64,63.06 149.4,64.14C148.85,64.65 147.74,65.67 147.18,66.18C147.19,66.73 147.19,67.84 147.19,68.4C146.84,68.4 146.15,68.39 145.8,68.39C145.81,67.19 145.82,65.99 145.83,64.79C146.54,64.13 147.24,63.47 147.94,62.82C152.8,61.45 157.91,61.2 162.92,61.49C164.75,62.79 166.25,64.49 167.9,66C167.78,62.91 168.25,59.69 167.23,56.7C164.97,47.83 161.21,38.98 154.75,32.32C147.8,26.17 140.02,21.05 132.91,15.12C124.97,9.22 115.09,7.11 105.59,5.18C99.87,3.47 93.83,4.36 87.95,4.2C81.48,4.86 74.81,3.57 68.54,5.74M77.52,86.55C76.05,88.75 76.16,91.47 76.06,94.01C76.03,99.26 76.09,104.51 76.04,109.76C77.98,110.22 79.94,110.59 81.88,111.06C89.73,114.66 98.63,113.47 107,113.73C110.23,113.94 113.31,112.88 116.45,112.35C116.72,108.21 117.74,104.14 117.56,99.98C117.44,96.53 118.4,92.22 115.18,89.82C109.81,86.35 103.26,85.44 96.96,85.75C90.47,85.8 83.95,85.45 77.52,86.55M146.23,91.26C146.51,95.43 145.21,99.41 144.73,103.5C147.62,99.81 149.48,95.17 153.49,92.48C153.81,91.84 154.47,90.56 154.79,89.93C151.91,90.15 149.06,90.66 146.23,91.26M154.62,90.3C156.27,91.21 158.14,91.12 159.96,91.08C161.07,93.5 162.46,95.99 164.82,97.39C165.64,98.12 166.9,98.67 167.1,99.87C167.7,103.49 167.36,107.32 165.5,110.54C164.6,113.21 161.78,114.16 159.84,115.9C165.69,114.03 171.94,114.08 177.84,112.35C177.3,111.57 176.73,110.82 176.17,110.06C175.56,108.28 174.49,106.73 173.72,105.03C173.14,100.03 174.44,95.14 174.93,90.22C168.16,90.07 161.38,90.04 154.62,90.3M147.6,101.45C145.49,104.42 146.46,108.6 148.62,111.27C150.95,113.89 154.72,114.05 157.98,113.96C160.56,114.12 163.43,112.64 164.33,110.12C166.05,106.84 167.47,102.2 165.02,99C161.67,97.46 160.72,93.36 157.22,92.11C152.45,93.23 150.06,97.67 147.6,101.45M176.52,93.83C176.2,97.76 175.02,101.83 176.21,105.7C176.65,106.07 177.53,106.8 177.97,107.17C177.44,102.78 179.03,97.73 176.52,93.83M144.24,105.1C144.28,108.18 144.28,111.26 144.37,114.34C146.36,114.32 148.35,114.3 150.35,114.3C147.2,112.21 145.3,108.75 145.41,104.96L144.24,105.1M200.24,157.16C202.28,156.61 203.06,154.92 201.69,153.21C199.33,152.89 200.46,155.79 200.24,157.16M48.22,177.24C48.82,177.8 48.82,177.8 48.22,177.24M185.98,188.6C188.04,187.38 189.17,185.36 188.94,182.95C187.31,184.45 186.13,186.33 185.98,188.6M60.28,201.23C60.98,199.07 62.17,197.13 63.73,195.49C62.54,194.78 61.36,194.05 60.19,193.31C60.49,195.94 60.6,198.59 60.28,201.23M164.27,200.33C163.15,199.97 161.05,201.78 162.94,202.31C163.96,202.71 165.96,200.7 164.27,200.33M164.41,203.84C165.81,204.04 167.22,204.23 168.63,204.41C168.63,204.41 168.54,202.3 167.13,201.91C167.39,201.18 167.89,199.71 168.15,198.97C166.02,199.76 165.6,202.17 164.41,203.84M78.99,203.39C78.5,205.08 79.02,205.62 80.58,205C81.08,203.32 80.55,202.78 78.99,203.39M79.39,207.56C78.73,209.86 79.15,212.31 79.22,214.68C82.68,214.42 85.3,216.75 88.12,218.34C87.58,217.23 86.51,215.03 85.97,213.92C87.02,211.1 88.82,208.68 90.5,206.22C89.6,206.02 87.8,205.62 86.9,205.42C86.8,207.64 86.82,209.9 86.15,212.05C84.85,209.94 85.43,207.44 85.54,205.14C82.81,203.25 81.04,205.66 79.39,207.56M88.13,212.62C88.27,214.01 88.46,215.4 89.1,216.68C88.85,216.91 88.35,217.36 88.09,217.59C89.42,218.74 90.1,220.29 90.42,221.99C92.94,222.1 95.48,222.12 98.01,222.12C99.55,218.73 102.18,215.72 106.27,215.96C104.84,215.01 103.4,214 101.66,213.74C102.58,211.97 103.57,210.23 104.54,208.48C102.56,208.36 99.87,207.68 99.84,210.78C99.04,209.39 98.6,207.46 96.71,207.19C94.89,208.18 95.17,210.37 94.86,212.11C95.43,211.66 96.57,210.77 97.13,210.32C97.57,210.84 98,211.37 98.44,211.9C97.81,212.28 96.56,213.03 95.94,213.41C95.8,215.13 97.01,216.12 98.49,216.76C97.24,217.8 95.93,216.97 94.73,216.32C93.86,217.01 92.88,217.44 91.78,217.04C92.47,216.09 93.16,215.14 93.87,214.21C93.49,211.73 93.59,209.24 94.32,206.84C90.6,205.45 90.16,210.62 88.13,212.62M120.46,212.36C119.36,213.36 119.81,215.53 121.26,215.96C123.18,215.77 122.33,211.37 120.46,212.36Z" style="fill:rgb(1,1,1);fill-rule:nonzero;stroke:rgb(1,1,1);stroke-width:0.09px;"/>
        <path d="M72.89,24.08C82.1,20.87 91.82,24.41 100.6,27.41C108.98,28.84 117.52,28.16 125.98,28.34C127.65,28.52 129.79,28.26 130.73,30.05C120.34,29.19 109.88,30.33 99.52,28.89C96.24,27.57 92.84,26.6 89.42,25.72C87.76,25.2 86.04,24.88 84.38,24.38C80.28,24.09 75.56,23.66 72.78,27.37C72.81,26.54 72.87,24.9 72.89,24.08Z" style="fill:rgb(1,1,1);fill-rule:nonzero;stroke:rgb(1,1,1);stroke-width:0.09px;"/>
        <path d="M85.24,40.89C90.2,40.98 95.17,40.75 100.13,40.97C107.92,44.99 116.32,48.2 125.02,49.48C130.75,49.08 136.38,47.35 142.21,47.99C142.32,48.36 142.52,49.11 142.63,49.48C135.32,48.54 128.26,52.07 120.98,50.51C114.19,49.16 107.77,46.45 101.4,43.8C100.37,43.18 99.38,42.2 98.08,42.27C93.78,42.17 89.48,42.29 85.18,42.25L85.24,40.89Z" style="fill:rgb(1,1,1);fill-rule:nonzero;stroke:rgb(1,1,1);stroke-width:0.09px;"/>
        <path d="M69.38,63.58C72.63,61.68 76.04,59.54 79.95,59.58C86.34,59.6 92.75,59.33 99.12,59.85C99.76,60.62 100.39,61.4 101.03,62.17C103.04,62.85 105.04,63.55 107.08,64.12C107.16,64.99 107.24,65.87 107.32,66.74C104.8,65.32 102.05,64.38 99.38,63.29C98.96,62.75 98.12,61.67 97.7,61.13C91.41,61.04 85.1,60.79 78.82,61.19C75.17,62.28 71.31,63.92 68.99,67.08C65.99,68.87 65.6,72.81 62.67,74.71C62.63,70.06 66.56,66.82 69.38,63.58Z" style="fill:rgb(1,1,1);fill-rule:nonzero;stroke:rgb(1,1,1);stroke-width:0.09px;"/>
        <path d="M115.59,74.45C113.6,73.38 110.63,70.3 113.57,68.55C113.86,71.75 117.28,72.79 119.05,75.04C119.71,77.07 119.92,79.21 119.79,81.34C117.31,79.79 118.44,75.82 115.59,74.45Z" style="fill:rgb(1,1,1);fill-rule:nonzero;stroke:rgb(1,1,1);stroke-width:0.09px;"/>
        <path d="M140.02,72.83C141.54,72.49 143.04,72.11 144.58,71.84C143.99,73.33 142.62,73.99 141.25,74.54C138.79,76.32 139.54,81.02 136.14,81.26C136.85,78.21 137.96,75.25 140.02,72.83Z" style="fill:rgb(1,1,1);fill-rule:nonzero;stroke:rgb(1,1,1);stroke-width:0.09px;"/>
        <path d="M91.99,90.04C96.96,88.11 102.67,88.55 107.54,90.56C110.51,91.63 111.12,95.24 111.07,98C111.08,102.41 107.9,105.8 106.91,109.91C102.81,112.16 97.53,114.74 93.13,111.81C89.72,109.7 84.55,107.88 84.63,103.08C83.52,97.54 87.58,92.75 91.99,90.04M93.27,90.9C89.36,93.04 85.61,96.68 85.61,101.46C86.07,103.45 85.83,105.95 87.8,107.21C90.57,109.28 93.6,111.28 97.04,111.97C100.03,111.96 102.81,110.57 105.58,109.6C107.9,104.23 111.97,98.27 108.66,92.37C103.96,89.95 98.34,89.26 93.27,90.9Z" style="fill:rgb(1,1,1);fill-rule:nonzero;stroke:rgb(1,1,1);stroke-width:0.09px;"/>
        <path d="M100.57,104.4C96.32,100.5 104.19,93.12 107.33,98.6C106.49,98.49 104.82,98.26 103.98,98.14C104.03,98.56 104.13,99.4 104.18,99.82C104.92,99.7 106.4,99.47 107.15,99.35C105.96,101.62 103.83,106.9 100.57,104.4M102.21,103.26C102.84,103.78 102.84,103.78 102.21,103.26Z" style="fill:rgb(1,1,1);fill-rule:nonzero;stroke:rgb(1,1,1);stroke-width:0.09px;"/>
        <path d="M156.68,104.1C157.51,102.87 158.33,101.63 159.15,100.39C160.49,100.83 162.15,100.8 163.11,102C163.19,103.32 163.2,104.64 163.13,105.96C161.84,106.55 160.56,107.94 159.02,107.28C157.94,106.47 157.42,105.18 156.68,104.1Z" style="fill:rgb(1,1,1);fill-rule:nonzero;stroke:rgb(1,1,1);stroke-width:0.09px;"/>
        <path d="M135.87,111.61C136.31,111.71 137.2,111.91 137.65,112.01C137.57,115.37 138.46,118.58 139.88,121.59C142.7,124.57 145.39,127.69 148.42,130.48C149.85,131.46 148.72,133.31 148.46,134.61C147.5,137.11 146.06,139.4 144.43,141.52C144.22,143.13 144.55,145.03 143.1,146.17C140.81,148.7 137.95,144.56 135.26,144.55C135.45,144.17 135.83,143.4 136.02,143.01C138.18,143.09 140.12,143.99 142,144.95C142.19,143.49 142.36,142.02 142.53,140.55C144.26,137.91 146.37,135.26 146.87,132.06C143.91,128.95 141,125.77 137.97,122.72C136.48,119.2 135.09,115.51 135.87,111.61Z" style="fill:rgb(1,1,1);fill-rule:nonzero;stroke:rgb(1,1,1);stroke-width:0.09px;"/>
        <path d="M160.19,132.27C164.27,130.37 168.57,128.9 172.97,127.95C180.18,129.12 185.68,135.59 186.67,142.69C187.75,150.19 187.36,158.25 184.16,165.22C181.3,172.19 175.26,176.94 170,182.01C164.14,186.66 157.7,191.06 150.18,192.36C141.62,194.95 132.71,195.79 124.01,197.79C112.28,199.12 99.93,198.91 89.04,193.85C79.32,189.12 71.22,181.84 63.39,174.56C60.4,168.2 54.84,163.11 53.55,155.99C51.76,149.66 53.55,143.17 55.09,137.01C59.59,132.45 65.9,129.01 72.48,129.8C76.86,130.86 80.55,133.59 84.07,136.28C97.02,145.68 111.03,154.34 126.9,157.64C129.82,157.15 132.09,154.99 134.79,153.9C139.74,151.9 143.98,148.54 147.99,145.08C152.54,141.28 155.12,135.51 160.19,132.27M160.02,134.27C162.9,138.75 164.95,143.71 166.29,148.85C168.68,158.55 171.58,168.26 171.49,178.35C177.32,173.56 182.62,167.59 184.43,160.07C186.39,151.84 186.99,142.27 181.83,135.05C179.8,132.01 176.24,130.65 173.01,129.3C168.61,130.76 164.01,131.8 160.02,134.27M57.6,136.54C55.13,140.15 54.76,144.78 54.22,149.01C53.66,157.81 59.2,165.07 63.95,171.9C66.42,164.98 69.64,158.36 72.87,151.78C75.01,146.08 77.54,140.54 79.59,134.8C76.95,133.18 74.16,131.5 71.03,131.09C66.03,130.98 61.42,133.54 57.6,136.54M137.12,154.73C136.76,162.26 139.45,169.47 139.93,176.95C140.21,182.33 141.02,187.68 141.09,193.08C145.06,192.19 149.01,191.2 152.94,190.12C159.4,188.23 164.99,184.23 169.97,179.82C170.15,173.5 169.27,167.23 167.8,161.1C165.56,152.23 164.07,142.83 158.75,135.15C152.81,142.95 145.83,150.05 137.12,154.73M74.81,150.96C71.61,158.5 66.97,165.77 65.34,173.76C72.67,181.71 81.41,188.45 91.13,193.24C93.64,187.38 94.05,180.93 95.77,174.84C96.78,171.65 97.29,168.34 97.9,165.06C98.8,159.69 100.85,154.59 101.47,149.18C94.15,145.43 87.34,140.8 80.86,135.76C78.86,140.83 76.68,145.84 74.81,150.96M102.87,150.15C99.38,164.68 96.45,179.34 92.92,193.86C99.39,196.03 106.17,197.42 113.02,196.99C122.06,197.53 130.71,194.46 139.6,193.49C139.71,188.65 138.86,183.88 138.7,179.05C138.32,170.96 135.45,163.18 135.71,155.04C132.85,156.45 130.22,158.55 127.04,159.19C118.68,157.16 110.28,154.63 102.87,150.15Z" style="fill:rgb(1,1,1);fill-rule:nonzero;stroke:rgb(1,1,1);stroke-width:0.09px;"/>
        <path d="M113.01,132.69C114.43,132.6 116.21,131.25 117.17,133.26C114.9,134.68 112.32,135.36 109.65,135.3C109.46,137.72 110.59,139.87 111.54,142.01C113.69,143.55 117.24,142.31 118.48,145.02C116.66,145.13 114.83,145.33 113.02,145.13C108.89,143.52 106.78,138.49 107.98,134.33C109.17,132.79 111.34,133.21 113.01,132.69Z" style="fill:rgb(1,1,1);fill-rule:nonzero;stroke:rgb(1,1,1);stroke-width:0.09px;"/>
        <path d="M121.89,143.01C123.6,140.83 127.97,139.49 129.29,142.62C126.85,142.87 124.3,144.01 121.89,143.01Z" style="fill:rgb(1,1,1);fill-rule:nonzero;stroke:rgb(1,1,1);stroke-width:0.09px;"/>
        <path d="M190.32,168.97C191.63,168.71 192.61,169.28 193.24,170.68C193.32,171.75 192.84,172.26 191.82,172.22C190.65,171.36 190.15,170.27 190.32,168.97Z" style="fill:rgb(1,1,1);fill-rule:nonzero;stroke:rgb(1,1,1);stroke-width:0.09px;"/>
        <path d="M171.96,193.32C171.52,192.07 170.76,189.73 172.26,188.97C174.02,189.58 174.04,193.32 171.96,193.32Z" style="fill:rgb(1,1,1);fill-rule:nonzero;stroke:rgb(1,1,1);stroke-width:0.09px;"/>
        <path d="M132.7,209.28C133.67,208.63 134.66,208.02 135.69,207.46C137.21,208.92 138.88,210.24 140.26,211.84C141.72,213.4 141.02,215.64 140.92,217.51C139.08,216.95 139.63,215.34 139.87,213.98C138.44,212.02 136.7,210.32 134.94,208.66C134.43,209.9 133.91,211.15 133.39,212.4C133.22,211.62 132.87,210.06 132.7,209.28Z" style="fill:rgb(1,1,1);fill-rule:nonzero;stroke:rgb(1,1,1);stroke-width:0.09px;"/>
    </g>
</svg>
