<?xml version="1.0" encoding="UTF-8" ?>
<!DOCTYPE svg PUBLIC "-//W3C//DTD SVG 1.1//EN" "http://www.w3.org/Graphics/SVG/1.1/DTD/svg11.dtd">
<svg width="423pt" height="342pt" viewBox="0 0 423 342" version="1.1" xmlns="http://www.w3.org/2000/svg">
<g id="#ffffffff">
<path fill="#ffffff" opacity="1.00" d=" M 265.00 15.07 C 270.33 14.35 275.81 15.15 281.04 13.63 C 286.09 13.56 292.45 12.57 296.07 16.97 C 298.03 19.32 299.57 22.01 301.82 24.12 C 306.08 28.38 308.78 33.84 311.26 39.26 C 311.62 43.19 310.28 47.06 310.50 51.01 C 310.62 58.87 306.14 65.54 303.37 72.58 C 296.46 70.79 289.30 71.61 282.25 71.26 C 276.16 70.55 269.85 68.64 263.85 70.91 C 266.93 72.90 270.69 72.27 274.11 73.14 C 279.47 74.15 284.97 74.30 290.29 75.57 C 285.42 76.41 280.84 74.01 276.02 74.56 C 276.60 76.58 278.96 76.45 280.58 76.98 C 286.55 78.50 292.73 78.93 298.67 80.57 C 298.23 82.58 297.70 84.58 297.25 86.58 C 292.53 87.16 288.31 84.75 283.80 83.93 C 277.22 82.50 270.53 81.71 263.89 80.65 C 253.58 79.46 243.43 76.95 233.04 76.61 C 227.31 76.75 221.58 76.49 215.94 75.52 C 207.08 74.88 200.81 82.26 193.22 85.34 C 181.50 87.47 169.97 90.80 158.03 91.50 C 145.47 91.68 132.85 91.83 120.33 90.90 C 115.98 90.23 111.58 90.91 107.21 90.69 C 109.52 87.65 113.52 87.30 116.79 85.87 C 119.47 84.63 122.43 84.23 125.15 83.12 C 129.63 76.70 138.28 77.97 145.02 76.46 C 159.01 76.68 173.28 74.94 186.99 78.51 C 190.00 79.24 193.02 79.96 196.10 80.30 C 200.21 80.63 203.67 77.99 207.29 76.50 C 212.19 74.65 216.27 71.24 221.01 69.04 C 225.51 66.61 230.93 66.05 234.88 62.60 C 232.78 62.62 230.59 62.37 228.60 63.23 C 221.33 65.83 214.09 68.55 207.11 71.87 C 203.26 73.47 199.38 75.76 195.09 75.67 C 189.86 75.05 184.64 74.33 179.42 73.68 C 175.08 73.23 170.69 73.63 166.39 72.77 C 156.41 71.96 146.38 72.25 136.39 72.71 C 134.81 69.99 132.66 67.70 130.73 65.24 C 130.13 64.52 130.24 62.97 131.28 62.68 C 136.48 60.13 141.12 56.04 147.07 55.31 C 154.92 53.52 162.94 55.28 170.87 54.72 C 172.61 54.84 174.04 53.82 175.41 52.90 C 172.55 51.58 169.24 50.99 167.17 48.40 C 165.11 48.99 163.02 49.47 160.90 49.79 C 164.88 46.74 169.57 44.70 173.15 41.13 C 178.80 36.87 183.24 31.26 188.81 26.93 C 192.93 23.43 197.94 21.24 202.84 19.07 C 209.58 17.17 216.66 17.91 223.57 17.26 C 229.53 16.44 235.56 16.66 241.54 15.99 C 249.32 14.99 257.20 15.91 265.00 15.07 Z" />
<path fill="#ffffff" opacity="1.00" d=" M 201.20 85.78 C 206.69 84.06 211.87 81.52 217.37 79.84 C 223.93 79.17 230.49 80.53 237.07 80.38 C 246.67 81.32 256.11 83.53 265.74 84.37 C 269.22 84.50 272.45 85.94 275.75 86.90 C 281.63 88.87 287.83 89.59 293.71 91.56 C 293.40 95.38 292.49 99.14 292.53 102.99 C 292.66 107.40 291.19 111.63 290.72 115.98 C 291.13 128.80 287.79 141.29 286.49 153.98 C 286.46 168.96 285.72 184.03 287.65 198.91 C 288.75 207.35 288.02 216.62 292.84 224.07 C 296.82 229.15 301.47 235.35 308.74 234.87 C 309.92 231.17 305.84 230.92 303.72 229.22 C 302.13 227.71 301.08 225.77 300.05 223.87 C 308.43 223.16 316.86 223.14 325.26 223.45 C 323.56 225.96 321.71 228.38 319.53 230.49 C 311.58 238.34 304.88 247.33 298.43 256.41 C 293.61 262.25 288.88 268.18 283.62 273.63 C 280.58 276.86 278.05 280.74 274.24 283.13 C 269.41 284.87 264.29 285.78 259.15 285.62 C 253.10 286.12 247.06 286.68 241.03 287.34 C 233.71 287.79 226.33 287.09 219.06 288.21 C 214.36 288.58 209.61 288.33 204.95 289.17 C 199.00 290.06 192.97 289.44 186.99 289.73 C 177.53 290.75 167.88 290.20 158.55 288.49 C 155.98 278.52 153.43 268.03 154.63 257.76 C 160.07 254.69 165.20 251.06 169.87 246.90 C 174.31 242.05 176.54 235.71 178.79 229.64 C 180.36 223.52 180.56 217.12 182.30 211.03 C 182.99 207.87 186.17 206.31 188.41 204.33 C 194.14 199.16 201.88 197.44 208.49 193.74 C 214.10 191.18 219.55 187.13 226.01 187.53 C 234.31 187.39 242.81 184.63 248.75 178.65 C 257.01 169.12 259.49 155.99 259.39 143.73 C 265.39 141.23 268.65 135.39 272.85 130.81 C 278.43 123.96 278.34 114.35 276.42 106.16 C 274.99 101.16 275.71 95.58 272.96 90.97 C 270.16 87.63 265.62 84.31 261.09 86.32 C 254.88 88.63 248.57 92.02 244.71 97.59 C 244.51 98.72 244.40 99.86 244.37 101.01 C 247.59 99.40 248.74 95.55 252.00 93.98 C 256.55 91.45 261.34 87.15 266.92 88.76 C 271.32 90.52 271.66 95.87 271.93 99.92 C 270.52 99.32 269.12 98.69 267.70 98.12 C 269.67 103.80 273.46 109.35 272.42 115.63 C 270.66 121.74 266.63 126.80 263.64 132.32 C 264.54 132.40 266.32 132.55 267.22 132.63 C 265.39 135.57 263.01 138.12 259.98 139.85 C 258.69 139.17 257.40 138.48 256.11 137.80 C 256.23 142.63 256.99 147.56 255.78 152.31 C 254.38 158.99 253.11 165.87 249.98 172.00 C 246.15 179.40 237.40 182.05 229.75 183.33 C 224.00 183.66 218.45 185.46 212.71 185.70 C 214.81 181.03 218.08 176.97 219.86 172.14 C 221.47 167.55 224.49 163.60 225.80 158.90 C 222.34 162.27 220.64 166.93 218.05 170.92 C 215.16 176.83 210.12 181.34 207.19 187.20 C 204.12 188.04 201.00 188.76 197.79 188.59 C 199.48 185.58 202.32 183.20 203.05 179.71 C 199.19 182.62 195.28 185.45 191.31 188.20 C 184.85 194.14 175.56 193.75 167.43 194.97 C 162.43 196.02 156.80 194.55 153.53 190.47 C 151.39 180.43 158.33 171.49 157.54 161.47 C 164.16 159.08 171.36 159.33 178.05 157.12 C 183.20 155.81 187.47 152.60 191.92 149.88 C 193.98 148.46 196.05 150.51 197.81 151.45 C 197.66 150.06 197.52 148.68 197.37 147.30 C 199.21 145.81 200.92 144.18 202.55 142.48 C 203.06 142.47 204.06 142.44 204.57 142.43 C 206.68 145.92 207.35 150.27 206.11 154.18 C 204.30 157.98 201.74 161.39 200.22 165.34 C 205.74 163.93 206.98 157.92 207.77 153.10 C 209.21 148.31 208.07 143.33 207.28 138.54 C 200.30 138.09 192.86 140.15 186.28 136.94 C 182.49 135.67 179.73 132.69 176.60 130.37 C 179.33 138.75 188.94 140.97 196.55 142.64 C 196.57 143.23 196.61 144.40 196.63 144.99 C 194.14 144.99 191.95 143.92 189.87 142.67 C 184.86 140.66 179.72 145.14 174.74 142.78 C 171.29 141.13 167.54 139.67 164.88 136.81 C 168.74 135.06 173.88 131.51 172.05 126.60 C 171.85 123.67 169.76 121.56 167.39 120.10 C 168.11 122.74 170.15 125.13 169.66 127.99 C 169.79 130.38 167.83 131.99 166.50 133.71 C 163.91 129.06 158.58 127.46 153.61 128.89 C 155.02 130.54 157.21 130.41 159.14 130.89 C 160.48 131.97 161.07 133.66 161.92 135.10 C 160.02 135.54 158.14 136.03 156.27 136.55 C 153.55 134.06 150.18 132.59 146.82 131.20 C 142.91 129.64 143.10 124.47 143.68 120.99 C 146.85 117.73 150.55 115.01 153.47 111.48 C 158.91 106.66 162.85 100.43 165.68 93.78 C 177.54 92.93 189.48 86.44 201.37 90.55 C 203.24 91.16 204.96 89.82 206.67 89.28 C 204.86 88.08 203.05 86.89 201.20 85.78 M 253.62 99.57 C 251.45 103.02 248.74 106.61 249.29 110.93 C 250.70 109.30 252.08 107.64 253.43 105.95 C 256.38 108.14 259.74 111.05 259.61 115.05 C 259.84 118.29 257.65 120.97 257.19 124.09 C 261.40 121.53 264.46 116.22 262.79 111.29 C 262.21 108.29 259.23 106.73 257.72 104.27 C 257.44 102.72 257.30 101.12 257.58 99.56 C 260.40 96.18 264.65 93.95 269.14 94.37 C 268.13 92.84 267.11 90.83 264.93 91.48 C 260.22 92.34 256.53 95.96 253.62 99.57 M 203.13 98.84 C 200.97 97.89 198.63 96.93 196.27 97.78 C 190.76 99.37 184.99 100.02 179.28 99.34 C 177.05 98.49 174.72 98.24 172.39 98.85 C 174.10 100.82 176.84 100.86 179.15 101.62 C 178.67 102.14 177.71 103.17 177.23 103.68 C 184.00 103.99 190.50 102.06 197.02 100.57 C 201.28 99.36 204.93 102.59 208.85 103.68 C 207.14 102.03 205.15 100.71 203.10 99.52 C 203.95 98.22 204.86 96.95 205.62 95.59 C 204.55 96.47 203.78 97.62 203.13 98.84 M 173.84 106.50 C 174.86 108.44 176.19 111.12 178.88 110.41 C 186.72 109.86 195.00 110.19 202.23 106.61 C 195.28 105.11 188.41 108.55 181.46 107.04 C 178.97 106.39 176.39 106.13 173.84 106.50 M 230.60 119.59 C 225.20 124.60 217.78 129.81 218.28 138.09 C 222.08 135.30 224.68 131.29 228.02 128.02 C 230.41 125.67 232.19 122.82 233.93 119.98 C 235.32 117.52 237.05 114.98 236.52 112.00 C 233.69 113.82 233.24 117.57 230.60 119.59 M 212.36 156.13 C 211.56 158.75 209.78 160.92 208.82 163.47 C 212.61 163.33 214.92 159.33 215.31 155.91 C 215.55 151.83 215.71 147.71 215.10 143.66 C 213.29 147.61 213.82 152.08 212.36 156.13 M 168.90 165.02 C 176.34 164.86 183.59 161.42 188.20 155.54 C 182.25 159.66 175.10 161.39 168.90 165.02 M 265.06 181.58 C 260.66 193.62 256.72 205.85 251.43 217.55 C 249.61 221.60 248.62 225.95 247.02 230.09 C 245.82 233.56 244.11 236.95 244.15 240.71 C 245.20 240.61 246.25 240.54 247.31 240.51 C 248.94 233.39 251.90 226.66 255.26 220.21 C 258.24 212.81 261.17 205.33 262.87 197.51 C 264.12 191.89 266.50 186.59 267.59 180.93 C 268.16 177.90 269.70 175.07 269.47 171.92 C 266.90 174.54 266.29 178.27 265.06 181.58 M 181.54 219.23 C 181.77 234.79 179.67 250.42 174.72 265.20 C 174.10 267.22 174.18 269.37 174.60 271.43 C 175.83 270.28 177.03 269.01 177.45 267.33 C 178.87 262.41 180.66 257.61 182.04 252.68 C 184.65 241.73 183.62 230.41 183.45 219.28 L 181.54 219.23 Z" />
<path fill="#ffffff" opacity="1.00" d=" M 175.28 151.65 C 177.11 149.16 180.43 149.20 183.16 148.51 C 184.32 149.43 184.74 150.62 184.41 152.07 C 182.06 153.41 179.43 154.13 176.87 154.97 C 176.47 154.14 175.68 152.48 175.28 151.65 Z" />
<path fill="#ffffff" opacity="1.00" d=" M 169.26 151.70 C 170.75 151.49 172.25 151.33 173.76 151.19 C 174.06 152.84 174.30 154.50 174.49 156.17 C 173.52 156.27 171.56 156.46 170.59 156.56 C 169.96 154.99 169.51 153.36 169.26 151.70 Z" />
<path fill="#ffffff" opacity="1.00" d=" M 158.11 153.28 C 158.71 153.31 159.92 153.38 160.52 153.41 C 161.82 155.40 161.13 157.37 159.95 159.23 C 159.06 157.34 158.44 155.34 158.11 153.28 Z" />
<path fill="#ffffff" opacity="1.00" d=" M 162.29 152.59 C 164.27 152.54 166.25 152.48 168.23 152.44 C 168.26 154.08 168.31 155.73 168.36 157.38 C 166.46 157.49 164.56 157.57 162.65 157.61 C 162.52 155.93 162.40 154.26 162.29 152.59 Z" />
<path fill="#ffffff" opacity="1.00" d=" M 178.73 197.59 C 180.86 196.33 183.36 196.26 185.76 196.02 C 185.76 199.06 184.82 201.92 182.88 204.28 C 181.41 202.10 180.06 199.85 178.73 197.59 Z" />
<path fill="#ffffff" opacity="1.00" d=" M 157.73 228.80 C 163.42 230.31 168.97 227.21 174.65 227.06 C 174.50 230.42 173.50 233.74 171.51 236.48 C 168.37 240.86 164.98 245.34 160.13 247.94 C 157.59 249.29 155.02 250.56 152.47 251.90 C 150.12 244.83 148.49 237.45 148.19 230.00 C 151.27 229.11 154.49 228.03 157.73 228.80 Z" />
<path fill="#ffffff" opacity="1.00" d=" M 311.00 246.92 C 314.19 241.59 318.56 237.17 323.16 233.05 C 324.40 234.99 325.46 237.24 327.57 238.40 C 334.44 242.43 342.48 243.55 350.21 244.87 C 357.67 246.24 365.05 248.17 372.64 248.78 C 379.55 249.37 386.03 252.37 393.00 252.52 C 403.13 253.46 412.83 256.97 423.00 257.74 L 423.00 342.00 L 192.47 342.00 C 200.14 333.91 210.06 328.55 219.11 322.20 C 226.48 316.50 235.22 312.98 243.00 307.91 C 251.28 302.54 258.92 296.18 267.52 291.30 C 270.96 289.26 275.45 289.31 278.43 286.46 C 283.91 280.59 290.34 275.59 294.88 268.88 C 300.72 261.90 305.42 254.10 311.00 246.92 M 333.60 253.02 C 331.81 264.15 322.75 271.82 313.97 277.84 C 299.82 287.13 283.78 292.92 269.08 301.23 C 257.53 306.27 246.64 312.58 235.61 318.62 C 230.49 321.05 225.85 324.51 220.37 326.11 C 216.98 326.72 215.24 330.01 213.16 332.41 C 214.58 332.45 216.03 332.67 217.43 332.30 C 222.77 329.84 227.82 326.78 232.99 323.97 C 242.82 318.96 252.86 314.38 262.90 309.79 C 272.55 306.35 281.14 300.69 290.18 295.97 C 298.24 292.95 305.45 288.15 312.94 283.97 C 321.61 277.83 331.82 272.92 337.51 263.53 C 339.79 259.54 337.83 254.57 333.60 253.02 Z" />
<path fill="#ffffff" opacity="1.00" d=" M 113.25 252.78 C 124.92 251.39 136.22 247.07 148.10 247.51 C 150.17 255.89 151.67 264.42 152.06 273.06 C 153.24 287.83 162.51 299.88 169.41 312.43 C 174.77 322.38 182.25 331.17 185.89 342.00 L 20.14 342.00 C 23.10 336.92 23.76 330.90 26.75 325.84 C 32.39 310.54 39.60 295.86 47.44 281.58 C 48.75 277.29 51.82 273.95 54.58 270.55 C 56.06 268.73 57.67 266.94 59.71 265.73 C 61.46 265.34 63.33 265.73 65.03 265.07 C 71.91 262.53 79.09 260.96 86.29 259.62 C 95.27 257.33 104.16 254.64 113.25 252.78 Z" />
<path fill="#ffffff" opacity="1.00" d=" M 220.98 293.05 C 228.38 291.89 235.93 293.15 243.31 291.82 C 246.92 291.43 250.57 291.32 254.20 291.55 C 247.36 297.78 239.45 302.77 231.45 307.37 C 227.16 310.42 223.11 313.82 218.59 316.55 C 210.41 321.46 203.57 328.23 196.99 335.05 C 195.42 336.47 193.59 337.57 191.87 338.80 C 190.52 335.99 189.25 333.11 187.43 330.56 C 182.59 323.98 178.90 316.63 173.75 310.27 C 170.36 305.22 166.06 300.62 164.08 294.76 C 176.90 294.64 189.74 294.99 202.54 294.17 C 208.64 293.14 214.87 294.03 220.98 293.05 Z" />
</g>
<g id="#040404ff">
<path fill="#040404" opacity="1.00" d=" M 262.20 10.91 C 272.10 10.34 282.00 8.85 291.93 9.85 C 295.24 11.38 297.59 14.34 300.42 16.57 C 304.95 20.16 307.85 25.23 311.33 29.74 C 313.57 32.71 315.71 36.08 315.72 39.94 C 315.85 46.25 315.96 52.71 313.99 58.78 C 312.46 63.34 311.47 68.06 309.82 72.57 C 308.98 75.59 305.65 76.57 303.86 78.85 C 300.91 82.62 300.14 87.53 297.71 91.59 C 296.04 94.05 296.74 97.12 296.55 99.91 C 296.67 105.82 294.05 111.31 293.67 117.16 C 293.50 131.54 289.25 145.58 289.57 159.99 C 289.74 169.26 288.98 178.55 289.66 187.80 C 291.20 196.67 290.97 205.87 293.68 214.51 C 294.70 217.12 296.40 221.01 299.88 220.19 C 306.63 219.33 313.47 219.82 320.21 218.88 C 323.81 218.43 327.49 218.60 330.96 219.73 C 329.85 224.42 327.09 228.47 325.67 233.06 C 326.89 234.19 328.15 235.43 329.89 235.70 C 341.56 238.35 353.38 240.32 365.20 242.26 C 371.78 242.75 378.36 243.88 384.63 246.02 C 391.80 248.17 399.36 248.30 406.63 249.99 C 412.07 251.02 417.45 252.48 423.00 252.76 L 423.00 257.74 C 412.83 256.97 403.13 253.46 393.00 252.52 C 386.03 252.37 379.55 249.37 372.64 248.78 C 365.05 248.17 357.67 246.24 350.21 244.87 C 342.48 243.55 334.44 242.43 327.57 238.40 C 325.46 237.24 324.40 234.99 323.16 233.05 C 318.56 237.17 314.19 241.59 311.00 246.92 C 305.42 254.10 300.72 261.90 294.88 268.88 C 290.34 275.59 283.91 280.59 278.43 286.46 C 275.45 289.31 270.96 289.26 267.52 291.30 C 258.92 296.18 251.28 302.54 243.00 307.91 C 235.22 312.98 226.48 316.50 219.11 322.20 C 210.06 328.55 200.14 333.91 192.47 342.00 L 185.89 342.00 C 182.25 331.17 174.77 322.38 169.41 312.43 C 162.51 299.88 153.24 287.83 152.06 273.06 C 151.67 264.42 150.17 255.89 148.10 247.51 C 136.22 247.07 124.92 251.39 113.25 252.78 C 104.16 254.64 95.27 257.33 86.29 259.62 C 79.09 260.96 71.91 262.53 65.03 265.07 C 63.33 265.73 61.46 265.34 59.71 265.73 C 57.67 266.94 56.06 268.73 54.58 270.55 C 51.82 273.95 48.75 277.29 47.44 281.58 C 39.60 295.86 32.39 310.54 26.75 325.84 C 23.76 330.90 23.10 336.92 20.14 342.00 L 16.85 342.00 C 19.58 337.84 20.80 332.99 22.32 328.32 C 29.29 313.06 35.17 297.24 43.71 282.75 C 45.51 279.27 46.92 275.52 49.62 272.59 C 52.16 269.82 53.97 266.34 57.14 264.19 C 60.03 262.15 63.08 260.31 66.31 258.85 C 74.87 257.93 83.61 257.29 91.70 254.05 C 101.22 251.95 110.77 249.91 120.35 248.09 C 129.13 245.39 138.10 243.33 146.89 240.67 C 146.54 236.57 145.77 232.53 145.39 228.44 C 150.40 226.81 155.36 224.86 160.66 224.42 C 165.85 223.30 171.55 223.56 176.33 221.14 C 177.72 216.25 178.24 211.09 178.51 206.03 C 178.94 201.88 175.02 198.25 171.00 198.47 C 166.36 198.19 161.23 199.82 157.05 197.09 C 153.74 195.26 150.09 192.18 150.30 188.03 C 150.06 180.40 154.70 173.58 154.41 165.95 C 154.05 162.99 155.97 160.59 156.73 157.89 C 157.25 152.75 151.72 150.19 149.44 146.18 C 145.08 146.77 143.60 150.94 142.11 154.48 C 140.60 152.62 139.65 150.36 140.31 147.96 C 141.66 142.09 146.72 138.31 151.86 135.79 C 149.50 134.95 147.09 134.29 144.80 133.29 C 138.52 130.16 137.19 120.26 143.01 116.02 C 150.49 109.97 157.80 103.33 161.98 94.48 C 156.62 94.48 151.36 95.71 146.01 95.73 C 137.65 95.81 129.26 95.80 120.97 94.63 C 114.58 93.91 107.06 94.76 102.00 90.01 C 105.30 87.37 109.17 85.66 112.94 83.84 C 119.90 80.73 126.43 76.76 133.29 73.44 C 131.00 68.86 125.38 64.04 128.53 58.58 C 133.05 54.76 138.43 52.09 143.76 49.56 C 154.96 43.60 166.50 38.19 177.00 31.00 C 186.60 24.96 195.53 16.94 206.99 14.70 C 214.83 12.73 222.98 13.90 230.94 12.91 C 234.86 12.47 238.84 12.61 242.74 11.94 C 249.18 10.93 255.74 11.72 262.20 10.91 M 265.00 15.07 C 257.20 15.91 249.32 14.99 241.54 15.99 C 235.56 16.66 229.53 16.44 223.57 17.26 C 216.66 17.91 209.58 17.17 202.84 19.07 C 197.94 21.24 192.93 23.43 188.81 26.93 C 183.24 31.26 178.80 36.87 173.15 41.13 C 169.57 44.70 164.88 46.74 160.90 49.79 C 163.02 49.47 165.11 48.99 167.17 48.40 C 169.24 50.99 172.55 51.58 175.41 52.90 C 174.04 53.82 172.61 54.84 170.87 54.72 C 162.94 55.28 154.92 53.52 147.07 55.31 C 141.12 56.04 136.48 60.13 131.28 62.68 C 130.24 62.97 130.13 64.52 130.73 65.24 C 132.66 67.70 134.81 69.99 136.39 72.71 C 146.38 72.25 156.41 71.96 166.39 72.77 C 170.69 73.63 175.08 73.23 179.42 73.68 C 184.64 74.33 189.86 75.05 195.09 75.67 C 199.38 75.76 203.26 73.47 207.11 71.87 C 214.09 68.55 221.33 65.83 228.60 63.23 C 230.59 62.37 232.78 62.62 234.88 62.60 C 230.93 66.05 225.51 66.61 221.01 69.04 C 216.27 71.24 212.19 74.65 207.29 76.50 C 203.67 77.99 200.21 80.63 196.10 80.30 C 193.02 79.96 190.00 79.24 186.99 78.51 C 173.28 74.94 159.01 76.68 145.02 76.46 C 138.28 77.97 129.63 76.70 125.15 83.12 C 122.43 84.23 119.47 84.63 116.79 85.87 C 113.52 87.30 109.52 87.65 107.21 90.69 C 111.58 90.91 115.98 90.23 120.33 90.90 C 132.85 91.83 145.47 91.68 158.03 91.50 C 169.97 90.80 181.50 87.47 193.22 85.34 C 200.81 82.26 207.08 74.88 215.94 75.52 C 221.58 76.49 227.31 76.75 233.04 76.61 C 243.43 76.95 253.58 79.46 263.89 80.65 C 270.53 81.71 277.22 82.50 283.80 83.93 C 288.31 84.75 292.53 87.16 297.25 86.58 C 297.70 84.58 298.23 82.58 298.67 80.57 C 292.73 78.93 286.55 78.50 280.58 76.98 C 278.96 76.45 276.60 76.58 276.02 74.56 C 280.84 74.01 285.42 76.41 290.29 75.57 C 284.97 74.30 279.47 74.15 274.11 73.14 C 270.69 72.27 266.93 72.90 263.85 70.91 C 269.85 68.64 276.16 70.55 282.25 71.26 C 289.30 71.61 296.46 70.79 303.37 72.58 C 306.14 65.54 310.62 58.87 310.50 51.01 C 310.28 47.06 311.62 43.19 311.26 39.26 C 308.78 33.84 306.08 28.38 301.82 24.12 C 299.57 22.01 298.03 19.32 296.07 16.97 C 292.45 12.57 286.09 13.56 281.04 13.63 C 275.81 15.15 270.33 14.35 265.00 15.07 M 201.20 85.78 C 203.05 86.89 204.86 88.08 206.67 89.28 C 204.96 89.82 203.24 91.16 201.37 90.55 C 189.48 86.44 177.54 92.93 165.68 93.78 C 162.85 100.43 158.91 106.66 153.47 111.48 C 150.55 115.01 146.85 117.73 143.68 120.99 C 143.10 124.47 142.91 129.64 146.82 131.20 C 150.18 132.59 153.55 134.06 156.27 136.55 C 158.14 136.03 160.02 135.54 161.92 135.10 C 161.07 133.66 160.48 131.97 159.14 130.89 C 157.21 130.41 155.02 130.54 153.61 128.89 C 158.58 127.46 163.91 129.06 166.50 133.71 C 167.83 131.99 169.79 130.38 169.66 127.99 C 170.15 125.13 168.11 122.74 167.39 120.10 C 169.76 121.56 171.85 123.67 172.05 126.60 C 173.88 131.51 168.74 135.06 164.88 136.81 C 167.54 139.67 171.29 141.13 174.74 142.78 C 179.72 145.14 184.86 140.66 189.87 142.67 C 191.95 143.92 194.14 144.99 196.63 144.99 C 196.61 144.40 196.57 143.23 196.55 142.64 C 188.94 140.97 179.33 138.75 176.60 130.37 C 179.73 132.69 182.49 135.67 186.28 136.94 C 192.86 140.15 200.30 138.09 207.28 138.54 C 208.07 143.33 209.21 148.31 207.77 153.10 C 206.98 157.92 205.74 163.93 200.22 165.34 C 201.74 161.39 204.30 157.98 206.11 154.18 C 207.35 150.27 206.68 145.92 204.57 142.43 C 204.06 142.44 203.06 142.47 202.55 142.48 C 200.92 144.18 199.21 145.81 197.37 147.30 C 197.52 148.68 197.66 150.06 197.81 151.45 C 196.05 150.51 193.98 148.46 191.92 149.88 C 187.47 152.60 183.20 155.81 178.05 157.12 C 171.36 159.33 164.16 159.08 157.54 161.47 C 158.33 171.49 151.39 180.43 153.53 190.47 C 156.80 194.55 162.43 196.02 167.43 194.97 C 175.56 193.75 184.85 194.14 191.31 188.20 C 195.28 185.45 199.19 182.62 203.05 179.71 C 202.32 183.20 199.48 185.58 197.79 188.59 C 201.00 188.76 204.12 188.04 207.19 187.20 C 210.12 181.34 215.16 176.83 218.05 170.92 C 220.64 166.93 222.34 162.27 225.80 158.90 C 224.49 163.60 221.47 167.55 219.86 172.14 C 218.08 176.97 214.81 181.03 212.71 185.70 C 218.45 185.46 224.00 183.66 229.75 183.33 C 237.40 182.05 246.15 179.40 249.98 172.00 C 253.11 165.87 254.38 158.99 255.78 152.31 C 256.99 147.56 256.23 142.63 256.11 137.80 C 257.40 138.48 258.69 139.17 259.98 139.85 C 263.01 138.12 265.39 135.57 267.22 132.63 C 266.32 132.55 264.54 132.40 263.64 132.32 C 266.63 126.80 270.66 121.74 272.42 115.63 C 273.46 109.35 269.67 103.80 267.70 98.12 C 269.12 98.69 270.52 99.32 271.93 99.92 C 271.66 95.87 271.32 90.52 266.92 88.76 C 261.34 87.15 256.55 91.45 252.00 93.98 C 248.74 95.55 247.59 99.40 244.37 101.01 C 244.40 99.86 244.51 98.72 244.71 97.59 C 248.57 92.02 254.88 88.63 261.09 86.32 C 265.62 84.31 270.16 87.63 272.96 90.97 C 275.71 95.58 274.99 101.16 276.42 106.16 C 278.34 114.35 278.43 123.96 272.85 130.81 C 268.65 135.39 265.39 141.23 259.39 143.73 C 259.49 155.99 257.01 169.12 248.75 178.65 C 242.81 184.63 234.31 187.39 226.01 187.53 C 219.55 187.13 214.10 191.18 208.49 193.74 C 201.88 197.44 194.14 199.16 188.41 204.33 C 186.17 206.31 182.99 207.87 182.30 211.03 C 180.56 217.12 180.36 223.52 178.79 229.64 C 176.54 235.71 174.31 242.05 169.87 246.90 C 165.20 251.06 160.07 254.69 154.63 257.76 C 153.43 268.03 155.98 278.52 158.55 288.49 C 167.88 290.20 177.53 290.75 186.99 289.73 C 192.97 289.44 199.00 290.06 204.95 289.17 C 209.61 288.33 214.36 288.58 219.06 288.21 C 226.33 287.09 233.71 287.79 241.03 287.34 C 247.06 286.68 253.10 286.12 259.15 285.62 C 264.29 285.78 269.41 284.87 274.24 283.13 C 278.05 280.74 280.58 276.86 283.62 273.63 C 288.88 268.18 293.61 262.25 298.43 256.41 C 304.88 247.33 311.58 238.34 319.53 230.49 C 321.71 228.38 323.56 225.96 325.26 223.45 C 316.86 223.14 308.43 223.16 300.05 223.87 C 301.08 225.77 302.13 227.71 303.72 229.22 C 305.84 230.92 309.92 231.17 308.74 234.87 C 301.47 235.35 296.82 229.15 292.84 224.07 C 288.02 216.62 288.75 207.35 287.65 198.91 C 285.72 184.03 286.46 168.96 286.49 153.98 C 287.79 141.29 291.13 128.80 290.72 115.98 C 291.19 111.63 292.66 107.40 292.53 102.99 C 292.49 99.14 293.40 95.38 293.71 91.56 C 287.83 89.59 281.63 88.87 275.75 86.90 C 272.45 85.94 269.22 84.50 265.74 84.37 C 256.11 83.53 246.67 81.32 237.07 80.38 C 230.49 80.53 223.93 79.17 217.37 79.84 C 211.87 81.52 206.69 84.06 201.20 85.78 M 175.28 151.65 C 175.68 152.48 176.47 154.14 176.87 154.97 C 179.43 154.13 182.06 153.41 184.41 152.07 C 184.74 150.62 184.32 149.43 183.16 148.51 C 180.43 149.20 177.11 149.16 175.28 151.65 M 169.26 151.70 C 169.51 153.36 169.96 154.99 170.59 156.56 C 171.56 156.46 173.52 156.27 174.49 156.17 C 174.30 154.50 174.06 152.84 173.76 151.19 C 172.25 151.33 170.75 151.49 169.26 151.70 M 158.11 153.28 C 158.44 155.34 159.06 157.34 159.95 159.23 C 161.13 157.37 161.82 155.40 160.52 153.41 C 159.92 153.38 158.71 153.31 158.11 153.28 M 162.29 152.59 C 162.40 154.26 162.52 155.93 162.65 157.61 C 164.56 157.57 166.46 157.49 168.36 157.38 C 168.31 155.73 168.26 154.08 168.23 152.44 C 166.25 152.48 164.27 152.54 162.29 152.59 M 178.73 197.59 C 180.06 199.85 181.41 202.10 182.88 204.28 C 184.82 201.92 185.76 199.06 185.76 196.02 C 183.36 196.26 180.86 196.33 178.73 197.59 M 157.73 228.80 C 154.49 228.03 151.27 229.11 148.19 230.00 C 148.49 237.45 150.12 244.83 152.47 251.90 C 155.02 250.56 157.59 249.29 160.13 247.94 C 164.98 245.34 168.37 240.86 171.51 236.48 C 173.50 233.74 174.50 230.42 174.65 227.06 C 168.97 227.21 163.42 230.31 157.73 228.80 M 220.98 293.05 C 214.87 294.03 208.64 293.14 202.54 294.17 C 189.74 294.99 176.90 294.64 164.08 294.76 C 166.06 300.62 170.36 305.22 173.75 310.27 C 178.90 316.63 182.59 323.98 187.43 330.56 C 189.25 333.11 190.52 335.99 191.87 338.80 C 193.59 337.57 195.42 336.47 196.99 335.05 C 203.57 328.23 210.41 321.46 218.59 316.55 C 223.11 313.82 227.16 310.42 231.45 307.37 C 239.45 302.77 247.36 297.78 254.20 291.55 C 250.57 291.32 246.92 291.43 243.31 291.82 C 235.93 293.15 228.38 291.89 220.98 293.05 Z" />
<path fill="#040404" opacity="1.00" d=" M 253.62 99.57 C 256.53 95.96 260.22 92.34 264.93 91.48 C 267.11 90.83 268.13 92.84 269.14 94.37 C 264.65 93.95 260.40 96.18 257.58 99.56 C 257.30 101.12 257.44 102.72 257.72 104.27 C 259.23 106.73 262.21 108.29 262.79 111.29 C 264.46 116.22 261.40 121.53 257.19 124.09 C 257.65 120.97 259.84 118.29 259.61 115.05 C 259.74 111.05 256.38 108.14 253.43 105.95 C 252.08 107.64 250.70 109.30 249.29 110.93 C 248.74 106.61 251.45 103.02 253.62 99.57 Z" />
<path fill="#040404" opacity="1.00" d=" M 203.13 98.84 C 203.78 97.62 204.55 96.47 205.62 95.59 C 204.86 96.95 203.95 98.22 203.10 99.52 C 205.15 100.71 207.14 102.03 208.85 103.68 C 204.93 102.59 201.28 99.36 197.02 100.57 C 190.50 102.06 184.00 103.99 177.23 103.68 C 177.71 103.17 178.67 102.14 179.15 101.62 C 176.84 100.86 174.10 100.82 172.39 98.85 C 174.72 98.24 177.05 98.49 179.28 99.34 C 184.99 100.02 190.76 99.37 196.27 97.78 C 198.63 96.93 200.97 97.89 203.13 98.84 Z" />
<path fill="#040404" opacity="1.00" d=" M 173.84 106.50 C 176.39 106.13 178.97 106.39 181.46 107.04 C 188.41 108.55 195.28 105.11 202.23 106.61 C 195.00 110.19 186.72 109.86 178.88 110.41 C 176.19 111.12 174.86 108.44 173.84 106.50 Z" />
<path fill="#040404" opacity="1.00" d=" M 230.60 119.59 C 233.24 117.57 233.69 113.82 236.52 112.00 C 237.05 114.98 235.32 117.52 233.93 119.98 C 232.19 122.82 230.41 125.67 228.02 128.02 C 224.68 131.29 222.08 135.30 218.28 138.09 C 217.78 129.81 225.20 124.60 230.60 119.59 Z" />
<path fill="#040404" opacity="1.00" d=" M 212.36 156.13 C 213.82 152.08 213.29 147.61 215.10 143.66 C 215.71 147.71 215.55 151.83 215.31 155.91 C 214.92 159.33 212.61 163.33 208.82 163.47 C 209.78 160.92 211.56 158.75 212.36 156.13 Z" />
<path fill="#040404" opacity="1.00" d=" M 168.90 165.02 C 175.10 161.39 182.25 159.66 188.20 155.54 C 183.59 161.42 176.34 164.86 168.90 165.02 Z" />
<path fill="#040404" opacity="1.00" d=" M 265.06 181.58 C 266.29 178.27 266.90 174.54 269.47 171.92 C 269.70 175.07 268.16 177.90 267.59 180.93 C 266.50 186.59 264.12 191.89 262.87 197.51 C 261.17 205.33 258.24 212.81 255.26 220.21 C 251.90 226.66 248.94 233.39 247.31 240.51 C 246.25 240.54 245.20 240.61 244.15 240.71 C 244.11 236.95 245.82 233.56 247.02 230.09 C 248.62 225.95 249.61 221.60 251.43 217.55 C 256.72 205.85 260.66 193.62 265.06 181.58 Z" />
<path fill="#040404" opacity="1.00" d=" M 181.54 219.23 L 183.45 219.28 C 183.62 230.41 184.65 241.73 182.04 252.68 C 180.66 257.61 178.87 262.41 177.45 267.33 C 177.03 269.01 175.83 270.28 174.60 271.43 C 174.18 269.37 174.10 267.22 174.72 265.20 C 179.67 250.42 181.77 234.79 181.54 219.23 Z" />
<path fill="#040404" opacity="1.00" d=" M 333.60 253.02 C 337.83 254.57 339.79 259.54 337.51 263.53 C 331.82 272.92 321.61 277.83 312.94 283.97 C 305.45 288.15 298.24 292.95 290.18 295.97 C 281.14 300.69 272.55 306.35 262.90 309.79 C 252.86 314.38 242.82 318.96 232.99 323.97 C 227.82 326.78 222.77 329.84 217.43 332.30 C 216.03 332.67 214.58 332.45 213.16 332.41 C 215.24 330.01 216.98 326.72 220.37 326.11 C 225.85 324.51 230.49 321.05 235.61 318.62 C 246.64 312.58 257.53 306.27 269.08 301.23 C 283.78 292.92 299.82 287.13 313.97 277.84 C 322.75 271.82 331.81 264.15 333.60 253.02 Z" />
</g>
</svg>
