<svg xmlns="http://www.w3.org/2000/svg" width="62" height="62" viewBox="0 0 62 62"><path fill="#d32d27" d="M52 54 C52 58.418 48.418 62 44 62 L8 62 C3.582 62 0 58.418 0 54 L0 18 C0 13.582 3.582 10 8 10 L44 10 C48.418 10 52 13.582 52 18 Z"/><path fill="#fff" d="M40 32.126 L30 32.126 30 22.126 22 22.126 22 32.126 12 32.126 12 40 22 40 22 50.126 30 50.126 30 40 40 40 Z"/><g><path fill="#f4900c" d="M62 20.054 C62 17.878 61.613 15.791 60.902 13.86 60.417 19.549 57.384 22.471 54.215 21.11 51.246 19.835 53.247 14.864 53.395 12.492 53.644 8.471 53.382 3.869 46.078 0.042 49.113 5.848 46.43 9.455 43.615 9.675 40.493 9.918 37.633 6.991 38.689 2.241 35.271 4.76 35.171 8.999 36.226 11.741 37.326 14.6 36.182 16.975 33.499 17.239 30.501 17.535 28.836 14.029 30.372 8.443 27.713 11.573 26.109 15.626 26.109 20.054 26.109 29.966 34.143 38 44.054 38 53.966 38 62 29.966 62 20.054 Z"/><path fill="#ffcc4d" d="M55.027 25.332 C55.183 28.587 52.323 29.863 50.784 29.247 48.561 28.357 49.157 26.828 48.585 23.662 48.013 20.495 45.814 18.296 42.56 17.328 44.935 24.013 41.243 26.477 39.308 26.917 37.332 27.367 35.347 26.916 35.12 22.687 32.814 24.982 31.387 28.157 31.387 31.666 31.387 32.055 31.411 32.437 31.445 32.817 34.686 36.02 39.137 38 44.054 38 48.972 38 53.423 36.02 56.664 32.817 56.698 32.437 56.722 32.055 56.722 31.666 56.722 29.358 56.105 27.195 55.027 25.332 Z"/></g></svg>