<?xml version="1.0" encoding="UTF-8" ?>
<!DOCTYPE svg PUBLIC "-//W3C//DTD SVG 1.1//EN" "http://www.w3.org/Graphics/SVG/1.1/DTD/svg11.dtd">
<svg width="145pt" height="174pt" viewBox="0 0 145 174" version="1.1" xmlns="http://www.w3.org/2000/svg">
<g id="#2a1406ff">
<path fill="#2a1406" opacity="1.00" d=" M 52.64 10.21 C 57.00 6.77 62.89 8.36 68.00 7.97 C 72.71 7.54 77.35 9.18 81.23 11.76 C 83.25 13.85 84.61 16.47 86.24 18.86 C 89.89 24.17 90.69 30.79 91.07 37.06 C 93.71 37.09 96.35 36.98 98.98 37.27 C 100.76 38.77 102.22 40.62 103.60 42.49 C 104.55 43.03 105.58 43.47 106.37 44.25 C 105.88 46.69 105.02 49.03 104.20 51.36 C 102.65 52.76 101.37 54.42 99.89 55.89 C 97.96 57.20 95.32 57.02 93.51 58.48 C 92.32 63.26 92.31 68.40 89.94 72.84 C 90.72 68.12 91.96 63.47 92.57 58.72 C 92.13 58.45 91.26 57.93 90.82 57.66 C 89.92 67.63 86.39 77.06 84.17 86.73 C 87.70 83.01 87.75 77.34 89.94 72.84 C 88.84 77.72 87.04 82.43 86.15 87.36 C 88.22 88.98 90.29 90.61 92.09 92.53 C 95.35 92.48 98.61 89.87 101.61 92.24 C 101.71 93.58 101.79 94.93 101.88 96.28 C 101.50 97.16 101.12 98.04 100.74 98.93 C 97.82 99.86 94.82 100.54 91.83 101.18 C 94.31 103.94 96.64 106.84 98.51 110.05 C 100.62 109.58 102.73 109.14 104.85 108.80 C 105.33 107.35 105.81 105.91 106.31 104.47 C 111.22 100.23 112.73 93.42 116.03 87.99 C 118.15 84.94 117.93 79.16 122.64 78.94 C 123.66 72.61 127.26 66.57 125.86 59.98 C 124.94 56.41 125.15 52.72 124.71 49.10 C 123.31 43.65 124.56 37.97 123.51 32.46 C 125.55 32.53 127.59 32.63 129.63 32.80 C 130.41 34.79 131.31 36.74 132.38 38.59 C 128.81 41.45 129.72 45.65 130.58 49.50 L 131.07 49.69 C 134.50 49.07 138.22 48.60 141.30 50.67 C 141.81 53.38 141.89 56.26 143.48 58.64 C 140.46 58.01 137.82 56.38 135.11 55.01 C 133.18 57.61 131.23 60.78 127.69 61.22 C 129.20 59.70 130.80 58.27 132.42 56.87 C 132.35 56.27 132.23 55.07 132.17 54.47 C 133.80 54.20 135.42 53.91 137.05 53.62 C 136.75 52.45 136.45 51.27 136.15 50.09 C 134.16 50.56 132.19 51.11 130.24 51.72 C 130.38 53.39 130.53 55.07 130.68 56.75 C 130.32 56.81 129.60 56.93 129.24 56.99 C 128.99 50.43 129.64 43.70 127.89 37.30 C 127.49 35.34 126.08 33.90 124.49 32.80 C 123.61 43.93 127.00 54.90 126.44 66.04 C 126.26 70.14 124.45 73.91 123.53 77.86 C 122.99 83.61 123.44 89.40 123.56 95.17 C 125.92 87.75 128.64 80.44 130.59 72.89 C 135.22 71.53 137.94 67.40 138.62 62.79 C 137.97 62.62 136.67 62.28 136.03 62.11 C 136.06 65.76 133.49 68.93 129.72 69.03 C 131.26 67.70 132.94 66.52 134.30 65.00 C 135.01 63.41 134.51 61.64 134.47 59.98 C 136.55 60.70 138.65 62.15 140.93 61.40 C 141.57 60.71 142.84 59.33 143.48 58.64 L 144.18 59.00 C 141.05 61.86 138.58 65.28 136.93 69.18 C 135.54 72.79 130.38 73.68 130.29 77.99 C 130.56 85.31 131.03 92.64 130.71 99.97 C 131.45 107.50 130.55 115.23 127.86 122.31 C 122.09 109.22 121.05 94.50 122.28 80.41 C 121.50 80.60 120.73 80.84 119.96 81.08 C 119.96 83.79 118.87 86.28 117.64 88.63 C 114.14 95.61 110.42 102.51 105.88 108.88 C 103.20 112.43 101.17 116.49 101.43 121.07 C 101.34 118.13 101.29 115.19 101.29 112.26 C 100.35 112.69 99.40 113.12 98.46 113.56 C 97.52 110.35 95.33 107.82 93.01 105.50 C 92.00 105.88 90.99 106.26 89.98 106.64 C 90.82 104.94 90.93 103.10 90.41 101.29 C 88.67 101.95 86.95 102.64 85.20 103.25 L 83.96 103.19 C 85.35 102.02 86.77 100.90 88.19 99.77 C 85.18 96.67 79.25 97.11 78.31 101.86 C 80.00 102.53 81.69 103.21 83.37 103.90 C 81.29 104.01 79.32 103.33 77.42 102.61 C 77.55 101.32 77.72 100.03 77.90 98.75 C 80.16 96.28 83.94 95.22 86.91 97.08 C 91.17 99.63 97.55 100.41 101.13 96.32 C 101.01 94.91 100.89 93.50 100.76 92.10 C 97.83 92.39 94.90 93.34 91.94 92.97 C 89.08 91.78 87.20 89.08 84.52 87.57 C 81.68 85.68 78.01 85.84 74.86 86.76 C 72.21 87.19 72.67 90.46 71.82 92.39 C 72.98 80.77 72.55 69.09 72.41 57.43 C 71.64 57.42 70.09 57.41 69.32 57.40 C 69.89 69.07 70.33 80.82 68.94 92.44 C 68.74 91.16 68.55 89.88 68.37 88.60 C 63.52 90.04 59.24 93.26 54.10 93.69 C 50.13 94.20 46.25 92.28 42.30 93.19 L 42.33 91.86 C 43.34 91.78 44.35 91.73 45.37 91.69 C 46.25 91.87 48.01 92.25 48.89 92.43 C 55.96 94.76 61.74 89.01 68.38 87.98 C 68.48 86.61 68.58 85.25 68.67 83.88 C 63.91 85.84 59.33 89.21 53.92 88.52 C 59.11 87.38 63.89 85.16 68.72 83.02 C 69.09 76.14 68.81 69.26 68.62 62.38 C 68.56 60.90 68.50 59.42 68.43 57.94 C 67.07 57.20 65.71 56.47 64.40 55.67 C 62.10 53.90 59.96 51.95 57.66 50.19 C 59.62 46.28 59.02 41.16 62.70 38.19 C 64.99 36.71 67.63 35.91 70.34 35.63 C 72.73 35.88 75.39 36.05 77.28 37.74 C 79.02 39.53 80.27 41.72 81.81 43.67 C 81.20 46.65 80.66 49.69 79.38 52.47 C 78.16 54.82 75.61 55.94 73.43 57.19 C 73.45 65.10 73.85 73.00 73.55 80.91 C 77.11 80.38 80.72 80.61 84.19 81.56 C 86.59 73.74 88.46 65.76 89.81 57.69 C 86.39 55.26 84.21 51.67 82.22 48.08 C 84.07 44.06 86.00 39.68 90.43 37.95 C 90.84 31.00 88.19 24.26 84.77 18.35 C 81.28 12.67 74.91 8.11 68.00 8.72 C 63.73 8.88 59.31 8.10 55.18 9.50 C 52.00 11.36 49.22 13.79 46.33 16.04 C 45.30 17.01 44.34 18.06 43.47 19.18 C 35.80 30.16 33.79 43.90 34.01 57.00 C 34.10 66.70 33.81 76.97 38.35 85.85 C 37.12 86.64 35.88 87.42 34.65 88.22 C 34.39 87.68 33.86 86.61 33.59 86.07 C 33.16 85.42 32.29 84.10 31.85 83.45 C 27.02 85.93 21.90 88.30 18.09 92.27 C 17.05 93.11 18.03 94.47 18.21 95.48 C 20.37 101.02 20.95 106.97 22.07 112.77 C 22.69 116.14 22.66 119.77 24.66 122.72 C 28.79 121.73 32.51 119.72 35.39 116.59 C 39.62 118.85 43.02 122.49 47.24 124.87 C 52.68 128.41 58.49 131.41 64.33 134.25 C 64.34 132.46 64.34 130.68 64.32 128.90 C 64.68 128.70 65.42 128.29 65.78 128.09 L 65.69 129.22 C 65.71 131.28 64.98 133.79 66.57 135.47 C 68.47 137.19 71.03 137.75 73.47 138.26 C 73.60 138.42 73.88 138.76 74.02 138.93 C 75.24 140.39 76.38 141.91 77.45 143.49 C 82.22 142.03 86.53 139.41 90.77 136.85 C 90.50 137.50 89.97 138.79 89.70 139.43 L 88.99 139.00 C 88.72 139.29 88.18 139.88 87.91 140.18 C 85.92 139.87 83.69 140.93 83.00 142.88 C 81.64 142.85 79.13 143.21 79.32 145.02 C 80.83 145.87 82.35 144.10 83.00 142.88 C 85.11 143.36 86.86 141.83 87.91 140.18 C 88.30 140.17 89.07 140.16 89.46 140.16 L 89.70 139.43 C 96.50 137.57 101.30 131.66 107.88 129.16 C 99.36 135.56 90.09 140.82 80.89 146.15 C 80.79 146.64 80.59 147.63 80.50 148.12 C 90.90 142.30 101.16 136.16 112.00 131.14 C 113.71 130.41 115.41 129.69 117.12 128.95 C 116.29 128.33 115.46 127.72 114.67 127.07 L 113.78 126.15 C 117.76 128.10 122.13 127.01 126.12 125.74 C 123.71 129.73 121.88 134.22 118.46 137.49 C 109.92 147.82 107.35 161.45 103.71 174.00 L 102.98 174.00 C 105.24 161.34 109.69 149.10 115.76 137.77 C 117.70 134.56 120.22 131.69 121.55 128.13 C 114.33 131.13 107.52 135.02 100.54 138.50 C 94.49 141.81 88.21 144.75 82.51 148.65 C 81.32 149.39 81.31 150.98 80.87 152.18 L 80.73 152.65 C 80.22 152.19 79.18 151.27 78.67 150.81 C 73.92 150.56 69.14 150.21 64.38 150.44 L 63.54 150.72 C 63.75 148.77 62.88 147.29 60.96 146.72 C 51.21 142.34 41.53 137.59 32.91 131.20 C 29.40 128.74 26.10 125.95 22.37 123.82 C 22.41 127.61 22.87 131.37 23.70 135.06 C 24.84 139.93 24.70 145.17 27.12 149.66 C 29.10 153.71 33.57 155.44 36.86 158.23 C 39.76 160.07 42.54 163.58 46.37 162.60 C 49.82 161.77 53.87 158.18 52.19 154.35 C 54.16 153.10 56.02 153.82 57.59 155.28 C 58.35 159.81 55.93 163.55 53.47 167.06 C 53.09 170.95 58.61 171.37 61.46 171.95 L 62.39 172.08 C 65.26 172.80 68.11 171.80 70.97 171.66 C 72.93 172.00 74.67 173.02 76.48 173.78 L 76.97 174.00 L 74.04 174.00 C 70.91 171.07 66.61 173.36 62.89 172.87 C 58.64 172.65 52.29 171.97 52.26 166.42 C 55.42 163.24 59.26 157.52 54.83 153.70 C 53.17 156.36 53.01 160.21 49.96 161.81 C 46.80 163.39 44.09 166.27 40.40 166.44 L 39.23 165.79 C 40.37 165.13 41.52 164.48 42.67 163.83 C 37.56 159.33 31.48 156.10 26.28 151.73 C 24.21 149.46 23.07 146.51 21.25 144.06 C 15.84 146.44 12.24 151.59 8.75 156.17 C 8.30 156.30 7.41 156.55 6.96 156.68 C 9.46 153.32 12.15 150.09 15.00 147.03 C 17.27 144.60 20.64 143.22 23.92 144.22 C 23.24 138.45 22.28 132.71 21.39 126.97 C 20.32 123.32 23.11 119.87 21.82 116.21 C 20.03 108.89 20.42 100.75 16.23 94.22 C 12.03 100.26 7.37 106.22 5.82 113.60 C 5.57 113.02 5.07 111.86 4.82 111.29 C 7.02 104.09 10.61 97.24 15.74 91.71 C 20.30 88.02 25.63 85.44 30.71 82.54 C 30.96 82.07 31.45 81.13 31.70 80.66 C 28.78 73.58 24.35 67.17 22.08 59.82 C 20.19 54.00 18.37 48.08 17.81 41.96 C 17.62 39.80 16.54 37.61 17.30 35.46 C 19.35 27.68 25.40 22.03 29.93 15.68 C 33.00 21.26 28.79 27.28 28.97 33.10 C 29.28 40.75 28.23 48.51 29.85 56.06 C 29.90 60.78 30.52 65.46 31.43 70.09 L 33.56 70.12 C 35.05 65.50 32.79 60.72 33.23 56.01 C 34.69 43.94 33.63 30.66 40.74 20.10 C 44.65 16.74 48.56 13.37 52.64 10.21 M 21.44 29.42 C 20.07 32.03 17.99 34.77 18.71 37.90 C 20.33 48.17 22.62 58.52 27.11 67.93 C 28.45 73.77 31.15 79.11 34.20 84.22 C 34.81 87.07 37.49 82.98 34.73 82.91 L 35.05 81.83 C 34.91 81.43 34.62 80.64 34.47 80.24 L 33.62 80.34 L 33.42 79.01 C 34.46 77.49 34.16 76.58 32.52 76.30 C 32.50 75.72 32.46 74.57 32.44 73.99 L 32.78 73.16 C 32.41 72.89 31.68 72.35 31.31 72.08 C 31.30 71.98 31.27 71.79 31.26 71.70 C 30.37 68.75 31.17 65.26 29.09 62.76 C 28.78 56.48 27.39 50.26 27.68 43.93 C 28.01 35.22 28.24 26.39 30.85 18.00 C 26.78 20.91 24.08 25.26 21.44 29.42 M 61.78 40.87 C 59.37 43.65 61.35 47.66 58.91 50.51 L 60.30 50.72 C 60.53 47.46 63.73 45.69 66.47 44.69 C 71.24 43.16 76.58 42.96 81.23 45.04 C 80.51 44.31 79.06 42.85 78.34 42.12 C 78.35 41.58 78.38 40.51 78.39 39.97 C 76.65 38.87 75.06 37.33 72.96 36.95 C 68.86 35.83 64.68 38.10 61.78 40.87 M 86.78 41.81 C 86.24 43.39 85.80 45.01 85.14 46.56 C 90.96 43.66 97.87 43.20 104.00 45.37 C 105.63 44.51 103.27 43.78 102.68 43.27 C 102.53 40.66 99.87 39.33 97.83 38.28 C 93.82 37.07 89.63 39.04 86.78 41.81 M 68.58 45.18 C 65.99 46.30 62.83 47.23 61.37 49.82 C 61.69 52.62 64.04 54.51 66.35 55.75 C 70.98 57.92 76.85 55.32 79.21 51.00 C 79.78 48.96 80.62 44.83 77.31 44.97 C 75.88 45.45 74.47 45.97 73.05 46.51 C 71.64 45.82 70.16 45.31 68.58 45.18 M 84.58 48.91 C 85.43 51.59 87.37 53.76 89.51 55.51 C 95.49 59.67 104.70 53.62 104.40 46.75 C 103.04 46.06 101.52 45.81 100.07 45.41 C 98.79 45.99 97.52 46.57 96.23 47.13 C 94.71 46.20 93.04 45.62 91.27 45.45 C 89.04 46.42 85.85 46.67 84.58 48.91 M 138.01 51.61 C 138.13 52.90 138.26 54.20 138.38 55.50 C 139.01 55.62 140.26 55.85 140.89 55.97 C 140.77 54.85 140.64 53.73 140.52 52.61 C 139.89 52.36 138.64 51.86 138.01 51.61 M 73.42 81.50 C 73.36 83.02 73.31 84.54 73.24 86.05 C 76.42 85.10 79.75 85.38 82.97 85.06 C 83.15 84.49 83.51 83.34 83.69 82.76 C 80.51 80.92 76.90 81.51 73.42 81.50 M 124.25 98.19 C 124.52 103.31 124.42 108.80 126.97 113.40 C 127.37 113.26 128.17 112.99 128.57 112.85 C 129.82 103.33 130.69 93.68 129.54 84.10 C 127.14 88.56 126.75 93.79 124.25 98.19 M 32.59 122.35 L 31.95 121.60 C 29.58 122.25 27.21 122.87 24.83 123.45 C 26.28 125.35 28.43 126.48 30.37 127.80 C 37.87 133.10 45.84 137.72 53.87 142.18 C 57.48 143.79 60.86 146.23 64.82 146.87 C 67.05 144.62 68.81 141.89 70.29 139.10 C 59.66 133.97 49.40 128.03 39.74 121.25 C 37.95 120.28 36.62 117.60 34.25 118.58 C 33.68 119.82 32.43 120.86 32.59 122.35 M 65.79 148.60 C 70.32 149.84 75.61 150.91 79.82 148.16 C 77.67 145.10 75.80 141.76 72.99 139.23 L 72.01 139.39 C 69.60 142.16 67.13 145.12 65.79 148.60 Z" />
</g>
<g id="#eca2a1ff">
<path fill="#eca2a1" opacity="1.00" d=" M 46.33 16.04 C 49.22 13.79 52.00 11.36 55.18 9.50 C 59.31 8.10 63.73 8.88 68.00 8.72 C 74.91 8.11 81.28 12.67 84.77 18.35 C 88.19 24.26 90.84 31.00 90.43 37.95 C 86.00 39.68 84.07 44.06 82.22 48.08 C 84.21 51.67 86.39 55.26 89.81 57.69 C 88.46 65.76 86.59 73.74 84.19 81.56 C 80.72 80.61 77.11 80.38 73.55 80.91 C 73.85 73.00 73.45 65.10 73.43 57.19 C 75.61 55.94 78.16 54.82 79.38 52.47 C 80.66 49.69 81.20 46.65 81.81 43.67 C 80.27 41.72 79.02 39.53 77.28 37.74 C 75.39 36.05 72.73 35.88 70.34 35.63 C 69.56 34.34 68.79 33.05 68.01 31.76 C 67.22 31.68 65.64 31.52 64.85 31.44 C 63.63 33.50 62.41 35.70 62.70 38.19 C 59.02 41.16 59.62 46.28 57.66 50.19 C 59.96 51.95 62.10 53.90 64.40 55.67 C 64.21 57.75 63.51 59.89 64.02 61.97 C 65.53 62.30 67.06 62.44 68.62 62.38 C 68.81 69.26 69.09 76.14 68.72 83.02 C 63.89 85.16 59.11 87.38 53.92 88.52 C 59.33 89.21 63.91 85.84 68.67 83.88 C 68.58 85.25 68.48 86.61 68.38 87.98 C 61.74 89.01 55.96 94.76 48.89 92.43 C 51.86 78.77 52.80 64.77 55.07 50.99 C 56.28 42.26 57.75 32.68 53.23 24.61 C 52.32 22.71 50.22 22.34 48.32 22.32 C 48.74 20.83 49.16 19.34 49.59 17.85 C 48.50 17.25 47.41 16.64 46.33 16.04 M 55.29 16.28 C 55.66 18.43 54.22 22.08 57.24 22.64 C 58.99 22.94 61.21 22.95 62.34 21.33 C 63.17 19.48 62.93 17.07 61.25 15.76 C 59.30 14.85 57.17 15.57 55.29 16.28 Z" />
</g>
<g id="#875f9cff">
<path fill="#875f9c" opacity="1.00" d=" M 55.29 16.28 C 57.17 15.57 59.30 14.85 61.25 15.76 C 62.93 17.07 63.17 19.48 62.34 21.33 C 61.21 22.95 58.99 22.94 57.24 22.64 C 54.22 22.08 55.66 18.43 55.29 16.28 Z" />
</g>
<g id="#8e6586ff">
<path fill="#8e6586" opacity="1.00" d=" M 43.47 19.18 C 44.34 18.06 45.30 17.01 46.33 16.04 C 47.41 16.64 48.50 17.25 49.59 17.85 C 49.16 19.34 48.74 20.83 48.32 22.32 C 47.79 22.49 46.74 22.82 46.21 22.99 C 45.30 21.72 44.38 20.45 43.47 19.18 Z" />
</g>
<g id="#5b366fff">
<path fill="#5b366f" opacity="1.00" d=" M 21.44 29.42 C 24.08 25.26 26.78 20.91 30.85 18.00 C 28.24 26.39 28.01 35.22 27.68 43.93 C 27.39 50.26 28.78 56.48 29.09 62.76 C 28.88 64.83 28.68 66.90 28.45 68.97 C 28.11 68.71 27.44 68.19 27.11 67.93 C 22.62 58.52 20.33 48.17 18.71 37.90 C 17.99 34.77 20.07 32.03 21.44 29.42 Z" />
<path fill="#5b366f" opacity="1.00" d=" M 31.26 71.70 C 31.27 71.79 31.30 71.98 31.31 72.08 C 31.30 71.98 31.27 71.79 31.26 71.70 Z" />
<path fill="#5b366f" opacity="1.00" d=" M 31.31 72.08 C 31.68 72.35 32.41 72.89 32.78 73.16 L 32.44 73.99 C 32.15 73.51 31.59 72.56 31.31 72.08 Z" />
<path fill="#5b366f" opacity="1.00" d=" M 32.52 76.30 C 34.16 76.58 34.46 77.49 33.42 79.01 C 32.66 78.24 32.36 77.34 32.52 76.30 Z" />
<path fill="#5b366f" opacity="1.00" d=" M 33.62 80.34 L 34.47 80.24 C 34.62 80.64 34.91 81.43 35.05 81.83 C 34.69 81.46 33.98 80.71 33.62 80.34 Z" />
<path fill="#5b366f" opacity="1.00" d=" M 34.73 82.91 C 37.49 82.98 34.81 87.07 34.20 84.22 C 34.33 83.89 34.60 83.24 34.73 82.91 Z" />
</g>
<g id="#f1a1a1ff">
<path fill="#f1a1a1" opacity="1.00" d=" M 34.01 57.00 C 33.79 43.90 35.80 30.16 43.47 19.18 C 44.38 20.45 45.30 21.72 46.21 22.99 C 39.91 27.49 38.34 35.80 37.50 43.01 C 37.52 48.69 37.11 55.70 41.99 59.68 C 46.53 57.83 47.62 52.43 47.71 48.05 C 47.67 45.58 48.18 42.70 46.36 40.71 C 45.72 44.30 45.46 48.14 43.00 51.06 C 40.83 48.06 41.59 44.32 42.14 40.94 C 42.61 37.15 44.79 33.53 47.98 31.43 C 50.55 31.69 50.81 35.02 51.13 37.05 C 51.31 55.43 47.36 73.49 45.37 91.69 C 44.35 91.73 43.34 91.78 42.33 91.86 C 42.20 91.24 41.93 89.99 41.80 89.36 C 41.01 87.87 39.61 86.90 38.35 85.85 C 33.81 76.97 34.10 66.70 34.01 57.00 Z" />
</g>
<g id="#6b0d05ff">
<path fill="#6b0d05" opacity="1.00" d=" M 46.21 22.99 C 46.74 22.82 47.79 22.49 48.32 22.32 C 50.22 22.34 52.32 22.71 53.23 24.61 C 57.75 32.68 56.28 42.26 55.07 50.99 C 52.80 64.77 51.86 78.77 48.89 92.43 C 48.01 92.25 46.25 91.87 45.37 91.69 C 47.36 73.49 51.31 55.43 51.13 37.05 C 50.81 35.02 50.55 31.69 47.98 31.43 C 44.79 33.53 42.61 37.15 42.14 40.94 C 41.59 44.32 40.83 48.06 43.00 51.06 C 45.46 48.14 45.72 44.30 46.36 40.71 C 48.18 42.70 47.67 45.58 47.71 48.05 C 47.62 52.43 46.53 57.83 41.99 59.68 C 37.11 55.70 37.52 48.69 37.50 43.01 C 38.34 35.80 39.91 27.49 46.21 22.99 Z" />
</g>
<g id="#946384ff">
<path fill="#946384" opacity="1.00" d=" M 62.70 38.19 C 62.41 35.70 63.63 33.50 64.85 31.44 C 65.64 31.52 67.22 31.68 68.01 31.76 C 68.79 33.05 69.56 34.34 70.34 35.63 C 67.63 35.91 64.99 36.71 62.70 38.19 Z" />
</g>
<g id="#9ec9f1ff">
<path fill="#9ec9f1" opacity="1.00" d=" M 124.49 32.80 C 126.08 33.90 127.49 35.34 127.89 37.30 C 129.64 43.70 128.99 50.43 129.24 56.99 C 129.60 56.93 130.32 56.81 130.68 56.75 C 130.53 55.07 130.38 53.39 130.24 51.72 C 132.19 51.11 134.16 50.56 136.15 50.09 C 136.45 51.27 136.75 52.45 137.05 53.62 C 135.42 53.91 133.80 54.20 132.17 54.47 C 132.23 55.07 132.35 56.27 132.42 56.87 C 130.80 58.27 129.20 59.70 127.69 61.22 C 131.23 60.78 133.18 57.61 135.11 55.01 C 137.82 56.38 140.46 58.01 143.48 58.64 C 142.84 59.33 141.57 60.71 140.93 61.40 C 138.65 62.15 136.55 60.70 134.47 59.98 C 134.51 61.64 135.01 63.41 134.30 65.00 C 132.94 66.52 131.26 67.70 129.72 69.03 C 133.49 68.93 136.06 65.76 136.03 62.11 C 136.67 62.28 137.97 62.62 138.62 62.79 C 137.94 67.40 135.22 71.53 130.59 72.89 C 128.64 80.44 125.92 87.75 123.56 95.17 C 123.44 89.40 122.99 83.61 123.53 77.86 C 124.45 73.91 126.26 70.14 126.44 66.04 C 127.00 54.90 123.61 43.93 124.49 32.80 Z" />
<path fill="#9ec9f1" opacity="1.00" d=" M 61.78 40.87 C 64.68 38.10 68.86 35.83 72.96 36.95 C 75.06 37.33 76.65 38.87 78.39 39.97 C 78.38 40.51 78.35 41.58 78.34 42.12 C 79.06 42.85 80.51 44.31 81.23 45.04 C 76.58 42.96 71.24 43.16 66.47 44.69 C 63.73 45.69 60.53 47.46 60.30 50.72 L 58.91 50.51 C 61.35 47.66 59.37 43.65 61.78 40.87 Z" />
<path fill="#9ec9f1" opacity="1.00" d=" M 86.78 41.81 C 89.63 39.04 93.82 37.07 97.83 38.28 C 99.87 39.33 102.53 40.66 102.68 43.27 C 103.27 43.78 105.63 44.51 104.00 45.37 C 97.87 43.20 90.96 43.66 85.14 46.56 C 85.80 45.01 86.24 43.39 86.78 41.81 Z" />
<path fill="#9ec9f1" opacity="1.00" d=" M 138.01 51.61 C 138.64 51.86 139.89 52.36 140.52 52.61 C 140.64 53.73 140.77 54.85 140.89 55.97 C 140.26 55.85 139.01 55.62 138.38 55.50 C 138.26 54.20 138.13 52.90 138.01 51.61 Z" />
<path fill="#9ec9f1" opacity="1.00" d=" M 69.32 57.40 C 70.09 57.41 71.64 57.42 72.41 57.43 C 72.55 69.09 72.98 80.77 71.82 92.39 C 72.67 90.46 72.21 87.19 74.86 86.76 C 78.01 85.84 81.68 85.68 84.52 87.57 C 87.20 89.08 89.08 91.78 91.94 92.97 C 94.90 93.34 97.83 92.39 100.76 92.10 C 100.89 93.50 101.01 94.91 101.13 96.32 C 97.55 100.41 91.17 99.63 86.91 97.08 C 83.94 95.22 80.16 96.28 77.90 98.75 C 77.38 98.55 76.33 98.16 75.80 97.97 C 76.48 97.60 77.85 96.87 78.54 96.50 C 76.12 96.23 73.69 96.49 71.28 96.70 C 67.38 97.12 63.84 94.91 59.97 94.86 C 53.99 94.26 47.83 95.98 41.99 94.03 L 42.30 93.19 C 46.25 92.28 50.13 94.20 54.10 93.69 C 59.24 93.26 63.52 90.04 68.37 88.60 C 68.55 89.88 68.74 91.16 68.94 92.44 C 70.33 80.82 69.89 69.07 69.32 57.40 Z" />
<path fill="#9ec9f1" opacity="1.00" d=" M 90.82 57.66 C 91.26 57.93 92.13 58.45 92.57 58.72 C 91.96 63.47 90.72 68.12 89.94 72.84 C 87.75 77.34 87.70 83.01 84.17 86.73 C 86.39 77.06 89.92 67.63 90.82 57.66 Z" />
<path fill="#9ec9f1" opacity="1.00" d=" M 49.96 161.81 C 53.01 160.21 53.17 156.36 54.83 153.70 C 59.26 157.52 55.42 163.24 52.26 166.42 C 52.29 171.97 58.64 172.65 62.89 172.87 C 66.61 173.36 70.91 171.07 74.04 174.00 L 38.00 174.00 C 38.80 171.48 39.68 168.99 40.40 166.44 C 44.09 166.27 46.80 163.39 49.96 161.81 Z" />
</g>
<g id="#9e4822ff">
<path fill="#9e4822" opacity="1.00" d=" M 68.58 45.18 C 70.16 45.31 71.64 45.82 73.05 46.51 C 74.47 45.97 75.88 45.45 77.31 44.97 C 76.93 47.50 75.08 49.84 72.27 49.37 C 69.92 49.44 69.11 47.03 68.58 45.18 Z" />
</g>
<g id="#c8f8a7ff">
<path fill="#c8f8a7" opacity="1.00" d=" M 77.31 44.97 C 80.62 44.83 79.78 48.96 79.21 51.00 C 76.85 55.32 70.98 57.92 66.35 55.75 C 64.04 54.51 61.69 52.62 61.37 49.82 C 62.83 47.23 65.99 46.30 68.58 45.18 C 69.11 47.03 69.92 49.44 72.27 49.37 C 75.08 49.84 76.93 47.50 77.31 44.97 Z" />
<path fill="#c8f8a7" opacity="1.00" d=" M 84.58 48.91 C 85.85 46.67 89.04 46.42 91.27 45.45 C 91.33 46.22 91.45 47.77 91.51 48.54 C 94.69 50.44 99.66 49.80 100.07 45.41 C 101.52 45.81 103.04 46.06 104.40 46.75 C 104.70 53.62 95.49 59.67 89.51 55.51 C 87.37 53.76 85.43 51.59 84.58 48.91 Z" />
</g>
<g id="#9b4117ff">
<path fill="#9b4117" opacity="1.00" d=" M 91.27 45.45 C 93.04 45.62 94.71 46.20 96.23 47.13 C 97.52 46.57 98.79 45.99 100.07 45.41 C 99.66 49.80 94.69 50.44 91.51 48.54 C 91.45 47.77 91.33 46.22 91.27 45.45 Z" />
</g>
<g id="#92617eff">
<path fill="#92617e" opacity="1.00" d=" M 64.40 55.67 C 65.71 56.47 67.07 57.20 68.43 57.94 C 68.50 59.42 68.56 60.90 68.62 62.38 C 67.06 62.44 65.53 62.30 64.02 61.97 C 63.51 59.89 64.21 57.75 64.40 55.67 Z" />
</g>
<g id="#553c59ff">
<path fill="#553c59" opacity="1.00" d=" M 29.09 62.76 C 31.17 65.26 30.37 68.75 31.26 71.70 C 31.27 71.79 31.30 71.98 31.31 72.08 C 31.59 72.56 32.15 73.51 32.44 73.99 C 32.46 74.57 32.50 75.72 32.52 76.30 C 32.36 77.34 32.66 78.24 33.42 79.01 L 33.62 80.34 C 33.98 80.71 34.69 81.46 35.05 81.83 L 34.73 82.91 C 34.60 83.24 34.33 83.89 34.20 84.22 C 31.15 79.11 28.45 73.77 27.11 67.93 C 27.44 68.19 28.11 68.71 28.45 68.97 C 28.68 66.90 28.88 64.83 29.09 62.76 Z" />
</g>
<g id="#56306bff">
<path fill="#56306b" opacity="1.00" d=" M 119.96 81.08 C 120.73 80.84 121.50 80.60 122.28 80.41 C 121.05 94.50 122.09 109.22 127.86 122.31 C 127.31 123.47 126.73 124.61 126.12 125.74 C 122.13 127.01 117.76 128.10 113.78 126.15 C 111.28 124.03 108.94 120.78 105.34 120.86 C 98.83 122.91 93.47 127.90 86.89 129.64 C 86.60 129.24 86.00 128.43 85.70 128.03 C 85.37 121.97 85.63 115.86 84.59 109.85 C 86.49 108.98 88.85 108.62 89.98 106.64 C 90.99 106.26 92.00 105.88 93.01 105.50 C 95.33 107.82 97.52 110.35 98.46 113.56 C 99.40 113.12 100.35 112.69 101.29 112.26 C 101.29 115.19 101.34 118.13 101.43 121.07 C 101.17 116.49 103.20 112.43 105.88 108.88 C 110.42 102.51 114.14 95.61 117.64 88.63 C 118.87 86.28 119.96 83.79 119.96 81.08 Z" />
<path fill="#56306b" opacity="1.00" d=" M 18.09 92.27 C 21.90 88.30 27.02 85.93 31.85 83.45 C 32.29 84.10 33.16 85.42 33.59 86.07 C 33.50 86.76 33.31 88.12 33.21 88.81 C 32.42 88.95 30.83 89.24 30.03 89.38 C 29.59 94.03 33.33 97.10 35.29 100.86 C 39.37 109.33 44.68 117.16 50.41 124.60 C 54.34 127.68 59.07 131.01 64.32 128.90 C 64.34 130.68 64.34 132.46 64.33 134.25 C 58.49 131.41 52.68 128.41 47.24 124.87 C 43.02 122.49 39.62 118.85 35.39 116.59 C 32.51 119.72 28.79 121.73 24.66 122.72 C 22.66 119.77 22.69 116.14 22.07 112.77 C 20.95 106.97 20.37 101.02 18.21 95.48 C 18.03 94.47 17.05 93.11 18.09 92.27 Z" />
<path fill="#56306b" opacity="1.00" d=" M 5.82 113.60 C 7.37 106.22 12.03 100.26 16.23 94.22 C 20.42 100.75 20.03 108.89 21.82 116.21 C 23.11 119.87 20.32 123.32 21.39 126.97 C 22.28 132.71 23.24 138.45 23.92 144.22 C 20.64 143.22 17.27 144.60 15.00 147.03 C 12.15 150.09 9.46 153.32 6.96 156.68 C 7.41 156.55 8.30 156.30 8.75 156.17 C 12.24 151.59 15.84 146.44 21.25 144.06 C 23.07 146.51 24.21 149.46 26.28 151.73 C 31.48 156.10 37.56 159.33 42.67 163.83 C 41.52 164.48 40.37 165.13 39.23 165.79 L 40.40 166.44 C 39.68 168.99 38.80 171.48 38.00 174.00 L 8.34 174.00 C 6.00 169.84 2.20 166.13 2.09 161.07 C 1.38 150.64 1.09 140.09 2.61 129.71 C 3.41 124.29 4.93 119.01 5.82 113.60 Z" />
<path fill="#56306b" opacity="1.00" d=" M 71.01 126.93 C 74.47 122.52 77.02 117.48 78.68 112.13 C 80.44 112.30 82.22 112.30 83.97 112.01 C 84.66 118.61 85.40 125.41 83.73 131.93 C 80.32 134.06 76.78 135.98 73.47 138.26 C 71.03 137.75 68.47 137.19 66.57 135.47 C 64.98 133.79 65.71 131.28 65.69 129.22 C 67.50 128.64 69.71 128.51 71.01 126.93 Z" />
</g>
<g id="#e2a4a0ff">
<path fill="#e2a4a0" opacity="1.00" d=" M 73.42 81.50 C 76.90 81.51 80.51 80.92 83.69 82.76 C 83.51 83.34 83.15 84.49 82.97 85.06 C 79.75 85.38 76.42 85.10 73.24 86.05 C 73.31 84.54 73.36 83.02 73.42 81.50 Z" />
</g>
<g id="#651823ff">
<path fill="#651823" opacity="1.00" d=" M 124.25 98.19 C 126.75 93.79 127.14 88.56 129.54 84.10 C 130.69 93.68 129.82 103.33 128.57 112.85 C 128.17 112.99 127.37 113.26 126.97 113.40 C 124.42 108.80 124.52 103.31 124.25 98.19 Z" />
</g>
<g id="#59383aff">
<path fill="#59383a" opacity="1.00" d=" M 33.59 86.07 C 33.86 86.61 34.39 87.68 34.65 88.22 C 34.29 88.37 33.57 88.66 33.21 88.81 C 33.31 88.12 33.50 86.76 33.59 86.07 Z" />
<path fill="#59383a" opacity="1.00" d=" M 30.03 89.38 C 30.83 89.24 32.42 88.95 33.21 88.81 C 32.02 91.80 32.91 94.92 35.91 96.36 C 36.18 96.49 36.73 96.74 37.00 96.87 C 38.26 102.41 40.86 107.49 43.80 112.31 C 47.52 118.01 51.74 123.67 57.75 127.11 C 59.74 128.06 62.03 127.62 64.12 127.35 C 65.18 126.77 66.23 126.19 67.27 125.58 C 67.38 125.52 67.59 125.38 67.70 125.32 C 68.16 124.92 69.09 124.12 69.55 123.72 C 72.68 119.94 75.27 115.62 76.65 110.89 C 77.36 109.05 75.85 107.67 74.68 106.53 C 71.35 110.62 71.44 116.44 67.74 120.34 C 68.43 115.07 71.46 110.46 71.99 105.13 C 72.58 104.85 73.75 104.27 74.33 103.98 C 76.16 105.36 77.72 107.30 79.98 107.96 C 83.37 108.08 86.64 107.00 89.98 106.64 C 88.85 108.62 86.49 108.98 84.59 109.85 C 84.43 110.39 84.12 111.47 83.97 112.01 C 82.22 112.30 80.44 112.30 78.68 112.13 C 77.02 117.48 74.47 122.52 71.01 126.93 C 69.71 128.51 67.50 128.64 65.69 129.22 L 65.78 128.09 C 65.42 128.29 64.68 128.70 64.32 128.90 C 59.07 131.01 54.34 127.68 50.41 124.60 C 44.68 117.16 39.37 109.33 35.29 100.86 C 33.33 97.10 29.59 94.03 30.03 89.38 Z" />
<path fill="#59383a" opacity="1.00" d=" M 41.86 102.33 C 43.11 102.46 44.37 102.60 45.62 102.84 C 44.63 106.15 47.76 108.19 49.32 110.68 C 51.90 114.70 56.41 116.78 59.62 120.22 C 61.99 120.70 64.34 121.27 66.69 121.85 L 65.61 123.33 C 65.18 123.22 64.31 123.00 63.87 122.89 C 61.23 122.21 58.57 121.67 55.89 121.18 C 53.89 116.98 49.62 114.68 46.97 110.98 C 44.81 108.38 43.37 105.32 41.86 102.33 Z" />
</g>
<g id="#b08620ff">
<path fill="#b08620" opacity="1.00" d=" M 38.35 85.85 C 39.61 86.90 41.01 87.87 41.80 89.36 C 40.76 92.42 39.79 96.08 35.91 96.36 C 32.91 94.92 32.02 91.80 33.21 88.81 C 33.57 88.66 34.29 88.37 34.65 88.22 C 35.88 87.42 37.12 86.64 38.35 85.85 Z" />
<path fill="#b08620" opacity="1.00" d=" M 63.87 122.89 C 64.31 123.00 65.18 123.22 65.61 123.33 C 66.17 124.08 66.72 124.83 67.27 125.58 C 66.23 126.19 65.18 126.77 64.12 127.35 C 64.04 125.86 63.95 124.37 63.87 122.89 Z" />
<path fill="#b08620" opacity="1.00" d=" M 67.70 125.32 C 68.16 124.92 69.09 124.12 69.55 123.72 C 69.09 124.12 68.16 124.92 67.70 125.32 Z" />
<path fill="#b08620" opacity="1.00" d=" M 67.27 125.58 C 67.38 125.52 67.59 125.38 67.70 125.32 C 67.59 125.38 67.38 125.52 67.27 125.58 Z" />
</g>
<g id="#7f631aff">
<path fill="#7f631a" opacity="1.00" d=" M 35.91 96.36 C 39.79 96.08 40.76 92.42 41.80 89.36 C 41.93 89.99 42.20 91.24 42.33 91.86 L 42.30 93.19 L 41.99 94.03 C 41.51 95.21 41.18 96.46 41.37 97.74 C 41.61 98.22 42.10 99.19 42.34 99.67 C 42.22 100.34 41.98 101.66 41.86 102.33 C 40.90 100.82 39.95 99.31 39.05 97.77 C 38.54 97.54 37.52 97.09 37.00 96.87 C 36.73 96.74 36.18 96.49 35.91 96.36 Z" />
</g>
<g id="#a0ccdaff">
<path fill="#a0ccda" opacity="1.00" d=" M 41.99 94.03 C 47.83 95.98 53.99 94.26 59.97 94.86 C 63.84 94.91 67.38 97.12 71.28 96.70 C 73.69 96.49 76.12 96.23 78.54 96.50 C 77.85 96.87 76.48 97.60 75.80 97.97 C 73.85 98.20 71.91 98.47 70.03 99.04 C 66.65 98.48 63.34 97.56 60.06 96.58 C 54.19 99.45 47.60 98.25 41.37 97.74 C 41.18 96.46 41.51 95.21 41.99 94.03 Z" />
</g>
<g id="#cdefa8ff">
<path fill="#cdefa8" opacity="1.00" d=" M 41.37 97.74 C 47.60 98.25 54.19 99.45 60.06 96.58 C 63.34 97.56 66.65 98.48 70.03 99.04 C 68.47 99.79 66.99 100.67 65.51 101.56 C 64.06 101.75 62.61 102.02 61.17 102.27 C 54.84 103.35 47.80 103.64 42.34 99.67 C 42.10 99.19 41.61 98.22 41.37 97.74 Z" />
</g>
<g id="#af892aff">
<path fill="#af892a" opacity="1.00" d=" M 37.00 96.87 C 37.52 97.09 38.54 97.54 39.05 97.77 C 39.95 99.31 40.90 100.82 41.86 102.33 C 43.37 105.32 44.81 108.38 46.97 110.98 C 49.62 114.68 53.89 116.98 55.89 121.18 C 58.57 121.67 61.23 122.21 63.87 122.89 C 63.95 124.37 64.04 125.86 64.12 127.35 C 62.03 127.62 59.74 128.06 57.75 127.11 C 51.74 123.67 47.52 118.01 43.80 112.31 C 40.86 107.49 38.26 102.41 37.00 96.87 Z" />
</g>
<g id="#d0ecacff">
<path fill="#d0ecac" opacity="1.00" d=" M 70.03 99.04 C 71.91 98.47 73.85 98.20 75.80 97.97 C 76.33 98.16 77.38 98.55 77.90 98.75 C 77.72 100.03 77.55 101.32 77.42 102.61 C 79.32 103.33 81.29 104.01 83.37 103.90 C 83.83 103.74 84.74 103.41 85.20 103.25 C 86.95 102.64 88.67 101.95 90.41 101.29 C 90.93 103.10 90.82 104.94 89.98 106.64 C 86.64 107.00 83.37 108.08 79.98 107.96 C 77.72 107.30 76.16 105.36 74.33 103.98 C 71.79 102.10 68.55 101.82 65.51 101.56 C 66.99 100.67 68.47 99.79 70.03 99.04 Z" />
</g>
<g id="#9a3c26ff">
<path fill="#9a3c26" opacity="1.00" d=" M 78.31 101.86 C 79.25 97.11 85.18 96.67 88.19 99.77 C 86.77 100.90 85.35 102.02 83.96 103.19 L 85.20 103.25 C 84.74 103.41 83.83 103.74 83.37 103.90 C 81.69 103.21 80.00 102.53 78.31 101.86 Z" />
</g>
<g id="#0f0902ff">
<path fill="#0f0902" opacity="1.00" d=" M 42.34 99.67 C 47.80 103.64 54.84 103.35 61.17 102.27 C 60.20 103.26 59.07 103.99 57.78 104.48 C 53.68 104.32 49.59 103.87 45.62 102.84 C 44.37 102.60 43.11 102.46 41.86 102.33 C 41.98 101.66 42.22 100.34 42.34 99.67 Z" />
<path fill="#0f0902" opacity="1.00" d=" M 83.97 112.01 C 84.12 111.47 84.43 110.39 84.59 109.85 C 85.63 115.86 85.37 121.97 85.70 128.03 C 86.00 128.43 86.60 129.24 86.89 129.64 C 93.47 127.90 98.83 122.91 105.34 120.86 C 108.94 120.78 111.28 124.03 113.78 126.15 L 114.67 127.07 C 111.64 125.41 108.88 123.32 106.06 121.35 C 96.10 126.02 86.67 131.71 77.16 137.23 C 76.12 137.79 75.07 138.36 74.02 138.93 C 73.88 138.76 73.60 138.42 73.47 138.26 C 76.78 135.98 80.32 134.06 83.73 131.93 C 85.40 125.41 84.66 118.61 83.97 112.01 Z" />
</g>
<g id="#5d1722ff">
<path fill="#5d1722" opacity="1.00" d=" M 61.17 102.27 C 62.61 102.02 64.06 101.75 65.51 101.56 C 68.55 101.82 71.79 102.10 74.33 103.98 C 73.75 104.27 72.58 104.85 71.99 105.13 C 70.05 106.71 68.22 108.62 67.38 111.02 C 66.92 114.52 67.31 118.08 66.88 121.59 C 64.43 119.33 67.65 115.25 65.23 112.82 C 62.81 109.98 59.88 107.59 57.78 104.48 C 59.07 103.99 60.20 103.26 61.17 102.27 Z" />
</g>
<g id="#5a3872ff">
<path fill="#5a3872" opacity="1.00" d=" M 45.62 102.84 C 49.59 103.87 53.68 104.32 57.78 104.48 C 59.88 107.59 62.81 109.98 65.23 112.82 C 67.65 115.25 64.43 119.33 66.88 121.59 C 66.83 121.66 66.74 121.79 66.69 121.85 C 64.34 121.27 61.99 120.70 59.62 120.22 C 56.41 116.78 51.90 114.70 49.32 110.68 C 47.76 108.19 44.63 106.15 45.62 102.84 Z" />
</g>
<g id="#673a6cff">
<path fill="#673a6c" opacity="1.00" d=" M 67.38 111.02 C 68.22 108.62 70.05 106.71 71.99 105.13 C 71.46 110.46 68.43 115.07 67.74 120.34 C 67.52 120.65 67.09 121.28 66.88 121.59 C 67.31 118.08 66.92 114.52 67.38 111.02 Z" />
</g>
<g id="#aa862fff">
<path fill="#aa862f" opacity="1.00" d=" M 67.74 120.34 C 71.44 116.44 71.35 110.62 74.68 106.53 C 75.85 107.67 77.36 109.05 76.65 110.89 C 75.27 115.62 72.68 119.94 69.55 123.72 C 69.09 124.12 68.16 124.92 67.70 125.32 C 67.59 125.38 67.38 125.52 67.27 125.58 C 66.72 124.83 66.17 124.08 65.61 123.33 L 66.69 121.85 C 66.74 121.79 66.83 121.66 66.88 121.59 C 67.09 121.28 67.52 120.65 67.74 120.34 Z" />
</g>
<g id="#391526ff">
<path fill="#391526" opacity="1.00" d=" M 0.83 150.99 C 0.85 137.69 0.79 124.12 4.82 111.29 C 5.07 111.86 5.57 113.02 5.82 113.60 C 4.93 119.01 3.41 124.29 2.61 129.71 C 1.09 140.09 1.38 150.64 2.09 161.07 C 2.20 166.13 6.00 169.84 8.34 174.00 L 6.29 174.00 C 0.57 167.70 1.83 158.77 0.83 150.99 Z" />
</g>
<g id="#999999ff">
<path fill="#999999" opacity="1.00" d=" M 32.59 122.35 C 32.43 120.86 33.68 119.82 34.25 118.58 C 36.15 121.17 38.87 122.91 41.31 124.92 C 40.83 124.99 39.86 125.12 39.38 125.18 C 40.19 126.35 40.98 127.52 41.77 128.70 C 38.02 127.77 34.97 125.29 32.59 122.35 Z" />
</g>
<g id="#b4babcff">
<path fill="#b4babc" opacity="1.00" d=" M 34.25 118.58 C 36.62 117.60 37.95 120.28 39.74 121.25 C 49.40 128.03 59.66 133.97 70.29 139.10 C 68.81 141.89 67.05 144.62 64.82 146.87 C 60.86 146.23 57.48 143.79 53.87 142.18 C 45.84 137.72 37.87 133.10 30.37 127.80 C 28.43 126.48 26.28 125.35 24.83 123.45 C 27.21 122.87 29.58 122.25 31.95 121.60 L 32.59 122.35 C 34.97 125.29 38.02 127.77 41.77 128.70 C 40.98 127.52 40.19 126.35 39.38 125.18 C 39.86 125.12 40.83 124.99 41.31 124.92 C 38.87 122.91 36.15 121.17 34.25 118.58 M 28.61 123.57 C 29.55 125.21 30.98 126.44 32.59 127.38 C 35.43 129.08 38.03 131.40 41.36 132.09 C 40.36 130.19 38.35 129.31 36.64 128.20 C 33.98 126.62 31.75 124.23 28.61 123.57 M 56.46 140.80 C 58.15 141.93 60.02 142.80 62.08 142.94 C 61.41 141.94 60.55 141.09 59.58 140.38 C 59.67 140.02 59.83 139.30 59.91 138.93 C 58.37 138.69 57.39 139.77 56.46 140.80 Z" />
</g>
<g id="#b6b9bbff">
<path fill="#b6b9bb" opacity="1.00" d=" M 77.16 137.23 C 86.67 131.71 96.10 126.02 106.06 121.35 C 108.88 123.32 111.64 125.41 114.67 127.07 C 113.54 127.84 112.41 128.62 111.28 129.40 C 111.46 129.84 111.82 130.70 112.00 131.14 C 101.16 136.16 90.90 142.30 80.50 148.12 C 80.59 147.63 80.79 146.64 80.89 146.15 C 90.09 140.82 99.36 135.56 107.88 129.16 C 101.30 131.66 96.50 137.57 89.70 139.43 C 89.97 138.79 90.50 137.50 90.77 136.85 C 86.53 139.41 82.22 142.03 77.45 143.49 C 78.93 140.32 82.45 139.21 85.09 137.26 C 82.24 137.88 79.43 138.63 76.61 139.37 C 76.75 138.83 77.03 137.76 77.16 137.23 M 98.15 127.75 C 97.97 128.19 97.62 129.09 97.44 129.53 C 96.33 129.72 95.22 129.91 94.11 130.10 C 93.27 131.48 92.45 132.87 91.67 134.30 C 96.48 132.43 101.05 129.72 105.09 126.52 C 102.68 125.88 100.45 127.22 98.15 127.75 Z" />
</g>
<g id="#454fccff">
<path fill="#454fcc" opacity="1.00" d=" M 22.37 123.82 C 26.10 125.95 29.40 128.74 32.91 131.20 C 41.53 137.59 51.21 142.34 60.96 146.72 C 62.88 147.29 63.75 148.77 63.54 150.72 C 63.25 152.29 62.97 153.86 62.70 155.43 C 59.68 156.45 58.45 153.06 56.45 151.55 C 54.71 151.00 53.08 152.11 51.56 152.79 C 51.72 153.18 52.04 153.96 52.19 154.35 C 53.87 158.18 49.82 161.77 46.37 162.60 C 42.54 163.58 39.76 160.07 36.86 158.23 C 33.57 155.44 29.10 153.71 27.12 149.66 C 24.70 145.17 24.84 139.93 23.70 135.06 C 22.87 131.37 22.41 127.61 22.37 123.82 Z" />
</g>
<g id="#7d807bff">
<path fill="#7d807b" opacity="1.00" d=" M 28.61 123.57 C 31.75 124.23 33.98 126.62 36.64 128.20 C 38.35 129.31 40.36 130.19 41.36 132.09 C 38.03 131.40 35.43 129.08 32.59 127.38 C 30.98 126.44 29.55 125.21 28.61 123.57 Z" />
</g>
<g id="#828782ff">
<path fill="#828782" opacity="1.00" d=" M 98.15 127.75 C 100.45 127.22 102.68 125.88 105.09 126.52 C 101.05 129.72 96.48 132.43 91.67 134.30 C 92.45 132.87 93.27 131.48 94.11 130.10 C 95.22 129.91 96.33 129.72 97.44 129.53 C 97.62 129.09 97.97 128.19 98.15 127.75 Z" />
</g>
<g id="#807b79ff">
<path fill="#807b79" opacity="1.00" d=" M 114.67 127.07 C 115.46 127.72 116.29 128.33 117.12 128.95 C 115.41 129.69 113.71 130.41 112.00 131.14 C 111.82 130.70 111.46 129.84 111.28 129.40 C 112.41 128.62 113.54 127.84 114.67 127.07 Z" />
</g>
<g id="#4550cbff">
<path fill="#4550cb" opacity="1.00" d=" M 100.54 138.50 C 107.52 135.02 114.33 131.13 121.55 128.13 C 120.22 131.69 117.70 134.56 115.76 137.77 C 109.69 149.10 105.24 161.34 102.98 174.00 L 77.60 174.00 C 78.35 168.80 78.86 163.52 80.55 158.51 C 81.31 156.48 80.92 154.28 80.87 152.18 C 81.31 150.98 81.32 149.39 82.51 148.65 C 88.21 144.75 94.49 141.81 100.54 138.50 Z" />
</g>
<g id="#999897ff">
<path fill="#999897" opacity="1.00" d=" M 74.02 138.93 C 75.07 138.36 76.12 137.79 77.16 137.23 C 77.03 137.76 76.75 138.83 76.61 139.37 C 79.43 138.63 82.24 137.88 85.09 137.26 C 82.45 139.21 78.93 140.32 77.45 143.49 C 76.38 141.91 75.24 140.39 74.02 138.93 Z" />
</g>
<g id="#7c8278ff">
<path fill="#7c8278" opacity="1.00" d=" M 56.46 140.80 C 57.39 139.77 58.37 138.69 59.91 138.93 C 59.83 139.30 59.67 140.02 59.58 140.38 C 60.55 141.09 61.41 141.94 62.08 142.94 C 60.02 142.80 58.15 141.93 56.46 140.80 Z" />
</g>
<g id="#a8a89bff">
<path fill="#a8a89b" opacity="1.00" d=" M 87.91 140.18 C 88.18 139.88 88.72 139.29 88.99 139.00 L 89.70 139.43 L 89.46 140.16 C 89.07 140.16 88.30 140.17 87.91 140.18 Z" />
<path fill="#a8a89b" opacity="1.00" d=" M 83.00 142.88 C 83.69 140.93 85.92 139.87 87.91 140.18 C 86.86 141.83 85.11 143.36 83.00 142.88 Z" />
</g>
<g id="#8e8b8dff">
<path fill="#8e8b8d" opacity="1.00" d=" M 65.79 148.60 C 67.13 145.12 69.60 142.16 72.01 139.39 L 72.99 139.23 C 75.80 141.76 77.67 145.10 79.82 148.16 C 75.61 150.91 70.32 149.84 65.79 148.60 Z" />
</g>
<g id="#adaeabff">
<path fill="#adaeab" opacity="1.00" d=" M 79.32 145.02 C 79.13 143.21 81.64 142.85 83.00 142.88 C 82.35 144.10 80.83 145.87 79.32 145.02 Z" />
</g>
<g id="#282fa2ff">
<path fill="#282fa2" opacity="1.00" d=" M 64.38 150.44 C 69.14 150.21 73.92 150.56 78.67 150.81 C 79.18 151.27 80.22 152.19 80.73 152.65 C 80.33 153.96 79.91 155.25 79.44 156.54 C 74.28 156.67 69.12 156.66 63.96 156.74 C 64.17 154.65 64.29 152.54 64.38 150.44 Z" />
</g>
<g id="#4350bdff">
<path fill="#4350bd" opacity="1.00" d=" M 51.56 152.79 C 53.08 152.11 54.71 151.00 56.45 151.55 C 58.45 153.06 59.68 156.45 62.70 155.43 C 61.62 160.87 61.51 166.42 61.46 171.95 C 58.61 171.37 53.09 170.95 53.47 167.06 C 55.93 163.55 58.35 159.81 57.59 155.28 C 56.02 153.82 54.16 153.10 52.19 154.35 C 52.04 153.96 51.72 153.18 51.56 152.79 Z" />
</g>
<g id="#192284ff">
<path fill="#192284" opacity="1.00" d=" M 63.54 150.72 L 64.38 150.44 C 64.29 152.54 64.17 154.65 63.96 156.74 C 63.82 158.09 63.68 159.44 63.60 160.80 L 63.57 161.62 C 63.56 162.92 63.54 164.21 63.51 165.51 C 63.30 167.72 62.88 169.91 62.39 172.08 L 61.46 171.95 C 61.51 166.42 61.62 160.87 62.70 155.43 C 62.97 153.86 63.25 152.29 63.54 150.72 Z" />
<path fill="#192284" opacity="1.00" d=" M 80.73 152.65 L 80.87 152.18 C 80.92 154.28 81.31 156.48 80.55 158.51 C 78.86 163.52 78.35 168.80 77.60 174.00 L 76.97 174.00 L 76.48 173.78 C 76.45 170.97 76.61 168.18 76.85 165.39 C 77.26 164.09 77.64 162.79 77.99 161.48 L 77.45 160.73 C 78.14 159.34 78.83 157.96 79.44 156.54 C 79.91 155.25 80.33 153.96 80.73 152.65 Z" />
</g>
<g id="#99833aff">
<path fill="#99833a" opacity="1.00" d=" M 63.96 156.74 C 69.12 156.66 74.28 156.67 79.44 156.54 C 78.83 157.96 78.14 159.34 77.45 160.73 C 72.85 160.16 68.22 160.96 63.60 160.80 C 63.68 159.44 63.82 158.09 63.96 156.74 Z" />
<path fill="#99833a" opacity="1.00" d=" M 63.57 161.62 C 68.38 161.59 73.18 161.55 77.99 161.48 C 77.64 162.79 77.26 164.09 76.85 165.39 C 72.40 165.23 67.95 165.37 63.51 165.51 C 63.54 164.21 63.56 162.92 63.57 161.62 Z" />
</g>
<g id="#2a32a9ff">
<path fill="#2a32a9" opacity="1.00" d=" M 63.60 160.80 C 68.22 160.96 72.85 160.16 77.45 160.73 L 77.99 161.48 C 73.18 161.55 68.38 161.59 63.57 161.62 L 63.60 160.80 Z" />
<path fill="#2a32a9" opacity="1.00" d=" M 63.51 165.51 C 67.95 165.37 72.40 165.23 76.85 165.39 C 76.61 168.18 76.45 170.97 76.48 173.78 C 74.67 173.02 72.93 172.00 70.97 171.66 C 68.11 171.80 65.26 172.80 62.39 172.08 C 62.88 169.91 63.30 167.72 63.51 165.51 Z" />
</g>
</svg>
