<svg xmlns="http://www.w3.org/2000/svg" viewBox="0 -0.5 32 29" shape-rendering="crispEdges"><metadata>Made with Pixels to Svg https://codepen.io/shshaw/pen/XbxvNj</metadata><path stroke="#030303" d="M10 0h11M7 1h3M22 1h2M5 2h2M4 3h1M3 4h1M2 5h1M1 6h1M1 7h1M0 8h1M0 9h1M0 10h1M0 11h1M0 12h1M0 13h1M1 14h1M1 15h1M2 16h1M2 17h1"/><path stroke="#000" d="M21 0h1M24 1h1M30 7h1M7 9h5M7 10h5M1 19h1M25 19h1M1 20h1M6 20h1M25 20h2M1 21h1M25 21h1M2 22h1M7 22h1M2 23h1M4 25h1M27 25h1M25 26h1M7 27h3"/><path stroke="#4ccdfa" d="M10 1h12M7 2h18M5 3h22M4 4h24M3 5h26M4 24h6M23 24h5M5 25h7M21 25h6M7 26h18M10 27h12"/><path stroke="#050305" d="M25 2h1"/><path stroke="#030000" d="M26 2h1M27 3h1M29 5h1M30 6h1M21 9h5M5 10h1M21 10h5M5 11h8M19 11h10M3 12h5M10 12h3M19 12h3M24 12h5M3 13h5M10 13h3M19 13h3M24 13h5M5 14h7M21 14h3M25 14h3M30 14h1M6 15h6M15 15h2M20 15h5M30 15h1M10 16h1M15 16h2M8 17h2M14 17h4M22 17h2M29 17h1M14 18h4M30 18h1M6 19h2M14 19h4M26 19h1M30 19h1M4 20h2M8 20h2M24 20h1M27 20h1M30 20h1M8 21h1M10 21h13M24 21h1M30 21h1M8 22h1M22 22h1M24 22h1M8 23h2M15 23h1M19 23h1M22 23h1M29 23h1M15 24h1M19 24h1M21 24h2M12 25h9"/><path stroke="#030002" d="M28 4h1M31 8h1M20 9h1M31 9h1M12 10h1M26 10h1M31 10h1M31 11h1M31 12h1M31 13h1M4 14h1M20 14h1M24 14h1M21 16h1M29 16h1M25 18h1M12 22h1M15 22h1M19 22h1M12 23h1M23 23h1M12 24h1"/><path stroke="#f9a8b7" d="M2 6h27M2 7h28M1 8h30M1 9h5M12 9h8M26 9h5M1 10h3M13 10h6M28 10h3M1 11h2M13 11h6M29 11h2M2 18h4M7 18h7M18 18h7M26 18h4M2 19h4M8 19h6M18 19h7M27 19h3M2 20h2M10 20h13M28 20h2M2 21h4M26 21h4M3 22h4M25 22h4M3 23h5M24 23h5"/><path stroke="#050303" d="M29 6h1"/><path stroke="#000003" d="M6 9h1M6 10h1M3 24h1M10 24h1M22 27h1"/><path stroke="#040002" d="M4 10h1M19 10h1M3 11h1"/><path stroke="#000300" d="M20 10h1"/><path stroke="#030200" d="M27 10h1"/><path stroke="#020300" d="M4 11h1"/><path stroke="#fff" d="M1 12h2M8 12h2M13 12h6M22 12h2M29 12h2M1 13h2M8 13h2M13 13h6M22 13h2M29 13h2M2 14h2M12 14h8M28 14h2M2 15h2M5 15h1M12 15h3M17 15h3M25 15h5M3 16h7M11 16h4M17 16h4M22 16h7M24 17h5M7 21h1M9 21h1M23 21h1M9 22h3M13 22h2M16 22h3M20 22h2M23 22h1M10 23h2M13 23h2M16 23h3M20 23h2M13 24h2M16 24h3M20 24h1"/><path stroke="#fffdfe" d="M4 15h1"/><path stroke="#fdffff" d="M3 17h5M18 17h4"/><path stroke="#fbfdfd" d="M10 17h4"/><path stroke="#020202" d="M1 18h1M6 18h1"/><path stroke="#fffffd" d="M7 20h1"/><path stroke="#060002" d="M23 20h1M29 22h1"/><path stroke="#000200" d="M6 21h1M26 26h1"/><path stroke="#000002" d="M11 24h1M11 28h11"/><path stroke="#000204" d="M28 24h1"/><path stroke="#030003" d="M5 26h1"/><path stroke="#050003" d="M6 26h1"/><path stroke="#030004" d="M23 27h2"/><path stroke="#000006" d="M10 28h1"/></svg>