<?xml version="1.0" encoding="UTF-8" ?>
<!DOCTYPE svg PUBLIC "-//W3C//DTD SVG 1.1//EN" "http://www.w3.org/Graphics/SVG/1.1/DTD/svg11.dtd">
<svg width="128pt" height="111pt" viewBox="0 0 128 111" version="1.1" xmlns="http://www.w3.org/2000/svg">
<g id="#f4900cff">
<path fill="#f4900c" opacity="1.00" d=" M 99.76 0.00 L 99.91 0.00 C 103.92 2.17 107.75 5.00 110.19 8.93 C 111.97 11.71 112.42 15.04 113.03 18.21 C 112.98 18.87 112.87 20.19 112.82 20.85 C 112.64 24.18 111.84 27.42 111.21 30.67 C 110.92 33.16 111.19 36.12 113.62 37.48 C 116.64 38.64 120.47 38.14 122.44 35.35 C 124.59 32.34 126.24 28.61 126.17 24.86 C 126.94 26.50 127.53 28.22 128.00 29.97 L 128.00 37.63 C 127.87 40.55 127.33 43.45 126.29 46.19 C 124.96 48.67 123.76 51.22 122.34 53.66 C 121.42 55.10 120.38 56.47 119.25 57.75 C 118.57 53.49 117.74 49.22 116.05 45.22 C 115.03 47.62 114.44 50.82 111.61 51.73 C 109.20 52.96 105.73 51.61 105.16 48.88 C 104.18 44.65 104.50 39.90 101.77 36.26 C 99.84 33.32 96.52 31.87 93.44 30.46 C 94.20 34.20 95.44 38.19 93.96 41.92 C 92.62 45.77 88.39 48.65 84.29 47.85 C 80.88 46.99 80.67 42.97 79.76 40.21 C 75.25 44.99 73.50 51.39 72.77 57.76 C 62.56 47.40 60.91 29.77 69.29 17.83 C 69.83 17.09 70.90 15.61 71.43 14.88 L 70.97 17.81 C 70.28 22.24 70.49 27.39 74.31 30.42 C 77.13 31.27 80.56 30.47 82.05 27.73 C 83.40 25.55 82.89 22.80 81.99 20.54 C 81.76 19.62 81.53 18.70 81.31 17.78 C 80.04 12.56 82.29 7.14 86.23 3.67 C 85.75 7.56 85.93 12.13 89.08 14.94 C 92.11 17.84 97.71 17.85 100.20 14.23 C 103.33 10.01 101.85 4.34 99.76 0.00 Z" />
</g>
<g id="#eeeeeeff">
<path fill="#eeeeee" opacity="1.00" d=" M 3.88 22.10 C 7.30 18.67 12.19 17.37 16.93 17.78 C 26.63 24.64 36.37 31.42 46.10 38.23 C 46.11 31.42 46.10 24.61 46.10 17.80 C 48.61 17.80 51.12 17.80 53.63 17.80 C 53.61 29.74 53.64 41.68 53.61 53.61 C 35.74 53.65 17.87 53.60 0.00 53.64 L 0.00 46.11 C 6.53 46.11 13.06 46.09 19.59 46.12 C 13.05 41.58 6.56 36.97 0.00 32.45 L 0.00 30.94 C 0.14 30.21 0.41 28.75 0.54 28.02 L 1.59 28.77 C 8.92 33.99 16.35 39.06 23.67 44.29 C 27.71 47.70 33.40 45.48 38.18 46.11 C 26.74 38.11 15.32 30.09 3.88 22.10 Z" />
<path fill="#eeeeee" opacity="1.00" d=" M 74.37 17.81 C 76.68 17.81 79.00 17.80 81.31 17.78 C 81.53 18.70 81.76 19.62 81.99 20.54 C 81.63 22.91 81.29 25.39 82.05 27.73 C 80.56 30.47 77.13 31.27 74.31 30.42 C 74.40 26.22 74.38 22.01 74.37 17.81 Z" />
<path fill="#eeeeee" opacity="1.00" d=" M 113.03 18.21 C 113.91 18.19 115.66 18.15 116.54 18.13 C 115.54 19.32 114.21 20.19 112.82 20.85 C 112.87 20.19 112.98 18.87 113.03 18.21 Z" />
<path fill="#eeeeee" opacity="1.00" d=" M 123.87 21.88 C 124.69 22.82 125.47 23.81 126.17 24.86 C 126.24 28.61 124.59 32.34 122.44 35.35 C 120.47 38.14 116.64 38.64 113.62 37.48 C 111.19 36.12 110.92 33.16 111.21 30.67 C 115.49 27.84 119.65 24.81 123.87 21.88 Z" />
<path fill="#eeeeee" opacity="1.00" d=" M 126.29 46.19 C 126.72 46.13 127.57 46.01 128.00 45.95 L 128.00 53.61 C 126.11 53.63 124.23 53.64 122.34 53.66 C 123.76 51.22 124.96 48.67 126.29 46.19 Z" />
<path fill="#eeeeee" opacity="1.00" d=" M 0.00 74.38 C 17.87 74.38 35.74 74.36 53.61 74.39 C 53.64 86.32 53.61 98.26 53.63 110.20 C 51.12 110.20 48.61 110.20 46.10 110.20 C 46.10 103.39 46.11 96.58 46.10 89.77 C 36.37 96.59 26.62 103.36 16.93 110.22 C 14.87 110.23 12.82 110.09 10.78 109.84 C 22.48 101.41 34.42 93.32 46.16 84.94 C 46.14 84.18 46.10 82.66 46.09 81.90 C 43.08 82.11 39.61 81.05 37.03 83.06 C 26.07 90.77 15.08 98.43 4.12 106.13 C 1.92 103.69 0.43 100.67 0.00 97.39 L 0.00 95.62 C 6.49 90.99 13.05 86.46 19.58 81.88 C 13.05 81.91 6.53 81.88 0.00 81.90 L 0.00 74.38 Z" />
<path fill="#eeeeee" opacity="1.00" d=" M 74.39 74.39 C 92.26 74.35 110.13 74.40 128.00 74.36 L 128.00 81.89 C 121.47 81.89 114.94 81.91 108.40 81.88 C 114.95 86.41 121.44 91.04 128.00 95.55 L 128.00 97.07 C 127.86 97.79 127.59 99.24 127.45 99.96 L 126.27 99.13 C 118.98 93.96 111.60 88.90 104.32 83.70 C 100.29 80.29 94.59 82.52 89.81 81.89 C 101.26 89.89 112.68 97.91 124.12 105.90 C 120.70 109.33 115.82 110.63 111.07 110.22 C 101.37 103.37 91.63 96.58 81.90 89.78 C 81.89 96.58 81.90 103.39 81.90 110.20 C 79.39 110.20 76.88 110.20 74.37 110.20 C 74.39 98.26 74.35 86.32 74.39 74.39 Z" />
</g>
<g id="#00247dff">
<path fill="#00247d" opacity="1.00" d=" M 16.93 17.78 C 26.66 17.82 36.38 17.79 46.10 17.80 C 46.10 24.61 46.11 31.42 46.10 38.23 C 36.37 31.42 26.63 24.64 16.93 17.78 Z" />
<path fill="#00247d" opacity="1.00" d=" M 81.99 20.54 C 82.89 22.80 83.40 25.55 82.05 27.73 C 81.29 25.39 81.63 22.91 81.99 20.54 Z" />
<path fill="#00247d" opacity="1.00" d=" M 0.00 32.45 C 6.56 36.97 13.05 41.58 19.59 46.12 C 13.06 46.09 6.53 46.11 0.00 46.11 L 0.00 32.45 Z" />
<path fill="#00247d" opacity="1.00" d=" M 126.29 46.19 C 127.33 43.45 127.87 40.55 128.00 37.63 L 128.00 45.95 C 127.57 46.01 126.72 46.13 126.29 46.19 Z" />
<path fill="#00247d" opacity="1.00" d=" M 0.00 81.90 C 6.53 81.88 13.05 81.91 19.58 81.88 C 13.05 86.46 6.49 90.99 0.00 95.62 L 0.00 81.90 Z" />
<path fill="#00247d" opacity="1.00" d=" M 108.40 81.88 C 114.94 81.91 121.47 81.89 128.00 81.89 L 128.00 95.55 C 121.44 91.04 114.95 86.41 108.40 81.88 Z" />
<path fill="#00247d" opacity="1.00" d=" M 16.93 110.22 C 26.62 103.36 36.37 96.59 46.10 89.77 C 46.11 96.58 46.10 103.39 46.10 110.20 C 36.38 110.21 26.65 110.17 16.93 110.22 Z" />
<path fill="#00247d" opacity="1.00" d=" M 81.90 89.78 C 91.63 96.58 101.37 103.37 111.07 110.22 C 101.35 110.18 91.62 110.21 81.90 110.20 C 81.90 103.39 81.89 96.58 81.90 89.78 Z" />
</g>
<g id="#cf1b2bff">
<path fill="#cf1b2b" opacity="1.00" d=" M 53.63 17.80 C 58.85 17.81 64.07 17.78 69.29 17.83 C 60.91 29.77 62.56 47.40 72.77 57.76 C 78.73 64.08 87.33 67.73 96.00 67.76 C 104.69 67.74 113.28 64.06 119.25 57.75 C 120.38 56.47 121.42 55.10 122.34 53.66 C 124.23 53.64 126.11 53.63 128.00 53.61 L 128.00 74.36 C 110.13 74.40 92.26 74.35 74.39 74.39 C 74.35 86.32 74.39 98.26 74.37 110.20 C 67.46 110.20 60.54 110.20 53.63 110.20 C 53.61 98.26 53.64 86.32 53.61 74.39 C 35.74 74.36 17.87 74.38 0.00 74.38 L 0.00 53.64 C 17.87 53.60 35.74 53.65 53.61 53.61 C 53.64 41.68 53.61 29.74 53.63 17.80 Z" />
<path fill="#cf1b2b" opacity="1.00" d=" M 70.97 17.81 C 71.82 17.81 73.52 17.81 74.37 17.81 C 74.38 22.01 74.40 26.22 74.31 30.42 C 70.49 27.39 70.28 22.24 70.97 17.81 Z" />
<path fill="#cf1b2b" opacity="1.00" d=" M 116.54 18.13 C 119.31 18.62 121.78 20.03 123.87 21.88 C 119.65 24.81 115.49 27.84 111.21 30.67 C 111.84 27.42 112.64 24.18 112.82 20.85 C 114.21 20.19 115.54 19.32 116.54 18.13 Z" />
<path fill="#cf1b2b" opacity="1.00" d=" M 0.56 27.92 C 1.40 25.84 2.46 23.84 3.88 22.10 C 15.32 30.09 26.74 38.11 38.18 46.11 C 33.40 45.48 27.71 47.70 23.67 44.29 C 16.35 39.06 8.92 33.99 1.59 28.77 C 1.33 28.56 0.82 28.13 0.56 27.92 Z" />
<path fill="#cf1b2b" opacity="1.00" d=" M 37.03 83.06 C 39.61 81.05 43.08 82.11 46.09 81.90 C 46.10 82.66 46.14 84.18 46.16 84.94 C 34.42 93.32 22.48 101.41 10.78 109.84 C 8.33 109.08 6.06 107.81 4.12 106.13 C 15.08 98.43 26.07 90.77 37.03 83.06 Z" />
<path fill="#cf1b2b" opacity="1.00" d=" M 89.81 81.89 C 94.59 82.52 100.29 80.29 104.32 83.70 C 111.60 88.90 118.98 93.96 126.27 99.13 C 126.57 99.36 127.15 99.81 127.44 100.04 C 126.61 102.14 125.55 104.15 124.12 105.90 C 112.68 97.91 101.26 89.89 89.81 81.89 Z" />
</g>
<g id="#ffcc4dff">
<path fill="#ffcc4d" opacity="1.00" d=" M 93.44 30.46 C 96.52 31.87 99.84 33.32 101.77 36.26 C 104.50 39.90 104.18 44.65 105.16 48.88 C 105.73 51.61 109.20 52.96 111.61 51.73 C 114.44 50.82 115.03 47.62 116.05 45.22 C 117.74 49.22 118.57 53.49 119.25 57.75 C 113.28 64.06 104.69 67.74 96.00 67.76 C 87.33 67.73 78.73 64.08 72.77 57.76 C 73.50 51.39 75.25 44.99 79.76 40.21 C 80.67 42.97 80.88 46.99 84.29 47.85 C 88.39 48.65 92.62 45.77 93.96 41.92 C 95.44 38.19 94.20 34.20 93.44 30.46 Z" />
</g>
</svg>
