<svg xmlns="http://www.w3.org/2000/svg" width="72" height="62" viewBox="0 0 72 62"><path fill="#4b92db" d="M72 54 C72 58.418 68.418 62 64 62 L8 62 C3.582 62 -0 58.418 -0 54 L-0 18 C-0 13.582 3.582 10 8 10 L64 10 C68.418 10 72 13.582 72 18 Z"/><g fill="#fff"><path d="M21.108 31.06 C21.406 30.45 21.894 29.868 22.468 29.434 23.748 28.468 25.148 27.218 25.168 25.574 24.744 26.756 23.456 27.246 22.598 28.054 22.144 28.482 21.798 28.996 21.594 29.53 L21.564 29.506 C21.67 29.032 21.872 28.604 22.008 28.146 22.382 26.894 22.314 25.396 23.534 24.56 22.906 24.72 22.38 25.126 21.91 25.648 20.926 26.738 21.012 28.348 21.142 29.784 21.182 30.228 21.158 30.606 21.108 31.06 Z M27.542 46.522 C26.122 45.376 25.908 43.658 25.274 42.15 24.88 41.214 24.24 40.372 23.556 39.554 24.308 41.056 23.984 42.994 24.958 44.41 25.264 44.854 25.69 45.278 26.082 45.634 L26.064 45.652 C25.708 45.486 25.386 45.238 25.062 44.968 23.356 43.55 20.79 43.368 19.768 41.056 20.044 42.754 21.392 44.258 22.848 45.21 24.232 46.116 26.004 46.014 27.542 46.522 Z"/><path d="M21.138 41.758 C22.1 42.516 23.248 43.108 24.124 43.774 23.952 43.338 23.67 42.936 23.556 42.474 23.04 40.394 23.328 37.988 22.436 36.064 22.602 37.158 22.168 38.124 22.068 39.164 21.986 40.02 22.136 40.85 22.468 41.57 22.566 41.782 22.744 41.974 22.794 42.192 22.474 41.904 22.246 41.534 22.026 41.176 20.992 39.502 18.822 38.412 18.674 36.376 18.6 37.282 18.68 38.244 18.982 39.048 19.402 40.166 20.208 41.026 21.138 41.758 Z M22.598 27.496 C23.28 26.856 24.072 26.382 24.65 25.618 25.344 24.7 25.948 23.678 26.852 22.886 25.62 23.366 24.3 23.856 23.5 25.12 23.034 25.858 22.966 26.732 22.598 27.496 Z M31.206 47.438 C31.464 47.374 31.778 47.394 32.018 47.308 31.022 47.106 30.06 46.804 29.288 46.098 28.18 45.084 27.198 44.004 26.012 43.216 26.94 44.466 27.204 46.28 28.9 46.92 29.2 47.034 29.544 47.052 29.804 47.216 29.478 47.266 29.192 47.166 28.888 47.1 26.702 46.634 24.032 47.234 22.394 45.37 23.016 46.588 24.296 47.55 25.524 47.956 27.43 48.582 29.416 47.882 31.206 47.438 Z"/><path d="M21.448 39.682 L21.54 39.756 C21.442 39.084 21.392 38.36 21.582 37.718 21.872 36.692 22.234 35.694 22.426 34.63 22.574 33.804 22.744 32.876 22.648 32.074 22.538 32.506 22.424 32.932 22.186 33.3 21.286 34.694 20.36 36.33 20.992 38.1 20.978 38.12 20.956 38.144 20.934 38.13 20.68 37.546 20.624 36.88 20.46 36.252 20.024 34.59 18.744 33.2 19.12 31.278 18.922 31.696 18.842 32.166 18.738 32.62 18.516 33.796 18.738 35.042 19.058 36.122 19.454 37.476 20.778 38.444 21.448 39.682 Z"/><path d="M23.114 30.732 C23.412 30.128 23.598 29.446 23.68 28.78 23.57 29.064 23.396 29.326 23.162 29.55 22.168 30.492 20.996 31.422 20.77 32.756 20.738 32.946 20.722 33.142 20.666 33.328 20.622 33.346 20.622 33.298 20.604 33.286 L20.728 31.63 C20.848 30.016 19.998 28.22 20.932 26.798 20.9 26.792 20.882 26.816 20.858 26.83 20.008 27.914 19.442 29.1 19.442 30.554 19.442 32.35 20.476 33.604 20.604 35.292 20.87 33.532 22.348 32.282 23.114 30.732 Z M51.544 36.254 C51.38 36.88 51.324 37.546 51.07 38.132 51.046 38.144 51.026 38.12 51.012 38.102 51.642 36.332 50.718 34.696 49.818 33.302 49.582 32.936 49.468 32.508 49.356 32.076 49.258 32.878 49.43 33.804 49.578 34.632 49.768 35.696 50.132 36.694 50.422 37.72 50.612 38.362 50.562 39.086 50.464 39.758 L50.556 39.684 C51.226 38.446 52.55 37.478 52.95 36.128 53.27 35.048 53.49 33.8 53.27 32.626 53.166 32.172 53.086 31.7 52.888 31.284 53.26 33.202 51.98 34.59 51.544 36.254 Z M46.94 44.968 C46.616 45.238 46.294 45.486 45.938 45.652 L45.92 45.634 C46.314 45.278 46.74 44.854 47.044 44.41 48.02 42.994 47.694 41.056 48.446 39.554 47.762 40.372 47.122 41.214 46.728 42.15 46.094 43.658 45.88 45.376 44.46 46.522 45.996 46.016 47.77 46.116 49.152 45.21 50.606 44.258 51.954 42.754 52.232 41.056 51.212 43.368 48.646 43.548 46.94 44.968 Z"/><path d="M42.198 47.214 C42.458 47.05 42.802 47.03 43.102 46.918 44.798 46.278 45.062 44.464 45.99 43.214 44.804 44.002 43.822 45.082 42.714 46.096 41.942 46.802 40.982 47.104 39.984 47.306 40.224 47.394 40.536 47.374 40.796 47.436 42.586 47.88 44.572 48.582 46.478 47.952 47.708 47.546 48.988 46.586 49.608 45.366 47.97 47.23 45.3 46.63 43.114 47.096 42.81 47.164 42.524 47.264 42.198 47.214 Z M49.208 42.192 C49.258 41.976 49.436 41.782 49.534 41.57 49.866 40.852 50.016 40.02 49.934 39.164 49.834 38.124 49.4 37.158 49.566 36.064 48.674 37.988 48.962 40.394 48.446 42.474 48.332 42.934 48.052 43.338 47.878 43.774 48.754 43.108 49.902 42.516 50.864 41.758 51.794 41.026 52.6 40.166 53.02 39.048 53.322 38.242 53.4 37.282 53.326 36.376 53.178 38.414 51.01 39.502 49.974 41.176 49.756 41.534 49.528 41.904 49.208 42.192 Z M51.274 31.632 L51.398 33.288 C51.38 33.3 51.38 33.35 51.336 33.33 51.28 33.146 51.264 32.95 51.232 32.758 51.006 31.424 49.834 30.494 48.84 29.552 48.604 29.328 48.432 29.066 48.322 28.782 48.404 29.448 48.59 30.128 48.888 30.734 49.654 32.284 51.132 33.534 51.396 35.294 51.524 33.606 52.558 32.352 52.558 30.556 52.558 29.102 51.992 27.916 51.142 26.832 51.118 26.82 51.1 26.796 51.068 26.8 52.006 28.222 51.154 30.018 51.274 31.632 Z"/><path d="M49.996 28.148 C50.132 28.606 50.332 29.034 50.44 29.508 L50.41 29.532 C50.208 28.998 49.86 28.484 49.406 28.056 48.55 27.248 47.26 26.758 46.836 25.576 46.856 27.22 48.256 28.468 49.536 29.436 50.11 29.87 50.598 30.452 50.896 31.062 50.846 30.608 50.824 30.23 50.864 29.786 50.996 28.35 51.08 26.74 50.096 25.65 49.626 25.128 49.098 24.722 48.472 24.562 49.688 25.398 49.622 26.896 49.996 28.148 Z M42.45 48.68 C40.978 48.07 39.48 47.258 37.802 47.258 37.192 47.258 36.588 47.362 36 47.538 35.412 47.36 34.81 47.258 34.198 47.258 32.52 47.258 31.022 48.07 29.55 48.68 28.218 49.232 26.452 49.124 25.272 48.31 25.856 49.042 26.636 49.494 27.444 49.8 28.942 50.398 30.692 49.94 31.968 49.124 32.886 48.536 33.674 47.704 34.768 47.704 34.964 47.704 35.162 47.734 35.358 47.776 33.82 48.39 32.42 49.466 31.328 50.508 31.528 50.738 31.788 50.952 32.032 51.148 33.248 49.892 34.626 48.54 35.998 47.978 37.372 48.54 38.75 49.892 39.964 51.148 40.208 50.95 40.468 50.736 40.668 50.508 39.578 49.466 38.176 48.392 36.638 47.776 36.836 47.734 37.032 47.704 37.228 47.704 38.322 47.704 39.11 48.536 40.028 49.124 41.304 49.94 43.052 50.398 44.552 49.8 45.358 49.494 46.14 49.044 46.724 48.31 45.55 49.124 43.782 49.232 42.45 48.68 Z"/><path d="M49.404 27.496 C49.036 26.732 48.968 25.858 48.5 25.118 47.7 23.854 46.38 23.364 45.148 22.884 46.052 23.678 46.656 24.698 47.35 25.616 47.93 26.382 48.722 26.856 49.404 27.496 Z M25.132 28.626 L24.994 28.552 C24.188 30.186 23.732 32.022 23.732 33.964 23.732 35.152 23.902 36.312 24.226 37.422 L24.516 37.35 C24.212 36.31 24.046 35.224 24.032 34.114 L26.244 34.114 C26.258 35.04 26.4 35.946 26.662 36.81 L26.948 36.738 C26.692 35.898 26.552 35.016 26.538 34.114 L28.542 34.114 C28.548 34.41 28.584 34.7 28.622 34.99 28.478 35.006 28.34 35.052 28.34 35.052 L28.278 35.254 C28.142 35.28 28.056 35.506 28.056 35.506 27.944 35.544 27.858 35.682 27.896 35.72 27.932 35.758 27.834 35.77 27.834 35.77 L27.834 36.046 27.772 36.134 27.784 36.436 C27.858 36.436 27.846 36.574 27.846 36.574 27.722 36.586 27.746 36.75 27.746 36.75 L27.486 36.838 27.436 36.914 27.114 36.902 27.036 36.982 C27.01 36.902 26.972 36.826 26.948 36.744 L26.662 36.816 C26.67 36.846 26.684 36.874 26.694 36.902 L26.324 36.902 26.3 36.84 26.176 36.814 26.164 36.676 25.978 36.688 25.94 36.764 25.742 36.776 C25.754 36.902 25.544 37.09 25.52 37.04 25.494 36.99 25.358 36.852 25.42 36.826 25.482 36.8 25.642 36.776 25.642 36.776 L25.642 36.688 25.184 36.676 25.134 36.752 24.948 36.764 24.948 36.966 24.862 36.992 C24.8 37.03 24.874 37.168 24.874 37.168 24.96 37.256 24.862 37.394 24.862 37.394 24.788 37.47 24.924 37.608 24.924 37.608 25.024 37.632 24.862 37.708 24.862 37.708 24.886 37.834 24.96 37.872 24.96 37.872 24.886 37.998 25.01 38.06 25.01 38.06 L25.022 38.274 25.108 38.324 25.108 38.462 25.158 38.55 25.356 38.55 25.344 38.236 C25.17 38.034 25.492 37.984 25.506 38.06 25.518 38.136 25.654 38.174 25.654 38.174 25.678 38.362 25.89 38.476 25.95 38.288 26.012 38.1 26.062 38.212 26.098 38.3 26.136 38.388 26.37 38.602 26.37 38.602 L26.556 38.602 26.58 38.778 C26.79 38.766 26.852 38.79 26.938 39.08 27.024 39.368 27.26 39.444 27.26 39.444 L27.434 39.432 C27.434 39.282 27.608 39.458 27.608 39.532 27.608 39.608 27.942 39.896 27.942 39.896 L28.276 39.972 28.372 40.05 C28.57 40.298 28.77 40.542 28.994 40.772 L27.43 42.336 C26.046 40.918 25.056 39.216 24.514 37.362 L24.224 37.434 C24.794 39.386 25.846 41.174 27.324 42.652 28.324 43.652 29.468 44.458 30.708 45.052 L30.854 44.792 C29.68 44.232 28.596 43.48 27.638 42.546 L29.202 40.982 C30.014 41.77 30.942 42.4 31.944 42.858 L32.09 42.6 C31.11 42.156 30.204 41.542 29.412 40.774 L29.688 40.498 C29.706 40.528 29.73 40.54 29.736 40.59 29.76 40.778 29.848 40.74 29.848 40.74 L30.554 40.728 30.802 40.514 31.434 40.502 C31.756 40.49 31.558 40.05 31.496 40.05 31.454 40.016 31.454 39.942 31.464 39.864 31.97 40.254 32.502 40.6 33.082 40.848 L33.228 40.59 C32.456 40.266 31.746 39.798 31.118 39.214 L31.044 39.146 32.602 37.588 C33.104 38.062 33.69 38.42 34.324 38.646 L34.472 38.384 C33.86 38.172 33.296 37.832 32.812 37.378 L34.23 35.958 C34.662 36.344 35.2 36.564 35.776 36.612 L35.774 36.628 C35.774 36.628 35.728 36.742 35.784 36.76 35.84 36.778 35.82 36.788 35.848 36.816 L35.82 36.882 C35.774 36.82 35.746 36.93 35.774 36.958 35.802 36.986 35.71 36.968 35.71 37.006 35.71 37.044 35.682 37.062 35.71 37.082 35.738 37.1 35.7 37.11 35.664 37.138 35.626 37.166 35.822 37.176 35.822 37.176 35.822 37.176 35.786 37.1 35.832 37.1 L35.852 37.104 35.852 37.2 C35.83 37.196 35.826 37.204 35.8 37.198 L35.8 37.286 35.7 37.298 35.786 37.398 35.85 37.406 35.85 37.612 35.848 37.624 C35.848 37.788 35.44 37.674 35.402 37.636 L35.39 37.862 35.316 37.874 35.328 38.024 35.316 38.238 35.452 38.212 35.452 38.3 35.786 38.312 35.85 38.244 35.85 38.476 35.848 38.488 35.626 38.514 35.534 38.562 35.526 38.56 35.492 38.49 35.394 38.49 35.364 38.53 C35.064 38.488 34.758 38.464 34.474 38.366 L34.326 38.628 C34.508 38.694 34.696 38.736 34.886 38.78 34.856 38.806 34.804 38.836 34.812 38.854 34.836 38.916 34.714 38.98 34.714 38.98 L34.602 39.018 34.528 39.132 34.38 39.182 34.356 39.446 34.282 39.496 34.282 39.61 34.196 39.634 34.196 39.696 34.072 39.708 34.146 39.896 34.246 39.946 C34.42 39.97 34.344 40.184 34.344 40.184 L34.442 40.196 34.492 40.334 34.59 40.534 C34.628 40.684 34.738 40.648 34.788 40.634 34.838 40.622 34.886 40.784 34.886 40.784 L35.38 40.796 C35.38 40.796 35.356 40.846 35.442 40.872 35.49 40.886 35.682 40.898 35.852 40.902 L35.852 41.124 C34.936 41.106 34.05 40.916 33.228 40.572 L33.082 40.83 C33.948 41.198 34.884 41.402 35.852 41.42 L35.852 43.424 C34.534 43.404 33.26 43.114 32.094 42.584 L31.948 42.842 C33.16 43.396 34.484 43.698 35.854 43.718 L35.854 45.93 C34.096 45.908 32.402 45.51 30.858 44.776 L30.712 45.036 C32.342 45.816 34.14 46.23 36.002 46.23 37.954 46.23 39.836 45.774 41.53 44.916 L41.39 44.644 C39.81 45.444 38.032 45.906 36.15 45.93 L36.15 43.718 C37.046 43.704 37.916 43.556 38.754 43.31 L38.994 43.384 39.056 43.586 39.156 43.574 39.23 43.512 39.526 43.5 39.674 43.362 39.834 43.338 41.13 42.236 C41.718 41.87 42.286 41.464 42.794 40.97 L44.354 42.53 C43.484 43.38 42.482 44.096 41.388 44.65 L41.528 44.922 C42.676 44.342 43.738 43.578 44.674 42.642 45.658 41.658 46.452 40.534 47.044 39.318 L47.042 39.316 46.87 39.222 47.042 39.316 C47.842 37.668 48.266 35.85 48.266 33.964 48.266 32.36 47.958 30.806 47.376 29.364 46.768 27.858 45.856 26.474 44.674 25.29 43.486 24.102 42.096 23.19 40.582 22.58 L40.582 22.582 C39.146 22 37.596 21.696 36 21.696 34.028 21.696 32.164 22.166 30.512 22.998 L30.646 23.256 C32.246 22.454 34.014 22.018 35.852 21.996 L35.852 24.208 C34.354 24.23 32.938 24.594 31.674 25.22 L31.808 25.478 C33.052 24.862 34.426 24.524 35.852 24.504 L35.852 26.508 C34.738 26.53 33.684 26.798 32.74 27.258 L32.876 27.516 C33.794 27.07 34.804 26.824 35.854 26.802 L35.854 29.014 C35.158 29.034 34.5 29.2 33.904 29.478 L34.04 29.738 C34.604 29.476 35.218 29.328 35.854 29.31 L35.854 31.316 C35.62 31.33 35.404 31.4 35.19 31.47 L35.098 31.47 35.086 31.332 35.148 31.294 35.048 31.256 34.974 31.356 34.95 31.47 34.826 31.496 34.826 31.558 34.74 31.558 34.74 31.668 C34.564 31.766 34.384 31.856 34.234 31.988 L32.814 30.568 C33.18 30.224 33.594 29.944 34.04 29.738 L33.904 29.478 C33.426 29.702 32.988 30.002 32.608 30.36 L31.042 28.794 C31.592 28.266 32.21 27.838 32.878 27.514 L32.742 27.256 C32.038 27.6 31.394 28.05 30.836 28.588 L29.418 27.17 C30.134 26.476 30.942 25.908 31.812 25.478 L31.678 25.22 C30.766 25.672 29.934 26.262 29.212 26.964 L27.644 25.396 C28.542 24.518 29.556 23.802 30.65 23.254 L30.516 22.996 C28.128 24.196 26.182 26.152 24.998 28.55 L25.132 28.626 Z M29.706 34.112 L29.714 34.182 29.528 34.384 29.552 34.584 29.44 34.622 29.416 34.71 29.366 34.974 29.49 34.986 C29.552 34.96 29.54 35.15 29.49 35.174 29.44 35.2 29.304 35.25 29.378 35.3 29.452 35.35 29.18 35.338 29.18 35.262 29.18 35.186 29.032 35.124 28.994 35.15 28.974 35.164 28.948 35.132 28.928 35.096 28.876 34.772 28.842 34.444 28.836 34.112 Z M28.892 40.186 L28.922 40.186 C28.984 39.972 29.28 40.198 29.306 40.274 29.316 40.302 29.358 40.332 29.396 40.362 L29.206 40.552 C29.094 40.434 28.998 40.306 28.892 40.186 Z M30.83 38.924 C30.722 38.812 30.65 38.676 30.55 38.558 30.572 38.496 30.604 38.44 30.604 38.44 30.764 38.34 30.566 38.176 30.566 38.176 30.59 38.024 30.48 37.85 30.48 37.85 30.258 37.7 30.32 37.41 30.32 37.41 L30.32 37.21 C30.134 37.034 30.394 37.008 30.394 37.008 30.48 36.858 30.332 36.744 30.332 36.744 L30.32 36.58 30.122 36.554 30.098 35.964 29.652 35.324 C29.566 35.298 29.628 35.148 29.628 35.148 29.74 35.086 29.604 34.934 29.604 34.934 L29.592 34.658 29.852 34.632 29.914 34.532 30.038 34.532 30.026 34.206 C30.056 34.128 30.106 34.11 30.15 34.11 L30.166 34.11 C30.202 34.116 30.236 34.13 30.236 34.13 L30.41 34.142 30.428 34.11 31.018 34.11 31.068 34.432 30.908 34.57 C30.772 34.646 30.772 34.822 30.92 34.858 31.018 34.87 30.982 35.11 30.834 34.946 30.612 34.946 30.958 35.148 30.858 35.096 31.08 35.21 31.032 34.996 31.032 34.996 L31.146 34.906 C31.194 35.152 31.258 35.394 31.342 35.63 31.57 36.266 31.926 36.854 32.402 37.358 Z M30.394 33.792 C30.246 33.704 30.32 33.378 30.32 33.378 30.556 33.026 30.828 33.228 30.828 33.228 L31.002 33.216 C31.062 33.256 31.092 33.306 31.108 33.358 31.096 33.448 31.08 33.536 31.074 33.628 31.05 33.68 31.026 33.718 31.026 33.718 31.012 33.738 31.014 33.78 31.01 33.816 L30.53 33.816 30.532 33.806 Z M33.142 34.296 L33.192 34.22 33.212 34.112 33.352 34.112 C33.356 34.186 33.39 34.25 33.4 34.322 L33.39 34.37 33.304 34.396 33.28 34.346 33.244 34.484 33.022 34.484 33.01 34.334 Z M32.604 37.152 C32.166 36.686 31.834 36.146 31.622 35.56 31.528 35.3 31.462 35.03 31.416 34.754 31.52 34.794 31.632 34.958 31.632 34.988 31.632 35.026 32.126 35 32.126 35 32.262 35.088 32.312 35.314 32.312 35.314 32.448 35.138 32.732 35.302 32.522 35.402 32.72 35.528 32.72 35.64 32.72 35.64 32.882 35.59 32.882 35.716 32.882 35.754 32.882 35.792 32.932 35.566 32.932 35.566 32.746 35.428 33.18 35.378 33.056 35.628 L32.98 35.74 33.104 35.84 33.116 36.128 C33.388 36.102 33.314 35.764 33.314 35.764 L33.438 35.74 C33.438 35.626 33.524 35.69 33.524 35.69 33.456 35.35 33.616 35.236 33.688 35.202 33.786 35.386 33.88 35.574 34.022 35.732 Z M33.876 34.954 C33.892 34.878 33.896 34.81 33.896 34.81 33.784 34.76 33.846 34.584 33.97 34.734 34.094 34.884 33.896 34.432 33.896 34.432 L33.798 34.344 33.714 34.336 C33.694 34.21 33.64 34.092 33.64 33.962 33.64 33.902 33.67 33.85 33.674 33.792 33.698 33.786 33.724 33.79 33.724 33.79 L33.798 33.852 33.91 33.94 33.922 34.016 33.848 34.054 33.836 34.154 33.874 34.292 33.972 34.292 C34.01 34.09 34.27 34.09 34.344 34.216 L34.418 34.04 C34.244 33.952 34.414 33.814 34.464 33.876 34.514 33.938 34.628 33.712 34.628 33.712 34.628 33.712 34.714 33.826 34.628 33.674 34.542 33.524 34.69 33.448 34.69 33.448 34.666 33.298 34.85 33.322 34.85 33.322 L34.862 33.122 34.688 33.11 C34.652 33.286 34.502 33.136 34.576 33.098 34.65 33.06 34.724 32.984 34.724 32.984 L34.724 32.858 34.798 32.832 34.81 32.706 34.996 32.706 35.156 32.63 35.194 32.568 35.368 32.556 35.616 32.33 35.592 32.23 C35.444 32.23 35.592 32.116 35.592 32.116 L35.616 31.928 35.48 31.928 35.46 31.704 C35.63 31.664 35.796 31.604 35.976 31.604 L36 31.906 35.864 31.86 35.778 31.86 35.742 31.784 35.668 31.772 35.668 32.048 35.742 32.11 35.804 32.172 35.928 32.184 35.952 32.334 36.262 32.346 36.3 32.408 36.486 32.42 36.844 32.784 36.82 32.898 36.758 32.936 C36.782 33.024 36.598 32.974 36.598 32.974 L36.598 33.05 36.684 33.062 36.77 33.112 36.894 32.898 C37.03 32.81 37.092 32.936 37.104 33.012 37.116 33.088 37.042 33.074 37.042 33.074 L37.042 33.25 37.116 33.276 C37.24 33.426 37.066 33.514 37.066 33.514 L37.028 33.64 C36.99 33.754 36.854 33.728 36.854 33.728 L36.804 33.804 36.656 33.842 36.95 33.88 C36.978 33.78 37.052 33.754 37.09 33.804 37.128 33.854 37.128 33.942 37.128 33.942 L37.202 33.954 37.19 34.092 37.264 34.118 37.264 34.52 37.35 34.62 C37.498 34.558 37.498 34.658 37.424 34.708 37.35 34.758 37.4 34.984 37.4 34.984 L37.338 35.046 37.338 35.146 37.262 35.2 37.262 35.338 C37.138 35.276 36.99 35.3 36.952 35.338 36.84 35.262 36.606 35.288 36.606 35.35 36.68 35.45 36.52 35.476 36.52 35.476 L36.434 35.576 C36.496 35.702 36.372 35.714 36.372 35.714 L36.372 35.952 36.224 36.09 36.232 36.276 C36.152 36.284 36.084 36.322 36.002 36.322 35.424 36.322 34.89 36.094 34.46 35.716 34.462 35.714 34.466 35.716 34.468 35.712 34.53 35.612 34.628 35.598 34.628 35.598 L34.666 35.51 35 35.522 C35.024 35.384 35.186 35.434 35.186 35.496 35.186 35.558 35.31 35.508 35.31 35.508 L35.396 35.37 35.532 35.37 35.544 35.22 35.606 35.182 35.606 34.956 C35.804 34.894 35.78 34.704 35.78 34.704 L35.83 34.642 35.806 34.554 C35.706 34.516 35.756 34.428 35.818 34.454 35.88 34.48 35.732 34.34 35.732 34.34 35.658 34.402 35.596 34.264 35.596 34.264 L35.41 34.264 35.41 34.088 35.386 33.924 35.2 33.836 35.064 33.962 35.04 34.138 35.04 34.25 34.916 34.276 34.892 34.614 34.794 34.652 34.806 34.778 34.67 34.816 34.534 34.854 34.51 35.018 34.412 35.08 34.362 35.23 34.304 35.572 C34.12 35.394 33.982 35.18 33.876 34.954 Z M40.454 28.392 C40.482 28.42 40.508 28.436 40.512 28.438 40.57 28.486 40.632 28.53 40.69 28.58 L40.69 28.656 C40.78 28.634 40.908 28.746 40.924 28.832 L39.396 30.36 C38.956 29.946 38.452 29.62 37.91 29.392 37.358 29.162 36.762 29.032 36.148 29.014 L36.148 26.802 C37.044 26.82 37.912 27.002 38.718 27.332 39.344 27.59 39.918 27.964 40.454 28.392 Z M41.83 28.342 C42.006 28.442 42.148 28.662 42.126 28.706 42.102 28.756 42.274 28.744 42.274 28.744 42.298 28.518 42.51 28.594 42.522 28.668 42.534 28.744 42.572 28.906 42.572 28.906 L42.634 29.018 42.72 29.106 42.856 29.094 42.894 29.17 43.054 29.196 C43.054 29.196 43.19 29.346 43.202 29.384 43.214 29.422 43.4 29.41 43.45 29.422 43.5 29.434 43.574 29.472 43.586 29.536 43.598 29.598 43.672 29.7 43.672 29.7 43.672 29.7 43.82 29.738 43.832 29.788 43.844 29.838 43.906 29.952 43.906 29.952 L44.03 30.052 44.042 30.166 44.178 30.178 44.216 30.328 44.438 30.316 44.562 30.228 C44.594 30.21 44.614 30.19 44.642 30.172 44.688 30.276 44.756 30.368 44.796 30.472 45.214 31.524 45.442 32.652 45.46 33.816 L43.456 33.816 C43.45 33.476 43.4 33.144 43.348 32.814 43.368 32.744 43.384 32.676 43.36 32.652 43.324 32.614 43.398 32.438 43.398 32.438 43.398 32.438 43.448 32.338 43.398 32.236 43.348 32.136 43.41 32.022 43.448 31.972 L43.35 31.922 43.252 31.91 43.15 31.928 43.088 31.716 43.104 31.684 43.166 31.696 43.166 31.62 43.052 31.588 C43.042 31.558 43.036 31.526 43.024 31.494 L43.004 31.18 42.918 31.118 42.942 31.018 42.844 30.98 42.894 30.816 42.808 30.64 42.642 30.64 C42.588 30.534 42.54 30.424 42.48 30.32 42.48 30.302 42.486 30.28 42.548 30.262 42.614 30.244 42.638 30.24 42.646 30.242 L42.634 30.112 42.522 30.036 42.484 29.886 C42.484 29.886 42.348 29.912 42.36 29.986 42.362 30 42.332 30.002 42.322 30.012 42.244 29.886 42.142 29.776 42.056 29.654 42.062 29.634 42.064 29.614 42.074 29.596 42.124 29.508 42.098 29.458 42.012 29.432 41.926 29.406 41.926 29.406 41.9 29.306 41.876 29.206 41.776 29.18 41.776 29.18 L41.738 29.03 41.622 29.102 C41.576 29.048 41.54 28.988 41.492 28.936 L41.542 28.778 C41.49 28.768 41.476 28.734 41.462 28.702 Z M41.43 29.334 L41.42 29.348 C41.42 29.464 41.466 29.458 41.518 29.446 L41.622 29.58 C41.63 29.632 41.656 29.67 41.704 29.686 41.904 29.952 42.086 30.224 42.244 30.512 42.23 30.528 42.224 30.542 42.224 30.542 L42.026 30.568 42.026 30.768 41.926 30.806 41.938 30.932 42.074 30.92 C42.074 30.92 42.074 31.07 42.112 31.008 42.15 30.946 42.458 31.02 42.434 31.172 42.424 31.234 42.744 31.398 42.706 31.598 42.74 31.604 42.738 31.626 42.758 31.642 42.818 31.816 42.866 31.994 42.912 32.174 L42.904 32.19 42.922 32.21 C42.966 32.38 43.012 32.548 43.042 32.722 43.03 32.848 43.002 32.968 42.94 33.006 42.792 33.094 42.952 33.044 42.952 33.044 L42.928 33.32 C42.966 33.446 43.026 33.382 43.064 33.32 43.076 33.3 43.09 33.29 43.102 33.278 43.12 33.46 43.156 33.636 43.16 33.82 L41.664 33.82 41.69 33.786 41.752 33.61 41.962 33.548 41.986 33.384 41.874 33.372 C41.874 33.372 41.998 33.146 42.06 33.146 42.122 33.146 42.53 33.146 42.568 33.12 42.606 33.094 42.68 32.894 42.68 32.856 42.68 32.818 42.78 32.806 42.816 32.794 42.854 32.782 42.94 32.682 42.964 32.63 42.988 32.58 42.902 32.266 42.852 32.316 42.802 32.366 42.692 32.392 42.692 32.392 L42.654 32.53 42.592 32.58 C42.592 32.58 42.604 32.618 42.592 32.706 42.58 32.794 42.468 32.844 42.468 32.844 L42.418 32.906 C42.418 32.906 42.12 32.922 42.084 32.906 41.972 32.856 42.048 32.706 42.122 32.718 42.196 32.73 42.11 32.504 42.11 32.504 L42.21 32.492 C42.21 32.492 42.222 32.266 42.26 32.266 42.298 32.266 42.248 32.19 42.198 32.154 42.148 32.116 42.086 31.99 42.036 32.004 41.986 32.016 41.788 32.004 41.788 32.004 L41.75 32.08 41.614 32.106 C41.614 32.106 41.626 32.204 41.602 32.232 41.528 32.32 41.244 32.508 41.366 32.194 L41.402 32.118 41.402 32.004 41.18 31.992 C41.18 31.992 41.068 31.954 41.068 31.904 41.068 31.854 41.056 31.792 41.056 31.792 L40.796 31.504 40.486 31.466 40.462 31.404 40.276 31.378 C40.252 31.366 40.236 31.38 40.212 31.372 40.13 31.24 40.022 31.126 39.926 31 L39.904 30.912 C39.894 30.868 39.764 30.702 39.69 30.692 39.656 30.654 39.634 30.61 39.598 30.574 L41.134 29.038 C41.176 29.08 41.19 29.106 41.254 29.152 41.264 29.158 41.27 29.152 41.28 29.156 41.338 29.208 41.38 29.274 41.43 29.334 Z M42.55 36.86 C42.212 37.622 41.746 38.314 41.176 38.908 41.152 38.654 41.098 38.376 41.098 38.376 L40.998 38.326 41.022 38.024 40.886 38.024 40.664 38.314 40.64 38.394 40.514 38.268 40.578 38.202 40.566 38.052 40.652 37.976 40.652 37.85 40.726 37.824 40.738 37.548 40.8 37.536 40.8 36.934 40.614 36.758 C40.602 36.82 40.404 36.82 40.404 36.82 40.404 36.82 40.354 36.908 40.318 36.908 40.282 36.908 40.368 37.022 40.342 37.096 40.318 37.172 40.218 37.172 40.218 37.172 L40.032 37.222 39.982 37.284 39.784 37.284 39.764 37.152 39.796 37.112 39.982 37.06 40.106 36.998 40.168 36.872 C40.18 36.746 40.328 36.76 40.328 36.76 40.328 36.76 40.612 36.522 40.624 36.408 40.636 36.294 40.736 35.98 40.908 35.98 L41.23 35.98 C41.354 35.93 41.316 35.766 41.316 35.766 L41.476 35.74 41.5 35.828 C41.5 35.828 41.722 35.854 41.748 35.816 41.772 35.778 41.822 35.69 41.884 35.728 41.946 35.766 42.144 35.64 42.144 35.64 42.156 35.552 42.466 35.59 42.466 35.59 L42.504 35.478 C42.504 35.478 42.294 35.19 42.256 35.19 42.218 35.19 42.02 35.014 41.996 35.076 41.798 35.026 41.81 34.75 41.81 34.75 L41.736 34.574 C41.736 34.474 41.55 34.26 41.514 34.286 41.436 34.228 41.422 34.168 41.426 34.114 L43.156 34.114 C43.142 35.088 42.924 36.016 42.55 36.86 Z M36.952 36.518 L37.014 36.544 36.902 36.632 36.804 36.746 36.68 36.708 36.532 36.696 36.482 36.608 36.396 36.596 36.384 36.772 36.322 36.848 36.174 37 C36.33 37 36.226 37.084 36.15 37.12 L36.15 36.618 C36.302 36.61 36.438 36.552 36.584 36.52 L36.644 36.572 36.756 36.572 36.766 36.478 C36.828 36.46 36.894 36.458 36.954 36.436 36.942 36.47 36.952 36.518 36.952 36.518 Z M39.178 30.994 C39.194 30.996 39.214 31.006 39.23 31.006 39.304 31.006 39.466 30.98 39.466 30.98 L39.572 31.004 C39.632 31.076 39.688 31.152 39.742 31.226 L39.614 31.206 39.516 31.194 39.33 31.182 C39.144 31.308 39.108 31.458 39.108 31.458 39.018 31.628 38.828 31.432 38.856 31.318 Z M38.772 38.038 L39.094 38.202 C39.132 38.252 39.292 38.24 39.292 38.24 L39.342 38.302 C39.342 38.302 39.442 38.29 39.504 38.364 39.566 38.44 39.888 38.376 39.888 38.376 L39.974 38.452 40.11 38.502 40.34 38.51 40.48 38.65 C40.256 38.754 39.806 38.72 39.776 38.69 39.738 38.652 39.48 38.54 39.48 38.54 39.48 38.54 39.282 38.376 39.244 38.428 39.206 38.48 39.034 38.366 39.034 38.402 39.034 38.438 38.874 38.314 38.874 38.314 L38.626 38.226 38.812 38.188 Z M38.81 36.564 C38.816 36.55 38.828 36.538 38.808 36.518 38.794 36.502 38.768 36.504 38.748 36.502 L38.646 36.4 C38.64 36.322 38.656 36.216 38.648 36.178 38.636 36.128 38.858 36.052 38.822 36.166 38.784 36.28 38.822 36.33 38.822 36.33 38.982 36.18 39.118 36.342 39.106 36.38 39.094 36.418 39.192 36.456 39.254 36.418 39.316 36.38 39.39 36.532 39.366 36.606 39.342 36.682 39.118 36.668 39.106 36.594 39.094 36.518 39.056 36.544 39.032 36.582 39.01 36.616 38.918 36.634 38.856 36.61 Z M39.874 31.808 C39.75 31.808 39.726 31.708 39.726 31.708 39.726 31.708 39.628 31.67 39.628 31.72 39.628 31.77 39.59 31.87 39.628 31.92 39.664 31.97 39.578 32.046 39.542 32.008 39.506 31.97 39.406 31.858 39.43 31.82 39.454 31.782 39.256 31.544 39.454 31.506 39.652 31.468 39.442 31.356 39.516 31.33 L39.614 31.28 39.712 31.28 39.756 31.244 C39.812 31.322 39.88 31.392 39.932 31.472 39.926 31.5 39.892 31.51 39.898 31.544 39.936 31.734 39.996 31.808 39.874 31.808 Z M36.93 36.13 C36.86 36.16 36.778 36.158 36.704 36.182 L36.704 35.942 36.828 35.804 C36.96 35.758 36.938 36.036 36.93 36.13 Z M36.15 40.846 C36.214 40.776 36.456 40.768 36.57 40.852 36.706 40.952 36.892 40.89 36.892 40.89 L36.996 41.016 C36.714 41.056 36.442 41.122 36.15 41.128 Z M37.802 29.668 C38.308 29.88 38.778 30.184 39.188 30.57 L39.102 30.656 C39.068 30.614 38.934 30.588 38.934 30.542 38.934 30.492 38.81 30.428 38.822 30.504 38.834 30.58 38.736 30.618 38.71 30.592 38.686 30.566 38.612 30.668 38.612 30.668 38.612 30.706 38.588 30.756 38.662 30.768 38.736 30.78 38.872 30.718 38.884 30.794 38.888 30.82 38.894 30.84 38.9 30.86 L38.414 31.346 C38.344 31.35 38.278 31.348 38.278 31.348 38.24 31.462 38.068 31.336 38.118 31.26 38.168 31.184 38.168 31.134 38.168 31.134 L38.106 31.122 38.032 31.26 C37.858 31.26 37.81 31.36 37.846 31.424 37.884 31.486 37.796 31.412 37.772 31.5 37.748 31.588 37.784 31.588 37.858 31.626 37.932 31.664 37.82 31.664 37.87 31.726 37.906 31.772 37.966 31.766 37.978 31.784 L37.93 31.832 C37.84 31.876 37.72 31.864 37.72 31.864 37.716 31.898 37.674 31.9 37.642 31.912 37.52 31.814 37.386 31.738 37.25 31.666 L37.238 31.65 37.224 31.65 C37.162 31.616 37.108 31.564 37.044 31.536 37.082 31.51 37.134 31.494 37.162 31.412 37.212 31.274 37.236 31.048 37.236 31.048 37.236 31.048 37.038 31.036 37.026 31.098 37.014 31.16 36.89 31.198 36.89 31.198 36.89 31.198 36.79 31.236 36.828 31.286 36.866 31.336 36.754 31.362 36.754 31.362 36.754 31.362 36.764 31.42 36.746 31.458 36.55 31.4 36.356 31.334 36.148 31.322 L36.148 29.316 C36.724 29.328 37.282 29.45 37.802 29.668 Z M36.272 37.8 L36.556 37.738 C36.58 37.612 36.704 37.764 36.704 37.764 36.828 37.752 36.852 37.84 36.852 37.84 L37.014 37.866 C37.15 37.904 37.068 37.918 37.076 37.966 37.088 38.042 37.15 38.016 37.15 38.016 L37.174 37.852 37.248 37.864 37.174 37.776 37.038 37.714 36.89 37.652 C36.792 37.514 36.914 37.538 37.014 37.552 L37.174 37.552 C37.174 37.552 37.36 37.802 37.36 37.866 37.36 37.928 37.446 37.942 37.446 37.942 L37.558 37.93 37.596 38.018 37.708 38.018 37.746 38.094 37.968 38.094 37.98 37.98 37.77 37.942 37.758 37.816 37.61 37.778 C37.56 37.564 37.646 37.502 37.708 37.602 L37.782 37.614 37.758 37.426 37.844 37.4 37.82 37.136 37.746 37.112 37.746 37.02 38.056 37.032 C38.032 36.868 38.068 36.794 38.068 36.794 L38.154 36.794 38.166 36.856 38.544 36.892 38.562 36.894 C38.71 36.982 38.636 37.096 38.586 37.12 38.536 37.146 38.45 37.146 38.45 37.146 L38.426 37.196 38.104 37.22 38.08 37.346 C37.92 37.32 37.858 37.496 37.894 37.584 37.932 37.672 37.894 37.748 37.894 37.748 L38.03 37.81 38.204 37.76 C38.228 37.634 38.34 37.608 38.44 37.534 38.53 37.466 38.652 37.63 38.64 37.738 38.44 37.878 38.26 38.044 38.04 38.152 37.712 38.312 37.358 38.422 36.992 38.502 L36.99 38.502 36.854 38.464 36.842 38.276 C36.818 38.15 36.582 38.15 36.594 38.238 36.606 38.326 36.152 38.276 36.15 38.276 L36.15 37.93 Z M36.148 41.424 C36.492 41.418 36.82 41.344 37.154 41.292 L37.198 41.39 37.408 41.452 37.556 41.49 37.606 41.704 37.718 41.716 37.756 41.854 C37.892 41.954 37.718 42.168 37.718 42.168 L37.718 42.444 37.818 42.494 37.806 42.594 37.968 42.756 38.154 42.768 38.456 43.09 C37.718 43.29 36.948 43.408 36.15 43.422 L36.15 41.424 Z M41.086 41.914 L41.086 41.82 C41.308 41.656 41.322 41.368 41.11 41.342 40.95 41.322 41.024 41.154 41.172 41.128 L41.258 41.09 41.258 40.976 41.542 40.712 41.542 40.51 40.924 39.994 C40.788 39.944 40.788 39.77 40.844 39.608 40.95 39.516 41.066 39.438 41.17 39.34 L42.04 40.21 C42.006 40.276 41.976 40.34 41.99 40.382 L42.102 40.432 42.114 40.646 C42.198 40.732 42.382 40.726 42.532 40.7 L42.584 40.752 C42.13 41.198 41.62 41.572 41.086 41.914 Z M42.792 40.546 L42.738 40.492 42.72 40.174 42.658 40.112 42.646 39.798 C42.696 39.634 42.41 39.396 42.386 39.446 42.362 39.496 42.2 39.458 42.2 39.508 42.2 39.558 42.102 39.81 42.15 39.898 L42.15 39.906 41.378 39.134 C41.984 38.504 42.466 37.784 42.814 37.006 43.216 36.106 43.438 35.126 43.458 34.112 L45.46 34.112 C45.44 35.488 45.122 36.792 44.572 37.966 44.124 38.922 43.52 39.794 42.792 40.546 Z M46.776 39.168 C46.21 40.336 45.46 41.398 44.564 42.318 L43.004 40.758 C43.768 39.97 44.384 39.076 44.838 38.11 45.42 36.872 45.736 35.516 45.756 34.11 L47.968 34.11 C47.946 35.92 47.52 37.636 46.776 39.168 Z M47.104 29.48 C47.654 30.842 47.952 32.306 47.97 33.816 L45.758 33.816 C45.74 32.612 45.504 31.444 45.07 30.356 45.012 30.212 44.922 30.086 44.858 29.944 44.872 29.876 44.9 29.742 45.01 29.776 45.134 29.814 45.048 29.5 45.048 29.5 45.048 29.5 44.874 29.374 44.886 29.312 44.898 29.25 44.712 29.124 44.726 29.074 44.738 29.024 44.566 28.924 44.578 28.874 44.59 28.824 44.492 28.686 44.492 28.686 L44.306 28.51 44.282 28.396 44.134 28.384 43.838 28.02 43.85 27.92 43.764 27.908 43.764 27.77 43.678 27.72 43.542 27.708 43.264 27.4 43.24 27.262 43.104 27.262 43.124 27.048 44.57 25.602 C45.674 26.736 46.528 28.052 47.104 29.48 Z M36.148 24.208 L36.148 21.996 C37.654 22.014 39.116 22.312 40.476 22.858 L40.476 22.856 C41.906 23.432 43.224 24.286 44.36 25.394 L43.042 26.712 C42.994 26.724 42.942 26.738 42.906 26.722 42.82 26.684 42.942 26.596 42.942 26.596 L42.942 26.496 42.868 26.42 C42.868 26.42 42.658 26.446 42.646 26.408 42.634 26.37 42.596 26.206 42.596 26.206 L42.584 25.992 42.498 25.954 42.486 25.878 42.35 25.89 42.35 25.74 42.276 25.714 42.2 25.68 42.188 25.53 41.916 25.518 41.83 25.392 41.732 25.242 41.422 25.216 41.348 25.14 41.224 25.114 41.138 25.076 41.1 25.138 40.864 25.15 40.852 25.226 C40.762 25.272 40.484 25.258 40.328 25.262 40.106 25.152 39.898 25.01 39.668 24.918 L39.56 25.194 C39.762 25.276 39.946 25.402 40.142 25.498 40.132 25.514 40.126 25.542 40.11 25.542 40.048 25.542 40.072 25.706 40.072 25.706 40.072 25.706 40.234 25.706 40.282 25.718 40.332 25.73 40.332 25.856 40.332 25.856 40.518 25.844 40.592 26.094 40.568 26.158 40.544 26.22 40.642 26.22 40.642 26.22 40.642 26.22 40.642 26.42 40.618 26.472 40.594 26.522 40.78 26.56 40.828 26.636 40.878 26.712 40.804 26.962 40.766 26.976 40.728 26.988 40.864 27.026 40.852 27.09 40.84 27.152 40.89 27.09 40.902 27.19 L40.94 27.504 41.114 27.516 C41.138 27.352 41.458 27.346 41.51 27.366 41.72 27.442 41.882 27.768 41.882 27.844 41.882 27.92 41.746 27.932 41.746 27.932 L41.752 28.014 41.31 28.456 C41.27 28.432 41.226 28.408 41.202 28.422 41.14 28.46 41.164 28.158 41.164 28.158 41.164 28.158 41.276 28.082 41.326 28.12 41.376 28.158 40.906 27.492 40.806 27.554 40.708 27.616 40.484 27.492 40.496 27.378 40.508 27.266 40.05 26.888 40.05 26.888 40.05 26.888 39.902 26.788 39.876 26.864 39.852 26.94 39.802 26.99 39.876 27.028 39.95 27.066 39.938 26.966 40.024 27.054 40.11 27.142 40.272 27.254 40.21 27.33 40.148 27.406 40.074 27.43 40.074 27.43 L40.16 27.53 40.296 27.53 40.32 27.744 C40.32 27.744 40.468 27.82 40.506 27.908 40.536 27.98 40.526 28.02 40.506 28.064 40.23 27.854 39.948 27.662 39.648 27.494 39.654 27.462 39.67 27.43 39.664 27.406 39.64 27.318 39.764 27.28 39.824 27.38 L39.948 27.368 39.972 27.254 39.8 27.112 39.664 27.112 C39.664 27.112 39.652 27.212 39.566 27.174 39.48 27.136 39.528 27.148 39.454 27.136 39.38 27.124 39.404 27.3 39.416 27.35 L39.412 27.364 C39.216 27.262 39.03 27.14 38.826 27.058 37.986 26.714 37.08 26.524 36.148 26.506 L36.148 25.392 C36.218 25.39 36.264 25.372 36.272 25.34 36.284 25.29 36.296 25.278 36.37 25.264 36.444 25.252 36.358 25.1 36.284 25.114 36.22 25.124 36.172 25.086 36.148 25.04 L36.148 24.504 C37.336 24.522 38.488 24.76 39.558 25.194 L39.666 24.918 C38.562 24.47 37.374 24.226 36.148 24.208 Z M33.816 31.988 L33.698 31.984 C33.648 32.098 33.524 31.972 33.524 31.972 33.5 31.896 33.326 31.972 33.326 31.972 33.326 32.11 33.09 31.91 33.09 31.91 L32.656 31.596 C32.408 31.37 32.038 31.658 32.026 31.722 32.032 31.81 31.962 31.818 31.89 31.806 32.084 31.438 32.31 31.088 32.602 30.778 Z M32.396 30.57 C32.072 30.914 31.812 31.314 31.596 31.74 31.538 31.738 31.474 31.74 31.458 31.784 31.422 31.884 31.26 31.86 31.26 31.86 L31.236 31.91 31.112 31.936 31.088 32.012 30.94 32.038 31.312 32.026 C31.412 32.014 31.274 32.24 31.214 32.226 L31.04 32.238 30.978 32.3 30.818 32.3 30.74 32.4 30.506 32.388 C30.506 32.388 30.37 32.502 30.382 32.538 30.394 32.576 30.358 32.688 30.32 32.688 30.282 32.688 30.208 32.802 30.234 32.838 30.258 32.876 30.16 33.002 30.16 33.002 L30.136 33.128 30.062 33.154 30.062 33.494 29.914 33.594 29.914 33.744 29.846 33.818 28.84 33.818 C28.86 32.822 29.084 31.862 29.488 30.98 29.818 30.26 30.27 29.592 30.834 29.006 Z M30.624 28.798 C30.052 29.392 29.578 30.082 29.228 30.84 28.806 31.748 28.562 32.756 28.542 33.816 L26.538 33.816 C26.558 32.432 26.876 31.098 27.458 29.884 27.896 28.972 28.48 28.126 29.204 27.38 Z M27.432 25.604 L29 27.172 C28.27 27.924 27.662 28.79 27.202 29.744 26.606 30.98 26.264 32.36 26.244 33.816 L24.032 33.816 C24.054 32.01 24.476 30.268 25.252 28.69 25.802 27.568 26.534 26.526 27.432 25.604 Z"/><path d="M26.212 39.846 L26.348 39.972 26.398 39.884 26.31 39.696 26.224 39.632 26.162 39.456 25.976 39.37 26.064 39.596 26.112 39.708 Z M30.518 35.362 C30.53 35.5 30.63 35.274 30.63 35.274 L30.63 34.42 30.408 34.394 30.42 34.482 30.482 34.482 C30.58 34.658 30.494 35.084 30.494 35.084 30.494 35.084 30.346 35.096 30.32 35.022 30.296 34.946 30.234 35.186 30.282 35.224 30.332 35.262 30.506 35.224 30.518 35.362 Z"/><path d="M30.406 35.438 L30.406 35.74 30.604 36.004 30.678 35.828 30.704 35.714 30.616 35.676 30.63 35.488 30.704 35.476 30.716 35.388 30.53 35.514 Z M34.316 34.886 L34.342 34.76 34.416 34.722 34.428 34.596 34.478 34.508 34.552 34.42 34.578 34.32 34.7 34.246 34.85 34.22 34.912 34.144 34.936 33.994 34.946 33.882 34.998 33.806 35.146 33.742 35.146 33.504 35.072 33.504 35.06 33.416 34.924 33.404 34.898 33.466 34.838 33.466 34.824 33.566 34.898 33.566 34.912 33.642 34.862 33.692 34.838 33.756 34.738 33.78 34.516 33.994 34.502 34.094 34.442 34.182 34.368 34.37 34.106 34.382 34.058 34.61 34.094 34.798 Z M35.294 35.702 L35.182 35.714 35.194 35.89 35.268 35.952 35.404 35.99 C35.404 35.99 35.59 35.94 35.602 35.79 L35.318 35.778 Z M36.272 34.986 C36.298 35.096 36.296 34.81 36.346 34.822 36.396 34.834 36.358 34.646 36.358 34.646 L36.136 34.808 C36.248 34.824 36.26 34.936 36.272 34.986 Z M37.15 34.734 C36.964 34.608 36.976 34.446 36.928 34.332 36.906 34.284 36.854 34.244 36.816 34.344 L36.816 34.508 C36.816 34.508 36.99 34.784 37.05 34.822 37.114 34.86 37.214 34.778 37.15 34.734 Z M42.72 35.112 C42.67 34.962 42.37 35.09 42.424 35.162 42.498 35.262 42.622 35.212 42.672 35.224 42.72 35.238 42.77 35.262 42.72 35.112 Z M43.116 30.93 C43.116 30.968 43.142 31.156 43.142 31.156 43.142 31.156 43.228 31.194 43.24 31.244 43.252 31.294 43.24 31.394 43.278 31.408 43.314 31.42 43.39 31.47 43.364 31.52 43.34 31.57 43.34 31.67 43.34 31.67 L43.39 31.784 43.488 31.846 C43.488 31.846 43.526 31.544 43.464 31.532 43.402 31.52 43.428 31.344 43.428 31.344 43.428 31.344 43.49 31.106 43.39 31.106 43.29 31.106 43.366 30.98 43.304 30.942 43.242 30.904 43.28 30.728 43.254 30.678 43.23 30.628 43.23 30.564 43.168 30.528 43.106 30.49 43.18 30.666 43.144 30.692 43.106 30.718 43.082 30.768 43.044 30.806 43.004 30.842 43.116 30.892 43.116 30.93 Z M42.584 29.748 C42.62 29.798 42.696 29.836 42.696 29.886 42.696 29.936 42.672 29.974 42.746 29.986 42.82 29.998 42.87 29.974 42.894 30.036 42.918 30.098 42.918 30.2 42.906 30.25 42.894 30.3 42.918 30.376 42.98 30.376 43.042 30.376 43.054 30.388 43.054 30.426 43.054 30.464 43.128 30.288 43.128 30.288 43.066 30.238 43.016 30.124 43.016 30.124 43.016 30.124 42.954 29.948 42.954 29.924 42.954 29.898 42.868 29.874 42.83 29.862 42.792 29.85 42.73 29.736 42.73 29.736 Z M42.448 29.472 C42.498 29.472 42.534 29.498 42.584 29.522 42.634 29.548 42.67 29.584 42.708 29.636 L42.832 29.598 C42.832 29.598 42.844 29.472 42.794 29.51 42.744 29.548 42.708 29.422 42.658 29.434 42.608 29.446 42.584 29.384 42.534 29.322 42.484 29.26 42.496 29.246 42.434 29.208 42.372 29.17 42.334 29.17 42.334 29.22 42.334 29.27 42.396 29.296 42.372 29.358 42.348 29.422 42.398 29.472 42.448 29.472 Z M41.036 30.34 C41.036 30.34 41.074 30.402 41.11 30.44 41.148 30.478 41.234 30.554 41.148 30.604 41.062 30.654 41.16 30.642 41.16 30.642 41.16 30.642 41.148 30.906 41.036 30.868 40.924 30.83 40.888 31.006 40.888 31.056 40.888 31.106 41.328 31.126 41.26 31.056 41.222 31.018 41.31 30.93 41.31 30.93 41.31 30.93 41.608 30.956 41.67 30.956 41.732 30.956 41.782 30.944 41.744 30.88 41.706 30.818 41.596 30.83 41.596 30.83 41.596 30.83 41.448 30.868 41.312 30.792 41.176 30.716 41.336 30.692 41.362 30.692 41.388 30.692 41.498 30.604 41.448 30.542 41.398 30.48 41.448 30.366 41.448 30.416 41.448 30.466 41.584 30.492 41.61 30.454 41.634 30.416 41.61 30.304 41.548 30.266 41.486 30.228 41.66 30.204 41.61 30.14 41.556 30.076 41.532 30 41.532 30 41.532 30 41.458 30.1 41.31 30.05 41.31 30.05 41.286 30.288 41.212 30.338 L41.036 30.338 Z M42.646 30.244 L42.646 30.252 C42.646 30.252 42.654 30.246 42.646 30.244 Z M38.178 30.992 C38.178 31.03 38.264 31.068 38.314 31.068 38.364 31.068 38.5 30.968 38.5 30.968 38.5 30.968 38.562 30.792 38.512 30.804 38.462 30.816 38.364 30.892 38.352 30.816 38.34 30.74 38.192 30.778 38.192 30.778 L37.994 30.804 37.982 30.892 38.118 30.904 C38.116 30.904 38.178 30.956 38.178 30.992 Z M39.242 26.81 C39.18 26.81 39.068 26.734 39.094 26.684 39.118 26.634 38.884 26.584 38.884 26.584 38.884 26.584 38.674 26.382 38.748 26.408 38.822 26.434 38.786 26.32 38.786 26.32 38.786 26.32 38.638 26.346 38.6 26.332 38.562 26.32 38.576 26.206 38.576 26.206 38.576 26.206 38.428 26.168 38.428 26.206 38.428 26.244 38.478 26.244 38.502 26.318 38.526 26.394 38.514 26.52 38.626 26.544 38.738 26.57 38.762 26.594 38.774 26.644 38.786 26.694 38.922 26.706 38.922 26.706 L39.022 26.756 39.318 27.008 39.318 26.908 C39.316 26.91 39.304 26.81 39.242 26.81 Z M37.942 25.202 C37.946 25.206 37.954 25.192 37.958 25.192 37.916 25.172 37.89 25.162 37.942 25.202 Z M38.326 25.202 L38.24 25.14 C38.24 25.14 38.104 25.128 38.104 25.09 38.104 25.056 38.014 25.198 37.96 25.194 38.02 25.224 38.116 25.278 38.116 25.278 38.214 25.278 38.276 25.354 38.276 25.392 38.276 25.43 38.412 25.418 38.412 25.418 L38.424 25.33 Z M41.866 25.166 C41.866 25.166 42.098 25.44 42.088 25.304 42.064 24.928 41.89 24.914 41.828 24.84 41.766 24.764 41.5 24.854 41.518 24.954 41.53 25.016 41.58 25.08 41.678 25.104 Z M37.088 23.708 L37.088 23.57 37.04 23.52 36.99 23.344 36.83 23.294 36.67 23.356 36.496 23.47 36.31 23.496 36.21 23.608 36.606 23.646 36.68 23.772 36.964 23.798 37.15 23.986 C37.312 24.036 37.348 23.96 37.25 23.874 Z M38.228 23.092 L38.006 23.092 C37.994 23.004 37.796 23.042 37.784 23.092 37.772 23.142 37.698 23.154 37.698 23.154 L37.414 23.18 C37.39 23.256 37.24 23.306 37.228 23.256 37.2 23.146 37.042 23.394 37.204 23.444 37.364 23.494 37.526 23.444 37.526 23.444 L37.564 23.368 38.182 23.38 C38.232 23.33 38.256 23.254 38.256 23.254 38.256 23.254 38.404 23.204 38.466 23.228 38.528 23.254 38.478 23.052 38.416 23.078 38.352 23.104 38.228 23.092 38.228 23.092 Z M34.886 25.704 C34.898 25.742 35.022 25.754 35.034 25.716 35.046 25.678 35.096 25.602 34.984 25.602 34.872 25.602 34.898 25.54 34.86 25.502 34.822 25.464 34.566 25.47 34.576 25.514 34.588 25.576 34.688 25.652 34.688 25.652 34.688 25.652 34.874 25.668 34.886 25.704 Z M35.47 37.028 C35.526 37.018 35.562 36.99 35.608 36.98 35.654 36.97 35.674 36.896 35.692 36.82 35.71 36.744 35.674 36.706 35.674 36.706 35.674 36.706 35.628 36.782 35.554 36.706 35.48 36.63 35.414 36.876 35.386 36.932 35.388 36.934 35.416 37.036 35.47 37.028 Z"/></g><g><path fill="#f4900c" d="M72 20.054 C72 17.878 71.613 15.791 70.902 13.86 70.417 19.549 67.384 22.471 64.215 21.11 61.246 19.835 63.247 14.864 63.395 12.492 63.644 8.471 63.382 3.869 56.078 0.042 59.113 5.848 56.43 9.455 53.615 9.675 50.493 9.918 47.633 6.991 48.689 2.241 45.271 4.76 45.171 8.999 46.226 11.741 47.326 14.6 46.182 16.975 43.499 17.239 40.501 17.535 38.836 14.029 40.372 8.443 37.713 11.573 36.109 15.626 36.109 20.054 36.109 29.966 44.143 38 54.054 38 63.966 38 72 29.966 72 20.054 Z"/><path fill="#ffcc4d" d="M65.027 25.332 C65.183 28.587 62.323 29.863 60.784 29.247 58.561 28.357 59.157 26.828 58.585 23.662 58.013 20.495 55.814 18.296 52.56 17.328 54.935 24.013 51.243 26.477 49.308 26.917 47.332 27.367 45.347 26.916 45.12 22.687 42.814 24.982 41.387 28.157 41.387 31.666 41.387 32.055 41.411 32.437 41.445 32.817 44.686 36.02 49.137 38 54.054 38 58.972 38 63.423 36.02 66.664 32.817 66.698 32.437 66.722 32.055 66.722 31.666 66.722 29.358 66.105 27.195 65.027 25.332 Z"/></g></svg>