<?xml version="1.0" encoding="UTF-8" ?>
<!DOCTYPE svg PUBLIC "-//W3C//DTD SVG 1.1//EN" "http://www.w3.org/Graphics/SVG/1.1/DTD/svg11.dtd">
<svg width="323pt" height="365pt" viewBox="0 0 323 365" version="1.1" xmlns="http://www.w3.org/2000/svg">
<g id="#000000ff">
</g>
<g id="#fecd2eff">
<path fill="#fecd2e" opacity="1.00" d=" M 25.18 0.00 L 25.70 0.00 C 33.81 4.11 42.83 6.23 51.55 8.79 C 75.19 14.68 99.97 17.27 124.15 13.39 C 137.01 11.39 149.33 6.87 160.87 0.92 C 160.88 4.21 160.64 7.49 160.30 10.76 C 141.67 20.10 120.71 23.77 100.01 23.97 C 75.46 23.59 51.12 18.68 28.01 10.50 C 22.69 16.70 17.50 23.01 12.26 29.29 C 18.80 42.93 24.99 56.77 29.81 71.13 C 36.02 89.75 40.89 109.22 40.08 129.01 C 38.90 152.61 32.97 176.06 22.06 197.07 C 18.13 205.04 13.24 212.52 9.61 220.65 C 7.26 225.47 8.42 230.94 9.23 235.98 C 11.18 247.57 17.63 257.92 25.62 266.34 C 36.72 277.99 50.43 286.70 64.31 294.63 C 84.54 306.03 105.73 315.63 125.95 327.07 C 138.12 333.90 149.78 341.75 159.99 351.32 C 160.18 351.50 160.54 351.86 160.73 352.04 C 160.67 356.23 160.36 360.43 160.86 364.61 L 160.87 365.00 L 160.57 365.00 C 158.07 362.59 156.20 359.63 153.72 357.20 C 147.43 351.75 141.05 346.35 134.00 341.89 C 100.55 320.65 62.32 307.49 30.96 282.88 C 20.26 273.92 10.26 263.51 4.69 250.51 C 2.32 245.14 0.99 239.40 0.00 233.65 L 0.00 221.99 C 3.51 211.04 10.57 201.77 15.40 191.42 C 22.87 176.19 27.90 159.76 30.14 142.94 C 32.15 132.12 31.54 121.09 30.97 110.17 C 30.77 109.59 30.37 108.45 30.16 107.87 C 29.45 100.84 27.60 94.00 25.84 87.18 C 25.67 86.58 25.35 85.40 25.19 84.81 C 19.28 65.17 11.35 46.16 1.89 27.97 C 8.34 21.04 14.13 13.53 20.30 6.36 C 22.16 4.42 23.76 2.27 25.18 0.00 Z" />
</g>
<g id="#edbf2bff">
<path fill="#edbf2b" opacity="1.00" d=" M 295.29 0.00 L 295.82 0.00 C 302.96 9.91 311.70 18.60 318.93 28.46 C 307.33 50.90 297.61 74.53 292.24 99.28 C 288.96 114.20 288.42 129.78 291.18 144.83 C 293.88 165.44 301.52 185.13 311.82 203.09 C 315.34 209.84 320.13 216.26 321.15 224.01 C 322.15 241.62 314.39 258.86 302.32 271.42 C 285.90 288.87 264.53 300.46 243.52 311.43 C 232.22 317.54 220.47 322.79 209.31 329.13 C 195.15 336.38 181.31 344.59 169.50 355.33 C 166.11 357.92 163.64 361.43 160.86 364.61 C 160.36 360.43 160.67 356.23 160.73 352.04 C 168.83 343.47 178.76 336.88 188.76 330.75 C 205.87 320.41 224.08 312.08 241.72 302.72 C 258.99 293.60 276.37 284.09 290.87 270.82 C 302.57 260.27 311.67 245.94 312.64 229.89 C 313.83 223.58 310.14 218.02 307.38 212.69 C 302.38 203.81 297.46 194.85 293.50 185.44 C 287.28 170.65 283.53 154.91 281.65 139.01 C 280.42 127.56 280.59 115.95 282.52 104.59 C 286.47 81.32 294.88 59.07 304.75 37.71 C 305.93 34.89 307.90 32.32 308.50 29.30 C 303.65 22.80 298.21 16.72 292.96 10.53 C 268.91 18.93 243.56 24.09 218.02 23.93 C 204.59 23.43 191.09 21.86 178.24 17.76 C 172.08 15.92 166.21 13.26 160.30 10.76 C 160.64 7.49 160.88 4.21 160.87 0.92 C 176.59 10.13 194.96 14.20 213.02 15.07 C 238.32 16.18 263.59 11.50 287.48 3.33 C 290.10 2.29 292.93 1.61 295.29 0.00 Z" />
<path fill="#edbf2b" opacity="1.00" d=" M 159.68 20.68 C 159.71 20.46 159.76 20.03 159.79 19.81 C 174.20 26.82 190.07 30.27 205.93 31.88 C 234.39 34.20 263.03 29.42 290.07 20.60 C 292.82 23.98 296.44 26.92 298.17 30.98 C 296.69 35.33 294.34 39.32 292.63 43.59 C 281.44 69.67 272.44 97.35 271.98 125.98 C 273.09 148.37 277.52 170.79 286.62 191.36 C 290.89 201.39 296.54 210.74 301.72 220.32 C 302.99 222.66 304.16 225.20 303.94 227.94 C 303.88 240.70 297.13 252.45 288.31 261.28 C 275.86 273.74 260.51 282.77 245.15 291.14 C 216.48 306.77 185.59 319.19 160.28 340.30 C 160.10 340.09 159.74 339.67 159.56 339.46 C 160.04 336.34 160.40 333.19 160.28 330.03 C 160.08 316.66 160.41 303.29 160.29 289.93 C 163.61 290.01 166.93 289.75 170.24 289.41 C 197.58 287.77 224.48 279.17 247.64 264.53 C 251.52 262.04 255.58 259.72 258.89 256.46 C 256.65 253.40 254.53 250.26 252.37 247.16 C 264.94 237.56 277.78 228.33 290.29 218.64 C 280.50 217.90 270.66 218.41 260.87 217.86 C 263.33 207.99 266.72 198.39 269.31 188.55 C 253.34 200.14 237.68 212.15 221.83 223.89 C 221.96 223.98 222.23 224.17 222.37 224.27 C 224.39 227.17 226.39 230.08 228.43 232.97 C 214.86 241.39 199.73 247.30 184.03 250.25 C 179.78 250.95 175.52 251.51 171.28 252.23 C 167.57 252.19 163.85 252.17 160.14 252.31 C 160.32 242.86 160.17 233.40 160.32 223.95 L 160.79 223.95 C 176.01 223.74 191.13 218.53 202.92 208.83 C 215.06 199.08 223.63 184.92 226.55 169.62 C 230.46 150.56 225.46 129.85 213.23 114.71 C 200.83 98.90 181.01 89.11 160.88 89.31 C 159.42 82.87 161.05 76.27 160.11 69.77 C 161.84 69.82 163.58 69.84 165.32 69.88 C 185.18 70.45 204.62 77.03 221.34 87.65 C 220.51 89.03 219.68 90.41 218.85 91.79 L 219.64 92.31 C 230.33 100.01 241.15 107.52 251.99 115.02 C 251.72 108.50 251.15 102.00 250.15 95.55 C 256.29 92.87 263.28 92.75 269.26 89.67 C 260.02 83.21 250.77 76.78 241.56 70.28 C 242.39 68.93 243.12 67.52 243.86 66.11 C 219.92 48.24 190.02 39.13 160.26 38.86 C 160.55 32.79 160.40 26.70 159.68 20.68 Z" />
<path fill="#edbf2b" opacity="1.00" d=" M 161.28 152.64 C 166.05 147.32 170.48 141.66 175.77 136.84 C 185.89 139.26 196.44 139.24 206.63 141.41 C 206.92 141.77 207.50 142.50 207.79 142.86 C 194.13 145.60 180.55 148.80 166.99 152.03 C 165.13 152.50 163.20 152.60 161.28 152.64 Z" />
</g>
<g id="#d6941cff">
<path fill="#d6941c" opacity="1.00" d=" M 12.26 29.29 C 17.50 23.01 22.69 16.70 28.01 10.50 C 51.12 18.68 75.46 23.59 100.01 23.97 C 120.71 23.77 141.67 20.10 160.30 10.76 C 160.17 13.78 160.21 16.81 159.79 19.81 C 159.76 20.03 159.71 20.46 159.68 20.68 C 140.96 28.83 120.46 32.67 100.08 32.41 C 76.56 32.48 53.20 27.86 30.91 20.56 C 28.19 23.95 24.59 26.88 22.89 30.93 C 24.28 35.33 26.66 39.33 28.37 43.61 C 39.41 69.40 48.43 96.74 48.96 125.04 C 48.12 148.99 43.02 172.97 32.85 194.74 C 28.66 203.98 23.33 212.64 18.63 221.62 C 16.36 225.41 16.98 229.98 17.62 234.12 C 19.26 243.85 24.56 252.61 31.24 259.73 C 40.89 270.08 52.88 277.83 64.95 285.05 C 82.67 295.33 101.27 303.98 119.36 313.60 C 133.41 321.13 147.38 329.09 159.56 339.46 C 159.74 339.67 160.10 340.09 160.28 340.30 C 160.40 343.98 160.30 347.66 159.99 351.32 C 149.78 341.75 138.12 333.90 125.95 327.07 C 105.73 315.63 84.54 306.03 64.31 294.63 C 50.43 286.70 36.72 277.99 25.62 266.34 C 17.63 257.92 11.18 247.57 9.23 235.98 C 8.42 230.94 7.26 225.47 9.61 220.65 C 13.24 212.52 18.13 205.04 22.06 197.07 C 32.97 176.06 38.90 152.61 40.08 129.01 C 40.89 109.22 36.02 89.75 29.81 71.13 C 24.99 56.77 18.80 42.93 12.26 29.29 Z" />
<path fill="#d6941c" opacity="1.00" d=" M 77.07 66.10 C 100.94 48.38 130.64 39.18 160.26 38.86 C 160.41 45.36 159.78 51.87 160.26 58.36 C 161.69 58.78 163.13 59.19 164.56 59.61 C 160.62 59.68 156.67 59.75 152.73 59.83 C 152.63 54.72 152.20 49.53 153.53 44.53 C 151.86 44.46 150.20 44.38 148.53 44.29 C 147.19 50.30 149.19 56.56 148.36 62.70 C 152.30 62.72 156.25 62.80 160.20 62.73 C 160.31 64.70 160.43 66.67 160.54 68.65 C 162.13 69.08 163.71 69.51 165.32 69.88 C 163.58 69.84 161.84 69.82 160.11 69.77 C 138.77 69.52 117.62 76.26 99.66 87.64 C 98.15 88.57 96.66 89.53 95.17 90.49 C 89.26 84.33 85.20 76.64 79.56 70.22 C 78.66 68.89 77.87 67.49 77.07 66.10 M 132.07 46.86 C 127.16 47.75 121.75 50.07 119.58 54.89 C 118.81 59.18 120.97 64.23 125.13 65.92 C 131.91 68.01 140.57 65.62 143.56 58.73 C 143.74 55.57 144.54 51.55 141.76 49.25 C 139.19 46.89 135.45 46.03 132.07 46.86 M 109.64 53.85 C 109.21 59.09 109.34 64.43 109.50 69.69 C 104.18 68.06 100.05 63.70 95.09 61.15 C 93.38 62.29 91.63 63.36 89.87 64.42 C 96.11 68.38 102.67 71.83 109.01 75.65 C 110.55 74.90 112.10 74.13 113.64 73.35 C 113.26 66.34 114.98 59.43 114.59 52.41 C 113.01 53.11 111.35 53.61 109.64 53.85 Z" />
<path fill="#d6941c" opacity="1.00" d=" M 126.95 51.94 C 129.71 49.71 133.34 50.11 136.63 50.36 C 139.01 52.37 138.74 55.63 139.56 58.37 C 137.18 61.45 133.54 64.46 129.39 63.44 C 126.72 62.87 125.71 60.23 124.48 58.14 C 124.48 55.86 124.66 53.14 126.95 51.94 Z" />
<path fill="#d6941c" opacity="1.00" d=" M 120.40 102.47 C 131.72 94.01 145.77 89.25 159.92 89.33 C 159.94 92.63 160.11 95.92 160.45 99.20 C 162.34 99.71 164.23 100.24 166.14 100.67 C 164.16 100.49 162.17 100.38 160.19 100.37 C 147.51 100.60 134.82 104.91 125.04 113.05 C 112.27 123.37 104.34 139.53 104.43 155.99 C 104.05 170.64 110.03 185.23 120.25 195.69 C 128.61 204.44 139.89 209.97 151.73 212.13 C 154.39 212.84 157.12 213.30 159.86 213.56 C 160.11 217.02 160.35 220.50 160.79 223.95 L 160.32 223.95 C 138.87 223.87 117.73 213.08 105.49 195.40 C 94.23 179.63 90.31 158.85 95.20 140.09 C 98.90 125.13 108.02 111.62 120.40 102.47 Z" />
<path fill="#d6941c" opacity="1.00" d=" M 68.66 247.18 C 73.71 240.46 78.16 233.29 83.51 226.81 C 86.47 228.94 89.46 231.05 92.58 232.95 C 112.72 245.44 136.39 252.55 160.14 252.31 C 163.85 252.17 167.57 252.19 171.28 252.23 C 167.72 252.80 164.13 253.12 160.55 253.61 C 160.80 265.37 161.52 277.18 160.54 288.91 C 163.78 289.06 167.01 289.30 170.24 289.41 C 166.93 289.75 163.61 290.01 160.29 289.93 C 125.18 289.43 90.11 278.13 62.11 256.77 C 64.11 253.45 66.41 250.33 68.66 247.18 M 87.99 238.00 C 85.47 246.24 83.39 254.61 81.03 262.91 C 82.33 263.60 83.59 264.41 85.00 264.84 C 88.25 263.18 89.44 259.41 92.10 257.10 C 96.17 253.64 99.14 249.15 102.94 245.40 C 101.65 244.79 100.36 244.18 99.08 243.56 C 97.90 246.09 95.87 248.02 93.85 249.88 C 91.55 251.94 89.96 254.61 87.97 256.94 C 87.76 256.47 87.33 255.51 87.12 255.03 C 88.23 249.95 89.76 244.96 90.88 239.88 C 90.85 238.32 89.05 238.43 87.99 238.00 M 99.09 258.08 C 96.17 261.19 92.96 264.07 90.88 267.88 C 92.19 268.51 93.49 269.19 94.87 269.69 C 96.09 268.16 96.99 266.18 98.93 265.42 C 102.16 265.51 105.34 266.91 107.57 269.26 C 107.53 271.09 107.52 272.92 107.52 274.75 C 108.89 275.10 110.26 275.50 111.61 275.93 C 111.61 266.85 111.57 257.77 111.63 248.69 C 110.30 248.58 109.07 248.19 107.93 247.51 C 105.67 251.59 101.70 254.26 99.09 258.08 M 121.45 251.83 C 120.17 257.06 118.34 262.13 117.31 267.42 C 116.75 270.71 114.57 273.86 115.67 277.27 C 116.67 277.39 117.67 277.52 118.68 277.65 C 120.16 272.51 122.34 267.49 122.85 262.12 L 124.46 261.99 C 125.19 267.82 127.11 273.41 127.96 279.21 C 129.47 279.92 131.19 280.16 132.72 280.88 C 134.04 272.50 135.44 264.12 136.47 255.73 C 135.17 255.64 134.01 255.22 132.97 254.45 C 133.50 259.14 131.14 263.51 131.21 268.17 C 130.58 268.50 129.31 269.15 128.68 269.48 C 128.50 264.16 126.12 259.20 126.14 253.84 C 124.57 253.16 123.01 252.50 121.45 251.83 M 146.24 257.22 C 144.43 258.46 142.75 259.91 141.66 261.84 C 138.23 266.11 139.00 271.99 139.86 277.02 C 141.31 278.38 142.64 279.88 144.21 281.12 C 147.36 281.77 150.65 283.03 153.89 282.07 C 155.54 281.32 157.03 280.27 158.57 279.32 C 158.49 275.96 158.50 272.60 158.57 269.25 C 155.82 269.24 153.08 269.22 150.33 269.18 C 150.29 270.46 150.26 271.75 150.22 273.03 C 151.86 273.07 153.50 273.10 155.14 273.13 C 156.53 278.44 149.12 280.30 145.88 277.26 C 141.70 274.12 142.60 268.02 144.81 263.96 C 146.72 259.54 155.48 260.20 155.33 265.58 C 156.50 265.52 157.67 265.46 158.84 265.40 C 157.70 262.65 156.80 259.36 154.11 257.72 C 151.58 256.89 148.86 257.35 146.24 257.22 Z" />
<path fill="#d6941c" opacity="1.00" d=" M 101.93 261.77 C 103.04 259.01 104.96 256.68 106.87 254.43 L 108.56 254.32 C 108.23 257.32 107.14 260.22 107.47 263.29 C 105.59 262.89 103.74 262.39 101.93 261.77 Z" />
</g>
<g id="#c88a1bff">
<path fill="#c88a1b" opacity="1.00" d=" M 160.30 10.76 C 166.21 13.26 172.08 15.92 178.24 17.76 C 191.09 21.86 204.59 23.43 218.02 23.93 C 243.56 24.09 268.91 18.93 292.96 10.53 C 298.21 16.72 303.65 22.80 308.50 29.30 C 307.90 32.32 305.93 34.89 304.75 37.71 C 294.88 59.07 286.47 81.32 282.52 104.59 C 280.59 115.95 280.42 127.56 281.65 139.01 C 283.53 154.91 287.28 170.65 293.50 185.44 C 297.46 194.85 302.38 203.81 307.38 212.69 C 310.14 218.02 313.83 223.58 312.64 229.89 C 311.67 245.94 302.57 260.27 290.87 270.82 C 276.37 284.09 258.99 293.60 241.72 302.72 C 224.08 312.08 205.87 320.41 188.76 330.75 C 178.76 336.88 168.83 343.47 160.73 352.04 C 160.54 351.86 160.18 351.50 159.99 351.32 C 160.30 347.66 160.40 343.98 160.28 340.30 C 185.59 319.19 216.48 306.77 245.15 291.14 C 260.51 282.77 275.86 273.74 288.31 261.28 C 297.13 252.45 303.88 240.70 303.94 227.94 C 304.16 225.20 302.99 222.66 301.72 220.32 C 296.54 210.74 290.89 201.39 286.62 191.36 C 277.52 170.79 273.09 148.37 271.98 125.98 C 272.44 97.35 281.44 69.67 292.63 43.59 C 294.34 39.32 296.69 35.33 298.17 30.98 C 296.44 26.92 292.82 23.98 290.07 20.60 C 263.03 29.42 234.39 34.20 205.93 31.88 C 190.07 30.27 174.20 26.82 159.79 19.81 C 160.21 16.81 160.17 13.78 160.30 10.76 Z" />
<path fill="#c88a1b" opacity="1.00" d=" M 160.26 38.86 C 190.02 39.13 219.92 48.24 243.86 66.11 C 243.12 67.52 242.39 68.93 241.56 70.28 C 235.74 76.57 231.84 84.42 225.80 90.48 C 224.31 89.53 222.84 88.57 221.34 87.65 C 204.62 77.03 185.18 70.45 165.32 69.88 C 163.71 69.51 162.13 69.08 160.54 68.65 C 160.43 66.67 160.31 64.70 160.20 62.73 C 161.28 62.71 162.36 62.69 163.44 62.67 C 163.72 61.90 164.28 60.37 164.56 59.61 C 163.13 59.19 161.69 58.78 160.26 58.36 C 159.78 51.87 160.41 45.36 160.26 38.86 M 168.79 50.76 C 168.19 53.85 167.53 57.56 169.93 60.08 C 173.98 65.59 184.18 65.26 187.21 58.98 C 186.13 58.50 185.05 58.02 183.98 57.54 C 181.90 60.10 178.32 61.66 175.24 59.81 C 170.36 56.98 172.53 48.66 177.97 48.00 C 181.02 46.69 183.79 49.20 185.39 51.55 C 186.90 51.65 188.41 51.74 189.94 51.82 C 189.52 48.07 185.93 45.70 182.42 45.28 C 177.31 43.69 171.30 45.97 168.79 50.76 M 196.33 49.10 C 195.21 51.79 194.00 54.44 193.17 57.22 C 192.36 60.45 190.27 63.26 190.09 66.65 C 195.32 68.11 199.99 71.61 205.53 71.82 C 205.60 71.24 205.74 70.06 205.81 69.48 C 202.44 67.85 198.79 66.90 195.45 65.24 C 194.72 63.14 196.24 60.94 197.37 59.19 C 201.34 60.25 205.07 63.37 209.15 63.11 C 209.25 62.56 209.44 61.46 209.54 60.92 C 206.17 59.72 202.79 58.57 199.49 57.22 C 197.46 56.61 199.09 54.49 199.34 53.22 C 203.63 52.96 207.19 55.77 211.17 56.87 C 212.88 58.26 214.68 56.99 214.62 54.93 C 208.35 53.57 202.75 49.88 196.33 49.10 M 219.38 58.17 C 216.19 63.73 212.36 68.92 208.47 74.01 C 212.40 77.06 216.57 79.78 220.51 82.81 C 221.63 82.32 222.54 81.51 223.03 80.37 C 220.04 78.37 217.13 76.27 214.15 74.27 C 216.59 69.33 220.76 65.49 223.79 60.92 C 223.55 58.84 220.97 58.70 219.38 58.17 Z" />
<path fill="#c88a1b" opacity="1.00" d=" M 160.88 89.31 C 181.01 89.11 200.83 98.90 213.23 114.71 C 225.46 129.85 230.46 150.56 226.55 169.62 C 223.63 184.92 215.06 199.08 202.92 208.83 C 191.13 218.53 176.01 223.74 160.79 223.95 C 160.35 220.50 160.11 217.02 159.86 213.56 C 157.12 213.30 154.39 212.84 151.73 212.13 C 154.80 212.45 157.89 212.65 160.98 212.70 C 173.86 212.58 186.69 207.93 196.53 199.59 C 208.99 189.25 216.71 173.26 216.57 157.02 C 216.87 142.15 210.77 127.29 200.16 116.87 C 191.18 107.68 178.87 102.06 166.14 100.67 C 164.23 100.24 162.34 99.71 160.45 99.20 C 160.11 95.92 159.94 92.63 159.92 89.33 C 160.16 89.33 160.64 89.32 160.88 89.31 Z" />
<path fill="#c88a1b" opacity="1.00" d=" M 237.48 226.83 C 243.04 233.13 247.14 240.57 252.37 247.16 C 254.53 250.26 256.65 253.40 258.89 256.46 C 255.58 259.72 251.52 262.04 247.64 264.53 C 224.48 279.17 197.58 287.77 170.24 289.41 C 167.01 289.30 163.78 289.06 160.54 288.91 C 161.52 277.18 160.80 265.37 160.55 253.61 C 164.13 253.12 167.72 252.80 171.28 252.23 C 175.52 251.51 179.78 250.95 184.03 250.25 C 199.73 247.30 214.86 241.39 228.43 232.97 C 231.54 231.06 234.51 228.95 237.48 226.83 M 222.21 245.77 C 226.12 252.91 229.37 260.41 232.47 267.93 C 235.84 267.27 238.66 265.15 241.60 263.49 C 245.14 261.29 246.34 256.54 244.62 252.81 C 242.20 247.45 238.26 241.82 232.03 240.79 C 228.30 241.12 225.17 243.65 222.21 245.77 M 203.94 251.85 C 206.46 259.80 208.10 268.00 210.72 275.92 C 212.08 275.84 213.44 275.75 214.81 275.68 C 214.46 272.02 212.95 268.64 211.97 265.14 C 212.47 264.71 213.49 263.86 213.99 263.43 C 218.08 265.46 221.58 268.51 224.87 271.64 C 226.61 270.80 228.34 269.97 230.08 269.15 C 226.04 267.08 223.36 262.75 218.73 261.84 C 219.63 260.91 220.52 259.98 221.41 259.05 C 221.90 255.14 221.19 250.42 217.22 248.57 C 212.57 248.20 208.42 251.00 203.94 251.85 M 185.19 281.76 C 186.61 281.00 188.15 280.54 189.77 280.55 C 190.72 278.54 190.12 275.51 192.16 274.22 C 194.73 273.92 197.28 273.48 199.82 273.00 C 200.77 274.80 201.69 276.66 203.09 278.17 C 204.66 278.57 206.18 277.48 207.72 277.28 C 203.66 269.44 198.19 262.43 193.93 254.70 C 192.56 254.67 191.20 254.64 189.84 254.61 C 187.85 263.56 186.67 272.71 185.19 281.76 M 175.42 257.45 C 175.36 259.67 175.82 261.83 176.37 263.97 C 176.52 268.08 176.28 272.19 176.49 276.31 C 175.15 278.57 172.76 278.84 170.36 278.67 C 169.66 278.02 168.95 277.36 168.25 276.71 C 167.62 273.85 166.71 270.98 166.97 268.01 C 166.83 264.31 167.78 260.31 165.73 256.97 C 165.18 257.11 164.07 257.38 163.52 257.52 C 163.77 264.03 163.39 270.55 163.71 277.05 C 164.84 279.21 166.62 281.10 168.73 282.33 C 171.81 282.76 174.89 282.12 177.85 281.29 C 178.72 280.44 179.60 279.59 180.48 278.75 C 180.81 276.55 182.27 274.18 180.68 272.16 C 181.25 266.73 179.34 261.53 179.78 256.12 C 178.27 256.36 176.81 256.82 175.42 257.45 Z" />
<path fill="#c88a1b" opacity="1.00" d=" M 227.17 246.98 C 229.17 246.17 231.17 245.34 233.16 244.49 C 236.98 247.29 239.67 251.43 241.27 255.84 C 242.22 259.81 237.26 260.81 234.78 262.54 C 232.25 257.35 229.54 252.24 227.17 246.98 Z" />
<path fill="#c88a1b" opacity="1.00" d=" M 208.28 254.76 C 210.57 254.26 212.81 253.57 214.94 252.63 C 215.59 252.99 216.88 253.70 217.53 254.06 C 217.46 255.41 217.40 256.76 217.35 258.11 C 215.12 258.96 212.88 259.76 210.73 260.76 C 209.92 258.76 209.12 256.75 208.28 254.76 Z" />
<path fill="#c88a1b" opacity="1.00" d=" M 191.69 269.77 C 191.99 267.05 190.49 261.46 194.39 261.11 C 194.22 264.23 197.25 266.49 196.62 269.65 C 194.98 269.69 193.33 269.72 191.69 269.77 Z" />
</g>
<g id="#ffcd2eff">
<path fill="#ffcd2e" opacity="1.00" d=" M 22.89 30.93 C 24.59 26.88 28.19 23.95 30.91 20.56 C 53.20 27.86 76.56 32.48 100.08 32.41 C 120.46 32.67 140.96 28.83 159.68 20.68 C 160.40 26.70 160.55 32.79 160.26 38.86 C 130.64 39.18 100.94 48.38 77.07 66.10 C 77.87 67.49 78.66 68.89 79.56 70.22 C 70.24 76.83 60.73 83.16 51.57 89.98 C 57.64 92.19 64.07 93.16 70.21 95.14 C 70.90 101.66 68.65 108.41 69.16 115.08 C 79.80 107.34 90.77 100.06 101.40 92.30 L 102.24 91.75 C 101.38 90.38 100.51 89.01 99.66 87.64 C 117.62 76.26 138.77 69.52 160.11 69.77 C 161.05 76.27 159.42 82.87 160.88 89.31 C 160.64 89.32 160.16 89.33 159.92 89.33 C 145.77 89.25 131.72 94.01 120.40 102.47 C 108.02 111.62 98.90 125.13 95.20 140.09 C 90.31 158.85 94.23 179.63 105.49 195.40 C 117.73 213.08 138.87 223.87 160.32 223.95 C 160.17 233.40 160.32 242.86 160.14 252.31 C 136.39 252.55 112.72 245.44 92.58 232.95 C 94.63 230.03 96.68 227.12 98.77 224.22 C 98.84 224.12 98.99 223.92 99.06 223.81 C 83.26 212.07 67.61 200.11 51.69 188.54 C 54.28 198.38 57.65 208.00 60.16 217.86 C 50.31 218.33 40.45 218.05 30.61 218.54 C 43.13 228.29 56.03 237.56 68.66 247.18 C 66.41 250.33 64.11 253.45 62.11 256.77 C 90.11 278.13 125.18 289.43 160.29 289.93 C 160.41 303.29 160.08 316.66 160.28 330.03 C 160.40 333.19 160.04 336.34 159.56 339.46 C 147.38 329.09 133.41 321.13 119.36 313.60 C 101.27 303.98 82.67 295.33 64.95 285.05 C 52.88 277.83 40.89 270.08 31.24 259.73 C 24.56 252.61 19.26 243.85 17.62 234.12 C 16.98 229.98 16.36 225.41 18.63 221.62 C 23.33 212.64 28.66 203.98 32.85 194.74 C 43.02 172.97 48.12 148.99 48.96 125.04 C 48.43 96.74 39.41 69.40 28.37 43.61 C 26.66 39.33 24.28 35.33 22.89 30.93 Z" />
</g>
<g id="#2a586bff">
<path fill="#2a586b" opacity="1.00" d=" M 148.36 62.70 C 149.19 56.56 147.19 50.30 148.53 44.29 C 150.20 44.38 151.86 44.46 153.53 44.53 C 152.20 49.53 152.63 54.72 152.73 59.83 C 156.67 59.75 160.62 59.68 164.56 59.61 C 164.28 60.37 163.72 61.90 163.44 62.67 C 162.36 62.69 161.28 62.71 160.20 62.73 C 156.25 62.80 152.30 62.72 148.36 62.70 Z" />
<path fill="#2a586b" opacity="1.00" d=" M 168.79 50.76 C 171.30 45.97 177.31 43.69 182.42 45.28 C 185.93 45.70 189.52 48.07 189.94 51.82 C 188.41 51.74 186.90 51.65 185.39 51.55 C 183.79 49.20 181.02 46.69 177.97 48.00 C 172.53 48.66 170.36 56.98 175.24 59.81 C 178.32 61.66 181.90 60.10 183.98 57.54 C 185.05 58.02 186.13 58.50 187.21 58.98 C 184.18 65.26 173.98 65.59 169.93 60.08 C 167.53 57.56 168.19 53.85 168.79 50.76 Z" />
<path fill="#2a586b" opacity="1.00" d=" M 132.07 46.86 C 135.45 46.03 139.19 46.89 141.76 49.25 C 144.54 51.55 143.74 55.57 143.56 58.73 C 140.57 65.62 131.91 68.01 125.13 65.92 C 120.97 64.23 118.81 59.18 119.58 54.89 C 121.75 50.07 127.16 47.75 132.07 46.86 M 126.95 51.94 C 124.66 53.14 124.48 55.86 124.48 58.14 C 125.71 60.23 126.72 62.87 129.39 63.44 C 133.54 64.46 137.18 61.45 139.56 58.37 C 138.74 55.63 139.01 52.37 136.63 50.36 C 133.34 50.11 129.71 49.71 126.95 51.94 Z" />
<path fill="#2a586b" opacity="1.00" d=" M 196.33 49.10 C 202.75 49.88 208.35 53.57 214.62 54.93 C 214.68 56.99 212.88 58.26 211.17 56.87 C 207.19 55.77 203.63 52.96 199.34 53.22 C 199.09 54.49 197.46 56.61 199.49 57.22 C 202.79 58.57 206.17 59.72 209.54 60.92 C 209.44 61.46 209.25 62.56 209.15 63.11 C 205.07 63.37 201.34 60.25 197.37 59.19 C 196.24 60.94 194.72 63.14 195.45 65.24 C 198.79 66.90 202.44 67.85 205.81 69.48 C 205.74 70.06 205.60 71.24 205.53 71.82 C 199.99 71.61 195.32 68.11 190.09 66.65 C 190.27 63.26 192.36 60.45 193.17 57.22 C 194.00 54.44 195.21 51.79 196.33 49.10 Z" />
<path fill="#2a586b" opacity="1.00" d=" M 109.64 53.85 C 111.35 53.61 113.01 53.11 114.59 52.41 C 114.98 59.43 113.26 66.34 113.64 73.35 C 112.10 74.13 110.55 74.90 109.01 75.65 C 102.67 71.83 96.11 68.38 89.87 64.42 C 91.63 63.36 93.38 62.29 95.09 61.15 C 100.05 63.70 104.18 68.06 109.50 69.69 C 109.34 64.43 109.21 59.09 109.64 53.85 Z" />
<path fill="#2a586b" opacity="1.00" d=" M 219.38 58.17 C 220.97 58.70 223.55 58.84 223.79 60.92 C 220.76 65.49 216.59 69.33 214.15 74.27 C 217.13 76.27 220.04 78.37 223.03 80.37 C 222.54 81.51 221.63 82.32 220.51 82.81 C 216.57 79.78 212.40 77.06 208.47 74.01 C 212.36 68.92 216.19 63.73 219.38 58.17 Z" />
<path fill="#2a586b" opacity="1.00" d=" M 87.99 238.00 C 89.05 238.43 90.85 238.32 90.88 239.88 C 89.76 244.96 88.23 249.95 87.12 255.03 C 87.33 255.51 87.76 256.47 87.97 256.94 C 89.96 254.61 91.55 251.94 93.85 249.88 C 95.87 248.02 97.90 246.09 99.08 243.56 C 100.36 244.18 101.65 244.79 102.94 245.40 C 99.14 249.15 96.17 253.64 92.10 257.10 C 89.44 259.41 88.25 263.18 85.00 264.84 C 83.59 264.41 82.33 263.60 81.03 262.91 C 83.39 254.61 85.47 246.24 87.99 238.00 Z" />
<path fill="#2a586b" opacity="1.00" d=" M 222.21 245.77 C 225.17 243.65 228.30 241.12 232.03 240.79 C 238.26 241.82 242.20 247.45 244.62 252.81 C 246.34 256.54 245.14 261.29 241.60 263.49 C 238.66 265.15 235.84 267.27 232.47 267.93 C 229.37 260.41 226.12 252.91 222.21 245.77 M 227.17 246.98 C 229.54 252.24 232.25 257.35 234.78 262.54 C 237.26 260.81 242.22 259.81 241.27 255.84 C 239.67 251.43 236.98 247.29 233.16 244.49 C 231.17 245.34 229.17 246.17 227.17 246.98 Z" />
<path fill="#2a586b" opacity="1.00" d=" M 99.09 258.08 C 101.70 254.26 105.67 251.59 107.93 247.51 C 109.07 248.19 110.30 248.58 111.63 248.69 C 111.57 257.77 111.61 266.85 111.61 275.93 C 110.26 275.50 108.89 275.10 107.52 274.75 C 107.52 272.92 107.53 271.09 107.57 269.26 C 105.34 266.91 102.16 265.51 98.93 265.42 C 96.99 266.18 96.09 268.16 94.87 269.69 C 93.49 269.19 92.19 268.51 90.88 267.88 C 92.96 264.07 96.17 261.19 99.09 258.08 M 101.93 261.77 C 103.74 262.39 105.59 262.89 107.47 263.29 C 107.14 260.22 108.23 257.32 108.56 254.32 L 106.87 254.43 C 104.96 256.68 103.04 259.01 101.93 261.77 Z" />
<path fill="#2a586b" opacity="1.00" d=" M 203.94 251.85 C 208.42 251.00 212.57 248.20 217.22 248.57 C 221.19 250.42 221.90 255.14 221.41 259.05 C 220.52 259.98 219.63 260.91 218.73 261.84 C 223.36 262.75 226.04 267.08 230.08 269.15 C 228.34 269.97 226.61 270.80 224.87 271.64 C 221.58 268.51 218.08 265.46 213.99 263.43 C 213.49 263.86 212.47 264.71 211.97 265.14 C 212.95 268.64 214.46 272.02 214.81 275.68 C 213.44 275.75 212.08 275.84 210.72 275.92 C 208.10 268.00 206.46 259.80 203.94 251.85 M 208.28 254.76 C 209.12 256.75 209.92 258.76 210.73 260.76 C 212.88 259.76 215.12 258.96 217.35 258.11 C 217.40 256.76 217.46 255.41 217.53 254.06 C 216.88 253.70 215.59 252.99 214.94 252.63 C 212.81 253.57 210.57 254.26 208.28 254.76 Z" />
<path fill="#2a586b" opacity="1.00" d=" M 121.45 251.83 C 123.01 252.50 124.57 253.16 126.14 253.84 C 126.12 259.20 128.50 264.16 128.68 269.48 C 129.31 269.15 130.58 268.50 131.21 268.17 C 131.14 263.51 133.50 259.14 132.97 254.45 C 134.01 255.22 135.17 255.64 136.47 255.73 C 135.44 264.12 134.04 272.50 132.72 280.88 C 131.19 280.16 129.47 279.92 127.96 279.21 C 127.11 273.41 125.19 267.82 124.46 261.99 L 122.85 262.12 C 122.34 267.49 120.16 272.51 118.68 277.65 C 117.67 277.52 116.67 277.39 115.67 277.27 C 114.57 273.86 116.75 270.71 117.31 267.42 C 118.34 262.13 120.17 257.06 121.45 251.83 Z" />
<path fill="#2a586b" opacity="1.00" d=" M 185.19 281.76 C 186.67 272.71 187.85 263.56 189.84 254.61 C 191.20 254.64 192.56 254.67 193.93 254.70 C 198.19 262.43 203.66 269.44 207.72 277.28 C 206.18 277.48 204.66 278.57 203.09 278.17 C 201.69 276.66 200.77 274.80 199.82 273.00 C 197.28 273.48 194.73 273.92 192.16 274.22 C 190.12 275.51 190.72 278.54 189.77 280.55 C 188.15 280.54 186.61 281.00 185.19 281.76 M 191.69 269.77 C 193.33 269.72 194.98 269.69 196.62 269.65 C 197.25 266.49 194.22 264.23 194.39 261.11 C 190.49 261.46 191.99 267.05 191.69 269.77 Z" />
<path fill="#2a586b" opacity="1.00" d=" M 175.42 257.45 C 176.81 256.82 178.27 256.36 179.78 256.12 C 179.34 261.53 181.25 266.73 180.68 272.16 C 182.27 274.18 180.81 276.55 180.48 278.75 C 179.60 279.59 178.72 280.44 177.85 281.29 C 174.89 282.12 171.81 282.76 168.73 282.33 C 166.62 281.10 164.84 279.21 163.71 277.05 C 163.39 270.55 163.77 264.03 163.52 257.52 C 164.07 257.38 165.18 257.11 165.73 256.97 C 167.78 260.31 166.83 264.31 166.97 268.01 C 166.71 270.98 167.62 273.85 168.25 276.71 C 168.95 277.36 169.66 278.02 170.36 278.67 C 172.76 278.84 175.15 278.57 176.49 276.31 C 176.28 272.19 176.52 268.08 176.37 263.97 C 175.82 261.83 175.36 259.67 175.42 257.45 Z" />
<path fill="#2a586b" opacity="1.00" d=" M 146.24 257.22 C 148.86 257.35 151.58 256.89 154.11 257.72 C 156.80 259.36 157.70 262.65 158.84 265.40 C 157.67 265.46 156.50 265.52 155.33 265.58 C 155.48 260.20 146.72 259.54 144.81 263.96 C 142.60 268.02 141.70 274.12 145.88 277.26 C 149.12 280.30 156.53 278.44 155.14 273.13 C 153.50 273.10 151.86 273.07 150.22 273.03 C 150.26 271.75 150.29 270.46 150.33 269.18 C 153.08 269.22 155.82 269.24 158.57 269.25 C 158.50 272.60 158.49 275.96 158.57 279.32 C 157.03 280.27 155.54 281.32 153.89 282.07 C 150.65 283.03 147.36 281.77 144.21 281.12 C 142.64 279.88 141.31 278.38 139.86 277.02 C 139.00 271.99 138.23 266.11 141.66 261.84 C 142.75 259.91 144.43 258.46 146.24 257.22 Z" />
</g>
<g id="#ba8118ff">
<path fill="#ba8118" opacity="1.00" d=" M 51.57 89.98 C 60.73 83.16 70.24 76.83 79.56 70.22 C 85.20 76.64 89.26 84.33 95.17 90.49 C 97.19 91.26 99.28 91.86 101.40 92.30 C 90.77 100.06 79.80 107.34 69.16 115.08 C 68.65 108.41 70.90 101.66 70.21 95.14 C 64.07 93.16 57.64 92.19 51.57 89.98 Z" />
<path fill="#ba8118" opacity="1.00" d=" M 51.69 188.54 C 67.61 200.11 83.26 212.07 99.06 223.81 C 98.99 223.92 98.84 224.12 98.77 224.22 C 93.60 224.45 88.50 225.45 83.51 226.81 C 78.16 233.29 73.71 240.46 68.66 247.18 C 56.03 237.56 43.13 228.29 30.61 218.54 C 40.45 218.05 50.31 218.33 60.16 217.86 C 57.65 208.00 54.28 198.38 51.69 188.54 Z" />
</g>
<g id="#ad7818ff">
<path fill="#ad7818" opacity="1.00" d=" M 225.80 90.48 C 231.84 84.42 235.74 76.57 241.56 70.28 C 250.77 76.78 260.02 83.21 269.26 89.67 C 263.28 92.75 256.29 92.87 250.15 95.55 C 251.15 102.00 251.72 108.50 251.99 115.02 C 241.15 107.52 230.33 100.01 219.64 92.31 C 221.72 91.82 223.78 91.21 225.80 90.48 Z" />
<path fill="#ad7818" opacity="1.00" d=" M 221.83 223.89 C 237.68 212.15 253.34 200.14 269.31 188.55 C 266.72 198.39 263.33 207.99 260.87 217.86 C 270.66 218.41 280.50 217.90 290.29 218.64 C 277.78 228.33 264.94 237.56 252.37 247.16 C 247.14 240.57 243.04 233.13 237.48 226.83 C 232.55 225.45 227.49 224.46 222.37 224.27 C 222.23 224.17 221.96 223.98 221.83 223.89 Z" />
</g>
<g id="#a39458ff">
<path fill="#a39458" opacity="1.00" d=" M 25.19 84.81 C 25.35 85.40 25.67 86.58 25.84 87.18 C 25.67 86.58 25.35 85.40 25.19 84.81 Z" />
</g>
<g id="#785410ff">
<path fill="#785410" opacity="1.00" d=" M 95.17 90.49 C 96.66 89.53 98.15 88.57 99.66 87.64 C 100.51 89.01 101.38 90.38 102.24 91.75 L 101.40 92.30 C 99.28 91.86 97.19 91.26 95.17 90.49 Z" />
</g>
<g id="#6d4a0dff">
<path fill="#6d4a0d" opacity="1.00" d=" M 221.34 87.65 C 222.84 88.57 224.31 89.53 225.80 90.48 C 223.78 91.21 221.72 91.82 219.64 92.31 L 218.85 91.79 C 219.68 90.41 220.51 89.03 221.34 87.65 Z" />
</g>
<g id="#356480ff">
<path fill="#356480" opacity="1.00" d=" M 125.04 113.05 C 134.82 104.91 147.51 100.60 160.19 100.37 C 160.32 102.91 160.12 105.53 160.93 107.98 L 160.12 108.58 C 158.43 109.42 157.67 111.18 156.92 112.78 C 153.99 119.20 150.90 125.54 148.00 131.97 C 147.02 133.87 146.25 136.18 144.23 137.25 C 134.34 139.05 124.23 139.44 114.37 141.43 C 114.15 141.74 113.72 142.37 113.51 142.69 L 113.25 144.05 C 120.37 151.72 128.81 158.10 135.76 165.93 C 134.98 176.66 131.08 186.99 130.71 197.74 C 131.30 197.92 132.49 198.30 133.08 198.48 C 142.29 193.79 151.12 188.37 160.37 183.74 C 160.48 193.39 159.24 203.13 160.98 212.70 C 157.89 212.65 154.80 212.45 151.73 212.13 C 139.89 209.97 128.61 204.44 120.25 195.69 C 110.03 185.23 104.05 170.64 104.43 155.99 C 104.34 139.53 112.27 123.37 125.04 113.05 Z" />
</g>
<g id="#315d76ff">
<path fill="#315d76" opacity="1.00" d=" M 160.19 100.37 C 162.17 100.38 164.16 100.49 166.14 100.67 C 178.87 102.06 191.18 107.68 200.16 116.87 C 210.77 127.29 216.87 142.15 216.57 157.02 C 216.71 173.26 208.99 189.25 196.53 199.59 C 186.69 207.93 173.86 212.58 160.98 212.70 C 159.24 203.13 160.48 193.39 160.37 183.74 C 160.62 183.84 161.12 184.05 161.38 184.15 C 169.62 188.27 177.54 193.02 185.67 197.36 C 186.89 198.01 188.20 198.35 189.59 198.37 C 190.32 197.05 190.66 195.56 190.26 194.08 C 188.58 184.72 186.41 175.44 185.08 166.02 C 190.50 160.09 196.63 154.86 202.45 149.33 C 204.38 147.34 207.14 145.75 207.79 142.86 C 207.50 142.50 206.92 141.77 206.63 141.41 C 196.44 139.24 185.89 139.26 175.77 136.84 C 169.99 127.67 167.27 116.79 160.93 107.98 C 160.12 105.53 160.32 102.91 160.19 100.37 Z" />
</g>
<g id="#9e9063ff">
<path fill="#9e9063" opacity="1.00" d=" M 30.16 107.87 C 30.37 108.45 30.77 109.59 30.97 110.17 C 30.77 109.59 30.37 108.45 30.16 107.87 Z" />
</g>
<g id="#fecc2eff">
<path fill="#fecc2e" opacity="1.00" d=" M 156.92 112.78 C 157.67 111.18 158.43 109.42 160.12 108.58 C 160.49 121.39 160.11 134.21 160.30 147.02 C 160.29 149.30 160.43 151.61 160.02 153.87 C 158.95 156.64 156.98 158.93 155.38 161.40 C 149.19 170.86 143.01 180.34 136.82 189.81 C 135.07 192.66 133.24 195.50 130.71 197.74 C 131.08 186.99 134.98 176.66 135.76 165.93 C 143.32 161.29 151.95 158.57 159.16 153.33 C 154.94 151.50 150.33 151.07 145.89 150.04 C 135.23 147.05 124.34 144.98 113.51 142.69 C 113.72 142.37 114.15 141.74 114.37 141.43 C 124.23 139.44 134.34 139.05 144.23 137.25 C 146.25 136.18 147.02 133.87 148.00 131.97 C 150.90 125.54 153.99 119.20 156.92 112.78 Z" />
</g>
<g id="#d8ad26ff">
<path fill="#d8ad26" opacity="1.00" d=" M 160.12 108.58 L 160.93 107.98 C 161.03 122.86 160.36 137.79 161.28 152.64 C 163.20 152.60 165.13 152.50 166.99 152.03 C 180.55 148.80 194.13 145.60 207.79 142.86 C 207.14 145.75 204.38 147.34 202.45 149.33 C 196.63 154.86 190.50 160.09 185.08 166.02 C 177.50 161.36 169.28 157.81 161.30 153.88 L 161.20 154.63 C 159.87 160.35 161.24 166.20 160.95 171.98 C 161.12 176.03 160.04 180.22 161.38 184.15 C 161.12 184.05 160.62 183.84 160.37 183.74 C 151.12 188.37 142.29 193.79 133.08 198.48 C 132.49 198.30 131.30 197.92 130.71 197.74 C 133.24 195.50 135.07 192.66 136.82 189.81 C 143.01 180.34 149.19 170.86 155.38 161.40 C 156.98 158.93 158.95 156.64 160.02 153.87 C 160.43 151.61 160.29 149.30 160.30 147.02 C 160.11 134.21 160.49 121.39 160.12 108.58 Z" />
</g>
<g id="#bf9821ff">
<path fill="#bf9821" opacity="1.00" d=" M 160.93 107.98 C 167.27 116.79 169.99 127.67 175.77 136.84 C 170.48 141.66 166.05 147.32 161.28 152.64 C 160.36 137.79 161.03 122.86 160.93 107.98 Z" />
<path fill="#bf9821" opacity="1.00" d=" M 161.30 153.88 C 169.28 157.81 177.50 161.36 185.08 166.02 C 186.41 175.44 188.58 184.72 190.26 194.08 C 190.66 195.56 190.32 197.05 189.59 198.37 C 180.39 183.63 170.80 169.12 161.20 154.63 L 161.30 153.88 Z" />
</g>
<g id="#f2c32bff">
<path fill="#f2c32b" opacity="1.00" d=" M 113.51 142.69 C 124.34 144.98 135.23 147.05 145.89 150.04 C 150.33 151.07 154.94 151.50 159.16 153.33 C 151.95 158.57 143.32 161.29 135.76 165.93 C 128.81 158.10 120.37 151.72 113.25 144.05 L 113.51 142.69 Z" />
</g>
<g id="#e2b528ff">
<path fill="#e2b528" opacity="1.00" d=" M 161.20 154.63 C 170.80 169.12 180.39 183.63 189.59 198.37 C 188.20 198.35 186.89 198.01 185.67 197.36 C 177.54 193.02 169.62 188.27 161.38 184.15 C 160.04 180.22 161.12 176.03 160.95 171.98 C 161.24 166.20 159.87 160.35 161.20 154.63 Z" />
</g>
<g id="#313c35ff">
<path fill="#313c35" opacity="1.00" d=" M 316.29 207.22 C 316.80 207.73 316.80 207.73 316.29 207.22 Z" />
</g>
<g id="#66450fff">
<path fill="#66450f" opacity="1.00" d=" M 83.51 226.81 C 88.50 225.45 93.60 224.45 98.77 224.22 C 96.68 227.12 94.63 230.03 92.58 232.95 C 89.46 231.05 86.47 228.94 83.51 226.81 Z" />
</g>
<g id="#5e410eff">
<path fill="#5e410e" opacity="1.00" d=" M 222.37 224.27 C 227.49 224.46 232.55 225.45 237.48 226.83 C 234.51 228.95 231.54 231.06 228.43 232.97 C 226.39 230.08 224.39 227.17 222.37 224.27 Z" />
</g>
</svg>
