<?xml version="1.0" encoding="UTF-8" ?>
<!DOCTYPE svg PUBLIC "-//W3C//DTD SVG 1.1//EN" "http://www.w3.org/Graphics/SVG/1.1/DTD/svg11.dtd">
<svg width="408pt" height="408pt" viewBox="0 0 408 408" version="1.1" xmlns="http://www.w3.org/2000/svg">
<g id="#ffffffff">
<path fill="#ffffff" opacity="1.00" d=" M 299.52 42.74 C 307.27 39.80 315.48 42.35 322.84 45.17 C 333.97 49.78 343.38 57.50 352.08 65.68 C 361.91 75.54 370.25 86.85 377.02 99.02 C 382.04 108.41 386.48 118.25 388.34 128.81 C 390.15 134.85 388.76 141.26 385.94 146.73 C 383.80 150.66 379.63 152.94 375.51 154.24 C 361.32 157.59 347.25 161.37 333.19 165.18 C 324.45 167.69 315.45 169.42 307.08 173.08 C 301.24 175.41 295.73 178.49 290.32 181.67 C 260.69 202.47 230.30 222.13 200.13 242.11 C 191.06 246.99 183.51 254.06 175.37 260.28 C 163.11 270.03 150.78 279.70 138.46 289.37 C 130.47 296.17 121.67 301.89 113.60 308.58 C 111.62 309.99 110.87 312.67 108.45 313.54 C 101.70 316.12 96.64 321.51 90.86 325.67 C 77.95 335.06 65.73 345.38 52.87 354.84 C 50.42 357.73 50.45 362.00 47.87 364.85 C 45.91 367.73 42.81 369.59 39.42 370.26 C 26.39 371.82 14.18 356.24 20.24 344.20 C 21.46 341.86 22.97 339.54 25.16 338.01 C 29.37 336.49 34.07 336.24 38.06 334.19 C 50.01 321.68 63.60 310.96 76.47 299.43 C 80.78 296.24 85.14 292.91 88.15 288.40 C 91.54 285.67 95.02 283.03 98.23 280.08 C 106.86 273.88 113.87 265.80 121.97 258.97 C 130.38 251.06 139.17 243.56 147.45 235.50 C 154.90 229.29 161.56 222.15 169.41 216.44 C 188.86 196.89 207.47 176.53 226.19 156.28 C 235.92 145.36 245.90 134.64 255.27 123.40 C 264.30 107.11 272.16 90.22 280.39 73.51 C 282.88 68.54 284.53 63.19 287.17 58.28 C 288.95 55.19 289.27 51.37 291.69 48.65 C 293.79 46.11 296.43 43.93 299.52 42.74 M 295.90 53.89 C 292.97 61.19 289.90 68.45 286.63 75.61 C 278.34 92.74 270.23 109.99 261.01 126.65 C 241.77 149.47 221.03 171.01 201.18 193.30 C 194.28 199.44 188.61 206.85 181.85 213.16 C 178.20 216.33 175.22 220.20 171.37 223.15 C 170.23 223.96 169.14 224.82 168.07 225.70 C 152.87 239.32 137.72 252.99 122.87 267.00 L 122.78 267.27 C 117.86 271.09 113.59 275.67 108.93 279.80 C 103.43 283.98 98.33 288.65 92.95 292.97 C 90.02 298.07 84.48 300.63 80.56 304.81 C 68.34 315.08 55.93 325.24 44.77 336.69 C 41.03 341.90 34.08 342.00 28.50 343.78 C 22.06 348.62 25.87 358.60 31.73 362.18 C 35.08 364.07 40.71 365.00 42.82 360.92 C 45.13 357.10 45.57 352.34 48.82 349.06 C 51.96 348.13 54.27 345.73 56.65 343.63 C 57.97 343.07 59.10 342.14 60.20 341.24 C 73.15 330.65 86.87 321.02 99.80 310.41 C 101.72 309.46 103.71 308.61 105.53 307.47 C 110.95 301.78 117.51 297.33 123.84 292.74 C 143.74 276.99 163.73 261.36 183.61 245.60 C 187.73 241.87 192.58 239.16 197.26 236.22 C 215.48 224.20 233.87 212.37 251.87 200.05 C 263.38 192.51 274.75 184.75 285.98 176.80 C 294.95 171.02 304.75 166.57 314.93 163.37 C 334.72 157.96 354.55 152.70 374.46 147.75 C 380.43 146.35 382.86 139.59 382.44 134.06 C 381.83 126.36 379.60 118.75 376.10 111.87 C 370.78 99.11 362.83 87.55 353.94 77.02 C 345.05 67.56 335.41 58.29 323.52 52.74 C 317.96 49.38 311.36 47.84 304.90 48.09 C 301.24 48.45 297.58 50.54 295.90 53.89 Z" />
</g>
<g id="#750b0fff">
<path fill="#750b0f" opacity="1.00" d=" M 295.90 53.89 C 297.58 50.54 301.24 48.45 304.90 48.09 C 311.36 47.84 317.96 49.38 323.52 52.74 C 318.62 52.36 313.74 51.76 308.84 51.60 C 310.62 51.14 312.41 50.73 314.20 50.30 C 308.93 49.88 302.35 48.98 298.51 53.52 C 296.42 56.98 295.54 61.04 293.35 64.45 C 283.25 86.59 271.98 108.18 260.41 129.57 C 259.19 131.40 259.25 133.63 259.51 135.72 C 258.29 136.18 257.08 136.63 255.86 137.09 C 255.75 136.58 255.52 135.56 255.40 135.05 C 248.20 143.60 240.49 151.71 232.62 159.63 C 228.68 164.67 223.78 168.81 219.72 173.73 C 215.20 179.22 209.61 183.74 205.32 189.44 C 203.35 191.60 202.32 194.78 199.35 195.83 C 194.09 199.97 190.59 205.80 185.68 210.29 C 184.39 211.22 183.10 212.17 181.85 213.16 C 188.61 206.85 194.28 199.44 201.18 193.30 C 221.03 171.01 241.77 149.47 261.01 126.65 C 270.23 109.99 278.34 92.74 286.63 75.61 C 289.90 68.45 292.97 61.19 295.90 53.89 Z" />
</g>
<g id="#b70f17ff">
<path fill="#b70f17" opacity="1.00" d=" M 298.51 53.52 C 302.35 48.98 308.93 49.88 314.20 50.30 C 312.41 50.73 310.62 51.14 308.84 51.60 C 302.42 52.64 299.90 59.55 300.04 65.30 C 299.57 64.05 299.08 62.81 298.56 61.58 C 297.83 64.65 297.04 67.82 297.66 70.99 C 298.91 78.53 302.15 85.58 305.85 92.22 C 307.90 96.01 311.03 99.40 311.60 103.83 C 306.13 96.81 301.12 89.30 297.85 80.98 C 296.66 77.84 295.55 74.66 294.66 71.41 C 294.10 69.12 293.72 66.78 293.35 64.45 C 295.54 61.04 296.42 56.98 298.51 53.52 Z" />
</g>
<g id="#55060aff">
<path fill="#55060a" opacity="1.00" d=" M 300.04 65.30 C 299.90 59.55 302.42 52.64 308.84 51.60 C 313.74 51.76 318.62 52.36 323.52 52.74 C 335.41 58.29 345.05 67.56 353.94 77.02 C 362.83 87.55 370.78 99.11 376.10 111.87 C 375.52 111.56 374.36 110.92 373.77 110.61 C 372.64 108.45 371.55 106.28 370.38 104.14 C 365.48 93.80 357.79 85.14 350.29 76.63 C 344.19 70.62 338.76 63.64 331.14 59.45 C 328.03 57.50 324.75 55.79 321.29 54.54 C 316.95 52.89 312.01 51.85 307.52 53.58 C 303.46 55.21 301.05 59.72 301.56 64.02 C 302.07 70.02 303.28 76.31 306.64 81.41 C 312.63 86.10 320.43 87.05 327.70 88.28 C 331.37 88.90 335.16 87.82 338.78 88.66 C 342.41 92.27 345.49 97.81 343.44 102.99 C 342.25 102.05 341.07 101.12 339.89 100.18 C 340.85 104.59 342.27 108.88 344.15 112.99 C 346.44 117.88 347.40 123.70 351.67 127.40 C 355.68 131.02 359.33 135.14 361.50 140.15 C 360.81 140.18 359.41 140.24 358.72 140.27 C 352.07 137.61 345.84 133.93 340.14 129.60 L 341.09 129.02 C 337.62 121.43 333.69 113.98 328.78 107.19 C 326.33 103.68 324.31 99.79 321.11 96.86 C 317.48 93.38 312.74 91.48 308.43 89.02 C 308.53 89.54 308.73 90.57 308.83 91.08 C 304.47 83.09 300.88 74.45 300.04 65.30 Z" />
<path fill="#55060a" opacity="1.00" d=" M 44.77 336.69 C 55.93 325.24 68.34 315.08 80.56 304.81 C 79.08 306.89 77.59 309.00 75.66 310.71 C 67.50 317.86 59.01 324.69 51.33 332.37 C 47.72 335.80 45.93 342.24 40.21 342.56 C 35.99 343.33 31.17 343.78 27.97 346.93 C 25.17 352.23 28.80 358.84 33.93 361.14 C 36.07 362.11 39.13 362.89 40.96 360.94 C 44.08 356.88 45.60 351.76 45.80 346.68 C 49.72 347.12 53.16 345.06 56.65 343.63 C 54.27 345.73 51.96 348.13 48.82 349.06 C 45.57 352.34 45.13 357.10 42.82 360.92 C 40.71 365.00 35.08 364.07 31.73 362.18 C 25.87 358.60 22.06 348.62 28.50 343.78 C 34.08 342.00 41.03 341.90 44.77 336.69 Z" />
</g>
<g id="#740107ff">
<path fill="#740107" opacity="1.00" d=" M 307.52 53.58 C 312.01 51.85 316.95 52.89 321.29 54.54 C 318.38 54.24 315.50 54.83 312.80 55.91 C 313.71 58.76 314.02 62.50 317.21 63.76 C 320.25 65.08 322.82 67.12 325.23 69.35 C 330.07 70.25 335.06 70.21 339.93 71.01 C 337.49 66.81 334.44 63.00 331.14 59.45 C 338.76 63.64 344.19 70.62 350.29 76.63 C 357.79 85.14 365.48 93.80 370.38 104.14 C 366.40 100.30 363.04 95.88 359.16 91.94 C 358.70 96.40 358.38 100.88 357.30 105.25 C 356.57 108.00 358.08 110.64 358.63 113.28 C 359.65 116.57 359.61 120.33 361.80 123.16 C 366.43 128.75 370.59 135.24 377.66 138.01 C 381.79 128.86 377.22 119.15 373.77 110.61 C 374.36 110.92 375.52 111.56 376.10 111.87 C 379.60 118.75 381.83 126.36 382.44 134.06 C 382.86 139.59 380.43 146.35 374.46 147.75 C 354.55 152.70 334.72 157.96 314.93 163.37 C 304.75 166.57 294.95 171.02 285.98 176.80 C 274.75 184.75 263.38 192.51 251.87 200.05 C 252.58 198.56 253.20 197.03 253.82 195.50 C 265.42 187.01 278.02 179.86 288.98 170.51 C 286.94 169.47 284.90 168.43 282.87 167.38 C 286.91 167.61 290.94 168.14 294.99 168.00 C 300.18 167.84 304.38 164.36 309.25 163.00 C 331.04 156.40 353.19 151.07 375.18 145.27 C 377.89 144.23 379.05 141.32 380.51 139.05 C 378.37 140.41 376.42 142.26 373.93 142.92 C 370.84 143.27 367.76 142.72 364.69 142.50 C 362.68 141.80 360.70 141.04 358.72 140.27 C 359.41 140.24 360.81 140.18 361.50 140.15 C 359.33 135.14 355.68 131.02 351.67 127.40 C 347.40 123.70 346.44 117.88 344.15 112.99 C 342.27 108.88 340.85 104.59 339.89 100.18 C 341.07 101.12 342.25 102.05 343.44 102.99 C 345.49 97.81 342.41 92.27 338.78 88.66 C 335.16 87.82 331.37 88.90 327.70 88.28 C 320.43 87.05 312.63 86.10 306.64 81.41 C 303.28 76.31 302.07 70.02 301.56 64.02 C 301.05 59.72 303.46 55.21 307.52 53.58 Z" />
</g>
<g id="#840107ff">
<path fill="#840107" opacity="1.00" d=" M 312.80 55.91 C 315.50 54.83 318.38 54.24 321.29 54.54 C 324.75 55.79 328.03 57.50 331.14 59.45 C 334.44 63.00 337.49 66.81 339.93 71.01 C 335.06 70.21 330.07 70.25 325.23 69.35 C 322.82 67.12 320.25 65.08 317.21 63.76 C 314.02 62.50 313.71 58.76 312.80 55.91 Z" />
</g>
<g id="#ec1a24ff">
<path fill="#ec1a24" opacity="1.00" d=" M 297.66 70.99 C 297.04 67.82 297.83 64.65 298.56 61.58 C 299.08 62.81 299.57 64.05 300.04 65.30 C 300.88 74.45 304.47 83.09 308.83 91.08 C 316.73 105.68 326.72 119.60 340.14 129.60 C 345.84 133.93 352.07 137.61 358.72 140.27 C 360.70 141.04 362.68 141.80 364.69 142.50 C 358.22 143.26 352.28 140.13 346.76 137.18 C 337.98 132.37 330.45 125.58 323.81 118.15 C 322.29 116.45 320.61 114.82 318.48 113.92 L 317.93 114.19 C 317.06 112.82 316.19 111.46 315.34 110.09 C 314.06 108.02 312.90 105.89 311.60 103.83 C 311.03 99.40 307.90 96.01 305.85 92.22 C 302.15 85.58 298.91 78.53 297.66 70.99 Z" />
</g>
<g id="#db5158ff">
<path fill="#db5158" opacity="1.00" d=" M 260.41 129.57 C 271.98 108.18 283.25 86.59 293.35 64.45 C 293.72 66.78 294.10 69.12 294.66 71.41 C 291.32 76.92 288.77 82.85 285.62 88.46 C 282.97 93.13 281.72 98.43 279.16 103.14 C 277.36 106.40 275.90 109.82 274.65 113.32 C 269.56 121.85 264.95 130.68 260.36 139.49 L 260.14 140.01 C 259.96 138.57 259.71 137.15 259.51 135.72 C 259.25 133.63 259.19 131.40 260.41 129.57 Z" />
</g>
<g id="#fe5059ff">
<path fill="#fe5059" opacity="1.00" d=" M 285.62 88.46 C 288.77 82.85 291.32 76.92 294.66 71.41 C 295.55 74.66 296.66 77.84 297.85 80.98 C 296.06 84.37 294.03 87.65 291.36 90.41 C 284.75 97.27 281.30 106.50 274.65 113.32 C 275.90 109.82 277.36 106.40 279.16 103.14 C 281.72 98.43 282.97 93.13 285.62 88.46 Z" />
</g>
<g id="#ff6d73ff">
<path fill="#ff6d73" opacity="1.00" d=" M 297.85 80.98 C 301.12 89.30 306.13 96.81 311.60 103.83 C 312.90 105.89 314.06 108.02 315.34 110.09 C 309.84 113.54 305.21 118.10 300.50 122.51 C 293.91 128.29 287.27 134.04 280.35 139.43 C 275.39 143.39 269.24 145.25 263.64 148.08 C 262.36 145.29 261.37 142.38 260.36 139.49 C 264.95 130.68 269.56 121.85 274.65 113.32 C 281.30 106.50 284.75 97.27 291.36 90.41 C 294.03 87.65 296.06 84.37 297.85 80.98 Z" />
</g>
<g id="#380305ff">
<path fill="#380305" opacity="1.00" d=" M 308.43 89.02 C 312.74 91.48 317.48 93.38 321.11 96.86 C 324.31 99.79 326.33 103.68 328.78 107.19 C 333.69 113.98 337.62 121.43 341.09 129.02 L 340.14 129.60 C 326.72 119.60 316.73 105.68 308.83 91.08 C 308.73 90.57 308.53 89.54 308.43 89.02 Z" />
</g>
<g id="#8c0108ff">
<path fill="#8c0108" opacity="1.00" d=" M 359.16 91.94 C 363.04 95.88 366.40 100.30 370.38 104.14 C 371.55 106.28 372.64 108.45 373.77 110.61 C 377.22 119.15 381.79 128.86 377.66 138.01 C 370.59 135.24 366.43 128.75 361.80 123.16 C 359.61 120.33 359.65 116.57 358.63 113.28 C 358.08 110.64 356.57 108.00 357.30 105.25 C 358.38 100.88 358.70 96.40 359.16 91.94 Z" />
</g>
<g id="#ff4951ff">
<path fill="#ff4951" opacity="1.00" d=" M 300.50 122.51 C 305.21 118.10 309.84 113.54 315.34 110.09 C 316.19 111.46 317.06 112.82 317.93 114.19 C 305.43 122.25 295.22 133.38 283.25 142.19 C 278.24 145.91 272.09 147.74 267.32 151.82 L 266.57 152.32 C 265.48 150.98 264.51 149.56 263.64 148.08 C 269.24 145.25 275.39 143.39 280.35 139.43 C 287.27 134.04 293.91 128.29 300.50 122.51 Z" />
</g>
<g id="#b0141bff">
<path fill="#b0141b" opacity="1.00" d=" M 318.48 113.92 C 320.61 114.82 322.29 116.45 323.81 118.15 C 330.45 125.58 337.98 132.37 346.76 137.18 C 352.28 140.13 358.22 143.26 364.69 142.50 C 367.76 142.72 370.84 143.27 373.93 142.92 C 376.42 142.26 378.37 140.41 380.51 139.05 C 379.05 141.32 377.89 144.23 375.18 145.27 C 353.19 151.07 331.04 156.40 309.25 163.00 C 304.38 164.36 300.18 167.84 294.99 168.00 C 290.94 168.14 286.91 167.61 282.87 167.38 C 284.90 168.43 286.94 169.47 288.98 170.51 C 278.02 179.86 265.42 187.01 253.82 195.50 C 242.37 202.74 230.98 210.08 219.79 217.72 C 212.16 222.23 205.54 228.17 198.11 232.97 C 193.91 236.04 189.34 238.52 184.96 241.31 C 181.96 239.59 179.12 237.62 176.51 235.36 C 176.14 235.54 175.41 235.90 175.05 236.08 C 176.58 237.89 178.13 239.69 179.67 241.50 C 170.20 249.81 160.29 257.60 150.43 265.42 C 142.16 271.09 134.15 277.12 126.27 283.31 C 123.72 285.36 120.82 286.92 117.83 288.24 C 119.12 286.43 120.45 284.66 121.80 282.90 C 120.17 281.82 118.53 280.77 116.88 279.74 C 119.44 277.21 122.17 274.69 123.69 271.36 C 126.69 268.58 129.90 266.05 133.09 263.49 C 142.11 257.49 150.30 250.37 159.10 244.05 C 163.84 240.57 168.36 236.79 172.74 232.85 C 173.42 233.60 174.13 234.31 174.84 235.04 C 174.46 233.89 174.07 232.76 173.69 231.63 C 175.07 230.81 176.47 230.01 177.82 229.14 C 180.45 230.97 183.02 232.89 185.46 234.97 C 188.32 234.31 191.22 233.46 193.48 231.50 C 200.71 225.61 208.34 220.27 216.01 214.99 C 226.91 206.64 238.94 199.96 250.19 192.14 C 258.22 186.93 265.98 181.31 273.89 175.91 C 276.82 173.93 279.55 171.68 282.14 169.26 C 280.60 168.41 279.07 167.56 277.53 166.72 C 276.10 165.93 274.68 165.13 273.28 164.30 C 278.03 161.97 282.58 165.29 287.31 165.21 C 311.60 159.36 335.30 151.02 359.91 146.41 C 357.77 145.31 355.64 144.21 353.47 143.20 C 349.29 141.16 345.34 138.70 341.48 136.13 C 332.80 129.93 324.55 122.76 318.48 113.92 Z" />
</g>
<g id="#fe2c35ff">
<path fill="#fe2c35" opacity="1.00" d=" M 283.25 142.19 C 295.22 133.38 305.43 122.25 317.93 114.19 L 318.48 113.92 C 324.55 122.76 332.80 129.93 341.48 136.13 C 331.15 137.37 321.61 141.88 311.65 144.63 C 304.59 146.44 297.91 149.55 290.76 151.02 C 286.60 152.04 282.80 149.01 278.65 149.41 C 274.79 149.74 271.06 150.90 267.32 151.82 C 272.09 147.74 278.24 145.91 283.25 142.19 Z" />
</g>
<g id="#e1585eff">
<path fill="#e1585e" opacity="1.00" d=" M 232.62 159.63 C 240.49 151.71 248.20 143.60 255.40 135.05 C 255.52 135.56 255.75 136.58 255.86 137.09 C 256.29 138.97 256.73 140.85 257.23 142.71 C 256.88 142.41 256.17 141.81 255.81 141.51 C 252.49 146.86 247.39 150.68 243.47 155.53 C 239.14 160.81 233.83 165.15 229.49 170.42 C 226.03 174.65 221.94 178.31 218.47 182.54 C 214.90 186.68 211.68 191.16 207.58 194.82 C 201.13 200.18 194.78 205.67 188.26 210.96 L 185.68 210.29 C 190.59 205.80 194.09 199.97 199.35 195.83 C 202.32 194.78 203.35 191.60 205.32 189.44 C 209.61 183.74 215.20 179.22 219.72 173.73 C 223.78 168.81 228.68 164.67 232.62 159.63 Z" />
</g>
<g id="#9f1118ff">
<path fill="#9f1118" opacity="1.00" d=" M 255.86 137.09 C 257.08 136.63 258.29 136.18 259.51 135.72 C 259.71 137.15 259.96 138.57 260.14 140.01 C 259.48 141.87 258.79 143.72 258.10 145.58 C 257.88 144.86 257.45 143.43 257.23 142.71 C 256.73 140.85 256.29 138.97 255.86 137.09 Z" />
</g>
<g id="#f12029ff">
<path fill="#f12029" opacity="1.00" d=" M 311.65 144.63 C 321.61 141.88 331.15 137.37 341.48 136.13 C 345.34 138.70 349.29 141.16 353.47 143.20 C 344.52 143.92 335.92 146.74 327.34 149.21 C 319.07 151.42 311.13 154.73 302.83 156.84 C 295.03 159.14 286.07 161.59 278.42 157.51 C 274.65 155.39 270.66 153.71 266.57 152.32 L 267.32 151.82 C 271.06 150.90 274.79 149.74 278.65 149.41 C 282.80 149.01 286.60 152.04 290.76 151.02 C 297.91 149.55 304.59 146.44 311.65 144.63 Z" />
</g>
<g id="#cd1720ff">
<path fill="#cd1720" opacity="1.00" d=" M 260.14 140.01 L 260.36 139.49 C 261.37 142.38 262.36 145.29 263.64 148.08 C 264.51 149.56 265.48 150.98 266.57 152.32 C 270.66 153.71 274.65 155.39 278.42 157.51 C 286.07 161.59 295.03 159.14 302.83 156.84 C 311.13 154.73 319.07 151.42 327.34 149.21 C 335.92 146.74 344.52 143.92 353.47 143.20 C 355.64 144.21 357.77 145.31 359.91 146.41 C 335.30 151.02 311.60 159.36 287.31 165.21 C 282.58 165.29 278.03 161.97 273.28 164.30 C 270.77 162.81 268.43 161.05 266.37 158.99 C 264.96 157.44 263.64 155.80 262.43 154.09 C 260.66 151.43 259.18 148.58 258.10 145.58 C 258.79 143.72 259.48 141.87 260.14 140.01 Z" />
</g>
<g id="#ff5f66ff">
<path fill="#ff5f66" opacity="1.00" d=" M 243.47 155.53 C 247.39 150.68 252.49 146.86 255.81 141.51 C 256.17 141.81 256.88 142.41 257.23 142.71 C 257.45 143.43 257.88 144.86 258.10 145.58 C 259.18 148.58 260.66 151.43 262.43 154.09 C 253.26 161.34 244.74 169.38 235.41 176.44 C 226.59 184.02 216.78 190.33 207.89 197.82 C 207.78 196.81 207.68 195.81 207.58 194.82 C 211.68 191.16 214.90 186.68 218.47 182.54 C 221.94 178.31 226.03 174.65 229.49 170.42 C 233.83 165.15 239.14 160.81 243.47 155.53 Z" />
</g>
<g id="#fe303aff">
<path fill="#fe303a" opacity="1.00" d=" M 262.43 154.09 C 263.64 155.80 264.96 157.44 266.37 158.99 C 263.22 162.29 259.83 165.38 256.12 168.03 C 246.78 175.34 238.08 183.43 228.67 190.65 C 222.12 196.57 214.37 200.93 207.74 206.77 C 204.26 209.93 198.96 209.12 195.45 212.26 C 195.77 210.78 195.75 209.10 196.88 207.94 C 200.19 204.20 204.18 201.15 207.89 197.82 C 216.78 190.33 226.59 184.02 235.41 176.44 C 244.74 169.38 253.26 161.34 262.43 154.09 Z" />
</g>
<g id="#eb1b25ff">
<path fill="#eb1b25" opacity="1.00" d=" M 266.37 158.99 C 268.43 161.05 270.77 162.81 273.28 164.30 C 274.68 165.13 276.10 165.93 277.53 166.72 C 254.82 183.58 231.01 198.91 207.41 214.48 C 202.36 217.32 198.07 221.52 192.59 223.54 C 191.04 224.29 189.74 223.06 188.53 222.31 C 186.75 223.09 184.97 223.91 183.32 224.95 C 182.11 224.52 180.90 224.10 179.69 223.68 C 185.21 220.28 190.45 216.39 195.45 212.26 C 198.96 209.12 204.26 209.93 207.74 206.77 C 214.37 200.93 222.12 196.57 228.67 190.65 C 238.08 183.43 246.78 175.34 256.12 168.03 C 259.83 165.38 263.22 162.29 266.37 158.99 Z" />
</g>
<g id="#ca1720ff">
<path fill="#ca1720" opacity="1.00" d=" M 277.53 166.72 C 279.07 167.56 280.60 168.41 282.14 169.26 C 279.55 171.68 276.82 173.93 273.89 175.91 C 265.98 181.31 258.22 186.93 250.19 192.14 C 238.94 199.96 226.91 206.64 216.01 214.99 C 208.34 220.27 200.71 225.61 193.48 231.50 C 191.22 233.46 188.32 234.31 185.46 234.97 C 183.02 232.89 180.45 230.97 177.82 229.14 C 179.72 227.83 181.47 226.32 183.32 224.95 C 184.97 223.91 186.75 223.09 188.53 222.31 C 189.74 223.06 191.04 224.29 192.59 223.54 C 198.07 221.52 202.36 217.32 207.41 214.48 C 231.01 198.91 254.82 183.58 277.53 166.72 Z" />
</g>
<g id="#eb3f47ff">
<path fill="#eb3f47" opacity="1.00" d=" M 188.26 210.96 C 194.78 205.67 201.13 200.18 207.58 194.82 C 207.68 195.81 207.78 196.81 207.89 197.82 C 204.18 201.15 200.19 204.20 196.88 207.94 C 195.75 209.10 195.77 210.78 195.45 212.26 C 190.45 216.39 185.21 220.28 179.69 223.68 C 179.18 223.95 178.15 224.49 177.64 224.76 C 180.27 219.51 184.72 215.56 188.26 210.96 Z" />
</g>
<g id="#6f070bff">
<path fill="#6f070b" opacity="1.00" d=" M 219.79 217.72 C 230.98 210.08 242.37 202.74 253.82 195.50 C 253.20 197.03 252.58 198.56 251.87 200.05 C 233.87 212.37 215.48 224.20 197.26 236.22 C 192.58 239.16 187.73 241.87 183.61 245.60 C 163.73 261.36 143.74 276.99 123.84 292.74 C 117.51 297.33 110.95 301.78 105.53 307.47 C 103.71 308.61 101.72 309.46 99.80 310.41 L 98.21 310.03 C 101.34 305.82 106.29 303.62 109.81 299.80 C 113.79 295.47 119.76 293.98 124.09 290.08 C 144.01 273.37 165.39 258.45 184.96 241.31 C 189.34 238.52 193.91 236.04 198.11 232.97 C 205.54 228.17 212.16 222.23 219.79 217.72 Z" />
<path fill="#6f070b" opacity="1.00" d=" M 168.07 225.70 C 169.14 224.82 170.23 223.96 171.37 223.15 C 172.01 226.01 172.72 228.86 173.69 231.63 C 174.07 232.76 174.46 233.89 174.84 235.04 C 174.13 234.31 173.42 233.60 172.74 232.85 C 171.64 231.39 170.65 229.84 169.68 228.30 C 169.14 227.43 168.60 226.56 168.07 225.70 Z" />
</g>
<g id="#ce3a41ff">
<path fill="#ce3a41" opacity="1.00" d=" M 181.85 213.16 C 183.10 212.17 184.39 211.22 185.68 210.29 L 188.26 210.96 C 184.72 215.56 180.27 219.51 177.64 224.76 C 178.15 224.49 179.18 223.95 179.69 223.68 C 180.90 224.10 182.11 224.52 183.32 224.95 C 181.47 226.32 179.72 227.83 177.82 229.14 C 176.47 230.01 175.07 230.81 173.69 231.63 C 172.72 228.86 172.01 226.01 171.37 223.15 C 175.22 220.20 178.20 216.33 181.85 213.16 Z" />
</g>
<g id="#a6262bff">
<path fill="#a6262b" opacity="1.00" d=" M 122.87 267.00 C 137.72 252.99 152.87 239.32 168.07 225.70 C 168.60 226.56 169.14 227.43 169.68 228.30 C 161.39 234.72 154.20 242.42 146.31 249.29 C 141.52 253.64 135.82 257.38 133.09 263.49 C 129.90 266.05 126.69 268.58 123.69 271.36 C 120.93 273.66 117.94 275.66 114.81 277.41 C 117.26 273.87 121.65 271.62 122.78 267.27 L 122.87 267.00 Z" />
</g>
<g id="#c72a31ff">
<path fill="#c72a31" opacity="1.00" d=" M 146.31 249.29 C 154.20 242.42 161.39 234.72 169.68 228.30 C 170.65 229.84 171.64 231.39 172.74 232.85 C 168.36 236.79 163.84 240.57 159.10 244.05 C 150.30 250.37 142.11 257.49 133.09 263.49 C 135.82 257.38 141.52 253.64 146.31 249.29 Z" />
</g>
<g id="#971218ff">
<path fill="#971218" opacity="1.00" d=" M 175.05 236.08 C 175.41 235.90 176.14 235.54 176.51 235.36 C 179.12 237.62 181.96 239.59 184.96 241.31 C 165.39 258.45 144.01 273.37 124.09 290.08 C 119.76 293.98 113.79 295.47 109.81 299.80 C 106.29 303.62 101.34 305.82 98.21 310.03 L 99.80 310.41 C 86.87 321.02 73.15 330.65 60.20 341.24 C 59.10 342.14 57.97 343.07 56.65 343.63 C 53.16 345.06 49.72 347.12 45.80 346.68 C 45.60 351.76 44.08 356.88 40.96 360.94 C 39.13 362.89 36.07 362.11 33.93 361.14 C 28.80 358.84 25.17 352.23 27.97 346.93 C 31.17 343.78 35.99 343.33 40.21 342.56 C 45.93 342.24 47.72 335.80 51.33 332.37 C 59.01 324.69 67.50 317.86 75.66 310.71 C 77.59 309.00 79.08 306.89 80.56 304.81 C 84.48 300.63 90.02 298.07 92.95 292.97 C 98.33 288.65 103.43 283.98 108.93 279.80 C 113.59 275.67 117.86 271.09 122.78 267.27 C 121.65 271.62 117.26 273.87 114.81 277.41 C 117.94 275.66 120.93 273.66 123.69 271.36 C 122.17 274.69 119.44 277.21 116.88 279.74 C 118.53 280.77 120.17 281.82 121.80 282.90 C 120.45 284.66 119.12 286.43 117.83 288.24 C 120.82 286.92 123.72 285.36 126.27 283.31 C 134.15 277.12 142.16 271.09 150.43 265.42 C 160.29 257.60 170.20 249.81 179.67 241.50 C 178.13 239.69 176.58 237.89 175.05 236.08 M 31.36 348.52 C 30.10 348.64 29.75 350.27 29.42 351.28 C 28.74 355.41 32.35 359.12 36.02 360.35 C 41.64 361.55 43.64 353.66 41.18 349.84 C 38.56 347.46 34.58 348.23 31.36 348.52 Z" />
</g>
<g id="#c9141dff">
<path fill="#c9141d" opacity="1.00" d=" M 31.36 348.52 C 34.58 348.23 38.56 347.46 41.18 349.84 C 43.64 353.66 41.64 361.55 36.02 360.35 C 32.35 359.12 28.74 355.41 29.42 351.28 C 29.75 350.27 30.10 348.64 31.36 348.52 Z" />
</g>
</svg>
