<?xml version="1.0" encoding="UTF-8" ?>
<!DOCTYPE svg PUBLIC "-//W3C//DTD SVG 1.1//EN" "http://www.w3.org/Graphics/SVG/1.1/DTD/svg11.dtd">
<svg width="690pt" height="306pt" viewBox="0 0 690 306" version="1.1" xmlns="http://www.w3.org/2000/svg">
<g id="#454442ff">
<path fill="#454442" opacity="1.00" d=" M 466.72 6.85 C 482.01 1.42 499.12 -0.09 514.60 5.47 C 521.25 8.05 527.47 11.66 533.35 15.66 C 541.58 22.77 549.05 30.87 554.80 40.14 C 557.39 44.29 560.84 47.86 563.16 52.19 C 562.24 53.35 561.30 54.51 560.39 55.67 C 558.37 51.95 556.89 47.95 554.58 44.38 C 552.58 41.40 551.42 37.78 548.64 35.38 C 545.78 32.85 542.67 30.62 539.43 28.61 L 538.81 28.09 C 537.60 27.03 536.36 25.99 535.16 24.92 C 528.60 18.69 521.01 13.36 512.38 10.45 C 500.89 6.47 488.31 6.70 476.59 9.52 C 461.77 12.89 447.23 18.68 435.22 28.16 C 434.10 28.94 433.49 30.18 432.75 31.27 C 442.52 35.23 451.45 40.86 460.69 45.88 C 465.25 49.67 470.72 52.08 475.60 55.41 C 482.97 60.52 490.83 64.87 498.37 69.72 C 498.78 69.31 499.58 68.50 499.98 68.09 C 500.43 68.77 500.88 69.45 501.34 70.14 C 502.67 72.20 504.17 74.15 505.68 76.09 C 506.47 75.63 507.22 75.09 507.92 74.50 L 508.29 74.73 L 508.65 75.77 L 510.43 75.38 C 509.68 75.99 508.94 76.61 508.22 77.23 C 512.53 79.30 515.83 82.77 519.39 85.86 C 523.77 89.23 529.19 91.82 531.63 97.09 C 527.76 95.19 524.21 92.72 520.56 90.43 C 515.16 87.04 508.97 84.99 503.98 80.93 C 500.47 78.17 498.26 74.00 494.32 71.74 C 489.48 68.86 484.31 66.57 479.58 63.50 C 475.38 60.84 471.42 57.74 466.84 55.74 C 466.62 56.01 466.19 56.56 465.98 56.83 C 480.22 68.71 496.18 78.30 511.73 88.34 C 519.44 92.53 526.48 97.95 534.61 101.34 C 538.00 103.18 540.02 106.65 543.07 108.92 C 545.82 110.95 547.76 113.79 550.19 116.14 C 553.09 117.46 556.29 117.91 559.36 118.74 C 560.10 120.80 560.91 122.86 561.27 125.04 C 561.21 132.52 557.91 139.48 557.07 146.85 C 557.85 146.78 559.39 146.64 560.17 146.57 C 563.57 143.71 565.76 139.64 569.13 136.72 C 569.64 136.63 570.64 136.47 571.15 136.39 C 572.29 134.95 573.29 133.41 574.21 131.81 C 574.28 133.34 574.36 134.87 574.46 136.40 C 571.99 143.17 565.80 147.26 561.78 152.95 C 558.47 156.97 554.72 160.66 550.45 163.65 C 546.51 166.35 544.08 170.62 541.66 174.62 C 539.70 177.60 542.68 180.49 544.17 182.91 C 548.58 189.14 552.43 195.75 556.97 201.90 C 558.36 203.82 560.91 203.54 563.00 203.72 C 578.01 204.14 593.03 203.86 608.05 204.07 C 614.78 204.11 621.47 205.28 628.22 204.84 C 630.82 205.16 633.61 205.53 635.68 207.31 C 640.49 211.23 643.74 216.61 647.32 221.59 C 652.15 228.17 656.40 235.14 660.87 241.96 C 670.22 256.52 677.61 272.23 687.14 286.67 C 686.01 289.26 689.92 289.75 689.01 286.90 C 689.20 284.99 689.61 283.11 690.00 281.24 L 690.00 306.00 L 682.04 306.00 C 675.35 289.90 667.20 274.47 658.73 259.24 C 653.99 250.22 648.44 241.66 642.68 233.27 C 637.58 226.42 631.86 219.20 623.59 216.17 C 614.66 213.45 605.23 213.59 596.02 212.82 C 582.93 211.92 569.57 213.93 556.73 210.53 C 559.61 217.88 564.10 224.47 567.20 231.74 C 570.94 236.88 574.73 242.24 575.62 248.74 C 569.91 254.78 560.90 255.53 554.42 260.50 C 558.49 265.10 563.22 269.09 567.09 273.86 C 569.70 276.82 568.61 281.05 567.45 284.39 C 564.61 292.12 560.23 299.19 555.64 306.00 L 549.84 306.00 C 554.63 298.76 559.02 291.21 562.25 283.15 C 562.81 281.55 563.52 279.94 563.57 278.22 C 562.11 274.93 559.68 272.19 557.39 269.46 C 554.73 266.35 551.03 264.31 548.56 261.03 C 548.41 259.71 548.86 258.67 549.90 257.90 C 556.42 252.80 564.79 251.00 571.76 246.78 C 571.69 243.78 569.58 241.43 567.98 239.08 C 560.88 229.46 555.36 218.63 547.18 209.84 C 545.54 206.40 545.01 202.45 542.65 199.35 C 538.80 194.01 535.66 188.22 532.11 182.69 C 530.59 184.95 529.25 187.33 528.06 189.78 C 532.63 190.71 537.56 193.23 538.79 198.12 C 539.87 204.36 538.89 210.71 538.72 216.99 C 538.41 227.71 537.37 238.46 534.87 248.91 C 534.11 252.14 532.61 255.10 531.16 258.06 C 528.28 263.86 526.75 270.20 524.11 276.10 C 519.70 286.23 515.22 296.36 509.81 306.00 L 504.56 306.00 C 510.61 292.35 517.94 279.27 523.24 265.28 C 525.86 257.43 530.80 250.38 531.77 242.04 C 533.73 231.12 532.08 220.01 532.66 209.01 C 532.60 205.42 533.40 201.65 532.20 198.19 C 530.72 196.42 528.84 195.07 527.10 193.60 C 526.75 193.54 526.07 193.42 525.72 193.36 C 524.69 195.81 523.92 198.36 522.84 200.79 C 521.03 202.63 518.86 204.06 516.90 205.73 C 514.94 204.10 516.94 201.97 517.56 200.24 C 521.70 192.49 525.62 184.61 529.88 176.92 C 531.78 173.87 531.25 169.92 533.50 167.04 C 538.84 161.47 546.27 156.96 548.07 148.94 C 551.21 142.95 554.50 136.81 555.24 129.96 C 555.47 126.22 552.75 123.42 550.20 121.11 C 543.95 120.89 539.36 125.25 535.42 129.49 C 534.98 129.44 534.09 129.33 533.65 129.28 C 531.48 127.37 528.61 127.31 525.88 127.28 C 509.02 125.88 492.26 123.38 475.39 122.15 C 475.30 126.81 476.80 133.21 471.99 136.05 C 467.42 137.16 462.71 135.93 458.12 135.62 C 450.14 135.16 442.33 132.95 434.31 133.30 C 430.06 128.43 431.96 121.45 431.69 115.57 C 426.31 114.78 420.93 114.08 415.55 113.27 C 415.58 116.76 415.31 120.27 414.09 123.57 C 413.64 123.00 412.75 121.85 412.30 121.28 C 412.71 116.38 413.55 111.52 413.60 106.60 C 408.88 106.70 404.19 106.17 399.56 105.31 C 398.38 109.48 398.22 113.81 398.22 118.12 L 397.16 119.23 C 396.15 120.32 395.19 121.45 394.29 122.63 C 393.72 118.48 395.59 114.82 397.19 111.16 C 398.79 107.94 395.81 104.83 393.02 103.66 C 390.32 102.97 387.89 104.61 385.56 105.68 C 384.92 113.29 382.54 121.88 386.98 128.78 C 388.71 128.64 390.44 128.49 392.17 128.35 C 392.74 126.98 393.29 125.60 393.82 124.21 C 394.96 123.40 396.10 122.58 397.25 121.75 C 397.43 123.95 397.70 126.14 397.80 128.34 C 397.80 129.32 397.71 130.30 397.67 131.28 C 397.49 137.19 397.48 143.14 398.31 149.00 C 399.13 154.11 397.36 159.15 397.50 164.26 C 396.63 164.30 394.90 164.37 394.03 164.41 C 393.23 167.85 392.61 171.36 392.52 174.90 C 392.29 182.27 391.08 189.64 391.92 197.01 C 392.29 202.06 394.26 207.11 392.77 212.16 C 396.01 219.27 402.50 224.00 408.70 228.37 C 413.77 231.93 419.74 233.92 424.87 237.34 C 425.13 237.83 425.65 238.83 425.91 239.33 C 424.31 239.09 422.74 238.86 421.16 238.61 C 417.69 242.67 413.18 245.76 409.96 250.04 C 408.21 252.25 410.50 254.40 411.91 255.99 C 413.88 254.78 415.94 253.69 418.14 252.95 C 416.79 256.10 414.40 258.58 411.96 260.92 C 405.91 267.24 399.68 273.41 394.14 280.19 C 392.72 281.77 392.90 284.00 392.81 285.97 C 392.71 292.66 393.16 299.33 393.56 306.00 L 388.87 306.00 C 388.68 298.33 388.59 290.64 389.26 283.00 C 389.32 279.40 392.28 276.93 394.41 274.38 C 399.40 269.07 404.52 263.87 409.73 258.77 C 407.98 256.22 404.78 253.51 406.01 250.09 C 408.46 244.63 414.73 242.12 417.15 236.64 C 414.70 236.08 411.67 232.98 409.48 235.50 C 403.01 241.49 395.70 246.45 388.84 251.96 C 385.79 254.53 383.51 257.89 380.40 260.40 C 376.78 263.37 372.68 266.22 370.84 270.72 C 366.51 282.04 364.67 294.09 362.72 306.00 L 359.02 306.00 C 359.82 297.87 361.69 289.89 363.18 281.87 C 365.14 273.82 366.30 264.82 372.53 258.75 C 377.18 255.75 381.17 251.92 385.28 248.27 C 389.04 244.85 393.52 242.16 396.51 237.97 C 391.70 234.56 385.00 234.83 380.81 230.57 C 382.82 226.78 386.94 223.14 385.41 218.43 C 379.04 213.29 370.12 214.03 363.18 210.05 C 360.59 208.68 357.54 207.45 354.67 208.79 C 353.34 212.75 357.32 215.70 360.46 217.14 C 360.09 217.80 359.71 218.45 359.36 219.12 C 352.24 213.38 347.90 205.22 342.29 198.19 C 339.75 200.80 337.22 203.42 334.70 206.03 C 334.72 198.84 341.96 194.95 345.59 189.63 C 347.21 184.93 342.44 181.11 341.30 176.77 C 341.89 175.01 342.99 173.48 344.01 171.96 C 349.43 165.17 353.28 156.82 353.11 147.99 C 352.89 144.62 351.48 141.50 350.30 138.39 C 346.13 139.59 341.40 139.92 338.07 143.00 C 335.13 145.73 332.12 148.47 329.70 151.68 C 328.39 153.92 330.03 156.35 331.01 158.35 C 330.45 158.30 329.32 158.19 328.76 158.14 C 324.02 152.23 322.31 144.60 318.56 138.11 C 317.91 135.13 317.25 132.06 315.43 129.53 C 311.81 124.43 310.85 117.95 307.05 112.95 C 304.46 109.19 299.98 107.59 295.98 105.82 C 288.34 103.47 281.91 98.58 274.65 95.38 C 271.40 94.04 268.06 91.48 264.38 92.63 C 267.64 97.73 270.57 103.04 274.02 108.01 C 275.93 110.56 275.99 113.84 276.76 116.81 C 277.73 118.22 278.82 119.54 279.87 120.89 C 281.19 122.70 282.50 124.53 283.77 126.38 C 286.41 127.12 289.11 127.57 291.85 127.76 C 291.22 127.94 290.58 128.11 289.96 128.29 C 290.49 128.32 291.56 128.37 292.10 128.40 C 291.63 130.00 291.19 131.60 290.69 133.19 C 288.56 139.56 284.24 144.84 280.04 149.95 C 276.36 154.88 269.52 154.69 264.00 154.53 C 257.91 154.50 252.19 152.31 246.58 150.19 C 242.46 142.76 243.34 133.91 243.63 125.75 C 239.89 125.04 235.50 121.98 232.06 125.05 C 230.60 126.88 230.23 129.32 229.49 131.49 C 227.06 140.75 221.99 149.21 220.87 158.82 C 220.33 159.18 219.25 159.88 218.71 160.23 C 218.66 159.42 218.62 158.61 218.59 157.79 C 221.56 153.47 223.85 148.45 223.77 143.11 C 219.87 144.01 216.01 145.18 211.99 145.39 C 209.83 145.45 207.70 145.86 205.71 146.72 C 205.55 150.83 205.84 154.93 205.79 159.04 C 206.01 160.44 204.85 161.27 203.98 162.12 C 202.39 161.39 200.82 160.61 199.25 159.83 C 196.06 166.18 195.53 173.40 195.48 180.39 C 195.52 186.05 197.84 191.32 199.50 196.63 C 201.43 202.09 203.37 207.62 206.41 212.57 C 208.94 216.57 210.23 221.19 212.79 225.18 C 216.31 230.74 218.07 237.46 222.96 242.10 C 224.46 243.80 226.96 243.23 228.97 243.46 C 238.94 243.90 248.86 241.81 258.81 242.93 C 248.53 247.23 237.18 247.62 226.19 247.80 C 224.15 251.38 221.72 254.75 218.51 257.36 C 214.30 260.79 213.12 266.33 210.71 270.94 C 207.87 275.11 206.69 280.06 204.46 284.52 C 199.76 292.54 191.71 297.91 187.07 306.00 L 182.54 306.00 C 185.64 299.85 189.91 294.45 194.13 289.05 C 187.13 290.95 180.54 294.14 173.46 295.78 C 167.47 297.49 161.36 298.71 155.20 299.65 C 148.40 300.68 142.24 303.85 135.78 306.00 L 113.42 306.00 C 125.29 302.07 137.70 300.14 150.04 298.32 C 158.43 297.21 166.52 294.51 174.29 291.25 C 181.77 288.01 189.53 285.44 196.91 281.96 C 198.41 281.22 200.03 280.39 200.76 278.78 C 202.93 274.73 204.55 270.41 205.74 265.98 C 202.87 265.84 200.11 264.95 198.07 262.86 C 191.76 257.15 183.23 254.81 176.94 249.09 C 169.93 243.03 162.59 237.39 155.33 231.64 C 150.77 228.28 151.71 221.97 151.67 217.01 C 152.47 209.46 151.86 201.79 153.42 194.32 C 154.57 187.16 155.36 179.91 157.45 172.94 C 159.34 167.41 161.61 161.89 161.99 156.01 C 162.37 151.44 158.39 148.37 156.19 144.82 C 151.63 139.89 144.90 137.85 138.98 135.02 C 137.57 137.85 136.71 140.90 135.94 143.96 C 134.97 147.84 132.71 151.20 131.11 154.82 C 128.54 161.86 125.16 168.57 122.76 175.67 C 120.65 182.58 116.09 188.51 115.01 195.78 C 113.74 197.59 112.20 199.26 111.31 201.31 C 110.03 204.74 110.10 208.50 108.87 211.95 C 107.53 212.98 105.84 212.20 104.33 212.13 C 105.43 208.72 106.49 205.28 107.02 201.73 C 107.68 196.18 108.54 190.66 110.42 185.38 C 112.78 177.57 112.93 169.32 114.62 161.36 C 115.49 157.05 116.70 152.76 116.51 148.31 C 115.59 141.39 121.16 135.96 120.91 129.14 C 120.29 126.27 116.90 125.98 114.58 125.26 C 110.20 124.42 106.08 122.46 101.61 122.09 C 94.38 121.48 87.54 118.86 80.82 116.29 C 76.91 114.98 72.73 114.71 68.89 113.15 C 61.26 110.21 53.02 109.27 44.89 109.15 C 41.54 108.87 38.17 108.91 34.83 109.29 C 34.71 113.11 32.35 116.19 30.93 119.58 C 29.21 124.91 26.22 129.79 25.31 135.38 C 30.36 135.47 35.79 135.94 39.85 139.30 C 36.46 139.15 33.08 138.75 29.78 137.95 C 30.07 139.21 30.36 140.47 30.65 141.74 C 28.63 141.12 26.56 140.70 24.50 140.25 C 23.51 146.87 25.38 153.34 27.46 159.55 C 27.44 160.00 27.41 160.89 27.39 161.34 C 27.34 161.99 27.29 162.65 27.26 163.30 C 31.27 163.91 35.31 164.34 39.36 164.53 C 41.67 159.69 44.13 154.61 43.63 149.08 C 43.99 148.77 44.72 148.15 45.08 147.85 C 49.73 148.46 54.79 149.35 59.18 147.18 C 64.10 144.84 69.64 144.38 75.02 144.41 C 78.27 144.47 81.69 144.22 84.68 145.72 L 84.97 147.46 C 75.04 146.81 64.39 146.10 55.46 151.37 C 55.32 156.86 54.44 163.30 59.04 167.38 C 58.37 167.48 57.02 167.70 56.34 167.81 C 51.90 162.51 54.03 155.60 54.65 149.48 C 51.97 149.37 49.29 149.28 46.61 149.27 C 45.53 156.84 43.72 164.71 38.58 170.64 C 36.92 173.16 33.21 175.50 34.71 178.96 C 36.92 182.29 40.96 183.22 44.63 183.91 C 44.68 184.40 44.76 185.37 44.80 185.85 C 40.38 184.88 33.66 183.70 33.49 177.99 C 34.17 173.90 37.20 170.60 38.14 166.54 C 35.08 166.47 32.01 166.23 28.97 166.61 C 26.82 167.58 27.31 170.07 27.21 171.99 C 27.27 180.33 29.18 188.48 30.60 196.66 C 30.29 197.39 29.66 198.86 29.35 199.60 C 28.94 198.22 28.49 196.85 28.06 195.47 C 27.21 185.88 23.55 176.67 24.05 166.93 C 22.37 165.66 20.00 164.88 19.22 162.75 C 17.77 158.95 17.06 154.83 14.76 151.40 L 14.69 151.26 C 15.51 149.28 14.92 146.82 12.93 145.81 C 12.97 143.60 12.34 141.13 13.56 139.13 C 16.57 137.71 19.80 136.86 23.06 136.23 C 24.14 131.87 25.44 127.56 27.08 123.38 C 28.23 120.19 29.72 116.91 29.35 113.43 C 27.73 111.69 24.94 111.79 22.81 110.99 C 21.77 110.43 20.88 109.64 20.00 108.87 C 19.06 107.82 17.95 107.63 16.67 108.30 C 15.21 107.23 13.75 106.14 12.31 105.04 C 12.14 103.20 10.64 101.30 8.61 102.01 C 7.18 100.39 5.64 98.87 4.13 97.32 C 4.19 95.68 3.45 94.84 1.91 94.78 C 1.52 93.83 1.09 92.89 0.64 91.97 L 1.14 91.04 C 0.97 90.47 0.64 89.34 0.47 88.78 C 2.50 85.15 6.47 83.84 10.41 83.65 C 13.42 83.76 16.43 83.78 19.44 83.76 C 20.47 83.90 21.50 84.03 22.53 84.16 C 24.78 84.51 27.05 84.84 29.33 84.92 C 29.50 84.49 29.83 83.61 30.00 83.18 C 31.34 78.60 34.92 75.27 37.71 71.57 C 40.78 67.55 45.03 64.56 49.68 62.65 C 61.92 57.66 74.26 52.34 87.46 50.61 C 102.80 49.55 118.63 49.35 133.32 54.59 C 149.78 59.85 163.72 72.22 171.33 87.69 C 175.56 95.58 178.93 104.08 179.96 113.04 C 181.07 122.68 182.32 132.73 179.25 142.15 C 177.82 147.99 174.15 152.90 172.43 158.64 C 171.15 163.14 164.91 164.08 164.39 168.88 C 161.75 185.39 159.98 202.02 156.86 218.45 C 156.43 220.80 155.21 223.36 156.42 225.68 C 157.40 226.89 159.00 227.37 160.27 228.23 C 168.77 235.00 177.78 241.08 186.64 247.37 C 191.39 250.27 195.78 254.16 201.18 255.76 C 204.48 254.66 206.70 251.46 209.50 249.45 C 211.34 248.29 211.99 246.27 212.01 244.18 C 212.61 242.34 212.40 240.30 211.03 238.87 C 209.50 234.13 208.84 229.06 206.32 224.68 C 202.93 218.66 200.73 212.08 199.01 205.42 C 199.16 203.94 198.54 202.94 197.16 202.41 C 194.65 197.44 192.30 192.27 191.58 186.69 C 191.64 184.64 191.79 182.59 192.05 180.56 C 193.64 171.54 193.62 162.21 196.62 153.47 C 197.23 151.26 198.58 148.88 197.38 146.62 C 194.21 139.16 194.79 130.90 194.88 122.98 C 194.98 117.91 196.80 112.28 201.53 109.72 C 204.07 108.19 201.45 104.75 199.15 104.67 C 197.88 103.63 196.63 102.47 196.11 100.87 C 192.67 91.99 192.19 82.36 191.39 72.97 C 190.53 66.78 190.89 60.40 192.65 54.40 C 193.70 50.99 197.70 50.55 200.59 49.51 C 207.45 46.99 214.85 48.08 221.96 47.10 C 227.04 46.45 231.90 48.57 236.94 48.58 C 240.81 47.33 243.39 43.92 246.80 41.86 C 254.24 37.20 262.85 34.76 271.40 33.06 C 266.46 36.11 259.81 37.45 256.95 43.00 C 253.07 45.56 249.11 47.97 245.25 50.55 C 245.27 51.00 245.29 51.90 245.31 52.35 C 250.80 55.48 255.67 59.58 261.21 62.62 C 268.14 66.63 275.61 69.79 281.91 74.80 C 282.21 75.10 282.82 75.71 283.12 76.02 C 286.68 80.24 291.49 83.06 295.65 86.62 C 296.40 87.22 297.16 87.80 297.92 88.40 C 302.26 91.67 306.53 95.04 311.19 97.87 C 313.48 99.22 314.71 101.70 316.76 103.32 C 328.71 111.66 340.70 119.94 352.39 128.63 C 355.75 131.06 357.90 134.68 360.76 137.62 C 361.33 137.57 362.48 137.46 363.05 137.40 C 363.55 137.33 364.55 137.18 365.05 137.10 C 363.86 142.17 362.10 147.10 359.66 151.71 C 356.92 156.92 356.60 162.95 354.50 168.39 C 353.05 172.83 350.19 177.05 350.81 181.92 C 351.27 186.06 350.06 190.09 348.62 193.92 C 347.05 195.40 347.55 198.03 349.94 198.09 C 358.24 201.00 366.79 203.15 374.96 206.41 C 375.98 207.87 378.43 208.20 378.97 206.15 C 381.72 200.77 387.04 196.82 388.66 190.93 C 389.16 172.00 388.54 153.03 388.96 134.09 C 389.71 132.46 388.67 130.54 386.75 130.92 C 384.95 129.94 382.83 129.14 381.75 127.29 C 380.39 124.46 380.78 121.20 381.16 118.20 C 382.12 112.58 382.98 106.71 386.26 101.88 C 387.50 101.88 389.08 100.59 388.11 99.29 C 387.32 98.64 386.43 98.15 385.45 97.82 C 381.42 94.69 379.00 90.08 376.14 85.96 C 373.59 82.63 374.44 77.67 371.15 74.84 C 366.48 70.66 362.67 65.56 360.01 59.89 C 359.12 58.08 358.74 55.75 360.04 54.03 C 363.85 48.90 370.13 46.77 375.39 43.54 C 380.31 40.54 385.75 38.59 390.81 35.85 C 394.86 33.51 399.88 34.34 403.96 32.02 C 406.28 33.22 408.82 32.32 410.85 30.98 C 411.57 31.01 413.02 31.07 413.75 31.10 C 417.53 31.60 421.31 32.21 425.12 32.50 C 426.72 30.54 428.39 28.64 430.20 26.87 C 440.52 17.32 453.32 10.88 466.72 6.85 M 395.90 38.79 C 393.85 39.64 390.78 39.39 389.78 41.75 C 395.77 41.76 401.84 39.34 407.75 41.24 C 413.71 43.52 416.59 49.76 421.30 53.65 C 422.81 53.86 424.20 52.99 425.60 52.52 C 430.14 50.48 435.01 49.21 439.96 48.66 C 442.39 48.38 444.96 48.59 447.20 47.42 C 440.97 43.73 435.10 39.08 427.95 37.33 C 417.39 34.86 406.19 35.37 395.90 38.79 M 362.40 55.99 C 364.57 61.97 368.77 67.01 373.53 71.12 C 375.29 65.17 376.55 59.09 377.98 53.05 C 378.65 49.60 382.20 47.66 382.87 44.20 C 375.18 46.23 368.88 51.60 362.40 55.99 M 386.00 48.51 L 386.56 48.73 C 381.47 54.57 379.13 62.33 378.38 69.91 C 378.06 73.88 376.92 77.95 377.82 81.90 C 379.35 84.73 381.18 87.39 382.76 90.19 C 385.03 94.39 389.82 96.28 392.28 100.34 C 394.16 100.38 396.09 100.54 397.95 100.13 C 399.33 98.30 400.29 96.14 402.08 94.64 C 401.74 96.73 401.37 98.82 400.96 100.89 C 404.04 101.65 407.21 102.41 410.38 101.73 C 412.14 102.23 413.86 102.87 415.56 103.57 C 415.90 106.12 414.62 109.42 416.63 111.40 C 421.91 109.44 427.27 112.10 432.63 111.52 C 433.82 108.07 436.11 104.63 439.87 103.69 C 446.19 102.69 452.58 103.95 458.51 106.18 C 464.20 107.66 469.72 109.88 474.44 113.45 C 474.81 115.56 475.12 117.68 475.49 119.80 C 479.83 119.53 484.18 119.43 488.52 119.78 C 488.93 120.01 489.75 120.48 490.15 120.72 C 500.48 121.98 510.94 122.71 521.02 125.42 C 525.20 124.06 529.19 126.05 533.21 127.00 C 533.48 124.57 533.63 122.14 533.65 119.70 C 532.95 119.50 531.57 119.10 530.88 118.91 C 531.64 118.91 533.16 118.92 533.92 118.92 C 534.88 116.02 535.20 112.98 535.15 109.93 C 529.62 105.63 522.72 103.30 517.81 98.21 C 514.53 94.72 509.57 93.81 505.65 91.25 C 503.31 89.06 500.51 87.46 497.98 85.53 C 495.63 85.02 493.21 84.39 491.55 82.54 C 488.91 79.89 485.64 77.98 482.02 77.03 C 477.33 75.92 474.41 71.59 469.90 70.07 C 466.38 68.44 462.44 68.32 458.78 67.21 C 456.85 64.95 456.50 61.88 455.65 59.14 C 454.87 56.37 453.25 53.95 451.82 51.49 C 450.24 52.11 448.68 52.90 446.95 52.88 C 440.29 52.94 433.41 53.45 427.28 56.25 C 424.69 57.35 422.65 59.35 420.19 60.67 C 416.91 58.75 415.37 54.93 412.48 52.53 C 410.77 51.24 409.98 49.30 409.50 47.29 C 405.46 45.99 401.20 45.73 397.00 45.85 C 393.13 45.73 389.74 47.88 386.00 48.51 M 196.54 54.72 C 194.92 59.63 195.17 64.86 195.38 69.94 C 195.94 77.46 196.74 85.00 198.52 92.34 C 199.09 94.94 199.47 97.68 201.09 99.89 C 203.12 96.65 203.25 92.60 205.45 89.44 C 206.94 87.21 208.09 84.77 208.57 82.11 C 217.55 79.91 226.88 80.55 236.04 80.73 C 246.52 81.80 257.12 83.60 266.69 88.23 C 275.28 91.22 282.78 96.53 291.24 99.82 C 298.14 103.71 305.49 106.72 312.92 109.46 C 315.10 110.18 317.43 111.32 319.74 110.37 C 317.90 108.19 315.83 106.18 313.39 104.69 C 303.15 98.03 293.59 90.41 283.44 83.61 C 271.93 74.23 257.69 69.05 246.10 59.79 C 235.32 52.56 221.86 50.18 209.08 51.38 C 204.81 52.09 200.73 53.65 196.54 54.72 M 80.02 56.97 C 72.69 58.58 65.10 60.16 58.62 64.13 C 56.82 64.65 55.15 65.51 53.53 66.42 C 51.19 67.27 49.40 69.05 47.31 70.31 C 45.31 71.56 43.05 72.60 41.84 74.74 C 40.42 74.90 39.74 76.49 38.72 77.33 C 37.53 79.70 36.39 82.10 35.36 84.54 C 45.69 85.23 56.14 85.37 66.26 87.85 C 67.54 88.35 68.49 89.41 69.56 90.25 C 75.88 91.18 81.94 93.44 87.75 96.04 C 88.67 96.40 90.04 97.10 90.91 96.40 C 94.81 96.34 93.33 92.32 92.27 90.13 C 93.02 90.93 93.77 91.73 94.52 92.54 C 94.08 94.40 93.56 96.33 94.28 98.20 C 98.55 101.55 103.54 103.75 108.14 106.57 C 124.13 115.92 140.35 125.10 155.03 136.44 C 155.59 136.43 156.71 136.42 157.27 136.41 C 159.38 142.45 165.19 146.02 170.07 149.69 C 172.60 148.64 174.52 146.72 175.62 144.22 C 175.68 142.72 175.74 141.23 175.79 139.74 C 176.20 139.35 177.03 138.58 177.44 138.20 C 176.88 132.36 178.07 126.47 176.95 120.66 C 175.05 105.59 170.79 89.47 159.05 79.00 C 156.50 76.17 154.31 73.03 151.47 70.47 C 150.87 70.38 149.67 70.20 149.07 70.11 C 148.80 69.77 148.28 69.10 148.02 68.76 C 148.59 68.77 149.73 68.79 150.30 68.80 C 147.95 66.08 144.17 65.94 141.10 64.53 C 139.58 63.66 138.42 62.31 137.01 61.29 C 129.98 58.12 122.44 55.63 114.68 55.49 C 107.53 54.45 99.92 53.73 92.90 55.63 C 88.55 55.09 84.26 56.13 80.02 56.97 M 221.34 85.36 C 219.03 87.08 217.80 89.90 216.51 92.40 C 215.17 95.02 218.25 97.55 217.39 100.28 C 216.32 102.34 214.93 104.22 213.94 106.33 L 215.71 106.36 C 215.48 106.66 215.01 107.24 214.78 107.54 C 219.56 107.39 224.40 106.84 229.16 107.67 C 232.92 109.33 233.53 113.77 234.59 117.27 C 240.30 118.09 245.52 121.84 251.46 120.34 C 253.80 118.12 256.00 115.46 259.12 114.36 C 263.88 114.04 268.89 113.85 273.46 115.48 C 273.24 115.21 272.81 114.69 272.59 114.42 C 272.51 113.76 272.34 112.45 272.26 111.79 L 271.86 111.71 C 270.29 106.99 266.89 103.20 263.80 99.42 C 263.18 96.79 262.71 94.04 261.30 91.70 C 258.15 87.98 252.78 89.11 248.72 87.21 C 244.12 84.93 238.94 86.42 234.06 85.73 C 229.85 85.35 225.52 84.27 221.34 85.36 M 7.11 89.33 C 7.07 91.35 7.10 93.76 9.06 94.95 C 11.86 96.81 14.35 99.02 16.33 101.75 C 19.81 103.87 23.53 105.69 27.18 107.54 C 29.47 106.77 31.55 105.38 33.99 105.10 C 45.90 103.57 57.87 105.45 69.59 107.57 C 76.74 109.41 83.56 112.33 90.66 114.39 C 96.39 116.20 102.34 117.17 108.12 118.80 C 110.35 119.37 112.63 120.28 114.95 119.67 C 112.72 117.32 110.56 114.91 108.40 112.51 C 104.97 108.62 99.73 107.35 95.62 104.38 C 92.56 102.10 88.74 101.41 85.33 99.84 C 70.73 92.52 54.12 90.90 38.04 90.19 C 27.77 89.18 17.42 89.22 7.11 89.33 M 438.46 106.72 C 436.84 106.81 435.51 108.28 435.64 109.92 C 435.21 116.87 435.07 123.86 435.71 130.80 C 435.98 130.63 436.52 130.30 436.79 130.13 C 437.52 130.20 438.98 130.34 439.71 130.41 C 450.38 130.06 460.82 132.96 471.49 132.77 C 472.01 126.69 473.02 120.58 472.54 114.48 C 469.68 112.17 465.95 111.13 462.31 111.38 L 462.89 110.80 C 462.19 110.68 460.80 110.44 460.10 110.32 C 453.04 108.45 445.87 105.92 438.46 106.72 M 212.34 110.49 C 212.34 110.96 212.36 111.89 212.36 112.36 C 218.40 113.01 224.75 113.20 230.31 115.91 C 230.75 113.85 230.05 112.05 228.71 110.50 C 223.25 110.36 217.79 110.10 212.34 110.49 M 201.80 116.74 C 196.15 121.66 198.51 130.13 201.05 136.11 C 202.16 135.86 203.28 135.67 204.41 135.53 C 205.19 138.12 204.50 141.77 206.72 143.56 C 212.16 142.78 218.70 143.23 223.07 139.48 L 223.31 139.42 C 224.87 134.15 226.73 128.92 227.52 123.47 C 229.11 121.96 228.50 119.57 228.58 117.62 C 223.57 115.93 218.21 115.02 212.92 115.25 C 210.69 115.23 209.38 117.31 207.74 118.47 C 207.44 117.37 206.94 116.36 206.23 115.44 C 204.68 115.57 202.81 115.22 201.80 116.74 M 255.59 120.21 C 260.54 121.93 265.76 122.63 270.76 124.21 C 272.35 124.42 274.54 125.48 275.72 123.89 C 274.81 121.75 273.77 119.01 271.12 118.69 C 267.20 117.78 263.15 117.26 259.13 117.39 C 257.38 117.32 256.55 119.09 255.59 120.21 M 246.76 127.10 C 246.16 132.44 246.68 137.85 247.61 143.13 C 247.91 145.39 249.78 147.04 251.45 148.40 C 258.54 151.68 266.53 150.06 274.00 151.37 C 278.03 146.87 281.57 141.94 284.92 136.93 C 285.82 135.33 287.66 132.79 285.76 131.26 C 281.99 129.58 277.88 128.82 273.83 128.15 C 266.56 126.50 259.41 124.09 251.96 123.43 C 249.40 122.74 247.72 125.10 246.76 127.10 M 16.43 141.34 C 15.38 146.37 17.49 151.25 18.97 155.96 C 20.29 159.15 22.61 163.33 26.68 162.66 C 27.07 155.40 23.42 148.71 23.43 141.45 C 22.82 140.78 22.20 140.12 21.59 139.45 C 19.67 139.50 17.24 139.07 16.43 141.34 Z" />
</g>
<g id="#d4bc78ff">
<path fill="#d4bc78" opacity="1.00" d=" M 476.59 9.52 C 488.31 6.70 500.89 6.47 512.38 10.45 C 506.11 10.75 500.34 13.50 495.64 17.54 C 489.67 22.37 483.50 26.93 477.23 31.35 C 477.32 33.15 477.43 34.94 477.55 36.73 C 474.87 40.82 469.69 42.43 465.10 40.89 C 461.87 39.55 458.62 38.13 455.75 36.11 C 454.41 34.52 455.22 32.17 455.02 30.26 C 457.80 29.16 460.72 28.07 462.79 25.80 C 468.25 20.15 474.03 14.68 480.67 10.43 C 479.31 10.12 477.95 9.79 476.59 9.52 Z" />
</g>
<g id="#e5cf7aff">
<path fill="#e5cf7a" opacity="1.00" d=" M 435.22 28.16 C 447.23 18.68 461.77 12.89 476.59 9.52 C 477.95 9.79 479.31 10.12 480.67 10.43 C 474.03 14.68 468.25 20.15 462.79 25.80 C 460.72 28.07 457.80 29.16 455.02 30.26 C 455.22 32.17 454.41 34.52 455.75 36.11 C 458.62 38.13 461.87 39.55 465.10 40.89 C 469.69 42.43 474.87 40.82 477.55 36.73 C 477.43 34.94 477.32 33.15 477.23 31.35 C 483.50 26.93 489.67 22.37 495.64 17.54 C 500.34 13.50 506.11 10.75 512.38 10.45 C 521.01 13.36 528.60 18.69 535.16 24.92 C 535.30 25.81 535.44 26.71 535.59 27.60 C 526.89 26.12 518.18 29.61 510.64 33.66 C 504.68 36.75 499.64 41.42 495.97 47.02 C 495.21 48.38 496.07 50.04 496.08 51.49 C 495.38 53.40 494.88 55.37 494.36 57.33 C 497.09 58.56 500.28 59.44 501.88 62.22 C 502.44 63.81 501.93 65.46 501.69 67.05 C 501.01 66.94 499.64 66.73 498.96 66.62 C 492.11 61.19 484.05 57.67 476.46 53.45 C 471.26 50.81 466.24 47.76 460.69 45.88 C 451.45 40.86 442.52 35.23 432.75 31.27 C 433.49 30.18 434.10 28.94 435.22 28.16 Z" />
</g>
<g id="#ceb876ff">
<path fill="#ceb876" opacity="1.00" d=" M 535.16 24.92 C 536.36 25.99 537.60 27.03 538.81 28.09 C 539.04 28.62 539.49 29.69 539.71 30.22 C 533.41 31.68 526.92 32.35 520.78 34.46 C 522.64 34.61 524.50 34.76 526.38 34.83 C 522.95 35.63 519.51 36.52 516.31 37.98 C 516.38 37.42 516.53 36.31 516.60 35.75 C 513.84 36.66 511.19 38.07 509.73 40.70 C 510.21 40.85 511.19 41.14 511.67 41.28 C 510.27 42.03 508.80 42.63 507.36 43.28 C 502.95 45.00 499.70 48.59 496.08 51.49 C 496.07 50.04 495.21 48.38 495.97 47.02 C 499.64 41.42 504.68 36.75 510.64 33.66 C 518.18 29.61 526.89 26.12 535.59 27.60 C 535.44 26.71 535.30 25.81 535.16 24.92 Z" />
</g>
<g id="#8d827fff">
<path fill="#8d827f" opacity="1.00" d=" M 427.77 28.76 C 428.58 28.15 429.39 27.51 430.20 26.87 C 428.39 28.64 426.72 30.54 425.12 32.50 C 421.31 32.21 417.53 31.60 413.75 31.10 C 417.29 31.23 420.84 31.26 424.40 31.35 C 424.87 29.63 425.91 28.54 427.77 28.76 Z" />
<path fill="#8d827f" opacity="1.00" d=" M 385.45 97.82 C 386.43 98.15 387.32 98.64 388.11 99.29 C 389.08 100.59 387.50 101.88 386.26 101.88 C 386.09 100.51 385.79 99.16 385.45 97.82 Z" />
<path fill="#8d827f" opacity="1.00" d=" M 199.15 104.67 C 201.45 104.75 204.07 108.19 201.53 109.72 C 200.85 107.98 200.28 106.17 199.15 104.67 Z" />
<path fill="#8d827f" opacity="1.00" d=" M 14.76 151.40 C 17.06 154.83 17.77 158.95 19.22 162.75 C 20.00 164.88 22.37 165.66 24.05 166.93 C 23.55 176.67 27.21 185.88 28.06 195.47 C 25.10 186.61 23.49 177.28 22.88 167.96 C 21.43 166.23 19.07 165.15 18.43 162.84 C 17.18 159.04 15.80 155.27 14.76 151.40 Z" />
<path fill="#8d827f" opacity="1.00" d=" M 232.36 249.52 C 234.77 248.12 237.61 248.88 240.22 248.98 C 240.62 253.58 239.00 257.94 237.80 262.28 C 236.08 263.98 234.53 265.92 234.81 268.50 C 234.60 274.20 233.82 279.85 232.56 285.40 C 231.06 292.21 230.60 299.20 229.04 306.00 L 217.96 306.00 C 217.65 297.96 220.06 290.03 218.96 282.00 C 218.06 275.82 219.95 269.61 218.52 263.46 C 219.34 260.90 221.51 259.14 223.30 257.26 C 226.15 254.50 228.81 251.41 232.36 249.52 Z" />
<path fill="#8d827f" opacity="1.00" d=" M 173.46 295.78 C 180.54 294.14 187.13 290.95 194.13 289.05 C 189.91 294.45 185.64 299.85 182.54 306.00 L 135.78 306.00 C 142.24 303.85 148.40 300.68 155.20 299.65 C 161.36 298.71 167.47 297.49 173.46 295.78 Z" />
</g>
<g id="#8c7937ff">
<path fill="#8c7937" opacity="1.00" d=" M 538.81 28.09 L 539.43 28.61 C 540.45 30.68 541.22 33.01 543.22 34.39 C 537.61 33.52 531.95 33.91 526.38 34.83 C 524.50 34.76 522.64 34.61 520.78 34.46 C 526.92 32.35 533.41 31.68 539.71 30.22 C 539.49 29.69 539.04 28.62 538.81 28.09 Z" />
<path fill="#8c7937" opacity="1.00" d=" M 496.08 51.49 C 499.70 48.59 502.95 45.00 507.36 43.28 C 504.07 45.96 500.84 48.77 498.06 51.98 C 497.14 52.98 497.19 54.42 496.89 55.66 C 497.91 55.99 498.93 56.32 499.95 56.65 C 499.11 56.56 497.44 56.36 496.60 56.26 C 497.50 58.77 500.06 59.72 502.09 61.07 C 503.61 62.43 502.15 64.52 501.95 66.16 C 501.68 67.47 501.48 68.80 501.34 70.14 C 500.88 69.45 500.43 68.77 499.98 68.09 C 499.73 67.73 499.21 66.99 498.96 66.62 C 499.64 66.73 501.01 66.94 501.69 67.05 C 501.93 65.46 502.44 63.81 501.88 62.22 C 500.28 59.44 497.09 58.56 494.36 57.33 C 494.88 55.37 495.38 53.40 496.08 51.49 Z" />
</g>
<g id="#5d4c15ff">
<path fill="#5d4c15" opacity="1.00" d=" M 539.43 28.61 C 542.67 30.62 545.78 32.85 548.64 35.38 C 551.42 37.78 552.58 41.40 554.58 44.38 C 556.89 47.95 558.37 51.95 560.39 55.67 C 563.06 60.58 565.49 65.65 566.90 71.08 C 569.16 79.58 574.75 86.98 575.54 95.88 C 576.21 102.27 578.16 108.53 578.14 114.97 C 577.41 120.70 575.51 126.20 574.21 131.81 C 573.29 133.41 572.29 134.95 571.15 136.39 C 570.64 136.47 569.64 136.63 569.13 136.72 C 573.28 128.98 575.63 120.45 576.67 111.76 L 575.60 111.49 L 574.78 111.06 C 574.65 101.41 573.53 91.42 568.94 82.77 C 565.39 74.38 562.53 65.70 558.90 57.34 C 558.33 55.82 557.22 54.62 555.86 53.76 C 555.52 51.91 555.19 50.02 554.26 48.35 C 550.90 43.53 549.01 36.90 543.22 34.39 C 541.22 33.01 540.45 30.68 539.43 28.61 Z" />
<path fill="#5d4c15" opacity="1.00" d=" M 359.84 99.76 C 360.52 101.23 361.28 102.68 361.97 104.15 C 365.36 110.77 364.69 118.44 366.16 125.55 C 366.28 129.43 366.07 133.34 365.05 137.10 C 364.55 137.18 363.55 137.33 363.05 137.40 C 363.60 133.99 364.26 130.59 364.71 127.16 C 362.73 123.80 362.92 119.80 362.66 116.05 C 362.42 110.52 361.01 105.14 359.84 99.76 Z" />
</g>
<g id="#484132ff">
<path fill="#484132" opacity="1.00" d=" M 271.40 33.06 C 278.21 31.63 285.16 30.24 292.15 30.97 C 303.17 32.13 314.16 36.11 322.54 43.53 C 326.13 46.71 329.87 49.73 333.27 53.13 C 333.13 53.89 332.86 55.41 332.73 56.17 C 331.24 55.21 329.75 54.25 328.32 53.22 C 325.22 50.09 321.95 47.09 318.30 44.61 C 314.03 41.70 309.59 38.92 304.65 37.30 C 296.05 34.22 286.57 33.45 277.63 35.39 C 270.40 36.89 263.47 39.57 256.95 43.00 C 259.81 37.45 266.46 36.11 271.40 33.06 Z" />
</g>
<g id="#6e6d6cff">
<path fill="#6e6d6c" opacity="1.00" d=" M 403.96 32.02 C 406.03 30.74 408.50 30.74 410.85 30.98 C 408.82 32.32 406.28 33.22 403.96 32.02 Z" />
<path fill="#6e6d6c" opacity="1.00" d=" M 22.53 84.16 C 25.01 84.02 27.85 84.78 30.00 83.18 C 29.83 83.61 29.50 84.49 29.33 84.92 C 27.05 84.84 24.78 84.51 22.53 84.16 Z" />
<path fill="#6e6d6c" opacity="1.00" d=" M 212.34 110.49 C 217.79 110.10 223.25 110.36 228.71 110.50 C 230.05 112.05 230.75 113.85 230.31 115.91 C 224.75 113.20 218.40 113.01 212.36 112.36 C 212.36 111.89 212.34 110.96 212.34 110.49 Z" />
</g>
<g id="#d1b874ff">
<path fill="#d1b874" opacity="1.00" d=" M 277.63 35.39 C 286.57 33.45 296.05 34.22 304.65 37.30 C 297.13 37.23 290.11 39.94 283.73 43.71 C 280.21 46.04 274.48 46.75 273.62 51.58 C 275.14 51.56 276.67 51.52 278.21 51.48 C 278.70 55.23 275.34 58.13 271.89 58.61 C 268.71 58.53 265.53 57.66 262.67 56.29 C 260.98 54.24 262.30 51.39 263.26 49.30 C 267.06 42.77 274.11 39.18 280.88 36.44 C 279.80 36.07 278.71 35.72 277.63 35.39 Z" />
</g>
<g id="#e4ce7bff">
<path fill="#e4ce7b" opacity="1.00" d=" M 526.38 34.83 C 531.95 33.91 537.61 33.52 543.22 34.39 C 549.01 36.90 550.90 43.53 554.26 48.35 C 551.03 48.77 549.27 45.70 547.30 43.73 C 544.85 40.65 541.21 39.02 538.13 36.69 C 535.65 38.13 532.84 38.29 530.04 37.81 C 526.53 37.31 523.01 37.87 519.58 38.56 C 519.34 44.68 519.19 50.88 520.36 56.91 C 522.20 64.09 527.08 69.89 531.33 75.77 C 537.41 83.88 544.14 91.49 551.25 98.71 C 555.02 102.76 560.43 104.86 563.87 109.26 C 567.71 110.32 571.65 110.97 575.60 111.49 L 576.67 111.76 C 575.63 120.45 573.28 128.98 569.13 136.72 C 565.76 139.64 563.57 143.71 560.17 146.57 C 559.39 146.64 557.85 146.78 557.07 146.85 C 557.91 139.48 561.21 132.52 561.27 125.04 C 560.91 122.86 560.10 120.80 559.36 118.74 C 556.29 117.91 553.09 117.46 550.19 116.14 C 547.76 113.79 545.82 110.95 543.07 108.92 C 540.02 106.65 538.00 103.18 534.61 101.34 C 534.91 99.37 535.23 97.40 535.56 95.44 C 531.52 91.49 526.62 88.62 522.19 85.18 C 521.26 85.42 520.29 85.55 519.39 85.86 C 515.83 82.77 512.53 79.30 508.22 77.23 C 508.94 76.61 509.68 75.99 510.43 75.38 L 508.65 75.77 L 508.29 74.73 L 507.92 74.50 L 507.53 73.93 C 505.84 71.22 503.75 68.79 501.95 66.16 C 502.15 64.52 503.61 62.43 502.09 61.07 C 500.06 59.72 497.50 58.77 496.60 56.26 C 497.44 56.36 499.11 56.56 499.95 56.65 C 498.93 56.32 497.91 55.99 496.89 55.66 C 497.19 54.42 497.14 52.98 498.06 51.98 C 500.84 48.77 504.07 45.96 507.36 43.28 C 508.80 42.63 510.27 42.03 511.67 41.28 C 513.28 40.27 514.74 39.06 516.31 37.98 C 519.51 36.52 522.95 35.63 526.38 34.83 M 500.20 54.80 C 502.81 56.32 505.72 57.26 508.30 58.86 C 508.84 58.15 509.43 57.46 510.04 56.80 C 507.56 56.51 505.33 55.36 503.32 53.93 C 503.23 53.07 503.04 51.34 502.95 50.48 C 501.19 50.99 498.30 52.73 500.20 54.80 Z" />
</g>
<g id="#e5cf7bff">
<path fill="#e5cf7b" opacity="1.00" d=" M 256.95 43.00 C 263.47 39.57 270.40 36.89 277.63 35.39 C 278.71 35.72 279.80 36.07 280.88 36.44 C 274.11 39.18 267.06 42.77 263.26 49.30 C 262.30 51.39 260.98 54.24 262.67 56.29 C 265.53 57.66 268.71 58.53 271.89 58.61 C 275.34 58.13 278.70 55.23 278.21 51.48 C 276.67 51.52 275.14 51.56 273.62 51.58 C 274.48 46.75 280.21 46.04 283.73 43.71 C 290.11 39.94 297.13 37.23 304.65 37.30 C 309.59 38.92 314.03 41.70 318.30 44.61 C 318.74 45.59 319.19 46.58 319.63 47.57 C 307.64 46.65 296.10 52.47 287.73 60.70 C 284.01 64.48 282.09 69.54 281.91 74.80 C 275.61 69.79 268.14 66.63 261.21 62.62 C 255.67 59.58 250.80 55.48 245.31 52.35 C 245.29 51.90 245.27 51.00 245.25 50.55 C 249.11 47.97 253.07 45.56 256.95 43.00 Z" />
</g>
<g id="#685f51ff">
<path fill="#685f51" opacity="1.00" d=" M 395.90 38.79 C 406.19 35.37 417.39 34.86 427.95 37.33 C 435.10 39.08 440.97 43.73 447.20 47.42 C 444.96 48.59 442.39 48.38 439.96 48.66 C 435.01 49.21 430.14 50.48 425.60 52.52 C 424.20 52.99 422.81 53.86 421.30 53.65 C 416.59 49.76 413.71 43.52 407.75 41.24 C 401.84 39.34 395.77 41.76 389.78 41.75 C 390.78 39.39 393.85 39.64 395.90 38.79 Z" />
</g>
<g id="#b09a51ff">
<path fill="#b09a51" opacity="1.00" d=" M 509.73 40.70 C 511.19 38.07 513.84 36.66 516.60 35.75 C 516.53 36.31 516.38 37.42 516.31 37.98 C 514.74 39.06 513.28 40.27 511.67 41.28 C 511.19 41.14 510.21 40.85 509.73 40.70 Z" />
</g>
<g id="#d4bd66ff">
<path fill="#d4bd66" opacity="1.00" d=" M 530.04 37.81 C 532.84 38.29 535.65 38.13 538.13 36.69 C 541.21 39.02 544.85 40.65 547.30 43.73 C 549.27 45.70 551.03 48.77 554.26 48.35 C 555.19 50.02 555.52 51.91 555.86 53.76 C 549.87 50.79 546.67 44.46 541.16 40.88 C 535.24 38.44 528.61 39.07 522.36 39.42 C 520.20 47.18 520.36 56.16 525.04 63.00 C 527.92 67.39 530.49 72.02 533.88 76.07 C 542.55 86.33 550.72 97.50 562.30 104.72 C 566.20 107.32 570.65 108.88 574.78 111.06 L 575.60 111.49 C 571.65 110.97 567.71 110.32 563.87 109.26 C 560.43 104.86 555.02 102.76 551.25 98.71 C 544.14 91.49 537.41 83.88 531.33 75.77 C 527.08 69.89 522.20 64.09 520.36 56.91 C 519.19 50.88 519.34 44.68 519.58 38.56 C 523.01 37.87 526.53 37.31 530.04 37.81 Z" />
</g>
<g id="#e5cf79ff">
<path fill="#e5cf79" opacity="1.00" d=" M 522.36 39.42 C 528.61 39.07 535.24 38.44 541.16 40.88 C 546.67 44.46 549.87 50.79 555.86 53.76 C 557.22 54.62 558.33 55.82 558.90 57.34 C 562.53 65.70 565.39 74.38 568.94 82.77 C 573.53 91.42 574.65 101.41 574.78 111.06 C 570.65 108.88 566.20 107.32 562.30 104.72 C 550.72 97.50 542.55 86.33 533.88 76.07 C 530.49 72.02 527.92 67.39 525.04 63.00 C 520.36 56.16 520.20 47.18 522.36 39.42 Z" />
<path fill="#e5cf79" opacity="1.00" d=" M 302.97 59.02 C 306.49 57.19 309.95 54.71 314.08 54.66 C 316.65 54.60 320.10 54.63 321.39 57.33 C 324.49 62.55 329.35 66.57 334.85 69.08 C 337.62 70.47 340.36 71.95 342.97 73.65 C 351.56 79.39 355.64 89.39 359.38 98.59 C 359.50 98.88 359.72 99.47 359.84 99.76 C 361.01 105.14 362.42 110.52 362.66 116.05 C 362.92 119.80 362.73 123.80 364.71 127.16 C 364.26 130.59 363.60 133.99 363.05 137.40 C 362.48 137.46 361.33 137.57 360.76 137.62 C 357.90 134.68 355.75 131.06 352.39 128.63 C 340.70 119.94 328.71 111.66 316.76 103.32 C 314.71 101.70 313.48 99.22 311.19 97.87 C 306.53 95.04 302.26 91.67 297.92 88.40 C 299.20 85.91 300.42 83.40 301.62 80.87 C 299.71 75.94 293.81 75.17 290.46 71.60 C 290.38 70.68 290.34 69.76 290.33 68.84 C 294.60 65.64 298.18 61.50 302.97 59.02 Z" />
<path fill="#e5cf79" opacity="1.00" d=" M 92.96 69.54 C 97.08 66.95 101.60 64.88 106.49 64.35 C 113.26 65.43 120.17 63.87 126.91 65.30 C 135.78 66.61 143.41 72.33 148.44 79.56 C 152.36 85.00 154.39 91.62 158.90 96.66 C 159.25 96.24 159.95 95.39 160.30 94.97 C 160.98 94.17 161.66 93.38 162.35 92.60 C 166.73 98.45 167.33 105.98 168.21 112.98 C 169.11 120.38 168.63 127.93 166.49 135.09 C 169.17 136.20 172.03 136.80 174.93 136.87 C 175.14 139.32 175.38 141.77 175.62 144.22 C 174.52 146.72 172.60 148.64 170.07 149.69 C 165.19 146.02 159.38 142.45 157.27 136.41 C 156.71 136.42 155.59 136.43 155.03 136.44 C 140.35 125.10 124.13 115.92 108.14 106.57 C 103.54 103.75 98.55 101.55 94.28 98.20 C 95.45 95.56 96.26 92.76 96.60 89.89 C 92.93 89.76 89.81 87.72 86.57 86.26 C 84.67 84.20 80.58 82.43 81.39 79.14 C 83.22 75.03 87.04 72.35 90.42 69.59 C 91.06 69.58 92.32 69.55 92.96 69.54 Z" />
</g>
<g id="#696052ff">
<path fill="#696052" opacity="1.00" d=" M 362.40 55.99 C 368.88 51.60 375.18 46.23 382.87 44.20 C 382.20 47.66 378.65 49.60 377.98 53.05 C 376.55 59.09 375.29 65.17 373.53 71.12 C 368.77 67.01 364.57 61.97 362.40 55.99 Z" />
</g>
<g id="#cfb978ff">
<path fill="#cfb978" opacity="1.00" d=" M 318.30 44.61 C 321.95 47.09 325.22 50.09 328.32 53.22 C 328.42 53.59 328.62 54.34 328.72 54.72 C 327.07 54.09 325.43 53.42 323.80 52.75 C 318.88 50.15 313.13 51.48 308.14 53.18 C 301.44 55.52 296.27 60.55 291.02 65.09 C 288.21 67.81 285.22 71.17 285.43 75.35 C 284.65 75.57 283.88 75.79 283.12 76.02 C 282.82 75.71 282.21 75.10 281.91 74.80 C 282.09 69.54 284.01 64.48 287.73 60.70 C 296.10 52.47 307.64 46.65 319.63 47.57 C 319.19 46.58 318.74 45.59 318.30 44.61 Z" />
</g>
<g id="#4d4b49ff">
<path fill="#4d4b49" opacity="1.00" d=" M 386.00 48.51 C 389.74 47.88 393.13 45.73 397.00 45.85 C 401.20 45.73 405.46 45.99 409.50 47.29 C 409.98 49.30 410.77 51.24 412.48 52.53 C 415.37 54.93 416.91 58.75 420.19 60.67 C 422.65 59.35 424.69 57.35 427.28 56.25 C 433.41 53.45 440.29 52.94 446.95 52.88 C 448.68 52.90 450.24 52.11 451.82 51.49 C 453.25 53.95 454.87 56.37 455.65 59.14 C 456.50 61.88 456.85 64.95 458.78 67.21 C 462.44 68.32 466.38 68.44 469.90 70.07 C 474.41 71.59 477.33 75.92 482.02 77.03 C 485.64 77.98 488.91 79.89 491.55 82.54 C 493.21 84.39 495.63 85.02 497.98 85.53 C 492.62 86.44 488.69 90.46 484.20 93.17 C 478.21 96.88 471.69 100.46 464.45 100.43 C 459.79 99.01 454.88 98.11 450.01 98.85 C 452.49 98.46 454.98 98.10 457.45 97.63 C 451.73 95.03 445.33 94.52 439.62 91.86 C 444.21 87.81 450.54 89.54 456.04 89.93 C 461.39 90.30 464.87 95.06 469.96 96.23 C 470.14 95.02 470.41 93.82 470.43 92.59 C 469.51 90.87 467.85 89.73 466.44 88.47 C 460.15 83.48 455.26 76.96 448.76 72.23 C 445.81 70.12 443.10 67.66 439.92 65.91 C 436.47 65.41 433.31 67.64 430.80 69.75 C 425.76 74.43 420.35 78.67 415.37 83.40 C 412.65 86.30 408.19 85.79 405.24 88.33 C 402.19 87.72 398.72 87.82 396.17 85.82 C 394.57 84.54 395.27 82.33 395.71 80.68 C 397.97 73.65 401.40 67.05 403.58 59.99 C 397.97 56.15 392.70 51.73 386.56 48.73 L 386.00 48.51 Z" />
</g>
<g id="#6e6555ff">
<path fill="#6e6555" opacity="1.00" d=" M 460.69 45.88 C 466.24 47.76 471.26 50.81 476.46 53.45 C 484.05 57.67 492.11 61.19 498.96 66.62 C 499.21 66.99 499.73 67.73 499.98 68.09 C 499.58 68.50 498.78 69.31 498.37 69.72 C 490.83 64.87 482.97 60.52 475.60 55.41 C 470.72 52.08 465.25 49.67 460.69 45.88 Z" />
</g>
<g id="#736a67ff">
<path fill="#736a67" opacity="1.00" d=" M 386.56 48.73 C 392.70 51.73 397.97 56.15 403.58 59.99 C 401.40 67.05 397.97 73.65 395.71 80.68 C 395.27 82.33 394.57 84.54 396.17 85.82 C 398.72 87.82 402.19 87.72 405.24 88.33 L 406.37 88.51 C 410.58 91.99 416.26 91.87 421.14 93.84 C 421.56 94.92 421.99 95.99 422.43 97.07 C 421.84 97.92 421.26 98.78 420.68 99.63 C 414.64 100.04 409.23 97.03 403.64 95.29 C 403.16 96.93 402.62 98.56 402.08 100.19 C 404.87 100.51 407.68 100.89 410.38 101.73 C 407.21 102.41 404.04 101.65 400.96 100.89 C 401.37 98.82 401.74 96.73 402.08 94.64 C 400.29 96.14 399.33 98.30 397.95 100.13 C 396.09 100.54 394.16 100.38 392.28 100.34 C 389.82 96.28 385.03 94.39 382.76 90.19 C 381.18 87.39 379.35 84.73 377.82 81.90 C 376.92 77.95 378.06 73.88 378.38 69.91 C 379.13 62.33 381.47 54.57 386.56 48.73 Z" />
<path fill="#736a67" opacity="1.00" d=" M 62.48 123.18 C 70.01 123.04 76.64 126.95 83.41 129.68 C 88.18 131.81 93.27 133.36 97.60 136.36 C 103.74 140.59 109.80 145.01 116.51 148.31 C 116.70 152.76 115.49 157.05 114.62 161.36 C 112.93 169.32 112.78 177.57 110.42 185.38 C 108.54 190.66 107.68 196.18 107.02 201.73 C 104.18 207.90 101.21 214.42 95.65 218.65 C 90.28 222.59 84.76 226.37 79.79 230.82 C 78.49 231.84 78.41 233.59 77.89 235.03 C 83.07 233.13 87.64 229.98 92.53 227.49 C 98.36 224.17 104.80 221.42 109.27 216.23 C 110.80 214.54 110.79 212.13 111.26 210.03 C 111.97 205.14 113.92 200.57 115.01 195.78 C 116.09 188.51 120.65 182.58 122.76 175.67 C 125.16 168.57 128.54 161.86 131.11 154.82 C 131.65 154.56 132.73 154.05 133.27 153.79 C 141.93 159.28 151.20 164.59 157.45 172.94 C 155.36 179.91 154.57 187.16 153.42 194.32 C 151.86 201.79 152.47 209.46 151.67 217.01 C 151.71 221.97 150.77 228.28 155.33 231.64 C 162.59 237.39 169.93 243.03 176.94 249.09 C 183.23 254.81 191.76 257.15 198.07 262.86 C 200.11 264.95 202.87 265.84 205.74 265.98 C 204.55 270.41 202.93 274.73 200.76 278.78 C 200.03 280.39 198.41 281.22 196.91 281.96 C 189.53 285.44 181.77 288.01 174.29 291.25 C 166.52 294.51 158.43 297.21 150.04 298.32 C 137.70 300.14 125.29 302.07 113.42 306.00 L 39.51 306.00 C 36.65 300.94 34.41 295.55 31.40 290.58 C 30.71 289.13 29.54 287.75 29.60 286.08 C 34.89 278.24 43.02 272.33 46.73 263.45 C 50.22 258.55 52.99 253.14 55.84 247.87 C 54.11 242.00 50.76 235.91 53.49 229.72 C 51.33 229.63 49.17 229.54 47.02 229.44 C 47.34 231.78 47.58 234.14 47.83 236.50 C 47.22 234.50 46.53 232.52 45.85 230.55 C 43.91 229.53 41.93 228.57 40.08 227.39 C 41.68 227.44 43.29 227.34 44.89 227.31 C 52.28 229.80 60.63 228.99 67.75 225.91 C 75.12 222.89 82.02 218.83 89.00 215.02 C 90.18 214.13 92.15 213.62 92.29 211.90 C 94.40 199.29 96.63 186.71 99.13 174.17 C 100.84 167.02 98.00 159.23 92.97 154.07 C 92.94 153.70 92.88 152.97 92.85 152.60 C 92.52 152.49 91.85 152.29 91.52 152.18 C 90.27 150.59 89.01 149.00 87.72 147.44 C 87.03 147.45 85.66 147.46 84.97 147.46 L 84.68 145.72 C 84.61 145.18 84.45 144.09 84.37 143.55 C 83.37 142.53 82.37 141.51 81.36 140.51 C 75.04 140.36 68.71 139.79 62.39 140.27 C 68.46 137.53 75.21 139.93 81.58 138.92 C 79.20 138.13 76.83 137.32 74.38 136.76 C 75.28 136.72 77.06 136.63 77.96 136.59 C 73.81 131.05 67.85 127.38 62.48 123.18 Z" />
<path fill="#736a67" opacity="1.00" d=" M 525.88 127.28 C 528.61 127.31 531.48 127.37 533.65 129.28 C 530.75 132.89 527.08 136.47 526.83 141.39 C 526.05 146.98 529.65 151.79 530.23 157.19 C 530.64 160.75 531.10 164.31 531.82 167.82 C 532.24 167.63 533.08 167.24 533.50 167.04 C 531.25 169.92 531.78 173.87 529.88 176.92 C 525.62 184.61 521.70 192.49 517.56 200.24 C 516.94 201.97 514.94 204.10 516.90 205.73 C 511.95 209.20 508.38 214.08 504.59 218.69 C 504.54 217.23 504.49 215.78 504.44 214.32 C 498.38 216.14 493.34 220.08 487.56 222.50 C 487.52 223.15 487.44 224.45 487.39 225.10 C 479.69 226.86 471.72 227.95 464.48 231.26 C 459.66 232.98 454.46 233.22 449.61 234.84 C 445.39 235.84 442.42 239.19 439.22 241.86 C 436.05 244.84 432.76 247.89 430.80 251.84 C 422.44 268.67 416.63 287.08 416.36 306.00 L 393.56 306.00 C 393.16 299.33 392.71 292.66 392.81 285.97 C 392.90 284.00 392.72 281.77 394.14 280.19 C 399.68 273.41 405.91 267.24 411.96 260.92 C 414.40 258.58 416.79 256.10 418.14 252.95 C 415.94 253.69 413.88 254.78 411.91 255.99 C 410.50 254.40 408.21 252.25 409.96 250.04 C 413.18 245.76 417.69 242.67 421.16 238.61 C 422.74 238.86 424.31 239.09 425.91 239.33 C 425.65 238.83 425.13 237.83 424.87 237.34 C 419.74 233.92 413.77 231.93 408.70 228.37 C 402.50 224.00 396.01 219.27 392.77 212.16 C 394.26 207.11 392.29 202.06 391.92 197.01 C 391.08 189.64 392.29 182.27 392.52 174.90 C 392.61 171.36 393.23 167.85 394.03 164.41 C 394.90 164.37 396.63 164.30 397.50 164.26 C 397.36 166.64 398.86 168.35 400.89 169.35 C 401.43 168.44 401.98 167.53 402.53 166.62 C 405.84 165.29 408.72 163.13 412.02 161.79 C 421.07 161.81 430.15 162.08 439.14 162.91 C 444.10 168.04 447.46 174.64 451.67 180.43 C 456.41 186.80 460.31 193.87 466.12 199.37 C 470.12 196.69 473.10 192.86 476.53 189.54 C 483.46 182.48 490.99 176.06 497.99 169.08 C 503.93 164.31 511.04 160.39 515.14 153.75 C 512.85 152.46 510.42 151.34 508.44 149.58 C 507.97 148.10 508.26 146.50 509.49 145.48 C 514.30 140.65 519.22 135.92 524.08 131.14 C 525.24 130.16 525.59 128.69 525.88 127.28 M 406.62 189.02 C 408.70 197.19 412.71 204.66 415.95 212.40 C 428.74 213.51 441.30 210.06 453.66 207.25 C 453.56 204.99 454.20 202.33 452.39 200.57 C 447.77 194.76 443.86 188.45 439.50 182.45 C 438.21 180.83 436.99 178.89 434.91 178.23 C 427.75 175.73 420.07 176.44 412.63 176.37 C 409.70 179.96 405.31 183.88 406.62 189.02 Z" />
<path fill="#736a67" opacity="1.00" d=" M 317.51 137.28 L 318.56 138.11 C 322.31 144.60 324.02 152.23 328.76 158.14 C 329.32 158.19 330.45 158.30 331.01 158.35 C 334.28 163.89 336.91 169.79 340.20 175.33 C 341.47 174.21 342.80 173.15 344.01 171.96 C 342.99 173.48 341.89 175.01 341.30 176.77 C 342.44 181.11 347.21 184.93 345.59 189.63 C 341.96 194.95 334.72 198.84 334.70 206.03 C 327.04 214.46 315.62 218.46 308.70 227.62 C 307.41 227.54 306.13 227.46 304.84 227.39 C 301.18 229.84 297.77 232.82 293.56 234.34 C 290.63 235.40 287.68 236.44 284.83 237.74 C 281.29 239.46 277.27 239.73 273.66 241.26 C 269.87 242.85 265.81 243.52 261.80 244.26 C 256.51 245.16 251.38 246.90 246.02 247.47 C 244.57 247.75 242.84 247.64 241.79 248.88 C 240.96 250.86 241.68 253.06 241.83 255.11 C 241.24 255.80 240.65 256.49 240.06 257.19 C 239.72 264.07 240.81 271.30 245.63 276.57 C 246.43 276.53 248.04 276.46 248.84 276.42 C 252.43 283.14 257.69 289.32 264.77 292.46 C 268.99 294.31 273.25 296.78 278.00 296.61 C 280.59 296.72 282.31 294.49 284.24 293.12 C 289.46 288.64 296.15 286.50 301.80 282.68 C 310.21 276.50 318.26 269.86 326.51 263.49 C 333.70 258.30 339.95 251.80 347.84 247.61 C 348.94 247.49 350.05 247.38 351.16 247.30 C 350.26 252.06 349.48 257.30 345.84 260.85 C 342.17 264.40 341.43 269.68 338.85 273.92 C 335.65 279.25 333.68 285.21 330.37 290.47 C 327.27 295.41 325.26 300.90 322.49 306.00 L 229.04 306.00 C 230.60 299.20 231.06 292.21 232.56 285.40 C 233.82 279.85 234.60 274.20 234.81 268.50 C 236.91 267.01 238.23 264.93 237.80 262.28 C 239.00 257.94 240.62 253.58 240.22 248.98 C 237.61 248.88 234.77 248.12 232.36 249.52 C 228.81 251.41 226.15 254.50 223.30 257.26 C 221.51 259.14 219.34 260.90 218.52 263.46 C 217.49 266.92 217.53 270.56 217.31 274.13 C 216.75 271.62 216.01 269.14 214.78 266.87 C 213.41 268.21 212.02 269.54 210.71 270.94 C 213.12 266.33 214.30 260.79 218.51 257.36 C 221.72 254.75 224.15 251.38 226.19 247.80 C 237.18 247.62 248.53 247.23 258.81 242.93 C 248.86 241.81 238.94 243.90 228.97 243.46 C 226.96 243.23 224.46 243.80 222.96 242.10 C 218.07 237.46 216.31 230.74 212.79 225.18 C 210.23 221.19 208.94 216.57 206.41 212.57 C 203.37 207.62 201.43 202.09 199.50 196.63 C 197.84 191.32 195.52 186.05 195.48 180.39 C 195.53 173.40 196.06 166.18 199.25 159.83 C 200.82 160.61 202.39 161.39 203.98 162.12 C 203.49 163.20 203.06 164.38 203.66 165.52 C 205.07 169.65 206.25 173.86 207.34 178.10 C 215.00 177.44 219.93 170.28 227.41 169.02 C 229.87 168.62 232.34 168.32 234.83 168.09 C 235.35 168.16 236.39 168.30 236.91 168.37 C 241.23 169.90 244.80 172.86 248.42 175.58 C 254.23 180.03 260.13 184.44 265.09 189.86 C 266.88 191.87 269.48 193.43 270.00 196.27 C 263.44 198.06 258.26 203.40 251.36 203.92 C 251.14 198.91 252.01 193.97 252.84 189.06 C 240.94 187.08 228.89 185.67 216.81 186.31 C 216.23 190.13 214.76 194.10 215.98 197.95 C 217.56 203.16 220.54 208.33 225.47 211.01 C 225.13 208.70 224.65 206.38 224.76 204.04 C 230.22 201.46 236.73 202.82 242.52 203.60 C 243.72 208.63 243.05 213.78 242.17 218.81 C 247.59 218.31 253.46 218.45 258.24 215.47 C 263.66 212.40 269.24 209.63 274.90 207.04 C 280.63 204.43 285.68 200.53 290.14 196.12 C 294.04 191.99 299.35 189.48 302.68 184.77 C 307.39 181.88 311.35 178.04 315.09 174.00 C 316.46 164.96 318.62 155.74 316.93 146.60 C 316.52 143.48 317.22 140.37 317.51 137.28 Z" />
<path fill="#736a67" opacity="1.00" d=" M 532.11 182.69 C 535.66 188.22 538.80 194.01 542.65 199.35 C 545.01 202.45 545.54 206.40 547.18 209.84 C 555.36 218.63 560.88 229.46 567.98 239.08 C 569.58 241.43 571.69 243.78 571.76 246.78 C 564.79 251.00 556.42 252.80 549.90 257.90 C 548.86 258.67 548.41 259.71 548.56 261.03 C 551.03 264.31 554.73 266.35 557.39 269.46 C 559.68 272.19 562.11 274.93 563.57 278.22 C 563.52 279.94 562.81 281.55 562.25 283.15 C 559.02 291.21 554.63 298.76 549.84 306.00 L 509.81 306.00 C 515.22 296.36 519.70 286.23 524.11 276.10 C 526.75 270.20 528.28 263.86 531.16 258.06 C 532.61 255.10 534.11 252.14 534.87 248.91 C 537.37 238.46 538.41 227.71 538.72 216.99 C 538.89 210.71 539.87 204.36 538.79 198.12 C 537.56 193.23 532.63 190.71 528.06 189.78 C 529.25 187.33 530.59 184.95 532.11 182.69 Z" />
</g>
<g id="#68604fff">
<path fill="#68604f" opacity="1.00" d=" M 196.54 54.72 C 200.73 53.65 204.81 52.09 209.08 51.38 C 221.86 50.18 235.32 52.56 246.10 59.79 C 257.69 69.05 271.93 74.23 283.44 83.61 C 293.59 90.41 303.15 98.03 313.39 104.69 C 315.83 106.18 317.90 108.19 319.74 110.37 C 317.43 111.32 315.10 110.18 312.92 109.46 C 305.49 106.72 298.14 103.71 291.24 99.82 C 282.78 96.53 275.28 91.22 266.69 88.23 C 257.12 83.60 246.52 81.80 236.04 80.73 C 226.88 80.55 217.55 79.91 208.57 82.11 C 208.09 84.77 206.94 87.21 205.45 89.44 C 203.25 92.60 203.12 96.65 201.09 99.89 C 199.47 97.68 199.09 94.94 198.52 92.34 C 196.74 85.00 195.94 77.46 195.38 69.94 C 195.17 64.86 194.92 59.63 196.54 54.72 Z" />
</g>
<g id="#685b36ff">
<path fill="#685b36" opacity="1.00" d=" M 308.14 53.18 C 313.13 51.48 318.88 50.15 323.80 52.75 C 322.37 56.10 325.37 58.42 327.43 60.54 C 330.38 63.69 334.88 65.01 337.18 68.83 C 336.60 68.89 335.43 69.01 334.85 69.08 C 329.35 66.57 324.49 62.55 321.39 57.33 C 320.10 54.63 316.65 54.60 314.08 54.66 C 309.95 54.71 306.49 57.19 302.97 59.02 C 298.18 61.50 294.60 65.64 290.33 68.84 C 290.34 69.76 290.38 70.68 290.46 71.60 C 293.81 75.17 299.71 75.94 301.62 80.87 C 300.42 83.40 299.20 85.91 297.92 88.40 C 297.16 87.80 296.40 87.22 295.65 86.62 C 297.61 85.01 299.61 83.00 298.75 80.21 C 295.83 77.72 292.29 76.15 288.96 74.30 C 287.78 74.65 286.61 75.00 285.43 75.35 C 285.22 71.17 288.21 67.81 291.02 65.09 C 296.27 60.55 301.44 55.52 308.14 53.18 Z" />
</g>
<g id="#ccb967ff">
<path fill="#ccb967" opacity="1.00" d=" M 500.20 54.80 C 498.30 52.73 501.19 50.99 502.95 50.48 C 503.04 51.34 503.23 53.07 503.32 53.93 C 505.33 55.36 507.56 56.51 510.04 56.80 C 509.43 57.46 508.84 58.15 508.30 58.86 C 505.72 57.26 502.81 56.32 500.20 54.80 Z" />
</g>
<g id="#444448ff">
<path fill="#444448" opacity="1.00" d=" M 563.16 52.19 C 568.86 62.76 574.62 73.38 578.31 84.85 C 582.48 96.50 584.51 109.89 579.64 121.64 C 577.84 126.54 576.67 131.66 574.46 136.40 C 574.36 134.87 574.28 133.34 574.21 131.81 C 575.51 126.20 577.41 120.70 578.14 114.97 C 578.16 108.53 576.21 102.27 575.54 95.88 C 574.75 86.98 569.16 79.58 566.90 71.08 C 565.49 65.65 563.06 60.58 560.39 55.67 C 561.30 54.51 562.24 53.35 563.16 52.19 Z" />
</g>
<g id="#484945ff">
<path fill="#484945" opacity="1.00" d=" M 328.32 53.22 C 329.75 54.25 331.24 55.21 332.73 56.17 C 332.86 55.41 333.13 53.89 333.27 53.13 C 340.73 60.87 347.47 69.36 353.16 78.50 C 349.92 77.30 347.46 74.84 345.08 72.43 C 344.38 72.84 343.67 73.24 342.97 73.65 C 340.36 71.95 337.62 70.47 334.85 69.08 C 335.43 69.01 336.60 68.89 337.18 68.83 C 334.88 65.01 330.38 63.69 327.43 60.54 C 325.37 58.42 322.37 56.10 323.80 52.75 C 325.43 53.42 327.07 54.09 328.72 54.72 C 328.62 54.34 328.42 53.59 328.32 53.22 Z" />
</g>
<g id="#cdb579ff">
<path fill="#cdb579" opacity="1.00" d=" M 80.02 56.97 C 84.26 56.13 88.55 55.09 92.90 55.63 C 86.57 58.42 79.34 59.38 73.80 63.78 C 70.49 66.48 68.80 71.04 64.70 72.73 C 63.36 73.54 62.09 72.75 61.15 71.75 C 60.04 68.83 62.49 66.26 63.68 63.79 C 61.99 63.89 60.30 63.99 58.62 64.13 C 65.10 60.16 72.69 58.58 80.02 56.97 Z" />
<path fill="#cdb579" opacity="1.00" d=" M 114.68 55.49 C 122.44 55.63 129.98 58.12 137.01 61.29 C 133.26 60.25 129.32 60.06 125.54 59.15 C 117.30 57.09 109.09 60.32 100.97 61.44 C 96.20 61.92 91.87 64.05 87.54 65.95 C 87.88 65.41 88.55 64.34 88.89 63.80 C 93.33 62.11 97.73 60.24 102.36 59.13 C 106.51 58.10 111.08 58.08 114.68 55.49 Z" />
</g>
<g id="#e4ce7cff">
<path fill="#e4ce7c" opacity="1.00" d=" M 92.90 55.63 C 99.92 53.73 107.53 54.45 114.68 55.49 C 111.08 58.08 106.51 58.10 102.36 59.13 C 97.73 60.24 93.33 62.11 88.89 63.80 C 88.55 64.34 87.88 65.41 87.54 65.95 C 85.58 67.45 83.61 68.95 81.76 70.59 C 76.72 70.09 73.59 74.96 72.23 79.15 C 71.72 80.42 72.60 81.69 72.81 82.93 C 74.08 82.91 75.36 82.89 76.63 82.87 C 76.98 83.39 77.67 84.43 78.01 84.94 C 83.47 86.92 89.43 88.77 92.83 93.87 C 92.35 94.50 91.39 95.76 90.91 96.40 C 90.04 97.10 88.67 96.40 87.75 96.04 C 81.94 93.44 75.88 91.18 69.56 90.25 C 68.49 89.41 67.54 88.35 66.26 87.85 C 56.14 85.37 45.69 85.23 35.36 84.54 C 38.19 84.44 41.01 84.18 43.83 83.87 C 42.57 83.26 41.31 82.67 40.04 82.09 C 40.32 80.57 40.61 79.05 40.89 77.53 C 40.35 77.48 39.27 77.38 38.72 77.33 C 39.74 76.49 40.42 74.90 41.84 74.74 C 44.02 74.47 46.68 74.96 48.29 73.08 C 50.24 71.03 51.69 68.57 53.53 66.42 C 55.15 65.51 56.82 64.65 58.62 64.13 C 60.30 63.99 61.99 63.89 63.68 63.79 C 62.49 66.26 60.04 68.83 61.15 71.75 C 62.09 72.75 63.36 73.54 64.70 72.73 C 68.80 71.04 70.49 66.48 73.80 63.78 C 79.34 59.38 86.57 58.42 92.90 55.63 Z" />
</g>
<g id="#6c6657ff">
<path fill="#6c6657" opacity="1.00" d=" M 465.98 56.83 C 466.19 56.56 466.62 56.01 466.84 55.74 C 471.42 57.74 475.38 60.84 479.58 63.50 C 484.31 66.57 489.48 68.86 494.32 71.74 C 498.26 74.00 500.47 78.17 503.98 80.93 C 508.97 84.99 515.16 87.04 520.56 90.43 C 524.21 92.72 527.76 95.19 531.63 97.09 C 529.19 91.82 523.77 89.23 519.39 85.86 C 520.29 85.55 521.26 85.42 522.19 85.18 C 526.62 88.62 531.52 91.49 535.56 95.44 C 535.23 97.40 534.91 99.37 534.61 101.34 C 526.48 97.95 519.44 92.53 511.73 88.34 C 496.18 78.30 480.22 68.71 465.98 56.83 Z" />
</g>
<g id="#594e3dff">
<path fill="#594e3d" opacity="1.00" d=" M 100.97 61.44 C 109.09 60.32 117.30 57.09 125.54 59.15 C 129.32 60.06 133.26 60.25 137.01 61.29 C 138.42 62.31 139.58 63.66 141.10 64.53 C 144.17 65.94 147.95 66.08 150.30 68.80 C 149.73 68.79 148.59 68.77 148.02 68.76 C 146.36 68.36 144.74 67.82 143.13 67.29 C 137.82 65.78 132.43 64.45 126.98 63.59 C 120.16 63.30 113.23 63.09 106.49 64.35 C 101.60 64.88 97.08 66.95 92.96 69.54 C 92.32 69.55 91.06 69.58 90.42 69.59 C 87.04 72.35 83.22 75.03 81.39 79.14 C 80.58 82.43 84.67 84.20 86.57 86.26 C 83.08 85.70 79.72 84.61 76.63 82.87 C 75.39 78.11 79.39 74.26 81.76 70.59 C 83.61 68.95 85.58 67.45 87.54 65.95 C 91.87 64.05 96.20 61.92 100.97 61.44 Z" />
</g>
<g id="#ceb46dff">
<path fill="#ceb46d" opacity="1.00" d=" M 106.49 64.35 C 113.23 63.09 120.16 63.30 126.98 63.59 C 132.43 64.45 137.82 65.78 143.13 67.29 C 142.71 67.60 141.87 68.21 141.45 68.52 C 146.01 71.95 150.28 75.95 153.02 81.02 C 155.49 85.65 158.19 90.16 160.30 94.97 C 159.95 95.39 159.25 96.24 158.90 96.66 C 154.39 91.62 152.36 85.00 148.44 79.56 C 143.41 72.33 135.78 66.61 126.91 65.30 C 120.17 63.87 113.26 65.43 106.49 64.35 Z" />
</g>
<g id="#77653fff">
<path fill="#77653f" opacity="1.00" d=" M 47.31 70.31 C 49.40 69.05 51.19 67.27 53.53 66.42 C 51.69 68.57 50.24 71.03 48.29 73.08 C 46.68 74.96 44.02 74.47 41.84 74.74 C 43.05 72.60 45.31 71.56 47.31 70.31 Z" />
<path fill="#77653f" opacity="1.00" d=" M 76.63 82.87 C 79.72 84.61 83.08 85.70 86.57 86.26 C 89.81 87.72 92.93 89.76 96.60 89.89 C 96.26 92.76 95.45 95.56 94.28 98.20 C 93.56 96.33 94.08 94.40 94.52 92.54 C 93.77 91.73 93.02 90.93 92.27 90.13 C 93.33 92.32 94.81 96.34 90.91 96.40 C 91.39 95.76 92.35 94.50 92.83 93.87 C 89.43 88.77 83.47 86.92 78.01 84.94 C 77.67 84.43 76.98 83.39 76.63 82.87 Z" />
</g>
<g id="#66625fff">
<path fill="#66625f" opacity="1.00" d=" M 430.80 69.75 C 433.31 67.64 436.47 65.41 439.92 65.91 C 443.10 67.66 445.81 70.12 448.76 72.23 C 455.26 76.96 460.15 83.48 466.44 88.47 C 467.85 89.73 469.51 90.87 470.43 92.59 C 470.41 93.82 470.14 95.02 469.96 96.23 C 464.87 95.06 461.39 90.30 456.04 89.93 C 450.54 89.54 444.21 87.81 439.62 91.86 C 445.33 94.52 451.73 95.03 457.45 97.63 C 454.98 98.10 452.49 98.46 450.01 98.85 C 443.43 99.51 436.11 102.41 429.89 99.14 C 432.33 96.46 435.17 94.21 437.95 91.90 C 427.42 90.81 416.97 88.96 406.37 88.51 L 405.24 88.33 C 408.19 85.79 412.65 86.30 415.37 83.40 C 420.35 78.67 425.76 74.43 430.80 69.75 Z" />
<path fill="#66625f" opacity="1.00" d=" M 556.97 201.90 C 559.57 202.62 562.25 203.11 564.96 203.09 C 586.06 203.26 607.23 202.33 628.22 204.84 C 621.47 205.28 614.78 204.11 608.05 204.07 C 593.03 203.86 578.01 204.14 563.00 203.72 C 560.91 203.54 558.36 203.82 556.97 201.90 Z" />
</g>
<g id="#cfc190ff">
<path fill="#cfc190" opacity="1.00" d=" M 501.34 70.14 C 501.48 68.80 501.68 67.47 501.95 66.16 C 503.75 68.79 505.84 71.22 507.53 73.93 L 507.92 74.50 C 507.22 75.09 506.47 75.63 505.68 76.09 C 504.17 74.15 502.67 72.20 501.34 70.14 Z" />
</g>
<g id="#e6cd88ff">
<path fill="#e6cd88" opacity="1.00" d=" M 141.45 68.52 C 141.87 68.21 142.71 67.60 143.13 67.29 C 144.74 67.82 146.36 68.36 148.02 68.76 C 148.28 69.10 148.80 69.77 149.07 70.11 C 155.04 76.67 156.97 85.64 162.35 92.60 C 161.66 93.38 160.98 94.17 160.30 94.97 C 158.19 90.16 155.49 85.65 153.02 81.02 C 150.28 75.95 146.01 71.95 141.45 68.52 Z" />
</g>
<g id="#cab370ff">
<path fill="#cab370" opacity="1.00" d=" M 72.23 79.15 C 73.59 74.96 76.72 70.09 81.76 70.59 C 79.39 74.26 75.39 78.11 76.63 82.87 C 75.36 82.89 74.08 82.91 72.81 82.93 C 72.60 81.69 71.72 80.42 72.23 79.15 Z" />
</g>
<g id="#c9ae73ff">
<path fill="#c9ae73" opacity="1.00" d=" M 149.07 70.11 C 149.67 70.20 150.87 70.38 151.47 70.47 C 154.31 73.03 156.50 76.17 159.05 79.00 C 170.79 89.47 175.05 105.59 176.95 120.66 C 178.07 126.47 176.88 132.36 177.44 138.20 C 177.03 138.58 176.20 139.35 175.79 139.74 C 175.74 141.23 175.68 142.72 175.62 144.22 C 175.38 141.77 175.14 139.32 174.93 136.87 C 172.03 136.80 169.17 136.20 166.49 135.09 C 168.63 127.93 169.11 120.38 168.21 112.98 C 167.33 105.98 166.73 98.45 162.35 92.60 C 156.97 85.64 155.04 76.67 149.07 70.11 Z" />
</g>
<g id="#4f4122ff">
<path fill="#4f4122" opacity="1.00" d=" M 342.97 73.65 C 343.67 73.24 344.38 72.84 345.08 72.43 C 347.46 74.84 349.92 77.30 353.16 78.50 C 356.44 83.62 359.33 89.03 361.32 94.79 C 360.67 96.05 360.03 97.32 359.38 98.59 C 355.64 89.39 351.56 79.39 342.97 73.65 Z" />
</g>
<g id="#e2d081ff">
<path fill="#e2d081" opacity="1.00" d=" M 283.12 76.02 C 283.88 75.79 284.65 75.57 285.43 75.35 C 286.61 75.00 287.78 74.65 288.96 74.30 C 292.29 76.15 295.83 77.72 298.75 80.21 C 299.61 83.00 297.61 85.01 295.65 86.62 C 291.49 83.06 286.68 80.24 283.12 76.02 Z" />
</g>
<g id="#d3c794ff">
<path fill="#d3c794" opacity="1.00" d=" M 38.72 77.33 C 39.27 77.38 40.35 77.48 40.89 77.53 C 40.61 79.05 40.32 80.57 40.04 82.09 C 41.31 82.67 42.57 83.26 43.83 83.87 C 41.01 84.18 38.19 84.44 35.36 84.54 C 36.39 82.10 37.53 79.70 38.72 77.33 Z" />
</g>
<g id="#55555596">
<path fill="#555555" opacity="0.59" d=" M 10.41 83.65 C 13.39 82.78 16.47 82.88 19.44 83.76 C 16.43 83.78 13.42 83.76 10.41 83.65 Z" />
</g>
<g id="#504e4cff">
<path fill="#504e4c" opacity="1.00" d=" M 221.34 85.36 C 225.52 84.27 229.85 85.35 234.06 85.73 C 238.94 86.42 244.12 84.93 248.72 87.21 C 252.78 89.11 258.15 87.98 261.30 91.70 C 262.71 94.04 263.18 96.79 263.80 99.42 C 259.06 96.12 254.67 92.31 249.75 89.28 C 247.61 88.19 245.06 86.38 242.63 87.72 C 237.99 89.83 233.31 92.09 229.43 95.46 C 226.02 98.49 221.64 100.17 218.38 103.39 C 217.47 104.36 216.59 105.36 215.71 106.36 L 213.94 106.33 C 214.93 104.22 216.32 102.34 217.39 100.28 C 218.25 97.55 215.17 95.02 216.51 92.40 C 217.80 89.90 219.03 87.08 221.34 85.36 Z" />
</g>
<g id="#65605dff">
<path fill="#65605d" opacity="1.00" d=" M 484.20 93.17 C 488.69 90.46 492.62 86.44 497.98 85.53 C 500.51 87.46 503.31 89.06 505.65 91.25 C 507.51 94.20 508.83 97.44 510.27 100.60 C 512.44 105.53 515.97 109.71 518.08 114.68 C 504.86 110.15 491.26 106.91 478.01 102.50 C 473.63 100.85 468.80 102.14 464.45 100.43 C 471.69 100.46 478.21 96.88 484.20 93.17 Z" />
</g>
<g id="#6d6864ff">
<path fill="#6d6864" opacity="1.00" d=" M 242.63 87.72 C 245.06 86.38 247.61 88.19 249.75 89.28 C 254.67 92.31 259.06 96.12 263.80 99.42 C 266.89 103.20 270.29 106.99 271.86 111.71 C 261.82 110.03 252.27 105.80 242.00 105.48 C 234.09 105.10 226.35 102.70 218.38 103.39 C 221.64 100.17 226.02 98.49 229.43 95.46 C 233.31 92.09 237.99 89.83 242.63 87.72 Z" />
</g>
<g id="#e0d0c8ff">
<path fill="#e0d0c8" opacity="1.00" d=" M 406.37 88.51 C 416.97 88.96 427.42 90.81 437.95 91.90 C 435.17 94.21 432.33 96.46 429.89 99.14 C 436.11 102.41 443.43 99.51 450.01 98.85 C 454.88 98.11 459.79 99.01 464.45 100.43 C 468.80 102.14 473.63 100.85 478.01 102.50 C 491.26 106.91 504.86 110.15 518.08 114.68 C 519.33 117.99 520.66 121.26 522.04 124.52 C 511.08 121.74 499.77 120.68 488.52 119.78 C 484.18 119.43 479.83 119.53 475.49 119.80 C 475.12 117.68 474.81 115.56 474.44 113.45 C 469.72 109.88 464.20 107.66 458.51 106.18 C 452.58 103.95 446.19 102.69 439.87 103.69 C 436.11 104.63 433.82 108.07 432.63 111.52 C 427.27 112.10 421.91 109.44 416.63 111.40 C 414.62 109.42 415.90 106.12 415.56 103.57 C 413.86 102.87 412.14 102.23 410.38 101.73 C 407.68 100.89 404.87 100.51 402.08 100.19 C 402.62 98.56 403.16 96.93 403.64 95.29 C 409.23 97.03 414.64 100.04 420.68 99.63 C 421.26 98.78 421.84 97.92 422.43 97.07 C 421.99 95.99 421.56 94.92 421.14 93.84 C 416.26 91.87 410.58 91.99 406.37 88.51 Z" />
</g>
<g id="#48484894">
<path fill="#484848" opacity="0.58" d=" M 0.00 89.15 L 0.47 88.78 C 0.64 89.34 0.97 90.47 1.14 91.04 L 0.64 91.97 L 0.00 91.69 L 0.00 89.15 Z" />
</g>
<g id="#686050ff">
<path fill="#686050" opacity="1.00" d=" M 7.11 89.33 C 17.42 89.22 27.77 89.18 38.04 90.19 C 54.12 90.90 70.73 92.52 85.33 99.84 C 88.74 101.41 92.56 102.10 95.62 104.38 C 99.73 107.35 104.97 108.62 108.40 112.51 C 110.56 114.91 112.72 117.32 114.95 119.67 C 112.63 120.28 110.35 119.37 108.12 118.80 C 102.34 117.17 96.39 116.20 90.66 114.39 C 83.56 112.33 76.74 109.41 69.59 107.57 C 57.87 105.45 45.90 103.57 33.99 105.10 C 31.55 105.38 29.47 106.77 27.18 107.54 C 23.53 105.69 19.81 103.87 16.33 101.75 C 14.35 99.02 11.86 96.81 9.06 94.95 C 7.10 93.76 7.07 91.35 7.11 89.33 Z" />
</g>
<g id="#4d4b48ff">
<path fill="#4d4b48" opacity="1.00" d=" M 505.65 91.25 C 509.57 93.81 514.53 94.72 517.81 98.21 C 522.72 103.30 529.62 105.63 535.15 109.93 C 535.20 112.98 534.88 116.02 533.92 118.92 C 533.16 118.92 531.64 118.91 530.88 118.91 C 526.53 117.76 522.29 116.26 518.08 114.68 C 515.97 109.71 512.44 105.53 510.27 100.60 C 508.83 97.44 507.51 94.20 505.65 91.25 Z" />
</g>
<g id="#4f4d4cff">
<path fill="#4f4d4c" opacity="1.00" d=" M 264.38 92.63 C 268.06 91.48 271.40 94.04 274.65 95.38 C 281.91 98.58 288.34 103.47 295.98 105.82 C 292.62 108.50 289.63 111.66 285.97 113.94 C 283.20 115.77 279.93 114.05 277.07 113.41 C 276.96 114.54 276.86 115.67 276.76 116.81 C 275.99 113.84 275.93 110.56 274.02 108.01 C 270.57 103.04 267.64 97.73 264.38 92.63 Z" />
</g>
<g id="#474747ab">
<path fill="#474747" opacity="0.67" d=" M 1.91 94.78 C 3.45 94.84 4.19 95.68 4.13 97.32 C 2.91 96.89 2.17 96.04 1.91 94.78 Z" />
</g>
<g id="#3e3528d5">
<path fill="#3e3528" opacity="0.84" d=" M 361.32 94.79 C 362.58 99.21 364.01 103.59 365.15 108.05 C 366.63 113.76 366.34 119.71 366.16 125.55 C 364.69 118.44 365.36 110.77 361.97 104.15 C 361.28 102.68 360.52 101.23 359.84 99.76 C 359.72 99.47 359.50 98.88 359.38 98.59 C 360.03 97.32 360.67 96.05 361.32 94.79 Z" />
</g>
<g id="#4f4e4fb5">
<path fill="#4f4e4f" opacity="0.71" d=" M 8.61 102.01 C 10.64 101.30 12.14 103.20 12.31 105.04 C 10.79 104.42 9.48 103.41 8.61 102.01 Z" />
</g>
<g id="#dfd0c7ff">
<path fill="#dfd0c7" opacity="1.00" d=" M 215.71 106.36 C 216.59 105.36 217.47 104.36 218.38 103.39 C 226.35 102.70 234.09 105.10 242.00 105.48 C 252.27 105.80 261.82 110.03 271.86 111.71 L 272.26 111.79 C 272.34 112.45 272.51 113.76 272.59 114.42 C 272.81 114.69 273.24 115.21 273.46 115.48 C 268.89 113.85 263.88 114.04 259.12 114.36 C 256.00 115.46 253.80 118.12 251.46 120.34 C 245.52 121.84 240.30 118.09 234.59 117.27 C 233.53 113.77 232.92 109.33 229.16 107.67 C 224.40 106.84 219.56 107.39 214.78 107.54 C 215.01 107.24 215.48 106.66 215.71 106.36 Z" />
</g>
<g id="#dbd0c6ff">
<path fill="#dbd0c6" opacity="1.00" d=" M 385.56 105.68 C 387.89 104.61 390.32 102.97 393.02 103.66 C 395.81 104.83 398.79 107.94 397.19 111.16 C 395.59 114.82 393.72 118.48 394.29 122.63 C 394.17 123.03 393.94 123.82 393.82 124.21 C 393.29 125.60 392.74 126.98 392.17 128.35 C 390.44 128.49 388.71 128.64 386.98 128.78 C 382.54 121.88 384.92 113.29 385.56 105.68 Z" />
</g>
<g id="#c4bbb3ff">
<path fill="#c4bbb3" opacity="1.00" d=" M 399.56 105.31 C 404.19 106.17 408.88 106.70 413.60 106.60 C 413.55 111.52 412.71 116.38 412.30 121.28 C 411.46 123.57 411.37 126.70 409.20 128.16 C 405.41 128.60 401.59 128.32 397.80 128.34 C 397.70 126.14 397.43 123.95 397.25 121.75 C 396.10 122.58 394.96 123.40 393.82 124.21 C 393.94 123.82 394.17 123.03 394.29 122.63 C 395.19 121.45 396.15 120.32 397.16 119.23 C 397.66 119.42 398.68 119.80 399.19 119.99 C 403.50 116.46 407.44 112.31 410.40 107.57 C 409.03 108.04 407.32 108.02 406.40 109.31 C 403.81 112.37 401.15 115.37 398.22 118.12 C 398.22 113.81 398.38 109.48 399.56 105.31 Z" />
<path fill="#c4bbb3" opacity="1.00" d=" M 438.46 106.72 C 445.87 105.92 453.04 108.45 460.10 110.32 C 451.58 115.99 444.46 123.43 436.79 130.13 C 436.52 130.30 435.98 130.63 435.71 130.80 C 435.07 123.86 435.21 116.87 435.64 109.92 C 435.51 108.28 436.84 106.81 438.46 106.72 Z" />
<path fill="#c4bbb3" opacity="1.00" d=" M 462.31 111.38 C 465.95 111.13 469.68 112.17 472.54 114.48 C 473.02 120.58 472.01 126.69 471.49 132.77 C 460.82 132.96 450.38 130.06 439.71 130.41 C 447.53 124.43 455.13 118.11 462.31 111.38 Z" />
<path fill="#c4bbb3" opacity="1.00" d=" M 246.76 127.10 C 247.72 125.10 249.40 122.74 251.96 123.43 C 259.41 124.09 266.56 126.50 273.83 128.15 C 277.88 128.82 281.99 129.58 285.76 131.26 C 287.66 132.79 285.82 135.33 284.92 136.93 C 281.57 141.94 278.03 146.87 274.00 151.37 C 266.53 150.06 258.54 151.68 251.45 148.40 C 249.78 147.04 247.91 145.39 247.61 143.13 C 246.68 137.85 246.16 132.44 246.76 127.10 M 275.67 132.75 C 270.92 138.60 265.34 143.70 260.18 149.18 C 263.25 151.32 265.50 147.28 267.43 145.47 C 271.58 140.20 276.93 135.83 280.30 129.99 C 278.20 129.69 276.85 131.30 275.67 132.75 Z" />
<path fill="#c4bbb3" opacity="1.00" d=" M 24.50 140.25 C 26.56 140.70 28.63 141.12 30.65 141.74 C 35.50 142.93 39.65 145.80 43.90 148.18 L 43.80 146.29 C 44.32 146.71 44.75 147.23 45.08 147.85 C 44.72 148.15 43.99 148.77 43.63 149.08 C 44.13 154.61 41.67 159.69 39.36 164.53 C 35.31 164.34 31.27 163.91 27.26 163.30 C 27.29 162.65 27.34 161.99 27.39 161.34 C 31.41 159.61 33.68 155.73 36.72 152.80 C 38.44 151.19 39.56 149.10 40.28 146.88 C 35.18 150.21 31.64 155.24 27.46 159.55 C 25.38 153.34 23.51 146.87 24.50 140.25 Z" />
</g>
<g id="#6a6561ff">
<path fill="#6a6561" opacity="1.00" d=" M 285.97 113.94 C 289.63 111.66 292.62 108.50 295.98 105.82 C 299.98 107.59 304.46 109.19 307.05 112.95 C 310.85 117.95 311.81 124.43 315.43 129.53 C 317.25 132.06 317.91 135.13 318.56 138.11 L 317.51 137.28 C 309.77 132.00 301.63 127.34 293.90 122.04 C 290.85 120.12 288.07 117.68 284.69 116.35 C 282.72 115.67 280.93 117.16 279.14 117.72 C 279.33 118.51 279.69 120.10 279.87 120.89 C 278.82 119.54 277.73 118.22 276.76 116.81 C 276.86 115.67 276.96 114.54 277.07 113.41 C 279.93 114.05 283.20 115.77 285.97 113.94 Z" />
</g>
<g id="#575554cf">
<path fill="#575554" opacity="0.81" d=" M 16.67 108.30 C 17.95 107.63 19.06 107.82 20.00 108.87 C 18.79 109.56 17.68 109.38 16.67 108.30 Z" />
</g>
<g id="#dad2caff">
<path fill="#dad2ca" opacity="1.00" d=" M 406.40 109.31 C 407.32 108.02 409.03 108.04 410.40 107.57 C 407.44 112.31 403.50 116.46 399.19 119.99 C 398.68 119.80 397.66 119.42 397.16 119.23 L 398.22 118.12 C 401.15 115.37 403.81 112.37 406.40 109.31 Z" />
<path fill="#dad2ca" opacity="1.00" d=" M 460.10 110.32 C 460.80 110.44 462.19 110.68 462.89 110.80 L 462.31 111.38 C 455.13 118.11 447.53 124.43 439.71 130.41 C 438.98 130.34 437.52 130.20 436.79 130.13 C 444.46 123.43 451.58 115.99 460.10 110.32 Z" />
</g>
<g id="#6f6967ff">
<path fill="#6f6967" opacity="1.00" d=" M 34.83 109.29 C 38.17 108.91 41.54 108.87 44.89 109.15 C 51.01 112.84 56.09 117.99 61.60 122.49 C 51.29 122.20 41.30 118.50 30.93 119.58 C 32.35 116.19 34.71 113.11 34.83 109.29 Z" />
</g>
<g id="#4e4c4bff">
<path fill="#4e4c4b" opacity="1.00" d=" M 44.89 109.15 C 53.02 109.27 61.26 110.21 68.89 113.15 C 72.73 114.71 76.91 114.98 80.82 116.29 C 87.54 118.86 94.38 121.48 101.61 122.09 C 106.08 122.46 110.20 124.42 114.58 125.26 C 116.90 125.98 120.29 126.27 120.91 129.14 C 121.16 135.96 115.59 141.39 116.51 148.31 C 109.80 145.01 103.74 140.59 97.60 136.36 C 93.27 133.36 88.18 131.81 83.41 129.68 C 76.64 126.95 70.01 123.04 62.48 123.18 C 62.26 123.01 61.82 122.66 61.60 122.49 C 56.09 117.99 51.01 112.84 44.89 109.15 Z" />
</g>
<g id="#c4bbb5ff">
<path fill="#c4bbb5" opacity="1.00" d=" M 22.81 110.99 C 24.94 111.79 27.73 111.69 29.35 113.43 C 29.72 116.91 28.23 120.19 27.08 123.38 C 25.44 127.56 24.14 131.87 23.06 136.23 C 19.80 136.86 16.57 137.71 13.56 139.13 C 15.83 136.90 19.10 136.64 21.96 135.62 C 23.27 133.73 23.66 131.37 24.44 129.24 C 25.92 123.95 29.17 118.96 28.38 113.26 C 26.50 112.56 24.59 111.92 22.81 110.99 Z" />
<path fill="#c4bbb5" opacity="1.00" d=" M 217.67 134.63 C 220.92 130.87 223.66 126.66 227.52 123.47 C 226.73 128.92 224.87 134.15 223.31 139.42 L 223.07 139.48 C 219.70 140.44 216.30 141.32 212.83 141.82 C 214.21 139.27 215.77 136.82 217.67 134.63 Z" />
<path fill="#c4bbb5" opacity="1.00" d=" M 374.96 206.41 C 376.29 206.21 377.62 206.12 378.97 206.15 C 378.43 208.20 375.98 207.87 374.96 206.41 Z" />
</g>
<g id="#e0d0c6ff">
<path fill="#e0d0c6" opacity="1.00" d=" M 415.55 113.27 C 420.93 114.08 426.31 114.78 431.69 115.57 C 431.96 121.45 430.06 128.43 434.31 133.30 C 442.33 132.95 450.14 135.16 458.12 135.62 C 462.71 135.93 467.42 137.16 471.99 136.05 C 476.80 133.21 475.30 126.81 475.39 122.15 C 492.26 123.38 509.02 125.88 525.88 127.28 C 525.59 128.69 525.24 130.16 524.08 131.14 C 519.22 135.92 514.30 140.65 509.49 145.48 C 508.26 146.50 507.97 148.10 508.44 149.58 C 510.42 151.34 512.85 152.46 515.14 153.75 C 511.04 160.39 503.93 164.31 497.99 169.08 C 490.99 176.06 483.46 182.48 476.53 189.54 C 473.10 192.86 470.12 196.69 466.12 199.37 C 460.31 193.87 456.41 186.80 451.67 180.43 C 447.46 174.64 444.10 168.04 439.14 162.91 C 430.15 162.08 421.07 161.81 412.02 161.79 C 408.72 163.13 405.84 165.29 402.53 166.62 C 401.98 167.53 401.43 168.44 400.89 169.35 C 398.86 168.35 397.36 166.64 397.50 164.26 C 397.36 159.15 399.13 154.11 398.31 149.00 C 397.48 143.14 397.49 137.19 397.67 131.28 C 401.36 131.29 405.06 131.29 408.75 131.38 C 406.83 137.98 405.26 144.76 405.47 151.68 C 412.27 159.08 423.46 158.64 432.30 155.78 C 426.81 155.77 421.38 154.84 415.97 154.02 C 413.14 153.62 410.79 151.92 408.46 150.41 C 408.49 141.13 411.49 132.35 414.09 123.57 C 415.31 120.27 415.58 116.76 415.55 113.27 Z" />
<path fill="#e0d0c6" opacity="1.00" d=" M 279.14 117.72 C 280.93 117.16 282.72 115.67 284.69 116.35 C 288.07 117.68 290.85 120.12 293.90 122.04 C 301.63 127.34 309.77 132.00 317.51 137.28 C 317.22 140.37 316.52 143.48 316.93 146.60 C 318.62 155.74 316.46 164.96 315.09 174.00 C 311.35 178.04 307.39 181.88 302.68 184.77 C 299.35 189.48 294.04 191.99 290.14 196.12 C 285.68 200.53 280.63 204.43 274.90 207.04 C 269.24 209.63 263.66 212.40 258.24 215.47 C 253.46 218.45 247.59 218.31 242.17 218.81 C 243.05 213.78 243.72 208.63 242.52 203.60 C 236.73 202.82 230.22 201.46 224.76 204.04 C 224.65 206.38 225.13 208.70 225.47 211.01 C 220.54 208.33 217.56 203.16 215.98 197.95 C 214.76 194.10 216.23 190.13 216.81 186.31 C 228.89 185.67 240.94 187.08 252.84 189.06 C 252.01 193.97 251.14 198.91 251.36 203.92 C 258.26 203.40 263.44 198.06 270.00 196.27 C 269.48 193.43 266.88 191.87 265.09 189.86 C 260.13 184.44 254.23 180.03 248.42 175.58 C 244.80 172.86 241.23 169.90 236.91 168.37 C 236.69 167.80 236.24 166.66 236.02 166.09 C 239.31 165.90 242.61 165.67 245.87 165.15 C 244.83 162.78 242.22 163.40 240.17 163.46 C 235.25 163.90 230.19 163.64 225.48 165.38 C 221.62 166.29 220.99 161.54 220.87 158.82 C 221.99 149.21 227.06 140.75 229.49 131.49 C 230.23 129.32 230.60 126.88 232.06 125.05 C 235.50 121.98 239.89 125.04 243.63 125.75 C 243.34 133.91 242.46 142.76 246.58 150.19 C 252.19 152.31 257.91 154.50 264.00 154.53 C 269.52 154.69 276.36 154.88 280.04 149.95 C 284.24 144.84 288.56 139.56 290.69 133.19 C 298.65 132.68 305.75 136.51 312.87 139.40 C 313.50 139.08 314.77 138.44 315.41 138.12 C 311.13 136.20 306.72 134.57 302.50 132.52 C 299.12 130.94 295.83 129.01 292.10 128.40 C 291.56 128.37 290.49 128.32 289.96 128.29 C 290.58 128.11 291.22 127.94 291.85 127.76 C 289.11 127.57 286.41 127.12 283.77 126.38 C 282.50 124.53 281.19 122.70 279.87 120.89 C 279.69 120.10 279.33 118.51 279.14 117.72 Z" />
<path fill="#e0d0c6" opacity="1.00" d=" M 30.93 119.58 C 41.30 118.50 51.29 122.20 61.60 122.49 C 61.82 122.66 62.26 123.01 62.48 123.18 C 67.85 127.38 73.81 131.05 77.96 136.59 C 77.06 136.63 75.28 136.72 74.38 136.76 C 68.24 136.23 61.53 136.32 56.51 140.41 C 56.53 141.00 56.56 142.19 56.58 142.78 C 58.50 141.91 60.42 141.03 62.39 140.27 C 68.71 139.79 75.04 140.36 81.36 140.51 C 82.37 141.51 83.37 142.53 84.37 143.55 C 84.45 144.09 84.61 145.18 84.68 145.72 C 81.69 144.22 78.27 144.47 75.02 144.41 C 69.64 144.38 64.10 144.84 59.18 147.18 C 54.79 149.35 49.73 148.46 45.08 147.85 C 44.75 147.23 44.32 146.71 43.80 146.29 C 42.49 144.02 39.96 142.94 37.86 141.53 C 38.76 141.32 40.56 140.91 41.46 140.70 C 40.95 140.20 40.41 139.73 39.85 139.30 C 35.79 135.94 30.36 135.47 25.31 135.38 C 26.22 129.79 29.21 124.91 30.93 119.58 Z" />
<path fill="#e0d0c6" opacity="1.00" d=" M 46.61 149.27 C 49.29 149.28 51.97 149.37 54.65 149.48 C 54.03 155.60 51.90 162.51 56.34 167.81 C 59.91 169.75 64.03 170.00 67.98 170.41 C 73.07 170.86 78.16 171.48 83.27 171.31 C 83.59 170.92 84.23 170.15 84.55 169.76 C 87.78 164.81 91.37 159.84 92.97 154.07 C 98.00 159.23 100.84 167.02 99.13 174.17 C 96.63 186.71 94.40 199.29 92.29 211.90 C 92.15 213.62 90.18 214.13 89.00 215.02 C 82.02 218.83 75.12 222.89 67.75 225.91 C 60.63 228.99 52.28 229.80 44.89 227.31 C 37.33 218.72 34.11 207.32 30.60 196.66 C 29.18 188.48 27.27 180.33 27.21 171.99 C 27.31 170.07 26.82 167.58 28.97 166.61 C 32.01 166.23 35.08 166.47 38.14 166.54 C 37.20 170.60 34.17 173.90 33.49 177.99 C 33.66 183.70 40.38 184.88 44.80 185.85 C 44.76 185.37 44.68 184.40 44.63 183.91 C 40.96 183.22 36.92 182.29 34.71 178.96 C 33.21 175.50 36.92 173.16 38.58 170.64 C 43.72 164.71 45.53 156.84 46.61 149.27 Z" />
<path fill="#e0d0c6" opacity="1.00" d=" M 406.62 189.02 C 405.31 183.88 409.70 179.96 412.63 176.37 C 420.07 176.44 427.75 175.73 434.91 178.23 C 436.99 178.89 438.21 180.83 439.50 182.45 C 443.86 188.45 447.77 194.76 452.39 200.57 C 454.20 202.33 453.56 204.99 453.66 207.25 C 441.30 210.06 428.74 213.51 415.95 212.40 C 412.71 204.66 408.70 197.19 406.62 189.02 Z" />
<path fill="#e0d0c6" opacity="1.00" d=" M 525.72 193.36 C 526.07 193.42 526.75 193.54 527.10 193.60 C 528.84 195.07 530.72 196.42 532.20 198.19 C 533.40 201.65 532.60 205.42 532.66 209.01 C 532.08 220.01 533.73 231.12 531.77 242.04 C 525.74 246.61 520.54 252.16 514.55 256.76 C 506.40 261.77 498.80 267.72 490.19 271.95 C 484.69 274.40 478.82 275.92 472.97 277.22 C 470.57 277.89 468.35 276.50 466.23 275.61 C 460.93 272.97 455.81 269.93 451.00 266.49 C 443.37 260.46 443.37 249.96 439.22 241.86 C 442.42 239.19 445.39 235.84 449.61 234.84 C 454.46 233.22 459.66 232.98 464.48 231.26 C 471.72 227.95 479.69 226.86 487.39 225.10 C 487.44 224.45 487.52 223.15 487.56 222.50 C 493.34 220.08 498.38 216.14 504.44 214.32 C 504.49 215.78 504.54 217.23 504.59 218.69 C 508.38 214.08 511.95 209.20 516.90 205.73 C 518.86 204.06 521.03 202.63 522.84 200.79 C 523.92 198.36 524.69 195.81 525.72 193.36 Z" />
<path fill="#e0d0c6" opacity="1.00" d=" M 334.70 206.03 C 337.22 203.42 339.75 200.80 342.29 198.19 C 347.90 205.22 352.24 213.38 359.36 219.12 C 360.30 229.63 355.58 240.51 347.84 247.61 C 339.95 251.80 333.70 258.30 326.51 263.49 C 318.26 269.86 310.21 276.50 301.80 282.68 C 296.15 286.50 289.46 288.64 284.24 293.12 C 282.31 294.49 280.59 296.72 278.00 296.61 C 273.25 296.78 268.99 294.31 264.77 292.46 C 257.69 289.32 252.43 283.14 248.84 276.42 C 248.04 276.46 246.43 276.53 245.63 276.57 C 240.81 271.30 239.72 264.07 240.06 257.19 C 240.65 256.49 241.24 255.80 241.83 255.11 C 241.68 253.06 240.96 250.86 241.79 248.88 C 242.84 247.64 244.57 247.75 246.02 247.47 C 251.38 246.90 256.51 245.16 261.80 244.26 C 265.81 243.52 269.87 242.85 273.66 241.26 C 277.27 239.73 281.29 239.46 284.83 237.74 C 287.68 236.44 290.63 235.40 293.56 234.34 C 297.77 232.82 301.18 229.84 304.84 227.39 C 306.13 227.46 307.41 227.54 308.70 227.62 C 315.62 218.46 327.04 214.46 334.70 206.03 Z" />
</g>
<g id="#746b69ff">
<path fill="#746b69" opacity="1.00" d=" M 518.08 114.68 C 522.29 116.26 526.53 117.76 530.88 118.91 C 531.57 119.10 532.95 119.50 533.65 119.70 C 533.63 122.14 533.48 124.57 533.21 127.00 C 529.19 126.05 525.20 124.06 521.02 125.42 C 510.94 122.71 500.48 121.98 490.15 120.72 C 489.75 120.48 488.93 120.01 488.52 119.78 C 499.77 120.68 511.08 121.74 522.04 124.52 C 520.66 121.26 519.33 117.99 518.08 114.68 Z" />
</g>
<g id="#dbcfc5ff">
<path fill="#dbcfc5" opacity="1.00" d=" M 201.80 116.74 C 202.81 115.22 204.68 115.57 206.23 115.44 C 206.94 116.36 207.44 117.37 207.74 118.47 C 206.41 122.87 205.77 127.43 204.87 131.93 C 204.66 134.05 202.47 134.89 201.05 136.11 C 198.51 130.13 196.15 121.66 201.80 116.74 Z" />
</g>
<g id="#8c867fff">
<path fill="#8c867f" opacity="1.00" d=" M 207.74 118.47 C 209.38 117.31 210.69 115.23 212.92 115.25 C 218.21 115.02 223.57 115.93 228.58 117.62 C 222.94 117.65 217.49 115.90 211.87 115.66 C 210.50 117.53 209.15 119.49 208.73 121.82 C 207.31 128.63 205.88 135.50 205.76 142.49 C 207.01 142.41 208.27 142.33 209.52 142.26 C 210.63 142.13 211.73 141.99 212.83 141.82 C 216.30 141.32 219.70 140.44 223.07 139.48 C 218.70 143.23 212.16 142.78 206.72 143.56 C 204.50 141.77 205.19 138.12 204.41 135.53 C 203.28 135.67 202.16 135.86 201.05 136.11 C 202.47 134.89 204.66 134.05 204.87 131.93 C 205.77 127.43 206.41 122.87 207.74 118.47 Z" />
</g>
<g id="#c4bbb2ff">
<path fill="#c4bbb2" opacity="1.00" d=" M 208.73 121.82 C 209.15 119.49 210.50 117.53 211.87 115.66 C 217.49 115.90 222.94 117.65 228.58 117.62 C 221.69 125.38 215.08 133.49 209.52 142.26 C 208.27 142.33 207.01 142.41 205.76 142.49 C 205.88 135.50 207.31 128.63 208.73 121.82 Z" />
<path fill="#c4bbb2" opacity="1.00" d=" M 55.46 151.37 C 64.39 146.10 75.04 146.81 84.97 147.46 C 85.66 147.46 87.03 147.45 87.72 147.44 C 89.01 149.00 90.27 150.59 91.52 152.18 C 88.33 157.40 85.99 163.06 83.14 168.45 C 78.70 168.17 74.26 168.43 69.82 168.26 C 74.41 161.27 79.42 154.62 85.16 148.54 C 81.35 148.86 79.10 152.17 76.80 154.81 C 73.28 159.13 69.58 163.31 66.32 167.84 C 63.91 167.52 61.48 167.31 59.04 167.38 C 54.44 163.30 55.32 156.86 55.46 151.37 Z" />
</g>
<g id="#6f6b68ff">
<path fill="#6f6b68" opacity="1.00" d=" M 255.59 120.21 C 256.55 119.09 257.38 117.32 259.13 117.39 C 263.15 117.26 267.20 117.78 271.12 118.69 C 273.77 119.01 274.81 121.75 275.72 123.89 C 274.54 125.48 272.35 124.42 270.76 124.21 C 265.76 122.63 260.54 121.93 255.59 120.21 Z" />
</g>
<g id="#dcd5cfff">
<path fill="#dcd5cf" opacity="1.00" d=" M 228.58 117.62 C 228.50 119.57 229.11 121.96 227.52 123.47 C 223.66 126.66 220.92 130.87 217.67 134.63 C 215.77 136.82 214.21 139.27 212.83 141.82 C 211.73 141.99 210.63 142.13 209.52 142.26 C 215.08 133.49 221.69 125.38 228.58 117.62 Z" />
</g>
<g id="#564841ff">
<path fill="#564841" opacity="1.00" d=" M 409.20 128.16 C 411.37 126.70 411.46 123.57 412.30 121.28 C 412.75 121.85 413.64 123.00 414.09 123.57 C 411.49 132.35 408.49 141.13 408.46 150.41 C 410.79 151.92 413.14 153.62 415.97 154.02 C 421.38 154.84 426.81 155.77 432.30 155.78 C 423.46 158.64 412.27 159.08 405.47 151.68 C 405.26 144.76 406.83 137.98 408.75 131.38 C 405.06 131.29 401.36 131.29 397.67 131.28 C 397.71 130.30 397.80 129.32 397.80 128.34 C 401.59 128.32 405.41 128.60 409.20 128.16 Z" />
<path fill="#564841" opacity="1.00" d=" M 56.51 140.41 C 61.53 136.32 68.24 136.23 74.38 136.76 C 76.83 137.32 79.20 138.13 81.58 138.92 C 75.21 139.93 68.46 137.53 62.39 140.27 C 60.42 141.03 58.50 141.91 56.58 142.78 C 56.56 142.19 56.53 141.00 56.51 140.41 Z" />
</g>
<g id="#e0d1c7ff">
<path fill="#e0d1c7" opacity="1.00" d=" M 535.42 129.49 C 539.36 125.25 543.95 120.89 550.20 121.11 C 552.75 123.42 555.47 126.22 555.24 129.96 C 554.50 136.81 551.21 142.95 548.07 148.94 C 546.27 156.96 538.84 161.47 533.50 167.04 C 533.08 167.24 532.24 167.63 531.82 167.82 C 531.10 164.31 530.64 160.75 530.23 157.19 C 529.65 151.79 526.05 146.98 526.83 141.39 C 527.08 136.47 530.75 132.89 533.65 129.28 C 534.09 129.33 534.98 129.44 535.42 129.49 Z" />
<path fill="#e0d1c7" opacity="1.00" d=" M 338.07 143.00 C 341.40 139.92 346.13 139.59 350.30 138.39 C 351.48 141.50 352.89 144.62 353.11 147.99 C 353.28 156.82 349.43 165.17 344.01 171.96 C 342.80 173.15 341.47 174.21 340.20 175.33 C 336.91 169.79 334.28 163.89 331.01 158.35 C 330.03 156.35 328.39 153.92 329.70 151.68 C 332.12 148.47 335.13 145.73 338.07 143.00 Z" />
<path fill="#e0d1c7" opacity="1.00" d=" M 211.99 145.39 C 216.01 145.18 219.87 144.01 223.77 143.11 C 223.85 148.45 221.56 153.47 218.59 157.79 C 218.62 158.61 218.66 159.42 218.71 160.23 C 219.28 162.10 219.67 164.35 221.43 165.50 C 223.36 166.66 225.72 166.54 227.88 166.88 C 227.76 167.42 227.53 168.49 227.41 169.02 C 219.93 170.28 215.00 177.44 207.34 178.10 C 206.25 173.86 205.07 169.65 203.66 165.52 C 203.06 164.38 203.49 163.20 203.98 162.12 C 204.85 161.27 206.01 160.44 205.79 159.04 C 205.84 154.93 205.55 150.83 205.71 146.72 C 207.70 145.86 209.83 145.45 211.99 145.39 Z" />
</g>
<g id="#756d6dff">
<path fill="#756d6d" opacity="1.00" d=" M 292.10 128.40 C 295.83 129.01 299.12 130.94 302.50 132.52 C 306.72 134.57 311.13 136.20 315.41 138.12 C 314.77 138.44 313.50 139.08 312.87 139.40 C 305.75 136.51 298.65 132.68 290.69 133.19 C 291.19 131.60 291.63 130.00 292.10 128.40 Z" />
</g>
<g id="#e9e2dbff">
<path fill="#e9e2db" opacity="1.00" d=" M 275.67 132.75 C 276.85 131.30 278.20 129.69 280.30 129.99 C 276.93 135.83 271.58 140.20 267.43 145.47 C 265.50 147.28 263.25 151.32 260.18 149.18 C 265.34 143.70 270.92 138.60 275.67 132.75 Z" />
</g>
<g id="#656564b4">
<path fill="#656564" opacity="0.71" d=" M 386.75 130.92 C 388.67 130.54 389.71 132.46 388.96 134.09 C 387.94 133.25 387.19 132.15 386.75 130.92 Z" />
</g>
<g id="#4e4d4bff">
<path fill="#4e4d4b" opacity="1.00" d=" M 138.98 135.02 C 144.90 137.85 151.63 139.89 156.19 144.82 C 158.39 148.37 162.37 151.44 161.99 156.01 C 161.61 161.89 159.34 167.41 157.45 172.94 C 151.20 164.59 141.93 159.28 133.27 153.79 C 132.73 154.05 131.65 154.56 131.11 154.82 C 132.71 151.20 134.97 147.84 135.94 143.96 C 136.71 140.90 137.57 137.85 138.98 135.02 Z" />
</g>
<g id="#736c64ff">
<path fill="#736c64" opacity="1.00" d=" M 29.78 137.95 C 33.08 138.75 36.46 139.15 39.85 139.30 C 40.41 139.73 40.95 140.20 41.46 140.70 C 40.56 140.91 38.76 141.32 37.86 141.53 C 39.96 142.94 42.49 144.02 43.80 146.29 L 43.90 148.18 C 39.65 145.80 35.50 142.93 30.65 141.74 C 30.36 140.47 30.07 139.21 29.78 137.95 Z" />
</g>
<g id="#dbd0c8ff">
<path fill="#dbd0c8" opacity="1.00" d=" M 16.43 141.34 C 17.24 139.07 19.67 139.50 21.59 139.45 C 22.20 140.12 22.82 140.78 23.43 141.45 C 23.42 148.71 27.07 155.40 26.68 162.66 C 22.61 163.33 20.29 159.15 18.97 155.96 C 17.49 151.25 15.38 146.37 16.43 141.34 Z" />
</g>
<g id="#5e5d5cb6">
<path fill="#5e5d5c" opacity="0.71" d=" M 12.93 145.81 C 14.92 146.82 15.51 149.28 14.69 151.26 C 13.59 149.65 12.83 147.79 12.93 145.81 Z" />
</g>
<g id="#dbd2cdff">
<path fill="#dbd2cd" opacity="1.00" d=" M 27.46 159.55 C 31.64 155.24 35.18 150.21 40.28 146.88 C 39.56 149.10 38.44 151.19 36.72 152.80 C 33.68 155.73 31.41 159.61 27.39 161.34 C 27.41 160.89 27.44 160.00 27.46 159.55 Z" />
</g>
<g id="#e2dbd5ff">
<path fill="#e2dbd5" opacity="1.00" d=" M 76.80 154.81 C 79.10 152.17 81.35 148.86 85.16 148.54 C 79.42 154.62 74.41 161.27 69.82 168.26 C 68.65 168.13 67.48 167.99 66.32 167.84 C 69.58 163.31 73.28 159.13 76.80 154.81 Z" />
</g>
<g id="#473b34ff">
<path fill="#473b34" opacity="1.00" d=" M 91.52 152.18 C 91.85 152.29 92.52 152.49 92.85 152.60 C 92.88 152.97 92.94 153.70 92.97 154.07 C 91.37 159.84 87.78 164.81 84.55 169.76 C 78.70 169.70 72.85 169.76 67.01 169.46 C 72.38 169.13 77.89 169.89 83.14 168.45 C 85.99 163.06 88.33 157.40 91.52 152.18 Z" />
</g>
<g id="#8d847dff">
<path fill="#8d847d" opacity="1.00" d=" M 218.71 160.23 C 219.25 159.88 220.33 159.18 220.87 158.82 C 220.99 161.54 221.62 166.29 225.48 165.38 C 228.37 165.28 231.25 164.99 234.12 164.68 C 234.34 165.82 234.55 166.96 234.83 168.09 C 232.34 168.32 229.87 168.62 227.41 169.02 C 227.53 168.49 227.76 167.42 227.88 166.88 C 225.72 166.54 223.36 166.66 221.43 165.50 C 219.67 164.35 219.28 162.10 218.71 160.23 Z" />
</g>
<g id="#c6b9b1ff">
<path fill="#c6b9b1" opacity="1.00" d=" M 240.17 163.46 C 242.22 163.40 244.83 162.78 245.87 165.15 C 242.61 165.67 239.31 165.90 236.02 166.09 C 236.24 166.66 236.69 167.80 236.91 168.37 C 236.39 168.30 235.35 168.16 234.83 168.09 C 234.55 166.96 234.34 165.82 234.12 164.68 C 231.25 164.99 228.37 165.28 225.48 165.38 C 230.19 163.64 235.25 163.90 240.17 163.46 Z" />
</g>
<g id="#7d6f69ff">
<path fill="#7d6f69" opacity="1.00" d=" M 59.04 167.38 C 61.48 167.31 63.91 167.52 66.32 167.84 C 67.48 167.99 68.65 168.13 69.82 168.26 C 74.26 168.43 78.70 168.17 83.14 168.45 C 77.89 169.89 72.38 169.13 67.01 169.46 C 72.85 169.76 78.70 169.70 84.55 169.76 C 84.23 170.15 83.59 170.92 83.27 171.31 C 78.16 171.48 73.07 170.86 67.98 170.41 C 64.03 170.00 59.91 169.75 56.34 167.81 C 57.02 167.70 58.37 167.48 59.04 167.38 Z" />
</g>
<g id="#13131322">
<path fill="#131313" opacity="0.13" d=" M 688.86 205.02 C 689.05 193.80 688.54 182.51 690.00 171.35 L 690.00 214.81 C 689.17 211.62 688.73 208.33 688.86 205.02 Z" />
</g>
<g id="#5e5e5ea3">
<path fill="#5e5e5e" opacity="0.64" d=" M 188.51 182.17 C 189.70 181.64 190.87 181.10 192.05 180.56 C 191.79 182.59 191.64 184.64 191.58 186.69 C 191.25 184.73 190.83 182.59 188.51 182.17 Z" />
</g>
<g id="#585859c5">
<path fill="#585859" opacity="0.77" d=" M 349.94 198.09 C 347.55 198.03 347.05 195.40 348.62 193.92 C 349.12 195.28 349.58 196.67 349.94 198.09 Z" />
</g>
<g id="#595450ff">
<path fill="#595450" opacity="1.00" d=" M 111.31 201.31 C 112.20 199.26 113.74 197.59 115.01 195.78 C 113.92 200.57 111.97 205.14 111.26 210.03 C 110.79 212.13 110.80 214.54 109.27 216.23 C 104.80 221.42 98.36 224.17 92.53 227.49 C 87.64 229.98 83.07 233.13 77.89 235.03 C 78.41 233.59 78.49 231.84 79.79 230.82 C 84.76 226.37 90.28 222.59 95.65 218.65 C 101.21 214.42 104.18 207.90 107.02 201.73 C 106.49 205.28 105.43 208.72 104.33 212.13 C 105.84 212.20 107.53 212.98 108.87 211.95 C 110.10 208.50 110.03 204.74 111.31 201.31 Z" />
</g>
<g id="#464141ff">
<path fill="#464141" opacity="1.00" d=" M 30.60 196.66 C 34.11 207.32 37.33 218.72 44.89 227.31 C 43.29 227.34 41.68 227.44 40.08 227.39 C 37.25 225.39 36.14 221.93 34.86 218.89 C 32.62 212.58 30.61 206.18 29.35 199.60 C 29.66 198.86 30.29 197.39 30.60 196.66 Z" />
</g>
<g id="#47474798">
<path fill="#474747" opacity="0.60" d=" M 197.16 202.41 C 198.54 202.94 199.16 203.94 199.01 205.42 C 197.72 204.84 197.10 203.83 197.16 202.41 Z" />
</g>
<g id="#8d827eff">
<path fill="#8d827e" opacity="1.00" d=" M 354.67 208.79 C 357.54 207.45 360.59 208.68 363.18 210.05 C 370.12 214.03 379.04 213.29 385.41 218.43 C 386.94 223.14 382.82 226.78 380.81 230.57 C 378.39 234.97 374.35 238.62 373.57 243.80 C 372.39 248.72 373.88 253.85 372.53 258.75 C 366.30 264.82 365.14 273.82 363.18 281.87 C 361.69 289.89 359.82 297.87 359.02 306.00 L 322.49 306.00 C 325.26 300.90 327.27 295.41 330.37 290.47 C 333.68 285.21 335.65 279.25 338.85 273.92 C 341.43 269.68 342.17 264.40 345.84 260.85 C 349.48 257.30 350.26 252.06 351.16 247.30 C 350.05 247.38 348.94 247.49 347.84 247.61 C 355.58 240.51 360.30 229.63 359.36 219.12 C 359.71 218.45 360.09 217.80 360.46 217.14 C 357.32 215.70 353.34 212.75 354.67 208.79 Z" />
<path fill="#8d827e" opacity="1.00" d=" M 430.80 251.84 C 432.76 247.89 436.05 244.84 439.22 241.86 C 443.37 249.96 443.37 260.46 451.00 266.49 C 448.76 267.54 446.53 268.60 444.30 269.66 C 450.08 278.70 455.29 288.39 463.24 295.76 C 464.92 297.26 466.65 298.88 468.84 299.58 C 473.45 297.56 476.37 293.20 480.31 290.24 C 486.76 285.29 493.28 280.39 500.23 276.17 C 507.93 271.45 515.12 265.93 523.08 261.65 C 523.12 262.55 523.20 264.37 523.24 265.28 C 517.94 279.27 510.61 292.35 504.56 306.00 L 416.36 306.00 C 416.63 287.08 422.44 268.67 430.80 251.84 Z" />
</g>
<g id="#806c65ff">
<path fill="#806c65" opacity="1.00" d=" M 556.73 210.53 C 569.57 213.93 582.93 211.92 596.02 212.82 C 605.23 213.59 614.66 213.45 623.59 216.17 C 631.86 219.20 637.58 226.42 642.68 233.27 C 648.44 241.66 653.99 250.22 658.73 259.24 C 667.20 274.47 675.35 289.90 682.04 306.00 L 587.62 306.00 C 590.26 298.45 591.97 290.60 594.75 283.09 C 589.17 289.73 586.07 297.96 583.10 306.00 L 555.64 306.00 C 560.23 299.19 564.61 292.12 567.45 284.39 C 568.61 281.05 569.70 276.82 567.09 273.86 C 563.22 269.09 558.49 265.10 554.42 260.50 C 560.90 255.53 569.91 254.78 575.62 248.74 C 574.73 242.24 570.94 236.88 567.20 231.74 C 564.10 224.47 559.61 217.88 556.73 210.53 Z" />
</g>
<g id="#585858e5">
<path fill="#585858" opacity="0.90" d=" M 156.42 225.68 C 155.21 223.36 156.43 220.80 156.86 218.45 C 156.44 222.12 157.71 225.60 160.27 228.23 C 159.00 227.37 157.40 226.89 156.42 225.68 Z" />
</g>
<g id="#454342ff">
<path fill="#454342" opacity="1.00" d=" M 47.02 229.44 C 49.17 229.54 51.33 229.63 53.49 229.72 C 50.76 235.91 54.11 242.00 55.84 247.87 C 52.99 253.14 50.22 258.55 46.73 263.45 C 43.02 272.33 34.89 278.24 29.60 286.08 C 29.54 287.75 30.71 289.13 31.40 290.58 C 34.41 295.55 36.65 300.94 39.51 306.00 L 32.24 306.00 C 29.82 301.11 27.72 296.06 25.68 291.00 C 19.67 294.94 15.57 300.94 10.62 306.00 L 4.90 306.00 C 9.17 299.27 16.18 295.21 21.67 289.65 C 23.93 287.53 24.30 284.29 25.70 281.66 C 28.45 276.03 34.14 272.75 37.54 267.60 C 40.44 263.34 42.87 258.79 45.31 254.25 C 46.69 251.61 48.61 249.14 49.20 246.16 C 49.13 242.89 48.27 239.72 47.83 236.50 C 47.58 234.14 47.34 231.78 47.02 229.44 Z" />
</g>
<g id="#8d7a73ff">
<path fill="#8d7a73" opacity="1.00" d=" M 373.57 243.80 C 374.35 238.62 378.39 234.97 380.81 230.57 C 385.00 234.83 391.70 234.56 396.51 237.97 C 393.52 242.16 389.04 244.85 385.28 248.27 C 381.17 251.92 377.18 255.75 372.53 258.75 C 373.88 253.85 372.39 248.72 373.57 243.80 Z" />
</g>
<g id="#806c66ff">
<path fill="#806c66" opacity="1.00" d=" M 409.48 235.50 C 411.67 232.98 414.70 236.08 417.15 236.64 C 414.73 242.12 408.46 244.63 406.01 250.09 C 404.78 253.51 407.98 256.22 409.73 258.77 C 404.52 263.87 399.40 269.07 394.41 274.38 C 392.28 276.93 389.32 279.40 389.26 283.00 C 388.59 290.64 388.68 298.33 388.87 306.00 L 381.77 306.00 C 380.82 299.11 378.48 292.24 374.21 286.70 C 373.76 288.87 373.74 291.11 374.48 293.23 C 375.75 297.41 376.55 301.72 377.46 306.00 L 362.72 306.00 C 364.67 294.09 366.51 282.04 370.84 270.72 C 372.68 266.22 376.78 263.37 380.40 260.40 C 383.51 257.89 385.79 254.53 388.84 251.96 C 395.70 246.45 403.01 241.49 409.48 235.50 Z" />
</g>
<g id="#4e4e4fbd">
<path fill="#4e4e4f" opacity="0.74" d=" M 211.03 238.87 C 212.40 240.30 212.61 242.34 212.01 244.18 C 210.74 242.70 210.56 240.70 211.03 238.87 Z" />
</g>
<g id="#736a66ff">
<path fill="#736a66" opacity="1.00" d=" M 514.55 256.76 C 520.54 252.16 525.74 246.61 531.77 242.04 C 530.80 250.38 525.86 257.43 523.24 265.28 C 523.20 264.37 523.12 262.55 523.08 261.65 C 515.12 265.93 507.93 271.45 500.23 276.17 C 493.28 280.39 486.76 285.29 480.31 290.24 C 476.37 293.20 473.45 297.56 468.84 299.58 C 466.65 298.88 464.92 297.26 463.24 295.76 C 455.29 288.39 450.08 278.70 444.30 269.66 C 446.53 268.60 448.76 267.54 451.00 266.49 C 455.81 269.93 460.93 272.97 466.23 275.61 C 468.35 276.50 470.57 277.89 472.97 277.22 C 478.82 275.92 484.69 274.40 490.19 271.95 C 498.80 267.72 506.40 261.77 514.55 256.76 Z" />
</g>
<g id="#5b4e4cff">
<path fill="#5b4e4c" opacity="1.00" d=" M 237.80 262.28 C 238.23 264.93 236.91 267.01 234.81 268.50 C 234.53 265.92 236.08 263.98 237.80 262.28 Z" />
</g>
<g id="#917b73ff">
<path fill="#917b73" opacity="1.00" d=" M 217.31 274.13 C 217.53 270.56 217.49 266.92 218.52 263.46 C 219.95 269.61 218.06 275.82 218.96 282.00 C 220.06 290.03 217.65 297.96 217.96 306.00 L 187.07 306.00 C 191.71 297.91 199.76 292.54 204.46 284.52 C 206.69 280.06 207.87 275.11 210.71 270.94 C 212.02 269.54 213.41 268.21 214.78 266.87 C 216.01 269.14 216.75 271.62 217.31 274.13 M 217.04 294.33 C 218.86 289.69 218.63 284.47 217.68 279.65 C 215.48 284.09 216.85 289.53 217.04 294.33 Z" />
</g>
<g id="#6b5951ff">
<path fill="#6b5951" opacity="1.00" d=" M 217.04 294.33 C 216.85 289.53 215.48 284.09 217.68 279.65 C 218.63 284.47 218.86 289.69 217.04 294.33 Z" />
</g>
<g id="#4b413eff">
<path fill="#4b413e" opacity="1.00" d=" M 583.10 306.00 C 586.07 297.96 589.17 289.73 594.75 283.09 C 591.97 290.60 590.26 298.45 587.62 306.00 L 583.10 306.00 Z" />
</g>
<g id="#45413dff">
<path fill="#45413d" opacity="1.00" d=" M 374.21 286.70 C 378.48 292.24 380.82 299.11 381.77 306.00 L 377.46 306.00 C 376.55 301.72 375.75 297.41 374.48 293.23 C 373.74 291.11 373.76 288.87 374.21 286.70 Z" />
</g>
<g id="#646463d9">
<path fill="#646463" opacity="0.85" d=" M 687.14 286.67 C 687.61 286.73 688.55 286.85 689.01 286.90 C 689.92 289.75 686.01 289.26 687.14 286.67 Z" />
</g>
<g id="#8e837eff">
<path fill="#8e837e" opacity="1.00" d=" M 10.62 306.00 C 15.57 300.94 19.67 294.94 25.68 291.00 C 27.72 296.06 29.82 301.11 32.24 306.00 L 10.62 306.00 Z" />
</g>
</svg>
