<?xml version="1.0" encoding="UTF-8" ?>
<!DOCTYPE svg PUBLIC "-//W3C//DTD SVG 1.1//EN" "http://www.w3.org/Graphics/SVG/1.1/DTD/svg11.dtd">
<svg width="181pt" height="181pt" viewBox="0 0 181 181" version="1.1" xmlns="http://www.w3.org/2000/svg">
<g id="#000000ff">
</g>
<g id="#bcbcbcff">
<path fill="#bcbcbc" opacity="1.00" d=" M 80.91 1.55 C 81.57 1.50 82.88 1.41 83.54 1.36 C 85.10 7.76 86.28 14.26 88.25 20.56 C 88.95 22.53 89.62 24.52 90.28 26.50 C 90.95 28.66 92.56 31.03 91.40 33.29 C 88.32 36.17 85.84 31.49 84.02 29.47 C 79.23 33.54 73.39 36.78 66.98 37.00 C 62.79 36.96 58.40 34.70 56.83 30.64 C 54.80 26.52 56.95 21.92 59.58 18.64 C 62.28 15.55 65.75 12.59 69.99 12.16 C 73.26 12.03 75.99 15.64 74.59 18.71 C 72.38 23.73 66.72 26.07 61.53 26.33 C 61.68 27.56 61.84 28.79 62.01 30.02 C 67.21 33.55 73.82 30.79 78.21 27.24 C 80.28 25.48 83.13 23.19 82.34 20.13 C 81.24 14.03 79.60 7.75 80.91 1.55 M 62.45 22.64 C 66.05 22.59 69.26 20.76 71.59 18.08 C 71.15 17.49 70.28 16.31 69.85 15.72 C 66.71 17.22 64.20 19.64 62.45 22.64 Z" />
<path fill="#bcbcbc" opacity="1.00" d=" M 90.52 1.32 C 91.44 -0.81 93.34 1.11 93.24 2.85 C 94.73 9.53 95.59 16.42 98.24 22.80 C 99.41 26.22 101.81 29.48 101.22 33.27 C 98.93 34.18 96.34 33.23 95.49 30.87 C 91.18 21.82 88.46 11.29 90.52 1.32 Z" />
<path fill="#bcbcbc" opacity="1.00" d=" M 20.16 7.12 C 21.42 5.55 23.52 5.37 25.30 4.80 L 24.31 6.58 C 24.96 6.62 26.24 6.71 26.89 6.75 C 23.55 12.76 17.41 19.82 21.67 26.91 C 26.20 26.51 29.55 23.44 32.05 19.91 C 32.72 18.27 35.14 18.73 35.54 20.28 C 36.82 23.66 38.17 27.59 41.82 29.08 C 44.08 30.49 47.27 29.93 48.80 27.71 C 51.13 24.51 50.97 20.11 49.44 16.60 C 48.42 14.28 46.15 12.91 44.64 10.95 C 44.34 8.15 48.11 7.81 49.85 9.12 C 54.28 12.03 55.20 17.75 56.50 22.49 C 56.16 24.40 55.83 26.30 55.53 28.22 C 52.97 31.11 50.32 34.68 46.11 34.99 C 40.69 35.81 36.58 31.60 32.68 28.57 C 29.51 30.15 26.64 32.64 23.03 33.10 C 18.94 33.54 15.17 30.37 14.31 26.46 C 12.74 19.56 15.38 12.17 20.16 7.12 Z" />
<path fill="#bcbcbc" opacity="1.00" d=" M 151.49 25.53 C 152.72 24.99 154.08 25.34 155.25 25.88 C 157.16 29.92 150.26 34.58 147.45 31.07 C 147.01 28.44 149.28 26.42 151.49 25.53 Z" />
<path fill="#bcbcbc" opacity="1.00" d=" M 105.29 36.27 C 106.27 36.25 107.25 36.23 108.24 36.21 C 109.30 39.25 110.30 42.31 111.01 45.45 C 109.86 45.43 108.72 45.41 107.58 45.39 C 105.57 42.76 104.75 39.55 105.29 36.27 Z" />
<path fill="#bcbcbc" opacity="1.00" d=" M 114.29 45.76 C 113.01 41.16 118.21 38.21 122.00 37.40 C 122.32 38.00 122.96 39.21 123.28 39.81 C 122.28 41.23 121.17 42.58 120.36 44.12 C 121.93 48.06 126.86 49.43 128.61 53.30 C 129.60 55.50 128.43 58.17 126.40 59.31 C 124.52 60.47 122.26 59.70 120.22 59.62 C 120.29 59.13 120.45 58.15 120.52 57.65 C 121.99 56.49 123.45 55.31 124.89 54.09 C 121.52 51.12 117.00 49.43 114.29 45.76 Z" />
<path fill="#bcbcbc" opacity="1.00" d=" M 40.06 42.44 C 40.65 42.45 41.82 42.49 42.41 42.51 C 44.39 45.95 45.86 49.66 47.80 53.13 C 50.71 51.73 54.31 49.68 57.43 51.67 C 61.06 54.23 61.29 59.18 60.90 63.20 C 61.44 63.48 62.53 64.05 63.07 64.34 C 65.28 60.18 65.41 54.47 69.87 51.88 C 72.91 49.89 78.04 52.00 77.49 56.00 C 77.34 60.41 71.87 62.55 71.81 66.73 C 76.07 68.70 81.02 65.43 81.77 61.05 C 82.09 56.81 79.60 52.45 81.35 48.34 C 81.83 46.44 84.01 46.28 85.49 45.54 C 85.85 48.02 85.94 50.53 86.23 53.02 C 86.65 56.06 88.31 58.80 88.65 61.86 C 88.41 63.80 86.41 64.84 85.22 66.21 C 82.21 69.27 78.76 72.92 74.03 72.44 C 70.35 72.47 68.21 69.04 65.06 67.83 C 62.32 67.75 59.60 68.18 56.87 68.28 C 55.58 68.54 54.00 67.29 54.32 65.90 C 54.59 62.49 57.10 58.58 54.54 55.49 C 52.97 53.60 51.35 56.21 50.24 57.34 C 47.66 60.34 51.04 64.52 49.02 67.69 C 47.76 68.06 45.96 68.05 45.49 66.53 C 43.92 61.96 43.15 57.14 41.76 52.50 C 40.83 49.22 40.38 45.83 40.06 42.44 M 71.87 56.33 C 70.71 57.15 70.75 57.89 71.98 58.55 C 73.14 57.72 73.10 56.99 71.87 56.33 Z" />
<path fill="#bcbcbc" opacity="1.00" d=" M 147.40 43.94 C 149.91 39.91 155.79 41.85 157.98 45.24 C 154.92 47.94 149.73 47.25 147.40 43.94 Z" />
<path fill="#bcbcbc" opacity="1.00" d=" M 30.83 41.59 C 34.77 44.85 34.14 51.53 39.69 53.13 C 38.80 54.14 37.91 55.15 37.02 56.16 C 36.80 61.08 38.34 65.92 37.83 70.82 C 37.64 73.03 35.59 73.52 33.76 73.80 C 32.70 68.97 32.96 63.93 31.34 59.20 C 28.24 60.63 25.17 62.37 21.71 62.70 C 24.18 59.20 28.32 57.39 30.79 53.95 C 31.06 49.82 29.27 45.66 30.83 41.59 Z" />
<path fill="#bcbcbc" opacity="1.00" d=" M 97.70 43.67 C 99.80 41.55 103.83 42.87 104.07 45.88 C 105.01 50.33 102.17 54.11 99.75 57.49 C 101.41 61.41 105.71 61.60 109.36 61.92 C 107.48 64.78 103.70 66.19 100.59 64.36 C 96.43 61.65 95.03 56.47 93.55 52.03 C 94.58 49.11 95.63 46.03 97.70 43.67 M 99.97 48.22 C 98.75 48.95 98.74 49.68 99.94 50.43 C 101.16 49.67 101.17 48.93 99.97 48.22 Z" />
<path fill="#bcbcbc" opacity="1.00" d=" M 147.18 56.32 C 151.60 56.04 156.26 58.81 156.94 63.44 C 152.40 64.92 146.93 61.22 147.18 56.32 Z" />
<path fill="#bcbcbc" opacity="1.00" d=" M 95.97 82.18 C 97.21 82.53 98.97 81.85 99.93 82.91 C 99.13 84.05 97.98 84.91 97.24 86.12 C 96.90 88.34 96.88 90.60 96.66 92.85 C 96.02 92.77 94.75 92.63 94.11 92.55 C 93.65 91.05 93.13 89.56 92.86 88.01 C 92.94 85.70 94.73 83.97 95.97 82.18 Z" />
<path fill="#bcbcbc" opacity="1.00" d=" M 63.95 84.92 C 67.76 83.19 72.49 84.38 74.85 87.88 C 75.44 90.41 74.86 93.08 72.70 94.67 C 69.72 98.14 64.93 98.40 60.70 98.28 C 60.31 102.40 59.07 106.87 55.45 109.32 C 49.45 113.54 40.77 114.63 34.33 110.82 C 32.38 109.82 32.64 107.44 32.26 105.63 C 36.45 106.71 40.57 108.72 45.01 108.09 C 49.20 107.86 54.77 105.91 55.27 101.08 C 54.57 96.75 50.78 93.94 47.66 91.27 C 44.80 94.83 42.55 100.58 37.04 100.11 C 30.09 99.91 28.44 88.50 35.37 86.69 C 35.41 89.53 34.79 92.44 35.72 95.21 C 36.54 95.18 38.17 95.11 38.99 95.08 C 41.10 92.51 42.20 89.39 43.48 86.38 C 44.02 84.90 45.42 84.17 46.89 84.92 C 50.47 86.94 53.22 90.13 56.48 92.59 C 58.01 89.29 60.14 85.82 63.95 84.92 M 62.53 91.92 C 64.49 96.35 68.97 92.28 70.76 89.82 C 67.83 88.33 64.34 89.13 62.53 91.92 Z" />
<path fill="#bcbcbc" opacity="1.00" d=" M 85.52 85.19 C 87.89 84.53 90.65 86.26 90.27 88.88 C 89.43 92.01 87.12 95.21 83.79 95.93 C 81.20 96.32 79.01 94.38 77.56 92.47 C 76.89 90.89 77.48 89.07 77.46 87.40 C 78.72 87.18 80.07 86.37 81.30 87.17 C 81.92 88.64 82.40 90.17 82.93 91.67 C 83.42 91.22 84.41 90.31 84.90 89.85 C 85.06 88.29 85.18 86.72 85.52 85.19 Z" />
<path fill="#bcbcbc" opacity="1.00" d=" M 111.82 115.86 C 115.18 114.30 118.81 113.35 122.37 112.32 L 122.34 113.60 C 122.86 113.68 123.90 113.85 124.42 113.93 C 121.60 117.44 117.28 118.91 113.42 120.89 C 112.62 126.16 112.60 131.59 114.06 136.76 C 115.37 138.44 116.55 140.67 118.91 140.97 C 124.02 141.86 128.89 139.35 133.97 139.23 C 130.07 146.38 119.50 149.60 113.02 143.99 C 107.98 139.45 108.81 132.07 108.97 125.96 C 109.43 122.56 108.94 118.33 111.82 115.86 Z" />
<path fill="#bcbcbc" opacity="1.00" d=" M 155.49 115.46 C 156.29 113.19 158.98 111.29 161.31 112.67 C 163.68 114.19 164.48 117.15 165.23 119.70 C 167.42 129.40 167.93 139.72 165.22 149.35 C 164.20 152.39 159.68 151.21 160.25 148.07 C 161.38 139.24 163.17 130.12 160.57 121.37 C 160.20 120.76 159.45 119.54 159.08 118.92 C 158.56 120.41 158.07 121.92 157.60 123.43 C 156.16 127.75 155.53 132.39 153.43 136.47 C 152.32 138.75 149.60 138.94 147.45 139.46 C 145.38 142.69 144.41 148.66 139.38 147.80 C 139.92 143.79 141.91 140.10 142.04 136.03 C 142.19 133.00 142.22 129.96 141.93 126.94 C 141.63 123.55 139.88 120.07 141.81 116.84 C 146.17 119.92 146.56 125.69 148.52 130.25 C 149.02 130.29 150.01 130.36 150.50 130.39 C 152.03 125.38 153.44 120.29 155.49 115.46 Z" />
<path fill="#bcbcbc" opacity="1.00" d=" M 71.15 117.03 C 76.22 113.43 85.72 115.35 86.97 122.08 C 87.33 124.46 86.35 126.74 86.01 129.06 C 88.20 130.29 90.69 130.84 93.12 131.33 C 95.22 125.83 94.66 119.67 97.21 114.27 C 98.29 115.59 99.29 117.11 99.11 118.91 C 99.16 127.28 98.82 135.65 99.13 144.02 C 99.29 145.95 99.73 148.40 101.76 149.22 C 105.15 150.44 108.97 149.29 112.31 150.74 C 113.51 151.91 112.91 153.97 111.32 154.43 C 105.49 156.23 99.08 154.94 94.06 151.57 C 89.71 153.70 84.54 156.65 79.68 154.26 C 77.21 151.83 76.36 148.25 75.00 145.15 C 73.36 150.44 69.95 155.61 64.47 157.45 C 57.85 159.87 50.03 155.62 48.10 148.91 C 45.37 142.56 49.52 134.82 56.01 132.92 C 61.70 130.63 68.03 132.86 72.59 136.52 C 72.77 137.01 73.13 138.00 73.32 138.50 C 73.36 131.27 71.01 124.25 71.15 117.03 M 73.86 119.17 C 74.31 122.89 75.48 126.60 77.45 129.81 C 79.47 128.21 81.34 126.45 83.15 124.63 C 83.16 123.42 83.16 122.21 83.17 121.00 C 80.53 119.29 76.66 115.98 73.86 119.17 M 77.55 134.27 C 78.49 139.81 79.79 145.32 81.95 150.52 C 85.78 149.58 90.17 148.58 92.48 145.05 C 93.59 142.66 92.77 140.05 92.58 137.57 C 88.49 133.80 82.74 133.93 77.55 134.27 M 51.91 142.09 C 52.49 146.95 55.17 151.82 60.24 153.05 C 64.15 152.31 67.90 149.10 68.43 144.99 C 68.90 141.42 65.67 137.94 62.07 138.14 C 58.20 137.70 54.95 140.07 51.91 142.09 Z" />
<path fill="#bcbcbc" opacity="1.00" d=" M 8.05 119.10 C 16.01 115.45 26.20 119.79 29.44 127.81 C 30.77 131.72 30.43 136.41 27.72 139.67 C 25.01 143.35 20.55 144.93 16.58 146.82 C 17.07 154.60 23.21 161.36 21.53 169.31 C 19.90 168.88 17.85 168.71 17.32 166.78 C 12.01 153.57 9.12 139.52 4.11 126.21 C 2.98 127.60 1.85 128.98 0.66 130.32 C -0.78 125.05 3.58 120.85 8.05 119.10 M 8.46 122.25 C 9.24 128.30 12.23 133.72 13.63 139.62 C 17.08 139.12 20.10 137.36 23.13 135.76 C 24.44 133.39 25.57 130.48 24.07 127.91 C 21.35 122.18 14.12 120.81 8.46 122.25 Z" />
<path fill="#bcbcbc" opacity="1.00" d=" M 119.94 130.50 C 120.60 130.56 121.92 130.68 122.58 130.74 C 120.54 132.12 118.37 133.30 116.11 134.29 C 116.27 133.74 116.58 132.66 116.74 132.11 C 117.81 131.58 118.88 131.05 119.94 130.50 Z" />
<path fill="#bcbcbc" opacity="1.00" d=" M 25.85 151.96 C 27.08 145.83 34.97 139.23 40.78 144.28 C 44.88 148.20 40.43 153.26 38.34 156.94 C 41.33 159.66 45.86 161.30 46.51 165.82 C 42.03 166.27 38.38 163.42 34.75 161.28 C 34.47 163.68 34.14 166.18 32.18 167.85 C 27.76 163.87 26.58 157.58 25.85 151.96 M 31.14 148.05 C 28.62 149.65 30.34 152.66 32.10 154.07 C 35.17 153.04 37.44 150.58 38.88 147.75 C 36.69 145.24 33.19 145.55 31.14 148.05 Z" />
<path fill="#bcbcbc" opacity="1.00" d=" M 107.89 162.38 C 127.58 160.70 147.29 159.23 167.04 158.75 C 171.16 158.68 175.84 157.05 179.62 159.27 C 181.72 160.89 179.68 162.65 177.79 162.82 C 172.41 163.42 166.97 162.76 161.58 163.36 C 153.49 164.30 145.30 163.62 137.23 164.71 C 111.12 166.03 85.14 169.10 59.24 172.58 C 50.63 174.11 42.01 175.63 33.50 177.63 C 28.69 178.78 23.99 180.76 18.95 180.57 C 19.44 179.29 19.53 177.51 21.25 177.34 C 49.22 168.10 78.78 165.61 107.89 162.38 Z" />
</g>
</svg>
