<?xml version="1.0" encoding="UTF-8" ?>
<!DOCTYPE svg PUBLIC "-//W3C//DTD SVG 1.1//EN" "http://www.w3.org/Graphics/SVG/1.1/DTD/svg11.dtd">
<svg width="300pt" height="300pt" viewBox="0 0 300 300" version="1.1" xmlns="http://www.w3.org/2000/svg">
<g id="#000000ff">
<path fill="#000000" opacity="1.00" d=" M 194.81 16.80 C 201.31 11.49 210.95 12.04 218.02 15.92 C 220.96 16.97 221.39 20.31 221.36 23.02 C 221.28 29.57 221.95 36.21 220.56 42.68 C 215.63 43.66 211.88 39.98 207.62 38.28 C 203.34 42.06 206.67 47.83 209.70 51.23 C 217.16 59.27 223.78 68.93 224.95 80.11 C 226.19 91.01 224.36 103.24 216.35 111.33 C 209.31 118.54 197.04 118.65 189.12 112.85 C 187.03 111.26 187.37 108.38 187.24 106.07 C 187.33 99.68 186.98 93.27 187.59 86.89 C 188.75 86.42 189.92 85.94 191.09 85.46 C 194.15 86.93 196.82 89.13 200.00 90.35 C 203.72 91.90 204.92 86.67 203.98 84.06 C 201.79 78.37 196.67 74.52 193.46 69.44 C 186.77 60.49 183.75 49.01 185.12 37.92 C 185.87 30.11 188.59 21.94 194.81 16.80 M 197.13 19.12 C 189.38 25.57 187.53 36.46 188.11 46.02 C 188.32 56.20 193.82 65.29 200.24 72.82 C 203.42 76.69 207.56 80.63 207.45 86.03 C 207.47 89.07 206.31 93.17 202.85 93.77 C 197.91 94.47 193.94 90.89 190.28 88.14 C 190.34 95.42 190.28 102.70 190.38 109.97 C 196.61 114.29 205.57 115.64 211.91 110.80 C 220.56 104.16 222.98 92.33 222.03 81.99 C 221.53 74.11 217.84 66.91 213.28 60.62 C 209.62 55.41 203.89 51.31 202.48 44.76 C 201.69 41.28 202.80 36.18 206.95 35.55 C 211.34 35.14 214.90 38.26 218.26 40.62 C 218.23 33.65 218.23 26.68 218.23 19.71 C 212.03 15.83 203.23 14.20 197.13 19.12 Z" />
<path fill="#000000" opacity="1.00" d=" M 13.44 16.56 C 15.96 14.91 19.16 15.52 22.00 15.34 C 29.72 15.59 38.27 14.26 45.01 18.92 C 53.27 24.75 56.33 35.37 56.62 45.03 C 56.93 55.07 55.25 66.30 47.66 73.56 C 43.75 77.55 38.12 78.80 32.78 79.46 C 32.55 90.77 33.22 102.12 32.38 113.42 C 26.06 115.29 19.02 115.30 12.71 113.40 C 12.15 107.96 12.32 102.48 12.31 97.02 C 12.31 71.99 12.30 46.95 12.31 21.92 C 12.45 20.12 12.24 18.06 13.44 16.56 M 15.45 111.50 C 20.19 111.50 24.93 111.50 29.68 111.50 C 29.67 99.78 29.69 88.06 29.66 76.34 C 34.23 76.08 39.10 75.81 42.98 73.09 C 49.28 68.93 52.22 61.32 53.13 54.10 C 54.16 44.86 53.55 34.78 48.21 26.85 C 45.12 22.04 39.74 18.70 33.95 18.61 C 27.79 18.46 21.62 18.62 15.45 18.55 C 15.45 49.53 15.45 80.52 15.45 111.50 Z" />
<path fill="#000000" opacity="1.00" d=" M 61.62 16.57 C 65.94 14.99 70.60 15.30 75.12 15.36 C 76.94 15.48 78.94 15.40 80.49 16.54 C 81.77 18.43 81.53 20.81 81.64 22.97 C 81.61 44.23 81.61 65.49 81.64 86.74 C 84.87 86.86 88.24 86.51 91.36 87.59 C 93.16 89.18 92.66 91.84 92.86 93.97 C 92.78 100.47 93.12 107.00 92.42 113.48 C 87.47 115.25 82.16 114.53 77.02 114.64 C 71.88 114.51 66.55 115.27 61.61 113.45 C 61.33 110.64 61.15 107.81 61.17 104.99 C 61.20 81.32 61.17 57.65 61.18 33.98 C 61.21 28.17 60.97 22.35 61.62 16.57 M 64.26 111.50 C 72.76 111.50 81.26 111.50 89.76 111.50 C 89.75 104.31 89.77 97.13 89.75 89.94 C 86.00 89.94 82.25 89.94 78.50 89.94 C 78.50 66.14 78.50 42.34 78.50 18.54 C 73.75 18.54 69.01 18.54 64.26 18.54 C 64.26 49.53 64.27 80.52 64.26 111.50 Z" />
<path fill="#000000" opacity="1.00" d=" M 98.60 15.83 C 103.34 14.91 108.22 15.52 113.02 15.37 C 118.86 15.56 124.86 14.68 130.56 16.38 C 131.64 24.37 131.68 32.57 130.53 40.55 C 126.02 41.78 121.33 41.51 116.71 41.49 C 116.68 45.09 116.69 48.69 116.71 52.30 C 120.19 52.42 123.79 51.94 127.19 52.83 C 129.29 53.57 129.08 56.21 129.30 58.01 C 129.31 64.44 129.88 70.99 128.37 77.31 C 124.51 77.84 120.60 77.90 116.71 77.89 C 116.69 81.42 116.68 84.95 116.71 88.48 C 121.35 88.46 126.07 88.17 130.60 89.42 C 131.82 95.62 131.16 101.96 131.56 108.24 C 136.32 79.68 141.74 51.23 146.67 22.70 C 147.15 20.63 147.21 18.29 148.57 16.55 C 150.39 15.17 152.83 15.51 154.97 15.35 C 159.75 15.39 164.69 14.85 169.26 16.59 C 174.33 42.67 178.67 68.88 183.43 95.02 C 184.37 101.17 186.31 107.29 185.66 113.58 C 179.20 115.16 172.13 115.34 165.72 113.44 C 164.76 108.71 164.03 103.93 163.30 99.16 C 160.10 99.15 156.89 99.15 153.69 99.17 C 152.94 103.94 152.21 108.71 151.23 113.43 C 146.02 115.28 140.37 114.69 134.96 114.48 C 133.21 114.59 132.14 113.16 131.12 111.99 C 130.15 112.94 129.36 114.40 127.83 114.41 C 122.58 114.93 117.28 114.52 112.02 114.64 C 106.89 114.52 101.56 115.28 96.64 113.42 C 96.41 110.97 96.23 108.52 96.23 106.06 C 96.23 78.00 96.24 49.95 96.22 21.89 C 96.34 19.77 96.06 16.68 98.60 15.83 M 99.34 111.50 C 108.97 111.50 118.59 111.51 128.22 111.50 C 128.22 104.87 128.23 98.25 128.22 91.63 C 123.34 91.62 118.45 91.62 113.57 91.62 C 113.57 86.00 113.57 80.37 113.57 74.74 C 117.78 74.74 121.99 74.74 126.21 74.74 C 126.21 68.30 126.21 61.86 126.21 55.42 C 121.99 55.42 117.78 55.42 113.57 55.42 C 113.57 49.73 113.57 44.05 113.57 38.36 C 118.43 38.36 123.30 38.37 128.16 38.35 C 128.16 31.75 128.16 25.15 128.16 18.55 C 118.55 18.53 108.94 18.55 99.34 18.54 C 99.34 49.53 99.33 80.51 99.34 111.50 M 134.05 111.49 C 138.87 111.51 143.70 111.50 148.53 111.50 C 149.37 106.37 150.21 101.24 150.95 96.10 C 155.98 95.83 161.03 95.83 166.06 96.09 C 166.76 101.24 167.62 106.36 168.39 111.50 C 173.32 111.50 178.25 111.50 183.18 111.50 C 177.66 80.51 172.15 49.52 166.58 18.54 C 161.26 18.55 155.95 18.55 150.63 18.54 C 145.13 49.53 139.53 80.50 134.05 111.49 Z" />
<path fill="#000000" opacity="1.00" d=" M 231.63 15.83 C 236.35 14.91 241.21 15.53 245.99 15.37 C 251.86 15.56 257.88 14.67 263.61 16.39 C 264.62 24.39 264.67 32.59 263.57 40.59 C 259.04 41.77 254.34 41.50 249.72 41.50 C 249.70 45.09 249.70 48.69 249.72 52.29 C 253.22 52.40 256.81 51.97 260.25 52.81 C 262.54 53.89 262.22 56.88 262.39 58.98 C 262.29 65.10 262.98 71.34 261.36 77.32 C 257.50 77.84 253.61 77.90 249.72 77.89 C 249.70 81.41 249.70 84.94 249.72 88.47 C 254.37 88.47 259.11 88.15 263.64 89.43 C 264.79 97.44 264.81 105.70 263.62 113.71 C 257.86 115.27 251.85 114.47 245.97 114.64 C 240.53 114.45 234.86 115.41 229.66 113.38 C 229.41 110.60 229.24 107.81 229.25 105.01 C 229.27 77.32 229.25 49.63 229.26 21.94 C 229.40 19.80 229.06 16.69 231.63 15.83 M 232.37 111.50 C 242.00 111.50 251.62 111.50 261.24 111.50 C 261.24 104.88 261.25 98.25 261.24 91.62 C 256.36 91.62 251.48 91.62 246.61 91.62 C 246.60 85.99 246.60 80.37 246.61 74.74 C 250.82 74.74 255.03 74.74 259.25 74.74 C 259.25 68.30 259.25 61.86 259.25 55.42 C 255.03 55.42 250.82 55.42 246.61 55.42 C 246.60 49.73 246.61 44.05 246.60 38.36 C 251.45 38.36 256.30 38.36 261.15 38.36 C 261.15 31.75 261.15 25.15 261.15 18.54 C 251.56 18.54 241.97 18.54 232.37 18.54 C 232.37 49.53 232.37 80.51 232.37 111.50 Z" />
<path fill="#000000" opacity="1.00" d=" M 29.73 36.12 C 32.89 36.78 36.88 37.48 38.00 41.04 C 39.39 45.31 39.55 50.35 37.52 54.44 C 36.04 57.37 32.57 57.88 29.72 58.62 C 29.65 51.12 29.65 43.62 29.73 36.12 M 32.97 39.76 C 32.67 44.75 32.66 49.77 32.96 54.76 C 36.90 50.79 36.89 43.74 32.97 39.76 Z" />
<path fill="#000000" opacity="1.00" d=" M 158.16 39.38 C 159.96 52.65 161.13 66.00 163.30 79.22 C 160.07 79.22 156.84 79.22 153.62 79.22 C 155.47 65.99 157.41 52.73 158.16 39.38 M 158.14 67.71 C 157.89 70.45 157.62 73.19 157.34 75.92 C 157.92 75.91 159.09 75.90 159.67 75.89 C 159.20 73.16 158.67 70.43 158.14 67.71 Z" />
<path fill="#000000" opacity="1.00" d=" M 272.40 92.76 C 272.90 90.65 273.39 87.57 276.12 87.40 C 281.22 86.82 286.40 87.07 291.50 87.66 C 291.87 90.48 291.99 93.39 291.02 96.12 C 287.58 106.96 284.31 117.86 280.94 128.72 C 280.27 130.26 279.88 132.50 277.90 132.82 C 273.82 133.93 269.50 133.31 265.44 132.41 C 265.21 129.52 265.21 126.60 265.88 123.76 C 268.14 113.44 270.23 103.09 272.40 92.76 M 276.15 90.28 C 273.41 103.60 270.51 116.88 267.85 130.22 C 270.94 130.22 274.03 130.22 277.13 130.22 C 281.25 116.91 285.32 103.58 289.47 90.28 C 285.03 90.27 280.59 90.27 276.15 90.28 Z" />
<path fill="#000000" opacity="1.00" d=" M 201.50 135.85 C 215.16 133.83 229.39 135.43 242.16 140.77 C 258.01 147.28 271.47 159.35 279.74 174.35 C 287.60 188.47 290.76 205.14 288.60 221.16 C 286.55 237.40 279.00 252.87 267.52 264.54 C 256.88 275.47 242.88 283.12 227.90 286.03 C 211.37 289.37 193.75 286.99 178.70 279.36 C 163.00 271.47 150.18 258.00 143.16 241.88 C 136.99 227.88 135.19 212.00 138.09 196.97 C 141.19 180.33 150.10 164.88 162.88 153.79 C 173.69 144.29 187.27 137.99 201.50 135.85 M 149.14 211.24 C 163.96 211.27 178.78 211.22 193.61 211.27 C 194.02 204.47 197.60 198.16 203.35 194.48 C 195.88 181.66 188.51 168.78 181.07 155.94 C 161.63 167.06 149.05 188.84 149.14 211.24 M 222.65 194.48 C 228.40 198.16 231.97 204.47 232.39 211.27 C 247.21 211.22 262.04 211.27 276.86 211.24 C 276.95 188.84 264.37 167.06 244.93 155.94 C 237.49 168.78 230.12 181.66 222.65 194.48 M 209.19 199.06 C 203.71 200.67 199.81 206.31 200.27 212.00 C 200.48 218.50 206.45 224.24 212.99 223.93 C 220.61 224.34 227.08 216.58 225.59 209.16 C 224.60 201.74 216.27 196.60 209.19 199.06 M 203.29 228.01 C 195.94 240.88 188.46 253.68 181.09 266.53 C 200.42 277.84 225.58 277.84 244.91 266.53 C 237.53 253.68 230.06 240.88 222.71 228.01 C 216.60 231.06 209.39 231.08 203.29 228.01 Z" />
<path fill="#000000" opacity="1.00" d=" M 9.38 136.54 C 15.48 135.04 21.79 135.76 28.00 135.59 C 30.99 135.64 34.05 135.38 36.97 136.12 C 38.87 136.38 39.33 138.49 39.90 139.99 C 42.34 148.37 44.40 156.85 46.91 165.21 C 49.47 155.65 51.73 145.98 54.76 136.55 C 61.05 134.99 67.56 135.80 73.97 135.59 C 77.11 135.69 80.45 135.24 83.41 136.55 C 85.12 138.82 84.11 141.75 83.41 144.20 C 77.17 163.01 71.07 181.86 64.81 200.67 C 64.05 203.08 63.05 205.46 62.79 208.00 C 63.11 210.76 64.21 213.35 65.04 215.99 C 71.83 236.61 78.42 257.28 85.20 277.90 C 85.87 280.14 86.67 282.52 86.12 284.88 C 84.55 287.25 81.42 286.66 79.00 286.84 C 72.41 286.69 65.80 287.12 59.22 286.59 C 56.58 286.62 55.82 283.73 55.17 281.71 C 52.40 271.96 49.58 262.22 46.89 252.44 C 43.66 262.52 40.88 272.74 37.75 282.85 C 37.28 284.77 35.98 286.76 33.75 286.63 C 25.70 286.95 17.59 287.07 9.56 286.38 C 7.21 280.97 9.08 275.21 10.95 269.99 C 17.20 250.62 23.33 231.21 29.60 211.85 C 30.41 209.69 30.56 207.36 29.68 205.20 C 23.06 184.86 16.60 164.46 9.98 144.11 C 9.11 141.68 9.24 139.08 9.38 136.54 M 11.66 138.78 C 18.82 161.09 25.96 183.41 33.19 205.69 C 33.77 207.25 34.00 208.94 33.34 210.52 C 26.33 232.40 19.36 254.29 12.31 276.15 C 11.46 278.57 11.49 281.15 11.38 283.68 C 18.98 283.74 26.59 283.69 34.20 283.71 C 38.40 268.91 43.44 254.34 46.70 239.29 C 50.39 254.20 54.94 268.88 59.04 283.68 C 67.26 283.74 75.48 283.70 83.71 283.70 C 76.06 260.21 68.49 236.70 60.77 213.23 C 60.08 210.80 58.64 208.22 59.82 205.70 C 67.17 183.40 74.49 161.09 81.80 138.77 C 73.60 138.76 65.40 138.77 57.20 138.77 C 53.76 151.94 49.98 165.02 46.83 178.26 C 43.59 165.03 39.89 151.91 36.29 138.78 C 28.08 138.78 19.87 138.78 11.66 138.78 Z" />
<path fill="#000000" opacity="1.00" d=" M 94.32 136.41 C 100.46 135.14 106.76 135.73 112.98 135.59 C 115.49 135.68 118.19 135.40 120.49 136.63 C 121.92 137.97 121.63 140.13 121.81 141.90 C 121.84 185.61 121.80 229.31 121.83 273.02 C 121.75 277.51 122.38 282.22 120.50 286.45 C 111.88 287.00 103.19 287.09 94.57 286.38 C 92.86 281.76 93.41 276.80 93.37 271.99 C 93.37 228.97 93.37 185.95 93.36 142.92 C 93.37 140.71 93.80 138.54 94.32 136.41 M 96.50 283.71 C 103.91 283.71 111.32 283.71 118.73 283.71 C 118.72 235.40 118.74 187.09 118.71 138.77 C 111.31 138.78 103.91 138.78 96.51 138.78 C 96.48 187.09 96.51 235.40 96.50 283.71 Z" />
</g>
<g id="#f1cd43ff">
<path fill="#f1cd43" opacity="1.00" d=" M 197.13 19.12 C 203.23 14.20 212.03 15.83 218.23 19.71 C 218.23 26.68 218.23 33.65 218.26 40.62 C 214.90 38.26 211.34 35.14 206.95 35.55 C 202.80 36.18 201.69 41.28 202.48 44.76 C 203.89 51.31 209.62 55.41 213.28 60.62 C 217.84 66.91 221.53 74.11 222.03 81.99 C 222.98 92.33 220.56 104.16 211.91 110.80 C 205.57 115.64 196.61 114.29 190.38 109.97 C 190.28 102.70 190.34 95.42 190.28 88.14 C 193.94 90.89 197.91 94.47 202.85 93.77 C 206.31 93.17 207.47 89.07 207.45 86.03 C 207.56 80.63 203.42 76.69 200.24 72.82 C 193.82 65.29 188.32 56.20 188.11 46.02 C 187.53 36.46 189.38 25.57 197.13 19.12 Z" />
<path fill="#f1cd43" opacity="1.00" d=" M 15.45 111.50 C 15.45 80.52 15.45 49.53 15.45 18.55 C 21.62 18.62 27.79 18.46 33.95 18.61 C 39.74 18.70 45.12 22.04 48.21 26.85 C 53.55 34.78 54.16 44.86 53.13 54.10 C 52.22 61.32 49.28 68.93 42.98 73.09 C 39.10 75.81 34.23 76.08 29.66 76.34 C 29.69 88.06 29.67 99.78 29.68 111.50 C 24.93 111.50 20.19 111.50 15.45 111.50 M 29.73 36.12 C 29.65 43.62 29.65 51.12 29.72 58.62 C 32.57 57.88 36.04 57.37 37.52 54.44 C 39.55 50.35 39.39 45.31 38.00 41.04 C 36.88 37.48 32.89 36.78 29.73 36.12 Z" />
<path fill="#f1cd43" opacity="1.00" d=" M 64.26 111.50 C 64.27 80.52 64.26 49.53 64.26 18.54 C 69.01 18.54 73.75 18.54 78.50 18.54 C 78.50 42.34 78.50 66.14 78.50 89.94 C 82.25 89.94 86.00 89.94 89.75 89.94 C 89.77 97.13 89.75 104.31 89.76 111.50 C 81.26 111.50 72.76 111.50 64.26 111.50 Z" />
<path fill="#f1cd43" opacity="1.00" d=" M 99.34 111.50 C 99.33 80.51 99.34 49.53 99.34 18.54 C 108.94 18.55 118.55 18.53 128.16 18.55 C 128.16 25.15 128.16 31.75 128.16 38.35 C 123.30 38.37 118.43 38.36 113.57 38.36 C 113.57 44.05 113.57 49.73 113.57 55.42 C 117.78 55.42 121.99 55.42 126.21 55.42 C 126.21 61.86 126.21 68.30 126.21 74.74 C 121.99 74.74 117.78 74.74 113.57 74.74 C 113.57 80.37 113.57 86.00 113.57 91.62 C 118.45 91.62 123.34 91.62 128.22 91.63 C 128.23 98.25 128.22 104.87 128.22 111.50 C 118.59 111.51 108.97 111.50 99.34 111.50 Z" />
<path fill="#f1cd43" opacity="1.00" d=" M 134.05 111.49 C 139.53 80.50 145.13 49.53 150.63 18.54 C 155.95 18.55 161.26 18.55 166.58 18.54 C 172.15 49.52 177.66 80.51 183.18 111.50 C 178.25 111.50 173.32 111.50 168.39 111.50 C 167.62 106.36 166.76 101.24 166.06 96.09 C 161.03 95.83 155.98 95.83 150.95 96.10 C 150.21 101.24 149.37 106.37 148.53 111.50 C 143.70 111.50 138.87 111.51 134.05 111.49 M 158.16 39.38 C 157.41 52.73 155.47 65.99 153.62 79.22 C 156.84 79.22 160.07 79.22 163.30 79.22 C 161.13 66.00 159.96 52.65 158.16 39.38 Z" />
<path fill="#f1cd43" opacity="1.00" d=" M 232.37 111.50 C 232.37 80.51 232.37 49.53 232.37 18.54 C 241.97 18.54 251.56 18.54 261.15 18.54 C 261.15 25.15 261.15 31.75 261.15 38.36 C 256.30 38.36 251.45 38.36 246.60 38.36 C 246.61 44.05 246.60 49.73 246.61 55.42 C 250.82 55.42 255.03 55.42 259.25 55.42 C 259.25 61.86 259.25 68.30 259.25 74.74 C 255.03 74.74 250.82 74.74 246.61 74.74 C 246.60 80.37 246.60 85.99 246.61 91.62 C 251.48 91.62 256.36 91.62 261.24 91.62 C 261.25 98.25 261.24 104.88 261.24 111.50 C 251.62 111.50 242.00 111.50 232.37 111.50 Z" />
<path fill="#f1cd43" opacity="1.00" d=" M 276.15 90.28 C 280.59 90.27 285.03 90.27 289.47 90.28 C 285.32 103.58 281.25 116.91 277.13 130.22 C 274.03 130.22 270.94 130.22 267.85 130.22 C 270.51 116.88 273.41 103.60 276.15 90.28 Z" />
<path fill="#f1cd43" opacity="1.00" d=" M 11.66 138.78 C 19.87 138.78 28.08 138.78 36.29 138.78 C 39.89 151.91 43.59 165.03 46.83 178.26 C 49.98 165.02 53.76 151.94 57.20 138.77 C 65.40 138.77 73.60 138.76 81.80 138.77 C 74.49 161.09 67.17 183.40 59.82 205.70 C 58.64 208.22 60.08 210.80 60.77 213.23 C 68.49 236.70 76.06 260.21 83.71 283.70 C 75.48 283.70 67.26 283.74 59.04 283.68 C 54.94 268.88 50.39 254.20 46.70 239.29 C 43.44 254.34 38.40 268.91 34.20 283.71 C 26.59 283.69 18.98 283.74 11.38 283.68 C 11.49 281.15 11.46 278.57 12.31 276.15 C 19.36 254.29 26.33 232.40 33.34 210.52 C 34.00 208.94 33.77 207.25 33.19 205.69 C 25.96 183.41 18.82 161.09 11.66 138.78 Z" />
<path fill="#f1cd43" opacity="1.00" d=" M 96.50 283.71 C 96.51 235.40 96.48 187.09 96.51 138.78 C 103.91 138.78 111.31 138.78 118.71 138.77 C 118.74 187.09 118.72 235.40 118.73 283.71 C 111.32 283.71 103.91 283.71 96.50 283.71 Z" />
<path fill="#f1cd43" opacity="1.00" d=" M 149.14 211.24 C 149.05 188.84 161.63 167.06 181.07 155.94 C 188.51 168.78 195.88 181.66 203.35 194.48 C 197.60 198.16 194.02 204.47 193.61 211.27 C 178.78 211.22 163.96 211.27 149.14 211.24 Z" />
<path fill="#f1cd43" opacity="1.00" d=" M 222.65 194.48 C 230.12 181.66 237.49 168.78 244.93 155.94 C 264.37 167.06 276.95 188.84 276.86 211.24 C 262.04 211.27 247.21 211.22 232.39 211.27 C 231.97 204.47 228.40 198.16 222.65 194.48 Z" />
<path fill="#f1cd43" opacity="1.00" d=" M 209.19 199.06 C 216.27 196.60 224.60 201.74 225.59 209.16 C 227.08 216.58 220.61 224.34 212.99 223.93 C 206.45 224.24 200.48 218.50 200.27 212.00 C 199.81 206.31 203.71 200.67 209.19 199.06 Z" />
<path fill="#f1cd43" opacity="1.00" d=" M 203.29 228.01 C 209.39 231.08 216.60 231.06 222.71 228.01 C 230.06 240.88 237.53 253.68 244.91 266.53 C 225.58 277.84 200.42 277.84 181.09 266.53 C 188.46 253.68 195.94 240.88 203.29 228.01 Z" />
</g>
</svg>
