<svg xmlns="http://www.w3.org/2000/svg" width="192" height="192" viewBox="0 0 144 144"><path fill="#ffd570" d="M 3.76 55.07 C 9.44 22.10 44.02 -2.23 77.02 1.12 C 112.91 2.30 143.94 35.12 143.32 71.01 C 144.52 104.04 119.32 135.30 86.91 141.46 C 60.64 147.08 27.89 136.76 15.31 112.07 C 22.00 122.74 33.95 128.75 46.03 130.96 C 63.02 134.36 81.94 134.40 97.19 125.16 C 108.18 117.79 113.50 104.52 115.80 91.95 C 116.52 87.57 119.91 84.46 122.96 81.54 C 115.07 81.55 107.14 77.09 104.44 69.42 C 94.46 46.99 67.93 38.28 45.00 39.07 C 30.14 39.15 12.57 41.52 3.76 55.07 M 31.29 18.36 C 21.06 18.76 22.49 28.25 31.37 29.81 L 31.18 28.49 C 33.57 29.93 36.32 29.94 38.98 29.32 L 38.73 30.14 C 42.55 28.85 46.62 27.53 48.98 24.00 C 46.80 20.89 43.26 19.47 39.82 18.26 C 36.98 17.87 34.11 17.88 31.29 18.36 M 81.14 21.47 C 71.02 21.87 72.35 31.35 81.21 32.89 L 80.98 31.44 C 83.35 33.17 86.23 33.04 88.92 32.23 L 88.64 33.23 C 92.40 31.85 96.69 30.75 98.80 26.98 C 96.65 23.96 93.22 22.51 89.77 21.53 C 86.91 21.05 84.00 20.92 81.14 21.47 Z"/><g fill="#815310"><path d="M 31.29 18.36 C 34.11 17.88 36.98 17.87 39.82 18.26 C 40.30 21.97 40.30 25.78 38.98 29.32 C 36.32 29.94 33.57 29.93 31.18 28.49 C 30.47 25.14 30.76 21.71 31.29 18.36 M 35.23 22.41 C 32.65 27.10 38.65 24.66 35.23 22.41 Z"/><path d="M 81.14 21.47 C 84.00 20.92 86.91 21.05 89.77 21.53 C 89.95 25.12 90.09 28.78 88.92 32.23 C 86.23 33.04 83.35 33.17 80.98 31.44 C 80.29 28.14 80.63 24.77 81.14 21.47 M 85.25 29.90 C 86.25 27.89 86.13 25.76 85.41 23.71 C 84.47 25.69 84.16 27.89 85.25 29.90 Z"/><path d="M 3.76 55.07 C 12.57 41.52 30.14 39.15 45.00 39.07 C 67.93 38.28 94.46 46.99 104.44 69.42 C 107.14 77.09 115.07 81.55 122.96 81.54 C 119.91 84.46 116.52 87.57 115.80 91.95 C 113.50 104.52 108.18 117.79 97.19 125.16 C 81.94 134.40 63.02 134.36 46.03 130.96 C 33.95 128.75 22.00 122.74 15.31 112.07 C 15.36 108.74 15.90 105.43 17.43 102.44 C 24.67 131.74 62.45 132.08 86.11 126.08 C 105.73 120.91 109.05 99.52 115.72 83.66 C 111.09 82.06 105.91 80.22 103.37 75.69 C 88.25 40.27 36.84 32.84 7.56 54.06 C 7.58 56.71 7.58 59.37 7.66 62.02 C 6.28 59.75 5.01 57.42 3.76 55.07 Z"/><path d="M 18.45 55.92 C 37.68 49.81 59.43 52.78 77.63 60.90 C 78.06 67.41 77.42 74.19 79.78 80.42 C 83.71 76.03 84.27 70.01 85.75 64.56 C 104.22 71.91 111.76 98.01 95.90 111.93 C 93.61 109.29 91.66 106.38 89.79 103.43 C 92.61 98.61 97.71 94.02 97.14 88.05 C 95.63 82.42 88.81 82.75 84.42 84.38 C 83.48 84.41 82.54 84.40 81.61 84.36 C 70.27 77.47 59.65 88.89 50.66 94.67 C 44.49 97.89 38.74 108.02 46.19 112.87 C 58.68 116.87 74.52 117.71 85.22 108.88 C 86.15 111.63 86.92 114.44 87.64 117.26 C 72.89 121.60 56.90 120.01 42.03 117.00 C 31.56 115.71 28.70 103.78 20.95 98.20 C 27.54 92.33 34.27 86.35 42.78 83.42 C 33.74 79.28 24.69 75.02 16.47 69.36 C 17.36 64.92 17.79 60.40 18.45 55.92 M 22.52 57.82 C 22.06 59.61 21.69 61.44 22.29 63.26 C 32.10 64.06 42.48 63.83 51.38 59.12 C 41.96 62.62 31.78 60.96 22.52 57.82 M 27.97 100.05 C 29.18 101.27 30.43 102.45 31.74 103.56 C 37.01 96.08 43.83 88.98 53.08 86.86 C 43.37 87.82 35.02 93.70 27.97 100.05 Z"/></g><g fill="#fff"><path d="M 31.37 29.81 C 22.49 28.25 21.06 18.76 31.29 18.36 C 30.76 21.71 30.47 25.14 31.18 28.49 L 31.37 29.81 Z"/><path d="M 39.82 18.26 C 43.26 19.47 46.80 20.89 48.98 24.00 C 46.62 27.53 42.55 28.85 38.73 30.14 L 38.98 29.32 C 40.30 25.78 40.30 21.97 39.82 18.26 Z"/><path d="M 35.23 22.41 C 38.65 24.66 32.65 27.10 35.23 22.41 Z"/><path d="M 81.21 32.89 C 72.35 31.35 71.02 21.87 81.14 21.47 C 80.63 24.77 80.29 28.14 80.98 31.44 L 81.21 32.89 Z"/><path d="M 89.77 21.53 C 93.22 22.51 96.65 23.96 98.80 26.98 C 96.69 30.75 92.40 31.85 88.64 33.23 L 88.92 32.23 C 90.09 28.78 89.95 25.12 89.77 21.53 Z"/><path d="M 85.25 29.90 C 84.16 27.89 84.47 25.69 85.41 23.71 C 86.13 25.76 86.25 27.89 85.25 29.90 Z"/><path d="M 7.56 54.06 C 36.84 32.84 88.25 40.27 103.37 75.69 C 105.91 80.22 111.09 82.06 115.72 83.66 C 109.05 99.52 105.73 120.91 86.11 126.08 C 62.45 132.08 24.67 131.74 17.43 102.44 C 16.53 100.18 18.10 96.13 20.95 98.20 C 28.70 103.78 31.56 115.71 42.03 117.00 C 56.90 120.01 72.89 121.60 87.64 117.26 C 86.92 114.44 86.15 111.63 85.22 108.88 C 83.68 104.62 82.73 100.17 82.63 95.64 C 85.46 97.79 87.93 100.39 89.79 103.43 C 91.66 106.38 93.61 109.29 95.90 111.93 C 111.76 98.01 104.22 71.91 85.75 64.56 C 84.27 70.01 83.71 76.03 79.78 80.42 C 77.42 74.19 78.06 67.41 77.63 60.90 C 59.43 52.78 37.68 49.81 18.45 55.92 C 17.79 60.40 17.36 64.92 16.47 69.36 C 15.76 72.93 14.91 76.56 12.83 79.62 C 7.90 75.44 8.76 67.86 7.66 62.02 C 7.58 59.37 7.58 56.71 7.56 54.06 Z"/><path d="M 22.52 57.82 C 31.78 60.96 41.96 62.62 51.38 59.12 C 42.48 63.83 32.10 64.06 22.29 63.26 C 21.69 61.44 22.06 59.61 22.52 57.82 Z"/><path d="M 27.97 100.05 C 35.02 93.70 43.37 87.82 53.08 86.86 C 43.83 88.98 37.01 96.08 31.74 103.56 C 30.43 102.45 29.18 101.27 27.97 100.05 Z"/></g><path fill="#ff647c" d="M 50.66 94.67 C 59.65 88.89 70.27 77.47 81.61 84.36 C 76.69 90.05 68.76 94.00 67.29 101.97 C 73.24 96.37 79.58 90.99 84.42 84.38 C 88.81 82.75 95.63 82.42 97.14 88.05 C 97.71 94.02 92.61 98.61 89.79 103.43 C 87.93 100.39 85.46 97.79 82.63 95.64 C 82.73 100.17 83.68 104.62 85.22 108.88 C 74.52 117.71 58.68 116.87 46.19 112.87 C 38.74 108.02 44.49 97.89 50.66 94.67 Z"/><path fill="#fd294d" d="M 81.61 84.36 C 82.54 84.40 83.48 84.41 84.42 84.38 C 79.58 90.99 73.24 96.37 67.29 101.97 C 68.76 94.00 76.69 90.05 81.61 84.36 Z"/></svg>