<?xml version="1.0" encoding="UTF-8" ?>
<!DOCTYPE svg PUBLIC "-//W3C//DTD SVG 1.1//EN" "http://www.w3.org/Graphics/SVG/1.1/DTD/svg11.dtd">
<svg width="112pt" height="112pt" viewBox="0 0 112 112" version="1.1" xmlns="http://www.w3.org/2000/svg">
<g id="#ff9000ff">
<path fill="#ff9000" opacity="1.00" d=" M 98.02 3.06 C 100.99 3.05 103.96 3.01 106.93 3.03 C 106.05 7.51 105.63 12.07 104.81 16.57 C 106.90 16.42 109.00 16.30 111.11 16.27 C 110.73 18.90 110.25 21.51 109.82 24.12 C 107.84 24.33 105.86 24.45 103.88 24.53 C 102.70 32.75 101.11 40.96 100.89 49.27 C 102.72 49.33 104.54 49.27 106.36 49.15 C 106.02 51.70 105.79 54.27 105.42 56.82 C 101.68 57.49 97.46 58.52 94.05 56.23 C 91.40 53.79 91.97 49.89 92.23 46.68 C 93.31 39.46 93.85 32.16 95.13 24.97 C 93.71 24.97 92.30 24.97 90.89 24.96 C 91.17 22.31 91.56 19.67 92.12 17.07 C 93.39 17.07 94.67 17.07 95.94 17.07 C 96.76 12.42 97.15 7.70 98.02 3.06 Z" />
<path fill="#ff9000" opacity="1.00" d=" M 66.96 23.89 C 71.25 19.86 78.93 18.30 83.70 22.28 C 87.87 27.11 86.33 34.11 85.94 39.92 C 80.76 40.94 75.42 40.58 70.23 41.40 C 69.29 45.22 68.98 49.33 70.33 53.09 C 71.66 53.10 73.00 53.11 74.34 53.10 C 75.96 50.90 76.53 48.22 77.10 45.60 C 79.81 45.37 82.52 45.17 85.23 45.01 C 85.02 51.10 82.45 58.18 76.23 60.39 C 72.09 61.80 66.60 62.27 63.47 58.62 C 60.24 54.00 61.09 48.02 61.15 42.71 C 61.86 36.21 62.28 28.94 66.96 23.89 M 72.11 28.95 C 71.55 30.37 71.04 31.80 70.55 33.24 C 73.08 33.13 75.61 33.03 78.14 32.96 C 78.15 31.61 78.14 30.25 78.12 28.90 C 76.18 27.82 74.08 28.21 72.11 28.95 Z" />
<path fill="#ff9000" opacity="1.00" d=" M 37.05 26.88 C 40.60 23.24 46.08 22.31 50.93 23.25 C 53.67 24.20 55.69 26.81 56.24 29.62 C 57.24 33.85 56.80 38.25 56.61 42.55 C 51.29 43.00 46.04 44.01 40.69 44.09 C 40.24 47.92 38.84 52.43 41.47 55.78 C 46.01 57.82 47.63 51.88 47.45 48.50 C 50.34 48.08 53.25 47.91 56.15 47.60 C 55.58 53.26 53.96 59.83 48.48 62.68 C 44.28 64.61 38.55 65.51 34.83 62.13 C 31.30 57.91 32.03 52.09 31.99 46.98 C 31.91 40.07 32.37 32.41 37.05 26.88 M 42.06 32.06 C 41.59 33.47 41.14 34.88 40.71 36.30 C 43.41 36.11 46.11 35.88 48.77 35.32 C 48.19 33.90 48.30 31.99 46.95 31.00 C 45.22 30.61 43.63 31.49 42.06 32.06 Z" />
<path fill="#ff9000" opacity="1.00" d=" M 21.34 26.13 C 24.26 25.49 27.23 25.08 30.22 24.88 C 26.27 39.07 22.11 53.22 18.57 67.52 C 17.93 69.97 17.11 72.50 15.28 74.34 C 12.38 77.45 7.97 78.17 4.03 79.13 C 4.05 76.48 4.07 73.84 4.04 71.20 C 7.09 70.36 11.51 69.16 11.06 65.11 C 8.61 52.92 5.77 40.78 3.01 28.64 C 5.93 28.17 8.87 27.80 11.78 27.26 C 12.93 35.73 14.81 44.13 15.21 52.69 C 17.56 43.92 19.32 34.99 21.34 26.13 Z" />
<path fill="#ff9000" opacity="1.00" d=" M 16.43 80.36 C 41.76 71.62 68.38 66.73 95.11 65.22 C 98.10 64.54 100.12 66.97 101.97 68.86 C 101.97 70.23 101.98 71.60 101.97 72.98 C 100.43 74.38 99.02 76.24 96.82 76.57 C 69.67 78.21 42.58 83.19 16.91 92.31 C 14.05 93.34 12.00 90.49 10.06 88.91 C 10.03 87.53 10.01 86.15 10.00 84.78 C 11.78 82.84 13.81 81.05 16.43 80.36 Z" />
<path fill="#ff9000" opacity="1.00" d=" M 78.46 87.32 C 81.66 86.88 84.88 86.44 88.11 86.27 C 92.12 85.70 95.46 90.45 93.85 94.09 C 92.96 96.41 90.56 97.82 88.13 97.84 C 73.28 99.22 58.55 102.05 44.32 106.55 C 41.73 107.39 39.02 108.53 36.25 107.85 C 33.58 106.46 31.70 102.83 33.46 100.05 C 34.79 97.27 38.06 96.62 40.71 95.71 C 53.00 91.76 65.64 88.91 78.46 87.32 Z" />
</g>
</svg>
