<svg height="92pt" viewBox="0 0 128 92" width="128pt" xmlns="http://www.w3.org/2000/svg"><path d="m3.84 15.95c.3-6.72 6.44-12.5 13.17-12.39 30.99-.04 61.98-.01 92.96-.02 6.9-.27 13.39 5.62 13.59 12.55.07 5.61.08 11.22-.12 16.83-17.48-.04-34.95.15-52.43 0-1.98-5.12-3.88-10.26-5.92-15.36-1.76 5.14-3.57 10.25-5.36 15.37-18.61.09-37.23-.23-55.84.19-.1-5.72-.19-11.45-.05-17.17z" fill="#003893"/><path d="m65.09 17.56c2.04 5.1 3.94 10.24 5.92 15.36.84 2.21 1.69 4.41 2.53 6.62 8.21.05 16.42-.05 24.63.07-6.68 4.63-13.42 9.16-20.12 13.75 1.24 3.64 2.51 7.28 3.79 10.91 1.26 3.65 2.51 7.31 4.03 10.87-6.29-3.06-11.55-7.87-17.74-11.14-1.45-2-3.8-2.03-5.24 0-6.11 3.47-11.74 7.71-17.67 11.49 1.27-3.75 2.62-7.48 3.94-11.22 1.27-3.63 2.54-7.27 3.79-10.92-6.71-4.58-13.44-9.12-20.12-13.74 8.2-.12 16.41-.01 24.62-.07.75-2.21 1.52-4.41 2.28-6.61 1.79-5.12 3.6-10.23 5.36-15.37m-6.16 23.84c-6.63.12-13.26.03-19.88.04 5.38 3.88 11.03 7.38 16.36 11.33-2.23 5.86-4.21 11.8-6.29 17.7 5.42-3.52 10.86-7.04 16.11-10.8 5.75 3.28 11 7.35 16.65 10.8-2.09-5.9-4.06-11.84-6.29-17.68 5.33-3.97 10.98-7.48 16.38-11.35-6.64-.02-13.28.11-19.92-.06-2.21-5.88-4.45-11.74-6.69-17.61-2.63 5.66-4.2 11.79-6.43 17.63z" fill="#f8c719"/><path d="m58.93 41.4c2.23-5.84 3.8-11.97 6.43-17.63 2.24 5.87 4.48 11.73 6.69 17.61 6.64.17 13.28.04 19.92.06-5.4 3.87-11.05 7.38-16.38 11.35 2.23 5.84 4.2 11.78 6.29 17.68-5.65-3.45-10.9-7.52-16.65-10.8-5.25 3.76-10.69 7.28-16.11 10.8 2.08-5.9 4.06-11.84 6.29-17.7-5.33-3.95-10.98-7.45-16.36-11.33 6.62-.01 13.25.08 19.88-.04z" fill="#de0000"/><path d="m3.88 64.26c15.09.02 30.18-.01 45.28.01-1.32 3.74-2.67 7.47-3.94 11.22 5.93-3.78 11.56-8.02 17.67-11.49 1.73.32 3.5.31 5.24 0 6.19 3.27 11.45 8.08 17.74 11.14-1.52-3.56-2.77-7.22-4.03-10.87 13.88-.01 27.75 0 41.62 0-.02 4.22.04 8.44.01 12.66.1 6.61-5.8 12.65-12.41 12.73-31.37.04-62.75 0-94.13.02-6.82.21-13.03-5.88-13.04-12.68-.07-4.25.03-8.5-.01-12.74z" fill="#de0000"/><g fill="#fff"><path d="m3.89 33.12c18.61-.42 37.23-.1 55.84-.19-.76 2.2-1.53 4.4-2.28 6.61-8.21.06-16.42-.05-24.62.07 6.68 4.62 13.41 9.16 20.12 13.74-1.25 3.65-2.52 7.29-3.79 10.92-15.1-.02-30.19.01-45.28-.01 0-10.38-.01-20.76.01-31.14z"/><path d="m71.01 32.92c17.48.15 34.95-.04 52.43 0 .05 10.45.02 20.9.02 31.35-13.87 0-27.74-.01-41.62 0-1.28-3.63-2.55-7.27-3.79-10.91 6.7-4.59 13.44-9.12 20.12-13.75-8.21-.12-16.42-.02-24.63-.07-.84-2.21-1.69-4.41-2.53-6.62z"/><path d="m62.89 64c1.44-2.03 3.79-2 5.24 0-1.74.31-3.51.32-5.24 0z"/></g></svg>