<?xml version="1.0" encoding="UTF-8" ?>
<!DOCTYPE svg PUBLIC "-//W3C//DTD SVG 1.1//EN" "http://www.w3.org/Graphics/SVG/1.1/DTD/svg11.dtd">
<svg width="128pt" height="92pt" viewBox="0 0 128 92" version="1.1" xmlns="http://www.w3.org/2000/svg">
<g id="#003893ff">
<path fill="#003893" opacity="1.00" d=" M 3.84 15.95 C 4.14 9.23 10.28 3.45 17.01 3.56 C 48.00 3.52 78.99 3.55 109.97 3.54 C 116.87 3.27 123.36 9.16 123.56 16.09 C 123.63 21.70 123.64 27.31 123.44 32.92 C 105.96 32.88 88.49 33.07 71.01 32.92 C 69.03 27.80 67.13 22.66 65.09 17.56 C 63.33 22.70 61.52 27.81 59.73 32.93 C 41.12 33.02 22.50 32.70 3.89 33.12 C 3.79 27.40 3.70 21.67 3.84 15.95 Z" />
</g>
<g id="#f8c719ff">
<path fill="#f8c719" opacity="1.00" d=" M 65.09 17.56 C 67.13 22.66 69.03 27.80 71.01 32.92 C 71.85 35.13 72.70 37.33 73.54 39.54 C 81.75 39.59 89.96 39.49 98.17 39.61 C 91.49 44.24 84.75 48.77 78.05 53.36 C 79.29 57.00 80.56 60.64 81.84 64.27 C 83.10 67.92 84.35 71.58 85.87 75.14 C 79.58 72.08 74.32 67.27 68.13 64.00 C 66.68 62.00 64.33 61.97 62.89 64.00 C 56.78 67.47 51.15 71.71 45.22 75.49 C 46.49 71.74 47.84 68.01 49.16 64.27 C 50.43 60.64 51.70 57.00 52.95 53.35 C 46.24 48.77 39.51 44.23 32.83 39.61 C 41.03 39.49 49.24 39.60 57.45 39.54 C 58.20 37.33 58.97 35.13 59.73 32.93 C 61.52 27.81 63.33 22.70 65.09 17.56 M 58.93 41.40 C 52.30 41.52 45.67 41.43 39.05 41.44 C 44.43 45.32 50.08 48.82 55.41 52.77 C 53.18 58.63 51.20 64.57 49.12 70.47 C 54.54 66.95 59.98 63.43 65.23 59.67 C 70.98 62.95 76.23 67.02 81.88 70.47 C 79.79 64.57 77.82 58.63 75.59 52.79 C 80.92 48.82 86.57 45.31 91.97 41.44 C 85.33 41.42 78.69 41.55 72.05 41.38 C 69.84 35.50 67.60 29.64 65.36 23.77 C 62.73 29.43 61.16 35.56 58.93 41.40 Z" />
</g>
<g id="#de0000ff">
<path fill="#de0000" opacity="1.00" d=" M 58.93 41.40 C 61.16 35.56 62.73 29.43 65.36 23.77 C 67.60 29.64 69.84 35.50 72.05 41.38 C 78.69 41.55 85.33 41.42 91.97 41.44 C 86.57 45.31 80.92 48.82 75.59 52.79 C 77.82 58.63 79.79 64.57 81.88 70.47 C 76.23 67.02 70.98 62.95 65.23 59.67 C 59.98 63.43 54.54 66.95 49.12 70.47 C 51.20 64.57 53.18 58.63 55.41 52.77 C 50.08 48.82 44.43 45.32 39.05 41.44 C 45.67 41.43 52.30 41.52 58.93 41.40 Z" />
<path fill="#de0000" opacity="1.00" d=" M 3.88 64.26 C 18.97 64.28 34.06 64.25 49.16 64.27 C 47.84 68.01 46.49 71.74 45.22 75.49 C 51.15 71.71 56.78 67.47 62.89 64.00 C 64.62 64.32 66.39 64.31 68.13 64.00 C 74.32 67.27 79.58 72.08 85.87 75.14 C 84.35 71.58 83.10 67.92 81.84 64.27 C 95.72 64.26 109.59 64.27 123.46 64.27 C 123.44 68.49 123.50 72.71 123.47 76.93 C 123.57 83.54 117.67 89.58 111.06 89.66 C 79.69 89.70 48.31 89.66 16.93 89.68 C 10.11 89.89 3.90 83.80 3.89 77.00 C 3.82 72.75 3.92 68.50 3.88 64.26 Z" />
</g>
<g id="#ffffffff">
<path fill="#ffffff" opacity="1.00" d=" M 3.89 33.12 C 22.50 32.70 41.12 33.02 59.73 32.93 C 58.97 35.13 58.20 37.33 57.45 39.54 C 49.24 39.60 41.03 39.49 32.83 39.61 C 39.51 44.23 46.24 48.77 52.95 53.35 C 51.70 57.00 50.43 60.64 49.16 64.27 C 34.06 64.25 18.97 64.28 3.88 64.26 C 3.88 53.88 3.87 43.50 3.89 33.12 Z" />
<path fill="#ffffff" opacity="1.00" d=" M 71.01 32.92 C 88.49 33.07 105.96 32.88 123.44 32.92 C 123.49 43.37 123.46 53.82 123.46 64.27 C 109.59 64.27 95.72 64.26 81.84 64.27 C 80.56 60.64 79.29 57.00 78.05 53.36 C 84.75 48.77 91.49 44.24 98.17 39.61 C 89.96 39.49 81.75 39.59 73.54 39.54 C 72.70 37.33 71.85 35.13 71.01 32.92 Z" />
<path fill="#ffffff" opacity="1.00" d=" M 62.89 64.00 C 64.33 61.97 66.68 62.00 68.13 64.00 C 66.39 64.31 64.62 64.32 62.89 64.00 Z" />
</g>
</svg>
