<svg xmlns="http://www.w3.org/2000/svg" width="128pt" height="128pt" viewBox="0 0 128 128"><path fill="#ec1c24" d="M18.06 16.14c5.48-2.78 10.59-6.87 16.91-7.43 1.21 1.99 2.84 3.91 3.09 6.31.29 2.2-.91 4.18-1.88 6.05-4.46 7.88-9.13 15.63-13.68 23.46-4.2 7.3-8.66 14.65-10.88 22.84-.93 2.59 1.06 6.12-1.27 8.03C6.57 73.55 1.71 72.24 0 67.95V65.8c2.86-17.81 15.13-31.76 25.12-46.07-4.49 1.69-8.89 3.68-13.53 4.93-.37-4.3 2.99-6.92 6.47-8.52zm81.03-5.83c14.43 3.26 25.84 17.79 24.67 32.74.02 4.07-1.59 7.9-3.65 11.33 1.64 1.56 3.4 3.03 4.83 4.79.62 2.07-1.63 3.18-2.83 4.41-1.89-1.85-3.78-3.7-5.7-5.52-9.16 6.07-20.34.17-27.79-5.94-.15 1.38-.19 2.76-.37 4.14-.59.04-1.75.14-2.33.19-1.19 4.04-2.73 8.45-7.03 10.09-3.2-4.96 2.17-8.75 5.43-11.66-.05-.59-.16-1.78-.21-2.38 1.54-1.01 2.92-2.22 4.21-3.53 7 3.07 15.02 6.22 22.59 3.18-6.52-6.75-12.97-13.57-19.29-20.51-1.62 1.97-3.18 3.98-4.67 6.04-1.61-1.69-3.23-3.38-4.86-5.04 3.35-4.15 6.6-8.38 9.93-12.55 2.57.32 5.13.73 7.66 1.32-2.01 2.51-4.02 5.02-6.01 7.55 6.96 6.61 13.97 13.18 20.68 20.05 2.81-4.78 2.63-10.64 1.33-15.85-2.54-9.24-8.09-18.08-16.59-22.85zm-48.76 1.71c11.04 2.96 20.62 11.66 23.69 22.81 2.26 7.05 1.65 15.18-2.58 21.38 1.71 1.68 3.42 3.36 5.16 5.02-.48 1.82-1.64 3.23-3.19 4.25-1.84-1.81-3.65-3.63-5.46-5.47-4.5 2.87-10.19 3.26-15.16 1.43-4.87-1.49-8.91-4.68-13.24-7.23 1.03 2.27 0 4.11-2.42 4.44-1.05 4.07-2.76 8.5-7.17 9.88-.79-2.05-1.22-4.5.2-6.4 1.58-1.89 3.55-3.4 5.27-5.16-.38-1.87.25-3.32 2.13-3.84.5-.6 1.5-1.78 2.01-2.37 6.93 3.28 14.98 6.16 22.59 3.39-6.36-6.95-13-13.64-19.23-20.72-1.52 2.04-3.06 4.06-4.6 6.08-1.64-1.62-3.28-3.23-4.95-4.82 3.36-4.23 6.62-8.54 10.07-12.7 2.57.41 5.14.85 7.7 1.32-2.14 2.48-4.15 5.07-6.19 7.63 7.17 6.4 13.92 13.25 20.89 19.86 3.35-6.29 2.24-13.81-.29-20.18-2.92-7.62-8.17-14.42-15.23-18.6zm-32.66 68.7c13.59-8.08 29.6-11.17 45.26-11.31 14.05-.21 28.24.38 41.98 3.57 3.99 1.21 8.93 2.25 11.01 6.3 1.02 2.19-1.16 4.23-3.08 4.84-4.41.78-8.67-1.12-13.01-1.56-17.42-2.5-35.28-2.72-52.68.1-7.41 1.2-14.61 3.57-21.24 7.1.67 2.58-2.18 3.49-4 4.34-3.59 1.12-8.3.46-10.17-3.19-1.51-4.5 2.58-8.01 5.93-10.19zm53.36 8.92c11.92-.74 23.9-.66 35.78.54 4.48.76 9.21 1.28 13.18 3.67 2.06 1.08 3.3 3.8 1.93 5.9-1.92 2.28-5.13 2.77-7.94 2.39-11.61-1.29-23.33-1.94-35-1.04-19.88 1.16-40.43 3.85-57.97 13.94.2.47.59 1.41.79 1.88-2.89 2.08-6.14 4.17-9.88 3.72-3.53.3-7.44-2.76-6.69-6.53 1.07-4.34 5.07-6.99 8.6-9.28 17.21-10.27 37.39-14.28 57.2-15.19z"/></svg>