<svg height="1108pt" viewBox="0 0 692 1108" width="692pt" xmlns="http://www.w3.org/2000/svg"><g fill="#fff"><path d="m345.59 0h.87c40.25 31.91 77.66 67.27 113.57 103.95 47.1 49.09 91.1 101.41 128.73 158.17 39.92 60.21 73.25 125.72 90.65 196.15-.09.57-.26 1.72-.34 2.29-4.29-13.36-8.5-26.78-14.1-39.67-14.85-35.29-35.68-68.04-61.28-96.51-25.45-28.45-55.79-52.45-89.09-71.08-45.12-25.18-95.99-39.88-147.57-42.89-60.83-3.68-122.7 8.75-177.05 36.45-62.04 31.17-114.21 81.56-147.38 142.56-21.6 39.31-35.33 82.96-39.7 127.6-.86 6.39-.88 12.85-1.86 19.23 2.64-58.75 18.67-116.3 42.15-170.02 26.53-60.31 62.42-116.11 102.95-167.91 17.44-22.14 35.56-43.77 54.81-64.35 8.41-9.59 17.61-18.43 26.17-27.87 37.33-37.66 76.45-73.67 118.47-106.1m-85.18 145.53c-3.59 1.57-7.02 4.51-7.69 8.56-.98 3.33 1.01 6.61 2.95 9.18 4.74 4.45 11.71 3.68 17.47 2.1-.75-3.16-.7-6.45.09-9.6-2.27.08-4.52-.09-6.76-.37l-.84 1.28c1.37.09 2.71.32 4.03.69.32 2.6.94 5.77-1.38 7.63-2.71-.14-5.69.51-8.07-1.14-6.24-3.48-6.31-14.63.89-17.08 3.89-2.01 8.2.48 10.65 3.57-.03-.71-.1-2.13-.13-2.84l-.76-2.29c-3.49.16-7.05-.86-10.45.31m28.27-.12c.53.81 1.35 1.32 2.2 1.75.03 5.64.17 11.28-.02 16.91-.74 1.05-1.94 1.63-2.89 2.47 4.99.23 9.94-.9 14.9.1 3.2.15 3.12-3.74 3.2-5.96-.82 1.01-1.58 2.07-2.3 3.15-3.02 1.8-6.61.99-9.93 1.13-.26-2.9-.24-5.81-.06-8.71 2.35-.04 4.69-.12 7.04-.15.68 1.17 1.39 2.33 2.12 3.48.13-2.32.09-4.65.07-6.97-1.98 3.35-6.12 2.15-9.34 2.6-.03-2.87-.01-5.74.03-8.61 3.16.56 9.56-1.96 9.6 2.99 1.83-.98 1.18-3.03 1.04-4.68-5.17.92-10.45.26-15.66.5m37.72-.04c-2.23 1.38-4.63 2.75-5.94 5.13-2.23 3.35-1.67 7.64-.3 11.22 2.18 2.16 4.48 4.53 7.66 5.02 7.62 2.08 15.41-6.26 12.96-13.75-1.74-5.94-8.53-9.3-14.38-7.62m27.99.16c-.18.24-.55.72-.73.96l2.32.16c.02 5.84.02 11.68.02 17.52-.89.74-1.77 1.48-2.64 2.24 2.51.24 5.04.23 7.56.16-2.82-2.49-2.51-6.63-2.17-10.04l2.31-.48c2.89 2.42 3.99 6.41 7.04 8.72 1.77 1.55 4.01 2.43 6.28 2.96.23-.28.7-.85.93-1.14-5.17-1.39-7.59-6.43-10.41-10.47 1.84-1.2 4.47-2.49 4.23-5.12.16-2.51-1.74-4.86-4.11-5.51-3.45-1.15-7.1-.13-10.63.04m32.9 7.51c-1.43 4.64 1.08 10.12 5.46 12.17 4.57 2.36 9.9 1.25 14.69.23-.5-3.24-.92-6.69.36-9.82-2.59.43-5.18.03-7.76-.21.37 1.67 2.34 1.39 3.63 1.87.62 2.17.21 4.5.32 6.73-4.84 2.51-11.63.57-13.39-4.89-3.66-6.34 3.58-15.32 10.47-12.48 2.25.4 3.58 2.33 5.05 3.87-.04-1.81-.37-3.58-.83-5.32-3.17.28-6.39-.76-9.52.13-3.91.84-7.38 3.83-8.48 7.72m35.62-7.08c.49.23 1.47.71 1.96.94.25 5.91.12 11.84.06 17.76-.93.47-1.7 1.13-2.31 1.97 4.82-.03 9.6-.89 14.41 0 3.06.3 3.05-3.65 3.58-5.66-1.44 1.18-2.58 2.74-4.17 3.71-2.76.57-5.61.19-8.4.28-.02-2.9-.03-5.8.08-8.69 3.08.41 8.4-1.8 8.55 3.01 1.4-1.59 1.32-5.05-.18-6.66l-.7 2.07c-2.59.27-5.18.31-7.76.52 0-2.88 0-5.76.01-8.64 2.6.02 5.21-.11 7.82.1.94.85 1.86 1.77 2.72 2.73.06-1.46.11-2.92.14-4.38-5.22.96-10.71-.44-15.81.94z"/><path d="m359.47 146.6c3.81-2.62 9.06 3.46 6.04 7.07-1.47 2.14-4.29 1.51-6.49 1.62.25-2.86-.59-6.04.45-8.69zm-33.35.53c7.43-3.04 14.25 5.98 11.83 12.84-.83 4.95-7.21 6.99-11.16 4.3-6.1-3.2-7.49-14.01-.67-17.14zm17.22 332.34c10.26-12.93 30.77-15.15 44.27-6.19 9.29 5.64 15.02 17.46 11.93 28.16-2.8 11.57-11.44 20.56-21.01 27.09 4.87 4.47 10.99 7.47 15.25 12.64 7.12 8.33 13.79 18.41 13.45 29.81.2 9.45-4.8 18.39-11.76 24.54-14.87 13.32-39.67 13.75-54.99.95-9.02-7.54-12.48-20.54-9.12-31.7 1.21-5.72 5.19-10.21 8.73-14.64 6.29-6.53 14.65-10.38 22.06-15.41-9.51-6.41-20.05-13.39-24.23-24.61-3.41-10.26-1.4-22.21 5.42-30.64m8.39-3.57c-5.18 4.07-7.33 10.77-7.83 17.13.45 6.91 4.64 12.91 9.53 17.53 6.11 6.54 13.78 11.26 21.32 15.93 5.94-3.82 12.1-8.69 13.67-15.97 1.74-5.19.03-10.58-1.36-15.62-2.31-7.2-5.11-14.85-11.5-19.44-6.93-4.84-17.15-4.98-23.83.44m.44 71.24c-5.75 5.29-8.82 13.08-9.05 20.81.29 11.74 6.84 22.91 16.59 29.32 4.52 2.88 9.8 4.93 15.25 4.52 7.01.44 13.67-3.99 16.85-10.09 5.47-10.16 4.54-22.9-.89-32.88-5.29-9.86-15.18-15.87-24.82-20.82-5.01 2.41-9.89 5.29-13.93 9.14zm126.32-37.03c.58.2 1.74.58 2.33.77-2.13 14.93-.99 30.05-2.1 45.05.33 12.01-.68 24.1.63 36.07 7.31-1.39 15.62.82 22.11-3.65 2.47-1.34 3.17-4.48 5.71-5.71.65 1.74.45 3.58-.46 5.2-2.17 4.45-4.49 8.83-6.29 13.45-7.09.31-14.15-.95-21.19.05-.09 12.59.24 25.18.89 37.74-1.79 1.96-4.74 2.4-6.81 4.08-3.57 2.08-6.08 5.47-9.33 7.91-.38-.01-1.12-.04-1.5-.06 3.53-9.87 5.88-20.46 4.64-30.97-.22-6.28.07-12.56-.14-18.83-8.31.12-16.62.1-24.9-.5-11.05.57-22.71-1.63-33.22 2.75-1.78-.74-3.02-2.67-1.72-4.47 17.39-19.25 33.75-39.43 50.75-59.03 6.12-7.64 11.37-15.94 17.39-23.66 1.5-1.81 2.69-3.87 3.21-6.19m-20.32 35.9c-13.02 15.25-25.78 30.72-38.93 45.86 15.91.74 31.79-.79 47.71-.3.12-5.21.37-10.44-.32-15.62-.43-7.95.26-15.94-.39-23.88-.24-5.05-1.27-10.03-1.29-15.1-2.59 2.76-4.23 6.24-6.78 9.04zm-268.07-28.44c13.45.78 26.63-2.37 39.86-4.06-.1.6-.31 1.81-.41 2.42-3.76 2.95-10 4.38-10.58 9.96-1.19 9.31-1.52 18.71-2.39 28.05.33 11.54-1.02 23.05-.31 34.59.03 3.56 2.34 7.01 5.76 8.14 3.99.23 7.99.52 11.98.81-.25 1.39.01 3.12-1.3 4.06-3.94.7-7.84-.23-11.71-.79-10.64-.03-21.32-.39-31.89 1.02.05-.94.17-2.83.22-3.78 4.07-.97 9.25.11 12.21-3.49 2.63-3.54 2.97-8.22 2.82-12.49-.3-6.03.8-12.01.47-18.04-.28-13.03.59-26.1-.5-39.09-3.79-3.59-9.4-3.17-14.19-4.14zm65.82 11.29c7.07-4.71 15.46-7.87 24.06-7.47 11.89-.64 23.44 5.72 30.31 15.25 11.28 15.16 12.13 35.44 8.82 53.4-3.03 16.72-12.13 32.01-24.47 43.56-12.23 13.12-29.61 19.46-46.44 24.29-.02-1.16-.03-2.32-.03-3.46 14.61-6.34 29.28-14.04 39.7-26.41 9.16-11.36 15.94-24.8 18.55-39.22 2.89-14.29 1.93-29.85-5.22-42.79-4.61-8.67-12.3-16.2-22.02-18.65-7.14-1.94-14.96.48-20.34 5.39-5.25 5.1-8.48 12.02-9.59 19.21-1.21 9.17-.45 18.78 3.52 27.25 3.93 8.9 12.45 15.94 22.24 17.12 5.1.39 10.39.06 15.11-2.09 3.23-1.38 5.67-4.04 8.87-5.46.97 2.39-1.22 4.03-2.72 5.5-7.25 6.34-16.47 11.32-26.35 10.92-9.88.19-18.89-5.68-24.79-13.25-5.7-7.7-8.74-17.34-8.43-26.91.2-14.2 7.57-28.06 19.22-36.18z"/><path d="m4.26 608.09.55 1.02c1.74 6.16 2.24 12.61 3.78 18.83 9.25 42.07 26.54 82.32 50.63 118.01 41.63 61.82 103.74 109.62 174.36 133.58 57.68 19.81 120.61 24 180.4 11.98 65.31-12.6 126.45-45.12 174.02-91.54 45.69-44.54 78.89-101.97 93.8-164.08.37-1.59.52-3.22.53-4.84.45-1.52.28-3.77 2.26-4.1-5.08 24.62-11.75 48.93-20.27 72.58-21.63 59.4-53.02 114.83-89.27 166.47-53.57 75.83-117.06 144.33-186.09 206.28-13.98 12.11-27.8 24.48-42.49 35.72h-.82c-32.4-23.01-62.86-48.68-92.21-75.44-17.61-16.03-34.21-33.12-50.97-50.02-46.5-49.17-88.88-102.58-123-161.13-34.92-59.62-61.21-124.89-72.57-193.24-.69-6.73-2.56-13.29-2.64-20.08m255.28 337.58c-4.75 1.45-7.85 6.55-7.33 11.43.19 4.27 3.85 7.65 7.57 9.21 6.81 2.87 14.84-3.16 14.88-10.32.11-7.34-8.3-13.19-15.12-10.32m28.04-.09c.76.56 1.54 1.13 2.31 1.71.05 5.31.09 10.62.01 15.93-.6 1.25-1.68 2.19-2.46 3.34 2.39.03 4.79.02 7.19 0-2.36-2.47-3.04-6.21-2.29-9.44.85-1.77 3.46-1.32 4.11.38 2.59 4.61 6.15 8.95 11.51 10.32.19-.32.56-.97.75-1.29-4.8-1.66-7.16-6.31-9.75-10.28 1.16-.98 2.65-1.69 3.36-3.08 1.86-2.65.06-6.54-2.83-7.51-3.84-1.53-7.95-.12-11.91-.08m30.1-.59c1.22.97 2.89 1.55 3.65 3 2.68 6.27 4.25 13.02 7.02 19.22 1.86-4.69 3.45-9.54 6.07-13.87 1.92 4.49 2.85 9.4 5.04 13.74.54-1.72 1.08-3.44 1.93-5.02-.57-.73-1.19-1.42-1.79-2.09-1.45-4.32-3.35-8.5-4.52-12.91.87-.73 1.77-1.42 2.7-2.07-2.74-.04-5.47-.03-8.2-.05 1.76 1.69 3.07 3.75 4.06 5.98-1.43 3.01-2.64 6.11-4.04 9.14-.29-.09-.85-.27-1.13-.36-1.66-3.86-3.1-7.83-4.28-11.85-.76-1.64 1.65-1.96 2.43-2.85-2.98-.06-5.96-.07-8.94-.01m23.37.26c1.23.73 3.34.79 3.42 2.64-.9 3.71-2.1 7.37-3.76 10.83.36.72.73 1.44 1.11 2.18 1.25-4.34 2.79-8.59 4.43-12.78.45-1.62 2.26-2.08 3.35-3.13-2.85-.04-5.73-.22-8.55.26m21.77.24c.69.6 1.38 1.2 2.08 1.8.03 5.79.16 11.59-.09 17.39l-2.36 1.08.48.92c4.38-.04 8.74-1.16 13.09-.1 3.19.72 4.42-3.28 3.87-5.73-.75.97-1.46 1.96-2.13 3-3.1 1.49-6.59 1.05-9.91 1.04-.27-2.93-.27-5.87.01-8.79 2.16-.02 4.34-.11 6.51.02 1.38.38 1.55 2.22 2.48 3.16.21-2.18.19-4.37.16-6.54-.79.7-1.56 1.41-2.33 2.14-2.3.01-4.59.05-6.88.12-.19-2.78-.19-5.57-.05-8.35 3.31.44 9.03-1.91 9.85 2.86 1.25-1.28.95-3.01.81-4.61-5.15.9-10.39.29-15.59.59m30.92-.11c.67.86 1.41 1.67 2.02 2.6.31 4.69.09 9.4.13 14.1.39 1.86-1.56 2.76-2.56 3.95 5.35.03 10.73-.3 16.05.45 1.28-1.36 1.11-3.52 1.59-5.23-2.82 3.92-7.84 3.18-12.06 3.16-2.05-4.96.38-10.24-.3-15.38-.55-1.85 1.49-2.55 2.53-3.57-2.47-.05-4.94-.07-7.4-.08m30.03.12c.71.61 1.44 1.22 2.18 1.83.08 5.47.05 10.96.02 16.44-.77.73-1.53 1.47-2.28 2.23 5.35.23 10.78-.52 16.06.6a21.6 21.6 0 0 0 1.52-5.25c-.89.81-1.76 1.65-2.6 2.52-3.17.7-6.43.64-9.63.33-1.01-5.63.42-11.32.03-16.99.76-.56 1.5-1.13 2.23-1.71-2.51-.16-5.02-.11-7.53 0z"/><path d="m292.82 947.06c3.41-3.55 9.73 2.57 6.5 6.25-1.39 2.36-4.21 1.72-6.49 1.65-.13-2.63-.35-5.29-.01-7.9zm-33.78.16c5.6-2.64 11.81 2.16 12.51 7.85 1.34 5.08-2.83 11.41-8.49 10.22-8.13-1.1-11.22-13.89-4.02-18.07z"/></g><g fill="#231f20"><path d="m260.41 145.53c3.4-1.17 6.96-.15 10.45-.31l.76 2.29c.03.71.1 2.13.13 2.84-2.45-3.09-6.76-5.58-10.65-3.57-7.2 2.45-7.13 13.6-.89 17.08 2.38 1.65 5.36 1 8.07 1.14 2.32-1.86 1.7-5.03 1.38-7.63-1.32-.37-2.66-.6-4.03-.69l.84-1.28c2.24.28 4.49.45 6.76.37-.79 3.15-.84 6.44-.09 9.6-5.76 1.58-12.73 2.35-17.47-2.1-1.94-2.57-3.93-5.85-2.95-9.18.67-4.05 4.1-6.99 7.69-8.56zm28.27-.12c5.21-.24 10.49.42 15.66-.5.14 1.65.79 3.7-1.04 4.68-.04-4.95-6.44-2.43-9.6-2.99-.04 2.87-.06 5.74-.03 8.61 3.22-.45 7.36.75 9.34-2.6.02 2.32.06 4.65-.07 6.97-.73-1.15-1.44-2.31-2.12-3.48-2.35.03-4.69.11-7.04.15-.18 2.9-.2 5.81.06 8.71 3.32-.14 6.91.67 9.93-1.13.72-1.08 1.48-2.14 2.3-3.15-.08 2.22 0 6.11-3.2 5.96-4.96-1-9.91.13-14.9-.1.95-.84 2.15-1.42 2.89-2.47.19-5.63.05-11.27.02-16.91-.85-.43-1.67-.94-2.2-1.75zm37.72-.04c5.85-1.68 12.64 1.68 14.38 7.62 2.45 7.49-5.34 15.83-12.96 13.75-3.18-.49-5.48-2.86-7.66-5.02-1.37-3.58-1.93-7.87.3-11.22 1.31-2.38 3.71-3.75 5.94-5.13m-.28 1.76c-6.82 3.13-5.43 13.94.67 17.14 3.95 2.69 10.33.65 11.16-4.3 2.42-6.86-4.4-15.88-11.83-12.84zm28.27-1.6c3.53-.17 7.18-1.19 10.63-.04 2.37.65 4.27 3 4.11 5.51.24 2.63-2.39 3.92-4.23 5.12 2.82 4.04 5.24 9.08 10.41 10.47-.23.29-.7.86-.93 1.14-2.27-.53-4.51-1.41-6.28-2.96-3.05-2.31-4.15-6.3-7.04-8.72l-2.31.48c-.34 3.41-.65 7.55 2.17 10.04-2.52.07-5.05.08-7.56-.16.87-.76 1.75-1.5 2.64-2.24 0-5.84 0-11.68-.02-17.52l-2.32-.16c.18-.24.55-.72.73-.96m5.08 1.07c-1.04 2.65-.2 5.83-.45 8.69 2.2-.11 5.02.52 6.49-1.62 3.02-3.61-2.23-9.69-6.04-7.07zm27.82 6.44c1.1-3.89 4.57-6.88 8.48-7.72 3.13-.89 6.35.15 9.52-.13.46 1.74.79 3.51.83 5.32-1.47-1.54-2.8-3.47-5.05-3.87-6.89-2.84-14.13 6.14-10.47 12.48 1.76 5.46 8.55 7.4 13.39 4.89-.11-2.23.3-4.56-.32-6.73-1.29-.48-3.26-.2-3.63-1.87 2.58.24 5.17.64 7.76.21-1.28 3.13-.86 6.58-.36 9.82-4.79 1.02-10.12 2.13-14.69-.23-4.38-2.05-6.89-7.53-5.46-12.17zm35.62-7.08c5.1-1.38 10.59.02 15.81-.94-.03 1.46-.08 2.92-.14 4.38-.86-.96-1.78-1.88-2.72-2.73-2.61-.21-5.22-.08-7.82-.1-.01 2.88-.01 5.76-.01 8.64 2.58-.21 5.17-.25 7.76-.52l.7-2.07c1.5 1.61 1.58 5.07.18 6.66-.15-4.81-5.47-2.6-8.55-3.01-.11 2.89-.1 5.79-.08 8.69 2.79-.09 5.64.29 8.4-.28 1.59-.97 2.73-2.53 4.17-3.71-.53 2.01-.52 5.96-3.58 5.66-4.81-.89-9.59-.03-14.41 0 .61-.84 1.38-1.5 2.31-1.97.06-5.92.19-11.85-.06-17.76-.49-.23-1.47-.71-1.96-.94zm-86.9 216.98c7.29-.6 14.69-.72 21.96.14 41.43 2.12 81.91 18.59 113.34 45.62 25.79 22.06 45.73 51.01 56.65 83.18 4.85 14.28 8.08 29.11 9.52 44.12.42 15.67 1.15 31.5-1.42 47.04-6.01 40.14-25.34 78.17-54.32 106.61-39.35 39.71-96.92 60.31-152.51 54.99-39.43-3.26-77.75-19.22-107.8-45-27.47-23.12-47.95-54.29-58.76-88.5-12.05-39.23-11.39-82.36 2.29-121.08 13.67-38.79 40.35-72.79 74.69-95.42 28.45-19.03 62.19-30.05 96.36-31.7m7.33 116.53c-6.82 8.43-8.83 20.38-5.42 30.64 4.18 11.22 14.72 18.2 24.23 24.61-7.41 5.03-15.77 8.88-22.06 15.41-3.54 4.43-7.52 8.92-8.73 14.64-3.36 11.16.1 24.16 9.12 31.7 15.32 12.8 40.12 12.37 54.99-.95 6.96-6.15 11.96-15.09 11.76-24.54.34-11.4-6.33-21.48-13.45-29.81-4.26-5.17-10.38-8.17-15.25-12.64 9.57-6.53 18.21-15.52 21.01-27.09 3.09-10.7-2.64-22.52-11.93-28.16-13.5-8.96-34.01-6.74-44.27 6.19m135.15 30.64c-.52 2.32-1.71 4.38-3.21 6.19-6.02 7.72-11.27 16.02-17.39 23.66-17 19.6-33.36 39.78-50.75 59.03-1.3 1.8-.06 3.73 1.72 4.47 10.51-4.38 22.17-2.18 33.22-2.75 8.28.6 16.59.62 24.9.5.21 6.27-.08 12.55.14 18.83 1.24 10.51-1.11 21.1-4.64 30.97.38.02 1.12.05 1.5.06 3.25-2.44 5.76-5.83 9.33-7.91 2.07-1.68 5.02-2.12 6.81-4.08-.65-12.56-.98-25.15-.89-37.74 7.04-1 14.1.26 21.19-.05 1.8-4.62 4.12-9 6.29-13.45.91-1.62 1.11-3.46.46-5.2-2.54 1.23-3.24 4.37-5.71 5.71-6.49 4.47-14.8 2.26-22.11 3.65-1.31-11.97-.3-24.06-.63-36.07 1.11-15-.03-30.12 2.1-45.05-.59-.19-1.75-.57-2.33-.77m-288.39 7.46.04 3.17c4.79.97 10.4.55 14.19 4.14 1.09 12.99.22 26.06.5 39.09.33 6.03-.77 12.01-.47 18.04.15 4.27-.19 8.95-2.82 12.49-2.96 3.6-8.14 2.52-12.21 3.49-.05.95-.17 2.84-.22 3.78 10.57-1.41 21.25-1.05 31.89-1.02 3.87.56 7.77 1.49 11.71.79 1.31-.94 1.05-2.67 1.3-4.06-3.99-.29-7.99-.58-11.98-.81-3.42-1.13-5.73-4.58-5.76-8.14-.71-11.54.64-23.05.31-34.59.87-9.34 1.2-18.74 2.39-28.05.58-5.58 6.82-7.01 10.58-9.96.1-.61.31-1.82.41-2.42-13.23 1.69-26.41 4.84-39.86 4.06m65.82 11.29c-11.65 8.12-19.02 21.98-19.22 36.18-.31 9.57 2.73 19.21 8.43 26.91 5.9 7.57 14.91 13.44 24.79 13.25 9.88.4 19.1-4.58 26.35-10.92 1.5-1.47 3.69-3.11 2.72-5.5-3.2 1.42-5.64 4.08-8.87 5.46-4.72 2.15-10.01 2.48-15.11 2.09-9.79-1.18-18.31-8.22-22.24-17.12-3.97-8.47-4.73-18.08-3.52-27.25 1.11-7.19 4.34-14.11 9.59-19.21 5.38-4.91 13.2-7.33 20.34-5.39 9.72 2.45 17.41 9.98 22.02 18.65 7.15 12.94 8.11 28.5 5.22 42.79-2.61 14.42-9.39 27.86-18.55 39.22-10.42 12.37-25.09 20.07-39.7 26.41 0 1.14.01 2.3.03 3.46 16.83-4.83 34.21-11.17 46.44-24.29 12.34-11.55 21.44-26.84 24.47-43.56 3.31-17.96 2.46-38.24-8.82-53.4-6.87-9.53-18.42-15.89-30.31-15.25-8.6-.4-16.99 2.76-24.06 7.47z"/><path d="m351.73 475.9c6.68-5.42 16.9-5.28 23.83-.44 6.39 4.59 9.19 12.24 11.5 19.44 1.39 5.04 3.1 10.43 1.36 15.62-1.57 7.28-7.73 12.15-13.67 15.97-7.54-4.67-15.21-9.39-21.32-15.93-4.89-4.62-9.08-10.62-9.53-17.53.5-6.36 2.65-13.06 7.83-17.13zm337.31 34.46c1.22 8.54 2.11 17.18 1.93 25.82-.69-8.61-1.49-17.2-1.93-25.82z"/><path d="m690.97 536.18 1.03-1.52v38.92l-.95-1.52c.23-11.96.28-23.93-.08-35.88zm-338.8 10.96c4.04-3.85 8.92-6.73 13.93-9.14 9.64 4.95 19.53 10.96 24.82 20.82 5.43 9.98 6.36 22.72.89 32.88-3.18 6.1-9.84 10.53-16.85 10.09-5.45.41-10.73-1.64-15.25-4.52-9.75-6.41-16.3-17.58-16.59-29.32.23-7.73 3.3-15.52 9.05-20.81zm106-1.13c2.55-2.8 4.19-6.28 6.78-9.04.02 5.07 1.05 10.05 1.29 15.1.65 7.94-.04 15.93.39 23.88.69 5.18.44 10.41.32 15.62-15.92-.49-31.8 1.04-47.71.3 13.15-15.14 25.91-30.61 38.93-45.86zm-198.63 399.66c6.82-2.87 15.23 2.98 15.12 10.32-.04 7.16-8.07 13.19-14.88 10.32-3.72-1.56-7.38-4.94-7.57-9.21-.52-4.88 2.58-9.98 7.33-11.43m-.5 1.55c-7.2 4.18-4.11 16.97 4.02 18.07 5.66 1.19 9.83-5.14 8.49-10.22-.7-5.69-6.91-10.49-12.51-7.85zm28.54-1.64c3.96-.04 8.07-1.45 11.91.08 2.89.97 4.69 4.86 2.83 7.51-.71 1.39-2.2 2.1-3.36 3.08 2.59 3.97 4.95 8.62 9.75 10.28-.19.32-.56.97-.75 1.29-5.36-1.37-8.92-5.71-11.51-10.32-.65-1.7-3.26-2.15-4.11-.38-.75 3.23-.07 6.97 2.29 9.44-2.4.02-4.8.03-7.19 0 .78-1.15 1.86-2.09 2.46-3.34.08-5.31.04-10.62-.01-15.93-.77-.58-1.55-1.15-2.31-1.71m5.24 1.48c-.34 2.61-.12 5.27.01 7.9 2.28.07 5.1.71 6.49-1.65 3.23-3.68-3.09-9.8-6.5-6.25zm24.86-2.07c2.98-.06 5.96-.05 8.94.01-.78.89-3.19 1.21-2.43 2.85 1.18 4.02 2.62 7.99 4.28 11.85.28.09.84.27 1.13.36 1.4-3.03 2.61-6.13 4.04-9.14-.99-2.23-2.3-4.29-4.06-5.98 2.73.02 5.46.01 8.2.05-.93.65-1.83 1.34-2.7 2.07 1.17 4.41 3.07 8.59 4.52 12.91.6.67 1.22 1.36 1.79 2.09-.85 1.58-1.39 3.3-1.93 5.02-2.19-4.34-3.12-9.25-5.04-13.74-2.62 4.33-4.21 9.18-6.07 13.87-2.77-6.2-4.34-12.95-7.02-19.22-.76-1.45-2.43-2.03-3.65-3zm23.37.26c2.82-.48 5.7-.3 8.55-.26-1.09 1.05-2.9 1.51-3.35 3.13-1.64 4.19-3.18 8.44-4.43 12.78-.38-.74-.75-1.46-1.11-2.18 1.66-3.46 2.86-7.12 3.76-10.83-.08-1.85-2.19-1.91-3.42-2.64zm21.77.24c5.2-.3 10.44.31 15.59-.59.14 1.6.44 3.33-.81 4.61-.82-4.77-6.54-2.42-9.85-2.86-.14 2.78-.14 5.57.05 8.35 2.29-.07 4.58-.11 6.88-.12.77-.73 1.54-1.44 2.33-2.14.03 2.17.05 4.36-.16 6.54-.93-.94-1.1-2.78-2.48-3.16-2.17-.13-4.35-.04-6.51-.02-.28 2.92-.28 5.86-.01 8.79 3.32.01 6.81.45 9.91-1.04.67-1.04 1.38-2.03 2.13-3 .55 2.45-.68 6.45-3.87 5.73-4.35-1.06-8.71.06-13.09.1l-.48-.92 2.36-1.08c.25-5.8.12-11.6.09-17.39-.7-.6-1.39-1.2-2.08-1.8zm30.92-.11c2.46.01 4.93.03 7.4.08-1.04 1.02-3.08 1.72-2.53 3.57.68 5.14-1.75 10.42.3 15.38 4.22.02 9.24.76 12.06-3.16-.48 1.71-.31 3.87-1.59 5.23-5.32-.75-10.7-.42-16.05-.45 1-1.19 2.95-2.09 2.56-3.95-.04-4.7.18-9.41-.13-14.1-.61-.93-1.35-1.74-2.02-2.6zm30.03.12c2.51-.11 5.02-.16 7.53 0-.73.58-1.47 1.15-2.23 1.71.39 5.67-1.04 11.36-.03 16.99 3.2.31 6.46.37 9.63-.33.84-.87 1.71-1.71 2.6-2.52a21.6 21.6 0 0 1 -1.52 5.25c-5.28-1.12-10.71-.37-16.06-.6.75-.76 1.51-1.5 2.28-2.23.03-5.48.06-10.97-.02-16.44-.74-.61-1.47-1.22-2.18-1.83z"/></g><path d="m189.98 246.86c54.35-27.7 116.22-40.13 177.05-36.45 51.58 3.01 102.45 17.71 147.57 42.89 33.3 18.63 63.64 42.63 89.09 71.08 25.6 28.47 46.43 61.22 61.28 96.51 5.6 12.89 9.81 26.31 14.1 39.67.08-.57.25-1.72.34-2.29 4.5 17.08 7.64 34.53 9.63 52.09.44 8.62 1.24 17.21 1.93 25.82.36 11.95.31 23.92.08 35.88-.64 18.12-3.15 36.11-6.16 53.98-.59-.79-1.06-1.67-1.54-2.5-.62 2.45-1.1 4.96-1.02 7.51-.01 1.62-.16 3.25-.53 4.84-14.91 62.11-48.11 119.54-93.8 164.08-47.57 46.42-108.71 78.94-174.02 91.54-59.79 12.02-122.72 7.83-180.4-11.98-70.62-23.96-132.73-71.76-174.36-133.58-24.09-35.69-41.38-75.94-50.63-118.01-1.54-6.22-2.04-12.67-3.78-18.83l-.55-1.02c-2.78-13.15-2.62-26.74-3.65-40.1.36-10.57-.54-21.21.43-31.74.98-6.38 1-12.84 1.86-19.23 4.37-44.64 18.1-88.29 39.7-127.6 33.17-61 85.34-111.39 147.38-142.56m146.03 116.08c-34.17 1.65-67.91 12.67-96.36 31.7-34.34 22.63-61.02 56.63-74.69 95.42-13.68 38.72-14.34 81.85-2.29 121.08 10.81 34.21 31.29 65.38 58.76 88.5 30.05 25.78 68.37 41.74 107.8 45 55.59 5.32 113.16-15.28 152.51-54.99 28.98-28.44 48.31-66.47 54.32-106.61 2.57-15.54 1.84-31.37 1.42-47.04-1.44-15.01-4.67-29.84-9.52-44.12-10.92-32.17-30.86-61.12-56.65-83.18-31.43-27.03-71.91-43.5-113.34-45.62-7.27-.86-14.67-.74-21.96-.14z" fill="#00aff0"/></svg>