<svg xmlns="http://www.w3.org/2000/svg" width="52pt" height="80" viewBox="0 0 52 60"><g fill="#1e2d36"><path d="M19.88 4.92C20.74 2.81 22.47.8 24.93.75c4.05-.09 8.12.02 12.17.1 3.35 1.23 6.81 3.25 8.37 6.63 2.81 4.34 3.04 9.63 3.5 14.62.68 10.87 2.05 21.9-.15 32.69-5.22 4.97-13.6 5.83-20.22 3.42-2.91-.86-4.12-5.18-1.57-7.1 1.7-2.08 4.4-2.43 6.92-2.42.58-2.61.99-5.34.45-8-1.24-1.74-3.52-1.13-5.33-1.19-2.13.23-4.65-.15-6.36 1.42-.54 3.35 2.35 7.27-.7 10.02-4.47 3.37-10.58 3.48-15.91 2.81C4.09 52.66.78 51.7.99 48.9c.05-1.55-.4-3.67 1.33-4.49 2.42-1.89 5.45-.83 8.18-.53 1.89-13.23 4.01-26.62 9.38-38.96m2.48-.18c-5.94 13.18-7.5 27.67-10.2 41.72-3.38-.57-8.05-2.54-10.06 1.49 1.15 1.68 2.58 3.43 4.79 3.58 5.08.57 10.9.42 14.78-3.41-.83-2.89-2.13-6.24-.67-9.12 2.22-1.85 5.31-1.44 7.99-1.63 2.54.02 5.88-.39 7.4 2.16.71 3.53.32 7.21-.28 10.72-1.89.77-4.13.21-6.03 1.12-1.89.35-2.25 2.68-1.72 4.23 5.09 2.61 11.14 1.7 16.3-.22.9-.54 2.32-.76 2.66-1.88.97-6.11 1.27-12.35.46-18.5-.79-9.69.33-20.58-5.8-28.83-2.67-3.86-7.76-3.82-11.97-3.89-2.68.04-6.24-.48-7.65 2.46z"/><path d="M25.32 8.52c3.93-.84 8.11-.86 12.01.12 1.98.49 4.37 2.8 3.13 4.92-1.14 1.95-3.5 2.6-5.56 3.03-3.63.7-7.95 1.07-10.88-1.65-2.27-1.66-1.91-6.19 1.3-6.42m.05 1.83c.24 1.45-.08 3.63 1.85 3.96 3.93-.09 9 1.55 11.69-2.27-3.38-3.68-9.15-2.43-13.54-1.69z"/></g><path fill="#def1fc" d="M22.36 4.74c1.41-2.94 4.97-2.42 7.65-2.46 4.21.07 9.3.03 11.97 3.89 6.13 8.25 5.01 19.14 5.8 28.83.81 6.15.51 12.39-.46 18.5-.34 1.12-1.76 1.34-2.66 1.88-5.16 1.92-11.21 2.83-16.3.22-.53-1.55-.17-3.88 1.72-4.23 1.9-.91 4.14-.35 6.03-1.12.6-3.51.99-7.19.28-10.72-1.52-2.55-4.86-2.14-7.4-2.16-2.68.19-5.77-.22-7.99 1.63-1.46 2.88-.16 6.23.67 9.12-3.88 3.83-9.7 3.98-14.78 3.41-2.21-.15-3.64-1.9-4.79-3.58 2.01-4.03 6.68-2.06 10.06-1.49 2.7-14.05 4.26-28.54 10.2-41.72m2.96 3.78c-3.21.23-3.57 4.76-1.3 6.42 2.93 2.72 7.25 2.35 10.88 1.65 2.06-.43 4.42-1.08 5.56-3.03 1.24-2.12-1.15-4.43-3.13-4.92-3.9-.98-8.08-.96-12.01-.12z"/><path fill="#aed0dd" d="M25.37 10.35c4.39-.74 10.16-1.99 13.54 1.69-2.69 3.82-7.76 2.18-11.69 2.27-1.93-.33-1.61-2.51-1.85-3.96z"/></svg>