<svg xmlns="http://www.w3.org/2000/svg" width="115pt" height="128pt" viewBox="0 0 115 128"><path d="M3.63 0h3.34c7.9 1.59 15.23 5.09 22.27 8.91-1.65 1.48-3.17 3.13-4.38 5-5.68-3.04-11.75-5.73-18.32-5.63-.45 3.1-.84 6.22-1.16 9.34-1.58 1.88-2.78 4.03-4.1 6.08.01-.12.04-.36.06-.48C1.52 15.46-.25 7.2 3.63 0zm104.26 0h3.45c3.86 7.11 2.21 15.28 2.21 22.96-1.17-1.89-2.53-3.67-4-5.33-.21-2.8-.19-5.68-1.1-8.37-1.03-1.14-2.68-.93-4.04-.8-5.1.75-9.71 3.21-14.27 5.46-1.21-1.87-2.72-3.52-4.37-5.01 6.99-3.8 14.28-7.26 22.12-8.91zM47.95 10.26c6.35-.78 12.76-.77 19.1 0-2.7 2.94-4.59 6.67-4.81 10.7-1 11.3 3.91 22.3 10.56 31.17 1.91 2.15 3.83 5.65 7.26 4.76 10.85-1.5 21.37-6.55 29.01-14.47 2.68 5.86 3.81 12.2 4.87 18.5-8.96-2.37-18.5-1.9-27.45.28-1.72.5-5.14 1.27-3.17 3.6 1.96.32 3.86-.51 5.76-.85 8.03-1.95 16.45-1.69 24.5 0-7.22 1.5-14.05 5.07-21.52 5.16-4.4-.46-8.87-.79-13.26-.1-.17.52-.51 1.55-.69 2.07 2.48 1.64 5.74.47 8.53.84-18.49 6.47-39.32 6.79-57.77 0 2.61-.38 5.76.83 8.01-.88-.17-.51-.51-1.52-.68-2.02-4.38-.7-8.83-.37-13.21.08-7.37-.11-14.14-3.55-21.23-5.19 9.13-2.08 18.67-1.62 27.67.83 2.12 1.36 4.33-2.3 1.41-2.74-9.53-3.13-20.05-3.52-29.79-1.09 1.08-6.3 2.16-12.64 4.88-18.48 7.08 7.4 16.69 12.05 26.63 14.14 2.33.37 5.23 1.07 6.83-1.21 6.35-6.78 10.8-15.36 12.79-24.43 1.49-7.04 1.13-15.28-4.23-20.67m6.4 52.21c-2.4.23-6.39.26-6.42 3.55-.08 5.78 5.95 12.13 11.98 10.18 3.2-1.29 5.62-4.18 6.83-7.36.65-1.94.67-4.99-1.75-5.65-3.45-1-7.09-.84-10.64-.72zm-1.92 18.12c6.45-1.52 13.54 0 18.74 4.14 5.57 4.28 8.93 11.28 8.65 18.31-.13 8.64-5.83 16.83-13.83 20.05-6.73 2.86-14.85 2.04-20.88-2.08-6.55-4.32-10.52-12.26-9.9-20.11.48-9.58 7.88-18.22 17.22-20.31m-8.82 11.02c-4.42 5.54-4.71 13.55-1.4 19.71 4.19-8.77 8.3-17.57 12.3-26.43-4.17 1.17-8.31 3.12-10.9 6.72m16.89-6.66c4.02 8.83 8.1 17.62 12.28 26.38 3.46-6.37 2.97-14.76-1.86-20.3-2.58-3.27-6.48-5.04-10.42-6.08m-3.05 5.06c-1.87 4.04-3.75 8.07-5.61 12.11 3.77.01 7.54.01 11.32 0-1.86-4.06-3.73-8.12-5.71-12.11m-11.88 25.5c3.54 2.76 7.85 4.78 12.44 4.49 4.21.06 7.97-2.06 11.39-4.3-1.28-3-2.65-5.95-4.09-8.87-5.21.06-10.43.05-15.64.01-1.39 2.88-2.74 5.78-4.1 8.67z"/><g fill="#dd2e44"><path d="M29.24 8.91c5.77-3.69 13.53-3.08 18.71 1.35 5.36 5.39 5.72 13.63 4.23 20.67-1.99 9.07-6.44 17.65-12.79 24.43-1.6 2.28-4.5 1.58-6.83 1.21-9.94-2.09-19.55-6.74-26.63-14.14C3.01 39.09.59 35.13 0 30.65v-2.08c.34-1.65.82-3.25 1.28-4.87 1.32-2.05 2.52-4.2 4.1-6.08 5.33-3.85 12.33-3.85 18.02-.82.37-.72 1.09-2.17 1.46-2.89 1.21-1.87 2.73-3.52 4.38-5zm37.81 1.35c5.19-4.45 12.96-5.03 18.72-1.35 1.65 1.49 3.16 3.14 4.37 5.01.37.72 1.09 2.16 1.46 2.88 5.67-3 12.67-3.09 17.95.83 1.47 1.66 2.83 3.44 4 5.33.56 1.81 1.1 3.62 1.45 5.48v1.21c-.16 4.88-2.81 9.2-5.93 12.77-7.64 7.92-18.16 12.97-29.01 14.47-3.43.89-5.35-2.61-7.26-4.76-6.65-8.87-11.56-19.87-10.56-31.17.22-4.03 2.11-7.76 4.81-10.7zM.44 64.02c.33-.03.99-.09 1.32-.11 7.09 1.64 13.86 5.08 21.23 5.19-7.9 1.04-15.68 3.7-22.21 8.33-.47-4.46-.26-8.94-.34-13.41zm113.14-.07l.98.07c-.09 4.48.1 8.96-.33 13.42-6.5-4.66-14.29-7.27-22.17-8.33 7.47-.09 14.3-3.66 21.52-5.16zM1.22 80.33c8.5-4.65 17.76-8.57 27.65-8.41 18.45 6.79 39.28 6.47 57.77 0 6.8.18 13.61 1.71 19.72 4.71 2.52 1.12 4.81 2.7 7.42 3.61-.7 3.13-1.62 6.33-3.77 8.8-4.53 5.44-9.79 10.26-15.47 14.47-7.24 5.38-14.34 10.97-21.64 16.26-4.57 3.19-9.2 6.49-14.56 8.23h-1.57c-5.19-1.53-9.61-4.78-14.02-7.79-7.37-5.28-14.46-10.93-21.74-16.32C15.13 99.57 9.67 94.65 5 89.03c-2.12-2.45-3.1-5.59-3.78-8.7m51.21.26c-9.34 2.09-16.74 10.73-17.22 20.31-.62 7.85 3.35 15.79 9.9 20.11 6.03 4.12 14.15 4.94 20.88 2.08 8-3.22 13.7-11.41 13.83-20.05.28-7.03-3.08-14.03-8.65-18.31-5.2-4.14-12.29-5.66-18.74-4.14z"/><path d="M43.61 91.61c2.59-3.6 6.73-5.55 10.9-6.72-4 8.86-8.11 17.66-12.3 26.43-3.31-6.16-3.02-14.17 1.4-19.71zm16.89-6.66c3.94 1.04 7.84 2.81 10.42 6.08 4.83 5.54 5.32 13.93 1.86 20.3-4.18-8.76-8.26-17.55-12.28-26.38zm-3.05 5.06c1.98 3.99 3.85 8.05 5.71 12.11-3.78.01-7.55.01-11.32 0 1.86-4.04 3.74-8.07 5.61-12.11zm-11.88 25.5c1.36-2.89 2.71-5.79 4.1-8.67 5.21.04 10.43.05 15.64-.01 1.44 2.92 2.81 5.87 4.09 8.87-3.42 2.24-7.18 4.36-11.39 4.3-4.59.29-8.9-1.73-12.44-4.49z"/></g><path fill="#2a2f33" d="M6.54 8.28c6.57-.1 12.64 2.59 18.32 5.63-.37.72-1.09 2.17-1.46 2.89-5.69-3.03-12.69-3.03-18.02.82.32-3.12.71-6.24 1.16-9.34zm97.87.18c1.36-.13 3.01-.34 4.04.8.91 2.69.89 5.57 1.1 8.37-5.28-3.92-12.28-3.83-17.95-.83-.37-.72-1.09-2.16-1.46-2.88 4.56-2.25 9.17-4.71 14.27-5.46z"/><path fill="#fff" d="M1.05 60.91c9.74-2.43 20.26-2.04 29.79 1.09 2.92.44.71 4.1-1.41 2.74-9-2.45-18.54-2.91-27.67-.83-.33.02-.99.08-1.32.11L0 62.14v-.43zm85.44.29c8.95-2.18 18.49-2.65 27.45-.28l1.06.72v.5l-.44 1.88-.98-.07c-8.05-1.69-16.47-1.95-24.5 0-1.9.34-3.8 1.17-5.76.85-1.97-2.33 1.45-3.1 3.17-3.6zm-63.5 7.9c4.38-.45 8.83-.78 13.21-.08.17.5.51 1.51.68 2.02-2.25 1.71-5.4.5-8.01.88-9.89-.16-19.15 3.76-27.65 8.41-.22-.96-.37-1.92-.44-2.9 6.53-4.63 14.31-7.29 22.21-8.33zm55.81-.09c4.39-.69 8.86-.36 13.26.1 7.88 1.06 15.67 3.67 22.17 8.33-.06.95-.21 1.88-.45 2.8-2.61-.91-4.9-2.49-7.42-3.61-6.11-3-12.92-4.53-19.72-4.71-2.79-.37-6.05.8-8.53-.84.18-.52.52-1.55.69-2.07z"/><path fill="#e75a70" d="M54.35 62.47c3.55-.12 7.19-.28 10.64.72 2.42.66 2.4 3.71 1.75 5.65-1.21 3.18-3.63 6.07-6.83 7.36-6.03 1.95-12.06-4.4-11.98-10.18.03-3.29 4.02-3.32 6.42-3.55z"/></svg>