<svg xmlns="http://www.w3.org/2000/svg" width="130pt" height="130pt" viewBox="0 0 130 130"><g fill="#1e2223"><path d="M58.31 15.01c.58-4.29-.24-9.78 3.46-12.84-3.21 7.99-1.53 17.25-5.61 24.92-1.62 1.74-2.81 3.85-4.61 5.4-2.08 1.13-4.43 1.6-6.69 2.25 1.52-2.72 5.73-1.71 7.44-4.31 1.35-2.33 3.31-4.31 4.44-6.75.31-2.93.83-5.82 1.57-8.67zM62.38 5c2.6 1.5 1.55 5.46 2.69 7.94 2.29 5.22 3.51 10.8 4.79 16.33 2.11.12 4.22.14 6.33.01 4.74 2.78 9.46 5.71 14.78 7.27l-.27.95c-5.28-1.46-10.01-4.3-14.67-7.09-2.32.04-4.63-.01-6.93-.24-.24-.95-.48-1.9-.73-2.85-1.56-7.57-5.08-14.6-5.99-22.32zm28.55 32.57c1.66.34 2.66 1.65 3.58 2.95 1.75 2.58 5.07 3.56 6.62 6.32 1.14 1.82 2.54 3.85 4.86 4.12 7.44 1.46 14.06-4.28 21.38-3.4.14 1.07.26 2.14.38 3.21-4.09 2.59-9.04 3.95-12.13 7.91-1.83 2.39-6.06 2.87-6.16 6.37.45 4.1 1.16 8.28.14 12.37.52 2.2.4 4.45-.46 6.55 1.5 4.29-1.61 7.91-2.88 11.76.6 2.48-1.09 5.31-3.63 5.82.89-1.15 1.74-2.33 2.55-3.54-.8-4.73 4.13-8.2 3.13-13-.39-2.39 1.66-5.27-.35-7.2.24-.49.71-1.47.95-1.96.8-4.65-1.69-9.39.1-13.83 4.29-1.87 7.07-5.72 10.81-8.35 2.5-1.52 6.74-1.8 7.01-5.43-5.9.43-11.3 3.22-17.13 4.14-.6.02-1.79.06-2.39.07-5.31-.19-6.6-5.92-10.57-8.28-2.52-1.62-4.09-4.23-5.81-6.6zm-56.55 1.61l.95.17c-.36.4-1.06 1.19-1.42 1.58l-.27-.92zm25.44 2.37c.48-1.11 1.9-1.28 2.8-1.94 1.67 4.44 2.81 9.06 4.66 13.44 1.42 3.99 3.86 7.63 4.68 11.81-.97 2.31-3.69 2.2-5.66 3.01-2.71 1.03-5.35 2.5-8.34 2.37l-.7-.01c-.06-.22-.17-.65-.23-.87 4.58-.21 8.59-2.63 12.91-3.87.22-.32.66-.98.88-1.3-1.37-3.82-3.22-7.44-4.72-11.21-1.78-4.02-2.57-8.42-4.73-12.29-2.58 5.07-3.28 10.71-4.33 16.22-2.35 4.5-2.8 9.74-5.56 14.04 1.63-.32 3.28-.38 4.94-.26-1.58.3-5.15 3.04-5.82.35 1.26-3.11 2.52-6.23 3.23-9.54 1.14-2.82 2.73-5.53 2.89-8.66.34-3.91 1.59-7.69 3.1-11.29zM21.7 53.75c3.39-4.66 5.94-10.57 11.77-12.66l-.55.8c-3.84 2.9-6.8 6.59-9.19 10.76-3.04 4.72-5.3 9.84-7.56 14.95-.11-5.28 3.5-9.3 5.53-13.85zm25.84-9.16c1.09-.76 2.46-.7 3.71-.89-.81 3.04-1.84 6.01-2.89 8.98-1.08 2.85-2.27 5.66-3.3 8.53 0 2.19-1.04 4.12-1.8 6.12-.89 2.35-.62 5.02-1.75 7.28-2.48.98-5.18 1.45-7.4 3.01-2.86 1.28-5.88 2.27-8.33 4.3-.57-1.11-1.08-2.25-1.19-3.5 1.38-9.18 4.11-18.59 10.74-25.41 4.12-2.73 7.95-5.91 12.21-8.42M36.62 53.6c-7.44 6.87-10.24 17.34-10.87 27.12 4.72-2.81 9.67-5.51 15.03-6.9.66-3.72 1.13-7.55 3.18-10.83-.09-.42-.26-1.26-.34-1.68 2.23-5.47 4.94-10.85 6.06-16.69a84.036 84.036 0 0 0-13.06 8.98zm37.22-11.14c5.77 3.11 12.08 5.63 16.5 10.68 1.2 1.38 3.16 2.59 2.72 4.7-.74.2-2.23.59-2.97.78.5-.51 1.49-1.53 1.99-2.05-2.92-2.97-5.66-6.28-9.41-8.27-2.77-1.46-5.58-2.87-8.26-4.49.33 6.4 5.29 11.18 5.94 17.43 2.99-1.1 6.08-1.85 9.19-2.48-2.84 1.96-6.2 2.96-9.57 3.49-1.47-3.08-1.97-6.65-3.96-9.55-1.71-3.12-2.71-6.67-2.17-10.24z" opacity=".85"/><path d="M83.58 70.29c4.66-1.42 9.32-2.92 13.54-5.4 1.94-1.19 3.48 1.58 3.54 3.25-.04 3.38-.61 6.72-.69 10.1-.11 4.65-1.77 9.05-3.83 13.17.07.7.14 1.41.22 2.12-.54.73-1.08 1.46-1.61 2.19-1.22-.62-2.45-1.24-3.67-1.84-2.21-5.22-1.46-11.3-4.76-16.07-.38-2.68-1.31-5.23-2.74-7.52m1.34.76c2.71 3.47 2.98 8.1 4.94 11.98.09 3.46 1.13 6.7 1.97 10.03 1.09.47 2.18.98 3.25 1.51-.53-3.61 1.79-6.57 2.74-9.87 1.27-4.07.91-8.38 1.48-12.55-.05-1.96 1.31-6.04-1.39-6.41-4.06 2.38-8.52 3.88-12.99 5.31zm-70.05-2.51c.22 1.18.33 2.37.33 3.56-.91 1.9-1.36 3.98-.7 6.04.44 2.06 1.04 4.09 1.7 6.1l-.32.71c-.55.77-1.02 1.87-2.15 1.64 2.32-2.63-.12-5.72-.33-8.59-1.26-3.3 1.12-6.25 1.47-9.46zm46.6 8.6c4.05-.64 8.02-1.72 12.06-2.41 1.84.56 3.29 1.91 4.34 3.48.98 8.26 4.73 15.72 7.37 23.47.31.58.94 1.73 1.25 2.3-4.08 5.59-11.36 7.01-17.71 8.36-4.85.55-10.38.59-14.62-2.16 3.89.54 7.77 1.42 11.71 1.43 6.92-.81 14.08-2.61 19.46-7.3-1.99-3.76-2.85-7.96-4.7-11.78-1.86-3.98-2.76-8.29-3.51-12.58-.27-1.89-2.05-2.99-3.21-4.33-6.67 1.08-12.87 3.88-19.55 4.79-3.06.94-5.47 3.36-6.84 6.21-2.9 5.51-5.7 11.71-5.25 18.03 3.45 2.53 7.95 2.85 11.44 5.28-3.95-.33-7.58-2-11.08-3.74-1.24-.36-1.6-1.58-1.87-2.69.88-7.3 3.86-14.02 7.43-20.37 2.46-1.92 5.02-3.92 8.19-4.46 1.79-.15 4.03.4 5.09-1.53zM26.55 92.32c1.7-2.28 4.33-3.46 7.09-3.85 1.71 1.07.13 3.6.2 5.19-1.05 1.69-1.3 3.67-1.66 5.58-2 1.25-3.34-1.83-5.07-2.54-.18-1.46-.37-2.92-.56-4.38m1.02-.38c.22 1.26.45 2.51.69 3.76 1 1.06 1.97 2.14 2.95 3.21.48-3.25 1.51-6.38 2.33-9.56-2.06.69-4.06 1.55-5.97 2.59zm-12.95 2.77c1.65.82 3.06 2 4.14 3.5.59 2.12 1.89 3.92 3.53 5.35 2.36 2.37 5.21 4.32 7.08 7.12 1.31 5.43-2.02 10.64-1.75 16.11.83-.01 2.49-.02 3.32-.03 1.49-4.89 2.92-9.95 6.03-14.11 2.67 1.35 5.02 3.24 7.62 4.71 2.06.73 4.24.99 6.31 1.69.63.52 1.26 1.06 1.87 1.61a33.07 33.07 0 0 0-5.87-1.51c-3.89-.42-6.55-3.66-9.93-5.3-1.91 3.99-3.46 8.12-4.78 12.34-.4 2.27-4.04 2.33-5.34.89-1.13-5.51 2.54-10.6 1.76-16.16-4.8-4.41-10.31-8.54-12.56-14.92-4.43 2.86-9.82 4.01-15.03 4.13-1.02-2.21-.96-5.3 2.39-4.71-.65.7-1.95 2.09-2.6 2.78 1.81.71 3.77 1 5.65.35 2.87-.91 6.44-.97 8.16-3.84zm85.75 8.94c.69-.66 1.39-1.3 2.1-1.94-.67 1.58-1.53 3.07-2.21 4.64.05 1.95.27 3.89.27 5.85l-1.12.19c.02-2.93-1.07-6.2.96-8.74z" opacity=".85"/><path d="M75.82 120c5.01-1.46 9.39-4.42 14.17-6.43 1.96.51 3.22 2.47 4.86 3.6.88 4.18 3.31 8.86 7.73 9.94 1.32-5.11-4.29-10.04-2.03-14.91.51 5.44 3.77 10.34 3.33 15.93-4.17 1.05-5.86-3.35-8.59-5.47-.49-1.76-.99-3.51-1.53-5.25-1.69-.4-2.9-1.53-3.71-3.02-4.39 2.61-9.06 4.76-13.77 6.7-6.71 1.04-13.57.9-20.3.1l-.9-.99c6.9.39 13.88 1.11 20.74-.2z" opacity=".85"/></g><path fill="#69e6ff" d="M61.77 2.17c.21.95.42 1.89.61 2.83.91 7.72 4.43 14.75 5.99 22.32-4.08.16-8.15.14-12.21-.23 4.08-7.67 2.4-16.93 5.61-24.92zM22.29 103.56c6.16-.08 12.31-.03 18.47-.06.27 1.11.63 2.33 1.87 2.69 3.5 1.74 7.13 3.41 11.08 3.74l.45.25c4.24 2.75 9.77 2.71 14.62 2.16 6.35-1.35 13.63-2.77 17.71-8.36 4.57-.91 9.26-.37 13.88-.33-2.03 2.54-.94 5.81-.96 8.74l1.12-.19h.02c-2.26 4.87 3.35 9.8 2.03 14.91-4.42-1.08-6.85-5.76-7.73-9.94-1.64-1.13-2.9-3.09-4.86-3.6-4.78 2.01-9.16 4.97-14.17 6.43-6.86 1.31-13.84.59-20.74.2l-.28-.01c-1.29-.43-2.59-.8-3.9-1.14-2.07-.7-4.25-.96-6.31-1.69-2.6-1.47-4.95-3.36-7.62-4.71-3.11 4.16-4.54 9.22-6.03 14.11-.83.01-2.49.02-3.32.03-.27-5.47 3.06-10.68 1.75-16.11-1.87-2.8-4.72-4.75-7.08-7.12z"/><path fill="#ffc7d4" d="M51.55 32.49c1.8-1.55 2.99-3.66 4.61-5.4 4.06.37 8.13.39 12.21.23.25.95.49 1.9.73 2.85 2.3.23 4.61.28 6.93.24 4.66 2.79 9.39 5.63 14.67 7.09l.23.07c1.72 2.37 3.29 4.98 5.81 6.6 3.97 2.36 5.26 8.09 10.57 8.28-5.65.43-11.32.21-16.97.69-4.42-5.05-10.73-7.57-16.5-10.68-.54 3.57.46 7.12 2.17 10.24-2.91.07-5.82.19-8.73.35-1.85-4.38-2.99-9-4.66-13.44-.9.66-2.32.83-2.8 1.94-1.51 3.6-2.76 7.38-3.1 11.29-2.79-.06-5.57-.11-8.36-.16 1.05-2.97 2.08-5.94 2.89-8.98-1.25.19-2.62.13-3.71.89-4.26 2.51-8.09 5.69-12.21 8.42-3.87-.05-7.73-.33-11.6-.36 2.39-4.17 5.35-7.86 9.19-10.76.25-.24.75-.72.99-.96.36-.39 1.06-1.18 1.42-1.58 2.01-3.41 6.1-3.67 9.53-4.61 2.26-.65 4.61-1.12 6.69-2.25zm58.15 19.89c5.83-.92 11.23-3.71 17.13-4.14-.27 3.63-4.51 3.91-7.01 5.43-3.3-.86-6.71-1.24-10.12-1.29zM14.5 78.14c3.37 0 6.73.07 10.09.28.11 1.25.62 2.39 1.19 3.5 2.45-2.03 5.47-3.02 8.33-4.3 7.38 1.19 14.87-.02 22.27 1.05-3.17.54-5.73 2.54-8.19 4.46-3.57 6.35-6.55 13.07-7.43 20.37-6.16.03-12.31-.02-18.47.06-1.64-1.43-2.94-3.23-3.53-5.35-1.08-1.5-2.49-2.68-4.14-3.5-1.72 2.87-5.29 2.93-8.16 3.84-1.88.65-3.84.36-5.65-.35.65-.69 1.95-2.08 2.6-2.78 1.22-.77 2.55-1.36 3.83-2.03 1.69-1.74 3.87-2.88 5.67-4.49.73-.56 1.46-1.11 2.2-1.66.19-.57.58-1.72.77-2.29l.32-.71c-.66-2.01-1.26-4.04-1.7-6.1m12.05 14.18c.19 1.46.38 2.92.56 4.38 1.73.71 3.07 3.79 5.07 2.54.36-1.91.61-3.89 1.66-5.58-.07-1.59 1.51-4.12-.2-5.19-2.76.39-5.39 1.57-7.09 3.85zm51.32-14.11c2.82-.01 5.64-.14 8.45-.4 3.3 4.77 2.55 10.85 4.76 16.07 1.22.6 2.45 1.22 3.67 1.84.53-.73 1.07-1.46 1.61-2.19-.08-.71-.15-1.42-.22-2.12 2.06-4.12 3.72-8.52 3.83-13.17 2.66-.1 5.32-.27 7.99-.43 2.01 1.93-.04 4.81.35 7.2 1 4.8-3.93 8.27-3.13 13-.81 1.21-1.66 2.39-2.55 3.54l-.16.16c-.71.64-1.41 1.28-2.1 1.94-4.62-.04-9.31-.58-13.88.33-.31-.57-.94-1.72-1.25-2.3-2.64-7.75-6.39-15.21-7.37-23.47z"/><path fill="#fff" d="M107.31 52.45c.6-.01 1.79-.05 2.39-.07 3.41.05 6.82.43 10.12 1.29-3.74 2.63-6.52 6.48-10.81 8.35-1.79 4.44.7 9.18-.1 13.83-.24.49-.71 1.47-.95 1.96-2.67.16-5.33.33-7.99.43.08-3.38.65-6.72.69-10.1-.06-1.67-1.6-4.44-3.54-3.25-4.22 2.48-8.88 3.98-13.54 5.4 1.43 2.29 2.36 4.84 2.74 7.52-2.81.26-5.63.39-8.45.4-1.05-1.57-2.5-2.92-4.34-3.48-4.04.69-8.01 1.77-12.06 2.41-1.06 1.93-3.3 1.38-5.09 1.53-7.4-1.07-14.89.14-22.27-1.05 2.22-1.56 4.92-2.03 7.4-3.01 1.13-2.26.86-4.93 1.75-7.28.76-2 1.8-3.93 1.8-6.12 1.03-2.87 2.22-5.68 3.3-8.53 2.79.05 5.57.1 8.36.16-.16 3.13-1.75 5.84-2.89 8.66-.71 3.31-1.97 6.43-3.23 9.54.67 2.69 4.24-.05 5.82-.35.21-.12.63-.35.84-.46l.7.01c2.99.13 5.63-1.34 8.34-2.37 1.97-.81 4.69-.7 5.66-3.01-.82-4.18-3.26-7.82-4.68-11.81 2.91-.16 5.82-.28 8.73-.35 1.99 2.9 2.49 6.47 3.96 9.55 3.37-.53 6.73-1.53 9.57-3.49.14-.04.41-.1.55-.14.74-.19 2.23-.58 2.97-.78.44-2.11-1.52-3.32-2.72-4.7 5.65-.48 11.32-.26 16.97-.69zM16.17 67.6c2.26-5.11 4.52-10.23 7.56-14.95 3.87.03 7.73.31 11.6.36-6.63 6.82-9.36 16.23-10.74 25.41-3.36-.21-6.72-.28-10.09-.28-.66-2.06-.21-4.14.7-6.04.69-1.41.33-3.09.97-4.5z"/></svg>