<svg xmlns="http://www.w3.org/2000/svg" width="1500" height="1108pt" viewBox="0 0 1125 1108"><path fill="#fff" d="M473.75 346.3c1.78.14 3.56.3 5.35.51 2.87.72 5.85.73 8.74 1.35 3.85.33 7.63 1.14 11.48 1.5-.26 3.63-.47 7.88 2.49 10.56 2.6 2.95 6.58 3.73 10.33 3.15 4.34-1.58 6.84-5.61 7.69-9.98 4.1.36 8.15 1.17 12.27 1.43 2.71.69 5.52.79 8.3.94.31 3.79.25 7.59-.1 11.38-.52 1.57-.95 3.18-1.44 4.76-.3 1.02-.59 2.03-.88 3.05-.43.98-.85 1.97-1.26 2.97-3.03 8.1-7.67 15.89-14.85 20.95-1.3.7-2.6 1.4-3.89 2.1-1.03.34-2.06.69-3.08 1.04-5.26 1-10.95 1.34-16.01-.67-8.05-3.93-13.8-11.17-18.28-18.72-6.72-10.76-8.19-23.92-6.86-36.32zm119.03 5.47c7.67-.3 15.17-2.34 22.85-2.6.03 5.89.38 11.86-.75 17.68-.24 1.41-.46 2.83-.66 4.25-1.09 3.75-2.35 7.46-3.96 11.02-3.97 7.69-9.7 14.76-17.27 19.13-2.4 1.53-5.37 1.16-7.98 2.08-2.39-.67-4.84-1.06-7.18-1.9-2.44-1.26-4.83-2.59-7.14-4.06-4.74-3.8-8.47-8.71-11.05-14.2-.49-1.45-.99-2.89-1.49-4.32-.34-.99-.67-1.98-.98-2.97a78.387 78.387 0 0 1-4.41-14.82c.16-.63.47-1.89.63-2.52 6.71-1 13.42-2.01 20.09-3.21.96 2.62 2.44 5 4.4 6.99 2.36.33 4.73 1.02 7.14.76 1.99-.88 3.77-2.24 5.29-3.8 1-2.44 1.64-5.01 2.47-7.51z"/><path fill="#9f827c" d="M541.39 39.35c8.03-4.5 18.13-5.16 26.53-1.25 11.13 4.5 19.07 14.56 23.64 25.38 3.84 8.76 7.05 17.79 9.73 26.95 8.86 33.83 17.95 67.6 26.61 101.49 3.99 18.48 7.52 37.07 11.54 55.55 3.94 20.61 8.91 41 12.75 61.63 6.95 33.45 14.28 66.82 21.09 100.3 4.36 17.92 7.36 36.15 11.66 54.09 15.02-7.07 29.57-15.18 44.96-21.45 9.8-3.58 19.44-7.71 29.58-10.3 23.07-7.54 46.84-13.51 71.12-15.19 12.77-.99 26.41-1.32 38.12 4.72 9.29 5.68 14.01 15.83 19.04 25.03 12.99 25.57 20.67 53.43 26.59 81.38 1.48 5.94 2.27 12.02 2.99 18.1 1.13 7.02.04 14.19 1.12 21.22-.69 7.7-.97 15.47-2.69 23.05-2.38 10.83-6.35 21.3-11.76 30.98-5.08 10.08-13.33 19.53-24.61 22.54-13.94 3.86-29.35.21-41-8.1-6.3-5.2-11.08-12.24-13.7-19.97-2.09-6.04.56-12.54 4.44-17.22-4.39-3.62-8.24-8.48-8.98-14.28.47-5.38 3.03-11.29 8.24-13.62 5.38-3.07 11.69-3.72 17.77-3.2-3.23-9.18-9.04-17.34-16.18-23.9-2.25.73-4.21 2.05-6.01 3.56-23.74 18.96-43.11 43.94-53.42 72.68-1.32 4.05-2.97 8.07-3.49 12.32 2.8 6.99 4.79 14.27 7.65 21.24 4.95 15.2 7.74 31.04 9.14 46.94-.21 6.03 1.26 11.96.96 18-.13 7.32.31 14.67-.34 21.97-.95 5.95-.11 12.02-1.24 17.96-.5 9.45-1.68 18.87-3.17 28.21 8.09 4.08 17.05 6.79 24.05 12.78 15.91 13.49 24.86 33.53 28.91 53.63-2.87.15-5.74.2-8.59.22 4.16 20.68 7.76 42.21 3.26 63.16-1.48 5.8-2.63 12.31-7.37 16.45-5 4.44-11.58 7.39-18.35 7.27-2.37.03-4.75-.06-7.11-.1-1.73 2.95-3.44 5.94-4.89 9.05-9.5 18.54-21.73 36.06-38 49.28-7.12 5.52-14.8 10.64-23.33 13.64-8.27 1.15-16.58-.73-24.86-.5-7.75-4.06-12.02-12.51-12.62-21.01-.64-9.7 1.19-19.33 3.13-28.79 1.6-7.56 4.91-14.63 6.57-22.18.8-3.95 2.57-7.79 2.11-11.89 1.81-4.22 2.74-8.74 3.82-13.19-6.75-3.61-13.05-8-19.27-12.43-3.5-2.74-7.78-5.79-8.18-10.61-.92-8.43 4.57-15.49 7.72-22.84 3.43-7.81 8.18-15.08 10.65-23.28-4.2 2.87-6.12 7.79-9.32 11.58-8.04 10.41-16.36 21.92-16.74 35.62-.33 4.13 2.24 7.61 4.59 10.73 5.99 8.11 14.56 13.69 22.57 19.61-13.34 9.68-28.2 17.14-43.68 22.73-26.23 9.72-54.25 13.79-82.13 14.41-30.85.71-61.76-3.65-91.36-12.29-8.45-2.56-16.18-6.92-24.35-10.16.02.57.08 1.71.11 2.28 8.85 8.14 19.07 15.08 30.64 18.66 8.27 2.84 16.7 5.24 24.97 8.08 4.22 1.15 3.63 6.25 3.87 9.66-7.6 5.94-16.89 9.15-25.89 12.31-7.6 2.33-15.26 4.55-23.07 6.04-14.16 1.5-28.43 1.14-42.61 2.35.64-12.87 8.61-23.85 10.77-36.39.69-7.97-.81-16.71-6.41-22.77-4.06-4.28-9.55-7.89-15.65-7.77-6.95-.01-13.84 1.81-20.8 1.04-6.29-.93-12.23-5.37-14.16-11.54-1.05-4.77.72-9.53 1.71-14.15 8.98 2.44 16.27 8.97 25.33 11.26-7.25-5.61-15.24-10.32-22.09-16.4 3.96-11.16 11.8-20.87 13.88-32.74.99-4.71.83-9.58-.26-14.24-1.5-.03-2.99-.06-4.48-.07.57 5.4 1.18 10.97-.37 16.28-2.72 10.2-8.48 19.2-12.91 28.7-11.61-9.54-22.21-20.35-31.03-32.53-2.87-3.67-5.13-7.78-8.1-11.37-3.12-1.15-6.63-.39-9.9-.48l.6 1.33c-.3-.24-.89-.72-1.18-.96-.11-.51-.32-1.55-.42-2.06-4.94-7.83-8.71-16.32-12.69-24.66-3.83-9.66-8.23-19.15-10.65-29.29-2.98-11.9-4.29-24.38-2.5-36.57.15-7.59 2.05-14.98 3.78-22.33 2.4-7.3 5.74-14.23 8.65-21.33 1.22-2.59-.48-5.34-1.01-7.89-2.51-7.3-3.74-15.61-.71-22.94 1.03-2.85 2.2-5.65 3.34-8.45-.44-.3-1.32-.91-1.76-1.21-4.59 1.51-9.5.67-14.24.91-18.95.45-38.05-2.97-55.55-10.32-6.39-2.51-12.07-6.43-17.6-10.41-3.86-3.46-8.2-6.47-11.25-10.72-4.88-6.54-10.72-13.26-10.99-21.85.05-13.58 5.83-26.13 11.66-38.08 7.81-16.3 19.11-30.63 31.55-43.63 19.36-18.25 41.81-33.47 66.62-43.27 19.36-8.03 39.77-14.02 60.68-16.03 5.31-.51 10.58.86 15.92.64 4.64-13.67 7.24-27.97 11.67-41.72 4.12-16.91 9.23-33.55 13.38-50.44 2.68-9.13 4.81-18.42 7.6-27.52 6.3-24.07 13.39-47.92 20.05-71.88 4.72-17.65 10.19-35.09 15.23-52.65 3.28-10.18 5.71-20.62 9.15-30.75 2.15-7.59 4.06-15.25 6.56-22.73 7.35-24.69 15.06-49.27 22.62-73.9 5.3-16.86 12.12-33.24 20.45-48.84 5.26-9.51 11.78-19.07 21.58-24.36m10.7 7.8c-9.33 2.16-17.21 8.5-22.74 16.15-8.12 12.22-13.4 26.03-18.26 39.79-6.96 18.91-11.9 38.46-17.31 57.84-18.23 64.28-36.32 128.58-54.37 192.91-12.01 41.97-24.68 83.76-37.25 125.56-2.75 9.27-5.32 18.66-9.4 27.45-.78 1.32-1.3 3.42-3.43 2.91-.15-5.58 1.45-10.99 1.54-16.54-10.29.44-20.5 1.99-30.78 2.41-5.52.19-10.82 1.8-16.11 3.22-35.05 9.5-67.53 28.26-93.35 53.8-13.63 14.21-25.2 30.81-31.44 49.62-1.99 6.39-4.63 12.99-3.49 19.8 1.35 5.87 4.88 10.99 8.84 15.44 15.33 15.65 35.82 26.04 57.49 29.27 14.61 2.57 29.62 1.64 44.11-1.3 27.59-5.58 52.95-18.8 76.42-33.96 8.9-5.51 16.22-13.2 25.25-18.52 2.48-1.52 5.28-2.45 8.19-2.63-.78 2.53-4.97 2.59-4.68 5.47 3.83 7.51 10.73 14.37 19.64 14.62 9.3.26 16.74-6.35 22.51-12.9 8.25-9.6 17.18-19.7 19.66-32.51 2.24-11.09-1.7-22.39-7.37-31.81-5.7-9.53-15.53-16.88-26.78-17.9-8.69-.21-17.33.98-26.01 1.22-7.63 1.2-15.02 3.6-22.59 5.11-23.41 5.02-46.01 13.69-69.82 16.78-.03-.53-.1-1.6-.14-2.14 6.03-5.16 14.17-6.43 21.29-9.47 20.89-6.25 41.55-13.78 63.2-17.02 10.91-1.75 22.01-4.42 33.1-2.65 12.45 1.34 22.83 9.87 30.11 19.57 7.53 10.95 12.57 24.01 12.45 37.42-1.2 16.94-10.83 32.16-22.97 43.56-7.19 6.72-16.39 12.57-26.61 12-8.55.41-18-2.68-22.76-10.2l.01.02c-1.54-1.89-2.44-4.18-3.47-6.36-11.49 11.23-24.1 21.33-37.73 29.84-15.43 9.38-32.32 16.42-49.97 20.32-3.07.83-6.93.91-8.67 4.05-4.31 6.9-6.35 15.3-5.87 23.41-.18.22-.52.68-.69.9.66 4.89 1.88 9.72 4.31 14.06 4.31 9.29 12.58 15.71 20.53 21.75 18.86 14.28 39.64 25.82 61.03 35.83 28.42 13.36 59.4 20.32 90.43 24.15 15.45 2.02 30.99 3.7 46.56 4.15 28.29 3.64 56.86.68 84.99-2.87 20.81-3.9 41.55-8.78 61.21-16.78 9.06-4.18 18.47-7.72 26.99-12.99 9.33-5.69 18.61-11.46 27.84-17.31 12.5-9.54 23.41-22.38 27.18-37.96 1.66-6.48 3.17-13.2 2.37-19.92-.5-3.61.65-7.22.06-10.82-.96-5.95-1.33-12.03-3.33-17.76-7.29-26.45-23.29-49.13-36.16-73.02-4-6.08-6.72-12.88-10.71-18.94 6.5 4.31 11.06 10.75 15.74 16.84 7.3 10.17 14.51 20.44 20.98 31.16-.4-1.34-.3-2.62.29-3.83 3.1-6.2 4.76-13.05 8.19-19.11 3.61-6 7.11-12.09 11.43-17.63 13.54-18.51 29.95-35.75 50.77-46 2.95-1.79 6.47-1.25 9.75-1.19-1.76 1.43-3.5 2.87-5.21 4.35 5.92 6.03 9.45 13.92 12.23 21.78 1.74 4.8 1.6 9.97 1.32 14.99-4.96-.21-9.81 1.02-14.76 1.02-5.57-.64-10.26 6.2-7.99 11.23 3.54 4.93 10.45 6.57 16.14 5.15 1.86-.42 2.02-2.58 2.84-3.98l1.21.69c2.77 9.62 4.84 19.45 7.67 29.05-5.62-5.2-8.33-12.4-11.67-19.07-3.32.08-6.64.09-9.96.12-.63 2.77-1.94 5.34-2.54 8.11-.81 6.58 2.76 12.64 6.87 17.46 7.04 6.81 15.73 12.45 25.57 13.95 7.77 1.19 15.02-2.76 21.22-6.98 12.22-9.27 17.87-24.18 22.13-38.37 3.57-15.69 5.38-31.95 3.2-47.98-.9-6.19-.8-12.57-2.84-18.54-1.24-4.69-1.89-9.5-2.92-14.23-4.03-11.7-7.07-23.73-11.51-35.29-2.68-6.43-4.71-13.11-7.72-19.39-3.31-10.04-9.31-19.09-16.68-26.6-3.22-3.45-7.65-5.27-12.24-5.98-6.49-.9-13.05-1.83-19.61-1.3-31.85 2.87-63.24 10.51-92.93 22.31-7.21 3.55-14.89 6.12-21.8 10.25-2.24 1.4-4.69 2.42-7.31 2.79-.2.48-.61 1.43-.82 1.9-9.41 4.71-18.07 10.82-26.37 17.24.32 5.98 2.48 11.79 1.91 17.87-.95-.26-1.89-.5-2.82-.74-2.83-8.02-6.99-15.82-6.79-24.58-1.68-.16-3.42-.67-5.07-.14 1.09-.69 2.33-1.04 3.57-1.42-1.28-7.79-3.32-15.44-5.08-23.13-7.77-35.69-16.3-71.22-24.03-106.93-9.74-41.59-19.14-83.28-27.26-125.23-1.94-12.18-5.32-24.06-8.12-36.05-4.33-18.98-8.79-37.93-13.63-56.79-5.52-20.33-8.85-41.66-19.51-60.16-2.92-4.58-6.29-9.15-11.17-11.8-5.23-3.31-11.87-3.38-17.72-1.94m199.37 705.27c-23.62 17.11-49.92 30.67-77.81 39.31-24.85 7.78-50.79 11.5-76.69 13.35-6.93.83-13.94.14-20.87 1.12-9.34.12-18.73.48-28.05-.44-7.67-.29-15.38 0-23-1.06-33.42-1.63-66.74-7.47-98.37-18.53-37.39-13.07-72.16-33.18-102.88-58.11-.21 2.09-1.13 4.68.96 6.16 13.51 13.51 29.06 24.96 45.68 34.36 8.36 4.36 16.69 8.78 25.13 12.99 22.55 12.47 47.46 19.98 72.46 25.72 22.39 4.53 45.24 6.14 67.97 7.97 45.18 2.99 91.28 1.35 135.09-11.04 27.91-8.24 54.9-20.48 78.24-38.02 10.12-7.83 19.27-17.18 25.5-28.43.82-4.59.48-9.33.86-13.97-5.78 11.21-14.15 21.03-24.22 28.62m-393.03 32.3c-10.83 2.06-20.03 10.37-23.44 20.81-3.85 11.39-.17 24.76 8.96 32.57 7.63 6.79 18.69 9.17 28.52 6.63 8.29-2.34 15.6-8.15 19.45-15.89 4.19-8.33 4.5-18.57.34-26.98-5.65-12.55-20.38-19.94-33.83-17.14m438.81 67.95c.44 8.17 2.68 16.16 2.7 24.36.3 4.9-1.56 9.8-5.19 13.14-4.88-2.71-9.62-5.65-14.62-8.12-19.24-9.7-41.47-15.46-62.98-11.37-4.18.68-8.4 1.13-12.5 2.18-5.52 1.84-9.92 6.22-12.62 11.27-1.08 1.93-.64 4.42.96 5.93 2.85-2.53 4.63-6.15 7.95-8.17 6.07-3.97 13.74-4.58 20.79-3.97.17 6.24-1.28 12.33-2.48 18.41-2.69 12.31-5.67 24.56-9.32 36.62-4.94 18.21-12.93 36.59-9.83 55.85 1.59 6.01 4.38 13.17 10.9 15.17 5.98 1.74 12.43.54 18.11-1.73 9.32-3.55 17.12-10.09 23.99-17.17 7.51-7.25 14.42-15.19 20-24.04 12.29-18.44 21.73-38.92 26.72-60.55 6.25 4.5 10.9 10.74 16.17 16.26l1.4-.52c.12-3.61-2.62-6.4-4.29-9.36-3.82-6.1-10.05-9.9-15.74-14.01 2.7-3.02 5.22-6.34 6.23-10.33 2.86-9.89-.14-20.06-2.26-29.75-1.37-.04-2.74-.08-4.09-.1z"/><path fill="#9f827c" d="M345.35 800.38c4.58-5.93 11.92-9.61 19.46-9.3-7.36 9.96-15.85 19.07-22.79 29.31-.33-.05-.98-.14-1.31-.19-.93-6.87.2-14.3 4.64-19.82zm29.51-6.5c7.4 2.71 12.2 10.45 13.34 18.03 1.14 6.18-1.52 12.09-4.17 17.5-.73.08-1.46.16-2.18.26-1.83-12.02-4.86-23.82-6.99-35.79zm-16.95 18.34c3.47-4.08 6.63-8.42 10.24-12.37.94 5.24 2.4 10.41 2.79 15.75-4.33-1.17-8.7-2.18-13.03-3.38zm-5.39 6.92c6.7 1.42 13.25 3.56 20.04 4.56 1.48 4.09 1.95 8.44 2.87 12.68-8.96 4.31-20.49 2.97-27.75-3.99-.99-1.16-2.75-2.25-2.36-3.99 2.13-3.28 4.79-6.19 7.2-9.26zm4.87 68.19c7.11 4.41 13.48 9.87 20.31 14.69-1.71 5.97-4.79 12-3.11 18.37 2.12 9.5 12.35 14.49 21.38 14.76 7.05-.47 14.14-1.42 21.22-.84 7.36.52 12.01 7.62 13.74 14.14 1.12 5.94.9 12.26-1.18 17.99-2.95 9.68-6.55 19.22-8.01 29.28-13.57-1.22-28.02-3.66-38.76-12.71-7.74-6.32-12.99-15.66-14.05-25.61-1.81-19.63-3.72-39.33-8.1-58.59-.86-3.91-2.07-7.73-3.44-11.48zm136.02 107.62c3.08-1.36 6.18-2.67 9.33-3.86 1.2 4.48 2.61 8.99 5.32 12.84 2.69 4.57 7.56 7.07 11.2 10.78 7.54 6.02 15.44 12.03 20.55 20.4 2.53 5.04 4.09 10.89 2.74 16.51-2.07 5.81-7.35 10.48-13.45 11.59-3.36.74-6.75-.46-10.14-.23-10.96.12-21.9-.46-32.82-1.22-8.24-2.15-16.04-5.69-23.67-9.41-9.63-5.09-19.6-9.77-28.03-16.77-6.03-5.58-12-11.29-16.81-17.99-3.29-4.81-7.25-9.24-9.48-14.69 4.01.62 8.13.83 12.02 2.1 1.54.51 1.67 2.45 2.49 3.69 5.45 8.22 11.59 16.18 19.44 22.27 16.12 13.92 36.38 22.29 57.08 26.58 9.15 1.63 18.95 3.21 27.85-.4 4.47-1.88 8.94-5.8 8.78-11.04-.46-6.88-5.52-12.28-10.63-16.37-7.93-6.28-15.26-13.27-22.16-20.65-3.91-4.2-6.47-9.39-9.61-14.13z"/><path fill="#010101" d="M552.09 47.15c5.85-1.44 12.49-1.37 17.72 1.94 4.88 2.65 8.25 7.22 11.17 11.8 10.66 18.5 13.99 39.83 19.51 60.16 4.84 18.86 9.3 37.81 13.63 56.79 2.8 11.99 6.18 23.87 8.12 36.05 8.12 41.95 17.52 83.64 27.26 125.23 7.73 35.71 16.26 71.24 24.03 106.93 1.76 7.69 3.8 15.34 5.08 23.13-1.24.38-2.48.73-3.57 1.42-36.62 23.87-73.26 47.7-109.98 71.42-3.97 2.83-8.11 5.42-12.51 7.54-.92.81-1.82 1.63-2.7 2.48-11.83 7.43-23.5 15.11-35.16 22.81-4.63 3.23-9.71 5.77-14.12 9.31.12-13.41-4.92-26.47-12.45-37.42-7.28-9.7-17.66-18.23-30.11-19.57-11.09-1.77-22.19.9-33.1 2.65-21.65 3.24-42.31 10.77-63.2 17.02-7.12 3.04-15.26 4.31-21.29 9.47.04.54.11 1.61.14 2.14 23.81-3.09 46.41-11.76 69.82-16.78 7.57-1.51 14.96-3.91 22.59-5.11 8.68-.24 17.32-1.43 26.01-1.22 11.25 1.02 21.08 8.37 26.78 17.9 5.67 9.42 9.61 20.72 7.37 31.81-2.48 12.81-11.41 22.91-19.66 32.51-5.77 6.55-13.21 13.16-22.51 12.9-8.91-.25-15.81-7.11-19.64-14.62-.29-2.88 3.9-2.94 4.68-5.47-2.91.18-5.71 1.11-8.19 2.63-9.03 5.32-16.35 13.01-25.25 18.52-23.47 15.16-48.83 28.38-76.42 33.96-14.49 2.94-29.5 3.87-44.11 1.3-21.67-3.23-42.16-13.62-57.49-29.27-3.96-4.45-7.49-9.57-8.84-15.44-1.14-6.81 1.5-13.41 3.49-19.8 6.24-18.81 17.81-35.41 31.44-49.62 25.82-25.54 58.3-44.3 93.35-53.8 5.29-1.42 10.59-3.03 16.11-3.22 10.28-.42 20.49-1.97 30.78-2.41-.09 5.55-1.69 10.96-1.54 16.54 2.13.51 2.65-1.59 3.43-2.91 4.08-8.79 6.65-18.18 9.4-27.45 12.57-41.8 25.24-83.59 37.25-125.56 18.05-64.33 36.14-128.63 54.37-192.91 5.41-19.38 10.35-38.93 17.31-57.84 4.86-13.76 10.14-27.57 18.26-39.79 5.53-7.65 13.41-13.99 22.74-16.15m35.83 193.28c-.73 1.1-1.45 2.19-2.17 3.29-.42 3.77-1.38 7.5-1.1 11.32.38 1.02.74 2.05 1.09 3.09.65.81 1.31 1.62 1.97 2.43 2.16.04 4.33.01 6.51-.06 4.52-5.84 4.4-14.54-.48-20.13-1.95-.05-3.89-.04-5.82.06m-52.03 80.32c.02 6.83 3.06 13.24 2.84 20.1-17.69-2.89-35.39-5.68-53.11-8.35-10.24-1.31-20.33-3.81-30.66-4.27.58 2.25 1.25 4.48 1.99 6.69-1.62 1.21-4.13 1.77-4.79 3.87 3.49 4.88 10.31 4.23 15.34 6.48.47 6.32.76 12.66 1.71 18.94 1.51 13.06 7.37 25.62 16.36 35.22 5.24 4.6 11.27 9.09 18.44 9.84 7.53.92 15.22-1.49 21.19-6.1 12.62-8.31 17.67-23.59 21.17-37.54 3.45 11.42 7.67 23.12 16.14 31.86 5.67 5.36 12.5 10.27 20.53 10.89 8.39 1.08 16.51-3.27 21.99-9.37 6.52-7.57 11.66-16.63 13.32-26.59 1.99-7.84.92-15.99 2.09-23.93 4.71-2.6 10.45-2.93 14.71-6.37a259.81 259.81 0 0 0-5.67-4.21c1.45-1.67 2.91-3.32 4.39-4.97-1.66-1.53-3.35-3.51-5.85-3.34-5.78-.08-11.49 1.05-17.16 2.05-14.3 1.91-28.49 4.6-42.84 6.19-5.37.4-10.85 2.97-16.17 1.32-.81-4.48-.03-9.06-.44-13.57-3.49 3.73-2.9 9.56-4.84 14.14-.5.01-1.49.05-1.98.06-1.71-6.74-3.84-13.86-8.7-19.04m-65.09 79.11c1.41 4.8 5.19 8.26 8.98 11.27 6.24 5 13.96 9.27 22.22 8.58 5.97.01 12.71-1.22 16.34-6.49-6.92-.37-13.82 2.12-20.68.37-8.9-1.29-16.33-6.69-23.24-12.05-1.04-.88-2.38-1.24-3.62-1.68m124.59 12.49c-7.39 2.11-15.08 1.04-22.62.94 2.34 2.47 5.72 3.24 8.88 4.11 8.11 2.37 17.51 1.67 24.56-3.25 2.72-1.92 5.72-3.86 7.02-7.08-5.99 1.62-11.71 4.17-17.84 5.28m-63.61 21.62c-5.58 1.03-11.04 2.98-16.79 2.7-7.6-.26-14.44 4.03-22.02 3.83-2.94-.11-5.67 1.04-8.19 2.41-4.46 2.49-9.82 2.32-14.3 4.73-5.11 2.77-10.67 4.56-15.86 7.15-1.53.76-1.03 2.93-1.59 4.26-.93.59-1.84 1.22-2.75 1.84l.48 3.68-.77.33c4.64.36 9-.94 13-3.19 9.99-2.46 19.71-5.93 29.3-9.67 5.46-1.21 10.92-2.87 16.57-2.72 3.65.21 6.54-2.63 10.12-2.86 11.35-.82 22.55-3.55 33.99-3.15 19.2-.54 38.31 2.41 57.08 6.14 10.11 4.12 21.28 5.14 31.01 10.31 2.23.81 5.31 3.21 7.18.41.22.09.67.28.9.37l-.48-.6 3.3-.56c-2.05-2.54-4.05-5.55-7.44-6.33-2.74-.64-4.82-2.49-7.07-4.01-7.96-1.99-15.56-5.18-23.26-8.01-9.34-1.87-18.82-2.99-28.21-4.62-7.12-2.26-14.66-1.96-22-2.8-6.31.98-12.66.13-18.98.86-4.44.44-8.81-1.45-13.22-.5m114.33 5.29c.33 4.83 2.89 9.02 4.94 13.29.66-.51 1.34-1.01 2.02-1.51 2.67 3.58 7.61 7.15 6.28 12.17-2.91.15-5.74.8-8.47 1.81-5.74 1.89-12.47-1.31-17.67 2.51.49 1.48.39 3.48 1.93 4.37 5.83 1.36 11.92 1.99 17.86.82 4.05-.14 7.93-2.12 12.01-1.34 1.84-3.56 2.68-7.47 2.11-11.46.43-4.01-1.85-7.45-3.78-10.73-2.96-1.82-5.01-4.83-8.22-6.27-2.26-1.02-4.26-2.48-5.73-4.49-1.1.27-2.2.54-3.28.83m-201.39 7.12c-3.33 4.12-7.18 7.76-10.66 11.74-3.12 3.61-3.2 8.69-2.38 13.15.78 3.26 3.98 5.6 7.32 5.39 5.16-.21 10.65.91 15.53-1.19l.52-1.92c-1.56-2.34-4.67-1.79-7.06-1.95-3.62-.03-8.39.15-10.41-3.49-1.31-4.33 1.99-7.72 4.08-11.09 1.8-3.62 7.09-4.94 6.16-9.77.16-.14.47-.43.63-.57-1.25-.1-2.5-.2-3.73-.3m89.25 14.4c-6.1 1.27-12.25 2.49-18.01 4.93-2.87-.64-6.68.13-7.58 3.29-.29 2.5 3.08 2.48 4.84 2.25 5.9-1.09 11.95-.49 17.84-1.64 9.58-1.62 19.33-1.83 28.97-3 2.3-.32 5.07.05 6.6-2.14 1.56-.13 3.13-.29 4.7-.47-12-4.08-24.85-4.21-37.36-3.22M373.48 602.77c-2.27 2.59-2.97 6.06-4.86 8.88.81.43 1.62.85 2.44 1.3.32.79.65 1.6.98 2.41 6.14 2.14 12.78 1.31 18.95-.27 1.05-2.66 2.18-5.29 3.42-7.86-.89-2.09-1.88-4.44-4.24-5.21-5.53-1.24-11.17.13-16.69.75z"/><path fill="#010101" d="M387.04 653.02c13.63-8.51 26.24-18.61 37.73-29.84 1.03 2.18 1.93 4.47 3.47 6.36.13.37.4 1.1.54 1.47-17.08 9.9-33.1 21.52-49.88 31.92-17.46 11.21-34.73 22.72-52.23 33.87-1.64 1.04-2.99 2.45-4.14 4-.48-8.11 1.56-16.51 5.87-23.41 1.74-3.14 5.6-3.22 8.67-4.05 17.65-3.9 34.54-10.94 49.97-20.32zm364.42 99.4c10.07-7.59 18.44-17.41 24.22-28.62-.38 4.64-.04 9.38-.86 13.97-6.23 11.25-15.38 20.6-25.5 28.43-23.34 17.54-50.33 29.78-78.24 38.02-43.81 12.39-89.91 14.03-135.09 11.04-22.73-1.83-45.58-3.44-67.97-7.97-25-5.74-49.91-13.25-72.46-25.72-8.44-4.21-16.77-8.63-25.13-12.99-16.62-9.4-32.17-20.85-45.68-34.36-2.09-1.48-1.17-4.07-.96-6.16 30.72 24.93 65.49 45.04 102.88 58.11 31.63 11.06 64.95 16.9 98.37 18.53 7.62 1.06 15.33.77 23 1.06 9.32.92 18.71.56 28.05.44 6.93-.98 13.94-.29 20.87-1.12 25.9-1.85 51.84-5.57 76.69-13.35 27.89-8.64 54.19-22.2 77.81-39.31zm-393.03 32.3c13.45-2.8 28.18 4.59 33.83 17.14 4.16 8.41 3.85 18.65-.34 26.98-3.85 7.74-11.16 13.55-19.45 15.89-9.83 2.54-20.89.16-28.52-6.63-9.13-7.81-12.81-21.18-8.96-32.57 3.41-10.44 12.61-18.75 23.44-20.81m-13.08 15.66c-4.44 5.52-5.57 12.95-4.64 19.82.33.05.98.14 1.31.19 6.94-10.24 15.43-19.35 22.79-29.31-7.54-.31-14.88 3.37-19.46 9.3m29.51-6.5c2.13 11.97 5.16 23.77 6.99 35.79.72-.1 1.45-.18 2.18-.26 2.65-5.41 5.31-11.32 4.17-17.5-1.14-7.58-5.94-15.32-13.34-18.03m-16.95 18.34c4.33 1.2 8.7 2.21 13.03 3.38-.39-5.34-1.85-10.51-2.79-15.75-3.61 3.95-6.77 8.29-10.24 12.37m-5.39 6.92c-2.41 3.07-5.07 5.98-7.2 9.26-.39 1.74 1.37 2.83 2.36 3.99 7.26 6.96 18.79 8.3 27.75 3.99-.92-4.24-1.39-8.59-2.87-12.68-6.79-1-13.34-3.14-20.04-4.56z"/><path fill="#ea563d" d="M587.92 240.43c1.93-.1 3.87-.11 5.82-.06 4.88 5.59 5 14.29.48 20.13-2.18.07-4.35.1-6.51.06-.66-.81-1.32-1.62-1.97-2.43-.35-1.04-.71-2.07-1.09-3.09-.28-3.82.68-7.55 1.1-11.32.72-1.1 1.44-2.19 2.17-3.29zM479.76 446.48c28.91-9.92 59.88-12.24 90.23-10.69 10.56.51 20.89 2.9 31.28 4.66 14.37 2.39 28.01 7.93 41.12 14.11 2.62 1.09 4.6 3.15 6.27 5.38l.48.6c-.23-.09-.68-.28-.9-.37-32.4-13.93-68.01-20.23-103.22-18.36-22.66 1.54-45.18 5.6-66.82 12.52-9.35 2.82-18.34 6.7-27.44 10.24l-.48-3.68c.91-.62 1.82-1.25 2.75-1.84 8.36-5.25 17.45-9.25 26.73-12.57z"/><path fill="#ea563d" d="M646.66 439.92c5.61 4.44 12.9 7.15 16.56 13.68 2.87 4.02 3.81 10.75-.67 13.99-5.12 3.4-11.63 3.34-17.55 3.72-3.39-.7-8.34.16-10.05-3.64 5.46-.42 11.01.08 16.4-1.14 3.87-.88 8.21-.93 11.3-3.77-.24-1.79.1-3.77-.92-5.35-4.46-6.29-11.05-10.88-15.07-17.49zm-201.94 6.46c1.23.1 2.48.2 3.73.3-.16.14-.47.43-.63.57-4.29 3.97-8.18 8.5-10.94 13.67-1.65 2.86-1.3 6.24-1.39 9.41 6.03 3.06 12.97 3 19.56 3.22l-.52 1.92c-4.88 2.1-10.37.98-15.53 1.19-3.34.21-6.54-2.13-7.32-5.39-.82-4.46-.74-9.54 2.38-13.15 3.48-3.98 7.33-7.62 10.66-11.74zm89.25 14.4c12.51-.99 25.36-.86 37.36 3.22-1.57.18-3.14.34-4.7.47-18.99 1.5-37.9 4.3-56.93 4.92 2.04-1.3 4.1-2.57 6.26-3.68 5.76-2.44 11.91-3.66 18.01-4.93zm210.17 21.04c-3.25-7.63 8.74-15.33 14.49-9.5 2.38 1.86.85 5.56-1.18 7.07-4.21 1.71-8.79 2.31-13.31 2.43zm-194.29 70.22c.88-.85 1.78-1.67 2.7-2.48 1.45.41 3.47.12 4.16 1.82 2.46 4.37 3.13 10.95-1.17 14.43-2.93.83-4.85-2.25-5.97-4.45-1.6-2.95-.69-6.35.28-9.32zm343.65 20.4c1.68-.6 3.82-.33 4.58 1.53 1.79 3.76.33 8.14-1.45 11.63-.88 1.97-2.52 3.66-4.69 4.08-2.92-.35-4.84-3.6-4.54-6.38.36-4.19 2.35-8.69 6.1-10.86zm-516.65 32.39c4.64-1.7 9.88-1.71 14.53.01.1 1.57.21 3.14.32 4.72-3.87 3.77-9.18 6.65-14.73 5.8-2.29-.15-3.45-2.52-4.1-4.41-.98-2.76 1.72-5.1 3.98-6.12zm289.52 58.5c2.2-1.07 4.97.09 5.89 2.33 2.09 4.36 3.85 9.98.72 14.31-2.75 4.95-11.43 1.38-10.93-3.93-.29-4.47.16-10.06 4.32-12.71zm-221.89 3.15c1.02-1.96 3.39-2.01 5.25-2.51 3.42 5.34 2.84 12.38-.09 17.81-2.38-.18-5.51.95-7-1.53-2.99-4.29-.89-9.91 1.84-13.77zm18.32 360.45c3.23-.25 7.22-1.22 9.78 1.43 2.24 2.29 6.02 4.35 5.06 8.11-6.32 1.79-14.89-2.3-14.84-9.54z"/><g fill="#231f20"><path d="M535.89 320.75c4.86 5.18 6.99 12.3 8.7 19.04.49-.01 1.48-.05 1.98-.06 1.94-4.58 1.35-10.41 4.84-14.14.41 4.51-.37 9.09.44 13.57 5.32 1.65 10.8-.92 16.17-1.32 14.35-1.59 28.54-4.28 42.84-6.19 5.67-1 11.38-2.13 17.16-2.05 2.5-.17 4.19 1.81 5.85 3.34-1.48 1.65-2.94 3.3-4.39 4.97 1.91 1.38 3.8 2.78 5.67 4.21-4.26 3.44-10 3.77-14.71 6.37-1.17 7.94-.1 16.09-2.09 23.93-1.66 9.96-6.8 19.02-13.32 26.59-5.48 6.1-13.6 10.45-21.99 9.37-8.03-.62-14.86-5.53-20.53-10.89-8.47-8.74-12.69-20.44-16.14-31.86-3.5 13.95-8.55 29.23-21.17 37.54-5.97 4.61-13.66 7.02-21.19 6.1-7.17-.75-13.2-5.24-18.44-9.84-8.99-9.6-14.85-22.16-16.36-35.22-.95-6.28-1.24-12.62-1.71-18.94-5.03-2.25-11.85-1.6-15.34-6.48.66-2.1 3.17-2.66 4.79-3.87-.74-2.21-1.41-4.44-1.99-6.69 10.33.46 20.42 2.96 30.66 4.27 17.72 2.67 35.42 5.46 53.11 8.35.22-6.86-2.82-13.27-2.84-20.1m-62.14 25.55c-1.33 12.4.14 25.56 6.86 36.32 4.48 7.55 10.23 14.79 18.28 18.72 5.06 2.01 10.75 1.67 16.01.67 1.02-.35 2.05-.7 3.08-1.04 1.29-.7 2.59-1.4 3.89-2.1 7.18-5.06 11.82-12.85 14.85-20.95.41-1 .83-1.99 1.26-2.97.29-1.02.58-2.03.88-3.05.49-1.58.92-3.19 1.44-4.76.35-3.79.41-7.59.1-11.38-2.78-.15-5.59-.25-8.3-.94-4.12-.26-8.17-1.07-12.27-1.43-.85 4.37-3.35 8.4-7.69 9.98-3.75.58-7.73-.2-10.33-3.15-2.96-2.68-2.75-6.93-2.49-10.56-3.85-.36-7.63-1.17-11.48-1.5-2.89-.62-5.87-.63-8.74-1.35-1.79-.21-3.57-.37-5.35-.51m119.03 5.47c-.83 2.5-1.47 5.07-2.47 7.51-1.52 1.56-3.3 2.92-5.29 3.8-2.41.26-4.78-.43-7.14-.76a19.462 19.462 0 0 1-4.4-6.99c-6.67 1.2-13.38 2.21-20.09 3.21-.16.63-.47 1.89-.63 2.52.98 5.07 2.45 10.03 4.41 14.82.31.99.64 1.98.98 2.97.5 1.43 1 2.87 1.49 4.32 2.58 5.49 6.31 10.4 11.05 14.2 2.31 1.47 4.7 2.8 7.14 4.06 2.34.84 4.79 1.23 7.18 1.9 2.61-.92 5.58-.55 7.98-2.08 7.57-4.37 13.3-11.44 17.27-19.13 1.61-3.56 2.87-7.27 3.96-11.02.2-1.42.42-2.84.66-4.25 1.13-5.82.78-11.79.75-17.68-7.68.26-15.18 2.3-22.85 2.6z"/><path d="M470.8 399.86c1.24.44 2.58.8 3.62 1.68 6.91 5.36 14.34 10.76 23.24 12.05 6.86 1.75 13.76-.74 20.68-.37-3.63 5.27-10.37 6.5-16.34 6.49-8.26.69-15.98-3.58-22.22-8.58-3.79-3.01-7.57-6.47-8.98-11.27zm124.59 12.49c6.13-1.11 11.85-3.66 17.84-5.28-1.3 3.22-4.3 5.16-7.02 7.08-7.05 4.92-16.45 5.62-24.56 3.25-3.16-.87-6.54-1.64-8.88-4.11 7.54.1 15.23 1.17 22.62-.94zm-63.61 21.62c4.41-.95 8.78.94 13.22.5 6.32-.73 12.67.12 18.98-.86 7.34.84 14.88.54 22 2.8 9.39 1.63 18.87 2.75 28.21 4.62 7.7 2.83 15.3 6.02 23.26 8.01 2.25 1.52 4.33 3.37 7.07 4.01 3.39.78 5.39 3.79 7.44 6.33l-3.3.56c-1.67-2.23-3.65-4.29-6.27-5.38-13.11-6.18-26.75-11.72-41.12-14.11-10.39-1.76-20.72-4.15-31.28-4.66-30.35-1.55-61.32.77-90.23 10.69-9.28 3.32-18.37 7.32-26.73 12.57.56-1.33.06-3.5 1.59-4.26 5.19-2.59 10.75-4.38 15.86-7.15 4.48-2.41 9.84-2.24 14.3-4.73 2.52-1.37 5.25-2.52 8.19-2.41 7.58.2 14.42-4.09 22.02-3.83 5.75.28 11.21-1.67 16.79-2.7z"/><path d="M646.11 439.26c1.08-.29 2.18-.56 3.28-.83 1.47 2.01 3.47 3.47 5.73 4.49 3.21 1.44 5.26 4.45 8.22 6.27 1.93 3.28 4.21 6.72 3.78 10.73.57 3.99-.27 7.9-2.11 11.46-4.08-.78-7.96 1.2-12.01 1.34-5.94 1.17-12.03.54-17.86-.82-1.54-.89-1.44-2.89-1.93-4.37 5.2-3.82 11.93-.62 17.67-2.51 2.73-1.01 5.56-1.66 8.47-1.81 1.33-5.02-3.61-8.59-6.28-12.17-.68.5-1.36 1-2.02 1.51-2.05-4.27-4.61-8.46-4.94-13.29m.55.66c4.02 6.61 10.61 11.2 15.07 17.49 1.02 1.58.68 3.56.92 5.35-3.09 2.84-7.43 2.89-11.3 3.77-5.39 1.22-10.94.72-16.4 1.14 1.71 3.8 6.66 2.94 10.05 3.64 5.92-.38 12.43-.32 17.55-3.72 4.48-3.24 3.54-9.97.67-13.99-3.66-6.53-10.95-9.24-16.56-13.68z"/><path d="M478.2 454.33c21.64-6.92 44.16-10.98 66.82-12.52 35.21-1.87 70.82 4.43 103.22 18.36-1.87 2.8-4.95.4-7.18-.41-9.73-5.17-20.9-6.19-31.01-10.31-18.77-3.73-37.88-6.68-57.08-6.14-11.44-.4-22.64 2.33-33.99 3.15-3.58.23-6.47 3.07-10.12 2.86-5.65-.15-11.11 1.51-16.57 2.72-9.59 3.74-19.31 7.21-29.3 9.67-4 2.25-8.36 3.55-13 3.19l.77-.33c9.1-3.54 18.09-7.42 27.44-10.24z"/><path d="M436.88 460.92c2.76-5.17 6.65-9.7 10.94-13.67.93 4.83-4.36 6.15-6.16 9.77-2.09 3.37-5.39 6.76-4.08 11.09 2.02 3.64 6.79 3.46 10.41 3.49 2.39.16 5.5-.39 7.06 1.95-6.59-.22-13.53-.16-19.56-3.22.09-3.17-.26-6.55 1.39-9.41zm71.5 8.08c.9-3.16 4.71-3.93 7.58-3.29-2.16 1.11-4.22 2.38-6.26 3.68 19.03-.62 37.94-3.42 56.93-4.92-1.53 2.19-4.3 1.82-6.6 2.14-9.64 1.17-19.39 1.38-28.97 3-5.89 1.15-11.94.55-17.84 1.64-1.76.23-5.13.25-4.84-2.25zm-134.9 133.77c5.52-.62 11.16-1.99 16.69-.75 2.36.77 3.35 3.12 4.24 5.21-1.24 2.57-2.37 5.2-3.42 7.86-6.17 1.58-12.81 2.41-18.95.27-.33-.81-.66-1.62-.98-2.41-.82-.45-1.63-.87-2.44-1.3 1.89-2.82 2.59-6.29 4.86-8.88m3.37 2.06c-2.26 1.02-4.96 3.36-3.98 6.12.65 1.89 1.81 4.26 4.1 4.41 5.55.85 10.86-2.03 14.73-5.8-.11-1.58-.22-3.15-.32-4.72-4.65-1.72-9.89-1.71-14.53-.01zm171.84 145.7c6.8 1.16 12.76-2.4 18.7-5.05-.01 1.95 0 3.92.05 5.89-3.46 3.46-8.29 6.81-13.43 5.86-2.78-.97-5.04-2.95-7.54-4.43.73-.77 1.47-1.52 2.22-2.27zm-8.51 13.68c4.08-.42 7.24 2.12 10.67 3.81 7.5 1.78 15.03-.66 22.16-2.88-.97 4.81-5.87 7.54-10.15 9.02-5.12.71-10.77 1.07-15.47-1.49-3.4-1.69-7.56-4.02-7.21-8.46zM688.4 856.4c3.2-3.79 5.12-8.71 9.32-11.58-2.47 8.2-7.22 15.47-10.65 23.28-3.15 7.35-8.64 14.41-7.72 22.84.4 4.82 4.68 7.87 8.18 10.61 6.22 4.43 12.52 8.82 19.27 12.43-1.08 4.45-2.01 8.97-3.82 13.19-17.7 14.92-38.3 26.3-60.28 33.52-23.4 7.66-48.09 11.4-72.7 11.15-15.52.01-31.13-.74-46.34-3.97-.06 2.84.73 5.87-.25 8.62-4.6 7.47-13.32 10.59-20.67 14.6-3.15 1.19-6.25 2.5-9.33 3.86-16.17 5.7-33.26 8.73-50.37 9.52-6.59-.22-13.11.94-19.7.92-.25 1.08-.47 2.18-.68 3.3-.82-1.24-.95-3.18-2.49-3.69-3.89-1.27-8.01-1.48-12.02-2.1-5.51-2.62-11.03-5.24-16.65-7.6-3.72-1.81-7.76-3.04-11.02-5.67-7.45-5.33-12.82-13.08-16.8-21.22-5.46-12.4-5.6-26.21-7.02-39.46-.56-12.7-1.78-25.44-4.7-37.83-1.45-4.57-2.78-9.18-4.35-13.71-1.19-3.45-4.3-5.65-6.34-8.55-3.42-4.64-7.28-9.06-9.82-14.27l-.6-1.33c3.27.09 6.78-.67 9.9.48 2.97 3.59 5.23 7.7 8.1 11.37 8.82 12.18 19.42 22.99 31.03 32.53 4.43-9.5 10.19-18.5 12.91-28.7 1.55-5.31.94-10.88.37-16.28 1.49.01 2.98.04 4.48.07 1.09 4.66 1.25 9.53.26 14.24-2.08 11.87-9.92 21.58-13.88 32.74 6.85 6.08 14.84 10.79 22.09 16.4-9.06-2.29-16.35-8.82-25.33-11.26-.99 4.62-2.76 9.38-1.71 14.15 1.93 6.17 7.87 10.61 14.16 11.54 6.96.77 13.85-1.05 20.8-1.04 6.1-.12 11.59 3.49 15.65 7.77 5.6 6.06 7.1 14.8 6.41 22.77-2.16 12.54-10.13 23.52-10.77 36.39 14.18-1.21 28.45-.85 42.61-2.35 7.81-1.49 15.47-3.71 23.07-6.04 9-3.16 18.29-6.37 25.89-12.31-.24-3.41.35-8.51-3.87-9.66-8.27-2.84-16.7-5.24-24.97-8.08-11.57-3.58-21.79-10.52-30.64-18.66-.03-.57-.09-1.71-.11-2.28 8.17 3.24 15.9 7.6 24.35 10.16 29.6 8.64 60.51 13 91.36 12.29 27.88-.62 55.9-4.69 82.13-14.41 15.48-5.59 30.34-13.05 43.68-22.73-8.01-5.92-16.58-11.5-22.57-19.61-2.35-3.12-4.92-6.6-4.59-10.73.38-13.7 8.7-25.21 16.74-35.62m-331.01 30.93c1.37 3.75 2.58 7.57 3.44 11.48 4.38 19.26 6.29 38.96 8.1 58.59 1.06 9.95 6.31 19.29 14.05 25.61 10.74 9.05 25.19 11.49 38.76 12.71 1.46-10.06 5.06-19.6 8.01-29.28 2.08-5.73 2.3-12.05 1.18-17.99-1.73-6.52-6.38-13.62-13.74-14.14-7.08-.58-14.17.37-21.22.84-9.03-.27-19.26-5.26-21.38-14.76-1.68-6.37 1.4-12.4 3.11-18.37-6.83-4.82-13.2-10.28-20.31-14.69z"/><path d="M797.24 852.67c1.35.02 2.72.06 4.09.1 2.12 9.69 5.12 19.86 2.26 29.75-1.01 3.99-3.53 7.31-6.23 10.33 5.69 4.11 11.92 7.91 15.74 14.01 1.67 2.96 4.41 5.75 4.29 9.36l-1.4.52c-5.27-5.52-9.92-11.76-16.17-16.26-17.66-12.8-38.97-20.65-60.77-22.04-5.77-.33-11.57.22-17.32-.52-7.05-.61-14.72 0-20.79 3.97-3.32 2.02-5.1 5.64-7.95 8.17-1.6-1.51-2.04-4-.96-5.93 2.7-5.05 7.1-9.43 12.62-11.27 4.1-1.05 8.32-1.5 12.5-2.18 21.51-4.09 43.74 1.67 62.98 11.37 5 2.47 9.74 5.41 14.62 8.12 3.63-3.34 5.49-8.24 5.19-13.14-.02-8.2-2.26-16.19-2.7-24.36z"/><path d="M824.44 852.79c2.85-.02 5.72-.07 8.59-.22l.47-.02c3.56 17.22 4.93 34.83 5.25 52.38.54 11.64-3.49 23.67-11.69 32.07-5.68 5.78-13.46 8.8-21.24 10.5-5.15 1.51-10.55 1.09-15.84 1.12 1.45-3.11 3.16-6.1 4.89-9.05 2.36.04 4.74.13 7.11.1 6.77.12 13.35-2.83 18.35-7.27 4.74-4.14 5.89-10.65 7.37-16.45 4.5-20.95.9-42.48-3.26-63.16z"/></g><path fill="#d11d1c" d="M744.11 446.01c29.69-11.8 61.08-19.44 92.93-22.31 6.56-.53 13.12.4 19.61 1.3 4.59.71 9.02 2.53 12.24 5.98 7.37 7.51 13.37 16.56 16.68 26.6 3.01 6.28 5.04 12.96 7.72 19.39 4.44 11.56 7.48 23.59 11.51 35.29 1.03 4.73 1.68 9.54 2.92 14.23 2.04 5.97 1.94 12.35 2.84 18.54 2.18 16.03.37 32.29-3.2 47.98-4.26 14.19-9.91 29.1-22.13 38.37-6.2 4.22-13.45 8.17-21.22 6.98-9.84-1.5-18.53-7.14-25.57-13.95-4.11-4.82-7.68-10.88-6.87-17.46.6-2.77 1.91-5.34 2.54-8.11 3.32-.03 6.64-.04 9.96-.12 3.34 6.67 6.05 13.87 11.67 19.07-2.83-9.6-4.9-19.43-7.67-29.05l-1.21-.69c-.82 1.4-.98 3.56-2.84 3.98-5.69 1.42-12.6-.22-16.14-5.15-2.27-5.03 2.42-11.87 7.99-11.23 4.95 0 9.8-1.23 14.76-1.02.28-5.02.42-10.19-1.32-14.99-2.78-7.86-6.31-15.75-12.23-21.78 1.71-1.48 3.45-2.92 5.21-4.35-3.28-.06-6.8-.6-9.75 1.19-20.82 10.25-37.23 27.49-50.77 46-4.32 5.54-7.82 11.63-11.43 17.63-3.43 6.06-5.09 12.91-8.19 19.11-.59 1.21-.69 2.49-.29 3.83-6.47-10.72-13.68-20.99-20.98-31.16-4.68-6.09-9.24-12.53-15.74-16.84 3.99 6.06 6.71 12.86 10.71 18.94 12.87 23.89 28.87 46.57 36.16 73.02 2 5.73 2.37 11.81 3.33 17.76.59 3.6-.56 7.21-.06 10.82.8 6.72-.71 13.44-2.37 19.92-3.77 15.58-14.68 28.42-27.18 37.96-9.23 5.85-18.51 11.62-27.84 17.31-8.52 5.27-17.93 8.81-26.99 12.99-19.66 8-40.4 12.88-61.21 16.78-28.13 3.55-56.7 6.51-84.99 2.87-15.57-.45-31.11-2.13-46.56-4.15-31.03-3.83-62.01-10.79-90.43-24.15-21.39-10.01-42.17-21.55-61.03-35.83-7.95-6.04-16.22-12.46-20.53-21.75-2.43-4.34-3.65-9.17-4.31-14.06.17-.22.51-.68.69-.9 1.15-1.55 2.5-2.96 4.14-4 17.5-11.15 34.77-22.66 52.23-33.87 16.78-10.4 32.8-22.02 49.88-31.92-.14-.37-.41-1.1-.54-1.47l-.01-.02c4.76 7.52 14.21 10.61 22.76 10.2 10.22.57 19.42-5.28 26.61-12 12.14-11.4 21.77-26.62 22.97-43.56 4.41-3.54 9.49-6.08 14.12-9.31 11.66-7.7 23.33-15.38 35.16-22.81-.97 2.97-1.88 6.37-.28 9.32 1.12 2.2 3.04 5.28 5.97 4.45 4.3-3.48 3.63-10.06 1.17-14.43-.69-1.7-2.71-1.41-4.16-1.82 4.4-2.12 8.54-4.71 12.51-7.54 36.72-23.72 73.36-47.55 109.98-71.42 1.65-.53 3.39-.02 5.07.14-.2 8.76 3.96 16.56 6.79 24.58.93.24 1.87.48 2.82.74.57-6.08-1.59-11.89-1.91-17.87 8.3-6.42 16.96-12.53 26.37-17.24.21-.47.62-1.42.82-1.9 2.62-.37 5.07-1.39 7.31-2.79 6.91-4.13 14.59-6.7 21.8-10.25m.03 35.81c4.52-.12 9.1-.72 13.31-2.43 2.03-1.51 3.56-5.21 1.18-7.07-5.75-5.83-17.74 1.87-14.49 9.5m149.36 90.62c-3.75 2.17-5.74 6.67-6.1 10.86-.3 2.78 1.62 6.03 4.54 6.38 2.17-.42 3.81-2.11 4.69-4.08 1.78-3.49 3.24-7.87 1.45-11.63-.76-1.86-2.9-2.13-4.58-1.53m-227.13 90.89c-4.16 2.65-4.61 8.24-4.32 12.71-.5 5.31 8.18 8.88 10.93 3.93 3.13-4.33 1.37-9.95-.72-14.31-.92-2.24-3.69-3.4-5.89-2.33m-221.89 3.15c-2.73 3.86-4.83 9.48-1.84 13.77 1.49 2.48 4.62 1.35 7 1.53 2.93-5.43 3.51-12.47.09-17.81-1.86.5-4.23.55-5.25 2.51m104.21 84.05c-.75.75-1.49 1.5-2.22 2.27 2.5 1.48 4.76 3.46 7.54 4.43 5.14.95 9.97-2.4 13.43-5.86-.05-1.97-.06-3.94-.05-5.89-5.94 2.65-11.9 6.21-18.7 5.05m-8.51 13.68c-.35 4.44 3.81 6.77 7.21 8.46 4.7 2.56 10.35 2.2 15.47 1.49 4.28-1.48 9.18-4.21 10.15-9.02-7.13 2.22-14.66 4.66-22.16 2.88-3.43-1.69-6.59-4.23-10.67-3.81zm181.55 113.71c5.75.74 11.55.19 17.32.52 21.8 1.39 43.11 9.24 60.77 22.04-4.99 21.63-14.43 42.11-26.72 60.55-5.58 8.85-12.49 16.79-20 24.04-6.87 7.08-14.67 13.62-23.99 17.17-5.68 2.27-12.13 3.47-18.11 1.73-6.52-2-9.31-9.16-10.9-15.17-3.1-19.26 4.89-37.64 9.83-55.85 3.65-12.06 6.63-24.31 9.32-36.62 1.2-6.08 2.65-12.17 2.48-18.41zm-278.69 126.55c17.11-.79 34.2-3.82 50.37-9.52 3.14 4.74 5.7 9.93 9.61 14.13 6.9 7.38 14.23 14.37 22.16 20.65 5.11 4.09 10.17 9.49 10.63 16.37.16 5.24-4.31 9.16-8.78 11.04-8.9 3.61-18.7 2.03-27.85.4-20.7-4.29-40.96-12.66-57.08-26.58-7.85-6.09-13.99-14.05-19.44-22.27.21-1.12.43-2.22.68-3.3 6.59.02 13.11-1.14 19.7-.92m19.76 22.46c-.05 7.24 8.52 11.33 14.84 9.54.96-3.76-2.82-5.82-5.06-8.11-2.56-2.65-6.55-1.68-9.78-1.43z"/></svg>