<svg xmlns="http://www.w3.org/2000/svg" width="128pt" height="128pt" viewBox="0 0 128 128"><path fill="#eee" d="M46.2 17.75h7.14c-.04 3.71-.04 7.42.01 11.13-.8 1.3-1.65 2.57-2.5 3.84-.87-.88-1.75-1.76-2.61-2.65-.05 1.92.22 4.02-1.2 5.57-.25-.88-.77-2.64-1.02-3.51.39-4.78.2-9.59.18-14.38zM6.16 19.99c3.16-1.94 6.89-2.47 10.55-2.25 9.23 6.9 18.97 13.12 28.18 20.04.34.48 1.02 1.45 1.36 1.93 1.82 2 4.53 2.15 7.05 2.17.02 3.81.02 7.62.02 11.43-2.22.01-4.45.01-6.67.03-13.41-11.22-27-22.23-40.49-33.35zm68.52-2.24h7.11c-.05 6.94-.02 13.88-.03 20.82 9.82-6.98 19.82-13.7 29.53-20.83 1.95.01 3.91.06 5.86.23-11.64 8.53-23.64 16.58-35.39 24.96.01.83.02 2.48.03 3.3 3.31-.16 7.11.79 9.87-1.59 10.76-7.65 21.67-15.09 32.39-22.8 1.88 2.24 3.27 4.86 3.95 7.7v2.68c-3.11 2.14-6.2 4.3-9.27 6.49-1.18-.8-2.4-1.56-3.61-2.33.52 1.26 1.06 2.5 1.54 3.77-2.91 2.01-5.8 4.03-8.67 6.08 3.23.01 6.47.01 9.71.01-.67 2.87-2.04 5.66-4.74 7.12a14.18 14.18 0 0 0-6.82-.14c-4.44-2.73-5.25-8.11-4.75-12.9-3.54 3.49-5.8 8.19-5.23 13.26-.63-.12-1.88-.37-2.51-.49a88.718 88.718 0 0 0-8.02-5.75c.68 1.98 1.42 3.93 2.03 5.94-.39-.02-1.17-.04-1.56-.05l-.77.02c-3.55.08-7.1.07-10.65.07.01-11.86.01-23.71 0-35.57zM10.2 25.11c.95 1.37 2.17 2.47 3.94 2.56-2.07.81-1.94 2.4-1.23 4.09-.76-.53-1.52-1.06-2.28-1.58l-2.24 1.7c.24-.91.47-1.82.71-2.73-.67-.54-1.35-1.07-2.02-1.6 2.02.23 3.06-.59 3.12-2.44zm7.62 7.04c.5 1.77 1.75 2.73 3.7 2.54-.53.38-1.57 1.13-2.09 1.51l-.04 2.57c-.12-.13-.35-.39-.46-.52l-1.04-.96-2.31 1.65c.91-1.93.43-3.34-1.42-4.24 1.85.09 3.2-.69 3.66-2.55zm-7.18 6.99c.36.82.72 1.64 1.08 2.45.59.05 1.77.16 2.36.21l.31.03-.63.4c-.4.27-1.21.8-1.62 1.06.29.85.57 1.71.87 2.56-1.57-1.05-3.17-1.73-4.51.22.9-1.89.21-3.32-1.36-4.37 1.91.18 3.24-.54 3.5-2.56zm11.2 2.51c1.42-.32 2.48-1.14 3.19-2.48.32 1.99 1.48 2.84 3.48 2.55-.53.41-1.6 1.23-2.13 1.64.24.65.71 1.96.95 2.61-.62-.37-1.84-1.12-2.46-1.5-.76.47-1.52.94-2.27 1.42.68-1.48.33-2.83-.64-4.04zm104.39 4.25c.44.13 1.33.4 1.77.53v3.67c-1.15-1.11-1.98-2.56-1.77-4.2zM14.12 48.82c1.92.22 3.26-.59 3.79-2.5.28 1.95 1.36 2.77 3.24 2.45-1.47 1.1-2.15 2.46-1.01 4.17-1.6-1.05-3.26-1.62-4.63.27 1.16-2.01.31-3.4-1.39-4.39zm14.23-.06c2.04.39 3.26-.6 3.65-2.63.4 1.97 1.57 2.98 3.56 2.65-1.89.99-2.21 2.56-1.26 4.43-.57-.43-1.72-1.28-2.3-1.7-.58.43-1.73 1.28-2.31 1.7 1-1.91.66-3.48-1.34-4.45zM6.87 55.99c1.83.03 3.26-.7 3.97-2.43.37 1.36 1.21 2.19 2.54 2.49-.03.12-.1.36-.13.49l-1.05 3.03c-1.37-1.01-2.64-.08-3.87.62.26-.95.5-1.89.75-2.84-.74-.46-1.47-.91-2.21-1.36zm16.21.38c.59-.96 1.18-1.92 1.77-2.89.61 1.6 1.71 2.58 3.51 2.36-1.76 1.22-2.11 2.78-1.06 4.68-.91-.61-1.8-1.24-2.68-1.89-.41.42-1.23 1.25-1.64 1.66.02-1.31.06-2.61.1-3.92zm12.28-.6c2.12.55 3.37-.45 3.67-2.53.48 1.99 1.71 2.99 3.78 2.64-.72.51-1.44 1.03-2.15 1.56.2.73.62 2.19.83 2.93-.57-.43-1.72-1.27-2.29-1.7-.62.4-1.85 1.19-2.47 1.58 1.24-1.96.59-3.48-1.37-4.48zM0 67.53c5.22.07 10.45-.24 15.65.25 2.35.27 4.73.31 7.09-.03 10.24-.52 20.51-.09 30.76-.21-1.2 2.3-2.23 4.69-3.01 7.17-16.83-.06-33.66-.03-50.49-.02zm127.31-.22h.69v5.72c-1.45-1.57-2.04-3.89-.69-5.72zm-71.16.21c2.54.02 5.08.05 7.62.11 1.51 1.13 3 2.28 4.46 3.48.05 1.21.07 2.41.04 3.62-3.9-.08-7.79-.07-11.69.02-.43-2.39-.55-4.82-.43-7.23zM0 81.75c16.43-.02 32.86 0 49.29-.01-.04 2.39.07 4.78.41 7.15-16.57-.02-33.13-.01-49.7-.01zM0 95.9c13.29-.04 26.57.01 39.86-.02-.82 2.35-1.31 4.81-1.5 7.29-12.19.05-24.39-.12-36.59.1-.69-1.57-1.3-3.18-1.77-4.82zm40.43-.03l4.25-.04c-.17 1.33.6 3.21-.87 4.04-2.61 1.12-2.73-2.39-3.38-4z"/><path fill="#253274" d="M16.71 17.74c9.83.04 19.66.01 29.49.01.02 4.79.21 9.6-.18 14.38-.52 1.85-.92 3.73-1.13 5.65-9.21-6.92-18.95-13.14-28.18-20.04zm65.08.01c9.83.01 19.66.02 29.5-.01-9.71 7.13-19.71 13.85-29.53 20.83.01-6.94-.02-13.88.03-20.82zM0 29.39c.86-3.76 3.09-7.08 6.16-9.4 13.49 11.12 27.08 22.13 40.49 33.35 5.65 4.83 11.59 9.32 17.12 14.29-2.54-.06-5.08-.09-7.62-.11.19-1.66.46-3.3.69-4.95-1.15 1.63-2.33 3.25-3.34 4.97-10.25.12-20.52-.31-30.76.21.44-.4 1.33-1.22 1.78-1.62.8-1.2 1.49-2.47 2.21-3.72-.63-.71-1.27-1.42-1.91-2.12l-.75 2.17c-.28-.55-.82-1.63-1.09-2.17.41-.41 1.23-1.24 1.64-1.66.88.65 1.77 1.28 2.68 1.89-1.05-1.9-.7-3.46 1.06-4.68-1.8.22-2.9-.76-3.51-2.36-.59.97-1.18 1.93-1.77 2.89-.73-1.15-1.46-2.29-2.22-3.43-.02 2.14-.6 3.99-2.91 4.44l-.92-3.49c-.35.67-.69 1.35-1.04 2.02.09 1.5.16 3 .22 4.51-1.96-.43-2.62-2.12-2.96-3.88.03-.13.1-.37.13-.49-1.33-.3-2.17-1.13-2.54-2.49-.71 1.73-2.14 2.46-3.97 2.43.74.45 1.47.9 2.21 1.36-.25.95-.49 1.89-.75 2.84 1.23-.7 2.5-1.63 3.87-.62.05 2.07.26 4.22 1.47 5.97.5.56 1.49 1.68 1.98 2.24-5.2-.49-10.43-.18-15.65-.25zm10.2-4.28c-.06 1.85-1.1 2.67-3.12 2.44.67.53 1.35 1.06 2.02 1.6-.24.91-.47 1.82-.71 2.73l2.24-1.7c.76.52 1.52 1.05 2.28 1.58-.71-1.69-.84-3.28 1.23-4.09-1.77-.09-2.99-1.19-3.94-2.56m7.62 7.04c-.46 1.86-1.81 2.64-3.66 2.55 1.85.9 2.33 2.31 1.42 4.24l2.31-1.65 1.04.96c-.27.45-.79 1.36-1.05 1.81-.28-.17-.83-.52-1.1-.69-.83.88-1.71 1.72-2.7 2.43-.59-.05-1.77-.16-2.36-.21-.36-.81-.72-1.63-1.08-2.45-.26 2.02-1.59 2.74-3.5 2.56 1.57 1.05 2.26 2.48 1.36 4.37 1.34-1.95 2.94-1.27 4.51-.22-.3-.85-.58-1.71-.87-2.56.41-.26 1.22-.79 1.62-1.06l.82.05c.15 3.28 4.26 3.82 5.95 1.38.46-.62.93-1.22 1.43-1.81.97 1.21 1.32 2.56.64 4.04.75-.48 1.51-.95 2.27-1.42.62.38 1.84 1.13 2.46 1.5-.24-.65-.71-1.96-.95-2.61.53-.41 1.6-1.23 2.13-1.64-2 .29-3.16-.56-3.48-2.55-.71 1.34-1.77 2.16-3.19 2.48-.63.01-1.91.05-2.54.07.02-.74.07-2.21.09-2.95l.04-2.57c.52-.38 1.56-1.13 2.09-1.51-1.95.19-3.2-.77-3.7-2.54m-3.7 16.67c1.7.99 2.55 2.38 1.39 4.39 1.37-1.89 3.03-1.32 4.63-.27-1.14-1.71-.46-3.07 1.01-4.17-1.88.32-2.96-.5-3.24-2.45-.53 1.91-1.87 2.72-3.79 2.5m14.23-.06c2 .97 2.34 2.54 1.34 4.45.58-.42 1.73-1.27 2.31-1.7.58.42 1.73 1.27 2.3 1.7-.95-1.87-.63-3.44 1.26-4.43-1.99.33-3.16-.68-3.56-2.65-.39 2.03-1.61 3.02-3.65 2.63m7.01 7.01c1.96 1 2.61 2.52 1.37 4.48.62-.39 1.85-1.18 2.47-1.58.57.43 1.72 1.27 2.29 1.7-.21-.74-.63-2.2-.83-2.93.71-.53 1.43-1.05 2.15-1.56-2.07.35-3.3-.65-3.78-2.64-.3 2.08-1.55 3.08-3.67 2.53zm83.37-17.06c3.07-2.19 6.16-4.35 9.27-6.49v14.21c-.44-.13-1.33-.4-1.77-.53-2.28-2.61-4.59-5.26-7.5-7.19zm-10.74 7.52c2.87-2.05 5.76-4.07 8.67-6.08.54 1.99.85 4.03 1.04 6.09-3.24 0-6.48 0-9.71-.01z"/><g fill="#c61e2e"><path d="M53.34 17.75h21.34c.01 11.86.01 23.71 0 35.57 3.55 0 7.1.01 10.65-.07-2.63 3.6-4.29 7.77-5.8 11.94-2.13-.98-4.61-1.72-5.94-3.8-2.17-2.85-1.77-6.62-2-9.98-1.89 2.29-4.05 4.58-4.64 7.61-1.19 4.06.26 8.17 1.28 12.09-1.46-1.2-2.95-2.35-4.46-3.48-5.53-4.97-11.47-9.46-17.12-14.29 2.22-.02 4.45-.02 6.67-.03 0-3.81 0-7.62-.02-11.43.74-.66 1.47-1.33 2.19-2 .83-1.55 1.44-3.2 2.06-4.84-1.08.41-2.16.81-3.25 1.22-.32-2.46-.65-4.92-.95-7.38-.05-3.71-.05-7.42-.01-11.13z"/><path d="M117.15 17.97c2.54.81 4.89 2.13 6.9 3.87-10.72 7.71-21.63 15.15-32.39 22.8-2.76 2.38-6.56 1.43-9.87 1.59-.01-.82-.02-2.47-.03-3.3 11.75-8.38 23.75-16.43 35.39-24.96zM86.1 53.23c.39.01 1.17.03 1.56.05.66 3.19-.24 6.39-1.76 9.19-.29-3.07-.18-6.17.2-9.24zm7.55-.14c.63.12 1.88.37 2.51.49l.87 4.47c-1.12-1.66-2.21-3.34-3.38-4.96zm33.66 14.22c-1.1-1.32-.55-3.2.69-4.2v4.2zM0 74.69c16.83-.01 33.66-.04 50.49.02-.55 2.32-.97 4.66-1.2 7.03-16.43.01-32.86-.01-49.29.01zm56.58.06c3.9-.09 7.79-.1 11.69-.02-1.4 2.11-3.51 4.1-6.24 3.9-2.54.17-4.2-2-5.45-3.88zM0 88.88c16.57 0 33.13-.01 49.7.01.38 2.15.89 4.27 1.33 6.41-3.08.63-4.87-1.67-6.05-4.17-.15 1.56-.32 3.13-.3 4.7l-4.25.04-.57.01c-13.29.03-26.57-.02-39.86.02zm1.77 14.39c12.2-.22 24.4-.05 36.59-.1.85 2.56 2.1 4.98 3.81 7.08-9.37-.05-18.74.02-28.11-.01-5.03.18-9.66-2.81-12.29-6.97z"/></g><path fill="#f4900c" d="M48.24 30.07c.86.89 1.74 1.77 2.61 2.65.85-1.27 1.7-2.54 2.5-3.84.3 2.46.63 4.92.95 7.38 1.09-.41 2.17-.81 3.25-1.22-.62 1.64-1.23 3.29-2.06 4.84-.09-.53-.29-1.6-.39-2.14-.51-.04-1.54-.1-2.05-.14l-1.35-3.51c-.61.93-1.21 1.86-1.82 2.79-.86-.09-1.72-.17-2.58-.25-.35 1.03-.7 2.05-1.05 3.08-.34-.48-1.02-1.45-1.36-1.93.21-1.92.61-3.8 1.13-5.65.25.87.77 2.63 1.02 3.51 1.42-1.55 1.15-3.65 1.2-5.57zm66.88 6.31c1.21.77 2.43 1.53 3.61 2.33 2.91 1.93 5.22 4.58 7.5 7.19-.21 1.64.62 3.09 1.77 4.2v13.01c-1.24 1-1.79 2.88-.69 4.2-1.35 1.83-.76 4.15.69 5.72v13.74c-1.33-1.5-3.53-2.59-3.7-4.8-.79-4.03-.68-8.52-3.29-11.94-1.92-2.83-5.09-4.32-8.06-5.76.54 4.53 2 9.74-1 13.75-1.75 2.75-4.98 3.72-8.05 4-.72-3.3-1.13-6.89-3.4-9.56-1.95-2.57-4.97-3.9-7.76-5.31.5 3.66 1.56 7.48.46 11.14-1.34 4.36-6.28 7.67-10.81 6.23-2.78-1.35-2.94-4.89-3.9-7.46-3.74 4.26-5.74 9.59-6.77 15.09-1.36-.58-2.95-.8-4.06-1.83-1.37-1.9-1.74-4.28-2.47-6.46-2.58 3.29-4.62 6.97-5.92 10.95-.89-.52-1.79-1.03-2.68-1.55-.45 1.63-.15 3.71-1.45 4.96-1.55 1.47-3.22-.74-4.7-1.25-1.44 3.37-1.82 7.76 1.36 10.3 2.32 2.5 5.83 1.54 8.8 1.43.41.27 1.22.8 1.62 1.07-4.86-.99-8.5 3.5-13.27 3.03-2.49-.03-4.74-1.24-6.78-2.55-1.71-2.1-2.96-4.52-3.81-7.08.19-2.48.68-4.94 1.5-7.29l.57-.01c.65 1.61.77 5.12 3.38 4 1.47-.83.7-2.71.87-4.04-.02-1.57.15-3.14.3-4.7 1.18 2.5 2.97 4.8 6.05 4.17-.44-2.14-.95-4.26-1.33-6.41-.34-2.37-.45-4.76-.41-7.15.23-2.37.65-4.71 1.2-7.03.78-2.48 1.81-4.87 3.01-7.17 1.01-1.72 2.19-3.34 3.34-4.97-.23 1.65-.5 3.29-.69 4.95-.12 2.41 0 4.84.43 7.23 1.25 1.88 2.91 4.05 5.45 3.88 2.73.2 4.84-1.79 6.24-3.9.03-1.21.01-2.41-.04-3.62-1.02-3.92-2.47-8.03-1.28-12.09.59-3.03 2.75-5.32 4.64-7.61.23 3.36-.17 7.13 2 9.98 1.33 2.08 3.81 2.82 5.94 3.8 1.51-4.17 3.17-8.34 5.8-11.94l.77-.02c-.38 3.07-.49 6.17-.2 9.24 1.52-2.8 2.42-6 1.76-9.19-.61-2.01-1.35-3.96-2.03-5.94 2.77 1.77 5.46 3.68 8.02 5.75 1.17 1.62 2.26 3.3 3.38 4.96l-.87-4.47c-.57-5.07 1.69-9.77 5.23-13.26-.5 4.79.31 10.17 4.75 12.9 1.88 1.63 4.83 1.49 6.82.14 2.7-1.46 4.07-4.25 4.74-7.12-.19-2.06-.5-4.1-1.04-6.09-.48-1.27-1.02-2.51-1.54-3.77zm-96.19 1.87c.11.13.34.39.46.52-.02.74-.07 2.21-.09 2.95.63-.02 1.91-.06 2.54-.07l.12.2c-.5.59-.97 1.19-1.43 1.81-1.86-.93-3.88-1.4-5.95-1.38l-.82-.05.63-.4-.31-.03c.99-.71 1.87-1.55 2.7-2.43.27.17.82.52 1.1.69.26-.45.78-1.36 1.05-1.81zm-2.94 17.66c.35-.67.69-1.35 1.04-2.02l.92 3.49c2.31-.45 2.89-2.3 2.91-4.44.76 1.14 1.49 2.28 2.22 3.43-.04 1.31-.08 2.61-.1 3.92.27.54.81 1.62 1.09 2.17l.75-2.17c.64.7 1.28 1.41 1.91 2.12-.72 1.25-1.41 2.52-2.21 3.72l-.36-2.67-2.26.12c-.71-1.55-1.44-3.1-2.17-4.65-.57 1.32-1.14 2.64-1.72 3.96-.98-.21-1.96-.43-2.94-.64-.46 1.1-.93 2.19-1.4 3.29-1.21-1.75-1.42-3.9-1.47-5.97l1.05-3.03c.34 1.76 1 3.45 2.96 3.88-.06-1.51-.13-3.01-.22-4.51z"/><path fill="#ffcc4d" d="M49.88 36.88c.61-.93 1.21-1.86 1.82-2.79l1.35 3.51c.51.04 1.54.1 2.05.14.1.54.3 1.61.39 2.14-.72.67-1.45 1.34-2.19 2-2.52-.02-5.23-.17-7.05-2.17.35-1.03.7-2.05 1.05-3.08.86.08 1.72.16 2.58.25zm-35.3 5.4c2.07-.02 4.09.45 5.95 1.38-1.69 2.44-5.8 1.9-5.95-1.38zm91.56 10.94c2.25-.5 4.59-.47 6.82.14-1.99 1.35-4.94 1.49-6.82-.14zm-86.41 5.71c.73 1.55 1.46 3.1 2.17 4.65l2.26-.12.36 2.67c-.45.4-1.34 1.22-1.78 1.62-2.36.34-4.74.3-7.09.03-.49-.56-1.48-1.68-1.98-2.24.47-1.1.94-2.19 1.4-3.29.98.21 1.96.43 2.94.64.58-1.32 1.15-2.64 1.72-3.96zm93.22 5.34c2.97 1.44 6.14 2.93 8.06 5.76 2.61 3.42 2.5 7.91 3.29 11.94.17 2.21 2.37 3.3 3.7 4.8v22.83c-5.9 3.73-13.19 4.58-19.9 2.82-5.65 3.67-12.55 4.48-19.09 3.32-9.28 1.48-19.25-.07-26.79-5.97-.4-.27-1.21-.8-1.62-1.07-2.97.11-6.48 1.07-8.8-1.43-3.18-2.54-2.8-6.93-1.36-10.3 1.48.51 3.15 2.72 4.7 1.25 1.3-1.25 1-3.33 1.45-4.96.89.52 1.79 1.03 2.68 1.55 1.3-3.98 3.34-7.66 5.92-10.95.73 2.18 1.1 4.56 2.47 6.46 1.11 1.03 2.7 1.25 4.06 1.83 1.03-5.5 3.03-10.83 6.77-15.09.96 2.57 1.12 6.11 3.9 7.46 4.53 1.44 9.47-1.87 10.81-6.23 1.1-3.66.04-7.48-.46-11.14 2.79 1.41 5.81 2.74 7.76 5.31 2.27 2.67 2.68 6.26 3.4 9.56 3.07-.28 6.3-1.25 8.05-4 3-4.01 1.54-9.22 1-13.75z"/></svg>