<svg height="112pt" viewBox="0 0 112 112" width="112pt" xmlns="http://www.w3.org/2000/svg"><g fill="#eb9f6a"><path d="m73.1 0h.34c4.79 2.85 10.26 4.03 15.62 5.32.13 2.25.14 4.51.14 6.77-.72-1.06-1.44-2.12-2.15-3.18-.2-.32-.61-.94-.81-1.25-3.51-.28-7.11-.59-10.58.15-1.5 1.02-2.46 2.62-3.44 4.11-1.58 2.64-3.87 4.77-6.71 5.98-.46-2.78-.89-5.56-1.29-8.35-2.09.84-5.06.93-5.86 3.45-1.72 4.02-3.38 8.13-6.26 11.49 2.52-.56 5.07-1.01 7.64-1.31-1.71 1.81-3.21 3.95-5.48 5.11-2.77 1.09-5.8 1.17-8.72 1.54.69 2.59 1.55 5.18 1.58 7.89-1.24 1.98-3.78 2.64-5.69 3.83-5.35 2.63-11.1 6.78-11.77 13.21-.41 4.33-1.16 9.04.45 13.18 4.84 4.76 11.14 8.13 17.84 9.38 6.27 1.03 11.08 5.77 17.3 6.91 3.26.61 6.41 1.75 9.04 3.81-3.88 2.18-7.62 4.7-11.83 6.24-2.6.99-5.36.01-7.81-.97-7.65-3.47-16.46-5.29-22.11-12.04.69-1.24 1.37-2.48 2.04-3.73-3.13-.41-6.26-.82-9.39-1.2.59-2.87 1.2-5.73 1.76-8.6-3.22 1.78-6.5 5.49-10.52 4.25-2.64-2.84-4.9-7.05-3.39-10.97 2-5.47 4.94-10.72 9.18-14.78 2.92-2.82 5.74-5.8 7.78-9.34 1.05-1.62 1.96-3.33 2.87-5.03-1.56 1.09-3.08 2.22-4.61 3.36-7.76 2.52-13.9 7.94-20.89 11.9.16-3.12-.61-6.7 1.41-9.39 2.26-3.02 5.07-5.58 7.96-7.97 4.89-1.87 10.18-2.35 15.09-4.17 6.42-1.81 11.4-6.43 17.11-9.62 2.78-1.47 4.99-3.73 7.13-5.98 5-4.41 12.09-5.47 17.03-10m-43.2 41.93c-3.79 2.7-7.85 5.44-10.19 9.57-.23 1.28.08 2.57.19 3.84 2.67-1.76 5.11-3.82 7.3-6.14 3.65-3.89 7.77-7.36 10.9-11.7-3.27.26-5.65 2.66-8.2 4.43zm61.81-38.8 1.6.64c.69.89 1.34 1.81 1.95 2.76l.28.79c-.41 2.47-.86 4.94-1.25 7.42-.48-.01-1.43-.05-1.9-.06-.3-3.85-.64-7.69-.68-11.55z"/><path d="m75.77 16.57c2.26 1.38 4.5 2.82 6.51 4.56.19.46.59 1.38.79 1.83-1.75.54-3.57 2.43-5.45 1.35-1.18-.59-2.23-1.47-2.92-2.6.13-1.75.66-3.44 1.07-5.14zm8.88 4.55c1.02-1.28 2.19-2.46 3.52-3.42 1.87-.27 3.77-.09 5.65-.04-.92 2.41-1.79 4.83-2.63 7.27-2.63-.28-6.42-.3-6.54-3.81zm-40.6 28.93c7.54-4.22 16.65-3 24.57-.61 2.39 1.52 4.76 3.14 6.78 5.16.91 2.62 1.97 5.35 1.71 8.17-2.33 4.3-7.37 6.48-12.06 6.89-6.43.46-13.13.21-19.15-2.33-6.87-2.21-8.94-14.04-1.85-17.28m5.5 2.45c2.98 5.41 9.52 7.71 15.42 7.22-.34-2.62-.7-5.93-3.6-6.96-3.85-1.05-7.9-.46-11.82-.26zm39.8 4.96c5.91.12 12.63-.38 17.45 3.72 1.28 1.36 2.76 3.31 2.2 5.29-2.29.8-4.73.98-7.07 1.56 2.59 2.86 5.74 5.45 7.2 9.13 1.28 3.74-1.04 7.24-2.9 10.3-3.83-1.35-7.99-2.09-11.4-4.39-5.97-5.49-9.16-13.24-11-21 1.8-1.58 3.66-3.09 5.52-4.61m2.15 2.24c-2.41.54-3.51 2.99-4.84 4.79 4.15.14 8.53.94 12.55-.41 1.32-.94 3.27-2.6 2.19-4.36-3.25-.62-6.66-.74-9.9-.02zm-86.32 21.99c.06-2.39.13-4.78.05-7.17 2.08 1.76 4.01 3.67 5.86 5.67-1.31.87-2.61 1.75-3.92 2.63-.5-.28-1.49-.85-1.99-1.13zm71.2 22.56c.48-1.42.97-2.85 1.45-4.28 4.34 2.22 8.91 3.94 13.65 5.05.35 2.33.69 4.65 1.04 6.98h-8.13c-2.95-2.28-5.55-4.96-8.01-7.75z"/></g><path d="m73.44 0h15.07c.21 1.77.41 3.54.55 5.32-5.36-1.29-10.83-2.47-15.62-5.32zm-43.54 41.93c2.55-1.77 4.93-4.17 8.2-4.43-3.13 4.34-7.25 7.81-10.9 11.7a41.262 41.262 0 0 1 -7.3 6.14c-.11-1.27-.42-2.56-.19-3.84 2.34-4.13 6.4-6.87 10.19-9.57zm19.65 10.57c3.92-.2 7.97-.79 11.82.26 2.9 1.03 3.26 4.34 3.6 6.96-5.9.49-12.44-1.81-15.42-7.22zm41.95 7.2c3.24-.72 6.65-.6 9.9.02 1.08 1.76-.87 3.42-2.19 4.36-4.02 1.35-8.4.55-12.55.41 1.33-1.8 2.43-4.25 4.84-4.79z" fill="#ffc69f"/><path d="m88.51 0h.56c1.69 1.12 3.4 2.19 5.18 3.17.32 1.12.64 2.25 1.01 3.36-.61-.95-1.26-1.87-1.95-2.76l-1.6-.64-1.6-.6c-.26 4.06-.44 8.13-.64 12.2-2.4-.02-4.8-.05-7.2-.09l.27-4.2c1.52.37 3.05.75 4.58 1.12-.02-.67-.05-1.99-.07-2.65.71 1.06 1.43 2.12 2.15 3.18 0-2.26-.01-4.52-.14-6.77-.14-1.78-.34-3.55-.55-5.32zm-30.15 13c.8-2.52 3.77-2.61 5.86-3.45.4 2.79.83 5.57 1.29 8.35 2.84-1.21 5.13-3.34 6.71-5.98-.82 2.47-.56 5.82-2.97 7.41-3.39.62-6.83-.6-10.26-.32 1.54 1.99 3.61 3.44 5.73 4.76-2.86 2.91-5.77 5.77-8.78 8.52-2.95-.78-5.91-1.53-8.88-2.22 1.89 2.58 4.17 5 5.29 8.06.65 3.07-2.26 5.31-4.69 6.5-4.37 2.34-10.04 2.54-13.36 6.59-3.44 4.38-5.35 10.58-3.43 15.98 1.63 1.69 4.1 2.11 6.2 2.97-1.18-3.03-4.84-6.18-2.64-9.55 1.99-3.85 4.19-7.79 7.48-10.68 4.66-2.98 10.3-3.77 15.41-5.72 3.75 1.1 7.26 2.87 10.64 4.82l.66.4c-7.92-2.39-17.03-3.61-24.57.61-7.09 3.24-5.02 15.07 1.85 17.28 6.02 2.54 12.72 2.79 19.15 2.33 4.69-.41 9.73-2.59 12.06-6.89.26-2.82-.8-5.55-1.71-8.17 2.97 2.71 4.13 6.64 5.15 10.4 1.09-.98 2.18-1.96 3.28-2.93 1.84 7.76 5.03 15.51 11 21 3.41 2.3 7.57 3.04 11.4 4.39 1.86-3.06 4.18-6.56 2.9-10.3-1.46-3.68-4.61-6.27-7.2-9.13 2.34-.58 4.78-.76 7.07-1.56.56-1.98-.92-3.93-2.2-5.29-4.82-4.1-11.54-3.6-17.45-3.72-.42 0-1.25-.01-1.67-.01 5.11-.02 10.22-.23 15.32-.12 1.57.07 3.37.02 4.47 1.35 1.76 2.92 2.43 6.36 2.21 9.74-.26 5.69.3 11.39-.19 17.07-.24 3.15-2.15 6.96-5.71 7.1-7.19.54-13.13-4.82-17.33-10.06-3.63-4.33-4.33-10.08-4.99-15.48-.29.21-.88.64-1.17.86-1.24 1.85-2.23 4.02-4.09 5.34-6 3.3-12.95 3.96-19.65 4.55 1.91 1.74 3.72 3.99 6.43 4.42 4.85.86 9.27-1.91 13.97-2.5 1.84.18 3.1 1.78 4.38 2.97 3.05 3.42 5.92 7 9.05 10.35-2.55.68-5.11 1.33-7.68 1.96-.12.33-.37.99-.5 1.32 4.99 1.26 10.77 2.17 14.14 6.48 2.35 3.08-.4 6.63-2.21 9.2h-1.61c-.35-2.33-.69-4.65-1.04-6.98-4.74-1.11-9.31-2.83-13.65-5.05-.48 1.43-.97 2.86-1.45 4.28-2.94-3.14-.21-6.81 1.23-9.93-5.1 1.96-9.91 5.2-15.54 5.26-3.98.12-8.02.22-11.93-.62-5.08-1.29-8.93-5.09-13.42-7.58-5.14-3.11-11.4-3.87-16.23-7.59 3.34-1.86 6.69-3.72 9.83-5.91-6.47-1.68-11.84 2.6-17.27 5.27-3.27 1.84-7.11 1.39-10.69 1.09.13-10.76-.05-21.53.37-32.29.93-8.91 4.75-19.06 14.01-22.18-2.89 2.39-5.7 4.95-7.96 7.97-2.02 2.69-1.25 6.27-1.41 9.39 6.99-3.96 13.13-9.38 20.89-11.9-5.47 4.64-11.89 8.08-17.02 13.14-3.15 3.23-4.42 7.72-5.83 11.89-1.57 4.62-.74 9.53-.18 14.26.08 2.39.01 4.78-.05 7.17.5.28 1.49.85 1.99 1.13 1.31-.88 2.61-1.76 3.92-2.63.43-.29 1.31-.86 1.74-1.15-1.93-2.52-4.27-4.93-5.13-8.06-1.26-6.41.93-13.18 5.41-17.87 5.36-5.67 10.99-11.1 16.89-16.21-2.04 3.54-4.86 6.52-7.78 9.34-4.24 4.06-7.18 9.31-9.18 14.78-1.51 3.92.75 8.13 3.39 10.97 4.02 1.24 7.3-2.47 10.52-4.25-.56 2.87-1.17 5.73-1.76 8.6 3.13.38 6.26.79 9.39 1.2-.67 1.25-1.35 2.49-2.04 3.73 5.65 6.75 14.46 8.57 22.11 12.04 2.45.98 5.21 1.96 7.81.97 4.21-1.54 7.95-4.06 11.83-6.24-2.63-2.06-5.78-3.2-9.04-3.81-6.22-1.14-11.03-5.88-17.3-6.91-6.7-1.25-13-4.62-17.84-9.38-1.61-4.14-.86-8.85-.45-13.18.67-6.43 6.42-10.58 11.77-13.21 1.91-1.19 4.45-1.85 5.69-3.83-.03-2.71-.89-5.3-1.58-7.89 2.92-.37 5.95-.45 8.72-1.54 2.27-1.16 3.77-3.3 5.48-5.11-2.57.3-5.12.75-7.64 1.31 2.88-3.36 4.54-7.47 6.26-11.49z" fill="#986877"/><path d="m76.08 15.3c2.63 1.26 5.42 2.76 6.2 5.83-2.01-1.74-4.25-3.18-6.51-4.56-.41 1.7-.94 3.39-1.07 5.14.69 1.13 1.74 2.01 2.92 2.6 1.88 1.08 3.7-.81 5.45-1.35.86 2.08 1.72 4.15 2.51 6.25-.28.39-.85 1.15-1.14 1.54-6.22-1.24-11.86-4.21-17.45-7.08 3.25-2.55 6.4-5.23 9.09-8.37z" fill="#986877"/><g fill="#4d272a"><path d="m90.11 2.53 1.6.6c.04 3.86.38 7.7.68 11.55.47.01 1.42.05 1.9.06.39-2.48.84-4.95 1.25-7.42 3.36 6.23 1.77 13.55-1.68 19.34-2.81.65-5.63 1.38-8.28 2.55-.79-2.1-1.65-4.17-2.51-6.25-.2-.45-.6-1.37-.79-1.83-.78-3.07-3.57-4.57-6.2-5.83-2.69 3.14-5.84 5.82-9.09 8.37 5.59 2.87 11.23 5.84 17.45 7.08-.98.94-2.08 1.93-3.56 1.76-5.49.6-9.38-4.52-14.55-5.11-3.29 2.2-6.17 5.1-8.46 8.32-.88 2.72-.42 5.67-.55 8.5-5.11 1.95-10.75 2.74-15.41 5.72-3.29 2.89-5.49 6.83-7.48 10.68-2.2 3.37 1.46 6.52 2.64 9.55-2.1-.86-4.57-1.28-6.2-2.97-1.92-5.4-.01-11.6 3.43-15.98 3.32-4.05 8.99-4.25 13.36-6.59 2.43-1.19 5.34-3.43 4.69-6.5-1.12-3.06-3.4-5.48-5.29-8.06 2.97.69 5.93 1.44 8.88 2.22 3.01-2.75 5.92-5.61 8.78-8.52-2.12-1.32-4.19-2.77-5.73-4.76 3.43-.28 6.87.94 10.26.32 2.41-1.59 2.15-4.94 2.97-7.41.98-1.49 1.94-3.09 3.44-4.11 3.47-.74 7.07-.43 10.58-.15.2.31.61.93.81 1.25.02.66.05 1.98.07 2.65-1.53-.37-3.06-.75-4.58-1.12l-.27 4.2c2.4.04 4.8.07 7.2.09.2-4.07.38-8.14.64-12.2m-5.46 18.59c.12 3.51 3.91 3.53 6.54 3.81.84-2.44 1.71-4.86 2.63-7.27-1.88-.05-3.78-.23-5.65.04-1.33.96-2.5 2.14-3.52 3.42z"/><path d="m46.87 16.07c3.3-1.65 6.49-3.55 9.2-6.07-2.14 2.25-4.35 4.51-7.13 5.98-5.71 3.19-10.69 7.81-17.11 9.62-4.91 1.82-10.2 2.3-15.09 4.17-9.26 3.12-13.08 13.27-14.01 22.18-.42 10.76-.24 21.53-.37 32.29 3.58.3 7.42.75 10.69-1.09 5.43-2.67 10.8-6.95 17.27-5.27-3.14 2.19-6.49 4.05-9.83 5.91 4.83 3.72 11.09 4.48 16.23 7.59 4.49 2.49 8.34 6.29 13.42 7.58 3.91.84 7.95.74 11.93.62 5.63-.06 10.44-3.3 15.54-5.26-1.44 3.12-4.17 6.79-1.23 9.93 2.46 2.79 5.06 5.47 8.01 7.75h-6.41c-2.38-2.4-4.46-5.13-7.23-7.1-8.04-1.16-16.26.29-24.34-.6-1.86-.94-3.28-2.52-4.83-3.88-4.14-4.04-9.82-5.75-14.79-8.5-4.07-1.89-7.93-5.07-12.69-4.6-4.85.25-9.85.15-14.1-2.52v-23.91c4.33-4.98 1.13-11.83 3.73-17.45 1.81-8.55 9.78-15.06 18.28-16.27 3.95-.64 7.73-1.99 11.5-3.3 4.93-1.74 8.71-5.51 13.36-7.8z"/><path d="m28.26 35.23c1.53-1.14 3.05-2.27 4.61-3.36-.91 1.7-1.82 3.41-2.87 5.03-5.9 5.11-11.53 10.54-16.89 16.21-4.48 4.69-6.67 11.46-5.41 17.87.86 3.13 3.2 5.54 5.13 8.06-.43.29-1.31.86-1.74 1.15-1.85-2-3.78-3.91-5.86-5.67-.56-4.73-1.39-9.64.18-14.26 1.41-4.17 2.68-8.66 5.83-11.89 5.13-5.06 11.55-8.5 17.02-13.14zm39.7 13.81c4.17 1.52 8.13 3.61 11.55 6.47 2.2 2.12 5.35 1.94 8.17 1.94.42 0 1.25.01 1.67.01-1.86 1.52-3.72 3.03-5.52 4.61-1.1.97-2.19 1.95-3.28 2.93-1.02-3.76-2.18-7.69-5.15-10.4-2.02-2.02-4.39-3.64-6.78-5.16zm39.51 9.64c1.53 1.34 3.01 2.72 4.53 4.06v30.74c-3.64 6.67-7.34 13.39-13.08 18.52h-4.79c1.81-2.57 4.56-6.12 2.21-9.2-3.37-4.31-9.15-5.22-14.14-6.48.13-.33.38-.99.5-1.32 2.57-.63 5.13-1.28 7.68-1.96-3.13-3.35-6-6.93-9.05-10.35-1.28-1.19-2.54-2.79-4.38-2.97-4.7.59-9.12 3.36-13.97 2.5-2.71-.43-4.52-2.68-6.43-4.42 6.7-.59 13.65-1.25 19.65-4.55 1.86-1.32 2.85-3.49 4.09-5.34.29-.22.88-.65 1.17-.86.66 5.4 1.36 11.15 4.99 15.48 4.2 5.24 10.14 10.6 17.33 10.06 3.56-.14 5.47-3.95 5.71-7.1.49-5.68-.07-11.38.19-17.07.22-3.38-.45-6.82-2.21-9.74z"/></g></svg>