<svg height="599pt" viewBox="0 0 1032 599" width="1376" xmlns="http://www.w3.org/2000/svg"><g fill="#fff"><path d="m330.36.21c.89.76 1.44 1.71 1.63 2.84 1.77 14.55.45 29.26 1.56 43.85-.4 2.04-1.26 3.95-1.84 5.94 1.33 1.24 2.72 2.42 4.14 3.57-1.3 1.56-2.7 3.09-3.56 4.95-.16 2.5.86 4.95.58 7.47-1.4 6.57-2.26 13.27-2.39 19.98 1.19 6.18-.55 12.31-1.21 18.44-.5 2.12 1.17 3.84 1.91 5.69-1.15 1.37-2.3 2.74-3.43 4.13 1.82 3.51 3.22 7.24 4.02 11.12-.1 3.15-1.43 6.44.35 9.41 10.45-8.55 21.46-16.45 32.96-23.55 5.58-3.74 11.03-7.93 17.55-9.94-2.08 4.31-7.35 5.78-9.15 10.25 6.69-1.91 11.2-7.97 17.7-10.41a34.92 34.92 0 0 1 -.7 3.38c-2.71 2.05-5.99 3.24-8.55 5.52-8.69 7.79-17.74 15.33-27.79 21.3.25 1.45.52 2.9.74 4.35-6.3 3.34-12.12 7.48-18.2 11.18-2.03 1.27-4.42 2.83-4.68 5.45-.34 3.5-.01 7.06.8 10.48-1.31.42-2.6.86-3.89 1.32a80.78 80.78 0 0 0 4.89 5.42c-.86 1.13-1.73 2.26-2.57 3.41 1.93 3.96 1.92 8.56.22 12.59-1.52 8.93-3.02 17.88-4.07 26.88.2 3.5.51 6.99.14 10.49.89 1.94 2.21 3.64 3.47 5.34-1.69 2.48-1.38 5.22-.5 7.92-1.26 5.16-.74 10.52-1.59 15.74-.77 2.87.97 5.64.35 8.52-1.5 11.88-1.63 23.9-.37 35.8.33 14.64.9 29.32.15 43.95-.85 10.39-3.2 20.62-6.57 30.47-1 2.64-2.98 5.23-2.19 8.2.6 3.3.83 6.66.54 10.02-2.94-2.73-2.74-7-4.03-10.51-1.04-2.89-1.7-5.88-2.18-8.89-1.27-4.5-3.87-8.58-4.61-13.24-.52-3.74-2.09-7.39-1.56-11.22-.15-3.57 2.68-6.94.57-10.39-1.77.64-3.06 1.92-3.97 3.54-2.96-6.73-4.12-14.09-7.13-20.83-1.84-8.8-6.1-16.83-8.54-25.45-1.55-8.95-5.98-17.02-8.21-25.78-.67-2.71-1.45-5.57-3.33-7.72-3.52-3.02-8.16-4.04-12.47-5.37-.18-5.42-3.2-10.16-3.64-15.53-1.04-7.89-4.95-15.02-5.68-22.96-4.3 2.68-7.27 6.91-11.37 9.84 2.25 7.42 5.16 14.65 7.18 22.13 3.07 3.45 2.98 8.67 7.14 11.25-.69.64-1.37 1.27-2.05 1.91-6.54-6.76-9.24-15.9-13.08-24.23-.91-2.71-1.81-5.46-3.53-7.78-5.13 4.58-11.09 8.19-15.65 13.41-1.22-.53-2.43-1.08-3.65-1.61-.95 2.05-1.92 4.1-2.81 6.18-2.32-.57-4.47.22-6.33 1.61.35 1.82.74 3.62 1.1 5.44-1.7 1.54-4.72 2.66-4.03 5.5.83 4.77 3.12 9.17 4.09 13.93 1.35 4.45 1.77 9.45 4.91 13.12a443.4 443.4 0 0 0 3.36 4.22c3.37-3.61 6.02-7.97 10.39-10.54.84.84 1.69 1.69 2.54 2.53 4.46-2.9 8.16-6.82 12.73-9.55-.84-2.24-1.61-4.5-2.18-6.81 6.07.31 11.67 3.04 17.46 4.67 1.84 2.59 4.01 4.9 6.62 6.75-.3 4.82.92 9.48 2.91 13.83 2.09 3.87.66 8.37 1.55 12.48 1.11 2.16 2.96 3.84 4.04 6.02 2.32 9.53 3.07 19.33 3.98 29.08 2.59 7.61 2.57 15.77 4.43 23.53 2.41 7.82 2.77 16.07 5 23.92.44 3.61 1.1 7.2 1.21 10.85.17 6.82 1.65 13.52 2.65 20.25.8 11.55 2.16 23.06 2.57 34.64 1.46 4.69 1.95 9.88.3 14.6-1.05 2.62 1.26 5.01 1.34 7.63-.08 4.62.02 9.26-.45 13.87.75 5.38-.09 11.06 2.29 16.11-2.66 6.29-1.48 13.22-1.68 19.89.07 4.33-.28 8.66-.09 13 .75 7.25-.28 14.61-1.74 21.71-.35-4.93.52-9.85-.06-14.77.05-4.11-2.51-7.71-2.52-11.81.04-2.82.56-5.72-.32-8.46-2.33-6.4-1.87-13.37-4.05-19.8-.24-7.1.11-14.73-4.23-20.83 1.01-1.08 2.6-1.82 3.04-3.31.62-2.85-2.46-4.25-4.03-6.03.52-1.2 1.06-2.39 1.59-3.57a99.273 99.273 0 0 0 -4.16-3.26c1.91-4 .57-8.46-.89-12.36-1.77-6.43-2.37-13.11-3.32-19.69-.63-8.31-3.48-16.22-4.67-24.43-1.12-4.34-2.87-8.51-2.58-13.08-2.21-3.72-2.5-8.08-2.69-12.3-.77-4.06-1.56-8.12-2.62-12.11.38-3.44 2.97-7.85-1.04-10.11 1.46-5.88-1.52-11.32-2.49-16.98-1.39-7.33-4.97-14.15-5.33-21.67-.45-3.31-2.4-6.15-3.35-9.3.2-2.65.41-5.33-.47-7.9-.62.02-1.85.07-2.47.1-.39 4.02-3.72 6.57-5.51 9.95-2.2 3.85-5.19 7.28-6.39 11.63-3.83 6.94-7.55 13.97-10.8 21.2-1.05 1.82-.01 3.89.17 5.8-.82.22-2.45.67-3.27.89 1.11 2.61 2.92 5.24 2.2 8.22-.97 3-2.66 5.69-4.14 8.46-3.41-1.81-6.98-3.31-10.63-4.58a66.67 66.67 0 0 0 -1.63 6.84c-1.2.32-2.4.64-3.59.97.37 1.57.76 3.14 1.12 4.73-2.97-.98-7.79-.89-8.11-4.98 1.21-2.27 2.8-4.32 4.27-6.43.5 1.62 1.01 3.25 1.52 4.88 1.91-1.91 3.35-4.21 4.63-6.57-2.14-3.14-3.75-6.58-4.92-10.2-2.66-.16-5.02.77-6.73 2.83.66.84 1.33 1.69 2 2.53-2.07 3.36-2.82 7.38-2.02 11.26-.87-.55-1.74-1.1-2.6-1.65-.07-2.44-.16-4.88-.29-7.31-1.81-.36-3.63-.71-5.43-1.1 1.3-1.44 2.78-2.71 4.37-3.81.63 1.15 1.25 2.33 1.88 3.5.07-2.8-.2-5.58-1.08-8.25.45-5.8.48-12.27-3.18-17.14 1.67-2.23 4.81-5.11 3.05-8.05-.65-1.87-2.62-2.51-4.22-3.32l-.24-2.83c1.83 1.25 3.57 2.64 5.42 3.89-1.73-4.18-4.73-7.98-4.82-12.68-.28-7.88 1.81-16.13-1.95-23.54-1.74-1.69-3.26.77-4.76 1.58-3.24-2.17-6.56-4.28-9.26-7.13 1.52-1.14 3.05-2.27 4.52-3.46-3.05.57-6.87.03-9.09 2.67-2.87 4.15-7.3 6.76-10.39 10.73-5.37 4.31-10.04 9.4-14.88 14.29.79 1.26 1.57 2.54 2.39 3.79-3.61.73-7.05 2.05-10.3 3.77.7 3.07 1.6 6.14 1.4 9.34 6.88 3.19 13.75 6.42 21.03 8.6 3.34-.55 8.12-1.1 9.45 2.95-2.59.37-5.2.34-7.81.43-2.19.26-3.86-1.66-5.99-1.77-2.86-.29-5.49 1.02-8.19 1.72-4.85.96-10.04-.68-14.7 1.37-3.74 1.7-7.92.87-11.76.01-2.12 2-4.59 3.53-6.91 5.25-1.5 2.4-1.54 5.45-3.23 7.78-5.1 6.97-8.43 14.98-12.5 22.54-2.11 3.24-3.06 7.02-4.57 10.53-5.02 8.2-8.54 17.21-13.35 25.54-2.96 5.77-6.02 11.65-10.6 16.33-2.01 1.33-4.15 2.53-6.42 3.38-3.36.07-6.78-.52-10.11.07-1.69.98-3.25 2.17-4.95 3.15 1.36-3.81 5.31-6.09 5.94-10.22-4.41-.46-8.13-3.16-9.78-7.3-1.3.98-2.57 1.99-3.84 3.01-.45-.29-1.34-.87-1.79-1.16 2.07-3.11 3.07-6.75 4.94-9.95 2.85-3.76 7.39-5.91 10.12-9.77 3.32-7.42 4.71-15.49 7.29-23.16.2.72.61 2.15.82 2.86 1.25-.01 2.5.02 3.75.1-.25-1.21-.23-2.42.05-3.62-.85-.24-2.54-.71-3.39-.95.58-5.2 3.26-9.8 5.05-14.63 1.16-3.34 3.74-5.83 5.58-8.76-1.85.08-3.85-.26-5.53.71-5.48 2.82-11.35 4.98-16.31 8.72-7.84 4.17-15.7 8.44-22.74 13.9 2.44-5.91 5.84-12.42 12.08-14.95-.16-1.3-.57-2.59-.45-3.9 2.82-6.22 8.41-10.53 11.71-16.46 4-5.03 7.16-10.69 11.54-15.43 8.04-9.01 10.75-21.87 20.23-29.68-.63-1.02-1.28-2.04-1.92-3.04 5.87-7.23 8.06-16.69 14.24-23.73 2.79-2.65 3.37-6.58 5.2-9.82 4.53-8.22 6.49-17.49 8.59-26.54.7-3.01 2.55-5.6 3.24-8.61 1.5-4.34 1.46-9.15 3.85-13.16 3.2-7.54 4.18-15.85 7.78-23.23 2.57-8.08 5.13-16.22 9.18-23.71 2.77-5.05 2.34-11.09 4.98-16.17 1.38-2-.96-4.11-.06-6.16 1.36-4.49 2.14-9.15 2.09-13.85-.22-4.18 2.73-7.52 4.28-11.18-1.92.72-3.8 1.51-5.74 2.17.48-3.47 4.1-4.86 5.51-7.8 2.89-5.75 9.31-8.08 14.26-11.65 2.33 3.99 5.73 7.63 5.68 12.52.6-.01 1.79-.02 2.39-.03 1.24-5.5 5.41-9.59 8.84-13.82 1.81-1.94.97-4.71 1.02-7.06 1.44.61 2.86 1.27 4.29 1.92l.93-4.46c.97.76 1.96 1.5 2.97 2.22-2.45 2.63-5.06 5.13-7.11 8.1 1.87-.37 3.72-.87 5.58-1.28-1.3 2.62-3.25 5.22-2.86 8.31.84 6.41-2.78 12.19-3.82 18.36-.8 4.98-3.16 9.57-3.99 14.53.34 2.94 1.03 5.86 2.28 8.56 2.26 4.72 2.5 10.04 4.08 14.98 2.47 7.6 4.77 15.26 7.13 22.89 3.14 6.1 4.51 12.85 6.59 19.34 1.03 4.94 3.83 9.3 4.71 14.28.61 3.19 1.38 6.37 2.89 9.27 2.32-.74 4.85-1.01 6.97-2.28 2.59-2 4.4-4.92 7.37-6.45 4.94-2.61 9.25-6.22 13.88-9.32 2.21-1.4 3.94-3.38 5.72-5.26-.85-4.35-1.74-8.71-2.16-13.12-.12-13.22-.09-26.45.42-39.66.86-5.97.55-12.5 4.13-17.67 3.66-3.71 7.99-6.74 12.79-8.8 1.82 4.18 5.29 7.63 6.04 12.25 1.5 8.14 3.94 16.1 7.35 23.65 2.49 5.94 3.85 12.36 7.04 18.01 2.03-1.65 3.97-3.44 6.28-4.7 12.74-7.29 24.04-16.73 36.39-24.62 4.32-2.46 1.85-8.01 2.99-11.96 1.39-5.85.23-11.91 1.33-17.78 1.78-5.51.89-11.39 1.91-17.03.81-4.53.39-9.17 1.28-13.69.81-4.88-.52-10.01 1.21-14.75 1.56-4.05.49-8.48 1.32-12.66.78-3.86.77-7.83 1.41-11.71.81-4.88-.33-9.97 1.22-14.74 2.17-6.15.23-12.83 2.17-19.04 1.58-5.76 1.85-11.7 2.33-17.61m-158.39 110.54c.03.8.09 2.41.11 3.21l2.87-.04c0-.71-.01-2.12-.02-2.82-.74-.09-2.22-.26-2.96-.35m2.17 7.32c-.56 1.63-.02 2.17 1.61 1.63.56-1.63.02-2.17-1.61-1.63m-5.51 8.78c.68-.05 2.03-.13 2.71-.18.99-2.04 2.14-3.99 3.03-6.08-2.26 1.74-4.16 3.89-5.74 6.26m69.69 35.58c-1.12 1.34 1.25 2.78 2.17 1.49 1.05-1.32-1.27-2.82-2.17-1.49m71.97 5.76c-4.43 7.84-12.12 12.85-19.42 17.72-5.26 4.35-11.27 7.77-15.96 12.81 3.5 8.24 5.65 17 9.03 25.3 1.62 6.48 2.23 13.24 4.46 19.57.65 2 .61 4.13.79 6.21 8.05-.63 14.13 6.05 17.36 12.69.71 3.67 1.13 7.39 1.86 11.06.83 3.79.22 7.78 1.53 11.47 1.02 2.95.88 6.93 4.57 7.87-.38-5.28-.41-10.57-.62-15.86-1.53-9.5-.44-19.2-1.98-28.71-.56-2.78.46-5.74-.79-8.39-1.25-2.75-1.37-5.82-.96-8.76.95-5.88 1.17-11.97-.12-17.8 1.12-.83 2.25-1.65 3.38-2.48-1.22-1.37-2.48-2.69-3.71-4.04.59-2.9 1.78-5.7 1.98-8.66-.49-6.22 2-12.41.73-18.62-.9-3.9.34-7.8.76-11.67-.73.07-2.17.22-2.89.29m-71.4 1.69c.06.94.19 2.83.25 3.77a16.32 16.32 0 0 0 3.51-3.53zm-.77 8.18c.31 5.13-2 10.24-.45 15.29.8 2.72.44 5.56.36 8.35.49.4 1.47 1.22 1.97 1.62 2.93-2.68 5.96-5.25 9.15-7.61-.08-7.21-3.32-13.81-5.58-20.51-1.83.93-3.64 1.89-5.45 2.86m-80.95 11.94c-1.09 3.11-1.89 6.31-2.73 9.49-.92 3.3-2.8 6.35-3.02 9.82-.34 3.47-2.54 6.38-3.34 9.74-1.07 4.2-3.22 8-5.37 11.73-2 2.93-1.12 6.63-1.96 9.91-2.12 6.69-4.34 13.37-7.21 19.78-.55 6.52-3.43 12.47-4.87 18.79 6.84-.64 11.88-5.42 16.81-9.69 7.56-4.77 16.69-7.45 22.77-14.32 2.2-2.57 5.26-4.13 7.75-6.37-.48-6.48-4.95-11.73-5.73-18.13-.64-4.46-1.7-8.83-2.86-13.17-2.52-9.2-6.98-17.99-7.69-27.6-.63 0-1.91.02-2.55.02m-66.24 90.24c.12 1.35.25 2.71.39 4.07 1.61-1 3-2.28 4.2-3.74-.64-.47-1.93-1.41-2.57-1.88-.5.39-1.51 1.16-2.02 1.55m149.99.72c.05.89.16 2.66.22 3.54 2.69-.99 4.49-3.07 5.39-5.77-1.88.72-3.76 1.44-5.61 2.23m64.63 46.35c.25 2.69.54 5.39.69 8.1l2.51-.64c.48-.96.97-1.92 1.46-2.88-1.52-1.56-3.06-3.11-4.66-4.58m-233.4 35.92c-1.63.37-.84 2.98.71 2.51 1.64-.37.84-2.98-.71-2.51zm708.76-327.26c.04-3.92-.64-8.02.95-11.74.85 1.18 2.1 2.27 2.06 3.87.27 3.71.7 7.44.31 11.16-.53 3.89 2.11 7.29 2.04 11.13.16 4.9.77 9.87 3.16 14.23 1.56.4 3.13.83 4.69 1.3.91-1.37 1.73-2.82 2.85-4.04 2.65-1.15 5.63-1.22 8.42-1.97-.58 10.04-.48 20.1-.3 30.15-.15 3.78 2.33 7.12 1.87 10.93-.79 7.42-.02 14.84.57 22.24-.2 6.98-.87 14.02.19 20.97.1 2.65-.38 5.31.15 7.94.21 3.07 2 5.94 1.39 9.07-1.14 11.1.87 22.14 1.61 33.15.92 2.48 3.56 4.01 4.02 6.72.41 2.31 1.82 4.2 3.16 6.07-1.33-.42-2.66-.85-3.98-1.27-.97 1.39-2.09 2.71-2.73 4.29.33 3.69.77 7.37.88 11.08 3.54-.7 6.95-2.19 10.59-2.28 3.92 1.79 6.83 5.11 9.36 8.5 3.17-3.46 5.33-8.12 9.97-9.93-1.62 2.47-4.01 4.52-4.76 7.47-1.13 3.88-4.36 6.56-6.79 9.61-1.62-1.35-2.87-3.05-4.01-4.8-2.35.18-4.69.37-7.02.62 1.53 1.93 3.3 3.65 4.99 5.44-2.79-.62-5.55-1.35-8.33-2-.29 4.18-.48 8.42.3 12.57.94 5.32.34 10.75.88 16.11 3.77 4.46 2.1 10.45 3.35 15.73.82 3.8-.91 7.74.45 11.45 1.16 2.99-.47 6.07-.15 9.13.55 2.54 2.56 4.54 2.99 7.13.35 1.91-1.47 3.12-2.37 4.54 1.57 2.08 3.11 4.19 4.46 6.44-1.5-.16-2.99-.33-4.47-.51 1.74 3.47 3.48 6.97 5.6 10.23.78 1.36 2.42 1.13 3.77 1.3 6.87.42 13.34 3.02 20.15 3.83 7.8 1.21 16.86.74 22.92 6.68-4.71.83-9.35-.72-14.07-.51-3.1-.08-6.32.37-9.29-.76-5.51-2.31-11.6-.62-17.34-1.64-2.32-.65-4.31.88-6.28 1.79-1 4.49.9 8.67 2.25 12.85-1.66-.65-3.28-1.36-4.91-2.04-1.34 3.18.83 6.04 4.12 6.43.37 2.39.96 4.73 1.89 6.98 1.05 2.62.21 5.46-.14 8.14-.94-1.67-1.83-3.36-2.8-4.99-.84 1-1.71 1.99-2.6 2.94 2.43 3.06 2.13 7.02 2.2 10.7 2.02.94 5.35 1.81 4.95 4.68.69 3.2-1.18 5.74-3.36 7.82 1.37 1.13 2.81 2.22 3.97 3.59 1.01 2.72 1.08 5.65.99 8.52.46 3.36 2.66 6.43 2.26 9.94-.01 2.05-.98 4.2-.04 6.17 1.87 4.12.82 8.71 1.01 13.07 2.25 13.93 2.78 28.14 5.85 41.95.4 7.35 2.93 14.45 2.36 21.87-.87 15.9-2.74 31.82-1.66 47.76.7 2.61 1.45 5.33 0 7.86-3.23-6.91-1.81-14.7-4.19-21.78-.43-2.97-.09-6.06-1.21-8.89-2.72-7.32-1.56-15.41-4.31-22.71-1.83-4.97-1.82-10.39-3.62-15.37-1.53-3.93-1.2-8.31-2.75-12.23-1.39-2.39-3.59-4.14-5.44-6.15 4.62-4.3-1.99-9.84.02-14.78.94-2.97-.36-5.94-.7-8.88-.52-11.06-5.13-21.69-4.21-32.87.69-8.1-.25-16.22-1.41-24.23.58-8.9.29-17.84.39-26.76.21-6.21-1.02-12.34-2.34-18.37-3.59-.72-6.93-2.65-10.66-2.58-11.08.4-21.13-5.48-32.1-6.02-4 .05-6.77-3.71-10.89-3.24 1.03 11.88 2.22 23.76 2.27 35.68-.39 7.94-1.14 16.11 1.33 23.8.34 8.61 2.63 17 2.55 25.64 1.44 5.71 1.88 11.91-.78 17.36.64 5.75-.11 11.6-1.92 17.1.18 2.91-.66 5.52-2.26 7.94-1.17 10.84 1.31 22.03-1.57 32.67.09 5.57.36 11.34-1.24 16.73-.68-1.51-1.47-3.03-1.43-4.71-.53-8.4 1.12-17.07-1.68-25.2-.03-5.19-1.6-10.24-1.76-15.38 1.25-4.88-.57-9.59-1.26-14.35 1.61-10.99-.98-22.04.07-33.05-2.34-9.26-.9-19.13-3.98-28.28-.35-6.92-1.53-13.79-1.43-20.73-.37-5.08-1.23-10.17-2.97-14.97-1.82-4.31-.32-9.12-1.54-13.55-1.02-3.76-2.01-7.54-2.52-11.41-.31-3.43-3.74-5.57-6.84-6.16-3.62-.84-6.72-3.47-10.54-3.44-2.32-.02-4.43-1.09-6.62-1.7l.16 2.87c3.17 2.21 6.04 4.83 8.52 7.8-3.01-1.02-6.01-2.35-9.25-1.66-.25-.88-.49-1.75-.72-2.62-2.24-.25-4.85-.37-6.27-2.4-3.28-4.07-6.3-8.39-10.07-12.02-2.73-1.82-6.92-2.93-7.2-6.81-.18-2.37-1.77-4.1-3.32-5.72-2.18-2.18-3.22-5.25-5.73-7.11.19 2.13.54 4.26.86 6.39-3.61-3.57-6.19-7.98-9.65-11.68-6.92-9.26-11.57-20.05-15.17-30.96-2.39-4.12-6.31-7.11-8.55-11.32-.94-2.48-2.37-4.86-2.57-7.54-.16-7.86-.55-16.01 2.6-23.41 4.85-8.06 9.8-16.09 15.31-23.7 6.62-5.12 13.65-10.17 21.85-12.4-4.74 4.29-10.61 6.97-16.14 10.06-1.85.87-2.05 3.16-2.83 4.82 1.62-.47 3.24-1.01 4.65-1.98 5.41-3.58 11.68-5.99 16.21-10.8 2.76-4.09 4.49-9.43 9.33-11.6 5.42-3.26 12.19-1.9 17.67-4.95 5.17-1.15 10.43-2.33 14.9-5.33.38 1.5.77 3.01 1.17 4.51 4.64-2.5 9.87-3.31 14.67-5.42-.08 1.76-.21 3.53-.3 5.29 3.15-.68 6.35-1.2 9.6-.99-2.2 3.56-6.56 3.94-9.99 5.67-2.5 1.16-5.25 1.54-7.89 2.21.92-2.05 1.85-4.09 2.62-6.2-5.9-.13-10.97 3.25-16.06 5.77-.13.65-.4 1.96-.54 2.61 1.76-.33 3.52-.7 5.29-1.07-2.06 5.13 1.09 10.18 4.12 14.19-2.97 1.57-5.65 3.59-8.36 5.54-2.35 1.76-5.55.79-8.14 1.91-5.58 2.32-10.6 5.88-16.44 7.55-5.56 1.7-10.98 4.3-16.94 3.92-2.53 3.42-4.94 6.99-6.86 10.79.19 2.24.6 4.46.95 6.69 1.49 5.19-4.06 9.52-2.69 14.75 1.53 5.12 3.61 10.08 4.52 15.38.16 1.64 1.55 2.66 2.52 3.86-1.11 1.04-2.22 2.08-3.27 3.18 4.22 3.66 8.03 7.76 11.79 11.88 2.65 3.41 4.29 7.56 7.37 10.65 2.64 2.23 6.09 3.15 8.88 5.16 3.31 2.64 5.78 6.27 9.48 8.43 2.78 1.76 5.94 3.54 7.25 6.76.91 1.68 1.38 3.96 3.44 4.65 2.13 1.52 4.27-.77 6.23-1.52.64 1.81 1.08 3.71 1.94 5.44 1.19 1.33 2.89.15 4.31-.03-.96-2.48-1.91-4.97-2.51-7.56 1.5.67 2.99 1.4 4.48 2.15-.13-2.11-.11-4.24-.53-6.31-.74-1.26-2.37-1.5-3.51-2.22-.23-1.99-.42-3.98-.65-5.96-3.33-.24-6.91-.11-9.46-2.64 1.82-5.83-1.22-11.78-4.1-16.69 1.79-3.27 5.41-5 8.21-7.32-.61-3.45-.96-6.94-1.47-10.4-.9-3.04-2.03-6.08-1.73-9.31-.44-5.17 6.11-8.22 5.03-13.58-2.01-2.12-5.05-3.22-6.4-5.92-3.24-5.93-3.09-12.93-5.66-19.1.85-.82 1.7-1.64 2.56-2.46 3.03.49 6.06 1.04 9.13 1.33 1.17 4.33 2.68 8.58 3.04 13.09 1.03.3 2.07.61 3.11.91-.27-2.07-.45-4.16-.32-6.24 1.56 1.66 2.85 3.58 4.48 5.19 2.1.97 4.45 1.26 6.64 2.02-1.46 2.4-4.28 4.5-3.48 7.65.93 5.18.75 10.56 2.44 15.59.77 3.05.5 6.23.61 9.35.96.4 1.93.81 2.9 1.22 14.36-7.93 30.66-11.29 44.97-19.29-.06-5.91.35-11.84-.08-17.75-2.72-10.26-2.91-21.03-4.44-31.5-2.24-4.19-1.03-8.84-.96-13.27-2.29-5.61-.95-11.72-2.13-17.53-.89-5.13.54-10.55-1.52-15.48-1.6-6.12-2.75-12.48-2.31-18.82.11-5.01-3.08-9.5-2.01-14.52-.77-10.84-.57-21.72-.99-32.57-.09-5.03-2.65-10.41.36-15.03-2.59-3.23-1.76-7.49-1.97-11.31m8.25 31.9c-.65 1.3-1.13 2.67-1.62 4.03 1.62.01 3.25 0 4.89-.01-.58-1.64-.91-4.38-3.27-4.02m7.96 166.14c.05 1.27.15 2.55.27 3.83-1.99 1.28-3.5 3.1-3.83 5.52 2.91-.28 5.03-2.3 7.16-4.09-.5-1.74-.9-3.5-1.22-5.28-.59.01-1.79.01-2.38.02m-8.05 7.27c-.42 1.36.08 1.87 1.49 1.54.41-1.38-.09-1.9-1.49-1.54m3.46 4.26c-2.23 1.42-3.89 3.75-6.56 4.42-5.98 1.94-10.48 6.98-16.67 8.39-3.95 1.38-8.13 2.69-11.09 5.82-2.07 2.01-5.7 3.45-5.85 6.67 1.33 3.55 1.72 7.28 1.88 11.04 2.14 8.72.9 17.86 3.3 26.56 6.34 4.18 14.25 4.57 21.43 6.55 7.24 1.79 14.92 2.1 21.79 5.21 3.68 1.38 7.55 2.14 11.38 3.01-.41-4.26-1.04-8.5-1.56-12.75-1.12-6.59-1.01-13.43-3.28-19.78-.3-3.37.37-6.81-.76-10.1-.97-8.13-1.16-16.39-2.69-24.47-.26-2.36-2.69-3.46-4.14-5.05 1.16-1.36 2.34-2.71 3.51-4.07-1-1.28-1.98-2.56-2.94-3.85-2.53 1-5.16 1.62-7.75 2.4m-21.49 6.52c-1.55 2.97 3.35.13 0 0m-40.89 22.72c-.2.29-.61.86-.81 1.14.85 3.14 4.15-1.78.81-1.14m-23.95 30.24c-1.37.7-1.42 1.36-.13 1.98 1.37-.7 1.41-1.36.13-1.98m118.48 52.65c.32 1.9.72 3.79 1.23 5.66.77-1.01 1.53-2.03 2.27-3.07-1.13-.93-2.33-1.75-3.5-2.59m3.07 25.39c-1.02 1.29 1.21 2.86 2.19 1.61 1.04-1.31-1.24-2.87-2.19-1.61m2.97 29.22c.74 1.15 1.5 2.3 2.28 3.45.76-1.17 1.53-2.32 2.3-3.49-1.54-.02-3.07 0-4.58.04zm-29.45-367.88c1.17 1.97 2.17 4.04 3.07 6.16-1.17-.54-2.33-1.1-3.47-1.68.11-1.49.24-2.99.4-4.48zm-154.02 2.85c.55.56.55.56 0 0z"/><path d="m797.15 56.67c1.1-1.07 2.23-2.14 3.34-3.22.13.88.38 2.64.51 3.52-.97-.07-2.89-.22-3.85-.3zm-693.16-.83c.71.15 2.13.46 2.84.61.14 4.09.83 8.47-1.14 12.26-2.31-3.87-1.41-8.59-1.7-12.87zm540.38.52c1.35-1.21 3.57 1.09 2.39 2.43-1.37 1.18-3.62-1.08-2.39-2.43zm-.32 6.95c1.4.17 1.65.84.75 2.01-1.42-.18-1.67-.85-.75-2.01zm-1.74 11.1c1.44-.03 1.3 2.43.02 2.61-1.52.05-1.25-2.37-.02-2.61zm-527.75 16.13c1.76-1.95 3.57-3.87 5.38-5.78-.14 2.02-.49 4.02-.56 6.05.57 1.46 1.58 2.7 2.43 4.01-.4.36-1.21 1.09-1.61 1.46-.58-1.45-1.14-2.9-1.67-4.36-.65 0-1.97-.01-2.62-.01-3.03 5.59-2.43 12.44-6.49 17.54-.73-2.51-2.92-5.46-1.04-7.97 2.24-3.55 3.33-7.77 6.18-10.94zm289.64-3.37c1.63-.52 2.19.03 1.68 1.65-1.64.53-2.2-.02-1.68-1.65zm234.09 1.39c1.25 2.51 3.14 5.14 2.43 8.09-.76 4.18-.66 8.47-1.46 12.64-.98 5.11.08 10.43-1.45 15.45-.62 2-.86 4.1-.84 6.19-.03 9.7.14 19.41-.01 29.11-.49 5.39-1.86 10.9-.2 16.24 1.63-.89 3.25-1.82 4.91-2.66 3.46 8.05 2.08 16.88 2.35 25.38.29 10.58-2.51 21.16-.71 31.71 1.32 6.16.09 12.51 1.25 18.69.73 3.88-.08 7.98 1.36 11.72 2.03 5.18.43 10.86 1.67 16.2.38 5.73 3.01 11.54 1.06 17.24-.53 1.63-.15 3.33.01 4.98-4.04.55-7.49 3.64-8.56 7.55.08 2.4.74 4.73 1.08 7.1-.72-.14-2.15-.43-2.87-.57-1.63-3.67-2.34-7.8-4.88-11.01-1.23-1.96-3.31-3.67-3.07-6.19-.4-9.58-6.74-17.25-11.84-24.86-4.57-8.03-9.6-15.78-14.44-23.64-6.91-8.63-12.89-17.97-18.6-27.42-2.81-3.68-4.4-8.32-8.19-11.19-.74 13.87.04 27.78-.38 41.66-.73 3.56-1.68 7.08-2.02 10.72-1.23 4.54-.15 9.52-2.4 13.79-2.78 4.5-.49 10-2.26 14.77-1.04 2.66-1.12 5.54-1.67 8.31-1.03 2.19-2.56 4.14-3.32 6.46.5 4.21.85 8.5 2.21 12.55 1.23 3.11 2.99 6.01 3.81 9.29-5.16-2.33-5.38-8.63-8.35-12.77-1.58-2.72-4.72-3.7-7.1-5.52.88-1.69 1.78-3.38 2.57-5.12-.67-.57-2.01-1.69-2.67-2.25-.5 1.72-.96 3.44-1.45 5.17-2.28-2.38-3.68-5.34-4.11-8.61-.45-4.09-3.71-6.9-6.06-10-4.7 4.05-10.79 5.91-15.74 9.57-3.69 3.33-8.51 4.86-12.85 7.12-1.77.76-2.36 2.74-3.25 4.28-4.14-1.6-8.3.34-11.27 3.26-.96 1.11-.94 2.6-.96 3.98-.05 10.06.27 20.13-.06 30.19 0 1.98 1.04 4 .18 5.92-1.31 3.72-1.5 7.73-1.82 11.63.54 5.92-1.49 11.74-.81 17.67.31 2.64-1.43 4.98-1.35 7.6.26 8.69-.35 17.38-1.08 26.03-.5 6.33.83 12.84-1.12 19h-2.75c-.69-8.02-2.53-15.95-2.29-24.04-.58-7.94-.01-15.92-.72-23.85.56-11.31 1.18-22.65.61-33.97-1.28-6.32-.77-12.76-.56-19.14-.93-4.38-.83-8.87-1.22-13.3-1.68.33-3.51.35-4.94 1.4-6.45 4.46-13.36 8.41-18.81 14.16-3.98 4.25-8.46 8-13.38 11.1-7.43-5.95-12.31-14.42-19.08-21.08 1.47-1.43 2.94-2.87 4.43-4.28-2.2-3.97-4.39-7.98-5.89-12.26-.14-1.8.37-3.58.16-5.37-1.23-2.95-4.28-5.1-4.38-8.49-.09-5.01-2.63-9.45-3.76-14.23-1.28-6.69-3.75-13.05-5.47-19.62-1.8-5.11-2.24-10.67-4.79-15.49-4.4 2.99-8.8 6-13.31 8.84 2.19 4.72 4.34 9.47 6.57 14.18 2.88 8.16 7.43 15.6 10.27 23.78 2.9 9.13 8.25 17.34 10.44 26.71.34 3.86 2.53 7.31 2.53 11.22.38 6.53 4.99 11.84 5.52 18.32-5.03-4.77-6.17-12.03-10.45-17.3-1.48-.62-3.07-.83-4.63-1.08-.26-.6-.52-1.2-.77-1.79 1.19-1.14 2.4-2.26 3.6-3.39-.82-.66-1.64-1.31-2.46-1.96-1.07.73-2.15 1.47-3.24 2.18-3.71-5.82-5.41-12.62-8.84-18.58-1.91-3.87-3.44-7.92-5.26-11.83-2.53-4.08-5.54-7.88-7.72-12.17-.17-2.12.47-4.39-.7-6.33-2.22-4.51-4.51-8.99-6.23-13.73-3.93 2.16-7.52 4.94-10.75 8.04-2.05 2.68-3.51 5.77-5.79 8.28-1.62-.38-3.23-.76-4.84-1.09-.31 7.62.1 15.28-.5 22.88-2.71 9.91-.55 20.3-2.45 30.32-.13 8.98-.5 18.01.5 26.95-.67 4.88-.44 9.82-.93 14.72-1.37 7.35-.29 14.85-.75 22.27-.14 2.66-1.68 5.05-1.64 7.73-.01 3.62-.33 7.24-.02 10.86.3 2.55-1.08 4.9-1.16 7.43-.24 6.33-.59 12.65-1.05 18.97-.38 5.46.84 11.19-1.4 16.39-.81-.9-1.68-1.73-2.31-2.75-1.23-6.4-1.89-12.92-1.61-19.44-1-5.69-.7-11.47-.75-17.22.09-3.85-1.68-7.69-.53-11.5 1.57-5.1.96-10.49.1-15.65.54-7.27.56-14.58.41-21.87 0-2.45-1.19-4.65-1.69-6.99.63-2.71 2.66-5.49 1.14-8.29-2.16-4.12-1.02-8.86-1.82-13.27-.47-3.68-1.49-7.49-.47-11.16 1.31-5.12 1.42-10.65-.27-15.68-.75-9.51 1.84-19.04.12-28.51-.27-3.44-1.82-6.54-3.62-9.4.29-3.03 3.46-4.42 5.64-6-1.88-7.28-.35-14.85-1.42-22.21-.87-6.08-1.65-12.17-1.76-18.32-.96-3.59-2.05-7.16-2.07-10.93-1.45-6.73.34-13.83-2.34-20.32.23-5.07 4.93-8.01 7.97-11.49 3.23-2.79.08-7.98 3.12-10.89 2.75-2.2 5.77-4.03 8.76-5.89 5.55 6.17 6.23 14.8 10.42 21.74 2.53 3.86 1.98 8.74 4.3 12.68 2.87 5.11 4.36 10.81 7 16.03 3.77 7.19 4.78 15.54 9.37 22.36 3.99-2.64 8.22-5.06 11.67-8.41 1.98-7.32 5.39-14.15 7.56-21.42 2.11-5.12.8-10.84 2.83-15.99 2.65 1.02 5.07 2.51 7.56 3.85-.34 2.24-1.4 4.65-.22 6.83 1.07 2.34 1.75 4.82 2.06 7.37.96 2.31 2.92 4.05 4.39 6.05 2.37-1.94 4.17-4.43 6.08-6.78 1.36.15 2.73.32 4.09.51-.15-1.12-.3-2.25-.43-3.36 1.62.31 3.24.67 4.86 1 .61-1.09 1.21-2.18 1.8-3.27 1.11-.16 2.37-.16 3.25-1 2.3-2.16 5.04-3.84 8.06-4.81 2.71-.86 5.69.56 8.32-.73 2.8-1.33 5.84-2.07 8.68-3.32 3.05-1.98 6.05-4.04 9.17-5.91-1.78-5.48-2.33-11.23-2.95-16.92 1.02-4.1 5.29-6.11 7.55-9.45 2.65-3.12-.19-8.14 3.04-10.92 2.84-2.82 6.42-4.71 9.56-7.17 5.17 5.27 5.45 13.13 8.75 19.43 2.37 4.36 3.69 9.14 5.19 13.83 1.42 4.56 4.36 8.45 5.98 12.94 3.12 9 7.43 17.54 10.21 26.66 4.5-1.22 8.14-4.39 11.76-7.18 2.19-1.41 1.75-4.2 2.18-6.42 2.76.25 5.5 1.29 8.29.98 2.7-1.57 5.52-3.14 7.84-5.24.26-8.82-.1-17.66.15-26.48 1.57-3.29 2.13-6.83 2.54-10.43 2.24 1.04 4.45 2.22 6.21 3.99 1.98 2.1 5.02 2.84 6.76 5.22 2.39 3.33 5.14 6.48 6.8 10.28 1.84 4.94 8.59 4.49 12.43 2.26 2.58-.74 2.64-3.65 3.3-5.79 5.66-1.67 11.57-3.08 16.53-6.43 4.54-3.56 11.13-4.62 13.63-10.4.26-8.61.46-17.34 2.48-25.75-.11-3.92-.67-7.86-.05-11.76.71-4.4 1.74-8.77 1.77-13.25.12-4.95 1.98-9.61 3.81-14.13 1.54-3.57 1.06-7.54 1.45-11.32m-13.56 87.15c-4.47 7.8-14.38 8.7-20.67 14.38-3.51 2.92-7.85 4.45-11.92 6.39-.1 1.47-.18 2.94-.26 4.42 4.39 3.31 6.22 8.6 9.12 13.07 1.81 2.95 2.74 6.37 4.81 9.19 4.01 5.47 7.11 11.51 10.82 17.18 2.95 4.69 4.16 11.7 10.39 13.13.54-6.5.09-13.03-.63-19.49 1.88-10.23.81-20.7-.36-30.95.14-8.95-.78-18.03 1.08-26.86-.8-.16-1.6-.31-2.38-.46m-152.6 31.41c-8.08 5.5-16.87 9.76-25.24 14.77-5.43 3.77-11.65 6.59-15.99 11.74 3.64 5.95 4.16 12.96 5.84 19.56.73 5.79 2.76 11.32 3.62 17.1 1.19 8.62 5.3 16.56 6.03 25.27.67 2.99-2.41 5.81-.79 8.74 1.84 4.13 2.18 8.69 3.32 13.03 4.81-2.68 10.15-3.86 15.49-4.88 3.72-2.6 7.91-4.3 12.12-5.91 4.37-1.54 7.84-4.69 11.78-7.03-.45-1.77-.95-3.52-1.65-5.2-1.68-3.44-1.01-7.39-1.28-11.08 1.03-7.08 2.36-14.35.7-21.43-1.22-2.86-2.98-5.46-4.21-8.33 2.32-2.53 6.51-4.44 6.16-8.42.16-14.97-3.24-29.69-4.34-44.58-3.99 1.98-7.51 4.76-11.56 6.65m32.22 3.22c.46 4.89-.61 9.75-.35 14.65.17 4.32-.17 8.62-.59 12.9.71 2.25 2.98.65 4.1-.34 3.2-2.83 6.92-5.04 9.93-8.09-5.03-5.69-6.81-13.16-10.5-19.64-.64.13-1.94.39-2.59.52m31.37 24.29c3.15 5.94 6.36 11.89 8.35 18.33 4.11 8.33 7.33 17.43 14.08 24.1.88-.47 1.77-.93 2.67-1.38.33-.98.67-1.95 1.02-2.92-1.65-.26-3.31-.49-4.95-.76 1.15-1.82 2.1-3.77 2.58-5.88 2.47-6.04.35-12.6.29-18.86-.11-9.41-1.89-19.02 1.22-28.16-.46-.31-1.38-.93-1.84-1.25-8.33 4.83-16.08 10.59-23.42 16.78m-168.66-3.74c-.16 5.53.24 11.09-.51 16.6-.45 4.34-.67 8.72-.34 13.08 3.1-1.53 5.31-4.28 8.17-6.16 1.68-1.35 4.53-2.53 3.53-5.2-1.89-6.47-5.94-12.03-8.45-18.24zm149.51 16.72c-3.46 2.86-5.61 6.86-8.33 10.36-1.62-.54-3.45-2.04-5.11-.77-.59 6.79.48 13.67-.53 20.43-1.46 5.4-.55 11.01-.7 16.52 5.88-2.48 11.41-5.69 17.17-8.45.31 2.42.25 4.87.09 7.3 2.86-.01 5.76.22 8.62-.22 3.34-1.11 6.3-3.12 9.6-4.39 2.12-1.56 4-3.54 5.65-5.61.3-1.88-1.18-3.29-2.05-4.77-2.09-2.77-3.19-6.09-4.96-9.04-1.85-2.65-4.08-5.34-4.45-8.68-.21-3.72-2.52-6.82-3.55-10.31-.8-2.6-2.24-4.91-3.54-7.27-3.39.12-5.54 2.87-7.91 4.9m-95.72 18.84c.53 4.72 1.9 9.32 3.51 13.78 1.74-.85 3.57-2.56 2.17-4.6-1.91-3.07-1.88-7.72-5.68-9.18m135.18 11.51c-.24.33-.72 1-.96 1.33 1.04 1.18 2.61 2.11 2.76 3.84.79 3.72 1.82 7.4 3.43 10.87.7-.03 2.12-.08 2.82-.11-.77-4.44-1.26-8.92-1.17-13.43-2.42-.48-4.72-1.34-6.88-2.5m-130.88 2.3c-.04 1.61-.07 3.22-.09 4.83.86.08 2.57.23 3.43.3-.13-2.29-1.43-3.99-3.34-5.13m211.06 20.23-1.16 4c1.4.13 2.82.26 4.24.37-.18-1.98-1.25-3.57-3.08-4.37zm-239.77-206.39c1.45-1.48 3.08-2.79 4.93-3.74-.33 2.69-2.23 4.23-4.93 3.74zm280.12 44.36c3.27-3.63 5.3-8.81 9.88-10.95-2.27 4.34-5.04 9.14-9.88 10.95zm96.4 4.75c1.55-.47 3.09-.96 4.66-1.39-.97 2.03-2.62 3.54-4.47 4.74-.05-.83-.14-2.51-.19-3.35zm-37.74.74c3.85-.57.02 4.6-1 1.2zm22.14 8.27c1.74-2.87 5.08-3.81 8.16-4.5-2.28 2.21-5.1 3.75-8.16 4.5zm-677.95 5.2c.67-1.99 1.16-4.78 3.8-4.86-1.1 5.74-2.51 12.17-7.23 16.08.72-3.86 2.38-7.45 3.43-11.22z"/><path d="m642.18 171.15c1.62-.52 2.17.04 1.67 1.67-1.63.51-2.19-.04-1.67-1.67zm190.19.24c2.81 1.68 3.75 4.9 4.95 7.74-.76-.02-2.29-.06-3.06-.07-.65-2.56-1.43-5.08-1.89-7.67zm94.36 3.27c4.1-.64 7.79-3.45 12.09-2.63 2.67.68 5.03 2.22 7.56 3.31-4.61 1.76-7.56 5.62-10.47 9.38-2.91-.39-5.99-.89-8.77.34-6.26 2.17-13.21.23-19.33 2.78-2.01-.09-3.47-2.02-5.22-2.86.26 3.74.58 7.83 3.54 10.53-7.33 8.4-20.28 6.87-28.31 14.3-3.19 3.22-8.76 2.58-11.16 6.81-3.38 5.18-6.58 10.63-8.47 16.55.12 3.25.91 6.45 1.22 9.69 5.61-1.8 11.37-2.93 17.29-2.98.27 1.6.56 3.21.87 4.82 1.64-1.36 1.8-3.45 1.9-5.43 3.8-.14 7.53-1.12 11.34-1.24 1.28.8 2.25 1.98 3.35 3.03-.47-1.35-.93-2.68-1.37-4.03 2.81-.04 5.62-.03 8.44-.05.02 1.47.06 2.94.16 4.41 1.9-.96 3.75-2.02 5.58-3.14-1.06-1.02-2.12-2.02-3.18-3.02 7.61.26 14.81-3.79 22.43-2.59 2.72.31 5.09-1.55 7.81-1.54 5.72.02 11.31-1.38 17.02-1.62 3.91-.56 7.71-1.96 11.7-2.02 4.49.89 3.38 6.11 3.57 9.5-7.99-.28-15.98.32-23.86 1.52-3 .93-5.89 2.16-8.82 3.28-2.17.92-4.08-.76-5.86-1.73-1.17.95-2.33 1.9-3.49 2.85a97.79 97.79 0 0 0 -4.5-2.17c-.64 1.91-1.26 3.83-1.96 5.72-2.4-.63-4.63-1.69-6.83-2.77-1.66 1.62-3.36 3.19-4.95 4.86-2.85-.48-5.74-.53-8.61-.46-.56 1.62-1.13 3.24-1.68 4.86 3.89-.86 7.89-1.15 11.87-.76-1.22 2.44-4.18 2.24-6.44 2.82-5.99.94-11.77 2.79-17.78 3.55-5.95 2.22-12.88 1.95-18.07 5.96 2.54 2.64 4.18 5.93 6.28 8.88 7.79 5.39 16.06 10.05 24.41 14.53 8.72 3.12 16.62 8.37 25.73 10.42 6.35 2.54 13.31 2.82 19.71 5.19 5.36 1.79 11.11 1.84 16.48 3.59 5.34 1.63 11.16 1.36 16.32 3.66 4.04 2.09 8.7 2.34 12.9 4.08 3.56 1.69 7.63.15 11.26 1.68 5.03 1.93 11.01 1.24 15.44 4.51-5.57 1.08-11.27-.03-16.9.23-4.96-1.06-10-1.63-15.04-2.17-5.17-.26-10.34-1.54-15.51-.58-4.85 1.16-9.48-1.22-14.25-1.66-4.86-.49-9.31-2.83-14.2-3.04 1.11 1.71 2.26 3.4 3.37 5.12-7.35-2.4-15.09-3.2-22.34-5.88-7.32-1.79-14.55-3.96-21.67-6.4-5.36-2.9-10.98-5.18-16.67-7.32-9.25-5.02-19.48-8.51-27.55-15.45-2.91-2-5.6-4.29-8.23-6.63-2.42.97-4.93 2.18-7.61 1.73-2.38-1.67-3.96-4.23-6.31-5.95.84-1.1 1.74-2.15 2.47-3.33.17-5.92-1.94-11.64-4.31-16.98-1.34-4.59 4.3-6.16 6.53-9.14.84-3.77 1.2-7.64.73-11.48 2.19-5.6 6.95-9.64 9.87-14.78 1.12-8.13-4.28-15.25-5.31-23.12 3.02 1.37 3.89 4.54 4.43 7.53.85 3.75 2.51 7.24 4.12 10.71 3.46-1.24 5.98-4 9.08-5.84 2.72-1.14 5.29-2.59 7.75-4.23 1.99-1.37 4.95-1.38 6.18-3.76 2.41-4 5.74-7.46 7.15-12.02 1.23-3.56 5.48-2.6 8.42-2.94 6.86-1.18 13.15-4.48 19.9-6.05 6.35-.3 12.49-2 18.76-2.94m-69.46 35.56c-.55 1.63-.01 2.17 1.62 1.63.54-1.64-.01-2.18-1.62-1.63m94.92 20.7c0 .72-.01 2.15-.01 2.86 4.12.07 8.82 1.56 12.29-1.48-.42-.57-1.26-1.73-1.68-2.3-3.16 2.47-7 1.34-10.6.92m-44.12 7.66c.04.55.12 1.63.15 2.18 1.97.73 3.97 1.35 5.98 1.99.6-2.24 1.21-4.47 1.92-6.68-2.58 1.18-5.29 1.96-8.05 2.51m-20.72 2.38c-1.82.36-1.26 3.27.6 2.6 1.8-.31 1.24-3.34-.6-2.6m-20.17 2.12c-.52 1.62.03 2.17 1.67 1.66.51-1.62-.05-2.18-1.67-1.66m21.41 7.88.32 3.02c.78.01 2.33.03 3.11.05-.02-.75-.05-2.24-.07-2.98-.84-.03-2.52-.07-3.36-.09m-52.47 15.23c-1.44 3.03 3.34 0 0 0zm-760.83-92.87c1.53-1.23 2.9 1.5 1.52 2.46-1.53 1.2-2.94-1.51-1.52-2.46z"/><path d="m886.52 180.87c1.05-.81 2.13-1.6 3.23-2.37.39 1.28.77 2.56 1.15 3.85-1.47-.48-2.94-.97-4.38-1.48zm-154.79-1.31c1.69.52 3.33 1.21 4.86 2.14-1.22.47-2.37 1.05-3.44 1.75-.47-1.3-.95-2.6-1.42-3.89zm209.92 4.83c.85-1.64 1.81-3.23 2.81-4.8.43.59 1.29 1.76 1.72 2.35-1.49.85-3 1.69-4.53 2.45zm-866.9 3.23c-1.76-2.17-2.35-6.07 1.17-6.8.08 2.32-.26 4.64-1.17 6.8zm753.52-2.35c1.62-.55 2.16-.01 1.63 1.63-1.65.54-2.19-.01-1.63-1.63zm-9.19 9.73c1.26.64 1.23 1.31-.1 2.03-1.29-.64-1.26-1.32.1-2.03zm.32 10.21c1.24-3 3.76-5.27 7.09-5.55-.82 3.36-4.33 4.32-7.09 5.55zm18.76 4.04c1.27.7 1.23 1.37-.12 2-1.29-.7-1.26-1.37.12-2zm-11.07 4.66c.45-.89.97-1.73 1.56-2.53 1.67 2.85 2.79 5.98 3.51 9.21-2.91-1.05-3.91-4.11-5.07-6.68zm179.17 8.35c.51.52.51.52 0 0zm-20.6 6.03c.15-2.54 2.04-4.14 3.81-5.71l1.99 2.67c-1.94 1.02-3.84 2.09-5.8 3.04zm8.58-4.92c1.32-.92 3.8.92 3.28 2.43-1.35.77-4.05-.81-3.28-2.43zm-26.58 4.89c3.96-.34 8.18-1.61 11.86.62-4.06 2.34-8.11 4.88-12.67 6.09.85-2.21 3.68-2.33 5.5-3.46-1.58-1.09-3.16-2.14-4.69-3.25zm-871.29 22.11c2.99 2 3.28 7.51-.15 9.25-.21-3.08-.16-6.18.15-9.25zm134.1 26c2.2.02 4.4.04 6.6-.1-.03.67-.07 1.99-.1 2.66-1.28.35-2.54.86-3.88.97-1.44-.62-1.84-2.32-2.62-3.53zm306.66 1.46c1.52-.53 2.38 3.14.62 3.18-1.22-.45-1.44-2.29-.62-3.18zm-13.67 9.47c.81-1.87 2.12-3.43 3.71-4.7 0 2.54-.79 4.73-3.71 4.7zm55.76 7.06c1.95 1.03 1.83 3.39 2.27 5.27.97 4.19-.59 8.37-.75 12.56l-2.04-.56c.51-5.75.07-11.52.52-17.27zm72.92 1.13c1.61.47 3.26 1 4.48 2.24-1.54.12-3.08.23-4.61.31.03-.64.1-1.91.13-2.55zm5.23 3.1c1.98-.55 3.97-1.08 5.99-1.52-.56 1.14-1.11 2.28-1.67 3.42-1.43-.66-2.88-1.27-4.32-1.9zm-7.72 8.89c3.65.9 5.3 4.64 5.56 8.09-2.86-1.87-4.74-4.8-5.56-8.09zm-54.32 11.59c.73-3.03 2.7-5.64 4.1-8.41-2.75 8.5.38 17.34-.8 25.97-4.13 10.55-1.89 22.45-6.33 32.91-2.61-5.55-1.42-12.22.05-17.96.28-1.96-.13-3.98.42-5.91.62-3.05 3.35-5.39 3.24-8.63.21-6-.19-12-.68-17.97zm-38.96-6.95c1.6-.5 2.15.07 1.64 1.72-1.62.48-2.16-.1-1.64-1.72zm2.27 3.05c1.24-1 2.97 1.1 1.8 2.17-1.23 1.14-2.74-1.15-1.8-2.17zm97.66 4.01c1.31-1.03 2.82 1.21 1.66 2.22-1.29.97-2.89-1.25-1.66-2.22zm-95.05 2.09c.53.53.53.53 0 0zm157.26.26c3.23 1.47 5.72 4.14 7.99 6.8-3.57-.72-6.51-3.56-7.99-6.8zm-156.34 3.79c.94-1.24 3.2.32 2.24 1.61-.99 1.21-3.26-.28-2.24-1.61zm396.66-.74c3.32 3.9 5.76 8.52 9.47 12.11 2.22 2.15 4.27 4.48 5.97 7.08 2.36 3.62 5.9 6.5 7.14 10.8-3.03-1.24-4.26-4.4-6.23-6.75-2.46-3.02-4.34-6.44-6.71-9.52-1.58-.41-3.21.09-4.77.24-2.03-4.5-3.76-9.16-4.87-13.96zm-229.66 1.59c1.62-.53 2.17.03 1.66 1.66-1.64.52-2.19-.04-1.66-1.66zm-697.71 1.44c2.58.69 5.49.52 7.74 2.14 3.13 2.12 6.5 3.93 9.33 6.48-5.51-1.94-10.34-5.64-16.21-6.57-.21-.51-.64-1.53-.86-2.05zm700.81 3.48c1.3.61 1.3 1.29 0 2.04-1.32-.61-1.32-1.29 0-2.04zm-311.73 3.44c1.03 1.07 2.09 2.13 3.09 3.24-.9.03-2.7.1-3.61.13zm-252.15 7.65c1.63-.79 3.26-1.55 4.9-2.31.56 2.43.75 4.92.79 7.42-2.3-1.21-4.37-2.83-5.69-5.11zm430.33 1.21c1.41-1.23 2.82-2.47 4.22-3.71.57.42 1.7 1.26 2.26 1.67-.11 3-.93 5.93-2.54 8.47-.33.04-1 .13-1.33.17-1.06-2.13-1.87-4.36-2.61-6.6zm-423.91-2.6c2.19.29 4.35.73 6.51 1.21-.12 1.87-.26 3.75-.37 5.64 1.48.32 2.95.67 4.42 1.05-1.32.6-2.65 1.16-3.99 1.7-2.02-3.32-3.95-6.7-6.57-9.6zm248.29 1.29c1.39-.48 1.86-.01 1.4 1.4-1.4.49-1.87.02-1.4-1.4zm-238.08 1.84c3.77-.55-.13 4.73-.98 1.25.24-.31.73-.94.98-1.25zm-62.93 1.41c1.58-.57 2.46 2.02.69 2.33-1.59.57-2.46-2.04-.69-2.33zm302.4.78c1.61-.51 2.18.06 1.71 1.7-1.62.49-2.19-.07-1.71-1.7zm557.63 9.36c1.53-.71 2.78 1.9 1.69 2.96-1.55.72-2.79-1.92-1.69-2.96zm2.54 5.16c5.16 3.8 7.81 9.9 11.44 15-5.54-3.29-8.48-9.52-11.44-15zm-400.71 3.58c.76.02 2.27.04 3.03.06.1 2.66.22 5.53-1.77 7.61-1.05-2.43-1.28-5.06-1.26-7.67zm-378.81 5.93c3.34.11-1.52 2.98 0 0zm59.11.12c.53.53.53.53 0 0zm564.26 4.61c1.07-1.77 2.18-3.52 3.35-5.24-.3 2.73-.62 5.46-.7 8.21-.89-1-1.77-1.99-2.65-2.97zm-243.17-1.75c1.31.63 1.33 1.31.05 2.06-1.32-.62-1.33-1.31-.05-2.06zm-579.8 18.19c.99-1.58 3.48.17 2.3 1.63-.97 1.54-3.48-.19-2.3-1.63zm1.59 2.88c2.18.64-.27 3.91-1.73 2.45-.9-1.12.47-2.71 1.73-2.45zm850.17 2.28c1.96-.52 3.91-1.08 5.87-1.64-1.49 3.17-2.34 6.56-3.52 9.84-1.72-2.41-1.85-5.4-2.35-8.2zm-208.73-.96c2.4 1.58 4.34 3.81 4.76 6.75-2.6-1.41-4.35-3.8-4.76-6.75zm365.54 7.54c1.39-.46 1.86.01 1.41 1.43-1.4.45-1.88-.02-1.41-1.43zm-1002 2.22c3.34.04-1.47 3 0 0zm865.82 10.23c-2.93-.43-3.24-5.94.11-5.92 0 1.97-.04 3.94-.11 5.92zm25.41-2.25c3.45 4.7 4.29 10.8 3.4 16.47-1.31-1.55-2.98-2.97-3.55-4.96-.49-3.82-.27-7.7.15-11.51zm-815.18 16.16c1.39-.44 1.89.05 1.49 1.47-1.39.43-1.89-.06-1.49-1.47zm-5.87 3.74c1.33-1.05 2.81 1.24 1.6 2.22-1.29.99-2.84-1.27-1.6-2.22zm-10.9.88c3-1.57.14 3.32 0 0zm-61.3 3.23c3.31.15-1.53 3 0 0zm31.87 5.23c2.72-1.15 4.61-3.64 7.26-4.95-1.86 2.76-4.55 4.88-6.24 7.76-.82 3.29 2.05 5.73 5.06 6.08-.37.49-.75.99-1.13 1.49-1.52-.38-3.04-.73-4.57-1.05-.33.58-.98 1.73-1.3 2.31.51 1.31 1.1 2.6 1.52 3.96-.99 2.67-2.74 4.97-4.33 7.31-1.38-2.48-3.18-4.66-4.81-6.96-.33-2.56.78-5.22-.21-7.7-1.95-3.91 1.49-7.95 4.8-9.8 1.31.52 2.59 1.14 3.95 1.55zm39.36-3.9 2.49-.6c.82 6.08-1.3 12.78 2 18.33-1.21.23-2.41.54-3.58.94-1.57-6.11-.61-12.45-.91-18.67zm946.48.75c1.61 1.94 3.04 4.03 4.2 6.29v4.15c-1.48-3.45-3.2-6.81-4.2-10.44zm-982.83 22.01c1.39-.52 1.87-.06 1.43 1.35-1.39.52-1.87.07-1.43-1.35zm-37.77 5.94c.56.51.56.51 0 0zm946.8-.29h2c-.01 1.33-.01 2.67 0 4.01-.5-.01-1.51-.01-2.01-.02-.01-1.33-.01-2.66.01-3.99zm-294.15 11.56c-.49-2.71.04-5.43.75-8.05.68.49 2.03 1.46 2.71 1.94-.04 2.57-1.52 4.56-3.46 6.11zm273.06 2.12c2.99 5.24 6.12 10.62 7.28 16.62-3.66-4.82-7.25-10.35-7.28-16.62zm-288.76 5.62c3.31.23-1.57 2.98 0 0zm-487.67 21.79c1.47.04 2.93.09 4.39.16-.06 1.37-.13 2.73-.22 4.11-1.83-.95-3.22-2.46-4.17-4.27zm773.06 5.45c2.74.8 4.21 3.29 4.86 5.92-2.08-1.56-3.88-3.49-4.86-5.92zm-857.54 29.75c-.52-3.91 1.15-7.54 3.13-10.78-.39 3.75-1.98 7.22-3.13 10.78zm220.02-3.25c1.61-.48 2.17.09 1.7 1.72-1.62.46-2.19-.11-1.7-1.72zm-220.86 5.48c1.58.12 1.69 3.08.08 3.23-1.67-.19-1.81-3.06-.08-3.23zm772.98 9.11c1.38.16 1.62.83.73 2.01-1.41-.17-1.66-.84-.73-2.01zm1.14 6.51c1.61-.52 2.16.04 1.66 1.68-1.62.49-2.18-.07-1.66-1.68zm-548.08 2.63c1.41-.41 1.83 1.99.63 2.49-1.43.39-1.84-2.01-.63-2.49zm-.1 6.51c3.32.17-1.56 2.96 0 0z"/></g></svg>