<svg height="128pt" viewBox="0 0 128 128" width="128pt" xmlns="http://www.w3.org/2000/svg"><g fill="#cc1009"><path d="m.28 38.95c10.7-9.77 20.7-20.34 31.67-29.76 9.37.57 18.66 2.19 28.02 2.9-5.76 6.12-11.79 11.99-17.72 17.95 26.95 26.31 53.4 53.11 80.02 79.73 4.91 4.63-.21 13.05-6.34 12.85-3.8.66-6-2.89-8.41-5.12-25.41-25.4-50.85-50.78-75.91-76.54-5.06 4.7-9.75 9.77-14.63 14.65-5.57-5.55-11.09-11.15-16.7-16.66z"/><path d="m63.6 24.07c5.3.02 10.6.02 15.9 0 .01 2.69 0 5.38.01 8.07-.29.28-.89.83-1.18 1.11 1.82 3.04 1.02 6.67 1.16 10.03h-15.9c.02-6.4.01-12.8.01-19.21m5.46 4.99c0 .47.02 1.42.02 1.9 1.93-.15 4.08.04 5.49-1.58-1.84-.15-3.68-.24-5.51-.32m-.15 6.97v1.94c1.88-.06 3.76-.13 5.63-.25-1.29-1.94-3.64-1.51-5.63-1.69zm12.97-11.92c4.96-.04 9.91-.02 14.86-.03 0 6.41-.03 12.81.02 19.22-1.8 0-3.59 0-5.39.01l.03-3.07-4.18.03-.78 3.04c-1.85-.01-3.7-.01-5.55-.01 1.23-4.63 2.43-9.27 3.69-13.89l-2.7-.08zm6.61 10.72c.75 0 2.25.01 3 .01-.11-2.17-.17-4.34-.45-6.5-1.08 2.07-1.84 4.27-2.55 6.49zm10.88-10.76c1.63-.01 3.27-.01 4.91-.03.19 3.11 3.4 3.83 5.63 5.1 0-1.68.01-3.35.01-5.03 1.81-.02 3.62-.04 5.43-.07.02 6.42-.01 12.84 0 19.25-1.82-.01-3.65-.02-5.47-.02.04-2.53.04-5.05.16-7.58-1.78-.97-3.56-1.91-5.35-2.87 0 3.49 0 6.98.02 10.46h-5.36c.04-6.4.02-12.81.02-19.21zm18.27.68c1.71.01 3.43.01 5.15.01-.02 4.15-.02 8.3 0 12.45-1.72 0-3.44 0-5.15.01 0-4.16.01-8.31 0-12.47zm.87 17c.1-1.79 1.32-2.53 2.95-2.71l.08 2.91z"/></g></svg>