<svg xmlns="http://www.w3.org/2000/svg" width="298pt" height="244pt" viewBox="0 0 298 244"><path fill="#c6dbca" d="M111.98 11.42c16.11-1.13 32.59-2.42 48.47 1.35 6.24 1.89 12.97 3.97 17.26 9.22-9.3-7.92-21.86-10.19-33.71-10.73-10.67.07-21.38-.4-32 .94-7.88.35-16.16 1.34-22.94 5.71-1.91 1.14-3.01 3.13-4.19 4.94-.22-.19-.66-.56-.88-.74.81-1.75 1.99-3.35 3.62-4.4 7.18-4.73 15.95-5.96 24.37-6.29zm51.95 51.36c3.93-.74 7.24-3.19 10.25-5.69-1.82 2.94-5.09 4.47-8.21 5.64-7.36 2.17-15.18-.2-22.58 1.69-1.68-.72-3.48-1.2-5.31-1.24l-.55-.15c-.33-.48-1-1.43-1.34-1.9 1.91.67 3.92 1 5.95 1.13-.05-.23-.14-.68-.19-.91.38.11 1.14.32 1.53.43-.18.37-.52 1.13-.7 1.51 7.05.04 14.17.81 21.15-.51zm-27.41 9.77c1.36.24 2.71.46 4.06.74-3.46 4.13-1.39 11.29-6.83 13.89.4-1.27.78-2.54 1.14-3.81 1.14-3.5 1.37-7.19 1.63-10.82zm28.19 44.28c.85 4.88.48 10.03 2.63 14.61-.89 2.01-1.98 4.02-1.85 6.3-.92.58-1.81 1.19-2.68 1.83-1.21-4.99-1.74-10.09-2.51-15.15 2.93-1.41 3.81-4.66 4.41-7.59z"/><path fill="#fdd418" d="M112 12.2c10.62-1.34 21.33-.87 32-.94 11.85.54 24.41 2.81 33.71 10.73 2.88 2.85 4.84 6.43 6.58 10.05-.17 1.17-.36 2.34-.58 3.5-3.68 2.9-6.65 6.85-7.53 11.53 2.98-3.7 5.4-7.87 9-11.03l.34.74c1.97 5.37-.48 11.45 2.36 16.59-.71 1.15-1.38 2.31-2.08 3.47 3.42-3.93 8.21-6.45 13.47-6.59 2.96 4.71 3.39 10.76 1.13 15.84-1.92 1.44-4.04 2.58-5.96 4.01-3.59-1.06-6.75-3.4-10.44-4.05-3.58.52-6.15 3.31-8.66 5.64.07-.77.22-2.32.3-3.09-.26-1.99-.68-3.96-1.07-5.93-.56.36-1.12.72-1.68 1.07-3.08 1.76-6.14 4.12-9.87 4.07-6.65.04-13.49-.64-19.63-3.39 7.4-1.89 15.22.48 22.58-1.69 3.12-1.17 6.39-2.7 8.21-5.64.47-1.26.71-2.6 1.06-3.9-7.78-1.47-15.77-2.33-23.65-1.28-.65.08-1.93.22-2.58.3-6.67 1.01-13.27 3-20.1 2.45-.59-1.61-1.18-3.21-1.81-4.79 3.66-1.18 7.7-3.62 7.97-7.89.43-6.32.31-12.71.08-19.04-.02-4.71-4.55-8.32-9.08-8.2-7-.07-14.02-.18-21.02.06-4.76 0-8.67 4.49-8.43 9.16-.05 5.69-.14 11.38.05 17.06-.12 3.42 2.4 5.95 4.78 8.02-.86 1.91-1.68 3.83-2.48 5.77-4.28-.91-8.53-2-12.9-2.41-6.27-.64-12.63.08-18.86-1.05-.43-.59-1.29-1.78-1.71-2.37 1.35-4.85 4.37-9.14 8.69-11.79 1.35-.58 2.72-1.11 4.11-1.57 2.13.37 4.29.72 6.46.54.16-.75.49-2.25.65-3 .07-.2.22-.61.29-.81-3.33.81-6.66 1.6-9.96 2.51.8-2.11 1.09-4.64 2.95-6.17 2.41-2.09 5.55-2.96 8.43-4.17-.35-.26-1.06-.77-1.41-1.03l-.84-.64c1.18-1.81 2.28-3.8 4.19-4.94 6.78-4.37 15.06-5.36 22.94-5.71m37.99 12.65c4.01-.73 7.8-2.61 11.95-2.62 3.24-.18 6.28 1.14 9.43 1.68-1.55-1.21-3.31-2.27-5.3-2.49-5.53-.73-11.49.07-16.08 3.43m-5.07 8.98c5.39-.99 10.5-3.6 16.1-3.36 4.82-.2 8.93 2.61 13.13 4.53-7.66-8.05-20.33-5.75-29.23-1.17m44.44 29.96c1.92-.89 2.03-3.57 3.76-4.71 1.31-.92 2.74-1.65 4.06-2.56-4.04-.69-8.76 3.13-7.82 7.27z"/><path fill="#fdd418" d="M102.84 49.42c7.49.42 14.99-.16 22.47.33.76 5.8 6.95 7.98 10.88 11.38.34.47 1.01 1.42 1.34 1.9-.82 1.64-2.5 1.64-4.12 1.52-.33-.1-.99-.29-1.32-.39 2.36 6.47 2.99 13.42 1.47 20.17-2.77 3.22-5.91 6.18-9.97 7.65-9.36 2.02-19.83.52-27.61-5.27-.64-4.04-2.39-8.12-1.34-12.24 1.29-5.52 4.19-10.45 6.5-15.57 1.28-2.91 3.1-6.07 1.73-9.32z"/><path fill="#f37171" d="M96.62 23.96c-.24-4.67 3.67-9.16 8.43-9.16 7-.24 14.02-.13 21.02-.06 4.53-.12 9.06 3.49 9.08 8.2.23 6.33.35 12.72-.08 19.04-.27 4.27-4.31 6.71-7.97 7.89l-1.79-.12c-7.48-.49-14.98.09-22.47-.33-.34-.1-1.04-.29-1.39-.38-2.38-2.07-4.9-4.6-4.78-8.02-.19-5.68-.1-11.37-.05-17.06m11.44 16.84c2.84.49 3.77-2.15 4.8-4.21 2.11 0 4.23.01 6.34.03.91 2.1 1.91 4.61 4.71 4.22-2-5.56-3.93-11.23-6.73-16.43h-2.39c-2.79 5.19-4.69 10.86-6.73 16.39z"/><path fill="#f37171" d="M113.29 34.54c1.07-1.93 1.09-5.22 3-6.26.93 2.03 1.64 4.15 2.4 6.24-1.8.01-3.6.01-5.4.02z"/><g fill="#3e1804"><path d="M149.99 24.85c4.59-3.36 10.55-4.16 16.08-3.43 1.99.22 3.75 1.28 5.3 2.49-3.15-.54-6.19-1.86-9.43-1.68-4.15.01-7.94 1.89-11.95 2.62zm-5.07 8.98c8.9-4.58 21.57-6.88 29.23 1.17-4.2-1.92-8.31-4.73-13.13-4.53-5.6-.24-10.71 2.37-16.1 3.36zm-69.18 1.03c3.3-.91 6.63-1.7 9.96-2.51-.07.2-.22.61-.29.81-2.37.82-4.75 1.6-7.11 2.46-1.39.46-2.76.99-4.11 1.57l.16-1.41c.35-.23 1.04-.69 1.39-.92zm49.57 14.89l1.79.12c.63 1.58 1.22 3.18 1.81 4.79 6.83.55 13.43-1.44 20.1-2.45-.32.54-.97 1.62-1.29 2.16-.42-.12-1.26-.36-1.67-.48-4.78.83-9.55 1.69-14.29 2.69 2.97 2.38 6.45 4.03 10.19 4.77.05.23.14.68.19.91-2.03-.13-4.04-.46-5.95-1.13-3.93-3.4-10.12-5.58-10.88-11.38zm64.05 14.04c-.94-4.14 3.78-7.96 7.82-7.27-1.32.91-2.75 1.64-4.06 2.56-1.73 1.14-1.84 3.82-3.76 4.71zM69.07 60.96c4.17 1.74 8.19 4.32 12.84 4.48 4.85.29 9.35-1.88 13.79-3.51-.22.52-.67 1.55-.89 2.06-3.72.3-7.24 1.67-10.92 2.17-5.17.37-10.1-1.73-14.54-4.15-.07-.27-.21-.79-.28-1.05zm69.01 2.22c1.83.04 3.63.52 5.31 1.24 6.14 2.75 12.98 3.43 19.63 3.39 3.73.05 6.79-2.31 9.87-4.07-.88 1.69-2.16 3.21-3.99 3.9-6.04 2.67-12.78 1.24-19 .07-4.12-.93-8.45-1.83-11.82-4.53z"/><path d="M132.09 64.16c.33.1.99.29 1.32.39 1.13 1.93 2.14 3.94 3.17 5.94 3.69 1.09 7.59 1.88 10.83 4.06 2.7 1.64 5.26 4.05 8.61 4.05 4.94-.1 9.69-1.83 14.2-3.71 1.86-.8 3.6-1.86 5.12-3.2 2.51-2.33 5.08-5.12 8.66-5.64 3.69.65 6.85 2.99 10.44 4.05l-1.06.74c-2.3-.4-4.6-.97-6.7-2.03l-.18-.09c-1.37-.66-2.89-1.72-4.35-.59-2.67 1.56-4.77 3.91-7.35 5.62-5.78 4-12.75 6.2-19.77 6.35-.54-.01-1.62-.02-2.16-.03-3.99-2.44-7.85-5.2-12.29-6.78-1.35-.28-2.7-.5-4.06-.74-.26 3.63-.49 7.32-1.63 10.82l-1.33.96c1.52-6.75.89-13.7-1.47-20.17zm67.57 108.61c5.25-2.55 11.77-.41 14.33 4.87 1.87-1.57 3.56-3.64 6.02-4.27 2.48-.39 5.24-.13 7.35 1.33 4.48 4.43 4.79 11.64 9.67 15.78 4 .34 7.95-.75 11.88-1.36 8.42-1.62 16.91-2.85 25.32-4.52.5.33 1.5.97 2 1.3-4.88 1.2-9.96 1.46-14.81 2.76-3.96 3.25-6.68 7.78-10.58 11.13-4.48 4.87-10.21 8.4-16.33 10.82-.49-.23-1.47-.7-1.96-.93 2.74-1.26 5.48-2.52 8.13-3.96 5.98-3.41 10.7-8.55 15.14-13.72.88-1.02 1.76-2.04 2.64-3.07-6.67.93-13.28 2.17-19.91 3.32.32.52.97 1.54 1.29 2.05-.18.41-.53 1.23-.7 1.65-4.67-4.32-7.76-9.91-10.06-15.76-1.41-3.17-4.32-6.1-8.04-5.9-3.76.55-6.12 4.32-6.69 7.82-.65 5.38.4 11.1 3.55 15.59 1.14 1.83 1.97 3.82 2.61 5.88-3.45-1.73-4.65-5.67-6.05-8.97-2.44-6-.51-12.97-3.82-18.68-2.36-2.49-6.08-4.12-9.41-2.61-4.84 2.59-6.81 8.46-6.65 13.67.18 4.49.07 9.3 2.37 13.31l.36.31-2.36-.04c-.81-3.83-1.29-7.7-1.67-11.59.01-5.99-8.97-8.83-12.67-4.34-.83 1.03-1.44 2.21-2.09 3.36-1.27.95-2.61 1.8-3.9 2.72l-.06.49c-.07 2.3-.01 4.6.07 6.9l.06 1.34c-.42-.09-1.25-.28-1.67-.37-.21-3.05-.1-6.1.09-9.15l3.07-.48c.42-4.57 4.58-7.48 8.84-8.08 2.86-.38 5.39 1.28 7.89 2.39 1.39-4.04 2.65-8.86 6.75-10.99z"/></g><path fill="#c7b162" d="M74.35 35.78c-.2-6.45 5.42-11.22 11.36-12.29.35.26 1.06.77 1.41 1.03-2.88 1.21-6.02 2.08-8.43 4.17-1.86 1.53-2.15 4.06-2.95 6.17-.35.23-1.04.69-1.39.92z" opacity=".93"/><path fill="#711919" d="M108.06 40.8c2.04-5.53 3.94-11.2 6.73-16.39h2.39c2.8 5.2 4.73 10.87 6.73 16.43-2.8.39-3.8-2.12-4.71-4.22-2.11-.02-4.23-.03-6.34-.03-1.03 2.06-1.96 4.7-4.8 4.21m5.23-6.26c1.8-.01 3.6-.01 5.4-.02-.76-2.09-1.47-4.21-2.4-6.24-1.91 1.04-1.93 4.33-3 6.26z"/><g fill="#181b15"><path d="M184.29 32.04l.23.53c.39 1.39.69 2.8 1 4.21l-.34-.74c-3.6 3.16-6.02 7.33-9 11.03.88-4.68 3.85-8.63 7.53-11.53.22-1.16.41-2.33.58-3.5zM67.53 67.97c.4-.24 1.2-.71 1.6-.94l-.56 1.55-.41.5c-1.82 9.45.59 19.31-.93 28.87-1.59 8.74-3.19 17.48-5.25 26.13-1.69 11.92-1.7 24.13.62 35.98.23-9.68.04-19.37.13-29.06.1-1.54-.14-3.19.55-4.63 3.3-.63 6.67-.29 9.97.12 0 3.99.02 7.99-.05 11.98 2.72-1.3 5.65-2.11 8.67-2.25.8-4.83-.08-9.85 1.48-14.56.39 4.98-.24 9.97.01 14.96 1.71.7 3.4 1.46 5.06 2.27.4-.1 1.2-.31 1.59-.42 2.23 8.35 1.53 16.98 1.63 25.51.14 2.78-1.11 5.3-1.9 7.89-.14-.79-.41-2.37-.55-3.16-.92-.02-2.75-.07-3.66-.09-1.36-.05-2.71-.1-4.07-.16-.57-6.8.19-13.65-.45-20.45.07-4.27-6.64-3.5-7.25.07-1.08 5.9-.44 11.98.07 17.93.83 2.73 1.49 5.53 1.83 8.37 2.45 2.08 5.42 3.34 8.34 4.61 3.48 1.51 6.33 4.19 9.94 5.4 4.49-.27 8.76-1.88 13.2-2.52.81-.27 3.32-.46 3.46.81-1.12.66-2.48.74-3.73 1.04-4.1.28-8.1 1.29-12.06 2.34 3.1 3.98 4.87 8.73 5.72 13.68 7.61-.87 15.12-2.59 22.78-2.88 1.63 1.97 3.17 4.07 5.41 5.43 2.66 1.49 3.24 4.66 4.12 7.31 1.8-.45 3.61-.89 5.41-1.34.09-2.46-.06-4.97.54-7.38 3.43-.62 7.1-.68 10.31.87 2.88-1.02 5.89-2.25 9.02-1.66 3.06.22 5.25 2.61 7.98 3.68 2.21-.07 4.37-.58 6.55-.96.32-.51.96-1.55 1.28-2.07 1.48-.16 2.96-.34 4.44-.54-1.23-.21-2.46-.5-3.68-.75l-.06-1.34c2.43 0 4.86 0 7.29-.01-.01-2.32 0-4.63-.01-6.95-2.45.01-4.9.03-7.35.06l.06-.49c1.29-.92 2.63-1.77 3.9-2.72l-.51 1.52c1.78.11 3.56.23 5.34.34.18 3.16.19 6.33.02 9.49l-3.68.48c1.19.49 2.39 1 3.54 1.61.55 2.21-.09 4.96 1.79 6.65 1.1 1.19 2.39 2.17 3.62 3.24.16-3.26-.1-6.53.26-9.77 1.43-1.69 4.1-.7 6.05-.99l2.36.04c.44.36 1.34 1.08 1.79 1.44 4.56-2.35 10.42-3.06 14.76.17 3.72 2.56 3.79 7.51 3.92 11.57 5.07-.82 9.89-2.57 14.77-4.11.49.23 1.47.7 1.96.93-5.33 2.35-11.02 3.64-16.73 4.7 0 1.81 0 3.61.01 5.42 8.82 2 17.99 2.89 26.97 1.38-.26.72-.49 1.45-.72 2.18-4-.44-8.01-.11-12.01-.06-4.83.08-9.56-.98-14.28-1.82-.02 3.16-.04 6.33-.07 9.5-3.47.35-6.97.34-10.44.02-.03-4.57-.04-9.13-.28-13.69-2.54-.87-5.1-1.68-7.69-2.37-.03 5.4.06 10.8-.14 16.21-3.43.11-6.87.12-10.3.01-.27-5.72.01-11.44-.12-17.15.41-3.05-3.13-3.79-5.03-5.25-.19 7.39-.04 14.78-.1 22.17-3.49.4-6.99.41-10.48.09-.42-9.11-.11-18.22-.18-27.34-1.4.17-2.8.34-4.19.52l-2.28.28c1.71 8.77.65 17.78.78 26.66-3.43.12-6.87.11-10.3-.04-.3-5.69-.13-11.38-.13-17.07-.13-1.87.11-3.99-1.1-5.57-2.41-1.47-5.93-.07-6.35 2.79-.95 6.56-.26 13.21-.59 19.8-3.46.27-6.94.24-10.39-.09-.1-7.35.03-14.71-.09-22.06-1.76.62-5.39-.63-5.5 2.1-.41 6.65.03 13.32-.17 19.99-3.45.32-6.92.33-10.38 0-.34-6.96.43-13.97-.46-20.89-.17-2.24-2.93-2.65-4.62-1.89-2 .67-2.72 2.93-2.78 4.85-.37 6.01.05 12.04-.28 18.06-3.41.13-6.82.14-10.23.02-.32-10.34-.15-20.7-.1-31.05-.66.05-1.99.16-2.65.21-.69 3.65-2.06 7.14-2.66 10.81-.45 6.67-.4 13.46 1.57 19.91-3.8.27-7.76.72-11.35-.87-4.33 1.93-9.12 2.24-13.63.75.07 4.05.11 8.11.13 12.17h-2.02c.02-3.32.12-6.64.05-9.96.22-4.6-3.4-8.25-3.27-12.9-.55.07-1.64.2-2.19.26-1.89 4.73-5.08 9.81-10.64 10.42-8.47.76-17 .23-25.49.31-.41-4.97-.25-9.95-.36-14.93-2.5-.77-5-1.54-7.46-2.47l.28-1.8c1.95.8 3.95 1.43 5.94 2.1-1.99-3.86-3.67-7.93-4.21-12.27.38-10.05 5.01-20.81 14.13-25.84 1.5-.77 3.43-2.51 4.74-.43-5.86 2.41-11.06 6.68-13.67 12.55-3.65 7.41-5.47 17.3.23 24.19.03-.87.1-2.6.13-3.47.11-5.16.1-10.32-.11-15.48.13-1.17.25-2.33.44-3.49l.76-1.12c5.84.02 11.68.02 17.52.06 3.9.08 8.2.24 11.33 2.88 2.52 1.89 3.42 5.01 4.45 7.83 1.01 1.5 1.8 3.14 2.06 4.96-.67-.98-1.31-1.96-1.92-2.97a78.414 78.414 0 0 1-3.84 7.03c3.36 2.49 5.2 6.27 5.57 10.39.78-.15 2.32-.47 3.09-.63 2.81-5.58 9.3-6.26 14.69-7.66.09-.71.26-2.12.35-2.83-2.77-.32-4.68 1.18-5.86 3.56-3.02-.45-6.03-1-9.01-1.67.65-2.63 1.45-5.38 3.53-7.26 2.71-2.9 6.92-3.12 10.6-3.6-.83-2.83-2.1-5.5-3.49-8.1 2.14 2.17 3.81 4.8 4.27 7.87 2.8.65 5.75.98 8.31 2.38 2 1.3 3.17 3.48 4.63 5.32 1.89-6.28-.27-12.89-3.76-18.18-2.63-3.66-6.6-6.02-10.51-8.1-10.42-5.42-22.54-8.74-34.32-6.99 3.03-4.11 8.61-.63 12.79-2.07-4.89-1.82-10.11-2.82-14.61-5.59-.24.57-.73 1.71-.97 2.28-3.27-.24-7.22.91-10.06-.71-.8-10.66-.09-21.41-.34-32.1-3.65-.17-7.46.49-11-.5-.68-1.55-.96-3.24-1.49-4.85.71-1.63 1.38-3.29 2.12-4.91 8.02 1.06 16.15.34 24.21.36 1.16-12.12 3.53-24.09 6.55-35.88.71-1.79 1.62-3.49 2.56-5.17-.36 5.03-2.36 9.71-3.33 14.62-1.84 8.7-2.92 17.54-3.99 26.37 2.51.18 5.02.39 7.52.69 2.74-15.37 8.05-30.62 6.16-46.44l-1.02-.2c.73-.57 1.46-1.13 2.2-1.69.08-3.4-.15-6.81.09-10.2m-40.64 59.67c-.01 2.18-.01 4.36 0 6.55 3.9.01 7.79-.01 11.68.05.01 10.95-.02 21.89.02 32.84 2.6.03 5.21.03 7.82 0 .04-10.95 0-21.9.02-32.85 3.88-.05 7.76-.03 11.64-.03.04-2.18.06-4.36.07-6.54-10.42-.08-20.83-.04-31.25-.02m37.39-.01c0 13.15-.04 26.31.03 39.46 2.45.01 4.9.01 7.36 0 .34-6.35-.58-12.83.54-19.11.69-4.62 8.41-6.26 10.12-1.59.81 6.86.16 13.81.39 20.7 2.48.03 4.97.01 7.46-.13-.19-7.18.36-14.39-.31-21.55-.29-4.08-3.84-7.11-7.79-7.41-3.95-.77-7.53 1.38-10.38 3.86-.01-4.74.01-9.49-.01-14.23-2.47-.01-4.94-.01-7.41 0m-16.14 11.01c1.26-.31 1.48-1.1.64-2.35-1.28.3-1.49 1.09-.64 2.35m2.76-2.74c-.96 5.72-3.05 11.3-2.83 17.17.08 3.63-.15 7.26.14 10.88 4 3.65 9.59 4.73 14.69 6-.69-4.65-1.72-9.25-2.5-13.88-1.24-6.73-.86-13.61-.92-20.41-2.86.07-5.72.14-8.58.24m13.58 32.81c1.03 2.3 2.67 4.22 4.53 5.89 1.92.11 3.84.25 5.77.4-.15-2.28-.37-4.57-.99-6.77-3.09.34-6.2.38-9.31.48M32.95 191.2c-.02 13.16-.24 26.34.11 39.5 6.26-.04 12.51.02 18.77-.03 2.77-.1 5.69-.14 8.21-1.46 5.23-2.74 7.44-10.15 4.29-15.21-1.24-2.09-3.46-3.24-5.59-4.23 2.49-1.87 4.95-4.4 5.04-7.71.75-5.25-3.77-10.12-8.9-10.53-7.29-.63-14.63-.28-21.93-.33m88.36 7.07c-.53 1.56.04 2.1 1.73 1.62.53-1.57-.04-2.11-1.73-1.62m-14.33 2.35c1.69.02 3.39 0 5.08-.02.54.35 1.6 1.04 2.13 1.38 2.07-.8 4.13-1.66 6.07-2.74-4.48-.55-8.91.53-13.28 1.38m-34.54 8.84c2.22.43 4.44.83 6.66 1.25 1.59-5.18 11.52-4.86 10.54 1.46-5.42 2.06-12.48 1.23-16.43 6.12-3.9 5.13.49 13.14 6.84 12.98 3.75.77 6.87-1.81 10.01-2.98.95 3.83 5.38 2.01 8.22 2.39-3.34-7.86-.03-16.65-2.34-24.66-2.86-5.13-9.8-4.82-14.85-4.24-4.28.35-7.34 3.81-8.65 7.68m32.83-7.32c.04 9.51 0 19.03.02 28.54 2.44.01 4.89.01 7.33 0 .11-5.92-.24-11.85.26-17.75.18-3.49 3.64-6.46 7.14-5.61 2.17.26 3.54 2.46 3.52 4.53.34 6.26.06 12.54.15 18.81 2.49.03 4.98.03 7.47-.03-.18-7.25.39-14.53-.31-21.75-.22-4.88-5.36-7.78-9.84-7.39-3.52-.03-6.33 2.26-8.8 4.49-.02-1.28-.03-2.55-.05-3.83-2.3-.02-4.59-.03-6.89-.01m34.59.03c-.08 9.48-.01 18.96-.04 28.44 2.5.07 5 .08 7.5.06.1-5.92-.22-11.86.24-17.76.12-3.27 3.14-6.09 6.45-5.7 2.5.09 4.26 2.46 4.24 4.85.26 6.2.02 12.41.1 18.62 2.46 0 4.91.01 7.37.01-.09-7.24.22-14.49-.15-21.72-.3-4.38-4.45-7.43-8.64-7.46-3.98-.48-7.33 1.95-10.17 4.39-.03-1.27-.05-2.55-.08-3.82-2.27.03-4.55.05-6.82.09m34.72-.06c-.01 9.53-.12 19.07.06 28.61 2.4-.03 4.81-.04 7.22-.02.05-9.53.04-19.05.02-28.57-2.43-.01-4.87-.01-7.3-.02m15.69.03c.03 9.51 0 19.03.01 28.54 2.47.01 4.94.01 7.4 0 .07-5.55-.11-11.11.11-16.66.08-2.39 1.05-4.96 3.29-6.1 2.71-1.74 7.1-.38 7.4 3.11.61 6.52.13 13.09.28 19.63 2.47.03 4.93.03 7.4-.01-.14-7.22.33-14.47-.24-21.67-.22-4.9-5.32-7.88-9.85-7.49-3.54-.05-6.35 2.26-8.82 4.5-.01-.96-.02-2.87-.02-3.82-2.32-.04-4.64-.05-6.96-.03m-103.29 7.3c-1.5 3.02 3.32.12 0 0m112.22 4.88c2.72.43 5.41 1.03 8.15 1.33-.26-2.52.34-6.8-3.29-6.97-3.18-.16-4.66 2.94-4.86 5.64z"/><path d="M107.56 103.24c5.21.19 10.19 2.24 15.44 1.92 7.07.06 14.02-3.19 21.08-1.31 3.06.97 6.93.95 9.06 3.7-5.45-.63-10.49-3.89-16.11-3.03-5.32.82-10.66 1.71-16.07 1.44-4.5-.27-9.47-.19-13.4-2.72zm38.89 23.12c3.61-.34 7.25-.34 10.87-.15.18 5.08.49 10.38-1.28 15.23-2.34 3.87-.95 8.52-1.75 12.75-.96-3.55-.81-7.26-.89-10.9-1.72-.18-3.48-.18-5.15-.66-.7-1.88-1.09-3.86-1.46-5.83-.52-3.45-.44-6.96-.34-10.44m1.36 1.29c-.29 4.75.41 9.46 1.62 14.04 1.75-.14 3.59.13 5.3-.35 1.19-4.48 1.24-9.13 1.13-13.73-2.69 0-5.37.01-8.05.04z"/></g><path fill="#f4c63d" d="M78.3 35.62c2.36-.86 4.74-1.64 7.11-2.46-.16.75-.49 2.25-.65 3-2.17.18-4.33-.17-6.46-.54zM92.52 76c1.35-9.51 7.43-17.4 10.35-26.42 1.37 3.25-.45 6.41-1.73 9.32-2.31 5.12-5.21 10.05-6.5 15.57-1.05 4.12.7 8.2 1.34 12.24-2.75-2.83-4.17-6.78-3.46-10.71zM69.35 62.01c4.44 2.42 9.37 4.52 14.54 4.15 3.68-.5 7.2-1.87 10.92-2.17-1.11.9-2.35 1.61-3.64 2.19-3.99 1.28-8 2.89-12.25 2.88-3.33-.31-6.19-2.29-8.94-4.02-.16-.76-.47-2.28-.63-3.03z"/><path fill="#080300" d="M101.45 49.04c.35.09 1.05.28 1.39.38l.03.16c-2.92 9.02-9 16.91-10.35 26.42-.71 3.93.71 7.88 3.46 10.71 7.78 5.79 18.25 7.29 27.61 5.27l1.85.72c-7.79 2.69-16.31 1.56-23.94-1.1-4.11-1.44-7.42-4.53-10.04-7.92-.09-3.18-.14-6.36-.23-9.55-1.06.4-2.11.81-3.17 1.21-.48.18-1.45.54-1.94.73l-3.27-.08c-2.85-.53-5.75-1.09-8.34-2.46.44-.01 1.3-.04 1.73-.06 4.49 1.34 9.58 2.18 13.87-.26 2.66-1.16 2.72-4.41 3.52-6.78-.51.19-1.54.57-2.06.77l-.4-1.02c1.29-.58 2.53-1.29 3.64-2.19.22-.51.67-1.54.89-2.06l.89-2.02c-5.49.8-11.1 2.1-16.66 1.11-4.17-.69-7.82-2.92-11.52-4.81.09.88.26 2.64.35 3.52-.52-2.48-.54-5.03-.96-7.53-.15-.21-.44-.63-.59-.85 6.23 1.13 12.59.41 18.86 1.05 4.37.41 8.62 1.5 12.9 2.41.8-1.94 1.62-3.86 2.48-5.77m-32.27 6.3c4.55 2.66 9.41 5.36 14.86 5.19 5.12-.16 11.1-.19 14.81-4.3-2.97-.88-5.93-1.82-8.96-2.53-3.29-1.11-6.68 2.03-9.84.1-3.48-1.75-7.44-1.16-11.18-1.26.09.94.19 1.87.31 2.8zM40.74 213.48c4.42.08 8.91-.31 13.27.52 4.47.86 5.01 8.21.59 9.53-4.55 1-9.3.68-13.91.33.08-3.46.07-6.93.05-10.38m1.5 1.67c.25 3.31 2.98-1.62 0 0m1.32 2.84l.44.75-2.01-.8c-.03 1.62-.04 3.24-.05 4.86 1.33.05 2.66.1 4 .16-.49-1.17-.95-2.35-1.5-3.49 3.17 1.85 7.51 4.74 10.99 1.96 1.87-1.95.58-4.72-1.23-6.16-3.72.25-7.74-.04-10.64 2.72z"/><path fill="#687b7f" d="M187.88 53.37c3.3-2.05 7.11-4.12 11.14-3.3 1.94.78 2.5 3.05 2.95 4.88.74 3.74.9 7.99-1.57 11.14 2.26-5.08 1.83-11.13-1.13-15.84-5.26.14-10.05 2.66-13.47 6.59.7-1.16 1.37-2.32 2.08-3.47zm-1.2 15.44c2.1 1.06 4.4 1.63 6.7 2.03 6.77 2.79 12.89 6.9 19.17 10.62 2.87 1.64 5.24 3.96 7.56 6.28l-.46.07c-3.12-.05-5.99 1.67-7.35 4.49-2.27 4.54-3.48 9.62-3.66 14.69-.08 10.46-.52 21.19 2.92 31.24-1.4 1.99-2.61 4.18-4.43 5.83-3.58 1.36-7.48 1.6-11.23 2.21-.41-5.08-.38-10.23-1.55-15.21-.97 4.01-.22 8.14-.26 12.21-.31-3.82-.75-7.64-.97-11.47.24-.51.72-1.53.97-2.04-.52-6.25-2.48-12.25-3.63-18.39-2.2-9.94-2.88-20.16-2.73-30.31-.11-4.1-.94-8.15-1.05-12.25z"/><path fill="#6f5824" d="M151.59 51.91c7.88-1.05 15.87-.19 23.65 1.28-.35 1.3-.59 2.64-1.06 3.9-3.01 2.5-6.32 4.95-10.25 5.69-6.98 1.32-14.1.55-21.15.51.18-.38.52-1.14.7-1.51 7.11.26 14.56 1.7 21.39-1.05 3.36-1.18 6.27-3.37 8.4-6.22-6.39-1.73-13.03-1.69-19.59-1.56-.52-.26-1.57-.78-2.09-1.04zM69.98 65.04c2.75 1.73 5.61 3.71 8.94 4.02 4.25.01 8.26-1.6 12.25-2.88l.4 1.02c-3.1 1.11-6.2 2.47-9.52 2.75-3.16.08-6.3-.44-9.44-.62 1.15 1.43 2.3 2.87 3.63 4.14-.43.02-1.29.05-1.73.06-2.22-1.33-3.94-3.33-5.94-4.95l.56-1.55c.25-.24.73-.71.97-.95zm95.11 7.87c3.94-.03 7.23-2.48 10.55-4.31-.08.77-.23 2.32-.3 3.09-1.52 1.34-3.26 2.4-5.12 3.2l1.09-1.52c-3.39.56-6.8 1.3-10.26 1.02-4.93-.46-10.47-.53-14.26-4.22 6.11.86 12.06 3.09 18.3 2.74zm-41.5 19.07c4.06-1.47 7.2-4.43 9.97-7.65l1.33-.96c-.36 1.27-.74 2.54-1.14 3.81-2.06 2.71-5.1 4.48-8.31 5.52l-1.85-.72z"/><path fill="#080707" d="M149.01 52.21c.65-.08 1.93-.22 2.58-.3.52.26 1.57.78 2.09 1.04-.72.83-1.48 1.62-2.26 2.38-1.28-.14-2.49-.6-3.7-.96.32-.54.97-1.62 1.29-2.16zm-44.18 104.75c2.47-2.71 6.59-2.46 9.86-3.55.22 3.24-.04 7.51-3.8 8.61-3.17 1.8-7.93-1.49-6.06-5.06m1.22 2.03c.11 2.34 3.08 2.19 4.69 1.59 2.16-.79 2.58-3.31 2.75-5.31-2.38.99-7.43.17-7.44 3.72zm110.9-3.07c2.77-1.35 5.88-1.72 8.83-2.52-.18 2.35.53 5.22-1.36 7.06-1.9 2-5.52 2.87-7.67.79-1.59-1.41-1.6-4.09.2-5.33m.37 1.52c-.77 1.82.62 3.95 2.7 3.5 3.11.23 4.66-2.94 4.58-5.64-2.45.57-5.13.7-7.28 2.14zm5.08 32.73c3.23-.73 7.16-.92 10.29.1 1.12 5.4-.02 10.99-1.24 16.28-2.57.05-5.14.03-7.7-.12-1.26-5.3-2.21-10.82-1.35-16.26m1.06 1c-.3 4.72.35 9.41 1.4 14 1.83.01 3.66.02 5.5.04 1.08-4.61 1.47-9.32 1.25-14.05-2.72-.01-5.43-.01-8.15.01zm-182.71 6.56c4.13.12 8.33-.39 12.41.39 3.89.77 4.17 7.03.34 8.2-4.14 1.11-8.52.45-12.75.57-.01-3.05-.01-6.11 0-9.16m1.44 1.43c.01 2.13.02 4.25.05 6.38 3.57-.21 7.31.47 10.77-.58 2.57-.65 2.37-5.18-.31-5.51-3.48-.53-7.01-.24-10.51-.29zm37.75 20.98c2.67-2.1 6.33-2.15 9.49-3.11.55 3.54-.34 8.11-4.49 8.86-3.29 1.48-7.33-2.71-5-5.75m.83 2.84c2.54 4.1 8.3 0 7.48-4.03-2.5.85-7.97.27-7.48 4.03z"/><path fill="#d1ebe8" d="M69.18 55.34c-.12-.93-.22-1.86-.31-2.8 3.74.1 7.7-.49 11.18 1.26 3.16 1.93 6.55-1.21 9.84-.1 3.03.71 5.99 1.65 8.96 2.53-3.71 4.11-9.69 4.14-14.81 4.3-5.45.17-10.31-2.53-14.86-5.19z"/><path fill="#cfe7e7" d="M153.68 52.95c6.56-.13 13.2-.17 19.59 1.56-2.13 2.85-5.04 5.04-8.4 6.22-6.83 2.75-14.28 1.31-21.39 1.05-.39-.11-1.15-.32-1.53-.43-3.74-.74-7.22-2.39-10.19-4.77 4.74-1 9.51-1.86 14.29-2.69.41.12 1.25.36 1.67.48 1.21.36 2.42.82 3.7.96.78-.76 1.54-1.55 2.26-2.38z"/><path fill="#f3cd2a" d="M68.41 56.21c3.7 1.89 7.35 4.12 11.52 4.81 5.56.99 11.17-.31 16.66-1.11l-.89 2.02c-4.44 1.63-8.94 3.8-13.79 3.51-4.65-.16-8.67-2.74-12.84-4.48-.08-.31-.23-.92-.31-1.23-.09-.88-.26-2.64-.35-3.52z"/><path fill="#eec827" d="M137.53 63.03l.55.15c3.37 2.7 7.7 3.6 11.82 4.53 6.22 1.17 12.96 2.6 19-.07 1.83-.69 3.11-2.21 3.99-3.9.56-.35 1.12-.71 1.68-1.07.39 1.97.81 3.94 1.07 5.93-3.32 1.83-6.61 4.28-10.55 4.31-6.24.35-12.19-1.88-18.3-2.74 3.79 3.69 9.33 3.76 14.26 4.22 3.46.28 6.87-.46 10.26-1.02l-1.09 1.52c-4.51 1.88-9.26 3.61-14.2 3.71-3.35 0-5.91-2.41-8.61-4.05-3.24-2.18-7.14-2.97-10.83-4.06-1.03-2-2.04-4.01-3.17-5.94 1.62.12 3.3.12 4.12-1.52z"/><path fill="#f3c929" d="M91.57 67.2c.52-.2 1.55-.58 2.06-.77-.8 2.37-.86 5.62-3.52 6.78-4.29 2.44-9.38 1.6-13.87.26-1.33-1.27-2.48-2.71-3.63-4.14 3.14.18 6.28.7 9.44.62 3.32-.28 6.42-1.64 9.52-2.75z"/><path fill="#cee8db" d="M182.15 68.13c1.46-1.13 2.98-.07 4.35.59.31 8.97-.42 17.94.16 26.9 1.07 12.23 4.25 24.13 6.46 36.18.22 3.83.66 7.65.97 11.47.05 1.2.09 2.41.12 3.61-5.2 1.13-10.66 4.01-15.89 1.44 3.03-.66 6.2-.92 9.07-2.19-.55-4.36-3.98-8.15-8.27-9.09-4.49-.98-9.29-.89-13.63.7-.13-2.28.96-4.29 1.85-6.3.59-4.81-.44-9.59-1.05-14.34-1.41-12.88-5-25.61-11.26-37 7.02-.15 13.99-2.35 19.77-6.35 2.58-1.71 4.68-4.06 7.35-5.62z"/><g fill="#cce6d9"><path d="M68.16 69.08l.41-.5c2 1.62 3.72 3.62 5.94 4.95 2.59 1.37 5.49 1.93 8.34 2.46.57.14 1.71.42 2.27.56-2.54 5.26-5.38 10.52-6.11 16.41-1.44 9.81-2.08 19.78-1.57 29.68 1.11-1.67 1.1-3.71 1.14-5.63.03-7.96.74-15.91 1.84-23.79.81-6.03 3.35-11.61 5.7-17.15.49-.19 1.46-.55 1.94-.73.84 2.89 1.51 5.92 3.4 8.34 2.62 3.39 5.93 6.48 10.04 7.92 7.63 2.66 16.15 3.79 23.94 1.1 3.21-1.04 6.25-2.81 8.31-5.52 5.44-2.6 3.37-9.76 6.83-13.89 4.44 1.58 8.3 4.34 12.29 6.78 4.25 4.8 6.41 10.91 8.28 16.93 2.55 6.32 2.31 13.23 3.56 19.83-.6 2.93-1.48 6.18-4.41 7.59l-1.23-.08c-.46-.02-1.39-.08-1.85-.11.03.49.08 1.48.1 1.98-3.62-.19-7.26-.19-10.87.15-.1 3.48-.18 6.99.34 10.44-.45.17-1.35.5-1.8.66-1.74-.2-3.48-.48-5.22-.72 0-3.17.17-6.36-.22-9.51-3.24-.34-5.87 2.31-8.57 3.77-2.22.95-1.54 3.59-1.83 5.49-1.1.41-2.17.86-3.22 1.38-.31 2.47-.14 4.97-.15 7.45l3.53.96c-.03 5.16-.02 10.32.11 15.47-1.92.45-3.84.9-5.76 1.34-.55-6.31.25-12.66-.44-18.95-.48-4-4.21-6.77-8-7.33-4.39-.64-9.14-.76-13.25 1.16-2.88 1.37-4.5 4.31-5.58 7.17-3.55-2.29-2.63-7.2-5.61-9.86-2.53-2.35-4.2-5.37-5.59-8.49-.36 3.29.31 7.01-1.83 9.83-.25-4.99.38-9.98-.01-14.96-1.56 4.71-.68 9.73-1.48 14.56-3.02.14-5.95.95-8.67 2.25.07-3.99.05-7.99.05-11.98-3.3-.41-6.67-.75-9.97-.12-.69 1.44-.45 3.09-.55 4.63-.09 9.69.1 19.38-.13 29.06-2.32-11.85-2.31-24.06-.62-35.98 2.06-8.65 3.66-17.39 5.25-26.13 1.52-9.56-.89-19.42.93-28.87m39.4 34.16c3.93 2.53 8.9 2.45 13.4 2.72 5.41.27 10.75-.62 16.07-1.44 5.62-.86 10.66 2.4 16.11 3.03-2.13-2.75-6-2.73-9.06-3.7-7.06-1.88-14.01 1.37-21.08 1.31-5.25.32-10.23-1.73-15.44-1.92m4.43 11.1c-1.25-2.71-1.44-5.59-.45-8.41-3.62 1.6-3.91 7.64.45 8.41zm57.66 30.79c3.12-.77 7.09-.75 8.33 2.83-2.81-.64-6.24-.52-8.33-2.83z"/><path d="M73.76 148.08c.61-3.57 7.32-4.34 7.25-.07.64 6.8-.12 13.65.45 20.45 1.36.06 2.71.11 4.07.16.73 3.12 3.44 4.21 6.28 4.76 3.16.69 4.96 6.08 8.53 3.95 2.29-2.31.58-6.15.97-9.05 4.15 1.64 8.78.95 12.58-1.24-2.39 4.29-1.36 9.22-.27 13.73l-2.92.45c2.64 1.41 5.53.46 8.21-.22-1.66 2.05-4.39 1.74-6.73 2.08-1.67.77-3.52.62-5.31.64 1.25-.3 2.61-.38 3.73-1.04-.14-1.27-2.65-1.08-3.46-.81-4.44.64-8.71 2.25-13.2 2.52-3.61-1.21-6.46-3.89-9.94-5.4-2.92-1.27-5.89-2.53-8.34-4.61-.34-2.84-1-5.64-1.83-8.37-.51-5.95-1.15-12.03-.07-17.93zm31.08 1.15c.67-3.84 7.38-6.4 8.29-1.69-2.74.67-5.51 1.25-8.29 1.69zm1.21 9.76c.01-3.55 5.06-2.73 7.44-3.72-.17 2-.59 4.52-2.75 5.31-1.61.6-4.58.75-4.69-1.59z"/></g><path fill="#1b1e12" d="M186.5 68.72l.18.09c.11 4.1.94 8.15 1.05 12.25-.15 10.15.53 20.37 2.73 30.31 1.15 6.14 3.11 12.14 3.63 18.39-.25.51-.73 1.53-.97 2.04-2.21-12.05-5.39-23.95-6.46-36.18-.58-8.96.15-17.93-.16-26.9z"/><path fill="#1b1e12" d="M212.3 92.3c1.36-2.82 4.23-4.54 7.35-4.49-2.52 1.67-5.43 3.28-6.63 6.23-2.3 5.33-2.22 11.29-2.43 16.99.1 8.9.09 17.97 2.61 26.59 1.22-.3 2.43-.62 3.66-.87 5.38-.9 11.21-.5 15.74 2.83 8.84-1.69 17.65-3.53 26.47-5.34-.28-.53-.85-1.6-1.13-2.13.87 1.23 1.82 2.41 2.76 3.6.88-.18 2.63-.53 3.5-.71-10.09 1.84-20.16 3.78-30.17 6.07 1.46 8.71-.61 17.68 2.07 26.2-.13.3-.37.88-.49 1.17-3.56.45-7.4.67-10.63-1.16-4.23 1.96-9.42 2.95-13.65.45-4.93-2.68-6.23-9.94-2.78-14.28 1.77-2.34 4.71-3.22 7.25-4.41-4.35-.7-8.52-3.45-13.01-2.36-5.66 1.21-11.24 2.72-16.89 3.95 1.14 3 2.96 6.11 2.16 9.43-.84 4.78-5.35 8.13-9.96 8.81-5.73.9-12.53.39-16.6-4.26-1.83-1.81-2.41-4.37-3.06-6.75 2.71-.74 6.09-.29 8.11-2.56-7.25 1.11-14.39 2.93-21.44 4.93.14 2.6.26 5.21.35 7.82-3.83.88-8.03 1.98-11.8.27-2.24-.91-3.27-3.26-4.54-5.14-1.57.46-3.13.93-4.7 1.4.2.92.6 2.78.8 3.7-2.73.26-5.47.44-8.21.6.09 4.12 1.26 8.08 1.9 12.12-2.68.68-5.57 1.63-8.21.22l2.92-.45c-1.09-4.51-2.12-9.44.27-13.73-3.8 2.19-8.43 2.88-12.58 1.24-.32-.15-.95-.44-1.27-.59-1.3-1.2-2.58-2.43-3.77-3.73-1.36-6.19-.36-12.58.12-18.82 1.08-2.86 2.7-5.8 5.58-7.17 4.11-1.92 8.86-1.8 13.25-1.16 3.79.56 7.52 3.33 8 7.33.69 6.29-.11 12.64.44 18.95 1.92-.44 3.84-.89 5.76-1.34-.13-5.15-.14-10.31-.11-15.47l-3.53-.96c.01-2.48-.16-4.98.15-7.45 1.05-.52 2.12-.97 3.22-1.38.29-1.9-.39-4.54 1.83-5.49 2.7-1.46 5.33-4.11 8.57-3.77.39 3.15.22 6.34.22 9.51 1.74.24 3.48.52 5.22.72-.16 2.75-.17 5.5-.26 8.26-1.65.1-3.3.19-4.95.28-.03 4.46-.04 8.92.02 13.38 7.73-1.56 15.5-3.18 23.08-5.26-3.05-3.6-4.17-8.56-1.78-12.83.55-.6 1.12-1.17 1.71-1.72.87-.64 1.76-1.25 2.68-1.83 4.34-1.59 9.14-1.68 13.63-.7 4.29.94 7.72 4.73 8.27 9.09-2.87 1.27-6.04 1.53-9.07 2.19 5.23 2.57 10.69-.31 15.89-1.44-.03-1.2-.07-2.41-.12-3.61.04-4.07-.71-8.2.26-12.21 1.17 4.98 1.14 10.13 1.55 15.21 3.75-.61 7.65-.85 11.23-2.21 1.82-1.65 3.03-3.84 4.43-5.83-3.44-10.05-3-20.78-2.92-31.24.18-5.07 1.39-10.15 3.66-14.69m-81.51 40.54c-.01 1.89-.02 3.77-.04 5.66l-3.39.04v5.85c.85.01 2.55.03 3.4.05.09 5.2-.08 10.41.09 15.62.22 2.29.39 5.13 2.65 6.42 3.16 1.93 6.99 1.18 10.37.4-.09-1.89-.19-3.77-.29-5.65-1.68-.21-5.08 1.22-5.13-1.46-.32-5.1-.06-10.23-.11-15.33 1.69-.02 3.38-.04 5.08-.05v-5.85c-1.7-.01-3.39-.03-5.09-.04-.01-3.34 0-6.67-.05-10-2.52 1.4-5.02 2.86-7.49 4.34m-23.81 5.23c-4.48.16-8.16 3.56-9.17 7.83 2.19.43 4.39.83 6.61 1.04 1.28-3.48 5.49-4.04 8.55-2.79 1.85.61 1.48 2.85 1.88 4.36-4.7 1.62-9.93 1.66-14.32 4.12-5.11 3.01-4.47 11.77.99 14.08 4.6 2.2 9.91.54 13.69-2.52.44 4.33 5.3 2.61 8.25 2.9-3.18-7.78-.47-16.33-2.15-24.34-2.53-5.24-9.38-5.1-14.33-4.68m56.83 2.71c-3.57 3.05-3.37 9.42.59 12.05 4.24 2.77 9.54 2.83 14.13 4.75 1.46.98.71 2.75-.31 3.72-3.64 2.07-9.41 1.33-10.67-3.23-2.46.18-4.91.51-7.34.92 1.08 4.4 4.93 7.64 9.35 8.34 4.95.78 10.9.63 14.63-3.2 3.09-2.94 3.52-8.6.19-11.52-4.3-3.26-9.99-3.22-14.83-5.22-1.48-.31-1.91-2.71-.47-3.38 3.36-1.6 8.16-1.17 9.93 2.54 2.26-.38 4.52-.79 6.78-1.22-1.11-3.52-3.98-6.48-7.75-7-4.74-.72-10.42-.99-14.23 2.45m45.09 5.1c2.22.47 4.46.82 6.72 1.04 1.3-3.64 6-4.14 9.02-2.49 1.38.86.96 2.77 1.28 4.14-4.72 1.53-9.93 1.61-14.3 4.1-4.76 2.89-4.51 10.8.25 13.58 4.64 2.81 10.66 1.28 14.53-2.16l.96 2.84c2.41.16 4.84.19 7.26.18-3.18-7.87-.09-16.55-2.27-24.6-2.75-5.07-9.45-4.88-14.43-4.4-4.41.18-7.9 3.64-9.02 7.77m-39.25-.75c2.09 2.31 5.52 2.19 8.33 2.83-1.24-3.58-5.21-3.6-8.33-2.83m46.53 4.03c2.88-.37 5.71-1.04 8.45-1.99-1.95-3.96-7.8-1.97-8.45 1.99m-111.34.07c2.78-.44 5.55-1.02 8.29-1.69-.91-4.71-7.62-2.15-8.29 1.69m-8.31-2.02c.06 2.22.11 4.44.12 6.66 2.32-2.54 5.72-3.38 8.46-5.19-2.85-.56-5.72-.96-8.58-1.47m72.13 9.4c.75 4.29 5.87 5.47 9.14 3.15-1.8-2.77-6.27-2.05-9.14-3.15z"/><path fill="#b1c196" d="M88.06 75.34c1.06-.4 2.11-.81 3.17-1.21.09 3.19.14 6.37.23 9.55-1.89-2.42-2.56-5.45-3.4-8.34z"/><path fill="#4b604f" d="M82.85 75.99l3.27.08c-2.35 5.54-4.89 11.12-5.7 17.15-1.1 7.88-1.81 15.83-1.84 23.79-.04 1.92-.03 3.96-1.14 5.63-.51-9.9.13-19.87 1.57-29.68.73-5.89 3.57-11.15 6.11-16.41-.56-.14-1.7-.42-2.27-.56zm29.14 38.35c-4.36-.77-4.07-6.81-.45-8.41-.99 2.82-.8 5.7.45 8.41zm-15.72 49.62c1.19 1.3 2.47 2.53 3.77 3.73l-1.75-.84c.2 3.42.34 6.85.09 10.27-1.73-4.18-1.65-8.74-2.11-13.16z"/><path fill="#607473" d="M60.91 83.46c1.55-1.07 2.82-2.49 4.33-3.6l1.02.2c1.89 15.82-3.42 31.07-6.16 46.44-2.5-.3-5.01-.51-7.52-.69 1.07-8.83 2.15-17.67 3.99-26.37.97-4.91 2.97-9.59 3.33-14.62-.94 1.68-1.85 3.38-2.56 5.17.51-2.07-.05-3.8-2.09-4.66 1.86-.71 3.8-1.16 5.66-1.87zm98.16 40.88l1.23.08c.77 5.06 1.3 10.16 2.51 15.15-.59.55-1.16 1.12-1.71 1.72-.62-5.66-1.88-11.24-2.03-16.95zM50.9 135.9c2.86-.1 5.72-.17 8.58-.24.06 6.8-.32 13.68.92 20.41.78 4.63 1.81 9.23 2.5 13.88-5.1-1.27-10.69-2.35-14.69-6-.29-3.62-.06-7.25-.14-10.88-.22-5.87 1.87-11.45 2.83-17.17z"/><path fill="#394f3c" d="M152.87 80.07c.54.01 1.62.02 2.16.03 6.26 11.39 9.85 24.12 11.26 37 .61 4.75 1.64 9.53 1.05 14.34-2.15-4.58-1.78-9.73-2.63-14.61-1.25-6.6-1.01-13.51-3.56-19.83-1.87-6.02-4.03-12.13-8.28-16.93z"/><path fill="#77ae36" d="M26.58 125.51c6.84-15.04 15.46-29.84 28.67-40.18 2.04.86 2.6 2.59 2.09 4.66-3.02 11.79-5.39 23.76-6.55 35.88-8.06-.02-16.19.7-24.21-.36zm-2.12 4.91c.53 1.61.81 3.3 1.49 4.85 3.54.99 7.35.33 11 .5.25 10.69-.46 21.44.34 32.1 2.84 1.62 6.79.47 10.06.71.24-.57.73-1.71.97-2.28 4.5 2.77 9.72 3.77 14.61 5.59-4.18 1.44-9.76-2.04-12.79 2.07-1.78.93-3.62 1.76-5.47 2.53-1.31-2.08-3.24-.34-4.74.43-9.12 5.03-13.75 15.79-14.13 25.84-1.02 2.37-.71 6.7-3.64 7.36-2.92-2.14-5.57-4.64-8.37-6.92-3.43-2.76-4.32-7.33-5.7-11.27-1.76-4.66.72-9.9-1.97-14.33 3.5-16.61 11.67-31.7 18.34-47.18z"/><path fill="#7aa152" d="M219.65 87.81l.46-.07c2.54 1.64 5.18 3.13 7.6 4.94-2.65-.46-5.44-1.74-8.13-1.03-3.57 2.09-5.57 6.31-5.72 10.37-.85 11.55-2.37 23.99 3 34.73-1.23.25-2.44.57-3.66.87-2.52-8.62-2.51-17.69-2.61-26.59.21-5.7.13-11.66 2.43-16.99 1.2-2.95 4.11-4.56 6.63-6.23z"/><path fill="#78b43a" d="M219.58 91.65c2.69-.71 5.48.57 8.13 1.03 4.67 3.53 8.26 8.21 11.72 12.87 7.11 8.15 12.91 17.33 18.51 26.56.28.53.85 1.6 1.13 2.13-8.82 1.81-17.63 3.65-26.47 5.34-4.53-3.33-10.36-3.73-15.74-2.83-5.37-10.74-3.85-23.18-3-34.73.15-4.06 2.15-8.28 5.72-10.37z"/><path fill="#c3dcc9" d="M157.22 124.23c.46.03 1.39.09 1.85.11.15 5.71 1.41 11.29 2.03 16.95-2.39 4.27-1.27 9.23 1.78 12.83-7.58 2.08-15.35 3.7-23.08 5.26-.06-4.46-.05-8.92-.02-13.38 1.65-.09 3.3-.18 4.95-.28.09-2.76.1-5.51.26-8.26.45-.16 1.35-.49 1.8-.66.37 1.97.76 3.95 1.46 5.83 1.67.48 3.43.48 5.15.66.08 3.64-.07 7.35.89 10.9.8-4.23-.59-8.88 1.75-12.75 1.77-4.85 1.46-10.15 1.28-15.23-.02-.5-.07-1.49-.1-1.98m-10.3 30.43c.37-3 .61-6.17-.93-8.9-1.78 2.57-1.39 6.71.93 8.9z"/><path fill="#c3dbcb" d="M85.19 126.79c1.39 3.12 3.06 6.14 5.59 8.49 2.98 2.66 2.06 7.57 5.61 9.86-.48 6.24-1.48 12.63-.12 18.82.46 4.42.38 8.98 2.11 13.16.25-3.42.11-6.85-.09-10.27l1.75.84c.32.15.95.44 1.27.59-.39 2.9 1.32 6.74-.97 9.05-3.57 2.13-5.37-3.26-8.53-3.95-2.84-.55-5.55-1.64-6.28-4.76.91.02 2.74.07 3.66.09.14.79.41 2.37.55 3.16.79-2.59 2.04-5.11 1.9-7.89-.1-8.53.6-17.16-1.63-25.51-.39.11-1.19.32-1.59.42-1.66-.81-3.35-1.57-5.06-2.27 2.14-2.82 1.47-6.54 1.83-9.83z"/><path fill="#fff" d="M26.89 127.64c10.42-.02 20.83-.06 31.25.02-.01 2.18-.03 4.36-.07 6.54-3.88 0-7.76-.02-11.64.03-.02 10.95.02 21.9-.02 32.85-2.61.03-5.22.03-7.82 0-.04-10.95-.01-21.89-.02-32.84-3.89-.06-7.78-.04-11.68-.05-.01-2.19-.01-4.37 0-6.55zm37.39-.01c2.47-.01 4.94-.01 7.41 0 .02 4.74 0 9.49.01 14.23 2.85-2.48 6.43-4.63 10.38-3.86 3.95.3 7.5 3.33 7.79 7.41.67 7.16.12 14.37.31 21.55-2.49.14-4.98.16-7.46.13-.23-6.89.42-13.84-.39-20.7-1.71-4.67-9.43-3.03-10.12 1.59-1.12 6.28-.2 12.76-.54 19.11-2.46.01-4.91.01-7.36 0-.07-13.15-.03-26.31-.03-39.46zm83.53.02c2.68-.03 5.36-.04 8.05-.04.11 4.6.06 9.25-1.13 13.73-1.71.48-3.55.21-5.3.35-1.21-4.58-1.91-9.29-1.62-14.04zm-17.02 5.19c2.47-1.48 4.97-2.94 7.49-4.34.05 3.33.04 6.66.05 10 1.7.01 3.39.03 5.09.04v5.85c-1.7.01-3.39.03-5.08.05.05 5.1-.21 10.23.11 15.33.05 2.68 3.45 1.25 5.13 1.46.1 1.88.2 3.76.29 5.65-3.38.78-7.21 1.53-10.37-.4-2.26-1.29-2.43-4.13-2.65-6.42-.17-5.21 0-10.42-.09-15.62-.85-.02-2.55-.04-3.4-.05v-5.85l3.39-.04c.02-1.89.03-3.77.04-5.66zm-23.81 5.23c4.95-.42 11.8-.56 14.33 4.68 1.68 8.01-1.03 16.56 2.15 24.34-2.95-.29-7.81 1.43-8.25-2.9-3.78 3.06-9.09 4.72-13.69 2.52-5.46-2.31-6.1-11.07-.99-14.08 4.39-2.46 9.62-2.5 14.32-4.12-.4-1.51-.03-3.75-1.88-4.36-3.06-1.25-7.27-.69-8.55 2.79-2.22-.21-4.42-.61-6.61-1.04 1.01-4.27 4.69-7.67 9.17-7.83m-2.15 18.89c-1.87 3.57 2.89 6.86 6.06 5.06 3.76-1.1 4.02-5.37 3.8-8.61-3.27 1.09-7.39.84-9.86 3.55zm58.98-16.18c3.81-3.44 9.49-3.17 14.23-2.45 3.77.52 6.64 3.48 7.75 7-2.26.43-4.52.84-6.78 1.22-1.77-3.71-6.57-4.14-9.93-2.54-1.44.67-1.01 3.07.47 3.38 4.84 2 10.53 1.96 14.83 5.22 3.33 2.92 2.9 8.58-.19 11.52-3.73 3.83-9.68 3.98-14.63 3.2-4.42-.7-8.27-3.94-9.35-8.34 2.43-.41 4.88-.74 7.34-.92 1.26 4.56 7.03 5.3 10.67 3.23 1.02-.97 1.77-2.74.31-3.72-4.59-1.92-9.89-1.98-14.13-4.75-3.96-2.63-4.16-9-.59-12.05zm45.09 5.1c1.12-4.13 4.61-7.59 9.02-7.77 4.98-.48 11.68-.67 14.43 4.4 2.18 8.05-.91 16.73 2.27 24.6-2.42.01-4.85-.02-7.26-.18l-.96-2.84c-3.87 3.44-9.89 4.97-14.53 2.16-4.76-2.78-5.01-10.69-.25-13.58 4.37-2.49 9.58-2.57 14.3-4.1-.32-1.37.1-3.28-1.28-4.14-3.02-1.65-7.72-1.15-9.02 2.49-2.26-.22-4.5-.57-6.72-1.04m8.05 10.04c-1.8 1.24-1.79 3.92-.2 5.33 2.15 2.08 5.77 1.21 7.67-.79 1.89-1.84 1.18-4.71 1.36-7.06-2.95.8-6.06 1.17-8.83 2.52zm-184 35.28c7.3.05 14.64-.3 21.93.33 5.13.41 9.65 5.28 8.9 10.53-.09 3.31-2.55 5.84-5.04 7.71 2.13.99 4.35 2.14 5.59 4.23 3.15 5.06.94 12.47-4.29 15.21-2.52 1.32-5.44 1.36-8.21 1.46-6.26.05-12.51-.01-18.77.03-.35-13.16-.13-26.34-.11-39.5m7.8 6.53c-.01 3.05-.01 6.11 0 9.16 4.23-.12 8.61.54 12.75-.57 3.83-1.17 3.55-7.43-.34-8.2-4.08-.78-8.28-.27-12.41-.39m-.01 15.75c.02 3.45.03 6.92-.05 10.38 4.61.35 9.36.67 13.91-.33 4.42-1.32 3.88-8.67-.59-9.53-4.36-.83-8.85-.44-13.27-.52zm133.82-22.27c2.45-.03 4.9-.05 7.35-.06.01 2.32 0 4.63.01 6.95-2.43.01-4.86.01-7.29.01-.08-2.3-.14-4.6-.07-6.9zm48.9-.04c2.72-.02 5.43-.02 8.15-.01.22 4.73-.17 9.44-1.25 14.05-1.84-.02-3.67-.03-5.5-.04-1.05-4.59-1.7-9.28-1.4-14zM72.44 209.46c1.31-3.87 4.37-7.33 8.65-7.68 5.05-.58 11.99-.89 14.85 4.24 2.31 8.01-1 16.8 2.34 24.66-2.84-.38-7.27 1.44-8.22-2.39-3.14 1.17-6.26 3.75-10.01 2.98-6.35.16-10.74-7.85-6.84-12.98 3.95-4.89 11.01-4.06 16.43-6.12.98-6.32-8.95-6.64-10.54-1.46-2.22-.42-4.44-.82-6.66-1.25m7.5 10.68c-2.33 3.04 1.71 7.23 5 5.75 4.15-.75 5.04-5.32 4.49-8.86-3.16.96-6.82 1.01-9.49 3.11zm25.33-18c2.3-.02 4.59-.01 6.89.01.02 1.28.03 2.55.05 3.83 2.47-2.23 5.28-4.52 8.8-4.49 4.48-.39 9.62 2.51 9.84 7.39.7 7.22.13 14.5.31 21.75-2.49.06-4.98.06-7.47.03-.09-6.27.19-12.55-.15-18.81.02-2.07-1.35-4.27-3.52-4.53-3.5-.85-6.96 2.12-7.14 5.61-.5 5.9-.15 11.83-.26 17.75-2.44.01-4.89.01-7.33 0-.02-9.51.02-19.03-.02-28.54zm34.59.03c2.27-.04 4.55-.06 6.82-.09.03 1.27.05 2.55.08 3.82 2.84-2.44 6.19-4.87 10.17-4.39 4.19.03 8.34 3.08 8.64 7.46.37 7.23.06 14.48.15 21.72-2.46 0-4.91-.01-7.37-.01-.08-6.21.16-12.42-.1-18.62.02-2.39-1.74-4.76-4.24-4.85-3.31-.39-6.33 2.43-6.45 5.7-.46 5.9-.14 11.84-.24 17.76-2.5.02-5 .01-7.5-.06.03-9.48-.04-18.96.04-28.44zm34.72-.06c2.43.01 4.87.01 7.3.02.02 9.52.03 19.04-.02 28.57-2.41-.02-4.82-.01-7.22.02-.18-9.54-.07-19.08-.06-28.61zm15.69.03c2.32-.02 4.64-.01 6.96.03 0 .95.01 2.86.02 3.82 2.47-2.24 5.28-4.55 8.82-4.5 4.53-.39 9.63 2.59 9.85 7.49.57 7.2.1 14.45.24 21.67-2.47.04-4.93.04-7.4.01-.15-6.54.33-13.11-.28-19.63-.3-3.49-4.69-4.85-7.4-3.11-2.24 1.14-3.21 3.71-3.29 6.1-.22 5.55-.04 11.11-.11 16.66-2.46.01-4.93.01-7.4 0-.01-9.51.02-19.03-.01-28.54z"/><path fill="#c37f10" d="M264.2 135c5.89-1.49 11.88-2.74 17.98-2.7 1.23 1.25 2.62 2.42 3.32 4.07 5.09 11.16 8.9 23.22 8.83 35.6 0 2.49-.24 5.37-2.47 6.93-4.98 3.98-11.61 4.49-17.63 5.7-8.41 1.67-16.9 2.9-25.32 4.52-3.93.61-7.88 1.7-11.88 1.36-4.88-4.14-5.19-11.35-9.67-15.78-2.11-1.46-4.87-1.72-7.35-1.33-2.46.63-4.15 2.7-6.02 4.27-2.56-5.28-9.08-7.42-14.33-4.87-4.1 2.13-5.36 6.95-6.75 10.99-2.5-1.11-5.03-2.77-7.89-2.39-4.26.6-8.42 3.51-8.84 8.08l-3.07.48c-.19 3.05-.3 6.1-.09 9.15.42.09 1.25.28 1.67.37 1.22.25 2.45.54 3.68.75-1.48.2-2.96.38-4.44.54-.32.52-.96 1.56-1.28 2.07-2.18.38-4.34.89-6.55.96-2.73-1.07-4.92-3.46-7.98-3.68-3.13-.59-6.14.64-9.02 1.66-3.21-1.55-6.88-1.49-10.31-.87-.6 2.41-.45 4.92-.54 7.38-1.8.45-3.61.89-5.41 1.34-.88-2.65-1.46-5.82-4.12-7.31-2.24-1.36-3.78-3.46-5.41-5.43-7.66.29-15.17 2.01-22.78 2.88-.85-4.95-2.62-9.7-5.72-13.68 3.96-1.05 7.96-2.06 12.06-2.34 1.79-.02 3.64.13 5.31-.64 2.34-.34 5.07-.03 6.73-2.08-.64-4.04-1.81-8-1.9-12.12 2.74-.16 5.48-.34 8.21-.6-.2-.92-.6-2.78-.8-3.7 1.57-.47 3.13-.94 4.7-1.4 1.27 1.88 2.3 4.23 4.54 5.14 3.77 1.71 7.97.61 11.8-.27-.09-2.61-.21-5.22-.35-7.82 7.05-2 14.19-3.82 21.44-4.93-2.02 2.27-5.4 1.82-8.11 2.56.65 2.38 1.23 4.94 3.06 6.75 4.07 4.65 10.87 5.16 16.6 4.26 4.61-.68 9.12-4.03 9.96-8.81.8-3.32-1.02-6.43-2.16-9.43 5.65-1.23 11.23-2.74 16.89-3.95 4.49-1.09 8.66 1.66 13.01 2.36-2.54 1.19-5.48 2.07-7.25 4.41-3.45 4.34-2.15 11.6 2.78 14.28 4.23 2.5 9.42 1.51 13.65-.45 3.23 1.83 7.07 1.61 10.63 1.16.12-.29.36-.87.49-1.17-2.68-8.52-.61-17.49-2.07-26.2 10.01-2.29 20.08-4.23 30.17-6.07z"/><path fill="#c37f10" d="M216.18 149.16c.65-3.96 6.5-5.95 8.45-1.99-2.74.95-5.57 1.62-8.45 1.99zm1.14 8.28c2.15-1.44 4.83-1.57 7.28-2.14.08 2.7-1.47 5.87-4.58 5.64-2.08.45-3.47-1.68-2.7-3.5zm-48.66-.83c2.87 1.1 7.34.38 9.14 3.15-3.27 2.32-8.39 1.14-9.14-3.15z"/><path fill="#527330" d="M48.14 138.64c-.85-1.26-.64-2.05.64-2.35.84 1.25.62 2.04-.64 2.35z"/><path fill="#798c83" d="M146.92 154.66c-2.32-2.19-2.71-6.33-.93-8.9 1.54 2.73 1.3 5.9.93 8.9z"/><path fill="#b8cfc1" d="M96.53 147.21c2.86.51 5.73.91 8.58 1.47-2.74 1.81-6.14 2.65-8.46 5.19-.01-2.22-.06-4.44-.12-6.66z"/><path fill="#c0d5cf" d="M64.48 168.71c3.11-.1 6.22-.14 9.31-.48.62 2.2.84 4.49.99 6.77-1.93-.15-3.85-.29-5.77-.4-1.86-1.67-3.5-3.59-4.53-5.89z"/><path fill="#c9b15f" d="M201.23 173.32c3.33-1.51 7.05.12 9.41 2.61-2.5-.6-4.98-1.94-7.61-1.66-3.55 1.48-5.98 5.13-6.63 8.85-.77 5.72.26 11.46.55 17.18-2.3-4.01-2.19-8.82-2.37-13.31-.16-5.21 1.81-11.08 6.65-13.67z"/><path fill="#c1ad52" d="M44.67 176.49c1.85-.77 3.69-1.6 5.47-2.53 11.78-1.75 23.9 1.57 34.32 6.99-5.29-.63-10.01-3.27-15.16-4.46-6.55-1.64-13.65-2.92-20.17-.53-6.91 2.55-12.93 7.34-16.68 13.71l-.76 1.12c-.19 1.16-.31 2.32-.44 3.49-2.71 4.63-3.8 11.17.11 15.48-.03.87-.1 2.6-.13 3.47-5.7-6.89-3.88-16.78-.23-24.19 2.61-5.87 7.81-10.14 13.67-12.55z"/><path fill="#e8cb15" d="M196.4 183.12c.65-3.72 3.08-7.37 6.63-8.85 2.63-.28 5.11 1.06 7.61 1.66 3.31 5.71 1.38 12.68 3.82 18.68 1.4 3.3 2.6 7.24 6.05 8.97-.64-2.06-1.47-4.05-2.61-5.88-.68-5.77-3.52-11.61-1.46-17.4.86-2.22 2.8-4.91 5.52-4.33 2.65.88 4.81 2.72 7.12 4.22 2.3 5.85 5.39 11.44 10.06 15.76.17-.42.52-1.24.7-1.65 4.96-2.29 10.56-3.35 15.98-2.3-4.44 5.17-9.16 10.31-15.14 13.72-2.65 1.44-5.39 2.7-8.13 3.96-4.88 1.54-9.7 3.29-14.77 4.11-.13-4.06-.2-9.01-3.92-11.57-4.34-3.23-10.2-2.52-14.76-.17-.45-.36-1.35-1.08-1.79-1.44l-.36-.31c-.29-5.72-1.32-11.46-.55-17.18m26 7.05c-.86 5.44.09 10.96 1.35 16.26 2.56.15 5.13.17 7.7.12 1.22-5.29 2.36-10.88 1.24-16.28-3.13-1.02-7.06-.83-10.29-.1zm-41.79-5.53c3.7-4.49 12.68-1.65 12.67 4.34.38 3.89.86 7.76 1.67 11.59-1.95.29-4.62-.7-6.05.99-.36 3.24-.1 6.51-.26 9.77-1.23-1.07-2.52-2.05-3.62-3.24-1.88-1.69-1.24-4.44-1.79-6.65-1.15-.61-2.35-1.12-3.54-1.61l3.68-.48c.17-3.16.16-6.33-.02-9.49-1.78-.11-3.56-.23-5.34-.34l.51-1.52c.65-1.15 1.26-2.33 2.09-3.36zm18.59 29.68c.2-2.7 1.68-5.8 4.86-5.64 3.63.17 3.03 4.45 3.29 6.97-2.74-.3-5.43-.9-8.15-1.33z"/><path fill="#eec616" d="M49.13 175.96c6.52-2.39 13.62-1.11 20.17.53 5.15 1.19 9.87 3.83 15.16 4.46 3.91 2.08 7.88 4.44 10.51 8.1 3.49 5.29 5.65 11.9 3.76 18.18-1.46-1.84-2.63-4.02-4.63-5.32-2.56-1.4-5.51-1.73-8.31-2.38-.46-3.07-2.13-5.7-4.27-7.87 1.39 2.6 2.66 5.27 3.49 8.1-3.68.48-7.89.7-10.6 3.6-2.08 1.88-2.88 4.63-3.53 7.26 2.98.67 5.99 1.22 9.01 1.67 1.18-2.38 3.09-3.88 5.86-3.56-.09.71-.26 2.12-.35 2.83-5.39 1.4-11.88 2.08-14.69 7.66-.77.16-2.31.48-3.09.63-.37-4.12-2.21-7.9-5.57-10.39 1.4-2.28 2.68-4.62 3.84-7.03.61 1.01 1.25 1.99 1.92 2.97-.26-1.82-1.05-3.46-2.06-4.96-1.03-2.82-1.93-5.94-4.45-7.83-3.13-2.64-7.43-2.8-11.33-2.88-5.84-.04-11.68-.04-17.52-.06 3.75-6.37 9.77-11.16 16.68-13.71z"/><path fill="#eec616" d="M42.19 199.16c3.5.05 7.03-.24 10.51.29 2.68.33 2.88 4.86.31 5.51-3.46 1.05-7.2.37-10.77.58-.03-2.13-.04-4.25-.05-6.38zm1.37 18.83c2.9-2.76 6.92-2.47 10.64-2.72 1.81 1.44 3.1 4.21 1.23 6.16-3.48 2.78-7.82-.11-10.99-1.96-.11-.18-.33-.54-.44-.73z"/><path fill="#c6af4f" d="M214.35 182.11c.57-3.5 2.93-7.27 6.69-7.82 3.72-.2 6.63 2.73 8.04 5.9-2.31-1.5-4.47-3.34-7.12-4.22-2.72-.58-4.66 2.11-5.52 4.33-2.06 5.79.78 11.63 1.46 17.4-3.15-4.49-4.2-10.21-3.55-15.59z"/><path fill="#779942" d="M6.12 177.6c2.69 4.43.21 9.67 1.97 14.33 1.38 3.94 2.27 8.51 5.7 11.27 2.8 2.28 5.45 4.78 8.37 6.92 2.93-.66 2.62-4.99 3.64-7.36.54 4.34 2.22 8.41 4.21 12.27-1.99-.67-3.99-1.3-5.94-2.1-7.27-4-14.14-9.6-17.59-17.33-2.51-5.69-1.71-12.12-.36-18zm100.86 23.02c4.37-.85 8.8-1.93 13.28-1.38-1.94 1.08-4 1.94-6.07 2.74-.53-.34-1.59-1.03-2.13-1.38-1.69.02-3.39.04-5.08.02z"/><path fill="#6ca836" d="M261.42 188.66c4.85-1.3 9.93-1.56 14.81-2.76.15 4.71-.43 9.54-2.7 13.75-5.38 11.52-16.73 19.25-28.77 22.46-8.98 1.51-18.15.62-26.97-1.38-.01-1.81-.01-3.61-.01-5.42 5.71-1.06 11.4-2.35 16.73-4.7 6.12-2.42 11.85-5.95 16.33-10.82 3.9-3.35 6.62-7.88 10.58-11.13z"/><path fill="#cbb35a" d="M238.55 192.25c6.63-1.15 13.24-2.39 19.91-3.32-.88 1.03-1.76 2.05-2.64 3.07-5.42-1.05-11.02.01-15.98 2.3-.32-.51-.97-1.53-1.29-2.05z"/><path fill="#ebc51d" d="M31.36 209.76c-3.91-4.31-2.82-10.85-.11-15.48.21 5.16.22 10.32.11 15.48z"/><path fill="#795840" d="M121.31 198.27c1.69-.49 2.26.05 1.73 1.62-1.69.48-2.26-.06-1.73-1.62z"/><path fill="#70a52f" d="M101.11 201.23c.66-.05 1.99-.16 2.65-.21-.05 10.35-.22 20.71.1 31.05 3.41.12 6.82.11 10.23-.02.33-6.02-.09-12.05.28-18.06.06-1.92.78-4.18 2.78-4.85 1.69-.76 4.45-.35 4.62 1.89.89 6.92.12 13.93.46 20.89 3.46.33 6.93.32 10.38 0 .2-6.67-.24-13.34.17-19.99.11-2.73 3.74-1.48 5.5-2.1.12 7.35-.01 14.71.09 22.06 3.45.33 6.93.36 10.39.09.33-6.59-.36-13.24.59-19.8.42-2.86 3.94-4.26 6.35-2.79 1.21 1.58.97 3.7 1.1 5.57 0 5.69-.17 11.38.13 17.07 3.43.15 6.87.16 10.3.04-.13-8.88.93-17.89-.78-26.66l2.28-.28c.1.32.31.97.42 1.29-1.08 5.15-.6 10.42-.65 15.64-.04 7.31.02 14.63-.14 21.94H75.17c-.02-4.06-.06-8.12-.13-12.17 4.51 1.49 9.3 1.18 13.63-.75 3.59 1.59 7.55 1.14 11.35.87-1.97-6.45-2.02-13.24-1.57-19.91.6-3.67 1.97-7.16 2.66-10.81z"/><path fill="#70a52f" d="M80.77 222.98c-.49-3.76 4.98-3.18 7.48-4.03.82 4.03-4.94 8.13-7.48 4.03z"/><path fill="#607578" d="M168.73 205.13c1.39-.18 2.79-.35 4.19-.52.07 9.12-.24 18.23.18 27.34 3.49.32 6.99.31 10.48-.09.06-7.39-.09-14.78.1-22.17 1.9 1.46 5.44 2.2 5.03 5.25.13 5.71-.15 11.43.12 17.15 3.43.11 6.87.1 10.3-.01.2-5.41.11-10.81.14-16.21 2.59.69 5.15 1.5 7.69 2.37.24 4.56.25 9.12.28 13.69 3.47.32 6.97.33 10.44-.02.03-3.17.05-6.34.07-9.5 4.72.84 9.45 1.9 14.28 1.82 4-.05 8.01-.38 12.01.06-1.9 6.95-4.18 13.94-8.66 19.71h-64.96c.25-10.36.44-20.73.16-31.09.03-2.25-.6-4.42-1.43-6.49-.11-.32-.32-.97-.42-1.29z"/><path fill="#030501" d="M169.15 206.42c.83 2.07 1.46 4.24 1.43 6.49.28 10.36.09 20.73-.16 31.09h-2.06c.16-7.31.1-14.63.14-21.94.05-5.22-.43-10.49.65-15.64z"/><path fill="#8a7d40" d="M86.98 209.44c3.32.12-1.5 3.02 0 0z"/><path fill="#5c7677" d="M23.79 214.73c2.46.93 4.96 1.7 7.46 2.47.11 4.98-.05 9.96.36 14.93 8.49-.08 17.02.45 25.49-.31 5.56-.61 8.75-5.69 10.64-10.42.55-.06 1.64-.19 2.19-.26-.13 4.65 3.49 8.3 3.27 12.9.07 3.32-.03 6.64-.05 9.96H30.63c-5.86-8.34-8.84-19.18-6.84-29.27z"/><path fill="#b49212" d="M42.24 215.15c2.98-1.62.25 3.31 0 0z"/><path fill="#4e5e56" d="M41.99 217.94l2.01.8c.11.19.33.55.44.73.55 1.14 1.01 2.32 1.5 3.49-1.34-.06-2.67-.11-4-.16.01-1.62.02-3.24.05-4.86z"/></svg>