<svg xmlns="http://www.w3.org/2000/svg" width="685pt" height="800pt" viewBox="0 0 685 800"><path fill="#c3c7e6" d="M179.43 25.04c.48-9.14 9.54-16.58 18.6-15.27 154.05 20.53 308.1 41.09 462.14 61.65 9.02.66 16.29 9.55 15.02 18.53-.88 8.86-9.73 15.9-18.58 14.59C502.3 83.96 347.99 63.4 193.69 42.77c-8.43-1.01-15.03-9.3-14.26-17.73zm95.67 633.94c100.72 13.42 201.43 26.87 302.15 40.29 8.39 1.06 15.07 9.26 14.21 17.72-.35 7.39-6.33 13.89-13.56 15.17-4 .72-8.01-.26-11.97-.73-90.77-12.1-181.53-24.23-272.3-36.32-8.45-1.23-16.95-2.13-25.38-3.5l.23.8c-2.75-3.53-6.75-5.67-10.58-7.78 9.45-5.07 16.67-14.73 17.2-25.65z"/><path fill="#0094a4" d="M193.69 42.77c154.3 20.63 308.61 41.19 462.92 61.77-1.49 11.03-2.99 22.05-4.39 33.08l-.21-.03c-154.17-20.57-308.34-41.21-462.53-61.66-.09.56-.28 1.69-.37 2.25 1.29-11.83 3.11-23.6 4.58-35.41zm-26.82 201.17c6.06-45 11.88-90.03 18.1-135 136.08 18.03 272.13 36.28 408.19 54.4 17.94 2.57 36 4.42 53.86 7.48l.73.12c-23.53 176.11-46.98 352.23-70.5 528.33-100.72-13.42-201.43-26.87-302.15-40.29.62-11.51-7.65-21.21-17.3-26.35 9.02-1.98 17.96-4.25 26.96-6.33 3.09-.01 6.17.37 9.23.83 36.95 4.95 73.91 9.86 110.87 14.79 3.58.44 7.18.77 10.68 1.73a720.41 720.41 0 0 0 4.18-32.06c-13.62-1.47-27.17-3.57-40.76-5.3-4.37-.67-8.85-.69-13.09-2.08 10.31-7.64 11.21-23.48 3.94-33.48 13.92 1.78 27.82 3.8 41.75 5.47 3.65.58 7.31 1.1 10.99 1.52 22.43 3.07 44.88 5.99 67.32 9.02 5.21.77 10.87-.33 14.74-4.09 3.89-3.41 5.21-8.58 6.76-13.3 26.76-78.21 53.59-156.4 80.34-234.62 2.84-7.6-.88-16.79-8.16-20.33-11.2-5.53-22.46-10.94-33.67-16.46 6.36-16.82 13.3-33.43 19.75-50.22 2.96-7.65-.92-16.61-8-20.45-33.12-20.59-69.46-35.96-107.14-45.98-63.76-17.08-131.9-14.33-195.28 3.05-5.23 1.57-11.09 2.75-14.88 7.02-3.4 3.59-4.73 8.72-4.14 13.58 1.91 17.47 4.01 34.92 5.84 52.4-12.14 2.46-24.34 4.66-36.49 7.05-5.96 1.04-11.03 5.57-12.83 11.32-1.05 3.03-.79 6.29-.55 9.43 5.49 83.64 10.81 167.29 16.31 250.93.33 7.78 6.7 14.6 14.4 15.56 34.7 4.72 69.44 9.18 104.13 13.98-44.58 10.62-89.26 20.82-133.92 31.11-11.9 2.59-23.7 5.68-35.68 7.93-2.71.62-5.81.37-7.86-1.71-.74-4.48 2.59-7.96 5.27-11.05 11.21-12.68 15-30.38 14.03-46.91-1.69-17.71-5.37-36.07-16.01-50.75-5.1-7.73-12.18-14.34-20.93-17.65 10.19-77.56 20.67-155.09 30.97-232.64z"/><path fill="#feab00" d="M189.48 75.93c154.19 20.45 308.36 41.09 462.53 61.66-1.1 9.96-2.71 19.85-3.84 29.8-.23 1.13.57 3.33-1.15 3.43-17.86-3.06-35.92-4.91-53.86-7.48-136.06-18.12-272.11-36.37-408.19-54.4 1.39-10.25 2.7-20.52 4.14-30.76.09-.56.28-1.69.37-2.25zm161.29 359.94c11.27-1.92 23.86.03 32.69 7.72 4.26 3.46 6.57 8.69 7.2 14.06-5.55 1.3-11.34 3.4-14.98 8.05-3.78 4.26-4.9 10.28-3.91 15.79-4.93 1.03-9.74 2.81-14.83 2.88-6.72.38-13.43-1.06-19.61-3.65-4.64-2.87-9.47-6.09-12.04-11.08-2.72-5.18-2.68-11.51-.23-16.77 4.96-9.64 15.37-15.17 25.71-17zm-74.56 40.86c8.83 13.54 26.02 20.36 41.84 18.24l.32 3.24c-6.35 1.32-12.82 4.13-16.46 9.77-4.34 5.83-3.63 13.76-.86 20.11-2.3-.3-4.6-.56-6.9-.8 1.77-4.21 3.77-8.66 2.97-13.34-1.3-8.14-7.03-15-14.08-18.98-8.4-5.25-18.65-6.25-28.31-5.25 5.25-6.89 13.35-10.65 21.48-12.99zm158.75 2.45c8.73-.17 17.83 1.67 24.92 7.03 5.31 3.84 9.16 10.15 8.8 16.86-.1 4.86-2.57 9.26-5.52 12.97-10.02-.98-20.52 2.59-27.66 9.74-5.6-7.89-14.09-13.06-22.85-16.77 6.86-1.29 14.26-2.84 19.22-8.19 5.7-5.57 6.36-14.65 3.09-21.64z"/><path fill="#feaa40" d="M259.21 184.34c63.38-17.38 131.52-20.13 195.28-3.05 37.68 10.02 74.02 25.39 107.14 45.98 7.08 3.84 10.96 12.8 8 20.45-6.45 16.79-13.39 33.4-19.75 50.22 11.21 5.52 22.47 10.93 33.67 16.46 7.28 3.54 11 12.73 8.16 20.33-26.75 78.22-53.58 156.41-80.34 234.62-1.55 4.72-2.87 9.89-6.76 13.3-3.87 3.76-9.53 4.86-14.74 4.09-22.44-3.03-44.89-5.95-67.32-9.02 6.11-.74 12.35-2.94 16.48-7.72 5.31-6.04 6.7-14.65 5.74-22.43 10.2.99 20.3 2.74 30.49 3.84 2.26.41 4.58.39 6.88.47 24.44-71.39 48.9-142.77 73.35-214.15-11.2-5.6-22.51-10.99-33.74-16.53-7.89-3.44-11.75-13.19-8.65-21.18 6.78-16.95 13.45-33.95 20.25-50.9-39.28-22.19-82.63-37.68-127.45-43.47-43.75-5.44-88.53-2.02-131.16 9.05 1.89 15.93 3.61 31.89 5.45 47.83.58 5.21 1.59 10.89-.99 15.75-2.32 4.8-7.12 8.05-12.31 8.98-12.21 2.29-24.38 4.76-36.61 6.91 4.58 75.39 9.71 150.75 14.53 226.12 1.07.23 2.15.48 3.23.72 15.32 2.37 30.73 4.28 46.11 6.28 2.3.24 4.6.5 6.9.8 20.61 2.56 41.24 5.09 61.78 8.16 6.13 1.07 12.31 1.72 18.46 2.58 1.82 11.83 8.59 22.61 17.92 29.98 3.78 2.98 8.15 5.08 12.35 7.39-13.93-1.67-27.83-3.69-41.75-5.47-4.79-6.52-13.07-10.06-21.09-9.03-5.98.96-11.77 2.79-17.72 3.91-34.69-4.8-69.43-9.26-104.13-13.98-7.7-.96-14.07-7.78-14.4-15.56-5.5-83.64-10.82-167.29-16.31-250.93-.24-3.14-.5-6.4.55-9.43 1.8-5.75 6.87-10.28 12.83-11.32 12.15-2.39 24.35-4.59 36.49-7.05-1.83-17.48-3.93-34.93-5.84-52.4-.59-4.86.74-9.99 4.14-13.58 3.79-4.27 9.65-5.45 14.88-7.02z"/><path fill="#24343a" d="M274.74 214.7c42.63-11.07 87.41-14.49 131.16-9.05 44.82 5.79 88.17 21.28 127.45 43.47-6.8 16.95-13.47 33.95-20.25 50.9-3.1 7.99.76 17.74 8.65 21.18 11.23 5.54 22.54 10.93 33.74 16.53-24.45 71.38-48.91 142.76-73.35 214.15-2.3-.08-4.62-.06-6.88-.47 1.59-.14 3.2-.23 4.81-.27 3.06-8.24 5.85-16.56 8.83-24.82-7.06-6.33-16.34-9.7-25.74-10.28 2.95-3.71 5.42-8.11 5.52-12.97.36-6.71-3.49-13.02-8.8-16.86-7.09-5.36-16.19-7.2-24.92-7.03-7.82-15.94-27.14-24.29-44.3-21.53-.63-5.37-2.94-10.6-7.2-14.06-8.83-7.69-21.42-9.64-32.69-7.72-10.34 1.83-20.75 7.36-25.71 17-9.83-7.09-22.56-10.75-34.58-8.19-7.07 1.49-14.1 5.76-16.86 12.72-2.69 6.37-.91 13.64 2.59 19.33-8.13 2.34-16.23 6.1-21.48 12.99-3.96.85-7.79 2.19-11.46 3.88.92 8.88 1.11 17.82 2.05 26.7.68.18 2.04.53 2.72.71-1.08-.24-2.16-.49-3.23-.72-4.82-75.37-9.95-150.73-14.53-226.12 12.23-2.15 24.4-4.62 36.61-6.91 5.19-.93 9.99-4.18 12.31-8.98 2.58-4.86 1.57-10.54.99-15.75-1.84-15.94-3.56-31.9-5.45-47.83m39.63 23.49c1.17 11.04 2.4 22.07 3.52 33.11 32.61-3.52 65.81-2.88 98.05 3.42 20.67 4.02 41.02 9.88 60.54 17.8 4.42-10.25 8.16-20.78 12.38-31.11-15.65-5.97-31.59-11.18-47.84-15.25-41.26-10.52-84.4-12.57-126.65-7.97m-45.31 87.23c1.26 15.77 2.86 31.5 4.13 47.27 4.29-.37 8.51-1.26 12.79-1.73 48.68-6.34 98.54-3.19 146.06 9.13 21.6 5.6 42.94 12.61 63.04 22.38 5.33-14.74 11.07-29.35 16.04-44.21-23.74-11.56-48.51-21.08-74.06-27.79-54.64-14.65-112.56-15.85-168-5.05zM356 608.81c3.54-.92 6.82-2.62 9.87-4.6 4.24 1.39 8.72 1.41 13.09 2.08 13.59 1.73 27.14 3.83 40.76 5.3a720.41 720.41 0 0 1-4.18 32.06c-3.5-.96-7.1-1.29-10.68-1.73-36.96-4.93-73.92-9.84-110.87-14.79-3.06-.46-6.14-.84-9.23-.83 23.72-5.94 47.55-11.43 71.24-17.49z"/><path fill="#fefefe" d="M314.37 238.19c42.25-4.6 85.39-2.55 126.65 7.97 16.25 4.07 32.19 9.28 47.84 15.25-4.22 10.33-7.96 20.86-12.38 31.11-19.52-7.92-39.87-13.78-60.54-17.8-32.24-6.3-65.44-6.94-98.05-3.42-1.12-11.04-2.35-22.07-3.52-33.11zm-45.31 87.23c55.44-10.8 113.36-9.6 168 5.05 25.55 6.71 50.32 16.23 74.06 27.79-4.97 14.86-10.71 29.47-16.04 44.21-20.1-9.77-41.44-16.78-63.04-22.38-47.52-12.32-97.38-15.47-146.06-9.13-4.28.47-8.5 1.36-12.79 1.73-1.27-15.77-2.87-31.5-4.13-47.27z"/><path fill="#fed500" d="M290.48 444.68c12.02-2.56 24.75 1.1 34.58 8.19-2.45 5.26-2.49 11.59.23 16.77 2.57 4.99 7.4 8.21 12.04 11.08-1.62 2.82-3.15 5.79-5.6 7.99-3.8 3.42-8.73 5.29-13.68 6.26-15.82 2.12-33.01-4.7-41.84-18.24-3.5-5.69-5.28-12.96-2.59-19.33 2.76-6.96 9.79-11.23 16.86-12.72zm85.2 21.02c3.64-4.65 9.43-6.75 14.98-8.05 17.16-2.76 36.48 5.59 44.3 21.53 3.27 6.99 2.61 16.07-3.09 21.64-4.96 5.35-12.36 6.9-19.22 8.19 8.76 3.71 17.25 8.88 22.85 16.77 4.61 6.51 7.92 13.91 9.27 21.79.96 7.78-.43 16.39-5.74 22.43-4.13 4.78-10.37 6.98-16.48 7.72-3.68-.42-7.34-.94-10.99-1.52-4.2-2.31-8.57-4.41-12.35-7.39-9.33-7.37-16.1-18.15-17.92-29.98-1.1-9.2.95-19.8 8.72-25.69 3.61-3.11 8.41-3.9 12.87-5.07-6.62-2.35-13.41-4.56-19.06-8.91-5.94-4.23-10.34-10.57-12.05-17.67-.99-5.51.13-11.53 3.91-15.79zm-57.31 32.51c13.35-1.98 27.54 2.72 37.17 12.15 6.76 6.51 10.53 16.74 7.29 25.89-20.54-3.07-41.17-5.6-61.78-8.16-2.77-6.35-3.48-14.28.86-20.11 3.64-5.64 10.11-8.45 16.46-9.77z"/><g fill="#f48d0b"><path d="M107.14 487.31c1.24-6.42 6.67-11.46 13.04-12.62 5.29-.68 10.75-.06 15.72 1.89 8.75 3.31 15.83 9.92 20.93 17.65 10.64 14.68 14.32 33.04 16.01 50.75.97 16.53-2.82 34.23-14.03 46.91-2.68 3.09-6.01 6.57-5.27 11.05 2.05 2.08 5.15 2.33 7.86 1.71 11.98-2.25 23.78-5.34 35.68-7.93 44.66-10.29 89.34-20.49 133.92-31.11 5.95-1.12 11.74-2.95 17.72-3.91 8.02-1.03 16.3 2.51 21.09 9.03 7.27 10 6.37 25.84-3.94 33.48-3.05 1.98-6.33 3.68-9.87 4.6-23.69 6.06-47.52 11.55-71.24 17.49-9 2.08-17.94 4.35-26.96 6.33 9.65 5.14 17.92 14.84 17.3 26.35-.53 10.92-7.75 20.58-17.2 25.65 3.83 2.11 7.83 4.25 10.58 7.78 5 5.94 4.83 14.51 2.94 21.62-2.47 9.15-10.57 15.42-19.15 18.53 3.17 2.08 7.03 3.76 8.74 7.38 3.8 7.16 2 16.06-2.46 22.49-4.87 6.87-12.73 10.66-20.43 13.46-6.89 2.26-14.08 3.42-21.13 5.06-14.25 3.15-28.5 6.4-42.87 9-15 2.12-30.41 1.14-45.13-2.35-36.59-9.41-68.09-37.62-80.38-73.5-5.27-15.08-8.55-31.06-8.12-47.08-.42-20.03 7.44-39.7 20.05-55.08 7.23-8.83 14.93-17.34 23.57-24.81 5.9-5.85 12.91-10.64 17.63-17.59 11.97-15.68 13.41-36.88 9.42-55.6-1.56-8.82-6.41-17.5-4.02-26.63zm230.19-6.59c6.18 2.59 12.89 4.03 19.61 3.65 5.09-.07 9.9-1.85 14.83-2.88 1.71 7.1 6.11 13.44 12.05 17.67 5.65 4.35 12.44 6.56 19.06 8.91-4.46 1.17-9.26 1.96-12.87 5.07-7.77 5.89-9.82 16.49-8.72 25.69-6.15-.86-12.33-1.51-18.46-2.58 3.24-9.15-.53-19.38-7.29-25.89-9.63-9.43-23.82-14.13-37.17-12.15l-.32-3.24c4.95-.97 9.88-2.84 13.68-6.26 2.45-2.2 3.98-5.17 5.6-7.99z"/><path d="M243.27 493.6c3.67-1.69 7.5-3.03 11.46-3.88 9.66-1 19.91 0 28.31 5.25 7.05 3.98 12.78 10.84 14.08 18.98.8 4.68-1.2 9.13-2.97 13.34-15.38-2-30.79-3.91-46.11-6.28-.68-.18-2.04-.53-2.72-.71-.94-8.88-1.13-17.82-2.05-26.7zm192.23 32.18c7.14-7.15 17.64-10.72 27.66-9.74 9.4.58 18.68 3.95 25.74 10.28-2.98 8.26-5.77 16.58-8.83 24.82-1.61.04-3.22.13-4.81.27-10.19-1.1-20.29-2.85-30.49-3.84-1.35-7.88-4.66-15.28-9.27-21.79z"/></g></svg>