<svg shape-rendering="crispEdges" viewBox="0 -.5 46 38" xmlns="http://www.w3.org/2000/svg"><path d="m28 0h5m-8 1h6m-9 1h8m6 0h1m-17 1h9m5 0h3m-19 1h11m2 0h5m-20 1h20m-22 1h21m-22 1h22m-23 1h23m-24 1h23m-24 1h3m2 0h19m-25 1h3m1 0h2m1 0h17m-29 1h1m4 0h2m1 0h3m1 0h17m-29 1h3m2 0h1m1 0h5m1 0h16m-29 1h6m1 0h5m1 0h17m-29 1h18m6 0h7m-31 1h5m5 0h7m1 0h6m2 0h7m-33 1h4m1 0h5m1 0h5m1 0h9m1 0h14m-40 1h2m1 0h7m1 0h5m5 0h18m-39 1h2m8 0h1m1 0h3m1 0h5m2 0h15m-38 1h2m1 0h3m3 0h1m5 0h8m1 0h13m-37 1h2m20 0h2m1 0h11m-35 1h1m1 0h7m1 0h3m1 0h3m3 0h1m10 0h3m-34 1h2m2 0h3m2 0h4m4 0h3m4 0h6m1 0h2m-32 1h3m3 0h7m1 0h7m1 0h6m1 0h2m-31 1h2m2 0h10m7 0h9m-28 1h4m1 0h4m1 0h3m1 0h14m-30 1h7m4 0h5m1 0h12m-31 1h2m1 0h1m1 0h5m1 0h7m1 0h12m-33 1h12m1 0h7m1 0h12m-35 1h9m6 0h6m1 0h12m-36 1h4m7 0h11m1 0h13m-33 1h18m1 0h13m-29 1h14m1 0h13m-23 1h7m2 0h13m-15 1h14m-15 1h13m-10 1h7" stroke="#fff"/><path d="m13 10h2m-3 1h1m2 0h1m-5 1h1m3 0h1m-6 1h1m5 0h1m-7 1h1m5 0h1m6 1h6m-19 1h5m7 0h1m6 0h2m-22 1h1m5 0h1m5 0h1m9 0h1m-24 1h1m7 0h1m5 0h5m-19 1h8m1 0h1m3 0h1m5 0h2m-21 1h1m3 0h3m1 0h5m8 0h1m-22 1h20m2 0h1m-23 1h1m7 0h1m3 0h1m3 0h3m1 0h10m-29 1h2m3 0h2m4 0h4m3 0h4m6 0h1m-27 1h3m7 0h1m7 0h1m6 0h1m-27 1h2m10 0h7m-15 1h1m4 0h1m3 0h1m-9 1h4m5 0h1m-17 1h1m1 0h1m5 0h1m7 0h1m-9 1h1m7 0h1m-14 1h6m6 0h1m-20 1h7m11 0h1m-2 1h1m-2 1h1m-3 1h2" stroke="#000"/></svg>