<svg xmlns="http://www.w3.org/2000/svg" width="128pt" height="109pt" viewBox="0 0 128 109"><path fill="#c6c6c6" d="M23.92 3.33c1.91.03 3.81.05 5.71.1.01 18.88-.22 37.76-.38 56.64-1.7-.02-3.39-.04-5.09-.07-.09-18.72-.63-37.46-.27-56.17z"/><path fill="#848484" d="M29.63 3.43c8.52-.2 17.22-.12 25.4 2.58-6.07 17.92-9.63 38.72-.86 56.36 1.73.92 3.06 2.35 4.23 3.89-1.15 5.68-.44 11.77 2.58 16.78 4.46 7.93 13.95 12.61 22.97 11.28 4.66-.48 8.81-2.85 12.51-5.57 2.05 1.17 4.76 1.78 5.98 3.96.18 2.24-.8 4.3-1.74 6.26-14.37.88-28.78.69-43.17.24.82-1.95 1.75-3.98 1.51-6.15-.47-5.29-1.53-10.51-2.21-15.77-4.38 2.73-8.45 5.92-12.39 9.23-2.2 1.69-2.83 4.49-3.32 7.07-1.23-.59-2.45-1.17-3.68-1.75l-.08-3.19c-1.07.6-2.14 1.19-3.2 1.79-3.13-1.3-6.2-2.75-9.32-4.08 3.7.71 7.91 1.08 11.12-1.32 4.92-3.59 9.78-7.29 14.37-11.31-5.2-2.2-10.39-4.41-15.6-6.57-3.05-1.32-6.7-1.65-9.74-.09-3.99 1.96-6.44 6.63-5.69 11.04.41 3.29 2.82 5.78 5.02 8.05-5.36-1.91-10.76-3.73-16.26-5.16-1.98-.46-3.69-1.58-5.36-2.68-.75-4.36 1.7-8.19 3.98-11.65 1.74-4.33 3.31-8.91 3.04-13.65-.56-15.66-2.04-31.28-2.63-46.94 5.58-.92 11.18-1.67 16.8-2.25-.36 18.71.18 37.45.27 56.17 1.7.03 3.39.05 5.09.07.16-18.88.39-37.76.38-56.64z"/><path fill="#662113" d="M58.46 26.96c5.18 2.46 9.68 6.12 14.91 8.51 16.23 7.86 33.52 14.12 51.51 16.23 1.01.22 1.98.56 2.92 1.01-3.89 7.35-12.28 10.44-19.98 11.93 1.41-3.86 2.83-7.71 4.21-11.58-14.8-2.66-29.1-7.9-42.07-15.5-1.42 3.84-2.82 7.68-4.25 11.51-4.91-6.08-9.61-14.04-7.25-22.11z"/><path fill="#ea596e" d="M65.71 49.07c1.43-3.83 2.83-7.67 4.25-11.51 12.97 7.6 27.27 12.84 42.07 15.5-1.38 3.87-2.8 7.72-4.21 11.58-3.21 8.47-5.44 18.61-14.19 23.19-5.06 2.71-11.08 3.63-16.66 2.17-8.32-2.08-15.12-9.33-16.5-17.81-.16-2.96.59-5.89.35-8.86 1.01-4.91 3.32-9.49 4.89-14.26m21.47 1.16c-2.23 4.92-3.76 10.12-5.74 15.14-1.84 5.9-4.96 11.45-5.82 17.62.63.24 1.88.73 2.51.97 1.03-1.31 1.93-2.73 2.46-4.32 2.99-8.32 6.06-16.6 9.17-24.88.53-1.47 1.04-2.98 1.17-4.56-.74-1.45-3.25-1.81-3.75.03z"/><path fill="#dd2e44" d="M87.18 50.23c.5-1.84 3.01-1.48 3.75-.03-.13 1.58-.64 3.09-1.17 4.56-3.11 8.28-6.18 16.56-9.17 24.88-.53 1.59-1.43 3.01-2.46 4.32-.63-.24-1.88-.73-2.51-.97.86-6.17 3.98-11.72 5.82-17.62 1.98-5.02 3.51-10.22 5.74-15.14z"/><path fill="#3f3f3f" d="M60.07 68.35c.3-1.48-1.05-4.36.75-5.02.24 2.97-.51 5.9-.35 8.86 1.38 8.48 8.18 15.73 16.5 17.81 5.58 1.46 11.6.54 16.66-2.17l2.83.92c-3.7 2.72-7.85 5.09-12.51 5.57-9.02 1.33-18.51-3.35-22.97-11.28-3.02-5.01-3.73-11.1-2.58-16.78zM2.7 78.32c1.67 1.1 3.38 2.22 5.36 2.68 5.5 1.43 10.9 3.25 16.26 5.16l.52.2c3.12 1.33 6.19 2.78 9.32 4.08-2.34 1.31-4.69 2.64-6.84 4.25-1.13-.3-2.26-.59-3.39-.88-.58 3.81-1.15 7.63-1.7 11.45-6.04.01-12.08.02-18.12 0-.01-3.44.2-6.89-.14-10.32-.24-2.46-1.79-4.51-2.33-6.89-.18-3.28.58-6.51 1.06-9.73zM37.44 91.84c1.23.58 2.45 1.16 3.68 1.75.51 3.87 2.86 7.79 6.91 8.68 3.52 1.06 6.95-.77 9.5-3.06 14.39.45 28.8.64 43.17-.24 2.14.69 2.37 4.11.49 5.26-1.82 1.15-4.09.98-6.16 1.06-15.99-.06-31.98.01-47.97-.03-3.85.02-7.03-2.42-10.11-4.41.56-2.97.54-6 .49-9.01z"/><path fill="#5dadec" d="M24.99 67.07c3.04-1.56 6.69-1.23 9.74.09 5.21 2.16 10.4 4.37 15.6 6.57-4.59 4.02-9.45 7.72-14.37 11.31-3.21 2.4-7.42 2.03-11.12 1.32l-.52-.2c-2.2-2.27-4.61-4.76-5.02-8.05-.75-4.41 1.7-9.08 5.69-11.04zM44.44 86.52c3.94-3.31 8.01-6.5 12.39-9.23.68 5.26 1.74 10.48 2.21 15.77.24 2.17-.69 4.2-1.51 6.15-2.55 2.29-5.98 4.12-9.5 3.06-4.05-.89-6.4-4.81-6.91-8.68.49-2.58 1.12-5.38 3.32-7.07zM34.16 90.44c1.06-.6 2.13-1.19 3.2-1.79l.08 3.19c.05 3.01.07 6.04-.49 9.01-.87 3.86-5.5 6.38-9.05 4.26-3.94-1.97-4.21-7.98-.58-10.42 2.15-1.61 4.5-2.94 6.84-4.25z"/></svg>