<svg clip-rule="evenodd" fill-rule="evenodd" viewBox="0 0 386 212" xmlns="http://www.w3.org/2000/svg"><g fill="#010101" fill-rule="nonzero" stroke="#010101" stroke-width=".09" transform="matrix(.92806 0 0 .88513 -.573 -.478)"><path d="m27.76 2.83c9.33-3.06 19.92-2.94 28.78 1.54 2.95 1.49 6.53 3.35 7.05 7 .49 2.84-1.64 5.05-3.17 7.16-6.22.43-12.39-.64-18.58-1.11-.38-.24-1.14-.71-1.52-.95-3.19.03-6.43-.29-9.59.34-3.57 1.11-6.65 3.28-9.88 5.09-3.96 5.59-7.21 12.26-7.27 19.2 1.61 7.58 5.15 15.05 11.12 20.17 7.27 6.05 16.18 9.68 25.07 12.64 8.46 2.75 17.48 2.67 26.1 4.71 12.04 2.98 24.06-2.04 36.16-1.5 4.27-.38 9.04 1.45 12.84-1.2 6.58-3.98 13.47-7.66 21.07-9.21 9.6-1.69 19.48-2.96 29.17-1.25 1.94.41 3.92.14 5.75-.57 8.48-3.32 16.56-7.56 24.95-11.09 7.76-2.46 16.06-4.41 24.22-2.78 5.47 1.3 10.83-1.76 14.65-5.44 5.98-6.22 14.07-9.67 21.76-13.26 6.6-3.11 14.05-4.98 21.36-3.74 3.49.57 6.51 3.72 10.2 2.58 6.47-1.69 13.32-3.65 19.94-1.46 7.48 1.49 12.75 7.26 17.74 12.55 2.77 3.24 4.82 7.12 8.12 9.89 2.41 1.99 5.08 3.65 7.49 5.65 11.17-4.16 22.79-7.2 34.75-7.79 5.91-1.02 11.9.12 17.58 1.8.08.54.22 1.62.3 2.16-2.72 3.88-6.19 7.21-8.59 11.31-2.79 4.75-5.9 9.39-9.89 13.22-2.57 2.5-5.89 3.95-8.86 5.85-1 6-1.76 12.07-4.51 17.58 7.31-.27 14.56-1.36 21.87-1.55 7.44.04 14.73 1.65 22.06 2.71v.38c-4.67-.03-9.32.31-13.93 1-10.08.48-20.15 1.26-30.18 2.32-4.29 2-6.31 6.87-7.2 11.23 1.95-1.98 3.13-4.58 4.68-6.87-.44 2.02-.9 4.03-1.27 6.06 14.9.24 30.4 2.09 43.5 9.73-5.74-.49-11.24-2.34-16.92-3.19-8.83-.78-17.79-1.76-26.6-.2.38 3.32 1.11 6.57 1.66 9.86 7.39 3.7 14.22 8.36 21.2 12.73 3.13 2.36 6.19 4.87 9.91 6.25l-2.52.28c-5.37-2.39-11.24-3.66-16.24-6.83-3.63-2.3-7.54-4.11-11.48-5.79 1.5 5.97 4.1 11.67 4.87 17.82.85 6.04 2.57 11.94 2.84 18.06.03 4.79 2.09 9.72 6.03 12.59 6.26 4.69 13.51 8.43 18.31 14.79 1.87 2.46 1.1 5.65.8 8.46 2.57 5.22.55 11.25-2.09 16.03-.36-.07-1.1-.2-1.46-.27-1.24-3.03-3.37-5.52-6.63-6.42-1.67 4.82-2.24 10.86-6.98 13.79-1.3-3.17-3.08-6.12-5.67-8.4h-1.74c-2.06 4.84-4.9 9.65-9.47 12.51h-1.67c-1.05-3.49-3.09-6.52-5.54-9.18-1.62-.06-3.24-.13-4.86-.18.36 2.68 1.02 5.3 1.57 7.96-1.83-.17-3.79.05-5.46-.85-3.17-1.44-4.72-4.75-6.93-7.23-1.64-1.61-3.68-2.73-5.55-4.03-.49.67-1.47 2.03-1.96 2.7-2.78-1.44-5.67-3.13-7.04-6.09-2.28-3.74-.88-8.16-.61-12.2.61-5.28 6.43-7.22 8.73-11.51.85-5.73 1.22-11.59.8-17.39-.37-7.25-3.32-14.07-3.59-21.34-3.65 1.54-7.18 3.96-11.29 3.9-5.63.01-11.56.44-16.81-1.98-4.81-2.57-7.93-7.49-9.31-12.66-2.24-8.09-8.65-13.94-12.39-21.25-.75-.9-.91-2.79-2.4-2.62-1.05 1.07-.75 2.69-.85 4.04.03 6.05-2.07 11.94-1.36 18.01.07 4.39 2.86 8.1 5.81 11.08 4.7 2.66 10.25 3.09 15.33 4.69 5.72 1.55 11.29 4.72 14.08 10.15 3.02.04 6.13 1.4 7.35 4.33 1.6 5.74-.98 11.51-4.42 16.02-1.36-2.17-2.75-4.32-4.22-6.4-3.97 3.89-4.04 9.97-7.79 14.03-1.27-1.53-2.55-3.05-3.85-4.55-2.07 1.33-4.17 2.6-6.34 3.75-.12.62-.22 1.25-.3 1.89 1.38 1.09 2.75 2.19 4.12 3.31-4.03 2.67-9.08 1.94-13.21-.06-1.19.74-3.28.76-3.42 2.47 1.58 1.34 3.37 2.4 5.1 3.55-4.04 2.08-8.94 3.33-13.34 1.65-2.62-1.14-4.89-2.96-7.46-4.21 0 1.09.01 2.17.04 3.26 1.52 1.08 3.05 2.17 4.56 3.28-6.2 2.63-14.2 2.31-19-2.91-.42-2.38-1.34-4.6-3.03-6.35-3.46-3.85-2.68-9.43-2.08-14.14.51-3.1 3.58-6.63.66-9.36-6.22-7.34-8.5-17.17-7.87-26.61-5.73-4.39-11.77-8.97-15.04-15.6-3.35-6.27-3.56-13.53-4.44-20.42-1.47 9.7.21 20.94 7.47 28.08-3.08 1.45-6.13 2.99-9.32 4.16-20.86 8.67-47.93-1.08-57.6-21.7-2.77-5.87-2.86-12.49-4.7-18.62-1.62 9.97 2.96 19.54 6.71 28.51-.45 2.48-2.29 4.51-3.53 6.66-5.34 8.32-12.27 16.74-22.39 19.01-6.89.55-14.17-.04-20.32-3.5-3.88-1.91-5.63-6.11-8.03-9.45-1.61 1.12-3.1 2.49-4.95 3.2-3.25 1.57-6.22-1.47-9.18-2.45-2.41-.43-1.38-2.96-1.39-4.65-1.64-6.01-4.68-11.83-4.4-18.21 1.44-6.03 2.89-12.23 5.92-17.68 2.51-3.49 6.86-1.6 10.17-.63-.2-5.64.03-11.29 1.35-16.79-8.93-3.31-18.52-3.37-27.88-4.19-13.95 0-28.24-.33-41.52-5.05-4.69-1.96-9.26-4.2-13.79-6.5-5.96-3.14-9.85-8.77-14.44-13.49-3.97-4.74-8.51-9.44-9.89-15.69-2.67-8.12-1.67-16.9.29-25.06 2.99-11.69 13.37-20.66 25.04-23.08m227.55 57.33c-2.24.86-5.88 2.82-4.55 5.73 3.04 5.12 7.13 9.5 10.62 14.31 3.53 4.08 8.02 8.27 13.7 8.61.43.26 1.3.78 1.74 1.04-.25-1.14-.01-2.75-1.46-3.11-5.32-1.84-10.71-4.63-13.57-9.73-2.48-4.51-7.47-7.47-8.37-12.83.62-.38 1.87-1.14 2.5-1.52 8.96-3.14 18.94-2.91 28.03-.43l2.04.28c1.17.68 2.36 1.31 3.58 1.89-.39-1.21-.93-2.35-1.61-3.41-4.96-2.44-10.58-2.55-15.94-3.39-5.61.27-11.31.95-16.71 2.56m126.44-.47c-.94.38-1.88.74-2.83 1.1-5.14 2.64-10.2 6.56-12.62 11.93 1.04-.32 1.84-1.08 2.61-1.82 5.07-5.19 11.78-8.37 18.47-10.93.06-.39.19-1.17.25-1.56-1.97.39-3.92.84-5.88 1.28m-87.29 2.39c-.04.4-.11 1.2-.15 1.61 7.84-3.22 16.83-1.9 23.62 3.07-.91-4.03-5.74-4.58-8.96-5.94-4.87-.81-9.88-.54-14.51 1.26m32.89 2.38c5.46-2.48 11.45-2.51 17.28-3.23-5.94-2.28-12.39-.51-17.28 3.23m-66.61 2.24c4.47 3.92 11.01 2.63 15.8 5.85 1.06.62 2.24.94 3.43 1.25-2.33-1.93-4.69-3.91-7.47-5.14-3.21-.91-6.77-.34-9.77-2.05-.5.02-1.49.06-1.99.09m29.59 23.94c1.73 2.35 2.94 5.36 5.8 6.58-.5-2.65-.02-5.29.36-7.91-2.14.02-4.29.22-6.16 1.33m-34.44-.26c2.47 3.5 6.3 5.58 9.8 7.88 7.61 5.03 16.68 7.18 25.57 8.56 6.09 1.95 12.42 3.32 18.8 3.78-.98-.77-1.9-1.78-3.22-1.89-7.74-1.1-15.32-2.99-22.97-4.53-8.53-3.43-17.67-6.11-24.8-12.18-.9-.83-1.96-1.44-3.18-1.62m43.57.17-.3 4.55c1.14 1.24 2.31 2.47 3.66 3.49 1.64-.03 3.03-1.01 4.53-1.56 1.32-2.56 1.55-6.23-2.02-6.9.01 1.82.07 3.65.03 5.47-1.31.06-2.62.09-3.93.08-.62-2.08.26-3.99 1.25-5.78-1.07.21-2.15.43-3.22.65m41.92 5.68c1.41 1.6 2.94 3.1 4.63 4.41 1.15-.68 2.36-1.28 3.42-2.11 1.53-1.5.93-3.79.93-5.68-.45-.29-1.35-.86-1.8-1.15-1.04-.03-3.11-.08-4.14-.11-1.17 1.44-2.12 3.04-3.04 4.64m13.05 4.09c1.99-1.64 4.03-3.24 6.12-4.75.11-.52.32-1.54.43-2.06-2.15-.56-4.3-1.07-6.4-1.78-1.39 2.73-.07 5.71-.15 8.59m-43.24-7.35c-.3 1.36-.58 2.73-.84 4.09-.93 1.45-1.87 2.88-2.73 4.37 3.99-.56 7.6-2.45 11.13-4.29-2.52-1.4-4.97-2.9-7.56-4.17m19.21 3c.31.59.95 1.77 1.26 2.35 2.59 1.56 5.14 3.42 8.25 3.73-.38-.99-.78-1.96-1.21-2.92-.05-2.12-.01-4.24.03-6.36-2.87.82-5.69 1.82-8.33 3.2m39.35 7.85c-8.83 2.53-17.1 7.11-26.32 8.13l-.28 1.48c.48-.08 1.45-.24 1.93-.31 7.74-1.52 15.19-4.12 22.84-5.97 3.2-1.28 6.56-1.94 10-2.15 3.22-.83 6.55-.58 9.84-.78 4.94-1.02 10-.86 15.01-.8l-.13-1.84c-4.21-.03-8.42.27-12.63.03-6.87-.52-13.38 2.41-20.26 2.21m-120.41 5.33c4.96.67 9.9-.55 14.86-.39 5.29.66 10.58 1.32 15.87 2.03 5.67.97 11.23 2.52 16.94 3.27 3.51.56 7.06 1.97 10.64 1.15-6.93-2.34-14.19-3.35-21.32-4.83-5.1-.96-10.22-2.09-15.45-1.89-3.68.13-7.25-1.13-10.93-.89-3.58.13-7.43-.58-10.61 1.55m63.27-.53c.05 1.26.12 2.52.19 3.78 1.28.2 2.58.45 3.89.38.08-1.3-.12-2.59-.3-3.87-1.26-.1-2.52-.2-3.78-.29m20.79 1.96c-.06 1.06-.11 2.12-.14 3.18 1.29-.04 2.58-.1 3.88-.18l.03-3.24c-1.26.07-2.52.15-3.77.24m-15.08 2.99c-.75 3.72 2.52 7.16 6.31 5.96-1.34-2.69-2.51-6.63-6.31-5.96m9.13 2.91c-1.37 1.33-1.82 3.53.64 4.11 2.29-.9 5.81-1.78 5.48-4.95-2.05-1.23-4.16.2-6.12.84m11.56 1.91c6.89 4.16 15.36 4.11 23.13 4.46-1.12 2.94-2.61 5.71-3.97 8.54-7.49-1.63-14.05-5.58-20.6-9.34l.2 2.15c5.19 5.18 12.49 7.84 19.42 9.88-5.52 5.97-8.61 13.78-14.48 19.46-1.74 1.68-3.41 3.44-4.84 5.39 1.24-.31 2.39-.87 3.15-1.93 6-7.3 13.4-14.04 16.53-23.15 5.62 3.02 12.14 3.73 17.76 6.77 5.88 2.23 10.63 7.56 17.12 7.85-7.5-5.11-15.33-9.77-23.57-13.58-3.15-1.18-6.24-2.82-9.69-2.88 2.23-2.79 3.19-6.29 4.41-9.57 7.11-.1 14.17-1.54 21.3-1.08 4.56.47 9.08 1.25 13.61 1.96-3.95-2.97-8.99-2.55-13.54-3.68-9.23-1.87-18.74-1.43-28.02-.22-6.04.73-11.94-1.37-17.92-1.03m-46.01 2.03c-6.97-.02-13.62 2.36-20.18 4.41a46.452 46.452 0 0 0 -16.59 9.2l.16.89c4.66-2.14 9.12-4.68 13.8-6.78 12.59-4.98 26.19-6.07 39.47-7.98-5.31-1.83-11.18.06-16.66.26m15.92 2.98c-.24.43-.74 1.28-.99 1.7-1.04 3.26-1.32 7.32 1.16 10.02.73-2.77.71-5.64.56-8.47.64-.27 1.93-.79 2.57-1.05.44 1.59-.5 4.27 2.19 4.28.02-.89.07-2.67.09-3.56.51-.18 1.54-.53 2.06-.7-.12.8-.34 2.41-.46 3.21 2.09.5 2.5-1 2.56-2.73l2.1-.08c0 .96.01 2.9.01 3.86 2.12.07 2.35-1.95 2.95-3.48.36.04 1.09.11 1.46.15.07 1.63.3 3.24.68 4.83.94-1.41 1.68-2.93 1.83-4.64l1.34.16c-.41 1.73-.01 3.29 1.2 4.7.13-1.03.39-3.07.51-4.1.7-.85 1.39-1.71 2.08-2.57-2.33-.22-4.7-.27-6.93-1.03-5.63-.81-11.32-.14-16.97-.5m23.45 3.72c.1 3.14.7 6.24 1.28 9.33 1.83-2.6 2-5.75 1.82-8.83-1.04-.18-2.07-.35-3.1-.5m-27.4.66c-.52 2.78-2.35 5.68-.82 8.47.8 2.57 2.38 4.78 4.17 6.77.47-2.31.27-5.09 2.46-6.6 1.08 2.29 2.06 4.61 3.21 6.87.5-.63 1.5-1.9 2-2.53l2.08 2.28c.52-.52 1.55-1.57 2.06-2.09.64.89 1.28 1.79 1.93 2.69.52-.53 1.57-1.57 2.1-2.1.53.67 1.6 1.99 2.14 2.65 1.37-1.59 1.96-3.61 2.68-5.54.83-.36 1.67-.71 2.52-1.05.11 2.42.5 4.82 1.14 7.17 3.44-3.44 4.84-8.17 5.52-12.86-.35-.65-.7-1.29-1.04-1.93-1.09 2.67-.72 7.52-4.24 8.1-.72-2.17-.37-4.49-.52-6.72l-3.28.84c-.29-.4-.86-1.2-1.14-1.6-.52.37-1.54 1.11-2.05 1.48-.67-.9-1.33-1.8-1.99-2.7-.92.71-1.84 1.42-2.75 2.14-.5-.68-1.5-2.04-2-2.71-.56.55-1.68 1.67-2.25 2.23-.22-.4-.67-1.18-.89-1.57-.95.47-1.88.94-2.82 1.41-.73-.8-2.19-2.38-2.92-3.18-.05 2.65.37 5.27.43 7.9-4.33.46-4.37-4.98-5.73-7.82m4.76 10.05-.16 4.23c.85 1.58 1.77 3.22 3.43 4.09-.1-3.09-.76-6.24-3.27-8.32m20.62.81c-1.51 2.58-2.7 5.33-3.94 8.05.89-.04 1.79-.07 2.69-.11.72-2.58 2.42-5.22 1.25-7.94m-25.52 3.67c.6 1.57.94 3.42 2.29 4.57 3.15 2.43 7.37 1.47 10.97 2.67 5.95 1.51 13.78 1.16 17.35-4.63-9.52 4.73-22.51 5.09-30.61-2.61m10.94-.24-1.51 4.34c3.72 1.1 7.61.79 11.44.95-.48-1.48-.98-2.95-1.5-4.4-.83.89-1.66 1.78-2.47 2.68-.59-.82-1.18-1.64-1.75-2.46-.53.54-1.6 1.63-2.14 2.17-.69-1.1-1.37-2.2-2.07-3.28m.75 39.99c1.32 1.73 2.6 3.49 3.91 5.23 2.73-1.76 2.2-5.4 2.37-8.19-.11-2.25-2.69-3.13-4.61-2.84-2.66.49-1.62 3.86-1.67 5.8m-14.73 5.12c.84 3.77 4.03 6.22 6.82 8.57 1.31-2.38 1.19-5.22.67-7.8-.87-1.55-2.76-1.83-4.22-2.55-1.09.6-2.18 1.2-3.27 1.78m-14.24 6.26c-.09 1.67-.58 3.43.07 5.04 1.73 2.33 4.42 3.65 7.14 4.46-.49-3.18-1.3-6.31-2.32-9.35a99.79 99.79 0 0 0 -4.89-.15m-13.1 7.87c-.11 1.54-.35 3.09-.15 4.64 1.38 2.79 4.69 3.81 7.56 4.3-.67-2.6-1.37-5.22-2.56-7.63-1.03-1.74-3.18-1.27-4.85-1.31m-15.05 8.13c.75.64 1.49 1.28 2.24 1.93 1.31.31 2.62.64 3.93.98-.29-3.3-.55-7.5-4.55-8.28-1.24 1.55-1.87 3.38-1.62 5.37m132.89 5.88a20.82 20.82 0 0 0 8.06 4.61c.14-2.03.14-4.07.05-6.11-1.1-1.19-2.23-2.35-3.35-3.51-3.12-.54-4.5 2.36-4.76 5.01m-56.75-1.43c-.15 2.68-.25 5.43 1.03 7.89.38-.04 1.13-.13 1.5-.17 2.15-2.98 5.36-5.92 4.48-9.98-2.72-.84-5 .57-7.01 2.26m47.44 3.47-1.76 1.76c-.03 3.99 4.2 5.82 6.96 7.93.39-2.44.52-4.9.4-7.35-1.59-1.44-3.33-2.78-5.6-2.34m-32.34 2.97c-.67 1.58-1.39 3.15-2.09 4.73 1.14 2.55 2.68 4.91 4.55 7.01-.06-4.15 2.05-7.77 3.43-11.55-1.87-1.13-4.02-1.61-5.89-.19m15.94 3.3c-1.44 3.9 1.71 7.3 3.41 10.52 2.09-2.42 3.74-5.18 4.46-8.33-.74-1.54-1.42-3.24-2.95-4.18-1.95-.37-3.73.49-4.92 1.99z"/><path d="m344.3 93.65c1.39-.19 2.86-.71 4.19.08.08 1.17-.01 2.36-.06 3.53-1.25 0-2.5-.01-3.74-.03-.15-1.2-.28-2.39-.39-3.58z"/></g></svg>