<svg xmlns="http://www.w3.org/2000/svg" width="200" height="200" viewBox="0 0 150 150"><path fill="#2667ff" d="M71.88 0h6.44c14.94.8 29.71 5.91 41.63 15.01 17.92 13.13 29.01 34.74 30.05 56.86v6.44c-.85 14.92-5.84 29.68-14.96 41.57-13.13 17.97-34.76 29.08-56.92 30.12h-6.44c-14.74-.78-29.26-5.77-41.1-14.61C12.37 122.27 1.01 100.48 0 78.11v-6.43c.6-9.08 2.48-18.13 6.22-26.45C17 19.16 43.79 1.09 71.88 0M7.48 58.43c.06 8.43 0 16.87.03 25.3h4.09l.03 4.22c7.12-.01 14.24 0 21.35 0l.03-4.22h3.98c.02-4.53.01-9.06.01-13.6h-3.99c-.01-1.37-.02-2.75-.02-4.12-5.61 0-11.21.01-16.82-.01 0-2.58 0-5.16-.01-7.74-2.89-.06-5.79-.07-8.68.17m79.81-.18v7.76c-2.77 0-5.53 0-8.29.01V71h8.29c.02 5.64-.05 11.28.05 16.91 3 .05 6.01.05 9.02.03.14-5.65.04-11.29.07-16.94h8.52c-.01-1.66-.01-3.32-.01-4.98-2.84 0-5.69-.01-8.53-.05.02-2.57.02-5.14.03-7.71-3.05-.01-6.1-.01-9.15-.01m33.78 0c-.01 2.58 0 5.17-.01 7.76H113V71h8.06c.02 5.65-.01 11.29.02 16.94 3 .01 6 .01 9 0 .04-5.64.01-11.29.02-16.94 2.76 0 5.53 0 8.29-.01v-4.97c-2.76-.01-5.53-.01-8.29-.02v-7.75h-9.03M41 66.01c0 5.91-.01 11.81.01 17.72h4.03l.03 4.2c8.64.03 17.28.02 25.92.01.02-7.31.01-14.62 0-21.92-2.98-.01-5.96-.01-8.94 0-.01 5.67.01 11.33-.01 17-4.01.01-8.02.01-12.04 0-.01-5.67.01-11.34 0-17.01h-9z"/><path fill="#2667ff" d="M16.17 71h11.96c.01 4.01.01 8.01 0 12.02-3.98.01-7.97.01-11.96 0V71z"/><path fill="#e4ff00" d="M7.48 58.43c2.89-.24 5.79-.23 8.68-.17.01 2.58.01 5.16.01 7.74 5.61.02 11.21.01 16.82.01 0 1.37.01 2.75.02 4.12H37c0 4.54.01 9.07-.01 13.6h-3.98l-.03 4.22c-7.11 0-14.23-.01-21.35 0l-.03-4.22H7.51c-.03-8.43.03-16.87-.03-25.3M16.17 71v12.02c3.99.01 7.98.01 11.96 0 .01-4.01.01-8.01 0-12.02H16.17zm71.12-12.75c3.05 0 6.1 0 9.15.01-.01 2.57-.01 5.14-.03 7.71 2.84.04 5.69.05 8.53.05 0 1.66 0 3.32.01 4.98h-8.52c-.03 5.65.07 11.29-.07 16.94-3.01.02-6.02.02-9.02-.03-.1-5.63-.03-11.27-.05-16.91H79v-4.98c2.76-.01 5.52-.01 8.29-.01v-7.76zm33.78 0h9.03V66c2.76.01 5.53.01 8.29.02v4.97c-2.76.01-5.53.01-8.29.01-.01 5.65.02 11.3-.02 16.94-3 .01-6 .01-9 0-.03-5.65 0-11.29-.02-16.94H113v-4.99h8.06c.01-2.59 0-5.18.01-7.76zM41 66.01h9c.01 5.67-.01 11.34 0 17.01 4.02.01 8.03.01 12.04 0 .02-5.67 0-11.33.01-17 2.98-.01 5.96-.01 8.94 0 .01 7.3.02 14.61 0 21.92-8.64.01-17.28.02-25.92-.01l-.03-4.2h-4.03c-.02-5.91-.01-11.81-.01-17.72z"/></svg>