<svg viewBox="111.93 79.12 576.47 984.95" xmlns="http://www.w3.org/2000/svg"><path d="m452.29 277.61c.04.02.1.06.14.08l-.07-.04zm2.95 1.98c.06.04.19.11.26.15l-.14-.06zm169.29 12.7c.03.03.08.11.11.14-.03-.03-.08-.11-.11-.14zm3.01 4.92c.05.05.14.17.19.22l-.11-.11zm-448.31 25.58.33-.49-.09.3zm-5.9 5.54c.02-.02.07-.05.09-.07-.02.02-.07.05-.09.07zm340.33 143.36c4.94-5.47 9.8-11.24 16.17-15.12 5.45 2.27 11.46 1.26 17.2 1.5 10.18-.06 20.4 1.14 30.17 4.04 5.79 1.92 11.15 4.98 15.53 9.25 1.32 3.18 3.42 6.06 4.01 9.51 1.91 7.59-.95 15.46-5.04 21.78-3.39 3.44-7.41 6.44-11.96 8.12-5.2 1.18-10.4 2.66-15.77 2.69-4.75.06-9.45-.78-14.05-1.88-3.11-.81-6.54-.29-9.41-1.96-4.65-2.48-9.89-3.88-14.13-7.11-4.53-3.58-10.28-6.07-12.81-11.61-.95-2.98-2.11-5.91-2.72-8.98.31-3.53 1.65-6.92 2.81-10.23m42.62 15.37c.4 5.74 6.07 10.47 11.76 10.06 5.57-.9 9.64-5.93 9.89-11.48-2.81.09-5.49-.6-7.8-2.21.44-2.38 2.17-3.82 4.35-4.58-1.47-1.03-2.87-2.24-4.59-2.8-6.63-2.29-14.45 4.08-13.61 11.01zm-231.49-25.43c3.41-1.36 6.76-2.89 10.31-3.86 4.12 3.45 5.83 8.69 9.55 12.48 3.73 3.89 6.17 8.85 8.05 13.85 1.17 7.08 1.86 15.52-3.29 21.28-5.02 6.84-13.99 8.09-21.65 10.08-17.33 4.09-36.53 5.16-52.86-3.08-6.32-2.57-11.41-7.59-14.72-13.48 1.27-4.87 2.73-9.88 5.82-13.94 2.54-2.76 5.2-5.45 7.39-8.51 1.65-2.48 4.5-3.69 6.93-5.27 4.17-.2 7.63-2.91 11.66-3.74 5.96-1.41 11.98-2.73 18.1-3.18 4.94-.65 10.01-.81 14.71-2.63m-10.72 19.44c-1.77 2.32-3.77 4.94-3.5 8.05-.09 3.11 1.74 5.79 2.92 8.55 3.47.9 7.11 2.56 10.71 1.25 5.24-1.14 8.21-7.62 6.36-12.45-.69.26-2.06.79-2.74 1.05-1.78-1.17-3.85-2.28-3.57-4.74 1-.64 2-1.28 3-1.91-3.86-2.88-9.4-2.7-13.18.2zm-39.49-11.34.12-.08-.06.04zm-150.27 25.66c-.77-1.39 1.4-3.61 2.8-3.22-.34 1.45-1.24 2.88-2.8 3.22zm178.2 187.47c.09-.05.26-.16.34-.21l-.15.14zm183.88 53.21c7.63-1.89 16.02-.94 23.52 1.64-.6 4.25-.85 8.54-1.46 12.78-7.21.69-14.5.17-21.71-.17-2.44-4.21-.22-9.6-.35-14.25zm-78.58 2.57c10.42 1.11 20.78 2.6 31.22 3.49 1.12-.16 2.25-.3 3.38-.43-.37 2.77.13 6.4-2.21 8.4-10.81 1-21.77.82-32.6.05-.92-3.81.12-7.68.21-11.51zm39.4 3.21c11.18-.13 21.86-3.93 33-4.56-.24 3.67.47 7.55-.97 11.05-2.98 2.77-7.5 2.02-11.24 2.14-6.84-.31-13.72 1.39-20.5-.05-.43-2.84-.47-5.72-.29-8.58zm-75.95 8.12c9.37-6.16 19.9-11.93 31.48-11.41-.32 3.14-.54 6.3-.53 9.47-.24.62-.74 1.86-.98 2.49-9.97.36-20.11 1.27-29.97-.55zm143.61-10.8c3.48 1.45 6.65 3.51 9.71 5.71-.45 1.93-.97 3.85-1.46 5.79-3.13.41-6.3.36-9.44.2.37-3.91 1.09-7.78 1.19-11.7zm-170.24 60.12.08.12z" fill="#fff"/><g fill="#100b06"><path d="m440.54 80.74c3.69-2.28 8.59-2.18 12.06.49 1.3.79 2.59 1.62 3.84 2.51 3.87.16 4.1 5.53 8 5.89.94 1.18 1.93 2.34 2.91 3.52 1.41-.48 2.83-.98 4.28-1.38 3.44-3.28 7.93-5.11 11.89-7.67.96-.08 1.93-.17 2.9-.25 3.41-1.89 8.23-1.01 10.87 1.89 3.95 4.18 8.16 8.11 12.11 12.3 3.02.1 6.04-.01 9.06-.14 1.86-1.13 3.96-1.79 6.11-2.13 3.79-2.75 8.58-1.57 12.93-1.75.61.41 1.82 1.24 2.42 1.66.03.48.09 1.43.11 1.9 3 .98 4.03 4.21 6.2 6.19 2.45 2.71 5.81 4.38 8.14 7.23 2.39 0 4.78 0 7.18-.02 1.32-.81 2.67-1.59 4.02-2.39 3.41-1.59 7.33-.26 9.91 2.25 3.81-.47 5.72 3.42 9 4.59 3.06 2.71 7.36 4.11 9.37 7.85 1.46.83 3.27 1.11 4.4 2.47 3.23 3.42 7.07 6.34 9.52 10.41.64 1.03 1.76 1.61 2.73 2.3 4.42 5.39 8.8 10.87 12.22 16.97 3.29 6.46 9.52 11.71 10.47 19.16.83 1.61 1.63 3.23 2.53 4.82 2.35 4.22 3.85 8.83 6.03 13.13.72 1.69 1.34 3.42 2.01 5.14.11.46.32 1.38.43 1.84.99 2.03 1.7 4.18 2.7 6.22.09 1.87.12 3.75.16 5.63.44-.14 1.3-.43 1.74-.58-.24 1.14-.71 3.43-.95 4.58.46-.13 1.39-.38 1.85-.51-1.32 2.78.74 5.69.5 8.6.4 1.01.77 2.02 1.13 3.05.44 1.95.66 3.94.91 5.93 3.02 11.77 4.83 23.88 5.94 35.97 1.27 5.74 2.01 11.69 1.83 17.61-.08 5.02 1.12 9.97 1 15 .17 2.53-.51 5.25.75 7.6 1.42 6.4.71 13.03 1.67 19.49.86 7.38.37 14.83.72 22.25 2.1 6.93-.2 14.46 1.54 21.53.61 13.04.19 26.11.33 39.16.17 2.52-.56 5.27.75 7.59.49 7.3-.47 14.68.57 21.94-.24.94-.48 1.88-.7 2.84.3.28.91.83 1.21 1.11-.36.35-1.08 1.05-1.44 1.39 2 .07 4.02.16 6.03.37 1.63 1.5 3.4 2.86 5.13 4.28.26-.18.8-.54 1.07-.72.41 4.12 4.31 6.92 6.24 10.45l1.08-.61c-.83 3.74 1.33 7.47 1.73 11.25l-.62.12c1.78 8.1.16 16.47 1.31 24.6-.17.21-.49.64-.65.85-1.25 4.29.1 8.95-1.49 13.1-.25 1.67-.29 3.41-1.03 4.98-.56 4.38-.65 9.15-3.06 13-.16 2-.07 4.09-.9 5.98-.25 1.66-.4 3.37-.94 4.98-.32 1.37-.37 2.85-1.21 4.05-.06 1.98-.43 4.08.5 5.94-1.33 2.16-1.41 4.78-2.45 7.07-.15 3.8-.34 7.62-1.3 11.33l1.36.07c-.78.93-2.16 1.6-2.11 3-.52 3.84-1.57 7.58-2.39 11.37-1.52 3.35-3.72 6.52-6.57 8.87-4.1 2.27-7.43 5.93-12.15 6.97-.11 1.04-.22 2.08-.32 3.13-1.03 3.56-1.03 7.6-.15 11.2-1.29 2.27-.87 4.98-1.18 7.48-.19 6.03-1.78 11.91-1.36 17.98.43 6.85-2.29 13.86-.46 20.59-1 1.2-1.56 2.74-1.49 4.32-.06 4.6-.06 9.23-.83 13.79-.11 2.64-.99 5.65.61 8.04-.45.35-1.35 1.06-1.8 1.41.09 3.78-.27 7.59.37 11.33-.72 5.48-.18 11.06-1.3 16.5.13 5.21-1.55 10.42-.69 15.56-1.42 3.5-1.22 7.35-2.09 10.99-.65 2.66.28 5.64-1.17 8.11.07 6.83-.87 13.6-1.95 20.33-.65 3.87.06 8.13-2.06 11.64.13 7.12-1.39 14.16-3.34 20.97-1.34 1.7-.88 3.96.3 5.62-.51-.12-1.54-.36-2.06-.48.09 3.95.25 8.11-1.79 11.67-3.01 9.3-6.51 18.49-10.99 27.19l.47.93c-.74 1.56-1.44 3.14-2.19 4.7-.05.22-.14.66-.18.88-.92.74-1.38 1.71-1.4 2.92-.51 4.57-2.89 8.84-2.61 13.52-1.68 3.11-2.44 6.59-2.88 10.07-.33.02-.99.04-1.32.06.13 3.7-.25 7.47-1.9 10.84-.09 2.67-1.56 5.36-.73 8.02-1.48 5.62-2.23 11.42-4.09 16.94-.52 1.07-.43 2.11.26 3.11-.84.9-1.44 1.99-1.97 3.1l1.32.56c-1.25 1.17-2.07 2.67-2.86 4.18-.17 1.7-.34 3.43-.83 5.1-.33 1.33-.63 2.68-1.06 4-.26 2.43-.82 4.85-2.06 6.99-.6 4.41-.98 9.06-3.11 13.05.34 5.01-.85 9.84-2.07 14.65-.93 1.07-1.03 2.47-1.18 3.84-.41 3.98-1.9 7.74-3.22 11.5-3.31 1.28-5.46 4.74-6.95 7.84-1.69.01-3.17 1.56-3.02 3.26-1.89-.21-3.16 1.58-3.25 3.31l-1.12-.91.22.98c-3.28 2.19-5.48 5.59-8.86 7.65-1.11 1.22-3.73 2.14-2.74 4.24l-1.47-.48c-3.44 2.1-5.8 5.51-9 7.86-7.05 2.89-11.8 9.17-18.58 12.51-1.63 1.45-5.79.85-5.03 3.93-4.19-.34-7.22 3.77-11.23 4.66.15.36.44 1.06.58 1.42-1.77-1.31-2.96.53-4.35 1.17-3.17 1.83-6.67 3.58-10.46 3.01.68.54 1.36 1.1 2.04 1.66-.95-.14-1.89-.3-2.81-.48-6.63 3.89-14.2 5.82-21.08 9.18-1.08.06-2.08.4-3.03.89-1.14-.06-2.13.39-2.95 1.16-3.93.33-7.65 1.83-11.62 1.75-3.43.86-6.83 1.97-10.41 1.98.19.51.58 1.52.77 2.03-.49-.3-1.47-.9-1.95-1.19-4.82.56-9.53 1.9-14.36 2.35-10.28 1.21-20.64.46-30.95.67-11.9.48-23.61-2.02-35.25-4.07-.99.45-1.98.89-2.98 1.34l.95-1.81c-5-1.22-10.14-1.47-15.22-2.02-5.35-2.78-11.63-3.19-16.94-6.18-1.02-.3-2.03-.63-3.03-.98-4.39-.58-7.72-3.74-12.07-4.5-1.3-.61-2.63-1.11-3.94-1.67-.98-.09-1.97-.17-2.95-.23-1.59-.98-3.27-1.81-4.94-2.63-1.1-.52-2.19-1.05-3.28-1.55-4.56-1.83-8.4-5.04-12.94-6.98-.97-.54-1.92-1.08-2.87-1.62l-1.92-.2c-4.21-3.38-9.05-5.88-13.32-9.17-1.86-1.48-3.19-4.01-5.85-3.94-2.71-2.71-6.51-4.31-8.44-7.75-.98-1.76-2.49-3.11-4.13-4.22-3.28-2.3-5.91-5.36-8.7-8.19.14-2.45-1.96-3.84-3.43-5.44-2.35-2.15-3.94-4.93-5.55-7.62-.78-2.09-1.52-4.19-2.42-6.21-3.2-3.96-2.53-9.22-4.52-13.69l-.64-.04c-1.54-4.74-2.51-9.67-4.37-14.3-.25-1.35-.42-2.71-1.04-3.93-.1-.47-.29-1.4-.39-1.87-1.78-2.41-1.33-5.58-2.66-8.15-.07-.69-.2-2.05-.27-2.74l-1.93.6c1.79-1.84.22-4.11.13-6.21-.17-1.82-.13-3.64-.22-5.45-.95-1.49-.85-3.3-1.07-4.95-.45.15-1.34.46-1.79.62.88-1.43 1.11-3.05.96-4.68-2.36-2.9-.95-7.36-3.67-9.92 1.59-2.91-.96-6.09-1.01-9.14l-.68-.84c.38-1.38.56-2.84.15-4.21-1.32-5.67-2.24-11.42-2.94-17.18-.04-1.17-.76-2.03-1.57-2.75 1.31-1.27.47-3.07.44-4.58-.33-3.07-.39-6.52-2.91-8.72-2.18-3.86-4.32-7.74-6.5-11.59-3.01-4.35-3.89-9.67-6.15-14.36-.1-1.29-.16-2.56-.24-3.81-.7-2.04-1.3-4.09-2.01-6.1-3.06-15.45-6.18-30.99-7.05-46.76-1.53-4.92-1.45-10.15-2.1-15.21-1.13-7.92-1.75-15.9-1.98-23.89.33-4.86-.68-9.67-.73-14.51-.1-2.86.22-5.77-.56-8.55-.93-3.95.02-8.06-.95-12-1.03-4.29.41-9.14-2.19-13 1.57-1.83.45-4.43.6-6.57-1.13-7.06-.92-14.22-.96-21.34-1.64-1.14-1.56-3.33-2.36-4.97.47-5.69-2-11.26-3.67-16.62l-.12 1.41c-3.77.17-7.63.84-11.34-.1l-1.06-1.39c-.57.2-1.71.61-2.28.81-3.48-2.1-6.87-4.32-10.11-6.76-4.01-2.49-4.44-7.57-6.27-11.5-.78-1.07-1.68-2.07-2.17-3.3-2.5-6.49-4.16-13.28-6.73-19.74-.69-3.64-2.34-7.08-1.98-10.87-3.05-6.79-6.13-13.63-8.17-20.81l-1.96.44 1.13-1.54c-.44-1.05-.84-2.1-1.19-3.16-1.43-2.8-2.72-5.71-2.95-8.89-1.45-2.73-.45-5.96-.83-8.91-1.43-1.93-.79-4.41-.93-6.62.2-5.84-.5-11.78.78-17.53.51-3.01-.21-6.16.95-9.05.51-1.09.07-2.19-.31-3.23.36-.31 1.07-.95 1.43-1.27.34-4.24 2.78-7.8 4.41-11.61 1.95-4.03 5.88-6.36 9.31-8.97 2.42-.48 4.91-.49 7.35-.91-.41-1.73-.72-3.47-1.31-5.14.17-.2.52-.59.7-.79-.98-3.95-.02-8.35-1.84-12.03 1.42-4.99.19-10.46.46-15.63-2.45-10.26 1.04-21.32-2.63-31.29.57-.78.86-1.63.88-2.55-.06-12.69-.24-25.4.15-38.08 1.56-7.87-.01-15.95 1.02-23.86 1.05-3.6.56-7.37.67-11.05-.11-6.73.99-13.37 1.35-20.07.36-2.21.44-4.56 1.54-6.55.53-4.31-.74-8.92.99-13 .04-2.58.75-5.43-.9-7.68.48.18 1.43.55 1.91.74-.29-5.54 1.31-10.92 1.11-16.44-.03-2.87 1.05-5.58 1.29-8.42 1.18-4.28 1.12-8.85 2.46-13.13.31-1.65.59-3.31 1.01-4.94.58-2.71 1.19-5.42 1.98-8.07.13-.47.4-1.41.53-1.88.99-2.24.68-4.77 1.43-7.08 1.01-3.36 1.38-6.96 3.11-10.06.1-.46.3-1.4.41-1.86 1.48-2.46.18-5.51 1.43-8.07.33-1 .68-2 1.04-2.99.3-1.02.65-2.02 1.02-3.01.72-3.84 2.21-7.48 4.04-10.92.29-1.03.6-2.05.94-3.05.46-1.39 1-2.74 1.57-4.08 1.46-3.34 2.77-6.76 4.59-9.93-.42-3.08 1.4-5.43 2.95-7.86.46-1.08.96-2.14 1.45-3.2.5-.95 1-1.89 1.48-2.84.74-1.49 1.41-3.05 2.52-4.31 2.16-2.32 2.94-5.63 5.48-7.64 2.21-2.42 5.81-1.4 8.7-1.83 1.17-.42 2.36-.8 3.56-1.13.01-.5.05-1.5.06-1.99 2.64-1.04 3.47-3.81 4.74-6.08.69-2.21 2.94-4.65 1.2-6.89.41.12 1.24.37 1.66.49 1.44-2.31 2.77-4.97 5.34-6.22 2.39-1.5 5.32-.95 7.99-1.03 5.84.23 11.7.51 17.53-.07 2.23-2.03 5.05-3.17 7.54-4.81 2.24-1.1 4.11-3.02 6.67-3.37 1.92-2.1 4.05-3.97 6.41-5.56 4.36-3.81 8.28-8.1 12.37-12.2 3.71-.02 7.69-.55 10.9 1.76 1.02.28 2.03.59 3.04.92 1.05.37 2.09.78 3.13 1.23 3.28.14 6.56.17 9.85 0 1.42-.79 2.95-1.44 4.55-1.78 2.82-.43 4.85-2.7 7.56-3.43 3.71-2.34 7.47-4.6 11.1-7.06 1.52-1.37 3.22-2.52 4.93-3.64 3.38-.13 6.92-.14 9.87 1.78 2.75.45 5.45 1.17 8.06 2.16 2.29.07 4.6.07 6.91.01 1.99-1.69 4.66-1.96 6.93-3.11-.1-.36-.31-1.08-.42-1.43.43-.04 1.3-.11 1.73-.14 4.57-2.68 8.64-6.12 13.02-9.09 2.88-.44 5.83-.11 8.75-.16 5.21 2.82 8.86 9.51 15.41 9.1 4.1-1.83 7.45-5.06 11.58-6.9 1.36-.55 2.74-1.1 4.13-1.59 2.87-1.1 6.12-.8 9.02.09 1.37.27 2.84.34 4.05 1.15 3.02.1 6.3.84 9.11-.62l1.74-.51c1.03-.36 2.07-.7 3.12-1.03 1.64-.73 3.3-1.41 5.01-2 .97-.34 1.96-.67 2.96-.97m-13.63 10.31c-6.57 1.8-12.89-2.5-19.47-1.47-3.65.89-6.8 3.06-9.99 4.95-2.66 1.53-5.16 3.92-8.47 3.59-8.06.86-11.93-8.17-19.14-10.01-1.79-.08-3.02 1.52-4.37 2.45-6.2 5.31-13.53 9.47-21.46 11.49-7.69 1.92-14.73-2.76-22.08-3.9-6.11 2.75-10.11 8.95-16.52 11.36-6.86 2.52-14.01 5.37-21.46 4.91-6.06-.32-11.59-4.79-17.77-3.11-3.44 2.11-5.3 5.94-8.21 8.66-2.8 3.03-6.85 4.35-9.91 7.04-4.26 3.96-9.53 6.55-14.56 9.35-8.05 3.19-16.8.16-25.11 1.3-2.13.21-2.38 2.81-3.29 4.34-2.2 6.23-5.85 12.04-11.01 16.23-3.08 2.57-7.44 1.51-10.98 2.92-1.66.7-2.21 2.56-2.95 4.04-2.98 7.13-7.39 13.55-10.16 20.77-3.23 6.28-4.1 13.41-7.2 19.75-4.04 12.21-9 24.33-10.2 37.24-6 25.65-10.27 51.73-12.46 77.98.02 15.06-1.61 30.04-2.01 45.08-1.34 33.15-.5 66.36 1.63 99.46.38 6.23.18 12.47.42 18.71 4.41 1.71 8.79-1.26 12.16-3.87 3.07-2.71 6.69-4.65 9.93-7.12 1.81-1.5.82-4.22 1.1-6.25.52-46.66 1.91-93.3 2.37-139.95 3.02-1.93 6.51-3.46 8.58-6.53 4.4-6.37 6.92-13.77 10.61-20.54 2.88-5.26 5.62-10.62 7.68-16.26 1.58-4.57 3.24-9.14 5.54-13.4 1.36-2.97 5.05-3.15 7.6-4.62 9.08-4.88 18.35-9.79 25.65-17.21 4.73-5.25 11.03-8.93 15.15-14.77 1.46-1.72 3.08-4.69 5.76-4.03 11.07 2.32 23.23 5.93 34.02.62 2.69-2.07 4.68-4.9 6.88-7.46 9.28 2.41 19.22 4.59 28.69 1.98 3.91-.9 6.18-4.45 9.35-6.55 4.76.54 9.1 2.81 13.8 3.67 6.07 1.21 12.59 2.84 18.63.6 2.38-.8 3.63-3.15 5.45-4.72 5.89-.34 11.01 3.56 16.84 3.81 6.77.8 12.69-3.91 17.03-8.59 5.25 4.75 12.33 5.92 19.04 7.19 6.91.49 13.55-3.12 18.01-8.22 2.34 2.63 4.57 6.1 8.43 6.4 8.02.76 16.19-.5 23.58-3.73 3.52 3.88 8.38 6.28 13.3 7.91 6.74 1.57 13.52-.99 19.68-3.56 2.5-.75 5.34-2.16 7.9-.89 5.05 2.16 10.26 5.36 15.99 4.22 4.07-.43 7.58-2.63 11.41-3.85 2.76.66 5.15 2.37 7.82 3.33 7 2.94 14.88 2.27 22.11.61 1.48-.14 3.07-.85 4.53-.24 2.75 3.3 4.45 7.47 7.88 10.22 4.41 3.58 9.47 6.83 15.23 7.54 4.76.84 9.6.33 14.34-.35 1 10.3 3.93 20.21 7.13 30 1.57 8.3 6.97 14.96 11.03 22.13 4.31 7.75 9.71 14.89 15.84 21.28.66 11.98.87 24 .77 36.01.87 29.04 2.21 58.07 3.71 87.08 3.79 1.53 7.48 3.36 10.62 6.03.32-25.69-.43-51.35-1.29-77.02-.16-11.01.12-22.05-.8-33.04-2.35-32.46-5.38-64.95-11.64-96.92-1.07-14.45-5.64-28.36-11.18-41.67-1.51-3.06-2.95-6.16-3.68-9.51-.99-4.37-4.08-7.81-5.83-11.85-1.96-4.61-5.45-8.36-7.36-12.99-2.38-5.47-7.04-9.4-10.53-14.12-1.57-2.06-2.5-4.63-4.6-6.25-4.23-3.45-8.18-7.26-11.79-11.35-2.65-3.27-7.04-4.13-10.1-6.89-4.2-3.76-9.23-6.33-14.3-8.68-3.67 3.46-9.02 5.67-13.97 3.76-3.52-2-6.86-4.34-10.13-6.72-3.98-2.77-5.07-8.11-9.12-10.77-9.12-1.03-16.75 7.09-25.93 5.2-5.63-3.32-9.76-8.56-14.42-13.04-1.8-1.3-3.79-3.94-6.27-2.7-5.35 2.86-10.54 6.04-15.76 9.15-2.96 1.92-7.05 1.73-9.71-.64-4.6-3.95-8.37-9.25-14.02-11.78-8.09-1.41-14.61 4.83-22.01 6.78m-36.72 136.12c-6.63.69-12.85-2.07-19.1-3.78-2.55 2.4-5.29 4.92-8.95 5.31-9.91 1.77-19.69-1.83-29.12-4.37-4.2 2.1-7.53 6.17-12.5 6.5-8.17.33-16.51.66-24.45-1.64-5.32 2.4-9.05 7.7-15.01 8.75-9.5 2.12-19.24-.41-28.27-3.38-2.69 2.41-4.85 5.29-7.08 8.09-4.95 3.63-9.49 7.81-13.56 12.4-2.23 2.64-5.75 3.52-8.34 5.73-5.91 4.93-12.65 9.33-20.31 10.83-3.29 8.86-8.63 16.84-11.19 25.98-1.44 2.87-3 5.69-4.35 8.61-2.61 5.46-6.61 10.25-8.4 16.1l-.33.49c-2.14 1.6-4.02 3.5-5.81 5.47-.02.02-.07.05-.09.07-.95.81-1.92 1.58-2.92 2.33-1.03 46.48-1.58 92.97-2.66 139.44 4.57-2.76 9.26-5.42 13.31-8.94 1.96-1.72 4.35-2.8 6.79-3.65 3.06-1.21 5.2-3.82 7.91-5.57 3.54-2.29 7.14-4.5 10.98-6.25-.4-5.83-.36-11.72.54-17.5.93-3.23 3.12-6.11 5.88-8.01 4.04-2.73 9.09-1.93 13.66-2.68 6.04-.98 12.11-1.85 18.22-2.33 3.42-.18 5.61-3.13 8.35-4.78 4.45-2.66 8.46-6.28 13.74-7.17 7.69-3.57 15.82-5.99 23.93-8.38 6.62-1.61 13.13-3.91 20.01-4.04 8.31-1.47 16.67-2.83 24.79-5.17 4.76-1.32 9.17-3.73 14.06-4.65.48 1.66.98 3.32 1.47 4.99-3.41 1.16-6.81 2.35-10.2 3.58-4.47 1.92-9.48 1.39-14.08 2.87-14.93 2.66-29.78 5.97-44.21 10.68-3.37 1.07-7.13.72-10.23 2.59-4.86 2.6-10.27 4.3-14.49 7.98 2.61.02 5.22-.04 7.83-.18 25.61-1.5 51.29-1.4 76.92-.72 14.06.93 28.3.96 42.13 3.85 4.67.64 7.3 4.95 7.78 9.31.54 6.99.79 14.01.4 21.02 4.09-2.85 9.2-2.81 13.57-4.98 12.97-5.22 27.65-4.27 40.61.5 3.62 1.56 7.66 1.68 11.26 3.3-.64-10.32-.52-20.81 1.84-30.92.92-2.81 3.4-4.79 6.29-5.28 12.18-3.14 24.79-4.18 37.29-5.23 24.51-.86 49.05-.16 73.56-.68-8.62-6.04-17.79-12.02-28.49-13.3-16.71-4.84-33.87-7.99-51.19-9.59-4.77-.27-9.35-1.83-13.51-4.11 1.04-1.25 2.1-2.5 3.13-3.77 6.06 3.94 13.47 3.4 20.32 4.46 5.29.85 10.7.38 15.98 1.36 11.36 2.39 22.82 4.71 33.7 8.89 6.29 2.37 12.85 4.34 18.43 8.23 3.53 2.06 5.77 5.73 9.29 7.76 14.57.58 29.21-.04 43.77.87 3.24.01 6.46 1.64 7.97 4.59 4.47 7.74 4.44 17.02 4.8 25.7 1.32.02 2.65.05 3.98.07-1.53-39.28-3.33-78.54-5.08-117.81.35-2.99-2.11-4.97-4.01-6.83-4.01-3.51-4.91-9.27-9.02-12.75-.05-.05-.14-.17-.19-.22a29.14 29.14 0 0 1 -2.9-4.78c-.03-.03-.08-.11-.11-.14-3.36-4.06-4.88-9.17-7.11-13.85-4.96-10.64-8.35-22.02-10.09-33.63-4.17.13-8.35-.11-12.49-.6-6.36-.32-12.5-3.78-16.07-9.04-2.01-2.62-4.68-4.62-6.87-7.07-3.99.41-7.93 1.27-11.94 1.3-6.77.31-13.46-1.73-19.36-4.96-9.24 4.86-21.36 5.04-29.6-1.96-6.73 2.83-13.61 6.02-21.04 6.14-5.5.19-11.06-1.73-15.31-5.22a.417.417 0 0 0 -.08-.06c-1.25-1.05-2.35-2.24-3.49-3.4-5.55 1.94-11.22 3.89-17.11 4.36-4.93.55-10.37-1.25-13.37-5.3h-2.6l-.01.69c-2.9 2.44-6.01 5.02-9.85 5.71-8.48 1.54-17.23-1.46-24.16-6.28-3.75 3.85-8.41 7.11-13.79 8.05m137.88 194.48c-17.62.29-35.18 1.92-52.69 3.91-1.95 9.68-1.9 19.6-2.01 29.43-.02 21.67.67 43.36 3.02 64.92 1.25 9.32 2.25 18.86 6.24 27.51a80.505 80.505 0 0 0 25.47 3.61c8.64.49 17.28.73 25.92 1.11 12.67.25 25.32-.57 37.97-1.08 15.05.13 30.21-2.02 44.49-6.85 4.36-1.3 6.89-5.83 7.31-10.14 1.66-12.62 1.9-25.37 1.86-38.09.17-24.9-.8-49.78-1.95-74.65-11.23-.23-22.46.04-33.67-.49-20.66-.04-41.3.53-61.96.81m-266.94 9.41c-12.51.64-24.93 2.33-37.38 3.58-1.39 7.4-1.39 14.93-1.58 22.42-.55 12.65-.56 25.33-.11 37.99.38 16.32.7 32.72 3.32 48.87.59 3.62 1.1 7.42 2.98 10.64 3.47 1.62 7.32 2.07 11.06 2.68 28.97 4.2 58.4 3.6 87.55 2.01 15.48-1.33 31.13-2.35 46.16-6.48 1.17-.38 3.02-.57 3.17-2.13.98-6.5 1.16-13.08 1.35-19.64.29-19.65.25-39.31.05-58.97-.27-13.89-.04-27.82-.97-41.69-20.24-1.21-40.53-1.94-60.79-1.05-18.3-.34-36.52 1.81-54.81 1.77m404.81 20.89c-5.31 2.96-7.32 9.04-9.85 14.17-3.97 7.89-5.92 16.55-8.47 24.95-1.17-12.59-.2-25.26-.98-37.87-2.09.41-4.14.92-6.17 1.55.43 24.75 2.87 49.45 2.3 74.23-.54 7.53-.97 16.25-7.05 21.63-.49.18-1.48.54-1.98.72-.9.92-1.77 1.89-2.85 2.6-9.11 5.5-19.54 8.32-30.01 9.77-19.98 1.02-40 1.53-59.98 2.55-16.66.52-33.42 1.02-49.98-1.18-2.93-.57-5.87-1-8.85-1.21-4.67-.61-9.77-2.85-11.44-7.62-5.75-15.07-7.47-31.27-9.27-47.19-1.59-13.34-1.28-26.78-1.47-40.18-4.85-2.94-10.01-5.28-15.16-7.62-12.91-5.2-28.07-4.35-40.33 2.23-3.76 2.1-8.17 3.42-11.3 6.43-.03 11.35.67 22.7.72 34.06.21 14.73-.46 29.45-1.04 44.16-.83 5.13-1.71 10.6-4.76 14.94-3.3 2.34-6.85 4.42-10.59 5.98-12.82 4.09-26.34 4.86-39.65 6.02-19.55.98-39.12 1.63-58.7 1.66-14.64.61-29.57 1.48-43.96-1.94-5.85-1.96-12.24-4.03-16.16-9.11-1.45-1.59-3.53-2.67-4.25-4.82-5.11-12.29-5.77-25.76-6.97-38.85-1.37-18.5-.41-37.06-.84-55.59-3.38 2.84-7.53 4.27-11.49 6.02-5.35 4.05-11.49 6.87-16.95 10.74-3.89 1.34-7.47 3.33-10.95 5.49-.16 7.72-.25 15.45-.4 23.17-4.31-3.7-7.37-8.64-11.83-12.2-5.71-4.61-11.85-9.33-19.18-10.89-3.06-.19-7.86-.06-8.99 3.42-1.4-.39-3.57 1.83-2.8 3.22l-.57.21c-2.94 5.09-3.92 10.96-5.53 16.54-1.88 9.15-3.04 18.6-1.83 27.93.38 7.75 3.64 14.9 6.41 22.02 2.27 4.29 4 8.83 4.7 13.66 2.92 6.82 5.07 13.95 7.39 21 1.6 6.48 4.86 12.46 5.6 19.17 2.48 5.04 5.23 10.28 9.71 13.87 5.24 3.21 11.75 4.36 17.75 2.84-.18-.88-.35-1.75-.5-2.62-2.25-22.86-3.31-46-.99-68.91 1.44.09 2.88.18 4.32.29-1.66 19.18-1.54 38.49.29 57.65 1.21 11.58 5.73 22.47 7.56 33.94 1.83 9.19 1.09 18.6 1.64 27.89 2.83 36.08 5.52 72.19 10.55 108.04.79 5.66 1.98 11.29 2.19 17.02.15 7.55 2.85 14.7 4.86 21.89 2.54 6.31 4.81 12.8 8.45 18.58 1.98 7.72 8.42 12.76 13.91 18-.45 1.66-.89 3.42-2.18 4.66-1.42-.5-2.55-1.51-3.74-2.36 1.56 9.92 3.03 19.84 4.98 29.69 1 4.42.51 9.05 1.76 13.44 3.11 13.66 6.52 27.26 10.85 40.6 1.4 3.67 1.07 7.78 2.73 11.39 2.67 6.04 4.37 12.47 7.45 18.33 1.47 3.6 4.08 6.58 5.49 10.21 3.35 2.99 5.94 6.7 9.04 9.94 4.69 5.11 10.36 9.17 15.3 14.02l.2.32c1.06 1.05 2.09 2.14 3.14 3.23 1.33.21 2.77.25 3.92 1.07 5.75 3.48 10.78 8.09 16.95 10.89 10.63 4.37 20.48 10.59 31.54 13.91 6.72 1.06 12.79 4.28 19.34 5.95 11.75 3.59 23.78 6.29 35.93 8.08 7.87.27 15.73.86 23.58 1.43 11.82.72 23.57-1.08 35.36-1.39 16.51-2.41 32.52-7.47 48.03-13.48 6.34-.73 11.48-4.74 17.26-7.05 4.24-1.57 7.52-4.96 11.91-6.19 4.86-1.23 8.35-5 12.53-7.5 7.7-5.25 16.18-9.65 22.46-16.68 2.42-2.65 6.1-3.61 8.47-6.33 3.55-2.82 5.55-7.14 9.39-9.64 4.74-3.54 8.16-8.44 11.16-13.45 2.97-12.2 6.14-24.37 9.09-36.58.94-3.62.8-7.41 1.71-11.03 4.26-17.23 8.5-34.47 12.72-51.72.52-3.06.4-6.2 1.21-9.21-.87 1.77-1.81 3.5-2.79 5.21-1.38-.84-2.75-1.7-4.11-2.55 1.74-3.38 4.11-6.4 5.65-9.86 1.21-3.53 3.47-6.53 5.06-9.88 3.1-6.8 7.59-13.05 8.96-20.53 4.7-12.18 8.99-24.56 11.44-37.41 1.53-5.87.62-12.01 1.86-17.92 6.11-45.47 9.52-91.26 12.7-137.02.72-10.32.1-20.69 1.03-31 .99-9.98 1.67-20.03.97-30.05-.37-5.69-1.35-11.31-1.68-17-.18-3.33-1.29-6.49-2.29-9.63 1.51-.27 3.03-.53 4.55-.78 4.04 13.17 5.63 27 5.19 40.76 1.76-.41 3.89-.28 5.18-1.79 2.91-2.87 6.14-5.57 8.05-9.28 2.98-4.69 2.98-10.44 4.2-15.7 1.58-6.42.86-13.1 2.13-19.56 3.31-20.98 10.82-41.51 9.77-63.01 0-6.79-1.37-13.57-4.05-19.8-1.56-3.93-5.25-6.35-7.31-9.96-2.02-.75-4.41-1.55-6.37-.24m-14.72 3.17c.21 2.24.42 4.5.68 6.75 1.18-2.08 2.3-4.19 3.29-6.36-1.33-.14-2.65-.27-3.97-.39m-493.59 40.39c1.66 1.21 3.33 2.41 5.01 3.59.07-2.38.11-4.76.09-7.14-1.9.87-3.69 1.98-5.1 3.55z"/><path d="m395.83 281.46c12.52-4.03 24.62-10.92 38.17-10.34 6.7-.14 12.89 2.78 18.29 6.49l.07.04.07.04c.7.48 2.11 1.42 2.81 1.9l.12.09.14.06c2.82.85 4.68 3.41 7.5 4.2 3.44 1.03 6.59 2.78 9.83 4.27-.56 1.62-1.14 3.24-1.68 4.87-4.55-1.52-8.93-3.61-12.77-6.49-3.19-2.38-7.32-2.94-10.46-5.4-8.91-6.6-21.05-5.28-30.89-1.64-5.04 1.31-9.64 4.02-14.83 4.75-5.48 1.18-10.52 3.75-15.9 5.27-.64-1.73-1.23-3.46-1.84-5.19 3.96-.23 7.75-1.37 11.37-2.92zm-7.84 41.76c15.67-5.54 32.26-9.43 48.99-8.57 13.15.72 26.01 4.12 38.24 8.89 4.2.88 8.29 2.24 12.16 4.1 5.03 2.44 10.64 3.67 15.31 6.84-.31 1.4-.86 2.72-1.31 4.07-7.34-1.53-13.9-5.31-20.89-7.83-6.13-2.19-11.88-5.65-18.41-6.59-6.1-.78-12.01-2.56-18.1-3.36-11.93-1.31-24.07-.68-35.74 2.2-3.2.91-6.56.95-9.81 1.55-10.84 3.03-21.09 7.73-31.77 11.22-3.76 1.54-7.78 2.12-11.77 2.67-6.34 1.89-12.69 3.75-19.05 5.56-.41-1.82-.84-3.64-1.26-5.45 7.35-.57 14.36-2.97 21.33-5.24 8.26-2.24 16.34-5.11 24.25-8.36 2.5-1.02 5.27-.89 7.83-1.7zm159.77 113.68c1.36-1.31 2.72-2.62 4.1-3.91 3.97 6.2 11.95 7.47 18.09 10.7-.43 1.4-.85 2.8-1.28 4.21-4.19-2-8.59-3.49-13.11-4.56-2.92-1.71-5.13-4.38-7.8-6.44zm-253.51 12.28c4.12-1.26 7.68-3.81 11.75-5.2.7 1.69 1.38 3.4 1.98 5.15-3.29 1.23-6.45 2.73-9.6 4.28-4.45 1.88-9.16 3.02-13.8 4.32-.33-1.73-.67-3.47-1.01-5.19 3.56-1.14 7.12-2.23 10.68-3.36zm224.67.65c.28-1.85 2.16-2.88 3.23-4.27 5.44 4.89 12.53 7.84 19.91 7.77 9.67-.12 19.4.48 28.86 2.57 7.32 1.81 15.5 2.44 21.26 7.87 2.98 4.34 7.66 7.66 9.07 12.95 1.94 5.21 1.91 10.98.68 16.36-1.59 6.66-5.82 12.34-10.5 17.15-5.06 2.11-9.66 5.26-14.89 6.96-11.6 3.12-24.04 1.71-35.2-2.42-3.84-1.71-7.7-3.43-11.85-4.26-9.84-4.99-19.3-12.59-22.99-23.37-2.29-5.81-.77-12.71 3.23-17.38 2.21-2.58 3.37-5.9 5.74-8.34 2.63-3.09 6.5-4.64 9.47-7.33-2.08-1.31-4.32-2.45-6.02-4.26m-5.26 21.86c-1.16 3.31-2.5 6.7-2.81 10.23.61 3.07 1.77 6 2.72 8.98 2.53 5.54 8.28 8.03 12.81 11.61 4.24 3.23 9.48 4.63 14.13 7.11 2.87 1.67 6.3 1.15 9.41 1.96 4.6 1.1 9.3 1.94 14.05 1.88 5.37-.03 10.57-1.51 15.77-2.69 4.55-1.68 8.57-4.68 11.96-8.12 4.09-6.32 6.95-14.19 5.04-21.78-.59-3.45-2.69-6.33-4.01-9.51-4.38-4.27-9.74-7.33-15.53-9.25-9.77-2.9-19.99-4.1-30.17-4.04-5.74-.24-11.75.77-17.2-1.5-6.37 3.88-11.23 9.65-16.17 15.12zm-187.85-15.23c5.5-2.58 11.48-4.3 16.31-8.13.92 1.58 1.83 3.16 2.74 4.75-1.68.93-3.41 1.78-4.94 2.96.06 1.57 1.97 2.08 2.85 3.2 3.59 3.82 6.45 8.26 9.59 12.45 2.31 6.4 6.52 12.27 6.78 19.28.46 6.6-2.94 12.52-6.14 18.03-.85 1.78-2.76 2.6-4.23 3.79-4.55 3.34-9.71 5.96-15.32 6.9-19.01 5.04-40.2 6.99-58.61-1.26-4.62-2.73-9.05-5.79-13.44-8.85-2.14-2.97-4.06-6.19-5.55-9.55-.24-5.53 2.92-10.44 4.38-15.63 3.7-5.82 8.32-11.18 14.35-14.67l.06-.04.06-.04c10.91-7.65 24.42-9.93 37.41-11.22 4.57-.62 9.43.13 13.7-1.97m-1.02 5.17c-4.7 1.82-9.77 1.98-14.71 2.63-6.12.45-12.14 1.77-18.1 3.18-4.03.83-7.49 3.54-11.66 3.74-2.43 1.58-5.28 2.79-6.93 5.27-2.19 3.06-4.85 5.75-7.39 8.51-3.09 4.06-4.55 9.07-5.82 13.94 3.31 5.89 8.4 10.91 14.72 13.48 16.33 8.24 35.53 7.17 52.86 3.08 7.66-1.99 16.63-3.24 21.65-10.08 5.15-5.76 4.46-14.2 3.29-21.28-1.88-5-4.32-9.96-8.05-13.85-3.72-3.79-5.43-9.03-9.55-12.48-3.55.97-6.9 2.5-10.31 3.86z"/><path d="m556.28 487.06c-.84-6.93 6.98-13.3 13.61-11.01 1.72.56 3.12 1.77 4.59 2.8-2.18.76-3.91 2.2-4.35 4.58 2.31 1.61 4.99 2.3 7.8 2.21-.25 5.55-4.32 10.58-9.89 11.48-5.69.41-11.36-4.32-11.76-10.06zm-242.21-5.99c3.78-2.9 9.32-3.08 13.18-.2-1 .63-2 1.27-3 1.91-.28 2.46 1.79 3.57 3.57 4.74.68-.26 2.05-.79 2.74-1.05 1.85 4.83-1.12 11.31-6.36 12.45-3.6 1.31-7.24-.35-10.71-1.25-1.18-2.76-3.01-5.44-2.92-8.55-.27-3.11 1.73-5.73 3.5-8.05zm345.67 8.96c.85-4.61 4.76-7.56 7.25-11.28 1.34 1.25 2.69 2.52 4.02 3.8-4.47 3.73-6.64 9.29-9.2 14.34-2.29 3.96-1.97 8.71-2.47 13.11-.37 6.97 5.56 12.12 5.76 18.96.37 6-1.05 11.95-2.79 17.65-1.34-.74-2.66-1.49-3.97-2.23 2.1-6.21 1.92-12.9 1.4-19.33-2.14-4.6-5.35-8.87-6.06-14.01-.3-7.52 3.53-14.18 6.06-21.01zm-529.2 22.68c3.18-1.79 7.43-.62 9.49 2.31 3 3.82 5.74 8.07 6.68 12.9 2.57 13.53 1.1 27.35 1.61 41.01.2 6.04 3.5 11.25 4.84 17-1.51.7-3.01 1.42-4.53 2.11-2.6-6.12-5.37-12.35-5.9-19.06-.61-14.98 1.55-30.35-2.67-44.98-.68-3.1-3.26-5.49-6.06-6.75-3.5 1.27-4.17 5.49-5.65 8.47-1.06-.18-3.17-.56-4.22-.75 1.96-4.09 1.84-10.02 6.41-12.26zm348.29 78.06c1.31-.97 2.64-1.92 3.99-2.85 1.49 1.95 3.36 3.69 4.23 6.04 2.82 6.76 8.68 11.57 12.02 18.02 2.58 7.67 10.49 11.65 14.46 18.46 5.4 5.61 5.4 14.24 3.57 21.35-1.41-.37-2.82-.73-4.21-1.08-.18-6.11 1.69-13.49-3.38-18.19-4.35-3.35-8.35-7.26-10.81-12.24-7.63-9.13-12.93-19.88-19.87-29.51zm-103.32 8.82c1.46-.61 2.93-1.21 4.41-1.8.08 3.22.64 6.63-.53 9.72-2.64 5.36-7.35 9.2-11.38 13.41-3.82 7.31-11.7 11.52-14.73 19.29-.87 2.81-2.47 5.62-1.79 8.66.51 2.76 1.35 5.45 1.77 8.24.47.5.95 1.01 1.43 1.54-.94 1.09-1.86 2.19-2.77 3.32-4.19-4.48-6.84-10.73-5.95-16.91 2.97-9.67 9.72-17.53 16.27-25.02 1.58-1.74 3.87-2.82 4.9-5.04 2.89-5.05 9.18-8.87 8.37-15.41zm98.66 48.59c6.87-3.73 15.11-3.85 22.63-2.3-.75 2.58-2.22 5.23-4.88 6.22-3.83 1.39-7.89.03-11.71-.67-3.52 1-6.13 3.46-8.65 5.95-6.39 3.14-11.39 8.61-18.08 11.18-7.93 3.79-17.05 3-25.56 2.4-2.96-.08-5.76-1.19-8.22-2.78-4.65-2.95-9.97-5.13-13.61-9.4-3.06-1.43-5.74-3.77-9.15-4.31-4.5-1.34-8.28 2.47-12.71 2.45-4.26.61-7.77-2.33-11.39-4.03 9.11-4.77 20.14-6.17 29.86-2.41 3.39 1.28 4.95 4.99 8.13 6.59 2.22 1.09 4.55 2 6.59 3.44 8.87 6.77 21.56 8.7 31.77 3.87 3.97-1.59 7.87-3.42 11.32-5.98 5.19-2.45 9.39-6.48 13.66-10.22zm66.92 26.94c1.22-1.56 2.55-5.52 5.08-3.37 11.52 7.27 25.18 11.4 38.85 10.91 6.48.02 12.89-1.1 19.25-2.22.24 1.51.47 3.03.72 4.56-12.83 2.18-26.2 3.72-38.92.04-3.56-1.19-7.51-.69-10.9-2.39-4.76-2.38-9.55-4.73-14.08-7.53zm-238.24 7.53c1.67-2.96 3.18 1.52 4.66 2.34-4.69 2.28-8.76 5.67-13.65 7.56-4.56 1.74-8.86 4.33-13.74 5.1-8.16.99-16.46 1.24-24.6-.05-5.68-1.15-10.48-4.5-15.67-6.86.76-1.68 1.58-3.33 2.4-4.98 7.79 4.65 16.52 8.3 25.73 8.34 5.47-.27 10.86-1.57 16.04-3.27 6.26-2.43 12.15-5.74 18.49-7.97l.19-.07zm147.23 54.61c14.86-1.19 29-6.75 43.86-7.78 11.52-.69 21.89 5.03 31.95 9.71 4.5 3.83 8.27 8.4 12.58 12.42 2.76 7.4 7 14.41 7.78 22.43.74 6.43.58 13.42-2.8 19.16-2.3 3.89-4.33 8.53-8.84 10.3-9.25 2.72-18.98 2.19-28.5 2.18-11.05-.1-22.05-1.19-33.08-1.46-11.34-.37-22.69-.17-34.03-.22-22.72-.11-45.28 3.26-67.98 3.86-7.41.67-15.17-.13-21.61-4.11-1.81-1.17-3.62-2.43-4.7-4.34l-.08-.12c-4.37-5.49-3.35-12.97-1.75-19.29 2.12-6.41 4.28-13.06 8.88-18.18 2.34-5.41 6.58-9.7 11.75-12.46 5.08-4.73 11.08-8.32 17.46-11.02 4.46-1.01 8.66-2.98 13.19-3.7 18.74-2.37 37.18 4.45 55.92 2.62m36.31-1.19c.13 4.65-2.09 10.04.35 14.25 7.21.34 14.5.86 21.71.17.61-4.24.86-8.53 1.46-12.78-7.5-2.58-15.89-3.53-23.52-1.64m-78.58 2.57c-.09 3.83-1.13 7.7-.21 11.51 10.83.77 21.79.95 32.6-.05 2.34-2 1.84-5.63 2.21-8.4-1.13.13-2.26.27-3.38.43-10.44-.89-20.8-2.38-31.22-3.49m39.4 3.21c-.18 2.86-.14 5.74.29 8.58 6.78 1.44 13.66-.26 20.5.05 3.74-.12 8.26.63 11.24-2.14 1.44-3.5.73-7.38.97-11.05-11.14.63-21.82 4.43-33 4.56m-75.95 8.12c9.86 1.82 20 .91 29.97.55.24-.63.74-1.87.98-2.49-.01-3.17.21-6.33.53-9.47-11.58-.52-22.11 5.25-31.48 11.41m143.61-10.8c-.1 3.92-.82 7.79-1.19 11.7 3.14.16 6.31.21 9.44-.2.49-1.94 1.01-3.86 1.46-5.79-3.06-2.2-6.23-4.26-9.71-5.71m7.41 17.13c-3.83 1.13-7.58-.74-11.3-1.41-6.95.59-13.97.97-20.95.52-3.73-.16-7.33-2.39-11.09-1.31-6.16 1.72-12.62.67-18.88 1.74-3.02.32-6.14 1.26-9.15.41-2.73-.69-5.37-2.31-8.28-1.72-9.46 1.37-19.08 1.02-28.6.77-5.66-1.04-11.4-.8-17.04.2-9.95.69-20.8 2.37-29.89-2.83-4.87 3.92-9.17 8.57-12.83 13.61-3.47 8.02-7.21 16.41-6.75 25.36.7 4.94 4.76 9.24 9.61 10.39 3.92 1.05 8.32 1.91 12.17.18 5.12-3.83 8.99-9.4 14.95-12.08 4.88-2.26 9.09-5.75 14.11-7.75 4.1-1.67 8.02-4.17 12.55-4.48 13.02-1 26.08.19 39.12-.01 13.08.25 25.9-3.37 38.99-2.97 5.73.13 11.19 2.1 16.68 3.57 3.34.86 6.09 3.03 8.44 5.47 2.8 2.9 6.35 4.86 9.46 7.39 2.35 1.82 3.14 4.81 4.13 7.48 1.5-.07 3.16.27 4.49-.64 3.92-2.52 7.66-6.34 7.94-11.26 1.4-6.28.17-12.66-.34-18.96-.16-2.82-1.83-5.19-3.01-7.65-1.91-3.75-3.73-7.94-7.71-9.92-1.98 2.22-3.73 5.14-6.82 5.9m-76.32 27.24c-8.68.06-17.26-2.16-25.96-1.36-8.19.1-15.65 3.8-23.01 6.96-7.44 3.22-14.28 7.84-19.92 13.68 9.04.13 18-1.16 27.01-1.56 26.57-2.54 53.33-2.95 79.95-1.03 6.64.66 13.32.33 19.97.93 6.41-.04 12.9.61 19.23-.63-6.36-8.96-15.56-15.88-25.92-19.53-17.11-4.16-34.17 3.02-51.35 2.54zm124.59-5.67c1.89-.1 3.78-.19 5.68-.26.52 7.95 1.37 15.92-.13 23.83-1.82-.46-3.63-.92-5.44-1.35 1.55-7.34.71-14.85-.11-22.22zm-257.55 26.24c-.94-7.47-.65-15 .25-22.45 1.14.24 3.42.73 4.56.97-.86 6.94-1.53 13.93-.12 20.86-1.56.21-3.13.41-4.69.62zm110.06 31.43c16.37-3.28 33.15-2.24 49.65-.63-.15 1.84-.29 3.68-.42 5.55-7.39-.77-14.81-1.26-22.22-1.63-8.78-.31-17.51.84-26.19 1.99-.27-1.77-.56-3.53-.82-5.28zm121.95 90.81c1.4 1.2 2.8 2.42 4.19 3.66-4.66 5.18-10.17 9.51-16.15 13.07-4.56 2.61-8.83 5.9-13.95 7.35-8.41 1.64-16.65 4.24-25.19 5.2-18.19 2.64-36.58 3.27-54.92 3.63-21.15-.13-43.12.01-63.05-7.95-5.62-1.23-10.23-5-15.83-6.34.48-1.78 1.04-3.54 1.64-5.28 9.47 2.93 17.53 9.56 27.47 11.03 9.61.72 19.12 2.47 28.78 2.72 16 .5 32.03.39 48.01-.66 9.38-.25 18.66-1.92 28.06-1.88 12.3-1.47 24.82-4.69 35.14-11.8 1.92-1.07 4.09-1.62 5.9-2.91 4.01-2.51 6.46-6.7 9.9-9.84z"/></g><path d="m426.91 91.05c7.4-1.95 13.92-8.19 22.01-6.78 5.65 2.53 9.42 7.83 14.02 11.78 2.66 2.37 6.75 2.56 9.71.64 5.22-3.11 10.41-6.29 15.76-9.15 2.48-1.24 4.47 1.4 6.27 2.7 4.66 4.48 8.79 9.72 14.42 13.04 9.18 1.89 16.81-6.23 25.93-5.2 4.05 2.66 5.14 8 9.12 10.77 3.27 2.38 6.61 4.72 10.13 6.72 4.95 1.91 10.3-.3 13.97-3.76 5.07 2.35 10.1 4.92 14.3 8.68 3.06 2.76 7.45 3.62 10.1 6.89 3.61 4.09 7.56 7.9 11.79 11.35 2.1 1.62 3.03 4.19 4.6 6.25 3.49 4.72 8.15 8.65 10.53 14.12 1.91 4.63 5.4 8.38 7.36 12.99 1.75 4.04 4.84 7.48 5.83 11.85.73 3.35 2.17 6.45 3.68 9.51 5.54 13.31 10.11 27.22 11.18 41.67 6.26 31.97 9.29 64.46 11.64 96.92.92 10.99.64 22.03.8 33.04.86 25.67 1.61 51.33 1.29 77.02-3.14-2.67-6.83-4.5-10.62-6.03-1.5-29.01-2.84-58.04-3.71-87.08.1-12.01-.11-24.03-.77-36.01-6.13-6.39-11.53-13.53-15.84-21.28-4.06-7.17-9.46-13.83-11.03-22.13-3.2-9.79-6.13-19.7-7.13-30-4.74.68-9.58 1.19-14.34.35-5.76-.71-10.82-3.96-15.23-7.54-3.43-2.75-5.13-6.92-7.88-10.22-1.46-.61-3.05.1-4.53.24-7.23 1.66-15.11 2.33-22.11-.61-2.67-.96-5.06-2.67-7.82-3.33-3.83 1.22-7.34 3.42-11.41 3.85-5.73 1.14-10.94-2.06-15.99-4.22-2.56-1.27-5.4.14-7.9.89-6.16 2.57-12.94 5.13-19.68 3.56-4.92-1.63-9.78-4.03-13.3-7.91-7.39 3.23-15.56 4.49-23.58 3.73-3.86-.3-6.09-3.77-8.43-6.4-4.46 5.1-11.1 8.71-18.01 8.22-6.71-1.27-13.79-2.44-19.04-7.19-4.34 4.68-10.26 9.39-17.03 8.59-5.83-.25-10.95-4.15-16.84-3.81-1.82 1.57-3.07 3.92-5.45 4.72-6.04 2.24-12.56.61-18.63-.6-4.7-.86-9.04-3.13-13.8-3.67-3.17 2.1-5.44 5.65-9.35 6.55-9.47 2.61-19.41.43-28.69-1.98-2.2 2.56-4.19 5.39-6.88 7.46-10.79 5.31-22.95 1.7-34.02-.62-2.68-.66-4.3 2.31-5.76 4.03-4.12 5.84-10.42 9.52-15.15 14.77-7.3 7.42-16.57 12.33-25.65 17.21-2.55 1.47-6.24 1.65-7.6 4.62-2.3 4.26-3.96 8.83-5.54 13.4-2.06 5.64-4.8 11-7.68 16.26-3.69 6.77-6.21 14.17-10.61 20.54-2.07 3.07-5.56 4.6-8.58 6.53-.46 46.65-1.85 93.29-2.37 139.95-.28 2.03.71 4.75-1.1 6.25-3.24 2.47-6.86 4.41-9.93 7.12-3.37 2.61-7.75 5.58-12.16 3.87-.24-6.24-.04-12.48-.42-18.71-2.13-33.1-2.97-66.31-1.63-99.46.4-15.04 2.03-30.02 2.01-45.08 2.19-26.25 6.46-52.33 12.46-77.98 1.2-12.91 6.16-25.03 10.2-37.24 3.1-6.34 3.97-13.47 7.2-19.75 2.77-7.22 7.18-13.64 10.16-20.77.74-1.48 1.29-3.34 2.95-4.04 3.54-1.41 7.9-.35 10.98-2.92 5.16-4.19 8.81-10 11.01-16.23.91-1.53 1.16-4.13 3.29-4.34 8.31-1.14 17.06 1.89 25.11-1.3 5.03-2.8 10.3-5.39 14.56-9.35 3.06-2.69 7.11-4.01 9.91-7.04 2.91-2.72 4.77-6.55 8.21-8.66 6.18-1.68 11.71 2.79 17.77 3.11 7.45.46 14.6-2.39 21.46-4.91 6.41-2.41 10.41-8.61 16.52-11.36 7.35 1.14 14.39 5.82 22.08 3.9 7.93-2.02 15.26-6.18 21.46-11.49 1.35-.93 2.58-2.53 4.37-2.45 7.21 1.84 11.08 10.87 19.14 10.01 3.31.33 5.81-2.06 8.47-3.59 3.19-1.89 6.34-4.06 9.99-4.95 6.58-1.03 12.9 3.27 19.47 1.47zm224.31 364.07c1.32.12 2.64.25 3.97.39-.99 2.17-2.11 4.28-3.29 6.36-.26-2.25-.47-4.51-.68-6.75zm-493.59 40.39c1.41-1.57 3.2-2.68 5.1-3.55.02 2.38-.02 4.76-.09 7.14-1.68-1.18-3.35-2.38-5.01-3.59zm10.57 144.7c.63.61.63.61 0 0zm385.14 378.89c3.04-1.55.2 3.25 0 0zm-15.12 15.1c.63.61.63.61 0 0z" fill="#573921"/><g fill="#efb590"><path d="m390.19 227.17c5.38-.94 10.04-4.2 13.79-8.05 6.93 4.82 15.68 7.82 24.16 6.28 3.84-.69 6.95-3.27 9.85-5.71l.01-.69h2.6c3 4.05 8.44 5.85 13.37 5.3 5.89-.47 11.56-2.42 17.11-4.36 1.14 1.16 2.24 2.35 3.49 3.4.02.01.06.04.08.06 4.25 3.49 9.81 5.41 15.31 5.22 7.43-.12 14.31-3.31 21.04-6.14 8.24 7 20.36 6.82 29.6 1.96 5.9 3.23 12.59 5.27 19.36 4.96 4.01-.03 7.95-.89 11.94-1.3 2.19 2.45 4.86 4.45 6.87 7.07 3.57 5.26 9.71 8.72 16.07 9.04 4.14.49 8.32.73 12.49.6 1.74 11.61 5.13 22.99 10.09 33.63 2.23 4.68 3.75 9.79 7.11 13.85.03.03.08.11.11.14a29.14 29.14 0 0 0 2.9 4.78l.08.11.11.11c4.11 3.48 5.01 9.24 9.02 12.75 1.9 1.86 4.36 3.84 4.01 6.83 1.75 39.27 3.55 78.53 5.08 117.81-1.33-.02-2.66-.05-3.98-.07-.36-8.68-.33-17.96-4.8-25.7-1.51-2.95-4.73-4.58-7.97-4.59-14.56-.91-29.2-.29-43.77-.87-3.52-2.03-5.76-5.7-9.29-7.76-5.58-3.89-12.14-5.86-18.43-8.23-10.88-4.18-22.34-6.5-33.7-8.89-5.28-.98-10.69-.51-15.98-1.36-6.85-1.06-14.26-.52-20.32-4.46-1.03 1.27-2.09 2.52-3.13 3.77 4.16 2.28 8.74 3.84 13.51 4.11 17.32 1.6 34.48 4.75 51.19 9.59 10.7 1.28 19.87 7.26 28.49 13.3-24.51.52-49.05-.18-73.56.68-12.5 1.05-25.11 2.09-37.29 5.23-2.89.49-5.37 2.47-6.29 5.28-2.36 10.11-2.48 20.6-1.84 30.92-3.6-1.62-7.64-1.74-11.26-3.3-12.96-4.77-27.64-5.72-40.61-.5-4.37 2.17-9.48 2.13-13.57 4.98.39-7.01.14-14.03-.4-21.02-.48-4.36-3.11-8.67-7.78-9.31-13.83-2.89-28.07-2.92-42.13-3.85-25.63-.68-51.31-.78-76.92.72-2.61.14-5.22.2-7.83.18 4.22-3.68 9.63-5.38 14.49-7.98 3.1-1.87 6.86-1.52 10.23-2.59 14.43-4.71 29.28-8.02 44.21-10.68 4.6-1.48 9.61-.95 14.08-2.87 3.39-1.23 6.79-2.42 10.2-3.58-.49-1.67-.99-3.33-1.47-4.99-4.89.92-9.3 3.33-14.06 4.65-8.12 2.34-16.48 3.7-24.79 5.17-6.88.13-13.39 2.43-20.01 4.04-8.11 2.39-16.24 4.81-23.93 8.38-5.28.89-9.29 4.51-13.74 7.17-2.74 1.65-4.93 4.6-8.35 4.78-6.11.48-12.18 1.35-18.22 2.33-4.57.75-9.62-.05-13.66 2.68-2.76 1.9-4.95 4.78-5.88 8.01-.9 5.78-.94 11.67-.54 17.5-3.84 1.75-7.44 3.96-10.98 6.25-2.71 1.75-4.85 4.36-7.91 5.57-2.44.85-4.83 1.93-6.79 3.65-4.05 3.52-8.74 6.18-13.31 8.94 1.08-46.47 1.63-92.96 2.66-139.44 1-.75 1.97-1.52 2.92-2.33.02-.02.07-.05.09-.07 1.79-1.97 3.67-3.87 5.81-5.47l.24-.19.09-.3c1.79-5.85 5.79-10.64 8.4-16.1 1.35-2.92 2.91-5.74 4.35-8.61 2.56-9.14 7.9-17.12 11.19-25.98 7.66-1.5 14.4-5.9 20.31-10.83 2.59-2.21 6.11-3.09 8.34-5.73 4.07-4.59 8.61-8.77 13.56-12.4 2.23-2.8 4.39-5.68 7.08-8.09 9.03 2.97 18.77 5.5 28.27 3.38 5.96-1.05 9.69-6.35 15.01-8.75 7.94 2.3 16.28 1.97 24.45 1.64 4.97-.33 8.3-4.4 12.5-6.5 9.43 2.54 19.21 6.14 29.12 4.37 3.66-.39 6.4-2.91 8.95-5.31 6.25 1.71 12.47 4.47 19.1 3.78m5.64 54.29c-3.62 1.55-7.41 2.69-11.37 2.92.61 1.73 1.2 3.46 1.84 5.19 5.38-1.52 10.42-4.09 15.9-5.27 5.19-.73 9.79-3.44 14.83-4.75 9.84-3.64 21.98-4.96 30.89 1.64 3.14 2.46 7.27 3.02 10.46 5.4 3.84 2.88 8.22 4.97 12.77 6.49.54-1.63 1.12-3.25 1.68-4.87-3.24-1.49-6.39-3.24-9.83-4.27-2.82-.79-4.68-3.35-7.5-4.2-.07-.04-.2-.11-.26-.15-.7-.48-2.11-1.42-2.81-1.9-.04-.02-.1-.06-.14-.08-5.4-3.71-11.59-6.63-18.29-6.49-13.55-.58-25.65 6.31-38.17 10.34m-7.84 41.76c-2.56.81-5.33.68-7.83 1.7-7.91 3.25-15.99 6.12-24.25 8.36-6.97 2.27-13.98 4.67-21.33 5.24.42 1.81.85 3.63 1.26 5.45 6.36-1.81 12.71-3.67 19.05-5.56 3.99-.55 8.01-1.13 11.77-2.67 10.68-3.49 20.93-8.19 31.77-11.22 3.25-.6 6.61-.64 9.81-1.55 11.67-2.88 23.81-3.51 35.74-2.2 6.09.8 12 2.58 18.1 3.36 6.53.94 12.28 4.4 18.41 6.59 6.99 2.52 13.55 6.3 20.89 7.83.45-1.35 1-2.67 1.31-4.07-4.67-3.17-10.28-4.4-15.31-6.84-3.87-1.86-7.96-3.22-12.16-4.1-12.23-4.77-25.09-8.17-38.24-8.89-16.73-.86-33.32 3.03-48.99 8.57z"/><path d="m528.07 421.65c20.66-.28 41.3-.85 61.96-.81 11.21.53 22.44.26 33.67.49 1.15 24.87 2.12 49.75 1.95 74.65.04 12.72-.2 25.47-1.86 38.09-.42 4.31-2.95 8.84-7.31 10.14-14.28 4.83-29.44 6.98-44.49 6.85-12.65.51-25.3 1.33-37.97 1.08-8.64-.38-17.28-.62-25.92-1.11-8.61.17-17.25-1.05-25.47-3.61-3.99-8.65-4.99-18.19-6.24-27.51-2.35-21.56-3.04-43.25-3.02-64.92.11-9.83.06-19.75 2.01-29.43 17.51-1.99 35.07-3.62 52.69-3.91m19.69 15.25c2.67 2.06 4.88 4.73 7.8 6.44 4.52 1.07 8.92 2.56 13.11 4.56.43-1.41.85-2.81 1.28-4.21-6.14-3.23-14.12-4.5-18.09-10.7-1.38 1.29-2.74 2.6-4.1 3.91m-28.84 12.93c1.7 1.81 3.94 2.95 6.02 4.26-2.97 2.69-6.84 4.24-9.47 7.33-2.37 2.44-3.53 5.76-5.74 8.34-4 4.67-5.52 11.57-3.23 17.38 3.69 10.78 13.15 18.38 22.99 23.37 4.15.83 8.01 2.55 11.85 4.26 11.16 4.13 23.6 5.54 35.2 2.42 5.23-1.7 9.83-4.85 14.89-6.96 4.68-4.81 8.91-10.49 10.5-17.15 1.23-5.38 1.26-11.15-.68-16.36-1.41-5.29-6.09-8.61-9.07-12.95-5.76-5.43-13.94-6.06-21.26-7.87-9.46-2.09-19.19-2.69-28.86-2.57-7.38.07-14.47-2.88-19.91-7.77-1.07 1.39-2.95 2.42-3.23 4.27zm-257.79-18.77c18.29.04 36.51-2.11 54.81-1.77 20.26-.89 40.55-.16 60.79 1.05.93 13.87.7 27.8.97 41.69.2 19.66.24 39.32-.05 58.97-.19 6.56-.37 13.14-1.35 19.64-.15 1.56-2 1.75-3.17 2.13-15.03 4.13-30.68 5.15-46.16 6.48-29.15 1.59-58.58 2.19-87.55-2.01-3.74-.61-7.59-1.06-11.06-2.68-1.88-3.22-2.39-7.02-2.98-10.64-2.62-16.15-2.94-32.55-3.32-48.87-.45-12.66-.44-25.34.11-37.99.19-7.49.19-15.02 1.58-22.42 12.45-1.25 24.87-2.94 37.38-3.58m33.12 18.12c-3.56 1.13-7.12 2.22-10.68 3.36.34 1.72.68 3.46 1.01 5.19 4.64-1.3 9.35-2.44 13.8-4.32 3.15-1.55 6.31-3.05 9.6-4.28-.6-1.75-1.28-3.46-1.98-5.15-4.07 1.39-7.63 3.94-11.75 5.2m31.56 7.28c-4.27 2.1-9.13 1.35-13.7 1.97-12.99 1.29-26.5 3.57-37.41 11.22l-.12.08c-6.03 3.49-10.65 8.85-14.35 14.67-1.46 5.19-4.62 10.1-4.38 15.63 1.49 3.36 3.41 6.58 5.55 9.55 4.39 3.06 8.82 6.12 13.44 8.85 18.41 8.25 39.6 6.3 58.61 1.26 5.61-.94 10.77-3.56 15.32-6.9 1.47-1.19 3.38-2.01 4.23-3.79 3.2-5.51 6.6-11.43 6.14-18.03-.26-7.01-4.47-12.88-6.78-19.28-3.14-4.19-6-8.63-9.59-12.45-.88-1.12-2.79-1.63-2.85-3.2 1.53-1.18 3.26-2.03 4.94-2.96-.91-1.59-1.82-3.17-2.74-4.75-4.83 3.83-10.81 5.55-16.31 8.13z"/><path d="m665.94 451.95c1.96-1.31 4.35-.51 6.37.24 2.06 3.61 5.75 6.03 7.31 9.96 2.68 6.23 4.05 13.01 4.05 19.8 1.05 21.5-6.46 42.03-9.77 63.01-1.27 6.46-.55 13.14-2.13 19.56-1.22 5.26-1.22 11.01-4.2 15.7-1.91 3.71-5.14 6.41-8.05 9.28-1.29 1.51-3.42 1.38-5.18 1.79.44-13.76-1.15-27.59-5.19-40.76-1.52.25-3.04.51-4.55.78 1 3.14 2.11 6.3 2.29 9.63.33 5.69 1.31 11.31 1.68 17 .7 10.02.02 20.07-.97 30.05-.93 10.31-.31 20.68-1.03 31-3.18 45.76-6.59 91.55-12.7 137.02-1.24 5.91-.33 12.05-1.86 17.92-2.45 12.85-6.74 25.23-11.44 37.41-1.37 7.48-5.86 13.73-8.96 20.53-1.59 3.35-3.85 6.35-5.06 9.88-1.54 3.46-3.91 6.48-5.65 9.86 1.36.85 2.73 1.71 4.11 2.55.98-1.71 1.92-3.44 2.79-5.21-.81 3.01-.69 6.15-1.21 9.21-4.22 17.25-8.46 34.49-12.72 51.72-.91 3.62-.77 7.41-1.71 11.03-2.95 12.21-6.12 24.38-9.09 36.58-3 5.01-6.42 9.91-11.16 13.45-3.84 2.5-5.84 6.82-9.39 9.64-2.37 2.72-6.05 3.68-8.47 6.33-6.28 7.03-14.76 11.43-22.46 16.68-4.18 2.5-7.67 6.27-12.53 7.5-4.39 1.23-7.67 4.62-11.91 6.19-5.78 2.31-10.92 6.32-17.26 7.05-15.51 6.01-31.52 11.07-48.03 13.48-11.79.31-23.54 2.11-35.36 1.39-7.85-.57-15.71-1.16-23.58-1.43a245.523 245.523 0 0 1 -35.93-8.08c-6.55-1.67-12.62-4.89-19.34-5.95-11.06-3.32-20.91-9.54-31.54-13.91-6.17-2.8-11.2-7.41-16.95-10.89-1.15-.82-2.59-.86-3.92-1.07-1.05-1.09-2.08-2.18-3.14-3.23l-.2-.32c-4.94-4.85-10.61-8.91-15.3-14.02-3.1-3.24-5.69-6.95-9.04-9.94-1.41-3.63-4.02-6.61-5.49-10.21-3.08-5.86-4.78-12.29-7.45-18.33-1.66-3.61-1.33-7.72-2.73-11.39-4.33-13.34-7.74-26.94-10.85-40.6-1.25-4.39-.76-9.02-1.76-13.44-1.95-9.85-3.42-19.77-4.98-29.69 1.19.85 2.32 1.86 3.74 2.36 1.29-1.24 1.73-3 2.18-4.66-5.49-5.24-11.93-10.28-13.91-18-3.64-5.78-5.91-12.27-8.45-18.58-2.01-7.19-4.71-14.34-4.86-21.89-.21-5.73-1.4-11.36-2.19-17.02-5.03-35.85-7.72-71.96-10.55-108.04-.55-9.29.19-18.7-1.64-27.89-1.83-11.47-6.35-22.36-7.56-33.94-1.83-19.16-1.95-38.47-.29-57.65-1.44-.11-2.88-.2-4.32-.29-2.32 22.91-1.26 46.05.99 68.91.15.87.32 1.74.5 2.62-6 1.52-12.51.37-17.75-2.84-4.48-3.59-7.23-8.83-9.71-13.87-.74-6.71-4-12.69-5.6-19.17-2.32-7.05-4.47-14.18-7.39-21-.7-4.83-2.43-9.37-4.7-13.66-2.77-7.12-6.03-14.27-6.41-22.02-1.21-9.33-.05-18.78 1.83-27.93 1.61-5.58 2.59-11.45 5.53-16.54l.57-.21c1.56-.34 2.46-1.77 2.8-3.22 1.13-3.48 5.93-3.61 8.99-3.42 7.33 1.56 13.47 6.28 19.18 10.89 4.46 3.56 7.52 8.5 11.83 12.2.15-7.72.24-15.45.4-23.17 3.48-2.16 7.06-4.15 10.95-5.49 5.46-3.87 11.6-6.69 16.95-10.74 3.96-1.75 8.11-3.18 11.49-6.02.43 18.53-.53 37.09.84 55.59 1.2 13.09 1.86 26.56 6.97 38.85.72 2.15 2.8 3.23 4.25 4.82 3.92 5.08 10.31 7.15 16.16 9.11 14.39 3.42 29.32 2.55 43.96 1.94 19.58-.03 39.15-.68 58.7-1.66 13.31-1.16 26.83-1.93 39.65-6.02 3.74-1.56 7.29-3.64 10.59-5.98 3.05-4.34 3.93-9.81 4.76-14.94.58-14.71 1.25-29.43 1.04-44.16-.05-11.36-.75-22.71-.72-34.06 3.13-3.01 7.54-4.33 11.3-6.43 12.26-6.58 27.42-7.43 40.33-2.23 5.15 2.34 10.31 4.68 15.16 7.62.19 13.4-.12 26.84 1.47 40.18 1.8 15.92 3.52 32.12 9.27 47.19 1.67 4.77 6.77 7.01 11.44 7.62 2.98.21 5.92.64 8.85 1.21 16.56 2.2 33.32 1.7 49.98 1.18 19.98-1.02 40-1.53 59.98-2.55 10.47-1.45 20.9-4.27 30.01-9.77 1.08-.71 1.95-1.68 2.85-2.6.5-.18 1.49-.54 1.98-.72 6.08-5.38 6.51-14.1 7.05-21.63.57-24.78-1.87-49.48-2.3-74.23 2.03-.63 4.08-1.14 6.17-1.55.78 12.61-.19 25.28.98 37.87 2.55-8.4 4.5-17.06 8.47-24.95 2.53-5.13 4.54-11.21 9.85-14.17m-6.2 38.08c-2.53 6.83-6.36 13.49-6.06 21.01.71 5.14 3.92 9.41 6.06 14.01.52 6.43.7 13.12-1.4 19.33 1.31.74 2.63 1.49 3.97 2.23 1.74-5.7 3.16-11.65 2.79-17.65-.2-6.84-6.13-11.99-5.76-18.96.5-4.4.18-9.15 2.47-13.11 2.56-5.05 4.73-10.61 9.2-14.34-1.33-1.28-2.68-2.55-4.02-3.8-2.49 3.72-6.4 6.67-7.25 11.28m-529.2 22.68c-4.57 2.24-4.45 8.17-6.41 12.26 1.05.19 3.16.57 4.22.75 1.48-2.98 2.15-7.2 5.65-8.47 2.8 1.26 5.38 3.65 6.06 6.75 4.22 14.63 2.06 30 2.67 44.98.53 6.71 3.3 12.94 5.9 19.06 1.52-.69 3.02-1.41 4.53-2.11-1.34-5.75-4.64-10.96-4.84-17-.51-13.66.96-27.48-1.61-41.01-.94-4.83-3.68-9.08-6.68-12.9-2.06-2.93-6.31-4.1-9.49-2.31m348.29 78.06c6.94 9.63 12.24 20.38 19.87 29.51 2.46 4.98 6.46 8.89 10.81 12.24 5.07 4.7 3.2 12.08 3.38 18.19 1.39.35 2.8.71 4.21 1.08 1.83-7.11 1.83-15.74-3.57-21.35-3.97-6.81-11.88-10.79-14.46-18.46-3.34-6.45-9.2-11.26-12.02-18.02-.87-2.35-2.74-4.09-4.23-6.04-1.35.93-2.68 1.88-3.99 2.85m-103.32 8.82c.81 6.54-5.48 10.36-8.37 15.41-1.03 2.22-3.32 3.3-4.9 5.04-6.55 7.49-13.3 15.35-16.27 25.02-.89 6.18 1.76 12.43 5.95 16.91.91-1.13 1.83-2.23 2.77-3.32-.48-.53-.96-1.04-1.43-1.54-.42-2.79-1.26-5.48-1.77-8.24-.68-3.04.92-5.85 1.79-8.66 3.03-7.77 10.91-11.98 14.73-19.29 4.03-4.21 8.74-8.05 11.38-13.41 1.17-3.09.61-6.5.53-9.72-1.48.59-2.95 1.19-4.41 1.8m98.66 48.59c-4.27 3.74-8.47 7.77-13.66 10.22-3.45 2.56-7.35 4.39-11.32 5.98-10.21 4.83-22.9 2.9-31.77-3.87-2.04-1.44-4.37-2.35-6.59-3.44-3.18-1.6-4.74-5.31-8.13-6.59-9.72-3.76-20.75-2.36-29.86 2.41 3.62 1.7 7.13 4.64 11.39 4.03 4.43.02 8.21-3.79 12.71-2.45 3.41.54 6.09 2.88 9.15 4.31 3.64 4.27 8.96 6.45 13.61 9.4 2.46 1.59 5.26 2.7 8.22 2.78 8.51.6 17.63 1.39 25.56-2.4 6.69-2.57 11.69-8.04 18.08-11.18 2.52-2.49 5.13-4.95 8.65-5.95 3.82.7 7.88 2.06 11.71.67 2.66-.99 4.13-3.64 4.88-6.22-7.52-1.55-15.76-1.43-22.63 2.3m66.92 26.94c4.53 2.8 9.32 5.15 14.08 7.53 3.39 1.7 7.34 1.2 10.9 2.39 12.72 3.68 26.09 2.14 38.92-.04-.25-1.53-.48-3.05-.72-4.56-6.36 1.12-12.77 2.24-19.25 2.22-13.67.49-27.33-3.64-38.85-10.91-2.53-2.15-3.86 1.81-5.08 3.37m-238.58 7.74c-6.34 2.23-12.23 5.54-18.49 7.97-5.18 1.7-10.57 3-16.04 3.27-9.21-.04-17.94-3.69-25.73-8.34-.82 1.65-1.64 3.3-2.4 4.98 5.19 2.36 9.99 5.71 15.67 6.86 8.14 1.29 16.44 1.04 24.6.05 4.88-.77 9.18-3.36 13.74-5.1 4.89-1.89 8.96-5.28 13.65-7.56-1.48-.82-2.99-5.3-4.66-2.34-.08.05-.25.16-.34.21m147.57 54.4c-18.74 1.83-37.18-4.99-55.92-2.62-4.53.72-8.73 2.69-13.19 3.7-6.38 2.7-12.38 6.29-17.46 11.02-5.17 2.76-9.41 7.05-11.75 12.46-4.6 5.12-6.76 11.77-8.88 18.18-1.6 6.32-2.62 13.8 1.75 19.29l.08.12c1.08 1.91 2.89 3.17 4.7 4.34 6.44 3.98 14.2 4.78 21.61 4.11 22.7-.6 45.26-3.97 67.98-3.86 11.34.05 22.69-.15 34.03.22 11.03.27 22.03 1.36 33.08 1.46 9.52.01 19.25.54 28.5-2.18 4.51-1.77 6.54-6.41 8.84-10.3 3.38-5.74 3.54-12.73 2.8-19.16-.78-8.02-5.02-15.03-7.78-22.43-4.31-4.02-8.08-8.59-12.58-12.42-10.06-4.68-20.43-10.4-31.95-9.71-14.86 1.03-29 6.59-43.86 7.78m120.47 40.61c.82 7.37 1.66 14.88.11 22.22 1.81.43 3.62.89 5.44 1.35 1.5-7.91.65-15.88.13-23.83-1.9.07-3.79.16-5.68.26m-257.55 26.24c1.56-.21 3.13-.41 4.69-.62-1.41-6.93-.74-13.92.12-20.86-1.14-.24-3.42-.73-4.56-.97-.9 7.45-1.19 14.98-.25 22.45m110.06 31.43c.26 1.75.55 3.51.82 5.28 8.68-1.15 17.41-2.3 26.19-1.99 7.41.37 14.83.86 22.22 1.63.13-1.87.27-3.71.42-5.55-16.5-1.61-33.28-2.65-49.65.63m121.95 90.81c-3.44 3.14-5.89 7.33-9.9 9.84-1.81 1.29-3.98 1.84-5.9 2.91-10.32 7.11-22.84 10.33-35.14 11.8-9.4-.04-18.68 1.63-28.06 1.88-15.98 1.05-32.01 1.16-48.01.66-9.66-.25-19.17-2-28.78-2.72-9.94-1.47-18-8.1-27.47-11.03-.6 1.74-1.16 3.5-1.64 5.28 5.6 1.34 10.21 5.11 15.83 6.34 19.93 7.96 41.9 7.82 63.05 7.95 18.34-.36 36.73-.99 54.92-3.63 8.54-.96 16.78-3.56 25.19-5.2 5.12-1.45 9.39-4.74 13.95-7.35 5.98-3.56 11.49-7.89 16.15-13.07-1.39-1.24-2.79-2.46-4.19-3.66z"/></g><path d="m522.28 756.3c3.09-.76 4.84-3.68 6.82-5.9 3.98 1.98 5.8 6.17 7.71 9.92 1.18 2.46 2.85 4.83 3.01 7.65.51 6.3 1.74 12.68.34 18.96-.28 4.92-4.02 8.74-7.94 11.26-1.33.91-2.99.57-4.49.64-.99-2.67-1.78-5.66-4.13-7.48-3.11-2.53-6.66-4.49-9.46-7.39-2.35-2.44-5.1-4.61-8.44-5.47-5.49-1.47-10.95-3.44-16.68-3.57-13.09-.4-25.91 3.22-38.99 2.97-13.04.2-26.1-.99-39.12.01-4.53.31-8.45 2.81-12.55 4.48-5.02 2-9.23 5.49-14.11 7.75-5.96 2.68-9.83 8.25-14.95 12.08-3.85 1.73-8.25.87-12.17-.18-4.85-1.15-8.91-5.45-9.61-10.39-.46-8.95 3.28-17.34 6.75-25.36 3.66-5.04 7.96-9.69 12.83-13.61 9.09 5.2 19.94 3.52 29.89 2.83 5.64-1 11.38-1.24 17.04-.2 9.52.25 19.14.6 28.6-.77 2.91-.59 5.55 1.03 8.28 1.72 3.01.85 6.13-.09 9.15-.41 6.26-1.07 12.72-.02 18.88-1.74 3.76-1.08 7.36 1.15 11.09 1.31 6.98.45 14 .07 20.95-.52 3.72.67 7.47 2.54 11.3 1.41z" fill="#301613"/><path d="m445.96 783.54c17.18.48 34.24-6.7 51.35-2.54 10.36 3.65 19.56 10.57 25.92 19.53-6.33 1.24-12.82.59-19.23.63-6.65-.6-13.33-.27-19.97-.93-26.62-1.92-53.38-1.51-79.95 1.03-9.01.4-17.97 1.69-27.01 1.56 5.64-5.84 12.48-10.46 19.92-13.68 7.36-3.16 14.82-6.86 23.01-6.96 8.7-.8 17.28 1.42 25.96 1.36zm139.31 202.67c.54.58.54.58 0 0zm-43.03 39.04c.6.52.6.52 0 0zm-41.02 21.99c.57.52.57.52 0 0zm-43.99 13.99c.57.58.57.58 0 0z" fill="#9b504a"/></svg>