<svg xmlns="http://www.w3.org/2000/svg" width="368pt" height="404" viewBox="0 0 368 303"><path fill="#686d7b" d="M46.58 0h10.18c.59 7.89 9.06 12.47 11.28 19.99-6.36-3.77-8.74-11.44-13.41-16.87C49.3 2.04 43.94 4.64 40.1 8.17c.81 3.83 5.47 4.32 7.18 7.58 4.9 7.97 12 14.23 16.97 22.15 4.57-.62 8.68-3.43 12.98-5.03-2.83-4.47-7.68-7.6-9.19-12.88 3.91 4.09 10.88 8.32 9.53 14.83 2.96 2.73 6.38 5.49 10.62 5.53-.51.25-1.52.74-2.03.98-4.54.77-6.96-4.39-11.03-4.31-3.23 1.84-9.38 4.82-5.97 9.27-.58.21-1.76.62-2.34.83-.27-2.65.04-5.31.07-7.96-1.78.05-3.77 1.36-5.43.46-6.29-9.44-11.71-20.47-21.47-26.78-2.99-2.23-1.28-5.35-.1-8.09 2.4-1.36 5.53-1.92 6.69-4.75z"/><path fill="#2c2f3d" d="M56.76 0h15.57c4.07 4 10.28 5.23 13.76 9.94 7.38 7.04 11.37 17.44 20.04 23.07 8.37-.74 14.68-8.83 23.48-7.63 8.92 2.37 17.55 10.74 17.35 20.41-.47 2.53-.38 5.25-1.65 7.55.21-7.07-.69-15.33-6.96-19.74-3.82-1.47-5.37 4.85-4.91 7.93-3.34 1.6-5.63 6.18-4.43 9.43 5.39 4.37 12.32 8.22 14.84 15.1.21.57.63 1.69.83 2.26-.8.14-1.61.28-2.41.43-.6-.96-1.22-1.91-1.93-2.79-1.9-2.26-3.96-4.42-6.31-6.22-.97-1.82-2.9-2.65-4.89-2.74-2.12-1.61-4.54-2.92-7.27-2.97l-.79-.16-.28-.79c-.32-2.02-2.89-1.57-3.93-.42l-.78-.12c-2.54-1.57-4.61-1.51-6.21.18l-1.91.4c-1.92-.71-3.73.26-4.81 1.85-2.92.36-5.88 1.06-8.16 3.02-4.12.42-7.87 2.3-11.09 4.83-4.9 1.68-9.05 4.97-11.89 9.26-2.97 3.29-6.18 6.39-8.87 9.92-3.75 2.22-5.41 6.41-7.76 9.88-6.14-2.75-3.17 9.04-8.54 10.96-4.43 2.73-.89-4.09-1.41-6.19-1.78-3.83 4.97 1.13 3.31-2.52-3.18-6.43 10.79-12.1 3.47-16.31 2.87-2.09 4.42-7 8.68-4.76-2.3-2.43-3.72-5.52-6.09-7.88-.89 1.22-5.95 5.07-2.5 4.2 2.92-1.35 1.74 2.52-.52 1.88-3.45-.73-2.49 3.36-4.51 4.99.24-2.08 1.03-4.47-1.34-5.63.27-.36.81-1.07 1.08-1.43 2.18-.79 3.8-2.41 5.04-4.32 1.81-.67 3.19-2.06 3.91-3.83 6.97-4.93 14.92-8.25 22.06-12.9 2.44-.52 4.86-1.14 7.21-1.98 10.71-4.48 22.3-6.32 32.9-10.97 3.44-1.37 6.35-3.72 9.04-6.21-4.18-.37-7.75 2.04-11.26 3.93-5.16 1.95-10.51 3.36-15.67 5.32-3.12.12-6.58-1.06-9.39.68l-2.67 1.44c-4.24-.04-7.66-2.8-10.62-5.53 1.35-6.51-5.62-10.74-9.53-14.83C65.82 12.47 57.35 7.89 56.76 0z"/><path fill="#acafbc" d="M40.1 8.17c3.84-3.53 9.2-6.13 14.53-5.05 4.67 5.43 7.05 13.1 13.41 16.87 1.51 5.28 6.36 8.41 9.19 12.88-4.3 1.6-8.41 4.41-12.98 5.03-4.97-7.92-12.07-14.18-16.97-22.15-1.71-3.26-6.37-3.75-7.18-7.58z"/><path fill="#3b3e4e" d="M22.61 16.68c4.82-5.16 11.09-8.66 17.28-11.93-1.18 2.74-2.89 5.86.1 8.09-5.72.79-11.7 2.13-17.38 3.84z" opacity=".98"/><path fill="#272c3a" d="M22.61 16.68c5.68-1.71 11.66-3.05 17.38-3.84 9.76 6.31 15.18 17.34 21.47 26.78 1.66.9 3.65-.41 5.43-.46-.03 2.65-.34 5.31-.07 7.96-15.63 10.25-30.77 23.15-38.21 40.71-1.31 4.52-.86 8.32 1.48 3.7C34.31 83.8 41 77.85 45.94 70.62c2.37 1.16 1.58 3.55 1.34 5.63 2.02-1.63 1.06-5.72 4.51-4.99 2.26.64 3.44-3.23.52-1.88-3.45.87 1.61-2.98 2.5-4.2 2.37 2.36 3.79 5.45 6.09 7.88-4.26-2.24-5.81 2.67-8.68 4.76 7.32 4.21-6.65 9.88-3.47 16.31 1.66 3.65-5.09-1.31-3.31 2.52.52 2.1-3.02 8.92 1.41 6.19 5.37-1.92 2.4-13.71 8.54-10.96-2.11 6.69-6.14 13.47-4.76 20.7-1.21.48-2.47.86-3.65 1.41-2.19 1.55-3.63 3.86-5.05 6.08-2.79 5.71 1.5 11.29 1.52 17.03-4.65 5.31-.85 13.06 2.57 17.91.2.29.59.87.79 1.16 1.07 2.07 3.25 3.06 5.22 4.06 6.21 2.49-1.15 2.95-3.08 1.87-3.71-3.42-5.96-8.03-9.28-11.75-8.27-3.26-17.54-7.16-20.69-16.29-3.4-12.26 2.62-24.53 3.64-36.6C13.81 87.01 6.66 75 0 63.36V51.6c5.45-12.47 12.79-24.89 22.61-34.92z"/><path fill="#4d5061" d="M115.92 32.91c3.51-1.89 7.08-4.3 11.26-3.93-2.69 2.49-5.6 4.84-9.04 6.21 1.51-2.28-.05-2.58-2.22-2.28z"/><path fill="#9da1b0" d="M100.25 38.23c5.16-1.96 10.51-3.37 15.67-5.32 2.17-.3 3.73 0 2.22 2.28-10.6 4.65-22.19 6.49-32.9 10.97-2.62-.21-5.47-.35-7.21 1.98-7.14 4.65-15.09 7.97-22.06 12.9-2.26-.21-4.16 1.53-3.91 3.83-2.29.63-3.91 2.3-5.04 4.32-.27.36-.81 1.07-1.08 1.43C41 77.85 34.31 83.8 30.09 91.53c-.53-1.22-1.02-2.45-1.48-3.7 7.44-17.56 22.58-30.46 38.21-40.71.58-.21 1.76-.62 2.34-.83 5.51-2.2 11.12-4.08 17-4.96.51-.24 1.52-.73 2.03-.98l2.67-1.44c3.12-.08 6.41.56 9.39-.68z"/><path fill="#3c4350" d="M133.44 41.53c-.46-3.08 1.09-9.4 4.91-7.93 6.27 4.41 7.17 12.67 6.96 19.74 1.27-2.3 1.18-5.02 1.65-7.55.05 6.87.53 14.15-3.11 20.27-2.52-6.88-9.45-10.73-14.84-15.1-1.2-3.25 1.09-7.83 4.43-9.43m.59 1.47c-.08 2.41-.93 6.15 2.75 5.09-.83-1.78.18-5.73-2.75-5.09z"/><path fill="#7f8492" d="M69.16 46.29c-3.41-4.45 2.74-7.43 5.97-9.27 4.07-.08 6.49 5.08 11.03 4.31-5.88.88-11.49 2.76-17 4.96z"/><path fill="#626672" d="M90.86 38.91c2.81-1.74 6.27-.56 9.39-.68-2.98 1.24-6.27.6-9.39.68z"/><path fill="#313748" d="M134.03 43c2.93-.64 1.92 3.31 2.75 5.09-3.68 1.06-2.83-2.68-2.75-5.09z"/><path fill="#66697c" d="M78.03 48.14c1.74-2.33 4.59-2.19 7.21-1.98-2.35.84-4.77 1.46-7.21 1.98z"/><path fill="#3f3036" d="M109.88 52.72c1.6-1.69 3.67-1.75 6.21-.18-1.96.94-4.23 1.16-6.21.18z"/><path fill="#41343a" d="M116.87 52.66c1.04-1.15 3.61-1.6 3.93.42-1.34.18-2.65.04-3.93-.42z"/><path fill="#503a3d" d="M103.16 54.97c1.08-1.59 2.89-2.56 4.81-1.85l.07.71c-1.52.78-3.16 1.26-4.88 1.14z"/><path fill="#796367" d="m107.97 53.12 1.91-.4c1.98.98 4.25.76 6.21-.18l.78.12c1.28.46 2.59.6 3.93.42l.28.79c-4.35.01-8.69.02-13.04-.04z"/><path fill="#bb8b8a" d="M103.16 54.97c1.72.12 3.36-.36 4.88-1.14 4.35.06 8.69.05 13.04.04l.79.16c2.14 1.59 4.55 2.89 7.27 2.97.55 2.2 2.79 3.13 4.89 2.74.96 2.32 2.43 4.36 4.15 6.18 2.04 4.61-3.07-.79-5.42-.3l-.67-.09c-2.5-3.67-10.03 3.2-8.87 7.01 3.57 2.01 8.41 2.81 10.67 6.5-2.35.97-6 3.54-3.89-.74-3.58 1.27-3.1-.2-1.09-2.57-2.58.32-4.83 1.52-7.26 2.31-.49-3.98-5.49-3.64-8.52-3.62.38 2.25 2 5.71-1.79 4.59-.09-2.08.07-4.16.24-6.23-2.27 1.82-4.67 3.35-7.7 2.31-3.48-.36-6.83 1.2-9.77 2.9-2.01 4.7-4.52 9.43-8.93 12.37-7.88-.6 2.75-7.5 4.3-10.09 4.02-3.7-5.41-2.8-4.28 1.08-4.85-1.46-8.12 2.55-11.24 5.56-1.69-2.48 1.36-6.75-2.32-7.57-3.68-1.56 1.15-5.31 2.44-7.24 2.83-3.54 6.32-6.43 9.83-9.28 3.78-1.35 7.86-2.3 11.09-4.83 2.92-.34 5.83-1.14 8.16-3.02z"/><path fill="#594948" d="M121.87 54.03c2.73.05 5.15 1.36 7.27 2.97-2.72-.08-5.13-1.38-7.27-2.97z"/><path fill="#5b4748" d="M95 57.99c2.28-1.96 5.24-2.66 8.16-3.02-2.33 1.88-5.24 2.68-8.16 3.02z"/><path fill="#5a474b" d="M129.14 57c1.99.09 3.92.92 4.89 2.74-2.1.39-4.34-.54-4.89-2.74z"/><path fill="#574241" d="M83.91 62.82c3.22-2.53 6.97-4.41 11.09-4.83-3.23 2.53-7.31 3.48-11.09 4.83z"/><path fill="#57434a" d="M134.03 59.74c2.35 1.8 4.41 3.96 6.31 6.22l-2.16-.04c-1.72-1.82-3.19-3.86-4.15-6.18z"/><path fill="#656778" d="M52.06 64.87c-.25-2.3 1.65-4.04 3.91-3.83-.72 1.77-2.1 3.16-3.91 3.83z"/><path fill="#614b4f" d="M72.02 72.08c2.84-4.29 6.99-7.58 11.89-9.26-3.51 2.85-7 5.74-9.83 9.28-.52-.01-1.54-.02-2.06-.02z"/><path fill="#615150" d="M265.17 71.14c4.81-2.91 10.73-12.32 15.72-5.01 4.61 10.34-6.64 19.1-14.79 23.15-.05 7.36 1.13 14.81 5.85 20.72 5.53 9.36-8.34 11.24-13.3 15.63-4.75 2.69-3.94-5.38-8.83-3.98 10.04-1.04 2.91-2.36-.83-3.73 1.56-3.69 2.21-7.72 1.99-11.72-.1-2.01-.52-3.98-.89-5.95 3.27 1.23 6.73 1.72 10.15 2.33-9.37-.55-2.03 11.23-8.13 15.65 7.02-1.15 15-7.63 12.89-15.36-.35-1.62-.71-3.25-.93-4.9.41-3.08-1.34-5.67-3.99-7.08-3.55-1.11-5.85-4.26-5.1-8.07 3.12 1.44 4.82 6.05 8.91 5.15 6.99-3.89 16.37-9.54 15.18-18.95.56-2.59-2.57-4.04-4.41-2.36-13 13.9-34.16 9.01-50.72 14.27-10.68 3.79-22.33 5.54-31.62 12.46.49-1.18.99-2.36 1.5-3.53 5.09-1.89 9.74-4.92 15.17-5.88 11.26-2.54 21.1-9.95 32.97-9.82 7.81.82 15.94-.07 23.21-3.02m3.06 36.84c.27 8.18-10.93 6.37-11.3 14.06 4.3.62 6.37-4.22 10.41-4.64 4.65-.33 5.12-7.8.89-9.42z"/><path fill="#a47a76" d="M123.22 72.54c-1.16-3.81 6.37-10.68 8.87-7.01-4.59-.65-11.49 7.63-3.97 7.29 3.46-1.64 11.52-3.49 4.64-7.2 2.35-.49 7.46 4.91 5.42.3l2.16.04c-.71 2.8-2.87 4.78-4.48 7.06 2.84-.06 8.53-.16 11.37-.21 2.57 1.18 7.58 1.17 6.87 5.08-2.27 2.54-5.43 4.7-9.09 4.24-5.74 1.03-9.69 5.9-14.96 7.88-5.99 1.61-12.85 9.27-18.73 5.88.83-13.04 24.29-2.77 24.62-16.98.7-3.7-.79-.45-1.68.97l-.37-.84c-2.26-3.69-7.1-4.49-10.67-6.5z"/><path fill="#636576" d="M47.02 69.19c1.13-2.02 2.75-3.69 5.04-4.32-1.24 1.91-2.86 3.53-5.04 4.32z"/><path fill="#4a3031" d="M128.12 72.82c-7.52.34-.62-7.94 3.97-7.29l.67.09c6.88 3.71-1.18 5.56-4.64 7.2z"/><path fill="#604b49" d="M140.34 65.96c.71.88 1.33 1.83 1.93 2.79-5.35 2.52 2.01 3.78 4.96 4.06-2.84.05-8.53.15-11.37.21 1.61-2.28 3.77-4.26 4.48-7.06z"/><path fill="#6b554c" d="M169.42 67.51c4.32-3.88 13.22-1.04 7.77 4.74-3 .54-7.99-1.31-7.77-4.74z"/><path fill="#bc8e8d" d="M274.66 66.66c1.84-1.68 4.97-.23 4.41 2.36 1.19 9.41-8.19 15.06-15.18 18.95-4.09.9-5.79-3.71-8.91-5.15-.75 3.81 1.55 6.96 5.1 8.07-1.13.63-2.26 1.28-3.37 1.93-2.61-1.89-4.16 2.27-6.63 2.16-2.27-1.21-3.84-3.45-5.91-4.95-1.95 2.14-4.62 3.23-6.93 4.87-2.36 2.29-5.43 5.78-7.26 1.1-1.75 8.07 7.15 16.84.22 24.11-4.68.79-9.09-1.87-9.58-6.76-.63-4.21-5.79-4.14-8.56-6.6-.73 4.77 1.62 9.74.09 14.4-2.92.46-5.92 1.11-8.86.64-2.72-3-6.72-3.05-10.52-2.77 1.68 2.46 6.53 2.33 6.31 5.97-1.65 4.52-4.42 8.61-6.3 13.07-7.98-6.7-16.47-16.88-11.72-28.06 1.38-3.36 2.86-6.68 3.89-10.17 2.19-2.43 5.17-4 7.37-6.44 9.29-6.92 20.94-8.67 31.62-12.46 16.56-5.26 37.72-.37 50.72-14.27z"/><path fill="#3e2e2c" d="M142.27 68.75c.8-.15 1.61-.29 2.41-.43 6.92 8.29 17.63 5.14 24.74-.81-.22 3.43 4.77 5.28 7.77 4.74-1.97 4.1-5.43 7.17-8.62 10.31-3.85 2.53 1.05 6.32 1.4 9.51l-.88.12c-1.19-2.15-2.4-4.34-4.22-6.03-2.68 1.56-5.15 3.47-7.96 4.82-1.98.53-4.01.92-5.92 1.67-2.76 2.14-5.48 4.44-8.9 5.45-3.16.67-6.21 1.62-9.18 2.86-1.89.73-3.76 1.51-5.62 2.3-7.49 3.62-15.36.1-22.96.29-1.99.37-3.46 1.95-5.34 2.62-.53-7.32 6.88-11.76 12.24-15.19-.54 2.02-1.53 3.87-2.17 5.86 3.44 3.08 8.96-1.07 12.87 1.02-3.39 1.33-1.05 4.55 1.77 2.95 7.01-3.66 16.11-5.14 21.3-10.87-.74-6.96-7 .67-10.04 1.05-.58.24-1.75.73-2.33.98l-.63.22c-1.2.27-2.33.87-2.95 1.97-3.91.45.14-2.71 1-4.15 5.27-1.98 9.22-6.85 14.96-7.88 3.66.46 6.82-1.7 9.09-4.24.71-3.91-4.3-3.9-6.87-5.08-2.95-.28-10.31-1.54-4.96-4.06m25.04 1.58c-5.89 3.85-11.61 8.55-15.23 14.54 3.31 2.59 5.72-4.9 8.37-6.33 3.58-.84 9.47-6.02 6.86-8.21z"/><path fill="#61595c" d="M167.31 70.33c2.61 2.19-3.28 7.37-6.86 8.21-2.65 1.43-5.06 8.92-8.37 6.33 3.62-5.99 9.34-10.69 15.23-14.54z"/><path fill="#b8817a" d="M72.02 72.08c.52 0 1.54.01 2.06.02-1.29 1.93-6.12 5.68-2.44 7.24 3.68.82.63 5.09 2.32 7.57 3.12-3.01 6.39-7.02 11.24-5.56-1.13-3.88 8.3-4.78 4.28-1.08-1.55 2.59-12.18 9.49-4.3 10.09-.74 2.6-1.6 5.18-2.15 7.83 4.97-3.05 7.98-8.71 11.87-13.07 3.65-3.07 7.89-5.2 12.14-7.27-.69-1.27-2.04-1.94-3.16-2.76 3.03 1.04 5.43-.49 7.7-2.31-.17 2.07-.33 4.15-.24 6.23 3.79 1.12 2.17-2.34 1.79-4.59 3.03-.02 8.03-.36 8.52 3.62 2.43-.79 4.68-1.99 7.26-2.31-2.01 2.37-2.49 3.84 1.09 2.57-2.11 4.28 1.54 1.71 3.89.74l.37.84c-2 5.65-8.44.22-11.83 3.56-2.64 1.87-9.26 7.81-6.56-1.53-5.07 1.84-4.9 8.92-9.97 10.99-3.64 1.72-5.7 5.14-7.94 8.27-1.92 1.66-2.26 4.17-.35 5.98 3.82 7.85 13.11 12.54 21.37 14.01-.26-.53-.8-1.6-1.06-2.14 7.54-.89-.96 9.22 6.25 9.43-.7.9-1.36 1.83-2.02 2.75-1.33-.37-2.7-.67-4.05-.22-9.67-.83-20.68-.44-27.9-8.25 1.15-6.76.3-13.46-1.13-20.11 1.2-3.95 3.14-7.65 4.05-11.68-5.46 2.16-7.24 10.4-8.95 15.91-1.08 2.92-1.75 9.6-6.19 7.29-3.39-.26-4.54-7.98-8.37-4.55-4.43 3.19-5.87-5.51-10.29-6.05 3.61-5.09 1.12-10.35.54-15.9 1.09-1.88 2.27-3.71 3.29-5.64 2.69-3.53 5.9-6.63 8.87-9.92z"/><path fill="#4c3134" d="M94.11 77.99c2.94-1.7 6.29-3.26 9.77-2.9 1.12.82 2.47 1.49 3.16 2.76-4.25 2.07-8.49 4.2-12.14 7.27-3.34-.22-.31-4.9-.79-7.13z"/><path fill="#5e3e37" d="M134.26 79.88c.89-1.42 2.38-4.67 1.68-.97-.33 14.21-23.79 3.94-24.62 16.98 5.88 3.39 12.74-4.27 18.73-5.88-.86 1.44-4.91 4.6-1 4.15-2.35 1.29-4.74 2.49-7.12 3.7-3.91-2.09-9.43 2.06-12.87-1.02.64-1.99 1.63-3.84 2.17-5.86-5.36 3.43-12.77 7.87-12.24 15.19 1.88-.67 3.35-2.25 5.34-2.62-1.64 2.26-3.51 5.67-6.72 3.6.63-1.94.63-3.98.35-5.98 2.24-3.13 4.3-6.55 7.94-8.27 5.07-2.07 4.9-9.15 9.97-10.99-2.7 9.34 3.92 3.4 6.56 1.53 3.39-3.34 9.83 2.09 11.83-3.56z"/><path fill="#78514f" d="M85.18 90.36c4.41-2.94 6.92-7.67 8.93-12.37.48 2.23-2.55 6.91.79 7.13-3.89 4.36-6.9 10.02-11.87 13.07.55-2.65 1.41-5.23 2.15-7.83z"/><path fill="#624341" d="M55.39 91.88c2.35-3.47 4.01-7.66 7.76-9.88-1.02 1.93-2.2 3.76-3.29 5.64-4.93 6.41-6.21 14.57-8.78 22.03 2.78.63 5.63 1.14 8.24 2.35-1.62 4.41-8.63.77-12.34 1.97 1.18-.55 2.44-.93 3.65-1.41-1.38-7.23 2.65-14.01 4.76-20.7z"/><path fill="#b68b89" d="M156.91 90.98c2.81-1.35 5.28-3.26 7.96-4.82 1.82 1.69 3.03 3.88 4.22 6.03-.18 2.13.43 4.91-2.06 5.87-7.31 4.44-13.48 10.36-20.13 15.67-.46.31-1.39.92-1.85 1.22-3.5.66-6.66 2.29-9.3 4.66-5.16 1.34-7.51 6.06-11.58 8.84-7.21-.21 1.29-10.32-6.25-9.43-6.33-1.58-10.16-7.24-14.03-12.05 2.37-4.92 10.19-.18 14.2-1.24 16.31-1.66-9.59 4.26 6.86 2.46 5.72 1.12 11.65-.66 16.29-4.07-5.13-2.75-10.78 2.06-16.21 2.04.73-.99 1.49-1.94 2.26-2.9 1.86-.79 3.73-1.57 5.62-2.3a65.48 65.48 0 0 0 9.18-2.86c3.42-1.01 6.14-3.31 8.9-5.45 3.53 2.99 5.78 3.86 5.92-1.67z"/><path fill="#8a6857" d="M134.96 90.99c3.04-.38 9.3-8.01 10.04-1.05-5.19 5.73-14.29 7.21-21.3 10.87-.65-.95-1.26-1.93-1.77-2.95 2.38-1.21 4.77-2.41 7.12-3.7 1.79 1.18 3.87.4 2.95-1.97l.63-.22c1.23 8.13 11.06-3.31 2.33-.98z"/><path fill="#646776" d="M30.09 91.53c-2.34 4.62-2.79.82-1.48-3.7.46 1.25.95 2.48 1.48 3.7z"/><path fill="#ae7468" d="M51.08 109.67c2.57-7.46 3.85-15.62 8.78-22.03.58 5.55 3.07 10.81-.54 15.9 4.42.54 5.86 9.24 10.29 6.05 3.83-3.43 4.98 4.29 8.37 4.55 4.44 2.31 5.11-4.37 6.19-7.29 1.62 2.51.8 8.83 4.82 9.24.05-4.51-2.11-9.2.08-13.47 1.43 6.65 2.28 13.35 1.13 20.11 7.22 7.81 18.23 7.42 27.9 8.25-4.33 2.68-8.62 5.46-13.12 7.86-4.23-2.02-8.1-5.66-13.14-4.77-4.01-2.13-6.55-6.1-9.75-9.17-1.75-3.03-5.54-.3-8.03.34-.56 5.64 8.34 6.87 7.03 12.76-3.88-3.05-10.17.49-12.33-3.93-7.31-2.67-11.22 5.59-16.73 7.92-7.94-3.83-1.95-10.97-4.26-17.19-.07-1.38.74-2.64 1.04-3.95 7.14-3.3-1.48 16.68 6.11 9.1 2.45-1.5 7.78-4.99 8.23.18.18 2.05 1.65-.68 2.22-1.2-2.32-5.71-5.57-12.16-12.58-13.86 2.52.66 9.58.79 6.53-3.05-2.61-1.21-5.46-1.72-8.24-2.35z"/><path fill="#1e2221" d="M185.92 89.74c1.07-1.37 3.28-1.45 4.15.19a7.8 7.8 0 0 1-4.15-.19z" opacity=".46"/><path fill="#393b48" d="M169.97 92.07c3.89 5.97 10.46-5 15.95-2.33a7.8 7.8 0 0 0 4.15.19c1.25-.01 2.5-.03 3.75-.07-.51 1.17-1.01 2.35-1.5 3.53-2.2 2.44-5.18 4.01-7.37 6.44-1.89 1.18-2.92 5.78-5.44 4.2.84-2.17 4.74-7.72-.17-5.66-17.18 5.61-17.3 27.65-8.42 40.54 1.53 6.39 5.88 11.96 10.73 16.3-3.29 2.72 1.2 1.66 3.35 1.72 5.22 4.88 11.75 6.86 17.2 1.07.68-1.37 1.19-2.82 1.79-4.22 1.21.7 2.48 1.37 3.92 1.38 3.33-6.46 3.47-16.14 2.44-23.43-.97-2.2-2-5.81-5.13-4.62-2.73 2.84-5 6.07-7.34 9.23-5.7-4.51 7.09-9.03 1.93-14.15-1.93-2.29 2.34-.2 3.48-.4 2.94.47 5.94-.18 8.86-.64 4.48-1.24.86-8.57.82-12.21 4.4 3.34 9.31 8.04 7.05 14.09 3.52.31 7.67-.13 10.18-2.92 3.3-.95 2.41 3.97 5.84 3 4.33-1.69 8.5-3.82 12.95-5.19 3.74 1.37 10.87 2.69.83 3.73-4.96.54-9.15 3.48-13.75 5.08-4.99-3.64-11.12.1-15.81 2.55.76 4.25.02 8.48-.23 12.72-.1 1.59-.1 3.18-.15 4.77-1.38 4.68-3.44 9.12-6.07 13.23-4.97 5.77-11.41 9.85-17.84 13.78-2.8 1.03-5.2 2.78-7.55 4.55 1.35-4.41-6.46-3.14-8.84-1.79-2.57 2.77-6.23 3.2-9.79 3.24 4.53-2.07 12.93-11.65 3.43-12.16.22-1.92.77-4.04-1.92-3.96-2.39-1.99-7.88-10.1-1.12-5.81.87-3.72-2.28-4.58-5.2-5.25 1.48-2.99 4.64-1.79 7.28-1.68-3.64-1.48-7.33-3.75-11.39-3.26 4.1-5.17 5.56-12.35 3.83-19.15-1.83-.42-2.99-1.5-2.94-3.46 1.97 1.37 5.32 5.62 2.17-3.06-6.3 4.16-10.43-6.02-17.08-1.06 2.37-1.9 5.02-3.47 7.81-4.67.74 2.89 5.56 7.85 3.66-1.05-.43-5.85 6.98-6.77 7.83-12.31-6 2.13-9.88 8.17-15.6 11.1-1.21-.15-2.43-.22-3.65-.27 6.65-5.31 12.82-11.23 20.13-15.67 2.49-.96 1.88-3.74 2.06-5.87z"/><path fill="#8b6962" d="M237.24 94.9c2.31-1.64 4.98-2.73 6.93-4.87 2.07 1.5 3.64 3.74 5.91 4.95 2.47.11 4.02-4.05 6.63-2.16.41 4.15 3.17 10.02 7.36 5.15.22 1.65.58 3.28.93 4.9-1.58-.19-3.17-.22-4.76-.29-3.42-.61-6.88-1.1-10.15-2.33.37 1.97.79 3.94.89 5.95-.36-3.51-3.09-3.3-5.75-2.27-1.12-.53-2.24-1.05-3.31-1.65 9.26.74.17-13.89-2.92-5.15.01-1.25-.57-2-1.76-2.23z"/><path fill="#7d514c" d="M84.17 106.85c1.71-5.51 3.49-13.75 8.95-15.91-.91 4.03-2.85 7.73-4.05 11.68-2.19 4.27-.03 8.96-.08 13.47-4.02-.41-3.2-6.73-4.82-9.24z"/><path fill="#af9d92" d="M132.63 91.97c.58-.25 1.75-.74 2.33-.98 8.73-2.33-1.1 9.11-2.33.98z"/><path fill="#84635e" d="M150.99 92.65c1.91-.75 3.94-1.14 5.92-1.67-.14 5.53-2.39 4.66-5.92 1.67z"/><path fill="#b5abab" d="M256.71 92.82c1.11-.65 2.24-1.3 3.37-1.93 2.65 1.41 4.4 4 3.99 7.08-4.19 4.87-6.95-1-7.36-5.15z"/><path fill="#5c4431" d="M129.05 94.16c.62-1.1 1.75-1.7 2.95-1.97.92 2.37-1.16 3.15-2.95 1.97z"/><path fill="#b4a4a7" d="M239 97.13c3.09-8.74 12.18 5.89 2.92 5.15-1.88-1.05-3.04-2.98-2.92-5.15z"/><path fill="#704e47" d="M237.24 94.9c1.19.23 1.77.98 1.76 2.23-.12 2.17 1.04 4.1 2.92 5.15 1.07.6 2.19 1.12 3.31 1.65-3.96 1.85-11.48.96-9.34 8.05 1.44 3.64-4.33 8.6.15 11.13-3.43.97-2.54-3.95-5.84-3 6.93-7.27-1.97-16.04-.22-24.11 1.83 4.68 4.9 1.19 7.26-1.1z"/><path fill="#5e4539" d="M123.7 100.81c-2.82 1.6-5.16-1.62-1.77-2.95.51 1.02 1.12 2 1.77 2.95z"/><path fill="#7c5853" d="M132.91 100.96c2.97-1.24 6.02-2.19 9.18-2.86a65.48 65.48 0 0 1-9.18 2.86z"/><path fill="#aeafb9" d="M179.34 98.37c4.91-2.06 1.01 3.49.17 5.66-3.59 8.32-3.78 18.68.85 26.64 5.81 10.32 19.49 14.93 21.84 27.33-5.45 5.79-11.98 3.81-17.2-1.07l.12-2c2.61 1.54 8.68 5.81 9.55.78.39-5.14-5.22-9.97-10.39-8.59-2.9 1.84.25 5.39.84 7.81-7.26-2.59-9.46-10.65-14.2-16.02-8.88-12.89-8.76-34.93 8.42-40.54z"/><path fill="#706671" d="M179.51 104.03c2.52 1.58 3.55-3.02 5.44-4.2-1.03 3.49-2.51 6.81-3.89 10.17-4.75 11.18 3.74 21.36 11.72 28.06 1.88-4.46 4.65-8.55 6.3-13.07.22-3.64-4.63-3.51-6.31-5.97 3.8-.28 7.8-.23 10.52 2.77-1.14.2-5.41-1.89-3.48.4 5.16 5.12-7.63 9.64-1.93 14.15-5.02 6.78 5.2 10.88 6.11 17.44-.6 1.4-1.11 2.85-1.79 4.22-2.35-12.4-16.03-17.01-21.84-27.33-4.63-7.96-4.44-18.32-.85-26.64z"/><path fill="#997065" d="M97.61 107.15c-1.91-1.81-1.57-4.32.35-5.98.28 2 .28 4.04-.35 5.98z"/><path fill="#af8b8c" d="M260.24 102.58c1.59.07 3.18.1 4.76.29 2.11 7.73-5.87 14.21-12.89 15.36 6.1-4.42-1.24-16.2 8.13-15.65z"/><path fill="#9a6e67" d="M104.33 103.55c7.6-.19 15.47 3.33 22.96-.29-.77.96-1.53 1.91-2.26 2.9 5.43.02 11.08-4.79 16.21-2.04-4.64 3.41-10.57 5.19-16.29 4.07-16.45 1.8 9.45-4.12-6.86-2.46-4.01 1.06-11.83-3.68-14.2 1.24 3.87 4.81 7.7 10.47 14.03 12.05.26.54.8 1.61 1.06 2.14-8.26-1.47-17.55-6.16-21.37-14.01 3.21 2.07 5.08-1.34 6.72-3.6z"/><path fill="#494c5d" d="M150.55 114c5.72-2.93 9.6-8.97 15.6-11.1-.85 5.54-8.26 6.46-7.83 12.31 1.9 8.9-2.92 3.94-3.66 1.05-2.79 1.2-5.44 2.77-7.81 4.67-7.17 5.33-.61-6.8 3.7-6.93z"/><path fill="#b78f8f" d="M245.23 103.93c2.66-1.03 5.39-1.24 5.75 2.27.22 4-.43 8.03-1.99 11.72-4.45 1.37-8.62 3.5-12.95 5.19-4.48-2.53 1.29-7.49-.15-11.13-2.14-7.09 5.38-6.2 9.34-8.05z"/><path fill="#755a5d" d="M212.06 106.75c2.77 2.46 7.93 2.39 8.56 6.6.49 4.89 4.9 7.55 9.58 6.76-2.51 2.79-6.66 3.23-10.18 2.92 2.26-6.05-2.65-10.75-7.05-14.09.04 3.64 3.66 10.97-.82 12.21 1.53-4.66-.82-9.63-.09-14.4z"/><path fill="#9e8a8c" d="M268.23 107.98c4.23 1.62 3.76 9.09-.89 9.42-4.04.42-6.11 5.26-10.41 4.64.37-7.69 11.57-5.88 11.3-14.06z"/><path fill="#93675f" d="M59.32 112.02c3.05 3.84-4.01 3.71-6.53 3.05 7.01 1.7 10.26 8.15 12.58 13.86-.57.52-2.04 3.25-2.22 1.2-.45-5.17-5.78-1.68-8.23-.18 1.7-2.68 3.66-5.19 5.16-7.99-2.09-5.27-14.37-8.51-14.11-1.07l2.84-.04c-.3 1.31-1.11 2.57-1.04 3.95 2.31 6.22-3.68 13.36 4.26 17.19 5.51-2.33 9.42-10.59 16.73-7.92 2.16 4.42 8.45.88 12.33 3.93 1.31-5.89-7.59-7.12-7.03-12.76 2.49-.64 6.28-3.37 8.03-.34-1.7.5-6.23-1.13-4.96 1.95 4.04 7.1 10.77 11.51 19 11.1-.3-2.21-2.77-2.69-4.29-3.88 5.04-.89 8.91 2.75 13.14 4.77 4.5-2.4 8.79-5.18 13.12-7.86 1.35-.45 2.72-.15 4.05.22l.06 1.01a35.26 35.26 0 0 0-4.38 3.51c-.87.49-1.74.97-2.6 1.46-3.51-2.35-4.99 1.9-7.37 3.68-6.15 4.76-15.81 6.64-18.91 14.38-11.42-3.03-24.78-5.47-35.23 1.49-1.93 2.43-4.7.22-6.91-.56-.2-.29-.59-.87-.79-1.16-.63-3.82-2.73-7.25-3.11-11.13 5.95 3.6 12.73 6.83 19.01 2.06 6.81-10.33 17.89 3.14 27.2 2.15-5.09-9.66-17.4-10.08-26.96-10.73-4.52 1.6-.31 10.24-8.01 6.53-10.82-1.74-10.99-15.27-12.22-23.82 1.42-2.22 2.86-4.53 5.05-6.08 3.71-1.2 10.72 2.44 12.34-1.97z"/><path fill="#292f3d" d="M146.9 113.73c1.22.05 2.44.12 3.65.27-4.31.13-10.87 12.26-3.7 6.93 6.65-4.96 10.78 5.22 17.08 1.06 3.15 8.68-.2 4.43-2.17 3.06-.05 1.96 1.11 3.04 2.94 3.46 1.73 6.8.27 13.98-3.83 19.15 4.06-.49 7.75 1.78 11.39 3.26-2.64-.11-5.8-1.31-7.28 1.68 2.92.67 6.07 1.53 5.2 5.25-6.76-4.29-1.27 3.82 1.12 5.81 2.69-.08 2.14 2.04 1.92 3.96 9.5.51 1.1 10.09-3.43 12.16 3.56-.04 7.22-.47 9.79-3.24 2.38-1.35 10.19-2.62 8.84 1.79-3.44 2.69-7.56 4.49-10.58 7.7-.46.27-1.38.81-1.85 1.09-2.08-.11-4.19.74-4.98 2.79-6.56 3.17-13.11 6.37-19.87 9.12-3.1-.3-5.91.99-8.15 3.05-5.75-1.91-9.19 4.78-13.3 7.81-4.27 4 2.17 9.21 4.84 12.31-.65 3.48-3.39-1.06-5.42.84.45 3.09 3.2 4.73 5.06 6.93-1.07 3.27-7.74 5.05-4.33 8.59-1.14.83-4.43.72-3.21 2.78 2.2 5.03-.3 10.65 2.27 15.49-2.92 2.2-.62 2.91 1.94 3.56-1.37 3.16-1.79 7.48-5.26 9.1-1.64 1.1-4.9.92-4.65 3.57 4.5.22 8.34-2.76 12.76-3.01 1.1 1.66.45 7.67 3.28 4.91 2.92-3.2 3.42 9.77-3 3.26.82 2.53 2.28 4.94 2.07 7.7-4.45-2.36-3.56 3.9-7.03.11 2.78 9.86-2.02 3.24-6.16 4.68-.45-3.83 5.89-1.27 4.95-4.53-4.51-4.3-8.93 6.34-12.67 1.82-.54-6.67-.55 1.73-4 2.16-.09-1.86-.25-5.58-.33-7.44-2.02 1.89-.46 7.13-3.44 7.11-.07-2.67-1.64-4.29-3.98-5.3.66-4.57-3.03-12.79 4.48-9.48-2.76-6.46 3.96-3.32 2.91 1.37 6.01 2.86 3.8-8.16-.16-8.89-2.6-.47-8.63-3.15-5.21-6.08 1.63-1.33 1.48-3.37 1.35-5.26 1.46-2.5 3.2-4.83 5.22-6.9 3.34 3.01 7.23-2.93 6.26 3.87 4.24-1.94 1.82-5.54-.19-8.22 5.09-.05 5.96-3.32 1.46-5.72-.95 2.59-3.08 2.63-5.43 2.09-4.77-.44-2.81 6.64-6.92 7.44-2.71-3.1-10.43-.88-4.47-5.13-4.93-5.96 7.15-1.73 5.92-8.37-2.62-3.37-5.62-6.43-7.92-10.05-6.27-.73.21 7.46 1.75 10.3 2.5 4.26-5.51-2.97-4.46 1.47.73 2.28-2.06 2.71-3.37 1.59-2.18-5.99-11.16-4.55-12.71-11.29 3.22-1.25 6.58-2.18 10.04-1.63 6.23.54 6.52-11.06.18-10.89-5.44-.84 4.82-4.75-1.24-5.52-4.06.08-2.08-1.45-.01-3.07-5.03-1.83.56-2.69 1.37-5.91 5.55-.81 4.15-11.53 9.94-6.2-.57-2.44-1.78-4.67-2.34-7.11 1.65 2.95 5.08-.93 5.61 1.49-.87 8.86 4.22 2.25 8.25 4.89 3.65.76-3.7 7.71.72 6.23 1.39-5.71 12.58-3.39 10.41-10.3-.7-3.17-6.74-.01-3.77-3.23 3.14-4.27-2.99-4.68-5.16-1.94 1.58-2.49 2.89-5.57-.57-7.11-.44 3.55-2.88 5.26-6.19 5.89-1.15-1.85-.21-5.62-2.85-5.93 1.66 4.36-2.49 4.46-5.22 2.57-2.83 5.2-1.26-1.88-4.27-3.37-1.66.17-3.11 1.09-4.67 1.61-.37-2.53-2.32-6.59 1.79-6.51 3.39 2.85 8.01 1.12 10.83-1.53 2.16-4.47 3.48 5.02 7.84 1.64-.25 4.9 4.89 5.64 8.71 5.51 2.81-5.14 4.55-11.06 8.92-15.21 4.81-1.03-2.34-4.19-4.28-.8-2.64-2.58-6.06-4.15-9.76-4.37.8-2.35-4.39-11.62.87-10 2.78-.47 3.61 5.19 6.32 2.88 2.31-2-5.54-7.79-.08-6.93 4.17-.92-2.28-4.4-4.32-4.25-3.9.34.41 3.88 1.15 5.68-2.7-.23-5.38-.6-8.06-.94 2.55-1.85 4.53-4.29 5.78-7.19a35.26 35.26 0 0 1 4.38-3.51c5.14-3.03 9.63-7.04 14.56-10.4-.25-.55-.76-1.65-1.02-2.2 4.59 3.73 4.52-3.77 9.3-4.66.46-.3 1.39-.91 1.85-1.22z"/><path fill="#694f59" d="M135.75 119.61c2.64-2.37 5.8-4 9.3-4.66-4.78.89-4.71 8.39-9.3 4.66z"/><path fill="#4d3130" d="M45.97 120.89c-.26-7.44 12.02-4.2 14.11 1.07-1.5 2.8-3.46 5.31-5.16 7.99-7.59 7.58 1.03-12.4-6.11-9.1l-2.84.04z"/><path fill="#593a38" d="M43.45 137.1c-.02-5.74-4.31-11.32-1.52-17.03 1.23 8.55 1.4 22.08 12.22 23.82 7.7 3.71 3.49-4.93 8.01-6.53 9.56.65 21.87 1.07 26.96 10.73-9.31.99-20.39-12.48-27.2-2.15-6.28 4.77-13.06 1.54-19.01-2.06.38 3.88 2.48 7.31 3.11 11.13-3.42-4.85-7.22-12.6-2.57-17.91z"/><path fill="#6a5a63" d="M124.17 128.45c4.07-2.78 6.42-7.5 11.58-8.84.26.55.77 1.65 1.02 2.2-4.93 3.36-9.42 7.37-14.56 10.4l-.06-1.01c.66-.92 1.32-1.85 2.02-2.75z"/><path fill="#613b38" d="M77.13 126.85c-1.27-3.08 3.26-1.45 4.96-1.95 3.2 3.07 5.74 7.04 9.75 9.17 1.52 1.19 3.99 1.67 4.29 3.88-8.23.41-14.96-4-19-11.1z"/><path fill="#afb2be" d="M205.22 127.11c3.13-1.19 4.16 2.42 5.13 4.62-.26 7.85-.72 15.74-2.44 23.43-1.44-.01-2.71-.68-3.92-1.38-.91-6.56-11.13-10.66-6.11-17.44 2.34-3.16 4.61-6.39 7.34-9.23z"/><path fill="#727486" d="M210.35 131.73c1.03 7.29.89 16.97-2.44 23.43 1.72-7.69 2.18-15.58 2.44-23.43z"/><path fill="#604548" d="M107.86 140.86c2.38-1.78 3.86-6.03 7.37-3.68-8.13 6.92-17.86 11.57-26.28 18.06 3.1-7.74 12.76-9.62 18.91-14.38z"/><path fill="#2d3240" d="M115.23 137.18c.86-.49 1.73-.97 2.6-1.46-1.25 2.9-3.23 5.34-5.78 7.19 2.68.34 5.36.71 8.06.94-.74-1.8-5.05-5.34-1.15-5.68 2.04-.15 8.49 3.33 4.32 4.25-5.46-.86 2.39 4.93.08 6.93-2.71 2.31-3.54-3.35-6.32-2.88-5.26-1.62-.07 7.65-.87 10 3.7.22 7.12 1.79 9.76 4.37 1.94-3.39 9.09-.23 4.28.8-4.37 4.15-6.11 10.07-8.92 15.21-3.82.13-8.96-.61-8.71-5.51-4.36 3.38-5.68-6.11-7.84-1.64-2.82 2.65-7.44 4.38-10.83 1.53-4.11-.08-2.16 3.98-1.79 6.51 1.56-.52 3.01-1.44 4.67-1.61 3.01 1.49 1.44 8.57 4.27 3.37 2.73 1.89 6.88 1.79 5.22-2.57 2.64.31 1.7 4.08 2.85 5.93 3.31-.63 5.75-2.34 6.19-5.89 3.46 1.54 2.15 4.62.57 7.11 2.17-2.74 8.3-2.33 5.16 1.94-2.97 3.22 3.07.06 3.77 3.23 2.17 6.91-9.02 4.59-10.41 10.3-4.42 1.48 2.93-5.47-.72-6.23-4.03-2.64-9.12 3.97-8.25-4.89-.53-2.42-3.96 1.46-5.61-1.49.56 2.44 1.77 4.67 2.34 7.11-5.79-5.33-4.39 5.39-9.94 6.2-.81 3.22-6.4 4.08-1.37 5.91-2.07 1.62-4.05 3.15.01 3.07 6.06.77-4.2 4.68 1.24 5.52 6.34-.17 6.05 11.43-.18 10.89-3.46-.55-6.82.38-10.04 1.63 1.55 6.74 10.53 5.3 12.71 11.29 1.31 1.12 4.1.69 3.37-1.59-1.05-4.44 6.96 2.79 4.46-1.47-1.54-2.84-8.02-11.03-1.75-10.3 2.3 3.62 5.3 6.68 7.92 10.05 1.23 6.64-10.85 2.41-5.92 8.37-5.96 4.25 1.76 2.03 4.47 5.13 4.11-.8 2.15-7.88 6.92-7.44 2.35.54 4.48.5 5.43-2.09 4.5 2.4 3.63 5.67-1.46 5.72 2.01 2.68 4.43 6.28.19 8.22.97-6.8-2.92-.86-6.26-3.87-2.02 2.07-3.76 4.4-5.22 6.9.84-4.15-3.11-5.89-5.8-8.12-1.98 3.46-.86 12.28-7.03 11 1.24-2.04 3.55-5.44-.55-5.46.09-2.47 1.2-7.16-2.03-7.66 1.52 3.18-4.04 5.32-1.06 7.76 3.21 2.63.42 7.6-3.32 7.83 2.32 2.53 6.5-.64 8.8 1.66 1.5 3.12-4.76.47-3.44 4.02-1.24 3.51-7.51 8.54-10.15 4.55-.44-5.28 6.69-13.17-2.29-13.71 2.72 4.29 3.05 11.26-1.1 14.68-3.45 1.4-.67-7.38-6.68-3.11-4.76-1.41-2.43 3.93-.16 5.5-2.16 5.08-7.19-1.66-8.94 4.49 4.91.21 8.03 4.09 10.39 7.96.27 1.11 9.56-.8 5.38 2.11-4.61-2.43-7.76 5.05-11.84.71 7.86-3.23-.97-4.6-4.79-6.59.55 2.74.25 6.34 3.76 6.66-1.89 5.08-8.53 6.54-10.95 11.53-6.92.04-13.83 0-20.75-.01-4.84-14.62-7.39-30.07-14.18-44-2.77-12.94-9.57-25.2-6.91-38.91 3.1-17.79 14.98-32.26 26.41-45.55 3.31-3.65 8.72-6.1 9.43-11.43 1.93 1.08 9.29.62 3.08-1.87 5.97-6.71 16.06-5.84 24.46-5.92 4.03-1.96 9.49 4.83 12.46.93 8.42-6.49 18.15-11.14 26.28-18.06z"/><path fill="#646875" d="M170.92 138.91c4.74 5.37 6.94 13.43 14.2 16.02l-.12 2c-2.15-.06-6.64 1-3.35-1.72-4.85-4.34-9.2-9.91-10.73-16.3z"/><path fill="#b7b9c5" d="M220.03 142c5.22-2.51 7.09 4.66 11.94 5.04 2.65 1.66 5.3 3.32 8 4.93 4.31 3.07 8.98 5.7 14.15 6.97 2.71 1.08 5.42 2.24 7.71 4.09 1.57 1.88 4 2.41 6.24 3.05.64.57 1.27 1.15 1.91 1.72.9 3.23 5.84 4.31 5.04 8.09-4.51 9.67-15.17 14.04-25.09 15.97-13.78.15-28.83 2.09-41.1-5.54-5.14.7-17.54-4.87-18.68.49 22.59 5.56 46.55 12.29 69.75 7.09 5.21 8.87 15.17 12.88 21.82 20.39 4.76 7.08 5.61 16.23 11.15 22.86 4.88 3.96 10.27 7.56 13.58 13.06 3.44-.55 2.14 3.95 2.87 6.04-.62 2.59-1.13 5.21-1.11 7.88-11.78 9.69-28.85 2.95-42.43 7.65-.39.11-1.17.32-1.56.43-7.57-.47-15.33.62-22.28 3.73-22.09 3.73-44.86 6.5-65.97 13.94-7.83 1.57-15.58 3.65-23.22 5.96-1.5-.17-5.03 1.07-3.47-1.6 6.51-5.84 15.06-9.33 21.03-15.94 1.25-.95.2-2.54-.03-3.7l-.19-.69c-1.38-9.06-7.94-16.04-12.33-23.77-5.34-6.58-8.81-15.13-15.71-20.26-1.29-2.3-3.16-4.14-4.98-6l-1.83-2.22c-2.66-3.48-5.45-7.2-5.55-11.77 4.63-2.24 9.34-4.47 13.3-7.81 2.9-.47 5.59-1.66 8.15-3.05 6.76-2.75 13.31-5.95 19.87-9.12 2.07.07 4.15-.78 4.98-2.79.47-.28 1.39-.82 1.85-1.09 6.58-2.95 13.22-6.84 18.13-12.25 6.43-3.93 12.87-8.01 17.84-13.78 4.76-1.98 6.23-8.49 6.07-13.23.05-1.59.05-3.18.15-4.77z"/><path fill="#3d3f4a" d="M232.04 145.87c-.26-1.38-1.8-4.12.82-2.71 21.47 11.98 46.83 16.69 66.07 32.77 3.08 3.27 4.56 8.33 8.96 10.09.1-1.2.17-2.4.22-3.6 1.71-.8 3.02-2.94 5.02-2.81-.74 4.73-1.22 9.91.82 14.42 2.59 4.45-2.94 3.65-5.85 5.04-3.17 2.75-8.81-.43-10.1 5.02.29 7.13 8.52 6.53 13.77 5.8 4.02-.06 8.05-.4 12.09-.48 2.7 4.26-.71 7.93-3.96 10.48-2.72 1.28-5.4 2.64-8.06 4.03-2.09.4-6.15 4.98-6.23.92 3.63-5.31 11.48-5.63 14.6-11-2.91-4.55-12.72-.74-18.37-1.67-3.79-1.9-7.76-5.16-5.9-10.16-.7-4.32 7.2-3.49 5.81-7.71-4.74-6.56-11.21-11.52-17.55-16.42-4.53-3.64-9.35-6.92-14.22-10.08-.64-.57-1.27-1.15-1.91-1.72-1.32-2.21-3.98-2.45-6.24-3.05-2.29-1.85-5-3.01-7.71-4.09-4.15-3.33-8.96-5.78-14.15-6.97-2.55-2.13-4.77-4.86-7.93-6.1z"/><path fill="#727784" d="M232.04 145.87c3.16 1.24 5.38 3.97 7.93 6.1-2.7-1.61-5.35-3.27-8-4.93z"/><path fill="#655547" d="M184.28 147.12c5.17-1.38 10.78 3.45 10.39 8.59-.87 5.03-6.94.76-9.55-.78-.59-2.42-3.74-5.97-.84-7.81z"/><path fill="#757a86" d="M213.81 160c2.63-4.11 4.69-8.55 6.07-13.23.16 4.74-1.31 11.25-6.07 13.23z"/><path fill="#5e484d" d="M53.72 156.73c10.45-6.96 23.81-4.52 35.23-1.49-2.97 3.9-8.43-2.89-12.46-.93-8.4.08-18.49-.79-24.46 5.92-1.97-1-4.15-1.99-5.22-4.06 2.21.78 4.98 2.99 6.91.56z"/><path fill="#777b88" d="M239.97 151.97c5.19 1.19 10 3.64 14.15 6.97-5.17-1.27-9.84-3.9-14.15-6.97z"/><path fill="#777a88" d="M261.83 163.03c2.26.6 4.92.84 6.24 3.05-2.24-.64-4.67-1.17-6.24-3.05z"/><path fill="#9ea0ae" d="M269.98 167.8c4.87 3.16 9.69 6.44 14.22 10.08-1.95-.7-3.85-1.51-5.83-2.09 2.51 8.17-7.45 12.57-13.13 16.31.55 6.98 8.14 9.73 12.61 14.05 4.74 6.36 11.28 12.19 12.6 20.43 1.13 6.23 7.08 9.62 11.25 13.75 3.75 2.63 6.05 7.5 11.26 7.62-3.58.5-2.07 5.79-3.64 8.3-.73-2.09.57-6.59-2.87-6.04-3.31-5.5-8.7-9.1-13.58-13.06-5.54-6.63-6.39-15.78-11.15-22.86-6.65-7.51-16.61-11.52-21.82-20.39-23.2 5.2-47.16-1.53-69.75-7.09 1.14-5.36 13.54.21 18.68-.49 12.27 7.63 27.32 5.69 41.1 5.54 9.92-1.93 20.58-6.3 25.09-15.97.8-3.78-4.14-4.86-5.04-8.09z"/><path fill="#727785" d="M188.42 178.33c2.35-1.77 4.75-3.52 7.55-4.55-4.91 5.41-11.55 9.3-18.13 12.25 3.02-3.21 7.14-5.01 10.58-7.7z"/><path fill="#b3b4c0" d="M278.37 175.79c1.98.58 3.88 1.39 5.83 2.09 6.34 4.9 12.81 9.86 17.55 16.42 1.39 4.22-6.51 3.39-5.81 7.71-1.86 5 2.11 8.26 5.9 10.16 5.99 1.56 12.42-.12 18.37 1.67-3.12 5.37-10.97 5.69-14.6 11-7.64 9.8 6.24 15.55 13.63 10.55 4.97-1.14 10.69-5.59 15.44-2.03 2.04 1.98.02 4.56-.64 6.71-1.86 2.72-4.07 5.18-5.93 7.88-.85 2.27-2.64 3.43-5.08 3.23-2.69-2.68-6.73-1.99-10.07-3.23-5.21-.12-7.51-4.99-11.26-7.62-4.17-4.13-10.12-7.52-11.25-13.75-1.32-8.24-7.86-14.07-12.6-20.43-4.47-4.32-12.06-7.07-12.61-14.05 5.68-3.74 15.64-8.14 13.13-16.31z"/><path fill="#57636b" d="M298.93 175.93c3.7 1.15 6.25 4.15 9.18 6.49-.05 1.2-.12 2.4-.22 3.6-4.4-1.76-5.88-6.82-8.96-10.09z" opacity=".94"/><path fill="#9c817d" d="m313.13 179.61 2.66.48c2.38 6.07 6.94 12.97 14.17 13.18 3.82 2.04 8.05 3.12 12.11 4.56 1.32 1.07 2.66 2.12 4 3.17-6.45-1.48-13.16-2.13-18.92-5.68-.36.41-1.08 1.24-1.44 1.65-2.49-4.05-7.69-2.7-11.76-2.94-2.04-4.51-1.56-9.69-.82-14.42z"/><path fill="#4d423d" d="M315.79 180.09c5.31 3.61 9.65 8.62 14.17 13.18-7.23-.21-11.79-7.11-14.17-13.18z"/><path fill="#686a77" d="M171.01 189.91c.79-2.05 2.9-2.9 4.98-2.79-.83 2.01-2.91 2.86-4.98 2.79z"/><path fill="#634b43" d="M313.95 194.03c4.07.24 9.27-1.11 11.76 2.94.75.72 1.57 1.37 2.44 1.94 1.37 3.79.19 7.2-2.12 10.19.93 2.5 3.97 2.82 6 4.06-1.59 1.27-6.44 2.12-4.12 4.86 1.44 2.84 7.41 2.64 5.54-1.42-1.14-2.6 1.17-1.12 2.49-.61.23 1.39.38 2.79.59 4.19.88 4.58.08 10.85 5.09 13.3-.52 2.14-2.12 3.76-3.41 5.46 2.77.4 4.45 2.66 6.66 4.09l.71.36c3.24 2.36 3.78 1.12 5.3-1.59-.08 2.58-.83 5.36 1.01 7.55.06 1.79.21 3.6-.09 5.38a54.54 54.54 0 0 0-3.57 5.34c-1-3.07-3.22-6.23-.46-9.05-2.76-1.45-4.03.33-5.62 2.27-.4-3.58 4.21-3.79 3.63-6.8-3.47-.91-5.94-3.85-9.44-4.54 1.3-3.43.64-4.44-2.3-1.88.66-2.15 2.68-4.73.64-6.71-4.75-3.56-10.47.89-15.44 2.03-.69-.34-2.05-1.03-2.74-1.37 3.79-3.57 15.24-2.91 12.61-10.06-1.12-4.05-5.47-5.94-9.21-4.07 3.25-2.55 6.66-6.22 3.96-10.48-4.04.08-8.07.42-12.09.48 3.27-1.01 8.66-2.47 5.92-7.51-.72-4.76-6.01-3.34-9.59-3.31 2.91-1.39 8.44-.59 5.85-5.04m6.02 4.02c.01 2.74.02 8.22.02 10.96 8.7-.86 6.77-9.65-.02-10.96z"/><path fill="#bc9d9e" d="M327.15 195.32c5.76 3.55 12.47 4.2 18.92 5.68 7.42 4.69 11.18 12.8 14.13 20.75-.03 6.15.92 12.26.95 18.42-1.69 6.52-2.31 13.21-2.07 19.95-1.71 4.35-4.78 9.17-10.11 7.93-.18-2.25.3-4.34 2.44-5.43-1.77-2.55-.14-5.22.39-7.89.3-1.78.15-3.59.09-5.38 5.11-8.17-2.27-19.13-11.75-18.6 2.42-5.47-3.2-6.22-2.31-11.76-.33.3-.98.9-1.3 1.19-.21-1.4-.36-2.8-.59-4.19-.79-4.19-4.12-5.68-7.9-6.08.59-3.33 4.6-9.81.11-11-.87-.57-1.69-1.22-2.44-1.94.36-.41 1.08-1.24 1.44-1.65z"/><path fill="#9e6c49" d="M319.97 198.05c6.79 1.31 8.72 10.1.02 10.96 0-2.74-.01-8.22-.02-10.96z"/><path fill="#5b5b58" d="M342.07 197.83c9.65 1.43 14.76 10.7 18.37 18.77 2.71 7.12 7.05 14.46 4.53 22.34-1.55.86-1.34 2.79-.72 4.17-3.97 5.53-.52 12.32-2.14 18.38-.83-3.3-1.66-5.9-3.03-1.37-.24-6.74.38-13.43 2.07-19.95 1.09-6.02 1.83-12.74-.95-18.42-2.95-7.95-6.71-16.06-14.13-20.75-1.34-1.05-2.68-2.1-4-3.17z" opacity=".97"/><path fill="#6f7380" d="M142.99 202.08c2.24-2.06 5.05-3.35 8.15-3.05-2.56 1.39-5.25 2.58-8.15 3.05z"/><path fill="#ab8a8c" d="M308.1 199.07c3.58-.03 8.87-1.45 9.59 3.31 2.74 5.04-2.65 6.5-5.92 7.51-5.25.73-13.48 1.33-13.77-5.8 1.29-5.45 6.93-2.27 10.1-5.02z"/><path fill="#a28679" d="M328.15 198.91c4.49 1.19.48 7.67-.11 11 3.78.4 7.11 1.89 7.9 6.08-1.32-.51-3.63-1.99-2.49.61 1.87 4.06-4.1 4.26-5.54 1.42-2.32-2.74 2.53-3.59 4.12-4.86-2.03-1.24-5.07-1.56-6-4.06 2.31-2.99 3.49-6.4 2.12-10.19z"/><path fill="#6a6f7b" d="M129.69 209.89c4.11-3.03 7.55-9.72 13.3-7.81-3.96 3.34-8.67 5.57-13.3 7.81z"/><path fill="#696f7d" d="M134.53 222.2c-2.67-3.1-9.11-8.31-4.84-12.31.1 4.57 2.89 8.29 5.55 11.77z"/><path fill="#686c78" d="M301.84 212.17c5.65.93 15.46-2.88 18.37 1.67-5.95-1.79-12.38-.11-18.37-1.67z"/><path fill="#b29091" d="M319.9 219.89c3.74-1.87 8.09.02 9.21 4.07 2.63 7.15-8.82 6.49-12.61 10.06-2.98.23-11.47.69-10.39-4.63 3.42-.4 6.66-1.44 5.73-5.47 2.66-1.39 5.34-2.75 8.06-4.03z"/><path fill="#8f6f62" d="M336.53 220.18c.32-.29.97-.89 1.3-1.19-.89 5.54 4.73 6.29 2.31 11.76 9.48-.53 16.86 10.43 11.75 18.6-1.84-2.19-1.09-4.97-1.01-7.55-1.52 2.71-2.06 3.95-5.3 1.59 2.61-1.32 5.25-5.01 2.17-7.3-4.21-1.2-5.36 4.4-2.88 6.94-2.21-1.43-3.89-3.69-6.66-4.09 1.29-1.7 2.89-3.32 3.41-5.46-5.01-2.45-4.21-8.72-5.09-13.3z"/><path fill="#343a4a" d="M129.11 223.04c2.03-1.9 4.77 2.64 5.42-.84l.71-.54 1.83 2.22c.85 2.61 2.98 4.27 4.98 6 8.27 13.74 18.4 26.44 25.38 40.96.12 3.88-2.62.86-3.23-.98-1.15-3.03-3.89-5.02-5.13-8-5.54-10.98-14.29-19.86-20.52-30.45-6.56-2.61-2.32 6.52 1.2 7.57-3.25 1.18-2.92 6.95-1.02 10.24 1.73 3.15-4.55 1.12-2.49 4.39 7.46 1.8 9.01 10.37 14.12 15.2-4.11-5.48-14.57 6.6-6.2 6.45 4.88.45-1.74 1.95-3.23 3.23 3.12.47 5.51 2.66 1.36 3.88 2.28 1.85 3.14 5.25.48 7.23-1.86.16-8.99-.65-5.16 1.81 4.76 3.06-5.86-.02-4.82 4.58 9.07.72 13.91-8.55 21.26-11.92 5.58-2.86 10.77-6.41 16.23-9.47.23 1.16 1.28 2.75.03 3.7-5.97 6.61-14.52 10.1-21.03 15.94-1.56 2.67 1.97 1.43 3.47 1.6 8.52 1.98 16.38-1.32 23.22-5.96 3.9.55 7.8.38 11.21-1.62 17.98-5.16 36.86-6.83 54.76-12.32 7.4-1.4 14.95-2.02 22.28-3.73.39-.11 1.17-.32 1.56-.43 12.39-.05 24.76-1.2 37.13-1.92 2.97-.33 4.08-3.44 5.3-5.73 1.97-3.65 2.18-7.96 4.16-11.62 1.09-4.78 7.32-1.92 10.66-1.33 2.98 3.34 5.85.71 5.08-3.23 1.86-2.7 4.07-5.16 5.93-7.88 2.94-2.56 3.6-1.55 2.3 1.88-2.77 3.8-8.15 8.82-5.09 13.94 3.94 1.07 7.97.08 10.9-2.6 1.59-1.94 2.86-3.72 5.62-2.27-2.76 2.82-.54 5.98.46 9.05-1.47 2.54-.79 5.35-.12 8.02.68 3.71-3.92 2.36-5.49 4.54-2.47 3.45-4.83-2.27-5.02-4.6-2.12.12-3.35 2.16-4.52 3.69 6.05 1.94 5.4 9.77 3.23 14.55-.18-1.46-.35-2.91-.52-4.36-2.35 1.26-6.51 7.19-3.82-1.96-1.76.29-.69 3.01-1.28 4.28-1.34-4.39-2.91-8.78-3.27-13.38-4.75 3.31-8.57 6.22-12.22 10.35 3.95-7.02-8.24-6.06-5.65.08-1.54-.66-2.95-1.57-4.42-2.34.03 3.13 2.26 5.45 3.81 7.98-4.08 1.16-7.38 5.97-11.39 1.63-.57-5.15-6.01 1.27-8.66-.55-.64-3.93 6.1-1.54 7.37-3.39-1.18-1.99-4.56-1.66-5.21-3.67-1.04-3.51 3.72.05 5.19-2.07-2.28-2.68-5.73-.95-8.67-1.37-5.92-6.06-7.2 8.46-8.27.24-2.24 2.51-5.31 8.43.35 8.24-.07-6.22 6.64-.48 3.18 3.71-5 1.86-10.87 7.43-16.02 3.44 4.73 8.24 18.51.62 26.43 4.01-1.74 1.15-3.68 1.91-5.55 2.81 6.75 3.93 5.72-7.63 12.33-3.86 15.05 1.78 30.34-1.39 45.24.32 7.47-2.41 15.31.71 22.74-1.2V303H245.47c-38.5-1.67-77.42-1.67-115.92 0h-9.1c-21.72-2.23-43.68-.44-65.5-1 2.42-4.99 9.06-6.45 10.95-11.53-3.51-.32-3.21-3.92-3.76-6.66 3.82 1.99 12.65 3.36 4.79 6.59 4.08 4.34 7.23-3.14 11.84-.71 4.18-2.91-5.11-1-5.38-2.11-2.36-3.87-5.48-7.75-10.39-7.96 1.75-6.15 6.78.59 8.94-4.49-2.27-1.57-4.6-6.91.16-5.5 6.01-4.27 3.23 4.51 6.68 3.11 4.15-3.42 3.82-10.39 1.1-14.68 8.98.54 1.85 8.43 2.29 13.71 2.64 3.99 8.91-1.04 10.15-4.55-1.32-3.55 4.94-.9 3.44-4.02-2.3-2.3-6.48.87-8.8-1.66 3.74-.23 6.53-5.2 3.32-7.83-2.98-2.44 2.58-4.58 1.06-7.76 3.23.5 2.12 5.19 2.03 7.66 4.1.02 1.79 3.42.55 5.46 6.17 1.28 5.05-7.54 7.03-11 2.69 2.23 6.64 3.97 5.8 8.12.13 1.89.28 3.93-1.35 5.26-3.42 2.93 2.61 5.61 5.21 6.08 3.96.73 6.17 11.75.16 8.89 1.05-4.69-5.67-7.83-2.91-1.37-7.51-3.31-3.82 4.91-4.48 9.48 2.34 1.01 3.91 2.63 3.98 5.3 2.98.02 1.42-5.22 3.44-7.11.08 1.86.24 5.58.33 7.44 3.45-.43 3.46-8.83 4-2.16 3.74 4.52 8.16-6.12 12.67-1.82.94 3.26-5.4.7-4.95 4.53 4.14-1.44 8.94 5.18 6.16-4.68 3.47 3.79 2.58-2.47 7.03-.11.21-2.76-1.25-5.17-2.07-7.7 6.42 6.51 5.92-6.46 3-3.26-2.83 2.76-2.18-3.25-3.28-4.91-4.42.25-8.26 3.23-12.76 3.01-.25-2.65 3.01-2.47 4.65-3.57 3.47-1.62 3.89-5.94 5.26-9.1-2.56-.65-4.86-1.36-1.94-3.56-2.57-4.84-.07-10.46-2.27-15.49-1.22-2.06 2.07-1.95 3.21-2.78-3.41-3.54 3.26-5.32 4.33-8.59-1.86-2.2-4.61-3.84-5.06-6.93m186.13 31.02c-1.21 4.63-2.34 9.28-3.23 13.98 3.31.67 2.35-4.21 5.28-4.77 4.36-4.29 10.43-.69 15.7-1.26 4.69 5.49 7.07-3.42 3.03-2.05-4.79 3.16-5.87-4.36-9.87-2.74-4.24 2.21-6.71-4.02-10.91-3.16z"/><path fill="#8c8282" d="M360.2 221.75c2.78 5.68 2.04 12.4.95 18.42-.03-6.16-.98-12.27-.95-18.42z"/><path fill="#757b87" d="M137.07 223.88c1.82 1.86 3.69 3.7 4.98 6-2-1.73-4.13-3.39-4.98-6z"/><path fill="#6b636b" d="M305.61 224.84c.08 4.06 4.14-.52 6.23-.92.93 4.03-2.31 5.07-5.73 5.47-1.08 5.32 7.41 4.86 10.39 4.63.69.34 2.05 1.03 2.74 1.37-7.39 5-21.27-.75-13.63-10.55z"/><path fill="#787c8a" d="M142.05 229.88c6.9 5.13 10.37 13.68 15.71 20.26 4.39 7.73 10.95 14.71 12.33 23.77-.9-1.02-1.8-2.03-2.66-3.07-6.98-14.52-17.11-27.22-25.38-40.96z"/><path fill="#424858" d="M139.75 238.98c-3.52-1.05-7.76-10.18-1.2-7.57 6.23 10.59 14.98 19.47 20.52 30.45-7.04.07-1.63 16.36-10.98 15.49-.8 2.57 5.48 1.53 2.93 3.64-2.18 1.59 2.01 2.15 3.03 3.08-7.35 3.37-12.19 12.64-21.26 11.92-1.04-4.6 9.58-1.52 4.82-4.58-3.83-2.46 3.3-1.65 5.16-1.81 2.66-1.98 1.8-5.38-.48-7.23 4.15-1.22 1.76-3.41-1.36-3.88 1.49-1.28 8.11-2.78 3.23-3.23-8.37.15 2.09-11.93 6.2-6.45-5.11-4.83-6.66-13.4-14.12-15.2-2.06-3.27 4.22-1.24 2.49-4.39-1.9-3.29-2.23-9.06 1.02-10.24z"/><path fill="#b79c8f" d="M344.87 243.03c-2.48-2.54-1.33-8.14 2.88-6.94 3.08 2.29.44 5.98-2.17 7.3z"/><path fill="#2b302e" d="M364.25 243.11c-.62-1.38-.83-3.31.72-4.17.41 1.42.41 3.06-.72 4.17z" opacity=".46"/><path fill="#a88b8f" d="M336.34 241.95c3.5.69 5.97 3.63 9.44 4.54.58 3.01-4.03 3.22-3.63 6.8-2.93 2.68-6.96 3.67-10.9 2.6-3.06-5.12 2.32-10.14 5.09-13.94z"/><path fill="#6a6f81" d="M309.32 256.25c1.57-2.51.06-7.8 3.64-8.3 3.34 1.24 7.38.55 10.07 3.23-3.34-.59-9.57-3.45-10.66 1.33-1.98 3.66-2.19 7.97-4.16 11.62-.02-2.67.49-5.29 1.11-7.88z"/><path fill="#75777f" d="M323.03 251.18c2.44.2 4.23-.96 5.08-3.23.77 3.94-2.1 6.57-5.08 3.23z"/><path fill="#464d5e" d="M315.24 254.06c4.2-.86 6.67 5.37 10.91 3.16 4-1.62 5.08 5.9 9.87 2.74 4.04-1.37 1.66 7.54-3.03 2.05-5.27.57-11.34-3.03-15.7 1.26-2.93.56-1.97 5.44-5.28 4.77.89-4.7 2.02-9.35 3.23-13.98z"/><path fill="#8a7879" d="M348.23 260.07a54.54 54.54 0 0 1 3.57-5.34c-.53 2.67-2.16 5.34-.39 7.89-2.14 1.09-2.62 3.18-2.44 5.43l-.86.04c-.67-2.67-1.35-5.48.12-8.02z"/><path fill="#3e4554" d="M359.08 260.12c1.37-4.53 2.2-1.93 3.03 1.37-.1.36-.29 1.07-.38 1.42-1.37 4.18-5.07 7.22-7.51 10.09 3.95 6.28 6.6 13.46 4.74 21.03-3.43-2.89-6.35-6.62-6.84-11.81-1.81 1.03-3.82 1.16-5.85 1 1.26 3.68-3.84 2.26-.12 5.83-3.17.78-3.06-2.9-5.41-3.8-2.75-1.2-3.31 4.15-.54 4.52 3.05.38.37 3.25.14 5.01 1.62.59 3.26 1.12 4.92 1.63-14.9-1.71-30.19 1.46-45.24-.32-6.61-3.77-5.58 7.79-12.33 3.86 1.87-.9 3.81-1.66 5.55-2.81-7.92-3.39-21.7 4.23-26.43-4.01 5.15 3.99 11.02-1.58 16.02-3.44 3.46-4.19-3.25-9.93-3.18-3.71-5.66.19-2.59-5.73-.35-8.24 1.07 8.22 2.35-6.3 8.27-.24 2.94.42 6.39-1.31 8.67 1.37-1.47 2.12-6.23-1.44-5.19 2.07.65 2.01 4.03 1.68 5.21 3.67-1.27 1.85-8.01-.54-7.37 3.39 2.65 1.82 8.09-4.6 8.66.55 4.01 4.34 7.31-.47 11.39-1.63-1.55-2.53-3.78-4.85-3.81-7.98 1.47.77 2.88 1.68 4.42 2.34-2.59-6.14 9.6-7.1 5.65-.08 3.65-4.13 7.47-7.04 12.22-10.35.36 4.6 1.93 8.99 3.27 13.38.59-1.27-.48-3.99 1.28-4.28-2.69 9.15 1.47 3.22 3.82 1.96.17 1.45.34 2.9.52 4.36 2.17-4.78 2.82-12.61-3.23-14.55 1.17-1.53 2.4-3.57 4.52-3.69.19 2.33 2.55 8.05 5.02 4.6 1.57-2.18 6.17-.83 5.49-4.54l.86-.04c5.33 1.24 8.4-3.58 10.11-7.93z"/><path fill="#54596b" d="M148.09 277.35c9.35.87 3.94-15.42 10.98-15.49 1.24 2.98 3.98 4.97 5.13 8 .61 1.84 3.35 4.86 3.23.98.86 1.04 1.76 2.05 2.66 3.07l.19.69c-5.46 3.06-10.65 6.61-16.23 9.47-1.02-.93-5.21-1.49-3.03-3.08 2.55-2.11-3.73-1.07-2.93-3.64z"/><path fill="#4d5362" d="M354.22 273c2.44-2.87 6.14-5.91 7.51-10.09.14 1.95.38 3.93 1.2 5.73-.44.15-1.3.46-1.74.62 1.5 8.24 3.17 16.59 6.81 24.2v1.75c-7.43 1.91-15.27-1.21-22.74 1.2-1.66-.51-3.3-1.04-4.92-1.63.23-1.76 2.91-4.63-.14-5.01-2.77-.37-2.21-5.72.54-4.52 2.35.9 2.24 4.58 5.41 3.8-3.72-3.57 1.38-2.15.12-5.83 2.03.16 4.04.03 5.85-1 .49 5.19 3.41 8.92 6.84 11.81 1.86-7.57-.79-14.75-4.74-21.03z"/><path fill="#727485" d="M265.78 271.78c13.58-4.7 30.65 2.04 42.43-7.65-1.22 2.29-2.33 5.4-5.3 5.73-12.37.72-24.74 1.87-37.13 1.92z"/><path fill="#343e44" d="M361.19 269.26c.44-.16 1.3-.47 1.74-.62 2.68 2.05 2.18 6.19 5.07 8.01v16.81c-3.64-7.61-5.31-15.96-6.81-24.2z"/><path fill="#727484" d="M241.94 275.94c6.95-3.11 14.71-4.2 22.28-3.73-7.33 1.71-14.88 2.33-22.28 3.73z"/><path fill="#6d7180" d="M175.97 289.88c21.11-7.44 43.88-10.21 65.97-13.94-17.9 5.49-36.78 7.16-54.76 12.32-3.41 2-7.31 2.17-11.21 1.62z"/><path fill="#6e7286" d="M152.75 295.84c7.64-2.31 15.39-4.39 23.22-5.96-6.84 4.64-14.7 7.94-23.22 5.96z"/><path fill="#525664" d="M34.2 301.99c6.92.01 13.83.05 20.75.01 21.82.56 43.78-1.23 65.5 1H34.01z"/><path fill="#464b5b" d="M129.55 303c38.5-1.67 77.42-1.67 115.92 0z"/></svg>