<svg xmlns="http://www.w3.org/2000/svg" width="72" height="62"><path fill="#00247d" d="M64 10H8c-.41 0-.814.03-1.208.09l-.008 3.508-5.46-.008A7.968 7.968 0 0 0 0 18v36a8 8 0 0 0 8 8h56a8 8 0 0 0 8-8V18a8 8 0 0 0-8-8z"/><path fill="#f9d050" d="M67.48 45.44c-.558.08-.792.88-1.032 1.36 0 0-.558.48-1.44.4 0 0 .404-.64.802-1.282.4-.638.162-1.44-.398-1.518-.558-.082-.638-.402-1.36-1.04-.72-.64-2-.72-2.24-.16-.24.558-1.362.96-1.2 1.76.158.8.558 1.84.958 2.48 0 0-1.892 1.2-3.414 1.76-1.52.56-2.622.64-2.622.64s-1.598-.08-3.118-.64c-1.522-.56-2.968-1.76-2.968-1.76.398-.64.798-1.68.962-2.48.158-.798-.962-1.202-1.202-1.76-.24-.56-1.52-.48-2.24.16-.72.638-.798.958-1.362 1.04-.558.078-.8.878-.4 1.518s.796 1.282.796 1.282c-.88.08-1.442-.4-1.442-.4-.24-.48-.488-1.28-1.048-1.36s-.572.478-.492 1.042c.08.558.45 1.6.688 2.238.24.64.662.72 1.544.88.88.16 2.204-.558 2.204-.558C50.58 52.08 55.072 52 55.072 52s4.93.08 8.05-2.958c0 0 1.544.718 2.426.558.88-.16 1.414-.24 1.652-.88.24-.638.668-1.68.748-2.238.084-.564.094-1.122-.468-1.042z"/><path fill="#db1c1c" d="M67.176 48.638s.638-1.918.798-2.56c.16-.638-.48-.88-.958-.48-.48.402-1.202 2.722-1.202 2.722s.24-.48.72-.402c.482.082.642.72.642.72zm-3.842-2.958s.88-1.042.96-1.682c.08-.638-.8-1.44-1.442-1.36-.638.08-1.12.56-.958 1.12.16.56.718 1.682.718 1.682s0-.16.322-.16c.32 0 .4.4.4.4zm-19.482 2.958s-.64-1.918-.802-2.56c-.158-.638.48-.88.96-.48.48.402 1.202 2.722 1.202 2.722s-.24-.48-.72-.402c-.482.082-.64.72-.64.72zm3.84-2.958s-.88-1.042-.96-1.682c-.08-.638.8-1.44 1.44-1.36s1.122.56.96 1.12c-.16.56-.72 1.682-.72 1.682s0-.16-.318-.16c-.322 0-.402.4-.402.4z"/><path fill="#cf1b2b" d="M55.534 31.676h-6.462v5.856h14v-5.856z"/><path fill="#fff" d="M60.542 46.716c1.12-1.362 2.53-3.838 2.53-7.28v-2.972c-.428-.008-.89-.048-1.006-.014-.738.212-.862.986-1.758.986-1.038 0-1.322-1.04-2.362-1.04-1.042 0-1.382 1.04-2.422 1.04-.878 0-1.61-1.04-2.41-1.04s-1.686 1.04-2.406 1.04c-.636 0-1.056-.81-1.638-1l.004 3c0 2.392.486 4.292 1.054 5.728.33.834 1.246 2.084 1.412 2.214 0 0 1.89.41 2.988 2.338 0 0 .196.142 1.028.142s1.014-.184 1.014-.184c1.094-1.998 2.972-1.742 3.972-2.958z"/><path fill="#0b50a0" d="M50.462 41.758c.958 0 2.158-.878 2.798-.878s1.2.878 2.08.878 2-.878 2.56-.878 1.44.878 2.318.878c.88 0 1.2-.878 1.998-.878.16 0 .632.062.76.118.082-.522.122-1.396.094-2.212-.334-.008-.568-.02-.728-.02-.094 0-.212-.018-.346.028-.68.238-.822.966-1.692.966-1.038 0-1.322-1.04-2.362-1.04-1.042 0-1.382 1.04-2.422 1.04-.878 0-1.61-1.04-2.41-1.04s-1.686 1.04-2.406 1.04c-.494 0-.854-.49-1.262-.796a1.149 1.149 0 0 0-.372-.186c-.048 1.108.06 2.206.06 2.206.396.23.578.774 1.332.774zm7.528 4.722c-1.03 0-1.358 1.01-2.37 1.032-1.012-.022-1.342-1.032-2.37-1.032-.696 0-1.25.592-1.712.9.534.338 1.31.552 2.326 1.306.724.538 1.756.594 1.756.594s1.032-.058 1.756-.594c1.018-.754 1.794-.968 2.326-1.306-.46-.308-1.016-.9-1.712-.9zm4.622-4.242c-1.12 0-1.036 1.04-2.074 1.04-1.042 0-1.282-1.04-2.32-1.04-1.042 0-1.362 1.04-2.4 1.04-.882 0-1.602-1.04-2.402-1.04-.798 0-1.68 1.04-2.398 1.04-.548 0-1.144-.604-1.714-.894 0 0 .278 1.67.81 2.748.182.08.428.146.662.146.96 0 2.158-.878 2.8-.878.64 0 1.2.878 2.08.878s2-.878 2.56-.878 1.44.878 2.318.878c.57 0 .96-.384 1.344-.644.368-.676.646-1.456.868-2.39a1.406 1.406 0 0 0-.134-.006z"/><path fill="#059334" d="M51.682 39.668l.71-2.414.73 2.408 2.516-.072-2.064 1.44.844 2.37-2.006-1.52-1.994 1.538.824-2.378-2.076-1.422zm7.362 0l.708-2.414.732 2.408L63 39.59l-2.066 1.44.846 2.37-2.008-1.52-1.992 1.538.824-2.378-2.078-1.422z"/><path fill="#059334" d="M55.364 43.988l.708-2.416.732 2.41 2.516-.07-2.066 1.438.846 2.37-2.006-1.516-1.996 1.534.826-2.376-2.078-1.424z"/><path fill="#f9d050" d="M50.368 32.196c.5-.41.96.24 1.042.64.08.4.56.96 1.04.96 0 0 .32-.96.56-1.44s.88-.64 1.282-.48c.4.16 1.12.08 1.04.8s-.32 1.04-.32 1.04 1.44.08 2.08 0 1.362-.48 1.842-.24c.478.24 1.2.32 1.44.16s.4-.64-.16-.56c-.56.082-1.04.082-1.52.162-.48.078-2.56.16-2.56-.48s.798-.72.958-.64c.162.08 1.362-.8 1.602-.4s.24.88-.48.88-1.762-.16-1.762.08.322.4.802.4c.478 0 1.28-.32 1.838-.32.56 0 1.362-.64 1.84-.24.48.4.88.96.48 1.2-.398.24-1.84.32-2.32.24 0 0 .56.32 1.042.4.48.082 1.44.24 1.362.72-.082.48.158 1.12-.48 1.04-.64-.08-.56-.4-.4-.64s-.24-.48-.96-.4c-.718.08-1.6-.32-1.6-.32s-.24.64.08.8c0 0-.96.4-1.52.48s-1.12.32-1.12 0 .4-.8.72-.64.878-.082 1.042-.082c.158 0-.562-.48-.162-.64s-.318-.24-.718 0-2.8.88-3.602 1.2c-.798.32-1.52.24-1.84.4s-.958-.24-.64-.64c.32-.4.48-.64.72-.4s.64.16 1.2 0-.318-.32-.478-.48-.8-1.12-.8-1.36c-.01-.24-1.45-.48-.57-1.2zm2.966-6.038c-.48-.72-1.92-1.68-1.92-1.68l1.36.4s-.64-.88-1.36-1.04c.158 0 1.44.16 1.838.48 0 0-1.12-1.28-1.68-1.52 0 0 1.362.4 1.842.88l-.56-1.2s1.04.48 1.36 1.12c0 0-.32-1.28-.96-1.92 0 0 .96.562 1.284 1.04l.236-1.142.706.636.482-.888.564.918.97-1.006s-.24.78-.32 1.502c0 0 .4-.65 1.28-.97 0 0-1.12 1.716-1.28 2.356 0 0 1.6-1.584 2.64-1.984 0 0-1.442 1.69-1.84 2.33 0 0 1.2-1.036 2.318-1.356 0 0-1.44 1.522-1.68 1.842 0 0 .8-.32 1.84-.24 0 0-2.398 1.36-2.958 1.84-.562.48-4.162-.398-4.162-.398z"/><path fill="#fff" d="M52.196 29.688c-.864.158-1.1.63-1.022 1.102s.63.864 1.178.628c.55-.236.804-.352 1.024-.392.534-.098 1.258-.314 1.258-.314s.866.156 1.338 0c0 0 .864.392 1.572.078 0 0 1.73.786 2.516.472s.144-1.368-.236-1.494c-.708-.236-2.438-.472-3.776-.55-1.336-.08-3.852.47-3.852.47z"/><path fill="#073163" d="M59.894 29.758c-.294-.098-.766-.198-1.31-.286 0 0 .11.444.19.924.054.322.072.678.246.878.41.13.826.116 1.116 0 .798-.316.146-1.388-.242-1.516zm-4.686-.546c.246.288.398 1.042.742 1.514.124.076.916.428 1.59.088.074-.134-.56-1.542-.56-1.542-.318-.032-1.466-.082-1.772-.06zm-1.72 1.792c.122.074 1.086-.21 1.086-.276-.012-.126-.12-.3-.278-.652-.13-.284-.3-.516-.482-.706-.79.12-1.466.26-1.634.296.336.572.706.978 1.308 1.338z"/><path fill="#059334" d="M49.574 26.478s.24-.882 1.28-.882.56.64 1.76.72c1.202.08 5.442.64 6.08.96.64.32 1.442.24 1.84.16.4-.082.082.4-.318.64s-1.202.08-1.202.08.882.8 1.122 1.36 0 .8-.4.56-.88.24-.962-.08c-.08-.32-.878-1.44-.878-1.44s-2.32-.32-2.96.24c-.638.56-1.424.768-2.72.64-.798-.08-1.28-.48-1.118-.96.16-.48.558-.64.558-.64s-.08-.96-.398-.72c-.32.24-1.042.08-1.122-.08-.082-.158-.562-.558-.562-.558z"/><path fill="#059334" d="M52.132 26.158c.344-.206 2-.96 3.282-.88 1.28.08 2.08.4 2.958.88.882.48.8.88 1.282 1.04.48.16.24.4 0 .64s-1.042 1.6-3.602 1.52-2.8-.8-3.2-1.12-.64-1.12-.64-1.36-.478-.482-.08-.72z"/><path fill="#00493d" d="M56.934 28.558c.868-.238 2.044-.552 2.616-1.404-.368-.182-.368-.556-1.176-.996-.878-.48-1.68-.8-2.958-.88-.904-.058-1.998.302-2.682.592-.038.566-.038 1.248-.038 1.248s.72.4 1.28.88c.558.48 2.076.8 2.958.56z"/><path fill="#00247d" d="M38 36V10H8c-.64 0-1.208.09-1.208.09l-.008 3.508-5.46-.008s-.084.118-.254.41A7.977 7.977 0 0 0 0 18v18z"/><path fill="#eee" d="M38 10h-4.662L24 16.538V10H14v5.138L6.792 10.09a7.885 7.885 0 0 0-3.344 1.33L12.852 18H9.38l-7.446-5.218a8.3 8.3 0 0 0-.61.808L7.626 18H0v10h7.77L0 33.532V36h6.664L14 30.864V36h10v-6.538L33.336 36H38v-4.058L32.37 28H38V18h-5.628L38 14.058z"/><path fill="#cf1b2b" d="M22 10h-6v10H0v6h16v10h6V26h16v-6H22z"/><path fill="#cf1b2b" d="M38 10h-2.922L24 17.758V18h3.142L38 10.396zM3.448 11.42a8.104 8.104 0 0 0-1.514 1.362L9.38 18h3.47zM12.874 28L1.468 36h3.454L14 29.644V28zM38 35.604v-2.44L30.626 28H27.14z"/><path fill="#f4900c" d="M72 20.054c0-2.176-.387-4.263-1.098-6.194-.485 5.689-3.518 8.611-6.687 7.25-2.969-1.275-.968-6.246-.82-8.618.249-4.021-.013-8.623-7.317-12.45 3.035 5.806.352 9.413-2.463 9.633-3.122.243-5.982-2.684-4.926-7.434-3.418 2.519-3.518 6.758-2.463 9.5 1.1 2.859-.044 5.234-2.727 5.498-2.998.296-4.663-3.21-3.127-8.796a17.872 17.872 0 0 0-4.263 11.611C36.109 29.966 44.143 38 54.054 38 63.966 38 72 29.966 72 20.054z"/><path fill="#ffcc4d" d="M65.027 25.332c.156 3.255-2.704 4.531-4.243 3.915-2.223-.89-1.627-2.419-2.199-5.585-.572-3.167-2.771-5.366-6.025-6.334 2.375 6.685-1.317 9.149-3.252 9.589-1.976.45-3.961-.001-4.188-4.23a12.627 12.627 0 0 0-3.733 8.979c0 .389.024.771.058 1.151A17.88 17.88 0 0 0 54.054 38a17.88 17.88 0 0 0 12.61-5.183c.034-.38.058-.762.058-1.151 0-2.308-.617-4.471-1.695-6.334z"/></svg>