<svg xmlns="http://www.w3.org/2000/svg" width="526pt" height="472pt" viewBox="0 0 526 472"><g fill="#fff"><path d="M183.2 46.08c24.52-11.97 53-15.55 79.73-10.08 31.03 6.13 59.34 24.63 77.58 50.44 13.69 19.08 21.77 42.09 23.12 65.53-5.55-5.46-10.95-11.3-17.74-15.24-3.42-1.69-6.43 3.45-3.65 5.8 11.53 8.47 22.5 19.07 27.28 32.91 3.02 8.7 1.36 18.61-3.87 26.12-7.68 11.23-19.63 18.46-31.38 24.77-2.48 1.08-2.43 5.26.16 6.17 2.68 1.07 5.08-1.27 7.42-2.17-13.36 19.5-32.26 35.17-53.98 44.52-23.39 10.17-49.9 12.94-74.89 7.81-26.95-5.37-51.86-20.03-69.87-40.76-16.74-19.13-27.46-43.44-30.17-68.72-3.14-28.89 3.73-59.05 20.1-83.17 2.15-3.07 4.59-5.92 6.68-9.03 11.46-14.82 26.7-26.65 43.48-34.9m-55.95 56.88c-.04 2.04-.44 4.19.42 6.13 2.64 1.39 5.81.7 8.68.91-7.24 4.52-11.78 13.23-10.29 21.78 1.14 9.51 9.43 17.49 18.97 18.28 11.64 1.64 23.38-8.09 23.73-19.87.79-8.07-3.63-16.08-10.52-20.19 6.6-.07 13.21-.1 19.81-.02 4.07.35 6.57-5.08 3.95-8.09-1.86-2.55-5.31-1.79-8.01-1.91-14.67.22-29.36-.37-44.01.34l-2.73 2.64m90.15-.5c-2.8 2.56-1.27 7.97 2.57 8.44 4.07.27 8.16.05 12.23.07-5.6 4.14-9.31 10.95-8.97 17.99-.24 9.44 6.83 18.23 15.89 20.52 6.34 1.7 13.44.35 18.64-3.68 6.62-4.89 9.8-13.88 7.91-21.87-1.06-5.24-4.39-9.73-8.57-12.95 7.99.03 15.99.07 23.98 0 2.69.18 5.14-2.35 4.96-5.02.13-2.64-2.29-5.1-4.94-4.93-19.38-.08-38.77.04-58.15-.05-1.92.02-4.18-.16-5.55 1.48m1.8 68.46c-17.27 9.35-32.72 21.9-46.24 36.09-2.33 1.94-.99 6.15 2.1 6.21 2.97-.56 5.76-1.98 8.83-2.16 9.23-.75 18.24 3.1 25.49 8.58 1.27 1.08 2.86 1.66 4.51 1.82 20.59 2.82 41.44 4.65 62.22 3.21 9.2-.81 18.74-2.1 26.85-6.84 5.19-2.99 9.01-8.66 8.59-14.81-2.28-3.35-2.38-7.61-4.45-11.07-8.19-14.86-22-27.57-39.03-30.91-16.85-3.34-34.06 2.02-48.87 9.88m101.39 38.75c-2.1 1.1-2.31 4-1.33 5.93 1.89 2.98 7.22 1.91 7.71-1.66.71-3.41-3.51-6.09-6.38-4.27m-.2 9.75c-2.17 2.11-1.38 6.58 1.78 7.26 3.17 1.34 6.77-2.42 5.4-5.58-.9-2.98-4.99-3.77-7.18-1.68m-17.24 5.8c-1.84.6-2.78 2.83-2.16 4.61.53 2.77 4.65 3.71 6.38 1.48 2.79-2.67-.62-7.83-4.22-6.09z"/><path d="M289.17 203.19c5.15-2.18 10.95-.46 15.39 2.53-1.29 2.78-3.37 5.12-6.11 6.51-7.46 3.97-16.06 4.84-24.33 5.59 3.57-6.04 8.43-11.85 15.05-14.63zm32.86 9.23c1.65-.48 2.2.08 1.65 1.68-1.66.46-2.21-.1-1.65-1.68zm1.04 8.75c1.83-.66 2.73 2.37.85 2.85-1.88.65-2.92-2.42-.85-2.85zm-19.23 6.95c1.3-.64 1.81-.23 1.54 1.24-1.33.62-1.84.2-1.54-1.24zm23.92 78.85c4.55-1.49 8.89-3.52 13.41-5.11 4.83.33 9.63 1.2 14.44 1.8 9.67 10.75 18.04 22.79 23.71 36.14 4.9 11.29 7.88 23.37 9.17 35.6-14.9-1.61-29.71-3.97-44.41-6.85 2.54-2.67 5.4-5.05 7.71-7.93 2.17-3.52-1.75-8.2-5.63-6.51-5.67 4.12-9.41 10.61-15.63 14.02-.93-.36-1.86-.71-2.78-1.05.02-20.04 0-40.07.01-60.11zm53.7.01c24.37 3.27 48.76 6.35 73.12 9.63-1.31 19.74-2.52 39.49-3.96 59.23-14.54 1.81-29.24 2.08-43.84 1.09-1.89-25.06-10.71-49.5-25.32-69.95zm82.97 12.5c3.17 1.18 6.29 2.45 9.43 3.73-.98 16.02-2.03 32.04-3.16 48.06-3.24 1.05-6.53 1.9-9.82 2.7 1.13-18.16 2.4-36.32 3.55-54.49zM237 385c26.47-13.62 58.18-17.84 86.77-8.65-1.98 1.99-3.96 3.99-5.95 5.98-2-1.13-4.22-1.74-6.51-1.86-3.11-4.65-9.93-5.23-13.79-1.17-3.4-4.47-10.45-4.8-13.97-.3-3.08-4.85-10.29-5.44-14.05-1.07-2.34-1.33-5.05-2.57-7.78-1.62-3.42.69-5.37 3.89-6.19 7.04-3.31 1.28-5.44 4.24-5.92 7.72-4.26-1.91-8.56-3.74-12.61-6.07z"/><path d="M271.62 380.76c1.56-3.54 6.21-3.36 8.81-1.1-2.14 1.53-4.01 3.41-4.91 5.92-.98.5-1.95.99-2.93 1.49-1.19-1.87-2.39-4.2-.97-6.31zm-13.01 2.07c1.28-2.36 4.03-4.71 6.85-3.49 1.45.31 2.15 1.68 2.99 2.76-2.1.47-4.14 1.15-6 2.24-1.28-.51-2.57-1.01-3.84-1.51zm27.96-2.27c1.63-2.28 4.55-1.84 6.92-1.3-3.26 2.1-5.02 5.43-5.96 9.1-2.28-1.9-3.26-5.52-.96-7.8zm12.79 6.36c-1.66-2.85.52-6.65 3.6-7.27 1.88-.71 3.6.91 5.26 1.55-2.51 2.33-4.36 5.34-4.24 8.91-1.71-.73-3.83-1.32-4.62-3.19zm-8.28.48c.59-2.52 2.32-4.39 4.59-5.55-.24 2.86 1.5 5.87.12 8.56-1.57-1.02-3.12-2.03-4.71-3.01zm-12.59.48c-.32-2.44 1.73-4.16 3.52-5.41.12 2.42.75 4.77 1.88 6.91-.97.98-1.95 1.95-2.93 2.92-.98-1.35-2.44-2.62-2.47-4.42zm49.95-4.33c4.45 1.04 8.86 2.29 13.4 2.95-3.2 1.82-6.47 3.53-9.84 5.02-.12-3.07-1.69-5.66-3.56-7.97zm-20.38 2.41c1.56-2.58 5.01-2.7 7.53-1.62-2.38 2.71-4.99 5.21-7.59 7.71-.59-1.96-1.33-4.27.06-6.09zm-45.54 5.03c.52-2.91 2.46-5.16 5.39-5.75.96 1.58 1.97 3.15 3.04 4.67-2.88-.36-5.79-.2-8.43 1.08zm-7.41-3.88c1.52-1.24 3.54-.72 5.32-.6-.64 2.69-.68 5.42-.05 8.12-2.7-.65-5.35-1.51-7.91-2.59.64-1.74.92-3.87 2.64-4.93zm65.85 4.81c1.86-1.88 3.7-3.77 5.69-5.51 1.54 1.8 2.37 4 2.12 6.39-1.89.74-3.81 1.41-5.72 2.07-.7-.99-1.4-1.98-2.09-2.95zm-47.85-.58c.74-.81 1.49-1.61 2.25-2.42.49 1.24.99 2.48 1.5 3.72-.68.42-1.36.85-2.03 1.28-.58-.86-1.15-1.72-1.72-2.58zm11.71.91c2.53-1.94 5.68-2.06 8.32-.26-1.88 1.07-3.66 2.32-5.12 3.93-1.06-1.23-2.13-2.45-3.2-3.67zm13.6-1.07c2 .89 4.04 1.81 6.3 1.61a45.7 45.7 0 0 0-3.81 1.23c-.97-.58-1.95-1.14-2.92-1.7.11-.28.32-.85.43-1.14zm161.14 1.45c3.34-.64 6.67-1.34 9.98-2.15-1.19 16.66-2.2 33.34-3.33 50.01-2.8-3.64-5.75-7.17-8.99-10.43.63-12.48 1.68-24.95 2.34-37.43zm-82.3-.46c3.9.55 7.82.99 11.74 1.42 0 .39.01 1.18.02 1.58-3.92-1.02-7.84-2.01-11.76-3zm-114.58 3.17c1.56-1.27 3.16-3.01 5.4-2.61 2.88-.06 4.11 2.82 5.16 4.99-3.58-.5-7.12-1.28-10.56-2.38zm48.67-.64c2.72-2.58 6.68-1.81 8.89 1-2.26.68-4.55 1.26-6.82 1.87-.69-.96-1.38-1.92-2.07-2.87z"/><path d="M349.99 393.4c-11.19 15.69-24.18 31.17-41.79 39.81-11.39 5.76-25.38 6.23-36.9.57-17.13-8.19-29.19-23.78-38.75-39.7 22.29 12.07 48.23 17.69 73.5 14.91 15.53-2 30.64-7.3 43.94-15.59z"/><path d="M275.45 398.23c1.49-2.06 3.75-4.22 6.54-3.38 2.31.43 3.2 2.76 4.23 4.57-3.61-.21-7.2-.6-10.77-1.19zm14.41 1.45c1.02-1.77 1.99-3.99 4.2-4.49 1.62-.56 3.18.42 4.72.85-.31.86-.92 2.59-1.22 3.46-2.56.19-5.13.29-7.7.18zm15.04-3.83c2.13-.61 3.85 1.11 5.47 2.22a73.52 73.52 0 0 1-9.8 1.23c1.16-1.45 2.35-3.14 4.33-3.45zm102.16-.89c14.14.97 28.36.68 42.45-.82-.67 9.25-1.29 18.51-1.82 27.78-12.25-9.49-26.47-16.09-41-21.28.12-1.89.25-3.79.37-5.68zM0 420.87c74.12-11.3 148.82-19.64 223.8-21.82 10.64 17.96 24.52 35.35 43.95 44.19 13.82 6.39 30.3 5.93 44.01-.55 17.04-7.97 30.32-21.99 41.6-36.72 12.78 2.1 25.45 4.9 37.85 8.62 17.44 5.35 34.74 12.52 48.85 24.34 10.23 8.48 17.92 20.07 20.96 33.07H0z"/></g><g fill="#010101"><path d="M204.46 30.85c32.97-8.72 69.28-4.07 98.89 12.88 29.66 16.63 52.48 45.11 61.92 77.81 3.8 12.43 5.57 25.48 5.51 38.47 0 3.2 2.43 5.67 3.58 8.52 3.03 7.18 4.8 15.25 2.92 22.97-2.05 10.42-8.76 19.3-16.71 26.06-2.34 1.96-5.11 3.6-6.59 6.37-6.85 12.81-16.27 24.1-26.82 34.02 9.28 5.28 17.67 11.92 26.11 18.4 6.16-.6 12.07-2.72 18.2-3.6 5-1.07 10.03-2.04 15.09-2.84 25.7-4.14 52.19-7.02 78.01-2.17 16.76 3.04 33.96 10.23 44.16 24.5 10.49 14.33 12.29 33.34 8.56 50.31-1.3 6.48-3.19 12.88-5.73 18.99-6.26 12.77-18.94 20.55-31.71 25.69-.66 4.26-.92 8.56-.96 12.87-1.39 18.86-2.45 37.74-3.8 56.6 1.42 5.08 3.32 10.05 4.14 15.3h-18.21c-3.04-13-10.73-24.59-20.96-33.07-14.11-11.82-31.41-18.99-48.85-24.34-12.4-3.72-25.07-6.52-37.85-8.62-11.28 14.73-24.56 28.75-41.6 36.72-13.71 6.48-30.19 6.94-44.01.55-19.43-8.84-33.31-26.23-43.95-44.19-74.98 2.18-149.68 10.52-223.8 21.82v-18.3c72.94-10.72 146.34-19.14 220.05-21.36 3.94.31 7.15-2.22 10.41-4.02 26.5-14.28 58.01-19.43 87.52-12.87.01-18.01.08-36.02-.03-54.03-37.93 10.66-77.85 12.54-116.92 8.73-50.3-4.72-99.74-17.17-146.93-35.07-6.51-1.62-8.54-11.19-3.31-15.28 2.87-2.72 7.35-2.91 10.72-1 41.27 15.69 84.38 26.67 128.2 32.22 22.96 2.55 46.17 4.3 69.25 2.28 17.95-.98 35.83-3.92 53.09-9 2.51-.81 5.95-.94 6.46-4.18 2.28.05 4.56.12 6.84.01 3.07-1.56 6.35-2.68 9.45-4.2-6.74-5.28-13.97-9.94-21.4-14.19-1.65-1.5-3.27.41-4.75 1.14-34.6 22.22-79.88 26.51-118.14 11.55-34.24-12.84-62.6-40.7-75.81-74.82-12.77-31.49-12.68-68.01.48-99.36 3.11-6.24 5.44-12.89 9.32-18.72 17.55-29.23 46.93-51.09 79.96-59.55M183.2 46.08c-16.78 8.25-32.02 20.08-43.48 34.9-2.09 3.11-4.53 5.96-6.68 9.03-16.37 24.12-23.24 54.28-20.1 83.17 2.71 25.28 13.43 49.59 30.17 68.72 18.01 20.73 42.92 35.39 69.87 40.76 24.99 5.13 51.5 2.36 74.89-7.81 21.72-9.35 40.62-25.02 53.98-44.52-2.34.9-4.74 3.24-7.42 2.17-2.59-.91-2.64-5.09-.16-6.17 11.75-6.31 23.7-13.54 31.38-24.77 5.23-7.51 6.89-17.42 3.87-26.12-4.78-13.84-15.75-24.44-27.28-32.91-2.78-2.35.23-7.49 3.65-5.8 6.79 3.94 12.19 9.78 17.74 15.24-1.35-23.44-9.43-46.45-23.12-65.53-18.24-25.81-46.55-44.31-77.58-50.44-26.73-5.47-55.21-1.89-79.73 10.08m243.19 237.27c-7.32.41-14.59 1.11-21.88 1.8-2.3.59-4.67.81-7.03 1.03-2.29.58-4.64.8-6.99.99-7.11 1.68-14.42 2.45-21.49 4.33 1.29 1.48 2.61 2.96 3.96 4.4 17.51 2.26 35.05 4.45 52.53 6.93 2.67.19 5.36.43 7.99 1 10.34 1.49 20.83 2.21 31.06 4.33 1.51 1.03 3.17 1.83 4.82 2.62 1.72.52 3.41 1.17 5.05 1.93 1.69.59 3.36 1.26 4.99 2.04 1.54.52 3.07 1.09 4.6 1.65.08 5.25-.13 10.52-.88 15.72-.19 4.77-.22 9.55-.78 14.3-.4 6.94-.9 13.88-1.41 20.82 5.2-3.39 10.84-6.86 13.88-12.48 5.01-11.55 7.62-24.43 5.67-36.97-1.54-9.64-7.29-18.37-15.48-23.66-11.96-7.69-26.44-10.04-40.4-10.77-6.03-.59-12.18-.59-18.21-.01m-98.63 23.62c-.01 20.04.01 40.07-.01 60.11.92.34 1.85.69 2.78 1.05 6.22-3.41 9.96-9.9 15.63-14.02 3.88-1.69 7.8 2.99 5.63 6.51-2.31 2.88-5.17 5.26-7.71 7.93 14.7 2.88 29.51 5.24 44.41 6.85-1.29-12.23-4.27-24.31-9.17-35.6-5.67-13.35-14.04-25.39-23.71-36.14-4.81-.6-9.61-1.47-14.44-1.8-4.52 1.59-8.86 3.62-13.41 5.11m53.7.01c14.61 20.45 23.43 44.89 25.32 69.95 14.6.99 29.3.72 43.84-1.09 1.44-19.74 2.65-39.49 3.96-59.23-24.36-3.28-48.75-6.36-73.12-9.63m82.97 12.5c-1.15 18.17-2.42 36.33-3.55 54.49 3.29-.8 6.58-1.65 9.82-2.7 1.13-16.02 2.18-32.04 3.16-48.06-3.14-1.28-6.26-2.55-9.43-3.73M237 385c4.05 2.33 8.35 4.16 12.61 6.07.48-3.48 2.61-6.44 5.92-7.72.82-3.15 2.77-6.35 6.19-7.04 2.73-.95 5.44.29 7.78 1.62 3.76-4.37 10.97-3.78 14.05 1.07 3.52-4.5 10.57-4.17 13.97.3 3.86-4.06 10.68-3.48 13.79 1.17 2.29.12 4.51.73 6.51 1.86 1.99-1.99 3.97-3.99 5.95-5.98-28.59-9.19-60.3-4.97-86.77 8.65m34.62-4.24c-1.42 2.11-.22 4.44.97 6.31.98-.5 1.95-.99 2.93-1.49.9-2.51 2.77-4.39 4.91-5.92-2.6-2.26-7.25-2.44-8.81 1.1m-13.01 2.07c1.27.5 2.56 1 3.84 1.51 1.86-1.09 3.9-1.77 6-2.24-.84-1.08-1.54-2.45-2.99-2.76-2.82-1.22-5.57 1.13-6.85 3.49m27.96-2.27c-2.3 2.28-1.32 5.9.96 7.8.94-3.67 2.7-7 5.96-9.1-2.37-.54-5.29-.98-6.92 1.3m12.79 6.36c.79 1.87 2.91 2.46 4.62 3.19-.12-3.57 1.73-6.58 4.24-8.91-1.66-.64-3.38-2.26-5.26-1.55-3.08.62-5.26 4.42-3.6 7.27m-8.28.48c1.59.98 3.14 1.99 4.71 3.01 1.38-2.69-.36-5.7-.12-8.56-2.27 1.16-4 3.03-4.59 5.55m-12.59.48c.03 1.8 1.49 3.07 2.47 4.42.98-.97 1.96-1.94 2.93-2.92a16.506 16.506 0 0 1-1.88-6.91c-1.79 1.25-3.84 2.97-3.52 5.41m49.95-4.33c1.87 2.31 3.44 4.9 3.56 7.97 3.37-1.49 6.64-3.2 9.84-5.02-4.54-.66-8.95-1.91-13.4-2.95m-20.38 2.41c-1.39 1.82-.65 4.13-.06 6.09 2.6-2.5 5.21-5 7.59-7.71-2.52-1.08-5.97-.96-7.53 1.62m-45.54 5.03c2.64-1.28 5.55-1.44 8.43-1.08a82.877 82.877 0 0 1-3.04-4.67c-2.93.59-4.87 2.84-5.39 5.75m-7.41-3.88c-1.72 1.06-2 3.19-2.64 4.93 2.56 1.08 5.21 1.94 7.91 2.59-.63-2.7-.59-5.43.05-8.12-1.78-.12-3.8-.64-5.32.6m65.85 4.81c.69.97 1.39 1.96 2.09 2.95 1.91-.66 3.83-1.33 5.72-2.07.25-2.39-.58-4.59-2.12-6.39-1.99 1.74-3.83 3.63-5.69 5.51m-47.85-.58c.57.86 1.14 1.72 1.72 2.58.67-.43 1.35-.86 2.03-1.28-.51-1.24-1.01-2.48-1.5-3.72-.76.81-1.51 1.61-2.25 2.42m11.71.91c1.07 1.22 2.14 2.44 3.2 3.67 1.46-1.61 3.24-2.86 5.12-3.93-2.64-1.8-5.79-1.68-8.32.26m13.6-1.07c-.11.29-.32.86-.43 1.14.97.56 1.95 1.12 2.92 1.7a45.7 45.7 0 0 1 3.81-1.23c-2.26.2-4.3-.72-6.3-1.61m161.14 1.45c-.66 12.48-1.71 24.95-2.34 37.43 3.24 3.26 6.19 6.79 8.99 10.43 1.13-16.67 2.14-33.35 3.33-50.01-3.31.81-6.64 1.51-9.98 2.15m-82.3-.46c3.92.99 7.84 1.98 11.76 3a84.3 84.3 0 0 1-.02-1.58c-3.92-.43-7.84-.87-11.74-1.42m-114.58 3.17c3.44 1.1 6.98 1.88 10.56 2.38-1.05-2.17-2.28-5.05-5.16-4.99-2.24-.4-3.84 1.34-5.4 2.61m48.67-.64c.69.95 1.38 1.91 2.07 2.87 2.27-.61 4.56-1.19 6.82-1.87-2.21-2.81-6.17-3.58-8.89-1m38.64-1.3c-13.3 8.29-28.41 13.59-43.94 15.59-25.27 2.78-51.21-2.84-73.5-14.91 9.56 15.92 21.62 31.51 38.75 39.7 11.52 5.66 25.51 5.19 36.9-.57 17.61-8.64 30.6-24.12 41.79-39.81m-74.54 4.83c3.57.59 7.16.98 10.77 1.19-1.03-1.81-1.92-4.14-4.23-4.57-2.79-.84-5.05 1.32-6.54 3.38m14.41 1.45c2.57.11 5.14.01 7.7-.18.3-.87.91-2.6 1.22-3.46-1.54-.43-3.1-1.41-4.72-.85-2.21.5-3.18 2.72-4.2 4.49m15.04-3.83c-1.98.31-3.17 2-4.33 3.45 3.29-.19 6.56-.6 9.8-1.23-1.62-1.11-3.34-2.83-5.47-2.22m102.16-.89c-.12 1.89-.25 3.79-.37 5.68 14.53 5.19 28.75 11.79 41 21.28.53-9.27 1.15-18.53 1.82-27.78a243.69 243.69 0 0 1-42.45.82z"/><path d="M127.25 102.96l2.73-2.64c14.65-.71 29.34-.12 44.01-.34 2.7.12 6.15-.64 8.01 1.91 2.62 3.01.12 8.44-3.95 8.09-6.6-.08-13.21-.05-19.81.02 6.89 4.11 11.31 12.12 10.52 20.19-.35 11.78-12.09 21.51-23.73 19.87-9.54-.79-17.83-8.77-18.97-18.28-1.49-8.55 3.05-17.26 10.29-21.78-2.87-.21-6.04.48-8.68-.91-.86-1.94-.46-4.09-.42-6.13zm90.15-.5c1.37-1.64 3.63-1.46 5.55-1.48 19.38.09 38.77-.03 58.15.05 2.65-.17 5.07 2.29 4.94 4.93.18 2.67-2.27 5.2-4.96 5.02-7.99.07-15.99.03-23.98 0 4.18 3.22 7.51 7.71 8.57 12.95 1.89 7.99-1.29 16.98-7.91 21.87-5.2 4.03-12.3 5.38-18.64 3.68-9.06-2.29-16.13-11.08-15.89-20.52-.34-7.04 3.37-13.85 8.97-17.99-4.07-.02-8.16.2-12.23-.07-3.84-.47-5.37-5.88-2.57-8.44zm1.8 68.46c14.81-7.86 32.02-13.22 48.87-9.88 17.03 3.34 30.84 16.05 39.03 30.91 2.07 3.46 2.17 7.72 4.45 11.07.42 6.15-3.4 11.82-8.59 14.81-8.11 4.74-17.65 6.03-26.85 6.84-20.78 1.44-41.63-.39-62.22-3.21-1.65-.16-3.24-.74-4.51-1.82-7.25-5.48-16.26-9.33-25.49-8.58-3.07.18-5.86 1.6-8.83 2.16-3.09-.06-4.43-4.27-2.1-6.21 13.52-14.19 28.97-26.74 46.24-36.09m69.97 32.27c-6.62 2.78-11.48 8.59-15.05 14.63 8.27-.75 16.87-1.62 24.33-5.59 2.74-1.39 4.82-3.73 6.11-6.51-4.44-2.99-10.24-4.71-15.39-2.53zm31.42 6.48c2.87-1.82 7.09.86 6.38 4.27-.49 3.57-5.82 4.64-7.71 1.66-.98-1.93-.77-4.83 1.33-5.93m1.44 2.75c-.56 1.58-.01 2.14 1.65 1.68.55-1.6 0-2.16-1.65-1.68z"/><path d="M320.39 219.42c2.19-2.09 6.28-1.3 7.18 1.68 1.37 3.16-2.23 6.92-5.4 5.58-3.16-.68-3.95-5.15-1.78-7.26m2.68 1.75c-2.07.43-1.03 3.5.85 2.85 1.88-.48.98-3.51-.85-2.85zm-19.92 4.05c3.6-1.74 7.01 3.42 4.22 6.09-1.73 2.23-5.85 1.29-6.38-1.48-.62-1.78.32-4.01 2.16-4.61m.69 2.9c-.3 1.44.21 1.86 1.54 1.24.27-1.47-.24-1.88-1.54-1.24z"/></g></svg>