<svg height="112pt" viewBox="0 0 112 112" width="112pt" xmlns="http://www.w3.org/2000/svg"><g fill="#020103"><path d="m30.1 4.6c4.57-.25 8.34-3.31 12.83-3.89 7.19-.78 14.3 1.13 21.07 3.36 3.51 1.46 6.88-.75 10.12-1.85 5.66-2.32 11.94-2.28 17.93-1.67 7.85 1.28 14.6 6.22 19.95 11.9v3.01c-5.3-5.91-11.93-11.33-19.95-12.75-6.77-1.14-14.13-.75-20.13 2.88 6.6 1.99 13.54 2.53 20.13 4.57 3.78 1.16 6.85 3.76 9.63 6.47-3.9-1.92-7.64-4.25-11.82-5.53-5.99-1.78-12.25-2.55-18.49-2.64-2.56-.05-5.25-.16-7.48-1.58-7.46-4.25-16.52-5.6-24.84-3.37.28 1.42.56 2.84.85 4.25-4.5-.78-9.29-2.44-13.81-.96-7.2 3.55-16.07 4.25-21.49 10.81.97.24 2.91.71 3.88.94-6.86 3.2-9.45 12.52-5.92 19.01 3.2 4.58 9.46 4.27 14.42 4.67 7.18-.48 15.21-.7 21.14-5.25 2.03-4.53 3.01-9.47 4.69-14.15-5.62-4.09-11.6-8.7-18.8-9.13-4.95.36-9.65 2.16-14.17 4.11 4.11-3.76 9.41-6.5 15.14-5.71 5.19-.27 8.74 3.85 12.78 6.35 2.68 1.6 5.8 2.19 8.84 2.69-5.02-6.77-13.15-9.78-20.8-12.46 6.87-.95 11.84 4.61 17.68 7.05 6.18 1.22 10.55-6 16.75-4.99 7.43.94 15.14 1.09 22.14 4.03 4.77 1.92 8.59 5.51 12.14 9.12-6.18-2.81-11.18-7.95-17.87-9.68-7.39-1.79-15.18-1.89-22.6-.24-2.42.54-4.11 2.47-5.79 4.14 4.39-.31 8.56-1.79 12.87-2.49 5.81-.46 11.82-.1 17.26 2.15 5.42 2.11 9.28 6.7 14.24 9.6 2.03 1.54 4.85 2.66 5.64 5.3-4.13 2.86-8.79 4.91-12.66 8.15-1.06.81-2.09 1.65-3.13 2.47-6.65 5.45-15.95 6.58-24.24 5.53-4.01-.83-7.96-1.98-11.68-3.71-.69.59-1.37 1.19-2.05 1.79-1.96-2.43-3.98-4.81-5.88-7.29-5.74 1.87-11.46 4.17-17.59 4.29-6 .44-11.93-.69-17.84-1.53 1.99 1.65 4.09 3.5 6.77 3.81 7.5.84 14.97-.63 22.36-1.68-5.01 1.64-10.23 2.46-15.42 3.36-5.52.93-10.42 4.37-13.63 8.9 10.99-.28 22.04-1.77 32.99.07 4.39 1.19 8.96 1.28 13.38 2.34 1.74.38 3.46.84 5.16 1.38 4.89 2.34 10.31 3.08 15.41 4.8 3.01 1 6.25 1.72 8.83 3.68 2.05 1.6 2.45 4.34 2.56 6.78.07 3.35-.42 6.69-1.49 9.87-.9 1.57-1.93 3.07-3.04 4.49-4.05 1.47-5.6 5.8-8.2 8.86-4.3 5.47-10.29 9.21-16.03 12.97h-41.9c-1.58-2.37-3.24-4.92-3.04-7.9.04-10.06.35-20.12.28-30.18.31-5.32-6.24-7.71-6.18-12.92-.02-2.64-.59-5.66.97-7.99 1.93-2.01 4.62-2.99 7.01-4.32-2.42-1.35-5.3-2.29-7-4.62-1.4-2.46-2.03-5.27-2.98-7.92v-10.55c1.47-3.81 2.66-8 5.7-10.91 2.49-2.29 5.62-3.69 8.64-5.14 5.05-2.19 10.15-4.67 15.76-4.95m28.28 12.98c-4.75 1.18-9.1 3.76-12.51 7.26-2.91 3.61-5.47 8.26-4.01 13.02 1.16 2.69 2.71 5.57 5.46 6.91 9.74 4.19 21.03 3.44 30.72-.5 4.94-2.05 8.27-6.49 12.77-9.2 1.93-1.33 5.43-1.21 5.18-4.31-1.8-1.35-3.98-2.01-5.94-3.06-3.38-1.69-5.62-4.92-8.88-6.78-6.75-4.01-15.18-5.45-22.79-3.34m-55.05 43.98c3.22 3.27 7.43 6.51 7.68 11.5.35 9.65.23 19.34-.38 28.98.07 2.26-.61 5.22 1.71 6.62 3.5 3.08 8.4 2.28 12.67 2.36 6.29-.18 12.61.31 18.89-.24 7.4-1.37 14.41-4.85 20.06-9.82 4.87-4.17 8.5-9.5 12.76-14.24 3.1-3.38 3.26-8.24 2.93-12.56-.01-2.3-1.73-4.31-3.88-4.97-7.94-2.64-15.94-5.08-24.06-7.06-9.24-3.13-19.08-3.18-28.68-4.22-6.64-.28-14.35-1.21-19.7 3.65z"/><path d="m11.54 19.4c4.19-1.02 10.15.71 10.23 5.81-.09 3.91 1.33 9.53-3.06 11.62-3.25 2.2-7.41 2.25-11.14 1.55-3.74-2.34-3.79-6.99-3.34-10.9.08-4.01 3.72-7.01 7.31-8.08m-3.16 8.14c.52 1.83 1.25 3.63 2.68 4.94 2.19-.77 3.2-2.72 2.45-4.93-1.45-1.64-3.44-.48-5.13-.01zm44.1-5.16c3.77-.79 8.38.13 9.98 4.05.63 3.53.56 7.22-.05 10.75-2.31 3.74-7.11 4.95-11.27 4.57-3.59.29-6.33-3.48-6.02-6.85.08-3-.53-6.6 1.86-8.89 1.46-1.65 3.32-3.11 5.5-3.63m-2.94 7.44c-.3 3.05 1.59 5.38 4.63 5.69.23-1.93.34-3.87.33-5.82-1.66.02-3.31.06-4.96.13zm39.5 14.24c-.12-1.32 1.25-3.83 2.71-2.5.52 1.45-1.09 2.54-2.27 2.93zm-4.37 1.96c.47.58.93 1.16 1.39 1.75-8.52 3.08-17.15 6.21-26.31 6.59-.62-.63-1.24-1.26-1.84-1.91 9.34.78 18.53-2.26 26.76-6.43zm-73.98 17.98c4.97-2.87 10.86-2.11 16.35-2.05 10.71.15 21.05 3.22 31.4 5.65 4.74 1.17 9.39 2.88 13.58 5.41 3.96 2.18 5.27 8.59 1.66 11.68-6.16 5.49-10.14 13.37-17.7 17.24-5.61 2.83-11.41 6.27-17.92 5.9-7.38-.17-15.86 1.12-22.09-3.74-2.6-1.75-1.86-5.25-1.77-7.91 1.05-7.36.94-14.81.8-22.22.03-3.8-2.71-6.74-4.31-9.96m4.62-.25c.69 3.45 2.57 6.62 2.54 10.2.24 9.07.14 18.14-.42 27.19 3.69 1.63 7.35 3.9 11.52 3.88 7.92.11 16.23.72 23.52-3l-.67-.29c5.49-2.42 10.23-6.33 13.43-11.42 1.51-1.19 2.82-2.6 4.19-3.94 2.23-2.38 6.35-5.83 3.56-9.28-7.53-6.7-17.96-8.19-27.45-10.35-5.76-1.79-11.73-2.94-17.77-3.11-4.15-.02-8.3-.14-12.45.12zm81.83 48.25c5.81-3.92 11.16-8.64 14.86-14.66v4.98c-3.15 3.54-6.46 7.01-10.41 9.68z"/></g><g fill="#c00"><path d="m39.05 3.51c8.32-2.23 17.38-.88 24.84 3.37 2.23 1.42 4.92 1.53 7.48 1.58 6.24.09 12.5.86 18.49 2.64 4.18 1.28 7.92 3.61 11.82 5.53-2.78-2.71-5.85-5.31-9.63-6.47-6.59-2.04-13.53-2.58-20.13-4.57 6-3.63 13.36-4.02 20.13-2.88 8.02 1.42 14.65 6.84 19.95 12.75v81.88c-3.7 6.02-9.05 10.74-14.86 14.66h-44.3c5.74-3.76 11.73-7.5 16.03-12.97 7.07.75 14.2-.34 20.5-3.69 3.17 3.52 6.44 6.95 9.81 10.28 2.28-1.82 4.36-3.87 6.22-6.12-3.34-3.35-6.71-6.65-10.15-9.88 4.27-6.65 7.24-14.46 6.5-22.47-.94-8.82-6.12-16.55-12.27-22.66 1.18-.39 2.79-1.48 2.27-2.93-1.46-1.33-2.83 1.18-2.71 2.5-1.14-1.09-2.3-2.16-3.44-3.24 3.87-3.24 8.53-5.29 12.66-8.15-.79-2.64-3.61-3.76-5.64-5.3-4.96-2.9-8.82-7.49-14.24-9.6-5.44-2.25-11.45-2.61-17.26-2.15-4.31.7-8.48 2.18-12.87 2.49 1.68-1.67 3.37-3.6 5.79-4.14 7.42-1.65 15.21-1.55 22.6.24 6.69 1.73 11.69 6.87 17.87 9.68-3.55-3.61-7.37-7.2-12.14-9.12-7-2.94-14.71-3.09-22.14-4.03-6.2-1.01-10.57 6.21-16.75 4.99-5.84-2.44-10.81-8-17.68-7.05 7.65 2.68 15.78 5.69 20.8 12.46-3.04-.5-6.16-1.09-8.84-2.69-4.04-2.5-7.59-6.62-12.78-6.35-5.73-.79-11.03 1.95-15.14 5.71-.34.18-1.02.56-1.36.74-.97-.23-2.91-.7-3.88-.94 5.42-6.56 14.29-7.26 21.49-10.81 4.52-1.48 9.31.18 13.81.96-.29-1.41-.57-2.83-.85-4.25z"/><path d="m21.03 43.9c6.13-.12 11.85-2.42 17.59-4.29 1.9 2.48 3.92 4.86 5.88 7.29-3.09 2.99-6.46 5.92-8.24 9.93-10.95-1.84-22-.35-32.99-.07 3.21-4.53 8.11-7.97 13.63-8.9 5.19-.9 10.41-1.72 15.42-3.36-7.39 1.05-14.86 2.52-22.36 1.68-2.68-.31-4.78-2.16-6.77-3.81 5.91.84 11.84 1.97 17.84 1.53zm37.2 4.92c8.29 1.05 17.59-.08 24.24-5.53.55.68 1.65 2.05 2.2 2.73-8.23 4.17-17.42 7.21-26.76 6.43l-.44-.54c.21-1.04.47-2.07.76-3.09z"/><path d="m59.75 54.36c9.16-.38 17.79-3.51 26.31-6.59 7.42 9.96 10.57 24.9 3.2 35.74-2.65-2.47-5.24-5.01-7.66-7.7-.11-2.44-.51-5.18-2.56-6.78-2.58-1.96-5.82-2.68-8.83-3.68-3.17-3.96-6.88-7.42-10.46-10.99zm-7.29 2.66c.82 1.15 1.58 2.34 2.34 3.53-1.7-.54-3.42-1-5.16-1.38.93-.72 1.87-1.43 2.82-2.15zm24.61 33.15c1.11-1.42 2.14-2.92 3.04-4.49.83.96 1.65 1.92 2.48 2.88-1.83.56-3.68 1.07-5.52 1.61z"/></g><g fill="#fdfeed"><path d="m9.84 17.81c4.52-1.95 9.22-3.75 14.17-4.11 7.2.43 13.18 5.04 18.8 9.13-1.68 4.68-2.66 9.62-4.69 14.15-5.93 4.55-13.96 4.77-21.14 5.25-4.96-.4-11.22-.09-14.42-4.67-3.53-6.49-.94-15.81 5.92-19.01.34-.18 1.02-.56 1.36-.74m1.7 1.59c-3.59 1.07-7.23 4.07-7.31 8.08-.45 3.91-.4 8.56 3.34 10.9 3.73.7 7.89.65 11.14-1.55 4.39-2.09 2.97-7.71 3.06-11.62-.08-5.1-6.04-6.83-10.23-5.81zm46.84-1.82c7.61-2.11 16.04-.67 22.79 3.34 3.26 1.86 5.5 5.09 8.88 6.78 1.96 1.05 4.14 1.71 5.94 3.06.25 3.1-3.25 2.98-5.18 4.31-4.5 2.71-7.83 7.15-12.77 9.2-9.69 3.94-20.98 4.69-30.72.5-2.75-1.34-4.3-4.22-5.46-6.91-1.46-4.76 1.1-9.41 4.01-13.02 3.41-3.5 7.76-6.08 12.51-7.26m-5.9 4.8c-2.18.52-4.04 1.98-5.5 3.63-2.39 2.29-1.78 5.89-1.86 8.89-.31 3.37 2.43 7.14 6.02 6.85 4.16.38 8.96-.83 11.27-4.57.61-3.53.68-7.22.05-10.75-1.6-3.92-6.21-4.84-9.98-4.05z"/><path d="m8.38 27.54c1.69-.47 3.68-1.63 5.13.01.75 2.21-.26 4.16-2.45 4.93-1.43-1.31-2.16-3.11-2.68-4.94zm41.16 2.28c1.65-.07 3.3-.11 4.96-.13.01 1.95-.1 3.89-.33 5.82-3.04-.31-4.93-2.64-4.63-5.69z"/></g><path d="m82.47 43.29c1.04-.82 2.07-1.66 3.13-2.47 1.14 1.08 2.3 2.15 3.44 3.24l.44.43c6.15 6.11 11.33 13.84 12.27 22.66.74 8.01-2.23 15.82-6.5 22.47 3.44 3.23 6.81 6.53 10.15 9.88-1.86 2.25-3.94 4.3-6.22 6.12-3.37-3.33-6.64-6.76-9.81-10.28-6.3 3.35-13.43 4.44-20.5 3.69 2.6-3.06 4.15-7.39 8.2-8.86 1.84-.54 3.69-1.05 5.52-1.61-.83-.96-1.65-1.92-2.48-2.88 1.07-3.18 1.56-6.52 1.49-9.87 2.42 2.69 5.01 5.23 7.66 7.7 7.37-10.84 4.22-25.78-3.2-35.74-.46-.59-.92-1.17-1.39-1.75-.55-.68-1.65-2.05-2.2-2.73zm-37.97 3.61c.68-.6 1.36-1.2 2.05-1.79 3.72 1.73 7.67 2.88 11.68 3.71-.29 1.02-.55 2.05-.76 3.09l.44.54c.6.65 1.22 1.28 1.84 1.91 3.58 3.57 7.29 7.03 10.46 10.99-5.1-1.72-10.52-2.46-15.41-4.8-.76-1.19-1.52-2.38-2.34-3.53-.95.72-1.89 1.43-2.82 2.15-4.42-1.06-8.99-1.15-13.38-2.34 1.78-4.01 5.15-6.94 8.24-9.93z" fill="#ffd500"/><path d="m3.33 61.56c5.35-4.86 13.06-3.93 19.7-3.65 9.6 1.04 19.44 1.09 28.68 4.22 8.12 1.98 16.12 4.42 24.06 7.06 2.15.66 3.87 2.67 3.88 4.97.33 4.32.17 9.18-2.93 12.56-4.26 4.74-7.89 10.07-12.76 14.24-5.65 4.97-12.66 8.45-20.06 9.82-6.28.55-12.6.06-18.89.24-4.27-.08-9.17.72-12.67-2.36-2.32-1.4-1.64-4.36-1.71-6.62.61-9.64.73-19.33.38-28.98-.25-4.99-4.46-8.23-7.68-11.5m7.36 2.44c1.6 3.22 4.34 6.16 4.31 9.96.14 7.41.25 14.86-.8 22.22-.09 2.66-.83 6.16 1.77 7.91 6.23 4.86 14.71 3.57 22.09 3.74 6.51.37 12.31-3.07 17.92-5.9 7.56-3.87 11.54-11.75 17.7-17.24 3.61-3.09 2.3-9.5-1.66-11.68-4.19-2.53-8.84-4.24-13.58-5.41-10.35-2.43-20.69-5.5-31.4-5.65-5.49-.06-11.38-.82-16.35 2.05z" fill="#aa682d"/><path d="m15.31 63.75c4.15-.26 8.3-.14 12.45-.12-2.52 3.41-5.34 7.51-3.67 11.95 3.09 10.08 10.96 18.57 20.51 22.93 2.37 1.13 4.79 2.17 7.2 3.22l.67.29c-7.29 3.72-15.6 3.11-23.52 3-4.17.02-7.83-2.25-11.52-3.88.56-9.05.66-18.12.42-27.19.03-3.58-1.85-6.75-2.54-10.2z" fill="#e31167"/><path d="m27.76 63.63c6.04.17 12.01 1.32 17.77 3.11l.14.99c.44 7.63 2.27 16.01 8.63 20.95 3.06 2.53 7.26 2.39 10.93 1.63-3.2 5.09-7.94 9-13.43 11.42-2.41-1.05-4.83-2.09-7.2-3.22-9.55-4.36-17.42-12.85-20.51-22.93-1.67-4.44 1.15-8.54 3.67-11.95z" fill="#b41153"/><path d="m45.53 66.74c9.49 2.16 19.92 3.65 27.45 10.35 2.79 3.45-1.33 6.9-3.56 9.28-1.72-1.5-3.6-2.88-4.93-4.76-1.8-2.73-2.56-6.01-4.41-8.71-4.56-2.33-9.93-2.58-14.41-5.17z" fill="#7a133c"/><path d="m45.67 67.73c4.48 2.59 9.85 2.84 14.41 5.17 1.85 2.7 2.61 5.98 4.41 8.71 1.33 1.88 3.21 3.26 4.93 4.76-1.37 1.34-2.68 2.75-4.19 3.94-3.67.76-7.87.9-10.93-1.63-6.36-4.94-8.19-13.32-8.63-20.95z" fill="#921246"/></svg>