<svg xmlns="http://www.w3.org/2000/svg" width="260" height="360"><path fill="#231f20" d="M105.922 354.887c6.15-.298 10.99-4.414 16.22-7.112 3.376-1.742 6.653.954 9.935 1.703 5.58 1.273 11.702 3.096 17.26.868 4.055-1.625 2.7-8.152 7.17-9.027 6.498-1.28 13.76-4.68 15.768-11.41 1.196-4.01 5.583-3.32 8.552-4.8 5.842-2.91 5.194-11.51 11.35-13.78 4.63-1.71 9.553-4.7 10.19-9.99.88-4.89-1.322-9.85-.148-14.68 2.22-3.72 7.52-3.56 11.33-3.16 5.18.93 10.51 1.79 15.71.44 7.15-1.49 14.11-3.8 21.2-5.55 4.95-.4 1.79-6.63 2.66-9.87-.18-22.26-.31-44.52-.55-66.78-7.95-.81-16.17-1.23-23.63-4.31-2.7-1.87-7.04-2.82-8.13-6.14 2.14-2.83 5.48-4.64 8.07-7.1 6.71-5.22 12.46-11.53 17.96-17.98 3.16-4.1 5.34-8.87 7.87-13.37-8.41-8.66-16.24-18.14-26.53-24.67-5.3-3.59-10.97-6.59-16.72-9.36 2.85-8.23 6.3-16.77 5.42-25.65-.96-8.28-6.59-14.85-12.11-20.66-2.07-3.1.22-7.26-.01-10.8.8-9.05-.64-19.23-7.68-25.68-6.85-6.64-16.32-9.74-25.6-10.85-7.63-10.94-19.73-19.92-33.5-20.2-12.32-.33-24.13 5.24-33.42 13.03-4.71-.41-9.67-.7-14.42.21C79.51 19.98 69 25.88 64 35.78c-4.255 7.95-6.28 16.92-6.95 25.86-7.66 10.02-14.925 20.84-18.14 33.18-2.134 8.41.665 17.27 4.8 24.615.96 3.31 7.703 6.84 3.37 9.866-6.866 6.41-14.096 12.49-19.984 19.85-4.74 5.33-10.39 9.84-14.89 15.37-1.48 2.98 4.04 1.55 5.81 3.97 4.69 6.44 8.31 13.52 13.73 19.39 2.08 2.9 5.12 4.97 7.14 7.88-1.22 2.74-5.31 3.7-7.91 5.3-4.16 2.12-8.717 3.27-13.38 3.48-4.05.7-9.11.37-12.51 1.7-.11 26.13-.02 52.26-.03 78.39 8.29-.02 16.863-.08 24.71 2.9 6.15 2.74 11.707 7.07 15.64 12.54 2.25 5.55.13 12.27 3.176 17.46 2.17 3.69 7.36 3 11.045 4.79 3.515 1.71 3.06 7.33 6.28 9.94 3.2 2.59 7.38 1.71 10.95 2.98 4.69 1.66 4.296 8.64 9.464 9.71 3.65.76 9.37-.87 11.17 2.95 1.49 3.16 2.73 7.56 6.96 7.02 3.27-.41.46-.005.69-.015.25-.01.63-.27.76-.05 0 0-5.89.285 0 0z"/><path fill="#fff" d="M134.332 321.14c2.91.383 4.93 2.874 6.57 5.09 2.444 3.736 4.504 8.223 3.752 12.792-.446 2.35-2.814 4.215-5.233 3.72-3.24-.406-6.59-2.168-7.74-5.4-1.74-4.937-.34-10.375 1.79-14.966.27-.365.34-1.145.85-1.236zm3.1-81.474c2.097.02 4.205.556 6.103 1.43 3.213 2.555 5.864 5.737 8.813 8.583 5.76 5.78 11.978 11.09 17.885 16.72 5.75 5.41 11.6 10.72 17.34 16.13 3.02 3.58 5.22 8.12 5.33 12.86.19 4.09-3.83 7.78-7.91 6.99-4.64-.89-8.23-4.32-11.56-7.43-5.68-5.53-10.5-11.88-16.31-17.26-1.33-1.04-2.76-2.38-4.49-2.51-1.12 1.76-.1 4 .83 5.64 3.62 5.76 8.81 10.27 13.42 15.21 3.49 3.71 7.18 7.41 9.45 12.03 1.11 2.23 1.24 5.24-.79 7.01-2.01 2.15-5.35 1.41-7.59.05-5.68-3.37-9.92-8.57-14.39-13.32-3.32-3.55-6.35-7.44-10.2-10.44-1.44-1.64-2.86-.33-2.35 1.46.63 3.66 3.12 6.63 5.29 9.52 4.67 5.97 10.23 11.27 14.21 17.75 1.18 2.09 2.6 5 .89 7.2-1.61 2.2-4.73 2.38-7.01 1.25-4.56-2.22-7.93-6.18-11.32-9.85-3.05-3.31-5.76-6.98-9.22-9.89-1.78-1.97-3.3.95-4.95 1.64-1.95 1.19-4.06 2.69-6.45 2.57-2.17-1.02-.23-4.04-.14-5.82 1.01-4.13 2.26-8.51 1.15-12.75-.76-2.72-3.42-4.42-6.14-4.66-3.32-.66-6.45.91-9.6 1.66-2.62.23-2.52-3.19-2.2-4.95 0-2.32 2.02-3.36 3.89-4.09 2.51-1.18 5.13-2.28 7.06-4.34 3.28-3.17 6.1-6.98 7.35-11.42 1.27-3.9 2.83-7.72 3.73-11.73.76-3.76.75-7.66 1.838-11.35 1.09-2.44 4.02-3.13 6.37-3.79.56-.16 1.15-.18 1.72-.18zm-64.17-39.836c3.68.067 7.34.558 11.028.465 7.778.176 15.7.334 23.217 2.55 2.778.92 6.104 2.336 6.85 5.49-.075 2.698-1.86 4.968-3.16 7.223-4.43 6.985-9.694 13.502-13.13 21.073-1.886 4.83-1.23 10.16-.702 15.18.82 7.04 2.467 13.98 2.847 21.07.025 2.37.095 5.38-2.22 6.75-1.834.84-3.82 1.22-5.65 2.12-1.858.92-4.066 1.76-6.152 1.13-.77-3.74-1.362-7.89-4.16-10.73-2.086-2.04-5.324-1.12-7.464.33-5.712 3.75-9.902 9.27-14.778 13.96-1.897 1.78-3.796 3.9-6.407 4.56-2.92-.07-5.34-2.03-7.71-3.52-4.88-3.33-9.32-7.29-14.37-10.39-4.28-1.83-8.81-3.03-13.2-4.6-1.79-.52-3.96-.89-3.24-3.27-.2-17.18-.43-34.36-.21-51.55-.63-2.52 2.01-3.06 3.77-3.83 11.56-4.6 23.45-8.42 35.53-11.43 6.31-1.56 12.76-2.69 19.29-2.54z"/><path fill="#06f000" d="M170.182 195c-4.55-.967-7.71-4.86-9.92-8.7-2.6-4.81-4.45-10.35-3.72-15.873.37-1.99 1.51-4.447 3.775-4.65 3.003.05 6.275.063 8.88 1.76 2.352 2.197 1.78 5.82 3.3 8.474 2.175 4.23 4.872 8.41 5.5 13.22.27 1.95-.565 4.08-2.48 4.85-1.63.87-3.514 1.26-5.345.93zm-96.656-.36c-3.354-.39-7.01-.71-9.766-2.85-1.627-1.55-.537-3.96.05-5.74 2.49-6.1 6.13-11.66 10.002-16.96.987-1.07 1.793-2.71 3.094-3.31 3.714.07 6.29 3.29 7.953 6.28 2.79 5.22 4.4 11.09 4.81 16.99.32 1.97-.06 4.34-2.51 4.49-4.41 1.33-9.08 1.3-13.64 1.08zm23.94-2.87c-2.986-1-4.487-4.1-5.718-6.76-1.908-4.73-3.154-9.89-2.707-15.01-.09-2.32 1.69-3.69 3.86-3.53 2.66-.46 5.34-.79 8.04-.66 4.35.11 8.98-.09 12.99 1.89 2.27 1.05 3.69 3.74 2.84 6.17-1.27 4.17-4.43 7.42-7.46 10.43-2.98 2.73-6.06 5.5-9.69 7.35-.69.27-1.47.26-2.18.11zm92.033-.21c-3.13-.4-4.94-3.29-6.8-5.5-3.34-4.5-6.36-9.45-7.59-14.97-.33-2.22-.51-4.95 1.23-6.66 1.37-.78 3.01-.97 4.55-1.2 4.13.02 8.25.04 12.37.12 2.19 2.18 3.26 5.19 4.6 7.91 1.75 3.92 3.42 7.89 4.94 11.91.3 2.86-1.92 5.41-4.43 6.51-2.73 1.3-5.8 2.27-8.86 1.85zm-136.74-.64c-2.13-.47-4.47-1.96-4.46-4.39-.12-4.04 1.91-7.74 3.76-11.19 1.45-2.48 2.99-4.95 4.91-7.09 1.58-.93 3.32-1.57 4.98-2.37 2.14.27 4.13 1.18 5.96 2.29.06 2.86-1.42 5.43-3.25 7.52-1.77 1.91-2.82 4.3-3.67 6.73-1.24 3-2.43 6.51-5.43 8.18-.87.42-1.87.51-2.81.31zm100.21-.17c-5.31-.65-10.35-3.39-13.55-7.72-1.97-2.75-3.95-5.72-4.51-9.11-.59-1.99.32-3.69 2.45-3.76 2.41-.67 4.77-1.56 7.22-2.06 1.84-.05 4.13.05 5.13 1.89 2.73 4.53 4.44 9.61 5.82 14.69.38 1.79.96 3.78.59 5.58-.46.64-1.06.86-1.83.64-.46-.05-.91-.1-1.36-.16zm58.52-7.893c-3.69-1.35-6.2-4.663-8.3-7.82-2.09-3.478-4.06-7.338-4.07-11.487-.22-2.38 2.8-2.16 4.37-2.734 2.36-.614 4.9-.755 7.1-1.88 2.4.054 4.9.804 6.773 2.335 1.98 3.08 3.315 6.53 4.63 9.94 1.07 1.9.71 4.05-.816 5.58-1.94 2.41-4.13 4.85-6.987 6.16-.877.27-1.84.16-2.71-.08zM41.41 179.18c-2.927-1.8-5.364-4.4-7.216-7.28-.828-1.402-2.375-4.753.008-5.176 2.218-.318 4.433-.78 6.662-.976 3.325.045 7.05.07 9.65 2.453-.105 2.15-1.67 4.1-2.72 5.96-1.43 1.96-2.872 4.3-5.26 5.16-.378.06-.78.03-1.125-.14zm185.442-9.03c-2.622-1.066-3.83-3.966-4.702-6.47-.712-1.762-.2-3.96 1.468-4.98 2.006-1.3 4.392-1.78 6.62-2.57 2.948.062 6.01-.246 8.822.783 1.952 1.05.408 3.412-.447 4.722-2.39 3.375-5.36 6.614-9.22 8.29-.8.305-1.7.487-2.53.222zm-85.632-4.26c-2.21-.34-4.84.82-6.644-.96-2.004-2.16-1.398-5.51-.136-7.89 2.63-5.71 4.946-11.8 9.53-16.28 1.686-1.72 3.444-3.51 5.84-4.17 2.5-.97 4.978-2 7.496-2.93 2.345.58 1.302 3.07 1.065 4.76-1.58 7.12-4.35 13.95-7.61 20.46-1.31 2.29-2.44 4.9-4.61 6.51-1.51.83-3.3.53-4.94.46zm-31.616-1.37c-4.7-.85-9.73-2.95-12.125-7.34-2.14-4.14-2.37-8.9-3.34-13.38-.5-3.11-1.46-6.11-2.61-9.04-.42-1.62-1.32-4.13.55-5.1.85-.9 2.2-.27 3.27-.23 6.66 1.33 12.53 5.41 17.02 10.41 3.95 4.48 6.99 10.51 5.82 16.64-.5 1.94-1.14 3.84-1.38 5.85-.59 2.2-3.27 2.43-5.17 2.32-.69-.03-1.38-.05-2.05-.14zm46.1-1.95c-1.105-1.95.363-4.48.625-6.57 2.09-7.41 4.86-14.66 8.44-21.48 1.06-2.01 2.39-4.18 4.76-4.74 1.49-.43 3.02-.85 4.41-1.51 3.56.07 7.17.02 10.63.96-.05 1.76-1.31 3.36-2.03 4.97a273.82 273.82 0 0 1-15.45 24.48c-1.2 1.65-2.45 3.58-4.63 3.93-2.07.53-4.23.39-6.35.43-.143-.17-.286-.33-.428-.5zm-71.258.11c-3.937-.69-6.06-4.62-7.225-8.07-2.36-7.09-2.23-14.67-2.18-22.05.01-1.83.69-4.3 2.95-4.23 1.89.34 3.59-1.3 5.32-.42 2.87 1.15 3.77 4.44 4.08 7.23.42 3.62.82 7.28 2.22 10.68 1.34 4.08 3.14 8.4 2.3 12.78-.64 3.37-4.51 4.48-7.48 4.07zm-20.21-.28c-4.673-1.11-8.44-4.48-11.538-8-2.4-2.99-4.898-6.36-5.104-10.32.205-2.24 2.515-3.37 4.22-4.43 3.512-1.99 7.414-3.32 10.662-5.76.736-1.22 2.22-.61 3.303-.24 3.63 1.64 5.4 5.61 6.46 9.23 1.26 4.97 1.6 10.43-.32 15.28-.93 2.55-3.43 4.59-6.23 4.36-.49-.02-.98-.05-1.46-.14zm-29.017-.61c-1.88-.18-3.9-.11-5.61-.97-.22-2.55 1.3-4.96 2.99-6.77 2.4-2.47 5.34-4.46 8.54-5.7 2 .31 3.36 2.12 4.71 3.49 1.93 2.38 4 4.95 4.62 8.03-.25 2.11-3.27 1.41-4.85 1.8-3.47.24-6.95.27-10.42.11zm141.01-1.16c-2.23.01-3.77-1.72-2.17-3.69 2.99-6.27 7.24-11.84 11.47-17.31 3.04-3.71 6.02-7.53 9.68-10.66.86-.57 2-.56 2.96-.91 2.21-.36 4.82.14 6.35 1.89.72 1.85-.66 3.81-1.19 5.58-3.06 6.85-6.6 13.5-10.63 19.84-1.48 2.55-4.51 3.41-7.25 3.74-3.09.37-6.02 2-9.19 1.5zm25.91-3.72c-2.23.05-4.27-1.3-3.41-3.73.99-4.76 3.91-8.82 6.67-12.71 2.22-3 4.643-5.84 7.174-8.58 2.757-.03 5.94.65 7.4 3.25 1.42 2.51 1.01 5.63.1 8.24-1.73 4.76-5.13 8.95-9.49 11.55-2.54 1.48-5.48 2.34-8.45 1.96zm20.91-2.798c-2.13.105-3.28-1.564-2.37-3.484.83-3.32 2.51-6.734 5.482-8.615 1.9-.534 3.797.7 5.383 1.628 2.61 1.83 5.23 4.49 5.4 7.84-1.697 1.31-3.97 1.66-6.03 2.15-2.584.54-5.235.75-7.866.49z"/><path fill="#006b33" d="M123.412 201.684c-1.51-1.857-1.57-4.423-1.96-6.693-1.13-10.29-.86-20.67-.48-31 .062-2.62.383-5.23.563-7.83-.028-2.65-.838-5.45.39-7.95.89-1.64 1.543-5.5 4.17-4.32 1.694.84 3.36 2.09 4.2 3.82.97 4.28.95 8.71 1.22 13.06.34 10.28.56 20.59-.115 30.86-.045 2-.584 4.01-1.956 5.51-1.508 1.91-3.54 3.3-5.496 4.7-.19.09-.405-.01-.545-.14z"/><path fill="#d40018" d="M105.822 37.818c-.814-2.098.064-4.362.627-6.417 1.37-4.21 3.24-8.49 6.57-11.53 3.44-2.76 7.56-4.68 11.84-5.69 4.04-.7 8.19-.49 12.26-.19 7.27.75 14.71 3.65 19.32 9.54 1.62 1.65 3.2 4.53 1.23 6.54-1.65 1.9-4.32.85-6.35.27-3.35-1.19-6.53-3-10.13-3.37-4.32-.57-8.72-.46-13.04.04-6.96 1.16-13.1 4.99-18.8 8.95-1.09.52-2.27 2.22-3.52 1.89zm31.98 4.117c-1.382-1.486-1.246-3.64-.635-5.424.05-2-.166-4.86 2.48-5.22 2.152-.8 4.752.53 4.865 2.95.145 1.78-.94 3.38-1.93 4.76-1.094 1.31-2.43 2.49-3.98 3.2-.283.06-.61-.01-.8-.25zm-14.923 4.298c-3.59-.81-6.47-3.267-9.31-5.44-1.14-2.068 1.62-3.35 2.91-4.45 2.62-2.155 5.75-3.933 9.2-4.17 2.11.002 3.65 1.79 4.78 3.372 1.52 2.373 1.91 5.695.4 8.16-1.46 2.246-4.38 2.516-6.82 2.583-.38 0-.77-.018-1.16-.055zM67.41 57.61c-1.465-1.62-.046-3.87-.19-5.76.686-5.55 2.798-10.95 6.39-15.26 3.757-5.04 8.873-9.48 15.17-10.81 3.848-.83 8.277-.47 11.407 2.12 2.23 2.22 1.7 5.66 1.07 8.43-.8 2.77-1.73 5.56-3.19 8.06-3.34 5.2-9.07 8.31-14.8 10.21a75.842 75.842 0 0 1-13.3 3.05c-.84.07-1.69.07-2.53-.05zm51.606 3.42c-5.188-.44-10.57-1.39-14.98-4.31-2.41-1.77-4.156-5.28-2.516-8.11 1.13-1.92 3.043-3.39 5.13-4.09 3.818-.49 7.153 1.85 10.454 3.39 4.21 2.12 9.01 3.27 13.722 2.57 2.562-.28 5.047-1.08 7.628-1.2 2.004.89.54 3.89-.556 5.06-3.616 3.82-8.86 5.56-13.92 6.45-1.64.26-3.31.36-4.967.22zm70.24 8.03c-2.27-.59-3.074-3.06-4.43-4.7-3.857-5.48-7.49-11.14-11.854-16.23-3-3.28-6.498-6.03-9.66-9.14-.778-2.39 2.838-2.43 4.36-3.04 3.526-.91 7.3-.63 10.658.78 3.507 1.37 6.815 3.42 9.372 6.2 3.582 4.6 4.7 10.53 5.372 16.18.28 2.84.56 5.8-.188 8.6-.56 1.39-2.315 1.91-3.635 1.33zm-50.878 2.85c-3.95-.71-7.998-1.27-11.723-2.82-1.46-1.61 1.23-2.9 2.57-3.26 4.11-1.8 8.18-3.78 11.86-6.37 4.65-3.71 6.7-9.56 8.49-15.02.82-1.56.56-5.03 3.11-4.54 3.71.99 5.59 4.93 6 8.48.56 2.21-.51 4.31-.8 6.47-.78 5.05-2.98 9.81-5.86 14-2.36 2.58-6.11 3.05-9.42 3.16-1.42 0-2.84-.03-4.26-.14zm-18.76 16.06c-5.11-.37-10.756-1.08-14.575-4.86-4.593-4.49-6.067-11.16-6.318-17.37.1-1.69-.798-5.65 2.094-4.8 3.18 1.83 6.15 4.06 9.27 6 1.85 1.2 3.74 2.39 5.96 2.74 7.29 1.92 14.47 4.23 21.62 6.6 1.98.72 4.03 1.32 5.93 2.23 1.27 1.99-2.28 3.24-3.51 4.39-6.04 3.86-13.37 5.48-20.49 5.04zm64.436 30.13c-2.58-.082-1.262-3.28-.274-4.49 2.12-3.76 4.276-7.603 5.08-11.892 1.183-4.82 2.175-9.714 2.37-14.687.25-1.4.208-3.34 1.66-4.05 2-.2 3.364 1.76 4.86 2.81 4.593 4.29 6.138 10.92 5.67 17.01-.283 4.28-1.407 8.77-4.394 11.98-3.165 2.88-7.697 3.27-11.778 3.4-1.065.02-2.132.01-3.195-.06zm-24.004 5.81c-8.823-.835-17.034-4.56-24.855-8.507-5.835-3.012-10.53-7.725-14.96-12.48-1.36-1.526-2.742-3.047-3.938-4.702-1.5-2.61 2.72-2.36 4.31-2.54 6.84-.95 13.93-1.8 20.04-5.29 6.24-3.29 11.25-8.48 15.33-14.17 2.25-3.1 4.52-6.29 5.93-9.87 1.27-3.82 1.02-7.95 2.16-11.8 1.35-2.4 3.88.15 4.84 1.59 5.66 6.63 8.43 15.14 10.33 23.51 1.46 6.45 1.81 13.17.62 19.7-1.31 7.73-4.29 15.28-9.18 21.46-2.65 2.9-6.91 3.41-10.61 3.13zm-92.087.92c-6.557-.44-13.4-3.193-17.112-8.864-3.74-5.663-3.82-12.864-2.67-19.332 1.61-9.418 5.86-18.678 13.23-24.96 3.75-3.25 8.23-5.707 13.07-6.836 1.83-1.178 4.23.994 2.43 2.666-3.76 6.595-5.32 14.155-6.24 21.613-.63 6.094.42 12.26 2.18 18.09 1.38 4.696 3.74 9.003 5.93 13.354 1.6 2.33-1.99 3.14-3.63 3.65-2.32.65-4.76.78-7.16.62zm57.563 12.548c-9.164-1.61-17.41-6.16-25.608-10.33-4.962-2.66-10.007-5.24-14.615-8.488-3.263-3.082-4.794-7.47-6.182-11.625-2.12-7.08-2.89-14.614-2-21.96 1.45-8.825 5.69-17.053 11.35-23.9 1.28-1.43 3.11-.358 3.03 1.408 1.58 4.658 2.1 9.63 4.14 14.137 2.9 7.255 6.19 14.402 10.4 21.003 3.44 4.918 7.97 8.91 12.24 13.078 7.75 7.19 16.53 13.32 26.1 17.82 2.15.98 2.1 3.89.1 4.99-2.92 2.23-6.72 2.54-10.16 3.45-2.87.67-5.85.96-8.77.43z"/><path fill="#f08a00" d="M122.674 320.035c1.96-.07 3.82.684 5.34 1.9-.007 4.285.083 8.988-2.665 12.556-3.42 4.66-7.27 9.29-12.38 12.14-2.49 1.47-6.14 1.71-8.12-.73-1.78-2.07-1.2-5.1-.38-7.45 1.7-4.62 4.47-8.83 7.74-12.49 2.87-2.94 7.29-3.37 10.45-5.9zm-10.208-23.972c1.907.176 3.823.28 5.723.514.66 3.42 1.1 7.027.24 10.445-1.49 4.082-3.98 7.712-6.31 11.35-4.2 6.116-8.63 12.277-14.52 16.89-1.92 1.427-4.48 2.913-6.9 1.845-2.7-1.523-3.48-4.895-3.09-7.773.77-5.733 3.69-10.897 6.69-15.744 3.31-5.158 6.98-10.12 11.23-14.54 1.98-1.595 4.72-1.88 6.96-2.987zm-18.092-9.7c1.86.395 5.097-.385 5.28 2.273.41 3.784.26 7.75-1.052 11.354-4.276 8.098-11.307 14.182-17.04 21.185-1.497 1.978-2.843 4.07-4.396 6.004-1.907 1.03-5.21.76-6.137-1.53-1.92-3.93-.91-8.52.25-12.52 2.33-7.04 5.99-13.63 10.56-19.45 2.78-3.14 6.46-5.39 10.28-7.03.72-.23 1.48-.31 2.24-.29zM76.39 279.07c1.74-.05 3.07 1.23 3.05 2.96.6 3.16 0 6.53-1.9 9.16-4.33 6.64-8.9 13.21-14.51 18.84-1.6 1.27-3.65 3.77-5.86 2.59-1.87-1.62-1.26-4.39-1.31-6.58.83-8.31 5.35-15.9 11.22-21.68 2.62-2.34 5.59-5.08 9.29-5.28zm128.172-82.98c3.953.157 7.16 2.796 10.474 4.646 2.963 1.68 5.69 3.86 8.894 5.068 5.55 1.68 11.486 1.683 16.97 3.6 2.513.627 3.517 2.957 3.656 5.33 1.122 8.217.972 16.543.748 24.81-.352 3.517-.547 7.056-.16 10.58.356 5.6 1.292 11.29.273 16.868-.42 1.966-1.618 4.268-3.926 4.27-7.74 1.346-15.49 2.68-23.3 3.5-2.32.32-4.57-.39-6.57-1.505-2.27-1.196-5.37-2.3-7.64-.548-2.36 2.28-4.34 5.59-7.86 6.09-2.22.37-3.54-1.77-5-3.02-6.26-6.24-14.49-9.99-20.81-16.16-7.5-6.89-13.58-15.11-20.56-22.49-2.83-2.41-6.44-3.87-10.07-4.57-3.41-.49-7.21.59-9.26 3.52-1.89 2.53-3.81 5.12-5.19 7.98-1.42 3.52-2.09 7.29-2.96 10.97-1.24 5.59-1.43 11.72-4.79 16.59-1.56 2.08-3.87 3.92-6.52 4.2-2.87.17-5.75-1.53-6.82-4.23-2.48-5.32-2.3-11.35-2.48-17.08-.45-7.52 1.84-14.96 5.53-21.45 5.97-10.47 14.71-19.15 24.38-26.22 4.63-3.36 9.65-6.43 15.34-7.55 6.6-1.61 13.47-.86 20.06.43 6 .38 12.01-.46 17.98-1.02 5.45-.59 10.88-1.37 16.27-2.32 1.1-.14 2.2-.34 3.31-.32z"/></svg>