<svg xmlns="http://www.w3.org/2000/svg" width="256pt" height="256pt" viewBox="0 0 256 256"><path d="M55.59 19.56C68.75 7.04 87.3 1.69 105.15 1.61c9.29-.62 18.61-.52 27.87.41 5.16.47 9.57 3.47 14.52 4.73 8.56 2.43 17.25 5 24.72 10 5.37 3.12 8.81 8.43 13.32 12.55 4.17 4.51 8.41 9.28 10.28 15.27-13.4-3.29-27.22-4.54-40.98-3.64 7.71.65 15.48-.32 23.17.81 6.27.92 12.83 1.33 18.59 4.21 3.03 3.79 7.49 6.29 9.84 10.64 3.81 6.11 4.4 13.44 6.64 20.15 1.7 4.9 1.58 10.23.7 15.29-.89 4.94-3.53 9.33-4.83 14.15.12.64.37 1.92.49 2.57-.45-.09-1.35-.26-1.8-.34.08 1.04.17 2.07.26 3.11-.29 2.33-.34 4.7.18 7l.04 1.31c4.81 6.31 4.27 14.65 4.23 22.15.06 3.2-.62 6.37-2.15 9.19-2.9 7.82-7.54 14.8-11.14 22.29-1.18 2.26-3.15 4-4.34 6.26-2.02 5.08-.82 11.03-3.83 15.79 2.55 1.52 5.06 3.11 7.48 4.84.25.18.74.52.98.69.48.38 1.43 1.14 1.9 1.52-.9 1.4-1.93 2.72-2.96 4.04-3.8-2.66-7.53-5.42-11.44-7.92a72.39 72.39 0 0 0-5.67 6.57c3.84 2.69 7.56 5.85 9.1 10.45.65-.07 1.94-.2 2.58-.27 4.27 4.08 9.38 7.08 13.89 10.85 2 1.52 2.66 4.02 3.5 6.26 5.36-.33 10.5 1.44 15.78 1.97 5.09.66 9.6 3.21 14.1 5.5 4.93 2.56 10.56 2.97 15.83 4.48V256H129.57c2.62-3.25 5.43-6.35 8.56-9.12-4 .73-8.07 1.27-12.15 1.06-5.67-.29-11.41.35-17.01-.83-8.51-1.63-17.17-2.39-25.57-4.54 2.31 4.33 4.53 8.73 5.99 13.43H0v-45.98c3.35-3.01 5.22-7.41 8.9-10.04 5.76-2.86 11.65-5.49 17.8-7.39 7.54-2.99 15.69-3.64 23.57-5.3.05-2.53.04-5.05.04-7.58-.72.33-2.14.99-2.86 1.32 1.17-1.08 2.36-2.13 3.54-3.19-.31-.91-.61-1.81-.91-2.71.64-5.09.63-10.25.36-15.37l-.06-.82c-.03-.32-.1-.97-.13-1.29-.22-1.64-.5-3.27-.9-4.88-.76-2.18-1.62-4.54-3.9-5.55.2-.25.6-.75.81-1-3.28-1.26-6.61-2.95-8.29-6.22-4.54-7.67-8.66-15.9-10.15-24.75.06-4.15.11-8.3.01-12.45-.04-5.61-1.42-11.14-.97-16.77.24-8.03 3.36-15.56 4.67-23.43 1.69-9.43 5.51-18.24 8.87-27.15 2.98-7.06 10.08-10.64 15.19-15.89m24.87-1.63c4.85.13 9.65-.84 14.5-.82 4.09 0 8.2.09 12.25-.55-8.82-1.23-18.22-1.6-26.75 1.37m43.74-.35c-3.47 2.2-7.33 3.65-11.1 5.23 5.03-1.04 9.24-4.09 13.87-5.99 9-.36 18.06-.32 27.02.83-7.86-1.87-15.95-1.25-23.95-1.34-2.01.01-4.14.04-5.84 1.27m26.4 16.12c4.93.53 9.99.85 14.86-.28-4.92-.55-10.01-.98-14.86.28m-87.33 8.41c-2.04 2.23-1.75 5.49-2.91 8.13-1.09 2.53-2.41 4.96-3.28 7.58 2.54-4.37 4.4-9.06 5.41-14 3.26-4.17 7.01-8.64 12.47-9.76-5.18.24-8.43 4.6-11.69 8.05m40.29-1.45c-5.22 2.2-10.7 3.93-15.46 7.09 7.06-3.52 14.43-6.37 21.82-9.13 6.13-2.4 12.77-.88 19.13-1.67 3.29-.5 6.58.09 9.8.74-6.08-2.36-12.57-.43-18.86-.89-5.75-.42-11.2 1.75-16.43 3.86M93.05 53.8c5.46-1.28 10.6-3.58 15.82-5.56-5.4 1.46-10.53 3.75-15.82 5.56m34.2-2.34c.51 4.41 1.88 8.65 2.86 12.97 3.08.1 6.14.37 9.19.79 2.21-4.47 2.93-9.4 3.66-14.27a144.5 144.5 0 0 0-15.71.51m17.76-.5c-.88 4.88-1.4 9.9-3.52 14.45 3.44.04 6.89.04 10.34-.03-.3-4.94 1.62-9.48 3.25-14.01-3.34-.33-6.7-.48-10.07-.41m-34.11 3.23c1.61 3.75 2.81 7.7 4.7 11.33 4.11.39 8.2-.75 12.3-.89-.66-4.34-1.97-8.53-2.88-12.82-4.71.78-9.43 1.52-14.12 2.38m46.24-2.48c-1.67 4.4-3.56 8.84-3.37 13.66 3.64.22 7.29.31 10.94.39.92-4.24 1.43-8.55 1.51-12.89-3.03-.39-6.06-.77-9.08-1.16m11.07 1.35c-.11 4.47-.59 8.92-1.54 13.29 2.65.63 5.33 1.16 8.03 1.51.94-4.28 1.87-8.63 1.77-13.04-2.34-1.51-5.54-1.2-8.26-1.76m10.29 1.88c-.06 4.45-.71 8.86-1.74 13.19 1.99.27 3.99.54 5.99.8 1.06-4.31 1.71-8.72 2.3-13.12-2.18-.36-4.36-.64-6.55-.87m-91.02 1.24c-.98.4-2.56 1.34-2.14 2.6 1.54 1.21 5.1-2.96 2.14-2.6m10.23 2.83c1.61 3.42 3.48 6.71 5.81 9.69 3.05-1.48 6.28-2.59 9.62-3.2-1.23-3.39-2.21-6.93-4.15-10.02-4.07-.23-7.94 1.32-11.28 3.53m89.47-3c-.79 4.49-1.19 9.08-2.66 13.43 1.95.87 3.92 1.7 5.9 2.52 1.49-4.33 2.99-8.67 4.55-12.98a87.26 87.26 0 0 0-7.79-2.97M68.58 66.67c-4.65 1.92-7.92 5.86-11.29 9.42 3.63-2.69 6.21-6.71 10.43-8.58 5.07-2.46 10.52-4.18 15.23-7.35-4.75 2.27-9.54 4.43-14.37 6.51m19.89-3.01c2.39 3.15 4.51 6.49 6.29 10.02a61.94 61.94 0 0 1 6.7-3.87c-1.85-3.24-3.75-6.44-5.58-9.68-2.47 1.16-4.95 2.33-7.41 3.53m108.51-4.04c-1.66 4.35-3.14 8.77-4.76 13.14 2.46 1.92 5.02 3.72 7.69 5.34a52.82 52.82 0 0 0 2.99-14.92c-1.97-1.19-3.94-2.39-5.92-3.56M79.97 68.23c2.84 3.82 5.66 7.66 8.06 11.78 1.68-1.68 3.35-3.36 5.06-5-1.66-3.66-3.84-7.03-6.29-10.2-2.3 1.1-4.57 2.24-6.83 3.42m50.38-1.81c.57.18 1.72.55 2.3.73-.01.32-.01.96-.01 1.28-4.46-.68-8.55 1.41-12.82 2.21-8.33 1.42-16.1 5.57-24.65 5.78-5.76 5.65-12.02 10.87-19.19 14.66-3.55 2.35-5.86 6.09-9.45 8.43-4.01 4.6-6.9 10.14-9.18 15.8-1.14 3.15-3.71 5.51-4.81 8.68-2.62 6.93-.8 14.64-3.5 21.57 2.86 4.58 3.73 10.12 4.71 15.36-1.59 9.6 1.02 19.59-1.71 29.05-2.82 4.16-3.19 9.22-3.59 14.07-2.19 5.73-6.14 10.63-8.42 16.36 4.51.23 8.55 2.77 13.09 2.51 3.18-.27 5.54 2.29 8.16 3.68 3.44-4.32 4.92-10.86 10.74-12.73 2.08-.54 4.84-2.63 6.67-.79-.94 2.17-3.78 2.02-5.62 3.06-5.26 1.7-6.21 7.76-9.46 11.53 3.95 3.86 9.22 5.81 13.25 9.56 6.4 3.31 13.56 4.9 20.68 5.84l.08-2.02c2.42-.72 4.97-.17 7.43 0-.79.45-1.59.89-2.4 1.31-1.08-.12-3.26-.37-4.34-.5l-.07 1.35c2.99.36 5.97.87 8.96 1.21-.77-.41-2.31-1.24-3.08-1.65.68-.34 1.37-.67 2.06-.99 4.31 4.47 11.12 4.05 16.82 3.91 2.73-3.87 7.59-3.32 11.74-3.25l.12 1.31c-3.43.16-7.24-.58-10.12 1.82 10.64 1.57 20.1-4.34 29.42-8.42 4.3-2.6 9.1-4.24 13.39-6.85-2.85-.83-5.81-1.01-8.72-1.39-2.91-.83-2.97-4.52-5.14-6.25.12-1.96.05-3.93 0-5.89-3.25-.13-6.5-.09-9.74-.07-.54.91-1.12 1.8-1.73 2.67.31-.67.93-2.03 1.24-2.7-6.06.52-11.48-2.9-17.06-4.72.14.75.42 2.24.55 2.99-1.17-1.36-1.85-2.98-2.49-4.62l-3.76.4c.38 1.07.78 2.15 1.06 3.27-.57-1.07-1.04-2.17-1.52-3.27.71-.37 2.14-1.11 2.85-1.47a43.96 43.96 0 0 0-5.83-1.87c-.03.74-.1 2.22-.13 2.97-.54-1.52-.33-3.04.74-4.29-3.73-2.65-5.91-8.16-10.79-8.63-.24-2.8-2.92-4.2-4.81-5.89-.65.49-1.28.99-1.91 1.51-.51-1.27-1.03-2.54-1.56-3.8-.99-.64-1.96-1.29-2.94-1.94-.97-.12-1.95-.27-2.91-.45.64-.05 1.94-.16 2.59-.21-.73-.74-2.18-2.21-2.9-2.95-.49-.08-1.47-.24-1.96-.33-.1-.51-.29-1.52-.39-2.03-3.16-2.21-5.21-7.15-9.54-6.76.37-.22 1.11-.66 1.48-.87-2.18-2.92-3.35-6.47-5.92-9.12-3.41-3.12-.27-8.31-3.21-11.65-3.27-3.84-2.44-9.21-2.42-13.86.15-3.01 2.39-6.25.45-9.08.19-.33.57-.99.76-1.31l.32-.38c.8 1.82 2.7 2.2 4.5 2.24-.24.25-.71.76-.95 1.02l-.75.19c.28.55.84 1.65 1.11 2.2l-1.72-.84c-.17 1.23-.5 3.67-.66 4.89.66-.07 1.98-.2 2.64-.27 1.35-.24.09-1.85-.37-2.41l1.91 1.98c-.05-.69-.16-2.09-.22-2.78.32.31.96.95 1.28 1.26-.67 1.08-1.34 2.15-2 3.23-.07.15-.21.43-.27.58-1.2-.58-2.4-1.16-3.61-1.68.38 3.24.11 6.49.06 9.73 1.32-.55 2.66-1.04 4.03-1.47-1.18.74-2.48 1.25-3.76 1.8.72 1.58 1.54 3.12 2.32 4.68.91.39 1.83.77 2.76 1.14l.02-1.92c.24.76.72 2.26.96 3.01-.61-.17-1.83-.52-2.44-.69v3.28l1.98-.12c-.47.26-1.41.78-1.89 1.04-.01.85-.05 2.55-.07 3.4l3-1.68c-.76.73-1.53 1.44-2.3 2.16 1.82 2.06 3.52 4.24 4.75 6.72 1.42 3.3 4.46 5.4 6.8 7.99.78-.98 1.59-1.95 2.4-2.91-.52 1.15-1.11 2.26-1.69 3.39l1.62 2.07c.21-.42.64-1.27.85-1.7 0 1.5.45 2.85 1.36 4.05.39-.38 1.16-1.14 1.54-1.52 1.42 1.13 2.49.19 3.41-1.08-.32.67-.63 1.33-.93 2.01-1.17.2-2.34.41-3.51.63 1.03 1.08 2.06 2.16 3.08 3.26l2.4-1.29-1.23 1.71c1.56 1.53 3.26 2.91 4.78 4.5.03-.88.08-2.63.11-3.5.85 1.29 1.34 2.73 1.89 4.17 1.02-1.38 2.5-1.07 3.88-1.01-.18 1.42-.83 2.84-.4 4.28 1.09 1.05 2.49 1.69 3.74 2.53.29-.48.88-1.44 1.18-1.92-.73 2.02-.66 3.89 1.39 5.05.46-.56 1.38-1.66 1.84-2.21-.16.72-.49 2.17-.65 2.89 1.8 2.08 3.49 4.68 6.29 5.44.61 1.28 1.61 1.93 2.99 1.93.41.51 1.23 1.52 1.64 2.03.29-.44.86-1.31 1.15-1.74.03 1.53.95 2.59 2.19 3.38.2-.59.61-1.77.81-2.36.18.53.52 1.58.69 2.11 1.73 1.77 3.4-1.82 5.29-2.12-1.02.87-2.08 1.68-3.19 2.43l2.97 2.07c.4-.46 1.21-1.4 1.61-1.86l-.48 2.33c1.9-.14 3.81-.24 5.71-.44l.64.68c2.96-.95 6.12-.47 9.14-.12.21-.67.64-2.01.85-2.68l.2 2.81c1.25-.12 2.51-.25 3.76-.39l3.84.32-.2-3.35c.42 1.03.83 2.07 1.24 3.11a6.914 6.914 0 0 1 3.84-2.06c-.03-.58-.1-1.73-.13-2.3l1.15 1.95c1.83-1.2 3.82-2.23 5.23-3.96 1.02-.03 2.04-.11 3.07-.17-.55-1.54-1.13-3.06-1.66-4.61.98 1.13 1.87 2.33 2.8 3.51.79-1.74 1.95-3.26 3.03-4.83-.45-.26-1.35-.79-1.8-1.05 3.12.94 7.08-3.81 2.93-5.21l-2.3.36 1.34-1.17c-3.37-1.7-6.38-4.01-9.54-6.06-6.36-5.09-14.99-3.16-22.5-3.51-5.95.68-11.35-2.29-17.08-3.26-1.95-.2-4.97 2.63-5.55-.52 1.35-1.06 2.84-2.12 4.6-2.32 4.71.97 9.28 2.52 13.94 3.72 8.7.05 17.53.73 26.12-1.06 1.83-.32 2.85 1.42 3.87 2.58 1.61 2.3 4.36 3.25 6.57 4.84 1.12-.92 2.39-1.62 3.89-1.32 1.64.2 3.37.49 3.11 2.78 2.52-.64 1.85-3.54 2.52-5.42-1.74-.94-3.57-1.73-5.2-2.85 2.18.43 6.59 4.28 5.99-.96-1.26-.33-2.5-.79-3.43-1.74 1.26.36 2.5.77 3.75 1.18.14-1.78 1.57-3.73-.02-5.25 2.25 1.59 3.5-1.05 4.95-2.37-.26-.77-.51-1.53-.76-2.3l2.02-.18c-.91-1.13-1.78-2.28-2.62-3.46.64.55 1.91 1.65 2.55 2.2.44-.83 1.33-2.48 1.77-3.31-1.63-1.53-2.54-3.51-2.53-5.76.29.45.6.89.91 1.33-.67 1.71 1.13 2.7 1.94 3.94.48-.42 1.42-1.26 1.9-1.68-.75-.76-1.51-1.51-2.26-2.25l2.66.65c-.63-.83-1.88-2.49-2.51-3.32.85.62 1.69 1.27 2.51 1.94 1.09-1.83 2.29-3.58 3.37-5.4-1.24-.43-2.22-1.18-3.12-2.08.82.43 2.45 1.3 3.27 1.73.19-2.14 1.21-4.3.35-6.43-.67.43-1.32.88-1.97 1.34-.37-.44-1.11-1.31-1.48-1.75 1.24.14 2.48.26 3.72.38 1.04 3.48 3.15-1.37 1.49-2.54l1.48.75c.51-2.51.23-4.84-1.81-6.54l2.09 1.33c-.17-3.21-.2-6.42-.12-9.63a38.61 38.61 0 0 1-3.92-1.5c.97.14 2.91.4 3.88.53.2-2.67-2.42-2.63-4.01-3.53l3.52.48c-.31-2.08-1.44-3.23-3.39-3.46.43-.15 1.29-.45 1.72-.59-2.37-2.16-3.1-5.2-3.09-8.3.51-3.54.61-7.14 1.85-10.54 1.39-3.43-1.55-6.44-1.04-9.88.22-4.04-1.1-7.98-2.36-11.74-3.54-2.57-7.16-5.02-10.67-7.63-5.27-3.44-11.55-5.01-17.76-5.55-4.31-.24-8.34-2-12.65-2.19-5.65-.22-11.3-.3-16.95-.19-4.93.19-9.73-1.48-14.64-1.33m74.54-.31c-.91 4.51-1.58 9.11-3.53 13.32 1.45.83 3.3 2.48 4.75.68 3.21-3.82 1.18-9.35 1.76-13.9-.74-.02-2.23-.07-2.98-.1m-93.98 2.16c-4.74 1.49-9.52 3.54-13.44 6.64 4.93-1.13 9.88-2.25 14.64-4 4.62-1.52 9.56-1.84 14.09-3.67-5.11.13-10.18.94-15.29 1.03m-38.84 6.98c3 3.18 5.16 7.28 8.88 9.71 1.91-.94 3.66-2.17 5.45-3.3-2.21-4.19-4.53-8.72-8.3-11.65-2.34 1.33-4.17 3.34-6.03 5.24M65 80.06c-.58.71-2.57 1.47-1.62 2.56 2.75 3.03 6.45 4.98 9.61 7.54 2.06-1.18 4.15-2.31 6.26-3.42-3.04-3.38-5.89-6.93-8.84-10.37-1.81 1.23-3.66 2.39-5.41 3.69m140.88 3.22c.5 2.35 1.21 4.66 2.07 6.91 2.25-3.55 2.27-7.8 2.28-11.85-1.43 1.66-2.86 3.32-4.35 4.94m-172.8 2.58c1.31-1.85 2.54-3.74 3.7-5.68-1.37 1.8-2.6 3.7-3.7 5.68m179.5-6.06c-.62 3.43-.77 7.1-2.67 10.14-1.12 1.85-2.59 3.76-2.08 6.08.24 1.15-.05 3.25 1.76 2.79 3.2-5.78 3.19-12.6 2.99-19.01M56.15 87.71c3.58 2.5 6.22 5.98 9.31 8.97 2.77-.14 4.43-3.27 5.93-5.34-3.62-2.52-7.24-5.05-10.43-8.11-1.68 1.41-3.4 2.8-4.81 4.48m-1.69 1.5c-1.28 1.52-2.56 3.02-3.85 4.52 3.92 2.47 7.02 5.88 10.25 9.13 1.6-1.02 2.2-3.04 3.22-4.56-2.96-3.28-5.67-6.91-9.62-9.09m-5.19 5.99c-1.1 1.15-2.19 2.31-3.29 3.46 3.78 3.6 7.21 7.64 11.57 10.57l2.28-4.32c-3.05-3.72-6.53-7.07-10.56-9.71m-9.22 10.55c4.18 4.38 7.96 9.26 13.03 12.68 1.01-2.35 3.34-4.74 3.04-7.28-3.7-3.59-7.49-7.11-11.22-10.68-1.68 1.59-4.57 2.74-4.85 5.28m-4.73 8.78c3.96 5.33 7.81 10.98 13.4 14.74.61-3.15 1.79-6.14 2.77-9.18-4.61-3.86-8.47-8.47-12.78-12.64-1.13 2.29-3.4 4.53-3.39 7.08m-2.14 1.27c-.79 2.26-2.09 4.71-.98 7.11 2 5.89 4.97 11.43 8.21 16.72 1.38 2.54 4.22 3.41 6.72 4.41 1.19-4.05 1.6-8.27 1.52-12.48-6.62-3.74-10.22-10.59-15.47-15.76m134.61 68.59c2.2 2.17 4.74 3.93 7.35 5.56.7-.91 1.4-1.83 2.1-2.74-2.04-1.54-4.09-3.06-6.17-4.54-1.1.57-2.19 1.14-3.28 1.72m10.18 3.12c-.51.68-1.55 2.05-2.06 2.74 7.25 4.59 14.3 9.51 21.28 14.49.41-.72 1.21-2.18 1.62-2.91-2.24-1.75-4.51-3.45-7.01-4.81-4.88-2.77-9.19-6.38-13.83-9.51m4.82 2.34c2.09 1.15 3.79 3.61 6.37 3.62.33-.91 1-2.71 1.34-3.61-2.4 1.67-3.42 1.05-3.05-1.89-1.64.44-3.18 1.09-4.66 1.88m-75.4.42c-.99 1.19-.81 1.89.54 2.11 1.03-1.2.85-1.91-.54-2.11m-90.76 9.23c-3.98 2.24-9.09 3.9-10.87 8.54-.56 2.64-.19 5.4-.6 8.07 1.39 2.4 2.77 4.97 5.14 6.54 2.95.7 6.05.35 9.05.61-1.64 2.27-4.71 2.42-7.28 2.44-6.55-1.34-10.83-8.5-9.57-14.96-.87 1.28-1.86 2.59-1.67 4.24.07 7.27-.08 14.56.26 21.83 8.23 1.39 16.44 3.06 24.8 3.54 8.09.78 15.67 4.96 20.34 11.67-3.54-.05-5.66-3.12-8.35-4.92-4.42-3.38-10.19-3.77-15.51-4.45-7.21-.62-14.37-1.86-21.4-3.55-.22 5.3-.15 10.6.04 15.9 28.37.2 56.77.25 85.14-.02-1.05-4.15-2.83-8.2-5.65-11.47-8.13-6.38-17.3-11.34-25.56-17.53-4.62-.23-9.06-1.33-13.52-2.5-6.75-.51-13.37-1.91-20.02-3.04-3.49-1.41-6.67-3.83-8.94-6.83-1.05-3.51 1.15-7.2 4.21-8.94 8.64-5.8 18.99-8.87 29.31-9.77 2.05-.04 1.88-2.67 2.43-4.04-11.05.74-21.7 4.25-31.78 8.64m155.23 12.91c3.48 1.8 7.1 3.97 8.96 7.57.84 3.72-1.03 7.77-4.46 9.47-5.84 3.3-12.22 5.52-18.02 8.9-3.86 2.36-8.38 3.37-12.17 5.84-4.53 3.08-9.11 6.29-12.38 10.77 8.08.48 16.16-.08 24.24.22 3.45-.03 7.05.39 10.37-.8 3.66-1.48 6.78-3.99 10.38-5.6 7.5-3.44 15.56-5.41 23.54-7.35 1.4-.48 3.15-.75 3.97-2.15.39-2.97.4-5.99.29-8.98-4.47-4.9-10.78-7.6-15.38-12.39-1.14 3.51-1.39 7.19-.83 10.83.47 2.08-.85 3.97-2.28 5.35-5.47 4.2-12.57 5.1-18.5 8.4-1.5.82-3.15 1.26-4.81 1.6.66-1.61 1.44-3.31 3.15-4.04 5.87-3.11 12.67-4.32 18.32-7.82 2.37-3.97 1.98-8.89 1.71-13.32-.81-4.26-3.61-8.44-7.56-10.34-3.17.34-5.92 2.15-8.54 3.84m38.42 23.17c-.67 2.1-.91 4.55-2.56 6.17-1.62 1.27-3.69 1.78-5.62 2.38-10.04 2.66-20.63 4.64-29.3 10.71 2.74.23 5.49.35 8.24.3 24.67-.17 49.36.25 74.03-.18.02-2.54-.01-5.09-.09-7.63-6.28-1.48-12.81-2.59-18.39-6-4.56-2.17-9.55-5.17-14.77-3.72-3.59-1.81-7.53-2.74-11.54-2.03z"/><path d="M135.38 69.08l.16-1.54c.64.04 1.92.11 2.56.15 1.18.59 1.39 1.27.65 2.01-.84-.15-2.53-.46-3.37-.62zm-31.26 38.96c8.2-1.37 16.62-.51 24.85.14 3.87.86 5.73 5.73 3.65 8.97-1.61.44-3.25.75-4.88 1.1-1.05 1.08-2.25 2.11-3.81 2.28-6.27 1.52-12.55-.48-18.81-.86l-.01-1.48c7.08.53 14.21 2.55 21.28.47-5.99-1.71-12.32 1.15-18.22-1.04-1.32-1.19-2.61-2.41-3.94-3.57-2.46-1.14-3.18-5.19-.11-6.01m.01 2.42c2.54 2.32 4.7 5.69 8.49 5.91-.19-2.25-.34-4.5-.31-6.76-2.74.09-5.51.15-8.18.85m23.99.19c-.34 1.71-.63 3.43-.89 5.16 1.41-.33 3.06-.23 4.16-1.34.47-2.13-1.83-2.93-3.27-3.82zm-2.39 11.28c2.75-.91 5.23-3.46 8.22-2.97-1.13 1.48-3.02 2.07-4.55 3.04a35.761 35.761 0 0 1-8.41 3.29c-3.53.13-7.08-.02-10.62-.07l.93-1.34c4.81-.66 9.97.51 14.43-1.95zm42.88-2.73c5.46 5.38 13.21 6.01 20.28 7.66-.96.41-1.91.81-2.88 1.19-5.69-1.45-11.88-2.14-16.58-6.03-.21-.7-.62-2.12-.82-2.82zm6.92 1.27c6.16.03 11.6 3.92 17.85 2.67-3.17 2.99-7.87 1.37-11.38-.06-2.14-1.06-5.5.21-6.47-2.61z"/><path d="M130.22 123.15c.63-.37 1.88-1.11 2.51-1.49l.28 1.65c-.67.46-2.01 1.37-2.68 1.82 1.07 2.14-.99 3.57-2.47 4.73-3.15 2.11-7.13 2.31-10.8 2.33 1.45-2.39 4.55-1.85 6.86-2.57 2.29-.33 3.96-2.01 5.51-3.57-7.39 3.3-15.77 2.91-23.45.9-1.41-.47-3.56-.38-3.69-2.45 9.14 1.72 19.62 4.5 27.93-1.35zm33.41 3.5l1.35.13c.55 2.38.35 4.89 1.24 7.2 1.75 6.19 7.62 9.66 11.56 14.37.19 4.43-2.76 8.08-4.98 11.64.1 2.35-.74 6.04-3.69 5.91-2.28-1.19-5.5-1.41-6.69-3.98 2.61-.64 5.06.44 7.48 1.25-.18-5.13 4.15-8.55 5.43-13.23-2.61-3.99-6.53-6.94-9.56-10.61-1.96-3.8-3.82-8.45-2.14-12.68zm-31.33 25.61c1.98-2.61 5.89-1.79 8.73-2.72 2 .65.22 2.45-.97 2.53-1.76.81-3.74.83-5.61 1.15-.36 2.57.65 5.11 2.3 7.05 1.88 1.6 4.48 1.33 6.74 1.79-.46 2.71-3.5 1.86-5.45 1.73-4.58-1.45-7.02-7.04-5.74-11.53zm-32.09 5.05c.62.47.62.47 0 0zm50.15 2.11c1.81-.24 3.97-.56 5.44.81-1.47 1.84-4.12 1.56-6.24 1.89-1.97-.3-.54-2.6.8-2.7z"/><path fill="#1e1e1e" d="M80.46 17.93c8.53-2.97 17.93-2.6 26.75-1.37-4.05.64-8.16.55-12.25.55-4.85-.02-9.65.95-14.5.82z"/><path fill="#585858" d="M124.2 17.58c1.7-1.23 3.83-1.26 5.84-1.27 8 .09 16.09-.53 23.95 1.34-8.96-1.15-18.02-1.19-27.02-.83-4.63 1.9-8.84 4.95-13.87 5.99 3.77-1.58 7.63-3.03 11.1-5.23zM63.27 42.11c3.26-3.45 6.51-7.81 11.69-8.05-5.46 1.12-9.21 5.59-12.47 9.76-1.01 4.94-2.87 9.63-5.41 14 .87-2.62 2.19-5.05 3.28-7.58 1.16-2.64.87-5.9 2.91-8.13zm40.29-1.45c5.23-2.11 10.68-4.28 16.43-3.86 6.29.46 12.78-1.47 18.86.89-3.22-.65-6.51-1.24-9.8-.74-6.36.79-13-.73-19.13 1.67-7.39 2.76-14.76 5.61-21.82 9.13 4.76-3.16 10.24-4.89 15.46-7.09zm51.32.27c13.76-.9 27.58.35 40.98 3.64.24.47.5.93.78 1.38-5.76-2.88-12.32-3.29-18.59-4.21-7.69-1.13-15.46-.16-23.17-.81zM93.05 53.8c5.29-1.81 10.42-4.1 15.82-5.56-5.22 1.98-10.36 4.28-15.82 5.56zm34.2-2.34a144.5 144.5 0 0 1 15.71-.51c-.73 4.87-1.45 9.8-3.66 14.27-3.05-.42-6.11-.69-9.19-.79-.98-4.32-2.35-8.56-2.86-12.97zm17.76-.5c3.37-.07 6.73.08 10.07.41-1.63 4.53-3.55 9.07-3.25 14.01-3.45.07-6.9.07-10.34.03 2.12-4.55 2.64-9.57 3.52-14.45zm-34.11 3.23c4.69-.86 9.41-1.6 14.12-2.38.91 4.29 2.22 8.48 2.88 12.82-4.1.14-8.19 1.28-12.3.89-1.89-3.63-3.09-7.58-4.7-11.33zm46.24-2.48c3.02.39 6.05.77 9.08 1.16-.08 4.34-.59 8.65-1.51 12.89-3.65-.08-7.3-.17-10.94-.39-.19-4.82 1.7-9.26 3.37-13.66zm11.07 1.35c2.72.56 5.92.25 8.26 1.76.1 4.41-.83 8.76-1.77 13.04-2.7-.35-5.38-.88-8.03-1.51.95-4.37 1.43-8.82 1.54-13.29zm-70.5 5.95c3.34-2.21 7.21-3.76 11.28-3.53 1.94 3.09 2.92 6.63 4.15 10.02-3.34.61-6.57 1.72-9.62 3.2-2.33-2.98-4.2-6.27-5.81-9.69zm89.47-3c2.64.87 5.24 1.85 7.79 2.97-1.56 4.31-3.06 8.65-4.55 12.98-1.98-.82-3.95-1.65-5.9-2.52 1.47-4.35 1.87-8.94 2.66-13.43zM68.58 66.67c4.83-2.08 9.62-4.24 14.37-6.51-4.71 3.17-10.16 4.89-15.23 7.35-4.22 1.87-6.8 5.89-10.43 8.58 3.37-3.56 6.64-7.5 11.29-9.42zm19.89-3.01c2.46-1.2 4.94-2.37 7.41-3.53 1.83 3.24 3.73 6.44 5.58 9.68a61.94 61.94 0 0 0-6.7 3.87c-1.78-3.53-3.9-6.87-6.29-10.02zm108.51-4.04c1.98 1.17 3.95 2.37 5.92 3.56a52.82 52.82 0 0 1-2.99 14.92c-2.67-1.62-5.23-3.42-7.69-5.34 1.62-4.37 3.1-8.79 4.76-13.14zm7.91 6.49c.75.03 2.24.08 2.98.1-.58 4.55 1.45 10.08-1.76 13.9-1.45 1.8-3.3.15-4.75-.68 1.95-4.21 2.62-8.81 3.53-13.32zM72.07 75.25c1.86-1.9 3.69-3.91 6.03-5.24 3.77 2.93 6.09 7.46 8.3 11.65-1.79 1.13-3.54 2.36-5.45 3.3-3.72-2.43-5.88-6.53-8.88-9.71zM65 80.06c1.75-1.3 3.6-2.46 5.41-3.69 2.95 3.44 5.8 6.99 8.84 10.37-2.11 1.11-4.2 2.24-6.26 3.42-3.16-2.56-6.86-4.51-9.61-7.54-.95-1.09 1.04-1.85 1.62-2.56zm147.58-.26c.2 6.41.21 13.23-2.99 19.01-1.81.46-1.52-1.64-1.76-2.79-.51-2.32.96-4.23 2.08-6.08 1.9-3.04 2.05-6.71 2.67-10.14zM56.15 87.71c1.41-1.68 3.13-3.07 4.81-4.48 3.19 3.06 6.81 5.59 10.43 8.11-1.5 2.07-3.16 5.2-5.93 5.34-3.09-2.99-5.73-6.47-9.31-8.97zm-1.69 1.5c3.95 2.18 6.66 5.81 9.62 9.09-1.02 1.52-1.62 3.54-3.22 4.56-3.23-3.25-6.33-6.66-10.25-9.13 1.29-1.5 2.57-3 3.85-4.52zm-5.19 5.99c4.03 2.64 7.51 5.99 10.56 9.71l-2.28 4.32c-4.36-2.93-7.79-6.97-11.57-10.57 1.1-1.15 2.19-2.31 3.29-3.46zm-9.22 10.55c.28-2.54 3.17-3.69 4.85-5.28 3.73 3.57 7.52 7.09 11.22 10.68.3 2.54-2.03 4.93-3.04 7.28-5.07-3.42-8.85-8.3-13.03-12.68zm-4.73 8.78c-.01-2.55 2.26-4.79 3.39-7.08 4.31 4.17 8.17 8.78 12.78 12.64-.98 3.04-2.16 6.03-2.77 9.18-5.59-3.76-9.44-9.41-13.4-14.74zm-2.14 1.27c5.25 5.17 8.85 12.02 15.47 15.76.08 4.21-.33 8.43-1.52 12.48-2.5-1-5.34-1.87-6.72-4.41-3.24-5.29-6.21-10.83-8.21-16.72-1.11-2.4.19-4.85.98-7.11zm123.11 89.43c.5.53.5.53 0 0zM83.4 242.57c8.4 2.15 17.06 2.91 25.57 4.54 5.6 1.18 11.34.54 17.01.83 4.08.21 8.15-.33 12.15-1.06-3.13 2.77-5.94 5.87-8.56 9.12H89.39c-1.46-4.7-3.68-9.1-5.99-13.43m9.98 5.27c2.49 2.99 6.66 3.2 10.21 3.82 7.65.54 15.34.26 23 .19-.29-.35-.86-1.05-1.15-1.4-7.12-.97-14.37-.07-21.53-.58-3.58-.29-6.97-1.59-10.53-2.03z"/><path fill="#1b1b1b" d="M150.6 33.7c4.85-1.26 9.94-.83 14.86-.28-4.87 1.13-9.93.81-14.86.28z"/><g fill="#595959"><path d="M178.5 54.94c2.19.23 4.37.51 6.55.87-.59 4.4-1.24 8.81-2.3 13.12-2-.26-4-.53-5.99-.8 1.03-4.33 1.68-8.74 1.74-13.19zM79.97 68.23c2.26-1.18 4.53-2.32 6.83-3.42 2.45 3.17 4.63 6.54 6.29 10.2-1.71 1.64-3.38 3.32-5.06 5-2.4-4.12-5.22-7.96-8.06-11.78zm125.91 15.05c1.49-1.62 2.92-3.28 4.35-4.94-.01 4.05-.03 8.3-2.28 11.85-.86-2.25-1.57-4.56-2.07-6.91zM74.12 119.32c1.46.18.57 2.49-.47 2.74-1.58-.12-.7-2.58.47-2.74zm1.96 2.82c-.5-1.27.94-3.44 2.36-2.93.41 1.21-1.04 3.29-2.36 2.93zm.95 2.34c-.89-.97.55-2.9 1.71-2.23.72.97-.52 2.92-1.71 2.23zm-6.6 1.32l.69-3.06c.58 1.03 1.17 2.06 1.76 3.09l1.38-2.24c-.16.69-.49 2.08-.65 2.77-1.07-.13-2.12-.37-3.18-.56zm8.73 1.07c1.16.27 2.32.55 3.48.84-.27.37-.8 1.13-1.06 1.51-.58-.65-1.16-1.29-1.75-1.92l-.33 1.8-1.14-.18.8-2.05zm-1.88 5.93c-.33-1.37.2-1.94 1.6-1.71.33 1.35-.2 1.92-1.6 1.71zm128.23.44c1-.67 2.98.56 2.43 1.78-1.02.74-2.94-.58-2.43-1.78zm-122.31.41c1.3.56 1.3 1.25.01 2.08-1.26-.54-1.26-1.24-.01-2.08zm5.22 2.49c1.4-.55 1.83-.11 1.3 1.33-1.39.53-1.82.09-1.3-1.33zm-9.26 3.69c-.27-1.37.3-1.94 1.71-1.7.25 1.34-.33 1.91-1.71 1.7zm6.89 1.18c-.22-1.41.34-1.88 1.69-1.43.21 1.43-.35 1.9-1.69 1.43zm5.13-.18c1.51-.95 2.14 1.62.62 1.96-1.52.86-2.04-1.53-.62-1.96zm112.15.66c1.36-.37 1.9.15 1.63 1.55-1.35.38-1.89-.14-1.63-1.55zM78.1 144.9c-.23-1.41.33-1.93 1.68-1.55.22 1.41-.34 1.92-1.68 1.55zm14.96-.04c-.34-1.35.2-1.89 1.6-1.6.33 1.36-.2 1.9-1.6 1.6zm-3.92-.32c1.39.11 1.64.77.75 1.98-1.39-.11-1.64-.77-.75-1.98zm2.95 1.67c1.52.08.72 2.45-.42 2.54-1.64-.05-.82-2.5.42-2.54zm-15.89 4.68c-.44-1.32.05-1.9 1.47-1.73.44 1.33-.05 1.9-1.47 1.73zm10.88.05c-.23-1.41.33-1.93 1.68-1.56.2 1.42-.36 1.94-1.68 1.56zm11.98-1.96c3.32.01-1.41 3.05 0 0zm3.27 1.18c1.77-.08 1.33 2.73-.19 2.73-1.68.03-1.22-2.67.19-2.73zm-3.9 1.76c2.61-1.1 1.32 3.16-.56 2.92-1.5-.37-.35-2.49.56-2.92zm-18.23 2.64c1.26-1.45 2.15.95 1.03 1.75-1.24 1.51-2.32-.99-1.03-1.75zm5.15-.42c2.37-.72 1.06 2.92-.62 2.61-1.37-.39-.34-2.35.62-2.61zm21.69.94c1.47.15.75 2.48-.43 2.54-1.56-.13-.86-2.56.43-2.54zm-22 4.4c.45-.67.95-1.3 1.39-1.97.21.32.63.95.85 1.27.58-.28 1.76-.85 2.35-1.13.81 1.35 1.56 2.73 2.42 4.06l.85-1.3c-.97 1.97-1.85 3.98-2.99 5.86.21-1.41.71-2.71 1.52-3.89-1.81-1.64-3.85-2.92-6.39-2.9zm16.25.4c-.64-1.23 1.21-3.06 2.42-2.35.66 1.27-1.19 3-2.42 2.35zm-20.23-1.31c3.31.08-1.47 3.01 0 0zm18.03 5.15c-1.05-1.15 1.64-3.42 2.18-1.67-.24 1.29-.97 1.84-2.18 1.67z"/><path d="M82.02 164.73c1.53-1.84 4.09-1.88 6.13-2.86-.34.52-1.01 1.55-1.35 2.06-.63-.04-1.9-.14-2.54-.19-.74.35-1.49.68-2.24.99zm19.05-.1c.71-.88.98-2.49 2.35-2.55l.06.46c-.12.79-.04 1.57.25 2.32l2.2-1.77c-.53 2.27-2.18 3.57-4.47 3.87l1.11-.81c-.5-.52-1-1.02-1.5-1.52zm89.92-1.46c1.36-.34 1.85.19 1.45 1.59-1.39.34-1.87-.19-1.45-1.59zm-82.55 1.22c2.59-.92.52 2.65-.9 2.56-1.7-.26-.11-2.44.9-2.56zm78.84.12c1.35-.35 1.87.17 1.56 1.58-1.35.37-1.87-.15-1.56-1.58zm-103.63 2.78c.74-1.57 2.23-2.35 3.73-3.01.46 1.26.92 2.52 1.38 3.77-.96-.8-1.89-1.63-2.86-2.41-.56.41-1.69 1.23-2.25 1.65zm107.24-1.67c1.26.64 2.33 1.58 3.34 2.56-.58.68-1.16 1.36-1.72 2.06l1.73 1.19c-.6.53-1.19 1.07-1.78 1.62l1.48 1.23a97.45 97.45 0 0 1-3.05-1.59c.59-.7 1.16-1.41 1.72-2.13a19.13 19.13 0 0 0-3.45-2c1.26-.22 2.44-.72 3.46-1.49zm-106.65 4.01c-.25-1.42.28-1.94 1.61-1.57.28 1.42-.26 1.94-1.61 1.57zm3.59 4.23c.95-2.05 1.93-4.08 2.95-6.09-.08 1.16-.18 2.33-.28 3.5-.89.86-1.78 1.73-2.67 2.59zm46.59-5.51c.82-1.09 2.81-.79 3.57.22-.27.37-.81 1.09-1.08 1.46-1.04.52-3.04-.32-2.49-1.68zm-40.14 3.3c-.64-1.27 1.13-3 2.4-2.44.71 1.22-1.17 3.06-2.4 2.44zm93.76-1.34c1.21-.69 2.34 1.36 1.62 2.3-1.2.67-2.49-1.35-1.62-2.3zm-45.97 3.57c-.38-1.34.13-1.89 1.55-1.65.36 1.35-.15 1.9-1.55 1.65zm-42.85-.58c1.64-.91 1.89 1.57.44 1.91-1.65 1.04-2.01-1.66-.44-1.91zm60.93.72c1.33-.48 1.87 0 1.61 1.44-1.33.46-1.87-.02-1.61-1.44zm6.34.25c1.4-.26 1.9.29 1.49 1.65-1.39.26-1.89-.28-1.49-1.65zm19.38-.47c.5.34 1.5 1.01 2 1.35l.7-1.53c.82 1.6 1.64 3.19 2.34 4.85-1.15-.94-1.91-2.17-2.27-3.67-.34.5-1.01 1.51-1.35 2.02-.48-1.01-.95-2.01-1.42-3.02zm-91.39 4.93c-.37-1.38.13-1.9 1.52-1.58.39 1.36-.11 1.88-1.52 1.58zm90.43-.23c1.13-.63 2.92.22 3.01 1.56-.56 1.86-4.22-.01-3.01-1.56zm-71.53 9.18c1.03-.68 2.38.06 3.1.87.69 2.42-4.43.99-3.1-.87zm31.48-.34l1.21 2.29c.49-.63.98-1.26 1.46-1.89 1.15 1.28 2.63 2.54 2.18 4.46-.23-.66-.69-2-.92-2.67-1.05.32-2.1.62-3.15.9-.49-.97-.75-2-.78-3.09zm-4.58 6.25c-.31-1.4.22-1.91 1.58-1.55.32 1.38-.2 1.9-1.58 1.55zm-48.6-.71c2.26.87 4.17 2.37 6.12 3.76-.02.31-.05.94-.06 1.25-2.06-1.62-4.23-3.11-6.06-5.01zm7.97 3.41c1.42-.7 2.84-1.39 4.28-2.02-.47.27-1.41.82-1.89 1.09.53 1.03 1.05 2.06 1.57 3.09-.36-.01-1.09-.04-1.45-.05l.44-1.37c-1.81-.23-4.36.22-4.09-2.48zm33.58.17c-.57-1.36 1.55-2.88 2.72-2.14.42 1.3-1.55 2.84-2.72 2.14zm-16.19.51c-.4-1.41.08-2 1.45-1.78.38 1.4-.1 1.99-1.45 1.78zm21.38-1.74c1.29 2.18 3.13 4.58 1.59 7.11-1.19-1.99-1.91-4.2-3.07-6.2.37-.23 1.11-.68 1.48-.91zm18.03.33c1.26.93.41 3.6.25 5.06-2.25-.17-1.55-3.94-.25-5.06zm-4.03.57c1.54.33 1.42 3.45-.03 3.85-1.32-.67-1.36-3.25.03-3.85zm19.72-.16c1.63.34 3.27.64 4.91.99l.2-1.35c.51.58 1.03 1.16 1.55 1.75-2.27.23-4.49-.26-6.67-.82zm-47.68 1.54c1.72-.13 3.42-.01 5.02.72l.7-1.35c-.49 1.56-1.01 3.11-1.57 4.65-.22-.58-.68-1.75-.9-2.34-1.61.48-1.99 2.48-2.98 3.66-.89-.32-1.78-.65-2.67-.97.32-.47.95-1.42 1.27-1.89.27.21.83.64 1.1.85 1.28-.7-.18-2.17-.63-2.96.16-.09.49-.28.66-.37zm40.14-.55c.08 1.29.11 2.59.16 3.89-.8.45-1.61.87-2.43 1.27-.06-.9-.17-2.7-.23-3.6.29.32.88.98 1.17 1.3 1.06-.32 1.5-1.27 1.33-2.86zm-83.46 2.35c1.39-.32 1.99.21 1.8 1.57-1.38.33-1.98-.2-1.8-1.57zm91.41-.03c1.37-.14 1.82.49 1.34 1.89-1.35.13-1.79-.49-1.34-1.89zm-62.03 1.73c3.02-1.41.06 3.32 0 0z"/><path d="M130.33 204.78c1.94.19.65-2.76 1.25-3.91.38 1.55-.56 3.53.65 4.81.8-.32 1.43-.92 1.92-1.81l-.33 1.96 2.48-.6c-.96 1.05-1.97 2.06-2.84 3.19-.17-.28-.52-.82-.7-1.1-.7.15-1.39.31-2.09.47l-.74-.6c-.38-.17-1.16-.5-1.55-.66l-1.91 1.18c.22-.51.65-1.54.87-2.05l1.99-.3c-.78-1.17-1.54-2.36-2.28-3.55 1.44.57 2.53 1.62 3.28 2.97zm23.76-3.22c1.34-.49 2.08 1.76 1.53 2.73l-.51.12c-1.12-.72-1.45-1.67-1.02-2.85zm18.16.81c1.36-.09 2.39 2.31 1.76 3.46-1.56.29-2.23-2.31-1.76-3.46zm-91.33 1.33c.64-1.25 1.34-1.21 2.1.12-.63 1.22-1.32 1.18-2.1-.12zm61.45-.63c1.76.2.42 3.81-1.02 3.69-.51-1.2.09-2.84 1.02-3.69zm3.4 1.63c.17-.3.52-.88.69-1.18.67.9 1.43 1.72 2.18 2.56.23.6.71 1.78.95 2.38-.83-.66-2.5-1.98-3.34-2.63.39 1.43.81 2.85 1.25 4.27-.2.26-.62.77-.83 1.02-1.08-2.18-1.89-4.47-2.51-6.81.4.09 1.21.29 1.61.39z"/><path d="M148.64 206.08c-.39-.91-.6-3 .74-3.14 1.28.69.7 3.09-.74 3.14zm18.41-2.96c1.23-.58 2.38 1.45 1.65 2.41-1.21.55-2.47-1.46-1.65-2.41zm-73.53.86c.98-.86 2.88.59 2.22 1.74-.98.73-2.91-.56-2.22-1.74zm60.54 1.13c.85 1.71 2.62 2.2 4.37 2.48.57 1.65 1.52 3.11 2.39 4.61-1.44-.69-2.37-2.1-3.63-2.92-.41 1.22-.6 2.51-.59 3.86-.34-1.21-.25-2.57-.84-3.69-1.52.24-3.04.08-4.46-.55 1.47-.71 3.91-1.57 2.76-3.79zm10.38.11c1.39-.16 1.87.46 1.45 1.84-1.36.15-1.84-.46-1.45-1.84zm-63.36 2.82c1.34-.45 1.9.04 1.67 1.47-1.35.42-1.91-.07-1.67-1.47zm14.94 4.12c1.42-.3 1.95.23 1.58 1.58-1.44.26-1.97-.27-1.58-1.58zm-13.82 2.45c1.35-.37 3.72.82 3.57 2.37-1.33.73-3.83-.86-3.57-2.37zm12.89.9c1.38.19 1.63.87.75 2.05-1.38-.19-1.63-.88-.75-2.05zm2.05.63c1.52-.16 3.64 2.04 3.31 3.58-1.74.4-3.53-1.98-3.31-3.58zm-15.02 3.89c1.32-.5 1.88-.02 1.67 1.43-1.33.47-1.88-.01-1.67-1.43zm48.15 2.55c-.27-1.41.28-1.94 1.64-1.57.26 1.4-.28 1.92-1.64 1.57zm-8.86 1.67c1.67.01.8 2.46-.45 2.44-1.56-.06-.76-2.45.45-2.44zm-28.25.72c1.35-.43 1.85.08 1.49 1.5-1.36.4-1.86-.1-1.49-1.5zm16.86 2.05c1.38-.26 1.85.3 1.42 1.67-1.41.25-1.88-.31-1.42-1.67zm-8.21.61c2.33 1.49 3.91 3.86 4.6 6.52l-.95.01c-.54-2.53-2.33-4.41-3.65-6.53zm29.54 2.78c-.29-1.39.25-1.89 1.64-1.47.29 1.36-.26 1.86-1.64 1.47z"/></g><path fill="#171717" d="M87.48 56.18c2.96-.36-.6 3.81-2.14 2.6-.42-1.26 1.16-2.2 2.14-2.6z"/><path fill="#fff" d="M130.35 66.42c4.91-.15 9.71 1.52 14.64 1.33 5.65-.11 11.3-.03 16.95.19 4.31.19 8.34 1.95 12.65 2.19 6.21.54 12.49 2.11 17.76 5.55 3.51 2.61 7.13 5.06 10.67 7.63 1.26 3.76 2.58 7.7 2.36 11.74-.51 3.44 2.43 6.45 1.04 9.88-1.24 3.4-1.34 7-1.85 10.54-.01 3.1.72 6.14 3.09 8.3-.43.14-1.29.44-1.72.59 1.95.23 3.08 1.38 3.39 3.46l-3.52-.48c1.59.9 4.21.86 4.01 3.53-.97-.13-2.91-.39-3.88-.53 1.28.57 2.58 1.07 3.92 1.5-.08 3.21-.05 6.42.12 9.63l-2.09-1.33c2.04 1.7 2.32 4.03 1.81 6.54l-1.48-.75c1.66 1.17-.45 6.02-1.49 2.54-1.24-.12-2.48-.24-3.72-.38.37.44 1.11 1.31 1.48 1.75.65-.46 1.3-.91 1.97-1.34.86 2.13-.16 4.29-.35 6.43-.82-.43-2.45-1.3-3.27-1.73.9.9 1.88 1.65 3.12 2.08-1.08 1.82-2.28 3.57-3.37 5.4-.82-.67-1.66-1.32-2.51-1.94.63.83 1.88 2.49 2.51 3.32l-2.66-.65c.75.74 1.51 1.49 2.26 2.25-.48.42-1.42 1.26-1.9 1.68-.81-1.24-2.61-2.23-1.94-3.94-.31-.44-.62-.88-.91-1.33-.01 2.25.9 4.23 2.53 5.76-.44.83-1.33 2.48-1.77 3.31-.64-.55-1.91-1.65-2.55-2.2.84 1.18 1.71 2.33 2.62 3.46l-2.02.18c.25.77.5 1.53.76 2.3-1.45 1.32-2.7 3.96-4.95 2.37 1.59 1.52.16 3.47.02 5.25-1.25-.41-2.49-.82-3.75-1.18.93.95 2.17 1.41 3.43 1.74.6 5.24-3.81 1.39-5.99.96 1.63 1.12 3.46 1.91 5.2 2.85-.67 1.88 0 4.78-2.52 5.42.26-2.29-1.47-2.58-3.11-2.78-1.5-.3-2.77.4-3.89 1.32-2.21-1.59-4.96-2.54-6.57-4.84-1.02-1.16-2.04-2.9-3.87-2.58-8.59 1.79-17.42 1.11-26.12 1.06-4.66-1.2-9.23-2.75-13.94-3.72-1.76.2-3.25 1.26-4.6 2.32.58 3.15 3.6.32 5.55.52 5.73.97 11.13 3.94 17.08 3.26 7.51.35 16.14-1.58 22.5 3.51 3.16 2.05 6.17 4.36 9.54 6.06l-1.34 1.17 2.3-.36c4.15 1.4.19 6.15-2.93 5.21.45.26 1.35.79 1.8 1.05-1.08 1.57-2.24 3.09-3.03 4.83-.93-1.18-1.82-2.38-2.8-3.51.53 1.55 1.11 3.07 1.66 4.61-1.03.06-2.05.14-3.07.17-1.41 1.73-3.4 2.76-5.23 3.96l-1.15-1.95c.03.57.1 1.72.13 2.3-1.5.27-2.78.96-3.84 2.06-.41-1.04-.82-2.08-1.24-3.11l.2 3.35-3.84-.32c-1.25.14-2.51.27-3.76.39l-.2-2.81c-.21.67-.64 2.01-.85 2.68-3.02-.35-6.18-.83-9.14.12l-.64-.68c-1.9.2-3.81.3-5.71.44l.48-2.33c-.4.46-1.21 1.4-1.61 1.86l-2.97-2.07c1.11-.75 2.17-1.56 3.19-2.43-1.89.3-3.56 3.89-5.29 2.12-.17-.53-.51-1.58-.69-2.11-.2.59-.61 1.77-.81 2.36-1.24-.79-2.16-1.85-2.19-3.38-.29.43-.86 1.3-1.15 1.74-.41-.51-1.23-1.52-1.64-2.03-1.38 0-2.38-.65-2.99-1.93-2.8-.76-4.49-3.36-6.29-5.44.16-.72.49-2.17.65-2.89-.46.55-1.38 1.65-1.84 2.21-2.05-1.16-2.12-3.03-1.39-5.05-.3.48-.89 1.44-1.18 1.92-1.25-.84-2.65-1.48-3.74-2.53-.43-1.44.22-2.86.4-4.28-1.38-.06-2.86-.37-3.88 1.01-.55-1.44-1.04-2.88-1.89-4.17-.03.87-.08 2.62-.11 3.5-1.52-1.59-3.22-2.97-4.78-4.5l1.23-1.71-2.4 1.29c-1.02-1.1-2.05-2.18-3.08-3.26 1.17-.22 2.34-.43 3.51-.63.3-.68.61-1.34.93-2.01-.92 1.27-1.99 2.21-3.41 1.08-.38.38-1.15 1.14-1.54 1.52a6.53 6.53 0 0 1-1.36-4.05c-.21.43-.64 1.28-.85 1.7l-1.62-2.07c.58-1.13 1.17-2.24 1.69-3.39-.81.96-1.62 1.93-2.4 2.91-2.34-2.59-5.38-4.69-6.8-7.99-1.23-2.48-2.93-4.66-4.75-6.72.77-.72 1.54-1.43 2.3-2.16l-3 1.68c.02-.85.06-2.55.07-3.4.48-.26 1.42-.78 1.89-1.04l-1.98.12v-3.28c.61.17 1.83.52 2.44.69-.24-.75-.72-2.25-.96-3.01l-.02 1.92c-.93-.37-1.85-.75-2.76-1.14-.78-1.56-1.6-3.1-2.32-4.68 1.28-.55 2.58-1.06 3.76-1.8-1.37.43-2.71.92-4.03 1.47.05-3.24.32-6.49-.06-9.73 1.21.52 2.41 1.1 3.61 1.68.06-.15.2-.43.27-.58.66-1.08 1.33-2.15 2-3.23-.32-.31-.96-.95-1.28-1.26.06.69.17 2.09.22 2.78l-1.91-1.98c.46.56 1.72 2.17.37 2.41-.66.07-1.98.2-2.64.27.16-1.22.49-3.66.66-4.89l1.72.84c-.27-.55-.83-1.65-1.11-2.2l.75-.19c.24-.26.71-.77.95-1.02-1.8-.04-3.7-.42-4.5-2.24l-.32.38c-.19.32-.57.98-.76 1.31 1.94 2.83-.3 6.07-.45 9.08-.02 4.65-.85 10.02 2.42 13.86 2.94 3.34-.2 8.53 3.21 11.65 2.57 2.65 3.74 6.2 5.92 9.12-.37.21-1.11.65-1.48.87 4.33-.39 6.38 4.55 9.54 6.76.1.51.29 1.52.39 2.03.49.09 1.47.25 1.96.33.72.74 2.17 2.21 2.9 2.95-.65.05-1.95.16-2.59.21.96.18 1.94.33 2.91.45.98.65 1.95 1.3 2.94 1.94.53 1.26 1.05 2.53 1.56 3.8.63-.52 1.26-1.02 1.91-1.51 1.89 1.69 4.57 3.09 4.81 5.89 4.88.47 7.06 5.98 10.79 8.63-1.07 1.25-1.28 2.77-.74 4.29.03-.75.1-2.23.13-2.97 1.99.48 3.93 1.12 5.83 1.87-.71.36-2.14 1.1-2.85 1.47.48 1.1.95 2.2 1.52 3.27-.28-1.12-.68-2.2-1.06-3.27l3.76-.4c.64 1.64 1.32 3.26 2.49 4.62-.13-.75-.41-2.24-.55-2.99 5.58 1.82 11 5.24 17.06 4.72-.31.67-.93 2.03-1.24 2.7.61-.87 1.19-1.76 1.73-2.67 3.24-.02 6.49-.06 9.74.07.05 1.96.12 3.93 0 5.89 2.17 1.73 2.23 5.42 5.14 6.25 2.91.38 5.87.56 8.72 1.39-4.29 2.61-9.09 4.25-13.39 6.85-9.32 4.08-18.78 9.99-29.42 8.42 2.88-2.4 6.69-1.66 10.12-1.82l-.12-1.31c-4.15-.07-9.01-.62-11.74 3.25-5.7.14-12.51.56-16.82-3.91-.69.32-1.38.65-2.06.99.77.41 2.31 1.24 3.08 1.65-2.99-.34-5.97-.85-8.96-1.21l.07-1.35c1.08.13 3.26.38 4.34.5.81-.42 1.61-.86 2.4-1.31-2.46-.17-5.01-.72-7.43 0l-.08 2.02c-7.12-.94-14.28-2.53-20.68-5.84-4.03-3.75-9.3-5.7-13.25-9.56 3.25-3.77 4.2-9.83 9.46-11.53 1.84-1.04 4.68-.89 5.62-3.06-1.83-1.84-4.59.25-6.67.79-5.82 1.87-7.3 8.41-10.74 12.73-2.62-1.39-4.98-3.95-8.16-3.68-4.54.26-8.58-2.28-13.09-2.51 2.28-5.73 6.23-10.63 8.42-16.36.4-4.85.77-9.91 3.59-14.07 2.73-9.46.12-19.45 1.71-29.05-.98-5.24-1.85-10.78-4.71-15.36 2.7-6.93.88-14.64 3.5-21.57 1.1-3.17 3.67-5.53 4.81-8.68 2.28-5.66 5.17-11.2 9.18-15.8 3.59-2.34 5.9-6.08 9.45-8.43 7.17-3.79 13.43-9.01 19.19-14.66 8.55-.21 16.32-4.36 24.65-5.78 4.27-.8 8.36-2.89 12.82-2.21 0-.32 0-.96.01-1.28-.58-.18-1.73-.55-2.3-.73m5.03 2.66c.84.16 2.53.47 3.37.62.74-.74.53-1.42-.65-2.01-.64-.04-1.92-.11-2.56-.15l-.16 1.54m4.87-.71c-.21.42-.62 1.25-.82 1.66 3.15 1.18 6.28 2.47 9.57 3.19 5.31.21 10.63-.15 15.92.44 4.56.62 9.47-.58 13.6 1.99-.4-2.03-2.45-3.36-4.47-3.13-7.05.12-14.05-1.18-21.11-.78-4.52.44-8.74-1.45-12.69-3.37m-27.3 15.14c-5.72 1.65-12.68 1.45-16.91 6.28 3.24-.41 5.86-2.68 9.07-3.21 2.03-.42 4.08-.73 6.1-1.19 7.36-2.32 15.26-1.67 22.81-.77-1.84-2.63-5.22-1.91-7.99-1.99-4.36.19-8.87-.57-13.08.88m51.73 3.67c2.34-.13 4.23-1.58 6.37-2.35 3.61-.25 7.3-.36 10.89.21 4.77.68 6.94 5.93 11.52 7.11-1.18-2.62-3.93-3.88-5.9-5.8-1.99-1.96-4.74-2.86-7.48-2.99-5.34-.16-11.73-1.06-15.4 3.82m-30.86 4.67c2.55 2.22 4.31 5.08 6.16 7.86.38-3.42-2.44-8.01-6.16-7.86m33.25 11.2c.33.12.98.37 1.31.5.2-3.37.66-6.73.43-10.11-2.39 2.48-1.29 6.48-1.74 9.61m-55.59-7.38c-3.58 1.23-7.46.75-11.07 1.81-.04.32-.11.95-.15 1.27 5.85.21 11.48-1.52 17.22-2.26.04-.27.11-.81.14-1.09-2.01-.61-4.15-.26-6.14.27m70.44 2.66c1.03 1.88 3.34 1.43 5.12 1.93 5.05 1.66 9.85 4 14.92 5.59-.08-.42-.25-1.27-.33-1.7-4.28-2.05-8.85-3.46-13.21-5.34-2.05-.9-4.34-.59-6.5-.48m-91.49 10.42c1.56.52 3.14 1.02 4.72 1.53-2.51.13-5.09.69-6.33 3.15 3.43-1.14 7.02-1.28 10.6-1.36-.72-.69-1.43-1.39-2.15-2.08-1.91-1.37-4.82-3.71-6.84-1.24m13.69-.71c-3.07.82-2.35 4.87.11 6.01-1.1.6-2.21 1.18-3.25 1.89-1.97.9-.81 3.27-1 4.91l.43-.41c3.09 2.34 6.88 4.33 10.89 3.44l-.93 1.34c3.54.05 7.09.2 10.62.07 2.92-.74 5.77-1.84 8.41-3.29l.82 1.15c-8.31 5.85-18.79 3.07-27.93 1.35.13 2.07 2.28 1.98 3.69 2.45 7.68 2.01 16.06 2.4 23.45-.9-1.55 1.56-3.22 3.24-5.51 3.57-2.31.72-5.41.18-6.86 2.57 3.67-.02 7.65-.22 10.8-2.33 1.48-1.16 3.54-2.59 2.47-4.73.67-.45 2.01-1.36 2.68-1.82l.27 1.42c1.15-1.86 1.85-4.13 1.47-6.32-.53-.32-1.6-.94-2.13-1.26 2.08-3.24.22-8.11-3.65-8.97-8.23-.65-16.65-1.51-24.85-.14m-35.04.35c-1.59 2.96 3.33.2 0 0m102.88 3.54c-2.7 1.51-1.8 4.75-1.6 7.27h-1.75c.2.7.61 2.12.82 2.82-2.06-.03-1.46 2.66-1.28 3.93 1.44 3.67 5.44 5.32 8.75 6.94l.55-.67c1.62.75 3.24 1.48 4.87 2.23 4.8.91 10.44 2.76 14.87-.28 2.47-2.29 1.77-5.8.64-8.57 1.48-3.19-2.5-3.78-4.67-4.25-.04-1.79-.07-3.59-.08-5.38.02-.75.08-2.27.1-3.02-1.71-1.48-4.17-.64-6.22-.95-4.95.08-10.36-2.84-15-.07m-102.84 3.69c1.25.41 3.02-1.29 2.63-2.56-1.34-.67-3.15 1.24-2.63 2.56m128.55 1.57c-.07.45-.23 1.35-.3 1.8 2.01 1.09 3.94 2.31 5.99 3.31.23-2.85-3.42-2.92-4.16-4.99.76-.69 1.5-1.41 2.21-2.15-1.51.3-5-.55-3.74 2.03m-124.58-.87c-1.49 3.03 3.31.1 0 0m-3.88.89c.48.54.48.54 0 0m2.13 1.96c.55.52.55.52 0 0m2.78.15c-1.17.16-2.05 2.62-.47 2.74 1.04-.25 1.93-2.56.47-2.74m1.96 2.82c1.32.36 2.77-1.72 2.36-2.93-1.42-.51-2.86 1.66-2.36 2.93m.95 2.34c1.19.69 2.43-1.26 1.71-2.23-1.16-.67-2.6 1.26-1.71 2.23m-6.6 1.32c1.06.19 2.11.43 3.18.56.16-.69.49-2.08.65-2.77l-1.38 2.24c-.59-1.03-1.18-2.06-1.76-3.09l-.69 3.06m5.82.42c-1.38.65-1.44 1.32-.17 2 1.38-.64 1.43-1.31.17-2m2.91.65l-.8 2.05 1.14.18.33-1.8c.59.63 1.17 1.27 1.75 1.92.26-.38.79-1.14 1.06-1.51-1.16-.29-2.32-.57-3.48-.84m84.47-.22c-1.68 4.23.18 8.88 2.14 12.68 3.03 3.67 6.95 6.62 9.56 10.61-1.28 4.68-5.61 8.1-5.43 13.23-2.42-.81-4.87-1.89-7.48-1.25 1.19 2.57 4.41 2.79 6.69 3.98 2.95.13 3.79-3.56 3.69-5.91 2.22-3.56 5.17-7.21 4.98-11.64-3.94-4.71-9.81-8.18-11.56-14.37-.89-2.31-.69-4.82-1.24-7.2zm-82.48 3.5c-1.66 2.92 3.33.28 0 0m-3.87 2.65c1.4.21 1.93-.36 1.6-1.71-1.4-.23-1.93.34-1.6 1.71m7.91-1.64c-1.38.67-1.43 1.34-.16 2.01 1.37-.66 1.42-1.33.16-2.01m-5.13 2.04c-.44 1.44.04 1.89 1.42 1.35.44-1.42-.03-1.88-1.42-1.35m125.45.04c-.51 1.2 1.41 2.52 2.43 1.78.55-1.22-1.43-2.45-2.43-1.78m-122.31.41c-1.25.84-1.25 1.54.01 2.08 1.29-.83 1.29-1.52-.01-2.08m5.22 2.49c-.52 1.42-.09 1.86 1.3 1.33.53-1.44.1-1.88-1.3-1.33m-3.2 1.16c.55.56.55.56 0 0m-6.06 2.53c1.38.21 1.96-.36 1.71-1.7-1.41-.24-1.98.33-1.71 1.7m126.91-1.64c.24 3.32 2.96-1.58 0 0m-120.02 2.82c1.34.47 1.9 0 1.69-1.43-1.35-.45-1.91.02-1.69 1.43m110.1-1.7c-.37 1.39.16 1.91 1.56 1.58.35-1.38-.17-1.91-1.56-1.58m-104.97 1.52c-1.42.43-.9 2.82.62 1.96 1.52-.34.89-2.91-.62-1.96m112.15.66c-.26 1.41.28 1.93 1.63 1.55.27-1.4-.27-1.92-1.63-1.55m-126.97.6c-1.31.77-1.33 1.46-.06 2.08 1.31-.77 1.33-1.46.06-2.08m4.81 0c.25 3.31 2.96-1.68 0 0m-3.07 2.81c1.34.37 1.9-.14 1.68-1.55-1.35-.38-1.91.14-1.68 1.55m8.02-1.51c-.46 1.5-.01 1.92 1.34 1.25.47-1.48.02-1.9-1.34-1.25m6.94 1.47c1.4.3 1.93-.24 1.6-1.6-1.4-.29-1.94.25-1.6 1.6m-3.92-.32c-.89 1.21-.64 1.87.75 1.98.89-1.21.64-1.87-.75-1.98m97.93-.35c-1.6 2.95 3.33.21 0 0m5.96.03c-.47 1.36 0 1.93 1.42 1.71.45-1.36-.02-1.93-1.42-1.71m13.18.06c-1.52 2.98 3.34.13 0 0m-110.92.76c-.61 1.35-.18 1.81 1.29 1.39.64-1.35.21-1.81-1.29-1.39m-12.23 1.39c-1.49 3.03 3.31.1 0 0m9.03-.22c-1.24.04-2.06 2.49-.42 2.54 1.14-.09 1.94-2.46.42-2.54m16.1.15c-1.47 3.02 3.35.07 0 0m91.22-.24c.26 3.31 2.95-1.61 0 0M79.2 147.3c-1.67 2.97 3.3.27 0 0m14.81 1.21c-1.38 3.07 3.32-.04 0 0m17.23-.15c.53.49.53.49 0 0m85.08-.18c-.34 1.41.19 1.91 1.56 1.51.33-1.42-.19-1.92-1.56-1.51m3.24 6.61c.46-.13 1.39-.38 1.85-.5.33-2.1.64-4.23.26-6.34-1.68 1.91-1.05 4.63-2.11 6.84m-123.36-3.9c1.42.17 1.91-.4 1.47-1.73-1.42-.17-1.91.41-1.47 1.73m10.88.05c1.32.38 1.88-.14 1.68-1.56-1.35-.37-1.91.15-1.68 1.56m11.98-1.96c-1.41 3.05 3.32.01 0 0m-18.96 1.34c-1.55 2.98 3.33.15 0 0m9.59-.41c1.06 1.82 2.41 3.43 3.69 5.1-1.16.63-2.31 1.28-3.4 2.03 1.33-.42 2.56-1.07 3.77-1.74.6 1.69 1.35 3.33 2.12 4.95 1.67 1.33-.31 2.84-.75 4.27 1.15-1.23 2.21-2.55 3.33-3.81-2.3-3.87-3.76-9.8-8.76-10.8m6.52.2c-1.3.76-1.31 1.45-.03 2.06 1.31-.75 1.31-1.44.03-2.06m6.12.05c-1.41.06-1.87 2.76-.19 2.73 1.52 0 1.96-2.81.19-2.73m29.97 2.1c-1.28 4.49 1.16 10.08 5.74 11.53 1.95.13 4.99.98 5.45-1.73-2.26-.46-4.86-.19-6.74-1.79-1.65-1.94-2.66-4.48-2.3-7.05 1.87-.32 3.85-.34 5.61-1.15 1.19-.08 2.97-1.88.97-2.53-2.84.93-6.75.11-8.73 2.72m-49.22.52c1.4.27 1.94-.28 1.62-1.64-1.41-.28-1.95.27-1.62 1.64m15.35-.86c-.91.43-2.06 2.55-.56 2.92 1.88.24 3.17-4.02.56-2.92m90.75.2c.04 3.34 3.03-1.44 0 0m3.94.13c-1.6 2.95 3.33.22 0 0m-105.07 2.26c1.4.41 1.93-.08 1.6-1.45-1.42-.42-1.95.06-1.6 1.45m17.11-1.52c-1.35.71-1.41 1.4-.16 2.05 1.36-.71 1.41-1.39.16-2.05m-24.96 1.57c-1.29.76-.21 3.26 1.03 1.75 1.12-.8.23-3.2-1.03-1.75m5.15-.42c-.96.26-1.99 2.22-.62 2.61 1.68.31 2.99-3.33.62-2.61m15.87.98c.56.53.56.53 0 0m5.82-.04c-1.29-.02-1.99 2.41-.43 2.54 1.18-.06 1.9-2.39.43-2.54m88.07.31c-1.6 2.96 3.32.23 0 0m3.21.9c.53.59.53.59 0 0m3.76.16c-1.53 3.01 3.31.15 0 0m-117.04 3.03c2.54-.02 4.58 1.26 6.39 2.9a9.169 9.169 0 0 0-1.52 3.89c1.14-1.88 2.02-3.89 2.99-5.86l-.85 1.3c-.86-1.33-1.61-2.71-2.42-4.06-.59.28-1.77.85-2.35 1.13-.22-.32-.64-.95-.85-1.27-.44.67-.94 1.3-1.39 1.97m15.17-2.17c.62.47.62.47 0 0m1.08 2.57c1.23.65 3.08-1.08 2.42-2.35-1.21-.71-3.06 1.12-2.42 2.35m86.14-2.77c.08 3.33 3.02-1.49 0 0m-106.37 1.46c-1.47 3.01 3.31.08 0 0m2.02-.17c-1.44 3.06 3.31.06 0 0m43.7 1.08c-.54 2.57-1.9 4.74-3.77 6.56-2.98 4.28-6.02 8.77-6.93 14.02.41-.14 1.25-.42 1.66-.55 1.35-3.41 2.84-6.76 4.95-9.78 1.58-2.99 4.61-5.1 5.59-8.42-.11-.9-.67-1.54-1.5-1.83m23.58-.06c-1.34.1-2.77 2.4-.8 2.7 2.12-.33 4.77-.05 6.24-1.89-1.47-1.37-3.63-1.05-5.44-.81m41.86-.1c.55.5.55.5 0 0m-110.94 1.63c-1.49.37-.99 2.84.57 1.92 1.57-.36 1.02-2.87-.57-1.92m17.81 2.77c1.21.17 1.94-.38 2.18-1.67-.54-1.75-3.23.52-2.18 1.67m6.19-2.47c.56.56.56.56 0 0m1.91.07c-1.59 2.98 3.32.2 0 0m-25.17 3.41c.75-.31 1.5-.64 2.24-.99.64.05 1.91.15 2.54.19.34-.51 1.01-1.54 1.35-2.06-2.04.98-4.6 1.02-6.13 2.86m19.05-.1c.5.5 1 1 1.5 1.52l-1.11.81c2.29-.3 3.94-1.6 4.47-3.87l-2.2 1.77c-.29-.75-.37-1.53-.25-2.32l-.06-.46c-1.37.06-1.64 1.67-2.35 2.55m11.08-2.25c-1.47 3.01 3.34.05 0 0m82-.14c-.31 1.4.22 1.97 1.59 1.69.31-1.4-.22-1.96-1.59-1.69m-18.84 4.85c.12 4.63 4.93 9.31 1.98 13.68-2.17-4.62-8.16-2.26-12.11-2.47 1.97 1.5 4.53.66 6.79 1 2.76-.33 4.4 2.64 7.11 2.57 0 3.42 4.11 1.53 6.16 1.74-1.49-.3-3.01-.39-4.52-.51.4-6.8-3.61-12.63-3.98-19.3-2.14-1.34-1.28 2.08-1.43 3.29m15.68-3.92c-.42 1.4.06 1.93 1.45 1.59.4-1.4-.09-1.93-1.45-1.59m-82.55 1.22c-1.01.12-2.6 2.3-.9 2.56 1.42.09 3.49-3.48.9-2.56m78.84.12c-.31 1.43.21 1.95 1.56 1.58.31-1.41-.21-1.93-1.56-1.58m-103.63 2.78c.56-.42 1.69-1.24 2.25-1.65.97.78 1.9 1.61 2.86 2.41-.46-1.25-.92-2.51-1.38-3.77-1.5.66-2.99 1.44-3.73 3.01m9.52-2.09c.58.62.58.62 0 0m18.14.01c.09 3.34 3.01-1.5 0 0m2.76-.1c-1.55 3.01 3.31.16 0 0m-18.05.94c-1.41 3.08 3.32-.04 0 0m52.17.17c.31 3.32 2.91-1.69 0 0m36.88.17c-.36 1.41.15 1.91 1.55 1.52.34-1.4-.18-1.9-1.55-1.52m5.82-.77l1.73 1.45c-1.02.77-2.2 1.27-3.46 1.49 1.22.55 2.37 1.21 3.45 2-.56.72-1.13 1.43-1.72 2.13 1 .55 2.02 1.07 3.05 1.59l-1.48-1.23c.59-.55 1.18-1.09 1.78-1.62l-1.73-1.19c.56-.7 1.14-1.38 1.72-2.06-1.01-.98-2.08-1.92-3.34-2.56m-92.86 1.51c-1.38 3.11 3.31-.07 0 0m42.1.09c-.5 1.63.06 2.18 1.69 1.66.49-1.63-.07-2.18-1.69-1.66m3.97.07c-1.5 3 3.33.11 0 0m15.24-.23c.22 3.33 2.95-1.59 0 0m-82.25 1.2c-1.45 3.02 3.34.04 0 0m7.15 1.37c1.35.37 1.89-.15 1.61-1.57-1.33-.37-1.86.15-1.61 1.57m3.59 4.23c.89-.86 1.78-1.73 2.67-2.59.1-1.17.2-2.34.28-3.5-1.02 2.01-2 4.04-2.95 6.09m4.55-5.8c.16 3.31 3.01-1.57 0 0m8.76 1.65c1.37.34 1.91-.18 1.61-1.57-1.38-.36-1.92.17-1.61 1.57m6.28-1.94l-.76 1.52c.91 2.01.58 4.21.59 6.34 1.36-2.37 1.76-5.49.17-7.86m23.86.41c-1.33.68-1.35 1.36-.07 2.04 1.33-.69 1.35-1.37.07-2.04m3.14.17c-.55 1.36 1.45 2.2 2.49 1.68.27-.37.81-1.09 1.08-1.46-.76-1.01-2.75-1.31-3.57-.22m-40.14 3.3c1.23.62 3.11-1.22 2.4-2.44-1.27-.56-3.04 1.17-2.4 2.44m51.9-2.65c-1.31.77-1.33 1.46-.06 2.07 1.32-.77 1.34-1.46.06-2.07m10.1.23c.6.59.6.59 0 0m9-.04c-.29.27-.87.82-1.16 1.1.94 3.28 5.19-1.68 1.16-1.1m-79.18 1.09c-1.44 3.09 3.31.02 0 0m24.02.05c-1.55 3 3.32.16 0 0m3.08.11c-1.67 2.93 3.32.3 0 0m26.96-.19c.57.59.57.59 0 0m2.05-.05c.6.55.6.55 0 0m9.81-.07c-1.52 3.01 3.33.11 0 0m32.25.01c-.36 1.4.16 1.89 1.55 1.48.36-1.4-.15-1.89-1.55-1.48m3.77.17c-.87.95.42 2.97 1.62 2.3.72-.94-.41-2.99-1.62-2.3m-90.82.77c-1.26.81-1.25 1.51.04 2.1 1.27-.81 1.25-1.51-.04-2.1m4.86.25c-1.51 3.01 3.32.11 0 0m2.12-.01c-.34 1.4.18 1.94 1.57 1.63.33-1.39-.19-1.94-1.57-1.63m27.95-.04c-.83 1.04-.76 3.2.61 3.77 1.63-.37 1.07-4.17-.61-3.77m16.09-.04c-.53 1.42-.09 1.87 1.33 1.34.53-1.42.09-1.87-1.33-1.34m6.1-.18c.09 3.34 3-1.5 0 0m6.01.2c.57.58.57.58 0 0m10.84-.14c.17 3.34 2.97-1.56 0 0m-94.98.6c.72 5.19 2.89 10.81.45 15.86 1.65 2.88-.78 5.79-2.04 8.31.25.15.76.45 1.01.6.9-1.05 1.81-2.1 2.72-3.14.4-5.55 1.08-11.13.45-16.7.89.02 2.67.05 3.56.06-1.2-.28-2.41-.49-3.63-.61-.66-1.56-1.16-3.27-2.52-4.38m16.14.54c.51.61.51.61 0 0m37.83-.14c-1.31.72-1.31 1.41-.02 2.06 1.29-.72 1.3-1.41.02-2.06m7.16-.16c-.02 3.34 3.05-1.41 0 0m4.73 1.92c1.4.25 1.91-.3 1.55-1.65-1.42-.24-1.93.31-1.55 1.65m26.14-1.65c.57.57.57.57 0 0m-68.99 1.07c-1.57.25-1.21 2.95.44 1.91 1.45-.34 1.2-2.82-.44-1.91m27.85.03c-.88 1.21-.64 1.91.73 2.09.88-1.22.63-1.91-.73-2.09m27.12-.06c.48.52.48.52 0 0m9.37 2.69c1.34.76 2.16-1.61 1.33-2.46-1.27-.67-2.12 1.63-1.33 2.46m-93.18-1.9c.05 3.31 3.06-1.44 0 0m39.65.11c-1.53 3 3.32.15 0 0m13.24-.08c.2 3.33 2.94-1.6 0 0m12.91.13c.56.57.56.57 0 0m8.19-.17c.12 3.33 2.99-1.52 0 0m5.77.17c-1.53 3.01 3.32.12 0 0m8.06 0c.55.59.55.59 0 0m1.95-.2c-.26 1.42.28 1.9 1.61 1.44.26-1.44-.28-1.92-1.61-1.44m6.34.25c-.4 1.37.1 1.91 1.49 1.65.41-1.36-.09-1.91-1.49-1.65m19.38-.47c.47 1.01.94 2.01 1.42 3.02.34-.51 1.01-1.52 1.35-2.02.36 1.5 1.12 2.73 2.27 3.67-.7-1.66-1.52-3.25-2.34-4.85l-.7 1.53c-.5-.34-1.5-1.01-2-1.35m-92.75 1.31c-1.65 2.96 3.28.31 0 0m7.75-.16c-.47.36-1.39 1.08-1.86 1.44 1.01.61 1.89 1.36 2.65 2.26l1.27-1.23c-.69-.82-1.38-1.64-2.06-2.47m3.37.3c.54.54.54.54 0 0m25.1.07c.6.52.6.52 0 0m24-.07c.55.52.55.52 0 0m16.87.23c-1.7 2.9 3.32.35 0 0m2-.31c-.57 1.19 1.36 2.53 2.34 1.7.57-1.2-1.36-2.5-2.34-1.7m-98.99 1.08c.49.54.49.54 0 0m23.95-.02c-1.48 3.01 3.34.09 0 0m9.05.07c-1.26-.04-2.09 2.37-.47 2.44 1.25.03 2.08-2.38.47-2.44m33.98-.09c.52.5.52.5 0 0m-45.72 2.52c1.41.3 1.91-.22 1.52-1.58-1.39-.32-1.89.2-1.52 1.58m17.67-1.63c-.45 1.42.02 1.87 1.42 1.36.46-1.41-.02-1.87-1.42-1.36m-29.78 1.13c.54.55.54.55 0 0m102.54.27c-1.21 1.55 2.45 3.42 3.01 1.56-.09-1.34-1.88-2.19-3.01-1.56m-112.78 1.04c-.91.99.65 2.81 1.75 2 .9-1-.65-2.81-1.75-2m27.9 3.11c1.48.13 4.22-1.33 3.89-3.03-1.53-.33-4.15 1.35-3.89 3.03m-13.77-2.45c.5.51.5.51 0 0m21.04.15c-1.03 1.38 1.18 3.69 2.58 2.51 1.13-1.42-1.22-3.42-2.58-2.51m6.91 1.96c.49.54.49.54 0 0m-29.04.88c.57.61.57.61 0 0m19.1.06c.56.55.56.55 0 0m-16.19 1.02c-.43 1.4.05 1.92 1.45 1.57.42-1.39-.06-1.92-1.45-1.57m13.08.33c-.6 1.72-.11 2.27 1.49 1.67.59-1.69.09-2.25-1.49-1.67m5.94 1.06c-.04.48-.1 1.45-.13 1.94 1.42-.61 2.85-1.16 4.32-1.65-.12-.37-.34-1.13-.46-1.5-1.24.41-2.49.81-3.73 1.21m-34.84-.38c.58.51.58.51 0 0m9.85-.18c.21 3.3 2.99-1.57 0 0m23.11.15c.6.56.6.56 0 0m10.1-.04c.32 3.31 2.92-1.71 0 0m71.03-.14c.22 3.3 3-1.56 0 0m-75.06.88c-.56 1.41-.13 1.91 1.29 1.5.58-1.37.15-1.87-1.29-1.5m2.09 1.73c-1.33 1.86 3.79 3.29 3.1.87-.72-.81-2.07-1.55-3.1-.87m40.64-.84l-.07 1.14 1.4.14c-.48 1.05-.97 2.09-1.45 3.14.8-.06 2.41-.19 3.21-.26l-.16-2.83c-.98-.44-1.96-.88-2.93-1.33m4.16 3.88c4.29-.72 8.63-.84 12.86.31-1.81-1.95-4.54-2.12-7.01-2.37-.21-.49-.61-1.47-.81-1.96.06.55.19 1.67.25 2.22-1.49.07-2.97.16-4.46.27l.54-1.86-.48-.26c-.28 1.22-.59 2.43-.89 3.65m-13.32-3.38c.03 1.09.29 2.12.78 3.09 1.05-.28 2.1-.58 3.15-.9.23.67.69 2.01.92 2.67.45-1.92-1.03-3.18-2.18-4.46-.48.63-.97 1.26-1.46 1.89zm7.2.89c-1.49 3.05 3.3.11 0 0m-70.62.88c.31 3.29 2.96-1.64 0 0m3.99.03c.38 3.29 2.91-1.7 0 0m4.66.09c.52.57.52.57 0 0m28.1.1c.18 3.34 2.96-1.68 0 0m7.96-.25c-1.43 3.05 3.33.01 0 0m-32.69.96c.12 3.32 3.01-1.49 0 0m19.75 1.15c.59.55.59.55 0 0m1.62 1.82c1.85.42 3.74.44 5.62.29l-.42-.8 1.27-1.99c-1.65.77-3.38 2.7-5.1.9-.46.53-.92 1.06-1.37 1.6m16.33-.21c1.38.33 1.91-.2 1.59-1.59-1.38-.34-1.91.19-1.59 1.59m32.08-1.61c.55.47.55.47 0 0m-81.97 1.14c.53.48.53.48 0 0m28.84-.22c-.5 1.44-.06 1.92 1.34 1.44.5-1.43.05-1.91-1.34-1.44m30.17 1.48c1.38.35 1.9-.17 1.58-1.55-1.36-.36-1.89.15-1.58 1.55m-52.12-.39c.58.56.58.56 0 0m3.52-.32c1.83 1.9 4 3.39 6.06 5.01.01-.31.04-.94.06-1.25-1.95-1.39-3.86-2.89-6.12-3.76m5.59.47c.54.52.54.52 0 0m23.18-.05c.04 1.98.13 3.97 1.01 5.78.04-.56.11-1.69.15-2.26.28-.05.84-.15 1.12-.19-.38-.21-1.13-.63-1.5-.84a8.32 8.32 0 0 1-.06-2.54c-.18.01-.54.04-.72.05m2.62-.21c.07 3.33 3.03-1.5 0 0m-38.79.88c-.29 1.38.25 1.86 1.63 1.42.31-1.4-.24-1.88-1.63-1.42m15.37 2.32l-1.14-1.74c-.27 2.7 2.28 2.25 4.09 2.48l-.44 1.37c.36.01 1.09.04 1.45.05-.52-1.03-1.04-2.06-1.57-3.09.48-.27 1.42-.82 1.89-1.09-1.44.63-2.86 1.32-4.28 2.02m26.43-1.97c-1.51 3 3.33.11 0 0m5.08-.05c-1.42.56-1.52 1.23-.31 2.01 1.41-.57 1.51-1.24.31-2.01m2.07 2.19c1.17.7 3.14-.84 2.72-2.14-1.17-.74-3.29.78-2.72 2.14m-18.17-1.05c-1.38 3.11 3.29-.03 0 0m1.98 1.56c1.35.21 1.83-.38 1.45-1.78-1.37-.22-1.85.37-1.45 1.78m21.38-1.74c-.37.23-1.11.68-1.48.91 1.16 2 1.88 4.21 3.07 6.2 1.54-2.53-.3-4.93-1.59-7.11m2.67.06c-1.5 3.05 3.29.12 0 0m3.13-.13c-1.16.57-1.75 2.33-1.03 3.44 1.43.35 2.61-3.12 1.03-3.44m12.23.4c-1.3 1.12-2 4.89.25 5.06.16-1.46 1.01-4.13-.25-5.06m-9.99.56c.13 3.33 2.99-1.52 0 0m5.96.01c-1.39.6-1.35 3.18-.03 3.85 1.45-.4 1.57-3.52.03-3.85m6.6.09c-1.52 3.05 3.31.07 0 0m13.12-.25l-.01.57c2.18.56 4.4 1.05 6.67.82-.52-.59-1.04-1.17-1.55-1.75l-.2 1.35c-1.64-.35-3.28-.65-4.91-.99m-86.89 1.26c.57.52.57.52 0 0m5.02-.1c.25 3.3 2.99-1.58 0 0m34.19.38c-.17.09-.5.28-.66.37.45.79 1.91 2.26.63 2.96-.27-.21-.83-.64-1.1-.85-.32.47-.95 1.42-1.27 1.89.89.32 1.78.65 2.67.97.99-1.18 1.37-3.18 2.98-3.66.22.59.68 1.76.9 2.34.56-1.54 1.08-3.09 1.57-4.65l-.7 1.35c-1.6-.73-3.3-.85-5.02-.72m40.14-.55c.17 1.59-.27 2.54-1.33 2.86-.29-.32-.88-.98-1.17-1.3.06.9.17 2.7.23 3.6.82-.4 1.63-.82 2.43-1.27-.05-1.3-.08-2.6-.16-3.89m-77.52 1.2c-.53 1.62.02 2.2 1.65 1.73.52-1.61-.03-2.19-1.65-1.73m12.11.08c-.54 1.61.01 2.18 1.65 1.69.54-1.61-.01-2.18-1.65-1.69m31.84.02c-.4 1.48.08 1.92 1.43 1.3.41-1.46-.07-1.89-1.43-1.3m3.29-.01c-.54 1.41-.1 1.86 1.33 1.34.54-1.42.1-1.87-1.33-1.34m33.91.14c-.88 1.19-.64 1.9.71 2.12.89-1.19.65-1.9-.71-2.12m-87.09.92c-.18 1.37.42 1.9 1.8 1.57.19-1.36-.41-1.89-1.8-1.57m26.01.02c-.4 1.39.1 1.9 1.5 1.53.4-1.39-.1-1.9-1.5-1.53m12.02.01c-1.47.49-.75 3.08.75 2.78 1.38-.54.77-3.14-.75-2.78m26.99-.12c-.54 1.62.01 2.17 1.65 1.64.54-1.62-.01-2.17-1.65-1.64m2.9.03c-1.45 3.07 3.3.1 0 0m17.02.12c-1.59 2.99 3.29.25 0 0m6.47-.09c-.45 1.4-.01 2.02 1.34 1.89.48-1.4.03-2.03-1.34-1.89m-96.47 1.03c-.34 1.39.18 1.92 1.59 1.59.33-1.38-.2-1.91-1.59-1.59m18.96-.17c-1.55 2.98 3.34.16 0 0m48.42.05c-.46 1.37.01 1.91 1.42 1.61.46-1.39-.01-1.93-1.42-1.61m15.67.33c-1.51 3.11 3.23.23 0 0m16.9-.23c-.43 1.4.05 1.95 1.45 1.67.42-1.39-.07-1.94-1.45-1.67m-90.87.8c.23 3.31 2.97-1.59 0 0m5.98-.02c.44 3.31 2.84-1.79 0 0m8.97.53c-.69 1.32 1.38 3.03 2.61 2.31.49-1.27-1.42-2.85-2.61-2.31m10.41-.59c.06 3.32 3.02-1.41 0 0m19.81 3.77c-.75-1.35-1.84-2.4-3.28-2.97.74 1.19 1.5 2.38 2.28 3.55l-1.99.3c-.22.51-.65 1.54-.87 2.05l1.91-1.18c.39.16 1.17.49 1.55.66l.74.6c.7-.16 1.39-.32 2.09-.47.18.28.53.82.7 1.1.87-1.13 1.88-2.14 2.84-3.19l-2.48.6.33-1.96c-.49.89-1.12 1.49-1.92 1.81-1.21-1.28-.27-3.26-.65-4.81-.6 1.15.69 4.1-1.25 3.91m3.79-3.53c-1.45 3.06 3.31.05 0 0m2.17-.14c-.59 1.6-.06 2.18 1.58 1.73.59-1.62.06-2.2-1.58-1.73m17.8.45c-.43 1.18-.1 2.13 1.02 2.85l.51-.12c.55-.97-.19-3.22-1.53-2.73m-48.94.61c-1.7 2.88 3.31.42 0 0m45.99.08c-.37 1.41.14 1.94 1.51 1.59.36-1.42-.14-1.95-1.51-1.59m18.35-.11c-.9.88.32 2.91 1.52 2.26.97-.91-.3-2.96-1.52-2.26m2.76.23c-.47 1.15.2 3.75 1.76 3.46.63-1.15-.4-3.55-1.76-3.46m-91.33 1.33c.78 1.3 1.47 1.34 2.1.12-.76-1.33-1.46-1.37-2.1-.12m7.18-.59c-1.47 3.02 3.33.08 0 0m54.27-.04c-.93.85-1.53 2.49-1.02 3.69 1.44.12 2.78-3.49 1.02-3.69m3.4 1.63c-.4-.1-1.21-.3-1.61-.39.62 2.34 1.43 4.63 2.51 6.81.21-.25.63-.76.83-1.02-.44-1.42-.86-2.84-1.25-4.27.84.65 2.51 1.97 3.34 2.63-.24-.6-.72-1.78-.95-2.38-.75-.84-1.51-1.66-2.18-2.56-.17.3-.52.88-.69 1.18m2.87 1.38c1.44-.05 2.02-2.45.74-3.14-1.34.14-1.13 2.23-.74 3.14m8.86-2.97c-.4 1.37.1 1.9 1.5 1.57.4-1.39-.1-1.91-1.5-1.57m2.72.14c.54.52.54.52 0 0m5.05-.01c.59.57.59.57 0 0m1.78-.12c-.82.95.44 2.96 1.65 2.41.73-.96-.42-2.99-1.65-2.41m-92.09 1.23c-.81 1.44 1.55 3.13 2.85 2.38.73-1.42-1.59-3.04-2.85-2.38m18.56-.37c-.69 1.18 1.24 2.47 2.22 1.74.66-1.15-1.24-2.6-2.22-1.74m3.68.08c-.28 1.4.27 1.94 1.64 1.64.28-1.41-.27-1.95-1.64-1.64m13.01.22c.55.6.55.6 0 0m14.84-.03c-1.58 3.03 3.3.17 0 0m12.89.09c-.46 1.44.02 1.85 1.42 1.24.46-1.44-.02-1.85-1.42-1.24m24.13-.15c-1.46 3.05 3.31.07 0 0m-48.72.96c.17 3.31 3.01-1.52 0 0m40.71-.04c1.15 2.22-1.29 3.08-2.76 3.79 1.42.63 2.94.79 4.46.55.59 1.12.5 2.48.84 3.69-.01-1.35.18-2.64.59-3.86 1.26.82 2.19 2.23 3.63 2.92-.87-1.5-1.82-2.96-2.39-4.61-1.75-.28-3.52-.77-4.37-2.48m2.23.12c.5.53.5.53 0 0m8.15-.01c-.39 1.38.09 1.99 1.45 1.84.42-1.38-.06-2-1.45-1.84m-79.22 1.07c.55.49.55.49 0 0m20.1-.18c-.7 1.14 1.19 2.58 2.17 1.73.7-1.16-1.18-2.59-2.17-1.73m45.91.19c.52.54.52.54 0 0m-70.74.85c.2 1.34.91 1.57 2.13.7-.2-1.35-.91-1.58-2.13-.7m11.79-.13c.24 3.32 2.98-1.55 0 0m46.87.37c-1.69 2.91 3.3.34 0 0m21.12-.05c-.98 1.4 1.44 2.94 2.61 2.06.97-1.39-1.43-3.18-2.61-2.06m6.79-.07c-.43 1.37.07 1.91 1.48 1.61.41-1.37-.08-1.91-1.48-1.61m3.21-.16c.56.58.56.58 0 0m-69.19.93c-.24 1.4.32 1.89 1.67 1.47.23-1.43-.33-1.92-1.67-1.47m-16.94 1.39c-1.61 2.96 3.33.22 0 0m26.92-.18c-1.63 2.93 3.32.28 0 0m3.06-.03c.57.5.57.5 0 0m50.26-.07c.52.58.52.58 0 0m-74.92 1.03c.41 3.29 2.88-1.76 0 0m4.62.09c-1.48 3 3.34.07 0 0m3.06-.25c.14 3.34 2.99-1.54 0 0m51.97.18c.58.53.58.53 0 0m-44.96.9c.23 3.3 2.99-1.59 0 0m47-.06c.26 3.33 2.93-1.65 0 0m-54 1.1c-.51 1.39-.05 1.88 1.37 1.47.51-1.39.05-1.88-1.37-1.47m18.87.02c-.39 1.31.14 1.84 1.58 1.58.37-1.35-.16-1.88-1.58-1.58m-24.78 1.1c.52.51.52.51 0 0m17.18.01c-.77 1.2 1.31 2.42 2.23 1.55.76-1.2-1.32-2.43-2.23-1.55m-23.89.95c-.77 1.18 1.25 2.46 2.2 1.62.75-1.18-1.27-2.49-2.2-1.62m17.67.39c-.26 1.51 2.24 3.1 3.57 2.37.15-1.55-2.22-2.74-3.57-2.37m12.89.9c-.88 1.17-.63 1.86.75 2.05.88-1.18.63-1.86-.75-2.05m13.04-.5c-1.59 2.96 3.31.23 0 0m-10.99 1.13c-.22 1.6 1.57 3.98 3.31 3.58.33-1.54-1.79-3.74-3.31-3.58m5.46-.12c.14 1.37.83 1.62 2.06.76-.15-1.38-.83-1.63-2.06-.76m9.6.31c.64.55.64.55 0 0m-38.82.84c-.34 1.37.19 1.9 1.58 1.56.34-1.39-.18-1.91-1.58-1.56m6.88-.1c.1 3.31 3.03-1.49 0 0m11.13.14c.51.58.51.58 0 0m17.74.83c-.02 3.33 3.07-1.38 0 0m7.09.18c.54.54.54.54 0 0m14.88 0c.57.58.57.58 0 0m-44.05.94c-1.15 1.44 1.56 2.41 2.42 1.31 1.13-1.44-1.57-2.42-2.42-1.31m18.24.03c-1.17 1.47 1.46 2.97 2.49 1.66 1.16-1.47-1.47-2.98-2.49-1.66m14.94-.04c.57.58.57.58 0 0m4.88-.25c-1.31.74-1.29 1.4.05 1.98 1.31-.75 1.29-1.41-.05-1.98m-42.99 1.13c-.21 1.42.34 1.9 1.67 1.43.21-1.45-.35-1.93-1.67-1.43m13.13.08c.52.53.52.53 0 0m16.14.09c.77 1.98 1.29 4.09 2.42 5.92 1.86 2.74 5.18 3.63 8 5-.78-1.02-1.56-2.04-2.38-3.03-4.25-.42-5.51-4.92-6.62-8.31-.35.1-1.06.31-1.42.42m5.75.12c-1.51 3.05 3.31.07 0 0m-26.79.81c.17 3.32 3.01-1.53 0 0m39.92 1.45c1.36.35 1.9-.17 1.64-1.57-1.36-.37-1.91.16-1.64 1.57m-29.15-.2c-1.61 2.94 3.33.23 0 0m26.03-.11c-1.42.61-1.49 1.27-.2 1.96 1.4-.61 1.47-1.26.2-1.96m-38.11.95c-.41 1.37.1 1.9 1.51 1.58.4-1.38-.1-1.9-1.51-1.58m20.19-.1c.3 3.31 2.92-1.66 0 0m-3.3 1.27c-1.36 3.07 3.33-.05 0 0m15.48-.14c-1.21-.01-2.01 2.38-.45 2.44 1.25.02 2.12-2.43.45-2.44m-28.25.72c-.37 1.4.13 1.9 1.49 1.5.36-1.42-.14-1.93-1.49-1.5m5.04.27c.57.58.57.58 0 0m25.02.82c0 3.32 3.06-1.41 0 0m10.06.06c.16 3.29 3.03-1.55 0 0m-23.26.9c-.46 1.36.01 1.92 1.42 1.67.43-1.37-.04-1.93-1.42-1.67m16.22 1.8c1.4.31 1.92-.23 1.56-1.61-1.4-.31-1.92.23-1.56 1.61m-24.43-1.19c1.32 2.12 3.11 4 3.65 6.53l.95-.01c-.69-2.66-2.27-5.03-4.6-6.52m-3.6 1.61c-.39 1.39.11 1.9 1.51 1.54.39-1.39-.12-1.91-1.51-1.54m33.14 1.17c1.38.39 1.93-.11 1.64-1.47-1.39-.42-1.93.08-1.64 1.47m-39.19-.28c-.26 1.42.29 1.88 1.64 1.38.26-1.43-.28-1.89-1.64-1.38m20.08 2.1c.55.61.55.61 0 0m8.96.08c-1.45 3.03 3.34.04 0 0m5.29-.3c.17 3.32 2.99-1.57 0 0m5.64 1.1c-1.53 2.99 3.34.13 0 0zM110.91 68.27c5.11-.09 10.18-.9 15.29-1.03-4.53 1.83-9.47 2.15-14.09 3.67-4.76 1.75-9.71 2.87-14.64 4 3.92-3.1 8.7-5.15 13.44-6.64z"/><path fill="#fff" d="M182.79 189.85c1.48-.79 3.02-1.44 4.66-1.88-.37 2.94.65 3.56 3.05 1.89-.34.9-1.01 2.7-1.34 3.61-2.58-.01-4.28-2.47-6.37-3.62z"/><path fill="#000101" d="M140.25 68.37c3.95 1.92 8.17 3.81 12.69 3.37 7.06-.4 14.06.9 21.11.78 2.02-.23 4.07 1.1 4.47 3.13-4.13-2.57-9.04-1.37-13.6-1.99-5.29-.59-10.61-.23-15.92-.44-3.29-.72-6.42-2.01-9.57-3.19.2-.41.61-1.24.82-1.66zm-27.3 15.14c4.21-1.45 8.72-.69 13.08-.88 2.77.08 6.15-.64 7.99 1.99-7.55-.9-15.45-1.55-22.81.77-2.02.46-4.07.77-6.1 1.19-3.21.53-5.83 2.8-9.07 3.21 4.23-4.83 11.19-4.63 16.91-6.28zm51.73 3.67c3.67-4.88 10.06-3.98 15.4-3.82 2.74.13 5.49 1.03 7.48 2.99 1.97 1.92 4.72 3.18 5.9 5.8-4.58-1.18-6.75-6.43-11.52-7.11-3.59-.57-7.28-.46-10.89-.21-2.14.77-4.03 2.22-6.37 2.35zm-30.86 4.67c3.72-.15 6.54 4.44 6.16 7.86-1.85-2.78-3.61-5.64-6.16-7.86zm-22.34 3.82c1.99-.53 4.13-.88 6.14-.27-.03.28-.1.82-.14 1.09-5.74.74-11.37 2.47-17.22 2.26.04-.32.11-.95.15-1.27 3.61-1.06 7.49-.58 11.07-1.81zm70.44 2.66c2.16-.11 4.45-.42 6.5.48 4.36 1.88 8.93 3.29 13.21 5.34.08.43.25 1.28.33 1.7-5.07-1.59-9.87-3.93-14.92-5.59-1.78-.5-4.09-.05-5.12-1.93zm-91.49 10.42c2.02-2.47 4.93-.13 6.84 1.24.72.69 1.43 1.39 2.15 2.08-3.58.08-7.17.22-10.6 1.36 1.24-2.46 3.82-3.02 6.33-3.15-1.58-.51-3.16-1.01-4.72-1.53zm81.53 3.18c4.64-2.77 10.05.15 15 .07 2.05.31 4.51-.53 6.22.95-.02.75-.08 2.27-.1 3.02-.21 2.25-.49 4.49-.81 6.73-2.79-.25-5.59-.62-8.22-1.61-4.35-1.72-9.11-1.48-13.69-1.89-.2-2.52-1.1-5.76 1.6-7.27m.75 5.1c2.65.56 5.38.51 8.07.27-.29-1.43-.58-2.85-.86-4.27-2.79.03-8.93-.66-7.21 4m15.48 1.31c-1.54 1.53 1.41 2.9 2.26 1.31 1.37-1.57-1.37-2.9-2.26-1.31zm9.48-1.15c-1.26-2.58 2.23-1.73 3.74-2.03-.71.74-1.45 1.46-2.21 2.15.74 2.07 4.39 2.14 4.16 4.99-2.05-1-3.98-2.22-5.99-3.31.07-.45.23-1.35.3-1.8zm-27.31 7.34c4.7 1.31 9.06 3.6 13.97 4.25 3.8 1.68 8 1.24 11.9.18-1.81 3.61-6.45 2.81-9.7 2.25-5.54-1.83-12.24-1.67-16.17-6.68zm8.1 6.49c1.86.59 3.68 1.31 5.5 2.01-.41.36-1.23 1.07-1.64 1.42-1.63-.75-3.25-1.48-4.87-2.23.25-.3.76-.9 1.01-1.2zm21.1 23.77c1.06-2.21.43-4.93 2.11-6.84.38 2.11.07 4.24-.26 6.34-.46.12-1.39.37-1.85.5zm-109.87-4.88c5 1 6.46 6.93 8.76 10.8-1.12 1.26-2.18 2.58-3.33 3.81.44-1.43 2.42-2.94.75-4.27-.77-1.62-1.52-3.26-2.12-4.95-1.21.67-2.44 1.32-3.77 1.74 1.09-.75 2.24-1.4 3.4-2.03-1.28-1.67-2.63-3.28-3.69-5.1zm37.09 9.57c.83.29 1.39.93 1.5 1.83-.98 3.32-4.01 5.43-5.59 8.42-2.11 3.02-3.6 6.37-4.95 9.78-.41.13-1.25.41-1.66.55.91-5.25 3.95-9.74 6.93-14.02 1.87-1.82 3.23-3.99 3.77-6.56zm48.53 7.61c.15-1.21-.71-4.63 1.43-3.29.37 6.67 4.38 12.5 3.98 19.3 1.51.12 3.03.21 4.52.51-2.05-.21-6.16 1.68-6.16-1.74-2.71.07-4.35-2.9-7.11-2.57-2.26-.34-4.82.5-6.79-1 3.95.21 9.94-2.15 12.11 2.47 2.95-4.37-1.86-9.05-1.98-13.68zm-99.1 4.63c1.36 1.11 1.86 2.82 2.52 4.38 1.22.12 2.43.33 3.63.61-.89-.01-2.67-.04-3.56-.06.63 5.57-.05 11.15-.45 16.7-.91 1.04-1.82 2.09-2.72 3.14-.25-.15-.76-.45-1.01-.6 1.26-2.52 3.69-5.43 2.04-8.31 2.44-5.05.27-10.67-.45-15.86zm55.18 48.48c.36-.11 1.07-.32 1.42-.42 1.11 3.39 2.37 7.89 6.62 8.31.82.99 1.6 2.01 2.38 3.03-2.82-1.37-6.14-2.26-8-5-1.13-1.83-1.65-3.94-2.42-5.92z"/><path fill="#e1e1e1" d="M235.37 77.89c.84-3.2 3.38-5.28 6.3-6.55.72.48 2.16 1.44 2.88 1.93-.24 2.09-1.57 3.56-3.37 4.53-.53-.42-1.59-1.27-2.12-1.69-1.23.59-2.46 1.19-3.69 1.78z"/><path fill="#c5c5c5" d="M235.37 77.89c1.23-.59 2.46-1.19 3.69-1.78.53.42 1.59 1.27 2.12 1.69-.75 2.04-1.3 4.16-1.42 6.33-.4-1.13-.8-2.25-1.21-3.37-1.27 3.3-1.69 6.82-1.79 10.33-1.01-1.51-2.04-3.01-3-4.55.04-2.94.65-5.87 1.61-8.65zm.3 62.34c-.1-6.65-1.79-13.44.31-19.95 3.12 6.29 2.33 13.65-.31 19.95zm-19.53 13.86c1.97-4.63 5.76-8.02 9.56-11.15-1.03 1.91-2.01 3.85-3.1 5.72-2.61 2.77-4.98 6.05-5.39 9.94-.79 4.42-.7 9 .64 13.3.54 2.21.99 4.45 1.44 6.68.55-.47 1.09-.94 1.64-1.4.11 3.48.55 7.07-.39 10.48-1.11 2.91-3.73 4.85-6.08 6.73-4.38 3.53-10.21 4.03-15.07 6.65-.24-.17-.73-.51-.98-.69 4.23-3.27 9.15-5.43 13.54-8.44 1.62-1.23 3.42-2.69 3.84-4.78 1.05-7.36-.29-14.74-.83-22.07.11-3.66-.69-7.61 1.18-10.97z"/><path fill="#c5c5c5" d="M219.43 154.6c1.58-3.1 4.91-4.7 7.59-6.7l.24 3.75c1.24-1.54 2.5-3.06 3.72-4.61-.26 5.94-3.29 11.2-7.33 15.4-.32-1.11-.65-2.21-.97-3.31-.85.59-1.7 1.19-2.54 1.78-.3-2.08-1.08-4.2-.71-6.31z"/><path fill="#969696" d="M33.08 85.86c1.1-1.98 2.33-3.88 3.7-5.68a87.657 87.657 0 0 1-3.7 5.68zm184.13 72.74c.34 1.3.72 2.58 1.1 3.87.76.08 1.53.17 2.31.25.29 3.85.17 7.76-.99 11.47-.45-.57-1.34-1.72-1.78-2.29-1.34-4.3-1.43-8.88-.64-13.3zM82.37 178.23c.54.55.54.55 0 0zm24.73 7.43c1.24-.4 2.49-.8 3.73-1.21.12.37.34 1.13.46 1.5-1.47.49-2.9 1.04-4.32 1.65.03-.49.09-1.46.13-1.94zm29.12 32.56c.54.54.54.54 0 0zm-29.17.94c.85-1.11 3.55-.13 2.42 1.31-.86 1.1-3.57.13-2.42-1.31z"/><path fill="#e0e0e0" d="M236.76 91.09c.1-3.51.52-7.03 1.79-10.33.41 1.12.81 2.24 1.21 3.37.73 2.47 1.78 4.83 2.6 7.27-2.39.5-4.84 1.13-6.52 3.02-1.79 1.57-3.65 3.04-5.44 4.6.01-4.6-.3-9.16-1.16-13.68 2.97-.36 3.15 3.33 4.5 5.13.01-.98.02-2.95.02-3.93.96 1.54 1.99 3.04 3 4.55zm-.24 16.49c.91-1.68 1.82-3.35 2.67-5.06.03 4.61-1.5 9.1-4.4 12.69l-.39.59c-.06-.94-.16-2.81-.21-3.74.76-1.5 1.53-3 2.33-4.48zm-10.49 4.1c.41-.4 1.24-1.18 1.66-1.57.46 3.64.84 7.3.97 10.97.43 3.08 1.91 5.88 2.44 8.93-.12 3.14-1.18 6.14-2.22 9.07l-.75.7c-1.26-6.11-2.57-12.44-.75-18.59-.6-3.14-1.53-6.29-1.35-9.51z"/><path fill="#d3d3d3" d="M235.84 94.42c1.68-1.89 4.13-2.52 6.52-3.02.38 3.77-.96 7.34-2.88 10.5-1.34-2.37-1.51-5.07-1.55-7.71-.52.05-1.57.17-2.09.23z"/><path fill="#0d0d0d" d="M167.07 103.05c.45-3.13-.65-7.13 1.74-9.61.23 3.38-.23 6.74-.43 10.11-.33-.13-.98-.38-1.31-.5zm-8.89 87.67c.3-1.22.61-2.43.89-3.65l.48.26-.54 1.86c1.49-.11 2.97-.2 4.46-.27-.06-.55-.19-1.67-.25-2.22.2.49.6 1.47.81 1.96 2.47.25 5.2.42 7.01 2.37-4.23-1.15-8.57-1.03-12.86-.31zM16.63 199.5c10.08-4.39 20.73-7.9 31.78-8.64-.55 1.37-.38 4-2.43 4.04-10.32.9-20.67 3.97-29.31 9.77-3.06 1.74-5.26 5.43-4.21 8.94 2.27 3 5.45 5.42 8.94 6.83 6.65 1.13 13.27 2.53 20.02 3.04 4.46 1.17 8.9 2.27 13.52 2.5 8.26 6.19 17.43 11.15 25.56 17.53 2.82 3.27 4.6 7.32 5.65 11.47-28.37.27-56.77.22-85.14.02-.19-5.3-.26-10.6-.04-15.9 7.03 1.69 14.19 2.93 21.4 3.55 5.32.68 11.09 1.07 15.51 4.45 2.69 1.8 4.81 4.87 8.35 4.92-4.67-6.71-12.25-10.89-20.34-11.67-8.36-.48-16.57-2.15-24.8-3.54-.34-7.27-.19-14.56-.26-21.83-.19-1.65.8-2.96 1.67-4.24-1.26 6.46 3.02 13.62 9.57 14.96 2.57-.02 5.64-.17 7.28-2.44-3-.26-6.1.09-9.05-.61-2.37-1.57-3.75-4.14-5.14-6.54.41-2.67.04-5.43.6-8.07 1.78-4.64 6.89-6.3 10.87-8.54zm103.82-6.2c.18-.01.54-.04.72-.05-.11.85-.09 1.7.06 2.54.37.21 1.12.63 1.5.84-.28.04-.84.14-1.12.19-.04.57-.11 1.7-.15 2.26-.88-1.81-.97-3.8-1.01-5.78zm51.41 19.11c2.62-1.69 5.37-3.5 8.54-3.84 3.95 1.9 6.75 6.08 7.56 10.34.27 4.43.66 9.35-1.71 13.32-5.65 3.5-12.45 4.71-18.32 7.82-1.71.73-2.49 2.43-3.15 4.04 1.66-.34 3.31-.78 4.81-1.6 5.93-3.3 13.03-4.2 18.5-8.4 1.43-1.38 2.75-3.27 2.28-5.35-.56-3.64-.31-7.32.83-10.83 4.6 4.79 10.91 7.49 15.38 12.39.11 2.99.1 6.01-.29 8.98-.82 1.4-2.57 1.67-3.97 2.15-7.98 1.94-16.04 3.91-23.54 7.35-3.6 1.61-6.72 4.12-10.38 5.6-3.32 1.19-6.92.77-10.37.8-8.08-.3-16.16.26-24.24-.22 3.27-4.48 7.85-7.69 12.38-10.77 3.79-2.47 8.31-3.48 12.17-5.84 5.8-3.38 12.18-5.6 18.02-8.9 3.43-1.7 5.3-5.75 4.46-9.47-1.86-3.6-5.48-5.77-8.96-7.57z"/><path fill="#0d0d0d" d="M210.28 235.58c4.01-.71 7.95.22 11.54 2.03 5.22-1.45 10.21 1.55 14.77 3.72 5.58 3.41 12.11 4.52 18.39 6 .08 2.54.11 5.09.09 7.63-24.67.43-49.36.01-74.03.18-2.75.05-5.5-.07-8.24-.3 8.67-6.07 19.26-8.05 29.3-10.71 1.93-.6 4-1.11 5.62-2.38 1.65-1.62 1.89-4.07 2.56-6.17z"/><path fill="#b1b1b1" d="M235.84 94.42c.52-.06 1.57-.18 2.09-.23.04 2.64.21 5.34 1.55 7.71-.07.15-.22.46-.29.62-.85 1.71-1.76 3.38-2.67 5.06-.45-2.51-.84-5.03-1.2-7.56-1.16.96-2.34 1.9-3.52 2.84.26-3.33 3.5-5.2 4.04-8.44zm-127.65 51.94c3.35.07-1.47 3.02 0 0zm3.12 18.85c3.01-1.5.09 3.34 0 0z"/><path fill="#c6c6c6" d="M230.4 99.02c1.79-1.56 3.65-3.03 5.44-4.6-.54 3.24-3.78 5.11-4.04 8.44 1.18-.94 2.36-1.88 3.52-2.84.36 2.53.75 5.05 1.2 7.56-.8 1.48-1.57 2.98-2.33 4.48-.58.19-1.72.57-2.29.76-.7-2.06-1.4-4.12-2.09-6.17-.7 1.15-1.41 2.31-2.12 3.46-.42.39-1.25 1.17-1.66 1.57.65-4.43.97-9.35 4.37-12.66zm-41.22 53.1c3.03-1.44.04 3.34 0 0zM81.27 192.33c.53.48.53.48 0 0zm5.81 5.83c1.62-.46 2.17.12 1.65 1.73-1.63.47-2.18-.11-1.65-1.73zm59.08 1.06c1.64-.53 2.19.02 1.65 1.64-1.64.53-2.19-.02-1.65-1.64z"/><path fill="#111" d="M27.82 115.25c-.94-4.12-.9-8.34.01-12.45.1 4.15.05 8.3-.01 12.45z" opacity=".24"/><path fill="#a5a4a5" d="M227.69 110.11c.71-1.15 1.42-2.31 2.12-3.46.69 2.05 1.39 4.11 2.09 6.17.57-.19 1.71-.57 2.29-.76.05.93.15 2.8.21 3.74-.28.93-.56 1.86-.83 2.8-1.05 1.34-2.11 2.69-3.16 4.04-.58-.52-1.17-1.04-1.75-1.56-.13-3.67-.51-7.33-.97-10.97z"/><path fill="#c1c1c1" d="M69.08 108.39c3.33.2-1.59 2.96 0 0zm.13 8.82c.48.54.48.54 0 0z"/><path fill="#ecd5db" d="M104.13 110.46c2.67-.7 5.44-.76 8.18-.85-.03 2.26.12 4.51.31 6.76-3.79-.22-5.95-3.59-8.49-5.91z"/><path fill="#ebdcdf" d="M128.12 110.65c1.44.89 3.74 1.69 3.27 3.82-1.1 1.11-2.75 1.01-4.16 1.34.26-1.73.55-3.45.89-5.16zm60.07 7.69c.89-1.59 3.63-.26 2.26 1.31-.85 1.59-3.8.22-2.26-1.31z"/><path fill="#8e8e8e" d="M69.12 115.62c-.52-1.32 1.29-3.23 2.63-2.56.39 1.27-1.38 2.97-2.63 2.56zm16.13 81.61c.57.52.57.52 0 0z"/><path fill="#ecd7dc" d="M172.71 117.03c-1.72-4.66 4.42-3.97 7.21-4 .28 1.42.57 2.84.86 4.27-2.69.24-5.42.29-8.07-.27z"/><path fill="#e6dbe5" d="M104.23 114.05c1.33 1.16 2.62 2.38 3.94 3.57-2.93-.24-5.96.3-7.76 2.82l-.43.41c.19-1.64-.97-4.01 1-4.91 1.04-.71 2.15-1.29 3.25-1.89z"/><path fill="#adadad" d="M234.4 115.8l.39-.59c.33 1.7.64 3.42 1.19 5.07-2.1 6.51-.41 13.3-.31 19.95-1.41 2.37-3.09 4.57-4.69 6.81-1.22 1.55-2.48 3.07-3.72 4.61l-.24-3.75c-2.68 2-6.01 3.6-7.59 6.7-.37 2.11.41 4.23.71 6.31.84-.59 1.69-1.19 2.54-1.78.32 1.1.65 2.2.97 3.31-2.25 3.06-.98 7.15-.96 10.66-.76 7.09.68 14.53-2.62 21.2-5.84 6.26-14.74 7.79-21.74 12.3 1.03-1.32 2.06-2.64 2.96-4.04-.47-.38-1.42-1.14-1.9-1.52 4.86-2.62 10.69-3.12 15.07-6.65 2.35-1.88 4.97-3.82 6.08-6.73.94-3.41.5-7 .39-10.48-.55.46-1.09.93-1.64 1.4-.45-2.23-.9-4.47-1.44-6.68.44.57 1.33 1.72 1.78 2.29 1.16-3.71 1.28-7.62.99-11.47-.78-.08-1.55-.17-2.31-.25-.38-1.29-.76-2.57-1.1-3.87.41-3.89 2.78-7.17 5.39-9.94 2.53-1.37 5.4-2.38 7.33-4.6 1.41-2.05 2.12-4.48 2.98-6.79-1.36.58-2.71 1.16-4.03 1.81 1.04-2.93 2.1-5.93 2.22-9.07-.53-3.05-2.01-5.85-2.44-8.93.58.52 1.17 1.04 1.75 1.56 1.05-1.35 2.11-2.7 3.16-4.04.27-.94.55-1.87.83-2.8zm-103.12 52.38c1.28.67 1.26 1.35-.07 2.04-1.28-.68-1.26-1.36.07-2.04zm-47.14 41.25c3.33.22-1.61 2.96 0 0z"/><path fill="#959595" d="M73.09 116.32c3.31.1-1.49 3.03 0 0zm31.15 58.93c.54.54.54.54 0 0z"/><path fill="#e3d3e3" d="M192.27 122.7c.32-2.24.6-4.48.81-6.73.01 1.79.04 3.59.08 5.38 2.17.47 6.15 1.06 4.67 4.25-.5 1.14-1.03 2.26-1.6 3.36-3.9 1.06-8.1 1.5-11.9-.18l1.68-.73c.97-.38 1.92-.78 2.88-1.19-7.07-1.65-14.82-2.28-20.28-7.66h1.75c4.58.41 9.34.17 13.69 1.89 2.63.99 5.43 1.36 8.22 1.61m-16.74-2.23c.97 2.82 4.33 1.55 6.47 2.61 3.51 1.43 8.21 3.05 11.38.06-6.25 1.25-11.69-2.64-17.85-2.67z"/><path fill="#dbc0da" d="M108.17 117.62c5.9 2.19 12.23-.67 18.22 1.04-7.07 2.08-14.2.06-21.28-.47l.01 1.48c6.26.38 12.54 2.38 18.81.86 1.56-.17 2.76-1.2 3.81-2.28 1.63-.35 3.27-.66 4.88-1.1.53.32 1.6.94 2.13 1.26.38 2.19-.32 4.46-1.47 6.32l-.27-1.42-.28-1.65c-.63.38-1.88 1.12-2.51 1.49l-.82-1.15c1.53-.97 3.42-1.56 4.55-3.04-2.99-.49-5.47 2.06-8.22 2.97-4.46 2.46-9.62 1.29-14.43 1.95-4.01.89-7.8-1.1-10.89-3.44 1.8-2.52 4.83-3.06 7.76-2.82z"/><path fill="#9c9b9c" d="M71.34 119.17c.55.52.55.52 0 0z"/><path fill="#f0f0f0" d="M168.15 125.95c-.18-1.27-.78-3.96 1.28-3.93 4.7 3.89 10.89 4.58 16.58 6.03l-1.68.73c-4.91-.65-9.27-2.94-13.97-4.25 3.93 5.01 10.63 4.85 16.17 6.68 3.25.56 7.89 1.36 9.7-2.25.57-1.1 1.1-2.22 1.6-3.36 1.13 2.77 1.83 6.28-.64 8.57-4.43 3.04-10.07 1.19-14.87.28.41-.35 1.23-1.06 1.64-1.42-1.82-.7-3.64-1.42-5.5-2.01-.25.3-.76.9-1.01 1.2l-.55.67c-3.31-1.62-7.31-3.27-8.75-6.94z"/><path fill="#a2a2a2" d="M76.25 126.22c1.26.69 1.21 1.36-.17 2-1.27-.68-1.21-1.35.17-2zm33.86 65.89c1.39-.47 1.84.01 1.34 1.44-1.4.48-1.84 0-1.34-1.44zm20.92 6.15c1.36-.59 1.84-.16 1.43 1.3-1.35.62-1.83.18-1.43-1.3zm-15.78 21.85c.52.53.52.53 0 0z"/><path fill="#bebebe" d="M81.15 130.15c3.33.28-1.66 2.92 0 0zm-1.09 3.05c1.39-.53 1.86-.07 1.42 1.35-1.38.54-1.86.09-1.42-1.35zm47.01 40.13c1.36.18 1.61.87.73 2.09-1.37-.18-1.61-.88-.73-2.09zm13.13 2.88c.52.5.52.5 0 0zm13.82 10.63c.97.45 1.95.89 2.93 1.33l.16 2.83c-.8.07-2.41.2-3.21.26.48-1.05.97-2.09 1.45-3.14l-1.4-.14z"/><path fill="#b2b2b2" d="M85.19 131.16c1.26.68 1.21 1.35-.16 2.01-1.27-.67-1.22-1.34.16-2.01zm49.13 67.09c1.43-.53 1.87-.08 1.33 1.34-1.43.52-1.87.07-1.33-1.34zm9.14 1.94c1.41-.32 1.88.22 1.42 1.61-1.41.3-1.88-.24-1.42-1.61z"/><path fill="#848484" d="M85.22 137.3c.55.56.55.56 0 0zm48.9 63.95c3.31.05-1.45 3.06 0 0zm14.99 8.95c.58.53.58.53 0 0z"/><path fill="#888" d="M228.88 139.08c1.32-.65 2.67-1.23 4.03-1.81-.86 2.31-1.57 4.74-2.98 6.79-1.93 2.22-4.8 3.23-7.33 4.6 1.09-1.87 2.07-3.81 3.1-5.72.84-1.03 1.68-2.06 2.43-3.16zm-145.8 13.7c-.33-1.37.21-1.92 1.62-1.64.32 1.36-.22 1.91-1.62 1.64zm30.99 12.33c3.31.16-1.55 3.01 0 0zm-18.05.94c3.32-.04-1.41 3.08 0 0zm11.4 1.72c1.59 2.37 1.19 5.49-.17 7.86-.01-2.13.32-4.33-.59-6.34zm57.86 1.42c4.03-.58-.22 4.38-1.16 1.1.29-.28.87-.83 1.16-1.1zm-33.13 2.09c1.68-.4 2.24 3.4.61 3.77-1.37-.57-1.44-2.73-.61-3.77zm-31.28 3.67c.68.83 1.37 1.65 2.06 2.47l-1.27 1.23c-.76-.9-1.64-1.65-2.65-2.26.47-.36 1.39-1.08 1.86-1.44zm-.84 7.7c-.26-1.68 2.36-3.36 3.89-3.03.33 1.7-2.41 3.16-3.89 3.03zm7.27-2.3c1.36-.91 3.71 1.09 2.58 2.51-1.4 1.18-3.61-1.13-2.58-2.51zm3.99 5.6c1.44-.37 1.87.13 1.29 1.5-1.42.41-1.85-.09-1.29-1.5zm3.54 7.06c.45-.54.91-1.07 1.37-1.6 1.72 1.8 3.45-.13 5.1-.9l-1.27 1.99.42.8c-1.88.15-3.77.13-5.62-.29zm4.34 6.33c1.52-.36 2.13 2.24.75 2.78-1.5.3-2.22-2.29-.75-2.78z"/><path fill="#989898" d="M206.07 138.19c2.96-1.58.24 3.32 0 0zm-129.71 3.9c1.27.62 1.25 1.31-.06 2.08-1.27-.62-1.25-1.31.06-2.08zm24.78 27.62c-.31-1.4.23-1.93 1.61-1.57.3 1.39-.24 1.91-1.61 1.57zm-30.76 4.35c3.06-1.44.05 3.31 0 0zm13.9 19.91c1.39-.46 1.94.02 1.63 1.42-1.38.44-1.92-.04-1.63-1.42zm15.83 7.63c1.19-.54 3.1 1.04 2.61 2.31-1.23.72-3.3-.99-2.61-2.31z"/><path fill="#9a9a9a" d="M196.15 139.31c1.39-.33 1.91.2 1.56 1.58-1.4.33-1.93-.19-1.56-1.58zm-113.09 7.12c3.31.1-1.49 3.03 0 0zm21.14 24.89c1.38-.31 1.9.24 1.57 1.63-1.39.31-1.91-.23-1.57-1.63zm13.99 18.01c2.96-1.68.18 3.34 0 0z"/><path fill="#828282" d="M81.17 142.09c2.96-1.68.25 3.31 0 0z"/><path fill="#8f8f8f" d="M86.12 143.39c1.36-.65 1.81-.23 1.34 1.25-1.35.67-1.8.25-1.34-1.25z"/><path fill="#c9c9c9" d="M187.07 144.19c3.33.21-1.6 2.95 0 0z"/><path fill="#8e8d8e" d="M193.03 144.22c1.4-.22 1.87.35 1.42 1.71-1.42.22-1.89-.35-1.42-1.71z"/><path fill="#bdbdbd" d="M206.21 144.28c3.34.13-1.52 2.98 0 0zm-42.97 46.91c.55.47.55.47 0 0zm-22.04 41.12c3.34.04-1.45 3.03 0 0z"/><path fill="#969596" d="M95.29 145.04c1.5-.42 1.93.04 1.29 1.39-1.47.42-1.9-.04-1.29-1.39z"/><path fill="#909090" d="M199.41 146.12c2.95-1.61.26 3.31 0 0zM90.09 189.23c.52.57.52.57 0 0z"/><path fill="#787878" d="M79.2 147.3c3.3.27-1.67 2.97 0 0z"/><path fill="#a6a6a6" d="M94.01 148.51c3.32-.04-1.38 3.07 0 0zm-13.91 1.81c3.33.15-1.55 2.98 0 0zm112.12 9c.55.5.55.5 0 0zm-22.73 42.82c1.22-.7 2.49 1.35 1.52 2.26-1.2.65-2.42-1.38-1.52-2.26zm-58.43 7.11c3.32.28-1.63 2.93 0 0z"/><path fill="#c2c2c2" d="M111.24 148.36c.53.49.53.49 0 0zm39.91 62.68c2.93-1.65.26 3.33 0 0z"/><path fill="#aeaeae" d="M196.32 148.18c1.37-.41 1.89.09 1.56 1.51-1.37.4-1.9-.1-1.56-1.51zm-67.09 74.94c2.92-1.66.3 3.31 0 0z"/><path fill="#a7a7a7" d="M96.21 150.11c1.28.62 1.28 1.31-.03 2.06-1.28-.61-1.27-1.3.03-2.06zm55.81 20.02c3.33.11-1.52 3.01 0 0zm-45.8 6.17c1.61.06.78 2.47-.47 2.44-1.62-.07-.79-2.48.47-2.44zm-34.09 3.24c1.1-.81 2.65 1 1.75 2-1.1.81-2.66-1.01-1.75-2zm65.81 24.8c1.4-.61 1.88-.2 1.42 1.24-1.4.61-1.88.2-1.42-1.24z"/><path fill="#c3c3c3" d="M193.12 152.25c3.33.22-1.6 2.95 0 0zm-67.83 66.94c1.02-1.32 3.65.19 2.49 1.66-1.03 1.31-3.66-.19-2.49-1.66z"/><path fill="#0a0a0a" d="M45.32 153.23c1.01-.12 3.02-.34 4.03-.46.4 1.61.68 3.24.9 4.88-2.09-.94-3.78-2.44-4.93-4.42z" opacity=".37"/><path fill="#919191" d="M88.05 154.51c-.35-1.39.18-1.87 1.6-1.45.33 1.37-.2 1.86-1.6 1.45z"/><path fill="#ababab" d="M105.16 152.99c1.25.66 1.2 1.34-.16 2.05-1.25-.65-1.19-1.34.16-2.05zM146.18 169c1.28.61 1.26 1.3-.06 2.07-1.27-.61-1.25-1.3.06-2.07zm2.06 2.24c1.42-.53 1.86-.08 1.33 1.34-1.42.53-1.86.08-1.33-1.34zm-1.78 24.88c2.99-1.52.13 3.33 0 0zm13.81 11.22c1.18-1.12 3.58.67 2.61 2.06-1.17.88-3.59-.66-2.61-2.06zm-75.74 6.88c.93-.87 2.95.44 2.2 1.62-.95.84-2.97-.44-2.2-1.62zm44.6 3.82c3.07-1.38-.02 3.33 0 0z"/><path fill="#908f90" d="M101.22 155.12c.56.53.56.53 0 0z"/><path fill="#939393" d="M195.11 155.39c3.32.23-1.6 2.96 0 0zm-19.08 44.9c1.38-.27 1.87.28 1.45 1.67-1.4.28-1.88-.27-1.45-1.67zm-13.96 3.9c3.31.07-1.46 3.05 0 0zm-22.92 3.2c3.3.34-1.69 2.91 0 0zm7.34 24.62c2.99-1.57.17 3.32 0 0z"/><path fill="#818181" d="M198.32 156.29c.53.59.53.59 0 0zM92.28 207.02c2.98-1.55.24 3.32 0 0z"/><path fill="#999" d="M202.08 156.45c3.31.15-1.53 3.01 0 0zm-51.94 17.77c3.32.12-1.53 3.01 0 0zm7.36 28.89c1.4-.34 1.9.18 1.5 1.57-1.4.33-1.9-.2-1.5-1.57zm-43.38 6.11c.57.5.57.5 0 0z"/><path fill="#b4b4b4" d="M187.43 157.11c3.02-1.49.08 3.33 0 0zm-39.24 9.11c2.91-1.69.31 3.32 0 0zm-41.04 33.11c1.4-.37 1.9.14 1.5 1.53-1.4.37-1.9-.14-1.5-1.53z"/><path fill="#8b8b8b" d="M83.08 158.4c3.31.06-1.44 3.06 0 0zm111.07 3.84c1.37-.27 1.9.29 1.59 1.69-1.37.28-1.9-.29-1.59-1.69z"/><path fill="#262626" d="M50.44 159.76c-1.94 1.67-2.37-1.8-.06-.82z" opacity=".59"/><path fill="#a3a3a3" d="M81.28 160.95c1.59-.95 2.14 1.56.57 1.92-1.56.92-2.06-1.55-.57-1.92zm-6.32 43.4c1.26-.66 3.58.96 2.85 2.38-1.3.75-3.66-.94-2.85-2.38z"/><path fill="#7d7d7d" d="M105.28 161.25c.56.56.56.56 0 0zm30.9 12.97c.56.57.56.57 0 0z"/><path fill="#a1a1a1" d="M107.19 161.32c3.32.2-1.59 2.98 0 0zm63.02 14.16c3.32.35-1.7 2.9 0 0zm-26.99 50.58c3.06-1.41 0 3.32 0 0z"/><path fill="#d1d1d1" d="M112.15 162.38c3.34.05-1.47 3.01 0 0z"/><path fill="#565656" d="M93.17 165.2c.58.62.58.62 0 0z"/><path fill="#979797" d="M185.07 166.39c1.37-.38 1.89.12 1.55 1.52-1.4.39-1.91-.11-1.55-1.52zm-75.04 7.78c3.32.15-1.53 3 0 0z"/><path fill="#7e7e7e" d="M98.03 167.13c3.31-.07-1.38 3.11 0 0zm-5.68 5.13c.51.61.51.61 0 0zm94 12.81c3-1.56.22 3.3 0 0zm-71.29 10.34c3.29-.03-1.38 3.11 0 0z"/><path fill="#e2e2e2" d="M140.13 167.22c1.62-.52 2.18.03 1.69 1.66-1.63.52-2.19-.03-1.69-1.66z"/><path fill="#b7b6b7" d="M144.1 167.29c3.33.11-1.5 3 0 0z"/><path fill="#a5a5a5" d="M159.34 167.06c2.95-1.59.22 3.33 0 0zm-62.12 4.02c1.29.59 1.31 1.29.04 2.1-1.29-.59-1.3-1.29-.04-2.1z"/><path fill="#d7d7d7" d="M77.09 168.26c3.34.04-1.45 3.02 0 0zm22.1 29.98c1.64-.49 2.19.08 1.65 1.69-1.64.49-2.19-.08-1.65-1.69z"/><path fill="#7c7c7c" d="M92.38 168.06c3.01-1.57.16 3.31 0 0zm66.64 28.16c3.31.07-1.52 3.05 0 0zm-53.87 5.95c3.31.42-1.7 2.88 0 0z"/><path fill="#606060" d="M156.28 169.23c.6.59.6.59 0 0z"/><path fill="#757575" d="M86.1 170.28c3.31.02-1.44 3.09 0 0zm2.06 22.92c.58.56.58.56 0 0zm82.11 13.91c.56.58.56.58 0 0z"/><path fill="#9f9f9f" d="M110.12 170.33c3.32.16-1.55 3 0 0z"/><path fill="#a0a0a0" d="M113.2 170.44c3.32.3-1.67 2.93 0 0zm-19.82 46.73c1.4-.35 1.92.17 1.58 1.56-1.39.34-1.92-.19-1.58-1.56z"/><path fill="#6b6b6b" d="M140.16 170.25c.57.59.57.59 0 0zm10.94 47.97c.57.58.57.58 0 0z"/><path fill="#6d6d6d" d="M142.21 170.2c.6.55.6.55 0 0zm-1.98 48.95c.57.58.57.58 0 0zm-22.03 6.09c.57.58.57.58 0 0z"/><path fill="#b9b9b9" d="M184.27 170.14c1.4-.41 1.91.08 1.55 1.48-1.39.41-1.91-.08-1.55-1.48zm-46.93 1.82c3.05-1.41-.02 3.34 0 0zm-42.3 28.18c3.34.16-1.55 2.98 0 0zm-3.8 13.12c.52.51.52.51 0 0z"/><path fill="#afafaf" d="M102.08 171.33c3.32.11-1.51 3.01 0 0z"/><path fill="#d8d8d8" d="M154.34 171.06c3-1.5.09 3.34 0 0zm-60.26 39.21c3.34.07-1.48 3 0 0z"/><path fill="#727272" d="M160.35 171.26c.57.58.57.58 0 0z"/><path fill="#d0d0d0" d="M171.19 171.12c2.97-1.56.17 3.34 0 0z"/><path fill="#c6c5c6" d="M130.18 172.12c1.28.65 1.27 1.34-.02 2.06-1.29-.65-1.29-1.34.02-2.06z"/><path fill="#737373" d="M168.21 172.23c.57.57.57.57 0 0zm-55 18.96c.59.55.59.55 0 0zm40.07 34.93c3.03-1.55.16 3.29 0 0z"/><path fill="#c7c7c7" d="M154.19 173.27c.48.52.48.52 0 0z"/><path fill="#9e9e9e" d="M163.56 175.96c-.79-.83.06-3.13 1.33-2.46.83.85.01 3.22-1.33 2.46zm-70.1 14.08c3.01-1.49.12 3.32 0 0zm66.76 13.21c.54.52.54.52 0 0z"/><path fill="#d9d9d9" d="M123.27 174.09c2.94-1.6.2 3.33 0 0z"/><path fill="#d4d4d4" d="M144.37 174.05c2.99-1.52.12 3.33 0 0z"/><path fill="#717171" d="M158.2 174.22c.55.59.55.59 0 0zm-47.99 30.06c.55.6.55.6 0 0z"/><path fill="#d6d6d6" d="M220.07 194.3c3.3-6.67 1.86-14.11 2.62-21.2 3.01 6.77 3.01 15.76-2.62 21.2z"/><path fill="#747474" d="M93.12 175.11c3.28.31-1.65 2.96 0 0z"/><path fill="#807f80" d="M129.34 175.32c.6.52.6.52 0 0z"/><path fill="#9c9c9c" d="M153.34 175.25c.55.52.55.52 0 0zm-27.19 13.83c3.33.01-1.43 3.05 0 0zm1.98 25.93c3.31.23-1.59 2.96 0 0zm19.02 7.26c1.27.7 1.2 1.35-.2 1.96-1.29-.69-1.22-1.35.2-1.96z"/><path fill="#9b9b9b" d="M172.21 175.17c.98-.8 2.91.5 2.34 1.7-.98.83-2.91-.51-2.34-1.7zm-27.99 19.99c1.58.32.4 3.79-1.03 3.44-.72-1.11-.13-2.87 1.03-3.44zm24.01 3.23c1.36.22 1.6.93.71 2.12-1.35-.22-1.59-.93-.71-2.12zm-45.63 17.63c1.23-.87 1.91-.62 2.06.76-1.23.86-1.92.61-2.06-.76z"/><path fill="#b7b7b7" d="M73.22 176.25c.49.54.49.54 0 0zm17.92 24.82c2.84-1.79.44 3.31 0 0zm-5.92 5.22c.55.49.55.49 0 0zm11.92 3.73c2.99-1.54.14 3.34 0 0z"/><path fill="#b8b8b8" d="M97.17 176.23c3.34.09-1.48 3.01 0 0zm47.94 42.67c1.34.57 1.36 1.23.05 1.98-1.34-.58-1.36-1.24-.05-1.98z"/><path fill="#bbb" d="M112.15 177.1c1.4-.51 1.88-.05 1.42 1.36-1.4.51-1.87.06-1.42-1.36zm24.14 24.01c1.64-.47 2.17.11 1.58 1.73-1.64.45-2.17-.13-1.58-1.73zm15.84 32c3.34.13-1.53 2.99 0 0z"/><path fill="#cccbcc" d="M86.26 180.2c.5.51.5.51 0 0z"/><path fill="#b5b5b5" d="M114.21 182.31c.49.54.49.54 0 0zm-2.05 47.82c1.36-.51 1.9-.05 1.64 1.38-1.35.5-1.9.04-1.64-1.38z"/><path fill="#636363" d="M85.17 183.19c.57.61.57.61 0 0z"/><path fill="#858585" d="M104.27 183.25c.56.55.56.55 0 0z"/><path fill="#ea8036" d="M167.79 184.39c1.09-.58 2.18-1.15 3.28-1.72 2.08 1.48 4.13 3 6.17 4.54-.7.91-1.4 1.83-2.1 2.74-2.61-1.63-5.15-3.39-7.35-5.56z"/><path fill="#b0b0b0" d="M88.08 184.27c1.39-.35 1.87.18 1.45 1.57-1.4.35-1.88-.17-1.45-1.57zm37.85 40.12c3.33-.05-1.36 3.07 0 0z"/><path fill="#c4c4c4" d="M101.16 184.6c1.58-.58 2.08-.02 1.49 1.67-1.6.6-2.09.05-1.49-1.67z"/><path fill="#8a8a8a" d="M72.26 185.28c.58.51.58.51 0 0zm13.17 3.86c2.91-1.7.38 3.29 0 0zm18.72 21.96c2.99-1.59.23 3.3 0 0z"/><path fill="#878787" d="M82.11 185.1c2.99-1.57.21 3.3 0 0z"/><path fill="#6a6a6a" d="M105.22 185.25c.6.56.6.56 0 0z"/><path fill="#949494" d="M115.32 185.21c2.92-1.71.32 3.31 0 0zm7.75 7.88c3.03-1.5.07 3.33 0 0zm-22.81 23.98c3.03-1.49.1 3.31 0 0z"/><path fill="#7a7a7a" d="M152.06 188.23c3.3.11-1.49 3.05 0 0z"/><path fill="#f8f8f8" d="M177.97 187.51c4.64 3.13 8.95 6.74 13.83 9.51 2.5 1.36 4.77 3.06 7.01 4.81-.41.73-1.21 2.19-1.62 2.91-6.98-4.98-14.03-9.9-21.28-14.49.51-.69 1.55-2.06 2.06-2.74z"/><path fill="#838383" d="M81.44 189.11c2.96-1.64.31 3.29 0 0z"/><path fill="#dfdfdf" d="M107.39 190.27c1.39.2 1.57.91.54 2.11-1.35-.22-1.53-.92-.54-2.11z"/><path fill="#a4a4a4" d="M131.16 192.8c-.32-1.4.21-1.93 1.59-1.59.32 1.39-.21 1.92-1.59 1.59zm-33.89.55c.54.52.54.52 0 0z"/><path fill="#b4b3b4" d="M126.08 194.32c3.33.11-1.51 3 0 0z"/><path fill="#bcbcbc" d="M131.16 194.27c1.2.77 1.1 1.44-.31 2.01-1.21-.78-1.11-1.45.31-2.01zm-12.95 34.97c1.39-.37 1.9.15 1.51 1.54-1.4.36-1.9-.15-1.51-1.54z"/><path fill="#777" d="M141.09 195.29c3.29.12-1.5 3.05 0 0z"/><path fill="#797979" d="M90.27 197.13c2.99-1.58.25 3.3 0 0z"/><path fill="#6e6e6e" d="M149.06 199.25c3.3.1-1.45 3.07 0 0z"/><path fill="#7b7b7b" d="M166.08 199.37c3.29.25-1.59 2.99 0 0zm-28.94 20.95c3.31.07-1.51 3.05 0 0z"/><path fill="#868686" d="M76.08 200.31c1.39-.32 1.92.21 1.59 1.59-1.41.33-1.93-.2-1.59-1.59z"/><path fill="#6c6c6c" d="M159.13 200.52c3.23.23-1.51 3.11 0 0zm-34.08 3.73c3.3.17-1.58 3.03 0 0z"/><path fill="#9d9d9d" d="M85.16 201.09c2.97-1.59.23 3.31 0 0zm65.98 1.16c1.37-.36 1.87.17 1.51 1.59-1.37.35-1.88-.18-1.51-1.59zm-45.82 3.86c.99-.86 2.87.57 2.17 1.73-.98.85-2.87-.59-2.17-1.73zm-15.86 4.07c2.88-1.76.41 3.29 0 0z"/><path fill="#b3b3b3" d="M88.1 203.11c3.33.08-1.47 3.02 0 0z"/><path fill="#707070" d="M165.27 203.24c.59.57.59.57 0 0z"/><path fill="#898989" d="M97.2 204.06c1.37-.31 1.92.23 1.64 1.64-1.37.3-1.92-.24-1.64-1.64zm16.15 1.09c3.01-1.52.17 3.31 0 0zm51.03 4c.52.58.52.58 0 0zm-54.03 11.98c3.01-1.53.17 3.32 0 0z"/><path fill="#9f9e9f" d="M151.23 206.3c.52.54.52.54 0 0zm15.83.97c1.4-.3 1.89.24 1.48 1.61-1.41.3-1.91-.24-1.48-1.61z"/><path fill="#929292" d="M80.49 207.15c1.22-.88 1.93-.65 2.13.7-1.22.87-1.93.64-2.13-.7z"/><path fill="#d2d2d2" d="M97.15 212.14c1.42-.41 1.88.08 1.37 1.47-1.42.41-1.88-.08-1.37-1.47z"/><path fill="#a8a8a8" d="M108.42 213.27c.91-.88 2.99.35 2.23 1.55-.92.87-3-.35-2.23-1.55zm37.82 15.55c-.36-1.38.16-1.92 1.56-1.61.36 1.38-.16 1.92-1.56 1.61z"/><path fill="#5b5b5b" d="M132.2 216.33c.64.55.64.55 0 0z"/><path fill="#8c8c8c" d="M111.39 217.21c.51.58.51.58 0 0z"/><path fill="#acacac" d="M121.12 222.38c3.33.23-1.61 2.94 0 0z"/><path fill="#a9a8a9" d="M109.04 223.22c1.41-.32 1.91.2 1.51 1.58-1.41.32-1.92-.21-1.51-1.58z"/><path fill="#676767" d="M132.24 232.23c.55.61.55.61 0 0z"/><path fill="#141414" d="M93.38 247.84c3.56.44 6.95 1.74 10.53 2.03 7.16.51 14.41-.39 21.53.58.29.35.86 1.05 1.15 1.4-7.66.07-15.35.35-23-.19-3.55-.62-7.72-.83-10.21-3.82z"/></svg>