<svg height="124pt" viewBox="0 0 124 124" width="124pt" xmlns="http://www.w3.org/2000/svg"><g fill="#ff7e27"><path d="m24 2.87c1.27-1.32 3.31-.9 4.93-.74 3.12 1.31 1.88 5.67 4.5 7.47 2.47 2.41 6.18 1.71 9.16 2.82 3.12 2.09 5.23 5.56 8.89 6.89 8.43 3.69 17.81 1.15 26.58 3.02 7.03 1.26 12.99 6.33 16.07 12.68 1.34 2.92 1.78 6.13 2.08 9.3-.21 6.76-3.27 13.38-8.53 17.69-.52.01-1.58.02-2.11.03 2.44-3.31 4.97-6.84 5.45-11.05.58-4.85-.15-10.08-2.88-14.22-2.4-3.66-8.13-5.26-11.61-2.19-3.84 3.47-6.06 8.7-10.93 11.02-8.85 4.2-19.8.08-28.13 5.86-3.53 2.29-4.74 6.54-4.52 10.55-2.91 0-5.82.01-8.73.01-.52-1.97-1.01-3.96-1.38-5.97.78-1.92 1.62-3.82 2.49-5.71 4.63-4.64 11.35-5.87 17.66-5.8 6.53.04 13.89.31 19.04-4.44 1.33-1.53 2.43-3.25 3.35-5.05.74-2.53.68-6.01-1.98-7.39-7.79-4.68-18.08 1.3-25.43-4.59-3.5-2.22-1.83-7.5-5.34-9.67-2.38-1.84-5.49-1.97-8.23-2.93-2.41-1.65-2.56-5.68-.4-7.59z"/><path d="m57.38 8.27c2.64-1.54 6.64.39 6.16 3.7.37 2.51-2.28 4.64-4.67 4.02-3.69-.26-4.39-5.89-1.49-7.72zm-11.55 31.71c.65-1.11.58-3.22 2.2-3.39 2.24-.83 3.2 1.82 3.67 3.47-1.22.97-2.66 1.58-4.15 2z"/></g><path d="m76.53 34.57c3.48-3.07 9.21-1.47 11.61 2.19 2.73 4.14 3.46 9.37 2.88 14.22-.48 4.21-3.01 7.74-5.45 11.05-17.54-.07-35.08-.01-52.62-.03-.22-4.01.99-8.26 4.52-10.55 8.33-5.78 19.28-1.66 28.13-5.86 4.87-2.32 7.09-7.55 10.93-11.02z" fill="#efce0f"/><path d="m26.84 35c12.85.03 25.69-.05 38.54.04-.92 1.8-2.02 3.52-3.35 5.05-3.45-.09-6.89-.14-10.33-.03-.47-1.65-1.43-4.3-3.67-3.47-1.62.17-1.55 2.28-2.2 3.39-5.33.05-10.66-.01-15.99.02-1.54 3.43-3 6.89-4.51 10.33-.87 1.89-1.71 3.79-2.49 5.71-.86 2-1.77 3.98-2.65 5.96 1.34.01 2.69.01 4.03.01 2.91 0 5.82-.01 8.73-.01 17.54.02 35.08-.04 52.62.03.53-.01 1.59-.02 2.11-.03 5.38-.03 10.75.02 16.13.01-2.49-5.92-5.34-11.69-7.6-17.7-.3-3.17-.74-6.38-2.08-9.3.75 0 2.27-.01 3.03-.02 4.69 10.66 9.33 21.34 14.03 32-.74.01-2.21.02-2.95.02.01 16.08.01 32.16.01 48.23-30.83.01-61.66.01-92.49.01-.01-16.08-.02-32.16 0-48.23-.73-.01-2.18-.02-2.91-.03 4.64-10.68 9.31-21.33 13.99-31.99m-6.03 32.04c-.09 14.38-.09 28.76 0 43.14 7.54.12 15.08.1 22.62.01.11-14.39.12-28.78 0-43.17-7.54-.03-15.08-.07-22.62.02m27.76-.02c-.11 14.39-.12 28.78 0 43.17 9.95.09 19.9.09 29.86 0 .12-14.39.11-28.78 0-43.17-9.95-.04-19.91-.04-29.86 0m35 0c-.12 14.39-.12 28.78 0 43.17 6.54.09 13.07.1 19.61-.01.1-14.38.1-28.76 0-43.14-6.53-.08-13.07-.06-19.61-.02z" fill="#008737"/><path d="m29.84 40c5.33-.03 10.66.03 15.99-.02l1.72 2.08c1.49-.42 2.93-1.03 4.15-2 3.44-.11 6.88-.06 10.33.03-5.15 4.75-12.51 4.48-19.04 4.44-6.31-.07-13.03 1.16-17.66 5.8 1.51-3.44 2.97-6.9 4.51-10.33zm66.37 4.31c2.26 6.01 5.11 11.78 7.6 17.7-5.38.01-10.75-.04-16.13-.01 5.26-4.31 8.32-10.93 8.53-17.69zm-76.02 17.69c.88-1.98 1.79-3.96 2.65-5.96.37 2.01.86 4 1.38 5.97-1.34 0-2.69 0-4.03-.01z"/><path d="m20.81 67.04c7.54-.09 15.08-.05 22.62-.02.12 14.39.11 28.78 0 43.17-7.54.09-15.08.11-22.62-.01-.09-14.38-.09-28.76 0-43.14zm27.76-.02c9.95-.04 19.91-.04 29.86 0 .11 14.39.12 28.78 0 43.17-9.96.09-19.91.09-29.86 0-.12-14.39-.11-28.78 0-43.17zm35 0c6.54-.04 13.08-.06 19.61.02.1 14.38.1 28.76 0 43.14-6.54.11-13.07.1-19.61.01-.12-14.39-.12-28.78 0-43.17z" fill="#005526"/></svg>