<svg height="483.734" width="466.229" xmlns="http://www.w3.org/2000/svg"><path d="M102.315 483.403C64.937 479.608 32.548 475.904 0 454.964c30.101 1.53 60.837 2.803 90.815-.321 77.75-8.912 139.265-32.902 174.775-68.16 67.828-72.634 40.259-152.677-40.625-180.375-13.034-4.599-42.378-11.887-56.15-13.485-25.779-2.99-46.303-4.095-70.5-6.682C122.547 122.437 161.533 0 161.533 0h269.625l-17.011 50.991-217.088.509s-28.993 72.209-37.552 110.937c34.28 1.943 71.518 5.995 97.308 9.113 69.02 8.37 121.796 30 153.266 62.816 30.271 34.997 38.394 74.108 17.209 113.916-15.364 30.731-49.375 64.696-87.037 86.919-42.376 25.004-89.055 39.456-149.933 46.42-12.698 1.452-76.348 2.741-88.005 1.782zm325-22.968c-50.753-18.88-71.96-27.04-71.752-27.608 19.958-14.598 34.251-23.433 51.252-42.549 14.452 6.442 42.822 11.057 52.249 20.562 8.068 8.243 9.45 21.817 3.498 34.356-8.536 15.615-20.614 20.54-35.247 15.24zm-361.77-73.934l51.27-146.017s29.468 12.327 49.2-18.435c8.336 2.107 30.958 11.5 30.958 11.5l-23.68 77.437s77.63 25.269 111.065 37.98c-11.411 26.093-37.64 43.883-37.64 43.883l-91.307-33.276-20.936 59.57z" fill="#fe0000"/></svg>