<svg xmlns="http://www.w3.org/2000/svg" width="512pt" height="512pt" viewBox="0 0 512 512"><path fill="#0b7c6a" d="M5.94 102.96c9.12-19.98 31.27-32.73 53.04-32.03 130.01.12 260.03.1 390.04.01 8.39.11 16.94.19 24.92 3.14 20.27 6.76 34.09 25.86 38.06 46.35V124c-170.67.01-341.33-.02-512 .02v-3.54c1.47-6 3.04-12.04 5.94-17.52z"/><path fill="#42a4a5" d="M0 124.02c170.67-.04 341.33-.01 512-.02v53H0z"/><path fill="#5cc8d2" d="M0 177h512v53H0z"/><path fill="#f1eeff" d="M0 230h512v52H0z"/><path fill="#7bade2" d="M0 282h512v53H0z"/><path fill="#1483cb" d="M0 335h512v52.99c-170.67.01-341.33.03-512-.01z"/><path fill="#073370" d="M0 387.98c170.67.04 341.33.02 512 .01v2.71c-3.52 20.9-17.62 40.24-38.11 47.1-8.29 3.07-17.16 3.16-25.87 3.25-123.34-.06-246.68-.13-370.02.03-12.27-.36-24.9 1.35-36.86-2.22-10.43-3.41-19.99-9.48-27.36-17.63-7.21-8.78-11.37-19.6-13.78-30.6z"/></svg>