<svg xmlns="http://www.w3.org/2000/svg" width="512pt" height="512pt" viewBox="0 0 512 512"><path fill="#ffd800" d="M49.27 71.64c4.14-1.09 8.46-.54 12.69-.64 132.69-.01 265.38.02 398.07-.01 1.56 0 3.12.28 4.64.64l2.73.66c1.68.49 3.4.89 5.1 1.37 1 .32 2.01.64 3.03.97 1.67.6 3.31 1.29 4.94 2 1.37.91 2.72 1.83 4.13 2.69l1.79 1.39c1.44.85 2.84 1.75 4.29 2.58a206.9 206.9 0 0 1 9 9.02c.62 1.08 1.3 2.13 1.98 3.19.88 1.34 1.79 2.67 2.68 4.02.23.51.68 1.53.91 2.04.7 1.33 1.38 2.67 2.04 4.03.63 1.69 1.3 3.38 2.05 5.04.34 1.27.68 2.54 1.03 3.81.47 2.25.96 4.49 1.63 6.7v268.9c-1.04 2.35-1.05 4.95-1.54 7.44-.4 1-.79 2.01-1.18 3.02-.29 1.01-.59 2.02-.88 3.03-.76 2.07-1.7 4.07-2.64 6.06-.5.96-.99 1.92-1.47 2.89-.86 1.37-1.76 2.7-2.62 4.07-1.07 1.33-2.13 2.67-3.04 4.12-2.51 2.81-5.19 5.46-7.95 8.03-1.44.82-2.81 1.73-4.22 2.6-.98.69-1.96 1.38-2.95 2.05-.52.22-1.55.67-2.07.89-2 1.05-4.03 2.05-6.03 3.1-.97.36-1.94.71-2.91 1.04-1.31.34-2.63.64-3.93 1-1.63.36-3.27.72-4.91 1-1.51.37-3.06.59-4.61.63-132.68-.02-265.35-.01-398.02-.01-4.23-.09-8.54.43-12.69-.61-1.65-.29-3.28-.65-4.91-1.02-1.31-.35-2.63-.62-3.94-.97-1.36-.5-2.7-1.05-4.04-1.6-1.33-.72-2.66-1.41-4-2.09-.98-.48-1.96-.95-2.95-1.4-1.34-.87-2.67-1.77-4-2.65-1.06-.68-2.11-1.36-3.19-1.98-2.76-2.56-5.43-5.21-7.94-8.01-.91-1.45-1.97-2.79-3.03-4.12-.87-1.38-1.8-2.71-2.68-4.07-.22-.52-.66-1.54-.88-2.05-.53-.96-1.06-1.91-1.6-2.85-.53-1.36-1.06-2.71-1.54-4.07-.32-1.01-.63-2.01-.94-3.01-.39-1.01-.76-2.02-1.13-3.02-.52-2.56-.71-5.18-1.57-7.65V120.94c.81-2.1 1.12-4.33 1.68-6.5.31-1.32.56-2.66.88-3.98.65-1.66 1.37-3.3 2.13-4.91.53-1.04 1.05-2.09 1.58-3.12.5-.96.99-1.92 1.5-2.87.21-.52.65-1.55.87-2.07 1.22-1.73 2.59-3.36 3.71-5.16 2.85-3.14 5.88-6.12 8.97-9.03 1.43-.82 2.8-1.74 4.21-2.6.98-.69 1.95-1.37 2.96-2.02l2.97-1.38c.49-.27 1.46-.81 1.95-1.08 2.09-.82 4.17-1.65 6.22-2.55 1.26-.38 2.53-.74 3.8-1.11 1.93-.38 3.9-.56 5.84-.92m192.24 86.12c-16.02 2.34-31.42 8.71-44.4 18.38-18.1 13.37-31.43 33.06-36.93 54.89-5.48 21.47-3.55 44.79 5.62 64.98 10.57 23.68 30.88 42.79 55.17 51.88 22.35 8.53 47.8 8.52 70.14-.04 22.53-8.46 41.64-25.52 52.69-46.89 11.35-21.64 14.07-47.57 7.7-71.14-6.27-23.66-21.81-44.63-42.47-57.71-19.8-12.72-44.26-17.83-67.52-14.35z"/><path fill="#ffd800" d="M249.39 187.5c14.7-1.41 29.83 1.97 42.39 9.78 14.5 8.86 25.48 23.3 30.05 39.69 3.77 13.35 3.34 27.85-1.23 40.96-5.13 14.8-15.54 27.68-28.91 35.83-13.5 8.37-29.98 11.63-45.67 9.32-14.3-2.07-27.87-8.83-38.09-19.03-11.06-10.83-18.22-25.56-19.89-40.95-1.99-17.15 2.88-34.97 13.34-48.71 11.34-15.12 29.16-25.2 48.01-26.89z"/><path fill="#7902aa" d="M241.51 157.76c23.26-3.48 47.72 1.63 67.52 14.35 20.66 13.08 36.2 34.05 42.47 57.71 6.37 23.57 3.65 49.5-7.7 71.14-11.05 21.37-30.16 38.43-52.69 46.89-22.34 8.56-47.79 8.57-70.14.04-24.29-9.09-44.6-28.2-55.17-51.88-9.17-20.19-11.1-43.51-5.62-64.98 5.5-21.83 18.83-41.52 36.93-54.89 12.98-9.67 28.38-16.04 44.4-18.38m7.88 29.74c-18.85 1.69-36.67 11.77-48.01 26.89-10.46 13.74-15.33 31.56-13.34 48.71 1.67 15.39 8.83 30.12 19.89 40.95 10.22 10.2 23.79 16.96 38.09 19.03 15.69 2.31 32.17-.95 45.67-9.32 13.37-8.15 23.78-21.03 28.91-35.83 4.57-13.11 5-27.61 1.23-40.96-4.57-16.39-15.55-30.83-30.05-39.69-12.56-7.81-27.69-11.19-42.39-9.78z"/></svg>