<svg xmlns="http://www.w3.org/2000/svg" width="512pt" height="512pt" viewBox="0 0 512 512"><path fill="#d70270" d="M17.22 87.2c11.15-10.52 26.33-16.86 41.76-16.26 130.01.09 260.03.1 390.05-.01 8.38.11 16.92.23 24.92 3.15 20.26 6.76 34.1 25.87 38.05 46.37V218H0v-97.49c2.74-12.26 7.78-24.66 17.22-33.31z"/><path fill="#734f96" d="M0 218h512v76H0z"/><path fill="#0038a8" d="M0 294h512v96.67c-3.52 20.92-17.61 40.25-38.1 47.13-8.3 3.05-17.17 3.16-25.88 3.26-121.67-.09-243.35-.1-365.02-.01-17.68-.37-37.11 2.79-53.01-7.05-16.74-8.23-26.6-25.62-29.99-43.41z"/></svg>