<svg clip-rule="evenodd" fill-rule="evenodd" stroke-linejoin="round" stroke-miterlimit="2" viewBox="0 0 92 127" xmlns="http://www.w3.org/2000/svg"><g fill-rule="nonzero"><path d="m50.942.708c1.272.612 5.135 3.614 5.135 3.614.606.492 1.064 1.062 1.753 1.661 3.019 2.625 12.288 15.521 11.66 15.57-2.362.184 3.751-1.855-5.676-20.447 5.77 3.69 10.346 8.817 14.706 14.027 3.18 4.99 4.69 11.01 5.02 16.87.21 5.27-3.63 10.01-8.91 10.66 2.073 4.568 5.975 7.068 8.82 12.34 2.36 3.97.55 8.69-1.93 12.12 1.24.99 2.68 1.79 3.64 3.08.73 2.32-.53 4.42-2.05 6.07.883 2.17.994 3.588 1.923 4.927 1.469.567 3.926 2.822 5.031 4.097.671.773 1.232 1.824 1.706 2.686.06 1.74-1.6 2.84-3.1 3.17-3.54.75-7.18.63-10.77.76-.2.61-.61 1.82-.82 2.43-3.02 2.71-6.57 4.85-9.04 8.14 3.41 3.83 4.52 9.55 9.27 12.12 2.36 4.18 4.45 8.59 7.53 12.36h-.65c-2.36-3.41-4.15-7.27-7.33-10.05 0 0-.52-1.2-.69-1.61.17.41 1.63 8.39 2.63 11.66h-.38c-1.99-8.49-5.08-16.85-10.52-23.77-1.11 2.35-3.05 4.6-3.16 7.25 1.58 5.38 2.67 10.9 2.92 16.52h-.81c-.12-5.44-1.24-10.79-2.63-16.03-1.44 1.5-1.88 4.58-4.39 4.68-7.88 1.32-15.98-1.26-22.83-5.08 1.76 5.68 4.1 11.17 6.87 16.43h-.85c-4.43-8.94-9.56-18.88-7.2-29.14-.06-.7-.18-2.1-.23-2.79-4.27 3.25-7.38 7.94-8.86 13.07-.39 6.27.01 12.58-.24 18.86h-.26c.19-6.44-.05-12.87-.2-19.3-2.53 1.05-4.96 2.36-7.11 4.06-6.18 4.79-12.52 9.44-17.8 15.24h-1.12c6.7-6.32 13.58-12.53 21.37-17.51 2.14-1.44 4.51-2.76 5.95-4.99 1.96-2.98 3.41-6.43 6.37-8.61.77-.91 2.41-1.47 2.27-2.88-.06-3.88-.374-8.912-2.424-12.302-4.192-.58-6.416-3.518-8.866-6.558-5.74-2.48-11.67-5.71-14.84-11.36-3.18-6.58-.34-13.76 2.12-20.05-3.4-1.32-6.76-2.75-10.01-4.39 3.15-2.32 6.78-3.85 9.97-6.11-.06-3.72-2.98-6.79-4.21-10.22 3.65 2.1 7.39 4.05 11.41 5.38 3.56-3.73 6.41-9.283 11.44-10.57 5.857-1.498 15.99-.44 23.7 1.58-1.24-6.09-3.431-12.467-5.364-18.373m.734.683c2.12 6.01 4.66 11.98 5.15 18.41-7.79-1.92-16.08-3.75-24.02-1.64-4.91 2.29-8.44 6.69-11.7 10.88-3.25-1.48-6.44-3.07-9.72-4.49 1.11 3 3.05 5.78 3.16 9.08-3.39 1.55-6.79 3.1-9.84 5.27 3.36 1.36 6.67 2.9 10.14 3.97-2.72 6.5-5.59 14.32-2.09 21.08 3.24 4.88 8.32 8.67 14.12 9.81.54-2.04.683-4.59 2.11-6.02s4.313-3.41 6.45-2.56 4.27 5.09 6.37 7.66c1.41-8.19-1.51-16.37-5.64-23.35-.73-1.04-1.33-2.53-2.85-2.58-.35-1.17-.67-2.36-.99-3.54-.79-.3.54-1.07 1.99-1.13.6.73 4.8 2.15 6.3 2.15-1.18-3.7-4.23-6.21-6.91-8.82 6.04-2.29 12.29.53 18.29 1.53 8.37 1.47 16.57 3.8 24.97 5.07 4.43.79 7.52-3.69 8.03-7.59.5-4.94-1.04-9.83-2.66-14.44-1.46-4.42-8.665 5.243-10.79 2.12m-36.66 13.32c2.38 3.09 6.43 5.56 5.92 10-2.4-.26-4.76-.68-7.1-1.21 5.51 8.84 11.29 19.32 8.2 30.1-2.01-2.69-3.39-5.9-5.96-8.13-3.04-1.26-6.62.72-7.74 3.66-2.3 4.96 2.84 11.3 8.13 10.57.19 2.83 1.77 5.33 2.03 8.14.34 4.71.57 9.47-.06 14.17-.2 2.27-.57 4.74.37 6.89 4.47 3.95 10.57 5.3 16.32 6.16 2.73.11 5.82.6 8.29-.83 3.85-5.39 4.86-12.98 10.84-16.66 1.7-1.54 5.12-2.6 4.67-5.42-4.45-1.55-9.32-.56-13.85.16 5.9-2.74 12.72-.62 19-1.2 3.07-.51 6.93.53 9.21-2.1-.17-3.55-3.7-6.13-6.63-7.75-.51-1.75-.95-3.53-1.73-5.19-2.99.17-5.99.39-8.99.29 3.47-1.16 7.54.13 10.63-2.14.42-1.54.85-3.41-.04-4.84-3.06-2.63-7.29-1.18-10.79-2.42-2.01-1.31-3.78-2.94-5.67-4.4-.92 1.37-1.83 2.75-2.79 4.1.7-1.68 1.4-3.36 1.87-5.13-7.22-1.17-14.92-1.08-21.67 2.03.37.8 1.1 2.4 1.46 3.19-2.45-2.55-3.01-6.28-3.05-9.68.61-.38 1.22-.77 1.82-1.16-.99 1.42-1.44 3.01-1.34 4.79 7.15-3.58 15.36-3.68 23.12-2.63-1.32-2.69-3.16-5.04-5-7.39 2.57 1.76 4.18 4.47 5.4 7.27 5.39-1.28 10.9-1.71 16.42-1.22-1.306-3.27-3.783-6.822-7.54-6.13.68-.12 2.04-.38 2.72-.5-1.93-2.8-4.63-5-5.88-8.25-10.26-2.42-20.65-4.39-30.95-6.66-3.17-.67-6.42-1.14-9.64-.48m-1.79 8.3c.15.12.46.36.61.49-.15-.13-.46-.37-.61-.49-.48-.54-.48-.54 0 0m36.61 15.71c-.12.63-.37 1.91-.5 2.55 3.64-1.18 7.45-1.81 11.27-1.84l-.06-2.49c-3.6.36-7.22.77-10.71 1.78m12.25.86c1.39.04 2.77.07 4.15.1-.14-.61-.42-1.85-.56-2.46-1.97-.02-4.45-.45-3.59 2.36m-28.8-.69c-1.83.82-5.07.58-5.51 3.01 3.49.29 6.83-1.59 10.37-1.69.48-3.26-3.11-1.53-4.86-1.32m6.04-.53c.29.44.89 1.33 1.19 1.77 2.83.13 5.68.15 8.43.91-.11-.84-.23-1.67-.34-2.51-3.09-.24-6.2-.62-9.28-.17m10.57 3.29c3.15 2.23 5.812 4.825 10.27 5.39 3.71.47 5.74-3.62 6-6.74-5.45-.36-11.01-.31-16.27 1.35z"/><path d="m29.48 68.533c2.44.22 5.37.74 6.21 3.42-1-.85-2.01-1.68-3.05-2.48-2.58.71-1.52 3.76-1.14 5.64 1.23.55 2.45 1.11 3.64 1.73-3.61.09-5.94-3.31-4.49-6.75-1.05.56-2.09 1.12-3.14 1.67.63-1.1 1.3-2.16 1.97-3.23z"/><path d="m49.62.683c8.96 4.13 14.5 12.98 19.87 20.87.898-4.959-.755-9.619-2.614-14.154-.727-1.774-1.486-3.529-2.136-5.276 2.71 1.86 5.31 3.94 7.42 6.48 2.88 3.47 6.66 6.41 8.12 10.83 1.62 4.61 3.16 9.5 2.66 14.44-.51 3.9-3.6 8.38-8.03 7.59-8.4-1.27-16.6-3.6-24.97-5.07-6-1-12.25-3.82-18.29-1.53 2.68 2.61 5.73 5.12 6.91 8.82-1.5 0-8.685-1.17-8.29-1.02.361 1.138 3.324 4.86 3.84 6.12 4.13 6.98 7.05 15.16 5.64 23.35-2.1-2.57-4.233-6.81-6.37-7.66s-5.023 1.13-6.45 2.56-1.57 3.98-2.11 6.02c-5.8-1.14-10.88-4.93-14.12-9.81-3.5-6.76-.63-14.58 2.09-21.08-3.47-1.07-6.78-2.61-10.14-3.97 3.05-2.17 6.45-3.72 9.84-5.27-.11-3.3-2.05-6.08-3.16-9.08 3.28 1.42 6.47 3.01 9.72 4.49 3.26-4.19 6.79-8.59 11.7-10.88 7.94-2.11 16.23-.28 24.02 1.64-.49-6.43-3.03-12.4-5.15-18.41z" fill="#ea7117"/><path d="m32.83 34.873c3.22-.66 6.47-.19 9.64.48 10.3 2.27 20.69 4.24 30.95 6.66 1.25 3.25 3.95 5.45 5.88 8.25-.68.12-2.04.38-2.72.5 3.658-.682 6.23 2.757 7.54 6.13-5.52-.49-11.03-.06-16.42 1.22-1.22-2.8-2.83-5.51-5.4-7.27 1.84 2.35 3.68 4.7 5 7.39-7.76-1.05-15.97-.95-23.12 2.63-.1-1.78.35-3.37 1.34-4.79-.6.39-1.21.78-1.82 1.16.04 3.4.6 7.13 3.05 9.68-.36-.79-1.09-2.39-1.46-3.19 6.75-3.11 14.45-3.2 21.67-2.03-.47 1.77-1.17 3.45-1.87 5.13.96-1.35 1.87-2.73 2.79-4.1 1.89 1.46 3.66 3.09 5.67 4.4 3.5 1.24 7.73-.21 10.79 2.42.89 1.43.46 3.3.04 4.84-3.09 2.27-7.16.98-10.63 2.14 3 .1 6-.12 8.99-.29.78 1.66 1.22 3.44 1.73 5.19 2.93 1.62 6.46 4.2 6.63 7.75-2.28 2.63-6.14 1.59-9.21 2.1-6.28.58-13.1-1.54-19 1.2 4.53-.72 9.4-1.71 13.85-.16.45 2.82-2.97 3.88-4.67 5.42-5.98 3.68-6.99 11.27-10.84 16.66-2.47 1.43-5.56.94-8.29.83-5.75-.86-11.85-2.21-16.32-6.16-.94-2.15-.57-4.62-.37-6.89.63-4.7.4-9.46.06-14.17-.26-2.81-1.84-5.31-2.03-8.14-5.29.73-10.43-5.61-8.13-10.57 1.12-2.94 4.7-4.92 7.74-3.66 2.57 2.23 3.95 5.44 5.96 8.13 3.09-10.78-2.69-21.26-8.2-30.1 2.34.53 4.785.346 7.185.606.018-4.44-3.883-6.306-6.005-9.396m-3.35 33.66c-.67 1.07-1.34 2.13-1.97 3.23 1.05-.55 2.09-1.11 3.14-1.67-1.45 3.44.88 6.84 4.49 6.75-1.19-.62-2.41-1.18-3.64-1.73-.38-1.88-1.44-4.93 1.14-5.64 1.04.8 2.05 1.63 3.05 2.48-.84-2.68-3.77-3.2-6.21-3.42zm1.56-25.36c-.48-.54-.48-.54 0 0z" fill="#feb692"/><path d="m31.04 43.173c.15.12.46.36.61.49-.15-.13-.46-.37-.61-.49zm36.67 18.64c5.26-1.66 10.82-1.71 16.27-1.35-.26 3.12-2.29 7.21-6 6.74-4.38.75-7.12-3.16-10.27-5.39z" fill="#feb692"/><path d="m67.65 58.883c3.49-1.01 7.11-1.42 10.71-1.78l.06 2.49c-3.82.03-7.63.66-11.27 1.84.13-.64.38-1.92.5-2.55zm12.25.86c-.86-2.81 1.62-2.38 3.59-2.36.14.61.42 1.85.56 2.46-1.38-.03-2.76-.06-4.15-.1zm-28.8-.69c1.75-.21 5.34-1.94 4.86 1.32-3.54.1-6.88 1.98-10.37 1.69.44-2.43 3.68-2.19 5.51-3.01zm6.04-.53c3.08-.45 6.19-.07 9.28.17.11.84.23 1.67.34 2.51-2.75-.76-5.6-.78-8.43-.91-.3-.44-.9-1.33-1.19-1.77zm-13.27 68.44c-2.77-5.26-5.11-10.75-6.87-16.43 6.85 3.82 14.95 6.4 22.83 5.08 2.51-.1 2.95-3.18 4.39-4.68 1.39 5.24 2.51 10.59 2.63 16.03z" fill="#f6f6f6"/><g fill="#ab2426"><path d="m35.59 95.033c.05.69.17 2.09.23 2.79-2.36 10.26 2.77 20.2 7.2 29.14h-16.53c.25-6.28-.15-12.59.24-18.86 1.48-5.13 4.59-9.82 8.86-13.07zm32.31 8.16c5.44 6.92 8.53 15.28 10.52 23.77h-10.76c-.25-5.62-1.34-11.14-2.92-16.52.11-2.65 2.05-4.9 3.16-7.25zm-48.98 8.53c2.15-1.7 4.58-3.01 7.11-4.06.15 6.43.39 12.86.2 19.3h-25.11c5.28-5.8 11.62-10.45 17.8-15.24zm57.25 3.58c.17.41.52 1.21.69 1.61-.17-.4-.52-1.2-.69-1.61z"/><path d="m76.165 115.356c3.18 2.78 5.665 8.197 8.025 11.607h-5.39c-1-3.27-2.235-8.217-2.635-11.607z"/></g></g></svg>