<svg height="494pt" viewBox="0 0 487 494" width="487pt" xmlns="http://www.w3.org/2000/svg"><path d="m94.28 7.63c7.46-4.49 16.17-6.21 24.76-6.83 9.25-1.09 18.62-.92 27.88.01 18.41.65 36.7 3.71 55.15 3.21 50.99.01 101.97-.01 152.96.01 15.46-.76 31.65-3.09 46.57 2.34 9.64 3.79 15.54 13.69 17.31 23.54 1.99 8.89.47 18.18-2.37 26.71-3.71 10.4-10.47 20.34-20.59 25.34-3.04 1.64-6.57 1.69-9.94 1.65-9.34-.13-18.68.06-28.03-.12 12.16 9.41 23.95 19.44 37.35 27.09 21.95 12.77 45.1 23.93 64.71 40.3 4.8 3.91 8.55 9.03 13.89 12.29 8.46 5.57 11.63 15.9 13.07 25.41v11.98c-1.69 14.38-5.11 28.46-9.14 42.35-11.95 42.86-27.33 84.65-42.53 126.43-9.99 27.91-20.73 55.59-28.88 84.11-2.83 8.93-6.24 18.22-13.27 24.75-5.42 4.93-12.39 7.84-19.48 9.42-13.71 3-27.7 4.49-41.69 5.36-8.67-.18-17.31.91-25.99.73-8.01.13-15.98-.95-23.99-.72-8.71.28-17.33-1.28-26.03-1.11-8.28-.94-16.64-.76-24.92-1.73-9.4-.1-18.73-1.45-28.14-1.29-9.59-1.02-19.24-.93-28.87-.88-18.71-.47-37.41 3.79-56.08 1-9.94-1.12-19.86-4.79-27.23-11.73-5.82-5.34-9.35-12.61-12.15-19.87-4.46-11.87-7.04-24.33-10.29-36.56-2.5-10.04-6.31-19.67-9.58-29.47-14.05-40.65-28.25-81.25-42.2-121.94-7.29-21.86-13.44-44.3-15.43-67.33-.21-3.83-.65-7.63-1.11-11.43v-12.98c2.34-4.62 5.54-8.71 9.42-12.12 4.44-4.97 9.14-9.72 14.49-13.73 19.37-15.12 41.91-25.3 62.77-38.07 14.71-9.83 29.29-19.85 43.88-29.85-12.53-.24-25.83 1.82-37.55-3.8-9.42-4.3-14.89-14.09-17.38-23.73-3.55-13.36-.1-28.04 8.07-39.05 3.45-3.31 6.96-6.57 10.58-9.69m44.61 2.72c-6.77.73-13.57 1.66-20.09 3.66-3.55.69-6.87 2.23-10.22 3.53-5.1 2.62-10.08 5.97-13.07 11-4.1 6.8-7.64 14.85-5.85 22.94 1.67 7.31 8.07 12.18 14.46 15.32l.04.13c6.48 2.4 13.11 4.92 19.99 5.66 5.86 1.3 11.86 1.93 17.84 2.38 2.38.56 4.18-1.29 6.01-2.45 15.12-10.42 30.39-20.64 45.49-31.1 7.52-5.01 15.03-10.04 22.38-15.3 5.88-3.49 11.18-7.93 17.13-11.31 15.63-1.44 30.57 4.91 44.45 11.32 8.65 4.67 17.11 9.67 25.27 15.15 14.3 9.85 28.09 20.42 41.45 31.51 14.26.39 28.53.02 42.8.19 5.07.46 9.61-2.55 13.3-5.69 5.95-5.28 7.58-13.93 6.02-21.47-2.26-10.96-8.25-21.21-16.76-28.49-6.5-5.63-15.79-4.13-23.64-3.38-3.97.12-7.93.6-11.91.55-23.31-.01-46.61 0-69.92 0-13.38-.05-26.76.23-40.12-.52-5.95-.71-11.94-.9-17.9-1.49-28.97-2.12-58.12-4.88-87.15-2.14m-19.3 96.23c-26.55 18.85-57.36 31.31-82.08 52.81-8.75 7.87-17.36 17.42-19.12 29.51-.89 10.87 1.24 21.75 3.88 32.25 9.92 36.4 27.86 69.81 42.01 104.61 10.68 25.67 13.72 53.94 25.94 79.04 5.45 11.07 13.62 21.89 25.69 26.08 18 6.1 37.28 6.47 56.09 6.17 32.75-.52 65.25-5.69 98-6.05 25.68.96 51.22 4.96 76.96 4.1 12.99-.55 26.92-1.52 38.03-8.96 4.33-2.93 6.65-7.79 8.58-12.47 5.44-13.58 7.77-28.11 11.96-42.07 5.25-15.35 10.62-30.67 15.92-46 6.16-17.15 11.31-34.69 18.94-51.27 9.19-21.23 19.17-42.3 24.95-64.79 2.46-10.4 4.41-21.53 1.33-32.01-1.44-5.28-5.49-9.23-9.71-12.45-11.29-8.58-24.47-14.12-36.42-21.65-22.2-15.1-44.38-30.23-66.57-45.34-28.17-18.5-52.16-42.85-81.55-59.57-10.88-6.11-22.7-11.23-35.31-12.02-39.15 26.72-78.35 53.38-117.52 80.08m-101.45 122.39c4.36 20.61 11.54 40.46 18.42 60.32 7.82 22.29 15.49 44.64 23.25 66.95-2.49-11.94-5.58-23.79-9.74-35.28-10.67-30.65-21.19-61.36-31.93-91.99m444.09 16.09c-7.48 21.63-14.99 43.26-22.48 64.89-6.44 18.9-13.75 37.59-17.65 57.24 16.46-45.81 36.26-90.72 46.81-138.42-2.46 5.33-4.78 10.74-6.68 16.29m-53.4 164.63c-5.5 12.47-12.53 25.61-25.11 32.14-10.85 5.07-22.98 6.47-34.81 7.29-26.73 1.24-53.42-1.6-80.01-4.08-1.63-.16-3.26-.3-4.9-.43-12-.75-24.02-1.92-36.06-1.12-22.02 1.46-43.93 4.34-65.98 5.51-15.26.61-30.66 1-45.77-1.6-2.36-1.83-5.36-3.44-8.39-2.17-12.3-2.49-21.51-12.29-26.65-23.3.54 5.17 2.24 10.1 3.48 15.12 2.66 9.2 5.37 18.61 10.61 26.72 2.26 3.66 5.87 6.1 9.42 8.38 2 1.14 4.14 2 6.34 2.69 4.91 1.28 9.84 2.55 14.91 3.09 25.04 2.81 50.16-.73 75.17-2.2 15.19-.8 30.4.36 45.56 1.47 23.42 1.81 46.83 4.2 70.34 4.1 14.39.12 28.88-.32 42.98-3.37 5.87-1.34 11.9-2.67 17.08-5.89 6.69-4.14 11.78-10.42 15.68-17.17 7.88-14.02 12.23-29.68 16.11-45.18z"/><path d="m83.7 17.32c2.18-4.48 5.87-7.98 10.58-9.69-3.62 3.12-7.13 6.38-10.58 9.69zm157.62 427.05c2.96-1.01 5.07 1.69 6.58 3.79 4.17 5.73 8.83 11.09 12.95 16.86 3.35 4.4-1.37 12-6.88 9.9-2.78-1.81-4.42-4.85-6.52-7.34-3.2-4.43-6.85-8.53-9.97-13.01-2.6-3.56-.31-9.1 3.84-10.2zm-133.52.86c3.03-1.27 6.03.34 8.39 2.17.08 7.52.61 15.09-.11 22.6-.12 2.71-3.29 3.42-5.08 4.84-2.2-.69-4.34-1.55-6.34-2.69-.57-7.35-.76-14.74-.31-22.09-.05-2.25 1.78-3.69 3.45-4.83zm156.2-.62c1.64.13 3.27.27 4.9.43 6.75 6.96 13.63 13.83 19.82 21.31 1.65 1.83 2.62 4.43 1.51 6.81-.95 3.79-6.34 5.75-9.15 2.76-5.03-4.99-9.36-10.65-14.38-15.65-2.23-2.4-4.97-4.5-6.35-7.54-1.24-3.34 1.66-5.91 3.65-8.12z" fill="#e4c746"/><path d="m138.89 10.35c29.03-2.74 58.18.02 87.15 2.14 5.96.59 11.95.78 17.9 1.49-41.71.14-83.43.07-125.14.03 6.52-2 13.32-2.93 20.09-3.66zm227 3.6c7.85-.75 17.14-2.25 23.64 3.38 8.51 7.28 14.5 17.53 16.76 28.49 1.56 7.54-.07 16.19-6.02 21.47-3.69 3.14-8.23 6.15-13.3 5.69-14.27-.17-28.54.2-42.8-.19 6.75-2.15 13.91-.67 20.85-1.09 6.51-.35 13.3.99 19.6-1.09 10.28-4.11 11.74-19.86 3.22-26.47-3.29-2.71-7.72-3.03-11.8-3.01-24.44.17-48.88-.11-73.32.15-8.16-5.48-16.62-10.48-25.27-15.15 31.85.14 63.7-.04 95.55.09 2.16-.1 4.46.06 6.5-.83 4.06-2.26 3.7-9.53-.87-10.96-4.2-.71-8.5-.38-12.74-.48zm-270.38 14.59c2.99-5.03 7.97-8.38 13.07-11 .08 2.24-.43 4.84 1.25 6.65 1.7 2.19 4.75 1.86 7.21 2.02 32.94-.11 65.89.05 98.83-.09-7.35 5.26-14.86 10.29-22.38 15.3-24.51-.59-49.04-.02-73.56-.29-5.76-.36-12.41.86-15.6 6.22-4.12 5.82-2.52 13.26-.21 19.45-6.39-3.14-12.79-8.01-14.46-15.32-1.79-8.09 1.75-16.14 5.85-22.94zm24.08 78.04c39.17-26.7 78.37-53.36 117.52-80.08 12.61.79 24.43 5.91 35.31 12.02 29.39 16.72 53.38 41.07 81.55 59.57 22.19 15.11 44.37 30.24 66.57 45.34 11.95 7.53 25.13 13.07 36.42 21.65 4.22 3.22 8.27 7.17 9.71 12.45 3.08 10.48 1.13 21.61-1.33 32.01-5.78 22.49-15.76 43.56-24.95 64.79-7.63 16.58-12.78 34.12-18.94 51.27-5.3 15.33-10.67 30.65-15.92 46-4.19 13.96-6.52 28.49-11.96 42.07-1.93 4.68-4.25 9.54-8.58 12.47-11.11 7.44-25.04 8.41-38.03 8.96-25.74.86-51.28-3.14-76.96-4.1-32.75.36-65.25 5.53-98 6.05-18.81.3-38.09-.07-56.09-6.17-12.07-4.19-20.24-15.01-25.69-26.08-12.22-25.1-15.26-53.37-25.94-79.04-14.15-34.8-32.09-68.21-42.01-104.61-2.64-10.5-4.77-21.38-3.88-32.25 1.76-12.09 10.37-21.64 19.12-29.51 24.72-21.5 55.53-33.96 82.08-52.81m102.81-59.02c-2.83 1.32-5.25 3.33-7.85 5.04-54.58 37.08-109.16 74.17-163.74 111.25-2.54 1.79-5.34 3.27-7.5 5.54-3.02 3.61-.13 10.26 4.72 10.1 3.5-.8 6.16-3.46 9.14-5.3 56.37-38.3 112.73-76.62 169.11-114.91 1.81-1.19 3.53-2.96 3.52-5.27.36-3.81-3.46-8.06-7.4-6.45m-.02 45.73c-2.62 2.12-4.5 6.07-8.35 5.94-9.67-.19-20.48-1.05-28.73 4.98-3.77 2.9-8.35 5.11-10.85 9.34-2.75 4.7-4.46 10.04-4.75 15.49-.42 5.14-1.02 10.91-5.05 14.6-3.42 3.25-6.88 6.52-9.53 10.45-5.23 6.76-7.31 15.5-6.94 23.93.94 8.97 8.6 16.34 17.39 17.74-5.73 2.11-11.44 4.58-16.08 8.64-3 2.71-5.67 5.74-8.53 8.58-5.42 5.64-11.9 10.06-17.93 14.99 3.94 2.44 8.2 4.39 11.9 7.19 8.8 7.05 13.97 17.87 23.92 23.63-3.32 3.62-6.93 7.3-8.37 12.14-2.47 8.36 1.73 18.22 9.81 21.78-2.86 3.01-6.5 5.54-8.01 9.57-1.92 4.92-2.59 10.73-.2 15.61 1.96 4.32 5.42 7.66 8.78 10.9-3.71 3.66-7.66 7.49-9.28 12.6-1.8 5.76.03 11.98 3.11 16.96 3.04 5.36 8.62 8.41 13.19 12.29-5.82 7.74-6.32 19.13-.56 27.02 4.18 4.1 9.59 7.9 15.73 7.54 36.66-.02 73.31-.01 109.97 0 4.75.08 9.49-2.02 12.51-5.71 4.43-5.42 7.18-12.12 7.69-19.12 16.41.08 32.82-.01 49.23.05-.02-36.78-.02-73.55 0-110.32-16.2-.06-32.4.19-48.58-.12-.78-4.44-2.04-8.74-3.57-12.98.35-3.7 3.96-6.14 7.06-7.66 10.28-5.17 19.13-12.63 27.68-20.23 2.24-2.05 4.11-4.46 5.99-6.83-9.68-11.49-22.16-20.9-36.43-25.84-2.76-.92-5.55-3.26-5.27-6.44.6-4.96 3.58-9.23 4.52-14.11 1.18-6.12 2.16-12.91-1.1-18.59-1.98-4.1-7.13-6.35-7.5-11.23.15-4.35 1.3-8.62 1.05-12.99-.22-6.74-2.53-14.07-8.38-17.98-6.31-4.19-13.19-8.12-20.85-8.95-1.41-.31-2.97-.23-4.25-.97-1.61-2.22-1.59-5.39-3.8-7.24-7.53-6.83-17.76-10.82-27.97-10.29-6.59-.24-13.74.88-18.67 5.64m-188.13 106.11c-3.34.79-4.87 4.67-3.28 7.63 12.36 32.66 24.65 65.36 37.09 97.99 1.42 4.82 8.73 5.57 11.37 1.48 1.34-2.07.31-4.51-.39-6.59-12.26-32.16-24.31-64.41-36.58-96.56-1.03-3.38-4.94-5.05-8.21-3.95m45.03 121.99c-2.65.77-4.58 3.8-3.45 6.49 2 6.35 4.54 12.51 6.72 18.8 1.07 2.8 1.81 5.78 3.41 8.34 2.58 3.52 9.02 2.92 10.72-1.17.8-2.28-.36-4.61-1.05-6.76-2.89-7.49-5.37-15.15-8.37-22.6-1.25-3.04-5.02-4.14-7.98-3.1zm44.87-248.8c7.83-1.4 16.04-1.51 23.85-.07-1.83 1.16-3.63 3.01-6.01 2.45-5.98-.45-11.98-1.08-17.84-2.38z" fill="#ffdc44"/><path d="m108.58 17.54c3.35-1.3 6.67-2.84 10.22-3.53 41.71.04 83.43.11 125.14-.03 13.36.75 26.74.47 40.12.52 23.31 0 46.61-.01 69.92 0 3.98.05 7.94-.43 11.91-.55 4.24.1 8.54-.23 12.74.48 4.57 1.43 4.93 8.7.87 10.96-2.04.89-4.34.73-6.5.83-31.85-.13-63.7.05-95.55-.09-13.88-6.41-28.82-12.76-44.45-11.32-5.95 3.38-11.25 7.82-17.13 11.31-32.94.14-65.89-.02-98.83.09-2.46-.16-5.51.17-7.21-2.02-1.68-1.81-1.17-4.41-1.25-6.65zm113.82 30.02c3.94-1.61 7.76 2.64 7.4 6.45.01 2.31-1.71 4.08-3.52 5.27-56.38 38.29-112.74 76.61-169.11 114.91-2.98 1.84-5.64 4.5-9.14 5.3-4.85.16-7.74-6.49-4.72-10.1 2.16-2.27 4.96-3.75 7.5-5.54 54.58-37.08 109.16-74.17 163.74-111.25 2.6-1.71 5.02-3.72 7.85-5.04zm-188.15 151.84c3.27-1.1 7.18.57 8.21 3.95 12.27 32.15 24.32 64.4 36.58 96.56.7 2.08 1.73 4.52.39 6.59-2.64 4.09-9.95 3.34-11.37-1.48-12.44-32.63-24.73-65.33-37.09-97.99-1.59-2.96-.06-6.84 3.28-7.63zm180.8 72.53c.01-6.12 6.08-10.88 11.96-10.7 21.03.02 42.06-.03 63.09.02 6.1.07 11.69 5.51 11.5 11.7.01 12.02.03 24.06-.01 36.09.01 4.24-2.77 8.25-6.71 9.8-2.48 1.2-5.29.91-7.95.97-7.34-.07-14.69.02-22.03-.02-5.94.18-11.93-4.6-12.06-10.75-.23-8.4-.03-16.81-.09-25.22-4.64.02-9.28.01-13.92.01-.02 8.41.04 16.81-.01 25.22.15 5.75-5.15 10.65-10.77 10.7-4.34.16-8.69.02-13.03.1.02-15.97-.07-31.95.03-47.92zm-50.24 4.01c-1.25-6.62 4.58-13.16 11.24-13.15 8.6-.25 17.22-.03 25.84-.09 0 7.71 0 15.41-.01 23.11-8.66-.04-17.32.08-25.99-.04-5.37-.16-10.39-4.44-11.08-9.83z" fill="#fff"/><path d="m315.4 282.97c12.65-.13 25.29-.03 37.94-.05.01 29.18.01 58.36-.01 87.54-15.81.03-31.63-.03-47.45.02-1.15 5.9-2.14 12.01-5.13 17.31-1.77 3.14-4.86 6.04-8.67 6.02-13.65.06-27.29 0-40.94.02-.04-6.25.07-12.51-.02-18.76.04-4.48-3.43-7.73-6.19-10.82 3.58-3.48 6.12-8.18 6.19-13.24 0-4.35.2-8.71-.12-13.05-.78-4.09-3.55-7.37-5.63-10.85 4.21 2.37 8.64 4.98 13.63 5 11.34.03 22.69-.02 34.03.02 5.44-.01 11.15-1.25 15.46-4.74 4.58-3.69 6.86-9.68 6.89-15.47.07-9.65.01-19.3.02-28.95zm-150.45 29.06c-1.77-6.74 4.12-13.86 10.97-13.86 8.65-.1 17.31.01 25.97-.03v22.97c-8.62-.05-17.25.12-25.87-.07-5.19.06-10.09-3.93-11.07-9.01zm-85.67 9.36c2.96-1.04 6.73.06 7.98 3.1 3 7.45 5.48 15.11 8.37 22.6.69 2.15 1.85 4.48 1.05 6.76-1.7 4.09-8.14 4.69-10.72 1.17-1.6-2.56-2.34-5.54-3.41-8.34-2.18-6.29-4.72-12.45-6.72-18.8-1.13-2.69.8-5.72 3.45-6.49zm93.19 13.23c1.78-.61 3.7-.55 5.57-.6 16.33.05 32.66-.02 48.98.03 6.05-.31 11.61 4.95 11.77 10.97.38 6.37-5.43 12.19-11.79 11.89-17.01.01-34.02.05-51.03-.02-6.53.08-12.26-6.38-11.2-12.86.47-4.3 3.7-7.95 7.7-9.41zm12.71 36.7c13.95-.32 27.92-.09 41.87-.12 6.26-.12 12.02 5.48 11.74 11.8-.05 6.14-5.69 11.33-11.77 11.23-13.33.13-26.68.1-40.01.02-5.12.06-10.05-3.42-11.5-8.35-2.09-6.56 2.95-13.83 9.67-14.58z" fill="#fff"/><path d="m104.33 47.35c3.19-5.36 9.84-6.58 15.6-6.22 24.52.27 49.05-.3 73.56.29-15.1 10.46-30.37 20.68-45.49 31.1-7.81-1.44-16.02-1.33-23.85.07-6.88-.74-13.51-3.26-19.99-5.66l-.04-.13c-2.31-6.19-3.91-13.63.21-19.45zm198.39-6.07c24.44-.26 48.88.02 73.32-.15 4.08-.02 8.51.3 11.8 3.01 8.52 6.61 7.06 22.36-3.22 26.47-6.3 2.08-13.09.74-19.6 1.09-6.94.42-14.1-1.06-20.85 1.09-13.36-11.09-27.15-21.66-41.45-31.51zm-284.58 187.69c10.74 30.63 21.26 61.34 31.93 91.99 4.16 11.49 7.25 23.34 9.74 35.28-7.76-22.31-15.43-44.66-23.25-66.95-6.88-19.86-14.06-39.71-18.42-60.32zm444.09 16.09c1.9-5.55 4.22-10.96 6.68-16.29-10.55 47.7-30.35 92.61-46.81 138.42 3.9-19.65 11.21-38.34 17.65-57.24 7.49-21.63 15-43.26 22.48-64.89zm-53.4 164.63c-3.88 15.5-8.23 31.16-16.11 45.18-3.9 6.75-8.99 13.03-15.68 17.17-5.18 3.22-11.21 4.55-17.08 5.89-14.1 3.05-28.59 3.49-42.98 3.37-23.51.1-46.92-2.29-70.34-4.1-15.16-1.11-30.37-2.27-45.56-1.47-25.01 1.47-50.13 5.01-75.17 2.2-5.07-.54-10-1.81-14.91-3.09 1.79-1.42 4.96-2.13 5.08-4.84.72-7.51.19-15.08.11-22.6 15.11 2.6 30.51 2.21 45.77 1.6 22.05-1.17 43.96-4.05 65.98-5.51 12.04-.8 24.06.37 36.06 1.12-1.99 2.21-4.89 4.78-3.65 8.12 1.38 3.04 4.12 5.14 6.35 7.54 5.02 5 9.35 10.66 14.38 15.65 2.81 2.99 8.2 1.03 9.15-2.76 1.11-2.38.14-4.98-1.51-6.81-6.19-7.48-13.07-14.35-19.82-21.31 26.59 2.48 53.28 5.32 80.01 4.08 11.83-.82 23.96-2.22 34.81-7.29 12.58-6.53 19.61-19.67 25.11-32.14m-167.51 34.68c-4.15 1.1-6.44 6.64-3.84 10.2 3.12 4.48 6.77 8.58 9.97 13.01 2.1 2.49 3.74 5.53 6.52 7.34 5.51 2.1 10.23-5.5 6.88-9.9-4.12-5.77-8.78-11.13-12.95-16.86-1.51-2.1-3.62-4.8-6.58-3.79zm-156.69-7.32c-1.24-5.02-2.94-9.95-3.48-15.12 5.14 11.01 14.35 20.81 26.65 23.3-1.67 1.14-3.5 2.58-3.45 4.83-.45 7.35-.26 14.74.31 22.09-3.55-2.28-7.16-4.72-9.42-8.38-5.24-8.11-7.95-17.52-10.61-26.72z" fill="#cd9e52"/><path d="m222.38 93.29c4.93-4.76 12.08-5.88 18.67-5.64 10.21-.53 20.44 3.46 27.97 10.29 2.21 1.85 2.19 5.02 3.8 7.24 1.28.74 2.84.66 4.25.97 7.66.83 14.54 4.76 20.85 8.95 5.85 3.91 8.16 11.24 8.38 17.98.25 4.37-.9 8.64-1.05 12.99.37 4.88 5.52 7.13 7.5 11.23 3.26 5.68 2.28 12.47 1.1 18.59-.94 4.88-3.92 9.15-4.52 14.11-.28 3.18 2.51 5.52 5.27 6.44 14.27 4.94 26.75 14.35 36.43 25.84-1.88 2.37-3.75 4.78-5.99 6.83-8.55 7.6-17.4 15.06-27.68 20.23-3.1 1.52-6.71 3.96-7.06 7.66 1.53 4.24 2.79 8.54 3.57 12.98 16.18.31 32.38.06 48.58.12-.02 36.77-.02 73.54 0 110.32-16.41-.06-32.82.03-49.23-.05-.51 7-3.26 13.7-7.69 19.12-3.02 3.69-7.76 5.79-12.51 5.71-36.66-.01-73.31-.02-109.97 0-6.14.36-11.55-3.44-15.73-7.54-5.76-7.89-5.26-19.28.56-27.02-4.57-3.88-10.15-6.93-13.19-12.29-3.08-4.98-4.91-11.2-3.11-16.96 1.62-5.11 5.57-8.94 9.28-12.6-3.36-3.24-6.82-6.58-8.78-10.9-2.39-4.88-1.72-10.69.2-15.61 1.51-4.03 5.15-6.56 8.01-9.57-8.08-3.56-12.28-13.42-9.81-21.78 1.44-4.84 5.05-8.52 8.37-12.14-9.95-5.76-15.12-16.58-23.92-23.63-3.7-2.8-7.96-4.75-11.9-7.19 6.03-4.93 12.51-9.35 17.93-14.99 2.86-2.84 5.53-5.87 8.53-8.58 4.64-4.06 10.35-6.53 16.08-8.64-8.79-1.4-16.45-8.77-17.39-17.74-.37-8.43 1.71-17.17 6.94-23.93 2.65-3.93 6.11-7.2 9.53-10.45 4.03-3.69 4.63-9.46 5.05-14.6.29-5.45 2-10.79 4.75-15.49 2.5-4.23 7.08-6.44 10.85-9.34 8.25-6.03 19.06-5.17 28.73-4.98 3.85.13 5.73-3.82 8.35-5.94m8.59 3c-8.86 3.09-15.51 11.67-15.92 21.11 4.03-3.17 7.9-6.6 12.52-8.92 6-3.79 13.45-4.2 20.29-3.27 5.36 1.49 10.12 4.53 14.87 7.34-.55-2.95-.29-6.36-2.43-8.73-2.76-3.3-5.85-6.69-10.09-7.99-6.25-1.95-13.02-1.29-19.24.46m-35.46 10.38c-6.23 2.12-11.02 6.96-15.22 11.83-3.71 4.28-3.99 10.25-3.46 15.62 5.42-1.64 10.71-3.74 16.24-5.01 4.34-1.01 9.05-2.61 11.6-6.54 3.28-5.18 4.46-11.35 5.4-17.32-4.88.01-9.88-.19-14.56 1.42m48.37 11.73c1.5-.64 3.15-1.08 4.44-2.13 2.32-1.81 1.32-5.08 1.58-7.59-4.48.88-6.03 5.71-6.02 9.72m-22.38 2.52c3.94 1.19 8.18 1.47 12.21.6 4.29-1.61 5.14-6.59 6.49-10.41-1.42.04-2.84.09-4.26.18-6.16.2-11.1 4.85-14.44 9.63m51.72-6.73c-1.02 1.33-2.08 2.63-3.15 3.91 10.21 7.51 13.7 20.56 22.7 29.12.88.53 1.74 2.1 2.92 1.48 2.37-5.55 2.78-11.81 2.27-17.77-.24-3.83-2.5-7.21-5.4-9.58-5.34-4.46-12.03-8.95-19.34-7.16m-35.61 26.52c4.56 3 10.24 3.45 15.55 3.16 4.48-.41 7.14-4.74 8.06-8.74 1.12-5.35 1.33-11.29-1.55-16.14-6.32 8.07-10.91 19.45-22.06 21.72m-29.16-11.82c8.05 7.34 19.82 8.95 30.16 6.61 4.74-1.5 8.14-5.49 10.91-9.41-6.47-.51-12.07 3.74-18.51 3.47-5.62.16-10.06-3.68-15.01-5.69-3.55-.66-5.85 2.45-7.55 5.02m52.99 21.52c-3.13 5.08-7.35 9.43-12 13.15-3.36 2.64-7.18 4.96-11.47 5.6-5.43.97-10.94.23-16.36-.37 2.29 5.5 6.72 9.58 10.76 13.8 2.9 3.06 7.08 4.29 10.54 6.56 8.18 5.66 19.59 6.68 28.5 2.17 6.92-4.04 9.22-12.14 11.28-19.34 2.29-8.62.29-17.61-2.15-25.96-1.67-7.47-4.79-15.18-10.9-20.09-2.22 8.3-3.86 16.94-8.2 24.48m-69.1-8.1c-2.94 5.83-6.03 11.91-6.14 18.59-.61 9.96.73 21.27 8.25 28.57 6.38 4.4 14.37 5.34 21.14 9 4.36 2.37 8.73 4.75 13.28 6.74 5.7 2.09 13.31.43 16.27-5.25-1.32-4.11-6.15-4.61-9.22-6.87-4.21-3.07-8.73-5.93-11.96-10.1-3.64-4.64-8.31-8.42-11.35-13.53-4.78-6.65-6.46-14.8-9.99-22.08-2.1-3.89-1.46-8.32-.58-12.44-3.84 1.47-7.77 3.52-9.7 7.37m-20.44 2.69c-3.76 4.52-8.85 7.91-11.73 13.15-2.33 4.27-4.76 8.84-4.72 13.84-.58 13.49 15.33 23.4 27.52 19.04 1.38-.78 4.4-1.81 3.04-3.92-3.21-7.47-8.78-14.46-8.17-23.06 1.3-10.5 7.61-19.34 12.55-28.4-6.66 1.77-13.89 3.84-18.49 9.35m34.99-6.25c.51 7.71 4.47 15.08 10.14 20.25 5.96 3.9 13.42 1.96 20.07 1.82 5.12-.03 9.39-3.55 12.11-7.63-10.34-1.68-19.85-6.34-30.16-8.08-4.66-.75-8.43-3.69-12.16-6.36m90.61 18.82c-3.44 2.63-6.35 6.07-7.82 10.19-2.17 5.73-5.58 11.56-4.27 17.92.61 2.94 3.85 4.12 6.54 4.14 5.73.32 10.34-4.01 13.48-8.32 2.46-4.92 3.09-10.78 2.07-16.16-1.45-2.95-4.2-5.02-6.47-7.32-.81-1.06-2.5-1.33-3.53-.45m-114.16 37.86c-1.23 10.08 2.18 19.91 2.2 29.98 4.32.13 8.64.3 12.96.49-1.69-10.24-2.83-20.56-4.37-30.82-3.61-.06-7.21.05-10.79.35m16.09.84c.24 10.04 2.23 19.93 3.79 29.83 6.79.54 13.59 1.05 20.38 1.69.44-6.5.31-13.5-3.34-19.17-4.55-7.1-12.87-10.65-20.83-12.35m-46.55 13.14c4.77 5.19 9.51 10.39 13.85 15.95 4.75-.16 9.5-.1 14.25-.09-.67-9.38-1.23-18.96-4.32-27.92-8.37 3.05-16.67 6.6-23.78 12.06m118.42-10.01c-6.42 8.99-12 18.82-14.79 29.58 4.19-.38 8.37-.8 12.55-1.23 4.4-10.83 11.56-20.13 18.18-29.65-5.35-.07-10.69.3-15.94 1.3m21.75-1.33c-6.84 9.25-13.97 18.47-18.75 29 5.62-.55 11.3-.94 16.87-1.89 2.18-2.31 2.82-5.73 4.43-8.46 2.79-5.93 6.91-11.13 9.46-17.17-3.99-.63-7.99-1.14-12.01-1.48m-50.06 14.92c-4.47 4.71-6.3 11.21-6.79 17.54 5.1-.42 10.2-.78 15.32-1.05 2.9-9.88 6.66-19.57 12.47-28.13-7.62 2.47-15.43 5.65-21 11.64m53.99 11.6c4.59-.57 9.19-1.03 13.76-1.74 2.94-5.9 7.46-10.76 11.33-16.04-4.01-2.03-8.1-3.89-12.26-5.57-4.54 7.63-9.52 15.07-12.83 23.35m29.25-15.58c-3.41 4.34-7.04 8.52-10.02 13.18 8.37-.74 16.72-1.58 25.09-2.31-4.38-4.44-9.58-7.94-15.07-10.87m-99.16 15.87c-1.17 7.03-.3 14.21 1.26 21.11.39 1.89 1.23 3.71 2.62 5.08 3.53-7.5 2.97-16.05 3.04-24.12-.34-5.38.08-11.29-3.02-16-2.52 4.21-3.12 9.17-3.9 13.93m-90.89 1.21c8.22-.27 16.44-.51 24.65-.75-3.38-4.5-7.29-8.54-11.12-12.64-5.17 3.72-10.08 7.97-13.53 13.39m181.73.47c1.79 3.88 4.69 7.07 7.36 10.36 5.62-3.67 11.05-7.69 15.92-12.32-7.79.32-15.52 1.33-23.28 1.96m-21.38 2.67c2.99 6.83 5.56 15.39 13.51 17.84 4.1-2.15 8.25-4.31 11.71-7.45-3.45-3.81-6.39-8.03-9.04-12.41-5.39.75-10.8 1.25-16.18 2.02m-158.7 1.33c3.37 4.14 7.07 8.09 11.14 11.54 4.66-3.11 8.35-7.46 11.46-12.07-7.54-.02-15.07.22-22.6.53m14.74 15.41c2.2 1.97 4.49 3.84 6.82 5.65 1.89-.7 4.08-1.13 5.24-2.95 4.56-6.12 9.13-12.26 13-18.85-3.89-.12-7.78-.13-11.67-.04-3.68 6-8.29 11.35-13.39 16.19m23.74-5.71c-3.02 4.71-7.53 8.74-8.36 14.55 9.6 0 19.36.92 28.81-1.24a265.08 265.08 0 0 1 -8.56-23.67c-1.77.03-3.54 0-5.3.21-2.44 3.22-4.14 6.93-6.59 10.15m16.72-10.07c2.29 7.57 5.18 14.93 8.06 22.29 4.6-1.39 9.14-3.37 12.7-6.68 4.08-3.64 6.62-8.57 9.14-13.32-9.91-1.36-19.91-1.96-29.9-2.29m80.81 1.59c3.16 7.89 7.53 15.22 12.21 22.28 6.01-.7 11.93-2.06 17.59-4.23-4.82-6.07-8.99-12.68-11.78-19.93-6.03.42-12.01 1.24-18.02 1.88m-17.54 1.69c2.14 7.38 5.81 14.15 9.78 20.68 4.41.27 8.83.39 13.26.36-4-7.09-7.45-14.5-10.03-22.23-4.34.42-8.67.88-13.01 1.19m-19.68 1.65c1.23 3.59 2.6 7.24 5.06 10.2 4.19 5.42 11.07 7.53 17.54 8.67-2.15-6.77-5.44-13.12-7.48-19.93-5.05.15-10.1.47-15.12 1.06m-21.57 36.81c-.1 15.97-.01 31.95-.03 47.92 4.34-.08 8.69.06 13.03-.1 5.62-.05 10.92-4.95 10.77-10.7.05-8.41-.01-16.81.01-25.22 4.64 0 9.28.01 13.92-.01.06 8.41-.14 16.82.09 25.22.13 6.15 6.12 10.93 12.06 10.75 7.34.04 14.69-.05 22.03.02 2.66-.06 5.47.23 7.95-.97 3.94-1.55 6.72-5.56 6.71-9.8.04-12.03.02-24.07.01-36.09.19-6.19-5.4-11.63-11.5-11.7-21.03-.05-42.06 0-63.09-.02-5.88-.18-11.95 4.58-11.96 10.7m-50.24 4.01c.69 5.39 5.71 9.67 11.08 9.83 8.67.12 17.33 0 25.99.04.01-7.7.01-15.4.01-23.11-8.62.06-17.24-.16-25.84.09-6.66-.01-12.49 6.53-11.24 13.15m150.59 7.03c-.01 9.65.05 19.3-.02 28.95-.03 5.79-2.31 11.78-6.89 15.47-4.31 3.49-10.02 4.73-15.46 4.74-11.34-.04-22.69.01-34.03-.02-4.99-.02-9.42-2.63-13.63-5 2.08 3.48 4.85 6.76 5.63 10.85.32 4.34.12 8.7.12 13.05-.07 5.06-2.61 9.76-6.19 13.24 2.76 3.09 6.23 6.34 6.19 10.82.09 6.25-.02 12.51.02 18.76 13.65-.02 27.29.04 40.94-.02 3.81.02 6.9-2.88 8.67-6.02 2.99-5.3 3.98-11.41 5.13-17.31 15.82-.05 31.64.01 47.45-.02.02-29.18.02-58.36.01-87.54-12.65.02-25.29-.08-37.94.05m-150.45 29.06c.98 5.08 5.88 9.07 11.07 9.01 8.62.19 17.25.02 25.87.07v-22.97c-8.66.04-17.32-.07-25.97.03-6.85 0-12.74 7.12-10.97 13.86m7.52 22.59c-4 1.46-7.23 5.11-7.7 9.41-1.06 6.48 4.67 12.94 11.2 12.86 17.01.07 34.02.03 51.03.02 6.36.3 12.17-5.52 11.79-11.89-.16-6.02-5.72-11.28-11.77-10.97-16.32-.05-32.65.02-48.98-.03-1.87.05-3.79-.01-5.57.6m12.71 36.7c-6.72.75-11.76 8.02-9.67 14.58 1.45 4.93 6.38 8.41 11.5 8.35 13.33.08 26.68.11 40.01-.02 6.08.1 11.72-5.09 11.77-11.23.28-6.32-5.48-11.92-11.74-11.8-13.95.03-27.92-.2-41.87.12z" fill="#332f2f"/><g fill="#d44c3d"><path d="m230.97 96.29c6.22-1.75 12.99-2.41 19.24-.46 4.24 1.3 7.33 4.69 10.09 7.99 2.14 2.37 1.88 5.78 2.43 8.73-4.75-2.81-9.51-5.85-14.87-7.34-6.84-.93-14.29-.52-20.29 3.27-4.62 2.32-8.49 5.75-12.52 8.92.41-9.44 7.06-18.02 15.92-21.11zm-35.46 10.38c4.68-1.61 9.68-1.41 14.56-1.42-.94 5.97-2.12 12.14-5.4 17.32-2.55 3.93-7.26 5.53-11.6 6.54-5.53 1.27-10.82 3.37-16.24 5.01-.53-5.37-.25-11.34 3.46-15.62 4.2-4.87 8.99-9.71 15.22-11.83z"/><path d="m243.88 118.4c-.01-4.01 1.54-8.84 6.02-9.72-.26 2.51.74 5.78-1.58 7.59-1.29 1.05-2.94 1.49-4.44 2.13zm-22.38 2.52c3.34-4.78 8.28-9.43 14.44-9.63 1.42-.09 2.84-.14 4.26-.18-1.35 3.82-2.2 8.8-6.49 10.41-4.03.87-8.27.59-12.21-.6zm51.72-6.73c7.31-1.79 14 2.7 19.34 7.16 2.9 2.37 5.16 5.75 5.4 9.58.51 5.96.1 12.22-2.27 17.77-1.18.62-2.04-.95-2.92-1.48-9-8.56-12.49-21.61-22.7-29.12 1.07-1.28 2.13-2.58 3.15-3.91zm-35.61 26.52c11.15-2.27 15.74-13.65 22.06-21.72 2.88 4.85 2.67 10.79 1.55 16.14-.92 4-3.58 8.33-8.06 8.74-5.31.29-10.99-.16-15.55-3.16zm-29.16-11.82c1.7-2.57 4-5.68 7.55-5.02 4.95 2.01 9.39 5.85 15.01 5.69 6.44.27 12.04-3.98 18.51-3.47-2.77 3.92-6.17 7.91-10.91 9.41-10.34 2.34-22.11.73-30.16-6.61z"/><path d="m261.44 150.41c4.34-7.54 5.98-16.18 8.2-24.48 6.11 4.91 9.23 12.62 10.9 20.09 2.44 8.35 4.44 17.34 2.15 25.96-2.06 7.2-4.36 15.3-11.28 19.34-8.91 4.51-20.32 3.49-28.5-2.17-3.46-2.27-7.64-3.5-10.54-6.56-4.04-4.22-8.47-8.3-10.76-13.8 5.42.6 10.93 1.34 16.36.37 4.29-.64 8.11-2.96 11.47-5.6 4.65-3.72 8.87-8.07 12-13.15z"/><path d="m192.34 142.31c1.93-3.85 5.86-5.9 9.7-7.37-.88 4.12-1.52 8.55.58 12.44 3.53 7.28 5.21 15.43 9.99 22.08 3.04 5.11 7.71 8.89 11.35 13.53 3.23 4.17 7.75 7.03 11.96 10.1 3.07 2.26 7.9 2.76 9.22 6.87-2.96 5.68-10.57 7.34-16.27 5.25-4.55-1.99-8.92-4.37-13.28-6.74-6.77-3.66-14.76-4.6-21.14-9-7.52-7.3-8.86-18.61-8.25-28.57.11-6.68 3.2-12.76 6.14-18.59z"/><path d="m171.9 145c4.6-5.51 11.83-7.58 18.49-9.35-4.94 9.06-11.25 17.9-12.55 28.4-.61 8.6 4.96 15.59 8.17 23.06 1.36 2.11-1.66 3.14-3.04 3.92-12.19 4.36-28.1-5.55-27.52-19.04-.04-5 2.39-9.57 4.72-13.84 2.88-5.24 7.97-8.63 11.73-13.15zm34.99-6.25c3.73 2.67 7.5 5.61 12.16 6.36 10.31 1.74 19.82 6.4 30.16 8.08-2.72 4.08-6.99 7.6-12.11 7.63-6.65.14-14.11 2.08-20.07-1.82-5.67-5.17-9.63-12.54-10.14-20.25zm90.61 18.82c1.03-.88 2.72-.61 3.53.45 2.27 2.3 5.02 4.37 6.47 7.32 1.02 5.38.39 11.24-2.07 16.16-3.14 4.31-7.75 8.64-13.48 8.32-2.69-.02-5.93-1.2-6.54-4.14-1.31-6.36 2.1-12.19 4.27-17.92 1.47-4.12 4.38-7.56 7.82-10.19z"/></g><path d="m183.34 195.43c3.58-.3 7.18-.41 10.79-.35 1.54 10.26 2.68 20.58 4.37 30.82-4.32-.19-8.64-.36-12.96-.49-.02-10.07-3.43-19.9-2.2-29.98zm16.09.84c7.96 1.7 16.28 5.25 20.83 12.35 3.65 5.67 3.78 12.67 3.34 19.17-6.79-.64-13.59-1.15-20.38-1.69-1.56-9.9-3.55-19.79-3.79-29.83zm-46.55 13.14c7.11-5.46 15.41-9.01 23.78-12.06 3.09 8.96 3.65 18.54 4.32 27.92-4.75-.01-9.5-.07-14.25.09-4.34-5.56-9.08-10.76-13.85-15.95zm118.42-10.01c5.25-1 10.59-1.37 15.94-1.3-6.62 9.52-13.78 18.82-18.18 29.65-4.18.43-8.36.85-12.55 1.23 2.79-10.76 8.37-20.59 14.79-29.58zm21.75-1.33c4.02.34 8.02.85 12.01 1.48-2.55 6.04-6.67 11.24-9.46 17.17-1.61 2.73-2.25 6.15-4.43 8.46-5.57.95-11.25 1.34-16.87 1.89 4.78-10.53 11.91-19.75 18.75-29zm-50.06 14.92c5.57-5.99 13.38-9.17 21-11.64-5.81 8.56-9.57 18.25-12.47 28.13-5.12.27-10.22.63-15.32 1.05.49-6.33 2.32-12.83 6.79-17.54zm53.99 11.6c3.31-8.28 8.29-15.72 12.83-23.35 4.16 1.68 8.25 3.54 12.26 5.57-3.87 5.28-8.39 10.14-11.33 16.04-4.57.71-9.17 1.17-13.76 1.74zm29.25-15.58c5.49 2.93 10.69 6.43 15.07 10.87-8.37.73-16.72 1.57-25.09 2.31 2.98-4.66 6.61-8.84 10.02-13.18zm-99.16 15.87c.78-4.76 1.38-9.72 3.9-13.93 3.1 4.71 2.68 10.62 3.02 16-.07 8.07.49 16.62-3.04 24.12-1.39-1.37-2.23-3.19-2.62-5.08-1.56-6.9-2.43-14.08-1.26-21.11zm-90.89 1.21c3.45-5.42 8.36-9.67 13.53-13.39 3.83 4.1 7.74 8.14 11.12 12.64-8.21.24-16.43.48-24.65.75zm181.73.47c7.76-.63 15.49-1.64 23.28-1.96-4.87 4.63-10.3 8.65-15.92 12.32-2.67-3.29-5.57-6.48-7.36-10.36zm-21.38 2.67c5.38-.77 10.79-1.27 16.18-2.02 2.65 4.38 5.59 8.6 9.04 12.41-3.46 3.14-7.61 5.3-11.71 7.45-7.95-2.45-10.52-11.01-13.51-17.84zm-158.7 1.33c7.53-.31 15.06-.55 22.6-.53-3.11 4.61-6.8 8.96-11.46 12.07-4.07-3.45-7.77-7.4-11.14-11.54zm14.74 15.41c5.1-4.84 9.71-10.19 13.39-16.19 3.89-.09 7.78-.08 11.67.04-3.87 6.59-8.44 12.73-13 18.85-1.16 1.82-3.35 2.25-5.24 2.95-2.33-1.81-4.62-3.68-6.82-5.65zm23.74-5.71c2.45-3.22 4.15-6.93 6.59-10.15 1.76-.21 3.53-.18 5.3-.21a265.08 265.08 0 0 0 8.56 23.67c-9.45 2.16-19.21 1.24-28.81 1.24.83-5.81 5.34-9.84 8.36-14.55zm16.72-10.07c9.99.33 19.99.93 29.9 2.29-2.52 4.75-5.06 9.68-9.14 13.32-3.56 3.31-8.1 5.29-12.7 6.68-2.88-7.36-5.77-14.72-8.06-22.29zm80.81 1.59c6.01-.64 11.99-1.46 18.02-1.88 2.79 7.25 6.96 13.86 11.78 19.93-5.66 2.17-11.58 3.53-17.59 4.23-4.68-7.06-9.05-14.39-12.21-22.28zm-17.54 1.69c4.34-.31 8.67-.77 13.01-1.19 2.58 7.73 6.03 15.14 10.03 22.23-4.43.03-8.85-.09-13.26-.36-3.97-6.53-7.64-13.3-9.78-20.68zm-19.68 1.65c5.02-.59 10.07-.91 15.12-1.06 2.04 6.81 5.33 13.16 7.48 19.93-6.47-1.14-13.35-3.25-17.54-8.67-2.46-2.96-3.83-6.61-5.06-10.2z" fill="#54aa7a"/></svg>