<svg xmlns="http://www.w3.org/2000/svg" width="487pt" height="494pt" viewBox="0 0 487 494"><path d="M94.37 7.67c6.01-3.44 12.75-5.4 19.61-6.23C140.65-1.9 167.33 3.45 194 4.11c50.67.06 101.33.01 152 .03 17.74.55 35.91-3.72 53.29 1.53 8.67 2.44 14.96 9.98 17.89 18.24 4.06 11.49 2.71 24.33-1.84 35.46-3.86 9.28-10.31 17.95-19.48 22.48-3.01 1.63-6.52 1.54-9.84 1.54-9.47-.11-18.93 0-28.4-.08 12.93 10.21 25.68 20.85 40.16 28.85 24.76 14.29 51.31 26.81 71.49 47.57 3.17 2.83 7.04 4.86 9.7 8.25 6.38 7.73 8.01 18.2 7.9 27.94-.7 18.98-6.46 37.23-11.53 55.39-18.06 62.23-42.75 122.23-63.43 183.59-4.52 13.18-6.69 27.64-15.13 39.1-6.94 9.33-18.63 13.1-29.67 14.82-13.24 2.35-26.67 3.77-40.11 4.17-36.05 1.49-72.06-1.52-108.02-3.59-22.29-1.2-44.7-2.55-66.99-.57-8.68.32-17.36 1.38-26.05.77-11.41-.55-23.32-2.91-32.45-10.21-6.18-4.69-10.4-11.46-13.34-18.54-7.07-16.89-9.56-35.21-15.38-52.5-13.32-38.38-26.59-76.77-39.92-115.15-7.74-22.4-15.8-44.81-20.31-68.13C1.67 210.77.47 196.2 0 181.64v-3.56c2.34-5.37 6.46-9.57 10.61-13.56 5.28-6.08 11.42-11.36 17.95-16.05 17.16-12.35 36.22-21.65 54.44-32.29 16.57-10.45 32.35-22.09 48.79-32.75-12.91.58-26.66 2.07-38.77-3.46-9.07-4.24-14.5-13.56-17.08-22.88-3.72-13.53-.45-28.42 7.78-39.67 3.38-3.43 6.91-6.71 10.65-9.75m24.38 6.36c-3.58.7-6.92 2.23-10.28 3.58-5.08 2.6-10.02 5.97-12.99 10.98-4.08 6.78-7.6 14.8-5.83 22.87 1.67 7.29 8.05 12.22 14.47 15.3l.09.27c6.45 2.22 12.95 4.81 19.77 5.54 6.28 1.32 12.69 2.12 19.1 2.41 1.98.22 3.33-1.56 4.68-2.68l.38.46c14.72-11.02 30.47-20.64 45.35-31.46 7.65-4.78 15.03-10.03 22.43-15.2 5.86-3.5 11.17-7.9 17.09-11.31 15.62-1.36 30.54 4.88 44.41 11.32 8.68 4.68 17.15 9.71 25.34 15.2 14.26 9.84 28.05 20.38 41.37 31.46 14.27.44 28.57.03 42.85.21 5.09.45 9.64-2.57 13.33-5.73 5.92-5.28 7.53-13.9 5.98-21.42-2.25-10.95-8.24-21.19-16.73-28.48-6.51-5.66-15.81-4.13-23.69-3.41-3.64.12-7.27.55-10.92.56h-88.92c-7.35.11-14.69-.2-22.02-.51-30.27-2.41-60.6-5.48-91-4.6-11.51.57-23.16 1.35-34.26 4.64m-8.11 98.61c-24.16 15.49-50.74 27.49-72.65 46.32-8.93 7.97-17.79 17.62-19.6 29.93-.91 11.37 1.4 22.72 4.26 33.68 6.83 24.25 17.06 47.36 27.37 70.3 8.13 18.41 16.88 36.69 22.17 56.18 5.62 19.69 9.81 40.08 19.38 58.36 5.35 10.07 13.24 19.63 24.33 23.46 18.98 6.42 39.33 6.53 59.14 6.11 31.72-.74 63.2-5.64 94.93-5.98 25.04.93 49.94 4.77 75.03 4.15 14.05-.54 29.46-1.19 41.17-9.93 3.47-2.78 5.42-6.9 7.13-10.9 5.64-13.75 7.96-28.53 12.23-42.72 5.1-14.91 10.32-29.78 15.46-44.68 6.31-17.53 11.57-35.49 19.34-52.46 9.21-21.26 19.21-42.36 25-64.88 2.47-10.41 4.42-21.55 1.34-32.04-1.5-5.53-5.85-9.57-10.27-12.89-11.19-8.35-24.14-13.83-35.89-21.25-22.21-15.1-44.4-30.23-66.6-45.35-28.13-18.49-52.1-42.81-81.46-59.51-10.88-6.12-22.7-11.23-35.31-12.05-42.17 28.72-84.3 57.48-126.5 86.15M18.11 228.7c5.91 27.88 16.63 54.41 25.69 81.35 5.39 15.44 10.64 30.93 16.1 46.34-2.76-12.74-6.07-25.39-10.59-37.63-10.4-30.02-20.82-60.03-31.2-90.06m444.11 16.38c-7.37 21.31-14.76 42.6-22.13 63.91-6.55 19.26-14.04 38.29-18.03 58.3 16.5-45.88 36.29-90.86 46.9-138.63-2.48 5.37-4.81 10.82-6.74 16.42m-53.37 164.58c-5.42 12.25-12.25 25.11-24.42 31.81-10.67 5.26-22.74 6.68-34.46 7.59-27.11 1.38-54.18-1.52-81.14-4.03-1.65-.17-3.3-.31-4.95-.43-11.63-.72-23.28-1.86-34.94-1.17-16.02.98-31.96 2.87-47.95 4.21-21.54 1.67-43.4 3.25-64.84-.27-2.38-1.86-5.42-3.39-8.47-2.15-12.4-2.55-21.34-12.51-26.76-23.41 2.89 13.04 6.13 26.2 12.09 38.22 2.44 5.22 6.71 9.25 11.63 12.13 2.08 1.13 4.28 2.01 6.53 2.74 5.19 1.36 10.43 2.62 15.78 3.15 24.69 2.57 49.43-.85 74.08-2.32 13.32-.71 26.67.12 39.96 1.06 25.32 1.81 50.61 4.63 76.03 4.5 14.63.13 29.38-.32 43.71-3.53 5.59-1.3 11.32-2.62 16.25-5.69 6.76-4.15 11.87-10.5 15.8-17.3 7.85-14 12.17-29.64 16.07-45.11z"/><path d="M230.24 85.74c2.1-1.01 4.47-.8 6.73-.83 5.03.05 10.07.05 15.1 0 2.24.03 4.6-.18 6.68.84 5.04.12 10.03.94 14.99 1.79 1.63.3 3.27.58 4.88.99 2.2.43 4.38.95 6.57 1.45 6.95 1.68 13.64 4.21 20.45 6.34.95.48 1.91.95 2.87 1.43.98.26 1.94.55 2.91.87 4.89 2.85 9.93 5.45 15.03 7.91 1.35.8 2.68 1.64 4.04 2.43 8.67 5.09 16.81 11.21 24.04 18.19 2.91 1.37 5 3.86 7.25 6.08 2.21 2.24 4.71 4.33 6.08 7.24 3.12 3.12 6.06 6.42 8.57 10.05 3.7 4.81 7.47 9.6 10.17 15.06.64.97 1.27 1.95 1.88 2.95 2.62 5.37 5.79 10.44 8.25 15.9.24.5.72 1.49.96 1.99.71 2.2 1.58 4.35 2.24 6.58.87 2.82 1.83 5.61 2.67 8.44.82 2.42 1.58 4.86 2.4 7.29.45 3.94 1.89 7.67 2.46 11.59.81 4.61 1.51 9.27 1.82 13.96.84 1.77.8 3.76.81 5.68-.05 7.33-.05 14.67 0 22.01 0 1.94.04 3.95-.81 5.75-.12 3.93-.95 7.76-1.47 11.64-.55 2.06-.84 4.19-1.36 6.26-.42 2.21-.94 4.4-1.44 6.59-.75 2.75-1.39 5.53-2.4 8.2-.91 2.13-1.66 4.32-2.37 6.53-.56 1.88-1.1 3.78-1.53 5.7-.69 1.32-1.38 2.65-2.07 3.98-.32.97-.62 1.94-.89 2.92-2.58 5.07-5.96 9.7-8.23 14.93-.61.98-1.23 1.95-1.86 2.92-.82 1.53-1.67 3.06-2.55 4.57-7.1 9.52-14.12 19.19-22.85 27.33-3.41 3.99-8.06 6.58-11.62 10.41-5.96 3.77-10.88 9.13-17.41 11.98-.38.35-1.13 1.05-1.5 1.41-1.12.42-2.24.87-3.35 1.31-4.1 2.86-8.73 4.8-12.94 7.48-.47.07-1.41.2-1.89.27-1.63.89-3.29 1.74-4.95 2.59-2.52.8-4.99 1.74-7.5 2.56-1.5.43-2.99.91-4.48 1.36-2.74.97-5.58 1.63-8.39 2.34-1.89.43-3.76.95-5.62 1.48-1.62.42-3.29.7-4.94 1-1.87.6-3.84.68-5.78.75-.4.22-1.19.67-1.58.89-2.2-.01-4.39-.01-6.58.1-1.76.97-3.78.88-5.71.9-7.69-.06-15.39-.06-23.08 0-1.92-.01-3.92.03-5.68-.86-2.8-.14-5.64-.07-8.36-.85-5.39-1.09-10.85-1.78-16.12-3.39-6.98-1.47-13.54-4.29-20.37-6.25-1.67-.86-3.34-1.72-4.98-2.63a142 142 0 0 1-1.89-.26c-3.65-2.14-7.42-4.08-10.94-6.45-1-.45-1.99-.9-2.99-1.35-.78-.35-1.56-.69-2.35-1.02-.37-.34-1.12-1.01-1.5-1.35-6.52-2.86-11.42-8.25-17.41-11.97-4.25-4.14-9.23-7.45-13.13-11.97-4.52-3.89-7.81-8.88-11.96-13.12-3.74-5.93-8.95-10.88-11.98-17.26-.64-.97-1.27-1.93-1.87-2.91-2.16-5.33-5.45-10.05-8.31-15.01-.06-.48-.17-1.44-.23-1.91-.54-.99-1.07-1.97-1.6-2.95-.51-1.75-1.23-3.42-2-5.06-.33-1.3-.68-2.59-1.01-3.88-.69-2-1.33-4-1.93-6.02-1.57-4.59-3.02-9.25-3.81-14.05-.52-2.09-.83-4.22-1.39-6.29-.36-4.54-1.44-9-1.41-13.57-1.01-2.1-.81-4.46-.83-6.71.05-5.99.04-11.97 0-17.96-.01-1.96-.05-3.99.83-5.8.08-4.73.82-9.41 1.85-14.01.22-1.98.38-3.97.93-5.88 1.92-8.1 4.55-16 6.79-24 .78-1.65 1.63-3.27 2.44-4.91.29-.97.59-1.92.92-2.88.97-1.79 1.92-3.59 2.68-5.48 2.05-3 3.64-6.29 5.12-9.6.62-.99 1.27-1.95 1.94-2.9.49-1.02.99-2.04 1.48-3.06 5.52-8.09 11.26-16.11 18.09-23.16 1.23-2.46 3.37-4.25 5.25-6.18 1.93-1.88 3.69-4.05 6.22-5.14 2.05-1.84 3.94-3.85 5.9-5.8 6-3.7 10.9-9.1 17.42-11.95.39-.34 1.16-1.03 1.54-1.37 1.08-.47 2.16-.96 3.24-1.45 4.39-3.09 9.48-4.96 14-7.85 1.6-.74 3.23-1.42 4.91-1.97.98-.44 1.95-.9 2.93-1.35 3.05-.89 6.01-2.09 9.05-3.01 5.88-1.97 11.87-3.62 17.97-4.78 6.52-1.45 13.16-2.54 19.85-2.8m-11.32 38.57c-.41.17-1.24.5-1.65.66-1.91.4-3.78.9-5.67 1.39-1.32.39-2.66.68-4 .99-1.35.47-2.7.9-4.05 1.36-4.64 1.96-9.46 3.5-13.98 5.76-4.14 1.87-8.45 3.55-12.08 6.35-1.34.83-2.66 1.71-4.03 2.48-5.73 3.55-10.75 8.14-15.78 12.59-2.84 1.55-4.94 4.09-7.1 6.44-1.73 3.12-4.68 5.28-6.61 8.25-3.35 4.09-6.97 8.11-9.12 12.99-2.96 4.38-5.34 9.09-7.41 13.95-2.3 5.27-4.32 10.65-6.12 16.11-.29 1.32-.57 2.65-.94 3.95-1.11 4.12-2.29 8.24-2.95 12.47-.31 2.22-.18 4.54-1.09 6.65-.21 9.2-.18 18.41-.01 27.61 1.47 2.95.29 6.4 1.55 9.41.09.58.26 1.75.34 2.33.18.4.55 1.21.73 1.61.24 2.3.82 4.54 1.34 6.79.37.98.72 1.97 1.05 2.98.47 1.32.91 2.66 1.39 4 1.63 5.1 3.6 10.09 5.55 15.08 2.22 4.09 4.54 8.13 7.05 12.05 3.08 5.83 7.5 10.75 11.58 15.87 1.7 2.77 4.19 4.91 6.45 7.21 2.32 2.25 4.43 4.79 7.26 6.43 4.36 3.82 8.89 7.53 13.8 10.63 5.03 2.87 9.86 6.15 15.17 8.5 5.72 2.06 11.36 4.3 17.01 6.51 1.33.26 2.67.54 3.99.91 9.24 2.9 18.86 4.35 28.55 4.28 3.36 1.33 7.35 1.29 10.72.01 3.14-.17 6.29-.1 9.44-.23 2.43-1.28 5.23-.8 7.86-.87.37-.19 1.11-.58 1.48-.77 3.29-.61 6.48-1.64 9.74-2.42 1.31-.37 2.65-.66 3.99-.94 5.5-1.72 10.66-4.31 16.11-6.16 4.21-1.72 8.25-3.84 12-6.42 1.37-.79 2.7-1.64 4.08-2.39 4.91-3.13 9.43-6.84 13.8-10.67 2.85-1.61 4.95-4.17 7.27-6.43 2.24-2.32 4.78-4.44 6.38-7.28 4.3-4.51 7.88-9.62 11.24-14.85 1.77-2.65 3.17-5.52 4.94-8.16.81-1.59 1.56-3.2 2.31-4.82.22-.53.65-1.6.87-2.13 2.19-5.61 4.8-11.1 6.26-16.96.32-.99.66-1.98 1.01-2.96.87-3.55 1.91-7.06 2.56-10.66.73-2.8.26-5.81 1.43-8.5.24-7.09.03-14.18.11-21.28.39-7.92-1.48-15.72-3.04-23.43-.39-1.01-.77-2.01-1.12-3.02-.46-1.67-.81-3.37-1.28-5.03-1.61-5.12-3.68-10.07-5.87-14.97-.5-2.04-1.35-3.98-2.28-5.85-1.96-3.05-3.53-6.33-5.63-9.28-3.74-6.43-8.42-12.27-13.46-17.72-2.4-4.09-6.22-7.1-9.96-9.91-5.54-4.81-11.09-9.72-17.53-13.31-4.38-3.29-9.51-5.24-14.36-7.7l-1.02.31-.37-.95c-5.11-2.03-10.18-4.18-15.44-5.81-1.33-.29-2.66-.57-3.96-.93-3.82-1.05-7.62-2.22-11.59-2.54-2.77-.9-5.82-.31-8.52-1.49-6.77-.26-13.55-.03-20.32-.14-6.1-.17-12.02 1.64-18.07 2.07z"/><path d="M121.62 248.46c5.79 5.35 12.03 10.15 18.71 14.33 4.93 2.92 10.15 5.27 15.21 7.95.98.27 1.95.56 2.92.86.5.28 1.5.82 2 1.09 4.41 1.99 9 3.51 13.76 4.41 3.29.84 6.63 1.5 10.02 1.84 5.12 1.43 10.54.38 15.78.68 4.25-.27 8.71.75 12.8-.74 2.32-.18 4.68-.22 6.95-.81 2.93-.62 5.89-1.17 8.8-1.9 4.73-1.21 9.28-2.91 13.85-4.58 1.3-.36 2.61-.65 3.92-.96 4.7-.59 9.66-2.79 14.32-.91 5.25.22 10.14 2.6 14.4 5.52-.29 1.46-.8 2.86-1.19 4.3-.53.99-1.05 1.98-1.57 2.98-.27 1.01-.56 2.03-.86 3.04-.34.96-.69 1.92-1.04 2.88-1.54 4.35-3.06 8.7-4.78 12.97-.48 1.24-.96 2.48-1.4 3.73-.86 2.8-1.68 5.61-2.48 8.43-.64 1.68-1.27 3.36-1.99 5.01-1.51 3.57-2.78 7.24-3.89 10.95-.55 1.02-1.09 2.05-1.64 3.07-.04.45-.13 1.35-.18 1.8-.56 1.01-1.13 2.04-1.68 3.06-.69 2.3-1.5 4.57-2.24 6.86-.5 1.45-.95 2.92-1.44 4.38-.42 1.3-.89 2.59-1.36 3.88-.51 1.33-.97 2.67-1.44 4.02-.68 3.17-2.02 6.14-3.6 8.96-.32 1.03-.67 2.06-1.04 3.08-.1.45-.31 1.36-.41 1.82-.61 1.33-1.16 2.69-1.73 4.04-2.45-.05-4.9-.07-7.35-.16-1.6-.72-3.35-.88-5.06-1.08.25-.69.74-2.06.99-2.75 1.52-4.33 3.2-8.62 4.49-13.03.49-.99.99-1.99 1.48-2.98.29-1.01.59-2.01.93-3 1.39-3.56 2.4-7.24 3.32-10.94 2.19-4.47 3.4-9.32 4.31-14.19.55-.99 1.09-1.98 1.65-2.96.09-.45.26-1.37.35-1.82.38-1.04.75-2.08 1.09-3.13-3.17-3.24-7.67-4.25-11.81-5.64-1.35-.48-2.72-.92-4.07-1.38-1.38-.33-2.77-.63-4.11-1.11-3.38-.13-6.88-.51-10.13.66-1.17.12-2.33.24-3.49.37-4.7 1.62-9.8.43-14.66.79-4.8.35-9.51-.52-14.23-1.22-7.69-1.66-15.1-4.28-22.37-7.26-5.2-2.57-9.97-5.92-14.4-9.65-3.7-2.67-7.11-5.8-9.91-9.4-4.04-5.73-8.55-11.31-10.83-18.04-.67-1.34-1.36-2.66-2.06-3.99-.52-2.55-.88-5.15-1.64-7.64-.09-2.17-.07-4.33.03-6.49z"/><path fill="#e4c746" d="M83.72 17.42c2.18-4.52 5.92-8.02 10.65-9.75-3.74 3.04-7.27 6.32-10.65 9.75zm157.66 426.93c3.17-.89 5.23 2.21 6.93 4.32 4.05 5.57 8.61 10.76 12.57 16.39 2.71 3.79-.11 10.05-4.85 10.22-2.54.21-4.12-2.06-5.55-3.77-3.32-4.35-6.61-8.72-10.08-12.95-1.49-1.94-3.2-3.86-3.87-6.26-.82-3.39 1.52-7.05 4.85-7.95zm-133.7.87c3.05-1.24 6.09.29 8.47 2.15.09 7.22.66 14.47.04 21.67.09 3.05-2.99 4.3-5.02 5.86-2.25-.73-4.45-1.61-6.53-2.74-.5-7.35-.83-14.74-.28-22.08.01-2.18 1.82-3.57 3.32-4.86zm156.2-.62c1.65.12 3.3.26 4.95.43 5.82 5.88 11.6 11.81 17.12 17.97 1.57 1.8 3.22 3.59 4.29 5.76 2.1 4.51-3.28 10.78-7.97 7.97-4.37-3.24-7.37-7.92-11.17-11.76-3.37-3.97-7.65-7.18-10.42-11.62-1.93-3.36 1.23-6.35 3.2-8.75z"/><g fill="#ffdc44"><path d="M118.75 14.03c11.1-3.29 22.75-4.07 34.26-4.64 30.4-.88 60.73 2.19 91 4.6-41.75.14-83.51.04-125.26.04zm247.12-.09c7.88-.72 17.18-2.25 23.69 3.41 8.49 7.29 14.48 17.53 16.73 28.48 1.55 7.52-.06 16.14-5.98 21.42-3.69 3.16-8.24 6.18-13.33 5.73-14.28-.18-28.58.23-42.85-.21 2.88-.82 5.88-1.24 8.88-1.16 7.66.12 15.32.08 22.98.14 3.85 0 8-.2 11.24-2.55 8.22-5.75 8.25-19.76.01-25.51-3.51-2.55-8.05-2.55-12.19-2.57-24.1.21-48.2-.14-72.29.19-8.19-5.49-16.66-10.52-25.34-15.2 31.86.18 63.72-.04 95.58.11 2.16-.09 4.43.02 6.47-.83 4.06-2.2 3.76-9.46-.76-10.91-4.23-.79-8.57-.46-12.84-.54zM95.48 28.59c2.97-5.01 7.91-8.38 12.99-10.98.23 2.21-.19 4.8 1.37 6.62 1.72 2.11 4.74 1.8 7.17 1.98 32.97-.13 65.94.09 98.91-.11-7.4 5.17-14.78 10.42-22.43 15.2-25.16-.28-50.33-.03-75.5-.15-5.47-.31-11.36 1.82-14.08 6.85-3.63 5.76-1.95 12.8.21 18.76-6.42-3.08-12.8-8.01-14.47-15.3-1.77-8.07 1.75-16.09 5.83-22.87zm15.16 84.05c42.2-28.67 84.33-57.43 126.5-86.15 12.61.82 24.43 5.93 35.31 12.05 29.36 16.7 53.33 41.02 81.46 59.51 22.2 15.12 44.39 30.25 66.6 45.35 11.75 7.42 24.7 12.9 35.89 21.25 4.42 3.32 8.77 7.36 10.27 12.89 3.08 10.49 1.13 21.63-1.34 32.04-5.79 22.52-15.79 43.62-25 64.88-7.77 16.97-13.03 34.93-19.34 52.46-5.14 14.9-10.36 29.77-15.46 44.68-4.27 14.19-6.59 28.97-12.23 42.72-1.71 4-3.66 8.12-7.13 10.9-11.71 8.74-27.12 9.39-41.17 9.93-25.09.62-49.99-3.22-75.03-4.15-31.73.34-63.21 5.24-94.93 5.98-19.81.42-40.16.31-59.14-6.11-11.09-3.83-18.98-13.39-24.33-23.46-9.57-18.28-13.76-38.67-19.38-58.36-5.29-19.49-14.04-37.77-22.17-56.18-10.31-22.94-20.54-46.05-27.37-70.3-2.86-10.96-5.17-22.31-4.26-33.68 1.81-12.31 10.67-21.96 19.6-29.93 21.91-18.83 48.49-30.83 72.65-46.32m111.81-65.08c-4.5 2.26-8.38 5.57-12.64 8.26C155.2 92.9 100.62 130.04 45.99 167.1c-1.62 1.21-3.54 2.57-3.8 4.75-.73 3.58 2.03 7.78 5.88 7.64 3.24-.78 5.75-3.13 8.49-4.88 54.79-37.26 109.6-74.49 164.41-111.72 2.68-1.94 5.79-3.44 7.92-6.03 2.92-4.08-1.34-11.28-6.44-9.3m7.79 38.18c-6.69.26-13.33 1.35-19.85 2.8-6.1 1.16-12.09 2.81-17.97 4.78-3.04.92-6 2.12-9.05 3.01-.98.45-1.95.91-2.93 1.35-1.68.55-3.31 1.23-4.91 1.97-4.52 2.89-9.61 4.76-14 7.85-1.08.49-2.16.98-3.24 1.45-.38.34-1.15 1.03-1.54 1.37-6.52 2.85-11.42 8.25-17.42 11.95-1.96 1.95-3.85 3.96-5.9 5.8-2.53 1.09-4.29 3.26-6.22 5.14-1.88 1.93-4.02 3.72-5.25 6.18-6.83 7.05-12.57 15.07-18.09 23.16-.49 1.02-.99 2.04-1.48 3.06-.67.95-1.32 1.91-1.94 2.9-1.48 3.31-3.07 6.6-5.12 9.6-.76 1.89-1.71 3.69-2.68 5.48-.33.96-.63 1.91-.92 2.88-.81 1.64-1.66 3.26-2.44 4.91-2.24 8-4.87 15.9-6.79 24-.55 1.91-.71 3.9-.93 5.88-1.03 4.6-1.77 9.28-1.85 14.01-.88 1.81-.84 3.84-.83 5.8.04 5.99.05 11.97 0 17.96.02 2.25-.18 4.61.83 6.71-.03 4.57 1.05 9.03 1.41 13.57.56 2.07.87 4.2 1.39 6.29.79 4.8 2.24 9.46 3.81 14.05.6 2.02 1.24 4.02 1.93 6.02.33 1.29.68 2.58 1.01 3.88.77 1.64 1.49 3.31 2 5.06.53.98 1.06 1.96 1.6 2.95.06.47.17 1.43.23 1.91 2.86 4.96 6.15 9.68 8.31 15.01.6.98 1.23 1.94 1.87 2.91 3.03 6.38 8.24 11.33 11.98 17.26 4.15 4.24 7.44 9.23 11.96 13.12 3.9 4.52 8.88 7.83 13.13 11.97 5.99 3.72 10.89 9.11 17.41 11.97.38.34 1.13 1.01 1.5 1.35.79.33 1.57.67 2.35 1.02 1 .45 1.99.9 2.99 1.35 3.52 2.37 7.29 4.31 10.94 6.45.48.07 1.42.2 1.89.26 1.64.91 3.31 1.77 4.98 2.63 6.83 1.96 13.39 4.78 20.37 6.25 5.27 1.61 10.73 2.3 16.12 3.39 2.72.78 5.56.71 8.36.85 1.76.89 3.76.85 5.68.86 7.69-.06 15.39-.06 23.08 0 1.93-.02 3.95.07 5.71-.9 2.19-.11 4.38-.11 6.58-.1.39-.22 1.18-.67 1.58-.89 1.94-.07 3.91-.15 5.78-.75 1.65-.3 3.32-.58 4.94-1 1.86-.53 3.73-1.05 5.62-1.48 2.81-.71 5.65-1.37 8.39-2.34 1.49-.45 2.98-.93 4.48-1.36 2.51-.82 4.98-1.76 7.5-2.56 1.66-.85 3.32-1.7 4.95-2.59.48-.07 1.42-.2 1.89-.27 4.21-2.68 8.84-4.62 12.94-7.48 1.11-.44 2.23-.89 3.35-1.31.37-.36 1.12-1.06 1.5-1.41 6.53-2.85 11.45-8.21 17.41-11.98 3.56-3.83 8.21-6.42 11.62-10.41 8.73-8.14 15.75-17.81 22.85-27.33.88-1.51 1.73-3.04 2.55-4.57.63-.97 1.25-1.94 1.86-2.92 2.27-5.23 5.65-9.86 8.23-14.93.27-.98.57-1.95.89-2.92.69-1.33 1.38-2.66 2.07-3.98.43-1.92.97-3.82 1.53-5.7.71-2.21 1.46-4.4 2.37-6.53 1.01-2.67 1.65-5.45 2.4-8.2.5-2.19 1.02-4.38 1.44-6.59.52-2.07.81-4.2 1.36-6.26.52-3.88 1.35-7.71 1.47-11.64.85-1.8.81-3.81.81-5.75-.05-7.34-.05-14.68 0-22.01-.01-1.92.03-3.91-.81-5.68-.31-4.69-1.01-9.35-1.82-13.96-.57-3.92-2.01-7.65-2.46-11.59-.82-2.43-1.58-4.87-2.4-7.29-.84-2.83-1.8-5.62-2.67-8.44-.66-2.23-1.53-4.38-2.24-6.58-.24-.5-.72-1.49-.96-1.99-2.46-5.46-5.63-10.53-8.25-15.9-.61-1-1.24-1.98-1.88-2.95-2.7-5.46-6.47-10.25-10.17-15.06-2.51-3.63-5.45-6.93-8.57-10.05-1.37-2.91-3.87-5-6.08-7.24-2.25-2.22-4.34-4.71-7.25-6.08-7.23-6.98-15.37-13.1-24.04-18.19-1.36-.79-2.69-1.63-4.04-2.43-5.1-2.46-10.14-5.06-15.03-7.91-.97-.32-1.93-.61-2.91-.87-.96-.48-1.92-.95-2.87-1.43-6.81-2.13-13.5-4.66-20.45-6.34-2.19-.5-4.37-1.02-6.57-1.45-1.61-.41-3.25-.69-4.88-.99-4.96-.85-9.95-1.67-14.99-1.79-2.08-1.02-4.44-.81-6.68-.84-5.03.05-10.07.05-15.1 0-2.26.03-4.63-.18-6.73.83M34.27 199.4c-3.39.77-4.88 4.7-3.28 7.69 12.35 32.63 24.63 65.3 37.07 97.9 1.41 4.84 8.73 5.61 11.38 1.5 1.42-2.3.1-4.98-.65-7.27-12.19-31.9-24.12-63.91-36.31-95.81-1.02-3.4-4.92-5.11-8.21-4.01m45.02 121.98c-2.68.78-4.59 3.82-3.44 6.53 3.08 8.89 6.13 17.85 9.76 26.53 2.22 4.17 9.41 3.71 11.1-.69.74-2.51-.59-5-1.33-7.35-2.84-7.28-5.18-14.75-8.16-21.97-1.27-3-5-4.07-7.93-3.05zm44.69-248.81c7.84-1.27 15.93-1.41 23.78-.27-1.35 1.12-2.7 2.9-4.68 2.68-6.41-.29-12.82-1.09-19.1-2.41z"/><path d="M218.92 124.31c6.05-.43 11.97-2.24 18.07-2.07 6.77.11 13.55-.12 20.32.14 2.7 1.18 5.75.59 8.52 1.49 3.97.32 7.77 1.49 11.59 2.54 1.3.36 2.63.64 3.96.93 5.26 1.63 10.33 3.78 15.44 5.81l.37.95 1.02-.31c4.85 2.46 9.98 4.41 14.36 7.7 6.44 3.59 11.99 8.5 17.53 13.31 3.74 2.81 7.56 5.82 9.96 9.91 5.04 5.45 9.72 11.29 13.46 17.72 2.1 2.95 3.67 6.23 5.63 9.28.93 1.87 1.78 3.81 2.28 5.85 2.19 4.9 4.26 9.85 5.87 14.97.47 1.66.82 3.36 1.28 5.03.35 1.01.73 2.01 1.12 3.02 1.56 7.71 3.43 15.51 3.04 23.43-.08 7.1.13 14.19-.11 21.28-1.17 2.69-.7 5.7-1.43 8.5-.65 3.6-1.69 7.11-2.56 10.66-.35.98-.69 1.97-1.01 2.96-1.46 5.86-4.07 11.35-6.26 16.96-.22.53-.65 1.6-.87 2.13-.75 1.62-1.5 3.23-2.31 4.82-1.77 2.64-3.17 5.51-4.94 8.16-3.36 5.23-6.94 10.34-11.24 14.85-1.6 2.84-4.14 4.96-6.38 7.28-2.32 2.26-4.42 4.82-7.27 6.43-4.37 3.83-8.89 7.54-13.8 10.67-1.38.75-2.71 1.6-4.08 2.39-3.75 2.58-7.79 4.7-12 6.42-5.45 1.85-10.61 4.44-16.11 6.16-1.34.28-2.68.57-3.99.94-3.26.78-6.45 1.81-9.74 2.42-.37.19-1.11.58-1.48.77-2.63.07-5.43-.41-7.86.87-3.15.13-6.3.06-9.44.23-3.37 1.28-7.36 1.32-10.72-.01-9.69.07-19.31-1.38-28.55-4.28-1.32-.37-2.66-.65-3.99-.91-5.65-2.21-11.29-4.45-17.01-6.51-5.31-2.35-10.14-5.63-15.17-8.5-4.91-3.1-9.44-6.81-13.8-10.63-2.83-1.64-4.94-4.18-7.26-6.43-2.26-2.3-4.75-4.44-6.45-7.21-4.08-5.12-8.5-10.04-11.58-15.87-2.51-3.92-4.83-7.96-7.05-12.05-1.95-4.99-3.92-9.98-5.55-15.08-.48-1.34-.92-2.68-1.39-4-.33-1.01-.68-2-1.05-2.98-.52-2.25-1.1-4.49-1.34-6.79-.18-.4-.55-1.21-.73-1.61-.08-.58-.25-1.75-.34-2.33-1.26-3.01-.08-6.46-1.55-9.41-.17-9.2-.2-18.41.01-27.61.91-2.11.78-4.43 1.09-6.65.66-4.23 1.84-8.35 2.95-12.47.37-1.3.65-2.63.94-3.95 1.8-5.46 3.82-10.84 6.12-16.11 2.07-4.86 4.45-9.57 7.41-13.95 2.15-4.88 5.77-8.9 9.12-12.99 1.93-2.97 4.88-5.13 6.61-8.25 2.16-2.35 4.26-4.89 7.1-6.44 5.03-4.45 10.05-9.04 15.78-12.59 1.37-.77 2.69-1.65 4.03-2.48 3.63-2.8 7.94-4.48 12.08-6.35 4.52-2.26 9.34-3.8 13.98-5.76 1.35-.46 2.7-.89 4.05-1.36 1.34-.31 2.68-.6 4-.99 1.89-.49 3.76-.99 5.67-1.39.41-.16 1.24-.49 1.65-.66m-72.16 50.31c-3.21 4.51-7.2 8.56-9.19 13.83-4.48 8.74-9.16 17.52-11.92 26.99-2.09 7.77-4.47 15.65-4.29 23.78-.32.38-.98 1.15-1.31 1.53 2.58 4.12 6.99 6.43 10.52 9.62 3.43 3.18 7.66 5.22 11.66 7.56 6.21 3.65 12.6 7.01 19.26 9.78 3.17 1.05 6.31 2.23 9.57 3 9.51 2.03 19.1 4.42 28.92 3.67 10.02.71 19.87-1.54 29.54-3.91 7.5-1.78 14.59-5.61 22.46-5.45 5.62.15 11.43-.65 16.85 1.23 14.24 4.36 27.33 11.92 39.34 20.61-3.14 10.42-6.62 20.74-10.29 30.97-5.58 17.51-10.87 35.12-17.18 52.38 5.59-.74 10.33-3.73 15.06-6.56 1.89-6.86 4.81-13.38 6.96-20.16 3.45-8.55 6.02-17.43 9.65-25.92 2.83-7.17 5.17-14.53 7.53-21.87 7.73-19.92 14.61-40.14 21.8-60.26 2.51-6.92 5.57-13.63 7.9-20.61 1.74-6.45 4.29-12.63 6.58-18.89-4.54-2.69-8.36-6.38-12.4-9.73-9.15-9.61-19.88-18.5-32.84-22.26-5.23-1.08-10.65-2.07-15.94-.8-15.07 1.53-27.3 11.52-41.63 15.51-12.2 3.12-24.66 6.16-37.36 5.33-12.78.92-25.25-2.82-37.18-6.96-8.02-3.61-16.66-7.51-21.75-15.05-4.14 3.61-6.99 8.34-10.32 12.64m-25.14 73.84c-.1 2.16-.12 4.32-.03 6.49.76 2.49 1.12 5.09 1.64 7.64.7 1.33 1.39 2.65 2.06 3.99 2.28 6.73 6.79 12.31 10.83 18.04 2.8 3.6 6.21 6.73 9.91 9.4 4.43 3.73 9.2 7.08 14.4 9.65 7.27 2.98 14.68 5.6 22.37 7.26 4.72.7 9.43 1.57 14.23 1.22 4.86-.36 9.96.83 14.66-.79 1.16-.13 2.32-.25 3.49-.37 3.25-1.17 6.75-.79 10.13-.66 1.34.48 2.73.78 4.11 1.11 1.35.46 2.72.9 4.07 1.38 4.14 1.39 8.64 2.4 11.81 5.64-.34 1.05-.71 2.09-1.09 3.13-.09.45-.26 1.37-.35 1.82-.56.98-1.1 1.97-1.65 2.96-.91 4.87-2.12 9.72-4.31 14.19-.92 3.7-1.93 7.38-3.32 10.94-.34.99-.64 1.99-.93 3-.49.99-.99 1.99-1.48 2.98-1.29 4.41-2.97 8.7-4.49 13.03-.25.69-.74 2.06-.99 2.75 1.71.2 3.46.36 5.06 1.08 2.45.09 4.9.11 7.35.16.57-1.35 1.12-2.71 1.73-4.04.1-.46.31-1.37.41-1.82.37-1.02.72-2.05 1.04-3.08 1.58-2.82 2.92-5.79 3.6-8.96.47-1.35.93-2.69 1.44-4.02.47-1.29.94-2.58 1.36-3.88.49-1.46.94-2.93 1.44-4.38.74-2.29 1.55-4.56 2.24-6.86.55-1.02 1.12-2.05 1.68-3.06.05-.45.14-1.35.18-1.8.55-1.02 1.09-2.05 1.64-3.07 1.11-3.71 2.38-7.38 3.89-10.95.72-1.65 1.35-3.33 1.99-5.01.8-2.82 1.62-5.63 2.48-8.43.44-1.25.92-2.49 1.4-3.73 1.72-4.27 3.24-8.62 4.78-12.97.35-.96.7-1.92 1.04-2.88.3-1.01.59-2.03.86-3.04.52-1 1.04-1.99 1.57-2.98.39-1.44.9-2.84 1.19-4.3-4.26-2.92-9.15-5.3-14.4-5.52-4.66-1.88-9.62.32-14.32.91-1.31.31-2.62.6-3.92.96-4.57 1.67-9.12 3.37-13.85 4.58-2.91.73-5.87 1.28-8.8 1.9-2.27.59-4.63.63-6.95.81-4.09 1.49-8.55.47-12.8.74-5.24-.3-10.66.75-15.78-.68-3.39-.34-6.73-1-10.02-1.84-4.76-.9-9.35-2.42-13.76-4.41-.5-.27-1.5-.81-2-1.09-.97-.3-1.94-.59-2.92-.86-5.06-2.68-10.28-5.03-15.21-7.95-6.68-4.18-12.92-8.98-18.71-14.33z"/></g><path fill="#fff" d="M108.47 17.61c3.36-1.35 6.7-2.88 10.28-3.58 41.75 0 83.51.1 125.26-.04 7.33.31 14.67.62 22.02.51h88.92c3.65-.01 7.28-.44 10.92-.56 4.27.08 8.61-.25 12.84.54 4.52 1.45 4.82 8.71.76 10.91-2.04.85-4.31.74-6.47.83-31.86-.15-63.72.07-95.58-.11-13.87-6.44-28.79-12.68-44.41-11.32-5.92 3.41-11.23 7.81-17.09 11.31-32.97.2-65.94-.02-98.91.11-2.43-.18-5.45.13-7.17-1.98-1.56-1.82-1.14-4.41-1.37-6.62zm113.98 29.95c5.1-1.98 9.36 5.22 6.44 9.3-2.13 2.59-5.24 4.09-7.92 6.03-54.81 37.23-109.62 74.46-164.41 111.72-2.74 1.75-5.25 4.1-8.49 4.88-3.85.14-6.61-4.06-5.88-7.64.26-2.18 2.18-3.54 3.8-4.75 54.63-37.06 109.21-74.2 163.82-111.28 4.26-2.69 8.14-6 12.64-8.26zM34.27 199.4c3.29-1.1 7.19.61 8.21 4.01 12.19 31.9 24.12 63.91 36.31 95.81.75 2.29 2.07 4.97.65 7.27-2.65 4.11-9.97 3.34-11.38-1.5-12.44-32.6-24.72-65.27-37.07-97.9-1.6-2.99-.11-6.92 3.28-7.69zm45.02 121.98c2.93-1.02 6.66.05 7.93 3.05 2.98 7.22 5.32 14.69 8.16 21.97.74 2.35 2.07 4.84 1.33 7.35-1.69 4.4-8.88 4.86-11.1.69-3.63-8.68-6.68-17.64-9.76-26.53-1.15-2.71.76-5.75 3.44-6.53z"/><path fill="#cd9e52" d="M103.91 48c2.72-5.03 8.61-7.16 14.08-6.85 25.17.12 50.34-.13 75.5.15-14.88 10.82-30.63 20.44-45.35 31.46l-.38-.46c-7.85-1.14-15.94-1-23.78.27-6.82-.73-13.32-3.32-19.77-5.54l-.09-.27c-2.16-5.96-3.84-13-.21-18.76zm198.85-6.69c24.09-.33 48.19.02 72.29-.19 4.14.02 8.68.02 12.19 2.57 8.24 5.75 8.21 19.76-.01 25.51-3.24 2.35-7.39 2.55-11.24 2.55-7.66-.06-15.32-.02-22.98-.14-3-.08-6 .34-8.88 1.16-13.32-11.08-27.11-21.62-41.37-31.46zM18.11 228.7c10.38 30.03 20.8 60.04 31.2 90.06 4.52 12.24 7.83 24.89 10.59 37.63-5.46-15.41-10.71-30.9-16.1-46.34-9.06-26.94-19.78-53.47-25.69-81.35zm444.11 16.38c1.93-5.6 4.26-11.05 6.74-16.42-10.61 47.77-30.4 92.75-46.9 138.63 3.99-20.01 11.48-39.04 18.03-58.3 7.37-21.31 14.76-42.6 22.13-63.91zm-53.37 164.58c-3.9 15.47-8.22 31.11-16.07 45.11-3.93 6.8-9.04 13.15-15.8 17.3-4.93 3.07-10.66 4.39-16.25 5.69-14.33 3.21-29.08 3.66-43.71 3.53-25.42.13-50.71-2.69-76.03-4.5-13.29-.94-26.64-1.77-39.96-1.06-24.65 1.47-49.39 4.89-74.08 2.32-5.35-.53-10.59-1.79-15.78-3.15 2.03-1.56 5.11-2.81 5.02-5.86.62-7.2.05-14.45-.04-21.67 21.44 3.52 43.3 1.94 64.84.27 15.99-1.34 31.93-3.23 47.95-4.21 11.66-.69 23.31.45 34.94 1.17-1.97 2.4-5.13 5.39-3.2 8.75 2.77 4.44 7.05 7.65 10.42 11.62 3.8 3.84 6.8 8.52 11.17 11.76 4.69 2.81 10.07-3.46 7.97-7.97-1.07-2.17-2.72-3.96-4.29-5.76-5.52-6.16-11.3-12.09-17.12-17.97 26.96 2.51 54.03 5.41 81.14 4.03 11.72-.91 23.79-2.33 34.46-7.59 12.17-6.7 19-19.56 24.42-31.81m-167.47 34.69c-3.33.9-5.67 4.56-4.85 7.95.67 2.4 2.38 4.32 3.87 6.26 3.47 4.23 6.76 8.6 10.08 12.95 1.43 1.71 3.01 3.98 5.55 3.77 4.74-.17 7.56-6.43 4.85-10.22-3.96-5.63-8.52-10.82-12.57-16.39-1.7-2.11-3.76-5.21-6.93-4.32zM80.92 421.81c5.42 10.9 14.36 20.86 26.76 23.41-1.5 1.29-3.31 2.68-3.32 4.86-.55 7.34-.22 14.73.28 22.08-4.92-2.88-9.19-6.91-11.63-12.13-5.96-12.02-9.2-25.18-12.09-38.22z"/><path fill="#ff2600" d="M146.76 174.62c3.33-4.3 6.18-9.03 10.32-12.64 5.09 7.54 13.73 11.44 21.75 15.05 11.93 4.14 24.4 7.88 37.18 6.96 12.7.83 25.16-2.21 37.36-5.33 14.33-3.99 26.56-13.98 41.63-15.51 5.29-1.27 10.71-.28 15.94.8 12.96 3.76 23.69 12.65 32.84 22.26 4.04 3.35 7.86 7.04 12.4 9.73-2.29 6.26-4.84 12.44-6.58 18.89-2.33 6.98-5.39 13.69-7.9 20.61-7.19 20.12-14.07 40.34-21.8 60.26-2.36 7.34-4.7 14.7-7.53 21.87-3.63 8.49-6.2 17.37-9.65 25.92-2.15 6.78-5.07 13.3-6.96 20.16-4.73 2.83-9.47 5.82-15.06 6.56 6.31-17.26 11.6-34.87 17.18-52.38 3.67-10.23 7.15-20.55 10.29-30.97-12.01-8.69-25.1-16.25-39.34-20.61-5.42-1.88-11.23-1.08-16.85-1.23-7.87-.16-14.96 3.67-22.46 5.45-9.67 2.37-19.52 4.62-29.54 3.91-9.82.75-19.41-1.64-28.92-3.67-3.26-.77-6.4-1.95-9.57-3-6.66-2.77-13.05-6.13-19.26-9.78-4-2.34-8.23-4.38-11.66-7.56-3.53-3.19-7.94-5.5-10.52-9.62.33-.38.99-1.15 1.31-1.53-.18-8.13 2.2-16.01 4.29-23.78 2.76-9.47 7.44-18.25 11.92-26.99 1.99-5.27 5.98-9.32 9.19-13.83z"/></svg>