<svg xmlns="http://www.w3.org/2000/svg" width="128pt" height="128pt" viewBox="0 0 128 128"><path fill="#010000" d="M22.6 0h82.68c.86 3.26.93 6.69.57 10.03.17 1.65-1.56 2.13-2.6 2.92 0 36.68-.04 73.37.02 110.06-.02 1.69-.36 3.35-.75 4.99h-2.14c-.35-.43-1.04-1.28-1.39-1.7.22-37.94.04-75.88.09-113.82-1.35-.01-2.69-.01-4.04-.02.08 36.52-.01 73.04.05 109.56-.01 1.38-.08 2.76-.2 4.13-.2.46-.58 1.39-.77 1.85H34.26l-1.39-1.71c.27-37.92-.25-75.85.27-113.77-1.41-.01-2.83-.03-4.24-.05-.06 37.89.2 75.8-.13 113.69-.17.46-.52 1.38-.69 1.84h-2.47c-1.42-3.5-.75-7.34-.85-11 0-34.69.01-69.37-.01-104.06-.57-.38-1.72-1.15-2.3-1.53-.9-3.74-.44-7.66.15-11.41m3.63 4.21c-.01 1.35-.02 2.69-.02 4.03 25.19.01 50.39.01 75.58 0 0-1.34-.01-2.68-.02-4.03-25.18.01-50.36.02-75.54 0m10.93 8.2c.04 4.11.04 8.22.01 12.33 8.25.03 16.49.03 24.74 0-.04-4.11-.04-8.22.01-12.33-8.25-.03-16.51-.03-24.76 0m28.92 0c.04 4.11.05 8.22.01 12.33 8.25.03 16.49.03 24.74 0-.03-4.11-.04-8.22.01-12.33-8.25-.03-16.51-.03-24.76 0M37.26 28.92c-.02 2.27-.02 4.55-.05 6.82 17.86.01 35.72.01 53.58 0-.03-2.27-.03-4.55-.05-6.82-17.83-.01-35.65-.01-53.48 0m-.05 10.95c-.03 16.08-.03 32.17 0 48.25 17.86.01 35.72.01 53.58 0 .03-16.08.03-32.17 0-48.25l-6.18.03c-13.74.03-27.48.03-41.22 0-2.06-.02-4.12-.02-6.18-.03m.01 52.39c.03 4.55.02 9.1.02 13.65 5.01-.01 10.01-.04 15.02.03 1.41-5.67 6.82-10.32 12.84-9.56 5.27.35 9.35 4.7 10.67 9.61 4.99-.17 9.99-.07 14.99-.08 0-4.55-.01-9.1.02-13.65-17.85-.01-35.71-.01-53.56 0m23.13 9.17c-5.11 2.51-5.14 10.65-.05 13.2 4.72 2.94 11.52-1.03 11.26-6.58.26-5.51-6.5-9.55-11.21-6.62m-23.12 8.77c.01 4.53.01 9.06 0 13.58 17.85 0 35.69 0 53.54.01-.01-4.53-.01-9.06 0-13.59-5.02-.01-10.04-.01-15.07-.01-1.33 5.27-6.04 9.7-11.66 9.57-5.64.16-10.41-4.27-11.74-9.57-5.03.01-10.05 0-15.07.01z"/><path fill="#010000" d="M41.27 53c.17-3.32-.94-7.35 2.05-9.77.91 1.08 2.33 2.05 2.14 3.67.1 7.88-.02 15.77.01 23.65 12.34-4.99 24.7-9.91 37.06-14.84.46-4.14-1.59-9.45 2.15-12.48.82 1.15 2.15 2.18 1.99 3.76.06 3.77.39 7.61-.31 11.33-2.13 1.41-4.59 2.18-6.94 3.14-11.43 4.5-22.8 9.14-34.22 13.66-1.32.72-3.69.85-3.76-1.19-.44-6.96.02-13.95-.17-20.93z"/><path fill="#f67e42" d="M26.23 4.21c25.18.02 50.36.01 75.54 0 .01 1.35.02 2.69.02 4.03-25.19.01-50.39.01-75.58 0 0-1.34.01-2.68.02-4.03zm2.67 8.26c1.41.02 2.83.04 4.24.05-.52 37.92 0 75.85-.27 113.77-1.37-.05-2.73-.09-4.1-.13.33-37.89.07-75.8.13-113.69zm66.14-.01c1.35.01 2.69.01 4.04.02-.05 37.94.13 75.88-.09 113.82-1.37-.06-2.74-.1-4.1-.15.12-1.37.19-2.75.2-4.13-.06-36.52.03-73.04-.05-109.56zm-57.82 79.8c17.85-.01 35.71-.01 53.56 0-.03 4.55-.02 9.1-.02 13.65-5 .01-10-.09-14.99.08-1.32-4.91-5.4-9.26-10.67-9.61-6.02-.76-11.43 3.89-12.84 9.56-5.01-.07-10.01-.04-15.02-.03 0-4.55.01-9.1-.02-13.65z"/><path fill="#f55200" d="M37.26 28.92c17.83-.01 35.65-.01 53.48 0 .02 2.27.02 4.55.05 6.82-17.86.01-35.72.01-53.58 0 .03-2.27.03-4.55.05-6.82zm-.03 81.28c5.02-.01 10.04 0 15.07-.01 1.33 5.3 6.1 9.73 11.74 9.57 5.62.13 10.33-4.3 11.66-9.57 5.03 0 10.05 0 15.07.01-.01 4.53-.01 9.06 0 13.59-17.85-.01-35.69-.01-53.54-.01.01-4.52.01-9.05 0-13.58z"/><path fill="#ded8cc" d="M43.39 39.9c13.74.03 27.48.03 41.22 0 .02 1.11.04 2.22.07 3.33-3.74 3.03-1.69 8.34-2.15 12.48-12.36 4.93-24.72 9.85-37.06 14.84-.03-7.88.09-15.77-.01-23.65.19-1.62-1.23-2.59-2.14-3.67.03-1.11.05-2.22.07-3.33z"/></svg>