<svg clip-rule="evenodd" fill-rule="evenodd" stroke-linejoin="round" stroke-miterlimit="2" viewBox="0 0 128 125" xmlns="http://www.w3.org/2000/svg"><g fill-rule="nonzero"><g fill="#872c29"><path d="m52.7 3.573c9.01-4.85 19.48-3.37 29.29-3.33 12.06 2.42 24.69 7.12 32.52 17.1 2.7 4.99 3.68 11.46.8 16.6-2.85 4.89-6.55 9.93-12.27 11.53 1.45 2.69.52 5.54.22 8.36.4 1.47 1.05 2.84 1.64 4.24-1.1 4.44-2.36 8.98-5.84 12.19-1.49 2.23-5.57.35-6.27 3.36-1.06 3.45-1.69 7.03-2.76 10.48 2.73 1.45 5.04 3.52 6.99 5.9-1.71-.04-3.42-.04-5.13.03-.13-2.47-3.23-2.15-3.7-.03-5.7-.84-11.32.63-16.99.73-4.37-.76-7.62-4.23-11.57-6.04 4.68 3.13 8.73 8.12 14.63 8.74-.03.15-.08.46-.11.61-1.74 1.29-3.51 2.55-5.12 4-3.57-4.76-7.95-8.84-12.19-12.98-3.2-2.97-6.94 1.97-7.82 4.92-1.843.671-3.767.794-5.8.19-1.81.95-3.16 2.54-4.68 3.88-.14-.76-.43-2.3-.57-3.07.52-.29 1.58-.89 2.1-1.19-9.33.25-18.65.03-27.98.19.13-5.36 1.95-10.42 3.87-15.36-3.34.84-7.47.49-9.9 3.35-2.72 2.99-5.42 6.34-6.06 10.46v-33.88c2.87-3.11 7.11-5.92 7.05-10.65-.26-5.46-.66-12.17 4.05-16 3.14-3.68 8.31-3.95 12.5-5.79.14-2.65-.44-5.52.68-8.01 1.6-1.47 4.7-1.72 5.95.33 2.82 5.01 3.29 10.84 4.56 16.34.78 3.87 5.42 6.69 3.78 11.02-2.57 5.16-7.71 8.46-12.63 11.13-2.9 1.41-4.34 4.44-6.07 6.98 1.04 6.65-1.79 12.93-3.46 19.21-.28 1.9-1.38 4.4.25 5.96 5.27 3.15 11.55 1.86 17.34 2.06 4.07 0 8.5 1.01 12.25-1.06 2.45-1.75 4.05-4.4 6.13-6.53-2.37-5.24-3.08-11.06-5.79-16.14-.95-3.48-.5-7.2-.26-10.75.17-2.78 2.37-4.77 3.84-6.95.18-2.98.35-5.96.52-8.94-2.33-1.83-5.16-3.46-6.24-6.39-2.06-5.64-2.75-12.04-.68-17.78 1.54-4.14 5.34-6.77 8.93-9.02m1.93 7.91c-7.44 3.87-8.91 14.88-4.44 21.4-.09.75.553 1.218.38 2.19-1.147-3.264-.858-.722-.38-2.19 1 .12 3.617-2.725 4.551-2.486l-1.401 2.446c3.04-1.93 6.55-2.81 10.08-3.2 8.44-.8 17.01.39 25.11 2.78 4.52 1.23 8.28 4.14 12.38 6.28l-.79.35c.7-.18 2.11-.54 2.81-.71-.27 1.89.3 2.68 1.73 2.37l-.72 2.83c3.51-.28 5.8-3.44 7.76-6.03 3.7-6.3.42-14.3-4.36-19.05-8.53-7.58-20.32-9.95-31.4-10.44-7.18-.01-14.83-.04-21.31 3.46m-30.35 5.45c-.34 1.81.59 4.06-.56 5.59-3.06 1.89-6.82 2.26-9.99 3.95-1.59 1.5-3.1 3.08-4.76 4.51-.79 3.6-2 7.23-1.24 10.96.83 5-2.64 9.34-6.51 12.02.66 6.21.89 12.65 3.15 18.55 2.23 1.06 4.93 1.04 7.39 1.11 2.77.01 3.93-2.77 5.27-4.7a18.29 18.29 0 0 0 1.88-8.48c-3.33 2.56-5.44 6.25-8.02 9.48-2.53-2.64-4.96-5.8-5.34-9.55 1.49 2.14 2.82 4.4 4.61 6.32 2.07-4.3-1.09-9.63 2.33-13.64-3.3-4.31-2.97-9.92-3.51-15.03 2.54 1.45 3.24 4.89 6.01 5.92.39-.5 1.18-1.5 1.57-2l-.81-1.41c2.69 2.15 6.05 4.33 6.27 8.14-1.49-.01-3.24.84-4.59-.11-1.9-1.58-3.3-3.88-5.87-4.44.98 2.7 1.84 6.12 4.75 7.38 3.57.54 7.28-.37 10.57-1.74 1.68-2.8 2.74-6.52 6.47-7.16-.56-.32-1.68-.94-2.24-1.25-.13-2.36-.26-4.71-.47-7.05-2.9 3.06.67 8.54-3.5 10.84-1.14-1.99-2.3-3.97-3.5-5.93.55 2.59 1.1 5.18 1.43 7.81-2.9-.22-4.16-3.33-5.75-5.36.07-1.39.48-2.74.74-4.11.58-.11 1.73-.35 2.31-.47-.34-.56-1.01-1.69-1.35-2.25.47-.33 1.42-.98 1.89-1.31.57.82 1.14 1.65 1.71 2.47.33-.63.99-1.9 1.33-2.54 1.58 1.24 3.55.65 3.14-1.6-1.4-4.59-1.89-9.38-3.23-13.99.28-.42.84-1.28 1.12-1.71 3.35.95 4.11 1.13 2.42-1.67-1.74-2.23-5.69-.25-5.12 2.45m8.1 5.01s-.04 11.82.45 16.7c.56-.23 1.67-.68 2.22-.91.86 1.21 1.72 2.41 2.61 3.59 1.66-3.04-1.34-5.67-2.81-8.05-1.31-3.65-1.61-7.57-2.47-11.33zm25.89 10.54c1.73.03 3.49-.17 5.1-.86l.83 1.74c4.01.98 8.26 0 12.32.91l-.07-2.58c3.56.83 6.85 2.63 10.52 3.02 1.35.35 2.54 1.02 3.55 2.01-.64-1.05-1.32-2.29-2.66-2.5-3.19-1.14-6.41-2.11-9.81-2.32-1.3-.07-4.89-2.39-3.37 1.06-2.9-.09-5.79-.07-8.68.15-1.45-3.06-5.47-2.13-7.73-.63m-1.59 2.45c1.42 1.76 2.65 3.76 4.51 5.11-2.52.49-3.62-1.14-3.94-3.4-1.14.87-2.27 1.74-3.4 2.61-.7-1.03-1.42-2.06-2.16-3.07-.73 3.14-.56 6.39-.65 9.59-.89 1.11-1.79 2.22-2.67 3.33 3.68.12 2.77 4.78.8 6.56-.24-1.6-.28-3.34-1.31-4.67-.22.05-.66.17-.88.23-.25 3.52-.41 7.05-.19 10.57.2 2.35 2.21 4.02 2.68 6.28.85 4.68 2.58 9.16 4.73 13.38.19-1.7.28-3.42.39-5.12 3.49.74 4.44 4.54 5.77 7.33 1.71.84 3.56 1.18 5.42.65-1.43-1.79-3.4-3.3-4.1-5.56 1.89-1.22 4.23-1.74 5.72-3.55.91-1.31 2.58-.76 3.91-.9.66 3.06 3.51 4.49 6.47 4.02-.23.63-.7 1.89-.93 2.52 2.25 1.52 4.55 2.98 6.57 4.81-.43.68-1.29 2.06-1.72 2.74 2.97.59 5.4-1.55 7.54-3.29.96-4.04 1.81-8.12 3.01-12.09.74-2.48 3.57-1.83 5.49-2.33 1.12-1.09 2-2.4 2.99-3.61l-2.67-.3c1.95-.6 4.35-.97 4.45-3.52l-1.34.95c-1.05-1.88-.55-4-.55-6.01-.45.21-1.35.64-1.8.85-.23-.55-.7-1.66-.93-2.22 1.86-2.87 5.97-.83 6.36 2.39l-1.01-3.81c-1.55-2.86-4.72.34-6.99-.51-1.97-3.68-.21-9.27-4.96-11.06-.08.7-.22 2.09-.3 2.78-1.91-.31-3.24.81-3.61 2.58-.21-.12-.61-.36-.81-.48.1-.64.29-1.93.38-2.57.162-.064-2.932-.126-1.172-2.993.223-.363 2.292 1.553 2.292 1.553.52-1.32 1.04-2.64 1.54-3.96 1.19.37 2.37.73 3.56 1.09 2.67-.87 5.42-.23 8.1.22-.89-1.09-1.63-2.65-3.28-2.61-7.71-1.43-15.09-4.63-23.03-4.77-5.08-.776-10.16-.11-15.245.16a68.35 68.35 0 0 1 -3.035.1m43.84 11.08c.76 1.05 1.19 3.25 2.73 3.24.5-1.61-.75-3.27-1.83-4.36-.97-.31-1.26.06-.9 1.12m-33.01 32.76c.09 3.66 5.01 3.55 6 .44-2-.18-4-.32-6-.44z"/><path d="m73.07 19.913c2.45-1.89 6.91-1.5 8.09 1.7.94 1.82-.37 3.65-.97 5.34.51.29 1.53.86 2.05 1.15l-4.17-.21c-.33-.07-1-.22-1.34-.29 1.73-1.53 4.3-3.06 3.84-5.79-1.66-2.57-6.31-3.11-7.72-.03-1.39 2.11.77 4.08 1.94 5.66-6.16.19-12.39-.12-18.44 1.3 4.7-2.66 10.22-1.98 15.4-2.1.01-2.27-.6-5 1.32-6.73z"/><path d="m74.27 21.913c.8-.42 1.61-.85 2.41-1.28.75.67 1.49 1.34 2.24 2l-1.15 2.07c-1 .02-2 .05-2.99.08-.16-.96-.33-1.91-.51-2.87zm-8.17 14.77c4.66.48 9.28 1.29 13.94 1.79-1.16 1.14-2.31 2.28-3.46 3.42 3.57.15 7.77-.79 10.58 2.03-2.02-1.17-2.38 1.04-.83 1.93-3.46-.82-7-1.26-10.47-2.05.12 1.25.24 2.51.37 3.76 3.07-.3 6.5-1.43 9.24.58-1.58-.07-3.17-.1-4.75-.06 1.89 1.13 4.06 1.58 6.24 1.8-5.42 3.45-11.16-1.44-14.82-5.26l1.05-3.37c-2.95-.68-3.12 2.47-4.31 4.28-2.35 1.65-5.24 2.14-7.97 2.79-.95-.88-1.89-1.75-2.84-2.62 1.93.06 3.86 0 5.75-.38.46.45.92.91 1.37 1.37 1.61-.86 3.07-1.98 4.11-3.51-3.58-.65-7.3-1.22-10.84-.03.84.31 2.54.92 3.38 1.22-.94.16-1.88.33-2.82.52-.23-.57-.7-1.69-.93-2.25 2.17-.8 4.46-1.19 6.76-1.36-.2-.28-.6-.83-.79-1.11 1.45-.06 2.9-.14 4.35-.23-.77-1.09-1.54-2.17-2.31-3.26z"/><path d="m73.46 48.813c2.92-1.68.3 3.32 0 0zm-18.14 10.65c1.88-4.33 5.71-7.75 9.94-9.8.39 1.56.12 3.32-1.36 4.2-2.77 2.01-5.65 3.85-8.58 5.6zm18.47-7.62c.57-.37 1.71-1.13 2.27-1.5 3.81 1.57 5.51 5.62 7.96 8.65 1.72 2.01 1.93 4.89 1.42 7.39-1.02 2.27-3.71 3.01-5.54 4.47-.03-1.23-.22-2.43-.55-3.61.99-.49 1.97-1 2.95-1.53.83-1.16-.23-3.32-.79-4.59-1.58.04-1.08 2.94-.65 3.98-1.62-.61-3.18-1.37-4.65-2.28-.5-2.44-1.31-4.8-2.36-7.05l-.06-.13c-.05.1-.14.28-.18.37-.7.83-1.42 1.65-2.14 2.46 0 .46 0 1.4.01 1.87.53.08 1.58.25 2.11.33.45.43 1.35 1.28 1.8 1.7-5.52-.17-11.18.8-16.46-1.36-.05.48-.17 1.44-.22 1.92 6.49 1.12 13.36 1.06 19.47 3.77-2.85-.27-5.63-.94-8.42-1.5 1.29 1.36 2.72 2.59 4.2 3.75-1.02.89-1.71 2.54-3.21 2.67-1.74-.1-3.42-.63-5.12-.96-.02-.76-.05-2.28-.06-3.04 1.42-.65 3.34-.68 3.94-2.41-3.88-.51-7.92-2.1-11.68-.22-1.32-.8-.32-2.53-.19-3.67.75-3.21 4.47-4.22 7.1-5.51-.02 2.52-5.14 2.9-2.9 5.32 1.49-1.59 3.11-3.07 4.94-4.27l-1.32 4.28c2.81-.6 3.13-2.9 2.97-5.31-.75-.24-2.25-.73-3-.98.29-.46.87-1.39 1.16-1.85 1.27 1.4 2.55 1.46 3.7-.09.33.19.98.57 1.3.76 1.61-.24 3.24-.37 4.86-.54-.67-.32-2-.97-2.66-1.29m3.55 7.31c-.11 1.47.49 2.17 1.81 2.08.12-1.46-.49-2.15-1.81-2.08zm19.49 5.62c0-2 .3-3.97.81-5.9 1.14 1.8 2.29 3.59 3.53 5.33-1.43.29-2.9.35-4.34.57zm-33.89 43.68c1.59-2.4 3.53-4.53 5.49-6.62.78.89 1.55 1.79 2.37 2.65.52.03 1.57.08 2.09.11l1.26.07c.01 1.81.05 3.62.1 5.43-2.64-.26-8.79-.15-9.27.59-1.12-.48-1.8-1.23-2.04-2.23zm-48.66-5.59c2.61-.44 1.82 2.35 1.72 3.97-.13 1.27-.44 2.64-1.69 3.25-.1-2.41-.07-4.82-.03-7.22zm72.92.23c1.63-.59 2.19-.07 1.67 1.58-1.63.59-2.18.06-1.67-1.58zm25.37.11c.3.39 1.49-.063 1.79.337 0 0 .441 8.742-2.959 6.972-.18-2.17.619-5.229 1.169-7.309zm14.51 1.89.92.21v2.25l-.85.22c-.01-.67-.05-2.01-.07-2.68zm-41.36 17.49c1.17-1.52 1.83-3.35 2.65-5.07 1.01 1.84 1.14 4.96 3.67 5.41 4.17.51 8.38-.07 12.56.23.29.43.85 1.28 1.14 1.71l-42.944.001c1.16-.71 4.654-1.85 6.154-1.67 5.58-.24 11.28.62 16.77-.61z"/><path d="m32.04 122.923c9.99.69 31.79-.29 41.8.13 1.16.06-9.7.76-9.03 1.81h-31.29c-.37-.49-1.11-1.46-1.48-1.94zm77.74.29c4.07-.16 8.13-.04 12.2.02-.09.41-.27 1.22-.37 1.63h-12.86c.26-.41.78-1.24 1.03-1.65z"/></g><path d="m54.63 11.483c6.48-3.5 14.13-3.47 21.31-3.46 11.08.49 22.87 2.86 31.4 10.44 4.78 4.75 8.06 12.75 4.36 19.05-1.96 2.59-4.25 5.75-7.76 6.03l.72-2.83c.51-1.38.33-2.64-.56-3.76-.29.35-.88 1.04-1.17 1.39-.7.17-2.11.53-2.81.71l.79-.35 1.44-.62c-6.49-6.4-15.59-8.67-24.28-10.19l4.17.21c7.34 1.16 14.36 4.1 20.02 8.97 2.81-3.64-.4-7.88-2.75-10.82-6.51-6.81-16.36-9.15-25.5-9.25-5.79-.05-12.2.19-16.98 3.89-2.79 2.11-3.33 5.74-3.88 8.94.71-.23 2.13-.71 2.85-.95-.58.4-.435 1.153-1.553 1.701-.698.342-.408 1.105-1.773 1.83-1.176.623-2.177.916-2.484.47-4.47-6.52-3-17.53 4.44-21.4zm-27.49 33.66c4.17-2.3.6-7.78 3.5-10.84.21 2.34.34 4.69.47 7.05.56.31 1.68.93 2.24 1.25-3.73.64-4.79 4.36-6.47 7.16-3.29 1.37-7 2.28-10.57 1.74-2.91-1.26-3.77-4.68-4.75-7.38 2.57.56 3.97 2.86 5.87 4.44 1.35.95 3.1.1 4.59.11-.22-3.81-3.58-5.99-6.27-8.14-.44-.71-.55-1.48-.34-2.32 1.29.59 2.41 1.47 3.55 2.29.28-.74.82-2.21 1.1-2.95-.26 1.37-.67 2.72-.74 4.11 1.59 2.03 2.85 5.14 5.75 5.36-.33-2.63-.88-5.22-1.43-7.81 1.2 1.96 2.36 3.94 3.5 5.93z" fill="#230e0d"/><path d="m56.68 34.933c6.1-.05 12.19-1.19 18.28-.26 7.94.14 15.32 3.34 23.03 4.77 1.65-.04 2.39 1.52 3.28 2.61-2.68-.45-5.43-1.09-8.1-.22-1.19-.36-2.37-.72-3.56-1.09-.5 1.32-1.02 2.64-1.54 3.96l-.91-.78c-2.81-2.82-7.01-1.88-10.58-2.03 1.15-1.14 2.3-2.28 3.46-3.42-4.66-.5-9.28-1.31-13.94-1.79.77 1.09 1.54 2.17 2.31 3.26-1.45.09-2.9.17-4.35.23-.72-.03-2.15-.1-2.87-.13-1.86-1.35-3.09-3.35-4.51-5.11zm1.78 8.22c3.54-1.19 7.26-.62 10.84.03-1.04 1.53-2.5 2.65-4.11 3.51-.45-.46-.91-.92-1.37-1.37-.49-.24-1.48-.71-1.98-.95-.84-.3-2.54-.91-3.38-1.22zm17.4.65c3.47.79 7.01 1.23 10.47 2.05l.62.29c-.09.64-.28 1.93-.38 2.57l-1.1-.57c-2.74-2.01-6.17-.88-9.24-.58-.13-1.25-.25-2.51-.37-3.76zm-2.25 12.21c.04-.09.13-.27.18-.37l.06.13zm-62.72 13.91c2.58-3.23 4.69-6.92 8.02-9.48.07 2.94-.59 5.85-1.88 8.48-1.23 1.19-2.58 2.26-3.94 3.29-.74-.76-1.47-1.52-2.2-2.29zm48.04-8.91c5.28 2.16 10.94 1.19 16.46 1.36l.82.45c1.47.91 3.03 1.67 4.65 2.28.36.15 1.08.46 1.44.61-.98.53-1.96 1.04-2.95 1.53l-1.17-.54c-6.11-2.71-12.98-2.65-19.47-3.77.05-.48.17-1.44.22-1.92zm-52.87 16.96c2.43-2.86 6.56-2.51 9.9-3.35-1.92 4.94-3.74 10-3.87 15.36-3.36.6-8.62-1.39-10.27 2.66-.89 2.62-.53 5.45-.58 8.17.22 6.01-.16 12.02.13 18.02-.12 1.96 1.6 3.8 3.58 3.74 9.02.36 18.07-.37 27.09.35.37.48 1.11 1.45 1.48 1.94h-33.52v-36.43c.64-4.12 3.34-7.47 6.06-10.46zm61.45.8c2 .12 4 .26 6 .44-.99 3.11-5.91 3.22-6-.44zm1.52 19.27c1.61-1.45 3.38-2.71 5.12-4-.01 1.52.01 3.04.04 4.56-1.9.69-3.11 2.22-3.21 4.26.48.43 1.43 1.29 1.91 1.73-.52-.03-1.57-.08-2.09-.11-.82-.86-1.59-1.76-2.37-2.65-1.96 2.09-3.9 4.22-5.49 6.62-.02-.94-.05-2.83-.06-3.78l3.08-3.77c1.03-.95 2.04-1.91 3.07-2.86zm58.12 9.73.85-.22v17.31h-6.39c.1-.41.28-1.22.37-1.63 1.6-.73 3.69-1.23 4.16-3.2.95-4.01.35-8.21 1.01-12.26z" fill="#230e0d"/><g fill="#fefdfd"><path d="m24.28 16.933c-.57-2.7 3.38-4.68 5.12-2.45 1.126 1.865 2.185 3.715 2.676 5.81.246 1.05.845 2.125.245 3.367-1.797.692-1.592-.073-1.992-1.567-.661-2.474-1.281-5.045-3.349-5.94-.28.43-.84 1.29-1.12 1.71 1.34 4.61 1.83 9.4 3.23 13.99.41 2.25-1.56 2.84-3.14 1.6-.34.64-1 1.91-1.33 2.54-.57-.82-1.14-1.65-1.71-2.47-.47.33-1.42.98-1.89 1.31.34.56 1.01 1.69 1.35 2.25-.58.12-1.73.36-2.31.47-.28.74-.82 2.21-1.1 2.95-1.14-.82-2.26-1.7-3.55-2.29-.21.84-.1 1.61.34 2.32l.81 1.41c-.39.5-1.18 1.5-1.57 2-2.77-1.03-3.47-4.47-6.01-5.92.54 5.11.21 10.72 3.51 15.03-3.42 4.01-.26 9.34-2.33 13.64-1.79-1.92-3.12-4.18-4.61-6.32.38 3.75 2.81 6.91 5.34 9.55.73.77 1.46 1.53 2.2 2.29 1.36-1.03 2.71-2.1 3.94-3.29-1.34 1.93-2.5 4.71-5.27 4.7-2.46-.07-5.16-.05-7.39-1.11-2.26-5.9-2.49-12.34-3.15-18.55 3.87-2.68 7.34-7.02 6.51-12.02-.76-3.73.45-7.36 1.24-10.96 1.66-1.43 3.17-3.01 4.76-4.51 3.17-1.69 6.93-2.06 9.99-3.95 1.15-1.53.22-3.78.56-5.59zm48.57 4.85c1.41-3.08 6.06-2.54 7.72.03.46 2.73-2.11 4.26-3.84 5.79.34.07 1.01.22 1.34.29 8.69 1.52 17.79 3.79 24.28 10.19l-1.44.62c-4.1-2.14-7.86-5.05-12.38-6.28-8.1-2.39-16.67-3.58-25.11-2.78-3.53.39-7.04 1.27-10.08 3.2 0 0 1.051-2.48 1.553-2.942.606-.559 1.457-1.158 1.457-1.158 6.05-1.42 12.28-1.11 18.44-1.3-1.17-1.58-3.33-3.55-1.94-5.66m1.42.13c.18.96.35 1.91.51 2.87.99-.03 1.99-.06 2.99-.08l1.15-2.07c-.75-.66-1.49-1.33-2.24-2-.8.43-1.61.86-2.41 1.28z"/><path d="m31.508 22.686.872-.743c-.125-2.268 1.16 7.68 2.47 11.33 1.47 2.38 4.47 5.01 2.81 8.05-.89-1.18-1.75-2.38-2.61-3.59-.55.23-1.66.68-2.22.91-.49-4.88-4.795-23.494-1.322-15.957zm26.762 9.797c2.26-1.5 6.28-2.43 7.73.63 2.89-.22 5.78-.24 8.68-.15-1.52-3.45 2.07-1.13 3.37-1.06 3.4.21 6.62 1.18 9.81 2.32 1.34.21 2.02 1.45 2.66 2.5a7.793 7.793 0 0 0 -3.55-2.01c-3.67-.39-6.96-2.19-10.52-3.02l.07 2.58c-4.06-.91-8.31.07-12.32-.91l-.83-1.74c-1.61.69-3.37.89-5.1.86zm-7.23 13.29c.09-3.2-.08-6.45.65-9.59.74 1.01 1.46 2.04 2.16 3.07 1.13-.87 2.26-1.74 3.4-2.61.32 2.26 1.42 3.89 3.94 3.4.72.03 2.15.1 2.87.13.19.28.59.83.79 1.11-2.3.17-4.59.56-6.76 1.36.23.56.7 1.68.93 2.25.94-.19 1.88-.36 2.82-.52.5.24 1.49.71 1.98.95-1.89.38-3.82.44-5.75.38.95.87 1.89 1.74 2.84 2.62 2.73-.65 5.62-1.14 7.97-2.79 1.19-1.81 1.36-4.96 4.31-4.28l-1.05 3.37c3.66 3.82 9.4 8.71 14.82 5.26-2.18-.22-4.35-.67-6.24-1.8 1.58-.04 3.17-.01 4.75.06l1.1.57c.2.12.6.36.81.48.37-1.77 1.7-2.89 3.61-2.58.08-.69.22-2.08.3-2.78 4.75 1.79 2.99 7.38 4.96 11.06 2.27.85 5.44-2.35 6.99.51l1.01 3.81c-.39-3.22-4.5-5.26-6.36-2.39.23.56.7 1.67.93 2.22.45-.21 1.35-.64 1.8-.85 0 2.01-.5 4.13.55 6.01-1.24-1.74-2.39-3.53-3.53-5.33-.51 1.93-.81 3.9-.81 5.9 1.44-.22 2.91-.28 4.34-.57l1.34-.95c-.1 2.55-2.5 2.92-4.45 3.52l2.67.3c-.99 1.21-1.87 2.52-2.99 3.61-1.92.5-4.75-.15-5.49 2.33-1.2 3.97-2.05 8.05-3.01 12.09-2.14 1.74-4.57 3.88-7.54 3.29.43-.68 1.29-2.06 1.72-2.74-2.02-1.83-4.32-3.29-6.57-4.81.23-.63.7-1.89.93-2.52-2.96.47-5.81-.96-6.47-4.02-1.33.14-3-.41-3.91.9-1.49 1.81-3.83 2.33-5.72 3.55.7 2.26 2.67 3.77 4.1 5.56-1.86.53-3.71.19-5.42-.65-1.33-2.79-2.28-6.59-5.77-7.33-.11 1.7-.2 3.42-.39 5.12-2.15-4.22-3.88-8.7-4.73-13.38-.47-2.26-2.48-3.93-2.68-6.28-.22-3.52-.06-7.05.19-10.57.22-.06.66-.18.88-.23 1.03 1.33 1.07 3.07 1.31 4.67 1.97-1.78 2.88-6.44-.8-6.56.88-1.11 1.78-2.22 2.67-3.33m22.42 3.04c.3 3.32 2.92-1.68 0 0m-18.14 10.65c2.93-1.75 5.81-3.59 8.58-5.6 1.48-.88 1.75-2.64 1.36-4.2-4.23 2.05-8.06 5.47-9.94 9.8m18.47-7.62c.66.32 1.99.97 2.66 1.29-1.62.17-3.25.3-4.86.54-.32-.19-.97-.57-1.3-.76-1.15 1.55-2.43 1.49-3.7.09-.29.46-.87 1.39-1.16 1.85.75.25 2.25.74 3 .98.16 2.41-.16 4.71-2.97 5.31l1.32-4.28c-1.83 1.2-3.45 2.68-4.94 4.27-2.24-2.42 2.88-2.8 2.9-5.32-2.63 1.29-6.35 2.3-7.1 5.51-.13 1.14-1.13 2.87.19 3.67 3.76-1.88 7.8-.29 11.68.22-.6 1.73-2.52 1.76-3.94 2.41.01.76.04 2.28.06 3.04 1.7.33 3.38.86 5.12.96 1.5-.13 2.19-1.78 3.21-2.67-1.48-1.16-2.91-2.39-4.2-3.75 2.79.56 5.57 1.23 8.42 1.5l1.17.54c.33 1.18.52 2.38.55 3.61 1.83-1.46 4.52-2.2 5.54-4.47.51-2.5.3-5.38-1.42-7.39-2.45-3.03-4.15-7.08-7.96-8.65-.56.37-1.7 1.13-2.27 1.5zm29.14-13.5c.29-.35.88-1.04 1.17-1.39.89 1.12 1.07 2.38.56 3.76-1.43.31-2-.48-1.73-2.37zm-2.41 7.67c-.36-1.06-.07-1.43.9-1.12 1.08 1.09 2.33 2.75 1.83 4.36-1.54.01-1.97-2.19-2.73-3.24z"/><path d="m73.61 56.013.24-.24c1.05 2.25 1.86 4.61 2.36 7.05l-.82-.45c-.45-.42-1.35-1.27-1.8-1.7-.53-.08-1.58-.25-2.11-.33-.01-.47-.01-1.41-.01-1.87.72-.81 1.44-1.63 2.14-2.46zm3.73 3.14c1.32-.07 1.93.62 1.81 2.08-1.32.09-1.92-.61-1.81-2.08zm3.52 5.95c-.43-1.04-.93-3.94.65-3.98.56 1.27 1.62 3.43.79 4.59-.36-.15-1.08-.46-1.44-.61zm-31.84 24.88c.88-2.95 4.62-7.89 7.82-4.92 4.24 4.14 8.62 8.22 12.19 12.98-1.03.95-2.04 1.91-3.07 2.86.44-.98.91-1.94 1.4-2.89-1.39-1.66-2.76-3.33-4.12-5-.96-1.14-1.98-2.23-3.08-3.23-.53-.97-1.3-1.65-2.3-2.02-.23.58-.67 1.72-.9 2.3-2.64-.04-5.29.14-7.94-.08zm39.17.02c.47-2.12 3.57-2.44 3.7.03-1.23.1-2.47.09-3.7-.03zm-83.49 3.47c7 0 14.01-.01 21.02.01-.03 2.02-.04 4.05-.07 6.07-4.97-.04-9.95-.01-14.93-.02.02 4.69-.02 9.38.04 14.06 2.99-.01 5.98-.01 8.97-.03-.02-3.34-.02-6.69-.03-10.04 2.01.01 4.01.01 6.01.02-.05 5.35-.04 10.7-.01 16.05-7 .03-14 .01-21 .02 0-8.72.01-17.43 0-26.14zm24.34.01c2.01 0 4.02 0 6.04.01-.06 6.68.11 13.36-.06 20.05 3.01.08 6.03.08 9.05.01-.07-6.69.13-13.38-.14-20.06 2.06-.01 4.11-.01 6.17 0-.2 8.7-.25 17.41 0 26.12-7.01.07-14.03.04-21.04.02.02-8.72.06-17.43-.02-26.15z"/><path d="m53.4 93.483c2.02-.01 4.04-.01 6.07-.01-.04 6.7.01 13.41-.04 20.11 5 .03 9.99.01 14.98.02v6.04c-7 .01-14 .02-21-.01.02-8.71.04-17.43-.01-26.15zm24.37-.01c7.01.01 14.01-.02 21.02.02-.06 8.7-.04 17.4-.01 26.1-2 .01-4 .01-5.99.02-.01-1.68-.02-3.35-.02-5.03-3 .01-6 .01-8.99.04.01 1.66.03 3.31.05 4.97-2.02.01-4.04.01-6.05.02-.01-8.71 0-17.43-.01-26.14m6.02 6.06c.01 3 .01 6 0 9.01 3.01 0 6.02 0 9.02-.02-.04-3-.04-5.99 0-8.98-3.01-.01-6.01-.01-9.02-.01zm18.34-6.04c7-.04 14-.01 21-.02.01 2.02.01 4.04.03 6.05-5 .02-10 0-15 .03.05 4.67.05 9.34 0 14.01 3 .02 6 .02 9.01.02 0-3.35.01-6.7-.02-10.05 1.98 0 3.96-.01 5.95-.02.09 5.36.02 10.73.05 16.09-7.01-.01-14.02.06-21.03-.04.08-8.69.07-17.38.01-26.07zm-63.83.65s.425-1.633 1.68.1c.35 5.26.876 10.463.54 15.82-.49.02-1.94.06-2.42.08-.01-.85.2-15.16.2-16zm32.68 8.72c.1-2.04 1.31-3.57 3.21-4.26.05 2.02.04 4.04-.04 6.06l-1.26-.07c-.48-.44-1.43-1.3-1.91-1.73zm33.62 20.29c1.73.03 3.46.05 5.18.06-.25.41-.77 1.24-1.03 1.65h-3.01c-.29-.43-.85-1.28-1.14-1.71z"/></g><path d="m57.03 20.893c4.78-3.7 11.19-3.94 16.98-3.89 9.14.1 18.99 2.44 25.5 9.25 2.35 2.94 5.56 7.18 2.75 10.82-5.66-4.87-12.68-7.81-20.02-8.97-.52-.29-1.54-.86-2.05-1.15.6-1.69 1.91-3.52.97-5.34-1.18-3.2-5.64-3.59-8.09-1.7-1.92 1.73-1.31 4.46-1.32 6.73-5.18.12-10.7-.56-15.4 2.1l-.35.14c-.72.24-2.14.72-2.85.95.55-3.2 1.09-6.83 3.88-8.94zm-.07 69.17c.23-.58.67-1.72.9-2.3 1 .37 1.77 1.05 2.3 2.02zm6.28 2.95c1.36 1.67 2.73 3.34 4.12 5-.49.95-.96 1.91-1.4 2.89l-3.08 3.77c-.03-3.89 0-7.79.36-11.66z" fill="#fd0101"/><g fill="#020202"><path d="m59.63 84.693c3.95 1.81 7.2 5.28 11.57 6.04 5.67-.1 11.29-1.57 16.99-.73 1.23.12 2.47.13 3.7.03 1.71-.07 3.42-.07 5.13-.03 8.6.27 17.22-.28 25.83.07 1.52-.07 3.12.83 3.5 2.38.99 4.17-.84 8.54.73 12.64.02.67.06 2.01.07 2.68-.66 4.05-.06 8.25-1.01 12.26-.47 1.97-2.56 2.47-4.16 3.2-4.07-.06-8.13-.18-12.2-.02-1.72-.01-3.45-.03-5.18-.06-4.18-.3-8.39.28-12.56-.23-2.53-.45-2.66-3.57-3.67-5.41-.82 1.72-1.48 3.55-2.65 5.07-5.49 1.23-11.19.37-16.77.61-1.5-.18-5.72.07-6.88.01-10.01-.42-20.04.41-30.03-.28-9.02-.72-18.07.01-27.09-.35-1.98.06-3.7-1.78-3.58-3.74-.29-6 .09-12.01-.13-18.02.05-2.72-.31-5.55.58-8.17 1.65-4.05 6.91-2.06 10.27-2.66 9.33-.16 18.65.06 27.98-.19-.52.3 7.02.13 8.95.19 2.65.22 5.3.04 7.94.08l3.2-.28c1.1 1 2.12 2.09 3.08 3.23-.36 3.87-.39 7.77-.36 11.66.01.95.04 4.07.06 5.01 2.207.195 8.67.15 11.31.41-.05-1.81-.09-3.62-.1-5.43.08-2.02.09-4.04.04-6.06-.03-1.52-.05-3.04-.04-4.56.03-.15.08-.46.11-.61-5.9-.62-9.95-5.61-14.63-8.74m-54.93 8.78c.01 8.71 0 17.42 0 26.14 7-.01 14 .01 21-.02-.03-5.35-.04-10.7.01-16.05-2-.01-4-.01-6.01-.02.01 3.35.01 6.7.03 10.04-2.99.02-5.98.02-8.97.03-.06-4.68-.02-9.37-.04-14.06 4.98.01 9.96-.02 14.93.02.03-2.02.04-4.05.07-6.07-7.01-.02-14.02-.01-21.02-.01m24.34.01c.08 8.72.04 17.43.02 26.15 7.01.02 14.03.05 21.04-.02-.25-8.71-.2-17.42 0-26.12-2.06-.01-4.11-.01-6.17 0 .27 6.68.07 13.37.14 20.06-3.02.07-6.04.07-9.05-.01.17-6.69 0-13.37.06-20.05-2.02-.01-4.03-.01-6.04-.01m24.36 0c.05 8.72.03 17.44.01 26.15 7 .03 14 .02 21 .01v-6.04c-4.99-.01-9.98.01-14.98-.02.05-6.7 0-13.41.04-20.11-2.03 0-4.05 0-6.07.01m24.37-.01c.01 8.71 0 17.43.01 26.14 2.01-.01 4.03-.01 6.05-.02-.02-1.66-.04-3.31-.05-4.97 2.99-.03 5.99-.03 8.99-.04 0 1.68.01 3.35.02 5.03 1.99-.01 3.99-.01 5.99-.02-.03-8.7-.05-17.4.01-26.1-7.01-.04-14.01-.01-21.02-.02m24.36.02c.06 8.69.07 17.38-.01 26.07 7.01.1 14.02.03 21.03.04-.03-5.36.04-10.73-.05-16.09-1.99.01-3.97.02-5.95.02.03 3.35.02 6.7.02 10.05-3.01 0-6.01 0-9.01-.02.05-4.67.05-9.34 0-14.01 5-.03 10-.01 15-.03-.02-2.01-.02-4.03-.03-6.05-7 .01-14-.02-21 .02m-63.948.67c0 .84.05 15.13.06 15.98.48-.02 1.788-.06 2.278-.08-.143-5.456-.19-10.56-.54-15.82m-25.7 8.62c-.04 2.4-.07 4.81.03 7.22 1.25-.61 1.56-1.98 1.69-3.25.1-1.62.89-4.41-1.72-3.97m98.29.34c-.55 2.08-1.13 4.2-.95 6.37 1.713.892 2.17-.433 2.201-1.967.03-1.51.201-3.788.201-3.788-.3-.4-1.152-.225-1.452-.615z"/><path d="m83.79 99.533c3.01 0 6.01 0 9.02.01-.04 2.99-.04 5.98 0 8.98-3 .02-6.01.02-9.02.02.01-3.01.01-6.01 0-9.01m3.41 3.56c-.51 1.64.04 2.17 1.67 1.58.52-1.65-.04-2.17-1.67-1.58z"/></g></g></svg>