<svg xmlns="http://www.w3.org/2000/svg" width="1200" height="1200" viewBox="0 0 900 900"><path fill="#038f33" d="M417.03 59.02c2.5-1.08 5.61.44 7.82-1.43 16.43-.23 32.87-.25 49.3 0 4.87 2.52 10.59 1.38 15.92 1.74 4.47 2.18 10.34.28 14.81 3.03 3.59-.21 6.98.18 10.03 1.88 1.64.26 3.81-.43 5.04.98 2.33.88 5.36-.52 7.22 1.52 1.48 1 3.44.48 5.13.84 1.37 2.23 5.37-.15 6.51 2.78 3.5-.29 6.19 1.7 9.61 2.25.31 1.67 2.58.65 3.72 1.1 1.57 1.18 3.4 1.8 5.39 1.79 1.15 1.92 4.1.99 5.36 2.84 3.88-.38 6.36 3.28 10.19 3.35 2.73 2.26 6.33 2.18 9.01 4.66 1.15.24 2.48.19 3.25 1.26 7.91 3.48 15.91 8.04 23.68 12.33 10.78 6.65 21.75 13.23 31.47 21.42 4.13 1.66 6.7 5.69 10.49 7.74 6.45 6.28 13.8 11.4 19.99 17.98 5.8 5.56 11.12 11.39 16.3 17.5 2.08 3.46 5.86 5.66 7.73 9.27 6.46 7.04 11.53 15.19 17.35 22.68 1.47 3.83 5.03 6.73 6.23 10.63 3.91 4.78 6.08 10.55 9.63 15.5.23 2.96 3.49 4.87 3.45 7.89 2.48 1.96 2.25 5.23 4.16 7.59 1.92 3.92 3.37 7.97 5.5 11.75-.19 3.67 3.56 6.24 3.28 10.04 1.48 1.12 1.79 2.85 1.99 4.6 1.33.98.97 2.55.98 3.99.41.38 1.24 1.15 1.66 1.53.45 1.31-.22 3.04.89 4.09 1.45 1.1-.28 3.41 1.14 4.55 2.31 1.42.3 4.59 2.4 6.17-.38 3.69 2.81 6.26 2.11 9.96 1.56 2.19 1.73 4.67 1.82 7.3 1.98 2.86.7 6.98 2.67 9.89.83 2.66-.44 5.88 1.36 8.19 1.93 3.43-.59 8.49 1.95 11.54.68 4.95-1.15 10.77 1.92 15.09l-.07 1.48c-1.41-.49-2.82-.92-4.06-1.72-29.47-17.48-58.97-34.9-88.38-52.47-5.14-2.8-10.09-5.91-15.02-9.04-27.16-15.74-53.9-32.17-81.03-47.96-22.3-13.38-44.79-26.47-66.99-40.02-11.17-5.98-21.66-13.13-32.74-19.26-13.75-8.33-27.72-16.3-41.4-24.76-.73-.55-1.54-.81-2.43-.78-.75 1.26-1.38 2.59-1.98 3.93-7.79-11.54-22.35-18.12-36.01-14.75-5.51 4.33-7.2 11.45-8.75 17.89-.07 4.25-.18 8.5-.28 12.75-1.39 1.08-.47 3.03-.84 4.52-.11 3.98-1.07 7.84-1.19 11.83-1.72 2.1-.17 5.09-1.43 7.36-2.02 9.31-4.45 18.61-8.98 27.19-4.88 9.87-12.84 17.96-22.08 23.85-9.47 5.85-16.28 15.05-20.85 25.06-7.62 16.22-13.8 33.04-21.15 49.33-5.32 12.88-12.65 26.3-25.48 33.03-2.24.25-4.06 1.89-6.32 2.02-1.32.27-2.89-.08-4.01.82-6.62.69-13.32.42-19.97.58-2.88 1.33-6.77.68-8.45-2.2.06-3.09 1.37-6.24 3.3-8.75-2.51-.86-5.25-.23-7.86-.41-33 .22-66.01.12-99.02.14-2.32.07-4.64-.07-6.93-.34-.1-.76-.28-2.29-.37-3.05 1.69-1.42.28-4.15 1.16-6.04 1.4-2.83-.92-7 1.36-9.18.46-3.44.19-6.96 1.3-10.23 1.43-2.36.61-5.41 1.06-8.16 2.15-2.53.74-6.66 2.91-9.27-.33-2.68.43-4.95 1.66-7.23.65-1.49-.47-3.93 1.42-4.7.03-1.3.08-2.59.13-3.88.54-.66 1.1-1.3 1.69-1.92-.01-1.22.08-2.41.29-3.6 1.79-1.52.59-4.73 2.64-5.97.82-6.01 4.11-11.24 5.61-16.89 2.08-4.34 3.41-8.84 5.71-12.88-.1-1.29.59-2.47 1.73-3.07 1.76-6.01 5.42-11.25 8.1-16.84-.17-1.74 2.44-2.3 1.98-4.13 6.84-11.48 13.91-22.93 22-33.65 5.1-6.61 9.85-13.55 15.82-19.42.51-1.98 2.95-2.48 3.52-4.44 12.76-13.56 26.05-26.7 40.85-37.87 12.28-9.74 25.15-17.81 38.44-25.94 2.67-.5 4.29-3.16 6.97-3.41 1.09-1.43 3.38-1.16 4.37-2.82 1.93.08 2.78-2.12 4.71-2.01 5.43-2.87 11.18-5.02 16.73-7.96 1.8.57 2.32-1.73 4.09-1.25 1.53.39 2.24-1.25 3.4-1.84 2.49.15 4.39-1.98 6.94-2.13l.41-.85c2.2.03 4.24-.76 6.12-1.88 1.26-.11 2.78.2 3.51-1.14 1.72-.78 3.96-.39 5.28-1.89 3.66.35 6.2-2.63 10-2.12 1.38-2.15 4.3-.18 6.05-1.81 2.07-1.66 4.7-.93 7.13-1.38 1.43-1.8 4.29-.47 6.21-1.68 2.59-1.78 6.02-1 9.1-1.3 3.02-2.01 6.93-1.55 10.5-1.91 3.28-1.9 7.7-.59 11.41-1.39zM134.35 352.18c.18-1.85-1.24-4.96.74-6.03-.49 2.58-.14 5.27-.59 7.89-.38 2.26.81 5.04-.81 6.94.38 8.33-.27 16.69.28 25.01 1.22 3.82-.3 7.99 1.4 11.7.71 2.12-.14 4.34-.05 6.51 2.22 5.02-.21 11.07 2.36 15.94 0 3.63.42 7.37 1.7 10.62-1.62-.03-.17-2.32-1.62-2.89.33-4.75-2.23-9.17-1.58-13.92-.57-2.04-.42-4.19-.54-6.28-1.95-2.8-.81-6.73-2.37-9.75.65-2.92.36-5.86.44-8.85-1.12-5.54-.35-11.39-.58-17.07.15-4.37-.42-8.8.53-13.09.33-2.22-.69-4.76.69-6.73zm55.03 199.64c4.92 1.63 8.98 4.99 13.61 7.23a9004.82 9004.82 0 0 0 57.42 32.54c4.48 2.54 8.81 5.44 13.59 7.41-.36 1.4.91 3.73-1 4.33-.5 1.91 1.1 4.93-1 5.99-.03 1.78.02 3.57-.01 5.37-2.69 1.11.71 5.5-1.99 6.65-.03 1.77.02 3.55 0 5.33-2.05.85-.54 3.6-1 5.3-7.06-3.29-12.89-9.19-19.14-13.98-13.84-10.6-25.66-23.64-37.86-36.1-.78-2.16-3.45-2.97-3.76-5.31-1.58-1.83-3.41-3.44-4.86-5.37-2.45-3.78-6.25-6.58-8.04-10.78-.85-1.02-1.82-1.92-2.74-2.85-.11-2.36-3.48-3.41-3.22-5.76zm148.67 84.33c1.36.5 2.66 1.14 3.91 1.87 16.81 9.56 33.72 18.94 50.44 28.64 5.36 2.57 10.12 6.24 15.6 8.56-.01 3.74.01 7.47-.01 11.21-1.37.44-3.03.25-4.02-.76-3.95-.64-8.54.46-11.83-2.05-2.16-.55-4.95.76-6.62-1.03-2.64-.69-6.36-.02-8.27-1.91-4.21.31-7.51-2.46-11.74-2.18l-.45-.87c-3.62-1.93-7.8-2.25-11.52-3.9-3.35-1.44-7.49-1.3-10.17-4.05-1.54-8.22-2.81-16.48-4.22-24.72-.38-2.94-1.36-5.82-1.1-8.81z"/><path fill="#fff" d="M395.38 141.48c13.66-3.37 28.22 3.21 36.01 14.75 9.44 12.95 11.67 29.07 11.26 44.75-.03 7.63-1.51 15.12-3.55 22.26-1.29 1.56-.87 4.1-2.44 5.46-1.8 7.04-5.59 13.49-8.29 20.24-4.32 8.95-9.07 17.9-14.25 26.49-1.85 3.99-3.97 8.11-3.5 12.67.45 4.74 4.25 8.14 8.18 10.35 32.73.27 65.48.03 98.21.12 5.71.93 11.68 2.27 16.38 6.02 7.75 6.4 13.2 15.59 14.62 25.4 1.45 3.4-.55 6.71-.6 10.13-.31 1.55-.57 3.34-1.68 4.54-2.22 8.16-9.5 13.59-14.35 20.25-.05.81-.14 2.42-.19 3.23 6.72 7.78 14.96 15.41 16.8 25.89 1.43 3.3-.34 6.64-1.08 9.87-3.71 8.93-12.41 14.06-17.55 21.97-.12 2.19-.6 4.86 1.15 6.56 4.11 6.99 8.29 14.3 8.12 22.53-.15 8.34-5.74 15.57-12.47 20.26-3.16 2.19-6.61 4.36-8.7 7.66-.44 4.67.49 9.38.3 14.08.93 1.46.65 3.48.23 5.07-.03 8.49-6.47 15.3-13 19.99-11.4 8.09-24.92 12.35-38.83 12.54-4.62 1.9-10.26.32-15.17 1.76-4.15.03-8.28.41-12.43.28-.27.2-.83.59-1.11.78-15.82.11-31.64.14-47.46-.18-2.96-1.9-6.79.07-9.93-1.4-4.03-.01-8.05-.34-12.08-.43-.98.19-1.82-.07-2.52-.78-5.63.16-11.05-.77-16.6-1.28-3.82-1.54-8.37.17-12.04-1.69-4.36-.04-8.57-1.15-12.92-1.28-3.28-1.65-7.33-.08-10.54-1.8-2.94-.21-5.73-1.03-8.69-1.06-2.83-1.9-6.67-.17-9.62-1.87-7.15-.67-13.82-2.5-21.04-3.29-5.44.35-10.93-.27-16.35.37-.78 3.68-.78 7.82.63 11.33.3 1.31-.28 3.04 1.01 3.98.25 4.12 2.58 7.61 3.36 11.49-4.54.31-9.36-.57-13.61.83-20.51-.02-41.03-.07-61.53.02-.29-2.32-2.75-3.42-3.02-5.74-1.02-.43-2.24-1.89-1.89-3.11l-1.09-.03c-.25-1.12-.7-3.2-2.02-3.11 1.23-2.48-2.61-2.56-1.95-4.87l-1.07-.08c.41-1.84-.92-2.93-2.01-4.05.69-1.65-2.09-1.71-1.16-3.54-.94-.94-2.69-1.41-1.69-3.14-1.61-1.6-3.19-3.71-3.18-5.92-2.07-.52-1.03-4.22-3.04-4.21-.45-1.37-.42-3.82-2.02-4.19.53-1.42-.13-2.9-1.64-3.17.39-1.66-.01-2.62-1.19-2.86l-.16-2.75-.85-.09.01-.95c-2.26.01.19-3.64-2.09-4.06-.03-.69-.09-2.06-.11-2.75-2.02-.15-2.16-2.66-1.81-4.15l-.96-.29c-.23-.51-.69-1.52-.92-2.03.37-1.57-.03-2.47-1.22-2.69-.01-.72-.02-2.17-.02-2.9-1.55-.49-.38-2.72-1.92-3.4.45-1.6.04-2.53-1.21-2.78-.3-1.98-.14-4.43-1.71-5.94.11-2.05-.38-4.16-1.9-5.33.16-1.59-.22-3.14-.11-4.72l-1.05.02c.04-1.64-.4-3.28 0-4.88l-1.01-.27v-1.09c-1.92-1.11-.62-3.86-.93-5.67-1.83-.56-1.2-3.42-1.16-4.9-1.84-.39.08-2.84-1.38-3.6-1.33-1.7-.29-4.3-.66-6.34-1.28-3.25-1.7-6.99-1.7-10.62-2.57-4.87-.14-10.92-2.36-15.94-.09-2.17.76-4.39.05-6.51-1.7-3.71-.18-7.88-1.4-11.7-.55-8.32.1-16.68-.28-25.01 1.62-1.9.43-4.68.81-6.94.45-2.62.1-5.31.59-7.89 2.29.27 4.61.41 6.93.34 33.01-.02 66.02.08 99.02-.14 2.61.18 5.35-.45 7.86.41-1.93 2.51-3.24 5.66-3.3 8.75 1.68 2.88 5.57 3.53 8.45 2.2 6.65-.16 13.35.11 19.97-.58 1.12-.9 2.69-.55 4.01-.82 2.26-.13 4.08-1.77 6.32-2.02 12.83-6.73 20.16-20.15 25.48-33.03 7.35-16.29 13.53-33.11 21.15-49.33 4.57-10.01 11.38-19.21 20.85-25.06 9.24-5.89 17.2-13.98 22.08-23.85 4.53-8.58 6.96-17.88 8.98-27.19 1.26-2.27-.29-5.26 1.43-7.36.12-3.99 1.08-7.85 1.19-11.83.37-1.49-.55-3.44.84-4.52.1-4.25.21-8.5.28-12.75 1.55-6.44 3.24-13.56 8.75-17.89zM66.01 599c13.33 0 26.66-.01 39.99 0 .01 2.33 0 4.67 0 7.01.01 35.66-.01 71.32.01 106.98.74 0 2.23.01 2.97.01 15.34-.01 30.68.01 46.02 0 .01-38-.01-76 0-113.99 13.33-.01 26.67-.01 40 0 .01 2.33-.01 4.66 0 7-.01 86.66.01 173.32-.01 259.98-12.32.02-24.65 0-36.97.01-.76 0-2.26 0-3.02-.01-.01-35.33 0-70.67 0-106.01-.01-2.33.02-4.65-.01-6.97-16.33-.01-32.65-.02-48.98 0-.03 37.66.01 75.32-.02 112.98-12.32.02-24.65 0-36.97.01-.76 0-2.26 0-3.02-.01C66 777 65.99 688 66.01 599zM274 599c18.66 0 37.33-.01 55.99.01.46 1.69-1.04 4.45 1.01 5.31.02 1.78-.03 3.57 0 5.36 2.1 1.05.5 4.08 1 6.01 2.12 1.01.49 4.08 1 6 2.11 1.04.5 4.08 1 6 2.12 1.01.49 4.08 1 5.99 2.1 1.05.5 4.08 1 6.01 2.12 1.01.5 4.08 1 6 2.7 1.09-.71 5.51 2 6.63.49 1.91-1.11 4.94 1 6 .49 1.91-1.1 4.93 1 6 .02 1.79-.03 3.58 0 5.38 2.01.72.56 3.37 1 4.98 2.09 1.06.51 4.07 1 6 2.7 1.12-.71 5.52 2 6.64.48 1.92-1.1 4.93 1 6 .02 1.78-.03 3.57 0 5.36 2.09 1.06.5 4.08 1 6 2.09 1.05.51 4.07 1 5.99 2.71 1.11-.72 5.54 2 6.64.02 1.78-.03 3.58 0 5.39 2.7 1.08-.7 5.49 2 6.62.48 1.91-1.1 4.93 1 6 .49 1.9-1.11 4.95 1 5.99.49 1.91-1.12 4.96 1 6.01.5 1.89-1.13 4.98 1 5.98.02 1.78-.03 3.58 0 5.39 2.7 1.09-.7 5.5 2 6.63.02 1.78-.03 3.57 0 5.36 2.12 1.02.5 4.08 1 6 2.7 1.12-.71 5.53 2 6.63.5 1.9-1.12 4.97 1 6 .49 1.91-1.11 4.96 1 6 .02 1.78-.03 3.57 0 5.37 2.09 1.05.51 4.07 1 6 2.11 1.03.5 4.08 1 6 2.1 1.05.5 4.08 1 6.01 2.12 1.01.49 4.08 1 5.99 2.69 1.12-.7 5.5 2 6.64.02 1.78-.03 3.57 0 5.37 2.71 1.08-.72 5.54 2 6.63.49 1.9-1.12 4.96 1 6 .5 1.89-1.13 4.97 1 5.99.5 1.9-1.13 4.98 1 5.99.02 1.56 0 3.12-.01 4.69-13.33.02-26.65 0-39.97.01-.51 0-1.51 0-2.02-.01 0-1.29-.01-2.58 0-3.85l-.99-.28c-.03-2.25 0-4.49-.01-6.71-2.18-.64-.45-4.18-1-6.01l-.99-.28c-.03-2.25 0-4.49-.01-6.72-2.19-.63-.45-4.17-1-6-2.18-.62-.45-4.17-1-6l-.99-.28c-.04-2.25.01-4.49-.02-6.72l-.99-.28c-.55-1.85 1.17-5.39-1-6-.01-1.64-.01-3.27.01-4.88-.25-.57-.75-1.71-1.01-2.28-.01-1.57 0-3.14 0-4.69-13.86-.01-27.72-.03-41.58.01-2.46 1.39-1.07 4.39-1.42 6.66-2.7 1.12.7 5.51-2 6.64-.5 1.9 1.11 4.95-1 5.99-.54 2.23 1.16 5.63-1 7.02-.02 1.77.02 3.55 0 5.35-2.71 1.09.7 5.51-2 6.64-.02 1.78.02 3.56 0 5.36-2.19 1.33-.45 4.78-1 7.01-2.72 1.07.72 5.54-2 6.61-.01 1.22-.01 2.45 0 3.69-12.67.03-25.33 0-37.99.01-1.33-.01-2.67-.01-4 0-.46-1.65-.13-2.69.99-3.14.01-1.91-.01-3.82 0-5.72 2.79-.5-.8-5.79 2-6.28.01-1.91-.01-3.82 0-5.71 2.78-.53-.79-5.78 2-6.3.01-1.91-.01-3.82 0-5.71 2.79-.51-.79-5.77 2-6.29.01-1.91-.01-3.81 0-5.71 2.18-.63.45-4.16 1-6 2.12-.34.48-3.47 1-5 2.18-.63.45-4.17 1-6.01 2.19-.59.44-4.16 1-5.99 2.79-.51-.8-5.79 2-6.28.01-1.92-.01-3.82 0-5.72 2.79-.5-.8-5.79 2-6.28.55-1.85-1.19-5.4 1-6 .54-1.85-1.17-5.37 1-6.01.55-1.83-1.19-5.41 1-5.98.01-1.92-.01-3.83 0-5.73 2.73-.22-.73-5.07 2-5.28.54-1.86-1.17-5.37 1-6.01.54-1.85-1.18-5.38 1-5.99.01-1.92-.01-3.82 0-5.72 2.8-.5-.8-5.8 2-6.28.01-1.91-.01-3.82 0-5.71 2.18-.64.44-4.18 1-6.01 2.8-.49-.79-5.79 2-6.28.54-1.85-1.18-5.38 1-6 .01-1.92-.01-3.82 0-5.72 2.73-.22-.73-5.06 2-5.29.54-1.85-1.18-5.37 1-5.99.01-1.91-.01-3.82 0-5.71 2.79-.53-.8-5.8 2-6.29.54-1.85-1.19-5.39 1-6 .01-1.92-.01-3.82 0-5.72 2.79-.5-.8-5.8 2-6.28.01-1.91-.01-3.82 0-5.72 2.19-.6.44-4.17 1-6 2.18-.62.45-4.16 1-6 2.11-.32.5-3.41 1-4.93l1-1.24c.46-1.7-1.05-4.45 1-5.3.02-1.78-.03-3.56 0-5.33 2.7-1.15-.7-5.54 1.99-6.65.03-1.8-.02-3.59.01-5.37 2.1-1.06.5-4.08 1-5.99 1.91-.6.64-2.93 1-4.33m27.01 61.99c-.6 2.25 1.21 6.02-1.01 7.23-.02 2.18.01 4.36 0 6.55-2.82 1.11.82 6.35-2 7.45-.02 2.18.01 4.37 0 6.56-2.82 1.09.81 6.33-2 7.44-.02 2.52.01 5.05 0 7.58-2.83 1.03.82 6.34-2 7.42-.57 2.18 1.2 5.87-1 7-.02 2.18.01 4.37 0 6.56-2.21 1.12-.44 4.8-1 7-2.21 1.13-.44 4.8-1 6.99-2.21 1.14-.44 4.8-1 7-2.82 1.11.81 6.34-2 7.45-.58 2.18 1.21 5.87-1 7-.01 1.58-.01 3.17.01 4.77 1.33.01 2.66.01 3.99 0 8.67.02 17.34 0 26.01.01l-.02-.86-.98-.28c-.04-2.25.01-4.49-.02-6.72l-.99-.28c-.02-2.25.02-4.5-.01-6.73l-.99-.26c-.02-2.25.02-4.49-.01-6.73l-.99-.28c-.02-2.25.02-4.48-.01-6.71l-.99-.3c-.02-2.24.02-4.48-.01-6.71l-.99-.28c-.02-2.25.02-4.48-.01-6.71l-.99-.3c-.01-2.24 0-4.48 0-6.71l-.99-.28c-.03-2.58 0-5.16-.01-7.73l-.99-.26c-.04-2.25.01-4.49-.02-6.73l-.99-.28c-.02-2.25.02-4.49-.01-6.73l-.99-.26c-.02-2.26.02-4.5-.01-6.74l-.99-.26c-.01-2.25 0-4.49 0-6.73-2.13-.16-.44-3.15-1.03-4.47.43-1.44.11-2.41-.97-2.89-.57-2.2 1.21-5.88-1-7 0-1.27 0-2.52-.01-3.77zm107-61.98c13.33-.02 26.65-.02 39.98 0 .03 75.66-.01 151.32.02 226.98.74.01 2.23.01 2.97.01 22.34 0 44.68 0 67.02.01 0 2.32-.01 4.66 0 7.01-.01 10.99.01 21.98-.01 32.97-35.66.02-71.32 0-106.97.01-.76 0-2.26 0-3.02-.01-.02-59.85.02-119.7-.01-179.56.02-3.74 0-7.47.01-11.21.01-25.4-.01-50.81.01-76.21zm181.99 0c18.67-.02 37.33-.02 55.99 0 .01 1.55-.01 3.11.01 4.68 2.71 1.09-.72 5.54 2 6.62.49 1.91-1.12 4.96 1 6 .01 1.79-.03 3.58 0 5.37 2.71 1.09-.72 5.55 2 6.62.01 1.79-.03 3.58 0 5.38 2.7 1.11-.71 5.53 2 6.63.48 1.92-1.11 4.94 1 6.01.49 1.9-1.11 4.95 1 5.99.49 1.91-1.12 4.96 1 6.01.01 1.78-.03 3.57 0 5.37 2.7 1.1-.71 5.5 2 6.63 0 1.44-.02 2.9 0 4.36 2.09 1.05.5 4.07 1 6 2.1 1.04.49 4.08 1 6 2.69 1.13-.71 5.52 2 6.64.48 1.92-1.1 4.93 1 6 .01 1.78-.03 3.57 0 5.36 2.12 1.02.49 4.09 1 6.01 2.7 1.09-.71 5.5 2 6.63.01 1.79-.03 3.57 0 5.37 2.71 1.09-.72 5.52 2 6.64.48 1.91-1.1 4.92 1 5.99.01 1.78-.03 3.58 0 5.38 2.11 1 .49 4.07 1 5.98 2.7 1.11-.71 5.53 2 6.62.49 1.92-1.11 4.95 1 6.02.01 1.78-.03 3.58 0 5.38 2.12 1 .49 4.08 1 5.99 2.11 1.01.49 4.08 1 5.99 2.09 1.05.5 4.07 1 6 2.69 1.12-.7 5.51 2 6.63.01 1.78-.03 3.57 0 5.37 2.71 1.09-.73 5.54 2 6.64.48 1.9-1.11 4.95 1 5.99.01 1.78-.03 3.58 0 5.38 2.11 1.02.49 4.08 1 6 2.71 1.08-.72 5.52 2 6.61.5 1.9-1.13 4.99 1 6.01.49 1.9-1.12 4.96 1 6 .5 1.9-1.12 4.97 1 5.99.49 1.91-1.12 4.96 1 6.01.01 1.79-.03 3.59 0 5.39 2.71 1.07-.72 5.52 2 6.61.01 1.55 0 3.11-.01 4.68-13.33.02-26.65 0-39.97.01-.51 0-1.51 0-2.02-.01-.01-1.29-.01-2.58 0-3.85l-.99-.28c-.04-2.25 0-4.49-.01-6.72-2.18-.63-.45-4.17-1-6l-.99-.28c-.04-2.25.01-4.49-.02-6.72l-.99-.28c-.55-1.86 1.17-5.38-1-6.01-.02-1.91 0-3.82 0-5.71l-.99-.28c-.04-2.25.01-4.49-.02-6.72l-.99-.28c-.02-1.92 0-3.82 0-5.72-2.14-.37-.49-3.6-.99-5.16-.01-.42-.02-1.25-.02-1.67-2.05-.83-.53-3.62-.99-5.3-13.87-.01-27.74-.04-41.6.01-3.18 1.42.28 5.89-2.4 7.29-.03 1.78.01 3.57 0 5.38-2.72 1.09.71 5.53-2 6.62-.54 2.23 1.17 5.64-1 7.01-.5 1.91 1.1 4.94-1 6-.51 1.9 1.11 4.96-1 6-.5 1.9 1.11 4.96-1 5.99-.03 2.11.02 4.24 0 6.37-2.71 1.1.7 5.51-2 6.63-.01 1.22-.01 2.44 0 3.68-12.67.03-25.32 0-37.98.01-1.35-.01-2.68-.01-4.01-.01-.46-1.63-.13-2.68.99-3.13.54-1.85-1.18-5.38 1-6.01 0-1.91-.01-3.81 0-5.7 2.17-.65.45-4.16 1-6.01 2.79-.51-.8-5.8 2-6.28.55-1.85-1.18-5.38 1-6 .54-1.85-1.18-5.39 1-6 0-1.92-.01-3.82 0-5.72 2.18-.62.45-4.17 1-6 2.12-.33.49-3.47 1-5 2.18-.62.44-4.17 1-6 2.79-.51-.8-5.79 2-6.28.54-1.85-1.19-5.4 1-6 0-1.91-.01-3.82 0-5.71 2.17-.65.45-4.17 1-6.01 2.79-.51-.79-5.77 2-6.29 0-1.91-.02-3.81 0-5.71 2.17-.63.44-4.17 1-5.99 2.78-.53-.8-5.8 2-6.29.5-1.55-1.13-4.68 1-5 0-1.92-.01-3.82 0-5.72 2.79-.51-.8-5.79 2-6.28.55-1.85-1.18-5.38 1-6.01.55-1.84-1.18-5.37 1-6 .54-1.85-1.18-5.38 1-5.99 0-1.91-.01-3.82 0-5.71 2.78-.53-.8-5.79 2-6.29.54-1.85-1.18-5.38 1-6 0-1.92-.01-3.82 0-5.72 2.72-.22-.74-5.08 2-5.28.55-1.85-1.19-5.4 1-6 .54-1.85-1.19-5.39 1-6 0-1.92-.02-3.82 0-5.72 2.79-.5-.79-5.78 2-6.28 0-1.91.02-3.8-.05-5.69l1.04-.36.02-.77c-.02-1.58-.03-3.16-.01-4.72 2.11-1.04.49-4.11 1-6.01 2.12-1.03.49-4.11 1-6.01 2.11-1.02.49-4.09 1-5.98 2.01-.76.57-3.4 1-5 2.7-1.12-.71-5.53 2-6.64.49-1.92-1.11-4.96 1-5.99.01-1.8-.03-3.59 0-5.37 2.69-1.13-.71-5.53 2-6.63.49-1.92-1.12-4.99 1-5.99-.01-1.24 0-2.47 0-3.69m27 61.96c-.59 2.25 1.22 6.03-1 7.26-.02 2.17.01 4.35 0 6.54-2.81 1.12.82 6.37-2 7.44-.02 2.18.01 4.37 0 6.57-2.21 1.13-.44 4.81-1 7l-.99.44c-.04 2.51 0 5.03-.01 7.55-2.21 1.15-.44 4.82-1 7.02-2.82 1.07.81 6.33-2 7.43-.57 2.18 1.2 5.86-1 7-.56 2.19 1.2 5.85-1 7.01-.57 2.17 1.2 5.86-1 6.99-.02 2.18.01 4.37 0 6.56-2.21 1.12-.44 4.8-1 6.99-2.82 1.11.82 6.35-2 7.45-.02 1.58-.02 3.17.01 4.77 1.32.01 2.65.01 3.99 0 8.67.02 17.34 0 26.01.01l-.02-.86-.98-.28c-.04-2.25.01-4.49-.02-6.72l-.99-.28c-.02-2.25.01-4.49-.01-6.72l-.99-.28c-.01-2.25 0-4.49 0-6.72l-.99-.28c-.04-2.25 0-4.49-.01-6.72l-.99-.28c-.04-2.25 0-4.48-.01-6.71l-.99-.3c-.04-2.24 0-4.48-.01-6.71l-.99-.28c-.04-2.25 0-4.49-.01-6.72l-.99-.28c-.03-2.58 0-5.15-.01-7.72l-.99-.28c-.04-2.24 0-4.48-.01-6.72l-.99-.28c-.04-2.25 0-4.49-.01-6.73l-.99-.26c-.04-2.25 0-4.49-.01-6.72l-.99-.3c-.04-2.24 0-4.48-.01-6.71-2.14-.17-.43-3.18-1.03-4.51.43-1.43.11-2.38-.97-2.85-.58-2.19 1.21-5.88-1-7-.01-1.25-.01-2.51 0-3.75zM725.01 599h39.98c.01 2.34 0 4.67.01 7.01.01 73.33-.02 146.66.01 219.98.74.01 2.23.01 2.97.01h67.01c.01 2.33 0 4.67.01 7.01-.01 10.99.01 21.99-.01 32.98-35.66.02-71.32 0-106.97.01-.76 0-2.26 0-3.02-.01 0-88.99 0-177.99.01-266.99z"/><g fill="#026420"><path d="M433.37 152.3c.89-.03 1.7.23 2.43.78 13.68 8.46 27.65 16.43 41.4 24.76 11.08 6.13 21.57 13.28 32.74 19.26 22.2 13.55 44.69 26.64 66.99 40.02 27.13 15.79 53.87 32.22 81.03 47.96 4.93 3.13 9.88 6.24 15.02 9.04 29.41 17.57 58.91 34.99 88.38 52.47 1.24.8 2.65 1.23 4.06 1.72.23 16.95.09 33.9.05 50.85-1.85 1.65.12 4.43-1.64 6.05-.1 3.32-.22 6.64-.27 9.96-2.37 2.97-.25 7.28-1.79 10.58-1.91 2.87-.95 6.46-1.45 9.69-.37.09-1.1.26-1.46.35-.09 2.46.18 4.96-.35 7.39-2.14 1.51-.17 4.65-1.78 6.5-2.05 1.86.04 5.09-2.09 6.86.15 3.52-2.62 6.16-2.09 9.64-1.28 1.43-2.33 3.01-1.81 5.03-1.48 1.31-1.35 3.21-1.31 5.02-.43.4-1.27 1.21-1.7 1.61-.12 1.06-.21 2.12-.27 3.2-1.46.66-.81 2.44-1.45 3.59-1.79 3.36-2.62 7-4.5 10.26.14 2.54-2.64 3.74-2.26 6.44-.37.09-1.1.29-1.47.39.8 2.55-1.81 3.92-1.35 6.4-2.69 1.93-2.32 5.58-4.58 7.98-.75 2.15-2.1 4.11-3.36 5.96-.14 2.65-2.84 4.31-3.46 6.85-18.76 33.33-43.92 63.2-73.51 87.69-.89 1.9-.42 4.08-.52 6.12 2.73.99-.74 5.57 2 6.56.01 1.8-.03 3.6 0 5.41 2.11 1.01.49 4.09 1 6.01 2.71 1.04-.72 5.54 2 6.6.02 1.8-.03 3.61 0 5.43 2.13.93.48 4.09 1 5.99 2.73.98-.73 5.56 2 6.56.02 1.8-.03 3.62 0 5.44 2.72 1-.73 5.55 2 6.56.44 1.59-1.05 4.33 1 5 .02 1.81-.03 3.63 0 5.46 2.14.91.48 4.08 1 5.98 2.73.99-.73 5.55 2 6.58.5 1.9-1.13 5 1 5.99.5 1.9-1.13 5.02 1 5.99.5 1.9-1.13 5.02 1 6 .02 1.8-.03 3.61 0 5.43 2.12.97.49 4.09 1 6 2.72 1.01-.74 5.58 2 6.56.02 1.8-.03 3.62 0 5.44 2.12.98.49 4.08 1 6 2.11.98.49 4.08 1 6 2.72 1.01-.73 5.56 2 6.56.02 1.8-.03 3.61 0 5.43 2.12.98.49 4.09 1 6.01 2.72 1.01-.73 5.55 2 6.58.51 1.88-1.15 5.05 1 5.97.51 1.89-1.15 5.08 1 6 .02 1.82-.03 3.64 0 5.47 2.13.92.48 4.08 1 5.98 2.12.99.48 4.11 1 6.04 2.73.91-.74 5.56 2 6.52.5 1.9-1.13 5.02 1 6.01.51 1.89-1.14 5.04 1 5.99.5 1.9-1.13 5.01 1 6.02.49 1.91-1.12 4.99 1 6.01.01 1.8-.03 3.61 0 5.42 2.12.95.48 4.08 1 5.98 2.11.99.49 4.09 1 6 2.74.98-.75 5.61 2 6.55.02 1.81-.03 3.63 0 5.45 2.05.79.54 3.6.99 5.29-14 .01-27.99.02-41.99 0-.01-1.25-.01-2.49 0-3.71-1.1-.67-1.43-1.76-.98-3.28 13.32-.01 26.64.01 39.97-.01.01-1.57.02-3.13.01-4.68-2.72-1.09.71-5.54-2-6.61-.03-1.8.01-3.6 0-5.39-2.12-1.05-.51-4.1-1-6.01-2.12-1.02-.5-4.09-1-5.99-2.12-1.04-.51-4.1-1-6-2.13-1.02-.5-4.11-1-6.01-2.72-1.09.71-5.53-2-6.61-.51-1.92 1.11-4.98-1-6-.03-1.8.01-3.6 0-5.38-2.11-1.04-.52-4.09-1-5.99-2.73-1.1.71-5.55-2-6.64-.03-1.8.01-3.59 0-5.37-2.7-1.12.69-5.51-2-6.63-.5-1.93 1.09-4.95-1-6-.51-1.91 1.11-4.98-1-5.99-.51-1.91 1.12-4.99-1-5.99-.03-1.8.01-3.6 0-5.38-2.11-1.07-.51-4.1-1-6.02-2.71-1.09.7-5.51-2-6.62-.51-1.91 1.11-4.98-1-5.98-.03-1.8.01-3.6 0-5.38-2.1-1.07-.52-4.08-1-5.99-2.72-1.12.71-5.55-2-6.64-.03-1.8.01-3.58 0-5.37-2.71-1.13.7-5.54-2-6.63-.51-1.92 1.12-4.99-1-6.01-.03-1.79.01-3.58 0-5.36-2.1-1.07-.52-4.08-1-6-2.71-1.12.69-5.51-2-6.64-.51-1.92 1.1-4.96-1-6-.5-1.93 1.09-4.95-1-6-.02-1.46 0-2.92 0-4.36-2.71-1.13.7-5.53-2-6.63-.03-1.8.01-3.59 0-5.37-2.12-1.05-.51-4.1-1-6.01-2.11-1.04-.51-4.09-1-5.99-2.11-1.07-.52-4.09-1-6.01-2.71-1.1.7-5.52-2-6.63-.03-1.8.01-3.59 0-5.38-2.72-1.07.71-5.53-2-6.62-.03-1.79.01-3.58 0-5.37-2.12-1.04-.51-4.09-1-6-2.72-1.08.71-5.53-2-6.62-.02-1.57 0-3.13-.01-4.68-18.66-.02-37.32-.02-55.99 0 0 1.22-.01 2.45 0 3.69-2.12 1-.51 4.07-1 5.99-2.71 1.1.69 5.5-2 6.63-.03 1.78.01 3.57 0 5.37-2.11 1.03-.51 4.07-1 5.99-2.71 1.11.7 5.52-2 6.64-.43 1.6 1.01 4.24-1 5-.51 1.89 1.11 4.96-1 5.98-.51 1.9 1.12 4.98-1 6.01-.51 1.9 1.11 4.97-1 6.01-.02 1.56-.01 3.14.01 4.72-.96 1.26-2.37 1.81-3.92 1.75-1.29 1.09-2.71 1.77-4.41 1.83-.7 1.45-2.62 1.3-3.88 1.99-.77 1.62-2.82.04-3.74 1.42-1.58 1.85-4.28.74-5.87 2.58l-2.59.08c-1.1 1.68-2.9 1.81-4.7 1.98-1.25 1.48-3.58.73-5.16 1.77-.83 1.42-2.59.93-3.93 1.16-1.55-.24-2.24 1.71-3.73 1.62-1.41.12-3.17-.17-4.02 1.25-4.07-.36-7.14 2.67-11.2 2.06-2.28 1.88-5.41 1.68-8.18 1.89-1.76 2.34-5.48.18-7.75 1.67-2.85 1.89-6.35.98-9.55 1.42-2.1 1.56-5.02.87-7.49 1.18-1.26.63-2.69.6-4.04.62-4.32 1.66-9.45 1.05-14.16 1.09-.23.19-.69.57-.91.77-6.6.13-13.18.33-19.78.28-.01 45.52.02 91.03-.02 136.55-.74 0-2.23 0-2.97-.01-.03-75.66.01-151.32-.02-226.98-13.33-.02-26.65-.02-39.98 0-.02 25.4 0 50.81-.01 76.21-5.48-2.32-10.24-5.99-15.6-8.56-16.72-9.7-33.63-19.08-50.44-28.64-1.25-.73-2.55-1.37-3.91-1.87-.26 2.99.72 5.87 1.1 8.81 1.41 8.24 2.68 16.5 4.22 24.72 2.68 2.75 6.82 2.61 10.17 4.05 3.72 1.65 7.9 1.97 11.52 3.9-2.2-.19-4.39-.4-6.29-1.61-1.43-1.05-3.62.21-4.75-1.38-3.45-.91-6.39-2.46-9.96-2.55.34 1.64-1.11 4.45.94 5.18.45 1.6-1.04 4.3 1 5.02.02 1.8-.03 3.61 0 5.42 2.13.96.49 4.09 1 6.01 2.73.99-.74 5.57 2 6.56.02 1.81-.03 3.62 0 5.45 2.13.92.49 4.08 1 5.98 2.73 1-.74 5.58 2 6.56.02 1.81-.03 3.63 0 5.45 2.73.98-.73 5.56 2 6.56.51 1.88-1.15 5.06 1 5.98.52 1.89-1.14 5.06 1 6 .02 1.81-.03 3.63 0 5.46 2.12.95.49 4.07 1 5.97 2.12 1.01.49 4.11 1 6.03 2.13.95.48 4.11 1 6.02 2.73.95-.74 5.55 2 6.55.51 1.88-1.14 5.03 1 5.98.02 1.81-.03 3.63 0 5.45 2.73.99-.73 5.55 2 6.56.02 1.8-.03 3.62 0 5.44 2.13.97.48 4.11 1 6.03 2.14.88.48 4.06 1 5.95 2.73 1-.74 5.59 2 6.57.02 1.81-.03 3.63 0 5.46 2.12.94.48 4.08 1 5.98 2.13.95.49 4.09 1 6 2.13.97.49 4.1 1 6.02 2.73.97-.73 5.54 2 6.56.52 1.87-1.14 5.04 1 5.97.51 1.9-1.14 5.05 1 6.02.5 1.9-1.13 5.02 1 6.01.02 1.79-.03 3.6 0 5.42 2.06.75.55 3.59.99 5.28-13.99.02-27.99.01-41.98 0-.01-1.24-.02-2.48-.01-3.7-1.1-.67-1.43-1.77-.98-3.29 13.32-.01 26.64.01 39.97-.01.01-1.57.03-3.13.01-4.69-2.13-1.01-.5-4.09-1-5.99-2.13-1.02-.5-4.1-1-5.99-2.12-1.04-.51-4.1-1-6-2.72-1.09.71-5.55-2-6.63-.03-1.8.02-3.59 0-5.37-2.7-1.14.69-5.52-2-6.64-.51-1.91 1.12-4.98-1-5.99-.5-1.93 1.1-4.96-1-6.01-.5-1.92 1.11-4.97-1-6-.49-1.93 1.09-4.95-1-6-.03-1.8.02-3.59 0-5.37-2.11-1.04-.51-4.09-1-6-2.12-1.03-.5-4.1-1-6-2.71-1.1.7-5.51-2-6.63-.5-1.92 1.12-4.98-1-6-.03-1.79.02-3.58 0-5.36-2.7-1.13.7-5.54-2-6.63-.03-1.81.02-3.61 0-5.39-2.13-1-.5-4.09-1-5.98-2.12-1.05-.51-4.1-1-6.01-2.11-1.04-.51-4.09-1-5.99-2.1-1.07-.52-4.09-1-6-2.7-1.13.7-5.54-2-6.62-.03-1.81.02-3.61 0-5.39-2.72-1.1.71-5.53-2-6.64-.49-1.92 1.09-4.94-1-5.99-.5-1.92 1.09-4.94-1-6-.03-1.79.02-3.58 0-5.36-2.1-1.07-.52-4.08-1-6-2.71-1.12.7-5.52-2-6.64-.49-1.93 1.09-4.94-1-6-.44-1.61 1.01-4.26-1-4.98-.03-1.8.02-3.59 0-5.38-2.1-1.07-.51-4.09-1-6-2.11-1.06-.51-4.09-1-6-2.71-1.12.7-5.54-2-6.63-.5-1.92 1.12-4.99-1-6-.5-1.93 1.1-4.96-1-6.01-.51-1.91 1.12-4.98-1-5.99-.5-1.92 1.11-4.96-1-6-.51-1.92 1.12-4.99-1-6-.5-1.93 1.1-4.96-1-6.01-.03-1.79.02-3.58 0-5.36-2.05-.86-.55-3.62-1.01-5.31-18.66-.02-37.33-.01-55.99-.01-4.78-1.97-9.11-4.87-13.59-7.41a9004.82 9004.82 0 0 1-57.42-32.54c-4.63-2.24-8.69-5.6-13.61-7.23-.46-.37-1.4-1.11-1.86-1.48 20.5-.09 41.02-.04 61.53-.02 4.25-1.4 9.07-.52 13.61-.83-.78-3.88-3.11-7.37-3.36-11.49-1.29-.94-.71-2.67-1.01-3.98-1.41-3.51-1.41-7.65-.63-11.33 5.42-.64 10.91-.02 16.35-.37 7.22.79 13.89 2.62 21.04 3.29 2.95 1.7 6.79-.03 9.62 1.87 2.96.03 5.75.85 8.69 1.06 3.21 1.72 7.26.15 10.54 1.8 4.35.13 8.56 1.24 12.92 1.28 3.67 1.86 8.22.15 12.04 1.69 5.55.51 10.97 1.44 16.6 1.28.7.71 1.54.97 2.52.78 4.03.09 8.05.42 12.08.43 3.14 1.47 6.97-.5 9.93 1.4 15.82.32 31.64.29 47.46.18.28-.19.84-.58 1.11-.78 4.15.13 8.28-.25 12.43-.28 4.91-1.44 10.55.14 15.17-1.76 13.91-.19 27.43-4.45 38.83-12.54 6.53-4.69 12.97-11.5 13-19.99.42-1.59.7-3.61-.23-5.07.19-4.7-.74-9.41-.3-14.08 2.09-3.3 5.54-5.47 8.7-7.66 6.73-4.69 12.32-11.92 12.47-20.26.17-8.23-4.01-15.54-8.12-22.53-1.75-1.7-1.27-4.37-1.15-6.56 5.14-7.91 13.84-13.04 17.55-21.97.74-3.23 2.51-6.57 1.08-9.87-1.84-10.48-10.08-18.11-16.8-25.89.05-.81.14-2.42.19-3.23 4.85-6.66 12.13-12.09 14.35-20.25 1.11-1.2 1.37-2.99 1.68-4.54.05-3.42 2.05-6.73.6-10.13-1.42-9.81-6.87-19-14.62-25.4-4.7-3.75-10.67-5.09-16.38-6.02-32.73-.09-65.48.15-98.21-.12-3.93-2.21-7.73-5.61-8.18-10.35-.47-4.56 1.65-8.68 3.5-12.67 5.18-8.59 9.93-17.54 14.25-26.49 2.7-6.75 6.49-13.2 8.29-20.24 1.57-1.36 1.15-3.9 2.44-5.46 2.04-7.14 3.52-14.63 3.55-22.26.41-15.68-1.82-31.8-11.26-44.75.6-1.34 1.23-2.67 1.98-3.93zM106 606.01h2.99c.01 35.66.03 71.33-.01 106.99-.74 0-2.23-.01-2.97-.01-.02-35.66 0-71.32-.01-106.98zm89 0c.75 0 2.24 0 2.99-.01.02 89 .01 177.99 0 266.99-13.33.02-26.65.02-39.98 0-.02-2.34-.03-4.67.01-6.99 12.32-.01 24.65.01 36.97-.01.02-86.66 0-173.32.01-259.98zm570 0c.75 0 2.24 0 2.98-.01.03 73.34.03 146.67 0 220-.74 0-2.23 0-2.97-.01-.03-73.32 0-146.65-.01-219.98z"/><path d="M301.01 660.99l.98.02c.01 1.25.01 2.5.01 3.77 2.21 1.12.43 4.8 1 7 1.08.48 1.4 1.45.97 2.89l-.95.62c-.14 2.1.14 4.23-.1 6.34-2.48 1.78.61 5.86-1.79 7.72-.48 2.06.22 4.24-.27 6.31-2.39 1.84.69 5.9-1.77 7.71-.32 2.39.12 4.83-.16 7.24-2.06 1.63-.3 4.75-1.03 6.99-2.46 1.9.68 5.96-1.83 7.79-.34 2.07.25 4.22-.22 6.27-1.96 1.71-.18 4.77-.99 6.99-2.38 1.86.67 5.88-1.75 7.71-.41 2.05.17 4.19-.21 6.27-2.44 1.83.63 5.87-1.77 7.71-.35 1.51-.05 3.1-.13 4.65-1.33.01-2.66.01-3.99 0-.02-1.6-.02-3.19-.01-4.77 2.21-1.13.42-4.82 1-7 2.81-1.11-.82-6.34 2-7.45.56-2.2-1.21-5.86 1-7 .56-2.19-1.21-5.86 1-6.99.56-2.2-1.21-5.88 1-7 .01-2.19-.02-4.38 0-6.56 2.2-1.13.43-4.82 1-7 2.82-1.08-.83-6.39 2-7.42.01-2.53-.02-5.06 0-7.58 2.81-1.11-.82-6.35 2-7.44.01-2.19-.02-4.38 0-6.56 2.82-1.1-.82-6.34 2-7.45.01-2.19-.02-4.37 0-6.55 2.22-1.21.41-4.98 1.01-7.23zm315.99-.02l1 .06c-.01 1.24-.01 2.5 0 3.75 2.21 1.12.42 4.81 1 7 1.08.47 1.4 1.42.97 2.85l-.95.67c-.16 2.1.17 4.22-.12 6.32-2.47 1.83.65 5.92-1.8 7.74-.42 2.06.25 4.24-.25 6.3-2.37 1.89.7 5.9-1.77 7.73-.3 2.39.13 4.82-.16 7.23-2.03 1.64-.32 4.75-1 7-2.51 1.81.65 5.92-1.83 7.77-.34 2.06.16 4.18-.19 6.25-2.46 1.8.64 5.88-1.79 7.72-.42 2.06.19 4.2-.23 6.27-2.41 1.86.63 5.85-1.74 7.72-.51 2.05.21 4.24-.28 6.31-1.72 1.18-.54 3.6-.86 5.33-1.34.01-2.67.01-3.99 0-.03-1.6-.03-3.19-.01-4.77 2.82-1.1-.82-6.34 2-7.45.56-2.19-1.21-5.87 1-6.99.01-2.19-.02-4.38 0-6.56 2.2-1.13.43-4.82 1-6.99 2.2-1.16.44-4.82 1-7.01 2.2-1.14.43-4.82 1-7 2.81-1.1-.82-6.36 2-7.43.56-2.2-1.21-5.87 1-7.02.01-2.52-.03-5.04.01-7.55l.99-.44c.56-2.19-1.21-5.87 1-7 .01-2.2-.02-4.39 0-6.57 2.82-1.07-.81-6.32 2-7.44.01-2.19-.02-4.37 0-6.54 2.22-1.23.41-5.01 1-7.26zm-510.99 92.04c16.33-.02 32.65-.01 48.98 0 .03 2.32 0 4.64.01 6.97-15.33.05-30.66 0-45.99.03-.03 37.66.01 75.32-.02 112.98-13.33.02-26.65.01-39.97 0-.04-2.33-.04-4.67 0-6.99 12.32-.01 24.65.01 36.97-.01.03-37.66-.01-75.32.02-112.98zm175.41 52.01c13.86-.04 27.72-.02 41.58-.01 0 1.55-.01 3.12 0 4.69.26.57.76 1.71 1.01 2.28-13.22.07-26.45-.05-39.67.06-2.35 1.45-.99 4.4-1.34 6.68-2.13.96-.49 4.08-1 5.99-2.72 1.02.72 5.53-2 6.59-.55 2.21 1.18 5.72-1 6.98-.52 1.89 1.13 5.03-1 5.99-.03 1.81.02 3.62 0 5.45-2.13.95-.49 4.08-1 5.98-2.8 1.3.79 6.27-2 7.58-.51 1.9 1.11 5-1 6.01 0 1.22-.01 2.45 0 3.7-14 .02-28 .02-41.99 0-.43-1.53-.1-2.61.99-3.27 0-1.25 0-2.49.01-3.72 12.66-.01 25.32.02 37.99-.01-.01-1.24-.01-2.47 0-3.69 2.72-1.07-.72-5.54 2-6.61.55-2.23-1.19-5.68 1-7.01.02-1.8-.02-3.58 0-5.36 2.7-1.13-.71-5.55 2-6.64.02-1.8-.02-3.58 0-5.35 2.16-1.39.46-4.79 1-7.02 2.11-1.04.5-4.09 1-5.99 2.7-1.13-.7-5.52 2-6.64.35-2.27-1.04-5.27 1.42-6.66zm315.98 0c13.86-.05 27.73-.02 41.6-.01.46 1.68-1.06 4.47.99 5.3 0 .42.01 1.25.02 1.67-13.21.06-26.42-.02-39.63.04-2.41 1.42-1.04 4.39-1.38 6.67-2.73 1.04.72 5.56-2 6.6-.03 1.79.02 3.6 0 5.41-2.2 1.28-.45 4.79-1 7.02-2.73.99.73 5.55-2 6.57-.03 1.79.02 3.6 0 5.42-2.13.99-.49 4.1-1 6.02-2.21 1.23-.44 4.78-1 6.99-2.73 1 .73 5.56-2 6.58-.01 1.22-.01 2.45-.01 3.69-14 .01-27.99.02-41.98-.01-.45-1.54-.12-2.62.99-3.23-.01-1.26 0-2.51.02-3.75 12.66-.01 25.31.02 37.98-.01-.01-1.24-.01-2.46 0-3.68 2.7-1.12-.71-5.53 2-6.63.02-2.13-.03-4.26 0-6.37 2.11-1.03.5-4.09 1-5.99 2.11-1.04.49-4.1 1-6 2.1-1.06.5-4.09 1-6 2.17-1.37.46-4.78 1-7.01 2.71-1.09-.72-5.53 2-6.62.01-1.81-.03-3.6 0-5.38 2.68-1.4-.78-5.87 2.4-7.29zm-79.4 28c.75-.01 2.24-.01 2.98-.02.03 13.33.03 26.66.01 39.99-36.66.01-73.32.02-109.98 0-.03-2.34-.03-4.67.01-6.99 35.65-.01 71.31.01 106.97-.01.02-10.99 0-21.98.01-32.97zm317-.01h2.99c.02 13.32.01 26.65 0 39.98-36.66.02-73.32.01-109.98 0-.03-2.34-.03-4.67.01-6.99 35.65-.01 71.31.01 106.97-.01.02-10.99 0-21.99.01-32.98z"/></g></svg>