<svg xmlns="http://www.w3.org/2000/svg" width="1000" height="676pt" viewBox="0 0 750 676"><path d="M402.62 0h10.01c48.26.66 96.52 1.04 144.78 1.52 59.97 103.6 119.78 207.3 179.59 311-21.72 37.48-43.32 75.02-65 112.52 11.4-2.51 23.2-5.53 34.91-3.53 10.4 2.64 18.16 10.86 24.67 18.94 9.43 12.49 17.11 27.08 18.42 42.91v2.34c-.87 7.37-2.97 14.6-5.97 21.38-1.85 3.99-5.17 8.42-10.08 8.11-4.99-.4-8.06-4.87-11.07-8.31-.66 8.05 2.04 15.76 4.67 23.22 3.76 11.79 6.31 24.48 3.78 36.8-1.33 6.42-3.8 13.05-8.87 17.46-3.05 2.74-7.77 3.85-11.49 1.82-4.22-2.25-6.45-6.83-7.79-11.21-2.33-7.97-5.38-16.01-10.87-22.37-2.73-3.26-7.22-3.67-11.15-4.16-11.31-1.07-22.66-1.54-33.99-2.14 11.65 9.76 25.14 18.08 33.33 31.26 5.35 8.84 9.45 18.44 12.41 28.33 2.95 9.56 0 19.67-3.43 28.68-3.62 8.67-8.33 17.22-15.5 23.45-3.3 2.81-7.99 5.04-12.29 3.22-4.31-1.75-6.5-6.36-7.04-10.74-1.4-9.95-.13-20.06-1.34-30.03-.35-2.98-1.57-6-4.13-7.74-5.21-3.74-11.29-5.96-16.93-8.93-9.91-5.15-20.08-10.65-27.14-19.56-2.01.79-4 1.59-5.97 2.44 6.48 3.96 14.1 6.12 19.63 11.57 7.5 6.69 10.39 17.03 10.5 26.8.06 9.3-.48 19.05-4.78 27.49-4.09 7.93-11.44 13.45-18.82 18.12-4.39 2.83-9.52 4.1-14.53 5.34h-3.34c-4.76-1.15-10.11-2.5-13.06-6.78-2.12-2.77-2.37-6.6-1.06-9.77 2.73-7.01 8.26-12.42 11.57-19.11 1.76-3.26.04-7-1.68-9.88-4.07-5.98-11.47-9.2-18.57-9.23-3.64-.33-6.37 2.93-9.97 2.71-101.33-.09-202.66-.01-303.99-.04-17.75-.09-35.51.19-53.25-.14-2.36-3.5-6.95-3.79-10.69-4.68-10-1.35-22.01 5.19-23.15 15.92 2.2 9.26 11.41 15.37 13.09 24.93.82 5.66-3.94 10.47-9.01 12.04-8.07 2.54-17.04.57-24.05-3.92-7.17-4.57-14.3-9.96-18.34-17.64-4.39-8.4-4.94-18.13-4.93-27.42.07-9.77 2.85-20.13 10.28-26.92 5.62-5.56 13.32-7.91 20.03-11.76-1.96-.82-3.89-1.74-5.97-2.22-2.85 2.08-4.75 5.18-7.58 7.3-8.4 6.44-17.88 11.25-27.41 15.77-5.62 2.75-13.15 5.7-13.4 13.07-1.31 10.55.36 21.31-1.69 31.79-.87 4.82-4.78 9.49-9.97 9.5-6.07-.24-10.64-4.97-14.25-9.37-7.83-10.16-13.14-22.41-14.72-35.17-.92-6.41 1.25-12.67 3.4-18.61 4.42-11.61 9.78-23.32 18.83-32.1 7.58-7.47 16.37-13.55 24.52-20.35-11.29.6-22.59 1.05-33.85 2.11-3.82.51-8.17.83-10.94 3.86-4.33 4.78-7.11 10.76-9.3 16.77-1.86 5.43-2.94 11.64-7.48 15.61-3.24 3.1-8.54 3.36-12.18.8-5.5-3.69-8.26-10.16-9.87-16.34-3.32-13.07-.68-26.75 3.39-39.32 2.63-7.35 5.17-14.99 4.58-22.91-3.03 3.44-6.1 7.9-11.09 8.29-4.79.33-8.12-3.96-9.95-7.85C3.02 498.21 1 490.98 0 483.66v-3.21c1.68-16.73 10.06-32.11 20.51-44.99 6.86-7.96 15.44-16.16 26.5-16.9 11.86-.65 23.53 2.32 34.97 5.11-21.39-37.11-42.88-74.16-64.21-111.3C78.23 209.6 138.61 106.77 199.04 3.98c51.63-.55 103.25-1 154.88-1.57 5.54 9.87 10.97 19.84 15.4 30.27 1.72 3.96 2.42 8.24 3.08 12.47-5.14-.99-10.45-1.52-15.6-.27-14.25 3.1-27.64 9.11-40.88 15.07-18.61 8.62-36.77 18.17-54.83 27.87 21.5 2.11 43.15-3.06 62.5-12.31 18.53-8.73 35.54-20.24 52.74-31.26-1.08-2.3-2.16-4.6-3.21-6.9 2.37 1.5 4.74 3.02 7.1 4.54 1.54-1.18 3.05-2.38 4.6-3.56.69-3.26 1.64-6.48 3-9.53 4.36-9.88 9.5-19.4 14.8-28.8m-8.83 34.05c11.72 1.03 22.84 5.19 33.67 9.52 31.29 12.96 60.85 29.63 90.81 45.32-4.53 1.2-9.17 1.94-13.76 2.84-21.51 3.87-43.89.76-64.12-7.24-17.52-6.78-33.56-16.71-49.39-26.69 17.41 37.31 34.87 74.6 52.31 111.91 49.41-.31 98.83-.63 148.24-.97-1.29 9.36-2.38 18.8-1.94 28.26.42 14.34 4.72 29.08 14.65 39.77 12.1 13.18 28.66 20.78 42.91 31.24-14.84 9.16-26.91 22.25-36.39 36.77-8.76 13.69-15.31 29.57-14.62 46.09 22.78 24.07 45.37 48.33 68.31 72.25 21.16-37 42.68-73.79 63.82-110.79C669.8 211.3 611.55 110.13 553.13 9.06c-48.71-.48-97.42-.99-146.13-1.47-4.76 8.64-9.39 17.37-13.21 26.46m-190.4-22.58c-58.95 100.41-118.12 200.69-176.9 301.2 21.33 36.4 42.14 73.1 63.43 109.53 22.16-23.3 44.32-46.59 66.49-69.88 1.6-1.3 1.44-3.44 1.52-5.28.13-12.81-2.99-25.48-7.7-37.33-5.15-12.34-12.37-24.74-24.06-31.89-6.27-4.03-13.94-3.89-21.04-5.11 18.08-11.33 36.92-22.23 51.5-38.1 8.43-9.14 14.98-20.82 15.09-33.53.36-10.7-3.75-20.81-8.27-30.28 49.34-.39 98.69-.52 148.03-1.06 17.75-36.48 35.83-72.81 53.63-109.27-9.99 6.31-20.03 12.57-30.53 18.01-20.46 10.79-43.32 18.09-66.65 17.27-10.15-.11-20.06-2.44-29.98-4.33 28.92-15.06 57.41-31.1 87.44-43.9 12.01-4.94 24.31-9.89 37.36-11.05-3.79-9.07-8.48-17.72-13.09-26.39-48.76.33-97.52.93-146.27 1.39m178.73 30.01c.5 2.96 3.78 3.78 5.86 5.39 20.31 12.97 40.81 26.44 64.01 33.69 13.91 4.42 28.69 6.2 43.25 4.83-24.92-13.48-50.05-26.81-76.48-37.13-11.04-3.98-22.88-8.56-34.74-5.5l.79-2.31c-.67.26-2.02.77-2.69 1.03m-66.04 135.85c-47.03.33-94.05.64-141.08.91 2.15 6.05 3.83 12.32 4.18 18.75.92 12.65-3.53 25.22-10.98 35.33-10.75 14.62-25.65 25.45-40.71 35.25-.9.36-2.24 1.75-.46 2.15 12.26 6.06 20.74 17.57 26.75 29.54 7.07 14.48 11.49 30.45 11.72 46.63 35.85.1 71.7.02 107.55.04.02-25.88-.02-51.76.02-77.65 12.58-7.18 25.07-14.52 37.67-21.67 12.44 7.29 24.96 14.44 37.45 21.65.05 25.89.02 51.78.02 77.67 19.45 0 38.9.02 58.35-.01 0-25.89-.05-51.77.02-77.66 12.55-7.17 25.04-14.43 37.56-21.65a72410.8 72410.8 0 0 1 37.57 21.68c.02 25.88-.01 51.76.01 77.64 35.62 0 71.24.01 106.85 0 .75-16.56 7.41-32.27 16.37-46.01 7.92-12.01 17.59-22.93 28.87-31.89-15-9.75-31.57-18.78-41.36-34.36-10.86-16.9-11.66-37.96-9.51-57.35-48.12.41-96.23.59-144.35.99-20.01-42.49-39.78-85.09-59.74-127.61-20.95 42.53-41.83 85.09-62.77 127.63m-35.49 95.35c.02 13.18-.01 26.36.01 39.53-.25 1.36.64 2.47 1.13 3.65 3.86-8.16 8.9-15.71 13.25-23.62 10.45.02 20.91-.05 31.37.03 4.17 7.62 8.9 14.92 12.81 22.68.51-.76 1.03-1.52 1.55-2.28-.08-13.33-.02-26.66-.03-40-9.98-5.82-20.01-11.53-29.99-17.35a8107.86 8107.86 0 0 0-30.1 17.36m133.46.07c.1 27.43.02 54.86.04 82.3 10.02 5.78 20.04 11.54 30.05 17.34 10.02-5.76 20.02-11.56 30.03-17.34.01-27.46-.01-54.92.01-82.38-9.99-5.82-20.02-11.56-30.02-17.35-10.03 5.82-20.12 11.53-30.11 17.43m-110.39 34.59c-3.01 5.27-6.06 10.52-9.09 15.78-4.72-2.58-9.19-5.62-14.12-7.81.33 13.24.06 26.49.15 39.74 10.03 5.76 20.04 11.56 30.06 17.34 10-5.78 20.01-11.55 30.01-17.34.07-13.31-.13-26.63.11-39.95-4.74 2.56-9.35 5.34-14.01 8.04-3.13-5.23-6.12-10.53-9.17-15.8-4.65-.01-9.29-.02-13.94 0m-140.55 46.02c.26.43.78 1.28 1.03 1.7-23.36 24.74-46.9 49.31-70.33 73.99 36.03 62.45 72.08 124.89 108.14 187.32 116.97-.01 233.94.02 350.9-.01 35.85-62.13 71.73-124.23 107.57-186.35-23.51-25.02-47.17-49.9-70.62-74.97.26-.42.8-1.26 1.06-1.68-36.38.27-72.76 0-109.15.14-.01 1.98-.01 3.96-.02 5.95-12.55 7.17-25.02 14.46-37.56 21.65-12.52-7.26-25.08-14.46-37.59-21.75 0-1.96.01-3.92.01-5.88-19.44-.01-38.89 0-58.34-.01.01 1.95.02 3.9.05 5.86-12.43 7.37-25.05 14.41-37.48 21.76-12.51-7.08-24.98-14.26-37.36-21.57-.66-1.94-.35-4.09-.53-6.1-36.59.07-73.19.16-109.78-.05M31.44 433.5c-8.42 7.98-14.9 17.87-19.65 28.42-3.59 8.46-6.76 18-4.1 27.19 1.45 5.27 2.75 10.77 5.79 15.4.69.97 2 2.54 3.23 1.27 4.14-2.99 6.46-7.76 8.97-12.06 4.18-8.17 8.78-16.19 14.65-23.28 4.47-5.69 10.78-9.41 16.54-13.62 8.65 7.74 17.85 14.93 28.16 20.36 5.44 3.13 11.48 5.42 16.32 9.47 2.37 2.24.84 6.11-2.44 5.96-17.6.76-35.19-1.65-52.78-1-5.22-.07-8.92 4.24-11.32 8.36-1.85 3.07-.85 6.72-1.1 10.09-.64 10.41-5.86 19.74-7.74 29.89-2.54 11.19-2.85 23.82 3.23 33.97 1.5 2.31 4.54 5.8 7.46 3.57 3.27-2.91 3.9-7.5 5.26-11.44 2.52-7.49 5.97-14.88 11.34-20.78 3.92-4.39 10.05-5.3 15.59-5.87 12.67-1.15 25.4-1.63 38.1-2.33 2.56 0 5.49-.52 7.67 1.18 1.37 1.73.47 4.02-1.09 5.26-8.99 8.05-18.99 14.89-27.99 22.94-11.44 9.96-17.46 24.44-22.02 38.56-1.94 5.55-.9 11.51.56 17.05 2.54 9.09 6.71 17.84 12.78 25.11 2.21 2.44 4.66 5.17 8.05 5.77 2.33-.21 3.34-2.79 3.71-4.78 2.01-11.6-.55-23.65 2.45-35.11 2.48-8.19 11.26-11.33 18.18-14.83 8.38-4.01 16.67-8.35 24.08-13.97 3.92-2.87 6.18-8.62 11.69-8.72 4.22.33 8.28 2.32 11.57 4.93 2.74 2.15 2.2 6.54-.58 8.41-6.34 4.68-14.6 6.23-20.33 11.86-6.76 6.05-8.52 15.61-8.37 24.28.17 9.16.89 19.21 7 26.58 4.15 4.95 9.54 8.71 15.07 11.97 5.13 2.74 11.43 3.9 17.04 1.98 2.13-.82 4.85-2.87 3.92-5.48-2.84-7.72-9.44-13.39-12.33-21.1-1.83-5.08.41-10.52 3.1-14.84 5.93-8.5 16.8-12.69 26.96-11.79-34.61-59.87-69.17-119.76-103.73-179.66-.83-2.16-3.29-2.36-5.2-2.91-10.2-2.45-20.58-5.04-31.15-4.65-6.47.15-11.97 4.18-16.55 8.39m635.13-.11c-34.79 60.5-69.73 120.92-104.65 181.34 10.3-.93 21.38 3.41 27.23 12.17 2.46 4.16 4.54 9.28 2.93 14.13-2.76 7.74-9.29 13.4-12.3 21-1.34 2.88 1.74 5.29 4.2 6.04 7.6 2.4 15.67-.74 21.75-5.35 7.72-5 14.47-12.43 15.78-21.86 1.64-11.16 2.65-23.77-3.72-33.71-5.09-7.88-14.58-10.31-22.24-14.76-3.1-1.54-5.47-5.69-2.89-8.74 3.23-3.23 7.81-5.32 12.36-5.72 5.13.08 7.49 5.27 10.98 8.16 9.24 7.34 20.09 12.2 30.6 17.39 5.33 2.64 10.99 6.32 12.49 12.49 2.67 11.19.41 22.86 2.2 34.16.36 2.15 1.26 4.78 3.71 5.26 4.46-1.02 7.44-4.91 10.14-8.33 6.36-8.89 10.84-19.28 12.24-30.16.9-5.85-1.5-11.46-3.39-16.87-4.08-10.45-8.91-21.02-17.13-28.9-9.57-9.24-20.82-16.51-30.62-25.47-1.82-1.34-2.19-4.43-.07-5.66 2.5-.93 5.22-.53 7.83-.49 12.35.69 24.73 1.15 37.06 2.27 5.46.58 11.53 1.42 15.47 5.66 6.9 7.44 10.56 17.18 13.35 26.77 1.05 2.67 2.61 6.73 6.11 6.36 3.91-1.54 5.85-5.7 7.31-9.37 4.39-12.07 2.16-25.26-1.44-37.22-2.36-7.15-5.2-14.31-5.59-21.92-.19-3.14.67-6.51-.93-9.41-2.47-4.6-6.74-9.07-12.4-8.72-16.99-.39-33.95 1.66-50.95 1.14-2.03.11-4.33-.87-4.66-3.08.38-1.86 1.49-3.56 3.18-4.48 7.31-4.55 15.29-7.94 22.49-12.69 7.37-4.37 13.7-10.19 20.25-15.64 4.44 3.4 9.26 6.35 13.32 10.22 7.71 8.02 13.16 17.84 18.25 27.64 2.67 4.45 5.14 9.63 10.09 11.95 4.42-5.23 5.94-12.09 7.66-18.55 1.52-5.77.5-11.82-1.15-17.44-3.51-11.42-9.59-21.99-17.21-31.16-4.18-4.86-8.87-9.48-14.63-12.41-4.77-2.46-10.34-2.14-15.52-1.71-9.32.96-18.5 3.08-27.49 5.67M36.14 487.96c3.65-2 7.72-3.14 11.9-3.09 13.15-.22 26.27 1.09 39.42 1.14-11.02-5.78-21.74-12.33-30.9-20.82-9.09 5.24-15.03 14.05-20.42 22.77m626.37.47c13.2-.1 26.36-1.38 39.56-1.16 4.14 0 8.26 1.03 11.81 3.2-3.37-5.34-6.75-10.74-11.03-15.41-2.69-2.94-6.11-5.06-9.23-7.48-9.37 8.34-19.99 15.1-31.11 20.85z"/><path d="M428.46 292.25c10.44-.03 20.88-.01 31.33-.02 4.5 7.79 8.99 15.58 13.49 23.37-4.36 2.51-8.71 5.03-13.06 7.55-3.05-5.28-6.09-10.55-9.14-15.82h-13.89c-3.05 5.26-6.09 10.53-9.13 15.79-4.36-2.5-8.7-5.03-13.06-7.52 4.47-7.79 8.99-15.56 13.46-23.35z"/><path fill="red" d="M393.79 34.05c3.82-9.09 8.45-17.82 13.21-26.46 48.71.48 97.42.99 146.13 1.47C611.55 110.13 669.8 211.3 728.29 312.33c-21.14 37-42.66 73.79-63.82 110.79-22.94-23.92-45.53-48.18-68.31-72.25-.69-16.52 5.86-32.4 14.62-46.09 9.48-14.52 21.55-27.61 36.39-36.77-14.25-10.46-30.81-18.06-42.91-31.24-9.93-10.69-14.23-25.43-14.65-39.77-.44-9.46.65-18.9 1.94-28.26-49.41.34-98.83.66-148.24.97-17.44-37.31-34.9-74.6-52.31-111.91 15.83 9.98 31.87 19.91 49.39 26.69 20.23 8 42.61 11.11 64.12 7.24 4.59-.9 9.23-1.64 13.76-2.84-29.96-15.69-59.52-32.36-90.81-45.32-10.83-4.33-21.95-8.49-33.67-9.52zm-190.4-22.58c48.75-.46 97.51-1.06 146.27-1.39 4.61 8.67 9.3 17.32 13.09 26.39-13.05 1.16-25.35 6.11-37.36 11.05-30.03 12.8-58.52 28.84-87.44 43.9 9.92 1.89 19.83 4.22 29.98 4.33 23.33.82 46.19-6.48 66.65-17.27 10.5-5.44 20.54-11.7 30.53-18.01-17.8 36.46-35.88 72.79-53.63 109.27-49.34.54-98.69.67-148.03 1.06 4.52 9.47 8.63 19.58 8.27 30.28-.11 12.71-6.66 24.39-15.09 33.53-14.58 15.87-33.42 26.77-51.5 38.1 7.1 1.22 14.77 1.08 21.04 5.11 11.69 7.15 18.91 19.55 24.06 31.89 4.71 11.85 7.83 24.52 7.7 37.33-.08 1.84.08 3.98-1.52 5.28-22.17 23.29-44.33 46.58-66.49 69.88-21.29-36.43-42.1-73.13-63.43-109.53 58.78-100.51 117.95-200.79 176.9-301.2zm-40.28 341.89c36.59.21 73.19.12 109.78.05.18 2.01-.13 4.16.53 6.1 12.38 7.31 24.85 14.49 37.36 21.57 12.43-7.35 25.05-14.39 37.48-21.76-.03-1.96-.04-3.91-.05-5.86 19.45.01 38.9 0 58.34.01 0 1.96-.01 3.92-.01 5.88 12.51 7.29 25.07 14.49 37.59 21.75 12.54-7.19 25.01-14.48 37.56-21.65.01-1.99.01-3.97.02-5.95 36.39-.14 72.77.13 109.15-.14-.26.42-.8 1.26-1.06 1.68 23.45 25.07 47.11 49.95 70.62 74.97-35.84 62.12-71.72 124.22-107.57 186.35-116.96.03-233.93 0-350.9.01-36.06-62.43-72.11-124.87-108.14-187.32 23.43-24.68 46.97-49.25 70.33-73.99-.25-.42-.77-1.27-1.03-1.7zM31.44 433.5c4.58-4.21 10.08-8.24 16.55-8.39 10.57-.39 20.95 2.2 31.15 4.65 1.91.55 4.37.75 5.2 2.91 34.56 59.9 69.12 119.79 103.73 179.66-10.16-.9-21.03 3.29-26.96 11.79-2.69 4.32-4.93 9.76-3.1 14.84 2.89 7.71 9.49 13.38 12.33 21.1.93 2.61-1.79 4.66-3.92 5.48-5.61 1.92-11.91.76-17.04-1.98-5.53-3.26-10.92-7.02-15.07-11.97-6.11-7.37-6.83-17.42-7-26.58-.15-8.67 1.61-18.23 8.37-24.28 5.73-5.63 13.99-7.18 20.33-11.86 2.78-1.87 3.32-6.26.58-8.41-3.29-2.61-7.35-4.6-11.57-4.93-5.51.1-7.77 5.85-11.69 8.72-7.41 5.62-15.7 9.96-24.08 13.97-6.92 3.5-15.7 6.64-18.18 14.83-3 11.46-.44 23.51-2.45 35.11-.37 1.99-1.38 4.57-3.71 4.78-3.39-.6-5.84-3.33-8.05-5.77-6.07-7.27-10.24-16.02-12.78-25.11-1.46-5.54-2.5-11.5-.56-17.05 4.56-14.12 10.58-28.6 22.02-38.56 9-8.05 19-14.89 27.99-22.94 1.56-1.24 2.46-3.53 1.09-5.26-2.18-1.7-5.11-1.18-7.67-1.18-12.7.7-25.43 1.18-38.1 2.33-5.54.57-11.67 1.48-15.59 5.87-5.37 5.9-8.82 13.29-11.34 20.78-1.36 3.94-1.99 8.53-5.26 11.44-2.92 2.23-5.96-1.26-7.46-3.57-6.08-10.15-5.77-22.78-3.23-33.97 1.88-10.15 7.1-19.48 7.74-29.89.25-3.37-.75-7.02 1.1-10.09 2.4-4.12 6.1-8.43 11.32-8.36 17.59-.65 35.18 1.76 52.78 1 3.28.15 4.81-3.72 2.44-5.96-4.84-4.05-10.88-6.34-16.32-9.47-10.31-5.43-19.51-12.62-28.16-20.36-5.76 4.21-12.07 7.93-16.54 13.62-5.87 7.09-10.47 15.11-14.65 23.28-2.51 4.3-4.83 9.07-8.97 12.06-1.23 1.27-2.54-.3-3.23-1.27-3.04-4.63-4.34-10.13-5.79-15.4-2.66-9.19.51-18.73 4.1-27.19 4.75-10.55 11.23-20.44 19.65-28.42zm635.13-.11c8.99-2.59 18.17-4.71 27.49-5.67 5.18-.43 10.75-.75 15.52 1.71 5.76 2.93 10.45 7.55 14.63 12.41 7.62 9.17 13.7 19.74 17.21 31.16 1.65 5.62 2.67 11.67 1.15 17.44-1.72 6.46-3.24 13.32-7.66 18.55-4.95-2.32-7.42-7.5-10.09-11.95-5.09-9.8-10.54-19.62-18.25-27.64-4.06-3.87-8.88-6.82-13.32-10.22-6.55 5.45-12.88 11.27-20.25 15.64-7.2 4.75-15.18 8.14-22.49 12.69-1.69.92-2.8 2.62-3.18 4.48.33 2.21 2.63 3.19 4.66 3.08 17 .52 33.96-1.53 50.95-1.14 5.66-.35 9.93 4.12 12.4 8.72 1.6 2.9.74 6.27.93 9.41.39 7.61 3.23 14.77 5.59 21.92 3.6 11.96 5.83 25.15 1.44 37.22-1.46 3.67-3.4 7.83-7.31 9.37-3.5.37-5.06-3.69-6.11-6.36-2.79-9.59-6.45-19.33-13.35-26.77-3.94-4.24-10.01-5.08-15.47-5.66-12.33-1.12-24.71-1.58-37.06-2.27-2.61-.04-5.33-.44-7.83.49-2.12 1.23-1.75 4.32.07 5.66 9.8 8.96 21.05 16.23 30.62 25.47 8.22 7.88 13.05 18.45 17.13 28.9 1.89 5.41 4.29 11.02 3.39 16.87-1.4 10.88-5.88 21.27-12.24 30.16-2.7 3.42-5.68 7.31-10.14 8.33-2.45-.48-3.35-3.11-3.71-5.26-1.79-11.3.47-22.97-2.2-34.16-1.5-6.17-7.16-9.85-12.49-12.49-10.51-5.19-21.36-10.05-30.6-17.39-3.49-2.89-5.85-8.08-10.98-8.16-4.55.4-9.13 2.49-12.36 5.72-2.58 3.05-.21 7.2 2.89 8.74 7.66 4.45 17.15 6.88 22.24 14.76 6.37 9.94 5.36 22.55 3.72 33.71-1.31 9.43-8.06 16.86-15.78 21.86-6.08 4.61-14.15 7.75-21.75 5.35-2.46-.75-5.54-3.16-4.2-6.04 3.01-7.6 9.54-13.26 12.3-21 1.61-4.85-.47-9.97-2.93-14.13-5.85-8.76-16.93-13.1-27.23-12.17 34.92-60.42 69.86-120.84 104.65-181.34z"/><g fill="#fff"><path d="M280.59 272.68c10.02-5.8 20.05-11.6 30.1-17.36 9.98 5.82 20.01 11.53 29.99 17.35.01 13.34-.05 26.67.03 40-.52.76-1.04 1.52-1.55 2.28-3.91-7.76-8.64-15.06-12.81-22.68-10.46-.08-20.92-.01-31.37-.03-4.35 7.91-9.39 15.46-13.25 23.62-.49-1.18-1.38-2.29-1.13-3.65-.02-13.17.01-26.35-.01-39.53zm133.46.07c9.99-5.9 20.08-11.61 30.11-17.43 10 5.79 20.03 11.53 30.02 17.35-.02 27.46 0 54.92-.01 82.38-10.01 5.78-20.01 11.58-30.03 17.34-10.01-5.8-20.03-11.56-30.05-17.34-.02-27.44.06-54.87-.04-82.3m14.41 19.5c-4.47 7.79-8.99 15.56-13.46 23.35 4.36 2.49 8.7 5.02 13.06 7.52 3.04-5.26 6.08-10.53 9.13-15.79h13.89c3.05 5.27 6.09 10.54 9.14 15.82 4.35-2.52 8.7-5.04 13.06-7.55-4.5-7.79-8.99-15.58-13.49-23.37-10.45.01-20.89-.01-31.33.02z"/><path d="M303.66 307.34c4.65-.02 9.29-.01 13.94 0 3.05 5.27 6.04 10.57 9.17 15.8 4.66-2.7 9.27-5.48 14.01-8.04-.24 13.32-.04 26.64-.11 39.95-10 5.79-20.01 11.56-30.01 17.34-10.02-5.78-20.03-11.58-30.06-17.34-.09-13.25.18-26.5-.15-39.74 4.93 2.19 9.4 5.23 14.12 7.81 3.03-5.26 6.08-10.51 9.09-15.78z"/></g></svg>