<svg height="512pt" viewBox="0 0 512 512" width="512pt" xmlns="http://www.w3.org/2000/svg"><path d="m298.54 12.75c6.4-1.27 13.02-.05 19.43-1.34 10.68-.32 21.37-.29 32.06-.19 19.18 1.91 38.56 5.02 56.42 12.6l1.93.52c4.25 2.25 8.85 3.73 13.06 6.07l.16.08c17.56 9.52 33.91 21.78 46.57 37.33 8.36 9.85 15.05 21.06 20.43 32.78.33.97.68 1.94 1.05 2.91 1.18 2.27 2.1 4.67 2.94 7.1.5 1.69 1.08 3.36 1.55 5.07l.47.82c3.02 11.99 5.67 24.15 6.2 36.53.02 79.65.01 159.3.01 238.94.26 13.8-2.56 27.51-7.25 40.45-.64 1.37-1.28 2.73-1.91 4.09-1.01 2.8-2.36 5.45-3.97 7.96-11.37 21.52-30.67 38.79-53.27 47.8-22.26 9.15-47.42 11.16-70.8 5.36-5.81-1.64-11.72-3.18-17.1-5.98-.97-.37-1.94-.72-2.91-1.05-1.36-.67-2.72-1.33-4.05-2.02l-.16-.08c-9.24-5.07-18.01-11.11-25.28-18.79-.31-.97-.93-1.63-1.88-1.98-8.87-8.53-16.08-18.91-20.9-30.23-.65-1.36-1.31-2.72-1.94-4.08-1.4-4.31-2.93-8.58-3.99-13-1.94-8.32-3.67-16.8-3.33-25.39-.43-6.31-.87-12.71-3.25-18.64a27.63 27.63 0 0 0 -10.21-10.21c-6.06-2.54-12.73-3.04-19.18-1.97-8.33 2.15-16.45 8.29-17.95 17.19-2.36 12.92-1.41 26.24-4.87 38.99-.93 3.35-1.88 6.69-3.02 9.98-1.15 3.45-2.69 6.75-4.36 9.98-11.62 25.54-34.38 45.35-60.89 54.26-10.79 3.54-22.04 5.43-33.35 6.17-15.4.35-31.02-1.95-45.42-7.51-28.76-10.18-52.55-33.88-62.19-62.91-4.08-12.72-5.52-26.07-6.18-39.33-.45-13.93.59-27.9 3.58-41.51.67-5.74 2.18-11.36 3.6-16.94 1.83-6.43 3.75-12.85 6.36-19.01 3.07-8.36 6.95-16.45 11.58-24.06 16.97-30.24 44.17-54.03 75.16-69.19 6.52-3.25 13.14-6.37 20.1-8.57 2.59-1.23 5.32-2.11 8.08-2.88l.85-.47c17.43-4.71 35.84-9.91 53.91-5.67 2.52.44 4.69 1.81 5.66 4.25-1.86 2.69-4.35 4.86-7.54 5.74-9.39 2.81-18.89 5.29-28.17 8.5-2.93 1.52-6.01 2.7-9.07 3.94-5.81 3.46-11.73 6.89-16.7 11.55-1.18 1.13-2.43 2.22-3.87 3.04-1.01.37-1.56 1.09-1.66 2.16-9.12 9.01-16 20.01-21.42 31.57-4.28 10.32-7.73 21-10.1 31.92-.69 1.96-.75 4.04-.93 6.09l-.55.83c-1.32 9.21-2.94 18.4-3.39 27.71-1.62 7.22-.17 14.71-1.65 21.95-.19 7.63-.67 15.36.7 22.92.93 8.6 3.86 17.15 9.57 23.78 3.63 3.05 7.8 5.69 12.58 6.37 2.87.23 5.76.13 8.63-.15 1.33-.43 2.7-.75 4.08-1.05 4.39-1.74 8.25-4.45 11.2-8.15 4.45-6.65 3.91-14.83 4.63-22.46.82-3.48.6-7.07.95-10.61.9-2.26.73-4.72.95-7.09l.56-.85c.81-4.79 2.16-9.46 3.55-14.1.34-1.01.69-2.02 1.03-3.02 1.41-3.32 2.54-6.75 4.27-9.93 3.18-6.83 7.13-13.28 11.83-19.18 9.51-11.03 20.54-21.12 33.95-27.18 1.04-.5 2.07-1.03 3.12-1.53 1.63-.8 3.27-1.61 4.94-2.34 1.71-.55 3.36-1.24 5-1.97 2.02-.64 4.03-1.31 6.04-2 4.31-1.09 8.65-2.12 13.01-3.02 5.35-1.32 10.87-1.13 16.28-2.06 7.86-.66 15.67.14 23.46 1.11 1.65.54 3.39.74 5.11.95l.86.46c8.38 1.72 16.33 5.05 24.11 8.54.05.02.13.06.18.08 19.79 10.37 37.71 25.83 47.62 46.15.25.5.75 1.49 1.01 1.99 1.69 3.16 2.91 6.53 4 9.94 1.07 2.23 1.68 4.64 2.36 7.02 1.35 3.92 1.99 8.02 2.98 12.03 1 6.09 1.47 12.23 2.22 18.34-.2 5.64.62 11.23 2.27 16.62 2.29 5.95 7.47 10.08 13.31 12.27 5.14 1.94 10.75 1.33 16.11 1.04 1.34-.44 2.72-.75 4.1-1.05 4.7-2.04 9.25-5 11.5-9.79 2.19-3.5 2.83-7.61 3.78-11.54.64-17.15.12-34.33.29-51.49-.05-60.69.08-121.37-.07-182.06-.76-9.04-1.88-18.36-6.16-26.52-5.21-11.77-15.36-20.61-26.4-26.8-2.71-1.02-5.38-2.13-7.95-3.45-12.03-4.18-24.87-6.07-37.59-5.21-2.26.29-4.46.98-6.66 1.55-9.09 1.8-17.89 4.95-27.03 6.57l-.83.52c-1.35.16-2.7.33-4.03.53-6.27 1.25-12.59 2.43-18.96 3.02-5.77 1.03-11.66 1.73-17.55 1.81-10.74 1.39-21.8 1.35-32.34-1.36a72.313 72.313 0 0 1 -12.64-4.43c-6.89-6.89-15.73-12.37-19.68-21.69-1.27-2.72-2.59-5.42-4.02-8.05-1.81-7.52-4.51-15.06-3.97-22.9l.52-.89c.79-3.08 2.08-6.19 4.45-8.39.99-.33 1.61-1.01 1.87-2.01.35-.4 1.06-1.19 1.42-1.59 7.15-6.37 16.14-10.23 25.08-13.38.48-.13 1.45-.37 1.94-.49 1.31-.5 2.64-.96 3.97-1.45 22.16-6.31 45.03-10.12 67.99-11.61m-33.23 23.59c-7.98 2.35-11.93 12.74-7.48 19.78 3.54 6.64 12.93 9.1 19.21 4.88 7.24-4.1 8.74-15.06 2.8-20.91-3.47-4.26-9.47-5.21-14.53-3.75z" fill="#b7e4cf"/><path d="m421.44 30.41.16.08zm-156.13 5.93c5.06-1.46 11.06-.51 14.53 3.75 5.94 5.85 4.44 16.81-2.8 20.91-6.28 4.22-15.67 1.76-19.21-4.88-4.45-7.04-.5-17.43 7.48-19.78zm40.14 253.08c.05.02.13.06.18.08-.05-.02-.13-.06-.18-.08zm33.95 199.08.16.08z" fill="#2a2f33"/><path d="m123.56 73.08c3.63.12 7.48-.77 10.95.61 2.08.32 4.06 1.05 5.94 1.99 4.22 1.42 8.06 3.71 12.06 5.65 3.3 1.26 6.71 2.21 10 3.5 2.03.22 4.19.04 6.05 1.04 4-.08 8.28.91 12.09-.61 3.98-.33 7.99-.25 11.99-.26.25.64.76 1.91 1.02 2.55 2.51 3.7 4.66 7.73 8.06 10.73 2.42 2.06 4.19 5.19 7.41 6.06-.39.39-1.18 1.17-1.58 1.55-1.34.07-2.67.15-4 .26-1.54.87-3.32.85-5.02 1.08-2.19 1.01-4.65.71-6.98.93-4.82 2.08-10.35-.35-15.21 1.53-2.34.27-4.82-.03-7 1.03-.47.11-1.41.32-1.88.42-2.31 1.23-4.64 2.41-7.01 3.51-2.66 1.91-5.21 3.97-8.03 5.65-2.43 2.1-5.12 3.86-7.87 5.5-1.37.52-2.72 1.04-4.07 1.57-4.17 1.07-8.72.93-12.91.07-.89-.61-1.79-1.21-2.7-1.79 5.2-5.83 11.93-9.9 17.73-15.05 1.77-2.35 3.81-4.49 5.4-6.98.04-2.41.24-4.88-.5-7.22-4.04-5.75-10.7-8.64-15.93-13.1-3.73-2.69-8.29-4.58-10.85-8.59.71-.41 2.13-1.22 2.84-1.63z" fill="#de2e43"/></svg>