<svg clip-rule="evenodd" fill-rule="evenodd" stroke-linejoin="round" stroke-miterlimit="2" viewBox="0 0 222 195" xmlns="http://www.w3.org/2000/svg"><g fill-rule="nonzero" transform="translate(-4.45 -13.105)"><path d="m96.34 14.16c.4-.07 1.21-.22 1.62-.29 15.44-2.07 30.91.53 46.25 2.28-.04 1.48-.07 2.96-.12 4.44-1.77-.2-3.54-.37-5.3-.62-.64-.12-1.91-.38-2.55-.5-2.84-2.83-6.99-2.95-10.72-3.36-7.71-.58-15.62-1.73-23.19.48-10 2.51-20.15 4.27-30.2 6.53.67 1.65 1.33 3.3 2 4.96-1.83.05-3.65.18-5.48.26-.66-.06-1.99-.17-2.65-.22 3.24-3.05 5.59-7.64 10.17-8.92 6.67-1.85 13.54-3 20.17-5.04z" fill="#ccaa5b"/><path d="m102.33 16.59c7.57-2.21 15.48-1.06 23.19-.48 3.73.41 7.88.53 10.72 3.36 2.09 3.75 2.72 8.71 6.33 11.37 10.14 2.25 21.31.57 30.61 5.93 1.64.95 2.54 2.69 3.55 4.21.26.42.78 1.25 1.04 1.66-.37-.25-1.1-.74-1.46-.99-9.84-7.38-22.65-7.2-34.21-5.17-3.08-4.43-5.77-9.15-9.03-13.45-3.56-2.14-8-2.06-11.95-2.86-3.27-.42-6.51-1.58-9.85-1.15-10.46 1.24-20.76 3.61-31.25 4.64 1.52 3.5 3.89 7.03 3.59 10.99-1.25 3.66-5.02 5.46-8.15 7.26-1.41-.06-2.83-.13-4.24-.18-.8-.03-2.39-.09-3.19-.11-.75-.66-1.5-1.31-2.22-2 4.75-.16 9.49-1.81 13.13-4.9 1.6-4.34-1.77-5.8-4.81-6.64-.67-1.66-1.33-3.31-2-4.96 10.05-2.26 20.2-4.02 30.2-6.53z" fill="#e7bb53"/><path d="m144.21 16.15c11.56 2.57 23.31 5.26 34.02 10.5 5.08 2.43 8.15 7.31 11.7 11.44 3.91 4.36 6.72 9.53 9.55 14.61-3.09.06-6.15.12-9.23.17-2.8-3.43-5.59-6.88-8.67-10.07l-.49-.53c1.69-.06 3.38-.13 5.08-.2-2.44-4.17-4.5-8.76-8.07-12.12-10.45-5.76-22.18-8.47-34.01-9.36.05-1.48.08-2.96.12-4.44z" fill="#be9c4d"/><path d="m111.27 19.02c3.34-.43 6.58.73 9.85 1.15 3.95.8 8.39.72 11.95 2.86 3.26 4.3 5.95 9.02 9.03 13.45-7.42 3.59-15.72 5.43-22.66 9.9-6.45 4.32-6.99 12.51-9.84 19.06-1.69 4.06-5.03 7.02-8.39 9.69-2.04-6.73-4.38-13.38-6.05-20.22-7.76-2.95-10.57-12.74-19.7-13 3.13-1.8 6.9-3.6 8.15-7.26.3-3.96-2.07-7.49-3.59-10.99 10.49-1.03 20.79-3.4 31.25-4.64z" fill="#fcca52"/><path d="m136.24 19.47c.64.12 1.91.38 2.55.5 2.54 1.82 4.63 4.32 7.49 5.68 5.55 1.47 11.27 2.15 16.94 2.98 5.96 4.55 13.25 7.49 17.87 13.64l.49.53c-1.6-.65-3.23-1.23-4.85-1.82-1.01-1.52-1.91-3.26-3.55-4.21-9.3-5.36-20.47-3.68-30.61-5.93-3.61-2.66-4.24-7.62-6.33-11.37z" fill="#dbab43"/><path d="m138.79 19.97c1.76.25 3.53.42 5.3.62 11.83.89 23.56 3.6 34.01 9.36 3.57 3.36 5.63 7.95 8.07 12.12-1.7.07-3.39.14-5.08.2-4.62-6.15-11.91-9.09-17.87-13.64-5.67-.83-11.39-1.51-16.94-2.98-2.86-1.36-4.95-3.86-7.49-5.68z" fill="#c89e38"/><path d="m38.4 52.75c8.62-8.84 16.28-19 27.6-24.63.66.05 1.99.16 2.65.22-1.83.76-3.65 1.54-5.48 2.32.73 3.01 1.36 6.11 2.64 8.96.72.69 1.47 1.34 2.22 2-6.22-1.05-10.32 4.29-14.7 7.63-4.56 2.54-9.84 3.01-14.93 3.5z" fill="#c39f4e"/><path d="m68.65 28.34c1.83-.08 3.65-.21 5.48-.26 3.04.84 6.41 2.3 4.81 6.64-3.64 3.09-8.38 4.74-13.13 4.9-1.28-2.85-1.91-5.95-2.64-8.96 1.83-.78 3.65-1.56 5.48-2.32z" fill="#d1a93c"/><path d="m142.1 36.48c11.56-2.03 24.37-2.21 34.21 5.17-.48.38-1.43 1.12-1.91 1.5-10.45-7.04-23.9-5.4-35.32-1.9-9.83 3.23-19.48 9.03-24.16 18.67-6.45 12.58-11.67 28.67-4.9 42.12 4.8 9.68 9.09 20.25 18.01 26.96 7.35 5.17 16.42 6.7 24.32 10.78l-.23 1.03-.2 3.09c-1.73-1.07-3.46-2.13-5.25-3.07-10.57-4.66-23.79-6.5-30.62-16.93-4.87-7.89-7.56-17.26-14.32-23.96-4.04 6.81-8.88 13.11-12.3 20.28-6.8 12.71-21.3 17.06-32.91 24.02-.95-1.31-1.9-2.62-2.86-3.91.45-.83.9-1.65 1.35-2.47 6.85-1.77 14.32-3.11 19.62-8.22 9.42-7.59 16.99-17.63 20.64-29.24 3.99-13.75 1.25-28.47-4.76-41.17-2.86-4.9-6.4-9.91-11.64-12.47-2.7-1.31-5.5-2.43-8.2-3.74.13-.33.41-.97.55-1.29 1.41.05 2.83.12 4.24.18 9.13.26 11.94 10.05 19.7 13 1.67 6.84 4.01 13.49 6.05 20.22 3.36-2.67 6.7-5.63 8.39-9.69 2.85-6.55 3.39-14.74 9.84-19.06 6.94-4.47 15.24-6.31 22.66-9.9z" fill="#fbcf6b"/><path d="m139.08 41.25c11.42-3.5 24.87-5.14 35.32 1.9.32.35.95 1.06 1.27 1.42-14.01-4.02-30.34-5.92-42.99 2.97-11.59 6.06-20.93 17.68-21.19 31.19-1.76 12.93.58 26.73 8.44 37.36 4.31 4.47 8.97 8.77 14.4 11.88 5.84 3.35 12.31 5.58 18.84 7.21l.72.15c-.53 1.48-1.08 2.95-1.54 4.45-7.9-4.08-16.97-5.61-24.32-10.78-8.92-6.71-13.21-17.28-18.01-26.96-6.77-13.45-1.55-29.54 4.9-42.12 4.68-9.64 14.33-15.44 24.16-18.67z" fill="#fcd889"/><path d="m53.33 49.25c4.38-3.34 8.48-8.68 14.7-7.63.8.02 2.39.08 3.19.11-.14.32-.42.96-.55 1.29-7.86 4.17-15.7 8.48-22.64 14.1-4.83-.1-9.88-.51-14.48 1.31-4.12 1.68-5.73 6.28-7.41 9.98-.9-.37-1.81-.73-2.71-1.1.13 6.08-.44 12.13-1.08 18.17-.85.37-1.69.74-2.53 1.13.06-6.2-.93-12.84 2.35-18.47 2.69-7.33 9.45-12.12 16.23-15.39 5.09-.49 10.37-.96 14.93-3.5z" fill="#d9b66b"/><path d="m132.68 47.54c12.65-8.89 28.98-6.99 42.99-2.97 5.39 5.92 10.8 11.82 15.98 17.92 8.46 12.54 12.54 28.12 13.02 43.11l-.54.65c-.53-.79-1.06-1.57-1.58-2.36-1.26-10.4-3.13-21.01-8.27-30.29-5.3-9.33-11.18-18.51-19.1-25.84-1.84-1.72-4.26-2.69-6.71-3.13-7.94-1.42-16.21-2.29-24.14-.31-4.31 1.12-7.65 4.21-11.35 6.52-4 2.62-8.64 4.55-11.61 8.45-8.83 11.3-11.37 27.08-6.44 40.59 2.4 11.78 11.61 19.75 19.4 28.09-5.43-3.11-10.09-7.41-14.4-11.88-7.86-10.63-10.2-24.43-8.44-37.36.26-13.51 9.6-25.13 21.19-31.19z" fill="#fadfa3"/><path d="m176.73 40.98c1.62.59 3.25 1.17 4.85 1.82 3.08 3.19 5.87 6.64 8.67 10.07 3.08-.05 6.14-.11 9.23-.17 1.73 3.05 3.2 6.23 4.77 9.37 3.14 6.09 6.21 12.22 9.33 18.33 4.11 7.98 11.817 15.942 12.42 23.87s-6.64 19.49-8.8 23.7c.5-2.44.87-4.9 1.3-7.35 1.27-5.22 2.71-10.6 1.64-16.01-1.42-9.8-7.82-17.74-11.29-26.78-2.99-7.57-5.89-17.63-15.29-18.91-5.8-4.88-11.19-10.24-15.79-16.28-.26-.41-.78-1.24-1.04-1.66z" fill="#d6b15e"/><path d="m174.4 43.15c.48-.38 1.43-1.12 1.91-1.5.36.25 1.09.74 1.46.99 4.6 6.04 9.99 11.4 15.79 16.28.37.53 1.12 1.58 1.49 2.11-1.13.49-2.27.97-3.4 1.46-5.18-6.1-10.59-12-15.98-17.92-.32-.36-.95-1.07-1.27-1.42z" fill="#e3c881"/><path d="m144.33 44.32c7.93-1.98 16.2-1.11 24.14.31 2.45.44 4.87 1.41 6.71 3.13 7.92 7.33 13.8 16.51 19.1 25.84 5.14 9.28 7.01 19.89 8.27 30.29-1.81 1.39-3.62 2.77-5.43 4.15l.19-.92c5.51-16.75-5.49-31.7-12.7-45.8-2.16-4.31-6.3-7.03-9.85-10.09-8.4-7.92-21.79-6.78-31.86-3.3-7.53 4.04-16.14 7.55-21.11 14.93-6.9 7.83-6.11 19.26-5.49 28.96.65 4.53 1.16 9.17 2.76 13.49 3.31 7.07 9.27 12.39 15.07 17.4 6.47 5.29 14.63 7.72 22.51 10.06l1.03.26c-1.52.68-3.01 1.41-4.5 2.15-6.53-1.63-13-3.86-18.84-7.21-7.79-8.34-17-16.31-19.4-28.09-4.93-13.51-2.39-29.29 6.44-40.59 2.97-3.9 7.61-5.83 11.61-8.45 3.7-2.31 7.04-5.4 11.35-6.52z" fill="#fbe8c0"/><path d="m48.03 57.12c6.94-5.62 14.78-9.93 22.64-14.1 2.7 1.31 5.5 2.43 8.2 3.74.36 1.13.73 2.26 1.12 3.39-3.65-1.84-7.95-3.57-12.02-2.09-6.39 2.38-11.91 6.6-16.86 11.2-1.48 1.22-2.75 2.67-4 4.11l4.29 1.17c-8.76 3.55-13.5 11.84-19.87 18.27-1.41.28-2.81.54-4.21.84.26-6.19 2.89-12 6.38-17.02 3.84-4.41 9.88-5.85 14.33-9.51z" fill="#f0d499"/><path d="m142.9 47.93c10.07-3.48 23.46-4.62 31.86 3.3 3.55 3.06 7.69 5.78 9.85 10.09 7.21 14.1 18.21 29.05 12.7 45.8-1.02.67-2.03 1.35-3.04 2.03.78-6.46.43-13.06-2.17-19.11-1.2 2.12-2.05 4.43-3.42 6.46-.13-5.99.42-12.12-1.39-17.92-3.65-7.29-8.35-14.24-15.32-18.77 1.64.46 3.28.9 4.94 1.33-.26-4.06-2.68-7.41-6.67-8.52-6.36-2.68-13.6-5.61-20.44-3.11-7.13 2.66-14.77 4.76-20.91 9.41-5.76 5.68-9.6 13.48-10.52 21.52-1.53 8.98 3.17 17.34 3.41 26.2 5.41 3.15 9.05 8.28 13.19 12.81 8.2 6.03 18.52 8.09 28.36 9.73-2.29 1.08-4.5 2.32-6.69 3.59-7.88-2.34-16.04-4.77-22.51-10.06-5.8-5.01-11.76-10.33-15.07-17.4-1.6-4.32-2.11-8.96-2.76-13.49-.62-9.7-1.41-21.13 5.49-28.96 4.97-7.38 13.58-10.89 21.11-14.93z" fill="#fbf0de"/><path d="m67.97 48.06c4.07-1.48 8.37.25 12.02 2.09 3.9 6.19 9.03 11.86 10.68 19.19 2.81 12.1 3.4 25.29-1.28 37.01-6.47 15.75-22.01 26.46-38.59 29.08-.54.12-1.61.35-2.15.47l-1.2-.14c.56-.49 1.68-1.49 2.24-1.98 7.39-4.18 16.18-5.6 22.71-11.33 8.16-6.68 15.62-15.94 16.18-26.92.59-10.73 2.04-22.69-3.82-32.35-2.41-4.01-4.91-8.72-9.63-10.37-6.06-3.06-12.78.27-18.09 3.28-1.09.62-2.14 1.29-3.2 1.95-.92.39-1.83.8-2.73 1.22 4.95-4.6 10.47-8.82 16.86-11.2z" fill="#fce4b2"/><path d="m78.87 46.76c5.24 2.56 8.78 7.57 11.64 12.47 6.01 12.7 8.75 27.42 4.76 41.17-3.65 11.61-11.22 21.65-20.64 29.24-5.3 5.11-12.77 6.45-19.62 8.22-1.4-.81-2.8-1.63-4.21-2.43 16.58-2.62 32.12-13.33 38.59-29.08 4.68-11.72 4.09-24.91 1.28-37.01-1.65-7.33-6.78-13-10.68-19.19-.39-1.13-.76-2.26-1.12-3.39z" fill="#fcda8b"/><path d="m149.8 49.51c6.84-2.5 14.08.43 20.44 3.11 3.99 1.11 6.41 4.46 6.67 8.52-1.66-.43-3.3-.87-4.94-1.33-7.32-1.61-15.62-3.64-22.75-.55-6.25 3.82-12.89 8.42-15.13 15.81-1.91 5.87-5.61 12.88-2.22 18.96 2.89 5.29 5.32 11.15 10.06 15.08 7.44 5.57 17.2 5.25 26.02 4.93 3.4-.48 7.42-.43 9.79-3.24 3.78-4.66 7.47-9.4 10.94-14.3 1.37-2.03 2.22-4.34 3.42-6.46 2.6 6.05 2.95 12.65 2.17 19.11-5.14 12.17-18.34 18.8-30.94 20.03-9.84-1.64-20.16-3.7-28.36-9.73-4.14-4.53-7.78-9.66-13.19-12.81-.24-8.86-4.94-17.22-3.41-26.2.92-8.04 4.76-15.84 10.52-21.52 6.14-4.65 13.78-6.75 20.91-9.41z" fill="#f9f5f4"/><path d="m57.04 56.09c5.31-3.01 12.03-6.34 18.09-3.28 4.72 1.65 7.22 6.36 9.63 10.37 5.86 9.66 4.41 21.62 3.82 32.35-.56 10.98-8.02 20.24-16.18 26.92-6.53 5.73-15.32 7.15-22.71 11.33l-1.84-2.6c7.85-4.64 16.45-8.01 23.81-13.44 4.76-4.29 8.85-9.37 12.16-14.85 2.78-8.06 2.4-16.85 1.94-25.26-1.1-8.71-8.32-14.84-12.13-22.37-3.03.31-6.19.15-9.12 1.14-.34 1.61-1.01 4.83-1.35 6.44-3.02-1.22-4.96-3.79-6.12-6.75z" fill="#fbf0d7"/><path d="m64.51 56.4c2.93-.99 6.09-.83 9.12-1.14 3.81 7.53 11.03 13.66 12.13 22.37.46 8.41.84 17.2-1.94 25.26-3.31 5.48-7.4 10.56-12.16 14.85-7.36 5.43-15.96 8.8-23.81 13.44-4.54-1.33-9.63-2.41-12.96-6.08-3.41-3.11-2.49-8.3-3.11-12.46 10.13-.89 21.13 3.51 30.38-2.45 4.44-3.04 6.63-8.17 9.57-12.49 4.24-5.89 4.04-13.9 2.05-20.59-2.03-5.73-6.52-9.98-10.62-14.27.34-1.61 1.01-4.83 1.35-6.44z" fill="#f7f6f5"/><path d="m33.55 58.43c4.6-1.82 9.65-1.41 14.48-1.31-4.45 3.66-10.49 5.1-14.33 9.51-3.49 5.02-6.12 10.83-6.38 17.02-1.7.48-3.34 1.14-4.97 1.83.64-6.04 1.21-12.09 1.08-18.17.9.37 1.81.73 2.71 1.1 1.68-3.7 3.29-8.3 7.41-9.98z" fill="#f2c874"/><path d="m53.84 58.04c1.06-.66 2.11-1.33 3.2-1.95 1.16 2.96 3.1 5.53 6.12 6.75 4.1 4.29 8.59 8.54 10.62 14.27 1.99 6.69 2.19 14.7-2.05 20.59-2.94 4.32-5.13 9.45-9.57 12.49-9.25 5.96-20.25 1.56-30.38 2.45-.1-2.08-.18-4.16-.28-6.24.59-.49 1.18-.98 1.77-1.46 4.8 5.6 11.97 8.7 19.41 6.72 16.17-5.19 24.32-26.68 14.54-40.92-2.93-5.93-11.92-5.77-13.38-12.7z" fill="#e9e4d9"/><path d="m149.22 59.26c7.13-3.09 15.43-1.06 22.75.55 6.97 4.53 11.67 11.48 15.32 18.77 1.81 5.8 1.26 11.93 1.39 17.92-3.47 4.9-7.16 9.64-10.94 14.3-2.37 2.81-6.39 2.76-9.79 3.24-8.82.32-18.58.64-26.02-4.93-4.74-3.93-7.17-9.79-10.06-15.08-3.39-6.08.31-13.09 2.22-18.96 2.24-7.39 8.88-11.99 15.13-15.81m8.06.05c-16.35 2.47-27.93 21.21-21.57 36.85 1.27 7.04 8.34 10.6 13.58 14.48 10.66 3.9 24.56 1.75 31.39-8.01 2.86-6.21 7.45-13.11 4.94-20.26-1.77-4.39-3.15-9.12-6.11-12.9-6.03-5.58-13.34-11.53-22.23-10.16z" fill="#eae3dc"/><path d="m51.11 59.26c.9-.42 1.81-.83 2.73-1.22 1.46 6.93 10.45 6.77 13.38 12.7 9.78 14.24 1.63 35.73-14.54 40.92-7.44 1.98-14.61-1.12-19.41-6.72-.42-1.41-.74-2.84-1.02-4.27l-.12-1.01c4.85 4.1 8.35 11.58 15.92 10.4 8.1 1.18 14-5.94 18.28-11.72 3.78-9.27 3.88-21.04-2.57-29.18-3.38-3.02-8.2-3.26-12.36-4.62l-4.29-1.17c1.25-1.44 2.52-2.89 4-4.11z" fill="#dbd0be"/><path d="m157.28 59.31c8.89-1.37 16.2 4.58 22.23 10.16 2.96 3.78 4.34 8.51 6.11 12.9 2.51 7.15-2.08 14.05-4.94 20.26-6.83 9.76-20.73 11.91-31.39 8.01-5.24-3.88-12.31-7.44-13.58-14.48-6.36-15.64 5.22-34.38 21.57-36.85m-.89 2.15c-6.15 2.93-13.33 5.69-17.1 11.76-5.06 10.01-4.92 24.58 5.25 31.31 6.24 7.2 16.32 6.44 24.75 4.73 5.87-3.51 12.21-8.41 13.47-15.58 2.34-8.4-.16-18.06-6.02-24.43-5.62-4.34-12.86-9.03-20.35-7.79z" fill="#d7ccc0"/><path d="m193.56 58.92c9.4 1.28 12.3 11.34 15.29 18.91 3.47 9.04 9.87 16.98 11.29 26.78 1.07 5.41-.37 10.79-1.64 16.01-3.06-5.92-6.52-11.64-10.59-16.91-.44-9.77-.88-19.88-4.85-28.96-2.38-4.73-5.14-9.27-8.01-13.72-.37-.53-1.12-1.58-1.49-2.11z" fill="#f3c45b"/><path d="m156.39 61.46c7.49-1.24 14.73 3.45 20.35 7.79 5.86 6.37 8.36 16.03 6.02 24.43-1.26 7.17-7.6 12.07-13.47 15.58-8.43 1.71-18.51 2.47-24.75-4.73-10.17-6.73-10.31-21.3-5.25-31.31 3.77-6.07 10.95-8.83 17.1-11.76m-.96 2.97c-5.55 1.66-10.88 4.96-14.42 9.61-4.79 9-4.94 22.34 4.14 28.81 5.99 6.9 16.25 7.9 24.36 4.58 4.16-2.66 7.84-6.26 10.59-10.35 2.77-5.94 1.98-13.02-.19-19-3.15-9.83-14.48-16.2-24.48-13.65z" fill="#c2b4a2"/><path d="m191.65 62.49c1.13-.49 2.27-.97 3.4-1.46 2.87 4.45 5.63 8.99 8.01 13.72 3.97 9.08 4.41 19.19 4.85 28.96-1.09.62-2.17 1.26-3.24 1.89-.48-14.99-4.56-30.57-13.02-43.11z" fill="#fcd279"/><path d="m155.43 64.43c10-2.55 21.33 3.82 24.48 13.65 2.17 5.98 2.96 13.06.19 19a36.772 36.772 0 0 1 -10.59 10.35c-8.11 3.32-18.37 2.32-24.36-4.58-9.08-6.47-8.93-19.81-4.14-28.81 3.54-4.65 8.87-7.95 14.42-9.61m.96 1.91c-12.68 1.34-21.49 17.34-15.38 28.66 4.49 9.92 16.91 15 27.11 11.08 6.33-3.59 12.32-9.51 11.61-17.48 2.54-12.99-10.67-25.43-23.34-22.26z" fill="#ae9c82"/><path d="m51.4 64.54c4.16 1.36 8.98 1.6 12.36 4.62 6.45 8.14 6.35 19.91 2.57 29.18-4.28 5.78-10.18 12.9-18.28 11.72-7.57 1.18-11.07-6.3-15.92-10.4-.37-4.53-.78-9.06-.9-13.6.07-1.09.19-2.17.3-3.25 6.37-6.43 11.11-14.72 19.87-18.27m.04 2.97c-12.33 2.05-16.66 16.47-16.91 27.22 2.02 5.19 4.15 11.76 9.8 13.94 7.76 1.09 15.28-3.52 19.4-9.9 5.64-7.3 4.1-17.53.96-25.5-1.9-5.26-8.33-6.78-13.25-5.76z" fill="#cbb59e"/><path d="m156.39 66.34c12.67-3.17 25.88 9.27 23.34 22.26.71 7.97-5.28 13.89-11.61 17.48-10.2 3.92-22.62-1.16-27.11-11.08-6.11-11.32 2.7-27.32 15.38-28.66m0 2c-7.37-.25-12.32 6.3-14.6 12.52-3.94 11.72 6.73 25.66 19.19 24.1 8.24.22 17.22-6.17 16.96-15.09 3.25-12.48-9.17-24.98-21.55-21.53z" fill="#988462"/><path d="m51.44 67.51c4.92-1.02 11.35.5 13.25 5.76 3.14 7.97 4.68 18.2-.96 25.5-4.12 6.38-11.64 10.99-19.4 9.9-5.65-2.18-7.78-8.75-9.8-13.94.25-10.75 4.58-25.17 16.91-27.22m-.97 1.99c-8.19 2.75-13.29 12-12.79 20.44-1.21 6.27.72 13.57 6.96 16.47 5.51 2.54 10.41-2.17 14.69-5.08 8.08-6.28 7.02-18.27 4.25-26.94-1.78-5.33-8.44-5.95-13.11-4.89z" fill="#b39f83"/><path d="m156.39 68.34c12.38-3.45 24.8 9.05 21.55 21.53.26 8.92-8.72 15.31-16.96 15.09-12.46 1.56-23.13-12.38-19.19-24.1 2.28-6.22 7.23-12.77 14.6-12.52m-1.97 2.07c-4.91.23-7.12 5.09-9.3 8.76-3.63 5.82-2.62 14.56 2.88 18.86 4.97 5.43 13.03 4.29 19.51 3.5 9.88-3.94 11.93-18.4 4.78-25.79-3.4-6.56-11.57-6.67-17.87-5.33z" fill="#846c43"/><path d="m50.47 69.5c4.67-1.06 11.33-.44 13.11 4.89 2.77 8.67 3.83 20.66-4.25 26.94-4.28 2.91-9.18 7.62-14.69 5.08-6.24-2.9-8.17-10.2-6.96-16.47-.5-8.44 4.6-17.69 12.79-20.44m2.87.82c-6.3 1.81-12.21 7.4-12.94 14.11-.34 6.33-2 14.99 3.77 19.47 6.44 3.06 12.69-2.46 16.39-7.27 4.38-5.15 4.09-12.48 2.55-18.68-1.12-4.19-5.28-8.06-9.77-7.63z" fill="#9c8664"/><path d="m53.34 70.32c4.49-.43 8.65 3.44 9.77 7.63 1.54 6.2 1.83 13.53-2.55 18.68-3.7 4.81-9.95 10.33-16.39 7.27-5.77-4.48-4.11-13.14-3.77-19.47.73-6.71 6.64-12.3 12.94-14.11m-6.22 5.82c-7.01 5.57-4.44 15.28-5.47 22.95 3.22 1.8 6.79 4.19 10.68 2.31 8.32-4.31 12.37-14.63 8.78-23.47-2.09-5.53-10.42-6.31-13.99-1.79z" fill="#876e43"/><path d="m154.42 70.41c6.3-1.34 14.47-1.23 17.87 5.33 7.15 7.39 5.1 21.85-4.78 25.79-6.48.79-14.54 1.93-19.51-3.5-5.5-4.3-6.51-13.04-2.88-18.86 2.18-3.67 4.39-8.53 9.3-8.76m3.78 2.13c-8.33-1.43-10.44 7.69-11.42 13.71.97 4.31 1.7 9.7 5.59 12.37 5.04 1.97 10.81 1.04 15.82-.46 4.11-3.03 6.31-8.81 5.53-13.78-2.04-3.56-3.65-7.6-6.73-10.43-2.38-2.21-5.84-1.59-8.79-1.41z" fill="#735623"/><path d="m158.2 72.54c2.95-.18 6.41-.8 8.79 1.41 3.08 2.83 4.69 6.87 6.73 10.43.78 4.97-1.42 10.75-5.53 13.78-5.01 1.5-10.78 2.43-15.82.46-3.89-2.67-4.62-8.06-5.59-12.37.98-6.02 3.09-15.14 11.42-13.71z" fill="#664507"/><path d="m47.12 76.14c3.57-4.52 11.9-3.74 13.99 1.79 3.59 8.84-.46 19.16-8.78 23.47-3.89 1.88-7.46-.51-10.68-2.31 1.03-7.67-1.54-17.38 5.47-22.95m-.83 4.17c-2.91 5.05-2.65 11.18-3.72 16.75 2.99 1.8 6.73 4.1 10.03 1.52 5.26-4.31 8.45-11.24 8.71-18.03-2.84-1.44-5.65-2.93-8.43-4.46-2.22 1.35-4.77 2.32-6.59 4.22z" fill="#745727"/><path d="m46.29 80.31c1.82-1.9 4.37-2.87 6.59-4.22 2.78 1.53 5.59 3.02 8.43 4.46-.26 6.79-3.45 13.72-8.71 18.03-3.3 2.58-7.04.28-10.03-1.52 1.07-5.57.81-11.7 3.72-16.75z" fill="#69460e"/><path d="m22.35 85.48c1.63-.69 3.27-1.35 4.97-1.83 1.4-.3 2.8-.56 4.21-.84-.11 1.08-.23 2.16-.3 3.25-4.94 4.13-5.95 11.05-7.37 16.98-1.17-.35-2.35-.69-3.52-1.04.76-2.2 1.61-4.37 2.47-6.53-.83.06-1.67.12-2.5.19-.15-2.71-.35-5.42-.48-8.13l-.01-.92c.84-.39 1.68-.76 2.53-1.13z" fill="#f1ab93"/><path d="m23.86 103.04c1.42-5.93 2.43-12.85 7.37-16.98.12 4.54.53 9.07.9 13.6l.12 1.01c-1.6-.54-3.21-1.07-4.82-1.59-.84 9.76-5.72 21.55 1.48 30.01 4.34 5.69 12.11 5.63 18.54 6.67l1.2.14c-1.14.81-2.27 1.65-3.4 2.48-5.9-1.61-12.61-2.14-17.51-6.19-6.59-8.17-4.5-19.46-3.88-29.15z" fill="#f5aeb5"/><path d="m19.65 88.47.18-.94c.13 2.71.33 5.42.48 8.13.83-.07 1.67-.13 2.5-.19-.86 2.16-1.71 4.33-2.47 6.53-.4 1.16-.77 2.32-1.15 3.49-7.62 12.29-9.61 27.17-8.48 41.37.44 3.71 1.27 7.43 2.94 10.79.59 1.2 1.21 2.39 1.86 3.57-1.52-.3-3.04-.62-4.56-.94-1.16-7.35-8.17-13.55-6.13-21.24 3.56-17.25 10.15-33.65 14.83-50.57z" fill="#da867f"/><path d="m27.43 99.08c1.61.52 3.22 1.05 4.82 1.59.28 1.43.6 2.86 1.02 4.27-.59.48-1.18.97-1.77 1.46-6.26 3.87-4.9 12.53-2.08 18.2 3.8 7.28 13.19 7.31 20.27 9.18-.56.49-1.68 1.49-2.24 1.98-6.43-1.04-14.2-.98-18.54-6.67-7.2-8.46-2.32-20.25-1.48-30.01z" fill="#fac4cc"/><path d="m101.73 99.94c6.76 6.7 9.45 16.07 14.32 23.96 6.83 10.43 20.05 12.27 30.62 16.93-.77 3.45-1.84 7.22-.21 10.58 3.6 8.96 5.41 19.4 13.03 26.05-2.1.92-4.2 1.84-6.3 2.77.4 1.54.81 3.07 1.21 4.61-3.24 1.08-6.63 2.16-10.07 2.03-2.59-4.62-.91-11.88-6.74-14.19-7.52-.71-15.23.11-22.7 1.26-6.65.3-12.17 5.21-18.98 4.47-10.11.16-19.14-8.26-29.33-3.96-5.74 1.13-4.33 8.55-6.03 12.84-3.88-2.74-7.92-5.34-12.46-6.82-.48-2.88-.97-5.76-1.45-8.64 7.58-7.2 8.74-17.8 9.88-27.59 11.61-6.96 26.11-11.31 32.91-24.02 3.42-7.17 8.26-13.47 12.3-20.28" fill="#fdcb50"/><path d="m20.34 102c1.17.35 2.35.69 3.52 1.04-.62 9.69-2.71 20.98 3.88 29.15 4.9 4.05 11.61 4.58 17.51 6.19-.38.3-1.16.88-1.55 1.17-.89.67-1.77 1.33-2.66 1.98-5.28-1.48-10.67-2.76-15.7-4.97-3.13-1.26-2.97-5.51-4.06-8.04-1.94-7.5-1.97-15.33-2.09-23.03.38-1.17.75-2.33 1.15-3.49z" fill="#f793a3"/><path d="m202.55 103.89c.52.79 1.05 1.57 1.58 2.36-6.18 5.7-8.32 14.54-15.24 19.56-7.82 7.12-18.59 9.71-28.89 10.35-2.05-.16-4.09-.45-6.11-.83l-.72-.15c1.49-.74 2.98-1.47 4.5-2.15 12.1 1.08 23.41-4.4 32.57-11.8 4-3.26 5.66-8.37 6.88-13.19 1.81-1.38 3.62-2.76 5.43-4.15z" fill="#fcc0c6"/><path d="m204.67 105.6c1.07-.63 2.15-1.27 3.24-1.89 4.07 5.27 7.53 10.99 10.59 16.91-.43 2.45-.8 4.91-1.3 7.35-.45 1.8-.92 3.59-1.39 5.39-4.36-6.99-2.15-17.56-9.58-22.37-.3-.24-.9-.73-1.2-.98-.13-1.47-.25-2.94-.36-4.41z" fill="#f9a973"/><path d="m10.71 146.86c-1.13-14.2.86-29.08 8.48-41.37.12 7.7.15 15.53 2.09 23.03 1.09 2.53.93 6.78 4.06 8.04 5.03 2.21 10.42 3.49 15.7 4.97 1.74 6.31 1.2 12.85-1.04 18.95-4.54-.73-9.57.37-13.85-1.67a83.548 83.548 0 0 1 -15.44-11.95z" fill="#f97e90"/><path d="m204.13 106.25.54-.65c.11 1.47.23 2.94.36 4.41-5.75 6.9-9.39 15.96-17.37 20.71-7.93 6.01-18.3 6.05-27.7 7.46l.04-2.02c10.3-.64 21.07-3.23 28.89-10.35 6.92-5.02 9.06-13.86 15.24-19.56z" fill="#faa5b1"/><path d="m29.42 124.6c-2.82-5.67-4.18-14.33 2.08-18.2.1 2.08.18 4.16.28 6.24.62 4.16-.3 9.35 3.11 12.46 3.33 3.67 8.42 4.75 12.96 6.08l1.84 2.6c-7.08-1.87-16.47-1.9-20.27-9.18z" fill="#fcdbe4"/><path d="m194.27 109.15c1.01-.68 2.02-1.36 3.04-2.03l-.19.92c-1.22 4.82-2.88 9.93-6.88 13.19-9.16 7.4-20.47 12.88-32.57 11.8l-1.03-.26c2.19-1.27 4.4-2.51 6.69-3.59 12.6-1.23 25.8-7.86 30.94-20.03z" fill="#fcd8e4"/><path d="m187.66 130.72c7.98-4.75 11.62-13.81 17.37-20.71.3.25.9.74 1.2.98-.4 2.74-.83 5.49-1.24 8.23-6.55 5.41-10.46 14.03-18.87 16.99-6.84 2.5-13.54 5.76-20.8 6.84-1.8.08-3.61.1-5.42.13 0-1.67.02-3.33.06-5 9.4-1.41 19.77-1.45 27.7-7.46z" fill="#fa8c9f"/><path d="m204.99 119.22c.41-2.74.84-5.49 1.24-8.23 7.43 4.81 5.22 15.38 9.58 22.37-.36 1.42-7.61 13.13-7.64 18.84-1.59-3.56-4.52-7.01-2.81-11.22 1.85-7.18 3.46-14.93-.37-21.76z" fill="#f68c7f"/><path d="m186.12 136.21c8.41-2.96 12.32-11.58 18.87-16.99 3.83 6.83 2.22 14.58.37 21.76-1.71 4.21 1.22 7.66 2.81 11.22l-.11.6c-4.59 1.99-9.17 3.97-13.62 6.25 1.36.29 4.07.85 5.43 1.13a88.053 88.053 0 0 0 -7.77 5.38c-.02-2.11-.05-4.22-.09-6.32-8.62 3.19-17.61 5.02-26.79 5.38-.61-7.18.34-14.38.1-21.57 7.26-1.08 13.96-4.34 20.8-6.84z" fill="#fc7a91"/><path d="m48.65 135.9c.54-.12 1.61-.35 2.15-.47 1.41.8 2.81 1.62 4.21 2.43-.45.82-.9 1.64-1.35 2.47-.77 1.44-1.51 2.9-2.17 4.41-1.19-.76-2.37-1.53-3.55-2.31-1.41-.96-2.83-1.92-4.24-2.88.39-.29 1.17-.87 1.55-1.17 1.13-.83 2.26-1.67 3.4-2.48z" fill="#fab685"/><path d="m153.89 135.33c2.02.38 4.06.67 6.11.83l-.04 2.02c-.04 1.67-.06 3.33-.06 5l.01.87c-1.72.05-3.43.11-5.15.17-.88-1.14-1.76-2.28-2.64-3.41l.23-1.03c.46-1.5 1.01-2.97 1.54-4.45z" fill="#f9ae8e"/><path d="m41.04 141.53c.89-.65 1.77-1.31 2.66-1.98 1.41.96 2.83 1.92 4.24 2.88-.65 5.61 1.76 12.45-2.56 16.91-3.36 3.51-7.45 7.75-12.94 6.12-6.55-1.8-12.58-5.12-18.79-7.81-1.67-3.36-2.5-7.08-2.94-10.79 4.66 4.57 9.85 8.59 15.44 11.95 4.28 2.04 9.31.94 13.85 1.67 2.24-6.1 2.78-12.64 1.04-18.95z" fill="#f88e7c"/><path d="m51.49 144.74c.66-1.51 1.4-2.97 2.17-4.41.96 1.29 1.91 2.6 2.86 3.91-1.14 9.79-2.3 20.39-9.88 27.59.48 2.88.97 5.76 1.45 8.64-3.58-1.2-7.01-2.78-10.35-4.52-1.65-.96-3.36-1.81-5.09-2.61-.14-1-.27-1.99-.4-2.99 5.98-.87 12.14-3.32 15.75-8.39 2.77-5.25 2.21-11.58 3.49-17.22z" fill="#f9b862"/><path d="m146.67 140.83c1.79.94 3.52 2 5.25 3.07.48 7.69.1 16.13 4.25 22.96 3.37 4.46 8.19 7.67 13.16 10.12.32.91.65 1.81.98 2.72-5.49 1.08-10.85 2.77-15.91 5.14-.4-1.54-.81-3.07-1.21-4.61 2.1-.93 4.2-1.85 6.3-2.77-7.62-6.65-9.43-17.09-13.03-26.05-1.63-3.36-.56-7.13.21-10.58z" fill="#fbc05d"/><path d="m152.12 140.81c.88 1.13 1.76 2.27 2.64 3.41 1.16 7.92 1.82 16.41 7.01 22.95 2.4 3.39 6.96 3.5 10.58 4.81.64 1.68 1.27 3.35 1.9 5.03-1.04.83-2.05 1.67-3.1 2.48l-.84.21c-.33-.91-.66-1.81-.98-2.72-4.97-2.45-9.79-5.66-13.16-10.12-4.15-6.83-3.77-15.27-4.25-22.96z" fill="#fbac68"/><path d="m45.38 159.34c4.32-4.46 1.91-11.3 2.56-16.91 1.18.78 2.36 1.55 3.55 2.31-1.28 5.64-.72 11.97-3.49 17.22-3.61 5.07-9.77 7.52-15.75 8.39.13 1 .26 1.99.4 2.99-6.35-2.97-12.58-6.69-17.14-12.12-.65-1.18-1.27-2.37-1.86-3.57 6.21 2.69 12.24 6.01 18.79 7.81 5.49 1.63 9.58-2.61 12.94-6.12z" fill="#f5a16c"/><path d="m159.9 143.18c1.81-.03 3.62-.05 5.42-.13.24 7.19-.71 14.39-.1 21.57 9.18-.36 18.17-2.19 26.79-5.38.04 2.1.07 4.21.09 6.32 2.49-1.94 5.09-3.72 7.77-5.38-1.36-.28-4.07-.84-5.43-1.13 4.45-2.28 9.03-4.26 13.62-6.25-1.97 3.75-4.85 6.91-7.27 10.36-.92 1.35-5.62 4.72-5.83 4.79-2.2.39-4.43.7-6.6 1.29-7.31-2.39-15.18-.42-22.51-2.19-6.95-5.26-5.12-15.48-5.94-23z" fill="#f78483"/><path d="m154.76 144.22c1.72-.06 3.43-.12 5.15-.17.82 7.52-1.01 17.74 5.94 23 7.33 1.77 15.2-.2 22.51 2.19-5 1.97-9.97 4.28-14.11 7.77-.63-1.68-1.26-3.35-1.9-5.03-3.62-1.31-8.18-1.42-10.58-4.81-5.19-6.54-5.85-15.03-7.01-22.95z" fill="#f89874"/><path d="m10.95 160.28c1.52.32 3.04.64 4.56.94 4.56 5.43 10.79 9.15 17.14 12.12 1.73.8 3.44 1.65 5.09 2.61 5.15 5.47 11.82 9.09 18.04 13.17 2.57 1.53 4.99 3.4 7.77 4.56 8.26 3.56 18.98 1.87 25.43 9.09.321.352 1.111.973 1.854 1.655.899.826 1.731 1.741 1.582 2.382-4.19-1.12-10.306-1.667-14.416-3.027-.494-.072-8.2-2.682-9.03-3.24-1.695-.741-8.528-3.408-9.62-4.06-1.636-.977-7.905-5.559-9.59-6.62-2.337-1.472-8.384-5.46-8.9-5.75-3.052-1.715-12.945-7.372-16.64-9.69-1.964-1.232-3.757-2.725-5.53-4.22" fill="#c1955a"/><path d="m188.36 169.24c2.17-.59 4.4-.9 6.6-1.29-4.18 6.76-13.85 6.28-18.49 12.72l-1.08 1.64c-1.64-.77-3.28-1.52-4.91-2.28l.67-.54c1.05-.81 2.06-1.65 3.1-2.48 4.14-3.49 9.11-5.8 14.11-7.77z" fill="#db8a69"/><path d="m114.89 173.94c7.47-1.15 15.18-1.97 22.7-1.26 5.83 2.31 4.15 9.57 6.74 14.19 3.44.13 6.83-.95 10.07-2.03 5.06-2.37 10.42-4.06 15.91-5.14l.84-.21-.67.54c-6.99 6.72-16.3 9.46-25.78 9.99-1.86-.01-3.72-.1-5.58-.16-.06-4.74-.76-9.43-1.19-14.14-16.89.6-33.31 6.99-50.36 4.71-6.51-1.16-12.78-3.32-18.92-5.72-2.79 5.46-4.113 13.37-4.663 19.39-2.83-1.01-5.738-3.36-8.207-4.98-6.22-4.08-12.89-7.7-18.04-13.17 3.34 1.74 6.77 3.32 10.35 4.52 4.54 1.48 8.58 4.08 12.46 6.82 1.7-4.29.29-11.71 6.03-12.84 10.19-4.3 19.22 4.12 29.33 3.96 6.81.74 12.33-4.17 18.98-4.47z" fill="#e8b84c"/><path d="m68.65 174.71c6.14 2.4 12.41 4.56 18.92 5.72 17.05 2.28 33.47-4.11 50.36-4.71.43 4.71 1.13 9.4 1.19 14.14 1.86.06 3.72.15 5.58.16-2.87 1.21-5.69 2.55-8.49 3.91.15-.48-3.36 1.38-5.5 2.8-.29-1.44-.52-2.9-.77-4.34-12.71.62-25.38 2.97-38.15 2.13-5.11-.44-30.35-3.39-27.52-2.38-.144-6.157 1.492-11.989 4.38-17.43m8.42 7.5c-4.49-1.18-8.54 2.39-9 6.73 7.42 1.26 14.84 2.53 22.31 3.53 11.01 1.34 21.86-1.54 32.85-1.52 4.98.68 9.54-1.16 13.53-3.94-.92-1.26-1.87-2.49-2.89-3.67-.34-1.44-.59-2.91-.8-4.38-18.5 3.12-37.31 2.94-56 3.25z" fill="#d5a63f"/><path d="m77.07 182.21c18.69-.31 37.5-.13 56-3.25.21 1.47.46 2.94.8 4.38 1.02 1.18 1.97 2.41 2.89 3.67-3.99 2.78-8.55 4.62-13.53 3.94-10.99-.02-21.84 2.86-32.85 1.52-7.47-1-14.89-2.27-22.31-3.53.46-4.34 4.51-7.91 9-6.73m-3.74 3.2c1.26 1.46 2.48 3 4.06 4.14 17.58 2.86 35.51.98 53-1.65-4.3-4.99-11.49-5.21-17.57-4.67-13.16.66-26.54-.94-39.49 2.18z" fill="#c69731"/><path d="m144.7 190.02c9.48-.53 18.79-3.27 25.78-9.99 1.63.76 3.27 1.51 4.91 2.28-.32.54-.614 1.643-1.27 2.16-.783.617-2.218 1.564-3.079 2.069-.866.507-2.06.982-3.242 1.615-2.138 1.145-9.744 4.677-9.939 4.726-5.437 1.367-25.272 5.61-32.05 8-4.046 1.426-9.82 3.99-11.9 4.9-1.36.59-2.613 1.648-4.09 1.72-3.581.174-13.65-1.13-17.394-.676-.111-.533-1.09-1.905-1.09-1.905s15.084 1.981 21.644-1.929c5.43-3.37 11.67-4.58 17.73-6.26 2.14-1.42 5.65-3.28 5.5-2.8 2.8-1.36 5.62-2.7 8.49-3.91z" fill="#b98f51"/><path d="m73.33 185.41c12.95-3.12 26.33-1.52 39.49-2.18 6.08-.54 13.27-.32 17.57 4.67-17.49 2.63-35.42 4.51-53 1.65-1.58-1.14-2.8-2.68-4.06-4.14m7.17.82c5.27 3.11 11.5 3.71 17.51 3.72 7.56-.2 15.53-.33 22.51-3.62-13.1-2.89-26.81-1.47-40.02-.1z" fill="#b58725"/><path d="m80.5 186.23c13.21-1.37 26.92-2.79 40.02.1-6.98 3.29-14.95 3.42-22.51 3.62-6.01-.01-12.24-.61-17.51-3.72z" fill="#a77817"/><path d="m63.776 194.059c.426-1.227.319-4.292.934-3.661 0 0 21.97 3.682 27.08 4.122 12.77.84 25.44-1.51 38.15-2.13.25 1.44.48 2.9.77 4.34-6.06 1.68-12.3 2.89-17.73 6.26-6.56 3.91-14.464 3.055-21.564 2.045-.211.092-2.353-2.21-2.436-2.265-6.45-7.22-16.944-5.151-25.204-8.711z" fill="#e1b352"/></g></svg>