<svg xmlns="http://www.w3.org/2000/svg" width="712" height="137pt" viewBox="0 0 534 137"><path fill="#34aa2f" d="M6.04 28.86c.93-5.95 8.76-8.79 13.59-5.49 2.34 1.33 3.57 3.81 4.22 6.32.35 4.04-2.77 7.61-6.53 8.66-2.57.94-5.22-.08-7.7-.78l-.2-.06c-1.76-2.56-4.36-5.21-3.38-8.65zm31.2-2.47c3.97.37 8.19-.43 12.02.38.05 3.8.05 7.56-.03 11.37-1.56 6.26-4.79 12.63-10.15 16.38-.96-.59-1.9-1.21-2.83-1.86-1.33-.95-2.77-1.72-4.15-2.57 2.52-4.3 4.83-8.99 4.79-14.09.26-3.19-.42-6.49.35-9.61zm39.2 25.22c5.07-6.63 15.05-7.95 22.28-4.34 3.84 1.76 5.95 5.52 8.1 8.93 5.44-13.92 27.99-14.65 34.42-1.17 2 4.01 2.26 8.6 2.21 13.01-.05 12.31.05 24.62-.05 36.93-4.48.09-8.96-.02-13.45.05-.78-.02-2.34-.05-3.13-.07-.07-12.68.11-25.37-.08-38.04.11-1.36-.89-2.32-1.42-3.45-2.15-5.21-10.2-6.03-13.96-2.07-2.06 1.96-2.92 4.88-2.79 7.67 0 11.83-.03 23.65.02 35.48l-.4.45c-4.25.05-8.5-.02-12.74.02-.77-.05-2.31-.14-3.07-.18.12-11.93.01-23.86.05-35.79-.08-1.5.13-3.16-.73-4.47-.97-.57-1.43-1.39-1.38-2.46-4.6-6.16-15.14-2.6-15.92 4.75-.57 12.64-.03 25.35-.27 38.02-4.42.28-8.84.03-13.26.13-.84 0-2.51-.02-3.34-.02.03-19.64-.12-39.29.08-58.92 5.16.08 10.33-.05 15.5.07-.05 1.53 0 3.06.16 4.58.2 1.81.08 3.64.05 5.46 1.08-1.5 1.67-3.35 3.12-4.57zm233.82 2.73c6.25-8.84 20.03-12.12 29.03-5.63 2.8 1.86 4.23 5.02 6.42 7.43-.1-3.35-.11-6.7-.02-10.05 5.38.02 10.76-.02 16.14.01.04 1.59-.09 3.18.1 4.76.51 18.35.14 36.76.19 55.14.2 8.1-4.67 15.88-12.12 19.11-10.42 4.54-22.83 4.66-33.29.19-4.81-3.03-9.67-7.55-10.36-13.43 4.94-.62 9.87-1.35 14.81-1.96.84 2.39 3.36 3.14 4.81 5.06 6.34 3.21 16.71 2.02 19.37-5.29 1.85-4.45-.55-9.92.13-14.78-2.86 4.29-6.96 8.37-12.33 8.96-5.55 1.2-11.25-.01-16.45-2.02-6.82-4.23-11.11-12.03-11.97-19.96-1.02-9.38-.3-19.73 5.54-27.54m11.15 18.76c-.32 5.5.17 11.95 4.55 15.84 3.05 3.61 8.74 3.6 12.79 1.8 5.33-2.69 7.03-9.21 7.03-14.75-.08-4.21-.14-9.19-3.44-12.3l-.46-.12c.51-1.63-1.25-2.39-2.23-3.22-2.76-2.03-6.41-2.02-9.64-1.42-5.9 1.85-8.38 8.51-8.6 14.17zm135.01-21.24c7.73-9.29 24.32-8.65 31.34 1.2.9 1.24 1.74 2.54 2.53 3.87 3.22 9.36 1.11 19.43 1.82 29.1 0 6.27.05 12.56-.03 18.84-4.41.31-8.84.02-13.25.15-1.18.11-2.31.02-3.4-.25.14-10.93.02-21.86.06-32.79-.02-2.45.13-5.09-1.21-7.27-3-7.07-13.87-7.52-18.01-1.35-1.69 2.15-2.09 4.95-2.12 7.61 0 11.3.05 22.61-.02 33.91-4.41.28-8.84.03-13.26.13-.84 0-2.51-.02-3.34-.03-.01-19.63-.03-39.26.01-58.89 5.19.03 10.38-.06 15.58.05-.07 1.53-.02 3.05.14 4.57.2 1.83.09 3.66.08 5.49 1.03-1.44 1.81-3.07 3.08-4.34zM6.54 46.09c5.43.02 10.86-.03 16.29.02.1 1.61-.23 3.26.25 4.83.17 17.98.07 35.96.05 53.94-4.47.28-8.96.02-13.43.14l-3.17-.04c-.01-19.63-.03-39.26.01-58.89zm169.33.04c5.73-.06 11.47-.05 17.2-.01.49 1.39.78 2.83 1.29 4.22 4.08 12.41 7.51 25.06 11.04 37.65.23-.41.71-1.23.94-1.64 4.21-13.31 7.83-26.8 11.78-40.19 5.77-.08 11.57-.19 17.34.06-.86 1.25-.63 3.56-2.01 4.19-.06.6-.17 1.81-.22 2.42-5.72 17.31-12.06 34.41-17.89 51.68l-.36.42c-5.47.19-10.95-.01-16.42.1-.57-.07-1.71-.2-2.27-.27-6.68-19.59-13.65-39.08-20.42-58.63zm71.5 7.2c12.21-12.6 36.5-10.2 44.84 5.71 3.34 6.36 3.66 13.69 3.46 20.72-13.34.25-26.7.01-40.05.12-.25 4.04 1.26 8.3 4.33 11 5.65 5.21 17.09 3.96 20.03-3.7 4.95.15 9.89.76 14.86.83-.1 1.3-.31 2.6-.62 3.88-2.65 6.4-8.53 11.17-15.14 13.01-8.19 2.36-17.04 1.7-24.97-1.22-2.12-.38-3.53-2.37-5.18-3.63-6.21-5.54-9.53-13.78-9.71-22.02-.53-8.83 1.78-18.27 8.15-24.7m12.93 6.93c-2.46 1.58-3.19 4.57-4.96 6.67l.27.56-.31-.06c-.01.52-.05 1.56-.06 2.08 8.15.36 16.37-.13 24.55.14.48-2.01-.2-4.22-1.44-5.84-3.07-6.61-12.63-8.03-18.05-3.55zm129.2-13.63c8.18-2.15 17.23-1.72 24.92 1.94 4.33 2.06 7.42 5.91 9.65 10.05.29 2.11.67 4.21.65 6.35.04 13.3-.05 26.61.04 39.91-4.25.29-8.51.02-12.76.14-.75-.03-2.26-.08-3.01-.1l-.2-1.46c-.02-2.18.01-4.37.04-6.55-5.59 10.62-20.37 11.55-29.99 6.28-6.1-4.25-8.29-12.27-6.58-19.3 1.02-5.84 6.27-9.95 11.72-11.51 7-2.41 14.59-1.81 21.67-3.83 2.87-.82 3.08-4.43 1.69-6.61-1.2-3.83-5.71-4.81-9.24-4.38-4.09-.15-7.54 2.78-9.02 6.41-3.73-.05-7.47-.12-11.15-.72-1.01-.11-3.04-.34-4.05-.45 1.36-7.93 8.01-14.14 15.62-16.17m1.04 36.04c-3.87 2.09-4.03 8.57-.02 10.58 2.53 2.13 6.36 1.75 9.41 1.11 5.28-1.23 9.01-6.54 8.38-11.93l-.48.08.36-4.05c-5.77 1.67-12.24 1.32-17.65 4.21zm114.72 14.41c-.54-6.32 6.79-11.3 12.52-8.75 2.5 1.2 5.02 3.38 5.94 5.97.61 3.66-.33 7.69-3.53 9.87-2.46 2.37-6.09 1.87-9.16 1.56l-.54-.08c-2.6-2.18-5.42-4.87-5.23-8.57z"/><path d="M23.85 29.69c3.67 2.54 3.54 8.49.19 11.26-3.64 3.5-10 3.19-13.24-.71-.3-.66-.88-2-1.18-2.67 2.48.7 5.13 1.72 7.7.78 3.76-1.05 6.88-4.62 6.53-8.66zm25.38 8.45c1.83-2-1.51-7.92 2.97-6.41-.1 4.5.54 9.14-.86 13.51-1.74 5.21-4.82 10.12-9.25 13.45-2-1.93-5.77-2.33-6.81-4.79l.97-1.24c.93.65 1.87 1.27 2.83 1.86 5.36-3.75 8.59-10.12 10.15-16.38zm24.04 12.58c1.19-.1 2.57-.48 3.17.89-1.45 1.22-2.04 3.07-3.12 4.57.03-1.82.15-3.65-.05-5.46zm121.09-.38c.43.13 1.29.39 1.73.52 3.42 11.02 6.64 22.12 9.97 33.17l.28 2.32c-.23.41-.71 1.23-.94 1.64-3.53-12.59-6.96-25.24-11.04-37.65zm258.9.37c1.34-.17 2.7-.47 3.16 1.15-1.27 1.27-2.05 2.9-3.08 4.34.01-1.83.12-3.66-.08-5.49zm-430.18.23c.68-.06 2.04-.17 2.72-.22.08 19.03.04 38.06.02 57.09-5.33.05-10.67-.02-16.01.04-.03-.71-.08-2.12-.11-2.83 4.47-.12 8.96.14 13.43-.14.02-17.98.12-35.96-.05-53.94zm210.15 1.89c.42-.8.8-1.61 1.14-2.45l4.02.36c-6.78 19.03-13.71 38.01-20.52 57.04-6.18.05-12.36.15-18.53-.06-.19-.67-.59-2.02-.78-2.69 5.47-.11 10.95.09 16.42-.1l.36-.42c5.83-17.27 12.17-34.37 17.89-51.68zm128.7-1.97c.72-.02 2.16-.07 2.88-.1.05 19.43.04 38.85.01 58.28.04 5.62-2.38 11.25-6.78 14.81-6.15 4.99-14.35 6.54-22.08 6.53-6.66-.05-13.74-1.07-19.25-5.08 10.46 4.47 22.87 4.35 33.29-.19 7.45-3.23 12.32-11.01 12.12-19.11-.05-18.38.32-36.79-.19-55.14zm-220.69 4.17c3.32 3.88 4.91 8.94 4.89 14.01-.01 12.92.07 25.84-.04 38.76-5.41.05-10.82.04-16.24.01.03-.7.08-2.09.1-2.79 4.49-.07 8.97.04 13.45-.05.1-12.31 0-24.62.05-36.93.05-4.41-.21-9-2.21-13.01zm349.05 1.9c3.32 3.86 4.48 9.12 4.52 14.1 0 12.26.02 24.52-.02 36.78-5.35.06-10.7-.04-16.04.05l.08-2.84c4.41-.13 8.84.16 13.25-.15.08-6.28.03-12.57.03-18.84-.71-9.67 1.4-19.74-1.82-29.1zM260.3 60.26c5.42-4.48 14.98-3.06 18.05 3.55-5.68-3.79-14.49-2.57-18.01 3.56-.77 1.8-4.08 2.38-4.73.12l-.27-.56c1.77-2.1 2.5-5.09 4.96-6.67zm128.78 3.71c1.48-3.63 4.93-6.56 9.02-6.41 3.53-.43 8.04.55 9.24 4.38-5.75-1.43-13.32-.35-15.46 6.05-4.95-.29-9.89-.66-14.82-1.11.09-1.25.38-2.46.87-3.63 3.68.6 7.42.67 11.15.72zM74.4 66.86c.78-7.35 11.32-10.91 15.92-4.75l.1 1.13c-2.86.29-6.3-.88-8.86 1.06-2.96 1.81-4.67 5.2-4.7 8.64-.05 11.62 0 23.24-.03 34.86-5.4.08-10.81-.03-16.22.06.07-.71.19-2.14.26-2.85 4.42-.1 8.84.15 13.26-.13.24-12.67-.3-25.38.27-38.02zm36.96-5.47c3.76-3.96 11.81-3.14 13.96 2.07-1.74.32-3.49-.66-5.29-.3-4.89-.51-8.71 4.28-8.73 8.86-.11 11.93.06 23.87-.08 35.8-5.28-.05-10.57.14-15.84-.1.01-.67.05-2.03.07-2.71 4.24-.04 8.49.03 12.74-.02l.4-.45c-.05-11.83-.02-23.65-.02-35.48-.13-2.79.73-5.71 2.79-7.67zm180.85-2.35c5.5 6.58 6.51 15.5 6.22 23.76-13.25.2-26.51.05-39.75.07-.87 2.73.24 5.51 1.27 8.01-3.07-2.7-4.58-6.96-4.33-11 13.35-.11 26.71.13 40.05-.12.2-7.03-.12-14.36-3.46-20.72zm29.2 14.06c.22-5.66 2.7-12.32 8.6-14.17 3.23-.6 6.88-.61 9.64 1.42.98.83 2.74 1.59 2.23 3.22-4.74-1.97-11.01-1.41-14.24 2.96-4.57 6.41-4.54 15.3-1.68 22.41-4.38-3.89-4.87-10.34-4.55-15.84zm102.66-14.48c2.63 2.71 3.32 6.75 3.42 10.4.06 12.76-.07 25.52.06 38.28l-.39.55c-5.03-.06-10.07.01-15.11-.04-.01-.69-.04-2.09-.05-2.79 4.25-.12 8.51.15 12.76-.14-.09-13.3 0-26.61-.04-39.91.02-2.14-.36-4.24-.65-6.35zm32.2 4.74c4.14-6.17 15.01-5.72 18.01 1.35-4.51-2.53-11.05-2.23-14.64 1.8-2.06 2.29-2.81 5.46-2.8 8.47-.01 10.94.02 21.89-.01 32.83-5.41.07-10.81-.04-16.21.05.06-.71.18-2.13.25-2.85 4.42-.1 8.85.15 13.26-.13.07-11.3.02-22.61.02-33.91.03-2.66.43-5.46 2.12-7.61zm-65.73 19.31c5.41-2.89 11.88-2.54 17.65-4.21l-.36 4.05c-3.53 1.18-7.29.88-10.82 2.02-4.13.56-7.72 4.34-6.49 8.72-4.01-2.01-3.85-8.49.02-10.58zm-96.32 9.22l.51-.6c.78.01 2.35.04 3.13.06-.94 7.19-6.89 12.86-13.43 15.42-5.5 2.33-11.59 2.2-17.45 1.96-4.49-.31-8.82-1.89-12.7-4.12l-.17-.93c7.93 2.92 16.78 3.58 24.97 1.22 6.61-1.84 12.49-6.61 15.14-13.01z"/><path d="M345.47 94.9c-.68 4.86 1.72 10.33-.13 14.78-.35-2.56-.24-5.26 0-7.84-6.16 6.09-15.87 6.32-23.57 3.41-1.74-.99-4.18-1.47-5.08-3.41 5.2 2.01 10.9 3.22 16.45 2.02 5.37-.59 9.47-4.67 12.33-8.96zm178.25-.6c2.52.27 2.99 4.32 2.87 6.56-.34 7.32-11.59 11.02-15.56 4.87 3.07.31 6.7.81 9.16-1.56 3.2-2.18 4.14-6.21 3.53-9.87zm-144.88 8.89c9.62 5.27 24.4 4.34 29.99-6.28-.03 2.18-.06 4.37-.04 6.55-5.13 5.84-13.66 6.02-20.77 4.86-3.38-.96-6.84-2.41-9.18-5.13z"/></svg>