<svg xmlns="http://www.w3.org/2000/svg" width="128pt" height="128" viewBox="0 0 128 96"><g fill="#00f0fd"><path d="M54.76 6.18c.65-1.57 1.29-3.14 1.94-4.71 3.88 6.6 3.78 14.94.85 21.87-.37-5.8.86-12.11-2.79-17.16z"/><path d="M81.61 3.27c4.03 7.21 10.54 12.46 17.13 17.21-.65-3.66-1.17-7.37-2.33-10.92.96-2.19 2.02-4.33 3.13-6.45 2.76 5.74 5.29 11.67 6.86 17.86-1.15-.64-2.29-1.29-3.42-1.95.32 1.91.62 3.82.94 5.73 7.06 6.01 13.93 12.62 18.05 21.06 5.79 12.34 3.12 28.6-7.81 37.25 3.72-5.66 6.75-12.09 6.48-19.03.55-12.05-7.04-22.52-15.66-30.16 1.59 9.7 2.97 19.42 4.09 29.18.14 5.66-.53 11.54-3.29 16.59-.56-17.01-3.3-33.85-5.93-50.64-4.2-3.57-8.53-7-13.13-10.04 1.12 2.98 2.71 5.79 3.48 8.88.36 5.42.5 11.73-3.56 15.93-2.16 2.42-5.68 1.93-8.56 1.71-5.18-1.45-8.11-6.39-9.81-11.14-1.18 4.22-2.1 9.17-6.24 11.57-4.17 3.41-10.87 2.2-13.58-2.46-4.51-6.91-1.73-15.5-.24-22.92-.43.18-1.29.54-1.72.71-2.88 7.67-2.69 16.08-5.65 23.7-.87 2.38-2.93 5.29-5.86 4.51-3.12-1.33-4.67-4.65-5.77-7.65-2.33-6.03-2.53-12.69-1.39-19-5.31-4.36-.64-11.7 3.23-15.39-1.51 3.77-5.12 8.55-1.31 12.16 1.04-.46 2.08-.91 3.12-1.35-.89 2.02-2.19 3.82-3.92 5.2.02 5.47-.01 11.19 2.34 16.25 1.06 1.98 2.97 4.38 5.52 3.63 2.26-1.71 3.34-4.48 3.88-7.18 1.37-7.08 1.98-14.55 5.51-20.99.98-1.93 3.2-2.48 5.04-3.25 1.49 8.77-5.81 18.64.48 26.51 4.41 5 12.47 1.11 14.29-4.49 2.34-7.7.95-16.02-1.49-23.53 1.08-2.11 2.13-4.23 3.24-6.32 2.79 8.1 4.38 16.59 4.58 25.15-.06 6.93 9.86 12.67 14.88 6.65.19-4.03-2.48-7.51-3.54-11.29-2.17-4.8-2.02-10.33-4.47-14.99.82-2.1 1.59-4.21 2.41-6.3z"/><path d="M40.98 8.65c.79-1.43 1.59-2.93 3.11-3.7.56.63 1.68 1.89 2.23 2.52l-3.47-.28.27 1.57.72-.59c1.04.96 2.09 1.9 3.17 2.83-.65.11-1.95.35-2.6.46-2.85 3.13-5.69 6.5-9.7 8.16 2.68-3.18 6.13-5.58 8.79-8.77-.85-.73-1.69-1.47-2.52-2.2zM4.65 30.48c2.66-6.18 7.9-10.61 12.76-15.03 2.93 6.03 3.56 12.76 4.8 19.25 1.1 5.79 1.15 11.7 1.92 17.53 5.55 1.21 11.21 1.86 16.87 2.29-1.63 4.4-3.27 8.85-3.88 13.53 4.28-.37 8.64-1.17 12.35-3.43 3.12-1.97 6.11-4.14 9.31-5.96-.07 1.79-.2 3.58-.36 5.37 2.06 2.43 5.2 4.66 8.5 3.15 5.23-1.69 5.54-8.22 10.06-10.79-.34 2.04-.86 4.05-1.38 6.05 2.3 3.05 6.28 2.88 9.39 1.27-2.54-3.1-2.58-7.12-.38-10.43 3.49 3.81 3.18 9.63 1.76 14.25-.92 3.5-4.98 4.75-8.19 3.92-2.46-.26-3.59-2.85-5.16-4.43-1.53 3.04-3.45 6.4-7.05 7.24-5.16 1.67-10.31-3.11-10.26-8.26-5.15 4.4-11.29 7.49-17.8 9.3 1.74 3.96 4.46 7.58 8.55 9.3 7.47 2.98 15.99 1.99 23.31-.99 9.52-3.75 19.23-8.2 26.38-15.73-.54-2.58-1.77-4.96-2.74-7.39-1.66-3.78-2.42-7.87-3.95-11.69.79-2.28 1.49-4.6 2.17-6.92 2.04 2.83 4.44 5.37 6.34 8.3-.74.04-2.21.11-2.94.14 1.67 4.45 3.55 8.95 4.08 13.71-.29 4.39-1.52 9.21-5.05 12.14-9.33 8.9-21.34 15.01-34.01 17.4-5.74.52-12.18.96-17.11-2.59-4.97-3.39-7.1-9.58-7.57-15.35-8.97-.71-13.78-9.73-14.85-17.74-6.77-2-14.44-4.95-17.48-11.89-2.45-5.05-.64-10.76 1.61-15.52m1.51 5.87c.97 7.12 7.28 12.13 13.54 14.73-1.03-10.34-2.21-20.76-5.29-30.71-4.53 4.05-8.7 9.56-8.25 15.98m19.28 22.74c1.86 4.31 5.06 8.18 9.8 9.34.52-2.83 1.08-5.66 1.73-8.46-3.85-.21-7.69-.47-11.53-.88zm51.28-27.54c-1.72-2.99-.2-6.07 1.15-8.84 1.71 1.88 3.37 3.87 3.59 6.53-1.54.84-3.13 1.61-4.74 2.31m.25-4.55c-1.16 1.42 1.22 3.18 2.34 1.84 1.13-1.37-1.26-3.19-2.34-1.84z"/><path d="M58.68 31.55c.78-2.69 1.86-5.29 3.34-7.67 1.1.6 2.19 1.22 3.27 1.86-.37.52-1.11 1.55-1.47 2.07-.47-.4-1.39-1.18-1.85-1.58-1.62 2.97-2.56 6.22-3.66 9.39-.82-1.87-1.6-3.75-2.38-5.64-1.32-.55-2.61-1.17-3.87-1.82.33-1.21.67-2.42 1.03-3.62 3.39.74 4.2 4.36 5.59 7.01zm13.97 14.73c2.14.98 4.3 1.92 6.45 2.89-.39 2.34-.79 4.7-1.62 6.93-2.04-.92-4.16-1.72-5.97-3.05-.2-2.31.66-4.54 1.14-6.77zm-12.67 8.79c.14-2.24.79-4.39 1.32-6.56 2.13 1.02 4.27 2.03 6.39 3.07-.47 2.23-.94 4.46-1.39 6.7-2.18-.87-4.76-1.32-6.32-3.21zm-9.65-5.24c2.07.94 4.14 1.89 6.22 2.8-.5 2.16-1 4.32-1.54 6.47-2.33-.52-4.44-1.65-6.42-2.97.51-2.12 1.09-4.22 1.74-6.3zm20.52 30.8c-1.15-4.01.76-7.71 2.61-11.14.07.6.22 1.81.29 2.41 1.12 1.19 3.13 2.09 3.01 4.01.83 3.38-3.07 5.29-5.91 4.72m1.54-5.78c-.14.88-.41 2.62-.55 3.49 1.36-.41 2.73-.84 4.08-1.29-1.16-.75-2.34-1.48-3.53-2.2zm-22.95 4.72c-1.01-2.27.72-4.68 1.15-6.93 2.04 1.06 4.09 2.09 6.14 3.13-.45 2.04-.89 4.08-1.47 6.09-1.99-.6-4.16-.96-5.82-2.29zm-25.1-3.31c1.24-1.34 3.16-.63 4.71-.54-.29 1.25-.64 2.49-1.03 3.72a45.37 45.37 0 0 1-3.06-.73c-.32.35-.97 1.05-1.29 1.4 1.43.43 2.84.95 4.32 1.21 1.91-.77 3.67-1.87 5.53-2.76-1.43 5.42-7.6 6.86-12.13 8.76.81-1.17 1.68-2.28 2.58-3.38-.96-.9-1.9-1.82-2.8-2.77.96-1.69 1.75-3.54 3.17-4.91zm68.73 6.25c1.39-2.31 3.02-6.93 6.43-5.96 2.01.36.81 2.55.68 3.88-1.68.14-3.37-.02-5.05.16 1.48.77 2.91 1.91 4.65 2.01 1.9-.86 3.7-1.92 5.65-2.68-1.51 5.42-7.67 6.64-12.16 8.64a63.02 63.02 0 0 1 2.72-3.39c-1-.86-1.97-1.75-2.92-2.66z"/></g></svg>