<svg xmlns="http://www.w3.org/2000/svg" shape-rendering="crispEdges" viewBox="0 -.5 34 25"><path stroke="#a45036" d="M14 0h1m5 17h2"/><path stroke="#990f11" d="M15 0h1"/><path stroke="#c50101" d="M16 0h1m4 2h1M3 15h1m-2 3h1"/><path stroke="#cd0201" d="M17 0h3m0 1h1M4 14h1m-1 1h1m26 0h1M3 16h1"/><path stroke="#ca0101" d="M20 0h1m10 16h1M3 17h1"/><path stroke="#d40000" d="M21 0h1m4 2h1m4 12h1m-2 1h1M3 18h1"/><path stroke="#ce060c" d="M22 0h1"/><path stroke="#694c75" d="M23 0h1M2 9h1"/><path stroke="#8d665c" d="M24 0h1M12 8h1m6 8h1m-2 1h1"/><path stroke="#68302f" d="M12 1h1m7 7h1"/><path stroke="#33389f" d="M13 1h1m10 1h1M2 11h1"/><path stroke="#2145cf" d="M14 1h1m9 0h1m7 22h1m-1 1h1"/><path stroke="#34276c" d="M15 1h1m13 9h1"/><path stroke="#9c0203" d="M16 1h1m2 4h1M1 15h1m3 0h1m-6 1h1"/><path stroke="#c10100" d="M17 1h1m8 2h1M3 13h1m28 6h1"/><path stroke="#b90100" d="M18 1h1M4 16h1m26 1h1M1 18h1m29 2h1"/><path stroke="#be0101" d="M19 1h1m0 1h1M3 14h1m26 6h1"/><path stroke="#db0000" d="M21 1h1m3 2h1M4 13h1m-2 6h1"/><path stroke="#941235" d="M22 1h1M3 12h1"/><path stroke="#0954f8" d="M23 1h1m-1 1h1M4 11h1m24 1h2M1 21h2"/><path stroke="#aa1228" d="M25 1h1m5 12h1m-3 1h1M3 20h1m28 0h1m-3 1h1"/><path stroke="#e14204" d="M26 1h1"/><path stroke="#924b24" d="M4 2h1m22 2h1"/><path stroke="#75462b" d="M5 2h1m15 5h1"/><path stroke="#7f3f25" d="M6 2h1m5 3h1"/><path stroke="#995427" d="M7 2h1"/><path stroke="#882e14" d="M10 2h1m14 3h1m-5 13h1"/><path stroke="#6c0607" d="M11 2h1m-1 1h2m-1 1h1M5 18h1"/><path stroke="#53091c" d="M12 2h1"/><path stroke="#11248b" d="M13 2h1m2 1h1M4 9h1m2 3h1"/><path stroke="#083ed5" d="M14 2h1m13 11h1m1 10h1m-1 1h1"/><path stroke="#0c3ac6" d="M15 2h1M3 9h1m25 2h1M3 22h1"/><path stroke="#461433" d="M16 2h1M5 21h1m23 1h1"/><path stroke="#ac0101" d="M17 2h1m2 3h1M1 13h2m1 4h1"/><path stroke="#b50000" d="M18 2h1M5 14h1m-4 1h1m28 3h2m-2 1h1"/><path stroke="#b20101" d="M19 2h1M2 14h1m-2 2h1m30 1h1m0 2h1"/><path stroke="#4c3472" d="M22 2h1M4 7h1m1 3h1"/><path stroke="#d0020b" d="M25 2h1"/><path stroke="#b73209" d="M27 2h1M18 3h1"/><path stroke="#a4754b" d="M4 3h1m5 18h1m12 0h1m4 1h1m-19 1h1m-1 1h1"/><path stroke="#926745" d="M5 3h1m22 2h1M19 21h1"/><path stroke="#562825" d="M6 3h2m1 3h1m8 9h1M7 21h1m-1 1h1"/><path stroke="#724135" d="M8 3h2M9 4h1m1 2h1M8 8h1"/><path stroke="#671b1b" d="M10 3h1"/><path stroke="#33134f" d="M13 3h1m14 11h1"/><path stroke="#0529a5" d="M14 3h1m-9 8h1m21 1h1M4 22h1"/><path stroke="#0b44d9" d="M15 3h1M5 11h1M0 21h1"/><path stroke="#780708" d="M17 3h1M6 14h1m-2 3h1m23 4h1"/><path stroke="#ba621c" d="M19 3h2m-1 1h1"/><path stroke="#ac3e26" d="M21 3h1m8 14h1m-1 1h1"/><path stroke="#2d3ab4" d="M22 3h1M5 12h1m-6 8h1"/><path stroke="#004cff" d="M23 3h1"/><path stroke="#621e65" d="M24 3h1"/><path stroke="#b0530e" d="M27 3h1m-9 1h1m-6 1h1"/><path stroke="#b38455" d="M4 4h1m22 6h1m-7 10h1"/><path stroke="#b58a55" d="M5 4h1m0 2h1m0 1h1m20 0h1m-2 13h1"/><path stroke="#9b6c44" d="M6 4h1m20 2h1m0 12h1m-14 2h1m-8 1h2m7 0h1"/><path stroke="#62352e" d="M7 4h1m5 3h1M8 20h1"/><path stroke="#522321" d="M8 4h1m0 1h1m7 2h1m6 0h2M10 8h1m7 1h1M7 20h1"/><path stroke="#7b4c3d" d="M10 4h1m15 5h1m-9 7h1m1 3h1M9 20h1"/><path stroke="#692b24" d="M11 4h1m7 6h1m1 13h1"/><path stroke="#601e1c" d="M13 4h1m12 1h1m-8 6h1m-1 11h1m-1 1h1"/><path stroke="#594159" d="M14 4h1m12 9h1"/><path stroke="#8e9067" d="M15 4h1m6 0h1"/><path stroke="#8f6d55" d="M16 4h1m-6 13h1m11 5h1"/><path stroke="#8f661f" d="M17 4h1m4 2h1m1 0h1"/><path stroke="#b58e18" d="M18 4h1m-4 1h1m1 0h2m2 0h1m-3 1h2"/><path stroke="#cbad21" d="M21 4h1m2 1h1m-7 1h1m2 0h1"/><path stroke="#58609c" d="M23 4h1m6 7h1"/><path stroke="#922b40" d="M24 4h1"/><path stroke="#c70402" d="M25 4h1"/><path stroke="#a3190d" d="M26 4h1"/><path stroke="#6e3c2c" d="M28 4h1M12 6h1M8 23h1"/><path stroke="#8a614a" d="M29 4h1M8 10h1"/><path stroke="#b77940" d="M30 4h1M4 6h1m25 1h1m-2 2h1"/><path stroke="#be8c4f" d="M4 5h1m25 1h1M9 18h1"/><path stroke="#c3995a" d="M5 5h1m23 0h2"/><path stroke="#b2804a" d="M6 5h1m1 12h1"/><path stroke="#a07246" d="M7 5h1m10 16h1M9 23h1"/><path stroke="#5b2e2d" d="M8 5h1m7 1h1m-1 1h1m-7 3h1m-3 5h1"/><path stroke="#74473b" d="M10 5h1M9 7h1"/><path stroke="#77554a" d="M11 5h1m14 5h1m-9 1h1"/><path stroke="#955114" d="M13 5h1m2 0h1"/><path stroke="#e0cf21" d="M22 5h2"/><path stroke="#663930" d="M27 5h1m-6 3h1M7 17h1"/><path stroke="#caa770" d="M5 6h1m4 9h1m4 3h1m-4 4h1m14 2h1"/><path stroke="#ac7f4c" d="M7 6h1m1 13h1m18 0h1"/><path stroke="#926344" d="M8 6h1m5 13h1m12 0h1m-12 2h1m-9 3h1"/><path stroke="#6a352c" d="M10 6h1m4 0h1m-5 1h1m7 2h1m0 1h1"/><path stroke="#6b3325" d="M13 6h2"/><path stroke="#845826" d="M17 6h1m5 0h1m-6 1h1"/><path stroke="#5c3627" d="M25 6h1M7 18h1m13 3h1"/><path stroke="#55272a" d="M26 6h1"/><path stroke="#b0834d" d="M28 6h1M8 7h1m18 0h1M9 22h1"/><path stroke="#c6a169" d="M29 6h1M9 17h1m18 0h1m-18 3h1m3 2h1"/><path stroke="#c4a278" d="M5 7h1m18 9h1"/><path stroke="#d4a968" d="M6 7h1m22 1h1m-3 1h1"/><path stroke="#5c2c26" d="M10 7h1M6 24h1"/><path stroke="#5d2420" d="M12 7h1m10 0h1m-3 1h1"/><path stroke="#855b52" d="M14 7h1m5 4h1m10 1h1m-5 6h1"/><path stroke="#82625b" d="M15 7h1m-6 4h1m7 1h1"/><path stroke="#9d7d25" d="M19 7h2"/><path stroke="#622a23" d="M22 7h1M11 8h1m7 7h1"/><path stroke="#6b3a32" d="M26 7h1m-9 16h1"/><path stroke="#cdac73" d="M29 7h1m-16 9h1m-5 1h1m15 0h1m-2 5h1"/><path stroke="#2d3785" d="M3 8h1m3 3h1"/><path stroke="#04188b" d="M4 8h1m0 2h1"/><path stroke="#846268" d="M5 8h1m12 6h1"/><path stroke="#eac479" d="M6 8h1"/><path stroke="#b28c5d" d="M7 8h1m19 9h1m-7 2h1m-6 3h1m-6 1h1m-1 1h1"/><path stroke="#562b29" d="M9 8h1M8 9h1"/><path stroke="#c8b7ac" d="M13 8h1m2 0h1m5 1h1m2 0h1m-5 1h1m-5 5h1m7 0h2"/><path stroke="#f2ebdd" d="M14 8h1m-2 6h1m9 1h1"/><path stroke="#f9f5ec" d="M15 8h1"/><path stroke="#562c34" d="M17 8h1"/><path stroke="#5a251c" d="M18 8h1M6 23h1"/><path stroke="#652e28" d="M19 8h1m0 1h1"/><path stroke="#a1897d" d="M23 8h1m-7 1h1m2 4h1m-1 1h1"/><path stroke="#967972" d="M24 8h1m-15 5h1m7 0h1m8 2h1m-8 1h1"/><path stroke="#4c2127" d="M25 8h1M7 16h1"/><path stroke="#663324" d="M26 8h1"/><path stroke="#bb925e" d="M27 8h1M10 19h1m4 0h1m0 1h1m-6 1h1m2 0h1m-4 1h1"/><path stroke="#d2ae73" d="M28 8h1M7 9h1m9 11h1m4 0h1"/><path stroke="#191f77" d="M5 9h1m22 2h1"/><path stroke="#bf9c6f" d="M6 9h1m15 9h1m3 0h1m-10 5h1"/><path stroke="#3c0708" d="M9 9h1m-1 1h1m11 12h1"/><path stroke="#4d1e16" d="M10 9h1m-4 5h1m-2 8h1m13 0h1"/><path stroke="#8f706b" d="M11 9h1m-2 3h1m-1 2h1"/><path stroke="#f6f2e4" d="M12 9h1"/><path stroke="#fffeee" d="M13 9h1m-2 1h1m9 1h1m-1 1h1m-7 3h1"/><path stroke="#fffde8" d="M14 9h1m7 1h1m-10 2h1m7 0h1m-9 1h1m7 0h2m-1 1h1"/><path stroke="#dbd6bf" d="M15 9h1m-5 1h1m2 0h1m-1 3h1m9 2h1"/><path stroke="#c0d4b3" d="M16 9h1"/><path stroke="#6d453e" d="M21 9h1m-4 1h1m9 11h1"/><path stroke="#fffff8" d="M23 9h2"/><path stroke="#e0c183" d="M28 9h1M18 19h1m-1 1h1m5 3h1"/><path stroke="#1a41c5" d="M2 10h1m29 11h1"/><path stroke="#1543cb" d="M3 10h2m-2 1h1m29 10h1M0 22h1m-1 1h1m2 0h1m-4 1h1"/><path stroke="#c3a87f" d="M7 10h1"/><path stroke="#fef6e2" d="M13 10h1m9 0h1m-10 4h1m6 0h1"/><path stroke="#408526" d="M15 10h1m1 2h1m-3 1h1m10 0h1m-2 1h1"/><path stroke="#136503" d="M16 10h1m-1 3h1m7 0h2"/><path stroke="#6c895a" d="M17 10h1"/><path stroke="#a6bb8b" d="M24 10h1m-11 1h1m-1 1h1m8 0h1m-1 1h1m-8 1h1"/><path stroke="#6f9b57" d="M25 10h1m-2 4h1"/><path stroke="#89777d" d="M28 10h1"/><path stroke="#782b54" d="M1 11h1"/><path stroke="#553138" d="M8 11h1"/><path stroke="#400f08" d="M9 11h1m-1 1h1m-1 1h1"/><path stroke="#f8f0dc" d="M11 11h1m9 0h1m-11 1h1m-1 1h1m10 2h1"/><path stroke="#fff9e3" d="M12 11h2m-2 1h1m-1 1h1"/><path stroke="#0b4700" d="M15 11h1m9 0h1m-11 1h2m7 0h1"/><path stroke="#042501" d="M16 11h1m8 1h1"/><path stroke="#3c6623" d="M17 11h1m8 0h1"/><path stroke="#d3caac" d="M23 11h1m-13 3h1m3 0h1m-4 1h1m1 0h1"/><path stroke="#307215" d="M24 11h1m1 1h1"/><path stroke="#573a44" d="M27 11h1m-1 3h1"/><path stroke="#9b060b" d="M2 12h1"/><path stroke="#72256f" d="M4 12h1m25 1h1M2 20h1"/><path stroke="#0835ba" d="M6 12h1"/><path stroke="#421920" d="M8 12h1m-2 3h1m-2 2h1m0 2h1"/><path stroke="#551a16" d="M19 12h1m-1 1h1m-1 1h1"/><path stroke="#9d7f74" d="M20 12h1m-1 3h1m-4 1h1"/><path stroke="#412f3f" d="M27 12h1"/><path stroke="#9a0904" d="M0 13h1m32 5h1"/><path stroke="#bd0814" d="M5 13h1"/><path stroke="#481e56" d="M6 13h1"/><path stroke="#342450" d="M7 13h1m-3 9h1m-1 1h1m-1 1h1"/><path stroke="#451c15" d="M8 13h1m-1 1h2m-4 4h1m-1 1h1m-1 1h1m-1 1h1"/><path stroke="#8ca674" d="M17 13h1m8 1h1"/><path stroke="#1848dd" d="M29 13h1m2 9h1m-2 1h1M3 24h1m27 0h1"/><path stroke="#910202" d="M0 14h1m-1 1h1m3 4h1"/><path stroke="#a00201" d="M1 14h1m-2 3h1m-1 1h1m3 0h1"/><path stroke="#e6d7c7" d="M12 14h1"/><path stroke="#ede9d4" d="M17 14h1m5 0h1m-3 1h1"/><path stroke="#e60000" d="M30 14h1M2 19h1"/><path stroke="#600c11" d="M6 15h1"/><path stroke="#a67959" d="M9 15h1m4 3h1m4 1h1m6 0h1m-7 1h1m5 0h1"/><path stroke="#d6bc86" d="M11 15h1m0 1h1"/><path stroke="#d5bd97" d="M13 15h1m-3 3h1"/><path stroke="#f1e1d2" d="M15 15h1"/><path stroke="#934a3f" d="M28 15h1"/><path stroke="#cb0909" d="M29 15h1"/><path stroke="#b60101" d="M2 16h1m-2 1h2"/><path stroke="#890405" d="M5 16h1m-2 4h1"/><path stroke="#541114" d="M6 16h1m-2 4h1m16 2h1"/><path stroke="#986a48" d="M8 16h1m0 8h1"/><path stroke="#d5b276" d="M9 16h2"/><path stroke="#bd9767" d="M11 16h1m13 4h1m-2 2h1"/><path stroke="#ddbf86" d="M13 16h1m12 0h1m-2 1h1m-9 2h1m4 0h1m4 3h1m-12 1h1"/><path stroke="#c5a681" d="M15 16h1m7 0h1"/><path stroke="#c8b09c" d="M16 16h1m5 0h1"/><path stroke="#c2a898" d="M21 16h1"/><path stroke="#cfaf7d" d="M25 16h1m0 5h1"/><path stroke="#eed8a3" d="M27 16h1m-11 2h1m6 0h1"/><path stroke="#f2e7b8" d="M28 16h1"/><path stroke="#c18869" d="M29 16h1m-8 1h1"/><path stroke="#ba130d" d="M30 16h1"/><path stroke="#bc0405" d="M32 16h1"/><path stroke="#9c7455" d="M12 17h1m0 1h1m0 2h1m10 1h1"/><path stroke="#d6b67d" d="M13 17h1m1 0h1m8 2h1m-11 3h1"/><path stroke="#d7b881" d="M14 17h1m10 2h1m-10 5h1"/><path stroke="#dfc78d" d="M16 17h1m-1 1h1"/><path stroke="#e6cf9a" d="M17 17h1m5 0h2m-2 1h1m1 0h1"/><path stroke="#864231" d="M19 17h1"/><path stroke="#d1be7e" d="M29 17h1"/><path stroke="#aa7949" d="M8 18h1m1 4h1"/><path stroke="#cfb278" d="M10 18h1m1 3h1m0 2h1"/><path stroke="#b19277" d="M12 18h1"/><path stroke="#aa8865" d="M18 18h1m-6 1h1m5 5h2"/><path stroke="#5f1a15" d="M19 18h1"/><path stroke="#781b09" d="M20 18h1"/><path stroke="#ab8454" d="M29 18h1"/><path stroke="#8e0c1e" d="M0 19h1"/><path stroke="#c10204" d="M1 19h1"/><path stroke="#5e1110" d="M5 19h1"/><path stroke="#7d5039" d="M8 19h1m19 1h1M7 23h1"/><path stroke="#d7b67a" d="M11 19h1m12 5h1"/><path stroke="#dbbc82" d="M12 19h1m13 3h1"/><path stroke="#d3b57e" d="M16 19h1"/><path stroke="#d8ba7f" d="M23 19h1m-1 1h1m-10 3h1"/><path stroke="#986e4e" d="M29 19h1m-8 4h1"/><path stroke="#a31917" d="M30 19h1"/><path stroke="#4d2d8e" d="M1 20h1m29 1h1"/><path stroke="#9f714b" d="M10 20h1m13 1h1"/><path stroke="#d8b97c" d="M12 20h1m13 3h1m-12 1h1m7 0h1"/><path stroke="#cfb180" d="M13 20h1"/><path stroke="#ddbd7f" d="M19 20h1m-5 3h1m6 1h1"/><path stroke="#d6b37b" d="M24 20h1m2 1h1"/><path stroke="#78231f" d="M29 20h1"/><path stroke="#731947" d="M33 20h1"/><path stroke="#183dbe" d="M3 21h1m26 1h1m2 0h1m-1 1h1m-1 1h1"/><path stroke="#261f65" d="M4 21h1m24 2h1m-1 1h1"/><path stroke="#d8ba7c" d="M13 21h1"/><path stroke="#8a5b3c" d="M15 21h1m6 0h1M8 22h1"/><path stroke="#4e3a2a" d="M20 21h1"/><path stroke="#1c4deb" d="M1 22h1m-1 1h1m-1 1h1"/><path stroke="#1f50f2" d="M2 22h1"/><path stroke="#d1b57a" d="M13 22h1m9 1h1m-10 1h1"/><path stroke="#764838" d="M17 22h1"/><path stroke="#4b0f14" d="M18 22h1"/><path stroke="#0d49e7" d="M31 22h1"/><path stroke="#1f4ff0" d="M2 23h1"/><path stroke="#102fa3" d="M4 23h1"/><path stroke="#c5a66f" d="M12 23h1m-1 1h1m5 0h1"/><path stroke="#702b21" d="M20 23h1"/><path stroke="#daba7d" d="M25 23h1m0 1h1"/><path stroke="#cfb47c" d="M27 23h1m-15 1h1"/><path stroke="#94643a" d="M28 23h1M7 24h1"/><path stroke="#2050f0" d="M2 24h1"/><path stroke="#1135af" d="M4 24h1"/><path stroke="#dbbd7f" d="M17 24h1"/><path stroke="#c6aa73" d="M21 24h1"/><path stroke="#d8b77b" d="M25 24h1"/><path stroke="#844e2d" d="M28 24h1"/></svg>