<svg height="112pt" viewBox="0 0 112 112" width="112pt" xmlns="http://www.w3.org/2000/svg"><path d="m45.54 10.83c3.09-.91 6.16-2.26 9.45-2.05 4.02.26 7.94 1.28 11.79 2.42 3.49.9 7.24.88 10.51 2.52.98 1.46 1.58 3.14 2.31 4.73 3.21-.04 6.43.02 9.62.41a56.32 56.32 0 0 1 4.26 5.7c1.26.7 2.56 1.36 3.72 2.24.3 2.46.32 4.96-.23 7.39.86 1.28 1.71 2.58 2.55 3.88.66 0 1.99.02 2.65.02.27.56.8 1.67 1.06 2.23l.09.61c-.41.82-.84 1.63-1.27 2.43 1.12.76 2.87 1.03 3.03 2.64-.2 1.16-.44 2.31-.7 3.46l1.87-1.18c-.05 1.16-.1 2.32-.13 3.49-1.79 1.12-3.6 2.2-5.44 3.23-1.42-1.04-2.85-2.06-4.3-3.05.09-.58.26-1.72.35-2.29-5.78.38-11.51 1.27-17.26 1.92l.36-1.33c-2.42-.07-4.84-.14-7.25-.17-2.02-.85-4.08-1.59-6.15-2.3-1.94-.76-3.93-1.41-5.95-1.96-2.29 2.27-4.31 6.51-8.19 5.34-3.86-.09-7.72.31-11.57.59-.54.57-1.09 1.13-1.64 1.7-5.18-.01-10.57 1.01-15.44-1.34-.07.79-.23 2.37-.31 3.16-2.81.16-5.63.3-8.44.02-1.2-.54-2.34-1.19-3.49-1.82-.39.2-1.18.59-1.57.78-.81-.36-1.62-.73-2.43-1.09-1.62.86-3.25 1.71-4.88 2.54-.79-1.38-1.69-2.71-2.52-4.07v-1.44c1.6-3.52 2.54-7.29 3.96-10.89.62-.14 1.86-.43 2.49-.58 1.38-5.12 5.69-8.43 8.51-12.69 4.88-6.98 12.94-11.24 21.33-12.17 2.2-2.91 5.68-4.69 9.25-3.03m46.72 16.39c.58.48.58.48 0 0m.78 10.2c-1.24 3.11 3.33-.19 0 0m2.15 3.82c.58.55.58.55 0 0m5.22 6.77c.45-1.13.14-2-.93-2.6-1.76.16-.52 3.44.93 2.6m-20.1-.76c.69 3.26 2.67-2.02 0 0zm9.82 12.74c.58-.18 1.76-.53 2.35-.71-.59.18-1.77.53-2.35.71z" fill="#0ed145"/><path d="m92.26 27.22c.58.48.58.48 0 0zm.78 10.2c3.33-.19-1.24 3.11 0 0zm-12.73 9.83c2.67-2.02.69 3.26 0 0zm-16.58 30.54c3.07-1.94 5.87-4.53 9.46-5.45 3.22-.19 6.36.77 9.53 1.17-.62 1.47-.51 2.91.35 4.32-.25 4.17-2.2 8.77.64 12.49-.36 1.93-.67 3.87-.96 5.81-5.33 2.25-10.81 4.11-16.49 5.24.06.7.19 2.09.26 2.79-4.8-.82-9.27 2.83-14 1.12-6.56-1.95-12.91-4.5-19.33-6.84-.99-2.82-.42-5.77-.22-8.66 9.1-.52 17.97-2.96 27.08-3.23 4.56.05 9.08.71 13.61 1.14.3-1.51.61-3.01.92-4.52-3.42-2.15-6.67-4.94-10.85-5.38m-25.88 17.49c4.6 2.37 9.58 3.83 14.52 5.32 0-.57-.01-1.71-.01-2.28-4.6.45-9.09-.98-12.55-4.03-.49.25-1.47.74-1.96.99zm-17.66-17.3c.09 3.52.63 7.19 4.1 8.94l.52 2.15c1.57.58 3.14 1.15 4.7 1.75.09 2.63.21 5.28.76 7.87-1.55-1.11-2.83-2.51-3.87-4.1-1.99-.54-3.92-1.27-5.75-2.23-1.52-.67-3.01-1.41-4.48-2.19-1.37-.56-2.72-1.17-4.04-1.84l.56-1.16c1.12-2.05 2.46-3.97 3.91-5.8l.48-.61c1.01-.96 2.07-1.86 3.11-2.78zm59.52 23.1c1.52-1.16 3.37-2.48 5.39-1.81l-.06.6c-1.29 1.59-3.5 1.62-5.33 1.21z" fill="#ffdb6b"/><g fill="#fff"><path d="m97.2 26.8c1.17 2.72 1.4 5.7 1.94 8.58 1.06.85 2.1 1.73 3.03 2.71-.66 0-1.99-.02-2.65-.02-.84-1.3-1.69-2.6-2.55-3.88.55-2.43.53-4.93.23-7.39zm6.03 13.52c1.43 2.86 2.43 5.9 3.83 8.77-.06.22-.16.65-.21.87 1.34.57 2.68 1.17 4.01 1.79-.21.62-.61 1.86-.82 2.48-2.17 5.67-.79 11.86-1.8 17.72-.41 4.22-2.59 8.04-2.65 12.32-2.24 2.69-3.84 6.87-8.06 6.36-.83.79-1.66 1.58-2.48 2.37-1.45 4.27-5.72 7.78-10.17 8.51l.16-1.64.06-.6c.48-3.71.75-7.43.89-11.16-.35-.9-.7-1.8-1.04-2.69 1.52-5.88 2.71-12.2-.15-17.9.25-.23.74-.69.99-.92-.02-1.56-.16-3.12-.32-4.67 1.58-.57 3.12-1.26 4.66-1.94.58-.18 1.76-.53 2.35-.71 1.42-.72 2.83-1.46 4.22-2.22-.75-.68-2.26-2.03-3.01-2.7-3-.14-5.43 2.05-8.1 3.08l-.82.42-1.1.53c-4.49.7-8.86 1.99-13.35 2.69-3.67.25-7.35.4-11.02.51-.28 1.41-.56 2.82-.83 4.24-3.62-.09-7.15 1.02-9.65 3.73.52 1.75 1.02 3.5 1.51 5.25-1.34-1.44-2.64-2.91-3.95-4.37-.48.12-1.43.37-1.91.5l.03-3.98c-2.43 1.08-4.8 2.57-7.51 2.74-2.18-.24-3.79-1.98-5.54-3.13 3.09-.24 6.22-.12 9.27-.73 1.25-1 1.18-2.71 1.42-4.14l-2.73-.68c-3.04-.63-6.16-.39-9.23-.61-1.81-.58-3.61-1.18-5.41-1.75-.85-.59-1.69-1.17-2.54-1.75-.26-.11-.79-.32-1.06-.43-2.11-.24-4.25-.5-6.28-1.19 2.81.28 5.63.14 8.44-.02.08-.79.24-2.37.31-3.16 4.87 2.35 10.26 1.33 15.44 1.34.55-.57 1.1-1.13 1.64-1.7 3.85-.28 7.71-.68 11.57-.59 3.88 1.17 5.9-3.07 8.19-5.34 2.02.55 4.01 1.2 5.95 1.96 2.07.71 4.13 1.45 6.15 2.3 2.41.03 4.83.1 7.25.17l-.36 1.33c5.75-.65 11.48-1.54 17.26-1.92-.09.57-.26 1.71-.35 2.29 1.45.99 2.88 2.01 4.3 3.05 1.84-1.03 3.65-2.11 5.44-3.23.03-1.17.08-2.33.13-3.49l-1.87 1.18c.26-1.15.5-2.3.7-3.46-.16-1.61-1.91-1.88-3.03-2.64.43-.8.86-1.61 1.27-2.43z"/><path d="m95.19 41.24c.58.55.58.55 0 0zm5.22 6.77c-1.45.84-2.69-2.44-.93-2.6 1.07.6 1.38 1.47.93 2.6zm-91.71 17.46c.41.25 1.24.76 1.66 1.01 2.99 4.34 6.42 8.8 6.72 14.28l-.48.61c-.98-2.9-1.97-5.78-2.98-8.66-.33 2.47-.68 4.95-1.06 7.42-1.29-.78-2.59-1.57-3.88-2.35.05-.37.14-1.11.19-1.48.27-2.48.58-4.96.95-7.43-.38-1.13-.75-2.27-1.12-3.4zm29.15 29.81c.49-.25 1.47-.74 1.96-.99 3.46 3.05 7.95 4.48 12.55 4.03 0 .57.01 1.71.01 2.28-4.94-1.49-9.92-2.95-14.52-5.32z"/></g><path d="m107.06 49.09c1.84-.08 3.46.67 4.93 1.73l.01-.5v1.05c-.49.71-1.47 2.14-1.96 2.86.21-.62.61-1.86.82-2.48-1.33-.62-2.67-1.22-4.01-1.79.05-.22.15-.65.21-.87zm-104.54 6.61c1.63-.83 3.26-1.68 4.88-2.54.81.36 1.62.73 2.43 1.09.39-.19 1.18-.58 1.57-.78 1.15.63 2.29 1.28 3.49 1.82 2.03.69 4.17.95 6.28 1.19.27.11.8.32 1.06.43.85.58 1.69 1.16 2.54 1.75 1.8.57 3.6 1.17 5.41 1.75-3.33-.13-6.69.13-9.99-.41-3.15-.75-6.07-2.21-9.23-2.93-.38.78-1.13 2.34-1.5 3.11 1.69.98 3.38 1.95 5.1 2.86.87.46 1.82.72 2.77.93.68.16 2.05.47 2.73.62.16 1.42.35 2.83.59 4.24-1.79.37-3.57.95-5.41.96-1.2-.72-2.28-1.61-3.43-2.4-.36-.23-1.09-.68-1.45-.91-.42-.25-1.25-.76-1.66-1.01.37 1.13.74 2.27 1.12 3.4-.37 2.47-.68 4.95-.95 7.43-1.41.76-2.84 1.5-4.28 2.21-.17-6.02-.6-12.07.48-18.04-.91-1.56-1.72-3.17-2.55-4.77z" fill="#fdb76e"/><path d="m85.59 57.44c2.67-1.03 5.1-3.22 8.1-3.08-2.88 1.4-5.9 2.46-8.92 3.5zm-74.63-.37c3.16.72 6.08 2.18 9.23 2.93 3.3.54 6.66.28 9.99.41 3.07.22 6.19-.02 9.23.61-7.41-.07-14.83.07-22.24-.16-2.14-1.01-4.91-4.9-6.85-1.78 1.24 1.5 2.71 2.77 4.24 3.96-1.72-.91-3.41-1.88-5.1-2.86.37-.77 1.12-2.33 1.5-3.11zm48.34 4.52c3.67-.11 7.35-.26 11.02-.51-3.68.58-7.4.7-11.08 1.2 1.01 1.15 2.04 2.47 3.77 2.22 2.93.23 5.95.43 8.82-.39 4.45-1.27 9.11-1.34 13.64-2.18.16 1.55.3 3.11.32 4.67-.25.23-.74.69-.99.92-.5.46-1.51 1.38-2.01 1.84-4.3.32-9.38.43-11.86-3.8-4.16.21-8.31.21-12.46.27.27-1.42.55-2.83.83-4.24zm-41.97 2.38c7.92.44 15.83.55 23.76.16-3.3 1.24-6.83 1.24-10.3 1.08 1.8 4.63-3.95 7.79-7.7 5.6-.24-.12-.71-.36-.94-.49-.38-.37-1.13-1.11-1.5-1.49a75.79 75.79 0 0 1 -.59-4.24c-.68-.15-2.05-.46-2.73-.62zm65.39 9.54.75.07c.24.43.73 1.3.98 1.74-.35.63-1.04 1.88-1.38 2.51-.86-1.41-.97-2.85-.35-4.32z" fill="#010000"/><path d="m84.77 57.86c3.02-1.04 6.04-2.1 8.92-3.5.75.67 2.26 2.02 3.01 2.7-1.39.76-2.8 1.5-4.22 2.22-.59.18-1.77.53-2.35.71-1.54.68-3.08 1.37-4.66 1.94-4.53.84-9.19.91-13.64 2.18-2.87.82-5.89.62-8.82.39-1.73.25-2.76-1.07-3.77-2.22 3.68-.5 7.4-.62 11.08-1.2 4.49-.7 8.86-1.99 13.35-2.69zm-74.45 1.22c1.94-3.12 4.71.77 6.85 1.78 7.41.23 14.83.09 22.24.16l2.73.68c-.26.61-.79 1.83-1.05 2.43-7.93.39-15.84.28-23.76-.16-.95-.21-1.9-.47-2.77-.93-1.53-1.19-3-2.46-4.24-3.96zm72.47 10.28c.5-.46 1.51-1.38 2.01-1.84 2.86 5.7 1.67 12.02.15 17.9.34.89.69 1.79 1.04 2.69-.14 3.73-.41 7.45-.89 11.16-2.02-.67-3.87.65-5.39 1.81a82.61 82.61 0 0 0 -12 3.11c-.3-.01-.9-.02-1.19-.03-.07-.7-.2-2.09-.26-2.79 5.68-1.13 11.16-2.99 16.49-5.24.29-1.94.6-3.88.96-5.81-2.84-3.72-.89-8.32-.64-12.49.34-.63 1.03-1.88 1.38-2.51-.25-.44-.74-1.31-.98-1.74-.31-1.39-.52-2.81-.68-4.22zm-60.64.96c.23.13.7.37.94.49l.56.28c.75.36 2.24 1.08 2.99 1.44-1.15.95-2.32 1.88-3.49 2.8.21 2.26.34 4.53.45 6.8 1.2.93 2.39 1.87 3.58 2.81.08.45.24 1.33.31 1.78 1.59.65 3.19 1.31 4.72 2.1l.76.96c-.2 2.89-.77 5.84.22 8.66.96 2.26 2.87 3.83 4.56 5.52-1.33.35-2.66.67-4 .99-1.24-2.04-2.47-4.1-3.48-6.26-.55-2.59-.67-5.24-.76-7.87-1.56-.6-3.13-1.17-4.7-1.75l-.52-2.15c-3.47-1.75-4.01-5.42-4.1-8.94-.69-2.82.37-5.27 2.65-6.98z" fill="#01a7f1"/><g fill="#fed26b"><path d="m42.14 61.7c-.24 1.43-.17 3.14-1.42 4.14-3.05.61-6.18.49-9.27.73 1.75 1.15 3.36 2.89 5.54 3.13 2.71-.17 5.08-1.66 7.51-2.74l-.03 3.98c.48-.13 1.43-.38 1.91-.5 1.31 1.46 2.61 2.93 3.95 4.37-.49-1.75-.99-3.5-1.51-5.25 2.5-2.71 6.03-3.82 9.65-3.73 4.15-.06 8.3-.06 12.46-.27 2.48 4.23 7.56 4.12 11.86 3.8.16 1.41.37 2.83.68 4.22l-.75-.07c-3.17-.4-6.31-1.36-9.53-1.17-3.59.92-6.39 3.51-9.46 5.45-5.24-.91-10.6-1.16-15.88-.49-5.15.49-10.07 2.34-15.25 2.63-.99.94-2.01 1.86-2.87 2.93-.41 2.34 1.12 4.26 2.48 5.96-1.53-.79-3.13-1.45-4.72-2.1-.07-.45-.23-1.33-.31-1.78-1.19-.94-2.38-1.88-3.58-2.81-.11-2.27-.24-4.54-.45-6.8 1.17-.92 2.34-1.85 3.49-2.8-.75-.36-2.24-1.08-2.99-1.44l-.56-.28c3.75 2.19 9.5-.97 7.7-5.6 3.47.16 7 .16 10.3-1.08.26-.6.79-1.82 1.05-2.43zm-31.78 4.78c.36.23 1.09.68 1.45.91 1.15.79 2.23 1.68 3.43 2.4 1.84-.01 3.62-.59 5.41-.96.37.38 1.12 1.12 1.5 1.49l.69.68c-2.28 1.71-3.34 4.16-2.65 6.98-1.04.92-2.1 1.82-3.11 2.78-.3-5.48-3.73-9.94-6.72-14.28z"/><path d="m12.56 80.13c.38-2.47.73-4.95 1.06-7.42 1.01 2.88 2 5.76 2.98 8.66-1.45 1.83-2.79 3.75-3.91 5.8l.87-1.9-3.82.2c-.61-1.11-1.21-2.23-1.8-3.35.28-1.44.53-2.89.74-4.34 1.29.78 2.59 1.57 3.88 2.35z"/></g><path d="m32.6 79.93c5.18-.29 10.1-2.14 15.25-2.63 5.28-.67 10.64-.42 15.88.49 4.18.44 7.43 3.23 10.85 5.38-.31 1.51-.62 3.01-.92 4.52-4.53-.43-9.05-1.09-13.61-1.14-9.11.27-17.98 2.71-27.08 3.23l-.76-.96c-1.36-1.7-2.89-3.62-2.48-5.96.86-1.07 1.88-1.99 2.87-2.93z" fill="#ec1c24"/></svg>