<svg xmlns="http://www.w3.org/2000/svg" width="512pt" height="512pt" viewBox="0 0 512 512"><path fill="#c00" d="M319.48 71.43c5.37-.62 10.88-.85 16.21.18.92.19 1.84.39 2.77.58 14.46 6.34 25.41 18.03 37.6 27.66 9.58 8.48 19.52 16.52 29.16 24.92 3.37 3.18 7.11 6 11.26 8.1.47.14 1.42.41 1.89.54 2.69.49 5.43.67 8.14 1.03 1.94-.29 3.89-.49 5.84-.72 2.07-.53 4.17-.91 6.25-1.41.92-.21 1.85-.43 2.78-.65 1.66-.4 3.33-.69 5.02-1 2.05-.49 4.14-.85 6.21-1.34.92-.21 1.85-.42 2.78-.63 2.06-.51 4.15-.87 6.22-1.38.92-.21 1.85-.42 2.79-.63 2.03-.5 4.11-.85 6.17-1.31 1.34-.34 2.69-.68 4.03-1.05 1.68-.29 3.36-.58 5.03-.97.91-.24 1.82-.47 2.75-.7 1.65-.39 3.33-.68 5.02-.99 2.05-.49 4.14-.85 6.2-1.34.93-.22 1.86-.43 2.79-.63 2.06-.51 4.15-.87 6.22-1.37.91-.22 1.84-.45 2.77-.67 1.76-.38 3.54-.61 5.32-.93.32-.31.97-.92 1.3-1.22v156.6c-2.18.66-4.43 1.06-6.63 1.66-1.24.18-2.48.34-3.71.52-1.67.42-3.36.75-5.03 1.1-2.43.47-4.88.79-7.3 1.28-1.22.23-2.44.45-3.65.7-2 .4-4.01.66-6.01.97-1.67.42-3.36.72-5.04 1.05-1.97.41-3.96.69-5.94 1-2.3.43-4.63.67-6.94 1-5.37 1.04-10.93.86-16.33.13-1.34-.42-2.69-.83-4.02-1.27-.47-.1-1.4-.29-1.87-.39-3.95-2.05-8.08-3.96-11.29-7.1-6.27-6.05-12-12.69-18.94-18-22.24-22.09-44.31-44.37-66.56-66.46-10.62-8.14-18.56-19.25-29.29-27.25-.48-.03-1.43-.08-1.91-.1-1.01-.61-2.02-1.22-3.03-1.82-1.26-.14-2.5-.28-3.74-.43-2.62-.77-5.36-.74-8.05-.57-2.07.64-4.2 1.05-6.29 1.58-.47.14-1.39.43-1.86.57-1.03.34-2.06.67-3.1.99-5.6 2.87-11.3 5.53-16.85 8.5-9.41 5.78-19.83 9.7-29.24 15.48-9.57 4.99-19.33 9.61-28.91 14.58-.46.12-1.4.38-1.86.51-1.65.41-3.31.75-4.96 1.11-3.69.81-7.53.78-11.23.05-1.34-.41-2.69-.81-4.02-1.23l-1.77-.44c-3.79-2.68-8.32-4.46-11.35-8.11-1.86-2.31-3.58-4.73-5.27-7.16-.01-.5-.04-1.5-.06-2-.61-1.01-1.23-2.03-1.84-3.05-.12-1.57-.25-3.14-.42-4.7-.12-1.19-.16-2.39-.11-3.58.38-2.28.63-4.57 1-6.85.14-.47.41-1.43.54-1.9 2.48-4.72 5.76-9.17 10.17-12.24 6.12-4.37 12.47-8.42 19.08-11.99 28.71-17.16 58.01-33.29 87.24-49.53 9.72-5.04 19.06-10.81 28.95-15.56.46-.07 1.4-.23 1.87-.3 1.01-.48 2.03-.95 3.05-1.42zM77.36 271.67c2.65-1 5.63-1 8.28 0 1.62.32 3.25.56 4.87.87 1.38.52 2.73 1.1 4.07 1.71.97.47 1.94.93 2.93 1.37 3.43 2.43 6.4 5.48 8.9 8.86.22.52.66 1.57.89 2.1.38.96.78 1.92 1.17 2.89.77 2.71.03 5.74 1.47 8.26.03 1.69.17 3.46-.79 4.96-.09 1.56-.15 3.11-.2 4.68 1.25-.41 2.5-.83 3.75-1.25 1.86-.09 3.73-.1 5.59 0 2.64 1.29 5.8.51 8.34 2.15.95.35 1.9.69 2.87 1.02 1.04.69 2.08 1.38 3.16 2.03 3.77 3.05 6.86 6.78 8.79 11.25.32 1.59.55 3.19.88 4.79 1.09 2.86.67 5.96.52 8.94-.7 1.47-.87 3.09-1.06 4.69 5.23.26 10.57-.58 15.73.55 1.37.53 2.73 1.09 4.1 1.66 1.69 1.01 3.34 2.09 5.06 3.08 1.38 1.31 2.73 2.65 4.04 4.04.81 1.44 1.73 2.82 2.59 4.24.25.5.76 1.5 1.01 2 .37.97.75 1.94 1.14 2.91 1.05 4.86.47 9.9.39 14.83-.67 1.45-.87 3.05-1.12 4.62 1.82-.64 3.72-.97 5.63-1.24 2-.9 4.34-1 6.31.07 1.96.21 3.93.37 5.86.79.96.38 1.93.76 2.91 1.14.5.25 1.5.76 2 1.02 1.41.86 2.8 1.77 4.27 2.55 1.36 1.31 2.68 2.69 3.68 4.3 1.01 1.32 2.06 2.61 3.05 3.94.81 1.91 1.48 3.88 1.98 5.9.89 5.3 1.08 10.96-.09 16.22-.14.47-.44 1.4-.59 1.86-.5 1.31-.92 2.66-1.38 3.99-.89 1.37-1.83 2.7-2.69 4.09-1.07 1.33-2.15 2.66-3.03 4.13l-1.96 1.96c-1.47.88-2.8 1.96-4.12 3.04-2.25 1.48-4.56 2.88-6.96 4.11-1.65.67-3.32 1.3-4.96 1.98-1.88.94-3.94 1.3-6 1.55-2.87 1.05-5.97.6-8.95.79-1.1.92-2.21.95-3.35.12-1.96-.2-3.93-.35-5.86-.75-1.37-.55-2.72-1.14-4.06-1.73-.97-.47-1.95-.93-2.93-1.36-1.1-.83-2.15-1.7-3.17-2.59-1.01-1.93-2.46-3.55-3.71-5.31-.35-.98-.69-1.97-1.03-2.95-.97-4.26-.88-8.79-.06-13.06.4-.97.81-1.93 1.23-2.89.85-2.04 1.63-4.12 2.49-6.15.77-1.5 1.5-3.01 2.2-4.53-1.65.63-3.31 1.21-4.96 1.84-.47.15-1.4.44-1.87.59-1.63.45-3.3.69-4.96.99-4.91 1.16-10.24.99-15.19.09-.99-.35-1.97-.69-2.95-1.03-3.55-2.38-6.95-5.02-8.9-8.93-.35-.98-.7-1.95-1.03-2.93-.88-3.95-1.03-8.22.07-12.14.17-.46.49-1.37.65-1.83.48-1.66.86-3.34 1.39-4.97.84-1.84 1.61-3.7 2.38-5.56-1.86.6-3.76 1.09-5.62 1.71-.46.15-1.4.44-1.86.58-1.35.31-2.68.67-3.99 1.11-4.29.9-8.86.96-13.14-.03-1-.33-2.01-.65-3.01-.97-2.69-1.92-4.95-4.34-7.14-6.78-.86-1.46-1.83-2.84-2.74-4.25-.34-1.26-.63-2.54-.93-3.81-.92-2.31-.85-4.86-.06-7.19.43-1.32.79-2.65 1.1-3.99.14-.47.43-1.4.57-1.86.39-1.01.75-2.03 1.1-3.05.33-1.01.65-2.01.97-3.01.25-.7.75-2.1.99-2.8l-2.81.96c-1.04.35-2.06.73-3.07 1.13-.93.17-1.86.33-2.79.5-2.12.5-4.28.86-6.34 1.58-2.31.2-4.67.3-6.91-.44a45.6 45.6 0 0 1-5.92-1.96c-2.3-1.66-4.3-3.69-6.19-5.8-.81-1.46-1.76-2.83-2.65-4.23-.36-.97-.72-1.93-1.07-2.9-.95-5.26-.87-10.79-.04-16.06.43-1.01.85-2.01 1.28-3.01.1-.48.3-1.46.4-1.95.77-2.01 1.56-4.01 2.43-5.98 1.58-2.38 3.25-4.71 4.67-7.19 3.55-3.49 6.63-7.66 11.05-10.13a76.38 76.38 0 0 0 4.08-1.96c1.34-.6 2.68-1.19 4.06-1.72 1.62-.3 3.25-.54 4.87-.86z"/><path fill="#030104" d="M166.95 79.09c9.65-3.47 19.84-6.48 30.22-5.58 15.27.76 30.82 6.47 41.35 17.87-23.73 12.98-47.61 25.82-70.04 40.98-12.2 8.55-20.33 22.68-21.36 37.57-.83 9.86 1.33 19.98 6.34 28.54 8.48 15.68 25.75 25.94 43.5 26.43 11.06-.1 21.23-5.17 31.02-9.81 13.72-6.33 27.49-12.58 41.21-18.93 4.67-2.11 9.58-4.01 14.76-4.21 9.28-.51 18.44 3.61 24.89 10.18 30.13 30.21 60.32 60.39 90.47 90.58 2.81 2.87 5.86 5.53 8.38 8.67 5.51 6.97 6.07 17.31 1.55 24.93-3.54 6.16-10.2 10.39-17.29 10.96-6.28.63-12.72-1.56-17.31-5.87-8.62-8.08-16.61-16.82-25.51-24.59-4.87-4.24-9.36-9.29-15.6-11.52 2.47 6.68 7.68 11.69 12.07 17.11 7.33 8.97 15.55 17.17 23.09 25.96 6.89 8.06 6.89 21.12-.39 28.95-5.6 6.39-15.03 8.96-23.12 6.35-5.89-1.72-10.22-6.31-14.66-10.28-9.14-8.18-18.08-16.6-27.62-24.32-6.03-4.88-11.67-10.55-18.96-13.54 2.26 6.09 7.43 10.25 11.75 14.83 6.81 7.17 14.25 13.69 21.47 20.44 4.11 3.86 8.69 7.56 11.07 12.81 3.38 7.19 2.55 16.13-2.15 22.54-5.21 7.4-15.17 10.92-23.89 8.53-4.78-1.13-8.78-4.22-12.13-7.69-11.25-11.45-22.49-22.94-34.51-33.58-2.19-1.87-4.61-3.44-7.15-4.77 2.17 5.98 6.82 10.47 10.74 15.32 6.44 7.82 13.75 14.88 20.29 22.61 7.15 8.35 6.56 21.95-1.23 29.68-7.16 7.74-19.99 9.11-28.62 3.07-5.84-4.38-10.21-10.36-15.29-15.54 1.42-10.42.42-21.33-4.15-30.89-5.88-12.99-17.73-22.74-31.26-26.93-3.44-13.74-12.49-26.19-25.16-32.74-2.8-1.54-5.95-2.37-8.63-4.1-1.43-2.74-2.18-5.76-3.54-8.52-5.08-10.68-14.25-19.4-25.25-23.77-1.43-.62-2.91-1.16-4.23-1.99-1.66-2.86-2.38-6.15-3.88-9.09-4.55-9.21-12.05-17.03-21.26-21.65-23.82-12.11-56.14-4.74-71.47 17.44-3.44 4.46-5.36 9.81-8.06 14.7-9.19-2.96-18.16-6.6-27.4-9.43V99.47c17.83 6.39 35.76 12.53 53.67 18.7 11.56 4.22 24.58 4.88 36.26.75 5.85-2.03 10.81-5.83 16.07-8.98 19.49-11.81 39.64-22.67 60.95-30.85z"/></svg>