<svg height="160pt" viewBox="0 0 150 160" width="200" xmlns="http://www.w3.org/2000/svg"><path d="m70.98 3.26c.51-.51 1.54-1.53 2.05-2.04.55.51 1.65 1.54 2.2 2.06.34 2.03.74 4.06 1.12 6.09 1.77 4.91 2.2 10.15 3.45 15.18 1.24 5 1.76 10.15 1.96 15.29.45-.01 1.36-.04 1.82-.05 7.44-10.59 14.59-21.44 22.94-31.35.6.04 1.81.12 2.41.17-.78 13.15-3.8 26.08-4.77 39.21 4.81-2.76 9.26-6.14 14.35-8.41 6.23-2.74 11.74-7.67 18.88-7.75-1.79 4.02-5.01 7.12-7.29 10.83-4.54 6.3-7.88 13.38-12.44 19.68 8.69-1.9 17.53-3.06 26.38-3.93 1.87-.32 3.59.44 5.12 1.45-7.84 7.34-17.27 12.57-26.25 18.33 7.63 1.85 15.42 2.78 23.18 3.83 1.29.9.2 2.27-.01 3.43-7.87 2.17-15.73 4.43-23.71 6.15-3.18.34-4.33 3.62-6.28 5.65-1.96 2.7-5.54 2.86-8.53 3.41 2.36 1.59 5.28 2.74 6.69 5.37 1.36 2.45 2.18 5.16 2.63 7.92l.49 1.06c-.02 3.73-.03 7.45.02 11.18-2.48 6.29-6.66 12.63-13.11 15.3-6.23 1.93-12.99 2.15-19.36.78-.78 3.95-1.87 8.17-5.46 10.52-7.06 7.12-17.93 6.54-27.05 4.94-1.17-1.16-2.34-2.32-3.52-3.46.29-2.57.68-5.13 1.03-7.69-4.78-.87-10.61-2.96-12.04-8.16-3.54-9.34-4.59-19.37-5.27-29.25-.38-4.7 1.56-9.08 3.68-13.14-.72-4.55 1.39-9.03.45-13.55-.27-1.58-.55-3.16-.82-4.74-2.3-1.5-4.74-2.93-6.48-5.1-1.96-2.95-1.45-6.66-1.56-10.02-8.89-6.06-18.17-11.63-26.3-18.72 3.29-.36 6.63-.27 9.82.66 6.07 1.67 12.3 2.6 18.47 3.75-4.01-9.2-8.72-18.1-12.8-27.28 1.03-.29 2.06-.57 3.09-.84 7.67 4.59 14.55 10.29 21.24 16.17.73.49 2.19 1.48 2.91 1.97-.12-6.64.39-13.33-.64-19.92-.01-4.52-1.13-9.46 1.17-13.61 5.94 6.48 8.88 14.91 13.12 22.47 1.31 2.26 2.32 4.68 3.07 7.18l1.61.93c1.98-7 2.79-14.31 5.37-21.13.55-3.72 1.82-7.26 2.97-10.82m1.44 2.41c-1.27 7.31-3.45 14.44-4.99 21.71-.26 1-.52 2.01-.76 3.03-.68 2.51-1.42 5-2.34 7.44 2.49.18 5.05.05 7.43.92 2.24.07 4.49.07 6.74.08-.06-3.4.37-6.9-.73-10.19-1.28-4.49-1.67-9.18-2.94-13.67-.32-2.21-.76-4.39-1.1-6.58-.44-.91-.88-1.83-1.31-2.74m-25.6 6.03c-.22 3.84-.35 7.7-.07 11.54 1.27 5.55.3 11.28.82 16.91.47-.3 1.39-.88 1.86-1.18 3.32-.28 6.58-1.04 9.92-1.11-3.04-9.23-8.34-17.45-12.53-26.16m49.09 15.04c-3.03 4.74-6.81 9.03-9.06 14.22 1.89 1.09 4.02 1.63 6.07 2.32 2.56.88 5.06 1.93 7.6 2.87l1.2-2.6c.54-3.87.64-7.81 1.54-11.61.06-1.41.11-2.81.14-4.22.17-.32.51-.96.68-1.29.02-4.39 1.36-8.62 1.85-12.96-3.67 4.16-6.97 8.64-10.02 13.27m-74.23-2.46c3.81 6.95 6.57 14.47 10.76 21.2.52 1.04 1.03 2.08 1.55 3.12 2.86-2.89 6.02-5.47 9.45-7.66-.49-.18-1.47-.55-1.95-.74-6.73-5.15-12.82-11.1-19.81-15.92m107.82 12.79c-1.39.68-2.73 1.44-4.01 2.31-6.39 3.13-12.67 6.47-18.66 10.32 3.07 3.21 6.54 6.07 9.12 9.72 2.86-4.7 6.06-9.18 8.65-14.04 2.53-3.1 4.6-6.53 7.08-9.67-.73.45-1.46.9-2.18 1.36m-81.04 5.37c-6.91 2.44-13.36 7.27-16.4 14.08-1.59 3.38-.86 7.21-.97 10.81.07 3.06 2.9 4.97 4.86 6.96 2.12-6.21 7.35-10.9 13.57-12.79 8.7-1.9 17.81-2.62 26.51-.27l3.43.21c2.33.91 4.71 1.74 7.13 2.44 7.9 2.99 14.48 8.91 18.21 16.5.51 1.89 1.03 3.77 1.62 5.64-.09 3.93.68 8.05-.82 11.81 5.19.62 10.11-3.43 11.65-8.22.34-1.41.74-2.8 1.13-4.19.95-3.84.44-7.82.49-11.73-1.55-4.48-3.47-8.8-5.71-12.98-3.02-2.97-5.84-6.15-9.03-8.93-3.32-2.15-7.07-3.51-10.72-4.99-6.75-2.97-14.07-4.3-21.3-5.54-7.88.1-15.95-.94-23.65 1.19m-37.78 5.23c5.83 4.02 12.1 7.37 17.7 11.71.47-1.51.94-3.03 1.42-4.55.61-1.06 1.17-2.14 1.71-3.24-4.35-1.11-8.86-1.35-13.21-2.46-2.56-.4-4.98-1.69-7.62-1.46m119.78 15.07c-4.01 0-7.8 1.33-11.71 2 .9 1.92 1.68 3.9 2.44 5.89.06 1.46.14 2.92.25 4.39 4.29-1.63 7.87-4.64 11.83-6.91 3.22-2.16 6.61-4.14 9.49-6.77-4.13.01-8.25.67-12.3 1.4m-90.71 9.93c-.31 2.08-.75 4.14-1.08 6.22.28-.06.82-.16 1.09-.22 2.05-4.02 6.51-5.81 10.6-6.99 4.71-.48 9.02-2.47 13.31-4.33 1.34-1.39 2.63-2.83 3.78-4.39-4.24.01-8.5-.26-12.72.12-5.95 1.11-12 4.05-14.98 9.59m31.06-8.98c3.96 4.77 8.39 9.59 14.3 11.88 2.52 1.31 6.16 1.58 6.59 5.04 1.39 4.36.17 9 1.33 13.38.17 2.87.64 5.7 1.09 8.54.56 1.44 1.13 2.87 1.74 4.3 4.97-1.8 5.88-7.49 7.48-11.86.04-2.71.04-5.41-.01-8.12-1.11-3.1-1.87-6.34-3.8-9.07-6.48-9.13-17.78-13.72-28.72-14.09m-7.67 7c.26.77.77 2.32 1.03 3.09-2.08-.81-4.29-2.28-6.56-1.18-4.64 1.69-9.77 2.03-14.04 4.67-3.82 5.28-4.71 11.92-4.73 18.27-1.59 3.66-3.68 7.38-3.4 11.51.3 2.35.32 4.72.46 7.09 1.5 6.71 1.66 13.7 3.84 20.27 1.05 2.1 1.27 4.94 3.59 6.11 5.73 3.1 12.54 3.34 18.92 3.06 4.03-.85 8.19-1.15 12.3-1.39-.99 1.5-2.3 2.69-3.92 3.45-4.22.32-8.54.62-12.36 2.65-2 .34-4.61-.72-6.12 1.03-.5 2.45-.21 5.15 2.54 5.95 5.32.98 10.71 1.13 15.95-.43 2.06-.83 4.03-1.85 5.95-2.96 3.04-1.8 4.46-5.04 5.18-8.35 1-2.95 2.32-5.78 3.23-8.75l.92-1.6c.94-2.37 2.11-4.64 3.18-6.95.25-1.59.95-3.02 1.89-4.31 1.5 2.42 1.34 7.1 5.35 6.5.05-3.86.03-7.72.04-11.58 2.04-2 4.08-4.01 6.01-6.12-3.1-2.36-6.05.34-8.94 1.53.25-4.63-2.24-8.82-2.62-13.39-1.22-4.11-.08-8.48-1.28-12.58-.15-1.95-.32-3.91-.75-5.83-2.59-.84-5.01-2.1-7.59-2.98-4.74-3.06-8.28-7.54-12.33-11.4-1.89 1.56-3.87 3.02-5.74 4.62m59.11 10.03c-.53 2.95-1.22 5.88-1.89 8.8 2.65-.7 5.35-1.24 8.02-1.89 2.33-.84 4.66-1.67 7.02-2.41 1.23-.3 2.48-.57 3.73-.81 0-.29 0-.88.01-1.18-3.18-.1-6.3-.7-9.43-1.13-2.47-.56-5.01-.72-7.46-1.38m-20.62 25.79c1.19.84 2.38 1.71 3.55 2.59.19 3.94-2.59 6.85-5.7 8.79 0 3.64-.02 7.27.04 10.91-2.41 2.44-6.34 3.63-8.82.59-1.2 3.5-3.35 6.66-3.99 10.35 6.34-.03 13.08 1.06 18.78-2.41 6.47-4.9 11.17-13.48 8.45-21.62-.37-1.76-.55-3.55-.81-5.32-1.18-3.64-4.37-6.32-8.05-7.15-2.1-.37-2.56 1.91-3.45 3.27z"/><path d="m55.38 51.38c-.95-2.6-1.3-5.39-.5-8.08 2.19 3.82 4.96 8.66 3.33 13.09l-2-1.28c-.23-1.26-.51-2.5-.83-3.73zm9.79-2.45c-1.03-1.78-.81-3.7.61-5.17l1.66 1.46c.18 1.54.41 3.08.89 4.56.05 2.03.06 4.06.08 6.09-.54.3-1.63.9-2.17 1.2-1.48-2.47-.81-5.42-1.07-8.14zm11.01 7.77c.57-3.72-1.97-10.04 3.07-11.32.02 1.92.01 3.85-.06 5.77-.75 1.77-.69 3.7-.83 5.58-.54-.01-1.64-.02-2.18-.03zm-31.97-8.98c1.56-.52 2.8.34 3.99 1.25.01.42.04 1.28.06 1.7 1.63 1.93 2.57 4.28 3.43 6.62-.78.07-2.35.23-3.13.31-1.55-3.25-3.23-6.45-4.35-9.88zm41.67 5.29c.66-1.91 1.08-5.78 4.07-4.55-.47 2.34-1.07 4.64-1.46 6.99-.5 2.08-1.52 4.05-4.01 3.94.37-2.15.93-4.25 1.4-6.38zm-48.05-1.23c.82.52 1.63 1.05 2.44 1.58 1.46 1.88 2.98 3.73 4.37 5.67-.46.49-1.4 1.47-1.87 1.96-2.19-2.58-6.13-5.38-4.94-9.21zm58.19 5.19c.86-2.04 2.02-4.22 4.44-4.61-1.24 4.16-2.79 8.36-5.43 11.85-2.17-2.4.25-4.85.99-7.24zm-61.97.99c1.68 1.48 3.29 3.03 4.88 4.6-.04.49-.11 1.46-.15 1.95-.47-.02-1.43-.05-1.9-.07-1.2-1.19-2.4-2.38-3.62-3.55.25-.98.52-1.96.79-2.93zm72.97 1.91c.41-.04 1.22-.11 1.63-.15.09.45.25 1.34.33 1.79-1.95 2.04-3.96 4.01-5.91 6.04l-2.42-.04c.51-3.67 3.61-5.66 6.37-7.64zm-1.86 15.16c2.01-2.83 4.82-4.86 8-6.21.22.51.66 1.51.88 2.02-1.52 1.19-3.1 2.31-4.7 3.4l-2.16 1.24c-.5-.11-1.51-.34-2.02-.45zm-37.64-2.42c1.55-.75 3.11-1.48 4.67-2.22.74.64 1.49 1.28 2.23 1.93-2.46.88-4.78 2.09-7.12 3.24.05-.73.16-2.21.22-2.95zm-13.35 5.72c1.27-1.31 2.55-2.61 3.82-3.92.35.48 1.04 1.44 1.39 1.93-.89 1.53-1.91 2.99-2.93 4.44-2.55.73-5.2.83-7.83.88-.34-.59-1.01-1.76-1.35-2.34 2.34-.05 4.63-.47 6.9-.99zm23.34 6.39c-3.68-1.58-8.94-5.36-5.72-9.84 1.52 1.77 2.43 3.94 3.9 5.73 1.87.93 3.9 1.42 5.9 1.99.01.52.04 1.57.05 2.09-1.38.04-2.75.03-4.13.03zm31.26-2.94c2.56-.99 5.18-1.91 7.96-1.97-.13.54-.39 1.62-.53 2.16-1.26.46-2.53.92-3.79 1.39-1.18.3-2.36.57-3.55.82zm-65.09 5.45c2.16-2.74 5.22-4.78 8.86-4.23 1.28 1.77 3.62 3.41 3.42 5.82-.49.47-1.48 1.4-1.97 1.87-.5-1.39.06-3.35-1.33-4.33-1.35-.21-2.71-.25-4.06-.32-1.53 1.66-2.88 3.46-4.2 5.27-.51 1.89-.96 3.81-1.54 5.68-.08 1.45-.14 2.9-.2 4.35.93 1.26 1.88 2.49 2.87 3.71 1.54-.45 3.07-.89 4.63-1.25-.46 1.58-1.22 3.03-2.14 4.39-3.45.49-5.58-2.19-7.36-4.69-2.09.07-3.47-.9-3.88-3.04 1.39-.14 2.8-.26 4.2-.35-.53-.29-1.58-.87-2.11-1.16-.59-1.5 1.17-2.06 1.98-2.96l-1.55-.87c2.22-2.13 3.04-5.2 4.38-7.89zm16.29-1.96h2.24c.45 6.08-1.68 12.02-5.08 16.99-.68 1.06-1.32 2.14-1.98 3.21-.01.55-.02 1.65-.03 2.19.61.27 1.82.81 2.42 1.08 1.65 0 3.29.02 4.94.05a60.16 60.16 0 0 1 2.53-3.95c1.74 2.39.65 5.02-1.34 6.8-2.39.36-4.81.17-7.21.26-1.66-1.37-4.78-2.42-4.4-5.05 1.04-4.65 4.83-8.02 6.09-12.59.93-2.94 1.97-5.87 1.82-8.99zm12.14 6.22c1.49-3.01 4.18-5.02 7.38-5.96 3.4 1.71 5.81 4.61 6.8 8.29-.02 1.23-.05 2.46-.09 3.69 1.32.48 2.62.99 3.92 1.52-1.34.89-2.7 1.77-4.09 2.6-.01.57-.02 1.73-.03 2.3.21-.41.62-1.23.83-1.64 1.04.58 2.09 1.16 3.14 1.74-.87.53-1.74 1.06-2.6 1.59-.68.01-2.04.02-2.72.03l.09.97c1.25.56 2.47 1.21 3.65 1.92-.53.5-1.58 1.5-2.11 2-.77-.31-2.32-.92-3.09-1.22-1.19.89-2.42 1.72-3.64 2.57-1.25-.03-2.5-.05-3.75-.06-2.52-1.69-4.38-4.26-4.54-7.39 2.56.13 3.41 2.45 4.54 4.29 1.36.01 2.73.02 4.1.05 1.28-1.63 2.28-3.46 3.18-5.32 1.03-4.22.25-8.34-.82-12.46-1.06-.86-2.13-1.7-3.22-2.52-3.47.54-4.27 3.95-6.37 6.18zm36.68-2.73c2.09-.31 4.15-.77 6.23-1.15 0 .59.01 1.76.01 2.35-2.05.46-4.11.9-6.19 1.18-.01-.79-.03-1.59-.05-2.38z"/><path d="m46.63 93.85c.98-.33 1.96-.66 2.95-.98.08 1.24.17 2.48.25 3.72-.67.69-1.34 1.38-2.01 2.08-.29-.24-.89-.71-1.18-.94-.01-1.3-.01-2.59-.01-3.88zm27.78 6.42c.76-1.74 1.5-3.54 3.02-4.76.21 1.9.29 3.81.33 5.73-1.12-.31-2.24-.63-3.35-.97zm-22.03 12.99c3.43.17 6.84.77 10.16 1.64.62 1.01 1.27 2 1.94 2.97l.03 3.55c.78 1.39 1.53 2.81 2.32 4.2.01 1.48.01 2.96.02 4.44-.68.71-1.37 1.42-2.05 2.14-2.77-.3-6.02-1.99-8.12.76-1.58-.21-3.13-.57-4.67-.96-.19-.42-.58-1.26-.77-1.68-1.49.11-2.97.16-4.46.14-1.92-2.3-.57-5.46-.05-8.05 2.82-2.48 2.7-6.74 5.65-9.15m-.9 4.42c2.28.11 4.57.29 6.85.48 1.36.53 2.76.98 4.18 1.37-.66-1.03-1.34-2.05-2.02-3.06-1.38.03-2.76.05-4.14.07-.48-.48-1.44-1.46-1.92-1.95-1.02 1-2 2.03-2.95 3.09m.02 10.12c.91.91 1.83 1.8 2.76 2.69.33-.16 1-.48 1.33-.65 1.02-.26 2.03-.53 3.04-.81-.8-.9-1.6-1.8-2.39-2.7-1.6.42-3.18.94-4.74 1.47zm23.31-5.13c.92-3.38.38-7.46 3.16-10.08.52 1.57 1.05 3.15 1.51 4.74.4 1.75.68 3.53 1.15 5.27.81 3.84 1.71 8.04-.83 11.48-1.03 2.66-5.11 2.42-5.89-.32-.51-3.73.51-7.4.9-11.09m1.36 10.51c.78-.4 1.56-.79 2.34-1.18-.07-3.47.28-6.99-.5-10.41-1.48 3.65-1.94 7.67-1.84 11.59z"/><g fill="#fff"><path d="m72.42 5.67c.43.91.87 1.83 1.31 2.74.34 2.19.78 4.37 1.1 6.58 1.27 4.49 1.66 9.18 2.94 13.67 1.1 3.29.67 6.79.73 10.19-2.25-.01-4.5-.01-6.74-.08-2.38-.87-4.94-.74-7.43-.92.92-2.44 1.66-4.93 2.34-7.44.24-1.02.5-2.03.76-3.03 1.54-7.27 3.72-14.4 4.99-21.71zm-25.6 6.03c4.19 8.71 9.49 16.93 12.53 26.16-3.34.07-6.6.83-9.92 1.11-.47.3-1.39.88-1.86 1.18-.52-5.63.45-11.36-.82-16.91-.28-3.84-.15-7.7.07-11.54zm49.09 15.04c3.05-4.63 6.35-9.11 10.02-13.27-.49 4.34-1.83 8.57-1.85 12.96-.17.33-.51.97-.68 1.29-.03 1.41-.08 2.81-.14 4.22-.9 3.8-1 7.74-1.54 11.61l-1.2 2.6c-2.54-.94-5.04-1.99-7.6-2.87-2.05-.69-4.18-1.23-6.07-2.32 2.25-5.19 6.03-9.48 9.06-14.22zm-74.23-2.46c6.99 4.82 13.08 10.77 19.81 15.92.48.19 1.46.56 1.95.74a54.811 54.811 0 0 0 -9.45 7.66c-.52-1.04-1.03-2.08-1.55-3.12-4.19-6.73-6.95-14.25-10.76-21.2zm107.82 12.79c.72-.46 1.45-.91 2.18-1.36-2.48 3.14-4.55 6.57-7.08 9.67-2.59 4.86-5.79 9.34-8.65 14.04-2.58-3.65-6.05-6.51-9.12-9.72 5.99-3.85 12.27-7.19 18.66-10.32 1.28-.87 2.62-1.63 4.01-2.31zm-81.04 5.37c7.7-2.13 15.77-1.09 23.65-1.19 7.23 1.24 14.55 2.57 21.3 5.54 3.65 1.48 7.4 2.84 10.72 4.99 3.19 2.78 6.01 5.96 9.03 8.93 2.24 4.18 4.16 8.5 5.71 12.98-.05 3.91.46 7.89-.49 11.73-.39 1.39-.79 2.78-1.13 4.19-1.54 4.79-6.46 8.84-11.65 8.22 1.5-3.76.73-7.88.82-11.81-.59-1.87-1.11-3.75-1.62-5.64-3.73-7.59-10.31-13.51-18.21-16.5-2.42-.7-4.8-1.53-7.13-2.44l-3.43-.21c-8.7-2.35-17.81-1.63-26.51.27-6.22 1.89-11.45 6.58-13.57 12.79-1.96-1.99-4.79-3.9-4.86-6.96.11-3.6-.62-7.43.97-10.81 3.04-6.81 9.49-11.64 16.4-14.08m6.92 8.94c.32 1.23.6 2.47.83 3.73l2 1.28c1.63-4.43-1.14-9.27-3.33-13.09-.8 2.69-.45 5.48.5 8.08m9.79-2.45c.26 2.72-.41 5.67 1.07 8.14.54-.3 1.63-.9 2.17-1.2-.02-2.03-.03-4.06-.08-6.09-.48-1.48-.71-3.02-.89-4.56l-1.66-1.46c-1.42 1.47-1.64 3.39-.61 5.17m11.01 7.77c.54.01 1.64.02 2.18.03.14-1.88.08-3.81.83-5.58.07-1.92.08-3.85.06-5.77-5.04 1.28-2.5 7.6-3.07 11.32m-31.97-8.98c1.12 3.43 2.8 6.63 4.35 9.88.78-.08 2.35-.24 3.13-.31-.86-2.34-1.8-4.69-3.43-6.62-.02-.42-.05-1.28-.06-1.7-1.19-.91-2.43-1.77-3.99-1.25m41.67 5.29c-.47 2.13-1.03 4.23-1.4 6.38 2.49.11 3.51-1.86 4.01-3.94.39-2.35.99-4.65 1.46-6.99-2.99-1.23-3.41 2.64-4.07 4.55m-48.05-1.23c-1.19 3.83 2.75 6.63 4.94 9.21.47-.49 1.41-1.47 1.87-1.96-1.39-1.94-2.91-3.79-4.37-5.67-.81-.53-1.62-1.06-2.44-1.58m58.19 5.19c-.74 2.39-3.16 4.84-.99 7.24 2.64-3.49 4.19-7.69 5.43-11.85-2.42.39-3.58 2.57-4.44 4.61m-61.97.99c-.27.97-.54 1.95-.79 2.93 1.22 1.17 2.42 2.36 3.62 3.55.47.02 1.43.05 1.9.07.04-.49.11-1.46.15-1.95-1.59-1.57-3.2-3.12-4.88-4.6m72.97 1.91c-2.76 1.98-5.86 3.97-6.37 7.64l2.42.04c1.95-2.03 3.96-4 5.91-6.04-.08-.45-.24-1.34-.33-1.79-.41.04-1.22.11-1.63.15m-1.86 15.16c.51.11 1.52.34 2.02.45l2.16-1.24c1.6-1.09 3.18-2.21 4.7-3.4-.22-.51-.66-1.51-.88-2.02-3.18 1.35-5.99 3.38-8 6.21m3.61 6.75.09 2.4c1.19-.25 2.37-.52 3.55-.82 1.26-.47 2.53-.93 3.79-1.39.14-.54.4-1.62.53-2.16-2.78.06-5.4.98-7.96 1.97m.02 6.98c.02.79.04 1.59.05 2.38 2.08-.28 4.14-.72 6.19-1.18 0-.59-.01-1.76-.01-2.35-2.08.38-4.14.84-6.23 1.15zm-98.11-41.09c2.64-.23 5.06 1.06 7.62 1.46 4.35 1.11 8.86 1.35 13.21 2.46-.54 1.1-1.1 2.18-1.71 3.24-.48 1.52-.95 3.04-1.42 4.55-5.6-4.34-11.87-7.69-17.7-11.71zm119.78 15.07c4.05-.73 8.17-1.39 12.3-1.4-2.88 2.63-6.27 4.61-9.49 6.77-3.96 2.27-7.54 5.28-11.83 6.91-.11-1.47-.19-2.93-.25-4.39-.76-1.99-1.54-3.97-2.44-5.89 3.91-.67 7.7-2 11.71-2z"/><path d="m39.75 72.67c2.98-5.54 9.03-8.48 14.98-9.59 4.22-.38 8.48-.11 12.72-.12-1.15 1.56-2.44 3-3.78 4.39-4.29 1.86-8.6 3.85-13.31 4.33-4.09 1.18-8.55 2.97-10.6 6.99-.27.06-.81.16-1.09.22.33-2.08.77-4.14 1.08-6.22zm31.06-8.98c10.94.37 22.24 4.96 28.72 14.09 1.93 2.73 2.69 5.97 3.8 9.07.05 2.71.05 5.41.01 8.12-1.6 4.37-2.51 10.06-7.48 11.86-.61-1.43-1.18-2.86-1.74-4.3-.45-2.84-.92-5.67-1.09-8.54-1.16-4.38.06-9.02-1.33-13.38-.43-3.46-4.07-3.73-6.59-5.04-5.91-2.29-10.34-7.11-14.3-11.88z"/><path d="m63.14 70.69c1.87-1.6 3.85-3.06 5.74-4.62 4.05 3.86 7.59 8.34 12.33 11.4 2.58.88 5 2.14 7.59 2.98.43 1.92.6 3.88.75 5.83 1.2 4.1.06 8.47 1.28 12.58.38 4.57 2.87 8.76 2.62 13.39 2.89-1.19 5.84-3.89 8.94-1.53-1.93 2.11-3.97 4.12-6.01 6.12-.01 3.86.01 7.72-.04 11.58-4.01.6-3.85-4.08-5.35-6.5-.94 1.29-1.64 2.72-1.89 4.31-1.07 2.31-2.24 4.58-3.18 6.95l-.92 1.6c-.91 2.97-2.23 5.8-3.23 8.75-.72 3.31-2.14 6.55-5.18 8.35-1.92 1.11-3.89 2.13-5.95 2.96-5.24 1.56-10.63 1.41-15.95.43-2.75-.8-3.04-3.5-2.54-5.95 1.51-1.75 4.12-.69 6.12-1.03 3.82-2.03 8.14-2.33 12.36-2.65 1.62-.76 2.93-1.95 3.92-3.45-4.11.24-8.27.54-12.3 1.39-6.38.28-13.19.04-18.92-3.06-2.32-1.17-2.54-4.01-3.59-6.11-2.18-6.57-2.34-13.56-3.84-20.27-.14-2.37-.16-4.74-.46-7.09-.28-4.13 1.81-7.85 3.4-11.51.02-6.35.91-12.99 4.73-18.27 4.27-2.64 9.4-2.98 14.04-4.67 2.27-1.1 4.48.37 6.56 1.18-.26-.77-.77-2.32-1.03-3.09m4.38 1.92c-.06.74-.17 2.22-.22 2.95 2.34-1.15 4.66-2.36 7.12-3.24-.74-.65-1.49-1.29-2.23-1.93-1.56.74-3.12 1.47-4.67 2.22m-13.35 5.72c-2.27.52-4.56.94-6.9.99.34.58 1.01 1.75 1.35 2.34 2.63-.05 5.28-.15 7.83-.88 1.02-1.45 2.04-2.91 2.93-4.44-.35-.49-1.04-1.45-1.39-1.93-1.27 1.31-2.55 2.61-3.82 3.92m23.34 6.39c1.38 0 2.75.01 4.13-.03-.01-.52-.04-1.57-.05-2.09-2-.57-4.03-1.06-5.9-1.99-1.47-1.79-2.38-3.96-3.9-5.73-3.22 4.48 2.04 8.26 5.72 9.84m-33.83 2.51c-1.34 2.69-2.16 5.76-4.38 7.89l1.55.87c-.81.9-2.57 1.46-1.98 2.96.53.29 1.58.87 2.11 1.16-1.4.09-2.81.21-4.2.35.41 2.14 1.79 3.11 3.88 3.04 1.78 2.5 3.91 5.18 7.36 4.69.92-1.36 1.68-2.81 2.14-4.39-1.56.36-3.09.8-4.63 1.25-.99-1.22-1.94-2.45-2.87-3.71.06-1.45.12-2.9.2-4.35.58-1.87 1.03-3.79 1.54-5.68 1.32-1.81 2.67-3.61 4.2-5.27 1.35.07 2.71.11 4.06.32 1.39.98.83 2.94 1.33 4.33.49-.47 1.48-1.4 1.97-1.87.2-2.41-2.14-4.05-3.42-5.82-3.64-.55-6.7 1.49-8.86 4.23m16.29-1.96c.15 3.12-.89 6.05-1.82 8.99-1.26 4.57-5.05 7.94-6.09 12.59-.38 2.63 2.74 3.68 4.4 5.05 2.4-.09 4.82.1 7.21-.26 1.99-1.78 3.08-4.41 1.34-6.8a60.16 60.16 0 0 0 -2.53 3.95c-1.65-.03-3.29-.05-4.94-.05-.6-.27-1.81-.81-2.42-1.08.01-.54.02-1.64.03-2.19.66-1.07 1.3-2.15 1.98-3.21 3.4-4.97 5.53-10.91 5.08-16.99zm12.14 6.22.56 3.17c2.1-2.23 2.9-5.64 6.37-6.18 1.09.82 2.16 1.66 3.22 2.52 1.07 4.12 1.85 8.24.82 12.46-.9 1.86-1.9 3.69-3.18 5.32-1.37-.03-2.74-.04-4.1-.05-1.13-1.84-1.98-4.16-4.54-4.29.16 3.13 2.02 5.7 4.54 7.39 1.25.01 2.5.03 3.75.06 1.22-.85 2.45-1.68 3.64-2.57.77.3 2.32.91 3.09 1.22.53-.5 1.58-1.5 2.11-2-1.18-.71-2.4-1.36-3.65-1.92l-.09-.97c.68-.01 2.04-.02 2.72-.03.86-.53 1.73-1.06 2.6-1.59-1.05-.58-2.1-1.16-3.14-1.74-.21.41-.62 1.23-.83 1.64.01-.57.02-1.73.03-2.3 1.39-.83 2.75-1.71 4.09-2.6-1.3-.53-2.6-1.04-3.92-1.52.04-1.23.07-2.46.09-3.69-.99-3.68-3.4-6.58-6.8-8.29-3.2.94-5.89 2.95-7.38 5.96m-25.48 2.36c0 1.29 0 2.58.01 3.88.29.23.89.7 1.18.94.67-.7 1.34-1.39 2.01-2.08-.08-1.24-.17-2.48-.25-3.72-.99.32-1.97.65-2.95.98m27.78 6.42c1.11.34 2.23.66 3.35.97-.04-1.92-.12-3.83-.33-5.73-1.52 1.22-2.26 3.02-3.02 4.76m-22.03 12.99c-2.95 2.41-2.83 6.67-5.65 9.15-.52 2.59-1.87 5.75.05 8.05 1.49.02 2.97-.03 4.46-.14.19.42.58 1.26.77 1.68 1.54.39 3.09.75 4.67.96 2.1-2.75 5.35-1.06 8.12-.76.68-.72 1.37-1.43 2.05-2.14-.01-1.48-.01-2.96-.02-4.44-.79-1.39-1.54-2.81-2.32-4.2l-.03-3.55c-.67-.97-1.32-1.96-1.94-2.97-3.32-.87-6.73-1.47-10.16-1.64m22.43 9.41c-.39 3.69-1.41 7.36-.9 11.09.78 2.74 4.86 2.98 5.89.32 2.54-3.44 1.64-7.64.83-11.48-.47-1.74-.75-3.52-1.15-5.27-.46-1.59-.99-3.17-1.51-4.74-2.78 2.62-2.24 6.7-3.16 10.08zm47.44-41.95c2.45.66 4.99.82 7.46 1.38 3.13.43 6.25 1.03 9.43 1.13-.01.3-.01.89-.01 1.18-1.25.24-2.5.51-3.73.81-2.36.74-4.69 1.57-7.02 2.41-2.67.65-5.37 1.19-8.02 1.89.67-2.92 1.36-5.85 1.89-8.8z"/><path d="m101.63 106.51c.89-1.36 1.35-3.64 3.45-3.27 3.68.83 6.87 3.51 8.05 7.15.26 1.77.44 3.56.81 5.32 2.72 8.14-1.98 16.72-8.45 21.62-5.7 3.47-12.44 2.38-18.78 2.41.64-3.69 2.79-6.85 3.99-10.35 2.48 3.04 6.41 1.85 8.82-.59-.06-3.64-.04-7.27-.04-10.91 3.11-1.94 5.89-4.85 5.7-8.79-1.17-.88-2.36-1.75-3.55-2.59zm-50.15 11.17c.95-1.06 1.93-2.09 2.95-3.09.48.49 1.44 1.47 1.92 1.95 1.38-.02 2.76-.04 4.14-.07.68 1.01 1.36 2.03 2.02 3.06-1.42-.39-2.82-.84-4.18-1.37-2.28-.19-4.57-.37-6.85-.48zm24.69 15.5c-.1-3.92.36-7.94 1.84-11.59.78 3.42.43 6.94.5 10.41-.78.39-1.56.78-2.34 1.18zm-24.67-5.38c1.56-.53 3.14-1.05 4.74-1.47.79.9 1.59 1.8 2.39 2.7-1.01.28-2.02.55-3.04.81-.33.17-1 .49-1.33.65-.93-.89-1.85-1.78-2.76-2.69z"/></g></svg>