<svg height="128pt" viewBox="0 0 128 128" width="128pt" xmlns="http://www.w3.org/2000/svg"><path d="m75.17 0h8.58c-3.33 7.84-1.41 16.61 1.79 24.15-1.15 1.79-.7 3.63.17 5.36-.89-.33-1.79-.64-2.7-.93-1.23.29-2.44.69-3.68.95-2.81-2.8-3.92-6.8-5.23-10.44-1.16-2.99-.4-6.21-.14-9.28-7.39 2.44-14.25 7.24-18.18 14.07-2.59 4.44-4.79 9.12-6.35 14.03-.07-2.22.63-4.87-1.38-6.46 2.48-14.44 13.73-26.2 27.12-31.45z" fill="#df4325"/><path d="m55.78 23.88c3.93-6.83 10.79-11.63 18.18-14.07-.26 3.07-1.02 6.29.14 9.28 1.31 3.64 2.42 7.64 5.23 10.44 1.24-.26 2.45-.66 3.68-.95.91.29 1.81.6 2.7.93-.87-1.73-1.32-3.57-.17-5.36 2.95 7.47 5.89 14.99 7.28 22.93.15-4.52 2.7-8.66 6.97-10.38.14 2.01-.39 4.13.48 6.04 1.79 4.58 6.21 7.78 7.01 12.82-1.77 1.52-1.66 3.82-1.67 5.94-1.15-.23-2.25-.76-3.45-.75-.57.61-1.15 1.21-1.74 1.81-.36-.94-.74-1.88-1.13-2.82.01-.5.02-1.52.03-2.02 0-2.91-.02-5.83-.44-8.71-3.41 2.1-5.8 5.39-7.52 8.95-2.03-5.15-3.53-10.51-5.96-15.5-3.03.71-5.96 2.04-9.12 2.08-3.21-3.24-5.54-7.33-7.38-11.48-1.8-4.14-1.17-8.68-.16-12.93-10.36 5.83-14.35 18.53-12.9 29.8.3.31.92.91 1.23 1.21.82.86 1.59 1.77 2.37 2.67-3.22-.38-6.43.8-8.92 2.79.01-.52.05-1.58.06-2.1-4.03.99-8.38.86-12.19 2.64-1.16 4.31-.96 8.88-.2 13.23-1.55 2.27-3.04 4.56-4.42 6.93l-2.08.4c-1.8-3.31-3.24-6.83-4.34-10.43 1.9 1.35 3.41 3.33 5.74 4.01 1.44-1.43-.37-3.17-.42-4.78-3.17-13.42 3.67-26.58 11.73-36.87-.36 3.42.44 7.59 3.42 9.68-.38-2.62-.24-5.27.23-7.86 2.01 1.59 1.31 4.24 1.38 6.46 1.56-4.91 3.76-9.59 6.35-14.03z" fill="#f57f1f"/><path d="m55.84 49.93c-1.45-11.27 2.54-23.97 12.9-29.8-1.01 4.25-1.64 8.79.16 12.93 1.84 4.15 4.17 8.24 7.38 11.48 3.16-.04 6.09-1.37 9.12-2.08 2.43 4.99 3.93 10.35 5.96 15.5 1.72-3.56 4.11-6.85 7.52-8.95.42 2.88.44 5.8.44 8.71-3.37-.67-6.37 1.37-8.58 3.7-.95-1.14-.99-2.59-1.15-3.98-1.13 1.44-2.63 2.44-4.51 2.46-2.87-3.42-4.28-7.96-7.37-11.3-.33.03-.99.07-1.32.09-2.44-2.47-6.1-1.3-9.2-1.55-.34-1.43.97-4.3-.83-4.85-1.15 1.43-1.89 3.14-2.64 4.8-2.99-.47-6.49.48-6.65 4.05-.31-.3-.93-.9-1.23-1.21zm-17.45 7.21c3.81-1.78 8.16-1.65 12.19-2.64-.01.52-.05 1.58-.06 2.1-4.89 3.83-8.75 8.76-12.33 13.77-.76-4.35-.96-8.92.2-13.23zm67.22 4.36c.01-2.12-.1-4.42 1.67-5.94.59 3.43.62 7.02-.43 10.36-.96 2.63-2.46 5.01-4.39 7.03-1.15 1.14-2.33 2.25-3.59 3.27-.6-5.46.52-10.97.42-16.48.39.94.77 1.88 1.13 2.82.59-.6 1.17-1.2 1.74-1.81 1.2-.01 2.3.52 3.45.75z" fill="#fdbb14"/><path d="m66.36 42.29c1.8.55.49 3.42.83 4.85l-1.01.03-2.46-.08c.75-1.66 1.49-3.37 2.64-4.8zm12.1 12.17 1.11.24c1.12 3.62-.06 7.47.61 11.16.78 2.98 2.33 6.25 5.6 6.97.39 1.95.32 3.95.55 5.91 3.21-.46 6.31-1.46 9.54-1.79-.22 3.23-2.74 5.59-3.84 8.51 2.16-.18 4.33-.31 6.51-.16-2.17 2.15-4.78 3.75-7.3 5.44-2.87 1.46-5.78 2.99-9.01 3.44.09-1.18.16-2.36.21-3.54 1.35-4.06 2.27-8.49 1.23-12.72-.58-4.1-3.5-7.22-5.26-10.8-.18-4.22.05-8.44.05-12.66z" fill="#fbed2e"/><path d="m57.07 51.14c.16-3.57 3.66-4.52 6.65-4.05l2.46.08c-2.8 1.4-2.78 5.23-.07 6.71-2.22.02-4.45.04-6.67-.07-.78-.9-1.55-1.81-2.37-2.67z" fill="#dd2f44"/><path d="m66.18 47.17 1.01-.03c3.1.25 6.76-.92 9.2 1.55.16 1.81 1.13 4.11-1.02 5.14-3.08.04-6.17.05-9.26.05-2.71-1.48-2.73-5.31.07-6.71zm-16.73 18.3c2.33-2.29 5.02-5.06 8.57-4.85 5.36.05 10.72-.08 16.08.07.04 5.57.03 11.14 0 16.71-11.16.15-22.32.02-33.49.07 2.3-4.39 5.49-8.35 8.84-12zm49.42 10.75c1.26-1.02 2.44-2.13 3.59-3.27l1 2.32c-1.92 1.49-3.95 2.9-6.23 3.81.51-.97 1.08-1.91 1.64-2.86z" fill="#55acee"/><path d="m76.39 48.69c.33-.02.99-.06 1.32-.09 3.09 3.34 4.5 7.88 7.37 11.3 1.88-.02 3.38-1.02 4.51-2.46.16 1.39.2 2.84 1.15 3.98 2.21-2.33 5.21-4.37 8.58-3.7-.01.5-.02 1.52-.03 2.02.1 5.51-1.02 11.02-.42 16.48-.56.95-1.13 1.89-1.64 2.86 2.28-.91 4.31-2.32 6.23-3.81 1.66-1.34 3.35-2.65 5-3.99 0 .2-.01.6-.01.8-2.89 4.69-5.61 9.63-9.91 13.22-2.18-.15-4.35-.02-6.51.16 1.1-2.92 3.62-5.28 3.84-8.51-3.23.33-6.33 1.33-9.54 1.79-.23-1.96-.16-3.96-.55-5.91-3.27-.72-4.82-3.99-5.6-6.97-.67-3.69.51-7.54-.61-11.16l-1.11-.24c-.77-.16-2.32-.47-3.09-.63 2.15-1.03 1.18-3.33 1.02-5.14z" fill="#fede0e"/><path d="m50.52 56.6c2.49-1.99 5.7-3.17 8.92-2.79 2.22.11 4.45.09 6.67.07 3.09 0 6.18-.01 9.26-.05.77.16 2.32.47 3.09.63 0 4.22-.23 8.44-.05 12.66 1.76 3.58 4.68 6.7 5.26 10.8 1.04 4.23.12 8.66-1.23 12.72l-.79.51c-13.66-.57-27.37-.05-41.05-.28-2.38-.03-4.77-.05-7.15-.01-8.7.14-17.4-.06-26.1.11.81-2.45 2.75-4.3 4.69-5.89 5.77-4.15 12.81-5.92 19.65-7.38l2.08-.4c1.38-2.37 2.87-4.66 4.42-6.93 3.58-5.01 7.44-9.94 12.33-13.77m-1.07 8.87c-3.35 3.65-6.54 7.61-8.84 12 11.17-.05 22.33.08 33.49-.07.03-5.57.04-11.14 0-16.71-5.36-.15-10.72-.02-16.08-.07-3.55-.21-6.24 2.56-8.57 4.85zm53.01 7.48c1.93-2.02 3.43-4.4 4.39-7.03l-.37 1.3c.61 1.37.93 2.93 1.98 4.06-1.65 1.34-3.34 2.65-5 3.99zm-3.92 12.35c4.3-3.59 7.02-8.53 9.91-13.22.92 2.85 1.93 5.68 2.63 8.59 5.95.2 11.42 4.21 13.16 9.95-8.77.66-17.75.13-26.59.26-2.14-.05-4.28.04-6.41-.14 2.52-1.69 5.13-3.29 7.3-5.44zm-64.39 19.69c4.94-2.56 11.18 2.67 9.41 7.97-1.13 5.25-8.86 6.7-11.86 2.3-2.7-3.24-1.3-8.5 2.45-10.27zm57.02.17c4.56-2.72 10.87 1.75 9.83 6.9-.37 3.38-3.61 6.12-7.02 5.83-3.18-.04-6.04-2.77-6.37-5.9-.44-2.74 1.16-5.54 3.56-6.83z" fill="#e1e8ed"/><path d="m124.24 90.62c.56 6.91 1.86 15.54-4.2 20.56-1.39 1.84-4.31 1.84-5.46 3.6-2.51.02-5.01.01-7.52.16-1.58 7.44-10.82 11.86-17.7 8.74-4-1.51-6.96-5.05-8.14-9.1-2.28-8.06 4.42-16.91 12.78-16.88 8.08-.54 16.1 8.36 13 16.12 1.42.18 2.83.37 4.23.6 1.24-.46 2.37-1.19 3.39-2.03.22-6.53-2.58-13.16-7.8-17.17-2.66-2.18-5.96-3.29-9.17-4.34 8.84-.13 17.82.4 26.59-.26m-33.07 14.54c-2.4 1.29-4 4.09-3.56 6.83.33 3.13 3.19 5.86 6.37 5.9 3.41.29 6.65-2.45 7.02-5.83 1.04-5.15-5.27-9.62-9.83-6.9zm-83.82-14.19c8.7-.17 17.4.03 26.1-.11-4.55 1.51-9.12 3.6-12.09 7.53-3.73 4.43-5.1 10.46-4.41 16.15-4.03-.27-9.11 1.2-12.02-2.45-2.9-3.13-1.52-8.14 1.81-10.36.19-3.57-.61-7.32.61-10.76zm33.25-.1c13.68.23 27.39-.29 41.05.28-.77 1.51-1.6 3.08-.71 4.74-5.2 4.63-7.69 11.79-6.67 18.66-5.73 0-11.45.01-17.18 0 .74-5.49-.51-11.29-3.97-15.69-2.98-4.19-7.75-6.48-12.52-7.99z"/><path d="m23.93 114.56c-2.23-8.16 4.55-17.04 13.02-16.87 8.56-.32 15.51 8.66 13.2 16.89-1.5 5.46-6.51 9.66-12.17 10.08-6.33.5-12.39-4.03-14.05-10.1m10.22-9.57c-3.75 1.77-5.15 7.03-2.45 10.27 3 4.4 10.73 2.95 11.86-2.3 1.77-5.3-4.47-10.53-9.41-7.97z"/><path d="m33.45 90.86c2.38-.04 4.77-.02 7.15.01 4.77 1.51 9.54 3.8 12.52 7.99 3.46 4.4 4.71 10.2 3.97 15.69-2.31.03-4.63-.01-6.94.03 2.31-8.23-4.64-17.21-13.2-16.89-8.47-.17-15.25 8.71-13.02 16.87-2.33 0-4.65.01-6.98-.02-.69-5.69.68-11.72 4.41-16.15 2.97-3.93 7.54-6.02 12.09-7.53zm48.2.29.79-.51c-.05 1.18-.12 2.36-.21 3.54 3.23-.45 6.14-1.98 9.01-3.44 2.13.18 4.27.09 6.41.14 3.21 1.05 6.51 2.16 9.17 4.34 5.22 4.01 8.02 10.64 7.8 17.17-1.02.84-2.15 1.57-3.39 2.03-1.4-.23-2.81-.42-4.23-.6 3.1-7.76-4.92-16.66-13-16.12-8.36-.03-15.06 8.82-12.78 16.88-2.32-.04-4.63 0-6.95-.03-1.02-6.87 1.47-14.03 6.67-18.66-.89-1.66-.06-3.23.71-4.74z" fill="#66757f"/></svg>