<svg xmlns="http://www.w3.org/2000/svg" width="1864" height="1088pt" viewBox="0 0 1398 1088"><g fill="#fff"><path d="M239.18 0h4.33c-1.05 1.82-2.23 3.57-3.24 5.41-.98 1.67-2.05 3.29-3.03 4.95-.79 1.76-1.67 3.48-2.51 5.21-.67 1.35-1.37 2.68-2.07 4-1.24 2.6-2.12 5.36-3.43 7.92-.57 1.32-1.1 2.66-1.55 4.02-.68 1.71-1.31 3.44-1.99 5.15-.36.94-.7 1.89-1.03 2.85-.35.99-.68 1.99-.99 3-.35.99-.68 1.99-.99 2.99-.36 1-.71 2.01-1.04 3.03-.76 2.69-1.45 5.41-2.37 8.05-.14.47-.41 1.42-.54 1.89-.4 1.33-.74 2.66-1.1 4-.36 1.31-.65 2.64-.95 3.97-.51 1.72-.88 3.47-1.44 5.18-.17.9-.34 1.81-.51 2.72-.84 2.99-1.39 6.06-2.06 9.09-.58 2.04-.77 4.17-1.37 6.21-.28 1.72-.5 3.46-1.07 5.12-.16 1.18-.3 2.36-.46 3.55-.81 2.42-.73 5.03-1.51 7.47-.25 2.05-.34 4.15-1.06 6.11-.2 2.34-.11 4.77-1.04 6.98-.12 1.73-.2 3.46-.32 5.19-1.44 3.12-.25 6.72-1.69 9.84-.13 2.86-.08 5.76-.84 8.55-.77 3.46.39 7.21-1.22 10.5-.11 3.35-.07 6.71-.17 10.07-2.17 5.24.08 11.16-1.46 16.57-1.41 2.97 1.66 5.37 1.53 8.31.06 7.88-.03 15.76.01 23.64-.9.88-1.8 1.76-2.7 2.65.54 11.26.8 22.55.69 33.83.05 3.75-.33 7.59.69 11.26 1.12 5.16-.81 10.71 1.22 15.69-.39 6.72 1.17 13.23 1.27 19.91.18.53.52 1.57.7 2.09.24 8 1.45 15.96 2.88 23.82.47 4.34 1.05 8.69 1.99 12.95.17 1.18.33 2.36.51 3.55.76 2.44.73 5.03 1.49 7.47.17 1.17.32 2.33.5 3.51.66 2.04.86 4.2 1.39 6.28.33 1.34.64 2.7 1.02 4.04.32 1.33.64 2.66 1.01 3.99.3 1.29.6 2.59.96 3.88.31 1.01.64 2.02 1.01 3.02.7 2.12 1.66 4.15 2.58 6.19 2.36 4.17 5.41 7.96 9.82 10.08 1.69.12 3.39.23 5.1.31 1.15-.61 2.31-1.19 3.48-1.75 2.3-1.48 4.31-3.42 5.7-5.78.78-1.4 1.6-2.76 2.5-4.07.67-1.68 1.29-3.37 1.98-5.04.13-.45.38-1.37.5-1.83.4-1.33.75-2.68 1.09-4.02.44-1.6.68-3.24.96-4.86.96-5.86 2-11.76 1.69-17.74.33-4.45-1.27-8.7-1.21-13.14-.49-1.48-.82-2.99-1.15-4.5l2.57-.6c2.46-1.24 4.96.37 7.39.85 2.6 1.92 4.78 4.32 7.02 6.64.81 1.48 1.76 2.87 2.63 4.32.5.97 1.01 1.95 1.53 2.92.67 1.65 1.27 3.33 1.89 5.01.32 1.04.67 2.07 1.04 3.1.14.47.4 1.41.54 1.88.57 1.74.91 3.54 1.53 5.27.13 1.18.25 2.36.41 3.55 2.14 7.53 1.55 15.35 2.11 23.07-.89 5.62.4 11.39-.99 16.95-.32 1.62-.41 3.27-.6 4.92-.85 2.79-.65 5.82-2.01 8.47-.38.93-.74 1.88-1.07 2.84-.47 1.3-.87 2.62-1.31 3.94-.51 1.41-1.07 2.8-1.64 4.19-.51 1.28-.95 2.59-1.45 3.88-.51 1.98-1.09 3.94-1.56 5.93-.37 1.01-.73 2.04-1.06 3.07-.5 1.64-.86 3.32-1.37 4.96-.14.5-.43 1.48-.57 1.97-.51 1.68-.9 3.39-1.37 5.09-.31 1.35-.62 2.71-1.02 4.05-.48 2.61-1.11 5.2-1.64 7.81-.49 1.61-.73 3.27-.99 4.94-1.79 8.64-3.05 17.4-4.03 26.17-.9 3.43-.61 7-.75 10.51-1.4 2.81-.79 6.01-.91 9.03.3 8.64-.81 17.28-.06 25.91.47 6.67-.73 13.48.88 20.04.55 3.28-.44 6.79 1.04 9.9.02 5.02.89 9.98 1.88 14.89.22 2 .38 4.04.99 5.99.24 1.93.38 3.9.95 5.78.59 3.02 1.2 6.03 2 9.01.73 3.68 1.76 7.3 2.63 10.96.49 1.64.87 3.32 1.37 4.97.56 2.35 1.25 4.67 1.98 6.98.31 1 .65 2 1.01 3 .34 1.04.72 2.07 1.12 3.1l.44 1.83c.39 1.02.76 2.06 1.11 3.11.46 1.3.87 2.63 1.34 3.96.31.95.64 1.91.99 2.87.71 1.7 1.35 3.42 2.05 5.14.28.92.59 1.85.91 2.78 1.39 2.67 2.39 5.53 3.64 8.28 1.22 2.59 2.19 5.28 3.42 7.87.53 1.03 1.08 2.08 1.61 3.14.65 1.33 1.32 2.66 1.99 4.01 1.83 4.12 4.45 7.82 6.45 11.86 1.18 2.06 2.48 4.05 3.55 6.17 6.18 10.05 12.9 19.77 20.13 29.08 3.12 3.45 5.75 7.32 9.15 10.54 3.41 5.17 8.52 8.94 12.67 13.51 3.06 3.48 6.87 6.12 10.31 9.2.46.07 1.39.22 1.86.29 2.65.76 5.39 1.29 7.95 2.38 1.39.72 2.8 1.42 4.23 2.09 4.29 2.81 8.15 6.22 10.7 10.74 1.01 3.75 3.86 6.21 7.26 7.84 3.08 1.54 5.91 3.54 9.02 5.02 1.62.8 3.25 1.59 4.86 2.42 1.33.65 2.67 1.32 4.02 1.98.49.28 1.49.83 1.98 1.1 2.39.91 4.79 1.79 7.08 2.95 1.33.54 2.68 1.07 4.05 1.57 1.26.46 2.54.88 3.8 1.39 1.71.71 3.45 1.34 5.17 2.04 1.99.47 3.96 1.04 5.96 1.51 1 .41 2.03.79 3.07 1.14 1.28.33 2.57.62 3.86.93 1.33.37 2.69.7 4.04 1.05 2.01.49 4.07.73 6.09 1.25 1.35.32 2.71.65 4.05 1.08.47.12 1.4.36 1.86.48 1.76.71 3.54 1.35 5.26 2.16.93.32 1.86.63 2.81.93 2.88.89 5.58 2.25 8.02 4.02 2.3 1.11 4.6 2.25 6.88 3.43 1.72.83 3.44 1.7 5.18 2.52 8.69 4.53 15.99 11.72 20.74 20.3 1.3 2.59 2.45 5.24 3.45 7.97.84 2.99 1.15 6.1 1.92 9.11.3 3.07 1.02 6.07 2.03 8.99.1.46.31 1.38.42 1.84.8 1.71 1.57 3.45 2.47 5.14 1.1 1.54 2.38 2.95 3.65 4.37 2.13.74 4.32.81 6.45.02 1.49-1.65 2.97-3.33 4.05-5.28.49-1.14 1.02-2.26 1.54-3.36.49-1.3.93-2.62 1.45-3.89.9-3.07 1.13-6.29 2.12-9.32.19-6.73.13-13.46.09-20.19-.47-5.06-2.04-9.98-2.13-15.08 1.79.09 3.59.21 5.38.43 4.49 3.03 7.78 7.47 10.14 12.3.47 1.31.89 2.64 1.38 3.96.14.46.41 1.4.55 1.87.4 1.32.74 2.67 1.09 4.03 1.92 8.16 2.27 16.78.99 25.05-.32 1.2-.6 2.42-.93 3.64-.7 1.42-1.35 2.87-1.88 4.38-1.17 4.55-2.47 9.4-.97 14.06.35 1.33.68 2.69 1.09 4.03.13.47.41 1.4.54 1.86.39 1.02.77 2.04 1.13 3.09.46 1.63.81 3.3 1.3 4.95.55 2.34 1.23 4.67 1.99 6.97.32 1 .66 2 1.03 3.01.3.99.62 1.98.97 2.98.35 1.04.73 2.08 1.14 3.13.1.44.3 1.32.4 1.77.89 1.99 1.64 4.05 2.47 6.1.46 1.39 1.01 2.75 1.6 4.12.69 1.64 1.33 3.31 1.97 4.99.51.93 1.02 1.87 1.54 2.82 1.2 2.69 2.41 5.39 3.49 8.15 1.78 3.32 3.83 6.49 5.47 9.9.97 1.66 2.04 3.28 2.98 4.99 2.1 3.45 4.5 6.72 6.64 10.17 1.09 1.28 2.18 2.6 3.07 4.07 1.43 1.6 2.9 3.2 3.98 5.09 4.49 4.7 9.09 9.3 13.8 13.78 1.51.85 2.87 1.96 4.21 3.08 1.85 1.26 3.6 2.71 5.57 3.82.83.93 1.64 1.9 2.41 2.92.31 1.02.63 2.05.93 3.1.54 1.8.9 3.65 1.6 5.42.11 3.03.11 6.07-.01 9.11-.78 1.51-.88 3.21-.98 4.89 1.98 3.74.8 8.15.98 12.2-.69 1.73-1.04 3.57-1.53 5.38-.58 1.67-1.27 3.31-2 4.94-.93 1.42-1.9 2.81-2.75 4.29-1.39 1.49-2.79 2.98-3.98 4.65-.22.55-.65 1.66-.87 2.21-1.84 3.71-3.85 7.44-7 10.21-1.84 2.13-4.65 3.25-6.11 5.69-2.76 5.1-7.33 8.96-12.23 11.91-1.64.71-3.3 1.4-4.98 2-1.98.53-4 .95-5.94 1.62h-9.35c-1.85-.7-3.75-1.14-5.63-1.66-.98-.31-1.94-.63-2.88-.96-.54-.26-1.61-.79-2.14-1.06-1.43-.91-2.79-1.89-4.19-2.79-.95-.3-1.9-.56-2.83-.81-1.7-.64-3.41-1.24-5.1-1.88-5.97-3.33-11.01-8.16-14.23-14.22-.67-1.72-1.28-3.44-1.93-5.14l-.64-1.93c-.68-2.46-.59-5.03-.9-7.53-.38-.6-1.14-1.81-1.52-2.41-.56-1.43-1.13-2.85-1.69-4.25-1.04-6.09-1.74-12.23-1.58-18.41-1.21-2.51-.86-5.34-1.06-8.01-1.16-2.77-.61-5.85-1.54-8.67-.35-2.94-1.05-5.81-1.61-8.71-.53-2.03-.84-4.09-1.33-6.11-.34-1.33-.65-2.66-1.03-3.95-.54-2.01-1.17-3.98-1.63-5.99-.37-1.01-.72-2.02-1.04-3.03-.36-1-.69-2-1-2.99-.35-1.01-.67-2.01-.98-3.01-.48-1.33-.9-2.67-1.37-3.97-.32-.97-.65-1.93-.99-2.87-.57-1.39-1.12-2.78-1.63-4.17-.82-1.95-1.54-3.94-2.35-5.88l-1.12-2c-1.5-3.38-2.94-6.78-4.5-10.12-1.38-2.34-2.72-4.68-4-7.05-1.18-2.43-2.59-4.71-3.97-7.01-1.53-2.77-3.43-5.3-5.07-7.99-2.92-4.43-5.97-8.78-9.08-13.08-4.47-5.19-8.44-10.82-13.37-15.59-3.15-2.89-5.21-6.76-8.53-9.48-4.35-3.2-8.02-7.14-11.91-10.84-2.33-1.26-4.11-3.24-6.04-4.99-2.32-1.33-4.09-3.41-6.33-4.84-3.81-2.96-7.85-5.61-11.84-8.29-2.42-1.48-4.73-3.12-7.11-4.64a64.043 64.043 0 0 0-5.96-3.41c-1.39-.83-2.7-1.75-4.06-2.59-.51-.23-1.52-.7-2.03-.93-1.62-.85-3.25-1.65-4.86-2.47-.49-.24-1.48-.74-1.97-.98-1.74-.84-3.44-1.74-5.17-2.57-1.36-.69-2.71-1.38-4.05-2.06-1.65-.59-3.29-1.19-4.88-1.89-2.33-1.2-4.8-2.08-7.2-3.11-.94-.35-1.87-.67-2.81-.97-1.36-.51-2.73-.96-4.07-1.48-.46-.11-1.37-.31-1.82-.42-1.34-.55-2.69-1.02-4.02-1.53-1.05-.3-2.08-.62-3.1-.94-2-.49-3.97-1.08-5.96-1.6-1.01-.38-2.02-.74-3.04-1.06-.98-.35-1.97-.69-2.96-1-1-.35-2-.67-3-.95-2.05-.85-4.12-1.65-6.16-2.52-.44-.09-1.33-.28-1.77-.37-1.31-.57-2.64-1.03-3.95-1.54-1.69-.7-3.4-1.33-5.1-1.97-1.7-.61-3.37-1.29-5-2.05-2.06-.85-4.14-1.65-6.17-2.54-1.95-.76-3.9-1.53-5.79-2.41-3.56-1.9-7.32-3.34-11-4.99-.49-.26-1.48-.78-1.98-1.04-2.02-.99-4.03-1.99-6.02-3.01-.5-.23-1.5-.7-2-.94-2.41-1.19-4.61-2.73-6.95-4.03-2.15-1.06-4.17-2.34-6.22-3.57-1.95-1.1-3.82-2.33-5.76-3.45-3.56-1.6-6.7-3.97-10.23-5.6-.5-.24-1.49-.72-1.99-.95-1.34-.69-2.69-1.37-4.03-2.04-.49-.24-1.49-.72-1.98-.96-.95-.5-1.9-.99-2.84-1.47-.5-.23-1.51-.71-2.01-.95-.5-.27-1.5-.83-2-1.11-2.03-.83-4.09-1.58-6.11-2.4-1.61-.88-3.25-1.7-4.87-2.53-.5-.24-1.5-.73-1.99-.97-1.35-.68-2.69-1.36-4.03-2.02-.49-.24-1.48-.74-1.97-.98-1.35-.68-2.69-1.36-4.03-2.02-2.03-.99-4.04-2.01-6.02-3.07-2.03-.86-4.09-1.63-6.13-2.42-.95-.54-1.9-1.07-2.84-1.59-2.07-.81-4.15-1.57-6.18-2.47-1.64-.71-3.31-1.36-4.97-2.02-1.66-.7-3.34-1.33-5.01-1.99-1.71-.69-3.44-1.33-5.12-2.07-.94-.34-1.88-.66-2.83-.94-1.71-.67-3.44-1.3-5.13-2.02-.95-.37-1.9-.71-2.86-1.03-.99-.36-1.99-.69-2.99-.99-.99-.36-1.99-.69-3-.99-1-.37-2-.71-3.01-1.02-.98-.34-1.98-.66-2.97-.96-1.36-.52-2.74-.97-4.09-1.48-.45-.12-1.36-.35-1.82-.46-1.04-.39-2.08-.75-3.13-1.07-1.34-.52-2.7-.96-4.04-1.47-.47-.12-1.43-.36-1.91-.49-1.66-.54-3.35-.94-5.01-1.46l-1.93-.68c-5.27-1.44-10.83.17-16.13-1.05-2.28-.53-4.65-.55-6.92-1.14-2.01-.56-4.01-1.16-6.04-1.66-1.69-.65-3.39-1.27-5.05-1.99-1.93-.89-3.92-1.64-5.89-2.42-1.38-.85-2.7-1.78-4.1-2.59-4.81-2.48-8.89-6.04-13.24-9.18-3.31-3.32-7.13-6.28-9.65-10.28-3.36-3.62-6.23-7.67-8.9-11.81-1.23-1.9-2.35-3.87-3.4-5.86-.65-1.36-1.31-2.71-1.96-4.05-.54-1.05-1.09-2.09-1.63-3.12-1.07-2.33-2.02-4.7-2.95-7.08-.43-.98-.85-1.96-1.27-2.93-.67-4 1.47-7.97.21-12.01.4-15.17.41-30.33.32-45.49-.05-1.99.01-4.04-.87-5.87-.36-9.36.18-18.74-.26-28.08-1.99-7.29.25-14.96-1.58-22.26-1-4.85.82-10.08-1.19-14.72.43-7.09-1.28-13.98-1.24-21.05-1.32-3.89-.14-8.16-1.72-11.95-.25-2.99.35-6.16-1-8.96-.09-2.04-.15-4.08-.25-6.11-1.46-3.08-.33-6.63-1.65-9.75-.12-3.87-1.22-7.61-1.48-11.46-1.29-6.42-1.97-12.98-3.41-19.39-.29-1.72-.53-3.45-1.1-5.1-.15-1.19-.29-2.37-.44-3.54-.57-1.65-.81-3.38-1.11-5.08-.56-2.03-.81-4.13-1.3-6.17-.34-1.36-.68-2.72-1.08-4.05-.56-2.98-1.17-5.95-1.94-8.87-.55-2.03-1.15-4.04-1.68-6.06-.49-1.65-.85-3.32-1.35-4.96-.52-2-1.11-3.99-1.61-5.99-.48-1.33-.91-2.67-1.4-3.99-.34-1.05-.7-2.1-1.09-3.13-.11-.46-.32-1.38-.43-1.83-.42-1.04-.81-2.08-1.18-3.12-.51-1.65-.77-3.36-1.29-5-.31-1.35-.61-2.7-.96-4.03-.35-1.4-.7-2.81-1.17-4.17-.13-1.19-.26-2.38-.41-3.55-.66-2.12-.88-4.34-1.55-6.45-.21-2.03-.32-4.09-.97-6.04-.23-2.14-.47-4.27-.95-6.36-.59-2.9.07-6-1.21-8.75-.07-2.05-.05-4.11-.15-6.15-1.85-9.21-.48-18.66-1.15-27.98.55-4.94-.64-10.14 1.05-14.89.17-2.64-.07-5.37.95-7.87.14-1.46.25-2.91.39-4.36 1.23-5.44 2.12-10.96 3.44-16.39.33-1.32.65-2.65 1.02-3.95.53-2 1.17-3.97 1.64-5.97.36-1.01.71-2.02 1.04-3.04.34-.99.67-1.99.99-3 .35-1 .68-2.01 1-3.01.46-1.31.86-2.64 1.3-3.95.56-1.74 1.31-3.41 2.14-5.02 1.13-2.72 2.14-5.48 3.48-8.09.85-1.62 1.65-3.25 2.46-4.88 1.01-1.65 2.1-3.26 3.02-4.98 2.63-4.87 6.52-8.86 9.69-13.34 3.16-3.76 7.16-6.64 11.07-9.55 1.33-.82 2.66-1.65 3.97-2.51 1.34-.51 2.68-1.03 4.03-1.51 2.2-.96 4.5-1.64 6.87-2.02 3.64-.98 7.62-.97 11.26-.01 3.08.47 5.97 1.63 8.89 2.66.63.27 1.87.82 2.49 1.09v1.4c-1.07.21-2.14.43-3.21.67-7.37 3.93-12.31 10.89-16.12 18.11a72 72 0 0 0-3.42 7.8c-.57 1.38-1.12 2.76-1.61 4.17-.35 1-.68 2-1 3.01-.48 1.64-.83 3.32-1.33 4.95-1.48 5.54-2.86 11.12-3.62 16.8-.87 3.46-.8 7.07-1.6 10.55.4 6.47-1.75 12.72-1.01 19.2.19.52.58 1.56.77 2.08.75 9.9-.89 19.98 1.09 29.77.39 5.07-.58 10.27.73 15.26 1.05 4.56-.69 9.49 1.21 13.88.15 3.36.09 6.72.22 10.08 1.31 3.14.79 6.61 1 9.93 1.56 3.26.43 6.99 1.41 10.39.99 7.8 1.84 15.67 3.29 23.38.14 1.47.25 2.96.4 4.44 1.01 3.96 1.42 8.05 2.09 12.08.76 2.39.65 4.95 1.39 7.35.25 1.69.5 3.38 1.02 5.02.26 1.67.46 3.37.99 4.99.25 1.68.49 3.37 1.01 5 .25 1.62.48 3.27.92 4.87.34 1.36.68 2.72 1.09 4.07.5 3 1.18 5.97 1.93 8.93.33 1.32.64 2.65 1.02 3.97.88 3.32 1.74 6.64 2.65 9.96.82 2.65 1.55 5.33 2.38 7.98.3 1.01.63 2.02.98 3.03.31 1.03.64 2.05.98 3.08.74 3.14 1.89 6.15 3.11 9.13.11.45.34 1.34.46 1.79.37 1.01.72 2.04 1.06 3.08.48 1.29.91 2.61 1.4 3.91.31.95.64 1.89.99 2.83.75 1.64 1.38 3.35 2.04 5.04 1.31 2.68 2.34 5.48 3.51 8.23.27.5.8 1.49 1.07 1.99.47.95.95 1.9 1.43 2.85 1.59 3.37 3.32 6.68 5.01 10 .24.51.7 1.51.94 2.02.99 1.67 2.04 3.32 3.03 5.01 3.49 4.84 5.93 10.73 10.96 14.24 2.52.35 5.07.33 7.61.32.61-.36 1.83-1.07 2.44-1.43.54-1.09 1.1-2.17 1.65-3.25.39-.97.77-1.95 1.15-2.92.65-4.03 1.13-8.44-.38-12.32-.07-1.36-.13-2.72-.19-4.07 1.85.78 3.73 1.52 5.62 2.2 1.32.81 2.64 1.62 3.97 2.44 3.15 2.03 5.51 5.02 8.22 7.57.28 1.1.59 2.21.92 3.31.18.49.54 1.47.72 1.95 1.12 6.56 1.15 13.4.06 19.97-.51 1.65-1.04 3.3-1.58 4.94-.96 1.25-1.84 2.56-2.65 3.91-.23.52-.67 1.55-.89 2.07-.56 1.1-1.15 2.19-1.72 3.3-.36.93-.69 1.89-.98 2.86-.37 1.28-.69 2.59-1.05 3.89-1.49 6.36-.38 12.89-1.02 19.3 1.17 2.89 2.01 5.91 3.09 8.85.48 1.35 1 2.69 1.5 4.05 1.07 1.73 2.23 3.4 3.35 5.1.25.91.49 1.82.73 2.75 1.47 1.97 2.81 4.04 4.13 6.13 1.1 1.31 2.19 2.64 3.07 4.12 1.73 1.86 3.41 3.77 4.9 5.84 3.95 5.08 9.27 8.72 13.95 13.03 4.97 3.72 9.93 7.48 15.26 10.68 1.71.94 3.34 2.02 5.01 3.04.99.45 1.99.91 2.99 1.37 1 .65 1.96 1.34 2.92 2.05 2.43.81 4.79 1.82 7.02 3.08 5.39 2.55 11.77 1.01 16.93-1.43 1.49-.95 2.94-1.98 4.51-2.79 2.21-2.09 3.86-4.65 5.49-7.19.35-.99.71-1.97 1.05-2.94.78-2.71.87-5.67-.21-8.3-.2-1.93-.38-3.86-.85-5.74-.16-.48-.46-1.44-.62-1.92-.39-1-.77-2-1.13-3.01-2.15-4.47-1.9-9.71-4.42-14.02-.59-1.33-1.15-2.66-1.62-4.02-.47-1.75-.85-3.53-1.41-5.24-.01-2.74-.37-5.46-2.01-7.73-2.48-5.16-2.4-10.98-3.64-16.46-.92-1.73-1.59-3.57-1.95-5.48-.46-1.86-.7-3.75-1.02-5.62-.65-1.19-1.3-2.37-1.95-3.54-.48-1.3-.92-2.61-1.42-3.89-.15-.47-.44-1.42-.59-1.89-.97-3.24-.34-6.68-1.07-9.96-.45-1.07-.9-2.12-1.36-3.17-.13-.48-.37-1.44-.5-1.93-.62-4-2.26-7.69-4.46-11.07-.31-.98-.63-1.96-.96-2.92-.27-1.43-.55-2.85-.98-4.21-.2-.92-.4-1.83-.59-2.74-.51-1.61-.71-3.3-.94-4.96-1.24-2.59-1.76-5.42-2.41-8.19-.33-1.36-.64-2.72-1.04-4.05-.48-2.63-1.12-5.23-1.64-7.85-.56-2.04-.78-4.14-1.35-6.17-.67-3.33-1.21-6.68-2-9.97-.75-3.36-1.18-6.79-2.04-10.12-.32-3.27-1.14-6.45-1.58-9.69-.74-2.43-.66-5.02-1.48-7.43-.15-1.47-.28-2.94-.42-4.4-1.33-4.8-1.23-9.9-2.63-14.67-.12-1.75-.21-3.5-.33-5.24-.95-2.23-.83-4.66-1.04-7.01-1.35-3.14-.2-6.72-1.67-9.82-.1-2.04-.16-4.08-.25-6.11-1.34-2.82-.75-6.01-.99-9.02-.54-1.24-.82-2.54-.84-3.88.04-5.09-1.51-10.02-1.17-15.13-1.66-4.01-.25-8.45-1.41-12.56-1.21-4.35.5-9.09-1.39-13.29-.42-4.33.73-8.92-.98-13.04-.27-4.69.13-9.39-.23-14.07-2.03-8.5.28-17.36-1.8-25.85-.16-33.06-.13-66.12-.02-99.18 1.75-7.52.49-15.28 1.12-22.91 1.83-6.25-.14-12.87 1.56-19.12.72-4.13-.28-8.4.75-12.49 1.17-4-.28-8.35 1.33-12.26.19-2.33.1-4.72.96-6.94.42-4.32 1.03-8.65 1.99-12.89l.48-3.57c1.09-4.05 1.37-8.26 2.47-12.31.19-.93.38-1.86.58-2.79.6-2.05.85-4.18 1.45-6.23.17-.91.34-1.82.52-2.73.45-1.36.76-2.75 1.08-4.14.49-1.67.83-3.37 1.31-5.04.33-1.34.66-2.67 1.05-4 .16-.48.49-1.45.66-1.94.36-1.32.66-2.65.94-3.99.36-1.01.71-2.04 1.03-3.07.35-.99.69-1.99 1.01-3 .33-1 .65-2 .95-3 .53-1.38.99-2.78 1.53-4.16.09-.42.27-1.28.36-1.71.54-1.32 1.01-2.66 1.55-3.98.69-1.69 1.31-3.4 1.96-5.1.6-1.7 1.28-3.37 2.06-5 .89-2.01 1.63-4.08 2.46-6.11.27-.5.81-1.49 1.08-1.99.81-1.62 1.61-3.25 2.43-4.87.25-.5.74-1.5.99-2 .25-.49.76-1.49 1.02-1.99.23-.5.7-1.51.94-2.02.96-1.7 1.97-3.36 3.01-5.02 2.88-4.37 5.61-8.87 8.92-12.94 3.24-4.61 7.69-8.21 11.63-12.2 2.12-1.27 3.97-2.93 6.08-4.23.72-.29 2.15-.88 2.87-1.17zm915.56 0h5.53c2.87 1.6 5.58 3.49 8.12 5.59 3.84 2.78 7.38 6.18 10.04 10.12 2.8 2.93 5.08 6.3 7.26 9.71 1.47 2.43 3.11 4.74 4.65 7.13.23.51.69 1.52.91 2.03.48.95.97 1.9 1.48 2.85 1.28 2.33 2.49 4.71 3.57 7.15.45.95.92 1.89 1.41 2.84.52 1.05 1.07 2.09 1.61 3.15.86 1.92 1.66 3.86 2.42 5.83.7 1.64 1.33 3.32 1.98 5 .66 1.7 1.29 3.41 1.99 5.1.28 1 .6 2 .95 2.99.31 1.01.65 2.01 1.02 3.01.29 1 .61 2 .97 2.99.33 1.04.7 2.07 1.11 3.09.13.47.39 1.39.52 1.86.7 2.35 1.37 4.72 2.04 7.09.49 1.64.86 3.31 1.37 4.94 1.34 4.94 2.68 9.89 3.61 14.93.39 1.34.72 2.7 1.07 4.06.5 2.08.73 4.22 1.39 6.27.14 1.19.29 2.38.49 3.57.77 2.41.71 5 1.51 7.41.14 1.19.29 2.39.48 3.59.96 4.24 1.6 8.57 1.99 12.91 1.24 3.12.23 6.64 1.68 9.72.24 4.1-.35 8.3.77 12.32.83 4.39-.21 8.92.67 13.3 1.35 5.42.23 11.05.76 16.55 2.18 9.78-.4 19.97 1.85 29.76.11 25.71-.01 51.44.06 77.16.09 2.36-.42 4.67-.86 6.98-.57 7.29.29 14.64-.4 21.93-1.79 6.4.24 13.17-1.45 19.58-1.04 4.76.72 9.86-1.22 14.44-.23 3.8.24 7.66-.5 11.42-1.09 4.46-.11 9.13-1.39 13.57-.24 8.75-2.22 17.33-2.32 26.09-1.3 2.69-.62 5.74-1.23 8.58-.6 2.46-.71 4.99-.85 7.51-.93 2.25-.81 4.72-.99 7.1-1.04 4.58-1.41 9.31-2.05 13.97-.85 2.21-.78 4.6-.97 6.92-.82 2.51-.77 5.21-1.58 7.72-.16 1.44-.29 2.89-.42 4.34-.99 3.65-1.51 7.41-2.09 11.14-1.03 4.05-1.36 8.24-2.39 12.3-.29 1.66-.5 3.35-.99 4.98-.48 2.64-1.1 5.26-1.65 7.89-.56 2.03-.79 4.15-1.4 6.17-.19.92-.37 1.84-.52 2.77-.55 2.02-.91 4.08-1.39 6.12-.34 1.34-.66 2.7-1.06 4.04-.13.46-.38 1.39-.51 1.85-.46 1.05-.89 2.11-1.29 3.18-.49 2.29-.53 4.65-1.09 6.93-.38 1.3-.69 2.62-1.03 3.94-.32.96-.66 1.91-1 2.87-.27.52-.81 1.55-1.08 2.07-.7 1.29-1.42 2.57-2.11 3.87-.22 1.39-.43 2.8-.74 4.19-.53 1.8-1.14 3.57-1.92 5.27-.74 2.89-.35 5.94-1.11 8.83-.38 1.28-.7 2.59-1.05 3.89-.32.95-.63 1.9-.96 2.85-.66 1.18-1.31 2.36-1.95 3.55-1.06 5.09-2 10.29-4.38 14.97-.11 2.57.07 5.22-.64 7.74-.44 2.1-1.21 4.11-2.28 5.97-1.66 3.73-2 7.83-2.68 11.81-.55 1.39-1.13 2.77-1.71 4.15-3.49 5.1-2.37 11.68-5.53 16.93-1.89 3.42-.89 7.56-2.65 11.08-.75 1.99.31 3.98.58 5.97.82 1.71 1.6 3.45 2.47 5.16 1.56 2.22 3.55 4.11 5.55 5.95 1.22.69 2.37 1.48 3.54 2.3.41.06 1.22.18 1.63.25 1.06.47 2.14.93 3.24 1.38 3.23.73 6.64.68 9.89.02 2.36-.97 4.66-2.09 6.94-3.26 1.32-.68 2.65-1.35 4.02-1.97 2.39-1.25 4.64-2.73 7-4.05 5.73-3.78 11.72-7.27 16.88-11.85 4.88-3.37 8.63-8.11 12.94-12.17 2.13-2.2 4.52-4.21 6.14-6.85 2.38-2.79 4.17-6 6.4-8.9.2-.94.43-1.87.69-2.78.91-1.42 1.9-2.79 2.81-4.22 1.6-3.22 3.24-6.46 4.02-9.99.38-1.04.77-2.07 1.17-3.09 1.02-5.76.36-11.68.4-17.5-.81-2.04-.98-4.22-1.47-6.33-.38-1-.76-1.98-1.14-2.95-.72-1.7-1.34-3.43-1.95-5.15-.9-1.37-1.85-2.68-2.75-4.02-1.02-1.89-1.7-3.91-2.37-5.92-.24-1.85-.42-3.71-1.12-5.44-.53-5.31.29-10.58 1.59-15.71.11-.48.33-1.43.45-1.91 1.65-3 3.25-6.31 6.48-7.9 1.23-1.01 2.48-2.02 3.81-2.91.52-.25 1.57-.74 2.1-.99 2.21-.99 4.43-1.96 6.73-2.78-.27 1.54-.48 3.11-.9 4.63-.58 3.05-2.25 6.25-.6 9.27.12.86.26 1.74.42 2.62.52 1.36.97 2.76 1.47 4.16.81 1.16 1.68 2.27 2.56 3.4 2.78 0 5.57.01 8.36.01 2.19-1.92 4.17-4.06 6.06-6.28 1.28-2.1 2.69-4.11 4.08-6.14.99-1.67 2.07-3.29 3.02-4.98 1.34-2.33 2.76-4.62 4.01-7 .95-2.04 1.96-4.06 3.04-6.04.87-2.03 1.68-4.08 2.45-6.15.51-.95 1.04-1.9 1.58-2.84.81-2.07 1.56-4.16 2.45-6.2.67-1.69 1.3-3.39 2.06-5.05.35-.94.69-1.88 1.03-2.82.32-.98.64-1.95.96-2.92 1.48-3.97 2.97-7.95 4.02-12.06.33-1.01.67-2.02 1-3.02s.66-2 .98-3.01c.37-1.01.74-2.02 1.11-3.04.31-1.29.57-2.59.86-3.89.37-1.03.74-2.07 1.09-3.1.47-1.65.79-3.33 1.29-4.97.31-1.33.63-2.67 1.04-3.97.71-2.7 1.26-5.44 2.04-8.12.16-.93.34-1.85.54-2.76.85-2.96 1.43-5.98 2.03-8.99.39-1.37.7-2.76 1.06-4.13 1.06-5.26 2.08-10.54 2.93-15.84 1.2-5.92 2.33-11.87 2.95-17.88 1.75-7.82 2.15-15.87 3.6-23.74.2-2.03.18-4.07.29-6.1 1.41-3.01.47-6.42 1.26-9.57.97-3.53.2-7.26 1.14-10.79.94-3.74.02-7.66.77-11.42 1.24-4.63.45-9.46.78-14.18 2.03-6.44.3-13.44 1.01-20.1 1.49-3.43.73-7.26.9-10.88.08-9.7.16-19.39-.09-29.09-1.51-5.36-1.06-11.13-2.61-16.53-.28-1.66-.48-3.34-.92-4.96-.36-1.34-.69-2.69-1.04-4.03-.34-1.33-.65-2.66-1-3.98-.33-1.3-.62-2.6-.96-3.89-.33-1.02-.69-2.03-1.05-3.03-.34-.95-.67-1.89-1-2.82-.93-2.05-1.7-4.16-2.56-6.22-1.21-2.28-2.09-4.72-3.4-6.94-.92-1.4-1.89-2.77-2.73-4.21-.76-.88-1.51-1.76-2.23-2.63-2.14-4-6.38-6.05-9.9-8.61-1.44-.08-2.86-.17-4.26-.26 1.32-.92 2.7-1.79 4.09-2.64 1.4-.54 2.81-1.1 4.25-1.61 5.19-1.25 10.69-2.48 15.97-.94 1.28.33 2.59.64 3.9.98.95.31 1.91.66 2.88 1.03 1.75.88 3.51 1.77 5.3 2.62 1.72 1 3.39 2.11 5.14 3.1 4.24 4.37 9.08 8.27 12.64 13.25 1.81 2.17 3.41 4.52 4.89 6.95 1.54 2.58 3.11 5.14 4.42 7.85.64 1.34 1.3 2.68 1.96 4.02.68 1.34 1.38 2.69 2.08 4.04.62 1.64 1.23 3.3 1.88 4.95.28.5.83 1.51 1.11 2.01.25 1.02.55 2.04.87 3.05s.67 2.02 1.05 3.02c.29 1 .61 1.99.97 2.98.33 1.04.7 2.07 1.11 3.09.13.47.39 1.41.53 1.88.52 1.66.85 3.39 1.41 5.05.67 2.69 1.3 5.39 2.04 8.07.22 1.69.44 3.39.95 5.03.19.92.4 1.84.63 2.76.7 2.43.64 5.01 1.43 7.43.99 5.48.84 11.13 2.25 16.52v29.25l-.74-1.85c-.81 4.7.66 9.71-1.15 14.23-.19 2.97.21 6.06-.92 8.89-.2 2.33-.15 4.72-.93 6.95-.25 2.02-.35 4.07-1.02 6.01-.18 1.16-.33 2.32-.48 3.49-.56 1.65-.79 3.38-1.04 5.1-.55 1.72-.92 3.49-1.43 5.22-.44 2.62-1.13 5.18-1.56 7.8-.38 1.03-.72 2.07-1.03 3.12-.54 1.33-1.01 2.68-1.53 4.01-.09.47-.26 1.4-.35 1.86-.58 1.38-1.07 2.79-1.62 4.17-.12.47-.34 1.43-.46 1.9-.56 1.65-.91 3.36-1.43 5.02-.56 2-1.19 3.98-1.65 6.01-.52 1.67-.84 3.38-1.32 5.05-.34 1.39-.66 2.78-1.1 4.14-.18.9-.34 1.81-.47 2.73-.57 2.06-.93 4.16-1.49 6.22-.21.9-.4 1.81-.57 2.73-.64 2.06-.82 4.22-1.4 6.29-.29 1.72-.53 3.45-1.06 5.12-.21 1.14-.36 2.3-.51 3.47-.78 2.41-.72 5-1.45 7.44-.65 5.54-2.18 10.97-2.51 16.56-.82 2.2-.81 4.57-1 6.89-1.36 7.89-2.52 15.9-2.93 23.91-1.31 2.83-.74 6.01-.96 9.03-1.74 4.12-.22 8.77-1.68 13-.04 7.4-1.62 14.63-1.31 22.06-1.94 6.82.14 14.02-1.73 20.85-.76 9.63.8 19.42-1.12 28.95.01 22.87-.3 45.77.17 68.64-.15.92-.27 1.85-.38 2.79-.73 1.7-1.38 3.45-2.07 5.17-1.24 2.25-2.39 4.57-3.09 7.05-1.44 2.65-3.1 5.17-4.41 7.89-2.15 3.4-4.3 6.82-6.86 9.93-1.75 2.84-4.52 4.85-6.37 7.61-2.62 4.03-7.05 6.21-10.33 9.59-3.67 2.43-7.18 5.11-11.09 7.17-.5.23-1.52.67-2.03.9-1.36.7-2.71 1.4-4.05 2.12-2.11.88-4.24 1.69-6.32 2.6-1.58.46-3.18.81-4.72 1.32-7.66 2.41-15.7 2.43-23.64 2.37-1.75.65-3.56 1.04-5.33 1.56-1.07.35-2.11.73-3.13 1.14-.45.11-1.36.32-1.81.43-1.37.52-2.74.98-4.08 1.51-2.4.54-4.76 1.22-7.08 2-.45.13-1.34.39-1.78.52-2.73 1.1-5.5 2.06-8.26 3.02-1.3.49-2.61.94-3.88 1.44-1.02.29-2.02.6-3 .94-.96.32-1.91.67-2.83 1.05-1.4.6-2.8 1.17-4.22 1.65-1.28.45-2.55.86-3.79 1.35-1.67.74-3.37 1.37-5.04 2.04-2.07.88-4.19 1.63-6.23 2.54-1.65.7-3.33 1.31-4.98 1.95-.5.29-1.49.86-1.98 1.14-2.32 1-4.66 1.95-7.02 2.84-.5.27-1.49.81-1.99 1.09-.96.47-1.91.95-2.85 1.44-1.07.5-2.12 1.02-3.15 1.54-2.01 1.01-4.02 2.02-6.04 3-.95.48-1.88.96-2.81 1.46-1.07.5-2.11 1.03-3.14 1.56-3.19 1.7-6.64 2.79-9.87 4.38-.5.26-1.48.78-1.97 1.04-1.37.66-2.73 1.34-4.07 2.04-3.41 1.47-6.75 3.09-9.94 4.99-.49.24-1.49.74-1.99.98-1.09.5-2.16 1.01-3.22 1.52-2.35 1.33-4.61 2.82-7 4.05-1.7.92-3.3 1.98-4.95 2.97-3.24 1.9-6.44 3.88-9.86 5.46-3.08 1.54-6.15 3.12-9.04 5-3.12 1.02-6.05 2.49-8.95 3.99-1.08.52-2.13 1.08-3.18 1.62-2.35.93-4.69 1.9-6.99 2.93-1.92.9-3.88 1.67-5.83 2.48-1.64.7-3.3 1.34-4.95 2.01-1.38.55-2.75 1.09-4.14 1.58-1.71.66-3.43 1.29-5.1 2-.98.34-1.95.68-2.91 1.01-1 .34-2 .66-2.99.98-1 .34-1.99.68-2.97 1.01-1.97.76-3.97 1.44-6 2-1.34.44-2.68.85-3.99 1.33-1.06.35-2.11.72-3.14 1.12-.45.1-1.37.31-1.82.42-1.36.54-2.73 1.01-4.07 1.54-2.34.59-4.66 1.23-6.98 1.86-1.42.5-2.81 1.08-4.18 1.69-1.23.47-2.47.91-3.68 1.41-2.72 1.26-5.53 2.3-8.26 3.52-.49.28-1.47.84-1.96 1.13-6.38 2.27-12.06 5.93-18.09 8.92-1.67.95-3.27 2.01-4.92 2.99-1.99 1.12-3.89 2.36-5.87 3.47-8.98 5.74-17.83 11.78-25.83 18.82-13.62 10.67-25.6 23.42-36.14 37.12-.75.88-1.49 1.77-2.22 2.67-4.76 6.58-9.26 13.35-13.64 20.19-1.33 2.7-2.99 5.23-4.49 7.85-.23.5-.7 1.51-.93 2.02-.55 1.04-1.09 2.09-1.59 3.17-.68 1.33-1.36 2.67-2.03 4.02-.24.5-.72 1.5-.96 1.99-.84 1.62-1.66 3.25-2.52 4.87-.85 2.05-1.62 4.13-2.48 6.18-.67 1.68-1.3 3.37-2.04 5.02-.48 1.26-.91 2.54-1.39 3.82-.35 1.03-.7 2.07-1.06 3.12-.12.45-.35 1.36-.46 1.82-.41 1.01-.79 2.03-1.14 3.07-.34.99-.66 2-.96 3.02-.37 1-.72 2.01-1.03 3.04-.5 1.69-.87 3.41-1.41 5.1-.18.88-.33 1.77-.48 2.68-.46 1.35-.81 2.74-1.15 4.14-.45 1.58-.67 3.22-.9 4.86-.53 1.61-.79 3.29-1.04 4.98-.57 1.93-.73 3.94-.92 5.95-1.45 9.25-2.86 18.58-2.81 27.98-.62 1.64-1.05 3.36-1.58 5.05-1.38 2.83-2.54 5.81-2.63 9.01-.46 1.38-.74 2.81-1.02 4.25-.47 1.25-.89 2.53-1.36 3.8-.72 1.39-1.4 2.8-2.06 4.23-1.27 1.81-2.73 3.5-3.77 5.47-1.02.82-2.04 1.62-3.12 2.35-1.26.99-2.5 2.02-3.83 2.93-4.97 2.56-10.51 3.95-15.04 7.35-1.48.53-2.94 1.13-4.36 1.77-2.16.49-4.34.87-6.44 1.56h-8.57c-1.86-.64-3.76-1.1-5.63-1.64-1.39-.47-2.74-1.01-4.09-1.53-6.24-2.78-10.56-8.35-14.69-13.56-3.78-4.2-8.63-7.57-11.09-12.8-.46-1.02-.9-2.02-1.33-3.02-1.75-2.76-3.86-5.25-5.71-7.93-1.35-2.26-2.37-4.69-3.43-7.08-.13-.47-.4-1.41-.54-1.88-1.26-4.75-.52-9.75-.52-14.59 1.23-2.25-.29-4.6-.12-6.93.03-3.83-.4-7.74.52-11.49.77-2.38 1.6-4.74 2.56-7.04 5.01-2.7 9.14-6.65 13.7-9.95 10.74-9.75 19.4-21.57 26.92-33.92 1.03-2.16 2.3-4.18 3.59-6.18 1.29-2.7 2.66-5.35 3.98-8.03 1.58-2.86 2.74-5.91 3.95-8.93.96-1.91 1.79-3.86 2.52-5.86.56-1.37 1.12-2.74 1.59-4.14.8-2.05 1.58-4.11 2.47-6.12.1-.44.3-1.33.41-1.77.39-1.05.77-2.09 1.13-3.13.33-1 .66-2 .98-2.99.33-1 .65-2.01.97-3 .7-2.34 1.34-4.69 2.07-7.01.36-1.31.63-2.64.91-3.95.5-1.35.97-2.69 1.51-4.01.14-.49.42-1.47.56-1.95.43-3.75 2.45-7.61.96-11.31-.29-1.57-.52-3.12-.84-4.66-.57-1.44-1.17-2.86-1.76-4.26-.43-1-.84-1.98-1.25-2.95-.8-9.59-1.2-19.49 1.18-28.91.15-.48.46-1.44.61-1.93.39-1.02.76-2.05 1.12-3.07.31-1.01.6-2.02.89-3.02 1.01-1.76 2.11-3.47 3.09-5.24 2.34-2.44 4.65-4.95 7.4-6.94 2.04-.56 6.05-.65 5.11 2.52-3.01 11.18-2.28 22.85-1.73 34.28.77 2.03.92 4.23 1.46 6.34.33 1.02.68 2.04 1.06 3.06.56 1.75 1.28 3.45 1.98 5.16 1.72 2.55 4 4.68 6.66 6.24 1.16-.38 2.33-.74 3.52-1.05 2.73-1.29 4.01-4.12 5.66-6.47.27-.96.54-1.91.82-2.86.38-1.01.75-2.02 1.09-3.03.35-1.3.66-2.61 1.03-3.89.61-2.21.61-4.51.76-6.77.6-1.73.97-3.52 1.47-5.26.33-1 .69-1.98 1.07-2.94.52-1.4 1.04-2.8 1.53-4.2.82-1.29 1.63-2.57 2.47-3.84.85-1.47 1.78-2.87 2.62-4.33 5.12-5.58 10.66-10.76 17.21-14.62 2.63-1.12 5.33-2.05 7.91-3.3l2-1c2-1.32 4.01-2.61 6.15-3.7 1.24-.45 2.51-.85 3.77-1.29 1.68-.71 3.39-1.35 5.1-2.01 1.47-.55 2.93-1.14 4.38-1.78 1.89-.48 3.85-.68 5.74-1.21 2.97-.54 5.93-1.2 8.86-1.99 2.34-.65 4.69-1.29 7.03-1.98 1-.34 2-.68 3.01-1.03 2.04-.56 4.06-1.24 6.04-2.01.97-.32 1.96-.63 2.95-.95 1.4-.49 2.78-1.06 4.17-1.63 1.99-.73 3.96-1.55 5.86-2.52 1.58-.7 3.22-1.3 4.86-1.89 2.02-1.01 4.04-2.04 6.06-3.08 1.05-.5 2.12-1.01 3.21-1.48 1.9-1.16 3.77-2.38 5.72-3.48 2.22-1.05 4.3-2.37 6.45-3.57 1.82-1.29 3-3.2 3.94-5.18 2.86-5.99 8.29-9.91 13.72-13.37 1.67-.65 3.36-1.25 5.06-1.87 1.44-.31 2.89-.62 4.3-1.14.9-.08 1.82-.15 2.75-.2 3.74-4.43 8.84-7.36 12.68-11.69 4.09-3.63 6.89-8.41 11-12.02 5.81-6.59 11.12-13.61 16.39-20.64 3.58-5.75 7.69-11.17 11.1-17.03.97-1.67 2.02-3.28 2.96-4.97 1.09-2.11 2.34-4.13 3.6-6.16.45-.96.92-1.92 1.4-2.86.66-1.36 1.34-2.7 2.02-4.05 1.19-2.37 2.37-4.75 3.54-7.13.49-.96 1-1.9 1.52-2.84 1.31-3.03 2.38-6.16 3.99-9.05.86-2.05 1.62-4.14 2.51-6.17.48-1.24.92-2.49 1.43-3.72.55-1.38 1.1-2.75 1.63-4.14.75-1.97 1.41-3.97 1.99-5.99.33-1 .67-2 1-3 .32-1 .64-2 .95-3 .51-1.34.99-2.69 1.53-4.02l.44-1.88c.73-2.36 1.46-4.72 2.07-7.12.49-1.66.85-3.36 1.33-5.02.31-1.39.63-2.79 1.09-4.13.15-.9.31-1.78.49-2.66.45-1.36.79-2.75 1.14-4.14.42-1.6.64-3.25.93-4.88.59-2.11.77-4.32 1.44-6.41.21-2.04.35-4.09.99-6.04.23-2.05.31-4.16 1.08-6.09-.02-4.79 1.5-9.4 1.33-14.19 1.71-3.94.22-8.35 1.2-12.44.95-3.4.61-6.96.66-10.44-.01-9.03-.03-18.06.02-27.09-.05-2.65.25-5.43-.94-7.9.44-6.12-1.16-12.03-1.24-18.11-1.02-2.22-.84-4.69-1.05-7.05-1.01-2.75-.67-5.74-1.46-8.54-.31-1.72-.56-3.46-1.11-5.12-.18-1.17-.32-2.34-.46-3.5-.69-2.08-.87-4.28-1.48-6.37-.21-.94-.39-1.87-.56-2.79-1.06-4.03-1.79-8.13-3.05-12.1-.51-1.64-.86-3.3-1.31-4.93-.35-1.02-.69-2.03-1.04-3.03-.34-1.04-.68-2.06-1.03-3.07-.31-1.3-.6-2.59-.94-3.87-.35-1.02-.7-2.03-1.05-3.03-.32-.97-.65-1.93-.97-2.88-.72-1.72-1.37-3.45-2.05-5.17-.31-.99-.63-1.98-.96-2.95-.35-1.01-.7-2.01-1.05-3-.3-1.48-.59-2.96-1.11-4.36-.14-1.47-.24-2.92-.35-4.37-1.23-2.88-.61-6.04-.99-9.05a58.983 58.983 0 0 1 0-20.74c.09-4.9.88-9.75 1.81-14.55.44-2.34 1.05-4.64 1.63-6.94.36-1.01.7-2.03 1.04-3.06.46-1.27.9-2.55 1.41-3.81.56-1.4 1.11-2.82 1.58-4.26.8-1.27 1.58-2.56 2.39-3.84 1.99-3.85 4.86-7.17 8.9-8.94 1.04-.42 2.11-.84 3.18-1.25 2.25.07 4.44.59 6.68.94-.34.57-1.02 1.7-1.36 2.27.23 3.86-1.3 7.52-1.11 11.37.08 5.04-.14 10.09.11 15.14.84 5.17 1.65 10.37 3.16 15.41.48 1.28.91 2.59 1.39 3.89.28.5.82 1.51 1.1 2.01.65 1.4 1.32 2.81 1.94 4.24 2.21 3.13 5.04 5.79 8.09 8.09 2.47.34 4.98.34 7.47-.01 3.57-2.84 7.29-5.91 9.09-10.24.69-1.34 1.37-2.7 2.03-4.07.44-1.3.87-2.6 1.38-3.88.47-2.02 1.08-4 1.6-6 .37-1.32.68-2.65 1.03-3.98 1.09-4.93 2.18-9.87 2.93-14.87 1.51-7.9 3.08-15.84 3.93-23.84 1.04-5.22 1.75-10.56 1.92-15.9 1.33-2.96.49-6.3 1.36-9.38.94-3.88-.01-7.97 1.17-11.81.95-4.2-.6-8.73 1.21-12.75.48-5.84-.55-11.79.66-17.55 1.03-12.65.17-25.4.45-38.1-.48-.4-1.44-1.22-1.92-1.62-.07-2.33-.13-4.67-.65-6.94.8-3.04.7-6.23.24-9.3.41-3.16.32-6.34.42-9.51 1.77-5.09.73-10.73.74-16.02-1.56-4.96-.13-10.23-1.49-15.2-.69-3.34.03-6.82-.82-10.13-.91-3.14-.01-6.55-1.37-9.57-.2-5.35-.88-10.71-1.93-15.93-.21-2.32-.22-4.68-.97-6.9-.23-2.04-.36-4.09-.98-6.05-.25-2-.37-4.04-1.02-5.97-.19-1.17-.34-2.34-.5-3.51-1.21-5.41-2.03-10.91-3.43-16.28-.48-2.63-1.16-5.22-1.61-7.85-.54-1.69-.9-3.42-1.38-5.11-.32-1.34-.63-2.68-1.01-4-.15-.49-.44-1.46-.58-1.95-.53-1.67-.93-3.38-1.45-5.05-.14-.49-.44-1.47-.58-1.96-.52-1.64-.87-3.32-1.35-4.96-.33-1.01-.67-2.02-1.02-3.02-.35-1.05-.72-2.09-1.11-3.12-.11-.45-.35-1.36-.47-1.82-.39-1.02-.75-2.06-1.08-3.1-.84-1.97-1.57-3.98-2.38-5.97-.31-.94-.63-1.87-.95-2.8-.97-2.05-1.77-4.17-2.57-6.28-.52-.95-1.03-1.9-1.51-2.85-.25-.5-.74-1.51-.99-2.01-1.42-3.1-3-6.13-4.54-9.16-1.65-3.34-3.58-6.57-6-9.41z"/><path d="M469.91 51.75c2.88 2.23 5.64 4.68 8.73 6.63 1.86 1.47 3.87 2.72 5.7 4.23 1.92 1.05 3.39 2.73 5.31 3.78 2.31 1.74 4.58 3.57 7.11 5 .82.73 1.64 1.47 2.48 2.22 1.98.97 3.48 2.65 5.35 3.8 1.02.71 2.08 1.37 3.18 1.98.81.74 1.63 1.49 2.46 2.23 2.53 1.41 4.89 3.1 7.09 4.98 1.93 1.03 3.38 2.75 5.32 3.78 2.37 1.65 4.58 3.52 7.06 5.01 1.23 1.09 2.46 2.2 3.93 2.98 1.88 1.44 3.9 2.7 5.71 4.24 1.91 1.05 3.4 2.69 5.3 3.75 1.83 1.52 3.85 2.78 5.72 4.26 1.92 1.08 3.41 2.75 5.37 3.78.38.3 1.15.9 1.53 1.2 1.52.74 2.77 1.89 4.04 3 2.46 1.51 4.68 3.39 7.06 5.04 1.46.78 2.7 1.89 3.95 2.98 3.84 2.41 7.47 5.17 11.01 8.01 2.47 1.47 4.72 3.28 7.04 4.99 1.89 1.06 3.38 2.69 5.27 3.76 1.87 1.46 3.89 2.72 5.72 4.24 1.9 1.05 3.38 2.71 5.29 3.76 2.36 1.65 4.59 3.52 7.06 5.02 1.25 1.11 2.51 2.25 4.03 3 .38.3 1.15.9 1.53 1.21 1.52.73 2.77 1.87 4.04 2.99 1.93 1.07 3.47 2.72 5.42 3.79.39.3 1.17.92 1.56 1.22 1.49.77 2.75 1.9 4.03 2.99 3.75 2.57 7.37 5.35 11.05 8.03 4.31 2.64 8.06 6.1 12.35 8.77 1.26 1.1 2.48 2.29 4.03 3 .38.3 1.14.9 1.53 1.21 1.5.77 2.77 1.89 4.03 3.01 2.47 1.47 4.77 3.23 7.04 5 1.47.77 2.71 1.89 3.96 2.98 3.81 2.48 7.44 5.25 11.03 8.03 2.95 1.67 5.47 3.99 8.34 5.78.45.35 1.35 1.06 1.8 1.41 2.31-1.86 4.65-3.72 7.23-5.2 1.23-1.09 2.46-2.22 3.93-2.99 2.4-1.6 4.59-3.5 7.05-5.02 1.75-1.6 3.77-2.84 5.69-4.23 1.46-.77 2.68-1.9 3.93-2.98 2.92-1.75 5.42-4.13 8.41-5.79 1.24-1.09 2.45-2.25 3.96-2.99 1.79-1.55 3.81-2.81 5.7-4.24 1.89-1.05 3.37-2.71 5.27-3.76 2.32-1.72 4.58-3.53 7.06-5.01 1.23-1.09 2.47-2.21 3.94-2.99 2.35-1.67 4.59-3.52 7.06-5.01 1.23-1.1 2.47-2.22 3.96-2.99 1.81-1.52 3.83-2.78 5.7-4.24 1.92-1.06 3.41-2.76 5.37-3.78.38-.3 1.16-.91 1.55-1.21 1.48-.79 2.76-1.9 4.03-2.99 3.75-2.54 7.44-5.21 11.02-8.01 1.95-1.05 3.42-2.77 5.4-3.8l1.54-1.18c1.96-1.05 3.47-2.76 5.43-3.82 1.23-1.08 2.47-2.18 3.94-2.97 2.4-1.59 4.58-3.5 7.04-5.01 3.03-2.66 6.57-4.63 9.66-7.23 2.89-1.74 5.37-4.1 8.34-5.75 3.07-2.61 6.46-4.83 9.69-7.25 1.88-1.07 3.36-2.7 5.26-3.76 2.4-1.58 4.59-3.5 7.05-5.01 3.05-2.63 6.53-4.7 9.67-7.23 4.18-2.82 8.13-6.01 12.35-8.78 1.26-1.1 2.51-2.26 4.04-3 .38-.3 1.14-.89 1.52-1.19 1.99-1.01 3.46-2.77 5.44-3.82 1.23-1.07 2.47-2.18 3.93-2.97 2.41-1.59 4.6-3.49 7.05-5.01 1.75-1.6 3.77-2.85 5.7-4.23 1.89-1.06 3.36-2.72 5.27-3.77 1.83-1.5 3.84-2.76 5.71-4.22 1.79-.93 3.07-2.55 4.74-3.66-.34 1.33-.96 2.55-1.45 3.82-.35.97-.68 1.95-.99 2.93-.36 1-.68 2.01-.95 3.03-.6 1.33-.88 2.78-1.52 4.08-.11.44-.31 1.31-.42 1.75-.36 1.06-.74 2.11-1.12 3.15-.37 1-.68 2.01-.93 3.03-.61 1.33-.87 2.78-1.55 4.07-.09.45-.26 1.36-.35 1.81-.67 1.32-.99 2.76-1.53 4.12-.88 4.08-2.58 7.91-3.59 11.95-.39 1-.73 2-1.03 3.02a75.3 75.3 0 0 0-1 3c-.37.99-.7 2-.97 3.03-.64 1.26-.75 2.71-1.38 3.96-.41 1.05-.77 2.12-1.08 3.2l-.48 1.64c-.33 1.08-.7 2.13-1.12 3.17-.35 1-.66 2.02-.93 3.04-.72 2-1.35 4.03-1.99 6.05-1.1 3.27-2.1 6.58-3.01 9.91-.39.97-.74 1.95-1.05 2.95-.75 1.99-1.5 3.99-1.95 6.08-.57 1.34-.91 2.77-1.52 4.09-.1.43-.31 1.29-.42 1.73-.35 1.06-.73 2.11-1.13 3.15-.36.99-.67 2-.93 3.03-.61 1.27-.79 2.69-1.4 3.96-.39 1.05-.75 2.11-1.06 3.18-.13.42-.38 1.27-.51 1.7-1.23 4.39-2.82 8.68-4.06 13.07-.39 1.01-.71 2.05-.97 3.1-.6 1.32-.88 2.76-1.53 4.06-.1.43-.3 1.31-.4 1.75-.37 1.05-.75 2.1-1.14 3.15-.35.99-.67 1.99-.95 3.01-.38.98-.71 1.98-1.02 2.99-.36.99-.69 1.99-.99 3.01-.37.99-.71 1.99-1.01 3-.37 1-.67 2.03-.93 3.07-.78 2.25-1.52 4.53-2.02 6.86-.87 1.95-1.51 3.99-2.03 6.05-.37.99-.72 1.99-1.04 3-.35 1-.67 2.01-.94 3.04-.62 1.32-.85 2.79-1.53 4.08-.1.43-.3 1.3-.41 1.74a83.94 83.94 0 0 1-1.12 3.15c-.36.99-.68 1.99-.96 3-.37 1-.7 2-1.01 3-.38 1-.71 2.01-1 3.03-1.19 3.61-2.28 7.26-3.39 10.9-.56 1.68-1.21 3.34-1.6 5.07-.39.98-.72 1.98-1.02 2.99-.36.99-.69 2-1 3.01-.36.99-.69 1.99-.99 3.01-.37.98-.71 1.98-1.01 2.99-.37 1-.69 2.01-.95 3.03-.63 1.32-.87 2.78-1.54 4.09l-.4 1.73c-.36 1.06-.74 2.1-1.14 3.14-.35.99-.66 2-.95 3.01-.38 1-.72 2-1.04 3.02-.56 1.66-.85 3.4-1.4 5.07-.12.44-.36 1.33-.49 1.77-.34 1.05-.72 2.09-1.12 3.12-.34 1-.66 2.01-.96 3.02-.37 1-.69 2.01-.97 3.03-.63 1.32-.85 2.79-1.53 4.09-.1.43-.3 1.29-.4 1.73-.35 1.06-.73 2.11-1.14 3.14-.35 1-.66 2-.94 3.02-.4.97-.74 1.96-1.02 2.97-.19.53-.57 1.59-.77 2.12 1.78 1.37 3.77 2.47 5.41 4.03 2.46 1.48 4.71 3.29 7.04 4.99 1.89 1.06 3.36 2.72 5.27 3.77 1.88 1.43 3.9 2.69 5.71 4.23 1.91 1.05 3.38 2.71 5.3 3.78 1.86 1.45 3.87 2.71 5.7 4.23 1.47.77 2.71 1.89 3.96 2.98 2.45 1.52 4.65 3.42 7.07 5.02 1.46.77 2.68 1.89 3.92 2.99 1.06.61 2.09 1.28 3.11 2 1.41.84 2.65 1.93 3.91 2.99 2.45 1.52 4.68 3.39 7.06 5.03 1.89 1.07 3.37 2.72 5.3 3.76 3.11 2.56 6.51 4.76 9.69 7.25 2.43 1.5 4.67 3.32 7 4.99 1.45.8 2.69 1.89 3.95 2.98 2.45 1.5 4.69 3.34 7.05 5.01 1.9 1.05 3.37 2.73 5.3 3.77 1.8 1.53 3.82 2.78 5.7 4.23 1.47.76 2.69 1.9 3.93 2.99 1.07.61 2.09 1.28 3.11 2.01 1.41.83 2.65 1.92 3.91 2.98 1.91 1.05 3.4 2.7 5.31 3.78 1.91 1.38 3.94 2.63 5.7 4.23 1.98 1.05 3.44 2.84 5.49 3.82.41.36 1.23 1.09 1.64 1.45 1.81 1.04 3.36 2.46 5.2 3.48 3.11 2.57 6.62 4.61 9.67 7.25 2.46 1.51 4.66 3.38 7.04 5.02 1.46.77 2.69 1.89 3.94 2.99 2.47 1.46 4.76 3.23 7.04 5 1.47.77 2.71 1.89 3.96 2.99 4.29 2.65 8.08 6.05 12.34 8.76 2.36 1.66 4.58 3.53 7.06 5.03 1.23 1.08 2.45 2.21 3.93 2.98 1.88 1.44 3.9 2.69 5.71 4.23 1.91 1.04 3.38 2.72 5.3 3.77 1.86 1.46 3.87 2.72 5.71 4.24 1.9 1.05 3.39 2.69 5.29 3.76 2.3 1.69 4.56 3.45 6.96 5.02 1.08.78 2.23 1.46 3.4 2.15l.02.45c-94.26.01-188.53-.02-282.79.02-.71 1.1-1.34 2.22-1.6 3.52-.85 3.35-2.01 6.61-2.94 9.94-.38.98-.72 1.98-1.02 3-.36.99-.69 2-1.01 3.01-.36.99-.68 2-.95 3.03-.61 1.33-.87 2.78-1.53 4.08-.1.44-.3 1.31-.4 1.74-.35 1.05-.74 2.1-1.15 3.14-.34 1-.64 2.02-.91 3.05-.64 1.26-.84 2.68-1.45 3.96-1.11 4.42-2.58 8.74-4.07 13.04-.11.46-.33 1.37-.44 1.82-.38 1.04-.75 2.09-1.11 3.14-.35.99-.68 1.98-.97 3-.36.99-.7 1.99-1 3.01-.37.98-.7 1.98-1 3-.37.98-.71 1.98-.99 3-.38.98-.72 1.97-1.01 2.99-.37.99-.7 1.99-1 3.01-.37.99-.71 1.99-1 3.01-1.31 4.32-2.76 8.61-3.98 12.96-.38.99-.73 2-1.03 3.02-.35.99-.68 2-1 3.01-.37.98-.69 1.99-.98 3.01-.57 1.29-.87 2.69-1.4 4-.41 1.04-.76 2.1-1.05 3.19-.12.4-.36 1.21-.48 1.62-.32 1.07-.7 2.12-1.12 3.16-.36.99-.67 2-.94 3.02-.37.98-.72 1.97-1.04 2.98-.36 1.01-.68 2.03-.97 3.07-.76 2.28-1.41 4.59-1.96 6.93-.41.97-.76 1.95-1.04 2.97-.52 1.35-.96 2.74-1.52 4.09-.1.45-.29 1.35-.39 1.8-.36 1.05-.73 2.1-1.13 3.15-.37.98-.68 1.99-.95 3.01a42.1 42.1 0 0 0-1.03 2.99c-.37.98-.7 1.99-.99 3.01-.38.98-.71 1.98-.99 3-.37.98-.71 1.98-1.02 2.99-.37.99-.7 2-.99 3.03-1.33 4.3-2.75 8.58-3.99 12.91-.38 1-.72 2.03-1.01 3.07-.37.97-.71 1.97-1.01 2.97-.37.99-.7 2-.99 3.02-.37.98-.7 1.99-1.01 3-.38.99-.7 2-.95 3.04-.72 1.22-.75 2.7-1.44 3.94-.28 1.02-.6 2.03-.95 3.03-.34 1-.67 2-1 3-.32 1.01-.67 2.02-1.05 3.03-1.04 5.13-3.43 9.85-4.57 14.95-.39.99-.74 1.99-1.04 3.02-.36.98-.69 1.98-.99 2.99-.37.98-.7 1.98-1.01 3-.37.99-.69 2-.96 3.04-.63 1.31-.84 2.78-1.52 4.08-.11.43-.31 1.29-.42 1.72-.34 1.06-.72 2.11-1.13 3.16-.35.99-.67 2-.96 3.03-1.5 4.67-2.78 9.42-4.5 14.02l-.36 1.87c-.64 1.34-1.06 2.77-1.65 4.14-.09.46-.27 1.38-.37 1.83-.63 1.31-.95 2.75-1.46 4.11-.41 1.1-.82 2.21-1.23 3.32l-.12 2.2-.63-.01-1.08-2.55c-.91-3.33-1.91-6.64-2.96-9.92-.32-1.02-.66-2.02-1.01-3.01-.3-1.03-.62-2.04-.95-3.03-.43-1.05-.81-2.1-1.13-3.16-.11-.43-.31-1.28-.42-1.71-.64-1.33-.94-2.77-1.54-4.09a36.91 36.91 0 0 0-.91-3.04c-.41-1.05-.79-2.1-1.13-3.15-.1-.44-.31-1.31-.42-1.74-.65-1.33-.97-2.76-1.51-4.1-.29-1.03-.62-2.04-.98-3.03-.54-2.06-1.19-4.09-2.04-6.03-.49-2.42-1.18-4.79-2.07-7.07l-.4-1.77c-.69-1.3-.91-2.77-1.52-4.08-.29-1.03-.61-2.04-.96-3.02-.33-1.02-.66-2.02-1.02-3-.3-1.02-.62-2.02-.95-3.01a66.66 66.66 0 0 1-1.14-3.16l-.4-1.76c-.59-1.37-1.01-2.81-1.63-4.15-.1-.46-.31-1.38-.42-1.84-1.44-4.76-3.06-9.47-4.54-14.21-.1-.44-.31-1.34-.42-1.78-.7-1.3-.91-2.76-1.52-4.07-.28-1.03-.6-2.04-.96-3.02-.32-1.02-.66-2.02-1.01-3.01-.31-1.01-.65-2.01-1-2.99-.32-1.02-.65-2.02-1.01-3-.3-1.02-.62-2.02-.96-3.01-.39-1.05-.76-2.11-1.12-3.15-.1-.44-.31-1.32-.41-1.76-.66-1.32-.97-2.75-1.53-4.08-.79-3.38-1.99-6.64-2.99-9.95-.3-1.04-.62-2.06-.98-3.05-.32-1.02-.65-2.02-1-3-.31-1.02-.65-2.02-1-3-.32-1.02-.65-2.02-1.01-3-.3-1.03-.62-2.04-.95-3.04-.41-1.04-.79-2.08-1.14-3.12l-.4-1.75c-.65-1.32-.98-2.74-1.53-4.08-1.38-5.41-3.55-10.59-4.96-15.99-.32-1.02-.64-2.03-.96-3.04-.43-1.04-.82-2.09-1.15-3.15-.1-.43-.31-1.28-.41-1.71-.68-1.31-.9-2.78-1.52-4.1-.29-1.03-.61-2.04-.97-3.02-.31-1.02-.65-2.02-1-3.01-.32-1.01-.65-2.01-1-3-.31-1.01-.64-2.01-1-2.99-.31-1.05-.65-2.08-1.04-3.09-.97-4.45-2.89-8.63-4.04-13.04-.11-.45-.33-1.33-.43-1.78-.69-1.3-.92-2.76-1.52-4.07-.29-1.03-.61-2.03-.97-3.02-.32-1.01-.65-2.01-1-3-.32-1.01-.65-2.02-1-3.01-.32-1.01-.65-2.02-1-3.01-.31-1.01-.63-2.01-.96-2.99-.42-1.04-.79-2.09-1.13-3.14-.11-.45-.32-1.35-.42-1.8-1.51-4.31-2.97-8.64-4.08-13.06-.64-1.27-.81-2.71-1.45-3.96-.29-1.03-.61-2.04-.95-3.03-.32-1.01-.65-2-1.01-2.98-.37-1.56-1.13-2.99-1.56-4.52-94.26-.01-188.52 0-282.79 0l.03-.46c3.11-1.67 5.66-4.18 8.71-5.94 1.23-1.09 2.45-2.23 3.93-2.98 2.35-1.67 4.59-3.52 7.05-5.01 1.25-1.09 2.5-2.19 3.97-2.98 2.26-1.78 4.56-3.54 7.03-5.02 1.25-1.09 2.5-2.2 3.97-2.98 2.22-1.82 4.54-3.53 7.01-5 2.22-1.83 4.55-3.55 7.03-5.01 1.25-1.11 2.48-2.27 4-3.02 1.26-1.1 2.53-2.22 4.03-2.99.38-.3 1.16-.9 1.54-1.2 1.97-1.02 3.45-2.74 5.39-3.8 1.8-1.54 3.82-2.8 5.71-4.23 1.47-.77 2.68-1.9 3.93-2.98 4.83-3.14 9.33-6.76 14.08-10.02 1.9-1.1 3.39-2.75 5.33-3.78 1.24-1.1 2.47-2.23 3.96-2.99 2.23-1.8 4.54-3.53 7.01-4.98 3.53-2.85 7.17-5.6 11.02-8.01 1.23-1.1 2.46-2.22 3.94-2.99 2.4-1.6 4.58-3.51 7.04-5.02 1.75-1.61 3.79-2.84 5.69-4.25 1.45-.8 2.69-1.9 3.94-2.96 2.46-1.52 4.69-3.37 7.05-5.02 1.91-1.07 3.42-2.71 5.33-3.77 1.24-1.08 2.48-2.18 3.9-3.01 1.01-.71 2.05-1.38 3.11-1.99 1.23-1.1 2.47-2.2 3.93-2.98 1.87-1.46 3.89-2.71 5.71-4.24 1.91-1.05 3.39-2.71 5.3-3.77 2.32-1.72 4.59-3.52 7.06-5.01 1.24-1.09 2.46-2.22 3.93-2.99 2.41-1.59 4.59-3.5 7.05-5.01 3.52-2.84 7.22-5.48 10.99-7.99 3.58-2.79 7.27-5.47 11.03-8.02 1.23-1.08 2.46-2.2 3.93-2.97 2.4-1.6 4.59-3.49 7.04-5.01 2.55-2.08 5.23-4.01 8.05-5.72-.63-2.18-1.19-4.37-1.95-6.5-.53-1.28-.98-2.59-1.47-3.88-.29-1.04-.63-2.06-1.01-3.07-.57-2.33-1.2-4.65-1.96-6.93-.33-1-.67-2-1.03-2.98-.3-1.03-.63-2.04-.97-3.04-.32-1.02-.65-2.02-1.01-3-.31-1.02-.65-2.02-1-3-.31-1.02-.64-2.02-1-3.01-.31-1.01-.65-2.01-1-2.99-.32-1.02-.65-2.02-.99-3.01-.32-1.01-.66-2.02-1.02-3-.52-2.07-1.19-4.09-2.01-6.06-.83-3.33-2.05-6.55-2.97-9.85-.35-1.01-.7-2.01-1.05-3.01-.36-1.08-.71-2.17-1.04-3.25-.11-.43-.32-1.28-.43-1.7-.66-1.32-.91-2.78-1.53-4.1-.28-1.03-.59-2.03-.95-3.03-.32-1.01-.66-2.01-1.01-3-.31-1.02-.64-2.02-1-3.01a98.65 98.65 0 0 0-.98-3.05c-.32-.99-.67-1.97-1.04-2.94-1.17-4.36-2.84-8.57-3.99-12.94-.3-1.03-.63-2.05-.98-3.05-.33-1.01-.66-2.01-1.01-3.01-.31-1.01-.65-2.01-1-2.99a58.65 58.65 0 0 0-1.01-3c-.3-1.01-.63-2.01-.98-3-.33-1.01-.66-2.01-1.01-3.01-.31-1.01-.63-2.02-.97-3.02-.38-1.04-.76-2.08-1.12-3.11-.11-.45-.33-1.35-.44-1.79-.78-2.01-1.23-4.12-2.03-6.11-.44-.98-.81-1.98-1.12-2.99-.55-1.63-.75-3.35-1.28-4.98-.32-1.01-.67-2-1.05-2.99-.31-1.01-.64-2.01-.99-3-.31-1.02-.64-2.02-1.01-3-.3-1.01-.63-2.02-.99-3-.31-1.02-.64-2.02-1-3.01-.32-1.01-.65-2.01-1-2.99-.31-1.01-.64-2.01-.99-3-.34-1.07-.71-2.14-1.09-3.19-.1-.45-.31-1.35-.41-1.79-.58-1.32-1-2.69-1.55-4.01-1.11-4.37-2.6-8.65-4.02-12.93-.29-1.03-.6-2.04-.94-3.04-.32-1.03-.65-2.04-1-3.04-.31-1.02-.64-2.02-1-3.01-.31-1.01-.64-2.01-1-2.99-.31-1.02-.64-2.02-1-3.01-.32-1.01-.65-2-1-2.99-.31-1.01-.65-2.02-1.02-3-1.81-6.37-4.15-12.57-6.02-18.91-.32-1.07-.69-2.11-1.11-3.14-.08-.46-.26-1.4-.34-1.86-.7-1.29-.95-2.75-1.55-4.07-.27-1.02-.58-2.04-.93-3.03-.39-1.05-.76-2.1-1.11-3.16-.12-.42-.35-1.26-.47-1.67-.35-1.07-.72-2.13-1.09-3.18-.55-1.3-.83-2.68-1.37-3.97-.31-1.08-.67-2.14-1.06-3.18-.12-.44-.35-1.33-.47-1.77-1.06-2.59-1.59-5.36-2.46-8.01-.32-1.03-.65-2.04-.99-3.05-.31-.99-.65-1.97-.99-2.94-.48-1.27-1.11-2.49-1.43-3.81z"/></g></svg>