<svg height="400pt" viewBox="0 0 400 400" width="400pt" xmlns="http://www.w3.org/2000/svg"><path d="m192.08 6.11c12.85-2.2 25.84-4.14 38.92-3.87 8.97.14 18-.43 26.92.9 12.35 1.53 24.38 5.14 35.69 10.27 4.42 2.07 9.03 4.09 12.42 7.75-13.99-7.89-29.14-13.96-45.1-16.22-19.83-3.49-40.09-1.78-59.89.91-10.88 1.9-21.85 3.51-32.47 6.61-6.46 1.92-13.76 2.38-19.07 6.98-7.38 6.07-11.33 15.03-15.79 23.24-5.4 9.93-9.57 20.44-14.35 30.67-7.52 15.67-13.76 31.89-20.2 48.02-6.73-2.59-13.76-.05-20.44 1.36-8.75 2.18-18.03 3.25-25.89 8.01-6.38 3.74-12.45 8.94-15.06 16.06-2.51 7.25-.31 15.34 3.99 21.45 4.14 6.11 9.69 11.06 15.53 15.5 5.22 3.89 7.07 10.86 12.84 14.17-6.74-.97-8.1-8.53-12.74-12.31-6.97-6.01-14.41-12.01-18.8-20.27-2.91-5.2-2.68-11.41-2.19-17.16.51-5.27 4.42-9.25 8.01-12.77 5.76-5.67 13.29-9.32 21.17-10.93 8.8-1.8 17.43-4.5 26.36-5.65 2.28-.33 4.58.02 6.83.43 2.89-8.13 6.55-15.96 9.49-24.08 2.61-7.39 6.45-14.24 9.62-21.39 6.99-15.91 13.87-31.98 23.28-46.65 2.92-4.24 6.11-8.6 10.63-11.24 4.99-2.15 10.48-2.73 15.63-4.4 8.05-2.5 16.31-4.28 24.66-5.39z" fill="#010101" opacity=".37"/><path d="m201.04 5.85c19.8-2.69 40.06-4.4 59.89-.91 15.96 2.26 31.11 8.33 45.1 16.22 4.77 2.6 8.48 6.7 13.08 9.56 6.59 3.95 11.46 9.99 16.92 15.26 4.87 4.82 9.75 9.69 13.51 15.47 3.66 5.59 9.07 10.54 9.89 17.5.43 4.58 3.76 8.03 5.2 12.26 2.22 5.66 1.99 11.83 2.66 17.77.36 11.87-.23 23.83-2.56 35.48-.25 6.86-2.4 13.76-.84 20.59 1.03 6.62 6.57 11.95 5.67 18.98.51 6.38-5.03 10.52-9.41 14.11-3.74 3.25-9.22 4.01-12.33 8.01-1.17 4.53.61 9.22 1.34 13.71 1.42 5.06 1.19 10.38 2.42 15.47 1.43 5.78.87 11.78 1.55 17.66.26 11.59 1.39 23.72-3.42 34.64-2.87 5.9-5.02 12.55-10.23 16.88-1.61 1.36-3.31 3.03-5.55 3.03-4.99.36-9.99.52-14.98.7-3.59-.3-5.7 3.25-8.96 4.04-5.06 1.46-9.5 4.38-14.27 6.52-2.65 1.28-5.42 2.39-7.78 4.19-10.54 9.06-19.82 19.47-29.81 29.1l-2.37 1.95c.36-1.47.72-2.93 1.14-4.38 1.23-1.19 2.47-2.36 3.71-3.55 1.76-1.69 3.49-3.42 5.29-5.07 5.07-4.38 9.89-9.06 14.08-14.3 2.62-2.97 5.46-5.86 8.99-7.73 7.17-3.88 14.54-7.35 22.14-10.28 7.14-4.68 15.96-1.88 23.86-3.55.71-.65 1.4-1.31 2.07-1.99 4.93-4.71 6.57-11.46 8.86-17.62 5.46-7.58 5.55-17.83 3.92-26.67-3-8.8-1.53-18.22-3.2-27.24-1.14-7.55-3.41-15.04-2.93-22.74.2-3.44 1.99-6.49 3.9-9.26.34-.17 1.04-.51 1.39-.67 6.07-2.32 12.29-5.42 16.14-10.85 2.34-3.52.1-7.7-.88-11.29-1.33-4.2-3.08-8.24-4.82-12.28-.14-6.85 1.63-13.5 2.37-20.26 1.86-16.45 4.83-33.41.39-49.72-1.21-4.87-3.63-9.38-6.81-13.24.72-3.22.38-6.65-1.86-9.21-5.57-7.3-10.46-15.14-16.98-21.66-5.99-5.95-11.61-12.37-18.48-17.35-7.53-6.85-16.31-12.23-25.41-16.73-14.1-6.24-29.32-9.9-44.69-11-28.66-1.52-57.27 3.29-84.88 10.63-3.64 1.02-7.96 1.35-10.39 4.64-.39.43-1.17 1.3-1.56 1.74-2.41 1.01-4.45 2.7-5.69 5.02-7.85 12.9-14.61 26.45-20.54 40.34-6.78 14.49-13.25 29.15-19.03 44.07-2.5 5-4.73 10.12-7 15.22-1.09-.42-2.18-.83-3.27-1.25-.09-.8-.26-2.41-.35-3.21-4.24-.1-8.31 1.33-12.46 1.97-10.9 2.36-22.43 4.06-31.87 10.43-5.14 3.25-9.11 8.29-11.09 14.02-2.11 9.08 3.25 17.61 9.18 23.99 4.55 5.26 10.92 8.43 15.62 13.54 2.52 2.64 5.92 4.06 9.29 5.27-1.69-.03-3.38.02-5.07.07 5.38 3.65 11.34 6.53 15.96 11.21-2.52 12.13-8.66 23.32-9.58 35.79l2.71.2c-1.42.84-2.87 1.64-4.3 2.46.5 6.38-1.8 12.78-.48 19.08 2.36 7.36.05 15.31 2.66 22.58 1.3 4.07 3.27 7.9 5.63 11.46-.2.83-.41 1.67-.62 2.51-2.06 5.95 1.49 12.13 6.1 15.77-.46-.09-1.38-.26-1.84-.35 1.16 1.89 2.38 3.75 3.62 5.6-.6.99-1.2 1.99-1.79 2.99-2.88-3.47-6.03-6.84-7.96-10.96-2.23-5.14-.83-10.87-1.93-16.22-1.54-4.11-4.04-7.84-4.93-12.18-1.14-5.7.1-11.59-1.02-17.28-2.1-7.67-1.45-15.73-1.29-23.58 3.12-12.48 6.07-25.06 10.73-37.09-3.28-2.29-6.87-4.06-10.38-5.96-5.77-3.31-7.62-10.28-12.84-14.17-5.84-4.44-11.39-9.39-15.53-15.5-4.3-6.11-6.5-14.2-3.99-21.45 2.61-7.12 8.68-12.32 15.06-16.06 7.86-4.76 17.14-5.83 25.89-8.01 6.68-1.41 13.71-3.95 20.44-1.36 6.44-16.13 12.68-32.35 20.2-48.02 4.78-10.23 8.95-20.74 14.35-30.67 4.46-8.21 8.41-17.17 15.79-23.24 5.31-4.6 12.61-5.06 19.07-6.98 10.62-3.1 21.59-4.71 32.47-6.61z" fill="#0b0b0a" opacity=".77"/><path d="m163.07 16.03c27.61-7.34 56.22-12.15 84.88-10.63 15.37 1.1 30.59 4.76 44.69 11 9.1 4.5 17.88 9.88 25.41 16.73-4.05-2.46-8.24-4.69-12.22-7.25-10.46-8.26-23.34-12.56-36.09-15.81-8.12-2.15-16.53-2.67-24.82-3.74-13.21-.78-26.37 1.36-39.52 2.19-12.15 2.03-24.43 3.81-36.23 7.45-5.13.84-10.07 2.44-14.72 4.76-.44-.01-1.33-.04-1.77-.06 2.43-3.29 6.75-3.62 10.39-4.64z" fill="#888a53" opacity=".82"/><path d="m205.4 8.52c13.15-.83 26.31-2.97 39.52-2.19 8.29 1.07 16.7 1.59 24.82 3.74 12.75 3.25 25.63 7.55 36.09 15.81 1.68 1.69 3.29 3.45 4.91 5.2-1.6-.03-3.2-.06-4.8-.15-7.02-1.85-13.91-4.26-21.12-5.36-3.83-.57-7.63-1.37-11.4-2.25 7.19-2.67 14.49.84 21.82.09-9.03-6.9-20.5-8.25-31.04-11.55-5.58-1.65-11.44-1.62-17.2-1.89-21.41-1.3-42.8 1.64-63.88 5.17-5.73.86-11.27 2.98-15.71 6.78 4.38 3.67 9.06 7.17 14.48 9.14 4.05 1.58 8.05-1.01 11.83-2.22 16.21-5.23 33.07-9.98 50.29-8.92 9.34.63 18.84-.53 28.06 1.57-1.75.49-3.5.99-5.27 1.39-8.05-.42-16.12-.54-24.17-.11-17.74.61-35.12 4.96-51.76 10.98-3.44.99-7.37 3.18-10.84 1.13-5.54-2.95-10.71-6.55-16.25-9.5-.19-1.68-.4-3.37-.6-5.06 1.99-1.46 3.95-2.96 5.99-4.35 11.8-3.64 24.08-5.42 36.23-7.45z" fill="#faf95a"/><path d="m183.12 15.14c21.08-3.53 42.47-6.47 63.88-5.17 5.76.27 11.62.24 17.2 1.89 10.54 3.3 22.01 4.65 31.04 11.55-7.33.75-14.63-2.76-21.82-.09-2.21-.11-4.42-.29-6.62-.44 1.77-.4 3.52-.9 5.27-1.39-9.22-2.1-18.72-.94-28.06-1.57-17.22-1.06-34.08 3.69-50.29 8.92-3.78 1.21-7.78 3.8-11.83 2.22-5.42-1.97-10.1-5.47-14.48-9.14 4.44-3.8 9.98-5.92 15.71-6.78z" fill="#f9f819"/><path d="m154.45 20.73c4.65-2.32 9.59-3.92 14.72-4.76-2.04 1.39-4 2.89-5.99 4.35.2 1.69.41 3.38.6 5.06-3.07-1.62-6.15-3.25-9.33-4.65z" fill="#fff997"/><path d="m152.68 20.67c.44.02 1.33.05 1.77.06 3.18 1.4 6.26 3.03 9.33 4.65 5.54 2.95 10.71 6.55 16.25 9.5 3.47 2.05 7.4-.14 10.84-1.13 16.64-6.02 34.02-10.37 51.76-10.98 5.68 1.79 11.65 1.6 17.53 1.76-8.19.19-16.52-.38-24.43 2.16-15.82 1.64-31.25 5.79-46.23 11.03-2.11.89-4.75 1.68-5.52 4.12-1.76 4.28-2.55 8.88-4.03 13.25-4.67 13.85-9.2 27.75-13.3 41.77-2.02 7.86-5.37 15.28-7.46 23.12-.63 2.37-1.41 4.7-2.28 6.99l-.6.64c-.56-1.65-1.11-3.3-1.58-4.97 1.91-8.09 4.7-15.94 7.29-23.84 3.32-8.97 5.56-18.29 8.64-27.35.78-2.42 1.6-4.83 2.41-7.25 2.6-8.25 5.53-16.4 7.87-24.73-5.87-3.46-11.88-6.66-17.91-9.84-1.03-.53-2.07-1.04-3.09-1.59-3.03-1.74-6-3.58-8.82-5.63.39-.44 1.17-1.31 1.56-1.74z" fill="#4e4600"/><path d="m145.43 27.43c1.24-2.32 3.28-4.01 5.69-5.02 2.82 2.05 5.79 3.89 8.82 5.63-2.8.71-5.63-.09-8.44-.21-4.91 2.93-8.05 8.1-10.61 13.08-9.12 18.24-17.88 36.67-25.54 55.58-3.19 6.37-5.85 12.96-8.26 19.66-3.5 7.99-6.34 16.24-8.88 24.58 6.82 8.27 16.52 13.11 25.49 18.61 3.9 2.39 8.07 4.3 12.32 5.98 2.44-5.7 5.22-11.28 7.22-17.16 1.52-4.43 2.1-9.1 3.52-13.56 1.27-4.14 3.23-8.02 4.71-12.09 2.35-6.39 3.75-13.08 5.52-19.65 1.58-6.06 5.04-11.42 6.55-17.5 1.38-5.53 2.91-11.02 5.04-16.32.52.6 1.56 1.81 2.08 2.41-3.08 9.06-5.32 18.38-8.64 27.35-2.59 7.9-5.38 15.75-7.29 23.84-1.76 6.98-4.1 13.79-6.5 20.57-3.2 9.2-5.71 18.63-9.22 27.73-5.1-1.96-9.91-4.58-14.61-7.33-10.47-6.08-20.81-12.56-29.78-20.75 2.15-10.91 8.76-20.22 11.24-31.02 5.78-14.92 12.25-29.58 19.03-44.07 5.93-13.89 12.69-27.44 20.54-40.34z" fill="#f5f470"/><path d="m242.63 22.77c8.05-.43 16.12-.31 24.17.11 2.2.15 4.41.33 6.62.44 3.77.88 7.57 1.68 11.4 2.25 7.21 1.1 14.1 3.51 21.12 5.36 4.89 1.65 9.56 3.88 14.13 6.26.54 1.02 1.09 2.03 1.64 3.04-6.92-1.73-13.37-4.9-20.26-6.76-5.7-1.58-11.36-3.36-17.22-4.24-2.94-.54-5.87-1.16-8.84-1.42-10.06-.91-20.16-1.63-30.26-1.03-3.14.02-6.27-.1-9.4-.09 7.91-2.54 16.24-1.97 24.43-2.16-5.88-.16-11.85.03-17.53-1.76z" fill="#878300"/><path d="m305.83 25.88c3.98 2.56 8.17 4.79 12.22 7.25 6.87 4.98 12.49 11.4 18.48 17.35 6.52 6.52 11.41 14.36 16.98 21.66l-1.13 2.06c-3.72-3.26-7.89-5.94-12.27-8.22.64-2.25 2.02-4.66 1.08-7.03-1.49-3.87-4.59-6.78-7.45-9.67-4.36-4.23-8.21-9.19-13.67-12.09-4.57-2.38-9.24-4.61-14.13-6.26 1.6.09 3.2.12 4.8.15-1.62-1.75-3.23-3.51-4.91-5.2z" fill="#f6fa8a"/><path d="m151.5 27.83c2.81.12 5.64.92 8.44.21 1.02.55 2.06 1.06 3.09 1.59-.76.18-2.27.52-3.03.69 2.95 3.24 6.87 5.19 10.8 6.95 4.07 1.79 5.75 6.91 4.43 10.99-1.58 5.39-3.35 10.73-4.22 16.3l2.06-.36c-.81 2.42-1.63 4.83-2.41 7.25-.52-.6-1.56-1.81-2.08-2.41-2.13 5.3-3.66 10.79-5.04 16.32-1.51 6.08-4.97 11.44-6.55 17.5-1.77 6.57-3.17 13.26-5.52 19.65-1.48 4.07-3.44 7.95-4.71 12.09-1.42 4.46-2 9.13-3.52 13.56-2 5.88-4.78 11.46-7.22 17.16-4.25-1.68-8.42-3.59-12.32-5.98-8.97-5.5-18.67-10.34-25.49-18.61 2.54-8.34 5.38-16.59 8.88-24.58 2.41-6.7 5.07-13.29 8.26-19.66 7.66-18.91 16.42-37.34 25.54-55.58 2.56-4.98 5.7-10.15 10.61-13.08m-11.35 19.3c-4.04 4.69-4.39 11.2-7.75 16.28-2.09 3.24-3.33 6.91-4.35 10.61-1.69 6.11-5.5 11.29-7.87 17.12-2.24 5.34-4.57 10.65-7.28 15.77-2.41 4.45-1.98 9.88-4.71 14.2-2.53 4.28-4.71 8.9-5.2 13.91-.16 2.29-.63 5.04 1.13 6.87 1.97 2.33 3.75 4.84 6 6.9 7.57 5.44 16.46 8.68 23.89 14.34 1.39-2.2 2.3-4.64 3-7.13.95-3.47 3.18-6.36 4.45-9.69 1.72-4.13 2.4-8.57 2.99-12.97.48-4.66 4.4-8 5.21-12.56.75-4.03.75-8.22 2.18-12.11 2.35-6.28 3.31-13.1 7.04-18.81 3-4.77 3.34-10.48 3.82-15.93.18-4.87 3.93-8.48 5.02-13.08.92-3.51 2.48-6.77 4.09-10 1.66-3.11 1.32-7.12-.7-9.97-3.77-2.4-8.28-3.58-11.6-6.73-2.75-.64-5.47-1.53-8.3-1.8-6.16 2.63-7.16 10.02-11.06 14.78z" fill="#f4f534"/><path d="m189.5 37.72c14.98-5.24 30.41-9.39 46.23-11.03 3.13-.01 6.26.11 9.4.09-1.51 1.27-3.03 2.55-4.64 3.69-5.65-.83-10.7 2.21-15.09 5.37-.33.24-1 .71-1.33.95-.63-1.54-1.25-3.08-1.86-4.62-5.63.63-11.02 2.38-16.42 3.97-5.94 1.4-11.81 3.42-16.93 6.81-3.44 2.13-3.7 6.6-4.88 10.09-2.67 10.87-8.12 21.06-8.96 32.34 5.06-4.53 8.21-10.65 12.48-15.84 4.22-5.57 8.23-11.31 12.69-16.68 1.57-.67 3.26-.41 4.85.03-13.74 14.99-24.46 32.36-34.79 49.78-1.22-1.92-2.42-3.86-3.6-5.81 4.1-14.02 8.63-27.92 13.3-41.77 1.48-4.37 2.27-8.97 4.03-13.25.77-2.44 3.41-3.23 5.52-4.12z" fill="#e4e362"/><path d="m245.13 26.78c10.1-.6 20.2.12 30.26 1.03-5.08.91-10.15 2.11-15.35 2-4.91.18-10.2-.83-14.73 1.57-4.47 2.38-8.67 5.21-13 7.82-4.27 2.38-7.72 5.97-9.75 10.44 10.29-1.37 20.69-1.68 30.99-2.99 10.8-.73 21.69-.86 32.47.28 7.05.72 14.2 1.08 21.07 2.97 6.43 1.74 13.02 2.96 19.68 3.27 1.74.14 3.23-.92 4.75-1.61-2.29-2.98-4.27-6.74-8.03-8.04-4.09-1.41-8.43-1.99-12.46-3.6-10.21-3.97-20.74-7.26-31.64-8.66 1.6-.7 3.21-1.4 4.84-2.03 5.86.88 11.52 2.66 17.22 4.24 6.89 1.86 13.34 5.03 20.26 6.76-.55-1.01-1.1-2.02-1.64-3.04 5.46 2.9 9.31 7.86 13.67 12.09 2.86 2.89 5.96 5.8 7.45 9.67.94 2.37-.44 4.78-1.08 7.03-1.32-.73-2.64-1.44-3.95-2.17.03-.72.09-1.45.15-2.17-18.2-7.46-37.82-10.35-57.3-11.99-9.1-.39-18.26-.45-27.29.95-10.66.72-21.28 2.09-31.66 4.65-2.26.29-4.54.22-6.8.14-3.06 3.87-6.33 7.57-9.91 10.96-7.29 6.91-10.6 16.69-16.49 24.64-4.78 6.44-9.15 13.23-12.21 20.66-1.94 4.85-4.33 9.5-7 13.98-7.61 13.19-13.19 27.4-18.34 41.68-.8 1.45.04 3.21 1.52 3.79 4.23 1.82 8.82 2.52 13.22 3.83 7.76 2.29 15.98 2.2 23.74 4.49 4.4 1.06 10.11 2.99 13.66-.97 4.73-6.35 3.81-15.57 9.75-21.25 3.9-3.78 9.84-3.29 14.67-1.96 10.71 2.92 22.69.67 32.69 6.17-2.25.38-4.5.78-6.76 1-12.36-1.07-24.6-3.23-36.96-4.11-4.05 8.98-7.39 18.25-11.29 27.3-6.19-1.11-12.45-1.72-18.64-2.84-13.95-2.31-27.55-6.27-41.39-9.13.01-1.76-.13-3.56.43-5.25 5.69-16.12 12.14-32 20.58-46.89 12.25-22.69 24.56-45.76 41.83-65.13 6.57-7.17 13.8-13.88 22.03-19.11 4.09-2.14 8.33-4.06 12.1-6.78 1.61-1.14 3.13-2.42 4.64-3.69z" fill="#f7f759"/><path d="m260.04 29.81c5.2.11 10.27-1.09 15.35-2 2.97.26 5.9.88 8.84 1.42-1.63.63-3.24 1.33-4.84 2.03 10.9 1.4 21.43 4.69 31.64 8.66 4.03 1.61 8.37 2.19 12.46 3.6 3.76 1.3 5.74 5.06 8.03 8.04-1.52.69-3.01 1.75-4.75 1.61-6.66-.31-13.25-1.53-19.68-3.27-6.87-1.89-14.02-2.25-21.07-2.97-10.78-1.14-21.67-1.01-32.47-.28-10.3 1.31-20.7 1.62-30.99 2.99 2.03-4.47 5.48-8.06 9.75-10.44 4.33-2.61 8.53-5.44 13-7.82 4.53-2.4 9.82-1.39 14.73-1.57z" fill="#f9f917"/><path d="m160 30.32c.76-.17 2.27-.51 3.03-.69 6.03 3.18 12.04 6.38 17.91 9.84-2.34 8.33-5.27 16.48-7.87 24.73l-2.06.36c.87-5.57 2.64-10.91 4.22-16.3 1.32-4.08-.36-9.2-4.43-10.99-3.93-1.76-7.85-3.71-10.8-6.95z" fill="#f9fa75"/><path d="m225.4 35.84c4.39-3.16 9.44-6.2 15.09-5.37-3.77 2.72-8.01 4.64-12.1 6.78-.75-.35-2.24-1.06-2.99-1.41z" fill="#696406"/><path d="m140.15 47.13c3.9-4.76 4.9-12.15 11.06-14.78 2.83.27 5.55 1.16 8.3 1.8 3.32 3.15 7.83 4.33 11.6 6.73 2.02 2.85 2.36 6.86.7 9.97-1.61 3.23-3.17 6.49-4.09 10-1.09 4.6-4.84 8.21-5.02 13.08-.48 5.45-.82 11.16-3.82 15.93-3.73 5.71-4.69 12.53-7.04 18.81-1.43 3.89-1.43 8.08-2.18 12.11-.81 4.56-4.73 7.9-5.21 12.56-.59 4.4-1.27 8.84-2.99 12.97-1.27 3.33-3.5 6.22-4.45 9.69-.7 2.49-1.61 4.93-3 7.13-7.43-5.66-16.32-8.9-23.89-14.34-2.25-2.06-4.03-4.57-6-6.9-1.76-1.83-1.29-4.58-1.13-6.87.49-5.01 2.67-9.63 5.2-13.91 2.73-4.32 2.3-9.75 4.71-14.2 2.71-5.12 5.04-10.43 7.28-15.77 2.37-5.83 6.18-11.01 7.87-17.12 1.02-3.7 2.26-7.37 4.35-10.61 3.36-5.08 3.71-11.59 7.75-16.28m-.38 4.14c-2.94 5.85-1.08 12.26-.9 18.42-2.43 2.71-5.13 5.26-6.46 8.75-1.49 4-6.34 5.08-8.12 8.85-1.19 2.3-2.22 4.69-2.94 7.18-.76 2.57.39 5.2.09 7.81-1.44 1.04-3.06 1.8-4.61 2.65 1.75 1.63 4.55 2.54 5.28 5-1.51 3.48-5.64 3.18-8.49 1.72-1.55 6.61 1.64 13.31-.17 19.85-2.07.33-4.03-.48-5.92-1.19-.32 3-1.36 6.08-.64 9.08 1.68 1.93 4.14 2.94 6.26 4.31.72 1.33 1.37 2.72 2.34 3.9 2.63.35 5.43-.15 7.93.94 2.24.94 4.35 2.18 6.49 3.32 1.48-1.71 2.78-3.67 4.68-4.94 1.13-.02 2.25.18 3.37.34 1.5-3.71 4.61-7.4 3.38-11.63-1.08-4.25-1.84-8.62-1.16-13 2.46-1.09 5.62-1.64 7.09-4.13.59-4.08-2.36-8.81 1.03-12.19 3.99-4.62 2.57-11.49 6.28-16.23 3.64-4.42 4.05-10.56 3.26-16-1.36-3.29-3.59-6.17-4.53-9.66-2.53-.3-5.19-.21-7.59-1.18-2.96-3.27-1.01-7.94-.59-11.76-.75.35-1.5.71-2.24 1.07-1.04-.43-2.08-.85-3.12-1.28z" fill="#fcfa12"/><path d="m205.79 36.14c5.4-1.59 10.79-3.34 16.42-3.97.61 1.54 1.23 3.08 1.86 4.62a135.424 135.424 0 0 0 -19.03 16.1c-1.59-.44-3.28-.7-4.85-.03 4-4.19 8.25-8.11 12.2-12.35-1.99-1.75-4.19-3.28-6.6-4.37z" fill="#dadc41"/><path d="m224.07 36.79c.33-.24 1-.71 1.33-.95.75.35 2.24 1.06 2.99 1.41-8.23 5.23-15.46 11.94-22.03 19.11-17.27 19.37-29.58 42.44-41.83 65.13-8.44 14.89-14.89 30.77-20.58 46.89-.56 1.69-.42 3.49-.43 5.25-.95.68-1.9 1.36-2.86 2.04-15.61-5.41-29.96-13.99-42.56-24.62-2.54-2.82-5.23-5.6-7.05-8.95-.76-1.25-.15-2.69.18-3.95 1.35-4.15 3.06-8.17 4.36-12.34 1.09.42 2.18.83 3.27 1.25-2.1 4.75-3.86 9.65-5.71 14.51.37.32 1.1.97 1.47 1.29 8.97 8.19 19.31 14.67 29.78 20.75 4.7 2.75 9.51 5.37 14.61 7.33 3.51-9.1 6.02-18.53 9.22-27.73 2.4-6.78 4.74-13.59 6.5-20.57.47 1.67 1.02 3.32 1.58 4.97l.6-.64c.28-.28.82-.84 1.1-1.12 4.48-7.5 8.03-15.52 12.24-23.18 10.33-17.42 21.05-34.79 34.79-49.78 5.84-5.94 12.2-11.33 19.03-16.1z" fill="#2a2600"/><path d="m188.86 42.95c5.12-3.39 10.99-5.41 16.93-6.81 2.41 1.09 4.61 2.62 6.6 4.37-3.95 4.24-8.2 8.16-12.2 12.35-4.46 5.37-8.47 11.11-12.69 16.68-4.27 5.19-7.42 11.31-12.48 15.84.84-11.28 6.29-21.47 8.96-32.34 1.18-3.49 1.44-7.96 4.88-10.09m2.16 4.06c-.78-1.02-1.56-2.04-2.34-3.05-.88 3.68-.56 7.45.74 10.99-1.45 1.81-2.43 3.91-1.63 6.24 1.17-1.38 2.31-2.78 3.44-4.18 1.01.14 2.03.27 3.05.41.39-1.25.4-2.8 1.56-3.65 3.19-2.51 6.53-4.85 9.41-7.75-1.9-2.1-3.89-4.13-6.01-6-2.9 2.14-5.67 4.44-8.22 6.99z" fill="#d9da26"/><path d="m191.02 47.01c2.55-2.55 5.32-4.85 8.22-6.99 2.12 1.87 4.11 3.9 6.01 6-2.88 2.9-6.22 5.24-9.41 7.75-1.16.85-1.17 2.4-1.56 3.65-1.02-.14-2.04-.27-3.05-.41-1.13 1.4-2.27 2.8-3.44 4.18-.8-2.33.18-4.43 1.63-6.24-1.3-3.54-1.62-7.31-.74-10.99.78 1.01 1.56 2.03 2.34 3.05z" fill="#dadf0c"/><path d="m251.72 50.6c9.03-1.4 18.19-1.34 27.29-.95 19.48 1.64 39.1 4.53 57.3 11.99-.06.72-.12 1.45-.15 2.17 1.31.73 2.63 1.44 3.95 2.17 4.38 2.28 8.55 4.96 12.27 8.22l1.13-2.06c2.24 2.56 2.58 5.99 1.86 9.21-4.89-4.45-9.98-8.9-16.11-11.55-4.28-1.87-8.61-3.65-13.11-4.9-5.36-1.65-10.85-2.83-16.39-3.68-3.54-.64-7.15-.67-10.72-1.01-12.44-1.56-24.99-.64-37.49-.73 3.4-.97 6.89-1.77 10.45-1.7 8.7.06 17.41.21 26.12-.13-1.12-.59-2.24-1.19-3.36-1.75 1.18-.39 2.35-.82 3.52-1.26-12.13-1.11-24.34-2.16-36.52-1.71 2.45-.46 4.88-1.08 7.31-1.67-5.78-.25-11.56-.57-17.35-.66z" fill="#7d780d"/><path d="m139.77 51.27c1.04.43 2.08.85 3.12 1.28.74-.36 1.49-.72 2.24-1.07-.42 3.82-2.37 8.49.59 11.76 2.4.97 5.06.88 7.59 1.18.94 3.49 3.17 6.37 4.53 9.66.79 5.44.38 11.58-3.26 16-3.71 4.74-2.29 11.61-6.28 16.23-3.39 3.38-.44 8.11-1.03 12.19-1.47 2.49-4.63 3.04-7.09 4.13-.68 4.38.08 8.75 1.16 13 1.23 4.23-1.88 7.92-3.38 11.63-1.12-.16-2.24-.36-3.37-.34-1.9 1.27-3.2 3.23-4.68 4.94-2.14-1.14-4.25-2.38-6.49-3.32-2.5-1.09-5.3-.59-7.93-.94-.97-1.18-1.62-2.57-2.34-3.9-2.12-1.37-4.58-2.38-6.26-4.31-.72-3 .32-6.08.64-9.08 1.89.71 3.85 1.52 5.92 1.19 1.81-6.54-1.38-13.24.17-19.85 2.85 1.46 6.98 1.76 8.49-1.72-.73-2.46-3.53-3.37-5.28-5 1.55-.85 3.17-1.61 4.61-2.65.3-2.61-.85-5.24-.09-7.81.72-2.49 1.75-4.88 2.94-7.18 1.78-3.77 6.63-4.85 8.12-8.85 1.33-3.49 4.03-6.04 6.46-8.75-.18-6.16-2.04-12.57.9-18.42z" fill="#fdfd05"/><path d="m220.06 55.25c10.38-2.56 21-3.93 31.66-4.65 5.79.09 11.57.41 17.35.66-2.43.59-4.86 1.21-7.31 1.67-3.02.39-6.05.72-9.07 1.06-8.96 1.02-17.87 2.37-26.82 3.46-.44.04-1.31.11-1.75.15-1.17.06-2.33.1-3.5.14z" fill="#6a6400"/><path d="m252.69 53.99c3.02-.34 6.05-.67 9.07-1.06 12.18-.45 24.39.6 36.52 1.71-1.17.44-2.34.87-3.52 1.26-9.68-.3-19.36.07-29.03-.17 4.45-.59 8.91-1.14 13.4-1.33-8.81-.15-17.62-.51-26.44-.41z" fill="#ccc86c"/><path d="m225.87 57.45c8.95-1.09 17.86-2.44 26.82-3.46 8.82-.1 17.63.26 26.44.41-4.49.19-8.95.74-13.4 1.33-11.65.81-23.12 2.97-34.59 5.04-1.73-1.16-3.45-2.32-5.27-3.32z" fill="#fff99c"/><path d="m203.35 66.35c3.58-3.39 6.85-7.09 9.91-10.96 2.26.08 4.54.15 6.8-.14l.56 2.49c1.17-.04 2.33-.08 3.5-.14-1.57 1.01-3.06 2.14-4.53 3.3 1.98.34 3.96.69 5.97.9-.06 1.2-.11 2.4-.11 3.6.1 3.62 4.2 3.02 6.77 3.62 5.63.69 10.69 3.76 16.36 4.21 3.11.26 5.01-2.77 7.24-4.42 4.53-4.49 11.22-5.08 17.23-5.68 9.01-.52 17.98.85 26.99.81 7.09-.12 13.7 2.65 20.63 3.64 5.1.65 9.28 3.86 13.85 5.94 2.73 1.24 5.08 3.12 7.35 5.05 2.76 2.34 6.55 3.03 9.25 5.44 2.46 2.67 3.99 6.04 5.6 9.26 4.22 8.37 3.61 18.1 2.86 27.16-.78 3.82-1.88 7.57-2.74 11.37-1.92 3.28-4.11 6.39-6.23 9.54-.28-2.59-.87-5.28-.05-7.83.99-3.11 2.72-5.91 3.91-8.95 1.73-4.3 2.03-8.98 2.78-13.51.39-3.09 1.18-6.32.13-9.36-1.13-3.38-2.78-6.55-4.26-9.77-1.38-2.79-2.76-5.91-5.59-7.52-3.27-1.88-7.2-1.45-10.79-1.08-2.92.4-5.95.58-8.7 1.72-1.44 2.07-2.24 4.51-3.7 6.56-2.15.53-4.38.49-6.57.61.31-2.58-.3-5.7 1.78-7.69 2.18-2.53 5.19-4.75 5.75-8.27.59-2.28-.92-4.62-2.97-5.54-3.23-.58-6.56.45-9.77-.26-1.98-1.13-3.6-2.78-5.58-3.89-2.33.79-4.28 2.68-6.74 2.97-4.08-1.6-7.81-4.42-12.39-4.37-9.24-.29-19.27-1.3-27.52 3.76.03 3.55 1.99 8.43-1.68 10.8-4.29 2.95-10.03 2.97-14.86 1.48-3.98-1.36-5.74-5.69-9.25-7.72-3.52-1.24-7.36-.99-10.9-2.15-1.73-1.68-2.73-3.93-3.91-5.99-6.94 1.43-12.61 5.89-19.06 8.54-1.53 2.15-.97 5.39-2.05 7.86-2.11 4.92-7.16 8.56-7.31 14.29-.66 4.33.63 9.9-3.53 12.83-2.6 2.67-6.41.99-9.51.45-.45 4.24-.82 8.5-1.16 12.75-2.1 1.45-4.71 2.65-5.75 5.14-1.48 3.55-2.05 7.64-4.85 10.5-3.63 3.73-4.9 8.92-7.71 13.19-.84 1.4-1.81 2.74-2.4 4.28.36 2.83 1.95 5.31 3.15 7.85-.97 1.81-1.95 3.61-2.94 5.41 1.29.59 2.49 1.45 3.9 1.73 3.27-.16 6.54-2.11 9.79-.68 6.1 2.28 12.01 5.4 18.64 5.79 3.89.29 9.24 1.48 11.67-2.56 2.52-5.26 1.64-11.55 4.45-16.72 1.01-2.02 3.17-2.98 5.21-3.64 8.52-2.71 17.54-4.81 24.93-10.11 1.72-1.2 3.42-2.45 5.13-3.67 1.13 2.27 2.19 4.58 3.14 6.93-2.61.83-5.21 1.66-7.81 2.48-.15 1.57-.29 3.14-.44 4.72 7.05 1.09 13.83-1.79 20.86-1.53.79 2.39 1.23 5.02 2.78 7.08 2.64 1.76 5.92 2.02 8.97 2.61.05 1.82.38 3.7-.1 5.49-2.15 1.86-4.5 3.54-6.2 5.86 4.78 3.88 8.39 9.69 14.71 11.23-5.88.42-11.82.69-17.49 2.45-.24-.52-.73-1.57-.97-2.1-.21-5.18 1.39-10.15 3.03-14.99.86-2.06.46-4.26.02-6.35-.92 1.45-1.82 2.92-2.71 4.38-.19-1.25-.38-2.51-.55-3.76-1.93-.25-3.85-.47-5.77-.66 2.26-.22 4.51-.62 6.76-1-10-5.5-21.98-3.25-32.69-6.17-4.83-1.33-10.77-1.82-14.67 1.96-5.94 5.68-5.02 14.9-9.75 21.25-3.55 3.96-9.26 2.03-13.66.97-7.76-2.29-15.98-2.2-23.74-4.49-4.4-1.31-8.99-2.01-13.22-3.83-1.48-.58-2.32-2.34-1.52-3.79 5.15-14.28 10.73-28.49 18.34-41.68 2.67-4.48 5.06-9.13 7-13.98 3.06-7.43 7.43-14.22 12.21-20.66 5.89-7.95 9.2-17.73 16.49-24.64z" fill="#faf81d"/><path d="m231.14 60.77c11.47-2.07 22.94-4.23 34.59-5.04 9.67.24 19.35-.13 29.03.17 1.12.56 2.24 1.16 3.36 1.75-8.71.34-17.42.19-26.12.13-3.56-.07-7.05.73-10.45 1.7-7.42 1.32-14.88 2.43-22.33 3.64-2.84.17-5.69.2-8.53.3-.12-.84-.23-1.67-.34-2.5z" fill="#574f01"/><path d="m224.12 57.6c.44-.04 1.31-.11 1.75-.15 1.82 1 3.54 2.16 5.27 3.32l-.79.15c-1.59.32-3.19.65-4.79.88-2.01-.21-3.99-.56-5.97-.9 1.47-1.16 2.96-2.29 4.53-3.3z" fill="#fffc62"/><path d="m239.22 63.12c7.45-1.21 14.91-2.32 22.33-3.64 12.5.09 25.05-.83 37.49.73 3.57.34 7.18.37 10.72 1.01.81.49 1.62 1 2.43 1.52-13.1.86-26.12-1.99-39.21-1.06-7.51.7-14.93 2.18-22.29 3.77-7.17 1.57-14.55 1.19-21.84 1.24.81-.47 1.62-.93 2.45-1.38 2.62-.79 5.25-1.58 7.92-2.19z" fill="#fdfd69"/><path d="m225.56 61.8c1.6-.23 3.2-.56 4.79-.88.11.83.22 1.66.34 2.5 2.84-.1 5.69-.13 8.53-.3-2.67.61-5.3 1.4-7.92 2.19-1.95.08-3.9.08-5.85.09 0-1.2.05-2.4.11-3.6z" fill="#b2ac1b"/><path d="m250.69 65.45c7.36-1.59 14.78-3.07 22.29-3.77 13.09-.93 26.11 1.92 39.21 1.06-.81-.52-1.62-1.03-2.43-1.52 5.54.85 11.03 2.03 16.39 3.68-1.46.11-2.9.26-4.34.42 6.76 3.84 14.69 5.2 21.09 9.72 4.47 3.12 9.35 6.13 12.16 10.97 3.42 5.91 5.4 12.57 6.78 19.23.34 5.62.48 11.26.07 16.88-.58-.42-1.75-1.26-2.33-1.69.75-9.06 1.36-18.79-2.86-27.16-1.61-3.22-3.14-6.59-5.6-9.26-2.7-2.41-6.49-3.1-9.25-5.44-2.27-1.93-4.62-3.81-7.35-5.05-4.57-2.08-8.75-5.29-13.85-5.94-6.93-.99-13.54-3.76-20.63-3.64-9.01.04-17.98-1.33-26.99-.81-6.01.6-12.7 1.19-17.23 5.68-2.23 1.65-4.13 4.68-7.24 4.42-5.67-.45-10.73-3.52-16.36-4.21-2.57-.6-6.67 0-6.77-3.62 1.95-.01 3.9-.01 5.85-.09-.83.45-1.64.91-2.45 1.38 7.29-.05 14.67.33 21.84-1.24z" fill="#f7f838"/><path d="m200.67 73.88c6.45-2.65 12.12-7.11 19.06-8.54 1.18 2.06 2.18 4.31 3.91 5.99 3.54 1.16 7.38.91 10.9 2.15 3.51 2.03 5.27 6.36 9.25 7.72 4.83 1.49 10.57 1.47 14.86-1.48 3.67-2.37 1.71-7.25 1.68-10.8 8.25-5.06 18.28-4.05 27.52-3.76 4.58-.05 8.31 2.77 12.39 4.37 2.46-.29 4.41-2.18 6.74-2.97 1.98 1.11 3.6 2.76 5.58 3.89 3.21.71 6.54-.32 9.77.26 2.05.92 3.56 3.26 2.97 5.54-.56 3.52-3.57 5.74-5.75 8.27-2.08 1.99-1.47 5.11-1.78 7.69 2.19-.12 4.42-.08 6.57-.61 1.46-2.05 2.26-4.49 3.7-6.56 2.75-1.14 5.78-1.32 8.7-1.72 3.59-.37 7.52-.8 10.79 1.08 2.83 1.61 4.21 4.73 5.59 7.52 1.48 3.22 3.13 6.39 4.26 9.77 1.05 3.04.26 6.27-.13 9.36-.75 4.53-1.05 9.21-2.78 13.51-1.19 3.04-2.92 5.84-3.91 8.95-.82 2.55-.23 5.24.05 7.83-2.99 4.37-6.12 8.67-9.61 12.67-2.64 3.02-6.15 5.06-9.14 7.7-.1-.6-.29-1.8-.39-2.4-6.03-1.36-11.88-3.38-17.84-5.03-3.24-.84-7-1.72-10.01.3-5.51 3.26-7.69 9.69-9.64 15.42-1.17 3.12-.62 6.46-.03 9.63-5.76 1.85-11.68 3.27-17.71 3.81-6.32-1.54-9.93-7.35-14.71-11.23 1.7-2.32 4.05-4 6.2-5.86.48-1.79.15-3.67.1-5.49-3.05-.59-6.33-.85-8.97-2.61-1.55-2.06-1.99-4.69-2.78-7.08-7.03-.26-13.81 2.62-20.86 1.53.15-1.58.29-3.15.44-4.72 2.6-.82 5.2-1.65 7.81-2.48-.95-2.35-2.01-4.66-3.14-6.93-1.71 1.22-3.41 2.47-5.13 3.67-7.39 5.3-16.41 7.4-24.93 10.11-2.04.66-4.2 1.62-5.21 3.64-2.81 5.17-1.93 11.46-4.45 16.72-2.43 4.04-7.78 2.85-11.67 2.56-6.63-.39-12.54-3.51-18.64-5.79-3.25-1.43-6.52.52-9.79.68-1.41-.28-2.61-1.14-3.9-1.73.99-1.8 1.97-3.6 2.94-5.41-1.2-2.54-2.79-5.02-3.15-7.85.59-1.54 1.56-2.88 2.4-4.28 2.81-4.27 4.08-9.46 7.71-13.19 2.8-2.86 3.37-6.95 4.85-10.5 1.04-2.49 3.65-3.69 5.75-5.14.34-4.25.71-8.51 1.16-12.75 3.1.54 6.91 2.22 9.51-.45 4.16-2.93 2.87-8.5 3.53-12.83.15-5.73 5.2-9.37 7.31-14.29 1.08-2.47.52-5.71 2.05-7.86z" fill="#fefd05"/><path d="m321.81 65.32c1.44-.16 2.88-.31 4.34-.42 4.5 1.25 8.83 3.03 13.11 4.9 6.13 2.65 11.22 7.1 16.11 11.55 3.18 3.86 5.6 8.37 6.81 13.24-.07 3.55-.37 7.1-.34 10.65-1.38-6.66-3.36-13.32-6.78-19.23-2.81-4.84-7.69-7.85-12.16-10.97-6.4-4.52-14.33-5.88-21.09-9.72z" fill="#f9fc6e"/><path d="m362.18 94.59c4.44 16.31 1.47 33.27-.39 49.72-.74 6.76-2.51 13.41-2.37 20.26-.22 1.74-.57 3.46-.86 5.2-.78 3.68-1.49 7.37-2.2 11.06-.44 1.75-.66 4.04-2.6 4.8-4.05 1.93-8.53 2.71-12.93 3.38.6-4 1.44-7.95 2.24-11.91.69-1.58 1.45-3.13 2.18-4.69.44 4.13.7 8.29 1.44 12.39 1.85-1.16 3.87-2.14 5.45-3.67 1.42-2.42 1.58-5.32 2.08-8.02.91-6.78 2.55-13.44 3.35-20.23 1.15-10.3 3.78-20.39 4.34-30.76.41-5.62.27-11.26-.07-16.88-.03-3.55.27-7.1.34-10.65z" fill="#dee068"/><path d="m159.19 119.98c2.09-7.84 5.44-15.26 7.46-23.12 1.18 1.95 2.38 3.89 3.6 5.81-4.21 7.66-7.76 15.68-12.24 23.18-.28.28-.82.84-1.1 1.12.87-2.29 1.65-4.62 2.28-6.99z" fill="#ecefab"/><path d="m98.86 127.06c2.27-5.1 4.5-10.22 7-15.22-2.48 10.8-9.09 20.11-11.24 31.02-.37-.32-1.1-.97-1.47-1.29 1.85-4.86 3.61-9.76 5.71-14.51z" fill="#918f42" opacity=".93"/><path d="m356.84 131.8c.86-3.8 1.96-7.55 2.74-11.37.58.43 1.75 1.27 2.33 1.69-.56 10.37-3.19 20.46-4.34 30.76-.8 6.79-2.44 13.45-3.35 20.23-.5 2.7-.66 5.6-2.08 8.02-1.58 1.53-3.6 2.51-5.45 3.67-.74-4.1-1-8.26-1.44-12.39-.66-2.34-2.02-4.88-4.78-4.96-4.66-.98-9.43-.9-14.16-.76.21-.94.41-1.89.62-2.84 1.33-.27 2.65-.61 3.98-.94 4.15-.21 8.34-.3 12.47.25 2.89.22 4.62 2.8 6.51 4.67 5.59-11.12 6.14-23.84 6.95-36.03z" fill="#dada28"/><path d="m82.78 124.57c4.15-.64 8.22-2.07 12.46-1.97.09.8.26 2.41.35 3.21-.65.78-1.28 1.57-1.89 2.37-2.67-3.34-6.82-4.37-10.92-3.61zm-.73 126.63c1.54-7.36 6.78-13.49 13.14-17.24 3.74-1.24 7.88-.84 11.75-.43 3.37 4.29 2.46 10.37 4.05 15.41 3.91 14.23 11.22 28.74 24.49 36.31-1.59.24-3.4 1.26-4.91.23-3.7-2.15-6.77-5.19-10.04-7.91l-3.17.75c.09-1.17.17-2.34.25-3.5-1.41.81-2.99 1.44-4.14 2.63-1.09 2.21-1.41 4.68-1.93 7.07-1.03-.47-2.07-.94-3.1-1.39-.27-3.66.12-7.31.31-10.96 1.04-2.29 2.08-4.69.84-7.14-2.28 1.86-3.5 5.66-6.78 5.83-.79-3.99 1.22-7.73 2.32-11.45-.74 0-2.24.01-2.98.01-1.23 3.09-3.11 6.15-2.91 9.59.06 3.12 3.13 4.81 4.83 7.08-.26 1.39-.52 2.78-.77 4.17-1.15-.58-2.3-1.16-3.47-1.69-4.85-1.97-10.08-3.71-13.62-7.81-5.15-4.99-5.57-12.94-4.16-19.56m15.4-9.79c-1.85 1.25-.51 2.83.41 4.19 1.65.32 3.98-.67 3.71-2.64.58-2.24-3.08-3.57-4.12-1.55m-6.21 5.67c-1.55 1.63-3.06 3.4-2.58 5.83 1.48-.5 3.73 0 4.38-1.81 1.16-1.59-1.04-2.84-1.8-4.02m.55 14.07c-.09 1.93-1.29 4.48 1.12 5.49 2.77.47 3.05-2.86 2.7-4.8-1.26-.29-2.54-.52-3.82-.69z" fill="#f8f6ba"/><path d="m50.91 135c9.44-6.37 20.97-8.07 31.87-10.43 4.1-.76 8.25.27 10.92 3.61-2.36 4.63-3.79 9.68-4.53 14.81-.63.14-1.89.43-2.52.58.06-5.37 1.93-10.45 2.8-15.69-8.34-.04-16.59 1.74-24.61 3.87-7.35 2.88-15.38 6.67-19.07 14.09-1.91 3.71-3.22 8.07-2.05 12.22 1.1 4.37 4.59 7.44 7.28 10.85 2.6 3.06 4.51 6.86 8.07 8.96 3.33 1.97 6.56 4.1 9.62 6.47-1.35.73-2.71 1.47-4.07 2.21-4.7-5.11-11.07-8.28-15.62-13.54-5.93-6.38-11.29-14.91-9.18-23.99 1.98-5.73 5.95-10.77 11.09-14.02z" fill="#f7fa6e"/><path d="m93.7 128.18c.61-.8 1.24-1.59 1.89-2.37-1.3 4.17-3.01 8.19-4.36 12.34-.33 1.26-.94 2.7-.18 3.95 1.82 3.35 4.51 6.13 7.05 8.95-2.36-1.77-4.7-3.56-6.74-5.7-.74-.78-1.47-1.57-2.19-2.36.74-5.13 2.17-10.18 4.53-14.81zm216.34 78.02c12.88-.95 25.45-4.05 37.98-7.01l.96-.2c-.35.16-1.05.5-1.39.67-7.24 3.21-15.18 4.34-22.88 5.95-22.2 2.98-44.62 3.69-66.91 5.69-5.93.33-11.87.2-17.8.44-19.97 1.28-40 .66-60 .77-7.03-.06-14.07.12-21.07-.6-9.28-.91-18.67-.99-27.81-2.99-9.68-2.07-19.96-2.47-28.82-7.3 6.08.63 11.9 2.58 17.87 3.8 11.89 1.88 23.79 3.99 35.87 4.08 16.54 1.29 33.15 1.24 49.72.71 25 .8 50.04-.15 74.96-2.25 9.81.15 19.54-1.13 29.32-1.76z" fill="#7c7416"/><path d="m64.84 131.75c8.02-2.13 16.27-3.91 24.61-3.87-.87 5.24-2.74 10.32-2.8 15.69.63-.15 1.89-.44 2.52-.58.72.79 1.45 1.58 2.19 2.36-.61.47-1.84 1.41-2.46 1.88 6.55 7.21 14.23 13.36 22.66 18.25 5.53 3.75 11.47 6.82 17.58 9.5 9.52 4.83 20.13 6.68 30.27 9.72 7.57 2.33 15.48 3.05 23.19 4.72 7.25 1.56 14.71 1.61 21.97 3.13 7 1.42 14.05 2.71 21.21 3.05 7.3 1.46 14.43 3.83 21.87 4.65 9.28 1.33 18.81-.63 27.97 1.85-1.7 1.19-3.36 2.89-5.61 2.72-4.63.11-9.28-.43-13.89.29-5.61.8-11.24 1.93-16.94 1.43-9.04-.79-18.11.47-27.14-.48-4.9-.59-9.83.03-14.42 1.84-11.55 1.1-23.1-.59-34.66-.74-9.45-.16-18.47-3.71-27.93-3.76-5.34-.1-10.74-.06-15.98-1.26-7.11-1.48-13.7-4.72-20.8-6.2-4.96-.99-9.79-2.52-14.35-4.69-5.04-2.37-10.55-3.77-15.21-6.91-3.06-2.37-6.29-4.5-9.62-6.47-3.56-2.1-5.47-5.9-8.07-8.96-2.69-3.41-6.18-6.48-7.28-10.85-1.17-4.15.14-8.51 2.05-12.22 3.69-7.42 11.72-11.21 19.07-14.09m7.06 1.05c-2.88.45-5.92.33-8.65 1.47-2.4.98-2.75 3.83-3.66 5.95-2.53.17-5.88-.68-7.36 2.01-3.12 4.46-6.77 9.63-5.83 15.38.68 4.33 4.87 6.51 7.81 9.22 2.12 1.72 3.16 4.3 4.53 6.59 1.12 2.35 3.99 2.72 6.07 3.85 4.58 1.68 7.03 6.54 11.64 8.16 3.54 1.31 7.34 1.84 10.82 3.38 2.46 1.05 4.7 2.58 7.22 3.5 3.61 1.15 7.54.78 11.12 2.08 3.51 1.35 6.54 3.97 10.39 4.38 7.62 1.05 15.33 1.13 23.01 1.07 6.17-.13 12.01 2.01 17.97 3.19 4.61.99 9.31.2 13.97.25 6.06.05 12.04 1.18 18.08 1.54 4.11.32 7.83-2.02 11.91-2 8.78.06 17.64.84 26.37-.52 2.19-.26 4.05-1.48 5.83-2.7-7.82-2.68-16.15-2.73-24.31-3.08-2.77-.36-4.96 1.57-7.42 2.46-1.14-1.36-1.97-3.01-3.36-4.14-4.97-1.19-10.19-.46-15.18-1.58-7.91-1.69-15.8-3.59-23.88-4.2-5.57-.35-10.24-3.64-15.29-5.65-3.2-1.38-6.62-2.13-9.95-3.13-4.38-1.18-7.44-5.08-11.92-6.03-3.99-1.25-8.76-1.02-11.9-4.17-4.31-4.08-9.37-7.22-13.89-11.03-3.15-2.75-7.39-3.93-10.43-6.76-2.86-6.8-1.75-14.32-.59-21.36-4.52-.96-8.7 1.47-13.12 1.87z" fill="#f6f728"/><path d="m71.9 132.8c4.42-.4 8.6-2.83 13.12-1.87-1.16 7.04-2.27 14.56.59 21.36 3.04 2.83 7.28 4.01 10.43 6.76 4.52 3.81 9.58 6.95 13.89 11.03 3.14 3.15 7.91 2.92 11.9 4.17 4.48.95 7.54 4.85 11.92 6.03 3.33 1 6.75 1.75 9.95 3.13 5.05 2.01 9.72 5.3 15.29 5.65 8.08.61 15.97 2.51 23.88 4.2 4.99 1.12 10.21.39 15.18 1.58 1.39 1.13 2.22 2.78 3.36 4.14 2.46-.89 4.65-2.82 7.42-2.46 8.16.35 16.49.4 24.31 3.08-1.78 1.22-3.64 2.44-5.83 2.7-8.73 1.36-17.59.58-26.37.52-4.08-.02-7.8 2.32-11.91 2-6.04-.36-12.02-1.49-18.08-1.54-4.66-.05-9.36.74-13.97-.25-5.96-1.18-11.8-3.32-17.97-3.19-7.68.06-15.39-.02-23.01-1.07-3.85-.41-6.88-3.03-10.39-4.38-3.58-1.3-7.51-.93-11.12-2.08-2.52-.92-4.76-2.45-7.22-3.5-3.48-1.54-7.28-2.07-10.82-3.38-4.61-1.62-7.06-6.48-11.64-8.16-2.08-1.13-4.95-1.5-6.07-3.85-1.37-2.29-2.41-4.87-4.53-6.59-2.94-2.71-7.13-4.89-7.81-9.22-.94-5.75 2.71-10.92 5.83-15.38 1.48-2.69 4.83-1.84 7.36-2.01.91-2.12 1.26-4.97 3.66-5.95 2.73-1.14 5.77-1.02 8.65-1.47z" fill="#fdfc09"/><path d="m350.61 141.34c2.12-3.15 4.31-6.26 6.23-9.54-.81 12.19-1.36 24.91-6.95 36.03-1.89-1.87-3.62-4.45-6.51-4.67-4.13-.55-8.32-.46-12.47-.25.23-.3.71-.9.95-1.2 2.99-2.64 6.5-4.68 9.14-7.7 3.49-4 6.62-8.3 9.61-12.67z" fill="#dfde04"/><path d="m88.9 147.23c.62-.47 1.85-1.41 2.46-1.88 2.04 2.14 4.38 3.93 6.74 5.7 12.6 10.63 26.95 19.21 42.56 24.62 6.92 2.75 14.18 4.48 21.38 6.28 12.03 2.73 24.11 5.29 36.34 6.89 13.35 1.69 26.51 4.6 39.92 5.79-1.57.16-3.13.34-4.68.52-2.61.24-5.23.42-7.84.45-7.16-.34-14.21-1.63-21.21-3.05-7.26-1.52-14.72-1.57-21.97-3.13-7.71-1.67-15.62-2.39-23.19-4.72-10.14-3.04-20.75-4.89-30.27-9.72-6.11-2.68-12.05-5.75-17.58-9.5-8.43-4.89-16.11-11.04-22.66-18.25z" fill="#f5f363"/><path d="m303.62 154.58c3.01-2.02 6.77-1.14 10.01-.3 5.96 1.65 11.81 3.67 17.84 5.03.1.6.29 1.8.39 2.4-.24.3-.72.9-.95 1.2-1.33.33-2.65.67-3.98.94-6.66.28-12.68-3-18.44-5.9-2.36 3.44-5.08 6.62-7.43 10.07-2.29 3.4-3.14 7.51-3.68 11.51l-.53.74c-.73-.16-2.18-.48-2.9-.64-.59-3.17-1.14-6.51.03-9.63 1.95-5.73 4.13-12.16 9.64-15.42z" fill="#faf923"/><path d="m301.06 168.02c2.35-3.45 5.07-6.63 7.43-10.07 5.76 2.9 11.78 6.18 18.44 5.9-.21.95-.41 1.9-.62 2.84 4.73-.14 9.5-.22 14.16.76-8.5.21-16.97 1.14-25.48.91-3.04.05-6.2-.35-9.15.57-2.25 2.36-2.98 5.67-4.12 8.62-1.16 1.36-2.4 2.64-3.56 3.99-.2-.5-.59-1.5-.78-2.01.54-4 1.39-8.11 3.68-11.51z" fill="#f7f848"/><path d="m203.55 185.6c3.9-9.05 7.24-18.32 11.29-27.3 12.36.88 24.6 3.04 36.96 4.11 1.92.19 3.84.41 5.77.66.03 6.15-2.89 11.71-4.47 17.53-1.34 3.89-2.69 7.8-3.47 11.85 5.8-.04 11.59.4 17.38.86 10.4.3 20.81.25 31.22.2 1.07-3.37 2.12-6.74 2.97-10.18 1.51-4.47 2.7-9.14 5.2-13.19 1.8-.51 3.69-.49 5.54-.52 10.3.14 20.58-.68 30.87-.22.11 2.56.25 5.13.26 7.7-.8 3.96-1.64 7.91-2.24 11.91 4.4-.67 8.88-1.45 12.93-3.38 1.94-.76 2.16-3.05 2.6-4.8.71-3.69 1.42-7.38 2.2-11.06.32 2.89.86 5.75 1.26 8.64-.09 2.67-.22 5.35-.32 8.03-3.11 2.33-6.74 3.86-10.5 4.76-7.2 1.77-14.39 3.77-21.79 4.48-9.4.69-18.78 1.95-28.22 1.85-13-.07-26.06.57-39.01-.91-7.26-.31-14.47-1.16-21.68-1.99-13.41-1.19-26.57-4.1-39.92-5.79-12.23-1.6-24.31-4.16-36.34-6.89-7.2-1.8-14.46-3.53-21.38-6.28.96-.68 1.91-1.36 2.86-2.04 13.84 2.86 27.44 6.82 41.39 9.13 6.19 1.12 12.45 1.73 18.64 2.84m13.75-23.52c-2.69 5.27-4.7 10.85-6.95 16.32-1.1 3.05-4.34 6.43-1.19 9.32l-.38.74c1.07.38 2.14.8 3.24 1.13 1.8-1.19 1.88-3.73 2.77-5.55-.15.87-.44 2.6-.59 3.47 2.39.45 4.88 1.37 7.33.63 7.08 1.62 14.29 2.75 21.55 3.23 2.59.51 3.33-2.42 3.9-4.28 1.58-5.9 4.87-11.37 4.99-17.6-9.73-.69-19.47-1.09-29.13-2.63 2.41-.85 4.96-1.26 7.36-2.15 1.4-.05 2.8-.13 4.21-.25-3.97-3.54-9.84-1.59-14.65-2.01-.61-.1-1.85-.28-2.46-.37m17.56 3.42c6.1 1.22 12.35 1.55 18.56 1.15-.91-.88-1.71-2.15-3.15-2.05-5.15-.48-10.3.35-15.41.9m88.16 6.37v1.09c2.51.16 5.11.25 7.39 1.44-5.54.46-11.3-.11-16.54 2.16-1.63.9-1.74 2.85-2.23 4.44-1.07 4.21-2.33 8.37-3.66 12.51 8.99.35 17.84-1.45 26.65-2.92 2.92-.45 3.14-4.11 3.57-6.44 2.08-3.98 1.09-8.36 1.33-12.62-5.5-.51-11.01.23-16.51.34m-14.98.91c-2.49 6.45-3.93 13.25-5.78 19.89.46.33 1.39.99 1.86 1.32 2.94-7.32 4.11-15.22 7.78-22.25-1.42-.18-3.31-.83-3.86 1.04z" fill="#4f4a00"/><path d="m217.3 162.08c.61.09 1.85.27 2.46.37l1.78.32c-.52.68-1.03 1.37-1.53 2.06-4.82 7.02-6.72 15.5-10.85 22.89-3.15-2.89.09-6.27 1.19-9.32 2.25-5.47 4.26-11.05 6.95-16.32z" fill="#d9d2a1"/><path d="m219.76 162.45c4.81.42 10.68-1.53 14.65 2.01-1.41.12-2.81.2-4.21.25-3.4.05-6.79.03-10.19.12.5-.69 1.01-1.38 1.53-2.06z" fill="#958a5f"/><path d="m257.57 163.07c.17 1.25.36 2.51.55 3.76.89-1.46 1.79-2.93 2.71-4.38.44 2.09.84 4.29-.02 6.35-1.64 4.84-3.24 9.81-3.03 14.99-.51.32-1.51.97-2.01 1.3-.83.53-1.65 1.06-2.47 1.59-.08-2.03-.19-4.06-.2-6.08 1.58-5.82 4.5-11.38 4.47-17.53z" fill="#f8f659"/><path d="m234.86 165.5c5.11-.55 10.26-1.38 15.41-.9 1.44-.1 2.24 1.17 3.15 2.05-6.21.4-12.46.07-18.56-1.15z" fill="#979244"/><path d="m209.16 187.72c4.13-7.39 6.03-15.87 10.85-22.89 3.4-.09 6.79-.07 10.19-.12-2.4.89-4.95 1.3-7.36 2.15-3.57 5.25-5.78 11.29-8.05 17.18-.89 1.82-.97 4.36-2.77 5.55-1.1-.33-2.17-.75-3.24-1.13z" fill="#272500"/><path d="m359.42 164.57c1.74 4.04 3.49 8.08 4.82 12.28-1.14-.66-2.28-1.33-3.42-1.98-.35 1.17-.68 2.35-1 3.54-.4-2.89-.94-5.75-1.26-8.64.29-1.74.64-3.46.86-5.2z" fill="#020301"/><path d="m214.79 184.04c2.27-5.89 4.48-11.93 8.05-17.18 9.66 1.54 19.4 1.94 29.13 2.63-.12 6.23-3.41 11.7-4.99 17.6-.57 1.86-1.31 4.79-3.9 4.28-7.26-.48-14.47-1.61-21.55-3.23 4.26-1.32 8.75-1.79 13.17-.97 2.71.22 5.61.88 8.21-.21 3.5-4.22 3.89-9.96 3.74-15.21-1.72-.25-3.43-.5-5.13-.75.31-.64.63-1.28.95-1.92-4.31.05-8.7-.36-12.94.58-4.44 1.35-7.57 5.32-9.51 9.36-1.51 2.82.66 5.69 1.63 8.3-2.49.06-4.97.12-7.45.19.15-.87.44-2.6.59-3.47z" fill="#e3df6d"/><path d="m305.84 168.93c2.95-.92 6.11-.52 9.15-.57 8.51.23 16.98-.7 25.48-.91 2.76.08 4.12 2.62 4.78 4.96-.73 1.56-1.49 3.11-2.18 4.69-.01-2.57-.15-5.14-.26-7.7-10.29-.46-20.57.36-30.87.22-1.85.03-3.74.01-5.54.52-2.5 4.05-3.69 8.72-5.2 13.19.2-1.92.32-3.85.52-5.78 1.14-2.95 1.87-6.26 4.12-8.62z" fill="#aba734"/><path d="m229.53 169.66c4.24-.94 8.63-.53 12.94-.58-.32.64-.64 1.28-.95 1.92 1.7.25 3.41.5 5.13.75.15 5.25-.24 10.99-3.74 15.21-2.6 1.09-5.5.43-8.21.21-4.42-.82-8.91-.35-13.17.97-2.45.74-4.94-.18-7.33-.63 2.48-.07 4.96-.13 7.45-.19-.97-2.61-3.14-5.48-1.63-8.3 1.94-4.04 5.07-8.01 9.51-9.36z" fill="#dbdd19"/><path d="m323.02 171.87c5.5-.11 11.01-.85 16.51-.34-.24 4.26.75 8.64-1.33 12.62.24-2.82.39-5.64.59-8.47-8.32.11-16.59 1.23-24.92.88 5.24-2.27 11-1.7 16.54-2.16-2.28-1.19-4.88-1.28-7.39-1.44z" fill="#73741c"/><path d="m308.04 172.78c.55-1.87 2.44-1.22 3.86-1.04-3.67 7.03-4.84 14.93-7.78 22.25-.47-.33-1.4-.99-1.86-1.32 1.85-6.64 3.29-13.44 5.78-19.89z" fill="#d0cc90"/><path d="m360.82 174.87c1.14.65 2.28 1.32 3.42 1.98.98 3.59 3.22 7.77.88 11.29-3.85 5.43-10.07 8.53-16.14 10.85l-.96.2c.66-.8 1.33-1.58 2.02-2.36 3.56-1.56 7.05-3.34 10.14-5.74 2.33-1.68 4.64-4.08 4.51-7.18.23-2.58-1.53-4.69-2.75-6.78-.64 2.93-1 5.93-1.82 8.82l-.62.49c.1-2.68.23-5.36.32-8.03.32-1.19.65-2.37 1-3.54z" fill="#7a7d4e" opacity=".93"/><path d="m313.87 176.56c8.33.35 16.6-.77 24.92-.88-.2 2.83-.35 5.65-.59 8.47-.43 2.33-.65 5.99-3.57 6.44-8.81 1.47-17.66 3.27-26.65 2.92 1.33-4.14 2.59-8.3 3.66-12.51.49-1.59.6-3.54 2.23-4.44m13.55 1.9c-4.08.6-8.31 1.12-12.07 2.91-1.44 2.34-2.21 7 1.01 8.21 3.92.05 7.8-.78 11.64-1.49 3.3-.46 5.58-3.36 6.79-6.24.34-3.88-4.7-3.75-7.37-3.39z" fill="#e1e164"/><path d="m298.16 181.54c1.16-1.35 2.4-2.63 3.56-3.99-.2 1.93-.32 3.86-.52 5.78-.85 3.44-1.9 6.81-2.97 10.18-10.41.05-20.82.1-31.22-.2-5.79-.46-11.58-.9-17.38-.86.78-4.05 2.13-7.96 3.47-11.85.01 2.02.12 4.05.2 6.08.82-.53 1.64-1.06 2.47-1.59-.18 1.05-.34 2.1-.51 3.15 5.91 3.77 13.1 2.23 19.7 2.75 6.42-.05 13.08 1.08 19.35-.69 2.55-2.15 3.01-5.72 3.85-8.76z" fill="#e1e272"/><path d="m327.42 178.46c2.67-.36 7.71-.49 7.37 3.39-1.21 2.88-3.49 5.78-6.79 6.24-3.84.71-7.72 1.54-11.64 1.49-3.22-1.21-2.45-5.87-1.01-8.21 3.76-1.79 7.99-2.31 12.07-2.91z" fill="#dedd1a"/><path d="m360.12 185.95c.82-2.89 1.18-5.89 1.82-8.82 1.22 2.09 2.98 4.2 2.75 6.78.13 3.1-2.18 5.5-4.51 7.18-1.34.32-2.68.59-4.02.89 1.58-1.82 3.13-3.73 3.96-6.03z" fill="#fefec3"/><path d="m293.95 179.63c.72.16 2.17.48 2.9.64-2.42 2.79-4.57 6.75-8.64 7.15-9.26 1.15-18.6 1.99-27.94 1.48-.52-1-1.02-2-1.52-3.01 5.67-1.76 11.61-2.03 17.49-2.45 6.03-.54 11.95-1.96 17.71-3.81z" fill="#d9e00a"/><path d="m296.85 180.27.53-.74c.19.51.58 1.51.78 2.01-.84 3.04-1.3 6.61-3.85 8.76-6.27 1.77-12.93.64-19.35.69-6.6-.52-13.79 1.02-19.7-2.75.17-1.05.33-2.1.51-3.15.5-.33 1.5-.98 2.01-1.3.24.53.73 1.58.97 2.1.5 1.01 1 2.01 1.52 3.01 9.34.51 18.68-.33 27.94-1.48 4.07-.4 6.22-4.36 8.64-7.15z" fill="#d3d824"/><path d="m68.69 184.34c4.66 3.14 10.17 4.54 15.21 6.91 4.56 2.17 9.39 3.7 14.35 4.69 7.1 1.48 13.69 4.72 20.8 6.2 5.24 1.2 10.64 1.16 15.98 1.26 9.46.05 18.48 3.6 27.93 3.76 11.56.15 23.11 1.84 34.66.74 15.55 1.14 31.14-.51 46.69.73-12.79 1.88-25.78-.47-38.55 1.58-16.57.53-33.18.58-49.72-.71-12.08-.09-23.98-2.2-35.87-4.08-5.97-1.22-11.79-3.17-17.87-3.8-9.61-2.83-19.13-5.96-28.39-9.8-3.37-1.21-6.77-2.63-9.29-5.27 1.36-.74 2.72-1.48 4.07-2.21z" fill="#dedb4d"/><path d="m359.5 186.44.62-.49c-.83 2.3-2.38 4.21-3.96 6.03 1.34-.3 2.68-.57 4.02-.89-3.09 2.4-6.58 4.18-10.14 5.74-2.82.74-5.67 1.34-8.51 2-2.65.3-5.32.46-7.97.71-2.18-1.19-4.27-2.51-6.35-3.86 7.4-.71 14.59-2.71 21.79-4.48 3.76-.9 7.39-2.43 10.5-4.76z" fill="#f4f68a"/><path d="m68.84 191.89c1.69-.05 3.38-.1 5.07-.07 9.26 3.84 18.78 6.97 28.39 9.8 8.86 4.83 19.14 5.23 28.82 7.3 9.14 2 18.53 2.08 27.81 2.99 7 .72 14.04.54 21.07.6 20-.11 40.03.51 60-.77 5.93-.24 11.87-.11 17.8-.44 22.29-2 44.71-2.71 66.91-5.69 7.7-1.61 15.64-2.74 22.88-5.95-1.91 2.77-3.7 5.82-3.9 9.26-.48 7.7 1.79 15.19 2.93 22.74 1.67 9.02.2 18.44 3.2 27.24-1.23-.58-2.45-1.17-3.67-1.75-.82-1.7-1.62-3.41-2.29-5.18-.48-4 .25-7.99.44-11.98.14-11.14-2.81-21.98-4.09-32.98-4.71-.01-9.31 1.07-13.75 2.54-7.65.02-15.18 1.53-22.77 2.25 1.43 1.02 2.88 2.03 4.33 3.03-1.44.45-2.88.91-4.32 1.37-1.2-.73-2.42-1.42-3.68-2.02-5.82-3.59-12.74-1.35-19-.59-10.5.2-21.04-.4-31.5.75-4.83.38-9.8.35-14.35 2.23-.42.14-1.25.41-1.66.54-16.15.75-32.34.32-48.51.42-8.5-.18-17.07.36-25.5-1.02-.46.42-1.37 1.26-1.83 1.67 0 1.96.02 3.91.04 5.87-.35-2.2-.68-4.4-1.13-6.58-2.16-1.38-4.67-1.97-7.21-1.97-4.52.01-9.03-.37-13.47-1.23-7.19-1.62-14.48-2.72-21.66-4.35-1.95-.4-3.9-.75-5.84-1.17-6.32-1.45-12.47-3.81-19.01-4.19-.08 2.45-.18 4.91-.34 7.37-1.68 3.04-3.64 5.96-4.84 9.24-2.25 5.92-3.63 12.16-6.28 17.92l-2.71-.2c.92-12.47 7.06-23.66 9.58-35.79-4.62-4.68-10.58-7.56-15.96-11.21z" fill="#1b0900"/><path d="m225.78 195.6c2.61-.03 5.23-.21 7.84-.45 4.46 2.68 9.74 3.03 14.81 3.33 7.86.53 15.75.83 23.59 1.69 7.62.93 15.29-.62 22.9.51-1.36 1.56-2.72 3.11-4.08 4.67-8.66.03-17.19 1.83-25.84 1.99-6.92.11-13.81.7-20.69 1.29-15.55-1.24-31.14.41-46.69-.73 4.59-1.81 9.52-2.43 14.42-1.84 9.03.95 18.1-.31 27.14.48 5.7.5 11.33-.63 16.94-1.43 4.61-.72 9.26-.18 13.89-.29 2.25.17 3.91-1.53 5.61-2.72-9.16-2.48-18.69-.52-27.97-1.85-7.44-.82-14.57-3.19-21.87-4.65z" fill="#f4f749"/><path d="m233.62 195.15c1.55-.18 3.11-.36 4.68-.52 7.21.83 14.42 1.68 21.68 1.99 12.95 1.48 26.01.84 39.01.91 9.44.1 18.82-1.16 28.22-1.85 2.08 1.35 4.17 2.67 6.35 3.86-4.64 1.31-9.32 2.59-14.15 2.9-9.55.76-18.94 3.18-28.57 2.91 1.36-1.56 2.72-3.11 4.08-4.67-7.61-1.13-15.28.42-22.9-.51-7.84-.86-15.73-1.16-23.59-1.69-5.07-.3-10.35-.65-14.81-3.33z" fill="#f1f162"/><path d="m341.53 198.83c2.84-.66 5.69-1.26 8.51-2-.69.78-1.36 1.56-2.02 2.36-12.53 2.96-25.1 6.06-37.98 7.01-9.78.63-19.51 1.91-29.32 1.76 6.06-.98 12.15-1.74 18.3-1.91 10.71-.37 21.27-2.36 31.86-3.87 3.71-.54 7.19-1.95 10.65-3.35z" fill="#a49d3a"/><path d="m333.56 199.54c2.65-.25 5.32-.41 7.97-.71-3.46 1.4-6.94 2.81-10.65 3.35-10.59 1.51-21.15 3.5-31.86 3.87-6.15.17-12.24.93-18.3 1.91-24.92 2.1-49.96 3.05-74.96 2.25 12.77-2.05 25.76.3 38.55-1.58 6.88-.59 13.77-1.18 20.69-1.29 8.65-.16 17.18-1.96 25.84-1.99 9.63.27 19.02-2.15 28.57-2.91 4.83-.31 9.51-1.59 14.15-2.9z" fill="#bfb549"/><path d="m89.39 204.56c6.54.38 12.69 2.74 19.01 4.19-.14 6.83-.41 13.66-.37 20.49-2.08.28-4.19.24-6.28.2 1.66-.47 3.31-1 4.93-1.6l.16-1.62c.53-4.85.94-9.73.54-14.6-.18-.36-.54-1.06-.71-1.42-4.53-1.89-9.32-3.04-14.09-4.13-.93 2.17-1.88 4.33-2.9 6.46l-.63-.6c.16-2.46.26-4.92.34-7.37z" fill="#655347"/><path d="m92.58 206.07c4.77 1.09 9.56 2.24 14.09 4.13.17.36.53 1.06.71 1.42-2.95.35-5.87 1.01-8.64 2.09 1.65 4.78 4.59 8.92 8.1 12.51l-.16 1.62c-1.62.6-3.27 1.13-4.93 1.6-1.23-.01-2.47-.03-3.7-.06.35-2.7.74-5.39 1.17-8.07-.73.17-2.19.52-2.92.7-.55-1.05-1.1-2.1-1.64-3.14.49-1.71.85-3.46 1.2-5.2-.85-.06-2.55-.17-3.4-.23-.94-.26-1.87-.57-2.78-.91 1.02-2.13 1.97-4.29 2.9-6.46z" fill="#eecd80"/><path d="m326.46 209.55c4.44-1.47 9.04-2.55 13.75-2.54 1.28 11 4.23 21.84 4.09 32.98-.19 3.99-.92 7.98-.44 11.98-.44-1.13-.87-2.27-1.29-3.4-1.24-.35-2.47-.7-3.7-1.04 1.86-11.15 1.34-23.09-2.95-33.66-.61-2.09-3-2.24-4.72-2.86-1.59-.47-3.16-.98-4.74-1.46z" fill="#ae7064"/><path d="m108.4 208.75c1.94.42 3.89.77 5.84 1.17-1.05.44-2.09.9-3.13 1.35-.54 7.22-.73 14.48-.11 21.69-.29-1.36-.62-2.71-.96-4.05-.5.08-1.51.25-2.01.33-.04-6.83.23-13.66.37-20.49z" fill="#5f2d00"/><path d="m111.11 211.27c1.04-.45 2.08-.91 3.13-1.35 7.18 1.63 14.47 2.73 21.66 4.35-2.81-.03-5.61.13-8.41.21-4.89-1.63-9.99-2.41-15.11-2.78-1.77 12.57.6 25.1 2.47 37.5-1.84-5.27-3.02-10.73-3.85-16.24-.62-7.21-.43-14.47.11-21.69z" fill="#987c35"/><path d="m303.69 211.8c7.59-.72 15.12-2.23 22.77-2.25 1.58.48 3.15.99 4.74 1.46.1 12.5 4.02 24.93 1.4 37.42-1.13-.39-2.24-.79-3.34-1.2.21-8.94.09-18.01-2.03-26.74-.81-3.78-3.69-6.54-6.41-9.05-2.53 5.65-.54 11.82-.02 17.67.11 1.31.27 2.62.37 3.94-.05 4.95-.5 9.89-.78 14.84-3.88 2.06-7.38 4.75-11.29 6.75 2.84-5.33 7.67-9.67 8.86-15.81 1.59-5.77-.52-11.69-2.93-16.89-1.39-3.16-4.26-5.23-7.01-7.11-1.45-1-2.9-2.01-4.33-3.03z" fill="#c17159"/><path d="m331.2 211.01c1.72.62 4.11.77 4.72 2.86 4.29 10.57 4.81 22.51 2.95 33.66-.28.61-.83 1.83-1.11 2.44-1.74-.48-3.46-.97-5.16-1.54 2.62-12.49-1.3-24.92-1.4-37.42z" fill="#520302"/><path d="m89.05 211.93.63.6c.91.34 1.84.65 2.78.91-2.24 4.29-5.02 8.25-8.1 11.96-.04-1.41-.13-2.82-.15-4.23 1.2-3.28 3.16-6.2 4.84-9.24z" fill="#b7a29b"/><path d="m98.74 213.71c2.77-1.08 5.69-1.74 8.64-2.09.4 4.87-.01 9.75-.54 14.6-3.51-3.59-6.45-7.73-8.1-12.51z" fill="#daae3e"/><path d="m112.38 211.7c5.12.37 10.22 1.15 15.11 2.78l.87.28c-4.34.41-8.64 1.09-12.97 1.58-.89 7.25-1.41 14.66.27 21.85 1.29 5.46 1.72 11.42 4.81 16.25 3.18 2.7 7.6 3.25 11.58 4.04-1.9.37-3.79.8-5.7 1.14-2.39.17-4.77.52-7.15.85-1.5-3.73-3.25-7.38-4.35-11.27-1.87-12.4-4.24-24.93-2.47-37.5z" fill="#f6d668"/><path d="m281.02 213.59c6.26-.76 13.18-3 19 .59-.78-.07-2.34-.22-3.12-.3-6.9-1.06-13.99.37-19.92 4.05 1.41-1.38 2.72-2.86 4.04-4.34z" fill="#877e3a"/><path d="m320.82 211.44c2.72 2.51 5.6 5.27 6.41 9.05 2.12 8.73 2.24 17.8 2.03 26.74-1.7 1.3-3.39 2.59-5.08 3.89-1.27-1.08-2.53-2.15-3.79-3.23.28-4.95.73-9.89.78-14.84.48 5.53.65 11.16 2.39 16.49.77-.29 2.31-.89 3.08-1.19 2.06-8.25 1.76-16.92-.02-25.18-.72-3.61-3.07-6.53-5.16-9.43-.05 5.13-.48 10.24-.66 15.37-.52-5.85-2.51-12.02.02-17.67z" fill="#893726"/><path d="m249.52 214.34c10.46-1.15 21-.55 31.5-.75-1.32 1.48-2.63 2.96-4.04 4.34-1.31 1.1-2.63 2.2-3.88 3.37-1.4 5.44-2.29 11.01-3.78 16.44-1.19 4.09-2.48 8.16-3.89 12.18-6.79 17.22-20.32 32.12-38.03 38.29-1.88-.66-3.75-1.32-5.65-1.89 14.99-4.58 28.51-14.89 35.63-29.01 1.78-3.36 3.42-6.78 4.76-10.34-5.45 2.38-10.75 5.18-16.52 6.71-5.61 1.51-11.05 3.61-16.72 4.92-5.78 1.42-11.68 2.42-17.38 4.17.46-.98.9-1.96 1.34-2.94-1.31.12-2.61.26-3.9.42 1.38-.67 2.73-1.41 4.12-2.07 7.79-1.8 15.65-3.37 23.24-5.91 6.96-2.14 14.03-4.04 20.64-7.13 3.03-1.51 7.16-2.47 8.18-6.17 2.45-7.37 3.79-15.22 3.64-22.98l-1.02-.98c-10.85.6-21.76.56-32.59 1.56 4.55-1.88 9.52-1.85 14.35-2.23z" fill="#4d2502"/><path d="m92.46 213.44c.85.06 2.55.17 3.4.23-.35 1.74-.71 3.49-1.2 5.2-1.62 4.19-3.66 8.2-5.61 12.24-1.28 1.6-2.79 3.01-4.28 4.43-1.5-3.23-1.59-6.81-.41-10.14 3.08-3.71 5.86-7.67 8.1-11.96z" fill="#1d0401"/><path d="m127.49 214.48c2.8-.08 5.6-.24 8.41-.21 4.44.86 8.95 1.24 13.47 1.23 1.87 1.2 3.49 2.76 4.68 4.65-1.63.23-3.26.46-4.9.56-2.51-.66-4.93-1.62-7.4-2.42.59-.14 1.76-.41 2.34-.55-5.28-.79-10.65-1.22-15.73-2.98z" fill="#e5ac5f"/><path d="m276.98 217.93c5.93-3.68 13.02-5.11 19.92-4.05 2.95 1.98 5.83 4.07 8.88 5.91-1.17-.11-2.35-.2-3.52-.26-1.6-.06-3.23-.2-4.82.06-1.77 1.23-2.28 3.51-3.16 5.37-.08-1.87-.3-3.72-.54-5.57-1.74.03-3.48.06-5.21.12-3.23.25-6.71-.24-9.7 1.25-2.74 2.58-4.02 6.26-5.76 9.52-.02-3-.02-5.99.03-8.98 1.25-1.17 2.57-2.27 3.88-3.37z" fill="#f8f381"/><path d="m296.9 213.88c.78.08 2.34.23 3.12.3 1.26.6 2.48 1.29 3.68 2.02 9.05 4.74 13.52 17.07 8.73 26.28-1.83 4.43-6.03 7.13-10.28 8.88l-3.22-.16c3-3.15 6.23-6.08 9.11-9.34 1.48-2.13 3.17-4.33 3.59-6.95-.36-2.43-1.43-4.67-2.25-6.95-.86-3.23-2.51-6.22-5.99-7.07-.36-.17-1.08-.52-1.44-.69l.31-.67c1.17.06 2.35.15 3.52.26-3.05-1.84-5.93-3.93-8.88-5.91z" fill="#f7d082"/><path d="m321.46 213.74c2.09 2.9 4.44 5.82 5.16 9.43 1.78 8.26 2.08 16.93.02 25.18-.77.3-2.31.9-3.08 1.19-1.74-5.33-1.91-10.96-2.39-16.49-.1-1.32-.26-2.63-.37-3.94.18-5.13.61-10.24.66-15.37z" fill="#420100"/><path d="m115.39 216.34c4.33-.49 8.63-1.17 12.97-1.58 5.08 1.76 10.45 2.19 15.73 2.98-.58.14-1.75.41-2.34.55-3.34.35-6.68.7-10.04.76-.64-.22-1.91-.66-2.55-.87-1.29-.5-2.57-1.04-3.84-1.58-2.91 2.03-6.1 3.72-8.66 6.2-1.49 2.74-.83 6.11-.47 9.07 1.35 6.68 3.05 13.28 4.77 19.86 1.52.56 3.05 1.11 4.56 1.71 2.38.96 4.72 2.02 7.09 3.03.93.47 1.85.95 2.77 1.45-1.11.17-2.22.36-3.33.56-3.98-.79-8.4-1.34-11.58-4.04-3.09-4.83-3.52-10.79-4.81-16.25-1.68-7.19-1.16-14.6-.27-21.85z" fill="#f6d238"/><path d="m235.17 216.57c10.83-1 21.74-.96 32.59-1.56l1.02.98c.15 7.76-1.19 15.61-3.64 22.98-1.02 3.7-5.15 4.66-8.18 6.17-6.61 3.09-13.68 4.99-20.64 7.13-.17-.54-.52-1.62-.69-2.15 6.3-2.87 12.58-5.79 18.96-8.47 2.39-1.16 5.31-2.11 6.47-4.74 2.73-5.52 3.34-11.74 3.96-17.77-2.85-.55-5.7-1.1-8.59-1.32-7.61-.87-15.29-.16-22.92-.71.41-.13 1.24-.4 1.66-.54z" fill="#cc7841"/><path d="m303.7 216.2c1.44-.46 2.88-.92 4.32-1.37 2.75 1.88 5.62 3.95 7.01 7.11 2.41 5.2 4.52 11.12 2.93 16.89-1.19 6.14-6.02 10.48-8.86 15.81-1.43 2.34-2.75 4.83-4.82 6.68-1.71 1.44-4.12 1.14-6.19 1.38.23-.73.71-2.2.95-2.93 2.6-.34 4.6-2.08 6.42-3.82-2.79-.51-5.58-1.04-8.34-1.66 1.65-1.02 3.31-2.03 5.03-2.93 4.25-1.75 8.45-4.45 10.28-8.88 4.79-9.21.32-21.54-8.73-26.28z" fill="#651f01"/><path d="m125.32 216.6c1.27.54 2.55 1.08 3.84 1.58-2.7 1.83-6.9 3.12-7.18 6.95-.11 4.01 2.18 7.62 2.54 11.58.43 4.34-.04 8.7-.07 13.05 1.44-.23 2.88-.46 4.32-.68-1.08 1.45-2.17 2.9-3.25 4.36-1.51-.6-3.04-1.15-4.56-1.71-1.72-6.58-3.42-13.18-4.77-19.86-.36-2.96-1.02-6.33.47-9.07 2.56-2.48 5.75-4.17 8.66-6.2z" fill="#fbd61a"/><path d="m149.37 215.5c2.54 0 5.05.59 7.21 1.97-.32 2.58-.65 5.16-.81 7.76-.49-1.72-1.07-3.42-1.72-5.08-1.19-1.89-2.81-3.45-4.68-4.65z" fill="#9c6934"/><path d="m157.67 218.18c.46-.41 1.37-1.25 1.83-1.67-.11 10.13 1.41 20.31 4.65 29.91 1.25 4.16 2.63 8.33 4.9 12.07-1.4-.06-2.8.03-4.17.28-.58-1.2-1.15-2.4-1.71-3.61-4.41-9.38-6.65-19.62-7.4-29.93.16-2.6.49-5.18.81-7.76.45 2.18.78 4.38 1.13 6.58-.02-1.96-.04-3.91-.04-5.87z" fill="#702501"/><path d="m159.5 216.51c8.43 1.38 17 .84 25.5 1.02 16.17-.1 32.36.33 48.51-.42 7.63.55 15.31-.16 22.92.71-.75.17-2.27.5-3.03.66-9.13.56-18.28 1.16-27.42.69-3.19-.19-6.32.49-9.35 1.38-15.92 1.41-31.94.23-47.9.37-1.59.03-3.18.11-4.76.18-.42 7.52-.21 15.28 2.68 22.35 1.83 4.28 3.12 9.03 6.29 12.55 4.26 1.78 9.08 1.43 13.59 2.17-4.91 2.44-10.44 2.24-15.77 2.27-.42-.49-1.28-1.46-1.71-1.95-2.27-3.74-3.65-7.91-4.9-12.07-3.24-9.6-4.76-19.78-4.65-29.91z" fill="#eab856"/><path d="m131.71 219.05c3.36-.06 6.7-.41 10.04-.76 2.47.8 4.89 1.76 7.4 2.42 4.12 10.75 2.5 22.84 7.93 33.16-1.02 1.11-2.05 2.21-3.07 3.32-6.17 1.03-12.44.12-18.63.73-.92-.5-1.84-.98-2.77-1.45.54-.09 1.63-.28 2.17-.37 5.29-.81 10.68-.5 15.97-1.29-.13-6.2.05-12.48-1.28-18.56-1.19-4.09-3.6-7.69-5.81-11.28-1.33-2.38-4.02-3.29-6.43-4.15-1.83-.61-3.68-1.18-5.52-1.77z" fill="#f0a123"/><path d="m253.4 218.48c.76-.16 2.28-.49 3.03-.66 2.89.22 5.74.77 8.59 1.32-.62 6.03-1.23 12.25-3.96 17.77-1.16 2.63-4.08 3.58-6.47 4.74-6.38 2.68-12.66 5.6-18.96 8.47-2.95-.02-5.9-.09-8.85.04.4-.57 1.2-1.7 1.59-2.27 1.73-.1 3.46-.32 5.17-.63 3.77-1.46 7.11-3.82 10.12-6.49 4.6-1.93 10.02-2.72 13.61-6.45 2.41-3.4 3.33-8.23 1.81-12.16-1.57-.74-3.23-1.27-4.83-1.92l-.4-.86z" fill="#d2671d"/><path d="m89.05 231.11c1.95-4.04 3.99-8.05 5.61-12.24.54 1.04 1.09 2.09 1.64 3.14-2.11 3.76-2.15 8.88-6.16 11.33-.27-.56-.81-1.68-1.09-2.23z" fill="#ecd0c3"/><path d="m121.98 225.13c.28-3.83 4.48-5.12 7.18-6.95.64.21 1.91.65 2.55.87 1.84.59 3.69 1.16 5.52 1.77-2.01 2.07-4.5 3.93-5.53 6.72.3 3.17 1.8 6.07 2.49 9.16 1 4.41 1.93 8.84 2.64 13.3.5 2.27-.94 4.26-2.05 6.1-.54.09-1.63.28-2.17.37-2.37-1.01-4.71-2.07-7.09-3.03 1.08-1.46 2.17-2.91 3.25-4.36-1.44.22-2.88.45-4.32.68.03-4.35.5-8.71.07-13.05-.36-3.96-2.65-7.57-2.54-11.58z" fill="#f6c207"/><path d="m216.63 220.55c3.03-.89 6.16-1.57 9.35-1.38 9.14.47 18.29-.13 27.42-.69l.45.9c-3.83 1.77-7.78 3.34-11.89 4.31-7.28.25-14.57.44-21.81 1.32-3.62.25-7.24.4-10.85.56-3.36-.65-6.61-1.74-9.9-2.65 5.76-.57 11.65-.63 17.23-2.37z" fill="#e8991d"/><path d="m278.83 220.76c2.99-1.49 6.47-1 9.7-1.25.19 1.7.43 3.4.69 5.11 1.68.11 3.37.22 5.06.34.88-1.86 1.39-4.14 3.16-5.37 1.59-.26 3.22-.12 4.82-.06l-.31.67c-1.23 2.96-2.52 5.92-4.34 8.59-2.08.05-4.21.36-6.27-.09-3.49-1.45-5.96-5.07-9.85-5.54-2.68-.32-4 2.44-4.94 4.46-2.41 5.1-1.68 10.85-1.4 16.28-.52.4-1.55 1.18-2.06 1.58 1.38 1.27 2.75 2.56 4.15 3.82l.49.43c-2.37.51-4.72 1.04-7.06 1.66-.48.13-1.43.4-1.91.53 2.51-4.8 3.71-10.19 3.56-15.61-1 .47-2 .95-3 1.43 1.49-5.43 2.38-11 3.78-16.44-.05 2.99-.05 5.98-.03 8.98 1.74-3.26 3.02-6.94 5.76-9.52z" fill="#f9ee52"/><path d="m288.53 219.51c1.73-.06 3.47-.09 5.21-.12.24 1.85.46 3.7.54 5.57-1.69-.12-3.38-.23-5.06-.34-.26-1.71-.5-3.41-.69-5.11z" fill="#312600"/><path d="m149.15 220.71c1.64-.1 3.27-.33 4.9-.56.65 1.66 1.23 3.36 1.72 5.08.75 10.31 2.99 20.55 7.4 29.93-3.03.75-6.08 1.5-9.16 2.03 1.02-1.11 2.05-2.21 3.07-3.32-5.43-10.32-3.81-22.41-7.93-33.16z" fill="#d68730"/><path d="m241.96 223.69c4.11-.97 8.06-2.54 11.89-4.31l.4.86c-1.18 4.2-1.49 8.99-4.53 12.39-2.23 2.55-4.27 5.26-6.06 8.14-3.01 2.67-6.35 5.03-10.12 6.49-.15-3.25-.53-6.54-.02-9.77 2.99-2.41 7.15-2.6 10.2-4.89 2.2-2.84-.77-6.18-1.76-8.91z" fill="#fc8514"/><path d="m77.93 239.09c2.65-5.76 4.03-12 6.28-17.92.02 1.41.11 2.82.15 4.23-1.18 3.33-1.09 6.91.41 10.14 1.49-1.42 3-2.83 4.28-4.43.28.55.82 1.67 1.09 2.23-5.74 4.1-10.22 9.99-12.2 16.79-1.71 5.14-1.22 10.6-.8 15.9-1.34-1.79-2.71-3.56-3.99-5.4-1.32-6.3.98-12.7.48-19.08 1.43-.82 2.88-1.62 4.3-2.46z" fill="#dfdea0"/><path d="m96.3 222.01c.73-.18 2.19-.53 2.92-.7-.43 2.68-.82 5.37-1.17 8.07 1.23.03 2.47.05 3.7.06 2.09.04 4.2.08 6.28-.2.5-.08 1.51-.25 2.01-.33.34 1.34.67 2.69.96 4.05.83 5.51 2.01 10.97 3.85 16.24 1.1 3.89 2.85 7.54 4.35 11.27.73 1.94 1.4 3.91 2.28 5.79 3.61 4.99 7.4 10.06 12.55 13.58 5.79 3.78 12.36 6.07 18.68 8.78 2.68-4.13 6.46-7.48 11.21-8.98.81.87 1.61 1.74 2.42 2.62-2.99 1.16-5.78 2.79-8.32 4.75-.83 2.04-2.61 4.68-.85 6.72 2.63 3.11 6.69 4.94 10.76 4.98 6.52.15 13.77.61 19.32-3.48 2.28-1.69 4.77-4.5 4.02-7.55-1.42-2.3-3.94-3.55-6.22-4.84-3.24-1.37-5.41-4.11-7.01-7.13 1.5.27 3.01.51 4.51.81 6.21 3.91 11.61 10.09 19.38 10.56 6.61 1.23 13.22-.37 19.82-.76 1.9.57 3.77 1.23 5.65 1.89-9.03 3.48-18.96 3.82-28.45 2.45-1.33-.13-2.66-.23-3.99-.31-1.37 3.48-3.33 6.97-6.76 8.78-4.01 2.51-8.82 2.81-13.33 3.75-1.52.46-3.01 1.03-4.5 1.59-1.29-.66-2.58-1.32-3.91-1.88-3.33-1.14-7.14-1.68-9.69-4.33-2.59-2.37-4.2-5.9-7.57-7.33-4.49-2.11-9.22-3.61-13.72-5.68-13.27-7.57-20.58-22.08-24.49-36.31-1.59-5.04-.68-11.12-4.05-15.41-3.87-.41-8.01-.81-11.75.43-6.36 3.75-11.6 9.88-13.14 17.24-1.41 6.62-.99 14.57 4.16 19.56 3.54 4.1 8.77 5.84 13.62 7.81-1.8.34-3.6.7-5.43.88l-3.41.12c-.44.57-1.34 1.71-1.78 2.28-.33.42-.99 1.25-1.32 1.67-3.27-2.41-3.51-6.51-3.35-10.22-.6-.02-1.79-.05-2.38-.06 1.36 5.03 2.39 10.15 2.84 15.35l-2.56.48c-1.26-2.58-2.62-5.11-3.83-7.71-1.09-4.4-1.42-8.98-.76-13.48.97-5.9-.57-11.83.09-17.75 1.98-6.8 6.46-12.69 12.2-16.79 4.01-2.45 4.05-7.57 6.16-11.33z" fill="#392506"/><path d="m137.23 220.82c2.41.86 5.1 1.77 6.43 4.15 2.21 3.59 4.62 7.19 5.81 11.28 1.33 6.08 1.15 12.36 1.28 18.56-5.29.79-10.68.48-15.97 1.29 1.11-1.84 2.55-3.83 2.05-6.1-.71-4.46-1.64-8.89-2.64-13.3-.69-3.09-2.19-5.99-2.49-9.16 1.03-2.79 3.52-4.65 5.53-6.72z" fill="#f9a906"/><path d="m163.97 221.1c1.58-.07 3.17-.15 4.76-.18-2.22 2.29-3.11 5.4-2.23 8.51 1.82 8.19 3.29 16.88 8.23 23.88 7.54 3.36 15.36-.94 23.05-1.18.88.97 1.77 1.96 2.65 2.95-.69.32-2.06.96-2.74 1.28-3.59 1.23-7.34 2.11-11.16 1.81-4.51-.74-9.33-.39-13.59-2.17-3.17-3.52-4.46-8.27-6.29-12.55-2.89-7.07-3.1-14.83-2.68-22.35z" fill="#eeac2a"/><path d="m168.73 220.92c15.96-.14 31.98 1.04 47.9-.37-5.58 1.74-11.47 1.8-17.23 2.37-7.5-.3-15.1-.5-22.48 1.15-1.2.25-2.41.53-3.61.82.73 1.06 1.46 2.13 2.19 3.2-1.4 2.97-3.42 6.02-2.91 9.46.56 4.16 2.03 8.13 3.1 12.18l-.96 3.58c-4.94-7-6.41-15.69-8.23-23.88-.88-3.11.01-6.22 2.23-8.51z" fill="#fac71f"/><path d="m254.25 220.24c1.6.65 3.26 1.18 4.83 1.92 1.52 3.93.6 8.76-1.81 12.16-3.59 3.73-9.01 4.52-13.61 6.45 1.79-2.88 3.83-5.59 6.06-8.14 3.04-3.4 3.35-8.19 4.53-12.39z" fill="#e46409"/><path d="m297.61 228.79c1.82-2.67 3.11-5.63 4.34-8.59.36.17 1.08.52 1.44.69-.79 2.61-.64 5.32.05 7.93-.36 1.92-1.24 3.89-.85 5.86 1.37 1.35 3.13 2.22 4.77 3.21.22 1.32.45 2.64.68 3.97-2.88 3.26-6.11 6.19-9.11 9.34a590.5 590.5 0 0 1 -5.93-.42c-.73 1.3-1.47 2.6-2.16 3.93-.14-2.6.07-5.64-2-7.57-1.96-2.39-5.16-2.75-8-3.14.72 1.23 1.45 2.47 2.29 3.65-1.96.56-3.93 1.1-5.89 1.65-1.4-1.26-2.77-2.55-4.15-3.82.51-.4 1.54-1.18 2.06-1.58 1.93-1.5 3.75-3.13 5.61-4.72 4.59.97 8.7 3.33 13.17 4.62 2.34-.19 3.53-2.57 4.38-4.46 1.64-3.61 1.4-7.67 1.12-11.53-.59.36-1.79 1.07-2.39 1.43zm7.49 15.14c2.08-2.05 2.69-6.22-1.15-6.49-2.73 2.03-.92 4.87 1.15 6.49z" fill="#e4c636"/><path d="m303.39 220.89c3.48.85 5.13 3.84 5.99 7.07-1.98.31-3.96.59-5.94.86-.69-2.61-.84-5.32-.05-7.93z" fill="#563c00"/><path d="m176.92 224.07c7.38-1.65 14.98-1.45 22.48-1.15 3.29.91 6.54 2 9.9 2.65-3.85.53-7.59 1.64-11.34 2.63 1.36.56 2.72 1.15 4.08 1.72-2.82 2.22-6.6 3.98-7.97 7.5-.51 5.1.17 10.72 3.71 14.71-7.69.24-15.51 4.54-23.05 1.18l.96-3.58c2.74.99 5.58 1.89 8.54 1.82-.57-2.48-1.79-4.81-2.02-7.35 1.54-3.39 4.64-5.73 7.18-8.35-2.42-3.28-7.12-5.91-6.48-10.54-2.07.38-4.15.74-6.22 1.09.06-.58.18-1.75.23-2.33z" fill="#fbb60f"/><path d="m276.55 227.62c.94-2.02 2.26-4.78 4.94-4.46 3.89.47 6.36 4.09 9.85 5.54 2.06.45 4.19.14 6.27.09l-.57.45c-5.31 3.5-11.4 5.79-16.28 9.94-1.86 1.59-3.68 3.22-5.61 4.72-.28-5.43-1.01-11.18 1.4-16.28z" fill="#f8f224"/><path d="m173.31 224.89c1.2-.29 2.41-.57 3.61-.82-.05.58-.17 1.75-.23 2.33 2.07-.35 4.15-.71 6.22-1.09-.64 4.63 4.06 7.26 6.48 10.54-2.54 2.62-5.64 4.96-7.18 8.35.23 2.54 1.45 4.87 2.02 7.35-2.96.07-5.8-.83-8.54-1.82-1.07-4.05-2.54-8.02-3.1-12.18-.51-3.44 1.51-6.49 2.91-9.46-.73-1.07-1.46-2.14-2.19-3.2z" fill="#f9c504"/><path d="m220.15 225.01c7.24-.88 14.53-1.07 21.81-1.32.99 2.73 3.96 6.07 1.76 8.91-3.05 2.29-7.21 2.48-10.2 4.89-.51 3.23-.13 6.52.02 9.77-1.71.31-3.44.53-5.17.63-2.31-.39-4.59-.94-6.9-1.3-3.74-2.72-7.54-5.8-8.75-10.5 2.73-1.39 5.43-2.84 8.14-4.28-1.27-.91-2.53-1.82-3.79-2.72 1.03-1.36 2.05-2.72 3.08-4.08z" fill="#f99507"/><path d="m209.3 225.57c3.61-.16 7.23-.31 10.85-.56-1.03 1.36-2.05 2.72-3.08 4.08 1.26.9 2.52 1.81 3.79 2.72-2.71 1.44-5.41 2.89-8.14 4.28 1.21 4.7 5.01 7.78 8.75 10.5-7.94 1.76-15.33 5.98-23.69 5.54-3.54-3.99-4.22-9.61-3.71-14.71 1.37-3.52 5.15-5.28 7.97-7.5-1.36-.57-2.72-1.16-4.08-1.72 3.75-.99 7.49-2.1 11.34-2.63z" fill="#fcab03"/><path d="m297.04 229.24c.6-.36 1.8-1.07 2.39-1.43.28 3.86.52 7.92-1.12 11.53-.85 1.89-2.04 4.27-4.38 4.46-4.47-1.29-8.58-3.65-13.17-4.62 4.88-4.15 10.97-6.44 16.28-9.94z" fill="#dbc90a"/><path d="m303.44 228.82c1.98-.27 3.96-.55 5.94-.86.82 2.28 1.89 4.52 2.25 6.95-.42 2.62-2.11 4.82-3.59 6.95-.23-1.33-.46-2.65-.68-3.97-1.64-.99-3.4-1.86-4.77-3.21-.39-1.97.49-3.94.85-5.86z" fill="#d9c355"/><path d="m269.32 237.74c1-.48 2-.96 3-1.43.15 5.42-1.05 10.81-3.56 15.61-.26.32-.79.95-1.06 1.26-.76-1.09-1.52-2.18-2.27-3.26 1.41-4.02 2.7-8.09 3.89-12.18z" fill="#fbe890"/><path d="m305.1 243.93c-2.07-1.62-3.88-4.46-1.15-6.49 3.84.27 3.23 4.44 1.15 6.49z" fill="#4e3400"/><path d="m97.45 241.41c1.04-2.02 4.7-.69 4.12 1.55.27 1.97-2.06 2.96-3.71 2.64-.92-1.36-2.26-2.94-.41-4.19z" fill="#1e1e04"/><path d="m280.84 244c2.84.39 6.04.75 8 3.14 2.07 1.93 1.86 4.97 2 7.57-.51 1.07-1.02 2.15-1.53 3.23.35.51 1.04 1.52 1.38 2.03 1.22 1.86 2.36 3.79 3.34 5.8.77 3.08 1.32 6.23 1.73 9.38 1.22 8.19-1.95 16.29-6.95 22.66-4.42 5.57-9.86 10.44-16.19 13.73-12.57 6.44-26.45 10.56-40.63 10.93-7.34.11-14.7.2-22.03-.3-6.83-.44-13.39-2.5-19.94-4.34-4.24-2.44-8.93-4.06-12.9-6.96-2.39-1.98-4.54-4.23-6.75-6.4 1.49-.56 2.98-1.13 4.5-1.59 3.82 6.49 11.37 8.71 18 11.16 2.93 1.06 5.84 2.24 8.91 2.85 4.35.94 8.76 1.66 13.22 1.72 10.01.08 20.15.65 29.99-1.66 13.3-2.19 26.53-7.18 36.57-16.41 6.3-5.67 10.53-13.96 10.11-22.56.13-8.59-3.18-18.61-11.88-21.93a177.95 177.95 0 0 1 -5.9-3.29c2.03-.41 4.07-.82 6.14-1.06 2.41.81 5.93 4.79 7.68 1.39-.84-2.32-2.92-3.76-4.58-5.44-.84-1.18-1.57-2.42-2.29-3.65z" fill="#642500"/><path d="m91.24 247.08c.76 1.18 2.96 2.43 1.8 4.02-.65 1.81-2.9 1.31-4.38 1.81-.48-2.43 1.03-4.2 2.58-5.83z" fill="#3e390e"/><path d="m197.78 252.13c8.36.44 15.75-3.78 23.69-5.54 2.31.36 4.59.91 6.9 1.3-.39.57-1.19 1.7-1.59 2.27-6.46.35-12.24 3.5-18.37 5.2-3.49 1.01-7.14.88-10.72 1 .68-.32 2.05-.96 2.74-1.28-.88-.99-1.77-1.98-2.65-2.95z" fill="#ef9d1f"/><path d="m245.62 253.68c5.77-1.53 11.07-4.33 16.52-6.71-1.34 3.56-2.98 6.98-4.76 10.34-7.12 14.12-20.64 24.43-35.63 29.01-6.6.39-13.21 1.99-19.82.76-7.77-.47-13.17-6.65-19.38-10.56-3.5-3.24-6.69-6.87-9.02-11.05 3.15 0 6.33-.14 9.46.28 2.42.66 4.59 1.96 6.89 2.92 4.02.16 8.09.37 12.07-.31 3.56-1.13 6.82-3.09 9.57-5.59 5.7-1.75 11.6-2.75 17.38-4.17 5.67-1.31 11.11-3.41 16.72-4.92z" fill="#f9f8f2"/><path d="m329.26 247.23c1.1.41 2.21.81 3.34 1.2 1.7.57 3.42 1.06 5.16 1.54-.17.35-.51 1.06-.67 1.42-1.29.4-2.57.8-3.84 1.2-.06 1.05-.12 2.11-.17 3.17-3.1-1.09-6.17-2.4-9.45-2.82-3.39-.38-6.34 1.82-8.68 3.99-2.72 2.61-5.38 5.33-7.53 8.43-1.77 2.36-1.19 5.46-1.3 8.2 4.71 1.64 9.14 4 13.28 6.79-.75 1.31-1.5 2.63-2.18 3.98-1.86-.5-3.71-.98-5.53-1.57-1.63-.62-3.21-1.35-4.8-2.05-.88 1.4-1.76 2.8-2.57 4.24-.24-.96-.47-1.91-.7-2.87-1.29-.53-2.58-1.07-3.87-1.6-.7-3.13-1.42-6.26-2.17-9.38 1.25-1.11 2.59-2.1 3.9-3.13-1.5-.66-2.99-1.34-4.52-1.92.37-1.12.75-2.23 1.13-3.35 2.07-.24 4.48.06 6.19-1.38 2.07-1.85 3.39-4.34 4.82-6.68 3.91-2 7.41-4.69 11.29-6.75 1.26 1.08 2.52 2.15 3.79 3.23 1.69-1.3 3.38-2.59 5.08-3.89z" fill="#d66528"/><path d="m277.24 249.3c1.96-.55 3.93-1.09 5.89-1.65 1.66 1.68 3.74 3.12 4.58 5.44-1.75 3.4-5.27-.58-7.68-1.39-.78-.65-1.55-1.31-2.3-1.97z" fill="#f9de97"/><path d="m337.76 249.97c.28-.61.83-1.83 1.11-2.44 1.23.34 2.46.69 3.7 1.04.42 1.13.85 2.27 1.29 3.4.67 1.77 1.47 3.48 2.29 5.18 4.9 7.95 2.03 17.57.3 26.02-.93-.71-1.85-1.43-2.77-2.14-1.27 3.75-2.58 7.51-4.53 10.98l-.72-2.92c-1.49.4-2.98.81-4.46 1.2-.17-1.75-.37-3.49-.71-5.21-1.48.07-2.96.19-4.44.32-.54 2.12-1.1 4.25-1.82 6.33-1.48-1.21-2.95-2.42-4.43-3.61.19-1.8.35-3.61.52-5.4.92-.12 1.84-.22 2.77-.3 3.02 0 6.02.36 9.04.45 1.72-.28 3.44-.65 5.12-1.16 4.74-4.5 5.18-11.61 5.6-17.74.31-5.69-3.78-10.14-8.53-12.58.16-.36.5-1.07.67-1.42z" fill="#c67046"/><path d="m77.14 266.03c-.42-5.3-.91-10.76.8-15.9-.66 5.92.88 11.85-.09 17.75-.66 4.5-.33 9.08.76 13.48-.75-1.48-1.56-2.92-2.36-4.37-.16 2.07-.35 4.14-.44 6.22-2.61-7.27-.3-15.22-2.66-22.58 1.28 1.84 2.65 3.61 3.99 5.4z" fill="#867274" opacity=".9"/><path d="m208.41 255.36c6.13-1.7 11.91-4.85 18.37-5.2 2.95-.13 5.9-.06 8.85-.04.17.53.52 1.61.69 2.15-7.59 2.54-15.45 4.11-23.24 5.91-13.59 1.09-27.13 4.49-40.82 2.78-.37-.13-1.12-.39-1.5-.52 5.33-.03 10.86.17 15.77-2.27 3.82.3 7.57-.58 11.16-1.81 3.58-.12 7.23.01 10.72-1z" fill="#d18c3e"/><path d="m227.4 288.21c17.71-6.17 31.24-21.07 38.03-38.29.75 1.08 1.51 2.17 2.27 3.26-4.25 4.98-5.33 11.88-9.82 16.71-5.23 5.72-10.21 11.91-16.79 16.17-6.61 2.78-13.36 5.35-20.39 6.87-7.56 1.72-15.43.13-22.97 2.02.88-.87 1.77-1.72 2.66-2.56-.48-.58-.97-1.16-1.44-1.73 9.49 1.37 19.42 1.03 28.45-2.45z" fill="#e4d27a"/><path d="m270.67 251.39c2.34-.62 4.69-1.15 7.06-1.66.75.66 1.52 1.32 2.3 1.97-2.07.24-4.11.65-6.14 1.06 1.94 1.13 3.91 2.23 5.9 3.29-2.13.02-4.25.19-6.36.36 3.43 2.25 7.41 3.81 10.32 6.76 2.09 3.66 3.07 7.84 4.22 11.86.82 2.68.24 5.49-.59 8.09-.46.38-1.39 1.14-1.86 1.52-.5-1.27-1-2.55-1.49-3.81.6.12 1.81.37 2.42.5-.82-6.12-2.6-12.05-5-17.73-1.98.01-3.97.03-5.95.05-1.25-1.56-2.5-3.11-3.75-4.66-1.02.17-2.03.36-3.04.54-.84 3.14-1.37 6.43-2.87 9.35-1.9 2.49-5 3.69-7.01 6.08-.71 2.42.41 4.91.89 7.27-3.25 5.29-9.28 7.63-13.35 12.12-1.17-.23-2.34-.47-3.5-.71-.62 1.1-1.23 2.2-1.84 3.31 6.06.56 12.58 2.42 18.34-.47 4.44-2.23 8.7-5.05 13.73-5.78-7.85 6.5-16.51 12.71-26.7 14.78-.05 1.42-.11 2.84-.15 4.27-5.29 1.99-10.9 2.71-16.53 2.25.25-.43.75-1.28 1-1.71 1.41-2.39 3.31-4.42 4.94-6.66 2.46-3.93 3.52-8.49 4.54-12.95 2.85-1.09 5.88-2.16 8-4.47 2.64-2.82 4.35-6.34 6.57-9.48 2.79-4.13 6.96-7.26 8.94-11.92 2.06-4.61 4.52-9.01 6.96-13.42z" fill="#e0c92a"/><path d="m293 250.78c1.98.15 3.95.29 5.93.42l3.22.16c-1.72.9-3.38 1.91-5.03 2.93 2.76.62 5.55 1.15 8.34 1.66-1.82 1.74-3.82 3.48-6.42 3.82-2.78.06-5.57.07-8.35.2-.34-.51-1.03-1.52-1.38-2.03.51-1.08 1.02-2.16 1.53-3.23.69-1.33 1.43-2.63 2.16-3.93z" fill="#efbb6b"/><path d="m267.7 253.18c.27-.31.8-.94 1.06-1.26.48-.13 1.43-.4 1.91-.53-2.44 4.41-4.9 8.81-6.96 13.42-1.98 4.66-6.15 7.79-8.94 11.92-2.22 3.14-3.93 6.66-6.57 9.48-2.12 2.31-5.15 3.38-8 4.47.29-1.54.59-3.08.89-4.62 6.58-4.26 11.56-10.45 16.79-16.17 4.49-4.83 5.57-11.73 9.82-16.71z" fill="#dbc243"/><path d="m314.95 256.93c2.34-2.17 5.29-4.37 8.68-3.99 3.28.42 6.35 1.73 9.45 2.82-.34 5.24.47 10.59-.9 15.73-1.28 4.06-4.18 7.31-6.32 10.93-.93.08-1.85.18-2.77.3-1.24-.79-2.47-1.58-3.69-2.37-4.14-2.79-8.57-5.15-13.28-6.79.11-2.74-.47-5.84 1.3-8.2 2.15-3.1 4.81-5.82 7.53-8.43z" fill="#e0600a"/><path d="m333.25 252.59c1.27-.4 2.55-.8 3.84-1.2 4.75 2.44 8.84 6.89 8.53 12.58-.42 6.13-.86 13.24-5.6 17.74-.61-4.92.84-9.69 2.57-14.23 1.79-4.53-1.89-8.73-3.69-12.62-.95 2.61-1.6 5.34-1.82 8.12-.53 6.65-1.89 13.21-2.18 19.89-3.02-.09-6.02-.45-9.04-.45 2.14-3.62 5.04-6.87 6.32-10.93 1.37-5.14.56-10.49.9-15.73.05-1.06.11-2.12.17-3.17z" fill="#f1832e"/><path d="m154.01 257.19c3.08-.53 6.13-1.28 9.16-2.03.56 1.21 1.13 2.41 1.71 3.61-9.34 2.98-19.22 2.85-28.9 2.76-3.31.01-6.5-.95-9.63-1.91 1.91-.34 3.8-.77 5.7-1.14 1.11-.2 2.22-.39 3.33-.56 6.19-.61 12.46.3 18.63-.73z" fill="#e2ac58"/><path d="m337.08 262.98c.22-2.78.87-5.51 1.82-8.12 1.8 3.89 5.48 8.09 3.69 12.62-1.73 4.54-3.18 9.31-2.57 14.23-1.68.51-3.4.88-5.12 1.16.29-6.68 1.65-13.24 2.18-19.89z" fill="#e46e0b"/><path d="m273.43 256.41c2.11-.17 4.23-.34 6.36-.36 8.7 3.32 12.01 13.34 11.88 21.93.42 8.6-3.81 16.89-10.11 22.56-10.04 9.23-23.27 14.22-36.57 16.41-9.84 2.31-19.98 1.74-29.99 1.66-4.46-.06-8.87-.78-13.22-1.72 5.27.45 10.53-.2 15.74-.86 1.58-.04 3.16-.09 4.74-.13-.16-.66-.31-1.32-.47-1.98 1.61-.11 3.22-.21 4.84-.3 4.18.92 8.52 1.71 12.76.61 9.86-2.24 19.75-4.74 29.02-8.85 5.58-2.35 9.61-7.04 13.44-11.54 2.66-3.08 4.37-6.85 5.53-10.72.83-2.6 1.41-5.41.59-8.09-1.15-4.02-2.13-8.2-4.22-11.86-2.91-2.95-6.89-4.51-10.32-6.76z" fill="#f0c563"/><path d="m164.88 258.77c1.37-.25 2.77-.34 4.17-.28.43.49 1.29 1.46 1.71 1.95.38.13 1.13.39 1.5.52 8.45 2.1 17.27 1.02 25.88 1.16-2.55 2.43-5.32 4.6-8.26 6.55-2.3-.96-4.47-2.26-6.89-2.92-3.13-.42-6.31-.28-9.46-.28 2.33 4.18 5.52 7.81 9.02 11.05-1.5-.3-3.01-.54-4.51-.81l-.66-.41c-5.1-2.36-6.95-7.93-10.43-11.83-5.55.05-11.06 1.19-16.6 1.65-3.86-2.17-8.3-2.13-12.56-1.67-.75 1.38-1.5 2.75-2.25 4.12l-2.44.52c-3.53-2.64-7.16-5.29-11.61-6.09 0 1.06-.01 3.2-.01 4.26-.88-1.88-1.55-3.85-2.28-5.79 2.38-.33 4.76-.68 7.15-.85 3.13.96 6.32 1.92 9.63 1.91 9.68.09 19.56.22 28.9-2.76z" fill="#512d12"/><path d="m346.15 257.15c1.22.58 2.44 1.17 3.67 1.75 1.63 8.84 1.54 19.09-3.92 26.67.19-.8.37-1.6.55-2.4 1.73-8.45 4.6-18.07-.3-26.02z" fill="#513d25" opacity=".91"/><path d="m172.26 260.96c13.69 1.71 27.23-1.69 40.82-2.78-1.39.66-2.74 1.4-4.12 2.07-3.56.9-7.17 1.57-10.82 1.87-8.61-.14-17.43.94-25.88-1.16z" fill="#844a1a"/><path d="m102.15 259.42c.74 0 2.24-.01 2.98-.01-1.1 3.72-3.11 7.46-2.32 11.45 3.28-.17 4.5-3.97 6.78-5.83 1.24 2.45.2 4.85-.84 7.14-1.26 3.55-.71 7.44-1.02 11.14-.43-1.73-.86-3.46-1.3-5.18-.49 1.37-.98 2.73-1.43 4.11-.22-2.06-.47-4.13-.93-6.15-1.7-2.27-4.77-3.96-4.83-7.08-.2-3.44 1.68-6.5 2.91-9.59z" fill="#433c1a"/><path d="m268.71 259.53c1.01-.18 2.02-.37 3.04-.54 1.25 1.55 2.5 3.1 3.75 4.66 1.98-.02 3.97-.04 5.95-.05 2.4 5.68 4.18 11.61 5 17.73-.61-.13-1.82-.38-2.42-.5-1.2-.18-2.41-.29-3.62-.32.02 1.96.31 3.91.59 5.85-2.59 1.51-5.21 2.98-7.9 4.34-5.03.73-9.29 3.55-13.73 5.78-5.76 2.89-12.28 1.03-18.34.47.61-1.11 1.22-2.21 1.84-3.31 1.16.24 2.33.48 3.5.71 4.07-4.49 10.1-6.83 13.35-12.12-.48-2.36-1.6-4.85-.89-7.27 2.01-2.39 5.11-3.59 7.01-6.08 1.5-2.92 2.03-6.21 2.87-9.35z" fill="#e6c715"/><path d="m290.69 259.97c2.78-.13 5.57-.14 8.35-.2-.24.73-.72 2.2-.95 2.93-.38 1.12-.76 2.23-1.13 3.35l-2.93-.28c-.98-2.01-2.12-3.94-3.34-5.8z" fill="#c37940"/><path d="m198.14 262.12c3.65-.3 7.26-.97 10.82-1.87 1.29-.16 2.59-.3 3.9-.42-.44.98-.88 1.96-1.34 2.94-2.75 2.5-6.01 4.46-9.57 5.59-3.98.68-8.05.47-12.07.31 2.94-1.95 5.71-4.12 8.26-6.55z" fill="#270200"/><path d="m91.79 261.15c1.28.17 2.56.4 3.82.69.35 1.94.07 5.27-2.7 4.8-2.41-1.01-1.21-3.56-1.12-5.49z" fill="#212200"/><path d="m121.49 262c4.45.8 8.08 3.45 11.61 6.09 5.76 2.61 12.58 1.11 17.25-2.97 5.54-.46 11.05-1.6 16.6-1.65 3.48 3.9 5.33 9.47 10.43 11.83.1.58.29 1.75.38 2.33-4.71-.39-9.43.32-13.84 2.01-4.75 1.5-8.53 4.85-11.21 8.98-6.32-2.71-12.89-5-18.68-8.78-5.15-3.52-8.94-8.59-12.55-13.58 0-1.06.01-3.2.01-4.26z" fill="#f8f8ee"/><path d="m137.79 263.45c4.26-.46 8.7-.5 12.56 1.67-4.67 4.08-11.49 5.58-17.25 2.97l2.44-.52c.75-1.37 1.5-2.74 2.25-4.12z" fill="#200a02"/><path d="m294.03 265.77 2.93.28c1.53.58 3.02 1.26 4.52 1.92-1.31 1.03-2.65 2.02-3.9 3.13a43.18 43.18 0 0 0 -1.82 4.05c-.41-3.15-.96-6.3-1.73-9.38z" fill="#a7451c"/><path d="m297.58 271.1c.75 3.12 1.47 6.25 2.17 9.38 1.29.53 2.58 1.07 3.87 1.6.23.96.46 1.91.7 2.87-1.65 3.05-3.05 6.23-4.65 9.3-2.32.48-5.04.62-6.62 2.64-3.24 3.82-5.87 8.16-9.58 11.58-2.72 2.75-6.25 4.42-9.54 6.35-3.76 2.45-7.22 5.76-11.88 6.32-14.21 2.35-28.43 5.9-42.94 5.11-7.37-.74-14.89-.67-22.05-2.84.02-.42.06-1.26.07-1.68-2.51-1.03-4.88-2.37-7.11-3.9 6.55 1.84 13.11 3.9 19.94 4.34 7.33.5 14.69.41 22.03.3 14.18-.37 28.06-4.49 40.63-10.93 6.33-3.29 11.77-8.16 16.19-13.73 5-6.37 8.17-14.47 6.95-22.66a43.18 43.18 0 0 1 1.82-4.05z" fill="#d17842"/><path d="m107.73 283.31c.31-3.7-.24-7.59 1.02-11.14-.19 3.65-.58 7.3-.31 10.96 1.13 5.34 2.35 10.78 4.94 15.63 3.14 5.31 7.58 9.78 12.51 13.45 5.83 4.23 13.34 3.55 20.14 3.5 4.26.02 8.42-1.29 12.09-3.4 3.56-2.46 6.99-5.46 8.34-9.72 1.33.56 2.62 1.22 3.91 1.88-2.26 3.58-4.7 7.08-7.77 10.01-9.28 6.54-21.69 7.52-32.33 4.15-14.56-5.72-25.06-20.69-25.27-36.39.45-1.38.94-2.74 1.43-4.11.44 1.72.87 3.45 1.3 5.18z" fill="#5e2b00"/><path d="m82.16 273.24c.59.01 1.78.04 2.38.06-.16 3.71.08 7.81 3.35 10.22.78.75 1.57 1.49 2.37 2.23-1.58 1.22-3.25 2.45-5.26 2.84-.45-5.2-1.48-10.32-2.84-15.35z" fill="#efbc7f"/><path d="m113.47 277.45c1.15-1.19 2.73-1.82 4.14-2.63-.08 1.16-.16 2.33-.25 3.5l3.17-.75c3.27 2.72 6.34 5.76 10.04 7.91 1.51 1.03 3.32.01 4.91-.23 4.5 2.07 9.23 3.57 13.72 5.68 3.37 1.43 4.98 4.96 7.57 7.33 2.55 2.65 6.36 3.19 9.69 4.33-1.35 4.26-4.78 7.26-8.34 9.72-1.7-.15-3.39-.3-5.08-.44 2.57-2.2 5.13-4.42 7.72-6.6-6.16-3.33-9.73-10.15-16.48-12.49-8.31-3.88-17.01-6.85-25.26-10.85-2.17-1.61-5.43.42-4.95 3.06.95 5.62 3.35 10.89 5.69 16.05 2.63 4.55 6.8 7.88 11.07 10.82-1.65.11-3.3.23-4.94.35-4.93-3.67-9.37-8.14-12.51-13.45-2.59-4.85-3.81-10.29-4.94-15.63 1.03.45 2.07.92 3.1 1.39.52-2.39.84-4.86 1.93-7.07z" fill="#fcf39c"/><path d="m177.38 275.3.66.41c1.6 3.02 3.77 5.76 7.01 7.13l-.78-.24c-5.88-1.25-12.02-1.51-17.93-.34-.81-.88-1.61-1.75-2.42-2.62 4.41-1.69 9.13-2.4 13.84-2.01-.09-.58-.28-1.75-.38-2.33z" fill="#564038"/><path d="m104.07 276.09c.46 2.02.71 4.09.93 6.15.21 15.7 10.71 30.67 25.27 36.39 10.64 3.37 23.05 2.39 32.33-4.15 4.26-2.93 9.53-3.28 14.52-3.61 3.97 2.9 8.66 4.52 12.9 6.96 2.23 1.53 4.6 2.87 7.11 3.9-.01.42-.05 1.26-.07 1.68-5.75-.96-10.57-5.09-16.55-4.95-4.55-.04-8.89-1.75-13.42-1.84-3.41 1.11-6.02 3.9-9.46 5.03-5.04 1.7-10.23 3.53-15.61 3.5-5.9-.62-11.41-3.08-17.19-4.3-3.54-.85-7.02-2.47-9.32-5.39-2.82-3.51-5.38-7.22-8.45-10.52-3.68-3.92-4.05-9.57-4.99-14.6.13-3.39.65-6.74 1.23-10.08.25-1.39.51-2.78.77-4.17z" fill="#d58430"/><path d="m76.25 276.99c.8 1.45 1.61 2.89 2.36 4.37 1.21 2.6 2.57 5.13 3.83 7.71-.16 1.89-.55 3.75-1 5.6-2.36-3.56-4.33-7.39-5.63-11.46.09-2.08.28-4.15.44-6.22z" fill="#d9c0a6"/><path d="m94.4 279.45c1.83-.18 3.63-.54 5.43-.88 1.17.53 2.32 1.11 3.47 1.69-.58 3.34-1.1 6.69-1.23 10.08-2.44-1.72-4.83-3.51-7.18-5.36-2.7 2.24-5.69 4.37-7.4 7.52-3.06 5.63-.95 13.09 3.8 17.09 3.62.22 7.04-1.31 10.41-2.42-.57 1.31-1.14 2.62-1.7 3.95-2.44.64-5.14.91-7.07 2.71-2.59-2.57-6-4.51-7.61-7.92-1.45-2.94-2.78-5.94-4.5-8.73.21-.84.42-1.68.62-2.51.45-1.85.84-3.71 1-5.6l2.56-.48c2.01-.39 3.68-1.62 5.26-2.84-.8-.74-1.59-1.48-2.37-2.23.33-.42.99-1.25 1.32-1.67 1.59.76 3.19 1.53 4.79 2.3.14-1.57.28-3.13.4-4.7z" fill="#e2b64b"/><path d="m89.21 281.85c.44-.57 1.34-1.71 1.78-2.28l3.41-.12c-.12 1.57-.26 3.13-.4 4.7-1.6-.77-3.2-1.54-4.79-2.3z" fill="#eabe76"/><path d="m280.41 280.51c1.21.03 2.42.14 3.62.32.49 1.26.99 2.54 1.49 3.81-4.88 5.99-10.05 11.85-16.01 16.78-7.3 3.84-14.96 7.4-23.26 8.33.04-1.43.1-2.85.15-4.27 10.19-2.07 18.85-8.28 26.7-14.78 2.69-1.36 5.31-2.83 7.9-4.34-.28-1.94-.57-3.89-.59-5.85z" fill="#f2d936"/><path d="m114.07 284.99c-.48-2.64 2.78-4.67 4.95-3.06 8.25 4 16.95 6.97 25.26 10.85-5.14-.66-10.29-1.25-15.38-2.19-.2.33-.61.98-.82 1.31.67 1.52 1.33 3.04 2 4.56-3.02 1.67-6.45 1.91-9.75 1.07-.19 1.16-.38 2.33-.57 3.51-2.34-5.16-4.74-10.43-5.69-16.05z" fill="#f8f97a"/><path d="m304.32 284.95c.81-1.44 1.69-2.84 2.57-4.24 1.59.7 3.17 1.43 4.8 2.05-.29 5.91-3.4 10.97-7.69 14.85-1.21-.36-2.41-.72-3.61-1.07l-.72-2.29c1.6-3.07 3-6.25 4.65-9.3z" fill="#590500"/><path d="m319.4 280.35c1.22.79 2.45 1.58 3.69 2.37-.17 1.79-.33 3.6-.52 5.4-.32 3.08-1.02 6.13-2.33 8.95.68-4.44.56-8.96.37-13.43-2.05 1.99-4.06 4.04-5.84 6.29.82-1.87 1.55-3.77 2.45-5.6.68-1.35 1.43-2.67 2.18-3.98z" fill="#8d3218"/><path d="m339.15 292.01c1.95-3.47 3.26-7.23 4.53-10.98.92.71 1.84 1.43 2.77 2.14-.18.8-.36 1.6-.55 2.4-2.29 6.16-3.93 12.91-8.86 17.62-.09-2.42-.18-4.83-.09-7.24.72-1.33 1.47-2.63 2.2-3.94z" fill="#320301"/><path d="m158.02 287.01c2.54-1.96 5.33-3.59 8.32-4.75 5.91-1.17 12.05-.91 17.93.34 1.12 1.29 2.24 2.57 3.38 3.85-7 3.49-14.75 5.6-22.57 5.77-3.26-.02-5.21-2.98-7.06-5.21z" fill="#f5cdb8"/><path d="m184.27 282.6.78.24c2.28 1.29 4.8 2.54 6.22 4.84.75 3.05-1.74 5.86-4.02 7.55-5.55 4.09-12.8 3.63-19.32 3.48-4.07-.04-8.13-1.87-10.76-4.98-1.76-2.04.02-4.68.85-6.72 1.85 2.23 3.8 5.19 7.06 5.21 7.82-.17 15.57-2.28 22.57-5.77-1.14-1.28-2.26-2.56-3.38-3.85z" fill="#d29f8a"/><path d="m285.52 284.64c.47-.38 1.4-1.14 1.86-1.52-1.16 3.87-2.87 7.64-5.53 10.72-3.83 4.5-7.86 9.19-13.44 11.54-9.27 4.11-19.16 6.61-29.02 8.85-4.24 1.1-8.58.31-12.76-.61 1.04-.53 2.07-1.07 3.09-1.62 5.63.46 11.24-.26 16.53-2.25 8.3-.93 15.96-4.49 23.26-8.33 5.96-4.93 11.13-10.79 16.01-16.78z" fill="#d6bb36"/><path d="m311.69 282.76c1.82.59 3.67 1.07 5.53 1.57-.9 1.83-1.63 3.73-2.45 5.6-1.82 3.14-4.13 5.96-6.19 8.94-.26 2.34-.24 4.7-.22 7.05-.77.39-1.54.78-2.3 1.18-.72-3.16-1.42-6.32-2.06-9.49 4.29-3.88 7.4-8.94 7.69-14.85z" fill="#c27a68"/><path d="m314.77 289.93c1.78-2.25 3.79-4.3 5.84-6.29.19 4.47.31 8.99-.37 13.43-1.18 2.56-2.65 4.98-4.05 7.42l-.54.65c6.44.12 12.88.25 19.32.04-7.9 1.67-16.72-1.13-23.86 3.55-.55-3.35-1.47-6.63-2.53-9.86 2.06-2.98 4.37-5.8 6.19-8.94z" fill="#450400"/><path d="m87.49 292.5c1.71-3.15 4.7-5.28 7.4-7.52 2.35 1.85 4.74 3.64 7.18 5.36.94 5.03 1.31 10.68 4.99 14.6 3.07 3.3 5.63 7.01 8.45 10.52 2.3 2.92 5.78 4.54 9.32 5.39-.05.52-.14 1.57-.18 2.09 1.14.34 2.27.69 3.41 1.06-1.17 1.04-2.33 2.09-3.49 3.14 2.04 2.72 3.49 5.86 3.58 9.32-6.11 0-12.44.47-18.24-1.83l2.28-2.08c-2.19-2.95-4.48-5.81-6.84-8.62 1.56-4.94 1.22-10.14-.34-15.03-.24.35-.73 1.05-.98 1.4-1.34.29-2.69.53-4.03.82.56-1.33 1.13-2.64 1.7-3.95-3.37 1.11-6.79 2.64-10.41 2.42-4.75-4-6.86-11.46-3.8-17.09z" fill="#f5af13"/><path d="m328.82 285.4c1.48-.13 2.96-.25 4.44-.32.45 5.6-1.45 10.97-2.25 16.44.67.03 2 .1 2.67.13 1.08-1.9 2.19-3.8 3.27-5.7-.09 2.41 0 4.82.09 7.24-.67.68-1.36 1.34-2.07 1.99-6.44.21-12.88.08-19.32-.04l.54-.65c6.21-1.28 8.44-7.68 10.81-12.76.72-2.08 1.28-4.21 1.82-6.33z" fill="#4b0802"/><path d="m333.26 285.08c.34 1.72.54 3.46.71 5.21 1.48-.39 2.97-.8 4.46-1.2l.72 2.92c-.73 1.31-1.48 2.61-2.2 3.94-1.08 1.9-2.19 3.8-3.27 5.7-.67-.03-2-.1-2.67-.13.8-5.47 2.7-10.84 2.25-16.44z" fill="#bd716b"/><path d="m220.7 292.93c7.03-1.52 13.78-4.09 20.39-6.87-.3 1.54-.6 3.08-.89 4.62-7.7.2-13.7 6.52-21.47 6.3-6.13.07-12.34.57-18.4-.56-.65-.37-1.95-1.11-2.6-1.47 7.54-1.89 15.41-.3 22.97-2.02z" fill="#ded255"/><path d="m322.57 288.12c1.48 1.19 2.95 2.4 4.43 3.61-2.37 5.08-4.6 11.48-10.81 12.76 1.4-2.44 2.87-4.86 4.05-7.42 1.31-2.82 2.01-5.87 2.33-8.95z" fill="#b4716f"/><path d="m128.9 290.59c5.09.94 10.24 1.53 15.38 2.19 6.75 2.34 10.32 9.16 16.48 12.49-2.59 2.18-5.15 4.4-7.72 6.6 1.69.14 3.38.29 5.08.44-3.67 2.11-7.83 3.42-12.09 3.4-6.8.05-14.31.73-20.14-3.5 1.64-.12 3.29-.24 4.94-.35-4.27-2.94-8.44-6.27-11.07-10.82.19-1.18.38-2.35.57-3.51 3.3.84 6.73.6 9.75-1.07-.67-1.52-1.33-3.04-2-4.56.21-.33.62-.98.82-1.31m6 4.04c-.56 2.39.54 5.91-2.3 7.1-2.14.76-4.45.67-6.67.86.81 1.58 1.38 3.45 2.91 4.53 4.86 3.75 11.13 5.41 17.21 5.27 2.99-.12 6.65-2.73 5.53-6.08-1.12-3.43-2.74-6.94-5.5-9.36-3.29-1.98-7.38-2.86-11.18-2.32z" fill="#f6f364"/><path d="m194.96 290.35c1.33.08 2.66.18 3.99.31.47.57.96 1.15 1.44 1.73-.89.84-1.78 1.69-2.66 2.56-3.86 4.08-8.36 7.48-13.15 10.38 2.67 1.79 5.4 3.48 8.22 5.03 2.07 1.17 4.13 2.38 6.17 3.61-2.03.04-4.07.1-6.1.07-6.63-2.45-14.18-4.67-18-11.16 4.51-.94 9.32-1.24 13.33-3.75 3.43-1.81 5.39-5.3 6.76-8.78z" fill="#ffec9b"/><path d="m218.73 296.98c7.77.22 13.77-6.1 21.47-6.3-1.02 4.46-2.08 9.02-4.54 12.95a71.176 71.176 0 0 1 -2.71-6.37c-6.92 1.54-13.82 3.44-20.95 3.62-3.77.21-7.63-.04-11.31.92-1.93 1.8-1.9 5.58.82 6.6 9.31 3.73 19.48 2.07 29.21 1.89-.25.43-.75 1.28-1 1.71-1.02.55-2.05 1.09-3.09 1.62-1.62.09-3.23.19-4.84.3.16.66.31 1.32.47 1.98-1.58.04-3.16.09-4.74.13-7.88-3.19-16.25-5.01-24.72-5.67.72-1.42 1.44-2.84 2.17-4.26-.84-.95-1.68-1.89-2.52-2.83 1.69-.54 3.46-.95 4.97-1.91 1.28-1.45 2.02-3.26 2.91-4.94 6.06 1.13 12.27.63 18.4.56z" fill="#fbf453"/><path d="m77.02 294.01c1.1 5.35-.3 11.08 1.93 16.22 1.93 4.12 5.08 7.49 7.96 10.96 4.24 5.18 9.44 9.45 15.07 13.03 4.33 2.85 7.84 6.69 11.52 10.28 4.45 4.33 10.09 7.16 14.69 11.31 4.87 4.2 9.02 9.19 14.1 13.15 5.51 1.96 11.05 4.18 15.41 8.2 1.43 1.62 2.78 3.32 4.35 4.82 8.17 8.89 19.97 13.97 31.99 14.21 3.14.02 6.2-.8 9.09-1.97 7.85-3.27 13.86-9.5 20.45-14.68 5-4.11 10.54-7.47 15.81-11.21 5.93-4.21 10.73-9.73 16.37-14.29l2.37-1.95c-.78 2.06-1.81 4.06-3.46 5.56-6.12 5.93-12.48 11.71-19.79 16.16-8.58 5.19-15.54 12.56-23.81 18.17-3.88 2.58-8.29 4.67-13.04 4.72-7.7.2-15.77.31-22.93-2.96-6.52-3.04-11.8-8.03-17.3-12.55-5.63-4.63-12.76-6.98-18.3-11.72-7.58-6.77-14.77-14.02-23.05-19.96-5.6-4-9.89-9.53-15.57-13.44-8.43-6.02-16.94-12.58-22.01-21.83-3.6-6.11-2.75-13.53-1.85-20.23z" fill="#18140d" opacity=".54"/><path d="m134.9 294.63c3.8-.54 7.89.34 11.18 2.32 2.76 2.42 4.38 5.93 5.5 9.36 1.12 3.35-2.54 5.96-5.53 6.08-6.08.14-12.35-1.52-17.21-5.27-1.53-1.08-2.1-2.95-2.91-4.53 2.22-.19 4.53-.1 6.67-.86 2.84-1.19 1.74-4.71 2.3-7.1z" fill="#f6fa43"/><path d="m293.05 296.89c1.58-2.02 4.3-2.16 6.62-2.64l.72 2.29c1.2.35 2.4.71 3.61 1.07.64 3.17 1.34 6.33 2.06 9.49-8.1 4.46-17.25 7.39-23.99 13.96-4.23 4.11-10.6 5-14.47 9.6-3.2 2.65-3.32 8.02-7.54 9.46-4.5 1.75-9.2 2.92-13.86 4.17-.85-.15-2.55-.44-3.4-.58 3.15-1.92 6.48-3.5 9.76-5.18 5.2-2.55 8.31-7.72 12.91-11.09 4.24-3.18 8.01-6.93 11.39-11.01-.98-.54-1.96-1.08-2.93-1.61 3.29-1.93 6.82-3.6 9.54-6.35 3.71-3.42 6.34-7.76 9.58-11.58z" fill="#d46a2f"/><path d="m184.58 305.33c4.79-2.9 9.29-6.3 13.15-10.38.65.36 1.95 1.1 2.6 1.47-.89 1.68-1.63 3.49-2.91 4.94-1.51.96-3.28 1.37-4.97 1.91.84.94 1.68 1.88 2.52 2.83-.73 1.42-1.45 2.84-2.17 4.26-2.82-1.55-5.55-3.24-8.22-5.03z" fill="#f4f168"/><path d="m212 300.88c7.13-.18 14.03-2.08 20.95-3.62.8 2.16 1.7 4.29 2.71 6.37-1.63 2.24-3.53 4.27-4.94 6.66-9.73.18-19.9 1.84-29.21-1.89-2.72-1.02-2.75-4.8-.82-6.6 3.68-.96 7.54-.71 11.31-.92z" fill="#fafa3f"/><path d="m80.82 297.18c1.72 2.79 3.05 5.79 4.5 8.73 1.61 3.41 5.02 5.35 7.61 7.92.74.92 1.45 1.85 2.16 2.79.96 1.26 1.93 2.53 2.96 3.74 1.22.79 2.49 1.49 3.75 2.2 1.35 2.13 2.66 4.3 3.96 6.47-1.42-.27-2.84-.54-4.24-.84-.49-.4-1.47-1.19-1.95-1.59-3.94-4.79-7.99-9.55-12.65-13.65-4.61-3.64-8.16-9.82-6.1-15.77z" fill="#eecf7d"/><path d="m308.36 305.92c-.02-2.35-.04-4.71.22-7.05 1.06 3.23 1.98 6.51 2.53 9.86-7.6 2.93-14.97 6.4-22.14 10.28-3.53 1.87-6.37 4.76-8.99 7.73-5.18.13-10.16 2.73-12.88 7.19-1 2.21-.92 4.73-1.2 7.11-1.8 1.65-3.53 3.38-5.29 5.07-.47-.69-1.4-2.07-1.87-2.77-1.87.8-3.72 1.61-5.58 2.44-3.51 1.57-7.17 2.8-10.94 3.59-1.12-.62-2.22-1.22-3.33-1.83 1.37-.78 2.73-1.56 4.13-2.28 1.05-.34 2.12-.66 3.18-.97 4.66-1.25 9.36-2.42 13.86-4.17 4.22-1.44 4.34-6.81 7.54-9.46 3.87-4.6 10.24-5.49 14.47-9.6 6.74-6.57 15.89-9.5 23.99-13.96.76-.4 1.53-.79 2.3-1.18z" fill="#8a2802"/><path d="m170.37 304.47c2.21 2.17 4.36 4.42 6.75 6.4-4.99.33-10.26.68-14.52 3.61 3.07-2.93 5.51-6.43 7.77-10.01z" fill="#ba7f4a"/><path d="m105.01 308.9c1.56 4.89 1.9 10.09.34 15.03 2.36 2.81 4.65 5.67 6.84 8.62l-2.28 2.08c-.98-.52-1.95-1.06-2.9-1.63-1.81-1.63-3.62-3.26-5.49-4.81 1.4.3 2.82.57 4.24.84-1.3-2.17-2.61-4.34-3.96-6.47.6-4.12 1.18-8.24 2.23-12.26.25-.35.74-1.05.98-1.4z" fill="#f5b642"/><path d="m100 311.12c1.34-.29 2.69-.53 4.03-.82-1.05 4.02-1.63 8.14-2.23 12.26-1.26-.71-2.53-1.41-3.75-2.2 1.28-.46 2.56-.93 3.85-1.4-1.78-2.14-3.34-5.55-6.51-5.62-.13 1.09-.23 2.18-.3 3.28-.71-.94-1.42-1.87-2.16-2.79 1.93-1.8 4.63-2.07 7.07-2.71z" fill="#c18022"/><path d="m192.8 310.36c8.47.66 16.84 2.48 24.72 5.67-5.21.66-10.47 1.31-15.74.86-3.07-.61-5.98-1.79-8.91-2.85 2.03.03 4.07-.03 6.1-.07-2.04-1.23-4.1-2.44-6.17-3.61z" fill="#fff37a"/><path d="m85.08 312.6c.46.09 1.38.26 1.84.35 4.66 4.1 8.71 8.86 12.65 13.65 1.59 2.49 3.25 4.93 5.08 7.26l-2.67.36c-5.63-3.58-10.83-7.85-15.07-13.03.59-1 1.19-2 1.79-2.99-1.24-1.85-2.46-3.71-3.62-5.6z" fill="#321b0f" opacity=".78"/><path d="m95.39 313.34c3.17.07 4.73 3.48 6.51 5.62-1.29.47-2.57.94-3.85 1.4-1.03-1.21-2-2.48-2.96-3.74.07-1.1.17-2.19.3-3.28z" fill="#450f00"/><path d="m262.05 321.14c4.66-.56 8.12-3.87 11.88-6.32.97.53 1.95 1.07 2.93 1.61-3.38 4.08-7.15 7.83-11.39 11.01-4.6 3.37-7.71 8.54-12.91 11.09-3.28 1.68-6.61 3.26-9.76 5.18.85.14 2.55.43 3.4.58-1.06.31-2.13.63-3.18.97-3.08.3-6.17.29-9.25.5.8-1.17 1.61-2.33 2.42-3.5.85-.24 1.7-.48 2.55-.71 8.71-1.57 17.86-6.43 20.64-15.42-3.42-.65-6.89-1.45-10.38-1.1-3.82.42-6.59 3.47-10.13 4.61-4.35-.14-8.63-1.42-13-.93-11 .92-22.47.51-32.75-3.86-3.62-1.56-7.28-3.02-11.05-4.15l-1.56-2.24c5.98-.14 10.8 3.99 16.55 4.95 7.16 2.17 14.68 2.1 22.05 2.84 14.51.79 28.73-2.76 42.94-5.11z" fill="#d66c1b"/><path d="m157.63 321.65c3.44-1.13 6.05-3.92 9.46-5.03 4.53.09 8.87 1.8 13.42 1.84l1.56 2.24c2.59 4.14 6.66 6.9 10.23 10.1 1.34 1.09.87 2.99 1.11 4.5-8.63-2.8-17.74-2.65-26.7-2.76-1.73-.04-3.28.8-4.71 1.67-.76 1.05-1.45 2.15-2.15 3.25-.77-1.86-1.37-3.79-2-5.69-1.56 2.31-4.29 4.77-3.42 7.81 1.95 3.03 4.96 5.16 7.56 7.59-4.35-1.96-9.92-2.82-12.6-7.2-1.05-3.46 2.17-6.32 3.7-9.1-3.66-.77-7.37-1.25-11.04-1.96-4.9-.92-9.28-3.4-13.99-4.91-1.14-.37-2.27-.72-3.41-1.06.04-.52.13-1.57.18-2.09 5.78 1.22 11.29 3.68 17.19 4.3 5.38.03 10.57-1.8 15.61-3.5z" fill="#f58f12"/><path d="m182.07 320.7c3.77 1.13 7.43 2.59 11.05 4.15 10.28 4.37 21.75 4.78 32.75 3.86 4.37-.49 8.65.79 13 .93 3.54-1.14 6.31-4.19 10.13-4.61 3.49-.35 6.96.45 10.38 1.1-2.78 8.99-11.93 13.85-20.64 15.42 1.56-1.41 3.03-2.91 4.51-4.4-6.33-1.29-12.28 1.77-18.42 2.68-4.63.79-9.89.83-13.21 4.69 8.24 2.13 16.68.39 24.57-2.26-.81 1.17-1.62 2.33-2.42 3.5-2.66.41-5.21 1.27-7.7 2.25 3.33 2.01 7.2 2.76 11.06 2.4-.65.24-1.94.73-2.59.97-1.53.68-3.01 1.46-4.49 2.25-2.28-1-4.57-1.99-6.85-2.99-.05 1.95-.1 3.91-.14 5.87 2.79.51 5.57 1.07 8.34 1.66-2.48 1.92-5.05 3.73-7.68 5.43-1.17-1.77-1.74-5.08-4.5-4.65-2.03.58-3.27 2.57-4.82 3.9-2.17-1.06-4.33-2.16-6.47-3.27.82-1.46 1.64-2.91 2.47-4.36-2.47-4.03-4.77-9.51-10.33-9.49 1.48-.68 2.91-1.46 4.35-2.22-1.87-1.09-3.78-2.12-5.83-2.81-1.78-1.76-3.72-3.36-5.18-5.4-.24-1.51.23-3.41-1.11-4.5-3.57-3.2-7.64-5.96-10.23-10.1z" fill="#e26d06"/><path d="m128.06 324c4.71 1.51 9.09 3.99 13.99 4.91 3.67.71 7.38 1.19 11.04 1.96-1.53 2.78-4.75 5.64-3.7 9.1 2.68 4.38 8.25 5.24 12.6 7.2 3.77 3.83 10.23 6.37 10.44 12.48.53 3.66-3.91 4.79-6.25 6.58-3.39-2.78-7.12-5.29-11.39-6.48-5.6-2.02-11.26 1.08-16.95.86-3.37-3.12-6.54-6.46-10.18-9.28-3.53-2.86-7.5-5.12-11.05-7.95-3.7-2.98-6.3-7.01-9.6-10.38.95.57 1.92 1.11 2.9 1.63 5.8 2.3 12.13 1.83 18.24 1.83-.09-3.46-1.54-6.6-3.58-9.32 1.16-1.05 2.32-2.1 3.49-3.14z" fill="#faa106"/><path d="m104.65 333.86c-1.83-2.33-3.49-4.77-5.08-7.26.48.4 1.46 1.19 1.95 1.59 1.87 1.55 3.68 3.18 5.49 4.81 3.3 3.37 5.9 7.4 9.6 10.38 3.55 2.83 7.52 5.09 11.05 7.95 3.64 2.82 6.81 6.16 10.18 9.28 1.74 1.54 3.59 2.97 5.42 4.4 1.36 1.06 2.71 2.12 4.11 3.12-1.7.25-3.38.55-5.08.83-5.08-3.96-9.23-8.95-14.1-13.15-4.6-4.15-10.24-6.98-14.69-11.31-3.68-3.59-7.19-7.43-11.52-10.28z" fill="#64512d" opacity=".75"/><path d="m267.1 333.93c2.72-4.46 7.7-7.06 12.88-7.19-4.19 5.24-9.01 9.92-14.08 14.3.28-2.38.2-4.9 1.2-7.11z" fill="#430805" opacity=".88"/><path d="m154.43 339.58c-.87-3.04 1.86-5.5 3.42-7.81.63 1.9 1.23 3.83 2 5.69 1.43 1.23 2.9 2.43 4.45 3.51.4 1.16.65 2.41 1.36 3.44 2.88 1.73 6.29 2.21 9.46 3.2-.61.37-1.84 1.13-2.46 1.51 1.41 1.01 2.82 2.03 4.28 3-1.34-.01-2.68 0-4.01.04 1.88 1.48 3.76 2.98 5.7 4.39-.61-.13-1.82-.37-2.43-.49.08 1.18.17 2.36.27 3.55 2.11.55 4.21 1.17 6.37 1.51 5.36 1.03 11.46-.24 16.17 3.06-.62 2.23-3.07 2.94-4.85 4.01a25.886 25.886 0 0 0 -7.91 5.72c-3.46-.07-6.92-.11-10.37-.44-3.12-1-5.8-2.95-8.56-4.65-.44.54-1.33 1.61-1.78 2.15-3.37-3.25-7.42-5.68-11.51-7.91-.72.45-1.44.9-2.15 1.35-2.89-.36-5.79.01-8.62.6-1.83-1.43-3.68-2.86-5.42-4.4 5.69.22 11.35-2.88 16.95-.86 4.27 1.19 8 3.7 11.39 6.48 2.34-1.79 6.78-2.92 6.25-6.58-.21-6.11-6.67-8.65-10.44-12.48-2.6-2.43-5.61-4.56-7.56-7.59z" fill="#f5a12d"/><path d="m162 334.21c1.43-.87 2.98-1.71 4.71-1.67 8.96.11 18.07-.04 26.7 2.76 1.46 2.04 3.4 3.64 5.18 5.4-2.58.02-5.14.25-7.71.38-4.44-.77-8.42-2.99-12.24-5.26-.39 1.5-.79 3-1.16 4.51-1.04-1.47-1.57-3.58-3.36-4.33-2.86-1.11-5.94-1.42-8.93-1.94.81 1.46 1.64 2.91 2.45 4.38-1.98-1.28-3.82-2.75-5.64-4.23z" fill="#f08b40"/><path d="m165.19 334.06c2.99.52 6.07.83 8.93 1.94 1.79.75 2.32 2.86 3.36 4.33-3.34-.25-6.68-.74-9.84-1.89-.81-1.47-1.64-2.92-2.45-4.38z" fill="#f9a56a"/><path d="m159.85 337.46c.7-1.1 1.39-2.2 2.15-3.25 1.82 1.48 3.66 2.95 5.64 4.23 3.16 1.15 6.5 1.64 9.84 1.89.37-1.51.77-3.01 1.16-4.51 3.82 2.27 7.8 4.49 12.24 5.26 2.65.53 5.33.94 8.01 1.34-.14.49-.43 1.48-.57 1.97-2.5.34-5.01.7-7.52.93-2.3-.26-4.55-.85-6.76-1.49-3.22-1.4-6.69-.34-10.02-.16-3.46.28-6.66-1.32-9.72-2.7-1.55-1.08-3.02-2.28-4.45-3.51z" fill="#7c2600"/><path d="m224.83 339.83c6.14-.91 12.09-3.97 18.42-2.68-1.48 1.49-2.95 2.99-4.51 4.4-.85.23-1.7.47-2.55.71-7.89 2.65-16.33 4.39-24.57 2.26 3.32-3.86 8.58-3.9 13.21-4.69z" fill="#fa9025"/><path d="m165.66 344.41c-.71-1.03-.96-2.28-1.36-3.44 3.06 1.38 6.26 2.98 9.72 2.7 3.33-.18 6.8-1.24 10.02.16 3.31 2.23 6.96 3.92 10.91 4.59-3.11.46-6.19 1.1-9.28 1.65-3.64-.19-7.08-1.46-10.55-2.46-3.17-.99-6.58-1.47-9.46-3.2z" fill="#e8a06b"/><path d="m190.88 341.08c2.57-.13 5.13-.36 7.71-.38 2.05.69 3.96 1.72 5.83 2.81-1.44.76-2.87 1.54-4.35 2.22l-.89.01c-2.8.01-5.6-.08-8.38-.42 2.51-.23 5.02-.59 7.52-.93.14-.49.43-1.48.57-1.97-2.68-.4-5.36-.81-8.01-1.34z" fill="#bc5201"/><path d="m184.04 343.83c2.21.64 4.46 1.23 6.76 1.49 2.78.34 5.58.43 8.38.42.09 1.48.19 2.97.27 4.47-4.59.23-9.2.28-13.78-.14 3.09-.55 6.17-1.19 9.28-1.65-3.95-.67-7.6-2.36-10.91-4.59z" fill="#e47f46"/><path d="m253.16 345.78c1.86-.83 3.71-1.64 5.58-2.44.47.7 1.4 2.08 1.87 2.77-1.24 1.19-2.48 2.36-3.71 3.55-.39.36-1.19 1.06-1.58 1.41-1.46.75-2.93 1.45-4.36 2.24-.96-.42-1.92-.83-2.87-1.24 2.23-1.44 4.47-2.88 6.71-4.31-.55-.67-1.09-1.33-1.64-1.98z" fill="#b75c23"/><path d="m233.77 345.76c3.08-.21 6.17-.2 9.25-.5-1.4.72-2.76 1.5-4.13 2.28 1.11.61 2.21 1.21 3.33 1.83-1.7.35-3.4.68-5.09 1.04-3.86.36-7.73-.39-11.06-2.4 2.49-.98 5.04-1.84 7.7-2.25z" fill="#c46202"/><path d="m199.18 345.74.89-.01c5.56-.02 7.86 5.46 10.33 9.49-.83 1.45-1.65 2.9-2.47 4.36 2.14 1.11 4.3 2.21 6.47 3.27 1.55-1.33 2.79-3.32 4.82-3.9 2.76-.43 3.33 2.88 4.5 4.65 2.63-1.7 5.2-3.51 7.68-5.43-2.77-.59-5.55-1.15-8.34-1.66.04-1.96.09-3.92.14-5.87 2.28 1 4.57 1.99 6.85 2.99 1.48-.79 2.96-1.57 4.49-2.25 3.04.92 6.07 1.85 9.12 2.75-4.65 4.79-11.38 6.14-16.73 9.82-6.57 5.1-14.98 7.03-21.23 12.63-5.88 3.32-10.83 8.32-17.33 10.47.13-2.77-.04-5.56-.73-8.24-2.49-4.07-7.8-3.7-11.76-5.34 3.45.33 6.91.37 10.37.44 2.25-2.39 4.93-4.33 7.91-5.72 1.78-1.07 4.23-1.78 4.85-4.01-4.71-3.3-10.81-2.03-16.17-3.06 4.98.44 9.95-.15 14.92-.45l-.16-2.53c-.66 0-1.99 0-2.65.01 2.04-1.21 4.1-2.77 4.56-5.25 0-.9-.03-1.8-.06-2.69-.08-1.5-.18-2.99-.27-4.47z" fill="#e17b0b"/><path d="m242.22 349.37c3.77-.79 7.43-2.02 10.94-3.59.55.65 1.09 1.31 1.64 1.98-2.24 1.43-4.48 2.87-6.71 4.31.95.41 1.91.82 2.87 1.24-.93.67-1.82 1.39-2.67 2.16-1.54-.46-3.09-.9-4.63-1.34-3.05-.9-6.08-1.83-9.12-2.75.65-.24 1.94-.73 2.59-.97 1.69-.36 3.39-.69 5.09-1.04z" fill="#da7b25"/><path d="m172.66 349.12c.62-.38 1.85-1.14 2.46-1.51 3.47 1 6.91 2.27 10.55 2.46 4.58.42 9.19.37 13.78.14.03.89.06 1.79.06 2.69-4.45.66-8.91 1.19-13.4 1.46-3.06-.74-6.12-1.49-9.17-2.24-1.46-.97-2.87-1.99-4.28-3z" fill="#7d2e04"/><path d="m255.32 351.07c.39-.35 1.19-1.05 1.58-1.41-.42 1.45-.78 2.91-1.14 4.38-5.64 4.56-10.44 10.08-16.37 14.29-5.27 3.74-10.81 7.1-15.81 11.21-6.59 5.18-12.6 11.41-20.45 14.68-5.72-.19-11.48-.67-17.03-2.14 8.56 1.81 16.37-2.87 22.96-7.73 1.27-.47 2.57-.89 3.87-1.31 3.38-1.01 6.63-2.5 9.42-4.69 11.33-8.63 23.7-16.29 32.97-27.28z" fill="#462b19" opacity=".77"/><path d="m250.96 353.31c1.43-.79 2.9-1.49 4.36-2.24-9.27 10.99-21.64 18.65-32.97 27.28-2.79 2.19-6.04 3.68-9.42 4.69.28-.47.86-1.43 1.15-1.91 9.29-5.11 17.19-12.22 25.81-18.3 3.01-2.21 5.67-4.84 8.4-7.36.85-.77 1.74-1.49 2.67-2.16z" fill="#92682a" opacity=".8"/><path d="m172.93 352.16c1.33-.04 2.67-.05 4.01-.04 3.05.75 6.11 1.5 9.17 2.24 2.72.81 5.48 1.49 8.21 2.29-4.43.57-8.93.93-13.38.38l-2.31-.48c-1.94-1.41-3.82-2.91-5.7-4.39z" fill="#fcac68"/><path d="m186.11 354.36c4.49-.27 8.95-.8 13.4-1.46-.46 2.48-2.52 4.04-4.56 5.25-4.69.06-9.4-.21-14.01-1.12 4.45.55 8.95.19 13.38-.38-2.73-.8-5.49-1.48-8.21-2.29z" fill="#d37b35"/><path d="m243.66 354.13c1.54.44 3.09.88 4.63 1.34-2.73 2.52-5.39 5.15-8.4 7.36-8.62 6.08-16.52 13.19-25.81 18.3.68-1.21 1.32-2.45 1.97-3.67-3.07-2.32-6.9-2.44-10.35-.88 6.25-5.6 14.66-7.53 21.23-12.63 5.35-3.68 12.08-5.03 16.73-9.82z" fill="#f89c1a"/><path d="m176.2 356.06c.61.12 1.82.36 2.43.49l2.31.48c4.61.91 9.32 1.18 14.01 1.12.66-.01 1.99-.01 2.65-.01l.16 2.53c-4.97.3-9.94.89-14.92.45-2.16-.34-4.26-.96-6.37-1.51-.1-1.19-.19-2.37-.27-3.55z" fill="#ac5605"/><path d="m151.88 364.41c.71-.45 1.43-.9 2.15-1.35 4.09 2.23 8.14 4.66 11.51 7.91 2.51 2.35 4.85 4.87 7.4 7.17 3.57 3.24 7.26 6.34 11.1 9.25 3.26 1.77 7.25 2.2 10.53.21 5.13-2.89 10.27-5.95 16.18-6.93-.56 1.23-1.1 2.46-1.69 3.68-6.59 4.86-14.4 9.54-22.96 7.73-3.15-.94-6.08-2.47-8.91-4.1-5.35-5.36-10.21-11.18-15.78-16.31-2.89-2.77-6.01-5.33-9.53-7.26z" fill="#f5a464"/><path d="m143.26 365.01c2.83-.59 5.73-.96 8.62-.6 3.52 1.93 6.64 4.49 9.53 7.26-3.26-1.93-6.72-3.49-10.21-4.92a96.2 96.2 0 0 0 2.19 2.91c-1.99-.58-4-1.06-6.02-1.53-1.4-1-2.75-2.06-4.11-3.12z" fill="#a85804"/><path d="m151.2 366.75c3.49 1.43 6.95 2.99 10.21 4.92 5.57 5.13 10.43 10.95 15.78 16.31-3.2-1.72-6.34-3.56-9.19-5.81-1.59-1.24-3.16-2.51-4.73-3.78-3.08-3.15-6.28-6.19-9.88-8.73a96.2 96.2 0 0 1 -2.19-2.91z" fill="#641a00"/><path d="m142.29 368.96c1.7-.28 3.38-.58 5.08-.83 2.02.47 4.03.95 6.02 1.53 3.6 2.54 6.8 5.58 9.88 8.73-1.85-.45-3.72-.79-5.57-1.23-4.36-4.02-9.9-6.24-15.41-8.2z" fill="#af8955" opacity=".81"/><path d="m165.54 370.97c.45-.54 1.34-1.61 1.78-2.15 2.76 1.7 5.44 3.65 8.56 4.65 3.96 1.64 9.27 1.27 11.76 5.34-4.76 1.88-10.38 2.74-14.7-.67-2.55-2.3-4.89-4.82-7.4-7.17z" fill="#b15b07"/><path d="m205.7 376.58c3.45-1.56 7.28-1.44 10.35.88-.65 1.22-1.29 2.46-1.97 3.67-.29.48-.87 1.44-1.15 1.91-1.3.42-2.6.84-3.87 1.31.59-1.22 1.13-2.45 1.69-3.68-5.91.98-11.05 4.04-16.18 6.93-3.28 1.99-7.27 1.56-10.53-.21 1.44-.09 2.89-.21 4.33-.34 6.5-2.15 11.45-7.15 17.33-10.47z" fill="#f49c2f"/><path d="m157.7 377.16c1.85.44 3.72.78 5.57 1.23 1.57 1.27 3.14 2.54 4.73 3.78.23 1.03.45 2.07.68 3.11-2.24-1.05-4.49-2.08-6.63-3.3-1.57-1.5-2.92-3.2-4.35-4.82z" fill="#57402e" opacity=".76"/><path d="m172.94 378.14c4.32 3.41 9.94 2.55 14.7.67.69 2.68.86 5.47.73 8.24-1.44.13-2.89.25-4.33.34-3.84-2.91-7.53-6.01-11.1-9.25z" fill="#cc7621"/><path d="m162.05 381.98c2.14 1.22 4.39 2.25 6.63 3.3-.23-1.04-.45-2.08-.68-3.11 2.85 2.25 5.99 4.09 9.19 5.81 2.83 1.63 5.76 3.16 8.91 4.1 5.55 1.47 11.31 1.95 17.03 2.14-2.89 1.17-5.95 1.99-9.09 1.97-12.02-.24-23.82-5.32-31.99-14.21z" fill="#2a170f" opacity=".76"/></svg>