<svg shape-rendering="crispEdges" viewBox="0 -.5 52 57" xmlns="http://www.w3.org/2000/svg"><path d="m9 0h2m32 0h2m-37 1h4m30 0h4m-38 1h5m28 0h5m-38 1h5m2 0h2m20 0h2m2 0h5m-38 1h5m1 0h4m18 0h4m1 0h5m-37 1h9m18 0h9m-36 1h8m20 0h8m-37 1h8m22 0h8m-39 1h9m22 0h9m-40 1h10m20 0h10m-39 1h2m2 0h5m20 0h5m2 0h2m-33 1h5m18 0h5m-27 1h5m16 0h5m-25 1h2m6 0h7m6 0h3m-18 1h12m4 0h2m-22 1h2m1 0h15m-20 1h4m1 0h16m-22 1h5m3 0h15m-24 1h5m1 0h3m3 0h13m-25 1h5m1 0h6m3 0h10m-26 1h6m1 0h9m3 0h8m-27 1h5m1 0h13m2 0h6m-27 1h5m1 0h15m1 0h5m-34 1h5m2 0h4m1 0h3m4 0h4m4 0h2m1 0h5m2 0h5m-47 1h10m1 0h5m1 0h2m1 0h4m1 0h2m1 0h4m1 0h2m1 0h4m2 0h10m-52 1h9m2 0h5m1 0h1m1 0h14m1 0h1m1 0h5m2 0h9m-51 1h8m1 0h5m1 0h4m4 0h4m4 0h3m1 0h5m2 0h8m-49 1h6m2 0h5m1 0h3m1 0h4m1 0h2m1 0h4m1 0h2m1 0h6m2 0h6m-45 1h2m2 0h6m1 0h2m1 0h6m2 0h6m1 0h2m1 0h6m1 0h4m-39 1h6m1 0h2m1 0h6m2 0h6m1 0h2m1 0h6m-35 1h7m1 0h1m2 0h6m2 0h6m2 0h1m1 0h6m-35 1h7m1 0h2m1 0h2m1 0h3m2 0h2m1 0h3m1 0h2m1 0h7m-37 1h8m1 0h3m1 0h4m1 0h2m1 0h4m1 0h3m1 0h7m-37 1h8m1 0h4m3 0h6m3 0h4m1 0h7m-37 1h8m1 0h7m6 0h7m1 0h7m-37 1h8m1 0h7m1 0h4m1 0h7m1 0h7m-37 1h8m1 0h2m1 0h1m1 0h3m1 0h2m1 0h3m1 0h1m1 0h2m1 0h7m-37 1h8m1 0h9m2 0h9m1 0h6m-36 1h8m1 0h3m1 0h5m1 0h6m1 0h3m1 0h6m-35 1h7m1 0h9m1 0h10m1 0h6m-35 1h7m1 0h3m1 0h5m1 0h6m1 0h3m1 0h5m-33 1h7m1 0h2m1 0h4m3 0h4m2 0h2m1 0h5m-31 1h1m1 0h4m1 0h2m5 0h3m6 0h2m1 0h2m1 0h1m-28 1h2m1 0h1m1 0h3m3 0h7m2 0h3m1 0h1m-25 1h1m5 0h2m3 0h7m2 0h2m-16 1h3m2 0h7m1 0h3m-24 1h1m8 0h2m2 0h6m1 0h3m7 0h1m-31 1h2m7 0h3m8 0h3m5 0h1m1 0h2m-33 1h4m2 0h1m4 0h3m1 0h4m1 0h3m5 0h5m-33 1h5m1 0h1m5 0h3m4 0h3m5 0h6m-34 1h10m4 0h8m5 0h8m-35 1h11m14 0h10m-36 1h12m14 0h11m-37 1h4m1 0h7m3 0h8m3 0h11m-37 1h3m2 0h7m3 0h8m3 0h12m-39 1h3m3 0h3m2 0h2m3 0h8m3 0h3m1 0h3m2 0h3m-39 1h1m6 0h1m4 0h1m3 0h8m3 0h2m3 0h2m4 0h1" stroke="#fff"/><path d="m17 13h2m16 0h1m-21 1h4m16 0h2m-22 1h2m2 0h1m15 0h4m-20 1h1m16 0h3m-20 1h3m15 0h2m-21 1h1m3 0h3m13 0h1m-21 1h1m6 0h3m10 0h1m-21 1h1m9 0h3m-14 1h1m13 0h2m-16 1h1m15 0h1m-24 1h2m4 0h1m3 0h4m4 0h4m2 0h1m5 0h2m-32 1h1m5 0h1m2 0h1m4 0h1m2 0h1m4 0h1m2 0h1m4 0h2m-33 1h2m5 0h1m1 0h1m14 0h1m1 0h1m5 0h2m-34 1h1m5 0h1m4 0h4m4 0h4m3 0h1m5 0h2m-35 1h2m5 0h1m3 0h1m4 0h1m2 0h1m4 0h1m2 0h1m6 0h2m-37 1h2m6 0h1m2 0h1m6 0h2m6 0h1m2 0h1m6 0h1m-29 1h1m2 0h1m6 0h2m6 0h1m2 0h1m-22 1h1m1 0h2m6 0h2m6 0h2m1 0h1m-22 1h1m2 0h1m2 0h1m3 0h2m2 0h1m3 0h1m2 0h1m-22 1h1m3 0h1m4 0h1m2 0h1m4 0h1m3 0h1m-22 1h1m4 0h3m6 0h3m4 0h1m-22 1h1m7 0h6m7 0h1m-22 1h1m7 0h1m4 0h1m7 0h1m-22 1h1m2 0h1m1 0h1m3 0h1m2 0h1m3 0h1m1 0h1m2 0h1m-22 1h1m9 0h2m9 0h1m-22 1h1m3 0h1m5 0h1m6 0h1m3 0h1m-22 1h1m9 0h1m10 0h1m-22 1h1m3 0h1m5 0h1m6 0h1m3 0h1m-21 1h1m2 0h1m4 0h3m4 0h2m2 0h1m-25 1h1m4 0h1m2 0h5m3 0h6m2 0h1m2 0h1m-28 1h1m2 0h1m1 0h1m3 0h3m7 0h2m3 0h1m1 0h3m-29 1h1m1 0h5m2 0h3m7 0h2m2 0h6m-29 1h7m3 0h2m7 0h1m3 0h6m-29 1h8m2 0h2m6 0h1m3 0h7m-28 1h7m3 0h8m3 0h5m1 0h1m-27 1h2m1 0h4m3 0h1m4 0h1m3 0h5m-23 1h1m1 0h5m3 0h4m3 0h5m-18 1h4m8 0h5m-16 1h14m-14 1h14m-14 1h3m8 0h3m-14 1h3m8 0h3m-14 1h3m8 0h3m-14 1h3m8 0h3" stroke="#000"/></svg>