<svg xmlns="http://www.w3.org/2000/svg" shape-rendering="crispEdges" viewBox="0 -.5 43 60"><path stroke="#202020" d="M15 0h13M15 1h13M11 2h4m13 0h4M11 3h4m13 0h4M9 4h2m21 0h2M9 5h2m21 0h2M6 6h3m25 0h3M6 7h3m25 0h3M6 8h3m25 0h3M4 9h2m5 0h4m13 0h4m5 0h2M4 10h2m5 0h4m13 0h4m5 0h2M4 11h2m5 0h6m9 0h6m5 0h2M4 12h2m5 0h6m9 0h6m5 0h2M2 13h2m9 0h4m2 0h5m2 0h4m9 0h2M2 14h2m9 0h4m2 0h5m2 0h4m9 0h2M2 15h2m13 0h2m5 0h2m13 0h2M2 16h2m13 0h2m5 0h2m13 0h2M2 17h2m13 0h2m5 0h2m13 0h2M2 18h2m13 0h2m5 0h2m13 0h2M2 19h2m11 0h2m9 0h2m11 0h2M2 20h2m11 0h2m9 0h2m11 0h2M2 21h2m9 0h4m2 0h5m2 0h4m9 0h2M2 22h2m9 0h4m2 0h5m2 0h4m9 0h2M2 23h2m9 0h4m2 0h5m2 0h4m9 0h2M4 24h5m4 0h4m2 0h5m2 0h4m4 0h5M4 25h5m4 0h4m2 0h5m2 0h4m4 0h5M6 26h3m2 0h8m5 0h8m2 0h3M6 27h3m2 0h8m5 0h8m2 0h3M4 28h2m5 0h2m4 0h9m4 0h2m5 0h2M4 29h2m5 0h2m4 0h9m4 0h2m5 0h2M2 30h2m5 0h2m4 0h2m15 0h2m5 0h2M2 31h2m5 0h2m4 0h2m15 0h2m5 0h2M2 32h2m5 0h2m2 0h2m17 0h2m5 0h2M2 33h2m5 0h2m2 0h2m17 0h2m5 0h2M0 34h2m4 0h3m2 0h2m2 0h2m9 0h2m6 0h3m4 0h2M0 35h2m4 0h3m2 0h2m2 0h2m9 0h2m6 0h3m4 0h2M0 36h2m4 0h3m2 0h2m6 0h5m10 0h3m4 0h2M0 37h2m4 0h3m2 0h2m6 0h5m10 0h3m4 0h2M0 38h2m4 0h3m2 0h2m6 0h5m10 0h3m4 0h2M0 39h2m4 0h13m5 0h13m4 0h2M0 40h2m4 0h13m5 0h13m4 0h2M0 41h2m4 0h13m5 0h13m4 0h2M0 42h2m4 0h13m5 0h13m4 0h2M2 43h2m2 0h3m2 0h2m2 0h2m2 0h5m2 0h2m6 0h3m2 0h2M2 44h2m2 0h3m2 0h2m2 0h2m2 0h5m2 0h2m6 0h3m2 0h2M4 45h5m2 0h2m21 0h5M4 46h5m2 0h2m21 0h5M6 47h31M6 48h31M6 49h3m10 0h5m10 0h3M6 50h3m10 0h5m10 0h3M9 51h10m5 0h10M9 52h10m5 0h10M9 53h10m5 0h10m-23 1h8m5 0h8m-21 1h8m5 0h8M9 56h2m4 0h4m5 0h4m4 0h2M9 57h2m4 0h4m5 0h4m4 0h2m-23 1h6m9 0h6m-21 1h6m9 0h6"/><path stroke="#f8d8d8" d="M15 2h13M15 3h13M11 4h21M11 5h21M9 6h25M9 7h25M9 8h25M6 9h5m6 0h9m6 0h5M6 10h5m6 0h9m6 0h5M6 11h5m6 0h9m6 0h5M6 12h5m6 0h9m6 0h5M4 13h7m6 0h2m5 0h2m6 0h7M4 14h7m6 0h2m5 0h2m6 0h7M4 15h13m9 0h13M4 16h13m9 0h13M4 17h13m9 0h13M4 18h13m9 0h13M4 19h11m4 0h5m4 0h11M4 20h11m4 0h5m4 0h11M9 21h4m4 0h2m5 0h2m4 0h4M9 22h4m4 0h2m5 0h2m4 0h4M9 23h4m4 0h2m5 0h2m4 0h4m-17 1h2m5 0h2m-9 1h2m5 0h2m-7 1h5m-5 1h5M6 28h5m2 0h4m9 0h4m2 0h5M6 29h5m2 0h4m9 0h4m2 0h5M4 30h5m2 0h4m2 0h15m2 0h5M4 31h5m2 0h4m2 0h15m2 0h5M4 32h5m2 0h2m2 0h17m2 0h5M4 33h5m2 0h2m2 0h17m2 0h5M9 34h2m2 0h2m2 0h9m2 0h6M9 35h2m2 0h2m2 0h9m2 0h6M9 36h2m2 0h6m5 0h10M9 37h2m2 0h6m5 0h10M9 38h2m2 0h6m5 0h10M9 43h2m2 0h2m2 0h2m5 0h2m2 0h6M9 44h2m2 0h2m2 0h2m5 0h2m2 0h6M9 45h2m2 0h21M9 46h2m2 0h21"/><path stroke="#f8a8a8" d="M15 9h2m9 0h2m-13 1h2m9 0h2m-17 3h2m17 0h2m-21 1h2m17 0h2m-13 1h5m-5 1h5m-5 1h5m-5 1h5m-7 1h2m5 0h2m-9 1h2m5 0h2M4 21h5m25 0h5M4 22h5m25 0h5M4 23h5m25 0h5M9 24h4m17 0h4M9 25h4m17 0h4M2 36h4m31 0h4M2 37h4m31 0h4M2 38h4m31 0h4M2 39h4m31 0h4M2 40h4m31 0h4M2 41h4m31 0h4M2 42h4m31 0h4M4 43h2m31 0h2M4 44h2m31 0h2M9 49h10m5 0h10M9 50h10m5 0h10"/><path stroke="#c87868" d="M9 26h2m21 0h2M9 27h2m21 0h2"/><path stroke="#404040" d="M2 34h4m31 0h4M2 35h4m31 0h4"/><path stroke="#f8f8f8" d="M19 39h5m-5 1h5m-5 1h5m-5 1h5"/><path stroke="#687878" d="M11 56h4m13 0h4m-21 1h4m13 0h4"/></svg>