<svg clip-rule="evenodd" fill-rule="evenodd" viewBox="0 0 648 835" xmlns="http://www.w3.org/2000/svg"><g transform="translate(-35.1967 -41.7454)"><g fill-rule="nonzero" stroke-width=".09"><g fill="#ff3a2a" stroke="#ff3a2a"><path d="m464.89 264.29c3.28-.36 6.38-1.5 9.39-2.8.61 5.33-.16 11.63-4.86 14.97-5.52 1.47-11.29 1.85-16.81 3.38-4.69 1.75-7.49-3.31-10.24-6.12 2.1-2.87 5.11-4.86 8.81-4.23 5.51 1.07 8.58-4.84 13.71-5.2z"/><path d="m249.45 269.87c1.87-.08 3.75-.12 5.63-.18-.8 2.56-1.62 5.12-2.5 7.66-1.49-2.29-2.49-4.83-3.13-7.48z"/><path d="m270.36 278.4c6.59 2.09 10.43-9.45 16.74-3.18.23 5.76-5.72 10.44-11.13 10.98-6.64.58-14.89 1.54-19.35-4.59 5.03.42 8.71-4.34 13.74-3.21z"/></g><g fill="#fff" stroke="#fff"><path d="m35.39 731.22c19.88-.63 39.79-.21 59.68-.24 6.63-.46 13.03 5.16 12.67 11.95.07 20.04.03 40.09.02 60.13.47 6.5-5.11 12.65-11.72 12.38-12.01.11-24.02 0-36.04-.04-.8 20.11-.12 40.27-.32 60.4-8.09.13-16.19.17-24.28-.05.09-48.17.1-96.35-.01-144.53m24.56 24.1c-.57 11.96-.32 23.96-.14 35.93 7.96.23 15.94.39 23.9-.12-.05-11.93-.01-23.86-.04-35.79-7.91.03-15.82.04-23.72-.02z"/><path d="m117.4 731.21c19.88-.61 39.79-.2 59.67-.24 6.65-.47 13.08 5.15 12.71 11.97-.11 20.94.34 41.93-.21 62.86-1 8.55-10.6 10.74-17.79 10.1 7.25 20.18 16.19 39.74 23.4 59.94-7.96.02-15.92.39-23.88-.03-7.27-18.84-14.26-37.79-21.35-56.69-.68-4.2-4.88-3.69-8.12-3.5-.37 20.05-.05 40.12-.14 60.18-8.09.13-16.19.17-24.29-.04.1-48.18.11-96.37 0-144.55m24.55 24.11c-.55 11.96-.3 23.95-.13 35.92 7.96.24 15.94.4 23.89-.11-.07-11.93-.02-23.86-.05-35.79-7.9.03-15.8.05-23.71-.02z"/><path d="m529.32 737.34c1.97-6.15 9.19-6.88 14.68-6.74 18.86.33 37.75-.43 56.59.4-.08 15.93-.11 31.86.01 47.8-8.1.47-16.22.38-24.33.09-.1-7.93.24-15.85-.14-23.76-6.33-.1-12.67-.11-19-.02 13.73 31.06 27.87 61.95 41.83 92.91 2.31 6.15 1.93 13.1.41 19.41-1.56 6.17-8.75 8.06-14.34 8.17-18.94.03-37.88-.08-56.82.04-.1-16.12-.07-32.25-.01-48.38 7.96-.04 15.91-.04 23.86-.02.43 7.94.1 15.88.19 23.82 6.64.38 13.3.37 19.95.03-13.94-31.27-28.66-62.2-42.9-93.34-1.91-6.54-1.79-13.86.02-20.41z"/><path d="m611.4 737.38c1.93-6.16 9.11-6.95 14.6-6.78 18.87.31 37.76-.4 56.61.37-.05 15.94-.08 31.89.02 47.84-8.1.47-16.21.39-24.31.03-.06-7.91.28-15.82-.13-23.72-6.35-.08-12.69-.1-19.04-.01 13.47 30.08 27.02 60.13 40.68 90.13 3.68 6.74 3.57 14.97 1.67 22.23-1.75 6.11-8.82 8.04-14.46 8.13-18.92.02-37.85-.08-56.76.04-.07-16.12 0-32.25-.03-48.37 7.96-.06 15.93-.03 23.9-.03.41 7.92.07 15.86.15 23.79 6.64.42 13.3.4 19.94.06-13.83-31.34-28.71-62.22-42.86-93.41-1.88-6.51-1.78-13.79.02-20.3z"/></g></g><g fill="#ffd32f"><path d="m372.845 29.688 6.322 31.48h20.461l-16.553 19.456 6.323 31.48-16.553-19.456-16.553 19.456 6.322-31.48-16.553-19.456h20.461z" transform="matrix(1.38222 0 0 .872212 -146.802 15.8508)"/><path d="m266.844 77.229 4.851 19.988h15.7l-12.702 12.353 4.852 19.988-12.701-12.353-12.702 12.353 4.852-19.988-12.702-12.353h15.7z" transform="matrix(1.17902 0 0 .915439 -50.0391 7.77078)"/><path d="m266.844 77.229 4.851 19.988h15.7l-12.702 12.353 4.852 19.988-12.701-12.353-12.702 12.353 4.852-19.988-12.702-12.353h15.7z" transform="matrix(1.17902 0 0 .915439 -128.568 45.8909)"/><path d="m266.844 77.229 4.851 19.988h15.7l-12.702 12.353 4.852 19.988-12.701-12.353-12.702 12.353 4.852-19.988-12.702-12.353h15.7z" transform="matrix(1.17902 0 0 .915439 152.445 8.02358)"/><path d="m266.844 77.229 4.851 19.988h15.7l-12.702 12.353 4.852 19.988-12.701-12.353-12.702 12.353 4.852-19.988-12.702-12.353h15.7z" transform="matrix(1.17902 0 0 .915439 231.185 45.4387)"/></g><g fill-rule="nonzero" stroke-width=".09"><g fill="#ffd32f" stroke="#ffd32f"><path d="m439.62 263.67c4.22.36 5.4 3.55 3.72 7.2-2.27-1.8-3.63-4.29-3.72-7.2z"/><path d="m260.96 277.97c-4 1.18-4.29-3.02-3.31-5.77 1.3 1.73 4.39 3.2 3.31 5.77z"/><path d="m201.83 731.07c23.1-.1 46.21-.12 69.32-.01.35 6.03.35 12.06.02 18.09-7.96.42-15.94.02-23.91.15-.01 3.1.01 6.21.05 9.32 12.23-2.64 25.91 7.47 24.9 20.36-.33 16.98.4 34-.33 50.96-1.14 11.45-13.54 16.71-23.81 15.26-.07 3.5-.04 7.01.1 10.52 7.66.06 15.33-.31 22.99.15.33 6.69.34 13.4.01 20.11-23.44.13-46.89.2-70.33-.05-.36-6.94-.35-13.89 0-20.83 7.96-.35 15.93.25 23.89-.33.02-3.18.02-6.35 0-9.51-7.31-.1-15.6-.36-21.06-5.94-3.79-4.86-4.1-11.4-4.09-17.31.21-14.69-.03-29.37.08-44.05.72-12.37 13.23-21.83 25.4-19.32.2-3.12.22-6.25.06-9.36-7.77-.09-15.55.28-23.31-.14-.36-6.02-.37-12.05.02-18.07m22.26 48.02c-.11 15.2-.41 30.42.13 45.61 7.82-.05 15.64-.05 23.46 0 .02-15.17-.03-30.34.03-45.51-7.87-.36-15.75-.32-23.62-.1z"/><path d="m281.66 743.97c-.44-6.47 4.46-13.36 11.33-13.24 16.33-.19 32.69-.04 49.04-.07 6.78-.48 12.45 5.64 12.13 12.29.23 38.68-.04 77.37.14 116.05-.05 4.44-.07 9.5-3.43 12.88-3.17 3.69-8.44 3.53-12.88 3.55-18.7-.3-37.42.22-56.12-.25-.35-16.07-.31-32.15-.02-48.21 8.04-.13 16.09-.13 24.14.06.36 7.95-.07 15.92.14 23.88 7.87.22 15.74.25 23.61-.07-.01-11.85-.01-23.7-.02-35.54-12.25-.2-24.52.33-36.77-.14-6.74-.07-11.65-6.68-11.27-13.12-.03-19.35.01-38.72-.02-58.07m24.52 11.2c-.12 11.9-.13 23.8-.02 35.7 7.88.27 15.76.28 23.63-.04.13-11.89.1-23.78.01-35.67-7.87-.27-15.75-.2-23.62.01z"/><path d="m363.92 731.02c20.05-.06 40.1.01 60.15-.04 6.97-.38 12.73 6.15 12.21 12.98-.19 20.61.58 41.3-.36 61.87-1.7 11.11-14.64 10.48-23.15 10.19 7.07 20.28 16.15 39.8 23.42 60-8.03.12-16.06.15-24.08-.04-8.35-19.2-15.26-39-23.7-58.16-.47 19.38.22 38.77-.3 58.14-8.06.21-16.12.19-24.17.06-.18-48.33-.14-96.67-.02-145m24.39 24.27c-.09 12.13-.03 24.26-.03 36.4 7.83-.08 15.67-.08 23.5-.01.39-12.12.45-24.27-.02-36.39-7.82.04-15.64.04-23.45 0z"/><path d="m445.82 743.96c-.5-6.75 5.2-13.3 12.12-12.97 16.03.07 32.09-.1 48.13-.01 6.64-.42 12.41 5.38 12.2 11.98.09 12.07.24 24.15-.14 36.22-8 .31-16.02.34-24.02-.02-.38-7.95.27-15.92-.34-23.86-7.81.03-15.63.03-23.45 0-.05 12.47-.01 24.95-.05 37.43 7.2.11 14.41-.23 21.62.14.23 7.07.23 14.15-.02 21.23-7.19.35-14.39.02-21.59.15.04 12.28-.01 24.56-.02 36.85 7.88.5 15.78.43 23.66.06.38-7.95-.24-15.91.25-23.85 7.97.03 15.94.01 23.91.01.56 12.22.26 24.47.23 36.7.15 6.57-5.64 12.34-12.24 11.97-16.03.09-32.08.18-48.1 0-6.85.09-12.61-6.14-12.19-12.94-.04-39.69.03-79.4.04-119.09z"/></g><g fill="#ff5c53" stroke="#ff5c53"><path d="m324.21 147.11c8.32-5.32 18.42-5.76 27.83-7.74 17.36-.98 34.84.69 51.94 3.75 16.06 3.9 30.29 13.55 42.64 24.24-14.23 5.12-26.56 14.12-40.48 19.81-5.98 3.13-11.16 7.49-16.3 11.81-3.27 3.02-8.89 1.22-11.43 5.32-7.65 7.88-9.88 20.37-4.06 29.96 6.94-.86 14.4 1.9 20.94-1.04 15.86-11.08 30.49-23.88 47-34.03 6.97-5.09 16.12-4.67 23.65-8.5 3.52-1.64 6.9-4.22 10.98-4.02 7 .29 12.95 4.42 19.08 7.37 8.61 6.85 13.62 17.09 20.25 25.67 5.31 5.42 12.96.41 18.68-1.68 10.5-3.67 17.85-12.2 25.66-19.62 7.14-2.79 14.31-5.82 20.54-10.36 7.37-5.47 10-14.66 14.67-22.16 4.28-7.63 10.4-14.11 14.12-22.07 16 .59 28.2 13.59 35.45 26.8 6.49 11.55 13.66 25.44 9.23 38.89-8.52-3.2-17.74-2.16-26.59-3.41-8.62-1.16-17.33-.85-26-.94-18.92-1.24-35.47 9.54-52.14 16.8-9.52 3.75-19.01 7.59-28.72 10.83 2.95 6.88 6.35 13.58 10.4 19.88 15.11 27.94 37.4 51.77 49.24 81.52 5.51 14.32 8.88 30.09 5.72 45.37-.97 6.51-3.93 12.49-5.14 18.93-2.12 14.25.03 28.7 3.49 42.56 4.2 15.79 8.03 31.69 11.23 47.72 2.49 12.15 2.56 25.02-1.52 36.85-3.91 12.07-6.91 25.38-15.76 34.92-7.68 6.4-13.61 14.57-21.02 21.27-19.65 18.03-39.32 37.18-64.16 47.93-10.71 4.36-20.93 10.02-32.24 12.8-15.59 4.1-31.01 10.26-47.39 9.87-32.44 2.68-65.44-.67-96.38-10.91-15.2-5.91-31.46-9.65-45.22-18.77-14.52-8.31-29.24-20.94-31.63-38.46 5.39-2.15 10.98-3.74 16.63-5.05 12.98-3.04 24.45-10.11 36.58-15.37 9.15-5.69 19.49-12.39 22.57-23.39 2.03-6.24 9.21-7.97 13.04-12.8 10.03-12.39 19.11-26.36 21.48-42.45 4.1-12.76 3.06-26.19 4.6-39.29 8.21.34 16.32-1.03 24.23-3.13 11.5-2.93 23.4-1.65 35.11-1.74 14.75.11 29.59-3.08 44.2.3 14.72.97 28.8 5.59 42.38 11.02 8.03 5.6 15.77 11.65 23.9 17.12 4.37 2.56 1.86 8.61 5.07 11.96 2.19 2.49 4.13 5.18 5.51 8.21 1.82 4.09 7.13 5.58 8.1 10.17 1.11 4.23 1.9 8.56 3.43 12.68 9.36-25.81 4.23-53.71-1.37-79.72-1.83-14.86-7.46-28.78-12.35-42.81-3.08-8.64-9.3-15.75-16.28-21.52-24.66-17.79-45.74-41.5-57.48-69.74.23-6.53 8.45-8.53 13.64-10.1 12.4-3.03 23.93-8.75 34.99-14.99 2.34-1.16 3.54-3.53 4.59-5.78-6.61 2-10.96 7.95-17.47 10.15-5.7 2.05-11.4 4.1-17.22 5.81-8.64 2.66-18.51-.6-26.35 4.84 6.62 10.23 9.71 22.18 15.19 33 5.5 11.69 8.35 27.93-1.89 37.92-4.85 5.48-12.64 4.24-19.14 4.11 5.87 7.45 15.82 9.2 23.35 14.44 10.06 5.88 16.38 15.9 22.99 25.14 14.84 18.41 26.45 39.34 33.34 61.97-16.67-11.17-33.26-24.95-53.89-27.39-23.54-6.27-48.09-5.93-72.25-5.62-18.84 1.73-38 .11-56.6 4.28-21.46 3.45-42.5 9.01-63.5 14.55-27.87 6.85-54.68 19.5-76.11 38.79-8.99 6.44-16.1 15.33-25.83 20.7 4.43-8.95 12.57-15.15 18.5-23.03 12.28-16 30.18-26.05 47.55-35.58 11.71-5.83 24.5-8.94 37.15-11.95 5.75-1.12 7.38-7.32 8.38-12.25 2.02-10.9 5.47-21.87 12.48-30.65 9.87-12.79 23.63-21.62 37.24-29.93 6.51-4.8 14.71-5.14 22.38-6.43-6.65-2.39-13.74-3.22-20.33-5.85-6.34-2.64-12.44 1.91-18.71 1.7-5.91-3.35-7.91-10.77-13.34-14.81-10.62-10.38-28.46-14.59-41.12-5.36 1.51 9.38 4.14 18.59 9.08 26.78-12.19 1.81-24.28-9.86-22.49-22.17.35-19.69 17.44-34.53 34.8-40.67 12.94-4.71 25.16-11.77 38.86-14.1 5.38-11.6 7.72-24.26 12.68-35.99 2.53-6.6 8.2-11.1 14.2-14.44-4.71-.51-10.15-.7-13.32-4.79-9.45-10.48-19.45-24.66-14.21-39.44-2.54-.34-5.08-.63-7.62-.95-1.34-4.39-3.72-9.37-1.49-13.86 2.42-3.44 7.05-3.81 10.87-4.4 11.23-1.07 22.41-2.61 33.6-4.07-9.28-.9-18.66.58-27.88-1.35-5.77-1.31-12.77.91-17.7-2.66-2.56-6.75 5.33-11.1 6.69-17.18m276.06 35.04c-2.09 4.62-3.87 11.87 1.7 14.78 6.7 1.79 13.88 1 20.7.19-6.09-1.6-13.07-1.36-18.16-5.56-3.09-2.22-1.55-6.43-.31-9.27 4.17-8.51 8.38-17.1 10.74-26.33-6.61 7.63-10.33 17.2-14.67 26.19m-244.42 3.99c-6.29 4.64-14.4 1.81-21.2 4.98 5.71 1.54 9.81 5.68 13.34 10.19 3.33-4.22 6.68-9.03 12.31-10.2 8.75-3.88 18.4-.77 27.4-3.09-9.61-5.42-21.54-4.33-31.85-1.88m44.14 52.45c5.28 2.6 10.04 6.16 13.67 10.82l-.87.18c7.99 3.66 13.69 10.15 18.09 17.58 7.17 3.72 12.56 9.73 18.23 15.31 5.16-1.5 10.45-2.77 15.87-2.66 11.42.22 22.4-3.44 33.15-6.85 7.17-2.19 13.63-8.88 13.38-16.66-6.64-11.49-8.69-24.9-15.62-36.32-3.85-10.37-15.76-14.25-25.95-12.88-25.99 2.08-50.23 14.93-69.95 31.48m21.67 95.17c-9.36 4.9-14.91 14.19-19.45 23.33 2.77 2.86 6.03 5.21 9.67 6.86 3.72-2.81 7.3-6.58 12.17-7.07 4.39.8 7.96 4.38 12.54 4.45 5.32-.34 8.76-5.02 11.89-8.77 3.39-4.68 7.13-10.2 6.21-16.25-2.07-4.16-6.14-8.9-11.33-7.89-7.44.62-15.25 1.15-21.7 5.34m74.98 189.06c5.84 5.12 17.37-.81 13.33-8.66-4.47 2.93-11.03 3.11-13.33 8.66m-2.64 85.31c-19.99 8.64-41.38 13.67-62.97 16.04-5.58.6-11.77-1.58-16.77 1.75 4.13 3.47 9.68 3.19 14.73 3.01 18.98.32 37.83-3.55 55.85-9.26 19.02-7.14 35.05-20.28 49-34.75 1.93-2.53 2.58-5.72 3.34-8.74-13.39 11.86-26.1 25.43-43.18 31.95z"/><path d="m85.02 181.04c4.72-4.21 12.31-3.89 17.29-.32 9.57 6.69 16.69 16.2 23.12 25.8 3.86 6.27 8.28 12.68 15.11 16 19.9 10.03 43.7 11.41 64.88 4.79-1.37 2.86-2.35 6.16-4.88 8.26-5.73 1.72-11.71-.64-17.55-.41-8.38-.28-15.62 5.22-23.97 5.13-9.93-.05-19.58-2.69-29.23-4.72-20.65-2.54-39.88 9.02-60.37 8.33-2.64-4.38-1.86-10.02-2.52-14.97-1.47-14.12 5.25-27.09 9.59-40.11 2.71-2.73 5.64-5.25 8.53-7.78m3.77 3.71c-3.2 3.42-7.71 6.98-7.43 12.15 1.95 5.29 8.58 9.24 6.36 15.64-.45 9.95-8.72 16.34-13.14 24.53 12.08 1.22 24.14-1.93 35.76-4.94 4.26-1.44 9.46-2.64 11.91-6.78 2.78-8.39-3.26-15.87-6.73-23-3.9-8.07-11.45-13.38-18.94-17.82-2.35-1.45-5.8-2.25-7.79.22z"/><path d="m249.02 194.07c6.09-3.75 12.27-7.51 19.03-9.95-.74 2.57-2.92 5.97-.49 8.25 10.54 11 25.06 16.35 37.97 23.87 10.68 4.45 18.65 13.08 27.8 19.86-.74.66-1.47 1.33-2.2 2-17.89-14.26-38.93-23.56-59.06-34.08-7.36-3.96-14.03-10.69-23.05-9.95z"/></g><g fill="#410502" stroke="#410502"><path d="m576.92 179.97c10.44-12.78 16.59-31.17 33.4-37.03l-.4.88c-3.72 7.96-9.84 14.44-14.12 22.07-4.67 7.5-7.3 16.69-14.67 22.16-6.23 4.54-13.4 7.57-20.54 10.36-.51-.19-1.55-.57-2.06-.76 5.83-6.2 13.12-10.92 18.39-17.68z"/><path d="m302.43 155.39c7.26-2.76 14.45-5.71 21.78-8.28-1.36 6.08-9.25 10.43-6.69 17.18 4.93 3.57 11.93 1.35 17.7 2.66 9.22 1.93 18.6.45 27.88 1.35-11.19 1.46-22.37 3-33.6 4.07-3.82.59-8.45.96-10.87 4.4-2.23 4.49.15 9.47 1.49 13.86 2.54.32 5.08.61 7.62.95-5.24 14.78 4.76 28.96 14.21 39.44 3.17 4.09 8.61 4.28 13.32 4.79-6 3.34-11.67 7.84-14.2 14.44-4.96 11.73-7.3 24.39-12.68 35.99-13.7 2.33-25.92 9.39-38.86 14.1-17.36 6.14-34.45 20.98-34.8 40.67-1.79 12.31 10.3 23.98 22.49 22.17-4.94-8.19-7.57-17.4-9.08-26.78 12.66-9.23 30.5-5.02 41.12 5.36 5.43 4.04 7.43 11.46 13.34 14.81 6.27.21 12.37-4.34 18.71-1.7 6.59 2.63 13.68 3.46 20.33 5.85-7.67 1.29-15.87 1.63-22.38 6.43-13.61 8.31-27.37 17.14-37.24 29.93-7.01 8.78-10.46 19.75-12.48 30.65-1 4.93-2.63 11.13-8.38 12.25-12.65 3.01-25.44 6.12-37.15 11.95-17.37 9.53-35.27 19.58-47.55 35.58-5.93 7.88-14.07 14.08-18.5 23.03 9.73-5.37 16.84-14.26 25.83-20.7 21.43-19.29 48.24-31.94 76.11-38.79 21-5.54 42.04-11.1 63.5-14.55 18.6-4.17 37.76-2.55 56.6-4.28 24.16-.31 48.71-.65 72.25 5.62 20.63 2.44 37.22 16.22 53.89 27.39-6.89-22.63-18.5-43.56-33.34-61.97-6.61-9.24-12.93-19.26-22.99-25.14-7.53-5.24-17.48-6.99-23.35-14.44 6.5.13 14.29 1.37 19.14-4.11 10.24-9.99 7.39-26.23 1.89-37.92-5.48-10.82-8.57-22.77-15.19-33 7.84-5.44 17.71-2.18 26.35-4.84 5.82-1.71 11.52-3.76 17.22-5.81 6.51-2.2 10.86-8.15 17.47-10.15-1.05 2.25-2.25 4.62-4.59 5.78-11.06 6.24-22.59 11.96-34.99 14.99-5.19 1.57-13.41 3.57-13.64 10.1 11.74 28.24 32.82 51.95 57.48 69.74 6.98 5.77 13.2 12.88 16.28 21.52 4.89 14.03 10.52 27.95 12.35 42.81 5.6 26.01 10.73 53.91 1.37 79.72-1.53-4.12-2.32-8.45-3.43-12.68-.97-4.59-6.28-6.08-8.1-10.17-1.38-3.03-3.32-5.72-5.51-8.21-3.21-3.35-.7-9.4-5.07-11.96-8.13-5.47-15.87-11.52-23.9-17.12-13.58-5.43-27.66-10.05-42.38-11.02-14.61-3.38-29.45-.19-44.2-.3-11.71.09-23.61-1.19-35.11 1.74-7.91 2.1-16.02 3.47-24.23 3.13-1.54 13.1-.5 26.53-4.6 39.29-2.37 16.09-11.45 30.06-21.48 42.45-3.83 4.83-11.01 6.56-13.04 12.8-3.08 11-13.42 17.7-22.57 23.39-12.13 5.26-23.6 12.33-36.58 15.37-5.65 1.31-11.24 2.9-16.63 5.05 2.39 17.52 17.11 30.15 31.63 38.46 13.76 9.12 30.02 12.86 45.22 18.77 30.94 10.24 63.94 13.59 96.38 10.91 16.38.39 31.8-5.77 47.39-9.87 11.31-2.78 21.53-8.44 32.24-12.8 24.84-10.75 44.51-29.9 64.16-47.93 7.41-6.7 18.577-22.601 26.257-29.001 1.29 3.56-5.927 14.731-7.257 17.951-9.37 20.34-24 37.61-38.94 54.04-7.95 8.49-18.76 13.06-27.55 20.49-5.34 3.98-9.46 9.59-15.59 12.47-18.51 8.37-36.74 18.07-56.77 22.27-11.66.67-23.28 2.29-34.99 1.74-18.68 2-37.67 2.55-56.37.51-27.32-5.57-55.03-9.16-82.12-15.82-39.53-7.39-76.98-26.02-106.37-53.5-8.33-11.44-18.4-21.82-24.1-34.97-5.44-12.19-15.12-23.08-15.29-37.04-1.72-13.06-3.46-26.5.47-39.37 3.45-25.5 17.2-49.36 14.48-75.64-2.34-16.82-4.67-33.95-1.92-50.88 2.36-19.13 11.72-36.37 21.8-52.45 8.91-16.86 22.1-31.05 30.93-47.9-.73-5.24-4.59-10.31-9.42-12.73-15.49-8.28-32.47-14-50.02-15.47-19.16.58-38.06 9.66-57.29 4.97-5.15-.58-5.69-6.39-6.05-10.47-.58-18.33 2.4-37.9 14.81-52.19-4.34 13.02-11.06 25.99-9.59 40.11.66 4.95-.12 10.59 2.52 14.97 20.49.69 39.72-10.87 60.37-8.33 9.65 2.03 19.3 4.67 29.23 4.72 8.35.09 15.59-5.41 23.97-5.13 5.84-.23 11.82 2.13 17.55.41 2.53-2.1 3.51-5.4 4.88-8.26 8.69-16.48 23.85-32.25 43.6-33.24 9.02-.74 15.69 5.99 23.05 9.95 20.13 10.52 41.17 19.82 59.06 34.08.73-.67 1.46-1.34 2.2-2-9.15-6.78-17.12-15.41-27.8-19.86-12.91-7.52-27.43-12.87-37.97-23.87-2.43-2.28-.25-5.68.49-8.25 9.01-12.03 20.77-22.25 34.38-28.73m-55.48 87.53c-9.45 6.83-17.49 15.36-26.17 23.11 7.37 11.32 20.38 15.93 33.08 18.17-2.3-3.34-5.07-6.39-6.92-10.03-4.1-11 1.87-24.55 13.2-28.25-4.09-1.69-8.86-6.71-13.19-3m28.89 10.71c-2.02 3.65 1.14 5.85 3.97 7.49 3.56 1.84 3.68 6.22 4.63 9.63.61.05 1.83.14 2.44.19 4.34-8.02-2.56-17.01-11.04-17.31m-26.39 16.24c.64 2.65 1.64 5.19 3.13 7.48.88-2.54 1.7-5.1 2.5-7.66-1.88.06-3.76.1-5.63.18m11.51 8.1c1.08-2.57-2.01-4.04-3.31-5.77-.98 2.75-.69 6.95 3.31 5.77m9.4.43c-5.03-1.13-8.71 3.63-13.74 3.21 4.46 6.13 12.71 5.17 19.35 4.59 5.41-.54 11.36-5.22 11.13-10.98-6.31-6.27-10.15 5.27-16.74 3.18z"/><path d="m600.27 182.15c4.34-8.99 8.06-18.56 14.67-26.19-2.36 9.23-6.57 17.82-10.74 26.33-1.24 2.84-2.78 7.05.31 9.27 5.09 4.2 12.07 3.96 18.16 5.56-6.82.81-14 1.6-20.7-.19-5.57-2.91-3.79-10.16-1.7-14.78z"/><path d="m446.62 167.36c9.65-5.49 21.05-1.14 29.53 4.49 7.01 5.53 14.94 10.46 19.64 18.29.94 1.16.28 2.59.21 3.9-6.13-2.95-12.08-7.08-19.08-7.37-4.08-.2-7.46 2.38-10.98 4.02-7.53 3.83-16.68 3.41-23.65 8.5-16.51 10.15-31.14 22.95-47 34.03-6.54 2.94-14 .18-20.94 1.04-5.82-9.59-3.59-22.08 4.06-29.96 2.54-4.1 8.16-2.3 11.43-5.32 5.14-4.32 10.32-8.68 16.3-11.81 13.92-5.69 26.25-14.69 40.48-19.81z"/><path d="m88.79 184.75c1.99-2.47 5.44-1.67 7.79-.22 7.49 4.44 15.04 9.75 18.94 17.82 3.47 7.13 9.51 14.61 6.73 23-2.45 4.14-7.65 5.34-11.91 6.78-11.62 3.01-23.68 6.16-35.76 4.94 4.42-8.19 12.69-14.58 13.14-24.53 2.22-6.4-4.41-10.35-6.36-15.64-.28-5.17 4.23-8.73 7.43-12.15z"/><path d="m355.85 186.14c10.31-2.45 22.24-3.54 31.85 1.88-9 2.32-18.65-.79-27.4 3.09-5.63 1.17-8.98 5.98-12.31 10.2-3.53-4.51-7.63-8.65-13.34-10.19 6.8-3.17 14.91-.34 21.2-4.98z"/><path d="m549.87 221.96c16.67-7.26 33.22-18.04 52.14-16.8 8.67.09 17.38-.22 26 .94 8.85 1.25 18.07.21 26.59 3.41-1.97 1.82-4.11 3.66-6.86 4.11-10.73 2.4-21.79 2.56-32.73 2.46-9.14-.08-18.42-1.78-27.44.4-10.68 2.43-21.48 5.42-30.82 11.35-10.04 6.27-20.6 13.41-25.2 24.84-4.05-6.3-7.45-13-10.4-19.88 9.71-3.24 19.2-7.08 28.72-10.83z"/><path d="m399.99 238.59c19.72-16.55 43.96-29.4 69.95-31.48 10.19-1.37 22.1 2.51 25.95 12.88 6.93 11.42 8.98 24.83 15.62 36.32.25 7.78-6.21 14.47-13.38 16.66-10.75 3.41-21.73 7.07-33.15 6.85-5.42-.11-10.71 1.16-15.87 2.66-5.67-5.58-11.06-11.59-18.23-15.31-1.89-12.02 2.99-26.81 15.6-30.71 9.91-1.83 19.83 3.59 26.35 10.75 7.04 8.41 4.48 20.63.53 29.86 9.46-.95 18.87-3.33 27.55-7.21 4.81-2.7 10.63-9.54 6.17-14.88-5.43-6.73-11.44-13.15-14.93-21.19-4.56-10.26-17.67-12.09-27.5-9.99-9.02 2.42-18.46 4.99-25.89 10.92-7.15 6.65-14.87 13.76-25.1 14.69-3.63-4.66-8.39-8.22-13.67-10.82m54.83 10.96c6.21 2.74 8.28 9.15 12.14 14.11 6.92-6.38-.53-18.07-8.87-17.97-2 .2-2.38 2.46-3.27 3.86m10.07 14.74c-5.13.36-8.2 6.27-13.71 5.2-3.7-.63-6.71 1.36-8.81 4.23 2.75 2.81 5.55 7.87 10.24 6.12 5.52-1.53 11.29-1.91 16.81-3.38 4.7-3.34 5.47-9.64 4.86-14.97-3.01 1.3-6.11 2.44-9.39 2.8m-25.27-.62c.09 2.91 1.45 5.4 3.72 7.2 1.68-3.65.5-6.84-3.72-7.2z"/><path d="m421.66 333.76c6.45-4.19 14.26-4.72 21.7-5.34 5.19-1.01 9.26 3.73 11.33 7.89.92 6.05-2.82 11.57-6.21 16.25-3.13 3.75-6.57 8.43-11.89 8.77-4.58-.07-8.15-3.65-12.54-4.45-4.87.49-8.45 4.26-12.17 7.07-3.64-1.65-6.9-4-9.67-6.86 4.54-9.14 10.09-18.43 19.45-23.33z"/><path d="m496.64 522.82c2.3-5.55 8.86-5.73 13.33-8.66 4.04 7.85-7.49 13.78-13.33 8.66z"/><path d="m494 608.13c17.08-6.52 29.79-20.09 43.18-31.95-.76 3.02-1.41 6.21-3.34 8.74-13.95 14.47-29.98 27.61-49 34.75-18.02 5.71-36.87 9.58-55.85 9.26-5.05.18-10.6.46-14.73-3.01 5-3.33 11.19-1.15 16.77-1.75 21.59-2.37 42.98-7.4 62.97-16.04z"/></g><g fill="#fffed7" stroke="#fffed7"><path d="m464.65 223.8c9.83-2.1 22.94-.27 27.5 9.99 3.49 8.04 9.5 14.46 14.93 21.19 4.46 5.34-1.36 12.18-6.17 14.88-8.68 3.88-18.09 6.26-27.55 7.21 3.95-9.23 6.51-21.45-.53-29.86-6.52-7.16-16.44-12.58-26.35-10.75-12.61 3.9-17.49 18.69-15.6 30.71-4.4-7.43-10.1-13.92-18.09-17.58l.87-.18c10.23-.93 17.95-8.04 25.1-14.69 7.43-5.93 16.87-8.5 25.89-10.92z"/><path d="m246.95 242.92c4.33-3.71 9.1 1.31 13.19 3-11.33 3.7-17.3 17.25-13.2 28.25 1.85 3.64 4.62 6.69 6.92 10.03-12.7-2.24-25.71-6.85-33.08-18.17 8.68-7.75 16.72-16.28 26.17-23.11z"/><path d="m454.82 249.55c.89-1.4 1.27-3.66 3.27-3.86 8.34-.1 15.79 11.59 8.87 17.97-3.86-4.96-5.93-11.37-12.14-14.11z"/><path d="m275.84 253.63c8.48.3 15.38 9.29 11.04 17.31-.61-.05-1.83-.14-2.44-.19-.95-3.41-1.07-7.79-4.63-9.63-2.83-1.64-5.99-3.84-3.97-7.49z"/></g></g></g></svg>