<svg clip-rule="evenodd" fill-rule="evenodd" stroke-linejoin="round" stroke-miterlimit="2" viewBox="0 0 175 278" xmlns="http://www.w3.org/2000/svg"><g fill-rule="nonzero"><path d="m110.463 35.15c-3.12 4.47-6.34 9.29-6.72 14.89.36 2.08-4.34 2.43-3.82-.01-.17-1.75-.11-3.51-.21-5.26-.68 2.33.18 5.49-2.1 7.02-1.7.66-2.83-.82-3.93-1.82-.47.34-1.43 1.01-1.91 1.34-.59-.33-1.78-.99-2.37-1.32-.86-3.13-1.55-6.3-2.37-9.45.02 2.16.15 4.32-.01 6.47-.92 1.9-2.79 3.16-4.35 4.52-1.88.07-3.6-.78-5.32-1.41-.72 1.2-1.5 2.36-2.34 3.47-.84-.31-2.53-.92-3.37-1.23.1 1.81-.72 4.22-2.98 4.02-4.01-.38-7.5-2.68-11.08-4.35 3.23 3.5 7.14 6.37 10.16 10.04.65 2.21-1.95 2.82-3.62 2.8-.43.96-.87 1.92-1.31 2.89-1.64.04-3.28-.02-4.92-.18.64 1.28 2.3 2.95.82 4.29-1.15 2.28-3.98 1.34-6.02 1.49-3.15-.68-5.23 2.32-8.11 2.98 1.15.08 2.29.22 3.42.4.78 3.46-2.96 5.15-5.09 7.09 2.45 3.09-1.62 5.68-2.89 8.37 1.2.26 4.07 1.01 2.48 2.76-1.82 4-5.99 5.98-8.66 9.29-2.65 3.32-6.08 6.99-4.99 11.64 2.86-2.3 3.91-5.93 5.82-8.92 1.38-2.06 2.73-4.14 4.09-6.22.59.25 1.78.76 2.37 1.01-2.24 3.94-4.63 7.79-6.94 11.69-1.63 5.31-3.75 10.59-4.12 16.18-1.48 2.58-1.59 5.64-1.96 8.52.45-1.68.75-3.41 1-5.13l.99.62c.33-4.14.71-8.6 3.15-12.11 1.96-3.22 2.42-7.15 4.29-10.38l1.73-.83c.3 4.81-1.89 9.19-2.96 13.75-.5 7.84-3.01 15.32-4.87 22.89-1.22 4.95-1.48 10.27-3.82 14.85-3.7.6-3.08-4.44-3.11-6.81-3.06-2.07-2.88-6.13-4.73-9.03-2.09-4.44-7.24-7.32-12.11-6.35-1.12.83-1.76 2.11-2.52 3.25 1.36 6.55 8.94 10.08 8.92 17.12-.51 8.5-5.57 15.8-7.38 23.99-.69 1.89-.09 4.16 1.43 5.47 3.3 1.09 5.99-1.86 7.86-4.15 2.68-4.43 4.01-9.51 5.83-14.32.68-1.11 2.14-.65 3.02-.09.42 3.81-.69 7.53-1.61 11.19 1.2 14.82 6.17 28.95 11.25 42.81 1.93 7.82 5.91 14.87 9.62 21.95 10.37 16.71 30.46 28.34 50.39 25.51 11.65-4.37 21.8-12.1 29.91-21.47 6.64-7.57 12.91-15.5 18-24.19 9.36-14.35 13.11-31.31 16.69-47.81 3.05-11.08 2.67-22.66 3.9-34 .59-5.26-1.08-10.45-.44-15.71.65-5.77-.23-11.57-1.18-17.25-.46-5.04-1.24-10.07-2.72-14.91-1.75-5.65-2.46-11.63-4.93-17.03-2.55-4.67-5.23-9.31-8.84-13.26-3.59-5.11-9.27-8.06-13.7-12.32-3.35-2.82-6.96-6.11-11.58-6.26-3.47-.44-6.91-1.25-10.08-2.78-.87 1.56-1.83 3.07-2.93 4.49-.72-1.5-2.23-3.12-1.4-4.9 1.34-3.49 3.71-6.44 5.28-9.8m-9.21 33.45c7.38 2.87 15.43.88 23.04 1.43.98 1.64-.47 2.96-2.01 3.3-5.14 1.15-10.48.97-15.7.72-3.74-.81-8.27-1.67-10.46-5.15 1.2-2.04 3.4-.66 5.13-.3m-12.78 16.12c-.94-3.31-3.51-6.31-3.18-9.85 1.83-1.9 2.5 1.25 3.38 2.27 3.43 6.85 6.52 13.97 8.56 21.36.17.66.52 1.97.69 2.62l1.46.73c-.52-3.75-1.12-7.51-.94-11.31l2.35 1.55c2.5 6.9 1.41 14.72 4.22 21.47.32-.38.95-1.13 1.26-1.51.65-2.94 1.62-5.84 3.09-8.47 1.24-.44 3.4-.61 3.08 1.34-.83 3.7-1.75 7.39-2.78 11.03-1.47 3.17-3.33 6.16-5.11 9.16-1.34.64-3.48 1.27-4.46-.26-2.7-3.76-6.68-6.26-9.92-9.5-2.25-2.17-4.35-4.68-7.35-5.84-2.54-.75-4.2 1.38-5.79 2.95-4.11 4.22-6.33 9.77-8.71 15.05-2.66 6.11-2.59 12.95-2.46 19.49.46 6.75 2.07 14.34 7.79 18.63 2.61.46 5.36.36 7.93-.25 4.35-1.54 6.93-5.51 9.97-8.7.55.08 1.66.25 2.22.33 1.81 3.63-1.35 6.96-2.9 10.04-2.82 6.21-7.49 12.12-14.13 14.43-2.83.61-3.73-3.66-1.48-4.95 2.29-1.52 4.7-2.9 6.55-4.99-3.21.02-6.55.7-9.69-.26-4.51-1.86-7.27-6.32-9.27-10.55-6.62-18.2-2.2-40.12 11.63-53.82-4.47-.92-9.44-.96-13.23-3.85 4.17-.96 8.59-1.02 12.67.37-1.5-1.15-2.89-2.43-4.22-3.76 4.35-1.35 8.1 1.3 11.5 3.6 2.85 1.82 6.29 2.98 8.26 5.88 1.74 2.17 3.99 3.82 6.19 5.48-1.35-1.84-2.48-3.89-4.23-5.39-6.8-4.83-13.04-10.4-19.97-15.05.44-.93.9-1.84 1.4-2.73-2.43-1.45-5.36-2.38-7.19-4.61-.1-2.14 2.32-1.82 3.62-1.12 3.02 1.35 6.1 2.58 9.05 4.06-3.14-2.58-6.14-5.35-9.04-8.19-.08-.51-.25-1.53-.34-2.04l3.62.36c3.6 3.62 7.59 7.42 13.06 7.56-4.48-4.02-8.6-8.42-13.11-12.41l3.1-1.47c4.88 2.96 8.72 7.24 12.85 11.12m43.8-9.19c-.74 1.55-1.69 3.08-3.25 3.92-6.13 3.47-13.43 4.38-20.34 3.61-3.08-1.15-7.36-1.23-8.85-4.65 3.33-.43 6.67.01 9.88.91 5.68.49 11.49-.05 16.91-1.88 1.88-.66 3.59-1.88 5.65-1.91m10.49 6.47c-.76 3.72-2.26 7.23-2.96 10.97 2.67-3.52 4.99-7.36 8.27-10.37.85-1.11 4.12-.39 2.95 1.46-3.34 5.24-8.1 9.63-10.25 15.61 2-2.54 3.81-5.37 6.71-6.97 2.18-1.3 3.81-4.08 6.72-3.22-1.11 4.17-5.35 6.03-7.79 9.26-2.59 3.62-5.01 7.36-7.67 10.92 3.57-2.26 6.29-5.48 8.82-8.81.91-1.65 4.6-2.55 4.52.22-2.2 2.68-4.72 5.09-6.91 7.79 1.9 1.26 3.96 2.43 5.19 4.41 5.13 7.12 5.94 16.16 6.49 24.64-.51 10.63-2.49 21.55-8.38 30.63-1.84 3.22-5.74 4.04-8.92 5.33 2.23 1.06 4.41 2.55 6.96 2.63 1.54.2 3.51-.36 4.37 1.35.57 2.77-2.97 4.2-5.22 4.08-6.1-.25-11.3-4.4-14.91-9.03-2.8-4.59-5.3-10.31-3.36-15.7 5.39 2.06 5.28 9.94 11.11 11.16 3.47-.16 6.5-2.53 8.09-5.52 3.66-8.11 5.42-17.02 5.52-25.89-.57-7.62-1.28-15.97-6.4-22.06-1.22-1.81-4.37-2.51-5.67-.42-3.15 3.96-7.07 7.17-10.46 10.9-1.36.29-2.38-.16-3.06-1.33-3.33-8.14-6.84-16.3-8.11-25.08.59-.41 1.77-1.21 2.36-1.61 2.82 4.02 3.78 8.96 5.28 13.56.25.22.77.64 1.03.85l1.33-2.06c-.23-4.56-.48-9.37 1.41-13.65.98-2.13 1.68-4.38 2.63-6.52l1.31.41c1.99 3.55-.82 7.16-2.04 10.43 2.19.48 2.96-2.2 3.69-3.76 1.6-5.04 1.86-10.58 4.61-15.21 1.2-1.18 2.12-.98 2.74.6m-23.82 36.24c.32 1.57.71 3.14.86 4.74.5 13.46 3.53 26.63 5.97 39.83.84 6.9 4.87 13.11 4.5 20.2.05 3.36-.61 7.07-3.53 9.16-3.62 3.45-8.94 2.06-13.24.97-7.91-3.15-16.43-8.27-18.18-17.33-2.58 4.88-5.75 9.4-8.99 13.87-.9 1.4-2.65 1.65-4.16 1.89.24-5.53 4.42-9.52 6.82-14.17 1.88-3.7 4.75-6.79 6.37-10.63 1.22-3.12 3.87-5.84 7.31-6.22 5.86-1.01 9.87 7.12 7.05 11.77-3.83-.41-3.49-5.1-6.04-7.1-4.57 1.13-3.79 7.03-2.45 10.37 1.59 6.13 7.75 8.95 12.86 11.62 3.54 1.33 8.18 2.65 11.24-.43.11-3.58.14-7.29-.98-10.74-3.93-10.97-5.34-22.6-7.38-34.01-1.66-7.74-2.02-15.7-1.75-23.59 1.23-.11 2.48-.17 3.72-.2m28.85 16.64c.11 2.99.53 6.04-.15 8.99-1.05 2.09-4.1 2.49-5.34.36-.95-3.42-1.41-7.77 1.14-10.63 1.66-.86 3.11.27 4.35 1.28m-57.49-1.27c1.36 1.33 1.18 3.58 1.44 5.38.21 2.48-.71 6.59-4.04 5.83-3.31-.97-2.44-5.16-2.55-7.8-.29-2.5 2.95-5.12 5.15-3.41m-53.31 43.95c.85 1.88.79 4.34-.69 5.9-4.58 1.84-3.97-9 .69-5.9m59.04 11.3c0 1.19-.02 2.39-.04 3.59-1.23.16-3.55.98-3.93-.76-.92-1.68.45-3.08 1.37-4.34.87.5 1.73 1 2.6 1.51m-24.22 7.86c-.89-.55-1.77-1.1-2.65-1.64.07-1.72.44-3.38 1.21-4.92 3.61.22 3.87 4.58 1.44 6.56m33.52-5.36c1.81.82 2.76 4.88.17 5.05-3.1.82-4.03-6.39-.17-5.05m-59.34 6.92c-3.04.54-3.12-3.16-3.06-5.27.61-.55 1.22-1.11 1.83-1.66 2.77 1.01 3.95 5.21 1.23 6.93m-11.42.67c-2.52-1.48-2.62-6.57.94-6.43 3.24 1.31 1.61 5.32-.94 6.43m61.68 4.46c4.77 5.35 13.72 7.29 19.79 3.06 3.25-1.58 5.68-4.27 7.73-7.18 1.52 1.31 2.47 3.39 1.12 5.21-3.76 6.43-5.6 13.91-10.13 19.9-.99 1.45-2.67.2-4.03.18-2.37 3.51-4.85 7.4-9.11 8.76-4.13.76-8.93.95-12.3-2-5.24-3.74-5.76-10.61-7.33-16.31.06-6.02.17-12.05.53-18.07-.18-2.33 1.91-4.43 4.22-4.39 4.63 2.17 5.96 7.54 9.51 10.84m4.72-6.49c-.32.95-.68 1.89-1.09 2.81-1.04-.43-2.61-.37-2.92-1.73-1.08-1.54.84-2.76 1.61-3.86.84.89 1.87 1.66 2.4 2.78m15.94 3.97c-3.39.19-3.48-4.6-.46-5.33 2.37 1.09 1.21 3.6.46 5.33m-52.9-.48c-1.2.77-2.52.2-3.75-.09.83-1.29.59-3.97 2.52-4.19 2.14-.06 1.95 2.94 1.23 4.28m46.23 1.49c.07 1.56-1.71 2.02-2.67 2.88-.72-1.32-2.35-2.72-1.28-4.3.9-2.25 4.45-.77 3.95 1.42m-54.04 3.23c-.83.87-1.7 1.7-2.62 2.48-2.44-.95-2.17-3.63-2.37-5.76.65-.36 1.97-1.06 2.62-1.41.91 1.5 1.67 3.08 2.37 4.69m90.17 2.54c.05 2.01-.84 5.03-3.52 4.12-2.82-1.77.95-7.01 3.52-4.12m-101.5-.16c.26.62.8 1.87 1.06 2.49l-1.2 2.64c-2.75.46-5.02-2.92-3.45-5.24 1-1.34 2.41-.36 3.59.11m23.27 2.13c.89 1.98 1.77 4.92-.53 6.29-3.46-.01-2.74-4.21-1.61-6.31.54.01 1.6.02 2.14.02m65.56 5.98c-.9-.85-1.78-1.71-2.65-2.59.75-1.62 1.81-3.01 3.72-3.26 1.53 2.1 1.28 4.48-1.07 5.85m-76.61 2.09c2.28 1.25 1.79 6.52-1.36 5.9-2.89-.9-2.01-6.99 1.36-5.9m69.94 1c2.12 1.99-.38 5.7-2.86 5.68-4.21-1.24-.17-8.3 2.86-5.68m-84.89 3.88c-.96.68-1.72 2.08-3.08 1.83-1.97-1.28-2.45-4.76-.48-6.24 2.83-.7 3.18 2.43 3.56 4.41m99.73-2c2.26 2.13-.5 5.56-3.14 5.4l-1.59-2.19c.93-1.67 2.31-4.69 4.73-3.21m-66.21-.2 1.28 2.6c-.3.58-.92 1.75-1.22 2.33-.82.08-1.63.15-2.44.23-1.93-2.17-.48-5.24 2.38-5.16m-26.2 10.27c-3.62-.1-3.59-6.04-.84-7.51 2.67 1.33 4.3 6.25.84 7.51m81.32-3.8c2.51 1.12 1.29 4.66-.41 6-1.55 1.61-3.46-1.12-3.07-2.71.25-1.59 1.48-4.22 3.48-3.29m-64.8.77c2.92 1.98-.09 9.19-3.64 6.59-.94-2.37.23-8.06 3.64-6.59m52.64 7.43c1.55 2.05-.07 6.1-2.95 5.52-2.57-1.32-1.05-4.34-.39-6.36 1.1.23 2.55-.15 3.34.84m-68.55 7.48c-3.51 1.55-4.57-2.59-4-5.22 3.37-.9 4.67 2.51 4 5.22m29.91-4.02c1.66 2-.26 4.72-2.54 4.89-2.64-1.67-.55-6.73 2.54-4.89m-22.91.84c1.15 1.97.4 5.57-2.36 5.41-2.39-1.22-1.73-4.14-1.61-6.31 1.28.01 3.34-.63 3.97.9m44.11 2.79c-.76 1.54-1.86 2.79-3.6 3.23-2.02-1.98-1.09-5.45 1.93-5.54.56.77 1.11 1.54 1.67 2.31m24.83-.59c1.43 2.07-.57 4.03-2.31 4.95-4.12-.51-.99-7.22 2.31-4.95m-54.33.44c.72 1.54.2 4.07-1.9 3.8-2.49.05-1.56-2.85-1.56-4.42 1.16.11 2.44-.08 3.46.62m36.24 4.13c-.29.58-.87 1.73-1.17 2.31-.85-.02-1.71-.04-2.57-.05-.92-2.03-.32-4.42 2.23-4.51.38.57 1.14 1.69 1.51 2.25m9.34 2.42c2 1.38.81 3.76-.61 5.05-.84-.55-1.69-1.09-2.54-1.63.16-1.66.91-4.45 3.15-3.42m-18.15 3.69c.22 1.69-1.54 2.46-2.51 3.51-3.03-1.57-3.36-5.87-.1-7.38 1.02 1.16 2.82 2.07 2.61 3.87m-34.47-2.87c2.78 2.21 3.07 6.33.03 8.45-2.79-1.86-4.03-7.33-.03-8.45m45.52 2.72c.78 6.47-5.04 11.47-10.55 13.55-7.13 2.79-15.9-1.4-17.94-8.83-1.51-2.21-.04-4.45 1.94-5.62 4.2 1.51 3.7 7.4 7.9 8.78 4.44 1.99 9.13-.83 12.36-3.79 1.97-1.6 2.34-4.63 4.7-5.76zm-36.74 8.7c-1.09-2.27-1.77-7.48 2.19-6.64 2.54 1.99 1.81 7.39-2.19 6.64z" fill="#fff"/><path d="m37.863 87.32c-4.15 2.61-8.57 5.07-11.62 9.02 2.39-.95 4.63-2.23 6.75-3.67 1.4-1.98 3.18-3.63 4.87-5.35zm48.69 110.73c-.51 4.98-.66 10.01-.6 15.02 2.09-2.35 3.27-5.27 4.54-8.1-1.49-2.2-2.67-4.59-3.94-6.92zm10.14 12.78c-1.23-1.05-2.45-2.11-3.68-3.15-.6 3.55-.75 7.17-.59 10.77 1.96-2.21 3.12-4.94 4.27-7.62zm20.97.68c-1.73.87-3.48 1.71-5.26 2.47.29 1.52.6 3.04.91 4.56 1.57-2.27 2.91-4.69 4.35-7.03zm-10.17 2.37c-1.8-.2-3.6-.44-5.39-.68.07 2.59.2 5.19.47 7.77 1.98-2.11 3.47-4.6 4.92-7.09z" fill="#fff"/><g fill="#010101"><path d="m86.103 0h-1.51l-.15.46c-.97 1.52-.35 2.94.73 4.2.15.44.46 1.34.61 1.79 3.24 5.29 7.11 10.71 7.73 17.04-4.65-5.46-8.81-11.47-14.5-15.93-1.22-1.27-2.73-.23-3.58.87 1.31 2.68 3.38 4.92 4.8 7.56-4.06-2.84-7.76-6.25-12.21-8.48-1.44-.98-3.03-.06-4.5.3l.12 3.02c5.64 1.28 9.75 5.59 14.37 8.75-.46-.19-1.39-.58-1.85-.78-3.96.11-6.57-3.62-10.41-3.79-3.55-.29-7.05-1.03-10.62-1.19.35 2.32 1.89 4.06 4.25 4.35 4.6.86 8.78 3.21 11.87 6.72-4.49-.15-8.32-2.72-12.56-3.85-4.22-1.15-8.4-2.51-12.71-3.32.91 2.22 2.24 4.59 4.78 5.16 3.85 1.02 7.78 1.86 11.06 4.28-4.38-2.09-9.48-1.6-14.2-1.43-1.62-.24-3.23-.53-4.88-.54.3 1.68.88 3.3 1.43 4.92 1.65-.46 3.29-.94 4.92-1.42-1.67.68-3.34 1.34-5 2.04.67.38 2.01 1.15 2.69 1.54-1.87-.47-3.75-.94-5.59-1.5-.95.57-1.91 1.14-2.86 1.73 2.02.99 4.11 1.85 6.14 2.82-2.02 1.6-4.13 3.41-6.85 3.57-2.55.14-4.91 1.14-6.7 2.98 2.42.94 5.12 1.19 7.27 2.73 5.82 2.92 11.52 6.16 16.51 10.38-3.83-1.85-7.52-3.98-11.47-5.57-7.42-2.59-13.88-7.5-21.79-8.75l-2.45 2.13c3.04 1.31 6.28 2.08 9.41 3.11-.84 1.3-1.7 2.59-2.3 4.03 3.67 3.87 9.47 4.69 13.78 7.78-6.9-1.1-13.02-4.7-19.07-7.99-1.51-.86-3.3-.86-4.98-1.11l-.24 2.97c2.71 1.21 5.25 2.76 7.73 4.37-1.88.27-5.15.39-4.68 3.15.32.72.97 2.17 1.29 2.89-2.61-.73-5.24-1.61-7.97-1.71-1.15 1.15-1.09 2.19.16 3.13 2.75 1.6 5.94 2.21 8.91 3.28-2.65 1.31-5.75 2.79-6.37 6.01 3.2 1.46 6.59 2.54 10.02 3.3-6.86.24-13.53 2.35-19.78 5.08-1.63.69-1.63 2.22.06 2.84 4.34.8 8.41-1.39 12.38-2.79-1.26 1.29-2.41 2.68-3.32 4.25 1.19.53 2.37 1.06 3.55 1.58-3.14 1.91-6.12 4.1-8.46 6.97 1.37 1.39 2.99 2.51 4.76 3.33-1.81 2.8-4.31 5.27-5.41 8.46l1.61 1.37c3.96-1.85 5.71-6.6 9.99-8.15-.88 5.66-7.26 7.12-9.65 11.81-1.26 2.03-2.2 4.23-3.14 6.42.94.38 1.91.63 2.91.77 2.13-1.73 3.85-3.88 5.49-6.06-1.81 3.23-3.07 6.78-3.34 10.49 1.66-.4 3.29-.86 4.9-1.37-.64 2-1.28 4.01-1.93 6.01-.63 1-1.77 2.15-1.18 3.42 2.28.36 4.65-.82 6.28-2.39l1.99 2.51c.18-2.38.21-4.77.55-7.13.32 4.68.13 9.46-1.58 13.88l2.09 1.82c.42 3.24 1.31 6.38 2.37 9.46-1.09-2.45-1.97-4.99-2.56-7.61-4.14-3.42-8.9-6.94-14.6-6.44-6.16-.62-10.25 7.09-8.07 12.36 1.26 4.83 5.87 7.68 7.72 12.18-.47 9.2-6.55 16.81-7.53 25.87-.6 5.01 3.39 10.9 8.89 10.17 3.92.34 6.98-2.36 9.52-4.96 1.72 12.19 5.61 23.92 9.92 35.4 2.35 9.11 6.83 17.44 11.31 25.64 9.12 14.61 25.07 23.96 41.86 26.81h11.13c5.04-1.22 9.59-3.77 14.21-6.04 7.91-4.03 14.06-10.62 20.16-16.93 13.37-15.54 25.57-32.9 30.8-53 5.31-19.6 7.68-39.84 8.98-60.04.04-3.69-.99-7.29-.91-10.99 0-5.31.26-10.64-.35-15.93 1.18.85 2.37 1.68 3.57 2.51.2-4.22-1.5-8.1-2.98-11.94 1.46 1.01 4.18 2.23 4.24-.63-.69-3.81-2.83-7.15-4.44-10.62 1.66.72 3.33 1.41 5 2.09.6-.48 1.79-1.46 2.39-1.95-.79-5.81-5.99-9.2-9.56-13.3 2.87 2.51 5.23 6.06 9.32 6.54.14-1.36 1.27-2.91.32-4.2-3.06-4.62-7.57-7.99-11.62-11.69 2.4 1.6 4.72 3.3 7 5.06.33-.47.98-1.4 1.3-1.87l3.07.16c.34-3.24-2.98-4.86-5.27-6.34-5.1-2.5-8.79-7-13.78-9.7 5.43 2.37 10.54 5.37 15.57 8.47.88-3.37-2.25-5.35-4.56-7.04 1.73-.36 3.73-.23 5.08-1.58.12-1.5.03-3.14-1.52-3.86-4.07-3.21-9.2-4.42-13.84-6.53 3.4-.46 6.83-.28 10.23-.64 1.35-.52 1.89-1.53 1.63-3.05-2.98-2.05-6.68-2.25-10.08-3.16 2.72-.5 5.49-.74 8.18-1.43 2.1.48 2.23-3.87.1-3.3-4.73-.44-9.42.51-14.04 1.35 2.02-1.48 4.23-2.75 6-4.54 2.07-1.57-1.69-2.75-2.82-1.72-5.03 2.36-9.67 6.11-15.45 6.37.83-.25 2.47-.75 3.29-1 .43-1.14.85-2.28 1.27-3.42 2.7-1.42 5.49-2.7 8.06-4.37-4.48-1.46-9.25.08-13.27 2.15.6-.54 1.79-1.62 2.39-2.16h-2.96l2.58-.48c.53-1.01 1.07-2.01 1.52-3.06-2.37.16-4.71.64-7.06.97 1.8-2.71 3.71-5.35 5.51-8.06-1.41 1.59-2.84 3.16-4.35 4.65.8-3.11 2.13-6.06 3.06-9.13-4.76.05-6.33 5.9-11.1 6.12l2.43-1.35c.16-1.24.33-2.48.49-3.71-.41-.37-1.22-1.11-1.62-1.48 1.27-1.01 2.54-2.02 3.78-3.08-.31-.79.34-2.42-.78-2.69-2.48.07-4.95.35-7.43.58-2.56 2.93-5.49 5.53-8.59 7.9.47-.88.94-1.75 1.42-2.63-.02-.67-.07-2.02-.09-2.7 3.29-3.05 6.7-6.57 7.13-11.29-4.46 2.05-7.14 6.42-10.69 9.63-2.72 2.43-4.06 5.84-5.34 9.16 1.17-6.71 7.99-11.62 6.73-18.8-1.1.76-2.36 1.46-2.96 2.74-2.16 3.71-4.24 7.47-6.57 11.08-1.82-3.85-2.61-8.05-3.62-12.16-.79 0-2.37-.01-3.15-.01-.04 4.71.25 9.42.49 14.12-1.76-3.58-3.37-7.31-6.01-10.35-2.16-2.45-5.22-3.78-7.8-5.7m24.36 35.15c-1.57 3.36-3.94 6.31-5.28 9.8-.83 1.78.68 3.4 1.4 4.9 1.1-1.42 2.06-2.93 2.93-4.49 3.17 1.53 6.61 2.34 10.08 2.78 4.62.15 8.23 3.44 11.58 6.26 4.43 4.26 10.11 7.21 13.7 12.32 3.61 3.95 6.29 8.59 8.84 13.26 2.47 5.4 3.18 11.38 4.93 17.03 1.48 4.84 2.26 9.87 2.72 14.91.95 5.68 1.83 11.48 1.18 17.25-.64 5.26 1.03 10.45.44 15.71-1.23 11.34-.85 22.92-3.9 34-3.58 16.5-7.33 33.46-16.69 47.81-5.09 8.69-11.36 16.62-18 24.19-8.11 9.37-18.26 17.1-29.91 21.47-19.93 2.83-40.02-8.8-50.39-25.51-3.71-7.08-7.69-14.13-9.62-21.95-5.08-13.86-10.05-27.99-11.25-42.81.92-3.66 2.03-7.38 1.61-11.19-.88-.56-2.34-1.02-3.02.09-1.82 4.81-3.15 9.89-5.83 14.32-1.87 2.29-4.56 5.24-7.86 4.15-1.52-1.31-2.12-3.58-1.43-5.47 1.81-8.19 6.87-15.49 7.38-23.99.02-7.04-7.56-10.57-8.92-17.12.76-1.14 1.4-2.42 2.52-3.25 4.87-.97 10.02 1.91 12.11 6.35 1.85 2.9 1.67 6.96 4.73 9.03.03 2.37-.59 7.41 3.11 6.81 2.34-4.58 2.6-9.9 3.82-14.85 1.86-7.57 4.37-15.05 4.87-22.89 1.07-4.56 3.26-8.94 2.96-13.75l-1.73.83c-1.87 3.23-2.33 7.16-4.29 10.38-2.44 3.51-2.82 7.97-3.15 12.11l-.99-.62c-.25 1.72-.55 3.45-1 5.13.37-2.88.48-5.94 1.96-8.52.37-5.59 2.49-10.87 4.12-16.18 2.31-3.9 4.7-7.75 6.94-11.69-.59-.25-1.78-.76-2.37-1.01-1.36 2.08-2.71 4.16-4.09 6.22-1.91 2.99-2.96 6.62-5.82 8.92-1.09-4.65 2.34-8.32 4.99-11.64 2.67-3.31 6.84-5.29 8.66-9.29 1.59-1.75-1.28-2.5-2.48-2.76 1.27-2.69 5.34-5.28 2.89-8.37 2.13-1.94 5.87-3.63 5.09-7.09a38.9 38.9 0 0 0 -3.42-.4c2.88-.66 4.96-3.66 8.11-2.98 2.04-.15 4.87.79 6.02-1.49 1.48-1.34-.18-3.01-.82-4.29 1.64.16 3.28.22 4.92.18.44-.97.88-1.93 1.31-2.89 1.67.02 4.27-.59 3.62-2.8-3.02-3.67-6.93-6.54-10.16-10.04 3.58 1.67 7.07 3.97 11.08 4.35 2.26.2 3.08-2.21 2.98-4.02.84.31 2.53.92 3.37 1.23.84-1.11 1.62-2.27 2.34-3.47 1.72.63 3.44 1.48 5.32 1.41 1.56-1.36 3.43-2.62 4.35-4.52.16-2.15.03-4.31.01-6.47.82 3.15 1.51 6.32 2.37 9.45.59.33 1.78.99 2.37 1.32.48-.33 1.44-1 1.91-1.34 1.1 1 2.23 2.48 3.93 1.82 2.28-1.53 1.42-4.69 2.1-7.02.1 1.75.04 3.51.21 5.26-.52 2.44 4.18 2.09 3.82.01.38-5.6 3.6-10.42 6.72-14.89m-72.6 52.17c-1.69 1.72-3.47 3.37-4.87 5.35-2.12 1.44-4.36 2.72-6.75 3.67 3.05-3.95 7.47-6.41 11.62-9.02m-9.43.06c-1.7 1.31-3.36 2.67-5.17 3.84-1.04.5-2.07 1.02-3.09 1.56-1.04.21-2.08.45-3.13.6.22-.78.49-1.54.76-2.29.62-.25 1.88-.74 2.51-.99 2.56-1.31 5.38-1.93 8.12-2.72z"/><path d="m101.253 68.6c-1.73-.36-3.93-1.74-5.13.3 2.19 3.48 6.72 4.34 10.46 5.15 5.22.25 10.56.43 15.7-.72 1.54-.34 2.99-1.66 2.01-3.3-7.61-.55-15.66 1.44-23.04-1.43zm-12.78 16.12c-4.13-3.88-7.97-8.16-12.85-11.12l-3.1 1.47c4.51 3.99 8.63 8.39 13.11 12.41-5.47-.14-9.46-3.94-13.06-7.56l-3.62-.36c.09.51.26 1.53.34 2.04 2.9 2.84 5.9 5.61 9.04 8.19-2.95-1.48-6.03-2.71-9.05-4.06-1.3-.7-3.72-1.02-3.62 1.12 1.83 2.23 4.76 3.16 7.19 4.61-.5.89-.96 1.8-1.4 2.73 6.93 4.65 13.17 10.22 19.97 15.05 1.75 1.5 2.88 3.55 4.23 5.39-2.2-1.66-4.45-3.31-6.19-5.48-1.97-2.9-5.41-4.06-8.26-5.88-3.4-2.3-7.15-4.95-11.5-3.6 1.33 1.33 2.72 2.61 4.22 3.76-4.08-1.39-8.5-1.33-12.67-.37 3.79 2.89 8.76 2.93 13.23 3.85-13.83 13.7-18.25 35.62-11.63 53.82 2 4.23 4.76 8.69 9.27 10.55 3.14.96 6.48.28 9.69.26-1.85 2.09-4.26 3.47-6.55 4.99-2.25 1.29-1.35 5.56 1.48 4.95 6.64-2.31 11.31-8.22 14.13-14.43 1.55-3.08 4.71-6.41 2.9-10.04-.56-.08-1.67-.25-2.22-.33-3.04 3.19-5.62 7.16-9.97 8.7-2.57.61-5.32.71-7.93.25-5.72-4.29-7.33-11.88-7.79-18.63-.13-6.54-.2-13.38 2.46-19.49 2.38-5.28 4.6-10.83 8.71-15.05 1.59-1.57 3.25-3.7 5.79-2.95 3 1.16 5.1 3.67 7.35 5.84 3.24 3.24 7.22 5.74 9.92 9.5.98 1.53 3.12.9 4.46.26 1.78-3 3.64-5.99 5.11-9.16 1.03-3.64 1.95-7.33 2.78-11.03.32-1.95-1.84-1.78-3.08-1.34-1.47 2.63-2.44 5.53-3.09 8.47-.31.38-.94 1.13-1.26 1.51-2.81-6.75-1.72-14.57-4.22-21.47l-2.35-1.55c-.18 3.8.42 7.56.94 11.31l-1.46-.73c-.17-.65-.52-1.96-.69-2.62-2.04-7.39-5.13-14.51-8.56-21.36-.88-1.02-1.55-4.17-3.38-2.27-.33 3.54 2.24 6.54 3.18 9.85zm43.8-9.19c-2.06.03-3.77 1.25-5.65 1.91-5.42 1.83-11.23 2.37-16.91 1.88-3.21-.9-6.55-1.34-9.88-.91 1.49 3.42 5.77 3.5 8.85 4.65 6.91.77 14.21-.14 20.34-3.61 1.56-.84 2.51-2.37 3.25-3.92zm10.49 6.47c-.62-1.58-1.54-1.78-2.74-.6-2.75 4.63-3.01 10.17-4.61 15.21-.73 1.56-1.5 4.24-3.69 3.76 1.22-3.27 4.03-6.88 2.04-10.43l-1.31-.41c-.95 2.14-1.65 4.39-2.63 6.52-1.89 4.28-1.64 9.09-1.41 13.65l-1.33 2.06c-.26-.21-.78-.63-1.03-.85-1.5-4.6-2.46-9.54-5.28-13.56-.59.4-1.77 1.2-2.36 1.61 1.27 8.78 4.78 16.94 8.11 25.08.68 1.17 1.7 1.62 3.06 1.33 3.39-3.73 7.31-6.94 10.46-10.9 1.3-2.09 4.45-1.39 5.67.42 5.12 6.09 5.83 14.44 6.4 22.06-.1 8.87-1.86 17.78-5.52 25.89-1.59 2.99-4.62 5.36-8.09 5.52-5.83-1.22-5.72-9.1-11.11-11.16-1.94 5.39.56 11.11 3.36 15.7 3.61 4.63 8.81 8.78 14.91 9.03 2.25.12 5.79-1.31 5.22-4.08-.86-1.71-2.83-1.15-4.37-1.35-2.55-.08-4.73-1.57-6.96-2.63 3.18-1.29 7.08-2.11 8.92-5.33 5.89-9.08 7.87-20 8.38-30.63-.55-8.48-1.36-17.52-6.49-24.64-1.23-1.98-3.29-3.15-5.19-4.41 2.19-2.7 4.71-5.11 6.91-7.79.08-2.77-3.61-1.87-4.52-.22-2.53 3.33-5.25 6.55-8.82 8.81 2.66-3.56 5.08-7.3 7.67-10.92 2.44-3.23 6.68-5.09 7.79-9.26-2.91-.86-4.54 1.92-6.72 3.22-2.9 1.6-4.71 4.43-6.71 6.97 2.15-5.98 6.91-10.37 10.25-15.61 1.17-1.85-2.1-2.57-2.95-1.46-3.28 3.01-5.6 6.85-8.27 10.37.7-3.74 2.2-7.25 2.96-10.97z"/><path d="m118.943 118.24c-1.24.03-2.49.09-3.72.2-.27 7.89.09 15.85 1.75 23.59 2.04 11.41 3.45 23.04 7.38 34.01 1.12 3.45 1.09 7.16.98 10.74-3.06 3.08-7.7 1.76-11.24.43-5.11-2.67-11.27-5.49-12.86-11.62-1.34-3.34-2.12-9.24 2.45-10.37 2.55 2 2.21 6.69 6.04 7.1 2.82-4.65-1.19-12.78-7.05-11.77-3.44.38-6.09 3.1-7.31 6.22-1.62 3.84-4.49 6.93-6.37 10.63-2.4 4.65-6.58 8.64-6.82 14.17 1.51-.24 3.26-.49 4.16-1.89 3.24-4.47 6.41-8.99 8.99-13.87 1.75 9.06 10.27 14.18 18.18 17.33 4.3 1.09 9.62 2.48 13.24-.97 2.92-2.09 3.58-5.8 3.53-9.16.37-7.09-3.66-13.3-4.5-20.2-2.44-13.2-5.47-26.37-5.97-39.83-.15-1.6-.54-3.17-.86-4.74zm28.85 16.64c-1.24-1.01-2.69-2.14-4.35-1.28-2.55 2.86-2.09 7.21-1.14 10.63 1.24 2.13 4.29 1.73 5.34-.36.68-2.95.26-6 .15-8.99zm-57.49-1.27c-2.2-1.71-5.44.91-5.15 3.41.11 2.64-.76 6.83 2.55 7.8 3.33.76 4.25-3.35 4.04-5.83-.26-1.8-.08-4.05-1.44-5.38zm-53.31 43.95c-4.66-3.1-5.27 7.74-.69 5.9 1.48-1.56 1.54-4.02.69-5.9z"/><path d="m96.033 188.86c-.87-.51-1.73-1.01-2.6-1.51-.92 1.26-2.29 2.66-1.37 4.34.38 1.74 2.7.92 3.93.76.02-1.2.04-2.4.04-3.59zm-24.22 7.86c2.43-1.98 2.17-6.34-1.44-6.56-.77 1.54-1.14 3.2-1.21 4.92.88.54 1.76 1.09 2.65 1.64zm33.52-5.36c-3.86-1.34-2.93 5.87.17 5.05 2.59-.17 1.64-4.23-.17-5.05zm-59.34 6.92c2.72-1.72 1.54-5.92-1.23-6.93-.61.55-1.22 1.11-1.83 1.66-.06 2.11.02 5.81 3.06 5.27zm-11.42.67c2.55-1.11 4.18-5.12.94-6.43-3.56-.14-3.46 4.95-.94 6.43z"/><path d="m96.253 203.41c-3.55-3.3-4.88-8.67-9.51-10.84-2.31-.04-4.4 2.06-4.22 4.39-.36 6.02-.47 12.05-.53 18.07 1.57 5.7 2.09 12.57 7.33 16.31 3.37 2.95 8.17 2.76 12.3 2 4.26-1.36 6.74-5.25 9.11-8.76 1.36.02 3.04 1.27 4.03-.18 4.53-5.99 6.37-13.47 10.13-19.9 1.35-1.82.4-3.9-1.12-5.21-2.05 2.91-4.48 5.6-7.73 7.18-6.07 4.23-15.02 2.29-19.79-3.06m-9.7-5.36c1.27 2.33 2.45 4.72 3.94 6.92-1.27 2.83-2.45 5.75-4.54 8.1-.06-5.01.09-10.04.6-15.02m10.14 12.78c-1.15 2.68-2.31 5.41-4.27 7.62-.16-3.6-.01-7.22.59-10.77 1.23 1.04 2.45 2.1 3.68 3.15m20.97.68c-1.44 2.34-2.78 4.76-4.35 7.03-.31-1.52-.62-3.04-.91-4.56 1.78-.76 3.53-1.6 5.26-2.47m-10.17 2.37c-1.45 2.49-2.94 4.98-4.92 7.09-.27-2.58-.4-5.18-.47-7.77 1.79.24 3.59.48 5.39.68z"/><path d="m100.973 196.92c-.53-1.12-1.56-1.89-2.4-2.78-.77 1.1-2.69 2.32-1.61 3.86.31 1.36 1.88 1.3 2.92 1.73.41-.92.77-1.86 1.09-2.81zm15.94 3.97c.75-1.73 1.91-4.24-.46-5.33-3.02.73-2.93 5.52.46 5.33zm-52.9-.48c.72-1.34.91-4.34-1.23-4.28-1.93.22-1.69 2.9-2.52 4.19 1.23.29 2.55.86 3.75.09zm46.23 1.49c.5-2.19-3.05-3.67-3.95-1.42-1.07 1.58.56 2.98 1.28 4.3.96-.86 2.74-1.32 2.67-2.88zm-54.04 3.23c-.7-1.61-1.46-3.19-2.37-4.69-.65.35-1.97 1.05-2.62 1.41.2 2.13-.07 4.81 2.37 5.76.92-.78 1.79-1.61 2.62-2.48zm90.17 2.54c-2.57-2.89-6.34 2.35-3.52 4.12 2.68.91 3.57-2.11 3.52-4.12zm-101.5-.16c-1.18-.47-2.59-1.45-3.59-.11-1.57 2.32.7 5.7 3.45 5.24l1.2-2.64c-.26-.62-.8-1.87-1.06-2.49zm23.27 2.13c-.54 0-1.6-.01-2.14-.02-1.13 2.1-1.85 6.3 1.61 6.31 2.3-1.37 1.42-4.31.53-6.29zm65.56 5.98c2.35-1.37 2.6-3.75 1.07-5.85-1.91.25-2.97 1.64-3.72 3.26.87.88 1.75 1.74 2.65 2.59zm-76.61 2.09c-3.37-1.09-4.25 5-1.36 5.9 3.15.62 3.64-4.65 1.36-5.9zm69.94 1c-3.03-2.62-7.07 4.44-2.86 5.68 2.48.02 4.98-3.69 2.86-5.68zm-84.89 3.88c-.38-1.98-.73-5.11-3.56-4.41-1.97 1.48-1.49 4.96.48 6.24 1.36.25 2.12-1.15 3.08-1.83zm99.73-2c-2.42-1.48-3.8 1.54-4.73 3.21l1.59 2.19c2.64.16 5.4-3.27 3.14-5.4zm-66.21-.2c-2.86-.08-4.31 2.99-2.38 5.16.81-.08 1.62-.15 2.44-.23.3-.58.92-1.75 1.22-2.33zm-26.2 10.27c3.46-1.26 1.83-6.18-.84-7.51-2.75 1.47-2.78 7.41.84 7.51zm81.32-3.8c-2-.93-3.23 1.7-3.48 3.29-.39 1.59 1.52 4.32 3.07 2.71 1.7-1.34 2.92-4.88.41-6zm-64.8.77c-3.41-1.47-4.58 4.22-3.64 6.59 3.55 2.6 6.56-4.61 3.64-6.59zm52.64 7.43c-.79-.99-2.24-.61-3.34-.84-.66 2.02-2.18 5.04.39 6.36 2.88.58 4.5-3.47 2.95-5.52zm-68.55 7.48c.67-2.71-.63-6.12-4-5.22-.57 2.63.49 6.77 4 5.22zm29.91-4.02c-3.09-1.84-5.18 3.22-2.54 4.89 2.28-.17 4.2-2.89 2.54-4.89zm-22.91.84c-.63-1.53-2.69-.89-3.97-.9-.12 2.17-.78 5.09 1.61 6.31 2.76.16 3.51-3.44 2.36-5.41zm44.11 2.79c-.56-.77-1.11-1.54-1.67-2.31-3.02.09-3.95 3.56-1.93 5.54 1.74-.44 2.84-1.69 3.6-3.23zm24.83-.59c-3.3-2.27-6.43 4.44-2.31 4.95 1.74-.92 3.74-2.88 2.31-4.95zm-54.33.44c-1.02-.7-2.3-.51-3.46-.62 0 1.57-.93 4.47 1.56 4.42 2.1.27 2.62-2.26 1.9-3.8zm36.24 4.13c-.37-.56-1.13-1.68-1.51-2.25-2.55.09-3.15 2.48-2.23 4.51.86.01 1.72.03 2.57.05.3-.58.88-1.73 1.17-2.31zm9.34 2.42c-2.24-1.03-2.99 1.76-3.15 3.42.85.54 1.7 1.08 2.54 1.63 1.42-1.29 2.61-3.67.61-5.05zm-18.15 3.69c.21-1.8-1.59-2.71-2.61-3.87-3.26 1.51-2.93 5.81.1 7.38.97-1.05 2.73-1.82 2.51-3.51zm-34.47-2.87c-4 1.12-2.76 6.59.03 8.45 3.04-2.12 2.75-6.24-.03-8.45z"/><path d="m110.163 252.09-1.59-1.67c-2.36 1.13-2.73 4.16-4.7 5.76-3.23 2.96-7.92 5.78-12.36 3.79-4.2-1.38-3.7-7.27-7.9-8.78-1.98 1.17-3.45 3.41-1.94 5.62 2.04 7.43 10.81 11.62 17.94 8.83 5.51-2.08 11.33-7.08 10.55-13.55zm-36.74 8.7c4 .75 4.73-4.65 2.19-6.64-3.96-.84-3.28 4.37-2.19 6.64z"/></g></g></svg>