<svg clip-rule="evenodd" fill-rule="evenodd" stroke-linejoin="round" stroke-miterlimit="2" viewBox="0 0 412 416" xmlns="http://www.w3.org/2000/svg"><circle cx="18" cy="18" fill="#ffcc4d" r="18" transform="matrix(9.06188 0 0 9.04348 42.745 90.435)"/><path d="m-99-99c-54.676 0-99 44.324-99 99s44.324 99 99 99 99-44.324 99-99-44.324-99-99-99" fill="#fff" fill-rule="nonzero" transform="matrix(0 -.411067 -.411904 0 146.956 208)"/><ellipse cx="11.5" cy="15.5" fill="#664500" rx="2.5" ry="3.5" transform="matrix(9.06188 0 0 6.45963 42.745 148.571)"/><g fill-rule="nonzero"><path d="m28.457 17.797c-.06-.135-1.499-3.297-4.457-3.297-2.957 0-4.397 3.162-4.457 3.297-.092.207-.032.449.145.591.175.142.426.147.61.014.012-.009 1.262-1.402 3.702-1.402 2.426 0 3.674 1.381 3.702 1.401.088.066.194.099.298.099.11 0 .221-.037.312-.109.177-.142.238-.386.145-.594zm-22.458-6.797c-.208 0-.419-.065-.599-.2-.442-.331-.531-.958-.2-1.4 3.262-4.35 7.616-4.4 7.8-4.4.552 0 1 .448 1 1 0 .551-.445.998-.996 1-.155.002-3.568.086-6.204 3.6-.196.262-.497.4-.801.4zm23.002 3c-.305 0-.604-.138-.801-.4-2.592-3.456-6.961-2.628-7.004-2.62-.547.11-1.068-.244-1.177-.784-.108-.541.243-1.068.784-1.177.231-.047 5.657-1.072 8.996 3.38.332.442.242 1.069-.2 1.4-.179.136-.389.201-.598.201z" fill="#664500" transform="matrix(9.06188 0 0 9.04348 42.745 108.522)"/><path d="m18.545 23.604-1.091-.005c-3.216-.074-5.454 0-5.454 0v6.365c0 3 2 6 6 6s6-3 6-6v-6.36c-2 0-3.787-.018-5.455 0z" fill="#e8596e" transform="matrix(5.2861 0 0 5.10606 151.487 205.235)"/><path d="m18 31.843c.301 0 .545-.244.545-.545v-7.694l-1.091-.005v7.699c.001.301.245.545.546.545z" fill="#dd2f45" transform="matrix(5.2861 0 0 5.10606 151.487 205.235)"/><path d="m25 26h-14c-.552 0-1-.447-1-1s.448-1 1-1h14c1-1 1-1 1 1 0 .553-.447 1-1 1z" fill="#664500" transform="matrix(9.06188 0 0 9.04348 42.745 99.478)"/><path d="m0 30.049v-50.41c0-53.512-41.48-97.295-92.179-97.295h-430.917c-50.698 0-92.178 43.783-92.178 97.295v50.41c0 4.306.295 8.54.816 12.702v19.739c0 21.798-9.672 64.853 37.549 64.853 87.085 17.309 184.636 20.362 269.271 17.966 84.636 2.396 182.187-.657 269.273-17.966 47.219 0 37.549-43.055 37.549-64.853v-19.739c.519-4.162.816-8.396.816-12.702" fill="#473c3a" transform="matrix(.475782 0 0 .474816 352.227 55.865)"/><path d="m55.173-494.226c-45.81 170.022 1.209 245.179 33.278 280.672l-33.278 102.057s-216.649 92.441-95.132-398.324c9.924-28.943 19.115-9.192 95.132 15.595" fill="#494342" transform="matrix(-.452343 -.147195 -.147495 .451424 8.5119 373.344)"/><path d="m-55.172-494.226c45.811 170.021-1.208 245.179-33.278 280.672l33.278 102.057s216.651 92.44 95.132-398.324c-9.924-28.943-19.115-9.192-95.132 15.595" fill="#494342" transform="matrix(-.452342 .147196 .147496 .451424 403.206 373.344)"/><path d="m0 30.049v-50.41c0-53.512-43.782-97.295-97.294-97.295h-454.831c-53.512 0-97.295 43.783-97.295 97.295v50.41c0 4.306.314 8.54.862 12.702v19.74c0 21.798-10.208 64.852 39.632 64.852 91.919 17.309 194.883 20.362 284.216 17.966 89.333 2.396 192.298-.657 284.216-17.966 49.841 0 39.632-43.054 39.632-64.852v-19.74c.55-4.162.862-8.396.862-12.702" fill="#565352" transform="matrix(.475782 0 0 .474816 360.349 109.211)"/><path d="m0-144.096 18.251 54.534 57.505.506-46.225 34.21 17.288 54.846-46.819-33.391-46.819 33.391 17.288-54.846-46.224-34.21 57.504-.506z" fill="#f44336" transform="matrix(.475782 0 0 .474816 205.858 150.155)"/></g></svg>