<svg clip-rule="evenodd" fill-rule="evenodd" stroke-linejoin="round" stroke-miterlimit="2" viewBox="0 0 864 817" xmlns="http://www.w3.org/2000/svg"><g fill-rule="nonzero"><path d="m-330.036-330.036c-182.273 0-330.036 147.763-330.036 330.036 0 182.274 147.763 330.036 330.036 330.036s330.036-147.762 330.036-330.036c0-182.273-147.763-330.036-330.036-330.036" fill="#ffcc4d" transform="matrix(0 -1 -1 0 421.9 156.369)"/><path d="m-82.057-82.057c-45.319 0-82.059 36.738-82.059 82.058 0 45.319 36.74 82.056 82.059 82.056s82.058-36.737 82.058-82.056c0-45.32-36.739-82.058-82.058-82.058" fill="#ff7892" transform="matrix(0 -.737586 -.737586 0 233.38 578.276)"/><g fill="#664500"><path d="m-130.002-4.674c16.048 2.679 84.93 19.883 129.737 19.051 42.614-.792 139.147-27.961 126.081-20.828-9.668 5.278-48.25 33.615-125.831 35.29-77.58 1.676-130.897-33.665-129.987-33.513z" transform="matrix(.642804 -.0138829 -.0161344 -.747051 432.08 675.105)"/><path d="m-7.782 1.224c-7.766 1.238-21.014 1.899-40.884-8.624-3.457-1.83-6.201 26.432 48.651 25.247 57.636-1.245 61.344-34.966 59.634-33.6" transform="matrix(0 .711179 -.475311 0 515.26 684.979)"/><path d="m-7.782 1.224c-7.766 1.238-21.014 1.899-40.884-8.624-3.457-1.83-6.201 26.432 48.651 25.247 57.636-1.245 61.344-34.966 59.634-33.6" transform="matrix(0 .711179 .475311 0 348.09 684.979)"/></g><path d="m0 30.049v-50.41c0-53.512-41.48-97.295-92.179-97.295h-430.917c-50.698 0-92.178 43.783-92.178 97.295v50.41c0 4.306.295 8.54.816 12.702v19.739c0 21.798-9.672 64.853 37.549 64.853 87.085 17.309 184.636 20.362 269.271 17.966 84.636 2.396 182.187-.657 269.273-17.966 47.219 0 37.549-43.055 37.549-64.853v-19.739c.519-4.162.816-8.396.816-12.702" fill="#473c3a" transform="translate(739.31 117.656)"/><path d="m55.173-494.226c-45.81 170.022 1.209 245.179 33.278 280.672l-33.278 102.057s-216.649 92.441-95.132-398.324c9.924-28.943 19.115-9.192 95.132 15.595" fill="#494342" transform="matrix(-.950735 -.310005 -.310005 .950735 17.89 786.292)"/><path d="m-55.172-494.226c45.811 170.021-1.208 245.179-33.278 280.672l33.278 102.057s216.651 92.44 95.132-398.324c-9.924-28.943-19.115-9.192-95.132 15.595" fill="#494342" transform="matrix(-.950734 .310007 .310007 .950734 845.46 786.292)"/><path d="m-99-99c-54.676 0-99 44.324-99 99s44.324 99 99 99 99-44.324 99-99-44.324-99-99-99" fill="#fff" transform="matrix(0 -1 -1 0 298.86 378.232)"/><path d="m-99-99c-54.676 0-99 44.324-99 99s44.324 99 99 99 99-44.324 99-99-44.324-99-99-99" fill="#fff" transform="matrix(0 -1 1 0 564.55 378.232)"/><path d="m69.017-36.911c45.226 45.888 61.647 115.479 18.525 175.755-6.358 8.888-20.39 2.972-18.525-7.796 7.727-44.597 19.239-119.722-3.491-165.461-1.105-2.223 1.748-4.267 3.491-2.498" fill="#664500" transform="matrix(.291763 .956491 1.0402 -.317297 473.35 318.881)"/><path d="m69.017-36.911c45.226 45.888 61.647 115.479 18.525 175.755-6.358 8.888-20.39 2.972-18.525-7.796 7.727-44.597 19.239-119.722-3.491-165.461-1.105-2.223 1.748-4.267 3.491-2.498" fill="#664500" transform="matrix(-.291763 .956491 -1.0402 -.317297 390.07 318.881)"/><path d="m0 30.049v-50.41c0-53.512-43.782-97.295-97.294-97.295h-454.831c-53.512 0-97.295 43.783-97.295 97.295v50.41c0 4.306.314 8.54.862 12.702v19.74c0 21.798-10.208 64.852 39.632 64.852 91.919 17.309 194.883 20.362 284.216 17.966 89.333 2.396 192.298-.657 284.216-17.966 49.841 0 39.632-43.054 39.632-64.852v-19.74c.55-4.162.862-8.396.862-12.702" fill="#565352" transform="translate(756.39 230.007)"/><path d="m0-144.096 18.251 54.534 57.505.506-46.225 34.21 17.288 54.846-46.819-33.391-46.819 33.391 17.288-54.846-46.224-34.21 57.504-.506z" fill="#f44336" transform="translate(431.68 316.239)"/><path d="m-35.001-14.498c-27.338 0-49.501 22.162-49.5 49.499 0 27.338 22.162 49.501 49.5 49.501 27.337 0 49.499-22.162 49.5-49.499 0-27.339-22.162-49.501-49.5-49.501" fill="#664500" transform="matrix(.707112 -.707102 -.707102 -.707112 349.36 477.233)"/><path d="m-82.057-82.057c-45.319 0-82.059 36.738-82.059 82.058 0 45.319 36.74 82.056 82.059 82.056s82.058-36.737 82.058-82.056c0-45.32-36.739-82.058-82.058-82.058" fill="#ff7892" transform="matrix(0 -.737586 .737586 0 630.03 578.627)"/><g fill="#664500"><path d="m-35.001-14.498c-27.338 0-49.501 22.162-49.5 49.499 0 27.338 22.162 49.501 49.5 49.501 27.337 0 49.499-22.162 49.5-49.499 0-27.339-22.162-49.501-49.5-49.501" transform="matrix(-.707112 -.707102 .707102 -.707112 514.05 477.584)"/><path d="m-35.001-14.498c-27.338 0-49.501 22.162-49.5 49.499 0 27.338 22.162 49.501 49.5 49.501 27.337 0 49.499-22.162 49.5-49.499 0-27.339-22.162-49.501-49.5-49.501" transform="matrix(-.707112 -.707102 .707102 -.707112 514.05 477.233)"/></g></g></svg>