<svg clip-rule="evenodd" fill-rule="evenodd" stroke-linejoin="round" stroke-miterlimit="2" viewBox="0 0 155 209" xmlns="http://www.w3.org/2000/svg"><g fill-rule="nonzero"><path d="m56.229 8.35c14.59-3.65 29.55-5.86 44.35-8.35 2.96 2.31 1.96 6.43 2.52 9.66.27 2.83 2.58 4.76 4.67 6.39 3.61 2.67 6.65 6 10.24 8.7 7.56 6.39 15.82 12.23 21.65 20.38 2.42 3.54 5.72 6.37 8.06 9.96 3.86 6.56 2.68 14.47 2.86 21.73.31 6.69-.86 13.33-.73 20.01.15 7.65-.35 15.33.66 22.94.66 11.4 3.9 22.58 3.37 34.07.12 6.21-.9 12.5.48 18.64.22 1.51.78 3.17-.06 4.61-3 5.56-9.3 8.12-12.82 13.24-4.59 5.87-8.4 12.3-12.98 18.18-7.15.67-14.39.2-21.52-.66-10.67-.53-21.42.66-32.04-.89-11.32-.37-22.55-2.16-33.88-2.35-4.78-.49-9.15-3.07-14.03-2.9-6.31.26-12.57-.54-18.83-1.11-2.07-.17-3.83-1.53-5-3.17-.08-9.56-1.4-19.07-1.2-28.65-1.69-17.29-.55-34.67-1.03-52-1.53-9.92-.74-19.96-.93-29.95-.17-7.64.42-15.26.21-22.9-.27-2.39 1.29-4.37 2.99-5.83 4.4-3.77 9.76-6.15 14.44-9.53 13.43-9.13 28.96-15.18 41.19-26.01-1.37-4.62-2.59-9.35-2.64-14.21m4.02 1.86c-.62 3.02-1.54 7.4 1.09 9.61 9.11-.08 17.72-3.52 26.67-4.74 4.28-.17 8.61-.2 12.73-1.55.46-3.57.49-7.36-1.01-10.7-13.34 1.19-26.55 3.86-39.48 7.38m42.94 6.14c-6.81.53-13.7 1.44-20.26 3.37-5.67.2-11.18 1.5-16.73 2.51.01.32.04.95.06 1.26 7.13 3.22 14.06 6.96 20.28 11.77 6.16 4.89 13 8.89 18.79 14.24 5.7 4.6 10.92 9.77 16.62 14.37 2.7 2.44 6.28.11 8.98-1.12 4.02-2.27 8.58-3.24 12.68-5.29 1.14-.47 1.62-1.31 1.45-2.53-1.46-2.53-3.95-4.19-5.88-6.33-2.68-2.73-4.27-6.31-6.91-9.07-8.01-7.38-16.77-13.92-24.75-21.33-1.23-1-2.7-1.82-4.33-1.85m-47.36 11.33c-12.04 9.44-25.79 16.27-38.83 24.16-4.29 2.97-9 5.7-12.19 9.92 7.62 1.43 15.42.83 23.13 1.02 13.34.23 26.69 0 40.02.84 9.97.7 20.01-.34 29.93 1.13 6.74.13 13.48.41 20.19 1.09-1.2-2.41-3.59-3.82-5.42-5.7-3.53-3.48-6.78-7.28-10.8-10.23-11.75-9.26-23.95-18.36-37.83-24.21-2.88-1.58-5.91.24-8.2 1.98m72.57 39.59c-3.06.61-2.89 4.16-3.19 6.6-.27 12.24-.17 24.48-.22 36.72 7.8-4.02 15.69-8.04 22.91-13.06.19-2.21.05-4.43.29-6.64 1.41-6.25.8-12.72.73-19.07-.88-3.99-.54-8.22-2.1-12.05-6.64.92-12.03 5.62-18.42 7.5m-125.35-2.19c-.35 5.89-.12 11.81-1.09 17.66.34 8.9-1.29 18.16 1.29 26.81 15.1 2.38 30.49 1.14 45.71 1.37 24.2.08 48.45-3.16 72.6-.41.64-8.52.02-17.12 1.36-25.59.64-4.97-.93-9.82-1.1-14.77-29.77-3.74-59.88-2.96-89.81-4.39-9.66.08-19.32-.19-28.96-.68m121.97 49.09c-.2 3.25.09 6.52.68 9.72.56 11.04-.42 22.2 1.05 33.2.38 5.63-.19 11.35 1.29 16.86 8.19-5.77 14.67-13.59 22.77-19.49.92-3.15.19-6.48.22-9.7.16-8.31-1.9-16.42-2.23-24.7-1.46-6.32-.59-12.82-.86-19.23-7.75 4.24-15.55 8.48-22.92 13.34m-31.11-1.47c-26.26.17-52.5 2.15-78.78.97-3.91-.4-7.9-1.01-11.81-.29-.96 3.67-.02 7.53.08 11.26.85 11.3.15 22.64.7 33.94.71 3.7.82 7.46.91 11.21 6.25.51 12.55-.22 18.81.42 10.34.79 20.72.6 31.08.75 12.94 1.94 26.12-.06 39.08 1.83 5.41-.34 10.63 1.44 16.03 1.03 4.69-.37 9.19 1.5 13.89 1.17.08-9.67.18-19.35-.06-29.02-1.37-7.58-.64-15.28-.97-22.93-.58-2.98-.96-5.98-.99-9.01-5.62-1.14-11.36-1.17-17.01-2.05-3.68-.51-7.31.46-10.96.72m49.8 50.85c-5.57 5.12-11.57 9.88-16.56 15.59 1.41 7.83.49 15.86.91 23.8 1-.27 1.83-.78 2.49-1.56 4.67-5.96 8.65-12.54 14.1-17.85 2.32-2.38 5.73-3.87 7.01-7.11.93-3.88-1.23-7.67-.71-11.56.06-2.34 1.29-4.85.02-7.05-2.89 1.25-5.02 3.62-7.26 5.74m-138.67 10.39c-.97 7.6 1.17 15.06 1.06 22.65 3.79 1.42 7.87 1.51 11.84 1.96 5.8.71 11.84-.36 17.4 1.86 5.61 2.13 11.69 1.21 17.48 2.4 7.11-.1 14.13.99 21.15 1.99 7.01.2 13.97 1.36 21 1.05 9.61-.22 19.24.43 28.83-.18.07-8.85.25-17.74.01-26.59-4.47-.73-8.85-1.9-13.3-2.68-13.31-1.52-26.74.1-40.08-.9-8.8-.68-17.63-.62-26.45-.75-7.07.18-14.04-1.13-21.08-1.43-5.96-.96-11.9.51-17.86.62z"/><path d="m13.229 73.88c1.57-.14 3.16-.08 4.73.06.59 1.9.33 3.93-.04 5.85-1.55.23-3.16.35-4.69-.07-1.6-1.75-1.1-4 0-5.84zm84 3.03c1.98-.31 5.58-.86 5.71 2.03 1.1 3.14-3.52 6.77-5.77 3.68-1.89-1.5-1.26-4.07.06-5.71zm-30.34 9.88c4.24-.58 8.55-1.87 12.84-.91.28 3.11.57 6.62-1.55 9.21-5.03 7.41-14.83 9.44-23.24 8.81-6.41-.66-13.66-3.16-16.54-9.44-.74-1.84-2.18-4.16-.91-6.05 3.86-1.41 8.05-.22 12.02-.97 5.75-1.01 11.6-.04 17.38-.65m1.29 3.32c.13 2.9.37 5.79.5 8.69 4.45-1.21 8.59-4.89 8.25-9.86-2.92-.22-6.18-.56-8.75 1.17m-7.9-.17c-1.97.86-1.27 3.2-1.48 4.89.22 2.02-.61 4.7 1.41 6.03 2.02.11 4.52-.57 5.62-2.37.31-2.82.23-5.68-.1-8.5-1.8-.29-3.65-.32-5.45-.05m-19.27 1.09c-.77 4.18 3.23 7.22 6.91 7.91.43-2.69.14-5.42-.13-8.11-2.26-.17-4.54-.15-6.78.2m10.02-.28c-.42 2.93-.29 5.91-.01 8.84 1.6.56 3.22 1.13 4.92 1.27.09-3.34.14-6.68-.02-10.01-1.61-.33-3.27-.38-4.89-.1zm-26.24 30.97c4.14-1.92 8.76-1.08 13.16-1.12 2.17-.21 4.48 1.25 4.8 3.48 1.25 3.99-.91 7.77-1.75 11.57-.3 2.81-4.74 3.77-6.19 1.38-1.6-1.54-1.85-3.81-2.45-5.83-1.53-.94-3.27-.39-4.78.27-1.58 2.92 1.7 4.84 3.96 5.79 3.74 1.58 6.61 4.49 9.2 7.51-.5-3.76 1.45-7.15 2.45-10.65 1.21-3.25 2.74-6.44 4.93-9.15 4.31-4.18 10.92-5.95 16.7-4.3 2.74.64 4.37 3.06 6.01 5.12 2.27-1.72 4.1-4.6 7.22-4.68 3.19-.27 6.92-.74 9.74 1.04-.37 3.19-1.91 8.27 2.09 9.78.24-2.77-.41-5.76.82-8.35 3.27-3.24 8.07-2.07 12.19-2.05 2.77-.04 2.86 3.29 2.54 5.28-1.84 7.21-10.38 9.87-12.35 16.97-1.04 2.67-2.12 6.38.38 8.58 1.79 1.55 2.32 3.98 1.64 6.21-2.1 3.01-5.87 3.72-9.15 4.72-2.13-.36-4.52-1.21-6.13-2.66-.94-3.38.01-7.01 2.45-9.5 1.69-6.08-.79-12.45-3.88-17.68-1.07-1.66-3.41-1.27-5.1-1.54.87 9.63-1.65 19.77-8.24 27.03-3.12 2.47-6.95 4.68-11.09 4.18-6.47 1.01-11.77-5.37-11.9-11.47-2.52 2.19-2.56 6.05-5.3 8.05-3.3 2.44-7.69 2.68-11.29.73-3.34-1.99-7.22-2.26-10.98-2.65-.34-4.08.14-8.27 1.06-12.23.75-2.71 4.01-2.08 6.04-1.53 2.91 1.8 4.49 5.07 6.92 7.4 1.56.73 4 .28 4.57-1.53-3.01-3.33-7.84-4.02-10.96-7.22-3.07-2.71-5.15-6.68-4.57-10.86-.83-4.67 2.81-9.05 7.24-10.09m33.7 2.79c-3.07.8-6.26 1.99-8.15 4.7-3.13 3.35-4.1 7.92-5.67 12.05.14 4.68-1.52 10.13 1.72 14.1 2.61 3.73 7.94 3.81 11.93 2.79 5.09-1.57 7.58-6.72 9.68-11.17 1.09-6 2.87-12.83-.85-18.32-2.06-2.43-5.25-5.15-8.66-4.15m-36.23 4.65c-2.12 2.53-1.28 6.35.75 8.66 3.29 4.3 9.7 4.84 12.41 9.71 2.21 2.69-.19 5.97-1.57 8.43-2.83.35-6.42.99-8.3-1.76-2.36-1.82-3.34-5.33-6.23-6.34-.09 1.86-.07 3.73.03 5.6 1.4-.06 3.15-.74 4.13.69 2.43 2.69 6.36 3.84 9.89 3.15 1.84-1.54 3.29-3.62 4.2-5.84.89-4.88-2.92-9.29-7.38-10.7-3.64-1.09-7.1-3.96-7.52-7.9.92-4.8 7.1-7.54 11.39-5.3 2.47.91 2.01 4.02 2.3 6.11 3.47.09 2.06-4.97 2.17-7.24-3.38-1.21-7.02-1.09-10.54-1.27-2.64-.29-4.2 2.31-5.73 4m53.19-2.34c1.47 1.7 4.53.71 5.66 2.94 2.67 4.6 4.57 9.78 5.36 15.04-.15 3.85 1.47 8.84-2.23 11.48 0 .54-.01 1.63-.01 2.18 2.13-.05 4.53.37 6.39-.91-.03-1.85-2.14-2.81-2.11-4.69.21-4.38-.39-8.98 1.15-13.17 3.11-5.03 9.79-7.69 11.2-13.74-1.79.14-3.71.19-5.31 1.12.68 4.86-3.95 7.89-6.66 11.23-4.31-2.35-6.11-8.24-6.3-12.96-2.39.31-5.03.14-7.14 1.48z"/><path d="m59.289 125.79c2.01-.41 3.51 1.64 5.02 2.68 4.23 3.66 3.64 9.9 2.38 14.79-.93 4.99-3.82 9.6-8 12.49-3.61.96-7.83.63-10.73-1.96-2.45-3.27-3.18-7.67-1.94-11.58 1.24-7.34 6.62-13.37 13.27-16.42m-1.77 5.59c-5.66 3.22-8.31 10.17-7.73 16.44.57 2.27 2.68 4.25 4.95 4.75 7.23-3.18 9.6-12.33 8.08-19.49-.71-2.25-3.43-2.22-5.3-1.7z"/><path d="m60.249 10.21c12.93-3.52 26.14-6.19 39.48-7.38 1.5 3.34 1.47 7.13 1.01 10.7-4.12 1.35-8.45 1.38-12.73 1.55-8.95 1.22-17.56 4.66-26.67 4.74-2.63-2.21-1.71-6.59-1.09-9.61zm42.94 6.14c1.63.03 3.1.85 4.33 1.85 7.98 7.41 16.74 13.95 24.75 21.33 2.64 2.76 4.23 6.34 6.91 9.07 1.93 2.14 4.42 3.8 5.88 6.33.17 1.22-.31 2.06-1.45 2.53-4.1 2.05-8.66 3.02-12.68 5.29-2.7 1.23-6.28 3.56-8.98 1.12-5.7-4.6-10.92-9.77-16.62-14.37-5.79-5.35-12.63-9.35-18.79-14.24-6.22-4.81-13.15-8.55-20.28-11.77-.02-.31-.05-.94-.06-1.26 5.55-1.01 11.06-2.31 16.73-2.51 6.56-1.93 13.45-2.84 20.26-3.37z" fill="#8cab85"/><path d="m55.829 27.68c2.29-1.74 5.32-3.56 8.2-1.98 13.88 5.85 26.08 14.95 37.83 24.21 4.02 2.95 7.27 6.75 10.8 10.23 1.83 1.88 4.22 3.29 5.42 5.7-6.71-.68-13.45-.96-20.19-1.09-9.92-1.47-19.96-.43-29.93-1.13-13.33-.84-26.68-.61-40.02-.84-7.71-.19-15.51.41-23.13-1.02 3.19-4.22 7.9-6.95 12.19-9.92 13.04-7.89 26.79-14.72 38.83-24.16zm72.57 39.59c6.39-1.88 11.78-6.58 18.42-7.5 1.56 3.83 1.22 8.06 2.1 12.05.07 6.35.68 12.82-.73 19.07-.24 2.21-.1 4.43-.29 6.64-7.22 5.02-15.11 9.04-22.91 13.06.05-12.24-.05-24.48.22-36.72.3-2.44.13-5.99 3.19-6.6zm-125.35-2.19c9.64.49 19.3.76 28.96.68 29.93 1.43 60.04.65 89.81 4.39.17 4.95 1.74 9.8 1.1 14.77-1.34 8.47-.72 17.07-1.36 25.59-24.15-2.75-48.4.49-72.6.41-15.22-.23-30.61 1.01-45.71-1.37-2.58-8.65-.95-17.91-1.29-26.81.97-5.85.74-11.77 1.09-17.66m10.18 8.8c-1.1 1.84-1.6 4.09 0 5.84 1.53.42 3.14.3 4.69.07.37-1.92.63-3.95.04-5.85-1.57-.14-3.16-.2-4.73-.06m84 3.03c-1.32 1.64-1.95 4.21-.06 5.71 2.25 3.09 6.87-.54 5.77-3.68-.13-2.89-3.73-2.34-5.71-2.03m-30.34 9.88c-5.78.61-11.63-.36-17.38.65-3.97.75-8.16-.44-12.02.97-1.27 1.89.17 4.21.91 6.05 2.88 6.28 10.13 8.78 16.54 9.44 8.41.63 18.21-1.4 23.24-8.81 2.12-2.59 1.83-6.1 1.55-9.21-4.29-.96-8.6.33-12.84.91zm-8.4 37.72c3.41-1 6.6 1.72 8.66 4.15 3.72 5.49 1.94 12.32.85 18.32-2.1 4.45-4.59 9.6-9.68 11.17-3.99 1.02-9.32.94-11.93-2.79-3.24-3.97-1.58-9.42-1.72-14.1 1.57-4.13 2.54-8.7 5.67-12.05 1.89-2.71 5.08-3.9 8.15-4.7m.8 1.28c-6.65 3.05-12.03 9.08-13.27 16.42-1.24 3.91-.51 8.31 1.94 11.58 2.9 2.59 7.12 2.92 10.73 1.96 4.18-2.89 7.07-7.5 8-12.49 1.26-4.89 1.85-11.13-2.38-14.79-1.51-1.04-3.01-3.09-5.02-2.68zm-37.03 3.37c1.53-1.69 3.09-4.29 5.73-4 3.52.18 7.16.06 10.54 1.27-.11 2.27 1.3 7.33-2.17 7.24-.29-2.09.17-5.2-2.3-6.11-4.29-2.24-10.47.5-11.39 5.3.42 3.94 3.88 6.81 7.52 7.9 4.46 1.41 8.27 5.82 7.38 10.7-.91 2.22-2.36 4.3-4.2 5.84-3.53.69-7.46-.46-9.89-3.15-.98-1.43-2.73-.75-4.13-.69-.1-1.87-.12-3.74-.03-5.6 2.89 1.01 3.87 4.52 6.23 6.34 1.88 2.75 5.47 2.11 8.3 1.76 1.38-2.46 3.78-5.74 1.57-8.43-2.71-4.87-9.12-5.41-12.41-9.71-2.03-2.31-2.87-6.13-.75-8.66zm53.19-2.34c2.11-1.34 4.75-1.17 7.14-1.48.19 4.72 1.99 10.61 6.3 12.96 2.71-3.34 7.34-6.37 6.66-11.23 1.6-.93 3.52-.98 5.31-1.12-1.41 6.05-8.09 8.71-11.2 13.74-1.54 4.19-.94 8.79-1.15 13.17-.03 1.88 2.08 2.84 2.11 4.69-1.86 1.28-4.26.86-6.39.91 0-.55.01-1.64.01-2.18 3.7-2.64 2.08-7.63 2.23-11.48-.79-5.26-2.69-10.44-5.36-15.04-1.13-2.23-4.19-1.24-5.66-2.94zm68.26 36.73c2.24-2.12 4.37-4.49 7.26-5.74 1.27 2.2.04 4.71-.02 7.05-.52 3.89 1.64 7.68.71 11.56-1.28 3.24-4.69 4.73-7.01 7.11-5.45 5.31-9.43 11.89-14.1 17.85-.66.78-1.49 1.29-2.49 1.56-.42-7.94.5-15.97-.91-23.8 4.99-5.71 10.99-10.47 16.56-15.59zm-138.67 10.39c5.96-.11 11.9-1.58 17.86-.62 7.04.3 14.01 1.61 21.08 1.43 8.82.13 17.65.07 26.45.75 13.34 1 26.77-.62 40.08.9 4.45.78 8.83 1.95 13.3 2.68.24 8.85.06 17.74-.01 26.59-9.59.61-19.22-.04-28.83.18-7.03.31-13.99-.85-21-1.05-7.02-1-14.04-2.09-21.15-1.99-5.79-1.19-11.87-.27-17.48-2.4-5.56-2.22-11.6-1.15-17.4-1.86-3.97-.45-8.05-.54-11.84-1.96.11-7.59-2.03-15.05-1.06-22.65z" fill="#8cab85"/><g fill="#fdfdfd"><path d="m68.179 90.11c2.57-1.73 5.83-1.39 8.75-1.17.34 4.97-3.8 8.65-8.25 9.86-.13-2.9-.37-5.79-.5-8.69zm-7.9-.17c1.8-.27 3.65-.24 5.45.05.33 2.82.41 5.68.1 8.5-1.1 1.8-3.6 2.48-5.62 2.37-2.02-1.33-1.19-4.01-1.41-6.03.21-1.69-.49-4.03 1.48-4.89zm-19.27 1.09c2.24-.35 4.52-.37 6.78-.2.27 2.69.56 5.42.13 8.11-3.68-.69-7.68-3.73-6.91-7.91zm10.02-.28c1.62-.28 3.28-.23 4.89.1.16 3.33.11 6.67.02 10.01-1.7-.14-3.32-.71-4.92-1.27-.28-2.93-.41-5.91.01-8.84zm73.99 23.42c7.37-4.86 15.17-9.1 22.92-13.34.27 6.41-.6 12.91.86 19.23.33 8.28 2.39 16.39 2.23 24.7-.03 3.22.7 6.55-.22 9.7-8.1 5.9-14.58 13.72-22.77 19.49-1.48-5.51-.91-11.23-1.29-16.86-1.47-11-.49-22.16-1.05-33.2-.59-3.2-.88-6.47-.68-9.72zm-31.11-1.47c3.65-.26 7.28-1.23 10.96-.72 5.65.88 11.39.91 17.01 2.05.03 3.03.41 6.03.99 9.01.33 7.65-.4 15.35.97 22.93.24 9.67.14 19.35.06 29.02-4.7.33-9.2-1.54-13.89-1.17-5.4.41-10.62-1.37-16.03-1.03-12.96-1.89-26.14.11-39.08-1.83-10.36-.15-20.74.04-31.08-.75-6.26-.64-12.56.09-18.81-.42-.09-3.75-.2-7.51-.91-11.21-.55-11.3.15-22.64-.7-33.94-.1-3.73-1.04-7.59-.08-11.26 3.91-.72 7.9-.11 11.81.29 26.28 1.18 52.52-.8 78.78-.97m-69.12 9.02c-4.43 1.04-8.07 5.42-7.24 10.09-.58 4.18 1.5 8.15 4.57 10.86 3.12 3.2 7.95 3.89 10.96 7.22-.57 1.81-3.01 2.26-4.57 1.53-2.43-2.33-4.01-5.6-6.92-7.4-2.03-.55-5.29-1.18-6.04 1.53-.92 3.96-1.4 8.15-1.06 12.23 3.76.39 7.64.66 10.98 2.65 3.6 1.95 7.99 1.71 11.29-.73 2.74-2 2.78-5.86 5.3-8.05.13 6.1 5.43 12.48 11.9 11.47 4.14.5 7.97-1.71 11.09-4.18 6.59-7.26 9.11-17.4 8.24-27.03 1.69.27 4.03-.12 5.1 1.54 3.09 5.23 5.57 11.6 3.88 17.68a9.835 9.835 0 0 0 -2.45 9.5c1.61 1.45 4 2.3 6.13 2.66 3.28-1 7.05-1.71 9.15-4.72.68-2.23.15-4.66-1.64-6.21-2.5-2.2-1.42-5.91-.38-8.58 1.97-7.1 10.51-9.76 12.35-16.97.32-1.99.23-5.32-2.54-5.28-4.12-.02-8.92-1.19-12.19 2.05-1.23 2.59-.58 5.58-.82 8.35-4-1.51-2.46-6.59-2.09-9.78-2.82-1.78-6.55-1.31-9.74-1.04-3.12.08-4.95 2.96-7.22 4.68-1.64-2.06-3.27-4.48-6.01-5.12-5.78-1.65-12.39.12-16.7 4.3-2.19 2.71-3.72 5.9-4.93 9.15-1 3.5-2.95 6.89-2.45 10.65-2.59-3.02-5.46-5.93-9.2-7.51-2.26-.95-5.54-2.87-3.96-5.79 1.51-.66 3.25-1.21 4.78-.27.6 2.02.85 4.29 2.45 5.83 1.45 2.39 5.89 1.43 6.19-1.38.84-3.8 3-7.58 1.75-11.57-.32-2.23-2.63-3.69-4.8-3.48-4.4.04-9.02-.8-13.16 1.12z"/><path d="m57.519 131.38c1.87-.52 4.59-.55 5.3 1.7 1.52 7.16-.85 16.31-8.08 19.49-2.27-.5-4.38-2.48-4.95-4.75-.58-6.27 2.07-13.22 7.73-16.44z"/></g></g></svg>