<svg height="509pt" viewBox="0 0 438 509" width="584" xmlns="http://www.w3.org/2000/svg"><path d="m182.44 14.59c10.16-.78 20.38-.2 30.57-.41 11.18-.44 21.67 4.04 32.44 6.3 14.87 2.77 28.93 8.49 43.36 12.83 8.56 1.93 16.82 5.07 25.49 6.53 9.18 1.36 18.08 4.14 27.2 5.82 6.99 3.83 12.77 9.59 19.85 13.35-.44.82-.88 1.63-1.32 2.44-3.87-2.63-7.82-5.14-11.41-8.16-2.78-2.16-5.44-4.81-8.96-5.66-3.52-.76-7.12-.95-10.62-1.8-13.67-3.5-27.57-6.08-41.12-10.05-17.72-5.83-35.41-12.13-53.91-15.02-9.9-3.55-20.47-5.4-31.01-5.1-8.69.19-17.71-.92-26.04 2.2-4.34 1.37-7.97 4.16-11.46 6.97l-1-.24c3.86-6.15 10.86-9.45 17.94-10z" fill="#380001"/><path d="m176.96 17.86c8.33-3.12 17.35-2.01 26.04-2.2 10.54-.3 21.11 1.55 31.01 5.1-7.07 1.33-13.93-1.53-20.97-1.53-5.02-.11-10.03-.51-15.05-.64-5.74-.19-11.25 1.73-16.95 2.11-2.43.31-4.97.24-7.29 1.11-2.64 2.49-4.74 5.53-7.7 7.7-.13-1.57-.31-3.13-.55-4.68 3.49-2.81 7.12-5.6 11.46-6.97zm257.14 317.31c1.33-.22 2.63-.11 3.9.32v1.36c-1.51.78-3.38-.14-3.9-1.68z" fill="#853c34"/><g fill="#606e55"><path d="m181.04 20.7c5.7-.38 11.21-2.3 16.95-2.11 5.02.13 10.03.53 15.05.64 7.04 0 13.9 2.86 20.97 1.53 1.23.92 2.46 1.94 3.98 2.34 13.43 3.74 26.79 7.72 40.12 11.78 12.33 4.68 25.08 8.18 37.91 11.19 7.55 1.68 15.38 2.09 22.82 4.29 7.07 2.97 12.97 8.12 18.75 13.05 4.41 3.62 6.2 9.24 9.8 13.52-.39 4.98.43 10.52-2.55 14.87-3.87 5.58-10.09 8.74-15.75 12.16-.21-6.67.29-13.35-.18-20.01-.19-3.89-3.87-6.27-7.04-7.74-7.77-3.12-16.09-4.45-23.99-7.16-6.19-2.05-12.08-4.98-18.46-6.46-9.88-2.41-20.03-3.5-29.88-6.08-19.23-3.96-38.94-5.07-58.54-4.61-10.82.34-21.68-.74-32.46.53-1.44 6.97-1.37 14.23-3.71 21.01-1.99-5.75-2.71-11.86-4.95-17.53-1.46-3.9-3.38-7.7-3.86-11.89-.54-4.82-.07-9.67.03-14.51 2.96-2.17 5.06-5.21 7.7-7.7 2.32-.87 4.86-.8 7.29-1.11zm133.97 248.32c2.59-2.52 5.12-5.09 7.92-7.37 1.35 8.63 1.64 17.43 1.35 26.15l-.56.64c-3.85 3.81-5.01 9.24-7.34 13.95-3.85 7.63-6.99 15.74-12.64 22.28-4.9 7.28-12.08 12.79-16.24 20.57-2.15-9.41 4.52-18.39 1.9-27.69-.94-3.33-4.47-4.26-7.51-4.3-1.42-6.65-1.32-13.52-2.89-20.15 4.04-2.68 8.13-5.27 12.16-7.96 8.13-5.07 16.95-9.34 23.85-16.12zm-25.03 80.62c13.81-13.52 25.34-29.4 33.52-46.92 1.81 12 2.41 24.14 3.81 36.19.41 2.39.63 5.39 3.05 6.66 12.25 6.33 24.44 12.97 37.56 17.4 6.14 2.01 11.8 5.23 17.99 7.13 10.38 3.26 19.46 9.53 29.74 13.08 7.65 2.51 14.96 5.89 22.35 9.05v116.77h-50.31c-4.9-2.28-10.13-3.81-15.56-3.91 3-4.53 5.71-9.3 7.41-14.48 2.49-7.63 6.3-14.74 10.51-21.54 5.7-8.71 12.32-17.23 15.02-27.44-4.25 2.39-6.02 7.07-8.32 11.1-4.51 8.35-10.63 15.75-14.66 24.39-3.98 6.82-5.59 14.68-9.43 21.56-1.16 1.98-2.53 4.15-4.81 4.94-4.76-1.61-8.75-4.81-13.03-7.35-8.49-4.96-16.23-11.05-24.14-16.85-5.49-3.91-11.75-6.76-16.62-11.5-4.48-4.21-7.62-9.63-12.23-13.71-6-5.68-13.39-9.95-18.23-16.79-3.63-4.94-7.38-9.9-12.36-13.58 3.1-7.95 8.12-14.89 12.22-22.3 4.64-13.61 4.2-28.28 3.07-42.43-.53-3.57.9-7 3.45-9.47m28.6 23.99c-1.67 4.98-.67 10.37-.68 15.53 5.46.26 10.92.49 16.36 1.01-.79 2.81-1.62 5.6-2.44 8.4-5.97 1.17-12.07.77-18.09 1.44 2.76 5.43 9.24 6.79 13.93 10-2.92 5.09-6.39 10.21-6.74 16.26 6.91-.49 12-5.88 17.72-9.2 3.65 3.25 7.42 6.4 11.65 8.88 2.2-5.08-.74-10.16-2.38-14.91 3.53-2.53 8.06-4.21 10.18-8.26-4.53-.85-9.08-1.59-13.62-2.35-1.64-3.48-3.11-7.03-4.39-10.65 6.8-.51 13.63-.42 20.41-1.31.25-5.12.2-10.25.09-15.37-11.5-.82-23.06-.05-34.58-.39-2.43.25-5.34-.52-7.42.92zm-203.76-12.83c3.37-2.74 6.78-5.45 10.53-7.68 1.98 4.67 4.59 9.03 7.05 13.47 2.2 4.77 3.78 9.85 4.79 15 .53 6.57.93 13.15 1.54 19.72-5.16 2.58-6.4 8.5-9.62 12.78-6.12 7.9-14.22 13.86-21.57 20.53-5.26 4.9-11.56 8.43-17.43 12.5-6.64 4.54-14.31 7.1-21.49 10.59-9.47 4.63-18.06 10.84-27.57 15.4-13.55 6.7-27.43 12.71-41.05 19.26v-51.39c3.88-7.74 3.61-16.74 7.41-24.49 2.42-5.13 4.39-10.59 8.06-15.01 4.6-5.72 11.03-9.47 16.39-14.4 2.44.66 4.97 2 7.53 1.22 8.61-2.69 16.39-7.33 24.16-11.8 10.87-6.06 23.63-6.05 35.33-9.49 5.44-1.64 11.38-2.55 15.94-6.21z"/><path d="m136.1 408.58c.46-.03 1.4-.08 1.86-.1 4.62 4.38 10.7 6.82 15.13 11.43 5.72 5.95 11.82 11.6 18.58 16.36 6.77 3.9 13.83 7.65 21.58 9.14-4.75 6.48-11.6 11.08-15.94 17.89-6.03 9.1-11.2 18.73-17.2 27.85-3.04 5.66-7.66 10.29-10.52 16.05-4.27-3.8-10-5.11-14.85-7.94-3.17-1.82-6.31-3.69-9.43-5.57-5.33-3.19-9.37-8.03-14.5-11.49-11-7.42-20.53-16.96-28.25-27.73 6.67-3.02 12.51-7.48 18.76-11.23 6.07-3.73 11.3-8.6 16.44-13.48 7.2-6.01 13.63-13.04 18.34-21.18zm121.31 30.81c5.94-2.31 11.15-6 16.41-9.53 3.97 4.5 7.43 9.43 11.29 14.03 4.88 5.87 12.11 9.12 17.1 14.9 3.47 3.97 6.68 8.19 10.43 11.93-2.95 1.97-5.72 4.19-8.2 6.73-8.45 8.77-19.19 14.74-28.67 22.25-5 4.01-10.86 6.73-16.68 9.3h-23.52c-3.56-5.88-8.32-10.93-11.7-16.93-5.58-9.64-12.17-18.77-16.33-29.17 8.9-4.91 18.02-9.52 27.69-12.73 7.87-2.57 14.49-7.77 22.18-10.78z"/><path d="m195.9 431.99c3.54 5.96 7.21 11.88 11.57 17.28-1.12 4.85-4.35 9.73-2.54 14.81 3.01 8.92 8.78 16.5 13.46 24.57 4.11 7.15 8.68 14.06 14.04 20.35h-31.69c-.36-3.3-.15-7.39-3.33-9.43-2.65-1.87-6.95-3.43-9.63-.83-3.23 2.82-5.23 6.68-7.46 10.26h-4.22c-.61-12.29-.28-24.61.45-36.89.1-2.42 1.44-4.48 2.61-6.51 2.33 3.76 3.42 10.2 8.8 10.53 3.69.14 8.93.71 10.86-3.28 2.24-5.32 1.83-11.3 1.49-16.93-.13-3.17-2.29-5.62-4.02-8.08.89-5.42-3.12-10.55-.39-15.85zm-138.42 35.45c6.66-4.41 13.78-8.08 21.16-11.16 3.51 4.17 6.67 8.65 10.42 12.63 6.82 7.3 14.85 13.34 22.83 19.3 4.12 3.15 7.42 7.36 12.12 9.73 6.91 3.59 13.43 7.93 20.58 11.06h-144.59v-13.66c7.98-3.31 15.62-7.34 23.5-10.87 11.69-4.92 22.98-10.73 33.98-17.03zm257.02 4.97c4.17 2.95 8.78 5.2 12.92 8.2 13.45 10.41 27.86 19.45 42.31 28.39h-98.93c4.29-3.49 8.65-6.9 13.24-10 6.9-4.66 13.19-10.13 19.72-15.29 4.09-3.24 7.56-7.17 10.74-11.3z"/></g><path d="m234.01 20.76c18.5 2.89 36.19 9.19 53.91 15.02 13.55 3.97 27.45 6.55 41.12 10.05 3.5.85 7.1 1.04 10.62 1.8 3.52.85 6.18 3.5 8.96 5.66 3.59 3.02 7.54 5.53 11.41 8.16 2.48 1.94 5.01 4.18 6.04 7.25.78 2.68.9 5.49 1.32 8.23-3.6-4.28-5.39-9.9-9.8-13.52-5.78-4.93-11.68-10.08-18.75-13.05-7.44-2.2-15.27-2.61-22.82-4.29-12.83-3.01-25.58-6.51-37.91-11.19-13.33-4.06-26.69-8.04-40.12-11.78-1.52-.4-2.75-1.42-3.98-2.34z" fill="#9b392a"/><path d="m163.96 43.06c.04-6.16-.31-12.36.54-18.47l1 .24c.24 1.55.42 3.11.55 4.68-.1 4.84-.57 9.69-.03 14.51.48 4.19 2.4 7.99 3.86 11.89 2.24 5.67 2.96 11.78 4.95 17.53 2.34-6.78 2.27-14.04 3.71-21.01 10.78-1.27 21.64-.19 32.46-.53 19.6-.46 39.31.65 58.54 4.61 9.85 2.58 20 3.67 29.88 6.08 6.38 1.48 12.27 4.41 18.46 6.46 7.9 2.71 16.22 4.04 23.99 7.16 3.17 1.47 6.85 3.85 7.04 7.74.47 6.66-.03 13.34.18 20.01 5.66-3.42 11.88-6.58 15.75-12.16 2.98-4.35 2.16-9.89 2.55-14.87.82 4.37 1.48 8.83.96 13.28-.44 2.5-2.41 4.28-4.18 5.92-4.21 3.65-8.73 6.95-13.54 9.76l-2.27 1.39c-.74-4.84-1.72-9.65-2.07-14.54-.05-2.56 0-5.12-.04-7.68-.91-4.98-6.04-6.95-10.42-7.84-.6-.13-1.81-.38-2.41-.51-2.52-.76-5.04-1.53-7.58-2.2-7.47-2.03-14.79-4.5-21.94-7.42-9.88-3.21-20.15-5.24-30.47-6.29-1.96-.51-3.9-1.05-5.88-1.47-.57-.12-1.71-.37-2.29-.5-3.19-.84-6.43-1.46-9.72-1.76-6.18-.7-12.45-.33-18.6-1.36-4.54-.72-9.15-.91-13.74-.91-3.74.05-7.49.09-11.24.14-2.53.04-5.06.14-7.59.27-7.92-.44-15.87-.5-23.8-.14-.28 6.81-1.15 13.58-2.55 20.25l-.33.71c-1.07 2.23-1.99 4.54-2.9 6.84 9.43 0 18.92-.25 28.3.93 10.38 1.63 20.91.54 31.35 1.17-.35.83-.71 1.67-1.09 2.49-9.18-.56-18.4.28-27.56-.74-11.9-.42-24.01-2.7-35.78.2.37 1.56.72 3.13 1.19 4.67l.84.11c10.93 1.09 21.95 0 32.92.6 13.3.76 26.63.7 39.91 1.98-17.08 4.38-34.59-.28-51.87.39-6.6.27-13.28-.69-19.83.41-5.42 1.78-9.27 6.37-13.11 10.34l-.68-2.12c2.46-3.55 5.76-6.37 8.96-9.23a97.23 97.23 0 0 1 -.5-3.36c.56-2.21 1.3-4.36 2.16-6.47 1.16-1.88 2.65-3.62 3.27-5.77-.25-1.37-.81-2.67-1.24-3.99-1.04-5.95-1.44-12.09-3.74-17.74-1.83-4.42-4.54-8.72-4.33-13.68z" fill="#230101"/><path d="m180.57 55.07c7.93-.36 15.88-.3 23.8.14-7.24 1.67-14.72.91-22.03 1.98-.19 4.56-.03 9.15-.63 13.69-.14 2.14-2.39 3.06-3.69 4.44 1.4-6.67 2.27-13.44 2.55-20.25z" fill="#bf1b18"/><path d="m204.37 55.21c2.53-.13 5.06-.23 7.59-.27.56.58 1.13 1.16 1.7 1.74-2.34 1.07-5.03 1.72-6.88 3.59-1.77 2.79-2.2 6.17-3.08 9.3.55-.14 1.65-.43 2.19-.58-.12 2.71.02 5.41-.03 8.12-.08 1.36-.18 2.73-.48 4.06-8.92 1.2-17.96-.3-26.92-.29-.26-1.62-.52-3.24-.77-4.85l.33-.71c1.3-1.38 3.55-2.3 3.69-4.44.6-4.54.44-9.13.63-13.69 7.31-1.07 14.79-.31 22.03-1.98zm18.83-.41c4.59 0 9.2.19 13.74.91 6.15 1.03 12.42.66 18.6 1.36 2.75 2.33 6.39 1.93 9.72 1.76.58.13 1.72.38 2.29.5 1.87.8 3.85 1.31 5.88 1.47 10.32 1.05 20.59 3.08 30.47 6.29 7.15 2.92 14.47 5.39 21.94 7.42 1.56 2.81 4.9 2.07 7.58 2.2.6.13 1.81.38 2.41.51.26.91.53 1.83.8 2.75 3.36 1.38 6.57 3.11 9.62 5.09.04 2.56-.01 5.12.04 7.68-.12 8.9-.1 17.8-.21 26.69-1.42-.03-2.84-.07-4.25-.14-2.74-1.21-5.44-2.51-8.15-3.78-.5-2.42-1.05-4.81-1.42-7.25-.3-2.39-.4-4.8-.58-7.21-.94-4.6-6.59-5.44-9.74-2.46-.78.9-1.54 1.82-2.28 2.74-1.12-.24-2.24-.49-3.34-.77-1.36-.44-2.68-.96-4-1.48-5.44-3.82-11.81-6.29-18.55-5.9-.38-.08-1.15-.25-1.54-.34-1.75-1.2-3.38-2.65-5.37-3.46-1.21.36-2.36.88-3.51 1.36-.35-.04-1.03-.12-1.38-.17-6.27-3.11-13.31-3.48-20.09-4.63 2.28-.73 4.57-1.45 6.86-2.19-7.05-1.35-14.38-1.18-21.07 1.59-1.76-.13-3.51-.28-5.26-.45-5.8-2.33-12.09-2.35-18.23-1.92 1.56-2.49 3.44-4.96 3.81-7.96.3-2.94-.79-5.76-1.46-8.57-.15-1.12-.32-2.24-.5-3.35-.35-2.93-1.42-5.71-2.83-8.29z" fill="#cc0203"/><path d="m211.96 54.94c3.75-.05 7.5-.09 11.24-.14 1.41 2.58 2.48 5.36 2.83 8.29-1.37-2.01-2.89-3.91-4.38-5.84-4.07.72-8.48.97-12 3.37-2.68 1.87-3.24 5.38-3.76 8.37-.54.15-1.64.44-2.19.58.88-3.13 1.31-6.51 3.08-9.3 1.85-1.87 4.54-2.52 6.88-3.59-.57-.58-1.14-1.16-1.7-1.74z" fill="#b41028"/><path d="m209.65 60.62c3.52-2.4 7.93-2.65 12-3.37 1.49 1.93 3.01 3.83 4.38 5.84.18 1.11.35 2.23.5 3.35-.51 5.37.05 12.7-5.89 15.3-5.35 1.19-10.51-1.69-14.78-4.63.05-2.71-.09-5.41.03-8.12.52-2.99 1.08-6.5 3.76-8.37m.05 5.4c-.81 2.95-2.21 6.23-.97 9.24 2.69 4.03 8.63 4.97 12.76 2.8.43-.77.88-1.53 1.33-2.29.54-4.78.82-9.79-1.3-14.25-4.26-1.59-10.55-.5-11.82 4.5z" fill="#2c0400"/><path d="m255.54 57.07c3.29.3 6.53.92 9.72 1.76-3.33.17-6.97.57-9.72-1.76z" fill="#932424"/><path d="m267.55 59.33c1.98.42 3.92.96 5.88 1.47-2.03-.16-4.01-.67-5.88-1.47z" fill="#812032"/><path d="m361.35 59.01c3.37 2.83 7.77 6.05 7.63 10.93-.06 6.76.06 13.54-.63 20.27.52-4.45-.14-8.91-.96-13.28-.42-2.74-.54-5.55-1.32-8.23-1.03-3.07-3.56-5.31-6.04-7.25.44-.81.88-1.62 1.32-2.44z" fill="#6d0704"/><path d="m209.7 66.02c1.27-5 7.56-6.09 11.82-4.5 2.12 4.46 1.84 9.47 1.3 14.25-.95-1.11-1.87-2.22-2.79-3.34.27-3.41-2.12-5.86-4.29-8.13-1.83 1.53-3.74 2.96-5.78 4.21-.06-.62-.2-1.87-.26-2.49z" fill="#f3bf3f"/><path d="m215.74 64.3c2.17 2.27 4.56 4.72 4.29 8.13.92 1.12 1.84 2.23 2.79 3.34-.45.76-.9 1.52-1.33 2.29-1.9-1.56-3.8-3.13-5.67-4.74-1.8.55-3.61 1.1-5.42 1.63-.11-2.15-.22-4.3-.44-6.44 2.04-1.25 3.95-2.68 5.78-4.21z" fill="#c41211"/><path d="m208.73 75.26c-1.24-3.01.16-6.29.97-9.24.06.62.2 1.87.26 2.49.22 2.14.33 4.29.44 6.44 1.81-.53 3.62-1.08 5.42-1.63 1.87 1.61 3.77 3.18 5.67 4.74-4.13 2.17-10.07 1.23-12.76-2.8z" fill="#e1c532"/><path d="m226.53 66.44c.67 2.81 1.76 5.63 1.46 8.57-.37 3-2.25 5.47-3.81 7.96 6.14-.43 12.43-.41 18.23 1.92-2.66.02-5.31.14-7.97.08-10.44-.63-20.97.46-31.35-1.17-9.38-1.18-18.87-.93-28.3-.93.91-2.3 1.83-4.61 2.9-6.84.25 1.61.51 3.23.77 4.85 8.96-.01 18 1.49 26.92.29.3-1.33.4-2.7.48-4.06 4.27 2.94 9.43 5.82 14.78 4.63 5.94-2.6 5.38-9.93 5.89-15.3z" fill="#b3231e"/><path d="m170 84.24c.7-3.25 1.4-6.5 2.03-9.76.43 1.32.99 2.62 1.24 3.99-.62 2.15-2.11 3.89-3.27 5.77z" fill="#82414f"/><path d="m325.84 74.51c2.54.67 5.06 1.44 7.58 2.2-2.68-.13-6.02.61-7.58-2.2z" fill="#a01623"/><path d="m335.83 77.22c4.38.89 9.51 2.86 10.42 7.84-3.05-1.98-6.26-3.71-9.62-5.09-.27-.92-.54-1.84-.8-2.75z" fill="#9d1c23"/><path d="m247.67 85.34c6.69-2.77 14.02-2.94 21.07-1.59-2.29.74-4.58 1.46-6.86 2.19 6.78 1.15 13.82 1.52 20.09 4.63-11.54-.92-22.85-3.62-34.3-5.23z" fill="#c01b13"/><path d="m234.44 84.97c2.66.06 5.31-.06 7.97-.08 1.75.17 3.5.32 5.26.45 11.45 1.61 22.76 4.31 34.3 5.23.35.05 1.03.13 1.38.17 2.93.83 5.88 1.59 8.88 2.1.39.09 1.16.26 1.54.34 6.02 2.46 12.18 4.54 18.55 5.9 1.32.52 2.64 1.04 4 1.48-.89.78-1.77 1.57-2.64 2.35-2.88-.83-5.72-1.77-8.53-2.77-.54 1.05-1.08 2.11-1.62 3.17-.57-.17-1.7-.51-2.26-.68.23-1.21.46-2.43.7-3.64-1.24-.38-2.48-.76-3.72-1.13-.23.95-.67 2.85-.89 3.81-.59-.12-1.76-.35-2.34-.46-.08-1.45-.14-2.89-.19-4.34-3.13-.83-6.27-1.63-9.42-2.35-1.82-.45-3.65-.89-5.5-1.18-11.26-1.02-22.17-4.35-33.51-4.79-4.45-.59-8.96-.35-13.44-.33l.39-.76c.38-.82.74-1.66 1.09-2.49z" fill="#2a0101"/><path d="m170.01 86.92c11.77-2.9 23.88-.62 35.78-.2 9.16 1.02 18.38.18 27.56.74l-.39.76c-5.7.18-11.42-.06-17.12.31 10.18-.06 20.4.85 30.56.02 11.34.44 22.25 3.77 33.51 4.79-.65.53-1.31 1.06-1.96 1.59 2.49-.15 4.97-.32 7.46-.41 3.15.72 6.29 1.52 9.42 2.35.05 1.45.11 2.89.19 4.34-.59-.1-1.76-.31-2.34-.41-7.43-1.69-15.05-2.17-22.48-3.86-7.85-1.78-15.95-1.54-23.9-2.56-.36-.03-1.07-.08-1.43-.1-13.28-1.28-26.61-1.22-39.91-1.98-10.97-.6-21.99.49-32.92-.6 4.97.51 9.97.27 14.96.29 7.12-.07 14.27.31 21.37-.53-6.76-.91-13.58-.38-20.37-.46-5.6-.03-11.23-.15-16.8.59-.47-1.54-.82-3.11-1.19-4.67z" fill="#f2c123"/><path d="m215.84 88.53c5.7-.37 11.42-.13 17.12-.31 4.48-.02 8.99-.26 13.44.33-10.16.83-20.38-.08-30.56-.02zm67.19 227.51c1.11.19 2.22.38 3.34.59 1.8 5.8.64 11.93-1.58 17.45-.85-4.71-1.97-9.36-2.97-14.04-.1-1.44.8-2.68 1.21-4zm-179.67 38.59c1.7-1.43 3.69-2.48 5.93-2.7-1.49 1.77-3.75 2.31-5.93 2.7z" fill="#ede2bf"/><path d="m283.35 90.74c1.15-.48 2.3-1 3.51-1.36 1.99.81 3.62 2.26 5.37 3.46-3-.51-5.95-1.27-8.88-2.1z" fill="#a5191e"/><path d="m159.1 102.37c2.01-4.54 6.73-7.1 8.74-11.66.15 1.12.31 2.24.5 3.36-3.2 2.86-6.5 5.68-8.96 9.23zm38.35 220.68c1.61-.34 3.22-.66 4.83-1 .24 3.9.33 7.97-1.82 11.42-.97-3.48-2.09-6.92-3.01-10.42z" fill="#746d5b"/><path d="m171.2 91.59c5.57-.74 11.2-.62 16.8-.59 6.79.08 13.61-.45 20.37.46-7.1.84-14.25.46-21.37.53-4.99-.02-9.99.22-14.96-.29z" fill="#c4ad7c"/><path d="m279.91 93.34c1.85.29 3.68.73 5.5 1.18-2.49.09-4.97.26-7.46.41.65-.53 1.31-1.06 1.96-1.59z" fill="#e0ba76"/><path d="m293.77 93.18c6.74-.39 13.11 2.08 18.55 5.9-6.37-1.36-12.53-3.44-18.55-5.9z" fill="#a01a23"/><path d="m346.29 92.74c.35 4.89 1.33 9.7 2.07 14.54.59 5.35.52 10.74 1.23 16.08.07 6.35 1.81 12.51 2.15 18.83-2.3-7.48-4.24-15.14-4.11-23.03-.46.51-1.38 1.54-1.84 2.06-1.32-.65-2.63-1.31-3.96-1.93 1.41.07 2.83.11 4.25.14.11-8.89.09-17.79.21-26.69z" fill="#3a0100"/><path d="m244.87 94.28c.36.02 1.07.07 1.43.1.26.61.79 1.84 1.06 2.46 3.06.58 6.14 1.13 9.22 1.64-.72.92-1.43 1.84-2.14 2.77 1.85-.91 3.7-1.83 5.56-2.76 1.09.99 2.17 1.98 3.27 2.97-.31-.84-.62-1.68-.93-2.51 8.42 1.72 17.11 2.5 25.09 5.92-.24.74-.48 1.49-.72 2.23l6.6-.48c-.06-1.96-.26-3.9-.63-5.82.58.1 1.75.31 2.34.41.58.11 1.75.34 2.34.46 1.3.28 2.61.61 3.91.96.56.17 1.69.51 2.26.68l.72.26c-.76 1.57-1.49 3.15-2.25 4.71 4.36-1.86 8.56.48 12.19 2.81-6.84 3.84-14.23 6.51-21.55 9.25-4.69 1.7-9.59 3.27-14.64 2.95-7.55-.37-14.52-3.73-21.98-4.69-7.32-.93-14.68-1.49-22-2.42-7.05-.91-14.2-.63-21.25-1.6-7.79-1.19-15.68-1.63-23.54-1.92-7.99.17-16 .05-23.93-.93-2.7-.34-5.27-1.29-7.75-2.36.93-1.25 1.71-2.6 2.51-3.95 3.84-3.97 7.69-8.56 13.11-10.34 6.55-1.1 13.23-.14 19.83-.41 17.28-.67 34.79 3.99 51.87-.39z" fill="#191919"/><path d="m246.3 94.38c7.95 1.02 16.05.78 23.9 2.56 7.43 1.69 15.05 2.17 22.48 3.86.37 1.92.57 3.86.63 5.82l-6.6.48c.24-.74.48-1.49.72-2.23-7.98-3.42-16.67-4.2-25.09-5.92.31.83.62 1.67.93 2.51-1.1-.99-2.18-1.98-3.27-2.97-1.86.93-3.71 1.85-5.56 2.76.71-.93 1.42-1.85 2.14-2.77-3.08-.51-6.16-1.06-9.22-1.64-.27-.62-.8-1.85-1.06-2.46z" fill="#0e0806"/><path d="m321.94 98.59c3.15-2.98 8.8-2.14 9.74 2.46-3.12-1.28-6.4-2.06-9.74-2.46z" fill="#a5121f"/><path d="m298.25 97.86c1.24.37 2.48.75 3.72 1.13-.24 1.21-.47 2.43-.7 3.64-1.3-.35-2.61-.68-3.91-.96.22-.96.66-2.86.89-3.81z" fill="#b6b665"/><path d="m319.66 101.33c.74-.92 1.5-1.84 2.28-2.74 3.34.4 6.62 1.18 9.74 2.46.18 2.41.28 4.82.58 7.21-.85 1.8-1.7 3.6-2.52 5.41 1.31.6 2.62 1.22 3.94 1.84 2.71 1.27 5.41 2.57 8.15 3.78 1.33.62 2.64 1.28 3.96 1.93.46-.52 1.38-1.55 1.84-2.06-.13 7.89 1.81 15.55 4.11 23.03.22 3.12.11 6.26-.27 9.37-.9 6.55-.99 13.53-4.69 19.28 1.56-5.83 2.09-11.85 3.43-17.73-4.7-2.28-9.27-4.89-14.33-6.3-4.93-1.3-10-1.91-15.02-2.72-7.18-.49-14.39.17-21.58-.29-.49-7.45-.14-14.91-.23-22.37-5.58 1.94-11.09 4.41-17.01 5.1-8.86-.02-17.12-3.9-25.89-4.69-7.75-.74-15.38-2.44-23.14-3.08-15.36-.52-30.6-2.76-45.96-3.36-6.08-.06-12.16.01-18.24-.04-.61 1.32-1.22 2.64-1.88 3.94-.5-2.04-.99-4.08-1.44-6.13-1.79-.08-3.58-.14-5.37-.31-1.35-.72-2.67-1.5-3.99-2.27l1.42-1.22c2.48 1.07 5.05 2.02 7.75 2.36 7.93.98 15.94 1.1 23.93.93 7.86.29 15.75.73 23.54 1.92 7.05.97 14.2.69 21.25 1.6 7.32.93 14.68 1.49 22 2.42 7.46.96 14.43 4.32 21.98 4.69 5.05.32 9.95-1.25 14.64-2.95 7.32-2.74 14.71-5.41 21.55-9.25-3.63-2.33-7.83-4.67-12.19-2.81.76-1.56 1.49-3.14 2.25-4.71 3.77 1.49 7.56 2.91 11.43 4.14 1.13.39 2.27.78 3.41 1.17-.05-1.5-.09-3-.12-4.49-.71-.2-2.12-.59-2.82-.78-.62-.18-1.86-.53-2.47-.7.87-.78 1.75-1.57 2.64-2.35 1.1.28 2.22.53 3.34.77m4.04.24c-1.66 2.4-2.5 5.37-1.86 8.27 1.28 2.47 4.38 1.13 6.57 1.36l-.4-2.53c1.78-.35 1.64-4.63.37-5.49-1.02-1.73-2.81-2.35-4.68-1.61m-4.56 10.09c-5.55 3.36-11.38 6.28-17.52 8.4.09 7.04-.01 14.08.2 21.12 9.15.39 18.4-.54 27.43 1.4 7.41.76 14.11 4.08 20.97 6.72-.53-6.83-1.91-13.55-3.1-20.27-.55-1.94-.65-4.48-2.69-5.49-4.17-2.46-8.97-3.57-13.21-5.89-3.96-2.13-8.03-4.03-12.08-5.99z" fill="#090302"/><path d="m305.15 100.14c2.81 1 5.65 1.94 8.53 2.77.61.17 1.85.52 2.47.7.7.86 1.41 1.73 2.12 2.59l-2.59 1.51c-3.87-1.23-7.66-2.65-11.43-4.14l-.72-.26c.54-1.06 1.08-2.12 1.62-3.17z" fill="#e8c14b"/><path d="m323.7 101.57c1.87-.74 3.66-.12 4.68 1.61-1.5-.02-2.99-.04-4.49-.07-.03 2.08-.05 4.15-.06 6.23 1.3-.77 2.6-1.56 3.9-2.34l.28 1.67.4 2.53c-2.19-.23-5.29 1.11-6.57-1.36-.64-2.9.2-5.87 1.86-8.27zm15.45 193.75c1.46.05 2.92.11 4.38.14.92 1.89 1.9 3.75 2.95 5.57-2.16-1.37-4.28-2.79-6.38-4.23-1.47 1.57-2.97 3.11-4.4 4.73.65-2.32 1.91-4.38 3.45-6.21zm-8.58 17.95c-1.18-3.47.48-7 1.53-10.27.42 3.48-.59 7.84 2.44 10.41 2.7 2.74 6.93 2.28 10.39 1.75 2.65-.55 3.95-3.07 5.08-5.26-.11 1.65-.18 3.3-.26 4.95-1.9.85-3.81 1.69-5.75 2.42-.74.01-2.2.04-2.93.05-3.67-.59-7.92-1.07-10.5-4.05zm37.21 13.81c.62-.4 1.86-1.21 2.48-1.61.24 2.28.45 4.56.78 6.84.65-1.64 1.29-3.28 1.91-4.92.73-.1 1.46-.2 2.2-.29.13 1.25.26 2.51.44 3.76.37.02 1.1.07 1.47.1.73.05 2.19.14 2.92.19.11 1.28.23 2.57.34 3.86-2.64.09-5.3.4-7.7 1.57-1.5-1.25-3.06-2.46-4.32-3.96-.43-1.81-.41-3.69-.52-5.54zm-337.09 50.57c3.71-3.14 8.34-4.74 12.95-6.05-.53 1.07-1.07 2.15-1.56 3.25-2.88.47-6.57.33-8.22 3.26.27 3.13 2.84 5.31 5.97 5.15 1.43.07 2.85.14 4.28.19-2.41 1.04-4.84 2.05-7.26 3.08-1.37-1.81-2.7-3.65-3.95-5.53-.74-1.12-1.48-2.24-2.21-3.35zm303.47 23.59c.77-3.25 1.81-6.43 3.25-9.45 1.65 3.73 3.51 7.39 4.74 11.29-1.82-1.61-3.23-3.59-4.57-5.59-1.13 1.26-2.27 2.51-3.42 3.75zm-9.16 20.86c1.24-3.29 2.16-7.02 5.12-9.23-.15 1.3-.29 2.62-.4 3.93 2.1-.65 4.22-1.28 6.33-1.96-3.31 2.95-7.07 5.33-11.05 7.26zm-141.17 37.81c.3-2.21 2.56-3.03 4.17-4.12-1.28 2.81-2.61 5.63-3.32 8.65-.6 1.88 1.13 3.38 2.17 4.72 2.02 2.47 5.2 3.29 8.14 4.07-3.19.18-7.4 1.46-9.53-1.69-2.96-3.08-2.64-7.81-1.63-11.63z" fill="#e0c455"/><path d="m153.49 111.81c1.82-3.17 3.93-6.18 5.61-9.44l.28.93.68 2.12c-.8 1.35-1.58 2.7-2.51 3.95l-1.42 1.22c1.32.77 2.64 1.55 3.99 2.27-2.23-.18-4.44-.6-6.63-1.05z" fill="#3d0a08"/><path d="m323.89 103.11c1.5.03 2.99.05 4.49.07-.31 1.26-.52 2.53-.65 3.82-1.3.78-2.6 1.57-3.9 2.34.01-2.08.03-4.15.06-6.23z" fill="#ecc225"/><path d="m328.38 103.18c1.27.86 1.41 5.14-.37 5.49l-.28-1.67c.13-1.29.34-2.56.65-3.82zm-77.52 125.55c.81-3.66 4.33-6.21 7.94-6.58 3.28.64 7.01 2.41 7.9 5.94 1.68 5.06.14 10.46-.25 15.62-1.6 10.75-2.77 21.55-3.97 32.34-.65 9.8.37 19.59 1.04 29.36.4 5.41.65 10.84 1.48 16.21.7 0 2.1.01 2.8.01-1.29-11.09-1.61-22.23-2.2-33.36-1.71-8.81 1.43-17.52 1.67-26.31.11-4.6.73-9.18 2.08-13.59 1.42.2 2.84.42 4.26.65.4 2.57 1.05 5.18.69 7.8-2.04 1.77-4.41 3.11-6.82 4.32.48.54 1.43 1.62 1.9 2.16 1.87-1.04 3.69-2.17 5.47-3.36.87 10.32 2.01 20.65 1.67 31.03-1.56-.15-3.12-.29-4.68-.41-.2 1.46-.37 2.93-.49 4.41 1.66-.79 3.31-1.61 4.94-2.46 1.21 8.46 2.26 16.95 2.79 25.48.59 10.53 5.62 20.41 5.38 31-.18 3.66-.94 7.3-.64 10.98.85 8.28.81 16.66.31 24.96-1.29 5.54-1.25 11.45-3.54 16.72-3.95 6.46-8.22 12.8-11.23 19.78-1.36 2.67-.61 5.8-1.51 8.57-5.9 5.8-14.43 7.24-21.26 11.6-5.07 3.28-10.62 5.68-16.35 7.56-6.17 1.84-11.71 5.21-17.64 7.66-1.33-3.47-2.56-6.99-4.32-10.27-3.71-6.12-8.2-11.78-11.34-18.24-2.66-8.52-2.48-17.51-3.2-26.31.01-10.34-.69-20.72.42-31.03.59-7.03 3.78-13.47 5.45-20.25.89-6.81 2.94-13.39 5.13-19.88 1.86-20.14 1.55-40.75 7.3-60.33l.57-.58c.82 1.29 1.64 2.59 2.47 3.89 2.5.27 4.99.62 7.5.84-1.54 13.34-2.14 26.96-.35 40.34.48 5.57-.1 11.17.28 16.75-.01 1.95 1.52 3.39 3.14 4.23.45-13.66-.03-27.33.25-40.99.81-11.21 1.51-22.43 1.94-33.66 1.22-10.68 1.73-22.18 8.12-31.29 1.88-2.84 5.6-2.48 8.49-1.85 1.45 7.21-.12 14.48-.1 21.72-.31 5.59-1.03 11.16-1.31 16.75-1.17 6.4-1.11 12.91-1.31 19.38-2.45-.32-4.9-.13-7.32.28.09 1.11.18 2.22.28 3.34 2.37-.38 4.74-.8 7.04-1.5.31 2.02.75 4.01 1.1 6.03-.84 9.4-.39 18.87-.32 28.29 1.05.05 2.11.11 3.17.16.29-6.88.09-13.76.14-20.64-.28-9.35 1.17-18.63.7-27.99 1.27-15.09.13-30.57 4.34-45.28m1.91 5.94c-.14.79-.4 2.37-.53 3.16 3.01 3.26 7.38 3.01 11.44 2.69.24-1.06.46-2.13.67-3.19-2.08.24-4.13.75-6.22.74-2-.78-3.55-2.3-5.36-3.4m-18.98 3.22c-.19 2.09.16 4.15.98 6.07 3.08-.07 6.16-.06 9.25-.11-.04-.63-.13-1.89-.17-2.52-2.27.01-4.55-.02-6.82-.02-.62-1.62-1.09-3.56-3.24-3.42m22.49 11.53c-.06.61-.19 1.82-.26 2.43 2.51-.32 5.05-.44 7.55-.89.2-.55.59-1.66.78-2.22-2.71-.06-5.41.17-8.07.68m-20.6 3.53c1.56 1.43 6.25 4.33 5.99.3-1.82-1.42-4-1.19-5.99-.3m33.24 18.15c1.65-.2 3.29-.43 4.93-.67-.26-.93-.54-1.84-.85-2.74-1.84.55-3.65 1.32-4.08 3.41m-11.55 9.18c-3.07.68-6.71.27-9.02 2.76 3.72 2.39 7.67.42 11.44-.62 2.5-1.96-.72-2.54-2.42-2.14m-41.67 1.67c.12 1.94 2.11 1.95 3.54 2.45 1.61-2.69-1.51-3.98-3.54-2.45m-4.1 25.05c1.8.86 3.76.96 5.71.7.05-.8.17-2.4.23-3.2-2.14.38-4.2 1.15-5.94 2.5m29.61 36.19c-.06 4.09.02 8.27.92 12.27.52.21 1.56.62 2.08.82.56-4.42-.37-8.8-.65-13.19-.59.02-1.76.07-2.35.1m23.34.78c-.22 3.48 1.67 6.9.6 10.32-.47 1.66-.59 3.38-.17 5.07 4.96-3.26 3.07-9.85 2.41-14.71zm-46.62 2.45c-.08 1.44-.14 2.89-.18 4.34l2.88-.52c.13-1.91-.64-3.52-2.7-3.82zm-67.24-122.61c2.25.11 4.57-.04 6.76.64 4.39 6.67 4.37 15.11 5.14 22.79-1.54.7-3.12 1.33-4.55 2.24-1.46 8.78-.28 17.73-1.41 26.54-.69 14.86.95 29.91-1.95 44.61-.53 3.08-1 6.64 1.37 9.14 3.33-15.67 3.1-31.8 3.03-47.74-.43-1.92 1.34-2.93 2.45-4.14-1.5-2.53-1.95-5.45-1.75-8.35 1.8-.95 4.71-1.04 5.35-3.35 1.18-4.18.96-8.59 1.19-12.88.9.18 1.8.37 2.7.55 2.23 7.46 1.33 15.36 2.2 23.02 2.39 13.81 3.21 27.87 3.06 41.87 2.11 1.78 4.41 3.48 5.97 5.81.67 4.58-.7 9.46 1.33 13.8 1.53 3.71 2.02 7.72 2.51 11.68.44 7.25 3.98 13.79 7.28 20.08-.05 5.54-.68 11.07-.74 16.62.76 7.75.2 15.55 1 23.29-.03 8.17 2.91 16.35 1 24.46-.9 2.46-1.93 5.63-4.69 6.48-4.43-1.02-8.22-3.75-12.3-5.63-4.15-1.93-7.09-5.54-10.75-8.16-5.59-4.04-9.25-10.21-15.08-13.97-2.73-1.61-5.41-3.29-8.06-5.02.1-8.47-1.33-16.86-1.61-25.32-.46-12.51-1.74-25.02-.81-37.54a141.68 141.68 0 0 1 6.55-22.29c2.18-6.63 2.61-13.64 3.58-20.51 1-6.71-.74-13.4-.47-20.12 1.39.22 2.78.42 4.18.61-1.17-2.25-2.86-4.45-2.77-7.11-.15-7.91.35-15.83-.24-23.73.79-.21 2.36-.64 3.15-.85-1.14-1.49-2.48-2.85-3.39-4.5-.27-2-.22-4.02-.27-6.03 2.04-.31 4.08-.68 6.1-1.14.31-5.58.29-12.53-5.06-15.85m-3.49 117.11 2.31.04c-.45-4.33 2-7.84 3.61-11.6-5.77-.16-6.47 7.22-5.92 11.56zm181.91-20.7.63.08c.01 4.04.02 8.08-.16 12.11-.38-2.37-.62-4.77-.83-7.16.07-1.68.22-3.36.36-5.03z" fill="#fcdfbd"/><path d="m316.15 103.61c.7.19 2.11.58 2.82.78.03 1.49.07 2.99.12 4.49-1.14-.39-2.28-.78-3.41-1.17l2.59-1.51c-.71-.86-1.42-1.73-2.12-2.59z" fill="#ceb792"/><path d="m348.36 107.28 2.27-1.39c-.8 5.79-.7 11.65-1.04 17.47-.71-5.34-.64-10.73-1.23-16.08z" fill="#9b4c4a"/><path d="m332.26 108.26c.37 2.44.92 4.83 1.42 7.25-1.32-.62-2.63-1.24-3.94-1.84.82-1.81 1.67-3.61 2.52-5.41z" fill="#992020"/><path d="m319.14 111.66c4.05 1.96 8.12 3.86 12.08 5.99 4.24 2.32 9.04 3.43 13.21 5.89 2.04 1.01 2.14 3.55 2.69 5.49 1.19 6.72 2.57 13.44 3.1 20.27-6.86-2.64-13.56-5.96-20.97-6.72-9.03-1.94-18.28-1.01-27.43-1.4-.21-7.04-.11-14.08-.2-21.12 6.14-2.12 11.97-5.04 17.52-8.4zm-143.97 77.53c3.72-3.12 8.56-.34 12.8-.5 8.06-.18 16.05.87 24.09 1.24 4.71 0 8.47 3.39 11.23 6.86 2.23 2.59 2.28 6.13 2.92 9.32.82 5.14 3.93 9.44 5.92 14.15-7.28-2.4-14.38-5.74-22.14-6.18-8.2-.43-16.3-1.71-24.45-2.55-8.97-.91-17.32 3.24-26.07 4.35 1.55-4.86 4.58-9.03 6.77-13.6 2.43-4.68 4.8-9.66 8.93-13.09z" fill="#57463e"/><path d="m165.49 113.17c.45 2.05.94 4.09 1.44 6.13-.7 1.31-1.44 2.59-2.15 3.89-.47.85-.92 1.72-1.32 2.6a46.973 46.973 0 0 0 -3.16 11.46c.06 2.66.39 5.3.59 7.96.05 2.71-.01 5.42-.03 8.14-.01 1.61.05 3.22.06 4.84.18 4.06-1.62 7.79-3.26 11.39-2.57 6.49-5.85 13.13-5.22 20.32.42 5.14 1.25 10.25 1.59 15.4-.46-.15-1.39-.44-1.85-.59.05-7.17-3.67-14.12-1.63-21.32 1.65-5.69 3.56-11.32 4.22-17.25 2.51-2.55 3.1-6.12 3.27-9.54.88-7.81-.19-15.67.31-23.49.22-3.61 1.92-6.86 4.01-9.72 2.21-2.94 2.87-6.63 3.13-10.22z" fill="#290101"/><path d="m168.81 115.36c6.08.05 12.16-.02 18.24.04 15.36.6 30.6 2.84 45.96 3.36 7.76.64 15.39 2.34 23.14 3.08 8.77.79 17.03 4.67 25.89 4.69 5.92-.69 11.43-3.16 17.01-5.1.09 7.46-.26 14.92.23 22.37 7.19.46 14.4-.2 21.58.29 5.02.81 10.09 1.42 15.02 2.72 5.06 1.41 9.63 4.02 14.33 6.3-1.34 5.88-1.87 11.9-3.43 17.73-1.42 2.73-3.12 5.31-4.55 8.03-8.1-1.24-15.86 1.78-23.28 4.59-.05 2.5 3.12 2.16 4.71 1.45 5.54-2.22 11.44-4.34 17.5-3.3 1.89 2.42 3.76 4.86 5.68 7.27 1.81 5.18 3.22 10.91 1.43 16.3-2.11 5.76-6.44 10.25-9.94 15.16-2.56 3.36-4.8 7.17-8.41 9.54-3.65 1.79-7.72 3.46-11.86 2.62-3.47-.72-7.06-1-10.4-2.18-2.25-1.57-3.95-3.94-6.75-4.6.76 2.4 1.92 4.79 4.13 6.18 2.31 2.2 5.63 1.96 8.56 2.51 2.69.49 5.4.95 8.14 1.2-.2 7.33.28 14.68-.2 22-1.85 3.58-5.21 6.08-7.99 8.92-6.25 6.09-14.03 10.19-21.47 14.62-4.3 2.8-8.48 5.77-12.91 8.36.01-9.83-.93-19.62-1.63-29.42 5.8-3.76 10.37-9.04 13.43-15.23 3.92-5.4 3.55-12.29 4.01-18.62l-2.43.28c-.84 4.28-.47 8.83-2.06 12.94-3.23 6.31-7.23 12.41-13.07 16.6-.36-2.67-.57-5.37-1.28-7.97-1.7-2.17-4.73-2.25-7.22-2.75.7-6.75 3.32-14.37-.89-20.47-2.15-2.55-5.11-4.49-8.29-5.46-5.54-.12-10.59 4.1-11.97 9.4-2.68-3.04-6.78-5.29-10.73-3.09-6.5 5.44-9.45 14.06-10.34 22.26-.34 4.29-.77 8.58-1.69 12.79-2.23-2.05-5.36-3.86-8.35-2.19-3.77 2.88-6.02 7.23-7.61 11.6-9.05 0-18.1-.23-27.13.23-3.29-.16-7.75-1.06-8.42-4.91-.64-4.66-.6-9.46-2.21-13.94-1.22-2.39-3.78-3.49-6.24-4.13-.23-7.59-.78-15.48-3.98-22.47-1.04-2.84-4.28-3.43-6.79-4.29 0-5.12.31-10.27-.25-15.37-.34-5.15-1.17-10.26-1.59-15.4-.63-7.19 2.65-13.83 5.22-20.32 1.64-3.6 3.44-7.33 3.26-11.39 7.2 1.14 15.19 1.39 21.53-2.8 1.78-.95 2.31-3 3.01-4.74-8.15.97-16.24 3.94-24.6 2.7.02-2.72.08-5.43.03-8.14.03-1.82.09-3.64.17-5.46 6.67-1.83 12.86-5.67 19.95-5.78 3.25.12 6.37-.83 9.4-1.94 1.44 4.46 2.52 9.14 2.12 13.86-.74 3.59-1.76 7.13-3.01 10.58-1.77 3.38-4.38 6.26-6.15 9.65-1.64 3.36-5.78 4.6-7.24 8.1-.89 3.5.16 7.09.99 10.5-3.63 1.04-6.91 3.15-9.06 6.3-3.6 4.38-4.11 10.26-7.02 15-2.27 3.97-5.51 7.97-4.42 12.87 4.33-.06 8.44-1.48 12.6-2.5 2.09 3.69 3.93 8.56 8.29 10 6.38.41 12.78.75 19.17 1.12 5.75.83 11.8.82 17.27-1.38 3.44-1.39 6.25-3.92 9.52-5.63 3.13-.27 5.55 2.25 7.39 4.47 1.78-.56 3.58-1.04 5.4-1.49-1.26-6.07 4.43-11.95.77-17.71-1.09 3.49-1.87 7.06-3.04 10.51-2.57-3.02-3.26-6.94-3.91-10.72-1.45-4.73-2.52-9.91-6.04-13.62-2.05-2.23-4.74-3.74-7.62-4.61.99-2.28 1.87-4.6 2.74-6.93 1.58 1.77 2.98 3.73 4.84 5.23 1.6-.13 2.3-1.75 1.32-3-3.77-5.59-8.91-10.03-13.8-14.6-2.48 4.27 2.97 7.1 5.3 9.98-1.44 3.42-1.95 9.26-6.78 9.19-7.21-1.03-14.49-.9-21.72-1.37-2.29-2.1-3.6-6.47-7.43-5.69-1.77 2.26 1.18 3.67 2.43 5.24-.24.08-.71.23-.95.31-1.68-2.41-3.65-4.84-4.11-7.82.17-2.23 1.87-3.96 2.89-5.86.58 1.76 1.17 3.52 1.82 5.27 1.42-2.53 2.75-5.16 3.14-8.08.49-4.31 4.55-6.9 5.9-10.88 1.34-4.08 2.83-8.15 3.63-12.38-.79-6.84-1.28-14.26-5.59-19.96-7.42-5.63-16.84-2.21-25.27-2.79.71-1.3 1.45-2.58 2.15-3.89.66-1.3 1.27-2.62 1.88-3.94m52.62 6.08c.64 4.34 1.12 8.69 1.14 13.08 4.26.94 8.18-1.49 12.39-1.3 8.19.76 16.39 1.61 24.47 3.23 4.26 1.12 7.85 5.01 12.53 4.15 3.65-1.5 2.67-6.06 1.18-8.79-2.78-4.02-7.72-5.33-12.02-7.03-6.35-2.55-13.3-1.73-19.91-2.92-6.48-1.09-13.34-2.23-19.78-.42m2.79 23.45c.45.85 1.18 1.51 1.76 2.28 1.1-2.36 2.29-4.67 3.22-7.1-3.12-.68-4.27 2.39-4.98 4.82m-1.66 5.52c4.42 5.85 12.12 7.7 18.98 9.02 5.15.02 10.89 1.72 15.34-1.78-.48-1.53-1.01-3.04-1.61-4.52-1.77.99-3.67 2.05-5.75 1.35-7.28-.58-15.44-.7-21.23-5.81-1.84-1.89-3.93 1.1-5.73 1.74m-25.3 29.92.08 2.91c2.05-.2 4.12-.99 6.19-.63 1.67.79 3.09 1.99 4.67 2.94.12-1.5.12-3-.01-4.5-3.34-2.23-7.36-2.64-10.93-.72m130.85 11.78c-2.17 3.11-6.12 4.57-7.53 8.26.61.05 1.82.14 2.43.19 2.96-2.13 5.96-4.43 7.97-7.53 1.49-2.17 2.98-4.62 5.64-5.48 2.38-1.12 4.54 1.23 6.82 1.66-.45-2.24-1.62-5.04-4.43-4.49-5.18-.97-8.12 3.99-10.9 7.39m12.6 4.26c-.16 6.33.4 12.71-1.74 18.81.51.01 1.55.02 2.07.03 3.56-5.21 2.91-12.1 1.66-18.02-.5-.21-1.49-.61-1.99-.82m-81.19 14.04c-.72 2.21-2.21 5.5.78 6.69.66-1.93 1.29-3.87 1.85-5.83.76-4.27 5.32-5.91 8.42-8.24-.36-.73-1.09-2.17-1.46-2.9-3.04 3.6-8.5 5.28-9.59 10.28m57.87-6.02c-.18 1.56-.09 3.13-.18 4.7-1.76 1.98-4.67 2.35-6.9 3.66.24 1.97.6 3.93 1.07 5.86 3.67.11 7.48-.1 10.81 1.76-1.19 1.24-2.4 2.46-3.54 3.75 2.61.9 5.09-.51 7.39-1.61-1.37-2.07-2.54-4.56-4.86-5.7-2.77-1.01-5.81-.54-8.66-1.11 2.02-2.49 5.56-2.84 8.23-4.45-.26-1.78-.58-3.54-.89-5.31.94-1.25 1.89-2.5 2.87-3.73-.47-.39-1.41-1.18-1.88-1.57-1.19 1.22-2.46 2.36-3.46 3.75m10.88-1.11c.94 3.62 3.05 7.28 2.12 11.12-1.35 2.33-2.64 4.71-3.57 7.25.56.3 1.69.92 2.25 1.23 1.37-2.62 2.99-5.14 3.94-7.95.78-4.26-.87-8.44-1.86-12.52-.72.22-2.16.65-2.88.87z" fill="#fbdfbd"/><path d="m221.43 121.44c6.44-1.81 13.3-.67 19.78.42 6.61 1.19 13.56.37 19.91 2.92 4.3 1.7 9.24 3.01 12.02 7.03 1.49 2.73 2.47 7.29-1.18 8.79-4.68.86-8.27-3.03-12.53-4.15-8.08-1.62-16.28-2.47-24.47-3.23-4.21-.19-8.13 2.24-12.39 1.3-.02-4.39-.5-8.74-1.14-13.08m3.65 1.75c-.02 2.89 0 5.78.03 8.67 4.06-.86 8.21-1.59 12.37-1.14 6.84.76 13.72 1.28 20.51 2.39 4.14.53 7.34 3.47 11.21 4.72 1.15.48 2.02.18 2.61-.92-.49-4.41-4.62-6.94-8.4-8.34-8.35-3.62-17.64-2.86-26.4-4.68-3.93-.75-7.95-.72-11.93-.7zm31.2 126.23c2.66-.51 5.36-.74 8.07-.68-.19.56-.58 1.67-.78 2.22-2.5.45-5.04.57-7.55.89.07-.61.2-1.82.26-2.43zm12.64 21.68c.43-2.09 2.24-2.86 4.08-3.41.31.9.59 1.81.85 2.74-1.64.24-3.28.47-4.93.67z" fill="#0d0400"/><path d="m163.46 125.79c.4-.88.85-1.75 1.32-2.6 8.43.58 17.85-2.84 25.27 2.79 4.31 5.7 4.8 13.12 5.59 19.96-.8 4.23-2.29 8.3-3.63 12.38-1.35 3.98-5.41 6.57-5.9 10.88-.39 2.92-1.72 5.55-3.14 8.08-.65-1.75-1.24-3.51-1.82-5.27-1.02 1.9-2.72 3.63-2.89 5.86.46 2.98 2.43 5.41 4.11 7.82.24-.08.71-.23.95-.31-1.25-1.57-4.2-2.98-2.43-5.24 3.83-.78 5.14 3.59 7.43 5.69 7.23.47 14.51.34 21.72 1.37 4.83.07 5.34-5.77 6.78-9.19-2.33-2.88-7.78-5.71-5.3-9.98 4.89 4.57 10.03 9.01 13.8 14.6.98 1.25.28 2.87-1.32 3-1.86-1.5-3.26-3.46-4.84-5.23-.87 2.33-1.75 4.65-2.74 6.93 2.88.87 5.57 2.38 7.62 4.61 3.52 3.71 4.59 8.89 6.04 13.62.65 3.78 1.34 7.7 3.91 10.72 1.17-3.45 1.95-7.02 3.04-10.51 3.66 5.76-2.03 11.64-.77 17.71-1.82.45-3.62.93-5.4 1.49-1.84-2.22-4.26-4.74-7.39-4.47-3.27 1.71-6.08 4.24-9.52 5.63-5.47 2.2-11.52 2.21-17.27 1.38-6.39-.37-12.79-.71-19.17-1.12-4.36-1.44-6.2-6.31-8.29-10-4.16 1.02-8.27 2.44-12.6 2.5-1.09-4.9 2.15-8.9 4.42-12.87 2.91-4.74 3.42-10.62 7.02-15 2.15-3.15 5.43-5.26 9.06-6.3-.83-3.41-1.88-7-.99-10.5 1.46-3.5 5.6-4.74 7.24-8.1 1.77-3.39 4.38-6.27 6.15-9.65 1.25-3.45 2.27-6.99 3.01-10.58.4-4.72-.68-9.4-2.12-13.86-3.03 1.11-6.15 2.06-9.4 1.94-7.09.11-13.28 3.95-19.95 5.78-.08 1.82-.14 3.64-.17 5.46-.2-2.66-.53-5.3-.59-7.96 4.51-1.82 8.96-3.91 13.73-5.02 3.76-.89 7.69-.79 11.44-1.72 1.34-.16 2.2-1.23 2.85-2.31-7.53-4.47-16.62-1.6-24.86-2.41m11.71 63.4c-4.13 3.43-6.5 8.41-8.93 13.09-2.19 4.57-5.22 8.74-6.77 13.6 8.75-1.11 17.1-5.26 26.07-4.35 8.15.84 16.25 2.12 24.45 2.55 7.76.44 14.86 3.78 22.14 6.18-1.99-4.71-5.1-9.01-5.92-14.15-.64-3.19-.69-6.73-2.92-9.32-2.76-3.47-6.52-6.86-11.23-6.86-8.04-.37-16.03-1.42-24.09-1.24-4.24.16-9.08-2.62-12.8.5m1.1 26.59c3.67 1.73 7.71 1.37 11.63 1.55 6.01 1.16 12.15.53 18.22.7 1.85.2 3.55-.61 5.2-1.33-6.81.06-13.57-.74-20.31-1.69-4.95-.33-10.23-2.39-14.74.77m-4.22-.85c1.07 3.21 2.32 6.81 5.31 8.72 6.47.68 12.98 1.03 19.49 1.33 8.18 1.38 17.51.12 23.52-6.08-3.92.13-7.76.97-11.62 1.55-9.82.64-19.64-.09-29.43-.82-3.15-.11-4.92-3.03-7.27-4.7z" fill="#0d0301"/><path d="m225.08 123.19c3.98-.02 8-.05 11.93.7 8.76 1.82 18.05 1.06 26.4 4.68 3.78 1.4 7.91 3.93 8.4 8.34-.59 1.1-1.46 1.4-2.61.92-3.87-1.25-7.07-4.19-11.21-4.72-6.79-1.11-13.67-1.63-20.51-2.39-4.16-.45-8.31.28-12.37 1.14-.03-2.89-.05-5.78-.03-8.67z" fill="#544741"/><path d="m160.3 137.25c.57-3.93 1.62-7.8 3.16-11.46 8.24.81 17.33-2.06 24.86 2.41-.65 1.08-1.51 2.15-2.85 2.31-3.75.93-7.68.83-11.44 1.72-4.77 1.11-9.22 3.2-13.73 5.02z" fill="#534842"/><path d="m224.22 144.89c.71-2.43 1.86-5.5 4.98-4.82-.93 2.43-2.12 4.74-3.22 7.1-.58-.77-1.31-1.43-1.76-2.28zm94.73 38.57c7.42-2.81 15.18-5.83 23.28-4.59-.27.68-.81 2.05-1.07 2.74-6.06-1.04-11.96 1.08-17.5 3.3-1.59.71-4.76 1.05-4.71-1.45zm-103.25 98.49c2.03-1.53 5.15-.24 3.54 2.45-1.43-.5-3.42-.51-3.54-2.45z" fill="#150502"/><path d="m222.56 150.41c1.8-.64 3.89-3.63 5.73-1.74 5.79 5.11 13.95 5.23 21.23 5.81 2.08.7 3.98-.36 5.75-1.35.6 1.48 1.13 2.99 1.61 4.52-4.45 3.5-10.19 1.8-15.34 1.78-6.86-1.32-14.56-3.17-18.98-9.02z" fill="#090505"/><path d="m160.86 153.35c8.36 1.24 16.45-1.73 24.6-2.7-.7 1.74-1.23 3.79-3.01 4.74-6.34 4.19-14.33 3.94-21.53 2.8-.01-1.62-.07-3.23-.06-4.84z" fill="#0e0504"/><path d="m154.77 166.14c.36-3.4 1.58-6.6 3.27-9.54-.17 3.42-.76 6.99-3.27 9.54z" fill="#85514b"/><path d="m197.26 180.33c3.57-1.92 7.59-1.51 10.93.72.13 1.5.13 3 .01 4.5-1.58-.95-3-2.15-4.67-2.94-2.07-.36-4.14.43-6.19.63z" fill="#120301"/><path d="m328.11 192.11c2.78-3.4 5.72-8.36 10.9-7.39 2.81-.55 3.98 2.25 4.43 4.49-2.28-.43-4.44-2.78-6.82-1.66-2.66.86-4.15 3.31-5.64 5.48-2.01 3.1-5.01 5.4-7.97 7.53-.61-.05-1.82-.14-2.43-.19 1.41-3.69 5.36-5.15 7.53-8.26z" fill="#0d0502"/><path d="m346.84 188.88c2.75 2.24 4.45 5.47 4 9.09.73 7.01-2.74 13.51-7.32 18.54-5.07 5.29-8.21 12.39-14.49 16.5-1.52 1.25-3.86 2.02-4.35 4.13-1.37 10 1.67 19.86 1.29 29.86.23 5.88-.72 11.98 1.1 17.68 1.29 1.29 2.94 2.15 4.57 2.94 2.16.99 4.44 1.67 6.78 2.1-4.75 1.63-9.41 3.56-13.84 5.93.29 1.12.57 2.25.85 3.38 2.2 8.58 2.39 17.46 3.32 26.22.21 2.39.45 4.79.83 7.16.34 3.49.81 6.97 1.41 10.42.43.2 1.29.6 1.72.79 3.56 1.67 6.95 3.65 10.35 5.61 1.1.6 2.22 1.16 3.37 1.69 6.7 2.83 13.15 6.29 20.1 8.54 3.47 1.12 6.93 2.32 10.25 3.87 5.96 2.9 12.48 4.39 18.44 7.33 1.69.76 3.35 1.6 5.04 2.4 6.17 3.04 12.38 5.99 18.82 8.44 1.22.57 2.54.87 3.85 1.18 2.03.77 4 1.71 5.99 2.6 1.89.84 3.82 1.57 5.75 2.32 1.12.46 2.23.96 3.33 1.51v3.12c-7.39-3.16-14.7-6.54-22.35-9.05-10.28-3.55-19.36-9.82-29.74-13.08-6.19-1.9-11.85-5.12-17.99-7.13-13.12-4.43-25.31-11.07-37.56-17.4-2.42-1.27-2.64-4.27-3.05-6.66-1.4-12.05-2-24.19-3.81-36.19-8.18 17.52-19.71 33.4-33.52 46.92-1.84-.22-3.69-.43-5.52-.65.24-10.59-4.79-20.47-5.38-31-.53-8.53-1.58-17.02-2.79-25.48-1.63.85-3.28 1.67-4.94 2.46.12-1.48.29-2.95.49-4.41 1.56.12 3.12.26 4.68.41.34-10.38-.8-20.71-1.67-31.03-1.78 1.19-3.6 2.32-5.47 3.36-.47-.54-1.42-1.62-1.9-2.16 2.41-1.21 4.78-2.55 6.82-4.32.36-2.62-.29-5.23-.69-7.8-1.42-.23-2.84-.45-4.26-.65-1.35 4.41-1.97 8.99-2.08 13.59-.24 8.79-3.38 17.5-1.67 26.31.59 11.13.91 22.27 2.2 33.36-.7 0-2.1-.01-2.8-.01-.83-5.37-1.08-10.8-1.48-16.21-.67-9.77-1.69-19.56-1.04-29.36 1.2-10.79 2.37-21.59 3.97-32.34.39-5.16 1.93-10.56.25-15.62-.89-3.53-4.62-5.3-7.9-5.94-3.61.37-7.13 2.92-7.94 6.58-4.21 14.71-3.07 30.19-4.34 45.28.47 9.36-.98 18.64-.7 27.99-.05 6.88.15 13.76-.14 20.64-1.06-.05-2.12-.11-3.17-.16-.07-9.42-.52-18.89.32-28.29.67-9.15.26-18.36.21-27.53.28-5.59 1-11.16 1.31-16.75-.02-7.24 1.55-14.51.1-21.72-2.89-.63-6.61-.99-8.49 1.85-6.39 9.11-6.9 20.61-8.12 31.29-.43 11.23-1.13 22.45-1.94 33.66-.28 13.66.2 27.33-.25 40.99-1.62-.84-3.15-2.28-3.14-4.23-.38-5.58.2-11.18-.28-16.75-1.79-13.38-1.19-27 .35-40.34-2.51-.22-5-.57-7.5-.84-.83-1.3-1.65-2.6-2.47-3.89 1.15-1.13 2.32-2.25 3.52-3.34.36 1.44.69 2.89 1.01 4.35 1.78.51 3.54 1.06 5.3 1.63-.08-3.49.28-7.02-.28-10.48-1-1.98-3.98-2.03-5.26-.34-2.75 2.17-3.93 5.52-4.86 8.76-5.75 19.58-5.44 40.19-7.3 60.33-2.19 6.49-4.24 13.07-5.13 19.88-1.67 6.78-4.86 13.22-5.45 20.25-1.11 10.31-.41 20.69-.42 31.03.72 8.8.54 17.79 3.2 26.31 3.14 6.46 7.63 12.12 11.34 18.24-.2.68-.6 2.04-.81 2.72-4.36-5.4-8.03-11.32-11.57-17.28-2.73 5.3 1.28 10.43.39 15.85 1.73 2.46 3.89 4.91 4.02 8.08.34 5.63.75 11.61-1.49 16.93-1.93 3.99-7.17 3.42-10.86 3.28-5.38-.33-6.47-6.77-8.8-10.53-1.17 2.03-2.51 4.09-2.61 6.51-.73 12.28-1.06 24.6-.45 36.89h-2.95c-.12-10.92.1-21.84.14-32.76-5.99 7.9-10.4 16.84-16.22 24.86-1.85 2.53-3.44 5.23-5.07 7.9h-2.23c-.04-.45-.13-1.35-.18-1.8 2.86-5.76 7.48-10.39 10.52-16.05 6-9.12 11.17-18.75 17.2-27.85 4.34-6.81 11.19-11.41 15.94-17.89-7.75-1.49-14.81-5.24-21.58-9.14-6.76-4.76-12.86-10.41-18.58-16.36-4.43-4.61-10.51-7.05-15.13-11.43 1.26-.09 2.53-.19 3.79-.29 2.65 1.73 5.33 3.41 8.06 5.02 5.83 3.76 9.49 9.93 15.08 13.97 3.66 2.62 6.6 6.23 10.75 8.16 4.08 1.88 7.87 4.61 12.3 5.63 2.76-.85 3.79-4.02 4.69-6.48 1.91-8.11-1.03-16.29-1-24.46-.8-7.74-.24-15.54-1-23.29.06-5.55.69-11.08.74-16.62-3.3-6.29-6.84-12.83-7.28-20.08-.49-3.96-.98-7.97-2.51-11.68-2.03-4.34-.66-9.22-1.33-13.8-1.56-2.33-3.86-4.03-5.97-5.81.15-14-.67-28.06-3.06-41.87-.87-7.66.03-15.56-2.2-23.02-.26-1.03-.54-2.05-.83-3.07-2.56-.11-5.11-.15-7.67-.19.05 4.59-1 9.17-.31 13.75 3.46-2.74 1.88-7.41 2.22-11.19.61-.03 1.83-.07 2.44-.09.07 3.54.4 7.12-.09 10.65-1.34 1.61-3.24 2.59-4.88 3.85l-.12 1.97c-.2 2.9.25 5.82 1.75 8.35-1.11 1.21-2.88 2.22-2.45 4.14.07 15.94.3 32.07-3.03 47.74-2.37-2.5-1.9-6.06-1.37-9.14 2.9-14.7 1.26-29.75 1.95-44.61 1.13-8.81-.05-17.76 1.41-26.54 1.43-.91 3.01-1.54 4.55-2.24-.77-7.68-.75-16.12-5.14-22.79-2.19-.68-4.51-.53-6.76-.64 5.35 3.32 5.37 10.27 5.06 15.85-2.02.46-4.06.83-6.1 1.14.05 2.01 0 4.03.27 6.03.91 1.65 2.25 3.01 3.39 4.5-.79.21-2.36.64-3.15.85.59 7.9.09 15.82.24 23.73-.09 2.66 1.6 4.86 2.77 7.11-1.4-.19-2.79-.39-4.18-.61-.27 6.72 1.47 13.41.47 20.12-.97 6.87-1.4 13.88-3.58 20.51a141.68 141.68 0 0 0 -6.55 22.29c-.93 12.52.35 25.03.81 37.54-.98-.43-1.96-.86-2.95-1.28-1.01-5.15-2.59-10.23-4.79-15-2.46-4.44-5.07-8.8-7.05-13.47-3.75 2.23-7.16 4.94-10.53 7.68-4.56 3.66-10.5 4.57-15.94 6.21-11.7 3.44-24.46 3.43-35.33 9.49-7.77 4.47-15.55 9.11-24.16 11.8-2.56.78-5.09-.56-7.53-1.22-5.36 4.93-11.79 8.68-16.39 14.4-3.67 4.42-5.64 9.88-8.06 15.01-3.8 7.75-3.53 16.75-7.41 24.49v-9c2.01-5.26 2.31-11.06 4.86-16.13 2.3-4.65 4.21-9.55 7.23-13.8 5.14-6.9 12.49-11.66 18.05-18.18.91-.97 1.83-1.92 2.76-2.87 1.25 1.88 2.58 3.72 3.95 5.53 2.42-1.03 4.85-2.04 7.26-3.08 1.75-.76 3.49-1.51 5.24-2.27 1.16-.52 2.31-1.07 3.42-1.68 4.49-2.56 8.75-5.59 13.59-7.47 1.65-.67 3.32-1.27 5.02-1.76 4.85-1.21 9.75-2.15 14.63-3.2l.87-.21c2.66-.55 5.33-1.06 7.95-1.75 5.24-1.56 10.55-2.98 15.67-4.9 4.31-1.85 7.1-5.87 9.67-9.6-1.2.1-2.39.23-3.59.39-.5-.4-1.51-1.2-2.01-1.6 2.8-.58 5.58-1.32 8.25-2.37-.28 1.25.12 3.96 1.89 3.57 1.03-1.23-.22-2.86-.67-4.09 7.78-4 13.95-10.86 17.98-18.56 2.87-5.08 3.36-11 4.44-16.63 1.59-8 .43-16.19.91-24.28 1.47-16.33.31-32.74.8-49.1.6-5.38.97-10.88 2.73-16.03 2.01-5.5 1.06-11.47 1.28-17.2.46.15 1.39.44 1.85.59.56 5.1.25 10.25.25 15.37 2.51.86 5.75 1.45 6.79 4.29 3.2 6.99 3.75 14.88 3.98 22.47 2.46.64 5.02 1.74 6.24 4.13 1.61 4.48 1.57 9.28 2.21 13.94.67 3.85 5.13 4.75 8.42 4.91 9.03-.46 18.08-.23 27.13-.23 1.59-4.37 3.84-8.72 7.61-11.6 2.99-1.67 6.12.14 8.35 2.19.92-4.21 1.35-8.5 1.69-12.79.89-8.2 3.84-16.82 10.34-22.26 3.95-2.2 8.05.05 10.73 3.09 1.38-5.3 6.43-9.52 11.97-9.4 3.18.97 6.14 2.91 8.29 5.46 4.21 6.1 1.59 13.72.89 20.47 2.49.5 5.52.58 7.22 2.75.71 2.6.92 5.3 1.28 7.97 5.84-4.19 9.84-10.29 13.07-16.6 1.59-4.11 1.22-8.66 2.06-12.94l2.43-.28c-.46 6.33-.09 13.22-4.01 18.62-3.06 6.19-7.63 11.47-13.43 15.23.7 9.8 1.64 19.59 1.63 29.42 4.43-2.59 8.61-5.56 12.91-8.36 7.44-4.43 15.22-8.53 21.47-14.62 2.78-2.84 6.14-5.34 7.99-8.92.48-7.32 0-14.67.2-22-2.74-.25-5.45-.71-8.14-1.2-2.93-.55-6.25-.31-8.56-2.51-2.21-1.39-3.37-3.78-4.13-6.18 2.8.66 4.5 3.03 6.75 4.6 3.34 1.18 6.93 1.46 10.4 2.18 4.14.84 8.21-.83 11.86-2.62 3.61-2.37 5.85-6.18 8.41-9.54 3.5-4.91 7.83-9.4 9.94-15.16 1.79-5.39.38-11.12-1.43-16.3m-195.57 38.28c-.47 3.85-.15 7.77-1.11 11.56 1.06-.64 2.12-1.27 3.18-1.9-.19-3.3-.84-6.58-2.07-9.66m163.74 41.86c-6.9 6.78-15.72 11.05-23.85 16.12-4.03 2.69-8.12 5.28-12.16 7.96 1.57 6.63 1.47 13.5 2.89 20.15 3.04.04 6.57.97 7.51 4.3 2.62 9.3-4.05 18.28-1.9 27.69l-.04 2.44c5.94-4.47 10.53-10.37 15.01-16.22 4.9-5.94 9.08-12.43 12.92-19.09 4.34-7.33 6.77-15.62 8.33-23.93l.56-.64c.29-8.72 0-17.52-1.35-26.15-2.8 2.28-5.33 4.85-7.92 7.37m-141.52 2.18c.56 9.31 3.24 18.45 2.97 27.84-.16 3.41.62 6.74 1.06 10.1.51-5.39 1.34-10.81.26-16.2-.32-7.11 0-14.27-1.33-21.31-.99-.15-1.98-.3-2.96-.43m6.24 2.19c1.01 11.38.73 22.86 1.53 34.22 3.84 3.02 8.34 5.13 11.85 8.6 3.59-2.47 7.07-5.09 10.54-7.73-.05-11.89 3-23.44 4.23-35.21-9.39.17-18.77.02-28.15.12m-2.36 38.16c-.11 2.01-.36 4.05-.02 6.06 1.6 2.09 4 3.45 5.47 5.67.53 2.53.44 5.14.56 7.72 2.89-2.17 6.08-4.07 8.35-6.93-.99-3.16-4.76-3.01-7.27-4.26-3.74-1.34-4.55-5.64-7.09-8.26m4.18-.16c.07.88.22 2.63.29 3.51 3.15 2.21 6.72 3.92 10.5 4.71-2.92-3.53-6.84-6.01-10.79-8.22m12.29 7.94c2.96 1.45 6.17.21 9.26.04.06-2.15.08-4.31.11-6.45-3.4 1.7-6.5 3.93-9.37 6.41m89.19-3.29c-.41 1.32-1.31 2.56-1.21 4 1 4.68 2.12 9.33 2.97 14.04 2.22-5.52 3.38-11.65 1.58-17.45-1.12-.21-2.23-.4-3.34-.59m-85.58 7.01-3.45.39c1.24 4.41 2.88 9.21 6.92 11.82-.12-.45-.35-1.34-.46-1.79 2.15-3.45 2.06-7.52 1.82-11.42-1.61.34-3.22.66-4.83 1m-9.83 8.85c2.45.48 4.91.87 7.39 1.2-1-1.81-2.02-3.59-3.07-5.36-1.46 1.37-2.9 2.74-4.32 4.16m-2.67 6.11c1.18 6.21 2.07 12.48 2.86 18.76 3.99.44 9.13-1.61 8.85-6.33l.02.85c.71-3.17.74-6.46.04-9.63l-.04.89c-.13-3.15-1.69-7.54-5.52-7.24-2.43-.44-5.73-.4-6.21 2.7m-55.36 8.06c-1.04.54-2.08 1.09-3.11 1.64 2.49 6.22 4.46 13.14 9.64 17.74-.03-1.98.69-4.13-.12-6.01.77-6.59.14-13.27 1.21-19.84-2.6 2.08-5.11 4.28-7.62 6.47m59.66 13.68c.88 1.95 1.77 3.91 2.7 5.85.83-2.2 1.6-4.43 2.31-6.67-1.68.26-3.35.53-5.01.82m-1.25 96.04c-1.61 1.09-3.87 1.91-4.17 4.12-1.01 3.82-1.33 8.55 1.63 11.63 2.13 3.15 6.34 1.87 9.53 1.69l.82.22c2.36-5.46 2-11.47 1.71-17.27.11-2.54-2.05-4.14-3.47-5.93-2.15 1.66-4.74 3.05-6.05 5.54z" fill="#0d0502"/><path d="m340.71 196.37c.5.21 1.49.61 1.99.82 1.25 5.92 1.9 12.81-1.66 18.02-.52-.01-1.56-.02-2.07-.03 2.14-6.1 1.58-12.48 1.74-18.81z" fill="#1d0500"/><path d="m259.52 210.41c1.09-5 6.55-6.68 9.59-10.28.37.73 1.1 2.17 1.46 2.9-3.1 2.33-7.66 3.97-8.42 8.24-.56 1.96-1.19 3.9-1.85 5.83-2.99-1.19-1.5-4.48-.78-6.69z" fill="#0e0301"/><path d="m317.39 204.39c1-1.39 2.27-2.53 3.46-3.75.47.39 1.41 1.18 1.88 1.57a168.2 168.2 0 0 0 -2.87 3.73c.31 1.77.63 3.53.89 5.31-2.67 1.61-6.21 1.96-8.23 4.45 2.85.57 5.89.1 8.66 1.11 2.32 1.14 3.49 3.63 4.86 5.7-2.3 1.1-4.78 2.51-7.39 1.61 1.14-1.29 2.35-2.51 3.54-3.75-3.33-1.86-7.14-1.65-10.81-1.76-.47-1.93-.83-3.89-1.07-5.86 2.23-1.31 5.14-1.68 6.9-3.66.09-1.57 0-3.14.18-4.7zm-81.71 48.56c1.99-.89 4.17-1.12 5.99.3.26 4.03-4.43 1.13-5.99-.3zm-24.08 54.05c1.74-1.35 3.8-2.12 5.94-2.5-.06.8-.18 2.4-.23 3.2-1.95.26-3.91.16-5.71-.7z" fill="#0f0500"/><path d="m328.27 203.28c.72-.22 2.16-.65 2.88-.87.99 4.08 2.64 8.26 1.86 12.52-.95 2.81-2.57 5.33-3.94 7.95-.56-.31-1.69-.93-2.25-1.23.93-2.54 2.22-4.92 3.57-7.25.93-3.84-1.18-7.5-2.12-11.12z" fill="#0e0702"/><path d="m176.27 215.78c4.51-3.16 9.79-1.1 14.74-.77 6.74.95 13.5 1.75 20.31 1.69-1.65.72-3.35 1.53-5.2 1.33-6.07-.17-12.21.46-18.22-.7-3.92-.18-7.96.18-11.63-1.55z" fill="#e1e0df"/><path d="m172.05 214.93c2.35 1.67 4.12 4.59 7.27 4.7 9.79.73 19.61 1.46 29.43.82 3.86-.58 7.7-1.42 11.62-1.55-6.01 6.2-15.34 7.46-23.52 6.08-6.51-.3-13.02-.65-19.49-1.33-2.99-1.91-4.24-5.51-5.31-8.72zm163.32 86.67.15.87c.53 2.66.73 5.52 2.19 7.88 1.19 1.12 2.84 1.54 4.34 2.1.62 0 1.85-.01 2.47-.02l.74-.01c-3.67.49-7.67.65-10.19-2.55.06-2.76.02-5.52.3-8.27zm67.53 35.21c1.7.97 3.39 1.95 5 3.06-1.5-.21-3-.4-4.5-.58-.28 3.08-.24 6.22.6 9.22-.37.21-1.11.63-1.48.83-2.43-4-.85-8.46.38-12.53z" fill="#e3bb93"/><path d="m151.27 227.16c1.23 3.08 1.88 6.36 2.07 9.66-1.06.63-2.12 1.26-3.18 1.9.96-3.79.64-7.71 1.11-11.56z" fill="#d8cdc8"/><path d="m252.77 234.67c1.81 1.1 3.36 2.62 5.36 3.4 2.09.01 4.14-.5 6.22-.74-.21 1.06-.43 2.13-.67 3.19-4.06.32-8.43.57-11.44-2.69.13-.79.39-2.37.53-3.16z" fill="#110300"/><path d="m233.79 237.89c2.15-.14 2.62 1.8 3.24 3.42 2.27 0 4.55.03 6.82.02.04.63.13 1.89.17 2.52-3.09.05-6.17.04-9.25.11-.82-1.92-1.17-3.98-.98-6.07z" fill="#0d0602"/><path d="m160.52 250.6c2.56.04 5.11.08 7.67.19.29 1.02.57 2.04.83 3.07-.9-.18-1.8-.37-2.7-.55-.23 4.29-.01 8.7-1.19 12.88-.64 2.31-3.55 2.4-5.35 3.35l.12-1.97c1.64-1.26 3.54-2.24 4.88-3.85.49-3.53.16-7.11.09-10.65-.61.02-1.83.06-2.44.09-.34 3.78 1.24 8.45-2.22 11.19-.69-4.58.36-9.16.31-13.75z" fill="#f3ebd6"/><path d="m216.9 261.75c1.28-1.69 4.26-1.64 5.26.34.56 3.46.2 6.99.28 10.48-1.76-.57-3.52-1.12-5.3-1.63-.32-1.46-.65-2.91-1.01-4.35-1.2 1.09-2.37 2.21-3.52 3.34l-.57.58c.93-3.24 2.11-6.59 4.86-8.76zm171.85 59.37c1.37 1.71 2.34 3.71 2.74 5.88-.86-1.99-1.81-3.93-2.74-5.88zm-265.93 25.91c.3-.13.92-.39 1.22-.52.45 1.23 1.7 2.86.67 4.09-1.77.39-2.17-2.32-1.89-3.57z" fill="#f2e1ce"/><path d="m241.73 286.04c.2-6.47.14-12.98 1.31-19.38.05 9.17.46 18.38-.21 27.53-.35-2.02-.79-4.01-1.1-6.03z" fill="#f5ebe4"/><path d="m179.73 273.39c9.38-.1 18.76.05 28.15-.12-1.23 11.77-4.28 23.32-4.23 35.21-3.47 2.64-6.95 5.26-10.54 7.73-3.51-3.47-8.01-5.58-11.85-8.6-.8-11.36-.52-22.84-1.53-34.22z" fill="#f9dfbe"/><path d="m257.37 280.28c1.7-.4 4.92.18 2.42 2.14-3.77 1.04-7.72 3.01-11.44.62 2.31-2.49 5.95-2.08 9.02-2.76z" fill="#150701"/><path d="m234.41 286.32c2.42-.41 4.87-.6 7.32-.28v2.12c-2.3.7-4.67 1.12-7.04 1.5-.1-1.12-.19-2.23-.28-3.34z" fill="#180c00"/><path d="m331.64 287.62c3.36.33 6.71-.37 10.07-.11 5.92.89 10.97 4.34 16.53 6.34 3.81 1.44 7.81 2.52 11.34 4.63 7.02 4.26 13.42 9.44 20.54 13.53 4.01 2.19 6.39 6.2 9.64 9.24-2.22-1.22-4.5-2.35-6.66-3.68-.59-.4-1.17-.8-1.74-1.21-2.79-2.07-5.62-4.09-8.53-5.97-6.52-4.1-12.84-8.6-19.88-11.78-.95-.53-1.96-.9-3.02-1.11-2.58-.7-5.06-1.72-7.49-2.82-4.47-2.14-9.03-4.37-14.02-4.96-2.34-.43-4.62-1.11-6.78-2.1zm83.24 40.58c4.37 1.31 8.64 2.99 12.62 5.24 1.99 1.2 4.28 1.74 6.6 1.73.52 1.54 2.39 2.46 3.9 1.68v3.11c-2.56-1.16-5.08-2.38-7.6-3.61-1.33-.74-2.62-1.53-3.91-2.3-3.72-2.24-7.62-4.15-11.61-5.85z" fill="#310202"/><path d="m316.38 302.39c2.33-4.71 3.49-10.14 7.34-13.95-1.56 8.31-3.99 16.6-8.33 23.93-3.84 6.66-8.02 13.15-12.92 19.09-4.48 5.85-9.07 11.75-15.01 16.22l.04-2.44c4.16-7.78 11.34-13.29 16.24-20.57 5.65-6.54 8.79-14.65 12.64-22.28z" fill="#a5282b"/><path d="m324.58 295.65c4.43-2.37 9.09-4.3 13.84-5.93 4.99.59 9.55 2.82 14.02 4.96-1.42.96-2.84 1.92-4.27 2.87-1.36-3.68-4.91-6.02-8.85-5.24-3.81 1.61-5.77 5.66-7.19 9.31-.39-.45-1.17-1.37-1.56-1.82 1.25-2.17 2.49-4.34 3.7-6.53-3.29 1.33-6.36 3.2-8.84 5.76-.28-1.13-.56-2.26-.85-3.38z" fill="#e2c445"/><path d="m339.32 292.31c3.94-.78 7.49 1.56 8.85 5.24.2.37.58 1.11.77 1.49 1 2.71 1.15 5.62 1.25 8.49-.05.59-.14 1.78-.18 2.37-1.13 2.19-2.43 4.71-5.08 5.26-3.46.53-7.69.99-10.39-1.75-3.03-2.57-2.02-6.93-2.44-10.41.01-.35.02-1.03.03-1.38 1.42-3.65 3.38-7.7 7.19-9.31m-.17 3.01c-1.54 1.83-2.8 3.89-3.45 6.21l-.18.94-.15-.87c-.28 2.75-.24 5.51-.3 8.27 2.52 3.2 6.52 3.04 10.19 2.55l-.74.01c3.22-2.36 3.35-7.19 1.85-10.58l.11-.82a89.72 89.72 0 0 1 -2.95-5.57c-1.46-.03-2.92-.09-4.38-.14zm-121.22 51.1c2.06.3 2.83 1.91 2.7 3.82l-2.88.52c.04-1.45.1-2.9.18-4.34z" fill="#1a0800"/><path d="m325.43 299.03c2.48-2.56 5.55-4.43 8.84-5.76a420.44 420.44 0 0 1 -3.7 6.53c.39.45 1.17 1.37 1.56 1.82-.01.35-.02 1.03-.03 1.38-1.05 3.27-2.71 6.8-1.53 10.27 2.58 2.98 6.83 3.46 10.5 4.05.63 5.02 2.1 10.13 1.25 15.2-3.43 3.79-8.32 6.05-11.33 10.31-.6-3.45-1.07-6.93-1.41-10.42.18-4.03.17-8.07.16-12.11l-.63-.08c-.14 1.67-.29 3.35-.36 5.03-.93-8.76-1.12-17.64-3.32-26.22z" fill="#f6c310"/><path d="m348.17 297.55c1.43-.95 2.85-1.91 4.27-2.87 2.43 1.1 4.91 2.12 7.49 2.82-.87 1.99 2.14 2.75 3.02 1.11 7.04 3.18 13.36 7.68 19.88 11.78-.42 1.44-.81 2.88-1.2 4.33-5.65-4.03-12.91-4.38-19.59-4.45-3.37-.03-6.01 2.29-8.47 4.27-2.41 3.74-1.63 8.37-1.5 12.56-2.19 1.2-4.42 2.33-6.66 3.42-.51-4.41-.95-8.83-1.41-13.25 1.94-.73 3.85-1.57 5.75-2.42.08-1.65.15-3.3.26-4.95.04-.59.13-1.78.18-2.37 1.63-2.5 1.92-5.47 2-8.37l-3.25-.12c-.19-.38-.57-1.12-.77-1.49z" fill="#f4c316"/><path d="m335.7 301.53c1.43-1.62 2.93-3.16 4.4-4.73 2.1 1.44 4.22 2.86 6.38 4.23l-.11.82c-.25 1.68-.49 3.37-.72 5.07-1.86-1.42-3.73-2.81-5.61-4.18.1 1.87.22 3.74.34 5.62 1.17.38 2.35.76 3.53 1.14-.63.98-1.25 1.96-1.86 2.95-1.5-.56-3.15-.98-4.34-2.1-1.46-2.36-1.66-5.22-2.19-7.88z" fill="#f6c118"/><path d="m362.95 298.61c-.88 1.64-3.89.88-3.02-1.11 1.06.21 2.07.58 3.02 1.11z" fill="#cdb86f"/><path d="m348.94 299.04 3.25.12c-.08 2.9-.37 5.87-2 8.37-.1-2.87-.25-5.78-1.25-8.49z" fill="#e5c04c"/><path d="m346.37 301.85c1.5 3.39 1.37 8.22-1.85 10.58-.62.01-1.85.02-2.47.02.61-.99 1.23-1.97 1.86-2.95-1.18-.38-2.36-.76-3.53-1.14-.12-1.88-.24-3.75-.34-5.62 1.88 1.37 3.75 2.76 5.61 4.18.23-1.7.47-3.39.72-5.07z" fill="#fac547"/><path d="m353.57 314.54c2.46-1.98 5.1-4.3 8.47-4.27 6.68.07 13.94.42 19.59 4.45 1.96 1.41 3.87 2.9 5.67 4.53.5.6.99 1.22 1.45 1.87.93 1.95 1.88 3.89 2.74 5.88 1.18 5.96.93 12.1.72 18.14-1.47 2.95-4.49 4.56-7.27 6.04-4.78 1.1-9.71.89-14.56.86-4.54-1.2-9.29-3.11-11.62-7.48-.57-.96-1.1-1.94-1.59-2.93-1.43-3.02-2.33-6.25-3.11-9.49-.28-1.05-.57-2.09-.86-3.13-.21-4.82-.1-9.66.37-14.47m5.86-1.06c-4.74 3-3.46 8.85-3.65 13.59.23.22.71.67.95.89-.23 1.67-.59 3.44.23 5.02 1.8 4.13 3.4 8.42 5.87 12.21 3.76 4.25 9.99 4.15 15.21 4.15 4.42.16 9.05-1.96 11.46-5.7 1.05-6.05.83-12.63-2.62-17.93-1.57-6.69-8.67-9.75-14.51-11.89-4.3-.22-8.66-1.21-12.94-.34z" fill="#210409"/><path d="m381.63 314.72c.39-1.45.78-2.89 1.2-4.33 2.91 1.88 5.74 3.9 8.53 5.97-1.35.98-2.71 1.92-4.06 2.89-1.8-1.63-3.71-3.12-5.67-4.53z" fill="#f8bf1e"/><path d="m177.37 311.55c2.54 2.62 3.35 6.92 7.09 8.26 2.51 1.25 6.28 1.1 7.27 4.26-2.27 2.86-5.46 4.76-8.35 6.93-.12-2.58-.03-5.19-.56-7.72-1.47-2.22-3.87-3.58-5.47-5.67-.34-2.01-.09-4.05.02-6.06z" fill="#7c5c47"/><path d="m181.55 311.39c3.95 2.21 7.87 4.69 10.79 8.22-3.78-.79-7.35-2.5-10.5-4.71-.07-.88-.22-2.63-.29-3.51zm177.88 2.09c4.28-.87 8.64.12 12.94.34-.01 1 .03 2 .12 3 3.11 2.52 7.52 3.34 9.93 6.76 2.99 3.68 2.73 8.67 3.09 13.14-2.04 3.35-4.92 7.43-9.44 6.69-9.35-.18-13.31-9.96-19.34-15.45-.24-.22-.72-.67-.95-.89.19-4.74-1.09-10.59 3.65-13.59m-1.33 3.02c-.11 3.77 1.63 7.79 5.57 8.85.02-1.4.02-2.79 0-4.18.72-.44 1.44-.87 2.17-1.29-1.01-1.66-1.93-3.37-2.81-5.1-1.64.59-3.28 1.16-4.93 1.72m12.2 4.81c-4.22 1.7-6.89 6.84-4.71 11.12 1.71 5.19 7.51 7.19 12.5 7.28.6-.54 1.79-1.63 2.38-2.17l.88-.01c.28-3.02.8-6.13.11-9.13-1.69-4.42-6.46-7.39-11.16-7.09z" fill="#eae2eb"/><path d="m193.84 319.33c2.87-2.48 5.97-4.71 9.37-6.41-.03 2.14-.05 4.3-.11 6.45-3.09.17-6.3 1.41-9.26-.04z" fill="#d8ebe2"/><path d="m372.37 313.82c5.84 2.14 12.94 5.2 14.51 11.89-.14 4.18-.53 8.36-1.15 12.5-.05-.37-.16-1.12-.22-1.49-.36-4.47-.1-9.46-3.09-13.14-2.41-3.42-6.82-4.24-9.93-6.76-.09-1-.13-2-.12-3z" fill="#b02611"/><path d="m352.07 327.1c-.13-4.19-.91-8.82 1.5-12.56-.47 4.81-.58 9.65-.37 14.47-.28-.47-.85-1.43-1.13-1.91z" fill="#e5bd81"/><path d="m358.1 316.5c1.65-.56 3.29-1.13 4.93-1.72.88 1.73 1.8 3.44 2.81 5.1-.73.42-1.45.85-2.17 1.29.02 1.39.02 2.78 0 4.18-3.94-1.06-5.68-5.08-5.57-8.85zm-164.1 6.94 3.45-.39c.92 3.5 2.04 6.94 3.01 10.42.11.45.34 1.34.46 1.79-4.04-2.61-5.68-7.41-6.92-11.82z" fill="#b91d22"/><path d="m391.36 316.36c.57.41 1.15.81 1.74 1.21.13 4.14 1.06 8.2 2.08 12.2 1.84 7.22 2.43 14.67 3.02 22.07 1.44-.84 2.88-1.67 4.32-2.5.37-.2 1.11-.62 1.48-.83.6 1.09 1.26 2.16 1.96 3.2-2.55.9-5.09 1.82-7.63 2.74-.12 3.78.04 7.64 1.42 11.22.18.54.53 1.63.71 2.18 3.36.02 6.73.1 10.09.02.37-.01 1.11-.02 1.48-.03-4.36.57-8.62 2.02-11.77 5.22-1.69-.8-3.35-1.64-5.04-2.4.95-1.51 1.38-3.29 1.17-5.07-.87-11.26-2.04-22.5-2.87-33.76-.41 4.43-.63 8.9-1.31 13.31.21-6.04.46-12.18-.72-18.14-.4-2.17-1.37-4.17-2.74-5.88-.46-.65-.95-1.27-1.45-1.87 1.35-.97 2.71-1.91 4.06-2.89z" fill="#b88c0e"/><path d="m341.07 317.32c.73-.01 2.19-.04 2.93-.05.46 4.42.9 8.84 1.41 13.25 2.24-1.09 4.47-2.22 6.66-3.42.28.48.85 1.44 1.13 1.91.29 1.04.58 2.08.86 3.13-.97-.39-1.94-.77-2.9-1.15-6.29 4.01-12.4 8.28-18.45 12.63-.43-.19-1.29-.59-1.72-.79 3.01-4.26 7.9-6.52 11.33-10.31.85-5.07-.62-10.18-1.25-15.2z" fill="#b98404"/><path d="m393.1 317.57c2.16 1.33 4.44 2.46 6.66 3.68 4.81 2.78 9.85 5.16 15.12 6.95 3.99 1.7 7.89 3.61 11.61 5.85-3.34 4.5-7.9 8.1-13.46 9.33-1.76-1.1-3.45-2.31-5.13-3.51-1.61-1.11-3.3-2.09-5-3.06-1.23 4.07-2.81 8.53-.38 12.53-1.44.83-2.88 1.66-4.32 2.5-.59-7.4-1.18-14.85-3.02-22.07-1.02-4-1.95-8.06-2.08-12.2z" fill="#f8c20d"/><path d="m370.3 321.31c4.7-.3 9.47 2.67 11.16 7.09.69 3 .17 6.11-.11 9.13l-.88.01c-2.35.01-4.69.06-7.04.11 1.55.69 3.1 1.37 4.66 2.06-4.99-.09-10.79-2.09-12.5-7.28-2.18-4.28.49-9.42 4.71-11.12m-.11 3.4.07.76c-.62.4-1.86 1.21-2.48 1.61.11 1.85.09 3.73.52 5.54 1.26 1.5 2.82 2.71 4.32 3.96 2.4-1.17 5.06-1.48 7.7-1.57-.11-1.29-.23-2.58-.34-3.86-.73-.05-2.19-.14-2.92-.19 1.48-1.58 1.36-3.73 1.12-5.71-2.67-.2-5.33-.4-7.99-.54z" fill="#3b82bc"/><path d="m370.19 324.71c2.66.14 5.32.34 7.99.54.24 1.98.36 4.13-1.12 5.71-.37-.03-1.1-.08-1.47-.1-.18-1.25-.31-2.51-.44-3.76-.74.09-1.47.19-2.2.29-.62 1.64-1.26 3.28-1.91 4.92-.33-2.28-.54-4.56-.78-6.84z" fill="#3b7f37"/><path d="m386.88 325.71c3.45 5.3 3.67 11.88 2.62 17.93-2.41 3.74-7.04 5.86-11.46 5.7-5.22 0-11.45.1-15.21-4.15-2.47-3.79-4.07-8.08-5.87-12.21-.82-1.58-.46-3.35-.23-5.02 6.03 5.49 9.99 15.27 19.34 15.45 4.52.74 7.4-3.34 9.44-6.69.06.37.17 1.12.22 1.49.62-4.14 1.01-8.32 1.15-12.5z" fill="#c30f10"/><path d="m187.62 331.9c1.42-1.42 2.86-2.79 4.32-4.16 1.05 1.77 2.07 3.55 3.07 5.36-2.48-.33-4.94-.72-7.39-1.2z" fill="#666865"/><path d="m147.2 340.92c-.55-4.34.15-11.72 5.92-11.56-1.61 3.76-4.06 7.27-3.61 11.6z" fill="#100300"/><path d="m351.16 330.99c.96.38 1.93.76 2.9 1.15.78 3.24 1.68 6.47 3.11 9.49-4.93 2.09-9.59 4.75-14.11 7.6-3.4-1.96-6.79-3.94-10.35-5.61 6.05-4.35 12.16-8.62 18.45-12.63z" fill="#f7c113"/><path d="m392.21 345.14c.68-4.41.9-8.88 1.31-13.31.83 11.26 2 22.5 2.87 33.76.21 1.78-.22 3.56-1.17 5.07-5.96-2.94-12.48-4.43-18.44-7.33-3.32-1.55-6.78-2.75-10.25-3.87-6.95-2.25-13.4-5.71-20.1-8.54 3.59-3.01 7.75-5.29 12.33-6.36 2.33 4.37 7.08 6.28 11.62 7.48-.63.1-1.87.28-2.5.37 4.76.11 9.52.09 14.28.24.2 4.36-.72 9.27 2.21 12.96.69-4.78.66-9.62.57-14.43 2.78-1.48 5.8-3.09 7.27-6.04z" fill="#f7c114"/><path d="m426.49 334.05c1.29.77 2.58 1.56 3.91 2.3l-1.75 1.15c-3.86 2.53-7.12 5.81-10.61 8.79-1.68-.96-3.36-1.91-5.01-2.91 5.56-1.23 10.12-4.83 13.46-9.33z" fill="#a78c34"/><path d="m184.95 338.01c.48-3.1 3.78-3.14 6.21-2.7 3.83-.3 5.39 4.09 5.52 7.24-.04 2.62-.05 5.26-.02 7.89.28 4.72-4.86 6.77-8.85 6.33-.79-6.28-1.68-12.55-2.86-18.76z" fill="#f2c217"/><path d="m373.43 337.65c2.35-.05 4.69-.1 7.04-.11-.59.54-1.78 1.63-2.38 2.17-1.56-.69-3.11-1.37-4.66-2.06z" fill="#1f7edd"/><path d="m428.65 337.5 1.75-1.15c2.52 1.23 5.04 2.45 7.6 3.61v2.26c-2.77 1.74-5.61 3.37-8.38 5.1-.42-3.26-.82-6.53-.97-9.82z" fill="#eec430"/><path d="m418.04 346.29c3.49-2.98 6.75-6.26 10.61-8.79.15 3.29.55 6.56.97 9.82.19 1.71.31 3.44.51 5.16.23.18.7.54.93.72 2.29.69 4.62 1.21 6.94 1.82v2.94c-3.45-.95-6.98-1.58-10.47-2.33-.25-4.3-.61-8.59-1.22-12.85-2.63 2.42-5.37 4.73-8.16 6.97-4.09-2.6-8.35-4.92-12.68-7.08.74 2.67 1.26 5.56 3.11 7.73 2.3 2.79 5.49 4.6 8.04 7.13-4.72 1.99-10.12 3.21-13.04 7.86 4.78.31 9.36-1.58 14.13-1.28 2.96 2.63 4.83 6.23 7.31 9.29.24-3.67-.07-7.36.4-11.01 3.41-2.8 8.37-2.73 12.58-3.58v2.82c-1.74.37-3.5.62-5.25.91-1.32.21-2.63.4-3.95.57-1.27 4.77-.93 9.76-1.71 14.61l-2.8-.04a93.162 93.162 0 0 0 -8.18-11.16c-1.85.48-3.69.96-5.56 1.35-3.36.08-6.73 0-10.09-.02-.18-.55-.53-1.64-.71-2.18 2.9-3.64 5.95-7.31 10.32-9.22-1.4-1.56-2.81-3.1-4.11-4.74a42.16 42.16 0 0 1 -1.96-3.2c-.84-3-.88-6.14-.6-9.22 1.5.18 3 .37 4.5.58 1.68 1.2 3.37 2.41 5.13 3.51 1.65 1 3.33 1.95 5.01 2.91z" fill="#140705"/><path d="m129.59 346.07c2.51-2.19 5.02-4.39 7.62-6.47-1.07 6.57-.44 13.25-1.21 19.84-2.91-4.04-5.19-8.51-6.41-13.37z" fill="#686c4d"/><path d="m196.68 342.55.04-.89c.7 3.17.67 6.46-.04 9.63l-.02-.85c-.03-2.63-.02-5.27.02-7.89zm208.79.12c4.33 2.16 8.59 4.48 12.68 7.08 2.79-2.24 5.53-4.55 8.16-6.97.61 4.26.97 8.55 1.22 12.85 3.49.75 7.02 1.38 10.47 2.33v.85c-4.21.85-9.17.78-12.58 3.58-.47 3.65-.16 7.34-.4 11.01-2.48-3.06-4.35-6.66-7.31-9.29-4.77-.3-9.35 1.59-14.13 1.28 2.92-4.65 8.32-5.87 13.04-7.86-2.55-2.53-5.74-4.34-8.04-7.13-1.85-2.17-2.37-5.06-3.11-7.73z" fill="silver"/><path d="m343.06 349.23c4.52-2.85 9.18-5.51 14.11-7.6.49.99 1.02 1.97 1.59 2.93-4.58 1.07-8.74 3.35-12.33 6.36-1.15-.53-2.27-1.09-3.37-1.69z" fill="#b48100"/><path d="m241.21 343.19c.59-.03 1.76-.08 2.35-.1.28 4.39 1.21 8.77.65 13.19-.52-.2-1.56-.61-2.08-.82-.9-4-.98-8.18-.92-12.27z" fill="#1e0e00"/><path d="m429.62 347.32c2.77-1.73 5.61-3.36 8.38-5.1v2.89c-3.01 2.05-6.1 4.3-6.94 8.09-.23-.18-.7-.54-.93-.72-.2-1.72-.32-3.45-.51-5.16z" fill="#bc8d03"/><path d="m264.55 343.97 2.84.68c.66 4.86 2.55 11.45-2.41 14.71-.42-1.69-.3-3.41.17-5.07 1.07-3.42-.82-6.84-.6-10.32z" fill="#1a0f0b"/><path d="m126.48 347.71c1.03-.55 2.07-1.1 3.11-1.64 1.22 4.86 3.5 9.33 6.41 13.37.81 1.88.09 4.03.12 6.01-5.18-4.6-7.15-11.52-9.64-17.74z" fill="#9f2f2f"/><path d="m431.06 353.2c.84-3.79 3.93-6.04 6.94-8.09v9.91c-2.32-.61-4.65-1.13-6.94-1.82z" fill="#fdbe10"/><path d="m92.24 357.16c6.85-.82 11.37-6.81 18.02-8.13-.17 1.84 2.34 1.5 2.7.1.4.06 1.21.2 1.61.27.5.4 1.51 1.2 2.01 1.6-4.01 1.74-7.04 5.66-11.61 6-3.62.27-7.17 1.02-10.55 2.32-1.23.38-2.47.74-3.72 1.06-2.28.49-4.57.92-6.85 1.36-2.61.45-5.2.94-7.79 1.46-.72.16-2.17.49-2.89.65-2.79.67-5.57 1.37-8.35 2.05-1.52.38-3.03.79-4.54 1.21-2.4.67-4.78 1.39-7.21 1.91-.96.21-1.92.43-2.87.67-1.44.37-2.87.79-4.3 1.21-.57.18-1.7.52-2.26.7-4.61 1.31-9.24 2.91-12.95 6.05.73 1.11 1.47 2.23 2.21 3.35-.93.95-1.85 1.9-2.76 2.87-.45-2.52-.91-5.02-1.3-7.54 7.54-4.49 15.53-8.42 24.22-10.08 1.5.49 3.1.03 4.07-1.22 8.77-2.52 17.69-4.35 26.66-5.96 2.84-.52 5.66-1.15 8.45-1.91m11.12-2.53c2.18-.39 4.44-.93 5.93-2.7-2.24.22-4.23 1.27-5.93 2.7z" fill="#220502"/><path d="m110.26 349.03c.68.03 2.02.07 2.7.1-.36 1.4-2.87 1.74-2.7-.1z" fill="#985d55"/><path d="m284.46 348.99c1.83.22 3.68.43 5.52.65-2.55 2.47-3.98 5.9-3.45 9.47 1.13 14.15 1.57 28.82-3.07 42.43-4.1 7.41-9.12 14.35-12.22 22.3 4.98 3.68 8.73 8.64 12.36 13.58 4.84 6.84 12.23 11.11 18.23 16.79 4.61 4.08 7.75 9.5 12.23 13.71 4.87 4.74 11.13 7.59 16.62 11.5 7.91 5.8 15.65 11.89 24.14 16.85 4.28 2.54 8.27 5.74 13.03 7.35 2.28-.79 3.65-2.96 4.81-4.94 3.84-6.88 5.45-14.74 9.43-21.56 4.03-8.64 10.15-16.04 14.66-24.39 2.3-4.03 4.07-8.71 8.32-11.1-2.7 10.21-9.32 18.73-15.02 27.44-4.21 6.8-8.02 13.91-10.51 21.54-1.7 5.18-4.41 9.95-7.41 14.48 5.43.1 10.66 1.63 15.56 3.91h-10.79c.03-1.81-3.03-2.05-2.51 0h-4.66c-14.45-8.94-28.86-17.98-42.31-28.39-4.14-3-8.75-5.25-12.92-8.2-.47-.42-1.4-1.27-1.86-1.69-3.75-3.74-6.96-7.96-10.43-11.93-4.99-5.78-12.22-9.03-17.1-14.9-3.86-4.6-7.32-9.53-11.29-14.03-5.26 3.53-10.47 7.22-16.41 9.53-7.69 3.01-14.31 8.21-22.18 10.78-9.67 3.21-18.79 7.82-27.69 12.73 4.16 10.4 10.75 19.53 16.33 29.17 3.38 6 8.14 11.05 11.7 16.93h-3.14c-5.36-6.29-9.93-13.2-14.04-20.35-4.68-8.07-10.45-15.65-13.46-24.57-1.81-5.08 1.42-9.96 2.54-14.81.21-.68.61-2.04.81-2.72 1.76 3.28 2.99 6.8 4.32 10.27 5.93-2.45 11.47-5.82 17.64-7.66 5.73-1.88 11.28-4.28 16.35-7.56 6.83-4.36 15.36-5.8 21.26-11.6.9-2.77.15-5.9 1.51-8.57 3.01-6.98 7.28-13.32 11.23-19.78 2.29-5.27 2.25-11.18 3.54-16.72.5-8.3.54-16.68-.31-24.96-.3-3.68.46-7.32.64-10.98z" fill="#020601"/><path d="m116.58 351c1.2-.16 2.39-.29 3.59-.39-2.57 3.73-5.36 7.75-9.67 9.6-5.12 1.92-10.43 3.34-15.67 4.9-.14-1.93-.28-3.86-.41-5.79 3.38-1.3 6.93-2.05 10.55-2.32 4.57-.34 7.6-4.26 11.61-6z" fill="#ecc030"/><path d="m370.38 352.04c4.85.03 9.78.24 14.56-.86.09 4.81.12 9.65-.57 14.43-2.93-3.69-2.01-8.6-2.21-12.96-4.76-.15-9.52-.13-14.28-.24.63-.09 1.87-.27 2.5-.37z" fill="#b88801"/><path d="m398.33 354.45c2.54-.92 5.08-1.84 7.63-2.74 1.3 1.64 2.71 3.18 4.11 4.74-4.37 1.91-7.42 5.58-10.32 9.22-1.38-3.58-1.54-7.44-1.42-11.22z" fill="#f4bf20"/><path d="m83.79 359.07c2.74-.95 5.56-1.63 8.45-1.91-2.79.76-5.61 1.39-8.45 1.91z" fill="#9f3243"/><path d="m189.25 359.75c1.66-.29 3.33-.56 5.01-.82-.71 2.24-1.48 4.47-2.31 6.67-.93-1.94-1.82-3.9-2.7-5.85z" fill="#505e57"/><path d="m90.7 360.38c1.25-.32 2.49-.68 3.72-1.06.13 1.93.27 3.86.41 5.79-2.62.69-5.29 1.2-7.95 1.75 1.14-.45 2.26-.93 3.39-1.41.14-1.69.29-3.38.43-5.07z" fill="#e4c223"/><path d="m83.85 361.74c2.28-.44 4.57-.87 6.85-1.36-.14 1.69-.29 3.38-.43 5.07-1.13.48-2.25.96-3.39 1.41l-.87.21c.59-1.83 1.19-3.65 1.78-5.47-1.32.02-2.63.07-3.94.14z" fill="#ba9219"/><path d="m76.06 363.2c2.59-.52 5.18-1.01 7.79-1.46 1.31-.07 2.62-.12 3.94-.14-.59 1.82-1.19 3.64-1.78 5.47-4.88 1.05-9.78 1.99-14.63 3.2-2.16-1.5-4.35-2.94-6.56-4.37 2.78-.68 5.56-1.38 8.35-2.05.6 1.2.92 2.66 1.99 3.56 1.43-.08 2.84-.38 4.25-.61-1.11-1.21-2.23-2.41-3.35-3.6z" fill="#ebc52b"/><path d="m432.75 362.54c1.75-.29 3.51-.54 5.25-.91v27.48c-1.1-.55-2.21-1.05-3.33-1.51.13-8.38.27-16.89-1.92-25.06z" fill="#f6c21e"/><path d="m73.17 363.85c.72-.16 2.17-.49 2.89-.65 1.12 1.19 2.24 2.39 3.35 3.6-1.41.23-2.82.53-4.25.61-1.07-.9-1.39-2.36-1.99-3.56z" fill="#b78e0a"/><path d="m428.8 363.11c1.32-.17 2.63-.36 3.95-.57 2.19 8.17 2.05 16.68 1.92 25.06-1.93-.75-3.86-1.48-5.75-2.32l2.84-.4c.04-5.62.26-11.26-.49-16.84-.1-1.94-1.39-3.44-2.47-4.93z" fill="#b88902"/><path d="m427.09 377.72c.78-4.85.44-9.84 1.71-14.61 1.08 1.49 2.37 2.99 2.47 4.93.75 5.58.53 11.22.49 16.84l-2.84.4c-1.99-.89-3.96-1.83-5.99-2.6.62-2.43-2.64-2.64-3.85-1.18-6.44-2.45-12.65-5.4-18.82-8.44 3.15-3.2 7.41-4.65 11.77-5.22-.37.01-1.11.02-1.48.03 1.87-.39 3.71-.87 5.56-1.35 3 3.51 5.73 7.24 8.18 11.16z" fill="#f3c121"/><path d="m53.06 366.25c.91-1.36 2.57-1.77 4.07-1.22-.97 1.25-2.57 1.71-4.07 1.22z" fill="#934c55"/><path d="m60.28 367.11c1.51-.42 3.02-.83 4.54-1.21 2.21 1.43 4.4 2.87 6.56 4.37-1.7.49-3.37 1.09-5.02 1.76-.07-.29-.2-.88-.27-1.17-1.96-1.22-3.9-2.46-5.81-3.75z" fill="#c1921e"/><path d="m53.07 369.02c2.43-.52 4.81-1.24 7.21-1.91 1.91 1.29 3.85 2.53 5.81 3.75.07.29.2.88.27 1.17-4.84 1.88-9.1 4.91-13.59 7.47 0-3.49.13-6.99.3-10.48z" fill="#f1c420"/><path d="m50.2 369.69c.95-.24 1.91-.46 2.87-.67-.17 3.49-.3 6.99-.3 10.48-1.11.61-2.26 1.16-3.42 1.68.4-3.82.71-7.65.85-11.49z" fill="#b68a07"/><path d="m45.9 370.9c1.43-.42 2.86-.84 4.3-1.21-.14 3.84-.45 7.67-.85 11.49-1.75.76-3.49 1.51-5.24 2.27.17-4.24.81-8.43 1.79-12.55z" fill="#f0c12f"/><path d="m43.64 371.6c.56-.18 1.69-.52 2.26-.7-.98 4.12-1.62 8.31-1.79 12.55-1.43-.05-2.85-.12-4.28-.19.67-2.83 1.32-5.66 2.25-8.41.49-1.1 1.03-2.18 1.56-3.25z" fill="#c18c02"/><path d="m318.58 373.63c2.08-1.44 4.99-.67 7.42-.92 11.52.34 23.08-.43 34.58.39.11 5.12.16 10.25-.09 15.37-6.78.89-13.61.8-20.41 1.31 1.28 3.62 2.75 7.17 4.39 10.65 4.54.76 9.09 1.5 13.62 2.35-2.12 4.05-6.65 5.73-10.18 8.26 1.64 4.75 4.58 9.83 2.38 14.91-4.23-2.48-8-5.63-11.65-8.88-5.72 3.32-10.81 8.71-17.72 9.2.35-6.05 3.82-11.17 6.74-16.26-4.69-3.21-11.17-4.57-13.93-10 6.02-.67 12.12-.27 18.09-1.44.82-2.8 1.65-5.59 2.44-8.4-5.44-.52-10.9-.75-16.36-1.01.01-5.16-.99-10.55.68-15.53m1.77 1.74c-.04 3.73-.04 7.46.01 11.19 3.64.1 7.35.76 10.96-.01 8.84.66 17.77.54 26.59-.37.23-3.37.36-6.74.55-10.11-3.73-1.03-7.64-.84-11.47-.79-8.88.19-17.76-.15-26.64.09m13.81 25.87c-4.8.09-9.57.84-14.37 1.04 4 2.22 7.95 4.55 12.29 6.04-.64 1.52-1.39 3-1.96 4.55-2.96 2.21-3.88 5.94-5.12 9.23 3.98-1.93 7.74-4.31 11.05-7.26 1.19-.42 2.34-.98 3.5-1.5 2.25 2.98 5.13 5.42 8.41 7.21-.88-3.65-2.34-7.11-3.57-10.64 2.66-1.59 5.33-3.18 7.88-4.96-1.37-.42-2.72-.88-4.12-1.11-2-.27-4.02-.39-6-.76-1.23-3.9-3.09-7.56-4.74-11.29-1.44 3.02-2.48 6.2-3.25 9.45z" fill="#100503"/><path d="m33.86 378.11c1.65-2.93 5.34-2.79 8.22-3.26-.93 2.75-1.58 5.58-2.25 8.41-3.13.16-5.7-2.02-5.97-5.15z" fill="#fabe0f"/><path d="m320.35 375.37c8.88-.24 17.76.1 26.64-.09 3.83-.05 7.74-.24 11.47.79-12.55-.48-25.12.07-37.69-.26 0 3.43.02 6.86.05 10.3 2.45-.11 4.9-.21 7.36-.32-1.97-.44-3.94-.87-5.91-1.3.02-2.35.05-4.71.08-7.06 11.22-.83 22.5-.41 33.74-.16-.05 2.43-.11 4.87-.17 7.32-8.18 1.08-16.62-.45-24.6 1.96-3.61.77-7.32.11-10.96.01-.05-3.73-.05-7.46-.01-11.19z" fill="#c90804"/><path d="m320.77 375.81c12.57.33 25.14-.22 37.69.26-.19 3.37-.32 6.74-.55 10.11-8.82.91-17.75 1.03-26.59.37 7.98-2.41 16.42-.88 24.6-1.96.06-2.45.12-4.89.17-7.32-11.24-.25-22.52-.67-33.74.16-.03 2.35-.06 4.71-.08 7.06 1.97.43 3.94.86 5.91 1.3-2.46.11-4.91.21-7.36.32-.03-3.44-.05-6.87-.05-10.3z" fill="#a41924"/><path d="m137.19 381.59c.99.42 1.97.85 2.95 1.28.28 8.46 1.71 16.85 1.61 25.32-1.26.1-2.53.2-3.79.29-.46.02-1.4.07-1.86.1-4.71 8.14-11.14 15.17-18.34 21.18-5.14 4.88-10.37 9.75-16.44 13.48-6.25 3.75-12.09 8.21-18.76 11.23-1.3.62-2.61 1.22-3.92 1.81-7.38 3.08-14.5 6.75-21.16 11.16-11 6.3-22.29 12.11-33.98 17.03-7.88 3.53-15.52 7.56-23.5 10.87v-2.97c13.62-6.55 27.5-12.56 41.05-19.26 9.51-4.56 18.1-10.77 27.57-15.4 7.18-3.49 14.85-6.05 21.49-10.59 5.87-4.07 12.17-7.6 17.43-12.5 7.35-6.67 15.45-12.63 21.57-20.53 3.22-4.28 4.46-10.2 9.62-12.78-.61-6.57-1.01-13.15-1.54-19.72z" fill="#010701"/><path d="m419.08 381.5c1.21-1.46 4.47-1.25 3.85 1.18-1.31-.31-2.63-.61-3.85-1.18z" fill="#ddc589"/><path d="m334.16 401.24c1.15-1.24 2.29-2.49 3.42-3.75 1.34 2 2.75 3.98 4.57 5.59 1.98.37 4 .49 6 .76-1.51.03-3.02.1-4.52.2 1.35.51 2.71 1.02 4.08 1.52-3.18 2.06-5.89 4.75-8.16 7.78-1.16.52-2.31 1.08-3.5 1.5-2.11.68-4.23 1.31-6.33 1.96.11-1.31.25-2.63.4-3.93.57-1.55 1.32-3.03 1.96-4.55-4.34-1.49-8.29-3.82-12.29-6.04 4.8-.2 9.57-.95 14.37-1.04z" fill="#f4c219"/><path d="m343.63 404.04c1.5-.1 3.01-.17 4.52-.2 1.4.23 2.75.69 4.12 1.11-2.55 1.78-5.22 3.37-7.88 4.96 1.23 3.53 2.69 6.99 3.57 10.64-3.28-1.79-6.16-4.23-8.41-7.21 2.27-3.03 4.98-5.72 8.16-7.78-1.37-.5-2.73-1.01-4.08-1.52z" fill="#dcc030"/><path d="m188 455.79c1.31-2.49 3.9-3.88 6.05-5.54 1.42 1.79 3.58 3.39 3.47 5.93.29 5.8.65 11.81-1.71 17.27l-.82-.22c-2.94-.78-6.12-1.6-8.14-4.07-1.04-1.34-2.77-2.84-2.17-4.72.71-3.02 2.04-5.84 3.32-8.65z" fill="#f6c115"/><path d="m78.64 456.28c1.31-.59 2.62-1.19 3.92-1.81 7.72 10.77 17.25 20.31 28.25 27.73 5.13 3.46 9.17 8.3 14.5 11.49 3.12 1.88 6.26 3.75 9.43 5.57 4.85 2.83 10.58 4.14 14.85 7.94.05.45.14 1.35.18 1.8h-5.18c-7.15-3.13-13.67-7.47-20.58-11.06-4.7-2.37-8-6.58-12.12-9.73-7.98-5.96-16.01-12-22.83-19.3-3.75-3.98-6.91-8.46-10.42-12.63z" fill="#a22827"/><path d="m304.44 477.45c2.48-2.54 5.25-4.76 8.2-6.73.46.42 1.39 1.27 1.86 1.69-3.18 4.13-6.65 8.06-10.74 11.3-6.53 5.16-12.82 10.63-19.72 15.29-4.59 3.1-8.95 6.51-13.24 10h-11.71c5.82-2.57 11.68-5.29 16.68-9.3 9.48-7.51 20.22-13.48 28.67-22.25z" fill="#9a2e27"/><path d="m157.07 501.1c5.82-8.02 10.23-16.96 16.22-24.86-.04 10.92-.26 21.84-.14 32.76h-21.15c1.63-2.67 3.22-5.37 5.07-7.9z" fill="#606d54"/><path d="m187.78 498.74c2.68-2.6 6.98-1.04 9.63.83 3.18 2.04 2.97 6.13 3.33 9.43h-2.68c-.59-3.07-.86-7.45-4.51-8.41-5.24-1.23-7.69 5.04-10.29 8.41h-2.94c2.23-3.58 4.23-7.44 7.46-10.26z" fill="#120b03"/><path d="m183.26 509c2.6-3.37 5.05-9.64 10.29-8.41 3.65.96 3.92 5.34 4.51 8.41h-.99c-1.12-2-2.02-4.14-3.49-5.9-4.29-1.27-6.49 3.05-8.56 5.9z" fill="#d6b848"/><path d="m185.02 509c2.07-2.85 4.27-7.17 8.56-5.9 1.47 1.76 2.37 3.9 3.49 5.9z" fill="#f6c10b"/><path d="m374.39 509c-.52-2.05 2.54-1.81 2.51 0z" fill="#505250"/></svg>