<svg shape-rendering="crispEdges" viewBox="0 -.5 31 43" xmlns="http://www.w3.org/2000/svg"><path d="m18 0h2m-5 1h3m1 0h1m-9 1h4m4 0h1m-12 1h3m7 0h3m2 0h3m-19 1h2m11 0h3m2 0h1m-20 1h1m17 0h1m-19 1h1m16 0h2m-20 1h1m4 0h4m6 0h1m1 0h5m-22 1h1m7 0h2m3 0h2m6 0h1m-23 1h1m7 0h1m2 0h1m1 0h1m2 0h1m4 0h1m-24 1h2m4 0h1m2 0h1m4 0h2m3 0h1m2 0h2m-24 1h1m3 0h2m7 0h1m1 0h1m2 0h1m1 0h3m-22 1h4m5 0h1m5 0h1m2 0h2m-18 1h2m3 0h1m2 0h3m7 0h1m-20 1h1m1 0h2m2 0h1m12 0h1m-21 1h2m2 0h1m1 0h1m2 0h2m1 0h1m6 0h2m-24 1h3m5 0h2m1 0h1m1 0h5m1 0h1m1 0h1m1 0h2m-25 1h1m3 0h1m6 0h1m2 0h1m1 0h5m3 0h1m-24 1h3m8 0h1m3 0h1m1 0h1m2 0h1m1 0h1m-22 1h1m2 0h5m1 0h4m5 0h3m-21 1h1m1 0h4m1 0h4m2 0h2m1 0h2m1 0h1m-19 1h3m1 0h6m1 0h1m1 0h1m1 0h3m2 0h7m-27 1h5m1 0h10m1 0h3m1 0h1m1 0h1m1 0h3m-28 1h2m4 0h1m1 0h1m1 0h1m1 0h1m1 0h7m2 0h1m1 0h1m1 0h1m-28 1h3m2 0h3m7 0h1m2 0h3m6 0h1m-28 1h2m3 0h3m7 0h1m2 0h1m1 0h1m6 0h1m-28 1h2m3 0h1m1 0h1m6 0h1m1 0h1m2 0h2m-22 1h4m2 0h3m5 0h1m2 0h1m2 0h1m1 0h2m2 0h2m-28 1h4m3 0h4m2 0h2m1 0h2m3 0h5m-27 1h5m4 0h1m1 0h3m2 0h4m4 0h2m-27 1h6m5 0h1m1 0h1m7 0h4m-25 1h1m2 0h4m3 0h1m1 0h1m5 0h1m4 0h1m-23 1h1m3 0h3m3 0h2m5 0h1m4 0h1m-22 1h2m5 0h3m6 0h1m3 0h2m-20 1h7m6 0h1m3 0h2m-14 1h1m6 0h5m-12 1h1m4 0h5m-10 1h13m-14 1h15m-15 1h8m2 0h5m-15 1h9m-9 1h1m2 0h5m-7 1h1" stroke="#002a1e"/><path d="m18 1h1m-4 1h4m-8 1h7m-9 1h11m3 0h2m-18 1h17m-17 1h16m-17 1h4m4 0h6m1 0h1m-16 1h7m2 0h3m2 0h6m-21 1h7m9 0h4m-21 1h4m1 0h2m11 0h2m-21 1h3m2 0h3m-4 1h4m-4 1h3m-5 1h1m2 0h2m-5 1h2m1 0h1m1 0h1m-8 1h5m2 0h1m11 0h1m-22 1h3m1 0h6m10 0h3m-20 1h2m3 0h3m10 0h1m-20 1h2m5 0h1m3 11h7m-8 1h5m1 0h4m-10 1h5m1 0h4m-11 1h6m2 0h2m-11 1h6m-7 1h6" stroke="#9c2c7d"/><path d="m13 9h2m4 0h1m-8 1h4m2 0h3m-9 1h3m3 0h2m-7 1h3m3 0h2m-7 3h1m1 0h1m1 1h1m1 0h1m-6 1h1m1 1h1m1 0h1m-12 2h1m11 0h1m-15 1h1m12 1h1m3 0h1m-19 1h1m4 0h1m11 2h1m-14 1h1m8 0h1m-2 1h2m4 0h1m-7 1h1m-7 1h1m4 10h2m0 1h5m-14 1h2m0 1h5" stroke="#fcbe49"/><path d="m16 9h1m-6 2h1m-1 1h1m5 0h1m-7 1h2m3 0h6m-11 1h1m1 0h6m1 0h2m-11 1h1m5 0h4m-9 1h1m0 1h1m0 1h2m0 1h3m6 3h1m-19 1h1m4 0h1m1 0h1m1 0h1m8 0h1m1 0h1m1 0h1m-24 1h2m3 0h6m3 0h1m3 0h6m-24 1h2m3 0h6m3 0h1m3 0h6m-24 1h2m3 0h6m3 0h2m3 0h5m-24 1h2m4 0h4m4 0h2m-16 1h3m12 0h2m-17 1h3m13 0h2m-17 1h4" stroke="#fb9bdf"/><path d="m18 9h1m-7 5h1" stroke="#000"/><path d="m16 11h1m4 0h1m-6 1h1m5 1h1m-4 1h1m2 0h1m-2 1h1m-10 2h1m7 1h1m-6 1h1m-3 1h1m-1 1h1m3 0h1m9 1h1m-4 1h1m-8 1h1m-13 1h1m11 0h1m1 0h1m-15 1h1m18 0h1m5 0h1m-5 1h2m-19 2h1m14 0h1m-24 2h1m9 0h1m-10 1h2m5 0h2m-6 1h4" stroke="#b13bd8"/><path d="m6 18h3m4 0h1m5 1h1m-17 1h1m10 0h1m2 0h1m-3 1h1m-8 1h1m-3 1h1m1 0h1m10 1h1m-9 3h1m1 1h2m5 0h1m-6 1h2m4 0h1m-16 1h1m5 0h1m-11 1h1m4 0h3m-6 1h1m3 0h1m-5 1h1m14 0h1m-2 1h3m-11 2h4m3 4h1m-8 2h1" stroke="#7437ac"/></svg>