<svg height="232" viewBox="0 0 145 174" width="145pt" xmlns="http://www.w3.org/2000/svg"><path d="m52.64 10.21c4.36-3.44 10.25-1.85 15.36-2.24 4.71-.43 9.35 1.21 13.23 3.79 2.02 2.09 3.38 4.71 5.01 7.1 3.65 5.31 4.45 11.93 4.83 18.2 2.64.03 5.28-.08 7.91.21 1.78 1.5 3.24 3.35 4.62 5.22.95.54 1.98.98 2.77 1.76-.49 2.44-1.35 4.78-2.17 7.11-1.55 1.4-2.83 3.06-4.31 4.53-1.93 1.31-4.57 1.13-6.38 2.59-1.19 4.78-1.2 9.92-3.57 14.36.78-4.72 2.02-9.37 2.63-14.12-.44-.27-1.31-.79-1.75-1.06-.9 9.97-4.43 19.4-6.65 29.07 3.53-3.72 3.58-9.39 5.77-13.89-1.1 4.88-2.9 9.59-3.79 14.52 2.07 1.62 4.14 3.25 5.94 5.17 3.26-.05 6.52-2.66 9.52-.29.1 1.34.18 2.69.27 4.04-.38.88-.76 1.76-1.14 2.65-2.92.93-5.92 1.61-8.91 2.25 2.48 2.76 4.81 5.66 6.68 8.87 2.11-.47 4.22-.91 6.34-1.25.48-1.45.96-2.89 1.46-4.33 4.91-4.24 6.42-11.05 9.72-16.48 2.12-3.05 1.9-8.83 6.61-9.05 1.02-6.33 4.62-12.37 3.22-18.96-.92-3.57-.71-7.26-1.15-10.88-1.4-5.45-.15-11.13-1.2-16.64 2.04.07 4.08.17 6.12.34.78 1.99 1.68 3.94 2.75 5.79-3.57 2.86-2.66 7.06-1.8 10.91l.49.19c3.43-.62 7.15-1.09 10.23.98.51 2.71.59 5.59 2.18 7.97-3.02-.63-5.66-2.26-8.37-3.63-1.93 2.6-3.88 5.77-7.42 6.21 1.51-1.52 3.11-2.95 4.73-4.35-.07-.6-.19-1.8-.25-2.4 1.63-.27 3.25-.56 4.88-.85-.3-1.17-.6-2.35-.9-3.53-1.99.47-3.96 1.02-5.91 1.63.14 1.67.29 3.35.44 5.03l-1.44.24c-.25-6.56.4-13.29-1.35-19.69-.4-1.96-1.81-3.4-3.4-4.5-.88 11.13 2.51 22.1 1.95 33.24-.18 4.1-1.99 7.87-2.91 11.82-.54 5.75-.09 11.54.03 17.31 2.36-7.42 5.08-14.73 7.03-22.28 4.63-1.36 7.35-5.49 8.03-10.1-.65-.17-1.95-.51-2.59-.68.03 3.65-2.54 6.82-6.31 6.92 1.54-1.33 3.22-2.51 4.58-4.03.71-1.59.21-3.36.17-5.02 2.08.72 4.18 2.17 6.46 1.42.64-.69 1.91-2.07 2.55-2.76l.7.36c-3.13 2.86-5.6 6.28-7.25 10.18-1.39 3.61-6.55 4.5-6.64 8.81.27 7.32.74 14.65.42 21.98.74 7.53-.16 15.26-2.85 22.34-5.77-13.09-6.81-27.81-5.58-41.9-.78.19-1.55.43-2.32.67 0 2.71-1.09 5.2-2.32 7.55-3.5 6.98-7.22 13.88-11.76 20.25-2.68 3.55-4.71 7.61-4.45 12.19-.09-2.94-.14-5.88-.14-8.81-.94.43-1.89.86-2.83 1.3-.94-3.21-3.13-5.74-5.45-8.06l-3.03 1.14c.84-1.7.95-3.54.43-5.35-1.74.66-3.46 1.35-5.21 1.96l-1.24-.06c1.39-1.17 2.81-2.29 4.23-3.42-3.01-3.1-8.94-2.66-9.88 2.09 1.69.67 3.38 1.35 5.06 2.04-2.08.11-4.05-.57-5.95-1.29.13-1.29.3-2.58.48-3.86 2.26-2.47 6.04-3.53 9.01-1.67 4.26 2.55 10.64 3.33 14.22-.76-.12-1.41-.24-2.82-.37-4.22-2.93.29-5.86 1.24-8.82.87-2.86-1.19-4.74-3.89-7.42-5.4-2.84-1.89-6.51-1.73-9.66-.81-2.65.43-2.19 3.7-3.04 5.63 1.16-11.62.73-23.3.59-34.96-.77-.01-2.32-.02-3.09-.03.57 11.67 1.01 23.42-.38 35.04-.2-1.28-.39-2.56-.57-3.84-4.85 1.44-9.13 4.66-14.27 5.09-3.97.51-7.85-1.41-11.8-.5l.03-1.33c1.01-.08 2.02-.13 3.04-.17.88.18 2.64.56 3.52.74 7.07 2.33 12.85-3.42 19.49-4.45.1-1.37.2-2.73.29-4.1-4.76 1.96-9.34 5.33-14.75 4.64 5.19-1.14 9.97-3.36 14.8-5.5.37-6.88.09-13.76-.1-20.64-.06-1.48-.12-2.96-.19-4.44-1.36-.74-2.72-1.47-4.03-2.27-2.3-1.77-4.44-3.72-6.74-5.48 1.96-3.91 1.36-9.03 5.04-12 2.29-1.48 4.93-2.28 7.64-2.56 2.39.25 5.05.42 6.94 2.11 1.74 1.79 2.99 3.98 4.53 5.93-.61 2.98-1.15 6.02-2.43 8.8-1.22 2.35-3.77 3.47-5.95 4.72.02 7.91.42 15.81.12 23.72 3.56-.53 7.17-.3 10.64.65 2.4-7.82 4.27-15.8 5.62-23.87-3.42-2.43-5.6-6.02-7.59-9.61 1.85-4.02 3.78-8.4 8.21-10.13.41-6.95-2.24-13.69-5.66-19.6-3.49-5.68-9.86-10.24-16.77-9.63-4.27.16-8.69-.62-12.82.78-3.18 1.86-5.96 4.29-8.85 6.54-1.03.97-1.99 2.02-2.86 3.14-7.67 10.98-9.68 24.72-9.46 37.82.09 9.7-.2 19.97 4.34 28.85-1.23.79-2.47 1.57-3.7 2.37-.26-.54-.79-1.61-1.06-2.15-.43-.65-1.3-1.97-1.74-2.62-4.83 2.48-9.95 4.85-13.76 8.82-1.04.84-.06 2.2.12 3.21 2.16 5.54 2.74 11.49 3.86 17.29.62 3.37.59 7 2.59 9.95 4.13-.99 7.85-3 10.73-6.13 4.23 2.26 7.63 5.9 11.85 8.28 5.44 3.54 11.25 6.54 17.09 9.38.01-1.79.01-3.57-.01-5.35l1.46-.81-.09 1.13c.02 2.06-.71 4.57.88 6.25 1.9 1.72 4.46 2.28 6.9 2.79.13.16.41.5.55.67 1.22 1.46 2.36 2.98 3.43 4.56 4.77-1.46 9.08-4.08 13.32-6.64-.27.65-.8 1.94-1.07 2.58l-.71-.43c-.27.29-.81.88-1.08 1.18-1.99-.31-4.22.75-4.91 2.7-1.36-.03-3.87.33-3.68 2.14 1.51.85 3.03-.92 3.68-2.14 2.11.48 3.86-1.05 4.91-2.7.39-.01 1.16-.02 1.55-.02l.24-.73c6.8-1.86 11.6-7.77 18.18-10.27-8.52 6.4-17.79 11.66-26.99 16.99-.1.49-.3 1.48-.39 1.97 10.4-5.82 20.66-11.96 31.5-16.98 1.71-.73 3.41-1.45 5.12-2.19-.83-.62-1.66-1.23-2.45-1.88l-.89-.92c3.98 1.95 8.35.86 12.34-.41-2.41 3.99-4.24 8.48-7.66 11.75-8.54 10.33-11.11 23.96-14.75 36.51h-.73c2.26-12.66 6.71-24.9 12.78-36.23 1.94-3.21 4.46-6.08 5.79-9.64-7.22 3-14.03 6.89-21.01 10.37-6.05 3.31-12.33 6.25-18.03 10.15-1.19.74-1.2 2.33-1.64 3.53l-.14.47c-.51-.46-1.55-1.38-2.06-1.84-4.75-.25-9.53-.6-14.29-.37l-.84.28c.21-1.95-.66-3.43-2.58-4-9.75-4.38-19.43-9.13-28.05-15.52-3.51-2.46-6.81-5.25-10.54-7.38.04 3.79.5 7.55 1.33 11.24 1.14 4.87 1 10.11 3.42 14.6 1.98 4.05 6.45 5.78 9.74 8.57 2.9 1.84 5.68 5.35 9.51 4.37 3.45-.83 7.5-4.42 5.82-8.25 1.97-1.25 3.83-.53 5.4.93.76 4.53-1.66 8.27-4.12 11.78-.38 3.89 5.14 4.31 7.99 4.89l.93.13c2.87.72 5.72-.28 8.58-.42 1.96.34 3.7 1.36 5.51 2.12l.49.22h-2.93c-3.13-2.93-7.43-.64-11.15-1.13-4.25-.22-10.6-.9-10.63-6.45 3.16-3.18 7-8.9 2.57-12.72-1.66 2.66-1.82 6.51-4.87 8.11-3.16 1.58-5.87 4.46-9.56 4.63l-1.17-.65c1.14-.66 2.29-1.31 3.44-1.96-5.11-4.5-11.19-7.73-16.39-12.1-2.07-2.27-3.21-5.22-5.03-7.67-5.41 2.38-9.01 7.53-12.5 12.11-.45.13-1.34.38-1.79.51 2.5-3.36 5.19-6.59 8.04-9.65 2.27-2.43 5.64-3.81 8.92-2.81-.68-5.77-1.64-11.51-2.53-17.25-1.07-3.65 1.72-7.1.43-10.76-1.79-7.32-1.4-15.46-5.59-21.99-4.2 6.04-8.86 12-10.41 19.38-.25-.58-.75-1.74-1-2.31 2.2-7.2 5.79-14.05 10.92-19.58 4.56-3.69 9.89-6.27 14.97-9.17.25-.47.74-1.41.99-1.88-2.92-7.08-7.35-13.49-9.62-20.84-1.89-5.82-3.71-11.74-4.27-17.86-.19-2.16-1.27-4.35-.51-6.5 2.05-7.78 8.1-13.43 12.63-19.78 3.07 5.58-1.14 11.6-.96 17.42.31 7.65-.74 15.41.88 22.96.05 4.72.67 9.4 1.58 14.03l2.13.03c1.49-4.62-.77-9.4-.33-14.11 1.46-12.07.4-25.35 7.51-35.91 3.91-3.36 7.82-6.73 11.9-9.89m-31.2 19.21c-1.37 2.61-3.45 5.35-2.73 8.48 1.62 10.27 3.91 20.62 8.4 30.03 1.34 5.84 4.04 11.18 7.09 16.29.61 2.85 3.29-1.24.53-1.31l.32-1.08c-.14-.4-.43-1.19-.58-1.59l-.85.1-.2-1.33c1.04-1.52.74-2.43-.9-2.71l-.08-2.31.34-.83c-.37-.27-1.1-.81-1.47-1.08-.01-.1-.04-.29-.05-.38-.89-2.95-.09-6.44-2.17-8.94-.31-6.28-1.7-12.5-1.41-18.83.33-8.71.56-17.54 3.17-25.93-4.07 2.91-6.77 7.26-9.41 11.42m40.34 11.45c-2.41 2.78-.43 6.79-2.87 9.64l1.39.21c.23-3.26 3.43-5.03 6.17-6.03 4.77-1.53 10.11-1.73 14.76.35-.72-.73-2.17-2.19-2.89-2.92.01-.54.04-1.61.05-2.15-1.74-1.1-3.33-2.64-5.43-3.02-4.1-1.12-8.28 1.15-11.18 3.92m25 .94c-.54 1.58-.98 3.2-1.64 4.75 5.82-2.9 12.73-3.36 18.86-1.19 1.63-.86-.73-1.59-1.32-2.1-.15-2.61-2.81-3.94-4.85-4.99-4.01-1.21-8.2.76-11.05 3.53m-18.2 3.37c-2.59 1.12-5.75 2.05-7.21 4.64.32 2.8 2.67 4.69 4.98 5.93 4.63 2.17 10.5-.43 12.86-4.75.57-2.04 1.41-6.17-1.9-6.03-1.43.48-2.84 1-4.26 1.54-1.41-.69-2.89-1.2-4.47-1.33m16 3.73c.85 2.68 2.79 4.85 4.93 6.6 5.98 4.16 15.19-1.89 14.89-8.76-1.36-.69-2.88-.94-4.33-1.34-1.28.58-2.55 1.16-3.84 1.72-1.52-.93-3.19-1.51-4.96-1.68-2.23.97-5.42 1.22-6.69 3.46m53.43 2.7c.12 1.29.25 2.59.37 3.89.63.12 1.88.35 2.51.47-.12-1.12-.25-2.24-.37-3.36zm-64.59 29.89c-.06 1.52-.11 3.04-.18 4.55 3.18-.95 6.51-.67 9.73-.99.18-.57.54-1.72.72-2.3-3.18-1.84-6.79-1.25-10.27-1.26m50.83 16.69c.27 5.12.17 10.61 2.72 15.21.4-.14 1.2-.41 1.6-.55 1.25-9.52 2.12-19.17.97-28.75-2.4 4.46-2.79 9.69-5.29 14.09m-91.66 24.16-.64-.75c-2.37.65-4.74 1.27-7.12 1.85 1.45 1.9 3.6 3.03 5.54 4.35 7.5 5.3 15.47 9.92 23.5 14.38 3.61 1.61 6.99 4.05 10.95 4.69 2.23-2.25 3.99-4.98 5.47-7.77-10.63-5.13-20.89-11.07-30.55-17.85-1.79-.97-3.12-3.65-5.49-2.67-.57 1.24-1.82 2.28-1.66 3.77m33.2 26.25c4.53 1.24 9.82 2.31 14.03-.44-2.15-3.06-4.02-6.4-6.83-8.93l-.98.16c-2.41 2.77-4.88 5.73-6.22 9.21z" fill="#2a1406"/><path d="m46.33 16.04c2.89-2.25 5.67-4.68 8.85-6.54 4.13-1.4 8.55-.62 12.82-.78 6.91-.61 13.28 3.95 16.77 9.63 3.42 5.91 6.07 12.65 5.66 19.6-4.43 1.73-6.36 6.11-8.21 10.13 1.99 3.59 4.17 7.18 7.59 9.61a185.92 185.92 0 0 1 -5.62 23.87c-3.47-.95-7.08-1.18-10.64-.65.3-7.91-.1-15.81-.12-23.72 2.18-1.25 4.73-2.37 5.95-4.72 1.28-2.78 1.82-5.82 2.43-8.8-1.54-1.95-2.79-4.14-4.53-5.93-1.89-1.69-4.55-1.86-6.94-2.11-.78-1.29-1.55-2.58-2.33-3.87l-3.16-.32c-1.22 2.06-2.44 4.26-2.15 6.75-3.68 2.97-3.08 8.09-5.04 12 2.3 1.76 4.44 3.71 6.74 5.48-.19 2.08-.89 4.22-.38 6.3 1.51.33 3.04.47 4.6.41.19 6.88.47 13.76.1 20.64-4.83 2.14-9.61 4.36-14.8 5.5 5.41.69 9.99-2.68 14.75-4.64-.09 1.37-.19 2.73-.29 4.1-6.64 1.03-12.42 6.78-19.49 4.45 2.97-13.66 3.91-27.66 6.18-41.44 1.21-8.73 2.68-18.31-1.84-26.38-.91-1.9-3.01-2.27-4.91-2.29.42-1.49.84-2.98 1.27-4.47-1.09-.6-2.18-1.21-3.26-1.81m8.96.24c.37 2.15-1.07 5.8 1.95 6.36 1.75.3 3.97.31 5.1-1.31.83-1.85.59-4.26-1.09-5.57-1.95-.91-4.08-.19-5.96.52z" fill="#eca2a1"/><path d="m55.29 16.28c1.88-.71 4.01-1.43 5.96-.52 1.68 1.31 1.92 3.72 1.09 5.57-1.13 1.62-3.35 1.61-5.1 1.31-3.02-.56-1.58-4.21-1.95-6.36z" fill="#875f9c"/><path d="m43.47 19.18c.87-1.12 1.83-2.17 2.86-3.14 1.08.6 2.17 1.21 3.26 1.81-.43 1.49-.85 2.98-1.27 4.47-.53.17-1.58.5-2.11.67-.91-1.27-1.83-2.54-2.74-3.81z" fill="#8e6586"/><path d="m21.44 29.42c2.64-4.16 5.34-8.51 9.41-11.42-2.61 8.39-2.84 17.22-3.17 25.93-.29 6.33 1.1 12.55 1.41 18.83-.21 2.07-.41 4.14-.64 6.21-.34-.26-1.01-.78-1.34-1.04-4.49-9.41-6.78-19.76-8.4-30.03-.72-3.13 1.36-5.87 2.73-8.48zm9.82 42.28c.01.09.04.28.05.38-.01-.1-.04-.29-.05-.38zm.05.38c.37.27 1.1.81 1.47 1.08l-.34.83c-.29-.48-.85-1.43-1.13-1.91zm1.21 4.22c1.64.28 1.94 1.19.9 2.71-.76-.77-1.06-1.67-.9-2.71zm1.1 4.04.85-.1c.15.4.44 1.19.58 1.59-.36-.37-1.07-1.12-1.43-1.49zm1.11 2.57c2.76.07.08 4.16-.53 1.31.13-.33.4-.98.53-1.31z" fill="#5b366f"/><path d="m34.01 57c-.22-13.1 1.79-26.84 9.46-37.82.91 1.27 1.83 2.54 2.74 3.81-6.3 4.5-7.87 12.81-8.71 20.02.02 5.68-.39 12.69 4.49 16.67 4.54-1.85 5.63-7.25 5.72-11.63-.04-2.47.47-5.35-1.35-7.34-.64 3.59-.9 7.43-3.36 10.35-2.17-3-1.41-6.74-.86-10.12.47-3.79 2.65-7.41 5.84-9.51 2.57.26 2.83 3.59 3.15 5.62.18 18.38-3.77 36.44-5.76 54.64-1.02.04-2.03.09-3.04.17-.13-.62-.4-1.87-.53-2.5-.79-1.49-2.19-2.46-3.45-3.51-4.54-8.88-4.25-19.15-4.34-28.85z" fill="#f1a1a1"/><path d="m46.21 22.99c.53-.17 1.58-.5 2.11-.67 1.9.02 4 .39 4.91 2.29 4.52 8.07 3.05 17.65 1.84 26.38-2.27 13.78-3.21 27.78-6.18 41.44-.88-.18-2.64-.56-3.52-.74 1.99-18.2 5.94-36.26 5.76-54.64-.32-2.03-.58-5.36-3.15-5.62-3.19 2.1-5.37 5.72-5.84 9.51-.55 3.38-1.31 7.12.86 10.12 2.46-2.92 2.72-6.76 3.36-10.35 1.82 1.99 1.31 4.87 1.35 7.34-.09 4.38-1.18 9.78-5.72 11.63-4.88-3.98-4.47-10.99-4.49-16.67.84-7.21 2.41-15.52 8.71-20.02z" fill="#6b0d05"/><path d="m62.7 38.19c-.29-2.49.93-4.69 2.15-6.75l3.16.32c.78 1.29 1.55 2.58 2.33 3.87-2.71.28-5.35 1.08-7.64 2.56z" fill="#946384"/><g fill="#9ec9f1"><path d="m124.49 32.8c1.59 1.1 3 2.54 3.4 4.5 1.75 6.4 1.1 13.13 1.35 19.69l1.44-.24c-.15-1.68-.3-3.36-.44-5.03 1.95-.61 3.92-1.16 5.91-1.63.3 1.18.6 2.36.9 3.53-1.63.29-3.25.58-4.88.85.06.6.18 1.8.25 2.4-1.62 1.4-3.22 2.83-4.73 4.35 3.54-.44 5.49-3.61 7.42-6.21 2.71 1.37 5.35 3 8.37 3.63-.64.69-1.91 2.07-2.55 2.76-2.28.75-4.38-.7-6.46-1.42.04 1.66.54 3.43-.17 5.02-1.36 1.52-3.04 2.7-4.58 4.03 3.77-.1 6.34-3.27 6.31-6.92.64.17 1.94.51 2.59.68-.68 4.61-3.4 8.74-8.03 10.1-1.95 7.55-4.67 14.86-7.03 22.28-.12-5.77-.57-11.56-.03-17.31.92-3.95 2.73-7.72 2.91-11.82.56-11.14-2.83-22.11-1.95-33.24zm-62.71 8.07c2.9-2.77 7.08-5.04 11.18-3.92 2.1.38 3.69 1.92 5.43 3.02-.01.54-.04 1.61-.05 2.15.72.73 2.17 2.19 2.89 2.92-4.65-2.08-9.99-1.88-14.76-.35-2.74 1-5.94 2.77-6.17 6.03l-1.39-.21c2.44-2.85.46-6.86 2.87-9.64zm25 .94c2.85-2.77 7.04-4.74 11.05-3.53 2.04 1.05 4.7 2.38 4.85 4.99.59.51 2.95 1.24 1.32 2.1-6.13-2.17-13.04-1.71-18.86 1.19.66-1.55 1.1-3.17 1.64-4.75z"/><path d="m138.01 51.61 2.51 1c.12 1.12.25 2.24.37 3.36-.63-.12-1.88-.35-2.51-.47-.12-1.3-.25-2.6-.37-3.89zm-68.69 5.79c.77.01 2.32.02 3.09.03.14 11.66.57 23.34-.59 34.96.85-1.93.39-5.2 3.04-5.63 3.15-.92 6.82-1.08 9.66.81 2.68 1.51 4.56 4.21 7.42 5.4 2.96.37 5.89-.58 8.82-.87.13 1.4.25 2.81.37 4.22-3.58 4.09-9.96 3.31-14.22.76-2.97-1.86-6.75-.8-9.01 1.67-.52-.2-1.57-.59-2.1-.78.68-.37 2.05-1.1 2.74-1.47-2.42-.27-4.85-.01-7.26.2-3.9.42-7.44-1.79-11.31-1.84-5.98-.6-12.14 1.12-17.98-.83l.31-.84c3.95-.91 7.83 1.01 11.8.5 5.14-.43 9.42-3.65 14.27-5.09.18 1.28.37 2.56.57 3.84 1.39-11.62.95-23.37.38-35.04z"/><path d="m90.82 57.66c.44.27 1.31.79 1.75 1.06-.61 4.75-1.85 9.4-2.63 14.12-2.19 4.5-2.24 10.17-5.77 13.89 2.22-9.67 5.75-19.1 6.65-29.07zm-40.86 104.15c3.05-1.6 3.21-5.45 4.87-8.11 4.43 3.82.59 9.54-2.57 12.72.03 5.55 6.38 6.23 10.63 6.45 3.72.49 8.02-1.8 11.15 1.13h-36.04c.8-2.52 1.68-5.01 2.4-7.56 3.69-.17 6.4-3.05 9.56-4.63z"/></g><path d="m68.58 45.18c1.58.13 3.06.64 4.47 1.33 1.42-.54 2.83-1.06 4.26-1.54-.38 2.53-2.23 4.87-5.04 4.4-2.35.07-3.16-2.34-3.69-4.19z" fill="#9e4822"/><path d="m77.31 44.97c3.31-.14 2.47 3.99 1.9 6.03-2.36 4.32-8.23 6.92-12.86 4.75-2.31-1.24-4.66-3.13-4.98-5.93 1.46-2.59 4.62-3.52 7.21-4.64.53 1.85 1.34 4.26 3.69 4.19 2.81.47 4.66-1.87 5.04-4.4zm7.27 3.94c1.27-2.24 4.46-2.49 6.69-3.46l.24 3.09c3.18 1.9 8.15 1.26 8.56-3.13 1.45.4 2.97.65 4.33 1.34.3 6.87-8.91 12.92-14.89 8.76-2.14-1.75-4.08-3.92-4.93-6.6z" fill="#c8f8a7"/><path d="m91.27 45.45c1.77.17 3.44.75 4.96 1.68 1.29-.56 2.56-1.14 3.84-1.72-.41 4.39-5.38 5.03-8.56 3.13z" fill="#9b4117"/><path d="m64.4 55.67c1.31.8 2.67 1.53 4.03 2.27.07 1.48.13 2.96.19 4.44-1.56.06-3.09-.08-4.6-.41-.51-2.08.19-4.22.38-6.3z" fill="#92617e"/><path d="m29.09 62.76c2.08 2.5 1.28 5.99 2.17 8.94.01.09.04.28.05.38.28.48.84 1.43 1.13 1.91l.08 2.31c-.16 1.04.14 1.94.9 2.71l.2 1.33c.36.37 1.07 1.12 1.43 1.49l-.32 1.08c-.13.33-.4.98-.53 1.31-3.05-5.11-5.75-10.45-7.09-16.29.33.26 1 .78 1.34 1.04.23-2.07.43-4.14.64-6.21z" fill="#553c59"/><path d="m119.96 81.08c.77-.24 1.54-.48 2.32-.67-1.23 14.09-.19 28.81 5.58 41.9-.55 1.16-1.13 2.3-1.74 3.43-3.99 1.27-8.36 2.36-12.34.41-2.5-2.12-4.84-5.37-8.44-5.29-6.51 2.05-11.87 7.04-18.45 8.78-.29-.4-.89-1.21-1.19-1.61-.33-6.06-.07-12.17-1.11-18.18 1.9-.87 4.26-1.23 5.39-3.21l3.03-1.14c2.32 2.32 4.51 4.85 5.45 8.06.94-.44 1.89-.87 2.83-1.3 0 2.93.05 5.87.14 8.81-.26-4.58 1.77-8.64 4.45-12.19 4.54-6.37 8.26-13.27 11.76-20.25 1.23-2.35 2.32-4.84 2.32-7.55zm-101.87 11.19c3.81-3.97 8.93-6.34 13.76-8.82.44.65 1.31 1.97 1.74 2.62-.09.69-.28 2.05-.38 2.74-.79.14-2.38.43-3.18.57-.44 4.65 3.3 7.72 5.26 11.48 4.08 8.47 9.39 16.3 15.12 23.74 3.93 3.08 8.66 6.41 13.91 4.3.02 1.78.02 3.56.01 5.35-5.84-2.84-11.65-5.84-17.09-9.38-4.22-2.38-7.62-6.02-11.85-8.28-2.88 3.13-6.6 5.14-10.73 6.13-2-2.95-1.97-6.58-2.59-9.95-1.12-5.8-1.7-11.75-3.86-17.29-.18-1.01-1.16-2.37-.12-3.21z" fill="#56306b"/><path d="m5.82 113.6c1.55-7.38 6.21-13.34 10.41-19.38 4.19 6.53 3.8 14.67 5.59 21.99 1.29 3.66-1.5 7.11-.43 10.76.89 5.74 1.85 11.48 2.53 17.25-3.28-1-6.65.38-8.92 2.81-2.85 3.06-5.54 6.29-8.04 9.65.45-.13 1.34-.38 1.79-.51 3.49-4.58 7.09-9.73 12.5-12.11 1.82 2.45 2.96 5.4 5.03 7.67 5.2 4.37 11.28 7.6 16.39 12.1-1.15.65-2.3 1.3-3.44 1.96l1.17.65c-.72 2.55-1.6 5.04-2.4 7.56h-29.66c-2.34-4.16-6.14-7.87-6.25-12.93-.71-10.43-1-20.98.52-31.36.8-5.42 2.32-10.7 3.21-16.11zm65.19 13.33c3.46-4.41 6.01-9.45 7.67-14.8 1.76.17 3.54.17 5.29-.12.69 6.6 1.43 13.4-.24 19.92-3.41 2.13-6.95 4.05-10.26 6.33-2.44-.51-5-1.07-6.9-2.79-1.59-1.68-.86-4.19-.88-6.25 1.81-.58 4.02-.71 5.32-2.29z" fill="#56306b"/><path d="m73.42 81.5c3.48.01 7.09-.58 10.27 1.26-.18.58-.54 1.73-.72 2.3-3.22.32-6.55.04-9.73.99.07-1.51.12-3.03.18-4.55z" fill="#e2a4a0"/><path d="m124.25 98.19c2.5-4.4 2.89-9.63 5.29-14.09 1.15 9.58.28 19.23-.97 28.75-.4.14-1.2.41-1.6.55-2.55-4.6-2.45-10.09-2.72-15.21z" fill="#651823"/><path d="m33.59 86.07c.27.54.8 1.61 1.06 2.15-.36.15-1.08.44-1.44.59.1-.69.29-2.05.38-2.74zm-3.56 3.31c.8-.14 2.39-.43 3.18-.57-1.19 2.99-.3 6.11 2.7 7.55.27.13.82.38 1.09.51 1.26 5.54 3.86 10.62 6.8 15.44 3.72 5.7 7.94 11.36 13.95 14.8 1.99.95 4.28.51 6.37.24 1.06-.58 2.11-1.16 3.15-1.77.11-.06.32-.2.43-.26.46-.4 1.39-1.2 1.85-1.6 3.13-3.78 5.72-8.1 7.1-12.83.71-1.84-.8-3.22-1.97-4.36-3.33 4.09-3.24 9.91-6.94 13.81.69-5.27 3.72-9.88 4.25-15.21.59-.28 1.76-.86 2.34-1.15 1.83 1.38 3.39 3.32 5.65 3.98 3.39.12 6.66-.96 10-1.32-1.13 1.98-3.49 2.34-5.39 3.21-.16.54-.47 1.62-.62 2.16-1.75.29-3.53.29-5.29.12-1.66 5.35-4.21 10.39-7.67 14.8-1.3 1.58-3.51 1.71-5.32 2.29l.09-1.13-1.46.81c-5.25 2.11-9.98-1.22-13.91-4.3-5.73-7.44-11.04-15.27-15.12-23.74-1.96-3.76-5.7-6.83-5.26-11.48z" fill="#59383a"/><path d="m41.86 102.33c1.25.13 2.51.27 3.76.51-.99 3.31 2.14 5.35 3.7 7.84 2.58 4.02 7.09 6.1 10.3 9.54 2.37.48 4.72 1.05 7.07 1.63l-1.08 1.48c-.43-.11-1.3-.33-1.74-.44-2.64-.68-5.3-1.22-7.98-1.71-2-4.2-6.27-6.5-8.92-10.2-2.16-2.6-3.6-5.66-5.11-8.65z" fill="#59383a"/><path d="m38.35 85.85c1.26 1.05 2.66 2.02 3.45 3.51-1.04 3.06-2.01 6.72-5.89 7-3-1.44-3.89-4.56-2.7-7.55.36-.15 1.08-.44 1.44-.59 1.23-.8 2.47-1.58 3.7-2.37zm25.52 37.04c.44.11 1.31.33 1.74.44.56.75 1.11 1.5 1.66 2.25-1.04.61-2.09 1.19-3.15 1.77-.08-1.49-.17-2.98-.25-4.46zm3.83 2.43c.46-.4 1.39-1.2 1.85-1.6-.46.4-1.39 1.2-1.85 1.6zm-.43.26c.11-.06.32-.2.43-.26-.11.06-.32.2-.43.26z" fill="#b08620"/><path d="m35.91 96.36c3.88-.28 4.85-3.94 5.89-7 .13.63.4 1.88.53 2.5l-.03 1.33-.31.84c-.48 1.18-.81 2.43-.62 3.71.24.48.73 1.45.97 1.93l-.48 2.66c-.96-1.51-1.91-3.02-2.81-4.56-.51-.23-1.53-.68-2.05-.9-.27-.13-.82-.38-1.09-.51z" fill="#7f631a"/><path d="m41.99 94.03c5.84 1.95 12 .23 17.98.83 3.87.05 7.41 2.26 11.31 1.84 2.41-.21 4.84-.47 7.26-.2-.69.37-2.06 1.1-2.74 1.47-1.95.23-3.89.5-5.77 1.07-3.38-.56-6.69-1.48-9.97-2.46-5.87 2.87-12.46 1.67-18.69 1.16-.19-1.28.14-2.53.62-3.71z" fill="#a0ccda"/><path d="m41.37 97.74c6.23.51 12.82 1.71 18.69-1.16 3.28.98 6.59 1.9 9.97 2.46-1.56.75-3.04 1.63-4.52 2.52-1.45.19-2.9.46-4.34.71-6.33 1.08-13.37 1.37-18.83-2.6-.24-.48-.73-1.45-.97-1.93z" fill="#cdefa8"/><path d="m37 96.87c.52.22 1.54.67 2.05.9.9 1.54 1.85 3.05 2.81 4.56 1.51 2.99 2.95 6.05 5.11 8.65 2.65 3.7 6.92 6 8.92 10.2 2.68.49 5.34 1.03 7.98 1.71.08 1.48.17 2.97.25 4.46-2.09.27-4.38.71-6.37-.24-6.01-3.44-10.23-9.1-13.95-14.8-2.94-4.82-5.54-9.9-6.8-15.44z" fill="#af892a"/><path d="m70.03 99.04c1.88-.57 3.82-.84 5.77-1.07.53.19 1.58.58 2.1.78-.18 1.28-.35 2.57-.48 3.86 1.9.72 3.87 1.4 5.95 1.29.46-.16 1.37-.49 1.83-.65 1.75-.61 3.47-1.3 5.21-1.96.52 1.81.41 3.65-.43 5.35-3.34.36-6.61 1.44-10 1.32-2.26-.66-3.82-2.6-5.65-3.98-2.54-1.88-5.78-2.16-8.82-2.42 1.48-.89 2.96-1.77 4.52-2.52z" fill="#d0ecac"/><path d="m78.31 101.86c.94-4.75 6.87-5.19 9.88-2.09-1.42 1.13-2.84 2.25-4.23 3.42l1.24.06c-.46.16-1.37.49-1.83.65-1.68-.69-3.37-1.37-5.06-2.04z" fill="#9a3c26"/><path d="m42.34 99.67c5.46 3.97 12.5 3.68 18.83 2.6-.97.99-2.1 1.72-3.39 2.21-4.1-.16-8.19-.61-12.16-1.64-1.25-.24-2.51-.38-3.76-.51zm41.63 12.34c.15-.54.46-1.62.62-2.16 1.04 6.01.78 12.12 1.11 18.18.3.4.9 1.21 1.19 1.61 6.58-1.74 11.94-6.73 18.45-8.78 3.6-.08 5.94 3.17 8.44 5.29l.89.92c-3.03-1.66-5.79-3.75-8.61-5.72-9.96 4.67-19.39 10.36-28.9 15.88-1.04.56-2.09 1.13-3.14 1.7-.14-.17-.42-.51-.55-.67 3.31-2.28 6.85-4.2 10.26-6.33 1.67-6.52.93-13.32.24-19.92z" fill="#0f0902"/><path d="m61.17 102.27c1.44-.25 2.89-.52 4.34-.71 3.04.26 6.28.54 8.82 2.42-.58.29-1.75.87-2.34 1.15-1.94 1.58-3.77 3.49-4.61 5.89-.46 3.5-.07 7.06-.5 10.57-2.45-2.26.77-6.34-1.65-8.77-2.42-2.84-5.35-5.23-7.45-8.34a9.307 9.307 0 0 0 3.39-2.21z" fill="#5d1722"/><path d="m45.62 102.84c3.97 1.03 8.06 1.48 12.16 1.64 2.1 3.11 5.03 5.5 7.45 8.34 2.42 2.43-.8 6.51 1.65 8.77-.05.07-.14.2-.19.26-2.35-.58-4.7-1.15-7.07-1.63-3.21-3.44-7.72-5.52-10.3-9.54-1.56-2.49-4.69-4.53-3.7-7.84z" fill="#5a3872"/><path d="m67.38 111.02c.84-2.4 2.67-4.31 4.61-5.89-.53 5.33-3.56 9.94-4.25 15.21-.22.31-.65.94-.86 1.25.43-3.51.04-7.07.5-10.57z" fill="#673a6c"/><path d="m67.74 120.34c3.7-3.9 3.61-9.72 6.94-13.81 1.17 1.14 2.68 2.52 1.97 4.36-1.38 4.73-3.97 9.05-7.1 12.83-.46.4-1.39 1.2-1.85 1.6-.11.06-.32.2-.43.26-.55-.75-1.1-1.5-1.66-2.25l1.08-1.48c.05-.06.14-.19.19-.26.21-.31.64-.94.86-1.25z" fill="#aa862f"/><path d="m.83 150.99c.02-13.3-.04-26.87 3.99-39.7.25.57.75 1.73 1 2.31-.89 5.41-2.41 10.69-3.21 16.11-1.52 10.38-1.23 20.93-.52 31.36.11 5.06 3.91 8.77 6.25 12.93h-2.05c-5.72-6.3-4.46-15.23-5.46-23.01z" fill="#391526"/><path d="m32.59 122.35c-.16-1.49 1.09-2.53 1.66-3.77 1.9 2.59 4.62 4.33 7.06 6.34-.48.07-1.45.2-1.93.26.81 1.17 1.6 2.34 2.39 3.52-3.75-.93-6.8-3.41-9.18-6.35z" fill="#999"/><path d="m34.25 118.58c2.37-.98 3.7 1.7 5.49 2.67 9.66 6.78 19.92 12.72 30.55 17.85-1.48 2.79-3.24 5.52-5.47 7.77-3.96-.64-7.34-3.08-10.95-4.69-8.03-4.46-16-9.08-23.5-14.38-1.94-1.32-4.09-2.45-5.54-4.35 2.38-.58 4.75-1.2 7.12-1.85l.64.75c2.38 2.94 5.43 5.42 9.18 6.35-.79-1.18-1.58-2.35-2.39-3.52.48-.06 1.45-.19 1.93-.26-2.44-2.01-5.16-3.75-7.06-6.34m-5.64 4.99c.94 1.64 2.37 2.87 3.98 3.81 2.84 1.7 5.44 4.02 8.77 4.71-1-1.9-3.01-2.78-4.72-3.89-2.66-1.58-4.89-3.97-8.03-4.63m27.85 17.23c1.69 1.13 3.56 2 5.62 2.14-.67-1-1.53-1.85-2.5-2.56.09-.36.25-1.08.33-1.45-1.54-.24-2.52.84-3.45 1.87z" fill="#b4babc"/><path d="m77.16 137.23c9.51-5.52 18.94-11.21 28.9-15.88 2.82 1.97 5.58 4.06 8.61 5.72-1.13.77-2.26 1.55-3.39 2.33.18.44.54 1.3.72 1.74-10.84 5.02-21.1 11.16-31.5 16.98.09-.49.29-1.48.39-1.97 9.2-5.33 18.47-10.59 26.99-16.99-6.58 2.5-11.38 8.41-18.18 10.27.27-.64.8-1.93 1.07-2.58-4.24 2.56-8.55 5.18-13.32 6.64 1.48-3.17 5-4.28 7.64-6.23-2.85.62-5.66 1.37-8.48 2.11.14-.54.42-1.61.55-2.14m20.99-9.48c-.18.44-.53 1.34-.71 1.78l-3.33.57c-.84 1.38-1.66 2.77-2.44 4.2 4.81-1.87 9.38-4.58 13.42-7.78-2.41-.64-4.64.7-6.94 1.23z" fill="#b6b9bb"/><path d="m22.37 123.82c3.73 2.13 7.03 4.92 10.54 7.38 8.62 6.39 18.3 11.14 28.05 15.52 1.92.57 2.79 2.05 2.58 4-.29 1.57-.57 3.14-.84 4.71-3.02 1.02-4.25-2.37-6.25-3.88-1.74-.55-3.37.56-4.89 1.24.16.39.48 1.17.63 1.56 1.68 3.83-2.37 7.42-5.82 8.25-3.83.98-6.61-2.53-9.51-4.37-3.29-2.79-7.76-4.52-9.74-8.57-2.42-4.49-2.28-9.73-3.42-14.6-.83-3.69-1.29-7.45-1.33-11.24z" fill="#454fcc"/><path d="m28.61 123.57c3.14.66 5.37 3.05 8.03 4.63 1.71 1.11 3.72 1.99 4.72 3.89-3.33-.69-5.93-3.01-8.77-4.71-1.61-.94-3.04-2.17-3.98-3.81z" fill="#7d807b"/><path d="m98.15 127.75c2.3-.53 4.53-1.87 6.94-1.23-4.04 3.2-8.61 5.91-13.42 7.78.78-1.43 1.6-2.82 2.44-4.2l3.33-.57c.18-.44.53-1.34.71-1.78z" fill="#828782"/><path d="m114.67 127.07c.79.65 1.62 1.26 2.45 1.88-1.71.74-3.41 1.46-5.12 2.19-.18-.44-.54-1.3-.72-1.74 1.13-.78 2.26-1.56 3.39-2.33z" fill="#807b79"/><path d="m100.54 138.5c6.98-3.48 13.79-7.37 21.01-10.37-1.33 3.56-3.85 6.43-5.79 9.64-6.07 11.33-10.52 23.57-12.78 36.23h-25.38c.75-5.2 1.26-10.48 2.95-15.49.76-2.03.37-4.23.32-6.33.44-1.2.45-2.79 1.64-3.53 5.7-3.9 11.98-6.84 18.03-10.15z" fill="#4550cb"/><path d="m74.02 138.93c1.05-.57 2.1-1.14 3.14-1.7-.13.53-.41 1.6-.55 2.14 2.82-.74 5.63-1.49 8.48-2.11-2.64 1.95-6.16 3.06-7.64 6.23-1.07-1.58-2.21-3.1-3.43-4.56z" fill="#999897"/><path d="m56.46 140.8c.93-1.03 1.91-2.11 3.45-1.87-.08.37-.24 1.09-.33 1.45.97.71 1.83 1.56 2.5 2.56-2.06-.14-3.93-1.01-5.62-2.14z" fill="#7c8278"/><path d="m87.91 140.18c.27-.3.81-.89 1.08-1.18l.71.43-.24.73c-.39 0-1.16.01-1.55.02zm-4.91 2.7c.69-1.95 2.92-3.01 4.91-2.7-1.05 1.65-2.8 3.18-4.91 2.7z" fill="#a8a89b"/><path d="m65.79 148.6c1.34-3.48 3.81-6.44 6.22-9.21l.98-.16c2.81 2.53 4.68 5.87 6.83 8.93-4.21 2.75-9.5 1.68-14.03.44z" fill="#8e8b8d"/><path d="m79.32 145.02c-.19-1.81 2.32-2.17 3.68-2.14-.65 1.22-2.17 2.99-3.68 2.14z" fill="#adaeab"/><path d="m64.38 150.44c4.76-.23 9.54.12 14.29.37.51.46 1.55 1.38 2.06 1.84-.4 1.31-.82 2.6-1.29 3.89-5.16.13-10.32.12-15.48.2.21-2.09.33-4.2.42-6.3z" fill="#282fa2"/><path d="m51.56 152.79c1.52-.68 3.15-1.79 4.89-1.24 2 1.51 3.23 4.9 6.25 3.88-1.08 5.44-1.19 10.99-1.24 16.52-2.85-.58-8.37-1-7.99-4.89 2.46-3.51 4.88-7.25 4.12-11.78-1.57-1.46-3.43-2.18-5.4-.93-.15-.39-.47-1.17-.63-1.56z" fill="#4350bd"/><path d="m63.54 150.72.84-.28c-.09 2.1-.21 4.21-.42 6.3-.14 1.35-.28 2.7-.36 4.06l-.03.82c-.01 1.3-.03 2.59-.06 3.89-.21 2.21-.63 4.4-1.12 6.57l-.93-.13c.05-5.53.16-11.08 1.24-16.52.27-1.57.55-3.14.84-4.71zm17.19 1.93.14-.47c.05 2.1.44 4.3-.32 6.33-1.69 5.01-2.2 10.29-2.95 15.49h-.63l-.49-.22c-.03-2.81.13-5.6.37-8.39.41-1.3.79-2.6 1.14-3.91l-.54-.75c.69-1.39 1.38-2.77 1.99-4.19.47-1.29.89-2.58 1.29-3.89z" fill="#192284"/><path d="m63.96 156.74c5.16-.08 10.32-.07 15.48-.2-.61 1.42-1.3 2.8-1.99 4.19-4.6-.57-9.23.23-13.85.07.08-1.36.22-2.71.36-4.06zm-.39 4.88c4.81-.03 9.61-.07 14.42-.14-.35 1.31-.73 2.61-1.14 3.91-4.45-.16-8.9-.02-13.34.12.03-1.3.05-2.59.06-3.89z" fill="#99833a"/><path d="m63.6 160.8c4.62.16 9.25-.64 13.85-.07l.54.75c-4.81.07-9.61.11-14.42.14zm-.09 4.71c4.44-.14 8.89-.28 13.34-.12-.24 2.79-.4 5.58-.37 8.39-1.81-.76-3.55-1.78-5.51-2.12-2.86.14-5.71 1.14-8.58.42.49-2.17.91-4.36 1.12-6.57z" fill="#2a32a9"/></svg>