<svg xmlns="http://www.w3.org/2000/svg" width="974pt" height="793pt" viewBox="0 0 974 793"><g fill="#664500"><path d="M250.2 31.3c26.38-8.14 49.38-25.28 76.79-30.38 5.3-1.31 10.77-.65 16.09.11 17.87 2.8 34.84 11.86 46.63 25.65 15.79 19.38 36.23 34.2 52.96 52.68 11.28 13.18 23.91 25.69 31.29 41.65 5.43 11.14 7.1 23.83 5.94 36.09-3.87 27.51-33.13 48.26-60.38 43.17-11.56-2.55-22.81-8.1-30.59-17.2-3.05-3.45-5-7.66-7.62-11.41-14.73-22.03-34.68-39.89-55.14-56.44-37.33 15.23-74.63 30.56-111.82 46.13-13.8 5.86-29.58 10.66-44.35 5.52-25.03-6.17-42.66-33.56-37.2-58.89 3.45-17.47 16.01-32.45 31.91-40.13 27.95-13.44 57.57-23.02 85.49-36.55z"/><path d="M301.52 139.69c28.54-6.06 58.3 17.65 60.48 46.35.25 4.34-.07 8.68-.05 13.03-2.59 28.14-32.02 50.5-59.83 45.35-6.02-1.46-12.14-3.02-17.58-6.07-15.04-8.27-25.43-24.39-26.74-41.5-.68-11.23 1.25-22.91 7.42-32.51 7.88-12.85 21.35-22.28 36.3-24.65zm361.39 64.06c18.66-2.4 38.69-5.34 56.44 2.75 18.05 7.18 28.4 26.18 31.1 44.62.55 22.62-14.29 45.33-36.05 52.4-20.52 6.13-42.66 2.03-63.01 9 4.23 8.81 5.39 18.98 3.42 28.54-3.33 16.36-14.57 30.82-29.39 38.42-11.78 5.92-25.95 7.32-38.47 2.94-23.46-7.91-40.28-32.62-37.88-57.46-12.86 2.45-25.94 3.38-38.94 4.72-7.71.66-15.33 2.51-23.1 2.01-18.15-.85-36.05-10.42-45.85-25.88-6.39-9.93-8.21-22.16-7.36-33.76 2.36-22.53 20.58-42.95 43.29-46.14 62.16-5.12 124.42-10.67 185.8-22.16zm-377.4 126.94c11.03-1.31 21.85 2.01 32.52 4.34 60.69 16.74 120.44 36.65 179.94 57.17 41.91 14.21 83.03 30.6 124.95 44.78 37.44 12.19 74.55 25.37 112.13 37.11 47.63 15.16 95.46 29.67 143.1 44.77 22.71 7.87 38.51 32.07 36.14 56.04-2.01 17.46-13.87 32.92-29.28 40.93-13.12 7.03-28.99 6.34-42.94 2.37-114.67-34.91-228.9-71.41-341.52-112.52-16.57-5.87-32.82-12.62-49.62-17.81-43.91-14.35-87.39-30.08-131.84-42.73-10.7-2.92-21.35-6.19-32.22-8.33-25.85-1.48-49.56-24.41-49.09-50.84-1.35-17.1 7.21-34.08 20.75-44.32 7.75-6.12 17.26-9.59 26.98-10.96z"/></g><path fill="#ffcc4d" d="M389.71 26.68c10.19-2.43 20.89-1.73 31.2-.34 25.73 2.44 51.51 4.74 76.96 9.3 18.75 3.16 36.97 8.64 55.38 13.24 46.46 11.93 93.29 23.78 137.13 43.61 31.11 13.32 56.26 36.63 81.64 58.39 7.22 6.5 15.15 12.21 21.87 19.26 46.08 45.51 91.77 92.27 127.38 146.69 5.81 8.52 10.77 17.59 15.08 26.96 13.71 29.3 21.96 60.97 25.87 93.03 6.66 23.06 8.68 47.06 11.78 70.76v11.07c-2.13 27.47-7.82 54.95-19.46 80.04-6.55 14.25-15.13 27.55-25.47 39.34-19.15 23.28-46.73 37.67-74.68 47.64-9.64 3.69-19.75 5.86-29.46 9.33-28.69 9.91-55.3 24.73-82.01 38.95-21.16 11.38-42.8 21.94-65.1 30.92-36.07 14.33-74.19 22.88-112.57 28.13h-67.87c-33.05-4.14-66.12-10.76-96.85-23.93 12.9 1.91 26.48.08 37.83-6.56 12.91-7.21 22.79-19.9 25.65-34.51 4.83-19.61-3.17-40.44-16.98-54.53 10.64-.36 21.29.26 31.93-.31 49.13-1.24 97.99-7.05 147.04-9.76 18.03-.98 34.73-12.37 43.25-28.13 4.95-8.84 6.77-19.18 5.93-29.22-.27-13.73-7.13-26.81-17.3-35.84-12.23-11.04-29.47-16.76-45.83-13.87-101.65 11.5-204.12 9.37-306.11 15.65-.56-.08-1.69-.25-2.25-.34-3.32-32.96-11.63-65.41-24.43-95.96-5.35-12.54-13.49-24.44-25.37-31.57-13.92-9.26-32.38-10.16-47.72-4.05-12.46 4.74-22.65 14.64-28.32 26.63-6.86 14.73-6.76 32.52.31 47.16 7.24 15.52 14.38 31.76 15.04 49.13-2.21 12.29-12.25 20.95-16.7 32.27-24.61-30.47-45.32-63.97-71.35-93.32-12.95-14.12-25.94-28.21-38.36-42.79-19.76-23.2-38.27-47.85-51.5-75.43C8.56 369.68 3.3 354.92 0 339.71v-29.33c5.95-28.39 7.85-57.82 18.14-85.17 5.26-16.11 15.08-30.16 21.4-45.81 12.8-29.29 33.89-54.07 57.03-75.75 35.69-31.28 76.8-58.15 123.33-69.69 9.83-2.84 20.15-2.93 30.3-2.66-27.92 13.53-57.54 23.11-85.49 36.55-15.9 7.68-28.46 22.66-31.91 40.13-5.46 25.33 12.17 52.72 37.2 58.89 14.77 5.14 30.55.34 44.35-5.52 37.19-15.57 74.49-30.9 111.82-46.13 20.46 16.55 40.41 34.41 55.14 56.44 2.62 3.75 4.57 7.96 7.62 11.41 7.78 9.1 19.03 14.65 30.59 17.2 27.25 5.09 56.51-15.66 60.38-43.17 1.16-12.26-.51-24.95-5.94-36.09-7.38-15.96-20.01-28.47-31.29-41.65-16.73-18.48-37.17-33.3-52.96-52.68m-88.19 113.01c-14.95 2.37-28.42 11.8-36.3 24.65-6.17 9.6-8.1 21.28-7.42 32.51 1.31 17.11 11.7 33.23 26.74 41.5 5.44 3.05 11.56 4.61 17.58 6.07 27.81 5.15 57.24-17.21 59.83-45.35-.02-4.35.3-8.69.05-13.03-2.18-28.7-31.94-52.41-60.48-46.35m361.39 64.06c-61.38 11.49-123.64 17.04-185.8 22.16-22.71 3.19-40.93 23.61-43.29 46.14-.85 11.6.97 23.83 7.36 33.76 9.8 15.46 27.7 25.03 45.85 25.88 7.77.5 15.39-1.35 23.1-2.01 13-1.34 26.08-2.27 38.94-4.72-2.4 24.84 14.42 49.55 37.88 57.46 12.52 4.38 26.69 2.98 38.47-2.94 14.82-7.6 26.06-22.06 29.39-38.42 1.97-9.56.81-19.73-3.42-28.54 20.35-6.97 42.49-2.87 63.01-9 21.76-7.07 36.6-29.78 36.05-52.4-2.7-18.44-13.05-37.44-31.1-44.62-17.75-8.09-37.78-5.15-56.44-2.75m-377.4 126.94c-9.72 1.37-19.23 4.84-26.98 10.96-13.54 10.24-22.1 27.22-20.75 44.32-.47 26.43 23.24 49.36 49.09 50.84 10.87 2.14 21.52 5.41 32.22 8.33 44.45 12.65 87.93 28.38 131.84 42.73 16.8 5.19 33.05 11.94 49.62 17.81 112.62 41.11 226.85 77.61 341.52 112.52 13.95 3.97 29.82 4.66 42.94-2.37 15.41-8.01 27.27-23.47 29.28-40.93 2.37-23.97-13.43-48.17-36.14-56.04-47.64-15.1-95.47-29.61-143.1-44.77-37.58-11.74-74.69-24.92-112.13-37.11-41.92-14.18-83.04-30.57-124.95-44.78-59.5-20.52-119.25-40.43-179.94-57.17-10.67-2.33-21.49-5.65-32.52-4.34z"/><path fill="#f5900c" d="M206.17 440.07c15.34-6.11 33.8-5.21 47.72 4.05 11.88 7.13 20.02 19.03 25.37 31.57 12.8 30.55 21.11 63 24.43 95.96.56.09 1.69.26 2.25.34 101.99-6.28 204.46-4.15 306.11-15.65 16.36-2.89 33.6 2.83 45.83 13.87 10.17 9.03 17.03 22.11 17.3 35.84.84 10.04-.98 20.38-5.93 29.22-8.52 15.76-25.22 27.15-43.25 28.13-49.05 2.71-97.91 8.52-147.04 9.76-10.64.57-21.29-.05-31.93.31 13.81 14.09 21.81 34.92 16.98 54.53-2.86 14.61-12.74 27.3-25.65 34.51-11.35 6.64-24.93 8.47-37.83 6.56-21.46-8.29-39.78-22.52-58.01-36.19-14.25 10.36-32.91 15.31-50.23 10.94-12.87-3.45-23.77-11.5-35.3-17.84-14.12-8.61-30.53-12.51-44.54-21.36-15.63-9.2-27.07-24.39-33.79-41.05-8.67-21.57-9.58-46.24-2.16-68.31 4.45-11.32 14.49-19.98 16.7-32.27-.66-17.37-7.8-33.61-15.04-49.13-7.07-14.64-7.17-32.43-.31-47.16 5.67-11.99 15.86-21.89 28.32-26.63z"/></svg>