<svg xmlns="http://www.w3.org/2000/svg" width="98pt" height="128pt" viewBox="0 0 98 128"><path fill="#5fd4ea" d="M16.87 27.13c6.34-10.69 15.35-21.48 28.04-24.3 9.98-1.52 18.92 5.02 25.35 11.94 3.46 3.75 6.46 7.89 9.01 12.31-.62 0-1.85.02-2.47.02-19.98.02-39.95-.04-59.93.03zm-2.13 74c19.5 0 38.99-.03 58.48.02-7.5 9.76-19.84 16.05-32.27 14.83-10.39-.89-19.71-6.9-26.21-14.85z"/><path fill="#fbbec2" d="M16.83 27.13h.04c19.98-.07 39.95-.01 59.93-.03 3.79 7.81 6.15 16.21 7.87 24.69-25.94-.11-51.89-.08-77.83-.01C9 43.15 12.3 34.8 16.83 27.13zM4.58 76.58c26.68-.5 53.38.04 80.07-.28-2.08 8.86-5.63 17.3-10.78 24.82l-.65.03c-19.49-.05-38.98-.02-58.48-.02l-3.76-.03c-3.89-7.58-5.93-16.03-6.4-24.52z"/><path fill="#f0a8a9" d="M76.8 27.1c.62 0 1.85-.02 2.47-.02 4.59 7.57 7.85 15.93 10.03 24.51-1.54.06-3.08.13-4.63.2-1.72-8.48-4.08-16.88-7.87-24.69z"/><path fill="#fbf2eb" d="M4.58 76.58c-.67-8.32.34-16.71 2.26-24.8 25.94-.07 51.89-.1 77.83.01.87 8.15.84 16.36-.02 24.51-26.69.32-53.39-.22-80.07.28z"/><path fill="#f2ded5" d="M84.67 51.79c1.55-.07 3.09-.14 4.63-.2 1.98 8.15 2.9 16.59 2.3 24.97-2.32-.12-4.64-.19-6.95-.26.86-8.15.89-16.36.02-24.51z"/><path fill="#f2aaab" d="M84.65 76.3c2.31.07 4.63.14 6.95.26-.43 8.49-2.52 16.96-6.4 24.55-3.78.04-7.56.02-11.33.01 5.15-7.52 8.7-15.96 10.78-24.82z"/><path fill="#56c0d3" d="M10.98 101.1l3.76.03c6.5 7.95 15.82 13.96 26.21 14.85 12.43 1.22 24.77-5.07 32.27-14.83l.65-.03c3.77.01 7.55.03 11.33-.01-6.43 13.13-19.26 23.75-34.17 24.91-17.01 1.57-32.96-9.95-40.05-24.92z"/></svg>