<svg xmlns="http://www.w3.org/2000/svg" width="128pt" height="156" viewBox="0 0 128 117"><path fill="#5bcefa" d="M23.83 23.66C33.8 12.22 48.86 5.45 64.02 5.56c15.16-.11 30.19 6.68 40.15 18.1-26.78.01-53.56.01-80.34 0zm.21 69.89c26.63-.1 53.27-.14 79.9.01-9.92 11.32-24.89 17.98-39.93 17.87-15.05.1-30.04-6.55-39.97-17.88z"/><path fill="#f5a9b8" d="M11.88 46.93c1.96-8.59 6.09-16.68 11.95-23.27 26.78.01 53.56.01 80.34 0 5.85 6.6 9.98 14.68 11.95 23.28-5.09-.18-10.2.21-15.28-.29 2.34-1.41 2.18-5.42-.89-5.69-7.66-.42-14.58-4.91-19.09-10.96-1.68-1.96-4.85-.36-5.09 1.99 4.01 7.74 12.38 12.48 20.65 14.51-1.8.26-3.61.34-5.42.38-26.37.06-52.74-.07-79.12.05m35.68-17.31c-4.72 6.09-11.63 11.03-19.57 11.32-3.34.27-3.25 5.49.08 5.74 9.53-.4 18.5-5.91 23.86-13.68.93-2.49-2.23-5-4.37-3.38zM11.9 70.18c34.73.03 69.47.04 104.2-.01-2.02 8.65-6.18 16.82-12.16 23.39-26.63-.15-53.27-.11-79.9-.01-5.97-6.57-10.12-14.74-12.14-23.37m39.23 12.07c-2.55.86-2.49 4.78.12 5.51 8.24.24 16.51.07 24.76.08 3.12.07 3.77-4.7.83-5.6-8.56-.2-17.16-.21-25.71.01z"/><path fill="#422c01" d="M47.56 29.62c2.14-1.62 5.3.89 4.37 3.38-5.36 7.77-14.33 13.28-23.86 13.68-3.33-.25-3.42-5.47-.08-5.74 7.94-.29 14.85-5.23 19.57-11.32z"/><path fill="#412c01" d="M75.77 31.99c.24-2.35 3.41-3.95 5.09-1.99 4.51 6.05 11.43 10.54 19.09 10.96 3.07.27 3.23 4.28.89 5.69-1.48.12-2.95-.01-4.42-.15-8.27-2.03-16.64-6.77-20.65-14.51z"/><path fill="#fff" d="M11.9 70.18c-1.71-7.63-1.74-15.62-.02-23.25 26.38-.12 52.75.01 79.12-.05 1.81-.04 3.62-.12 5.42-.38 1.47.14 2.94.27 4.42.15 5.08.5 10.19.11 15.28.29a53.39 53.39 0 0 1-.02 23.23c-34.73.05-69.47.04-104.2.01m24.57-12.76c-1.55.86.1 2.45.53 3.47 2.16 3.47 5.37 6.55 9.43 7.53 7.03 1.78 14.25-3.94 16.02-10.44-.41-.23-1.23-.67-1.64-.9-6.3 3.68-14.38 3.73-21.09 1.18-1.02-.28-2.21-1.86-3.25-.84m29.73-.14c-1.64 1.05.05 2.75.65 3.86 3 5.08 9.06 8.95 15.08 7.2 4.77-1.46 8.84-5.58 10.24-10.3-.99-1.82-2.66-.43-3.89.22-5.83 2.29-12.61 2.33-18.49.16-1.22-.3-2.24-1.84-3.59-1.14z"/><path fill="#412c00" d="M36.47 57.42c1.04-1.02 2.23.56 3.25.84 6.71 2.55 14.79 2.5 21.09-1.18.41.23 1.23.67 1.64.9-1.77 6.5-8.99 12.22-16.02 10.44-4.06-.98-7.27-4.06-9.43-7.53-.43-1.02-2.08-2.61-.53-3.47zm29.73-.14c1.35-.7 2.37.84 3.59 1.14 5.88 2.17 12.66 2.13 18.49-.16 1.23-.65 2.9-2.04 3.89-.22-1.4 4.72-5.47 8.84-10.24 10.3-6.02 1.75-12.08-2.12-15.08-7.2-.6-1.11-2.29-2.81-.65-3.86z"/><path fill="#422d01" d="M51.13 82.25c8.55-.22 17.15-.21 25.71-.01 2.94.9 2.29 5.67-.83 5.6-8.25-.01-16.52.16-24.76-.08-2.61-.73-2.67-4.65-.12-5.51z"/></svg>