<svg xmlns="http://www.w3.org/2000/svg" width="128pt" height="128pt" viewBox="0 0 128 128"><g fill="#b24044"><path d="M53.52 13.37c.34-.03 1.02-.11 1.36-.15 3.52 1.45 6.81 3.61 9.6 6.21-4.79 2.42-9.12 5.6-13.5 8.66-2.11 1.35-4.34 2.92-6.94 2.93-1.78-.25-3.48-.88-5.19-1.39-.52-.97-1.04-1.94-1.57-2.91 4.8-5.13 10.55-9.27 16.24-13.35zm14.94 6.21c5.28-2.77 10.98-4.47 16.73-5.95 3.01 2.72 5.06 6.52 5.02 10.64-3.71 2.48-8.36 4.04-11.07 7.71 3.96-1.88 7.51-4.49 11.28-6.68 2.95 3.56 4.15 8.25 3.06 12.77-3.2 2.17-6.69 4.1-9.11 7.2 3.39-1.91 6.38-4.43 9.66-6.51 1.95 3.31 3.29 7.37 2.2 11.18-2.12 3.04-5.99 4.41-7.75 7.75 2.75-1.81 5.16-4.08 7.65-6.23 4.63 8.01.12 17.88-6.91 22.78-6.12 3.9-12.35 8.03-19.54 9.61-3.34.72-6.62 1.68-9.81 2.93-3.04 1.23-6.86 1.19-9.05 3.98-3.88 4.8-7.84 9.53-11.92 14.15-6.1 8.2-13.2 15.57-20.09 23.09H0V95.03c5.24-6.71 11.55-12.49 16.96-19.06 1.89-2.35 4.91-4.59 3.7-8.02 3.02 2.71 6.35 5.34 10.29 6.52 3.03-1.27 4.03-4.58 5.13-7.37l4.26 1.86c3.05-2.6 4.21-6.59 4.19-10.48 3.68-2.61 4.59-7.45 2.75-11.46 2.02-2.36 3.28-5.21 4.43-8.07-1.54-2.43-3.32-4.69-5.24-6.82 7.47-3.95 13.98-9.61 21.99-12.55z"/><path d="M29.21 33.31c1.77-3.4 2.93-7.79 7.32-8.55.02.67.04 2.03.05 2.7 1.32 3.18 4.33 4.57 7.66 4.42 2.06 2.31 3.75 4.92 5.85 7.2-.78 2.07-.97 4.68-3 5.98-1.3 1.41-3.04-.25-4.31-.83-5.23-2.69-9.27-7.02-13.57-10.92zm-4.92 10.92c1.04-2.96 2-6.24 4.7-8.16 5.29 4.44 10.28 9.58 17.06 11.73.98 1.65 1.2 3.55 1.36 5.44a140.91 140.91 0 0 1-3.25 4.46c-4.55-1.89-9.15-3.81-13.24-6.6-2.61-1.88-4.29-4.71-6.63-6.87z"/><path d="M21.12 54.77c.59-2.88 1.38-5.74 2.76-8.35 2.94 2.64 5.47 5.84 9.02 7.72 3.1 2.07 6.65 3.25 10.04 4.76.12 1.3.26 2.59.41 3.89-.88 1.7-1.88 3.36-3.27 4.72-7.62-2.04-13.4-7.47-18.96-12.74zm-1.86 10.98c.03-3.01.99-5.86 2.58-8.39 3.96 3.87 8 7.73 12.92 10.4-.78 1.91-1.39 4.11-3.2 5.35-1.61.66-2.92-.65-4.23-1.36-2.89-1.72-5.55-3.78-8.07-6zM83.82 79.4c4.95-3.15 9.76-6.57 13.09-11.51C106.85 78.62 117.18 89 128 98.84V128h-23.55c-3.05-2.21-5.66-5.05-7.51-8.33-2.62-2.26-4.81-4.93-6.92-7.65-3.96-5.02-8.68-9.37-12.5-14.5-2.18-2.55-4.86-4.64-6.94-7.3-4.37-.31-8.73-.81-13.11-1.05 7.65-3.72 16.76-3.46 23.71-8.69 4.3 4.8 9.6 8.53 14.11 13.1 2.26 2.26 4.87 4.12 7.62 5.73-1.44-1.98-3.45-3.4-5.3-4.96-4.85-4.75-9.41-9.76-13.79-14.95z"/></g></svg>