<svg xmlns="http://www.w3.org/2000/svg" width="128pt" height="128pt" viewBox="0 0 128 128"><path fill="#00a8fe" d="M.33 44.74c3.01-.08 6.03.06 9.03-.08 2.93 9.79 5.78 19.6 8.55 29.43 1.92-.96 1.45-4.23 2.46-6.1 2.28-7.73 4.56-15.45 6.73-23.2 2.97-.15 5.95-.05 8.92-.05-4.42 12.83-8.59 25.75-13.01 38.58-3.21.06-6.43.09-9.64-.04C8.87 70.49 4.78 57.54.33 44.74zm68.44 3.36c2.63-.01 5.25.04 7.87-.04l-.01.42c-.08 2.05-.11 4.11-.04 6.16 1.79.02 3.59.02 5.38-.03l.11-.01c-.5 1.97-.12 4-.28 6-1.73.05-3.48-.03-5.21.01-.01 4.82-.08 9.65.03 14.47.26 2.62 3.32 2.47 5.23 2.36-.04 1.93.03 3.86-.11 5.79-3.47.4-7.18.49-10.38-1.14-1.69-1.15-2.27-3.15-2.57-5.06-.15-4.46.08-8.91-.08-13.37 0-.68.01-2.04.01-2.72-.63-.06-1.9-.18-2.53-.25l-1.45-.12c-.05-1.97-.03-3.94 0-5.91 1.33-.02 2.66-.03 3.99-.04.12-2.17-.07-4.35.04-6.52zm-28.72 8.49c5.88-4.09 15.25-3.38 19.84 2.38 3.72 5.89 3.97 14.12-.05 19.92-4.46 5.91-13.45 6.35-19.58 2.95-3.3-2.33-5.21-6.16-5.75-10.1-.64-5.46.59-11.98 5.54-15.15m2.65 8.89c-.89 4.2-.46 9.28 3.15 12.13l.55-.25-.04.3c2.32.62 5.04.28 6.56-1.78 2.13-3.02 2.11-7.01 1.47-10.5l-.21-.07c-.2-3.01-3.15-5.71-6.25-5.19-2.83.13-4.69 2.8-5.23 5.36zm44.22-5.69c4.17-6.59 14.18-7.47 20.19-3.01 3.87 3.53 5.1 8.93 4.69 13.99-6.56.12-13.13-.05-19.69.08-.27 3.45 2.13 6.94 5.7 7.29 1.98.1 4.31-.24 5.59-1.94.34-.43 1.03-1.3 1.38-1.73 2.29.07 4.59 0 6.89.1C110 83.82 98.09 86 90.78 82.2c-5.51-3.42-7.01-10.44-6.14-16.48.46-2.08 1.08-4.15 2.28-5.93m5.25 5.99c3.27.23 6.6.13 9.89.06l.86.44c.36-.26 1.08-.77 1.43-1.02-.55-2.25-1.9-4.66-4.37-5.14-3.71-1.35-7.52 1.98-7.81 5.66zm23.17 17.15c-3.47-2.14-1.75-7.6 2.08-8.09 1.69.26 3.67.74 4.41 2.49 1.86 3.82-3 8.23-6.49 5.6z"/><g fill="#212225"><path d="M9.36 44.66c2.12 1.73 3.99 3.76 5.85 5.76 1.74 5.85 3.34 11.75 5.16 17.57-1.01 1.87-.54 5.14-2.46 6.1-2.77-9.83-5.62-19.64-8.55-29.43zm26.66.08c1.8 1.79 3.56 3.62 5.41 5.35.31 2.23-2.3 4.5-1.38 6.5-4.95 3.17-6.18 9.69-5.54 15.15-2.13 5.57-3.77 11.33-5.8 16.93-3.34-.08-6.78.35-10.05-.2-1.71-1.78-3.42-3.57-5.29-5.19 3.21.13 6.43.1 9.64.04 4.42-12.83 8.59-25.75 13.01-38.58zm40.61 3.74c2.05 1.41 4.97 3.56 5.34 6.13-1.79.05-3.59.05-5.38.03-.07-2.05-.04-4.11.04-6.16zm5.45 6.12c1.49 1.85 3.35 3.34 4.84 5.19-1.2 1.78-1.82 3.85-2.28 5.93l-2.35.44c.05 3.83-.07 7.66.02 11.5 1.66 1.74 3.41 3.4 5.09 5.13.3 1.88.07 3.83.09 5.73-2.87.4-5.86.44-8.69-.31-3.21-.98-5.1-3.93-7.44-6.12 3.2 1.63 6.91 1.54 10.38 1.14.14-1.93.07-3.86.11-5.79-1.91.11-4.97.26-5.23-2.36-.11-4.82-.04-9.65-.03-14.47 1.73-.04 3.48.04 5.21-.01.16-2-.22-4.03.28-6zm25.03 2.18c5.72 4.1 11.32 10.45 10.31 18.06-3.83.49-5.55 5.95-2.08 8.09 3.49 2.63 8.35-1.78 6.49-5.6 1.89.87 3.05 2.79 4.56 4.19 2.7 2.63.38 7.9-3.42 7.45-3.27-.07-4.61-3.63-7.06-5.17-3.4 5.11-10.38 6.47-16.02 4.98-3.8-.84-6.72-3.68-9.11-6.58 7.31 3.8 19.22 1.62 20.89-7.63-2.3-.1-4.6-.03-6.89-.1-.35.43-1.04 1.3-1.38 1.73-1.84-.03-3.69-.06-5.53.01-.02.48-.05 1.45-.06 1.93-3.57-.35-5.97-3.84-5.7-7.29 6.56-.13 13.13.04 19.69-.08.41-5.06-.82-10.46-4.69-13.99zm-47.22 2.19c3.39 2.75 7.01 6.05 7.88 10.57 1.78 6.43.16 14.76-6.18 18.09-7.3 3.9-16.83.97-21.33-5.79 6.13 3.4 15.12 2.96 19.58-2.95 4.02-5.8 3.77-14.03.05-19.92z"/><path d="M42.7 65.48c.54-2.56 2.4-5.23 5.23-5.36 3.1-.52 6.05 2.18 6.25 5.19-4.92.29-7.16 6.45-5.64 10.51-.61.65-1.32 1.17-2.14 1.54l-.55.25c-3.61-2.85-4.04-7.93-3.15-12.13zm49.47.3c.29-3.68 4.1-7.01 7.81-5.66 2.47.48 3.82 2.89 4.37 5.14-.57.14-1.72.43-2.29.58-3.29.07-6.62.17-9.89-.06zm-25.98-5.09c.63.07 1.9.19 2.53.25 0 .68-.01 2.04-.01 2.72-1.02.12-2.97-1.82-2.52-2.97z"/></g></svg>