<svg xmlns="http://www.w3.org/2000/svg" width="181pt" height="181pt" viewBox="0 0 181 181"><g fill="#bcbcbc"><path d="M80.91 1.55c.66-.05 1.97-.14 2.63-.19 1.56 6.4 2.74 12.9 4.71 19.2.7 1.97 1.37 3.96 2.03 5.94.67 2.16 2.28 4.53 1.12 6.79-3.08 2.88-5.56-1.8-7.38-3.82-4.79 4.07-10.63 7.31-17.04 7.53-4.19-.04-8.58-2.3-10.15-6.36-2.03-4.12.12-8.72 2.75-12 2.7-3.09 6.17-6.05 10.41-6.48 3.27-.13 6 3.48 4.6 6.55-2.21 5.02-7.87 7.36-13.06 7.62.15 1.23.31 2.46.48 3.69 5.2 3.53 11.81.77 16.2-2.78 2.07-1.76 4.92-4.05 4.13-7.11-1.1-6.1-2.74-12.38-1.43-18.58M62.45 22.64c3.6-.05 6.81-1.88 9.14-4.56-.44-.59-1.31-1.77-1.74-2.36-3.14 1.5-5.65 3.92-7.4 6.92zM90.52 1.32c.92-2.13 2.82-.21 2.72 1.53 1.49 6.68 2.35 13.57 5 19.95 1.17 3.42 3.57 6.68 2.98 10.47-2.29.91-4.88-.04-5.73-2.4-4.31-9.05-7.03-19.58-4.97-29.55z"/><path d="M20.16 7.12c1.26-1.57 3.36-1.75 5.14-2.32l-.99 1.78c.65.04 1.93.13 2.58.17-3.34 6.01-9.48 13.07-5.22 20.16 4.53-.4 7.88-3.47 10.38-7 .67-1.64 3.09-1.18 3.49.37 1.28 3.38 2.63 7.31 6.28 8.8 2.26 1.41 5.45.85 6.98-1.37 2.33-3.2 2.17-7.6.64-11.11-1.02-2.32-3.29-3.69-4.8-5.65-.3-2.8 3.47-3.14 5.21-1.83 4.43 2.91 5.35 8.63 6.65 13.37-.34 1.91-.67 3.81-.97 5.73-2.56 2.89-5.21 6.46-9.42 6.77-5.42.82-9.53-3.39-13.43-6.42-3.17 1.58-6.04 4.07-9.65 4.53-4.09.44-7.86-2.73-8.72-6.64-1.57-6.9 1.07-14.29 5.85-19.34zm131.33 18.41c1.23-.54 2.59-.19 3.76.35 1.91 4.04-4.99 8.7-7.8 5.19-.44-2.63 1.83-4.65 4.04-5.54zm-46.2 10.74l2.95-.06c1.06 3.04 2.06 6.1 2.77 9.24l-3.43-.06c-2.01-2.63-2.83-5.84-2.29-9.12zm9 9.49c-1.28-4.6 3.92-7.55 7.71-8.36.32.6.96 1.81 1.28 2.41-1 1.42-2.11 2.77-2.92 4.31 1.57 3.94 6.5 5.31 8.25 9.18.99 2.2-.18 4.87-2.21 6.01-1.88 1.16-4.14.39-6.18.31.07-.49.23-1.47.3-1.97 1.47-1.16 2.93-2.34 4.37-3.56-3.37-2.97-7.89-4.66-10.6-8.33zm-74.23-3.32c.59.01 1.76.05 2.35.07 1.98 3.44 3.45 7.15 5.39 10.62 2.91-1.4 6.51-3.45 9.63-1.46 3.63 2.56 3.86 7.51 3.47 11.53.54.28 1.63.85 2.17 1.14 2.21-4.16 2.34-9.87 6.8-12.46 3.04-1.99 8.17.12 7.62 4.12-.15 4.41-5.62 6.55-5.68 10.73 4.26 1.97 9.21-1.3 9.96-5.68.32-4.24-2.17-8.6-.42-12.71.48-1.9 2.66-2.06 4.14-2.8.36 2.48.45 4.99.74 7.48.42 3.04 2.08 5.78 2.42 8.84-.24 1.94-2.24 2.98-3.43 4.35-3.01 3.06-6.46 6.71-11.19 6.23-3.68.03-5.82-3.4-8.97-4.61-2.74-.08-5.46.35-8.19.45-1.29.26-2.87-.99-2.55-2.38.27-3.41 2.78-7.32.22-10.41-1.57-1.89-3.19.72-4.3 1.85-2.58 3 .8 7.18-1.22 10.35-1.26.37-3.06.36-3.53-1.16-1.57-4.57-2.34-9.39-3.73-14.03-.93-3.28-1.38-6.67-1.7-10.06m31.81 13.89c-1.16.82-1.12 1.56.11 2.22 1.16-.83 1.12-1.56-.11-2.22zm75.53-12.39c2.51-4.03 8.39-2.09 10.58 1.3-3.06 2.7-8.25 2.01-10.58-1.3zM30.83 41.59c3.94 3.26 3.31 9.94 8.86 11.54l-2.67 3.03c-.22 4.92 1.32 9.76.81 14.66-.19 2.21-2.24 2.7-4.07 2.98-1.06-4.83-.8-9.87-2.42-14.6-3.1 1.43-6.17 3.17-9.63 3.5 2.47-3.5 6.61-5.31 9.08-8.75.27-4.13-1.52-8.29.04-12.36zm66.87 2.08c2.1-2.12 6.13-.8 6.37 2.21.94 4.45-1.9 8.23-4.32 11.61 1.66 3.92 5.96 4.11 9.61 4.43-1.88 2.86-5.66 4.27-8.77 2.44-4.16-2.71-5.56-7.89-7.04-12.33 1.03-2.92 2.08-6 4.15-8.36m2.27 4.55c-1.22.73-1.23 1.46-.03 2.21 1.22-.76 1.23-1.5.03-2.21zm47.21 8.1c4.42-.28 9.08 2.49 9.76 7.12-4.54 1.48-10.01-2.22-9.76-7.12zM95.97 82.18c1.24.35 3-.33 3.96.73-.8 1.14-1.95 2-2.69 3.21-.34 2.22-.36 4.48-.58 6.73-.64-.08-1.91-.22-2.55-.3-.46-1.5-.98-2.99-1.25-4.54.08-2.31 1.87-4.04 3.11-5.83zm-32.02 2.74c3.81-1.73 8.54-.54 10.9 2.96.59 2.53.01 5.2-2.15 6.79-2.98 3.47-7.77 3.73-12 3.61-.39 4.12-1.63 8.59-5.25 11.04-6 4.22-14.68 5.31-21.12 1.5-1.95-1-1.69-3.38-2.07-5.19 4.19 1.08 8.31 3.09 12.75 2.46 4.19-.23 9.76-2.18 10.26-7.01-.7-4.33-4.49-7.14-7.61-9.81-2.86 3.56-5.11 9.31-10.62 8.84-6.95-.2-8.6-11.61-1.67-13.42.04 2.84-.58 5.75.35 8.52.82-.03 2.45-.1 3.27-.13 2.11-2.57 3.21-5.69 4.49-8.7.54-1.48 1.94-2.21 3.41-1.46 3.58 2.02 6.33 5.21 9.59 7.67 1.53-3.3 3.66-6.77 7.47-7.67m-1.42 7c1.96 4.43 6.44.36 8.23-2.1-2.93-1.49-6.42-.69-8.23 2.1zm22.99-6.73c2.37-.66 5.13 1.07 4.75 3.69-.84 3.13-3.15 6.33-6.48 7.05-2.59.39-4.78-1.55-6.23-3.46-.67-1.58-.08-3.4-.1-5.07 1.26-.22 2.61-1.03 3.84-.23.62 1.47 1.1 3 1.63 4.5.49-.45 1.48-1.36 1.97-1.82.16-1.56.28-3.13.62-4.66zm26.3 30.67c3.36-1.56 6.99-2.51 10.55-3.54l-.03 1.28c.52.08 1.56.25 2.08.33-2.82 3.51-7.14 4.98-11 6.96-.8 5.27-.82 10.7.64 15.87 1.31 1.68 2.49 3.91 4.85 4.21 5.11.89 9.98-1.62 15.06-1.74-3.9 7.15-14.47 10.37-20.95 4.76-5.04-4.54-4.21-11.92-4.05-18.03.46-3.4-.03-7.63 2.85-10.1zm43.67-.4c.8-2.27 3.49-4.17 5.82-2.79 2.37 1.52 3.17 4.48 3.92 7.03 2.19 9.7 2.7 20.02-.01 29.65-1.02 3.04-5.54 1.86-4.97-1.28 1.13-8.83 2.92-17.95.32-26.7-.37-.61-1.12-1.83-1.49-2.45-.52 1.49-1.01 3-1.48 4.51-1.44 4.32-2.07 8.96-4.17 13.04-1.11 2.28-3.83 2.47-5.98 2.99-2.07 3.23-3.04 9.2-8.07 8.34.54-4.01 2.53-7.7 2.66-11.77.15-3.03.18-6.07-.11-9.09-.3-3.39-2.05-6.87-.12-10.1 4.36 3.08 4.75 8.85 6.71 13.41.5.04 1.49.11 1.98.14 1.53-5.01 2.94-10.1 4.99-14.93zm-84.34 1.57c5.07-3.6 14.57-1.68 15.82 5.05.36 2.38-.62 4.66-.96 6.98 2.19 1.23 4.68 1.78 7.11 2.27 2.1-5.5 1.54-11.66 4.09-17.06 1.08 1.32 2.08 2.84 1.9 4.64.05 8.37-.29 16.74.02 25.11.16 1.93.6 4.38 2.63 5.2 3.39 1.22 7.21.07 10.55 1.52 1.2 1.17.6 3.23-.99 3.69-5.83 1.8-12.24.51-17.26-2.86-4.35 2.13-9.52 5.08-14.38 2.69-2.47-2.43-3.32-6.01-4.68-9.11-1.64 5.29-5.05 10.46-10.53 12.3-6.62 2.42-14.44-1.83-16.37-8.54-2.73-6.35 1.42-14.09 7.91-15.99 5.69-2.29 12.02-.06 16.58 3.6.18.49.54 1.48.73 1.98.04-7.23-2.31-14.25-2.17-21.47m2.71 2.14c.45 3.72 1.62 7.43 3.59 10.64 2.02-1.6 3.89-3.36 5.7-5.18.01-1.21.01-2.42.02-3.63-2.64-1.71-6.51-5.02-9.31-1.83m3.69 15.1c.94 5.54 2.24 11.05 4.4 16.25 3.83-.94 8.22-1.94 10.53-5.47 1.11-2.39.29-5 .1-7.48-4.09-3.77-9.84-3.64-15.03-3.3m-25.64 7.82c.58 4.86 3.26 9.73 8.33 10.96 3.91-.74 7.66-3.95 8.19-8.06.47-3.57-2.76-7.05-6.36-6.85-3.87-.44-7.12 1.93-10.16 3.95zM8.05 119.1c7.96-3.65 18.15.69 21.39 8.71 1.33 3.91.99 8.6-1.72 11.86-2.71 3.68-7.17 5.26-11.14 7.15.49 7.78 6.63 14.54 4.95 22.49-1.63-.43-3.68-.6-4.21-2.53-5.31-13.21-8.2-27.26-13.21-40.57-1.13 1.39-2.26 2.77-3.45 4.11-1.44-5.27 2.92-9.47 7.39-11.22m.41 3.15c.78 6.05 3.77 11.47 5.17 17.37 3.45-.5 6.47-2.26 9.5-3.86 1.31-2.37 2.44-5.28.94-7.85-2.72-5.73-9.95-7.1-15.61-5.66z"/><path d="M119.94 130.5l2.64.24a40.63 40.63 0 0 1-6.47 3.55c.16-.55.47-1.63.63-2.18 1.07-.53 2.14-1.06 3.2-1.61zm-94.09 21.46c1.23-6.13 9.12-12.73 14.93-7.68 4.1 3.92-.35 8.98-2.44 12.66 2.99 2.72 7.52 4.36 8.17 8.88-4.48.45-8.13-2.4-11.76-4.54-.28 2.4-.61 4.9-2.57 6.57-4.42-3.98-5.6-10.27-6.33-15.89m5.29-3.91c-2.52 1.6-.8 4.61.96 6.02 3.07-1.03 5.34-3.49 6.78-6.32-2.19-2.51-5.69-2.2-7.74.3zm76.75 14.33c19.69-1.68 39.4-3.15 59.15-3.63 4.12-.07 8.8-1.7 12.58.52 2.1 1.62.06 3.38-1.83 3.55-5.38.6-10.82-.06-16.21.54-8.09.94-16.28.26-24.35 1.35-26.11 1.32-52.09 4.39-77.99 7.87-8.61 1.53-17.23 3.05-25.74 5.05-4.81 1.15-9.51 3.13-14.55 2.94.49-1.28.58-3.06 2.3-3.23 27.97-9.24 57.53-11.73 86.64-14.96z"/></g></svg>