<svg height="400" viewBox="0 0 300 300" width="400" xmlns="http://www.w3.org/2000/svg"><path d="m194.81 16.8c6.5-5.31 16.14-4.76 23.21-.88 2.94 1.05 3.37 4.39 3.34 7.1-.08 6.55.59 13.19-.8 19.66-4.93.98-8.68-2.7-12.94-4.4-4.28 3.78-.95 9.55 2.08 12.95 7.46 8.04 14.08 17.7 15.25 28.88 1.24 10.9-.59 23.13-8.6 31.22-7.04 7.21-19.31 7.32-27.23 1.52-2.09-1.59-1.75-4.47-1.88-6.78.09-6.39-.26-12.8.35-19.18 1.16-.47 2.33-.95 3.5-1.43 3.06 1.47 5.73 3.67 8.91 4.89 3.72 1.55 4.92-3.68 3.98-6.29-2.19-5.69-7.31-9.54-10.52-14.62-6.69-8.95-9.71-20.43-8.34-31.52.75-7.81 3.47-15.98 9.69-21.12m2.32 2.32c-7.75 6.45-9.6 17.34-9.02 26.9.21 10.18 5.71 19.27 12.13 26.8 3.18 3.87 7.32 7.81 7.21 13.21.02 3.04-1.14 7.14-4.6 7.74-4.94.7-8.91-2.88-12.57-5.63.06 7.28 0 14.56.1 21.83 6.23 4.32 15.19 5.67 21.53.83 8.65-6.64 11.07-18.47 10.12-28.81-.5-7.88-4.19-15.08-8.75-21.37-3.66-5.21-9.39-9.31-10.8-15.86-.79-3.48.32-8.58 4.47-9.21 4.39-.41 7.95 2.71 11.31 5.07-.03-6.97-.03-13.94-.03-20.91-6.2-3.88-15-5.51-21.1-.59zm-183.69-2.56c2.52-1.65 5.72-1.04 8.56-1.22 7.72.25 16.27-1.08 23.01 3.58 8.26 5.83 11.32 16.45 11.61 26.11.31 10.04-1.37 21.27-8.96 28.53-3.91 3.99-9.54 5.24-14.88 5.9-.23 11.31.44 22.66-.4 33.96-6.32 1.87-13.36 1.88-19.67-.02-.56-5.44-.39-10.92-.4-16.38 0-25.03-.01-50.07 0-75.1.14-1.8-.07-3.86 1.13-5.36m2.01 94.94h14.23c-.01-11.72.01-23.44-.02-35.16 4.57-.26 9.44-.53 13.32-3.25 6.3-4.16 9.24-11.77 10.15-18.99 1.03-9.24.42-19.32-4.92-27.25-3.09-4.81-8.47-8.15-14.26-8.24-6.16-.15-12.33.01-18.5-.06zm46.17-94.93c4.32-1.58 8.98-1.27 13.5-1.21 1.82.12 3.82.04 5.37 1.18 1.28 1.89 1.04 4.27 1.15 6.43-.03 21.26-.03 42.52 0 63.77 3.23.12 6.6-.23 9.72.85 1.8 1.59 1.3 4.25 1.5 6.38-.08 6.5.26 13.03-.44 19.51-4.95 1.77-10.26 1.05-15.4 1.16-5.14-.13-10.47.63-15.41-1.19-.28-2.81-.46-5.64-.44-8.46.03-23.67 0-47.34.01-71.01.03-5.81-.21-11.63.44-17.41m2.64 94.93h25.5c-.01-7.19.01-14.37-.01-21.56h-11.25v-71.4h-14.24c0 30.99.01 61.98 0 92.96zm34.34-95.67c4.74-.92 9.62-.31 14.42-.46 5.84.19 11.84-.69 17.54 1.01 1.08 7.99 1.12 16.19-.03 24.17-4.51 1.23-9.2.96-13.82.94-.03 3.6-.02 7.2 0 10.81 3.48.12 7.08-.36 10.48.53 2.1.74 1.89 3.38 2.11 5.18.01 6.43.58 12.98-.93 19.3-3.86.53-7.77.59-11.66.58-.02 3.53-.03 7.06 0 10.59 4.64-.02 9.36-.31 13.89.94 1.22 6.2.56 12.54.96 18.82 4.76-28.56 10.18-57.01 15.11-85.54.48-2.07.54-4.41 1.9-6.15 1.82-1.38 4.26-1.04 6.4-1.2 4.78.04 9.72-.5 14.29 1.24 5.07 26.08 9.41 52.29 14.17 78.43.94 6.15 2.88 12.27 2.23 18.56-6.46 1.58-13.53 1.76-19.94-.14-.96-4.73-1.69-9.51-2.42-14.28-3.2-.01-6.41-.01-9.61.01-.75 4.77-1.48 9.54-2.46 14.26-5.21 1.85-10.86 1.26-16.27 1.05-1.75.11-2.82-1.32-3.84-2.49-.97.95-1.76 2.41-3.29 2.42-5.25.52-10.55.11-15.81.23-5.13-.12-10.46.64-15.38-1.22-.23-2.45-.41-4.9-.41-7.36 0-28.06.01-56.11-.01-84.17.12-2.12-.16-5.21 2.38-6.06m.74 95.67c9.63 0 19.25.01 28.88 0 0-6.63.01-13.25 0-19.87-4.88-.01-9.77-.01-14.65-.01v-16.88h12.64v-19.32h-12.64v-17.06c4.86 0 9.73.01 14.59-.01v-19.8c-9.61-.02-19.22 0-28.82-.01 0 30.99-.01 61.97 0 92.96m34.71-.01c4.82.02 9.65.01 14.48.01.84-5.13 1.68-10.26 2.42-15.4 5.03-.27 10.08-.27 15.11-.01.7 5.15 1.56 10.27 2.33 15.41h14.79c-5.52-30.99-11.03-61.98-16.6-92.96-5.32.01-10.63.01-15.95 0-5.5 30.99-11.1 61.96-16.58 92.95zm97.58-95.66c4.72-.92 9.58-.3 14.36-.46 5.87.19 11.89-.7 17.62 1.02 1.01 8 1.06 16.2-.04 24.2-4.53 1.18-9.23.91-13.85.91-.02 3.59-.02 7.19 0 10.79 3.5.11 7.09-.32 10.53.52 2.29 1.08 1.97 4.07 2.14 6.17-.1 6.12.59 12.36-1.03 18.34-3.86.52-7.75.58-11.64.57-.02 3.52-.02 7.05 0 10.58 4.65 0 9.39-.32 13.92.96 1.15 8.01 1.17 16.27-.02 24.28-5.76 1.56-11.77.76-17.65.93-5.44-.19-11.11.77-16.31-1.26-.25-2.78-.42-5.57-.41-8.37.02-27.69 0-55.38.01-83.07.14-2.14-.2-5.25 2.37-6.11m.74 95.67h28.87c0-6.62.01-13.25 0-19.88h-14.63c-.01-5.63-.01-11.25 0-16.88h12.64v-19.32h-12.64c-.01-5.69 0-11.37-.01-17.06h14.55v-19.82h-28.78z"/><path d="m29.73 36.12c3.16.66 7.15 1.36 8.27 4.92 1.39 4.27 1.55 9.31-.48 13.4-1.48 2.93-4.95 3.44-7.8 4.18-.07-7.5-.07-15 .01-22.5m3.24 3.64c-.3 4.99-.31 10.01-.01 15 3.94-3.97 3.93-11.02.01-15zm125.19-.38c1.8 13.27 2.97 26.62 5.14 39.84h-9.68c1.85-13.23 3.79-26.49 4.54-39.84m-.02 28.33c-.25 2.74-.52 5.48-.8 8.21.58-.01 1.75-.02 2.33-.03-.47-2.73-1-5.46-1.53-8.18zm114.26 25.05c.5-2.11.99-5.19 3.72-5.36 5.1-.58 10.28-.33 15.38.26.37 2.82.49 5.73-.48 8.46-3.44 10.84-6.71 21.74-10.08 32.6-.67 1.54-1.06 3.78-3.04 4.1-4.08 1.11-8.4.49-12.46-.41-.23-2.89-.23-5.81.44-8.65 2.26-10.32 4.35-20.67 6.52-31m3.75-2.48c-2.74 13.32-5.64 26.6-8.3 39.94h9.28c4.12-13.31 8.19-26.64 12.34-39.94-4.44-.01-8.88-.01-13.32 0zm-74.65 45.57c13.66-2.02 27.89-.42 40.66 4.92 15.85 6.51 29.31 18.58 37.58 33.58 7.86 14.12 11.02 30.79 8.86 46.81-2.05 16.24-9.6 31.71-21.08 43.38-10.64 10.93-24.64 18.58-39.62 21.49-16.53 3.34-34.15.96-49.2-6.67-15.7-7.89-28.52-21.36-35.54-37.48-6.17-14-7.97-29.88-5.07-44.91 3.1-16.64 12.01-32.09 24.79-43.18 10.81-9.5 24.39-15.8 38.62-17.94m-52.36 75.39c14.82.03 29.64-.02 44.47.03.41-6.8 3.99-13.11 9.74-16.79-7.47-12.82-14.84-25.7-22.28-38.54-19.44 11.12-32.02 32.9-31.93 55.3m73.51-16.76c5.75 3.68 9.32 9.99 9.74 16.79 14.82-.05 29.65 0 44.47-.03.09-22.4-12.49-44.18-31.93-55.3-7.44 12.84-14.81 25.72-22.28 38.54m-13.46 4.58c-5.48 1.61-9.38 7.25-8.92 12.94.21 6.5 6.18 12.24 12.72 11.93 7.62.41 14.09-7.35 12.6-14.77-.99-7.42-9.32-12.56-16.4-10.1m-5.9 28.95c-7.35 12.87-14.83 25.67-22.2 38.52 19.33 11.31 44.49 11.31 63.82 0-7.38-12.85-14.85-25.65-22.2-38.52-6.11 3.05-13.32 3.07-19.42 0zm-193.91-91.47c6.1-1.5 12.41-.78 18.62-.95 2.99.05 6.05-.21 8.97.53 1.9.26 2.36 2.37 2.93 3.87 2.44 8.38 4.5 16.86 7.01 25.22 2.56-9.56 4.82-19.23 7.85-28.66 6.29-1.56 12.8-.75 19.21-.96 3.14.1 6.48-.35 9.44.96 1.71 2.27.7 5.2 0 7.65-6.24 18.81-12.34 37.66-18.6 56.47-.76 2.41-1.76 4.79-2.02 7.33.32 2.76 1.42 5.35 2.25 7.99 6.79 20.62 13.38 41.29 20.16 61.91.67 2.24 1.47 4.62.92 6.98-1.57 2.37-4.7 1.78-7.12 1.96-6.59-.15-13.2.28-19.78-.25-2.64.03-3.4-2.86-4.05-4.88-2.77-9.75-5.59-19.49-8.28-29.27-3.23 10.08-6.01 20.3-9.14 30.41-.47 1.92-1.77 3.91-4 3.78-8.05.32-16.16.44-24.19-.25-2.35-5.41-.48-11.17 1.39-16.39 6.25-19.37 12.38-38.78 18.65-58.14.81-2.16.96-4.49.08-6.65-6.62-20.34-13.08-40.74-19.7-61.09-.87-2.43-.74-5.03-.6-7.57m2.28 2.24c7.16 22.31 14.3 44.63 21.53 66.91.58 1.56.81 3.25.15 4.83-7.01 21.88-13.98 43.77-21.03 65.63-.85 2.42-.82 5-.93 7.53 7.6.06 15.21.01 22.82.03 4.2-14.8 9.24-29.37 12.5-44.42 3.69 14.91 8.24 29.59 12.34 44.39 8.22.06 16.44.02 24.67.02-7.65-23.49-15.22-47-22.94-70.47-.69-2.43-2.13-5.01-.95-7.53 7.35-22.3 14.67-44.61 21.98-66.93-8.2-.01-16.4 0-24.6 0-3.44 13.17-7.22 26.25-10.37 39.49-3.24-13.23-6.94-26.35-10.54-39.48zm82.66-2.37c6.14-1.27 12.44-.68 18.66-.82 2.51.09 5.21-.19 7.51 1.04 1.43 1.34 1.14 3.5 1.32 5.27.03 43.71-.01 87.41.02 131.12-.08 4.49.55 9.2-1.33 13.43-8.62.55-17.31.64-25.93-.07-1.71-4.62-1.16-9.58-1.2-14.39 0-43.02 0-86.04-.01-129.07.01-2.21.44-4.38.96-6.51m2.18 147.3h22.23c-.01-48.31.01-96.62-.02-144.94-7.4.01-14.8.01-22.2.01-.03 48.31 0 96.62-.01 144.93z"/><path d="m197.13 19.12c6.1-4.92 14.9-3.29 21.1.59 0 6.97 0 13.94.03 20.91-3.36-2.36-6.92-5.48-11.31-5.07-4.15.63-5.26 5.73-4.47 9.21 1.41 6.55 7.14 10.65 10.8 15.86 4.56 6.29 8.25 13.49 8.75 21.37.95 10.34-1.47 22.17-10.12 28.81-6.34 4.84-15.3 3.49-21.53-.83-.1-7.27-.04-14.55-.1-21.83 3.66 2.75 7.63 6.33 12.57 5.63 3.46-.6 4.62-4.7 4.6-7.74.11-5.4-4.03-9.34-7.21-13.21-6.42-7.53-11.92-16.62-12.13-26.8-.58-9.56 1.27-20.45 9.02-26.9zm-181.68 92.38v-92.95c6.17.07 12.34-.09 18.5.06 5.79.09 11.17 3.43 14.26 8.24 5.34 7.93 5.95 18.01 4.92 27.25-.91 7.22-3.85 14.83-10.15 18.99-3.88 2.72-8.75 2.99-13.32 3.25.03 11.72.01 23.44.02 35.16zm14.28-75.38c-.08 7.5-.08 15-.01 22.5 2.85-.74 6.32-1.25 7.8-4.18 2.03-4.09 1.87-9.13.48-13.4-1.12-3.56-5.11-4.26-8.27-4.92zm34.53 75.38c.01-30.98 0-61.97 0-92.96h14.24v71.4h11.25c.02 7.19 0 14.37.01 21.56zm35.08 0c-.01-30.99 0-61.97 0-92.96 9.6.01 19.21-.01 28.82.01v19.8c-4.86.02-9.73.01-14.59.01v17.06h12.64v19.32h-12.64v16.88c4.88 0 9.77 0 14.65.01.01 6.62 0 13.24 0 19.87-9.63.01-19.25 0-28.88 0zm34.71-.01c5.48-30.99 11.08-61.96 16.58-92.95 5.32.01 10.63.01 15.95 0 5.57 30.98 11.08 61.97 16.6 92.96h-14.79c-.77-5.14-1.63-10.26-2.33-15.41-5.03-.26-10.08-.26-15.11.01-.74 5.14-1.58 10.27-2.42 15.4-4.83 0-9.66.01-14.48-.01m24.11-72.11c-.75 13.35-2.69 26.61-4.54 39.84h9.68c-2.17-13.22-3.34-26.57-5.14-39.84zm74.21 72.12v-92.96h28.78v19.82h-14.55c.01 5.69 0 11.37.01 17.06h12.64v19.32h-12.64c-.01 5.63-.01 11.25 0 16.88h14.63c.01 6.63 0 13.26 0 19.88zm43.78-21.22c4.44-.01 8.88-.01 13.32 0-4.15 13.3-8.22 26.63-12.34 39.94h-9.28c2.66-13.34 5.56-26.62 8.3-39.94zm-264.49 48.5h24.63c3.6 13.13 7.3 26.25 10.54 39.48 3.15-13.24 6.93-26.32 10.37-39.49 8.2 0 16.4-.01 24.6 0-7.31 22.32-14.63 44.63-21.98 66.93-1.18 2.52.26 5.1.95 7.53 7.72 23.47 15.29 46.98 22.94 70.47-8.23 0-16.45.04-24.67-.02-4.1-14.8-8.65-29.48-12.34-44.39-3.26 15.05-8.3 29.62-12.5 44.42-7.61-.02-15.22.03-22.82-.03.11-2.53.08-5.11.93-7.53 7.05-21.86 14.02-43.75 21.03-65.63.66-1.58.43-3.27-.15-4.83-7.23-22.28-14.37-44.6-21.53-66.91zm84.84 144.93c.01-48.31-.02-96.62.01-144.93 7.4 0 14.8 0 22.2-.01.03 48.32.01 96.63.02 144.94zm52.64-72.47c-.09-22.4 12.49-44.18 31.93-55.3 7.44 12.84 14.81 25.72 22.28 38.54-5.75 3.68-9.33 9.99-9.74 16.79-14.83-.05-29.65 0-44.47-.03zm73.51-16.76c7.47-12.82 14.84-25.7 22.28-38.54 19.44 11.12 32.02 32.9 31.93 55.3-14.82.03-29.65-.02-44.47.03-.42-6.8-3.99-13.11-9.74-16.79zm-13.46 4.58c7.08-2.46 15.41 2.68 16.4 10.1 1.49 7.42-4.98 15.18-12.6 14.77-6.54.31-12.51-5.43-12.72-11.93-.46-5.69 3.44-11.33 8.92-12.94zm-5.9 28.95c6.1 3.07 13.31 3.05 19.42 0 7.35 12.87 14.82 25.67 22.2 38.52-19.33 11.31-44.49 11.31-63.82 0 7.37-12.85 14.85-25.65 22.2-38.52z" fill="#f1cd43"/></svg>