<svg xmlns="http://www.w3.org/2000/svg" width="347pt" height="298pt" viewBox="0 0 347 298"><g fill="#fff"><path d="M190.07 5.32c5.64-1.11 11.39.7 17-.8 6.67-.11 13.35-.52 20.02-.22 5.56.95 11.18-.19 16.79.12 7.05.36 14.14-.29 21.16.5 11.2 2.27 22.79 2.06 33.91 4.79 6.88 2.7 13.78 5.48 20.22 9.15 6.08 3.89 10.07 10.17 13.82 16.18 10.2 17.76 12.33 39.36 8.19 59.22-1.16 10.83-7.26 20.12-12.79 29.19-5.02 6.44-9.5 13.73-16.62 18.08-6.57 2.97-13.47 5.13-20.03 8.13-7 3.03-14.6 3.95-22.04 5.29-9.87 1.06-19.71 2.46-29.66 2.54-3.06-.26-5.87 1.68-8.93.97-4.01-.56-8.08-1.03-12.12-.48-6.05.87-12.18.05-18.22.97-10.28-.14-20.55-1.35-30.85-1.1-6.65-.3-13.25 1.22-19.9.55-12.01.11-23.96-2.07-35.98-1.05-.84.3-1.35.87-1.52 1.72-1.03 12.29-2.22 24.58-2.9 36.89.29 16.22 3.86 32.25 9.04 47.57 4.41 12.41 9.81 24.63 18.15 34.94-2.33-2.39-4.41-5.03-7.11-7.02-4.77-3.69-7.8-8.99-11.83-13.38-6.05-6.49-9.68-14.73-13.39-22.66-6.54-12.83-8.04-27.38-9.94-41.44-.34-10.99-2.12-21.99-.76-32.97.24-1.8-.33-4.74-2.67-4.62-11.55-1.37-23.36-2.01-34.36-6.13-3.99-1.75-8.23-2.85-12.22-4.6-6.99-3.85-14.3-7.37-19.98-13.14-6.47-5.63-10.25-13.5-14.15-20.96-3.24-9.89-7.23-19.95-6.55-30.56.58-12.45 1.98-25.06 6.26-36.84 3.26-5.35 5.2-11.81 10.33-15.78 6.46-5.03 13.38-9.82 21.44-11.82 22.85-8.08 47.34-7.99 71.21-9.69 14.3-.46 28.62-.22 42.9-1.1 5.37-.01 10.78.43 16.13-.31 5.96-.71 11.97-.12 17.95-.13m29.56 25.39c-3.81 3.12-4.11 8.44-4.53 12.98-1.1 6.5-2.84 12.89-3.62 19.45.4.63 1.21 1.89 1.61 2.52 5.21.61 4.48-5.59 5.41-8.97 3.08-.76 6.35-2.2 9.49-1.79 1.53 3.16 1.62 6.9 2.96 10.17 1.14 2.27 4.89 1.84 5.59-.55.57-1.44-.15-2.91-.62-4.26-3.19-9.33-4.95-19.37-10.52-27.7-1.24-1.8-3.68-3.21-5.77-1.85m38.04.62c-.97 10.26 1.2 20.42.99 30.67-.23 1.55 1.28 2.46 2.09 3.54.71-.34 2.13-1.04 2.84-1.38.8-4.55.84-9.23.12-13.8 4.01.13 8.01-.05 12.01-.33.69 4.62 0 9.36 1.02 13.92.64.4 1.91 1.2 2.55 1.6 1.55-1.43 3.6-3.01 3.09-5.42-1.23-8.84-.58-17.83-2.25-26.61-.47-1.08-.63-2.9-2.14-2.97-1.42-.95-2.78 1.07-2.78 2.33-.3 3.76.15 7.53.25 11.3-4.04.31-8.07.61-12.12.66-.73-4.56-.4-9.23-1.16-13.77-1.28-1.68-3.17-.74-4.51.26m-58.8.39c-2.27 4.61-.58 9.78-.55 14.63-4.28.9-8.65.8-12.97 1.37.25-4.59-.66-9.11-1.28-13.63-.67-.9-1.39-1.76-2.16-2.57-.61.36-1.82 1.08-2.42 1.45-.46 9.74 1.53 19.46.47 29.16.24.99.49 1.98.75 2.97l2.57 1.49c.78-.6 1.48-1.28 2.12-2.03.55-3.69.54-7.43.24-11.14 4.22-.86 8.55-.45 12.78-1.19.66 3.71.9 7.48 1.34 11.22.47 3.29 5.67 2.86 5.67-.42-.01-5.36-1.54-10.61-1.54-15.98.08-5.27-.5-10.54-1.69-15.67-1.11.07-2.28-.09-3.33.34m96.18 1.07c-2.81 7.4-2.92 15.5-5.63 22.94-.65 2.3-1.83 4.72-1.11 7.14.61 1.53 2.26 2.01 3.77 1.56 1.85-1.74 1.93-4.45 2.74-6.71 3.35-.11 6.56-1.07 9.82-1.74 1.27 3.02 1.5 6.6 3.65 9.18 2.16 1.5 5.11-.75 4.32-3.21-2.66-8.66-4.46-17.68-8.63-25.8-1.29-2.38-2.96-5.38-6.03-5.45-1.45-.48-2.36 1.04-2.9 2.09m-193.61 9.33c-.27 2.66-.74 5.91 1.52 7.89 2.61 3.45 7.45 1.95 10.98 3.55 2.3.55 3.17 3.37 2.63 5.44-1.14 1.51-2.87 2.54-4.64 3.16-2.77-.05-5.37-1.32-8.12-1.55-2.37.36-3.53 3.69-1.25 5 4.86 2.46 11.38 3.69 15.86-.26 5.96-3.42 4.93-12.8-.37-16.32-3.67-1.66-7.74-1.77-11.63-2.56.12-1.94-.29-4.24 1.38-5.67 2.6-3.23 7.08-.35 10.41-1.71 1.26-2.36-1.41-3.31-3.05-4.21-5.57-2.32-12.59 1.26-13.72 7.24M76.89 37c-1.34 6.24-1.4 12.67-.66 19 .46 3.26-.45 7.7 3.21 9.42 4.1.7 8.34.09 12.49.16 1.69.21 2.61-1.34 3.69-2.32-.37-.71-1.11-2.12-1.48-2.83-3.93-.86-7.98-.66-11.92-.05-.47-2.32-.76-4.67-.95-7.03 3.43-.19 6.89-.13 10.28-.72.31-1.37.65-2.85-.27-4.1-3.33-.82-6.78-.27-10.15-.02-.06-2.92-.07-5.83.03-8.75 4.16.52 8.35.35 12.52.6.61-1.08 2.29-1.93 1.53-3.39-2.14-3.45-6.83-1.82-10.17-2.18-2.68.34-6.76-.84-8.15 2.21m-11.31-.5c-2.88 3.85-5.65 7.77-8.7 11.49-3.36-3.32-6.62-6.73-9.89-10.13-1.48-1.53-3.39-.49-4.59.77 3.35 5.73 7.55 11.02 12.83 15.07.78 3.74.39 7.65 1.45 11.35 1.06 1.85 3.68 1.85 4.81.07.68-4.33-.75-8.64-.88-12.95 2.79-4.81 7.19-8.73 8.9-14.15.6-2.46-2.74-3.53-3.93-1.52m68.59 30.35c2.38 1.78 4.17-1.17 5.38-2.86-1.11-1.05-1.63-3.62-3.54-3.27-3.35-.41-4.85 4.71-1.84 6.13m23.59-1.89c.38 4.04 7.98 3.45 7.13-.9.32-2.38-2.49-2.85-4.06-3.64-1.35 1.19-3.51 2.39-3.07 4.54m-11.91 1.09c.69 1.2 1.98 1.83 3.02 2.68 1.07-.57 2.11-1.2 3.1-1.9 1.27-1.8.63-5.28-1.96-5.23-2.41-.45-4.84 2.07-4.16 4.45M282.7 82.08c-2.33 8.81-5.51 17.41-7.07 26.4.65 1.06 1.26 2.16 2.2 3.01 3.67.71 4.32-3.79 5.44-6.27 3.43-7.98 3.69-16.86 7.04-24.84-.65-1.01-1.33-2-2.01-2.98-2.2 1.08-5.28 1.76-5.6 4.68m-113.23 4.81c3.84 5.94 6.49 12.56 10.86 18.18-2.26 4.37-3.7 9.11-4.96 13.85-.48 1.63-.56 4.55 1.72 4.74 2.08-.11 4.76.63 6.32-1.17.25-5.41 1.64-10.78 3.25-15.9 5.64-4.67 11.15-9.51 16.66-14.33 2.7-2.14-.26-5.04-1.37-7.16-1.55.09-3.06.46-4.06 1.75-4.4 4.48-9.2 8.57-13.31 13.33-2.03-4.4-4.83-8.37-7.06-12.66-1.17-1.7-1.94-4.55-4.52-4.17-1.45.88-2.47 2.26-3.53 3.54m76.6-.08c-4.9 2.77-7.67 9.39-5.27 14.65 2.65 4.15 7.99 4.71 11.72 7.45 2.06 2.21.09 4.96-1.29 6.91-2.27-.12-4.55-.08-6.78-.52-2.99-.62-5.62-3.97-8.74-1.82-.31.65-.94 1.96-1.25 2.61 1.07 1.96 2.04 4.22 4.11 5.36 7.43 3.94 18.62 2.6 22.66-5.52.8-3.91.21-8.56-2.82-11.44-3.38-3.16-8.54-3.17-12.12-5.86-.44-2.49 1.38-4.78 3.52-5.82 3.82-2.62 8.44-.43 12.5.39.47-.21 1.41-.62 1.88-.82.31-.62.92-1.86 1.23-2.47-1.65-3.64-5.74-4.63-9.39-4.66-3.35.02-7.05-.48-9.96 1.56m-31.09-.44c-1.28.02-2.3.53-3.07 1.53-2.61 3.12-3.78 7.1-4.95 10.91-1.92 4.99-3.2 10.2-4.94 15.25-.94 2.69-1.04 5.56-.7 8.37 5.73 1.53 11.86.72 17.75.77 3.47.11 5.75-2.75 7.49-5.34-.99-1.24-1.61-3.44-3.54-3.39-4.79-.34-9.61.18-14.42.24 1.3-2.75 2.27-5.64 3.2-8.53 4.07.16 8.15.44 12.24.28 2.62-.71 2.15-3.9 1.45-5.91-3.7-1.03-7.58-.76-11.34-.31.67-2.26 1.28-4.53 1.97-6.79 5.35-.17 10.73.54 16.06-.3 3.15-.91 4.55-5.57 1.48-7.45-6.24-.07-12.47.2-18.68.67M86.97 89.85c-4.01 10.63-10.74 20.14-13.31 31.31 1.2 1.44 3.31 3.4 4.93 1.28 1.59-2.43 1.9-5.53 3.23-8.13 4.74-.46 9.48-.91 14.25-.64 1.81 3.64 2.04 8.44 5.62 10.9.74-.39 2.21-1.17 2.95-1.55.62-4.57-2.23-8.42-3.39-12.62-2.64-7.21-4.75-14.61-8.14-21.52-1.17-2.82-5.76-1.93-6.14.97m-44.38 2.14c.72 7.63 1.58 15.26 1.94 22.92.37 3.2.08 7.17 3.44 8.89 1.11-1.02 3.18-1.87 2.74-3.75-.19-3.53-.67-7.04-.96-10.56 4.44.47 8.9.52 13.34.09.65 4.08.4 8.28 1.29 12.32.87 2.74 5.31 1.87 5.24-.95.56-5.7-1.41-11.27-1.1-16.97.19-4.65-.94-9.21-1.05-13.85-.19-2.45-3.96-2.37-4.45-.07-1.46 4.35-.17 9.06-.22 13.55-4.37 1.05-8.88.84-13.34.74-1.09-5.38.29-12.26-4.46-16.12-1.02 1.05-2.9 1.96-2.41 3.76m72.78 24.49c-1.7 1.78-1.67 5.62.76 6.8 2.62 1.01 5.53-1.52 5.28-4.21.39-3.05-4.14-5.13-6.04-2.59m27.12 5.74c1 1.19 2.08 2.31 3.25 3.34 2.61-1.15 4.96-2.88 5.92-5.69-1.09-1.54-2.41-3.63-4.62-3.3-2.9.15-3.68 3.45-4.55 5.65m129.14-.23c-.43 3.77 5.54 5.13 6.92 1.68 1.99-2.76-.42-5.82-2.87-7.15-2.28.89-4.6 2.68-4.05 5.47m-141.66-2.88c-1.64 2.07-.31 4.59.97 6.44 2.58-.13 5.7-1.54 5.39-4.63.49-3.4-4.75-4.59-6.36-1.81m37.67 15.71c.26.61.77 1.84 1.03 2.45.52.29 1.55.86 2.06 1.15 6.42-.88 12.81-.37 19.22.33 7.37.07 14.75-.36 22.12-.28 9.63-.1 19.26-1.2 28.88-.28 6.69-.99 13.52.37 20.17-.88 2.98-1.85 2.35-8.82-2.06-7.93-11.38.55-22.78-.02-34.13.87-6.32.3-12.66.36-18.98 0-11.6-.36-23.22.02-34.82.3-2.21.05-2.6 2.74-3.49 4.27z"/><path d="M219.53 51.03c1.43-4.78 1.39-9.81 2.21-14.69 1.55 4.38 3.3 8.69 4.97 13.04-2.4.55-4.79 1.1-7.18 1.65zm79.43-12.41c1.72 3.99 3.25 8.09 4.31 12.31-2.34.54-4.65 1.19-6.95 1.84 1.06-4.68 1.71-9.44 2.64-14.15zM90.1 95.72c1.43 4.02 2.21 8.26 4.33 12.02-3.45-.04-6.88.38-10.27 1.02 2.67-4.01 4.15-8.61 5.94-13.04z"/></g><g fill="#010101"><path d="M208.55 0h48.52c9.88 1.66 19.89 2.27 29.78 3.82 5.93.29 11.88 1.34 17.33 3.78 8.36 3.47 17.46 6.55 23.72 13.43 5.84 7.23 11.07 15.15 14.08 24 2.35 6.46 3.62 13.23 5.02 19.94v19.25c-1.78 7.85-1.92 16.15-5.4 23.55-3.93 8.57-8.64 16.87-14.62 24.19-4.05 5.2-8.3 10.63-14.37 13.58-5.4 2.46-11.06 4.27-16.51 6.61-13.14 6.07-27.83 6.76-41.95 8.77-7.07-.16-14.02 1.28-21.06 1.6-5.76-.58-11.56-.67-17.33-.3-8.54 1.25-17.21.9-25.79.66-6.92-1.3-13.97-.7-20.96-.82-4.43.04-8.89-.29-13.27.54-2.54.61-5.06-.2-7.59-.43-5.18-.41-10.42.31-15.57-.5-5.46-1.07-11.04-.47-16.56-.62.47 6.73-1.45 13.29-1.07 20.02-2.44 16.91-.5 34.25 4.28 50.6 3.31 12.42 8.03 24.49 14.47 35.62 3.34 5.21 8.25 9.15 12 14.05 3.89 5.19 9.25 9 13.22 14.12-6.54-.56-11.25-5.57-16.48-8.95-4.23-2.66-7.34-6.72-11.62-9.31-3.23-1.97-5.95-4.63-8.78-7.11-2.12-3.45-4.69-6.58-7.39-9.59-6.79-7.55-10.83-17.03-15.07-26.14-6.14-13.27-7.26-28.03-9.43-42.29-.45-4.77.31-9.62-.74-14.33-.74-5.82-.79-11.84.64-17.56-13.1-.93-26.38-2.56-38.62-7.62-16.3-5.77-32.52-15.58-40.52-31.54C5.08 111.67 2.59 100.77 0 90.19V73.85c1.39-7.38 1.56-14.98 3.72-22.23 1.61-8.25 6.02-15.54 10.42-22.55 4.98-5.55 11.56-9.47 17.99-13.12C46.64 9.7 62.34 6.82 77.94 5.07c6.38.37 12.63-.98 18.98-1.26 9.37-1.56 18.9-.2 28.32-.97 6.51-1.29 13.17-.65 19.76-.78 8.05-.12 16.11.23 24.15-.17 13.01-2.32 26.45.8 39.4-1.89m-18.48 5.32c-5.98.01-11.99-.58-17.95.13-5.35.74-10.76.3-16.13.31-14.28.88-28.6.64-42.9 1.1-23.87 1.7-48.36 1.61-71.21 9.69-8.06 2-14.98 6.79-21.44 11.82-5.13 3.97-7.07 10.43-10.33 15.78-4.28 11.78-5.68 24.39-6.26 36.84-.68 10.61 3.31 20.67 6.55 30.56 3.9 7.46 7.68 15.33 14.15 20.96 5.68 5.77 12.99 9.29 19.98 13.14 3.99 1.75 8.23 2.85 12.22 4.6 11 4.12 22.81 4.76 34.36 6.13 2.34-.12 2.91 2.82 2.67 4.62-1.36 10.98.42 21.98.76 32.97 1.9 14.06 3.4 28.61 9.94 41.44 3.71 7.93 7.34 16.17 13.39 22.66 4.03 4.39 7.06 9.69 11.83 13.38 2.7 1.99 4.78 4.63 7.11 7.02-8.34-10.31-13.74-22.53-18.15-34.94-5.18-15.32-8.75-31.35-9.04-47.57.68-12.31 1.87-24.6 2.9-36.89.17-.85.68-1.42 1.52-1.72 12.02-1.02 23.97 1.16 35.98 1.05 6.65.67 13.25-.85 19.9-.55 10.3-.25 20.57.96 30.85 1.1 6.04-.92 12.17-.1 18.22-.97 4.04-.55 8.11-.08 12.12.48 3.06.71 5.87-1.23 8.93-.97 9.95-.08 19.79-1.48 29.66-2.54 7.44-1.34 15.04-2.26 22.04-5.29 6.56-3 13.46-5.16 20.03-8.13 7.12-4.35 11.6-11.64 16.62-18.08 5.53-9.07 11.63-18.36 12.79-29.19 4.14-19.86 2.01-41.46-8.19-59.22-3.75-6.01-7.74-12.29-13.82-16.18-6.44-3.67-13.34-6.45-20.22-9.15-11.12-2.73-22.71-2.52-33.91-4.79-7.02-.79-14.11-.14-21.16-.5-5.61-.31-11.23.83-16.79-.12-6.67-.3-13.35.11-20.02.22-5.61 1.5-11.36-.31-17 .8z"/><path d="M219.63 30.71c2.09-1.36 4.53.05 5.77 1.85 5.57 8.33 7.33 18.37 10.52 27.7.47 1.35 1.19 2.82.62 4.26-.7 2.39-4.45 2.82-5.59.55-1.34-3.27-1.43-7.01-2.96-10.17-3.14-.41-6.41 1.03-9.49 1.79-.93 3.38-.2 9.58-5.41 8.97-.4-.63-1.21-1.89-1.61-2.52.78-6.56 2.52-12.95 3.62-19.45.42-4.54.72-9.86 4.53-12.98m-.1 20.32c2.39-.55 4.78-1.1 7.18-1.65-1.67-4.35-3.42-8.66-4.97-13.04-.82 4.88-.78 9.91-2.21 14.69zm38.14-19.7c1.34-1 3.23-1.94 4.51-.26.76 4.54.43 9.21 1.16 13.77 4.05-.05 8.08-.35 12.12-.66-.1-3.77-.55-7.54-.25-11.3 0-1.26 1.36-3.28 2.78-2.33 1.51.07 1.67 1.89 2.14 2.97 1.67 8.78 1.02 17.77 2.25 26.61.51 2.41-1.54 3.99-3.09 5.42-.64-.4-1.91-1.2-2.55-1.6-1.02-4.56-.33-9.3-1.02-13.92-4 .28-8 .46-12.01.33.72 4.57.68 9.25-.12 13.8-.71.34-2.13 1.04-2.84 1.38-.81-1.08-2.32-1.99-2.09-3.54.21-10.25-1.96-20.41-.99-30.67zm-58.8.39c1.05-.43 2.22-.27 3.33-.34 1.19 5.13 1.77 10.4 1.69 15.67 0 5.37 1.53 10.62 1.54 15.98 0 3.28-5.2 3.71-5.67.42-.44-3.74-.68-7.51-1.34-11.22-4.23.74-8.56.33-12.78 1.19.3 3.71.31 7.45-.24 11.14-.64.75-1.34 1.43-2.12 2.03l-2.57-1.49c-.26-.99-.51-1.98-.75-2.97 1.06-9.7-.93-19.42-.47-29.16.6-.37 1.81-1.09 2.42-1.45.77.81 1.49 1.67 2.16 2.57.62 4.52 1.53 9.04 1.28 13.63 4.32-.57 8.69-.47 12.97-1.37-.03-4.85-1.72-10.02.55-14.63zm96.18 1.07c.54-1.05 1.45-2.57 2.9-2.09 3.07.07 4.74 3.07 6.03 5.45 4.17 8.12 5.97 17.14 8.63 25.8.79 2.46-2.16 4.71-4.32 3.21-2.15-2.58-2.38-6.16-3.65-9.18-3.26.67-6.47 1.63-9.82 1.74-.81 2.26-.89 4.97-2.74 6.71-1.51.45-3.16-.03-3.77-1.56-.72-2.42.46-4.84 1.11-7.14 2.71-7.44 2.82-15.54 5.63-22.94m3.91 5.83c-.93 4.71-1.58 9.47-2.64 14.15 2.3-.65 4.61-1.3 6.95-1.84-1.06-4.22-2.59-8.32-4.31-12.31zm-197.52 3.5c1.13-5.98 8.15-9.56 13.72-7.24 1.64.9 4.31 1.85 3.05 4.21-3.33 1.36-7.81-1.52-10.41 1.71-1.67 1.43-1.26 3.73-1.38 5.67 3.89.79 7.96.9 11.63 2.56 5.3 3.52 6.33 12.9.37 16.32-4.48 3.95-11 2.72-15.86.26-2.28-1.31-1.12-4.64 1.25-5 2.75.23 5.35 1.5 8.12 1.55 1.77-.62 3.5-1.65 4.64-3.16.54-2.07-.33-4.89-2.63-5.44-3.53-1.6-8.37-.1-10.98-3.55-2.26-1.98-1.79-5.23-1.52-7.89zM76.89 37c1.39-3.05 5.47-1.87 8.15-2.21 3.34.36 8.03-1.27 10.17 2.18.76 1.46-.92 2.31-1.53 3.39-4.17-.25-8.36-.08-12.52-.6-.1 2.92-.09 5.83-.03 8.75 3.37-.25 6.82-.8 10.15.02.92 1.25.58 2.73.27 4.1-3.39.59-6.85.53-10.28.72.19 2.36.48 4.71.95 7.03 3.94-.61 7.99-.81 11.92.05.37.71 1.11 2.12 1.48 2.83-1.08.98-2 2.53-3.69 2.32-4.15-.07-8.39.54-12.49-.16-3.66-1.72-2.75-6.16-3.21-9.42-.74-6.33-.68-12.76.66-19zm-11.31-.5c1.19-2.01 4.53-.94 3.93 1.52-1.71 5.42-6.11 9.34-8.9 14.15.13 4.31 1.56 8.62.88 12.95-1.13 1.78-3.75 1.78-4.81-.07-1.06-3.7-.67-7.61-1.45-11.35-5.28-4.05-9.48-9.34-12.83-15.07 1.2-1.26 3.11-2.3 4.59-.77 3.27 3.4 6.53 6.81 9.89 10.13 3.05-3.72 5.82-7.64 8.7-11.49zm68.59 30.35c-3.01-1.42-1.51-6.54 1.84-6.13 1.91-.35 2.43 2.22 3.54 3.27-1.21 1.69-3 4.64-5.38 2.86zm23.59-1.89c-.44-2.15 1.72-3.35 3.07-4.54 1.57.79 4.38 1.26 4.06 3.64.85 4.35-6.75 4.94-7.13.9zm-11.91 1.09c-.68-2.38 1.75-4.9 4.16-4.45 2.59-.05 3.23 3.43 1.96 5.23-.99.7-2.03 1.33-3.1 1.9-1.04-.85-2.33-1.48-3.02-2.68zM282.7 82.08c.32-2.92 3.4-3.6 5.6-4.68.68.98 1.36 1.97 2.01 2.98-3.35 7.98-3.61 16.86-7.04 24.84-1.12 2.48-1.77 6.98-5.44 6.27-.94-.85-1.55-1.95-2.2-3.01 1.56-8.99 4.74-17.59 7.07-26.4zm-113.23 4.81c1.06-1.28 2.08-2.66 3.53-3.54 2.58-.38 3.35 2.47 4.52 4.17 2.23 4.29 5.03 8.26 7.06 12.66 4.11-4.76 8.91-8.85 13.31-13.33 1-1.29 2.51-1.66 4.06-1.75 1.11 2.12 4.07 5.02 1.37 7.16-5.51 4.82-11.02 9.66-16.66 14.33-1.61 5.12-3 10.49-3.25 15.9-1.56 1.8-4.24 1.06-6.32 1.17-2.28-.19-2.2-3.11-1.72-4.74 1.26-4.74 2.7-9.48 4.96-13.85-4.37-5.62-7.02-12.24-10.86-18.18zm76.6-.08c2.91-2.04 6.61-1.54 9.96-1.56 3.65.03 7.74 1.02 9.39 4.66-.31.61-.92 1.85-1.23 2.47-.47.2-1.41.61-1.88.82-4.06-.82-8.68-3.01-12.5-.39-2.14 1.04-3.96 3.33-3.52 5.82 3.58 2.69 8.74 2.7 12.12 5.86 3.03 2.88 3.62 7.53 2.82 11.44-4.04 8.12-15.23 9.46-22.66 5.52-2.07-1.14-3.04-3.4-4.11-5.36.31-.65.94-1.96 1.25-2.61 3.12-2.15 5.75 1.2 8.74 1.82 2.23.44 4.51.4 6.78.52 1.38-1.95 3.35-4.7 1.29-6.91-3.73-2.74-9.07-3.3-11.72-7.45-2.4-5.26.37-11.88 5.27-14.65zm-31.09-.44c6.21-.47 12.44-.74 18.68-.67 3.07 1.88 1.67 6.54-1.48 7.45-5.33.84-10.71.13-16.06.3-.69 2.26-1.3 4.53-1.97 6.79 3.76-.45 7.64-.72 11.34.31.7 2.01 1.17 5.2-1.45 5.91-4.09.16-8.17-.12-12.24-.28-.93 2.89-1.9 5.78-3.2 8.53 4.81-.06 9.63-.58 14.42-.24 1.93-.05 2.55 2.15 3.54 3.39-1.74 2.59-4.02 5.45-7.49 5.34-5.89-.05-12.02.76-17.75-.77-.34-2.81-.24-5.68.7-8.37 1.74-5.05 3.02-10.26 4.94-15.25 1.17-3.81 2.34-7.79 4.95-10.91.77-1 1.79-1.51 3.07-1.53zM86.97 89.85c.38-2.9 4.97-3.79 6.14-.97 3.39 6.91 5.5 14.31 8.14 21.52 1.16 4.2 4.01 8.05 3.39 12.62-.74.38-2.21 1.16-2.95 1.55-3.58-2.46-3.81-7.26-5.62-10.9-4.77-.27-9.51.18-14.25.64-1.33 2.6-1.64 5.7-3.23 8.13-1.62 2.12-3.73.16-4.93-1.28 2.57-11.17 9.3-20.68 13.31-31.31m3.13 5.87c-1.79 4.43-3.27 9.03-5.94 13.04 3.39-.64 6.82-1.06 10.27-1.02-2.12-3.76-2.9-8-4.33-12.02zm-47.51-3.73c-.49-1.8 1.39-2.71 2.41-3.76 4.75 3.86 3.37 10.74 4.46 16.12 4.46.1 8.97.31 13.34-.74.05-4.49-1.24-9.2.22-13.55.49-2.3 4.26-2.38 4.45.07.11 4.64 1.24 9.2 1.05 13.85-.31 5.7 1.66 11.27 1.1 16.97.07 2.82-4.37 3.69-5.24.95-.89-4.04-.64-8.24-1.29-12.32-4.44.43-8.9.38-13.34-.09.29 3.52.77 7.03.96 10.56.44 1.88-1.63 2.73-2.74 3.75-3.36-1.72-3.07-5.69-3.44-8.89-.36-7.66-1.22-15.29-1.94-22.92zm72.78 24.49c1.9-2.54 6.43-.46 6.04 2.59.25 2.69-2.66 5.22-5.28 4.21-2.43-1.18-2.46-5.02-.76-6.8zm27.12 5.74c.87-2.2 1.65-5.5 4.55-5.65 2.21-.33 3.53 1.76 4.62 3.3-.96 2.81-3.31 4.54-5.92 5.69a31.058 31.058 0 0 1-3.25-3.34zm129.14-.23c-.55-2.79 1.77-4.58 4.05-5.47 2.45 1.33 4.86 4.39 2.87 7.15-1.38 3.45-7.35 2.09-6.92-1.68zm-141.66-2.88c1.61-2.78 6.85-1.59 6.36 1.81.31 3.09-2.81 4.5-5.39 4.63-1.28-1.85-2.61-4.37-.97-6.44zm37.67 15.71c.89-1.53 1.28-4.22 3.49-4.27 11.6-.28 23.22-.66 34.82-.3 6.32.36 12.66.3 18.98 0 11.35-.89 22.75-.32 34.13-.87 4.41-.89 5.04 6.08 2.06 7.93-6.65 1.25-13.48-.11-20.17.88-9.62-.92-19.25.18-28.88.28-7.37-.08-14.75.35-22.12.28-6.41-.7-12.8-1.21-19.22-.33-.51-.29-1.54-.86-2.06-1.15-.26-.61-.77-1.84-1.03-2.45z"/></g></svg>