<svg clip-rule="evenodd" fill-rule="evenodd" viewBox="0 0 811 695" xmlns="http://www.w3.org/2000/svg"><g fill-rule="nonzero" stroke-width=".09" transform="translate(.193271 -60.1938)"><path d="m478.94 450.36c2.08-.66 4.98-2.43 6.45.17.44 2.56 1.33 5.01 2.42 7.36-3.23-2.16-6.67-4.23-8.87-7.53z" fill="#8d8b85" stroke="#b39385"/><g fill="#020101" stroke="#020101"><path d="m346.35 77.48c9.74-5.37 17.56-14.33 28.71-16.98 1.55-.55 3.2 1.01 3.48 2.48-.85 4.02-2.8 7.71-3.66 11.74 6.76-.28 13.37-1.85 20.08-2.6 9.3-1.63 18.74-2.35 28.02-4.12 7.3-.61 14.8-2.22 22.01-.18.52 2.3.67 4.68 1.28 6.97 6.93.07 13.8-1.22 20.73-1.1 9.3.04 18.61-.46 27.9.19 13.21 1.11 26.24 3.73 39.33 5.81 11.72 2.34 23.65 3.61 35.18 6.86 9.63 1.94 19.26 3.97 28.98 5.44 2.15.14 3.25 2.05 4.45 3.57-3.96 4.78-10.25 5.58-15.8 7.35 1.17 1.77 2.37 3.64 4.22 4.79 6.06 3.95 12.33 7.62 18.1 11.99 4.82 4.39 9.93 8.47 14.59 13.05 2.99-.82 5.96-1.77 8.86-2.91 6.66-2.87 14.05-2.74 21.07-4.16 2.78-.35 7.32-1.08 8.17 2.56 1.44 6.65-.52 13.53.65 20.22.93 1.89 2.41 3.46 4 4.83 6.89 5.51 15.23 8.65 23.43 11.62 5.66 2.29 11.69 4.02 16.53 7.89-2.42 2.39-5.24 4.39-8.52 5.35-5.23 1.65-10.13 4.12-14.89 6.81 2.11 11.11 11.81 17.98 18.54 26.26 6.07 7.56 12.9 14.42 19.38 21.61 8 10.24 17.06 19.59 26.56 28.43 6.62 6.43 13.34 12.8 20.74 18.34 7.92 6.91 17.17 12.03 25.43 18.49 3.9 3.1 8.49 5.53 11.53 9.58 1.36 1.7.85 4.76-1.35 5.44-5.13 2.36-10.75-.3-16.11.38-1.71-.31-3.25.85-3.47 2.55.9 3.83 2.95 7.23 4.64 10.75 5.88 12.7 12.04 25.45 14.86 39.26 1.61 7.95 4.65 15.7 4.58 23.91.03 6.69 1.09 13.36.19 20.04.12 11.48-2.99 22.62-4.39 33.95-1.59 11.53-6.29 22.36-12.27 32.27-4.84 9.32-11.89 17.26-19.47 24.44-5.57 5.24-12.71 8.44-18.05 13.95-3.09 2.69-6.24 6.57-10.54 6.79-6.13-2.9-4.96-11.03-5.77-16.64-5.29 3.08-9.56 7.59-14.81 10.74-8.38 6.46-17.94 11.1-27.56 15.39-2.02.79-4.35 1.67-6.47.78-2.28-1.18-3.91-3.23-5.76-4.93-1.68 7.25-3.7 14.41-5.22 21.7-.07 1.21-.86 2.69.05 3.76 3.96 1.93 8.2 3.23 12.14 5.22 12.35 5.9 22.48 15.34 32.46 24.53 4.01 3.62 7.91 7.45 12.46 10.42 5.51 3.66 12.26 4.37 18.29 6.85 7.93 3.26 16.48 4.44 24.89 5.86 5.49.91 10.61 3.21 15.59 5.63 6.42 3.06 11.48 8.33 15.66 13.98v8.72c-4.19-4.92-8.13-10.12-12.93-14.47-2.44-2.28-6.04-1.57-9.06-1.88-8.06-.05-15.85-2.3-23.75-3.56.81.68 1.68 1.39 2.35 2.27-8.81-4.83-18.25-8.4-26.88-13.56-6.58-3.48-12.44-8.11-18.19-12.77-5.53-4.48-8.87-11.11-14.69-15.27-8.82-5.99-17.48-12.49-27.69-15.94-1.29 2.61-2.21 5.52-4.22 7.69-1.79.95-3.97.51-5.91.61-5.62-.31-11.25-.07-16.83.69-.68 3.84-1.89 7.72-1.49 11.67.83 3.58 3.61 6.43 4.06 10.15.32 3.23.38 6.92-1.63 9.66-1.84.63-3.83.63-5.74.84-3.09 7.99-5.8 16.3-5.89 24.95-.19 3.61-.22 9.24-4.75 10.05-14.68-.24-28.81-4.77-42.84-8.64-6.86-2.01-13.03-5.83-19.9-7.8-3.24-.99-6.54-1.9-9.5-3.59-3.27-1.74-6.27-4.21-9.98-4.94-1.88-.37-3.35 1.16-4.74 2.17-4.86 4.13-9.28 8.75-14.23 12.77-3.05 2.59-6.56 5.04-8.13 8.88-4 10.01-5.15 20.81-6.99 31.35-3.36 15.24-5.75 30.66-8.59 46-1.68 14.83-4.84 29.43-6.51 44.27h-6.13c1.75-4.77 1.97-9.88 2.32-14.89.4-6.22 2.72-12.11 3.19-18.32.73-8.76 2.86-17.3 4.03-25.99 1.47-9.87 3.25-19.69 5.7-29.37 1.51-8.58 2.63-17.22 4.49-25.73-7.34 4.57-12.26 11.92-19.1 17.11-4.98 3.85-10.04 9.07-16.82 8.85-5.8-.26-11.45-1.94-16.84-3.97-6.75-2.98-12.81-7.41-19.76-9.94-1.57-.78-2.95.67-4.22 1.38-4.29 3.04-8.62 6.04-12.6 9.49-5.9 5.2-12.75 9.19-18.73 14.28-2.89 2.5-2.85 6.83-5.39 9.59-5.63 5.75-13.27 9.61-17.41 16.73-2.94 4.86-7.22 8.69-10.62 13.22-5.93 8.03-11.74 16.17-18.44 23.59-3.96 4.26-6.91 9.3-10.35 13.97h-7.67c2.61-5.45 6.8-9.87 10.06-14.91 6.51-9.67 13.37-19.17 21.11-27.91 3.23-3.12 5.93-6.69 8.68-10.22-7.7 4.71-16.91 6.74-25.89 6.45-2.25-.16-4.79.83-6.82-.51-4.91-3.01-9.55-6.44-14.24-9.77-3 3.58-6.28 6.93-9.01 10.73-2.65 3.32-5 7.18-8.88 9.21-3.64 1.94-7.53-1.28-11.31-.19-2.66.29-5.98 1.86-8.15-.48-2.92-2.33-2.94-6.31-3.56-9.66-.2-5.19-4.81-8.38-7.39-12.43-2.22 8.88-5 17.65-9.1 25.86-3.11 7.57-5.68 15.41-9.73 22.56-2.17 3.8-3.09 8.51-6.78 11.27h-3.6c2.67-9.19 7.46-17.56 11.11-26.36 4.9-11.66 10.71-23.12 12.93-35.67.72-3.1-1.65-5.38-3.46-7.51-5.33 3.9-10.06 9.82-17.08 10.33-10.2-.4-19.22-5.94-27.61-11.23 1.07 6.89-.47 13.76-1.51 20.55-.69 4.91-3.41 9.19-4.45 14.01.11-9.34.13-18.7.01-28.04-4.42 5.05-8.59 10.35-12.39 15.89-5.82 6.87-11.49 13.88-17.2 20.85-4.11 5.8-9.25 10.73-13.55 16.37-3.07 3.44-6.09 6.93-9.41 10.14.02-2.27 1.06-4.29 2.56-5.93 11.71-13.53 20.86-29 32.14-42.86 5.72-8.53 13.2-16.25 16.09-26.35-7.27-6.32-14.92-12.22-21.7-19.08-4.77-4.6-8.79-9.95-13.89-14.22-7.54 4.26-14.35 9.66-21.39 14.67-5.9 4.41-11.07 9.72-17.22 13.81-6.32 4.25-11.82 9.57-18.1 13.89-2.37 1.64-4.59 3.63-5.76 6.33-3.08 6.62-5.45 13.57-7.36 20.61-1.49 5.55-3.96 10.75-5.72 16.21-2.43 7.87-4.95 15.7-7.32 23.59h-6.27c3.93-9.71 6.28-19.96 9.49-29.9 2.12-6.08 4.67-11.99 6.66-18.11 1.99-5.83 3.38-12 6.85-17.19 2.9-4.44 7.76-6.93 11.75-10.24 8.63-7.07 17.93-13.3 26.28-20.71 7.79-6.69 16.57-12.08 24.91-18.03-4.19-5.35-8.58-10.54-12.47-16.11-3.37-4.32-6.36-9.49-11.48-11.92-7.68-.06-13.96 5.73-21.62 6.29-2.81-3.8-3.42-8.51-3.8-13.07-9 2.83-18.24 5.25-26.59 9.74-5.24 2.62-6.4 8.9-9.82 13.19-5.66 7.6-10.07 16-15.12 23.99-4.88 6.89-8.65 14.49-13.51 21.4-4.2 5.93-7.21 12.81-12.86 17.58-.99-1.7-1.96-3.39-2.94-5.08 11.77-15.13 21.2-31.87 31.17-48.18 5.32-7.76 9.46-16.27 15.15-23.78 2.61-3.33 6.56-5.18 10.44-6.62 7.04-2.56 14.09-5.13 21.21-7.5-1.48-3.72-2.95-7.78-5.88-10.57-3.62-.75-7.88-.31-10.68-3.2-3.23-3.53-5.35-8-6.45-12.63-2.16-6.53-.92-13.48-1.42-20.21-3.42.88-9.67 3.79-10.71-1.53-.96-9.32 1.12-18.55 2.57-27.7-1.46-.52-2.95-.96-4.33-1.66-3.64-1.8-1.64-6.64-2.03-9.87-6.65-.4-13.61 1.26-20.02-.92-2.32-2.86-1.34-6.98-1.15-10.36 2.3-10.63 8.17-20.02 11.71-30.24-2.73-.16-5.46-.16-8.19-.35-3.26-.05-5.47-3.5-8.88-2.91-5.61.5-11.2-.12-16.65-1.47.04-1.51.01-3.04.25-4.53 1.67-2.43 4.54-3.62 6.92-5.22 7.33-4.65 14.66-9.32 21.94-14.04.58-2.64-1.59-4.97-2.31-7.41-3.19-8.76-3.5-18.21-5.15-27.32-.83-3.83-.35-7.75.31-11.56-5.08.79-9.59 3.44-14.54 4.61-3.11.93-3.99-2.97-3.35-5.25 1.69-7.63 6.74-13.87 10.48-20.58 1.05-2.26 4.07-3.77 3.84-6.44-2.5-2.14-6.27-3.4-7.21-6.89-.52-2.68 1.67-4.76 3.47-6.39 6-5.36 12.81-9.8 18.41-15.61 3.76-3.91 7.8-7.61 11.07-11.95.7-1 1.8-2.61.65-3.68-5.23-5.61-12.63-8.33-19.22-11.95-3.71-1.6-5.41-7.31-2.27-10.21 5.8-6.24 10.55-13.36 16.52-19.44 6.35-6.8 11.56-14.52 16.78-22.2 3.24-5.1 5.07-10.9 7.71-16.3 3.28-6.78 5.32-14.06 7.67-21.2.96-3.56 1.98-7.64.31-11.13-2.61-2.96-6.82-3.6-10.32-5.07-.85-2.89.11-5.75 1.97-8.02 5.06-6.78 9.25-14.15 13.79-21.27 8.9-11.75 15.91-24.77 23.73-37.22 2.25-3.85 6.52-5.56 10.03-7.99 5.24-3.96 12.11-2.02 18.13-1.89 8.47-.35 15.44 4.93 23.18 7.33 2.62.58 5.41-1.76 5.38-4.44.99-7.71-4.65-14.64-3.21-22.35.87-2.71 3.95-3.76 6.54-3.87 5.53-.12 11.1.41 16.61-.41 4.79-.84 9.66-.66 14.5-.97 1.36-2.73 2.68-5.49 4.24-8.12 4.38-7.06 7.92-15 14.77-20.1 2.42-2.29 6.59-4.1 9.43-1.49 4.94 4.58 9.32 10.39 16.22 12.06 2.57-3.36 5.04-6.92 8.54-9.39 4.8-3.4 10.38-5.46 15.88-7.43 5.39-1.96 11.23-1.48 16.86-1.35 5.97.76 11.4 3.76 16.37 7.03m8.64.46c-4.86 2.22-9.26 5.25-13.68 8.22.02-1.45.05-2.9.07-4.35-3.87-2.01-7.82-4.5-12.34-4.39-3.36-.01-6.72-.18-10.07-.03-3.93.14-7.24 2.58-11 3.4-2.12.09-4.22-.36-6.33-.23-3.24 3.31-5.42 7.45-7.79 11.38-1.67 2.91-4.87 4.34-7.86 5.49-.26-1.3-.52-2.6-.77-3.9-7.33-3.15-13.26-8.71-17.77-15.22-4.65 5.24-7.73 11.61-11.79 17.29-3.9 5.67-7.22 11.96-12.25 16.72-10.75.42-21.44 1.85-32.21 2.08.64 8.67 6.32 17.86 1.39 26.22-3.75 3.88-9.65 2.81-14.51 2.73 1.34 6.8 6.54 11.96 8.36 18.59-.05 1.41-1.31 2.34-1.96 3.5-2.03 2.69-2.23 6.24-3.89 9.11-1.94 2.08-4.59 3.41-6.21 5.81-3.85 5.14-9.65 8.19-15.17 11.19 3.99 2.16 8.29 3.78 12.08 6.29.79 2.35-1.53 4.29-2.23 6.4 3.22.02 5.8-2.09 8.61-3.35 5.54-2.58 11.77-2.63 17.6-4.19 6.16-1.54 12.52-1.92 18.69-3.36-2.68-2.92-5.41-5.87-6.93-9.6 6.86-1.81 14.59-2.47 20.89 1.46 7.67 4.22 15.75 7.68 23.79 11.14 9.01 3.98 18.96 6.75 26.25 13.73 3.73 3.27 6.09 7.97 10.38 10.61 1.98 1.34 4.45.49 6.62.23 4.45-.62 6.23-5.79 10.57-6.66.61.98 1.26 1.94 1.77 2.99.08 2.1-1.82 3.54-3.2 4.84-5.86 5.25-13.93 8.41-21.82 7.33-6.98-1.85-14-3.9-21.27-4.04-14.29-1.54-28.64-3.25-43.03-2.71-11.71.74-23.49 3.14-34.01 8.38-1.9 2.57-5.05 3.01-7.68 4.36-2.39 4.23-5.14 8.27-7.38 12.6-1.94 3.92-5.41 6.76-7.67 10.48 2.33 2.23 6.68 4.23 5.42 8.15-1.39 3.15-5.04 4.87-5.84 8.38-.61 1.55.33 3 1.04 4.31 2.3 4.06 4.25 8.3 6.08 12.59 2.23 5.19 2.38 10.92 3.78 16.34 1.3 5.3 1.38 10.88-.24 16.13 7.37 2 15.09.88 22.62 1.15-1.73-2.44-3.69-4.7-5.56-7.03-3.59-4.48-5-10.16-6.61-15.54-1.9-7.08-2.88-14.52-1.89-21.83.44-3.26.65-6.71 2.42-9.6 4.73-7.14 9.35-14.51 15.59-20.44 7.29-5.59 15.36-10.42 24.33-12.69 9.96-2.09 20.51-3.95 30.51-1.08 9.07 2.13 18.41 4.97 25.35 11.49 3.19 3.1 3.11 7.84 4.43 11.82 1.28 3.66 1.19 7.6.37 11.35-1.24 5.61-1.58 11.55-4.36 16.7-1.42 2.5-2.57 5.13-3.32 7.91-1.89 5.78-6.79 9.69-10.81 13.97-4.11 4.29-8.97 7.73-13.59 11.42-4.34 3.49-9.79 4.99-14.85 7.07-14.22 4.8-29.39 3-44.1 3.56-7.75.39-15.28-2.01-23.03-1.87-4.25.24-8.82-1.13-12.78.91 1.79 2.45 3.73 4.79 5.66 7.13-7.94 2.21-16.35 2.57-24.53 2-5.74.97-11.61.3-17.34 1.32 3.18 2.19 6.63 3.97 9.77 6.22-.11 1.73-.26 3.47-.35 5.21-7.18 4.15-14.43 8.17-21.7 12.17 2.98 2.53 6.15 4.86 8.87 7.68 2.24 2.32 5.09 4.42 6.07 7.62-.54 3.81-5.34 3.3-8.07 4.57 4.1 4.67 7.41 9.99 11.55 14.61 4.92.87 9.83-.66 14.71-1.16-3.97-8.07-7.81-16.89-7.05-26.06.94-5.03 3.61-10.23 8.37-12.6 5.74-3.47 11.94-7.08 18.83-7.19 7.33.6 14.68.98 22.02 1.45 7.99-.29 16.02-.66 23.98.49 12.78.24 25.22 4.48 36.28 10.72 6.22 3.54 10.1 10.2 11.08 17.2-.56 4.93-2.43 9.61-3.51 14.45 16.13-2.52 31.98-6.71 48.22-8.51 9.18-2.06 18.63-2.32 28-2.6.3 1.51.6 3.06.51 4.61-2.21 2.22-5.16 3.43-7.74 5.13 7.95 3.13 16.32 5.04 24.7 6.59 9.94 2.62 20.13 4.09 30.14 6.41 12.36 1.42 24.43 4.75 36.85 5.65 1.86.48 4.39 1.93 3.8 4.21-.88 3.01-4.36 3.45-6.95 4.1-5.23 1.03-10.27 2.78-15.33 4.43 2.91 4.52 7.32 7.68 11.35 11.11 5.08 4.24 9.19 9.47 14.11 13.89 4 3.53 5.64 8.9 9.61 12.45.49 3.19 2.19 6.02 2.94 9.15.19 1.39 1.19 3.35-.26 4.42-2.18 2.72-6.12 1.82-8.94.73-3.87-1.78-8.3-1.88-12.05-3.95-2.5-1.36-5.23-2.07-8.07-1.79-.02 11.83.67 23.65.99 35.48.03 2.83 1.15 5.63.6 8.46-1.14 2.47-4.42 4.08-6.77 2.17-6.38-4.31-12.4-9.18-17.84-14.64-.78 6.32.15 12.75-1.05 19.01.41 2.19 1.01 4.41.51 6.66-2.47-.28-5.73 1.06-7.46-1.34-4.47-4.97-11.1-6.95-16.68-10.33-7.27-3.92-14.6-8.22-22.75-9.96.91 4.54 2.39 8.94 3.36 13.46.5 1.75-.64 3.31-1.28 4.85-1.65.11-3.32.38-4.97.19-5.95-3.5-10.45-8.85-15.56-13.4-4.54-3.74-8.22-8.38-12.78-12.09-1.75 1.76-4.11 4.02-6.81 2.79-5.83-2.55-10.74-6.72-16.33-9.7-4.62-2.58-8.63-6.04-12.99-9-.91-.67-2.21-1.26-3.27-.58-1.95 1.77-3.36 4.03-5.15 5.95-8.97 6.7-17.8 14.78-29.2 16.87-13.31 2.48-27.52.92-39.7-5.13-8.07-3.32-15-8.76-22.11-13.7-3.88-2.45-5.72-6.73-7.95-10.52-6.46 4.34-9.65 11.96-15.13 17.34-5.36 5.06-9.17 11.55-14.89 16.25-1.61.18-3.22-.01-4.82-.12-1.18-5.23-.24-10.55 1.3-15.59-6.63 5.1-13.43 9.96-20.08 15.04-5.02 3.77-9.7 8.22-15.71 10.38-1.41 9.16-3.29 18.3-3.34 27.59 3.16-.88 6.51-2.42 9.69-.68 1.74 5.46.8 11.15 1.27 16.76.03 6.48 1.76 13.24 6.36 18.03 3.05.3 6.29-.36 9.2.68 2.57 2.22 4.06 5.62 4.66 8.95 1.21 7.01 5.39 12.93 8.97 18.9 6.6-2.69 13.29-7.93 20.77-5.15-1.3-5.08-2.98-10.04-4.32-15.1 2.49.39 3.09 3.08 4.16 4.97 1.97 4.2 4.47 8.13 6.88 12.1 1.43 2.2 1.42 5.06 3.05 7.16 2.58 3.37 4.82 7.01 7.87 10.01 3.22 3.23 5.04 7.6 8.54 10.58 3.28 2.56 3.92 7.11 7.15 9.79 4.36 2.9 6.95 7.66 11.07 10.85 2.52 1.82 4.61 4.15 7.09 6.02 4.37 3.19 7.36 7.98 12.12 10.72 6.51 3.81 12.22 9.05 19.45 11.57 4.25 1.79 9.12 4.93 13.79 2.76 4.22-1.98 8.48-4.2 11.66-7.7-2.14-3.3-4.15-6.67-6.34-9.93-4-6.2-6.37-13.21-9.02-20.04 5.11 8.81 10.12 18.18 18.47 24.39 3.89 3.23 6.16 7.86 9.34 11.72 2.82 3.63 7.02 5.72 10.58 8.48 2.44 6.65 7.38 11.97 12.86 16.26 4.03 1.76 7.9-1.66 9.81-4.96 3.69-4.67 7.15-9.56 11.36-13.79-.47-3.8-2.39-7.28-4.07-10.67 3.89 3.84 8.72 6.6 12.21 10.88 2.7 1.91 5.25 4 7.54 6.41 5.69 3.42 12.67 6 19.32 4.21 7.71-3.34 14.59-8.36 21-13.73 6.35-5.71 13.69-10.21 19.78-16.21 5.18-3.48 9.44-8.11 14.88-11.21 3.31-1.86 5.5-5.12 8.71-7.1 4.59-2.79 8.58-6.43 13.2-9.17-2.17-4.94-5.59-9.17-7.82-14.09 7.15 2.29 8.76 10.81 15.22 14.01 9.42 5.7 18.82 12.73 30.11 13.88 3.14.27 6.69.46 9.2-1.81 5.79-4.87 11.66-9.69 16.74-15.31 5.82-5.53 12-10.67 17.68-16.37 2.75-3.27 6.61-5.29 9.61-8.31 4.63-5.05 10.62-8.57 15.3-13.59-2.87-6.88-7.94-12.7-9.95-19.97 5.44 6.37 9.71 14.32 17.66 17.94 6.48 2.53 12.13 6.98 19.02 8.46 5.35.81 8.93 5.48 14.06 6.92 6.14 1.68 12.01 4.28 18.27 5.57 8.62 1.72 17.11 4.51 25.97 4.72 3.88-4.51 1.06-10.65 2.93-15.81 2.24-5.9 3.47-12.14 6.08-17.9 2.04-1.48 4.56-1.94 6.96-2.49-.88-4.66-1.76-9.32-3.15-13.85-.43-3.55-.42-7.16-1.06-10.68-.59-2.06.72-3.87 1.67-5.58 1.21-2.42 4.41-1.48 6.58-1.47 5.37.91 10.81.79 16.24.73.36-4.4-2.83-8.42-1.46-12.77.85-8.56 4.27-16.51 7.5-24.37-3.84 1.12-6.95 3.86-10.82 4.92-3.6 1.16-6.58 4.06-10.43 4.35-9.62-5.17-15.87-14.64-20.99-23.98-4.05-6.22-6.25-13.36-10.05-19.72-2.19-6.06-5.74-11.57-7.33-17.85-1.34-5.16-3.92-9.9-5.08-15.1-1.11-5.18-3.4-10-4.34-15.22-2.75-9.22-4.39-18.74-6.01-28.21-2.91-10.06-4.59-20.41-7.3-30.51-3.65 8.28-8.17 16.15-12.94 23.82-.94 1.8-3.07 1.62-4.77 1.86-.78-1.55-1.64-3.16-1.55-4.94-.5-11.33.32-23.03-3.53-33.87 1.47-4.06-.44-8.64.4-12.89 1.18-6.02 1.05-12.13 1.3-18.22 1.05-6.9.52-13.9 1.51-20.81.31-14.3 1.36-28.71-1.04-42.91.74-.34 2.21-1.02 2.94-1.36 2.98 15.85 5.04 31.99 3.73 48.14-.86 8.97-.24 18.01-1.22 26.98-.18 7.34.84 14.69-.16 22.02.35 8.1-1.08 16.38 1.05 24.32.49.06 1.45.17 1.93.23 3.16-7.3 4.28-15.24 6.08-22.93.53-2.79 2.22-5.08 4.3-6.93 3.15 1.14 5.44 4 5.79 7.35.6 4.73 1.44 9.47 3.33 13.88 1.87 4.08.88 8.72 2.3 12.9 2.88 7.72 3.5 16.02 5.73 23.92 3.4 18.05 8.79 35.7 15.27 52.89 3.36 6.1 5.61 12.73 9.25 18.69 4.34 10.02 9.07 20.27 16.84 28.16 1.71 1.46 3.54 3.86 6.1 3.13 7.06-3.65 12.92-9.63 20.4-12.39 4.7 2.59 8.38 6.8 12.28 10.46 1.99 2.17 5.04.9 7.28-.11 8.27-3.8 16.53-7.77 23.92-13.13 5.12-4.23 10.97-7.59 15.47-12.55 1.38-1.94 4.34-2.19 6.3-1.1 3.1 5.21 1.05 11.67 3.56 17.06 4.69-2.88 8.25-7.15 12.59-10.45 10.59-6.02 19.07-15.17 25.87-25.17 1.7-2.98 3.06-6.15 4.99-9 9.02-14.35 10.72-31.65 12.8-48.07 1.86-11.62 2.15-23.45 1.14-35.17-3.33-18.9-8.67-37.56-17.51-54.67-2.67-6.14-7.27-12.11-6.4-19.15.06-2.2 2.2-3.4 3.86-4.4 5.19-.77 10.55.48 15.71-.81-5.4-3.89-10.9-7.65-16.21-11.66-6.05-3.81-11.83-8.01-17.38-12.51-11.14-7.7-19.94-18.1-29.9-27.15-4.54-4.14-8.12-9.17-12.58-13.38-4.35-5.02-8.2-10.48-13.02-15.09-3.96-3.72-7.16-8.13-10.76-12.16-2.52-2.94-6.69-3.88-8.83-7.21-5.16-7.19-11.28-14.41-12.62-23.46-.12-1.37-.71-3.17.81-4 5.92-3.94 13.08-5.66 18.89-9.81-4.48-1.02-9.09-1.6-13.37-3.32-4.7-1.88-9.85-2.98-13.9-6.17-4.48-3.79-10.24-6.31-13.19-11.66-1.37-5.58.83-11.46-.22-16.92-3.21-1.54-6.95-2.25-10.45-1.43-15.8 3.58-30.93 9.63-45.57 16.45-5.02 1.31-10.15 2.4-14.55 5.31 3.3-4.25 7.13-8.12 11.43-11.37 6.25-3.87 13.57-5.44 20.6-7.3-2.58-4.32-7.21-6.88-10.79-10.31-7.06-4.66-14.35-9-21.45-13.62-2.39-1.39-2.54-4.4-3.42-6.74-1.04-.49-2.09-.96-3.15-1.39 2.72-2.12 5.67-3.94 8.94-5.08.16-.41.49-1.22.65-1.63-13.35-2.21-26.64-4.76-39.73-8.26-15.11-2.21-30.14-4.92-45.26-7.06-6.24-.91-12.58-.17-18.81-1.14-12.68-.99-25.36.65-37.99 1.49-5.38.02-10.7.89-16.05 1.28 3.08-3 6.23-5.93 9.09-9.15-5.03.25-10.13-.43-15.1.61-19.12 3.24-38.37 5.62-57.64 7.72-.35-4.43.92-8.67 2.53-12.73-5.49 2-9.52 6.49-14.85 8.81m-194.04 63.01c-5.87 5.66-7.87 13.93-12.62 20.37-6.42 6.61-9.98 15.27-15.44 22.6-3.65 4.77-6.05 10.38-10.16 14.8-1.13 1.59-3.35 3.34-2.21 5.5 1.9 1.06 3.94 1.86 5.98 2.61 1.8-3.4 3.28-7.48 7.08-9.12-1.1 3.63-3.06 6.99-3.76 10.74 0 3.17.75 6.37-.01 9.52-3.81 19.47-11.57 38.33-23.41 54.31-4.5 6.74-10.64 12.16-15.35 18.73-1.76 2.15-1.57 5-1.6 7.61-2.94 2.43-6.23 4.37-9.41 6.46-1.9 1.06.21 2.84 1.22 3.64 7.05 4.95 16.3 7.26 21.42 14.66.19 2.5.32 5.64-1.95 7.3-5.64 4.69-10.96 9.82-15.35 15.71-2.41 3.33-6.08 5.28-9.22 7.78-2.41 2.63-5.17 4.92-7.42 7.69 2.18 1.94 3.91 4.43 6.41 6 2.02-.24 3.95-.91 5.91-1.45-6.75 8.04-14.2 15.78-18.24 25.64 6.29-.63 12.49-1.88 18.74-2.75-1.69 3.31-3.1 6.88-2.99 10.66-.12 12.78 2.14 25.43 4.72 37.91.29 1.21 1.06 2.21 1.69 3.27 7.46-4.86 14.31-10.64 22.11-14.99 3.29-1.83 6.56-4.02 8.6-7.28-.11-1.53-1.76-2.01-2.78-2.81-4.48-2.72-8.97-5.51-12.81-9.1-1.32-1.14-2.11-2.83-1.76-4.57 1.58-1.89 4.14-3.02 6.61-2.58 11.33 1.19 22.73.65 34.1.69-1.59-3.96-4.16-7.43-7.3-10.28-2.08-2.2-5.07-4.76-4.03-8.15.8-3.11 4.74-2.33 7.19-2.66-3.06-4.06-7.47-6.71-11.04-10.25-2.72-2.22-2.37-7.75 1.2-8.98 6.23-2.86 12.79-5.36 18.03-9.91-3.65-2.17-7.53-3.95-11.06-6.32-1.39-.82-2.01-2.39-2.38-3.87.69-2.8 3.75-3.12 6.13-3.39 7.9-.64 15.83.08 23.73-.38 3.88-.42 7.78-.75 11.69-.94-3.12-2.76-6.71-4.99-9.58-8-1.65-1.6-1.51-3.9-1.23-5.97 7.83-.51 15.53 1.76 23.38 1.4 2.68-1.51 3.62-4.83 3.3-7.73-.79-5.94-1.91-11.84-3.38-17.65-1.54-7.37-6.62-13.38-8.35-20.69-.19-1.43-.1-2.88.2-4.27.9-2.85 4.44-4.25 5.08-7.13-1.63-1.81-3.84-3.16-4.9-5.43-.85-2.56.57-5.04 2.34-6.79 4.52-4.71 6.8-10.97 10.82-16.04-1.17-2.24-1.79-4.68-1.78-7.21-1.39-1.15-2.67-2.43-3.83-3.81 2.25-4.37 6.68-6.63 10.75-8.99-.61-6.82-7.09-10.14-12.43-12.99.32-1.66.65-3.32.98-4.98-3.87-1.65-9.63-2.04-10.52-7.1.96-3.38 4.65-4.75 7.3-6.59 7.46-4.2 13.36-10.86 16.94-18.6 2.13-4.93.54-10.39-2.42-14.58-2.01-4.55-4.42-8.97-5.65-13.82-6.43-.84-12.76-2.57-19.24-2.78-3.23.64-5.72 3.14-8.04 5.33m73.97 45.77c.64 4.05 3.61 7.16 4.46 11.15-10.2 1.87-20.47 3.43-30.59 5.72-4.72 1-9.69 1.6-13.83 4.29 1.57 2.08 3.41 4.03 4.53 6.42.45 3.99-3.5 6.51-4.9 9.9.07 1.92 1.02 4.73 3.43 4.45 3.16-.5 6.2-1.62 9.21-2.68 4.51-2.02 8.54-5.11 13.4-6.32 8.45-2.08 17.21-2.94 25.9-2.38 18.32.04 36.55 2.38 54.57 5.48-3.19-4.67-6.9-9.14-11.8-12.09-5.97-3.62-12.69-5.73-18.86-8.95-10.52-3.77-20.32-9.18-30.51-13.71-1.59-.73-3.32-1-5.01-1.28m-5.21 63.01c-11.45 6.47-19.54 17.73-23.41 30.17 7.72-2.71 15.89-3.37 23.74-5.53 15.24-2.87 30.68-5.2 46.23-5.03 6.31-.42 12.61-1.11 18.91-1.66.37-4.9.89-10.43-2.25-14.6-2.93-3.31-6.73-5.9-11.05-7.01-5.78-2.13-11.76-3.69-17.89-4.34-11.93-.63-23.64 2.87-34.28 8m-9.13 32.47c-5.09.41-10.02 1.76-14.68 3.82-1.56 2.58-1.42 5.76-1.19 8.66.84 4.12 1.01 8.52 3.39 12.16 2.63 5.95 6.23 11.55 11.05 15.96 2.16 2.04 5.33 1.61 7.97 2.54 12.08.9 24.66-.17 35.71-5.5 5.74-3.45 11.56-6.94 16.16-11.89 3.3-2.45 4.56-6.59 6.91-9.83-2.84 2.16-5.62 4.39-8.51 6.48l.3.57c-7.59 2.78-16.62 1.99-23.43-2.47-3.18-2.74-6.46-5.48-9.02-8.82-2.08-5.14-4.42-10.35-4.75-15.98-6.62 1.55-13.32 2.67-19.91 4.3m-44.56 79.06c-5.1.46-11.21.79-14.47 5.36-2.18 4.36-1.51 9.59-.48 14.19 1.39 4.52 2.36 9.3 4.73 13.44 4.09 1.95 8.71 2.74 12.47 5.41 4.5 2.4 7.31 6.75 10.55 10.52 2.3 2.59 3.51 5.87 4.7 9.07 7.96 1.43 16.2 3.73 24.26 1.79 3.01-2.77 4.9-6.55 8-9.25 7.18-6.67 16.17-12.4 26.18-12.96 3.94-.42 9.5 2.46 12.08-1.84 2.98-5.2 5.8-11.57 3.67-17.59-1.63-4.94-6.01-8.46-10.73-10.27-7.44-2.89-14.65-6.88-22.74-7.55-19.32-1.93-38.91-2.93-58.22-.32m141.22 33.06c-10.12 2.78-20.58 3.88-30.83 6.03-7.08 1.07-14.39 1.99-20.82 5.33-3.8 2.79-6.46 6.81-10.13 9.75-11.69 7.87-25.82 10.86-39.67 11.96.98 7.78 5.81 14.24 10.75 20.04 6.89 9.14 17.28 14.4 26.69 20.47-.09-3.02-.99-5.93-1.4-8.9-.07-2.23 3.06-2.79 4.75-2.33 9.51 4.53 16.4 12.81 24.88 18.84 3.19 2.45 5.68 5.71 8.99 8.03 3.74 2.65 7.84 4.78 11.61 7.4 3.65 2.31 6.8 5.67 11.23 6.47-.02-3.14-.49-6.24-1.07-9.31 5.76 4.06 10.63 9.2 16.28 13.39 7.15 4.98 12.77 11.71 19.35 17.36.24-6.28-3.63-12.16-2-18.41 3.18.03 5.99 1.55 8.82 2.82 10.86 4.42 21.7 9.12 31.61 15.46 1.78 1.11 3.75 1.86 5.72 2.58.62-6.05.36-12.12.33-18.18.02-2.33.53-5.8 3.56-5.73 5.06 4.28 10.97 7.38 16.03 11.66 2.72 2.04 3.86 5.37 5.78 8.07 1.61-5.25.95-10.79.12-16.11-1.14-7.28-1.17-14.67-1.94-22-.19-2.94-.52-5.95.15-8.85 1.15-2.35 4.07-3.19 6.48-2.51 6.67 1.36 13.06 3.8 19.75 5.1.17-2.1.46-4.37-.74-6.24-3.39-6.08-7.87-11.43-12.12-16.91-5.82-7.64-14.61-12.05-21.79-18.2-1.88-1.52-4.09-2.56-6.02-3.99-1.03-1.52 1.06-2.06 2.04-2.72 4.74-2.01 9.98-2.59 14.66-4.81-.68-.84-1.52-1.43-2.51-1.78-21.72-3.18-43.23-7.73-64.7-12.34-3.99-.97-7.51-3.23-11.44-4.38-3.2-1.11-7.33-1.32-8.62-5.03 2.86-1.11 5.73-2.28 8.24-4.09-7.38-.04-14.76.87-22.02 2.06m-146.22 6.74c2.67 5.15 7.31 8.97 12.1 12.09-2.93-4.99-7.53-8.68-12.1-12.09m81.04 3.04c-5.75 1.78-11.79 3.48-16.37 7.6-3.09 2.71-7.14 4.57-9.03 8.42 8.11-.57 15.76-3.76 22.74-7.77 3.64-2.2 7.12-4.88 9.3-8.61-2.22-.35-4.5-.36-6.64.36m-110.07 2.32c-11.02-.29-22.04.21-33.06-.26 4.13 4.03 10.1 5.72 13.69 10.32 1.85 2.4-.43 5.34-2.47 6.74-3.91 2.7-8.01 5.13-11.72 8.12-8.43 5.12-16.11 11.36-24.53 16.51-5.62 3.33-10.68 7.54-16.48 10.56-2.36 1.25-4.61 2.73-6.59 4.53 8.3 1.17 16.75-.17 25.05 1.01 3.6 1.93 6.89 6.52 4.64 10.62-4.61 10.85-10.47 21.36-12.4 33.14 7.64.7 15.6-1.3 22.98 1.36.08 3.12-.31 6.23-.92 9.29 6.1.95 10.38-4.09 14.71-7.47 4.31-3.8 9.61-6.27 13.79-10.22 4.98-4.69 10.18-9.14 15.38-13.58 1.67-1.6 5.7-1.96 5.93 1.05.58 6.46-3.49 12.07-4.57 18.27 4.29-3.73 7.56-8.45 11.18-12.79 5-7.83 11.46-14.56 17.1-21.92 3.8-4.17 6.15-9.81 11.36-12.52 3.58 3.31 2.5 8.47 2.24 12.79 2.49-.89 5.52-1.14 7.22-3.43 4.7-5.64 11.24-9.38 15.81-15.17 2.22-2.85 5.64-6.37 3.62-10.23-2.29-4.99-3.62-10.34-5.76-15.36-6.24-1.55-13-.14-18.99-2.89-6.79-3.14-13.37-7.07-18.49-12.6-2.35-2.28-4.24-5.13-7.05-6.86-7.24-.85-14.42 1.29-21.67.99m72.28 50.77c-3.93 5.42-9.61 9.18-14.6 13.53-3.5 3.35-8.19 4.88-12.55 6.77-1.37-1.25-2.34-2.87-3.76-4.07-.1-.98-.51-1.9-.76-2.84-.57-.06-1.72-.18-2.29-.24.35 2.57.9 5.12 1.47 7.66l.28-.73c.87 3.19 1.84 6.86 4.97 8.57 4.32 2.04 8.85 3.73 12.9 6.29 6.35 4.85 13.78 8.17 21.42 10.35 11.04 1.58 23.13 2.61 33.27-2.99 4.57-3.04 9.25-5.94 13.38-9.58 3.29-1.92 5.99-4.65 8.14-7.78.68-.94 1.12-2.4-.06-3.16-5-4.68-9.89-10.28-16.59-12.35.01 1.9.6 3.75 1.1 5.58-1.35 1.49-3.13 3.42-5.37 2.71-3.03-.56-5.58-2.3-7.93-4.18-5.92-3.25-11.54-7.04-16.81-11.26-1.32-1.37-3.26-.98-4.95-1.12-.22 6.64.48 13.31-.18 19.94-1.95-8.12-2.69-16.57-5.34-24.53-2.74-1.36-4.4 1.58-5.74 3.43z"/><path d="m426.62 198.66c5.3-1.86 10.54-4.67 16.31-4.5 2.64-.07 4.86 1.56 7.08 2.76-1.24 1.1-2.49 2.18-3.76 3.25 3.17-1.27 6.27-3.04 9.76-3.2 16.59-.32 33.21-2.9 49.8-1.22-.51 1.14-1.02 2.27-1.53 3.41 10.72.28 21.53.45 32.06 2.68.91.65 1.79 1.35 2.64 2.1-1.14 1.58-2.35 3.1-3.67 4.54 7.84 1.6 15.42 4.32 22.71 7.59 2.15.82 3.46 2.78 4.78 4.54-2.39 1.35-4.95 2.34-7.67 2.7 2.15 2.27 3.72 5.38 1.68 8.29-3.49.01-7 .04-10.45-.49-13.27-3.24-26.87-4.72-40.41-6.28-11.59-1.48-23.35-1.86-34.97-.48-8.08 0-15.96 1.94-23.97 2.69-3.57.34-6.93 1.63-10.39 2.42-15.09 2.34-29.79 6.74-44.88 9.07-5.78.42-12.26 1.47-17.38-1.96-3.35-2.2-4.18-6.38-5.23-9.96-1.34-3.28.71-7.98 4.7-7.55.6 2.98.43 6.16 1.79 8.96 3.91-3.22 8.95-4.09 13.49-5.99 7.23-4.7 14.47-9.4 21.45-14.49 4.93-3.66 10.66-6.01 16.06-8.88m41.42 3.34c-9.95 1.28-19.76 3.36-29.67 4.81-.48-.47-1.43-1.4-1.9-1.87 1.09-1.69 2.27-3.32 3.36-5.01-9.25 3.08-18.37 6.92-26.44 12.46-6.66 4.35-13.05 9.09-20.01 12.96-4.63 3.5-10.33 4.74-15.72 6.58 1.27.97 2.61 2.09 4.34 2 5.9.28 11.73-1.03 17.45-2.32 23.8-4.42 47.24-11.44 71.55-12.59 20.07-1.69 40.29.06 60.02 3.91 6.05 1.25 11.79 4.53 18.15 3.63-1.63-1.57-3.41-2.99-4.85-4.75.01-1.15.79-2.13 1.34-3.08 1.84.34 3.69.65 5.56.84-1.03-.96-2.28-1.66-3.64-1.99-4.75-1.24-9.31-3.18-14.17-3.98-3.35-.57-6.63-1.47-9.76-2.78.96-2.31 2.55-4.26 4.26-6.04-6.93-.09-13.86.65-20.76-.16-4.73-.6-9.81 1.79-14.14-.91.53-1.62 1.08-3.24 1.66-4.85-8.81 1.83-17.9.87-26.63 3.14z"/><path d="m340.82 219.97c.35-7.32 5.63-13.33 10.83-18.01-2.76 7.04-6.07 14.63-4.39 22.32.62 1.96-1.18 3.34-2.18 4.76-4.27-.96-3.86-5.64-4.26-9.07z"/><path d="m424.39 241.55c15.85-6.56 33.49-6.57 50.25-4.28 3.41.59 6.9.02 10.31.55 3.08.94 5.97 2.47 9.18 3.02 14.86 2.63 29.08 8.31 41.98 16.12 3.25 1.89 4.12 5.86 6.04 8.85 2.17 4.4 5.91 7.99 7.04 12.89.83 3.33 2.3 6.91.94 10.31-2.95 9.57-7.11 19.56-15.58 25.53-3.2 2.1-6.35 4.35-9.82 5.99-5.73 2.22-11.02 5.53-16.98 7.13-8.83 2.03-17.64 4.74-26.78 4.79-10.58.03-21.27 1.06-31.76-.75-8.53-1.86-17.26-2.68-25.65-5.2 2.85 3.76 7.45 5.28 11.41 7.52 6.02 3.29 12.63 5.2 19.02 7.61-13.23-1.44-26.04-6.18-37.15-13.47-10.04-7.85-20-16.52-26.01-27.97-2.12-3.76-3.19-8.02-3.58-12.29-.29-4.04 1.73-8.04.43-12.04-.73-3.53 2.74-5.36 5.03-7.2 2.45-2.88 4.37-6.2 7.03-8.92 2.69-2.65 4.4-6.19 7.41-8.52 5.47-3.68 11.02-7.35 17.24-9.67m13.56 4.28c-5.79.09-11 2.93-16.28 4.94-5.04 1.83-8.77 5.81-13.14 8.73-3.56 2.32-6.01 5.85-8.45 9.24 10.02.27 19.9-1.51 29.91-1.39 12-.53 24-1.16 36-1.31 6.31-1.04 12.6.41 18.92.37 10.64.29 21.22 1.62 31.78 2.86 2.91.29 5.66 1.33 8.35 2.41 4.97 2.01 10.44 1.62 15.63 2.62-2.01-3.83-4.19-7.64-7.2-10.78-2.85-2.65-6.34-4.51-9.91-5.98-7.2-2.73-13.64-7.41-21.38-8.63-17.25-5.06-35.42-4.9-53.23-4.38-3.7.16-7.27 1.38-11 1.3m-26.91 27.99c-5.14 1-10.46.47-15.54 1.77-3.97 5.79-2.94 13.36-.79 19.65 2.93 5.21 5.38 11.06 10.35 14.71 3.21 2.04 5.63 5.19 9.22 6.67 5.44 2.3 10.66 5.53 16.66 6.08 4.21.54 8.2 2.17 12.43 2.59 2.8.26 5.58.62 8.35 1.1 10.36 1.71 20.88 1.18 31.32.98 17.4-2.58 34.94-7.56 49.35-17.99 6.13-6.03 11.16-13.69 12.1-22.37-.35-2.5-.91-4.97-1.76-7.34-6.37-.85-12.63-2.31-18.9-3.68-8.26-1-16.46-2.51-24.8-2.84.7 4.28 1.64 8.51 2.3 12.79-1.41 8.97-8.98 15.71-17.36 18.21-6.85 3.34-14.62 2.35-21.97 2.45-4.13.31-7.95-1.49-11.94-2.17-5.74-2.03-12.26-4.66-14.68-10.77-3.71-6.56-1.55-14.17-.58-21.11-2.94.07-5.89.07-8.8.48-4.96.82-10.01-.07-14.96.79z"/><path d="m574.67 636.55c2.93-5.2 7.78-8.88 12.45-12.42-2.33 4.15-4.89 8.24-6.13 12.89-1.22 4.58-4.47 8.13-6.79 12.15-6.42 11.54-12.05 23.53-16.95 35.8-4.7 13.74-10.16 27.23-14.11 41.21-2.52 9.68-5.22 19.3-8.28 28.82h-3.18c2.45-11.22 5.49-22.29 8.09-33.46 3.14-9.83 5.13-20.02 9.08-29.58 3.13-8.79 6.73-17.4 10.11-26.1 4.64-10.08 10.4-19.58 15.71-29.31z"/><path d="m578.17 693.16c3.36-6.88 4.97-14.45 8.39-21.31-2.88 12.88-7.16 25.39-12.17 37.58-3.62 8.63-6.79 17.48-11.26 25.73-3.67 6.69-6.08 14.25-11.49 19.84h-1.05c-.77-2.47-1.82-5.25-.22-7.64 3.16-5.79 6.9-11.24 9.93-17.11 6.99-11.84 12.4-24.5 17.87-37.09z"/><path d="m677.49 711.56c5.3-4.16 10.23-8.97 16.49-11.67-4.9 5.83-11.32 10.06-16.76 15.34-12.64 12.3-25.85 24.42-34.89 39.77h-7.53c3.64-4.75 6.91-9.8 10.93-14.26 9.67-10.67 20.53-20.19 31.76-29.18z"/><path d="m808.99 755c.18-9.23.01-18.48 1.01-27.67v27.67z"/><path d="m284.8 740.58c2.19-.68 4.61-.09 6.56 1.03 2.68 4.25.93 9.4-1.37 13.39h-11.55c-.06-2.2-.38-4.4-.13-6.58 1.83-2.84 3.68-5.87 6.49-7.84z"/></g><g fill="#8d8b85" stroke="#8d8b85"><path d="m354.99 77.94c5.33-2.32 9.36-6.81 14.85-8.81-1.61 4.06-2.88 8.3-2.53 12.73 19.27-2.1 38.52-4.48 57.64-7.72 4.97-1.04 10.07-.36 15.1-.61-2.86 3.22-6.01 6.15-9.09 9.15 5.35-.39 10.67-1.26 16.05-1.28 12.63-.84 25.31-2.48 37.99-1.49 6.23.97 12.57.23 18.81 1.14 15.12 2.14 30.15 4.85 45.26 7.06 13.09 3.5 26.38 6.05 39.73 8.26-.16.41-.49 1.22-.65 1.63-3.27 1.14-6.22 2.96-8.94 5.08 1.06.43 2.11.9 3.15 1.39.88 2.34 1.03 5.35 3.42 6.74 7.1 4.62 14.39 8.96 21.45 13.62 3.58 3.43 8.21 5.99 10.79 10.31-7.03 1.86-14.35 3.43-20.6 7.3-4.3 3.25-8.13 7.12-11.43 11.37 4.4-2.91 9.53-4 14.55-5.31 14.64-6.82 29.77-12.87 45.57-16.45 3.5-.82 7.24-.11 10.45 1.43 1.05 5.46-1.15 11.34.22 16.92 2.95 5.35 8.71 7.87 13.19 11.66 4.05 3.19 9.2 4.29 13.9 6.17 4.28 1.72 8.89 2.3 13.37 3.32-5.81 4.15-12.97 5.87-18.89 9.81-1.52.83-.93 2.63-.81 4 1.34 9.05 7.46 16.27 12.62 23.46 2.14 3.33 6.31 4.27 8.83 7.21 3.6 4.03 6.8 8.44 10.76 12.16 4.82 4.61 8.67 10.07 13.02 15.09 4.46 4.21 8.04 9.24 12.58 13.38 9.96 9.05 18.76 19.45 29.9 27.15 5.55 4.5 11.33 8.7 17.38 12.51 5.31 4.01 10.81 7.77 16.21 11.66-5.16 1.29-10.52.04-15.71.81-1.66 1-3.8 2.2-3.86 4.4-.87 7.04 3.73 13.01 6.4 19.15 8.84 17.11 14.18 35.77 17.51 54.67 1.01 11.72.72 23.55-1.14 35.17-2.08 16.42-3.78 33.72-12.8 48.07-1.93 2.85-3.29 6.02-4.99 9-6.8 10-15.28 19.15-25.87 25.17-4.34 3.3-7.9 7.57-12.59 10.45-2.51-5.39-.46-11.85-3.56-17.06-1.96-1.09-4.92-.84-6.3 1.1-4.5 4.96-10.35 8.32-15.47 12.55-7.39 5.36-15.65 9.33-23.92 13.13-2.24 1.01-5.29 2.28-7.28.11-3.9-3.66-7.58-7.87-12.28-10.46-7.48 2.76-13.34 8.74-20.4 12.39-2.56.73-4.39-1.67-6.1-3.13-7.77-7.89-12.5-18.14-16.84-28.16-3.64-5.96-5.89-12.59-9.25-18.69-6.48-17.19-11.87-34.84-15.27-52.89-2.23-7.9-2.85-16.2-5.73-23.92-1.42-4.18-.43-8.82-2.3-12.9-1.89-4.41-2.73-9.15-3.33-13.88-.35-3.35-2.64-6.21-5.79-7.35-2.08 1.85-3.77 4.14-4.3 6.93-1.8 7.69-2.92 15.63-6.08 22.93-.48-.06-1.44-.17-1.93-.23-2.13-7.94-.7-16.22-1.05-24.32 1-7.33-.02-14.68.16-22.02.98-8.97.36-18.01 1.22-26.98 1.31-16.15-.75-32.29-3.73-48.14-1.16-8.81-2.98-17.56-5.84-25.98 1.01 9.11 1.41 18.29 2.9 27.34 2.4 14.2 1.35 28.61 1.04 42.91-.99 6.91-.46 13.91-1.51 20.81-.25 6.09-.12 12.2-1.3 18.22-.84 4.25 1.07 8.83-.4 12.89-3.65 4.89-5.05 10.92-7.68 16.33-4.89 10.24-6.28 22.12-13.53 31.19-2.93-1.27-6.62-2.25-7.83-5.6-2.55-6.49-4.76-13.25-9.3-18.7-4.14 2.78-5.35 7.78-7.33 12.04-2.34 5.52-4.82 11.03-8.47 15.83.21-2.38.51-4.74.78-7.1-8.67 15.02-15.23 31.12-22.25 46.94-3.65-3.23-6.92-6.84-10.15-10.47-1.47-2.6-4.37-.83-6.45-.17-4.08-5.48-7.53-11.38-10.45-17.54-3.71 10.95-4.58 23.39-12.52 32.48-2.62-.53-5.2-1.24-7.84-1.64-.01.32-.01.97-.02 1.29-3.97-3.55-5.61-8.92-9.61-12.45-4.92-4.42-9.03-9.65-14.11-13.89-4.03-3.43-8.44-6.59-11.35-11.11 5.06-1.65 10.1-3.4 15.33-4.43 2.59-.65 6.07-1.09 6.95-4.1.59-2.28-1.94-3.73-3.8-4.21-12.42-.9-24.49-4.23-36.85-5.65-10.01-2.32-20.2-3.79-30.14-6.41-8.38-1.55-16.75-3.46-24.7-6.59 2.58-1.7 5.53-2.91 7.74-5.13.09-1.55-.21-3.1-.51-4.61-9.37.28-18.82.54-28 2.6-16.24 1.8-32.09 5.99-48.22 8.51 1.08-4.84 2.95-9.52 3.51-14.45-.98-7-4.86-13.66-11.08-17.2-11.06-6.24-23.5-10.48-36.28-10.72-7.96-1.15-15.99-.78-23.98-.49-7.34-.47-14.69-.85-22.02-1.45-6.89.11-13.09 3.72-18.83 7.19-4.76 2.37-7.43 7.57-8.37 12.6-.76 9.17 3.08 17.99 7.05 26.06-4.88.5-9.79 2.03-14.71 1.16-4.14-4.62-7.45-9.94-11.55-14.61 2.73-1.27 7.53-.76 8.07-4.57-.98-3.2-3.83-5.3-6.07-7.62-2.72-2.82-5.89-5.15-8.87-7.68 7.27-4 14.52-8.02 21.7-12.17.09-1.74.24-3.48.35-5.21-3.14-2.25-6.59-4.03-9.77-6.22 5.73-1.02 11.6-.35 17.34-1.32 8.18.57 16.59.21 24.53-2-1.93-2.34-3.87-4.68-5.66-7.13 3.96-2.04 8.53-.67 12.78-.91 7.75-.14 15.28 2.26 23.03 1.87 14.71-.56 29.88 1.24 44.1-3.56 5.06-2.08 10.51-3.58 14.85-7.07 4.62-3.69 9.48-7.13 13.59-11.42 4.02-4.28 8.92-8.19 10.81-13.97.75-2.78 1.9-5.41 3.32-7.91 2.78-5.15 3.12-11.09 4.36-16.7.82-3.75.91-7.69-.37-11.35-1.32-3.98-1.24-8.72-4.43-11.82-6.94-6.52-16.28-9.36-25.35-11.49-10-2.87-20.55-1.01-30.51 1.08-8.97 2.27-17.04 7.1-24.33 12.69-6.24 5.93-10.86 13.3-15.59 20.44-1.77 2.89-1.98 6.34-2.42 9.6-.99 7.31-.01 14.75 1.89 21.83 1.61 5.38 3.02 11.06 6.61 15.54 1.87 2.33 3.83 4.59 5.56 7.03-7.53-.27-15.25.85-22.62-1.15 1.62-5.25 1.54-10.83.24-16.13-1.4-5.42-1.55-11.15-3.78-16.34-1.83-4.29-3.78-8.53-6.08-12.59-.71-1.31-1.65-2.76-1.04-4.31.8-3.51 4.45-5.23 5.84-8.38 1.26-3.92-3.09-5.92-5.42-8.15 2.26-3.72 5.73-6.56 7.67-10.48 2.24-4.33 4.99-8.37 7.38-12.6 2.63-1.35 5.78-1.79 7.68-4.36 10.52-5.24 22.3-7.64 34.01-8.38 14.39-.54 28.74 1.17 43.03 2.71 7.27.14 14.29 2.19 21.27 4.04 7.89 1.08 15.96-2.08 21.82-7.33 1.38-1.3 3.28-2.74 3.2-4.84-.51-1.05-1.16-2.01-1.77-2.99-4.34.87-6.12 6.04-10.57 6.66-2.17.26-4.64 1.11-6.62-.23-4.29-2.64-6.65-7.34-10.38-10.61-7.29-6.98-17.24-9.75-26.25-13.73-8.04-3.46-16.12-6.92-23.79-11.14-6.3-3.93-14.03-3.27-20.89-1.46 1.52 3.73 4.25 6.68 6.93 9.6-6.17 1.44-12.53 1.82-18.69 3.36-5.83 1.56-12.06 1.61-17.6 4.19-2.81 1.26-5.39 3.37-8.61 3.35.7-2.11 3.02-4.05 2.23-6.4-3.79-2.51-8.09-4.13-12.08-6.29 5.52-3 11.32-6.05 15.17-11.19 1.62-2.4 4.27-3.73 6.21-5.81 1.66-2.87 1.86-6.42 3.89-9.11.65-1.16 1.91-2.09 1.96-3.5-1.82-6.63-7.02-11.79-8.36-18.59 4.86.08 10.76 1.15 14.51-2.73 4.93-8.36-.75-17.55-1.39-26.22 10.77-.23 21.46-1.66 32.21-2.08 5.03-4.76 8.35-11.05 12.25-16.72 4.06-5.68 7.14-12.05 11.79-17.29 4.51 6.51 10.44 12.07 17.77 15.22.25 1.3.51 2.6.77 3.9 2.99-1.15 6.19-2.58 7.86-5.49 2.37-3.93 4.55-8.07 7.79-11.38 2.11-.13 4.21.32 6.33.23 3.76-.82 7.07-3.26 11-3.4 3.35-.15 6.71.02 10.07.03 4.52-.11 8.47 2.38 12.34 4.39-.02 1.45-.05 2.9-.07 4.35 4.42-2.97 8.82-6 13.68-8.22m71.63 120.72c-5.4 2.87-11.13 5.22-16.06 8.88-6.98 5.09-14.22 9.79-21.45 14.49-4.54 1.9-9.58 2.77-13.49 5.99-1.36-2.8-1.19-5.98-1.79-8.96-3.99-.43-6.04 4.27-4.7 7.55 1.05 3.58 1.88 7.76 5.23 9.96 5.12 3.43 11.6 2.38 17.38 1.96 15.09-2.33 29.79-6.73 44.88-9.07 3.46-.79 6.82-2.08 10.39-2.42 8.01-.75 15.89-2.69 23.97-2.69 11.62-1.38 23.38-1 34.97.48 13.54 1.56 27.14 3.04 40.41 6.28 3.45.53 6.96.5 10.45.49 2.04-2.91.47-6.02-1.68-8.29 2.72-.36 5.28-1.35 7.67-2.7-1.32-1.76-2.63-3.72-4.78-4.54-7.29-3.27-14.87-5.99-22.71-7.59 1.32-1.44 2.53-2.96 3.67-4.54-.85-.75-1.73-1.45-2.64-2.1-10.53-2.23-21.34-2.4-32.06-2.68.51-1.14 1.02-2.27 1.53-3.41-16.59-1.68-33.21.9-49.8 1.22-3.49.16-6.59 1.93-9.76 3.2 1.27-1.07 2.52-2.15 3.76-3.25-2.22-1.2-4.44-2.83-7.08-2.76-5.77-.17-11.01 2.64-16.31 4.5m-85.8 21.31c.4 3.43-.01 8.11 4.26 9.07 1-1.42 2.8-2.8 2.18-4.76-1.68-7.69 1.63-15.28 4.39-22.32-5.2 4.68-10.48 10.69-10.83 18.01m83.57 21.58c-6.22 2.32-11.77 5.99-17.24 9.67-3.01 2.33-4.72 5.87-7.41 8.52-2.66 2.72-4.58 6.04-7.03 8.92-2.29 1.84-5.76 3.67-5.03 7.2 1.3 4-.72 8-.43 12.04.39 4.27 1.46 8.53 3.58 12.29 6.01 11.45 15.97 20.12 26.01 27.97 11.11 7.29 23.92 12.03 37.15 13.47-6.39-2.41-13-4.32-19.02-7.61-3.96-2.24-8.56-3.76-11.41-7.52 8.39 2.52 17.12 3.34 25.65 5.2 10.49 1.81 21.18.78 31.76.75 9.14-.05 17.95-2.76 26.78-4.79 5.96-1.6 11.25-4.91 16.98-7.13 3.47-1.64 6.62-3.89 9.82-5.99 8.47-5.97 12.63-15.96 15.58-25.53 1.36-3.4-.11-6.98-.94-10.31-1.13-4.9-4.87-8.49-7.04-12.89-1.92-2.99-2.79-6.96-6.04-8.85-12.9-7.81-27.12-13.49-41.98-16.12-3.21-.55-6.1-2.08-9.18-3.02-3.41-.53-6.9.04-10.31-.55-16.76-2.29-34.4-2.28-50.25 4.28z"/><path d="m160.95 140.95c2.32-2.19 4.81-4.69 8.04-5.33 6.48.21 12.81 1.94 19.24 2.78 1.23 4.85 3.64 9.27 5.65 13.82 2.96 4.19 4.55 9.65 2.42 14.58-3.58 7.74-9.48 14.4-16.94 18.6-2.65 1.84-6.34 3.21-7.3 6.59.89 5.06 6.65 5.45 10.52 7.1-.33 1.66-.66 3.32-.98 4.98 5.34 2.85 11.82 6.17 12.43 12.99-4.07 2.36-8.5 4.62-10.75 8.99 1.16 1.38 2.44 2.66 3.83 3.81-.01 2.53.61 4.97 1.78 7.21-4.02 5.07-6.3 11.33-10.82 16.04-1.77 1.75-3.19 4.23-2.34 6.79 1.06 2.27 3.27 3.62 4.9 5.43-.64 2.88-4.18 4.28-5.08 7.13-.3 1.39-.39 2.84-.2 4.27 1.73 7.31 6.81 13.32 8.35 20.69 1.47 5.81 2.59 11.71 3.38 17.65.32 2.9-.62 6.22-3.3 7.73-7.85.36-15.55-1.91-23.38-1.4-.28 2.07-.42 4.37 1.23 5.97 2.87 3.01 6.46 5.24 9.58 8-3.91.19-7.81.52-11.69.94-7.9.46-15.83-.26-23.73.38-2.38.27-5.44.59-6.13 3.39.37 1.48.99 3.05 2.38 3.87 3.53 2.37 7.41 4.15 11.06 6.32-5.24 4.55-11.8 7.05-18.03 9.91-3.57 1.23-3.92 6.76-1.2 8.98 3.57 3.54 7.98 6.19 11.04 10.25-2.45.33-6.39-.45-7.19 2.66-1.04 3.39 1.95 5.95 4.03 8.15 3.14 2.85 5.71 6.32 7.3 10.28-11.37-.04-22.77.5-34.1-.69-2.47-.44-5.03.69-6.61 2.58-.35 1.74.44 3.43 1.76 4.57 3.84 3.59 8.33 6.38 12.81 9.1 1.02.8 2.67 1.28 2.78 2.81-2.04 3.26-5.31 5.45-8.6 7.28-7.8 4.35-14.65 10.13-22.11 14.99-.63-1.06-1.4-2.06-1.69-3.27-2.58-12.48-4.84-25.13-4.72-37.91-.11-3.78 1.3-7.35 2.99-10.66-6.25.87-12.45 2.12-18.74 2.75 4.04-9.86 11.49-17.6 18.24-25.64-1.96.54-3.89 1.21-5.91 1.45-2.5-1.57-4.23-4.06-6.41-6 2.25-2.77 5.01-5.06 7.42-7.69 3.14-2.5 6.81-4.45 9.22-7.78 4.39-5.89 9.71-11.02 15.35-15.71 2.27-1.66 2.14-4.8 1.95-7.3-5.12-7.4-14.37-9.71-21.42-14.66-1.01-.8-3.12-2.58-1.22-3.64 3.18-2.09 6.47-4.03 9.41-6.46.03-2.61-.16-5.46 1.6-7.61 4.71-6.57 10.85-11.99 15.35-18.73 11.84-15.98 19.6-34.84 23.41-54.31.76-3.15.01-6.35.01-9.52.7-3.75 2.66-7.11 3.76-10.74-3.8 1.64-5.28 5.72-7.08 9.12-2.04-.75-4.08-1.55-5.98-2.61-1.14-2.16 1.08-3.91 2.21-5.5 4.11-4.42 6.51-10.03 10.16-14.8 5.46-7.33 9.02-15.99 15.44-22.6 4.75-6.44 6.75-14.71 12.62-20.37z"/><path d="m229.71 249.73c10.64-5.13 22.35-8.63 34.28-8 6.13.65 12.11 2.21 17.89 4.34 4.32 1.11 8.12 3.7 11.05 7.01 3.14 4.17 2.62 9.7 2.25 14.6-6.3.55-12.6 1.24-18.91 1.66-15.55-.17-30.99 2.16-46.23 5.03-7.85 2.16-16.02 2.82-23.74 5.53 3.87-12.44 11.96-23.7 23.41-30.17z"/><path d="m437.95 245.83c3.73.08 7.3-1.14 11-1.3 17.81-.52 35.98-.68 53.23 4.38 7.74 1.22 14.18 5.9 21.38 8.63 3.57 1.47 7.06 3.33 9.91 5.98 3.01 3.14 5.19 6.95 7.2 10.78-5.19-1-10.66-.61-15.63-2.62-2.69-1.08-5.44-2.12-8.35-2.41-10.56-1.24-21.14-2.57-31.78-2.86-6.32.04-12.61-1.41-18.92-.37-12 .15-24 .78-36 1.31-10.01-.12-19.89 1.66-29.91 1.39 2.44-3.39 4.89-6.92 8.45-9.24 4.37-2.92 8.1-6.9 13.14-8.73 5.28-2.01 10.49-4.85 16.28-4.94z"/><path d="m277.39 304.6c2.89-2.09 5.67-4.32 8.51-6.48-2.35 3.24-3.61 7.38-6.91 9.83-.43-.93-.81-1.88-1.3-2.78z"/><path d="m180.31 470.34c.57.06 1.72.18 2.29.24.25.94.66 1.86.76 2.84-.42 1.29-.86 2.57-1.3 3.85l-.28.73c-.57-2.54-1.12-5.09-1.47-7.66z"/></g><g fill="#525252" stroke="#525252"><path d="m234.92 186.72c1.69.28 3.42.55 5.01 1.28 10.19 4.53 19.99 9.94 30.51 13.71 6.17 3.22 12.89 5.33 18.86 8.95 4.9 2.95 8.61 7.42 11.8 12.09-18.02-3.1-36.25-5.44-54.57-5.48-8.69-.56-17.45.3-25.9 2.38-4.86 1.21-8.89 4.3-13.4 6.32-3.01 1.06-6.05 2.18-9.21 2.68-2.41.28-3.36-2.53-3.43-4.45 1.4-3.39 5.35-5.91 4.9-9.9-1.12-2.39-2.96-4.34-4.53-6.42 4.14-2.69 9.11-3.29 13.83-4.29 10.12-2.29 20.39-3.85 30.59-5.72-.85-3.99-3.82-7.1-4.46-11.15z"/><path d="m468.04 202c8.73-2.27 17.82-1.31 26.63-3.14-.58 1.61-1.13 3.23-1.66 4.85 4.33 2.7 9.41.31 14.14.91 6.9.81 13.83.07 20.76.16-1.71 1.78-3.3 3.73-4.26 6.04 3.13 1.31 6.41 2.21 9.76 2.78 4.86.8 9.42 2.74 14.17 3.98 1.36.33 2.61 1.03 3.64 1.99-1.87-.19-3.72-.5-5.56-.84-.55.95-1.33 1.93-1.34 3.08 1.44 1.76 3.22 3.18 4.85 4.75-6.36.9-12.1-2.38-18.15-3.63-19.73-3.85-39.95-5.6-60.02-3.91-24.31 1.15-47.75 8.17-71.55 12.59-5.72 1.29-11.55 2.6-17.45 2.32-1.73.09-3.07-1.03-4.34-2 5.39-1.84 11.09-3.08 15.72-6.58 6.96-3.87 13.35-8.61 20.01-12.96 8.07-5.54 17.19-9.38 26.44-12.46-1.09 1.69-2.27 3.32-3.36 5.01.47.47 1.42 1.4 1.9 1.87 9.91-1.45 19.72-3.53 29.67-4.81z"/><path d="m317.24 394.32c7.26-1.19 14.64-2.1 22.02-2.06-2.51 1.81-5.38 2.98-8.24 4.09 1.29 3.71 5.42 3.92 8.62 5.03 3.93 1.15 7.45 3.41 11.44 4.38 21.47 4.61 42.98 9.16 64.7 12.34.99.35 1.83.94 2.51 1.78-4.68 2.22-9.92 2.8-14.66 4.81-.98.66-3.07 1.2-2.04 2.72 1.93 1.43 4.14 2.47 6.02 3.99 7.18 6.15 15.97 10.56 21.79 18.2 4.25 5.48 8.73 10.83 12.12 16.91 1.2 1.87.91 4.14.74 6.24-6.69-1.3-13.08-3.74-19.75-5.1-2.41-.68-5.33.16-6.48 2.51-.67 2.9-.34 5.91-.15 8.85.77 7.33.8 14.72 1.94 22 .83 5.32 1.49 10.86-.12 16.11-1.92-2.7-3.06-6.03-5.78-8.07-5.06-4.28-10.97-7.38-16.03-11.66-3.03-.07-3.54 3.4-3.56 5.73.03 6.06.29 12.13-.33 18.18-1.97-.72-3.94-1.47-5.72-2.58-9.91-6.34-20.75-11.04-31.61-15.46-2.83-1.27-5.64-2.79-8.82-2.82-1.63 6.25 2.24 12.13 2 18.41-6.58-5.65-12.2-12.38-19.35-17.36-5.65-4.19-10.52-9.33-16.28-13.39.58 3.07 1.05 6.17 1.07 9.31-4.43-.8-7.58-4.16-11.23-6.47-3.77-2.62-7.87-4.75-11.61-7.4-3.31-2.32-5.8-5.58-8.99-8.03-8.48-6.03-15.37-14.31-24.88-18.84-1.69-.46-4.82.1-4.75 2.33.41 2.97 1.31 5.88 1.4 8.9-9.41-6.07-19.8-11.33-26.69-20.47-4.94-5.8-9.77-12.26-10.75-20.04 13.85-1.1 27.98-4.09 39.67-11.96 3.67-2.94 6.33-6.96 10.13-9.75 6.43-3.34 13.74-4.26 20.82-5.33 10.25-2.15 20.71-3.25 30.83-6.03z"/><path d="m141.99 406.42c7.25.3 14.43-1.84 21.67-.99 2.81 1.73 4.7 4.58 7.05 6.86 5.12 5.53 11.7 9.46 18.49 12.6 5.99 2.75 12.75 1.34 18.99 2.89 2.14 5.02 3.47 10.37 5.76 15.36 2.02 3.86-1.4 7.38-3.62 10.23-4.57 5.79-11.11 9.53-15.81 15.17-1.7 2.29-4.73 2.54-7.22 3.43.26-4.32 1.34-9.48-2.24-12.79-5.21 2.71-7.56 8.35-11.36 12.52-5.64 7.36-12.1 14.09-17.1 21.92-3.62 4.34-6.89 9.06-11.18 12.79 1.08-6.2 5.15-11.81 4.57-18.27-.23-3.01-4.26-2.65-5.93-1.05-5.2 4.44-10.4 8.89-15.38 13.58-4.18 3.95-9.48 6.42-13.79 10.22-4.33 3.38-8.61 8.42-14.71 7.47.61-3.06 1-6.17.92-9.29-7.38-2.66-15.34-.66-22.98-1.36 1.93-11.78 7.79-22.29 12.4-33.14 2.25-4.1-1.04-8.69-4.64-10.62-8.3-1.18-16.75.16-25.05-1.01 1.98-1.8 4.23-3.28 6.59-4.53 5.8-3.02 10.86-7.23 16.48-10.56 8.42-5.15 16.1-11.39 24.53-16.51 3.71-2.99 7.81-5.42 11.72-8.12 2.04-1.4 4.32-4.34 2.47-6.74-3.59-4.6-9.56-6.29-13.69-10.32 11.02.47 22.04-.03 33.06.26z"/></g><g fill="#323235" stroke="#323235"><path d="m570.42 247.9c2.86 8.42 4.68 17.17 5.84 25.98-.73.34-2.2 1.02-2.94 1.36-1.49-9.05-1.89-18.23-2.9-27.34z"/><path d="m176.02 361.26c19.31-2.61 38.9-1.61 58.22.32 8.09.67 15.3 4.66 22.74 7.55 4.72 1.81 9.1 5.33 10.73 10.27 2.13 6.02-.69 12.39-3.67 17.59-2.58 4.3-8.14 1.42-12.08 1.84-10.01.56-19 6.29-26.18 12.96-3.1 2.7-4.99 6.48-8 9.25-8.06 1.94-16.3-.36-24.26-1.79-1.19-3.2-2.4-6.48-4.7-9.07-3.24-3.77-6.05-8.12-10.55-10.52-3.76-2.67-8.38-3.46-12.47-5.41-2.37-4.14-3.34-8.92-4.73-13.44-1.03-4.6-1.7-9.83.48-14.19 3.26-4.57 9.37-4.9 14.47-5.36z"/><path d="m171.02 401.06c4.57 3.41 9.17 7.1 12.1 12.09-4.79-3.12-9.43-6.94-12.1-12.09z"/><path d="m252.06 404.1c2.14-.72 4.42-.71 6.64-.36-2.18 3.73-5.66 6.41-9.3 8.61-6.98 4.01-14.63 7.2-22.74 7.77 1.89-3.85 5.94-5.71 9.03-8.42 4.58-4.12 10.62-5.82 16.37-7.6z"/><path d="m679.16 558.22c10.21 3.45 18.87 9.95 27.69 15.94 5.82 4.16 9.16 10.79 14.69 15.27 5.75 4.66 11.61 9.29 18.19 12.77 8.63 5.16 18.07 8.73 26.88 13.56-.67-.88-1.54-1.59-2.35-2.27 7.9 1.26 15.69 3.51 23.75 3.56 3.02.31 6.62-.4 9.06 1.88 4.8 4.35 8.74 9.55 12.93 14.47v93.93c-1 9.19-.83 18.44-1.01 27.67h-166.66c9.04-15.35 22.25-27.47 34.89-39.77 5.44-5.28 11.86-9.51 16.76-15.34-6.26 2.7-11.19 7.51-16.49 11.67-11.23 8.99-22.09 18.51-31.76 29.18-4.02 4.46-7.29 9.51-10.93 14.26h-83.16c5.41-5.59 7.82-13.15 11.49-19.84 4.47-8.25 7.64-17.1 11.26-25.73 5.01-12.19 9.29-24.7 12.17-37.58-3.42 6.86-5.03 14.43-8.39 21.31-5.47 12.59-10.88 25.25-17.87 37.09-3.03 5.87-6.77 11.32-9.93 17.11-1.6 2.39-.55 5.17.22 7.64h-15.73c3.06-9.52 5.76-19.14 8.28-28.82 3.95-13.98 9.41-27.47 14.11-41.21 4.9-12.27 10.53-24.26 16.95-35.8 2.32-4.02 5.57-7.57 6.79-12.15 1.24-4.65 3.8-8.74 6.13-12.89-4.67 3.54-9.52 7.22-12.45 12.42-5.31 9.73-11.07 19.23-15.71 29.31-3.38 8.7-6.98 17.31-10.11 26.1-3.95 9.56-5.94 19.75-9.08 29.58-2.6 11.17-5.64 22.24-8.09 33.46h-26.33c1.67-14.84 4.83-29.44 6.51-44.27 2.84-15.34 5.23-30.76 8.59-46 1.84-10.54 2.99-21.34 6.99-31.35 1.57-3.84 5.08-6.29 8.13-8.88 4.95-4.02 9.37-8.64 14.23-12.77 1.39-1.01 2.86-2.54 4.74-2.17 3.71.73 6.71 3.2 9.98 4.94 2.96 1.69 6.26 2.6 9.5 3.59 6.87 1.97 13.04 5.79 19.9 7.8 14.03 3.87 28.16 8.4 42.84 8.64 4.53-.81 4.56-6.44 4.75-10.05.09-8.65 2.8-16.96 5.89-24.95 1.91-.21 3.9-.21 5.74-.84 2.01-2.74 1.95-6.43 1.63-9.66-.45-3.72-3.23-6.57-4.06-10.15-.4-3.95.81-7.83 1.49-11.67 5.58-.76 11.21-1 16.83-.69 1.94-.1 4.12.34 5.91-.61 2.01-2.17 2.93-5.08 4.22-7.69z"/><path d="m109.82 615.75c8.35-4.49 17.59-6.91 26.59-9.74.38 4.56.99 9.27 3.8 13.07 7.66-.56 13.94-6.35 21.62-6.29 5.12 2.43 8.11 7.6 11.48 11.92 3.89 5.57 8.28 10.76 12.47 16.11-8.34 5.95-17.12 11.34-24.91 18.03-8.35 7.41-17.65 13.64-26.28 20.71-3.99 3.31-8.85 5.8-11.75 10.24-3.47 5.19-4.86 11.36-6.85 17.19-1.99 6.12-4.54 12.03-6.66 18.11-3.21 9.94-5.56 20.19-9.49 29.9h-99.84v-7.09c6.62-6.01 12.53-12.73 18.81-19.08 10.73-11.99 20.53-24.79 31.14-36.89 1.79-1.79 3.8-3.34 5.62-5.11.98 1.69 1.95 3.38 2.94 5.08 5.65-4.77 8.66-11.65 12.86-17.58 4.86-6.91 8.63-14.51 13.51-21.4 5.05-7.99 9.46-16.39 15.12-23.99 3.42-4.29 4.58-10.57 9.82-13.19z"/><path d="m499.85 657.81c6.84-5.19 11.76-12.54 19.1-17.11-1.86 8.51-2.98 17.15-4.49 25.73-2.45 9.68-4.23 19.5-5.7 29.37-1.17 8.69-3.3 17.23-4.03 25.99-.47 6.21-2.79 12.1-3.19 18.32-.35 5.01-.57 10.12-2.32 14.89h-150.55c3.44-4.67 6.39-9.71 10.35-13.97 6.7-7.42 12.51-15.56 18.44-23.59 3.4-4.53 7.68-8.36 10.62-13.22 4.14-7.12 11.78-10.98 17.41-16.73 2.54-2.76 2.5-7.09 5.39-9.59 5.98-5.09 12.83-9.08 18.73-14.28 3.98-3.45 8.31-6.45 12.6-9.49 1.27-.71 2.65-2.16 4.22-1.38 6.95 2.53 13.01 6.96 19.76 9.94 5.39 2.03 11.04 3.71 16.84 3.97 6.78.22 11.84-5 16.82-8.85z"/><path d="m167.59 660.56c7.04-5.01 13.85-10.41 21.39-14.67 5.1 4.27 9.12 9.62 13.89 14.22 6.78 6.86 14.43 12.76 21.7 19.08-2.89 10.1-10.37 17.82-16.09 26.35-11.28 13.86-20.43 29.33-32.14 42.86-1.5 1.64-2.54 3.66-2.56 5.93l-.05.67h-67.62c2.37-7.89 4.89-15.72 7.32-23.59 1.76-5.46 4.23-10.66 5.72-16.21 1.91-7.04 4.28-13.99 7.36-20.61 1.17-2.7 3.39-4.69 5.76-6.33 6.28-4.32 11.78-9.64 18.1-13.89 6.15-4.09 11.32-9.4 17.22-13.81z"/></g><g fill="#f9f8f3" stroke="#f9f8f3"><path d="m411.04 273.82c4.95-.86 10 .03 14.96-.79 2.91-.41 5.86-.41 8.8-.48-.97 6.94-3.13 14.55.58 21.11 2.42 6.11 8.94 8.74 14.68 10.77 3.99.68 7.81 2.48 11.94 2.17 7.35-.1 15.12.89 21.97-2.45 8.38-2.5 15.95-9.24 17.36-18.21-.66-4.28-1.6-8.51-2.3-12.79 8.34.33 16.54 1.84 24.8 2.84 6.27 1.37 12.53 2.83 18.9 3.68.85 2.37 1.41 4.84 1.76 7.34-.94 8.68-5.97 16.34-12.1 22.37-14.41 10.43-31.95 15.41-49.35 17.99-10.44.2-20.96.73-31.32-.98-2.77-.48-5.55-.84-8.35-1.1-4.23-.42-8.22-2.05-12.43-2.59-6-.55-11.22-3.78-16.66-6.08-3.59-1.48-6.01-4.63-9.22-6.67-4.97-3.65-7.42-9.5-10.35-14.71-2.15-6.29-3.18-13.86.79-19.65 5.08-1.3 10.4-.77 15.54-1.77z"/><path d="m220.58 282.2c6.59-1.63 13.29-2.75 19.91-4.3.33 5.63 2.67 10.84 4.75 15.98 2.56 3.34 5.84 6.08 9.02 8.82 6.81 4.46 15.84 5.25 23.43 2.47.49.9.87 1.85 1.3 2.78-4.6 4.95-10.42 8.44-16.16 11.89-11.05 5.33-23.63 6.4-35.71 5.5-2.64-.93-5.81-.5-7.97-2.54-4.82-4.41-8.42-10.01-11.05-15.96-2.38-3.64-2.55-8.04-3.39-12.16-.23-2.9-.37-6.08 1.19-8.66 4.66-2.06 9.59-3.41 14.68-3.82z"/><path d="m232.28 684.56c8.39 5.29 17.41 10.83 27.61 11.23 7.02-.51 11.75-6.43 17.08-10.33 1.81 2.13 4.18 4.41 3.46 7.51-2.22 12.55-8.03 24.01-12.93 35.67-3.65 8.8-8.44 17.17-11.11 26.36h-82.66l.05-.67c3.32-3.21 6.34-6.7 9.41-10.14 4.3-5.64 9.44-10.57 13.55-16.37 5.71-6.97 11.38-13.98 17.2-20.85 3.8-5.54 7.97-10.84 12.39-15.89.12 9.34.1 18.7-.01 28.04 1.04-4.82 3.76-9.1 4.45-14.01 1.04-6.79 2.58-13.66 1.51-20.55z"/><path d="m276.5 721.17c4.1-8.21 6.88-16.98 9.1-25.86 2.58 4.05 7.19 7.24 7.39 12.43.62 3.35.64 7.33 3.56 9.66 2.17 2.34 5.49.77 8.15.48 3.78-1.09 7.67 2.13 11.31.19 3.88-2.03 6.23-5.89 8.88-9.21 2.73-3.8 6.01-7.15 9.01-10.73 4.69 3.33 9.33 6.76 14.24 9.77 2.03 1.34 4.57.35 6.82.51 8.98.29 18.19-1.74 25.89-6.45-2.75 3.53-5.45 7.1-8.68 10.22-7.74 8.74-14.6 18.24-21.11 27.91-3.26 5.04-7.45 9.46-10.06 14.91h-51.01c2.3-3.99 4.05-9.14 1.37-13.39-1.95-1.12-4.37-1.71-6.56-1.03-2.81 1.97-4.66 5-6.49 7.84-.25 2.18.07 4.38.13 6.58h-18.45c3.69-2.76 4.61-7.47 6.78-11.27 4.05-7.15 6.62-14.99 9.73-22.56z"/></g><path d="m563.47 386.4c2.63-5.41 4.03-11.44 7.68-16.33 3.85 10.84 3.03 22.54 3.53 33.87-.09 1.78.77 3.39 1.55 4.94 1.7-.24 3.83-.06 4.77-1.86 4.77-7.67 9.29-15.54 12.94-23.82 2.71 10.1 4.39 20.45 7.3 30.51 1.62 9.47 3.26 18.99 6.01 28.21.94 5.22 3.23 10.04 4.34 15.22 1.16 5.2 3.74 9.94 5.08 15.1 1.59 6.28 5.14 11.79 7.33 17.85 3.8 6.36 6 13.5 10.05 19.72 5.12 9.34 11.37 18.81 20.99 23.98 3.85-.29 6.83-3.19 10.43-4.35 3.87-1.06 6.98-3.8 10.82-4.92-3.23 7.86-6.65 15.81-7.5 24.37-1.37 4.35 1.82 8.37 1.46 12.77-5.43.06-10.87.18-16.24-.73-2.17-.01-5.37-.95-6.58 1.47-.95 1.71-2.26 3.52-1.67 5.58.64 3.52.63 7.13 1.06 10.68 1.39 4.53 2.27 9.19 3.15 13.85-2.4.55-4.92 1.01-6.96 2.49-2.61 5.76-3.84 12-6.08 17.9-1.87 5.16.95 11.3-2.93 15.81-8.86-.21-17.35-3-25.97-4.72-6.26-1.29-12.13-3.89-18.27-5.57-5.13-1.44-8.71-6.11-14.06-6.92-6.89-1.48-12.54-5.93-19.02-8.46-7.95-3.62-12.22-11.57-17.66-17.94 2.01 7.27 7.08 13.09 9.95 19.97-4.68 5.02-10.67 8.54-15.3 13.59-3 3.02-6.86 5.04-9.61 8.31-5.68 5.7-11.86 10.84-17.68 16.37-5.08 5.62-10.95 10.44-16.74 15.31-2.51 2.27-6.06 2.08-9.2 1.81-11.29-1.15-20.69-8.18-30.11-13.88-6.46-3.2-8.07-11.72-15.22-14.01 2.23 4.92 5.65 9.15 7.82 14.09-4.62 2.74-8.61 6.38-13.2 9.17-3.21 1.98-5.4 5.24-8.71 7.1-5.44 3.1-9.7 7.73-14.88 11.21-6.09 6-13.43 10.5-19.78 16.21-6.41 5.37-13.29 10.39-21 13.73-6.65 1.79-13.63-.79-19.32-4.21-2.29-2.41-4.84-4.5-7.54-6.41-3.49-4.28-8.32-7.04-12.21-10.88 1.68 3.39 3.6 6.87 4.07 10.67-4.21 4.23-7.67 9.12-11.36 13.79-1.91 3.3-5.78 6.72-9.81 4.96-5.48-4.29-10.42-9.61-12.86-16.26-3.56-2.76-7.76-4.85-10.58-8.48-3.18-3.86-5.45-8.49-9.34-11.72-8.35-6.21-13.36-15.58-18.47-24.39 2.65 6.83 5.02 13.84 9.02 20.04 2.19 3.26 4.2 6.63 6.34 9.93-3.18 3.5-7.44 5.72-11.66 7.7-4.67 2.17-9.54-.97-13.79-2.76-7.23-2.52-12.94-7.76-19.45-11.57-4.76-2.74-7.75-7.53-12.12-10.72-2.48-1.87-4.57-4.2-7.09-6.02-4.12-3.19-6.71-7.95-11.07-10.85-3.23-2.68-3.87-7.23-7.15-9.79-3.5-2.98-5.32-7.35-8.54-10.58-3.05-3-5.29-6.64-7.87-10.01-1.63-2.1-1.62-4.96-3.05-7.16-2.41-3.97-4.91-7.9-6.88-12.1-1.07-1.89-1.67-4.58-4.16-4.97 1.34 5.06 3.02 10.02 4.32 15.1-7.48-2.78-14.17 2.46-20.77 5.15-3.58-5.97-7.76-11.89-8.97-18.9-.6-3.33-2.09-6.73-4.66-8.95-2.91-1.04-6.15-.38-9.2-.68-4.6-4.79-6.33-11.55-6.36-18.03-.47-5.61.47-11.3-1.27-16.76-3.18-1.74-6.53-.2-9.69.68.05-9.29 1.93-18.43 3.34-27.59 6.01-2.16 10.69-6.61 15.71-10.38 6.65-5.08 13.45-9.94 20.08-15.04-1.54 5.04-2.48 10.36-1.3 15.59 1.6.11 3.21.3 4.82.12 5.72-4.7 9.53-11.19 14.89-16.25 5.48-5.38 8.67-13 15.13-17.34 2.23 3.79 4.07 8.07 7.95 10.52 7.11 4.94 14.04 10.38 22.11 13.7 12.18 6.05 26.39 7.61 39.7 5.13 11.4-2.09 20.23-10.17 29.2-16.87 1.79-1.92 3.2-4.18 5.15-5.95 1.06-.68 2.36-.09 3.27.58 4.36 2.96 8.37 6.42 12.99 9 5.59 2.98 10.5 7.15 16.33 9.7 2.7 1.23 5.06-1.03 6.81-2.79 4.56 3.71 8.24 8.35 12.78 12.09 5.11 4.55 9.61 9.9 15.56 13.4 1.65.19 3.32-.08 4.97-.19.64-1.54 1.78-3.1 1.28-4.85-.97-4.52-2.45-8.92-3.36-13.46 8.15 1.74 15.48 6.04 22.75 9.96 5.58 3.38 12.21 5.36 16.68 10.33 1.73 2.4 4.99 1.06 7.46 1.34.5-2.25-.1-4.47-.51-6.66 1.2-6.26.27-12.69 1.05-19.01 5.44 5.46 11.46 10.33 17.84 14.64 2.35 1.91 5.63.3 6.77-2.17.55-2.83-.57-5.63-.6-8.46-.32-11.83-1.01-23.65-.99-35.48 2.84-.28 5.57.43 8.07 1.79 3.75 2.07 8.18 2.17 12.05 3.95 2.82 1.09 6.76 1.99 8.94-.73 1.45-1.07.45-3.03.26-4.42-.75-3.13-2.45-5.96-2.94-9.15.01-.32.01-.97.02-1.29 2.64.4 5.22 1.11 7.84 1.64 7.94-9.09 8.81-21.53 12.52-32.48 2.92 6.16 6.37 12.06 10.45 17.54 2.2 3.3 5.64 5.37 8.87 7.53-1.09-2.35-1.98-4.8-2.42-7.36 3.23 3.63 6.5 7.24 10.15 10.47 7.02-15.82 13.58-31.92 22.25-46.94-.27 2.36-.57 4.72-.78 7.1 3.65-4.8 6.13-10.31 8.47-15.83 1.98-4.26 3.19-9.26 7.33-12.04 4.54 5.45 6.75 12.21 9.3 18.7 1.21 3.35 4.9 4.33 7.83 5.6 7.25-9.07 8.64-20.95 13.53-31.19z" fill="#d2cfc9" stroke="#d2cfc9"/><path d="m214.27 457.19c1.34-1.85 3-4.79 5.74-3.43 2.65 7.96 3.39 16.41 5.34 24.53.66-6.63-.04-13.3.18-19.94 1.69.14 3.63-.25 4.95 1.12 5.27 4.22 10.89 8.01 16.81 11.26 2.35 1.88 4.9 3.62 7.93 4.18 2.24.71 4.02-1.22 5.37-2.71-.5-1.83-1.09-3.68-1.1-5.58 6.7 2.07 11.59 7.67 16.59 12.35 1.18.76.74 2.22.06 3.16-2.15 3.13-4.85 5.86-8.14 7.78-4.13 3.64-8.81 6.54-13.38 9.58-10.14 5.6-22.23 4.57-33.27 2.99-7.64-2.18-15.07-5.5-21.42-10.35-4.05-2.56-8.58-4.25-12.9-6.29-3.13-1.71-4.1-5.38-4.97-8.57.44-1.28.88-2.56 1.3-3.85 1.42 1.2 2.39 2.82 3.76 4.07 4.36-1.89 9.05-3.42 12.55-6.77 4.99-4.35 10.67-8.11 14.6-13.53z" fill="#ffd0d0" stroke="#ffd0d0"/></g></svg>