<svg height="62" viewBox="0 0 72 62" width="72" xmlns="http://www.w3.org/2000/svg"><path d="m72 54.047c0 4.423-3.586 8.009-8.009 8.009h-56.059c-4.423 0-8.009-3.586-8.009-8.009v-36.038c0-4.423 3.586-8.009 8.009-8.009h56.059c4.423 0 8.009 3.586 8.009 8.009z" fill="#009b3a"/><path d="m65.449 36.028-29.487 22.272-29.488-22.272 29.488-22.274z" fill="#fedf01"/><path d="m48.843 35.876c0 7.141-5.789 12.929-12.93 12.929-7.14 0-12.929-5.788-12.929-12.929s5.789-12.93 12.929-12.93c7.141 0 12.93 5.789 12.93 12.93z" fill="#002776"/><path d="m24.503 29.795c-.664 1.243-1.117 2.609-1.345 4.05 7.998-.58 18.854 3.786 23.513 9.2.805-1.209 1.401-2.562 1.768-4.012-5.75-5.622-15.851-9.27-23.936-9.238z" fill="#cbe9d4"/><path d="m23.949 36.494h2.002v2.002h-2.002zm2.002 4.005h2.002v2.002h-2.002z" fill="#88c9f9"/><path d="m29.955 36.494h2.002v2.002h-2.002zm4.004 2.002h2.003v2.003h-2.003zm8.009 4.005h2.002v2.002h-2.002zm-6.006 2.002h2.002v2.002h-2.002zm6.006-12.013h2.002v2.002h-2.002z" fill="#55acee"/><path d="m37.964 40.499h2.002v2.002h-2.002z" fill="#3b88c3"/><path d="m72 20.054c0-2.176-.387-4.263-1.098-6.194-.485 5.689-3.518 8.611-6.687 7.25-2.969-1.275-.968-6.246-.82-8.618.249-4.021-.013-8.623-7.317-12.45 3.035 5.806.352 9.413-2.463 9.633-3.122.243-5.982-2.684-4.926-7.434-3.418 2.519-3.518 6.758-2.463 9.5 1.1 2.859-.044 5.234-2.727 5.498-2.998.296-4.663-3.21-3.127-8.796-2.659 3.13-4.263 7.183-4.263 11.611 0 9.912 8.034 17.946 17.945 17.946 9.912 0 17.946-8.034 17.946-17.946z" fill="#f4900c"/><path d="m65.027 25.332c.156 3.255-2.704 4.531-4.243 3.915-2.223-.89-1.627-2.419-2.199-5.585-.572-3.167-2.771-5.366-6.025-6.334 2.375 6.685-1.317 9.149-3.252 9.589-1.976.45-3.961-.001-4.188-4.23-2.306 2.295-3.733 5.47-3.733 8.979 0 .389.024.771.058 1.151 3.241 3.203 7.692 5.183 12.609 5.183 4.918 0 9.369-1.98 12.61-5.183.034-.38.058-.762.058-1.151 0-2.308-.617-4.471-1.695-6.334z" fill="#ffcc4d"/></svg>