<svg clip-rule="evenodd" fill-rule="evenodd" stroke-linejoin="round" stroke-miterlimit="2" viewBox="0 0 18 17" xmlns="http://www.w3.org/2000/svg"><path d="m18.6 8.51.67-.64c.413-.424.644-.993.644-1.584 0-1.246-1.024-2.27-2.27-2.27-.591 0-1.16.231-1.584.644l-1.44 1.44h-5.24l-1.44-1.44c-.424-.413-.993-.644-1.584-.644-1.246 0-2.27 1.024-2.27 2.27 0 .591.231 1.16.644 1.584l.67.64-2.4 7.49 6.73 5h4.54l6.73-5zm-10.6 3.49c0-.549.451-1 1-1h1c.549 0 1 .451 1 1v1h-2c-.549 0-1-.451-1-1zm6 7h-4s-1.17-2.35.09-3.44c.259.834 1.036 1.407 1.91 1.407s1.651-.573 1.91-1.407c1.26 1.09.09 3.44.09 3.44zm1-6h-2v-1c0-.549.451-1 1-1h1c.549 0 1 .451 1 1s-.451 1-1 1z" fill="#a4228b" transform="matrix(.9564 0 0 -.96959 -2.86901 20.362028)"/></svg>