<svg xmlns="http://www.w3.org/2000/svg" width="512pt" height="512pt" viewBox="0 0 512 512"><path fill="#fcf434" d="m17.22 87.2c11.15-10.52 26.33-16.85 41.76-16.27 130.01.11 260.03.11 390.04.01 8.39.11 16.94.21 24.92 3.14 20.27 6.76 34.11 25.87 38.06 46.38V164c-170.67.0-341.33.0-512 0v-43.48c2.73-12.26 7.79-24.67 17.22-33.32z"/><path fill="#fff" d="m0 164h512v92c-170.67.0-341.33.0-512 0z"/><path fill="#9c59d1" d="m0 256h512v93c-170.67.0-341.33.0-512 0z"/><path fill="#2c2c2c" d="m0 349h512v41.67c-3.51 20.92-17.61 40.26-38.1 47.13-8.3 3.05-17.17 3.16-25.88 3.25-130.01-.08-260.03-.08-390.04.0-21.48.57-42.97-12.46-51.93-32.08-2.81-5.83-4.5-12.13-6.05-18.39z"/></svg>