<svg fill-rule="evenodd" height="177" viewBox="0 0 26.247 49.953" width="93" xmlns="http://www.w3.org/2000/svg"><path d="m13.13333 24.84375-3.125 9.625h-10.09374898l8.15624948 5.9375-3.125 9.59375 8.1874995-5.9375 8.1875 5.9375-3.125-9.59375 8.15625-5.9375h-10.09375z" fill="#a80" fill-rule="nonzero"/><g transform="translate(-16.086663)"><path d="m31.044445 24.694445c0 1.013136-.821309 1.834444-1.834444 1.834444-1.013136 0-1.834445-.821308-1.834445-1.834444s.821309-1.834444 1.834445-1.834444c1.013135 0 1.834444.821308 1.834444 1.834444zm-1.128889 0c0 .389668-.315888.705555-.705555.705555-.389668 0-.705556-.315887-.705556-.705555 0-.389667.315888-.705555.705556-.705555.389667 0 .705555.315888.705555.705555z" fill="#a80"/><path d="m30.762223 24.694445c0 .857268-.694953 1.552222-1.552222 1.552222s-1.552222-.694954-1.552222-1.552222c0-.857269.694953-1.552223 1.552222-1.552223s1.552222.694954 1.552222 1.552223zm-.564445 0c0 .545535-.442243.987778-.987777.987778-.545536 0-.987778-.442243-.987778-.987778s.442243-.987778.987778-.987778c.545534 0 .987777.442243.987777.987778z" fill="#ffd42a"/></g><path d="m4.2333332 1.9755388h17.7799998v.8466667h-17.7799998zm-.282222 14.3933332h18.3444438v.846667h-18.3444438zm10.1599948 3.245556c0 .545535-.442243.987778-.987777.987778s-.987777-.442243-.987777-.987778c0-.545534.442243-.987778.987777-.987778s.987777.442244.987777.987778zm-10.3628418-19.61444463-1.490487 1.48166693v2.7163889l1.693334.5556247v9.6925691l-1.9755556.98778v2.266606c.5352386.509334 1.0418016 1.02568 1.4904866 1.481672h5.0711796c1.5837362 0 2.3747422 1.313874 2.4077082 2.54882h4.092223c.142947-1.43218 1.088595-2.54882 2.407708-2.54882h5.335768c.472072-.490733.963002-.966024 1.446391-1.446392l.0441-.03528v-.06174-2.204866l-1.975551-.98778v-9.6925691l1.69333-.5556247v-2.7163889l-1.490496-1.48166693z" fill="#a80"/><path d="m3.9511112 1.6933165h18.3444438v1.4111112h-18.3444438zm-.282223 14.3933325h18.9088898v1.411111h-18.9088898zm10.7244398 3.527779c0 .701402-.568598 1.27-1.269999 1.27s-1.269998-.568598-1.269998-1.27.568597-1.27 1.269998-1.27 1.269999.568598 1.269999 1.27zm-10.5304118-19.33222239h18.5208338l1.322917 1.31409729v2.3988889l-1.69333.5556247v10.0718015l1.975551.98778v1.975556l-1.322917 1.314097h-5.221111c-1.435396 0-2.586415 1.135265-2.663472 2.548819h-3.580695c-.07706-1.413552-1.2280732-2.548817-2.6634712-2.548817h-4.9565276l-1.322917-1.314097v-1.975556l1.975556-.98778v-10.0718011l-1.693333-.5556247v-2.3988889z" fill="#ffd42a"/><path d="m4.7977772 2.5399836h16.6511118v14.3933334h-16.6511118z" fill="#500"/><path d="m5.0799992 2.8222059h16.0866678v13.8288881h-16.0866678z" fill="#d40000"/><g fill="#f00"><path d="m5.362666 3.386983h15.522v.282h-15.522z"/><path d="m5.362666 4.232983h15.522v.282h-15.522z"/><path d="m5.362666 5.079983h15.522v.282h-15.522z"/><path d="m5.362666 5.926983h15.522v.282h-15.522z"/><path d="m5.362666 6.772983h15.522v.282h-15.522z"/><path d="m5.362666 6.772983h15.522v.282h-15.522z"/><path d="m5.362666 7.619983h15.522v.282h-15.522z"/><path d="m5.362666 8.466983h15.522v.282h-15.522z"/><path d="m5.362666 9.312983h15.522v.282h-15.522z"/><path d="m5.362666 10.159983h15.522v.282h-15.522z"/><path d="m5.362666 10.159983h15.522v.282h-15.522z"/><path d="m5.362666 11.006983h15.522v.282h-15.522z"/><path d="m5.362666 11.852983h15.522v.282h-15.522z"/><path d="m5.362666 12.699983h15.522v.282h-15.522z"/><path d="m5.362666 13.546983h15.522v.282h-15.522z"/><path d="m5.362666 13.546983h15.522v.282h-15.522z"/><path d="m5.362666 14.392983h15.522v.282h-15.522z"/><path d="m5.362666 15.239983h15.522v.282h-15.522z"/><path d="m5.362666 16.086983h15.522v.282h-15.522z"/></g><g transform="matrix(.28222223 0 0 .28222223 -38.637983 0)"><path d="m183.40625 70c-1.38071 0-2.5 1.119288-2.5 2.5v13c0 1.380712 1.11929 2.5 2.5 2.5s2.5-1.119288 2.5-2.5v-13c0-1.380712-1.11929-2.5-2.5-2.5z" fill="#a80"/><path d="m183.40625 71c-.82843 0-1.5.671573-1.5 1.5v13c0 .828427.67157 1.5 1.5 1.5s1.5-.671573 1.5-1.5v-13c0-.828427-.67157-1.5-1.5-1.5z" fill="#ffd42a"/></g><g fill-rule="nonzero"><path d="m17.851612 40.29067 7.637815-5.54954h-9.440849l-2.91781-8.979492-2.917726 8.979492h-9.44093198l7.63789848 5.54954-2.917643 8.979492 7.6384025-5.549539 7.638402 5.549539z" fill="#fd5"/><path d="m13.130767 25.761638v12.995374l2.917727-4.015798zm-12.35865702 8.979996 7.63856952 5.549707 4.7208435-1.533993zm24.71731602 0-7.63857 5.549707-4.720844-1.533993zm-4.720256 14.528612-7.63857-5.549791v-4.963694zm-15.2768045 0 7.6385695-5.549791v-4.963694z" fill="#f1cb40"/><path d="m12.220645 38.059748 2.537456 2.166809c.775036-1.097505.333214-2.491965-.432925-3.503439-.85217-1.124951-2.091689-1.93549-3.427144-2.370346l.01586-.450803c1.693847.226367 3.325333.86392 4.551255 2.089843.915455.915455 1.565263 2.176881 1.388584 3.502179-.08981.672218-.387601 1.304064-.822541 1.819747l1.612853 1.377337c.713848.60952-.462302 1.999783-1.184124 1.323872l-1.797337-1.683188c-.983021.416642-2.126773.325491-3.048103-.218729-.449544.395407-.603561.794592-.757242 1.193189-.186331.483453-.430323 1.06645-.9308146 1.311198-.6872377.336486-1.4809901-.085276-1.5284961-.843441-.0454076-.726019.6481291-1.212829 1.1361982-1.608404.3779494-.307446.7343285-.619172.9791595-1.190838l.670791-.825144c.606163.565959 1.316822 1.05428 2.168152.954988l-2.097816-1.964615-.845287.944999-1.7354784-1.552169 2.2530074-2.518991 2.18796.06639.487062.435527-1.38103 1.544028z" fill="#a80"/><path d="m15.255823 36.200636c-.869628-.869627-2.110406-1.556869-3.569494-1.871953 1.101366.473885 2.114435 1.226678 2.846917 2.180323.618668.805586 1.065442 1.806149.909663 2.804026-.140839.90169-.775875 1.717517-1.661617 1.997685-.959184.303333-1.859615-.100804-2.569267-.733909l-.439808.529113c.997457.98579 2.407864 1.545874 3.80971.944159 1.024483-.439639 1.833008-1.499375 1.979219-2.594698.16434-1.232637-.456007-2.40543-1.305323-3.254746zm-6.4409185 7.067057c-.199508.331115-.161151.78452.163669 1.02482.292925.216798.696642.178441.974208-.03819.3653595-.285203.5152635-.765634.6774215-1.179423.146798-.373921.317434-.748681.724676-1.12663-.252302-.169208-.492602-.357805-.714268-.565287-.247938.439975-.558573.715611-.8856595.982853-.333465.272613-.714939.526762-.940047.901857zm2.6364965-4.348473 2.252505 2.109902c.341774-.107266.63151-.308201.869375-.572422l-2.549626-2.1773zm3.496724 3.275309 1.713404 1.604963c.428477.400779 1.200995-.534149.790479-.884484l-1.619903-1.383296c-.260191.263716-.558908.488656-.88398.662817zm-3.893474-5.882094-1.9647825 2.196689 1.2960065 1.159112 2.79941-3.12977-.186835-.16711-1.943799-.05892z" fill="#fd5"/></g></svg>