<svg shape-rendering="crispEdges" viewBox="0 -.5 34 25" xmlns="http://www.w3.org/2000/svg"><path d="m14 0h1m5 17h2" stroke="#a45036"/><path d="m15 0h1" stroke="#990f11"/><path d="m16 0h1m4 2h1m-19 13h1m-2 3h1" stroke="#c50101"/><path d="m17 0h3m0 1h1m-17 13h1m-1 1h1m26 0h1m-29 1h1" stroke="#cd0201"/><path d="m20 0h1m10 16h1m-29 1h1" stroke="#ca0101"/><path d="m21 0h1m4 2h1m4 12h1m-2 1h1m-28 3h1" stroke="#d40000"/><path d="m22 0h1" stroke="#ce060c"/><path d="m23 0h1m-22 9h1" stroke="#694c75"/><path d="m24 0h1m-13 8h1m6 8h1m-2 1h1" stroke="#8d665c"/><path d="m12 1h1m7 7h1" stroke="#68302f"/><path d="m13 1h1m10 1h1m-23 9h1" stroke="#33389f"/><path d="m14 1h1m9 0h1m7 22h1m-1 1h1" stroke="#2145cf"/><path d="m15 1h1m13 9h1" stroke="#34276c"/><path d="m16 1h1m2 4h1m-19 10h1m3 0h1m-6 1h1" stroke="#9c0203"/><path d="m17 1h1m8 2h1m-24 10h1m28 6h1" stroke="#c10100"/><path d="m18 1h1m-15 15h1m26 1h1m-31 1h1m29 2h1" stroke="#b90100"/><path d="m19 1h1m0 1h1m-18 12h1m26 6h1" stroke="#be0101"/><path d="m21 1h1m3 2h1m-22 10h1m-2 6h1" stroke="#db0000"/><path d="m22 1h1m-20 11h1" stroke="#941235"/><path d="m23 1h1m-1 1h1m-20 9h1m24 1h2m-30 9h2" stroke="#0954f8"/><path d="m25 1h1m5 12h1m-3 1h1m-27 6h1m28 0h1m-3 1h1" stroke="#aa1228"/><path d="m26 1h1" stroke="#e14204"/><path d="m4 2h1m22 2h1" stroke="#924b24"/><path d="m5 2h1m15 5h1" stroke="#75462b"/><path d="m6 2h1m5 3h1" stroke="#7f3f25"/><path d="m7 2h1" stroke="#995427"/><path d="m10 2h1m14 3h1m-5 13h1" stroke="#882e14"/><path d="m11 2h1m-1 1h2m-1 1h1m-8 14h1" stroke="#6c0607"/><path d="m12 2h1" stroke="#53091c"/><path d="m13 2h1m2 1h1m-13 6h1m2 3h1" stroke="#11248b"/><path d="m14 2h1m13 11h1m1 10h1m-1 1h1" stroke="#083ed5"/><path d="m15 2h1m-13 7h1m25 2h1m-27 11h1" stroke="#0c3ac6"/><path d="m16 2h1m-12 19h1m23 1h1" stroke="#461433"/><path d="m17 2h1m2 3h1m-20 8h2m1 4h1" stroke="#ac0101"/><path d="m18 2h1m-14 12h1m-4 1h1m28 3h2m-2 1h1" stroke="#b50000"/><path d="m19 2h1m-18 12h1m-2 2h1m30 1h1m0 2h1" stroke="#b20101"/><path d="m22 2h1m-19 5h1m1 3h1" stroke="#4c3472"/><path d="m25 2h1" stroke="#d0020b"/><path d="m27 2h1m-10 1h1" stroke="#b73209"/><path d="m4 3h1m5 18h1m12 0h1m4 1h1m-19 1h1m-1 1h1" stroke="#a4754b"/><path d="m5 3h1m22 2h1m-10 16h1" stroke="#926745"/><path d="m6 3h2m1 3h1m8 9h1m-12 6h1m-1 1h1" stroke="#562825"/><path d="m8 3h2m-1 1h1m1 2h1m-4 2h1" stroke="#724135"/><path d="m10 3h1" stroke="#671b1b"/><path d="m13 3h1m14 11h1" stroke="#33134f"/><path d="m14 3h1m-9 8h1m21 1h1m-25 10h1" stroke="#0529a5"/><path d="m15 3h1m-11 8h1m-6 10h1" stroke="#0b44d9"/><path d="m17 3h1m-12 11h1m-2 3h1m23 4h1" stroke="#780708"/><path d="m19 3h2m-1 1h1" stroke="#ba621c"/><path d="m21 3h1m8 14h1m-1 1h1" stroke="#ac3e26"/><path d="m22 3h1m-18 9h1m-6 8h1" stroke="#2d3ab4"/><path d="m23 3h1" stroke="#004cff"/><path d="m24 3h1" stroke="#621e65"/><path d="m27 3h1m-9 1h1m-6 1h1" stroke="#b0530e"/><path d="m4 4h1m22 6h1m-7 10h1" stroke="#b38455"/><path d="m5 4h1m0 2h1m0 1h1m20 0h1m-2 13h1" stroke="#b58a55"/><path d="m6 4h1m20 2h1m0 12h1m-14 2h1m-8 1h2m7 0h1" stroke="#9b6c44"/><path d="m7 4h1m5 3h1m-6 13h1" stroke="#62352e"/><path d="m8 4h1m0 1h1m7 2h1m6 0h2m-16 1h1m7 1h1m-12 11h1" stroke="#522321"/><path d="m10 4h1m15 5h1m-9 7h1m1 3h1m-12 1h1" stroke="#7b4c3d"/><path d="m11 4h1m7 6h1m1 13h1" stroke="#692b24"/><path d="m13 4h1m12 1h1m-8 6h1m-1 11h1m-1 1h1" stroke="#601e1c"/><path d="m14 4h1m12 9h1" stroke="#594159"/><path d="m15 4h1m6 0h1" stroke="#8e9067"/><path d="m16 4h1m-6 13h1m11 5h1" stroke="#8f6d55"/><path d="m17 4h1m4 2h1m1 0h1" stroke="#8f661f"/><path d="m18 4h1m-4 1h1m1 0h2m2 0h1m-3 1h2" stroke="#b58e18"/><path d="m21 4h1m2 1h1m-7 1h1m2 0h1" stroke="#cbad21"/><path d="m23 4h1m6 7h1" stroke="#58609c"/><path d="m24 4h1" stroke="#922b40"/><path d="m25 4h1" stroke="#c70402"/><path d="m26 4h1" stroke="#a3190d"/><path d="m28 4h1m-17 2h1m-5 17h1" stroke="#6e3c2c"/><path d="m29 4h1m-22 6h1" stroke="#8a614a"/><path d="m30 4h1m-27 2h1m25 1h1m-2 2h1" stroke="#b77940"/><path d="m4 5h1m25 1h1m-22 12h1" stroke="#be8c4f"/><path d="m5 5h1m23 0h2" stroke="#c3995a"/><path d="m6 5h1m1 12h1" stroke="#b2804a"/><path d="m7 5h1m10 16h1m-10 2h1" stroke="#a07246"/><path d="m8 5h1m7 1h1m-1 1h1m-7 3h1m-3 5h1" stroke="#5b2e2d"/><path d="m10 5h1m-2 2h1" stroke="#74473b"/><path d="m11 5h1m14 5h1m-9 1h1" stroke="#77554a"/><path d="m13 5h1m2 0h1" stroke="#955114"/><path d="m22 5h2" stroke="#e0cf21"/><path d="m27 5h1m-6 3h1m-16 9h1" stroke="#663930"/><path d="m5 6h1m4 9h1m4 3h1m-4 4h1m14 2h1" stroke="#caa770"/><path d="m7 6h1m1 13h1m18 0h1" stroke="#ac7f4c"/><path d="m8 6h1m5 13h1m12 0h1m-12 2h1m-9 3h1" stroke="#926344"/><path d="m10 6h1m4 0h1m-5 1h1m7 2h1m0 1h1" stroke="#6a352c"/><path d="m13 6h2" stroke="#6b3325"/><path d="m17 6h1m5 0h1m-6 1h1" stroke="#845826"/><path d="m25 6h1m-19 12h1m13 3h1" stroke="#5c3627"/><path d="m26 6h1" stroke="#55272a"/><path d="m28 6h1m-21 1h1m18 0h1m-19 15h1" stroke="#b0834d"/><path d="m29 6h1m-21 11h1m18 0h1m-18 3h1m3 2h1" stroke="#c6a169"/><path d="m5 7h1m18 9h1" stroke="#c4a278"/><path d="m6 7h1m22 1h1m-3 1h1" stroke="#d4a968"/><path d="m10 7h1m-5 17h1" stroke="#5c2c26"/><path d="m12 7h1m10 0h1m-3 1h1" stroke="#5d2420"/><path d="m14 7h1m5 4h1m10 1h1m-5 6h1" stroke="#855b52"/><path d="m15 7h1m-6 4h1m7 1h1" stroke="#82625b"/><path d="m19 7h2" stroke="#9d7d25"/><path d="m22 7h1m-12 1h1m7 7h1" stroke="#622a23"/><path d="m26 7h1m-9 16h1" stroke="#6b3a32"/><path d="m29 7h1m-16 9h1m-5 1h1m15 0h1m-2 5h1" stroke="#cdac73"/><path d="m3 8h1m3 3h1" stroke="#2d3785"/><path d="m4 8h1m0 2h1" stroke="#04188b"/><path d="m5 8h1m12 6h1" stroke="#846268"/><path d="m6 8h1" stroke="#eac479"/><path d="m7 8h1m19 9h1m-7 2h1m-6 3h1m-6 1h1m-1 1h1" stroke="#b28c5d"/><path d="m9 8h1m-2 1h1" stroke="#562b29"/><path d="m13 8h1m2 0h1m5 1h1m2 0h1m-5 1h1m-5 5h1m7 0h2" stroke="#c8b7ac"/><path d="m14 8h1m-2 6h1m9 1h1" stroke="#f2ebdd"/><path d="m15 8h1" stroke="#f9f5ec"/><path d="m17 8h1" stroke="#562c34"/><path d="m18 8h1m-13 15h1" stroke="#5a251c"/><path d="m19 8h1m0 1h1" stroke="#652e28"/><path d="m23 8h1m-7 1h1m2 4h1m-1 1h1" stroke="#a1897d"/><path d="m24 8h1m-15 5h1m7 0h1m8 2h1m-8 1h1" stroke="#967972"/><path d="m25 8h1m-19 8h1" stroke="#4c2127"/><path d="m26 8h1" stroke="#663324"/><path d="m27 8h1m-18 11h1m4 0h1m0 1h1m-6 1h1m2 0h1m-4 1h1" stroke="#bb925e"/><path d="m28 8h1m-22 1h1m9 11h1m4 0h1" stroke="#d2ae73"/><path d="m5 9h1m22 2h1" stroke="#191f77"/><path d="m6 9h1m15 9h1m3 0h1m-10 5h1" stroke="#bf9c6f"/><path d="m9 9h1m-1 1h1m11 12h1" stroke="#3c0708"/><path d="m10 9h1m-4 5h1m-2 8h1m13 0h1" stroke="#4d1e16"/><path d="m11 9h1m-2 3h1m-1 2h1" stroke="#8f706b"/><path d="m12 9h1" stroke="#f6f2e4"/><path d="m13 9h1m-2 1h1m9 1h1m-1 1h1m-7 3h1" stroke="#fffeee"/><path d="m14 9h1m7 1h1m-10 2h1m7 0h1m-9 1h1m7 0h2m-1 1h1" stroke="#fffde8"/><path d="m15 9h1m-5 1h1m2 0h1m-1 3h1m9 2h1" stroke="#dbd6bf"/><path d="m16 9h1" stroke="#c0d4b3"/><path d="m21 9h1m-4 1h1m9 11h1" stroke="#6d453e"/><path d="m23 9h2" stroke="#fffff8"/><path d="m28 9h1m-11 10h1m-1 1h1m5 3h1" stroke="#e0c183"/><path d="m2 10h1m29 11h1" stroke="#1a41c5"/><path d="m3 10h2m-2 1h1m29 10h1m-34 1h1m-1 1h1m2 0h1m-4 1h1" stroke="#1543cb"/><path d="m7 10h1" stroke="#c3a87f"/><path d="m13 10h1m9 0h1m-10 4h1m6 0h1" stroke="#fef6e2"/><path d="m15 10h1m1 2h1m-3 1h1m10 0h1m-2 1h1" stroke="#408526"/><path d="m16 10h1m-1 3h1m7 0h2" stroke="#136503"/><path d="m17 10h1" stroke="#6c895a"/><path d="m24 10h1m-11 1h1m-1 1h1m8 0h1m-1 1h1m-8 1h1" stroke="#a6bb8b"/><path d="m25 10h1m-2 4h1" stroke="#6f9b57"/><path d="m28 10h1" stroke="#89777d"/><path d="m1 11h1" stroke="#782b54"/><path d="m8 11h1" stroke="#553138"/><path d="m9 11h1m-1 1h1m-1 1h1" stroke="#400f08"/><path d="m11 11h1m9 0h1m-11 1h1m-1 1h1m10 2h1" stroke="#f8f0dc"/><path d="m12 11h2m-2 1h1m-1 1h1" stroke="#fff9e3"/><path d="m15 11h1m9 0h1m-11 1h2m7 0h1" stroke="#0b4700"/><path d="m16 11h1m8 1h1" stroke="#042501"/><path d="m17 11h1m8 0h1" stroke="#3c6623"/><path d="m23 11h1m-13 3h1m3 0h1m-4 1h1m1 0h1" stroke="#d3caac"/><path d="m24 11h1m1 1h1" stroke="#307215"/><path d="m27 11h1m-1 3h1" stroke="#573a44"/><path d="m2 12h1" stroke="#9b060b"/><path d="m4 12h1m25 1h1m-29 7h1" stroke="#72256f"/><path d="m6 12h1" stroke="#0835ba"/><path d="m8 12h1m-2 3h1m-2 2h1m0 2h1" stroke="#421920"/><path d="m19 12h1m-1 1h1m-1 1h1" stroke="#551a16"/><path d="m20 12h1m-1 3h1m-4 1h1" stroke="#9d7f74"/><path d="m27 12h1" stroke="#412f3f"/><path d="m0 13h1m32 5h1" stroke="#9a0904"/><path d="m5 13h1" stroke="#bd0814"/><path d="m6 13h1" stroke="#481e56"/><path d="m7 13h1m-3 9h1m-1 1h1m-1 1h1" stroke="#342450"/><path d="m8 13h1m-1 1h2m-4 4h1m-1 1h1m-1 1h1m-1 1h1" stroke="#451c15"/><path d="m17 13h1m8 1h1" stroke="#8ca674"/><path d="m29 13h1m2 9h1m-2 1h1m-29 1h1m27 0h1" stroke="#1848dd"/><path d="m0 14h1m-1 1h1m3 4h1" stroke="#910202"/><path d="m1 14h1m-2 3h1m-1 1h1m3 0h1" stroke="#a00201"/><path d="m12 14h1" stroke="#e6d7c7"/><path d="m17 14h1m5 0h1m-3 1h1" stroke="#ede9d4"/><path d="m30 14h1m-29 5h1" stroke="#e60000"/><path d="m6 15h1" stroke="#600c11"/><path d="m9 15h1m4 3h1m4 1h1m6 0h1m-7 1h1m5 0h1" stroke="#a67959"/><path d="m11 15h1m0 1h1" stroke="#d6bc86"/><path d="m13 15h1m-3 3h1" stroke="#d5bd97"/><path d="m15 15h1" stroke="#f1e1d2"/><path d="m28 15h1" stroke="#934a3f"/><path d="m29 15h1" stroke="#cb0909"/><path d="m2 16h1m-2 1h2" stroke="#b60101"/><path d="m5 16h1m-2 4h1" stroke="#890405"/><path d="m6 16h1m-2 4h1m16 2h1" stroke="#541114"/><path d="m8 16h1m0 8h1" stroke="#986a48"/><path d="m9 16h2" stroke="#d5b276"/><path d="m11 16h1m13 4h1m-2 2h1" stroke="#bd9767"/><path d="m13 16h1m12 0h1m-2 1h1m-9 2h1m4 0h1m4 3h1m-12 1h1" stroke="#ddbf86"/><path d="m15 16h1m7 0h1" stroke="#c5a681"/><path d="m16 16h1m5 0h1" stroke="#c8b09c"/><path d="m21 16h1" stroke="#c2a898"/><path d="m25 16h1m0 5h1" stroke="#cfaf7d"/><path d="m27 16h1m-11 2h1m6 0h1" stroke="#eed8a3"/><path d="m28 16h1" stroke="#f2e7b8"/><path d="m29 16h1m-8 1h1" stroke="#c18869"/><path d="m30 16h1" stroke="#ba130d"/><path d="m32 16h1" stroke="#bc0405"/><path d="m12 17h1m0 1h1m0 2h1m10 1h1" stroke="#9c7455"/><path d="m13 17h1m1 0h1m8 2h1m-11 3h1" stroke="#d6b67d"/><path d="m14 17h1m10 2h1m-10 5h1" stroke="#d7b881"/><path d="m16 17h1m-1 1h1" stroke="#dfc78d"/><path d="m17 17h1m5 0h2m-2 1h1m1 0h1" stroke="#e6cf9a"/><path d="m19 17h1" stroke="#864231"/><path d="m29 17h1" stroke="#d1be7e"/><path d="m8 18h1m1 4h1" stroke="#aa7949"/><path d="m10 18h1m1 3h1m0 2h1" stroke="#cfb278"/><path d="m12 18h1" stroke="#b19277"/><path d="m18 18h1m-6 1h1m5 5h2" stroke="#aa8865"/><path d="m19 18h1" stroke="#5f1a15"/><path d="m20 18h1" stroke="#781b09"/><path d="m29 18h1" stroke="#ab8454"/><path d="m0 19h1" stroke="#8e0c1e"/><path d="m1 19h1" stroke="#c10204"/><path d="m5 19h1" stroke="#5e1110"/><path d="m8 19h1m19 1h1m-22 3h1" stroke="#7d5039"/><path d="m11 19h1m12 5h1" stroke="#d7b67a"/><path d="m12 19h1m13 3h1" stroke="#dbbc82"/><path d="m16 19h1" stroke="#d3b57e"/><path d="m23 19h1m-1 1h1m-10 3h1" stroke="#d8ba7f"/><path d="m29 19h1m-8 4h1" stroke="#986e4e"/><path d="m30 19h1" stroke="#a31917"/><path d="m1 20h1m29 1h1" stroke="#4d2d8e"/><path d="m10 20h1m13 1h1" stroke="#9f714b"/><path d="m12 20h1m13 3h1m-12 1h1m7 0h1" stroke="#d8b97c"/><path d="m13 20h1" stroke="#cfb180"/><path d="m19 20h1m-5 3h1m6 1h1" stroke="#ddbd7f"/><path d="m24 20h1m2 1h1" stroke="#d6b37b"/><path d="m29 20h1" stroke="#78231f"/><path d="m33 20h1" stroke="#731947"/><path d="m3 21h1m26 1h1m2 0h1m-1 1h1m-1 1h1" stroke="#183dbe"/><path d="m4 21h1m24 2h1m-1 1h1" stroke="#261f65"/><path d="m13 21h1" stroke="#d8ba7c"/><path d="m15 21h1m6 0h1m-15 1h1" stroke="#8a5b3c"/><path d="m20 21h1" stroke="#4e3a2a"/><path d="m1 22h1m-1 1h1m-1 1h1" stroke="#1c4deb"/><path d="m2 22h1" stroke="#1f50f2"/><path d="m13 22h1m9 1h1m-10 1h1" stroke="#d1b57a"/><path d="m17 22h1" stroke="#764838"/><path d="m18 22h1" stroke="#4b0f14"/><path d="m31 22h1" stroke="#0d49e7"/><path d="m2 23h1" stroke="#1f4ff0"/><path d="m4 23h1" stroke="#102fa3"/><path d="m12 23h1m-1 1h1m5 0h1" stroke="#c5a66f"/><path d="m20 23h1" stroke="#702b21"/><path d="m25 23h1m0 1h1" stroke="#daba7d"/><path d="m27 23h1m-15 1h1" stroke="#cfb47c"/><path d="m28 23h1m-22 1h1" stroke="#94643a"/><path d="m2 24h1" stroke="#2050f0"/><path d="m4 24h1" stroke="#1135af"/><path d="m17 24h1" stroke="#dbbd7f"/><path d="m21 24h1" stroke="#c6aa73"/><path d="m25 24h1" stroke="#d8b77b"/><path d="m28 24h1" stroke="#844e2d"/></svg>