<svg shape-rendering="crispEdges" viewBox="0 -.5 276 236" xmlns="http://www.w3.org/2000/svg"><path d="m156 0h3m-3 1h3m-4 1h2m1 0h1m-4 1h1m2 0h1m-5 1h1m3 0h1m-8 1h1m2 0h1m2 0h2m-8 1h3m3 0h2m-8 1h1m5 0h2m-21 1h4m9 0h1m5 0h1m-21 1h2m2 0h2m7 0h2m5 0h1m-21 1h1m4 0h1m7 0h2m4 0h2m-29 1h2m5 0h1m5 0h2m6 0h1m5 0h2m-30 1h4m4 0h1m6 0h1m6 0h1m5 0h1m-29 1h1m3 0h2m1 0h2m6 0h2m4 0h2m5 0h1m-29 1h1m4 0h3m8 0h1m4 0h1m5 0h2m-29 1h1m5 0h1m9 0h2m3 0h1m5 0h2m-29 1h1m4 0h2m10 0h1m2 0h2m5 0h1m-28 1h1m16 0h2m1 0h1m5 0h2m-28 1h1m13 0h34m-48 1h1m8 0h6m31 0h5m-51 1h1m4 0h6m39 0h2m-52 1h6m45 0h2m-56 1h5m50 0h1m-58 1h3m53 0h2m-61 1h4m54 0h2m-62 1h3m51 0h7m-64 1h3m48 0h7m3 0h2m-64 1h2m29 0h8m9 0h4m11 0h1m-66 1h2m19 0h3m6 0h3m7 0h4m3 0h3m15 0h2m-68 1h2m14 0h6m2 0h7m13 0h5m17 0h2m-69 1h1m14 0h3m10 0h2m15 0h3m20 0h1m-70 1h1m13 0h2m12 0h1m15 0h3m22 0h1m-71 1h1m3 0h12m28 0h2m12 0h14m-73 1h6m9 0h2m27 0h1m8 0h8m68 0h4m-134 1h3m14 0h2m25 0h2m5 0h4m2 0h4m67 0h3m2 0h3m-207 1h8m61 0h3m17 0h2m23 0h2m2 0h4m8 0h1m66 0h3m7 0h2m-210 1h2m7 0h2m57 0h2m14 0h9m21 0h2m1 0h3m11 0h2m64 0h2m10 0h2m-212 1h1m11 0h2m55 0h1m12 0h3m8 0h2m20 0h3m15 0h2m62 0h2m12 0h2m-214 1h1m13 0h2m54 0h1m9 0h4m11 0h1m19 0h2m18 0h1m60 0h2m7 0h5m3 0h3m-217 1h6m11 0h2m46 0h2m4 0h1m7 0h3m1 0h1m12 0h1m19 0h1m20 0h1m58 0h2m5 0h4m3 0h8m-219 1h3m4 0h2m10 0h2m45 0h3m3 0h1m5 0h4m1 0h1m14 0h1m39 0h2m13 0h2m40 0h2m6 0h2m10 0h6m-223 1h3m8 0h2m9 0h2m43 0h2m1 0h2m2 0h2m2 0h3m1 0h1m2 0h1m14 0h2m39 0h2m11 0h4m38 0h2m6 0h2m14 0h5m-226 1h2m11 0h2m10 0h2m41 0h2m2 0h2m2 0h3m4 0h1m1 0h1m16 0h1m26 0h2m11 0h3m9 0h2m2 0h1m36 0h2m7 0h2m17 0h5m-230 1h2m14 0h2m10 0h2m40 0h1m4 0h1m2 0h2m4 0h1m1 0h2m16 0h1m25 0h2m13 0h3m8 0h1m3 0h1m35 0h2m8 0h1m21 0h4m-233 1h1m17 0h2m10 0h2m39 0h1m4 0h2m6 0h2m1 0h1m12 0h3m2 0h1m8 0h1m15 0h5m11 0h3m7 0h1m4 0h1m33 0h2m9 0h1m24 0h5m-238 1h2m19 0h2m11 0h2m37 0h1m5 0h1m6 0h1m1 0h2m9 0h3m2 0h2m1 0h2m7 0h1m14 0h1m4 0h2m11 0h1m1 0h1m6 0h1m4 0h1m31 0h2m10 0h2m11 0h1m15 0h5m-244 1h3m22 0h2m11 0h3m35 0h1m5 0h1m5 0h1m2 0h1m8 0h2m6 0h4m7 0h1m13 0h1m6 0h2m10 0h1m1 0h2m4 0h2m4 0h1m29 0h2m12 0h1m10 0h11m11 0h4m-249 1h3m9 0h4m12 0h2m12 0h2m34 0h1m5 0h1m4 0h1m2 0h2m7 0h1m9 0h3m7 0h1m12 0h5m4 0h2m9 0h2m1 0h2m3 0h1m5 0h1m28 0h2m12 0h2m9 0h2m9 0h5m10 0h3m-254 1h3m9 0h3m4 0h3m10 0h2m13 0h2m32 0h1m6 0h1m2 0h2m2 0h1m7 0h1m11 0h2m6 0h1m12 0h8m3 0h1m10 0h1m2 0h1m3 0h1m5 0h1m26 0h2m14 0h1m9 0h1m15 0h5m8 0h2m-257 1h2m9 0h2m10 0h2m10 0h2m13 0h2m30 0h1m7 0h1m2 0h1m2 0h2m6 0h1m12 0h3m5 0h1m12 0h1m6 0h2m2 0h1m10 0h1m3 0h1m2 0h1m5 0h1m25 0h2m14 0h1m9 0h2m19 0h4m6 0h3m-261 1h2m7 0h3m14 0h2m10 0h2m14 0h2m28 0h1m7 0h1m1 0h1m3 0h1m6 0h2m4 0h11m5 0h1m11 0h1m8 0h2m1 0h2m9 0h2m2 0h2m1 0h1m5 0h1m24 0h2m15 0h1m9 0h1m23 0h4m4 0h3m-262 1h1m4 0h4m18 0h1m11 0h2m14 0h2m27 0h1m7 0h2m4 0h1m6 0h1m3 0h3m6 0h5m4 0h1m10 0h2m2 0h4m3 0h2m1 0h1m10 0h1m3 0h3m5 0h1m24 0h1m15 0h2m8 0h1m11 0h1m15 0h4m2 0h3m-265 1h7m23 0h1m11 0h2m14 0h1m27 0h1m7 0h2m3 0h2m5 0h1m3 0h1m3 0h4m3 0h1m2 0h1m4 0h2m8 0h2m2 0h1m4 0h1m2 0h2m1 0h1m10 0h1m3 0h3m5 0h1m23 0h1m16 0h1m9 0h1m11 0h1m18 0h2m2 0h2m-268 1h3m30 0h2m11 0h2m13 0h2m25 0h1m8 0h2m3 0h1m6 0h1m2 0h1m3 0h1m3 0h2m2 0h1m2 0h2m4 0h1m8 0h1m2 0h1m1 0h1m1 0h1m1 0h1m3 0h1m1 0h1m10 0h1m4 0h2m5 0h1m23 0h1m15 0h1m9 0h1m12 0h1m20 0h2m1 0h2m-271 1h2m34 0h1m12 0h2m13 0h1m24 0h2m8 0h2m3 0h1m8 0h1m3 0h1m1 0h1m1 0h1m1 0h1m2 0h1m2 0h2m4 0h2m6 0h1m3 0h1m1 0h1m2 0h1m1 0h1m2 0h3m10 0h2m3 0h2m5 0h2m22 0h2m13 0h2m8 0h2m12 0h1m21 0h2m1 0h1m-272 1h2m25 0h2m9 0h1m12 0h2m12 0h1m24 0h1m9 0h2m2 0h1m6 0h1m1 0h1m4 0h1m1 0h1m1 0h1m1 0h1m2 0h1m3 0h2m2 0h5m2 0h3m3 0h1m1 0h1m2 0h1m1 0h1m3 0h2m11 0h1m4 0h1m5 0h2m19 0h5m12 0h2m9 0h1m12 0h1m23 0h3m-272 1h1m26 0h1m10 0h2m13 0h1m10 0h7m18 0h1m11 0h1m2 0h1m6 0h3m3 0h1m1 0h1m2 0h1m1 0h1m1 0h2m4 0h4m3 0h3m1 0h1m4 0h1m1 0h1m2 0h1m1 0h1m3 0h2m11 0h1m4 0h1m6 0h1m17 0h3m1 0h5m9 0h2m9 0h2m12 0h1m24 0h3m-274 1h1m26 0h1m12 0h2m13 0h1m8 0h2m5 0h4m14 0h1m12 0h1m1 0h2m6 0h2m4 0h1m1 0h1m2 0h1m1 0h3m16 0h2m4 0h1m1 0h2m2 0h1m3 0h2m11 0h1m4 0h1m6 0h2m14 0h2m8 0h3m6 0h1m11 0h1m12 0h2m25 0h2m-274 1h1m26 0h1m13 0h1m13 0h2m5 0h2m10 0h2m12 0h2m12 0h1m1 0h1m7 0h2m4 0h2m1 0h1m1 0h4m18 0h1m4 0h1m4 0h2m3 0h2m11 0h1m4 0h1m7 0h1m14 0h1m11 0h2m4 0h1m11 0h2m11 0h2m26 0h2m-274 1h1m26 0h1m13 0h2m13 0h1m3 0h2m13 0h2m11 0h1m13 0h1m1 0h1m7 0h1m5 0h2m1 0h5m7 0h9m3 0h2m4 0h2m1 0h2m4 0h1m12 0h1m4 0h1m7 0h2m12 0h1m2 0h2m9 0h8m9 0h1m11 0h10m20 0h2m-275 1h1m26 0h2m13 0h2m12 0h1m1 0h3m15 0h2m9 0h1m14 0h2m8 0h1m6 0h1m2 0h3m2 0h2m2 0h2m8 0h2m2 0h4m3 0h3m4 0h2m12 0h1m4 0h1m8 0h2m10 0h2m1 0h2m17 0h3m6 0h2m9 0h3m9 0h2m18 0h2m-276 1h1m28 0h1m14 0h2m10 0h8m10 0h1m3 0h1m8 0h2m13 0h3m7 0h2m7 0h3m4 0h1m2 0h1m11 0h2m2 0h1m1 0h4m5 0h3m3 0h1m9 0h1m3 0h2m8 0h2m10 0h4m20 0h2m5 0h1m8 0h3m12 0h1m19 0h1m-276 1h1m27 0h3m14 0h2m7 0h3m6 0h4m8 0h1m2 0h2m7 0h1m14 0h2m8 0h2m6 0h3m4 0h1m2 0h1m5 0h10m1 0h2m3 0h6m6 0h1m9 0h2m2 0h1m10 0h2m8 0h2m1 0h1m7 0h1m14 0h2m3 0h2m23 0h2m3 0h2m13 0h1m-276 1h1m22 0h6m1 0h2m14 0h2m4 0h3m12 0h1m7 0h5m8 0h1m11 0h2m9 0h1m2 0h7m5 0h2m8 0h1m7 0h3m1 0h2m13 0h2m11 0h3m10 0h2m8 0h1m2 0h1m6 0h2m15 0h2m2 0h1m24 0h5m15 0h1m-276 1h1m16 0h1m3 0h2m8 0h3m13 0h1m3 0h2m23 0h1m1 0h3m7 0h1m10 0h2m10 0h1m3 0h3m7 0h2m19 0h2m1 0h2m12 0h1m13 0h2m11 0h1m7 0h1m2 0h2m6 0h1m7 0h6m4 0h1m1 0h2m22 0h4m18 0h1m-276 1h1m16 0h5m12 0h5m9 0h1m1 0h1m28 0h2m7 0h1m9 0h2m10 0h2m12 0h3m20 0h2m1 0h3m9 0h2m14 0h1m11 0h1m7 0h1m9 0h1m6 0h2m4 0h2m4 0h1m1 0h1m20 0h4m20 0h2m-275 1h1m18 0h2m26 0h2m7 0h2m21 0h2m7 0h1m7 0h1m12 0h2m10 0h2m2 0h1m21 0h2m2 0h5m2 0h3m17 0h2m9 0h1m7 0h1m8 0h2m5 0h2m4 0h2m5 0h3m18 0h3m23 0h1m-274 1h1m19 0h2m24 0h3m4 0h8m19 0h1m8 0h1m5 0h1m14 0h1m8 0h2m3 0h1m23 0h2m2 0h2m1 0h3m21 0h1m9 0h1m8 0h1m7 0h1m5 0h2m4 0h2m6 0h1m1 0h2m14 0h3m26 0h1m-274 1h1m21 0h2m22 0h2m12 0h3m16 0h2m8 0h1m4 0h1m16 0h8m4 0h1m25 0h2m2 0h1m26 0h1m7 0h2m8 0h2m6 0h1m4 0h2m4 0h2m7 0h1m2 0h2m9 0h4m28 0h2m-274 1h1m23 0h5m16 0h3m4 0h2m8 0h2m14 0h2m10 0h1m2 0h1m20 0h1m6 0h2m27 0h1m3 0h1m25 0h2m6 0h1m11 0h2m3 0h1m5 0h1m4 0h2m8 0h1m3 0h11m31 0h1m-272 1h1m27 0h3m11 0h2m2 0h1m6 0h1m8 0h2m13 0h1m11 0h1m1 0h2m26 0h2m5 0h2m22 0h1m3 0h2m24 0h2m4 0h1m13 0h3m1 0h1m4 0h1m5 0h1m8 0h2m7 0h4m33 0h2m-272 1h1m30 0h4m5 0h3m3 0h1m7 0h2m7 0h2m10 0h2m12 0h3m26 0h2m6 0h2m16 0h1m5 0h2m3 0h2m24 0h1m2 0h2m16 0h3m4 0h1m5 0h1m8 0h1m7 0h2m36 0h2m-271 1h1m33 0h6m5 0h1m8 0h2m7 0h2m8 0h1m13 0h3m25 0h4m6 0h2m16 0h2m5 0h1m5 0h2m22 0h2m1 0h1m18 0h2m4 0h1m4 0h1m9 0h1m5 0h2m38 0h1m-270 1h1m35 0h3m7 0h1m8 0h2m7 0h1m6 0h2m13 0h2m1 0h1m23 0h2m3 0h1m5 0h3m15 0h1m2 0h1m4 0h1m7 0h2m21 0h1m1 0h1m19 0h1m4 0h1m4 0h1m9 0h1m2 0h3m40 0h1m-269 1h1m37 0h2m5 0h2m8 0h1m7 0h1m6 0h1m13 0h1m2 0h2m20 0h4m4 0h1m4 0h2m1 0h1m15 0h1m3 0h1m3 0h1m31 0h1m1 0h9m10 0h1m4 0h2m3 0h1m8 0h2m1 0h2m41 0h2m-269 1h1m38 0h2m5 0h1m8 0h2m6 0h1m5 0h1m13 0h1m3 0h1m21 0h1m7 0h6m3 0h1m13 0h2m4 0h1m2 0h1m31 0h1m2 0h1m6 0h5m6 0h2m4 0h2m2 0h2m7 0h3m43 0h1m-267 1h1m39 0h2m4 0h1m8 0h2m5 0h1m5 0h1m12 0h1m4 0h1m30 0h4m4 0h3m10 0h3m4 0h4m31 0h2m1 0h1m11 0h3m4 0h2m4 0h2m10 0h2m44 0h1m-267 1h1m40 0h2m4 0h1m8 0h1m4 0h2m4 0h1m13 0h1m4 0h1m31 0h1m6 0h5m6 0h2m2 0h1m5 0h2m33 0h1m1 0h2m13 0h3m1 0h2m5 0h3m7 0h2m45 0h1m-266 1h1m40 0h2m4 0h1m7 0h1m2 0h3m5 0h1m11 0h3m4 0h1m30 0h2m6 0h1m3 0h7m4 0h1m6 0h1m33 0h1m1 0h2m15 0h3m1 0h1m14 0h1m46 0h1m-266 1h1m41 0h1m5 0h2m5 0h3m7 0h1m8 0h4m3 0h2m1 0h2m21 0h1m8 0h1m7 0h1m14 0h1m6 0h2m32 0h3m16 0h2m3 0h1m12 0h2m45 0h2m-265 1h1m40 0h2m5 0h2m13 0h1m6 0h3m7 0h5m21 0h1m7 0h2m6 0h1m15 0h1m7 0h1m32 0h4m14 0h2m5 0h2m9 0h2m46 0h1m-264 1h1m41 0h1m7 0h3m8 0h2m4 0h3m10 0h1m3 0h1m21 0h1m7 0h1m7 0h1m15 0h2m6 0h2m7 0h1m24 0h1m1 0h1m14 0h1m7 0h3m6 0h3m45 0h2m-263 1h1m40 0h1m9 0h11m2 0h2m13 0h1m3 0h1m21 0h1m6 0h1m8 0h1m16 0h1m7 0h1m7 0h1m24 0h1m1 0h1m13 0h1m10 0h7m1 0h2m45 0h1m-262 1h1m40 0h2m11 0h3m5 0h2m14 0h2m3 0h1m21 0h1m6 0h1m8 0h1m16 0h1m7 0h2m6 0h1m24 0h1m1 0h2m12 0h1m18 0h1m45 0h2m-261 1h1m39 0h2m19 0h1m15 0h1m4 0h1m21 0h1m5 0h2m8 0h1m16 0h1m8 0h1m6 0h1m23 0h2m2 0h1m11 0h2m18 0h1m45 0h1m-260 1h2m39 0h1m19 0h1m15 0h1m4 0h1m21 0h1m5 0h1m8 0h1m17 0h1m8 0h1m6 0h1m23 0h2m2 0h1m11 0h2m18 0h1m44 0h2m-259 1h1m39 0h1m19 0h1m15 0h1m4 0h1m21 0h1m5 0h1m8 0h1m17 0h1m8 0h2m5 0h1m23 0h1m3 0h2m10 0h2m18 0h2m43 0h1m-257 1h1m38 0h1m19 0h1m15 0h1m4 0h1m21 0h1m4 0h1m9 0h1m17 0h1m9 0h1m5 0h2m22 0h1m3 0h3m9 0h2m19 0h1m42 0h1m-256 1h2m57 0h1m15 0h2m3 0h1m20 0h2m4 0h1m9 0h1m17 0h1m9 0h1m6 0h1m22 0h1m3 0h3m10 0h1m19 0h2m40 0h1m-254 1h1m57 0h1m15 0h2m3 0h1m20 0h1m5 0h1m9 0h1m17 0h1m9 0h1m6 0h1m22 0h1m3 0h1m1 0h2m9 0h1m20 0h2m38 0h4m-255 1h1m56 0h1m16 0h1m3 0h1m20 0h1m4 0h1m10 0h1m17 0h1m9 0h2m5 0h2m21 0h1m3 0h1m2 0h1m9 0h2m58 0h2m2 0h4m-259 1h3m55 0h1m16 0h1m3 0h2m18 0h1m5 0h1m9 0h1m18 0h1m10 0h1m6 0h1m21 0h1m3 0h1m2 0h1m10 0h2m56 0h2m6 0h2m-263 1h3m3 0h1m54 0h1m16 0h1m4 0h1m18 0h1m5 0h1m9 0h1m7 0h4m7 0h1m10 0h1m7 0h1m10 0h1m9 0h1m3 0h1m2 0h2m10 0h2m54 0h2m8 0h2m-265 1h2m5 0h3m51 0h1m17 0h1m4 0h1m17 0h1m5 0h2m9 0h1m6 0h2m2 0h3m5 0h1m10 0h1m7 0h2m9 0h1m8 0h2m3 0h1m3 0h1m11 0h2m14 0h1m36 0h2m11 0h1m-266 1h2m7 0h3m50 0h1m17 0h1m4 0h1m16 0h2m5 0h1m10 0h1m18 0h1m10 0h2m7 0h2m7 0h2m8 0h1m4 0h1m3 0h1m13 0h2m12 0h2m32 0h3m13 0h2m-267 1h1m9 0h4m47 0h1m18 0h1m4 0h1m15 0h2m6 0h1m8 0h4m17 0h1m3 0h3m1 0h5m8 0h2m6 0h1m9 0h1m4 0h1m4 0h1m13 0h4m10 0h3m27 0h4m15 0h2m-267 1h1m11 0h4m44 0h1m19 0h1m4 0h1m13 0h3m7 0h1m4 0h4m20 0h13m10 0h2m5 0h1m9 0h1m4 0h1m4 0h1m16 0h16m20 0h5m19 0h2m-267 1h1m12 0h3m43 0h1m20 0h2m3 0h1m12 0h2m9 0h5m48 0h3m2 0h2m8 0h2m4 0h1m4 0h1m16 0h1m14 0h10m2 0h9m23 0h2m-266 1h1m14 0h3m29 0h2m8 0h2m22 0h1m4 0h1m23 0h1m53 0h4m9 0h1m5 0h1m5 0h1m14 0h1m24 0h4m30 0h2m-265 1h1m16 0h3m25 0h3m6 0h3m1 0h2m21 0h1m4 0h1m40 0h6m34 0h1m9 0h1m5 0h1m5 0h1m13 0h1m58 0h2m-264 1h1m18 0h4m20 0h3m3 0h5m5 0h2m20 0h1m4 0h1m39 0h2m4 0h2m33 0h1m9 0h1m5 0h1m5 0h1m12 0h1m57 0h2m-261 1h1m20 0h4m14 0h9m11 0h1m19 0h2m4 0h1m37 0h2m8 0h1m31 0h1m10 0h1m5 0h1m6 0h1m11 0h1m53 0h5m-260 1h2m23 0h15m19 0h1m18 0h3m5 0h1m36 0h1m10 0h1m30 0h1m10 0h1m5 0h1m6 0h1m11 0h1m51 0h3m2 0h2m-259 1h2m56 0h1m18 0h1m2 0h1m4 0h1m35 0h2m10 0h2m29 0h1m9 0h1m6 0h1m7 0h1m10 0h2m55 0h2m-258 1h2m55 0h1m17 0h1m3 0h1m4 0h1m35 0h1m12 0h1m29 0h1m9 0h1m5 0h2m7 0h1m11 0h2m54 0h2m-258 1h4m53 0h1m16 0h2m3 0h1m4 0h2m34 0h1m12 0h1m28 0h1m10 0h1m5 0h2m7 0h1m12 0h2m53 0h2m-259 1h1m4 0h3m49 0h1m17 0h1m4 0h1m5 0h1m34 0h1m12 0h1m28 0h1m10 0h1m5 0h1m9 0h1m12 0h3m51 0h2m-259 1h1m6 0h6m43 0h2m16 0h2m4 0h2m4 0h1m34 0h1m12 0h1m28 0h1m10 0h1m5 0h1m9 0h1m14 0h4m48 0h2m-260 1h1m55 0h2m17 0h1m6 0h1m4 0h2m33 0h1m12 0h1m38 0h2m5 0h1m9 0h2m12 0h1m3 0h5m45 0h1m-260 1h1m53 0h2m18 0h1m7 0h1m5 0h1m33 0h1m12 0h1m27 0h1m10 0h1m6 0h1m10 0h1m12 0h1m7 0h8m38 0h1m-260 1h1m51 0h2m20 0h1m7 0h1m5 0h1m33 0h1m12 0h1m27 0h1m10 0h1m6 0h1m10 0h1m11 0h2m53 0h1m-261 1h1m48 0h5m20 0h1m8 0h1m5 0h2m32 0h1m12 0h1m26 0h1m11 0h1m5 0h2m10 0h2m10 0h1m54 0h2m-262 1h1m41 0h7m4 0h1m19 0h2m8 0h2m5 0h1m31 0h2m12 0h1m26 0h1m11 0h1m5 0h1m12 0h1m9 0h2m55 0h1m-263 1h1m53 0h1m19 0h1m10 0h1m5 0h1m31 0h2m12 0h1m26 0h1m10 0h2m5 0h1m12 0h1m9 0h1m56 0h1m-263 1h1m53 0h2m17 0h1m11 0h1m6 0h1m30 0h1m13 0h1m26 0h1m10 0h1m6 0h1m13 0h1m8 0h1m56 0h1m-264 1h1m55 0h1m17 0h1m11 0h2m5 0h1m30 0h1m13 0h1m6 0h1m18 0h1m11 0h1m5 0h1m14 0h1m7 0h1m57 0h2m-265 1h1m55 0h1m16 0h1m13 0h1m5 0h1m23 0h1m6 0h1m13 0h1m6 0h1m18 0h1m11 0h1m5 0h1m14 0h2m6 0h1m58 0h1m-266 1h1m56 0h1m15 0h2m13 0h1m5 0h2m22 0h1m6 0h1m13 0h1m7 0h1m17 0h1m11 0h1m5 0h2m14 0h1m6 0h1m58 0h2m-267 1h1m56 0h2m14 0h1m14 0h2m5 0h1m21 0h1m7 0h2m11 0h1m8 0h1m16 0h1m11 0h2m4 0h3m14 0h1m5 0h1m60 0h1m-267 1h1m57 0h1m13 0h2m15 0h1m5 0h1m21 0h1m8 0h1m11 0h1m8 0h1m16 0h1m11 0h1m5 0h1m1 0h2m13 0h1m5 0h1m60 0h1m-268 1h1m58 0h1m13 0h1m16 0h1m5 0h2m20 0h1m9 0h2m7 0h2m9 0h1m15 0h1m18 0h1m2 0h1m13 0h1m5 0h1m60 0h1m-268 1h1m58 0h1m12 0h2m16 0h1m6 0h2m19 0h1m10 0h9m10 0h1m15 0h1m17 0h2m2 0h1m14 0h1m4 0h1m61 0h1m-270 1h1m59 0h1m12 0h1m17 0h2m6 0h1m19 0h1m29 0h1m33 0h1m3 0h2m13 0h1m4 0h1m61 0h1m-270 1h1m59 0h1m11 0h1m18 0h2m26 0h1m28 0h1m33 0h2m3 0h2m13 0h1m4 0h1m61 0h1m-270 1h1m59 0h2m10 0h1m17 0h1m2 0h1m18 0h1m7 0h1m27 0h1m33 0h1m5 0h1m13 0h2m2 0h2m61 0h2m-271 1h1m59 0h2m9 0h1m17 0h1m3 0h1m18 0h1m7 0h1m26 0h1m33 0h2m5 0h1m14 0h1m3 0h1m62 0h1m-271 1h1m60 0h1m9 0h1m16 0h2m3 0h2m17 0h1m8 0h1m25 0h1m33 0h1m7 0h1m13 0h1m3 0h1m62 0h1m-272 1h1m61 0h1m8 0h1m17 0h1m5 0h1m17 0h1m8 0h2m23 0h1m33 0h2m7 0h1m13 0h1m3 0h1m62 0h1m-272 1h1m61 0h1m8 0h1m16 0h1m7 0h1m16 0h1m9 0h2m21 0h1m34 0h1m8 0h1m14 0h1m2 0h1m62 0h2m-273 1h1m61 0h1m7 0h1m17 0h1m7 0h1m16 0h1m10 0h1m19 0h2m34 0h2m8 0h2m13 0h1m2 0h1m62 0h2m-273 1h1m61 0h1m7 0h1m16 0h1m9 0h1m15 0h1m66 0h1m10 0h1m13 0h1m2 0h1m63 0h1m-273 1h1m61 0h1m6 0h2m15 0h2m9 0h2m14 0h2m64 0h1m11 0h1m13 0h1m2 0h1m63 0h1m-273 1h1m61 0h1m6 0h1m16 0h1m11 0h1m15 0h1m41 0h1m22 0h1m11 0h1m13 0h1m2 0h1m63 0h1m-274 1h1m62 0h1m5 0h1m17 0h1m11 0h2m14 0h1m41 0h1m21 0h1m12 0h2m12 0h1m2 0h1m63 0h1m-274 1h1m62 0h1m5 0h1m16 0h1m13 0h1m14 0h1m41 0h1m20 0h1m13 0h2m12 0h1m2 0h1m63 0h1m-274 1h1m62 0h1m4 0h2m16 0h1m13 0h2m13 0h2m40 0h1m20 0h1m14 0h1m13 0h1m1 0h1m63 0h1m-274 1h1m62 0h1m4 0h1m16 0h1m15 0h1m14 0h1m39 0h1m20 0h1m15 0h1m13 0h1m1 0h1m63 0h1m-274 1h1m62 0h1m4 0h1m16 0h1m15 0h2m13 0h1m39 0h1m19 0h1m16 0h1m13 0h1m1 0h2m63 0h1m-275 1h1m62 0h1m3 0h1m16 0h1m17 0h1m13 0h1m38 0h2m18 0h2m16 0h1m13 0h1m1 0h2m63 0h1m-275 1h1m62 0h1m3 0h1m16 0h1m17 0h2m12 0h2m37 0h1m19 0h1m17 0h1m13 0h1m1 0h2m63 0h1m-275 1h1m62 0h1m2 0h1m16 0h1m19 0h2m12 0h1m37 0h1m18 0h1m19 0h1m12 0h1m2 0h1m63 0h1m-275 1h1m62 0h1m2 0h1m16 0h1m20 0h1m12 0h2m35 0h1m18 0h1m20 0h1m12 0h2m1 0h1m63 0h1m-275 1h1m62 0h1m1 0h1m16 0h2m21 0h1m12 0h1m34 0h1m18 0h1m21 0h1m13 0h1m1 0h1m63 0h1m-275 1h1m62 0h1m1 0h1m16 0h1m22 0h2m12 0h1m32 0h2m17 0h1m22 0h1m13 0h1m1 0h1m63 0h1m-275 1h1m62 0h3m16 0h1m23 0h1m12 0h2m30 0h2m17 0h1m23 0h1m13 0h1m1 0h1m63 0h1m-275 1h2m60 0h3m17 0h1m24 0h1m12 0h2m12 0h3m13 0h2m17 0h2m23 0h1m13 0h1m1 0h1m63 0h1m-274 1h1m60 0h3m16 0h1m26 0h1m12 0h2m10 0h4m12 0h2m17 0h1m25 0h1m14 0h3m62 0h1m-274 1h1m60 0h2m17 0h1m26 0h2m13 0h2m6 0h2m4 0h2m8 0h2m18 0h2m25 0h2m13 0h3m62 0h1m-274 1h1m60 0h2m16 0h2m27 0h2m14 0h6m8 0h9m18 0h2m27 0h1m13 0h3m62 0h1m-274 1h1m60 0h2m16 0h1m29 0h2m53 0h1m29 0h1m13 0h3m62 0h1m-274 1h1m59 0h2m17 0h1m30 0h1m52 0h1m30 0h1m13 0h3m62 0h1m-274 1h1m59 0h2m17 0h1m31 0h1m50 0h1m31 0h1m14 0h3m61 0h1m-274 1h1m59 0h2m17 0h1m31 0h2m47 0h2m32 0h1m14 0h3m61 0h1m-274 1h2m57 0h2m17 0h2m32 0h2m45 0h2m33 0h1m14 0h1m1 0h1m61 0h1m-273 1h1m57 0h2m17 0h1m34 0h2m43 0h2m34 0h1m14 0h1m1 0h2m59 0h2m-273 1h1m57 0h2m17 0h1m35 0h2m41 0h1m36 0h1m14 0h2m1 0h1m59 0h2m-273 1h1m56 0h3m17 0h1m36 0h2m38 0h2m37 0h1m15 0h1m1 0h1m59 0h1m-271 1h1m55 0h2m18 0h1m38 0h2m35 0h2m38 0h1m15 0h1m1 0h2m58 0h1m-271 1h1m54 0h3m17 0h1m40 0h3m31 0h2m40 0h1m15 0h1m2 0h1m58 0h1m-270 1h1m53 0h1m1 0h1m17 0h1m42 0h2m28 0h2m42 0h1m15 0h1m2 0h2m57 0h1m-270 1h2m52 0h1m1 0h1m17 0h1m43 0h3m24 0h2m44 0h1m15 0h2m2 0h1m56 0h2m-269 1h1m51 0h1m1 0h2m17 0h1m45 0h4m18 0h3m46 0h1m15 0h2m2 0h2m55 0h1m-268 1h2m49 0h2m1 0h2m17 0h1m48 0h4m12 0h3m49 0h1m16 0h1m3 0h1m55 0h1m-267 1h2m48 0h1m2 0h1m17 0h1m52 0h13m52 0h1m16 0h1m3 0h2m53 0h2m-266 1h1m47 0h1m3 0h1m17 0h1m117 0h2m15 0h1m4 0h2m52 0h1m-264 1h1m45 0h1m4 0h1m17 0h1m117 0h1m16 0h1m5 0h1m51 0h2m-264 1h2m43 0h2m4 0h1m17 0h1m117 0h1m16 0h2m4 0h2m50 0h1m-262 1h2m42 0h1m5 0h1m17 0h1m117 0h1m17 0h1m5 0h1m49 0h2m-261 1h1m41 0h1m5 0h2m17 0h1m117 0h1m17 0h1m6 0h1m48 0h1m-260 1h2m39 0h1m6 0h1m18 0h1m117 0h1m17 0h1m6 0h2m46 0h2m-259 1h2m37 0h1m7 0h1m17 0h1m118 0h1m17 0h1m7 0h2m44 0h2m-257 1h2m25 0h1m9 0h2m7 0h1m17 0h2m117 0h1m17 0h1m8 0h1m43 0h2m-255 1h2m22 0h2m9 0h2m8 0h1m17 0h2m117 0h1m17 0h1m9 0h1m42 0h1m-253 1h2m9 0h1m10 0h2m9 0h2m9 0h1m17 0h1m118 0h2m17 0h1m9 0h1m40 0h1m-251 1h3m8 0h2m6 0h3m9 0h2m10 0h1m17 0h1m118 0h2m17 0h1m10 0h1m38 0h2m-249 1h2m8 0h8m10 0h2m11 0h1m17 0h1m118 0h2m17 0h1m11 0h2m35 0h2m-247 1h3m22 0h2m13 0h1m17 0h1m118 0h2m17 0h1m12 0h2m33 0h2m-244 1h2m19 0h3m14 0h1m17 0h1m118 0h2m17 0h1m13 0h2m9 0h1m10 0h2m9 0h2m-241 1h2m15 0h3m16 0h1m17 0h1m118 0h2m17 0h2m13 0h3m7 0h11m10 0h2m-239 1h2m12 0h3m18 0h1m17 0h1m118 0h2m18 0h1m15 0h2m11 0h2m13 0h2m-237 1h4m7 0h3m20 0h1m17 0h1m119 0h1m18 0h1m16 0h3m22 0h2m-233 1h10m22 0h1m17 0h1m119 0h1m18 0h1m18 0h4m18 0h2m-230 1h4m26 0h1m17 0h1m119 0h1m18 0h1m21 0h4m13 0h3m-231 1h2m2 0h2m26 0h1m17 0h1m119 0h1m18 0h2m23 0h5m5 0h6m-231 1h2m3 0h2m26 0h1m17 0h1m119 0h1m18 0h2m27 0h8m3 0h2m-233 1h2m4 0h2m26 0h1m17 0h1m119 0h1m18 0h2m32 0h2m5 0h2m-234 1h1m6 0h1m26 0h1m17 0h1m119 0h2m17 0h2m31 0h2m6 0h2m-235 1h2m6 0h1m26 0h1m17 0h1m119 0h2m18 0h1m31 0h1m8 0h1m-235 1h1m7 0h1m26 0h1m17 0h1m119 0h2m18 0h1m30 0h2m8 0h2m-237 1h2m7 0h1m26 0h1m17 0h2m118 0h2m18 0h1m30 0h1m10 0h1m-237 1h1m8 0h1m26 0h1m17 0h2m119 0h1m18 0h1m29 0h1m11 0h1m-237 1h1m8 0h1m26 0h2m16 0h2m119 0h1m18 0h1m28 0h2m11 0h1m-238 1h2m8 0h2m25 0h2m16 0h2m119 0h1m18 0h2m27 0h1m12 0h1m-238 1h1m9 0h2m25 0h2m16 0h2m119 0h1m18 0h2m26 0h1m13 0h1m-238 1h1m10 0h1m25 0h2m16 0h2m119 0h1m19 0h1m25 0h2m13 0h1m-238 1h1m10 0h1m25 0h2m17 0h1m119 0h1m19 0h1m25 0h1m14 0h1m-238 1h1m10 0h1m25 0h2m17 0h1m119 0h1m19 0h1m24 0h1m14 0h2m-238 1h1m10 0h2m24 0h2m17 0h1m119 0h1m19 0h1m23 0h2m14 0h1m-237 1h1m11 0h1m25 0h1m17 0h1m119 0h1m19 0h1m23 0h1m15 0h1m-237 1h1m11 0h1m25 0h1m17 0h1m119 0h1m19 0h1m22 0h1m15 0h2m-237 1h1m11 0h1m25 0h1m17 0h1m119 0h1m19 0h1m21 0h2m15 0h1m-236 1h1m11 0h2m24 0h1m17 0h1m119 0h1m19 0h1m20 0h2m15 0h2m-236 1h1m12 0h1m24 0h1m17 0h1m119 0h1m19 0h2m19 0h1m16 0h2m-236 1h1m12 0h1m24 0h1m17 0h1m119 0h1m19 0h2m18 0h1m17 0h1m-235 1h2m11 0h2m23 0h1m17 0h2m118 0h1m19 0h2m17 0h2m16 0h2m-234 1h1m12 0h1m23 0h1m18 0h1m118 0h1m20 0h1m16 0h2m17 0h1m-233 1h1m12 0h1m23 0h2m17 0h1m118 0h1m20 0h1m16 0h1m17 0h2m-233 1h1m12 0h2m22 0h2m17 0h1m118 0h1m20 0h1m14 0h2m18 0h1m-232 1h2m12 0h1m22 0h2m17 0h2m117 0h1m20 0h2m12 0h2m18 0h2m-232 1h2m12 0h2m21 0h2m18 0h1m116 0h2m20 0h2m11 0h2m18 0h2m-230 1h1m13 0h1m21 0h2m18 0h1m116 0h2m21 0h1m10 0h2m19 0h1m-229 1h2m12 0h2m20 0h2m18 0h1m117 0h1m21 0h2m8 0h2m19 0h2m-229 1h2m13 0h1m21 0h1m18 0h1m116 0h2m22 0h1m7 0h2m20 0h1m-227 1h1m13 0h2m20 0h1m18 0h2m115 0h2m22 0h9m20 0h2m-227 1h2m13 0h2m19 0h1m19 0h1m115 0h2m24 0h4m23 0h1m-225 1h1m14 0h2m18 0h1m19 0h1m115 0h2m50 0h2m-225 1h2m13 0h2m18 0h1m19 0h1m115 0h2m49 0h3m-225 1h2m14 0h2m17 0h2m18 0h1m115 0h1m49 0h2m1 0h1m-224 1h2m14 0h2m16 0h1m19 0h2m114 0h1m49 0h1m2 0h2m-225 1h2m15 0h2m15 0h2m18 0h2m114 0h1m48 0h2m2 0h2m-224 1h1m16 0h2m14 0h2m19 0h1m114 0h1m48 0h1m3 0h2m-224 1h2m16 0h2m13 0h1m20 0h1m114 0h1m47 0h2m3 0h2m-223 1h1m17 0h2m11 0h2m20 0h1m114 0h1m46 0h2m5 0h1m-223 1h2m17 0h3m9 0h2m20 0h1m114 0h1m45 0h2m6 0h1m-222 1h1m19 0h3m6 0h2m21 0h2m112 0h2m45 0h1m7 0h1m-222 1h2m20 0h8m22 0h2m112 0h2m44 0h2m7 0h1m-221 1h2m50 0h1m112 0h2m43 0h2m8 0h1m-221 1h2m50 0h1m112 0h2m42 0h2m9 0h1m-220 1h2m49 0h1m112 0h1m43 0h1m10 0h1m-219 1h2m48 0h1m112 0h1m42 0h2m10 0h1m-219 1h2m48 0h2m111 0h1m42 0h1m11 0h1m-218 1h2m47 0h2m111 0h1m41 0h2m11 0h1m-218 1h2m47 0h2m111 0h1m40 0h2m12 0h2m-218 1h2m47 0h1m110 0h2m40 0h2m12 0h2m-217 1h1m47 0h1m110 0h2m39 0h2m14 0h1m-217 1h2m46 0h2m109 0h2m38 0h2m15 0h1" stroke="#080808"/><path d="m157 2h1m-2 1h2m-3 1h3m-3 1h2m-3 1h3m-5 1h5m-5 1h5m-5 1h5m-5 1h4m-5 1h5m-5 1h5m-5 1h5m-6 1h5m-5 1h5m-5 1h5m-6 1h5" stroke="#a85ed9"/><path d="m139 9h2m-3 1h4m-5 1h5m-5 1h6m-14 1h3m5 0h6m-14 1h4m3 0h8m-15 1h5m1 0h9m-15 1h4m2 0h10m-16 1h16m-16 1h13m-13 1h8m-8 1h4" stroke="#007f25"/><path d="m143 19h31m-35 1h39m-44 1h45m-49 1h50m-54 1h53m-55 1h54m-57 1h51m-54 1h48m-50 1h29m8 0h9m-48 1h19m3 0h6m14 0h3m-46 1h14m-16 1h14m-15 1h13m-14 1h3" stroke="#06410e"/><path d="m173 26h3m-10 1h11m-15 1h15m-17 1h17m-19 1h20m-22 1h22m-24 1h12m-53 1h9m30 0h8m-51 1h14m29 0h5m-50 1h17m27 0h2m-49 1h14m32 0h1m-48 1h12m-12 1h9m-9 1h7m3 0h1m-11 1h5m4 0h1m-9 1h2m5 0h2m-2 1h1m-2 1h1m-1 1h1m-2 1h1m62 0h1m-65 1h2m62 0h1m-66 1h2m64 0h1m-67 1h2m64 0h2m-69 1h2m65 0h3m-71 1h3m66 0h2m-72 1h4m66 0h3m-73 1h3m67 0h3m-73 1h3m67 0h4m-74 1h3m68 0h3m-74 1h2m69 0h4m-75 1h2m69 0h4m-75 1h1m70 0h4m-75 1h1m70 0h4m-75 1h1m70 0h4m-4 1h4m-4 1h3m-2 1h2m-32 11h2m-20 1h1m17 0h3m-22 1h3m16 0h4m-24 1h4m16 0h4m-26 1h6m16 0h5m-27 1h6m16 0h6m-29 1h7m16 0h6m-29 1h6m17 0h7m-31 1h7m18 0h6m-32 1h8m18 0h7m-33 1h8m18 0h7m-33 1h8m18 0h8m-35 1h8m19 0h8m-35 1h8m19 0h8m-36 1h9m19 0h9m-37 1h9m19 0h9m-37 1h9m19 0h9m-38 1h10m19 0h9m-38 1h9m20 0h10m-39 1h9m20 0h10m-39 1h9m20 0h10m-40 1h10m20 0h10m-40 1h8m22 0h3m3 0h1m-37 1h4" stroke="#5f2f0b"/><path d="m145 28h7m-19 1h2m7 0h13m-27 1h10m2 0h15m-30 1h12m1 0h15m-29 1h28m-28 1h27m-26 1h25m11 0h2m74 0h2m-113 1h23m8 0h8m70 0h7m-206 1h7m84 0h21m6 0h11m68 0h10m-209 1h11m73 0h8m2 0h20m3 0h15m66 0h12m-211 1h13m70 0h11m1 0h19m2 0h18m63 0h7m5 0h3m-208 1h11m67 0h12m1 0h19m1 0h20m61 0h5m4 0h3m-208 1h4m2 0h10m65 0h14m1 0h39m59 0h6m2 0h10m-214 1h8m2 0h9m47 0h1m16 0h14m2 0h39m57 0h6m2 0h14m-219 1h11m2 0h10m45 0h2m14 0h16m1 0h26m2 0h11m14 0h2m39 0h7m2 0h17m-223 1h14m2 0h10m43 0h4m13 0h16m1 0h25m2 0h13m12 0h3m38 0h8m1 0h21m-228 1h17m2 0h10m42 0h4m12 0h12m3 0h2m1 0h8m1 0h15m5 0h11m11 0h4m36 0h9m1 0h24m-231 1h19m2 0h11m40 0h5m11 0h9m3 0h2m2 0h1m2 0h7m1 0h14m1 0h4m2 0h11m10 0h4m34 0h10m2 0h11m1 0h15m-236 1h22m2 0h11m39 0h5m10 0h8m2 0h6m4 0h7m1 0h13m1 0h6m2 0h10m10 0h4m32 0h12m1 0h10m11 0h11m-242 1h9m4 0h12m2 0h12m37 0h5m10 0h7m1 0h9m3 0h7m1 0h12m5 0h4m2 0h9m9 0h5m31 0h12m2 0h9m2 0h9m5 0h10m-248 1h9m3 0h4m3 0h10m2 0h13m35 0h6m8 0h7m1 0h11m2 0h6m1 0h12m8 0h3m1 0h10m8 0h5m29 0h14m1 0h9m1 0h15m5 0h8m-253 1h9m2 0h10m2 0h10m2 0h13m33 0h7m8 0h6m1 0h12m3 0h5m1 0h12m9 0h2m1 0h10m8 0h5m28 0h14m1 0h9m2 0h19m4 0h6m-256 1h7m3 0h14m2 0h10m2 0h14m31 0h7m7 0h6m2 0h4m11 0h5m1 0h11m11 0h1m2 0h9m8 0h5m27 0h15m1 0h9m1 0h23m4 0h4m-258 1h4m4 0h18m1 0h11m2 0h14m30 0h7m7 0h6m1 0h3m14 0h4m1 0h10m13 0h1m1 0h10m7 0h5m26 0h15m2 0h8m1 0h11m1 0h15m4 0h2m-255 1h23m1 0h11m2 0h14m29 0h7m7 0h5m1 0h3m12 0h2m1 0h4m2 0h8m14 0h1m1 0h10m7 0h5m25 0h16m1 0h9m1 0h11m1 0h18m2 0h2m-263 1h30m2 0h11m2 0h13m28 0h8m6 0h6m1 0h2m13 0h2m2 0h4m1 0h8m14 0h1m1 0h10m7 0h5m25 0h15m1 0h9m1 0h12m1 0h20m2 0h1m-267 1h34m1 0h12m2 0h13m27 0h8m6 0h8m14 0h2m2 0h4m2 0h6m17 0h10m7 0h5m26 0h13m2 0h8m2 0h12m1 0h21m2 0h1m-269 1h25m2 0h9m1 0h12m2 0h12m26 0h9m5 0h6m1 0h1m15 0h3m2 0h2m5 0h2m19 0h11m6 0h5m26 0h12m2 0h9m1 0h12m1 0h23m-268 1h26m1 0h10m2 0h13m1 0h10m26 0h11m4 0h6m17 0h4m4 0h3m3 0h1m18 0h11m6 0h6m21 0h1m5 0h9m2 0h9m2 0h12m1 0h24m-270 1h26m1 0h12m2 0h13m1 0h8m2 0h5m19 0h12m4 0h6m16 0h16m18 0h11m6 0h6m18 0h8m3 0h6m1 0h11m1 0h12m2 0h25m-271 1h26m1 0h13m1 0h13m2 0h5m2 0h10m16 0h12m3 0h7m15 0h18m17 0h11m6 0h7m16 0h11m2 0h4m1 0h11m2 0h11m2 0h26m-271 1h26m1 0h13m2 0h13m1 0h3m2 0h13m14 0h13m3 0h7m14 0h7m9 0h3m16 0h12m6 0h7m15 0h2m2 0h9m8 0h9m1 0h11m10 0h20m-272 1h26m2 0h13m2 0h12m1 0h1m3 0h15m12 0h14m2 0h8m13 0h2m2 0h2m2 0h8m2 0h2m16 0h12m6 0h8m14 0h1m2 0h17m3 0h6m2 0h9m3 0h9m2 0h18m-273 1h28m1 0h14m2 0h10m8 0h10m1 0h3m11 0h13m3 0h7m12 0h4m1 0h2m1 0h11m2 0h2m1 0h1m12 0h3m1 0h9m6 0h8m16 0h20m2 0h5m1 0h8m3 0h12m1 0h19m-274 1h27m3 0h14m2 0h7m3 0h6m4 0h8m1 0h2m10 0h14m2 0h8m11 0h4m1 0h2m1 0h5m10 0h1m2 0h3m6 0h6m1 0h9m5 0h10m12 0h1m1 0h7m1 0h14m2 0h3m2 0h23m2 0h3m2 0h13m-274 1h22m6 0h1m2 0h14m2 0h4m3 0h12m1 0h7m14 0h11m2 0h9m1 0h2m7 0h5m2 0h8m1 0h7m3 0h1m2 0h13m2 0h11m3 0h10m11 0h2m1 0h6m2 0h15m2 0h2m1 0h24m5 0h15m-274 1h16m1 0h3m2 0h8m3 0h13m1 0h3m2 0h23m1 0h1m11 0h10m2 0h10m1 0h3m3 0h7m2 0h19m2 0h1m2 0h12m1 0h13m2 0h11m9 0h2m2 0h6m1 0h7m6 0h4m1 0h1m2 0h22m4 0h18m-274 1h16m5 0h12m5 0h9m1 0h1m1 0h28m10 0h9m2 0h10m2 0h12m3 0h20m2 0h1m3 0h9m2 0h14m1 0h11m9 0h9m1 0h6m2 0h4m2 0h4m1 0h1m1 0h20m4 0h20m-272 1h18m2 0h26m2 0h7m2 0h21m10 0h7m1 0h12m2 0h10m2 0h2m1 0h21m2 0h2m5 0h2m3 0h17m2 0h9m9 0h8m2 0h5m2 0h4m2 0h5m3 0h18m3 0h23m-272 1h19m2 0h24m3 0h4m8 0h19m10 0h5m1 0h14m1 0h8m2 0h3m1 0h23m2 0h2m2 0h1m3 0h21m1 0h9m10 0h7m1 0h5m2 0h4m2 0h6m1 0h1m2 0h14m3 0h26m-272 1h21m2 0h22m2 0h12m3 0h16m11 0h4m1 0h16m8 0h4m1 0h25m2 0h2m1 0h26m1 0h7m12 0h6m1 0h4m2 0h4m2 0h7m1 0h2m2 0h9m4 0h28m-271 1h23m5 0h16m3 0h4m2 0h8m2 0h14m13 0h2m1 0h20m1 0h6m2 0h27m1 0h3m1 0h25m2 0h6m14 0h3m1 0h5m1 0h4m2 0h8m1 0h3m11 0h31m-270 1h27m3 0h11m2 0h2m1 0h6m1 0h8m2 0h13m13 0h1m2 0h26m2 0h5m2 0h22m1 0h3m2 0h24m2 0h4m17 0h1m1 0h4m1 0h5m1 0h8m2 0h7m4 0h33m-269 1h30m4 0h5m3 0h3m1 0h7m2 0h7m2 0h10m17 0h26m2 0h6m2 0h16m1 0h5m2 0h3m2 0h24m1 0h2m21 0h4m1 0h5m1 0h8m1 0h7m2 0h36m-268 1h33m6 0h5m1 0h8m2 0h7m2 0h8m17 0h25m4 0h6m2 0h16m2 0h5m1 0h5m2 0h22m2 0h1m21 0h4m1 0h4m1 0h9m1 0h5m2 0h38m-268 1h35m3 0h7m1 0h8m2 0h7m1 0h6m17 0h1m1 0h23m2 0h3m1 0h5m3 0h15m4 0h4m1 0h7m2 0h21m1 0h1m21 0h4m1 0h4m1 0h9m1 0h2m3 0h40m-267 1h37m2 0h5m2 0h8m1 0h7m1 0h6m15 0h2m2 0h20m4 0h4m1 0h4m4 0h15m5 0h3m1 0h31m1 0h1m20 0h4m2 0h3m1 0h8m2 0h1m2 0h41m-266 1h38m2 0h5m1 0h8m2 0h6m1 0h5m15 0h3m1 0h21m1 0h7m10 0h13m7 0h2m1 0h31m1 0h2m20 0h4m2 0h2m2 0h7m3 0h43m-265 1h39m2 0h4m1 0h8m2 0h5m1 0h5m14 0h4m1 0h30m11 0h10m11 0h31m2 0h1m21 0h4m2 0h10m2 0h44m-265 1h40m2 0h4m1 0h8m1 0h4m2 0h4m15 0h4m1 0h31m12 0h6m2 0h2m8 0h33m1 0h1m21 0h5m3 0h7m2 0h45m-264 1h40m2 0h4m1 0h7m1 0h2m3 0h5m15 0h4m1 0h30m9 0h3m7 0h4m8 0h33m1 0h1m20 0h1m1 0h14m1 0h46m-264 1h41m1 0h5m2 0h5m3 0h7m18 0h1m2 0h21m1 0h8m9 0h14m9 0h32m21 0h3m1 0h12m2 0h45m-262 1h40m2 0h5m2 0h13m22 0h21m1 0h7m9 0h15m9 0h32m20 0h5m2 0h9m2 0h46m-262 1h41m1 0h7m3 0h8m20 0h3m1 0h21m1 0h7m9 0h15m10 0h7m1 0h24m1 0h1m16 0h7m3 0h6m3 0h45m-260 1h40m1 0h9m29 0h3m1 0h21m1 0h6m10 0h16m9 0h7m1 0h24m1 0h1m15 0h10m7 0h1m2 0h45m-260 1h40m2 0h11m3 0h5m18 0h3m1 0h21m1 0h6m10 0h16m10 0h6m1 0h24m1 0h1m15 0h18m1 0h45m-258 1h39m2 0h19m17 0h4m1 0h21m1 0h5m11 0h16m10 0h6m1 0h23m2 0h2m14 0h18m1 0h45m-257 1h39m1 0h19m17 0h4m1 0h21m1 0h5m10 0h17m10 0h6m1 0h23m2 0h2m14 0h18m1 0h44m-256 1h39m1 0h19m17 0h4m1 0h21m1 0h5m10 0h17m11 0h5m1 0h23m1 0h3m14 0h18m2 0h43m-255 1h38m1 0h19m17 0h4m1 0h21m1 0h4m11 0h17m11 0h5m2 0h22m1 0h3m14 0h19m1 0h42m-253 1h57m18 0h3m1 0h20m2 0h4m11 0h17m11 0h6m1 0h22m1 0h3m14 0h19m2 0h40m-252 1h57m18 0h3m1 0h20m1 0h5m11 0h17m11 0h6m1 0h22m1 0h3m14 0h20m2 0h38m-250 1h56m18 0h3m1 0h20m1 0h4m12 0h17m12 0h5m2 0h21m1 0h3m15 0h58m-248 1h55m18 0h3m2 0h18m1 0h5m11 0h18m12 0h6m1 0h21m1 0h3m16 0h56m-246 1h54m18 0h4m1 0h18m1 0h5m11 0h7m4 0h7m12 0h7m1 0h10m1 0h9m1 0h3m17 0h54m-243 1h51m19 0h4m1 0h17m1 0h5m12 0h6m2 0h2m3 0h5m12 0h7m2 0h9m1 0h8m2 0h3m18 0h14m1 0h36m-240 1h50m19 0h4m1 0h16m2 0h5m12 0h18m13 0h7m2 0h7m2 0h8m1 0h4m20 0h12m2 0h32m-235 1h47m20 0h4m1 0h15m2 0h6m13 0h17m13 0h8m2 0h6m1 0h9m1 0h4m23 0h10m3 0h27m-230 1h44m21 0h4m1 0h13m3 0h7m9 0h20m13 0h10m2 0h5m1 0h9m1 0h4m38 0h20m-225 1h43m23 0h3m1 0h12m2 0h9m5 0h48m3 0h2m2 0h8m2 0h4m47 0h2m-214 1h29m2 0h8m25 0h4m1 0h23m1 0h53m4 0h9m1 0h5m-163 1h25m3 0h6m28 0h4m1 0h40m6 0h34m1 0h9m1 0h5m-160 1h20m3 0h3m33 0h4m1 0h39m8 0h33m1 0h9m1 0h5m-157 1h14m42 0h4m1 0h37m11 0h31m1 0h10m1 0h5m-101 1h5m1 0h36m12 0h30m1 0h10m1 0h5m-100 1h4m1 0h35m14 0h29m1 0h9m1 0h6m-100 1h4m1 0h35m14 0h29m1 0h9m1 0h5m-99 1h4m2 0h34m14 0h28m1 0h10m1 0h5m-99 1h5m1 0h34m14 0h28m1 0h10m1 0h5m-98 1h4m1 0h34m14 0h28m1 0h10m1 0h5m-98 1h4m2 0h33m14 0h38m2 0h5m-98 1h5m1 0h33m14 0h27m1 0h10m1 0h6m-98 1h5m1 0h33m14 0h27m1 0h10m1 0h6m-98 1h5m2 0h32m14 0h26m1 0h11m1 0h5m-96 1h5m1 0h31m15 0h26m1 0h11m1 0h5m-96 1h5m1 0h31m15 0h26m1 0h10m2 0h5m-96 1h6m1 0h30m15 0h26m1 0h10m1 0h6m-95 1h5m1 0h30m15 0h6m1 0h18m1 0h11m1 0h5m-94 1h5m1 0h23m1 0h6m15 0h6m1 0h18m1 0h11m1 0h5m-94 1h5m2 0h22m1 0h6m15 0h7m1 0h17m1 0h11m1 0h5m-93 1h5m1 0h21m1 0h7m14 0h8m1 0h16m1 0h11m2 0h4m-92 1h5m1 0h21m1 0h8m13 0h8m1 0h16m1 0h11m1 0h5m-92 1h5m2 0h20m1 0h9m11 0h9m1 0h15m1 0h18m-92 1h6m2 0h19m1 0h10m9 0h10m1 0h15m1 0h17m-90 1h6m1 0h19m1 0h29m1 0h33m-90 1h26m1 0h28m1 0h33m-88 1h18m1 0h7m1 0h27m1 0h33m-88 1h18m1 0h7m1 0h26m1 0h33m-86 1h17m1 0h8m1 0h25m1 0h33m-86 1h17m1 0h8m2 0h23m1 0h33m-84 1h16m1 0h9m2 0h21m1 0h34m-84 1h16m1 0h10m1 0h19m2 0h34m-82 1h15m1 0h66m-81 1h14m2 0h64m-80 1h15m1 0h41m1 0h22m-79 1h14m1 0h41m1 0h21m-78 1h14m1 0h41m1 0h20m-76 1h13m2 0h40m1 0h20m-76 1h14m1 0h39m1 0h20m-74 1h13m1 0h39m1 0h19m-73 1h13m1 0h38m2 0h18m-71 1h12m2 0h37m1 0h19m-70 1h12m1 0h37m1 0h18m-69 1h12m2 0h35m1 0h18m-67 1h12m1 0h34m1 0h18m-65 1h12m1 0h32m2 0h17m-64 1h12m2 0h30m2 0h17m-62 1h12m2 0h12m3 0h13m2 0h17m-60 1h12m2 0h10m4 0h12m2 0h17m-58 1h13m2 0h6m2 0h4m2 0h8m2 0h18m-56 1h14m6 0h8m9 0h18m-54 1h53m-53 1h52m-51 1h50m-49 1h47m-46 1h45m-44 1h43m-42 1h41m-40 1h38m-36 1h35m-33 1h31m-30 1h28m-26 1h24m-21 1h18m-15 1h12" stroke="#dfa68d"/><path d="m151 49h6m-7 1h8m-36 1h6m22 0h2m4 0h3m-40 1h3m4 0h3m20 0h2m2 0h1m3 0h2m-41 1h3m2 0h1m3 0h2m19 0h2m3 0h1m3 0h3m-43 1h3m3 0h1m3 0h2m18 0h3m8 0h2m-44 1h4m7 0h2m18 0h3m8 0h3m-45 1h3m8 0h1m18 0h4m8 0h3m-46 1h4m28 0h4m7 0h3m-46 1h4m28 0h4m7 0h3m-47 1h5m29 0h4m5 0h4m-47 1h6m30 0h3m3 0h4m-46 1h7m32 0h5m-44 1h6" stroke="#ddd"/><path d="m152 52h1m1 0h2m-34 1h1m1 0h1m26 0h1m3 0h1m-35 1h1m3 0h1m25 0h1m4 0h1m-36 1h1m3 0h1m25 0h1m4 0h1m-37 1h1m4 0h1m25 0h1m4 0h1m-37 1h1m4 0h1m26 0h1m2 0h2m-36 1h1m30 0h4m-35 1h1m32 0h1m-34 1h2" stroke="#aebbdc"/><path d="m153 54h2m-32 1h1m29 0h2m-33 1h2m29 0h2m-33 1h2m-1 1h1" stroke="#555"/><path d="m189 75h6m-6 1h11m-10 1h13m-13 1h15m-121 1h3m102 0h16m-125 1h7m103 0h14m-127 1h10m103 0h14m-130 1h13m103 0h13m-131 1h14m105 0h12m-132 1h15m105 0h11m-131 1h15m105 0h11m-131 1h15m106 0h10m-131 1h15m107 0h9m-131 1h15m107 0h10m-132 1h15m108 0h9m-132 1h16m107 0h9m-132 1h16m107 0h10m-133 1h16m108 0h10m-135 1h17m108 0h11m-136 1h17m108 0h13m-139 1h18m109 0h13m-141 1h19m109 0h16m-145 1h20m109 0h16m-146 1h22m109 0h14m-144 1h21m109 0h13m-142 1h20m109 0h12m-141 1h19m111 0h11m-141 1h18m112 0h11m-141 1h18m113 0h10m-141 1h17m114 0h11m-142 1h16m115 0h12m-144 1h17m116 0h12m-145 1h16m117 0h14m-148 1h17m118 0h12m-149 1h18m119 0h12m-151 1h20m119 0h11m-151 1h20m121 0h10m-151 1h19m122 0h9m-150 1h19m122 0h9m-149 1h17m124 0h8m-149 1h17m124 0h7m-148 1h16m126 0h6m-148 1h15m127 0h6m-147 1h14m127 0h5m-146 1h13m128 0h5m-146 1h13m128 0h5m-146 1h12m130 0h4m-146 1h12m130 0h4m-146 1h11m131 0h4m-145 1h10m132 0h2m-144 1h9m133 0h3m-145 1h9m133 0h3m-145 1h8m134 0h3m-145 1h8m135 0h2m-145 1h7m136 0h2m-145 1h7m136 0h2m-145 1h6m137 0h2m-145 1h6m137 0h2m-145 1h5m138 0h2m-145 1h5m138 0h2m-145 1h4m140 0h1m-145 1h4m140 0h1m-145 1h4m140 0h1m-145 1h3m141 0h1m-145 1h3m141 0h1m-145 1h2m142 0h2m-146 1h2m143 0h1m-146 1h1m144 0h1m-146 1h1m144 0h1m-1 1h1m-1 1h1m1 8h1m-1 1h1m0 1h1m-1 1h1m-1 1h1m-1 1h2m-155 1h1m152 0h2m-155 1h1m153 0h2m-157 1h1m154 0h2m-157 1h1m154 0h3m-159 1h2m154 0h3m-160 1h3m154 0h4m-162 1h4m154 0h5m-163 1h4m155 0h4m-164 1h5m155 0h5m-166 1h5m156 0h6m-168 1h6m156 0h6m-169 1h7m156 0h7m-170 1h7m156 0h8m-172 1h8m156 0h9m-174 1h9m157 0h9m-176 1h10m157 0h10m-178 1h11m157 0h11m-181 1h13m157 0h12m-183 1h14m157 0h13m-186 1h16m158 0h13m-189 1h18m158 0h15m-193 1h20m158 0h16m-196 1h22m158 0h18m-202 1h26m158 0h21m-205 1h26m159 0h23m-208 1h26m159 0h27m-212 1h26m159 0h32m-217 1h26m159 0h31m-216 1h26m159 0h31m-216 1h26m159 0h30m-215 1h26m159 0h30m-215 1h26m159 0h29m-214 1h26m159 0h28m-212 1h25m160 0h27m-212 1h25m160 0h26m-211 1h25m160 0h25m-210 1h25m160 0h25m-210 1h25m160 0h24m-208 1h24m160 0h23m-207 1h25m159 0h23m-207 1h25m159 0h22m-206 1h25m159 0h21m-204 1h24m159 0h20m-203 1h24m160 0h19m-203 1h24m160 0h18m-201 1h23m160 0h17m-200 1h23m160 0h16m-199 1h23m160 0h16m-198 1h22m160 0h14m-196 1h22m161 0h12m-194 1h21m161 0h11m-193 1h21m161 0h10m-191 1h20m162 0h8m-190 1h21m161 0h7m-188 1h20m-19 1h19m-18 1h18m-18 1h18m-17 1h17m-16 1h16m-15 1h15m-14 1h14m-13 1h13m-12 1h11m-9 1h9m-7 1h6" stroke="#a44e11"/><path d="m191 89h1m-1 1h2m-2 1h2m-2 1h2m-2 1h3m-3 1h3m-3 1h4m-4 1h4m-4 1h4m-4 1h5m-5 1h5m-5 1h5m-5 1h6m-6 1h6m-110 1h2m102 0h7m-112 1h3m102 0h7m-112 1h3m102 0h7m-113 1h4m101 0h9m-114 1h4m101 0h9m-115 1h6m100 0h9m-116 1h7m100 0h10m-117 1h7m100 0h10m-118 1h8m100 0h10m-118 1h8m99 0h12m-120 1h10m98 0h12m-121 1h11m98 0h13m-122 1h11m97 0h14m-123 1h13m96 0h14m-123 1h13m97 0h14m-125 1h14m97 0h14m-125 1h15m97 0h13m-126 1h16m97 0h13m-126 1h16m97 0h14m-128 1h17m98 0h13m-129 1h18m98 0h13m-129 1h17m99 0h13m-130 1h17m100 0h14m-131 1h16m102 0h13m-132 1h17m102 0h13m-132 1h16m103 0h14m-134 1h17m104 0h13m-134 1h16m105 0h13m-134 1h15m106 0h13m-135 1h16m106 0h13m-136 1h17m107 0h12m-136 1h16m108 0h12m-136 1h16m108 0h13m-138 1h16m109 0h13m-138 1h16m109 0h13m-139 1h16m110 0h13m-139 1h16m110 0h13m-140 1h16m112 0h12m-140 1h16m112 0h12m-141 1h16m113 0h13m-142 1h16m113 0h13m-142 1h16m113 0h13m-143 1h17m113 0h13m-143 1h16m114 0h14m-145 1h17m115 0h13m-145 1h16m116 0h13m-145 1h16m116 0h13m-146 1h17m116 0h13m-146 1h17m116 0h14m-147 1h17m116 0h14m-148 1h17m117 0h14m-148 1h17m117 0h14m-148 1h17m117 0h14m-148 1h17m117 0h15m-150 1h18m117 0h15m-150 1h17m118 0h15m-150 1h17m118 0h15m-150 1h17m118 0h15m-150 1h17m118 0h15m-150 1h17m118 0h16m-152 1h17m119 0h16m-152 1h17m120 0h15m-152 1h17m119 0h16m-152 1h17m119 0h16m-152 1h17m119 0h17m-153 1h17m119 0h17m-154 1h18m119 0h17m-154 1h17m120 0h17m-154 1h17m120 0h17m-154 1h17m120 0h17m-154 1h17m121 0h17m-155 1h17m121 0h17m-155 1h17m121 0h17m-155 1h17m121 0h17m-155 1h17m121 0h17m-155 1h17m121 0h17m-155 1h17m121 0h18m-156 1h17m121 0h18m-156 1h17m121 0h18m-156 1h17m121 0h18m-187 1h2m29 0h17m121 0h18m-188 1h3m29 0h17m121 0h18m37 0h3m-229 1h4m29 0h17m121 0h18m36 0h5m-231 1h6m28 0h17m122 0h17m35 0h6m-231 1h6m28 0h17m122 0h18m33 0h8m-233 1h7m28 0h17m122 0h18m33 0h8m-233 1h7m28 0h17m122 0h18m32 0h10m-235 1h8m28 0h17m122 0h18m31 0h11m-235 1h8m29 0h16m122 0h18m31 0h11m-235 1h8m29 0h16m122 0h18m30 0h12m-236 1h9m29 0h16m122 0h18m29 0h13m-236 1h10m28 0h16m122 0h19m28 0h13m-236 1h10m28 0h17m121 0h19m27 0h14m-236 1h10m28 0h17m121 0h19m26 0h14m-235 1h10m28 0h17m121 0h19m26 0h14m-235 1h11m27 0h17m121 0h19m25 0h15m-235 1h11m27 0h17m121 0h19m24 0h15m-234 1h11m27 0h17m121 0h19m24 0h15m-234 1h11m27 0h17m121 0h19m23 0h15m-233 1h12m26 0h17m121 0h19m22 0h16m-233 1h12m26 0h17m121 0h19m21 0h17m-232 1h11m26 0h17m121 0h19m21 0h16m-231 1h12m25 0h18m120 0h20m19 0h17m-231 1h12m26 0h17m120 0h20m18 0h17m-230 1h12m26 0h17m120 0h20m17 0h18m-229 1h12m25 0h17m120 0h20m16 0h18m-228 1h12m25 0h18m119 0h20m15 0h18m-227 1h13m24 0h18m119 0h21m13 0h19m-226 1h12m24 0h18m119 0h21m12 0h19m-225 1h13m23 0h18m119 0h22m10 0h20m-225 1h13m23 0h18m119 0h22m9 0h20m-223 1h13m22 0h19m118 0h24m4 0h23m-223 1h14m21 0h19m118 0h50m-221 1h13m21 0h19m118 0h49m-220 1h14m21 0h18m117 0h49m-218 1h14m19 0h19m117 0h49m-218 1h15m19 0h18m117 0h48m-217 1h16m18 0h19m116 0h48m-216 1h16m16 0h20m116 0h47m-215 1h17m15 0h20m116 0h46m-213 1h17m14 0h20m116 0h45m-212 1h19m11 0h21m116 0h45m-211 1h20m8 0h22m116 0h44m-209 1h50m115 0h43m-208 1h50m115 0h42m-206 1h49m114 0h43m-205 1h48m114 0h42m-204 1h48m114 0h42m-203 1h47m114 0h41m-202 1h47m114 0h40m-200 1h47m113 0h40m-200 1h47m113 0h39m-198 1h46m113 0h38" stroke="#dbaa27"/><path d="m265 90h2m-3 1h6m-258 1h3m248 0h8m-261 1h5m246 0h11m-263 1h7m243 0h13m-264 1h9m240 0h15m-264 1h11m234 0h19m-264 1h12m193 0h14m21 0h23m-263 1h14m190 0h24m4 0h30m-262 1h16m40 0h1m146 0h58m-261 1h18m35 0h5m144 0h57m-258 1h20m27 0h11m143 0h53m-253 1h23m15 0h19m143 0h51m3 0h2m-255 1h56m144 0h55m-254 1h55m145 0h54m-252 1h53m146 0h53m-256 1h4m3 0h49m149 0h51m-256 1h6m6 0h43m153 0h48m-257 1h55m150 0h3m5 0h45m-258 1h53m152 0h7m8 0h38m-258 1h51m154 0h53m-259 1h48m157 0h54m-259 1h41m7 0h4m153 0h55m-261 1h53m152 0h56m-261 1h53m152 0h56m-262 1h55m150 0h57m-262 1h55m150 0h58m-264 1h56m150 0h58m-264 1h56m149 0h60m-265 1h57m125 0h1m22 0h60m-266 1h58m125 0h2m21 0h60m-266 1h58m125 0h2m21 0h61m-268 1h59m124 0h3m21 0h61m-268 1h59m124 0h3m21 0h61m-268 1h59m31 0h2m90 0h5m20 0h61m-268 1h59m30 0h3m90 0h5m20 0h62m-269 1h60m29 0h3m89 0h7m19 0h62m-270 1h61m28 0h5m88 0h7m19 0h62m-270 1h61m27 0h7m86 0h8m19 0h62m-270 1h61m27 0h7m86 0h8m19 0h62m-270 1h61m26 0h9m84 0h10m18 0h63m-271 1h61m26 0h9m83 0h11m18 0h63m-271 1h61m25 0h11m82 0h11m18 0h63m-272 1h62m25 0h11m81 0h12m18 0h63m-272 1h62m24 0h13m79 0h13m18 0h63m-272 1h62m24 0h13m79 0h14m17 0h63m-272 1h62m23 0h15m77 0h15m17 0h63m-272 1h62m23 0h15m76 0h16m18 0h63m-273 1h62m22 0h17m75 0h16m18 0h63m-273 1h62m22 0h17m74 0h17m18 0h63m-273 1h62m21 0h19m72 0h19m17 0h63m-273 1h62m21 0h20m70 0h20m17 0h63m-273 1h62m21 0h21m68 0h21m17 0h63m-273 1h62m20 0h22m67 0h22m17 0h63m-273 1h62m20 0h23m65 0h23m17 0h63m-272 1h60m21 0h24m64 0h23m17 0h63m-272 1h60m20 0h26m61 0h25m18 0h62m-272 1h60m20 0h26m61 0h25m18 0h62m-272 1h60m20 0h27m59 0h27m17 0h62m-272 1h60m19 0h29m56 0h29m17 0h62m-272 1h59m20 0h30m54 0h30m17 0h62m-272 1h59m20 0h31m52 0h31m18 0h61m-272 1h59m20 0h31m51 0h32m18 0h61m-271 1h57m21 0h32m49 0h33m18 0h61m-271 1h57m20 0h34m47 0h34m19 0h59m-270 1h57m20 0h35m44 0h36m19 0h59m-270 1h56m21 0h36m42 0h37m19 0h59m-269 1h55m21 0h38m39 0h38m20 0h58m-269 1h54m21 0h40m36 0h40m20 0h58m-268 1h53m21 0h42m32 0h42m21 0h57m-267 1h52m21 0h43m29 0h44m21 0h56m-266 1h51m22 0h45m25 0h46m22 0h55m-265 1h49m23 0h48m19 0h49m22 0h55m-264 1h48m22 0h52m13 0h52m23 0h53m-263 1h47m23 0h117m24 0h52m-262 1h45m24 0h117m24 0h51m-260 1h43m25 0h117m25 0h50m-259 1h42m25 0h117m25 0h49m-258 1h41m26 0h117m26 0h48m-257 1h39m27 0h117m27 0h46m-255 1h37m27 0h118m28 0h44m-253 1h25m1 0h9m29 0h117m28 0h43m-251 1h22m2 0h9m30 0h117m29 0h42m-250 1h9m1 0h10m2 0h9m30 0h118m30 0h40m-247 1h8m2 0h6m3 0h9m31 0h118m31 0h38m-245 1h8m8 0h10m32 0h118m33 0h35m-242 1h22m34 0h118m34 0h33m-240 1h19m36 0h118m35 0h9m1 0h10m2 0h9m-237 1h15m38 0h118m37 0h7m11 0h10m-235 1h12m40 0h118m38 0h11m2 0h13m-231 1h7m42 0h119m39 0h22m-180 1h119m42 0h18m-179 1h119m45 0h13m-177 1h119m49 0h5m-173 1h119m-119 1h119m-119 1h119m-119 1h119m-119 1h119m-118 1h118m-118 1h119m-119 1h119m-119 1h119m-119 1h119m-119 1h119m-119 1h119m-119 1h119m-119 1h119m-119 1h119m-119 1h119m-119 1h119m-119 1h119m-119 1h119m-119 1h119m-118 1h118m-118 1h118m-118 1h118m-118 1h118m-117 1h117m-117 1h116m-116 1h116m-116 1h117m-117 1h116m-115 1h115m-115 1h115m-115 1h115m-115 1h115m-115 1h115m-114 1h114m-114 1h114m-114 1h114m-114 1h114m-114 1h114m-114 1h114m-113 1h112m-112 1h112m-112 1h112m-112 1h112m-112 1h112m-112 1h112m-111 1h111m-111 1h111m-111 1h111m-111 1h110m-110 1h110m-109 1h109" stroke="#e0410e"/><path d="m135 100h4m-6 1h8m-9 1h10m-10 1h10m-11 1h12m-12 1h12m-12 1h12m-12 1h12m-12 1h12m-12 1h12m-12 1h12m-12 1h12m-12 1h12m-12 1h12m-13 1h13m-13 1h13m-13 1h13m-13 1h13m-12 1h11m-11 1h11m-9 1h7" stroke="#b10707"/><path d="m248 217h1m-2 1h2m-2 1h2m-3 1h3m-3 1h3m-4 1h5m-6 1h6m-7 1h7m-7 1h7m-8 1h8m-9 1h9m-10 1h10m-10 1h10m-11 1h11m-11 1h11m-12 1h12m-12 1h12m-13 1h14m-15 1h15" stroke="#005e19"/></svg>