<svg shape-rendering="crispEdges" viewBox="0 -.5 43 60" xmlns="http://www.w3.org/2000/svg"><path d="m15 0h13m-13 1h13m-17 1h4m13 0h4m-21 1h4m13 0h4m-23 1h2m21 0h2m-25 1h2m21 0h2m-28 1h3m25 0h3m-31 1h3m25 0h3m-31 1h3m25 0h3m-33 1h2m5 0h4m13 0h4m5 0h2m-35 1h2m5 0h4m13 0h4m5 0h2m-35 1h2m5 0h6m9 0h6m5 0h2m-35 1h2m5 0h6m9 0h6m5 0h2m-37 1h2m9 0h4m2 0h5m2 0h4m9 0h2m-39 1h2m9 0h4m2 0h5m2 0h4m9 0h2m-39 1h2m13 0h2m5 0h2m13 0h2m-39 1h2m13 0h2m5 0h2m13 0h2m-39 1h2m13 0h2m5 0h2m13 0h2m-39 1h2m13 0h2m5 0h2m13 0h2m-39 1h2m11 0h2m9 0h2m11 0h2m-39 1h2m11 0h2m9 0h2m11 0h2m-39 1h2m9 0h4m2 0h5m2 0h4m9 0h2m-39 1h2m9 0h4m2 0h5m2 0h4m9 0h2m-39 1h2m9 0h4m2 0h5m2 0h4m9 0h2m-37 1h5m4 0h4m2 0h5m2 0h4m4 0h5m-35 1h5m4 0h4m2 0h5m2 0h4m4 0h5m-33 1h3m2 0h8m5 0h8m2 0h3m-31 1h3m2 0h8m5 0h8m2 0h3m-33 1h2m5 0h2m4 0h9m4 0h2m5 0h2m-35 1h2m5 0h2m4 0h9m4 0h2m5 0h2m-37 1h2m5 0h2m4 0h2m15 0h2m5 0h2m-39 1h2m5 0h2m4 0h2m15 0h2m5 0h2m-39 1h2m5 0h2m2 0h2m17 0h2m5 0h2m-39 1h2m5 0h2m2 0h2m17 0h2m5 0h2m-41 1h2m4 0h3m2 0h2m2 0h2m9 0h2m6 0h3m4 0h2m-43 1h2m4 0h3m2 0h2m2 0h2m9 0h2m6 0h3m4 0h2m-43 1h2m4 0h3m2 0h2m6 0h5m10 0h3m4 0h2m-43 1h2m4 0h3m2 0h2m6 0h5m10 0h3m4 0h2m-43 1h2m4 0h3m2 0h2m6 0h5m10 0h3m4 0h2m-43 1h2m4 0h13m5 0h13m4 0h2m-43 1h2m4 0h13m5 0h13m4 0h2m-43 1h2m4 0h13m5 0h13m4 0h2m-43 1h2m4 0h13m5 0h13m4 0h2m-41 1h2m2 0h3m2 0h2m2 0h2m2 0h5m2 0h2m6 0h3m2 0h2m-39 1h2m2 0h3m2 0h2m2 0h2m2 0h5m2 0h2m6 0h3m2 0h2m-37 1h5m2 0h2m21 0h5m-35 1h5m2 0h2m21 0h5m-33 1h31m-31 1h31m-31 1h3m10 0h5m10 0h3m-31 1h3m10 0h5m10 0h3m-28 1h10m5 0h10m-25 1h10m5 0h10m-25 1h10m5 0h10m-23 1h8m5 0h8m-21 1h8m5 0h8m-23 1h2m4 0h4m5 0h4m4 0h2m-25 1h2m4 0h4m5 0h4m4 0h2m-23 1h6m9 0h6m-21 1h6m9 0h6" stroke="#202020"/><path d="m15 2h13m-13 1h13m-17 1h21m-21 1h21m-23 1h25m-25 1h25m-25 1h25m-28 1h5m6 0h9m6 0h5m-31 1h5m6 0h9m6 0h5m-31 1h5m6 0h9m6 0h5m-31 1h5m6 0h9m6 0h5m-33 1h7m6 0h2m5 0h2m6 0h7m-35 1h7m6 0h2m5 0h2m6 0h7m-35 1h13m9 0h13m-35 1h13m9 0h13m-35 1h13m9 0h13m-35 1h13m9 0h13m-35 1h11m4 0h5m4 0h11m-35 1h11m4 0h5m4 0h11m-30 1h4m4 0h2m5 0h2m4 0h4m-25 1h4m4 0h2m5 0h2m4 0h4m-25 1h4m4 0h2m5 0h2m4 0h4m-17 1h2m5 0h2m-9 1h2m5 0h2m-7 1h5m-5 1h5m-18 1h5m2 0h4m9 0h4m2 0h5m-31 1h5m2 0h4m9 0h4m2 0h5m-33 1h5m2 0h4m2 0h15m2 0h5m-35 1h5m2 0h4m2 0h15m2 0h5m-35 1h5m2 0h2m2 0h17m2 0h5m-35 1h5m2 0h2m2 0h17m2 0h5m-30 1h2m2 0h2m2 0h9m2 0h6m-25 1h2m2 0h2m2 0h9m2 0h6m-25 1h2m2 0h6m5 0h10m-25 1h2m2 0h6m5 0h10m-25 1h2m2 0h6m5 0h10m-25 5h2m2 0h2m2 0h2m5 0h2m2 0h6m-25 1h2m2 0h2m2 0h2m5 0h2m2 0h6m-25 1h2m2 0h21m-25 1h2m2 0h21" stroke="#f8d8d8"/><path d="m15 9h2m9 0h2m-13 1h2m9 0h2m-17 3h2m17 0h2m-21 1h2m17 0h2m-13 1h5m-5 1h5m-5 1h5m-5 1h5m-7 1h2m5 0h2m-9 1h2m5 0h2m-22 1h5m25 0h5m-35 1h5m25 0h5m-35 1h5m25 0h5m-30 1h4m17 0h4m-25 1h4m17 0h4m-32 11h4m31 0h4m-39 1h4m31 0h4m-39 1h4m31 0h4m-39 1h4m31 0h4m-39 1h4m31 0h4m-39 1h4m31 0h4m-39 1h4m31 0h4m-37 1h2m31 0h2m-35 1h2m31 0h2m-30 5h10m5 0h10m-25 1h10m5 0h10" stroke="#f8a8a8"/><path d="m9 26h2m21 0h2m-25 1h2m21 0h2" stroke="#c87868"/><path d="m2 34h4m31 0h4m-39 1h4m31 0h4" stroke="#404040"/><path d="m19 39h5m-5 1h5m-5 1h5m-5 1h5" stroke="#f8f8f8"/><path d="m11 56h4m13 0h4m-21 1h4m13 0h4" stroke="#687878"/></svg>