<svg clip-rule="evenodd" fill-rule="evenodd" stroke-linejoin="round" stroke-miterlimit="2" viewBox="0 0 36 36" xmlns="http://www.w3.org/2000/svg"><path d="m36 18c0 9.941-8.059 18-18 18-9.94 0-18-8.059-18-18 0-9.94 8.06-18 18-18 9.941 0 18 8.06 18 18" fill="#ffcc4d" fill-rule="nonzero"/><g fill="#664500"><ellipse cx="11.5" cy="16.5" rx="2.5" ry="3.5" transform="matrix(1 0 0 .678571 1.02833 6.17857)"/><ellipse cx="11.5" cy="16.5" rx="2.5" ry="3.5" transform="matrix(1 0 0 .678571 11.9752 6.17857)"/><path d="m25 26h-14c-.552 0-1-.447-1-1s.448-1 1-1h14c.553 0 1 .447 1 1s-.447 1-1 1z" fill-rule="nonzero" transform="matrix(.999048 .0436194 -.0436194 .999048 1.17574 -1.11494)"/></g><g fill="#be1931" transform="matrix(.543319 0 0 .545455 20.2437 -1.09091)"><path d="m17 27c-1.657 0-3-1.343-3-3v-4c0-1.657 1.343-3 3-3 .603-.006 6-1 6-5 0-2-2-4-5-4-2.441 0-4 2-4 3 0 1.657-1.343 3-3 3s-3-1.343-3-3c0-4.878 4.58-9 10-9 8 0 11 5.982 11 11 0 4.145-2.277 7.313-6.413 8.92-.9.351-1.79.587-2.587.747v1.333c0 1.657-1.343 3-3 3z" fill-rule="nonzero"/><circle cx="17" cy="32" r="3"/></g></svg>