<svg shape-rendering="crispEdges" viewBox="0 -.5 46 49" xmlns="http://www.w3.org/2000/svg"><path d="m19 0h1m-16 1h4m11 0h2m17 0h4m-39 1h1m4 0h2m9 0h3m14 0h2m4 0h1m-41 1h1m7 0h1m9 0h4m11 0h1m7 0h1m-33 1h1m4 0h3m2 0h4m9 0h1m-23 1h1m4 0h9m7 0h1m-21 1h1m4 0h9m5 0h1m-20 1h1m3 0h1m2 0h9m3 0h1m-19 1h1m1 0h3m2 0h9m1 0h1m-18 1h1m1 0h3m1 0h3m1 0h6m1 0h1m-18 1h1m1 0h3m1 0h1m2 0h7m1 0h1m-17 1h4m2 0h9m-24 1h2m7 0h16m7 0h2m-35 1h4m5 0h1m3 0h10m3 0h1m5 0h4m-37 1h9m2 0h3m2 0h6m2 0h3m2 0h9m-38 1h8m1 0h7m1 0h4m1 0h7m1 0h8m-39 1h8m1 0h22m1 0h8m-40 1h40m-41 1h12m5 0h8m5 0h12m-42 1h10m2 0h5m1 0h6m1 0h5m2 0h10m-42 1h6m5 0h7m1 0h4m1 0h7m5 0h6m-43 1h7m4 0h9m1 0h2m1 0h9m4 0h7m-44 1h7m3 0h10m1 0h2m1 0h10m3 0h7m-44 1h7m3 0h10m1 0h2m1 0h10m3 0h7m-45 1h8m3 0h5m1 0h4m4 0h3m1 0h6m3 0h8m-46 1h8m3 0h10m4 0h10m3 0h8m-46 1h8m4 0h8m2 0h2m2 0h8m4 0h8m-46 1h8m5 0h6m3 0h2m3 0h6m5 0h8m-46 1h8m2 0h1m3 0h4m3 0h4m3 0h4m3 0h1m2 0h8m-46 1h8m2 0h3m6 0h8m6 0h3m2 0h8m-46 1h8m2 0h26m2 0h8m-46 1h8m2 0h26m2 0h8m-46 1h8m2 0h26m2 0h8m-46 1h9m2 0h24m2 0h9m-46 1h9m2 0h10m1 0h2m1 0h10m2 0h9m-46 1h9m2 0h5m1 0h4m1 0h2m1 0h4m1 0h5m2 0h9m-46 1h9m3 0h4m2 0h10m2 0h4m3 0h9m-46 1h9m3 0h5m3 0h3m3 0h1m2 0h5m3 0h9m-45 1h8m4 0h6m4 0h2m3 0h5m4 0h8m-44 1h9m3 0h6m3 0h3m2 0h6m3 0h9m-44 1h9m4 0h6m1 0h4m1 0h6m4 0h9m-44 1h9m5 0h5m1 0h3m2 0h5m5 0h9m-43 1h9m6 0h3m4 0h5m6 0h9m-42 1h9m8 0h8m8 0h9m-41 1h8m24 0h8m-40 1h8m24 0h8m-39 1h7m24 0h7m-37 1h5m26 0h5m-34 1h2m28 0h2" stroke="#fff"/><path d="m4 2h4m30 0h4m-35 1h3m9 0h1m16 0h3m-37 1h4m3 0h2m8 0h2m14 0h2m3 0h4m-38 1h1m3 0h2m22 0h2m3 0h1m-33 1h1m3 0h2m20 0h2m3 0h1m-31 1h1m2 0h2m5 0h2m13 0h2m2 0h1m-30 1h1m3 0h2m5 0h2m11 0h2m3 0h1m-30 1h1m3 0h2m5 0h1m3 0h1m8 0h2m3 0h1m-30 1h1m3 0h2m5 0h1m1 0h2m9 0h2m3 0h1m-29 1h1m2 0h2m5 0h2m11 0h2m2 0h1m-27 1h3m20 0h3" stroke="#fd96d6"/><path d="m3 3h4m32 0h4m-37 1h3m28 0h3m-33 1h3m26 0h3m-31 1h3m24 0h3m-29 1h2m24 0h2m-28 1h3m22 0h3m-28 1h3m22 0h3m-28 1h3m22 0h3m-27 1h2m2 0h1m16 0h1m2 0h2m-27 1h1m3 0h1m18 0h1m3 0h1m-27 1h3m2 0h3m10 0h3m2 0h3m-23 1h2m3 0h2m6 0h2m3 0h2m-21 1h1m7 0h1m4 0h1m7 0h1m-23 1h1m22 0h1m-21 2h5m8 0h5m-20 1h2m5 0h1m6 0h1m5 0h2m-26 1h4m8 0h1m4 0h1m8 0h4m-30 1h3m10 0h1m2 0h1m10 0h3m-30 1h3m10 0h1m2 0h1m10 0h3m-28 1h1m10 0h1m2 0h1m10 0h1m-26 1h1m5 0h1m4 0h4m3 0h1m6 0h1m-26 1h1m10 0h1m2 0h1m10 0h1m-26 1h1m10 0h1m2 0h1m10 0h1m-25 1h1m8 0h1m4 0h1m8 0h1m-23 1h2m4 0h2m6 0h2m4 0h2m-20 1h4m10 0h4m-16 6h1m4 0h1m2 0h1m4 0h1m-14 1h1m12 0h1m-13 1h3m3 0h3m1 0h2m-10 1h4m2 0h3m-9 1h2m4 0h2m-7 1h1m4 0h1m-6 1h1m3 0h1m-5 1h4" stroke="#000"/><path d="m30 11h1m-23 1h1m5 0h1m16 0h1m5 0h1m-29 1h1m3 0h1m18 0h1m3 0h1m-34 2h1m38 0h1m-41 2h1m40 0h1m-43 3h1m10 0h1m20 0h1m10 0h1m-34 1h1m22 0h1m-35 2h1m7 0h2m26 0h2m7 0h1m-38 1h2m26 0h2m-30 1h2m12 0h2m12 0h2m-29 1h1m1 0h1m8 0h1m4 0h1m8 0h1m1 0h1m-28 1h2m1 0h1m6 0h1m1 0h1m2 0h1m1 0h1m6 0h1m1 0h2m-28 1h1m1 0h1m8 0h1m4 0h1m8 0h1m1 0h1m-24 1h1m4 0h1m8 0h1m4 0h1m-25 3h1m28 0h1m-28 1h1m24 0h1m-15 1h1m2 0h1m-14 2h1m5 0h1m10 0h1m5 0h1m-35 2h1m8 0h1m2 0h1m20 0h1m2 0h1m8 0h1m-25 1h1m-12 2h1m14 0h1m9 0h1m-35 1h1m14 0h1m12 0h1m14 0h1m-34 1h1m6 0h1m8 0h1m6 0h1m-33 1h1m8 0h1m22 0h1m8 0h1m-33 1h1m22 0h1m-32 1h1m7 0h1m22 0h1m7 0h1m-39 1h1m5 0h1m24 0h1m5 0h1m-36 1h1m2 0h1m26 0h1m2 0h1" stroke="#adb2cf"/></svg>