<svg height="121pt" viewBox="0 0 128 121" width="128pt" xmlns="http://www.w3.org/2000/svg"><g fill="#de0000"><path d="m63.3.0h.79c4.87 15.44 9.93 30.82 15.04 46.17C62.47 69.13 45.67 92 28.94 114.91c-.94 1.48-2.44 2.68-2.68 4.52-.24.39-.72 1.18-.96 1.57h-.8c4.74-15.44 9.9-30.78 14.98-46.12-12.86-9.56-26.04-18.7-38.86-28.28-.16.01-.47.05-.62.06v-.35c16.23-.47 32.57.15 48.8-.32 5.08-15.09 9.83-30.31 14.94-45.4z"/><path d="m89.19 32.67c2.12-3.3 4.62-6.34 6.85-9.57 6.96 5.67 12.73 13.16 15.82 21.61-4.32-.03-8.63-.01-12.95-.01-2.56-4.5-5.71-8.72-9.72-12.03z"/><path d="m103.77 66.92c3.35-3.2 7.69-5.35 11.33-8.28 1.83 6.62.2 14.1-1.54 20.77-1.89 9.18-7.44 17.06-13.68 23.83-1.72-4.24-2.98-8.71-4.46-13.07 5.12-6.62 7.96-14.92 8.35-23.25z"/><path d="m41.33 112.73c3.07-3.22 7.03-5.61 10.49-8.45 8.16 2.82 17.21 2.54 25.33-.29 3.57 2.66 7.48 5.07 10.72 8.04-8.97 4.15-19.07 6.63-28.98 5.52-5.99-1.02-11.98-2.33-17.56-4.82z"/></g><path d="m16.05 44.7c6.51-17.15 23.04-30.6 41.46-32.24-1.5 4-2.42 8.2-3.86 12.22-10.39 2.95-19.4 10.23-24.47 19.77-4.29.59-8.77.06-13.13.25z"/><path d="m70.06 12.13c4.98 1.14 10.11 1.91 14.78 4.05 4.06 1.73 7.64 4.36 11.2 6.92-2.23 3.23-4.73 6.27-6.85 9.57-4.29-3.73-9.45-6.28-14.83-8.01-1.48-4.15-3.14-8.29-4.3-12.53z"/><path d="m79.13 46.17c16.29-.06 32.58-.03 48.87-.01v.11c-13.29 9.41-26.47 18.97-39.6 28.6 5.06 15.28 10.08 30.58 15 45.92l.84.21h-1.1c-12.86-9.77-26.19-18.94-39.18-28.56-12.61 8.94-24.91 18.35-37.7 26.99.24-1.84 1.74-3.04 2.68-4.52C45.67 92 62.47 69.13 79.13 46.17z"/><path d="m12.47 58.19c3.99 2.39 7.64 5.44 11.52 8.06.34 8.49 3.45 16.67 7.98 23.73-1.53 4.2-2.6 8.66-4.62 12.6-4.55-5.31-8.96-10.95-11.35-17.6-2.92-8.58-4.81-17.7-3.53-26.79z"/></svg>