<svg clip-rule="evenodd" fill-rule="evenodd" stroke-linejoin="round" stroke-miterlimit="2" viewBox="0 0 900 600" xmlns="http://www.w3.org/2000/svg"><path d="m900 75c0-41.394-33.606-75-75-75h-750c-41.394 0-75 33.606-75 75v225h900z" fill="#0080ff"/><path d="m900 521.93v-234.211h-900v234.211c0 43.088 33.606 78.07 75 78.07h750c41.394 0 75-34.982 75-78.07z" fill="#008000" transform="matrix(1 0 0 .960672 0 23.5968)"/><circle cx="450" cy="300" fill="#f80000" r="200"/><g fill="#0080ff"><g transform="matrix(.19509 -.980785 .980785 .19509 67.9738 682.826)"><circle cx="450" cy="140.625" r="20.625"/><circle cx="450" cy="242.5" r="7.5"/><g fill-rule="nonzero"><path d="m450 140.625v101.875h12l18-101.875z" transform="matrix(.991445 -.130526 .130526 .991445 -35.308 61.3033)"/><path d="m450 140.625v101.875h-12l-18-101.875z" transform="matrix(.991445 .130526 -.130526 .991445 43.0077 -56.1702)"/></g></g><g transform="matrix(.55557 -.83147 .83147 .55557 -49.4475 507.49)"><circle cx="450" cy="140.625" r="20.625"/><circle cx="450" cy="242.5" r="7.5"/><g fill-rule="nonzero"><path d="m450 140.625v101.875h12l18-101.875z" transform="matrix(.991445 -.130526 .130526 .991445 -35.308 61.3033)"/><path d="m450 140.625v101.875h-12l-18-101.875z" transform="matrix(.991445 .130526 -.130526 .991445 43.0077 -56.1702)"/></g></g><g transform="matrix(.83147 -.55557 .55557 .83147 -90.8324 300.566)"><circle cx="450" cy="140.625" r="20.625"/><circle cx="450" cy="242.5" r="7.5"/><g fill-rule="nonzero"><path d="m450 140.625v101.875h12l18-101.875z" transform="matrix(.991445 -.130526 .130526 .991445 -35.308 61.3033)"/><path d="m450 140.625v101.875h-12l-18-101.875z" transform="matrix(.991445 .130526 -.130526 .991445 43.0077 -56.1702)"/></g></g><g transform="matrix(.980785 -.19509 .19509 .980785 -49.8805 93.5551)"><circle cx="450" cy="140.625" r="20.625"/><circle cx="450" cy="242.5" r="7.5"/><g fill-rule="nonzero"><path d="m450 140.625v101.875h12l18-101.875z" transform="matrix(.991445 -.130526 .130526 .991445 -35.308 61.3033)"/><path d="m450 140.625v101.875h-12l-18-101.875z" transform="matrix(.991445 .130526 -.130526 .991445 43.0077 -56.1702)"/></g></g><g transform="matrix(.980785 .19509 -.19509 .980785 67.1737 -82.0262)"><circle cx="450" cy="140.625" r="20.625"/><circle cx="450" cy="242.5" r="7.5"/><g fill-rule="nonzero"><path d="m450 140.625v101.875h12l18-101.875z" transform="matrix(.991445 -.130526 .130526 .991445 -35.308 61.3033)"/><path d="m450 140.625v101.875h-12l-18-101.875z" transform="matrix(.991445 .130526 -.130526 .991445 43.0077 -56.1702)"/></g></g><g transform="matrix(.83147 .55557 -.55557 .83147 242.51 -199.447)"><circle cx="450" cy="140.625" r="20.625"/><circle cx="450" cy="242.5" r="7.5"/><g fill-rule="nonzero"><path d="m450 140.625v101.875h12l18-101.875z" transform="matrix(.991445 -.130526 .130526 .991445 -35.308 61.3033)"/><path d="m450 140.625v101.875h-12l-18-101.875z" transform="matrix(.991445 .130526 -.130526 .991445 43.0077 -56.1702)"/></g></g><g transform="matrix(.55557 .83147 -.83147 .55557 449.434 -240.832)"><circle cx="450" cy="140.625" r="20.625"/><circle cx="450" cy="242.5" r="7.5"/><g fill-rule="nonzero"><path d="m450 140.625v101.875h12l18-101.875z" transform="matrix(.991445 -.130526 .130526 .991445 -35.308 61.3033)"/><path d="m450 140.625v101.875h-12l-18-101.875z" transform="matrix(.991445 .130526 -.130526 .991445 43.0077 -56.1702)"/></g></g><g transform="matrix(.19509 .980785 -.980785 .19509 656.445 -199.88)"><circle cx="450" cy="140.625" r="20.625"/><circle cx="450" cy="242.5" r="7.5"/><g fill-rule="nonzero"><path d="m450 140.625v101.875h12l18-101.875z" transform="matrix(.991445 -.130526 .130526 .991445 -35.308 61.3033)"/><path d="m450 140.625v101.875h-12l-18-101.875z" transform="matrix(.991445 .130526 -.130526 .991445 43.0077 -56.1702)"/></g></g></g><g fill="#008000" transform="matrix(-.19509 .980785 -.980785 -.19509 832.0262 -82.826)"><circle cx="450" cy="140.625" r="20.625"/><circle cx="450" cy="242.5" r="7.5"/><g fill-rule="nonzero"><path d="m450 140.625v101.875h12l18-101.875z" transform="matrix(.991445 -.130526 .130526 .991445 -35.308 61.3033)"/><path d="m450 140.625v101.875h-12l-18-101.875z" transform="matrix(.991445 .130526 -.130526 .991445 43.0077 -56.1702)"/></g></g><g fill="#008000" transform="matrix(-.55557 .83147 -.83147 -.55557 949.4475 92.51)"><circle cx="450" cy="140.625" r="20.625"/><circle cx="450" cy="242.5" r="7.5"/><g fill-rule="nonzero"><path d="m450 140.625v101.875h12l18-101.875z" transform="matrix(.991445 -.130526 .130526 .991445 -35.308 61.3033)"/><path d="m450 140.625v101.875h-12l-18-101.875z" transform="matrix(.991445 .130526 -.130526 .991445 43.0077 -56.1702)"/></g></g><g fill="#008000" transform="matrix(-.83147 .55557 -.55557 -.83147 990.8324 299.434)"><circle cx="450" cy="140.625" r="20.625"/><circle cx="450" cy="242.5" r="7.5"/><g fill-rule="nonzero"><path d="m450 140.625v101.875h12l18-101.875z" transform="matrix(.991445 -.130526 .130526 .991445 -35.308 61.3033)"/><path d="m450 140.625v101.875h-12l-18-101.875z" transform="matrix(.991445 .130526 -.130526 .991445 43.0077 -56.1702)"/></g></g><g fill="#008000" transform="matrix(-.980785 .19509 -.19509 -.980785 949.8805 506.4449)"><circle cx="450" cy="140.625" r="20.625"/><circle cx="450" cy="242.5" r="7.5"/><g fill-rule="nonzero"><path d="m450 140.625v101.875h12l18-101.875z" transform="matrix(.991445 -.130526 .130526 .991445 -35.308 61.3033)"/><path d="m450 140.625v101.875h-12l-18-101.875z" transform="matrix(.991445 .130526 -.130526 .991445 43.0077 -56.1702)"/></g></g><g fill="#008000" transform="matrix(-.980785 -.19509 .19509 -.980785 832.8263 682.0262)"><circle cx="450" cy="140.625" r="20.625"/><circle cx="450" cy="242.5" r="7.5"/><g fill-rule="nonzero"><path d="m450 140.625v101.875h12l18-101.875z" transform="matrix(.991445 -.130526 .130526 .991445 -35.308 61.3033)"/><path d="m450 140.625v101.875h-12l-18-101.875z" transform="matrix(.991445 .130526 -.130526 .991445 43.0077 -56.1702)"/></g></g><g fill="#008000" transform="matrix(-.83147 -.55557 .55557 -.83147 657.49 799.447)"><circle cx="450" cy="140.625" r="20.625"/><circle cx="450" cy="242.5" r="7.5"/><g fill-rule="nonzero"><path d="m450 140.625v101.875h12l18-101.875z" transform="matrix(.991445 -.130526 .130526 .991445 -35.308 61.3033)"/><path d="m450 140.625v101.875h-12l-18-101.875z" transform="matrix(.991445 .130526 -.130526 .991445 43.0077 -56.1702)"/></g></g><g fill="#008000" transform="matrix(-.55557 -.83147 .83147 -.55557 450.566 840.832)"><circle cx="450" cy="140.625" r="20.625"/><circle cx="450" cy="242.5" r="7.5"/><g fill-rule="nonzero"><path d="m450 140.625v101.875h12l18-101.875z" transform="matrix(.991445 -.130526 .130526 .991445 -35.308 61.3033)"/><path d="m450 140.625v101.875h-12l-18-101.875z" transform="matrix(.991445 .130526 -.130526 .991445 43.0077 -56.1702)"/></g></g><g fill="#008000" transform="matrix(-.19509 -.980785 .980785 -.19509 243.555 799.88)"><circle cx="450" cy="140.625" r="20.625"/><circle cx="450" cy="242.5" r="7.5"/><g fill-rule="nonzero"><path d="m450 140.625v101.875h12l18-101.875z" transform="matrix(.991445 -.130526 .130526 .991445 -35.308 61.3033)"/><path d="m450 140.625v101.875h-12l-18-101.875z" transform="matrix(.991445 .130526 -.130526 .991445 43.0077 -56.1702)"/></g></g></svg>