<svg clip-rule="evenodd" fill-rule="evenodd" viewBox="0 0 412 616" xmlns="http://www.w3.org/2000/svg"><g transform="matrix(22.681 0 0 22.681 46.7581 46.7581)"><path d="m4 1h1m2 0h1m1 0h1m-2 1h1m-7 5h1m1 0h8m-10 1h10m-7 1h5m-5 1h5m-5 1h5m-3 1h3m2 4h1m-10 1h1m8 0h1m-11 1h2" fill-rule="nonzero" stroke="#f2b092"/><path d="m10 1h1m-9 1h2m1 0h3m2 0h1m-10 1h2m1 0h5m-8 1h2m1 0h3m-2 17h2m2 0h1" fill-rule="nonzero" stroke="#f3005e"/><path d="m10 3h3m-6 1h5m-8 10h5m1 0h1m-8 2h2m1 0h4m1 0h1m-2 1h1m-6 1h6m-7 1h4m1 0h2m-7 1h3m1 0h2" fill-rule="nonzero" stroke="#6f70ec"/><path d="m13 3h1" fill="none" stroke="#c8c8c8"/><g fill-rule="nonzero"><path d="m12 4h1m-11 17h2m4 0h1m2 0h1m-12 1h3m1 0h2m3 0h1m2 0h2m-12 1h2m4 0h1m2 0h1" stroke="#4f7061"/><path d="m5 5h1m4 0h1m-6 1h2m2 0h3m0 1h1m-1 1h1m-11 1h1m2 3h2m0 1h1" stroke="#c9987a"/><path d="m3 9h2m5 0h2m-9 1h2m5 0h2m-8 1h1m5 0h1" stroke="#f29090"/><path d="m3 13h1m-1 2h2m1 0h4m1 0h1m-6 2h4" stroke="#e1d03a"/><path d="m2 14h1m2 3h1" stroke="#f2901d"/><path d="m2 17h1m4 5h1m2 0h1" stroke="#f0f0f0"/></g><path d="m6 22h1" fill="none" stroke="#90a082"/><path d="m3 0h8m-9 1h2m1 0h2m1 0h1m2 0h1m-11 1h1m2 0h1m4 0h1m1 0h3m-14 1h1m2 0h1m5 0h1m-10 1h1m2 0h1m9 0h1m-13 1h4m1 0h4m1 0h2m-13 1h5m2 0h2m3 0h2m-14 1h2m1 0h1m9 0h1m-14 1h2m11 0h1m-13 1h1m10 0h1m-11 1h1m9 0h1m-10 1h1m7 0h1m-9 1h2m5 0h1m-9 1h1m1 0h3m1 0h3m-10 1h1m1 0h1m5 0h1m1 0h1m-11 1h2m2 0h1m4 0h1m1 0h1m-11 1h1m2 0h1m4 0h1m2 0h1m-13 1h1m2 0h1m6 0h1m1 0h1m-13 1h1m2 0h1m6 0h2m-11 1h2m4 0h1m2 0h1m-9 1h1m3 0h1m2 0h1m-7 1h1m2 0h1m2 0h1m-8 1h1m4 0h1m2 0h1m-8 1h4m1 0h2" fill-rule="nonzero" stroke="#302020"/></g><g fill-rule="nonzero"><path d="m92.828 193.57c.752 5.809 2.956 21.451 2.956 21.451s-17.552 23.7-21.481 24.263c-4.803-16.987-5.094-17.094-5.094-17.094s-3.143.124-8.339 2.21c-3.779-24.786.426.706-3.67-23.905" fill="#010101" transform="matrix(-1.18200205 .18445917 .14313369 .91717628 287.406699 89.046756)"/><path d="m86.564 199.426c6.675 9.152.313-.155 6.891 9.745-.33-.095-.142-.402-9.037-6.644-.129-.091 2.155-3.051 2.146-3.101z" fill="#fff" transform="matrix(-.6936596 .91727608 .79761936 .60316307 109.11762 86.749825)"/><path d="m78.984 208.798c.96-.819 5.255-.733 5.525-.962-1.726 9.58-1.841 9.441-1.841 9.441s-.025-.014-3.684-8.479z" fill="#fff" transform="matrix(-.99624801 .08659489 .08659557 .9962395 283.814023 73.353931)"/><path d="m57.97 211.51c1.73.87 6.587.606 6.587.606s-2.375 6.467-2.237 6.424c-1.57-2.27-2.91-4.69-4.35-7.03z" fill="#fff" transform="matrix(-1.00000404 .00000028 .00000022 .99999551 304.005105 75.666115)"/><path d="m69.063 213.969c1.8-.2 3.687-.058 5.477-.298-2.666 6.411-.127.122-2.768 7.39-2.535-7.083-.149-.401-2.709-7.092z" fill="#fff" transform="matrix(-.99947705 -.03244538 -.03244571 .99946852 310.593132 76.686259)"/><path d="m32.87 82c1.597-.356 4.291.765 6.652.714 3.468 5.873 6.307 10.982 6.307 10.982s3.853.246 11.11.893c-.766 5.633-2.964 31.891-2.964 31.891s-17.462-10.85-18.385-12.01c-5.828.716.004.128-5.67.42-6.537 21.599.156-.142-6.4 22.06 1.434 8.79 5.746 26.041 13.61 31.41 11.014-11.136.009-.067 11.11-11.16-3.238 15.601-.083.625-3.36 15.7-.283.175-14.91 9.03-14.91 9.03s.047.193-5.22-4.08c11.306-4.042-.192.088 11.33-3.98-3.18-1.29-3.445-1.627-8.92-5.33-3.783-9.912-6.037-19.077-8.38-30.63 6.764-25.052.104.328 6.49-24.64 1.23-1.98 3.29-3.15 5.19-4.41-2.19-2.7-4.71-5.11-6.91-7.79 3.729 1.435 9.77 6.33 13.34 8.59-2.66-3.56-13.392-16.353-15.46-20.18 3.527 1.381 11.43 7.65 13.43 10.19-2.15-5.98-8.15-18.18-7.3-17.07 3.28 3.01 5.6 6.85 8.27 10.37-.7-3.74-2.2-7.25-2.96-10.97z" fill="#302020" transform="matrix(-1.19150013 -.10717743 -.09903602 1.10097511 327.368395 72.580789)"/><path d="m32.87 82c1.597-.356 4.291.765 6.652.714 3.468 5.873 6.307 10.982 6.307 10.982s3.853.246 11.11.893c-.766 5.633-2.964 31.891-2.964 31.891s-17.462-10.85-18.385-12.01c-2.491.075-3.042.073-5.67.42-6.263 22.338.11-.26-6.4 22.06 1.434 8.79 3.189 17.32 5.52 25.89 7.859 5.327-.017.011 8.09 5.52 6.871-5.49 7.165-5.462 11.11-11.16-3.102 14.857-.083.625-3.36 15.7-15.041 9.287-14.91 9.03-14.91 9.03s.047.193-5.22-4.08c9.118-2.87 9.1-2.92 11.33-3.98-9.124-6.015-.134-.102-8.92-5.33-3.85-9.402-3.708-9.455-8.38-30.63 6.525-24.505-.235-.765 6.49-24.64 5.106-4.409.165-.108 5.19-4.41-6.818-7.764-.206-.056-6.91-7.79 3.729 1.435 9.77 6.33 13.34 8.59-2.66-3.56-13.392-16.353-15.46-20.18 13.157 10.346.332.103 13.43 10.19-2.15-5.98-8.15-18.18-7.3-17.07 3.28 3.01 5.6 6.85 8.27 10.37-.7-3.74-2.2-7.25-2.96-10.97z" fill="#302020" transform="matrix(1.19150013 -.10717743 .09903602 1.10097511 130.664121 71.900513)"/><path d="m56.69 118.24c1.24.03 2.49.09 3.72.2-10.25 64.694-10.22 64.76-10.11 68.34 11.359.47.1-.024 11.24.43.469-.413 12.86-11.62 12.86-11.62s-.328-3.743-2.45-10.37c-3.073 3.104-2.84 3.127-6.04 7.1 6.986-11.861.106-.154 7.05-11.77 3.537 2.868 3.707 3.019 7.31 6.22 1.62 3.84 1.663 4 13.19 24.8-9.583-11.513-9.43-11.596-13.15-15.76-7.294 7.912-7.292 8.197-18.18 17.33-13.152-.868.037-.228-13.24-.97-3.431-9-3.53-9.16-3.53-9.16s11.04-63.113 11.33-64.77z" fill="#302020" transform="matrix(-1.19415061 .07194825 .06648291 1.10341919 294.087603 63.921592)"/></g><path d="m260.168 207.683h7.823v20.309h-7.823z" fill="#302020" transform="matrix(1.00000358 0 0 1.21578513 4.327016 -39.976591)"/><path d="m260.168 207.683h7.823v20.309h-7.823z" fill="#302020" transform="matrix(1.00000358 0 0 1.1487193 -68.835727 -25.92772)"/></svg>