<svg height="250" width="238" xmlns="http://www.w3.org/2000/svg"><path d="m5.515 135.433c34.495 34.523 68.99 69.045 103.485 103.567l117-129c-5-30.333-10-60.667-15-91-20.333-1.667-40.667-3.333-61-5-14.667 15-29.333 30-44 45-9.333-8.333-18.667-16.667-28-25-17.172 6.189-34.343 12.378-51.515 18.567-6.99 27.622-13.98 55.244-20.97 82.866z" fill="#c00"/><path d="m61.313 55.938-2.282 9.156-9.25.969 7.875 4.718-2.218 9.063 7.093-6.219 7.844 4.656-3.406-8.5 7.094-6.25-9.25.969zm.375 5.5 2 4.906 5.281-.563-4.031 3.532 1.968 4.875-4.531-2.688-4.062 3.594 1.281-5.219-4.469-2.625 5.281-.562zm1 20.218c17.487 16.324 18.477 28.004 13.625 34.313-6.14-5.086-12.053-10.016-19.469-16.094l6.125-7.312-10.656-.094-10.875 12.312 6.656 5.563 4.969-5.969c6.648 5.649 12.396 10.526 18.25 15.5-5.123 2.369-11.725 1.961-16-1.562l-.594-.407c-.42.56-.831 1.096-1.25 1.657-.922-.726-2.309-.815-2.625.625-1.708.06-2.616 1.095-2.938 2.906-3.015 2.426-6.325 4.629-8.062 8.125-.881 3.597 1.442 4.896 3.937 4.344 4.004-2.147 5.038-5.995 7.032-9.282 1.525-.66 2.794-1.46 2.937-2.906l.344.25c7.652 5.911 16.394 5.233 22.719.938 2.297 1.951 4.538 3.846 7 5.937 2.999 2.606 7.603-1.855 4.25-4.875-2.35-1.913-4.506-3.661-6.625-5.406 7.651-9.84 6.387-26.963-18.75-38.563z" fill="#fd0"/><path d="m25.005 111.471c.6-53.792 28.594-70.628 43.839-70.628 21.29 0 30.083 16.253 31.52 23.449 1.436 7.19 9.494 12.941 12.083 1.147 2.591-11.794 27.637-47.758 58.42-47.758 28.192 0 37.956 29.073 37.111 53.801-2.307 67.318-89.028 121.045-100.443 154.97-10.164-20.547-83.247-50.248-82.53-114.981zm155.933-110.471c-25.317 0-55.258 18.698-73.381 49.771-4.89-11.222-22.313-23.451-43.024-23.451-16.689 0-63.533 20.858-63.533 88.178 0 86.88 87.901 104.725 105.671 131.729 1.221 1.857 5.154 3.26 6.655-1.177 14.179-41.845 124.125-89.125 124.125-174.279-.001-47.756-31.197-70.771-56.513-70.771z"/></svg>