<svg height="52pt" viewBox="0 0 64 52" width="64pt" xmlns="http://www.w3.org/2000/svg"><path d="m63.65 0h.35v.29c-3.94 4.64-9.02 8.13-12.99 12.73.43-2.24.77-4.5.74-6.78-2.49-.22-2.04 4.32-2.96 6.18.41-2.14.77-4.29 1.14-6.44-8.58 1.32-17.28.91-25.9 1.81-4.91.5-9.85.56-14.78.5.65 2.35 1.3 4.71 2.03 7.04-.97-2.49-1.71-5.07-2.81-7.5-.15.3-.45.92-.61 1.23.18 3.15 1.07 6.2 1.98 9.21-.71-1.79-1.47-3.55-2.23-5.32-2.89 2.64-6.01 5.23-7.61 8.91v-2.26c2.24-2.66 4.81-5 7.42-7.28-.2-1.54-.34-3.08-.44-4.63 3.77-.04 7.55.47 11.31.05 11.15-1.23 22.44-.93 33.54-2.71.85 1.81.14 3.87.14 5.77 3.97-3.53 7.81-7.18 11.68-10.8z" fill="#4e4543" opacity=".6"/><g fill="#accfc2"><path d="m48.79 12.42c.92-1.86.47-6.4 2.96-6.18.03 2.28-.31 4.54-.74 6.78-.6 2.31-1.28 4.6-1.98 6.88-.23.57-.7 1.72-.93 2.3-1.98 2.65-4.68 4.61-7.73 5.85-5.71 1.59-11.68 1.88-17.53.98-4.03-.49-7.56-2.74-10.28-5.65-.91-1.53-1.76-3.07-2.55-4.66l-.17-.45c-.91-3.01-1.8-6.06-1.98-9.21.16-.31.46-.93.61-1.23 1.1 2.43 1.84 5.01 2.81 7.5 1.57 3.84 3.57 8.26 7.78 9.77 7.13 2.8 15.46 2.69 22.39-.65 4.2-2.54 6.25-7.45 7.34-12.03z"/><path d="m18.2 47.54.76-.07.39.63c-.16.75-.5 2.24-.67 2.99l-.62.25c-.36-.57-1.08-1.71-1.45-2.28.4-.38 1.2-1.14 1.59-1.52z"/><path d="m44.12 49.87c-.26-1.32-.45-2.65-.71-3.96 1.12 1.22 2.25 2.43 3.35 3.67-.45.14-1.34.43-1.79.58z"/></g><path d="m24.03 7.79c8.62-.9 17.32-.49 25.9-1.81-.37 2.15-.73 4.3-1.14 6.44-1.09 4.58-3.14 9.49-7.34 12.03-6.93 3.34-15.26 3.45-22.39.65-4.21-1.51-6.21-5.93-7.78-9.77-.73-2.33-1.38-4.69-2.03-7.04 4.93.06 9.87 0 14.78-.5m17.14.4c-1.54 2.97 3.34.17 0 0m-14.78 2.12c-1.31.67-1.31 1.34 0 2.01 1.32-.67 1.32-1.34 0-2.01m6.77-.25c-.48 1.63.08 2.18 1.71 1.65.49-1.63-.08-2.18-1.71-1.65m-19.8 1.3c-.52 1.64.02 2.22 1.63 1.74.52-1.65-.03-2.22-1.63-1.74m16.73 1.68c-1.55 3.02 3.32.17 0 0m.64 3.64c-1.85-.44-3.59-1.27-5.38-1.9 1.52 1.77 3.69 3.99 6.26 2.98 2.05-.41 3.12-2.26 4-3.96-1.62.96-3.16 2.08-4.88 2.88m13.62-2.47c.51.52.51.52 0 0m-25.91 4.74c-.55 1.65-.01 2.21 1.6 1.7.54-1.65.01-2.21-1.6-1.7m18 .25c.49.54.49.54 0 0m.72 2.4c-1.67 2.91 3.32.3 0 0m-13.14 1.07c-1.35 3.1 3.31-.05 0 0z" fill="#ffbdb8"/><path d="m41.17 8.19c3.34.17-1.54 2.97 0 0z" fill="#b98c88"/><path d="m26.39 10.31c1.32.67 1.32 1.34 0 2.01-1.31-.67-1.31-1.34 0-2.01z" fill="#795a58"/><path d="m33.16 10.06c1.63-.53 2.2.02 1.71 1.65-1.63.53-2.19-.02-1.71-1.65z" fill="#987370"/><path d="m13.36 11.36c1.6-.48 2.15.09 1.63 1.74-1.61.48-2.15-.1-1.63-1.74z" fill="#b88a87"/><path d="m30.09 13.04c3.32.17-1.55 3.02 0 0z" fill="#503b3a"/><path d="m30.73 16.68c1.72-.8 3.26-1.92 4.88-2.88-.88 1.7-1.95 3.55-4 3.96-2.57 1.01-4.74-1.21-6.26-2.98 1.79.63 3.53 1.46 5.38 1.9z" fill="#d39f9b"/><path d="m44.35 14.21c.51.52.51.52 0 0z" fill="#9f7976"/><path d="m10.01 18.72c.79 1.59 1.64 3.13 2.55 4.66-3.65-2.15-8.08-1.19-12.08-1.83 3.42-.55 6.9-.57 10.36-.54-.2-.57-.62-1.72-.83-2.29z" fill="#2e312f" opacity=".61"/><path d="m18.44 18.95c1.61-.51 2.14.05 1.6 1.7-1.61.51-2.15-.05-1.6-1.7z" fill="#c1928e"/><path d="m36.44 19.2c.49.54.49.54 0 0z" fill="#a67c79"/><path d="m48.1 22.2c.23-.58.7-1.73.93-2.3-.23.57-.7 1.72-.93 2.3z" fill="#343e3b" opacity=".61"/><path d="m37.16 21.6c3.32.3-1.67 2.91 0 0z" fill="#9e7874"/><path d="m24.02 22.67c3.31-.05-1.35 3.1 0 0z" fill="#755755"/><path d="m22.84 29.03c5.85.9 11.82.61 17.53-.98-.88.44-1.74.89-2.61 1.34 1.58 5.01 3.56 9.93 4.42 15.14l-.26.55c-1.85-5.08-3.57-10.2-5.16-15.36-4.37.3-8.76.34-13.15.35-1.74 2.81-3.85 5.45-5.02 8.56-.57 2.92.22 5.91.37 8.84l-.76.07c-.27-2.99-1.2-6.02-.66-9.03 1.21-3.43 3.51-6.34 5.3-9.48z" fill="#232625" opacity=".47"/><path d="m41.92 45.08.26-.55c.3.34.92 1.03 1.23 1.38.26 1.31.45 2.64.71 3.96-2.26-.38-2.42-2.97-2.2-4.79z" fill="#3f4a46" opacity=".67"/><path d="m19.35 48.1c1.37.83 1.05 2.95-.67 2.99.17-.75.51-2.24.67-2.99z" fill="#2c3330" opacity=".55"/><path d="m14.95 52c-.29-1.27.8-2.22 1.66-2.94.37.57 1.09 1.71 1.45 2.28l-.54.66z" fill="#62746d" opacity=".85"/></svg>