<svg shape-rendering="crispEdges" viewBox="0 -.5 47 41" xmlns="http://www.w3.org/2000/svg"><path d="m31 0h12m-16 1h4m11 0h1m-19 1h3m14 0h1m-21 1h3m16 0h2m-23 1h2m8 0h1m8 0h1m3 0h1m-26 1h2m11 0h1m6 0h1m5 0h4m-31 1h1m14 0h1m4 0h1m9 0h1m-33 1h2m15 0h2m2 0h1m8 0h2m-34 1h2m12 0h8m1 0h9m-33 1h1m13 0h1m4 0h1m1 0h1m1 0h1m4 0h1m1 0h1m-31 1h1m5 0h3m20 0h1m-30 1h1m5 0h1m6 0h1m16 0h1m-32 1h3m5 0h1m4 0h1m18 0h2m-39 1h5m2 0h1m6 0h5m3 0h1m16 0h1m-41 1h1m5 0h3m10 0h1m2 0h9m9 0h1m-41 1h1m4 0h2m12 0h2m10 0h6m3 0h1m-41 1h1m2 0h3m13 0h4m13 0h4m-39 1h2m14 0h2m4 0h14m-36 1h1m14 0h1m11 0h1m3 0h2m-32 1h2m10 0h2m12 0h2m2 0h1m-30 1h1m7 0h3m10 0h1m4 0h3m-30 1h1m5 0h3m10 0h3m6 0h2m-29 1h2m1 0h1m10 0h4m10 0h1m-28 1h2m8 0h3m1 0h1m12 0h1m-27 1h1m5 0h3m1 0h1m2 0h1m13 0h1m-27 1h1m3 0h2m1 0h1m1 0h1m2 0h1m13 0h1m-26 1h3m2 0h1m1 0h1m3 0h1m14 0h1m-22 1h3m4 0h1m14 0h1m-24 1h1m1 0h1m5 0h1m15 0h1m-26 1h1m1 0h2m6 0h1m15 0h2m-28 1h2m9 0h1m16 0h1m-30 1h1m12 0h3m12 0h3m-32 1h1m9 0h1m6 0h12m-30 1h1m10 0h1m12 0h1m-26 1h2m9 0h3m10 0h2m-28 1h5m5 0h3m3 0h1m8 0h4m-36 1h3m3 0h11m7 0h1m4 0h8m-37 1h14m11 0h14m-37 1h10m20 0h7m-33 1h4m21 0h8m-10 1h6" stroke="#000"/><path d="m31 1h11m-15 1h14m-17 1h16m-19 1h8m1 0h8m1 0h3m-23 1h11m1 0h6m1 0h5m-26 1h14m1 0h4m1 0h9m-30 1h15m2 0h2m1 0h2m2 0h4m-30 1h12m8 0h1m-23 1h13m-13 1h5m3 0h5m-13 1h5m1 0h6m-11 1h5m1 0h4m-10 1h6m-6 1h10m-12 1h12m-13 1h13m-16 1h14m-15 1h14m13 0h3m-28 1h10m16 0h2m-28 1h7m-8 1h5m-3 1h1m1 0h1" stroke="#371b2b"/><path d="m38 7h2m-15 3h1m7 0h2m-10 1h6m1 0h9m-17 1h18m-18 1h3m1 0h9m1 0h2m1 0h3m-39 1h5m14 0h2m9 0h9m-39 1h1m1 0h1m33 0h3m-39 1h1m6 6h4m-6 1h7m-7 1h3m1 0h1m-4 1h2m3 5h1m-3 1h2m15 2h1" stroke="#be7fbd"/><path d="m26 9h4m1 0h1m3 0h4m1 0h1" stroke="#fcbe49"/><path d="m33 9h1m-8 1h7m2 0h5m-9 1h1m-22 2h2m25 0h1m2 0h1m-35 2h1m1 0h1m16 0h10m-29 1h1m20 0h13m-17 1h4m-6 1h11m-12 1h12m-14 1h10m1 0h4m-18 1h10m3 0h6m-18 1h5m4 0h10m-18 1h1m5 0h12m-22 1h1m4 0h1m4 0h13m-23 1h1m4 0h1m4 0h13m-19 1h1m5 0h14m-13 1h14m-22 1h1m7 0h15m-24 1h1m2 0h4m3 0h15m-23 1h1m4 0h3m1 0h16m-26 1h1m6 0h1m5 0h12m-28 1h4m13 1h1m1 0h1m-3 1h2m-31 1h3m3 0h1m29 0h1m-38 1h1m3 0h3m31 0h1m-39 1h1m31 1h1m-3 1h2m-3 1h1" stroke="#675da0"/><path d="m21 23h1m-2 1h2m-2 1h2m-3 1h3" stroke="#fff"/><path d="m16 25h1" stroke="#cf9eff"/><path d="m19 27h4m-5 1h5m-1 1h2" stroke="#a8e0ee"/><path d="m18 30h4m-5 1h6m1 0h2m-9 1h5m1 0h6m-17 1h10m1 0h7m3 0h2m-23 1h9m3 0h6m2 0h2m-21 1h5m7 0h8m-7 1h4" stroke="#7aa1d7"/></svg>