<svg xmlns="http://www.w3.org/2000/svg" width="226pt" height="128pt" viewBox="0 0 226 128"><g fill="#ec1c24"><path d="M148.1 8.13c14.01 3.59 25.37 17.17 24.69 31.91.17 4.42-1.45 8.61-3.65 12.36 1.63 1.56 3.39 3.02 4.79 4.8.64 2.03-1.67 3.09-2.73 4.43-1.94-1.82-3.81-3.69-5.71-5.55-3.64 2.06-7.88 3.36-12.05 2.23-6.01-1.19-11.15-4.69-16.11-8.1.04 1.33.11 2.66.07 3.99-.61.06-1.83.17-2.44.23-1.23 4.11-2.86 8.51-7.2 10.22-.85-2.16-1.25-4.76.28-6.73 1.61-1.82 3.54-3.34 5.3-5.03-.07-.56-.22-1.67-.3-2.23 1.49-1.14 2.91-2.36 4.28-3.65 7.03 3.02 15.01 6.15 22.61 3.17-6.52-6.77-13-13.59-19.31-20.56-1.61 1.98-3.17 4-4.68 6.05a765.36 765.36 0 0 0-4.85-5.05c3.37-4.14 6.61-8.38 9.94-12.54 2.56.35 5.11.77 7.66 1.25-1.99 2.56-4.01 5.09-6.03 7.62 6.98 6.62 13.97 13.23 20.74 20.07 2.7-4.84 2.62-10.68 1.26-15.91-2.48-9.34-8.25-17.91-16.56-22.98zm48.99.01c14.02 3.57 25.38 17.17 24.7 31.91.17 4.41-1.45 8.61-3.65 12.35 1.64 1.56 3.38 3.02 4.79 4.8.64 2.02-1.67 3.09-2.73 4.43-1.93-1.82-3.81-3.69-5.71-5.55-3.63 2.05-7.87 3.36-12.03 2.23-6.03-1.2-11.21-4.69-16.16-8.14.9 2.31-.11 4.08-2.41 4.68-1.28 3.97-2.94 8.17-7.16 9.8-.71-2.14-1.21-4.71.26-6.66 1.61-1.86 3.57-3.38 5.33-5.09l-.24-2.28c1.47-1.13 2.89-2.34 4.24-3.61 7.03 3.02 15.01 6.15 22.61 3.17-6.52-6.77-13-13.59-19.31-20.56-1.61 1.98-3.17 4-4.68 6.05-1.61-1.69-3.22-3.38-4.85-5.05 3.37-4.14 6.61-8.38 9.93-12.54 2.57.35 5.12.77 7.67 1.25-1.99 2.56-4.01 5.09-6.03 7.63 6.99 6.61 13.97 13.22 20.74 20.06 2.56-4.55 2.59-10 1.5-14.98-2.35-9.69-8.2-18.69-16.81-23.9zM15.58 17.6c6.27-3.34 12.21-7.96 19.43-8.96 1.47 2.53 3.67 5.19 2.95 8.31-1.07 3.57-3.31 6.64-5.08 9.87-5.68 9.99-11.93 19.66-17.1 29.92-2.05 4.49-4.57 9.09-4.37 14.18-.16 1.53.42 3.36-.9 4.52-3.86-1.76-8.57-3.2-10.51-7.36v-2.21C2.85 48.02 15.11 33.99 25.19 19.7c-4.54 1.76-9.02 3.68-13.71 5 .28-2.86 1.24-5.86 4.1-7.1zm83.51-7.47c14.02 3.58 25.37 17.17 24.7 31.9.17 4.42-1.45 8.62-3.65 12.37 1.63 1.56 3.39 3.02 4.79 4.8.65 2.02-1.68 3.09-2.73 4.43-1.93-1.82-3.81-3.69-5.72-5.54-9.39 6.09-20.47-.05-28.17-6.04.13 1.1.27 2.2.42 3.29-.94.46-1.88.92-2.83 1.36-1.25 4.02-2.9 8.27-7.14 9.95-.84-2.15-1.25-4.75.26-6.71 1.62-1.83 3.55-3.35 5.31-5.04-.07-.57-.2-1.7-.26-2.27 1.48-1.13 2.89-2.34 4.25-3.62 7.03 3.02 15.01 6.15 22.61 3.17-6.52-6.77-13-13.59-19.31-20.56-1.61 1.98-3.17 4-4.68 6.05a765.36 765.36 0 0 0-4.85-5.05c3.37-4.14 6.61-8.38 9.94-12.55 2.57.36 5.13.78 7.67 1.31-2.01 2.52-4.03 5.04-6.04 7.57 6.99 6.62 13.97 13.23 20.74 20.07 2.55-4.55 2.59-10 1.5-14.99-2.34-9.69-8.21-18.67-16.81-23.9zm-48.75 1.76c7.13 2.3 13.88 6.31 18.38 12.41 6.85 8.92 9.22 22.19 2.77 31.98 1.75 1.69 3.49 3.39 5.21 5.11-.85 1.47-1.79 2.89-2.78 4.27-2.13-1.72-4.05-3.66-5.96-5.62-2.52 1.2-5.11 2.62-8 2.49-7.62.27-14.23-4.2-20.2-8.39.63 2.34-.25 4.12-2.63 4.6-1.05 4-2.8 8.06-6.8 9.89-.63-1.38-1.54-2.82-1.04-4.4.77-3.2 3.98-4.85 6.03-7.17-.21-1.86.48-3.35 2.24-4.04.51-.55 1.52-1.67 2.03-2.23 6.96 3.28 14.98 6.07 22.62 3.4-6.4-6.95-13.04-13.68-19.29-20.76a440.7 440.7 0 0 1-4.6 6.08c-1.64-1.62-3.27-3.24-4.94-4.84 3.37-4.22 6.63-8.52 10.07-12.68 2.56.42 5.13.84 7.69 1.3-2.12 2.5-4.12 5.09-6.18 7.64 7.18 6.43 13.94 13.31 20.96 19.91 3.45-6.88 2.02-14.97-.99-21.73-2.95-7.08-8.13-13.1-14.59-17.22zm-24.5 64.68c16.03-7.03 33.88-7.75 51.12-7.01 30.03.1 60.06.02 90.1.05 6.49.04 13.01-.25 19.46.61 7.89.97 15.98 1.67 23.38 4.76 2.42 1.11 5.34 2.94 5.27 5.95-1.21 3.82-5.87 3.77-9.07 3.01-9.53-2.12-19.29-3.01-29.03-3.2-35.69-.06-71.38.07-107.07-.08-14.94.38-30.5 1.73-43.86 9.02-.18 3.86-5 5.04-8.17 4.86-3.86.23-7.74-3.54-6.3-7.5 2.7-5.57 8.87-8.04 14.17-10.47z"/><path d="M19.12 101.92c19.95-10.24 42.77-12.5 64.87-12.75 35.68 0 71.35-.03 107.03.02 9.05.28 18.28.33 27.04 2.9 2.75.92 6.43 2.39 6.47 5.83-.47 3.44-4.58 4.56-7.55 4.29-7.97-.71-15.94-1.62-23.96-1.51-35.99.1-71.98-.07-107.97.08-21.86 1.02-44.69 3.15-64.05 14.27.21.48.62 1.43.82 1.91-3.15 2.24-6.78 4.33-10.82 3.63-3.81-.01-7.27-4.26-5.32-7.9 2.68-5.33 8.42-8.07 13.44-10.77z"/></g></svg>