<svg height="128pt" viewBox="0 0 128 128" width="128pt" xmlns="http://www.w3.org/2000/svg"><g fill="#382422"><path d="m29.71 3.55c12.57-2.68 25.5-2.45 38.27-2.44 10.42.03 20.95.15 31.17 2.36 2.9.49 4.53 3.19 5.91 5.51 3.95 7.45 5.64 15.82 7.12 24.04.6 3.83 4.91 5.54 5.86 9.26 4.78 14.76 6.48 30.31 7.52 45.72.01 2.83.61 5.78-.16 8.55-3.74 5.77-1.35 13.16-4.46 19.21-2.24-2.09-3.53-4.89-4.61-7.7.4-1.99.78-3.97 1.14-5.96-6.34.42-10.91-4.4-16.45-6.39-6.04-1.62-10.25 3.42-14.89 6.21 2.43 3.28 6.64 3.96 9.76 6.3 6.63 5.3 11.9 12.14 15.76 19.67l.06.11h-2c-5.33-7.87-10.52-17.1-19.9-20.62 3.23 7.26 7.92 13.75 11.87 20.62h-4.86c-3.91-1.39-8.01-2.18-12.16-1.93l1.41 1.93h-1.8a98.57 98.57 0 0 1 -1.94-3.23c5.76-.32 11.42.87 16.99 2.19-2.97-5.64-6.6-10.89-9.56-16.53-1.66-3.25-3.91-6.15-6.51-8.7-.81 1.62-1.44 3.36-1.41 5.21-.23 7.02-.86 14.03-.57 21.06h-1.29c-.3-8.21.23-16.4.21-24.6-4.35 1.38-8.76 2.69-13.33 3.07a43.36 43.36 0 0 1 5.56 8.48c-1.42 1.97-2.7 4.05-3.94 6.14.44 2.31.84 4.62 1.37 6.91h-11.26c.52-2.17.92-4.36 1.33-6.55-1.2-2.09-2.7-4.08-3.33-6.43.62-3.41 3.27-5.96 5.3-8.6-4.74-.38-9.3-1.83-13.81-3.27.03 8.29.54 16.56.3 24.85h-1.36c-.09-8.63.11-17.26-.29-25.88-4.06.85-5.75 4.9-7.7 8.08-3.24 5.79-6.79 11.39-10.12 17.12 5.65-1.33 11.37-2.54 17.21-2.49-.53 1.06-1.07 2.12-1.63 3.17h-1.73c.34-.56 1.02-1.68 1.37-2.24-3.75.25-7.4 1.12-10.98 2.24h-6.44a257.02 257.02 0 0 0 12.3-20.55c-9.34 3.56-14.81 12.61-20.08 20.55h-2.32c4.57-7.59 9.76-15.04 17.04-20.26 3.2-1.72 6.81-2.86 9.09-5.9-4.74-3.48-10.29-8.03-16.56-5.49-4.64 2.58-9.2 5.82-14.78 5.71-.11 4.41-.21 8.87.9 13.17-1.01 2.84-2.4 5.54-4.32 7.87-3.3-7.31-2.49-15.59-2.53-23.39-.71-.95-1.42-1.89-2.14-2.84.2-18.19 2.27-36.54 7.5-54.01.93-4.29 5.94-6.24 6.28-10.75 1.36-7.67 3.05-15.41 6.52-22.44 1.43-2.47 3.04-5.49 6.1-6.12m.45 2.01c-3.28.95-4.39 4.65-5.39 7.52 2.78-2.4 5.39-5.54 9.29-5.98 2.63-.7 5.17.44 7.6 1.3 3.89-2.41 8.52-1.83 12.37.32 5.48-4.37 12.74-2.71 18.63-.2 2.38-1.01 4.74-2.42 7.41-2.37 2.39.25 4.62 1.29 6.98 1.69 3.33-.15 6.6-2.17 9.9-.67-4.32-.29-8.4 3.73-12.52 1.39-3.92-1.78-8.34-.82-11.69 1.67-5.73-3.04-13.73-4.67-18.72.58-1.87-1.13-3.69-2.57-5.93-2.84-2.37-.52-4.28 1.27-6.25 2.25-4.5-2.8-11.06-2.14-14.18 2.4-1.93 2.11-1.74 4.99-1.32 7.6-4.03 2.17-4.94 7.64-1.91 11.07-1.05 2.2-2.32 5-.85 7.31 1.01 1.78 3.37.92 5.04 1.22 1.34 5.17 7.62 4.69 11.42 2.7 2.8 1.47 5.65 3.36 8.95 3.28 1.9-.24 3.54-1.32 5.26-2.09 4.03 3.11 10.25 3.95 14.17.2 4.33 3 10.46 4.29 14.57.18 3.52 1.31 7.74 2.19 10.61-.93 2.76.9 5.69.98 8.44-.02-.36-1.68-.73-3.35-1.08-5.03 1.26-.41 2.76-.39 3.79-1.33.8-3.36-.23-6.72-2.15-9.5 1.26-1.52 3.15-3.07 2.6-5.31-.04-2.56-2.02-4.28-4.09-5.42 1.79-3.72-.3-7.9-4.04-9.36 1.25.23 2.86-.24 3.74.97 3.07 2.68 1.32 7.86 5.22 9.94-1.24-4.43-2.23-9.95-6.54-12.43-10.26-2.47-20.92-2.6-31.42-2.58-12.66.04-25.47-.28-37.91 2.47m-1.5 38.23c-6.12 14.94-9.15 31.16-8.55 47.31 0 1.59.66 4.1 2.74 3.78 1.77-.57 3.07-1.96 4.38-3.2l-2.71-1.51c4.05-2.27 3.13-7.72.08-10.43 3.95-2.51 4.27-7.44 3.25-11.59 1.51-3.26 1.22-6.89-.29-10.09 1.58-2.82 4.07-5.62 3.47-9.1-.16-1.96-1.37-3.56-2.37-5.17m2.6 1.2c.76 2.29 1.86 4.79.94 7.21-.8 2.05-2.04 3.87-3.13 5.77 1.68 3.48 1.12 7.26.26 10.86.83 3.94.17 8.05-2.45 11.21 1.3 2.34 1.8 4.95 2.46 7.51 2.57 3.84 6.17 6.9 9.94 9.53 1.95 1.71 4.35 2.77 6.7 3.83 8.22 3.35 17.38 5.66 26.21 3.43 5.61-1.46 11.49-2.98 16.24-6.42 4.48-2.65 8.18-6.36 11.46-10.35-1.09-2.88-.29-5.83 1.06-8.46-1.35-2.19-3.24-4.34-3.12-7.07-.1-2.16.7-4.21 1.31-6.24-2.5-2.2-1.89-5.31-1.17-8.16-2.19-3.95-3.23-8.45-1.61-12.84-2.3.17-4.36 1.19-6.5 1.91-2.29.21-4.52-.61-6.74-1.06-1.03.78-2.05 1.55-3.07 2.32 3.46-.07 6.93-.13 10.39.11-2.64 3.05-7.48 1.07-11.04 1.48-2.51-2.55-6.73-1.05-9.69-3.04-.15-.33-.45-.99-.6-1.33-2.97 2.43-6.88 3.41-10.6 2.28-1.4-.7-2.8-1.41-4.19-2.12-4.49 3.11-10.09 1.58-14.23-1.32-2.82 1.11-5.84 1.33-8.83.96m67.01-.22c-2.13 4.03-1.68 9.26 1.67 12.49-.57 1.26-1.25 2.49-1.58 3.85-.56 1.94 1.76 2.86 2.73 4.17-.9 2.16-2.03 4.37-1.86 6.8.08 2.66 1.98 4.72 3.32 6.87-.95 2.14-2.35 4.47-1.61 6.9.78 1.7 2.3 2.9 3.52 4.28-.66.4-1.99 1.18-2.65 1.57 1.36 1.49 3.02 2.67 4.82 3.58 1.77-2.4 1.76-5.44 1.77-8.29-.26-12.16-1.95-24.34-5.95-35.87-1-2.33-1.1-5.89-4.18-6.35z"/><path d="m54.11 77.71c3.33.16-1.56 2.98 0 0zm19.08-.02c3.32.28-1.66 2.91 0 0zm-10.44.97c.66.05 2 .13 2.66.18.09 2.13.13 4.27.11 6.4 3.33 2.22 7.18 3.57 11.2 3.72.79-.82 1.59-1.63 2.39-2.43 2.19 1.5.15 3.49-1.29 4.6-4.89.78-9.57-1.56-13.83-3.66-4.49 2.17-9.63 4.95-14.72 3.16-1.83-.53-1.96-2.54-1.58-4.1 4.21 4.35 10.45 1.37 14.76-1.25-.06-2.21.02-4.42.3-6.62zm-13.34 2.66c.5.46.5.46 0 0zm28.94-.11c.5.5.5.5 0 0z"/><path d="m72.78 83.14c1.52-.69 2.11-.18 1.76 1.53-1.53.68-2.12.17-1.76-1.53z"/></g><path d="m30.16 5.56c12.44-2.75 25.25-2.43 37.91-2.47 10.5-.02 21.16.11 31.42 2.58 4.31 2.48 5.3 8 6.54 12.43-3.9-2.08-2.15-7.26-5.22-9.94-.88-1.21-2.49-.74-3.74-.97l-.12-.02c-3.3-1.5-6.57.52-9.9.67-2.36-.4-4.59-1.44-6.98-1.69-2.67-.05-5.03 1.36-7.41 2.37-5.89-2.51-13.15-4.17-18.63.2-3.85-2.15-8.48-2.73-12.37-.32-2.43-.86-4.97-2-7.6-1.3-3.9.44-6.51 3.58-9.29 5.98 1-2.87 2.11-6.57 5.39-7.52zm23.87 77.53c3.33.21-1.59 2.96 0 0zm57.62 44.8c.02.03.06.08.09.11h-.03z" fill="#5a3f3c"/><path d="m41.84 10.22c1.97-.98 3.88-2.77 6.25-2.25 2.24.27 4.06 1.71 5.93 2.84 4.99-5.25 12.99-3.62 18.72-.58 3.35-2.49 7.77-3.45 11.69-1.67 4.12 2.34 8.2-1.68 12.52-1.39l.12.02c3.74 1.46 5.83 5.64 4.04 9.36 2.07 1.14 4.05 2.86 4.09 5.42.55 2.24-1.34 3.79-2.6 5.31 1.92 2.78 2.95 6.14 2.15 9.5-1.03.94-2.53.92-3.79 1.33.35 1.68.72 3.35 1.08 5.03-2.75 1-5.68.92-8.44.02-2.87 3.12-7.09 2.24-10.61.93-4.11 4.11-10.24 2.82-14.57-.18-3.92 3.75-10.14 2.91-14.17-.2-1.72.77-3.36 1.85-5.26 2.09-3.3.08-6.15-1.81-8.95-3.28-3.8 1.99-10.08 2.47-11.42-2.7-1.67-.3-4.03.56-5.04-1.22-1.47-2.31-.2-5.11.85-7.31-3.03-3.43-2.12-8.9 1.91-11.07-.42-2.61-.61-5.49 1.32-7.6 3.12-4.54 9.68-5.2 14.18-2.4m16.91 9.87c-4.69.25-9.4-.02-14.08.38 3.13 3.07 6.97 5.26 10.43 7.92-1.17 4.34-3.25 8.39-4.11 12.82 4.67-1.71 8.84-4.48 13.24-6.73 4.58 2.01 8.59 5.45 13.55 6.46-1.38-4.14-2.88-8.24-4.45-12.31 3.45-2.74 7.14-5.16 10.58-7.9-4.58-.92-9.28-.35-13.92-.54-1.72-3.76-3.5-7.51-5.6-11.09-2.44 3.35-4.03 7.2-5.64 10.99zm-30.09 23.7c1 1.61 2.21 3.21 2.37 5.17.6 3.48-1.89 6.28-3.47 9.1 1.51 3.2 1.8 6.83.29 10.09 1.02 4.15.7 9.08-3.25 11.59 3.05 2.71 3.97 8.16-.08 10.43l2.71 1.51c-1.31 1.24-2.61 2.63-4.38 3.2-2.08.32-2.74-2.19-2.74-3.78-.6-16.15 2.43-32.37 8.55-47.31zm69.61.98c3.08.46 3.18 4.02 4.18 6.35 4 11.53 5.69 23.71 5.95 35.87-.01 2.85 0 5.89-1.77 8.29-1.8-.91-3.46-2.09-4.82-3.58.66-.39 1.99-1.17 2.65-1.57-1.22-1.38-2.74-2.58-3.52-4.28-.74-2.43.66-4.76 1.61-6.9-1.34-2.15-3.24-4.21-3.32-6.87-.17-2.43.96-4.64 1.86-6.8-.97-1.31-3.29-2.23-2.73-4.17.33-1.36 1.01-2.59 1.58-3.85-3.35-3.23-3.8-8.46-1.67-12.49zm-52.41 7.82.5-.33 3.61 2.77c-2.33.08-5.16.08-6.48 2.41-2.62 3.26.49 8.63 4.6 8.14 1.26.26 3.34-.77 3.57 1.23-2.77.11-5.55.17-8.32.29-1.72-2.29-3.87-4.86-3.14-7.97.32-3.18 3.24-4.96 5.66-6.54zm33.44 7.47c-.03-3.45 2.83-5.88 5.73-7.17 1.69-.5 2.83 1.24 4.06 2.05-2.32.22-5.27.2-6.49 2.64-1.71 2.35-.72 5.76 1.69 7.2 2.14 1.57 4.87.64 7.24.34-.18.42-.56 1.26-.75 1.69-2.59.26-5.21.18-7.81.29l-.24-.29c-1.58-1.98-3.78-3.95-3.43-6.75z" fill="#a18562"/><path d="m58.75 20.09c1.61-3.79 3.2-7.64 5.64-10.99 2.1 3.58 3.88 7.33 5.6 11.09 4.64.19 9.34-.38 13.92.54-3.44 2.74-7.13 5.16-10.58 7.9 1.57 4.07 3.07 8.17 4.45 12.31-4.96-1.01-8.97-4.45-13.55-6.46-4.4 2.25-8.57 5.02-13.24 6.73.86-4.43 2.94-8.48 4.11-12.82-3.46-2.66-7.3-4.85-10.43-7.92 4.68-.4 9.39-.13 14.08-.38m.16 1.57c-3.52-.04-7.05-.1-10.57.08 2.4 2.58 5.81 3.89 8.47 6.19-1.1 3.86-2.76 7.53-3.89 11.38 3.64-2.4 7.53-4.37 11.35-6.44 3.83 1.98 7.49 4.26 11.39 6.11-1.14-3.72-2.86-7.23-3.95-10.97 2.68-2.13 5.85-3.7 8.02-6.42-3.41.02-6.81.12-10.21-.11-.14-.2-.43-.6-.58-.81a.417.417 0 0 1 -.08-.06c-1.69-3.08-3.19-6.27-4.35-9.59-2 3.48-3.26 7.35-5.6 10.64zm-19.37 26.34c3.26-.15 6.52-.1 9.79-.09l-.04 1.57c-2.97-.02-6 .34-8.93-.24-.2-.31-.61-.93-.82-1.24zm-.52 3.67c3.85-.73 8.4-1.15 11.39 1.95 3.72 3.77 2.13 9.46 1.43 14.09-5.47-.11-10.95.21-16.41-.1-.52-3.87-.62-7.85.72-11.57-1.47-1.25-2.38-2.79-1.57-4.77.91.96 1.74 1.99 2.57 3.02l-.36-3.48 1.31 2.35c.23-.37.69-1.12.92-1.49m.44 2.83c-3.08 3.35-3.09 8.37-2.25 12.59 2.05-.02 4.09-.02 6.13.01 2.77-.12 5.55-.18 8.32-.29-.23-2-2.31-.97-3.57-1.23-4.11.49-7.22-4.88-4.6-8.14 1.32-2.33 4.15-2.33 6.48-2.41l-3.61-2.77-.5.33c-2.29-.4-4.83.08-6.4 1.91m6.13 5.46c.3.63.9 1.88 1.21 2.5 1.22.01 2.44-.01 3.67-.04.1-1.27.94-3.63-.86-4.05-1.62-.9-3.02.48-4.02 1.59zm33.18-7.23c2.89-2.34 6.69-1.64 10.08-1.21l.56 1.8c.43-.58 1.28-1.75 1.71-2.33-.23.9-.69 2.72-.91 3.63 1.43-.69 2.37-1.83 2.82-3.43.53 1.78.52 3.58-1.1 4.82 1.28 3.76 1.29 7.75.71 11.64-5.38.06-10.77.18-16.14-.11-1.58-4.8-2.58-11.54 2.27-14.81m-.68 2.34c-2.68 3.22-1.64 7.67-1.24 11.45 1.93.38 3.92.55 5.88.29l.24.29c2.6-.11 5.22-.03 7.81-.29.19-.43.57-1.27.75-1.69-2.37.3-5.1 1.23-7.24-.34-2.41-1.44-3.4-4.85-1.69-7.2 1.22-2.44 4.17-2.42 6.49-2.64-1.23-.81-2.37-2.55-4.06-2.05l.83-.46c-2.8-.19-5.91.32-7.77 2.64m7.34 3.45c0 1.28.04 2.56.11 3.84 1.24.07 2.48.12 3.72.15.31-.66.93-1.97 1.24-2.63-1.21-1.78-3.16-1.95-5.07-1.36zm-30.8 10.05c6.28.01 12.57-.01 18.85.01-.26 4.7-3.6 8.87-8.07 10.26-.66-.05-2-.13-2.66-.18-4.6-.99-7.87-5.5-8.12-10.09z" fill="#010101"/><path d="m58.91 21.66c2.34-3.29 3.6-7.16 5.6-10.64 1.16 3.32 2.66 6.51 4.35 9.59-1.8-1.03-3.65-1.98-5.5-2.9 2.74 3.03 5.41 6.48 4.82 10.86-1.78-1.55-3.51-3.15-5.24-4.77.51-1.05 1-2.1 1.5-3.16-2.89-.14-4.92 1.87-6.82 3.73 1.28.98 2.81 1.16 4.36 1.02 1.41 1.54 2.76 3.12 4.09 4.73-2.12-.61-4.22-1.27-6.32-1.96-1.52 1.69-3.4 3.31-3.4 5.8 1.36-1.05 2.69-2.16 4.01-3.27 3.39 1.36 7.02 1.83 10.58 2.52-.62-3.94 1.14-8.21-1.42-11.73 3.4.23 6.8.13 10.21.11-2.17 2.72-5.34 4.29-8.02 6.42 1.09 3.74 2.81 7.25 3.95 10.97-3.9-1.85-7.56-4.13-11.39-6.11-3.82 2.07-7.71 4.04-11.35 6.44 1.13-3.85 2.79-7.52 3.89-11.38-2.66-2.3-6.07-3.61-8.47-6.19 3.52-.18 7.05-.12 10.57-.08z" fill="#ffbf2d"/><path d="m63.36 17.71c1.85.92 3.7 1.87 5.5 2.9.02.02.06.05.08.06.15.21.44.61.58.81 2.56 3.52.8 7.79 1.42 11.73-3.56-.69-7.19-1.16-10.58-2.52-1.32 1.11-2.65 2.22-4.01 3.27 0-2.49 1.88-4.11 3.4-5.8 2.1.69 4.2 1.35 6.32 1.96-1.33-1.61-2.68-3.19-4.09-4.73-1.55.14-3.08-.04-4.36-1.02 1.9-1.86 3.93-3.87 6.82-3.73-.5 1.06-.99 2.11-1.5 3.16 1.73 1.62 3.46 3.22 5.24 4.77.59-4.38-2.08-7.83-4.82-10.86zm-32.1 27.28c2.99.37 6.01.15 8.83-.96 4.14 2.9 9.74 4.43 14.23 1.32 1.39.71 2.79 1.42 4.19 2.12-.04 6.27-1.72 12.34-2.32 18.56-7.9 3.59-15.57 7.76-22.57 12.92.34 6.41 2.22 12.7 5.66 18.13-3.77-2.63-7.37-5.69-9.94-9.53-.66-2.56-1.16-5.17-2.46-7.51 2.62-3.16 3.28-7.27 2.45-11.21.86-3.6 1.42-7.38-.26-10.86 1.09-1.9 2.33-3.72 3.13-5.77.92-2.42-.18-4.92-.94-7.21m8.28 3.01c.21.31.62.93.82 1.24 2.93.58 5.96.22 8.93.24l.04-1.57c-3.27-.01-6.53-.06-9.79.09m-.52 3.67c-.23.37-.69 1.12-.92 1.49l-1.31-2.35.36 3.48c-.83-1.03-1.66-2.06-2.57-3.02-.81 1.98.1 3.52 1.57 4.77-1.34 3.72-1.24 7.7-.72 11.57 5.46.31 10.94-.01 16.41.1.7-4.63 2.29-10.32-1.43-14.09-2.99-3.1-7.54-2.68-11.39-1.95zm50.84-4.96c2.14-.72 4.2-1.74 6.5-1.91-1.62 4.39-.58 8.89 1.61 12.84-.72 2.85-1.33 5.96 1.17 8.16-.61 2.03-1.41 4.08-1.31 6.24-.12 2.73 1.77 4.88 3.12 7.07-1.35 2.63-2.15 5.58-1.06 8.46-3.28 3.99-6.98 7.7-11.46 10.35 3.49-5.75 5.78-12.23 6.04-18.98-7.18-5.31-15.08-9.52-23.13-13.34-1.17-6.31-.23-12.81-1.63-19.08 2.96 1.99 7.18.49 9.69 3.04 3.56-.41 8.4 1.57 11.04-1.48-3.46-.24-6.93-.18-10.39-.11 1.02-.77 2.04-1.54 3.07-2.32 2.22.45 4.45 1.27 6.74 1.06m-11.09 6.02c-4.85 3.27-3.85 10.01-2.27 14.81 5.37.29 10.76.17 16.14.11.58-3.89.57-7.88-.71-11.64 1.62-1.24 1.63-3.04 1.1-4.82-.45 1.6-1.39 2.74-2.82 3.43.22-.91.68-2.73.91-3.63-.43.58-1.28 1.75-1.71 2.33l-.56-1.8c-3.39-.43-7.19-1.13-10.08 1.21z" fill="#d52c3c"/><path d="m58.51 47.47c3.72 1.13 7.63.15 10.6-2.28.15.34.45 1 .6 1.33 1.4 6.27.46 12.77 1.63 19.08 8.05 3.82 15.95 8.03 23.13 13.34-.26 6.75-2.55 13.23-6.04 18.98-4.75 3.44-10.63 4.96-16.24 6.42-8.83 2.23-17.99-.08-26.21-3.43-2.35-1.06-4.75-2.12-6.7-3.83-3.44-5.43-5.32-11.72-5.66-18.13 7-5.16 14.67-9.33 22.57-12.92.6-6.22 2.28-12.29 2.32-18.56m-3.88 21.1c.25 4.59 3.52 9.1 8.12 10.09-.28 2.2-.36 4.41-.3 6.62-4.31 2.62-10.55 5.6-14.76 1.25-.38 1.56-.25 3.57 1.58 4.1 5.09 1.79 10.23-.99 14.72-3.16 4.26 2.1 8.94 4.44 13.83 3.66 1.44-1.11 3.48-3.1 1.29-4.6-.8.8-1.6 1.61-2.39 2.43-4.02-.15-7.87-1.5-11.2-3.72.02-2.13-.02-4.27-.11-6.4 4.47-1.39 7.81-5.56 8.07-10.26-6.28-.02-12.57 0-18.85-.01m-.52 9.14c-1.56 2.98 3.33.16 0 0m19.08-.02c-1.66 2.91 3.32.28 0 0m-23.78 3.63c.5.46.5.46 0 0m28.94-.11c.5.5.5.5 0 0m-24.32 1.88c-1.59 2.96 3.33.21 0 0m18.75.05c-.36 1.7.23 2.21 1.76 1.53.35-1.71-.24-2.22-1.76-1.53z" fill="#ffe788"/><path d="m78.09 55.07c1.86-2.32 4.97-2.83 7.77-2.64l-.83.46c-2.9 1.29-5.76 3.72-5.73 7.17-.35 2.8 1.85 4.77 3.43 6.75-1.96.26-3.95.09-5.88-.29-.4-3.78-1.44-8.23 1.24-11.45zm-38.63-.57c1.57-1.83 4.11-2.31 6.4-1.91-2.42 1.58-5.34 3.36-5.66 6.54-.73 3.11 1.42 5.68 3.14 7.97-2.04-.03-4.08-.03-6.13-.01-.84-4.22-.83-9.24 2.25-12.59zm6.13 5.46c1-1.11 2.4-2.49 4.02-1.59 1.8.42.96 2.78.86 4.05-1.23.03-2.45.05-3.67.04-.31-.62-.91-1.87-1.21-2.5zm39.84-1.44c1.91-.59 3.86-.42 5.07 1.36-.31.66-.93 1.97-1.24 2.63-1.24-.03-2.48-.08-3.72-.15-.07-1.28-.11-2.56-.11-3.84z" fill="#fbfbfb"/><g fill="#6d1516"><path d="m39.03 110.2c1.95-3.18 3.64-7.23 7.7-8.08.4 8.62.2 17.25.29 25.88h-2.53c.56-1.05 1.1-2.11 1.63-3.17-5.84-.05-11.56 1.16-17.21 2.49 3.33-5.73 6.88-11.33 10.12-17.12zm42.81-3.26c-.03-1.85.6-3.59 1.41-5.21 2.6 2.55 4.85 5.45 6.51 8.7 2.96 5.64 6.59 10.89 9.56 16.53-5.57-1.32-11.23-2.51-16.99-2.19a98.57 98.57 0 0 0 1.94 3.23h-3c-.29-7.03.34-14.04.57-21.06zm-62.91 21.06c5.27-7.94 10.74-16.99 20.08-20.55a257.02 257.02 0 0 1 -12.3 20.55zm70.88-20.62c9.38 3.52 14.57 12.75 19.9 20.62h-8.03c-3.95-6.87-8.64-13.36-11.87-20.62z"/><path d="m33.15 128c3.58-1.12 7.23-1.99 10.98-2.24-.35.56-1.03 1.68-1.37 2.24zm51.51-1.93c4.15-.25 8.25.54 12.16 1.93h-10.75z"/></g><path d="m48.38 128c.24-8.29-.27-16.56-.3-24.85 4.51 1.44 9.07 2.89 13.81 3.27-2.03 2.64-4.68 5.19-5.3 8.6.63 2.35 2.13 4.34 3.33 6.43-.41 2.19-.81 4.38-1.33 6.55zm18.48-21.53c4.57-.38 8.98-1.69 13.33-3.07.02 8.2-.51 16.39-.21 24.6h-10.13c-.53-2.29-.93-4.6-1.37-6.91 1.24-2.09 2.52-4.17 3.94-6.14a43.36 43.36 0 0 0 -5.56-8.48z" fill="#fff1b7"/></svg>