<svg xmlns="http://www.w3.org/2000/svg" width="72" height="62"><path fill="#b22334" d="M70.89 14c-1.386-2.382-3.936-4-6.89-4H36v4zM0 50h72v4H0zm36-16h36v4H36zm0-8h36v4H36zM0 42h72v4H0zm8 20h56c2.954 0 5.504-1.618 6.89-4H1.11c1.386 2.382 3.936 4 6.89 4zm28-44h36v4H36z"/><path fill="#eee" d="M.136 55.358c.034.186.072.372.118.554.052.202.116.396.184.592a8.34 8.34 0 0 0 .666 1.486l.006.01h69.78l.004-.008a8.44 8.44 0 0 0 .664-1.482c.068-.198.134-.396.186-.602a8.12 8.12 0 0 0 .118-.55A7.39 7.39 0 0 0 72 54H0c0 .466.056.916.136 1.358zM0 46h72v4H0zm0-8v4h72v-4H36zm36-8h36v4H36zm0-8h36v4H36zM0 18zm1.11-4l-.006.01zm-.854 2.088c.05-.204.12-.398.184-.594a7.56 7.56 0 0 0-.184.594zM36 18h36a7.43 7.43 0 0 0-.138-1.36 7.212 7.212 0 0 0-.118-.548 7.559 7.559 0 0 0-.188-.604 8.42 8.42 0 0 0-.664-1.48c.002-.002 0-.006-.002-.008H36z"/><path fill="#3c3b6e" d="M36 10H8a8 8 0 0 0-8 8v20h36z"/><path fill="#fff" d="M4.002 15.452l1.236.898-.472 1.45L6 16.904l1.236.896-.472-1.45L8 15.452H6.472L6 14l-.47 1.452zm4 4l1.236.898-.472 1.45L10 20.904l1.236.896-.472-1.45L12 19.452h-1.528L10 18l-.47 1.452zm8 0l1.236.898-.472 1.45L18 20.904l1.236.896-.472-1.45L20 19.452h-1.528L18 18l-.47 1.452zm8 0l1.236.898-.472 1.45L26 20.904l1.236.896-.472-1.45L28 19.452h-1.528L26 18l-.47 1.452zm-16 8l1.236.898-.472 1.45L10 28.904l1.236.896-.472-1.45L12 27.452h-1.528L10 26l-.47 1.452zm8 0l1.236.898-.472 1.45L18 28.904l1.236.896-.472-1.45L20 27.452h-1.528L18 26l-.47 1.452zm8 0l1.236.898-.472 1.45L26 28.904l1.236.896-.472-1.45L28 27.452h-1.528L26 26l-.47 1.452zm-12-12l1.236.898-.472 1.45L14 16.904l1.236.896-.472-1.45L16 15.452h-1.528L14 14l-.47 1.452zm8 0l1.236.898-.472 1.45L22 16.904l1.236.896-.472-1.45L24 15.452h-1.528L22 14l-.47 1.452zm8 0l1.236.898-.472 1.45L30 16.904l1.236.896-.472-1.45L32 15.452h-1.528L30 14l-.47 1.452zm-24 8l1.236.898-.472 1.45L6 24.904l1.236.896-.472-1.45L8 23.452H6.472L6 22l-.47 1.452zm8.764 2.348L14 24.904l1.236.896-.472-1.45L16 23.452h-1.528L14 22l-.47 1.452h-1.528l1.236.898zm7.236-2.348l1.236.898-.472 1.45L22 24.904l1.236.896-.472-1.45L24 23.452h-1.528L22 22l-.47 1.452zm8 0l1.236.898-.472 1.45L30 24.904l1.236.896-.472-1.45L32 23.452h-1.528L30 22l-.47 1.452zm-24 8l1.236.898-.472 1.45L6 32.904l1.236.896-.472-1.45L8 31.452H6.472L6 30l-.47 1.452zm8.764 2.348L14 32.904l1.236.896-.472-1.45L16 31.452h-1.528L14 30l-.47 1.452h-1.528l1.236.898zm7.236-2.348l1.236.898-.472 1.45L22 32.904l1.236.896-.472-1.45L24 31.452h-1.528L22 30l-.47 1.452zm8 0l1.236.898-.472 1.45L30 32.904l1.236.896-.472-1.45L32 31.452h-1.528L30 30l-.47 1.452z"/><path fill="#f4900c" d="M72 20.054c0-2.176-.387-4.263-1.098-6.194-.485 5.689-3.518 8.611-6.687 7.25-2.969-1.275-.968-6.246-.82-8.618.249-4.021-.013-8.623-7.317-12.45 3.035 5.806.352 9.413-2.463 9.633-3.122.243-5.982-2.684-4.926-7.434-3.418 2.519-3.518 6.758-2.463 9.5 1.1 2.859-.044 5.234-2.727 5.498-2.998.296-4.663-3.21-3.127-8.796a17.872 17.872 0 0 0-4.263 11.611C36.109 29.966 44.143 38 54.054 38 63.966 38 72 29.966 72 20.054z"/><path fill="#ffcc4d" d="M65.027 25.332c.156 3.255-2.704 4.531-4.243 3.915-2.223-.89-1.627-2.419-2.199-5.585-.572-3.167-2.771-5.366-6.025-6.334 2.375 6.685-1.317 9.149-3.252 9.589-1.976.45-3.961-.001-4.188-4.23a12.627 12.627 0 0 0-3.733 8.979c0 .389.024.771.058 1.151A17.88 17.88 0 0 0 54.054 38a17.88 17.88 0 0 0 12.61-5.183c.034-.38.058-.762.058-1.151 0-2.308-.617-4.471-1.695-6.334z"/></svg>