<svg xmlns="http://www.w3.org/2000/svg" width="96" height="96" viewBox="0 0 72 72"><path fill="#78b159" d="M.18 23.99C-.3 12.57 10.75 2.45 22.09 4.04c5.55.49 10.41 3.72 13.91 7.92 6.2-8.34 18.86-10.73 27.33-4.45C47.51 23.1 31.74 38.75 16.24 54.66 8.07 46.35.91 35.96.18 23.99m11.2-9.59c-1.66 1.41-3.92 1.78-5.9 2.58.49 3.02 3.9 3.01 5.84 4.66 1.27 1.97 2.31 4.08 3.52 6.09.66-1.66 1.24-3.35 2.03-4.95 1.27-3.02 6.2-2.12 6.64-5.81-1.81-.67-3.7-1.15-5.37-2.13-2.06-1.44-1.64-5.22-4.11-5.95-.93 1.81-1.51 3.81-2.65 5.51z"/><path fill="#2d343a" d="M16.24 54.66C31.74 38.75 47.51 23.1 63.33 7.51l.17-.17c3.73 4.52 7.67 9.46 7.78 15.62-.07 8.58-3.92 16.66-8.91 23.47-4.45-2.14-4.56-7.73-7.19-11.38-1.43 3.24-1.99 6.98-4.25 9.79-2.33 1.91-5.35 2.61-7.98 3.98-.01.34-.01 1.01-.01 1.34 3.52 1.82 8.32 2.62 9.76 6.87-5.07 4.16-10.37 8.4-16.69 10.46-7.63-2.43-13.52-8.1-19.77-12.83z"/><path fill="#fff" d="M11.38 14.4c1.14-1.7 1.72-3.7 2.65-5.51 2.47.73 2.05 4.51 4.11 5.95 1.67.98 3.56 1.46 5.37 2.13-.44 3.69-5.37 2.79-6.64 5.81-.79 1.6-1.37 3.29-2.03 4.95-1.21-2.01-2.25-4.12-3.52-6.09-1.94-1.65-5.35-1.64-5.84-4.66 1.98-.8 4.24-1.17 5.9-2.58zM50.93 44.84c2.26-2.81 2.82-6.55 4.25-9.79 2.63 3.65 2.74 9.24 7.19 11.38 1.86.86 3.81 1.49 5.74 2.15v1.83c-2.56.9-5.21 1.7-7.48 3.23-3.37 2.42-2.27 7.77-5.72 10-.76-2.2-1.41-4.43-2.21-6.61-1.44-4.25-6.24-5.05-9.76-6.87 0-.33 0-1 .01-1.34 2.63-1.37 5.65-2.07 7.98-3.98z"/></svg>