<svg height="524" width="800" xmlns="http://www.w3.org/2000/svg"><g fill="#e80000" fill-rule="evenodd"><path d="m550.246 18.238c113.362 60.418 126.93 180.415 93.237 258.159-9.767-20.637-17.972-49.989-31.72-58.856 32.404-92.504-18.776-143.824-61.517-199.303z"/><path d="m471.811 144.792 23.838 43.195c88.235 39.698 112.577 102.064 98.429 178.085l19.993 38.648c50.249-90.573 21.225-216.9-142.26-259.928zm66.132 234.92 39.986-21.976 32.297 59.109c-90.853 138.121-222.363 82.207-279.136 54.562l18.068-32.923c95.705 47.054 160.594 26.744 207.24-20.882z"/><path d="m576.391 277.408c5.69 16.092 15.082 26.71 9.228 59.867-105.843 71.572-173.607 37.668-203.777 25.008 5.802-7.915 8.562-13.988 19.993-39.406 55.938 7.725 112.555 8.548 174.556-45.469zm-158.408-100.03 22.3 39.406-117.652 247.045c-67.981-71.518-73.467-129.178-59.98-182.632 3.845-3.014 7.69-4.802 11.535-3.789l24.607 29.555c-4.528 34.269 3.623 56.043 15.38 74.265z"/><path d="m347.238 291.807c-23.833-19.63-44.536-45.943-56.135-91.695l-16.148 18.187c-30.186 20.208-86.124 40.417-129.187 60.625l19.224 37.132c14.444 7.444 62.559-35.282 96.89-42.437 13.16-7.248 24.217-8.795 29.221 6.063l32.297 43.195c12.918 12.507 16.393-18.411 23.838-31.07zm-43.831-81.086 10.765 25.008c8.079 10.88 13.055 2.982 19.225-3.79 12.303-16.671 31.784-30.311 58.441-40.92 6.665 3.388 13.33-16 19.994-27.282-2.154-6.77-6.6-12.41-16.918-15.156-56.607 17.855-69.951 40.447-91.507 62.14z"/><path d="m534.867 279.682-90.739-162.929c-6.007-6.944-2.146-12.5 6.152-17.43l45.37-21.976c10.815-4.8 16.542-9.599-3.077-14.398l-60.748-12.125-94.584 50.773 23.838 43.953 29.99-15.156c12.997-6.63 14.509.322 17.687 5.304l88.431 163.687c3.982 8.286 9.354 8.348 15.38 4.546l22.3-9.851c5.951-3.626 4.24-8.763 0-14.398z"/></g></svg>