<svg xmlns="http://www.w3.org/2000/svg" width="128pt" height="128pt" viewBox="0 0 128 128"><path fill="#cc0001" d="M56 25.06c3.55-7.43 1.03-16.67 5.8-23.65 2.38 4.72 2.56 10.13 4.7 14.92 1.45 4.21 2.49 8.54 3.5 12.87 2.2.04 4.41.01 6.61-.01 3.97 2.58 8.13 4.88 12.58 6.52 3.51 1.24 4.98 5.08 7.94 7.09 3.1 1.97 4.86 5.25 7.36 7.83 7.76 1.44 14.65-3.48 22.24-3.61.07 1.28.13 2.57.18 3.86-3.44 1.9-7.37 3.14-10.13 6.08-2.06 2.21-4.53 3.97-7.17 5.43-.06 7 .7 14.06-.36 21.03.96 4.53-2.23 8.17-3.02 12.41-.45 4.14-4.6 6.26-6.28 9.84.4 2.14.57 4.31.72 6.48.64 5.2 3.37 9.98 3.15 15.31-4.06.55-5.93-3.35-8.56-5.57-.38-1.6-.79-3.19-1.21-4.78-1.48-.95-2.85-2.06-4.07-3.34-4.38 2.39-8.87 4.62-13.52 6.45-10.73 1.95-21.72.34-32.1-2.62-2.52-1.35-4.75-3.18-7.29-4.49-1.79 4.05-3.4 8.18-4.78 12.38-.56 2.52-5.51 2.35-5.39-.41-.11-5.06 2.57-9.77 1.96-14.91-4.91-4.22-9.87-8.59-12.66-14.57a34.905 34.905 0 0 1-14.84 3.92c-.21-1.27-.43-2.53-.63-3.8 4.98-2.75 10.14-5.65 13.99-9.9 1.06-3.92-1.63-7.65-1.23-11.58 1.18-4.79 3.25-9.28 4.65-13.99 2.8-4.25 4.82-8.96 8.01-12.96 1.85-3.73 6.1-5.09 8.42-8.4 1.72-1.39 3.13-3.45 5.45-3.87 4.18-1.13 8.35-2.37 12.28-4.2 1.04-2.04 2.41-3.87 3.7-5.76m5.2 15.33c-2.37 5.7-3.37 11.75-4.45 17.78-2.78 3.71-2.49 8.75-5.14 12.58 6.44-1.42 12.64-3.54 18.85-5.72.09-.27.26-.81.35-1.09-1.97-6.85-6.15-13-7.39-20.12-.76-1.14-1.49-2.28-2.22-3.43m13.18 2.98c.7 5.08 2.96 9.68 5.51 14.05.09 1.15.17 2.29.27 3.44 4.22-.99 8.24-2.64 12.15-4.48-2.11-2.19-4.16-4.45-6.46-6.43-3.48-2.76-7.82-4.07-11.47-6.58M30.76 61.1c-2.79 6-4.55 12.51-4.9 19.13 4.78-2.72 9.71-5.34 15-6.91 1.05-3.55 1.4-7.29 2.98-10.69 1.22-6.42 4.94-12.04 6.24-18.46-7.43 4.25-15.36 8.99-19.32 16.93m66.31 4.44c-3.66 2.41-7.95 3.52-12.02 5 3.79 6.76 4.9 14.46 6.76 21.86.97.56 1.94 1.13 2.91 1.7.44-5.21 3.92-9.61 4.01-14.88.19-4.63 1.25-9.28.4-13.9-.52.06-1.55.17-2.06.22M62.55 77.53c-.33.37-1 1.11-1.33 1.48-4.61-.1-9.74.91-12.42 5.06-3.68 5.95-6.34 12.66-6.67 19.7 2.35 1.71 5.22 2.49 7.72 3.94l2.04.08c10.69 5.52 24.06 3.09 33.49-3.86-2.86-8.13-7.05-15.9-8.13-24.55-.34-1.92-2.12-3.03-3.36-4.34-3.74 1.01-7.52 1.87-11.34 2.49M27.67 91.5l.8 3.52c.98 1.1 1.94 2.22 2.87 3.37.72-3.29 1.62-6.54 2.46-9.8-2.08.91-4.19 1.74-6.13 2.91z"/></svg>