<svg height="1540" viewBox="0 0 1050 1155" width="1400" xmlns="http://www.w3.org/2000/svg"><g fill="#9f827c"><path d="m448.46 29.6c2.35-1.05 4.99-.46 7.48-.59 2.52.16 5.23-.53 7.6.63.99.33 1.98.68 2.98 1.03.95.3 1.91.62 2.87.96 1.08.55 2.17 1.1 3.28 1.61 7.38 3.96 12.94 10.54 17.74 17.26.21.51.64 1.54.86 2.06 1.12 2.05 2.17 4.16 3.04 6.34l.51.14c.18 1.62.75 3.15 1.47 4.61.54 1.26 1 2.56 1.54 3.82.07.51.2 1.54.27 2.05.33.5.99 1.52 1.32 2.03.32.97.62 1.95.92 2.94.35.99.68 1.99 1.01 2.99.34.99.67 1.99.99 2.99.34 1 .66 2 .98 3.01.35.99.7 1.99 1.05 2.99.44 1.67.82 3.36 1.34 5.02.24 1.36.43 2.74 1 4.01.26 1.36.42 2.77 1.06 4.03.12.47.36 1.43.48 1.9.7 1.64.8 3.46 1.59 5.07.11.97.22 1.95.34 2.92.41 1.01.83 2.02 1.25 3.04.43 1.29.61 2.64.86 3.97.67 1.23.74 2.65.98 4 .69 1.23.75 2.64.99 4 .72 1.22.76 2.65 1.01 4 .65 1.24.76 2.64 1.01 4 .64 1.25.76 2.65.97 4.02.39 1 .78 2.01 1.16 3.02.46 1.27.63 2.63.87 3.96.67 1.23.75 2.65 1.01 4.01.53 1.66.9 3.37 1.44 5.04.25 1.37.37 2.79 1.05 4.04l.44 1.91c.78 1.19.78 2.64 1.06 4 .62 1.25.75 2.65 1.01 4 .61 1.25.75 2.64 1 4 .59 1.26.75 2.64 1 4 .59 1.26.74 2.64.99 4 .62 1.26.77 2.65.98 4.02.38 1 .77 2 1.14 3.01.49 1.27.64 2.63.86 3.97.74 1.2.74 2.64 1 4 .73 1.21.75 2.64 1 4 .96 1.49.71 3.31.93 4.99 1.25 1.8.46 4.19 1.55 6.07.29 1.36.19 2.89 1.17 4.01.07 1.3.12 2.61.21 3.91 1.3 1.35.77 3.33 1.05 5.01 1.18 1.4.75 3.32 1.01 4.99 1.36 1.81.25 4.38 1.75 6.11.04 1.13.07 2.27.1 3.4l.97.09c-.01 1.8.01 3.6.09 5.39 1.28 1.37.81 3.33 1.09 5.01 1.12 1.44.75 3.32.99 5 .87 1.17.82 2.66 1.09 4.02 1.02 1.47.69 3.31.9 4.99 1.22 1.38.74 3.32 1 5 1.46 1.74.27 4.31 1.7 6.08.23 1.68-.19 3.61 1.03 5.02.07 1.28.14 2.57.23 3.87.87 1.17.86 2.67 1.16 4.05 1.21 1.83.2 4.3 1.59 6.06.09.97.18 1.94.29 2.92 1.22 1.39.75 3.32 1.01 5 1.17 1.41.75 3.32 1.01 5 1.11 1.43.75 3.32 1.01 5 .84 1.17.81 2.65 1.08 4.01 1.15 1.63.65 3.65.77 5.5l.96.09c.23 2.14-.65 4.67.91 6.48.07 1.3.12 2.6.21 3.91 1.19 1.23.8 2.99.97 4.53l.91.08c.14 1.82-.48 3.94.87 5.47.24 1.68-.23 3.65 1.05 5.04.03 1.12.06 2.26.08 3.39l1 .09c.14 2.19-.5 4.6.82 6.55.11.95.23 1.9.36 2.86 1.13 1.42.75 3.32 1 5 1.12 1.42.75 3.31 1.01 4.99.78 1.2.81 2.65 1.09 4.02.91 1.51.71 3.3.9 4.99 1.12 1.43.75 3.31 1 4.99.81 1.19.83 2.65 1.11 4.02.61 1.25.75 2.64.99 4 1.16 1.78.62 3.97.84 5.97 1.22 1.4.8 3.33 1.06 5.02 1.13 1.43.75 3.31.99 5 .91 1.13.79 2.64 1.07 4.01 1.27 1.81.21 4.3 1.61 6.06.16 1.68-.03 3.48.88 5.02.27 1.34.25 2.82 1.13 3.98.21 1.69-.18 3.6 1.01 5.03.09 1.28.17 2.57.28 3.87.78 1.63.9 3.48 1.71 5.12.09.96.19 1.93.3 2.91 1.38 1.52.7 3.67.87 5.51l.97.09c0 1.45.02 2.92.09 4.39 1.35 1.32.79 3.33 1.08 5.01 1.17 1.4.75 3.31 1 5 1.1 1.27.77 2.99.93 4.52l.9.08c.2 2.17-.63 4.67.9 6.52.04 1.12.08 2.25.11 3.38l1.01.09c-.02 1.63-.04 3.27-.05 4.91l1.03.09c-.01 1.66-.01 3.32-.01 4.99h1.92l.12-.75c2.17-.84 4.27-1.87 6.32-2.98 2.68-1.31 5.36-2.62 8-4 1.07-.51 2.14-1.04 3.23-1.54 2.64-1.39 5.31-2.72 7.99-4.02 2.01-1.03 4.02-2.05 6.01-3.11.98-.32 1.96-.61 2.97-.87 1.33-.7 2.68-1.38 4.05-2.04.49-.26 1.47-.78 1.97-1.05 1.7-.59 3.4-1.2 5.06-1.93 1.67-.67 3.35-1.3 4.99-2.05.94-.37 1.91-.7 2.89-1.01 1.8-.64 3.61-1.25 5.43-1.87l.09-.61c1.15-.22 2.3-.48 3.45-.77 1-.39 2-.79 3.01-1.21.49-.09 1.48-.28 1.98-.38 1.31-.58 2.66-1.07 3.99-1.63.49-.1 1.48-.29 1.97-.39 1-.41 2.01-.79 3.04-1.15.99-.35 2-.67 3.02-.98.98-.37 1.97-.72 2.98-1.05 1.27-.47 2.62-.67 3.98-.86.99-.4 1.99-.78 3.01-1.15 1.13-.34 2.29-.61 3.47-.81l.09-.73c1.51-.08 3.11.02 4.49-.78 1.32-.27 2.65-.52 3.97-.86 1-.42 2.01-.84 3.02-1.27.96-.11 1.94-.21 2.92-.32 1.77-1.37 4.26-.37 6.09-1.64.48-.1 1.44-.3 1.92-.39 1.71-1.32 3.97-.67 5.97-.93 1.4-1.2 3.33-.8 5.02-1.06 1.44-1.11 3.31-.77 5-.99 2.64-2.09 6.53.48 9.1-1.77 2.46-.09 4.93-.05 7.4-.02l.09-1.03c10.32.03 20.64-.02 30.95.04l1.64.84c1.98.29 4.32-.48 5.99.99.59.04 1.78.12 2.37.15l.13.7c.57.24 1.72.71 2.3.94 1.36.66 2.72 1.34 4.12 1.97 4.94 3.86 9.73 8.36 12.78 13.93.88 1.73 2 3.32 3.06 4.95.62 1.36 1.28 2.71 1.93 4.08 1.89 3.55 3.51 7.23 5.48 10.74.51 1.18 1.03 2.37 1.53 3.58l.53.12c.16 1.63.73 3.16 1.47 4.62.25.56.76 1.69 1.01 2.25l.53.14c.12 1.21.45 2.37.97 3.48l.32 2c.31.51.95 1.52 1.27 2.03.6 1.79 1.21 3.59 1.82 5.39l.72.08c-.07 1.99.29 3.93 1.41 5.61.36.94.71 1.89 1.05 2.85.44 1.67.76 3.39 1.39 5.03.11.48.33 1.44.45 1.92.38 1 .78 2.01 1.18 3.02.46 1.29.65 2.64.85 4 .38.99.76 2 1.14 3.01.69 1.56.63 3.28.77 4.96.42 1 .84 2.02 1.26 3.04.39 1.29.59 2.63.85 3.97.68 1.23.74 2.64.99 4 1.12 1.88.3 4.28 1.56 6.12.1.95.21 1.9.33 2.87.93 1.13.82 2.64 1.1 4.01.99 1.48.7 3.31.91 4.99 1.37 1.69.67 3.99.96 5.99 1.6 1.96.62 4.68.97 7 2.05 3.53.31 8.06.99 12 1.36 1.21.81 3.09.94 4.67-.08 4.47.04 8.93-.07 13.4-2 2.88-.48 6.72-1 10.01-1.52 1.61-.79 3.97-1.1 5.95-1.26 1.83-.5 4.22-1.57 6.13-.26 1.34-.43 2.73-1 4-.26 1.32-.44 2.67-.9 3.96-.36.99-.72 1.99-1.08 2.99-.3.97-.61 1.95-.93 2.94-.28.49-.85 1.49-1.14 1.99-.3 1.84-1.09 3.55-2.14 5.09l-.12 2.45-.98.08v1.92l-1 .08v1.89l-.6.17c-.79 1.55-1.79 2.97-2.66 4.48-3.61 7.1-9.2 12.8-15.06 18.06-.52.27-1.55.79-2.07 1.06-1.66.98-3.18 2.23-5.1 2.65-1 .33-2 .66-2.99.99-1.69.51-3.52.61-5.03 1.56-5.14.06-10.28.13-15.4.04-.42-.18-1.25-.52-1.66-.7-1.37-.24-2.75-.4-4-.98-1.35-.24-2.7-.44-3.96-.9-.97-.34-1.93-.68-2.88-1-1.34-.73-2.7-1.41-4.03-2.12-.51-.22-1.52-.68-2.03-.91-5.28-2.78-9.04-7.48-13.23-11.58-.8-1.5-1.77-2.89-2.64-4.32-.65-1.36-1.31-2.71-1.93-4.06-.28-.49-.83-1.47-1.11-1.95-.34-.98-.67-1.95-.98-2.92-1.09-3.16-1.04-6.89-.03-10.06.56-1.7 1.24-3.36 2-4.97.8-1.2 1.7-2.33 2.46-3.55-.2-1.4-1.77-1.68-2.8-2.21-.24-.26-.71-.79-.95-1.05-1.03-1.88-2.53-3.42-3.7-5.19-.26-.51-.77-1.53-1.02-2.03-1.01-2.84-1-6.19.05-9 .3-.98.61-1.95.95-2.91.95-1.46 1.98-2.87 2.71-4.46 1.75-1.18 3.49-2.37 5.24-3.56.98-.29 1.96-.55 2.96-.79 1.33-.55 2.69-1.04 4.01-1.64 3.55-.16 7.12-.06 10.69-.12-.24-1.61-.75-3.13-1.4-4.6-1.26-2.39-2.69-4.66-4.1-6.95-2.84-5.06-6.82-9.39-11.16-13.19-.51-.1-1.52-.29-2.02-.38-4.12 3.04-8.31 5.99-11.73 9.83-3.35 1.46-5.37 4.71-8.03 7.07-6.73 6.36-12.87 13.31-18.13 20.93-1.94 2.11-3.55 4.49-4.97 6.97-1.57 2.18-3.17 4.37-4.37 6.79a38.21 38.21 0 0 1 -4.22 6.06c-.03.52-.11 1.55-.15 2.07-1.48 1.41-2.43 3.22-3.36 5.01-.28 1.11-.53 2.23-.74 3.36l-.54.14c-.24.57-.71 1.72-.95 2.3a36.591 36.591 0 0 0 -2.99 7.03l-1.08 2.04c-.3 1.05-.65 2.09-1.06 3.12-.11.47-.34 1.42-.45 1.9-.69 1.64-.75 3.47-1.54 5.09-.1.48-.3 1.43-.39 1.91-1.04 1.03-1.02 2.02.05 2.97l.32 1.96c.43.99.8 2.02 1.13 3.08.57 1.73 1.2 3.46 2.01 5.11.35.94.7 1.9 1.03 2.87.32 1 .64 2.01.94 3.04.51 1.3.95 2.63 1.49 3.95.1.49.32 1.47.42 1.96.4 1 .78 2.02 1.15 3.05.33.99.65 2 .96 3.02.35.98.71 1.97 1.06 2.97.49 1.26.66 2.61.88 3.96.69 1.22.76 2.64 1 4 1.56 2.11-.14 5.08 1.64 7.09.06 1.28.11 2.59.19 3.9 2.13 2.22-.37 5.87 1.84 8.09.32 2.3-.74 5.1 1.04 6.99.52 3.6-1.13 7.82.99 11 .02 16 .02 32-.01 48-2.16 3.66-.43 8.39-.95 12.49l-1.05.09c.01 3.13.09 6.27-.01 9.41-2.01 2.68-.54 6.38-.93 9.5l-1.06.09c.03 2.62.04 5.24.04 7.88l-1.52.25c1.39 1.34 3.19 1.95 5.02 2.48.95.29 1.91.61 2.86.97 2.32 1.11 4.81 1.82 7.14 2.95 1.59 1.1 3.19 2.22 4.95 3.09 2.5 1.43 4.74 3.29 7.33 4.6 5.8 5.28 10.62 11.56 15.04 18.01.21.52.62 1.58.82 2.1.88 1.38 1.83 2.71 2.69 4.12.45.93.92 1.87 1.4 2.81.52 1.09 1.07 2.17 1.62 3.28.24.57.71 1.71.94 2.28l.52.14c.3 1.66.81 3.28 1.31 4.91l.85.07c.05.6.14 1.79.18 2.39.47.98.89 2 1.25 3.06.42 1.68.77 3.4 1.35 5.06.12.48.35 1.44.47 1.92.4.99.8 1.99 1.19 3.02.47 1.26.63 2.6.86 3.95 1.08 1.51.64 3.34.53 5.07-.26-1.61-.59-3.2-.88-4.77-3.21-.09-6.41-.13-9.61-.15 4.6 22.03 8.52 45.03 3.55 67.35-1.51 6.33-2.97 13.34-8.18 17.77-7.18 6.64-17.37 8.55-26.84 7.44-1.79 3.06-3.56 6.14-5.29 9.24 4.49.14 8.99.08 13.47-.36l-.02.99c-4.57-.01-9.14-.03-13.71 0-.49 1.22-.99 2.45-1.48 3.7-1.64 2.49-3.34 4.97-4.48 7.76-1.47 2.43-3.16 4.72-4.7 7.12-.21.52-.65 1.58-.87 2.11-4.56 6.1-9.09 12.24-13.96 18.09-3.72 3.59-7.31 7.31-11.02 10.91-4.09 2.36-7.08 6.33-11.3 8.62-1.77.84-3.36 1.98-5 3.04l-4.08 1.92c-.91.5-1.82 1-2.73 1.51-1.2.52-2.41 1-3.6 1.5l-.1.72c-8.82-.07-17.64.09-26.46-.05-.97-.61-2-1.02-3.11-1.22-3.86-2.11-6.75-5.39-8.73-9.28-.26-.5-.78-1.51-1.03-2.01-.36-.98-.69-1.96-1.01-2.92-.52-1.69-.6-3.53-1.56-5.03-.12-5.33-.08-10.66-.03-15.98 1.73-1.93.7-4.71 1.01-7.02 1.91-1.91.1-4.97 1.68-7.06.23-1.37.35-2.76.98-4 .25-1.35.48-2.68.9-3.96.34-1.01.7-2.01 1.07-2.99.29-1.02.61-2.02.96-3 .34-1.03.71-2.04 1.09-3.03.21-1.36.4-2.71.86-3.99.37-1.02.75-2.02 1.15-3.01.23-1.38.21-2.85 1.04-4.02.11-.48.31-1.44.41-1.92 1.17-1.62.7-3.66.81-5.5l1.01-.08c-.01-1.43-.02-2.85-.01-4.25 1.66-4.38 3.13-8.91 3.71-13.57-8.86-6.37-19.05-11.17-26.61-19.24-4.09-4.81-2.7-11.78-.4-17.09 5.69-12.66 12.52-24.81 17.79-37.65-3.32 1.37-4.89 4.71-6.84 7.47-6.05 9.01-13.55 17.19-17.7 27.35-2.28 5.34-3.81 11.15-3.44 17 .27 3.77 2.63 6.88 4.79 9.82 6.38 8.75 15.76 14.5 24.08 21.18-18.21 12.68-38.58 22.14-59.81 28.48-52.83 15.06-109.58 14.16-162.57.38-9.4-2.09-18.36-5.66-26.98-9.88-2.91-1.24-5.82-3.48-9.15-2.5 10.42 11 24.05 18.7 38.54 22.91 6.92 2.26 13.89 4.37 20.8 6.64 5.57 1.23 7.27 10.42 1.96 13.11-12.69 7.39-26.86 11.85-41.04 15.4-12.74 3.55-26.11 2.49-39.16 3.41-4.8.38-9.61.54-14.43.61.48-7.36 3.34-14.16 6.03-20.91 2.38-7.4 6.32-14.62 5.69-22.63.02-9.57-4.33-19.58-12.97-24.35-8.11-5.57-18.21-2.41-27.23-1.96-7.76.87-15.96-3.11-19.7-10.04-2.92-5.81-.41-12.49 1.35-18.28 8.65 4.55 17.2 9.37 26.28 13.02-7.53-6.44-15.94-11.76-23.85-17.71 3.45-6.77 6.7-13.63 10.15-20.4 4.52-9.08 7.42-19.53 5.09-29.65-1.78-.02-3.55-.02-5.32-.01 2.18 9.34.26 19.06-3.83 27.6-3.13 6.8-6.61 13.44-10.04 20.1-16.63-13.37-30.7-29.73-42.13-47.7-3.51-.04-7.03 0-10.52.3l-.34.02c-.2-.58-.61-1.73-.81-2.31-1.08-1.63-2.22-3.22-3.18-4.92-.76-1.78-1.62-3.51-2.48-5.23-.7-1.35-1.37-2.69-2.03-4.02-.68-1.35-1.34-2.69-2-4.02-1.11-2.07-2.16-4.16-3.01-6.33l-.68-.11c-.02-.62-.07-1.85-.09-2.47-.32-.51-.98-1.53-1.3-2.05-.55-1.73-1.15-3.45-1.96-5.06a66.3 66.3 0 0 1 -.94-2.93c-.26-.51-.78-1.52-1.05-2.03-.5-1.31-.95-2.64-1.48-3.91-.07-.51-.22-1.53-.29-2.04-.33-.51-.99-1.52-1.32-2.03-.32-.98-.62-1.97-.91-2.94-.36-1-.72-1.99-1.06-2.98-.48-1.28-.66-2.64-.89-3.96-.93-1.52-.72-3.32-.89-4.99-1.77-2.04.12-5.15-1.78-7.09-.1-10.83 0-21.65-.05-32.48l1.03-.09c.22-2.48-.8-5.35.8-7.5.19-1.69-.1-3.51.9-4.99.21-1.35.38-2.7.88-3.97.34-1 .69-1.99 1.05-2.97.31-1.02.63-2.03.97-3.02.34-1.06.74-2.07 1.22-3.06.04-.59.13-1.79.18-2.39l.68-.1c.55-1.51 1.25-2.96 1.98-4.38.25-.5.73-1.49.98-1.99l1.2-2.04c.08-.5.24-1.51.31-2.02.4-1.01.79-2.02 1.17-3.03.79-1.24.92-2.79-.12-3.94-.23-1.39-.29-2.82-1.03-4.04-.09-.48-.29-1.42-.39-1.9-.86-1.18-.8-2.66-1.07-4.01-1.25-1.85-.11-4.43-1.72-6.07-.03-1.34-.03-2.68.01-4 1.51-1.66.62-4.13 1.61-6.04.31-.98.63-1.95.96-2.91.32-.51.97-1.52 1.3-2.03.07-.5.22-1.51.29-2.01.4-1.03.78-2.05 1.13-3.08.25-.66.74-1.97.99-2.63-1.42-.02-2.69.37-3.82 1.15-10 .09-19.99.06-29.99.02-2.53-2.33-6.53.37-9.09-1.87-1.64-.08-3.27-.11-4.91-.17-1.7-1.58-4.33-.31-6.08-1.77-.98-.11-1.95-.21-2.92-.31-1.57-.8-3.35-.98-5.02-1.46-1-.35-2-.7-2.98-1.06-1.02-.32-2.02-.64-3.02-.98-.96-.32-1.91-.66-2.85-1.02-1.64-.77-3.33-1.4-5.04-1.98-1.34-.69-2.68-1.37-4-2.07-1.09-.52-2.16-1.05-3.24-1.55-.94-.48-1.89-.94-2.83-1.4-3.95-2.28-7.46-5.23-11.3-7.65-3.21-3.09-6.34-6.27-9.49-9.42-3.32-4.04-6.28-8.38-9.06-12.8-.66-1.37-1.34-2.72-2.09-4.03-.68-1.54-.6-3.23-.76-4.85-1.3-2.04-1.41-5.22.09-7.17.08-1.97.08-3.93.17-5.89 1.39-1.74.55-4.15 1.54-6.07.33-1 .68-1.98 1.04-2.96.31-1.02.65-2.02 1-3 .3-.98.61-1.95.94-2.91.73-1.34 1.42-2.7 2.15-4.03.26-1.02.53-2.02.83-3.01.28-.49.84-1.47 1.13-1.96.25-.49.75-1.48 1-1.98.52-1.08 1.03-2.16 1.55-3.23.49-.94.98-1.86 1.48-2.78.5-1.08 1.02-2.15 1.54-3.22.46-.96.93-1.91 1.39-2.86.84-1.4 1.8-2.72 2.68-4.08.22-.53.67-1.58.9-2.1 3.63-4.77 6.51-10.08 10.51-14.56.99-1.09 1.99-2.2 2.55-3.56 1.77-1.91 4.04-3.48 5-5.98 4.91-5.03 9.89-9.99 14.91-14.92 2.91-1.22 4.68-3.98 6.99-6 2.06-.82 3.43-2.64 5.17-3.92 3.96-3.02 8.13-5.77 12.13-8.72 3.94-1.91 7.26-4.82 11.03-7.02 2.49-1.03 4.76-2.49 6.98-4 2.71-1.28 5.37-2.63 8.06-3.95.5-.25 1.49-.77 1.99-1.02.5-.24 1.51-.73 2.01-.97.49-.29 1.47-.86 1.96-1.14.99-.3 2-.57 3.02-.81.93-.52 1.87-1.02 2.81-1.52 1.47-.35 2.88-.88 4.28-1.45.47-.3 1.41-.91 1.88-1.21.98-.32 1.98-.62 2.98-.9 1.29-.5 2.62-.9 3.93-1.35 1.46-.4 2.84-1 4.19-1.67.94-.37 1.89-.7 2.85-1.01.99-.36 1.99-.71 2.99-1.04 1.28-.49 2.63-.68 3.99-.87.99-.4 1.99-.78 3-1.14 1.29-.44 2.64-.65 3.97-.89 1.24-.65 2.64-.77 4-1 1.26-.6 2.64-.76 4-1 1.23-.68 2.65-.75 4-.97 1.77-1.22 3.98-.64 5.97-.85 1.23-1.21 3-.82 4.54-.99l.08-.91c9.29.07 18.58.03 27.87.01.15-1.55-.14-3.26.89-4.57l.44-1.92c.64-1.65.92-3.41 1.49-5.08.23-1.34.44-2.68.88-3.97.38-1.01.77-2.02 1.17-3.02.23-1.37.2-2.84 1.04-4.02.11-.48.32-1.43.42-1.91.63-1.66.96-3.4 1.49-5.08.23-1.36.36-2.76 1-4 .24-1.34.42-2.69.9-3.97.36-1.01.74-2.01 1.13-3.01.21-1.37.38-2.76.97-4.02.24-1.36.38-2.76 1.01-4 .31-1.37.17-2.92 1.17-4.02.05-1.14.09-2.27.12-3.4l.95-.09c.04-.6.13-1.8.17-2.4.83-1.6.97-3.42 1.58-5.08.27-1.37.26-2.83 1.07-4.01l.44-1.92c.64-1.63.94-3.36 1.39-5.04.36-1.02.74-2.03 1.14-3.03.22-1.37.29-2.79 1-4.02.24-1.35.23-2.79 1-3.99.23-1.36.24-2.79.98-4 .25-1.36.25-2.82 1.05-4l.44-1.92c.67-1.66.86-3.47 1.59-5.09.11-.98.23-1.95.36-2.92.74-1.59.97-3.35 1.41-5.03.4-1.04.83-2.06 1.29-3.06.06-1.14.11-2.27.15-3.4l.94-.09.2-2.39c.72-1.64.98-3.43 1.57-5.11.27-1.35.19-2.85 1.08-3.99.1-.48.31-1.44.41-1.91.65-1.66.84-3.46 1.55-5.1.12-.47.35-1.43.47-1.9.59-1.67.92-3.42 1.48-5.09.24-1.36.31-2.78 1.01-4 .22-1.34.4-2.69.86-3.97.37-1.01.75-2.01 1.14-3 .2-1.38.37-2.77.98-4.03.24-1.34.45-2.68.88-3.96.37-1.01.76-2.02 1.16-3.02.22-1.37.22-2.84 1.04-4.02.1-.49.28-1.45.38-1.93 1.03-1.29.75-2.97.88-4.49l.94-.09c.04-.6.11-1.8.15-2.39.82-1.59 1.01-3.38 1.46-5.08.39-1.01.79-2.02 1.2-3.03.11-.47.34-1.4.45-1.87.56-1.69.95-3.42 1.46-5.12.22-1.35.44-2.7.91-3.98.37-1.01.75-2.01 1.12-3.01.21-1.36.31-2.77.98-4.01.23-1.34.4-2.69.88-3.97.37-1.01.75-2.01 1.14-3.01.23-1.37.28-2.81 1.03-4.03.12-.47.36-1.42.47-1.9.59-1.67.86-3.44 1.52-5.09.12-.48.35-1.45.47-1.93.62-1.63.93-3.35 1.37-5.03.37-1.02.77-2.03 1.17-3.03.12-.49.34-1.45.46-1.93.63-1.63.93-3.35 1.39-5.03.32-1.01.67-2.01 1.04-3 .34-1.02.71-2.04 1.09-3.05.2-1.36.33-2.76.97-4 .22-1.35.41-2.7.87-3.98.38-1.01.78-2.02 1.19-3.02l.44-1.92c.6-1.66.96-3.39 1.48-5.07.23-1.35.45-2.69.91-3.97.33-1 .67-2 1.03-2.98.34-1.03.71-2.04 1.09-3.04.24-1.37.24-2.84 1.07-4.02.1-.49.29-1.47.39-1.96.56-1.32 1.05-2.67 1.59-3.99.17-1.37.34-2.75.85-4.04.38-1 .76-2.01 1.15-3.01.12-.47.35-1.42.47-1.89.56-1.67.92-3.39 1.38-5.08.35-1.01.73-2.02 1.12-3.02.18-1.35.36-2.7.85-3.98.37-1.01.76-2.01 1.15-3.02.23-1.36.25-2.81 1.02-4.01.12-.48.34-1.44.45-1.92.64-1.63.94-3.36 1.36-5.04.38-1.02.78-2.03 1.2-3.03l.4-1.96c.42-.99.83-1.99 1.21-3 .43-1.66.72-3.36 1.23-5 .33-1 .66-2.01 1.01-3 .36-1.03.75-2.05 1.16-3.06.11-.48.34-1.43.45-1.9.59-1.64.91-3.36 1.38-5.04.33-1 .67-2 1.03-3 .34-1.02.7-2.03 1.08-3.03.21-1.35.38-2.71.9-3.98.32-1 .65-2 .99-2.99.38-1.04.79-2.07 1.25-3.08.06-1.13.1-2.25.15-3.37l.76-.09c.19-1.18.46-2.34.81-3.47.38-1.02.77-2.02 1.18-3.02.12-.48.35-1.43.46-1.91.85-1.37.74-2.98.83-4.51l.75-.11c.17-1.18.43-2.33.78-3.47.4-1.01.8-2.01 1.21-3.02.09-.49.29-1.48.38-1.97.57-1.32 1.06-2.67 1.62-3.99.2-1.38.09-2.88 1.01-4.04.09-.49.28-1.47.37-1.96.54-1.31.99-2.64 1.52-3.95.29-1.02.6-2.03.94-3.04.32-1 .65-2 1.01-2.99.32-1.01.65-2.01 1.01-3 .29-.98.61-1.96.95-2.94.28-.49.84-1.49 1.13-1.99.27-1.03.58-2.06.91-3.07.3-.99.61-1.98.94-2.95.33-.51.98-1.52 1.3-2.02l.28-2.02c.57-1.09.9-2.25.99-3.48l.84-.1v-1.89l.73-.11c.23-.59.68-1.77.9-2.37.29-.48.88-1.44 1.17-1.93.66-1.47 1.19-2.99 1.37-4.6l.83-.1v-1.89l.71-.11c.48-1.21.99-2.39 1.53-3.57.72-1.32 1.4-2.66 2-4.04 1.51-2.57 3.32-4.97 4.43-7.76 5.85-9.59 13.07-18.98 23.77-23.4.5-.08 1.5-.26 2-.35 1-.41 2-.81 3.02-1.2m-12.19 19.39c-6.09 4.81-10.26 11.49-13.94 18.2-5.24 9.86-9.55 20.19-13.2 30.74-5.7 15.66-10.56 31.63-14.77 47.76-21.72 77.1-43.53 154.17-65.21 231.29-12.64 44.15-26.19 88.03-39.18 132.07-2.73 8.84-5.52 17.73-9.88 25.93-.8-.73-2.09-1.36-1.84-2.66.39-5.22 1.55-10.36 2.18-15.55-11.13.94-22.26 1.92-33.4 2.87-8.46.3-16.45 3.39-24.61 5.34-28.32 9-55 23.34-77.83 42.39-24.54 20.07-44.52 47.16-51.45 78.49-2.19 9.03 2.76 17.89 8.72 24.31 23.63 25.13 59.64 36.55 93.6 32.95 35.91-3.62 69.01-20.23 98.77-39.83 9.31-5.86 16.87-14.22 26.69-19.33 2.27-1.07 4.9-2.55 7.31-1.06-1.85 1.29-5.45 2.02-5.06 4.95 3.91 8.05 11.41 15.19 20.8 15.48 9.98.08 18.36-6.63 24.37-14 8.67-10.14 18.06-20.79 20.67-34.3 2.59-11.92-1.92-23.99-7.88-34.16-6.24-10.7-17.68-18.48-30.17-19.2-4.65.04-9.28.59-13.92.81-5.66.39-11.43.19-16.97 1.61-10.83 2.7-21.76 4.97-32.59 7.66-14.5 3.97-28.97 8.05-43.58 11.61-5.99 1.25-11.97 2.77-18.11 3.03.73-1.34.83-3.3 2.43-3.95 3.08-1.73 6.33-3.15 9.66-4.32 20.42-7.24 41.24-13.3 62.09-19.14 5.79-1.31 11.68-2.13 17.51-3.18 11.07-1.82 22.3-4.32 33.56-2.67 13.77 1.4 25.45 10.79 33.15 21.84 7.54 11.34 12.86 24.69 12.63 38.49-1.56 5.17-2.28 10.88-3.99 16.16l-.47.83c-.86 2.39-1.81 4.74-2.75 7.11-3.36 5.81-7.12 11.38-11.68 16.33-2.57 4.11-6.79 6.58-10.24 9.84-2.74 2.4-6.08 3.93-9.14 5.88-1.02.38-2.03.78-3.04 1.19-4.07 1.14-8.27 1.96-12.49 2.24-8.24-.97-16.95-3.36-22.48-9.98l-.31.19c-1.58-2.5-3.02-5.1-4.27-7.78-23.2 23.06-51.31 41.91-83 50.91-5.83 1.89-12 2.62-17.76 4.68-6.16 6.95-7.89 16.78-8.68 25.76-.14.09-.44.28-.59.38-.46 6.14 1.3 12.18 4.4 17.45 2.86 6.67 8.2 11.75 13.56 16.44 3.53 2.47 6.2 6.01 10.08 7.99 11.85 9.1 24.55 16.99 37.64 24.18a320.086 320.086 0 0 0 56.88 25.41c32.61 10.14 66.65 14.43 100.52 17.34 4.36-.33 8.69.17 12.99.89 4.01-.08 7.99.29 11.94.99 11.67.14 23.36-.03 35.03.08 4.37.19 8.6-1.36 12.98-1 23.22-1.58 46.44-5.07 68.95-11.18 5.59-2.31 11.6-3.34 17.2-5.6 8.97-3.2 17.8-6.75 26.49-10.6l1.75-1.31c9.33-3.21 16.95-9.85 25.61-14.42 3.86-2.45 7.79-4.8 11.64-7.27 14.04-7.91 24.45-21.07 31.69-35.24 3.51-10.02 6.53-20.58 5.7-31.31.96-17.93-5.05-35.16-11.36-51.65-.33-.44-1-1.31-1.34-1.75-1.35-4.29-3.5-8.25-5.85-12.06-7.55-14.32-16.03-28.13-24.17-42.11l-.56-1.92c-3.28-5.69-7-11.14-9.98-17 7.04 5.61 12.13 13.19 17.15 20.57 5.74 7.42 11.06 15.15 15.84 23.23 1.11 1.99 2.7 3.64 4.28 5.27.9-1 1.8-2 2.71-2.99 1.91-6.47 3.65-13.08 6.96-19.01 9.65-16.44 20.82-32.13 34.58-45.4 7.88-8.32 17.38-14.96 27.18-20.82 4.33-2.27 8.9-4.89 13.98-4.5-1.55 1.5-4.69 2.43-4.43 5.02.94 2.53 2.97 4.43 4.47 6.64 5.52 8.36 8.87 18.04 10.18 27.96-.28 1.06-.55 2.12-.8 3.19-.58.31-1.75.95-2.33 1.26-5.03.28-10.13-.38-15.1.41-4.46.94-6.49 5.15-8.35 8.83.44 2.61 1.82 5.16 3.74 7 4.55 3.26 10.38 3.99 15.84 3.75.75-.78 1.51-1.55 2.28-2.31.02-1.24.06-2.48.1-3.71l.83.07c1.26 5.71 2.9 11.33 4.22 17.03.92 4.23 3.3 8.14 3.02 12.6-3.35-4.26-6.08-9.03-7.95-14.11-.07-.54-.22-1.61-.3-2.14l-2.24-2.36c-4 .12-9.05-.96-11.84 2.74-2.16 3.45-3.55 7.84-2.1 11.84.54 1.97 1.07 3.96 1.61 5.95 3.19 4.12 5.83 8.84 10.12 11.98 7.24 5.47 15.36 10.42 24.56 11.49 8.91-.07 17.5-4.19 23.84-10.31 10.11-7.96 15.73-20.22 19.52-32.22 3.74-10.82 5.34-22.18 6.66-33.49-.16-7.99.6-16.04-.84-23.94-1.05-6.14-.88-12.45-2.69-18.44-1.25-8.33-3.79-16.38-5.69-24.56-5.96-19.17-12.42-38.21-20.56-56.58-.12-.49-.34-1.45-.45-1.94-3-4.47-5.17-9.48-8.6-13.67-3.91-4.37-7.58-9.15-12.73-12.14-4.83-2.37-10.3-2.31-15.41-3.53-6.13-.08-12.35-.64-18.43.41-21.7 2.08-43.16 6.52-64.05 12.72-5.91 2.26-12.12 3.62-17.98 6.01-5.51 2.23-11.29 3.82-16.52 6.69-4.7 2.56-10.18 3.49-14.53 6.71-.48.14-1.45.43-1.94.57a43.082 43.082 0 0 1 -5.16 3.04c-12.16 6.21-23.29 14.14-34.42 21.99-.47 5.06 1.86 9.71 2.16 14.68.24 3.58 1.72 6.93 1.96 10.51-2.4-3.13-3.34-7.03-5.04-10.52-2.08-4.33-3.41-8.94-4.7-13.54-1.23-3.87-1.13-8.19-3.56-11.61-10.05-44.66-20.23-89.29-30.22-133.96-10.63-45.5-20.83-91.11-29.84-136.96-2.18-13.42-5.92-26.5-8.93-39.74-7.17-32.25-15.47-64.23-23.66-96.23-3.6-11.02-7.54-22.22-14.39-31.69-4.87-6.91-13.13-11.76-21.75-11.07-7.88.64-15.67 3.61-21.71 8.77m239.78 734.03c-8.8 9.52-19.91 16.39-30.77 23.28-28.66 17.35-60.17 30.37-93.21 36.44-37.19 7.27-75.29 9.03-113.09 7.41-25.78-1.24-51.63-3.27-76.91-8.65-17.57-3.43-34.78-8.6-51.54-14.87-37-13.77-71.14-34.41-101.98-58.93-.34 1.48-.68 2.97-1.01 4.47 18.1 18.65 39.79 33.73 63.1 45.14 15.96 7.98 31.53 16.96 48.57 22.53 19.8 6.69 40.02 12.45 60.78 15.23 20.23 2.76 40.59 4.47 60.95 5.84 44.22 2.47 89.13.64 132.15-10.61 29.44-7.84 57.78-20.25 82.92-37.54 11.57-8.13 22.47-17.63 30.18-29.61 1.35-2.25 3.54-4.28 3.59-7.07.33-4.4.56-8.81.75-13.21-4.26 7.09-8.56 14.28-14.48 20.15m-430.57 44.77c-5.11 1.1-10.02 3.25-14.13 6.52-10.92 8.28-15.64 23.88-10.81 36.76 4.54 13.76 19.07 23.22 33.49 21.99 12.9-.83 24.82-10.06 28.79-22.38 4.35-12.18.41-26.66-9.32-35.12-7.53-6.67-18.12-9.66-28.02-7.77m467.59 72.88c1.16 7.47 2.17 14.96 3.2 22.45.8 6.16-.93 12.82-5.46 17.23-10-5.72-20.01-11.57-30.98-15.28-15.89-5.64-33.21-8.77-49.98-5.69-4.61.74-9.26 1.17-13.83 2.1-7.14 1.98-13.32 7.47-15.61 14.6.25 1.63.98 3.16 1.54 4.73 3.5-4.05 6.58-8.89 11.73-11.04 6.04-2.98 12.94-1.88 19.36-2.96l-.73 1.62c-2.73 21.78-8.71 42.93-14.66 63.99-2.83 9.99-6.73 19.75-8.02 30.12-2.17 8.47-2.36 17.53.07 25.98 1.99 6.79 6.79 13.4 14.14 14.76 4.44 1.61 8.93-.29 13.24-1.33 11.83-3.29 21.44-11.42 29.69-20.19 13.5-12.64 24.02-28.09 32.8-44.26.98-2.83 2.31-5.52 3.99-7.99 1.32-3.83 3.43-7.3 5.01-11 3.77-8.5 5.23-17.76 8.52-26.43 6.61 4.87 11.22 11.78 17.17 17.34 1.43-4.16-1.86-7.64-3.75-11.01-4.04-6.68-10.84-10.81-17.03-15.23 5.49-5.19 8.19-12.74 8.11-20.22.19-7.63-2.44-14.9-3.66-22.35-1.63.01-3.25.02-4.86.06z"/><path d="m389.13 462.63c25.68-6.69 52.4-8.24 78.82-7.16 13.14.05 25.89 3.57 38.8 5.53 14.53 2.66 28.29 8.39 41.63 14.59 3 1.17 5.27 3.51 6.76 6.33-15.34-6.05-30.99-11.46-47.19-14.73-54.87-11.65-112.73-2.76-163.88 19.29-.23-.92-.7-2.78-.94-3.7 13.56-10.11 29.89-15.59 46-20.15z"/><path d="m552.77 459.88c6.26 4.74 14.27 7.9 18.07 15.22 2.1 3.94 3.71 9.4.6 13.28-3.42 3.61-8.7 4.48-13.41 5.06-5.87.2-12.09.81-17.55-1.85-.05-.55-.14-1.65-.18-2.2 9.08.28 18.24-.64 27-3.08 3.26-1.52 2.76-5.86.86-8.29-3.79-4.89-8.23-9.24-12.75-13.45-1.4-1.23-2.13-2.95-2.64-4.69zm-215.5 7.51c.84-.15 2.53-.46 3.38-.61-1.27 3.42-4.26 5.68-6.47 8.46-3.89 4.52-7.1 10.04-6.75 16.21 5.16 5.37 13.39 3.3 20 4.45.44.23 1.32.7 1.76.94-2.69 1.9-5.85 2.95-9.16 2.71-4.91-.24-11.04 1.27-14.69-2.96-4.13-4.75-2.88-12.08.61-16.82 3.37-4.48 7.73-8.09 11.32-12.38zm74.08 21.14c14.66-6.09 30.97-8.41 46.7-5.92 4.62.84 9.47 1.14 13.76 3.23-14.59 1.89-29.29 2.81-43.9 4.45-6.79.58-13.56 1.66-20.39 1.48.45-1.92 2.3-2.53 3.83-3.24zm-177.44 353.39c4.76-4.84 11.53-7.19 18.23-7.42-8.17 10.79-16.84 21.19-25.24 31.8-2.06-8.59.41-18.35 7.01-24.38zm29.07-4.67c11.3 5.62 17.5 20.01 12.53 31.87-1.07 2.66-2.15 5.68-4.8 7.18-2.44-13.05-5.62-25.95-7.73-39.05zm-18.01 20.03c3.52-4.45 7.1-8.86 10.57-13.36 1.17 5.6 2.43 11.18 3.36 16.83-4.66-1.12-9.32-2.21-13.93-3.47zm-13.93 17.76c2.3-3.73 5.31-6.95 8.03-10.37 7.19 1.63 14.28 3.69 21.53 5.02 1.19 4.43 1.97 8.95 2.78 13.46-10.87 5.11-25.72 2.35-32.34-8.11zm-14.65 27.51c.01.03.05.08.06.1-.01-.02-.05-.07-.06-.1zm.88.94c1.03.48 1.6 1.27 1.69 2.37-1.66.02-2.23-.77-1.69-2.37zm1.89 4.07c.04.04.13.12.17.16-.04-.04-.13-.12-.17-.16zm5.11 5.98c1.04.39 1.63 1.15 1.77 2.29-1.68.05-2.27-.71-1.77-2.29zm11.14 17.53c.15.5.44 1.52.58 2.03l-.88-.25-.29-1.05zm.69 3.11c.25.46.74 1.39.99 1.85l-.9-.09-.5-.95zm1.11 4.16c.06.13.16.38.21.5-.05-.12-.15-.37-.21-.5zm7.22-.93c7.37 4.99 14.38 10.48 21.55 15.74-1.8 5.83-4.89 11.63-3.65 17.93.84 8.96 9.35 14.94 17.61 16.52 5.63 1.61 11.39-.09 17.09-.16 6.17-.29 13.28-1.25 18.4 3.05 7.19 6.17 9.13 16.51 7.51 25.5-2.93 12.36-8.45 24.1-10.02 36.79-15.43-.84-31.97-4.18-43.47-15.26-7.83-7-12.47-17.19-13.05-27.63-2.63-24.33-4.5-49.04-11.97-72.48zm-6.04 4.07c.01.06.05.2.06.26-.01-.06-.05-.2-.06-.26zm.91 3.47c.17.51.5 1.53.67 2.03l-.87-.2-.34-1.05zm517.66.97c.5-2.18 1.99 1.16 1.1 1.74-.32 5.78-.05 11.56-.05 17.34l-1.03.01c.34-3.29.61-6.62-.05-9.88-.11-3.07-.31-6.16.03-9.21zm-516.58 3.15c.51 1.21.82 2.51.7 3.86-1.88.28-1.82-3-.7-3.86zm515.6 20.84c-.14-1.09.09-2.08.67-2.98 1.15 1.48.93 2.48-.67 2.98zm-3.33 10.65.02-.07c-.02.04-.05.11-.07.15zm-2.03 3.01c.02-.02.05-.06.07-.08-.02.02-.05.06-.07.08zm-147.05 3.13c.38-1.13 1.15-1.68 2.31-1.65-.03 1.61-.8 2.16-2.31 1.65zm-12.05 8.94.05-.04c-.02.01-.08.04-.11.05zm146.93-.1.15-.09c-.07.05-.22.14-.29.19zm-3.85 2.15c.03-.02.09-.04.12-.06-.03.02-.09.04-.12.06zm-148.02.96.03-.03a.55.55 0 0 0 -.09.07zm145.93 0c.05-.02.14-.07.19-.09-.05.02-.14.07-.19.09zm-151 2.93.11-.07c-.06.03-.16.1-.22.13zm139.5.08c.89-.6 1.87-.83 2.95-.69-.49 1.61-1.47 1.84-2.95.69zm-141.56 1.05c.04-.02.14-.07.19-.1-.05.03-.15.08-.19.1zm-1.98.99c.04-.02.13-.06.17-.08-.04.02-.13.06-.17.08zm-1.93.88.13-.06c-.06.03-.19.1-.26.13zm-2.05 1.1c.04-.03.12-.07.17-.1-.05.03-.13.07-.17.1zm-2.16 1.24.4-.24zm-3.29.72 2-.76-.18.9-1.03.38zm-3.54 2.06c.05-.02.15-.05.19-.07-.04.02-.14.05-.19.07zm-2.03.8.14-.05c-.07.03-.2.08-.26.11zm-8.02 3.12c.07-.02.2-.07.27-.09-.07.02-.2.07-.27.09zm-2.96 1 .25-.08zm-2.99.98.25-.08zm-3.14 1.19.49-.2zm-4.27 1.01c.48-.22 1.45-.66 1.93-.88l-.15.9-.98.45zm-290.69 4.57.1.21.06.21c-.04-.1-.12-.32-.16-.42zm270.59.29c.89-.6 1.87-.84 2.94-.7-.46 1.6-1.44 1.84-2.94.7zm-4.94.97c.88-.62 1.85-.84 2.91-.65-.48 1.59-1.45 1.81-2.91.65zm-89.02.36c.48.21 1.45.65 1.93.87-.45 0-1.35.01-1.8.02zm82.05.65c1.22-.52 2.53-.9 3.88-.68.22 1.84-3.01 1.75-3.88.68zm-6.15 1.03c.9-.62 1.89-.85 2.97-.68-.48 1.57-1.46 1.8-2.97.68zm-250.67.82c.02.04.07.12.09.16-.02-.04-.07-.12-.09-.16zm189.8-.54c1.72-.18 3.43.14 5.08.68-1.29.83-4.98 1.33-5.08-.68zm50.94.68c1.59-.53 3.25-.95 4.94-.68l.08.53c-1.28 1.22-3.62 1.05-5.02.15zm-239.67 1.87c.03.05.08.16.11.21-.03-.05-.08-.16-.11-.21zm1.03 1.96.05.1.06.09c-.03-.05-.08-.15-.11-.19zm1.95 3.07c.02.02.06.08.08.11-.02-.03-.06-.09-.08-.11zm164.35.19c.03-.03.09-.11.12-.15-.03.04-.09.12-.12.15zm-162.36 1.86c1.09.44 1.64 1.22 1.68 2.33-1.66 0-2.21-.78-1.68-2.33zm153.24 6.06.03-.05a.43.43 0 0 1 -.1.09zm-3.02 1.98.09-.06c-.04.03-.14.09-.18.12zm-3.97 1.94.15-.06c-.08.03-.22.1-.3.14zm-2.05 1.07c.04-.03.14-.08.18-.1-.04.02-.14.07-.18.1zm-132.3.33c1 .28 1.79.86 2.39 1.74-1.7.61-2.49.03-2.39-1.74zm119.46 4.57c3.99-.99 7.63-2.93 11.44-4.42-1.39 1.5-1.46 3.61-.48 5.37.5 1.37 1.04 2.74 1.6 4.13.26.49.78 1.47 1.04 1.97 2.2 3.68 4.35 7.97 8.53 9.72 1.91 1.77 3.49 4.04 6.01 5 2.04 1.91 3.83 4.13 6.21 5.67 2.46 1.49 3.97 4.21 6.7 5.32.25.25.74.75.99 1 2.09 3.74 5.85 6.28 7.69 10.26.47 1.3.89 2.63 1.4 3.94.1.48.3 1.45.39 1.93 1.54 3.65 1.05 8.22.19 12.04-.99 1.7-1.86 3.48-2.6 5.33-.67.63-1.34 1.26-2.02 1.91-2.12 1.22-4.16 2.56-6.29 3.76-1.73.71-3.63.51-5.45.55-7.17-.06-14.35.04-21.53-.03l-1.03-.76c-7.22-1.02-14.86.82-21.98-.84-1-.35-1.99-.7-2.98-1.05-1.01-.32-2.02-.64-3.02-.95-1.05-.36-2.07-.77-3.06-1.22-.59-.05-1.78-.14-2.38-.19l-.11-.66c-1.5-.59-2.95-1.28-4.38-1.98-.48-.29-1.43-.85-1.91-1.14-1.48-.67-3.01-1.19-4.62-1.37l-.09-.82h-1.89l-.11-.7c-1.5-.61-2.96-1.26-4.41-1.92-1.37-.9-2.69-1.85-4.06-2.72-.51-.23-1.54-.7-2.06-.93-.5-.26-1.5-.76-2-1.01-.95-.48-1.91-.94-2.86-1.39-1.65-1.06-3.26-2.17-5.01-3.01-9.07-6.01-16.7-13.74-24.2-21.54-1.68-2.91-3.86-5.49-5.99-8.07-1.2-2.11-2.56-4.11-4-6.05-.86-1.45-1.84-2.8-2.73-4.2-.22-.62-.65-1.86-.86-2.48 4.48 1.13 9.02 2.09 13.62 2.61 1.25 4.59 4.2 8.38 7.16 12.01 5.42 6.5 10.88 13.11 17.84 18.07 8.31 7.11 17.74 12.83 27.78 17.15 13.35 5.53 27.26 10.21 41.73 11.54 5.5 1.08 11.11.01 16.53-1.04 6.89-1.6 12.61-7.31 13.57-14.42-2.06-5.93-5.19-11.7-10.54-15.25-8.29-8.1-18.34-14.4-25.27-23.82-4.33-4.51-7.27-10.02-10.5-15.3zm-111.3.03c.04.02.11.07.14.09-.03-.02-.1-.07-.14-.09zm3.57 1.32c.49.21 1.47.63 1.96.85l-.79.48-1.01-.42zm3.37 1.74c.03.02.11.06.14.08-.03-.02-.11-.06-.14-.08zm2 1c.04.02.13.06.17.08-.04-.02-.13-.06-.17-.08zm2.04.96c.05.02.14.07.19.09-.05-.02-.14-.07-.19-.09zm2.03.97c.04.03.14.07.19.09-.05-.02-.15-.06-.19-.09zm4.91 2 .11.05.1.03c-.05-.02-.15-.06-.21-.08z"/></g><path d="m436.27 48.99c6.04-5.16 13.83-8.13 21.71-8.77 8.62-.69 16.88 4.16 21.75 11.07 6.85 9.47 10.79 20.67 14.39 31.69 8.19 32 16.49 63.98 23.66 96.23 3.01 13.24 6.75 26.32 8.93 39.74 9.01 45.85 19.21 91.46 29.84 136.96 9.99 44.67 20.17 89.3 30.22 133.96-19.93 12.59-39.24 26.14-59.34 38.47-9.33 6.43-18.81 12.65-28.5 18.52-33.82 22.53-68.29 44.09-102.11 66.6.23-13.8-5.09-27.15-12.63-38.49-7.7-11.05-19.38-20.44-33.15-21.84-11.26-1.65-22.49.85-33.56 2.67-5.83 1.05-11.72 1.87-17.51 3.18-20.85 5.84-41.67 11.9-62.09 19.14-3.33 1.17-6.58 2.59-9.66 4.32-1.6.65-1.7 2.61-2.43 3.95 6.14-.26 12.12-1.78 18.11-3.03 14.61-3.56 29.08-7.64 43.58-11.61 10.83-2.69 21.76-4.96 32.59-7.66 5.54-1.42 11.31-1.22 16.97-1.61 4.64-.22 9.27-.77 13.92-.81 12.49.72 23.93 8.5 30.17 19.2 5.96 10.17 10.47 22.24 7.88 34.16-2.61 13.51-12 24.16-20.67 34.3-6.01 7.37-14.39 14.08-24.37 14-9.39-.29-16.89-7.43-20.8-15.48-.39-2.93 3.21-3.66 5.06-4.95-2.41-1.49-5.04-.01-7.31 1.06-9.82 5.11-17.38 13.47-26.69 19.33-29.76 19.6-62.86 36.21-98.77 39.83-33.96 3.6-69.97-7.82-93.6-32.95-5.96-6.42-10.91-15.28-8.72-24.31 6.93-31.33 26.91-58.42 51.45-78.49 22.83-19.05 49.51-33.39 77.83-42.39 8.16-1.95 16.15-5.04 24.61-5.34 11.14-.95 22.27-1.93 33.4-2.87-.63 5.19-1.79 10.33-2.18 15.55-.25 1.3 1.04 1.93 1.84 2.66 4.36-8.2 7.15-17.09 9.88-25.93 12.99-44.04 26.54-87.92 39.18-132.07 21.68-77.12 43.49-154.19 65.21-231.29 4.21-16.13 9.07-32.1 14.77-47.76 3.65-10.55 7.96-20.88 13.2-30.74 3.68-6.71 7.85-13.39 13.94-18.2m55.13 197.19c-4.79 3.76-4.92 10.31-5.12 15.88-.21 3.51 2.35 7.01 5.86 7.6 3.03.5 5.94-1.62 7.03-4.37 2.59-5.57 2.09-12.69-2.12-17.35-1.46-1.54-3.73-1.43-5.65-1.76m-57.12 86.42c.66 7.22 2.7 14.22 3.52 21.42-1.97-.11-3.94-.22-5.88-.51-25.31-3.96-50.61-7.92-75.93-11.8-2.59-.36-5.21-.31-7.8-.24.75 2.16 1.67 4.26 2.77 6.27-1.98 1.19-3.97 2.39-5.95 3.58 3.36 5.82 10.99 5.6 16.62 7.7.48 8.02.71 16.12 2.42 24 2.87 14.31 9.74 28.4 21.35 37.58 7.36 5.98 17.62 8.81 26.8 5.71 8.68-3.04 16.72-8.51 22-16.14 6.58-8.79 9.08-19.74 11.39-30.27 4.35 16.09 11.48 33.1 26.45 41.99 8.26 5.09 19.55 6.71 28.06 1.32 9.83-6.08 16.16-16.48 20.08-27.1 3.96-10.79 4.39-22.39 3.91-33.76 5.29-1.55 10.56-3.2 15.77-5.01.13-3.08-2.78-4.33-4.97-5.76 1.41-2.02 2.79-4.06 4.15-6.13-2.96-2.32-6.6-3.69-10.39-2.94-25.4 3.69-50.77 7.72-76.2 11.18-1.75-5.47-.75-11.22-.7-16.83-3.84 4.32-3.74 10.35-5.45 15.57-.21 1.34-1.65 1.16-2.63 1.42-1.38-7.63-4.1-15.45-9.39-21.25m-64.78 91.83c7.12 7.13 15.99 13.85 26.47 14.2 7.08.27 15.28-.92 19.82-6.99-4.67-.57-9.2 1.1-13.86 1.09-6.76.39-13.4-1.63-19.52-4.34-6.14-3.19-11.4-7.76-16.92-11.86-.46 3.2 2.11 5.66 4.01 7.9m128.45 6.31c-7.94 1.95-16.13 1.76-24.15.53 3.44 3.57 8.46 4.89 13.17 5.87 11.18 1.57 23.99-2.26 30.23-12.2-6.52 1.59-12.57 4.74-19.25 5.8m-108.82 31.89c-16.11 4.56-32.44 10.04-46 20.15.24.92.71 2.78.94 3.7 51.15-22.05 109.01-30.94 163.88-19.29 16.2 3.27 31.85 8.68 47.19 14.73-1.49-2.82-3.76-5.16-6.76-6.33-13.34-6.2-27.1-11.93-41.63-14.59-12.91-1.96-25.66-5.48-38.8-5.53-26.42-1.08-53.14.47-78.82 7.16m163.64-2.75c.51 1.74 1.24 3.46 2.64 4.69 4.52 4.21 8.96 8.56 12.75 13.45 1.9 2.43 2.4 6.77-.86 8.29-8.76 2.44-17.92 3.36-27 3.08.04.55.13 1.65.18 2.2 5.46 2.66 11.68 2.05 17.55 1.85 4.71-.58 9.99-1.45 13.41-5.06 3.11-3.88 1.5-9.34-.6-13.28-3.8-7.32-11.81-10.48-18.07-15.22m-215.5 7.51c-3.59 4.29-7.95 7.9-11.32 12.38-3.49 4.74-4.74 12.07-.61 16.82 3.65 4.23 9.78 2.72 14.69 2.96 3.31.24 6.47-.81 9.16-2.71-.44-.24-1.32-.71-1.76-.94-6.61-1.15-14.84.92-20-4.45-.35-6.17 2.86-11.69 6.75-16.21 2.21-2.78 5.2-5.04 6.47-8.46-.85.15-2.54.46-3.38.61m74.08 21.14c-1.53.71-3.38 1.32-3.83 3.24 6.83.18 13.6-.9 20.39-1.48 14.61-1.64 29.31-2.56 43.9-4.45-4.29-2.09-9.14-2.39-13.76-3.23-15.73-2.49-32.04-.17-46.7 5.92m-143.82 146.09c-3.11.28-5.2 2.72-7.32 4.73-.35 3.17.96 6 3.01 8.35 2.76-.05 5.56.22 8.29-.31 3.92-1.26 7.27-3.79 10.11-6.72.02-1.16.06-2.32.1-3.47-3.63-4.02-9.38-3.03-14.19-2.58z"/><path d="m232.96 706.38c31.69-9 59.8-27.85 83-50.91 1.25 2.68 2.69 5.28 4.27 7.78-12.09 7.48-24.03 15.19-35.83 23.13-13.79 8.86-27.57 17.74-41.26 26.77-9.35 5.55-17.98 12.22-27.44 17.6-3.12 1.92-6.04 4.15-9.18 6.07.79-8.98 2.52-18.81 8.68-25.76 5.76-2.06 11.93-2.79 17.76-4.68zm443.09 76.64c5.92-5.87 10.22-13.06 14.48-20.15-.19 4.4-.42 8.81-.75 13.21-.05 2.79-2.24 4.82-3.59 7.07-7.71 11.98-18.61 21.48-30.18 29.61-25.14 17.29-53.48 29.7-82.92 37.54-43.02 11.25-87.93 13.08-132.15 10.61-20.36-1.37-40.72-3.08-60.95-5.84-20.76-2.78-40.98-8.54-60.78-15.23-17.04-5.57-32.61-14.55-48.57-22.53-23.31-11.41-45-26.49-63.1-45.14.33-1.5.67-2.99 1.01-4.47 30.84 24.52 64.98 45.16 101.98 58.93 16.76 6.27 33.97 11.44 51.54 14.87 25.28 5.38 51.13 7.41 76.91 8.65 37.8 1.62 75.9-.14 113.09-7.41 33.04-6.07 64.55-19.09 93.21-36.44 10.86-6.89 21.97-13.76 30.77-23.28zm-430.57 44.77c9.9-1.89 20.49 1.1 28.02 7.77 9.73 8.46 13.67 22.94 9.32 35.12-3.97 12.32-15.89 21.55-28.79 22.38-14.42 1.23-28.95-8.23-33.49-21.99-4.83-12.88-.11-28.48 10.81-36.76 4.11-3.27 9.02-5.42 14.13-6.52m-11.57 14.13c-6.6 6.03-9.07 15.79-7.01 24.38 8.4-10.61 17.07-21.01 25.24-31.8-6.7.23-13.47 2.58-18.23 7.42m29.07-4.67c2.11 13.1 5.29 26 7.73 39.05 2.65-1.5 3.73-4.52 4.8-7.18 4.97-11.86-1.23-26.25-12.53-31.87m-18.01 20.03c4.61 1.26 9.27 2.35 13.93 3.47-.93-5.65-2.19-11.23-3.36-16.83-3.47 4.5-7.05 8.91-10.57 13.36m-13.93 17.76c6.62 10.46 21.47 13.22 32.34 8.11-.81-4.51-1.59-9.03-2.78-13.46-7.25-1.33-14.34-3.39-21.53-5.02-2.72 3.42-5.73 6.64-8.03 10.37z"/><path d="m491.4 246.18c1.92.33 4.19.22 5.65 1.76 4.21 4.66 4.71 11.78 2.12 17.35-1.09 2.75-4 4.87-7.03 4.37-3.51-.59-6.07-4.09-5.86-7.6.2-5.57.33-12.12 5.12-15.88zm259.15 196.44c6.08-1.05 12.3-.49 18.43-.41 5.11 1.22 10.58 1.16 15.41 3.53 5.15 2.99 8.82 7.77 12.73 12.14 3.43 4.19 5.6 9.2 8.6 13.67.11.49.33 1.45.45 1.94 8.14 18.37 14.6 37.41 20.56 56.58 1.9 8.18 4.44 16.23 5.69 24.56 1.81 5.99 1.64 12.3 2.69 18.44 1.44 7.9.68 15.95.84 23.94-1.32 11.31-2.92 22.67-6.66 33.49-3.79 12-9.41 24.26-19.52 32.22-6.34 6.12-14.93 10.24-23.84 10.31-9.2-1.07-17.32-6.02-24.56-11.49-4.29-3.14-6.93-7.86-10.12-11.98-.54-1.99-1.07-3.98-1.61-5.95-1.45-4-.06-8.39 2.1-11.84 2.79-3.7 7.84-2.62 11.84-2.74l2.24 2.36c.08.53.23 1.6.3 2.14 1.87 5.08 4.6 9.85 7.95 14.11.28-4.46-2.1-8.37-3.02-12.6-1.32-5.7-2.96-11.32-4.22-17.03l-.83-.07a226.6 226.6 0 0 0 -.1 3.71c-.77.76-1.53 1.53-2.28 2.31-5.46.24-11.29-.49-15.84-3.75-1.92-1.84-3.3-4.39-3.74-7 1.86-3.68 3.89-7.89 8.35-8.83 4.97-.79 10.07-.13 15.1-.41.58-.31 1.75-.95 2.33-1.26.25-1.07.52-2.13.8-3.19-1.31-9.92-4.66-19.6-10.18-27.96-1.5-2.21-3.53-4.11-4.47-6.64-.26-2.59 2.88-3.52 4.43-5.02-5.08-.39-9.65 2.23-13.98 4.5-9.8 5.86-19.3 12.5-27.18 20.82-13.76 13.27-24.93 28.96-34.58 45.4-3.31 5.93-5.05 12.54-6.96 19.01-.91.99-1.81 1.99-2.71 2.99-1.58-1.63-3.17-3.28-4.28-5.27-4.78-8.08-10.1-15.81-15.84-23.23-5.02-7.38-10.11-14.96-17.15-20.57 2.98 5.86 6.7 11.31 9.98 17l.56 1.92c8.14 13.98 16.62 27.79 24.17 42.11 2.35 3.81 4.5 7.77 5.85 12.06.34.44 1.01 1.31 1.34 1.75 6.31 16.49 12.32 33.72 11.36 51.65.83 10.73-2.19 21.29-5.7 31.31-7.24 14.17-17.65 27.33-31.69 35.24-3.85 2.47-7.78 4.82-11.64 7.27-8.66 4.57-16.28 11.21-25.61 14.42l-1.75 1.31a383.68 383.68 0 0 1 -26.49 10.6c-5.6 2.26-11.61 3.29-17.2 5.6-22.51 6.11-45.73 9.6-68.95 11.18-4.38-.36-8.61 1.19-12.98 1-11.67-.11-23.36.06-35.03-.08-3.95-.7-7.93-1.07-11.94-.99-4.3-.72-8.63-1.22-12.99-.89-33.87-2.91-67.91-7.2-100.52-17.34a320.086 320.086 0 0 1 -56.88-25.41c-13.09-7.19-25.79-15.08-37.64-24.18-3.88-1.98-6.55-5.52-10.08-7.99-5.36-4.69-10.7-9.77-13.56-16.44-3.1-5.27-4.86-11.31-4.4-17.45.15-.1.45-.29.59-.38 3.14-1.92 6.06-4.15 9.18-6.07 9.46-5.38 18.09-12.05 27.44-17.6 13.69-9.03 27.47-17.91 41.26-26.77 11.8-7.94 23.74-15.65 35.83-23.13l.31-.19c5.53 6.62 14.24 9.01 22.48 9.98 4.22-.28 8.42-1.1 12.49-2.24 1.01-.41 2.02-.81 3.04-1.19 3.06-1.95 6.4-3.48 9.14-5.88 3.45-3.26 7.67-5.73 10.24-9.84 4.56-4.95 8.32-10.52 11.68-16.33.94-2.37 1.89-4.72 2.75-7.11l.47-.83c1.71-5.28 2.43-10.99 3.99-16.16 33.82-22.51 68.29-44.07 102.11-66.6 9.69-5.87 19.17-12.09 28.5-18.52 20.1-12.33 39.41-25.88 59.34-38.47 2.43 3.42 2.33 7.74 3.56 11.61 1.29 4.6 2.62 9.21 4.7 13.54 1.7 3.49 2.64 7.39 5.04 10.52-.24-3.58-1.72-6.93-1.96-10.51-.3-4.97-2.63-9.62-2.16-14.68 11.13-7.85 22.26-15.78 34.42-21.99 1.79-.89 3.51-1.91 5.16-3.04.49-.14 1.46-.43 1.94-.57 4.35-3.22 9.83-4.15 14.53-6.71 5.23-2.87 11.01-4.46 16.52-6.69 5.86-2.39 12.07-3.75 17.98-6.01 20.89-6.2 42.35-10.64 64.05-12.72m-293.67 349.12c-3.45.51-6.96.17-10.43.33 2.48 5.34 9.92 7.81 14.92 4.41 4.15-1.52 7.45-5.24 6.76-9.91-3.81 1.6-7.22 4.14-11.25 5.17m-18.01 13.89c.84 2.12 1.35 4.66 3.43 5.99 4.37 3.69 10.28 4.37 15.72 5.28 7.19-.06 14.18-4.73 17.46-11.04-3.68 1.61-7.14 3.87-11.15 4.58-3.73.6-7.61 1.86-11.34.62-5.03-.98-9.14-4.34-14.12-5.43zm-171.34-171.01c4.81-.45 10.56-1.44 14.19 2.58-.04 1.15-.08 2.31-.1 3.47-2.84 2.93-6.19 5.46-10.11 6.72-2.73.53-5.53.26-8.29.31-2.05-2.35-3.36-5.18-3.01-8.35 2.12-2.01 4.21-4.45 7.32-4.73zm365.51 292.19c6.59-1.82 13.38-.2 20.03.39 18.07 1.63 35.92 6.94 51.61 16.12 4.75 1.99 8.65 5.32 12.41 8.76-3.29 8.67-4.75 17.93-8.52 26.43-1.58 3.7-3.69 7.17-5.01 11a33.926 33.926 0 0 0 -3.99 7.99c-8.78 16.17-19.3 31.62-32.8 44.26-8.25 8.77-17.86 16.9-29.69 20.19-4.31 1.04-8.8 2.94-13.24 1.33-7.35-1.36-12.15-7.97-14.14-14.76-2.43-8.45-2.24-17.51-.07-25.98 1.29-10.37 5.19-20.13 8.02-30.12 5.95-21.06 11.93-42.21 14.66-63.99zm-284.57 133.7c14.06-1.18 27.69-5.1 41.19-8.98 3.23 5.28 6.17 10.79 10.5 15.3 6.93 9.42 16.98 15.72 25.27 23.82 5.35 3.55 8.48 9.32 10.54 15.25-.96 7.11-6.68 12.82-13.57 14.42-5.42 1.05-11.03 2.12-16.53 1.04-14.47-1.33-28.38-6.01-41.73-11.54-10.04-4.32-19.47-10.04-27.78-17.15-6.96-4.96-12.42-11.57-17.84-18.07-2.96-3.63-5.91-7.42-7.16-12.01 7.99-1.14 16.09.04 24.08-1.09 4.33-.51 8.7-.51 13.03-.99z" fill="#317f05"/><g fill="#231f20"><path d="m434.28 332.6c5.29 5.8 8.01 13.62 9.39 21.25.98-.26 2.42-.08 2.63-1.42 1.71-5.22 1.61-11.25 5.45-15.57-.05 5.61-1.05 11.36.7 16.83 25.43-3.46 50.8-7.49 76.2-11.18 3.79-.75 7.43.62 10.39 2.94-1.36 2.07-2.74 4.11-4.15 6.13 2.19 1.43 5.1 2.68 4.97 5.76-5.21 1.81-10.48 3.46-15.77 5.01.48 11.37.05 22.97-3.91 33.76-3.92 10.62-10.25 21.02-20.08 27.1-8.51 5.39-19.8 3.77-28.06-1.32-14.97-8.89-22.1-25.9-26.45-41.99-2.31 10.53-4.81 21.48-11.39 30.27-5.28 7.63-13.32 13.1-22 16.14-9.18 3.1-19.44.27-26.8-5.71-11.61-9.18-18.48-23.27-21.35-37.58-1.71-7.88-1.94-15.98-2.42-24-5.63-2.1-13.26-1.88-16.62-7.7 1.98-1.19 3.97-2.39 5.95-3.58-1.1-2.01-2.02-4.11-2.77-6.27 2.59-.07 5.21-.12 7.8.24 25.32 3.88 50.62 7.84 75.93 11.8 1.94.29 3.91.4 5.88.51-.82-7.2-2.86-14.2-3.52-21.42m-64.05 54.2c2.11 7.43 6.24 14.1 10.84 20.24 4.55 5.87 10.41 11.16 17.74 13.14 8.68 1.74 18.11-.74 24.63-6.8 7.51-7.03 11.58-16.84 14.64-26.46 1.78-5.25 1.82-10.86 1.44-16.33-7.35-1.07-14.73-1.91-22.09-2.94-.93 3.05-1.82 6.34-4.33 8.5-4.48 3.93-11.93 3-15.44-1.77-2.62-2.92-2.34-6.99-2.14-10.62-9.03-1.09-18.02-2.51-27.04-3.61-1.67 8.87-.56 18 1.75 26.65m124.79-20.42c-.85 2.67-1.39 5.49-2.65 8.02-2.55 2.54-5.81 4.83-9.58 3.55-4.53.03-6.74-4.43-7.97-8.12-7.41 1.39-14.91 2.27-22.3 3.74.46 7.95 3.83 15.26 6.27 22.72 2.04 6.21 5.64 11.91 10.49 16.29 6 5.43 14.25 9.55 22.52 7.71 7-1.93 12-7.6 16.59-12.87 9.89-12.39 12.27-28.94 11.26-44.35-8.26.75-16.42 2.24-24.63 3.31z"/><path d="m369.5 424.43c-1.9-2.24-4.47-4.7-4.01-7.9 5.52 4.1 10.78 8.67 16.92 11.86 6.12 2.71 12.76 4.73 19.52 4.34 4.66.01 9.19-1.66 13.86-1.09-4.54 6.07-12.74 7.26-19.82 6.99-10.48-.35-19.35-7.07-26.47-14.2zm128.45 6.31c6.68-1.06 12.73-4.21 19.25-5.8-6.24 9.94-19.05 13.77-30.23 12.2-4.71-.98-9.73-2.3-13.17-5.87 8.02 1.23 16.21 1.42 24.15-.53zm-41.07 361c4.03-1.03 7.44-3.57 11.25-5.17.69 4.67-2.61 8.39-6.76 9.91-5 3.4-12.44.93-14.92-4.41 3.47-.16 6.98.18 10.43-.33zm-18.01 13.89c4.98 1.09 9.09 4.45 14.12 5.43 3.73 1.24 7.61-.02 11.34-.62 4.01-.71 7.47-2.97 11.15-4.58-3.28 6.31-10.27 10.98-17.46 11.04-5.44-.91-11.35-1.59-15.72-5.28-2.08-1.33-2.59-3.87-3.43-5.99zm161.78 93.97c1.95-2.76 3.52-6.1 6.84-7.47-5.27 12.84-12.1 24.99-17.79 37.65-2.3 5.31-3.69 12.28.4 17.09 7.56 8.07 17.75 12.87 26.61 19.24-.58 4.66-2.05 9.19-3.71 13.57-.5.31-1.49.94-1.98 1.25-1.47.6-2.96 1.47-3.63 2.99-.16.28-.47.82-.62 1.1l-.89.03c-1.16-.03-1.93.52-2.31 1.65-.16.34-.48 1.02-.64 1.35l-1.15.09c-1.12.04-1.89.6-2.34 1.68-1.07 1.82-3.2 2.58-4.84 3.77-.03.03-.11.08-.15.1-.72.48-2.16 1.43-2.88 1.91l-.05.04-.06.01-1.72.48c-1.06.17-1.88.72-2.44 1.64l-.69.85-.03.03-.06.04c-1.02.54-2.02 1.09-3.02 1.66l-1.88 1.16-.11.07-.11.06-1.76.97c-.05.03-.15.08-.19.1l-1.81.91c-.04.02-.13.06-.17.08l-1.8.82-.13.06-.13.07-1.75.93c-.05.03-.13.07-.17.1l-1.76 1-.4.24-1.29-.04-2 .76-1.25 1.25c-.52.19-1.57.55-2.1.74-.04.02-.14.05-.19.07l-1.89.75-.14.05-.12.06c-.67.27-1.99.8-2.65 1.07-.04.02-.12.05-.15.06l-1.92.87c-.06.03-.17.08-.22.1-.67.22-2.02.65-2.69.87-.07.02-.2.07-.27.09l-2.71.92-.25.08c-.68.23-2.06.68-2.74.9l-.25.08c-.66.25-1.99.74-2.65.99l-.49.2c-.59.03-1.76.1-2.34.13-.48.22-1.45.66-1.93.88l-1.03.22c-1.84.31-3.7.51-5.44 1.2-.96.07-1.91.15-2.86.26l-.71.48c-.38.2-1.14.62-1.52.83l-.55.13c-1.35.01-2.66.32-3.92.76l-1.13.28c-1.07-.14-2.05.1-2.94.7l-2.03.32c-1.06-.19-2.03.03-2.91.65-.77.09-2.32.25-3.09.33-1.35-.22-2.66.16-3.88.68-.79.09-2.39.26-3.18.35-1.08-.17-2.07.06-2.97.68-1.57.65-3.35.24-4.99.28-1.69-.27-3.35.15-4.94.68-2.47.53-5.02.35-7.51.6-9.79.6-19.64.78-29.42-.01-2.97-.33-6 .03-8.93-.59-1.65-.54-3.36-.86-5.08-.68-.78-.05-2.33-.16-3.1-.21-2-.39-4.01-.83-6.04-.77-1.33.04-2.65 0-3.96-.11-.48-.22-1.45-.66-1.93-.87l-2.49-.08c-1.02-.12-2.03-.23-3.03-.34.19 2.87.27 5.76.12 8.66l-.85 1.34c-.03.04-.09.12-.12.15-1.09 1.32-2.26 2.69-3.89 3.37-1.86.78-3.44 2.1-4.6 3.76l-.6.74-.03.05-.07.04c-.71.47-2.14 1.41-2.86 1.88l-.09.06-.09.06-1.76.92c-.04.02-.13.06-.18.08l-1.79.82-.15.06-.15.08-1.72.89c-.04.02-.14.07-.18.1l-1.4.48c-3.81 1.49-7.45 3.43-11.44 4.42-13.5 3.88-27.13 7.8-41.19 8.98-4.33.48-8.7.48-13.03.99-7.99 1.13-16.09-.05-24.08 1.09-4.6-.52-9.14-1.48-13.62-2.61l-1.25-.35-.1-.03-.11-.05c-1.56-.69-3.13-1.34-4.72-1.91-.05-.02-.15-.06-.19-.09l-1.84-.88c-.05-.02-.14-.07-.19-.09l-1.87-.88c-.04-.02-.13-.06-.17-.08l-1.86-.92c-.03-.02-.11-.06-.14-.08l-1.41-.89c-.49-.22-1.47-.64-1.96-.85l-1.38.04c-.08-.05-.24-.15-.32-.21l-1.73-1.06c-.03-.02-.1-.07-.14-.09l-1.2-.85c-1.19-1.04-2.68-1.58-4.2-1.9l-.37-.11c-.6-.88-1.39-1.46-2.39-1.74l-.38-.19c-1.26-1.56-2.74-2.96-4.61-3.72-2.09-1-3.54-2.87-5.2-4.4l-.03-.74c-.04-1.11-.59-1.89-1.68-2.33-.47-.49-1.43-1.46-1.91-1.94-.02-.03-.06-.09-.08-.11l-1.84-2.88-.06-.09-.05-.1-.92-1.75c-.03-.05-.08-.16-.11-.21l-.98-1.85c-.02-.04-.07-.12-.09-.16-.29-.48-.88-1.45-1.17-1.94-.13-.44-.4-1.32-.53-1.76l-.06-.21-.1-.21-.64-1.37c-.19-1.39-.25-2.71-.39-4.06-1.25-3.81-2.41-7.66-3.3-11.56.01-.31.01-.95.01-1.27.22-2.09-.4-4.12-.89-6.11-.08-.38-.25-1.14-.34-1.52-.4-3.27-.58-6.55-.88-9.82-.02-.29-.08-.87-.1-1.17-.35-4.25-.58-8.5-.81-12.74.01-.73.03-2.18.05-2.91.27-2.27-.4-4.48-.83-6.66l-.28-3.09c.03-1.82-.29-3.59-.73-5.31-.04-.46-.14-1.38-.19-1.85.12-1.35-.19-2.65-.7-3.86-.11-.52-.31-1.56-.41-2.09-.17-.5-.5-1.52-.67-2.03-.21-.8-.63-2.4-.85-3.21-.01-.06-.05-.2-.06-.26-.24-.66-.73-1.98-.97-2.64-.05-.12-.15-.37-.21-.5l-.12-2.31c-.25-.46-.74-1.39-.99-1.85l-.11-1.08c-.14-.51-.43-1.53-.58-2.03l-.09-.72c-.19-1.9-.58-3.96-1.96-5.34-2.28-2.49-4.88-4.67-6.87-7.4-.11-.44-.34-1.33-.45-1.78-.14-1.14-.73-1.9-1.77-2.29-.33-.15-.98-.46-1.3-.61l-.09-1.1c-.09-1.09-.64-1.89-1.66-2.39-.47-.43-1.42-1.29-1.89-1.72-.04-.04-.13-.12-.17-.16l-.2-1.7c-.09-1.1-.66-1.89-1.69-2.37l-.82-.84c-.01-.02-.05-.07-.06-.1l-.85-1.66c3.49-.3 7.01-.34 10.52-.3 11.43 17.97 25.5 34.33 42.13 47.7 3.43-6.66 6.91-13.3 10.04-20.1 4.09-8.54 6.01-18.26 3.83-27.6 1.77-.01 3.54-.01 5.32.01 2.33 10.12-.57 20.57-5.09 29.65-3.45 6.77-6.7 13.63-10.15 20.4 7.91 5.95 16.32 11.27 23.85 17.71-9.08-3.65-17.63-8.47-26.28-13.02-1.76 5.79-4.27 12.47-1.35 18.28 3.74 6.93 11.94 10.91 19.7 10.04 9.02-.45 19.12-3.61 27.23 1.96 8.64 4.77 12.99 14.78 12.97 24.35.63 8.01-3.31 15.23-5.69 22.63-2.69 6.75-5.55 13.55-6.03 20.91 4.82-.07 9.63-.23 14.43-.61 13.05-.92 26.42.14 39.16-3.41 14.18-3.55 28.35-8.01 41.04-15.4 5.31-2.69 3.61-11.88-1.96-13.11-6.91-2.27-13.88-4.38-20.8-6.64-14.49-4.21-28.12-11.91-38.54-22.91 3.33-.98 6.24 1.26 9.15 2.5 8.62 4.22 17.58 7.79 26.98 9.88 52.99 13.78 109.74 14.68 162.57-.38 21.23-6.34 41.6-15.8 59.81-28.48-8.32-6.68-17.7-12.43-24.08-21.18-2.16-2.94-4.52-6.05-4.79-9.82-.37-5.85 1.16-11.66 3.44-17 4.15-10.16 11.65-18.34 17.7-27.35m-356.22 37.81c7.47 23.44 9.34 48.15 11.97 72.48.58 10.44 5.22 20.63 13.05 27.63 11.5 11.08 28.04 14.42 43.47 15.26 1.57-12.69 7.09-24.43 10.02-36.79 1.62-8.99-.32-19.33-7.51-25.5-5.12-4.3-12.23-3.34-18.4-3.05-5.7.07-11.46 1.77-17.09.16-8.26-1.58-16.77-7.56-17.61-16.52-1.24-6.3 1.85-12.1 3.65-17.93-7.17-5.26-14.18-10.75-21.55-15.74z"/><path d="m713.07 900.67c1.61-.04 3.23-.05 4.86-.06 1.22 7.45 3.85 14.72 3.66 22.35.08 7.48-2.62 15.03-8.11 20.22 6.19 4.42 12.99 8.55 17.03 15.23 1.89 3.37 5.18 6.85 3.75 11.01-5.95-5.56-10.56-12.47-17.17-17.34-3.76-3.44-7.66-6.77-12.41-8.76-15.69-9.18-33.54-14.49-51.61-16.12-6.65-.59-13.44-2.21-20.03-.39-6.42 1.08-13.32-.02-19.36 2.96-5.15 2.15-8.23 6.99-11.73 11.04-.56-1.57-1.29-3.1-1.54-4.73 2.29-7.13 8.47-12.62 15.61-14.6 4.57-.93 9.22-1.36 13.83-2.1 16.77-3.08 34.09.05 49.98 5.69 10.97 3.71 20.98 9.56 30.98 15.28 4.53-4.41 6.26-11.07 5.46-17.23-1.03-7.49-2.04-14.98-3.2-22.45z"/><path d="m742.31 900.57c3.2.02 6.4.06 9.61.15.29 1.57.62 3.16.88 4.77l.03.42c.02 1.68.45 3.32.8 4.97l.1.81c.06 2.11.56 4.18 1.15 6.23l.16.65c.5 3.17.7 6.39 1.04 9.6l.03.35c.37 3.64.64 7.3.87 10.96-.08 5.18-1.96 10.57-.05 15.65.66 3.26.39 6.59.05 9.88-.08.48-.24 1.44-.33 1.92-.58.9-.81 1.89-.67 2.98l-.29.9c-1.17 2.82-2.39 5.65-2.81 8.71l-.21.97-.02.07-.05.08c-.47.71-1.43 2.13-1.91 2.85-.02.02-.05.06-.07.08l-.87.81c-.92.57-1.49 1.38-1.71 2.45-2.21 3.62-5.65 6.66-9.44 8.62l-.15.09-.14.1c-.4.29-1.21.88-1.61 1.18-.5.2-1.49.61-1.98.81-.03.02-.09.04-.12.06l-1.9.87c-.05.02-.14.07-.19.09-1.49.43-2.9 1.23-4.46 1.37-1.06-.07-2.05.16-2.95.71l-1.14.24c-1.08-.14-2.06.09-2.95.69-.5.09-1.49.26-1.99.35-4.48.44-8.98.5-13.47.36 1.73-3.1 3.5-6.18 5.29-9.24 9.47 1.11 19.66-.8 26.84-7.44 5.21-4.43 6.67-11.44 8.18-17.77 4.97-22.32 1.05-45.32-3.55-67.35z"/></g><path d="m370.23 386.8c-2.31-8.65-3.42-17.78-1.75-26.65 9.02 1.1 18.01 2.52 27.04 3.61-.2 3.63-.48 7.7 2.14 10.62 3.51 4.77 10.96 5.7 15.44 1.77 2.51-2.16 3.4-5.45 4.33-8.5 7.36 1.03 14.74 1.87 22.09 2.94.38 5.47.34 11.08-1.44 16.33-3.06 9.62-7.13 19.43-14.64 26.46-6.52 6.06-15.95 8.54-24.63 6.8-7.33-1.98-13.19-7.27-17.74-13.14-4.6-6.14-8.73-12.81-10.84-20.24zm124.79-20.42c8.21-1.07 16.37-2.56 24.63-3.31 1.01 15.41-1.37 31.96-11.26 44.35-4.59 5.27-9.59 10.94-16.59 12.87-8.27 1.84-16.52-2.28-22.52-7.71-4.85-4.38-8.45-10.08-10.49-16.29-2.44-7.46-5.81-14.77-6.27-22.72 7.39-1.47 14.89-2.35 22.3-3.74 1.23 3.69 3.44 8.15 7.97 8.12 3.77 1.28 7.03-1.01 9.58-3.55 1.26-2.53 1.8-5.35 2.65-8.02zm257.81 539.53c2.09-.02 1.86 3.75.8 4.97-.35-1.65-.78-3.29-.8-4.97zm-531.61 3.53c1.02.5 1.57 1.3 1.66 2.39-1.68-.08-2.23-.87-1.66-2.39zm532.51 2.25c2.31.61 1.73 4.42 1.15 6.23-.59-2.05-1.09-4.12-1.15-6.23zm1.31 6.88c1.93 2.72.49 6.46 1.04 9.6-.34-3.21-.54-6.43-1.04-9.6zm-521.68 6.44c1.38 1.38 1.77 3.44 1.96 5.34-1.82-.41-2.57-3.8-1.96-5.34zm522.75 3.51c1.79 3.28.51 7.35.87 10.96-.23-3.66-.5-7.32-.87-10.96zm-514.84 26.26c.44 1.72.76 3.49.73 5.31-2.02-.27-1.59-3.97-.73-5.31zm1.01 8.4c.43 2.18 1.1 4.39.83 6.66-2.36-.28-1.48-4.95-.83-6.66zm510.6 16.34c.42-3.06 1.64-5.89 2.81-8.71l.12 2.44c-1.04 2.06-1.38 4.45-2.93 6.27zm-509.82-6.77c.23 4.24.46 8.49.81 12.74-1.84-3.88-.48-8.55-.81-12.74zm364.33 11.17c.67-1.52 2.16-2.39 3.63-2.99.11 1.47-2.12 3.75-3.63 2.99zm140.65 2.91c.22-1.07.79-1.88 1.71-2.45.59 1.59.02 2.4-1.71 2.45zm-504.07-.17c.3 3.27.48 6.55.88 9.82-1.75-2.92-.46-6.6-.88-9.82zm355.47 3.16c.45-1.08 1.22-1.64 2.34-1.68-.06 1.63-.84 2.19-2.34 1.68zm-12.14 7.95c.56-.92 1.38-1.47 2.44-1.64-.07 1.73-.89 2.28-2.44 1.64zm-342.11.23c.49 1.99 1.11 4.02.89 6.11-2.18-.59-1.53-4.43-.89-6.11zm479.91 2.73c.9-.55 1.89-.78 2.95-.71-.49 1.62-1.47 1.85-2.95.71zm-479.03 4.65c.89 3.9 2.05 7.75 3.3 11.56.14 1.35.2 2.67.39 4.06h-.46c-.05-3.1-2.46-5.75-1.84-8.86-.44-.57-.88-1.12-1.31-1.66.02-1.71 0-3.41-.08-5.1zm288.55 13.84c1.74-.69 3.6-.89 5.44-1.2l-.33.63c-1.27.17-2.46.6-3.65 1.03-2.21.3-4.29 1.26-6.55 1.11.38-.21 1.14-.63 1.52-.83l.71-.48c.95-.11 1.9-.19 2.86-.26zm-9.56 2.46c1.26-.44 2.57-.75 3.92-.76.3 1.9-3.04 1.89-3.92.76zm-103.55 1.89c1 .11 2.01.22 3.03.34-.64.03-1.91.1-2.54.14-.02 2.72.15 5.48-.37 8.18.15-2.9.07-5.79-.12-8.66zm11.41 1.4c2.03-.06 4.04.38 6.04.77-1.54.87-5.65 1.42-6.04-.77zm23.15 2.25c9.78.79 19.63.61 29.42.01-1.32.96-2.97.71-4.49.78-8.33-.03-16.66.02-25-.06zm-43.9 13.63c1.16-1.66 2.74-2.98 4.6-3.76-.02 1.68-2.76 4.75-4.6 3.76zm-146.96 2.2c1.87.76 3.35 2.16 4.61 3.72-1.82 1.11-4.62-2.04-4.61-3.72zm7.75 5.76c1.52.32 3.01.86 4.2 1.9-1.21 1.16-4.46-.25-4.2-1.9z" fill="#fff"/></svg>