<svg shape-rendering="crispEdges" viewBox="0 -.5 36 40" xmlns="http://www.w3.org/2000/svg"><path d="m20 0h6m-9 1h3m5 0h1m-11 1h2m8 0h1m-12 1h1m11 0h2m-15 1h1m13 0h1m-18 1h2m1 0h1m12 0h5m-21 1h1m1 0h2m12 0h2m2 0h1m-27 1h3m3 0h1m2 0h2m4 0h2m5 0h1m3 0h1m-25 1h1m3 0h1m14 0h1m4 0h1m-25 1h1m5 0h1m3 0h3m11 0h1m-29 1h3m1 0h1m3 0h1m1 0h4m3 0h3m8 0h1m-31 1h2m3 0h3m2 0h2m6 0h1m2 0h1m7 0h1m-30 1h1m4 0h1m1 0h1m4 0h7m9 0h2m-30 1h1m1 0h2m3 0h1m3 0h7m1 0h1m7 0h4m-30 1h1m4 0h2m3 0h1m2 0h2m3 0h1m4 0h2m4 0h1m-31 1h2m5 0h1m2 0h3m5 0h1m4 0h1m4 0h5m-33 1h1m6 0h1m2 0h1m2 0h6m2 0h2m3 0h2m3 0h2m-33 1h1m6 0h1m2 0h1m3 0h1m1 0h2m2 0h1m3 0h2m5 0h2m-33 1h1m6 0h4m3 0h1m2 0h1m1 0h1m2 0h10m-31 1h1m4 0h2m2 0h1m4 0h1m1 0h2m2 0h1m4 0h1m5 0h2m-33 1h6m4 0h1m3 0h1m4 0h1m5 0h1m3 0h1m1 0h3m-34 1h2m5 0h4m4 0h1m1 0h2m6 0h6m2 0h1m-32 1h5m4 0h1m13 0h1m2 0h1m5 0h1m-24 1h1m13 0h1m2 0h1m5 0h1m-11 1h1m3 0h1m5 0h1m-23 1h1m4 0h1m5 0h2m3 0h1m5 0h1m-23 1h1m4 0h8m2 0h3m3 0h2m-23 1h1m10 0h2m2 0h1m1 0h5m-23 1h1m15 0h1m5 0h1m-23 1h1m2 0h1m12 0h1m5 0h1m-22 1h1m4 0h1m5 0h1m4 0h5m-21 1h3m2 0h1m2 0h3m-11 1h1m2 0h1m1 0h1m1 0h1m2 0h1m-11 1h1m3 0h1m1 0h1m-6 1h1m5 0h1m1 0h1m-10 1h2m1 0h1m3 0h1m1 0h1m-11 1h1m3 0h2m2 0h1m2 0h1m-13 1h1m5 0h1m2 0h1m2 0h3m-15 1h6m2 0h1m1 0h1m3 0h1m-7 1h2m1 0h3" stroke="#000"/><path d="m20 1h2m2 1h1m-10 1h1m9 0h1m-12 1h1m4 0h3m-4 1h1m9 1h1m-25 2h1m7 0h1m-9 1h1m6 0h1m12 0h1m-1 1h1m4 0h1m-27 1h1m20 0h1m-22 1h1m16 0h1m3 0h1m-20 1h2m17 0h2m-24 1h1m10 0h1m9 0h1m-21 1h3m15 0h2m-22 1h1m17 0h2m-15 1h1m6 0h1m4 0h2m-2 1h1m-11 1h2m4 0h1m12 0h5m-25 1h4m2 0h1m13 0h3m1 0h1m-29 1h5m4 0h2m-1 1h1m3 0h2m15 0h1m-22 1h1m19 0h2m-22 1h1m1 0h3m12 0h2m-18 1h1m-1 1h4m-4 1h1m-2 1h1m1 0h1m0 1h1m8 0h1m-12 1h4m-2 1h2m1 0h2m3 0h1m-8 1h1m1 0h1m3 1h1m-11 3h1" stroke="#464a5e"/><path d="m22 1h3m-8 1h7m-8 1h9m-10 1h4m3 0h5m-13 1h4m1 0h7m-12 1h5m4 0h3m-10 1h2m6 0h1m-20 1h1m10 0h2m6 0h1m-20 1h1m7 0h3m-11 1h1m17 0h1m-22 1h1m1 0h1m17 0h2m-23 1h2m1 0h1m1 0h1m14 0h3m-23 1h1m2 0h1m15 0h4m-21 1h3m14 0h3m-4 1h2m8 12h1m-1 1h5m-5 1h5m-20 7h1m7 0h1m-1 2h1m1 0h1" stroke="#53c1fc"/><path d="m11 6h1m13 1h1m1 0h1m-17 1h1m14 0h1m1 0h2m-4 1h1m1 0h2m-4 1h1m1 0h1m-3 1h1m1 0h1m-3 1h1m-12 15h1m2 0h2m3 0h1m-10 1h1m1 0h1m2 0h3m2 0h2m-13 1h2m2 0h1m4 0h3m-6 1h1m3 0h1" stroke="#38bb93"/><path d="m19 6h3m1 1h1m-1 1h1m-5 1h3m1 0h1m-8 5h1m11 0h2m-4 1h2m-4 1h2m-4 1h2m-3 1h1m-6 1h1m3 0h1m-5 1h1m1 0h2m-3 1h1" stroke="#f6b73c"/><path d="m22 6h1m-5 1h1m3 0h1m-5 1h1m3 1h1m-7 1h1m5 0h1m-6 1h1m1 0h1m-2 3h1m7 0h2m-11 1h1m6 0h2m-3 1h1m-9 1h1m5 0h1m-7 1h2m3 0h1m-2 1h1m-3 1h1m-2 2h1" stroke="#dc6921"/><path d="m29 6h1m-19 1h2m15 0h2m-3 1h1m-3 1h1m1 0h1m-3 1h1m1 0h1m-3 1h1m1 0h1m-3 1h1m1 0h1m-2 1h1m-25 3h5m4 0h1m17 0h2m-28 1h2m6 0h2m14 0h4m-29 1h1m2 0h1m5 0h2m-11 1h4m6 0h1m10 0h3m-5 1h5m-12 1h2m4 0h6m7 0h1m-20 1h2m4 0h6m5 0h3m-20 1h11m5 0h3m-15 1h7m9 0h1m-15 1h2m8 0h5m-3 1h2m-20 6h1m7 0h1m-8 1h2m3 0h2m-7 1h1m5 0h1" stroke="#f3f3e7"/><path d="m15 7h1m5 0h1m-9 1h3m3 0h4" stroke="#b5ef00"/><path d="m11 10h1m5 0h2m-7 1h5m3 0h1m-2 1h1m-2 1h1m-7 1h1m4 0h1m-5 1h4m-2 21h1m5 0h1m-10 1h5m4 0h2m-3 1h1m2 0h1" stroke="#fff048"/><path d="m2 15h1m3 0h1m5 1h1m15 0h1m-28 1h2m2 0h1m20 0h1m-26 1h1m1 0h2m1 0h1m6 0h1m-3 1h1m1 0h1m8 0h1m-11 1h1m1 0h1m17 1h1m-3 1h1m-6 1h1m-12 1h1m17 0h2m-19 1h3m1 0h1m2 0h2m7 1h1m-17 6h1m5 0h1m-8 1h1m7 0h1m-8 2h1m5 0h1" stroke="#c4c9da"/><path d="m19 22h1" stroke="#ffe265"/><path d="m16 27h2m2 0h3m-6 1h2m3 0h2m-6 1h4m-2 1h3" stroke="#87fba6"/><path d="m16 34h1" stroke="#636983"/></svg>