<svg clip-rule="evenodd" fill-rule="evenodd" viewBox="0 0 401 550" xmlns="http://www.w3.org/2000/svg"><g fill-rule="nonzero" transform="translate(-5.90673 -26.9667)"><g stroke-width=".09"><path d="m274.63 226.79c46.157-10.459 58.587 37.805 35.5 39.37-.3 2.12 5.19.28 8.25-2.7.43 17.82.23 35.78-2.85 53.4-.381 1.82.994 2.972 0 6.4-.802 2.764-4.006 7.988-4.268 8.68-4.042 10.684-11.811 19.637-18.942 28.44-8.48 9.51-18.73 17.9-30.89 22.15-8.17 2.28-16.82 3.49-25.25 2.01-9.01-1.79-17.73-4.75-26.46-7.55-9.2-3.5-17.63-8.69-26.18-13.5-4.286-2.389-8.328-5.15-12.18-8.163-5.935-4.641-11.421-9.88-16.66-15.277-.85-.81-1.71-1.61-2.53-2.43l.022-.275-.022.275c-2.5-3.14-5.74-7.45-3.55-11.56-.59-.94-1.18-1.88-1.79-2.8-4.61-6.94-10.11-13.23-15.7-19.38-3.55-3.88-6.61-8.55-11.61-10.72-2.52-1.18-4.66-3.01-6.42-5.16 2.41-2.2 5.53-3.91 8.91-3.44 6.21.71 11.69 4.27 17.98 4.69 3.83.08 7-10.73 6.75-17.02.11-2.94.39-5.86.6-8.79.62-.12 1.87-.35 2.49-.46-24.205-19.87 48.64-45.485 64.23-30.03.68-.5 1.35-1.01 2.03-1.51 1.64.13 3.28.25 4.92.36 1.77 4.44 48.87-3.97 53.62-5.01z" fill="#e0a382" stroke="#db987a"/><path d="m280.27 323.27c.49.48.49.48 0 0z" fill="#db987a" stroke="#db987a"/><g stroke="#0a0303"><path d="m259.1 283.81c2.65 1.26 4.74 3.33 6.6 5.55.1 4.95-1.11 9.76-3.04 14.29-.62.02-1.87.05-2.5.07.59-2.92 1.36-5.79 2.31-8.61.31-.97.62-1.95.94-2.91-2.11-2.41-3.83-5.18-4.31-8.39z"/><path d="m119.52 293.16c5 2.17 8.06 6.84 11.61 10.72 5.59 6.15 11.09 12.44 15.7 19.38-.03.66-.09 1.97-.12 2.63-4.87-4.32-9.09-9.29-13.92-13.64-1.44 3.58-3.23 7.57-1.78 11.45 1.07 3.93 4.75 6.08 7.87 8.24-3.51-.41-7.73-.57-9.85-3.9-4.04-5.86-1.45-13.31 1.67-18.96-3.96-5.1-9.75-9.3-11.18-15.92z"/><path d="m234.58 336.27c3.51-4.23 16.42-7.7 24.42-7.7 7 0 15.25 1.9 16.23 5.85-5.15-.59-10.061-2.869-15.22-2.82-5.23.05-10.99 1.21-16.16 3.12-2.99.98-6.07 2.63-9.27 1.55z"/><path d="m147.83 437.03c2.87.24 5.77.6 8.47 1.71 14.41 5.49 27.51 13.97 42.18 18.84 8.32 2.92 16.71 6.11 25.49 7.23.75.91 1.5 1.83 2.25 2.76-20.26-2.22-39.07-10.66-57-19.89-6.92-3.97-14.44-6.75-21.39-10.65z"/><path d="m277.55 455.62c3.57-2.41 7.41-4.56 10.4-7.72-2.07 3.37-4.37 6.61-6.94 9.62-1.34-.07-2.82-.46-3.97.47-7.79 4.89-16.72 10.08-26.26 8.76 4.89.08 9.38-2.06 13.79-3.89 4.57-1.94 8.86-4.48 12.98-7.24z"/><path d="m336.75 479.9.56.14v1.48l-.66.31-.48-.92z"/></g><g fill="#7c4643" stroke="#7c4643"><path d="m184.09 49.08c5.06-4.11 10.05-8.29 15.08-12.43.81 6.13-.21 12.37-2.51 18.08-1.26 2.91-1.29 6.1-1.28 9.21 5.36-4.58 7.65-11.41 9.16-18.06 4.62 4.14 4.73 10.87 3.76 16.54-.45 2.43-2.17 4.36-4.11 5.76-3.88 2.81-8 5.26-12.04 7.82 6.02 1.53 11.57-2.24 15.83-6.06 5.14-4.67 12.44-5.17 19.03-5.67-3.35 2.01-7.35 2.92-10.22 5.68 3.77-.35 7.41-1.39 11.1-2.19 9.14-2.1 18.5-3.26 27.88-3.41-.06.53-.18 1.58-.24 2.11-6.56 3-13 6.33-20.08 7.94-.64 2.09 2.39 1.68 3.7 1.87 6.53-1.27 12.87-3.96 18.23-7.93 2.07-1.41 4.16-3 6.69-3.45 5.06.05 9.86 2.04 14.9 2.35 10 .74 19.97-.89 29.81-2.46 6.35-.94 11.84-4.43 17.28-7.6 2.27 4.96 2.64 10.45 2.44 15.83.22 10.24-3.2 20.04-4.21 30.14 2.47-.4 5.12-.99 6.68-3.16 5.43-6.65 7.76-15.14 10.29-23.19 3.52 7.89 3.35 16.74 3.49 25.21.3 7.51-2.1 14.7-3.72 21.94-.89 3.97-2.74 7.61-4.8 11.09 6.37 2.78 13.12 4.8 18.95 8.68 5.15 3.09 8.73 8.04 12.44 12.64 3.53 4.45 6.54 9.38 8.18 14.86-7.82-3.24-15.44-7.56-24.07-8.16 2.68 7.44 9.95 11.68 13.77 18.4 9.1 12.92 20.6 25.4 36 30.48-2.36 2.53-4.54 5.2-6.6 7.97-3.56 4.8-8.47 8.39-13.54 11.45-7.45 4.38-16.27 4.9-24.58 6.4 4.66 2.92 10.37 1.55 15.54 2.17-3.56 2.66-7.78 4.14-11.99 5.44.01.55.04 1.67.05 2.23 4.01.15 8.05.36 12.04-.21 4.03-.67 7.83-2.21 11.74-3.3-1.8 4.93-4.35 9.55-6.96 14.09-2.36 3.98-5.83 7.63-10.36 9.02-2.89.84-5.82-.18-8.6-.93-.4 6.33-.76 12.73-2.67 18.83-1.04-1.58-1.91-3.27-2.58-5.03-2.33-5.95-6.17-11.13-9.55-16.5-3.96-5.34-9.97-9.27-12.01-15.91-2.82-7.77-.71-16.18 1.57-23.79 2.11-5.78 5.04-11.49 4.73-17.82.36-9.51-.18-20.96-8.44-27.25 1.01 6.22 4.74 11.72 4.78 18.15 1.27 8.81-1.87 17.44-5.87 25.13-2.58 4.53-5.68 8.85-9.74 12.18-.52-9.43.51-18.91-.66-28.3-.05-1.99-1.28-3.54-2.48-4.98-1.63 2.84-2.87 5.91-3.35 9.17-1.01.13-2.03.26-3.04.4-1.06-13.97-4.31-27.67-8.43-41.04-.84.07-1.68.14-2.51.22-.7-2.65-1.57-5.25-2.65-7.76-1.55 4.81-.33 9.95-1.46 14.84-2.55 12.23-6.94 24.4-15.05 34.09-2.55-.36-5.08-.9-7.55-1.61 1.3-2.91 2.85-5.69 4.54-8.39 2.27-3.76 3.95-7.87 5-12.12.97-4.19.4-8.49.25-12.73-2.34 7.58-8.27 13.03-12.4 19.57-3.06 4.84-7.24 8.78-10.9 13.14-4.19 5.23-9.46 9.56-12.94 15.35-4.83 4.18-11.2 6.58-17.45 7.73.7-1.7 1.44-3.4 2.48-4.94 5.15-7.29 8.64-15.57 12.33-23.65 1.89-4.59 7.2-6.53 8.91-11.27-4.8.9-8.41 4.4-12.73 6.39-11.42 5.52-23.46 11.04-36.41 10.95-4.67-.19-9.47-.93-13.5-3.45 3.63-3.17 8.08-5.13 12.48-6.97 5.65-2.35 12.2-2.82 17.02-6.9 4.02-3.36 7.95-6.85 12.3-9.81 3.56-2.41 5.84-6.21 6.94-10.31-4.82 2.55-9.05 6.11-14.09 8.25-4.54 1.96-9.19 3.64-13.84 5.3-4.63 1.68-9.68 1.08-14.41 2.34-6.89 1.98-14.04.47-21.04.29-4.43-.85-8.22-3.71-10.77-7.36 4.07-1.33 8.41-1.16 12.53-2.21 11.3-2.88 22.74-5.63 33.32-10.64 1.96-.9 3.69-2.21 5.3-3.64-4.16.55-8.14 1.93-12.23 2.82 6.14-6.34 14.6-9.96 20.33-16.71-11.23 4.3-20.64 12.1-31.03 18.01-8.99 6.08-20.15 6.46-30.44 8.57-3.2.23-3.17 4.1-2 6.29 2.9 5.88 9.87 7.74 15.73 9.2 9.71 2.37 19.72 1.08 29.48-.15-5.23 3.64-10.53 7.74-16.93 8.99-6.26.92-8.41 7.65-13.08 11.01-6.7 5.17-15.74 8.53-19.22 16.86-7.17 1.67-10.64 8.91-16.99 11.99-1.62.87-3.27 1.69-4.91 2.52.67-1.56 1.34-3.12 2.06-4.65 4.11-7.16 9.91-13.4 12.85-21.22.53-1.26.13-2.63-.01-3.91-1.72.91-3.41 1.88-5.15 2.76.12-5.64 2.55-10.97 2.13-16.66-3.75 5.67-6.42 12-8.4 18.48-1.58 5.02-.07 10.96-3.68 15.28-3.25 5.37-8.08 10.57-8.38 17.11-.31 2.13 2.13 1.94 3.57 1.9 5.03-.6 9.42-3.37 14.19-4.88.34 8.53-.14 17.09.54 25.6 1.03 4.61 3.11 8.96 3.68 13.7-3.54-1.71-6.77-4.12-8.98-7.41-1.64-2.46-3.61-4.74-6.37-5.97-1.19 3.53.48 7.01 1.24 10.43-4.76-3.05-8.67-7.45-10.71-12.76-1.9-4.06-1.66-8.8-4.04-12.67-.31.57-.92 1.72-1.23 2.3-3.61 8.3-11.27 13.5-17.41 19.77-4.62 4.73-9.73 8.97-14.28 13.77-3.81 3.88-5.68 9.28-9.92 12.78-.01-4.15-.05-8.3-.07-12.45-.09-4.45 1.17-9.22-1.32-13.27-7.31 6.2-12.11 14.52-17.28 22.43-3.51 5.69-5.6 12.21-9.95 17.37-.74-5.06-.31-10.22-1.27-15.25-.5-2.72-.87-5.47-.94-8.23 1.52-4.22 4.29-7.84 7.28-11.13-6.3-2.1-12.68-4.7-17.66-9.19-3.75-4.72-6.57-10.13-9.16-15.55 6.99 1.33 14.24 1.02 20.85-1.77-2.55-4.04-8.06-3.81-11.36-7.02 3.17-.8 7.05-.06 9.54-2.6-6.99-2.27-14.64-3-20.91-7.09-4.54-3.24-8.74-7.03-11.92-11.64 13.44-2.51 26-10.72 33.09-22.51 3.51-5.43 9.03-10.58 8.09-17.67-2.27 2.74-3.11 6.66-6.59 8.25.74-4.31 2.18-8.44 3.41-12.62 3.46-13.03 12.66-24.1 23.94-31.21 2.07-1.54 3.89.99 5.71 1.8 2.8 2.12 6.37 1.94 9.69 1.76-.36 6.72.82 13.71 5.34 18.96 1.67-6.38 1.27-13.71 5.42-19.18 5.17-5.06 11.65-8.5 17.6-12.53 3.48-2.53 8.02-1.88 12.05-2.45-5.68-4.09-13.08-3.22-19.51-1.76-1.36.1-2.95.97-4.16.01 1.14-6.59 3.43-13.26 7.97-18.31 4.07-4.67 8.75-8.75 13.13-13.12-3.55-.6-7.19-.38-10.63.7-3.81.92-6.28 4.19-9.29 6.44-3.28 2.45-5.16 6.17-7.19 9.62-1.38-1.44-3.39-2.61-3.77-4.73-.69-3.95-.51-7.99-.52-11.98.33-4.44 2.07-8.62 3.29-12.87 2.69-8.67 8.27-16.13 14.61-22.49 4.56-4.21 9.42-8.45 15.48-10.3-1.04 3.9-1.51 8.32-4.49 11.33-3.72 3.93-8.06 7.43-10.71 12.22-1.72 3.77-2.91 8.41-.72 12.25 1.75-3.2 2.85-6.83 5.28-9.62 9.22-9.16 18.13-19.02 29.69-25.31 4.01-2.03 8.08-3.95 12.12-5.94 8.29-4.21 17.83-5.87 25.32-11.63z"/><path d="m269.27 214.24c1.73.3 3.32 1.06 4.93 1.72-2.66 4.12-7 6.55-11.53 8.09 1.78-3.51 3.57-7.2 6.6-9.81z"/><path d="m176.99 224.91c7.7-.47 15.29-2.44 23.04-1.97-2.65 1.66-5.1 3.61-7.52 5.59-8.18 3.86-15.82 8.98-24.58 11.5-1.9.57-3.89.72-5.85.93 2.12-5.16 5.62-9.55 8.84-14.04 1.28-2.03 4.03-1.59 6.07-2.01z"/></g><path d="m74.63 118.7c2.73-6.04 5.68-12.14 10.41-16.91.52 5.39 1.35 10.75 1.84 16.14.25 5.64-2.15 10.94-2.34 16.53.21 5.99 2.84 11.55 3.68 17.45-4.84-1.72-9.58-3.73-14.19-5.99-1.46-.7-1.79-2.46-2.24-3.85-1.99-7.78-.78-16.24 2.84-23.37z" fill="#794440" stroke="#794440"/><path d="m200.665 216.444c-7.838 1.665-25.133 4.414-25.133 4.414s-1.732-2.766-1.732-3.018c0-.229 8.08-6.86 8.77-9.7 1.8.58 3.61 1.17 5.42 1.72 2.81.85 5.63 1.65 8.42 2.58m0 0c5.97-.04 11.96-.09 17.87-1.07-1.547 2.976-6.388 3.977-10.365 4.17.187.007-3.19.917-3.25.904" fill="#7c4643" stroke="#7c4643"/><g fill="#6a3a33" stroke="#6a3a33"><path d="m114.99 112.09c3.44-1.08 7.08-1.3 10.63-.7-4.38 4.37-9.06 8.45-13.13 13.12-4.54 5.05-6.83 11.72-7.97 18.31 1.21.96 2.8.09 4.16-.01 6.43-1.46 13.83-2.33 19.51 1.76-4.03.57-8.57-.08-12.05 2.45-5.95 4.03-12.43 7.47-17.6 12.53-4.15 5.47-3.75 12.8-5.42 19.18-4.52-5.25-5.7-12.24-5.34-18.96-3.32.18-6.89.36-9.69-1.76 2.1.27 4.22.55 6.34.5.03-.31.09-.94.13-1.26-4.02-3.27-8.89-6.04-10.53-11.33 4.61 2.26 9.35 4.27 14.19 5.99-.84-5.9-3.47-11.46-3.68-17.45.19-5.59 2.59-10.89 2.34-16.53 1.25 2.32 2.57 4.66 4.67 6.32.88-4.27.96-8.73 2.67-12.81.01 3.99-.17 8.03.52 11.98.38 2.12 2.39 3.29 3.77 4.73 2.03-3.45 3.91-7.17 7.19-9.62 3.01-2.25 5.48-5.52 9.29-6.44z"/><path d="m297.99 169.73c.83-.08 1.67-.15 2.51-.22 4.12 13.37 7.37 27.07 8.43 41.04 1.01-.14 2.03-.27 3.04-.4-.43 2.16-1 4.3-1.64 6.42-2.11-.23-4.22-.46-6.32-.69-.68-9.65-2.14-19.28-4.38-28.68-2.27-5.56-2.44-11.6-1.64-17.47z"/><path d="m223.11 180.13c5.04-2.14 9.27-5.7 14.09-8.25-1.1 4.1-3.38 7.9-6.94 10.31-4.35 2.96-8.28 6.45-12.3 9.81-4.82 4.08-11.37 4.55-17.02 6.9 2.61-2.93 7.59-4.65 6.75-9.36-11.27-1.11-23.01 3.14-33.87-1.48 7 .18 14.15 1.69 21.04-.29 4.73-1.26 9.78-.66 14.41-2.34 4.65-1.66 9.3-3.34 13.84-5.3z"/><path d="m281.07 176.05c.15 4.24.72 8.54-.25 12.73-1.05 4.25-2.73 8.36-5 12.12.27-1.95.54-3.89.82-5.83-2.11 2.76-4.15 5.57-6.35 8.26-2.51 3.15-6.33 4.94-8.66 8.27-2.12 2.9-4.9 5.19-7.78 7.3-2.81 2.03-5.38 4.81-9.02 5.21 3.48-5.79 8.75-10.12 12.94-15.35 3.66-4.36 7.84-8.3 10.9-13.14 4.13-6.54 10.06-11.99 12.4-19.57z"/><path d="m174.03 212.24c4.67-3.36 6.82-10.09 13.08-11.01-1.05 1.4-3.33 2.5-2.83 4.55.73 1.73 2.41 2.8 3.71 4.08-1.81-.55-3.62-1.14-5.42-1.72-.69 2.84-1.3 5.71-1.72 8.61-.175.279-3.16 3.83-5.4 4.12-.53-1.02-1.08-2.04-1.65-3.03-4.05 3.1-8.73 5.23-13.75 6.19.97.8 1.94 1.61 2.92 2.41-6.23 6.81-14.06 12-22.12 16.4-3.53 1.98-7.29 3.59-11.28 4.35.58-3.42 2.81-6.09 5.4-8.23-.72 1.53-1.39 3.09-2.06 4.65 1.64-.83 3.29-1.65 4.91-2.52 6.35-3.08 9.82-10.32 16.99-11.99 3.48-8.33 12.52-11.69 19.22-16.86z"/><path d="m303.77 220.9c1.44.41 2.89.81 4.34 1.21-1.02 2.28-2.15 4.51-3.41 6.66-1.03-2.5-1.08-5.21-.93-7.87z"/></g><g stroke="#b78675"><g fill="#bb8470"><path d="m291.71 196.64c.85-2.1 1.98-4.07 3.38-5.85 1.2 8 3.06 15.91 3.7 23.98-5.04-.95-10.34-1.05-15.04-3.29 2.94-4.78 5.8-9.64 7.96-14.84z"/><path d="m223.96 212.48c4.87-3.31 9.37-7.26 14.8-9.67-4.77 9.26-9.02 18.96-15.73 27.03-5.2-1.98-10.71-4.55-16.38-2.81 4.22 3.2 10.12 1.7 14.36 4.77-1.64-.11-3.28-.23-4.92-.36-.68.5-1.35 1.01-2.03 1.51 2.86 2.12 5.56 4.48 7.79 7.26-4.31-3.25-8.85-6.57-14.22-7.79-3.88-.96-7.9-.86-11.86-.96 2.13-1.55 4.26-3.11 6.45-4.57 2.8-1.73 5.55-3.54 8.23-5.45 5.76-4.06 14.45-2.47 18.94-8.57-1.81-.16-3.62-.28-5.43-.39z"/><path d="m277.38 218.26c1.63-1.25 3.75-.75 5.63-.55 5.58.93 11.19 1.67 16.78 2.5.32 2.86.54 5.73.7 8.6-6.31-1.37-12.85-3.09-19.28-1.35-6.24 1.04-11.28 5-16.27 8.58 1.98-4.25 6.83-5.74 9.69-9.25-4.75 1.04-8.59 4.07-12.39 6.9-1.56-.68-3.17-2.42-4.93-1.31-7.03 3.3-13.9 7.71-21.95 7.75-.31-1.69-.61-3.36-.91-5.04-.66-.08-1.97-.22-2.63-.29 3.94-1.88 8.27-2.81 12.1-4.95 5.9-3.27 11.41-7.2 17.04-10.91-.4 2.81-3.92 5.86-1.97 8.48 1.9.08 3.8-.07 5.7-.19-1.01 1.51-1.97 3.06-2.87 4.64 3.36-1.96 6.68-4 9.9-6.18 2.87-1.68 2.54-5.98 5.66-7.43z"/></g><path d="m306.15 232.96c2.72-3.11 5.02-6.57 7.98-9.46.64 4.88-.15 9.75-1.11 14.53-2.48-1.42-4.74-3.17-6.87-5.07z" fill="#b78675"/><g fill="#bb8470"><path d="m146.81 244.77c4.18-3.42 8.56-6.63 12.91-9.84-.52 2.79-3.03 5.87-1.38 8.59 3.48 2.43 8.05.33 11.98 1.17-6.94 5.66-14.13 11.12-22.25 15 .57 1.1 1.15 2.2 1.76 3.29-.62.11-1.87.34-2.49.46-.21 2.93-.49 5.85-.6 8.79-1.63-5.94-1.18-12.14-1.09-18.22.15-3.09.18-6.28 1.16-9.24z"/><path d="m316.72 239.76c.97-.27 1.97-.41 2.99-.44-.2 1.49-.36 2.99-.51 4.49-.98-.31-1.91-.73-2.78-1.27-.13-.96-.03-1.88.3-2.78z"/><path d="m109.53 312.76c-.47-8.35-.81-17.28 3.57-24.76 1.76 2.15 3.9 3.98 6.42 5.16 1.43 6.62 7.22 10.82 11.18 15.92-3.12 5.65-5.71 13.1-1.67 18.96 2.12 3.33 6.34 3.49 9.85 3.9-3.12-2.16-6.8-4.31-7.87-8.24-1.45-3.88.34-7.87 1.78-11.45 4.83 4.35 9.05 9.32 13.92 13.64.03-.66.09-1.97.12-2.63.61.92 1.2 1.86 1.79 2.8-2.19 4.11 1.05 8.42 3.55 11.56.82.82 1.68 1.62 2.53 2.43-4.1-1.55-8.46-.15-12.68-.25-6.77.29-13.49-1.5-19.62-4.25-7.84-4.72-12.15-13.9-12.87-22.79z"/></g></g><path d="m324.66 235.92c1.62-4.68 4.98-8.51 8.34-12.05-2.28 7.61-4.39 16.02-1.57 23.79 2.04 6.64 8.05 10.57 12.01 15.91 3.38 5.37 7.22 10.55 9.55 16.5-1.35-1.36-2.71-2.7-4.09-4.02 1.02 6.05 2.3 12.05 3.46 18.08 6.54-2.91 7.47-10.6 9.6-16.58 4.08 8.48 6.21 17.93 11.9 25.6 3.15 5.02 7.53 9.03 12.23 12.57-9.94.8-19.63-1.8-29.04-4.65 2.47 4.23 6.94 6.39 11.07 8.68-5.65.54-11.3 1.11-16.92 1.91.82 5.49 3.57 10.43 4.49 15.89 2.09 11.7 2.32 24.04-1.6 35.39-.88 2.68-2.52 4.99-4.27 7.16-4.27-5.32-6.55-11.86-10.59-17.33-2.07-2.69-3.78-6.49-7.66-6.68.27 12.32-6.3 24.18-16.15 31.36-3.47 2.72-6.69 6.3-11.4 6.57 1.11-7.51 5.3-15.9.83-23.06-2.13 8.86-8.63 16.45-17.15 19.73-7.44 2.95-15.26 5.51-23.27 6.12.09-3.24-1.15-7.28 1.69-9.7 4.25-3.96 10.05-5.72 14.27-9.74 4.12-3.9 9.39-6.49 12.9-11.04 2.89-3.73 6.63-6.7 9.5-10.44 7.51-10.49 14.13-22.06 16.21-34.96 6.43-24.59.93-50.39 6.55-75.06.08-3.34-1.96-6.6-.89-9.95z" fill="#603432" stroke="#603432"/><path d="m98.81 280.81c6.14-6.27 13.8-11.47 17.41-19.77-.36 2.56-.85 5.14-.66 7.73.34 3.38 1.89 6.52 2.16 9.92-3.2 2.06-7.24 3.28-9.05 6.95-5.31 7.32-5.59 16.67-5.38 25.35-.28 7.36.9 15.22 5.54 21.18 4.9 6.05 12.44 8.83 19.63 11.11 6.69 2.02 13.72 1.12 20.58 1.42 3.07-.09 4.39 3.16 6.32 4.99 2.77 3.56 7.99 5.49 8.7 10.39 1.58 9.69 3.96 19.44 2.97 29.33-7.67-.53-10.68-8.22-14.62-13.56-1 7.14.65 14.15 2.52 20.99-6.79-2.58-11.63-8.17-16.8-12.99-4.74-4.43-3.93-12.61-9.71-16.1-.5 5.23-.8 10.7 1.06 15.73 1.46 4.6 4.14 8.64 6.45 12.82-7.37.38-13.54-4.2-19.76-7.45-10.69-7.51-17.63-18.91-24.47-29.76-1.64 4.62-3.62 9.14-4.77 13.92-1.16 4.56-1.3 9.34-2.8 13.83-4.54-3.07-7.78-7.63-11.13-11.88-4.67-8.28-9.01-17.26-9.24-26.95-.2-4.73-.45-9.51.6-14.17 1.94 4.07 2.29 8.93 5.35 12.42 2.58 3.1 5.18 6.95 9.68 6.97-.16-7.52 1.24-14.94 1.22-22.45-4.15 3.65-4.45 9.54-5.93 14.51-6.61-6.06-5.81-15.57-7.52-23.58-2.9 4.92-7.65 8.06-12.24 11.22-5.14 3.43-8.15 8.98-12.6 13.13-3.17-5.48-5.46-11.6-5.07-18.02-.64-10.38 1.38-20.99 6.53-30.08.07 2.76.44 5.51.94 8.23.96 5.03.53 10.19 1.27 15.25 4.35-5.16 6.44-11.68 9.95-17.37 5.17-7.91 9.97-16.23 17.28-22.43 2.49 4.05 1.23 8.82 1.32 13.27.02 4.15.06 8.3.07 12.45 4.24-3.5 6.11-8.9 9.92-12.78 4.55-4.8 9.66-9.04 14.28-13.77z" fill="#603432" stroke="#603432"/><path d="m271.28 276.43c.08.05.24.14.32.18-.08-.04-.24-.13-.32-.18z" fill="#e0a382" stroke="#e0a382"/><path d="m268.84 240.82c6.17-6.34 15.81-8.87 24.37-6.93 8.89 3.41 14.52 11.73 19.01 19.71-3.47-1.21-6.77-2.82-10.03-4.47-.03 1.63-.06 3.26-.02 4.89-2.02-6.73-4.26-14.83-11.59-17.56-9.44-4.11-19.525 7.87-20.365 17.56-1.23-1.75-6.445-1.64-6.235 2.18-.48-2.72-.95-5.45-1.22-8.2 1.13-3 3.91-4.94 6.08-7.18z" fill="#ded3d4" stroke="#ded3d4"/></g><path d="m269.59 250.27c.84-9.69 11.55-17.92 20.99-13.81 7.33 2.73 9.57 10.83 11.59 17.56 1.84 7.96 2.42 17.19-3.12 23.88-6.67 3.46-14.42 2.95-21.38.73-2.23-2.6-4.86-5.03-6.07-8.32-2.32-6.4-2.58-13.32-2.01-20.04" fill="#210403"/><path d="m175.82 247.87c8.02-8.52 21.03-10.33 32-7.65 8.01 2.23 12.83 9.55 19.47 14.01-.16 7.4 1.89 15.25-1.2 22.29-.38.25-1.14.74-1.52.99-19.695 1.148-44.5-9-41.58-1.57-3.72-4.7-3.98-10.87-4.14-16.59-3.48 1.66-7.14 2.99-10.35 5.15-1.93 1.26-2.4 3.7-3.34 5.66-.97-2.27-2.67-4.78-1.54-7.3 2.74-5.94 7.79-10.31 12.2-14.99z" fill="#e1dadb"/><path d="m296.06 270.52c1.85-3.29 2.71-7.79-.62-10.49-3.91-2.32-8.85-1.63-13.11-.82-3.91.5-5.83 5.07-5.16 8.57 1.4 3.06 4.18 5.16 6.76 7.18l-8.05-2.21c-2.155-2.846-4.88-10.695-4.88-14.864 0-4.226-.793-10.736 3.43-14.666m0 0c3.59-2.33 8.668-4.425 12.24-3.77s8.016 3.88 9.19 7.7c1.775 5.777 4.79 22.693 1.46 26.96s-15.113 5.686-21.44-1.36" fill="#4c241e" stroke="#4c241e" stroke-width=".09"/><path d="m218.45 277.581c-.086.004-.086.004 0 0h.02zm-1.18 3.029c-1.804 1.164-6.62 3.32-9.61 3.98-4.86 1.13-11.507 1.092-14.8.67-1.952-.25-3.999-1.836-4.96-3.2-1.72-1.97-3.46-3.94-4.91-6.12-2.92-7.43-3.48-15.89-.66-23.44 1.81-6.08 7.02-11.69 13.63-12.1 5.86-.43 12.35.65 16.68 4.95 4.01 3.88 5.19 9.61 6.45 14.83.47 5.79.82 11.7-.6 17.4l-.005.025c-.231 1.061-.307 2.419-1.215 3.005z" fill="#210403"/><path d="m194.73 244.21c2.717-.123 10.678-.297 13.84 3.23 3.563 3.975 6.791 15.127 7.54 20.62.572 4.197-1.041 10.727-3.046 12.336-4.494 3.604-15.868 3.678-21.064 1.463-2.259-.962-6.3-8.619-6.73-11.029-1.2-5.94-1.558-12.702-1.27-16.6.174-2.359 1.423-5.105 3-6.79s6.175-3.159 7.73-3.23z" fill="#4e241b" stroke="#4e241b" stroke-width=".09"/><path d="m281 243c2.106.253 4.558 1.13 5.29 2.76s.716 7.86-1 9.24c-1.717 1.38-8.244.481-9.3-.96-3.107-4.242 1.675-11.44 5.01-11.04z" fill="#fbf9f2" stroke="#fbf9f2" stroke-width=".09"/><path d="m263.98 256.2c-.765-2.863-1.624-8.278-1.22-8.2-.169-.158 1.874-3.474 3.482-4.697 1.24 1.74 2.136 5.022 3.366 6.772-.57 6.72-.328 13.835 1.992 20.235 1.21 3.29 3.84 5.72 6.07 8.32-2.09-.46-4.17-1.01-6.07-2.02-.08-.04-.24-.13-.32-.18l-.34-.19c-3.94-5.98-5.46-13.14-6.96-20.04z" fill="#feece1"/><g stroke-width=".09"><path d="m188.927 247.066c2.035-.57 8.339-.492 9.513 1.484s-.788 8.453-2.47 10.37-5.997 2.288-7.62 1.13-2.215-5.914-2.118-8.078c.082-1.864.898-4.403 2.695-4.906z" fill="#faf6f1" stroke="#faf6f1" transform="translate(1)"/><path d="m287.95 262.12c.24 1.04.52 2.07.84 3.1 1.33.52 2.79.49 4.2.66-.22-1.09-.48-2.17-.78-3.23-1.39-.35-2.84-.4-4.26-.53zm-2.665-4.12c2.562-.132 7.103.208 9.715 1.21 1.801.691 3.018 3.833 3 6.01-.008.891-.765 6.198-3 7.78-2.293 1.623-8.098 2.83-11.07 1.96s-6.043-4.687-6.76-7.18 1.108-6.233 2.46-7.78c1.284-1.468 3.707-1.9 5.655-2z" fill="#5d4f4f" stroke="#5d4f4f"/><g fill="#f7f0ee" stroke="#f7f0ee"><path d="m302.19 249.13c3.26 1.65 6.56 3.26 10.03 4.47l.57.2c-.42 4.2-1.44 8.33-2.66 12.36 4.678.723-3.598 7.515-11.08 11.74 5.54-6.69 4.96-15.92 3.12-23.88-.04-1.63-.01-3.26.02-4.89z"/><path d="m290.89 271.31c.01-1.17.02-2.34.05-3.5 1.7.91 1.464.785 3.174 1.685-.111.393-.402 2.184-1.225 2.616-.515.271-1.475-.593-1.999-.801z"/></g></g><path d="m217.557 254.23h9.733s1.277 9.984.52 16.77c-.398 3.563-.556 2.934-1.72 5.52-2.21 1.5-6.27 3.38-8.82 4.09.58-.95.99-1.96 1.22-3.03 1.42-5.7 1.07-11.61.6-17.4z" fill="#fdf8f2"/><path d="m190.139 285.441c-6.916.22-13.611-1.938-19.609-5.231-1.94-3.27-3.71-6.64-5.37-10.05.94-1.96 1.41-4.4 3.34-5.66 3.21-2.16 6.87-3.49 10.35-5.15.16 5.72.42 11.89 4.14 16.59 1.45 2.18 3.265 4.567 4.91 6.12 1.431 1.351 3.369 2.196 4.96 3.2-.67.04-2.01.13-2.68.18z" fill="#fdfaf9" stroke="#f7f0ee" stroke-width=".09"/><path d="m287.95 262.12c.57-.428 3.42-.097 4.26.53s1.35 2.802.78 3.23-3.36-.033-4.2-.66-1.41-2.672-.84-3.1z" fill="#becacb" stroke="#becacb" stroke-width=".09"/><path d="m210.51 281c-3 1-6.635 1.058-9.51 1-1.204-.024-7.477-.666-8-1-1.299-.829-2.927-3.922-3.305-4.921-.314-.828-1.894-7.386-1.695-8.249.468-2.025 1.528-2.53 4.5-3.9 3.505-1.616 14.593-2.195 18.01-.35s2.742 8.722 2.49 11.42c-.193 2.066-.521 5.344-2.49 6z" fill="#624d49"/><g stroke-width=".09"><path d="m200.21 263.48c.747-.862 4.472-.847 5.38-.01s.817 4.168.07 5.03-3.642.977-4.55.14-1.647-4.298-.9-5.16z" fill="#b7c1c1" stroke="#b7c1c1"/><path d="m279.63 262.55c1.197-.582 7.65 3.27 11.31 5.26-.03 1.16-.04 2.33-.05 3.5-2.31.74-5.254 1.449-7.13-.01-1.877-1.46-5.327-8.168-4.13-8.75z" fill="#a3cbcc" stroke="#a3cbcc"/><path d="m191.78 274.95c-1.687-1.854.078-6.51 2.42-7.12s9.383 2.335 11.63 3.46c1.125.563 2.016 2.043 1.85 3.29-.18 1.355-1.045 4.796-2.93 4.84-2.65.062-11.212-2.538-12.97-4.47z" fill="#94ced6" stroke="#94ced6"/><path d="m205.83 271.29c.347-.515 2.902-.375 3.93.2s2.587 2.735 2.24 3.25-3.292.415-4.32-.16-2.197-2.775-1.85-3.29z" fill="#fbeae5" stroke="#fbeae5"/><path d="m246.73 274.73c4.65-3.06 10.62-2.9 15.91-2.11 2.59 1.38 6.24 3.26 6 6.71.26 3.59-.57 7.23-2.94 10.03-1.86-2.22-3.95-4.29-6.6-5.55.48 3.21 2.2 5.98 4.31 8.39-.32.96-.63 1.94-.94 2.91-.4-1.03-.81-2.05-1.23-3.06-4.06 2.88-9.49 3.79-14.13 1.84-2.86-1.41-5.15-4.03-6.1-7.06-.75-4.69 1.77-9.58 5.72-12.1z" fill="#bb8470" stroke="#bb856b"/><path d="m180.2 292.2c2 .04 4.42.11 5.31 2.3 1.18 3.11.35 6.55.21 9.78-1.12-.46-2.59-.62-2.97-2-1.61-3.12-2.35-6.6-2.55-10.08z" fill="#c57a5b" stroke="#c57a5b"/><path d="m168.4 298.77c-.56-2.52 1.3-4.55 2.64-6.44 3.09 3.94 2.54 9.17 2.64 13.86-3.63-.49-4.72-4.34-5.28-7.42z" fill="#c7795b" stroke="#bd7350"/><path d="m179.01 306.17c-4.63-2.48-4.74-8.4-3.16-12.79 3.24 3.41 4.49 8.26 3.16 12.79z" fill="#c7795b" stroke="#c7795b"/><g transform="matrix(.863384 -.0953661 .109789 .993955 118.469 10.4835)"><path d="m180.2 292.2c2 .04 4.42.11 5.31 2.3 1.18 3.11.35 6.55.21 9.78-1.12-.46-2.59-.62-2.97-2-1.61-3.12-2.35-6.6-2.55-10.08z" fill="#c57a5b" stroke="#c57a5b"/><g fill="#c7795b"><path d="m168.4 298.77c-.56-2.52 1.3-4.55 2.64-6.44 3.09 3.94 2.54 9.17 2.64 13.86-3.63-.49-4.72-4.34-5.28-7.42z" stroke="#bd7350"/><path d="m179.01 306.17c-4.63-2.48-4.74-8.4-3.16-12.79 3.24 3.41 4.49 8.26 3.16 12.79z" stroke="#c7795b"/></g></g><path d="m170.98 362.06c7.41 6.79 15.82 12.34 24.37 17.57 7.82 5.5 15.8 11.01 24.92 14.15 10 3.42 19.97 8.05 30.74 8.07 1.67.16 3.14-.73 4.59-1.42-.18 6.36-.9 13.07 1.78 19.05 1.83.32 1.63-2.42 2.49-3.45 1.17 1.52 2.35 3.03 3.42 4.63-14.7 1.18-29.59-1.33-43.38-6.47-15.11-6.23-28.72-15.73-44.15-21.22-.66 3.34-1.22 6.74-2.51 9.92.63-13.63-.13-27.36-2.27-40.83z" fill="#bb8470" stroke="#bb8470"/><path d="m175.76 392.97c15.43 5.49 29.04 14.99 44.15 21.22 13.79 5.14 28.68 7.65 43.38 6.47 3.87 1.93 7.42 4.47 11.53 5.93.06 4.64-3.15 8.27-5.22 12.15-3.66 6.66-11.24 9.85-18.31 11.4-6.64.65-13.35.22-20.01.05-15.92-2.41-30.43-9.86-44.87-16.58-9.91-4.73-19.46-10.28-28.44-16.58 5.4-4.36 10.88-8.74 15.28-14.14 1.29-3.18 1.85-6.58 2.51-9.92z" fill="#e0a382" stroke="#dea382"/><path d="m170.98 362.06c2.14 13.47 2.9 27.2 2.27 40.83-4.4 5.4-9.88 9.78-15.28 14.14 8.98 6.3 18.53 11.85 28.44 16.58 14.44 6.72 28.95 14.17 44.87 16.58 6.66.17 13.37.6 20.01-.05 7.07-1.55 14.65-4.74 18.31-11.4 2.07-3.88 5.28-7.51 5.22-12.15-4.11-1.46-7.66-4-11.53-5.93-1.07-1.6-2.25-3.11-3.42-4.63-.86 1.03-.66 3.77-2.49 3.45-2.68-5.98-1.96-12.69-1.78-19.05-1.45.69-2.92 1.58-4.59 1.42-10.77-.02-20.74-4.65-30.74-8.07-9.12-3.14-17.1-8.65-24.92-14.15-8.55-5.23-16.96-10.78-24.37-17.57zm13.11-312.98c-7.49 5.76-17.03 7.42-25.32 11.63-4.04 1.99-8.11 3.91-12.12 5.94-11.56 6.29-20.47 16.15-29.69 25.31-2.43 2.79-3.53 6.42-5.28 9.62-2.19-3.84-1-8.48.72-12.25 2.65-4.79 6.99-8.29 10.71-12.22 2.98-3.01 3.45-7.43 4.49-11.33-6.06 1.85-10.92 6.09-15.48 10.3-6.34 6.36-11.92 13.82-14.61 22.49-1.22 4.25-2.96 8.43-3.29 12.87-1.71 4.08-1.79 8.54-2.67 12.81-2.1-1.66-3.42-4-4.67-6.32-.49-5.39-1.32-10.75-1.84-16.14-4.73 4.77-7.68 10.87-10.41 16.91-3.62 7.13-4.83 15.59-2.84 23.37.45 1.39.78 3.15 2.24 3.85 1.64 5.29 6.51 8.06 10.53 11.33-.04.32-.1.95-.13 1.26-2.12.05-4.24-.23-6.34-.5-1.82-.81-3.64-3.34-5.71-1.8-11.28 7.11-20.48 18.18-23.94 31.21-1.23 4.18-2.67 8.31-3.41 12.62 3.48-1.59 4.32-5.51 6.59-8.25.94 7.09-4.58 12.24-8.09 17.67-7.09 11.79-19.65 20-33.09 22.51 3.18 4.61 7.38 8.4 11.92 11.64 6.27 4.09 13.92 4.82 20.91 7.09-2.49 2.54-6.37 1.8-9.54 2.6 3.3 3.21 8.81 2.98 11.36 7.02-6.61 2.79-13.86 3.1-20.85 1.77 2.59 5.42 5.41 10.83 9.16 15.55 4.98 4.49 11.36 7.09 17.66 9.19-2.99 3.29-5.76 6.91-7.28 11.13-5.15 9.09-7.17 19.7-6.53 30.08-.39 6.42 1.9 12.54 5.07 18.02 4.45-4.15 7.46-9.7 12.6-13.13 4.59-3.16 9.34-6.3 12.24-11.22 1.71 8.01.91 17.52 7.52 23.58 1.48-4.97 1.78-10.86 5.93-14.51.02 7.51-1.38 14.93-1.22 22.45-4.5-.02-7.1-3.87-9.68-6.97-3.06-3.49-3.41-8.35-5.35-12.42-1.05 4.66-.8 9.44-.6 14.17.23 9.69 4.57 18.67 9.24 26.95 3.35 4.25 6.59 8.81 11.13 11.88 1.5-4.49 1.64-9.27 2.8-13.83 1.15-4.78 3.13-9.3 4.77-13.92 6.84 10.85 13.78 22.25 24.47 29.76 6.22 3.25 12.39 7.83 19.76 7.45-2.31-4.18-4.99-8.22-6.45-12.82-1.86-5.03-1.56-10.5-1.06-15.73 5.78 3.49 4.97 11.67 9.71 16.1 5.17 4.82 10.01 10.41 16.8 12.99-1.87-6.84-3.52-13.85-2.52-20.99 3.94 5.34 6.95 13.03 14.62 13.56.99-9.89-1.39-19.64-2.97-29.33-.71-4.9-5.93-6.83-8.7-10.39-1.93-1.83-3.25-5.08-6.32-4.99-6.86-.3-13.89.6-20.58-1.42-7.19-2.28-14.73-5.06-19.63-11.11-4.64-5.96-5.82-13.82-5.54-21.18-.21-8.68.07-18.03 5.38-25.35 1.81-3.67 5.85-4.89 9.05-6.95-.27-3.4-1.82-6.54-2.16-9.92-.19-2.59.3-5.17.66-7.73.31-.58.92-1.73 1.23-2.3 2.38 3.87 2.14 8.61 4.04 12.67 2.04 5.31 5.95 9.71 10.71 12.76-.76-3.42-2.43-6.9-1.24-10.43 2.76 1.23 4.73 3.51 6.37 5.97 2.21 3.29 5.44 5.7 8.98 7.41-.57-4.74-2.65-9.09-3.68-13.7-.68-8.51-.2-17.07-.54-25.6-4.77 1.51-9.16 4.28-14.19 4.88-1.44.04-3.88.23-3.57-1.9.3-6.54 5.13-11.74 8.38-17.11 3.61-4.32 2.1-10.26 3.68-15.28 1.98-6.48 4.65-12.81 8.4-18.48.42 5.69-2.01 11.02-2.13 16.66 1.74-.88 3.43-1.85 5.15-2.76.14 1.28.54 2.65.01 3.91-2.94 7.82-8.74 14.06-12.85 21.22-2.59 2.14-4.82 4.81-5.4 8.23 3.99-.76 7.75-2.37 11.28-4.35 8.06-4.4 15.89-9.59 22.12-16.4-.98-.8-1.95-1.61-2.92-2.41 5.02-.96 9.7-3.09 13.75-6.19.57.99 1.12 2.01 1.65 3.03 2.24-.29 36.73-5.46 38.83-9.5-5.91.98-11.9 1.03-17.87 1.07-2.79-.93-5.61-1.73-8.42-2.58-1.3-1.28-2.98-2.35-3.71-4.08-.5-2.05 1.78-3.15 2.83-4.55 6.4-1.25 11.7-5.35 16.93-8.99-9.76 1.23-19.77 2.52-29.48.15-5.86-1.46-12.83-3.32-15.73-9.2-1.17-2.19-1.2-6.06 2-6.29 10.29-2.11 21.45-2.49 30.44-8.57 10.39-5.91 19.8-13.71 31.03-18.01-5.73 6.75-14.19 10.37-20.33 16.71 4.09-.89 8.07-2.27 12.23-2.82-1.61 1.43-3.34 2.74-5.3 3.64-10.58 5.01-22.02 7.76-33.32 10.64-4.12 1.05-8.46.88-12.53 2.21 2.55 3.65 6.34 6.51 10.77 7.36 10.86 4.62 22.6.37 33.87 1.48.84 4.71-4.14 6.43-6.75 9.36-4.4 1.84-8.85 3.8-12.48 6.97 4.03 2.52 8.83 3.26 13.5 3.45 12.95.09 24.99-5.43 36.41-10.95 4.32-1.99 7.93-5.49 12.73-6.39-1.71 4.74-7.02 6.68-8.91 11.27-3.69 8.08-7.18 16.36-12.33 23.65-1.04 1.54-1.78 3.24-2.48 4.94 6.25-1.15 12.62-3.55 17.45-7.73 3.64-.4 6.21-3.18 9.02-5.21 2.88-2.11 5.66-4.4 7.78-7.3 2.33-3.33 6.15-5.12 8.66-8.27 2.2-2.69 4.24-5.5 6.35-8.26-.28 1.94-.55 3.88-.82 5.83-1.69 2.7-3.24 5.48-4.54 8.39 2.47.71 5 1.25 7.55 1.61 8.11-9.69 12.5-21.86 15.05-34.09 1.13-4.89-.09-10.03 1.46-14.84 1.08 2.51 1.95 5.11 2.65 7.76-.8 5.87-.63 11.91 1.64 17.47 2.24 9.4 3.7 19.03 4.38 28.68 2.1.23 4.21.46 6.32.69.64-2.12 1.21-4.26 1.64-6.42.48-3.26 1.72-6.33 3.35-9.17 1.2 1.44 2.43 2.99 2.48 4.98 1.17 9.39.14 18.87.66 28.3 4.06-3.33 7.16-7.65 9.74-12.18 4-7.69 7.14-16.32 5.87-25.13-.04-6.43-3.77-11.93-4.78-18.15 8.26 6.29 8.8 17.74 8.44 27.25.31 6.33-2.62 12.04-4.73 17.82-3.36 3.54-6.72 7.37-8.34 12.05-1.07 3.35.97 6.61.89 9.95-5.62 24.67-.12 50.47-6.55 75.06-2.08 12.9-8.7 24.47-16.21 34.96-2.87 3.74-6.61 6.71-9.5 10.44-3.51 4.55-8.78 7.14-12.9 11.04-4.22 4.02-10.02 5.78-14.27 9.74-2.84 2.42-1.6 6.46-1.69 9.7 8.01-.61 15.83-3.17 23.27-6.12 8.52-3.28 15.02-10.87 17.15-19.73 4.47 7.16.28 15.55-.83 23.06 4.71-.27 7.93-3.85 11.4-6.57 9.85-7.18 16.42-19.04 16.15-31.36 3.88.19 5.59 3.99 7.66 6.68 4.04 5.47 6.32 12.01 10.59 17.33 1.75-2.17 3.39-4.48 4.27-7.16 3.92-11.35 3.69-23.69 1.6-35.39-.92-5.46-3.67-10.4-4.49-15.89 5.62-.8 11.27-1.37 16.92-1.91-4.13-2.29-8.6-4.45-11.07-8.68 9.41 2.85 19.1 5.45 29.04 4.65-4.7-3.54-9.08-7.55-12.23-12.57-5.69-7.67-7.82-17.12-11.9-25.6-2.13 5.98-3.06 13.67-9.6 16.58-1.16-6.03-2.44-12.03-3.46-18.08 1.38 1.32 2.74 2.66 4.09 4.02.67 1.76 1.54 3.45 2.58 5.03 1.91-6.1 2.27-12.5 2.67-18.83 2.78.75 5.71 1.77 8.6.93 4.53-1.39 8-5.04 10.36-9.02 2.61-4.54 5.16-9.16 6.96-14.09-3.91 1.09-7.71 2.63-11.74 3.3-3.99.57-8.03.36-12.04.21-.01-.56-.04-1.68-.05-2.23 4.21-1.3 8.43-2.78 11.99-5.44-5.17-.62-10.88.75-15.54-2.17 8.31-1.5 17.13-2.02 24.58-6.4 5.07-3.06 9.98-6.65 13.54-11.45 2.06-2.77 4.24-5.44 6.6-7.97-15.4-5.08-26.9-17.56-36-30.48-3.82-6.72-11.09-10.96-13.77-18.4 8.63.6 16.25 4.92 24.07 8.16-1.64-5.48-4.65-10.41-8.18-14.86-3.71-4.6-7.29-9.55-12.44-12.64-5.83-3.88-12.58-5.9-18.95-8.68 2.06-3.48 3.91-7.12 4.8-11.09 1.62-7.24 4.02-14.43 3.72-21.94-.14-8.47.03-17.32-3.49-25.21-2.53 8.05-4.86 16.54-10.29 23.19-1.56 2.17-4.21 2.76-6.68 3.16 1.01-10.1 4.43-19.9 4.21-30.14.2-5.38-.17-10.87-2.44-15.83-5.44 3.17-10.93 6.66-17.28 7.6-9.84 1.57-19.81 3.2-29.81 2.46-5.04-.31-9.84-2.3-14.9-2.35-2.53.45-4.62 2.04-6.69 3.45-5.36 3.97-11.7 6.66-18.23 7.93-1.31-.19-4.34.22-3.7-1.87 7.08-1.61 13.52-4.94 20.08-7.94.06-.53.18-1.58.24-2.11-9.38.15-18.74 1.31-27.88 3.41-3.69.8-7.33 1.84-11.1 2.19 2.87-2.76 6.87-3.67 10.22-5.68-6.59.5-13.89 1-19.03 5.67-4.26 3.82-9.81 7.59-15.83 6.06 4.04-2.56 8.16-5.01 12.04-7.82 1.94-1.4 3.66-3.33 4.11-5.76.97-5.67.86-12.4-3.76-16.54-1.51 6.65-3.8 13.48-9.16 18.06-.01-3.11.02-6.3 1.28-9.21 2.3-5.71 3.32-11.95 2.51-18.08-5.03 4.14-10.02 8.32-15.08 12.43zm-13.77 195.61c-3.93-.84-8.5 1.26-11.98-1.17-1.65-2.72.86-5.8 1.38-8.59-4.35 3.21-8.73 6.42-12.91 9.84-.98 2.96-1.01 6.15-1.16 9.24-.09 6.08-.54 12.28 1.09 18.22.25 6.29 4.75 11.54 4.76 17.8-3.33 3.27-7.68-.7-11.51-.78-6.29-.42-11.77-3.98-17.98-4.69-3.38-.47-6.5 1.24-8.91 3.44-4.38 7.48-4.04 16.41-3.57 24.76.72 8.89 5.03 18.07 12.87 22.79 6.13 2.75 12.85 4.54 19.62 4.25 4.22.1 8.58-1.3 12.68.25 8.64 8.9 17.95 17.37 28.84 23.44 8.55 4.81 16.98 10 26.18 13.5 8.73 2.8 17.45 5.76 26.46 7.55 8.43 1.48 17.08.27 25.25-2.01 12.16-4.25 22.41-12.64 30.89-22.15 8.23-10.16 14.142-19.287 18.01-26.54 1.625-3.048 4.5-13.64 5.2-16.98 3.08-17.62 3.28-35.58 2.85-53.4-3.06 2.98-10.855 9.51-12.23 9.96s3.159-4.625 3.98-7.26c.97-3.113 2.71-6.84 1.84-11.42-1.133-5.966-9.87-17.44-18.76-20.85-8.56-1.94-18.2.59-24.37 6.93-2.17 2.24-4.95 4.18-6.08 7.18-1.21-.28-2.41-.58-3.6-.89 1.15-4.07 3.71-7.46 5.78-11.07 4.99-3.58 10.03-7.54 16.27-8.58 6.43-1.74 12.97-.02 19.28 1.35-.16-2.87-.38-5.74-.7-8.6-5.59-.83-11.2-1.57-16.78-2.5-1.88-.2-4-.7-5.63.55-3.12 1.45-2.79 5.75-5.66 7.43-3.22 2.18-6.54 4.22-9.9 6.18.9-1.58 1.86-3.13 2.87-4.64-1.9.12-3.8.27-5.7.19-1.95-2.62 1.57-5.67 1.97-8.48-5.63 3.71-11.14 7.64-17.04 10.91-3.83 2.14-8.16 3.07-12.1 4.95-3.67-.57-9.04 1.44-10.81-3-3.711-2.687-8.695-1.873-12.71-3.774-.572-.271-1.124-.597-1.65-.996 5.67-1.74 11.18.83 16.38 2.81 6.71-8.07 10.96-17.77 15.73-27.03-5.43 2.41-9.93 6.36-14.8 9.67 1.81.11 3.62.23 5.43.39-4.49 6.1-13.18 4.51-18.94 8.57-2.512 1.791-5.087 3.493-7.706 5.125 0 0-4.844 3.345-6.974 4.895 3.96.1 7.98 0 11.86.96 5.37 1.22 9.91 4.54 14.22 7.79 2.3 2.72 4.91 5.28 6.48 8.51.95 1.87-.48 3.76-1.04 5.51-6.64-4.46-11.46-11.78-19.47-14.01-10.97-2.68-23.98-.87-32 7.65-4.41 4.68-9.46 9.05-12.2 14.99-1.13 2.52.57 5.03 1.54 7.3 1.66 3.41 3.95 9.91 9.4 12.035-.36.53-5.45.125-5.45.125s-14.47-11.57-19.28-19.34c-.61-1.09-1.19-2.19-1.76-3.29 8.12-3.88 15.31-9.34 22.25-15zm146.4-4.93c-.33.9-.43 1.82-.3 2.78.87.54 1.8.96 2.78 1.27.15-1.5.31-3 .51-4.49-1.02.03-2.02.17-2.99.44zm-148.782.279-.008-.009c8.76-2.52 16.4-7.64 24.58-11.5 2.42-1.98 4.87-3.93 7.52-5.59-7.75-.47-15.34 1.5-23.04 1.97-2.04.42-4.79-.02-6.07 2.01-3.22 4.49-6.72 8.88-8.84 14.04 1.96-.21 3.95-.36 5.85-.93zm138.212-7.079c2.13 1.9 4.39 3.65 6.87 5.07.96-4.78 1.75-9.65 1.11-14.53-2.96 2.89-5.26 6.35-7.98 9.46zm-2.38-12.06c-.15 2.66-.1 5.37.93 7.87 1.26-2.15 2.39-4.38 3.41-6.66-1.45-.4-2.9-.8-4.34-1.21zm-34.5-6.66c-3.03 2.61-4.82 6.3-6.6 9.81 4.53-1.54 8.87-3.97 11.53-8.09-1.61-.66-3.2-1.42-4.93-1.72zm22.44-17.6c-2.16 5.2-5.02 10.06-7.96 14.84 4.7 2.24 10 2.34 15.04 3.29-.64-8.07-2.5-15.98-3.7-23.98-1.4 1.78-2.53 3.75-3.38 5.85zm-37.1-145.12c2.19 1.33 5.005 1.734 7.389 1.604 2.384-.131 4.337-.796 4.801-1.604.847-1.474-10.93-6.244-12.19 0zm31.307 363.815.473.155s6.297 5.282 9 8.12c2.45 2.55 4.35 5.73 7.6 7.39 6.86 3.91 13.01 8.9 19.13 13.86 8.71 6.93 17.42 14.29 23.16 23.99 10.65 15.51 18.19 32.89 24.47 50.56 3.71 11.3 9.31 21.85 13.52 32.96 3.1 7.78 5.59 15.78 8.52 23.63h-6.67c-4.32-8.18-7.86-16.75-10.96-25.45-5.33-13.62-10.51-27.3-15.46-41.07-3.03-8.65-7.29-16.79-11.23-25.05-3.62-7.67-8.61-14.63-14.63-20.6-10.3-9.15-20.53-18.39-30.77-27.61-1.92-.59-3.92-.77-5.88-1.14-.76-5.18-5.72-7.86-8.52-11.86-1.984-2.929-9.148-4.105-9.3-4.14 2.84.12-1.73 0 0 0 .37 5.03 1.95 10.24.11 15.19-2.04 7.52-9.05 11.91-15.08 16.06-5.07 3.56-11.46 3.86-17.38 4.73-5.91.89-11.87-.02-17.76-.63-19.75-2.53-38.03-11.08-55.43-20.32-6.82-4.31-24.2-13.98-25.84-14.91-6.9 7.79-16.06 13.05-23.01 20.78-9.84 8.4-21.05 16.01-27.5 27.58-4.76 8.34-10.29 16.43-12.94 25.78-2.07 7.41-3.9 14.91-5.25 22.49-3.04 19.99-8.06 39.83-8.07 60.17h-11.1c.27-3.26.54-6.53 1.35-9.71 2.54-10.41 3.75-21.08 5.83-31.58 2.12-11.89 5.27-23.55 7.96-35.31 3.4-14.02 10.19-26.98 18.44-38.72 8.79-11.81 21.58-19.76 30.76-31.2 4.93-5.73 10.81-10.55 16.67-15.29 3.82-3.16 9.02-.43 13.38-1.76 5.23-3.25 9.72-7.61 13.42-12.53-1.32-1.24-2.65-2.46-3.97-3.69l-.467-.436c-1.088-1.019-2.157-2.05-3.233-3.074.16 3.64.44 7.27.27 10.91-8.44.68-14.39-6.33-20.24-11.29 1.02 2.56 1.54 5.27 1.66 8.03-11.23 2.14-21.73-3.59-31.02-9.14-7.5-5.16-12.91-12.63-18.05-20-1.54 6.01-1.96 12.23-3.41 18.26-2.06.37-4.27 1.59-6.33.56-6.87-2.97-12.67-8.41-16.23-14.97-5.99-13.01-7.8-27.81-5.13-41.89-6.87 6.76-13.07 14.12-18.68 21.93-9.74-8.28-11.65-22.32-9.62-34.3 1.44-11.48 5.26-22.91 12.45-32.09-6.32-1.2-11.94-4.71-15.81-9.85-6.26-6.37-9.88-14.91-10.68-23.76 4.68 2.03 9.49 4.02 14.72 3.56-6.32-3.81-10.69-9.89-16.68-14.11-4.68-4.2-9.91-9.13-10.38-15.79 5.29-1.24 10.75-2.35 15.42-5.26 8.37-5.43 16.29-12.99 18.41-23.12 1.52-8.5 4.65-16.58 8.09-24.46 2.23-4.82 4.61-9.72 8.39-13.56 4.08-4.18 8.17-9 14.17-10.29-1.34-2.55-2.78-5.14-3.11-8.05-1.91-11.27-.91-23.5 5.17-33.41 4.42-7.12 9.42-14.34 16.69-18.81 1.28 4.48.83 9.14 1.14 13.73 2.84-8.65 5.23-17.79 11.08-25.01 5.91-6.94 13.25-12.63 21.27-16.92 3.09-1.7 6.61-2.26 10.1-2.22-.85 3.63-2.4 7.03-3.97 10.4 9.32-6.5 19.28-12.28 30.16-15.72 10.31-3.38 20.09-8.56 28.37-15.6 4.71-3.88 7.16-9.9 12.31-13.3 2.2 3.32 3.04 7.23 4.3 10.95 1.65 2.78 4.59 4.57 6.07 7.49 2.66 5.28 3.47 11.29 3.39 17.15 10.53-3.53 21.68-1 32.45-2.77 4.95-.77 9.96-.15 14.94-.33 2.57.11 3.68-2.74 5.3-4.27-4.21-.19-8.7.95-12.66-.9-2.64-1.08-3.3-5.07-1.03-6.85 5.06-4.71 13.55-3.76 17.75 1.65 6.59-1.83 12.57-5.45 17.32-10.37.19-.02.57-.07.77-.1-2.45 3.33-4.94 6.73-8.37 9.12-2.91 2.3-6.46 3.54-9.52 5.57-1.99 2.11-2.76 5.05-3.7 7.73 15.38 1.71 31.35 2.48 46.29-2.31 3.77-1.31 6.91-4.28 10.96-4.74 2.93-.36 4.97 2.37 6.09 4.72 3.98 8.99 3.42 18.98 3.33 28.56 3.19-5.21 2.44-12.47 7.53-16.47 3.46 2.76 5.09 7.01 6 11.21 3.48 16.95 2.12 35.17-5.6 50.82 7.53.87 14.21 4.92 19.86 9.76 10.64 8.85 18.22 21.45 20.22 35.23-1.71-.36-3.47-.63-5.02-1.47-5.39-2.83-10.83-5.68-16.62-7.62 8.07 9.65 16.74 18.79 24.8 28.46 5.52 6.54 13.79 9.41 21.23 13.08-.87 3.55-2.32 6.99-4.64 9.85-4.81 6.66-12.33 10.67-16.93 17.51 2.11-.46 4.22-.94 6.36-1.28.7 6.44-1.67 12.69-4.79 18.2-5.09 8.46-12.37 15.63-21.25 20.03 1.61 3.01 3.07 6.11 4.24 9.33 2.83 7.86 8.51 14.16 13.13 20.99 2.45 3.86 6.41 6.21 9.99 8.89 1.96 1.38.5 4.81-1.78 4.86-7.68 1.54-15.34 3.28-22.79 5.76-3.33 1.16-6.89.99-10.35 1.09.74 6.67 3.66 12.88 4.25 19.59.66 8.3-.08 16.67-1.39 24.89-.84 5.11-3.08 10.33-7.67 13.14-1.93 1.61-5.51 1.76-6.63-.87-3.35-5.78-6-11.98-9.95-17.41-1.48 6.89-3.25 14.13-8.19 19.44-3.62 3.74-7.94 6.72-12.18 9.7-4.67 3.32-10.59 3.35-15.98 4.57.06-3.57.65-7.09 1.35-10.58-3.94 3.44-8.27 6.43-13.03 8.63-7.16 3.6-15.48 6.29-23.44 3.7.1 2.99-.21 6.04.42 8.99 1.53 1.81 3.34 4.57 6.06 4.12 5.135-.814 10.344.156 15.237 1.735z" stroke="#0a0303"/><path d="m123.98 439.98c6.95-7.73 16.11-12.99 23.01-20.78 1.64.93 3.27 1.87 4.93 2.77 7.24 3.58 14.09 7.83 20.91 12.14 17.4 9.24 35.68 17.79 55.43 20.32 5.89.61 11.85 1.52 17.76.63 5.92-.87 12.31-1.17 17.38-4.73 6.03-4.15 13.04-8.54 15.08-16.06 1.84-4.95.26-10.16-.11-15.19 3.3.77 7.22 1.07 9.3 4.14 2.8 4 7.76 6.68 8.52 11.86-1.4 1.33-2.82 2.68-3.82 4.35-1.46 2.83-2.71 5.77-4.42 8.47-2.99 3.16-6.83 5.31-10.4 7.72-4.12 2.76-8.41 5.3-12.98 7.24-4.41 1.83-8.9 3.97-13.79 3.89-8.81-1.86-17.84-2.02-26.81-1.94-8.78-1.12-17.17-4.31-25.49-7.23-14.67-4.87-27.77-13.35-42.18-18.84-2.7-1.11-5.6-1.47-8.47-1.71 6.95 3.9 14.47 6.68 21.39 10.65 5.46 7 12.26 12.81 20.06 17.07 8.37 5.68 18.3 8.14 27.16 12.86 4.53 2.25 9.59 3.03 14.34 4.72 4.53 1.6 9.42 2.63 14.22 1.79 1.21-.13 2.03-1.11 2.9-1.83 17-3.58 30.71-15.89 40.79-29.5 2.7-2.35 5.6-4.59 7.53-7.66 1.9-3 3.63-6.12 5.85-8.91 10.24 9.22 20.47 18.46 30.77 27.61-.62.18-1.85.55-2.47.73 1.1 9.34 1.18 18.84 3.58 27.99-1.07-.09-2.13-.17-3.19-.24-.88-2.97-2.1-5.81-3.44-8.58-.4 9.47 3.25 18.44 4.49 27.73-1.24 9.19 1.03 18.34.59 27.55.28 12.41-.24 24.91-3.39 36.99h-157.65c-2.29-4.59-3.89-9.5-6.35-14.01-1.96-3.76-4.52-7.16-6.76-10.74-7.12-14.61-14.17-29.29-22.22-43.42-7.07-11.98-14.54-24.54-26.58-32.16-2.53-1.76-5.68-1.03-8.54-.85 7.57.65 12.48 6.94 17.58 11.81-1.4 1.23-2.81 2.44-4.22 3.66 2 6.33 7.26 10.98 8.94 17.43 3.7 13.72 9.68 26.66 15.52 39.56 4.08 9.85 8.98 19.31 13.97 28.72h-74.95c2.38-9.33 5.35-18.53 7.03-28.02.93-7.94 1.07-16.6-3-23.77-1.46-2.66-2.78-5.42-3.49-8.38 1.35-7.58 3.18-15.08 5.25-22.49 2.65-9.35 8.18-17.44 12.94-25.78 6.45-11.57 17.66-19.18 27.5-27.58m21.91 12.07c.38 1.17.32 2.74 1.68 3.29 6.84 3.84 13.56 7.88 20.4 11.73 8.67 5.49 18.1 9.62 26.97 14.76.3-.48.91-1.44 1.21-1.93-5.13-4.35-10.95-7.76-16.39-11.68-6.16-4.55-13.28-7.51-20.12-10.84-4.48-2.03-8.88-4.39-13.75-5.33z" fill="#dfddde" stroke="#dfddde"/><path d="m296.19 435.08c1.96.37 3.96.55 5.88 1.14-2.22 2.79-3.95 5.91-5.85 8.91-1.93 3.07-4.83 5.31-7.53 7.66 1.7-3.38 3.43-6.79 4.44-10.45.34-1.05-.4-1.99-.76-2.91 1-1.67 2.42-3.02 3.82-4.35z" fill="#bfbbba" stroke="#bfbbba"/><path d="m292.37 439.43c.36.92 1.1 1.86.76 2.91-1.01 3.66-2.74 7.07-4.44 10.45-10.08 13.61-23.79 25.92-40.79 29.5 2.85-3.27 7.12-4.52 10.69-6.75 8.18-5.02 16.39-10.42 22.42-18.02 2.57-3.01 4.87-6.25 6.94-9.62 1.71-2.7 2.96-5.64 4.42-8.47z" fill="#100503" stroke="#100503"/><path d="m169.22 447.68c17.93 9.23 36.74 17.67 57 19.89-.75-.93-1.5-1.85-2.25-2.76 8.97-.08 18 .08 26.81 1.94 9.54 1.32 18.47-3.87 26.26-8.76 1.15-.93 2.63-.54 3.97-.47-6.03 7.6-14.24 13-22.42 18.02-3.57 2.23-7.84 3.48-10.69 6.75-.87.72-1.69 1.7-2.9 1.83-4.8.84-9.69-.19-14.22-1.79-4.75-1.69-9.81-2.47-14.34-4.72-8.86-4.72-18.79-7.18-27.16-12.86-7.8-4.26-14.6-10.07-20.06-17.07z" fill="#bcb9be" stroke="#bcb9be"/><path d="m145.89 452.05c4.87.94 9.27 3.3 13.75 5.33 6.84 3.33 13.96 6.29 20.12 10.84 5.44 3.92 11.26 7.33 16.39 11.68-.3.49-.91 1.45-1.21 1.93-8.87-5.14-18.3-9.27-26.97-14.76-6.84-3.85-13.56-7.89-20.4-11.73-1.36-.55-1.3-2.12-1.68-3.29z" fill="#b9b8ba" stroke="#b9b8ba"/><path d="m330.37 464.56c.62-.18 1.85-.55 2.47-.73 6.02 5.97 11.01 12.93 14.63 20.6 3.94 8.26 8.2 16.4 11.23 25.05 4.95 13.77 10.13 27.45 15.46 41.07 3.1 8.7 6.64 17.27 10.96 25.45h-34.92c.12-8.37-.08-16.77 1.19-25.06.13-12.99.41-26.05-.86-38.99.35 12.33.37 24.72-.71 37.02-.16 9.01-.05 18.02-.11 27.03h-6.24c-1.32-18.73-2.7-37.53-6.09-56.02-2.08-9.26-4.1-18.53-6.62-27.67 1.06.07 2.12.15 3.19.24-2.4-9.15-2.48-18.65-3.58-27.99m5.79 11.14c-.72 1.32-.12 2.99.59 4.2-.273 1.189.71 6.97 1.02 9.62 2.05 13.54 4.09 27.08 5.96 40.64-.45-9.66-1.31-19.28-2.43-28.88-1.06-7.11-1.73-14.4-3.99-21.24.61-1.14.15-3.84-1.15-4.34z" fill="#bdbabe" stroke="#bdbabe"/><path d="m100.91 474.82c2.86-.18 6.01-.91 8.54.85 12.04 7.62 19.51 20.18 26.58 32.16 8.05 14.13 15.1 28.81 22.22 43.42-.45.03-1.36.1-1.82.14-8.14-15.92-16.46-31.77-25.6-47.14-3.87-6.04-7.44-12.34-12.34-17.62-5.1-4.87-10.01-11.16-17.58-11.81z" fill="#25211a" stroke="#25211a"/><g fill="#0b0305" stroke="#0b0305"><path d="m336.16 475.7c1.3.5 1.76 3.2 1.15 4.34l-.56-.14c-.71-1.21-1.31-2.88-.59-4.2z"/><path d="m337.31 477.87c2.26 6.84 2.93 16.3 3.99 23.41 1.12 9.6 1.98 19.22 2.43 28.88-1.87-13.56-3.91-27.1-5.96-40.64-.292-2.494-1.065-7.478-1.064-7.635 0-.205-.702-3.478-.536-3.885.133-.326 1.14.035 1.14-.13z"/><path d="m327.32 483.73c1.34 2.77 2.56 5.61 3.44 8.58 2.52 9.14 4.54 18.41 6.62 27.67 3.39 18.49 4.77 37.29 6.09 56.02h-2.67c-3.48-21.45-2.83-43.55-8.99-64.54-1.24-9.29-4.89-18.26-4.49-27.73z"/><path d="m350.53 511.95c1.27 12.94.99 26 .86 38.99-1.27 8.29-1.07 16.69-1.19 25.06h-.49c.06-9.01-.05-18.02.11-27.03 1.08-12.3 1.06-24.69.71-37.02z"/></g><path d="m118.49 486.63c4.9 5.28 8.47 11.58 12.34 17.62 9.14 15.37 17.46 31.22 25.6 47.14.46-.04 1.37-.11 1.82-.14 2.24 3.58 4.8 6.98 6.76 10.74 2.46 4.51 4.06 9.42 6.35 14.01h-11.91c-5.4-15.67-14.65-29.6-24.49-42.8 5.23 9.15 10.67 18.2 15.43 27.62 2.45 4.84 3.46 10.23 5.65 15.18h-3.34c-4.99-9.41-9.89-18.87-13.97-28.72-5.84-12.9-11.82-25.84-15.52-39.56-1.68-6.45-6.94-11.1-8.94-17.43 1.41-1.22 2.82-2.43 4.22-3.66z" fill="#beb9bb" stroke="#beb9bb"/><path d="m331.81 511.46c6.16 20.99 5.51 43.09 8.99 64.54h-11.79c3.15-12.08 3.67-24.58 3.39-36.99.44-9.21-1.83-18.36-.59-27.55z" fill="#bcbabc" stroke="#bcbabc"/><path d="m70.22 576c.01-20.34 5.03-40.18 8.07-60.17.71 2.96 2.03 5.72 3.49 8.38 4.07 7.17 3.93 15.83 3 23.77-1.68 9.49-4.65 18.69-7.03 28.02z" fill="#bbbabe" stroke="#bbbabe"/><path d="m134.96 533.2c9.84 13.2 19.09 27.13 24.49 42.8h-3.41c-2.19-4.95-3.2-10.34-5.65-15.18-4.76-9.42-10.2-18.47-15.43-27.62z" fill="#1a1815" stroke="#1a1815"/></g></g></svg>