<svg clip-rule="evenodd" fill-rule="evenodd" viewBox="0 0 395 388" xmlns="http://www.w3.org/2000/svg"><g fill-rule="nonzero" stroke-width=".09" transform="matrix(.707804 0 0 1.00219 4.1677 .167677)"><g fill="#433c3a" stroke="#433c3a"><path d="m121.22 0h6.24c1.45 1.01 3.82 1.86 3.59 4.03-.54 3.78-3.2 6.8-5.16 9.94 5.41 1.34 10.99 1.98 16.34 3.56 5.6 1.51 21.728 13.738 25.42 17.37 1.306 1.285-2.11 3.01-3.27 4.42 5.26 7.54 11.84 14.22 15.8 22.6 2.01 3.81 2.69 8.46 1.26 12.57-1.21 3.12-4.59 4.3-7.29 5.77 1.79 4.65 4.85 8.68 8.53 12.02 5.48 4.94 9.19 11.56 11.6 18.49 9.37-3.67 20.06-8.3 30.03-4.12 5.68 1.8 10.78 5.15 14.36 9.95 5.22-.62 9.55-3.72 14.42-5.37 1.57-8.64 1.69-17.46 2.21-26.2 2.71-14.97 10.23-29.05 21.25-39.54 5.42-4.34 30.95-18.46 30.95-18.46s-4.97 15.98-8.21 20.2c-5.94 10.16-7.08 22.25-7.23 33.79.06 14.18 6.06 27.54 13.41 39.39 5.7-1.41 10.92 2.69 13.91 7.17 5.57 8.55 10.3 18.11 10.55 28.51 5.05 1.5 10.39 2.22 15.09 4.71 2.5 1.2 5.05 2.93 7.96 2.21 3.81-.8 8.34-.07 11.53-2.65.68-2.87.67-5.98 2.25-8.58 2.1-3.53 5.47-6.02 8.23-8.99-.15-5.08.05-10.18 1.04-15.17-3.33-1.01-6.43-2.62-9.29-4.58.16-3.35.27-6.99 2.59-9.66 5.28-7.14 14.71-8.48 21.55-13.54 4.99-3.58 10.98-5.88 17.16-5.98 4.77-.08 9.54.21 14.29.73 3.68-2.83 7.78-5.86 12.67-5.68 6.65-.44 12.09 3.99 16.88 7.98 4.53-3 9.47-5.93 15.08-5.95 6.91-.54 15.1 2.89 16.91 10.16 2.42 6.51-.27 13.25-1.69 19.64 4.14 3.07 8.86 5.22 13.23 7.93 6.88 4.27 13.45 9.04 19.7 14.19 11.18 10.11 25.21 16.57 35.89 27.3v5.37c-2.03 4.22-5.29 8.46-10.12 9.46-4.55.13-8.7-2.14-12.57-4.25-5.95-3.51-11.83-7.2-18.32-9.65-11.18-5.06-24.21-5.86-35.88-2.02-7.12 2.37-14.18 5.31-20.16 9.93-4.45 3.56-6.29 9.2-10.17 13.26-1.53-.51-2.94-1.62-4.57-1.75-1.33 1.05-1.58 2.91-2.08 4.43-.85 3.74-2.82 7.1-5 10.2-2.33 3.38-6.29 4.91-9.49 7.27.23-.38.68-1.14.9-1.52-1.63 1.82-3.24 3.65-4.88 5.46-.09.99-.17 1.98-.25 2.97 4.07 5.66 5.07 12.94 3.63 19.67-.92 6.57-3.91 12.52-6.35 18.6-1.9 4.15 1.16 8.18 1.32 12.34.8 6.22-2.11 12.32-6.25 16.8-5.94 5.78-13.48 9.47-20.71 13.37-5.58 3.22-11.99 4.88-17.17 8.8-13.1 10.56-28.18 19.06-44.5 23.37-10.71 9.56-24.57 17.07-39.36 15.74-4.83-.8-8.3 3.07-12.5 4.59-8.31 3.11-17.22 3.95-25.71 6.43-14.76 4.49-30.4 7.49-45.82 5.16-8.92-.38-17.47-3.05-26.09-5.06-4.31.66-8.08 3.17-12.09 4.78-7.28 3.48-15.15 5.39-22.66 8.26-7.37 2.79-13.73 7.55-20.51 11.46-7.34 4.24-17.38 3.07-23.35-3-1.48-1.54-1.99-4.14-.66-5.93 2.14-3.23 5.69-5.07 8.81-7.22 11.07-6.92 21.97-15.06 28.75-26.46-4.99-3.18-10.15-6.18-14.48-10.26-14.53 1.35-29.72-1.3-42.06-9.38-7.42-5.03-15.17-10.23-19.89-18.08-7.62 3.9-16.99 4.63-24.81.9-7-3.67-11.42-11.08-12.3-18.84-.57-6.5-5.93-10.78-8.82-16.23-3.19-5.77-5.8-12.38-4.64-19.08 1.82-9.72 8.67-17.53 10.92-27.12 1.54-5.38.48-11.03 1.35-16.5 1.22-9.71 8.05-17.46 14.67-24.14-1.76-10.04-2.6-21.14 2.68-30.32 2.29-3.94 3.35-9.85 8.73-10.52 5.81 7.4 7.09 17.45 13.61 24.41 2.57 2.78 7.07 1.11 9.23-1.37 2.82-4.22 3.59-9.42 6.08-13.82 7.28-13.88 20.68-25.41 36.53-27.59 2.85-.67 6.3-.41 8.62-2.41 3.67-13.97-4.37-30.3-18.17-35.08-8.62-3.03-17.72-.85-26.43.48-17.98 2.8-34.64 10.68-52.38 14.48-2.94.54-5.93.57-8.89.84-5.49.75-22.391-1.723-22.391-3.368s5.651-7.982 5.651-7.982c5.59-3.9 11.81-6.79 17.39-10.7 9.71-6.21 18.28-14.02 28.16-19.97-1.06-6.24-1.91-13.89 3.32-18.59 4.78-3.52 10.85-4.59 16.48-6.1.9-1.26 1.82-2.52 2.74-3.78 0 0 13.39-11.09 21.42-16.49 9.41-6.97 20.36-11.63 31.71-14.41m-24.96 16.09c-10.46 6.18-20.03 14.03-27.61 23.56 7.05 10.45-5.49 24.92-16.92 21.97-8.29 6.51-16.7 12.91-25.77 18.31-7.78 5.1-16.35 8.9-23.89 14.38.97 1.61 1.6 4.05 3.91 4.05 5.05.44 9.99-1.25 14.93-2.07 16.69-4.39 33.13-9.68 49.76-14.3 9.2-2.5 18.69-4.55 28.29-3.85 8.32.3 16.71 4.21 21.41 11.25 6.17 9.33 8.8 20.94 7.29 32.03 5.23-.32 10.12-2.35 14.29-5.45 13.35-9.38 30.91-10.25 46.33-6.42-1.5-4.88-4.48-9.15-8.32-12.47-6.99-6.37-14.37-13.59-16.24-23.24 1.77-4.66 6.92-.41 10.26-.55 3.14-.11 2.8-3.95 2.12-6.09-3.14-10.6-10.75-19.42-19.99-25.3-2.02-1.71-5.54-2.91-5.58-5.97 2.13-2.53 6.02-1.03 8.87-1.7-10.63-8.47-23.79-13.98-37.43-14.65-1.98.1-3.69-.74-4.84-2.33 2.63-3.38 5.43-6.64 7.75-10.25-10.26-.19-19.89 4.12-28.62 9.09m-38.75 25.48c-4.52 1.82-7.3 6.68-7.23 11.46-.13 2.47 1.3 5.39 3.97 5.76 4.1.37 7.86-2.24 10.35-5.28 2.52-3.08 4.47-7.91 1.54-11.38-2.09-2.73-5.93-1.62-8.63-.56m231.08-.16c-13.96 10.77-25.09 25.99-28.4 43.54-1.03 8.69.03 17.54-1.97 26.14 6.55.3 13.22 1.56 19.04 4.71 6.55 3.6 9.62 11.3 16.5 14.44 7.46 3.56 15.3 6.7 21.63 12.19 3.31 2.71 5.87 6.16 8.45 9.53-.29-7.54-4.93-13.83-9.49-19.45-1.93-2.24-3.64-4.81-6.19-6.39-1.25.61-2.4 1.42-3.58 2.16-4.77-2.64-7.09-7.79-9.44-12.43-4.2-8.95-7.83-18.26-9.65-28-2.14-10.5-1.09-21.6 2.74-31.58 2-5.65 6.24-10.01 9.26-15.09-2.95.03-6.04-.57-8.9.23m141.91 53.04c-8.25 2.95-9.94 14.31-4.63 20.66 3.97 5.61 12.46 6.93 17.89 2.65 4.02-2.44 5.25-7.3 5.55-11.69-1.72-7.93-10.59-15.18-18.81-11.62m27.13 6.15c-3.43 4.89-2.29 11.84 1.39 16.26 2.64 3.01 6.62 4.42 10.5 4.94 2.46-1.58 5.65-2.34 7.26-4.97 2.58-3.91 3.57-9.11 1.88-13.55-3.4-7.86-15.81-9.54-21.03-2.68m-64.52 1.29c5.37 1.75 11.21 3.16 15.28 7.37-6.97-.79-14.02-4.63-21.01-2-5.93 2.1-12.11 5.11-15.7 10.49-.48.99-1.49 3.25.27 3.55 7.08 1.31 14.37-2.57 21.25-.04-3.67 2.49-8.16 3.58-11.55 6.49-3.63 5.55-1.12 12.64-3.26 18.64-1.56 3.67-5.52 5.25-8.07 8.07-1.02 3.39-.25 7.86-3.61 10.08-4.04 3.88-9.99 2.71-15.04 2.93 1.27 1.74 2.54 3.5 3.76 5.29-1.08.87-2.15 1.74-3.22 2.62-5.85-5.19-12.12-10.28-19.66-12.75-5.6-1.71-11.7-3.36-17.43-1.25 2.69 3.25 6.46 5.19 9.75 7.72 2.2 1.5 1.58 4.46 1.95 6.71-3.68-2.49-6.56-6.05-10.57-8.07-4.67-2.4-10.04-3.69-15.28-2.92-9.14 1.22-17.55 5.73-24.6 11.52-13.1 10.79-20.14 27.61-21.45 44.27 13.96-.51 26.8 5.75 40.4 7.52 5.08-5.35 12.47-7.53 19.61-8.22 8.63-.69 17.55.08 25.54 3.61 7.19 2.9 13.08 8.35 20.56 10.59 7.9 2.51 16.44 1.56 24.23-.84 13.54-4.19 24.72-13.99 32.4-25.7.64-.12 1.92-.35 2.56-.47 2.06-4.67-2.97-9.64-.1-14.11 3.53 2.67 1.85 8.25 4.91 11.45 6.83-4.92 7.22-14.35 11.11-21.25.79-1.86 2.99-1.39 4.61-1.53.82 1.53 1.65 3.05 2.5 4.58.91-4.45 2.26-9.08 5.9-12.1 11.24-9.99 26.8-14.68 41.71-13.57 16.44 1.53 32.53 7.83 45.34 18.3 1.04.86 2.28 1.58 3.7 1.24 3.51-.21 5.3-3.64 7.08-6.18-3.83-5.33-9.91-8.13-15.02-11.98-6.84-4.7-13.1-10.16-19.43-15.5-8.09-6.45-17.11-11.57-25.77-17.2-3.9-2.59-8.19-4.5-12.57-6.12-5.82 3.1-12.99.5-17.3-3.98-2.92-3-3.99-7.16-4.68-11.17-.71 3.59-1.32 7.49-4.09 10.14-5.43 6.3-15.77 7.29-22.11 1.78-6.09-4.92-7.89-13.72-5.2-20.92-9.29-2.21-18.89-.33-27.7 2.91m-254.24 22.48c1.3.55 2.59 1.12 3.88 1.71-.58 1.11-1.47 1.66-2.69 1.64-11.09-.3-22.52-1.23-33.3 1.98-7.83 2.14-14.04 7.84-19.3 13.77-5.87 6.65-8.04 15.47-12 23.22 8.42-1.79 17.13-4.31 25.75-2.34 6 1.4 12.04 3.59 16.84 7.57 5.25 4.59 5.98 12.04 6.57 18.55 3.68-4.29 7.68-8.48 12.72-11.16 3.79-2.16 8.08-3.16 12.01-4.99 4.67-2.18 6.7-7.24 10.09-10.81 1.66-1.96 4.1-4.65 2.43-7.33-2.8-4.2-7.27-6.97-11.46-9.62-4.5-2.85-9.78-3.84-14.68-5.73-.04-.5-.12-1.48-.17-1.97 6.66-.56 12.9 2.85 18.46 6.12 4.77 3.24 10.12 6.69 11.83 12.55 7.98-6.54 19.34-8.25 28.84-4.14 3.77-4.83 8.22-9.56 9.13-15.89-6.13-1.23-12.41-.67-18.6-1.26 4.83-4.18 11.93-2.42 17.67-1.67-4.02-5.95-10-10.86-11.68-18.13-6.09-4.45-13.96-4.85-21.23-4.81-11.58.56-21.03 7.92-31.11 12.74m55.33-7.15c2.03 3.71 4.57 7.1 7.35 10.28 2.73 3.22 5.55 7.07 5.03 11.54-.78 6.14-4.84 11.32-9.37 15.3 2.24.43 4.49.86 6.74 1.3 3.32-5.16 6.2-10.61 8.44-16.32 1.3-2.85 2.34-6.46 5.58-7.66 1.75-.14 2.99 1.37 4.37 2.2 2.86-5.31 7.58-9.36 12.95-11.98-2.56-2.17-4.87-4.65-7.58-6.64-3.92-2.87-9.03-3.23-13.72-2.89-6.79.59-13.6 1.94-19.79 4.87m50.86 3.78c-8.15 4.27-15.51 10.15-21 17.59 2.23 4.1 3.73 8.53 4.62 13.1 7.78-3.3 15.46-8.12 24.23-7.61 2.65.1 6.23.44 7.2 3.42.81 1.35.71 3.77 2.79 3.75 9.92 2.12 21.01 2.83 28.79 10.16 5.82-2.27 12.15-2.99 18.36-2.39 2.44-1.67 5.08-3.03 7.85-4.1-2.45-4.86-5.23-9.93-10.02-12.84-5.75-4.33-13.07-5.05-19.89-6.44-4.79.56-9.32 2.47-14.12 3.02 3.16-3.7 8.17-4.59 12.62-5.82-2.91-4.7-5.98-9.76-11.12-12.3-9.42-4.93-20.82-3.56-30.31.46m-27.02 16.85c-.94 2.48-1.83 4.98-2.82 7.44-4.72 12.16-14.15 21.71-23.82 30.11-4.18 3.86-9.6 5.77-14.35 8.7-1.16 2.52-1.28 5.42-2.17 8.06-1.08-2.88-1.42-5.97-2.38-8.88-.78-1.54-2.57.29-3.48.82-5.44 4.45-9.43 10.57-11.88 17.13-3.56 10.25-5.49 20.98-6.55 31.75-.56 5.87.58 11.72 1.79 17.45.69 3.71 3.38 6.5 5.35 9.58-5.5-1.42-9.22-6.22-14.66-7.84-.5 16.09 7.43 30.81 16.81 43.32 4.53.31 8.2 2.9 10.84 6.45 2.94-4.13 7.22-7.38 12.28-8.31 3.65-.97 7.21 1.08 9.95 3.32 5.22 4.06 5 12.97-.01 17.12-6.14 5.59-16.61 4.15-21.97-1.9-3.34 4.85-8.99 7.43-14.83 7.29-5.88 15.07-16.25 27.82-27.7 39.03-7.1 7.28-15.77 12.63-23.77 18.8 4.14 2.34 8.98 4.43 13.81 3.25 3.17-1.33 5.83-3.59 8.71-5.41 12.92-8.43 27.79-12.97 41.77-19.24 15.85-7.25 30.9-17.56 41.08-31.93 5.72-6.27 9.49-14.02 12.9-21.71 3.04-7.54 6.12-15.41 5.52-23.7-3.48.54-6.81 1.69-9.98 3.18-2.2.84-4.79 2.44-6.97.53 2.28-1.61 5.13-2.59 7.11-4.56.56-3.5.39-7.14 1.5-10.55 1.79-5.68 4.92-10.83 8.42-15.61 4.43-6.24 10.76-10.92 14.54-17.66-5.55-4.51-12.59-5.74-19.43-6.91 2.81-1.94 6.25-1.87 9.52-1.75 4.41-7.18 11.24-12.2 18.4-16.37 2.97-18.6 16.44-33.94 32.12-43.48-.05-.38-.14-1.16-.19-1.54-2.69-.54-5.45-.98-7.9-2.29-5.18-2.74-10.66-5.03-16.45-6.05-2.79-.53-5.43.8-8.09 1.4 1.95-2.31 4.03-4.5 6.2-6.6-9.41-.47-18.84 1.68-27.31 5.71-2.74.98-1.93 4.35-2.65 6.58-.33 3.36-2.38 6.1-4.93 8.16 3.51-10.88 3.69-23.88-4.33-32.89m-171.63 9.97c-5.59 9.94-6.63 21.72-4.7 32.81 4.81-4.05 10.2-7.34 15.91-9.94-6.5-6-9.15-14.56-11.21-22.87m118.5 18.03c-4.82 3.69-7.93 9.05-12.62 12.88 3.6 1.09 7.12 2.42 10.53 4.01 2.63-2.52 5.34-5.55 9.19-5.97 1.55.07 3.01.64 4.5 1.04 8.89-4.38 16.56-10.94 23.61-17.84-4.96-2.58-10.42-4.8-16.1-4.57-7.37 1.13-13.46 5.91-19.11 10.45m-102.62 6.61c-11.84 4.09-22.22 12.36-28.93 22.94-5.23 8.22-5.93 18.2-7.48 27.56-1.97 9.86-10.01 17.68-10.17 28.02-.45 9.39 4.75 17.74 10.31 24.86.15-8.27.96-16.51 2.25-24.67.33-2.33 1.05-4.65 2.83-6.29.7 8.4-1.5 16.69-1.74 25.08-.15 7.67-.83 15.83 2.67 22.94 2.33 4.99 7.33 8.78 12.92 8.99 5.59.64 11.05-1.36 15.79-4.17-.46-6.21-.87-12.49.09-18.68 1.3-8.63 5.55-16.4 9.76-23.92-1.27-4.58-3.03-9.02-3.88-13.7 2.78 3.05 4.3 6.94 5.64 10.78 6.2-8.11 12.47-16.46 21.06-22.21-2.42-5.43-3.7-11.39-6.84-16.47-3.71-3.84-9.7-3.01-14.56-3.33-5.73-.43-11.31 1.52-17 1.31.04-.34.12-1.02.16-1.36 4.44-3.39 10.57-2.71 15.86-3.18 6.01.2 13.21-.39 17.84 4.21 3.57 5.38 4.83 11.9 7.51 17.74 1.65-1.22 2.93-2.83 3.87-4.64 6.08-10.46 14.65-19.2 20.94-29.5.55-5.21-.28-10.67-2.04-15.62-1.28-3.72-4.65-5.99-7.89-7.88-6.77 3.99-13.02 8.81-19.84 12.72 5.28-5.25 11.28-9.71 17.49-13.79-5.68-2.26-11.78-3.94-17.95-3.14-9.66 1.21-19.1 3.71-28.67 5.4m79.14 9.97c-10.04 4.58-15.67 14.55-21.88 23.1-6.25 7.97-12.51 15.98-17.49 24.83 3.74 1.42 6.97 4.16 10.97 4.84 3.34-.33 6.27-2.24 9.59-2.75-1.71 3.66-5.54 6.11-9.61 5.9-4.51-.06-7.73-3.9-12.03-4.61-4.4.26-7.95 3.31-11.08 6.14-7.04 6.85-12.92 14.88-17.48 23.57-5.16 10.18-9.49 21.53-7.96 33.13 3.3 8.25 9.39 15.36 17 19.97 10.27 7.24 23.09 10.5 35.58 9.84 10.1-1.13 19.33-5.66 28.76-9.13-4.34-8.32-.13-18.71 7.77-23.12-7.69-7.02-10.8-17.42-13.48-27.15-3.7 4.3-6.68 9.41-11.53 12.56-6.34 4.11-14.03 6.08-21.56 5.59-6.47.34-10.76-9.23-5.6-13.33.68 3.59-.13 9.3 4.63 10.24 7.48.87 15.29-1.3 21.45-5.6 4.72-3.67 7.74-8.97 11.85-13.23-.64-5.23-2.94-13.25 3.46-15.78 1.39.61 2.78 1.21 4.16 1.82-1.96-13.98.37-28.12 3.89-41.67-3.15-1.91-6.56-3.31-9.93-4.76.52-.88 1.22-1.58 2.09-2.09 3.17.67 5.99 2.33 8.83 3.81 2.06-6.81 4.91-13.4 8.98-19.26-5.97-2.68-12.91-5.14-19.38-2.86m97.28 43.99c3.66 1.48 8.4 2.83 9.83 6.96.58 3.64-3.37 5.45-5.41 7.77-8.62 9.26-16.56 20.01-19.16 32.63 3.21.19 7-.84 9.67 1.47 2.57 2.51 1.73 6.38 1.75 9.59 9.56.02 19.11-.41 28.65-.98 6.86-.26 13.85.24 20.39 2.44 10.53-3 14.94-14.03 23.07-20.2-1.62 5.29-5.35 9.52-8.74 13.76-2.84 3.54-6.61 6.17-10.66 8.14 2.17 2.19 4.23 4.67 4.95 7.76 1.68 7.11 1.15 14.5.68 21.73 2.69-.51 5.39-.94 8.12-1.14-2.29 2.05-5.22 3.08-8.17 3.73-1.68 7.77-3.55 15.64-7.71 22.52 10.52-.65 21.72-1.85 30.58-8.09 6.9-4.58 11.43-11.8 14.86-19.17 1.26-2.52 2.04-5.43 4.3-7.28.41 7.4-3.97 13.74-7.61 19.78 10.87-5.6 21.3-12.03 32.3-17.39 3.49-1.85 7.25-3.25 10.5-5.53 4.53-4.86 4.47-11.9 5.34-18.07 2.88 4.79 1.71 10.95-.98 15.57 5.67-2.96 11.64-5.39 16.82-9.22 7.12-5.08 14.87-10.37 18.77-18.49 1.97-3.88.14-8.11-1.55-11.7-4.17 3.57-9.44 6.22-15.07 5.79 4.21-3.81 10.34-4.6 14.23-8.9 1.53-9.38 8.58-17.15 8.4-26.91.18-4.25-2.12-8-4.68-11.19-4.81 4.44-9.98 8.56-15.79 11.62-6.12 3.34-12.93 5.03-19.53 7.14.81 4.66 1.74 9.68-.3 14.17-.95-4.49-1.12-9.09-1.94-13.6-4.57.58-9.26 1.01-13.81.02-10.24-2.13-18.29-9.38-27.92-13.06-10.49-4.89-22.83-3.7-33.36.42 9.32 1.7 19.18-.63 28.2 2.85 10.06 3.76 17.43 14.85 15.46 25.67-.62 3.69-1.45 7.78-4.7 10.11-.71-5.51 2.59-10.68 1.65-16.21-1.16-7.11-6.19-13.54-12.88-16.28-5.42-2.37-11.47-2.08-17.26-2.2-6.77-.02-13.56-.54-20.2-1.87-5.05 4.13-8.75 9.65-13.94 13.62 2.31-5.75 6.73-10.17 11.23-14.26-10.56-2.54-21.04-6.6-32.1-5.76-2.58.45-4.84-.8-6.96-2.06.81-.22 2.42-.66 3.22-.88-.36-2.12-.63-4.26-.85-6.4-4.25 3.49-8.22 7.3-11.69 11.58m-4.08 61.06c-3.54 13.66-10.75 25.98-18.72 37.49 6.9 1.33 14.1 2.24 21.02.55 2.33-.44 4.7-1.45 7.09-.76-1.3 3.24-5.16 3.66-8.12 4.27-7.36 1.02-14.95.5-22.08-1.59-8.09 9.54-16.63 19.19-27.9 25.04 14.44 3.44 29.24 6.08 44.14 5.14 16.23-.42 31.39-6.73 46.94-10.59 3.25-.77 4.74-4.11 6.41-6.66 4.5-8.01 7.22-17.13 7.28-26.35.08-6.41.83-13.13-1.41-19.27-2.55-5.67-9.49-6.66-14.95-7.4-13.23-.89-26.47 1.01-39.7.13m-53.3 9.74c-3.88 1.55-7.67 4.51-8.6 8.78-.64 3.91 3.11 6.95 6.55 7.83 4.99 1.65 11.38.06 13.72-4.99 3.43-6.68-5.2-14.91-11.67-11.62m-26.84 2.32c-3.83 1.55-6.19 5.57-6.36 9.6-.03 1.57-.32 3.56 1.21 4.56 3.51 2.95 8.67 3 12.85 1.61 3.84-1.27 7.34-5.12 6.29-9.41-1.31-6.02-8.57-9.18-13.99-6.36m-26.11 29.38c3.94 3.73 8.88 6.03 13.79 8.18 3.13-4.65 5.65-9.69 7.45-15-.78-.7-1.55-1.41-2.33-2.1-6.14 3.31-13.71 4.02-18.91 8.92z"/><path d="m86.47 33.75c10.32-3.4 19.57 7.53 18.71 17.29-.18 6.19-5.05 11.46-10.92 12.97-8.41 2.42-18.97-1.44-22.35-9.87-2.1-4.91-.09-10.96 4.43-13.76 3.39-2.17 6.16-5.49 10.13-6.63m2.09 2.9c-4.71 1.82-9.45 4.24-12.85 8.05-3.59 4.58-.78 11.14 3.76 13.9 6 4.29 15.39 4.07 20.26-1.84 6.05-7.63-1.08-22.11-11.17-20.11z"/><path d="m92.17 43.18c3.98-1.75 5.08 6.62.85 7.21-4.77 1.26-4.35-6.03-.85-7.21z"/><path d="m53.16 47.78c1.59-.36 3.59.84 3.14 2.63-.69 1.36-2.17 3.01-3.84 2.12-1.37-1.31-.81-3.76.7-4.75z"/><path d="m138.75 62.98c1.43-.7 2.84-.71 4.25-.02 4.26 1.78 8.15 4.44 11.48 7.62 1.48 1.18 1.62 3.76-.21 4.69-3.93 1.34-8.22.92-12.26.36-1.51-.42-4.15-.26-3.86-2.51 4.58-.64 9.23-.2 13.84-.39-2.81-2.54-5.92-4.75-9.35-6.38-1.49-.87-3.56-1.39-3.89-3.37z"/><path d="m440.51 104.4c1.42-1.33 4.2-.18 4.24 1.78.48 2.37-2.3 5.31-4.63 3.95-2.11-1.33-1.46-4.5.39-5.73z"/><path d="m461.43 104.41c3.14-.77 5.9 3.89 3.21 6.11-1.87 2.45-5.53.18-5.08-2.55.11-1.26.41-3.21 1.87-3.56z"/><path d="m395.11 158.99c1.96-4.33 4.5-8.54 8.21-11.59.15 5.32-4.4 9.18-6.24 13.91 3.82-.75 7.63-1.57 11.39-2.57 1.34-1.82 2.25-4.39 4.69-4.96-.14 4.73-3.64 8.52-4.21 13.18-1.14 4.3-.33 9.16-2.83 13.02-1.83-6.36-.94-13.14 1.41-19.23-3.57 1.67-7.33 3.88-11.43 3.22-1.87-.96-1.84-3.35-.99-4.98z"/><path d="m187.57 193.48c3.84-5.98 8.58-12.14 15.41-14.78 3.76 1.31 2.19 5.74 1.58 8.6-1.71 5.69-2.85 11.86-6.54 16.68-.18-7.47 3.42-14.29 4.06-21.65-5.81 4.14-10.45 9.75-13.75 16.05-2.46 4.3-3.29 9.25-5.3 13.75-2.57-6.57 1.18-13.17 4.54-18.65z"/><path d="m222.39 190.61c4.09-1.26 10.21-2.78 12.28 2.31-3.81-.15-7.73-.6-11.43.6-5.12 1.32-9.17 4.9-13.86 7.15 1.6-5.81 7.86-8.26 13.01-10.06z"/><path d="m363.28 197.28c3.66-.95 7.96-3.1 11.37-.34-8.17 3.11-16.78 4.86-24.88 8.19 5.25 1.66 11.55 1.08 15.88 4.93-5.98.34-12-.46-17.74-2.1-1.51-.36-2.26-1.89-3.29-2.87 5.27-4.49 12.3-5.63 18.66-7.81z"/><path d="m180.73 308.01c-1.01-3.33 2.44-5.65 5.37-5.75.27 1.85 1.52 4.2-.2 5.74-1.29 1.55-4.09 2.06-5.17.01z"/><path d="m156.72 311.14c-.75-2.36 1.09-4.18 2.19-6.03 1.17.83 2.83 1.33 3.36 2.84.81 3.04-3.4 5.95-5.55 3.19z"/></g><path d="m96.26 16.09c8.73-4.97 18.36-9.28 28.62-9.09-2.32 3.61-5.12 6.87-7.75 10.25 1.15 1.59 2.86 2.43 4.84 2.33 13.64.67 26.8 6.18 37.43 14.65-2.85.67-6.74-.83-8.87 1.7.04 3.06 3.56 4.26 5.58 5.97 9.24 5.88 16.85 14.7 19.99 25.3.68 2.14 1.02 5.98-2.12 6.09-3.34.14-8.49-4.11-10.26.55 1.87 9.65 9.25 16.87 16.24 23.24 3.84 3.32 6.82 7.59 8.32 12.47-15.42-3.83-32.98-2.96-46.33 6.42-4.17 3.1-9.06 5.13-14.29 5.45 1.51-11.09-1.12-22.7-7.29-32.03-4.7-7.04-13.09-10.95-21.41-11.25-9.6-.7-19.09 1.35-28.29 3.85-16.63 4.62-33.07 9.91-49.76 14.3-4.94.82-9.88 2.51-14.93 2.07-1.444 0-5.98-1.28-5.98-1.28-.661-.232 1.406-2.617 2.07-2.77 7.54-5.48 16.11-9.28 23.89-14.38 9.07-5.4 17.48-11.8 25.77-18.31 11.43 2.95 23.97-11.52 16.92-21.97 7.58-9.53 17.15-17.38 27.61-23.56m-9.79 17.66c-3.97 1.14-6.74 4.46-10.13 6.63-4.52 2.8-6.53 8.85-4.43 13.76 3.38 8.43 13.94 12.29 22.35 9.87 5.87-1.51 10.74-6.78 10.92-12.97.86-9.76-8.39-20.69-18.71-17.29m52.28 29.23c.33 1.98 2.4 2.5 3.89 3.37 3.43 1.63 6.54 3.84 9.35 6.38-4.61.19-9.26-.25-13.84.39-.29 2.25 2.35 2.09 3.86 2.51 4.04.56 8.33.98 12.26-.36 1.83-.93 1.69-3.51.21-4.69-3.33-3.18-7.22-5.84-11.48-7.62-1.41-.69-2.82-.68-4.25.02z" fill="#ffe753" stroke="#ffe753"/><path d="m46.41 147.82c2.06 8.31 4.71 16.87 11.21 22.87-5.71 2.6-11.1 5.89-15.91 9.94-1.93-11.09-.89-22.87 4.7-32.81z" fill="#ffe753" stroke="#ffe753"/><g fill="#fffffe" stroke="#fffffe"><path d="m88.56 36.65c10.09-2 17.22 12.48 11.17 20.11-4.87 5.91-14.26 6.13-20.26 1.84-4.54-2.76-7.35-9.32-3.76-13.9 3.4-3.81 8.14-6.23 12.85-8.05m3.61 6.53c-3.5 1.18-3.92 8.47.85 7.21 4.23-.59 3.13-8.96-.85-7.21z"/><path d="m57.51 41.57c2.7-1.06 6.54-2.17 8.63.56 2.93 3.47.98 8.3-1.54 11.38-2.49 3.04-6.25 5.65-10.35 5.28-2.67-.37-4.1-3.29-3.97-5.76-.07-4.78 2.71-9.64 7.23-11.46m-4.35 6.21c-1.51.99-2.07 3.44-.7 4.75 1.67.89 3.15-.76 3.84-2.12.45-1.79-1.55-2.99-3.14-2.63z"/><path d="m430.5 94.45c8.22-3.56 17.09 3.69 18.81 11.62-.3 4.39-1.53 9.25-5.55 11.69-5.43 4.28-13.92 2.96-17.89-2.65-5.31-6.35-3.62-17.71 4.63-20.66m10.01 9.95c-1.85 1.23-2.5 4.4-.39 5.73 2.33 1.36 5.11-1.58 4.63-3.95-.04-1.96-2.82-3.11-4.24-1.78z"/><path d="m457.63 100.6c5.22-6.86 17.63-5.18 21.03 2.68 1.69 4.44.7 9.64-1.88 13.55-1.61 2.63-4.8 3.39-7.26 4.97-3.88-.52-7.86-1.93-10.5-4.94-3.68-4.42-4.82-11.37-1.39-16.26m3.8 3.81c-1.46.35-1.76 2.3-1.87 3.56-.45 2.73 3.21 5 5.08 2.55 2.69-2.22-.07-6.88-3.21-6.11z"/><path d="m181.33 297.22c6.47-3.29 15.1 4.94 11.67 11.62-2.34 5.05-8.73 6.64-13.72 4.99-3.44-.88-7.19-3.92-6.55-7.83.93-4.27 4.72-7.23 8.6-8.78m-.6 10.79c1.08 2.05 3.88 1.54 5.17-.01 1.72-1.54.47-3.89.2-5.74-2.93.1-6.38 2.42-5.37 5.75z"/><path d="m154.49 299.54c5.42-2.82 12.68.34 13.99 6.36 1.05 4.29-2.45 8.14-6.29 9.41-4.18 1.39-9.34 1.34-12.85-1.61-1.53-1-1.24-2.99-1.21-4.56.17-4.03 2.53-8.05 6.36-9.6m2.23 11.6c2.15 2.76 6.36-.15 5.55-3.19-.53-1.51-2.19-2.01-3.36-2.84-1.1 1.85-2.94 3.67-2.19 6.03z"/></g><path d="m288.59 41.41c1.073-.3 12.341-6.487 12.341-6.487s-9.043 16.547-12.701 21.347c-3.83 9.98-4.88 21.08-2.74 31.58 1.82 9.74 5.45 19.05 9.65 28 2.35 4.64 4.67 9.79 9.44 12.43 1.18-.74 2.33-1.55 3.58-2.16 2.55 1.58 4.26 4.15 6.19 6.39 4.56 5.62 9.2 11.91 9.49 19.45-2.58-3.37-5.14-6.82-8.45-9.53-6.33-5.49-14.17-8.63-21.63-12.19-6.88-3.14-9.95-10.84-16.5-14.44-5.82-3.15-12.49-4.41-19.04-4.71 2-8.6.94-17.45 1.97-26.14 3.31-17.55 14.44-32.77 28.4-43.54z" fill="#926fcc" stroke="#926fcc"/><path d="m218.04 137.85c8.02 9.01 7.84 22.01 4.33 32.89 2.55-2.06 4.6-4.8 4.93-8.16.72-2.23-.09-5.6 2.65-6.58 8.47-4.03 17.9-6.18 27.31-5.71-2.17 2.1-4.25 4.29-6.2 6.6 2.66-.6 5.3-1.93 8.09-1.4 5.79 1.02 11.27 3.31 16.45 6.05 2.45 1.31 5.21 1.75 7.9 2.29.05.38.14 1.16.19 1.54-15.68 9.54-29.15 24.88-32.12 43.48-7.16 4.17-13.99 9.19-18.4 16.37-3.27-.12-6.71-.19-9.52 1.75 6.84 1.17 13.88 2.4 19.43 6.91-3.78 6.74-10.11 11.42-14.54 17.66-3.5 4.78-6.63 9.93-8.42 15.61-1.11 3.41-.94 7.05-1.5 10.55-1.98 1.97-4.83 2.95-7.11 4.56 2.18 1.91 4.77.31 6.97-.53 3.17-1.49 6.5-2.64 9.98-3.18.6 8.29-2.48 16.16-5.52 23.7-3.41 7.69-7.18 15.44-12.9 21.71-10.18 14.37-25.23 24.68-41.08 31.93-13.98 6.27-28.85 10.81-41.77 19.24-2.88 1.82-5.54 4.08-8.71 5.41-4.83 1.18-9.67-.91-13.81-3.25 8-6.17 16.67-11.52 23.77-18.8 11.45-11.21 21.82-23.96 27.7-39.03 5.84.14 11.49-2.44 14.83-7.29 5.36 6.05 15.83 7.49 21.97 1.9 5.01-4.15 5.23-13.06.01-17.12-2.74-2.24-6.3-4.29-9.95-3.32-5.06.93-9.34 4.18-12.28 8.31-2.64-3.55-6.31-6.14-10.84-6.45-9.38-12.51-17.31-27.23-16.81-43.32 5.44 1.62 9.16 6.42 14.66 7.84-1.97-3.08-4.66-5.87-5.35-9.58-1.21-5.73-2.35-11.58-1.79-17.45 1.06-10.77 2.99-21.5 6.55-31.75 2.45-6.56 6.44-12.68 11.88-17.13.91-.53 2.7-2.36 3.48-.82.96 2.91 1.3 6 2.38 8.88.89-2.64 1.01-5.54 2.17-8.06 4.75-2.93 10.17-4.84 14.35-8.7 9.67-8.4 19.1-17.95 23.82-30.11.99-2.46 1.88-4.96 2.82-7.44m-30.47 55.63c-3.36 5.48-7.11 12.08-4.54 18.65 2.01-4.5 2.84-9.45 5.3-13.75 3.3-6.3 7.94-11.91 13.75-16.05-.64 7.36-4.24 14.18-4.06 21.65 3.69-4.82 4.83-10.99 6.54-16.68.61-2.86 2.18-7.29-1.58-8.6-6.83 2.64-11.57 8.8-15.41 14.78m34.82-2.87c-5.15 1.8-11.41 4.25-13.01 10.06 4.69-2.25 8.74-5.83 13.86-7.15 3.7-1.2 7.62-.75 11.43-.6-2.07-5.09-8.19-3.57-12.28-2.31z" fill="#926fcc" stroke="#926fcc"/><path d="m393.11 101.89c8.81-3.24 18.41-5.12 27.7-2.91-2.69 7.2-.89 16 5.2 20.92 6.34 5.51 16.68 4.52 22.11-1.78 2.77-2.65 3.38-6.55 4.09-10.14.69 4.01 1.76 8.17 4.68 11.17 4.31 4.48 11.48 7.08 17.3 3.98 4.38 1.62 8.67 3.53 12.57 6.12 8.66 5.63 17.68 10.75 25.77 17.2 6.33 5.34 12.59 10.8 19.43 15.5 5.11 3.85 11.19 6.65 15.02 11.98-1.78 2.54-3.57 5.97-7.08 6.18-1.42.34-2.66-.38-3.7-1.24-12.81-10.47-28.9-16.77-45.34-18.3-14.91-1.11-30.47 3.58-41.71 13.57-3.64 3.02-4.99 7.65-5.9 12.1-.85-1.53-1.68-3.05-2.5-4.58-1.62.14-3.82-.33-4.61 1.53-3.89 6.9-4.28 16.33-11.11 21.25-3.06-3.2-1.38-8.78-4.91-11.45-2.87 4.47 2.16 9.44.1 14.11-.64.12-1.92.35-2.56.47-7.68 11.71-18.86 21.51-32.4 25.7-7.79 2.4-16.33 3.35-24.23.84-7.48-2.24-13.37-7.69-20.56-10.59-7.99-3.53-16.91-4.3-25.54-3.61-7.14.69-14.53 2.87-19.61 8.22-13.6-1.77-26.44-8.03-40.4-7.52 1.31-16.66 8.35-33.48 21.45-44.27 7.05-5.79 15.46-10.3 24.6-11.52 5.24-.77 10.61.52 15.28 2.92 4.01 2.02 6.89 5.58 10.57 8.07-.37-2.25.25-5.21-1.95-6.71-3.29-2.53-7.06-4.47-9.75-7.72 5.73-2.11 11.83-.46 17.43 1.25 7.54 2.47 13.81 7.56 19.66 12.75 1.07-.88 2.14-1.75 3.22-2.62-1.22-1.79-2.49-3.55-3.76-5.29 5.05-.22 11 .95 15.04-2.93 3.36-2.22 2.59-6.69 3.61-10.08 2.55-2.82 6.51-4.4 8.07-8.07 2.14-6-.37-13.09 3.26-18.64 3.39-2.91 7.88-4 11.55-6.49-6.88-2.53-14.17 1.35-21.25.04-1.76-.3-.75-2.56-.27-3.55 3.59-5.38 9.77-8.39 15.7-10.49 6.99-2.63 14.04 1.21 21.01 2-4.07-4.21-9.91-5.62-15.28-7.37m2 57.1c-.85 1.63-.88 4.02.99 4.98 4.1.66 7.86-1.55 11.43-3.22-2.35 6.09-3.24 12.87-1.41 19.23 2.5-3.86 1.69-8.72 2.83-13.02.57-4.66 4.07-8.45 4.21-13.18-2.44.57-3.35 3.14-4.69 4.96-3.76 1-7.57 1.82-11.39 2.57 1.84-4.73 6.39-8.59 6.24-13.91-3.71 3.05-6.25 7.26-8.21 11.59m-31.83 38.29c-6.36 2.18-13.39 3.32-18.66 7.81 1.03.98 1.78 2.51 3.29 2.87 5.74 1.64 11.76 2.44 17.74 2.1-4.33-3.85-10.63-3.27-15.88-4.93 8.1-3.33 16.71-5.08 24.88-8.19-3.41-2.76-7.71-.61-11.37.34z" fill="#9dde73" stroke="#9dde73"/><g fill="#ffc2b9" stroke="#ffc2b9"><path d="m138.87 124.37c10.08-4.82 19.53-12.18 31.11-12.74 7.27-.04 15.14.36 21.23 4.81 1.68 7.27 7.66 12.18 11.68 18.13-5.74-.75-12.84-2.51-17.67 1.67 6.19.59 12.47.03 18.6 1.26-.91 6.33-5.36 11.06-9.13 15.89-9.5-4.11-20.86-2.4-28.84 4.14-1.71-5.86-7.06-9.31-11.83-12.55-5.56-3.27-11.8-6.68-18.46-6.12.05.49.13 1.47.17 1.97 4.9 1.89 10.18 2.88 14.68 5.73 4.19 2.65 8.66 5.42 11.46 9.62 1.67 2.68-.77 5.37-2.43 7.33-3.39 3.57-5.42 8.63-10.09 10.81-3.93 1.83-8.22 2.83-12.01 4.99-5.04 2.68-9.04 6.87-12.72 11.16-.59-6.51-1.32-13.96-6.57-18.55-4.8-3.98-10.84-6.17-16.84-7.57-8.62-1.97-17.33.55-25.75 2.34 3.96-7.75 6.13-16.57 12-23.22 5.26-5.93 11.47-11.63 19.3-13.77 10.78-3.21 22.21-2.28 33.3-1.98 1.22.02 2.11-.53 2.69-1.64-1.29-.59-2.58-1.16-3.88-1.71z"/><path d="m194.2 117.22c6.19-2.93 13-4.28 19.79-4.87 4.69-.34 9.8.02 13.72 2.89 2.71 1.99 5.02 4.47 7.58 6.64-5.37 2.62-10.09 6.67-12.95 11.98-1.38-.83-2.62-2.34-4.37-2.2-3.24 1.2-4.28 4.81-5.58 7.66-2.24 5.71-5.12 11.16-8.44 16.32-2.25-.44-4.5-.87-6.74-1.3 4.53-3.98 8.59-9.16 9.37-15.3.52-4.47-2.3-8.32-5.03-11.54-2.78-3.18-5.32-6.57-7.35-10.28z"/><path d="m245.06 121c9.49-4.02 20.89-5.39 30.31-.46 5.14 2.54 8.21 7.6 11.12 12.3-4.45 1.23-9.46 2.12-12.62 5.82 4.8-.55 9.33-2.46 14.12-3.02 6.82 1.39 14.14 2.11 19.89 6.44 4.79 2.91 7.57 7.98 10.02 12.84-2.77 1.07-5.41 2.43-7.85 4.1-6.21-.6-12.54.12-18.36 2.39-7.78-7.33-18.87-8.04-28.79-10.16-2.08.02-1.98-2.4-2.79-3.75-.97-2.98-4.55-3.32-7.2-3.42-8.77-.51-16.45 4.31-24.23 7.61-.89-4.57-2.39-9-4.62-13.1 5.49-7.44 12.85-13.32 21-17.59z"/><path d="m164.91 165.85c5.65-4.54 11.74-9.32 19.11-10.45 5.68-.23 11.14 1.99 16.1 4.57-7.05 6.9-14.72 13.46-23.61 17.84-1.49-.4-2.95-.97-4.5-1.04-3.85.42-6.56 3.45-9.19 5.97-3.41-1.59-6.93-2.92-10.53-4.01 4.69-3.83 7.8-9.19 12.62-12.88z"/><path d="m62.29 172.46c9.57-1.69 19.01-4.19 28.67-5.4 6.17-.8 12.27.88 17.95 3.14-6.21 4.08-12.21 8.54-17.49 13.79 6.82-3.91 13.07-8.73 19.84-12.72 3.24 1.89 6.61 4.16 7.89 7.88 1.76 4.95 2.59 10.41 2.04 15.62-6.29 10.3-14.86 19.04-20.94 29.5-.94 1.81-2.22 3.42-3.87 4.64-2.68-5.84-3.94-12.36-7.51-17.74-4.63-4.6-11.83-4.01-17.84-4.21-5.29.47-11.42-.21-15.86 3.18-.04.34-.12 1.02-.16 1.36 5.69.21 11.27-1.74 17-1.31 4.86.32 10.85-.51 14.56 3.33 3.14 5.08 4.42 11.04 6.84 16.47-8.59 5.75-14.86 14.1-21.06 22.21-1.34-3.84-2.86-7.73-5.64-10.78.85 4.68 2.61 9.12 3.88 13.7-4.21 7.52-8.46 15.29-9.76 23.92-.96 6.19-.55 12.47-.09 18.68-4.74 2.81-10.2 4.81-15.79 4.17-5.59-.21-10.59-4-12.92-8.99-3.5-7.11-2.82-15.27-2.67-22.94.24-8.39 2.44-16.68 1.74-25.08-1.78 1.64-2.5 3.96-2.83 6.29-1.29 8.16-2.1 16.4-2.25 24.67-5.56-7.12-10.76-15.47-10.31-24.86.16-10.34 8.2-18.16 10.17-28.02 1.55-9.36 2.25-19.34 7.48-27.56 6.71-10.58 17.09-18.85 28.93-22.94z"/><path d="m141.43 182.43c6.47-2.28 13.41.18 19.38 2.86-4.07 5.86-6.92 12.45-8.98 19.26-2.84-1.48-5.66-3.14-8.83-3.81-.87.51-1.57 1.21-2.09 2.09 3.37 1.45 6.78 2.85 9.93 4.76-3.52 13.55-5.85 27.69-3.89 41.67-1.38-.61-2.77-1.21-4.16-1.82-6.4 2.53-4.1 10.55-3.46 15.78-4.11 4.26-7.13 9.56-11.85 13.23-6.16 4.3-13.97 6.47-21.45 5.6-4.76-.94-3.95-6.65-4.63-10.24-5.16 4.1-.87 13.67 5.6 13.33 7.53.49 15.22-1.48 21.56-5.59 4.85-3.15 7.83-8.26 11.53-12.56 2.68 9.73 5.79 20.13 13.48 27.15-7.9 4.41-12.11 14.8-7.77 23.12-9.43 3.47-18.66 8-28.76 9.13-12.49.66-25.31-2.6-35.58-9.84-7.61-4.61-13.7-11.72-17-19.97-1.53-11.6 2.8-22.95 7.96-33.13 4.56-8.69 10.44-16.72 17.48-23.57 3.13-2.83 6.68-5.88 11.08-6.14 4.3.71 7.52 4.55 12.03 4.61 4.07.21 7.9-2.24 9.61-5.9-3.32.51-6.25 2.42-9.59 2.75-4-.68-7.23-3.42-10.97-4.84 4.98-8.85 11.24-16.86 17.49-24.83 6.21-8.55 11.84-18.52 21.88-23.1z"/><path d="m238.71 226.42c3.47-4.28 7.44-8.09 11.69-11.58.22 2.14.49 4.28.85 6.4-.8.22-2.41.66-3.22.88 2.12 1.26 4.38 2.51 6.96 2.06 11.06-.84 21.54 3.22 32.1 5.76-4.5 4.09-8.92 8.51-11.23 14.26 5.19-3.97 8.89-9.49 13.94-13.62 6.64 1.33 13.43 1.85 20.2 1.87 5.79.12 11.84-.17 17.26 2.2 6.69 2.74 11.72 9.17 12.88 16.28.94 5.53-2.36 10.7-1.65 16.21 3.25-2.33 4.08-6.42 4.7-10.11 1.97-10.82-5.4-21.91-15.46-25.67-9.02-3.48-18.88-1.15-28.2-2.85 10.53-4.12 22.87-5.31 33.36-.42 9.63 3.68 17.68 10.93 27.92 13.06 4.55.99 9.24.56 13.81-.02.82 4.51.99 9.11 1.94 13.6 2.04-4.49 1.11-9.51.3-14.17 6.6-2.11 13.41-3.8 19.53-7.14 5.81-3.06 10.98-7.18 15.79-11.62 2.56 3.19 4.86 6.94 4.68 11.19.18 9.76-6.87 17.53-8.4 26.91-3.89 4.3-10.02 5.09-14.23 8.9 5.63.43 10.9-2.22 15.07-5.79 1.69 3.59 3.52 7.82 1.55 11.7-3.9 8.12-11.65 13.41-18.77 18.49-5.18 3.83-11.15 6.26-16.82 9.22 2.69-4.62 3.86-10.78.98-15.57-.87 6.17-.81 13.21-5.34 18.07-3.25 2.28-7.01 3.68-10.5 5.53-11 5.36-21.43 11.79-32.3 17.39 3.64-6.04 8.02-12.38 7.61-19.78-2.26 1.85-3.04 4.76-4.3 7.28-3.43 7.37-7.96 14.59-14.86 19.17-8.86 6.24-20.06 7.44-30.58 8.09 4.16-6.88 6.03-14.75 7.71-22.52 2.95-.65 5.88-1.68 8.17-3.73-2.73.2-5.43.63-8.12 1.14.47-7.23 1-14.62-.68-21.73-.72-3.09-2.78-5.57-4.95-7.76 4.05-1.97 7.82-4.6 10.66-8.14 3.39-4.24 7.12-8.47 8.74-13.76-8.13 6.17-12.54 17.2-23.07 20.2-6.54-2.2-13.53-2.7-20.39-2.44-9.54.57-19.09 1-28.65.98-.02-3.21.82-7.08-1.75-9.59-2.67-2.31-6.46-1.28-9.67-1.47 2.6-12.62 10.54-23.37 19.16-32.63 2.04-2.32 5.99-4.13 5.41-7.77-1.43-4.13-6.17-5.48-9.83-6.96z"/><path d="m234.63 287.48c13.23.88 26.47-1.02 39.7-.13 5.46.74 12.4 1.73 14.95 7.4 2.24 6.14 1.49 12.86 1.41 19.27-.06 9.22-2.78 18.34-7.28 26.35-1.67 2.55-3.16 5.89-6.41 6.66-15.55 3.86-30.71 10.17-46.94 10.59-14.9.94-29.7-1.7-44.14-5.14 11.27-5.85 19.81-15.5 27.9-25.04 7.13 2.09 14.72 2.61 22.08 1.59 2.96-.61 6.82-1.03 8.12-4.27-2.39-.69-4.76.32-7.09.76-6.92 1.69-14.12.78-21.02-.55 7.97-11.51 15.18-23.83 18.72-37.49z"/><path d="m128.38 328.92c5.2-4.9 12.77-5.61 18.91-8.92.78.69 1.55 1.4 2.33 2.1-1.8 5.31-4.32 10.35-7.45 15-4.91-2.15-9.85-4.45-13.79-8.18z"/></g></g></svg>