<svg xmlns="http://www.w3.org/2000/svg" width="500pt" height="514pt" viewBox="0 0 500 514"><path fill="red" d="M176.97 31.05c14.85-2.63 29.86-4.49 44.96-4.07 5.75-.44 11.34 1.35 17.08 1.08 13.03 1.57 26.1 3.46 38.67 7.36 1.61 9.33 3.11 18.67 4.49 28.03-13.62-3.63-27.78-1.85-41.67-2.62-10.56-.65-21.08 1.03-31.55 2.2-13.14 1.31-26.17 3.54-39.19 5.74-13.1 2.02-25.3 7.5-37.4 12.66-10.64 5.27-21.89 9.46-31.71 16.23-9.37 6.81-17.29 15.31-25.56 23.36-2.44 2.28-4.3 5.08-5.76 8.07-3.05-8.74-6.48-17.35-9.68-26.03-1.55-3.68 2.08-6.68 4.25-9.16 30.33-31.55 70.09-54.17 113.07-62.85z"/><path fill="#ff8000" d="M208.95 63.03c10.47-1.17 20.99-2.85 31.55-2.2 13.89.77 28.05-1.01 41.67 2.62 1.75 10.12 3.42 20.24 4.89 30.4-11.59-1.94-23.29-3.63-35.06-3.7-9.99.71-20 1.09-29.99 1.87-16.58.17-32.8 3.86-49.01 6.93-9.48 1.99-18.95 4.27-27.86 8.15-7.85 3.21-14.99 7.89-22.79 11.21-8.63 3.69-17.51 7.18-24.99 12.99-7.64 5.57-13.76 12.86-19.7 20.14-2.87-7.41-5.52-14.91-8.33-22.35 1.46-2.99 3.32-5.79 5.76-8.07 8.27-8.05 16.19-16.55 25.56-23.36 9.82-6.77 21.07-10.96 31.71-16.23 12.1-5.16 24.3-10.64 37.4-12.66 13.02-2.2 26.05-4.43 39.19-5.74z"/><path fill="#ff0" d="M222.01 92.02c9.99-.78 20-1.16 29.99-1.87 11.77.07 23.47 1.76 35.06 3.7 1.19 6.57 2.06 13.19 3.49 19.71-6.54-.39-13-1.55-19.5-2.27-13.67-.89-27.38-.05-40.96 1.59-15.9 2.21-31.87 4.06-47.55 7.56-14.71 2.45-28.54 8.2-42.24 13.86-7.29 2.99-13.74 7.56-20.3 11.84-5.5 3.67-11.84 5.82-17.28 9.59-6.33 4.36-12.92 8.49-18.15 14.21-2.25-6.19-4.67-12.31-6.91-18.5 5.94-7.28 12.06-14.57 19.7-20.14 7.48-5.81 16.36-9.3 24.99-12.99 7.8-3.32 14.94-8 22.79-11.21 8.91-3.88 18.38-6.16 27.86-8.15 16.21-3.07 32.43-6.76 49.01-6.93z"/><path fill="#0f0" d="M230.09 112.88c13.58-1.64 27.29-2.48 40.96-1.59 6.5.72 12.96 1.88 19.5 2.27 1.28 7.27 2.29 14.58 3.76 21.81-6.61-.4-13.27-.63-19.85.2-21.73 3.1-43.82 3.05-65.39 7.37-12.69 2.27-25.36 4.73-37.96 7.49-7.82 1.67-15.08 5.14-22.38 8.28-5.78 2.3-10.63 6.35-16.39 8.7-8.83 4.58-17.71 9.07-26.79 13.14-4.91 2.26-10.08 4.22-14.19 7.84-2.26-6.15-4.76-12.22-6.79-18.45 5.23-5.72 11.82-9.85 18.15-14.21 5.44-3.77 11.78-5.92 17.28-9.59 6.56-4.28 13.01-8.85 20.3-11.84 13.7-5.66 27.53-11.41 42.24-13.86 15.68-3.5 31.65-5.35 47.55-7.56z"/><path fill="#0ff" d="M274.46 135.57c6.58-.83 13.24-.6 19.85-.2 1.79 10.83 3.7 21.65 6.21 32.35-12.53.67-25.04 1.49-37.54 2.38-10.59-.7-21.26-1.93-31.87-.55-8.99 1.28-18 2.76-27.11 2.55-8.75.42-17.59 1.75-25.73 5.12-5.7 2.25-11.59 3.97-17.49 5.61-10.54 2.95-20.29 8.13-30.77 11.29-6.7 2.02-13.37 4.24-20.25 5.56-4.61.54-9.23.88-13.85 1.23-1.33-4.24-2.97-8.37-4.55-12.52 4.11-3.62 9.28-5.58 14.19-7.84 9.08-4.07 17.96-8.56 26.79-13.14 5.76-2.35 10.61-6.4 16.39-8.7 7.3-3.14 14.56-6.61 22.38-8.28 12.6-2.76 25.27-5.22 37.96-7.49 21.57-4.32 43.66-4.27 65.39-7.37z"/><path d="M415.62 168.78c4.52-1.22 9.17-2.65 13.91-2.32 1.36 6.39 1.15 13 2.12 19.46 1.2 7.98 2.42 16 2.19 24.1-.23 9.81.17 19.94-3.05 29.35.84-10.11 2.97-20.18 2.25-30.36-.47-13.98-3.41-27.72-4.02-41.7-3.69.19-7.29 1.03-10.92 1.62-.62-.04-1.86-.11-2.48-.15z" opacity=".49"/><path fill="#00f" d="M300.52 167.72c1.81 2.24 4.84 2.39 7.43 3.1 11.44 2.63 22.65 6.41 33.08 11.83l-2.01-.52c-4.45 3.91-8.77 8.18-14.31 10.54-7.78 3.39-16.06 6.23-24.64 6.3-6.07.18-12.17-.35-18.2.47-5.26.71-10.59.37-15.86 1-6.98.85-14.02.29-21.03.55-9.97.83-19.94 1.88-29.95 2.02-13.71 1-27.36 2.76-41.05 3.85-5.54-.36-10.58 2.19-15.92 3.11-6.34 1.48-13.13 1.16-19.04 4.18-14.55 4.36-29.87 4.93-44.91 6.35-3.71.41-7.43-.43-11.14-.05 5.27-3.62 10.79-6.9 15.89-10.75-.3-3.12-2.01-5.85-2.95-8.79 4.62-.35 9.24-.69 13.85-1.23 6.88-1.32 13.55-3.54 20.25-5.56 10.48-3.16 20.23-8.34 30.77-11.29 5.9-1.64 11.79-3.36 17.49-5.61 8.14-3.37 16.98-4.7 25.73-5.12 9.11.21 18.12-1.27 27.11-2.55 10.61-1.38 21.28-.15 31.87.55 12.5-.89 25.01-1.71 37.54-2.38z"/><path d="M418.1 168.93c3.63-.59 7.23-1.43 10.92-1.62.61 13.98 3.55 27.72 4.02 41.7.72 10.18-1.41 20.25-2.25 30.36-1.5 7.58-3.88 14.97-7.01 22.03-2.8 5.93-6.23 11.57-10.42 16.62-6.13 7.63-14.14 13.79-23.06 17.81-1.77 1.02-4.77 1.48-4.38 4.17-.66 9.12-2.45 18.22-6.19 26.61-1.11-1.04-2.2-2.06-3.31-3.08-2.42 2.43-5.63 4.81-5.93 8.52-.34 2.5 1.23 4.63 2.32 6.72l.89-1.29c-1 1.5-2.01 3-3.1 4.43-.46-1.95-.33-4.26-1.86-5.76-3.62-.8-6.44 2.71-8.25 5.39-2.52 3.48-1.33 7.94-1.38 11.91-.55.44-1.1.88-1.66 1.31-.31-1.67.11-3.76-1.18-5.07-.94-1.19-2.49-.41-3.59.02-3.41 1.53-6.23 4.03-9.13 6.33.14 2.04.27 4.08.43 6.13-1.03-1.5-1.56-4.23-3.84-4.17-4.33-.08-8.65 1.55-12.07 4.15-2.35 1.84-1.08 5.16-1.24 7.69l-.49.16c-1.16-2.65-1.99-5.69-4.38-7.53-4.25-.32-8.5 2.02-11.35 5.07-1.5 1.75.63 3.66 1.17 5.37-.74.04-2.22.11-2.96.15-.41-2.42 1-6.7-2.29-7.43-3.87-.97-7.92-.57-11.86-.56-.07 2.36-.14 4.72-.19 7.08-1.17-.21-2.32-.44-3.47-.7.08-1.63.16-3.25.25-4.87-4.02-1.54-8.03-3.36-12.36-3.74-2.36.33-1.38 3.04-1.5 4.64-15.97-6.28-30.69-15.83-43.18-27.57 1.87 1.02 3.77 2 5.65 3.01.93-1.18 1.86-2.37 2.8-3.55 1.13.37 2.27.74 3.42 1.09-.83 1.08-1.65 2.16-2.47 3.25 3.04 2.17 6.07 4.36 9.12 6.54 1.48-2.23 2.98-4.45 4.49-6.65 1.29.3 2.58.59 3.88.87-1.05 1.24-2.1 2.49-3.15 3.74 1.2 1.91 2.22 4.26 4.48 5.14 2.7 1.07 5.69.62 8.53.68.71-2.5 1.4-5 2.24-7.45.48.05 1.44.15 1.92.21-.02 2.54-.03 5.08-.01 7.62 3.73 1.55 7.4 3.25 11.09 4.92.51-3.83.93-7.67 1.34-11.51 1.39.05 2.78.07 4.18.07-.08 3.4-.19 6.8-.31 10.2 4.5.32 9 .73 13.51.96.18-4.01.37-8.02.56-12.03 1.23-.14 2.46-.3 3.69-.46.01 3.89 0 7.8.04 11.7 3.93-1.07 7.85-2.2 11.76-3.34-.01-3.62-.01-7.24.01-10.86 1.34-.37 2.67-.78 4.01-1.18.55 3.66 1.02 7.34 1.5 11.02 3.24-1.93 6.48-3.88 9.74-5.79.06-3.23.12-6.47.2-9.7 1.08-.5 2.14-1.02 3.21-1.56.01 2.89.03 5.79.03 8.68 4.26 1.73 7.89-1.45 10.17-4.73.47-2.98.27-6.02.22-9.02.8 1.79 1.4 4.68 3.98 4.4 4.75-.55 7.36-5.24 10.02-8.68-.69-1.54-1.37-3.08-2.02-4.63-.41-.05-1.22-.16-1.63-.21.23-.18.7-.54.93-.72 1.27 1.29 2.42 2.69 3.56 4.1 3-2.91 6.02-5.82 8.61-9.11-1.25-1.42-2.53-2.8-3.82-4.18.22-.25.65-.75.86-1 2.47 1.75 6.17 1.1 7.58-1.67 1.42-3.07.65-6.59.8-9.85-2.3.23-4.58.51-6.84.89-8.97.62-18.13-1.8-25.6-6.82-6.55-4.38-12.13-10.14-16.71-16.51-5.17-7.17-9.28-15.05-12.42-23.29-7.09-2.44-14.93.09-20.08 5.29.73 6.43 2.17 12.8 2.22 19.29.66 13.26-1.36 27.28-9.09 38.39-3.63 5.42-8.83 9.62-14.55 12.67-11.23 5.83-24.31 6.44-36.66 5.07-11.24-1.81-21.87-6.55-31.16-13.08-17.56-12.55-31.16-30.21-40.52-49.55-3.41-8.36-8.44-15.93-12.13-24.14 16.85-8.51 35.92-11.34 54.56-12.71 29.36-1.36 58.78 2.97 87.02 10.84 4.46.11 8.63-2.15 12.88-3.32 2.47-4.21 6.3-7.32 9.5-10.94 3.21-3.53 6.56-6.93 9.95-10.29 8.76-7.98 17.64-15.87 27.21-22.89 16.6-12.06 34.7-22.28 54.29-28.57 2.38-.74 4.83-1.22 7.29-1.63m3.4 8.66l1.87.12c.97-1.79 1.29-3.78 1.13-5.79-2.11 1.14-3.34 3.23-3 5.67m2.03.82c-.08 1.76-.07 3.53.01 5.29.36-.17 1.07-.5 1.42-.67.56-1.52 1.12-3.04 1.7-4.56l-3.13-.06m-22.52 15.45c-12.33 4.15-24.59 8.61-36.34 14.23l.78.69-1.44-.51c-9.85 5.67-20.23 11.27-27.71 20.03-4.97 4.15-8.5 9.98-11.33 15.78l-.73.74c.29 1.22.61 2.45.92 3.68.43 1.13.86 2.26 1.3 3.39 1.86 4.23 3.82 8.42 5.83 12.58l.7.43c3.97 7.64 9.51 14.58 16.34 19.85 6.97 5.39 16.11 8.06 24.86 6.47 13.81-2.39 26.03-11.07 34.24-22.26 3.63-5.04 6.46-10.59 8.75-16.34 2.08-6.11 4.19-12.3 4.73-18.77.16 1.04.34 2.09.54 3.13.65-7.01 2.03-13.95 1.95-21.01-.04-8.39.29-17-2.07-25.13-7.24-.56-14.38 1.16-21.32 3.02m-210.12 62.93c-5.4 1.97-10.93 4.06-15.45 7.71-.82 2.24.88 4.38 1.77 6.34 9.62 18.43 22.95 35.56 40.88 46.52 4.31 2.42 8.71 4.98 13.56 6.11 8.65 3.1 18.31 4.01 27.33 2.14 7.91-.99 15.77-4.48 21.14-10.51 6.58-6.99 9.27-16.73 9.71-26.12 1.1-6.01-.38-12.01-.48-18.03-.44-2.36-.88-4.73-1.07-7.12-.58-2.35-1.23-4.68-2-6.97-15-9.96-33.92-11.13-51.32-9.32-14.92 1.74-29.63 5.13-44.07 9.25m-28.64-6.67c.13 1.71 1.12 2.98 2.43 3.98-.07 1.4-.17 2.79-.26 4.19 1.53.64 3.07 1.24 4.64 1.8-.1-2.25-1.54-3.94-3.2-5.29l2.01-.34c-.41-2.84-2.96-4.22-5.62-4.34zm-95.88 128.8c-.17-2.41 2.38-3.04 4.09-3.82 11.59 10.79 24.22 20.44 37.54 28.98 46.68 30.22 102.25 47.68 158.07 45.74 24.43-.82 48.74-5.09 72.03-12.53 2-.57 4.63-1.67 6.14.46 1.41 3.33 1.7 6.99 2.49 10.49 4.52 21.87 8.83 43.79 12.87 65.76h-6.92c-4.29-23.33-8.92-46.59-13.72-69.81-23.26 7.17-47.43 11.56-71.78 12.4-59.22 2.32-118.13-16.78-167.13-49.56-8.06-5.12-15.35-11.31-23.09-16.87 2.39 4.7 3.68 9.83 5.51 14.75 9.08 26.36 18.14 52.81 24.66 79.94.28 1.22 1.43 1.93 2.28 2.75 7.45 5.93 16.34 9.62 25.14 13.04 15.84 5.82 32.23 10.03 48.77 13.36h-30.89c-15.63-5.46-32.04-9.95-45.6-19.84-2.79-2.15-5.91-4.55-6.56-8.24-2.65-12.49-6.53-24.68-10.21-36.89-.43-1.9-1.52-3.51-2.91-4.83.26-.26.8-.77 1.06-1.03-6.01-18.33-12.3-36.56-18.69-54.75-1.08-3.16-2.48-6.22-3.15-9.5zm320.29 35.82c1.99-1.29 3.7-3.61 6.23-3.66 3.09.53 2.97 4.25 3.77 6.59.09.32.26.94.35 1.26a51 51 0 0 0 2.16 1.64c-.44.2-1.32.59-1.76.78 6.57 30.89 13.02 61.81 19.82 92.65h-7.01c-6.77-31.09-13.28-62.23-19.96-93.33-8.47 6.21-17.79 11.15-27.49 15.15 7.66 26.02 14.95 52.16 22.61 78.18h-7.07c-7.67-26.32-15.28-52.68-22.74-79.06-1.14-3.14 2.4-4.67 4.68-5.62 9.42-3.61 18.39-8.46 26.41-14.58z"/><path fill="#f0f" d="M324.71 192.67c5.54-2.36 9.86-6.63 14.31-10.54l2.01.52c6.55 3.89 13.41 8.68 15.49 16.48-9.57 7.02-18.45 14.91-27.21 22.89-12.99 5.51-27.08 9.75-41.34 8.05-13.93-1.59-28.34-1.37-41.63-6.39-4.83-1.59-9.95-1.84-14.9-2.87-7.07-1.5-14.32-.75-21.48-1.27-8.03-.54-16.06.43-23.95 1.85-9.99 2.01-20.4 2.64-29.87 6.68-5.81 2.35-12.32 3.42-17.02 7.9-7.36 2.99-14.88 5.69-21.93 9.39-6.3 3.36-10.48 10.17-17.74 11.79-4.81.72-9.7.71-14.49 1.62-.18.16-.53.49-.71.65l.57-1.24c-7.88 1.7-16.13.87-23.89-1.07-3.39-.8-6.52-3.46-6.89-7.07.89-6.31 6.15-10.44 10.33-14.7 5.39-5.9 12.1-10.34 18.6-14.89 3.71-.38 7.43.46 11.14.05 15.04-1.42 30.36-1.99 44.91-6.35 5.91-3.02 12.7-2.7 19.04-4.18 5.34-.92 10.38-3.47 15.92-3.11 13.69-1.09 27.34-2.85 41.05-3.85 10.01-.14 19.98-1.19 29.95-2.02 7.01-.26 14.05.3 21.03-.55 5.27-.63 10.6-.29 15.86-1 6.03-.82 12.13-.29 18.2-.47 8.58-.07 16.86-2.91 24.64-6.3z"/><path d="M413.42 191.63c2.96-.31 5.94-.54 8.91-.79 2.36 8.13 2.03 16.74 2.07 25.13.08 7.06-1.3 14-1.95 21.01-.2-1.04-.38-2.09-.54-3.13 1.92-14 2.27-28.24.1-42.24-2.87.04-5.73.07-8.59.02z" opacity=".5"/><g fill="#b32825"><path d="M336.3 228.3c7.48-8.76 17.86-14.36 27.71-20.03l1.44.51c4.22 3.28 7.26 7.79 8.85 12.88 16.38 6.91 31.51 17.2 42.88 30.96-2.29 5.75-5.12 11.3-8.75 16.34-3.19-4.15-6.41-8.3-10.27-11.85-3.96 9.47-10.14 18.97-20 23.02-9.61 4.08-20.58 1.2-29.21-3.92-5.85-3.02-10.44-7.84-15.96-11.31l-.7-.43c-2.01-4.16-3.97-8.35-5.83-12.58 2.1-.77 4.83-2.06 6.58.14 8.62 9 18.41 18.14 30.9 21.07 6.89 1.69 14.26-1.12 18.72-6.51 4.23-4.22 5.55-10.59 10.37-14.3-9.97-7.6-20.96-14.46-33.29-17.39-1.36 4.17-3.97 8.03-8.05 9.93-8.14 4.27-17.61 3.96-26.53 3.67-.31-1.23-.63-2.46-.92-3.68l.73-.74c4.82-4.96 9.63-10.39 16.38-12.7 5.36-2.17 11.27-1.82 16.83-.75.03-3.08-.5-6.16-2.86-8.34-6.23 2.34-12.6 4.27-19.02 6.01m8.07 5.54c2.09 2.71 3.11 5.99 2.84 9.42 4.25-1.68 8.37-4.68 9.15-9.51-3.96-.88-8.04-.69-11.99.09m-15.39 11.38c4.94.17 9.9-.12 14.77-1.02-1.89-2.59-3.16-5.54-3.6-8.72a36.744 36.744 0 0 0-11.17 9.74z"/><path d="M186.01 221.39c7.89-1.42 15.92-2.39 23.95-1.85 7.16.52 14.41-.23 21.48 1.27 4.95 1.03 10.07 1.28 14.9 2.87 13.29 5.02 27.7 4.8 41.63 6.39 14.26 1.7 28.35-2.54 41.34-8.05-3.39 3.36-6.74 6.76-9.95 10.29-7.48.55-14.89 1.87-22.39 2.08-17.11.81-34.2-1.08-51.08-3.75-20.46-3.09-41.3-6.51-61.98-3.45-29.49 4-56.14 18.76-80.22 35.53-5.65 3.77-6.31 11.33-11.15 15.83-4.23 3.97-9.33 8.47-15.57 7.82-11.94-.56-22.88-7.01-34.95-6.56-6.07.04-11.91 2.34-16.67 6.01 2.34 5.49 5.37 11.02 10.54 14.33 7.08 4.5 15.59 5.92 22.86 10.05 8.49 4.46 14.59 12.61 17.42 21.69 2.29 6.22 2.6 12.89 3.74 19.36 4.25 3.3 9.66 4.72 14.74 6.26 5.05 1.24 11.57 1.88 15.32-2.5 4.16-5.48 2.85-12.81 2.42-19.18 1.08-.23 2.16-.47 3.23-.7 2.52 7.86 5.16 16.36 3.04 24.62-1.22 4.65-5.92 7.72-10.65 7.4-9.98-.38-18.63-5.97-27.24-10.42 3.1 10.21 9.66 18.93 17.06 26.43 10.22 10.14 22.17 18.4 34.78 25.26 25.27 13.6 53.05 22.25 81.39 26.46 60.37 9.34 123.81-2.5 176.56-33.35 2.3-1.43 3.45-4 4.78-6.25 9.68-17.08 18.11-35.07 22.82-54.21 5.07-20.68 5.73-43.92-4.8-63.05 4.19-5.05 7.62-10.69 10.42-16.62 6.46 10.24 11.22 21.63 13.29 33.59 3.69 20.02.86 40.71-5.13 60-6.1 19.67-15.41 38.19-26.03 55.78-1.88 3.61-6.09 4.75-9.25 6.9-.8-2.34-.68-6.06-3.77-6.59-2.53.05-4.24 2.37-6.23 3.66-8.02 6.12-16.99 10.97-26.41 14.58-2.28.95-5.82 2.48-4.68 5.62 7.46 26.38 15.07 52.74 22.74 79.06h-4.03c-6.89-27-13.75-54.01-20.68-81-2.52 1.17-5.02 2.37-7.52 3.58 5.4 25.86 11.27 51.63 17 77.42h-3.48c-4.04-21.97-8.35-43.89-12.87-65.76-.79-3.5-1.08-7.16-2.49-10.49-1.51-2.13-4.14-1.03-6.14-.46-23.29 7.44-47.6 11.71-72.03 12.53-55.82 1.94-111.39-15.52-158.07-45.74-13.32-8.54-25.95-18.19-37.54-28.98-2.86-4.3-4.69-9.2-6.12-14.13-2-6.86-1.64-14.13-3.51-21.01-1.36-5.65-4.2-11.39-9.43-14.37-6.01-3.42-12.9-4.84-19.03-8.02-7.87-3.52-14.53-9.61-18.75-17.12-3.71-6.25-5.57-13.32-7.48-20.27 3.27-3.11 6.49-6.31 10.21-8.89 8.5-6.17 19.16-9.16 29.64-8.4 10.69.43 20.63 4.78 31.06 6.65 3.66-2.34 5.6-6.24 7.2-10.12.18-.16.53-.49.71-.65 4.79-.91 9.68-.9 14.49-1.62 7.26-1.62 11.44-8.43 17.74-11.79 7.05-3.7 14.57-6.4 21.93-9.39 4.7-4.48 11.21-5.55 17.02-7.9 9.47-4.04 19.88-4.67 29.87-6.68z"/><path d="M228.73 266.66c10.47-13.04 29.65-18.6 45.37-12.61-1.66 5.66-5.48 10.8-11.1 12.98-10.93 4.43-23.18 2.47-34.27-.37m26.44-11.39c2.61 2.66 3.22 6.38 2.97 9.98 4.85-1.46 9.62-4.28 11.56-9.2-4.78-1.04-9.67-1.15-14.53-.78m-20.08 9.48c5.88 1.17 11.88 1.74 17.88 1.33-2.08-2.85-2.63-6.35-2.27-9.79-5.69 1.8-11.06 4.57-15.61 8.46zm62.2-4.96c5.15-5.2 12.99-7.73 20.08-5.29 3.14 8.24 7.25 16.12 12.42 23.29-.28 3.32-1.4 6.96.35 10.07 4.09 7.9 8.22 15.79 12.27 23.71.93 1.64 1.83 4.52-.68 5.18-1.94.78-3.08-1.26-3.83-2.66-4.33-8.29-8.4-16.72-12.91-24.92-5.07-.16-10.1-.95-15.01-2.21 4.33 8.62 8.75 17.19 13.16 25.76 1.46 2.97 3.48 5.81 3.88 9.17-2.57 2.08-3.62-1.51-4.74-3.24-5.17-10.4-10.61-20.66-15.8-31.05-1.6-3.37-4.45-5.85-6.97-8.52-.05-6.49-1.49-12.86-2.22-19.29m6.52 1.97c-.9 4.82-1.26 10.39 2.15 14.37 4.14 4.58 10.75 6.01 16.7 5.85.08-5.81.4-12.34-3.42-17.16-3.74-4.43-10.26-4.35-15.43-3.06zm-21.2 3.89c1.22-1.88 3.77-1.41 5.67-1.82.19 2.39.63 4.76 1.07 7.12-1.26 10.61-5.22 20.81-10.16 30.23-5.24 9.86-13.34 17.84-22.59 23.96.6.12 1.79.35 2.38.47-9.02 1.87-18.68.96-27.33-2.14 11.07-.66 21.86-5.23 29.87-12.94 9.62-9.25 15.1-21.92 18.38-34.66.94-3.39 1.22-7 2.71-10.22zM46.28 287.38c10.53-2.23 22.07-.73 31.18 5.23 9.92 6.41 16.85 16.61 21.31 27.38 2 3.85-3.52 7.75-6.57 4.85-2.32-2.94-3.32-6.69-5.35-9.82-5.38-9.41-14.05-17.79-25.1-19.59-7.36-1.56-14.79.28-21.75 2.61-3.9 1.3-6.84-4.32-3.89-6.99 2.98-2.1 6.7-2.78 10.17-3.67z"/><path d="M135.69 298.93c-1.64-3.11 1.91-7.23 5.18-5.69 3.91 1.85 7.31 4.62 11.13 6.66 17.5 9.94 36.12 18.62 56.05 22.23 9.29 6.53 19.92 11.27 31.16 13.08 12.35 1.37 25.43.76 36.66-5.07 14.57 2.92 29.76 2.42 44.23-.87 19.52-4.36 37.36-14.67 52-28.15 2.26-.38 4.54-.66 6.84-.89-2.56 4-5.37 7.84-8.38 11.52-.21.25-.64.75-.86 1-2.76 3.09-5.7 6.01-8.35 9.19-.23.18-.7.54-.93.72-6.51 5.31-13.23 10.43-20.77 14.19-1.07.54-2.13 1.06-3.21 1.56-3.73 1.69-7.54 3.21-11.44 4.47-1.34.4-2.67.81-4.01 1.18-3.88 1.05-7.83 1.9-11.81 2.5-1.23.16-2.46.32-3.69.46-4.57.5-9.16.86-13.76.87-1.4 0-2.79-.02-4.18-.07-4.15-.2-8.29-.58-12.42-1.03-.48-.06-1.44-.16-1.92-.21-4.06-.57-8.09-1.3-12.1-2.11-1.3-.28-2.59-.57-3.88-.87-3.75-.92-7.45-2.01-11.14-3.14-1.15-.35-2.29-.72-3.42-1.09-5.24-1.73-10.34-3.87-15.47-5.9 2.24 2.25 4.57 4.42 7.02 6.44 12.49 11.74 27.21 21.29 43.18 27.57 4.46 1.55 9.01 2.89 13.61 3.97 1.15.26 2.3.49 3.47.7 4.73.81 9.54 1.05 14.34.91.74-.04 2.22-.11 2.96-.15 4.94-.4 9.83-1.4 14.56-2.91l.49-.16c10.94-3.29 21.44-8.24 30.62-15.08a76.912 76.912 0 0 0 13.15-12.85c1.09-1.43 2.1-2.93 3.1-4.43 2.35-3.43 4.37-7.06 6.03-10.87 3.74-8.39 5.53-17.49 6.19-26.61-.39-2.69 2.61-3.15 4.38-4.17 3.51 13.04 2.69 27.16-2.86 39.51-8.89 20.58-26.34 35.73-44.15 48.57 12.05.34 24.02 4.01 34.08 10.66-13.32.48-26.77.8-39.78 3.98-4.13.99-7.81 3.28-10.89 6.16-8.51 7.81-14.58 17.76-20.57 27.52-.98-16.12 5.92-33.11 19.83-41.98-6.57 1.01-13.25 1.36-19.88.83-15.77-1.16-30.77-7.62-43.56-16.72-15.42-10.9-27.67-25.66-37.83-41.43-4.38-1.18-9.08-.65-13.54-1.53-24.77-3.85-47.87-14.66-69.15-27.56-2.2-1.47-4.8-2.65-6.31-4.91z"/></g><g fill="#dc7759"><path d="M336.3 228.3c6.42-1.74 12.79-3.67 19.02-6.01 2.36 2.18 2.89 5.26 2.86 8.34-5.56-1.07-11.47-1.42-16.83.75-6.75 2.31-11.56 7.74-16.38 12.7 2.83-5.8 6.36-11.63 11.33-15.78z"/><path d="M183.91 227.19c20.68-3.06 41.52.36 61.98 3.45 16.88 2.67 33.97 4.56 51.08 3.75 7.5-.21 14.91-1.53 22.39-2.08-3.2 3.62-7.03 6.73-9.5 10.94-4.25 1.17-8.42 3.43-12.88 3.32-28.24-7.87-57.66-12.2-87.02-10.84-18.64 1.37-37.71 4.2-54.56 12.71 3.69 8.21 8.72 15.78 12.13 24.14 9.36 19.34 22.96 37 40.52 49.55-19.93-3.61-38.55-12.29-56.05-22.23-3.82-2.04-7.22-4.81-11.13-6.66-3.27-1.54-6.82 2.58-5.18 5.69 1.51 2.26 4.11 3.44 6.31 4.91 21.28 12.9 44.38 23.71 69.15 27.56 4.46.88 9.16.35 13.54 1.53 10.16 15.77 22.41 30.53 37.83 41.43 12.79 9.1 27.79 15.56 43.56 16.72 6.63.53 13.31.18 19.88-.83-13.91 8.87-20.81 25.86-19.83 41.98 5.99-9.76 12.06-19.71 20.57-27.52 3.08-2.88 6.76-5.17 10.89-6.16 13.01-3.18 26.46-3.5 39.78-3.98-10.06-6.65-22.03-10.32-34.08-10.66 17.81-12.84 35.26-27.99 44.15-48.57 5.55-12.35 6.37-26.47 2.86-39.51 8.92-4.02 16.93-10.18 23.06-17.81 10.53 19.13 9.87 42.37 4.8 63.05-4.71 19.14-13.14 37.13-22.82 54.21-1.33 2.25-2.48 4.82-4.78 6.25-52.75 30.85-116.19 42.69-176.56 33.35-28.34-4.21-56.12-12.86-81.39-26.46-12.61-6.86-24.56-15.12-34.78-25.26-7.4-7.5-13.96-16.22-17.06-26.43 8.61 4.45 17.26 10.04 27.24 10.42 4.73.32 9.43-2.75 10.65-7.4 2.12-8.26-.52-16.76-3.04-24.62-1.07.23-2.15.47-3.23.7.43 6.37 1.74 13.7-2.42 19.18-3.75 4.38-10.27 3.74-15.32 2.5-5.08-1.54-10.49-2.96-14.74-6.26-1.14-6.47-1.45-13.14-3.74-19.36-2.83-9.08-8.93-17.23-17.42-21.69-7.27-4.13-15.78-5.55-22.86-10.05-5.17-3.31-8.2-8.84-10.54-14.33 4.76-3.67 10.6-5.97 16.67-6.01 12.07-.45 23.01 6 34.95 6.56 6.24.65 11.34-3.85 15.57-7.82 4.84-4.5 5.5-12.06 11.15-15.83 24.08-16.77 50.73-31.53 80.22-35.53M46.28 287.38c-3.47.89-7.19 1.57-10.17 3.67-2.95 2.67-.01 8.29 3.89 6.99 6.96-2.33 14.39-4.17 21.75-2.61 11.05 1.8 19.72 10.18 25.1 19.59 2.03 3.13 3.03 6.88 5.35 9.82 3.05 2.9 8.57-1 6.57-4.85-4.46-10.77-11.39-20.97-21.31-27.38-9.11-5.96-20.65-7.46-31.18-5.23z"/><path d="M359.74 234.9c12.33 2.93 23.32 9.79 33.29 17.39-4.82 3.71-6.14 10.08-10.37 14.3-4.46 5.39-11.83 8.2-18.72 6.51-12.49-2.93-22.28-12.07-30.9-21.07-1.75-2.2-4.48-.91-6.58-.14-.44-1.13-.87-2.26-1.3-3.39 8.92.29 18.39.6 26.53-3.67 4.08-1.9 6.69-5.76 8.05-9.93zm-168.85 21.89c14.44-4.12 29.15-7.51 44.07-9.25 17.4-1.81 36.32-.64 51.32 9.32.77 2.29 1.42 4.62 2 6.97-1.9.41-4.45-.06-5.67 1.82-1.49 3.22-1.77 6.83-2.71 10.22-3.28 12.74-8.76 25.41-18.38 34.66-8.01 7.71-18.8 12.28-29.87 12.94-4.85-1.13-9.25-3.69-13.56-6.11-17.93-10.96-31.26-28.09-40.88-46.52-.89-1.96-2.59-4.1-1.77-6.34 4.52-3.65 10.05-5.74 15.45-7.71m37.84 9.87c11.09 2.84 23.34 4.8 34.27.37 5.62-2.18 9.44-7.32 11.1-12.98-15.72-5.99-34.9-.43-45.37 12.61z"/><path d="M398.16 257.11c3.86 3.55 7.08 7.7 10.27 11.85-8.21 11.19-20.43 19.87-34.24 22.26-8.75 1.59-17.89-1.08-24.86-6.47-6.83-5.27-12.37-12.21-16.34-19.85 5.52 3.47 10.11 8.29 15.96 11.31 8.63 5.12 19.6 8 29.21 3.92 9.86-4.05 16.04-13.55 20-23.02zm-94.35 4.65c5.17-1.29 11.69-1.37 15.43 3.06 3.82 4.82 3.5 11.35 3.42 17.16-5.95.16-12.56-1.27-16.7-5.85-3.41-3.98-3.05-9.55-2.15-14.37zm-14.46 9.19c.1 6.02 1.58 12.02.48 18.03-.44 9.39-3.13 19.13-9.71 26.12-5.37 6.03-13.23 9.52-21.14 10.51-.59-.12-1.78-.35-2.38-.47 9.25-6.12 17.35-14.1 22.59-23.96 4.94-9.42 8.9-19.62 10.16-30.23z"/><path d="M329.79 277.79c4.58 6.37 10.16 12.13 16.71 16.51 7.47 5.02 16.63 7.44 25.6 6.82-14.64 13.48-32.48 23.79-52 28.15-14.47 3.29-29.66 3.79-44.23.87 5.72-3.05 10.92-7.25 14.55-12.67 7.73-11.11 9.75-25.13 9.09-38.39 2.52 2.67 5.37 5.15 6.97 8.52 5.19 10.39 10.63 20.65 15.8 31.05 1.12 1.73 2.17 5.32 4.74 3.24-.4-3.36-2.42-6.2-3.88-9.17-4.41-8.57-8.83-17.14-13.16-25.76 4.91 1.26 9.94 2.05 15.01 2.21 4.51 8.2 8.58 16.63 12.91 24.92.75 1.4 1.89 3.44 3.83 2.66 2.51-.66 1.61-3.54.68-5.18-4.05-7.92-8.18-15.81-12.27-23.71-1.75-3.11-.63-6.75-.35-10.07zm16.29 158.79c2.5-1.21 5-2.41 7.52-3.58 6.93 26.99 13.79 54 20.68 81h-11.2c-5.73-25.79-11.6-51.56-17-77.42z"/></g><path fill="#fff" d="M344.37 233.84c3.95-.78 8.03-.97 11.99-.09-.78 4.83-4.9 7.83-9.15 9.51.27-3.43-.75-6.71-2.84-9.42zm-15.39 11.38c3.02-3.98 6.83-7.28 11.17-9.74.44 3.18 1.71 6.13 3.6 8.72-4.87.9-9.83 1.19-14.77 1.02zm-73.81 10.05c4.86-.37 9.75-.26 14.53.78-1.94 4.92-6.71 7.74-11.56 9.2.25-3.6-.36-7.32-2.97-9.98zm-20.08 9.48c4.55-3.89 9.92-6.66 15.61-8.46-.36 3.44.19 6.94 2.27 9.79-6 .41-12-.16-17.88-1.33z"/><path fill="#ba654b" d="M162.25 250.12c2.66.12 5.21 1.5 5.62 4.34l-2.01.34c1.66 1.35 3.1 3.04 3.2 5.29-1.57-.56-3.11-1.16-4.64-1.8.09-1.4.19-2.79.26-4.19-1.31-1-2.3-2.27-2.43-3.98z"/><path fill="#f5e19c" d="M378.94 300.23c-.15 3.26.62 6.78-.8 9.85-1.41 2.77-5.11 3.42-7.58 1.67 3.01-3.68 5.82-7.52 8.38-11.52zm-17.59 21.71c2.65-3.18 5.59-6.1 8.35-9.19 1.29 1.38 2.57 2.76 3.82 4.18-2.59 3.29-5.61 6.2-8.61 9.11-1.14-1.41-2.29-2.81-3.56-4.1zm-21.7 14.91c7.54-3.76 14.26-8.88 20.77-14.19.41.05 1.22.16 1.63.21.65 1.55 1.33 3.09 2.02 4.63-2.66 3.44-5.27 8.13-10.02 8.68-2.58.28-3.18-2.61-3.98-4.4.05 3 .25 6.04-.22 9.02-2.28 3.28-5.91 6.46-10.17 4.73 0-2.89-.02-5.79-.03-8.68zm36.77-13.32c1.11 1.02 2.2 2.04 3.31 3.08a65.534 65.534 0 0 1-6.03 10.87l-.89 1.29c-1.09-2.09-2.66-4.22-2.32-6.72.3-3.71 3.51-6.09 5.93-8.52zm-149.22 9.94c5.13 2.03 10.23 4.17 15.47 5.9-.94 1.18-1.87 2.37-2.8 3.55-1.88-1.01-3.78-1.99-5.65-3.01-2.45-2.02-4.78-4.19-7.02-6.44zm133.29 8.07c1.81-2.68 4.63-6.19 8.25-5.39 1.53 1.5 1.4 3.81 1.86 5.76a76.912 76.912 0 0 1-11.49 11.54c.05-3.97-1.14-8.43 1.38-11.91zM325 342.88c3.9-1.26 7.71-2.78 11.44-4.47-.08 3.23-.14 6.47-.2 9.7-3.26 1.91-6.5 3.86-9.74 5.79-.48-3.68-.95-7.36-1.5-11.02zm-81.38.83c.82-1.09 1.64-2.17 2.47-3.25 3.69 1.13 7.39 2.22 11.14 3.14-1.51 2.2-3.01 4.42-4.49 6.65-3.05-2.18-6.08-4.37-9.12-6.54zm65.56 2.85c3.98-.6 7.93-1.45 11.81-2.5-.02 3.62-.02 7.24-.01 10.86-3.91 1.14-7.83 2.27-11.76 3.34-.04-3.9-.03-7.81-.04-11.7zm-51.22 1.65c1.05-1.25 2.1-2.5 3.15-3.74 4.01.81 8.04 1.54 12.1 2.11-.84 2.45-1.53 4.95-2.24 7.45-2.84-.06-5.83.39-8.53-.68-2.26-.88-3.28-3.23-4.48-5.14zm17.17-1.42c4.13.45 8.27.83 12.42 1.03-.41 3.84-.83 7.68-1.34 11.51-3.69-1.67-7.36-3.37-11.09-4.92-.02-2.54-.01-5.08.01-7.62zm16.6 1.1c4.6-.01 9.19-.37 13.76-.87-.19 4.01-.38 8.02-.56 12.03-4.51-.23-9.01-.64-13.51-.96.12-3.4.23-6.8.31-10.2zm60.95 1.82c1.1-.43 2.65-1.21 3.59-.02 1.29 1.31.87 3.4 1.18 5.07-9.18 6.84-19.68 11.79-30.62 15.08.16-2.53-1.11-5.85 1.24-7.69 3.42-2.6 7.74-4.23 12.07-4.15 2.28-.06 2.81 2.67 3.84 4.17-.16-2.05-.29-4.09-.43-6.13 2.9-2.3 5.72-4.8 9.13-6.33zm-75.28 17.77c.12-1.6-.86-4.31 1.5-4.64 4.33.38 8.34 2.2 12.36 3.74-.09 1.62-.17 3.24-.25 4.87-4.6-1.08-9.15-2.42-13.61-3.97zm33.21.06c2.85-3.05 7.1-5.39 11.35-5.07 2.39 1.84 3.22 4.88 4.38 7.53-4.73 1.51-9.62 2.51-14.56 2.91-.54-1.71-2.67-3.62-1.17-5.37zm-15.94-2.47c3.94-.01 7.99-.41 11.86.56 3.29.73 1.88 5.01 2.29 7.43-4.8.14-9.61-.1-14.34-.91.05-2.36.12-4.72.19-7.08zM76.96 390.16c7.74 5.56 15.03 11.75 23.09 16.87 49 32.78 107.91 51.88 167.13 49.56 24.35-.84 48.52-5.23 71.78-12.4 4.8 23.22 9.43 46.48 13.72 69.81H183.32c-16.54-3.33-32.93-7.54-48.77-13.36-8.8-3.42-17.69-7.11-25.14-13.04-.85-.82-2-1.53-2.28-2.75-6.52-27.13-15.58-53.58-24.66-79.94-1.83-4.92-3.12-10.05-5.51-14.75zm285.81 45.66c9.7-4 19.02-8.94 27.49-15.15 6.68 31.1 13.19 62.24 19.96 93.33h-24.84c-7.66-26.02-14.95-52.16-22.61-78.18z"/><path fill="#1e1f1b" d="M397.41 421.35c.44-.19 1.32-.58 1.76-.78 24.83 16.4 48.77 34.33 70.35 54.86 11.39 11.29 22.77 23.4 28.73 38.57h-81.02c-6.8-30.84-13.25-61.76-19.82-92.65zM22.13 514c19.25-25.39 41.53-48.33 65.02-69.8 1.39 1.32 2.48 2.93 2.91 4.83 3.68 12.21 7.56 24.4 10.21 36.89.65 3.69 3.77 6.09 6.56 8.24 13.56 9.89 29.97 14.38 45.6 19.84z"/></svg>