<svg xmlns="http://www.w3.org/2000/svg" width="720" height="521pt" viewBox="0 0 540 521"><path fill="#f1e398" d="M188.95 15.9c39.78-13.95 83.19-17.2 124.64-9.64 49.31 8.91 95.7 33.57 130.45 69.7 17.32 17.68 31.76 38.16 42.8 60.3 3.72 7.54 7.37 15.17 9.98 23.18-3.35-4.32-6.46-8.9-8.12-14.17-3.77-11.29-10.93-20.92-16.82-31.13-7.73-11.42-16.62-22-25.47-32.55-8.08-9.29-17.9-16.8-27.25-24.73-7.45-5.22-14.23-11.51-22.44-15.56-6.99-3.52-13.06-8.73-20.45-11.47-5.73-2.08-11.28-4.58-16.71-7.34-5.57-2.82-11.72-3.96-17.67-5.65-12.38-4.09-25.1-7.15-37.96-9.3-6.42-1.32-12.96-2.02-19.52-1.9-9.8.15-19.59-.58-29.39-.19-9.73.33-19.25 2.49-28.88 3.67-16.41 2.84-32.34 8.05-47.69 14.45-7.76 4.1-16.38 6.34-23.8 11.09-7.55 4.85-15.89 8.43-22.9 14.09-7.7 5.57-14.64 12.09-22.25 17.78-8.32 6.98-15.31 15.35-22.68 23.28-6.25 5.94-10.29 13.66-15.76 20.26-11.69 15.17-18.83 33.12-26.62 50.45-1.22 2.75-1.74 5.73-2.11 8.69 1.93.49 3.89.9 5.86 1.29-3.41.02-6.81.06-10.21.19 7.51-22.16 17.61-43.52 30.92-62.8 28.85-42.42 71.59-75.15 120.05-91.99z"/><path fill="#ffdf66" d="M226.14 9.12c9.63-1.18 19.15-3.34 28.88-3.67 9.8-.39 19.59.34 29.39.19 6.56-.12 13.1.58 19.52 1.9 12.86 2.15 25.58 5.21 37.96 9.3 5.95 1.69 12.1 2.83 17.67 5.65 5.43 2.76 10.98 5.26 16.71 7.34 7.39 2.74 13.46 7.95 20.45 11.47 8.21 4.05 14.99 10.34 22.44 15.56 9.35 7.93 19.17 15.44 27.25 24.73 8.85 10.55 17.74 21.13 25.47 32.55 5.89 10.21 13.05 19.84 16.82 31.13 1.66 5.27 4.77 9.85 8.12 14.17 9.56 24.08 14.24 49.97 15.57 75.79-.25 1.64-.61 3.26-.84 4.91-.92-6.02-.94-12.74-5.05-17.67-5.14-6.27-12.92-10.14-20.91-11.13-5.13-.67-10.66.18-14.83 3.42-5.57 4.25-8.77 10.66-12.73 16.27-5.17 7.37-9.29 15.39-14.3 22.85-2.41 2.98-4.43 6.25-6.39 9.53-3.06 5.13-7.02 9.61-10.53 14.43-8.67 12.18-19.81 22.47-32.12 30.89-5.97 4.48-12.86 7.45-19.8 10.04-4.35 1.44-8.88 2.17-13.38 2.92-2.97-13.19-3.84-26.81-7.49-39.85-1.22-5.22-2.32-10.5-2.53-15.87-.27-6.36-2.14-12.61-1.74-18.99.96-6.75 7.86-10.89 14.21-11.37 9.74-.67 19.59-.29 29.18 1.64 12.45 2.78 23.75 8.89 34.85 14.94 1.84-2.35 3.63-4.75 5.37-7.18-14.48-18.56-33.04-34.34-54.9-43.45-13.35-4.87-27.92-7.58-42.07-5.02-11.12 2.07-22.32 3.68-33.53 5.13-2.88.41-5.97.93-8.17 3.01-5.39 4.93-9.05 11.95-15.89 15.17-4.16 2.16-9.36 1.91-13.43-.32-3.45-2.86-5.3-8.18-10.37-8.59-5.29-.19-11.11.51-15.62 3.48-5.21 3.85-4.43 10.98-3.59 16.61 1.62 8.79 2.39 17.72 4.07 26.5 1.1 5.9 7.43 9.45 13.13 8.65 4.75-.76 9.93-1.31 13.85-4.36 3.71-2.98 2.08-9.14 6.19-11.79 5.79-3.72 13.04-4.36 19.73-3.54 4.19.65 8.5 2.1 11.55 5.19 2.86 2.92 3.47 7.16 4.12 11.02 2 13.96 3.6 27.97 4.61 42.03-.14 4.64-.35 9.28-.32 13.92-9.89-3.02-19.57-6.89-29.76-8.8-4.47-.87-9.34.24-12.7 3.39-3.67 3.38-8.01 6.98-13.29 6.78-3.18-1.35-5.2-5.07-8.95-5.04-4.93-.24-9.98.26-14.77-1.23-5.64-1.77-11.57-1.98-17.43-1.86.33-3.04.46-6.1.38-9.15-.6 1.15-1.2 2.31-1.74 3.49.73-22.38-1.3-45.38-10.57-66.03-9.85-23.55-29.92-41.73-52.74-52.48-20.64-9.65-43.23-14.5-65.85-16.37-12.32-1.42-24.74-.81-37.11-.85-1.97-.39-3.93-.8-5.86-1.29.37-2.96.89-5.94 2.11-8.69 7.79-17.33 14.93-35.28 26.62-50.45 5.47-6.6 9.51-14.32 15.76-20.26 7.37-7.93 14.36-16.3 22.68-23.28 7.61-5.69 14.55-12.21 22.25-17.78 7.01-5.66 15.35-9.24 22.9-14.09 7.42-4.75 16.04-6.99 23.8-11.09 15.35-6.4 31.28-11.61 47.69-14.45m35.21 2.28c-2.93 1.09-3.03 4.72-3.71 7.3-1.49 6.63-.91 14.46 4.39 19.32 7.67 6.63 17.13 10.66 26.39 14.55 6.18 2.59 12.62 4.47 19.16 5.91 13.84 3.67 28.12 5.8 42.43 6.29 3.14-.02 7.21.55 9.22-2.51 2.7-3.98 1.52-9.59-1.29-13.21-3.32-4.03-8.75-5.06-13.54-6.34-9.27-2.02-18.15-5.39-27.2-8.16-13.6-5.33-26.69-11.9-39.33-19.23-5.11-2.19-10.82-6.19-16.52-3.92m-83.8 21.11c-4.96 3.68-8.5 8.88-12.6 13.43-7.29 8.68-15.45 16.67-24.6 23.39-11.2 8.14-24.49 12.48-37.01 18.05-3.38 1.06-4.14 5.65-1.75 8.05 3.16 3.26 8.02 4.23 12.41 3.91 10.15-.86 20.17-3.08 29.76-6.51 18.02-6.17 34.81-18.12 43.5-35.44 3.45-7.61-.02-16.06-3.85-22.81-1.06-2.08-3.73-4.01-5.86-2.07M293.17 81.8c-4.19 1.73-9.72 1.72-12.33 5.99-3.18 5.43-4.17 11.97-3.63 18.18.24 3.16 2.38 6.69 5.83 6.92 9.32 1.12 18.62-.95 27.96-.72 12.46.27 24.95-.43 37.4.39 9.07.76 18.14 1.58 27.24 1.94 2.84.21 5.53-.82 8.15-1.78.16-2.64 1.28-5.68-.5-8.01-3.7-5.25-10.02-7.4-15.13-10.91-3.9-2.91-8.95-2.86-13.34-4.57-8.27-3.14-17.04-4.83-25.85-5.42-6.71-.42-13.18-2.67-19.93-2.61-5.28.11-10.81-1.66-15.87.6M170.4 100.49c-4.37.92-8.86 1.88-12.69 4.27-6.25 4.05-13.53 5.99-20.43 8.59-3.44 1.25-5.29 4.76-8.52 6.35-6.17 3.19-11.93 7.33-16.44 12.63-2.78 3.12-4.17 7.36-4.01 11.51.08 2.59 2.58 4.39 4.9 4.95 4.45.76 9.04-.46 12.92-2.67 6.8-3.8 14.29-6.13 21.76-8.23 4.5-1.23 8.5-3.76 12.97-5.05 6.48-1.94 13.14-3.22 19.63-5.11 4.98-1.45 10.46-1.53 15.01-4.23 3.41-2.17 2.89-6.85 2.39-10.3-.87-3.72-1.49-7.98-4.27-10.78-7.06-3.73-15.57-3.07-23.22-1.93m107.09 32.19c-13.2 3.44-26.07 8.28-39.59 10.46-10.36 1.63-20.79 2.8-31.23 3.81-4.72.83-9.9.23-14.24 2.58-2.56 2.71-2.47 7.37-.04 10.12 3.27 2.5 7.5 3.19 11.46 3.81 23.83 3.18 47.96-2.48 69.9-11.64 4.89-2.26 9.94-4.43 14.17-7.84 3.76-2.83 3.7-9.36-.08-12.14-3.41-1.08-6.99.12-10.35.84z"/><path fill="#ffdf66" d="M42.48 179.1c15.06 2.89 30.14 5.96 44.72 10.79 19.1 6.46 37.94 14.61 54.14 26.79 15.73 11.62 28.72 27.75 34.16 46.74.05 4.1.09 8.21.54 12.29-9.89 1.34-19.92 1.49-29.88.97-10.74-.52-21.58-3.27-30.7-9.12-3.29-2.07-6.67-4-9.94-6.1-6.14-3.77-10.21-9.9-15.62-14.53-2.57-3.77-4.92-7.69-7.4-11.52-4.84-7.48-12.37-12.69-20-17.01-6.41-3.75-15.05-3.33-21.04 1.07-5.37 4.51-8.55 10.99-12.41 16.74.31-8.31.56-16.66 2.27-24.83 1.89-8.91 2.4-18.13 5.29-26.81.67-2.89 3.6-4.07 5.87-5.47z"/><path fill="#ce6a03" d="M261.35 11.4c5.7-2.27 11.41 1.73 16.52 3.92 12.64 7.33 25.73 13.9 39.33 19.23 9.05 2.77 17.93 6.14 27.2 8.16 4.79 1.28 10.22 2.31 13.54 6.34 2.81 3.62 3.99 9.23 1.29 13.21-2.01 3.06-6.08 2.49-9.22 2.51-14.31-.49-28.59-2.62-42.43-6.29-6.54-1.44-12.98-3.32-19.16-5.91-9.26-3.89-18.72-7.92-26.39-14.55-5.3-4.86-5.88-12.69-4.39-19.32.68-2.58.78-6.21 3.71-7.3z"/><path fill="#cc6a04" d="M177.55 32.51c2.13-1.94 4.8-.01 5.86 2.07 3.83 6.75 7.3 15.2 3.85 22.81-8.69 17.32-25.48 29.27-43.5 35.44-9.59 3.43-19.61 5.65-29.76 6.51-4.39.32-9.25-.65-12.41-3.91-2.39-2.4-1.63-6.99 1.75-8.05 12.52-5.57 25.81-9.91 37.01-18.05 9.15-6.72 17.31-14.71 24.6-23.39 4.1-4.55 7.64-9.75 12.6-13.43z"/><path fill="#f7e194" d="M293.17 81.8c5.06-2.26 10.59-.49 15.87-.6 6.75-.06 13.22 2.19 19.93 2.61 8.81.59 17.58 2.28 25.85 5.42 4.39 1.71 9.44 1.66 13.34 4.57 5.11 3.51 11.43 5.66 15.13 10.91 1.78 2.33.66 5.37.5 8.01-2.62.96-5.31 1.99-8.15 1.78-9.1-.36-18.17-1.18-27.24-1.94-12.45-.82-24.94-.12-37.4-.39-9.34-.23-18.64 1.84-27.96.72-3.45-.23-5.59-3.76-5.83-6.92-.54-6.21.45-12.75 3.63-18.18 2.61-4.27 8.14-4.26 12.33-5.99m-4.78 3.65c-2.94 1.08-5.81 3.17-6.68 6.34-1.7 5.73-2.16 11.99-.71 17.83 25.33.62 50.74-1.37 76.01.94 8.61.34 17.49 3.32 25.89.06.06-2.79-1.46-5.18-3.6-6.85-7.07-5.79-15.82-8.99-24.42-11.77-14.5-4.79-29.68-7.16-44.86-8.41-7.24-.14-14.66-.47-21.63 1.86z"/><path fill="#2e2607" d="M288.39 85.45c6.97-2.33 14.39-2 21.63-1.86 15.18 1.25 30.36 3.62 44.86 8.41 8.6 2.78 17.35 5.98 24.42 11.77 2.14 1.67 3.66 4.06 3.6 6.85-8.4 3.26-17.28.28-25.89-.06-25.27-2.31-50.68-.32-76.01-.94-1.45-5.84-.99-12.1.71-17.83.87-3.17 3.74-5.26 6.68-6.34m8.03 1.22c-3.77.75-7.94 1.24-11.04 3.68-3.42 5.02-3.56 11.59-2.32 17.37 3.63.32 7.28.58 10.93.55 15.33-.19 30.67.35 45.99-.03 11.38-.42 22.72.86 34.06 1.55 1.79.11 3.53-.43 5.26-.84-.78-2.37-1.98-4.73-4.39-5.78-11.31-5.89-23.36-10.48-35.84-13.17-14.07-2.29-28.34-5.21-42.65-3.33z"/><path fill="#292b47" d="M296.42 86.67c14.31-1.88 28.58 1.04 42.65 3.33 12.48 2.69 24.53 7.28 35.84 13.17 2.41 1.05 3.61 3.41 4.39 5.78-1.73.41-3.47.95-5.26.84-11.34-.69-22.68-1.97-34.06-1.55-15.32.38-30.66-.16-45.99.03-3.65.03-7.3-.23-10.93-.55-1.24-5.78-1.1-12.35 2.32-17.37 3.1-2.44 7.27-2.93 11.04-3.68z"/><path fill="#f3e097" d="M170.4 100.49c7.65-1.14 16.16-1.8 23.22 1.93 2.78 2.8 3.4 7.06 4.27 10.78.5 3.45 1.02 8.13-2.39 10.3-4.55 2.7-10.03 2.78-15.01 4.23-6.49 1.89-13.15 3.17-19.63 5.11-4.47 1.29-8.47 3.82-12.97 5.05-7.47 2.1-14.96 4.43-21.76 8.23-3.88 2.21-8.47 3.43-12.92 2.67-2.32-.56-4.82-2.36-4.9-4.95-.16-4.15 1.23-8.39 4.01-11.51 4.51-5.3 10.27-9.44 16.44-12.63 3.23-1.59 5.08-5.1 8.52-6.35 6.9-2.6 14.18-4.54 20.43-8.59 3.83-2.39 8.32-3.35 12.69-4.27m-28.08 13.82c-9.81 4.59-19.01 10.66-26.66 18.35-2.39 2.8-5.29 5.63-6.08 9.34-.86 3.08 2.8 4.95 5.42 4.49 5.43-.5 10.21-3.43 15.24-5.31 5.99-2.77 12.45-4.4 18.36-7.35 1.07-.13 2.22-.26 3.11-.94 3.88-.98 7.62-2.4 11.48-3.44 10.65-3.22 21.75-4.64 32.38-7.94 1.28-5.42-.07-11.35-3.14-15.94-4.62-4.29-11.41-3.42-17.18-3.07-11.57 1.98-22.43 6.73-32.93 11.81zM378.9 477.67c.2-1.85 1.09-3.49 2.38-4.79 1.04 1.5-.38 5.28-2.38 4.79zM20.32 506.68c1.26 0 2.29.79 2.85 1.88-1.09 1-3.58-.44-2.85-1.88z"/><path fill="#29210a" d="M142.32 114.31c10.5-5.08 21.36-9.83 32.93-11.81 5.77-.35 12.56-1.22 17.18 3.07 3.07 4.59 4.42 10.52 3.14 15.94-10.63 3.3-21.73 4.72-32.38 7.94-3.86 1.04-7.6 2.46-11.48 3.44 3.58-2.61 7.33-5.2 11.75-6.12 9.78-2.34 19.58-4.64 29.23-7.49-.03-3.67.37-7.85-2.2-10.84-2.82-3.23-7.49-3.47-11.46-3.24-11.38.71-21.76 5.82-32.41 9.41-5.52 1.8-9.12 6.85-14.51 8.89-3.08 1.25-6.13 2.72-8.54 5.06-4.55 4.41-9.56 9.03-11.02 15.48 2.83-.05 5.78.07 8.41-1.15 8.83-3.94 17.8-8.57 27.64-9.06-5.91 2.95-12.37 4.58-18.36 7.35-5.03 1.88-9.81 4.81-15.24 5.31-2.62.46-6.28-1.41-5.42-4.49.79-3.71 3.69-6.54 6.08-9.34 7.65-7.69 16.85-13.76 26.66-18.35z"/><path fill="#2b2c47" d="M146.62 114.61c10.65-3.59 21.03-8.7 32.41-9.41 3.97-.23 8.64.01 11.46 3.24 2.57 2.99 2.17 7.17 2.2 10.84-9.65 2.85-19.45 5.15-29.23 7.49-4.42.92-8.17 3.51-11.75 6.12-.89.68-2.04.81-3.11.94-9.84.49-18.81 5.12-27.64 9.06-2.63 1.22-5.58 1.1-8.41 1.15 1.46-6.45 6.47-11.07 11.02-15.48 2.41-2.34 5.46-3.81 8.54-5.06 5.39-2.04 8.99-7.09 14.51-8.89z"/><path fill="#4b2412" d="M277.49 132.68c3.36-.72 6.94-1.92 10.35-.84 3.78 2.78 3.84 9.31.08 12.14-4.23 3.41-9.28 5.58-14.17 7.84-21.94 9.16-46.07 14.82-69.9 11.64-3.96-.62-8.19-1.31-11.46-3.81-2.43-2.75-2.52-7.41.04-10.12 4.34-2.35 9.52-1.75 14.24-2.58 10.44-1.01 20.87-2.18 31.23-3.81 13.52-2.18 26.39-7.02 39.59-10.46z"/><path fill="#ab1d05" d="M32.21 172.03c1.91-.52 3.79-1.22 5.77-1.34 3.4-.13 6.8-.17 10.21-.19 12.37.04 24.79-.57 37.11.85 22.62 1.87 45.21 6.72 65.85 16.37 22.82 10.75 42.89 28.93 52.74 52.48 9.27 20.65 11.3 43.65 10.57 66.03-.39 1.5-.8 3.01-1.19 4.52-7.36-2.12-14.86-3.9-22.52-4.44-4.32-.33-8.77-.32-12.84-2 5.6-4.76 13-6.92 18.2-12.18 4.08-4.01 4.81-11.52.23-15.41-5.1-3.95-11.76-1.48-17.53-1.08-.92-4.12-1.99-8.21-3.31-12.22-5.44-18.99-18.43-35.12-34.16-46.74-16.2-12.18-35.04-20.33-54.14-26.79-14.58-4.83-29.66-7.9-44.72-10.79-.4-.08-1.19-.23-1.59-.31-5.42-1.38-10.88-2.62-16.41-3.44-.04-.38-.13-1.14-.17-1.52 2.65-.53 5.3-1.08 7.9-1.8m7.63 2.55c8.73 5.82 19.6 4.11 29.19 7.2 6.08 1.38 11.92 3.57 17.92 5.2 4.81 1.25 8.91 4.29 13.76 5.41 8.66 2.12 16.25 6.93 24.2 10.75 5.99 3.65 12.87 5.94 17.89 11.03 11.68 8.95 21.93 20.04 28.94 33.05 3.36 8.09 6.31 16.36 9.51 24.53 4.03.32 8.14.07 12.1 1.01 3.78 1.54 7.66 4.46 8.3 8.77.81 4.86-1.45 9.89-4.9 13.23-2.99 2.93-7.94 4.2-8.96 8.73 7.8.26 15.36 2.81 23.19 2.54 1.12-5.28 1.04-10.7.73-16.06-.73-11.96-2.07-23.96-5.18-35.56-3.53-10.7-9.01-20.63-14.72-30.3-2.32-3.57-5.81-6.15-8.45-9.46-3.26-4.08-7.68-6.98-11.4-10.6-3.98-3.92-9.22-6.07-13.71-9.29-8.97-6.34-19.75-9.13-30.06-12.49-14.05-4.22-28.5-7.61-43.22-8.16-12.3-1.25-24.67-1.05-37.01-.97-2.78-.03-5.51.53-8.12 1.44z"/><path fill="#75282f" d="M7.54 174.73c7.96-2.45 16.42-2.58 24.67-2.7-2.6.72-5.25 1.27-7.9 1.8.04.38.13 1.14.17 1.52 5.53.82 10.99 2.06 16.41 3.44-1.81-.1-3.62-.15-5.43-.19-2.99-.17-5.87-1.03-8.81-1.54-6.3-1.3-12.75-1.44-19.11-2.33z"/><path fill="#da0100" d="M39.84 174.58c2.61-.91 5.34-1.47 8.12-1.44 12.34-.08 24.71-.28 37.01.97 14.72.55 29.17 3.94 43.22 8.16 10.31 3.36 21.09 6.15 30.06 12.49 4.49 3.22 9.73 5.37 13.71 9.29 3.72 3.62 8.14 6.52 11.4 10.6 2.64 3.31 6.13 5.89 8.45 9.46 5.71 9.67 11.19 19.6 14.72 30.3 3.11 11.6 4.45 23.6 5.18 35.56.31 5.36.39 10.78-.73 16.06-7.83.27-15.39-2.28-23.19-2.54 1.02-4.53 5.97-5.8 8.96-8.73 3.45-3.34 5.71-8.37 4.9-13.23-.64-4.31-4.52-7.23-8.3-8.77-3.96-.94-8.07-.69-12.1-1.01-3.2-8.17-6.15-16.44-9.51-24.53-7.01-13.01-17.26-24.1-28.94-33.05-5.02-5.09-11.9-7.38-17.89-11.03-7.95-3.82-15.54-8.63-24.2-10.75-4.85-1.12-8.95-4.16-13.76-5.41-6-1.63-11.84-3.82-17.92-5.2-9.59-3.09-20.46-1.38-29.19-7.2zm11.68 210.85c4.4-1.42 8.76 1.08 13.06 1.82 2.72.76 5.4-.44 7.98-1.18 1.7.42 3.4.82 5.12 1.19 11.48 2.87 23.37-.18 35.01.14 4.59.33 9.05 1.58 13.59 2.35 10.19 1.89 20.56 2.49 30.77 4.22-3.46 1.85-6.76 3.98-9.98 6.22-17.17 7.33-36.24 10.18-54.82 8.59-7.58-1.7-14.91-4.83-22.73-5.26-4.74-.37-6.73 5.02-7.18 8.87-1.03 6.73 7.21 10.06 7.38 16.5.13 4.99-1.45 9.8-2.23 14.68-1.27 7.55-2.56 15.11-4.46 22.54-2.84 11.74-4.41 23.76-7.67 35.4-1.35 4.56-5.63 8-10.33 8.55-7.3 1.04-14.6-1.1-21.28-3.86-2.9-1.19-5.87-3.23-6.42-6.55-1.43-7.15.53-14.4 1.93-21.4 2.04-9 3.65-18.1 5.88-27.06 2.58-10.36 3.46-21.27 8.08-31.03 2.18-4.69 9.35-3.74 11.29-8.58 2.48-6.7 2.79-13.93 4.37-20.85.49-1.91 1.08-3.97 2.64-5.3z"/><path fill="#f1e091" d="M35.46 178.6c1.81.04 3.62.09 5.43.19.4.08 1.19.23 1.59.31-2.27 1.4-5.2 2.58-5.87 5.47-2.89 8.68-3.4 17.9-5.29 26.81-1.71 8.17-1.96 16.52-2.27 24.83-.4 4.13-1.22 8.21-2.28 12.23-.93-23.58 3.09-47.02 8.69-69.84z"/><path fill="#ac1e04" d="M336.39 196.54c14.15-2.56 28.72.15 42.07 5.02 21.86 9.11 40.42 24.89 54.9 43.45a209.38 209.38 0 0 1-5.37 7.18c-11.1-6.05-22.4-12.16-34.85-14.94-9.59-1.93-19.44-2.31-29.18-1.64-6.35.48-13.25 4.62-14.21 11.37-.4 6.38 1.47 12.63 1.74 18.99.21 5.37 1.31 10.65 2.53 15.87.98 13.74 4.75 27.09 5.96 40.79-9.73 1.23-19.64 1.33-29.4.26-5.45-.59-10.79-1.93-15.91-3.86-.02-4.82-.9-9.56-1.63-14.3-1.01-14.06-2.61-28.07-4.61-42.03-.65-3.86-1.26-8.1-4.12-11.02-3.05-3.09-7.36-4.54-11.55-5.19-6.69-.82-13.94-.18-19.73 3.54-4.11 2.65-2.48 8.81-6.19 11.79-3.92 3.05-9.1 3.6-13.85 4.36-5.7.8-12.03-2.75-13.13-8.65-1.68-8.78-2.45-17.71-4.07-26.5-.84-5.63-1.62-12.76 3.59-16.61 4.51-2.97 10.33-3.67 15.62-3.48 5.07.41 6.92 5.73 10.37 8.59 4.07 2.23 9.27 2.48 13.43.32 6.84-3.22 10.5-10.24 15.89-15.17 2.2-2.08 5.29-2.6 8.17-3.01 11.21-1.45 22.41-3.06 33.53-5.13m-2.98 2.97c-6.19.91-12.2 2.84-18.44 3.36-5.39.67-11.11.5-16.08 2.99-6.78 3.41-9.13 11.69-15.83 15.22-6.15 3.63-14.2 4.04-20.35.2-2.51-1.86-3.91-4.83-6.4-6.71-3.12-2.04-6.87-.41-10.09.44-2.3.92-5.52 1.13-6.49 3.81-2.76 5.91-1.51 12.65-.17 18.76 1.61 6.97 1.5 14.28 3.83 21.09.78 2.67 3.2 4.73 6.01 4.86 4.22.26 8.6-.21 12.58-1.69 4.35-2.39 4.43-8.04 7.18-11.69 2.82-3.47 7.36-4.68 11.53-5.61 7.19-1.76 14.86-.64 21.64 2.14 4.67 2.8 7.79 8.03 8.43 13.41 1.83 17.9 5.29 35.62 5.9 53.64-.21 3.43 3.25 4.81 6.02 5.47 9.45 2.22 19.26 3.46 28.96 2.4 1.68-.37 4.04-.33 4.75-2.25.54-2.03-.19-4.12-.47-6.14-1.58-6.93-1.25-14.15-3.2-21.01-3.73-13.76-4.03-28.08-5.03-42.21-.45-5.98 2.1-13.16 8.35-15.07 11.93-5.03 24.97-2.06 37.24-.25 5.75 1.1 11 3.87 16.58 5.58 5 1.51 9.26 4.57 13.85 6.93 1.88 1.37 5.59-.56 4.23-2.96-2.3-6.27-8.67-9.47-12.83-14.33-3.22-3.83-7.18-6.89-11.16-9.86-7.92-7.02-18.03-10.67-27.11-15.86-4.92-3.12-10.93-3.15-16.43-4.5-8.9-1.56-18.06-1.04-27-.16z"/><path fill="#da0000" d="M333.41 199.51c8.94-.88 18.1-1.4 27 .16 5.5 1.35 11.51 1.38 16.43 4.5 9.08 5.19 19.19 8.84 27.11 15.86 3.98 2.97 7.94 6.03 11.16 9.86 4.16 4.86 10.53 8.06 12.83 14.33 1.36 2.4-2.35 4.33-4.23 2.96-4.59-2.36-8.85-5.42-13.85-6.93-5.58-1.71-10.83-4.48-16.58-5.58-12.27-1.81-25.31-4.78-37.24.25-6.25 1.91-8.8 9.09-8.35 15.07 1 14.13 1.3 28.45 5.03 42.21 1.95 6.86 1.62 14.08 3.2 21.01.28 2.02 1.01 4.11.47 6.14-.71 1.92-3.07 1.88-4.75 2.25-9.7 1.06-19.51-.18-28.96-2.4-2.77-.66-6.23-2.04-6.02-5.47-.61-18.02-4.07-35.74-5.9-53.64-.64-5.38-3.76-10.61-8.43-13.41-6.78-2.78-14.45-3.9-21.64-2.14-4.17.93-8.71 2.14-11.53 5.61-2.75 3.65-2.83 9.3-7.18 11.69-3.98 1.48-8.36 1.95-12.58 1.69-2.81-.13-5.23-2.19-6.01-4.86-2.33-6.81-2.22-14.12-3.83-21.09-1.34-6.11-2.59-12.85.17-18.76.97-2.68 4.19-2.89 6.49-3.81 3.22-.85 6.97-2.48 10.09-.44 2.49 1.88 3.89 4.85 6.4 6.71 6.15 3.84 14.2 3.43 20.35-.2 6.7-3.53 9.05-11.81 15.83-15.22 4.97-2.49 10.69-2.32 16.08-2.99 6.24-.52 12.25-2.45 18.44-3.36zm22.79 242.87c7.42-.71 14.75-2.83 22.26-2.11 1.86 8.65 2.99 17.54 2.15 26.38-.51 6.96-6.71 12.71-13.5 13.54-5.65.89-11.31 1.71-17 2.23-6.13.64-11.75-2.28-17.32-4.34-2.52-5.94-2.51-12.48-3.06-18.8.06-4.94.49-9.87.75-14.8 8.51-1.43 17.17-1.11 25.72-2.1z"/><path fill="#f8bb4e" d="M470.76 214.76c4.17-3.24 9.7-4.09 14.83-3.42 7.99.99 15.77 4.86 20.91 11.13 4.11 4.93 4.13 11.65 5.05 17.67.23-1.65.59-3.27.84-4.91 1.64 7.81 1.59 15.84 2.12 23.78-.43 6.09-1.09 12.19-1.85 18.25-.35-3.37-.84-6.73-1.24-10.09-1.89-.31-3.78-.63-5.66-.93-.81 3.16-1.32 6.38-1.98 9.57-9.88-.01-19.76.51-29.62.03-.47-7.75.15-15.52-.39-23.27-1.83-.41-3.67-.72-5.48-1.13.4-6.66-.48-13.29-.98-19.91-.46-.14-1.39-.41-1.85-.54-1.17 1.72-1.91 4.06-3.97 4.93-2.42 1.16-5.14 2.15-6.62 4.55-3.24 4.85-6.39 9.87-11.14 13.41 5.01-7.46 9.13-15.48 14.3-22.85 3.96-5.61 7.16-12.02 12.73-16.27z"/><path fill="#f7c054" d="M41.46 219.47c5.99-4.4 14.63-4.82 21.04-1.07 7.63 4.32 15.16 9.53 20 17.01 2.48 3.83 4.83 7.75 7.4 11.52 2.71 6.73 9.52 10.37 12.59 16.83-2.58.12-5.14-.38-7.17-2.05-4.92-3.9-11.81-3.42-16.7-7.35-5.07-4.15-12.01-2.06-17.96-2.03-.44 1.67-.86 3.34-1.3 5-1.53.47-3.05.96-4.58 1.44-.5 1.5-.98 3.01-1.48 4.52-1.51.5-3.03.99-4.54 1.48-.47 1.53-.95 3.06-1.42 4.59-1.69.46-3.4.87-5.09 1.33.19 3.06.51 6.12.48 9.19.04 4.99-3.41 9.27-3.09 14.31.42 8.18-.41 16.51 1.63 24.54.86 3.47.63 7.06.36 10.59-7.56-19.32-11.81-39.85-13.94-60.45-.37-6.8-1.37-13.62-.92-20.43 1.06-4.02 1.88-8.1 2.28-12.23 3.86-5.75 7.04-12.23 12.41-16.74z"/><path fill="#f7b34b" d="M461.49 235.92c2.06-.87 2.8-3.21 3.97-4.93.46.13 1.39.4 1.85.54.5 6.62 1.38 13.25.98 19.91 1.81.41 3.65.72 5.48 1.13.54 7.75-.08 15.52.39 23.27 9.86.48 19.74-.04 29.62-.03.66-3.19 1.17-6.41 1.98-9.57 1.88.3 3.77.62 5.66.93.4 3.36.89 6.72 1.24 10.09-2.85 18.11-8.21 35.78-14.54 52.97-3.69 8.96-8.04 17.62-12.38 26.27-8.72 17.25-19.73 33.29-32.33 47.93-3.18 3.46-6.12 7.19-9.78 10.17.11-2.4.24-4.81.44-7.2-3.66 2.24-7.47 4.25-11.5 5.75.39-3.13.22-6.3-.16-9.42 1.46-1.76 3.84-3.22 3.9-5.74.04-4.45-2.39-8.5-2.33-12.96.04-8.75-.1-17.59-1.85-26.18-2.39-4.74-6.56-9.3-12.04-10.22-.45-2.03-.73-4.11-1.54-6.03-3.26-.91-6.7-.8-10.04-1-.33-2.16-.62-4.32-.93-6.47-5.17-.41-10.42.18-15.54-.63-2.02-1.19-3.11-3.58-5.22-4.6-4.47-.85-8.68 1.72-13.11 1.61-1.27-1.65-2.76-3.59-2.66-5.76.94-2.49 2.62-4.62 3.84-6.98 6.94-2.59 13.83-5.56 19.8-10.04 12.31-8.42 23.45-18.71 32.12-30.89 3.51-4.82 7.47-9.3 10.53-14.43 1.96-3.28 3.98-6.55 6.39-9.53 4.75-3.54 7.9-8.56 11.14-13.41 1.48-2.4 4.2-3.39 6.62-4.55z"/><path fill="#facb5d" d="M89.9 246.93c5.41 4.63 9.48 10.76 15.62 14.53 3.27 2.1 6.65 4.03 9.94 6.1 9.12 5.85 19.96 8.6 30.7 9.12 9.96.52 19.99.37 29.88-.97-.45-4.08-.49-8.19-.54-12.29 1.32 4.01 2.39 8.1 3.31 12.22 5.77-.4 12.43-2.87 17.53 1.08 4.58 3.89 3.85 11.4-.23 15.41-5.2 5.26-12.6 7.42-18.2 12.18 4.07 1.68 8.52 1.67 12.84 2 7.66.54 15.16 2.32 22.52 4.44.39-1.51.8-3.02 1.19-4.52.54-1.18 1.14-2.34 1.74-3.49.08 3.05-.05 6.11-.38 9.15 5.86-.12 11.79.09 17.43 1.86 4.79 1.49 9.84.99 14.77 1.23 3.75-.03 5.77 3.69 8.95 5.04 5.28.2 9.62-3.4 13.29-6.78 3.36-3.15 8.23-4.26 12.7-3.39 10.19 1.91 19.87 5.78 29.76 8.8-.03-4.64.18-9.28.32-13.92.73 4.74 1.61 9.48 1.63 14.3-.31 1.33-.7 2.64-1.11 3.95 1.93 1.09 3.62 2.55 4.84 4.41 1.6.13 3.21.23 4.82.32.79 1.27 1.56 2.55 2.35 3.82 6.94 1.11 13.9 2.11 20.84 3.25 4.93.81 8.95 4.39 13.97 4.86 3.84.34 7.72.27 11.58.54-.98 1.12-1.97 2.23-2.95 3.36.35.74.68 1.5 1 2.27 2.98-1.03 5.94-2.13 8.88-3.28.87 1.66 1.7 3.37 2.86 4.86 3.81 1.02 7.88.18 11.66 1.38 2.71 1.09 5.17 2.7 7.73 4.1-.22 2.28-.45 4.56-.68 6.85 2.3.27 4.59.51 6.89.79.42 1.63.85 3.25 1.28 4.88 1.67.42 3.36.84 5.05 1.26.66 6.5.26 13.03-.44 19.51-.7 6.3-.08 12.62-.26 18.93.07 4.55-4.31 7.29-5.5 11.4-.41 2.18-.3 4.41-.66 6.6-2.8 1.86-6.21 2.37-9.27 3.65-2.98 1.09-5.38 3.22-7.91 5.05-3.3 1.22-6.61 2.42-9.98 3.44-.34.08-1.02.24-1.36.33-4.15.88-8.27 1.9-12.42 2.8-2.1-.19-4.19-.47-6.27-.74 6.31-2.82 13.24-3.3 19.93-4.65-2.53-1.15-5.12-2.16-7.73-3.08.19-2.02.25-4.09.87-6.04 1.87-2.86 5.23-4.75 6.06-8.25 1.45-5.35 1.03-10.96 1.53-16.44.22-4 1.05-8.02.57-12.03-.7-2.36-2.58-4.12-3.98-6.07-2.54-3.06-4.25-6.67-5.84-10.27-1.29.13-2.57.29-3.85.42-2.93-3.37-6.38-6.45-7.87-10.79-3.89-.26-8.2.24-11.46-2.33-3.94-3.5-10.22-1-13.57-5.52-2.94-.36-5.9-.59-8.85-.8-.99-1.19-1.96-2.38-2.94-3.56-8.16-.34-16.34-.12-24.5-.22-6.53-.18-13.07 3.54-19.38.47 3.17-.46 6.18-1.58 9.05-2.99-5.3-2.43-10.03-6.01-15.48-8.09-8.59-2.17-17.57-2.4-26.18-4.47-4.31-1.4-8.63-2.85-13.18-3.2-.51 6.07-1.01 12.14-1.97 18.16-2.55 7.36-7.29 13.75-12.83 19.14-3.91 3.5-8.15 6.62-12.21 9.95-2.33 1.28-4.66 2.58-7.03 3.81-11.48 5.77-24.33 8.11-37.06 8.92-5.9.02-11.8.14-17.69-.09-10.21-.44-20.1-3.17-29.97-5.57-15.23-4.67-29.9-11.25-43.43-19.67-6.27-3.97-12.21-8.46-18.59-12.27.7 1.93 1.4 3.87 2.18 5.78-4.85-9.19-9.4-18.65-12.58-28.55.27-3.53.5-7.12-.36-10.59-2.04-8.03-1.21-16.36-1.63-24.54-.32-5.04 3.13-9.32 3.09-14.31.03-3.07-.29-6.13-.48-9.19 1.69-.46 3.4-.87 5.09-1.33.47-1.53.95-3.06 1.42-4.59 1.51-.49 3.03-.98 4.54-1.48.5-1.51.98-3.02 1.48-4.52 1.53-.48 3.05-.97 4.58-1.44.44-1.66.86-3.33 1.3-5 5.95-.03 12.89-2.12 17.96 2.03 4.89 3.93 11.78 3.45 16.7 7.35 2.03 1.67 4.59 2.17 7.17 2.05-3.07-6.46-9.88-10.1-12.59-16.83m6.55 54.3c-.34 1.42-.65 2.85-.98 4.28-1.71.33-3.44.56-5.15.89-1.93 11.6-2.23 23.62 0 35.19 1.74.31 3.49.55 5.23.88.3 1.75.52 3.52.82 5.28 2.64.19 5.29.39 7.93.62 1.09 3.91 3.22 7.42 4.32 11.32 2.61.26 5.29.24 7.83.95 2.58 1.69 3.99 5.49 7.51 5.35 2.54.22 5.09.21 7.63.26.25 1.87.47 3.75.73 5.63 7.4.13 14.78.65 22.18.64 1.67 1.12 3.28 2.71 5.45 2.59 5.04.11 10.08.04 15.12.04 2.65.15 4.8-1.58 7.19-2.41 3.12-.29 6.26.24 9.39.27.28-1.88.52-3.75.81-5.62 3.64-.51 7.27-1.06 10.88-1.72 1.33-5.3 4.69-9.7 6.69-14.7 1.95-6.62.97-13.68-.59-20.28-1.6-.47-3.23-.84-4.83-1.29-.33-1.43-.81-2.81-1.12-4.22-5.56-.92-11.25-.27-16.75-1.56-.91-1.77-.7-4.9-3.13-5.27-5-.89-10.12-.24-15.17-.56-.29-1.8-.51-3.6-.81-5.38-1.66-.33-3.32-.58-4.97-.91-.73-2.19-.73-5.13-3.11-6.29-3.75-2.45-8.1.7-12.15.09-3.03.08-3.38-4.48-6.41-4.25-7-.39-13.97-1.26-20.99-1.2-7.88-.1-15.69 1.07-23.55 1.38z"/><path fill="#fb935b" d="M354.02 281.84c3.65 13.04 4.52 26.66 7.49 39.85-1.29 1.55-2.39 3.8-4.72 3.78-8.62.76-17.35.45-25.93-.67l-.28-1.91c9.76 1.07 19.67.97 29.4-.26-1.21-13.7-4.98-27.05-5.96-40.79zM343.1 484.26c7.45.88 14.86-.74 22.28-1.18-7.22 2.14-14.87 1.94-22.28 1.18z"/><path fill="#fbd664" d="M96.45 301.23c7.86-.31 15.67-1.48 23.55-1.38 7.02-.06 13.99.81 20.99 1.2 3.03-.23 3.38 4.33 6.41 4.25 4.05.61 8.4-2.54 12.15-.09 2.38 1.16 2.38 4.1 3.11 6.29 1.65.33 3.31.58 4.97.91.3 1.78.52 3.58.81 5.38 5.05.32 10.17-.33 15.17.56 2.43.37 2.22 3.5 3.13 5.27 5.5 1.29 11.19.64 16.75 1.56.31 1.41.79 2.79 1.12 4.22 1.6.45 3.23.82 4.83 1.29 1.56 6.6 2.54 13.66.59 20.28-2 5-5.36 9.4-6.69 14.7-3.61.66-7.24 1.21-10.88 1.72-.29 1.87-.53 3.74-.81 5.62-3.13-.03-6.27-.56-9.39-.27-2.39.83-4.54 2.56-7.19 2.41-5.04 0-10.08.07-15.12-.04-2.17.12-3.78-1.47-5.45-2.59-7.4.01-14.78-.51-22.18-.64-.26-1.88-.48-3.76-.73-5.63-2.54-.05-5.09-.04-7.63-.26-3.52.14-4.93-3.66-7.51-5.35-2.54-.71-5.22-.69-7.83-.95-1.1-3.9-3.23-7.41-4.32-11.32-2.64-.23-5.29-.43-7.93-.62-.3-1.76-.52-3.53-.82-5.28-1.74-.33-3.49-.57-5.23-.88-2.23-11.57-1.93-23.59 0-35.19 1.71-.33 3.44-.56 5.15-.89.33-1.43.64-2.86.98-4.28zm154.19 52.89c8.94-3.22 18.3-6.56 27.96-5.66 6.31 3.07 12.85-.65 19.38-.47 8.16.1 16.34-.12 24.5.22.98 1.18 1.95 2.37 2.94 3.56 2.95.21 5.91.44 8.85.8 3.35 4.52 9.63 2.02 13.57 5.52 3.26 2.57 7.57 2.07 11.46 2.33 1.49 4.34 4.94 7.42 7.87 10.79 1.28-.13 2.56-.29 3.85-.42 1.59 3.6 3.3 7.21 5.84 10.27 1.4 1.95 3.28 3.71 3.98 6.07.48 4.01-.35 8.03-.57 12.03-.5 5.48-.08 11.09-1.53 16.44-.83 3.5-4.19 5.39-6.06 8.25-.62 1.95-.68 4.02-.87 6.04 2.61.92 5.2 1.93 7.73 3.08-6.69 1.35-13.62 1.83-19.93 4.65 2.08.27 4.17.55 6.27.74-12.49 1.85-25.12 3.02-37.76 3.01-26.26-1.39-53.41-6.07-75.89-20.5-1.05-.62-2.11-1.24-3.15-1.85-7.07-6.09-13.5-13.34-17.06-22.06-.91-7.22-1.39-14.66.06-21.83 3.69-8.69 9.35-17.51 18.56-21.01z"/><path fill="#f8be53" d="M313.56 322.98c.41-1.31.8-2.62 1.11-3.95 5.12 1.93 10.46 3.27 15.91 3.86l.28 1.91c8.58 1.12 17.31 1.43 25.93.67 2.33.02 3.43-2.23 4.72-3.78 4.5-.75 9.03-1.48 13.38-2.92-1.22 2.36-2.9 4.49-3.84 6.98-.1 2.17 1.39 4.11 2.66 5.76 4.43.11 8.64-2.46 13.11-1.61 2.11 1.02 3.2 3.41 5.22 4.6 5.12.81 10.37.22 15.54.63.31 2.15.6 4.31.93 6.47 3.34.2 6.78.09 10.04 1 .81 1.92 1.09 4 1.54 6.03 5.48.92 9.65 5.48 12.04 10.22 1.75 8.59 1.89 17.43 1.85 26.18-.06 4.46 2.37 8.51 2.33 12.96-.06 2.52-2.44 3.98-3.9 5.74.38 3.12.55 6.29.16 9.42-6.65 2.12-12.7 5.59-18.63 9.17-7.58 4.35-15.85 7.36-24.3 9.47 2.53-1.83 4.93-3.96 7.91-5.05 3.06-1.28 6.47-1.79 9.27-3.65.36-2.19.25-4.42.66-6.6 1.19-4.11 5.57-6.85 5.5-11.4.18-6.31-.44-12.63.26-18.93.7-6.48 1.1-13.01.44-19.51-1.69-.42-3.38-.84-5.05-1.26-.43-1.63-.86-3.25-1.28-4.88-2.3-.28-4.59-.52-6.89-.79.23-2.29.46-4.57.68-6.85-2.56-1.4-5.02-3.01-7.73-4.1-3.78-1.2-7.85-.36-11.66-1.38-1.16-1.49-1.99-3.2-2.86-4.86-2.94 1.15-5.9 2.25-8.88 3.28-.32-.77-.65-1.53-1-2.27.98-1.13 1.97-2.24 2.95-3.36-3.86-.27-7.74-.2-11.58-.54-5.02-.47-9.04-4.05-13.97-4.86-6.94-1.14-13.9-2.14-20.84-3.25-.79-1.27-1.56-2.55-2.35-3.82-1.61-.09-3.22-.19-4.82-.32-1.22-1.86-2.91-3.32-4.84-4.41z"/><path fill="#f8c255" d="M232.81 329.71c4.55.35 8.87 1.8 13.18 3.2 8.61 2.07 17.59 2.3 26.18 4.47 5.45 2.08 10.18 5.66 15.48 8.09-2.87 1.41-5.88 2.53-9.05 2.99-9.66-.9-19.02 2.44-27.96 5.66-.75-2.12-.68-5.78-3.75-5.71-4.48-.45-8.87-1.62-12.63-4.16-1.25 1.1-2.25 2.44-3.42 3.62.96-6.02 1.46-12.09 1.97-18.16z"/><path fill="#f2b449" d="M230.84 347.87c1.17-1.18 2.17-2.52 3.42-3.62 3.76 2.54 8.15 3.71 12.63 4.16 3.07-.07 3 3.59 3.75 5.71-9.21 3.5-14.87 12.32-18.56 21.01.54-2.87 1.41-5.73 1.26-8.67-2.41-3.29-8-4.38-10.99-1.19-4.94 4.67-10.07 9.27-16.55 11.69 4.06-3.33 8.3-6.45 12.21-9.95 5.54-5.39 10.28-11.78 12.83-19.14z"/><path fill="#ea852d" d="M52.03 352.09c6.38 3.81 12.32 8.3 18.59 12.27 13.53 8.42 28.2 15 43.43 19.67-1.93.02-3.85.15-5.76.28-5.41-.47-10.83-.73-16.25-.3-7.04.61-14.36-1.17-21.15 1.46l-.65.06c-4.87-9.5-11.57-17.94-16.03-27.66-.78-1.91-1.48-3.85-2.18-5.78z"/><path fill="#f09c39" d="M222.35 365.27c2.99-3.19 8.58-2.1 10.99 1.19.15 2.94-.72 5.8-1.26 8.67-1.45 7.17-.97 14.61-.06 21.83-1.52-4-1.98-8.33-3.78-12.22-9.68-2.36-20.53 1.71-29.47-3.97 2.37-1.23 4.7-2.53 7.03-3.81 6.48-2.42 11.61-7.02 16.55-11.69z"/><path fill="#981c1d" d="M48.94 380.53c5.32.58 10.35 2.49 15.45 4.02 1.89.58 3.83 1.4 5.85.98l.65-.06 1.67.6c-2.58.74-5.26 1.94-7.98 1.18-4.3-.74-8.66-3.24-13.06-1.82-1.56 1.33-2.15 3.39-2.64 5.3-1.58 6.92-1.89 14.15-4.37 20.85-1.94 4.84-9.11 3.89-11.29 8.58-4.62 9.76-5.5 20.67-8.08 31.03-2.23 8.96-3.84 18.06-5.88 27.06-1.4 7-3.36 14.25-1.93 21.4.55 3.32 3.52 5.36 6.42 6.55 6.68 2.76 13.98 4.9 21.28 3.86 4.7-.55 8.98-3.99 10.33-8.55 3.26-11.64 4.83-23.66 7.67-35.4 1.9-7.43 3.19-14.99 4.46-22.54.78-4.88 2.36-9.69 2.23-14.68-.17-6.44-8.41-9.77-7.38-16.5.45-3.85 2.44-9.24 7.18-8.87 7.82.43 15.15 3.56 22.73 5.26-1.75-.08-3.51-.09-5.25-.15-6.82-1.42-13.72-2.35-20.67-2.88-.72 3.4-1.43 6.81-2.24 10.19 3.25 2.96 7.54 5.61 7.83 10.49.01 2.07.01 4.15.03 6.23-.57 6.19-2.3 12.22-3.13 18.38-.33 3.54-1.97 6.73-2.76 10.16-1.73 11.39-4.47 22.59-7.25 33.76-1.45 3.78-1.48 7.99-3.22 11.67-3.11 4.16-8.45 6.3-13.59 5.85-6.29-.25-13.94.83-18.83-3.92-.56-1.09-1.59-1.88-2.85-1.88-5.27-1.05-5.45-7.41-5.62-11.71-1.06-6.41 2.08-12.34 3.07-18.53 1.25-5.14 1.58-10.46 2.89-15.59 4.82-14.6 4.12-30.83 11.7-44.55 2.84-2.35 6.52-3.33 10.03-4.23.96-6.48 2.71-12.8 4.08-19.19.53-1.13.76-2.37.59-3.61-.08-3.03 1.32-5.82 1.88-8.74z"/><path fill="#ec8f30" d="M161.71 389.69c12.73-.81 25.58-3.15 37.06-8.92 8.94 5.68 19.79 1.61 29.47 3.97 1.8 3.89 2.26 8.22 3.78 12.22 3.56 8.72 9.99 15.97 17.06 22.06-2.04-1.07-4.12-2.04-6.12-3.17-4.35-4-7.61-8.97-11.05-13.73-1.01-1.21-2.09-2.92-3.89-2.81-3.78.1-7.54.65-11.32.67-.22-1.18-.46-2.34-.68-3.51-7.76-1.82-15.8-2.46-23.34-5.16-3.94-1.49-8.07.21-12.11-.17-4.46-.38-8.92-.86-13.4-.9-1.82-.16-3.64-.41-5.46-.55z"/><path fill="#f9773f" d="M92.04 384.01c5.42-.43 10.84-.17 16.25.3-9.89 3.18-20.36 2.92-30.61 2.95-1.72-.37-3.42-.77-5.12-1.19l-1.67-.6c6.79-2.63 14.11-.85 21.15-1.46z"/><path fill="#b42405" d="M108.29 384.31c1.91-.13 3.83-.26 5.76-.28 9.87 2.4 19.76 5.13 29.97 5.57 5.89.23 11.79.11 17.69.09 1.82.14 3.64.39 5.46.55-3.15 1.74-6.17 3.72-9.2 5.67-3.53 1.67-7.26 2.86-10.9 4.28 3.22-2.24 6.52-4.37 9.98-6.22-10.21-1.73-20.58-2.33-30.77-4.22-4.54-.77-9-2.02-13.59-2.35-11.64-.32-23.53 2.73-35.01-.14 10.25-.03 20.72.23 30.61-2.95z"/><path fill="#6e3a35" d="M46.47 392.88c-1.49-.62-1.17-3.74.59-3.61.17 1.24-.06 2.48-.59 3.61z" opacity=".55"/><path fill="#eb832c" d="M167.17 390.24c4.48.04 8.94.52 13.4.9 4.04.38 8.17-1.32 12.11.17 7.54 2.7 15.58 3.34 23.34 5.16.22 1.17.46 2.33.68 3.51 3.78-.02 7.54-.57 11.32-.67 1.8-.11 2.88 1.6 3.89 2.81 3.44 4.76 6.7 9.73 11.05 13.73-1.76 1.65-3.43 3.88-6.02 4.1-6.85.63-13.74.12-20.59-.1-.29-2.64-.59-5.27-.88-7.89-3.74.82-7.59 1.99-11.43 1.13-4.32-.95-8.73-.99-13.13-1.05-4.01 0-6.86-3.69-10.84-3.84-4.56-.39-9.31.2-13.71-1.37-3.04-1.04-5.03-3.72-7.09-6.02-2.41.1-4.82.23-7.22.52 2.05-1.73 3.92-3.66 5.92-5.42 3.03-1.95 6.05-3.93 9.2-5.67z"/><path fill="#fc6839" d="M147.07 400.19c3.64-1.42 7.37-2.61 10.9-4.28-2 1.76-3.87 3.69-5.92 5.42-8.11 2.32-15.67 6.51-24.13 7.59-7.06.94-13.85 3.67-21.04 3.49-4.65-.09-9.31-.25-13.95-.6-1.97-1.08-3.93-2.17-5.93-3.18 1.74.06 3.5.07 5.25.15 18.58 1.59 37.65-1.26 54.82-8.59z"/><path fill="#e77723" d="M152.05 401.33c2.4-.29 4.81-.42 7.22-.52 2.06 2.3 4.05 4.98 7.09 6.02 4.4 1.57 9.15.98 13.71 1.37 3.98.15 6.83 3.84 10.84 3.84 4.4.06 8.81.1 13.13 1.05 3.84.86 7.69-.31 11.43-1.13.29 2.62.59 5.25.88 7.89 6.85.22 13.74.73 20.59.1 2.59-.22 4.26-2.45 6.02-4.1 2 1.13 4.08 2.1 6.12 3.17 1.04.61 2.1 1.23 3.15 1.85 22.48 14.43 49.63 19.11 75.89 20.5l-.83.29c-2.19 4.11-1.56 8.9-1.37 13.37.32 8.87 2.89 17.46 3.32 26.32l.07.78c-4.4 1.57-9.05 1.42-13.62 1.74-49.79 9.58-102.54 3.31-148.53-18.1-23.38-10.88-45.07-25.41-63.85-43.09-3.66-3.41-8.39-6.05-10.38-10.87 4.64.35 9.3.51 13.95.6 7.19.18 13.98-2.55 21.04-3.49 8.46-1.08 16.02-5.27 24.13-7.59z"/><path fill="#eea13e" d="M432.57 413.15c4.03-1.5 7.84-3.51 11.5-5.75-.2 2.39-.33 4.8-.44 7.2l-.03.64c-4.67 4.47-9.27 9.01-14.15 13.26-.45-.8-.91-1.58-1.38-2.35-2.11.38-4.22.76-6.33 1.1-2.2-2.23-4.85-3.93-7.8-4.93 5.93-3.58 11.98-7.05 18.63-9.17z"/><path fill="#ea9334" d="M389.64 431.79c8.45-2.11 16.72-5.12 24.3-9.47 2.95 1 5.6 2.7 7.8 4.93 2.11-.34 4.22-.72 6.33-1.1.47.77.93 1.55 1.38 2.35-9.49 7.99-19.23 15.88-30.05 21.99 2.98-5.4 9.45-7.35 12.67-12.48-2.25-3.31-6.4-4.45-10.18-4.72-6.59-.37-12.53 3.49-19.08 3.49-1.22-.05-2.15-.97-3.15-1.55 3.37-1.02 6.68-2.22 9.98-3.44z"/><path fill="#6a3738" d="M71.92 426.43c2.04.44 1.92 5.66.03 6.23-.02-2.08-.02-4.16-.03-6.23z" opacity=".61"/><path fill="#ed852e" d="M382.81 436.78c6.55 0 12.49-3.86 19.08-3.49 3.78.27 7.93 1.41 10.18 4.72-3.22 5.13-9.69 7.08-12.67 12.48-5.14 3.5-10.41 6.93-15.83 10.05-1.78-8.32-2.16-17-5.27-24.98.34-.09 1.02-.25 1.36-.33 1 .58 1.93 1.5 3.15 1.55z"/><path fill="#b21c04" d="M365.88 438.36c4.15-.9 8.27-1.92 12.42-2.8 3.11 7.98 3.49 16.66 5.27 24.98-.44 4.12.72 8.99-2.29 12.34-1.29 1.3-2.18 2.94-2.38 4.79 0 2.12-2.19 3.4-4.13 3.22-1.65-.06-3.27.25-4.82.76l-.88.18c-1.09-.18-2.05.09-2.88.8l-.81.45c-7.42.44-14.83 2.06-22.28 1.18-2.98-.98-6.31-1.32-8.78-3.41-.54-.91-1.05-1.84-1.53-2.77 5.57 2.06 11.19 4.98 17.32 4.34 5.69-.52 11.35-1.34 17-2.23 6.79-.83 12.99-6.58 13.5-13.54.84-8.84-.29-17.73-2.15-26.38-7.51-.72-14.84 1.4-22.26 2.11-8.55.99-17.21.67-25.72 2.1-.26 4.93-.69 9.86-.75 14.8-.67-5.89-1.4-11.78-2.44-17.62l.83-.29c12.64.01 25.27-1.16 37.76-3.01z"/><path fill="#fc6c39" d="M325.92 455.03c-.19-4.47-.82-9.26 1.37-13.37 1.04 5.84 1.77 11.73 2.44 17.62.55 6.32.54 12.86 3.06 18.8.48.93.99 1.86 1.53 2.77-1.69.2-3.39.37-5.08.5-.43-8.86-3-17.45-3.32-26.32z"/><path fill="#883d3d" d="M369.95 481.65c1.55-.51 3.17-.82 4.82-.76-.19 1.92-3.72 2.01-4.82.76z" opacity=".78"/><path fill="#843e3f" d="M366.19 482.63c.83-.71 1.79-.98 2.88-.8-.6 1.64-1.56 1.91-2.88.8z" opacity=".7"/></svg>