<svg clip-rule="evenodd" fill-rule="evenodd" stroke-linejoin="round" stroke-miterlimit="2" viewBox="0 0 1206 922" xmlns="http://www.w3.org/2000/svg"><g fill-rule="nonzero" transform="translate(-238.5)"><path d="m428.63 0h.36c.73 1.06 1.66 1.98 2.59 2.87 23.85 20.46 45.61 43.34 70.66 62.4 21.72 18.84 47.68 34.44 62.05 60.22-29.19-17.18-54.31-40.32-77.99-64.33-4.69-5.34-10.59-9.38-15.93-14.02-12.22-10.41-23.81-21.7-33.58-34.48-2.98-4.04-6.25-7.96-8.16-12.66zm261.93.01c3.13 1.29 6.16 2.8 9.21 4.27 7.26 25.15 14.16 50.57 17.18 76.64.43 2.91.11 6.15 2.04 8.6 5.1 7.58 6.03 16.89 8.81 25.4-2.47 1.42-4.94 2.83-7.41 4.23-7.74-12.73-8.46-27.95-10.99-42.25-.57-4.45-2.75-8.42-4.16-12.63-7.38-20.79-9.93-42.82-14.68-64.26zm-429.56 134.03c15.93.44 32.34.46 47.39 6.37 45.11 12.27 88.73 29.59 134.25 40.37 4.07 1.04 7.86 2.89 11.77 4.38 11.13 4.53 22.31 8.99 33.24 13.99-8.03-.26-16.05-.68-24.08-1.05-3.57-.09-6.77-1.83-10.11-2.87-27.53-9.36-56.59-13.7-83.59-24.71-35.8-13.61-73.59-21.41-108.87-36.48zm93.61 217.71c33.89-4.46 68.14-2.53 102.2-3.28-.01 4.35.18 8.69.21 13.04-31.52-.42-63.12-1.36-94.58 1.24-4.31.43-8.56 1.34-12.87 1.82-28.78 3.63-57.83 1.66-86.73 2.44-.01-4.36-.01-8.73 0-13.09 30.58.67 61.35 1.95 91.77-2.17zm397.47 114.77c13.75-11.8 28.4-22.5 43.54-32.44-4.24 8.29-7.17 17.52-13.63 24.45-1.78 2.02-4.35 3.06-6.83 3.93-7.46 2.49-15.4 2.62-23.08 4.06zm-45.55 31.22c2.48-3.78 4.99-7.53 7.5-11.28 16.2.45 33.2-1.08 48.43 5.59 3.92 1.71 7.53 4.08 10.82 6.81-22.18 2.42-44.62 1.5-66.75-1.12zm26.93 17.67c14.35-1.15 30.21 2.54 39.71 14.1-14.17-.91-28.59-4.97-39.71-14.1zm-494.96 92.51c2.8-1.52 5.94-1.71 8.62.16-.09 1.41-.19 2.83-.27 4.25-2.65 1.45-5.58 1.16-8.35.23zm0 160.23c15.25-4.8 30.54-9.5 45.88-14.05-4.93 2.95-10.31 4.99-15.47 7.45-10.28 4.79-20.5 9.75-30.41 15.26z" fill="#292929"/><path d="m651.99 210.8c1.32-2.13 2.64-4.26 3.97-6.39 6.13 1.87 11.98 5.04 18.5 5.35 13.71 1.1 27.34 3.01 41.03 4.3 3.17.34 6.37.11 9.54-.2 33.1-2.99 66.36-.77 99.52-1.34 8.72.54 17.08 5.83 20.26 14.16 7.78 2.25 16.06 2.33 23.61 5.46 16.05 6.17 28.39 18.72 39.93 31.03 1.79 2.09 4.31 3.91 4.85 6.78 8.02 40.24 4.68 81.78 12.76 122.02 19.33 6.14 38.73 12.1 58.01 18.39 7.76 2.46 15.41 5.32 23.36 7.11 36.23 9.44 69.29 27.65 101.46 46.3 9.63 5.71 19.46 11.11 28.98 17.02 22.75 15.32 41.93 35.7 66.34 48.58 6.14 2.55 12.9 3.04 19.32 4.63 22.41 4.59 44.9 8.8 67.31 13.38 5 .77 10.24 2.5 15.19.45 3.61 2.27 6.62 5.57 10.72 7.01 3.67 1.29 7.31 2.67 11.02 3.89 3.84 1.28 8.31.82 11.66 3.43 3.39 2.24 4.38 6.39 6.41 9.67 3.2 5.09 7.57 9.48 9.86 15.12 3.71 9.18 4.58 19.23 4.39 29.05-.28 6.38.96 12.7.77 19.08-.16 13.42 2.27 26.67 4.28 39.88.04 6.17.17 12.34.75 18.5 1.45 24.78 3.76 49.5 6.16 74.21 17.53 2.536 35.06 5.401 52.46 8.882 30.91 6.183 16.6 145.105 16.6 145.105-15.37-12.25-20.67-109.682-34.37-123.662-9.07-9.05 35.54 6.975-8.02-1.645-39.54-7.31-79.19-14.03-119.06-19.25-46.95-6.34-94.03-11.57-141.03-17.48-3.74 10.43-6.14 21.59-12.33 30.93-9.51 11.53-22.24 19.79-32.46 30.63-12.97 13.47-23.11 29.45-36.81 42.25-6.59 6.28-14.34 11.13-21.74 16.36-19.49 13.54-39.53 26.24-59.39 39.21h-54.26c35.71-26.19 74.54-47.81 110.03-74.33-49.7-5-99.69-.51-149.48-3.15-12.2-17.75-21.42-37.98-37.72-52.54-2.3-2.42-5.94-2.03-8.97-2.36-14.67-.53-28.3 5.65-41.83 10.43-10.96 4-22.64 6.99-34.39 5.52-1.03-3.63-2.07-7.24-3.15-10.85 9.76-11.19 23.37-18.09 37.23-22.83 17.51-6.15 36-9.74 52.61-18.29-5.58-3.66-11.82-6.3-18.35-7.65-13.83-2.93-28.02-1.43-42.01-1.18-78.02-.43-156.02 2.49-234.04 1.71-49.71.66-99.9-3.49-149.13 5.39-29.3 5.76-59.44 7.58-87.99 16.78-9.66 3.01-18.75 7.51-28.16 11.15-15.73 6.3-31.78 11.72-47.69 17.52v-17.51c9.91-5.51 20.13-10.47 30.41-15.26 5.16-2.46 10.54-4.5 15.47-7.45 22.04-7.82 44.99-12.56 67.96-16.77 18.6-3.3 37-7.68 55.67-10.61 23.95-3.94 48.32-2.82 72.49-3.05 56.67.21 113.45 2.51 170.02-2.01 9-.66 17.95-1.81 26.97-2.22 50.31-2.89 100.75 1.21 151.04-2.31 1.16-8.9 1.9-17.85 2.75-26.78 47.12 1.81 94-4.54 140.71-9.79 8.96-24.79 18.39-49.99 19.73-76.58 1.04-28.67.93-57.36.43-86.04-.18-8.3-.04-16.65-1.26-24.89-2.61-19.02-9.5-37.1-16.89-54.71-14.96-3.1-29.92-6.17-44.91-9.13 2.71 23.31 2.1 47.18-3.44 70.05-4.42 18.3-12.26 35.95-24 50.76-4.84 6.21-10.62 11.59-15.85 17.47-12.9 13.69-25.71 27.88-41.55 38.25-13.74 5.72-28.91 7.87-43.75 7.17-9.7-.33-19.11-3.63-28.85-3.38-8.01 1.03-15.94 2.61-23.95 3.69-19.46 2.82-39.96 4.2-58.82-2.48-19.78-7.34-39.34-15.25-58.8-23.38-16.49-6.66-32.51-14.49-49.4-20.11-18.94 18.84-38.36 37.62-61.14 51.81 10.51-14.98 25.81-25.68 37.1-40 6.98-8.68 11.67-19.42 11.81-30.68-12.81 4.94-25.85 9.23-39.19 12.49.18-4.84.37-9.68.59-14.51 7.91-4.57 15.81-9.17 23.82-13.56-9.63-1.63-19.37-2.52-29.09-3.38-2.01-.11-4.17-.47-6.02.55-6.75 3.26-13.37 6.81-20 10.33-7.25-5.59-14.46-11.23-21.73-16.79-4.59 1.23-9.44 1.86-13.64 4.22-14.93 8.17-29.73 16.61-44.81 24.51-2.65-5.42-5.11-10.95-7.96-16.27-3.13-4.87-.46-13.5 6.03-13.4 12.48.34 24.89 1.83 37.34 2.69 3.67-3.07 7.36-6.12 11.02-9.2-10.72-1.92-21.45-3.86-32.22-5.52-5.7-.85-11.47-2.1-17.24-1.2-21.67 3.05-42.75 9.13-63.83 14.83-3.12.75-5.63 3.39-9.02 2.93-6.31-.21-13.29.4-18.89-2.99-3.23 1.61-5.91 4.05-8.64 6.37-1.74 1.74-4.36 1.41-6.6 1.79-1.26-2.3-2.47-4.64-3.99-6.78-6.44 1.53-12.5 4.38-18.83 6.34-5.29 1.54-10.44 4.29-16.1 3.96-7.72-.36-15.44-.74-23.16-1.12 31.24-9.04 63.17-15.59 95.37-20.09 27.97-2.9 54.7-12.1 81.79-19.17-2.77-3.07-5.54-6.14-8.32-9.21-10.21-1.48-20.44-2.87-30.65-4.36-1.8-6.82-3.47-13.68-5.21-20.51 15.86 4.36 31.55 9.39 47.57 13.18 3.16.76 6.37 1.57 9.65 1.46 22.1-.41 44.06-3.25 65.85-6.78-13.97-6.04-28.02-12.34-40.28-21.5 19.11 1.45 38.27 2.7 57.45 2.47 4.37-18.8 8.96-37.88 18.2-54.97 5.67-8.56 11.65-16.92 17.43-25.42 5.19 5.94 10.05 12.15 15.04 18.26-8.14 10.45-16.45 20.77-24.08 31.6-.95 1.27-1.5 2.77-1.74 4.34-2.58 13.7-3.53 27.63-4.55 41.51 7.88-1.02 15.69-2.69 23.6-3.26 19.76 6.05 40.04 11.77 60.87 11.8-10.46 12.89-21.89 25.27-29.43 40.23 3.11 5.44 6.2 10.88 9.33 16.31 5.83-1.46 9.33-6.54 13.86-10.01 5.44-3.93 10.42-8.43 15.64-12.63 3.94 10.75 7.85 21.51 11.87 32.23 9.07-13.53 20.79-26.07 36.18-32.28.21 12.5-7.15 23.05-12.66 33.68-8.39 2.67-16.68 6.03-25.44 7.18-8.75-2.66-14.7-10.33-19.22-17.87-6.75 5.8-13.5 11.61-20.19 17.49 16.16 8.08 32.06 16.71 48.45 24.31 19.97 8.31 40.35 16.59 62 19.15 14.26 1.9 28.57-.35 42.83-1.11 25.8-1.91 51.67-4.36 76.92-10.24 3.93-1.16 8.34-1.36 11.82-3.68 23.96-20.43 46.02-44.77 57.13-74.71 2.92-8.98 6.74-17.73 8.09-27.13 3.5-22.08-1.22-44.4-7.17-65.63-10.69-37.61-1.76-77.16-8.4-115.29-2.45-13.56-10.98-25.41-21.8-33.65-5.44-4.28-11.69-7.28-17.8-10.45-18.85-9.61-38.41-17.94-58.74-23.89-3.94-1-7.86-2.76-11.99-2.37-29.6 2.25-58.72 8.23-87.97 12.94.45 9.8 1.03 19.6 1.41 29.4-9.04-9.48-18.03-19.01-27.1-28.46-21.68 22.01-44.92 43.86-73.93 55.73 14.26 1.57 28.5 3.25 42.72 5.11.54-4.04 1.05-8.08 1.64-12.1 18.34 16.79 24 43.78 19.91 67.58-6.47 12.3-19.86 19.09-32.86 22.35-2.96 1.09-5.94-.19-8.84-.8-17.09-4-34.52-6.3-51.85-8.98-3.28-.63-6.92-.53-9.71-2.63-6.56-5.48-13.25-10.85-19.23-16.97-5.6-7.2-12.03-13.68-18.2-20.39 10.53-7.74 21.32-15.17 32.65-21.7 7.89-4.58 16.02-8.73 24.06-13.03 4.5-2.27 7.42-6.54 10.95-9.98 11.2-11.46 23.69-22.51 39.07-27.85 4.05-1.3 7.86-3.21 11.57-5.29-3.35-4.59-6.21-9.53-8.21-14.85-.79 3-1.69 6.14-3.94 8.41-4.43 4.73-11.01 6.62-17.29 7.22-6 .49-11.77 3.81-17.87 2.44-3.7-.7-6.19-4.91-4.47-8.42 2.51-5.92 9.28-7.85 14.7-10.18 7.67-2.78 14.76-6.99 22.64-9.24 15.46-4.64 31.73-5.01 47.71-6.35-7.03-2.32-14.08-4.58-21.13-6.82m-72.23 93.41c-.87 17.26-4.53 34.47-11.75 50.22 16.87 5.74 35.5 10.23 53.05 4.78 10.77-4.07 19.95-11.22 29.49-17.48-.18-6.42-.38-12.83-.48-19.24-8.31-5.92-16.4-12.16-24.76-17.99-15.16-.66-30.37-.48-45.55-.29m470.93 166.85c-1.23 1.22-2.44 2.44-3.65 3.67 6.44 19.11 13.09 38.16 19.92 57.15 2.09-3.31 4.21-6.59 6.33-9.87 16.52-.72 33.05-1.16 49.57-1.86-1.18-4.06-2.39-8.11-3.53-12.17-10.42-4.5-21.08-8.49-31.12-13.82-13.13-6.65-25.49-14.66-37.52-23.1m-501.38 6.02c6.86 11.69 14.42 22.95 22.25 34.01 3.84.21 7.68.42 11.53.65-.1-2.33-.17-4.65-.22-6.97-1.8-.81-3.59-1.63-5.37-2.45 2.42-4.1 4.86-8.19 7.26-12.3-11.6-4.87-23.41-9.25-35.45-12.94m-35.22 26.35c-6.65 1.96-10.95 8.52-12.78 14.9 15.5-1.5 30.96-3.61 46.2-6.86 2.31-.41 3.96-2.21 5.74-3.57-7.16-3.89-14.35-7.71-21.53-11.56-5.89 2.33-11.74 4.76-17.63 7.09m505.67 10.53c.3 6.69.59 13.39 1.27 20.06.75 6.88 5.01 12.92 5.05 19.91 2.81 43.2-8.25 85.66-9.12 128.72 16.96.03 33.92.03 50.88 0 .09-18.87.34-37.77-1.17-56.6-.25-3.36-1.64-6.46-2.81-9.56-7.77-20.04-15.65-40.04-23.94-59.87-5.95-14.58-13.01-28.65-20.16-42.66m65.82 57.21c7.84 27.14 13.61 55.19 13.05 83.57 2.98 4.63 5.97 9.24 8.96 13.86 9.63-11.67 18.74-23.74 28.09-35.64 1.9-2.66 4.02-5.93 7.7-6.02 7.08-.17 12.53 5.11 18.54 8.06-.97 8.02-1.67 16.08-3.35 23.99-.42 1.78-.64 3.79-2.17 5.02-4.35 4.28-8.92 8.32-13.62 12.21 1.89 1.41 3.79 2.84 5.68 4.28-6.83 18.14-.68 37.33 1.29 55.75 14.87 2.98 29.91 5.1 45.02 6.39-1.99-13.19-4.63-26.26-6.82-39.42-8.93-51.46-17.29-103.18-31.53-153.51-23.07-2.76-46.17-5.23-69.25-7.93-.62 9.78-1.6 19.58-1.59 29.39m116.6-23.02c7.01 22.27 14.34 44.43 20.93 66.83 12.51 42.43 22.22 86.35 20.93 130.84 24.62 4.17 49.33 7.82 74.14 10.62.41-63.09.33-126.18.09-189.26-31.59-7.44-63.76-11.96-95.74-17.3-6.75-1.01-13.49-3.06-20.35-1.73m131 30.1c-.85 62.61-.57 125.24-.11 187.85 8.49-.22 16.98-.16 25.47-.17-2.26-61.41-14.28-122.11-14.61-183.64-3.57-1.39-7.15-2.74-10.75-4.04m-457.57 129.8c-3.18 3.08-4.97 7.31-4.85 11.75 2.31-.12 4.63-.28 6.95-.44.52-1.19 1.06-2.37 1.6-3.55 14.82 1.97 29.72 3.36 44.62 4.53 6.42-4.16 12.8-8.4 19.27-12.49 26.01.27 52.1 1.09 78.04-1.44-9.36-2.69-18.97-4.48-28.68-5.18-39.19-2.99-77.8 7.59-116.95 6.82m159.02 6.56c8.93 4.62 17.97 9 27.05 13.31.45-2.15.92-4.3 1.4-6.44 1.74-.43 3.51-.84 5.27-1.24.59-2.87 1.12-5.74 1.67-8.61-11.81.78-23.61 1.73-35.39 2.98m37.94 22.89c6.75-.53 13.5-1.02 20.26-1.48-.97-6.28-1.03-12.69-.29-19-5.97 7.46-12.69 14.31-19.97 20.48m-125.31-15.48c-2.93 5.33-5.86 10.65-8.87 15.93 9.93-.79 19.85-1.68 29.78-2.49-6.98-4.46-13.94-8.97-20.91-13.44m30.91 3.99c6.84 4.42 13.63 8.92 20.45 13.39.52-5.35 1.22-10.67 1.79-16.01-7.41.94-14.83 1.75-22.24 2.62m42.34 33.47c-54.28-.71-108.58.33-162.86-.77 5.83 23.85 18.61 45.87 36.22 62.95.79.95 1.96 1.37 3.15 1.61 9.36 2.03 18.98 2.21 28.52 2.17 15.64-.07 31.29-.4 46.94-.03 26.52.26 53.53.59 79.36-6.27 4.41-3.83 8.69-7.93 12.24-12.6 11.96-14.8 26.49-27.31 41.93-38.34 1.84-3.38 2.86-7.14 4.38-10.67-29.81-6.72-59.89 2.86-89.88 1.95z"/><path d="m726.75 259.68c8.36-5.31 16.66-10.71 25.02-16.03 12.94 1.26 26.02 1.54 38.77 4.25 5.11 1.15 10.41 2.22 14.85 5.17 8.8 5.63 14.42 14.68 21.43 22.19-2.3 2.91-4.68 5.76-7.01 8.65-6.89-8.3-13.72-16.63-20.46-25.05-24.09-3.65-48.49-1.26-72.6.82zm-.35 47.45c19.43-7.54 40.78-13.37 61.62-8.58-1.3 6.86-6.5 12.18-12.74 14.91 3.44.18 6.88.45 10.33.7 1.77 2.94 3.55 5.88 5.35 8.81 1.73-4.77 3.42-9.56 5.14-14.33 9.6 10.23 14.15 24.51 13.35 38.42-1.07 20.93-10.14 40.46-20.71 58.21-10.26-1.79-20.52-3.58-30.76-5.44-.61 3.82-1.19 7.64-1.8 11.46-2.9-4.19-5.74-8.42-8.58-12.64-15.59-2.83-31.24-7.34-44.59-16.13-8.75-5.76-16.34-13.53-21.07-22.93-2.53-5.3-1.16-11.53 1.56-16.47 2.67-4.91 5.83-9.54 8.82-14.25 7.02-4.68 14.3-9.01 21.18-13.92 4.21-2.75 7.95-6.4 12.9-7.82m-6.46 13.09c.7 5.7 2.16 11.26 3.02 16.93 2.56 16.04 2.75 32.38 1.34 48.54 17.66-.83 35.31-1.81 52.94-3.18 3.74-19.07 9.43-38.49 6.13-58.07-19.68-10.15-42.38-5.72-63.43-4.22zm80.01 96.31c20.6-.83 41.32 5.16 58.41 16.63 2.87 2.05 6.39 3.74 7.7 7.26 9.68 19.29 8.2 41.47 8.31 62.4-11.8 9.84-21.53 22.09-34.42 30.63-6.38 4.26-13.71 7.17-21.37 7.89.16-4.48.39-8.96.59-13.44 14.28-9.5 28.03-19.78 41.18-30.79-.08-14.54-.31-29.08-.54-43.62-9.24-11.86-23.53-18.39-37.82-21.88-4.94-1.38-10.08-1.96-15.03-3.26-3.67-2.95-5.72-7.39-7.01-11.82zm-190.13 40.67c1.53-10.23 3.48-20.39 5.25-30.57 15.95 4.7 32.49 8.39 47.02 16.8 6.09 3.52 11.67 7.95 16.3 13.26-15.93.47-31.87-3.41-45.98-10.76-7.46 3.89-15.13 7.38-22.59 11.27zm25.43 1.43c8.16 6.82 15.98 14.04 23.78 21.27-.58 6.82-.84 13.68-1.46 20.49-2.48 2.83-5.69 4.93-8.43 7.5-5.29-16.22-10.16-32.6-13.89-49.26zm40.52 7.17c14.77-2.88 29.62-5.48 44.6-7.02-14.71 8.45-29.72 18.56-47.29 19.01.89-4 1.81-7.99 2.69-11.99zm-380.5 4.99c3.98-.62 7.95-1.28 11.93-1.86-1.02.73-2.04 1.47-3.07 2.21 2.39 7.78 4.74 15.58 7.12 23.37-12.06 5.5-25.42 7.41-38.58 7.68 7.43-10.54 15.05-20.95 22.6-31.4zm39.66 31.16c.81-1.38 1.62-2.75 2.43-4.12 1.67-.01 3.35-.01 5.03-.01.8 1.39 1.59 2.79 2.39 4.18-.82 1.39-1.63 2.77-2.45 4.16-1.64 0-3.29 0-4.93.01-.82-1.41-1.65-2.82-2.47-4.22zm13.68-3.95c1.63-.01 3.27-.01 4.9 0 .84 1.39 1.66 2.78 2.49 4.18-.82 1.44-1.64 2.88-2.45 4.33-1.65-.02-3.29-.03-4.93-.04-.82-1.44-1.64-2.86-2.47-4.28.82-1.41 1.64-2.8 2.46-4.19zm138.9 57.08c1.52-4.91 7.16-7.81 12.09-7.14 3.4.37 4.64 4.07 7.41 5.57 2.48 1.27 2.07 4.48 2.8 6.76-1.05 1.66-1.97 3.42-3.26 4.91-2.74.79-5.42 1.7-8.03 2.86-6.71 1.16-13.29-6.48-11.01-12.96zm-44.68 6.03c1.61-.68 3.23-1.36 4.85-2.03 1.65.66 3.31 1.32 4.96 2 .65 1.64 1.31 3.29 1.98 4.95-.69 1.61-1.39 3.22-2.09 4.83-1.64.65-3.26 1.31-4.89 1.98-1.65-.68-3.29-1.36-4.94-2.03-.63-1.63-1.26-3.26-1.88-4.87.67-1.62 1.34-3.23 2.01-4.83zm-58.6.71c4.87-.3 9.74-.65 14.62-.9.01 6.33-.31 12.65-.38 18.98-.95-1.06-1.9-2.1-2.85-3.13-.72 1.26-1.44 2.54-2.15 3.82-1.76.47-3.52.95-5.27 1.44-1.76-.74-3.51-1.49-5.26-2.24-.51-1.35-1.02-2.69-1.52-4.03-1.05.89-2.1 1.78-3.14 2.68 1.95-5.55 3.89-11.11 5.95-16.62zm-145.73 40.83c37.73-19.31 80.01-31.46 122.67-29.51-24.15 13.33-51.94 16.72-78.54 22.23-17.76 4.11-32.09 16.57-44.13 29.66v-12.47c2.77.93 5.7 1.22 8.35-.23.08-1.42.18-2.84.27-4.25-2.68-1.87-5.82-1.68-8.62-.16zm260.17-23.54c3.87-2.96 9.76-2.82 13.65.02 2.73 1.98 2.19 5.7 2.99 8.62-1.5 4.23-3.15 8.4-4.63 12.64-8.11 4.36-19.58 2.4-25.29 10.81-5.28-2.22-10.55-4.46-15.85-6.65 9.14-6.33 18.14-12.85 27.5-18.85-.15-2.28-.41-5.02 1.63-6.59zm-31.87-.76c5.31-2.39 10.6 3.61 9.84 8.75-.5 5.29-8.01 8.93-11.93 4.72-4.42-3.66-3.6-11.55 2.09-13.47zm-134.45 48.58c1.76-3.71 6.37-2.87 9.58-2.03 2.62-1.11 5.96-1.85 8.22.41 3.82 3.45 5.51 10.93.92 14.42-3.21 1.04-6.26 2.65-9.53 3.46-7.63.07-11.91-9.9-9.19-16.26zm22.36 29.89c19.26-15.3 44.1-19.74 67.15-26.37.48 3.35.9 6.71 1.31 10.07-10.28 1.99-20.53 4.06-30.82 5.97-5.35.43-7.31 6.34-10.96 9.49-8.9.17-17.79.53-26.68.84zm73.71 19.12c4.19-6.71 8.49-13.35 12.84-19.95 2.18 11.48 4.12 23.01 6.02 34.55-6.27 1.08-12.54 2.12-18.81 3.19-1.62-4.74-3.32-9.45-4.86-14.21 1.24.88 2.48 1.78 3.71 2.69.14-2.12-.21-4.45 1.1-6.27zm23.35 6.1c7.28-10.79 17.97-19.02 29.9-24.1-8.56 9.59-18.78 17.68-29.9 24.1zm-111.79-9.97c.98-2.13 1.96-4.8 4.55-5.37 5.16-1.12 10.56 3.22 11.27 8.31.38 2.49-1.39 4.47-2.79 6.28.62.39 1.86 1.18 2.48 1.57-5.58.86-11.16 1.74-16.74 2.6-2.52-5.63-5.08-11.24-7.49-16.91 2.92 1.15 5.82 2.33 8.72 3.52zm-54.26 16.2c1.62-.67 3.25-1.33 4.87-1.98 1.61.64 3.23 1.3 4.84 1.95.69 1.64 1.38 3.28 2.05 4.93-.69 1.62-1.37 3.24-2.06 4.88-1.63.66-3.26 1.33-4.89 2-1.62-.67-3.25-1.34-4.87-2-.67-1.63-1.34-3.24-2.01-4.85.69-1.66 1.38-3.3 2.07-4.93zm22.23 18.31c1.78-.88 3.55-1.75 5.33-2.62 1.8.73 3.61 1.45 5.43 2.17.714 1.833 1.391 3.68 2.03 5.54-1.97 2.62-2.8 5.75-2.26 9.01-1.58.96-3.17 1.92-4.75 2.89-1.61-.87-3.22-1.73-4.82-2.59.33-3.31-.87-6.36-2.75-9.01.58-1.81 1.19-3.6 1.79-5.39z"/><g fill="#fefefe"><path d="m697.59 236.6c29.25-4.71 58.37-10.69 87.97-12.94 4.13-.39 8.05 1.37 11.99 2.37 20.33 5.95 39.89 14.28 58.74 23.89 6.11 3.17 12.36 6.17 17.8 10.45 10.82 8.24 19.35 20.09 21.8 33.65 6.64 38.13-2.29 77.68 8.4 115.29 5.95 21.23 10.67 43.55 7.17 65.63-1.35 9.4-5.17 18.15-8.09 27.13-11.11 29.94-33.17 54.28-57.13 74.71-3.48 2.32-7.89 2.52-11.82 3.68-25.25 5.88-51.12 8.33-76.92 10.24-14.26.76-28.57 3.01-42.83 1.11-21.65-2.56-42.03-10.84-62-19.15-16.39-7.6-32.29-16.23-48.45-24.31 6.69-5.88 13.44-11.69 20.19-17.49 4.52 7.54 10.47 15.21 19.22 17.87 8.76-1.15 17.05-4.51 25.44-7.18 5.51-10.63 12.87-21.18 12.66-33.68-15.39 6.21-27.11 18.75-36.18 32.28-4.02-10.72-7.93-21.48-11.87-32.23-5.22 4.2-10.2 8.7-15.64 12.63-4.53 3.47-8.03 8.55-13.86 10.01-3.13-5.43-6.22-10.87-9.33-16.31 7.54-14.96 18.97-27.34 29.43-40.23-20.83-.03-41.11-5.75-60.87-11.8-7.91.57-15.72 2.24-23.6 3.26 1.02-13.88 1.97-27.81 4.55-41.51.24-1.57.79-3.07 1.74-4.34 7.63-10.83 15.94-21.15 24.08-31.6-4.99-6.11-9.85-12.32-15.04-18.26 1.32-1.96 2.59-3.96 3.84-5.97 2.79 2.1 6.43 2 9.71 2.63 17.33 2.68 34.76 4.98 51.85 8.98 2.9.61 5.88 1.89 8.84.8 13-3.26 26.39-10.05 32.86-22.35 4.09-23.8-1.57-50.79-19.91-67.58-.59 4.02-1.1 8.06-1.64 12.1-14.22-1.86-28.46-3.54-42.72-5.11 29.01-11.87 52.25-33.72 73.93-55.73 9.07 9.45 18.06 18.98 27.1 28.46-.38-9.8-.96-19.6-1.41-29.4m29.16 23.08c24.11-2.08 48.51-4.47 72.6-.82 6.74 8.42 13.57 16.75 20.46 25.05 2.33-2.89 4.71-5.74 7.01-8.65-7.01-7.51-12.63-16.56-21.43-22.19-4.44-2.95-9.74-4.02-14.85-5.17-12.75-2.71-25.83-2.99-38.77-4.25-8.36 5.32-16.66 10.72-25.02 16.03m-.35 47.45c-4.95 1.42-8.69 5.07-12.9 7.82-6.88 4.91-14.16 9.24-21.18 13.92-2.99 4.71-6.15 9.34-8.82 14.25-2.72 4.94-4.09 11.17-1.56 16.47 4.73 9.4 12.32 17.17 21.07 22.93 13.35 8.79 29 13.3 44.59 16.13 2.84 4.22 5.68 8.45 8.58 12.64.61-3.82 1.19-7.64 1.8-11.46 10.24 1.86 20.5 3.65 30.76 5.44 10.57-17.75 19.64-37.28 20.71-58.21.8-13.91-3.75-28.19-13.35-38.42-1.72 4.77-3.41 9.56-5.14 14.33-1.8-2.93-3.58-5.87-5.35-8.81-3.45-.25-6.89-.52-10.33-.7 6.24-2.73 11.44-8.05 12.74-14.91-20.84-4.79-42.19 1.04-61.62 8.58m73.55 109.4c1.29 4.43 3.34 8.87 7.01 11.82 4.95 1.3 10.09 1.88 15.03 3.26 14.29 3.49 28.58 10.02 37.82 21.88.23 14.54.46 29.08.54 43.62-13.152 11.011-26.899 21.29-41.18 30.79-.2 4.48-.43 8.96-.59 13.44 7.66-.72 14.99-3.63 21.37-7.89 12.89-8.54 22.62-20.79 34.42-30.63-.11-20.93 1.37-43.11-8.31-62.4-1.31-3.52-4.83-5.21-7.7-7.26-17.09-11.47-37.81-17.46-58.41-16.63m-190.13 40.67c7.46-3.89 15.13-7.38 22.59-11.27 14.11 7.35 30.05 11.23 45.98 10.76-4.63-5.31-10.21-9.74-16.3-13.26-14.53-8.41-31.07-12.1-47.02-16.8-1.77 10.18-3.72 20.34-5.25 30.57m142.26 9.32c7.68-1.44 15.62-1.57 23.08-4.06 2.48-.87 5.05-1.91 6.83-3.93 6.46-6.93 9.39-16.16 13.63-24.45-15.14 9.94-29.79 20.64-43.54 32.44m-116.83-7.89c3.73 16.66 8.6 33.04 13.89 49.26 2.74-2.57 5.95-4.67 8.43-7.5.62-6.81.88-13.67 1.46-20.49-7.8-7.23-15.62-14.45-23.78-21.27m40.52 7.17c-.88 4-1.8 7.99-2.69 11.99 17.57-.45 32.58-10.56 47.29-19.01-14.98 1.54-29.83 4.14-44.6 7.02m30.76 31.94c22.13 2.62 44.57 3.54 66.75 1.12-3.29-2.73-6.9-5.1-10.82-6.81-15.23-6.67-32.23-5.14-48.43-5.59-2.51 3.75-5.02 7.5-7.5 11.28m26.93 17.67c11.12 9.13 25.54 13.19 39.71 14.1-9.5-11.56-25.36-15.25-39.71-14.1z"/><path d="m579.76 304.21c15.18-.19 30.39-.37 45.55.29 8.36 5.83 16.45 12.07 24.76 17.99.1 6.41.3 12.82.48 19.24-9.54 6.26-18.72 13.41-29.49 17.48-17.55 5.45-36.18.96-53.05-4.78 7.22-15.75 10.88-32.96 11.75-50.22zm140.18 16.01c21.05-1.5 43.75-5.93 63.43 4.22 3.3 19.58-2.39 39-6.13 58.07-17.63 1.37-35.28 2.35-52.94 3.18 1.41-16.16 1.22-32.5-1.34-48.54-.86-5.67-2.32-11.23-3.02-16.93zm-170.63 156.86c12.04 3.69 23.85 8.07 35.45 12.94-2.4 4.11-4.84 8.2-7.26 12.3 1.78.82 3.57 1.64 5.37 2.45.05 2.32.12 4.64.22 6.97-3.85-.23-7.69-.44-11.53-.65-7.83-11.06-15.39-22.32-22.25-34.01zm536.27 94.09c-.01-9.81.97-19.61 1.59-29.39 23.08 2.7 46.18 5.17 69.25 7.93 14.24 50.33 22.6 102.05 31.53 153.51 2.19 13.16 4.83 26.23 6.82 39.42-15.12-1.283-30.15-3.417-45.02-6.39-1.97-18.42-8.12-37.61-1.29-55.75-1.89-1.44-3.79-2.87-5.68-4.28 4.7-3.89 9.27-7.93 13.62-12.21 1.53-1.23 1.75-3.24 2.17-5.02 1.68-7.91 2.38-15.97 3.35-23.99-6.01-2.95-11.46-8.23-18.54-8.06-3.68.09-5.8 3.36-7.7 6.02-9.35 11.9-18.46 23.97-28.09 35.64-2.99-4.62-5.98-9.23-8.96-13.86.56-28.38-5.21-56.43-13.05-83.57zm116.6-23.02c6.86-1.33 13.6.72 20.35 1.73 31.98 5.34 64.15 9.86 95.74 17.3.24 63.08.32 126.17-.09 189.26-24.81-2.8-49.52-6.45-74.14-10.62 1.29-44.49-8.42-88.41-20.93-130.84-6.59-22.4-13.92-44.56-20.93-66.83zm131 30.1c3.6 1.3 7.18 2.65 10.75 4.04.33 61.53 12.35 122.23 14.61 183.64-8.49.01-16.98-.05-25.47.17-.46-62.61-.74-125.24.11-187.85zm-457.57 129.8c39.15.77 77.76-9.81 116.95-6.82 9.71.7 19.32 2.49 28.68 5.18-25.94 2.53-52.03 1.71-78.04 1.44-6.47 4.09-12.85 8.33-19.27 12.49-14.9-1.17-29.8-2.56-44.62-4.53-.54 1.18-1.08 2.36-1.6 3.55-2.32.16-4.64.32-6.95.44-.12-4.44 1.67-8.67 4.85-11.75zm159.02 6.56c11.78-1.25 23.58-2.2 35.39-2.98-.55 2.87-1.08 5.74-1.67 8.61-1.76.4-3.53.81-5.27 1.24-.48 2.14-.95 4.29-1.4 6.44-9.08-4.31-18.12-8.69-27.05-13.31zm37.94 22.89c7.28-6.17 14-13.02 19.97-20.48-.74 6.31-.68 12.72.29 19-6.76.46-13.51.95-20.26 1.48zm-125.31-15.48c6.97 4.47 13.93 8.98 20.91 13.44-9.93.81-19.85 1.7-29.78 2.49 3.01-5.28 5.94-10.6 8.87-15.93zm30.91 3.99c7.41-.87 14.83-1.68 22.24-2.62-.57 5.34-1.27 10.66-1.79 16.01-6.82-4.47-13.61-8.97-20.45-13.39zm-192.66 15.76c13.99-.25 28.18-1.75 42.01 1.18 6.53 1.35 12.77 3.99 18.35 7.65-16.61 8.55-35.1 12.14-52.61 18.29-13.86 4.74-27.47 11.64-37.23 22.83 1.08 3.61 2.12 7.22 3.15 10.85 11.75 1.47 23.43-1.52 34.39-5.52 13.53-4.78 27.16-10.96 41.83-10.43 3.03.33 6.67-.06 8.97 2.36 16.3 14.56 25.52 34.79 37.72 52.54 49.79 2.64 99.78-1.85 149.48 3.15-35.49 26.52-74.32 48.14-110.03 74.33h-683.04v-124.68c15.91-5.8 31.96-11.22 47.69-17.52 9.41-3.64 18.5-8.14 28.16-11.15 28.55-9.2 58.69-11.02 87.99-16.78 49.23-8.88 99.42-4.73 149.13-5.39 78.02.78 156.02-2.14 234.04-1.71z"/><path d="m1020.51 759.48c29.99.91 60.07-8.67 89.88-1.95-1.52 3.53-2.54 7.29-4.38 10.67-15.44 11.03-29.97 23.54-41.93 38.34-3.55 4.67-7.83 8.77-12.24 12.6-25.83 6.86-52.84 6.53-79.36 6.27-15.65-.37-31.3-.04-46.94.03-9.54.04-19.16-.14-28.52-2.17-1.19-.24-2.36-.66-3.15-1.61-17.61-17.08-30.39-39.1-36.22-62.95 54.28 1.1 108.58.06 162.86.77zm118.02.14c47 5.91 94.08 11.14 141.03 17.48 39.87 5.22 79.52 11.94 119.06 19.25 43.56 8.62 41.1 122.65 41.1 122.65h-463.92c19.86-12.97 39.9-25.67 59.39-39.21 7.4-5.23 15.15-10.08 21.74-16.36 13.7-12.8 23.84-28.78 36.81-42.25 10.22-10.84 22.95-19.1 32.46-30.63 6.19-9.34 8.59-20.5 12.33-30.93z"/></g></g></svg>