<svg xmlns="http://www.w3.org/2000/svg" width="128pt" height="128pt" viewBox="0 0 128 128"><path fill="#c42b28" d="M35.81 23.78c4.84-7.38 13.3-12.37 22.16-12.85 6.36-.33 13.08.2 18.77 3.31 4.25 2.33 9.23 3.02 13.25 5.79 4.16 2.85 8.46 6.12 10.05 11.13 2.85 4.78 3.98 10.37 3.62 15.9-.4 4.18 1.97 7.83 4.04 11.23 1.54 2.23-.36 4.55-1.5 6.43.83 4.58-.04 9.09-1.65 13.39-1.46 7.54-2.76 18.18-11.9 20 1.14 1.83 3.09 3.57 2.75 5.94-.43 1.52-1.32 2.84-2.09 4.2-.2 3.25-1.03 7.28-4.75 8.14-8.44 1.79-17.12.26-25.64-.04-4.2-.42-8.78-.35-12.44-2.73-3.2-2.95-4.66-7.27-7.25-10.66-6.44-.98-10.88-7.08-10.48-13.48-2.8-.51-6.04-.79-7.89-3.28-2.62-2.81-2.68-6.88-1.94-10.44-1.62-2.29-3.75-4.8-3.12-7.83.32-2.42 2.63-3.65 4.35-5.03-.47-2.92-1.12-5.86-2.78-8.36-1.31-1.98-1.43-5.02.51-6.65 1.58-1.76 4.07-1.1 6.13-1.03 1.77-.92 3.51-1.89 5.28-2.8-2.28-6.82.11-13.88 2.52-20.28m16.13-6.81c-4.04 1.13-7.14 4.13-10.14 6.9-3.07 2.69-2.76 7.13-4.1 10.7-1.75 4.08 1.93 8.71-.73 12.54-2.34 2.14-5.38 3.32-7.97 5.12-1.16-.13-3.48-.4-4.63-.53 1.97 1.24 4 2.4 6.08 3.46l.12 3.45c-1.02-1.15-2.04-2.31-3.07-3.45.56 2.06 1.17 4.11 1.82 6.15-.33 2.92-.13 5.86-.17 8.79-2.11.91-3.8-.77-5.55-1.67.89 1.17 1.72 2.38 2.74 3.45 1.98.98 4.3.41 6.42.4.56.75 1.13 1.49 1.69 2.24-1.08.9-2.15 1.8-3.22 2.72-.76-1.49-1.54-2.97-2.33-4.45-.76 3.06.39 5.81 2.16 8.25-1.49-.67-2.98-1.35-4.47-2.01.42 1.04.89 2.06 1.39 3.07 1.69 3.78 7.96 1.14 9.61 5.02.19 3.83.1 8.78 4.34 10.53 3.13.13 5.59-2.23 8.12-3.73 1.22 2.32 2.45 4.63 3.65 6.96-2.16-1.26-3.99-3.47-6.63-3.68.22 2.85 1.79 5.31 2.88 7.88.87.46 1.75.92 2.63 1.38l-.08 3.06c6.5 2.67 13.69 1.85 20.52 2.69 5.21-.11 11.04 1.4 15.72-1.54-.97-2.36-1.92-4.73-2.87-7.09 1.21.17 3.63.5 4.85.66-2.88-2.81-3.01-6.83-3.03-10.59 1.95-1.25 3.24-3.15 4.36-5.11.27 1.69.55 3.38.85 5.07 4.57-3.41 5.47-9.41 6.51-14.63.49-3.04 1.87-5.88 2.18-8.95.02-3.09-.38-6.17-.53-9.26.65-.11 1.95-.32 2.6-.42-1.66-1.73-3.28-3.49-4.89-5.25.19-.34.57-1.03.76-1.37-1.68-5.35.28-11.18-2.01-16.42-1.8-3.9-3.22-8.31-6.92-10.89-4.29-4.21-10.44-4.98-15.58-7.64-7.04-3.63-15.55-4.14-23.08-1.81z"/><g fill="#010000"><path d="M51.94 16.97c7.53-2.33 16.04-1.82 23.08 1.81 5.14 2.66 11.29 3.43 15.58 7.64 3.7 2.58 5.12 6.99 6.92 10.89 2.29 5.24.33 11.07 2.01 16.42-.19.34-.57 1.03-.76 1.37 1.61 1.76 3.23 3.52 4.89 5.25-.65.1-1.95.31-2.6.42.15 3.09.55 6.17.53 9.26-.31 3.07-1.69 5.91-2.18 8.95-1.04 5.22-1.94 11.22-6.51 14.63-.3-1.69-.58-3.38-.85-5.07-1.12 1.96-2.41 3.86-4.36 5.11.02 3.76.15 7.78 3.03 10.59-1.22-.16-3.64-.49-4.85-.66.95 2.36 1.9 4.73 2.87 7.09-4.68 2.94-10.51 1.43-15.72 1.54-6.83-.84-14.02-.02-20.52-2.69l.08-3.06c-.88-.46-1.76-.92-2.63-1.38-1.09-2.57-2.66-5.03-2.88-7.88 2.64.21 4.47 2.42 6.63 3.68-1.2-2.33-2.43-4.64-3.65-6.96-2.53 1.5-4.99 3.86-8.12 3.73-4.24-1.75-4.15-6.7-4.34-10.53-1.65-3.88-7.92-1.24-9.61-5.02-.5-1.01-.97-2.03-1.39-3.07 1.49.66 2.98 1.34 4.47 2.01-1.77-2.44-2.92-5.19-2.16-8.25.79 1.48 1.57 2.96 2.33 4.45 1.07-.92 2.14-1.82 3.22-2.72-.56-.75-1.13-1.49-1.69-2.24-2.12.01-4.44.58-6.42-.4-1.02-1.07-1.85-2.28-2.74-3.45 1.75.9 3.44 2.58 5.55 1.67.04-2.93-.16-5.87.17-8.79-.65-2.04-1.26-4.09-1.82-6.15 1.03 1.14 2.05 2.3 3.07 3.45l-.12-3.45a77.407 77.407 0 0 1-6.08-3.46c1.15.13 3.47.4 4.63.53 2.59-1.8 5.63-2.98 7.97-5.12 2.66-3.83-1.02-8.46.73-12.54 1.34-3.57 1.03-8.01 4.1-10.7 3-2.77 6.1-5.77 10.14-6.9m10.89 5.72c.16.51.5 1.54.67 2.05-.39.33-1.17.98-1.56 1.3 1.21.77 1.96 1.86 2.25 3.27.59-1.76 2.1-2.49 3.87-2.66-.74-.99-1.42-2.05-1.35-3.34-1.32-.03-2.61-.31-3.88-.62M43.06 45.06c-6.28 7.36-8.09 17.67-5.96 26.98 2.46-1.85 5.08-3.49 7.5-5.4 1.87-1.48 3.09-3.84 5.44-4.67 3.78-1.42 8.38-1.14 11.54 1.55.69.84 2.71 2.18 1.25 3.26-3.67-.33-7.25-1.37-10.96-1.38-.1 1.55-.21 3.11-.31 4.67 9.54 2.03 19.5 2.01 29.04 0-.14-1.57-.28-3.14-.41-4.7-3.91.13-7.72 1.04-11.58 1.58 1.77-6.53 11.23-7.48 15.81-3.48 2.93 3.63 7.09 5.83 10.69 8.68.9-5.37 1.31-10.97-.27-16.25-2.63-9.48-10.28-17.38-19.69-20.28-11.31-3.7-24.62.14-32.09 9.44m-3.55 26.48c-4.14 2.71-4.46 10.35.6 12.25 4.54 2.19 9.88-1.92 10.05-6.67.28-4.79.35-9.6 1.24-14.33-3.77 3.18-7.93 5.84-11.89 8.75m41.51-8.57c.65 4.96.37 10.01 1.13 14.95.56 4.34 5.52 7.85 9.73 5.94 4.93-1.66 5.03-9.1 1.19-11.96-3.95-3.06-8.25-5.66-12.05-8.93m-29.78 8.89c.02 1.44.03 2.87.05 4.31 9.46 3.11 20.12 3.11 29.57-.01v-4.29c-9.72 2.13-19.89 2.1-29.62-.01m-6.28 13.62c5.71 5.2 13.17 8.7 21 8.47 7.93.32 15.46-3.24 21.29-8.43a31.68 31.68 0 0 1-5.34-4.46c-7.56 9.89-24.07 9.88-31.66.03a37.138 37.138 0 0 1-5.29 4.39z"/><path d="M44.76 58.77c2.39-3.37 6.83-4.16 10.69-3.91-1.84 1.4-3.85 2.55-5.79 3.81-2.75 1.79-4.59 4.59-6.92 6.84.33-2.31.43-4.86 2.02-6.74zm32.03-3.91c3.78-.24 8.17.55 10.54 3.82 1.64 1.91 1.81 4.5 2.05 6.89-2.33-2.32-4.18-5.18-7-6.97-1.9-1.19-3.8-2.38-5.59-3.74z"/></g><path fill="#fcfcfc" d="M62.83 22.69c1.27.31 2.56.59 3.88.62-.07 1.29.61 2.35 1.35 3.34-1.77.17-3.28.9-3.87 2.66-.29-1.41-1.04-2.5-2.25-3.27.39-.32 1.17-.97 1.56-1.3-.17-.51-.51-1.54-.67-2.05zM51.24 71.86c9.73 2.11 19.9 2.14 29.62.01v4.29c-9.45 3.12-20.11 3.12-29.57.01-.02-1.44-.03-2.87-.05-4.31z"/><path fill="#f4a527" d="M43.06 45.06c7.47-9.3 20.78-13.14 32.09-9.44 9.41 2.9 17.06 10.8 19.69 20.28 1.58 5.28 1.17 10.88.27 16.25-3.6-2.85-7.76-5.05-10.69-8.68-4.58-4-14.04-3.05-15.81 3.48 3.86-.54 7.67-1.45 11.58-1.58.13 1.56.27 3.13.41 4.7-9.54 2.01-19.5 2.03-29.04 0 .1-1.56.21-3.12.31-4.67 3.71.01 7.29 1.05 10.96 1.38 1.46-1.08-.56-2.42-1.25-3.26-3.16-2.69-7.76-2.97-11.54-1.55-2.35.83-3.57 3.19-5.44 4.67-2.42 1.91-5.04 3.55-7.5 5.4-2.13-9.31-.32-19.62 5.96-26.98m1.7 13.71c-1.59 1.88-1.69 4.43-2.02 6.74 2.33-2.25 4.17-5.05 6.92-6.84 1.94-1.26 3.95-2.41 5.79-3.81-3.86-.25-8.3.54-10.69 3.91m32.03-3.91c1.79 1.36 3.69 2.55 5.59 3.74 2.82 1.79 4.67 4.65 7 6.97-.24-2.39-.41-4.98-2.05-6.89-2.37-3.27-6.76-4.06-10.54-3.82zM44.96 85.48c1.9-1.3 3.67-2.77 5.29-4.39 7.59 9.85 24.1 9.86 31.66-.03a31.68 31.68 0 0 0 5.34 4.46c-5.83 5.19-13.36 8.75-21.29 8.43-7.83.23-15.29-3.27-21-8.47z"/><path fill="#4393c7" d="M39.51 71.54c3.96-2.91 8.12-5.57 11.89-8.75-.89 4.73-.96 9.54-1.24 14.33-.17 4.75-5.51 8.86-10.05 6.67-5.06-1.9-4.74-9.54-.6-12.25zm41.51-8.57c3.8 3.27 8.1 5.87 12.05 8.93 3.84 2.86 3.74 10.3-1.19 11.96-4.21 1.91-9.17-1.6-9.73-5.94-.76-4.94-.48-9.99-1.13-14.95z"/></svg>