<svg xmlns="http://www.w3.org/2000/svg" width="756" height="595pt" viewBox="0 0 567 595"><g fill="#fff"><path d="M234.66 26.69c2.64-1.08 5.55-1.23 8.36-1.13 10.59 7.38 19.85 16.41 29.21 25.25 4.97 4.16 8.64 9.55 12.26 14.87 8.8 13.12 17.79 26.11 26.41 39.36 4.9 7.89 9.58 16.13 16.89 22.1-2.14 11.85-6.47 23.25-9.76 34.84-7.88 27.39-17.71 54.15-26.74 81.17-.67 1.8-1.37 4.02-3.42 4.65-7.35 2.98-14.42 6.6-21.78 9.55 7.48-16.22 15.32-32.26 22.93-48.42 1.53-3.7 5.15-8.16 1.85-11.93-2.56-4.22-9.85-3.22-11.32 1.42-8.74 18.59-17.47 37.18-26.41 55.67-1.76 2.93-.07 6.02 1.63 8.5-17.41 7.4-34.63 15.24-51.82 23.11 2.78-3.07 7.44-4.56 8.72-8.79 3.57-9.6 7.84-18.91 11.7-28.38 1.64-1.37 3.38-2.63 5.08-3.93-.43 4.07-2.47 9.61 1.44 12.59 2.1 2.28 6.17 2.17 8.52.4 3.07-2 1.84-5.99 2.57-9.04 7.81-49.61 15.81-99.19 23.64-148.8.31-2.72 1.63-5.74.12-8.31-3.7-7.89-8.2-15.36-12.3-23.03-6.66-12.67-14.12-24.89-21.27-37.29 1.14-1.49 2.24-3.03 3.49-4.43z"/><path d="M341.9 47.33c2.82.26 5.93.5 8.16 2.47 3.11 2.6 5.52 5.9 8.54 8.59 5.02 4.17 6.82 10.71 10.15 16.1 4.66 7.26 3.29 16.42 6.36 24.21 4.8 7.01 9.91 13.87 15.47 20.31.35 1.86-1.04 3.21-2 4.61-5.53 7.73-11.08 15.45-16.74 23.09-2.92 4.12-6.25 8.12-7.79 13.03-3.9 10.73-7.83 21.45-11.56 32.24-.2-1.82-.5-3.62-.73-5.43-.24-2.27.18-4.91-1.7-6.61-3.35-2.81-10.07-2.31-11.22 2.55-3.04 15.64-6.16 31.27-9.52 46.84-7.68 3.64-15.68 6.6-23.24 10.53 3.94-11.73 8.22-23.35 12.07-35.11 5.77-16.38 10.46-33.1 15.57-49.69 4.93-15.07 8.19-30.59 12.28-45.9 1.08-3.57.84-7.36.48-11.02-2.26-12.71-4.32-25.45-6.6-38.15 0-4.28 1.84-8.37 2.02-12.66zM157.15 70.92c2.21-.7 4.54-.8 6.84-.67 11.57.72 23.04 2.64 34.59 3.51 10.12 5.78 18.27 14.67 28.9 19.68 5.65 2.69 10.89 6.23 16.69 8.61 2.96 1.26 5.31-1.4 7.55-2.89-3.8 20.94-6.62 42.03-10.24 63-2.61 17.76-5.76 35.43-8.38 53.19-1.81 7.6-1.41 15.78-4.31 23.06-.6-3.44-.21-6.94-.02-10.4.9-7.97.67-16.01.89-24.02-.06-2.83.34-5.95-1.41-8.38-4.3-6.58-8.8-13.02-13.38-19.41-4.49-7.16-9.18-14.19-14-21.13-2.42-4.14-9.59-3.38-11.36.94-.44 2.18-.73 4.73.72 6.63 8.61 13.01 17.98 25.54 26.13 38.85.65 6.01-.19 12.17-.11 18.24-.16 3.48-1.21 6.82-2.55 10.01-3.22-4.23-5.93-8.91-10.09-12.33-10.04-9.98-20.97-19.03-30.43-29.58-5.54-6.42-11.99-12-17.41-18.53-8.85-11.98-17.08-24.41-25.69-36.56-4.83-6.45-9.03-13.4-12.47-20.67.02-5.26-1.02-10.91 1.49-15.78 1.63-3.57 2.95-7.55 6.22-10 4.03-3.17 7.13-7.95 12.38-9.22 6.53-1.9 12.95-4.16 19.45-6.15z"/></g><path fill="#131312" d="M235.03 13.47c3.96-.17 8.04-1.74 11.93-.3 3.56 1 6 3.93 8.91 6.01 5.75 4.9 11.91 9.34 17.14 14.82 5.19 5.5 11.93 9.53 16.07 16.01 5.72 8.51 11.89 16.72 17.4 25.38l1.14.39c5.32-11.23 10.37-22.59 15.38-33.96 1.03-3.34 5.02-3.53 7.94-3.54 2.06-5.19 8.35-6.04 13.08-4.4 4.94 1.94 10.81 2.32 14.56 6.5 6.11 6.25 13.32 11.84 17.1 19.93 2.47 4.58 5.26 9.01 7.39 13.77 1.58 6.06 2.07 12.38 3.62 18.46 1.74 3.89 4.74 7.05 7.8 9.96 3.81-4.21 8.34-7.66 12.53-11.47 2.04-2.39 5.98-2.31 8.35-.42 35.19 32.14 70.06 64.66 105.19 96.85 10.75 9.85 21.56 19.64 32.09 29.73l-.82.22c-1.42.36-2.81.76-4.21 1.17-1.31 2.36-2.64 4.7-3.98 7.04-6.29-5.1-11.9-10.96-18.01-16.25-6.72-6.6-14.07-12.53-20.57-19.35-4.55-5.18-10.35-9-15.3-13.76-25.55-23.53-51.12-47.03-76.59-70.64-.83-.99-1.74-1.14-2.72-.45-3 2.07-5.59 4.65-8.34 7.03 2.17 4.17 3.98 9.47.77 13.64-7.4 10.25-14.72 20.58-22.29 30.72-2.08 2.76-3.9 5.75-5 9.04-3.19 9.1-6.34 18.22-9.86 27.21-2.06 4.91-1.34 10.33-.83 15.47.16 1.64.37 3.27.57 4.91 2.46-1 4.92-2.01 7.37-3.03-1.74-1.24-3.73-2.26-5.01-4.02-.53-2.1-.31-4.29-.43-6.43 2.89-1.71 6.02-3.57 9.54-2.91 7.95.98 16.02.36 23.93 1.59 3.18.36 6.15 3.22 5.59 6.59-.04 3.67-3.39 5.79-6.38 7.08-63.98 28.3-127.88 56.77-191.79 85.23-13.36 5.4-26.27 11.81-39.53 17.43-2.53 1.05-5.81 1.58-8.02-.44-1.46-1.63-2.76-3.91-1.94-6.14 1.58-4.39 3.81-8.83 7.67-11.65 10.1-7.54 20.31-14.95 30.33-22.6 4.28-2.89 5.4-8.21 7.42-12.63 1.75-4.72 4.53-9.13 5.44-14.12-1.98-4.61-5.52-8.32-8.28-12.46-4.49-6.74-10.73-11.98-16.67-17.38-4.71-4.21-9.14-8.72-13.68-13.11-3.76 2.42-7.84 4.28-12 5.9-39.43 15.85-78.87 31.71-118.17 47.87 10.27 9.78 20.69 19.42 30.58 29.6 4.58 4.76 9.51 9.15 14.39 13.59 11.8 11.56 23.61 23.1 35.57 34.5 7.35 7.63 15.68 14.24 22.93 21.96 3.28 3.42 6.87 6.52 10.11 9.98 3.08 3.25 5.38 7.27 9.12 9.87 4.85 3.55 9.06 7.87 13.47 11.93 9.43-3.42 18.39-7.95 27.65-11.77 51.27-22.51 102.83-44.38 154.06-67 12.13-5.26 24.14-10.81 36.49-15.57 37.32-16.33 74.74-32.44 112.05-48.79 13.2-5.31 25.91-11.76 39.26-16.71.51 2.44.71 4.98 1.71 7.3 1.76 1.46 4.32.78 6.44.84.5 6.58-.37 13.12-1.26 19.61-.74 5.28-.01 10.59.64 15.83-1.52 17.9-3.55 35.77-4.88 53.71-.98 7.34-1.85 14.72-1.73 22.14-1.33 11.33-2.05 22.72-3.39 34.04.22 4.64-.82 10.2-5.22 12.66-25.6 12.91-51.45 25.31-77.12 38.07-16.49 8.22-32.99 16.43-49.51 24.59-2.74-2.71-5.69-5.81-5.22-9.99-.72-.04-1.44-.08-2.14-.08 11.31-6.43 23.36-11.42 34.83-17.56 9.39-4.85 19-9.26 28.31-14.27 3.53-1.38 7.04-2.85 10.41-4.61.03 1 .07 2.02.12 3.04 8.76-3.33 15.91-9.77 24.76-12.87 3.76-1.24 6.64-4.21 10.48-5.26 7.89-2.28 15.46-6.71 20.28-13.48 3.25-7.75 1.16-16.39 2.16-24.51 2.69-14.67 3.27-29.63 4.53-44.46 1.3-6.99.75-14.09.24-21.12.69.88 1.38 1.77 2.08 2.66-.95-8.23.5-16.41.57-24.63.03-6.54 1.97-13.13.24-19.61-.04-1.28-.05-2.55-.04-3.82l.16-3.27c-10.66 3.93-20.85 8.99-31.39 13.21-18.69 8.37-37.53 16.41-56.33 24.53-14.56 6.04-28.74 12.93-43.42 18.67-19.45 8.4-38.88 16.88-58.23 25.51-44.06 18.83-87.91 38.14-131.88 57.19-15.21 6.38-30.13 13.45-45.52 19.42a11.902 11.902 0 0 0-2.27 6.91c-.47 11.88 1.17 23.89-1.26 35.64-1.68 8.14 1.3 16.42-.58 24.54-2.61 11.8-1.74 23.94-2.19 35.92-1.04 13.81-1.11 27.68-1.84 41.52.05 3.71-.69 7.81 1.23 11.19.96 1.59 3 .79 4.41.46 3.82-1.83 7.52-3.92 11.31-5.82.79 3.04 1.96 5.96 3.4 8.76-2.19 1.46-4.36 3.14-5.1 5.8-5.4 2.93-10.93 5.68-16.5 8.26-3.48-.43-8.4-1.99-8.39-6.3-.21-3.42-1.86-6.63-4.42-8.89-46.46-46.22-92.71-92.65-139.09-138.96-2.75-2.33-3.01-6.49-2.06-9.74 2.03-6.49.63-13.35 1.39-20.01 1.35-25.1 3.22-50.16 4.49-75.26.95-20.28 2.35-40.53 3.44-60.81.29-3.4 3.02-6.02 5.97-7.38 44.37-17.59 88.45-35.95 132.82-53.51-4.85-8.02-13.44-13.05-18.46-20.98-8.02-11.88-16.59-23.37-24.57-35.27-3.55-4.69-6.7-9.67-9.42-14.89-1.68-3.3-4.28-6.29-4.69-10.1-.2-6.26-.07-12.58.73-18.79 3.22-6.65 5.32-14.53 11.64-19.01 4.93-3.72 8.72-9.47 15.07-10.88 8.55-2.81 17.24-5.15 25.81-7.88 8.68-.58 17.22 1.59 25.87 2.1 8.82 1.45 18.91-.35 26.19 5.97 3.75-8.49 6.59-17.43 11.33-25.46-1.3-3.04-4.22-5.59-4.17-9.07 1.09-5.09 4.92-8.92 7.64-13.19 2.09-3.4 6.46-3.96 10.08-4.43m-.37 13.22c-1.25 1.4-2.35 2.94-3.49 4.43 7.15 12.4 14.61 24.62 21.27 37.29 4.1 7.67 8.6 15.14 12.3 23.03 1.51 2.57.19 5.59-.12 8.31-7.83 49.61-15.83 99.19-23.64 148.8-.73 3.05.5 7.04-2.57 9.04-2.35 1.77-6.42 1.88-8.52-.4-3.91-2.98-1.87-8.52-1.44-12.59-1.7 1.3-3.44 2.56-5.08 3.93-3.86 9.47-8.13 18.78-11.7 28.38-1.28 4.23-5.94 5.72-8.72 8.79 17.19-7.87 34.41-15.71 51.82-23.11-1.7-2.48-3.39-5.57-1.63-8.5 8.94-18.49 17.67-37.08 26.41-55.67 1.47-4.64 8.76-5.64 11.32-1.42 3.3 3.77-.32 8.23-1.85 11.93-7.61 16.16-15.45 32.2-22.93 48.42 7.36-2.95 14.43-6.57 21.78-9.55 2.05-.63 2.75-2.85 3.42-4.65 9.03-27.02 18.86-53.78 26.74-81.17 3.29-11.59 7.62-22.99 9.76-34.84-7.31-5.97-11.99-14.21-16.89-22.1-8.62-13.25-17.61-26.24-26.41-39.36-3.62-5.32-7.29-10.71-12.26-14.87-9.36-8.84-18.62-17.87-29.21-25.25-2.81-.1-5.72.05-8.36 1.13M341.9 47.33c-.18 4.29-2.02 8.38-2.02 12.66 2.28 12.7 4.34 25.44 6.6 38.15.36 3.66.6 7.45-.48 11.02-4.09 15.31-7.35 30.83-12.28 45.9-5.11 16.59-9.8 33.31-15.57 49.69-3.85 11.76-8.13 23.38-12.07 35.11 7.56-3.93 15.56-6.89 23.24-10.53 3.36-15.57 6.48-31.2 9.52-46.84 1.15-4.86 7.87-5.36 11.22-2.55 1.88 1.7 1.46 4.34 1.7 6.61-3.29 11.9-5.07 24.18-7.67 36.26 3.13-1.29 6.22-2.65 9.31-4.02-1.26-4.99-.91-10.2-1.64-15.27-.58-3.88-.06-7.74.73-11.54 3.73-10.79 7.66-21.51 11.56-32.24 1.54-4.91 4.87-8.91 7.79-13.03 5.66-7.64 11.21-15.36 16.74-23.09.96-1.4 2.35-2.75 2-4.61-5.56-6.44-10.67-13.3-15.47-20.31-3.07-7.79-1.7-16.95-6.36-24.21-3.33-5.39-5.13-11.93-10.15-16.1-3.02-2.69-5.43-5.99-8.54-8.59-2.23-1.97-5.34-2.21-8.16-2.47m-112.89 5.79c-2.76 6.67-5.53 13.34-8.51 19.92 2.85 2.67 5.93 5.14 9.4 6.96 6.57 3.47 13.13 6.98 19.67 10.51-6.47-12.66-13.29-25.17-20.56-37.39m86.43 35.59c5.36 7.42 10.09 15.28 14.89 23.07.46 0 1.39.01 1.85.01.46-2.94 1.51-5.79 1.51-8.79.06-5.51-1.67-10.82-2.4-16.25-1.47-7.68-2.64-15.41-3.89-23.13-4.59 8.06-7.15 17.14-11.96 25.09M157.15 70.92c-6.5 1.99-12.92 4.25-19.45 6.15-5.25 1.27-8.35 6.05-12.38 9.22-3.27 2.45-4.59 6.43-6.22 10-2.51 4.87-1.47 10.52-1.49 15.78 3.44 7.27 7.64 14.22 12.47 20.67 8.61 12.15 16.84 24.58 25.69 36.56 5.42 6.53 11.87 12.11 17.41 18.53 9.46 10.55 20.39 19.6 30.43 29.58 4.16 3.42 6.87 8.1 10.09 12.33-.41 1.22 1.12 2.27 1.47 3.38 1.98-4.15.69-8.96 1.08-13.39-.08-6.07.76-12.23.11-18.24-8.15-13.31-17.52-25.84-26.13-38.85-1.45-1.9-1.16-4.45-.72-6.63 1.77-4.32 8.94-5.08 11.36-.94 4.82 6.94 9.51 13.97 14 21.13 4.58 6.39 9.08 12.83 13.38 19.41 1.75 2.43 1.35 5.55 1.41 8.38-.22 8.01.01 16.05-.89 24.02-.19 3.46-.58 6.96.02 10.4 2.9-7.28 2.5-15.46 4.31-23.06 2.62-17.76 5.77-35.43 8.38-53.19 3.62-20.97 6.44-42.06 10.24-63-2.24 1.49-4.59 4.15-7.55 2.89-5.8-2.38-11.04-5.92-16.69-8.61-10.63-5.01-18.78-13.9-28.9-19.68-11.55-.87-23.02-2.79-34.59-3.51-2.3-.13-4.63-.03-6.84.67M34.87 270.14c-.14 1.52-.3 3.04-.36 4.56-1.06.96-2.64 1.7-2.57 3.37-.47 4.62.44 9.25.15 13.88-.41 8.36-1.21 16.71-1.21 25.09.07 5.8-1.65 11.42-1.77 17.2-.08 4.3-.54 8.58-1.16 12.83-.73 4.96-.16 9.99-.76 14.97-.84 7.63-2.03 15.24-2.15 22.94-.26 7.69 1.03 15.36.57 23.06-.05 2.75-.49 5.57.09 8.3 1.15 2.86 4.24 4.07 6.86 5.22 12.34 11.3 23.73 23.58 35.82 35.13 6.39 6.91 12.99 13.64 19.72 20.23 1.28 1.22 2.72 2.25 4.21 3.2 1.24 2.73 3.74 4.66 5.78 6.79 3.36 2.92 6.28 6.34 9.89 8.97 3.74 5.56 9.27 9.49 13.68 14.46 5.95 5.65 11.36 11.88 17.63 17.18 4.95 5.75 10.36 11.14 16.06 16.15 1.43 1.62 2.96 3.13 4.43 4.72l-.05.97c4.04-8.94 1.95-18.93 2.63-28.35 1.28-3.37 1.83-6.88 1.38-10.48.89-2.77-.51-5.67.31-8.44 2.98-9.64.63-19.78 1.5-29.64.51-5.15-.01-10.29-.31-15.42-.36-5.09 1.54-9.95 1.7-15 .26-9.09-.11-18.21.73-27.28.52-6.12.5-12.29.24-18.42 0-3.04-2.39-5.22-3.82-7.68-.88.25-1.76.51-2.63.77-1.22-3.62-3.76-6.38-7.48-7.44-1.23-2.16-2.49-4.31-3.79-6.42-.93.93-1.85 1.86-2.77 2.8-2.16-2.09-4.23-4.29-6.53-6.24-14.3-13.68-28.32-27.7-42.8-41.19-5.65-6.36-12.3-11.71-18.17-17.86-8.41-8.61-17.24-16.77-26.04-24.98-6.59-5.71-11.69-13.08-19.01-17.95z"/><path fill="#e9e9e9" d="M229.01 53.12c7.27 12.22 14.09 24.73 20.56 37.39-6.54-3.53-13.1-7.04-19.67-10.51-3.47-1.82-6.55-4.29-9.4-6.96 2.98-6.58 5.75-13.25 8.51-19.92z"/><path fill="#fcfcfc" d="M315.44 88.71c4.81-7.95 7.37-17.03 11.96-25.09 1.25 7.72 2.42 15.45 3.89 23.13.73 5.43 2.46 10.74 2.4 16.25 0 3-1.05 5.85-1.51 8.79-.46 0-1.39-.01-1.85-.01-4.8-7.79-9.53-15.65-14.89-23.07z"/><path fill="#90c982" d="M410.45 105.17c.98-.69 1.89-.54 2.72.45 25.47 23.61 51.04 47.11 76.59 70.64 4.95 4.76 10.75 8.58 15.3 13.76 6.5 6.82 13.85 12.75 20.57 19.35 6.11 5.29 11.72 11.15 18.01 16.25 1.14 1.16 2.2 2.44 2.9 3.93-13.35 4.95-26.06 11.4-39.26 16.71-37.31 16.35-74.73 32.46-112.05 48.79-12.35 4.76-24.36 10.31-36.49 15.57-51.23 22.62-102.79 44.49-154.06 67-9.26 3.82-18.22 8.35-27.65 11.77-4.41-4.06-8.62-8.38-13.47-11.93-3.74-2.6-6.04-6.62-9.12-9.87-3.24-3.46-6.83-6.56-10.11-9.98-7.25-7.72-15.58-14.33-22.93-21.96-11.96-11.4-23.77-22.94-35.57-34.5-4.88-4.44-9.81-8.83-14.39-13.59-9.89-10.18-20.31-19.82-30.58-29.6 39.3-16.16 78.74-32.02 118.17-47.87 4.16-1.62 8.24-3.48 12-5.9 4.54 4.39 8.97 8.9 13.68 13.11 5.94 5.4 12.18 10.64 16.67 17.38 2.76 4.14 6.3 7.85 8.28 12.46-.91 4.99-3.69 9.4-5.44 14.12-2.02 4.42-3.14 9.74-7.42 12.63-10.02 7.65-20.23 15.06-30.33 22.6-3.86 2.82-6.09 7.26-7.67 11.65-.82 2.23.48 4.51 1.94 6.14 2.21 2.02 5.49 1.49 8.02.44 13.26-5.62 26.17-12.03 39.53-17.43 63.91-28.46 127.81-56.93 191.79-85.23 2.99-1.29 6.34-3.41 6.38-7.08.56-3.37-2.41-6.23-5.59-6.59-7.91-1.23-15.98-.61-23.93-1.59-3.52-.66-6.65 1.2-9.54 2.91-.29-1.67-.71-3.3-1.1-4.94-1.03 4.42-1.52 8.97-1.4 13.51-.51-5.14-1.23-10.56.83-15.47 3.52-8.99 6.67-18.11 9.86-27.21 1.1-3.29 2.92-6.28 5-9.04 7.57-10.14 14.89-20.47 22.29-30.72 3.21-4.17 1.4-9.47-.77-13.64 2.75-2.38 5.34-4.96 8.34-7.03m-4.31 7.14c0 3.55 1.32 7.05.68 10.61-.4 2.34-1.14 4.62-1.98 6.83-.92.41-2.07.43-2.63 1.38-2.68 3.32-5.16 6.84-6.95 10.73-1.45 3.57-6.85 5.32-5.38 9.81-5.26 3.65-8.38 9.45-11.47 14.89-2.93 5.02-3 11.06-5.63 16.2-1.96 3.93-3.84 7.91-4.93 12.18 10.67-1.61 21.34.69 32.03.46 5.09.39 11.71 5.29 9.41 11.01-2.68 6.94-10.45 9.06-16.48 12.15-7.71 2.8-14.54 7.6-22.47 9.83-8.6 3.44-16.94 7.53-25.38 11.31-4.03.9-7.83 2.37-11.13 4.88-9.49 4.48-19.07 8.79-28.84 12.61-3.68 1.84-6.94 4.43-10.73 6.05-4.6 1.9-9.37 3.32-14.1 4.85-6.3 2.36-12.42 5.19-18.23 8.58-9.63 3.69-18.93 8.17-28 13.03-7.84 2.39-15.32 5.78-22.6 9.51a40.139 40.139 0 0 1-17.88 6.02c-.71.96-1.42 1.93-2.13 2.9-.95.15-1.9.3-2.85.46l-.15 1.76c-9.01-.39-14.89 8.99-23.92 8.18-3.7-.72-7.02-3.1-9.37-5.98-.81-2.73-.22-5.93 2.02-7.81 2.55-2.36 2.98-6.02 4.95-8.75 2.51-2.25 5.61-3.68 8.34-5.62 6.37-4.19 11.46-9.96 17.49-14.57 2.86-2.23 7.15-2.56 8.93-6.06 4.39-7.05 6.71-15.11 10.4-22.52-6.3-5.75-9.77-13.75-15.22-20.19-2.27-2.95-6.62-3.05-8.81-6.07-3.09-3.79-5.88-8.55-10.91-9.93-3.2-.98-6.16 1.22-9.26 1.69-8.13.96-15.32 5.19-22.72 8.38-4.24 2.26-9.11 2.72-13.46 4.66-9.56 5.32-20.38 7.76-30.07 12.82-3.88 2.26-9.63 1.07-12.11 5.41-5.98 1.23-11.23 4.51-16.96 6.44-6.67 1.97-13.77 3.97-19.11 8.62.13.41.38 1.24.51 1.65 7.02 9 16.08 16.05 23.87 24.35 1.93 2.08 4.71 3.17 6.56 5.34 5.11 6.94 12.65 11.49 18.37 17.87 9.82 8.29 17.88 18.36 27.36 27.01.19-.61.56-1.82.75-2.43 1.49 3.07 2.86 6.47 5.85 8.41 2.38 1.55 4.49 3.47 6.08 5.85 3.28 4.67 8.26 7.72 11.93 12.05 2.45 2.92 5.26 5.48 7.95 8.18 2 1.97 3.18 4.88 5.89 6.05 1.81 1.06 4.08 1.63 5.3 3.47 1.85 2.51 3.46 5.46 6.44 6.82 4.15 2.51 8.95.31 13.1-.99.11-.65.23-1.31.34-1.95 6.87-1.1 12.23-5.93 18.8-7.85 5.08-1.58 9.76-4.2 14.89-5.62 4.35-1.28 7.68-4.52 11.68-6.47 3.19-1.34 6.53-2.31 9.53-4.06 2.97-1.91 6.58-1.78 9.9-2.53-.32-.63-.64-1.26-.96-1.88 8.08.67 14.54-4.89 21.49-8.02 4.75-2 9.05-5.1 14.15-6.17 9.16-2.22 17.13-7.43 25.71-11.09 7.26-3.89 15.45-5.57 22.82-9.14 5.71-5.13 13.46-6.46 20.15-9.84 4.26-2.19 8.79-3.74 13.46-4.79 3.52-.6 4.21-5.36 7.82-5.79 3.2-.73 6.46-1.31 9.5-2.6 7.15-2.98 14.73-4.92 21.56-8.64 9.92-5.35 20.44-9.43 30.83-13.72 4.44-.61 8.21-2.9 11.89-5.31 6.91-2.67 14.02-5.18 20.12-9.48 2.32-2.07 5.66-1.43 8.49-2.1 4.65-.41 6.17-6.3 10.75-6.82 6.87-1.02 13-4.47 19.4-6.95 3.61-1.52 7.53-2.22 11.01-4.07 6.04-3.56 13.29-5.3 17.92-10.93-1.6-2.27-3.55-4.27-5.83-5.85-4.28-2.98-7.3-7.32-11.24-10.68-4.88-4.16-9.46-8.68-14.6-12.52-2.85-2.1-4.81-5.09-7.07-7.75-2.48-2.92-5.71-5.02-8.49-7.62-7.38-7.63-16.17-13.75-23.22-21.72-2.97-3.63-7.24-5.62-11.23-7.84-3.94-2.16-4.58-7.31-8.17-9.82-2.29-1.68-4.77-3.1-6.84-5.06-3.44-3.24-7.58-5.73-10.56-9.45-2.09-2.61-4.61-4.82-7.14-6.98-3.22-2.78-5.34-6.66-8.79-9.2-2.99-2.33-7.28-1.74-10.42-.06z"/><path fill="#70cb56" d="M406.14 112.31c3.14-1.68 7.43-2.27 10.42.06 3.45 2.54 5.57 6.42 8.79 9.2 2.53 2.16 5.05 4.37 7.14 6.98 2.98 3.72 7.12 6.21 10.56 9.45 2.07 1.96 4.55 3.38 6.84 5.06 3.59 2.51 4.23 7.66 8.17 9.82 3.99 2.22 8.26 4.21 11.23 7.84 7.05 7.97 15.84 14.09 23.22 21.72 2.78 2.6 6.01 4.7 8.49 7.62 2.26 2.66 4.22 5.65 7.07 7.75 5.14 3.84 9.72 8.36 14.6 12.52 3.94 3.36 6.96 7.7 11.24 10.68 2.28 1.58 4.23 3.58 5.83 5.85-4.63 5.63-11.88 7.37-17.92 10.93-3.48 1.85-7.4 2.55-11.01 4.07-6.4 2.48-12.53 5.93-19.4 6.95-4.58.52-6.1 6.41-10.75 6.82-2.83.67-6.17.03-8.49 2.1-6.1 4.3-13.21 6.81-20.12 9.48-3.68 2.41-7.45 4.7-11.89 5.31-10.39 4.29-20.91 8.37-30.83 13.72-6.83 3.72-14.41 5.66-21.56 8.64-3.04 1.29-6.3 1.87-9.5 2.6-3.61.43-4.3 5.19-7.82 5.79-4.67 1.05-9.2 2.6-13.46 4.79-6.69 3.38-14.44 4.71-20.15 9.84-7.37 3.57-15.56 5.25-22.82 9.14-8.58 3.66-16.55 8.87-25.71 11.09-5.1 1.07-9.4 4.17-14.15 6.17-6.95 3.13-13.41 8.69-21.49 8.02.32.62.64 1.25.96 1.88-3.32.75-6.93.62-9.9 2.53-3 1.75-6.34 2.72-9.53 4.06-4 1.95-7.33 5.19-11.68 6.47-5.13 1.42-9.81 4.04-14.89 5.62-6.57 1.92-11.93 6.75-18.8 7.85-.11.64-.23 1.3-.34 1.95-4.15 1.3-8.95 3.5-13.1.99-2.98-1.36-4.59-4.31-6.44-6.82-1.22-1.84-3.49-2.41-5.3-3.47-2.71-1.17-3.89-4.08-5.89-6.05-2.69-2.7-5.5-5.26-7.95-8.18-3.67-4.33-8.65-7.38-11.93-12.05-1.59-2.38-3.7-4.3-6.08-5.85-2.99-1.94-4.36-5.34-5.85-8.41-.19.61-.56 1.82-.75 2.43-9.48-8.65-17.54-18.72-27.36-27.01-5.72-6.38-13.26-10.93-18.37-17.87-1.85-2.17-4.63-3.26-6.56-5.34-7.79-8.3-16.85-15.35-23.87-24.35-.13-.41-.38-1.24-.51-1.65 5.34-4.65 12.44-6.65 19.11-8.62 5.73-1.93 10.98-5.21 16.96-6.44 2.48-4.34 8.23-3.15 12.11-5.41 9.69-5.06 20.51-7.5 30.07-12.82 4.35-1.94 9.22-2.4 13.46-4.66 7.4-3.19 14.59-7.42 22.72-8.38 3.1-.47 6.06-2.67 9.26-1.69 5.03 1.38 7.82 6.14 10.91 9.93 2.19 3.02 6.54 3.12 8.81 6.07 5.45 6.44 8.92 14.44 15.22 20.19-3.69 7.41-6.01 15.47-10.4 22.52-1.78 3.5-6.07 3.83-8.93 6.06-6.03 4.61-11.12 10.38-17.49 14.57-2.73 1.94-5.83 3.37-8.34 5.62-1.97 2.73-2.4 6.39-4.95 8.75-2.24 1.88-2.83 5.08-2.02 7.81 2.35 2.88 5.67 5.26 9.37 5.98 9.03.81 14.91-8.57 23.92-8.18l.15-1.76c.95-.16 1.9-.31 2.85-.46.71-.97 1.42-1.94 2.13-2.9 6.34-.55 12.5-2.63 17.88-6.02 7.28-3.73 14.76-7.12 22.6-9.51 9.07-4.86 18.37-9.34 28-13.03 5.81-3.39 11.93-6.22 18.23-8.58 4.73-1.53 9.5-2.95 14.1-4.85 3.79-1.62 7.05-4.21 10.73-6.05 9.77-3.82 19.35-8.13 28.84-12.61 3.3-2.51 7.1-3.98 11.13-4.88 8.44-3.78 16.78-7.87 25.38-11.31 7.93-2.23 14.76-7.03 22.47-9.83 6.03-3.09 13.8-5.21 16.48-12.15 2.3-5.72-4.32-10.62-9.41-11.01-10.69.23-21.36-2.07-32.03-.46 1.09-4.27 2.97-8.25 4.93-12.18 2.63-5.14 2.7-11.18 5.63-16.2 3.09-5.44 6.21-11.24 11.47-14.89-1.47-4.49 3.93-6.24 5.38-9.81 1.79-3.89 4.27-7.41 6.95-10.73.56-.95 1.71-.97 2.63-1.38.84-2.21 1.58-4.49 1.98-6.83.64-3.56-.68-7.06-.68-10.61z"/><path fill="#fafafa" d="M344.09 222.81c2.6-12.08 4.38-24.36 7.67-36.26.23 1.81.53 3.61.73 5.43-.79 3.8-1.31 7.66-.73 11.54.73 5.07.38 10.28 1.64 15.27-3.09 1.37-6.18 2.73-9.31 4.02z"/><path fill="#a1c99b" d="M364.9 208.28c-.12-4.54.37-9.09 1.4-13.51.39 1.64.81 3.27 1.1 4.94.12 2.14-.1 4.33.43 6.43 1.28 1.76 3.27 2.78 5.01 4.02-2.45 1.02-4.91 2.03-7.37 3.03-.2-1.64-.41-3.27-.57-4.91zM213.7 229.74c1.34-3.19 2.39-6.53 2.55-10.01-.39 4.43.9 9.24-1.08 13.39-.35-1.11-1.88-2.16-1.47-3.38z"/><path fill="#070708" d="M547.62 218.58c1.4-.41 2.79-.81 4.21-1.17 2.55.34 5.07 2.28 6.45 4.47.61 3.08 1.29 6.14 2.24 9.14-.42 2.2-1.85 3.99-2.78 5.98-1.35 12.03-2.31 24.11-3.67 36.13-.65-5.24-1.38-10.55-.64-15.83.89-6.49 1.76-13.03 1.26-19.61-2.12-.06-4.68.62-6.44-.84-1-2.32-1.2-4.86-1.71-7.3-.7-1.49-1.76-2.77-2.9-3.93 1.34-2.34 2.67-4.68 3.98-7.04z"/><path fill="#728ccc" d="M512.6 257.71c10.54-4.22 20.73-9.28 31.39-13.21l-.16 3.27c-.8 1.77-1.77 3.45-2.68 5.17-2.67-.95-5.63-1.72-8.28-.24-7.01 2.16-13.33 7.3-20.97 6.7.1.56.2 1.13.31 1.7-6.07 3.13-12.72 4.98-18.64 8.42-4.63 2.66-10.42 2.59-14.69 5.95-4.32 3.32-9.71 4.57-14.53 6.95-4.32 2.1-8.54 4.54-13.27 5.61-3.28.89-7.28 1-9.3 4.19-6 3.42-12.51 5.75-19.12 7.66-7.91 2.54-14.84 7.31-22.62 10.16-6.94 2.54-13.27 6.5-20.39 8.59-5.54 1.63-10.3 4.94-15.35 7.6-12.85 5.45-26.01 10.18-38.6 16.21-7.61 2.94-14.67 7.15-22.47 9.61-5.38 1.63-9.94 5.05-15.21 6.93-3.77 1.37-7.4 3.08-10.98 4.89-14.99 6.88-30.32 12.99-45.61 19.15-3.12 1.16-6.68 1.5-9.29 3.74-3.15 2.71-7.15 3.97-10.97 5.42-5.91 2.17-11.15 5.96-17.32 7.47-4.36 1.13-9 2.58-11.93 6.25-1.83 1.84-1.73 4.57-1.69 6.98.58 11.22-.46 22.44-1.26 33.63-.62-.14-1.85-.42-2.46-.56.11-14.31 1.84-28.62.71-42.92 15.39-5.97 30.31-13.04 45.52-19.42 43.97-19.05 87.82-38.36 131.88-57.19 19.35-8.63 38.78-17.11 58.23-25.51 14.68-5.74 28.86-12.63 43.42-18.67 18.8-8.12 37.64-16.16 56.33-24.53z"/><path fill="#587fe4" d="M541.15 252.94c.91-1.72 1.88-3.4 2.68-5.17-.01 1.27 0 2.54.04 3.82-.2 1.56-.46 3.11-.67 4.67-.13-.87-.39-2.6-.53-3.46-1.17 1.59-2.64 3.14-2.99 5.16-1.26 8.6-.91 17.33-1.26 25.97-3.18 11.99-2.37 24.55-4.68 36.69-1.26 6.06-1.4 12.25-1.75 18.41-.92 10.02 0 20.11-1.23 30.12-.52-.1-1.05-.19-1.56-.28-.19 4.93-.61 9.86-1.35 14.75-7.81 4.61-16.64 7.37-23.96 12.8-2.69 1.83-5.84 2.72-8.78 4.03-3.29 1.42-6.15 3.65-9.41 5.14-3.81 1.8-7.99 2.65-11.75 4.56-2.69 1.3-4.2 4-5.95 6.29-9.31 5.01-18.92 9.42-28.31 14.27-11.47 6.14-23.52 11.13-34.83 17.56-1.17.26-2.34.53-3.49.85-5.45 1.12-10.47 3.6-15.83 5.03-5.01 1.43-10.39 3.8-12.26 9.11-.5.21-1.49.65-1.99.86-9.24-.38-16.33 6.14-24.7 8.81-2.98 1.05-5.56 2.88-8.18 4.58-2.54 1.67-5.57 2.38-8.18 3.92-5.71 4.27-12.99 5.76-18.39 10.57.75-.05 2.26-.16 3.01-.22-14.19 6.77-28.22 13.89-42.67 20.09-4.04.05-8.22.33-11.79 2.45-6.43 3.63-13.52 5.8-20.22 8.84.55 1.12 1.13 2.23 1.74 3.33-1.19.56-2.39 1.1-3.6 1.63-3.57.03-7.3-.05-10.54 1.68-7.51 3.85-15.55 6.65-22.63 11.3-5.84 3.9-12.97 4.86-19.14 8.06-3.1 1.56-6.16 3.19-9.29 4.68-2.29-9.46-.75-19.23-.74-28.83.72-16.99-.17-34.02 1.19-50.98.24-9.06.66-18.19-.65-27.19v-.89c.61.14 1.84.42 2.46.56.8-11.19 1.84-22.41 1.26-33.63-.04-2.41-.14-5.14 1.69-6.98 2.93-3.67 7.57-5.12 11.93-6.25 6.17-1.51 11.41-5.3 17.32-7.47 3.82-1.45 7.82-2.71 10.97-5.42 2.61-2.24 6.17-2.58 9.29-3.74 15.29-6.16 30.62-12.27 45.61-19.15 3.58-1.81 7.21-3.52 10.98-4.89 5.27-1.88 9.83-5.3 15.21-6.93 7.8-2.46 14.86-6.67 22.47-9.61 12.59-6.03 25.75-10.76 38.6-16.21 5.05-2.66 9.81-5.97 15.35-7.6 7.12-2.09 13.45-6.05 20.39-8.59 7.78-2.85 14.71-7.62 22.62-10.16 6.61-1.91 13.12-4.24 19.12-7.66 2.02-3.19 6.02-3.3 9.3-4.19 4.73-1.07 8.95-3.51 13.27-5.61 4.82-2.38 10.21-3.63 14.53-6.95 4.27-3.36 10.06-3.29 14.69-5.95 5.92-3.44 12.57-5.29 18.64-8.42-.11-.57-.21-1.14-.31-1.7 7.64.6 13.96-4.54 20.97-6.7 2.65-1.48 5.61-.71 8.28.24m-117.88 60.38c-3.88 3.14-7.35 7.52-7.69 12.68-.22 2.47 1.26 5.29 3.93 5.57 3.97.69 8.1 1.09 11.62 3.25l-.62.5c-6.22-.68-12.29 1.56-18.48.89.98-3.05 2.36-5.99 2.94-9.16-.66-2.73-3.25-5.04-5.95-5.69-3.99.06-7.9 1.48-11.4 3.33-4.11 2.23-5.63 6.93-8.56 10.28-1.44.83-3.06 1.27-4.6 1.86-.25-1.69-2.71-1.23-3.9-1.83-1 .45-2.01.87-2.96 1.43-2.03 6.69.26 13.66-.59 20.44-1.02 3.69-5.76 2.85-8.68 2.36-.03-.51-.1-1.52-.13-2.03 1.35-1.15 2.7-2.31 4.06-3.44-1.8-4.28-2.24-9.19-5.3-12.86-2.8 1.38-5.32 3.25-7.42 5.55-2.1-.08-4.18-.18-6.27-.29a105.93 105.93 0 0 1-8.54 7.59c-3.6 2.8-6.31 6.5-9.26 9.93-1.8-1.68-3.64-3.33-5.5-4.94-2.89 1.79-5.28 4.22-7.65 6.62-2.17 2.25-5.44 3.09-7.53 5.4-1.9 3.31-3.09 6.98-4.87 10.37-1.61-1.39-3.19-2.8-4.76-4.23 2.33-3.9 5.1-8.36 2.69-12.92-1.95.37-3.9.76-5.85 1.14 1.45.52 2.91 1 4.34 1.6-1.48.36-2.98.69-4.39 1.27-1.04 1.26-1.23 2.97-1.76 4.47.47.37 1.42 1.09 1.89 1.46-.2.13-.61.4-.82.54-.47 2.73-1.74 5.22-3.33 7.47-1.76 2.47-3.29 5.35-6.07 6.85 2-.83 1.84-3.3 2.43-5.04-.58.13-1.75.38-2.34.5-2.4-1.96-4.57-4.17-6.61-6.49l.04 1.86c-1.92-.13-4.85.1-5 2.57l.16-1.58c1.31-1.41 2.58-2.86 3.8-4.34-1.72.56-3.64.82-5.09 1.97-1.68 2.49-2.28 5.56-4.05 8.01-1.19 1.78-2.81 3.3-3.62 5.3-.37 2 .25 3.99.56 5.96 2.09.95 4.3 1.76 6.09 3.25.81 4.3.09 8.76 1.12 13.05.05 1.33 1.1 2.12 2.24 2.6l3.81-.32c.63-.01 1.89-.05 2.52-.07 1.21-5.35 1.33-10.86.59-16.28.04-2.21-1.06-5.45 1.42-6.7 3-1.81 5.87-3.89 7.97-6.74-.06 5.23-.41 10.48 0 15.71-.14 1.79 1.53 2.63 2.67 3.67 1.6-.11 3.21-.19 4.82-.28-.04.46-.12 1.39-.17 1.85 2.38-2.66 4.71-5.44 6.18-8.71 1.18.67 2.36 1.35 3.54 2.03 4.71 1.45 9.13-1.5 13.25-3.4 3.41-1.53 4.78-5.24 7.25-7.79 3.6-1.08 7.61-.21 11.04-1.94 3.22-1.68 6.47-3.41 9.33-5.67 2.58-2.57 3.42-6.33 5.72-9.12 3.31.1 6.63 1.84 9.93.83 3.04-1.52 5.33-4.25 8.56-5.44 2.35-1.19 5.31-1.79 6.88-4.08.86-2.54.91-5.24 1.24-7.87 4.83.48 9.69 2.08 14.56 1.25 4.77-2.94 8.58-7.27 13.22-10.41 5.41-1.57 11.34-1 16.51-3.52 6.8-2.8 9.75-11.55 7.35-18.23-.44-2.09-1.94-4.27-.97-6.4.73-2.25 1.9-4.4 2.15-6.78.27-2.76-1.69-4.93-3.09-7.07-5.47 1.6-10.14 4.97-14.6 8.4m47.39 49.35c-3.22 1.94-3.97 5.83-4.95 9.16-1.15-2.52-2.06-5.5-4.66-6.89-2.15-1.25-4.92-2.52-7.31-1.15-3.34 1.67-6.74 3.25-9.94 5.16-2.05 2.49-3.37 5.51-5.29 8.11-1.07-1.81-2.01-3.7-3.36-5.31-2.83-1.82-7.08.41-7.7 3.6-1.11 6.04.26 12.26-.96 18.29-.38 2.13-2.28 3.45-3.64 4.97-3.11-6.52-.53-13.93-2.93-20.62-2.02.2-4.07.21-6.02.79-2.18 1.68-3.94 3.82-5.9 5.74l-2.78-.89c-1.7-.33-3.55-.69-4.91.67-5.81 4.58-13.15 8.63-14.87 16.46-.89-2.25-.61-6.09-3.74-6.38-1.21-.25-2.31.48-3.31 1.03-4.44 2.81-8.2 6.56-11.51 10.62-1.26 1.8-3.49 2.2-5.45 2.79-.31 2.52-.6 5.04-.87 7.57-1.64-.1-3.29-.14-4.92-.22l-2.92-.64c2.07-2.71 4.86-4.86 6.59-7.84.65-3.73-2.69-9.06-6.94-7.43-3.17 1.63-4.86 5.26-5.55 8.61 1.32 1.9 3.37 3.07 5.22 4.4-1.69 2.02-3.85 3.95-4.23 6.69-.64 3.99.19 8.02.2 12.03.14 3.17-.27 6.4.47 9.52 1.54 2.09 4.63 3.86 7.1 2.2 2.44-1.79 3.26-4.94 4.65-7.5 3.73.7 8.02 3.03 11.52.49 5.33-3.35 10.55-7.25 13.73-12.82 6 .56 13.07-.7 16.66-6.06-.57.04-1.7.12-2.27.17.72-.48 1.42-1 2.08-1.56 1.36.37 3.1 1.23 4.24-.13 2.52-2.83 3.69-6.55 5.27-9.94 1.77 1.47 3.33 3.4 5.56 4.19 3.69-.16 7.13-1.75 10.68-2.65 3.5-.9 6.95-2.08 9.95-4.15-.11-2.99.13-5.99.81-8.92 2.22 1.41 4.21 3.85 7.06 3.78 3.29-.06 6.57-.59 9.77-1.37 4.07-.98 7.31-3.77 10.63-6.15 4.48 1.24 9.15 3.08 13.85 1.76 4.8-.91 10.89-2.73 11.86-8.33 1.89-5.16-.88-10.13-3.46-14.45 1.37-1.63 3.19-3.07 3.86-5.15-.03-4.51-3.46-8.08-6.88-10.59-4.54 3.28-9.82 5.3-14.49 8.34m-140.77 60.38c-2.09 2.34-3.22 5.36-4.84 8.03-4.05 6.61-6.39 14.86-4.71 22.53 2.75 2.75 6.75 4.39 10.64 4.4 6.14-.93 11.3-5.28 14.72-10.29 1.59-2.18.98-5.01 1.08-7.52-2.58-.16-5.83-1.59-7.93.61-2.81 2.51-4.18 7.34-8.68 7.06-.26-5.13 1.74-10.1 4.28-14.45 2.61-1.67 5.99-1.65 8.54-3.45 1.56-1.45 2.77-3.55 2.63-5.73-.78-1.91-2.22-3.54-3.93-4.67-3.96 1.03-7.91 2.21-11.8 3.48m-39.71 23.08c-2.56 1.86-5.87 1.74-8.86 2.24-.85 3.06-1.66 6.26-3.83 8.7-4.95-3.12-11.43-4.33-16.72-1.31-3.37 1.44-4.48 5.13-6.34 7.96-3.54-.44-6.14-3.81-9.58-4.92-.16-.4-.48-1.21-.64-1.62 2.63-2.18 6.6-3.7 7.47-7.31.97-1.59-.97-2.76-1.96-1.32-2.18-.53-4.37-1.06-6.62-1.14-2.93-.56-6.34-.06-8.29 2.41-2.87 3.61-3.99 8.18-5.44 12.47-1.72 1.37-4.89 2.14-4.74 4.84.27 4.5 5.08 6.94 6.07 11.2 1.05 4.8-.26 9.9 1.35 14.6 1.1 3.24 6.15 4.03 8 1.05 2.2-3.88 1.64-8.52 1.62-12.8.95-.82 1.91-1.64 2.86-2.46-1.17-1.74-2.31-3.49-3.43-5.25 3.03-1.94 6.14-3.76 9.34-5.4.86 2.6 1.21 5.32 1.4 8.04.14 4.12 2.54 7.85 5.58 10.47 3.92 1.31 8.6 1.12 12.28-.88 4.12-2.96 6.67-7.49 9.61-11.52 1.45 2.06 2.41 4.83 4.78 6 2.93.42 5.73-.89 8.45-1.78-.74-5.46-1.99-10.9-1.82-16.43.12-2.64 1.42-6.25 4.52-6.36 3.06-.3 6.13-.53 9.11-1.28.05-3.39.03-6.77-.14-10.14-.45-.34-1.33-1-1.78-1.33.01.46.02 1.39.03 1.85-1.77-.76-3.62-1.45-5.57-1.29l.73-.68c-2.87.15-5.19 1.81-7.44 3.39z"/><path fill="#050d2e" d="M543.87 251.59c1.73 6.48-.21 13.07-.24 19.61-.07 8.22-1.52 16.4-.57 24.63-.7-.89-1.39-1.78-2.08-2.66.51 7.03 1.06 14.13-.24 21.12-1.26 14.83-1.84 29.79-4.53 44.46-1 8.12 1.09 16.76-2.16 24.51-4.82 6.77-12.39 11.2-20.28 13.48-3.84 1.05-6.72 4.02-10.48 5.26-8.85 3.1-16 9.54-24.76 12.87-.05-1.02-.09-2.04-.12-3.04 17.57-9 35.36-17.58 52.93-26.59 1.02-17.8 3.42-35.48 4.52-53.27 2.5-25.23 4.76-50.49 7.34-75.71.21-1.56.47-3.11.67-4.67z"/><path fill="#758cce" d="M539.68 257.96c.35-2.02 1.82-3.57 2.99-5.16.14.86.4 2.59.53 3.46-2.58 25.22-4.84 50.48-7.34 75.71-1.1 17.79-3.5 35.47-4.52 53.27-17.57 9.01-35.36 17.59-52.93 26.59-3.37 1.76-6.88 3.23-10.41 4.61 1.75-2.29 3.26-4.99 5.95-6.29 3.76-1.91 7.94-2.76 11.75-4.56 3.26-1.49 6.12-3.72 9.41-5.14 2.94-1.31 6.09-2.2 8.78-4.03 7.32-5.43 16.15-8.19 23.96-12.8.74-4.89 1.16-9.82 1.35-14.75.51.09 1.04.18 1.56.28 1.23-10.01.31-20.1 1.23-30.12.35-6.16.49-12.35 1.75-18.41 2.31-12.14 1.5-24.7 4.68-36.69.35-8.64 0-17.37 1.26-25.97z"/><path fill="#be72ba" d="M34.87 270.14c7.32 4.87 12.42 12.24 19.01 17.95 8.8 8.21 17.63 16.37 26.04 24.98 5.87 6.15 12.52 11.5 18.17 17.86 14.48 13.49 28.5 27.51 42.8 41.19.71 1.17 1.36 2.37 2.01 3.58-5.07.19-7.98-4.33-10.97-7.68-2.55-2.95-4.56-6.52-7.96-8.6-6.53-4.18-10.78-10.94-16.94-15.55-4.93-3.66-8.73-8.56-13.47-12.44-4.1-3.27-6.65-7.99-10.64-11.37-5.67-4.99-11.77-9.55-16.77-15.25-2.17-2.44-3.01-6.12-6.22-7.52-4.16-1.81-6.4-5.88-9.66-8.79-3.69-3.46-7.29-7.09-11.69-9.67-2.79 7.81-1.94 16.16-2.44 24.27-.24 5.49-.33 10.98-.46 16.47-.85.06-2.56.16-3.42.22.47-15.05 2.09-30.03 2.25-45.09.06-1.52.22-3.04.36-4.56z"/><path fill="#250022" d="M31.94 278.07c-.07-1.67 1.51-2.41 2.57-3.37-.16 15.06-1.78 30.04-2.25 45.09-.66 7.9-.81 15.83-1.24 23.75-1.2 16.1-2.05 32.23-2.98 48.35-.87 9.91-2.44 21.46 4.52 29.67-2.62-1.15-5.71-2.36-6.86-5.22-.58-2.73-.14-5.55-.09-8.3.46-7.7-.83-15.37-.57-23.06.12-7.7 1.31-15.31 2.15-22.94.6-4.98.03-10.01.76-14.97.62-4.25 1.08-8.53 1.16-12.83.12-5.78 1.84-11.4 1.77-17.2 0-8.38.8-16.73 1.21-25.09.29-4.63-.62-9.26-.15-13.88z"/><path fill="#ca54c4" d="M36.14 303.1c.5-8.11-.35-16.46 2.44-24.27 4.4 2.58 8 6.21 11.69 9.67 3.26 2.91 5.5 6.98 9.66 8.79 3.21 1.4 4.05 5.08 6.22 7.52 5 5.7 11.1 10.26 16.77 15.25 3.99 3.38 6.54 8.1 10.64 11.37 4.74 3.88 8.54 8.78 13.47 12.44 6.16 4.61 10.41 11.37 16.94 15.55 3.4 2.08 5.41 5.65 7.96 8.6 2.99 3.35 5.9 7.87 10.97 7.68-.65-1.21-1.3-2.41-2.01-3.58 2.3 1.95 4.37 4.15 6.53 6.24 4.12 4.07 8.08 8.33 12.54 12.04.49 4.52 1.53 8.99 1.45 13.56-.46 14-.15 28.02-1.09 42-.25 26.99-.63 53.98-1.49 80.97-.68-1.31-1.36-2.61-2.05-3.9.61 5.5 2.26 10.84 2.67 16.37-2.91-.71-5.83-1.37-8.77-1.92 1.48 2.11 2.98 4.23 4.67 6.19-5.7-5.01-11.11-10.4-16.06-16.15.13-1.42.63-2.88.27-4.3-1.77-2.38-4.71-3.41-7.04-5.11-5.04-3.58-8.76-8.64-12.24-13.67-2.98-4.23-8.09-5.91-12.3-8.56-3.61-2.63-6.53-6.05-9.89-8.97-2.04-2.13-4.54-4.06-5.78-6.79-.88-6.39-5.63-11.15-10.8-14.52-3.06-1.91-5.56-4.51-7.65-7.42-3.4-4.78-8.91-7.39-12.48-11.99-3.21-4.13-6.98-7.78-10.22-11.88l-1.17 1.29c-4.39-4.28-7.42-9.68-11.59-14.15-1.8-2.24-5.79-2.45-6.2-5.7-1.09-5.65-3.2-11.43-1.89-17.23 2.33-10.34 1.32-21.01 1.73-31.52-.25-7.82 1.78-15.89-1.02-23.46.43-7.92.58-15.85 1.24-23.75.86-.06 2.57-.16 3.42-.22.13-5.49.22-10.98.46-16.47m25.9 36c-3.88 4.53-2.63 11.19-.34 16.16.23-.67.68-2 .91-2.67.25.58.74 1.73.99 2.3-1.7 4.53 2.15 8.25 4.3 11.82-.7.87-1.4 1.74-2.09 2.62-1.03-.92-2.51-.97-3.75-1.41.33 1.16.61 2.36 1.06 3.5-.37 1.15-1.27 2.51.01 3.45 4.32 4.66 8.6 9.5 13.9 13.09 1.27 1.05 2.98.66 4.49.79.07-.59.22-1.77.29-2.36.23-.43.67-1.3.89-1.74 2.03-.45 4.05-.93 6.06-1.43 1.8 6 5.85 10.84 8.87 16.22 1.9 3.31 5.22 6.21 9.32 5.4 4.48.46 6.97-4.27 7.8-7.98-.58-7.04-1.72-14.21-5.14-20.49-2.35-5.4-8.04-8.78-13.78-9.29-1.63.3-3.27.6-4.9.92.11-.41.33-1.22.43-1.63l-2.64-.69c-.45-4.8-.92-9.78-3.36-14.05-4.13-7.02-9.89-14.21-18.37-15.77-2.29-.55-3.66 1.77-4.95 3.24M49.7 398.49c-1.2 5.23-1.03 11 .81 16.07 2.97 3.03 5.99 6.18 9.74 8.27 3.71 2.24 7.25 5.15 11.79 5.38-.07-.56-.2-1.68-.26-2.25l2.69-.52c1.39 2.87 1.48 6.12 2.22 9.19.65 3.18 2.91 5.66 4.73 8.24.73-.74 1.45-1.48 2.18-2.22l.02-1.19c2.35-2.86 2.19-6.65 2.49-10.12 1.2-.05 2.4-.09 3.61-.14.87 2.79 1.36 5.75 2.8 8.32 2.08 2.28 4.97 3.75 6.65 6.4 2.95 4.53 4.23 9.85 6.19 14.83.79 2.37 2.14 4.99.82 7.43-1.85 4.14-3.56 8.5-2.71 13.12.99.27 1.99.54 2.99.81-.92-2.57-2.6-5.56-.52-8.04-1.54 3.2 1.18 6.11 2.86 8.58l-.46.68c1.87-.63 4.25-.69 5.4-2.56 3.08-4.17 4.77-9.15 7.5-13.54 2.99-4.99 6.65-10.1 6.74-16.15.14-2.89-3.19-4.74-5.72-3.76 1.09.78 2.17 1.57 3.3 2.31-1.79-.09-3.69-.4-5.37.42l.41-.89c-2.88.62-4.91 2.74-6.76 4.88-3.06-4.3-3.9-9.51-5.52-14.4-1.39-4.64-6.33-6.5-8.9-10.31-2.73-3.81-6-7.21-9.89-9.85-4.23-2.43-4.16-9.12-9.58-9.88.06.53.16 1.58.21 2.11l-1.22-.55c-2.15 3.35-2.19 7.42-3.44 11.1-4.72-3.7-12.41-3.87-14.7-10.18-1.98-3.15-.46-6.69.97-9.7 2.54 2.68 5.01 5.43 7.69 7.98.2-.47.61-1.42.81-1.9.7.58 1.42 1.14 2.16 1.67.18-.88.52-2.64.7-3.52.4.23 1.21.69 1.62.92-.43-6.27-5.2-10.75-9.62-14.64-1.15-.94-2.44-2.04-4.05-1.75-5.29.28-9.4 4.76-11.38 9.35z"/><path fill="#5f79ae" d="M423.27 313.32c4.46-3.43 9.13-6.8 14.6-8.4 1.4 2.14 3.36 4.31 3.09 7.07-.25 2.38-1.42 4.53-2.15 6.78-.97 2.13.53 4.31.97 6.4 2.4 6.68-.55 15.43-7.35 18.23-5.17 2.52-11.1 1.95-16.51 3.52-4.64 3.14-8.45 7.47-13.22 10.41-4.87.83-9.73-.77-14.56-1.25-.33 2.63-.38 5.33-1.24 7.87-1.57 2.29-4.53 2.89-6.88 4.08-3.23 1.19-5.52 3.92-8.56 5.44-3.3 1.01-6.62-.73-9.93-.83-2.3 2.79-3.14 6.55-5.72 9.12-2.86 2.26-6.11 3.99-9.33 5.67-3.43 1.73-7.44.86-11.04 1.94-2.47 2.55-3.84 6.26-7.25 7.79-4.12 1.9-8.54 4.85-13.25 3.4 6.61-2 13.69-5.02 16.98-11.54 1.97-3.22 2.4-8.5-1.53-10.44-4.02-.77-8.05.56-12.02 1.1 2.08-3.47 4.99-6.31 8.04-8.92 1.79.34 3.58.66 5.38.94 1.31-3.01 1.94-6.4.15-9.39-3.14.53-5.46 2.84-7.82 4.77-3.19 2.79-6.52 5.54-8.97 9.04-1.89 2.71-2.53 6.58-.8 9.53 4.86.35 9.54-1.95 14.42-.96-.89 2.01-1.5 4.36-3.35 5.74-3.57 2.71-8.16 3.27-12.38 4.32-.53 1.27-1.06 2.53-1.64 3.78-1.47 3.27-3.8 6.05-6.18 8.71.05-.46.13-1.39.17-1.85.59-8.89.82-17.93-.56-26.76-1.46 1.07-4.25 1.36-4.21 3.62-.66 7.79.19 15.61-.05 23.42-1.14-1.04-2.81-1.88-2.67-3.67-.41-5.23-.06-10.48 0-15.71-2.1 2.85-4.97 4.93-7.97 6.74-2.48 1.25-1.38 4.49-1.42 6.7.74 5.42.62 10.93-.59 16.28-.63.02-1.89.06-2.52.07 2.6-7.71.36-15.85.92-23.75 1.64-1.48 3.68-2.39 5.54-3.55 2.78-1.5 4.31-4.38 6.07-6.85 1.59-2.25 2.86-4.74 3.33-7.47.21-.14.62-.41.82-.54 1.48-1.08 3.22-1.94 4.28-3.48.16-1.24.05-2.49-.02-3.72-1.43-.6-2.89-1.08-4.34-1.6 1.95-.38 3.9-.77 5.85-1.14 2.41 4.56-.36 9.02-2.69 12.92 1.57 1.43 3.15 2.84 4.76 4.23 1.78-3.39 2.97-7.06 4.87-10.37 2.09-2.31 5.36-3.15 7.53-5.4 2.37-2.4 4.76-4.83 7.65-6.62 1.86 1.61 3.7 3.26 5.5 4.94 2.95-3.43 5.66-7.13 9.26-9.93 2.98-2.37 5.83-4.91 8.54-7.59 2.09.11 4.17.21 6.27.29 2.1-2.3 4.62-4.17 7.42-5.55 3.06 3.67 3.5 8.58 5.3 12.86-1.36 1.13-2.71 2.29-4.06 3.44-.08-4.55-.03-9.11-.5-13.63-1.58 1.02-4 1.59-4.3 3.77-1.39 6.1-.56 12.43.16 18.57.39 1.73.53 4.42 2.76 4.72 3.42.73 6.39-1.62 9.27-3.07 2.8-1.69 6-2.63 8.74-4.44 1.27-8.67-.25-17.54.13-26.29 1.54-.59 3.16-1.03 4.6-1.86 2.93-3.35 4.45-8.05 8.56-10.28 3.5-1.85 7.41-3.27 11.4-3.33 2.7.65 5.29 2.96 5.95 5.69-.58 3.17-1.96 6.11-2.94 9.16 6.19.67 12.26-1.57 18.48-.89-3.4 1.84-7.27 2.06-10.98 2.76-2.86.37-1.77 3.86-1.83 5.82 7.56.2 15.62-2.94 19.76-9.52 1.91-3.25 1.6-8.8-2.2-10.52-3.89-.96-7.93-.03-11.87-.03 2.22-2.97 4.7-6.13 8.27-7.51 1.68-.04 3.25.73 4.91.95 3.04-2.33 1.28-6.36.93-9.47-5.88 2.11-11.05 5.88-15.57 10.13-2.79 2.87-4.96 7.96-2.38 11.57 4.03.56 8.09-.17 12.12-.42.53.58 1.59 1.74 2.11 2.32-.86 1.15-1.72 2.32-2.65 3.42-3.52-2.16-7.65-2.56-11.62-3.25-2.67-.28-4.15-3.1-3.93-5.57.34-5.16 3.81-9.54 7.69-12.68m-33.71 30.63c-.28 3.65-.66 8.31 2.88 10.58 5.59 1.44 11.19-1.21 15.49-4.61 3.35-2.76 7.38-5.87 7.02-10.72-.64.06-1.92.17-2.56.22-4.09 5.34-10.73 12.34-18.05 9.01 5.18-5.19 10.63-10.14 15.56-15.57 2.53-2.53 3.12-9.28-1.86-9-10.09.9-17.58 10.42-18.48 20.09m-42.43 11.18c-3.65 3.23-7.49 6.88-8.57 11.84-.2 1.91-.41 4.26 1.44 5.47 4.71.56 9.78-4.19 13.96-.63-2.68 5.75-9.05 9.16-15.32 8.5 3.13-2.89 7.5-3.88 10.46-6.98-2.71.4-5.41 1.29-8.16.97-2.74-.41-4.18-3.04-5.84-4.94-1.46 2.18-2.94 4.34-4.48 6.47 1.98 2.02 3.87 5.17 7.16 4.52-.17 1.92-.34 3.84-.5 5.77 8.26.91 16.19-4.72 19.97-11.79.81-3.16 1.45-7.71-1.69-9.81-4.16-.88-8.14.9-12 2.18 1.31-4.46 5.18-7.29 8.54-10.17 1.56.5 3.15.88 4.73 1.32.89-2.98 2.09-7.43-.85-9.52-3.3 1.77-6.01 4.4-8.85 6.8m-38.22 40.15c2.07-1.75 4.07-3.6 6-5.5-1.57-2.26-3.26-4.43-5.11-6.46-2.86 3.45-1.8 8-.89 11.96m9.26-7.15c-1.93.35-1.35 3.58.64 2.87 1.92-.37 1.35-3.58-.64-2.87z"/><path fill="#e8f8ff" d="M421.93 317.93c4.52-4.25 9.69-8.02 15.57-10.13.35 3.11 2.11 7.14-.93 9.47-1.66-.22-3.23-.99-4.91-.95-3.57 1.38-6.05 4.54-8.27 7.51 3.94 0 7.98-.93 11.87.03 3.8 1.72 4.11 7.27 2.2 10.52-4.14 6.58-12.2 9.72-19.76 9.52.06-1.96-1.03-5.45 1.83-5.82 3.71-.7 7.58-.92 10.98-2.76l.62-.5c.93-1.1 1.79-2.27 2.65-3.42-.52-.58-1.58-1.74-2.11-2.32-4.03.25-8.09.98-12.12.42-2.58-3.61-.41-8.7 2.38-11.57zM334.02 425.03c2.88-2 6.5-1.9 9.83-1.59-.37 1.52-.23 3.57-1.88 4.38-3.11 1.32-7.34.56-9.46 3.7-3.35 4.65-5.63 10.65-4.54 16.42.07 2.03 2.67 1.71 4.06 1.66 5.63-.59 7.56-7.12 12.72-8.63.5 4.91-4.02 7.74-7.16 10.66-3.29 2.92-8.61 5.34-12.59 2.33-2.89-2.33-2.77-6.58-2.14-9.9 1.53-7.25 4.76-14.81 11.16-19.03z"/><path fill="#e9f9ff" d="M389.56 343.95c.9-9.67 8.39-19.19 18.48-20.09 4.98-.28 4.39 6.47 1.86 9-4.93 5.43-10.38 10.38-15.56 15.57 7.32 3.33 13.96-3.67 18.05-9.01.64-.05 1.92-.16 2.56-.22.36 4.85-3.67 7.96-7.02 10.72-4.3 3.4-9.9 6.05-15.49 4.61-3.54-2.27-3.16-6.93-2.88-10.58m4.52-.79c3.43-2.57 6.09-5.96 9.25-8.83 1.62-1.41 2.88-3.16 3.74-5.13-7.32.1-12.44 7.15-12.99 13.96z"/><path fill="#647289" d="M394.08 343.16c.55-6.81 5.67-13.86 12.99-13.96-.86 1.97-2.12 3.72-3.74 5.13-3.16 2.87-5.82 6.26-9.25 8.83z"/><path fill="#5d73a0" d="M377.6 336.43c.95-.56 1.96-.98 2.96-1.43-2.16 6.85-.93 14.05-1.06 21.08.37 5.52-6.07 7.41-10.24 8.98-.37-1.94-.71-3.88-.93-5.83 2.92.49 7.66 1.33 8.68-2.36.85-6.78-1.44-13.75.59-20.44z"/><path fill="#ecf9ff" d="M380.56 335c1.19.6 3.65.14 3.9 1.83-.38 8.75 1.14 17.62-.13 26.29-2.74 1.81-5.94 2.75-8.74 4.44-2.88 1.45-5.85 3.8-9.27 3.07-2.23-.3-2.37-2.99-2.76-4.72-.72-6.14-1.55-12.47-.16-18.57.3-2.18 2.72-2.75 4.3-3.77.47 4.52.42 9.08.5 13.63.03.51.1 1.52.13 2.03.22 1.95.56 3.89.93 5.83 4.17-1.57 10.61-3.46 10.24-8.98.13-7.03-1.1-14.23 1.06-21.08z"/><path fill="#ac60a9" d="M62.04 339.1c1.29-1.47 2.66-3.79 4.95-3.24 8.48 1.56 14.24 8.75 18.37 15.77 2.44 4.27 2.91 9.25 3.36 14.05l2.64.69c-.1.41-.32 1.22-.43 1.63-2.72 7.82.36 16.07 4.13 22.97 2.57 4.28 5.61 8.74 10.27 10.91 2.57 1.33 5.53-.75 6.21-3.31 1.96-7.1-.38-14.72-4.48-20.62-2.86-4.45-7.1-7.7-11.23-10.87 5.74.51 11.43 3.89 13.78 9.29 3.42 6.28 4.56 13.45 5.14 20.49-.83 3.71-3.32 8.44-7.8 7.98-4.1.81-7.42-2.09-9.32-5.4-3.02-5.38-7.07-10.22-8.87-16.22-2.01.5-4.03.98-6.06 1.43 2.04-5.6 1.55-11.67 2.44-17.48.39-3.84 1.32-8.06-.79-11.58-3.13-5.58-6.96-10.98-12.17-14.79-2.22-1.75-5.19-1.41-7.83-1.63-1.85 4.24-2.11 8.87-1.74 13.42-.23.67-.68 2-.91 2.67-2.29-4.97-3.54-11.63.34-16.16z"/><path fill="#feeafd" d="M64.35 339.17c2.64.22 5.61-.12 7.83 1.63 5.21 3.81 9.04 9.21 12.17 14.79 2.11 3.52 1.18 7.74.79 11.58-.89 5.81-.4 11.88-2.44 17.48-.22.44-.66 1.31-.89 1.74-7.69-2.88-12.78-9.63-18.69-14.97-.45-1.14-.73-2.34-1.06-3.5 1.24.44 2.72.49 3.75 1.41 3.84 3.41 6.91 8.93 12.76 8.66.5-2.64.93-5.3 1.25-7.97-8.04-1.29-12.42-8.73-16.22-15.13-.25-.57-.74-1.72-.99-2.3-.37-4.55-.11-9.18 1.74-13.42m3.41 7.88c-1.58 7.06 3.07 16.77 11.05 16.92.83-3.08 2.58-6.54.93-9.64a20.41 20.41 0 0 0-6.7-7.36c-1.6-.96-4.2-2.23-5.28.08z"/><path fill="#bf6ebd" d="M28.04 391.89c.93-16.12 1.78-32.25 2.98-48.35 2.8 7.57.77 15.64 1.02 23.46-.41 10.51.6 21.18-1.73 31.52-1.31 5.8.8 11.58 1.89 17.23.41 3.25 4.4 3.46 6.2 5.7 4.17 4.47 7.2 9.87 11.59 14.15l1.17-1.29c3.24 4.1 7.01 7.75 10.22 11.88 3.57 4.6 9.08 7.21 12.48 11.99 2.09 2.91 4.59 5.51 7.65 7.42 5.17 3.37 9.92 8.13 10.8 14.52-1.49-.95-2.93-1.98-4.21-3.2-6.73-6.59-13.33-13.32-19.72-20.23-12.09-11.55-23.48-23.83-35.82-35.13-6.96-8.21-5.39-19.76-4.52-29.67z"/><path fill="#a16498" d="M67.76 347.05c1.08-2.31 3.68-1.04 5.28-.08a20.41 20.41 0 0 1 6.7 7.36c1.65 3.1-.1 6.56-.93 9.64-7.98-.15-12.63-9.86-11.05-16.92m2.16 2.84c.17 2.47.06 5.31 2.04 7.15 1.45 1.95 4.01 1.9 6.18 2.16.3-4.8-3.02-9.71-8.22-9.31z"/><path fill="#e8f9ff" d="M347.13 355.13c2.84-2.4 5.55-5.03 8.85-6.8 2.94 2.09 1.74 6.54.85 9.52-1.58-.44-3.17-.82-4.73-1.32-3.36 2.88-7.23 5.71-8.54 10.17 3.86-1.28 7.84-3.06 12-2.18 3.14 2.1 2.5 6.65 1.69 9.81-3.78 7.07-11.71 12.7-19.97 11.79.16-1.93.33-3.85.5-5.77l.86-.04c6.27.66 12.64-2.75 15.32-8.5-4.18-3.56-9.25 1.19-13.96.63-1.85-1.21-1.64-3.56-1.44-5.47 1.08-4.96 4.92-8.61 8.57-11.84z"/><path fill="#d159c3" d="M69.92 349.89c5.2-.4 8.52 4.51 8.22 9.31-2.17-.26-4.73-.21-6.18-2.16-1.98-1.84-1.87-4.68-2.04-7.15z"/><path fill="#5f7ab3" d="M470.66 362.67c4.67-3.04 9.95-5.06 14.49-8.34 3.42 2.51 6.85 6.08 6.88 10.59-.67 2.08-2.49 3.52-3.86 5.15 2.58 4.32 5.35 9.29 3.46 14.45-.97 5.6-7.06 7.42-11.86 8.33-4.7 1.32-9.37-.52-13.85-1.76-3.32 2.38-6.56 5.17-10.63 6.15-3.2.78-6.48 1.31-9.77 1.37-2.85.07-4.84-2.37-7.06-3.78-.68 2.93-.92 5.93-.81 8.92-3 2.07-6.45 3.25-9.95 4.15-3.55.9-6.99 2.49-10.68 2.65-2.23-.79-3.79-2.72-5.56-4.19-1.58 3.39-2.75 7.11-5.27 9.94-1.14 1.36-2.88.5-4.24.13 3.21-2.88 6.87-6.48 6.57-11.16-.24-2.17-1.05-5.13-3.62-5.41-3.86-.49-7.67.74-11.48 1.17 1.96-3.04 3.99-6.4 7.37-8.02 2.35-.73 4.94-.12 7.24-1.12.2-2.46.06-4.92-.03-7.37 1.96-1.92 3.72-4.06 5.9-5.74 1.95-.58 4-.59 6.02-.79 2.4 6.69-.18 14.1 2.93 20.62 1.36-1.52 3.26-2.84 3.64-4.97 1.22-6.03-.15-12.25.96-18.29.62-3.19 4.87-5.42 7.7-3.6 1.35 1.61 2.29 3.5 3.36 5.31 1.92-2.6 3.24-5.62 5.29-8.11 3.2-1.91 6.6-3.49 9.94-5.16 2.39-1.37 5.16-.1 7.31 1.15 2.6 1.39 3.51 4.37 4.66 6.89.98-3.33 1.73-7.22 4.95-9.16m-.81 5.12c-1.01 2.8-1.45 8.06 2.56 8.54 4.39.96 10.2-.18 12.51 4.75-2.77 2.99-6.95 3.98-10.85 3.03-1.86-.01-4.25-1.46-5.68.3-.81 1.45-.91 3.55.9 4.27 5.3 2.86 11.82 1.28 16.72-1.65 4.6-2.7 4.53-10.32 0-13.03-3.65-2.39-8.16-2.37-12.32-3.01 2.29-3 5.66-4.77 9.04-6.25 1.66 1.57 3.5 2.97 5.84 3.28 1.24-3.38.55-6.88-1.37-9.84-6.18 2.05-13.72 3.67-17.35 9.61m-25.3 4.72c-3.63 4.94-5.66 11.34-4.56 17.46.56 3.28 3.79 5.79 7.09 5.73 5.51.1 10.87-2.18 15.27-5.37 2.51-1.55 3.25-4.48 3.41-7.24-3.97.05-6 3.81-9.19 5.52-3.52 2.04-7.99 2.66-11.64.55 4.61-5.59 11.7-8.37 16.27-13.96 2.16-2.27 1.94-7.14-1.58-7.88-5.4-1.61-11.58.91-15.07 5.19m-14.79 4.48c-.5 6.87.18 13.76-.09 20.64-2.81 1.35-5.46 3.21-8.53 3.9-1.99.41-1.88-2-2.31-3.29-.85-5.66-.23-11.41-.58-17.11-1.36.1-2.71.2-4.06.31-1.6 6.3-.89 12.9-.54 19.31.08 3.63 3.19 8.37 7.31 6.54 4.48-1.85 8.47-5.21 13.61-5.02 1.53-5.33.49-10.87.24-16.28-.26-4.38.17-8.82-.89-13.12-1.53 1.13-3.94 1.95-4.16 4.12z"/><path fill="#ac60ac" d="M67.9 366.71c-2.15-3.57-6-7.29-4.3-11.82 3.8 6.4 8.18 13.84 16.22 15.13-.32 2.67-.75 5.33-1.25 7.97-5.85.27-8.92-5.25-12.76-8.66.69-.88 1.39-1.75 2.09-2.62z"/><path fill="#e9f8fe" d="M469.85 367.79c3.63-5.94 11.17-7.56 17.35-9.61 1.92 2.96 2.61 6.46 1.37 9.84-2.34-.31-4.18-1.71-5.84-3.28-3.38 1.48-6.75 3.25-9.04 6.25 4.16.64 8.67.62 12.32 3.01 4.53 2.71 4.6 10.33 0 13.03-4.9 2.93-11.42 4.51-16.72 1.65-1.81-.72-1.71-2.82-.9-4.27 1.43-1.76 3.82-.31 5.68-.3 3.9.95 8.08-.04 10.85-3.03-2.31-4.93-8.12-3.79-12.51-4.75-4.01-.48-3.57-5.74-2.56-8.54z"/><path fill="#e9f8ff" d="M324.12 367.08c2.36-1.93 4.68-4.24 7.82-4.77 1.79 2.99 1.16 6.38-.15 9.39-1.8-.28-3.59-.6-5.38-.94-3.05 2.61-5.96 5.45-8.04 8.92 3.97-.54 8-1.87 12.02-1.1 3.93 1.94 3.5 7.22 1.53 10.44-3.29 6.52-10.37 9.54-16.98 11.54-1.18-.68-2.36-1.36-3.54-2.03.58-1.25 1.11-2.51 1.64-3.78 4.22-1.05 8.81-1.61 12.38-4.32 1.85-1.38 2.46-3.73 3.35-5.74-4.88-.99-9.56 1.31-14.42.96-1.73-2.95-1.09-6.82.8-9.53 2.45-3.5 5.78-6.25 8.97-9.04z"/><path fill="#ffe2ff" d="M90.93 368c1.63-.32 3.27-.62 4.9-.92 4.13 3.17 8.37 6.42 11.23 10.87 4.1 5.9 6.44 13.52 4.48 20.62-.68 2.56-3.64 4.64-6.21 3.31-4.66-2.17-7.7-6.63-10.27-10.91-3.77-6.9-6.85-15.15-4.13-22.97m5.21 6.59c-2.78 6.14-.14 13.35 4.14 18.11 1.37 1.39 3 3.31 5.2 2.87 2.14-.91 1.81-3.66 1.9-5.56 0-6.75-4.09-14.24-11.24-15.42z"/><path fill="#e2fdff" d="M301.95 367.99c1.41-.58 2.91-.91 4.39-1.27.07 1.23.18 2.48.02 3.72-1.06 1.54-2.8 2.4-4.28 3.48-.47-.37-1.42-1.09-1.89-1.46.53-1.5.72-3.21 1.76-4.47z"/><path fill="#e9f6ff" d="M444.55 372.51c3.49-4.28 9.67-6.8 15.07-5.19 3.52.74 3.74 5.61 1.58 7.88-4.57 5.59-11.66 8.37-16.27 13.96 3.65 2.11 8.12 1.49 11.64-.55 3.19-1.71 5.22-5.47 9.19-5.52-.16 2.76-.9 5.69-3.41 7.24-4.4 3.19-9.76 5.47-15.27 5.37-3.3.06-6.53-2.45-7.09-5.73-1.1-6.12.93-12.52 4.56-17.46m5.15 1.16c-3.35 2.18-4.47 6.29-5.53 9.9 4.63-3.45 9.19-7.01 13.54-10.82-2.53-1.8-5.6-.31-8.01.92z"/><path fill="#5c7fe0" d="M335.1 369.36c1.66 1.9 3.1 4.53 5.84 4.94 2.75.32 5.45-.57 8.16-.97-2.96 3.1-7.33 4.09-10.46 6.98l-.86.04c-3.29.65-5.18-2.5-7.16-4.52 1.54-2.13 3.02-4.29 4.48-6.47z"/><path fill="#ad5db1" d="M63.13 374.87c-1.28-.94-.38-2.3-.01-3.45 5.91 5.34 11 12.09 18.69 14.97-.07.59-.22 1.77-.29 2.36-1.51-.13-3.22.26-4.49-.79-5.3-3.59-9.58-8.43-13.9-13.09z"/><path fill="#5b6985" d="M449.7 373.67c2.41-1.23 5.48-2.72 8.01-.92-4.35 3.81-8.91 7.37-13.54 10.82 1.06-3.61 2.18-7.72 5.53-9.9z"/><path fill="#ecfaff" d="M429.76 376.99c.22-2.17 2.63-2.99 4.16-4.12 1.06 4.3.63 8.74.89 13.12.25 5.41 1.29 10.95-.24 16.28-5.14-.19-9.13 3.17-13.61 5.02-4.12 1.83-7.23-2.91-7.31-6.54-.35-6.41-1.06-13.01.54-19.31 1.35-.11 2.7-.21 4.06-.31.35 5.7-.27 11.45.58 17.11.43 1.29.32 3.7 2.31 3.29 3.07-.69 5.72-2.55 8.53-3.9.27-6.88-.41-13.77.09-20.64z"/><path fill="#b45fb4" d="M96.14 374.59c7.15 1.18 11.24 8.67 11.24 15.42-.09 1.9.24 4.65-1.9 5.56-2.2.44-3.83-1.48-5.2-2.87-4.28-4.76-6.92-11.97-4.14-18.11z"/><path fill="#1f001d" d="M147.42 378.36c.92-.94 1.84-1.87 2.77-2.8 1.3 2.11 2.56 4.26 3.79 6.42 3.72 1.06 6.26 3.82 7.48 7.44.87-.26 1.75-.52 2.63-.77 1.43 2.46 3.82 4.64 3.82 7.68.26 6.13.28 12.3-.24 18.42-.84 9.07-.47 18.19-.73 27.28-.16 5.05-2.06 9.91-1.7 15 .3 5.13.82 10.27.31 15.42-.87 9.86 1.48 20-1.5 29.64-.82 2.77.58 5.67-.31 8.44.45 3.6-.1 7.11-1.38 10.48-.68 9.42 1.41 19.41-2.63 28.35l.05-.97c.94-9.79.41-19.64 1.28-29.43.71-8.65.07-17.35.91-25.98.97-9.23.18-18.54 1.14-27.76.57-9.08.24-18.18.75-27.26.84-11.3.29-22.66 1.28-33.95.16-2.94.49-5.92-.04-8.84-1.41-1.9-3.36-3.27-5.14-4.77-4.46-3.71-8.42-7.97-12.54-12.04z"/><path fill="#6378ac" d="M279.25 378.23c1.45-1.15 3.37-1.41 5.09-1.97a97.468 97.468 0 0 1-3.8 4.34l-.16 1.58c-.24 2.16-.29 4.34-.41 6.51-2.29 1.12-4.55 2.27-6.79 3.49-.01 1.17-.01 2.34-.02 3.51 2.52-.2 5.03-.42 7.55-.62.8 7.08.77 14.22.88 21.33-1.14-.48-2.19-1.27-2.24-2.6-1.03-4.29-.31-8.75-1.12-13.05-1.79-1.49-4-2.3-6.09-3.25-.31-1.97-.93-3.96-.56-5.96.81-2 2.43-3.52 3.62-5.3 1.77-2.45 2.37-5.52 4.05-8.01z"/><path fill="#5c7d93" d="M285.34 377.75c2.04 2.32 4.21 4.53 6.61 6.49-2.24.61-4.36 1.56-6.47 2.52-.02-2.39-.07-4.77-.1-7.15l-.04-1.86z"/><path fill="#e6f6ff" d="M300.62 382.25c-.04-2.26 2.75-2.55 4.21-3.62 1.38 8.83 1.15 17.87.56 26.76-1.61.09-3.22.17-4.82.28.24-7.81-.61-15.63.05-23.42z"/><path fill="#ebf9ff" d="M280.38 382.18c.15-2.47 3.08-2.7 5-2.57.03 2.38.08 4.76.1 7.15 2.11-.96 4.23-1.91 6.47-2.52.59-.12 1.76-.37 2.34-.5-.59 1.74-.43 4.21-2.43 5.04-1.86 1.16-3.9 2.07-5.54 3.55-.56 7.9 1.68 16.04-.92 23.75l-3.81.32c-.11-7.11-.08-14.25-.88-21.33-2.52.2-5.03.42-7.55.62.01-1.17.01-2.34.02-3.51 2.24-1.22 4.5-2.37 6.79-3.49.12-2.17.17-4.35.41-6.51z"/><path fill="#5e7ab7" d="M400.31 384.3c1.36-1.36 3.21-1 4.91-.67-4.39 4.17-9.66 7.37-13.64 11.96-2.39 2.83-3.61 6.65-2.89 10.33 3.91 2.88 8.89-.33 13.22-.56.48.73 1.42 2.21 1.89 2.95-2.01 2.11-3.92 4.58-6.78 5.57-3.12 1.16-6.43 1.63-9.65 2.41.02 1.51.04 3.03.09 4.56 4.39.6 8.55-.94 12.41-2.86.57-.05 1.7-.13 2.27-.17-3.59 5.36-10.66 6.62-16.66 6.06-3.18 5.57-8.4 9.47-13.73 12.82-3.5 2.54-7.79.21-11.52-.49-1.39 2.56-2.21 5.71-4.65 7.5-2.47 1.66-5.56-.11-7.1-2.2-.74-3.12-.33-6.35-.47-9.52-.01-4.01-.84-8.04-.2-12.03.38-2.74 2.54-4.67 4.23-6.69-1.85-1.33-3.9-2.5-5.22-4.4.69-3.35 2.38-6.98 5.55-8.61 4.25-1.63 7.59 3.7 6.94 7.43-1.73 2.98-4.52 5.13-6.59 7.84-1.02 1.65-2.03 3.43-2.08 5.43-.34 7.14.24 14.3 1.06 21.4 1.29-.9 2.65-1.72 3.78-2.82.85-7.75-.25-15.58.16-23.37 1.63.08 3.28.12 4.92.22.27-2.53.56-5.05.87-7.57 1.96-.59 4.19-.99 5.45-2.79 3.31-4.06 7.07-7.81 11.51-10.62 1-.55 2.1-1.28 3.31-1.03 3.13.29 2.85 4.13 3.74 6.38 1.72-7.83 9.06-11.88 14.87-16.46m-31.41 22.61c-3.59 3.21-7.66 9.2-4.51 13.79 4.44.33 8.62-1.54 12.93-2.3.15 1.76 1.1 3.98-.54 5.36-3.28 3.94-8.51 4.66-13.15 5.86-1.26 1.24-1.76 3.02-2.55 4.56 3.12.45 6.49.95 9.39-.65 5.57-2.73 11.15-7.05 12.86-13.28 1.05-3.11-1.35-6.85-4.66-7-3.76-.27-7.25 1.46-10.8 2.4 1.87-4.33 5.62-7.29 9.09-10.3 1.31.51 2.62 1.02 3.95 1.52 3.13-2.58 2.25-6.49 1.49-9.95-5.69 1.31-9.09 6.58-13.5 9.99m-18.96 1.14c1.19.58 2.31 1.53 3.7 1.59 2.56-1.79 3.55-4.86 2.23-7.73-2.77 1.17-4.59 3.53-5.93 6.14m28.44 1.46c2.52 1.58 5 3.24 7.44 4.96 4.25-1.3 8.76-2.22 12.39-4.95-4.33-.07-8.91.1-12.59-2.57-2.37.98-4.78 1.85-7.24 2.56z"/><path fill="#547ede" d="M308.91 395.28c-.91-3.96-1.97-8.51.89-11.96 1.85 2.03 3.54 4.2 5.11 6.46-1.93 1.9-3.93 3.75-6 5.5z"/><path fill="#ebf9fd" d="M391.58 395.59c3.98-4.59 9.25-7.79 13.64-11.96l2.78.89c.09 2.45.23 4.91.03 7.37-2.3 1-4.89.39-7.24 1.12-3.38 1.62-5.41 4.98-7.37 8.02 3.81-.43 7.62-1.66 11.48-1.17 2.57.28 3.38 3.24 3.62 5.41.3 4.68-3.36 8.28-6.57 11.16-.66.56-1.36 1.08-2.08 1.56-3.86 1.92-8.02 3.46-12.41 2.86-.05-1.53-.07-3.05-.09-4.56 3.22-.78 6.53-1.25 9.65-2.41 2.86-.99 4.77-3.46 6.78-5.57-.47-.74-1.41-2.22-1.89-2.95-4.33.23-9.31 3.44-13.22.56-.72-3.68.5-7.5 2.89-10.33z"/><path fill="#677dd3" d="M318.17 388.13c1.99-.71 2.56 2.5.64 2.87-1.99.71-2.57-2.52-.64-2.87z"/><path fill="#ac5ea9" d="M49.7 398.49c1.98-4.59 6.09-9.07 11.38-9.35 1.61-.29 2.9.81 4.05 1.75 4.42 3.89 9.19 8.37 9.62 14.64-.41-.23-1.22-.69-1.62-.92-3.02-3.85-5.29-8.5-9.59-11.15-1.83-1.31-4.51-1.79-6.4-.32-6.06 4.66-7.37 14.26-2.6 20.31 4.48 5.59 10.49 10.04 17.24 12.51.06.57.19 1.69.26 2.25-4.54-.23-8.08-3.14-11.79-5.38-3.75-2.09-6.77-5.24-9.74-8.27-1.84-5.07-2.01-10.84-.81-16.07z"/><path fill="#bd6fb8" d="M159.96 390.4c1.78 1.5 3.73 2.87 5.14 4.77.53 2.92.2 5.9.04 8.84-.99 11.29-.44 22.65-1.28 33.95-.51 9.08-.18 18.18-.75 27.26-.96 9.22-.17 18.53-1.14 27.76-.84 8.63-.2 17.33-.91 25.98-.87 9.79-.34 19.64-1.28 29.43-1.47-1.59-3-3.1-4.43-4.72-1.69-1.96-3.19-4.08-4.67-6.19 2.94.55 5.86 1.21 8.77 1.92-.41-5.53-2.06-10.87-2.67-16.37.69 1.29 1.37 2.59 2.05 3.9.86-26.99 1.24-53.98 1.49-80.97.94-13.98.63-28 1.09-42 .08-4.57-.96-9.04-1.45-13.56z"/><path fill="#ffe0ff" d="M57.14 393.14c1.89-1.47 4.57-.99 6.4.32 4.3 2.65 6.57 7.3 9.59 11.15-.18.88-.52 2.64-.7 3.52-.74-.53-1.46-1.09-2.16-1.67-2.13-2.98-3.79-6.97-7.51-8.21-3.1-.8-4.88 2.62-5.59 5.08-1.78 4.75 1.23 9.74 5.08 12.42 4.24 3.03 10.33 4.19 12.22 9.69l-2.69.52c-6.75-2.47-12.76-6.92-17.24-12.51-4.77-6.05-3.46-15.65 2.6-20.31z"/><path fill="#e9f7ff" d="M368.9 406.91c4.41-3.41 7.81-8.68 13.5-9.99.76 3.46 1.64 7.37-1.49 9.95-1.33-.5-2.64-1.01-3.95-1.52-3.47 3.01-7.22 5.97-9.09 10.3 3.55-.94 7.04-2.67 10.8-2.4 3.31.15 5.71 3.89 4.66 7-1.71 6.23-7.29 10.55-12.86 13.28-2.9 1.6-6.27 1.1-9.39.65.79-1.54 1.29-3.32 2.55-4.56 4.64-1.2 9.87-1.92 13.15-5.86 1.64-1.38.69-3.6.54-5.36-4.31.76-8.49 2.63-12.93 2.3-3.15-4.59.92-10.58 4.51-13.79z"/><path fill="#a65ba1" d="M57.17 403.33c.71-2.46 2.49-5.88 5.59-5.08 3.72 1.24 5.38 5.23 7.51 8.21-.2.48-.61 1.43-.81 1.9-2.68-2.55-5.15-5.3-7.69-7.98-1.43 3.01-2.95 6.55-.97 9.7 2.29 6.31 9.98 6.48 14.7 10.18 1.25-3.68 1.29-7.75 3.44-11.1-.32 7.96-.51 15.96-.2 23.92-.16 3.38 2.53 5.61 4.86 7.57-.73.74-1.45 1.48-2.18 2.22-1.82-2.58-4.08-5.06-4.73-8.24-.74-3.07-.83-6.32-2.22-9.19-1.89-5.5-7.98-6.66-12.22-9.69-3.85-2.68-6.86-7.67-5.08-12.42z"/><path fill="#e3fbff" d="M349.94 408.05c1.34-2.61 3.16-4.97 5.93-6.14 1.32 2.87.33 5.94-2.23 7.73-1.39-.06-2.51-1.01-3.7-1.59z"/><path fill="#050e2d" d="M174.95 409.94c.02-2.49.81-4.9 2.27-6.91 1.13 14.3-.6 28.61-.71 42.92v.89c-.78 14.74-.88 29.51-1.92 44.24.18 13.79-1.09 27.51-1.29 41.29-.71 8.98-.96 18-.67 27.01.52-.04 1.57-.13 2.09-.17-1.41.33-3.45 1.13-4.41-.46-1.92-3.38-1.18-7.48-1.23-11.19.73-13.84.8-27.71 1.84-41.52.45-11.98-.42-24.12 2.19-35.92 1.88-8.12-1.1-16.4.58-24.54 2.43-11.75.79-23.76 1.26-35.64z"/><path fill="#5882e2" d="M378.38 409.51c2.46-.71 4.87-1.58 7.24-2.56 3.68 2.67 8.26 2.5 12.59 2.57-3.63 2.73-8.14 3.65-12.39 4.95a165.71 165.71 0 0 0-7.44-4.96z"/><path fill="#aa5da2" d="M79.95 407.6c5.42.76 5.35 7.45 9.58 9.88 3.89 2.64 7.16 6.04 9.89 9.85 2.57 3.81 7.51 5.67 8.9 10.31 1.62 4.89 2.46 10.1 5.52 14.4 1.85-2.14 3.88-4.26 6.76-4.88l-.41.89c-1.9 4.21-4.16 8.25-6.63 12.16-4-8.88-6.31-18.47-11.07-27.02-1.14.02-2.27.06-3.41.11-1.66-3.59-3.31-7.37-6.34-10.05-2.43-2.29-5.41-3.89-7.8-6.21-1.92-2.22-3.18-4.89-4.78-7.33-.05-.53-.15-1.58-.21-2.11z"/><path fill="#ffe7ff" d="m78.94 409.16 1.22.55c1.6 2.44 2.86 5.11 4.78 7.33 2.39 2.32 5.37 3.92 7.8 6.21 3.03 2.68 4.68 6.46 6.34 10.05 1.14-.05 2.27-.09 3.41-.11 4.76 8.55 7.07 18.14 11.07 27.02 2.47-3.91 4.73-7.95 6.63-12.16 1.68-.82 3.58-.51 5.37-.42.29 5.39-3.03 9.91-5.52 14.4-3.78 6.18-7.15 12.63-11.24 18.62-1.68-2.47-4.4-5.38-2.86-8.58 1.23-2.44 3-4.62 3.85-7.24-.13-3.45-1.66-6.64-2.81-9.83-2.59-6.64-4.59-13.5-7.34-20.08-.86 1.46-1.71 2.93-2.57 4.41-2.73-3.03-3.38-7.08-4.63-10.8-1.35-3.53-5.32-4.54-8.64-5.19-.29 5.36-.23 10.74-.18 16.12l-.02 1.19c-2.33-1.96-5.02-4.19-4.86-7.57-.31-7.96-.12-15.96.2-23.92z"/><path fill="#ebf7ff" d="M350.64 420.96c.05-2 1.06-3.78 2.08-5.43l2.92.64c-.41 7.79.69 15.62-.16 23.37-1.13 1.1-2.49 1.92-3.78 2.82-.82-7.1-1.4-14.26-1.06-21.4z"/><path fill="#5f78b0" d="M329.89 423.05c3.89-1.27 7.84-2.45 11.8-3.48 1.71 1.13 3.15 2.76 3.93 4.67.14 2.18-1.07 4.28-2.63 5.73-2.55 1.8-5.93 1.78-8.54 3.45-2.54 4.35-4.54 9.32-4.28 14.45 4.5.28 5.87-4.55 8.68-7.06 2.1-2.2 5.35-.77 7.93-.61-.1 2.51.51 5.34-1.08 7.52-3.42 5.01-8.58 9.36-14.72 10.29-3.89-.01-7.89-1.65-10.64-4.4-1.68-7.67.66-15.92 4.71-22.53 1.62-2.67 2.75-5.69 4.84-8.03m4.13 1.98c-6.4 4.22-9.63 11.78-11.16 19.03-.63 3.32-.75 7.57 2.14 9.9 3.98 3.01 9.3.59 12.59-2.33 3.14-2.92 7.66-5.75 7.16-10.66-5.16 1.51-7.09 8.04-12.72 8.63-1.39.05-3.99.37-4.06-1.66-1.09-5.77 1.19-11.77 4.54-16.42 2.12-3.14 6.35-2.38 9.46-3.7 1.65-.81 1.51-2.86 1.88-4.38-3.33-.31-6.95-.41-9.83 1.59z"/><path fill="#9f629d" d="M83.8 423.34c3.32.65 7.29 1.66 8.64 5.19 1.25 3.72 1.9 7.77 4.63 10.8.86-1.48 1.71-2.95 2.57-4.41 2.75 6.58 4.75 13.44 7.34 20.08 1.15 3.19 2.68 6.38 2.81 9.83-.85 2.62-2.62 4.8-3.85 7.24-2.08 2.48-.4 5.47.52 8.04-1-.27-2-.54-2.99-.81-.85-4.62.86-8.98 2.71-13.12 1.32-2.44-.03-5.06-.82-7.43-1.96-4.98-3.24-10.3-6.19-14.83-1.68-2.65-4.57-4.12-6.65-6.4-1.44-2.57-1.93-5.53-2.8-8.32-1.21.05-2.41.09-3.61.14-.3 3.47-.14 7.26-2.49 10.12-.05-5.38-.11-10.76.18-16.12z"/><path fill="#5d78b3" d="M290.18 446.13c2.25-1.58 4.57-3.24 7.44-3.39l-.73.68c-2.64 2.58-5.41 5.03-8.06 7.61-1.63-.34-3.26-.67-4.89-.97-1.95 4.41-1.35 9.28-1.14 13.95.3 4.82.55 9.66 1.24 14.45 1.45-1.02 3.93-1.36 4.07-3.5.63-5.23-.77-10.54.2-15.75 1.07-4.52 4.87-7.57 8.35-10.29.59 1.59 1.17 3.18 1.74 4.78 1.13-.03 2.26-.06 3.4-.08.46-2.95.69-5.93.66-8.91-.01-.46-.02-1.39-.03-1.85.45.33 1.33.99 1.78 1.33.17 3.37.19 6.75.14 10.14-2.98.75-6.05.98-9.11 1.28-3.1.11-4.4 3.72-4.52 6.36-.17 5.53 1.08 10.97 1.82 16.43-2.72.89-5.52 2.2-8.45 1.78-2.37-1.17-3.33-3.94-4.78-6-2.94 4.03-5.49 8.56-9.61 11.52-3.68 2-8.36 2.19-12.28.88-3.04-2.62-5.44-6.35-5.58-10.47-.19-2.72-.54-5.44-1.4-8.04-3.2 1.64-6.31 3.46-9.34 5.4 1.12 1.76 2.26 3.51 3.43 5.25-.95.82-1.91 1.64-2.86 2.46.02 4.28.58 8.92-1.62 12.8-1.85 2.98-6.9 2.19-8-1.05-1.61-4.7-.3-9.8-1.35-14.6-.99-4.26-5.8-6.7-6.07-11.2-.15-2.7 3.02-3.47 4.74-4.84 1.45-4.29 2.57-8.86 5.44-12.47 1.95-2.47 5.36-2.97 8.29-2.41-2.93 1.8-6.18 3.67-7.7 6.91-1.23 3.01-1.3 6.33-1.73 9.52-2.08.54-4.1 1.31-6.17 1.87-.11 1.25-.18 2.51-.21 3.79 2.11.23 4.23.47 6.35.71.68 7.51.76 15.06.77 22.6 1.65-.13 3.31-.26 4.96-.38.67-7.91-.62-15.8-.14-23.71 3.04-.69 6.15-1.26 9.01-2.57.12-1.37.1-2.73.06-4.09-3.19.35-6.36.84-9.52 1.4.51-2.58.45-5.45 1.91-7.72 2.91-2.53 6.69-3.98 9.03-7.19.99-1.44 2.93-.27 1.96 1.32-.87 3.61-4.84 5.13-7.47 7.31.16.41.48 1.22.64 1.62 3.44 1.11 6.04 4.48 9.58 4.92 1.86-2.83 2.97-6.52 6.34-7.96 5.29-3.02 11.77-1.81 16.72 1.31 2.17-2.44 2.98-5.64 3.83-8.7 2.99-.5 6.3-.38 8.86-2.24m-23.79 10.29c-6.1 2.47-11.56 7.93-12.08 14.78-.15 3.8-.47 8.18 2.29 11.21 2.34 2.18 5.92 3.62 9.02 2.23 6.06-1.72 9.8-7.7 10.81-13.61.41-4.57.48-9.89-2.98-13.39-1.72-2.03-4.73-1.85-7.06-1.22z"/><path fill="#edf9fe" d="M288.83 451.03c2.65-2.58 5.42-5.03 8.06-7.61 1.95-.16 3.8.53 5.57 1.29.03 2.98-.2 5.96-.66 8.91-1.14.02-2.27.05-3.4.08-.57-1.6-1.15-3.19-1.74-4.78-3.48 2.72-7.28 5.77-8.35 10.29-.97 5.21.43 10.52-.2 15.75-.14 2.14-2.62 2.48-4.07 3.5-.69-4.79-.94-9.63-1.24-14.45-.21-4.67-.81-9.54 1.14-13.95 1.63.3 3.26.63 4.89.97z"/><path fill="#ac5ea4" d="M122.26 445.32c2.53-.98 5.86.87 5.72 3.76-.09 6.05-3.75 11.16-6.74 16.15-2.73 4.39-4.42 9.37-7.5 13.54-1.15 1.87-3.53 1.93-5.4 2.56l.46-.68c4.09-5.99 7.46-12.44 11.24-18.62 2.49-4.49 5.81-9.01 5.52-14.4-1.13-.74-2.21-1.53-3.3-2.31z"/><path fill="#748ccb" d="M174.59 491.08c1.04-14.73 1.14-29.5 1.92-44.24 1.31 9 .89 18.13.65 27.19-1.36 16.96-.47 33.99-1.19 50.98-.01 9.6-1.55 19.37.74 28.83 3.13-1.49 6.19-3.12 9.29-4.68 6.17-3.2 13.3-4.16 19.14-8.06 7.08-4.65 15.12-7.45 22.63-11.3 3.24-1.73 6.97-1.65 10.54-1.68-8.66 4.71-18.01 7.96-26.69 12.63-8.59 4.1-17.37 7.8-25.59 12.64-3.79 1.9-7.49 3.99-11.31 5.82-.52.04-1.57.13-2.09.17-.29-9.01-.04-18.03.67-27.01.2-13.78 1.47-27.5 1.29-41.29z"/><path fill="#ecf8ff" d="M235.4 454.32c1.52-3.24 4.77-5.11 7.7-6.91 2.25.08 4.44.61 6.62 1.14-2.34 3.21-6.12 4.66-9.03 7.19-1.46 2.27-1.4 5.14-1.91 7.72 3.16-.56 6.33-1.05 9.52-1.4.04 1.36.06 2.72-.06 4.09-2.86 1.31-5.97 1.88-9.01 2.57-.48 7.91.81 15.8.14 23.71-1.65.12-3.31.25-4.96.38-.01-7.54-.09-15.09-.77-22.6-2.12-.24-4.24-.48-6.35-.71.03-1.28.1-2.54.21-3.79 2.07-.56 4.09-1.33 6.17-1.87.43-3.19.5-6.51 1.73-9.52z"/><path fill="#06030b" d="M401.37 449.12c1.15-.32 2.32-.59 3.49-.85.7 0 1.42.04 2.14.08-.47 4.18 2.48 7.28 5.22 9.99-3.62 1.47-6.49 4.24-10.07 5.76-12.71 6.08-25.26 12.5-38.21 18.05-27.7 13.79-55.83 26.7-83.53 40.51-21.57 10.32-43.27 20.35-64.77 30.83-10.25 5.23-20.99 9.39-31.31 14.46.74-2.66 2.91-4.34 5.1-5.8-1.44-2.8-2.61-5.72-3.4-8.76 8.22-4.84 17-8.54 25.59-12.64 8.68-4.67 18.03-7.92 26.69-12.63 1.21-.53 2.41-1.07 3.6-1.63 10.11-4.83 20.32-9.47 30.27-14.62 14.45-6.2 28.48-13.32 42.67-20.09 11.05-5.14 21.87-10.76 32.96-15.84 7.73-4.13 15.91-7.39 23.48-11.82.5-.21 1.49-.65 1.99-.86 9.45-4.53 19.21-8.54 28.09-14.14z"/><path fill="#7585d0" d="M385.54 454.15c5.36-1.43 10.38-3.91 15.83-5.03-8.88 5.6-18.64 9.61-28.09 14.14 1.87-5.31 7.25-7.68 12.26-9.11z"/><path fill="#ecf8fd" d="M266.39 456.42c2.33-.63 5.34-.81 7.06 1.22 3.46 3.5 3.39 8.82 2.98 13.39-1.01 5.91-4.75 11.89-10.81 13.61-3.1 1.39-6.68-.05-9.02-2.23-2.76-3.03-2.44-7.41-2.29-11.21.52-6.85 5.98-12.31 12.08-14.78m-6.75 20.1c.99 2.01 3.44 3.93 5.76 2.86 2.86-.86 4.44-3.53 5.9-5.92l.24.77c.18-3.55.39-7.17-.65-10.62l-.01.95c-.02-.55-.05-1.65-.07-2.2-1.79-.35-3.77-1.28-5.46-.13-5.25 2.49-6.91 8.99-5.71 14.29z"/><path fill="#6377a2" d="M259.64 476.52c-1.2-5.3.46-11.8 5.71-14.29 1.69-1.15 3.67-.22 5.46.13.02.55.05 1.65.07 2.2-.07 1.78-.08 3.57-.08 5.36-1.48-1.81-2.33-6.06-5.4-4.66-3.96 2.29-3.54 7.43-3.22 11.34.69.09 2.08.27 2.78.37 1.85-1.94 3.71-3.85 5.56-5.79.19.57.58 1.71.78 2.28-1.46 2.39-3.04 5.06-5.9 5.92-2.32 1.07-4.77-.85-5.76-2.86z"/><path fill="#5d7fd7" d="m270.88 464.56.01-.95c1.04 3.45.83 7.07.65 10.62l-.24-.77c-.2-.57-.59-1.71-.78-2.28-1.85 1.94-3.71 3.85-5.56 5.79-.7-.1-2.09-.28-2.78-.37-.32-3.91-.74-9.05 3.22-11.34 3.07-1.4 3.92 2.85 5.4 4.66 0-1.79.01-3.58.08-5.36z"/><path fill="#7988d1" d="M346.59 472.93c8.37-2.67 15.46-9.19 24.7-8.81-7.57 4.43-15.75 7.69-23.48 11.82-11.09 5.08-21.91 10.7-32.96 15.84-.75.06-2.26.17-3.01.22 5.4-4.81 12.68-6.3 18.39-10.57 2.61-1.54 5.64-2.25 8.18-3.92 2.62-1.7 5.2-3.53 8.18-4.58z"/><path fill="#ba6fb2" d="M107.98 495.88c4.21 2.65 9.32 4.33 12.3 8.56 3.48 5.03 7.2 10.09 12.24 13.67 2.33 1.7 5.27 2.73 7.04 5.11.36 1.42-.14 2.88-.27 4.3-6.27-5.3-11.68-11.53-17.63-17.18-4.41-4.97-9.94-8.9-13.68-14.46z"/><path fill="#758dd4" d="M260.39 514.32c3.57-2.12 7.75-2.4 11.79-2.45-9.95 5.15-20.16 9.79-30.27 14.62-.61-1.1-1.19-2.21-1.74-3.33 6.7-3.04 13.79-5.21 20.22-8.84z"/></svg>