<svg xmlns="http://www.w3.org/2000/svg" width="816" height="816" viewBox="0 0 612 612"><g fill="#38312f"><path d="M285.55 0h2.91c6.64 1.04 13.43 1.03 19.99 2.59 3.13.7 6.35.7 9.54.95 3.48.32 6.51 2.38 9.97 2.81 3.75.45 7.57-.03 11.31.61 8.21 1.58 16.5 2.66 24.72 4.12 4.37.85 8.93-.45 13.2 1.06 3.83 1.16 7.71 2.3 11.74 2.47 3.7.1 7.02 1.8 10.4 3.08 3.16 1.2 6.64.74 9.88 1.6 2.55.84 4.67 2.65 7.27 3.38 3.05.84 6.29.72 9.29 1.8 3.7 1.38 6.12 5.02 10 6.05 3.74 1.08 7.81 1.45 11.12 3.68 3.1 1.84 5.48 4.62 8.49 6.57 3.6 1.74 7.88 2.14 10.99 4.85 3.64 3.27 5.27 8.03 7.54 12.24-3.89-2.88-5.13-7.92-8.63-11.13-3.24-2.56-7.59-2.92-11.08-5.01-3.42-2.08-5.98-5.39-9.68-7.04-3.19-1.4-6.67-1.98-9.89-3.31-4.08-1.64-7.43-4.78-11.74-5.87-7.81-1.83-15.18-5.13-23.15-6.32-7.55-2.67-15.59-3.23-23.22-5.56-4.81-1.27-9.84-.23-14.69-1.19-9.87-1.88-19.78-3.81-29.84-4.19-5.9-.11-11.19-3.17-17.03-3.63-3.82-.31-7.61-.78-11.4-1.32-4.72-.62-9.38.98-14.1.58-8.17-.76-16.51-1-24.53.98-8.85 1.2-17.7 3.05-26.68 2.54-6.12-.49-11.45 3.11-17.34 4.01-6.95 1.17-13.91 2.31-20.94 2.83-4.19-.02-6.11 4.23-9.24 6.25-2.79 1.52-6.21 1.54-8.86 3.35-1.76 1.31-.6 3.66-.5 5.43-2.38 3.85-5.26 7.41-8.8 10.25-4.29 3.39-7.32 8.03-11.47 11.56-4.79 3.94-5.97 10.73-11.21 14.27-.56-4.1 1.39-7.8 3.32-11.25-.34-.59-1.01-1.78-1.34-2.38-5.17 4.85-8.3 11.27-10.42 17.93-3.39 8.66-7.09 17.31-8.19 26.63-.86 8.03-4.23 15.6-4.38 23.73-.12 3.32-.05 6.66 0 9.99 1.33-2.09 2.67-4.17 4.01-6.26.39.41 1.17 1.22 1.57 1.63-.76 7.07.38 14.1 2.22 20.92-2.08-1.26-4.14-2.56-6.19-3.86.73 6.2 1.35 12.42 2.55 18.55.7 5.39 5.92 8.16 9.6 11.44 4.62 4.06 10.68 5.6 16.14 8.12-4.69 2.54-10.38 1.19-14.48-1.86-3.08-2.32-5.72-5.14-8.49-7.8-6.16 3.64-12.63 7.09-17.61 12.33-3.64 3.76-4.59 9.06-6.41 13.78-1.8 4.59-4.79 8.59-6.8 13.09-3.39 6.79-5.13 14.32-9.01 20.88-3.34 5.98-6.76 11.92-10.21 17.83-3.02 5.95-4.86 12.41-7.47 18.54-2.38 6.14-8.09 10.23-10.39 16.43-2.84 7.42-6.31 14.65-11.19 20.97-4.21 5.25-6.77 11.64-11.43 16.57-4.24 4.56-7.23 10.07-11 15-4 5.23-6.06 11.67-10.26 16.78-3.83 4.76-7 10.01-9.43 15.62-1.94 4.56-5.34 8.49-6.41 13.4-1.07 6.73.16 13.69 2.99 19.85 2.41 5.13 2.35 11.28 6.02 15.82 3.02 3.82 5.12 8.22 6.88 12.74 3.79 8.74 12.7 13.22 20.24 18.2 4.8 3.38 10.74 4.15 16.21 5.89 2.86 1.23 5.43-.97 8-1.92 3.9-1.88 8.81-.94 12.22-3.94 5.34-4.41 11.75-7.38 16.68-12.3 4-3.76 4.47-9.79 8.32-13.66 3.48-3.57 7.57-6.46 11.19-9.89-.56-2.82-1.36-5.65-1.28-8.54.12-2.47 2-4.36 3.77-5.86 3.96-3.2 8.61-5.33 13.14-7.56l-.09 5.3c-4.56 1.8-8.84 4.28-12.64 7.38 2.25 4.12 4.14 8.62 3.59 13.42-6.01-.3-10.51 4.01-14.51 7.88-1.75 1.85-4.12 4.02-3.47 6.85 1.42 6.81 6.23 12.4 7.45 19.29 1.87 11.68-1.78 23.26-1.68 34.93 1.16 19.33 7.41 37.79 12.54 56.32 7.13-7.03 13.62-14.81 21.8-20.68 7.28-5.28 15.43-9.19 23.71-12.63 5.42-2.18 9.66-6.47 15.1-8.62 4.95-2.13 10.35-2.68 15.59-3.65 5.45-.9 10.38-3.94 15.99-4.06 6.12-.23 12.25.2 18.37-.27-3.07-1.14-6.18-2.16-9.28-3.17.49-1.55.99-3.1 1.49-4.63-4.06-1.49-8.35-2.23-12.39-3.75-2.65-1.04-4.05-3.69-5.67-5.84 7.73-.74 15.53-.65 23.23.29 3.63.32 7.79.71 10.8-1.65-4.13-1.35-8.15-3.03-12.04-4.94 1.21-1.17 2.13-2.99 3.93-3.32 3.15-.5 6.33.16 9.46.56 12.98 1.87 26.18 2.1 39.21.66 17.88-.2 34.66-6.98 51.92-10.74 7.77-1.75 15.15-4.86 22.29-8.34 2.77-1.16 5.36-2.7 7.88-4.31 8.55-5.54 18.16-9.43 25.92-16.15 5.64-5.11 13.43-6.82 19.06-11.93 6.2-5.5 12.32-11.1 19.05-15.97 4.64-4.06 10.18-7.38 13.44-12.78 2.34-3.58 6.15-5.71 9.35-8.42-1.1 1.54-2.11 3.13-3.11 4.73 3.66 1.18 7.69.67 11.25 2.22 4.15 2.27 7.42 5.84 10.36 9.48 2.21-1.07 5.66-1.37 5.86-4.45.93-5.29-3.59-8.88-6.51-12.55-.82-6.87.83-14.2-2.92-20.49-1.07 1.76-2.14 3.53-3.13 5.33-.03-3.05-.28-6.08-.44-9.12-.12-5.08-1.89-9.95-4-14.51.55-1.37 1.37-2.7 1.48-4.21-.91-2.58-3.11-4.38-4.7-6.51-2.15-2.59-3.18-5.85-4.01-9.05-.97-8.22-3.89-16.03-5.61-24.1-.79-5.3-3.64-9.9-5.26-14.92-1.93-9.87-4.64-19.64-5.07-29.73-2.32-10.51-4.69-22-.46-32.34-9.66-.72-17.81-6.62-26.87-9.4-3-.76-6.13-.42-9.16-.96-3.55-1.04-6.2-3.95-9.72-5.06-2.82-.94-5.86-1.32-8.45-2.85-6.1-3.97-13.28-6.24-20.52-6.79-5.13-.49-10.35-2.42-13.94-6.25 2.7-.42 5.49-.43 8.09.55 7.72 2.72 16.3 2.4 23.6 6.39 3.85 2.16 7.9 3.89 12.15 5.08 4.31 1.18 7.56 4.9 12.13 5.31 4.44.48 8.98 1 12.95 3.23 7.18 3.81 14.92 6.36 22.74 8.49 4.41 1.44 8.2-2.24 12.19-3.5 8.88-3.05 18.19-6.25 25.01-13 3.87-4.63 8.22-9.45 9.22-15.62 1.37-7.33 1.87-15.16 6.07-21.58 1.04 5.09.62 10.37-1.51 15.14-2.03 4.6-2.35 9.63-2.39 14.59 5.18 3.38 11.09 6.61 13.73 12.54 3.57 7.56 7.84 14.77 11.43 22.3 1.68 5.87 6.54 10.09 8.27 15.91 2.22 7.23 5.47 14.09 7.62 21.34 1.43 4.97 3.58 9.69 5.51 14.48 2.37 6.29 8.23 10.85 9.13 17.76 2.3 11.53 8.65 21.57 12.99 32.35 1.89 4.37 5.72 7.88 6.26 12.8.69 3.57.65 7.4 2.29 10.72 3.26 5.26 7.69 9.78 10.37 15.4 3.81 8.04 8.77 15.47 12.62 23.49 2.18 4.61 5.89 8.22 8.43 12.6 2.04 3.49 4.57 6.65 7.19 9.72 2.62 2.9 2.13 7.35 4.87 10.2 3.49 3.52 1.51 9.31-2.15 11.89 1.05-3.57 4.65-8.44.69-11.42-4.84-4.42-7.6-10.44-11.38-15.68-3.54-5.19-7.59-10.08-10.3-15.79-2.74-5.82-6.23-11.25-8.83-17.14-3.57-8.26-10.68-14.36-14.36-22.57-2.05-4.81-1.51-10.38-4.06-15.02-2.04-3.65-4.4-7.12-5.98-11-2.53-6.04-6.17-11.58-8.16-17.86-2.17-6.13-2.54-13-6.48-18.41-5.42-7.71-9-16.52-11.61-25.53-1.7-6.03-4.17-11.8-6.24-17.71-4-11.7-12.17-21.37-16.63-32.86-1.73-4.37-3.79-8.84-7.54-11.87-3.67-2.95-7.18-6.13-9.85-10.04-3.98 4.24-4.41 11.38-10.22 13.81-8.82 5.16-18.38 8.88-28.28 11.41-2.32.9-5.9.89-6.42 3.93-3.23 11.89 1.18 23.87 3.16 35.57 2.02 6.06-.34 12.64 2.19 18.58 4.34 11.38 6.03 23.51 9.93 35.03 1.35 4.2 2.03 8.59 3.35 12.8 1.25 4.03 4.42 7.18 5.41 11.32.98 4.27.98 8.72 2.23 12.94 1.35 4.69 4.28 8.74 5.54 13.46 1.31 4.85 1.5 9.98 3.5 14.65 1.86 4.43 4.04 8.73 5.94 13.15 2.87 6.16 4.87 12.69 8.07 18.7 3.87 7.36 5.6 15.78 10.55 22.57 1.81 2.52 3.64 5.04 5.26 7.7 3.14 5.42 7.98 9.62 10.84 15.23 2.95 5.83 8.62 9.38 13.68 13.2 5.21 3.96 11.8 5.31 17.33 8.73 2.59 1.4 5.35 3.47 8.49 2.62 9.66-2.15 18.13-7.84 24.92-14.91 4.45-4.78 10.86-6.97 15.51-11.45 3.72-4.01 4.36-9.67 5.28-14.82 1.48-.44 2.97-.89 4.47-1.32-1.93 5.83-2.49 12.36-6.71 17.17-3.17 4.85-9.52 5.52-13.41 9.55-4.47 4.25-8.78 8.85-14.47 11.49-6.28 3-12.78 7.05-20.02 6.37-4.5-1.38-8.71-3.73-13.42-4.45-2.38-.57-5.04-.45-7.13-1.85-2.03-2.32-2.87-5.52-5.18-7.6-3.24-2.13-6.74-3.88-9.73-6.39-3.96-2.76-5.05-8.24-9.52-10.42-2.31-.64-4.74-.54-7.1-.71 3.1 9.07 7.86 18.15 16.02 23.62 2.08 1.64 5.83 3.39 4.21 6.64-3.21 4.59-9.45 5.26-14.37 7.07.3 1.04.6 2.09.96 3.12-2.09.21-4.18.43-6.26.66-.47-.92-.93-1.84-1.38-2.76-10.37.49-20.25-3.37-28.78-8.98-8.68-4.73-14.7-13.35-17.47-22.7-1.25-5.37-2.5-10.73-4.13-15.99-6.18 3.74-10.09 10.01-15.43 14.72-6.63 6.02-12.27 13.11-19.47 18.49-5.02 3.85-9.83 7.96-15.02 11.57-7.26 5.49-15.48 9.46-23.03 14.52-7.91 5.25-17.05 8.11-25.96 11.15-5.7 2.21-11.76 3.22-17.54 5.18-3.74 1.39-7.88.97-11.56 2.56-7.46 2.98-15.41 4.31-23.06 6.68-14.88 4.47-29.73 9.02-44.45 14.03-5.57 1.94-10.82 4.7-16.44 6.52-4.17 1.35-7.71 3.96-11.18 6.53-5.46 3.98-12.21 5.31-18.36 7.84-4.87 2.01-9.77 3.93-14.57 6.1-5.02 2.3-10.46 3.9-14.88 7.31-2.7 2.13-5.32 4.35-8.17 6.28-1.47 1.06-2.95 2.13-4.35 3.29-2.15 1.73-3.77 4.13-6.19 5.52-6.24 2.16-12.93 1.02-19.28.04-4.96-.67-6.51-6.07-8.5-9.87-5.03-10.14-7.47-21.24-10.87-31.97-2.35-11.5-8.06-22.06-9.44-33.8-2.13-9.69-3.51-19.61-2.79-29.55.35-10.08 4.66-20.48.94-30.37-.34-.94-.68-1.88-.98-2.83-.16-1.3-.25-2.6-.37-3.9-4.77 6.28-8.37 13.29-12.14 20.18-2.31 2.92-2.78 6.66-1.99 10.23-2.83 5.11-5.17 10.47-7.81 15.67-2.89 3.87-6.13 7.49-8.57 11.67-3.47 5.93-5.85 12.42-7.92 18.95-2.75 6.71-5.41 13.46-7.83 20.3-1.34 2.93.18 5.85 1.41 8.51-1.15 3.41-2.49 6.76-3.88 10.09-1.3-.27-2.6-.52-3.9-.74l-.24-3.06c3.32-22.51 14.34-42.7 23.37-63.27 8.29-16.58 14.94-34.1 25.8-49.26 2.17-2.43.77-5.51-.1-8.15-6.43 4.18-11.6 9.96-18.06 14.1-2.96 4.02-8.03 4.21-12.5 5.15-4.03.68-7.46 4.52-11.75 3.1-4.7-1.47-9.85-2.27-13.77-5.47-3.8-2.87-8.59-3.92-12.55-6.52-6.67-4.71-12.64-10.86-15.38-18.71-1.95-5.76-7.93-9.63-8.06-16.01-.45-4.14-2.85-7.66-4.15-11.53-2.18-5.95-3.32-12.62-1.64-18.82 5.49-13.42 12.95-25.9 20.9-37.98 3.08-6.85 8.84-11.89 12.61-18.3 3.25-5.41 7.73-9.98 10.58-15.64 5.1-8.53 12.72-15.88 15.01-25.85 1.34-4.78 5.14-8.16 8.21-11.85 2.47-2.93 2.96-6.86 4.07-10.4 2.12-5.66 4.26-11.39 8.29-16 3.71-9.07 9.24-17.27 12.77-26.41a78.926 78.926 0 0 1 9.43-18.53c2.23-3.17 1.96-7.28 3.5-10.74 1.19-2.65 2.58-5.23 4.33-7.55 2.47-3.34 6.49-4.85 9.61-7.43 2.61-2.19 5.2-4.4 7.88-6.5-1.7-3.29-3.02-6.75-3.7-10.39-4.14-16.58-5.63-33.96-2.75-50.87.73-3.33 2.73-6.24 3.27-9.63 2.23-13.35 6.8-26.19 12.28-38.52 2.96-4.96 6.84-9.31 9.79-14.29 2.9-5.07 8.42-7.51 12.59-11.33 3.4-2.58 6.03-6.17 10-7.94 4.16-1.99 6.51-6.58 11.14-7.8 5.2-1.44 9.02-6.59 14.76-6.09 7.91.33 15.23-3.33 23.07-3.78 6.88-.11 13.05-3.96 19.97-3.8 4.9-.03 9.71-1.06 14.58-1.56 3.96-.69 8.06.71 11.94-.71 5.26-1.95 10.89 1.1 16.07-1.4z"/><path d="M492.3 128.28c.26-7.46-.18-15.34 2.93-22.31.13 3.25.6 6.48.54 9.73-.53 11.09-.36 22.22.51 33.29.29 3.13-1.16 6.03-2.72 8.64-.82-9.76-.5-19.58-1.26-29.35zm-357.15 20.54c4.78 1.71 6.01 7.11 7.85 11.26.46 1.86 2.14 4 .84 5.84-2.58-.93-3.7-3.53-4.68-5.86-1.49-3.7-4.18-7.05-4.01-11.24zm55.17 70.76c3.63.38 7-1.35 10.61-1.22 3.19 0 6.45-.22 9.58.51a23.9 23.9 0 0 1 9.04 6.58c2.07 3.18 1.86 7.16 1.92 10.8 1.11.65 2.21 1.31 3.3 2 .01.5.02 1.52.02 2.03-6.6.29-10.32 7.29-16.79 8.14-3.51.37-7.52.47-10.25-2.16-3.86-4.06-7.59-9.3-6.74-15.22.44-3.84.09-7.7-.69-11.46m20.05 7.71c-.02 1.38-.02 2.76-.01 4.14 1.76-.02 3.52-.03 5.28-.04l-.36-3.58c-1.64-.19-3.28-.36-4.91-.52zm99.7 11.23c-1.11-7.74 6.49-12.87 12.97-14.72 5.11.16 10.29 1.13 15.02 3.1 1.96 1.9 4.2 3.84 5.02 6.53.33 2.28-.36 4.54-.92 6.72-2.65 5.7-7.98 9.76-13.27 12.89-6.04 1.73-12.56-.63-17.08-4.77-1.67-1.77-5.16-2.45-5.2-5.25.96-1.64 2.25-3.06 3.46-4.5m19.45-7.02c.08 1.37.16 2.73.25 4.1 1.19.05 2.38-.02 3.56-.18 1.75-.6 1.26-2.64 1.6-4.06-1.81.02-3.61.07-5.41.14zM222.4 272.25c3.21-.98 7.13.83 8.44 3.98 1.27 2.79 2.92 6.12 1.65 9.17-.98 2.41-4.1 2.42-6.11 1.43-4.04-1.53-5.7-6.03-6.46-9.94-.56-1.93.8-3.83 2.48-4.64zm27.18 3.37c2.69-.79 5.46.37 8.13.75 1.01 3.87.71 8.13-2.02 11.26-1.94 3.3-6.29 3.14-9.56 2.46-2.06-1.58-3.36-4.34-3.14-6.93.99-3.27 3.54-6.05 6.59-7.54zm-184.25 57.7c1.76-2.19 4.25-3.52 6.88-4.36-1.26 4.64-5.31 7.59-7.63 11.63-3.01 4.95-4.97 10.73-9.56 14.55.28-8.34 5.03-15.69 10.31-21.82zm-23.66 42.57c.84-5.4 2.94-11.7 8.22-14.2l.84 1.2c-1.76 4.37-4.32 8.38-6.08 12.76-2.16 4.68-3.28 10.2-7.51 13.57-.32-5.04 4.09-8.49 4.53-13.33z"/></g><g fill="#5d4c41"><path d="M264.93 4.85c8.02-1.98 16.36-1.74 24.53-.98 4.72.4 9.38-1.2 14.1-.58 3.79.54 7.58 1.01 11.4 1.32 5.84.46 11.13 3.52 17.03 3.63 10.06.38 19.97 2.31 29.84 4.19 4.85.96 9.88-.08 14.69 1.19 7.63 2.33 15.67 2.89 23.22 5.56 7.97 1.19 15.34 4.49 23.15 6.32 4.31 1.09 7.66 4.23 11.74 5.87 3.22 1.33 6.7 1.91 9.89 3.31 3.7 1.65 6.26 4.96 9.68 7.04 3.49 2.09 7.84 2.45 11.08 5.01 3.5 3.21 4.74 8.25 8.63 11.13 3.88 1.87 8.08 4 10.07 8.07 1.71 3.57 3.11 7.32 5.4 10.59 4.1 6.11 5.58 13.45 6.71 20.6.52 2.98-.13 5.97-.86 8.85-3.11 6.97-2.67 14.85-2.93 22.31.76 9.77.44 19.59 1.26 29.35-.8 1.37-1.59 2.75-2.37 4.14-4.2 6.42-4.7 14.25-6.07 21.58-1 6.17-5.35 10.99-9.22 15.62-6.82 6.75-16.13 9.95-25.01 13-3.99 1.26-7.78 4.94-12.19 3.5-7.82-2.13-15.56-4.68-22.74-8.49-3.97-2.23-8.51-2.75-12.95-3.23-4.57-.41-7.82-4.13-12.13-5.31-4.25-1.19-8.3-2.92-12.15-5.08-7.3-3.99-15.88-3.67-23.6-6.39-2.6-.98-5.39-.97-8.09-.55-2.63.22-5.26.63-7.9.38-3.13-.73-5.13-3.72-8.2-4.6-7.31-1.91-15.07-1.21-22.27-3.59-4.43-1.33-9.1-1.52-13.59-2.57-14.14-2.92-28.58-3.96-42.99-4.28-4.42.51-8.88.73-13.31.11-5.27-.66-10.38 1.51-15.63 1.02-6.52-1.13-12.76 1.76-19.07 2.96-3.43 1.19-6.93-.44-10.39-.1-5.46 1.05-10.67 3.31-16.29 3.53-2.87.53-6.63-.09-8.38 2.79-6.34 8.29-13.37 16.01-19.5 24.47-6.45 7.63-10.53 16.82-15.66 25.32-3.38 5.95-7.56 11.46-10.24 17.79-2.21 5.03-4.61 9.96-7.08 14.86-2.49 4.9-3.94 10.21-5.98 15.29-4.12 8.78-8.98 18.44-6.66 28.4 1.18 6.23 1.42 12.65 3.27 18.76 3.73 12.89 7.66 25.89 14.3 37.63 6.16 10.75 13.85 20.57 22.41 29.51 21.21 18.21 45.47 32.59 70.7 44.49 17.25 7.49 35.68 11.76 54.2 14.75.7.4 2.09 1.2 2.79 1.6-4.52.72-8.98-.66-13.41-1.37-8.57-1.43-16.85-4.25-25.47-5.39 6.43 4.51 14.38 5.24 21.78 7.1 7.4 1.95 15.12 1.4 22.67 2.17 14.75 1.1 29.58-1.03 43.86-4.67 10.62-1.72 21-4.65 31.23-7.91 7.01-3.37 14.78-5.7 20.59-11.08 6.04-4.98 13.4-7.89 19.91-12.14 8.12-5.27 15.84-11.15 23.36-17.23 10.66-7.66 18.98-17.94 27.96-27.39 7.15-7.38 11.34-17.27 19.28-23.93.16 3.04.41 6.07.44 9.12-2.98 5.91-7.53 10.76-11.8 15.73-3.2 2.71-7.01 4.84-9.35 8.42-3.26 5.4-8.8 8.72-13.44 12.78-6.73 4.87-12.85 10.47-19.05 15.97-5.63 5.11-13.42 6.82-19.06 11.93-7.76 6.72-17.37 10.61-25.92 16.15-2.52 1.61-5.11 3.15-7.88 4.31-6.52.61-12.29 4.04-18.67 5.25-7.03 1.39-13.8 3.82-20.85 5.05-10.18 1.72-20.4 3.55-30.75 3.63-11.64.3-23.24-1.11-34.74-2.74-10.24-1.46-19.38-6.59-29.17-9.59-13.64-3.98-26.1-10.96-38.53-17.67-8.11-4.25-15.31-9.97-22.77-15.23-4.89-3.47-10.53-5.92-14.77-10.26-3.51-3.63-6.63-7.61-10.15-11.24-1.47.49-2.94.97-4.39 1.51l.09-5.3c-4.53 2.23-9.18 4.36-13.14 7.56-1.77 1.5-3.65 3.39-3.77 5.86-.08 2.89.72 5.72 1.28 8.54-3.62 3.43-7.71 6.32-11.19 9.89-3.85 3.87-4.32 9.9-8.32 13.66-4.93 4.92-11.34 7.89-16.68 12.3-3.41 3-8.32 2.06-12.22 3.94-2.57.95-5.14 3.15-8 1.92-5.47-1.74-11.41-2.51-16.21-5.89-7.54-4.98-16.45-9.46-20.24-18.2-1.76-4.52-3.86-8.92-6.88-12.74-3.67-4.54-3.61-10.69-6.02-15.82-2.83-6.16-4.06-13.12-2.99-19.85 1.07-4.91 4.47-8.84 6.41-13.4 2.43-5.61 5.6-10.86 9.43-15.62 4.2-5.11 6.26-11.55 10.26-16.78 3.77-4.93 6.76-10.44 11-15 4.66-4.93 7.22-11.32 11.43-16.57 4.88-6.32 8.35-13.55 11.19-20.97 2.3-6.2 8.01-10.29 10.39-16.43 2.61-6.13 4.45-12.59 7.47-18.54 3.45-5.91 6.87-11.85 10.21-17.83 3.88-6.56 5.62-14.09 9.01-20.88 2.01-4.5 5-8.5 6.8-13.09 1.82-4.72 2.77-10.02 6.41-13.78 4.98-5.24 11.45-8.69 17.61-12.33 2.77 2.66 5.41 5.48 8.49 7.8 4.1 3.05 9.79 4.4 14.48 1.86-5.46-2.52-11.52-4.06-16.14-8.12-3.68-3.28-8.9-6.05-9.6-11.44-1.2-6.13-1.82-12.35-2.55-18.55 2.05 1.3 4.11 2.6 6.19 3.86-1.84-6.82-2.98-13.85-2.22-20.92-.4-.41-1.18-1.22-1.57-1.63-1.34 2.09-2.68 4.17-4.01 6.26-.05-3.33-.12-6.67 0-9.99.15-8.13 3.52-15.7 4.38-23.73 1.1-9.32 4.8-17.97 8.19-26.63 2.12-6.66 5.25-13.08 10.42-17.93.33.6 1 1.79 1.34 2.38-1.93 3.45-3.88 7.15-3.32 11.25 5.24-3.54 6.42-10.33 11.21-14.27 4.15-3.53 7.18-8.17 11.47-11.56 3.54-2.84 6.42-6.4 8.8-10.25-.1-1.77-1.26-4.12.5-5.43 2.65-1.81 6.07-1.83 8.86-3.35 3.13-2.02 5.05-6.27 9.24-6.25 7.03-.52 13.99-1.66 20.94-2.83 5.89-.9 11.22-4.5 17.34-4.01 8.98.51 17.83-1.34 26.68-2.54m39.98 41.06c-2.08 1.91-3.89 4.58-6.88 5.03-4.68.82-9.44 1.06-14.06 2.19 3.82 1.93 7.72 3.83 10.77 6.92-2.01 2.76-3.73 5.73-4.88 8.96 4.14-.88 7.95-2.92 12.14-3.57 8.6.46 15.74 5.99 21.89 11.54-1.07-5.19-3.06-10.13-4.22-15.3 5.01.38 9.87-1.12 14.35-3.25-5.98-2.62-12.6-3.01-18.83-4.82-.31-4.93-.31-9.88-.48-14.82-3.74 1.66-7.01 4.15-9.8 7.12M135.15 148.82c-.17 4.19 2.52 7.54 4.01 11.24.98 2.33 2.1 4.93 4.68 5.86 1.3-1.84-.38-3.98-.84-5.84-1.84-4.15-3.07-9.55-7.85-11.26m-69.82 184.5c-5.28 6.13-10.03 13.48-10.31 21.82 4.59-3.82 6.55-9.6 9.56-14.55 2.32-4.04 6.37-6.99 7.63-11.63-2.63.84-5.12 2.17-6.88 4.36m-23.66 42.57c-.44 4.84-4.85 8.29-4.53 13.33 4.23-3.37 5.35-8.89 7.51-13.57 1.76-4.38 4.32-8.39 6.08-12.76l-.84-1.2c-5.28 2.5-7.38 8.8-8.22 14.2m126.21 40.18c6.64 5.19 13.72 9.9 21.37 13.49 10.61 5.19 20.49 12.14 32.07 15.07-4.03-3.84-9.66-4.88-14.47-7.38-10.8-5.31-21.34-11.13-31.48-17.61-2.31-1.54-4.77-2.91-7.49-3.57z"/><path d="M206.38 190.44c3.05-.33 6.09.39 9 1.25 7.98 2.61 15.86 5.61 23.28 9.56 1.67 1.17 4.27 2.34 4.01 4.77-.19 3.9-.3 8.44-3.31 11.34-2.55 2.41-5.57 5.18-9.39 4.48-3.27.38-5.43-2.33-7.92-3.91-4.72-3.16-9.48-6.56-12.57-11.43-2.63-3.91-6.98-7.38-6.88-12.49.65-1.6 1.95-3.34 3.78-3.57m-.36 4.03c4.61 10.99 14.33 19.17 25.01 24.01 5.12-1.5 8.87-6.99 8.32-12.41-1.72-2.05-4.48-2.58-6.77-3.71-4.23-1.61-7.83-4.63-12.29-5.65-4.67-1.16-9.39-2.87-14.27-2.24zm268.88 11.44c5.81-2.43 6.24-9.57 10.22-13.81 2.67 3.91 6.18 7.09 9.85 10.04 3.75 3.03 5.81 7.5 7.54 11.87 4.46 11.49 12.63 21.16 16.63 32.86 2.07 5.91 4.54 11.68 6.24 17.71 2.61 9.01 6.19 17.82 11.61 25.53 3.94 5.41 4.31 12.28 6.48 18.41 1.99 6.28 5.63 11.82 8.16 17.86 1.58 3.88 3.94 7.35 5.98 11 2.55 4.64 2.01 10.21 4.06 15.02 3.68 8.21 10.79 14.31 14.36 22.57 2.6 5.89 6.09 11.32 8.83 17.14 2.71 5.71 6.76 10.6 10.3 15.79 3.78 5.24 6.54 11.26 11.38 15.68 3.96 2.98.36 7.85-.69 11.42-1.5.43-2.99.88-4.47 1.32-.92 5.15-1.56 10.81-5.28 14.82-4.65 4.48-11.06 6.67-15.51 11.45-6.79 7.07-15.26 12.76-24.92 14.91-3.14.85-5.9-1.22-8.49-2.62-5.53-3.42-12.12-4.77-17.33-8.73-5.06-3.82-10.73-7.37-13.68-13.2-2.86-5.61-7.7-9.81-10.84-15.23-1.62-2.66-3.45-5.18-5.26-7.7-4.95-6.79-6.68-15.21-10.55-22.57-3.2-6.01-5.2-12.54-8.07-18.7-1.9-4.42-4.08-8.72-5.94-13.15-2-4.67-2.19-9.8-3.5-14.65-1.26-4.72-4.19-8.77-5.54-13.46-1.25-4.22-1.25-8.67-2.23-12.94-.99-4.14-4.16-7.29-5.41-11.32-1.32-4.21-2-8.6-3.35-12.8-3.9-11.52-5.59-23.65-9.93-35.03-2.53-5.94-.17-12.52-2.19-18.58-1.98-11.7-6.39-23.68-3.16-35.57.52-3.04 4.1-3.03 6.42-3.93 9.9-2.53 19.46-6.25 28.28-11.41zm-150.44-5.26c5.98-.53 12.07-.7 18.03.09 3.83 1.25 2.53 6.82.16 8.97-9.53 9.33-22.75 14.22-35.81 15.82-6.75.87-11.47-7.4-8.39-13.07 2.32-4.12 5.63-8.23 10.39-9.54 5.07-1.53 10.43-1.37 15.62-2.27m-6.46 4.16c-5.32.53-11.61 1.5-14.7 6.42-1.65 2.35-3.02 5.96-.94 8.47 1.67 2.37 4.95 1.84 7.45 1.71 10.44-1.87 20.75-5.77 28.92-12.69 1.37-1.11 1.89-2.83 2.5-4.41-7.71-1.68-15.5.14-23.23.5zm-51.55 2.46c1.01.1 2.03.17 3.06.21 1.35 3.97 3.28 7.7 4.86 11.57-.4 1.57-1.02 3.07-1.6 4.59-1.45.03-2.9.02-4.35.07.1-5.54.35-11.26-1.97-16.44zm9.56 21.13c-1.3-2.47-2.48-5.87-.09-8.1 4.7-.06 2.97 6.44.09 8.1zm62.05-1.5c2.29.78 4.28 2.18 6.02 3.84 1.65-.08 3.3-.17 4.96-.19-2.44 3.1-5.16 6.01-6.88 9.6.56-2.18 1.25-4.44.92-6.72-.82-2.69-3.06-4.63-5.02-6.53zm-88.09 9.93c5.14-.48 10.33-.72 15.49-.45 6.22.38 11.76 3.45 17.35 5.93 5.82 2.59 11.18 6.07 16.7 9.25 4.06 2.47 8.54 5.31 9.67 10.3-5.56-2.19-9.82-6.58-15.26-9-1.28-.8-2.55-1.61-3.81-2.42-4.65-3.17-9.8-5.44-14.95-7.65-3.47-1.44-7.08-2.8-10.87-2.94-4.95 3.57-9.34 7.91-14.52 11.19 2.23-4.26 5.7-7.64 8.76-11.29-8.63.05-17.11 2.21-24.65 6.43-14.38 6.23-26.33 16.54-38.41 26.28-4.25 3.07-5.07 8.68-5.38 13.54-.16 4.43.84 9.01-1.02 13.23-4.1-7.62-2.8-16.72-.48-24.67 2.39-3.49 6.04-5.85 9.18-8.61 9.42-7.43 18.5-15.64 29.57-20.58 7.38-3.21 14.62-7.14 22.63-8.54z"/><path d="M216.66 272.97c-.8-5.06 2.12-10.79 7.26-12.16 7.97-.62 16.05-1.07 23.95.45 6.46 1.09 13.97 1.67 18.14 7.48.47 2.48.68 5.04.12 7.54-1.86 9.91-8.07 18.79-16.35 24.46-3.6 2.45-8.09 2.64-12.29 2.85 1.87 9.13.48 18.5.98 27.74 3.6 1.05 7.25 2.05 10.63 3.71 6.81 3.28 14.41 4.31 21.88 4.8 5.63.66 11.45.4 16.9-1.21 4.3-1.69 8.3-4.09 12.24-6.46 3.63-2.06 3.11-7.53 6.97-9.38 1.3-.08 2.59-.05 3.9.08-.82 5.79-5.66 9.73-9.97 13.13-6.06 3.73-12.65 7.61-19.99 7.64-9.23.18-18.66-.04-27.5-3.04-5.01-1.53-9.47-4.77-14.79-5.27-6.83-1.03-12.92 3.3-19.71 3.22-8.95 1.03-17.45-2.28-26.02-4.21.95 4.1 2.86 7.87 4.1 11.88-1.81-.82-4.02-1.42-4.91-3.4-2.23-3.34-1.05-7.51-2.01-11.16-2.11-3.23-6.05-5.47-6.41-9.64-.25-6.48 1.18-12.88 1.98-19.29.69-.14 2.05-.41 2.73-.55.16 5.66-1.03 11.24-1.06 16.89.01 1.49-.11 3.15.88 4.4 2.48 3.48 5.53 6.97 9.74 8.29 3.9 1.3 7.89 2.52 12.01 2.88 7.88.23 16.55.61 23.22-4.34 1.35-1.78 1.28-4.15 1.4-6.26.04-7.31.1-14.63-.48-21.92-3.19-.9-6.84-1.47-9.05-4.2-2.27-2.8-4.21-5.91-5.65-9.22-1.83-5.04-2.17-10.46-2.84-15.73m5.74-.72c-1.68.81-3.04 2.71-2.48 4.64.76 3.91 2.42 8.41 6.46 9.94 2.01.99 5.13.98 6.11-1.43 1.27-3.05-.38-6.38-1.65-9.17-1.31-3.15-5.23-4.96-8.44-3.98m27.18 3.37c-3.05 1.49-5.6 4.27-6.59 7.54-.22 2.59 1.08 5.35 3.14 6.93 3.27.68 7.62.84 9.56-2.46 2.73-3.13 3.03-7.39 2.02-11.26-2.67-.38-5.44-1.54-8.13-.75zm-131.82 36.61c-2.95-4.01-.87-9.24 2.47-12.28.9 2.86.15 5.79 0 8.69 1.08.86 2.28 1.55 3.44 2.3-.82 4.04-1.36 8.14-1.26 12.28-5.36-1.13-1.67-7.79-4.65-10.99zm285.58 1.13c1.33.05 2.66.1 4 .16.62 6.71.52 13.55-1.8 19.96-.91.6-1.84 1.15-2.79 1.67-.5-3.47.02-6.93.78-10.31.88-3.8.05-7.66-.19-11.48zm48.76 5.46c.83 3.2 1.86 6.46 4.01 9.05 1.59 2.13 3.79 3.93 4.7 6.51-.11 1.51-.93 2.84-1.48 4.21-.65-.99-1.3-1.99-1.94-2.97-3.22-5.01-4.62-10.95-5.29-16.8zm-55.68 11.43c.53.03 1.58.08 2.11.11.12 3.4.54 6.85-.11 10.22-1.56 2.42-5.02 3.08-7.48 1.65 1.4-1.65 3.17-2.99 4.42-4.76.67-2.35.78-4.81 1.06-7.22zm6.31 7.13c.53-.08 1.58-.25 2.1-.33.41 6.69-4.34 11.76-7.92 16.86-3.44 4.45-7.38 9.69-13.45 10.23l.52-2.88c8.09-6.22 15.13-14.22 18.75-23.88zm-273.52.39c2.42 2.99 4.01 6.6 6.79 9.3 2.15 2.21 3.53 5.01 5.3 7.52 2.41 3.78 5.66 7.16 6.74 11.64-3.29-.57-5.58-3.17-7.34-5.8-3.74-5.96-7.28-12.03-10.85-18.08-.78-1.39-.46-3.07-.64-4.58zm189.1 7.61c2.57-2.16 4.76-5.05 8.27-5.68-1.22 4.41-5.19 9.16-10.11 8.95-.39-1.49.89-2.39 1.84-3.27zm66.7 4.51c1.41-2.85 4.39-4.27 6.89-5.98.41.58 1.23 1.75 1.64 2.33-3.79 3.72-7.37 7.69-11.45 11.09.73-2.57 1.7-5.07 2.92-7.44zm-187.52-2.03c1.73.6 3.38 1.43 4.86 2.52-1.66.13-3.31.2-4.97.28.03-.7.08-2.1.11-2.8zm104.43 4.44c4.12-.92 8.04-2.7 12.28-3.09-3.96 4.25-10.08 4.97-15.57 5.05.84-1.03 1.95-1.78 3.29-1.96zm-48.05 5.29c4.34-2.43 9.18-3.75 13.9-5.27-.06.52-.16 1.56-.22 2.08-4.56 1.09-8.9 3.32-13.68 3.19z"/><path d="M202.31 352.91c5.71 1.7 11.21 4.05 16.98 5.57 4.95 1.21 9.54 3.9 14.73 4.05 11.59.51 23.06-1.67 34.5-3.19 8.94.13 17.68-1.99 26.52-3.05-4.39 5.34-11.67 5.62-18.03 6.11-4.1-.15-7.84 1.94-11.9 2.17-3.33.4-6.66-.41-9.99-.17-3.44.52-6.57 2.54-10.13 2.36-14.82-.08-29.67-3.84-42.69-10.93 0-.73 0-2.19.01-2.92z"/><path d="M220.66 355.44c7.61.1 15.23.33 22.81-.58-.28.4-.84 1.2-1.13 1.6-4.64 1.55-9.64.7-14.43 1.14-2.52.01-5.7.29-7.25-2.16zm152.55 15.76c1.97-1.68 3.62-3.73 5.76-5.23 1.4.6 1.75 1.54 1.06 2.81-1.73 2.92-4.2 5.39-6.94 7.37-2.34 1.45-5.8 2.22-7.98.08 2.7-1.68 5.68-2.93 8.1-5.03zm126.51 118.07c2.08-.23 4.17-.45 6.26-.66 13.82 24.29 25.85 49.56 37.36 75.01 1.41 2.58 1.37 5.57 1.17 8.42-1.75-2.11-3.25-4.38-4.73-6.66-2.01 3.27-3.87 6.91-7.24 9.01-3.07 2.05-6.92 2.22-10.19 3.79-3.51 4.41-5.22 10.01-8.86 14.35-4.03 4.66-10.78 4.78-15.59 8.29-7.85 5.37-17.25 7.39-25.84 11.18h-3.6c10.03-3.39 20.46-6.22 29.42-12.07 4.23-2.76 9.45-3.52 13.54-6.51 5.09-4.27 6.31-11.38 10.54-16.27 3.88-1.45 8.44-1.55 11.63-4.51 2.64-2.44 5.05-5.85 4.94-9.57-1.7-3.96-4.81-7.12-6.55-11.07-5.6-11.95-10.6-24.21-17.35-35.58-5.32-8.85-10.15-17.99-14.91-27.15zM76.5 502.63c2.44-4.18 5.68-7.8 8.57-11.67-2.34 5.99-4.7 11.96-7.37 17.81-6.14 13.5-10.49 27.7-15.54 41.62-1.23-2.66-2.75-5.58-1.41-8.51.08 1.46.2 2.93.37 4.4 2.3-5.31 3.67-10.95 5.91-16.28 1-2.68 2.67-5.51 1.55-8.42 2.07-6.53 4.45-13.02 7.92-18.95zM99 517.56c.27-4.36 4.59-8.72 9.1-7.79-2.71 2.47-7.33 4.37-6.78 8.76.22 3.89-2.92 6.74-3.55 10.43-.79 3.94-2.39 7.63-3.82 11.36-.29.1-.86.28-1.14.38l-1.16-3.28c1.77-2.17 3.31-4.62 3.74-7.44.63-4.32 3.29-8.03 3.61-12.42zm249.75 14.28c3.92.4 5.8 4.2 6.87 7.54.68 2.52 1.9 5.73-.4 7.81-2.57 1.23-5.5 1.24-8.27 1.64-.23-2.12-.43-4.24-.6-6.35 2.55-.63 4.76.9 6.81 2.15-.55-4.56-2.82-8.57-4.41-12.79zm-296.4 36.17c-.09-3.86 1.17-7.56 1.79-11.33l.24 3.06c-.43 2.77-1.42 5.43-1.63 8.24 1.13 7.88 7.88 13.05 13.95 17.34 7.56 4.59 15.46 8.89 24.09 11.1 4.53 1.7 9.23.22 13.8-.36 4.42 5.97 9.07 12.19 15.63 15.94h-1.77c-5.85-4.11-10.38-9.81-14.51-15.58-9.68 3.23-19.78-.65-28.34-5.19-7.31-3.54-14.24-8.05-19.65-14.18-2.08-2.54-3.6-5.7-3.6-9.04zm112.14 13.6c1.4-1.16 2.88-2.23 4.35-3.29-.23 3.7 0 7.41.54 11.09 2.08-1.82 4.04-3.77 6.04-5.66 1.14 4.27 1.18 9.38 4.68 12.58 4.2 1.3 8.1-.99 11.35-3.41.29 3.13.17 6.38 1.3 9.36 1.73 2.77 4.82 4.19 7.34 6.1-2.41.05-4.98.66-7.3-.19-2.96-1.86-3.64-5.58-4.73-8.63-3.61.35-7.7 1.59-10.89-.77-1.97-1.84-2.83-4.49-3.98-6.84-1.85.31-3.74.77-5.63.47-2.65-2.91-2.2-7.21-3.07-10.81z"/></g><g fill="#b74147"><path d="M304.91 45.91c2.79-2.97 6.06-5.46 9.8-7.12.17 4.94.17 9.89.48 14.82 6.23 1.81 12.85 2.2 18.83 4.82-4.48 2.13-9.34 3.63-14.35 3.25 1.16 5.17 3.15 10.11 4.22 15.3-6.15-5.55-13.29-11.08-21.89-11.54-4.19.65-8 2.69-12.14 3.57 1.15-3.23 2.87-6.2 4.88-8.96-3.05-3.09-6.95-4.99-10.77-6.92 4.62-1.13 9.38-1.37 14.06-2.19 2.99-.45 4.8-3.12 6.88-5.03zM132.48 396.22c1.45-.54 2.92-1.02 4.39-1.51 3.52 3.63 6.64 7.61 10.15 11.24 4.24 4.34 9.88 6.79 14.77 10.26 7.46 5.26 14.66 10.98 22.77 15.23 12.43 6.71 24.89 13.69 38.53 17.67 9.79 3 18.93 8.13 29.17 9.59 11.5 1.63 23.1 3.04 34.74 2.74 10.35-.08 20.57-1.91 30.75-3.63 7.05-1.23 13.82-3.66 20.85-5.05 6.38-1.21 12.15-4.64 18.67-5.25-7.14 3.48-14.52 6.59-22.29 8.34-17.26 3.76-34.04 10.54-51.92 10.74a155.473 155.473 0 0 1-39.21-.66c-3.13-.4-6.31-1.06-9.46-.56-1.8.33-2.72 2.15-3.93 3.32 3.89 1.91 7.91 3.59 12.04 4.94-3.01 2.36-7.17 1.97-10.8 1.65-7.7-.94-15.5-1.03-23.23-.29 1.62 2.15 3.02 4.8 5.67 5.84 4.04 1.52 8.33 2.26 12.39 3.75-.5 1.53-1 3.08-1.49 4.63 3.1 1.01 6.21 2.03 9.28 3.17-6.12.47-12.25.04-18.37.27-5.61.12-10.54 3.16-15.99 4.06-5.24.97-10.64 1.52-15.59 3.65-5.44 2.15-9.68 6.44-15.1 8.62-8.28 3.44-16.43 7.35-23.71 12.63-8.18 5.87-14.67 13.65-21.8 20.68-5.13-18.53-11.38-36.99-12.54-56.32-.1-11.67 3.55-23.25 1.68-34.93-1.22-6.89-6.03-12.48-7.45-19.29-.65-2.83 1.72-5 3.47-6.85 4-3.87 8.5-8.18 14.51-7.88.55-4.8-1.34-9.3-3.59-13.42 3.8-3.1 8.08-5.58 12.64-7.38z"/><path d="M94.87 465.06c5.16-4.65 7.8-11.25 12.51-16.28.3.95.64 1.89.98 2.83-6.34 7.06-10.17 15.88-15.48 23.68-.79-3.57-.32-7.31 1.99-10.23z"/></g><g fill="#f8cfa3"><path d="M204.08 175.85c6.31-1.2 12.55-4.09 19.07-2.96 5.25.49 10.36-1.68 15.63-1.02 4.43.62 8.89.4 13.31-.11 14.41.32 28.85 1.36 42.99 4.28 4.49 1.05 9.16 1.24 13.59 2.57 7.2 2.38 14.96 1.68 22.27 3.59 3.07.88 5.07 3.87 8.2 4.6 2.64.25 5.27-.16 7.9-.38 3.59 3.83 8.81 5.76 13.94 6.25 7.24.55 14.42 2.82 20.52 6.79 2.59 1.53 5.63 1.91 8.45 2.85 3.52 1.11 6.17 4.02 9.72 5.06 3.03.54 6.16.2 9.16.96 9.06 2.78 17.21 8.68 26.87 9.4-4.23 10.34-1.86 21.83.46 32.34.43 10.09 3.14 19.86 5.07 29.73 1.62 5.02 4.47 9.62 5.26 14.92-14.56-10.41-29.02-22.19-46.81-26.42-6.76-1.76-13.66-3.38-20.69-3.38-6.39-.02-12.48 2.1-18.72 3.17-4.19.75-8.48 1.2-12.45 2.84-4.32 1.76-8.53 4.05-13.23 4.58-5.35.59-10.95.01-15.85-2.27-5.88-2.83-9.68-8.36-14.77-12.25-3.44-2.6-6.85-5.23-10.05-8.13 5.44 2.42 9.7 6.81 15.26 9-1.13-4.99-5.61-7.83-9.67-10.3-5.52-3.18-10.88-6.66-16.7-9.25-5.59-2.48-11.13-5.55-17.35-5.93-5.16-.27-10.35-.03-15.49.45-8.01 1.4-15.25 5.33-22.63 8.54-11.07 4.94-20.15 13.15-29.57 20.58-4.1-.59-8.24-.39-12.36-.59-4.83-.26-9.21-2.84-12.6-6.15-2.49-2.22-4.67-5.09-7.99-6.06-4.89-1.39-10.2-1.05-14.97.67-14.85 5.56-28.11 14.82-39.29 25.98 2.04-5.08 3.49-10.39 5.98-15.29 2.47-4.9 4.87-9.83 7.08-14.86 2.68-6.33 6.86-11.84 10.24-17.79 5.13-8.5 9.21-17.69 15.66-25.32 6.13-8.46 13.16-16.18 19.5-24.47 1.75-2.88 5.51-2.26 8.38-2.79 5.62-.22 10.83-2.48 16.29-3.53 3.46-.34 6.96 1.29 10.39.1m2.3 14.59c-1.83.23-3.13 1.97-3.78 3.57-.1 5.11 4.25 8.58 6.88 12.49 3.09 4.87 7.85 8.27 12.57 11.43 2.49 1.58 4.65 4.29 7.92 3.91 3.82.7 6.84-2.07 9.39-4.48 3.01-2.9 3.12-7.44 3.31-11.34.26-2.43-2.34-3.6-4.01-4.77-7.42-3.95-15.3-6.95-23.28-9.56-2.91-.86-5.95-1.58-9-1.25m118.08 10.21c-5.19.9-10.55.74-15.62 2.27-4.76 1.31-8.07 5.42-10.39 9.54-3.08 5.67 1.64 13.94 8.39 13.07 13.06-1.6 26.28-6.49 35.81-15.82 2.37-2.15 3.67-7.72-.16-8.97-5.96-.79-12.05-.62-18.03-.09m-58.01 6.62c2.32 5.18 2.07 10.9 1.97 16.44 1.45-.05 2.9-.04 4.35-.07.58-1.52 1.2-3.02 1.6-4.59-1.58-3.87-3.51-7.6-4.86-11.57-1.03-.04-2.05-.11-3.06-.21m-76.13 12.31c.78 3.76 1.13 7.62.69 11.46-.85 5.92 2.88 11.16 6.74 15.22 2.73 2.63 6.74 2.53 10.25 2.16 6.47-.85 10.19-7.85 16.79-8.14 0-.51-.01-1.53-.02-2.03-1.09-.69-2.19-1.35-3.3-2-.06-3.64.15-7.62-1.92-10.8a23.9 23.9 0 0 0-9.04-6.58c-3.13-.73-6.39-.51-9.58-.51-3.61-.13-6.98 1.6-10.61 1.22m85.69 8.82c2.88-1.66 4.61-8.16-.09-8.1-2.39 2.23-1.21 5.63.09 8.1m34.06 10.12c-1.21 1.44-2.5 2.86-3.46 4.5.04 2.8 3.53 3.48 5.2 5.25 4.52 4.14 11.04 6.5 17.08 4.77 5.29-3.13 10.62-7.19 13.27-12.89 1.72-3.59 4.44-6.5 6.88-9.6-1.66.02-3.31.11-4.96.19-1.74-1.66-3.73-3.06-6.02-3.84-4.73-1.97-9.91-2.94-15.02-3.1-6.48 1.85-14.08 6.98-12.97 14.72z"/><path d="M233.88 246.18c7.54-4.22 16.02-6.38 24.65-6.43-3.06 3.65-6.53 7.03-8.76 11.29 5.18-3.28 9.57-7.62 14.52-11.19 3.79.14 7.4 1.5 10.87 2.94 5.15 2.21 10.3 4.48 14.95 7.65-5.28 1.28-10.15 3.84-14.13 7.55-3.54 3.33-8.51 5.79-9.97 10.75-4.17-5.81-11.68-6.39-18.14-7.48-7.9-1.52-15.98-1.07-23.95-.45 6.26-1.43 8.78-7.71 11.76-12.66-.45-.49-1.35-1.47-1.8-1.97zm223.51 89.44c.64.98 1.29 1.98 1.94 2.97 2.11 4.56 3.88 9.43 4 14.51-7.94 6.66-12.13 16.55-19.28 23.93-8.98 9.45-17.3 19.73-27.96 27.39 1.05-5.88 6.33-9.16 10.03-13.3 9.69-10.86 16.56-23.78 23.56-36.43 3.81-5.8 5.83-12.46 7.71-19.07zm-289.51 80.45c2.72.66 5.18 2.03 7.49 3.57 10.14 6.48 20.68 12.3 31.48 17.61 4.81 2.5 10.44 3.54 14.47 7.38-11.58-2.93-21.46-9.88-32.07-15.07-7.65-3.59-14.73-8.3-21.37-13.49zm264.65 37.49c5.34-4.71 9.25-10.98 15.43-14.72 1.63 5.26 2.88 10.62 4.13 15.99 2.77 9.35 8.79 17.97 17.47 22.7 8.53 5.61 18.41 9.47 28.78 8.98.45.92.91 1.84 1.38 2.76 4.76 9.16 9.59 18.3 14.91 27.15 6.75 11.37 11.75 23.63 17.35 35.58 1.74 3.95 4.85 7.11 6.55 11.07.11 3.72-2.3 7.13-4.94 9.57-3.19 2.96-7.75 3.06-11.63 4.51-4.23 4.89-5.45 12-10.54 16.27-4.09 2.99-9.31 3.75-13.54 6.51-8.96 5.85-19.39 8.68-29.42 12.07h-34.82c.07-6.45.3-12.98 2.19-19.19 1.3-4.28 2.35-8.76 1.62-13.24-1.19-8.14-1.57-16.41-3.59-24.41-2.79-11.5-4.49-23.72-11.33-33.7-2.78-5.06-6.55-9.4-10.6-13.46-5.18-7.78-8.38-16.79-13.89-24.38 5.19-3.61 10-7.72 15.02-11.57 7.2-5.38 12.84-12.47 19.47-18.49zm-337.66 11.5c3.77-6.89 7.37-13.9 12.14-20.18.12 1.3.21 2.6.37 3.9-4.71 5.03-7.35 11.63-12.51 16.28zm137.82-16.88c8.62 1.14 16.9 3.96 25.47 5.39 4.43.71 8.89 2.09 13.41 1.37-.7-.4-2.09-1.2-2.79-1.6 2.58.26 5.18.5 7.78.75.14.84.44 2.52.58 3.36-7.55-.77-15.27-.22-22.67-2.17-7.4-1.86-15.35-2.59-21.78-7.1zM92.88 475.29c5.31-7.8 9.14-16.62 15.48-23.68 3.72 9.89-.59 20.29-.94 30.37-.72 9.94.66 19.86 2.79 29.55-.7-.6-1.4-1.19-2.11-1.76-4.51-.93-8.83 3.43-9.1 7.79-.32 4.39-2.98 8.1-3.61 12.42-.43 2.82-1.97 5.27-3.74 7.44-.9 1.22-1.99 2.36-2.5 3.81-.01 4.26 2.27 8.19 2.19 12.44-1.44 3.33-4.57 5.76-5.4 9.38-.57 4.35 2.72 7.91 3.29 12.06-.18 3.22-1.6 6.35-.97 9.61.64 3.94 1.74 7.79 2.53 11.7-8.63-2.21-16.53-6.51-24.09-11.1-6.07-4.29-12.82-9.46-13.95-17.34.21-2.81 1.2-5.47 1.63-8.24 1.3.22 2.6.47 3.9.74 1.39-3.33 2.73-6.68 3.88-10.09 5.05-13.92 9.4-28.12 15.54-41.62 2.67-5.85 5.03-11.82 7.37-17.81 2.64-5.2 4.98-10.56 7.81-15.67z"/><path d="M68.58 521.58c1.12 2.91-.55 5.74-1.55 8.42-2.24 5.33-3.61 10.97-5.91 16.28-.17-1.47-.29-2.94-.37-4.4 2.42-6.84 5.08-13.59 7.83-20.3z"/></g><path fill="#f8eada" d="M206.02 194.47c4.88-.63 9.6 1.08 14.27 2.24 4.46 1.02 8.06 4.04 12.29 5.65 2.29 1.13 5.05 1.66 6.77 3.71.55 5.42-3.2 10.91-8.32 12.41-10.68-4.84-20.4-13.02-25.01-24.01zM318 204.81c7.73-.36 15.52-2.18 23.23-.5-.61 1.58-1.13 3.3-2.5 4.41-8.17 6.92-18.48 10.82-28.92 12.69-2.5.13-5.78.66-7.45-1.71-2.08-2.51-.71-6.12.94-8.47 3.09-4.92 9.38-5.89 14.7-6.42zm-107.63 22.48c1.63.16 3.27.33 4.91.52l.36 3.58c-1.76.01-3.52.02-5.28.04-.01-1.38-.01-2.76.01-4.14zm119.15 4.21c1.8-.07 3.6-.12 5.41-.14-.34 1.42.15 3.46-1.6 4.06-1.18.16-2.37.23-3.56.18-.09-1.37-.17-2.73-.25-4.1zm-134.05 40.96c12.08-9.74 24.03-20.05 38.41-26.28.45.5 1.35 1.48 1.8 1.97-2.98 4.95-5.5 11.23-11.76 12.66-5.14 1.37-8.06 7.1-7.26 12.16.67 5.27 1.01 10.69 2.84 15.73 1.44 3.31 3.38 6.42 5.65 9.22 2.21 2.73 5.86 3.3 9.05 4.2.58 7.29.52 14.61.48 21.92-.12 2.11-.05 4.48-1.4 6.26-6.67 4.95-15.34 4.57-23.22 4.34-4.12-.36-8.11-1.58-12.01-2.88-4.21-1.32-7.26-4.81-9.74-8.29-.99-1.25-.87-2.91-.88-4.4.03-5.65 1.22-11.23 1.06-16.89-.68.14-2.04.41-2.73.55-.8 6.41-2.23 12.81-1.98 19.29.36 4.17 4.3 6.41 6.41 9.64.96 3.65-.22 7.82 2.01 11.16.89 1.98 3.1 2.58 4.91 3.4-1.24-4.01-3.15-7.78-4.1-11.88 8.57 1.93 17.07 5.24 26.02 4.21 6.79.08 12.88-4.25 19.71-3.22 5.32.5 9.78 3.74 14.79 5.27 8.84 3 18.27 3.22 27.5 3.04 7.34-.03 13.93-3.91 19.99-7.64 4.31-3.4 9.15-7.34 9.97-13.13-1.31-.13-2.6-.16-3.9-.08-3.86 1.85-3.34 7.32-6.97 9.38-3.94 2.37-7.94 4.77-12.24 6.46-5.45 1.61-11.27 1.87-16.9 1.21-7.47-.49-15.07-1.52-21.88-4.8-3.38-1.66-7.03-2.66-10.63-3.71-.5-9.24.89-18.61-.98-27.74 4.2-.21 8.69-.4 12.29-2.85 8.28-5.67 14.49-14.55 16.35-24.46.56-2.5.35-5.06-.12-7.54 1.46-4.96 6.43-7.42 9.97-10.75 3.98-3.71 8.85-6.27 14.13-7.55 1.26.81 2.53 1.62 3.81 2.42 3.2 2.9 6.61 5.53 10.05 8.13 5.09 3.89 8.89 9.42 14.77 12.25 4.9 2.28 10.5 2.86 15.85 2.27 4.7-.53 8.91-2.82 13.23-4.58 3.97-1.64 8.26-2.09 12.45-2.84 6.24-1.07 12.33-3.19 18.72-3.17 7.03 0 13.93 1.62 20.69 3.38 17.79 4.23 32.25 16.01 46.81 26.42 1.72 8.07 4.64 15.88 5.61 24.1.67 5.85 2.07 11.79 5.29 16.8-1.88 6.61-3.9 13.27-7.71 19.07-7 12.65-13.87 25.57-23.56 36.43-3.7 4.14-8.98 7.42-10.03 13.3-7.52 6.08-15.24 11.96-23.36 17.23-6.51 4.25-13.87 7.16-19.91 12.14-5.81 5.38-13.58 7.71-20.59 11.08-10.23 3.26-20.61 6.19-31.23 7.91-14.28 3.64-29.11 5.77-43.86 4.67-.14-.84-.44-2.52-.58-3.36-2.6-.25-5.2-.49-7.78-.75-18.52-2.99-36.95-7.26-54.2-14.75-25.23-11.9-49.49-26.28-70.7-44.49-8.56-8.94-16.25-18.76-22.41-29.51-6.64-11.74-10.57-24.74-14.3-37.63-1.85-6.11-2.09-12.53-3.27-18.76-2.32-9.96 2.54-19.62 6.66-28.4 11.18-11.16 24.44-20.42 39.29-25.98 4.77-1.72 10.08-2.06 14.97-.67 3.32.97 5.5 3.84 7.99 6.06 3.39 3.31 7.77 5.89 12.6 6.15 4.12.2 8.26 0 12.36.59-3.14 2.76-6.79 5.12-9.18 8.61-2.32 7.95-3.62 17.05.48 24.67 1.86-4.22.86-8.8 1.02-13.23.31-4.86 1.13-10.47 5.38-13.54m-77.71 39.77c2.98 3.2-.71 9.86 4.65 10.99-.1-4.14.44-8.24 1.26-12.28-1.16-.75-2.36-1.44-3.44-2.3.15-2.9.9-5.83 0-8.69-3.34 3.04-5.42 8.27-2.47 12.28m285.58 1.13c.24 3.82 1.07 7.68.19 11.48-.76 3.38-1.28 6.84-.78 10.31.95-.52 1.88-1.07 2.79-1.67 2.32-6.41 2.42-13.25 1.8-19.96-1.34-.06-2.67-.11-4-.16m-6.92 16.89c-.28 2.41-.39 4.87-1.06 7.22-1.25 1.77-3.02 3.11-4.42 4.76 2.46 1.43 5.92.77 7.48-1.65.65-3.37.23-6.82.11-10.22-.53-.03-1.58-.08-2.11-.11m6.31 7.13c-3.62 9.66-10.66 17.66-18.75 23.88l-.52 2.88c6.07-.54 10.01-5.78 13.45-10.23 3.58-5.1 8.33-10.17 7.92-16.86-.52.08-1.57.25-2.1.33m-273.52.39c.18 1.51-.14 3.19.64 4.58 3.57 6.05 7.11 12.12 10.85 18.08 1.76 2.63 4.05 5.23 7.34 5.8-1.08-4.48-4.33-7.86-6.74-11.64-1.77-2.51-3.15-5.31-5.3-7.52-2.78-2.7-4.37-6.31-6.79-9.3m189.1 7.61c-.95.88-2.23 1.78-1.84 3.27 4.92.21 8.89-4.54 10.11-8.95-3.51.63-5.7 3.52-8.27 5.68m66.7 4.51a40.336 40.336 0 0 0-2.92 7.44c4.08-3.4 7.66-7.37 11.45-11.09-.41-.58-1.23-1.75-1.64-2.33-2.5 1.71-5.48 3.13-6.89 5.98m-187.52-2.03c-.03.7-.08 2.1-.11 2.8 1.66-.08 3.31-.15 4.97-.28-1.48-1.09-3.13-1.92-4.86-2.52m104.43 4.44c-1.34.18-2.45.93-3.29 1.96 5.49-.08 11.61-.8 15.57-5.05-4.24.39-8.16 2.17-12.28 3.09m-48.05 5.29c4.78.13 9.12-2.1 13.68-3.19.06-.52.16-1.56.22-2.08-4.72 1.52-9.56 2.84-13.9 5.27m-51.56-4.68c-.01.73-.01 2.19-.01 2.92 13.02 7.09 27.87 10.85 42.69 10.93 3.56.18 6.69-1.84 10.13-2.36 3.33-.24 6.66.57 9.99.17 4.06-.23 7.8-2.32 11.9-2.17 6.36-.49 13.64-.77 18.03-6.11-8.84 1.06-17.58 3.18-26.52 3.05-11.44 1.52-22.91 3.7-34.5 3.19-5.19-.15-9.78-2.84-14.73-4.05-5.77-1.52-11.27-3.87-16.98-5.57m18.35 2.53c1.55 2.45 4.73 2.17 7.25 2.16 4.79-.44 9.79.41 14.43-1.14.29-.4.85-1.2 1.13-1.6-7.58.91-15.2.68-22.81.58m152.55 15.76c-2.42 2.1-5.4 3.35-8.1 5.03 2.18 2.14 5.64 1.37 7.98-.08 2.74-1.98 5.21-4.45 6.94-7.37.69-1.27.34-2.21-1.06-2.81-2.14 1.5-3.79 3.55-5.76 5.23zm1.8 126.94c7.55-5.06 15.77-9.03 23.03-14.52 5.51 7.59 8.71 16.6 13.89 24.38 4.05 4.06 7.82 8.4 10.6 13.46 6.84 9.98 8.54 22.2 11.33 33.7 2.02 8 2.4 16.27 3.59 24.41.73 4.48-.32 8.96-1.62 13.24-1.89 6.21-2.12 12.74-2.19 19.19H120.22c-6.56-3.75-11.21-9.97-15.63-15.94-4.57.58-9.27 2.06-13.8.36-.79-3.91-1.89-7.76-2.53-11.7-.63-3.26.79-6.39.97-9.61-.57-4.15-3.86-7.71-3.29-12.06.83-3.62 3.96-6.05 5.4-9.38.08-4.25-2.2-8.18-2.19-12.44.51-1.45 1.6-2.59 2.5-3.81l1.16 3.28c.28-.1.85-.28 1.14-.38 1.43-3.73 3.03-7.42 3.82-11.36.63-3.69 3.77-6.54 3.55-10.43-.55-4.39 4.07-6.29 6.78-8.76.71.57 1.41 1.16 2.11 1.76 1.38 11.74 7.09 22.3 9.44 33.8 3.4 10.73 5.84 21.83 10.87 31.97 1.99 3.8 3.54 9.2 8.5 9.87 6.35.98 13.04 2.12 19.28-.04 2.42-1.39 4.04-3.79 6.19-5.52.87 3.6.42 7.9 3.07 10.81 1.89.3 3.78-.16 5.63-.47 1.15 2.35 2.01 5 3.98 6.84 3.19 2.36 7.28 1.12 10.89.77 1.09 3.05 1.77 6.77 4.73 8.63 2.32.85 4.89.24 7.3.19-2.52-1.91-5.61-3.33-7.34-6.1-1.13-2.98-1.01-6.23-1.3-9.36-3.25 2.42-7.15 4.71-11.35 3.41-3.5-3.2-3.54-8.31-4.68-12.58-2 1.89-3.96 3.84-6.04 5.66-.54-3.68-.77-7.39-.54-11.09 2.85-1.93 5.47-4.15 8.17-6.28 4.42-3.41 9.86-5.01 14.88-7.31 4.8-2.17 9.7-4.09 14.57-6.1 6.15-2.53 12.9-3.86 18.36-7.84 3.47-2.57 7.01-5.18 11.18-6.53 5.62-1.82 10.87-4.58 16.44-6.52 14.72-5.01 29.57-9.56 44.45-14.03 7.65-2.37 15.6-3.7 23.06-6.68 3.68-1.59 7.82-1.17 11.56-2.56 5.78-1.96 11.84-2.97 17.54-5.18 8.91-3.04 18.05-5.9 25.96-11.15m-26.26 33.7c1.59 4.22 3.86 8.23 4.41 12.79-2.05-1.25-4.26-2.78-6.81-2.15.17 2.11.37 4.23.6 6.35 2.77-.4 5.7-.41 8.27-1.64 2.3-2.08 1.08-5.29.4-7.81-1.07-3.34-2.95-7.14-6.87-7.54z"/></svg>