<svg clip-rule="evenodd" fill-rule="evenodd" stroke-linejoin="round" stroke-miterlimit="2" viewBox="0 0 128 128" xmlns="http://www.w3.org/2000/svg"><g fill-rule="nonzero"><path d="m60.69 0h6.45c15.22.85 30.13 7.14 41.1 17.76 11.75 11.12 18.82 26.83 19.76 42.94v6.5c-.93 16.85-8.64 33.26-21.3 44.46-10.59 9.63-24.51 15.23-38.73 16.34h-7.57c-14.58-.99-28.85-6.82-39.6-16.79-12.35-11.16-19.83-27.31-20.8-43.89v-6.48c.9-16.41 8.2-32.41 20.29-43.58 10.88-10.3 25.49-16.36 40.4-17.26" fill="#ffcc4d"/><g fill="#674500"><g transform="matrix(1 0 0 1.07598 0 -6.73145)"><path d="m34.46 87.41 2.78 1.47s-1.529 2.677-2.185 4.071c-1.99 4.223-3.131 7.24-4.306 11.748-.304 1.166-.537 2.996-.179 4.241.485 1.688 2.747 3.055 4.39 3.01 3.726-.102 11.01-1.96 11.01-1.96s-8.29 7.374-15.4 4.09c-7.706-3.559-2.327-14.08-.05-19.09 1.179-2.592 3.94-7.58 3.94-7.58z"/><path d="m104.57 90.32c1.361 3.402 2.572 7.075 2.56 10.787-.004.953-3.14 5.153-3.14 5.153s-.194-.686-.226-1.039c-.214-2.38.374-2.402-.184-5.291-.626-3.242-2.579-8.337-3.28-11.64-.316-1.489 2.091-.949 2.497-.775 1.117.476 1.284 1.936 1.773 2.805z"/><path d="m40.14 91.975c4.201-3.264 11.862-3.523 17.86-3.262 8.608.375 23.447 1.105 33.786 4.582 11.724 3.189 11.724 3.189 6.864 7.295 0 0-34.671 1.766-42.155 2.712-3.984.504-23.698 4.993-23.698 4.993s3.143-13.056 7.343-16.32z"/></g><path d="m80.016 106.14c-4.335-1.804-6.358-.756-9.579-.332-3.894.513-13.787 3.409-13.787 3.409 1.941-2.995 6.856-4.881 6.856-4.881 5.31-1.291 12.055-2.156 16.51 1.804z" transform="matrix(1 0 0 .730962 0 29.9576)"/><path d="m65.064 17.401c.61-1.409 5.793-8.538 5.793-6.047 0 2.603-2.698 7.449-3.663 8.457-.742.774-2.556-1.426-2.13-2.41zm5.35 28.48c-2.95-1.67-5.89-4.86-3.63-8.33 2.07 2.16 4.12 4.35 6.19 6.5-.64.46-1.92 1.37-2.56 1.83zm8.069.31c.552-.902-2.231-2.305-2.66-1.31-1.524 3.54-2.572 7.261-3.044 11.088-.139 1.122.711 4.598.711 4.598s3.263-11.546 4.993-14.376zm-2.389 15.99c.631-4.039 7.814-4.192 15.437-3.477 7.743.726 15.931 2.378 16.993 5.717.278.874-1.25 2.45-1.25 2.45l-8.78-3.48-3.1 4.79 7.86 1.08s-6.306 2.501-9.62 2.51c-4.24.012-15.82-2.44-15.82-2.44l6.96-1.68-2.19-3.97s-6.82.613-6.49-1.5zm29.33 12.15c2.053-1.993 4.259-4.123 7.028-5.072.139-.048 2.709-.783 2.882-.498.215.355-1.525 2.367-1.678 2.52-2.123 2.127-5.333 2.896-8.232 3.05zm-32.65-4.211c2.824.78 2.856.588 5.667 1.469 1.166.365 2.301.904 3.047 1.905.457.613.773 1.569 0 1.821-.456.148-1.718.082-2.16 0-1.404-.261-2.583-.566-3.834-1.265-1.474-.823-2.066-2.493-2.72-3.93zm-3.85 2.03c1.543 1.168 3.085 2.335 4.607 3.53 1.158.909 2.318 1.819 3.433 2.781.737.636 2.095 2.731 2.095 2.731s-3.184.663-4.596-.461c-2.441-1.944-6.343-4.884-5.539-8.581zm44.876 2.291c-2.948-1.018-6.307.553-8.564 2.394-.171.14-2.522 2.247-2.462 2.586.081.461.937.047 1.404.015.507-.033 1.013-.108 1.511-.21 3.007-.61 6.297-2.224 8.111-4.785zm-42.36-53.041c.96-1.85 4.01-1.19 4.05.9.63 3.9.38 8.64 3.98 11.23 5.973 4.204 13.488 4.289 20.583 4.218 1.006-.01 2.003-.023 2.987-.028 2.49-.27 3.56 3.5 1.29 4.59-4.59 1.69-9.69.93-14.46.47-6.78-.88-14.54-3.24-17.73-9.89-1.47-3.48-2.86-8.07-.7-11.49z"/><path d="m65.064 17.401c.61-1.409 5.793-8.538 5.793-6.047 0 2.603-2.698 7.449-3.663 8.457-.742.774-2.556-1.426-2.13-2.41zm5.35 28.48c-2.95-1.67-5.89-4.86-3.63-8.33 2.07 2.16 4.12 4.35 6.19 6.5-.64.46-1.92 1.37-2.56 1.83zm8.069.31c.552-.902-2.231-2.305-2.66-1.31-1.524 3.54-2.572 7.261-3.044 11.088-.139 1.122.711 4.598.711 4.598s3.263-11.546 4.993-14.376zm-2.389 15.99c.631-4.039 7.814-4.192 15.437-3.477 7.743.726 15.931 2.378 16.993 5.717.278.874-1.25 2.45-1.25 2.45l-8.78-3.48-3.1 4.79 7.86 1.08s-6.306 2.501-9.62 2.51c-4.24.012-15.82-2.44-15.82-2.44l6.96-1.68-2.19-3.97s-6.82.613-6.49-1.5zm29.33 12.15c2.053-1.993 4.259-4.123 7.028-5.072.139-.048 2.709-.783 2.882-.498.215.355-1.525 2.367-1.678 2.52-2.123 2.127-5.333 2.896-8.232 3.05zm-32.65-4.211c2.824.78 2.856.588 5.667 1.469 1.166.365 2.301.904 3.047 1.905.457.613.773 1.569 0 1.821-.456.148-1.718.082-2.16 0-1.404-.261-2.583-.566-3.834-1.265-1.474-.823-2.066-2.493-2.72-3.93zm-3.85 2.03c1.543 1.168 3.085 2.335 4.607 3.53 1.158.909 2.318 1.819 3.433 2.781.737.636 2.095 2.731 2.095 2.731s-3.184.663-4.596-.461c-2.441-1.944-6.343-4.884-5.539-8.581zm44.876 2.291c-2.948-1.018-6.307.553-8.564 2.394-.171.14-2.522 2.247-2.462 2.586.081.461.937.047 1.404.015.507-.033 1.013-.108 1.511-.21 3.007-.61 6.297-2.224 8.111-4.785zm-42.36-53.041c.96-1.85 4.01-1.19 4.05.9.63 3.9.38 8.64 3.98 11.23 5.973 4.204 13.488 4.289 20.583 4.218 1.006-.01 2.003-.023 2.987-.028 2.49-.27 3.56 3.5 1.29 4.59-4.59 1.69-9.69.93-14.46.47-6.78-.88-14.54-3.24-17.73-9.89-1.47-3.48-2.86-8.07-.7-11.49z" transform="matrix(-1 0 0 1 128.352 0)"/></g><path d="m54.59 92.45c.21-.928 11.157-.722 11.07.02l.03 5.56-12.58 1.6zm-12.43 1.08c2.161-1.894 8.57-.93 8.57-.93l-1.1 7.81-11.95 3.63s2.305-8.603 4.48-10.51zm27.13 4.22-.05-5.076c3.393-.533 6.787.104 10.18 1.026l.74 3.82zm13.93-3.45c.364-1.093 12.469 1.748 12.2 3.19-.109.583-11.68.33-11.68.33z" fill="#f4f7f9" transform="matrix(1 0 0 1.07598 0 -6.73145)"/></g></svg>