<svg height="512pt" viewBox="0 0 512 512" width="512pt" xmlns="http://www.w3.org/2000/svg"><g fill="#f0f"><path d="m258.61 9.34c.33-.28.98-.84 1.31-1.12 4.61.24 9.36-.63 13.85.74 3.01 1 6.62-.75 9.26 1.42 1.72.04 3.44.06 5.17.08 1.85 1.74 4.47.97 6.74 1.12 4.13-.73 7.14 3.2 11.33 2.5 6.17 2.28 13.02 2.83 18.66 6.48 1.46.65 2.95 1.24 4.51 1.62 2.37 1.97 5.6 2.2 8.15 3.87 6.56 3.28 12.76 7.18 18.92 11.15 2.17 1.33 4.3 2.77 6.08 4.6 2.04 1.45 3.74 3.39 6.04 4.45 1.87 1.66 3.65 3.43 5.37 5.26.33 0 1-.02 1.33-.03 4.15 4.73 9.22 8.62 12.94 13.74 1.57 2.25 3.89 3.94 5.05 6.48 1.21 1.4 2.49 2.76 3.69 4.19 1.37 2.88 4.49 4.48 5.56 7.55 1.32 3.55 4.87 5.89 5.52 9.71 1.06 1.42 1.99 2.92 2.69 4.56.71 1.34 1.65 2.53 2.62 3.69 0 .55-.02 1.64-.02 2.19.69.56 1.38 1.11 2.07 1.67.36 1.79 1 3.51 1.82 5.14.35 1.03.66 2.08.93 3.14.96 2.06 1.91 4.13 3.04 6.12.15 1.43.24 2.91.93 4.23 1.08 1.61 1.71 3.42 1.82 5.38 2.23 4.91 2.12 10.41 3.85 15.48 1.11 3.75 1.84 7.53 1.65 11.47 1.4 3.05.76 6.51 2.06 9.59.32 7.64.13 15.3.07 22.95-2.06 2.46-.08 6.03-2.2 8.46-.04 2.85 0 5.71-.1 8.57-.94 1.31-1.12 2.91-1.37 4.46-2.12 4.62-1.77 9.85-3.92 14.46-.21 1.92-.77 3.76-1.7 5.45-1.37 3.17-2.69 6.36-4.31 9.4-.02.45-.05 1.35-.07 1.79-2.4 2.26-2.48 5.82-4.48 8.36-.03.46-.07 1.37-.09 1.83-1.38 1.47-2.41 3.2-3.38 4.96 0 .5.02 1.51.02 2.01-.62.71-1.22 1.43-1.81 2.16-2.6 3.99-6.27 7.36-7.64 12.09-1.04.92-2.08 1.83-3.11 2.74-.02.34-.04 1.02-.05 1.36a77.726 77.726 0 0 0 -5.22 5.51c-2.18 3.92-6.01 6.56-8.98 9.86-2.39 2.18-4.3 5.06-7.39 6.31v1.08c-3.02 1.1-4.89 3.82-7.1 5.98-6.25 3.11-10.97 8.55-17.47 11.31-1.26.81-2.43 1.76-3.56 2.73-.3-.01-.91-.01-1.21-.01-.49.59-1.47 1.78-1.96 2.37-.57-.03-1.72-.1-2.29-.14-.87.8-1.73 1.61-2.59 2.42-.52-.04-1.54-.12-2.05-.17a37.71 37.71 0 0 0 -4.57 3.38c-1.51.16-3.05.3-4.46.91-.82.45-1.63.91-2.44 1.38-3.24-.07-5.95 1.83-8.97 2.63-2.43.71-4.77 1.68-6.97 2.93-1.67.44-3.24 1.13-4.76 1.93-2.59.69-5.2 1.26-7.76 2.05-2.94 1.82-6.76-.27-9.54 1.9-2.33.21-4.98-.48-6.91 1.22-10.92 0-21.84.09-32.76-.04-.59 1.43-1.26 2.83-1.95 4.23-.86 2.07-.77 4.35-1.28 6.51-1.55 1.7-2.01 3.85-1.99 6.11-1.58 4.48-2.96 9.02-4.02 13.65-.14.48-.41 1.42-.54 1.89-.81 2.69-1.41 5.45-2.41 8.08-.98 1.66-.86 3.59-.93 5.45-1.14 1.87-2.06 3.87-2.67 5.98-.42 1.39-.65 2.83-.86 4.28-.43 1.24-.83 2.49-1.2 3.75-.45 1.29-.86 2.6-1.22 3.92 2.26.16 4.66-.23 6.75.85 2.27.84 4.54 1.67 6.81 2.51 1.6.23 3.22.52 4.74 1.12.4.11 1.22.34 1.63.45 3.26.98 6.73 1.38 9.79 2.99 1.77.25 3.77-.15 5.33.96 3.02 1.75 6.53 2.42 9.96 2.89-1.92 3.2-2.41 6.83-3.05 10.43-2.16 2.4-1.02 5.83-2.69 8.39-.07.45-.22 1.34-.29 1.79-1.26 3.16-1.86 6.55-3.16 9.71-.1.44-.32 1.31-.42 1.75-.97 3.23-1.37 6.65-2.9 9.71-.17 1.84-.14 3.76-.96 5.48-.19.22-.58.65-.77.86-1.13 3.32-.59 7.37-3.61 9.87-2.68.53-5.02-1-7.25-2.22-1.79-.1-3.64.01-5.3-.77-1.39-.84-2.85-1.58-4.33-2.23-2.51-.65-5.25-.35-7.55-1.7-2.51-1.62-5.74-.57-8.22-2.24-2.32-1.67-5.45-.48-7.69-2.25l-3.07-.08c-.5 1.06-1.03 2.1-1.59 3.14.85 4.04-2.82 6.95-2.5 10.91-.21.35-.64 1.06-.86 1.41-.16 1.48-.27 3-.84 4.4-1.7 2.5-1.44 5.57-2.17 8.38-.48 1.08-.97 2.16-1.48 3.23-.21 3.83-2.48 7.14-2.85 10.96-3.25-.16-6.41-1.07-9.47-2.13-3.2-1.06-6.31-2.51-9.68-2.92-4.31-2.11-9.44-1.29-13.41-4.15-1.79-.1-3.65.04-5.28-.83-3.84-3.01-8.97-2.11-13.06-4.38-1.68-.87-3.62-.54-5.42-.67-.4-.42-1.19-1.26-1.58-1.68.83-2.25 1.25-4.61 1.85-6.92.44-1.21.91-2.4 1.47-3.55l.32-1.85c.94-1.94 1.23-4.09 1.97-6.1.12-.45.35-1.37.47-1.82.57-1.39.94-2.83 1.11-4.32 1.88-5.01 2.12-10.45 4.65-15.24.56-1.27.83-2.64 1.1-3.99-1.68-.1-3.36-.15-5.03-.23-4.25-2.21-9.23-2.2-13.54-4.27-2.27.03-4.49-.3-6.39-1.6-3.56-1.71-7.48-2.33-11.21-3.53-1.8-.91-3.82-.71-5.76-.8-.48-.39-1.44-1.18-1.92-1.57.12-1.82.15-3.7 1.26-5.24.01-.36.03-1.08.03-1.44 1.83-2.3 2.8-5 2.41-7.95 2.32-2.7 1.98-6.3 2.97-9.49 1.56-6.63 4.07-12.96 5.89-19.51.12-.46.37-1.39.49-1.85 1.15-3.23.77-6.9 3-9.76.02-.55.05-1.65.06-2.2.26-.13.78-.4 1.04-.53.45.33 1.36.99 1.82 1.32 1.58.11 3.19.23 4.65.94 3.34 1.4 7.14.98 10.32 2.79 2.08 1.27 4.66.63 6.84 1.64 2.79.94 5.28 2.87 8.33 2.79 2.06.09 3.85 1.22 5.63 2.13 1.86.05 3.71.07 5.57.11.42-.99.87-1.96 1.31-2.93.23-1.64.51-3.27 1.11-4.81.11-.43.32-1.28.43-1.71.67-1.53.86-3.19 1.06-4.83.42-.82.85-1.63 1.27-2.44.42-1.06.81-2.12 1.19-3.19 1.26-2.2.73-4.8.82-7.21.29-.14.88-.42 1.17-.56l.04-3.43c1.87-3.15.78-7.19 2.56-10.5.99-2.69.52-5.74 2.14-8.23.46-1.05.89-2.1 1.29-3.17.61-1.42.81-2.96.96-4.48 1.15-1.83 2.06-3.81 2.55-5.92a220.81 220.81 0 0 1 -7.84-3.54c-2.46-1.1-4.62-2.7-6.82-4.21-2.81-1.48-5.5-3.17-8.18-4.87-2.1-1.5-3.79-3.58-6.23-4.59l.08-1.62c-.43.03-1.29.07-1.72.1-3.59-3.91-7.54-7.47-11.18-11.34-1.97-1.96-3.82-4.21-6.48-5.23l.08-1.6c-.42-.07-1.27-.22-1.69-.3-1.47-2.71-3.85-4.71-5.94-6.91-.63-1.33-1.43-2.57-2.24-3.79-2.16-3.17-4.65-6.11-6.63-9.4-3.64-5.07-5.94-11.03-9.79-15.93v-1.9c-1.43-1.41-2.5-3.1-3.54-4.8.04-.56.1-1.7.14-2.26-.55-.5-1.66-1.5-2.21-2 .09-4.23-2.33-7.9-3.91-11.68-.64-1.6-1.12-3.25-1.67-4.88-.45-2.16-1.12-4.26-1.74-6.37-1.28-2.64-.32-5.7-1.53-8.35-1.11-3.94-1.91-7.91-1.59-12.03-1.41-2.55-1.21-5.59-2.19-8.3-.15-8.27-.04-16.54-.02-24.82 1.65-1.96.77-4.6 1.48-6.85 1.48-3.34.43-7.08.86-10.59.63-1.99 1.34-3.96 2.11-5.9-.27-3.63.81-7.08 2.06-10.42.66-3.05 1.38-6.16 3.02-8.85.67-1.81 1.01-3.72 1.55-5.56.2-.25.58-.74.77-.99.34-1.14.65-2.29.92-3.45 2.01-2.33 2.33-5.53 3.98-8.08 2.21-4.27 4.54-8.46 6.79-12.7.7-1.09 1.5-2.12 2.34-3.1 1.77-2.78 3.38-5.69 5.64-8.12.98-1.64 2.14-3.17 3.09-4.82 1.59-1.78 3.28-3.46 4.84-5.26 1.59-3.43 4.94-5.51 7.36-8.3 3.62-3.37 6.7-7.49 10.99-10.04 1.78-1.57 3.45-3.24 5.2-4.83 2.88-1.16 4.71-3.79 6.88-5.87 1.84-.93 3.54-2.11 5.34-3.12 3.56-2.71 7.72-4.53 11.16-7.43.45.01 1.34.04 1.79.05 4.01-3.57 9.11-5.38 14.05-7.22 1.08-.38 2.19-.72 3.31-1 1.21-.64 2.44-1.27 3.64-1.96 4.31.37 7.25-3.92 11.55-3.65 2.09-.02 3.91-1.19 5.7-2.14 1.4-.03 2.8-.03 4.21-.04l1.36-1.2 2.9.04c2.27-1.84 5.28-.95 7.94-1.16 2.22-1.91 5.29-.9 7.94-1.16 2.99-2.21 7.01-.72 10.44-1.06m-2.35 61.51c-2.47.05-4.94.04-7.41.14-2.83 2-6.46.37-9.52 1.68-1.59.53-3.13 1.19-4.62 1.92-3.6.68-6.69 2.8-10.27 3.42-.47.44-1.41 1.33-1.88 1.77-1.85.3-3.61.95-5.36 1.6-.54.72-1.07 1.45-1.61 2.17-.62-.04-1.86-.13-2.48-.17-.7.82-1.4 1.64-2.11 2.46-.54-.03-1.63-.08-2.17-.11-1.77 1.68-3.93 2.83-5.98 4.11-3.87 3.15-8.16 5.81-11.42 9.65-3.24 3.83-7.74 6.58-10.1 11.11-.88 1.15-1.66 2.36-2.35 3.62l-1.33-.08c-1.03 2.71-2.55 5.18-4.1 7.62-.54 1.09-1.07 2.19-1.62 3.28-2.18 3.72-3.96 7.65-5.79 11.55-.45 1.89-1.13 3.72-1.71 5.58-1.12 2.13-.61 4.66-1.7 6.81-2.69 4.86-2.07 10.73-3.61 15.97-.26 6.97-.35 14.01.06 20.98 1.21 2.95.27 6.41 1.97 9.16.34 2.6-.59 5.56 1.07 7.83l.32 1.84c.81 1.38 1.07 2.94 1.24 4.52 2.74 5.23 1.86 11.66 5.42 16.58 0 .51-.02 1.53-.03 2.03l2.44 2.08c-.06.83-.11 1.65-.17 2.49.5.43 1.49 1.29 1.99 1.72 1.14 2.34 2.98 4.24 4.17 6.57 1.24 1.18 2.49 2.36 3.73 3.55.83 2.23 2.51 3.94 4.14 5.62.51.04 1.52.12 2.03.17 0 .4-.01 1.2-.01 1.6 2 .69 3.44 2.23 4.83 3.75 2.56 1.46 5.22 2.84 7.41 4.86 1.15 0 2.3.01 3.46.03 1.04-3.85 2.31-7.92 4.85-11.04l-.04-2.05 2.04-2.19c.91-2.54 1.93-5.05 3.6-7.19.03-4.34 1.09-9.16-1.52-12.97-.82-2.47-1.16-5.12-2.79-7.28-1.46-2.42-1.14-5.3-1.93-7.92-1.15-1.77-1.81-3.76-1.75-5.9-.48-.76-.95-1.53-1.41-2.3-.66-1.87-.93-3.85-1.6-5.71-.36-1.09-.74-2.16-1.14-3.22-.43-.83-.87-1.65-1.3-2.48-.02-2.05-.54-4.01-1.61-5.76-.57-1.38-.77-2.86-.98-4.32-1.8-3.7-1.85-8.01-4.25-11.42-1.46-2.43-1.13-5.32-1.98-7.93a13.525 13.525 0 0 1 -1.79-5.78c-.39-1.07-1.25-2.1-.93-3.31 2.95-3.37 6.11-6.58 9.62-9.38 3.85-2.53 6.54-6.45 10.26-9.16 2.9-1.97 5.23-4.61 7.86-6.9 4.1-2.19 6.51-6.5 10.49-8.88 1.22-2.48 3.83-3.57 5.86-5.24 1.48-.03 2.96-.06 4.44-.07 2.29 2.11 4.02 4.98 7.01 6.2 4.72 3.98 8.48 8.99 13.4 12.75 2.91 1.92 5.19 4.59 7.78 6.89 4.96 2.68 8.01 7.8 12.43 11.23-1.96 3.18-4.72 5.69-7.25 8.4-1.26.24-2.5.56-3.64 1.14-4.36 2.59-9.86 1.48-14.11-.79-.54-.03-1.61-.08-2.14-.11-.98-1.06-1.94-2.11-2.92-3.16-2.59-1.41-5.26-2.79-7.42-4.84-.47-.01-1.42-.04-1.89-.06-3.42 3.2-6.68 6.55-9.93 9.91.04 1.02.09 2.04.14 3.06.39.67 1.17 1.99 1.56 2.66 3.16 2.28 6.56 4.77 8.17 8.45.39-.01 1.17-.04 1.56-.05.03.44.08 1.33.11 1.77 3.11 2.26 3.66 6.24 6.09 9.05 1.3 2.7 2.45 5.47 3.85 8.13 1.59 4.35 4.53 8.35 3.83 13.22 1.07 1.4 1.03 3.16 1.12 4.85.26.29.78.87 1.04 1.17-.09 8.94-.02 17.88-.04 26.82 1.14.02 2.3.05 3.45.07l-.03-3.18 2.47-1.95-.28-2.1c.83-.86 1.67-1.71 2.5-2.57-.04-.58-.14-1.74-.19-2.32.62-.53 1.85-1.59 2.47-2.13-.05-.59-.16-1.77-.21-2.36.69-.69 1.39-1.38 2.09-2.06.39-.81.8-1.6 1.23-2.38 1.71-3.34 3.12-6.83 4.97-10.1 2.77 2.58 5.48 5.24 8.19 7.89 3.83 1.97 6.32 5.62 9.33 8.57 1.56-.16 3.13-.34 4.68-.65 1.12-.96 2.18-1.99 3.24-3.02.55.01 1.66.04 2.21.05 1.06-.94 2.14-1.86 3.33-2.63 2.5-1.01 4.93-2.18 7.4-3.27.57-.71 1.13-1.42 1.7-2.13.59.01 1.76.01 2.35.01 1.14-.95 2.31-1.9 3.58-2.7 1.87-.66 3.67-1.96 5.76-1.38-.96 1.49-1.82 3.04-2.76 4.54-.57 1.53-1.12 3.08-1.56 4.66a49.67 49.67 0 0 0 -2.29 3.48c-1.69 2.77-5.01 4.25-6.07 7.44-.24-.06-.7-.18-.94-.24-2.43 5.45-8.46 8.17-11.35 13.39-.85.56-1.98.83-2.51 1.76-2.89 5.73-9.31 8.6-12.19 14.36-2.55 2.16-4.35 4.99-5.96 7.88-.39 1.38-.6 2.8-.79 4.21-.44 1.19-.85 2.38-1.23 3.59-.84 1.63-.9 3.47-1.05 5.26 2.24-.16 4.74.53 6.62-1.1l3.01-.18c2.76-2.14 6.55-.13 9.48-1.92 1.18-.37 2.36-.76 3.53-1.18 1.43-.22 2.87-.41 4.24-.9 2.65-1.39 5.52-2.32 8.43-2.97.58-.71 1.15-1.42 1.73-2.12.63.02 1.9.07 2.54.09.73-.79 1.47-1.58 2.22-2.37.55.03 1.65.08 2.2.1.71-.63 1.43-1.25 2.17-1.86 1.25-.69 2.45-1.49 3.61-2.33 1.94-1.36 3.65-3.04 5.73-4.19 2.79-1.6 4.22-4.92 7.38-5.96.03-.43.09-1.3.11-1.73.44.01 1.3.02 1.73.02 1.54-3.41 4.69-5.6 6.97-8.46 2.82-4.11 5.44-8.35 8.08-12.58.42-.75.85-1.5 1.3-2.24.67-1.49 1.24-3.03 1.49-4.66.67-.81 1.36-1.63 2.05-2.43-.01-1 0-2 .01-3 2.07-3.23 2.78-7.07 4.31-10.55 1.39-3.11 1.55-6.47 1.48-9.83 1.73-2.49.82-5.62 1.01-8.43.3-.29.9-.88 1.19-1.18-.17-7.23.25-14.48-.19-21.69-1.8-6.74-1.71-13.88-4.74-20.27-.87-1.5-.82-3.25-.92-4.91-.74-.71-1.48-1.41-2.22-2.1.01-1 .03-2 .04-2.99-1.74-3.6-3.52-7.17-5.35-10.73-.96-1.59-2.18-3-3.43-4.37-1.51-3.76-3.84-7.17-6.72-10-1.57-3.61-4.78-6.23-8.05-8.27-.97-1.99-2.51-3.59-4.03-5.16-.53-.08-1.6-.23-2.13-.31l.08-1.46c-1.8-.69-3.12-2.06-4.5-3.32-2.39-1.81-5.07-3.19-7.55-4.86-1.24-.82-2.36-1.81-3.46-2.79-.59.03-1.76.08-2.35.11-.6-.72-1.2-1.44-1.8-2.15-4.2-1.88-8.4-3.78-12.83-5.06-1.9-.69-3.89-1.09-5.8-1.74-1.85-.57-3.66-1.25-5.51-1.83-2.7-1.27-5.96.02-8.47-1.77-4.69-.25-9.5.48-14.01-1.13-3.28.08-6.96-.89-9.9 1m-20.04 176.84c1.19 5.16 4.05 9.76 6.94 14.13-1.19 2.83-1.99 5.8-3.1 8.66-.06 1.92-.1 3.84-.14 5.78 2.18.02 4.35.05 6.53.08 1.29-3.04 2.78-5.99 4.08-9.03 1.27-1.15 2.53-2.31 3.78-3.47 2.05.09 4-.41 5.8-1.39.53-.35 1.61-1.06 2.15-1.41.79-.77 1.6-1.53 2.51-2.16-2.41-.61-4.7-1.57-7.07-2.31-1.8-.68-3.72-.74-5.6-1.02-1.23-.73-2.33-1.66-3.54-2.41-2.82-1.68-5.74-3.24-8.27-5.34-1.36-.05-2.72-.08-4.07-.11z"/><path d="m245.71 109.19c7.03-7.27 14.4-14.19 21.35-21.54 5.63 4 11.53 7.85 15.86 13.33.6 1.43 1.63 2.56 2.73 3.63.01 1.17.03 2.35.05 3.53-1.78 1.65-3.47 3.49-5.77 4.4l.04 1.7c-.46-.01-1.4-.03-1.87-.03-.36 2-1.49 3.46-3.54 3.84-3.58 3.01-6.27 7.2-10.73 9.04-2.47-2.12-4.59-4.6-7.04-6.74-4.54-1.87-6.52-7.17-11.12-8.93zm32.02 14.72c6.04-3.05 9.13-9.9 15.22-12.82 1.2.57 2.41 1.11 3.63 1.64 3.14 1.98 5.49 4.93 8.07 7.54 1.96 3.95 4.95 7.25 7.27 10.97.17 3.56-3.99 5.57-6.58 7.34-2.66 2.69-6.02 4.51-8.72 7.16-1.86.89-3.25 2.45-4.67 3.89l-1.84.08.08 1.66c-3.85 2.22-7.33 5.07-10.62 8.05.32-1.93 1.32-3.58 2.64-5-.01-3.29-.02-6.58.02-9.87-3.22-3.05-5.88-6.82-9.83-9-.76-1.35-1.72-2.57-2.73-3.74 1.35-1.25 2.65-2.55 3.95-3.85.43.02 1.29.04 1.72.06-.01-.58-.02-1.73-.02-2.3.57-.01 1.72-.01 2.29-.02zm36.05 17.74h2.04c1.23 1.23 2.48 2.43 3.74 3.64 1.12 2.15 2.48 4.17 3.37 6.43.81 1.11 1.75 2.1 2.7 3.09l-.12 2.38c.79.68 1.6 1.38 2.4 2.07-.09 2.47.13 4.96-.25 7.41-1.81 1.46-4.31 1.7-6.21 3.08-2.85 2.12-6.04 3.71-8.89 5.83-3.44 2.17-7.17 3.85-10.34 6.43-6.52 2.56-11.65 7.79-18.16 10.26-2.99-5.78-8.26-10.33-10.17-16.63-.37-.85-.72-1.69-1.07-2.54 3.02-1.25 4.92-4.11 7.83-5.55 1.44-1.3 2.92-2.55 4.6-3.53 2.73-2.85 6.3-4.66 9.04-7.49.29-.01.88-.05 1.17-.06 2.29-3.33 6.1-4.85 8.94-7.57 3.16-2.37 6.2-4.9 9.38-7.25zm15.01 32c.67.95 1.35 1.89 2.03 2.85.78 1.25 1.77 2.34 2.77 3.42l-.08 2.22c.62.74 1.24 1.5 1.84 2.27.41 1.78.54 3.61.76 5.42.43 1.16.81 2.33 1.17 3.52-2.96 1.43-5.41 4-8.78 4.47-1.89 2.02-4.7 2.35-7.07 3.52-1.07.35-2.14.65-3.23.91-4.65 3.08-9.87 5.05-14.85 7.52-2.36.3-4.17 1.91-6.2 2.98-.1.28-.29.84-.39 1.12-1.99-2.22-4.15-4.27-6.34-6.27-.41-2.25-1.28-4.38-2.42-6.36-.05-1.05-.09-2.09-.12-3.13 5.04-3.26 10.48-5.89 15.43-9.28 1.18-.82 2.32-1.71 3.43-2.64.52-.03 1.56-.09 2.08-.11 1.21-.91 2.44-1.79 3.75-2.55 2.86-2.1 6.03-3.71 8.92-5.76 2.29-1.62 4.87-2.73 7.3-4.12z"/></g></svg>