<svg xmlns="http://www.w3.org/2000/svg" width="512pt" height="512pt" viewBox="0 0 512 512"><path fill="#e40303" d="M17.22 87.2c11.15-10.52 26.33-16.85 41.76-16.27 130.01.11 260.03.11 390.04.01 8.39.11 16.94.2 24.93 3.14 20.26 6.76 34.1 25.87 38.05 46.37V132H0v-11.48c2.73-12.27 7.79-24.67 17.22-33.32z"/><path fill="#ff8c00" d="M0 132h512v62H0z"/><path fill="#ffed00" d="M0 194h512v62H0z"/><path fill="#008026" d="M0 256h512v62H0z"/><path fill="#004dff" d="M0 318h512v62H0z"/><path fill="#750787" d="M0 380h512v10.67c-3.51 20.92-17.61 40.26-38.11 47.13-8.29 3.06-17.16 3.16-25.87 3.25-130.01-.08-260.03-.08-390.04.01-21.48.56-42.97-12.47-51.93-32.09-2.82-5.83-4.5-12.13-6.05-18.38z"/></svg>