<svg xmlns="http://www.w3.org/2000/svg" width="512pt" height="512pt" viewBox="0 0 512 512"><path fill="#fff" d="M18.71 86.01c9.67-8.69 22.34-13.93 35.26-15.02 135.68.05 271.36-.04 407.03.04 6.54 1.36 13.22 2.86 19.25 5.83 5.22 3.28 10.68 6.4 14.86 11.03 9.28 8.81 14.1 21.2 16.89 33.43V225H212c-5.23.04-10.48-.22-15.7.33-14.58-10.52-28.28-22.2-42.72-32.92C119.1 164.85 84.04 138 49.52 110.5c-8.12-5.82-15.57-12.53-23.69-18.34-2.58-1.81-4.98-3.85-7.12-6.15z"/><path d="M0 120.87c2.85-13.04 8.49-25.91 18.71-34.86 2.14 2.3 4.54 4.34 7.12 6.15 8.12 5.81 15.57 12.52 23.69 18.34 34.52 27.5 69.58 54.35 104.06 81.91 14.44 10.72 28.14 22.4 42.72 32.92 12.25 11.14 26.58 19.83 38.5 31.32-12.16 10.42-25.46 19.47-37.57 29.97-9.69 6.72-18.46 14.68-28.01 21.6-44.25 34.76-88.51 69.5-132.8 104.22-5.58 4.88-12 8.73-17.36 13.89-5.99-5.66-10.97-12.47-14.17-20.1-2.13-5.22-3.57-10.68-4.89-16.15z"/><path fill="#7b0171" d="M196.3 225.33c5.22-.55 10.47-.29 15.7-.33h300v62.02c-98.33-.04-196.67-.01-295-.02-6.59-.06-13.2.25-19.77-.38 12.11-10.5 25.41-19.55 37.57-29.97-11.92-11.49-26.25-20.18-38.5-31.32z"/><path fill="#d2d2d2" d="M169.22 308.22c9.55-6.92 18.32-14.88 28.01-21.6 6.57.63 13.18.32 19.77.38 98.33.01 196.67-.02 295 .02v102.69c-1.84 7.99-3.94 16.07-8.22 23.17-9.15 15.99-26.57 26.35-44.73 28.11-133.35.03-266.7-.01-400.05.02-14.57.61-28.95-5.28-39.94-14.68 5.36-5.16 11.78-9.01 17.36-13.89 44.29-34.72 88.55-69.46 132.8-104.22z"/></svg>