<svg xmlns="http://www.w3.org/2000/svg" width="502pt" height="301pt" viewBox="0 0 502 301"><g fill="#cd0000"><path d="M138 32.51c21.65-2.8 44.53.39 65.04-8.56 2.28-1.35 5.78.06 5.59 2.95 1.24 9.71 2.73 19.41 3.75 29.15-1.66 3.66-5.13 6.12-8.26 8.48 4.58-.64 9.82.74 11.86 5.29 3.64-8.62 7.49-17.16 11.12-25.78.68-1.4 1.23-3.28 2.98-3.63 3.96-.83 7.98-1.39 11.99-1.92 1.86-.33 4.45.37 4.57 2.62.52 5.38.35 10.8.72 16.19 4.96.61 9.64 4.19 9.71 9.53 3.1.19 6.88 1 8.2 4.22.46 3.67.04 7.38.11 11.07 5.01-7.05 9.07-14.71 13.87-21.9 6.03-9.39 12.06-19.09 20.69-26.34 4.95-4.24 11.58-6.96 18.16-5.82 1.78.27 3.22 2.04 2.77 3.86-1.3 9.05-2.64 18.09-3.95 27.13-.23 2.04-1.26 3.83-2.13 5.65 1.64.98 3.05 2.27 4.15 3.85 2.65-.35 5.78-.28 7.66 1.95 1.39 1.52 1.27 3.65 1.23 5.56 3.88-5.56 9.14-12.04 16.62-11.7 3.92-3.24 9.83-2.23 12.64 1.94.83-.82 1.49-2.07 2.81-2.15 3.66-.63 7.37-1.35 11.1-1.3 1.8.05 2.62 1.89 3.64 3.08.41-1.4.39-3.51 2.12-3.99 3.66-.93 7.46-1.29 11.21-1.64 2.09-.18 3.39 1.57 4.32 3.16.57-1.36.67-3.18 2.15-3.92 4.01-1.41 8.57-.64 12.4-2.69 2.49-1.35 5.43-1.99 8.2-1.13 4 1.01 6.57 4.76 7.62 8.55 3.61-5.83 8.82-11.21 15.83-12.52 2.98-6.44 5.89-12.92 8.96-19.32.51-1.49 2.17-1.69 3.5-1.92 3.01-.44 6.03-.94 9.08-1.11 1.79.15 4.03 1.49 3.8 3.54-1.66 9.54-3.91 19.01-4.75 28.67l-1.47.47c.26.13.8.39 1.06.52.79-1.16 1.46-2.48 2.63-3.33 3.86-2.22 9.32 1.37 9.19 5.62-3.15 9-6.71 17.93-11.86 26 5.14-1.06 10.22-2.39 15.4-3.29 2.88-.65 6.06 2.34 4.75 5.27-6.25 27.42-12.57 54.83-18.8 82.25-.7 3.78-3.85 6.33-5.96 9.34 3.49 1.9 6.41 5.36 6.2 9.54.16 6.97-6.08 11.34-9.84 16.42-4.37 4.59-7.67 10.34-12.95 13.97-5.42 3.14-13.22 3.78-18.04-.79-3.59-3.38-3.56-9.25-.86-13.16 2.49-3.74 5.2-7.34 7.75-11.04-1.38-1.99-1.06-4.33-.53-6.52-4.86 7.11-9.64 14.29-14.59 21.34-5.69 7.89-17.99 12.02-26.27 5.72-6.26 7.23-18.14 10.95-26.3 4.68-5.19 6.07-13.72 9.63-21.61 7.43-4.31-1.25-6.92-5.16-8.48-9.12-6.5 13.16-16.71 25.21-30.25 31.43-12.19 5.63-27.89 1.04-35.14-10.26-6.72-9.41-6.18-21.42-6.38-32.41-4.23 6.82-7.81 14.84-15.31 18.71-4.94 3.12-11.42 2.25-15.98-1.16-5.23 4.72-12.31 7.83-19.45 6.87-3.16-.33-5.79-2.25-8.13-4.25-4.05 4.89-10.19 8.82-16.79 7.7-4.09-.57-7.07-3.84-8.65-7.46-1.76 3.82-1.83 10.56-7.35 10.72-4.93.47-9.88 2.28-14.84 1.23-4.76 2.25-11.05 3.69-15.59.25-5.5-5.71-8.3-13.67-14.48-18.78-4.37 13.09-9.48 26.43-18.86 36.82-9.66 10.82-24.68 17.44-39.23 15.19-7.98-1.12-13.74-7.14-20-11.6-4.26-3.39-8.9-6.33-12.85-10.09-7.47-7.52-7.92-19.85-3.32-28.99 3.51-7.39 12.07-11.73 20.12-10.39 4.3-4.57 10.73-6.9 16.92-5.39-4.12-4.54-8.27-9.06-12.3-13.68-4.11-4.97-3.87-12.01-2.32-17.92 2.2-7.68 6.85-14.44 12.18-20.29-5.13-7.07-10.35-14.07-15.56-21.08-7.15-9.23-3.18-24.84 7.74-29.24 3.02-1.44 6.4-1.46 9.67-1.54 3.11-2.34 6.44-4.46 10.4-4.97-3.24-6.86-9.88-13.12-8.36-21.32 1.9-11.25 10.41-19.91 19.01-26.71C99.24 42.45 118.14 34.1 138 32.51m31.97 1.48c-8.22-.16-16.39 1.02-24.6 1.09-7.69.92-15.48 1.41-22.98 3.5-13.14 3.68-25.53 9.95-36.41 18.17-6.16 4.86-11.91 10.57-15.42 17.68-1.67 3.54-2.73 7.65-1.85 11.55.69 3.38 3.86 5.98 7.28 6.14 7.59.86 14.74-3.09 20.38-7.79 5.41-4.87 10.42-11.23 10.88-18.77-5.58 4.15-11.03 10.66-18.83 9.46-.8-.82-1.6-1.63-2.41-2.44-1.31-6.76 4.62-11.7 9.46-15.27 12.59-8.19 27.49-13.3 42.61-13.09-13.89 11.47-22.49 27.73-30.19 43.66-1.19 1.3-3.22 1.38-4.76 2.13-6.96 2.53-14.58 6.9-16.15 14.78l1.87 1.31c3.76-5.46 8.73-10.59 15.37-12.28-4.38 8.03-9.4 15.99-16.39 22.01-2.81 2.43-7.79 4.39-10.65.98-2.65-2.93-.59-6.99 1.14-9.81-5.44-2.55-11.22.42-14.7 4.73-4.49-1.56-9.64-.37-13.12 2.8-4.56 4.3-5.63 11.25-4.05 17.1 2.2 6.01 8.42 9.74 14.59 10.38 12.85 1.36 25.87-4.05 34.9-13.09 8.22-8.17 13.35-18.79 17.69-29.38 1.31-3.25 3.04-6.37 3.6-9.86h2.64c.25 2.26.13 4.84 1.75 6.65 1.52 1.78 3.95 2.18 6.08 2.82-2.08-3.28-3.56-7.09-3.08-11.05 5.23-1.88 11.66-2.53 15.11-7.44 2.01-2.95 2.28-8.48-1.84-9.68-8.24-1.71-15.87 6.19-16.58 14.01h-1.69c3.05-7.86 6.65-15.52 10.82-22.84 3.83-6.46 8.2-12.9 14.53-17.17 6.68-.12 13.37.43 20.05-.05 8.79-1.11 17.36-3.81 25.29-7.75 4.94-2.53 9.8-5.47 13.46-9.73-10.74 4.33-22.32 5.89-33.8 6.54m135.47.35c-6.68 4.61-11.63 11.2-16.21 17.79-4.86 7.2-9.44 14.59-13.91 22.03-3.5 5.33-6.51 11.05-10.92 15.71l-1.68-4.2c-1.96 1.18-3.21 3.07-3.88 5.22.79 1.6 3.32 3.66 1.45 5.41-5.13 6.21-10.81 12.26-17.96 16.17-2.08 1.2-5.12.97-6.54-1.15-1.97-2.42-.67-5.66-.11-8.36-.92-1.64-3.18-.81-4.7-1.01-3.26-.05-5.26 2.93-7.26 5.04-2.67-1.01-5.77-1.4-8.21.42-4.31 2.88-5.17 8.93-3.54 13.56 1.89 7.75 9.14 13.65 17.05 14.22 8.36.99 16.88-1.71 23.45-6.91 8.58-6.24 13.83-15.67 19.5-24.39 2.97.99 6.01 1.79 9.08 2.42-1.24 6.37-1.04 12.85-1.59 19.29 4.52-.47 9.07-.71 13.52-1.69-.19-6.99.36-13.95.94-20.91 8.75-5.58 12.55-15.56 17.42-24.21 1.69.52 3.43.89 5.11 1.45-2.26 4.15-5.14 7.98-6.76 12.45-1.57 3.88-2.62 8.68.09 12.3 2.35 3.15 6.88 2.16 9.74.32 2.94-1.68 4.44-4.82 6.45-7.39 1.38 1.43 1.8 3.62 3.52 4.77 2.32 1.94 5.64 1.47 8.4 1.05 6.41-2.11 9.86-8.3 13.21-13.67 1.63-.4 3.26-.81 4.9-1.2-.38 4.12.05 8.85 3.97 11.22 6.21 1.14 10.53-3.98 13.48-8.65 1.56 2.55 2.89 6.31 6.55 6.02 4.53.42 7.58-3.31 10.41-6.22-.26 1.64-.68 3.26-.88 4.91 2.91-.32 5.8-.8 8.7-1.2 1.58-6.1 2.43-12.38 4.11-18.44 2.49-3.35 3.98-7.3 6.51-10.61 1.49 7.32-3.91 13.76-3.1 21.04.25 3.82 4.55 7.03 8.24 5.59 4.22-1.2 6.05-5.57 8.57-8.73 1.6 3.33 4.41 6.79 8.52 6.46 5.27.5 9.31-3.39 12.58-6.96 2.21 3.12 6.4 5.34 10.13 3.54 5.11-2.85 7-8.75 9.06-13.85 1.05-3.01 2.75-5.84 3.26-9.01.5-2.27-3.11-1.73-3.32-.07-2.17 5.1-4.08 10.34-7.01 15.07-.71.04-2.12.1-2.82.13-1.12-3.7-.02-7.52.42-11.23 2.11-11.68 3.91-23.4 6.32-35.02-2.88.23-5.73.66-8.54 1.25-1.74 7.95-3.15 15.99-5.35 23.83-3.49-4.18-9.65-2.6-13.14.7-7.61 6-9.11 16.16-14.26 23.86-.54 1.76-2.94.02-2.28-1.24.74-6.43 4.76-13.37 1.18-19.61-1.24-2.47-3.94-2.94-6.45-2.81-2.96 2.22-4.17 5.83-6.65 8.47.43-1.97.9-3.94 1.3-5.91-2.79.4-5.59.7-8.39.99-1.45 4.33-1.6 9.04-3.68 13.15-1.99 3.99-3.57 8.21-6.08 11.92-.64 1.28-1.96 1.74-3.31 1.79-1.66-8.63 2.24-16.99 3.62-25.39-2.88.28-5.73.79-8.58 1.23-1.05 3.7-1.41 7.58-2.69 11.21-1.44 3.18-3.12 6.24-4.61 9.4-1.36 2.53-2.63 5.54-5.53 6.62-.63-2.34-1.22-4.77-.64-7.18 1.15-6.33 2.75-12.57 4.32-18.81-2.96.43-5.95.69-8.87 1.39-.8 3.81-1.66 7.6-2.65 11.37-1.01 3.06-2.97 6.43-6.36 7.18 1.43-4.64 3.58-9.41 2.75-14.37-.5-2.28-1.33-5.06-3.77-5.89-3.13-.74-4.99 2.58-5.72 5.09-1.21 5.09-1.37 10.77 1.05 15.54.59 1.15 1.13 2.68.12 3.8-1.6 2.14-3.58 4.74-6.5 4.81-2.15.15-3.08-2.12-3.69-3.78-1.06-6.03.34-12.43 3.57-17.61 1.26-2.17 4.42-3.13 4.31-5.99-5.04.12-8.48 4.54-11.39 8.14-5.7 7.04-6.31 17.48-13.83 23.11-3.16-7.85 1.15-16.12 4.32-23.27 1.31-1.49.23-4.89-2.05-3.7-2.53 1.82-5.16 3.68-8.35 4.03.69-2.42 3.83-6.1.66-7.92-4.02-.86-6.2 4.41-4.57 7.58-2.18 4.44-4.56 8.77-6.87 13.14-1.8 3.25-3.64 6.85-7.18 8.51 2.72-21.15 9.79-41.53 18.9-60.73.93-1.91 1.78-3.86 2.49-5.86-3.83.26-7.7 1.2-10.87 3.44m-73.66 9.37c-3.4 6.8-5.94 14.05-9.04 21.01-2.75 6.08-4.57 12.75-9.13 17.82-5.13 6.36-11.52 14.06-20.54 13.54-2.29-1.92-3.44-5.06-2.5-7.98 1.8-6.4 5.27-12.81 10.99-16.49 1.72-.73 4.6-2.14 5.77.09-3.71.05-7.99 2.24-8.32 6.33 1.47 4.71 8.22 4.25 10.78.76 2.12-2.08 2.44-5.04 2.34-7.86-1.28-1.54-2.89-3.13-5.08-2.94-7.6-.21-14.46 4.28-19.7 9.41-4.72 4.52-6.95 10.85-11.12 15.8-2.36 2.77-4.3 6.63-8.25 7.26-.58-2.9-.2-5.89.96-8.59 2.55-6.16 5.29-12.24 8.05-18.3-3.71.35-7.36 1.08-11.04 1.55-2.59 4.73-3.79 10.22-7.3 14.42-3.31 4.07-6.08 8.58-9.78 12.32-1.09 1.03-2.18 2.4-3.87 2.21-1.49-2.37-.32-5.11.43-7.51 2.66-6.64 5.91-13.02 8.72-19.59-3.66.93-7.55.82-11.12 2.07-3.1 5.43-5.27 11.36-8.01 16.98-1.89 4-4.33 8.33-3.26 12.91.45 2.85 3.54 4.49 6.24 4.08 6.99-.29 12.08-5.74 16.42-10.62.18 2.69 1.19 5.26 3.62 6.68 3.23-.03 6.67.23 9.56-1.52 4.49-2.1 7.4-6.21 10.72-9.69.66 4.13 4.37 7.45 8.63 7.16 10.09.16 17.68-7.47 24.65-13.74-1.36 3.53-2.92 6.97-4.18 10.54 3.78-.69 7.59-1.16 11.36-1.94 2.68-6.65 5.33-13.32 8.23-19.88 1.36-.01 2.72-.01 4.08 0 .62 4.69-2.09 9.16-.98 13.84 1.47 3.93 6.78 4.18 9.97 2.37 9.17-5.53 15.29-14.58 20.86-23.46.66-1.85-1.76-1.81-2.85-2.32-4.3 5.72-7.66 12.86-14.24 16.29-1.72.97-1.74-1.95-2.04-2.87-.43-3.78-4.14-5.63-7.14-7.18 2.77-2.92 4.58-6.81 8.06-8.99l.28 2.99c-1.26 1.14-2.55 3.15-.01 3.79 4.36-.6 9.73-3.56 9.81-8.49-1-5.98-9.1-6.14-13.2-3.32-5.72 3.12-6.9 10.13-11.34 14.43 4.39-11.85 9.68-23.36 14.12-35.19-3.51.7-7.22.71-10.61 1.82M182.12 74.4c-.02.68-.05 2.03-.07 2.7 1.42-1.26 2.8-2.55 4.15-3.88-1.36.4-2.72.8-4.08 1.18m-23 1.96c-1.32.81-.17 3.47 1.24 2.18 1.23-.84.19-3.37-1.24-2.18m299.26 18.85c-4.81 26.94-9.91 53.85-14.54 80.82 3.83-.16 7.66-.47 11.47-.9 6.37-27.95 13.01-55.84 19.35-83.79-5.39 1.37-11.1 1.82-16.28 3.87m-39.8 5.1c-1.76 3.9-2.67 8.14-4.49 12.03-3.87-3.2-8.74.07-11.53 3.11-3.28 3.18-4.45 8.24-8.64 10.47.37-4.07 3.3-7.64 2.18-11.88-3.69-2.5-6.42 1.6-8.56 4.08.22-.82.66-2.44.88-3.25-1.89.29-4.89-.37-5.38 2.21-1.44 4.48-4.09 8.5-7.33 11.88-.41 0-1.22-.01-1.63-.01-.36-4.51 2.5-8.42 3.47-12.71-2.09.3-4.15.76-6 1.78-3.42-2.35-7.41.06-10.09 2.41-2.92 2.79-5.77 6.33-5.87 10.56-.14 2.74 3.03 4.42 5.44 3.8 2.79-.43 5.04-2.22 7.15-3.97.63.75 1.27 1.51 1.92 2.27 3.15.37 5.77-1.4 8.01-3.4-.11.62-.32 1.86-.42 2.48 1.72-.2 3.43-.53 5.09-1.02 1.32-5.5 3.64-10.83 8.01-14.6.68 4.77-5.61 9.22-1.7 13.62 3.71.52 6.48-1.94 8.56-4.67 2.88 5.15 9.47 2.79 12.78-.59 1.68.94 3.46 2.86 5.53 1.73 5.03-2.33 7.23-7.95 9.74-12.53-.34.05-1.01.14-1.34.18-2.44 2.67-3.69 6.28-6.44 8.69-1.69.47-2.18-1.7-1.47-2.84 2.12-7.16 4.83-14.14 7.12-21.25-1.63.46-3.72.17-4.99 1.42m11.7 14.42c-2.68 6.21-6.25 11.98-9.27 18.03 3.31 2.29 1.77 6.32 1.11 9.53 4.58-.82 9.17-1.65 13.76-2.42 1.15-6.03 2.33-12.06 3.43-18.1.31-2.01 1.06-3.91 2.04-5.68-3.72 1.54-7.73.63-11.07-1.36m-97.58 17.6c6.75 4.48 10.13 12.26 11.87 19.89 2.13-7.96 4.57-15.83 6.89-23.74-2.83-1.5-5.1-3.89-6.04-7-2.86 4.92-7.17 9.17-12.72 10.85m-184.77-2.32c-9.97.37-19.95 1.04-29.85 2.35-14.57 2.65-28.3 8.98-40.45 17.37-8.77 6.12-16.97 13.59-22.06 23.13-3.03 5.31-4.45 11.59-3.31 17.65 1.05 3.96 4.61 7.16 8.73 7.49 8.1.97 15.69-3.43 21.53-8.63 6.45-6.01 11.8-14.14 12-23.21-2.76 1.68-4.42 4.55-6.95 6.5-3.35 2.64-7.27 4.85-11.58 5.23-3.98-.68-6.21-5.23-4.94-8.93 2.26-7.29 8.68-12.3 14.94-16.15 12.62-7.34 27.13-12.27 41.88-11.29-11.58 10.46-19.37 24.27-25.89 38.26-2.13 4.74-4.67 9.32-6.18 14.31-8.24 3.12-17.83 6.65-21.51 15.42-.7 1.78-2.03 5.89 1.27 5.48 3.82-6.29 9.16-12.33 16.57-14.19-4.37 8.69-9.07 17.39-15.75 24.55-2.47 2.62-5.54 5.22-9.33 5.26-3.01-.02-5.4-2.66-5.99-5.46-.56-3.25 1.17-6.18 2.32-9.08-2.83-1.01-6.02-1.64-8.92-.49-2.98 1.01-4.99 3.55-6.97 5.84-4.64-1.11-10.05-1.08-13.83 2.24-5.48 4.66-6.6 12.55-5.65 19.32 1.43 9.04 10.21 15.38 18.99 16.05 11.65 1.1 23.41-3.27 32.22-10.82 11.93-10.29 18.19-25.3 23.35-39.8 1.25-4.12 3.59-8.01 3.57-12.42 1.06.03 2.13.04 3.19.04.38 2.87.22 6.13 2.19 8.48 1.63 2.1 4.33 2.73 6.71 3.57-2.49-4.24-3.94-8.95-3.77-13.9 4.34-.8 8.65-2.1 12.53-4.25 4.35-2.39 6.74-8.05 5.05-12.77-1.31-3.5-5.79-4.53-9.02-3.3-7.34 2.26-11.82 9.82-12.78 17.11-.32-.27-.97-.83-1.3-1.1 4.8-12.91 9.69-25.98 17.46-37.45 2.69-4.05 5.98-7.81 10.25-10.24 7.41 1.14 14.97 1.1 22.43.76 9.24-1.19 18.23-4.12 26.49-8.4 5.5-3.01 11.02-6.45 14.75-11.61-16.5 6.98-34.76 7.19-52.39 7.08m-20.03-2.6c1.76-.16 3.5-.44 5.24-.66-1.36-.8-2.7-1.63-4.01-2.51-.4 1.06-.82 2.11-1.23 3.17m168.75 1.28c-.19 1.38-.38 2.76-.56 4.15 1.82-1.09 3.67-2.15 5.53-3.17-.34-1.63-.62-3.27-.86-4.92-1.34 1.35-2.71 2.65-4.11 3.94m-89.68-.7c.49 6.07 2.26 11.94 2.93 17.98-2.34 5.24-7.23 8.86-11.86 12-12.1 7.61-26.43 12.1-40.79 11.49.94 2.06 1.38 4.51 2.83 6.26 5.16-.54 10.26-1.65 15.44-2.04 4.28-3.65 11.15-4.6 15.72-.96 3.41 2.6 4.11 7.03 5.22 10.9 4.31-6.26 9.85-11.76 16.51-15.47 4.85-2.7 10.75-3.78 16.12-2.05.51-1.39 1.01-2.78 1.52-4.16-5.78-.99-11.38-3.77-14.93-8.55-4.8-6.1-4.64-14.24-6.27-21.48-.05-1.7-1.37-2.79-2.44-3.92m92.6 7.51c-15.3 9.78-26.87 24.92-33.59 41.69-4.97 12.85-7.03 27.46-2.58 40.76 3.56 10.28 13.47 18.46 24.6 18.37 8.66.63 16.54-3.99 23.04-9.24 13.23-11.07 22.09-26.73 26.82-43.18 3.1-11.69 4.48-24.23 1.05-36-1.96-6.1-5.98-12.22-12.41-14.16-6.62-2.13-14.05 1.32-18.08 6.69-.67 1.27-2.45 2.58-1.41 4.17 3.62-1.03 7-3.74 10.97-2.81 4.1.81 6.43 4.8 7.81 8.41 2.82 8.27 2.2 17.12 2.15 25.72-1.08 12.27-3.89 24.82-10.95 35.12-4.68 6.96-11.72 12.76-20.13 14.31-4.92 1-10.04-1.35-13.16-5.14-3.82-4.44-5.18-10.4-5.32-16.13-.03-14.46 4.05-28.69 10.43-41.59 5.11-10.19 11.72-19.82 20.46-27.23 2.25-2 5.13-3.29 6.89-5.81-6.04-.08-11.49 3.15-16.59 6.05m-26.92-2.18c-3.53 6.66-7.97 12.82-13.26 18.2-1.08 4.16.6 8.82-.8 13.02-.93 2.76-1.98 5.47-2.91 8.23 2.31.54 4.34 1.75 6.04 3.39 3.15-8.57 7.94-16.46 13.44-23.71-2.11-6.12.13-12.76-.38-19.1-.53-.01-1.59-.02-2.13-.03m132.48 5.7c-.74 3.64-1.5 7.27-2.25 10.9-3.98 1.27-8.97.47-11.75 4.22 3.85-.11 7.74-.01 11.53-.85-3.72 9.79-2.24 21.21-8.23 30.14-2.59 4.55-4.8 9.77-9.48 12.58-2.71-2.16-3.14-5.88-2.47-9.08 1.26-6.89 2.84-13.71 4.51-20.51-4.66.75-9.33 1.43-13.92 2.51-1.1 4.14-1.61 8.43-2.92 12.51-1.59 3.28-3.67 6.29-5.38 9.51-2.29 3.85-4.42 8.28-8.69 10.27-2.83-2.87-2.32-7.1-1.74-10.74 1.46-6.39 2.97-12.77 4.67-19.11-4.68.81-9.38 1.48-14 2.53-2 7.36-3.5 14.84-5.56 22.18-.79 3.91-1.19 8.62 1.75 11.79 2.89 3.26 7.77 3.23 11.68 2.24 6.41-1.33 10.93-6.56 14.41-11.76 1.19 3.41 3.85 6.73 7.74 6.9 8.69 1.24 16.77-4.57 20.48-12.13.84 1.84 1.58 3.87 3.27 5.13 2.81 2.52 6.9 2.03 10.35 1.62 6.56-1.35 11.56-6.59 14.4-12.43 2.52-5.15 5.27-10.19 7.56-15.44-1.28-1.01-2.9-1.35-4.37-1.92-4.49 6.25-6.56 14.13-12.11 19.62-1.58 1.95-4.09.09-4.46-1.87-1.16-5.28.6-10.53 1.54-15.69 1.5-6.73 2.34-13.67 4.31-20.27 7.19-1.41 14.6-1.89 21.87-2.96 1.5-1.96 2.93-3.97 4.29-6.03-8.49 1.29-16.87 3.27-25.41 4.22.5-3.51 1.28-6.96 2.01-10.42-4.58.56-9.12 1.38-13.63 2.34m-163.01 2.86c-3.54 10.42-7.33 20.75-10.68 31.23-2.2-1.74-4.47-3.88-7.48-3.83-6.44-.01-11.97 3.9-16.56 8.03-8.64 7.83-12.59 19.25-20.27 27.86-1.06 1.42-2.55.66-2.27-1.08.88-6.36 4.91-11.82 6.05-18.13.19-2.85.56-6.03-1.24-8.47-1.67-3.01-5.69-3.31-8.66-2.4-4.77 2.37-6.84 7.66-10.52 11.23.92-2.86 2.13-5.6 3.19-8.41-4.19.73-8.44 1.11-12.6 2.01-2.64 6.28-4.43 13.03-8.66 18.5-4.12 5.68-7.08 12.69-13.24 16.53-2.19-2.56-1.15-6.26-.42-9.2 2.8-8.07 6.01-16.01 9.26-23.91-4.15.48-8.36.86-12.42 1.8-3.64 8.42-6.87 17.04-10.3 25.55-1.44 3.39-1.84 7.16-1.3 10.79.49 2.82 3.02 5.45 6.05 5.16 6.89.72 12.22-4.38 16.66-8.89-.77 2.32-1.6 4.63-2.48 6.92 4.23-.35 8.38-1.24 12.6-1.64 3.65-7.86 5.9-16.32 9.49-24.2 4.14-4.08 6.97-9.19 10.64-13.65 1.24 10.01-8.13 17.49-8.06 27.34-.19 4.15 3.98 7.78 8.09 7.07 7.56-.07 11.84-7.21 16.32-12.24.84 3.91 3.62 7.64 7.76 8.33 8.47 1.59 16.6-3.5 21.72-9.9 2.38 6.4 11.2 7.68 16.17 3.56 8.73-6.33 12.29-17.08 17.98-25.84 1.67-1.75 1.26-4.69-1.45-4.89-1.99 1.18-3.07 3.27-4.17 5.21-2.81 5.05-5.79 10.01-9.19 14.7-.89 1.54-2.67 2.11-4.13 2.97-2.89-2.26-1.18-6.03-.54-8.93 5.27-17.14 11.04-34.14 16.79-51.12-4.01.88-8.13 1.04-12.13 1.94m135.2 14.35c-1.51 1.97-3.99 2.31-6.29 2.53-3.69.3-7.38 1.59-11.07.58-4.66 2.84-11.83 3.34-14.9-2.02.18 4.08.18 8.17-.06 12.26 4.69-.73 9.32-1.78 14.02-2.42 2.55-.42 5.34 2.29 4.44 4.87-1.65 6.74-3.59 13.42-4.7 20.28 3.87-8.74 6.67-18.04 11.02-26.54 3.59-1.93 7.99-1.67 11.9-2.74.93-2.14 1.87-4.27 2.86-6.38-2.42.53-4.92.55-7.22-.42m-232.81 7.41c-3.89 1.43-5.86 7.44-2.12 10.08 4.25 2.01 9.49-2.16 8.79-6.72.03-3.17-4.09-5.06-6.67-3.36m161.78 6.58c-2.01 1.07-4.16.1-6.01-.8-8.19 10.81-14.25 23.33-17.13 36.61.02 4.82 2 9.92 5.75 13.09 2.61 2.23 6.37 2.51 9.49 1.3 9.42-3.16 15.84-11.74 19.52-20.61 1.31-5.14.89-10.56.8-15.81-.42-5.25-.61-11.28-4.47-15.3-2.53-2.14-5.48.68-7.95 1.52m109.16 5.91c-.32 1.6-.63 3.21-.95 4.81 1.08-1.76 2.15-3.53 3.2-5.32-.76.17-1.51.33-2.25.51m27.82 12.05c-3.53 1.11-6.76 3.63-8.12 7.14-.86 2.65-.73 6.2 1.98 7.75 7.27 3.97 18.75-1.18 18.64-10.08-.66-5.85-8.08-6.26-12.5-4.81z"/><path d="M291.53 61.11c3.65-6.81 6.98-14.3 13.1-19.27-5.12 9.13-10.14 18.4-13.36 28.39-3.57 10.83-7.73 21.56-9.58 32.85-2.75-.49-5.4-1.4-8-2.42 6-13.15 11.7-26.46 17.84-39.55zm145.72-.94c1.21-1.41 3.14-1.16 4.8-1.35 4.38 4.48 3.01 11.13 1.19 16.43-1.46 2.91-3.63 6.61-7.33 6.55-3.21-1-3.94-4.88-3.92-7.79.22-4.95 1.52-10.34 5.26-13.84zm-88.11 23.19c.18-3.63-1.68-8.81 2.34-10.94-.32 3.67.37 8-2.34 10.94zm-223.17.65c2.06-4.31 5.06-8.7 9.92-10.06 1.21 5.89-5.06 9.21-9.92 10.06zm282.28 29.16c1.25-.97 3.36-1.09 4.03.65 1.48 2.12-.14 4.67-.99 6.71-1.23 2.76-4.84 5.34-7.42 2.6-.07-3.74 1.27-7.69 4.38-9.96zm-42.02 6.01c2.12-1.84 4.72.36 4.42 2.78-.73 3.74-2.8 7.69-6.69 8.9-1.57-.37-2.32-1.35-2.24-2.93-.14-3.44 1.77-6.77 4.51-8.75zm-148.42 56.59c1.89-1.65 4.6-2.5 7.04-1.68 2.96 2.72 4.01 7.38 2.46 11.1-1.41 3.59-2.04 7.58-4.49 10.67-2.77 3.91-6.66 8.13-11.97 7.25-2.13-2.15-3.22-5.21-2.76-8.22 1-7.17 4.03-14.42 9.72-19.12zm-101.79 13.46c2.25-4.68 5.08-10.82 10.93-11.4.92 6.3-5.17 10.96-10.93 11.4z"/></g><g fill="#f8e132"><path d="M169.97 33.99c11.48-.65 23.06-2.21 33.8-6.54-3.66 4.26-8.52 7.2-13.46 9.73-7.93 3.94-16.5 6.64-25.29 7.75-6.68.48-13.37-.07-20.05.05-6.33 4.27-10.7 10.71-14.53 17.17-4.17 7.32-7.77 14.98-10.82 22.84h1.69c.71-7.82 8.34-15.72 16.58-14.01 4.12 1.2 3.85 6.73 1.84 9.68-3.45 4.91-9.88 5.56-15.11 7.44-.48 3.96 1 7.77 3.08 11.05-2.13-.64-4.56-1.04-6.08-2.82-1.62-1.81-1.5-4.39-1.75-6.65h-2.64c-.56 3.49-2.29 6.61-3.6 9.86-4.34 10.59-9.47 21.21-17.69 29.38-9.03 9.04-22.05 14.45-34.9 13.09-6.17-.64-12.39-4.37-14.59-10.38-1.58-5.85-.51-12.8 4.05-17.1 3.48-3.17 8.63-4.36 13.12-2.8 3.48-4.31 9.26-7.28 14.7-4.73-1.73 2.82-3.79 6.88-1.14 9.81 2.86 3.41 7.84 1.45 10.65-.98 6.99-6.02 12.01-13.98 16.39-22.01-6.64 1.69-11.61 6.82-15.37 12.28l-1.87-1.31c1.57-7.88 9.19-12.25 16.15-14.78 1.54-.75 3.57-.83 4.76-2.13 7.7-15.93 16.3-32.19 30.19-43.66-15.12-.21-30.02 4.9-42.61 13.09-4.84 3.57-10.77 8.51-9.46 15.27.81.81 1.61 1.62 2.41 2.44 7.8 1.2 13.25-5.31 18.83-9.46-.46 7.54-5.47 13.9-10.88 18.77-5.64 4.7-12.79 8.65-20.38 7.79-3.42-.16-6.59-2.76-7.28-6.14-.88-3.9.18-8.01 1.85-11.55 3.51-7.11 9.26-12.82 15.42-17.68 10.88-8.22 23.27-14.49 36.41-18.17 7.5-2.09 15.29-2.58 22.98-3.5 8.21-.07 16.38-1.25 24.6-1.09m-44 50.02c4.86-.85 11.13-4.17 9.92-10.06-4.86 1.36-7.86 5.75-9.92 10.06zm179.47-49.67c3.17-2.24 7.04-3.18 10.87-3.44-.71 2-1.56 3.95-2.49 5.86-9.11 19.2-16.18 39.58-18.9 60.73 3.54-1.66 5.38-5.26 7.18-8.51 2.31-4.37 4.69-8.7 6.87-13.14-1.63-3.17.55-8.44 4.57-7.58 3.17 1.82.03 5.5-.66 7.92 3.19-.35 5.82-2.21 8.35-4.03 2.28-1.19 3.36 2.21 2.05 3.7-3.17 7.15-7.48 15.42-4.32 23.27 7.52-5.63 8.13-16.07 13.83-23.11 2.91-3.6 6.35-8.02 11.39-8.14.11 2.86-3.05 3.82-4.31 5.99-3.23 5.18-4.63 11.58-3.57 17.61.61 1.66 1.54 3.93 3.69 3.78 2.92-.07 4.9-2.67 6.5-4.81 1.01-1.12.47-2.65-.12-3.8-2.42-4.77-2.26-10.45-1.05-15.54.73-2.51 2.59-5.83 5.72-5.09 2.44.83 3.27 3.61 3.77 5.89.83 4.96-1.32 9.73-2.75 14.37 3.39-.75 5.35-4.12 6.36-7.18.99-3.77 1.85-7.56 2.65-11.37 2.92-.7 5.91-.96 8.87-1.39-1.57 6.24-3.17 12.48-4.32 18.81-.58 2.41.01 4.84.64 7.18 2.9-1.08 4.17-4.09 5.53-6.62 1.49-3.16 3.17-6.22 4.61-9.4 1.28-3.63 1.64-7.51 2.69-11.21 2.85-.44 5.7-.95 8.58-1.23-1.38 8.4-5.28 16.76-3.62 25.39 1.35-.05 2.67-.51 3.31-1.79 2.51-3.71 4.09-7.93 6.08-11.92 2.08-4.11 2.23-8.82 3.68-13.15 2.8-.29 5.6-.59 8.39-.99-.4 1.97-.87 3.94-1.3 5.91 2.48-2.64 3.69-6.25 6.65-8.47 2.51-.13 5.21.34 6.45 2.81 3.58 6.24-.44 13.18-1.18 19.61-.66 1.26 1.74 3 2.28 1.24 5.15-7.7 6.65-17.86 14.26-23.86 3.49-3.3 9.65-4.88 13.14-.7 2.2-7.84 3.61-15.88 5.35-23.83a67.85 67.85 0 0 1 8.54-1.25c-2.41 11.62-4.21 23.34-6.32 35.02-.44 3.71-1.54 7.53-.42 11.23.7-.03 2.11-.09 2.82-.13 2.93-4.73 4.84-9.97 7.01-15.07.21-1.66 3.82-2.2 3.32.07-.51 3.17-2.21 6-3.26 9.01-2.06 5.1-3.95 11-9.06 13.85-3.73 1.8-7.92-.42-10.13-3.54-3.27 3.57-7.31 7.46-12.58 6.96-4.11.33-6.92-3.13-8.52-6.46-2.52 3.16-4.35 7.53-8.57 8.73-3.69 1.44-7.99-1.77-8.24-5.59-.81-7.28 4.59-13.72 3.1-21.04-2.53 3.31-4.02 7.26-6.51 10.61-1.68 6.06-2.53 12.34-4.11 18.44-2.9.4-5.79.88-8.7 1.2.2-1.65.62-3.27.88-4.91-2.83 2.91-5.88 6.64-10.41 6.22-3.66.29-4.99-3.47-6.55-6.02-2.95 4.67-7.27 9.79-13.48 8.65-3.92-2.37-4.35-7.1-3.97-11.22-1.64.39-3.27.8-4.9 1.2-3.35 5.37-6.8 11.56-13.21 13.67-2.76.42-6.08.89-8.4-1.05-1.72-1.15-2.14-3.34-3.52-4.77-2.01 2.57-3.51 5.71-6.45 7.39-2.86 1.84-7.39 2.83-9.74-.32-2.71-3.62-1.66-8.42-.09-12.3 1.62-4.47 4.5-8.3 6.76-12.45-1.68-.56-3.42-.93-5.11-1.45-4.87 8.65-8.67 18.63-17.42 24.21-.58 6.96-1.13 13.92-.94 20.91-4.45.98-9 1.22-13.52 1.69.55-6.44.35-12.92 1.59-19.29-3.07-.63-6.11-1.43-9.08-2.42-5.67 8.72-10.92 18.15-19.5 24.39-6.57 5.2-15.09 7.9-23.45 6.91-7.91-.57-15.16-6.47-17.05-14.22-1.63-4.63-.77-10.68 3.54-13.56 2.44-1.82 5.54-1.43 8.21-.42 2-2.11 4-5.09 7.26-5.04 1.52.2 3.78-.63 4.7 1.01-.56 2.7-1.86 5.94.11 8.36 1.42 2.12 4.46 2.35 6.54 1.15 7.15-3.91 12.83-9.96 17.96-16.17 1.87-1.75-.66-3.81-1.45-5.41.67-2.15 1.92-4.04 3.88-5.22l1.68 4.2c4.41-4.66 7.42-10.38 10.92-15.71 4.47-7.44 9.05-14.83 13.91-22.03 4.58-6.59 9.53-13.18 16.21-17.79m-13.91 26.77c-6.14 13.09-11.84 26.4-17.84 39.55 2.6 1.02 5.25 1.93 8 2.42 1.85-11.29 6.01-22.02 9.58-32.85 3.22-9.99 8.24-19.26 13.36-28.39-6.12 4.97-9.45 12.46-13.1 19.27m145.72-.94c-3.74 3.5-5.04 8.89-5.26 13.84-.02 2.91.71 6.79 3.92 7.79 3.7.06 5.87-3.64 7.33-6.55 1.82-5.3 3.19-11.95-1.19-16.43-1.66.19-3.59-.06-4.8 1.35m-88.11 23.19c2.71-2.94 2.02-7.27 2.34-10.94-4.02 2.13-2.16 7.31-2.34 10.94z"/><path d="M231.78 43.71c3.39-1.11 7.1-1.12 10.61-1.82-4.44 11.83-9.73 23.34-14.12 35.19 4.44-4.3 5.62-11.31 11.34-14.43 4.1-2.82 12.2-2.66 13.2 3.32-.08 4.93-5.45 7.89-9.81 8.49-2.54-.64-1.25-2.65.01-3.79l-.28-2.99c-3.48 2.18-5.29 6.07-8.06 8.99 3 1.55 6.71 3.4 7.14 7.18.3.92.32 3.84 2.04 2.87 6.58-3.43 9.94-10.57 14.24-16.29 1.09.51 3.51.47 2.85 2.32-5.57 8.88-11.69 17.93-20.86 23.46-3.19 1.81-8.5 1.56-9.97-2.37-1.11-4.68 1.6-9.15.98-13.84-1.36-.01-2.72-.01-4.08 0-2.9 6.56-5.55 13.23-8.23 19.88-3.77.78-7.58 1.25-11.36 1.94 1.26-3.57 2.82-7.01 4.18-10.54-6.97 6.27-14.56 13.9-24.65 13.74-4.26.29-7.97-3.03-8.63-7.16-3.32 3.48-6.23 7.59-10.72 9.69-2.89 1.75-6.33 1.49-9.56 1.52-2.43-1.42-3.44-3.99-3.62-6.68-4.34 4.88-9.43 10.33-16.42 10.62-2.7.41-5.79-1.23-6.24-4.08-1.07-4.58 1.37-8.91 3.26-12.91 2.74-5.62 4.91-11.55 8.01-16.98 3.57-1.25 7.46-1.14 11.12-2.07-2.81 6.57-6.06 12.95-8.72 19.59-.75 2.4-1.92 5.14-.43 7.51 1.69.19 2.78-1.18 3.87-2.21 3.7-3.74 6.47-8.25 9.78-12.32 3.51-4.2 4.71-9.69 7.3-14.42 3.68-.47 7.33-1.2 11.04-1.55-2.76 6.06-5.5 12.14-8.05 18.3-1.16 2.7-1.54 5.69-.96 8.59 3.95-.63 5.89-4.49 8.25-7.26 4.17-4.95 6.4-11.28 11.12-15.8 5.24-5.13 12.1-9.62 19.7-9.41 2.19-.19 3.8 1.4 5.08 2.94.1 2.82-.22 5.78-2.34 7.86-2.56 3.49-9.31 3.95-10.78-.76.33-4.09 4.61-6.28 8.32-6.33-1.17-2.23-4.05-.82-5.77-.09-5.72 3.68-9.19 10.09-10.99 16.49-.94 2.92.21 6.06 2.5 7.98 9.02.52 15.41-7.18 20.54-13.54 4.56-5.07 6.38-11.74 9.13-17.82 3.1-6.96 5.64-14.21 9.04-21.01zm226.6 51.5c5.18-2.05 10.89-2.5 16.28-3.87-6.34 27.95-12.98 55.84-19.35 83.79-3.81.43-7.64.74-11.47.9 4.63-26.97 9.73-53.88 14.54-80.82zm-39.8 5.1c1.27-1.25 3.36-.96 4.99-1.42-2.29 7.11-5 14.09-7.12 21.25-.71 1.14-.22 3.31 1.47 2.84 2.75-2.41 4-6.02 6.44-8.69.33-.04 1-.13 1.34-.18-2.51 4.58-4.71 10.2-9.74 12.53-2.07 1.13-3.85-.79-5.53-1.73-3.31 3.38-9.9 5.74-12.78.59-2.08 2.73-4.85 5.19-8.56 4.67-3.91-4.4 2.38-8.85 1.7-13.62-4.37 3.77-6.69 9.1-8.01 14.6-1.66.49-3.37.82-5.09 1.02.1-.62.31-1.86.42-2.48-2.24 2-4.86 3.77-8.01 3.4-.65-.76-1.29-1.52-1.92-2.27-2.11 1.75-4.36 3.54-7.15 3.97-2.41.62-5.58-1.06-5.44-3.8.1-4.23 2.95-7.77 5.87-10.56 2.68-2.35 6.67-4.76 10.09-2.41 1.85-1.02 3.91-1.48 6-1.78-.97 4.29-3.83 8.2-3.47 12.71.41 0 1.22.01 1.63.01 3.24-3.38 5.89-7.4 7.33-11.88.49-2.58 3.49-1.92 5.38-2.21-.22.81-.66 2.43-.88 3.25 2.14-2.48 4.87-6.58 8.56-4.08 1.12 4.24-1.81 7.81-2.18 11.88 4.19-2.23 5.36-7.29 8.64-10.47 2.79-3.04 7.66-6.31 11.53-3.11 1.82-3.89 2.73-8.13 4.49-12.03m-10.33 12.86c-3.11 2.27-4.45 6.22-4.38 9.96 2.58 2.74 6.19.16 7.42-2.6.85-2.04 2.47-4.59.99-6.71-.67-1.74-2.78-1.62-4.03-.65m-42.02 6.01c-2.74 1.98-4.65 5.31-4.51 8.75-.08 1.58.67 2.56 2.24 2.93 3.89-1.21 5.96-5.16 6.69-8.9.3-2.42-2.3-4.62-4.42-2.78zm-218.3 10.83c17.63.11 35.89-.1 52.39-7.08-3.73 5.16-9.25 8.6-14.75 11.61-8.26 4.28-17.25 7.21-26.49 8.4-7.46.34-15.02.38-22.43-.76-4.27 2.43-7.56 6.19-10.25 10.24-7.77 11.47-12.66 24.54-17.46 37.45.33.27.98.83 1.3 1.1.96-7.29 5.44-14.85 12.78-17.11 3.23-1.23 7.71-.2 9.02 3.3 1.69 4.72-.7 10.38-5.05 12.77-3.88 2.15-8.19 3.45-12.53 4.25-.17 4.95 1.28 9.66 3.77 13.9-2.38-.84-5.08-1.47-6.71-3.57-1.97-2.35-1.81-5.61-2.19-8.48-1.06 0-2.13-.01-3.19-.04.02 4.41-2.32 8.3-3.57 12.42-5.16 14.5-11.42 29.51-23.35 39.8-8.81 7.55-20.57 11.92-32.22 10.82-8.78-.67-17.56-7.01-18.99-16.05-.95-6.77.17-14.66 5.65-19.32 3.78-3.32 9.19-3.35 13.83-2.24 1.98-2.29 3.99-4.83 6.97-5.84 2.9-1.15 6.09-.52 8.92.49-1.15 2.9-2.88 5.83-2.32 9.08.59 2.8 2.98 5.44 5.99 5.46 3.79-.04 6.86-2.64 9.33-5.26 6.68-7.16 11.38-15.86 15.75-24.55-7.41 1.86-12.75 7.9-16.57 14.19-3.3.41-1.97-3.7-1.27-5.48 3.68-8.77 13.27-12.3 21.51-15.42 1.51-4.99 4.05-9.57 6.18-14.31 6.52-13.99 14.31-27.8 25.89-38.26-14.75-.98-29.26 3.95-41.88 11.29-6.26 3.85-12.68 8.86-14.94 16.15-1.27 3.7.96 8.25 4.94 8.93 4.31-.38 8.23-2.59 11.58-5.23 2.53-1.95 4.19-4.82 6.95-6.5-.2 9.07-5.55 17.2-12 23.21-5.84 5.2-13.43 9.6-21.53 8.63-4.12-.33-7.68-3.53-8.73-7.49-1.14-6.06.28-12.34 3.31-17.65 5.09-9.54 13.29-17.01 22.06-23.13 12.15-8.39 25.88-14.72 40.45-17.37 9.9-1.31 19.88-1.98 29.85-2.35m-31.91 59.22c5.76-.44 11.85-5.1 10.93-11.4-5.85.58-8.68 6.72-10.93 11.4zm183.55-53.73c5.1-2.9 10.55-6.13 16.59-6.05-1.76 2.52-4.64 3.81-6.89 5.81-8.74 7.41-15.35 17.04-20.46 27.23-6.38 12.9-10.46 27.13-10.43 41.59.14 5.73 1.5 11.69 5.32 16.13 3.12 3.79 8.24 6.14 13.16 5.14 8.41-1.55 15.45-7.35 20.13-14.31 7.06-10.3 9.87-22.85 10.95-35.12.05-8.6.67-17.45-2.15-25.72-1.38-3.61-3.71-7.6-7.81-8.41-3.97-.93-7.35 1.78-10.97 2.81-1.04-1.59.74-2.9 1.41-4.17 4.03-5.37 11.46-8.82 18.08-6.69 6.43 1.94 10.45 8.06 12.41 14.16 3.43 11.77 2.05 24.31-1.05 36-4.73 16.45-13.59 32.11-26.82 43.18-6.5 5.25-14.38 9.87-23.04 9.24-11.13.09-21.04-8.09-24.6-18.37-4.45-13.3-2.39-27.91 2.58-40.76 6.72-16.77 18.29-31.91 33.59-41.69zm105.56 3.52c4.51-.96 9.05-1.78 13.63-2.34-.73 3.46-1.51 6.91-2.01 10.42 8.54-.95 16.92-2.93 25.41-4.22-1.36 2.06-2.79 4.07-4.29 6.03-7.27 1.07-14.68 1.55-21.87 2.96-1.97 6.6-2.81 13.54-4.31 20.27-.94 5.16-2.7 10.41-1.54 15.69.37 1.96 2.88 3.82 4.46 1.87 5.55-5.49 7.62-13.37 12.11-19.62 1.47.57 3.09.91 4.37 1.92-2.29 5.25-5.04 10.29-7.56 15.44-2.84 5.84-7.84 11.08-14.4 12.43-3.45.41-7.54.9-10.35-1.62-1.69-1.26-2.43-3.29-3.27-5.13-3.71 7.56-11.79 13.37-20.48 12.13-3.89-.17-6.55-3.49-7.74-6.9-3.48 5.2-8 10.43-14.41 11.76-3.91.99-8.79 1.02-11.68-2.24-2.94-3.17-2.54-7.88-1.75-11.79 2.06-7.34 3.56-14.82 5.56-22.18 4.62-1.05 9.32-1.72 14-2.53-1.7 6.34-3.21 12.72-4.67 19.11-.58 3.64-1.09 7.87 1.74 10.74 4.27-1.99 6.4-6.42 8.69-10.27 1.71-3.22 3.79-6.23 5.38-9.51 1.31-4.08 1.82-8.37 2.92-12.51 4.59-1.08 9.26-1.76 13.92-2.51-1.67 6.8-3.25 13.62-4.51 20.51-.67 3.2-.24 6.92 2.47 9.08 4.68-2.81 6.89-8.03 9.48-12.58 5.99-8.93 4.51-20.35 8.23-30.14-3.79.84-7.68.74-11.53.85 2.78-3.75 7.77-2.95 11.75-4.22.75-3.63 1.51-7.26 2.25-10.9z"/><path d="M242.12 141.88c4-.9 8.12-1.06 12.13-1.94-5.75 16.98-11.52 33.98-16.79 51.12-.64 2.9-2.35 6.67.54 8.93 1.46-.86 3.24-1.43 4.13-2.97 3.4-4.69 6.38-9.65 9.19-14.7 1.1-1.94 2.18-4.03 4.17-5.21 2.71.2 3.12 3.14 1.45 4.89-5.69 8.76-9.25 19.51-17.98 25.84-4.97 4.12-13.79 2.84-16.17-3.56-5.12 6.4-13.25 11.49-21.72 9.9-4.14-.69-6.92-4.42-7.76-8.33-4.48 5.03-8.76 12.17-16.32 12.24-4.11.71-8.28-2.92-8.09-7.07-.07-9.85 9.3-17.33 8.06-27.34-3.67 4.46-6.5 9.57-10.64 13.65-3.59 7.88-5.84 16.34-9.49 24.2-4.22.4-8.37 1.29-12.6 1.64.88-2.29 1.71-4.6 2.48-6.92-4.44 4.51-9.77 9.61-16.66 8.89-3.03.29-5.56-2.34-6.05-5.16-.54-3.63-.14-7.4 1.3-10.79 3.43-8.51 6.66-17.13 10.3-25.55 4.06-.94 8.27-1.32 12.42-1.8-3.25 7.9-6.46 15.84-9.26 23.91-.73 2.94-1.77 6.64.42 9.2 6.16-3.84 9.12-10.85 13.24-16.53 4.23-5.47 6.02-12.22 8.66-18.5 4.16-.9 8.41-1.28 12.6-2.01-1.06 2.81-2.27 5.55-3.19 8.41 3.68-3.57 5.75-8.86 10.52-11.23 2.97-.91 6.99-.61 8.66 2.4 1.8 2.44 1.43 5.62 1.24 8.47-1.14 6.31-5.17 11.77-6.05 18.13-.28 1.74 1.21 2.5 2.27 1.08 7.68-8.61 11.63-20.03 20.27-27.86 4.59-4.13 10.12-8.04 16.56-8.03 3.01-.05 5.28 2.09 7.48 3.83 3.35-10.48 7.14-20.81 10.68-31.23m-24.31 33.89c-5.69 4.7-8.72 11.95-9.72 19.12-.46 3.01.63 6.07 2.76 8.22 5.31.88 9.2-3.34 11.97-7.25 2.45-3.09 3.08-7.08 4.49-10.67 1.55-3.72.5-8.38-2.46-11.1-2.44-.82-5.15.03-7.04 1.68zm-73.3-12.13c2.58-1.7 6.7.19 6.67 3.36.7 4.56-4.54 8.73-8.79 6.72-3.74-2.64-1.77-8.65 2.12-10.08zm298.76 24.54c4.42-1.45 11.84-1.04 12.5 4.81.11 8.9-11.37 14.05-18.64 10.08-2.71-1.55-2.84-5.1-1.98-7.75 1.36-3.51 4.59-6.03 8.12-7.14z"/></g></svg>