<svg xmlns="http://www.w3.org/2000/svg" width="194pt" height="256pt" viewBox="0 0 194 256"><path fill="#292f33" d="M15.49 0h2.98c1.02.81 2.24 1.49 2.83 2.71 6.22 10.74 12.39 21.52 18.66 32.24-6.75 4.08-13.59 8.02-20.47 11.87C13.04 35.45 6.21 24.28 0 12.79v-2.45c.76-.99 1.35-2.24 2.55-2.78C6.87 5.05 11.26 2.65 15.49 0z"/><path d="M39.96 34.95c3.13-1.52 7.02-1.72 9.98.3 2.76 1.59 3.96 4.68 5.55 7.27 3.15 5.35 6.13 10.83 9.39 16.1l.68.14C60.59 65.38 56.18 72.44 51.17 79c-5.74.04-11.48-.08-17.22.05-2.12.01-4.12.81-5.86 1.97-4.15-7.19-8.39-14.33-12.43-21.58-2.33-4.4-.41-10.17 3.83-12.62 6.88-3.85 13.72-7.79 20.47-11.87z"/><path fill="#dd2e44" d="M71.76 49.76c1.59-2.39 4.31-4 7.22-3.94 9.03-.06 18.06.01 27.09-.03.02 3.5 0 7 0 10.5 13.72-.01 27.44-.1 41.15.05 1.17-3.09.13-7.1.48-10.54 5.48.58 12.36-1.76 16.59 2.87 7.38 10.04 14.21 20.53 21.64 30.52 3.99 1.11 6.92 4.36 8.07 8.27v160c-1.09 4.16-4.33 7.4-8.48 8.54H32.5c-5-1.15-9.01-5.78-8.66-11.03 0-51.64-.01-103.27 0-154.91-.17-3.49 1.49-6.92 4.25-9.04 1.74-1.16 3.74-1.96 5.86-1.97 5.74-.13 11.48-.01 17.22-.05 5.01-6.56 9.42-13.62 14.39-20.24 1.95-3.08 4.12-6.01 6.2-9m34.27 16.38c2.24 4.97 3.23 10.81 5.86 15.39 9.94-.34 20.14.4 29.92-.38 1.78-5.11 3.99-10.08 5.84-15.16-13.87.11-27.77-.18-41.62.15m-51.79 49.15c-5.51 1.52-9.02 8.37-5.92 13.48 5.9 9.32 12.18 18.4 18.18 27.66.4 12.16-.02 24.4.16 36.58-.04 1.33.24 2.84-.67 3.96-5.86 8.87-11.78 17.7-17.53 26.64-2.09 2.9-2.23 7.13-.07 10.04 4.17 6.48 15.1 6.48 19.35.09 6.03-8.76 11.54-17.86 17.58-26.61l.75-.37c14.29-.26 28.58.01 42.87-.13 1.43.14 3.5-.47 4.24 1.22 5.59 8.69 11.23 17.34 17.03 25.89 4.16 5.87 13.66 6.05 18.37.79 2.4-2.81 3.14-7.06 1.19-10.31-5.81-9.71-12.53-18.87-18.4-28.52-.02-13.09-.26-26.23.12-39.31 6.03-8.95 11.92-17.99 17.83-27.02 2.02-2.87 2.09-6.82.18-9.77-3.92-6.76-15.02-6.73-19.33-.41-5.93 8.73-11.67 17.58-17.5 26.38-.38.12-1.14.37-1.52.5-14.03.02-28.06-.06-42.09.04-1.35-.21-3.42.47-4.15-1.1-4.16-6.49-8.5-12.85-12.7-19.32-2.25-3.04-3.8-6.72-6.9-9.05-3.15-2.3-7.44-2.56-11.07-1.35z"/><path fill="#dd2e44" d="M89.26 166.22c1.51-.55 3.16-.29 4.73-.38 11.33.11 22.68-.16 34 .12l.68.32c.12 6.79.12 13.58.03 20.37-13.13.24-26.29.15-39.43.02-.02-6.81-.08-13.63-.01-20.45z"/><path fill="#a0041e" d="M54.24 115.29c3.63-1.21 7.92-.95 11.07 1.35 3.1 2.33 4.65 6.01 6.9 9.05 4.2 6.47 8.54 12.83 12.7 19.32.73 1.57 2.8.89 4.15 1.1 14.03-.1 28.06-.02 42.09-.04.38-.13 1.14-.38 1.52-.5 5.83-8.8 11.57-17.65 17.5-26.38 4.31-6.32 15.41-6.35 19.33.41 1.91 2.95 1.84 6.9-.18 9.77-5.91 9.03-11.8 18.07-17.83 27.02-.38 13.08-.14 26.22-.12 39.31 5.87 9.65 12.59 18.81 18.4 28.52 1.95 3.25 1.21 7.5-1.19 10.31-4.71 5.26-14.21 5.08-18.37-.79-5.8-8.55-11.44-17.2-17.03-25.89-.74-1.69-2.81-1.08-4.24-1.22-14.29.14-28.58-.13-42.87.13l-.75.37c-6.04 8.75-11.55 17.85-17.58 26.61-4.25 6.39-15.18 6.39-19.35-.09-2.16-2.91-2.02-7.14.07-10.04 5.75-8.94 11.67-17.77 17.53-26.64.91-1.12.63-2.63.67-3.96-.18-12.18.24-24.42-.16-36.58-6-9.26-12.28-18.34-18.18-27.66-3.1-5.11.41-11.96 5.92-13.48m35.02 50.93c-.07 6.82-.01 13.64.01 20.45 13.14.13 26.3.22 39.43-.02.09-6.79.09-13.58-.03-20.37l-.68-.32c-11.32-.28-22.67-.01-34-.12-1.57.09-3.22-.17-4.73.38z"/></svg>