<svg xmlns="http://www.w3.org/2000/svg" width="487pt" height="494pt" viewBox="0 0 487 494"><path d="M94.25 7.62c7.18-4.24 15.48-6.11 23.73-6.72 9.28-1.1 18.66-1.09 27.96-.18 15.02.7 29.98 2.43 44.99 3.29 51.71.02 103.41 0 155.12.01 17.74.56 35.93-3.75 53.3 1.54 10.52 2.99 17.34 13.16 19.4 23.46 2.28 9.65.64 19.81-2.72 29-3.8 9.84-10.4 19.17-20.06 23.93-3.36 1.78-7.25 1.69-10.93 1.66-9.01-.12-18.03.05-27.04-.12 12.16 9.44 23.97 19.47 37.38 27.12 21.4 12.44 43.9 23.36 63.2 39.05 5.56 4.32 9.81 10.13 15.85 13.87 8.14 5.65 11.13 15.75 12.57 25.07v11.91c-2.14 18.96-7.61 37.3-12.92 55.56-17.81 60.08-41.49 118.18-61.6 177.48-3.2 9.57-5.45 19.44-9.17 28.83-2.83 7.11-6.95 14.05-13.4 18.43-7.02 5.02-15.61 6.93-23.97 8.35-10.54 1.92-21.22 2.9-31.9 3.74-13.02.05-26.04 1.48-39.06.47-9.15-.79-18.36.12-27.48-1.04-19.17-.86-38.32-2.26-57.48-3.34-8.02.2-15.97-1.2-23.99-1.01-10.02.17-20.07-.5-30.04.77-11.72.32-23.47 2.22-35.18.57-10.64-.89-21.45-4.26-29.48-11.54-5.93-5.22-9.6-12.42-12.43-19.66-6.59-17.11-9.06-35.46-15.28-52.68-14.5-41.85-29.02-83.7-43.51-125.55-8.79-25.28-16.72-51.15-19.01-77.94-.18-3.8-.7-7.57-1.1-11.35v-12.84c2.35-5.24 6.36-9.38 10.45-13.29 8.42-9.8 19.14-17.26 30-24.1 18.27-11.62 38.21-20.47 55.86-33.07 11.42-7.82 22.89-15.56 34.3-23.41-12.57-.22-25.91 1.84-37.65-3.81-9.39-4.31-14.84-14.08-17.33-23.7-3.57-13.37-.08-28.02 8.05-39.06 3.47-3.29 6.96-6.56 10.57-9.7m24.53 6.4c-3.59.7-6.94 2.24-10.31 3.59-5.07 2.6-10 5.96-12.97 10.95-4.08 6.78-7.6 14.79-5.86 22.85 1.65 7.35 8.08 12.24 14.49 15.4l.05.16c6.44 2.32 12.96 4.84 19.78 5.6 6.27 1.32 12.66 2.11 19.05 2.42 2.21.21 3.67-1.93 5.32-2.98l-.85 1.31c1.39-1.27 2.86-2.44 4.41-3.51 13.88-9.45 27.79-18.84 41.61-28.39 7.51-5.02 15.03-10.04 22.38-15.3 5.93-3.52 11.26-7.98 17.25-11.4 15.57-1.22 30.46 4.95 44.28 11.39 8.67 4.67 17.14 9.69 25.31 15.18 14.3 9.84 28.1 20.42 41.46 31.51 14.25.38 28.51.02 42.77.18 5.07.46 9.61-2.53 13.29-5.67 5.98-5.27 7.61-13.93 6.05-21.48-2.25-10.96-8.24-21.19-16.73-28.48-6.52-5.67-15.84-4.12-23.72-3.41-3.94.15-7.87.6-11.81.56-22.01-.01-44.02 0-66.03 0-14.68-.08-29.37.29-44.03-.51-30.24-2.41-60.54-5.48-90.91-4.6-11.52.57-23.17 1.35-34.28 4.63m-7.55 98.22c-24.3 15.71-51.14 27.72-73.22 46.71-8.95 7.98-17.83 17.64-19.62 29.97-.91 11.35 1.4 22.67 4.25 33.6 6.5 23.11 16.09 45.19 25.9 67.05 7.02 15.84 14.43 31.55 20.11 47.93 7.4 22.34 11.2 45.96 21.55 67.26 4.26 8.51 9.81 16.75 17.82 22.14 5.08 3.51 11.12 5.19 17.06 6.61 16.36 3.75 33.26 3.86 49.96 3.47 31.73-.74 63.22-5.64 94.97-5.98 25 .93 49.88 4.76 74.95 4.15 10.65-.24 21.5-1.05 31.61-4.67 5.13-1.94 10.34-4.71 13.35-9.49 9.75-17.35 10.92-37.81 17.94-56.2 8.5-24.42 16.89-48.88 25.44-73.29 10.65-27.51 24.94-53.74 32.17-82.5 2.38-10.23 4.23-21.18 1.19-31.48-1.72-6.27-6.98-10.54-12.04-14.17-10.75-7.61-22.91-12.9-34.04-19.9-22.2-15.09-44.37-30.22-66.57-45.33-28.18-18.5-52.17-42.86-81.58-59.59-10.88-6.12-22.7-11.23-35.3-12.03-41.96 28.59-83.91 57.19-125.9 85.74M42.77 307.07c5.74 16.4 11.26 32.87 17.14 49.21-2.6-11.45-5.37-22.89-9.36-33.94-10.79-31.19-21.66-62.34-32.37-93.55 5.57 26.84 15.85 52.38 24.59 78.28m426.09-78.34c-3.45 7.55-6.42 15.31-9.01 23.2-8.65 24.99-17.31 49.98-25.97 74.97-4.72 13.17-9.05 26.55-11.72 40.31 10.41-29.16 22.16-57.82 32.09-87.15 5.6-16.88 11.1-33.88 14.61-51.33m-60.05 181.05c-5.45 12.2-12.25 25.04-24.42 31.71-10.65 5.24-22.68 6.66-34.38 7.56-27.08 1.4-54.11-1.51-81.04-4-1.68-.18-3.36-.32-5.03-.45-11.98-.73-23.98-1.91-35.99-1.11-22.71 1.5-45.29 4.53-68.03 5.6-14.57.54-29.26.8-43.68-1.69-2.41-1.81-5.44-3.44-8.51-2.18-3.5-.89-6.9-2.19-10.04-3.99-7.67-4.28-12.63-11.88-16.75-19.38 2.85 13.01 6.12 26.14 12.05 38.14 2.44 5.24 6.71 9.27 11.64 12.16 2.08 1.14 4.29 2.02 6.55 2.75 5.51 1.47 11.09 2.74 16.78 3.27 21.71 2.09 43.49-.34 65.16-1.9 17.97-1.69 36.04-.38 53.99.97 23.61 1.83 47.22 4.22 70.93 4.06 17.52.15 35.33-.72 52.14-6.07 9.79-3.17 17.16-11.16 22.23-19.84 8.08-14.1 12.45-29.95 16.4-45.61z"/><path fill="#e4c746" d="M83.68 17.32c2.2-4.46 5.89-7.96 10.57-9.7-3.61 3.14-7.1 6.41-10.57 9.7zm157.71 427.04c3.47-.9 5.52 2.57 7.33 4.86 3.87 5.41 8.36 10.37 12.15 15.84 3.25 4.41-1.42 11.96-6.9 9.89-3.26-2.37-5.27-6.02-7.81-9.09-2.9-4.07-6.5-7.66-9-12-2.09-3.52.27-8.66 4.23-9.5zm-133.66.86c3.07-1.26 6.1.37 8.51 2.18.01 7.19.52 14.41-.04 21.59.18 3.11-2.95 4.35-5.02 5.91-2.26-.73-4.47-1.61-6.55-2.75-.51-7.36-.8-14.76-.27-22.12-.03-2.21 1.82-3.58 3.37-4.81zm156.21-.62c1.67.13 3.35.27 5.03.45 6.93 7.4 14.4 14.37 20.58 22.43 3.64 4.42-1.91 12.25-7.22 9.3-4.25-3.03-7.09-7.57-10.71-11.26-3.51-4.2-8.03-7.56-10.97-12.21-1.88-3.36 1.28-6.35 3.29-8.71z"/><g fill="#ffdc44"><path d="M118.78 14.02c11.11-3.28 22.76-4.06 34.28-4.63 30.37-.88 60.67 2.19 90.91 4.6-41.73.14-83.46.04-125.19.03zm247.06-.08c7.88-.71 17.2-2.26 23.72 3.41 8.49 7.29 14.48 17.52 16.73 28.48 1.56 7.55-.07 16.21-6.05 21.48-3.68 3.14-8.22 6.13-13.29 5.67-14.26-.16-28.52.2-42.77-.18 2.88-.83 5.87-1.27 8.87-1.19 7.65.15 15.3.07 22.96.15 3.84 0 8-.21 11.23-2.58 8.21-5.75 8.22-19.73 0-25.48-4.12-2.94-9.42-2.52-14.21-2.57-23.44.18-46.87-.12-70.31.16-8.17-5.49-16.64-10.51-25.31-15.18 31.85.18 63.7-.04 95.55.11 2.17-.09 4.44.02 6.49-.82 4.09-2.19 3.78-9.5-.77-10.93-4.23-.77-8.57-.46-12.84-.53zM95.5 28.56c2.97-4.99 7.9-8.35 12.97-10.95.25 2.21-.21 4.8 1.37 6.61 1.71 2.12 4.72 1.81 7.15 1.99 32.96-.12 65.93.07 98.89-.09-7.35 5.26-14.87 10.28-22.38 15.3-25.15-.56-50.31-.06-75.46-.27-5.7-.33-11.88 2.02-14.45 7.42-3.28 5.71-1.51 12.45.54 18.24-6.41-3.16-12.84-8.05-14.49-15.4-1.74-8.06 1.78-16.07 5.86-22.85zm15.73 83.68c41.99-28.55 83.94-57.15 125.9-85.74 12.6.8 24.42 5.91 35.3 12.03 29.41 16.73 53.4 41.09 81.58 59.59 22.2 15.11 44.37 30.24 66.57 45.33 11.13 7 23.29 12.29 34.04 19.9 5.06 3.63 10.32 7.9 12.04 14.17 3.04 10.3 1.19 21.25-1.19 31.48-7.23 28.76-21.52 54.99-32.17 82.5-8.55 24.41-16.94 48.87-25.44 73.29-7.02 18.39-8.19 38.85-17.94 56.2-3.01 4.78-8.22 7.55-13.35 9.49-10.11 3.62-20.96 4.43-31.61 4.67-25.07.61-49.95-3.22-74.95-4.15-31.75.34-63.24 5.24-94.97 5.98-16.7.39-33.6.28-49.96-3.47-5.94-1.42-11.98-3.1-17.06-6.61-8.01-5.39-13.56-13.63-17.82-22.14-10.35-21.3-14.15-44.92-21.55-67.26-5.68-16.38-13.09-32.09-20.11-47.93-9.81-21.86-19.4-43.94-25.9-67.05-2.85-10.93-5.16-22.25-4.25-33.6 1.79-12.33 10.67-21.99 19.62-29.97 22.08-18.99 48.92-31 73.22-46.71M216.4 51.31c-31.14 21.22-62.33 42.38-93.5 63.54-3.98 1.88-7.49 4.44-10.79 7.32-22.36 15.31-44.87 30.42-67.21 45.75-4.3 2.49-3.36 9.56 1.15 11.22 2.27 1.03 4.5-.53 6.36-1.68 15.24-10.44 30.57-20.76 45.81-31.2.98-.5 2.32-1.86 3.36-.68 3.18 2.76 5.91 5.99 8.93 8.91 6.57 7 13.84 13.34 20.22 20.49-4.52 7.58-10.56 14.29-14.33 22.37-10.25 18.89-15.72 40.15-17 61.55-.71 5.47-1.19 11.08.03 16.52 1.69 28.74 11.24 57.39 29.17 80.13 5.76 8.37 13.15 15.39 20.47 22.37 7.39 5.74 14.55 11.84 22.71 16.51 17.83 10.18 37.74 16.91 58.21 18.87 7.6 1.23 15.31.5 22.96.73 35.11-1.18 69.77-15.47 94.91-40.12 4.22-4.38 8.89-8.36 12.44-13.35 12.56-16.09 20.43-35.54 23.66-55.63 1.38-7.56.99-15.26 1.66-22.89-.46-3.66-.4-7.36-.6-11.04-1.18-16.98-6.1-33.5-12.66-49.14-5.7-12.12-12.5-23.92-21.54-33.86-.2-.54-.59-1.6-.78-2.14-.94-.21-1.87-.42-2.8-.63.97 1.01 1.95 2.03 2.94 3.04 6.05 8.82 11.5 18.24 14.05 28.72 2.85 8.38 4.07 17.21 4.43 26.03-.15 8.32.45 16.7-.87 24.96-.44 8.65-3.46 16.83-5.66 25.12-2.64 6.61-4.79 13.56-8.95 19.41-9.19-18.08-17.81-36.47-27.32-54.39-8.94-18.03-17.61-36.19-26.92-54.03-1.74-3.16-2.78-7.39-6.51-8.79-9.81-4.67-19.58-9.42-29.2-14.47-1.02-.43-2.69-1.46-3.24.14-1.79 3.2-3.09 6.63-4.71 9.92 9.86 19.84 20.41 39.35 29.62 59.5-25.72-.05-51.44.05-77.16-.05 4.05-9.84 9.67-18.95 14.28-28.53 10.29-21.28 20.73-42.49 31.81-63.37 9.15 4.31 18.11 8.99 27.23 13.34 3.47 1.65 6.74 3.78 10.43 4.9 2.42-4.47 4.33-9.19 6.83-13.61 2.53-5.42 6.01-10.42 7.64-16.23-3.23-1.37-6.44-2.8-9.55-4.4-12.59-6.42-25.49-12.22-37.94-18.89-14.72-7.8-29.81-14.84-44.72-22.24a93.176 93.176 0 0 0-9.13-4.23c-3.71 4.08-7.49 8.13-11.76 11.64-4.62 3.75-8.47 8.32-12.94 12.24 10.91 5.49 21.62 11.37 32.62 16.67 3.62 2.05 7.7 3.26 11.11 5.66-.12 1.66-.97 3.13-1.68 4.6-3.27 6.09-6.02 12.44-9.27 18.55-10.47 19.54-19.67 39.72-29.74 59.46-10.81 20.19-20.18 41.09-30.76 61.39-4.14 7.66-7.91 15.51-11.66 23.36-8.88-21.12-10.02-44.79-6.22-67.2 4.75-21.43 14.98-41.97 31.14-57.09-.1-7.86-.11-15.72.01-23.58-12.49-12.16-24.38-24.91-37.03-36.91 30.1-20.72 60.44-41.1 90.63-61.7 3.11-2.24 6.59-4.04 9.36-6.74 3.23-3.5.41-10.35-4.46-10.21-2.92.4-5.16 2.59-7.57 4.09M34.3 199.39c-3.39.76-4.91 4.67-3.32 7.67C43.34 239.7 55.62 272.39 68.07 305c1.41 4.83 8.7 5.59 11.36 1.51 1.32-2.05.31-4.49-.38-6.56-11.29-29.69-22.48-59.43-33.72-89.14-1.24-3.12-2.12-6.43-3.88-9.3-1.53-2.28-4.65-2.83-7.15-2.12m45.01 121.99c-2.69.76-4.62 3.83-3.45 6.54 2.36 7.48 5.39 14.74 7.9 22.18 1 2.69 1.99 6.19 5.19 6.95 4.18 1.58 9.71-2.43 7.63-7.04-2.89-8.38-5.98-16.71-9.09-25.01-1.1-3.31-5.02-4.76-8.18-3.62zm44.65-248.81c8.04-1.5 16.26-.99 24.37-.56-1.65 1.05-3.11 3.19-5.32 2.98-6.39-.31-12.78-1.1-19.05-2.42z"/><path d="M190.97 283.69c36.03.03 72.06.02 108.09 0 1.4.08 3.27-.28 3.65 1.54 9.57 19.39 18.93 38.91 29.1 57.99-8.53 8.72-17.52 17.22-28.32 23.07-8.22 4.32-16.62 8.5-25.71 10.65-13.35 4.59-27.72 5.01-41.69 4.19-8.96-.45-17.51-3.27-26.11-5.58-13.99-4.96-27.5-11.93-38.54-21.99-3.45-3.35-6.77-6.84-10.11-10.31 9.84-19.88 19.41-39.89 29.64-59.56z"/></g><path fill="#fff" d="M108.47 17.61c3.37-1.35 6.72-2.89 10.31-3.59 41.73.01 83.46.11 125.19-.03 14.66.8 29.35.43 44.03.51 22.01 0 44.02-.01 66.03 0 3.94.04 7.87-.41 11.81-.56 4.27.07 8.61-.24 12.84.53 4.55 1.43 4.86 8.74.77 10.93-2.05.84-4.32.73-6.49.82-31.85-.15-63.7.07-95.55-.11-13.82-6.44-28.71-12.61-44.28-11.39-5.99 3.42-11.32 7.88-17.25 11.4-32.96.16-65.93-.03-98.89.09-2.43-.18-5.44.13-7.15-1.99-1.58-1.81-1.12-4.4-1.37-6.61zm107.93 33.7c2.41-1.5 4.65-3.69 7.57-4.09 4.87-.14 7.69 6.71 4.46 10.21-2.77 2.7-6.25 4.5-9.36 6.74-30.19 20.6-60.53 40.98-90.63 61.7 12.65 12 24.54 24.75 37.03 36.91-.12 7.86-.11 15.72-.01 23.58-16.16 15.12-26.39 35.66-31.14 57.09-3.8 22.41-2.66 46.08 6.22 67.2 3.75-7.85 7.52-15.7 11.66-23.36 10.58-20.3 19.95-41.2 30.76-61.39 10.07-19.74 19.27-39.92 29.74-59.46 3.25-6.11 6-12.46 9.27-18.55.71-1.47 1.56-2.94 1.68-4.6-3.41-2.4-7.49-3.61-11.11-5.66-11-5.3-21.71-11.18-32.62-16.67 4.47-3.92 8.32-8.49 12.94-12.24 4.27-3.51 8.05-7.56 11.76-11.64 3.12 1.24 6.16 2.66 9.13 4.23 14.91 7.4 30 14.44 44.72 22.24 12.45 6.67 25.35 12.47 37.94 18.89 3.11 1.6 6.32 3.03 9.55 4.4-1.63 5.81-5.11 10.81-7.64 16.23-2.5 4.42-4.41 9.14-6.83 13.61-3.69-1.12-6.96-3.25-10.43-4.9-9.12-4.35-18.08-9.03-27.23-13.34-11.08 20.88-21.52 42.09-31.81 63.37-4.61 9.58-10.23 18.69-14.28 28.53 25.72.1 51.44 0 77.16.05-9.21-20.15-19.76-39.66-29.62-59.5 1.62-3.29 2.92-6.72 4.71-9.92.55-1.6 2.22-.57 3.24-.14 9.62 5.05 19.39 9.8 29.2 14.47 3.73 1.4 4.77 5.63 6.51 8.79 9.31 17.84 17.98 36 26.92 54.03 9.51 17.92 18.13 36.31 27.32 54.39 4.16-5.85 6.31-12.8 8.95-19.41 2.2-8.29 5.22-16.47 5.66-25.12 1.32-8.26.72-16.64.87-24.96-.36-8.82-1.58-17.65-4.43-26.03-2.55-10.48-8-19.9-14.05-28.72-.99-1.01-1.97-2.03-2.94-3.04.93.21 1.86.42 2.8.63.19.54.58 1.6.78 2.14 9.04 9.94 15.84 21.74 21.54 33.86 6.56 15.64 11.48 32.16 12.66 49.14.2 3.68.14 7.38.6 11.04-.67 7.63-.28 15.33-1.66 22.89-3.23 20.09-11.1 39.54-23.66 55.63-3.55 4.99-8.22 8.97-12.44 13.35-25.14 24.65-59.8 38.94-94.91 40.12-7.65-.23-15.36.5-22.96-.73-20.47-1.96-40.38-8.69-58.21-18.87-8.16-4.67-15.32-10.77-22.71-16.51-7.32-6.98-14.71-14-20.47-22.37-17.93-22.74-27.48-51.39-29.17-80.13-1.22-5.44-.74-11.05-.03-16.52 1.28-21.4 6.75-42.66 17-61.55 3.77-8.08 9.81-14.79 14.33-22.37-6.38-7.15-13.65-13.49-20.22-20.49-3.02-2.92-5.75-6.15-8.93-8.91-1.04-1.18-2.38.18-3.36.68-15.24 10.44-30.57 20.76-45.81 31.2-1.86 1.15-4.09 2.71-6.36 1.68-4.51-1.66-5.45-8.73-1.15-11.22 22.34-15.33 44.85-30.44 67.21-45.75 3.3-2.88 6.81-5.44 10.79-7.32 31.17-21.16 62.36-42.32 93.5-63.54m-25.43 232.38c-10.23 19.67-19.8 39.68-29.64 59.56 3.34 3.47 6.66 6.96 10.11 10.31 11.04 10.06 24.55 17.03 38.54 21.99 8.6 2.31 17.15 5.13 26.11 5.58 13.97.82 28.34.4 41.69-4.19 9.09-2.15 17.49-6.33 25.71-10.65 10.8-5.85 19.79-14.35 28.32-23.07-10.17-19.08-19.53-38.6-29.1-57.99-.38-1.82-2.25-1.46-3.65-1.54-36.03.02-72.06.03-108.09 0zM34.3 199.39c2.5-.71 5.62-.16 7.15 2.12 1.76 2.87 2.64 6.18 3.88 9.3 11.24 29.71 22.43 59.45 33.72 89.14.69 2.07 1.7 4.51.38 6.56-2.66 4.08-9.95 3.32-11.36-1.51-12.45-32.61-24.73-65.3-37.09-97.94-1.59-3-.07-6.91 3.32-7.67zm45.01 121.99c3.16-1.14 7.08.31 8.18 3.62 3.11 8.3 6.2 16.63 9.09 25.01 2.08 4.61-3.45 8.62-7.63 7.04-3.2-.76-4.19-4.26-5.19-6.95-2.51-7.44-5.54-14.7-7.9-22.18-1.17-2.71.76-5.78 3.45-6.54z"/><path fill="#cd9e52" d="M103.59 48.57c2.57-5.4 8.75-7.75 14.45-7.42 25.15.21 50.31-.29 75.46.27-13.82 9.55-27.73 18.94-41.61 28.39a41.393 41.393 0 0 0-4.41 3.51l.85-1.31c-8.11-.43-16.33-.94-24.37.56-6.82-.76-13.34-3.28-19.78-5.6l-.05-.16c-2.05-5.79-3.82-12.53-.54-18.24zm199.13-7.28c23.44-.28 46.87.02 70.31-.16 4.79.05 10.09-.37 14.21 2.57 8.22 5.75 8.21 19.73 0 25.48-3.23 2.37-7.39 2.58-11.23 2.58-7.66-.08-15.31 0-22.96-.15-3-.08-5.99.36-8.87 1.19-13.36-11.09-27.16-21.67-41.46-31.51zM42.77 307.07c-8.74-25.9-19.02-51.44-24.59-78.28 10.71 31.21 21.58 62.36 32.37 93.55 3.99 11.05 6.76 22.49 9.36 33.94-5.88-16.34-11.4-32.81-17.14-49.21zm426.09-78.34c-3.51 17.45-9.01 34.45-14.61 51.33-9.93 29.33-21.68 57.99-32.09 87.15 2.67-13.76 7-27.14 11.72-40.31 8.66-24.99 17.32-49.98 25.97-74.97 2.59-7.89 5.56-15.65 9.01-23.2zm-60.05 181.05c-3.95 15.66-8.32 31.51-16.4 45.61-5.07 8.68-12.44 16.67-22.23 19.84-16.81 5.35-34.62 6.22-52.14 6.07-23.71.16-47.32-2.23-70.93-4.06-17.95-1.35-36.02-2.66-53.99-.97-21.67 1.56-43.45 3.99-65.16 1.9-5.69-.53-11.27-1.8-16.78-3.27 2.07-1.56 5.2-2.8 5.02-5.91.56-7.18.05-14.4.04-21.59 14.42 2.49 29.11 2.23 43.68 1.69 22.74-1.07 45.32-4.1 68.03-5.6 12.01-.8 24.01.38 35.99 1.11-2.01 2.36-5.17 5.35-3.29 8.71 2.94 4.65 7.46 8.01 10.97 12.21 3.62 3.69 6.46 8.23 10.71 11.26 5.31 2.95 10.86-4.88 7.22-9.3-6.18-8.06-13.65-15.03-20.58-22.43 26.93 2.49 53.96 5.4 81.04 4 11.7-.9 23.73-2.32 34.38-7.56 12.17-6.67 18.97-19.51 24.42-31.71m-167.42 34.58c-3.96.84-6.32 5.98-4.23 9.5 2.5 4.34 6.1 7.93 9 12 2.54 3.07 4.55 6.72 7.81 9.09 5.48 2.07 10.15-5.48 6.9-9.89-3.79-5.47-8.28-10.43-12.15-15.84-1.81-2.29-3.86-5.76-7.33-4.86zM80.94 421.85c4.12 7.5 9.08 15.1 16.75 19.38 3.14 1.8 6.54 3.1 10.04 3.99-1.55 1.23-3.4 2.6-3.37 4.81-.53 7.36-.24 14.76.27 22.12-4.93-2.89-9.2-6.92-11.64-12.16-5.93-12-9.2-25.13-12.05-38.14z"/></svg>