<svg xmlns="http://www.w3.org/2000/svg" width="1200" height="1200" viewBox="0 0 900 900"><g fill="#9d0701"><path d="M415.99 58.66c17.83-2.19 35.92-2.85 53.84-1.34 27.52 1.72 54.89 6.88 81.05 15.72 2.58.78 5.11 1.74 7.59 2.81-3.99-.8-7.89-1.92-11.72-3.28-18.78-6.09-38.22-9.86-57.73-12.69-9.35-.33-18.6-2.26-27.98-1.86-11 .3-22.03-.44-33 .39-8.98 1.48-18.15 1.29-27.06 3.22a306.463 306.463 0 0 0-79.31 23.1c-4.21 1.99-8.35 4.22-12.88 5.41l-1.18.34c13.47-7.12 27.67-12.9 42.17-17.57 15.66-5.42 31.86-9.21 48.18-11.96 6-.83 11.94-2.21 18.03-2.29zm96.99 179.16c14.08 9.93 27.87 20.29 41.76 30.5 61.49 45.47 123.17 90.69 184.66 136.16 7.85 5.47 15.2 11.65 23.28 16.79.81-3.37 1.49-6.8 1.55-10.28.2-2.57-.1-5.38 1.34-7.66-.45 5.57-.42 11.24-1.84 16.67-1.29 9.77-3.63 19.34-5.71 28.96-2.96 10.77-6.1 21.5-9.84 32.03-1.14 2.6-2.16 5.24-3.15 7.9-.61 1.37-1.2 2.75-1.75 4.14-22.16 53.9-59.98 101.01-106.95 135.36-2.21 1.7-4.87 2.95-6.41 5.37 1.17 2.49 1.05 5.31 1.81 7.94.18 1.52.34 3.05.54 4.59.6 1.96.77 4 1.04 6.03.61 2.42.74 4.95 1.43 7.37.17 1.53.33 3.07.52 4.61.68 2.41.81 4.94 1.43 7.38.25 2 .43 4.04 1.01 6 .19 1.21.38 2.43.6 3.66.63 2.41.77 4.92 1.39 7.34.26 2.01.43 4.07 1.04 6.03.18 1.52.34 3.05.53 4.59.67 2.42.8 4.96 1.48 7.39.17 1.53.33 3.07.52 4.62.68 2.41.81 4.94 1.43 7.38.26 2 .45 4.04.99 6.01.27 2 .44 4.05 1.05 6 .18 1.52.34 3.05.54 4.59.6 1.94.77 3.99 1.05 6.01.54 1.97.72 4 .99 6.03.62 2.41.76 4.92 1.38 7.35.26 2.01.43 4.06 1.04 6.02.18 1.52.34 3.06.53 4.61.68 2.41.81 4.93 1.43 7.37.26 2.01.43 4.06 1.04 6.02.18 1.52.34 3.06.53 4.6.68 2.41.81 4.94 1.43 7.38.26 2.01.43 4.07 1.04 6.03.18 1.52.34 3.05.54 4.59.6 1.94.77 3.98 1.05 6 .53 1.96.72 3.98 1 6 .54 1.96.72 3.99.99 6.02.62 2.41.75 4.93 1.38 7.36.26 2.01.42 4.07 1.04 6.03.18 1.51.34 3.05.54 4.59.6 1.94.77 3.98 1.05 6 .52 1.96.72 3.99 1 6.01.53 1.95.72 3.98 1 6 .53 1.96.72 3.99.99 6.02.61 2.43.72 4.98 1.47 7.4.12 1.41.21 2.83.31 4.27h-42c-.1-1.12-.19-2.24-.27-3.33-.42-1.23-.8-2.45-1.14-3.67h40.43c-.12-1.43-.22-2.83-.34-4.22-.66-2.48-.89-5.03-1.5-7.5-.2-1.52-.37-3.04-.55-4.54-.52-1.99-.78-4.03-1.07-6.04-.46-1.99-.7-4.01-.97-6.02-.57-2.45-.8-4.96-1.4-7.4-.2-1.52-.38-3.04-.57-4.54-.52-1.99-.76-4.04-1.05-6.05-.55-2.45-.78-4.95-1.33-7.38-.29-2.02-.53-4.04-.98-6.01-.31-2.03-.56-4.06-1.06-6.04-.21-1.52-.39-3.03-.58-4.52-.51-1.99-.77-4.03-1.06-6.04-.46-1.99-.7-4.01-.97-6.02-.57-2.45-.8-4.97-1.4-7.4-.2-1.53-.37-3.05-.56-4.56-.61-2.45-.84-4.96-1.4-7.41-.28-2.02-.52-4.03-.97-6.01-.31-2.03-.56-4.06-1.06-6.04-.21-1.52-.38-3.04-.57-4.54-.61-2.45-.84-4.96-1.39-7.4-.3-2.04-.53-4.07-1.04-6.05-.21-1.52-.39-3.03-.58-4.53-.52-1.99-.76-4.04-1.04-6.05-.56-2.46-.79-4.97-1.39-7.41-.2-1.53-.37-3.05-.56-4.56-.61-2.45-.84-4.96-1.39-7.41-.29-2.03-.54-4.07-1.04-6.05-.21-1.52-.38-3.04-.57-4.55-.61-2.45-.84-4.98-1.45-7.43-.2-1.53-.36-3.05-.54-4.56-.62-2.44-.85-4.95-1.42-7.39-.23-1.22-.43-2.44-.64-3.64-.48-1.98-.72-4-1-6-.56-2.44-.79-4.94-1.34-7.38-.29-2.02-.53-4.03-.98-6.01-.31-2.03-.56-4.06-1.06-6.04-.21-1.51-.39-3.02-.58-4.52-.52-2-.76-4.04-1.04-6.05-.56-2.45-.79-4.95-1.34-7.38-.29-2.02-.53-4.04-.99-6.02-.3-2.01-.54-4.02-.99-5.99-.31-2.03-.56-4.06-1.06-6.04-.21-1.51-.39-3.02-.59-4.51-.49-1.89-.72-3.83-.95-5.75h-55.61l-.42 3.25c-.52 1.98-.77 4.02-1.07 6.05-.46 1.98-.7 3.99-.97 6.01-.57 2.45-.8 4.96-1.4 7.41-.2 1.5-.38 3.02-.57 4.54-.52 1.98-.76 4.02-1.03 6.05-.43 1.66-.74 3.35-1.06 5.05-.44 1.95-.68 3.94-.96 5.93-.47 1.98-.71 4-.98 6.02-.57 2.45-.8 4.96-1.4 7.41-.2 1.5-.38 3.02-.56 4.54-.52 1.98-.78 4-1.08 6.03-.35 1.49-.57 3.02-.71 4.56-7.48 1.41-14.56 4.38-21.91 6.32-1.82.39-3.62.83-5.41 1.32-1.87.44-3.74.88-5.6 1.34-2.62.83-5.36 1.26-8.04 1.85-2.25.53-4.55.8-6.83 1.14-2.31.87-4.8.89-7.23.92-1.37.42-2.73.86-4.07 1.35-3.82.49-7.67.49-11.51.54-.73 9.12-.12 18.27-.34 27.4-.07 1.25-.29 2.47-.68 3.67-.27 1.95-.47 3.93-.88 5.87-.39 1.33-.75 2.68-1.17 4.02-.1.49-.29 1.47-.39 1.96-.59.97-1.18 1.94-1.77 2.92l-.24 1.99c-2.18 4.76-5.14 9.05-8.23 13.24-2.7 2.98-5.61 5.76-8.44 8.6.56 1.71.98 3.47 1.5 5.21.71 3.38 1.55 6.74 2.65 10.03.37 1.29.67 2.6.99 3.92.48 1.7.88 3.42 1.41 5.12.16.93.34 1.87.51 2.82.53 1.69.93 3.42 1.43 5.14.3 1.33.59 2.68.96 4.02.32 1.31.64 2.65 1.02 3.98.75 3.36 1.58 6.72 2.68 9.99.37 1.29.67 2.6 1 3.93.46 1.68.85 3.39 1.33 5.08.3 1.33.6 2.68.96 4.01.34 1.35.68 2.71 1.1 4.05.17.92.35 1.85.54 2.79.41 1.33.74 2.69 1.09 4.07.97 3.69 1.75 7.44 2.94 11.07.5 1.67.92 3.37 1.44 5.05.17.92.35 1.86.53 2.8.4 1.34.73 2.7 1.07 4.07.47 1.69.85 3.4 1.33 5.1.3 1.32.6 2.67.96 4 .34 1.35.68 2.71 1.1 4.06.17.91.34 1.84.52 2.79.38 1.17.73 2.35 1.07 3.56-13.11.1-26.22-.02-39.33.07-1.47-.13-3.07.19-4.39-.59-.52-1.26-.65-2.63-.89-3.93l-1-2.52c14.19.01 28.39.04 42.58-.03-.31-1.19-.63-2.38-.96-3.55-.32-1.35-.63-2.69-.99-4-.32-1.35-.64-2.69-1-4-.32-1.35-.64-2.69-1-4.01-.32-1.34-.64-2.68-1-3.99-.32-1.35-.65-2.69-1-4.01-.32-1.34-.64-2.68-.99-3.99-.34-1.35-.66-2.69-1.04-4-.15-.46-.44-1.38-.59-1.84-.52-1.73-.95-3.48-1.47-5.2-.18-.91-.35-1.82-.51-2.72-.42-1.35-.76-2.71-1.11-4.06-.35-1.34-.65-2.69-.94-4.02-.5-1.74-.92-3.48-1.43-5.2-.19-.92-.36-1.82-.53-2.72-.4-1.36-.74-2.72-1.07-4.08-.47-1.72-.87-3.45-1.35-5.14-.16-.46-.48-1.39-.63-1.85-.38-1.34-.7-2.67-1.02-4.01-.47-1.71-.86-3.44-1.32-5.14-.34-1.37-.68-2.74-1.07-4.08-.18-.92-.36-1.83-.53-2.72-.51-1.73-.94-3.47-1.42-5.19-.32-1.36-.62-2.7-.97-4.03-.33-1.35-.65-2.69-1.01-4.01-.33-1.34-.65-2.67-1.02-3.98l-.64-1.84c-.39-1.33-.71-2.67-1.04-3.99-.35-1.35-.66-2.68-.95-4.02-.51-1.78-.95-3.57-1.47-5.33 6.85-6.2 12.83-13.43 16.7-21.87.03-.45.1-1.35.13-1.79.62-1.05 1.23-2.08 1.86-3.11.08-.46.25-1.36.33-1.82.42-1.36.8-2.73 1.19-4.09.39-1.93.63-3.89.93-5.83 1.05-4.16.55-8.49.65-12.72-.14-15.05.24-30.1-.2-45.14-.75-2.32-.85-4.75-1.08-7.14-.55-2.09-.89-4.22-1.4-6.31-.14-.46-.43-1.38-.57-1.84-.39-1.02-.75-2.03-1.11-3.03-.31-1.01-.61-2.02-.89-3.02-.25-.53-.74-1.59-.99-2.12-4.63-9.47-11.92-17.75-21.28-22.74-1.68-.8-3.36-1.6-5.01-2.43-1.02-.29-2.02-.59-3.02-.89-1.02-.37-2.04-.73-3.04-1.11-.46-.14-1.37-.44-1.83-.59-1.64-.42-3.3-.73-4.95-1.07-2.39-.52-4.84-.64-7.27-.8 8.53-9.12 12.86-21.49 14.12-33.75.11-5.68 1.16-11.35.32-17.01-.02-14.11-5.94-27.21-11.51-39.88-4.94-10.55-10.17-21-16.22-30.97-2.09-3.39-3.32-7.19-4.41-10.99-.02-.83-.05-2.51-.07-3.35 1.87-5.3 6.46-10.23 12.42-10.26 31.66-.03 63.33.02 94.99-.02 12.32-.07 22.4-9.41 27.32-20.08 5.23-9.9 4.45-22.54-1.87-31.76-3.18-5.31-8.39-9.06-11.49-14.4-1.38-2 .91-3.8 2.03-5.25 5.15-5.35 9.97-11.12 13.24-17.83.23-.55.69-1.64.91-2.18.68-4.53 1.26-9.42-.9-13.66-3.49-7.55-10.13-12.85-15.55-18.94-1.84-1.9-3.15-4.8-1.49-7.26 3.75-6.4 7.37-12.95 9.18-20.21.53-6.85-1.85-13.76-6.47-18.82-3.53-3.94-8.26-6.47-12.33-9.78-1.81-1.56-3.51-3.87-2.85-6.39.93-5.63.78-11.36.74-17.04.11-4.65-2.71-8.67-5.5-12.13M484.21 680.5c-.01 1.54-.02 3.09-.02 4.64 1.28-.45 2.57-.87 3.83-1.35-1.22-1.16-2.52-2.22-3.81-3.29zM247.19 396.21c1.19-.53 2.44-.79 3.76-.79 12.09-.02 24.77-.62 36.04 4.56 9.09 5.69 15.06 15.05 19.72 24.47 8.11 17.38 14.81 35.38 22.77 52.83 3.97 8.53 8.55 17.1 15.88 23.25 7.06 5.93 15.64 10.2 21.34 17.65 12.92 15.61 16.68 36.36 18.89 55.92 1.51 8.24.08 16.8 2.68 24.87-2.71.01-5.42.03-8.12.03-43.69-34.37-87.43-68.69-131.16-103.01-8.14-5.8-15.6-12.48-23.58-18.5-29.85-23.69-60.19-46.78-89.8-70.76 32.13-.66 64.29-.01 96.43-.23 5.63-.09 11.25.42 16.81 1.22-.79-3.72-3.43-7.78-1.66-11.51zM52 606h3v107h-3V606zm89 0h3v267h-40v-7h37V606zm135.9-.98c1.63 2.02 2.53 4.5 2.89 7.07 1.42 9.43 2.97 18.85 4.7 28.24 21.71 13.22 44.93 24.29 69.43 31.23-.02.89-.02 1.79 0 2.7-1.62-.53-3.25-1-4.86-1.5-1.81-.48-3.6-1-5.28-1.82-1.24-.43-2.46-.81-3.69-1.22-1.42-.66-2.83-1.34-4.2-2.09-1.04-.15-2.08-.29-3.11-.42-.4-.4-1.19-1.19-1.59-1.58-.57-.05-1.7-.14-2.26-.19-2.79-1.55-5.75-2.72-8.69-3.93-1.12-.58-2.23-1.18-3.33-1.77-.47-.16-1.41-.47-1.88-.62-10.23-5.18-20.41-10.43-30.27-16.28.22 1.63.53 3.24.93 4.85.26 2.01.45 4.04.99 6.01.27 2.01.44 4.05 1.05 6.01.19 1.52.35 3.06.53 4.6.68 2.41.8 4.93 1.43 7.37.25 1.98.45 4 .94 5.96.32 1.67.61 3.37 1.07 5.04.25 2 .43 4.04.98 6.01.27 2 .46 4.03 1 6 .27 2 .47 4.03 1 6 .27 2.01.44 4.06 1.05 6.02.19 1.52.34 3.05.53 4.59.68 2.42.8 4.96 1.48 7.39.18 1.53.33 3.07.52 4.62.68 2.42.8 4.95 1.48 7.38.18 1.53.34 3.07.52 4.62.69 2.41.81 4.93 1.43 7.37.26 2.01.45 4.04.99 6.01.27 2 .46 4.04 1 6.01.27 2 .44 4.05 1.05 6.01.19 1.52.35 3.05.53 4.6.67 2.42.8 4.95 1.47 7.38.18 1.53.35 3.06.54 4.6.6 1.95.77 3.99 1.05 6.01.54 1.96.72 3.99.99 6.02.62 2.42.74 4.95 1.43 7.38.18 1.52.34 3.06.52 4.6.68 2.42.8 4.96 1.48 7.39.17 1.53.33 3.07.52 4.62.68 2.41.81 4.93 1.43 7.37.26 2.01.42 4.07 1.04 6.03.19 1.51.34 3.04.54 4.58.61 1.94.77 3.98 1.05 6.01.53 1.96.72 3.99 1 6.01.54 1.95.72 3.98.99 6 .62 2.42.76 4.94 1.38 7.37.26 2 .45 4.04.99 6.02.27 2.02.42 4.09 1.11 6.05.12 1.4.2 2.81.3 4.25h-42c-.09-1.13-.18-2.24-.27-3.34-.42-1.22-.8-2.44-1.14-3.66h40.43c-.11-1.43-.22-2.83-.34-4.22-.66-2.46-.88-5-1.44-7.46-.29-2.04-.53-4.07-1.04-6.06-.2-1.52-.38-3.02-.58-4.52-.51-1.99-.76-4.03-1.06-6.04-.46-1.99-.7-4-.99-6-.47-1.99-.71-4.01-.99-6.02-.56-2.44-.79-4.94-1.34-7.37-.29-2.02-.52-4.04-.98-6.01-.31-2.03-.56-4.06-1.07-6.04-.19-1.52-.37-3.04-.56-4.54-.61-2.46-.84-4.99-1.44-7.44-.2-1.52-.38-3.04-.57-4.54-.52-1.99-.76-4.04-1.04-6.05-.56-2.46-.79-4.98-1.39-7.41-.2-1.53-.37-3.05-.56-4.56-.61-2.45-.84-4.96-1.4-7.4-.28-2.03-.52-4.05-.98-6.03-.29-2.01-.54-4.02-1-5.99-.29-2.02-.54-4.03-.99-6-.31-2.03-.55-4.06-1.07-6.04-.19-1.52-.37-3.04-.56-4.55-.61-2.45-.84-4.98-1.45-7.43-.19-1.53-.36-3.05-.55-4.56-.61-2.45-.84-4.96-1.4-7.41-.28-2.02-.52-4.04-.97-6.01-.3-2.03-.55-4.06-1.06-6.03-.21-1.52-.38-3.03-.58-4.53-.51-1.99-.76-4.03-1.06-6.04-.46-1.98-.7-4-.99-6-.47-1.98-.71-4.01-.99-6.01-.56-2.42-.78-4.9-1.3-7.32-.33-1.7-.63-3.4-1.05-5.06-.28-2.03-.52-4.07-1.03-6.05-.2-1.51-.38-3.03-.58-4.52-.51-1.99-.76-4.03-1.06-6.04-.46-1.98-.7-4-.99-5.99-.47-1.99-.71-4.02-.98-6.02-.57-2.46-.8-4.97-1.4-7.41-.2-1.52-.37-3.04-.57-4.55-.51-1.98-.76-4.02-1.06-6.03-.46-1.98-.7-4-.99-6-.47-1.98-.71-4-1.01-6-.44-1.87-.6-3.79-.75-5.68zM887 606h3v267h-40c-.01-2.34-.01-4.67 0-7h37V606z"/><path d="M394 640c9.76.07 19.53-.15 29.28.12 1.73.67 3.56 1.04 5.31 1.66.47.08 1.41.24 1.87.33 3.5 2.13 6.31 5.03 8.5 8.48.01.53.05 1.59.06 2.12-4.53-2.9-9.52-5.43-15-5.61-9-.35-18 .01-27-.1-.03 11.85-.06 23.71 0 35.56 6.66.65 13.31 1.4 19.91 2.47 7.94 1.41 16.03.9 24.04 1.49-.02.5-.06 1.5-.09 2.01-8.64-.32-17.38.47-25.89-1.39-5.97-.78-11.95-1.57-17.95-2.07-.1 13.31-.01 26.62-.04 39.93h-3v-85zm-146.99 21l.91-.01c.08 1.08.16 2.17.25 3.27 1.15 2.16.76 4.67.98 7.03.32.87.59 1.76.83 2.67-.93 2.84-1.07 5.84-1.65 8.76-.28 2.34-.51 4.71-1.02 7.03-.22 1.83-.4 3.67-.61 5.52-.6 2.8-.81 5.67-1.39 8.49-.26 2.66-.41 5.36-.98 7.99-.23 1.82-.42 3.66-.65 5.49-.5 2.32-.74 4.68-1.02 7.04-.56 2.79-.76 5.64-1.32 8.44-.29 2.33-.52 4.69-.99 7.01-.29 2.34-.53 4.7-1.01 7.02-.28 2.33-.52 4.67-.98 6.99-.31 2.34-.55 4.7-1.07 7.02-.16 1.4-.29 2.81-.42 4.24-1.34-.01-2.67-.01-3.99-.01.15-1.94-.03-3.98.95-5.74.24-2.35-.14-4.85 1.01-7 .12-1.85.19-3.68.32-5.51 1.16-2.15.76-4.66 1.01-6.98 1.42-2.66.23-5.87 1.66-8.52.23-2.34-.13-4.83 1-6.99.24-2.35-.14-4.85 1.01-7 .12-1.84.19-3.68.32-5.5 1.47-2.65.2-5.89 1.7-8.52.27-2.66-.32-5.52.98-7.97.12-1.85.19-3.68.32-5.51 1.45-2.64.22-5.87 1.68-8.5.12-1.84.19-3.68.32-5.51 1.17-2.15.76-4.66 1-6.99 1.31-2.38.72-5.17.85-7.75zm347 0h.91c.07 1.08.15 2.16.25 3.26 1.14 2.15.75 4.65.98 7 .63.87.85 1.8.65 2.81l-.34 1.6c-.44 2.34-.66 4.73-1.17 7.07-.21 1.83-.39 3.67-.6 5.51-.52 2.31-.75 4.67-1.03 7.02-.56 2.81-.77 5.68-1.35 8.49-.27 2.66-.42 5.34-.97 7.97-.24 1.84-.44 3.68-.66 5.53-.5 2.31-.75 4.67-1.04 7.02-.47 2.3-.7 4.65-.97 7-.57 2.8-.78 5.66-1.37 8.46-.22 1.83-.4 3.68-.6 5.54-.6 2.78-.81 5.63-1.36 8.43-.3 2.36-.53 4.73-1.05 7.06-.16 1.4-.3 2.81-.42 4.23-1.34-.01-2.67-.01-3.99-.01.14-1.94-.03-3.99.96-5.74.12-1.84.19-3.68.32-5.5 1.16-2.16.76-4.67 1.01-7 1.13-2.17.75-4.67 1-7 1.43-2.65.21-5.87 1.67-8.5.12-1.84.19-3.68.32-5.5 1.15-2.16.76-4.67 1.01-7 1.42-2.65.23-5.86 1.66-8.51.24-2.35-.17-4.86 1.03-7 .11-2.17.15-4.33.28-6.48 1.49-2.64.24-5.87 1.69-8.51.24-2.35-.16-4.85 1.01-7 .12-1.84.19-3.68.32-5.51 1.49-2.64.16-5.9 1.72-8.5.1-2.09.12-4.17.13-6.24zM741 700.99l.73.01c.26 1.54.54 3.09.91 4.62.25.91.51 1.83.78 2.76.34 1.59.55 3.22.63 4.86-.12 53.25-.01 106.51-.05 159.76h-40c-.01-2.34-.01-4.67 0-7h37V700.99zm105.12.01l.88-.02c0 6.74 0 13.48-.02 20.23-.88 2.05-1.12 4.29-1.73 6.43-.19 1.23-.35 2.46-.51 3.71-.59 2.06-.9 4.19-1.44 6.26-.22.91-.43 1.83-.63 2.77-.44 1.64-.72 3.32-1 5.01-.54 2.07-.83 4.19-1.4 6.26-.2 1.22-.38 2.44-.55 3.68-.48 1.65-.76 3.35-1.05 5.06-.54 2.05-.82 4.16-1.36 6.23-.22.9-.44 1.82-.63 2.75-.45 1.64-.73 3.32-1.01 5.01-.53 2.05-.82 4.16-1.33 6.23-.32 1.68-.59 3.39-1.05 5.05-.21 1.22-.4 2.44-.58 3.68-.48 1.65-.74 3.35-1.03 5.05-.4 1.34-.73 2.69-1.05 4.06-.51 2.03-.78 4.12-1.3 6.16-.3 1.67-.56 3.36-.97 5.02-.33 1.68-.61 3.38-1.08 5.04-.2 1.21-.37 2.44-.54 3.68-.59 2.06-.9 4.18-1.44 6.26-.22.91-.43 1.83-.62 2.76-.45 1.64-.73 3.33-1.01 5.02-.54 2.06-.83 4.19-1.4 6.25-.2 1.22-.37 2.46-.54 3.71-.58 2.03-.87 4.14-1.36 6.21-.36 1.35-.7 2.72-1.13 4.07-.18 1.22-.35 2.46-.51 3.7-.49 1.65-.78 3.34-1.08 5.04-.43 1.64-.71 3.32-.99 5.02-.53 1.99-.59 4.09-1.27 6.05-1.33.78-2.93.47-4.37.59-9.24-.05-18.47-.03-27.7-.03-.25-.62-.76-1.87-1.01-2.5-.35-1.52-.7-3.02-1.16-4.49 10.19-.14 20.4.22 30.59-.15 1.55-1.28 1.18-3.45 1.59-5.2.5-2.09.82-4.22 1.34-6.29.28-1.69.57-3.36.97-5.01.31-1.68.61-3.35 1.03-5 .2-.92.41-1.83.63-2.73.53-2.1.87-4.23 1.44-6.31.16-1.22.33-2.44.53-3.64.54-2.09.88-4.22 1.4-6.31.29-1.68.58-3.36.99-5 .21-.92.44-1.84.68-2.74.4-1.65.69-3.33 1.02-4.99.38-1.66.66-3.34.96-5.01.51-2.1.85-4.23 1.41-6.31.17-1.23.34-2.44.54-3.64.54-2.09.89-4.22 1.43-6.3.19-.93.4-1.84.63-2.74.4-1.66.7-3.34 1.02-5 .39-1.66.68-3.34 1-5 .39-1.66.68-3.34 1-5 .39-1.66.67-3.35.98-5.01.5-2.08.83-4.19 1.35-6.25.21-.93.42-1.84.65-2.75.4-1.66.69-3.33 1.01-5 .49-2.08.81-4.19 1.33-6.26.28-1.69.57-3.36.98-5.01.3-1.68.59-3.36 1-5 .3-1.68.6-3.35 1.02-5 .2-.92.42-1.83.65-2.73.51-2.08.83-4.19 1.34-6.26.3-1.7.6-3.4 1.05-5.06.18-1.22.37-2.43.59-3.62.42-1.68.71-3.38 1.03-5.06.51-2.12.85-4.27 1.44-6.36.11-1.1.22-2.19.35-3.27zM52 753h49v7H55v113H15v-7h37V753zm342 12h26.65c.28.64.83 1.92 1.11 2.55.18.93.38 1.87.6 2.81l.4 1.63c-8.59.02-17.18 0-25.76.01v101h-40v-7h37V765zm-168.31 46.24c.51-2.03-.44-5.74 2.34-6.18 13.62-.17 27.25 0 40.88-.06.08 1.39.17 2.8.28 4.21.2.69.58 2.06.78 2.75-11.99.08-23.99.04-35.97.01-1.49.08-3.1-.18-4.45.6-.71 2.31-.53 4.81-1.28 7.14-.19 1.51-.35 3.04-.54 4.58-.6 1.95-.78 3.99-1.06 6.01-.66 2.26-.71 4.63-.93 6.98-.68 2.43-.8 4.97-1.48 7.41-.18 1.53-.34 3.06-.52 4.61-.68 2.43-.8 4.98-1.48 7.42-.22 2.33-.27 4.7-.93 6.97-.29 2.01-.45 4.07-1.08 6.03-.13 1.08-.25 2.17-.36 3.28-14.08-.03-28.15.06-42.23-.04.36-1.23.74-2.44 1.16-3.63l.27-3.33h37.77c.13-1.1.27-2.18.41-3.25.52-1.99.78-4.03 1.1-6.05.52-2.29.68-4.63.93-6.94.5-2 .74-4.05 1.03-6.07.56-2.46.78-4.97 1.39-7.41.19-1.52.37-3.04.58-4.54.67-2.78.73-5.66 1.35-8.43.29-2.02.54-4.04 1.01-6.01.29-2.03.54-4.07 1.03-6.06zm348.56-6.1c13.87-.35 27.77-.03 41.66-.14.08 1.39.17 2.8.29 4.22.18.68.56 2.05.74 2.73-11.99.1-23.98.05-35.97.02-1.48.09-3.08-.2-4.4.6-.76 1.81-.58 3.82-.85 5.74-.66 2.41-.8 4.93-1.41 7.37-.27 2.02-.44 4.08-1.05 6.06-.23 2.32-.27 4.69-.94 6.96-.29 1.99-.47 4.03-1 6-.28 2-.48 4.02-1 5.99-.28 2.02-.45 4.07-1.06 6.04-.23 2.33-.27 4.71-.94 6.98-.29 2-.44 4.05-1.07 6-.14 1.08-.26 2.18-.36 3.29-14.08-.03-28.15.06-42.23-.04.35-1.23.74-2.44 1.16-3.63.09-1.12.17-2.23.26-3.33h37.78c.13-1.1.26-2.18.41-3.26.52-1.99.78-4.02 1.1-6.03.51-2.29.67-4.64.93-6.95.49-2 .74-4.04 1.05-6.06.45-1.98.69-4 .99-6 .46-1.98.71-4 1.02-5.99.53-2.29.68-4.64.94-6.95.49-2 .74-4.04 1.04-6.06.46-1.99.7-4.01 1.01-6.01.82-2.47-.02-5.58 1.9-7.55z"/></g><path fill="#e4010b" d="M400.98 61.63c8.91-1.93 18.08-1.74 27.06-3.22 10.97-.83 22-.09 33-.39 9.38-.4 18.63 1.53 27.98 1.86 19.51 2.83 38.95 6.6 57.73 12.69 3.83 1.36 7.73 2.48 11.72 3.28 10.75 3.76 21.32 8.11 31.42 13.38.46.13 1.38.4 1.84.53 1.43.84 2.89 1.64 4.33 2.47 44.65 22.95 83.67 56.79 112.82 97.66 6.98 9.58 13.23 19.68 19.08 29.99 1.43 2.67 2.76 5.4 4.29 8.03.55 1.06 1.12 2.11 1.69 3.17 2.06 4.37 4.04 8.77 6.26 13.07.16.52.5 1.56.66 2.08 1.59 3.1 2.81 6.38 4.37 9.51.14.56.41 1.68.55 2.24.7 1.66 1.33 3.37 1.98 5.07.83 2 1.54 4.06 2.31 6.09.21.92.43 1.84.67 2.76 1.45 3.2 2.31 6.62 3.26 9.99 2.07 5.86 3.61 11.92 4.84 18.01 1.33 4.95 2.86 9.92 2.97 15.09 1.29 3.51 1.5 7.26 2 10.93 1.51 5.86.97 12.09 2.39 18.02.89 19.45.88 38.95-.06 58.4l-.57.99c-1.44 2.28-1.14 5.09-1.34 7.66-.06 3.48-.74 6.91-1.55 10.28-8.08-5.14-15.43-11.32-23.28-16.79-61.49-45.47-123.17-90.69-184.66-136.16-13.89-10.21-27.68-20.57-41.76-30.5-10.82-11.54-26.46-17.61-42-19.01-21.91-2.17-43.94-3.51-65.98-2.85-6.97.68-14 .17-20.95.99-5.94.88-11.99.3-17.91 1.3-28.19 2.61-56.26 6.45-84.12 11.42-8.11 1.84-16.46.7-24.68.86-1.12-9.41 2.22-18.39 5.32-27.08-26.82.11-53.65-.54-80.47.01 3.66-5.8 7.52-11.47 11.62-16.96 14.02-18.81 29.71-36.49 47.61-51.71 19.13-16.58 40.18-31.01 62.72-42.6 1.49-.8 3.02-1.55 4.65-2.05 4.53-1.19 8.67-3.42 12.88-5.41a306.463 306.463 0 0 1 79.31-23.1zM246.62 394.89c8.14-.75 16.27.33 24.41.53 5.56.3 11.12 1.78 15.96 4.56-11.27-5.18-23.95-4.58-36.04-4.56-1.32 0-2.57.26-3.76.79-1.77 3.73.87 7.79 1.66 11.51-5.56-.8-11.18-1.31-16.81-1.22-32.14.22-64.3-.43-96.43.23 29.61 23.98 59.95 47.07 89.8 70.76 7.98 6.02 15.44 12.7 23.58 18.5 43.73 34.32 87.47 68.64 131.16 103.01H354c-.05 24.19.1 48.38-.08 72.56-24.5-6.94-47.72-18.01-69.43-31.23-1.73-9.39-3.28-18.81-4.7-28.24-.36-2.57-1.26-5.05-2.89-7.07l-.76-1.8c-.1-1.41-.14-2.83-.21-4.22-13.96.01-27.93-.03-41.89.03-1.94-.17-4.32.39-5.72-1.31-4.97-5.05-10.44-9.71-14.48-15.58-2.13-2.47-4.84-4.48-6.19-7.53-.29-.21-.86-.63-1.14-.84-2-2.78-3.91-5.68-6.67-7.77-.74-1.06-1.42-2.14-2.03-3.25-.35-.27-1.03-.79-1.37-1.05-1.57-2.52-3.06-5.14-5.13-7.28-1.03-1.78-1.97-3.6-3.02-5.37-1.12-.98-2.19-2.03-3.03-3.26-5.49-8.2-10.36-16.79-15.13-25.42-3.51-6.5-7.05-13.02-9.56-19.98-2.63-5.02-4.65-10.32-6.99-15.46-.11-.27-.31-.82-.41-1.1-2.52-8.73-5.78-17.22-8.38-25.92-.8-2.89-2.19-5.85-1.1-8.86-2.42-2.33-2.53-5.93-3.36-8.99-.75-5.4-1.91-10.72-3.19-16.02-1.17-5.85-1.71-11.79-2.42-17.7 37.71-.06 75.42-.07 113.13.27-.65-3.82-3.98-8.1-1.23-11.72zM397.02 647c9 .11 18-.25 27 .1 5.48.18 10.47 2.71 15 5.61l.94.56c.06.99.13 1.99.22 3 .97 1.75.81 3.77.85 5.7-.07 8.18.02 16.37-.06 24.55-8.01-.59-16.1-.08-24.04-1.49-6.6-1.07-13.25-1.82-19.91-2.47-.06-11.85-.03-23.71 0-35.56zm87.19 33.5c1.29 1.07 2.59 2.13 3.81 3.29-1.26.48-2.55.9-3.83 1.35 0-1.55.01-3.1.02-4.64z"/><g fill="#fff"><path d="M182.19 203.46c26.82-.55 53.65.1 80.47-.01-3.1 8.69-6.44 17.67-5.32 27.08 8.22-.16 16.57.98 24.68-.86 27.86-4.97 55.93-8.81 84.12-11.42 5.92-1 11.97-.42 17.91-1.3 6.95-.82 13.98-.31 20.95-.99 22.04-.66 44.07.68 65.98 2.85 15.54 1.4 31.18 7.47 42 19.01 2.79 3.46 5.61 7.48 5.5 12.13.04 5.68.19 11.41-.74 17.04-.66 2.52 1.04 4.83 2.85 6.39 4.07 3.31 8.8 5.84 12.33 9.78 4.62 5.06 7 11.97 6.47 18.82-1.81 7.26-5.43 13.81-9.18 20.21-1.66 2.46-.35 5.36 1.49 7.26 5.42 6.09 12.06 11.39 15.55 18.94 2.16 4.24 1.58 9.13.9 13.66-.22.54-.68 1.63-.91 2.18-3.27 6.71-8.09 12.48-13.24 17.83-1.12 1.45-3.41 3.25-2.03 5.25 3.1 5.34 8.31 9.09 11.49 14.4 6.32 9.22 7.1 21.86 1.87 31.76-4.92 10.67-15 20.01-27.32 20.08-31.66.04-63.33-.01-94.99.02-5.96.03-10.55 4.96-12.42 10.26.02.84.05 2.52.07 3.35 1.09 3.8 2.32 7.6 4.41 10.99 6.05 9.97 11.28 20.42 16.22 30.97 5.57 12.67 11.49 25.77 11.51 39.88.84 5.66-.21 11.33-.32 17.01-1.26 12.26-5.59 24.63-14.12 33.75 2.43.16 4.88.28 7.27.8 1.65.34 3.31.65 4.95 1.07.46.15 1.37.45 1.83.59 1 .38 2.02.74 3.04 1.11 1 .3 2 .6 3.02.89 1.65.83 3.33 1.63 5.01 2.43 9.36 4.99 16.65 13.27 21.28 22.74.25.53.74 1.59.99 2.12.28 1 .58 2.01.89 3.02.36 1 .72 2.01 1.11 3.03.14.46.43 1.38.57 1.84.51 2.09.85 4.22 1.4 6.31.23 2.39.33 4.82 1.08 7.14.44 15.04.06 30.09.2 45.14-.1 4.23.4 8.56-.65 12.72-.3 1.94-.54 3.9-.93 5.83-.39 1.36-.77 2.73-1.19 4.09-.08.46-.25 1.36-.33 1.82-.63 1.03-1.24 2.06-1.86 3.11-.03.44-.1 1.34-.13 1.79-3.87 8.44-9.85 15.67-16.7 21.87.52 1.76.96 3.55 1.47 5.33.29 1.34.6 2.67.95 4.02.33 1.32.65 2.66 1.04 3.99l.64 1.84c.37 1.31.69 2.64 1.02 3.98.36 1.32.68 2.66 1.01 4.01.35 1.33.65 2.67.97 4.03.48 1.72.91 3.46 1.42 5.19.17.89.35 1.8.53 2.72.39 1.34.73 2.71 1.07 4.08.46 1.7.85 3.43 1.32 5.14.32 1.34.64 2.67 1.02 4.01.15.46.47 1.39.63 1.85.48 1.69.88 3.42 1.35 5.14.33 1.36.67 2.72 1.07 4.08.17.9.34 1.8.53 2.72.51 1.72.93 3.46 1.43 5.2.29 1.33.59 2.68.94 4.02.35 1.35.69 2.71 1.11 4.06.16.9.33 1.81.51 2.72.52 1.72.95 3.47 1.47 5.2.15.46.44 1.38.59 1.84.38 1.31.7 2.65 1.04 4 .35 1.31.67 2.65.99 3.99.35 1.32.68 2.66 1 4.01.36 1.31.68 2.65 1 3.99.36 1.32.68 2.66 1 4.01.36 1.31.68 2.65 1 4 .36 1.31.67 2.65.99 4 .33 1.17.65 2.36.96 3.55-14.19.07-28.39.04-42.58.03-1.89-.51-1.77-2.76-1.9-4.33-.82-1.68-.83-3.59-1.56-5.28-.26-1.38-.35-2.78-1.02-4.02-.24-1.37-.32-2.78-1.01-4-.26-1.39-.22-2.89-1.11-4.06-.08-.88-.16-1.74-.24-2.59-.93-1.66-.85-3.64-1.63-5.34-.28-1.4-.24-2.91-1.14-4.08-.07-.88-.14-1.74-.2-2.58-1.47-1.86-.4-4.43-1.68-6.35-.26-1.39-.22-2.89-1.11-4.06-.08-.88-.16-1.74-.24-2.59-.93-1.66-.85-3.64-1.63-5.34-.28-1.4-.24-2.9-1.14-4.08-.07-.88-.14-1.73-.2-2.58-.91-1.2-.87-2.7-1.14-4.08-.73-1.7-.8-3.58-1.52-5.26-.28-1.4-.25-2.9-1.13-4.08l-.24-2.58c-1-1.68-.75-3.76-1.75-5.42-.08-.88-.16-1.74-.23-2.58-1.43-1.85-.43-4.37-1.64-6.3-.12-.6-.37-1.81-.49-2.42l-.4-1.63c-.22-.94-.42-1.88-.6-2.81-.28-.63-.83-1.91-1.11-2.55H394v101h-40c-.06-63.91.11-127.83-.08-191.74-.02-.91-.02-1.81 0-2.7.18-24.18.03-48.37.08-72.56h26.15c2.7 0 5.41-.02 8.12-.03-2.6-8.07-1.17-16.63-2.68-24.87-2.21-19.56-5.97-40.31-18.89-55.92-5.7-7.45-14.28-11.72-21.34-17.65-7.33-6.15-11.91-14.72-15.88-23.25-7.96-17.45-14.66-35.45-22.77-52.83-4.66-9.42-10.63-18.78-19.72-24.47-4.84-2.78-10.4-4.26-15.96-4.56-8.14-.2-16.27-1.28-24.41-.53-2.75 3.62.58 7.9 1.23 11.72-37.71-.34-75.42-.33-113.13-.27-.18-2.11-.43-4.21-.89-6.27-1.05-17.99-.67-36.04-.2-54.04 1.1-2.89.71-6.06 1.57-9 .16-2.4.11-4.82.66-7.16.88-2.89.74-5.96.94-8.94.5-1.43.79-2.92 1.05-4.4l.49-.03c.08-2.01.2-4 .29-6.01l.7.02c.44-3.19.43-6.6 2.07-9.47.15-1.35.27-2.71.42-4.05.95-2.25 1.47-4.65 1.9-7.04 1.77-4.49 2.35-9.39 4.55-13.72.06-.57.17-1.71.23-2.28 1.27-2.97 2.38-6.01 3.29-9.1.84-1.98 1.44-4.05 2.53-5.92l.36-2.14c.49-.92.97-1.85 1.44-2.78.94-2.1 1.77-4.25 2.53-6.42a84.38 84.38 0 0 1 1.6-3.48c.66-1.33 1.16-2.73 1.82-4.05 1.17-2.24 2.15-4.57 3.28-6.84.85-1.74 1.76-3.46 2.59-5.2.74-1.32 1.46-2.64 2.23-3.94.97-1.97 1.97-3.94 3.06-5.84.7-1.1 1.42-2.18 2.15-3.25l.32-.96c1.46-2.35 2.81-4.77 4.31-7.09.69-1.19 1.39-2.36 2.18-3.48M394 640v85h3c8.41-.03 16.82.06 25.23-.04 1.51-1.07 3.42-.96 5.13-1.47 1.03-.67 2.02-1.4 3.01-2.13 2.57-1.25 4.29-3.63 6.28-5.58.48-1.22 1.29-2.24 2.11-3.22.24-1.12.59-2.2 1.07-3.22.08-.42.24-1.26.31-1.68.21-.43.61-1.3.82-1.74.09-5.8.09-11.6-.08-17.39.03-.51.07-1.51.09-2.01.08-8.18-.01-16.37.06-24.55-.04-1.93.12-3.95-.85-5.7-.09-1.01-.16-2.01-.22-3l-.94-.56c-.01-.53-.05-1.59-.06-2.12-2.19-3.45-5-6.35-8.5-8.48-.46-.09-1.4-.25-1.87-.33-1.75-.62-3.58-.99-5.31-1.66-9.75-.27-19.52-.05-29.28-.12zM137.14 424.04c1.28 5.3 2.44 10.62 3.19 16.02.83 3.06.94 6.66 3.36 8.99-1.09 3.01.3 5.97 1.1 8.86 2.6 8.7 5.86 17.19 8.38 25.92-3.99-10.01-6.96-20.43-9.92-30.8-2.45-5.72-2.32-12.1-4.23-18-.91-2.16-.28-4.6-1.15-6.79-.27-1.4-.51-2.8-.73-4.2z"/><path d="M160.15 500.39c-2.49-5.01-4.66-10.2-6.57-15.46 2.34 5.14 4.36 10.44 6.99 15.46 2.51 6.96 6.05 13.48 9.56 19.98 4.77 8.63 9.64 17.22 15.13 25.42.84 1.23 1.91 2.28 3.03 3.26 1.05 1.77 1.99 3.59 3.02 5.37 2.07 2.14 3.56 4.76 5.13 7.28.34.26 1.02.78 1.37 1.05.61 1.11 1.29 2.19 2.03 3.25 2.76 2.09 4.67 4.99 6.67 7.77.28.21.85.63 1.14.84 1.35 3.05 4.06 5.06 6.19 7.53 4.04 5.87 9.51 10.53 14.48 15.58 1.4 1.7 3.78 1.14 5.72 1.31 13.96-.06 27.93-.02 41.89-.03.07 1.39.11 2.81.21 4.22l.76 1.8c.15 1.89.31 3.81.75 5.68.3 2 .54 4.02 1.01 6 .29 2 .53 4.02.99 6 .3 2.01.55 4.05 1.06 6.03.2 1.51.37 3.03.57 4.55.6 2.44.83 4.95 1.4 7.41.27 2 .51 4.03.98 6.02.29 1.99.53 4.01.99 5.99.3 2.01.55 4.05 1.06 6.04.2 1.49.38 3.01.58 4.52.51 1.98.75 4.02 1.03 6.05.42 1.66.72 3.36 1.05 5.06.52 2.42.74 4.9 1.3 7.32.28 2 .52 4.03.99 6.01.29 2 .53 4.02.99 6 .3 2.01.55 4.05 1.06 6.04.2 1.5.37 3.01.58 4.53.51 1.97.76 4 1.06 6.03.45 1.97.69 3.99.97 6.01.56 2.45.79 4.96 1.4 7.41.19 1.51.36 3.03.55 4.56.61 2.45.84 4.98 1.45 7.43.19 1.51.37 3.03.56 4.55.52 1.98.76 4.01 1.07 6.04.45 1.97.7 3.98.99 6 .46 1.97.71 3.98 1 5.99.46 1.98.7 4 .98 6.03.56 2.44.79 4.95 1.4 7.4.19 1.51.36 3.03.56 4.56.6 2.43.83 4.95 1.39 7.41.28 2.01.52 4.06 1.04 6.05.19 1.5.37 3.02.57 4.54.6 2.45.83 4.98 1.44 7.44.19 1.5.37 3.02.56 4.54.51 1.98.76 4.01 1.07 6.04.46 1.97.69 3.99.98 6.01.55 2.43.78 4.93 1.34 7.37.28 2.01.52 4.03.99 6.02.29 2 .53 4.01.99 6 .3 2.01.55 4.05 1.06 6.04.2 1.5.38 3 .58 4.52.51 1.99.75 4.02 1.04 6.06.56 2.46.78 5 1.44 7.46.12 1.39.23 2.79.34 4.22h-42.09l-.06-3.26c-2.19-2.41.25-6.06-1.9-8.47-.22-2.03.5-4.35-1.03-6.02-.03-1.84-.04-3.68-.06-5.5-1.54-1.67-.82-4.01-1.03-6.02-1.97-2.11.1-5.39-1.91-7.48-.03-1.84-.04-3.68-.06-5.5-2.02-2.1.07-5.4-1.92-7.5-.03-1.44-.01-2.88-.08-4.29-.2-.69-.58-2.06-.78-2.75-.11-1.41-.2-2.82-.28-4.21-13.63.06-27.26-.11-40.88.06-2.78.44-1.83 4.15-2.34 6.18-.49 1.99-.74 4.03-1.03 6.06-.47 1.97-.72 3.99-1.01 6.01-.62 2.77-.68 5.65-1.35 8.43-.21 1.5-.39 3.02-.58 4.54-.61 2.44-.83 4.95-1.39 7.41-.29 2.02-.53 4.07-1.03 6.07-.25 2.31-.41 4.65-.93 6.94-.32 2.02-.58 4.06-1.1 6.05-.14 1.07-.28 2.15-.41 3.25h-37.77l-4.33-.03c.12-1.34.5-2.58 1.16-3.71.24-2.02-.48-4.35 1.04-6 .03-1.52.05-3.03.08-4.52 1.99-2.11-.06-5.36 1.9-7.48.21-2.02-.5-4.34 1.02-6 .03-1.52.05-3.03.08-4.52 2-2.11-.08-5.38 1.92-7.48.03-1.52.05-3.03.08-4.52 1.52-1.68.81-4 1.02-6 1.29-1.41.85-3.35 1.05-5.04 1.39-1.71.75-3.98.95-5.97 1.96-2.12-.09-5.38 1.9-7.47.03-1.52.05-3.02.08-4.52 1.99-2.09-.07-5.37 1.9-7.47.21-2.03-.5-4.34 1.02-6.01.03-1.52.05-3.03.08-4.52 1.52-1.68.8-4 1.02-6 1.95-2.14-.07-5.37 1.88-7.47.19-2.01-.44-4.27.95-5.97.18-1.72-.23-3.63 1.05-5.03.22-2.02-.51-4.36 1.02-6.01.03-1.52.05-3.02.08-4.52 2-2.11-.09-5.39 1.92-7.48.03-1.52.05-3.02.08-4.52 1.52-1.67.8-4 1.02-6.01 1.48-1.68.78-4 1-6 1.96-2.13-.1-5.37 1.9-7.47.03-1.52.05-3.02.08-4.52 1.96-2.1 0-5.29 1.85-7.44.2-1.72-.26-3.66 1.07-5.04.03-1.52.05-3.02.08-4.52 2-2.11-.08-5.38 1.92-7.48.03-1.52.05-3.02.08-4.52 1.52-1.68.8-4 1.02-6.01 1.49-1.67.78-4 1-6 1.94-2.12-.07-5.34 1.87-7.46.22-2.02-.48-4.33 1.01-6 .21-2.03-.51-4.35 1.02-6.01.03-1.52.05-3.02.08-4.52 1.33-1.38.85-3.35 1.08-5.04 1.84-2.16-.12-5.36 1.84-7.44.03-1.52.05-3.02.08-4.52 1.99-2.1-.06-5.36 1.9-7.47.2-2.02-.48-4.33 1-6.01.21-2.01-.5-4.34 1.02-6l.06-3.26c3.09.02 6.17-.03 9.26-.1-5.69-5.02-10.55-10.91-16.25-15.9-3.08-4.18-6.69-7.93-9.83-12.07-6.41-7.75-12.64-15.62-17.83-24.26-1.08-1.54-2.12-3.1-3.16-4.66-2.65-4.44-5.44-8.79-7.9-13.34-.87-1.47-1.7-2.96-2.59-4.4-.9-1.81-1.85-3.6-2.86-5.35-.83-1.64-1.65-3.28-2.49-4.91-2.03-3.88-3.81-7.89-5.65-11.85-.15-.44-.43-1.33-.57-1.77M247.01 661c-.13 2.58.46 5.37-.85 7.75-.24 2.33.17 4.84-1 6.99-.13 1.83-.2 3.67-.32 5.51-1.46 2.63-.23 5.86-1.68 8.5-.13 1.83-.2 3.66-.32 5.51-1.3 2.45-.71 5.31-.98 7.97-1.5 2.63-.23 5.87-1.7 8.52-.13 1.82-.2 3.66-.32 5.5-1.15 2.15-.77 4.65-1.01 7-1.13 2.16-.77 4.65-1 6.99-1.43 2.65-.24 5.86-1.66 8.52-.25 2.32.15 4.83-1.01 6.98-.13 1.83-.2 3.66-.32 5.51-1.15 2.15-.77 4.65-1.01 7-.98 1.76-.8 3.8-.95 5.74 1.32 0 2.65 0 3.99.01 8.73 0 17.46-.01 26.19.01-1.69-2.08-.91-4.83-1.09-7.26-2.22-2.41.27-6.1-1.94-8.5-.26-2.34.69-5.04-1-7-.26-2.34.69-5.04-.99-7-.28-2.33.68-5.04-1.01-7-.03-1.84-.04-3.68-.06-5.5-1.7-1.97-.74-4.68-1-7-1.81-2.27-.68-5.36-.99-8-2.24-2.38.28-6.1-1.95-8.5-.03-1.84-.04-3.67-.06-5.5-1.69-1.97-.74-4.68-1.01-7-2.2-2.41.27-6.08-1.91-8.49-.03-1.44-.06-2.87-.07-4.3-.24-.91-.51-1.8-.83-2.67-.22-2.36.17-4.87-.98-7.03-.09-1.1-.17-2.19-.25-3.27zM12 599h40v114h49V599h40v267h-40V753H52v113H12V599zm555.14 0h55.61c.23 1.92.46 3.86.95 5.75.2 1.49.38 3 .59 4.51.5 1.98.75 4.01 1.06 6.04.45 1.97.69 3.98.99 5.99.46 1.98.7 4 .99 6.02.55 2.43.78 4.93 1.34 7.38.28 2.01.52 4.05 1.04 6.05.19 1.5.37 3.01.58 4.52.5 1.98.75 4.01 1.06 6.04.45 1.98.69 3.99.98 6.01.55 2.44.78 4.94 1.34 7.38.28 2 .52 4.02 1 6 .21 1.2.41 2.42.64 3.64.57 2.44.8 4.95 1.42 7.39.18 1.51.34 3.03.54 4.56.61 2.45.84 4.98 1.45 7.43.19 1.51.36 3.03.57 4.55.5 1.98.75 4.02 1.04 6.05.55 2.45.78 4.96 1.39 7.41.19 1.51.36 3.03.56 4.56.6 2.44.83 4.95 1.39 7.41.28 2.01.52 4.06 1.04 6.05.19 1.5.37 3.01.58 4.53.51 1.98.74 4.01 1.04 6.05.55 2.44.78 4.95 1.39 7.4.19 1.5.36 3.02.57 4.54.5 1.98.75 4.01 1.06 6.04.45 1.98.69 3.99.97 6.01.56 2.45.79 4.96 1.4 7.41.19 1.51.36 3.03.56 4.56.6 2.43.83 4.95 1.4 7.4.27 2.01.51 4.03.97 6.02.29 2.01.55 4.05 1.06 6.04.19 1.49.37 3 .58 4.52.5 1.98.75 4.01 1.06 6.04.45 1.97.69 3.99.98 6.01.55 2.43.78 4.93 1.33 7.38.29 2.01.53 4.06 1.05 6.05.19 1.5.37 3.02.57 4.54.6 2.44.83 4.95 1.4 7.4.27 2.01.51 4.03.97 6.02.29 2.01.55 4.05 1.07 6.04.18 1.5.35 3.02.55 4.54.61 2.47.84 5.02 1.5 7.5.12 1.39.22 2.79.34 4.22h-42.09c-.02-1.1-.05-2.18-.06-3.26-2.19-2.41.25-6.06-1.9-8.47-.23-2.03.51-4.36-1.03-6.02-.27-2.34.68-5.03-.99-6.99-.04-1.52-.06-3.02-.08-4.52-2.01-2.11.08-5.39-1.92-7.49-.28-2.34.67-5.03-1-6.99-.04-1.52-.06-3.02-.08-4.52-1.5-1.61-.75-3.86-1.02-5.79-.18-.68-.56-2.05-.74-2.73-.12-1.42-.21-2.83-.29-4.22-13.89.11-27.79-.21-41.66.14-1.92 1.97-1.08 5.08-1.9 7.55-.31 2-.55 4.02-1.01 6.01-.3 2.02-.55 4.06-1.04 6.06-.26 2.31-.41 4.66-.94 6.95-.31 1.99-.56 4.01-1.02 5.99-.3 2-.54 4.02-.99 6-.31 2.02-.56 4.06-1.05 6.06-.26 2.31-.42 4.66-.93 6.95-.32 2.01-.58 4.04-1.1 6.03-.15 1.08-.28 2.16-.41 3.26h-37.78l-4.31-.03c.09-1.35.48-2.59 1.18-3.72.03-1.52.05-3.02.1-4.51 1.5-1.68.79-4.01 1.01-6.01 1.48-1.69.79-3.99 1-6 1.96-2.13-.1-5.37 1.9-7.47.02-1.52.04-3.02.08-4.52 1.52-1.68.8-4 1.02-6 1.48-1.7.79-4 1-6.01 1.48-1.68.78-4 1-6 1.28-1.4.84-3.34 1.05-5.03 1.83-2.16-.09-5.33 1.83-7.43.2-2.02-.49-4.33 1-6 .21-2.03-.51-4.35 1.02-6.01.02-1.52.04-3.03.08-4.52 2-2.11-.09-5.38 1.92-7.48.02-1.52.04-3.02.08-4.52 1.52-1.68.8-4 1.02-6.01 1.96-2.12-.09-5.38 1.9-7.47.02-1.52.04-3.02.09-4.51 1.7-1.84.19-4.67 1.91-6.5.02-1.51.04-3.02.08-4.51 1.52-1.67.79-4.01 1.02-6.01 1.94-2.13-.07-5.35 1.88-7.46.2-2.02-.49-4.33 1-6 .21-2.03-.51-4.35 1.02-6.01.02-1.52.04-3.02.08-4.52 2-2.1-.09-5.38 1.92-7.48.02-1.52.04-3.02.08-4.52 1.51-1.68.8-4 1.02-6 1.66-1.85.2-4.66 1.89-6.49.03-1.51.05-3.02.09-4.51 1.98-2.12-.06-5.35 1.89-7.47.16-2-.34-4.18.87-5.94l.13-1.48c.14-1.54.36-3.07.71-4.56.3-2.03.56-4.05 1.08-6.03.18-1.52.36-3.04.56-4.54.6-2.45.83-4.96 1.4-7.41.27-2.02.51-4.04.98-6.02.28-1.99.52-3.98.96-5.93.32-1.7.63-3.39 1.06-5.05.27-2.03.51-4.07 1.03-6.05.19-1.52.37-3.04.57-4.54.6-2.45.83-4.96 1.4-7.41.27-2.02.51-4.03.97-6.01.3-2.03.55-4.07 1.07-6.05l.42-3.25m26.87 62c-.01 2.07-.03 4.15-.13 6.24-1.56 2.6-.23 5.86-1.72 8.5-.13 1.83-.2 3.67-.32 5.51-1.17 2.15-.77 4.65-1.01 7-1.45 2.64-.2 5.87-1.69 8.51-.13 2.15-.17 4.31-.28 6.48-1.2 2.14-.79 4.65-1.03 7-1.43 2.65-.24 5.86-1.66 8.51-.25 2.33.14 4.84-1.01 7-.13 1.82-.2 3.66-.32 5.5-1.46 2.63-.24 5.85-1.67 8.5-.25 2.33.13 4.83-1 7-.25 2.33.15 4.84-1.01 7-.13 1.82-.2 3.66-.32 5.5-.99 1.75-.82 3.8-.96 5.74 1.32 0 2.65 0 3.99.01 8.73 0 17.46-.01 26.2.01-1.71-2.07-.92-4.83-1.1-7.26-1.69-1.97-.74-4.68-1.01-7-1.68-1.97-.74-4.68-.99-7-1.69-1.97-.75-4.68-1-7-1.69-1.97-.75-4.68-1.01-7-2.21-2.42.29-6.1-1.93-8.5-.27-2.34.69-5.04-1-7-.04-2.18-.04-4.34-.06-6.5-2.23-2.41.28-6.1-1.94-8.5-.03-1.84-.04-3.68-.06-5.5-1.7-1.96-.74-4.68-1.01-7-1.68-1.97-.74-4.67-1-6.99-1.4-1.59-.72-3.83-1.16-5.69.2-1.01-.02-1.94-.65-2.81-.23-2.35.16-4.85-.98-7-.1-1.1-.18-2.18-.25-3.26zM701 599h57.95c.21 1.89-.52 4.14 1.01 5.68.24 1.46.42 2.93.57 4.42l1.02-1.01c-.12 1.98-.18 3.99-.28 5.99l1.24-1c-.1 2.32-.12 4.66-.21 6.99l1.24-.97c-.12 1.98-.17 3.98-.26 5.98l1.25-.99c-.11 1.98-.15 3.98-.25 5.98l1.25-.97c-.11 1.98-.16 3.98-.25 5.98l1.25-1c-.11 1.99-.16 4-.25 6l1.25-1c-.11 1.99-.15 4-.25 6l1.25-1c-.11 1.99-.15 4-.25 6l1.25-.99c-.11 1.98-.16 3.99-.25 5.99l1.23-1c-.1 2.32-.12 4.67-.21 7.01l1.24-1c-.12 1.97-.16 3.97-.27 5.97l1.27-.95c-.12 1.97-.17 3.97-.26 5.96l1.25-.98c-.11 1.98-.16 3.99-.25 5.98l1.25-.98c-.11 1.97-.15 3.98-.25 5.97l1.26-.96c-.12 1.97-.16 3.97-.26 5.96l1.26-.96c-.12 1.98-.17 3.98-.26 5.97l1.25-.98c-.11 1.98-.16 3.99-.25 5.99l1.23-1.01c-.1 2.33-.12 4.68-.21 7.02l1.24-1.01c-.12 1.98-.16 3.99-.26 5.98l1.26-.96c-.12 1.97-.16 3.97-.26 5.97l1.25-.98c-.11 1.98-.16 3.99-.25 5.99l1.25-.99c-.11 1.98-.16 3.98-.25 5.98l1.25-.98c-.11 1.98-.15 3.99-.25 5.99l1.26-1c-.12 1.99-.17 3.99-.26 5.99l1.23-.99c-.1 2.32-.12 4.66-.21 7l1.24-.99c-.12 1.98-.17 3.99-.26 5.99l1.25-1c-.11 1.99-.15 4-.25 6l1.26-1c-.12 1.98-.16 3.99-.26 5.98l1.25-.96c-.11 1.98-.16 3.98-.25 5.98l1.25-1c-.11 1.98-.15 3.99-.25 6l1.25-.99c-.11 1.97-.15 3.98-.25 5.98l1.26-.98c-.12 1.98-.17 3.99-.27 5.98l1.24-.99c-.1 2.32-.12 4.66-.21 7l1.24-.99c-.12 1.98-.16 3.98-.26 5.98l1.26-.98c-.12 1.95-.16 3.94-.27 5.91h.41c.76-2.06 1.42-4.16 1.5-6.37 1.26-1.73.69-3.93.88-5.9 1.28-1.4.83-3.34 1.06-5.03 1.53-1.89.17-4.63 1.83-6.45.03-1.51.05-3.02.1-4.51 1.29-1.4.86-3.34 1.07-5.04 1.53-1.88.19-4.61 1.82-6.44.2-2.02-.49-4.32 1-5.99.03-1.19.06-2.37.12-3.53 1.67-1.85.19-4.66 1.89-6.48.03-1.52.05-3.02.1-4.51 1.68-1.84.21-4.65 1.89-6.49.03-1.19.06-2.36.11-3.53 1.49-1.68.79-4 1.01-5.99 1.27-1.42.85-3.34 1.05-5.04 1.18-1.43.81-3.31 1-5 1.8-2.16-.04-5.26 1.78-7.4.17-1.72-.24-3.63 1.05-5.03.03-1.19.06-2.37.12-3.54 1.48-1.68.78-3.99 1-5.99 1.61-1.85.28-4.57 1.82-6.45.2-1.71-.24-3.65 1.08-5.03.02-1.52.04-3.02.09-4.51 1.64-1.84.28-4.58 1.84-6.46.19-1.71-.25-3.65 1.07-5.03.02-1.52.04-3.02.08-4.52 1.31-1.39.85-3.34 1.08-5.03 1.54-1.89.17-4.64 1.83-6.46.03-1.51.05-3.01.1-4.51 1.29-1.4.86-3.33 1.06-5.03 1.55-1.89.18-4.63 1.84-6.46.03-1.51.05-3.01.1-4.51 1.3-1.4.85-3.34 1.06-5.04 1.19-1.43.81-3.31.99-5 1.53-1.9.71-4.42.9-6.62.87-.74 1.86-1.1 2.98-1.08 17.67-.01 35.35 0 53.02 0-.01 2.33-.01 4.66 0 7v260h-40c-.01-48.26.02-96.53-.02-144.79.02-6.75.02-13.49.02-20.23l-.88.02c-.13 1.08-.24 2.17-.35 3.27-.59 2.09-.93 4.24-1.44 6.36-.32 1.68-.61 3.38-1.03 5.06-.22 1.19-.41 2.4-.59 3.62-.45 1.66-.75 3.36-1.05 5.06-.51 2.07-.83 4.18-1.34 6.26-.23.9-.45 1.81-.65 2.73-.42 1.65-.72 3.32-1.02 5-.41 1.64-.7 3.32-1 5-.41 1.65-.7 3.32-.98 5.01-.52 2.07-.84 4.18-1.33 6.26-.32 1.67-.61 3.34-1.01 5-.23.91-.44 1.82-.65 2.75-.52 2.06-.85 4.17-1.35 6.25-.31 1.66-.59 3.35-.98 5.01-.32 1.66-.61 3.34-1 5-.32 1.66-.61 3.34-1 5-.32 1.66-.62 3.34-1.02 5-.23.9-.44 1.81-.63 2.74-.54 2.08-.89 4.21-1.43 6.3-.2 1.2-.37 2.41-.54 3.64-.56 2.08-.9 4.21-1.41 6.31-.3 1.67-.58 3.35-.96 5.01-.33 1.66-.62 3.34-1.02 4.99-.24.9-.47 1.82-.68 2.74-.41 1.64-.7 3.32-.99 5-.52 2.09-.86 4.22-1.4 6.31-.2 1.2-.37 2.42-.53 3.64-.57 2.08-.91 4.21-1.44 6.31-.22.9-.43 1.81-.63 2.73-.42 1.65-.72 3.32-1.03 5-.4 1.65-.69 3.32-.97 5.01-.52 2.07-.84 4.2-1.34 6.29-.41 1.75-.04 3.92-1.59 5.2-10.19.37-20.4.01-30.59.15h-.92c-.68-1.75-1.3-3.52-1.46-5.39-.97-1.49-.75-3.27-.9-4.92-.86-1.21-.85-2.7-1.11-4.07-.81-1.73-.68-3.74-1.67-5.37-.07-1.19-.13-2.37-.17-3.53-.95-1.19-.9-2.71-1.16-4.1-.74-1.69-.8-3.58-1.52-5.26-.28-1.39-.27-2.88-1.11-4.08-.18-1.67.07-3.46-.91-4.92-.24-1.37-.3-2.79-1-4.01-.27-1.41-.19-2.94-1.15-4.1-.06-1.19-.1-2.36-.14-3.52-.98-1.18-.89-2.71-1.15-4.1-.7-1.24-.79-2.67-1.03-4.01-.79-1.73-.67-3.74-1.66-5.37-.07-1.19-.12-2.37-.17-3.53-.97-1.18-.89-2.71-1.14-4.09-.71-1.24-.78-2.66-1.01-4-1.19-1.93-.36-4.37-1.55-6.28-.26-1.39-.22-2.89-1.11-4.06-.09-.88-.17-1.74-.24-2.59-.99-1.68-.78-3.74-1.73-5.42-.22-1.7.15-3.58-1.04-4.99-.08-.88-.16-1.74-.22-2.58-1-1.69-.78-3.75-1.73-5.43-.25-1.69.15-3.6-1.06-5a57.9 57.9 0 0 1-.18-2.58c-.95-1.18-.88-2.69-1.12-4.07-1.01-1.48-.76-3.28-.92-4.93-.86-1.22-.85-2.7-1.11-4.08-.74-1.7-.8-3.58-1.52-5.26-.27-1.4-.27-2.88-1.12-4.08-.2-1.7.18-3.58-1.02-4.99-.08-.87-.16-1.73-.22-2.58-1.1-1.68-.63-3.87-1.83-5.48-.08-1.64-.29-3.27-.63-4.86-.27-.93-.53-1.85-.78-2.76-.37-1.53-.65-3.08-.91-4.62l-.73-.01V866h-40V599z"/></g></svg>