<svg height="436" viewBox="0 0 204 327" width="272" xmlns="http://www.w3.org/2000/svg"><path d="m125.34 0h26.75c5.23 6.01 7.34 14.12 6.71 21.98-.59 8.28-1.8 16.7-4.78 24.47-.8-7.59-1.43-16.45-7.76-21.69-2.77-2.54-6.73-1.38-10.08-1.2v-2.61c-.1-2.7.91-6.36-2.54-7.3-1.2-.77-2.45-1.48-3.67-2.22-1.46.53-2.92 1.03-4.35 1.64-.52-.32-1.58-.96-2.1-1.28-1.17-.74-2.31-1.51-3.47-2.23-.4-.09-1.21-.26-1.61-.34 1.38-3.68 3.81-6.82 6.9-9.22z" fill="#632229"/><path d="m152.09 0h2.57c1.05.88 2.1 1.78 3.02 2.81-.77 3.62 1.35 6.89 1.87 10.38 1.31 7.69-.24 15.47-1.33 23.08-2.24 9.86-5.12 21.12.11 30.51.34 2 .83 3.98 1.64 5.85l-.41.54c-5.78-6.81-4.48-16.41-5.72-24.66-3.41 7.64-4.02 16.2-3.99 24.47.04 6.08-.23 12.4 2.03 18.17 3.48 9.05 9.09 17.22 15.93 24.07 3.65 3.46 6.25 7.79 9.12 11.87-.45-9.89-6.02-18.64-11.65-26.44-.76-1.15-1.07-2.51-1.51-3.8 6.69 5.95 13.67 11.56 19.87 18.04.14-.55.42-1.63.56-2.18 4.51 8.62 5.33 19.09 1.56 28.13-2.37 6.77-7.55 11.87-12.11 17.19.46 4.8 2.03 9.4 2.66 14.17.46 8.85-.25 18.59-5.72 25.94 4.6-8.9 6.5-19.18 4.81-29.09-.33-2-1.25-3.83-2.39-5.48.65-2.3.49-5.38-1.96-6.54-3.22-1.55-6.69-2.52-9.98-3.91-2.31-.85-4.71-1.38-7.11-1.86-1.91-1.22-3.99-2.23-6.31-2.11-5.35-3.86-11.85-5.64-17.25-9.44-4.11-1.78-4.28-7.69-9.07-8.45.6 3.01 1.87 6.94-1.73 8.61.7-.89 1.39-1.79 2.07-2.7-1.6-4.15-1.26-8.63-.54-12.92.37-1.4.79-2.79 1.21-4.17-.68-.69-1.36-1.37-2.03-2.05 1.71-2.14 3.54-4.19 5.56-6.05 1.59.89 3.36 1.27 5.16 1.49.31-.62.93-1.86 1.25-2.48.53-.93 1.1-1.83 1.72-2.69 5.18-3.76 7.13-10.57 5.62-16.68l-2.72-1.28c-2.12 1.19-4.95 2.17-4.95 5.09-1.06-5.8-8.34-5.86-11.06-10.52-.27-.6-.8-1.78-1.07-2.37-.22-3.75-.37-7.59.96-11.17 1.19 2.76 2.43 5.5 3.98 8.08.74-1.2 1.48-2.41 2.22-3.61 2.97.51 6.2 1.62 9.1.21 2.59-1.18 5.07-2.75 7.01-4.85 2.02-2.25 2.33-5.38 2.89-8.22-1.29 1.32-2.56 2.66-3.82 4.01.93-8.63 3.35-18.4-1.67-26.23-.45 4.23.46 8.99-2.32 12.6-.97-8.64-.44-18.31-6.14-25.52-2.57-2.4-6.46-2.54-9.24-4.68-3.41-2.58-6.85-5.13-10.2-7.79.46.09 1.39.28 1.85.38 2.56.52 5.17.74 7.79.81.42-1.6.85-3.18 1.29-4.77.52.32 1.58.96 2.1 1.28-.93 1.72-1.71 3.53-2.39 5.37-.27 3.24 2.31 5.69 5.42 6 3.07.87 5.3-1.89 7.53-3.49v2.61c3.35-.18 7.31-1.34 10.08 1.2 6.33 5.24 6.96 14.1 7.76 21.69 2.98-7.77 4.19-16.19 4.78-24.47.63-7.86-1.48-15.97-6.71-21.98z" fill="#2f1922"/><path d="m159.55 13.19c-.52-3.49-2.64-6.76-1.87-10.38 3.5 3.96 6.6 8.66 7.28 14.02 1.75 11.48-.2 23.23-3.99 34.11-1.91 5.08-2.15 10.5-2.64 15.84-5.23-9.39-2.35-20.65-.11-30.51 1.09-7.61 2.64-15.39 1.33-23.08z" fill="#64242d"/><path d="m112.93 9.86c1.71-.8 3.68-.58 5.51-.64.4.08 1.21.25 1.61.34.31 1 .62 1.99.93 2.98-2.83-.79-4.86 1.23-6.54 3.21-.46-.1-1.39-.29-1.85-.38-.51-.37-1.53-1.12-2.04-1.49.74-1.36 1.26-2.91 2.38-4.02z" fill="#e0d7bf"/><path d="m120.05 9.56c1.16.72 2.3 1.49 3.47 2.23-.44 1.59-.87 3.17-1.29 4.77-2.62-.07-5.23-.29-7.79-.81 1.68-1.98 3.71-4 6.54-3.21-.31-.99-.62-1.98-.93-2.98z" fill="#4fa881"/><path d="m125.62 13.07c1.43-.61 2.89-1.11 4.35-1.64 1.22.74 2.47 1.45 3.67 2.22.39 1.51.75 3.03 1.08 4.56-.87.77-1.75 1.53-2.62 2.3-3.09.04-6.31-.09-8.87-2.07.68-1.84 1.46-3.65 2.39-5.37z" fill="#dfdbbf"/><path d="m95.87 13.45c4.88-.86 9.82-.07 14.68.43.51.37 1.53 1.12 2.04 1.49 3.35 2.66 6.79 5.21 10.2 7.79 2.78 2.14 6.67 2.28 9.24 4.68 5.7 7.21 5.17 16.88 6.14 25.52 2.78-3.61 1.87-8.37 2.32-12.6 5.02 7.83 2.6 17.6 1.67 26.23 1.26-1.35 2.53-2.69 3.82-4.01-.56 2.84-.87 5.97-2.89 8.22-1.94 2.1-4.42 3.67-7.01 4.85-2.9 1.41-6.13.3-9.1-.21-.74 1.2-1.48 2.41-2.22 3.61-1.55-2.58-2.79-5.32-3.98-8.08-1.33 3.58-1.18 7.42-.96 11.17l-.5.69-.32-.82c-.51-1.31-.98-2.62-1.42-3.94.03-5.23.78-10.4 1.2-15.6-1.14 1.49-2.25 3-3.29 4.56-.19-3.89 1.39-7.57 1.52-11.44-1.71 1.27-3.4 2.57-4.97 4l-.39-4.28c-2 .46-3.92 1.18-5.72 2.15-.98-1.06-1.93-2.14-3.02-3.08-2.81.04-4.82 2.36-7.03 3.79 1.71.23 3.44.42 5.09.94-1.73.12-3.85-.2-4.95 1.49-4.68 5.49-7.51 12.27-9.64 19.09-1.3 3.99-.14 8.13.37 12.14-1.53-2.98-2.53-6.21-2.72-9.57.31-7.57 2.07-15.22 6.23-21.64 2.91-2.05 6.18-4.28 6.75-8.11-2.31.86-4.59 1.98-6.21 3.9-1.93 2.22-4.53 4.58-4.1 7.81-2.9 5.05-5.68 10.32-6.67 16.12l-.4 2.47c-.71-1.22-1.41-2.43-2.12-3.64-.09-5.01 1.16-9.89 2.33-14.71 2.46-2.41 4.16-5.41 5.16-8.7-3.74 3.17-7.66 6.36-10.24 10.58-1.64 3.87-2.07 8.17-4.13 11.89-.78-3.65-1.03-7.38-1.09-11.1 2.03-2.15 3.48-4.75 3.58-7.77-5.69 3.22-5.46 10.8-10.24 14.67-1.1-5.06 1.13-9.96 2.03-14.87-6.93 4.3-8.27 13.05-8.4 20.53-1.46-3.28-2.24-6.79-2.85-10.31-.48 1.37-.97 2.75-1.46 4.12-.2-4.44.17-8.89 1.34-13.19-6.58 3.64-7.78 11.78-12.54 17.06-.48-.08-1.43-.25-1.9-.33 2.51-3.52 2.67-7.98 4.48-11.8 1.96-4.19 6.24-6.52 8.74-10.31-5.86.58-10.41 4.24-14.78 7.82l-.3-3.47c-.54 1.23-1.08 2.47-1.6 3.72-.36-2.77.11-5.54 1.28-8.06 3.24-4.04 7.6-6.87 12.17-9.16-5.04-2.2-12.15.13-13.56 5.8-.49-3.95 1.07-7.93 3.6-10.91 2.79-3.18 7.07-4.12 10.96-5.19-1.41-2.81-3.35-5.62-3.09-8.92-.08-2.99 1.41-5.66 2.61-8.3.35 2.91-.34 6.48 2.07 8.68 2 2.14 5.1 1.94 7.77 1.97-1.05-1.55-2.34-2.98-2.96-4.76-.32-1.93.33-3.85.58-5.76.94 1.91 1.61 4.45 3.99 5 5.56 1.2 10.93-1.59 15.87-3.81 5.93-3.14 12.36-5.28 18.94-6.53m-9.96 26.51c-3.17.85-5.89 2.79-8.84 4.15.21-1.69.44-3.37.65-5.05-2 .44-3.9 1.18-5.75 2.03-1.62-.46-3.29-.75-4.96-.94-.48-.37-1.42-1.12-1.9-1.49-3.19 2.23-7.11 1.87-10.69 2.93l-.04 1.68c1.72.42 2.11 1.99 2.47 3.51 2.25-1.55 4.54-3.11 7.18-3.91-1.52 2.85-5.59 4.92-5.14 8.37 2.6-1.77 4.77-4.07 7.3-5.93l4.14 1.44c.25 1.7.53 3.42 1.32 4.97 1.41-.86 2.83-1.72 4.27-2.54 1.48.27 3.13 1.19 4.54.18 1.69-1.09 2.45-3.04 3.57-4.63 2.87 2.05 6.07-.53 8.63-1.91-.04-1.46-1.74-1.61-2.69-2.3.63-.81 1.25-1.63 1.87-2.45-2.01.51-4 1.12-5.93 1.89m17.06 3.02c1.14 2.23 2.38 4.44 3.03 6.89-1.36-.16-2.71-.33-4.06-.48 1.33 1.98 2.68 4.36 4.98 5.28 1.93-.81 3.23-2.76 5.34-3.21 2.14-.46 4.15-1.28 5.66-2.91-1.28-.13-2.56-.25-3.84-.37-.37-.36-1.12-1.06-1.49-1.41-2.61.62-3.72-1.97-5.11-3.62-.23.37-.67 1.12-.89 1.5-1.21-.56-2.41-1.12-3.62-1.67m24.16 6.98c-.85 2.73-1.53 5.51-1.82 8.36 1.76.89 3.52 2.01 4.52 3.78.89 2.9.38 6.15 1.96 8.85 2.87-2.57 4.53-6.1 4.7-9.95.18 1.65.37 3.3.71 4.92 2.93-.35 3.35-4.24 4.82-6.37-1.77-.11-3.58 0-5.33-.36-1.8-.46-2.24-2.44-3.06-3.84-1.16-.25-2.31-.5-3.46-.75-1.01-1.55-2.02-3.1-3.04-4.64z" fill="#622027"/><path d="m133.64 13.65c3.45.94 2.44 4.6 2.54 7.3-2.23 1.6-4.46 4.36-7.53 3.49-3.11-.31-5.69-2.76-5.42-6 2.56 1.98 5.78 2.11 8.87 2.07.87-.77 1.75-1.53 2.62-2.3-.33-1.53-.69-3.05-1.08-4.56z" fill="#225b52"/><path d="m85.91 39.96c1.93-.77 3.92-1.38 5.93-1.89-.62.82-1.24 1.64-1.87 2.45.95.69 2.65.84 2.69 2.3-2.56 1.38-5.76 3.96-8.63 1.91 1.1-1.65 2.42-3.12 3.73-4.6-.47-.04-1.39-.13-1.85-.17z" fill="#b45059"/><path d="m54.42 41.59c3.58-1.06 7.5-.7 10.69-2.93.48.37 1.42 1.12 1.9 1.49 1.67.19 3.34.48 4.96.94 1.85-.85 3.75-1.59 5.75-2.03-.21 1.68-.44 3.36-.65 5.05 2.95-1.36 5.67-3.3 8.84-4.15.46.04 1.38.13 1.85.17-1.31 1.48-2.63 2.95-3.73 4.6-1.12 1.59-1.88 3.54-3.57 4.63-1.41 1.01-3.06.09-4.54-.18-1.44.82-2.86 1.68-4.27 2.54-.79-1.55-1.07-3.27-1.32-4.97l-4.14-1.44c-2.53 1.86-4.7 4.16-7.3 5.93-.45-3.45 3.62-5.52 5.14-8.37-2.64.8-4.93 2.36-7.18 3.91-.36-1.52-.75-3.09-2.47-3.51z" fill="#c3555d"/><path d="m102.97 42.98c1.21.55 2.41 1.11 3.62 1.67.22-.38.66-1.13.89-1.5 1.39 1.65 2.5 4.24 5.11 3.62.37.35 1.12 1.05 1.49 1.41 1.28.12 2.56.24 3.84.37-1.51 1.63-3.52 2.45-5.66 2.91-2.11.45-3.41 2.4-5.34 3.21-2.3-.92-3.65-3.3-4.98-5.28 1.35.15 2.7.32 4.06.48-.65-2.45-1.89-4.66-3.03-6.89z" fill="#2c161b"/><path d="m35.53 51.98c1.41-5.67 8.52-8 13.56-5.8-4.57 2.29-8.93 5.12-12.17 9.16-.48-1.12-.94-2.24-1.39-3.36z" fill="#351b21"/><path d="m149.85 72.98c-.03-8.27.58-16.83 3.99-24.47 1.24 8.25-.06 17.85 5.72 24.66-1.94 3.17-1.26 7.03.99 9.85.25.29.74.87.99 1.16 1.49 2.18 2.66 4.56 3.96 6.85-1.57-1.72-3.19-3.5-5.39-4.42.4 2.51.96 4.99 1.56 7.46 2.36 1.15 4.67 2.38 6.99 3.6-.78-1.96-1.58-3.92-2.56-5.8 5.32 7.57 13.84 12.5 18.1 20.84-.14.55-.42 1.63-.56 2.18-6.2-6.48-13.18-12.09-19.87-18.04.44 1.29.75 2.65 1.51 3.8 5.63 7.8 11.2 16.55 11.65 26.44-2.87-4.08-5.47-8.41-9.12-11.87-6.84-6.85-12.45-15.02-15.93-24.07-2.26-5.77-1.99-12.09-2.03-18.17m1.31 10.05c.25 1.3.52 2.59.83 3.87 2.71 2.01 3.98 5.24 6.08 7.79.5-.99 2.08-1.89 1.43-3.18-.98-3.33-2.78-6.37-5.48-8.58-.17 1.42-.32 2.85-.45 4.28-.58-1.53-.17-4.12-2.41-4.18z" fill="#64212a"/><path d="m127.13 49.96c1.02 1.54 2.03 3.09 3.04 4.64 1.15.25 2.3.5 3.46.75.82 1.4 1.26 3.38 3.06 3.84 1.75.36 3.56.25 5.33.36-1.47 2.13-1.89 6.02-4.82 6.37-.34-1.62-.53-3.27-.71-4.92-.17 3.85-1.83 7.38-4.7 9.95-1.58-2.7-1.07-5.95-1.96-8.85-1-1.77-2.76-2.89-4.52-3.78.29-2.85.97-5.63 1.82-8.36z" fill="#c3545c"/><path d="m90.8 56.81c1.62-1.92 3.9-3.04 6.21-3.9-.57 3.83-3.84 6.06-6.75 8.11-1.33 1.05-2.5 2.28-3.56 3.6-.43-3.23 2.17-5.59 4.1-7.81z" fill="#311718"/><path d="m37.54 63.15c4.37-3.58 8.92-7.24 14.78-7.82-2.5 3.79-6.78 6.12-8.74 10.31-1.81 3.82-1.97 8.28-4.48 11.8-1.58-2.22-3.44-4.53-3.64-7.37-.08-2.23.15-4.45.18-6.67.52-1.25 1.06-2.49 1.6-3.72z" fill="#341d26"/><path d="m95.88 58.57c2.21-1.43 4.22-3.75 7.03-3.79 1.09.94 2.04 2.02 3.02 3.08 1.8-.97 3.72-1.69 5.72-2.15l.39 4.28c-.88.9-1.72 1.84-2.56 2.79-3.01-.58-5.91-1.62-8.51-3.27-1.65-.52-3.38-.71-5.09-.94z" fill="#2d161d"/><path d="m74.76 66.74c2.58-4.22 6.5-7.41 10.24-10.58-1 3.29-2.7 6.29-5.16 8.7-3.37 5.92-5.27 13.01-4.25 19.83-.18.93-.21 1.86-.09 2.79.58.1 1.76.29 2.34.39-.02-1.43-1.09-2.51-2.25-3.18.55.02 1.66.07 2.21.09-.11-1.74-.23-3.48-.29-5.21.71 1.21 1.41 2.42 2.12 3.64-.15 1.12-.29 2.25-.41 3.38 2.93 2.43 5.37 5.35 7.52 8.48-.87-.66-1.74-1.34-2.61-2.01a129.52 129.52 0 0 0 -3.32 3.31c-4.42-.62-6.27-4.81-6.49-8.81-1.5-.3-2.99-.6-4.5-.79l-.91-.03c-1.08-.03-2.16-.06-3.24-.1-1.23-2.48-2.39-4.99-3.43-7.55.17 2.83.85 5.59 2.38 8.01-1.46 1.57-.54 3.51-.1 5.29-.27-.02-.8-.06-1.07-.09-.02 1.34-.03 2.69-.04 4.03-.14-.72-.41-2.16-.55-2.87-2.8-.73-5.62-1.6-8.02-3.28-3.11-2.02-4.68-5.53-6.81-8.43.36 2.3.8 4.59 1.28 6.87-3.63-2.87-6.65-6.49-8.31-10.85 4.76-5.28 5.96-13.42 12.54-17.06-1.17 4.3-1.54 8.75-1.34 13.19.49-1.37.98-2.75 1.46-4.12.61 3.52 1.39 7.03 2.85 10.31.13-7.48 1.47-16.23 8.4-20.53-.9 4.91-3.13 9.81-2.03 14.87 4.78-3.87 4.55-11.45 10.24-14.67-.1 3.02-1.55 5.62-3.58 7.77-2.03 4.68-1.38 9.98-.86 14.91 1.14.76 2.41 1.32 3.64 1.93-.66 2.25 2.73 1.65.87-.06-.97-1.52-1.89-3.07-2.84-4.61l.28-1.07c2.06-3.72 2.49-8.02 4.13-11.89m2.03 24.82c-1.02 1 .4 3.55 1.77 2.69.72-1.09-.37-3.27-1.77-2.69z" fill="#311b22"/><path d="m112.04 59.99c1.57-1.43 3.26-2.73 4.97-4-.13 3.87-1.71 7.55-1.52 11.44.13 4.34-.16 8.68-.71 12.98-1.76-3.23-2.17-6.91-2.44-10.51-1.48 5.13-2.91 10.98.19 15.83 1.01-.26 3.04-.77 4.05-1.03-.08-.31-.26-.92-.35-1.23.27-1.71.77-3.37 1.35-5 .44 1.32.91 2.63 1.42 3.94-2.42-.66-.65 3.09.32.82l.5-.69c.27.59.8 1.77 1.07 2.37-5.06.37-9.33 3.32-14.24 4.35-1.57-1.85-3.65 1.36-.84 1.29-.59.74-1.18 1.49-1.77 2.23-.41.28-1.23.85-1.64 1.13-.22.15-.67.44-.89.59.07-.74.22-2.21.3-2.94-2.1-.2-4.2-.25-6.3-.21l.05-1.55c3.7-.43 7.25-1.6 10.83-2.55-1.04-3.29-2.25-6.69-1.74-10.2.62-5.04 3.04-9.58 4.83-14.27.84-.95 1.68-1.89 2.56-2.79m-5.24 26.84c1.73-.13 3.38-.65 4.99-1.26-2.19-3.96-2.65-8.44-3.38-12.82-2.15 4.37-1.84 9.36-1.61 14.08z" fill="#4f1e24"/><path d="m96.02 61c1.1-1.69 3.22-1.37 4.95-1.49 2.6 1.65 5.5 2.69 8.51 3.27-1.79 4.69-4.21 9.23-4.83 14.27-.51 3.51.7 6.91 1.74 10.2-3.58.95-7.13 2.12-10.83 2.55-.75.04-2.23.11-2.98.15 2.56 2.24 4.96 6.55 8.93 4.55.22-.15.67-.44.89-.59-.23 1.86-.01 3.9 2.32 3.94.6 1.19 1.19 2.38 1.78 3.58.47-.63.94-1.27 1.41-1.9.38.49 1.13 1.46 1.51 1.94l1.23-2.67c1.29.77 2.59 1.55 3.88 2.32 1.86-1.52 3.78-2.98 5.83-4.22.5-.2 1.51-.61 2.01-.82-.21 7.31-3.22 14.21-7.06 20.31-2.39 4.1-7.28 5.99-9.25 10.39-4.06 2.12-8.22 4.26-12.79 5-1.59-.04-3.18-.13-4.77-.21-5.35-3.6-9.34-8.7-14.07-13-1.71-1.65-3.65-3.32-4.14-5.77-.67-2.68-1.15-5.41-1.89-8.07-.23-.19-.7-.57-.94-.75-1.89-1.04-2.72-3.03-3.42-4.95.32-.26.94-.78 1.26-1.04l-.35-.68c-.3.23-.91.69-1.22.92l-.32-1.9c.01-1.34.02-2.69.04-4.03.27.03.8.07 1.07.09 1.33.09 2.65.19 3.98.29.11-1.98.22-3.96.41-5.94l.91.03c.09 2.87.6 5.8 3.08 7.6-.45-.12-1.35-.37-1.8-.49.38.35 1.13 1.05 1.5 1.41l.56 1.84c2.15.33 4.22 1.01 6.13 2.04 1.28-.71 2.56-1.42 3.81-2.19.37-1.3.72-2.6 1.03-3.92.87.67 1.74 1.35 2.61 2.01-2.15-3.13-4.59-6.05-7.52-8.48.12-1.13.26-2.26.41-3.38l.4-2.47c.48 2.63 1.41 5.15 2.48 7.59.55-1.88 1.11-3.75 1.52-5.67.19 3.36 1.19 6.59 2.72 9.57-.51-4.01-1.67-8.15-.37-12.14 2.13-6.82 4.96-13.6 9.64-19.09m-21.79 41.2c-.62 1.4-.2 1.87 1.24 1.41.6-1.4.18-1.87-1.24-1.41m5 .99c-1.32.68-1.35 1.36-.09 2.05 1.33-.69 1.36-1.37.09-2.05m5.65 3.19c-.64.54-.94 1.28-.92 2.23 1.27 1.38 2.49 2.81 3.72 4.22 1.38-.05 3.33.36 3.63-1.49 1.75-2.88-1.49-4.83-3.38-6.38.53-3.44-3.26-.38-3.05 1.42m21.35-1.33c-1.36.69-1.43 1.38-.2 2.04 1.37-.7 1.43-1.39.2-2.04m5.14 1.96c-.31 3.38 3.09-1.14 0 0m-23.78 7.03c1.28 2.59 4.86 2.22 7.34 2.36-1.67-2.37-4.71-2.65-7.34-2.36z" fill="#eab4a2"/><path d="m86.7 64.62c1.06-1.32 2.23-2.55 3.56-3.6-4.16 6.42-5.92 14.07-6.23 21.64-.41 1.92-.97 3.79-1.52 5.67-1.07-2.44-2-4.96-2.48-7.59.99-5.8 3.77-11.07 6.67-16.12z" fill="#db8886"/><path d="m176.13 60.62c.97.69 2.37 1.13 2.61 2.48 1.58 4.18 1.55 8.85-.5 12.86-.34.51-1.04 1.51-1.39 2.01-1.69 1.49-3.38 2.97-5.11 4.4-.15.07-.43.19-.57.26-2.69.48-5.43.41-8.14.33-.9-.99-1.73-.97-2.48.06-2.25-2.82-2.93-6.68-.99-9.85l.41-.54c2.6 4.85 9.27 7.17 14.17 4.59 4.71-3.11 3.54-9.22 3.63-14.02-.56-.86-1.1-1.72-1.64-2.58z" fill="#451e26"/><path d="m115.49 67.43c1.04-1.56 2.15-3.07 3.29-4.56-.42 5.2-1.17 10.37-1.2 15.6-.58 1.63-1.08 3.29-1.35 5-.47-1.02-.96-2.04-1.45-3.06.55-4.3.84-8.64.71-12.98z" fill="#2b1419"/><path d="m79.84 64.86c-1.17 4.82-2.42 9.7-2.33 14.71.06 1.73.18 3.47.29 5.21-.55-.02-1.66-.07-2.21-.09-1.02-6.82.88-13.91 4.25-19.83zm-10.3 2.67c.06 3.72.31 7.45 1.09 11.1l-.28 1.07c.95 1.54 1.87 3.09 2.84 4.61l-.87.06c-1.23-.61-2.5-1.17-3.64-1.93-.52-4.93-1.17-10.23.86-14.91z" fill="#d28380"/><path d="m112.53 85.73c-3.1-4.85-1.67-10.7-.19-15.83.27 3.6.68 7.28 2.44 10.51.49 1.02.98 2.04 1.45 3.06.09.31.27.92.35 1.23-1.01.26-3.04.77-4.05 1.03z" fill="#e3a198"/><path d="m106.8 86.83c-.23-4.72-.54-9.71 1.61-14.08.73 4.38 1.19 8.86 3.38 12.82-1.61.61-3.26 1.13-4.99 1.26z" fill="#ebaf9f"/><path d="m176.85 77.97c.35-.5 1.05-1.5 1.39-2.01-.34.51-1.04 1.51-1.39 2.01z" fill="#8a8475"/><path d="m64.62 87.1c-1.53-2.42-2.21-5.18-2.38-8.01 1.04 2.56 2.2 5.07 3.43 7.55 1.08.04 2.16.07 3.24.1-.19 1.98-.3 3.96-.41 5.94-1.33-.1-2.65-.2-3.98-.29-.44-1.78-1.36-3.72.1-5.29z" fill="#dc8980"/><path d="m119.32 83.23c-.97 2.27-2.74-1.48-.32-.82z" fill="#a37071"/><path d="m160.55 83.02c.75-1.03 1.58-1.05 2.48-.06-.37.31-1.12.91-1.49 1.22-.25-.29-.74-.87-.99-1.16z" fill="#93736e"/><path d="m171.17 82.63c.14-.07.42-.19.57-.26l-.24.21z" fill="#977768"/><path d="m151.16 83.03c2.24.06 1.83 2.65 2.41 4.18.13-1.43.28-2.86.45-4.28 2.7 2.21 4.5 5.25 5.48 8.58.65 1.29-.93 2.19-1.43 3.18-2.1-2.55-3.37-5.78-6.08-7.79-.31-1.28-.58-2.57-.83-3.87z" fill="#b75864"/><path d="m72.32 84.37.87-.06c1.86 1.71-1.53 2.31-.87.06zm3.18 3.11c-.12-.93-.09-1.86.09-2.79 1.16.67 2.23 1.75 2.25 3.18-.58-.1-1.76-.29-2.34-.39zm1.29 4.08c1.4-.58 2.49 1.6 1.77 2.69-1.37.86-2.79-1.69-1.77-2.69z" fill="#e3d5c5"/><path d="m106.65 89.26c4.91-1.03 9.18-3.98 14.24-4.35 2.72 4.66 10 4.72 11.06 10.52l-.23.89c-.17.26-.52.78-.7 1.03l-.15-1.51c-2.8 6.68-5.12 13.71-9.57 19.54-2.25 2.98-5.45 5.01-8.38 7.27-2.24 1.46-4.48 2.92-6.86 4.13 1.97-4.4 6.86-6.29 9.25-10.39 3.84-6.1 6.85-13 7.06-20.31.74-1.03 1.49-2.06 2.25-3.09 1.41.92 2.35.05 3.01-1.35-.7-.07-2.1-.19-2.8-.26-1.44-.97-2.89-2.45-4.79-1.97-4.45.47-9 1-13.39-.15zm-.84 1.29c-2.81.07-.73-3.14.84-1.29-.21.32-.63.97-.84 1.29zm26.98 7.23c1.14-.74 2.39-1.26 3.61-1.83-.46 3.74-1.49 7.48-4.49 10 .43-2.71.39-5.48.88-8.17zm-1.71 1.8.23.45c.03.14.08.41.11.55.14 1.68 0 3.37 0 5.06-.79-.3-2.37-.91-3.16-1.22.62-1.77 1.14-3.73 2.82-4.84zm1.29 6.67.26-.03.08.32c-.08-.08-.26-.22-.34-.29z" fill="#dc8683"/><path d="m69.82 86.77c1.51.19 3 .49 4.5.79.22 4 2.07 8.19 6.49 8.81 1.09-1.12 2.19-2.23 3.32-3.31-.31 1.32-.66 2.62-1.03 3.92-3.64.27-7.25-.36-10.2-2.61-2.48-1.8-2.99-4.73-3.08-7.6z" fill="#f0dcc1"/><path d="m160.11 86.61c2.2.92 3.82 2.7 5.39 4.42l.6.84c.98 1.88 1.78 3.84 2.56 5.8-2.32-1.22-4.63-2.45-6.99-3.6-.6-2.47-1.16-4.95-1.56-7.46z" fill="#b3575e"/><path d="m106.65 89.26c4.39 1.15 8.94.62 13.39.15 1.9-.48 3.35 1 4.79 1.97.7.07 2.1.19 2.8.26-.66 1.4-1.6 2.27-3.01 1.35-1.69-.6-3.4-1.12-5.13-1.56-.16-.23-.49-.68-.65-.91-.6 1.82-.91 3.77-1.85 5.46-2.56 2.08-5.89 1.89-8.96 1.64-.65-1.88-1.25-3.77-1.81-5.67-.54.21-1.63.62-2.18.83.59-.74 1.18-1.49 1.77-2.23.21-.32.63-.97.84-1.29m.53 4.58c-.11 2.7 2.01 3.34 4.25 2.57.33-2.67-2.05-4.35-4.25-2.57m6.91-.39c-.38 1.37.14 1.87 1.56 1.5.38-1.37-.15-1.87-1.56-1.5zm24.11 73.81c2.14-.35 4.29-.63 6.44-.89-3.83 2.21-7.03 5.27-9.73 8.74 1.27-1.97 2.65-3.88 3.83-5.9.26-.22.79-.64 1.06-.85-.4-.27-1.2-.82-1.6-1.1zm-65.84 87.44c1.85-1.2 3.67.81 4.57 2.28-1.85.4-3.41-1.03-4.57-2.28z" fill="#2e1716"/><path d="m92.58 89.95c.75-.04 2.23-.11 2.98-.15l-.05 1.55c2.1-.04 4.2.01 6.3.21-.08.73-.23 2.2-.3 2.94-3.97 2-6.37-2.31-8.93-4.55z" fill="#df8986"/><path d="m118.84 90.52c.16.23.49.68.65.91 1.73.44 3.44.96 5.13 1.56-.76 1.03-1.51 2.06-2.25 3.09-.5.21-1.51.62-2.01.82-4.53 1.08-9.26 2.38-13.92 1.23.4-.13 1.19-.39 1.59-.51 3.07.25 6.4.44 8.96-1.64.94-1.69 1.25-3.64 1.85-5.46z" fill="#eddac2"/><path d="m131.95 95.43c0-2.92 2.83-3.9 4.95-5.09l2.72 1.28c1.51 6.11-.44 12.92-5.62 16.68-.32-.44-.97-1.32-1.29-1.76l-.08-.32c3.67-2.28 5.28-6.79 4.97-10.92-1.9-1.74-4.11.08-5.88 1.02z" fill="#e7b1a4"/><path d="m104.04 92.78c.55-.21 1.64-.62 2.18-.83.56 1.9 1.16 3.79 1.81 5.67-.4.12-1.19.38-1.59.51l-1.72-.28c-2.33-.04-2.55-2.08-2.32-3.94.41-.28 1.23-.85 1.64-1.13z" fill="#ecdabf"/><path d="m107.18 93.84c2.2-1.78 4.58-.1 4.25 2.57-2.24.77-4.36.13-4.25-2.57zm9.17 67.63c1.67-.83 3.72.15 4.42 1.8 1.89.47 4.15 1.45 4.22 3.72-10.04 4.92-19.63 11.01-27.95 18.51-1.48.6-2.92.37-4.19-.66 7.55-7.61 16.06-14.2 25.2-19.79-8.9 4.12-16.36 10.81-23.51 17.42-1.12 1.64-3.96 1.78-4.37-.56 8.33-7.27 16.28-15.27 26.18-20.44z" fill="#eadac2"/><path d="m114.09 93.45c1.41-.37 1.94.13 1.56 1.5-1.42.37-1.94-.13-1.56-1.5z" fill="#a4998f"/><path d="m71.1 93.88c.45.12 1.35.37 1.8.49 2.95 2.25 6.56 2.88 10.2 2.61-1.25.77-2.53 1.48-3.81 2.19a18.94 18.94 0 0 0 -6.13-2.04l-.56-1.84c-.37-.36-1.12-1.06-1.5-1.41zm3.13 8.32c1.42-.46 1.84.01 1.24 1.41-1.44.46-1.86-.01-1.24-1.41zm5 .99c1.27.68 1.24 1.36-.09 2.05-1.26-.69-1.23-1.37.09-2.05zm5.65 3.19c-.21-1.8 3.58-4.86 3.05-1.42-.75.87-1.78 1.39-2.84 1.75zm21.35-1.33c1.23.65 1.17 1.34-.2 2.04-1.23-.66-1.16-1.35.2-2.04zm5.14 1.96c3.09-1.14-.31 3.38 0 0zm-2.34 122.93c6 7.59 12.89 16.79 23.59 16.9.3.29.9.85 1.2 1.13-6.2.77-11.96-2.48-16.3-6.61-3.4-3.3-6.95-6.82-8.49-11.42zm9.45-.42c2.77 1.57 5.01 3.97 6.62 6.7-2.76-1.59-5-3.98-6.62-6.7zm-83.38 42.76c6.84-2.81 13.81-5.33 20.44-8.61.28.58.84 1.76 1.12 2.35-5.42-.43-10.14 2.73-14.85 4.92 4.94 1.72 10.19-.07 15.28.11.27.44.81 1.3 1.08 1.73 11.76 2.73 23.91 2.77 35.91 2.52 1.71.12 2.68-1.63 3.93-2.46-2.77-2.67-6.19-4.59-8.69-7.54 3.28 1.26 5.62 4.04 8.48 5.97 6.28 5.09 13.54 9.11 21.33 11.26 6.66.78 13.75.45 19.83-2.64-2.74 3.1-7.22 3.12-10.95 4.07-.25 1.76-.39 3.55-.85 5.28-1.95 1.45-4.43 1.89-6.66 2.74-.23-.32-.69-.98-.92-1.31 2.35-.57 4.76-1.05 6.91-2.18.29-1.57.32-3.16.43-4.73-2.62.05-5.23.33-7.79.87-1.96-.82-3.87-1.75-5.72-2.79-5.48-2.53-10.8-7.32-17.24-5.76-.2 2.26-.38 4.53-.53 6.8 4.87-.04 9.74-.19 14.6-.46-4.95 1.88-10.29 1.4-15.44 2.14 3.61.27 7.27.32 10.76 1.41-3.53.37-7.07.53-10.61.49-.32 2.04-.62 4.09-.9 6.14 7.72-.26 15.42-1.13 23.14-1.45-8 1.3-16.14 1.75-24.24 1.71.4-5.57 1.92-11 2.06-16.6-10.71.02-21.51.28-32.1-1.62-4.74-.74-9.38-2.53-14.25-2-.32 5.53-1.04 11.2.6 16.6-1.95.94-4.36 1.44-5.52 3.48-4.07 5.81-6.84 12.39-10.48 18.47-2.9 4.93-4.7 10.37-6.36 15.81h-1.19c.43-6.67 3.62-12.68 6.82-18.39 2.86-4.87 5.04-10.13 8.27-14.79 1.4-1.84 1.75-4.14 2.09-6.36 1.62.44 3.26.87 4.89 1.28-.14-2.23-.28-4.45-.44-6.68-3.62-1.22-7.2-2.59-10.87-3.68-.16-.74-.34-1.47-.52-2.19-.31-1.3-.58-2.6-.85-3.91m1.86 1.53c3.31 1.9 6.97 3.14 10.71 3.87.02-1.54.03-3.07.05-4.6-2.72.3-5.25-.59-7.75-1.5-1.34.2-3.22.43-3.01 2.23m61.26.09c.19 3.33 2.98-1.53 0 0z" fill="#8c6b5e"/><path d="m131.72 96.32c1.77-.94 3.98-2.76 5.88-1.02.31 4.13-1.3 8.64-4.97 10.92l-.26.03-.46-.3c3-2.52 4.03-6.26 4.49-10-1.22.57-2.47 1.09-3.61 1.83-.49 2.69-.45 5.46-.88 8.17l-.49-.31c0-1.69.14-3.38 0-5.06-.03-.14-.08-.41-.11-.55-.07-.67-.21-2.01-.29-2.68.18-.25.53-.77.7-1.03zm-25.28 1.81c4.66 1.15 9.39-.15 13.92-1.23-2.05 1.24-3.97 2.7-5.83 4.22-1.29-.77-2.59-1.55-3.88-2.32l-1.23 2.67c-.38-.48-1.13-1.45-1.51-1.94-.47.63-.94 1.27-1.41 1.9-.59-1.2-1.18-2.39-1.78-3.58z" fill="#9c7465"/><g fill="#5c272a"><path d="m121.3 115.38c4.45-5.83 6.77-12.86 9.57-19.54l.15 1.51c.08.67.22 2.01.29 2.68l-.23-.45c-1.68 1.11-2.2 3.07-2.82 4.84-.63 1.88-1.29 3.75-2.01 5.59-.1.49-.29 1.48-.38 1.97-2.02 1.86-3.85 3.91-5.56 6.05.67.68 1.35 1.36 2.03 2.05-.42 1.38-.84 2.77-1.21 4.17l.04-3.5c-2.87 2.48-4.16 6.13-6.05 9.31-2.01 3.47-3.9 7.15-4.06 11.24-.11 2.07.06 4.17.75 6.13 1.91 5 6.17 8.29 10.56 11.03 2.51 1.63 4.59 3.78 6.6 5.97.43-.2 1.28-.6 1.71-.8-.33.57-.99 1.71-1.33 2.28.64 1.46 1.25 2.93 1.94 4.38-.27 2.36-.93 4.95-.08 7.24.97.15 1.75-.69 2.64-.96-3.44 5.46-7.04 11.05-8.67 17.37 7.39-3.75 15.26-8.02 18.91-15.9-2.63 8.21-11.1 11.93-17.94 16.02-2.69 1.8-6.83 2.8-7.1 6.64-.04-.06-.11-.19-.15-.25-1.66-2.83-2.28-6.06-2.94-9.22-.87.45-1.74.91-2.61 1.37-.41-.1-1.24-.28-1.66-.38 1.49-.76 2.98-1.5 4.49-2.22.24-3.44.49-6.9 1.29-10.27-.21 3.41-.49 6.82-.69 10.23 5.28-1.6 10.43-5.34 11.79-10.94.78-2.33.58-4.81.41-7.21-5.36 1.38-9.92 4.65-14.74 7.24-7.37 3.81-13.9 8.94-20.18 14.3 1.24-1.48 2.55-2.91 3.85-4.34-4.39-3.32-8.59-6.88-12.71-10.54 2.13-4.37 5.66-7.82 8.54-11.68 1.95-2.65 4.18-5.06 6.51-7.38-3.92-1.13-6.87 1.78-9.39 4.29 1.16-1.39 2.2-2.95 3.7-3.99 2.46-1.05 5.32-1.02 7.62-2.44 2.04-1.58 3.98-3.37 5.43-5.52.27-2.92.01-5.86.28-8.78 1.67-8.45 6.32-15.79 10.61-23.11-1.52.74-3.02 1.49-4.52 2.26-.26.13-.79.4-1.06.53 2.93-2.26 6.13-4.29 8.38-7.27m-4.95 46.09c-9.9 5.17-17.85 13.17-26.18 20.44.41 2.34 3.25 2.2 4.37.56 7.15-6.61 14.61-13.3 23.51-17.42-9.14 5.59-17.65 12.18-25.2 19.79 1.27 1.03 2.71 1.26 4.19.66 8.32-7.5 17.91-13.59 27.95-18.51-.07-2.27-2.33-3.25-4.22-3.72-.7-1.65-2.75-2.63-4.42-1.8m10.91 22.17c-2.88 3.35-6.75 5.48-10.75 7.17.46 2.67 1.05 5.32 1.64 7.97 1.9-1.55 3.93-2.95 6.17-3.99.81-3.39 2.61-6.5 2.99-9.98z"/><path d="m131.31 100.03c.03.14.08.41.11.55-.03-.14-.08-.41-.11-.55zm-57.38 69.69c.93-6.79 4.51-12.81 8.02-18.56l.73-.93c-1.09 2.38-2.2 4.74-3.37 7.09 1.16.26 2.31.54 3.46.85 1.65.96 3.03 2.29 4.35 3.66-2.48-1.62-4.88-3.8-8.02-3.83-5.57 7.49-5.09 17.52-6.8 26.34-.8 4.15-1.71 8.29-2.16 12.51l2.97-2.69c-1.3 2.22-2.14 4.65-2.5 7.21 2.03-1.71 3.21-4.09 4.59-6.3l-.18 1c-1.3 3.57-4.89 6.99-3.91 10.9 4.68-1.69 9.15-4.44 13.62-6.76l-.68 2.05c2.83.66 5.76.66 8.62 1.13-.07 4.18-1.29 8.18-2.6 12.11 4.98.93 11.22 2.88 15.45-.98 2.25-1.28.31-3.62-.09-5.41-.01-2.45.35-4.89.98-7.25-.53 3.26-.52 6.67.87 9.72.92 1.38 2.3 2.28 3.83 2.85.35.19 1.05.56 1.4.75-.16.99-.34 1.99-.54 2.98-.22-.69-.65-2.07-.87-2.76-3.06-.22-6.1.25-8.98 1.28l.6 1.99c-.42-.26-1.26-.77-1.68-1.03-9.57-1.18-19-3.19-28.49-4.89-.37-1.65-.76-3.63-2.7-4.06-1.1-.05-2.71.73-2.49 2.03.58.23 1.73.68 2.31.9-4.39.01-8.74-1.34-13.2-.92 1.9-.34 3.79-.71 5.68-1.13-5.22-2.35-10.15 1.68-14.54 4.04-.04.86-.14 2.59-.18 3.46 2.77 2.61 6.52 3.21 9.94 1.44-1.38.7-2.7 1.74-4.31 1.77-3.13.37-4.98-3.75-8.15-2.87-1.57.95-2.98 2.2-4.03 3.71-.73 1.94-.23 4.09-.16 6.11-.29.05-.87.17-1.16.23-.35-1.99-.74-3.98-1.08-5.96.33-2.52.97-5.33 3.08-6.96 1.24-1.18 2.96-2.05 3.39-3.85-.98.13-2.95.37-3.94.49l.42 1.33c-1.16.4-2.32.79-3.48 1.19-.04-.21-.11-.62-.15-.83.22-.39.65-1.17.86-1.56-.41-.14-1.25-.42-1.66-.55.21-.1.62-.31.83-.41 4.41.15 8.82-.08 13.19-.74-.1-4.53 1.79-9.21 5.49-11.91 2.67-1.02 5.02 1.65 7.42 2.4-2.78-5.02-6.79-9.22-9.59-14.23-3.46-5.94-6.29-12.28-8.08-18.93-.5-2.01-1.24-3.96-2.45-5.65-.21-1.84-.71-3.64-1.6-5.28-.22-.46-.44-.92-.67-1.37 2.2-.59 4.37-1.27 6.48-2.14 2.29 11.39 6.4 22.34 11.73 32.64.02.17.05.51.07.68a201.6 201.6 0 0 0 -3.84 2.03c4.89 6.23 9.03 12.95 13.19 19.67.21-4.27.24-8.54.44-12.81.01-.09.04-.27.05-.36 1.11-4.93 2.04-9.9 2.72-14.9.51-3.25 1.02-6.49 1.55-9.73m-18.47 29.55.34.78c5.69.21 7.9 6.48 12.19 9.13-.41-4.95-4.89-8.01-8.49-10.78-1.33-1.44-3.12-.53-4.04.87m-.53.66c-2.84 2.71-3.62 6.75-3.35 10.53l1.54-.74c1.52-2.97 2.44-6.2 3.58-9.31l-.9-.36zm2.24 1.06c-1.13 2.61-2.16 5.27-3.15 7.94 1.97-.21 3.95-.73 5.94-.55 2.25.89 4.34 2.44 6.88 2.25-.96-2.09-2.19-4.05-3.89-5.61-1.74-1.58-3.17-4-5.78-4.03m14.36 8.16c2.55-1.15 5.14-2.18 7.79-3.09 1.92 2.33 5.72.66 8.45 1.2.05 2.63-.01 5.27-.14 7.9l1.75.2a33.96 33.96 0 0 0 2.8-11.55c-7.16-1.28-15.88-1.02-20.65 5.34m1.65 3.1c4.68.8 9.21 2.67 14.03 2.52.11-2.16.86-4.59-.46-6.54-2.43-.97-5.25-.03-7.71-1.14-2.19 1.44-4.22 3.11-5.86 5.16zm68.82-7.99c3.05 1.12.93-3.13 0 0zm-1.77.2 1.77-.2c-.51.24-1.54.73-2.06.97z"/><path d="m138.08 204.89c.46.09 1.39.26 1.86.34-.5.16-1.52.47-2.02.63zm-26.11 13.27c.27.18.81.55 1.08.73.24.96.49 1.92.73 2.89 1.13 2.69 2.89 5.02 4.42 7.48-3.31-2.89-5.14-6.93-6.23-11.1z"/></g><path d="m63.73 98.23c.31-.23.92-.69 1.22-.92l.35.68c-.32.26-.94.78-1.26 1.04z" fill="#816758"/><path d="m67.46 103.98c.24.18.71.56.94.75.74 2.66 1.22 5.39 1.89 8.07-.5 0-1.5 0-2.01-.01-.36 7.1-5.47 12.62-10.7 16.86-5.43 3.71-11.17 6.97-17.02 9.97-3.13 1.66-6.1 3.83-8.16 6.75-3.56 5.83-6.93 13.53-2.46 19.86 1.23-2.14 1.96-4.78 4.13-6.2-1.91 2.14-2.77 4.91-3.18 7.7 3.01 1.61 6.16 2.96 9.42 4 .03-2.8.15-5.65 1.28-8.26.29-.11.86-.34 1.14-.46-2.04 2.35-1.48 5.39-1.16 8.2 4.17 1.93 7.16 6.96 4.96 11.4-1.85 5.66-7.56 8.31-10.99 12.81-.56 3.93-3.08 7.13-4.4 10.79-.26 2.04 2.24 2.78 3.37 4.06.83.14 1.66.31 2.49.49.41.13 1.25.41 1.66.55-.21.39-.64 1.17-.86 1.56-5.19 2.9-4.56 9.51-3.81 14.51 1.36.12 2.72.25 4.08.39.11-2.1.21-4.19.41-6.27.34 1.98.73 3.97 1.08 5.96.29-.06.87-.18 1.16-.23 1.84 4.17 3.82 8.28 5.35 12.58 1.24 3.17 2.33 6.99 5.81 8.37 7.28 3.24 14.6 6.44 22.02 9.36-1.18.11-2.39.25-3.5-.27-5.5-3-11.44-5.06-17.15-7.62-2.11-.94-4.27-2.17-5.4-4.28-2.63-5.21-4.05-10.99-7.11-15.99-3.69-1.19-7.87-1.27-11.75-1.01-3.77 2.5-6.47 6.24-10.11 8.91 3.76-4.01 7.33-9.23 13.05-10.36-2.41-1.65-4.77-4.24-8-3.67-4.92 4.38-8.5 9.98-12.43 15.2-1.55 1.97-2.09 4.47-2.98 6.77.18-2.08.34-4.32 1.65-6.05 3.8-5.17 7.5-10.44 11.98-15.05.91-1.02 2.24-1.47 3.43-2.06-.28-5.1 1.92-9.69 3.86-14.24-.02-2.6-1.59-5.04-1.15-7.69.15-2.91 2.96-4.48 4.84-6.28.56-6.87 1.24-13.85 3.66-20.35-1.48 6.7-3.19 13.42-3.14 20.34 1.45-.93 3.52-1.49 3.96-3.39 1.6-4.95 2.83-10.13 3.09-15.33-2.17-3.38-6.6-4.16-10.13-5.52-5.75-4.29-6.97-12.41-4.95-18.91 3.3-8.73 12.42-12.71 20.01-16.95 8.03-2.63 16.2-7.44 19.64-15.55 2.4-4.35 1.69-9.46 2.19-14.21m-26.27 72.87c-.5 4.75-1.87 9.33-2.88 13.98 2.42-1.6 5.62-3.38 5.55-6.73-.03-2.48.36-6.38-2.67-7.25m-11.2 28.48c2.9-2.15 3.96-5.99 3.58-9.46-3.4 1.74-4.98 5.9-3.58 9.46m-.01 2.7c-1.85 4.13-3.94 8.36-3.61 13.03 4.73-1.07 4.88-7.38 9.26-8.97-1.67-1.63-3.4-3.29-5.65-4.06m-1.74 15.43c1.6.45 2.05-1.92 1.5-2.97-1.49-.68-3.58 2.22-1.5 2.97z" fill="#582c2b"/><path d="m24.54 192.32c.37-.32 1.11-.97 1.48-1.29-4.83 10.94-10.09 21.69-15.91 32.14-2.97 5.89-6.89 11.43-8.64 17.85 4.16 10.09 6.47 21.02 11.98 30.53 3.67 3.21 9.11 4.87 13.95 3.73-6.01 2.13-14.42-.56-16.42-7.09-3.84-8.83-6.7-18.05-9.77-27.17.26-3.15 2.01-5.95 3.38-8.73 5.31-9.43 10.44-18.97 15.21-28.68 1.5-3.8 2.98-7.6 4.74-11.29z" fill="#582c2b"/><path d="m126.25 110.01c.72-1.84 1.38-3.71 2.01-5.59.79.31 2.37.92 3.16 1.22l.49.31.46.3c.08.07.26.21.34.29.32.44.97 1.32 1.29 1.76-.62.86-1.19 1.76-1.72 2.69-.09-.39-.26-1.18-.35-1.57h-.78l-.26.73c.34.21 1.04.63 1.39.84-.32.62-.94 1.86-1.25 2.48-1.8-.22-3.57-.6-5.16-1.49 2.24 1.54 2.97-3.06.38-1.97m2.92-3.91c-.53 1.61.02 2.18 1.65 1.72.53-1.62-.02-2.19-1.65-1.72z" fill="#6a233e"/><path d="m85.09 106.71c1.06-.36 2.09-.88 2.84-1.75 1.89 1.55 5.13 3.5 3.38 6.38-.3 1.85-2.25 1.44-3.63 1.49.85-2.46-1.63-4.15-2.59-6.12z" fill="#de8a85"/><path d="m83.96 108.61c-.02-.95.28-1.69.92-2.23l.21.33c.96 1.97 3.44 3.66 2.59 6.12-1.23-1.41-2.45-2.84-3.72-4.22z" fill="#8e584d"/><path d="m129.17 106.1c1.63-.47 2.18.1 1.65 1.72-1.63.46-2.18-.11-1.65-1.72zm1.98 3.32h.78c.09.39.26 1.18.35 1.57-.35-.21-1.05-.63-1.39-.84zm-4.9.59c2.59-1.09 1.86 3.51-.38 1.97.09-.49.28-1.48.38-1.97z" fill="#9a6177"/><path d="m87.59 114.04c2.63-.29 5.67-.01 7.34 2.36-2.48-.14-6.06.23-7.34-2.36z" fill="#bf847a"/><path d="m113.98 122.12c1.5-.77 3-1.52 4.52-2.26-4.29 7.32-8.94 14.66-10.61 23.11-2.66 2.53-5.46 6.66-9.64 5.81-2.18-2.5-3.3-5.74-5.29-8.39.28-2.08.42-4.17.6-6.26 1.53.51 3.06 1.02 4.58 1.54 6-3.62 10.93-8.63 15.84-13.55zm19.46 81.04c1.24-.82 2-.57 2.26.75-1.25.81-2.01.56-2.26-.75zm-.87 3.42c.54-.14 1.63-.4 2.18-.54.07 1.74.14 3.48.22 5.23-.97-.38-1.93-.74-2.9-1.09.01-.42.03-1.28.05-1.7.11-.48.33-1.43.45-1.9zm-2.44 7.25c1.41.05 2.82.13 4.23.23l.84.56a49.775 49.775 0 0 1 -5.12 2.8l.36-.91c-.08-.9-.19-1.79-.31-2.68zm-9.91 6.24c.59.15 1.77.45 2.36.59.24.6.71 1.8.95 2.4l-3.64-.24c.08-.69.25-2.06.33-2.75z" fill="#de8684"/><path d="m106.06 126.78c2.38-1.21 4.62-2.67 6.86-4.13.27-.13.8-.4 1.06-.53-4.91 4.92-9.84 9.93-15.84 13.55-1.52-.52-3.05-1.03-4.58-1.54-.18 2.09-.32 4.18-.6 6.26-.74 2.34-1.57 4.66-2.58 6.9.47-1.65.82-3.35 1.19-5.03-3.8 1.61-6.69 4.56-8.89 7.97l-.73.93c1.98-3.82 4.36-8.15 8.93-9.18 2.42-.65 1.51-3.71 1.92-5.52l-1.81.03c.77-.42 1.55-.86 2.32-1.3l-.04-3.41c4.57-.74 8.73-2.88 12.79-5z" fill="#2f1517"/><path d="m115.12 130.06c1.89-3.18 3.18-6.83 6.05-9.31l-.04 3.5c-.72 4.29-1.06 8.77.54 12.92-.68.91-1.37 1.81-2.07 2.7-1.83 1.44-3.68 2.87-5.22 4.62a62.49 62.49 0 0 0 -3.32-3.19c.16-4.09 2.05-7.77 4.06-11.24z" fill="#de8583"/><path d="m121.33 131.26c4.79.76 4.96 6.67 9.07 8.45 5.4 3.8 11.9 5.58 17.25 9.44-8.68 2.3-17.53 4.64-25.28 9.31-4.39-2.74-8.65-6.03-10.56-11.03.85-.98 1.71-1.96 2.57-2.94 1.54-1.75 3.39-3.18 5.22-4.62 3.6-1.67 2.33-5.6 1.73-8.61z" fill="#9b6f65"/><path d="m81.79 142.05c2.86-2.18 5.94-4.03 9.2-5.56l1.81-.03c-.41 1.81.5 4.87-1.92 5.52-4.57 1.03-6.95 5.36-8.93 9.18-3.51 5.75-7.09 11.77-8.02 18.56-.53 3.24-1.04 6.48-1.55 9.73-1.71.81-3.43 1.63-5.11 2.5-.25-.47-.75-1.4-1.01-1.87-4.64-9.36-7.15-19.59-9.27-29.77 4.45-1.09 9.26-1.75 13-4.62 1.19-.47 2.4-.91 3.64-1.23 3.56.86 7.44.7 9.97-2.32z" fill="#9b6f63"/><path d="m92.96 140.39c1.99 2.65 3.11 5.89 5.29 8.39 4.18.85 6.98-3.28 9.64-5.81-.27 2.92-.01 5.86-.28 8.78-1.45 2.15-3.39 3.94-5.43 5.52-2.3 1.42-5.16 1.39-7.62 2.44-1.5 1.04-2.54 2.6-3.7 3.99 2.52-2.51 5.47-5.42 9.39-4.29-2.33 2.32-4.56 4.73-6.51 7.38-2.88 3.86-6.41 7.31-8.54 11.68-.26.54-.78 1.6-1.05 2.13-.97-.15-1.95-.3-2.93-.45-2.4 2.41-5.14 5.37-8.92 4.19 1.71-8.82 1.23-18.85 6.8-26.34 3.14.03 5.54 2.21 8.02 3.83-1.32-1.37-2.7-2.7-4.35-3.66.12-1.9.02-3.85.56-5.69 1.88-2.29 5.06-3.04 7.05-5.19 1.01-2.24 1.84-4.56 2.58-6.9z" fill="#e7b1a1"/><path d="m73.63 144.46c2.75-.71 5.48-1.48 8.16-2.41l1.81.09c-2.53 3.02-6.41 3.18-9.97 2.32z" fill="#7e6252"/><path d="m111.06 141.3a62.49 62.49 0 0 1 3.32 3.19c-.86.98-1.72 1.96-2.57 2.94-.69-1.96-.86-4.06-.75-6.13z" fill="#cf9691"/><path d="m82.68 150.23c2.2-3.41 5.09-6.36 8.89-7.97-.37 1.68-.72 3.38-1.19 5.03-1.99 2.15-5.17 2.9-7.05 5.19-.54 1.84-.44 3.79-.56 5.69-1.15-.31-2.3-.59-3.46-.85 1.17-2.35 2.28-4.71 3.37-7.09z" fill="#cf8782"/><path d="m42.05 152.72c9.42-1.86 18.92-3.66 27.94-7.03-3.74 2.87-8.55 3.53-13 4.62-1.55.23-3.11.43-4.67.62 2.82 11.06 6.14 22.13 11.41 32.3 2.09-.34 2.93-1.39 2.53-3.15.26.47.76 1.4 1.01 1.87-2.47 1.31-4.95 2.61-7.45 3.87-.02-.17-.05-.51-.07-.68.86-.46 2.59-1.38 3.45-1.84-5.52-10.1-7.88-21.45-11.86-32.13-1.11.44-2.21.89-3.32 1.33-2.11.87-4.28 1.55-6.48 2.14.23.45.45.91.67 1.37-1.37.31-2.75.64-4.11 1.01 1.04-1.64 1.72-4.02 3.95-4.3zm65.33 40.96c1.52-.24 2.93-.81 4.31-1.46.42.1 1.25.28 1.66.38-1.49 1.38-2.9 2.85-4.32 4.31a45.13 45.13 0 0 0 4.73 8.41l-.57.45c-1.41-2.67-2.98-5.25-4.48-7.87-.81 1.29-1.63 2.58-2.3 3.96-.63 2.36-.99 4.8-.98 7.25-1.99-4.76-.45-9.99 2.14-14.17-.05-.32-.14-.95-.19-1.26z" fill="#5b3333"/><path d="m122.37 158.46c7.75-4.67 16.6-7.01 25.28-9.31 2.32-.12 4.4.89 6.31 2.11 2.4.48 4.8 1.01 7.11 1.86.32.38.97 1.13 1.29 1.51-10.84 1.73-21.83 3.97-31.68 9-.43.2-1.28.6-1.71.8-2.01-2.19-4.09-4.34-6.6-5.97z" fill="#e8d7c1"/><path d="m52.32 150.93c1.56-.19 3.12-.39 4.67-.62 2.12 10.18 4.63 20.41 9.27 29.77.4 1.76-.44 2.81-2.53 3.15-5.27-10.17-8.59-21.24-11.41-32.3z" fill="#e6d8bf"/><path d="m48.02 152.5c1.11-.44 2.21-.89 3.32-1.33 3.98 10.68 6.34 22.03 11.86 32.13-.86.46-2.59 1.38-3.45 1.84-5.33-10.3-9.44-21.25-11.73-32.64z" fill="#e8d5c1"/><path d="m161.07 153.12c3.29 1.39 6.76 2.36 9.98 3.91 2.45 1.16 2.61 4.24 1.96 6.54-1.02-1.14-2.05-2.27-3.06-3.4-3.14.25-6.62-.15-9.4 1.61-1.33 4.08-.79 8.44-1.11 12.65-1.36-4.13-.24-8.41.14-12.6-.81.16-2.43.47-3.23.63-1.22 5.23-4.45 9.97-9.15 12.65.3-3.95 1.73-7.92 4.85-10.52-1.41 2.75-2.85 5.52-3.59 8.55 3.76-2.17 5.53-6.23 6.71-10.2-3.55 1.02-7.02 2.29-10.53 3.43-2.15.26-4.3.54-6.44.89.4.28 1.2.83 1.6 1.1-.27.21-.8.63-1.06.85-2.55-.19-4.98.66-7.45 1.08-.69-1.45-1.3-2.92-1.94-4.38.34-.57 1-1.71 1.33-2.28 9.85-5.03 20.84-7.27 31.68-9-.32-.38-.97-1.13-1.29-1.51z" fill="#986e65"/><path d="m38.1 157.02c1.36-.37 2.74-.7 4.11-1.01.89 1.64 1.39 3.44 1.6 5.28 1.21 1.69 1.95 3.64 2.45 5.65 1.79 6.65 4.62 12.99 8.08 18.93 2.8 5.01 6.81 9.21 9.59 14.23-2.4-.75-4.75-3.42-7.42-2.4-3.7 2.7-5.59 7.38-5.49 11.91-4.37.66-8.78.89-13.19.74-.21.1-.62.31-.83.41-.83-.18-1.66-.35-2.49-.49-1.13-1.28-3.63-2.02-3.37-4.06 1.32-3.66 3.84-6.86 4.4-10.79 3.43-4.5 9.14-7.15 10.99-12.81 2.2-4.44-.79-9.47-4.96-11.4-.32-2.81-.88-5.85 1.16-8.2-.28.12-.85.35-1.14.46-1.13 2.61-1.25 5.46-1.28 8.26a56.212 56.212 0 0 1 -9.42-4c.41-2.79 1.27-5.56 3.18-7.7 1.33-1.02 2.72-1.97 4.03-3.01z" fill="#ecddc3"/><path d="m160.55 161.78c2.78-1.76 6.26-1.36 9.4-1.61 1.01 1.13 2.04 2.26 3.06 3.4 1.14 1.65 2.06 3.48 2.39 5.48 1.69 9.91-.21 20.19-4.81 29.09-.19.39-.59 1.18-.79 1.58-1.83 4.17-4.5 7.97-5.76 12.37 1.27-2.63 2.58-5.25 4.14-7.73.11 1.96.08 3.95.36 5.91-.27.78-.53 1.57-.79 2.36-.34-.26-1.03-.78-1.37-1.04-.87 1.26-1.73 2.53-2.47 3.87-6.65 16.23-10.63 33.41-16.78 49.83-2.23 5.12-4.26 10.47-8.17 14.6-6.08 3.09-13.17 3.42-19.83 2.64-7.79-2.15-15.05-6.17-21.33-11.26-2.86-1.93-5.2-4.71-8.48-5.97 2.5 2.95 5.92 4.87 8.69 7.54-1.25.83-2.22 2.58-3.93 2.46-12 .25-24.15.21-35.91-2.52-.27-.43-.81-1.29-1.08-1.73-5.09-.18-10.34 1.61-15.28-.11 4.71-2.19 9.43-5.35 14.85-4.92 4.37 2.08 8.33 5.03 12.97 6.55-2.85-4.4-8.13-5.98-12.58-8.21 2.1-.55 4.2-1.75 6.42-1.57 5.81 1.84 11.21 5.09 17.39 5.67-4.34-3.95-10.62-4.38-15.77-6.9 2.3-.91 4.56-1.98 7-2.47 5.62.72 10.29 4.55 15.8 5.69.49-.89.98-1.78 1.46-2.67-8.91-6.42-16.86-14.38-26.79-19.27 1.4 3.08 4.49 4.62 7.09 6.51 4.21 3 8.3 6.16 12.27 9.47-1.58-.84-3.23-1.52-4.99-1.84-.9-1.47-2.72-3.48-4.57-2.28 1.16 1.25 2.72 2.68 4.57 2.28l.6 1.76c-1.21-.42-2.41-.84-3.63-1.2-7.42-2.92-14.74-6.12-22.02-9.36-3.48-1.38-4.57-5.2-5.81-8.37-1.53-4.3-3.51-8.41-5.35-12.58-.07-2.02-.57-4.17.16-6.11 1.05-1.51 2.46-2.76 4.03-3.71 3.17-.88 5.02 3.24 8.15 2.87 1.61-.03 2.93-1.07 4.31-1.77-3.42 1.77-7.17 1.17-9.94-1.44.04-.87.14-2.6.18-3.46 4.39-2.36 9.32-6.39 14.54-4.04-1.89.42-3.78.79-5.68 1.13 4.46-.42 8.81.93 13.2.92-.58-.22-1.73-.67-2.31-.9-.22-1.3 1.39-2.08 2.49-2.03 1.94.43 2.33 2.41 2.7 4.06 9.49 1.7 18.92 3.71 28.49 4.89.42.26 1.26.77 1.68 1.03l-.6-1.99c2.88-1.03 5.92-1.5 8.98-1.28.22.69.65 2.07.87 2.76 1.09 4.17 2.92 8.21 6.23 11.1-1.53-2.46-3.29-4.79-4.42-7.48 3.28 1.27 6.6 3.57 10.26 2.88 1.86-1.12.36-3.21-.76-4.18-1.43-1.48-2.95-2.87-4.39-4.33 3.78-.26 7.53.29 11.19 1.27 2.22.41 4.36-.33 6.38-1.2-.32-1.18-.64-2.35-.97-3.51.19-.46.56-1.38.75-1.84-.44-1.3-.87-2.6-1.3-3.9l2.98-1.11c.5-.16 1.52-.47 2.02-.63.52-.24 1.55-.73 2.06-.97 3.05 1.12.93-3.13 0 0l-1.77.2-.29.77c-.47-.08-1.4-.25-1.86-.34-.15-1.3-.93-2.33-2.09-2.91-2.48-1.51-5.02-3.15-7.92-3.7-3.27-.83-6 1.68-9.02 2.42.27-3.84 4.41-4.84 7.1-6.64 6.84-4.09 15.31-7.81 17.94-16.02-3.65 7.88-11.52 12.15-18.91 15.9 1.63-6.32 5.23-11.91 8.67-17.37-.89.27-1.67 1.11-2.64.96-.85-2.29-.19-4.88.08-7.24 2.47-.42 4.9-1.27 7.45-1.08-1.18 2.02-2.56 3.93-3.83 5.9 2.7-3.47 5.9-6.53 9.73-8.74 3.51-1.14 6.98-2.41 10.53-3.43-1.18 3.97-2.95 8.03-6.71 10.2.74-3.03 2.18-5.8 3.59-8.55-3.12 2.6-4.55 6.57-4.85 10.52 4.7-2.68 7.93-7.42 9.15-12.65.8-.16 2.42-.47 3.23-.63-.38 4.19-1.5 8.47-.14 12.6.32-4.21-.22-8.57 1.11-12.65m-51.52 68.16c1.54 4.6 5.09 8.12 8.49 11.42 4.34 4.13 10.1 7.38 16.3 6.61-.3-.28-.9-.84-1.2-1.13-10.7-.11-17.59-9.31-23.59-16.9m9.45-.42c1.62 2.72 3.86 5.11 6.62 6.7-1.61-2.73-3.85-5.13-6.62-6.7z" fill="#ecddc2"/><path d="m30.57 169.6c3.53 1.36 7.96 2.14 10.13 5.52-.26 5.2-1.49 10.38-3.09 15.33-.44 1.9-2.51 2.46-3.96 3.39-.05-6.92 1.66-13.64 3.14-20.34-2.42 6.5-3.1 13.48-3.66 20.35-1.88 1.8-4.69 3.37-4.84 6.28-.44 2.65 1.13 5.09 1.15 7.69-1.94 4.55-4.14 9.14-3.86 14.24-1.19.59-2.52 1.04-3.43 2.06-4.48 4.61-8.18 9.88-11.98 15.05-1.31 1.73-1.47 3.97-1.65 6.05.89-2.3 1.43-4.8 2.98-6.77 3.93-5.22 7.51-10.82 12.43-15.2 3.23-.57 5.59 2.02 8 3.67-5.72 1.13-9.29 6.35-13.05 10.36 3.64-2.67 6.34-6.41 10.11-8.91 3.88-.26 8.06-.18 11.75 1.01 3.06 5 4.48 10.78 7.11 15.99 1.13 2.11 3.29 3.34 5.4 4.28 5.71 2.56 11.65 4.62 17.15 7.62-4.82 2.44-10.12 3.77-14.86 6.4-6.63 3.28-13.6 5.8-20.44 8.61.27 1.31.54 2.61.85 3.91-.5-1.14-1.08-2.23-1.75-3.27-2.35.52-4.54 1.54-6.8 2.36-4.84 1.14-10.28-.52-13.95-3.73-5.51-9.51-7.82-20.44-11.98-30.53 1.75-6.42 5.67-11.96 8.64-17.85 5.82-10.45 11.08-21.2 15.91-32.14-.37.32-1.11.97-1.48 1.29 1.37-7.72 4.53-15.01 6.03-22.72z" fill="#ecddc2"/><path d="m114.24 179.05c4.82-2.59 9.38-5.86 14.74-7.24.17 2.4.37 4.88-.41 7.21-1.36 5.6-6.51 9.34-11.79 10.94.2-3.41.48-6.82.69-10.23-.8 3.37-1.05 6.83-1.29 10.27-1.51.72-3 1.46-4.49 2.22-1.38.65-2.79 1.22-4.31 1.46.05.31.14.94.19 1.26-2.59 4.18-4.13 9.41-2.14 14.17.4 1.79 2.34 4.13.09 5.41-4.23 3.86-10.47 1.91-15.45.98 1.31-3.93 2.53-7.93 2.6-12.11-2.86-.47-5.79-.47-8.62-1.13l.68-2.05c-4.47 2.32-8.94 5.07-13.62 6.76-.98-3.91 2.61-7.33 3.91-10.9 3-5.18 5.89-10.43 9.13-15.47.27-.53.79-1.59 1.05-2.13 4.12 3.66 8.32 7.22 12.71 10.54-1.3 1.43-2.61 2.86-3.85 4.34 6.28-5.36 12.81-10.49 20.18-14.3z" fill="#ebdcc2"/><path d="m41.19 176.85c3.03.87 2.64 4.77 2.67 7.25.07 3.35-3.13 5.13-5.55 6.73 1.01-4.65 2.38-9.23 2.88-13.98z" fill="#ecdbc1"/><path d="m67.27 181.95c1.68-.87 3.4-1.69 5.11-2.5-.68 5-1.61 9.97-2.72 14.9-.01.09-.04.27-.05.36-.2 4.27-.23 8.54-.44 12.81-4.16-6.72-8.3-13.44-13.19-19.67a201.6 201.6 0 0 1 3.84-2.03c2.5-1.26 4.98-2.56 7.45-3.87z" fill="#ebdcc1"/><path d="m81.22 180.15c.98.15 1.96.3 2.93.45-3.24 5.04-6.13 10.29-9.13 15.47l.18-1c-1.38 2.21-2.56 4.59-4.59 6.3.36-2.56 1.2-4.99 2.5-7.21l-2.97 2.69c.45-4.22 1.36-8.36 2.16-12.51 3.78 1.18 6.52-1.78 8.92-4.19z" fill="#d68485"/><path d="m127.26 183.64.05 1.17c-.38 3.48-2.18 6.59-2.99 9.98-2.24 1.04-4.27 2.44-6.17 3.99-.59-2.65-1.18-5.3-1.64-7.97 4-1.69 7.87-3.82 10.75-7.17z" fill="#eadbc2"/><path d="m113.35 192.6c.87-.46 1.74-.92 2.61-1.37.66 3.16 1.28 6.39 2.94 9.22-1.35 1.98-3.19 3.52-5.14 4.87a45.13 45.13 0 0 1 -4.73-8.41c1.42-1.46 2.83-2.93 4.32-4.31zm-17.18 83.48c6.44-1.56 11.76 3.23 17.24 5.76-.79.14-2.37.43-3.17.58-4.86.27-9.73.42-14.6.46.15-2.27.33-4.54.53-6.8z" fill="#eadbc0"/><path d="m69.61 194.71c.01-.09.04-.27.05-.36-.01.09-.04.27-.05.36z" fill="#9a7166"/><path d="m29.99 205.33c-1.4-3.56.18-7.72 3.58-9.46.38 3.47-.68 7.31-3.58 9.46z" fill="#e2ccbc"/><path d="m55.46 199.27c.92-1.4 2.71-2.31 4.04-.87 3.6 2.77 8.08 5.83 8.49 10.78-4.29-2.65-6.5-8.92-12.19-9.13z" fill="#dfcdb9"/><path d="m119.05 200.7c3.02-.74 5.75-3.25 9.02-2.42 2.9.55 5.44 2.19 7.92 3.7 1.16.58 1.94 1.61 2.09 2.91l-.16.97-2.98 1.11c.43 1.3.86 2.6 1.3 3.9-.19.46-.56 1.38-.75 1.84.33 1.16.65 2.33.97 3.51-2.02.87-4.16 1.61-6.38 1.2 1.76-.84 3.47-1.76 5.12-2.8l-.84-.56c-.84-.61-1.67-1.22-2.49-1.83-.52.07-1.55.22-2.06.3-2.89-3.42-7.78-2.74-11.79-3.19-2.44-.37-4.22 1.56-5.94 2.93 3.05.28 6.14.17 9.19.51 3.35.36 6.28 2.14 9.17 3.73l-.36.91c-3.66-.98-7.41-1.53-11.19-1.27 1.44 1.46 2.96 2.85 4.39 4.33 1.12.97 2.62 3.06.76 4.18-3.66.69-6.98-1.61-10.26-2.88-.24-.97-.49-1.93-.73-2.89 2.22 1.4 4.45 2.82 6.84 3.93l3.64.24c-.24-.6-.71-1.8-.95-2.4-.59-.14-1.77-.44-2.36-.59-2.35-2.83-4.58-7.95-9.11-5.64-1.53-.57-2.91-1.47-3.83-2.85 1.76-1.82 3.61-3.61 5.93-4.71-1.17 1.5-2.29 3.03-3.43 4.55 4.06-1.95 8.16-4.41 12.74-4.69 3.21 1.08 6.32 2.43 9.55 3.45.97.35 1.93.71 2.9 1.09-.08-1.75-.15-3.49-.22-5.23-.55.14-1.64.4-2.18.54-.12.47-.34 1.42-.45 1.9-3.88-3.22-9.13-4-14-4.29-1.77.61-3.34 1.68-4.91 2.68 0-.27-.02-.83-.02-1.1l.57-.45c1.95-1.35 3.79-2.89 5.14-4.87.04.06.11.19.15.25m-.1 1.89c4.28.2 8.39 1.47 12.58 2.23l1.2-2.96c-3.78-3.95-10.25-3.12-13.78.73m14.49.57c.25 1.31 1.01 1.56 2.26.75-.26-1.32-1.02-1.57-2.26-.75z" fill="#b87069"/><path d="m106.41 201.86c.67-1.38 1.49-2.67 2.3-3.96 1.5 2.62 3.07 5.2 4.48 7.87 0 .27.02.83.02 1.1-2.32 1.1-4.17 2.89-5.93 4.71-1.39-3.05-1.4-6.46-.87-9.72z" fill="#ebdbc0"/><path d="m118.95 202.59c3.53-3.85 10-4.68 13.78-.73l-1.2 2.96c-4.19-.76-8.3-2.03-12.58-2.23z" fill="#df9d96"/><path d="m54.93 199.93.87.12.9.36c-1.14 3.11-2.06 6.34-3.58 9.31l-1.54.74c-.27-3.78.51-7.82 3.35-10.53z" fill="#e1d0bb"/><path d="m164.04 212.09c1.26-4.4 3.93-8.2 5.76-12.37-.08 1.92-1.03 4.34.7 5.84 5 4.68 12.88 4.94 18.72 1.65-2.32 1.76-4.74 3.59-7.67 4.15-4.36 1.08-8.71-.48-13.01-1.09-.28-1.96-.25-3.95-.36-5.91-1.56 2.48-2.87 5.1-4.14 7.73z" fill="#29222c"/><path d="m57.17 200.99c2.61.03 4.04 2.45 5.78 4.03 1.7 1.56 2.93 3.52 3.89 5.61-2.54.19-4.63-1.36-6.88-2.25-1.99-.18-3.97.34-5.94.55.99-2.67 2.02-5.33 3.15-7.94z" fill="#e9dbc2"/><path d="m71.53 209.15c4.77-6.36 13.49-6.62 20.65-5.34-.24 3.97-1.2 7.9-2.8 11.55l-1.75-.2c.13-2.63.19-5.27.14-7.9-2.73-.54-6.53 1.13-8.45-1.2-2.65.91-5.24 1.94-7.79 3.09z" fill="#ead9c0"/><path d="m73.18 212.25c1.64-2.05 3.67-3.72 5.86-5.16 2.46 1.11 5.28.17 7.71 1.14 1.32 1.95.57 4.38.46 6.54-4.82.15-9.35-1.72-14.03-2.52z" fill="#ead9c0"/><path d="m113.21 206.87c1.57-1 3.14-2.07 4.91-2.68 4.87.29 10.12 1.07 14 4.29-.02.42-.04 1.28-.05 1.7-3.23-1.02-6.34-2.37-9.55-3.45-4.58.28-8.68 2.74-12.74 4.69 1.14-1.52 2.26-3.05 3.43-4.55z" fill="#e5aea3"/><path d="m29.98 208.03c2.25.77 3.98 2.43 5.65 4.06-4.38 1.59-4.53 7.9-9.26 8.97-.33-4.67 1.76-8.9 3.61-13.03z" fill="#eaddc3"/><path d="m112.08 212.27c1.72-1.37 3.5-3.3 5.94-2.93 4.01.45 8.9-.23 11.79 3.19.51-.08 1.54-.23 2.06-.3.82.61 1.65 1.22 2.49 1.83-1.41-.1-2.82-.18-4.23-.23.12.89.23 1.78.31 2.68-2.89-1.59-5.82-3.37-9.17-3.73-3.05-.34-6.14-.23-9.19-.51zm-.97 2.16c4.53-2.31 6.76 2.81 9.11 5.64-.08.69-.25 2.06-.33 2.75-2.39-1.11-4.62-2.53-6.84-3.93-.27-.18-.81-.55-1.08-.73.2-.99.38-1.99.54-2.98-.35-.19-1.05-.56-1.4-.75z" fill="#ecafa1"/><path d="m41.01 211.18c.99-.12 2.96-.36 3.94-.49-.43 1.8-2.15 2.67-3.39 3.85-2.11 1.63-2.75 4.44-3.08 6.96-.2 2.08-.3 4.17-.41 6.27-1.36-.14-2.72-.27-4.08-.39-.75-5-1.38-11.61 3.81-14.51.04.21.11.62.15.83 1.16-.4 2.32-.79 3.48-1.19z" fill="#dccfb7"/><path d="m166.38 211.59c.34.26 1.03.78 1.37 1.04 4.55 7.28 14.42 8.03 20.24 14.02.75 1.67 1.44 3.37 2.15 5.07-6.4-2.89-14.14-2.48-19.74-7.08-3.05-2.33-4.6-5.95-6.49-9.18.74-1.34 1.6-2.61 2.47-3.87z" fill="#602530"/><path d="m163.91 215.46c1.89 3.23 3.44 6.85 6.49 9.18 5.6 4.6 13.34 4.19 19.74 7.08-.71-1.7-1.4-3.4-2.15-5.07 3.54 2.81 4.71 7.27 5.9 11.42 4.76 2.07 8.19 6.73 8.3 11.99 1.03 7.62-2.59 15.03-7.89 20.28-2.56 1.89-5.76 2.71-8.25 4.72-4.88 3.97-12.03 5.77-17.67 2.31 4.44-.14 9.21.52 13.31-1.63 4.63-2.09 8.51-6.09 9.79-11.09 1.52-6.22.37-13.3-3.87-18.25-4.13-4.96-10.16-8.83-16.68-9.27-4.64.67-9.31.72-13.93-.18-2.05 6.86-4.47 13.61-6.55 20.47-.81 2.74-1.93 5.37-3.32 7.87 6.15-16.42 10.13-33.6 16.78-49.83z" fill="#301f29"/><path d="m28.24 223.46c-2.08-.75.01-3.65 1.5-2.97.55 1.05.1 3.42-1.5 2.97z" fill="#d5aca0"/><path d="m62.56 242.84c9.93 4.89 17.88 12.85 26.79 19.27-.48.89-.97 1.78-1.46 2.67-5.51-1.14-10.18-4.97-15.8-5.69-2.44.49-4.7 1.56-7 2.47 5.15 2.52 11.43 2.95 15.77 6.9-6.18-.58-11.58-3.83-17.39-5.67-2.22-.18-4.32 1.02-6.42 1.57 4.45 2.23 9.73 3.81 12.58 8.21-4.64-1.52-8.6-4.47-12.97-6.55-.28-.59-.84-1.77-1.12-2.35 4.74-2.63 10.04-3.96 14.86-6.4 1.11.52 2.32.38 3.5.27 1.22.36 2.42.78 3.63 1.2l-.6-1.76c1.76.32 3.41 1 4.99 1.84a204.33 204.33 0 0 0 -12.27-9.47c-2.6-1.89-5.69-3.43-7.09-6.51z" fill="#ceb9ab"/><path d="m36.96 273.81c-.21-1.8 1.67-2.03 3.01-2.23 2.5.91 5.03 1.8 7.75 1.5-.02 1.53-.03 3.06-.05 4.6-3.74-.73-7.4-1.97-10.71-3.87z" fill="#eedac2"/><path d="m48.66 272.64c4.87-.53 9.51 1.26 14.25 2 10.59 1.9 21.39 1.64 32.1 1.62-.14 5.6-1.66 11.03-2.06 16.6-8.21.98-16.4-.25-24.59-.7-5.64-.69-11.42-.63-16.88-2.35-.74-.19-1.48-.39-2.22-.57-1.64-5.4-.92-11.07-.6-16.6z" fill="#eadbc1"/><path d="m98.22 273.9c2.98-1.53.19 3.33 0 0z" fill="#ebd1c3"/><path d="m36.47 278.38c3.67 1.09 7.25 2.46 10.87 3.68.16 2.23.3 4.45.44 6.68-1.63-.41-3.27-.84-4.89-1.28l-2.04-.6-.81-.26c-.89-.29-1.77-.58-2.65-.86-.34-2.45-.54-4.92-.92-7.36z" fill="#eadbbe"/><path d="m110.24 282.42c.8-.15 2.38-.44 3.17-.58 1.85 1.04 3.76 1.97 5.72 2.79-4.48.85-9.03 1.17-13.57 1.34-3.49-1.09-7.15-1.14-10.76-1.41 5.15-.74 10.49-.26 15.44-2.14z" fill="#91675f"/><path d="m119.13 284.63c2.56-.54 5.17-.82 7.79-.87-.11 1.57-.14 3.16-.43 4.73-2.15 1.13-4.56 1.61-6.91 2.18-.59.12-1.79.36-2.39.48-7.72.32-15.42 1.19-23.14 1.45.28-2.05.58-4.1.9-6.14 3.54.04 7.08-.12 10.61-.49 4.54-.17 9.09-.49 13.57-1.34z" fill="#e9d9bf"/><path d="m37.39 285.74c.88.28 1.76.57 2.65.86-2.39 1.05 1.15 2.63.81.26l2.04.6c-.34 2.22-.69 4.52-2.09 6.36-3.23 4.66-5.41 9.92-8.27 14.79-3.2 5.71-6.39 11.72-6.82 18.39h-5.97c.95-1.24.43-2.85-.3-4.03.07-.31.22-.92.29-1.22 1.51-.06 2.27-2.39.52-2.76.14-.3.44-.92.58-1.23 1.4-.23 2.19-2.49.4-2.77.09-.19.28-.58.38-.77 2.8-5.27 5.72-10.47 9.52-15.11 2.18-3.49 5.92-6.22 6.72-10.42-.15-.99-.3-1.97-.46-2.95z" fill="#9b6d62"/><path d="m49.26 289.24c.74.18 1.48.38 2.22.57-2.59 5.52-2.45 11.85-5.1 17.34-2.48 6.5-5.45 12.93-6.52 19.85h-12.96c1.66-5.44 3.46-10.88 6.36-15.81 3.64-6.08 6.41-12.66 10.48-18.47 1.16-2.04 3.57-2.54 5.52-3.48z" fill="#9b6d62"/><path d="m40.85 286.86c.34 2.37-3.2.79-.81-.26z" fill="#623e35"/><path d="m23.47 307.46c4.59-6.4 8.82-13.14 14.38-18.77-.8 4.2-4.54 6.93-6.72 10.42-3.8 4.64-6.72 9.84-9.52 15.11.35-2.31.34-4.84 1.86-6.76z" fill="#786353"/><path d="m46.38 307.15c2.65-5.49 2.51-11.82 5.1-17.34 5.46 1.72 11.24 1.66 16.88 2.35 8.19.45 16.38 1.68 24.59.7 8.1.04 16.24-.41 24.24-1.71.6-.12 1.8-.36 2.39-.48.23.33.69.99.92 1.31 3.21 4.85 7.67 8.72 10.62 13.75 4.22 7.04 8.54 14.04 12.43 21.27h-.94c-2.84-5.83-6.6-11.12-9.62-16.85-.92-1.73-2.01-3.43-3.71-4.5 2.36 7.51 6.53 14.25 9.85 21.35h-.75c-1.52-2.94-2.9-5.94-4.43-8.87-3.87-7.36-6.1-15.89-12.4-21.69-3.19-2.74-7.53-2.96-11.47-2.09 1.16 1.98 2.37 3.95 3.14 6.12 2.9 8.86 6.53 17.47 8.82 26.53h-.66c-2.42-9.01-6.01-17.63-8.77-26.52-.89-3.27-4.39-5.02-7.52-5.37-5.44-.57-10.92-.52-16.39-.6 1.58 10.76 3.15 21.58 3.02 32.49h-.41c-.55-8.68-.91-17.38-2.42-25.96-.59-2.67-2.9-5.21-5.79-5.2-4.49-.34-8.84-1.43-13.17-2.59-1.82 11.33-4.17 22.56-6.68 33.75h-.87c2.8-9.49 4.26-19.34 6.17-29.05.04-1.21.92-3.18-.86-3.56-4.51-1.73-9.34-2.39-14.07-3.21-4.93 11.75-10.04 23.51-13.44 35.82h-.32c1.07-6.92 4.04-13.35 6.52-19.85z" fill="#29181a"/><path d="m40.18 327c3.4-12.31 8.51-24.07 13.44-35.82 4.73.82 9.56 1.48 14.07 3.21 1.78.38.9 2.35.86 3.56-1.91 9.71-3.37 19.56-6.17 29.05zm29.75-33.75c4.33 1.16 8.68 2.25 13.17 2.59 2.89-.01 5.2 2.53 5.79 5.2 1.51 8.58 1.87 17.28 2.42 25.96h-28.06c2.51-11.19 4.86-22.42 6.68-33.75z" fill="#9c6d61"/><path d="m88.7 294.51c5.47.08 10.95.03 16.39.6 3.13.35 6.63 2.1 7.52 5.37 2.76 8.89 6.35 17.51 8.77 26.52h-29.66c.13-10.91-1.44-21.73-3.02-32.49z" fill="#9c6d61"/><path d="m110.08 294.35c3.94-.87 8.28-.65 11.47 2.09 6.3 5.8 8.53 14.33 12.4 21.69 1.53 2.93 2.91 5.93 4.43 8.87h-16.34c-2.29-9.06-5.92-17.67-8.82-26.53-.77-2.17-1.98-4.14-3.14-6.12z" fill="#9a6d61"/><path d="m129.28 305.65c1.7 1.07 2.79 2.77 3.71 4.5 3.02 5.73 6.78 11.02 9.62 16.85h-3.48c-3.32-7.1-7.49-13.84-9.85-21.35z" fill="#896961"/><path d="m21.23 314.99c1.79.28 1 2.54-.4 2.77z" fill="#6a4f3d"/><path d="m20.25 318.99c1.75.37.99 2.7-.52 2.76z" fill="#5e4b3d"/><path d="m19.44 322.97c.73 1.18 1.25 2.79.3 4.03h-.63c-.42-1.37-.32-2.71.33-4.03z" fill="#605547"/></svg>