<svg xmlns="http://www.w3.org/2000/svg" width="440pt" height="480" viewBox="0 0 440 360"><g fill="#020103"><path d="M343.51 2.68c7.5-1.19 15.71-.69 22.34 3.37 6.12 2.89 11.08 7.57 16.47 11.56 3.15 2.2 4.58 5.89 5.27 9.53 1.56 8.31 4.91 16.36 4.56 24.94-.53 8.22-2.44 16.39-6.04 23.82-2.08 5.18-5.68 9.66-7.25 15.04.67 3.65 2.37 7 3.76 10.41a120.14 120.14 0 0 1 9.21 26.82c2.15 10.53 6.98 20.69 14.67 28.31 4.36 4.64 9.86 8.57 12.43 14.6 4.4 10.26 5.49 21.61 10.38 31.69 2.71 8.82 6.08 17.47 10.69 25.49v77.97c-5.16 14.39-12.21 28.72-23.98 38.86-3.63 2.68-7.45 5.13-11.3 7.48-5.04 2.5-10.32 4.52-15.16 7.43H75.4c-4.8-4.39-10.31-7.93-14.93-12.52-3.97-4-8.14-7.83-11.76-12.16-8.89-11.09-17.11-22.75-23.85-35.28-1.9-3.66-4.17-7.11-6.18-10.71-1.88-3.37-2.63-7.19-4-10.76-2.19-4.37-4.83-8.55-6.08-13.32-4.65-16.63-7.96-33.91-6.73-51.24 2.11-17.57 9.18-34.4 19.26-48.87 2.58-3.76 3.76-8.22 5.53-12.37 2.71-6.61 6.75-12.79 7.81-19.97.72-5.35.37-10.8-.41-16.12-1.06-6.99-5.59-12.82-6.8-19.76-1.9-6.79-2.92-13.8-2.68-20.86.53-11.67.06-23.35.23-35.02.11-2.92.23-5.97 1.7-8.58 3.43-6.32 7.37-12.41 12.21-17.74 3.28-3.78 8.14-5.5 12.67-7.25 5.1-1.32 10.45-.68 15.65-.66 5.44 0 10.09 3.11 14.95 5.13 6.41 2.73 12.32 7.2 15.75 13.36 4.13 7.06 9.35 13.74 11.18 21.88 1.39 6.2 4.67 11.71 7.25 17.45 6.07-2.87 12.84-3.45 19.19-5.45 5.24-1.67 10.7-2.35 16.1-3.29 5.12-.9 9.83-3.3 14.97-4.08 10.64-1.36 21.37-1.69 32.01-2.98 7.21-.61 14.34-2.08 21.6-2.17 5.7-.23 11.41.26 17.1-.23 5.64-.53 11.27.25 16.89.64 6.58.42 12.51 3.57 18.9 4.89 6.11 1.7 12.19 3.8 18.63 3.76 2.33-5.09 5.21-9.93 7.05-15.24 1.78-5.36 6.16-9.2 8.87-14.05 7.88-12.77 22.25-19.38 36.03-23.75m-29.04 123.65c-6.16 2.66-11.71 6.97-15.83 12.24-1.67 4.29-4.8 7.91-6.04 12.34 5.85.35 11.65-.67 17.48-.89 9.59-.96 19.24-.65 28.83-1.67 7.24-.76 14.68.16 21.78-1.76-.34-1.63-.37-3.42-1.41-4.79-4.2-5.09-8.79-10.04-14.54-13.4-9.24-4.72-20.5-5.9-30.27-2.07m-126.64-1.04c-10.32 2.2-20.83 3.98-30.69 7.85-5.56 2.08-10.61 5.22-15.8 8.06-5.52 3.32-10.83 7.26-14.69 12.49-2.59 4.56-4.54 9.45-6.92 14.13-.52 1.71-1.16 3.4-1.33 5.19-.53 9.46.15 19.08 3.57 28 1.72 3.7 4.38 6.83 7.29 9.64 2.96 2.81 5.89 5.9 9.81 7.35 9 3.54 18.42 6 27.98 7.44 7.54.5 15.18-.59 22.43-2.69 12.83-3.29 25.52-7.31 37.64-12.69 4.58-2.14 7.76-6.22 11.28-9.69 4.6-4.35 7.5-10.11 10.28-15.71 3.12-10.31 4.28-21.55.72-31.92-1.76-5.96-6.5-10.23-9.79-15.31-3.93-5.38-10.58-7.27-16.72-8.79-11.28-3.53-23.32-4.94-35.06-3.35m135.96 31.57c-6.12 2.27-12.13 5.9-15.07 12-2.19 5.15-2.1 11.02.21 16.12 2.63 2.78 5.49 5.53 9.16 6.87 4.2 1.55 8.64 2.39 12.78 4.15 10.28 3.96 21.42 2.67 32.18 2.73 1.7.06 3.39-.26 4.99-.84 2.2-1.79 4.45-3.52 6.38-5.61 2.9-5.17 2.55-11.2 1.88-16.88l-1.13-.02c.07-.3.21-.9.28-1.19-1.03-1.76-1.7-3.68-2.42-5.56-.35.01-1.06.04-1.41.05l.15-.86c-.45-.32-1.35-.95-1.79-1.27-.25-.37-.74-1.1-.98-1.46-.62-.77-1.24-1.55-1.84-2.33-4.24-3.02-8.69-6.22-14-6.92-9.68-2.11-19.85-1.52-29.37 1.02m-39.72 17.04c-2.45 9.64-2.06 20.08 1.99 29.25 7.41.03 14.72 1.42 21.97 2.77 10.4 2.71 20.43 6.73 30.91 9.18 4.28.9 6.72 5.13 10.9 6.23 7.16 2.03 14.7 2.03 22.08 2.12 5.89-1.15 12.36-1.56 17.29-5.35 1.47-.83 1.54-2.65 1.82-4.11.9-8.1 2.42-16.2 1.95-24.39-1.73-4.68-4.13-9.01-7.49-12.71-1.17.02-2.34.05-3.5.09-.04 5.36.32 10.96-2.02 15.96-2.19 5.17-7.08 8.53-12.12 10.57-7.06 2.2-14.52 1.18-21.77 1.59-7.58.3-15.19-.96-22.17-3.97-8.29-3.26-17.84-6.47-22.4-14.77-1.04-7.47-.81-15.78 3.73-22.15 1.83-3.05 4.94-5.11 6.5-8.35-4.16-.2-8.36-.21-12.44.69-2.83.72-5.58-.5-8.34-.89-4.14 5.18-5.42 11.93-6.89 18.24M270 250.4c-8.6.35-17.83-1.34-25.8 2.77-4.45 1.88-9.28 3.64-12.22 7.75-2.28 4.55-1.44 9.69-1.38 14.58.14.01.44.04.58.06.44 2.03.98 4.04 1.48 6.06l1.21-.11-.36 1.29c.86.86 1.7 1.74 2.52 2.65l.69.06c-.07.52-.22 1.55-.29 2.07.53-.07 1.58-.23 2.11-.3l-.02 1.57 1.69-.6c.08.22.23.67.3.89.85.61 1.7 1.23 2.55 1.86 2.02 1.12 4.1 2.17 6.33 2.82l.11.3c1.22.4 2.44.82 3.65 1.27.6.05 1.82.13 2.42.18l-.14.85c1.67.04 3.35.1 5.03.15l-.02.76c10.05 1.55 20.2 1.05 30.32 1.12l-.53-.9c7.29-.11 14.59-.1 21.88-.35 12.2-1.75 24.51-5.14 34.66-12.37 3.6-2.6 6.28-6.45 7.36-10.76.74-3.69-.31-8.3-3.86-10.18-5.4-3.08-11.69-4.02-17.13-7.02-3.35-1.5-5.9-4.25-9.14-5.91-5.59-.98-11.27-1.57-16.96-1.4-12.35.18-24.75-.7-37.04.84z"/><path d="M222.16 139.64c1.48.61 2.95 1.26 4.42 1.93-.36 4.5-2.5 9.42-7.2 10.79-4.43 2.14-9.67-.44-13.96 1.77 4.91 1.62 10.16 2.3 14.74 4.84 8.87 4.63 16.85 12.71 18.07 23.05 1.56 7.58-2.5 15.14-8.29 19.8-10.1 7.06-22.82 9.16-34.91 8.84-5.9.07-11.63-1.52-17.36-2.7-5.64-2.12-11.22-4.46-16.61-7.18-4.36-2.29-5.27-7.62-6.61-11.9-1.56-6.76-3.3-14.55.59-20.86 1.94-2.98 3.28-6.59 6.3-8.68 3.8-2.27 8.09-3.51 12.24-4.98-1.42-.64-2.87-1.32-4.46-1.3-6.72-.33-13.46-.05-20.18-.12-1.66.02-3.5-.45-4.51-1.85-.85-3.24 3.44-3.04 5.54-3.18 9.36.16 18.74-.35 28.08.52 6.31-.02 12.59.94 18.91.59 6.32-.27 12.69.34 18.97-.6 4.3-.52 4.53-5.7 6.23-8.78m-50.3 22.2c-1.72.65-3.43 1.3-5.15 1.94-.03.1-.1.3-.14.4-3.37 2.46-6.46 5.77-7.39 9.96-.53 6.02-.99 12.7 2.81 17.85 2.22 4 6.5 5.96 10.55 7.61 5.51 2.94 11.89 3.07 17.9 4.2 7.54.6 15.17.75 22.69-.11 6.64-.65 13.26-3.96 17.03-9.56 2.71-3.82 2.39-8.71 2.08-13.15-.14-5.49-4.5-9.54-8.44-12.79-4.69-4.1-11-5.23-16.69-7.3-11.67-1.66-23.75-2.25-35.25.95zm154.72 13.08c2.8-6.33 9.74-9.9 16.42-10.2 3.23.43 6.69 2.06 8.02 5.23 1.42 3.13 2.69 6.56 2.39 10.06-.79 4.86-5.82 7.71-10.4 7.99-4.32.95-9.04.34-12.6-2.39-2.51-2.95-3.56-6.89-3.83-10.69z"/><path d="M183.63 171.63c1.77-.61 3.51-1.29 5.29-1.85 1.86.22 3.68.69 5.54.99l.17.19c4.76 1.52 9.36 5.63 9.11 11.01.42 3.82-2.97 7.29-6.74 7.34-5.34.48-11.15 1.4-16.21-.79-.74-1.12-1.53-2.2-2.35-3.25-1.07-5.14 1.76-10.05 5.19-13.64zm70.38 104.11c-1.9-4.47-5.17-10.03-1.35-14.42 2.29 1.14 4.57 2.85 7.29 2.37 13.32-1.26 26.73-1.74 40.1-1.01 9.94-.11 19.93.92 29.49 3.77 1.58-.6 3.19-1.13 4.82-1.62.43 2.04 1.26 4.09 1.02 6.22-.63 3.33-2.83 6.03-4.65 8.79-2.33-1.71-3.62-4.23-3.66-7.13-4.24-2.7-9.42-2.4-14.21-3.07-11.88-1.81-23.93-.96-35.88-.48-5.79.03-11.64.05-17.33 1.31-.47 2.99-2.38 5.41-5.64 5.27z"/><path d="M282.78 274.15c9.03-.73 18.11-1.23 27.18-.95 2.32-.12 4.51 1.95 3.61 4.34-2.61 2.45-6.36 2.05-9.6 1.55-6.98-1.19-14.07.25-21.07-.63-.45-.81-.9-1.62-1.34-2.43.4-.63.81-1.26 1.22-1.88z"/></g><path fill="#efc115" d="M314.47 126.33c9.77-3.83 21.03-2.65 30.27 2.07 5.75 3.36 10.34 8.31 14.54 13.4 1.04 1.37 1.07 3.16 1.41 4.79-7.1 1.92-14.54 1-21.78 1.76-9.59 1.02-19.24.71-28.83 1.67-5.83.22-11.63 1.24-17.48.89 1.24-4.43 4.37-8.05 6.04-12.34 4.12-5.27 9.67-9.58 15.83-12.24zm-126.64-1.04c11.74-1.59 23.78-.18 35.06 3.35 6.14 1.52 12.79 3.41 16.72 8.79 3.29 5.08 8.03 9.35 9.79 15.31 3.56 10.37 2.4 21.61-.72 31.92-2.78 5.6-5.68 11.36-10.28 15.71-3.52 3.47-6.7 7.55-11.28 9.69-12.12 5.38-24.81 9.4-37.64 12.69-7.25 2.1-14.89 3.19-22.43 2.69-9.56-1.44-18.98-3.9-27.98-7.44-3.92-1.45-6.85-4.54-9.81-7.35-2.91-2.81-5.57-5.94-7.29-9.64-3.42-8.92-4.1-18.54-3.57-28 .17-1.79.81-3.48 1.33-5.19 2.38-4.68 4.33-9.57 6.92-14.13 3.86-5.23 9.17-9.17 14.69-12.49 5.19-2.84 10.24-5.98 15.8-8.06 9.86-3.87 20.37-5.65 30.69-7.85m34.33 14.35c-1.7 3.08-1.93 8.26-6.23 8.78-6.28.94-12.65.33-18.97.6-6.32.35-12.6-.61-18.91-.59-9.34-.87-18.72-.36-28.08-.52-2.1.14-6.39-.06-5.54 3.18 1.01 1.4 2.85 1.87 4.51 1.85 6.72.07 13.46-.21 20.18.12 1.59-.02 3.04.66 4.46 1.3-4.15 1.47-8.44 2.71-12.24 4.98-3.02 2.09-4.36 5.7-6.3 8.68-3.89 6.31-2.15 14.1-.59 20.86 1.34 4.28 2.25 9.61 6.61 11.9 5.39 2.72 10.97 5.06 16.61 7.18 5.73 1.18 11.46 2.77 17.36 2.7 12.09.32 24.81-1.78 34.91-8.84 5.79-4.66 9.85-12.22 8.29-19.8-1.22-10.34-9.2-18.42-18.07-23.05-4.58-2.54-9.83-3.22-14.74-4.84 4.29-2.21 9.53.37 13.96-1.77 4.7-1.37 6.84-6.29 7.2-10.79-1.47-.67-2.94-1.32-4.42-1.93zm61.91 34.26c1.47-6.31 2.75-13.06 6.89-18.24 2.76.39 5.51 1.61 8.34.89 4.08-.9 8.28-.89 12.44-.69-1.56 3.24-4.67 5.3-6.5 8.35-4.54 6.37-4.77 14.68-3.73 22.15 4.56 8.3 14.11 11.51 22.4 14.77 6.98 3.01 14.59 4.27 22.17 3.97 7.25-.41 14.71.61 21.77-1.59 5.04-2.04 9.93-5.4 12.12-10.57 2.34-5 1.98-10.6 2.02-15.96 1.16-.04 2.33-.07 3.5-.09 3.36 3.7 5.76 8.03 7.49 12.71.47 8.19-1.05 16.29-1.95 24.39-.28 1.46-.35 3.28-1.82 4.11-4.93 3.79-11.4 4.2-17.29 5.35-7.38-.09-14.92-.09-22.08-2.12-4.18-1.1-6.62-5.33-10.9-6.23-10.48-2.45-20.51-6.47-30.91-9.18-7.25-1.35-14.56-2.74-21.97-2.77-4.05-9.17-4.44-19.61-1.99-29.25zM270 250.4c12.29-1.54 24.69-.66 37.04-.84 5.69-.17 11.37.42 16.96 1.4 3.24 1.66 5.79 4.41 9.14 5.91 5.44 3 11.73 3.94 17.13 7.02 3.55 1.88 4.6 6.49 3.86 10.18-1.08 4.31-3.76 8.16-7.36 10.76-10.15 7.23-22.46 10.62-34.66 12.37-7.29.25-14.59.24-21.88.35l.53.9c-10.12-.07-20.27.43-30.32-1.12l.02-.76c-1.68-.05-3.36-.11-5.03-.15l.14-.85c-.6-.05-1.82-.13-2.42-.18-1.21-.45-2.43-.87-3.65-1.27l-.11-.3c-2.23-.65-4.31-1.7-6.33-2.82-.85-.63-1.7-1.25-2.55-1.86-.07-.22-.22-.67-.3-.89l-1.69.6.02-1.57c-.53.07-1.58.23-2.11.3.07-.52.22-1.55.29-2.07l-.69-.06c-.82-.91-1.66-1.79-2.52-2.65l.36-1.29-1.21.11c-.5-2.02-1.04-4.03-1.48-6.06-.14-.02-.44-.05-.58-.06-.06-4.89-.9-10.03 1.38-14.58 2.94-4.11 7.77-5.87 12.22-7.75 7.97-4.11 17.2-2.42 25.8-2.77m-15.99 25.34c3.26.14 5.17-2.28 5.64-5.27 5.69-1.26 11.54-1.28 17.33-1.31 11.95-.48 24-1.33 35.88.48 4.79.67 9.97.37 14.21 3.07.04 2.9 1.33 5.42 3.66 7.13 1.82-2.76 4.02-5.46 4.65-8.79.24-2.13-.59-4.18-1.02-6.22-1.63.49-3.24 1.02-4.82 1.62-9.56-2.85-19.55-3.88-29.49-3.77-13.37-.73-26.78-.25-40.1 1.01-2.72.48-5-1.23-7.29-2.37-3.82 4.39-.55 9.95 1.35 14.42m28.77-1.59c-.41.62-.82 1.25-1.22 1.88.44.81.89 1.62 1.34 2.43 7 .88 14.09-.56 21.07.63 3.24.5 6.99.9 9.6-1.55.9-2.39-1.29-4.46-3.61-4.34-9.07-.28-18.15.22-27.18.95z"/><path fill="#fff" d="M323.79 156.86c9.52-2.54 19.69-3.13 29.37-1.02 5.31.7 9.76 3.9 14 6.92.6.78 1.22 1.56 1.84 2.33.24.36.73 1.09.98 1.46.44.32 1.34.95 1.79 1.27l-.15.86c.35-.01 1.06-.04 1.41-.05.72 1.88 1.39 3.8 2.42 5.56-.07.29-.21.89-.28 1.19l1.13.02c.67 5.68 1.02 11.71-1.88 16.88-1.93 2.09-4.18 3.82-6.38 5.61-1.6.58-3.29.9-4.99.84-10.76-.06-21.9 1.23-32.18-2.73-4.14-1.76-8.58-2.6-12.78-4.15-3.67-1.34-6.53-4.09-9.16-6.87-2.31-5.1-2.4-10.97-.21-16.12 2.94-6.1 8.95-9.73 15.07-12m2.79 18.06c.27 3.8 1.32 7.74 3.83 10.69 3.56 2.73 8.28 3.34 12.6 2.39 4.58-.28 9.61-3.13 10.4-7.99.3-3.5-.97-6.93-2.39-10.06-1.33-3.17-4.79-4.8-8.02-5.23-6.68.3-13.62 3.87-16.42 10.2zm-154.72-13.08c11.5-3.2 23.58-2.61 35.25-.95 5.69 2.07 12 3.2 16.69 7.3 3.94 3.25 8.3 7.3 8.44 12.79.31 4.44.63 9.33-2.08 13.15-3.77 5.6-10.39 8.91-17.03 9.56-7.52.86-15.15.71-22.69.11-6.01-1.13-12.39-1.26-17.9-4.2-4.05-1.65-8.33-3.61-10.55-7.61-3.8-5.15-3.34-11.83-2.81-17.85.93-4.19 4.02-7.5 7.39-9.96.04-.1.11-.3.14-.4 1.72-.64 3.43-1.29 5.15-1.94m11.77 9.79c-3.43 3.59-6.26 8.5-5.19 13.64.82 1.05 1.61 2.13 2.35 3.25 5.06 2.19 10.87 1.27 16.21.79 3.77-.05 7.16-3.52 6.74-7.34.25-5.38-4.35-9.49-9.11-11.01l-.17-.19c-1.86-.3-3.68-.77-5.54-.99-1.78.56-3.52 1.24-5.29 1.85z"/><path fill="#ea1a2c" d="M0 277.58c4.89.34 9.81.31 14.68.99 1.37 3.57 2.12 7.39 4 10.76 2.01 3.6 4.28 7.05 6.18 10.71 6.74 12.53 14.96 24.19 23.85 35.28 3.62 4.33 7.79 8.16 11.76 12.16 4.62 4.59 10.13 8.13 14.93 12.52H0zm416.02 67.51c11.77-10.14 18.82-24.47 23.98-38.86V360h-50.44c4.84-2.91 10.12-4.93 15.16-7.43 3.85-2.35 7.67-4.8 11.3-7.48z"/></svg>