<svg xmlns="http://www.w3.org/2000/svg" width="998pt" height="1280" viewBox="0 0 998 960"><path d="M461.25 37.01c2.88-.47 5.82-.59 8.75-.57 19.41.05 38.82.7 58.21 1.49 7.29.43 14.66.48 21.84 1.99 16.34 3.26 32.68 6.59 48.95 10.2 9.75 2.02 18.68 6.56 28.09 9.65 7.86 3.02 16.13 4.88 23.8 8.4 17.67 7.95 34.99 16.67 52.12 25.75 29.45 15.13 55.52 35.98 79.94 58.16 25.34 23.43 48.87 48.97 68.76 77.21 4.07 5.99 8.42 11.85 11.5 18.43 3 6.19 6.85 11.91 10.2 17.91 8.6 15.14 15.79 31 23.38 46.65 13.24 31.9 22.03 65.48 28.29 99.39 4.08 20.1 5.31 40.64 5.7 61.1.31 17.67.22 35.34-.62 53-.74 14.81-1.44 29.71-4.64 44.25-.88 6.96-2.89 13.67-5.72 20.07-.66 11.36-4.29 22.25-7.38 33.13-4.49 14.51-9.73 28.77-15.27 42.9-4.11 11.09-9.57 21.6-14.99 32.08-7.42 14.06-15.09 28.01-23.59 41.46-10.8 16.23-23.04 31.45-35.79 46.18-20.73 23.51-42.63 46.3-67.77 65.15-16.52 12.01-33.45 23.46-50.78 34.25-5.99 3.9-12.68 6.49-18.82 10.12-10.24 6.03-21.51 9.92-32.39 14.61-13.22 5.48-26.82 9.99-40.43 14.39-16.74 4.49-33.55 8.77-50.63 11.76-13.26 1.97-26.47 4.49-39.87 5.36-30.03 2.17-60.28 2.46-90.24-.83-8.94-.93-17.95-1.51-26.72-3.58-7.28-1.69-14.7-2.6-22.07-3.76-18.47-3.84-36.47-9.62-54.17-16.08-20.41-7.52-40.73-15.58-59.55-26.58-17.34-8.7-32.85-20.44-49.13-30.88-6.79-4.75-12.46-10.88-19.22-15.69-11.76-8.38-21.96-18.69-31.95-29.06a690.241 690.241 0 0 1-42.17-48.89c-10.13-13.09-20.17-26.37-27.94-41.04-9.15-17.09-17.63-34.55-25.77-52.15-6.19-13.11-11.5-26.62-15.79-40.47-7.28-23.34-13.78-47.04-16.93-71.33-2.91-21.6-4.19-43.39-4.31-65.18-.09-27.9 1.66-55.87 6.16-83.42 3.49-19.99 8.17-39.77 13.86-59.25 2.11-6.66 3.88-13.55 7.54-19.57 1.77-2.77 1.84-6.14 2.85-9.19 1.45-4.55 4.15-8.55 6.05-12.9 5.21-13.03 11.63-25.53 18.09-37.97 8.63-15.07 18.45-29.43 28.15-43.82 3.76-5.23 7.07-10.83 11.59-15.46 2.8-2.75 3.75-6.76 6.3-9.7 9.06-11.17 19.29-21.31 29.45-31.45 14.03-13.72 28.38-27.16 43.8-39.32 9.97-7.69 19.45-16.12 30.24-22.67 7.66-4.19 15.14-8.71 22.37-13.61 16.26-9.81 33.75-17.37 51.16-24.88 21.44-8.95 43.19-17.36 65.65-23.41 9.05-2.15 18.17-4.25 27.47-4.95 3.1-.32 5.95-1.72 8.99-2.37 14.95-3.13 30.33-2.82 45.4-5.01m-3.93 24.38c-1.7 2.49-1.78 5.66-2.23 8.55-1.3 11.65-.95 23.4-1.66 35.09-.38 5.82-.67 11.67-.01 17.48 8.06 1.77 16.36 1.64 24.57 1.8 7.21-.04 14.48.06 21.61-1.12 3.4-.19 4.7-4.4 3.68-7.18-1.41-1.99-4.1-2.1-6.28-2.49-9.22-1.03-18.58-.69-27.7-2.54-.44-3.79-1.62-7.93.16-11.54 1.72-2.94 5.47-3.36 8.54-3.52 6.51-.34 13.64 1.09 19.55-2.4 2.53-1.28 3.65-5.33.82-6.93-7.92-4.73-17.51-.75-25.97-3.08-3.08-.89-4.3-4.55-3.74-7.44.62-2.16 3.06-2.85 4.99-3.33 8.42-1.59 17.06-.71 25.55-1.67 1.57-.3 3.98-.46 4.28-2.46.31-2.39.52-6.2-2.56-6.81-6.18-1.45-12.62-1.09-18.93-1.42-8.21.05-16.57-.57-24.67 1.01m60.18-.52c-3.55 19.28-4.24 38.97-8.03 58.21 2.41 2.98 5.35 6.16 9.35 6.7 1.95-.24 3.46-1.83 4.62-3.31 3.94-5.76.93-13.57 4.77-19.35 2.37-3.18 6.85-2.28 10.15-1.4 3.08 1.04 7.12 1.99 8.24 5.48 1.81 6.37.29 13.9 4.8 19.33 3.13 4.02 10.45 1.47 10.73-3.53 1.02-8.05-.64-16.1-2.15-23.98.34-6.46 7.07-10.46 7.34-16.98.06-4.49-.61-9.35-3.36-13.05-3.17-3.78-8.38-4.53-12.93-5.46-11.05-1.91-22.3-3.57-33.53-2.66m-100.17 8.44c-6.27 6.47-10.36 14.77-16.99 20.95-3.05-5.43-3.31-11.79-5.18-17.61-3.65-1.67-8.25-.14-11.43 2.02-1.8 3.13-.74 6.95-.31 10.31 2.5 13.6 4.59 27.28 6.87 40.92.81 3.25 1.29 7.61 4.81 9.07 3.35.65 8.74-.12 9.05-4.4 1.26-8.14-.36-16.73 2.83-24.55 9.93 4.97 16.4 14.64 26.05 20.01 4.08 2.51 9.48.98 12.44-2.54 1.17-2.09-1.09-4.05-2.19-5.66-8.59-9.39-18.02-17.96-27.05-26.92 6.37-8.32 13.14-16.38 18.71-25.28-5.63-4.75-13.17-.73-17.61 3.68m174.05 4.29c-7.04 1.66-12.25 8.21-12.59 15.39-.86 4.71 2.1 8.87 5.35 11.91 6.22 5.79 13.46 10.43 19.32 16.62 1.33 1.56 3.24 3.73 2.05 5.89-1.92 3.08-5.91 5.08-9.47 3.73-5.49-1.8-11.62-5.03-13.26-11.03-1.39-4.41-6.34-6.83-10.71-6.9-3.02-.12-4.37 3.21-4.09 5.76.38 5.63 2.72 11.26 6.78 15.24 6.84 6.38 16 10.12 25.27 11 5.11.33 10.93.39 14.97-3.27 4.29-3.79 8.67-8.79 8.31-14.91-.25-5.72-1.4-12.4-6.46-15.87-5.34-3.99-10.75-7.88-15.97-12.02-2.12-1.84-4.5-3.73-5.42-6.48-.66-2.27 1.71-4.06 3.76-4.2 4.96-.49 10.01 1.43 13.83 4.56 2.85 2.13 2.35 6.58 5.43 8.48 3.01 1.97 6.79 3.69 10.44 2.72 3.02-1.7 2.2-5.77 1.26-8.48-2.91-7.39-8.7-14.15-16.5-16.47-7.14-2.29-14.93-3.64-22.3-1.67M324.84 93.73c-2.39 1.07-6.4.95-6.65 4.34-1.08 5.47 3.5 9.79 3.69 15.1 1.82 3.07 3.55 6.24 4.33 9.76 2.13 8.51 6.19 16.33 9.32 24.49 1.24 2.73 2.14 5.88 4.55 7.85 2.84 1.07 5.67-.84 8.25-1.86 2.42-1.17 6.2-2.93 4.88-6.29-1.94-6.04-5.46-11.4-8.17-17.1 5.02-3.37 10.72-8.57 17.23-6.15 6.56 3.01 8.85 10.52 12.3 16.29 5.16-.65 10.18-2.32 14.46-5.32-3.5-8.21-8.86-15.45-14.37-22.41-5.2-6.64-.3-15.73-4.24-22.84-2.3-4.48-7.66-6.15-12.39-6.02-11.82.27-22.35 6.17-33.19 10.16m-37.44 17.72c-14.7 3.57-25.85 18.25-24.87 33.43.44 10.44 6.71 19.63 14.37 26.3 5.73 5.02 13.5 8.01 21.17 6.89 8.01-1.13 15.74-4.79 21.64-10.34 6.78-6.65 7.43-16.84 7.19-25.77.1-9.14-5.21-17.23-11.18-23.69-6.99-7.72-18.64-9.09-28.32-6.82m404.08 7.37c-13.61 2.64-25.04 13.65-28.59 27-3 10.88-.18 23.36 7.77 31.49 5.8 5.94 14.09 8.77 22.23 9.39 4.37.18 9.22.88 13.1-1.65 6.07-3.77 11.12-9.04 15.33-14.79 9.53-13.04 8.06-32.84-3.24-44.36-6.83-6.82-17.36-8.76-26.6-7.08m-449.99 24.1c.56 11.71 8.83 21.35 9.85 32.92-2-.62-4.06-1.21-5.77-2.48-6.2-4.47-11.87-9.86-18.85-13.14-3.93-2.03-9.1-.71-11.62 2.89-1.34 2.32-.65 5.14.02 7.56 2.94 9.25 8.31 17.53 10.98 26.88-9.78-4.36-17.62-12.06-27.34-16.45-5.21-2.59-10.36 2.24-12.13 6.85 1.29 2.73 3.85 4.51 6.19 6.3 11.65 8.44 23.72 16.29 35.87 23.99 3.57 2.07 7.09 4.7 11.31 5.18 2.89-.2 5.44-2.06 7.31-4.17 1.93-2.22 1.09-5.37.29-7.87-3.63-10.09-9.86-19.11-12.68-29.52 8.61 4.9 15.62 12.01 23.69 17.67 2.36 1.55 5.23 3.29 8.14 2.23 2.94-1.06 5.79-3.07 7.12-5.97-.08-3.19-1.25-6.21-2.21-9.21-5.04-14.6-11.15-28.8-17.5-42.87-1.41-2.77-2.96-6.09-6.15-7.1-3.45-.54-6.72 2.92-6.52 6.31m184.59 11.78c-8.08 1.53-16.29 2.63-24.1 5.34-4.17 1.61-8.75 1.35-12.95 2.82-11.85 3.97-23.54 8.4-35.14 13.07-14.58 5.63-28.33 13.14-41.69 21.19-6.04 3.64-11.78 7.79-18.07 11.02-2.57 1.28-4.91 2.98-7.11 4.83-18.28 15.64-37.86 30.1-53.12 48.9-17.35 19.84-32.81 41.39-45.39 64.57-15.25 27.88-26.12 58.05-33.24 89-1.81 8.21-4.05 16.37-4.68 24.8-2.01 22.18-3.07 44.49-2.54 66.77.57 23.62 4.04 47.16 10.16 69.98 8.68 33.25 21.23 65.8 40.2 94.61 10.89 16.6 21.64 33.57 35.91 47.55 9.37-13.95 21.6-25.57 33.69-37.11 10.77-9.96 21.55-20 33.42-28.67 6.16-3.72 11.55-8.59 17.96-11.9 28.82-16.02 57.86-33.31 90.59-39.83 11.49-2.93 22.98-5.88 34.56-8.44 16.97-2.87 34.23-3.41 51.4-3.54 17.77.1 35.6.75 53.21 3.27 10.13 1.37 19.92 4.43 29.66 7.43 17.7 5.7 35.16 12.16 52.24 19.52 7.48 3.27 15.02 6.58 21.74 11.29 2.39 1.81 5.47 2.39 7.97 3.91 1.86 4.2 6.91 4.33 10.21 6.91 12.46 8.3 23.89 18.03 35.18 27.85 9.96 8.69 19.42 17.93 28.59 27.44 3.09 2.83 6.01 6.48 10.33 7.33 3.25-2.27 5.37-5.73 7.71-8.84 13.96-20 25.9-41.34 36.81-63.13 2.69-5.49 5.78-10.87 7.18-16.88 3.37-10.52 7.92-20.64 10.87-31.3 3.04-10.3 4.18-21.05 7.2-31.35 1.23-5.29 1.37-10.76 2.18-16.12 3.15-22.83 3.37-45.95 2.43-68.94-.97-19.04-2.39-38.28-8.01-56.6-2.63-12.08-6.96-23.68-10.52-35.5-6.35-19.92-15.36-38.92-25.89-56.95-15.83-26.9-35.11-51.77-57.05-73.96-13.69-13.07-27.76-25.87-43.05-37.05-12.39-6.3-23.34-15.08-35.9-21.11-16.87-8.26-33.83-16.59-51.79-22.26-16.65-5.44-33.91-8.64-50.91-12.69-18.02-1.95-36.2-1.43-54.29-1.35-18.69.47-37.6.11-55.96 4.12m286.12 33.51c-2.63 3.29-5.82 6.55-6.65 10.84.54 5.04 6.94 8.91 11.53 6.04 6.3-3.51 10.05-10.05 15.69-14.41 6.95 4.08 12.42 10.48 19.92 13.62 3.23 1.71 8.04-.43 8.06-4.21-3.06-8.22-11.61-12.47-16.13-19.68-2.28-3.76 2.33-11.07 6.73-7.78 7.69 4.88 13.1 12.68 21 17.26 4.61 2.87 11.98-4.49 7.41-8.65-10.07-11-21.32-20.95-33.13-30.06-11.44 12.38-23.33 24.34-34.43 37.03m96.24 34.19c-1.63.93-3.58 2.51-3.15 4.63.98 4.71 5.72 7.93 5.8 12.92-.41 4.1-4.08 6.72-7.05 9.09-10.07 7.19-20.52 14.05-29.37 22.74-2.83 2.66-.36 6.6 1.99 8.6 3.19 2.86 7.79 1.2 11.1-.56 9.9-5.44 18.01-13.5 27.41-19.69 2.98-1.64 7.71-5.41 10.58-1.92 1.74 2.48 3.02 5.66 6.06 6.86 3.2 1.65 8.25.71 9.39-3.05-.41-3.37-2.59-6.14-4.31-8.94-4.71-6.89-9.16-14-14.7-20.27-2.64-3.05-4.4-6.82-7.41-9.56-1.68-1.58-4.34-2.19-6.34-.85m-681.31 37.81c-2.21 2.79-2.23 6.59-2.82 9.95 16.24 10.81 32.6 21.49 49.45 31.32 7.22-6.56 12.4-14.94 17.66-23.07 2.47-4.25 5.61-8.45 6.22-13.46-.34-3.56-4.81-7.26-8.17-4.61-6.68 4.92-8.76 13.8-15.09 19.05-2.99 2.28-6.81.44-9.68-1.09-9.84-5.71-18.82-12.9-29.13-17.79-2.57-1.02-6.12-2.66-8.44-.3m670.12 35.99c-2.17 1.39-5.76 2.6-5.18 5.84.48 3.79 2.84 8.37 6.97 8.94 8.04-1.2 14.57-6.65 22.27-8.97 3.77 4.03 6.69 8.81 8.67 13.96.81 2.14 1.37 4.83-.24 6.77-4.73 5.57-13.09 6.62-17.21 12.85-1.83 2.43-1.45 6.07.99 7.95 2.78 2.71 6.93 1.29 10.03-.01 7.21-3.27 14.1-7.2 21.16-10.78 7.72-4.22 15.79-7.94 22.96-13.09 2.05-1.42 4.79-4.3 2.35-6.67-2.45-2.65-5.79-6.72-9.82-4.79-5.67 2.3-10.99 5.58-17.11 6.62-3.35-4.89-6.16-10.17-8.17-15.75-.19-1.13-1.19-2.5-.4-3.56 4.96-6.4 14.16-7.92 18.82-14.52-.13-4.06-4.12-6.54-6.99-8.84-16.77 7.16-33.04 15.44-49.1 24.05m-691.99 5.65c-2.47 4.85-5.02 9.66-7.65 14.44 9.98 9.43 19.82 19 29.88 28.34 6.31 5.7 12.5 11.59 19.58 16.35 4.91-2.98 5.06-9.8 2.16-14.24-1.87-3.3-5.64-6.51-4.04-10.7 1.67-4.91 3.32-10.14 6.85-14.05 3.74-3.67 9.36-.14 13.62-2.12 2.91-2.66 4.01-6.93 4.12-10.76-.11-2.84-3.24-3.79-5.6-3.84-19.62-1.37-39.27-2.32-58.92-3.42m757.49 35.73c-12.29 3.55-24.38 7.84-36.04 13.11-2.58 1.31-5.47 2.36-7.37 4.63.42 9.88 5 18.95 7.74 28.33 1.62 5.77 3.47 12.11 8.3 16.05 3.18.55 6.54-1.59 8.6-3.91-.32-4.9-4.92-8.68-4.07-13.77-2.79-5.12-5.28-11.05-4.15-16.96 2.31-3.82 7.33-4.88 11.38-5.99 3.08 2.43 4.34 6.41 5.87 9.89 2.11 4.92 1.91 10.65 4.78 15.27 2.27 3.78 9.83 1.41 8.89-3.18-1.03-7.84-4.82-15.12-5.31-23.07-.3-2.52.96-5.55 3.68-6.09 3.92-.57 7.84 2.44 8.8 6.21 1.45 5.53 4.21 10.59 5.89 16.04 1.04 2.78 1.72 6 4.12 7.99 2.45 1.65 5.63-.69 6.15-3.26 1.13-4.44-.1-9.07-1.5-13.31-2.95-7.68-6-15.39-7.57-23.5-.69-2.43-1.06-6.03-4.06-6.62-4.81-.69-9.53.99-14.13 2.14M86.25 352.3c-3.02 1.63-3.69 5.52-4.05 8.64-.12 3.29 3.45 4.69 5.82 6.09 3.81 2.35 8.5 1.66 12.54 3.37 10.31 4.03 21.22 6.17 31.81 9.32 3.08.56 7.22 2.38 9.64-.55 2.08-2.45 4.9-6.34 2.36-9.41-3.73-3.86-9.21-5.17-14.11-6.91-11.72-3.42-23.54-6.52-35.29-9.88-2.81-.65-5.88-1.81-8.72-.67m-12.9 44.85c-2.48 6.91-3.32 14.27-4.45 21.5-.47 4.29-1.23 8.7-.36 13 .46 2.52 3.59 1.86 5.43 2.41 17.19 2.09 33.73 7.99 51.06 9.16 2.34.21 5.51-.08 6.06-2.9.96-3.45 2.51-8.87-1.66-10.79-6.22-2.52-13.22-2.06-19.46-4.52-1.68-.54-2.9-2.2-2.35-3.99.79-5.22 2.76-11.03 7.59-13.82 6.55-3.48 14.57.81 21.03-3.02 2.41-1.28 2.97-4.31 2.27-6.75-.61-2.22-.93-5.59-3.87-5.71-9.36-1.34-19.19-1.34-28.21 1.86-4.1-6.39-11.88-10.33-19.45-9.7-6.95.82-11.44 7.15-13.63 13.27m776.91 54.08c-3.55 1.49-8.06 2.38-10.09 5.97-1.17 4.14-.66 9.69 3.11 12.36 4.95.85 9.97 1.33 14.9 2.44 5.83 1.35 12.15 1.63 17.26 5.1-1.61 1.23-3.21 2.57-5.18 3.16-8.4 2.7-17.42 3.04-25.66 6.27-4.32 1.48-4.84 6.66-4.74 10.55.12 2.94 3.1 4.42 5.42 5.53 12.43 5.23 25.91 7.51 38.29 12.88 5.47 2.95 11.96 4.25 18.1 3.23 1.92-2.02 1.29-5.23 1.2-7.77-.2-3.41-3.42-5.32-6.24-6.46-7.53-3.01-15.54-4.47-23.23-6.97-1.75-.67-3.91-1.22-4.63-3.18 9.36-4.8 20.4-3.91 30.21-7.28 4.98-1.66 5.45-7.7 5.01-12.11-.01-2.78-2.72-4.19-4.99-4.93-9.74-3.22-20.2-4.33-29.45-8.97 9.65-5.59 21.28-5.81 31.44-10.14 1.95-.92 3.78-2.65 3.89-4.94.3-3.89-1.75-7.36-3.81-10.46-17.06 4.83-33.99 10.12-50.81 15.72m-781.99-8c-2.54 1.64-2.66 5.06-3.16 7.75-1.36 12-1.3 24.12-2.55 36.14-.14 2.74-.82 5.88.94 8.28 2.68 3.82 9.89 2.29 10.41-2.47.89-4.03-.67-9.85 3.81-12.11 6.48-2.29 13.53-1.13 20.26-1.1 9.54.13 19.17 1.05 28.66-.08 2.23-3.03 2.33-7.08 2.13-10.68-.26-1.27-.31-3.33-2.1-3.11-13.52-1.21-27.15-1-40.66-2.37-2.87-.45-6.44-.81-8.07-3.57-2.04-4.81-1.08-10.48-3.7-15.1-1.11-2.1-3.96-2.44-5.97-1.58m33.09 57.43c-3.77 1.63-6.03 5.41-7.76 8.96-3.5 7.28-3.49 15.53-4.94 23.33-.6 3.39-3.41 6.34-6.8 6.99-2.69.38-4.66-2.05-5.5-4.3-1.89-5.09-1.35-11.55 2.72-15.45 1.99-1.99 3.72-4.42 3.8-7.33.37-2.82-.54-6.67-3.88-7.1-4.3-.59-8.09 2.43-10.6 5.62-4.72 6.1-5.12 14.31-4.41 21.69.81 6.57 2.58 13.71 7.79 18.23 7.08 5.92 18.96 5.85 25.22-1.26 2.22-2.57 4.75-5.36 5-8.92.74-7.52 1.09-15.48 4.93-22.2 1.21-2.32 4.18-4.21 6.67-2.54 6.21 3.63 7.55 12.33 4.15 18.34-1.93 4-5.86 6.53-7.95 10.41-1.09 2.25.62 4.5 1.83 6.31 1.2 1.64 3.02 3.78 5.3 2.62 5.02-1.67 10.39-4.36 12.69-9.42 3.81-9.04 3.11-19.32.09-28.48-1.75-5.22-3.91-11.2-9.34-13.58-5.85-2.69-12.75-3.66-19.01-1.92m756.11 18.18c-5.19.95-10.22 3-14.39 6.27-12.11 9.27-14.67 27.82-6.74 40.58 7.57 13.02 23.92 18.98 38.41 16.62 8.17-1.25 16.45-5.64 20.21-13.31 4.05-8.56 5.47-18.64 2.7-27.8-2.4-8.14-8.27-15.12-15.75-19.07-7.46-3.85-16.23-4.71-24.44-3.29M87.05 571.01c-3.31 1.22-7.06.98-10.16 2.85-3.05 1.64-7.23 3.9-6.8 7.99.86 3.38 3.54 6.62 6.94 7.62 1.8-.59 3.41-1.61 5.06-2.51 13.02-.75 24.81-8.19 37.97-8.14 5.97-.13 9.37 6.04 10.15 11.21-.62 5.81-5.63 10.55-11.1 12.13-10.28 2.97-20.61 5.79-30.78 9.13-2.41 1.05-5.81 1.76-6.58 4.66.06 3.1.62 6.35 2.26 9.04 1.45 2.41 4.52 1.18 6.61.5 6.44-2.5 13.42-2.97 19.97-5.14 9.13-2.89 18.33-6.13 26.38-11.41 5.22-3.4 5.91-10.31 5.83-15.99-.4-9.15-2.93-18.71-9.05-25.75-4.62-5.16-12.16-5.56-18.55-4.52-9.67 1.61-19.16 4.42-28.15 8.33m741.51 9.61c-2.54 3.81-3.31 10.12.17 13.61 5.38 1.97 12.02 1.39 16.38 5.8 3.18 3 2.32 7.94.36 11.38-1.65 2.88-3.7 6.48-7.4 6.71-7.05.46-14.07-1.9-21.09-.44-.55 2.7-1.47 5.36-1.7 8.12.8 2.99 4.1 4.23 6.74 5.18 7.21 2.49 14.98 1.3 22.36 2.82 3.69.61 6.18 3.56 8.79 5.96 7.56 7.25 22.09 3.91 25.77-5.89 3.81-9.35 4.78-19.64 9.12-28.8.67-1.85 1.92-3.69 1.68-5.72-1.08-2.07-3.75-2.45-5.69-3.35-14.26-4.88-28.45-10.1-43.06-13.84-4.08-.73-8.28-2.51-12.43-1.54m-338.29 15.56c-10.38 1.6-20.89 1.82-31.31 2.99-11.44 1.08-22.53 4.3-33.93 5.73-5.13.57-10.03 2.16-14.72 4.28-11.37 3.42-23.6 4.75-33.87 11.11-9.52 2.1-18 7.06-26.51 11.61-15.66 8.72-31.01 18.05-45.69 28.35-10.52 7.27-19.64 16.31-28.61 25.37-12.54 12.85-24.55 26.24-35.75 40.29-8.6 10.71-15.66 22.53-22.49 34.41-8.55 15.29-16.51 30.97-22.71 47.37-2.23 6.41-4.87 13.02-4.13 19.95 3.08-3.53 2.88-8.69 5.47-12.55 4.66 2.48 8.9 5.65 13.08 8.86 11.8 9.23 23.57 18.5 35.89 27.02 4.13 3.09 8.8 5.91 11.58 10.38.51 3.72-.2 7.81 2.59 10.88.54-3.06.97-6.15 2.07-9.06 19.13 7.91 36.82 18.99 56.22 26.32 2.62 1.15 5.79 2.12 7.23 4.82 1.38 4.31-.27 10.4 4.64 12.87.38-3.31-1.71-9.01 2.74-10.27 7.11-.94 13.28 3.42 19.91 5.1 13.11 3.44 26.13 7.25 39.27 10.57 7.07 1.79 14.93.91 21.4 4.77 2.63 1.39 2.44 4.64 2.89 7.17 4.57 1.29 2.55-5.92 6.44-5.85 6.69-.64 13.41.25 20.09.63 11.95 1.07 23.94 1.67 35.94 1.93 5.1.36 10.5.19 15.24 2.38 3.15 1.54 1.04 5.49 1.24 8.15 2-2.6 3.18-5.68 4.8-8.49 1.57-2.67 4.84-3.29 7.69-3.35 19.59-.99 38.91-4.55 58.33-7.02 2.19 3.93 1.93 8.78 4.72 12.43 1.43-3.58 1.45-7.62 3.26-11.03 3.11-4.9 9.32-5.81 14.55-6.83 22.89-5.25 44.78-13.91 66.64-22.33.59 4.43.58 8.93 1.49 13.33 2.81-4.13 2.82-9.29 4.83-13.73 2.77-5.37 9.04-7.07 13.89-9.97 13.82-7.68 28.11-14.74 40.79-24.24 4.94-1.06 7.17 4.46 9.05 7.96.83-5.11-1.33-12.75 4.43-15.5 3.82-2.01 7.39-4.47 10.57-7.38 10.68-9.76 22.05-18.71 32.88-28.29 2.9-2.5 5.37-5.59 8.75-7.49 1.64-1.16 3.62-.12 4.81 1.18 3.27 3.28 1.26 9.11 5.42 11.85.5-6.1-1.84-11.88-3.69-17.56-4.52-13.35-11.11-25.85-17.65-38.29-4.19-7.64-8.15-15.52-13.83-22.2-7.92-10.36-15.07-21.34-24.05-30.87-11.2-12.47-22.81-24.59-35.04-36.05-3.3-3.1-6.73-6.17-10.89-8.08-4.98-2.44-8.27-7.22-13.15-9.8-7.98-3.79-14.83-9.48-22.7-13.47-16.18-8.69-32.92-16.43-50.29-22.41-4.93-1.93-10.45-1.59-15.21-3.98-8.7-4.16-18.35-5.72-27.85-6.72-4.7-.5-9.15-2.14-13.77-3-14.04-2.46-28.32-2.89-42.49-4.26-3.49-.3-7.02-.5-10.5.01M110.6 630.65c-7.22 5.35-13.67 12.92-14.52 22.21-1.42 6.91 1.82 13.44 4.56 19.57 2.53 5.32 4.69 10.91 8.25 15.67 1.33 1.84 3.45 3.61 5.86 2.57 10.36-3.17 19.98-8.36 29.63-13.2 8.24-4.49 16.75-8.69 23.99-14.71-1.7-7.53-5.38-14.38-8.94-21.16-2.53-4.38-4.84-9.04-8.44-12.66-4.2-3.55-9.72-5.05-15.02-6.01-9.14-1.66-18.13 2.49-25.37 7.72m702.58 4.47c-2.72 2.44-4.42 5.75-6.18 8.88-3.87 7.31-7.3 14.85-10.61 22.42-1.03 2.68-2.45 5.44-2.13 8.39 1.3 3.24 6.24 5.41 8.84 2.3 5.72-6.13 7.43-14.86 12.78-21.27 1.53-1.88 4.19-.44 6.11-.01 12.22 5.04 23.54 12.29 36.19 16.3 5.1 2.21 11.04-4.56 7.8-9.2-3.92-5.5-10.28-8.47-15.99-11.72-8.77-4.57-17.5-9.45-27.05-12.23-2.3-.51-3.81-2.33-4.93-4.26-1.62-.13-3.56-1.04-4.83.4m-692.84 71.79c2.05 3.53 3.45 7.54 6.19 10.62.37.13 1.1.4 1.46.53 4.92-.91 9.53-3.52 12.87-7.24 1.97-2.29 5.14-2.74 7.5-4.46 2.71-1.93 5.14-4.26 8.09-5.84-.05 2.67-.36 5.36-1.3 7.89-3.28 9.38-7.66 18.34-10.92 27.73-.89 2.86-1.95 6.57.58 8.93 2.33 2.27 4.91 4.69 8.17 5.44 4.72-.34 8.43-3.77 12.25-6.23 10.7-7.64 21.11-15.67 31.81-23.31 2.2-1.73 4.79-3.43 5.72-6.21.67-2.59-1.32-4.83-3.03-6.49-1.65-1.6-4.04-3.4-6.38-2.01-5.86 2.89-10.97 7.07-16.34 10.75-4.17 2.79-8 7.5-13.58 6.56 3.44-10.13 8.43-19.64 12.69-29.43 1.59-3.93 3.82-7.81 3.95-12.14-.81-4.46-4.23-7.8-7.24-10.93-18.06 11.09-34.98 23.92-52.49 35.84m668.17-26.48c-2.97 2.03-5.09 5.01-7.24 7.83-4.44 6.11-8.65 12.45-11.73 19.36-2.09 5.11-3.48 10.99-1.58 16.37 2.85 7.97 8.17 15.15 15.29 19.79 9.6 6.32 22.32 7.41 32.97 3.24 6.38-3.5 9.19-10.75 13.77-16.07 3-4.47 8.42-8.07 8.41-13.94-.35-4.87-5.04-7.38-8.59-9.84-4.71-2.94-8.35-7.37-13.45-9.68-3.92-1.83-6.88-5.08-10.37-7.54-4.52-3.27-9.07-6.57-14.1-9.01-1.06-.27-2.39-1.45-3.38-.51m-587.28 50.78c-7.45 6.55-14.59 13.45-22.04 20.01-5.43 4.96-11.2 9.64-15.74 15.48 1.84 2.69 3.56 5.65 6.33 7.53 2.61 1.61 5.58-.23 7.84-1.62 6.49-4.36 12.18-9.76 18.13-14.81 6.89-6.13 14.05-11.99 20.47-18.62 1.4-1.72 3.53-3.67 2.98-6.08-1.48-2.94-4.07-5.51-7.21-6.58-4.17-.8-7.7 2.31-10.76 4.69z"/><path d="M534.34 73.55c5.54-1.25 11.75.28 16.1 3.94 3.66 2.92 2.06 9.27-2.12 10.82-4.57 1.69-9.6.56-14.16-.58-2.63-.69-5.96-2.45-5.48-5.68.65-3.31 2.09-7.41 5.66-8.5zM348.39 96.48c6.51-3.36 12.58 6.81 7.83 11.62-4.03 4.29-10.39 6.35-16.16 6.07-1.74-3.42-3.28-7.6-2.33-11.42 2.58-3.33 6.87-4.76 10.66-6.27zm-58.95 27.29c4.89-1.48 10.34.3 13.79 3.97 4.6 4.78 8.43 10.62 9.72 17.22.93 4.48.13 9.53-3.02 13-4.82 5.28-13.21 6.83-19.58 3.59-8.77-4.37-14.04-14.88-12.24-24.52 1.12-5.95 5.38-11.54 11.33-13.26zm405.9 8.75c6.18-2.01 13.59.61 16.63 6.47 4.16 7.51 1.32 16.85-3.82 23.13-4.1 4.94-9.4 10.01-16.19 10.28-8.77-.1-16.29-8.66-15.38-17.39 1-10.29 9.11-19.28 18.76-22.49zM457.77 236.58c.38-2.65 3.42-2.57 5.48-2.9 9.64-.75 19.4-1.1 29.02.15 2.11 23.34 2.65 46.79 3.71 70.2.6 17.65 1.5 35.31 1.47 52.98-.2 2.96.09 6.26-1.55 8.88-2.4 2.13-5.88 2.13-8.89 2.51-8.55.46-17.23.66-25.67-.99-1.43-9.39-1.67-18.9-1.98-28.38-.63-28.35-1.58-56.69-2.31-85.03.05-5.8-.5-11.71.72-17.42zm150.64 15.63c.7-1.6 1.09-4.28 3.34-4.19 2.43 3.06 3.24 6.99 4.38 10.64 2.28 8.01 5.37 15.76 8.86 23.32 8.99-.38 17.98-.92 26.98-1.16 3.21-.12 6.41.36 9.51 1.17-1.96 4.67-6.49 7.28-10.33 10.22-5.53 4.11-11.44 7.79-16.34 12.67-1.74 1.19-.89 3.36-.66 5.06 2.47 11.5 7.84 22.22 9.45 33.92-5.9-1.57-10.21-6.08-15.18-9.33-4.65-3.11-9.08-6.83-14.48-8.56-4.14-1.17-7.59 2.15-10.75 4.28-5.91 4.06-10.72 9.7-17.26 12.79-1.28.4-3.27 1.38-4.22-.06.42-3.35 1.69-6.49 2.65-9.7 2.62-8.56 5.14-17.15 7.49-25.78-9.1-7.83-20.13-13.44-27.91-22.76 10.44-2.95 21.43-.95 32.1-1.93 1.76-.03 2.78-1.67 3.63-2.98 4.98-8.45 5.93-18.4 8.74-27.62zm-271.47 10.63c.59-2.05 1.81-3.81 2.99-5.54 7.68 8.02 8.02 20.01 13.42 29.34 1.36 2.38 3.93 3.91 6.66 4.08 9.73.81 19.59-2.43 29.22.07-5.32 6.85-12.69 11.61-19.08 17.36-3.08 2.72-5.62 6.6-4.95 10.9 1.13 8.72 5.81 16.47 7.67 25 .23 1.6.85 4.86-1.85 4.03-9.53-3.48-16.51-11.82-26.14-15.18-10.14 4.5-17.65 13.24-27.23 18.7-1.51.77-3.15 1.22-4.76 1.71.92-3.8 2.89-7.31 3.17-11.27 1-7.89 4.74-15.18 5.45-23.12.47-2.39-1.57-3.94-3.2-5.25-6-4.71-12.08-9.35-18.5-13.49-2.38-1.61-4.97-3.1-6.71-5.45-.17-2.13 2.34-2.13 3.82-2.5 9.62-1.06 19.35.11 28.99-.72 3.43-.27 4.95-3.89 5.83-6.73 1.93-7.27 3.14-14.71 5.2-21.94zm-217.23 52.98c5.3.95 10.67 1.47 15.98 2.32 3.99 2.46 1.48 10.74-3.62 9.58-5.89-1.25-10.22-6.52-12.36-11.9zm-32.38 83.31c2.3-.92 5.03-.97 7.27.15 2.14 1.06 2.8 3.57 3.31 5.7 1.08 4.78.67 10.4-2.77 14.17-3.36 3.81-9.79 3.27-13.36.1-1.46-3.5.02-7.44.57-11.02.9-3.29 1.23-7.76 4.98-9.1zm686.71 17.86c7.33-.32 14.66-1.08 22.01-.78 1.82.2 4.06.14 5.31 1.76-.3 5.49-3.02 10.51-4.65 15.69-14.96 39.57-30.79 78.84-48.32 117.35-7.79.28-15.56.74-23.35.8-3.73-.09-7.69-.11-11.05-1.97-3.18-1.88-4.68-5.46-6.13-8.68-7.23-16.99-14.68-33.95-24.24-49.79-1.16-1.84-2.32-3.74-3.96-5.2-2.37-.72-2.33 2.36-2.75 3.87-.37 3.61-2.61 6.55-4.05 9.77-2.78 6.16-4.42 12.75-6.76 19.08-4.34 11.07-8.36 22.27-12.5 33.43-8.54.69-17.07 1.83-25.64 2.06-4.59.17-9.58-.95-12.58-4.7-4.42-5.32-7-11.84-9.99-18-5.64-11.96-11.26-23.93-17.26-35.72-5.38-9.73-8.41-20.49-12.24-30.87-1.24-2.48-3.85-3.96-5.05-6.44-2.67-10.36-8.19-19.67-11.71-29.73-.47-1.61-1.23-4.04.64-5.07 3.11-1.69 6.81-1.51 10.24-1.87 8.4-.38 16.98-1.32 25.26.6 2.74.75 6.08 1.99 6.92 5.04.82 2.83 1.37 5.77 2.71 8.44 8.38 16.72 14.4 34.49 22.56 51.31 1.9 3.97 4.03 7.84 6.65 11.38 3.53-3.36 3.88-8.5 5.92-12.71 3.62-7.8 5.51-16.22 8.55-24.23 4.97-13.66 9.8-27.4 15.62-40.72 7.08-2.06 14.53-2.04 21.83-1.79 2.67.26 5.59.21 7.96 1.65 1.82 2.36 2.86 5.21 4.16 7.88 9.05 20.08 17.16 40.57 26.37 60.58 1.42 3.2 3.26 6.21 5.61 8.82 3.75-4.39 5.73-9.89 8.02-15.1 3.69-9.08 7.12-18.26 10.81-27.33 2.11-4.88 2.18-10.39 4.7-15.11 2.35-4.59 4.36-9.34 5.95-14.25 1.13-3.11 2.39-6.71 5.59-8.23 2.8-1.09 5.88-.96 8.84-1.22zm-404.72 14.24c2.09-3.14 6.33-2.51 9.58-2.97 8.43-.32 17-.99 25.37.34 3.78.32 1.82 4.37 1.13 6.62-11.81 31.97-25.86 63.07-38.42 94.75-3.25 8.96-6.67 17.87-10.26 26.7-2.15 5.42-8.28 7.4-13.66 7.42-7.15.04-14.46 0-21.42-1.81-6.22-1.75-8.98-8.2-11.17-13.66a284.444 284.444 0 0 0-19.32-41.83c-1.76-3.18-3.83-6.19-6.21-8.93-3.36 3.63-4.38 8.54-6.11 13.02-7.47 18.28-13.16 37.22-19.62 55.87-13.02-.31-26.05-.63-39.07-.89-6.51-16.25-14.27-31.96-20.83-48.18-5.86-14.18-12.9-27.82-19.22-41.78-2.11-4.25-2.48-9.12-4.75-13.3-4.43-8.43-9.37-16.84-11.37-26.26 13.08-2.04 26.37-1.72 39.56-2.35 8.8 19.07 17.29 38.29 26.07 57.38 2.99 6.47 5.57 13.28 10.18 18.84 3.41-5.14 5.53-10.97 7.82-16.66 5.25-13.46 9.91-27.15 14.22-40.94 1.83-5.65 3.49-11.38 6.02-16.75.63-2.21 3.19-2.28 5.04-2.68 8.49-1.33 17.08-1.78 25.64-2.5 11.44 23.5 20.27 48.22 32.53 71.32-1.23 2.72 1.05 5.33 3.37 6.47 1.93.68 3.28-1.44 4.25-2.77 3.09-4.97 4.97-10.55 7.12-15.97 5.52-14.52 10.35-29.3 16.2-43.7 2.16-5.06 4.1-10.3 7.33-14.8zm106.34 38.41c1.83-6.29 2.59-13.09 6.41-18.6 5.83 8.73 7.63 19.36 12.41 28.61 1.54 3.23 4.8 5.44 8.42 5.47 10.12.52 20.36-1.58 30.41.48-3.99 6.75-10.61 11.32-16.82 15.85-3.79 2.68-9.1 5.28-9.22 10.61.08 7.83 4.72 14.56 6.65 21.97 1.42 4.42 1.55 9.09 1.49 13.7-5.02-4.44-9.26-10.09-15.66-12.63-5.43-2.39-9.99-8.6-16.57-6.74-9.34 3.02-14.73 12.4-23.73 16.05-1.66.85-3.78-.37-3.57-2.32.39-9.47 5.34-17.95 7.4-27.05.55-2.28-.96-4.31-2.5-5.8-8.11-7.51-18.42-12.39-25.91-20.61 10.69-2.08 21.63-1.71 32.45-2.42 1.17-.25 2.91.05 3.5-1.31 2.46-4.77 3.35-10.15 4.84-15.26zm383.7 63.65c12.59-2.75 26.97 6.53 27.87 19.73-1.25 4.51-3.78 8.82-7.2 12.03-4.77 3.04-10.8 1.75-16.14 1.83-6.49.19-12.33-3.69-16.16-8.67-3.75-4.57-3.94-11.24-2.18-16.64 3.1-4.54 8.6-7.02 13.81-8.28zm1.01 73.07c3.1-1.01 6.64-.63 9.62.65 2.92 1.27 3.32 4.87 2.74 7.64-.93 4.58-2.9 9.51-7.07 12.03-4.39 2.62-10.8-1.51-9.89-6.66.69-4.59.04-10.97 4.6-13.66zm-276.22 34.37c7.14-6.06 13.62-13.07 21.9-17.63 14.38 5.66 28.29 12.51 41.78 20.05 3.47 2.23 7.58 4.16 9.57 7.98-.98 3.65-3.76 6.42-6.11 9.25-5.07 5.57-10.37 10.99-16.43 15.49-1.6.91-3.49 2.75-5.4 1.6-1.5-.69-2.77-1.76-3.98-2.83-13.01-12.21-27.6-22.55-41.33-33.91zm-222.42-7.06c2.15-.85 4.5-2.18 6.85-1.21 6.22 2.16 11.81 5.89 16.94 9.97 1.53 1.45 4.25 3.44 2.73 5.82-15.44 11.7-29.02 25.63-43.21 38.77-10.61-7.48-21.32-15.42-28.79-26.21 4.84-4.9 10.89-8.3 16.72-11.86 9.38-5.47 18.85-10.84 28.76-15.28zm-234.48 5.52c4.91-2.82 10.99-1.69 15.67 1.03 3.75 2.71 6.06 7.06 7.29 11.44.29 1.65 1.06 3.76-.38 5.11-3.25 3.51-8.05 4.74-12.16 6.9-3.05 1.49-5.42 4.08-8.6 5.34-4.58 1.92-9.38 3.27-14.22 4.37-3.07-5.78-7.91-12.1-5.36-19 3.09-7.57 10.83-11.69 17.76-15.19zm440.99 10.03c3.14-1.56 6.26-3.36 9.75-4.02 4.48 1.27 8.15 4.37 12.01 6.88 12.84 8.87 24.26 19.53 35.65 30.15-7.96 7.14-16.49 13.93-26.49 17.98-1.62.57-3.33 1.23-5.08 1.02-2.33-.93-4.06-2.9-5.43-4.94-6.51-12.24-16.29-22.27-25.29-32.68-1.7-2.26-3.83-4.49-4.32-7.37 2.19-3.3 5.83-5.16 9.2-7.02zm-178.09 5c2.23-1.48 4.65-3.71 7.55-2.81 6.27 1.39 12.29 4 17.54 7.72-7.12 12.29-16.16 23.33-24.05 35.11-2.83 3.81-5.15 8.06-8.53 11.43-2.21 2.41-5.57.86-8.08-.13-7.12-3.12-14.41-6.59-19.83-12.34-1.09-1.36-2.82-3.14-1.74-4.99 2.04-4.12 5.5-7.27 8.79-10.39 9.06-8.32 18.5-16.24 28.35-23.6zm270.14 4.94c2.58-2.04 5.94-5.17 9.39-3.09 3.51 1.37 4.65 5.65 8.21 6.92 5.87 2.87 10.72 7.35 15.83 11.34 5.48 4.8 11.49 9.22 15.86 15.1 2.83 3.91-1.02 7.76-3.59 10.5-9.73 10.01-19.5 20.15-30.74 28.5-5.82-4.42-9.87-10.57-14.59-16.03-7.66-9.39-15.78-18.4-23.58-27.66-1.85-1.99.66-4.27 1.92-5.77 6.86-6.85 14.01-13.41 21.29-19.81zm-132.25 7.02c7.67-2.81 15.57-4.92 23.37-7.31 11.37 9.93 20.59 22 29.87 33.83 2.66 3.86 6.31 7.45 7.07 12.26-1.57 3-5.18 3.93-7.99 5.42-11.8 5.09-23.68 10.62-36.44 12.76-2.96.87-4.46-2.36-5.57-4.46-4.6-10.1-8.09-20.65-12.07-31-1.75-5.14-4.44-10.17-4.51-15.7.21-3.29 3.65-4.73 6.27-5.8zm-105.74-3.12c1.23-1.07 2.9.09 4.25.33 5.88 1.8 10.99 6.55 17.51 5.68 3.41.18 8.25-.57 10.15 3.06 1.06 3.67-.28 7.49-1.14 11.08-3.74 12.51-7.94 24.88-11.63 37.41-.74 2.15-1.48 4.84-3.87 5.7-3.13.92-6.43.03-9.54-.55-9.48-2.23-18.68-5.47-27.82-8.8-3.52-1.42-7.27-2.57-10.31-4.93-2.08-1.13-.66-3.59-.08-5.21 5.06-10.99 12.39-20.72 19.74-30.25 4.01-4.69 7.75-9.8 12.74-13.52zM263.59 703.4c15.26-13.08 29.98-26.85 46.18-38.79 7.94 6.22 15.08 13.38 22.98 19.67 2.3 2 5.03 3.66 6.77 6.24.88 1.41-.38 2.72-1.09 3.89-8.71 11.27-18.02 22.1-26.29 33.71-2.62 3.45-4.35 7.9-8.18 10.21-2.17-.02-3.89-1.53-5.58-2.69-12.7-9.49-23.55-21.13-34.79-32.24zm230.05-28.94c.87-3.07 4.76-3.05 7.33-3.49 5.04-.34 11.23-1.06 15.05 2.99 2.91 3.77 3.13 8.79 4.99 13.06 4.24 10.51 9.07 20.82 12.23 31.73.73 2.82 1.44 7.07-1.92 8.49-4.9 1.62-10.19.97-15.24 1.77-7.13.49-14.09 2.7-21.27 2.27-1.29-14.4-1.34-28.87-1.57-43.32.08-4.5-.35-9.05.4-13.5zm-37.02 9.63c1.28-4.73 3.85-10.6 9.35-11.31 7.41-.87 14.95-.37 22.28.96 1.37 9.36 1.46 18.85 1.78 28.3.12 9.45.51 18.95-.51 28.37-14.4 2.09-29.14.73-43.31-2.3-.55-15.4 7.72-29.17 10.41-44.02zm167.19 6.73c2.52-1.63 6.04-4.13 8.8-1.5 11.95 9.41 20.87 21.91 30.8 33.29 2.28 2.72 5.6 5.44 5.39 9.35-.64 3.97-4.38 6.27-7.31 8.55-9.85 6.99-19.62 14.38-30.72 19.27-3.01 1.52-5.08-1.82-6.7-3.8-2.64-3.2-2.92-7.52-4.97-11.01-2.39-4.21-5.62-7.94-7.44-12.46-3.38-8.35-8.39-15.88-12.87-23.66 8.18-6.23 16.56-12.19 25.02-18.03zM337.22 704.2c2.57-2.59 5.15-5.57 8.76-6.66 2.99.34 5.71 1.73 8.43 2.94 7.91 3.77 15.74 7.83 22.81 13.05-3.24 9.78-8.25 18.83-12.6 28.14-3.05 6.33-5.83 12.78-8.99 19.06-1.39 2.53-3.27 5.75-6.58 5.69-4.01-.33-7.51-2.55-10.95-4.42-7.5-4.46-15.07-8.82-22.27-13.74-2.09-1.66-4.89-3.35-5.16-6.26.58-3.89 2.94-7.18 5.03-10.39 6.7-9.49 13.67-18.83 21.52-27.41zm364.82 6.81c5.09-4.72 9.95-9.75 15.78-13.57 11.03 9.61 20.14 21.21 29.15 32.68 1.78 2.74 5.46 6.18 2.63 9.46-5.06 7.44-11.85 13.48-18.23 19.76-7.96 7.47-15.81 15.16-24.76 21.46-7.87-9-13.38-19.73-19.4-29.99-3.19-5.6-6.39-11.21-9.59-16.8 8.17-7.64 16.28-15.33 24.42-23zm85.79-10.17c1.86-1.87 4.82-2.21 6.91-.49 9.43 6.24 18.53 13.13 26.62 21.06-2.8 5.2-6.29 11.11-12.5 12.56-8.14 1.91-16.36-2.24-22.16-7.75-2.81-2.78-6.15-5.89-6.1-10.16.04-5.8 3.14-11.27 7.23-15.22zm-547.1 30.88c6.6-7.76 13.2-15.52 19.8-23.29 13.59 12.31 26.73 25.14 40.61 37.13-7.67 13.43-15.69 26.75-21.63 41.07-1.01 2.14-1.92 4.58-3.99 5.95-1.64.63-3.22-.74-4.61-1.45-5.37-3.53-10.36-7.61-15.38-11.61-10.26-8.43-20.63-16.92-28.85-27.43 4.46-6.94 8.66-14.09 14.05-20.37zm345.76-18.27c2.23-1.18 5.46-2.9 7.49-.45 5.86 6.6 10.75 14.23 13.74 22.57 6.82 8 11.35 17.73 14.93 27.55-7.4 6.16-16.63 9.3-25.23 13.34-10.55 5.09-21.88 8.46-33.37 10.64-1.99.1-4.87 1.2-5.99-1.09-3.04-4.34-3.12-9.85-4.42-14.81-2.72-10.7-6.53-21.09-9.25-31.79-.57-3.01-1.56-6.79.85-9.25 2.8-2.38 6.61-2.8 10.01-3.82 5.34-1.24 9.93-4.38 15.13-6.01 5.56-1.8 11.04-3.94 16.11-6.88zm-208.89 12.2c1.7-3.14 3.82-6.01 6.22-8.64 12 3.55 23.75 7.9 35.83 11.17 4.57 1.37 9.34 2.34 13.55 4.65 2.27 1.14 3.8 3.57 3.57 6.15-.35 6.01-2.89 11.6-4.19 17.43-3.26 11.94-4.03 24.53-8.62 36.1-9.75.24-18.74-4.03-28.04-6.3-10.38-2.34-20.35-6.3-29.73-11.3-2.89-1.72-6.15-3.25-8.06-6.14.6-3.8 2.34-7.28 3.76-10.81 4.75-11 9.9-21.83 15.71-32.31zm117.6 11.01c9.69-.92 19.41-1.59 29.03-3.1 4.67-.58 9.39-.1 14.08 0 3.67 12.73 7.45 25.43 11.03 38.19 1.2 4.69 2.7 9.4 2.77 14.29.12 2.03-.81 4.26-2.82 5.03-4.97 1.93-10.42 1.84-15.6 2.86-12.51 2.59-25.31 3.12-37.97 4.48-.21-4.47-.47-8.94-.49-13.41-.09-3.99.26-8.13-1.24-11.92-4.11 7.36-.08 16.52-3.99 23.99-1.06 1.51-3.31 1.3-4.95 1.65-10.7.76-21.44-.13-32.09-1.12-6.5-.84-13.14-1.29-19.39-3.37-2.95-.96-3.27-4.53-3.04-7.15 1.1-11.59 5.54-22.53 7.29-34.01.7-4.97 2.35-9.74 4.05-14.43.9-3.02 4.71-2.57 7.17-2.86 13.93-.06 27.84.92 41.72 1.9 1.35 11.54.11 23.41 3.04 34.73 2.31-11.78-.33-23.88 1.4-35.75zm174.26 2.56c3.96-.91 7.16 3.05 9.36 5.9 8.15 12.57 15.01 25.92 22.17 39.07-8.38 7.8-17.97 14.11-27.57 20.28-5.57 3.49-11.15 6.98-17.03 9.93-2.31 1.01-4.75 2.21-7.33 1.96-2.14-1.63-2.86-4.38-3.91-6.72-3.32-7.84-4.23-16.45-7.65-24.24-2.06-5.17-5.48-9.86-6.31-15.45-.2-1.25 1.07-2.06 1.71-2.95 10.84-10.97 25.62-16.95 36.56-27.78zm72.76 17.02c4.21-3.93 8.13-8.81 13.73-10.7 4.4 2.84 6.77 7.75 9.55 12.02 6.55 11 11.65 22.76 17.16 34.3-12.08 11.53-24.25 22.99-37.08 33.7-3.22 2.94-7.68 4.07-10.68 7.28-2.53 2.61-5.22 5.07-8.25 7.09-3.42-3.97-5.3-8.93-6.64-13.92-2.36-8.79-5.55-17.32-8.21-26.02-1.08-3.81-2.18-7.88-1.24-11.83 1-3.73 4.09-6.31 6.91-8.71 8.81-7.12 16.86-15.11 24.75-23.21zm-438.75-4.81c2.46-2.13 5.74-.33 8.21.84 7.7 4.26 14.96 9.29 22.87 13.18 4.55 2.4 9.53 4.27 13.33 7.85.34 2.26-.17 4.54-.61 6.76-2.53 11.39-6.83 22.27-9.79 33.54-1.02 3.54-1.67 7.28-3.51 10.52-1.52 2.79-5.08 1.03-7.31.26-12.68-5.75-24.79-12.79-36.09-20.91-2.47-1.78-5.36-2.78-8.01-4.2-.9-2.41-.2-5.03.34-7.43 3.58-13.14 11.19-24.59 17.63-36.43.84-1.43 1.68-2.89 2.94-3.98zm-80.22 8.64c2.72.17 4.74 2.31 6.8 3.88 11.68 10 22.49 21.17 35.6 29.38 3.11 1.94 6.88 4.48 6.65 8.65-.32 6.83-4.18 12.76-5.97 19.23-2.94 11.31-6.14 22.56-8.86 33.94-13.37-8.62-26.06-18.22-38.57-28.03-5.34-4.29-10.79-8.49-15.65-13.32-1.91-2.07-4.24-4.53-3.81-7.58.5-3.07 1.97-5.84 3.2-8.65 5.13-10.98 10.53-21.84 16.46-32.41 1.18-1.82 2.15-4.03 4.15-5.09zm387.1 16.27c4.39-2.1 8.74-4.27 13.14-6.34 2.32 2.88 4.79 5.69 6.4 9.05 2.4 4.72 2.86 10.14 5.23 14.88 3.99 8.14 6.08 17.02 8.66 25.66-5.15 2.97-10.11 6.35-15.59 8.69-10.32 3.86-20.08 9.21-30.81 11.95-9.35 1.75-17.78 7.09-27.47 7.28-2.21.07-2.32-2.71-2.52-4.28-.39-10.56-3.74-20.67-5.05-31.1-.66-5.09-2.11-10.06-2.49-15.17.8-2.89 4.26-3.56 6.66-4.65 14.76-4.88 29.71-9.4 43.84-15.97zm-259.96 10.59c.33-3.44 2.19-7.22 5.52-8.55 12.09 2.33 22.81 8.94 34.74 11.81 8.99 2.61 18.11 4.77 27.2 6.99 3.13.62 4.78 3.81 4.91 6.78.57 8.97-1.97 17.72-2.97 26.57-1.11 7.8-1.3 15.83-4.01 23.32-3.84-1.19-7.75-2.14-11.7-2.86-11.05-2.12-21.76-5.62-32.68-8.26-9.78-2.28-19.26-6-27.84-11.22-1.9-1.36-4.51-2.8-4.47-5.47-.23-5.33 2.23-10.22 3.5-15.28 1.65-5.46 2.01-11.35 4.71-16.47 1.16-2.39 2.81-4.64 3.09-7.36zm348.92 7.3c1.85-.72 4.59-1.44 5.91.6 1.88 3.48 2.55 7.47 3.92 11.17 3.49 11.34 8.24 22.38 10.16 34.14.9 2.9-2.34 4.39-4.14 5.99-14.36 10.09-29.59 18.95-45.3 26.75-3.21 1.25-7.09 3.69-10.44 1.68-3.28-4.09-1.81-9.87-2.75-14.69-1.84-11.02-4.8-21.87-5.83-33.02-.2-1.86 1.17-3.34 2.39-4.54 3.57-3.37 8.15-5.31 12.33-7.8 8.35-4.91 16.58-10.01 24.69-15.31 2.91-1.85 5.83-3.73 9.06-4.97zm-195.58 8.59c15.75-2.26 32.01-2.15 47.28-6.99 2.39-.16 5.07 1.13 5.2 3.8 2.01 10.77 2.98 21.75 5.47 32.45.9 4.65 2.74 9.23 2.4 14.04-.07 1.85-2 2.63-3.35 3.46-3.71 1.82-7.55 3.74-11.74 4.04-5.47.18-10.58 2.51-16.03 2.92-11.68 1.27-23.48 2.64-35.23 1.55-.65-13.18-1.05-26.37-1.62-39.56-.03-3.84-.41-7.84.93-11.51 1.04-2.73 4.07-3.72 6.69-4.2zm-75.77-1.09c6.27-1.26 12.68-.41 19-.05 14.84 1.22 29.72 1.71 44.61 1.52.82 18.78 1.41 37.56 2.4 56.34-24.26-.91-48.82.03-72.72-4.99.99-8.93 1.73-17.89 3.07-26.77 1.21-8.69 2.97-17.3 3.64-26.05z"/><path d="M273.65 813.62c1.2-3.24 2.98-6.22 5.13-8.92 15.74 8.45 31.39 17.06 47.3 25.19 3.22 1.29 4.73 4.74 4.42 8.07-.6 12.09-3.86 23.92-3.9 36.06-.05 1.97.7 3.82 1.31 5.68 2.45-3.42 2.14-7.69 2.68-11.64.87-7.07 2.95-13.95 3.33-21.08.34-2.52.16-5.88 2.74-7.29 2.74-1.03 5.74-.26 8.52.27 20.77 5.19 40.57 14.02 61.77 17.49 3.32.65 6.62 1.37 9.93 2.1-.75 17.22-.07 34.58-2.55 51.68-7.86-.02-15.58-1.63-23.27-3.08-18.07-3.63-36.13-7.94-53.22-14.97-3.24-1.55-7.11-2.96-8.89-6.3-.76-2.06 1.54-6.42-2.01-5.95-1.61 1.77-1.27 4.7-3.03 6.25-2.83.31-5.51-.96-8.08-1.96-8.75-3.81-17.17-8.34-25.88-12.24-7.49-3.18-14.55-7.28-21.58-11.35-2.42-1.6-5.6-3.34-5.79-6.6-.09-3.88.81-7.69 1.66-11.44 2.49-10.18 5.62-20.2 9.41-29.97zm360.4 17.44c2.94-1.6 6.24-3.58 9.72-2.82 3.24.98 3.65 4.85 4.23 7.67 1.91 11.65 4.49 23.2 5.64 34.96.05 3.12.78 6.8-1.23 9.48-3.99 2.69-8.71 4.01-13.08 5.94-12.97 5.01-25.91 10.27-39.41 13.7-3.64 1.31-7.14 3.07-10.98 3.79-5.12.97-10.23 2.88-15.51 2-2.55-17.41-2.86-35.06-4.12-52.59 14.44-4.19 29.38-6.77 43.34-12.49 7.27-2.88 14.82-5.31 21.4-9.64zm-104.9 30.54c12.17-1.29 24.08-4.87 36.42-4.55 1.21 16.53 1.92 33.09 2.65 49.64-8.21 2.49-16.4 5.24-24.93 6.44-11.37 1.5-22.86 1.82-34.31 2.4-3.5-.06-7.27.54-10.52-1.02-1.22-2.27-.81-5-1.05-7.47-.32-13.6-.9-27.28.71-40.81 10.06-3.07 20.67-3.22 31.03-4.63zm-108.99-.73c14.58 1.52 29.19 2.84 43.86 3.28 9.52.41 19.1.25 28.56 1.59 1.21 9.69 1.24 19.47 1.47 29.23-.01 5.79.17 11.65-.85 17.38-.4 1.33-.49 3.33-2.21 3.6-4.89 1.13-9.97.88-14.95.99-15.69-.18-31.39-1.02-46.96-2.95-3.28-.55-6.72-.83-9.74-2.32-.97-2.76-1-5.73-.93-8.6.93-14.05 1.1-28.14 1.75-42.2z"/><g fill="red"><path d="M457.32 61.39c8.1-1.58 16.46-.96 24.67-1.01 6.31.33 12.75-.03 18.93 1.42 3.08.61 2.87 4.42 2.56 6.81-.3 2-2.71 2.16-4.28 2.46-8.49.96-17.13.08-25.55 1.67-1.93.48-4.37 1.17-4.99 3.33-.56 2.89.66 6.55 3.74 7.44 8.46 2.33 18.05-1.65 25.97 3.08 2.83 1.6 1.71 5.65-.82 6.93-5.91 3.49-13.04 2.06-19.55 2.4-3.07.16-6.82.58-8.54 3.52-1.78 3.61-.6 7.75-.16 11.54 9.12 1.85 18.48 1.51 27.7 2.54 2.18.39 4.87.5 6.28 2.49 1.02 2.78-.28 6.99-3.68 7.18-7.13 1.18-14.4 1.08-21.61 1.12-8.21-.16-16.51-.03-24.57-1.8-.66-5.81-.37-11.66.01-17.48.71-11.69.36-23.44 1.66-35.09.45-2.89.53-6.06 2.23-8.55zm60.18-.52c11.23-.91 22.48.75 33.53 2.66 4.55.93 9.76 1.68 12.93 5.46 2.75 3.7 3.42 8.56 3.36 13.05-.27 6.52-7 10.52-7.34 16.98 1.51 7.88 3.17 15.93 2.15 23.98-.28 5-7.6 7.55-10.73 3.53-4.51-5.43-2.99-12.96-4.8-19.33-1.12-3.49-5.16-4.44-8.24-5.48-3.3-.88-7.78-1.78-10.15 1.4-3.84 5.78-.83 13.59-4.77 19.35-1.16 1.48-2.67 3.07-4.62 3.31-4-.54-6.94-3.72-9.35-6.7 3.79-19.24 4.48-38.93 8.03-58.21m16.84 12.68c-3.57 1.09-5.01 5.19-5.66 8.5-.48 3.23 2.85 4.99 5.48 5.68 4.56 1.14 9.59 2.27 14.16.58 4.18-1.55 5.78-7.9 2.12-10.82-4.35-3.66-10.56-5.19-16.1-3.94zm-117.01-4.24c4.44-4.41 11.98-8.43 17.61-3.68-5.57 8.9-12.34 16.96-18.71 25.28 9.03 8.96 18.46 17.53 27.05 26.92 1.1 1.61 3.36 3.57 2.19 5.66-2.96 3.52-8.36 5.05-12.44 2.54-9.65-5.37-16.12-15.04-26.05-20.01-3.19 7.82-1.57 16.41-2.83 24.55-.31 4.28-5.7 5.05-9.05 4.4-3.52-1.46-4-5.82-4.81-9.07-2.28-13.64-4.37-27.32-6.87-40.92-.43-3.36-1.49-7.18.31-10.31 3.18-2.16 7.78-3.69 11.43-2.02 1.87 5.82 2.13 12.18 5.18 17.61 6.63-6.18 10.72-14.48 16.99-20.95zm174.05 4.29c7.37-1.97 15.16-.62 22.3 1.67 7.8 2.32 13.59 9.08 16.5 16.47.94 2.71 1.76 6.78-1.26 8.48-3.65.97-7.43-.75-10.44-2.72-3.08-1.9-2.58-6.35-5.43-8.48-3.82-3.13-8.87-5.05-13.83-4.56-2.05.14-4.42 1.93-3.76 4.2.92 2.75 3.3 4.64 5.42 6.48 5.22 4.14 10.63 8.03 15.97 12.02 5.06 3.47 6.21 10.15 6.46 15.87.36 6.12-4.02 11.12-8.31 14.91-4.04 3.66-9.86 3.6-14.97 3.27-9.27-.88-18.43-4.62-25.27-11-4.06-3.98-6.4-9.61-6.78-15.24-.28-2.55 1.07-5.88 4.09-5.76 4.37.07 9.32 2.49 10.71 6.9 1.64 6 7.77 9.23 13.26 11.03 3.56 1.35 7.55-.65 9.47-3.73 1.19-2.16-.72-4.33-2.05-5.89-5.86-6.19-13.1-10.83-19.32-16.62-3.25-3.04-6.21-7.2-5.35-11.91.34-7.18 5.55-13.73 12.59-15.39zM324.84 93.73c10.84-3.99 21.37-9.89 33.19-10.16 4.73-.13 10.09 1.54 12.39 6.02 3.94 7.11-.96 16.2 4.24 22.84 5.51 6.96 10.87 14.2 14.37 22.41-4.28 3-9.3 4.67-14.46 5.32-3.45-5.77-5.74-13.28-12.3-16.29-6.51-2.42-12.21 2.78-17.23 6.15 2.71 5.7 6.23 11.06 8.17 17.1 1.32 3.36-2.46 5.12-4.88 6.29-2.58 1.02-5.41 2.93-8.25 1.86-2.41-1.97-3.31-5.12-4.55-7.85-3.13-8.16-7.19-15.98-9.32-24.49-.78-3.52-2.51-6.69-4.33-9.76-.19-5.31-4.77-9.63-3.69-15.1.25-3.39 4.26-3.27 6.65-4.34m23.55 2.75c-3.79 1.51-8.08 2.94-10.66 6.27-.95 3.82.59 8 2.33 11.42 5.77.28 12.13-1.78 16.16-6.07 4.75-4.81-1.32-14.98-7.83-11.62zm-60.99 14.97c9.68-2.27 21.33-.9 28.32 6.82 5.97 6.46 11.28 14.55 11.18 23.69.24 8.93-.41 19.12-7.19 25.77-5.9 5.55-13.63 9.21-21.64 10.34-7.67 1.12-15.44-1.87-21.17-6.89-7.66-6.67-13.93-15.86-14.37-26.3-.98-15.18 10.17-29.86 24.87-33.43m2.04 12.32c-5.95 1.72-10.21 7.31-11.33 13.26-1.8 9.64 3.47 20.15 12.24 24.52 6.37 3.24 14.76 1.69 19.58-3.59 3.15-3.47 3.95-8.52 3.02-13-1.29-6.6-5.12-12.44-9.72-17.22-3.45-3.67-8.9-5.45-13.79-3.97zm402.04-4.95c9.24-1.68 19.77.26 26.6 7.08 11.3 11.52 12.77 31.32 3.24 44.36-4.21 5.75-9.26 11.02-15.33 14.79-3.88 2.53-8.73 1.83-13.1 1.65-8.14-.62-16.43-3.45-22.23-9.39-7.95-8.13-10.77-20.61-7.77-31.49 3.55-13.35 14.98-24.36 28.59-27m3.86 13.7c-9.65 3.21-17.76 12.2-18.76 22.49-.91 8.73 6.61 17.29 15.38 17.39 6.79-.27 12.09-5.34 16.19-10.28 5.14-6.28 7.98-15.62 3.82-23.13-3.04-5.86-10.45-8.48-16.63-6.47zm-453.85 10.4c-.2-3.39 3.07-6.85 6.52-6.31 3.19 1.01 4.74 4.33 6.15 7.1 6.35 14.07 12.46 28.27 17.5 42.87.96 3 2.13 6.02 2.21 9.21-1.33 2.9-4.18 4.91-7.12 5.97-2.91 1.06-5.78-.68-8.14-2.23-8.07-5.66-15.08-12.77-23.69-17.67 2.82 10.41 9.05 19.43 12.68 29.52.8 2.5 1.64 5.65-.29 7.87-1.87 2.11-4.42 3.97-7.31 4.17-4.22-.48-7.74-3.11-11.31-5.18-12.15-7.7-24.22-15.55-35.87-23.99-2.34-1.79-4.9-3.57-6.19-6.3 1.77-4.61 6.92-9.44 12.13-6.85 9.72 4.39 17.56 12.09 27.34 16.45-2.67-9.35-8.04-17.63-10.98-26.88-.67-2.42-1.36-5.24-.02-7.56 2.52-3.6 7.69-4.92 11.62-2.89 6.98 3.28 12.65 8.67 18.85 13.14 1.71 1.27 3.77 1.86 5.77 2.48-1.02-11.57-9.29-21.21-9.85-32.92zm184.59 11.78c18.36-4.01 37.27-3.65 55.96-4.12 18.09-.08 36.27-.6 54.29 1.35 17 4.05 34.26 7.25 50.91 12.69 17.96 5.67 34.92 14 51.79 22.26 12.56 6.03 23.51 14.81 35.9 21.11 15.29 11.18 29.36 23.98 43.05 37.05 21.94 22.19 41.22 47.06 57.05 73.96 10.53 18.03 19.54 37.03 25.89 56.95 3.56 11.82 7.89 23.42 10.52 35.5 5.62 18.32 7.04 37.56 8.01 56.6.94 22.99.72 46.11-2.43 68.94-.81 5.36-.95 10.83-2.18 16.12-3.02 10.3-4.16 21.05-7.2 31.35-2.95 10.66-7.5 20.78-10.87 31.3-1.4 6.01-4.49 11.39-7.18 16.88-10.91 21.79-22.85 43.13-36.81 63.13-2.34 3.11-4.46 6.57-7.71 8.84-4.32-.85-7.24-4.5-10.33-7.33-9.17-9.51-18.63-18.75-28.59-27.44-11.29-9.82-22.72-19.55-35.18-27.85-3.3-2.58-8.35-2.71-10.21-6.91-2.5-1.52-5.58-2.1-7.97-3.91-6.72-4.71-14.26-8.02-21.74-11.29-17.08-7.36-34.54-13.82-52.24-19.52-9.74-3-19.53-6.06-29.66-7.43-17.61-2.52-35.44-3.17-53.21-3.27-17.17.13-34.43.67-51.4 3.54-11.58 2.56-23.07 5.51-34.56 8.44-32.73 6.52-61.77 23.81-90.59 39.83-6.41 3.31-11.8 8.18-17.96 11.9-11.87 8.67-22.65 18.71-33.42 28.67-12.09 11.54-24.32 23.16-33.69 37.11-14.27-13.98-25.02-30.95-35.91-47.55-18.97-28.81-31.52-61.36-40.2-94.61-6.12-22.82-9.59-46.36-10.16-69.98-.53-22.28.53-44.59 2.54-66.77.63-8.43 2.87-16.59 4.68-24.8 7.12-30.95 17.99-61.12 33.24-89 12.58-23.18 28.04-44.73 45.39-64.57 15.26-18.8 34.84-33.26 53.12-48.9 2.2-1.85 4.54-3.55 7.11-4.83 6.29-3.23 12.03-7.38 18.07-11.02 13.36-8.05 27.11-15.56 41.69-21.19 11.6-4.67 23.29-9.1 35.14-13.07 4.2-1.47 8.78-1.21 12.95-2.82 7.81-2.71 16.02-3.81 24.1-5.34m31.69 81.88c-1.22 5.71-.67 11.62-.72 17.42.73 28.34 1.68 56.68 2.31 85.03.31 9.48.55 18.99 1.98 28.38 8.44 1.65 17.12 1.45 25.67.99 3.01-.38 6.49-.38 8.89-2.51 1.64-2.62 1.35-5.92 1.55-8.88.03-17.67-.87-35.33-1.47-52.98-1.06-23.41-1.6-46.86-3.71-70.2-9.62-1.25-19.38-.9-29.02-.15-2.06.33-5.1.25-5.48 2.9m150.64 15.63c-2.81 9.22-3.76 19.17-8.74 27.62-.85 1.31-1.87 2.95-3.63 2.98-10.67.98-21.66-1.02-32.1 1.93 7.78 9.32 18.81 14.93 27.91 22.76-2.35 8.63-4.87 17.22-7.49 25.78-.96 3.21-2.23 6.35-2.65 9.7.95 1.44 2.94.46 4.22.06 6.54-3.09 11.35-8.73 17.26-12.79 3.16-2.13 6.61-5.45 10.75-4.28 5.4 1.73 9.83 5.45 14.48 8.56 4.97 3.25 9.28 7.76 15.18 9.33-1.61-11.7-6.98-22.42-9.45-33.92-.23-1.7-1.08-3.87.66-5.06 4.9-4.88 10.81-8.56 16.34-12.67 3.84-2.94 8.37-5.55 10.33-10.22-3.1-.81-6.3-1.29-9.51-1.17-9 .24-17.99.78-26.98 1.16-3.49-7.56-6.58-15.31-8.86-23.32-1.14-3.65-1.95-7.58-4.38-10.64-2.25-.09-2.64 2.59-3.34 4.19m-271.47 10.63c-2.06 7.23-3.27 14.67-5.2 21.94-.88 2.84-2.4 6.46-5.83 6.73-9.64.83-19.37-.34-28.99.72-1.48.37-3.99.37-3.82 2.5 1.74 2.35 4.33 3.84 6.71 5.45 6.42 4.14 12.5 8.78 18.5 13.49 1.63 1.31 3.67 2.86 3.2 5.25-.71 7.94-4.45 15.23-5.45 23.12-.28 3.96-2.25 7.47-3.17 11.27 1.61-.49 3.25-.94 4.76-1.71 9.58-5.46 17.09-14.2 27.23-18.7 9.63 3.36 16.61 11.7 26.14 15.18 2.7.83 2.08-2.43 1.85-4.03-1.86-8.53-6.54-16.28-7.67-25-.67-4.3 1.87-8.18 4.95-10.9 6.39-5.75 13.76-10.51 19.08-17.36-9.63-2.5-19.49.74-29.22-.07-2.73-.17-5.3-1.7-6.66-4.08-5.4-9.33-5.74-21.32-13.42-29.34-1.18 1.73-2.4 3.49-2.99 5.54m437.1 154.15c-2.96.26-6.04.13-8.84 1.22-3.2 1.52-4.46 5.12-5.59 8.23-1.59 4.91-3.6 9.66-5.95 14.25-2.52 4.72-2.59 10.23-4.7 15.11-3.69 9.07-7.12 18.25-10.81 27.33-2.29 5.21-4.27 10.71-8.02 15.1-2.35-2.61-4.19-5.62-5.61-8.82-9.21-20.01-17.32-40.5-26.37-60.58-1.3-2.67-2.34-5.52-4.16-7.88-2.37-1.44-5.29-1.39-7.96-1.65-7.3-.25-14.75-.27-21.83 1.79-5.82 13.32-10.65 27.06-15.62 40.72-3.04 8.01-4.93 16.43-8.55 24.23-2.04 4.21-2.39 9.35-5.92 12.71-2.62-3.54-4.75-7.41-6.65-11.38-8.16-16.82-14.18-34.59-22.56-51.31-1.34-2.67-1.89-5.61-2.71-8.44-.84-3.05-4.18-4.29-6.92-5.04-8.28-1.92-16.86-.98-25.26-.6-3.43.36-7.13.18-10.24 1.87-1.87 1.03-1.11 3.46-.64 5.07 3.52 10.06 9.04 19.37 11.71 29.73 1.2 2.48 3.81 3.96 5.05 6.44 3.83 10.38 6.86 21.14 12.24 30.87 6 11.79 11.62 23.76 17.26 35.72 2.99 6.16 5.57 12.68 9.99 18 3 3.75 7.99 4.87 12.58 4.7 8.57-.23 17.1-1.37 25.64-2.06 4.14-11.16 8.16-22.36 12.5-33.43 2.34-6.33 3.98-12.92 6.76-19.08 1.44-3.22 3.68-6.16 4.05-9.77.42-1.51.38-4.59 2.75-3.87 1.64 1.46 2.8 3.36 3.96 5.2 9.56 15.84 17.01 32.8 24.24 49.79 1.45 3.22 2.95 6.8 6.13 8.68 3.36 1.86 7.32 1.88 11.05 1.97 7.79-.06 15.56-.52 23.35-.8 17.53-38.51 33.36-77.78 48.32-117.35 1.63-5.18 4.35-10.2 4.65-15.69-1.25-1.62-3.49-1.56-5.31-1.76-7.35-.3-14.68.46-22.01.78m-404.72 14.24c-3.23 4.5-5.17 9.74-7.33 14.8-5.85 14.4-10.68 29.18-16.2 43.7-2.15 5.42-4.03 11-7.12 15.97-.97 1.33-2.32 3.45-4.25 2.77-2.32-1.14-4.6-3.75-3.37-6.47-12.26-23.1-21.09-47.82-32.53-71.32-8.56.72-17.15 1.17-25.64 2.5-1.85.4-4.41.47-5.04 2.68-2.53 5.37-4.19 11.1-6.02 16.75-4.31 13.79-8.97 27.48-14.22 40.94-2.29 5.69-4.41 11.52-7.82 16.66-4.61-5.56-7.19-12.37-10.18-18.84-8.78-19.09-17.27-38.31-26.07-57.38-13.19.63-26.48.31-39.56 2.35 2 9.42 6.94 17.83 11.37 26.26 2.27 4.18 2.64 9.05 4.75 13.3 6.32 13.96 13.36 27.6 19.22 41.78 6.56 16.22 14.32 31.93 20.83 48.18 13.02.26 26.05.58 39.07.89 6.46-18.65 12.15-37.59 19.62-55.87 1.73-4.48 2.75-9.39 6.11-13.02 2.38 2.74 4.45 5.75 6.21 8.93a284.444 284.444 0 0 1 19.32 41.83c2.19 5.46 4.95 11.91 11.17 13.66 6.96 1.81 14.27 1.85 21.42 1.81 5.38-.02 11.51-2 13.66-7.42 3.59-8.83 7.01-17.74 10.26-26.7 12.56-31.68 26.61-62.78 38.42-94.75.69-2.25 2.65-6.3-1.13-6.62-8.37-1.33-16.94-.66-25.37-.34-3.25.46-7.49-.17-9.58 2.97m106.34 38.41c-1.49 5.11-2.38 10.49-4.84 15.26-.59 1.36-2.33 1.06-3.5 1.31-10.82.71-21.76.34-32.45 2.42 7.49 8.22 17.8 13.1 25.91 20.61 1.54 1.49 3.05 3.52 2.5 5.8-2.06 9.1-7.01 17.58-7.4 27.05-.21 1.95 1.91 3.17 3.57 2.32 9-3.65 14.39-13.03 23.73-16.05 6.58-1.86 11.14 4.35 16.57 6.74 6.4 2.54 10.64 8.19 15.66 12.63.06-4.61-.07-9.28-1.49-13.7-1.93-7.41-6.57-14.14-6.65-21.97.12-5.33 5.43-7.93 9.22-10.61 6.21-4.53 12.83-9.1 16.82-15.85-10.05-2.06-20.29.04-30.41-.48-3.62-.03-6.88-2.24-8.42-5.47-4.78-9.25-6.58-19.88-12.41-28.61-3.82 5.51-4.58 12.31-6.41 18.6zM712.2 188.21c11.1-12.69 22.99-24.65 34.43-37.03 11.81 9.11 23.06 19.06 33.13 30.06 4.57 4.16-2.8 11.52-7.41 8.65-7.9-4.58-13.31-12.38-21-17.26-4.4-3.29-9.01 4.02-6.73 7.78 4.52 7.21 13.07 11.46 16.13 19.68-.02 3.78-4.83 5.92-8.06 4.21-7.5-3.14-12.97-9.54-19.92-13.62-5.64 4.36-9.39 10.9-15.69 14.41-4.59 2.87-10.99-1-11.53-6.04.83-4.29 4.02-7.55 6.65-10.84zm96.24 34.19c2-1.34 4.66-.73 6.34.85 3.01 2.74 4.77 6.51 7.41 9.56 5.54 6.27 9.99 13.38 14.7 20.27 1.72 2.8 3.9 5.57 4.31 8.94-1.14 3.76-6.19 4.7-9.39 3.05-3.04-1.2-4.32-4.38-6.06-6.86-2.87-3.49-7.6.28-10.58 1.92-9.4 6.19-17.51 14.25-27.41 19.69-3.31 1.76-7.91 3.42-11.1.56-2.35-2-4.82-5.94-1.99-8.6 8.85-8.69 19.3-15.55 29.37-22.74 2.97-2.37 6.64-4.99 7.05-9.09-.08-4.99-4.82-8.21-5.8-12.92-.43-2.12 1.52-3.7 3.15-4.63zm-681.31 37.81c2.32-2.36 5.87-.72 8.44.3 10.31 4.89 19.29 12.08 29.13 17.79 2.87 1.53 6.69 3.37 9.68 1.09 6.33-5.25 8.41-14.13 15.09-19.05 3.36-2.65 7.83 1.05 8.17 4.61-.61 5.01-3.75 9.21-6.22 13.46-5.26 8.13-10.44 16.51-17.66 23.07-16.85-9.83-33.21-20.51-49.45-31.32.59-3.36.61-7.16 2.82-9.95zm670.12 35.99c16.06-8.61 32.33-16.89 49.1-24.05 2.87 2.3 6.86 4.78 6.99 8.84-4.66 6.6-13.86 8.12-18.82 14.52-.79 1.06.21 2.43.4 3.56 2.01 5.58 4.82 10.86 8.17 15.75 6.12-1.04 11.44-4.32 17.11-6.62 4.03-1.93 7.37 2.14 9.82 4.79 2.44 2.37-.3 5.25-2.35 6.67-7.17 5.15-15.24 8.87-22.96 13.09-7.06 3.58-13.95 7.51-21.16 10.78-3.1 1.3-7.25 2.72-10.03.01-2.44-1.88-2.82-5.52-.99-7.95 4.12-6.23 12.48-7.28 17.21-12.85 1.61-1.94 1.05-4.63.24-6.77-1.98-5.15-4.9-9.93-8.67-13.96-7.7 2.32-14.23 7.77-22.27 8.97-4.13-.57-6.49-5.15-6.97-8.94-.58-3.24 3.01-4.45 5.18-5.84zm-691.99 5.65c19.65 1.1 39.3 2.05 58.92 3.42 2.36.05 5.49 1 5.6 3.84-.11 3.83-1.21 8.1-4.12 10.76-4.26 1.98-9.88-1.55-13.62 2.12-3.53 3.91-5.18 9.14-6.85 14.05-1.6 4.19 2.17 7.4 4.04 10.7 2.9 4.44 2.75 11.26-2.16 14.24-7.08-4.76-13.27-10.65-19.58-16.35-10.06-9.34-19.9-18.91-29.88-28.34 2.63-4.78 5.18-9.59 7.65-14.44m14.45 13.97c2.14 5.38 6.47 10.65 12.36 11.9 5.1 1.16 7.61-7.12 3.62-9.58-5.31-.85-10.68-1.37-15.98-2.32zm743.04 21.76c4.6-1.15 9.32-2.83 14.13-2.14 3 .59 3.37 4.19 4.06 6.62 1.57 8.11 4.62 15.82 7.57 23.5 1.4 4.24 2.63 8.87 1.5 13.31-.52 2.57-3.7 4.91-6.15 3.26-2.4-1.99-3.08-5.21-4.12-7.99-1.68-5.45-4.44-10.51-5.89-16.04-.96-3.77-4.88-6.78-8.8-6.21-2.72.54-3.98 3.57-3.68 6.09.49 7.95 4.28 15.23 5.31 23.07.94 4.59-6.62 6.96-8.89 3.18-2.87-4.62-2.67-10.35-4.78-15.27-1.53-3.48-2.79-7.46-5.87-9.89-4.05 1.11-9.07 2.17-11.38 5.99-1.13 5.91 1.36 11.84 4.15 16.96-.85 5.09 3.75 8.87 4.07 13.77-2.06 2.32-5.42 4.46-8.6 3.91-4.83-3.94-6.68-10.28-8.3-16.05-2.74-9.38-7.32-18.45-7.74-28.33 1.9-2.27 4.79-3.32 7.37-4.63 11.66-5.27 23.75-9.56 36.04-13.11zM86.25 352.3c2.84-1.14 5.91.02 8.72.67 11.75 3.36 23.57 6.46 35.29 9.88 4.9 1.74 10.38 3.05 14.11 6.91 2.54 3.07-.28 6.96-2.36 9.41-2.42 2.93-6.56 1.11-9.64.55-10.59-3.15-21.5-5.29-31.81-9.32-4.04-1.71-8.73-1.02-12.54-3.37-2.37-1.4-5.94-2.8-5.82-6.09.36-3.12 1.03-7.01 4.05-8.64zm-12.9 44.85c2.19-6.12 6.68-12.45 13.63-13.27 7.57-.63 15.35 3.31 19.45 9.7 9.02-3.2 18.85-3.2 28.21-1.86 2.94.12 3.26 3.49 3.87 5.71.7 2.44.14 5.47-2.27 6.75-6.46 3.83-14.48-.46-21.03 3.02-4.83 2.79-6.8 8.6-7.59 13.82-.55 1.79.67 3.45 2.35 3.99 6.24 2.46 13.24 2 19.46 4.52 4.17 1.92 2.62 7.34 1.66 10.79-.55 2.82-3.72 3.11-6.06 2.9-17.33-1.17-33.87-7.07-51.06-9.16-1.84-.55-4.97.11-5.43-2.41-.87-4.3-.11-8.71.36-13 1.13-7.23 1.97-14.59 4.45-21.5m13.98 1.98c-3.75 1.34-4.08 5.81-4.98 9.1-.55 3.58-2.03 7.52-.57 11.02 3.57 3.17 10 3.71 13.36-.1 3.44-3.77 3.85-9.39 2.77-14.17-.51-2.13-1.17-4.64-3.31-5.7-2.24-1.12-4.97-1.07-7.27-.15zm762.93 52.1c16.82-5.6 33.75-10.89 50.81-15.72 2.06 3.1 4.11 6.57 3.81 10.46-.11 2.29-1.94 4.02-3.89 4.94-10.16 4.33-21.79 4.55-31.44 10.14 9.25 4.64 19.71 5.75 29.45 8.97 2.27.74 4.98 2.15 4.99 4.93.44 4.41-.03 10.45-5.01 12.11-9.81 3.37-20.85 2.48-30.21 7.28.72 1.96 2.88 2.51 4.63 3.18 7.69 2.5 15.7 3.96 23.23 6.97 2.82 1.14 6.04 3.05 6.24 6.46.09 2.54.72 5.75-1.2 7.77-6.14 1.02-12.63-.28-18.1-3.23-12.38-5.37-25.86-7.65-38.29-12.88-2.32-1.11-5.3-2.59-5.42-5.53-.1-3.89.42-9.07 4.74-10.55 8.24-3.23 17.26-3.57 25.66-6.27 1.97-.59 3.57-1.93 5.18-3.16-5.11-3.47-11.43-3.75-17.26-5.1-4.93-1.11-9.95-1.59-14.9-2.44-3.77-2.67-4.28-8.22-3.11-12.36 2.03-3.59 6.54-4.48 10.09-5.97zm-781.99-8c2.01-.86 4.86-.52 5.97 1.58 2.62 4.62 1.66 10.29 3.7 15.1 1.63 2.76 5.2 3.12 8.07 3.57 13.51 1.37 27.14 1.16 40.66 2.37 1.79-.22 1.84 1.84 2.1 3.11.2 3.6.1 7.65-2.13 10.68-9.49 1.13-19.12.21-28.66.08-6.73-.03-13.78-1.19-20.26 1.1-4.48 2.26-2.92 8.08-3.81 12.11-.52 4.76-7.73 6.29-10.41 2.47-1.76-2.4-1.08-5.54-.94-8.28 1.25-12.02 1.19-24.14 2.55-36.14.5-2.69.62-6.11 3.16-7.75zm33.09 57.43c6.26-1.74 13.16-.77 19.01 1.92 5.43 2.38 7.59 8.36 9.34 13.58 3.02 9.16 3.72 19.44-.09 28.48-2.3 5.06-7.67 7.75-12.69 9.42-2.28 1.16-4.1-.98-5.3-2.62-1.21-1.81-2.92-4.06-1.83-6.31 2.09-3.88 6.02-6.41 7.95-10.41 3.4-6.01 2.06-14.71-4.15-18.34-2.49-1.67-5.46.22-6.67 2.54-3.84 6.72-4.19 14.68-4.93 22.2-.25 3.56-2.78 6.35-5 8.92-6.26 7.11-18.14 7.18-25.22 1.26-5.21-4.52-6.98-11.66-7.79-18.23-.71-7.38-.31-15.59 4.41-21.69 2.51-3.19 6.3-6.21 10.6-5.62 3.34.43 4.25 4.28 3.88 7.1-.08 2.91-1.81 5.34-3.8 7.33-4.07 3.9-4.61 10.36-2.72 15.45.84 2.25 2.81 4.68 5.5 4.3 3.39-.65 6.2-3.6 6.8-6.99 1.45-7.8 1.44-16.05 4.94-23.33 1.73-3.55 3.99-7.33 7.76-8.96zm756.11 18.18c8.21-1.42 16.98-.56 24.44 3.29 7.48 3.95 13.35 10.93 15.75 19.07 2.77 9.16 1.35 19.24-2.7 27.8-3.76 7.67-12.04 12.06-20.21 13.31-14.49 2.36-30.84-3.6-38.41-16.62-7.93-12.76-5.37-31.31 6.74-40.58 4.17-3.27 9.2-5.32 14.39-6.27m1.89 14.45c-5.21 1.26-10.71 3.74-13.81 8.28-1.76 5.4-1.57 12.07 2.18 16.64 3.83 4.98 9.67 8.86 16.16 8.67 5.34-.08 11.37 1.21 16.14-1.83 3.42-3.21 5.95-7.52 7.2-12.03-.9-13.2-15.28-22.48-27.87-19.73zM87.05 571.01c8.99-3.91 18.48-6.72 28.15-8.33 6.39-1.04 13.93-.64 18.55 4.52 6.12 7.04 8.65 16.6 9.05 25.75.08 5.68-.61 12.59-5.83 15.99-8.05 5.28-17.25 8.52-26.38 11.41-6.55 2.17-13.53 2.64-19.97 5.14-2.09.68-5.16 1.91-6.61-.5-1.64-2.69-2.2-5.94-2.26-9.04.77-2.9 4.17-3.61 6.58-4.66 10.17-3.34 20.5-6.16 30.78-9.13 5.47-1.58 10.48-6.32 11.1-12.13-.78-5.17-4.18-11.34-10.15-11.21-13.16-.05-24.95 7.39-37.97 8.14-1.65.9-3.26 1.92-5.06 2.51-3.4-1-6.08-4.24-6.94-7.62-.43-4.09 3.75-6.35 6.8-7.99 3.1-1.87 6.85-1.63 10.16-2.85zm741.51 9.61c4.15-.97 8.35.81 12.43 1.54 14.61 3.74 28.8 8.96 43.06 13.84 1.94.9 4.61 1.28 5.69 3.35.24 2.03-1.01 3.87-1.68 5.72-4.34 9.16-5.31 19.45-9.12 28.8-3.68 9.8-18.21 13.14-25.77 5.89-2.61-2.4-5.1-5.35-8.79-5.96-7.38-1.52-15.15-.33-22.36-2.82-2.64-.95-5.94-2.19-6.74-5.18.23-2.76 1.15-5.42 1.7-8.12 7.02-1.46 14.04.9 21.09.44 3.7-.23 5.75-3.83 7.4-6.71 1.96-3.44 2.82-8.38-.36-11.38-4.36-4.41-11-3.83-16.38-5.8-3.48-3.49-2.71-9.8-.17-13.61m31.81 25.74c-4.56 2.69-3.91 9.07-4.6 13.66-.91 5.15 5.5 9.28 9.89 6.66 4.17-2.52 6.14-7.45 7.07-12.03.58-2.77.18-6.37-2.74-7.64-2.98-1.28-6.52-1.66-9.62-.65z"/><path d="M490.27 596.18c3.48-.51 7.01-.31 10.5-.01 14.17 1.37 28.45 1.8 42.49 4.26 4.62.86 9.07 2.5 13.77 3 9.5 1 19.15 2.56 27.85 6.72 4.76 2.39 10.28 2.05 15.21 3.98 17.37 5.98 34.11 13.72 50.29 22.41 7.87 3.99 14.72 9.68 22.7 13.47 4.88 2.58 8.17 7.36 13.15 9.8 4.16 1.91 7.59 4.98 10.89 8.08 12.23 11.46 23.84 23.58 35.04 36.05 8.98 9.53 16.13 20.51 24.05 30.87 5.68 6.68 9.64 14.56 13.83 22.2 6.54 12.44 13.13 24.94 17.65 38.29 1.85 5.68 4.19 11.46 3.69 17.56-4.16-2.74-2.15-8.57-5.42-11.85-1.19-1.3-3.17-2.34-4.81-1.18-3.38 1.9-5.85 4.99-8.75 7.49-10.83 9.58-22.2 18.53-32.88 28.29-3.18 2.91-6.75 5.37-10.57 7.38-5.76 2.75-3.6 10.39-4.43 15.5-1.88-3.5-4.11-9.02-9.05-7.96-12.68 9.5-26.97 16.56-40.79 24.24-4.85 2.9-11.12 4.6-13.89 9.97-2.01 4.44-2.02 9.6-4.83 13.73-.91-4.4-.9-8.9-1.49-13.33-21.86 8.42-43.75 17.08-66.64 22.33-5.23 1.02-11.44 1.93-14.55 6.83-1.81 3.41-1.83 7.45-3.26 11.03-2.79-3.65-2.53-8.5-4.72-12.43-19.42 2.47-38.74 6.03-58.33 7.02-2.85.06-6.12.68-7.69 3.35-1.62 2.81-2.8 5.89-4.8 8.49-.2-2.66 1.91-6.61-1.24-8.15-4.74-2.19-10.14-2.02-15.24-2.38-12-.26-23.99-.86-35.94-1.93-6.68-.38-13.4-1.27-20.09-.63-3.89-.07-1.87 7.14-6.44 5.85-.45-2.53-.26-5.78-2.89-7.17-6.47-3.86-14.33-2.98-21.4-4.77-13.14-3.32-26.16-7.13-39.27-10.57-6.63-1.68-12.8-6.04-19.91-5.1-4.45 1.26-2.36 6.96-2.74 10.27-4.91-2.47-3.26-8.56-4.64-12.87-1.44-2.7-4.61-3.67-7.23-4.82-19.4-7.33-37.09-18.41-56.22-26.32-1.1 2.91-1.53 6-2.07 9.06-2.79-3.07-2.08-7.16-2.59-10.88-2.78-4.47-7.45-7.29-11.58-10.38-12.32-8.52-24.09-17.79-35.89-27.02-4.18-3.21-8.42-6.38-13.08-8.86-2.59 3.86-2.39 9.02-5.47 12.55-.74-6.93 1.9-13.54 4.13-19.95 6.2-16.4 14.16-32.08 22.71-47.37 6.83-11.88 13.89-23.7 22.49-34.41 11.2-14.05 23.21-27.44 35.75-40.29 8.97-9.06 18.09-18.1 28.61-25.37 14.68-10.3 30.03-19.63 45.69-28.35 8.51-4.55 16.99-9.51 26.51-11.61 10.27-6.36 22.5-7.69 33.87-11.11 4.69-2.12 9.59-3.71 14.72-4.28 11.4-1.43 22.49-4.65 33.93-5.73 10.42-1.17 20.93-1.39 31.31-2.99m93.88 44.55c13.73 11.36 28.32 21.7 41.33 33.91 1.21 1.07 2.48 2.14 3.98 2.83 1.91 1.15 3.8-.69 5.4-1.6 6.06-4.5 11.36-9.92 16.43-15.49 2.35-2.83 5.13-5.6 6.11-9.25-1.99-3.82-6.1-5.75-9.57-7.98-13.49-7.54-27.4-14.39-41.78-20.05-8.28 4.56-14.76 11.57-21.9 17.63m-222.42-7.06c-9.91 4.44-19.38 9.81-28.76 15.28-5.83 3.56-11.88 6.96-16.72 11.86 7.47 10.79 18.18 18.73 28.79 26.21 14.19-13.14 27.77-27.07 43.21-38.77 1.52-2.38-1.2-4.37-2.73-5.82-5.13-4.08-10.72-7.81-16.94-9.97-2.35-.97-4.7.36-6.85 1.21m206.51 15.55c-3.37 1.86-7.01 3.72-9.2 7.02.49 2.88 2.62 5.11 4.32 7.37 9 10.41 18.78 20.44 25.29 32.68 1.37 2.04 3.1 4.01 5.43 4.94 1.75.21 3.46-.45 5.08-1.02 10-4.05 18.53-10.84 26.49-17.98-11.39-10.62-22.81-21.28-35.65-30.15-3.86-2.51-7.53-5.61-12.01-6.88-3.49.66-6.61 2.46-9.75 4.02m-178.09 5c-9.85 7.36-19.29 15.28-28.35 23.6-3.29 3.12-6.75 6.27-8.79 10.39-1.08 1.85.65 3.63 1.74 4.99 5.42 5.75 12.71 9.22 19.83 12.34 2.51.99 5.87 2.54 8.08.13 3.38-3.37 5.7-7.62 8.53-11.43 7.89-11.78 16.93-22.82 24.05-35.11-5.25-3.72-11.27-6.33-17.54-7.72-2.9-.9-5.32 1.33-7.55 2.81m270.14 4.94c-7.28 6.4-14.43 12.96-21.29 19.81-1.26 1.5-3.77 3.78-1.92 5.77 7.8 9.26 15.92 18.27 23.58 27.66 4.72 5.46 8.77 11.61 14.59 16.03 11.24-8.35 21.01-18.49 30.74-28.5 2.57-2.74 6.42-6.59 3.59-10.5-4.37-5.88-10.38-10.3-15.86-15.1-5.11-3.99-9.96-8.47-15.83-11.34-3.56-1.27-4.7-5.55-8.21-6.92-3.45-2.08-6.81 1.05-9.39 3.09m-132.25 7.02c-2.62 1.07-6.06 2.51-6.27 5.8.07 5.53 2.76 10.56 4.51 15.7 3.98 10.35 7.47 20.9 12.07 31 1.11 2.1 2.61 5.33 5.57 4.46 12.76-2.14 24.64-7.67 36.44-12.76 2.81-1.49 6.42-2.42 7.99-5.42-.76-4.81-4.41-8.4-7.07-12.26-9.28-11.83-18.5-23.9-29.87-33.83-7.8 2.39-15.7 4.5-23.37 7.31m-105.74-3.12c-4.99 3.72-8.73 8.83-12.74 13.52-7.35 9.53-14.68 19.26-19.74 30.25-.58 1.62-2 4.08.08 5.21 3.04 2.36 6.79 3.51 10.31 4.93 9.14 3.33 18.34 6.57 27.82 8.8 3.11.58 6.41 1.47 9.54.55 2.39-.86 3.13-3.55 3.87-5.7 3.69-12.53 7.89-24.9 11.63-37.41.86-3.59 2.2-7.41 1.14-11.08-1.9-3.63-6.74-2.88-10.15-3.06-6.52.87-11.63-3.88-17.51-5.68-1.35-.24-3.02-1.4-4.25-.33M263.59 703.4c11.24 11.11 22.09 22.75 34.79 32.24 1.69 1.16 3.41 2.67 5.58 2.69 3.83-2.31 5.56-6.76 8.18-10.21 8.27-11.61 17.58-22.44 26.29-33.71.71-1.17 1.97-2.48 1.09-3.89-1.74-2.58-4.47-4.24-6.77-6.24-7.9-6.29-15.04-13.45-22.98-19.67-16.2 11.94-30.92 25.71-46.18 38.79m230.05-28.94c-.75 4.45-.32 9-.4 13.5.23 14.45.28 28.92 1.57 43.32 7.18.43 14.14-1.78 21.27-2.27 5.05-.8 10.34-.15 15.24-1.77 3.36-1.42 2.65-5.67 1.92-8.49-3.16-10.91-7.99-21.22-12.23-31.73-1.86-4.27-2.08-9.29-4.99-13.06-3.82-4.05-10.01-3.33-15.05-2.99-2.57.44-6.46.42-7.33 3.49m-37.02 9.63c-2.69 14.85-10.96 28.62-10.41 44.02 14.17 3.03 28.91 4.39 43.31 2.3 1.02-9.42.63-18.92.51-28.37-.32-9.45-.41-18.94-1.78-28.3-7.33-1.33-14.87-1.83-22.28-.96-5.5.71-8.07 6.58-9.35 11.31m167.19 6.73c-8.46 5.84-16.84 11.8-25.02 18.03 4.48 7.78 9.49 15.31 12.87 23.66 1.82 4.52 5.05 8.25 7.44 12.46 2.05 3.49 2.33 7.81 4.97 11.01 1.62 1.98 3.69 5.32 6.7 3.8 11.1-4.89 20.87-12.28 30.72-19.27 2.93-2.28 6.67-4.58 7.31-8.55.21-3.91-3.11-6.63-5.39-9.35-9.93-11.38-18.85-23.88-30.8-33.29-2.76-2.63-6.28-.13-8.8 1.5M337.22 704.2c-7.85 8.58-14.82 17.92-21.52 27.41-2.09 3.21-4.45 6.5-5.03 10.39.27 2.91 3.07 4.6 5.16 6.26 7.2 4.92 14.77 9.28 22.27 13.74 3.44 1.87 6.94 4.09 10.95 4.42 3.31.06 5.19-3.16 6.58-5.69 3.16-6.28 5.94-12.73 8.99-19.06 4.35-9.31 9.36-18.36 12.6-28.14-7.07-5.22-14.9-9.28-22.81-13.05-2.72-1.21-5.44-2.6-8.43-2.94-3.61 1.09-6.19 4.07-8.76 6.66m364.82 6.81c-8.14 7.67-16.25 15.36-24.42 23 3.2 5.59 6.4 11.2 9.59 16.8 6.02 10.26 11.53 20.99 19.4 29.99 8.95-6.3 16.8-13.99 24.76-21.46 6.38-6.28 13.17-12.32 18.23-19.76 2.83-3.28-.85-6.72-2.63-9.46-9.01-11.47-18.12-23.07-29.15-32.68-5.83 3.82-10.69 8.85-15.78 13.57m-461.31 20.71c-5.39 6.28-9.59 13.43-14.05 20.37 8.22 10.51 18.59 19 28.85 27.43 5.02 4 10.01 8.08 15.38 11.61 1.39.71 2.97 2.08 4.61 1.45 2.07-1.37 2.98-3.81 3.99-5.95 5.94-14.32 13.96-27.64 21.63-41.07-13.88-11.99-27.02-24.82-40.61-37.13-6.6 7.77-13.2 15.53-19.8 23.29m345.76-18.27c-5.07 2.94-10.55 5.08-16.11 6.88-5.2 1.63-9.79 4.77-15.13 6.01-3.4 1.02-7.21 1.44-10.01 3.82-2.41 2.46-1.42 6.24-.85 9.25 2.72 10.7 6.53 21.09 9.25 31.79 1.3 4.96 1.38 10.47 4.42 14.81 1.12 2.29 4 1.19 5.99 1.09 11.49-2.18 22.82-5.55 33.37-10.64 8.6-4.04 17.83-7.18 25.23-13.34-3.58-9.82-8.11-19.55-14.93-27.55-2.99-8.34-7.88-15.97-13.74-22.57-2.03-2.45-5.26-.73-7.49.45m-208.89 12.2c-5.81 10.48-10.96 21.31-15.71 32.31-1.42 3.53-3.16 7.01-3.76 10.81 1.91 2.89 5.17 4.42 8.06 6.14 9.38 5 19.35 8.96 29.73 11.3 9.3 2.27 18.29 6.54 28.04 6.3 4.59-11.57 5.36-24.16 8.62-36.1 1.3-5.83 3.84-11.42 4.19-17.43.23-2.58-1.3-5.01-3.57-6.15-4.21-2.31-8.98-3.28-13.55-4.65-12.08-3.27-23.83-7.62-35.83-11.17-2.4 2.63-4.52 5.5-6.22 8.64m117.6 11.01c-1.73 11.87.91 23.97-1.4 35.75-2.93-11.32-1.69-23.19-3.04-34.73-13.88-.98-27.79-1.96-41.72-1.9-2.46.29-6.27-.16-7.17 2.86-1.7 4.69-3.35 9.46-4.05 14.43-1.75 11.48-6.19 22.42-7.29 34.01-.23 2.62.09 6.19 3.04 7.15 6.25 2.08 12.89 2.53 19.39 3.37 10.65.99 21.39 1.88 32.09 1.12 1.64-.35 3.89-.14 4.95-1.65 3.91-7.47-.12-16.63 3.99-23.99 1.5 3.79 1.15 7.93 1.24 11.92.02 4.47.28 8.94.49 13.41 12.66-1.36 25.46-1.89 37.97-4.48 5.18-1.02 10.63-.93 15.6-2.86 2.01-.77 2.94-3 2.82-5.03-.07-4.89-1.57-9.6-2.77-14.29-3.58-12.76-7.36-25.46-11.03-38.19-4.69-.1-9.41-.58-14.08 0-9.62 1.51-19.34 2.18-29.03 3.1m174.26 2.56c-10.94 10.83-25.72 16.81-36.56 27.78-.64.89-1.91 1.7-1.71 2.95.83 5.59 4.25 10.28 6.31 15.45 3.42 7.79 4.33 16.4 7.65 24.24 1.05 2.34 1.77 5.09 3.91 6.72 2.58.25 5.02-.95 7.33-1.96 5.88-2.95 11.46-6.44 17.03-9.93 9.6-6.17 19.19-12.48 27.57-20.28-7.16-13.15-14.02-26.5-22.17-39.07-2.2-2.85-5.4-6.81-9.36-5.9m72.76 17.02c-7.89 8.1-15.94 16.09-24.75 23.21-2.82 2.4-5.91 4.98-6.91 8.71-.94 3.95.16 8.02 1.24 11.83 2.66 8.7 5.85 17.23 8.21 26.02 1.34 4.99 3.22 9.95 6.64 13.92 3.03-2.02 5.72-4.48 8.25-7.09 3-3.21 7.46-4.34 10.68-7.28 12.83-10.71 25-22.17 37.08-33.7-5.51-11.54-10.61-23.3-17.16-34.3-2.78-4.27-5.15-9.18-9.55-12.02-5.6 1.89-9.52 6.77-13.73 10.7m-438.75-4.81c-1.26 1.09-2.1 2.55-2.94 3.98-6.44 11.84-14.05 23.29-17.63 36.43-.54 2.4-1.24 5.02-.34 7.43 2.65 1.42 5.54 2.42 8.01 4.2 11.3 8.12 23.41 15.16 36.09 20.91 2.23.77 5.79 2.53 7.31-.26 1.84-3.24 2.49-6.98 3.51-10.52 2.96-11.27 7.26-22.15 9.79-33.54.44-2.22.95-4.5.61-6.76-3.8-3.58-8.78-5.45-13.33-7.85-7.91-3.89-15.17-8.92-22.87-13.18-2.47-1.17-5.75-2.97-8.21-.84m-80.22 8.64c-2 1.06-2.97 3.27-4.15 5.09-5.93 10.57-11.33 21.43-16.46 32.41-1.23 2.81-2.7 5.58-3.2 8.65-.43 3.05 1.9 5.51 3.81 7.58 4.86 4.83 10.31 9.03 15.65 13.32 12.51 9.81 25.2 19.41 38.57 28.03 2.72-11.38 5.92-22.63 8.86-33.94 1.79-6.47 5.65-12.4 5.97-19.23.23-4.17-3.54-6.71-6.65-8.65-13.11-8.21-23.92-19.38-35.6-29.38-2.06-1.57-4.08-3.71-6.8-3.88m387.1 16.27c-14.13 6.57-29.08 11.09-43.84 15.97-2.4 1.09-5.86 1.76-6.66 4.65.38 5.11 1.83 10.08 2.49 15.17 1.31 10.43 4.66 20.54 5.05 31.1.2 1.57.31 4.35 2.52 4.28 9.69-.19 18.12-5.53 27.47-7.28 10.73-2.74 20.49-8.09 30.81-11.95 5.48-2.34 10.44-5.72 15.59-8.69-2.58-8.64-4.67-17.52-8.66-25.66-2.37-4.74-2.83-10.16-5.23-14.88-1.61-3.36-4.08-6.17-6.4-9.05-4.4 2.07-8.75 4.24-13.14 6.34m-259.96 10.59c-.28 2.72-1.93 4.97-3.09 7.36-2.7 5.12-3.06 11.01-4.71 16.47-1.27 5.06-3.73 9.95-3.5 15.28-.04 2.67 2.57 4.11 4.47 5.47 8.58 5.22 18.06 8.94 27.84 11.22 10.92 2.64 21.63 6.14 32.68 8.26 3.95.72 7.86 1.67 11.7 2.86 2.71-7.49 2.9-15.52 4.01-23.32 1-8.85 3.54-17.6 2.97-26.57-.13-2.97-1.78-6.16-4.91-6.78-9.09-2.22-18.21-4.38-27.2-6.99-11.93-2.87-22.65-9.48-34.74-11.81-3.33 1.33-5.19 5.11-5.52 8.55m348.92 7.3c-3.23 1.24-6.15 3.12-9.06 4.97-8.11 5.3-16.34 10.4-24.69 15.31-4.18 2.49-8.76 4.43-12.33 7.8-1.22 1.2-2.59 2.68-2.39 4.54 1.03 11.15 3.99 22 5.83 33.02.94 4.82-.53 10.6 2.75 14.69 3.35 2.01 7.23-.43 10.44-1.68 15.71-7.8 30.94-16.66 45.3-26.75 1.8-1.6 5.04-3.09 4.14-5.99-1.92-11.76-6.67-22.8-10.16-34.14-1.37-3.7-2.04-7.69-3.92-11.17-1.32-2.04-4.06-1.32-5.91-.6m-195.58 8.59c-2.62.48-5.65 1.47-6.69 4.2-1.34 3.67-.96 7.67-.93 11.51.57 13.19.97 26.38 1.62 39.56 11.75 1.09 23.55-.28 35.23-1.55 5.45-.41 10.56-2.74 16.03-2.92 4.19-.3 8.03-2.22 11.74-4.04 1.35-.83 3.28-1.61 3.35-3.46.34-4.81-1.5-9.39-2.4-14.04-2.49-10.7-3.46-21.68-5.47-32.45-.13-2.67-2.81-3.96-5.2-3.8-15.27 4.84-31.53 4.73-47.28 6.99m-75.77-1.09c-.67 8.75-2.43 17.36-3.64 26.05-1.34 8.88-2.08 17.84-3.07 26.77 23.9 5.02 48.46 4.08 72.72 4.99-.99-18.78-1.58-37.56-2.4-56.34-14.89.19-29.77-.3-44.61-1.52-6.32-.36-12.73-1.21-19 .05m-154.31 11.89c-3.79 9.77-6.92 19.79-9.41 29.97-.85 3.75-1.75 7.56-1.66 11.44.19 3.26 3.37 5 5.79 6.6 7.03 4.07 14.09 8.17 21.58 11.35 8.71 3.9 17.13 8.43 25.88 12.24 2.57 1 5.25 2.27 8.08 1.96 1.76-1.55 1.42-4.48 3.03-6.25 3.55-.47 1.25 3.89 2.01 5.95 1.78 3.34 5.65 4.75 8.89 6.3 17.09 7.03 35.15 11.34 53.22 14.97 7.69 1.45 15.41 3.06 23.27 3.08 2.48-17.1 1.8-34.46 2.55-51.68-3.31-.73-6.61-1.45-9.93-2.1-21.2-3.47-41-12.3-61.77-17.49-2.78-.53-5.78-1.3-8.52-.27-2.58 1.41-2.4 4.77-2.74 7.29-.38 7.13-2.46 14.01-3.33 21.08-.54 3.95-.23 8.22-2.68 11.64-.61-1.86-1.36-3.71-1.31-5.68.04-12.14 3.3-23.97 3.9-36.06.31-3.33-1.2-6.78-4.42-8.07-15.91-8.13-31.56-16.74-47.3-25.19-2.15 2.7-3.93 5.68-5.13 8.92m360.4 17.44c-6.58 4.33-14.13 6.76-21.4 9.64-13.96 5.72-28.9 8.3-43.34 12.49 1.26 17.53 1.57 35.18 4.12 52.59 5.28.88 10.39-1.03 15.51-2 3.84-.72 7.34-2.48 10.98-3.79 13.5-3.43 26.44-8.69 39.41-13.7 4.37-1.93 9.09-3.25 13.08-5.94 2.01-2.68 1.28-6.36 1.23-9.48-1.15-11.76-3.73-23.31-5.64-34.96-.58-2.82-.99-6.69-4.23-7.67-3.48-.76-6.78 1.22-9.72 2.82m-104.9 30.54c-10.36 1.41-20.97 1.56-31.03 4.63-1.61 13.53-1.03 27.21-.71 40.81.24 2.47-.17 5.2 1.05 7.47 3.25 1.56 7.02.96 10.52 1.02 11.45-.58 22.94-.9 34.31-2.4 8.53-1.2 16.72-3.95 24.93-6.44-.73-16.55-1.44-33.11-2.65-49.64-12.34-.32-24.25 3.26-36.42 4.55m-108.99-.73c-.65 14.06-.82 28.15-1.75 42.2-.07 2.87-.04 5.84.93 8.6 3.02 1.49 6.46 1.77 9.74 2.32 15.57 1.93 31.27 2.77 46.96 2.95 4.98-.11 10.06.14 14.95-.99 1.72-.27 1.81-2.27 2.21-3.6 1.02-5.73.84-11.59.85-17.38-.23-9.76-.26-19.54-1.47-29.23-9.46-1.34-19.04-1.18-28.56-1.59-14.67-.44-29.28-1.76-43.86-3.28zM110.6 630.65c7.24-5.23 16.23-9.38 25.37-7.72 5.3.96 10.82 2.46 15.02 6.01 3.6 3.62 5.91 8.28 8.44 12.66 3.56 6.78 7.24 13.63 8.94 21.16-7.24 6.02-15.75 10.22-23.99 14.71-9.65 4.84-19.27 10.03-29.63 13.2-2.41 1.04-4.53-.73-5.86-2.57-3.56-4.76-5.72-10.35-8.25-15.67-2.74-6.13-5.98-12.66-4.56-19.57.85-9.29 7.3-16.86 14.52-22.21m16.65 8.54c-6.93 3.5-14.67 7.62-17.76 15.19-2.55 6.9 2.29 13.22 5.36 19 4.84-1.1 9.64-2.45 14.22-4.37 3.18-1.26 5.55-3.85 8.6-5.34 4.11-2.16 8.91-3.39 12.16-6.9 1.44-1.35.67-3.46.38-5.11-1.23-4.38-3.54-8.73-7.29-11.44-4.68-2.72-10.76-3.85-15.67-1.03zm685.93-4.07c1.27-1.44 3.21-.53 4.83-.4 1.12 1.93 2.63 3.75 4.93 4.26 9.55 2.78 18.28 7.66 27.05 12.23 5.71 3.25 12.07 6.22 15.99 11.72 3.24 4.64-2.7 11.41-7.8 9.2-12.65-4.01-23.97-11.26-36.19-16.3-1.92-.43-4.58-1.87-6.11.01-5.35 6.41-7.06 15.14-12.78 21.27-2.6 3.11-7.54.94-8.84-2.3-.32-2.95 1.1-5.71 2.13-8.39 3.31-7.57 6.74-15.11 10.61-22.42 1.76-3.13 3.46-6.44 6.18-8.88zm-692.84 71.79c17.51-11.92 34.43-24.75 52.49-35.84 3.01 3.13 6.43 6.47 7.24 10.93-.13 4.33-2.36 8.21-3.95 12.14-4.26 9.79-9.25 19.3-12.69 29.43 5.58.94 9.41-3.77 13.58-6.56 5.37-3.68 10.48-7.86 16.34-10.75 2.34-1.39 4.73.41 6.38 2.01 1.71 1.66 3.7 3.9 3.03 6.49-.93 2.78-3.52 4.48-5.72 6.21-10.7 7.64-21.11 15.67-31.81 23.31-3.82 2.46-7.53 5.89-12.25 6.23-3.26-.75-5.84-3.17-8.17-5.44-2.53-2.36-1.47-6.07-.58-8.93 3.26-9.39 7.64-18.35 10.92-27.73.94-2.53 1.25-5.22 1.3-7.89-2.95 1.58-5.38 3.91-8.09 5.84-2.36 1.72-5.53 2.17-7.5 4.46-3.34 3.72-7.95 6.33-12.87 7.24-.36-.13-1.09-.4-1.46-.53-2.74-3.08-4.14-7.09-6.19-10.62zm668.17-26.48c.99-.94 2.32.24 3.38.51 5.03 2.44 9.58 5.74 14.1 9.01 3.49 2.46 6.45 5.71 10.37 7.54 5.1 2.31 8.74 6.74 13.45 9.68 3.55 2.46 8.24 4.97 8.59 9.84.01 5.87-5.41 9.47-8.41 13.94-4.58 5.32-7.39 12.57-13.77 16.07-10.65 4.17-23.37 3.08-32.97-3.24-7.12-4.64-12.44-11.82-15.29-19.79-1.9-5.38-.51-11.26 1.58-16.37 3.08-6.91 7.29-13.25 11.73-19.36 2.15-2.82 4.27-5.8 7.24-7.83m-.68 20.41c-4.09 3.95-7.19 9.42-7.23 15.22-.05 4.27 3.29 7.38 6.1 10.16 5.8 5.51 14.02 9.66 22.16 7.75 6.21-1.45 9.7-7.36 12.5-12.56-8.09-7.93-17.19-14.82-26.62-21.06-2.09-1.72-5.05-1.38-6.91.49zm-586.6 30.37c3.06-2.38 6.59-5.49 10.76-4.69 3.14 1.07 5.73 3.64 7.21 6.58.55 2.41-1.58 4.36-2.98 6.08-6.42 6.63-13.58 12.49-20.47 18.62-5.95 5.05-11.64 10.45-18.13 14.81-2.26 1.39-5.23 3.23-7.84 1.62-2.77-1.88-4.49-4.84-6.33-7.53 4.54-5.84 10.31-10.52 15.74-15.48 7.45-6.56 14.59-13.46 22.04-20.01z"/></g></svg>