<svg xmlns="http://www.w3.org/2000/svg" width="72" height="62"><path fill="#d52b1e" d="M8 10.389a8 8 0 0 0-8 8v36a8 8 0 0 0 8 8h12v-52zm56 0H52v52h12a8 8 0 0 0 8-8v-36a8 8 0 0 0-8-8z"/><path fill="#eee" d="M20 10.389h32v52H20z"/><path fill="#d52b1e" d="M37.23 44.615c2.396.278 4.544.528 6.938.802l-.61-2.004a.919.919 0 0 1 .318-.952l6.958-5.668-1.44-.678c-.634-.226-.46-.584-.23-1.444l1.062-3.872-4.042.854c-.394.06-.656-.19-.716-.43l-.522-1.822-3.196 3.588c-.454.576-1.374.576-1.088-.752l1.366-7.268-1.834.95c-.514.288-1.028.336-1.314-.178l-2.53-4.732v.118-.118l-2.53 4.732c-.288.514-.802.466-1.316.178l-1.832-.95 1.366 7.268c.288 1.328-.634 1.328-1.088.752l-3.196-3.586-.52 1.822c-.06.24-.324.49-.718.43l-4.042-.854 1.062 3.872c.226.86.402 1.218-.232 1.444l-1.44.678 6.958 5.668c.276.214.416.6.316.952l-.61 2.004 6.94-.802c.212 0 .352.118.35.362l-.428 7.408h1.912l-.426-7.408c.004-.246.142-.364.354-.364z"/><path fill="#f4900c" d="M72 20.054c0-2.176-.387-4.263-1.098-6.194-.485 5.689-3.518 8.611-6.687 7.25-2.969-1.275-.968-6.246-.82-8.618.249-4.021-.013-8.623-7.317-12.45 3.035 5.806.352 9.413-2.463 9.633-3.122.243-5.982-2.684-4.926-7.434-3.418 2.519-3.518 6.758-2.463 9.5 1.1 2.859-.044 5.234-2.727 5.498-2.998.296-4.663-3.21-3.127-8.796a17.872 17.872 0 0 0-4.263 11.611C36.109 29.966 44.143 38 54.054 38 63.966 38 72 29.966 72 20.054z"/><path fill="#ffcc4d" d="M65.027 25.332c.156 3.255-2.704 4.531-4.243 3.915-2.223-.89-1.627-2.419-2.199-5.585-.572-3.167-2.771-5.366-6.025-6.334 2.375 6.685-1.317 9.149-3.252 9.589-1.976.45-3.961-.001-4.188-4.23a12.627 12.627 0 0 0-3.733 8.979c0 .389.024.771.058 1.151A17.88 17.88 0 0 0 54.054 38a17.88 17.88 0 0 0 12.61-5.183c.034-.38.058-.762.058-1.151 0-2.308-.617-4.471-1.695-6.334z"/></svg>