<svg clip-rule="evenodd" fill-rule="evenodd" stroke-linejoin="round" stroke-miterlimit="2" viewBox="0 0 450 739" xmlns="http://www.w3.org/2000/svg"><g fill-rule="nonzero" transform="translate(-280.169 -130.196)"><path d="m465.1 132.16c18.12-2.39 36.6-2.65 54.79-.5 29.96 3.41 59.68 9.9 87.93 20.55 20.94 7.93 41.17 18.23 58.75 32.2 0 .69.01 2.06.02 2.75-1.26-.66-2.52-1.32-3.77-1.98-.81.71-1.63 1.41-2.43 2.12-2.75-1.81-5.53-3.55-8.2-5.46-5.71-4-12.38-6.25-18.44-9.6-7.15-4.05-14.74-7.35-22.67-9.52-4.63-1.2-8.71-3.78-13.22-5.31-26.81-9.43-54.69-15.98-82.95-19.06-14.72-1.86-29.55-.37-44.3-.06 1.71-.56 3.4-1.17 5.1-1.76-2.71-.9-5.27-2.18-7.95-3.13-2.56-.53-5.2-.12-7.79-.16l-1.26-.32c2.12-.34 4.26-.52 6.39-.76z" fill="#141414"/><path d="m459.97 133.24c2.59.04 5.23-.37 7.79.16 2.68.95 5.24 2.23 7.95 3.13-1.7.59-3.39 1.2-5.1 1.76-11.44 1-22.7 3.59-34.14 4.43-6.89-.54-13.44 2.15-20.18 3.05-7.1.93-13.09 6.28-20.41 5.78h-.72c13.09-6.25 26.96-10.76 40.98-14.42 1.32-.34 2.65-.67 4-.96 1.76-.66 3.64-.67 5.5-.72l-.21-.79c2.39-.05 4.77-.19 7.16-.25l-.18-.79c2.52-.05 5.04-.25 7.56-.38zm-11.42 143.83c17.18-2.33 34.47-3.97 51.82-3.89 6.43.29 12.88.18 19.31.59 4.48.55 8.99.88 13.5 1.14 16.1 2.26 32.38 4.59 47.67 10.36-4.17.72-8.03-1.29-11.98-2.24-18.92-4.76-38.38-7.39-57.87-8.14-11.26.22-22.57-.55-33.79.63-20.46 1.04-40.85 4.7-60.29 11.21-4.02 1.16-7.66 3.8-11.92 3.96l-.49-.67c13.97-6.43 28.97-10.19 44.04-12.95zm108.77 112.89c5.28-7.8 14.78-13.38 24.39-11.01-4.42.77-9.23-.01-13.22 2.42-4.43 1.87-7.33 5.87-11.17 8.59z" fill="#030305"/><path d="m436.47 142.72c11.44-.84 22.7-3.43 34.14-4.43 14.75-.31 29.58-1.8 44.3.06 28.26 3.08 56.14 9.63 82.95 19.06 4.51 1.53 8.59 4.11 13.22 5.31 7.93 2.17 15.52 5.47 22.67 9.52 6.06 3.35 12.73 5.6 18.44 9.6 2.67 1.91 5.45 3.65 8.2 5.46 4.27 3.48 7.77 7.79 11.25 12.03 3.97 5.04 6.54 10.96 9.61 16.55-.3 1.6-.57 3.21-.98 4.78-1.04-.49-2-1.13-2.93-1.77-.79.37-1.53.84-2.3 1.22-2.78-4.71-8.09-6.58-11.95-10.14-4.12-3.7-9.44-5.8-13.24-9.88-4.91-4.98-10.75-8.91-17.11-11.79-6.3-3.71-13.42-5.61-19.86-9.01-15.68-6.74-31.39-13.66-47.95-17.99-6.33-1.26-12.32-3.86-18.75-4.67-6.12-1.6-12.52-1.28-18.64-2.88-8.3-1.07-16.71-1.37-24.92-3.13-6.31-1.15-12.66.26-18.99.06-4.94-.19-9.78.94-14.68 1.26-11.65 1.29-23.35 2.16-34.99 3.49-9.61 1.93-19.03 4.69-28.53 7.11-5.55 1.3-10.75 3.94-16.47 4.57 1.55-2.12 2.95-4.45 5.09-6.04 3.38-1.45 7.16-1.8 10.49-3.44 5.2-2.53 10.81-4.17 15.77-7.21 4.66-2.74 10.78-2.48 14.74-6.47.35-.3 1.06-.92 1.42-1.23z" fill="#3c3b40"/><path d="m416.29 145.77c6.74-.9 13.29-3.59 20.18-3.05-.36.31-1.07.93-1.42 1.23-11.66 2.86-23.27 6.14-34.41 10.68-8.75 3.3-17.5 6.76-25.57 11.55-15.63 8.18-28.7 20.67-39.08 34.82-3.03 4.05-6.23 8.01-8.45 12.59-4.34 7.09-5.61 15.44-5.42 23.63 5.34-5.74 10-12.48 17.07-16.26 5.32-2.89 9.79-7.14 15.33-9.65 3.55-1.59 5.57-5.34 9.33-6.58 7.41-2.9 13.55-8.44 21.26-10.64 3.24-.6 7.35 1.82 9.95-.95 1.24-1.19 2.36-2.51 3.5-3.8 3.38.39 6.76.87 10.12 1.43l-.77 2.5c-1.63-.35-3.23-.8-4.84-1.22.89 2.77 2.62 5.08 5.69 5.57-2.56.18-5.65.09-6.81 2.87l2.51 2.06c-.84.38-1.67.78-2.49 1.18-.94 2.99-3.03 5.22-5.93 6.4-.65-.66-1.3-1.32-1.94-1.98 1.19-1.57 3.16-2.9 3.14-5.07-1.42-1.53-3.19-2.84-5.26-3.29-2.38.11-4.41 1.58-6.49 2.59-.28-.56-.83-1.68-1.11-2.25-1.234 2.956-2.424 5.929-3.57 8.92.62 1.38 1.25 2.77 1.87 4.16-5.68 2.2-12.57-1.17-17.68 2.71-2.74 1.81-2.46 5.19-2.38 8.04-.67-.06-2.01-.17-2.68-.23-2.26.07-3.58-2.68-5.93-2.1-4.17.45-6.97 4.01-10.65 5.67-2.91 1.31-4.66 4.04-6.9 6.16-4.9 4.53-7.55 10.8-10.36 16.7-2.42 5.06-2.92 10.72-3.6 16.21-.97.32-1.93.64-2.89.97-.2 5.11-2.99 9.64-3.5 14.7-1.01 6.6-.02 13.5-2.34 19.88-1.1 3.07-1.31 6.33-1.53 9.56l2.42.03c.01 2.24-1.48 5.38 1.01 6.8 4.02 1.58 8.45 1.83 12.41 3.62-1.84 2.4-4.07 4.48-6.77 5.88 1.24.96 2.43 2.05 3.86 2.75 3.82-.2 6.96-3.06 10.79-3.27 3.57-.08 7.06.8 10.57 1.32 3.03-2.48 6.86-3.05 10.62-2.19-.4.52-1.19 1.56-1.58 2.08.43.57.87 1.14 1.31 1.72-1.06.34-2.11.7-3.16 1.06-6.63 2.28-12.91 5.43-19.35 8.19-2.26 1.01-4.48 2.08-6.68 3.2-5.9 2.91-11.72 5.94-17.6 8.87-.24.13-.71.37-.94.49-5.33-31.71-8.83-63.85-8.09-96.03.59-7.39 1.55-14.74 2.27-22.11 1.01-6.64 1.57-13.63 4.83-19.63 4.24-6.01 9.6-11.12 14.85-16.24 19.55-18.06 42.2-32.57 66.24-43.89 2.17-.91 4.24-2.37 6.63-2.58 7.32.5 13.31-4.85 20.41-5.78z" fill="#0e0d0f"/><path d="m400.64 154.63c11.14-4.54 22.75-7.82 34.41-10.68-3.96 3.99-10.08 3.73-14.74 6.47-4.96 3.04-10.57 4.68-15.77 7.21-3.33 1.64-7.11 1.99-10.49 3.44-2.14 1.59-3.54 3.92-5.09 6.04 5.72-.63 10.92-3.27 16.47-4.57 9.5-2.42 18.92-5.18 28.53-7.11 11.64-1.33 23.34-2.2 34.99-3.49 4.9-.32 9.74-1.45 14.68-1.26 6.33.2 12.68-1.21 18.99-.06 8.21 1.76 16.62 2.06 24.92 3.13 6.12 1.6 12.52 1.28 18.64 2.88 6.43.81 12.42 3.41 18.75 4.67 16.56 4.33 32.27 11.25 47.95 17.99 6.44 3.4 13.56 5.3 19.86 9.01 6.36 2.88 12.2 6.81 17.11 11.79 3.8 4.08 9.12 6.18 13.24 9.88 3.86 3.56 9.17 5.43 11.95 10.14.77-.38 1.51-.85 2.3-1.22.93.64 1.89 1.28 2.93 1.77.41-1.57.68-3.18.98-4.78 1.98 3.8 2.88 8.01 4.11 12.08-2.32 2.46-6 4.96-9.38 3.04-5.05-3.14-10.31-6.14-14.44-10.48-5.03-5.14-11.38-8.67-16.87-13.26-5.44-3.69-11.01-7.26-16.84-10.31-2.62-1.59-4.66-4.14-7.71-4.98-10.04-3.37-20.16-6.64-29.68-11.34-10.87-5.43-22.69-8.38-34.27-11.83-7.52-2.13-15.31-3-22.86-4.97-11.09-.99-22.18-2.13-33.32-2.59-9.38-1.07-18.74.66-28.09 1.16-6.71-.43-13.18 1.82-19.86 1.9-5.08.07-9.99 1.47-15.01 2.09-3.13.45-6.59.51-9.03 2.83-6.67 1.77-13.41 3.39-19.82 6.02-6.12 2.55-12.62 4.23-18.41 7.54-16.47 7.61-32.65 16.06-47.5 26.53-4.07 3.93-8.86 6.98-13.88 9.55-.29-1.76-.57-3.52-.85-5.27 2.22-4.58 5.42-8.54 8.45-12.59 10.38-14.15 23.45-26.64 39.08-34.82 8.07-4.79 16.82-8.25 25.57-11.55z" fill="#2d2c30"/><path d="m471.9 162.4c9.35-.5 18.71-2.23 28.09-1.16 11.14.46 22.23 1.6 33.32 2.59 7.55 1.97 15.34 2.84 22.86 4.97 11.58 3.45 23.4 6.4 34.27 11.83 9.52 4.7 19.64 7.97 29.68 11.34 3.05.84 5.09 3.39 7.71 4.98 5.83 3.05 11.4 6.62 16.84 10.31 5.49 4.59 11.84 8.12 16.87 13.26 4.13 4.34 9.39 7.34 14.44 10.48 3.38 1.92 7.06-.58 9.38-3.04.63 2.26 1.45 4.52 1.56 6.89-1.35 3.03-4.38 5.75-7.92 5.23-3.56.29-5.83-2.74-8.53-4.48-4.85-3.1-9.79-6.13-14.04-10.05-8.41-7.37-18.18-13.67-29.28-15.88-3.19-.34-3.99-3.99-6.4-5.5-4.73-.89-9.6-.55-14.38-.97-.28.63-.85 1.9-1.13 2.53-3.58-5.49-9.99-7.76-15.71-10.27-1.5-.5-2.98-1.04-4.46-1.55-.44-3.93-4.8-4.75-8.06-5-3.1-.35-5.24 2.19-7.34 4.02-2.361-1.661-4.258-3.899-5.51-6.5-4.95-.73-9.96-2.22-14.98-1.27-1.72-1.69-3.81-2.86-6.25-3.01-.3-.81-.58-1.62-.87-2.42-2.56-1.04-5.29-1.57-8.03-1.87-3.34-.34-6.68-1.75-10.02-.63-1.3-.62-2.59-1.25-3.88-1.87-5.3 1.89-11.42 2.45-16.43-.54-5.49 2.19-11.21-2.45-16.61.22-3.16 1.52-6.5 2.9-10.08 2.14-1.11.73-2.21 1.47-3.3 2.22-1.2-.87-2.39-1.75-3.59-2.6-2.37 1.01-4.92.92-6.29-1.53-1.51.94-3.04 1.83-4.59 2.71-3.32 4.31-9.56 3.73-14.37 3.1-1.01.88-2 1.76-3 2.64-2.26-1.26-4.8-2.36-7.07-.49 1.44.54 2.89 1.08 4.34 1.61-6.6 1.49-13.85.51-19.91 3.92.49 1.04.99 2.08 1.49 3.12-4.26.63-8.57.65-12.81 1.39l.77-2.5c-3.36-.56-6.74-1.04-10.12-1.43-1.14 1.29-2.26 2.61-3.5 3.8-2.6 2.77-6.71.35-9.95.95-7.71 2.2-13.85 7.74-21.26 10.64-3.76 1.24-5.78 4.99-9.33 6.58-5.54 2.51-10.01 6.76-15.33 9.65-7.07 3.78-11.73 10.52-17.07 16.26-.19-8.19 1.08-16.54 5.42-23.63.28 1.75.56 3.51.85 5.27 5.02-2.57 9.81-5.62 13.88-9.55 14.85-10.47 31.03-18.92 47.5-26.53 5.79-3.31 12.29-4.99 18.41-7.54 6.41-2.63 13.15-4.25 19.82-6.02 2.44-2.32 5.9-2.38 9.03-2.83 5.02-.62 9.93-2.02 15.01-2.09 6.68-.08 13.15-2.33 19.86-1.9z" fill="#18161b"/><path d="m487.09 175.04c5.4-2.67 11.12 1.97 16.61-.22 5.01 2.99 11.13 2.43 16.43.54 1.29.62 2.58 1.25 3.88 1.87 3.34-1.12 6.68.29 10.02.63 2.74.3 5.47.83 8.03 1.87.29.8.57 1.61.87 2.42 2.44.15 4.53 1.32 6.25 3.01 5.02-.95 10.03.54 14.98 1.27 1.26 2.61 3.14 4.83 5.51 6.5 2.1-1.83 4.24-4.37 7.34-4.02 3.26.25 7.62 1.07 8.06 5 1.48.51 2.96 1.05 4.46 1.55-1.2 1.15-2.39 2.28-3.59 3.41 1.98-.21 3.98-.56 5.99-.44 2.34 1.58 3.89 4.3 6.73 5.13 2.43.83 4.44 2.45 6.64 3.7 4.41-.69 8.74-3.15 13.32-1.91 2.42.47 2.19 3.55 3.05 5.37 3.83 1.44 8.05 1.81 11.6 3.98 3.76 2.29 8.2 3.47 11.39 6.63 4.2 3.43 8.65 6.56 12.26 10.64 5.58 3.13 10.75 7 16.71 9.44 4.07 2.66 8.71-.58 13.1-.08 2.04 1.56 1.86 4.34 2.18 6.63.36 5.1 1.97 10.05 1.86 15.2-.01 5.4.06 11.25 3.72 15.63 1.07-.35 2.16-.69 3.25-1.03.78-7.12-.55-14.36 1.09-21.39 2.61 28.9.4 58.03-4.02 86.63 1.93 2.38 3.36 5.09 4.88 7.74-1.07-1.63-2.19-3.25-3.21-4.9l-.89 1.05c-.73-.59-1.46-1.18-2.19-1.73-2.21-1.47-4.61-2.58-7.02-3.63-4.5-2-8.89-4.23-13.44-6.07-8.93-3.78-18.08-6.97-27.22-10.19-8.35-2.7-16.8-5.91-25.71-5.72-6.06.04-12.06-.95-18.03-1.85-9.87-1.95-19.95-2.38-29.97-2.94-22.73-2.85-45.69-3-68.57-2.94-3.89-.36-7.76-.79-11.64-1.23 10.7-1.09 21.5.12 32.18-.96 7.85-2.01 15.99-1.32 24.01-1.72 9.87.35 19.78.27 29.58 1.68 6.08.87 12.21-.08 18.17-1.34-4.87-2-9.49-5.27-11.27-10.44.49-4.18 1.98-8.2 2.31-12.42-.88-.04-1.76-.08-2.63-.11.32-.51.95-1.52 1.26-2.03 1.17-6.48-1.3-12.96-3.56-18.94-.21-.45-.63-1.34-.84-1.78-.96-1.86-2.05-3.66-3.12-5.45-.65-1.03-1.29-2.05-2-3.03-3.59-4.68-6.84-9.87-11.81-13.23-12.56-9.73-26.98-16.96-42.07-21.85-17.75-7.11-37.73-5.75-55.82-.66-10.38 3.17-19.86 8.61-29.57 13.36-7.01 3.23-12.54 8.69-18.4 13.57-3.75 3.31-5.66 8.07-8.1 12.33-2.38 4.45-3.78 9.33-4.94 14.22-1.43 3.81-1.99 7.84-2.25 11.88-2.19 3.5-4.07 7.18-5.83 10.9 1.54-.11 3.09-.28 4.63-.49.32 1.75.82 3.5.68 5.3-.56 1.57-2.1 2.49-3.19 3.67.51.72 1.02 1.45 1.53 2.19-3.16 0-6.33-.3-9.48-.04-3.08.3-5.35 2.6-7.75 4.29-2.95 2.05-6.05 3.89-8.73 6.29.72 1.85 1.43 3.71 2.14 5.56-6.07 1.27-12.2 2.67-17.65 5.75l.6 2.13c-1 .32-2 .65-3 1-.44-.58-.88-1.15-1.31-1.72.39-.52 1.18-1.56 1.58-2.08-3.76-.86-7.59-.29-10.62 2.19-3.51-.52-7-1.4-10.57-1.32-3.83.21-6.97 3.07-10.79 3.27-1.43-.7-2.62-1.79-3.86-2.75 2.7-1.4 4.93-3.48 6.77-5.88-3.96-1.79-8.39-2.04-12.41-3.62-2.49-1.42-1-4.56-1.01-6.8l-2.42-.03c.22-3.23.43-6.49 1.53-9.56 2.32-6.38 1.33-13.28 2.34-19.88.51-5.06 3.3-9.59 3.5-14.7.96-.33 1.92-.65 2.89-.97.68-5.49 1.18-11.15 3.6-16.21 2.81-5.9 5.46-12.17 10.36-16.7 2.24-2.12 3.99-4.85 6.9-6.16 3.68-1.66 6.48-5.22 10.65-5.67 2.35-.58 3.67 2.17 5.93 2.1.67.06 2.01.17 2.68.23-.08-2.85-.36-6.23 2.38-8.04 5.11-3.88 12-.51 17.68-2.71-.62-1.39-1.25-2.78-1.87-4.16 1.14-2.99 2.34-5.96 3.57-8.92.28.57.83 1.69 1.11 2.25 2.08-1.01 4.11-2.48 6.49-2.59 2.07.45 3.84 1.76 5.26 3.29.02 2.17-1.95 3.5-3.14 5.07.64.66 1.29 1.32 1.94 1.98 2.9-1.18 4.99-3.41 5.93-6.4.82-.4 1.65-.8 2.49-1.18l-2.51-2.06c1.16-2.78 4.25-2.69 6.81-2.87-3.07-.49-4.8-2.8-5.69-5.57 1.61.42 3.21.87 4.84 1.22 4.24-.74 8.55-.76 12.81-1.39-.5-1.04-1-2.08-1.49-3.12 6.06-3.41 13.31-2.43 19.91-3.92-1.45-.53-2.9-1.07-4.34-1.61 2.27-1.87 4.81-.77 7.07.49 1-.88 1.99-1.76 3-2.64 4.81.63 11.05 1.21 14.37-3.1 1.55-.88 3.08-1.77 4.59-2.71 1.37 2.45 3.92 2.54 6.29 1.53 1.2.85 2.39 1.73 3.59 2.6 1.09-.75 2.19-1.49 3.3-2.22 3.58.76 6.92-.62 10.08-2.14z" fill="#050209"/><path d="m660.39 187.3c.8-.71 1.62-1.41 2.43-2.12 1.25.66 2.51 1.32 3.77 1.98-.01-.69-.02-2.06-.02-2.75 5.47 4.13 9.94 9.45 13.93 14.99 5.61 9.33 9.28 19.67 13.33 29.73 2.63 8.84 4.95 17.97 5 27.24-1.64 7.03-.31 14.27-1.09 21.39-1.09.34-2.18.68-3.25 1.03-3.66-4.38-3.73-10.23-3.72-15.63.11-5.15-1.5-10.1-1.86-15.2-.32-2.29-.14-5.07-2.18-6.63-4.39-.5-9.03 2.74-13.1.08-5.96-2.44-11.13-6.31-16.71-9.44-3.61-4.08-8.06-7.21-12.26-10.64-3.19-3.16-7.63-4.34-11.39-6.63-3.55-2.17-7.77-2.54-11.6-3.98-.86-1.82-.63-4.9-3.05-5.37-4.58-1.24-8.91 1.22-13.32 1.91-2.2-1.25-4.21-2.87-6.64-3.7-2.84-.83-4.39-3.55-6.73-5.13-2.01-.12-4.01.23-5.99.44 1.2-1.13 2.39-2.26 3.59-3.41 5.72 2.51 12.13 4.78 15.71 10.27.28-.63.85-1.9 1.13-2.53 4.78.42 9.65.08 14.38.97 2.41 1.51 3.21 5.16 6.4 5.5 11.1 2.21 20.87 8.51 29.28 15.88 4.25 3.92 9.19 6.95 14.04 10.05 2.7 1.74 4.97 4.77 8.53 4.48 3.54.52 6.57-2.2 7.92-5.23-.11-2.37-.93-4.63-1.56-6.89-1.23-4.07-2.13-8.28-4.11-12.08-3.07-5.59-5.64-11.51-9.61-16.55-3.48-4.24-6.98-8.55-11.25-12.03z" fill="#101010"/><path d="m461.28 242.26c10.37-2.45 21.07-3.27 31.72-3.17 15.67.09 31.61-.54 46.91 3.47 8.13 2.1 16.52 3.2 24.42 6.13 3.99 1.44 8.59 2.01 11.56 5.36.71.98 1.35 2 2 3.03-2.71 1.4-5.73 2.78-8.85 2.02-4.78-1.03-9.22-3.37-14.11-3.94-13.32-1.57-26.77-1.84-40.01-4.04-18.61-1.14-37.34.62-55.9-1.6-2.98.68-5.39 3.1-8.57 3.24-3.4.29-6.46 1.72-9.55 3.01-8.5 1.96-17.21 3.6-24.96 7.81-2.25 1.7-4.78-.01-6.74-1.27 1.16-1.86 2.37-3.68 3.68-5.43 15.54-6.56 31.92-11.07 48.4-14.62z" fill="#e5bf47"/><path d="m450.45 252.76c3.18-.14 5.59-2.56 8.57-3.24 18.56 2.22 37.29.46 55.9 1.6 13.24 2.2 26.69 2.47 40.01 4.04 4.89.57 9.33 2.91 14.11 3.94 3.12.76 6.14-.62 8.85-2.02 1.07 1.79 2.16 3.59 3.12 5.45-.5 1.13-.99 2.27-1.48 3.41-1.38-.79-2.74-1.6-4.12-2.38-.69.76-1.38 1.53-2.07 2.31-.28-.56-.83-1.67-1.11-2.23-9.77-1.04-19.45-3.11-29.3-3.09-5.99-.17-11.9-1.5-17.91-1.32-9.5.34-18.93-1.18-28.43-.68-8.56-.78-17.03 1.03-25.59.67-9.5-.34-18.5 3.61-28 3.36-6.26-.15-11.53 4.06-17.74 4.23-4.75.13-9.52 1.15-13.41 4-1.44-.2-2.89-.42-4.32-.62.07-2.71.36-5.47 1.67-7.88 1.96 1.26 4.49 2.97 6.74 1.27 7.75-4.21 16.46-5.85 24.96-7.81 3.09-1.29 6.15-2.72 9.55-3.01z" fill="#e5cc6b"/><path d="m405.18 271.79c1.16-4.89 2.56-9.77 4.94-14.22.92-.21 1.84-.44 2.76-.69-1.31 1.75-2.52 3.57-3.68 5.43-1.31 2.41-1.6 5.17-1.67 7.88 1.43.2 2.88.42 4.32.62 3.89-2.85 8.66-3.87 13.41-4 6.21-.17 11.48-4.38 17.74-4.23 9.5.25 18.5-3.7 28-3.36 8.56.36 17.03-1.45 25.59-.67 9.5-.5 18.93 1.02 28.43.68 6.01-.18 11.92 1.15 17.91 1.32 9.85-.02 19.53 2.05 29.3 3.09.28.56.83 1.67 1.11 2.23.69-.78 1.38-1.55 2.07-2.31 1.38.78 2.74 1.59 4.12 2.38.49-1.14.98-2.28 1.48-3.41.21.44.63 1.33.84 1.78-.33 2.05-.42 4.13-.43 6.2-2.53 1.24-5.31 1.79-7.94.56-2.05 2.02-4.88 2.6-7.58 3.2l1.22 1.02c-2.93.51-5.78 1.37-8.64 2.12-.29-.06-.86-.2-1.15-.26-.35-.62-1.06-1.85-1.41-2.47-5.33-1.94-12.12.12-16.3-4.49-8.08-.78-16.11-1.97-24.15-2.94-6.38-2.2-13.01.34-19.53-.58-5.04-.67-9.99.75-15 .97-6.56.2-13.08.91-19.61 1.58-4.28.41-7.82 3.25-12.05 3.88-6.97 1.13-14.02 1.82-20.97 3.08-4.07.76-8.05 2.11-12.22 2.28-2.69.11-5.36.49-7.98 1.09-1.06-1.93-2.14-3.85-3.12-5.82.05-.48.14-1.45.19-1.94z" fill="#e2d498"/><path d="m581.42 270.51c.01-2.07.1-4.15.43-6.2 2.26 5.98 4.73 12.46 3.56 18.94-1.11-.89-2.1-1.95-3.41-2.54-4.86-2.07-9.71-4.23-14.88-5.42l-1.22-1.02c2.7-.6 5.53-1.18 7.58-3.2 2.63 1.23 5.41.68 7.94-.56z" fill="#eadfaf"/><path d="m480.94 267.64c5.01-.22 9.96-1.64 15-.97 6.52.92 13.15-1.62 19.53.58 8.04.97 16.07 2.16 24.15 2.94 4.18 4.61 10.97 2.55 16.3 4.49.35.62 1.06 1.85 1.41 2.47-10.35-1.79-20.8-3.38-31.3-3.9 2.39.51 4.76 1.12 7.15 1.66-4.51-.26-9.02-.59-13.5-1.14 1.2-.52 2.4-1.04 3.59-1.59-7.6-.28-15.57-1.6-22.9 1-17.35-.08-34.64 1.56-51.82 3.89-2.53-.27-5.09-.13-7.58.45-7.2 1.51-14.4 3.13-21.43 5.36-5.38 1.68-10.5 4.08-15.87 5.81-.47-5.04.45-10.02 1.32-14.96.98 1.97 2.06 3.89 3.12 5.82 2.62-.6 5.29-.98 7.98-1.09 4.17-.17 8.15-1.52 12.22-2.28 6.95-1.26 14-1.95 20.97-3.08 4.23-.63 7.77-3.47 12.05-3.88 6.53-.67 13.05-1.38 19.61-1.58z" fill="#d4cbaa"/><path d="m402.93 283.67c.26-4.04.82-8.07 2.25-11.88-.05.49-.14 1.46-.19 1.94-.87 4.94-1.79 9.92-1.32 14.96.21.33.63 1 .84 1.33l.49.67c-1.02-.03-2.04-.06-3.05-.1.4-2.3.76-4.6.98-6.92z" fill="#5e594d"/><path d="m500.37 273.18c7.33-2.6 15.3-1.28 22.9-1-1.19.55-2.39 1.07-3.59 1.59-6.43-.41-12.88-.3-19.31-.59z" fill="#e2dbc5"/><path d="m526.03 273.25c10.5.52 20.95 2.11 31.3 3.9.29.06.86.2 1.15.26 6.11 1.59 12.27 3.02 18.34 4.81 2.09.58 3.94 1.75 5.67 3.05h-1.64c-15.29-5.77-31.57-8.1-47.67-10.36-2.39-.54-4.76-1.15-7.15-1.66zm-85.06 4.27c2.49-.58 5.05-.72 7.58-.45-15.07 2.76-30.07 6.52-44.04 12.95-.21-.33-.63-1-.84-1.33 5.37-1.73 10.49-4.13 15.87-5.81 7.03-2.23 14.23-3.85 21.43-5.36zm-22.31 248.19c17.73-10.22 38.17-14.6 58.33-16.71 9.78-1.2 19.63-.06 29.44-.44l.18.84c5.94-.11 11.87.22 17.81.26l-.01.84c4.52.03 9.18.58 13.5 1.86 1.19.06 2.38.11 3.59.14l-.05 1.01c1.66 0 3.33.02 5.01.04l-.01.85c2.61.13 5.14.78 7.67 1.36 11.14 3.36 22.52 7.23 31.74 14.56l.78.12-.26 1.17 1.28-.13c.25 2.84-.82 5.37-2.76 7.41l-1.29-1.09c-.08-1.17-.12-2.34-.15-3.49-3.62-.06-7.3.26-10.8-.85.54-1.58 2.43-3.03 1.78-4.83-4.23-.78-8.56-.52-12.83-.74-.45-1.73-.85-3.5-1.61-5.12-1.71-1.21-3.69.96-5.59.76-4.8-.8-9.34-2.65-14.05-3.8.87-.72 1.75-1.41 2.63-2.12-5.02.36-10.07.63-15.08 0-6.4-.87-12.89-.21-19.29-1.14-5.49-.87-10.78 2.55-16.23.68-5.81.08-11.96-1.96-17.46.61-4.07 1.44-8.31 2.34-12.3 4.01 1.46.97 2.93 1.95 4.41 2.91 1.18-.39 2.36-.87 3.6-1.04 3.07 1.12 5.95 2.74 9.05 3.83-.86.42-1.72.85-2.57 1.28 2.81.49 5.62.96 8.43 1.44-.4.93-.8 1.86-1.2 2.81 5.09.15 10.29-1.33 15.3.03 2.69.52 3.48 3.53 4.82 5.52-9.53.12-19.05-.41-28.48-1.79-12.16-.83-24.36-.93-36.51-1.95-4.38-.32-8.78-.3-13.15-.74-3.26-.74-8.11.76-9.85-2.98-.2-2.03.08-4.47 2.18-5.38z" fill="#fdfcf0"/><path d="m477.21 275.52c11.22-1.18 22.53-.41 33.79-.63 19.49.75 38.95 3.38 57.87 8.14 3.95.95 7.81 2.96 11.98 2.24h1.64c.41 0 1.25.01 1.66.01.87.03 1.75.07 2.63.11-.33 4.22-1.82 8.24-2.31 12.42 1.78 5.17 6.4 8.44 11.27 10.44-5.96 1.26-12.09 2.21-18.17 1.34-9.8-1.41-19.71-1.33-29.58-1.68-8.02.4-16.16-.29-24.01 1.72-10.68 1.08-21.48-.13-32.18.96 3.88.44 7.75.87 11.64 1.23-4.28.18-8.56.36-12.83.19-2.5-.62-5.03-1.17-7.61-1.08-15.91.22-31.93.46-47.63 3.29-1.06-.57-2.12-1.12-3.17-1.68 1-.55 2.01-1.11 3.02-1.66-3.46-1.96-6.78.52-10.18 1.2-2.72-.18-5.33-1.09-8.05-1.18-2.52.81-4.85 2.09-7.28 3.11-1.34-3.19-4.83-3.75-7.81-4.55.33-1.63.62-3.37 2.08-4.41 2.57-2 3.66-5.09 4.69-8.05-1.81-2.06-3.96-4.29-6.94-2.92-1.54.21-3.09.38-4.63.49 1.76-3.72 3.64-7.4 5.83-10.9-.22 2.32-.58 4.62-.98 6.92 1.01.04 2.03.07 3.05.1 4.26-.16 7.9-2.8 11.92-3.96 19.44-6.51 39.83-10.17 60.29-11.21m-6.02 4.36c-6.95-1.44-13.95.72-20.81 1.66-7.74.79-15.24 2.96-22.78 4.77-5.64.45-11.15 2.47-15.21 6.5 1.31 2.54 1.86 5.35 1.84 8.2.13 1.9.14 4.63 2.15 5.53 11.65 1.7 23.03-3.34 34.68-1.91 9.32.24 18.72.55 27.99-.68 5.66-.63 11.3.52 16.97.34 4.45-.09 8.8 1.93 13.26.95 3.33-.76 6.74-.8 10.14-.83 11.8-1.42 23.71-.46 35.56-.67 8.57-.17 17.3.57 25.74-1.33.8-5.24 4.23-9.74 4.2-15.12-1.86.07-3.79.14-5.38 1.21-2.16 1.85-4.56-.21-6.61-1.12-.83.16-1.65.34-2.46.52-12.08-3-24.23-6.94-36.79-6.85-5.45-.67-10.93-1.22-16.39-1.8-7.86-1.23-16-1.01-23.9-.34-7.38-.81-14.92-.45-22.2.97z" fill="#201815"/><path d="m567.12 275.29c5.17 1.19 10.02 3.35 14.88 5.42 1.31.59 2.3 1.65 3.41 2.54-.31.51-.94 1.52-1.26 2.03-.41 0-1.25-.01-1.66-.01-1.73-1.3-3.58-2.47-5.67-3.05-6.07-1.79-12.23-3.22-18.34-4.81 2.86-.75 5.71-1.61 8.64-2.12z" fill="#dcd4ad"/><path d="m471.19 279.88c7.28-1.42 14.82-1.78 22.2-.97-2.32.57-4.61 1.26-6.9 1.93.3.68.61 1.36.92 2.05-1.611 1.453-3.172 2.96-4.68 4.52 1.62.36 3.25.71 4.88 1.08.77 1.51 1.51 3.05 2.3 4.56 6.2 1.58 12.08 5.53 18.71 4.51 6.07-.66 12.28-.25 18.24-1.84 9.37-2.55 19.94-.53 28.27-6.49-.51-1.22-1.01-2.43-1.51-3.65-4.14-1.39-8.4-2.39-12.73-2.9-2.44-.38-4.83-1.03-7.21-1.63 12.56-.09 24.71 3.85 36.79 6.85.04 1.46.08 2.92.13 4.38-2.61.13-5.26.46-7.6 1.71-7.11 3.44-14.95 6.23-22.97 5.36-9.71-.08-19.32 1.95-29.04 1.88-12.77.31-25.66-.83-38.01-4.15-3.82-.83-7.71-1.21-11.59-1.58-3.59-.29-6.81-2.15-10.39-2.5-6.24-.79-12.66-.05-18.77-1.85 2.95-3.31 7.47-4.11 11.51-5.37 9.11-2.11 18.5-3.13 27.45-5.9z" fill="#3e3c40"/><path d="m450.38 281.54c6.86-.94 13.86-3.1 20.81-1.66-8.95 2.77-18.34 3.79-27.45 5.9-4.04 1.26-8.56 2.06-11.51 5.37 6.11 1.8 12.53 1.06 18.77 1.85 3.58.35 6.8 2.21 10.39 2.5 3.88.37 7.77.75 11.59 1.58 12.35 3.32 25.24 4.46 38.01 4.15 9.72.07 19.33-1.96 29.04-1.88 8.02.87 15.86-1.92 22.97-5.36 2.34-1.25 4.99-1.58 7.6-1.71-.05-1.46-.09-2.92-.13-4.38.81-.18 1.63-.36 2.46-.52 2.05.91 4.45 2.97 6.61 1.12 1.59-1.07 3.52-1.14 5.38-1.21.03 5.38-3.4 9.88-4.2 15.12-8.44 1.9-17.17 1.16-25.74 1.33-11.85.21-23.76-.75-35.56.67-3.4.03-6.81.07-10.14.83-4.46.98-8.81-1.04-13.26-.95-5.67.18-11.31-.97-16.97-.34-9.27 1.23-18.67.92-27.99.68-11.65-1.43-23.03 3.61-34.68 1.91-2.01-.9-2.02-3.63-2.15-5.53.02-2.85-.53-5.66-1.84-8.2 4.06-4.03 9.57-6.05 15.21-6.5 7.54-1.81 15.04-3.98 22.78-4.77z" fill="#312c2e"/><path d="m493.39 278.91c7.9-.67 16.04-.89 23.9.34-4.39 1.69-8.46 4.22-11.76 7.6 4.1 1.55 7.86 4.97 12.51 4.31 9.11-1.18 18.53-.85 27.17-4.43-1.23-.44-2.46-.88-3.68-1.31-.16-.69-.48-2.06-.64-2.74 4.33.51 8.59 1.51 12.73 2.9.5 1.22 1 2.43 1.51 3.65-8.33 5.96-18.9 3.94-28.27 6.49-5.96 1.59-12.17 1.18-18.24 1.84-6.63 1.02-12.51-2.93-18.71-4.51-.79-1.51-1.53-3.05-2.3-4.56-1.63-.37-3.26-.72-4.88-1.08 1.51-1.56 3.07-3.07 4.68-4.52-.31-.69-.62-1.37-.92-2.05 2.29-.67 4.58-1.36 6.9-1.93z" fill="#4d4a4e"/><path d="m505.53 286.85c3.3-3.38 7.37-5.91 11.76-7.6 5.46.58 10.94 1.13 16.39 1.8 2.38.6 4.77 1.25 7.21 1.63.16.68.48 2.05.64 2.74 1.22.43 2.45.87 3.68 1.31-8.64 3.58-18.06 3.25-27.17 4.43-4.65.66-8.41-2.76-12.51-4.31z" fill="#5a575d"/><path d="m401.73 294.08c2.98-1.37 5.13.86 6.94 2.92-1.03 2.96-2.12 6.05-4.69 8.05-1.46 1.04-1.75 2.78-2.08 4.41 2.98.8 6.47 1.36 7.81 4.55 2.43-1.02 4.76-2.3 7.28-3.11 2.72.09 5.33 1 8.05 1.18 3.4-.68 6.72-3.16 10.18-1.2-1.01.55-2.02 1.11-3.02 1.66 1.05.56 2.11 1.11 3.17 1.68-.45.08-1.35.25-1.8.33-12.04 1.44-24.51 1.55-35.9 6.17-12.76 1.98-25.52 4.38-37.79 8.5l-.6-2.13c5.45-3.08 11.58-4.48 17.65-5.75-.71-1.85-1.42-3.71-2.14-5.56 2.68-2.4 5.78-4.24 8.73-6.29 2.4-1.69 4.67-3.99 7.75-4.29 3.15-.26 6.32.04 9.48.04-.51-.74-1.02-1.47-1.53-2.19 1.09-1.18 2.63-2.1 3.19-3.67.14-1.8-.36-3.55-.68-5.3z" fill="#190d0e"/><path d="m435.37 314.22c15.7-2.83 31.72-3.07 47.63-3.29 2.58-.09 5.11.46 7.61 1.08-18.36.27-36.77.86-54.96 3.53l-2.08-.99c.45-.08 1.35-.25 1.8-.33z" fill="#0c0401"/><path d="m435.65 315.54c18.19-2.67 36.6-3.26 54.96-3.53 4.27.17 8.55-.01 12.83-.19 22.88-.06 45.84.09 68.57 2.94-1.72.48-3.42 1.03-5.12 1.57-5.25-1.11-10.61-1.53-15.96-1.85-16.75-.56-33.51-1.58-50.28-1.01-13.87.36-27.79.1-41.61 1.52-3.33.35-6.67.44-10 .71-4.38.32-8.57 1.84-12.96 2.01-1.06-.24-2.09-.53-3.12-.82.67-.34 2.02-1.01 2.69-1.35z" fill="#fffccc"/><path d="m500.65 313.47c16.77-.57 33.53.45 50.28 1.01 5.35.32 10.71.74 15.96 1.85-1.63 2.7-2.47 5.75-2.54 8.9 9.24 3.85 19.24 5.79 28.19 10.39-7.78-.96-14.66-5.42-22.55-5.8-3.36-.07-6.22-1.92-9-3.58-1.1 1.62-2.19 3.24-3.28 4.86-.35-1.37-.7-2.73-1.05-4.09-3.32.35-6.65.54-9.98.29-5.25-.41-10.46.75-15.71.48-5.35-.1-10.64-1.41-16.01-1.04-3.67.25-7.3.91-10.98.97-8.88-.12-17.71 1.99-26.59.7-10.12-1.49-20.31-.12-30.44.48-3.27.21-6.23 1.72-9.25 2.82-5.03 1.96-10.52 1.62-15.77 2.4-1.83.18-3.66.24-5.49.34 6.81-2.9 14.07-4.54 20.96-7.12 2.79-2.68-.13-6.79-1.32-9.62 4.39-.17 8.58-1.69 12.96-2.01 3.33-.27 6.67-.36 10-.71 13.82-1.42 27.74-1.16 41.61-1.52z" fill="#f9f299"/><path d="m397.67 320.72c11.39-4.62 23.86-4.73 35.9-6.17l2.08.99c-.67.34-2.02 1.01-2.69 1.35 1.03.29 2.06.58 3.12.82 1.19 2.83 4.11 6.94 1.32 9.62-6.89 2.58-14.15 4.22-20.96 7.12-2.74.95-5.34 2.26-7.92 3.58-7.48 3.72-14.77 7.88-21.34 13.05l-1.37.08c1.01-1.54 2.06-3.07 3.1-4.59-2.23.77-4.41 1.74-6.71 2.3-2.42-.08-4.68-1.14-6.98-1.81-1.12 1.7-2.25 3.4-3.39 5.1-2.41-2.35-2.1-5.64-1.79-8.68 1.83-1.92 3.59-3.91 5.44-5.8 2.59-2.55 5.42-4.84 8.24-7.14 2.29-1.76 4.65-3.43 7.09-4.99 2.74-1.3 5.47-2.63 8.18-3.99z" fill="#623e13"/><path d="m572.01 314.76c10.02.56 20.1.99 29.97 2.94 3.54 3.07 8.17 4.41 12.08 6.93 2.26 1.41 4.46 2.94 6.57 4.57 3.46 2.81 6.85 5.74 9.92 8.98 1.55 1.66 3.08 3.35 4.68 4.98-3.83.32-6.34-2.49-8.44-5.23-.05.97-.12 1.93-.16 2.9-.68-.67-1.36-1.33-2.04-1.98-.85.03-1.7.06-2.54.1-.66-1.25-1.22-2.55-1.85-3.8-1.59 3.75-5.74 4.6-9.26 5.63-.35-.63-.7-1.26-1.05-1.88-1.02 1.55-2.05 3.09-3.07 4.64-4.66-2.81-9.38-5.55-14.28-7.92-8.95-4.6-18.95-6.54-28.19-10.39.07-3.15.91-6.2 2.54-8.9 1.7-.54 3.4-1.09 5.12-1.57z" fill="#623d13"/><path d="m614.06 324.63c-3.91-2.52-8.54-3.86-12.08-6.93 5.97.9 11.97 1.89 18.03 1.85 8.91-.19 17.36 3.02 25.71 5.72 9.14 3.22 18.29 6.41 27.22 10.19-4.63.64-8.66-2.23-13.01-3.24-7.57-1.93-15.06-4.21-22.77-5.56-.64.29-1.28.58-1.92.88.12-.72.25-1.44.39-2.15-3.17-.75-6.43-.86-9.67-.87-3.36-.01-6.45-1.45-9.6-2.4-.57.62-1.73 1.88-2.3 2.51z" fill="#f4eeaa"/><path d="m359.88 329.22c12.27-4.12 25.03-6.52 37.79-8.5l1.32.84c-2.712 1.36-5.439 2.69-8.18 3.99-6.61-.64-13.14.87-19.21 3.4-5.16.97-10.28 2.29-15.08 4.46-.94-.71-1.87-1.42-2.8-2.13 1.05-.36 2.1-.72 3.16-1.06 1-.35 2-.68 3-1z" fill="#d7c592"/><path d="m616.36 322.12c3.15.95 6.24 2.39 9.6 2.4 3.24.01 6.5.12 9.67.87-.14.71-.27 1.43-.39 2.15.64-.3 1.28-.59 1.92-.88 7.71 1.35 15.2 3.63 22.77 5.56 4.35 1.01 8.38 3.88 13.01 3.24 4.55 1.84 8.94 4.07 13.44 6.07-1.81-.22-3.61-.38-5.41-.54-.25.49-.75 1.46-1 1.95-13.76-.93-26.63-6.65-39.86-10.13-4.72-1.85-9.44-3.75-14.45-4.64-1.77-.59-3.45.39-5.03 1.03-2.113-1.632-4.305-3.157-6.57-4.57.57-.63 1.73-1.89 2.3-2.51z" fill="#f1de8c"/><path d="m371.6 328.95c6.07-2.53 12.6-4.04 19.21-3.4-2.44 1.56-4.8 3.23-7.09 4.99-4.01-.78-8.06-1.27-12.12-1.59z" fill="#f5e09d"/><path d="m560.99 326.24c2.78 1.66 5.64 3.51 9 3.58 7.89.38 14.77 4.84 22.55 5.8 4.9 2.37 9.62 5.11 14.28 7.92.46.3 1.37.88 1.83 1.17-5.96-.4-10.26-5.49-16.25-5.79-.02 1.22-.03 2.44-.05 3.66-.88-.12-1.75-.23-2.62-.33-1.02 2.99-1.76 6.22-3.79 8.72-1.54.76-3.29.96-4.92 1.4-2.22 4.49-3.18 9.58-3.06 14.57.55 3.49 4.44 4.63 7.02 6.37-2.81.44-5.59 1.02-8.3 1.9 6.03 2.42 12.77 3.83 17.22 9 5.12 5.51 10.23 12.4 9.38 20.36-2.1-7.09-5.1-14.19-10.5-19.41-3.09-2.93-6.76-5.6-11.07-6.21-9.61-2.37-19.11 3.21-24.39 11.01-4.3 5.45-6.3 12.35-7.38 19.11-.62-1.07-1.24-2.12-1.86-3.18-.51 1.75-1.01 3.51-1.5 5.27-.9.14-1.78.29-2.66.44-.45-.58-.9-1.16-1.33-1.73-5.86 1.95-12.37.52-16.93-3.61 1.41-1.62 2.83-3.24 4.24-4.85-2-.68-4-1.36-6-2.03 1.4-2.11 3.05-4.09 4.05-6.44.96-2.75.87-5.71 1.07-8.57-2.02-.26-4.03-.5-6.05-.73-.34-1.42-.79-2.85-.79-4.32 1.47-.84 3.07-1.43 4.64-2.07.37-3.33.28-6.72-.82-9.91-.61 2.57-1.09 5.18-1.58 7.78-.79-2.32-1.47-4.68-2.06-7.06-1.69.05-3.44-.22-5.06.3-2.57 2.24-4.96 4.83-8.32 5.9-3.65.11-6.69 2.34-10.11 3.35-1.66-2.41-3.58-5.28-6.83-5.41-6.25-.3-13.21-1.5-18.7 2.29-.2-.5-.6-1.52-.8-2.03-2.33 1.36-4.7 2.67-7.15 3.79-.25-2.58-.48-5.15-.7-7.72-1.26-.46-2.51-.91-3.75-1.35 1.23-1.17 2.55-2.25 3.58-3.61 1.36-3.58.66-7.86-2.58-10.16-.51 1.81-1 3.64-1.48 5.47-8.88-1.18-17.99-1.2-26.62-3.82-3.47-.81-4.96-4.36-7.16-6.77.85-1.25 2.8-2.29 2.17-4.04-1.29-3.12-3.56-5.7-4.93-8.78-.66-.47-1.32-.93-1.99-1.36 5.25-.78 10.74-.44 15.77-2.4 3.02-1.1 5.98-2.61 9.25-2.82 10.13-.6 20.32-1.97 30.44-.48 8.88 1.29 17.71-.82 26.59-.7 3.68-.06 7.31-.72 10.98-.97 5.37-.37 10.66.94 16.01 1.04 5.25.27 10.46-.89 15.71-.48 3.33.25 6.66.06 9.98-.29.35 1.36.7 2.72 1.05 4.09 1.09-1.62 2.18-3.24 3.28-4.86z" fill="#fdf379"/><path d="m620.63 329.2c1.58-.64 3.26-1.62 5.03-1.03 5.01.89 9.73 2.79 14.45 4.64 13.23 3.48 26.1 9.2 39.86 10.13v1c-.71 1.59-1.47 3.59-3.49 3.76-7.9.59-14.97-3.7-22.38-5.64-3.94-1.08-8.86.21-11.89-3.12-.85-.81-1.61-1.71-2.39-2.57-3.2-.21-6.63-.36-9.27 1.81-3.07-3.24-6.46-6.17-9.92-8.98z" fill="#f9de6c"/><path d="m356.52 333.41c4.8-2.17 9.92-3.49 15.08-4.46 4.06.32 8.11.81 12.12 1.59-2.82 2.3-5.65 4.59-8.24 7.14-.01-1.2-.02-2.4-.02-3.59-.58.38-1.16.76-1.73 1.14-.61-.19-1.21-.37-1.82-.55-4.58 1.62-9.66 1.77-13.9 4.32-5.21 2.65-10.58 5-15.99 7.19-2.35 1.04-4.24-.83-5.83-2.26 3.04-1.49 6.25-2.7 8.97-4.75 3.44-2.55 7.46-4.08 11.36-5.77z" fill="#f8dd79"/><path d="m334.37 339.47c6.44-2.76 12.72-5.91 19.35-8.19.93.71 1.86 1.42 2.8 2.13-3.9 1.69-7.92 3.22-11.36 5.77-2.29.3-4.6.65-6.71 1.62-1.02-.33-3.06-1-4.08-1.33z" fill="#ccb967"/><path d="m358.01 339c4.24-2.55 9.32-2.7 13.9-4.32.61.18 1.21.36 1.82.55.57-.38 1.15-.76 1.73-1.14 0 1.19.01 2.39.02 3.59-1.85 1.89-3.61 3.88-5.44 5.8-7.05 7.25-12.68 16-16.02 25.56-.37-.44-1.11-1.34-1.48-1.79 1.13-3.48 2.68-6.89 2.57-10.64-3.36.16-4.11 3.58-5.33 6.05-.58-.78-1.15-1.55-1.71-2.32-3.73-.4-7.32.65-10 3.34-1-.43-1.99-.87-2.98-1.3-1.24.92-2.48 1.83-3.72 2.75-1.9-5.99-2.14-12.4-4.2-18.39 1.36-.64 2.7-1.33 4.03-2.03 2.43-1.28 4.81-2.64 7.25-3.91 2.11-.97 4.42-1.32 6.71-1.62-2.72 2.05-5.93 3.26-8.97 4.75 1.59 1.43 3.48 3.3 5.83 2.26 5.41-2.19 10.78-4.54 15.99-7.19z" fill="#fad24d"/><path d="m408.52 338.03c2.58-1.32 5.18-2.63 7.92-3.58 1.83-.1 3.66-.16 5.49-.34.67.43 1.33.89 1.99 1.36 1.37 3.08 3.64 5.66 4.93 8.78.63 1.75-1.32 2.79-2.17 4.04 2.2 2.41 3.69 5.96 7.16 6.77 8.63 2.62 17.74 2.64 26.62 3.82.48-1.83.97-3.66 1.48-5.47 3.24 2.3 3.94 6.58 2.58 10.16-1.03 1.36-2.35 2.44-3.58 3.61 1.24.44 2.49.89 3.75 1.35.22 2.57.45 5.14.7 7.72 2.45-1.12 4.82-2.43 7.15-3.79.2.51.6 1.53.8 2.03 5.49-3.79 12.45-2.59 18.7-2.29 3.25.13 5.17 3 6.83 5.41 3.42-1.01 6.46-3.24 10.11-3.35 3.36-1.07 5.75-3.66 8.32-5.9 1.62-.52 3.37-.25 5.06-.3.59 2.38 1.27 4.74 2.06 7.06.49-2.6.97-5.21 1.58-7.78 1.1 3.19 1.19 6.58.82 9.91-1.57.64-3.17 1.23-4.64 2.07 0 1.47.45 2.9.79 4.32 2.02.23 4.03.47 6.05.73-.2 2.86-.11 5.82-1.07 8.57-1 2.35-2.65 4.33-4.05 6.44 2 .67 4 1.35 6 2.03-1.41 1.61-2.83 3.23-4.24 4.85 4.56 4.13 11.07 5.56 16.93 3.61.43.57.88 1.15 1.33 1.73.88-.15 1.76-.3 2.66-.44-.43 1.52-.86 3.04-1.19 4.59-.17.78-.51 2.32-.68 3.09-.92-1.79-1.93-3.53-3.02-5.21-.41 1.66-.78 3.34-1.15 5.01-4.79.45-9.58 1.63-14.4 1.18-1.97 0-2.58-1.89-3.2-3.37-2.3-.97-5.38-1.43-6.36-4.08-1.34-2.63-.97-6.5-3.94-7.98-2.8-.74-5.76-.69-8.62-.44-2.65.04-4.29 2.39-6.15 3.93-1.34-1.35-2.7-2.68-4.03-4.02-.44 1.25-.87 2.51-1.29 3.78-1.2-.31-2.4-.63-3.58-.94.36-2.06.73-4.12 1.1-6.17.93.3 1.86.61 2.79.93.87-.83 1.86-1.54 2.65-2.45-.43-4.97-1.59-9.87-1.77-14.87-5.51-.36-11.03-.31-16.53.07-.16 2.83-.31 5.65-.47 8.49-2.45.17-4.95.09-7.33.76-1.68 1.27-2.95 2.98-4.32 4.55-1.14-.85-2.27-1.7-3.4-2.53-2.8 2.91-6.38 4.81-10.02 6.46 3.27.79 6.8.74 9.82 2.37-1.85.36-3.7.65-5.56.94 3.78 4.63 3.23 11.53.5 16.53.28-4.68.15-9.36-.24-14.02-6.61.14-13.22.08-19.83.29-11.5-.18-23 .05-34.49-.01l.06-1.28c.29-.2.85-.59 1.13-.79 7.56.46 15.48.82 22.66-2.03-1.23-1.22-2.45-2.45-3.68-3.65l3.03-.2c.71-.04 2.13-.13 2.84-.18 1.88-2.47 4.01-4.79 5.43-7.56 1.07-2.06 1.22-4.51 2.54-6.44 1.42-1.25 3.27-1.84 4.96-2.65.13-5.73 1.03-11.75-.74-17.29-2.44-2.69-6.2-3.68-9.27-5.49-3.36.04-6.72.03-10.06-.26-3.18-.27-6.07-1.62-8.71-3.33.7-1.78 1.12-3.85 2.85-4.95 3.08-2.33 5.66-5.22 7.93-8.33-1.77-2.58-3.66-5.06-5.73-7.4-2.83.76-5.71 1.3-8.59 1.82z" fill="#fef16d"/><path d="m620.2 335.15c.63 1.25 1.19 2.55 1.85 3.8.84-.04 1.69-.07 2.54-.1.68.65 1.36 1.31 2.04 1.98.04-.97.11-1.93.16-2.9 2.1 2.74 4.61 5.55 8.44 5.23 5.12 4.87 8.91 10.93 12.43 17.02 3.34 6.4 6.15 13.41 5.93 20.76-1.29.89-2.6 1.74-3.9 2.59-.29-.15-.88-.45-1.18-.61-4.05-3.44-6.92-7.97-10.47-11.88-4.98-5.58-10.14-11.01-15.8-15.9-4.21-3.87-8.7-7.47-13.59-10.43-.46-.29-1.37-.87-1.83-1.17 1.02-1.55 2.05-3.09 3.07-4.64.35.62.7 1.25 1.05 1.88 3.52-1.03 7.67-1.88 9.26-5.63z" fill="#704912"/><path d="m408.52 338.03c2.88-.52 5.76-1.06 8.59-1.82 2.07 2.34 3.96 4.82 5.73 7.4-2.27 3.11-4.85 6-7.93 8.33-1.73 1.1-2.15 3.17-2.85 4.95 2.64 1.71 5.53 3.06 8.71 3.33 2.62.86 4.51 2.89 6.02 5.11.67.17 1.35.33 2.03.5.53 3.49.58 7.03-.06 10.51-2.47.84-4.92 1.72-7.35 2.65.67.83 1.34 1.65 2.02 2.49-1.02 1.31-2.18 2.54-2.88 4.06 1.08 4.01 3.84 7.3 5.96 10.81-.48 1.24-.96 2.49-1.44 3.74l-3.03.2c1.23 1.2 2.45 2.43 3.68 3.65-7.18 2.85-15.1 2.49-22.66 2.03.2-1.92.38-3.83.52-5.75-2.23.72-4.45 1.44-6.67 2.19 3.22-5.2 1.83-11.43 2.08-17.19.8-.65 1.61-1.28 2.43-1.92-.38-.78-.75-1.56-1.12-2.33.87-1 1.75-1.99 2.62-2.98-2.49-.59-5.02-.94-7.57-1.12.51 1.34 1.04 2.67 1.56 4.02-.53-.08-1.61-.23-2.14-.31-.98-1.41-1.19-4.3-3.5-3.93-5.29.19-10.55 1.01-15.85.85-.27-2.71-1.03-5.55-.17-8.22 1.45-2.36 3.91-3.83 6.02-5.53-.14-1.36-.28-2.72-.41-4.08-4.98 6.88-12.99 10.78-17.67 17.97-1.55 1.97-3.27 3.81-4.94 5.69-2.15-.49-4.92-.24-6.32-2.29-1.74-2.68-1.22-6.15.61-8.63.18 2.92-1.45 7.56 2.24 8.83 1.49.88 3.04-.38 4.15-1.31 2.76-2.59 4.88-5.76 7.39-8.58 6.24-7.46 13.43-14.03 20.86-20.27 6.57-5.17 13.86-9.33 21.34-13.05z" fill="#fde55c"/><path d="m630.55 338.18c2.64-2.17 6.07-2.02 9.27-1.81.78.86 1.54 1.76 2.39 2.57 3.03 3.33 7.95 2.04 11.89 3.12 7.41 1.94 14.48 6.23 22.38 5.64 2.02-.17 2.78-2.17 3.49-3.76-.05 1.57.2 3.19-.21 4.73-1.46 1.23-3.11 2.17-4.69 3.2l2.26.4c-3.09 1.01-8.5.12-8.68 4.66-1.18 4.34 3.97 6.4 5.89 9.57l-.16 2.35c-2.39-.85-4.75-1.73-7.11-2.64-1.45 2.76.73 5.34 1.44 7.95 1.12 2.7-.85 5.32-1.68 7.81.83 1.87 1.66 3.74 2.45 5.64.62-1.45 1.29-2.89 2.23-4.16.18 6.01-.21 12.05.89 18.01-1.18.82-2.34 1.64-3.51 2.46 1.56 2.78 3.41 5.89 2.07 9.17-2.06 6.06-2.47 12.45-2.32 18.82-.68-.04-2.04-.1-2.72-.13-.51-5.07 1.2-11.24-2.73-15.29-3.32-.76-6.76-.56-10.13-.69-.19-2.67-.39-5.33-.61-7.99-4.24 1.23-5.92 5.65-7.33 9.39-.82 4.91-.07 9.93-.44 14.89-1.57-.07-3.14-.07-4.68-.28-2.04-1.72-2.33-4.94-4.42-6.51-5.42-1.02-10.96-.13-16.4.26-1.24-.93-2.46-1.87-3.68-2.8-4.24 4.2-6.45 10.04-11.12 13.83-3.58 3-6.26 6.86-9.11 10.51-.57.72-1.12 1.45-1.66 2.19l-1.01-1.73c.52-.63 1.05-1.24 1.59-1.83 8.86-10.31 11.51-24.88 9.19-38.03-.11-1.05-.21-2.09-.3-3.13.85-7.96-4.26-14.85-9.38-20.36.56-1.96 1.93-4.07 1.07-6.15-1.42-1.55-3.51-2.23-5.29-3.24.75-1.83 1.51-3.66 2.26-5.5-3.74-2.14-3.02-6.5-2.82-10.13 4.35-.45 8.56-1.73 12.91-2.16 2.92-.08 4.18 3.14 6.07 4.83 1.31 2.07 3.87 2 5.99 2.53 2.4.3 4.09 2.2 5.93 3.59.79-1.2 1.52-2.43 2.33-3.62 1.25 1.28 2.52 2.55 3.78 3.84 1.182-.13 2.366-.25 3.55-.36.19-.75.56-2.25.75-2.99 1.32 1.74 2.14 3.79 3.02 5.78.86 2.41 3.9 2.66 5.48 4.46 2.86 2.94 4.92 7.6 9.58 7.83.3.16.89.46 1.18.61 2.21.91 4.59.47 6.88.15.45-4.08.43-8.38-2.12-11.83-.2 3.03-.3 6.09-.86 9.09.22-7.35-2.59-14.36-5.93-20.76-3.52-6.09-7.31-12.15-12.43-17.02-1.6-1.63-3.13-3.32-4.68-4.98z" fill="#fcde49"/><path d="m592.4 338.92c5.99.3 10.29 5.39 16.25 5.79 4.89 2.96 9.38 6.56 13.59 10.43 1.19 4.29 5.41 6.53 8.19 9.71-.19.74-.56 2.24-.75 2.99-1.184.11-2.368.23-3.55.36-1.26-1.29-2.53-2.56-3.78-3.84-.81 1.19-1.54 2.42-2.33 3.62-1.84-1.39-3.53-3.29-5.93-3.59-2.12-.53-4.68-.46-5.99-2.53-1.89-1.69-3.15-4.91-6.07-4.83-4.35.43-8.56 1.71-12.91 2.16-.2 3.63-.92 7.99 2.82 10.13-.75 1.84-1.51 3.67-2.26 5.5 1.78 1.01 3.87 1.69 5.29 3.24.86 2.08-.51 4.19-1.07 6.15-4.45-5.17-11.19-6.58-17.22-9 2.71-.88 5.49-1.46 8.3-1.9-2.58-1.74-6.47-2.88-7.02-6.37-.12-4.99.84-10.08 3.06-14.57 1.63-.44 3.38-.64 4.92-1.4 2.03-2.5 2.77-5.73 3.79-8.72.87.1 1.74.21 2.62.33.02-1.22.03-2.44.05-3.66z" fill="#fbe35a"/><path d="m327.69 342.67c2.2-1.12 4.42-2.19 6.68-3.2 1.02.33 3.06 1 4.08 1.33-2.44 1.27-4.82 2.63-7.25 3.91-1.17-.69-2.34-1.37-3.51-2.04z" fill="#c5a446"/><path d="m680.97 340.99c1.8.16 3.6.32 5.41.54 2.41 1.05 4.81 2.16 7.02 3.63-2.69-.5-5.33-1.22-7.92-2.06.27.84.56 1.67.88 2.51-.51.93-1.02 1.87-1.51 2.82 1.32.41 2.64.83 3.97 1.26-.92.81-1.85 1.62-2.77 2.44-.56-.33-1.68-.97-2.24-1.29-.19-.09-.57-.28-.75-.37-1.91.61-3.77 1.38-5.73 1.8l-2.26-.4c1.58-1.03 3.23-1.97 4.69-3.2.41-1.54.16-3.16.21-4.73v-1c.25-.49.75-1.46 1-1.95z" fill="#f6be4a"/><path d="m310.09 351.54c5.88-2.93 11.7-5.96 17.6-8.87 1.17.67 2.34 1.35 3.51 2.04-1.33.7-2.67 1.39-4.03 2.03-.45.1-1.36.29-1.81.39-.75.11-2.27.34-3.03.45l-.2 2.36c-.63-.15-1.89-.46-2.52-.62-3.25.46-6.17 3.5-9.52 2.22z" fill="#deaa36"/><path d="m685.48 343.1c2.59.84 5.23 1.56 7.92 2.06.73.55 1.46 1.14 2.19 1.73l.89-1.05c1.02 1.65 2.14 3.27 3.21 4.9 3.51 5.59 6.78 11.42 9.22 17.57l-1.71-.39c-.42-.09-1.24-.26-1.66-.35-1-2.87-1.66-6.1-3.96-8.26-1.82-1.56-4.09-2.44-6.2-3.48-.65-1.84-1.08-3.74-1.44-5.65-2.84-1.25-3.97-5.32-7.58-4.57-.32-.84-.61-1.67-.88-2.51z" fill="#dd9630"/><path d="m354.02 369.04c3.34-9.56 8.97-18.31 16.02-25.56-.31 3.04-.62 6.33 1.79 8.68 1.14-1.7 2.27-3.4 3.39-5.1 2.3.67 4.56 1.73 6.98 1.81 2.3-.56 4.48-1.53 6.71-2.3-1.04 1.52-2.09 3.05-3.1 4.59l1.37-.08c-7.43 6.24-14.62 12.81-20.86 20.27-2.51 2.82-4.63 5.99-7.39 8.58-1.11.93-2.66 2.19-4.15 1.31-3.69-1.27-2.06-5.91-2.24-8.83.52-1.11 1.02-2.23 1.48-3.37zm-4.77 250.83c4.28 1.74 7.28 5.36 10.76 8.24 2.86 2.61 6.28 4.69 8.52 7.93-6.99-4.64-13.34-10.27-19.28-16.17z" fill="#714a11"/><path d="m686.36 345.61c3.61-.75 4.74 3.32 7.58 4.57.36 1.91.79 3.81 1.44 5.65 1.38 4.45 4.22 8.42 4.65 13.16.39 4.07 2 8.09 1.26 12.22-1.46 6.94 1.64 13.79 1.05 20.79-.71 7.75 2.17 15.52.16 23.18-1.77 7.13-.79 14.55-2.07 21.76-.97 13.16-5.11 25.81-6.57 38.9-1.67 6.69-2.24 13.65-4.61 20.16-1.33 3.91-1.75 8.07-3.3 11.91-2.87 7.28-7.87 13.41-12.56 19.57-4.77 4.91-10.68 9.84-11.22 17.2-.44 6.63-6.69 10.53-9.27 16.21-4.53 9.58-11.63 17.57-18.51 25.5-5.5 4.57-10.76 9.63-17.27 12.75-1.96.96-3.57 2.43-5.17 3.88-2.39 2.36-6.25 1.89-8.7 4.22-9.02 5.42-17.1 12.24-24.9 19.26-2.4 1.66-6.03 2.34-5.57 6.03 5.69.66 11.23 2.16 16.51 4.37-13.85-.81-26.71-6.76-40.3-9.02-5.44-.57-10.94-1.35-16.41-.63-11.62 1.97-22.97 5.23-34.57 7.33-4.55.8-8.6 3.19-13.1 4.18-10.96 2.43-21.93 5.69-33.26 5.37-5.61-2.24-6.16-9.22-7.69-14.26-.84-2.61-1.32-5.36-.57-8.05 3.91 2.21 8.28 3.2 12.63 4.16 2.54.46 3.32 3.39 5.38 4.64 5-.25 9.85-1.9 14.89-2.07 1.01-1.93 2.05-3.83 3.14-5.71.9 1.18 1.8 2.38 2.71 3.58 4.5-1.31 9.08-2.63 13.81-2.65 3.08.04 5.94 2 9.06 1.37 3.13-.27 5.76-2.15 8.74-2.9 3.41-.06 6.83.44 10.23-.09-1.02-.69-2.04-1.37-3.05-2.05 4.55-1.58 9.49-1.51 14.07-3.01 4.18-1.08 7.85-3.87 12.3-3.85.38-1.32.77-2.63 1.17-3.93 4.08-.07 8.32-.48 11.69-3.04 4.12-3.11 10.32-3.26 12.97-8.14 1.68.91 3.31 1.94 5.14 2.55 2.85-.37 5.64-1.4 8.56-1.21 3.25-.07 6.41 1.17 9.65.98 1.13-.8 2.11-1.79 3.14-2.71.82-.19 1.65-.36 2.49-.52 3.04-5.23 9.48-5.51 14.46-7.8 5.66-2.17 9.85-6.68 14.44-10.44 4.7-3.89 6.16-10.21 10.37-14.51 4.17-4.1 6.74-9.44 9.96-14.23-.46-3.49-1.36-6.96-.66-10.5 3.92-3.15 6.83-7.26 9.79-11.26 4.7-5.25 10.45-9.61 14.39-15.51 3.09-6.5 6.85-12.76 8.54-19.83 2.98-9.23 4.27-18.84 6.24-28.31 1.57-13.31 5.15-26.36 5.52-39.8.24-9.36 2.74-18.62 1.74-28-1.36-11.95-1.5-24.07-4.1-35.85-1.27-6.73-6.64-12-6.75-19.05.92-.82 1.85-1.63 2.77-2.44-1.33-.43-2.65-.85-3.97-1.26.49-.95 1-1.89 1.51-2.82z" fill="#f6a91f"/><path d="m322.33 347.58c.76-.11 2.28-.34 3.03-.45-1.58 6.03 1.48 12.68-1.93 18.24-2.74 5.48-2.35 11.85-4.42 17.53-1.16.73-2.43 1.25-3.65 1.86-1.31 5.68-2.92 11.42-2.6 17.31.33 5.32-1.59 10.76.19 15.96.29 1.92 2.19 2.7 3.55 3.78-1.15 1.25-3.34 2.06-3.27 4.03 1.22 1.73 2.78 3.18 4.24 4.72-1.18 1.32-3.97 2.09-3.23 4.34 1.01 2.95 4.29 4.49 5.3 7.49 2 6.47 1.18 13.51 3.28 19.94 4.84 6.9 5.74 15.56 6.41 23.74.39 3.92.14 8.51 3.51 11.27.25 1.8.39 3.64.88 5.41 1.28 2.23 3.53 3.86 4.42 6.32.24 2.03-.41 4.04-.23 6.08.53 1.45 1.54 2.66 2.43 3.91 1.02 4.97 3.58 9.41 5.34 14.13 2.31 1.29 4.97 2.37 6.46 4.7 2.91 4.74 7.54 8.25 9.41 13.65 6.39.3 12.79.43 19.18.25.19-2.13.39-4.24.58-6.35.55-.2 1.67-.59 2.23-.79-.59-.73-1.17-1.45-1.74-2.16.8-.52 1.62-.99 2.47-1.43 2.49.99 4.84 2.36 7.44 3.13-.48-1.73-.83-3.53-1.71-5.1-2.25-1.12-4.73-1.61-7.12-2.31 2.14-3.63 7.69-3.8 9.92-.17 1.15 1.11 2.16 2.82 3.99 2.67 5.64.12 11.29-.1 16.87-.96 2.46.04 4.93.1 7.39.22-.69.86-1.37 1.72-2.05 2.59 2.65 2.31 5.98 3.39 9.47 2.51l1.09 2.14c1.16-.68 2.31-1.4 3.47-2.09-1.67 5.28-4.24 10.4-3.73 16.1.28-.05.83-.16 1.1-.21l.68-.15c2.91.05 4.05-2.95 6.01-4.53 1.13-.56 2.44-.57 3.67-.81.3-1.19.6-2.38.91-3.56 1.76-.71 3.53-1.41 5.29-2.11 1.12.78 2.25 1.58 3.38 2.37 2.45-1.35 4.92-2.64 7.43-3.87.07 4.57-.05 9.3 1.82 13.58.2-1.56.38-3.12.53-4.68.32 2.07.79 4.1 1.23 6.16 1.78-3.21 3.28-6.57 4.92-9.85 2.51-1.73 4.84-4.11 8.02-4.49 4.53-.61 9.11-.08 13.66-.14 3.31.03 6.73-.32 9.93.75 8.02 2.6 15.28 7.04 22.18 11.79 5.15 3.9 9.97 8.26 15.63 11.46 5.19 3.85 11.16 7.45 17.93 6.62l1.03.36c3.08 2.78 7.49 2.06 11.2 1.31 4.54-1.38 8.81-4.18 11.2-8.36 6.63-5.66 12.9-11.75 18.45-18.48 1.68-1.18 3.57-2.13 4.92-3.71 3.46-4.29 1.04-11.02 5.45-14.74.9.91 1.82 1.84 2.73 2.77.75-.25 1.5-.51 2.26-.74.52.83 1.06 1.67 1.6 2.52 2.76.7 5.46 1.62 8.09 2.72.33-2.4.7-4.8 1.05-7.19 1.27 1.87 2.16 4.41 4.47 5.22 1.75-.24 2.44-2.03 3.47-3.21 1.13 1.83 2.38 3.91 4.74 4.22 5.62 1.91 10.8-1.81 15.49-4.4-.88-.29-1.76-.56-2.63-.83 6.57-.86 10.55-6.33 14.86-10.69 6.14-4.73 11.86-10.89 13.42-18.73.83-4.27 2.91-8.12 4.11-12.26 1.06-6.83 3.22-13.41 4.24-20.25 1.24-4.69.93-9.58 1.68-14.33 1.59-7.39 3.01-14.82 4.25-22.27.46-11.34 3.01-22.67 1.28-34 .05-11.03-1.68-22-4.45-32.64-.96-4.13-3.86-7.43-5.17-11.39.04-2.9 1.52-5.53 2.55-8.18.56.32 1.68.96 2.24 1.29.11 7.05 5.48 12.32 6.75 19.05 2.6 11.78 2.74 23.9 4.1 35.85 1 9.38-1.5 18.64-1.74 28-.37 13.44-3.95 26.49-5.52 39.8-1.97 9.47-3.26 19.08-6.24 28.31-1.69 7.07-5.45 13.33-8.54 19.83-3.94 5.9-9.69 10.26-14.39 15.51-2.96 4-5.87 8.11-9.79 11.26-2.37 2-4.29 4.45-6.29 6.81-1.84 2.25-5.36 2.38-6.91 4.91-3.19 5.72-6.73 11.26-10.23 16.77-2.87 1.41-5.69 2.86-8.28 4.75-3.2-.05-6.12-1.53-9.02-2.7.71-1.17 1.42-2.34 2.14-3.51-5.48-1.35-10.67-4.24-14.78-8.12-.25 1.11-.51 2.21-.75 3.34-3.5.28-6.97-.32-10.14-1.81-.32 1.5-.58 3.03-.89 4.55-1.73-1.13-3.23-3.95-5.62-2.95-2.56.73-2.04 3.81-1.64 5.8.59 2.27-.33 4.5-1 6.66-.83-1.15-1.64-2.3-2.44-3.45.38 4.41-3.72 6.93-4.91 10.82-.74.33-1.46.67-2.18 1.02-.24.86-.46 1.72-.69 2.59-3.09 2.11-6.62 3.66-9.27 6.36-3.33 4.51-9.47 4.42-14.39 5.88-6.24 1.73-12.53-1.36-18.8.02-6.3 1.23-12.56-.58-18.45-2.68-.59.96-1.17 1.93-1.75 2.91-4.83-.01-9.8.11-14.16 2.43-1.4-1.63-2.08-4.92-4.76-4.5-3.79.21-7.18-1.63-10.83-2.25-.41-.58-.81-1.17-1.18-1.75.78-.47 1.56-.93 2.36-1.37-1.84.09-3.67.3-5.5.14-2.64-.49-4.78-2.38-7.4-2.92-1.84-.1-3.67.19-5.49.38-.29-1.54-.58-3.07-.86-4.59-7.51-1.29-15.35-1.81-22.1-5.73-3.62-2.43-7.61-4.24-11.11-6.84-1.39-1.25-3.31-1.15-5.04-1.32-1.24-1.37-2.03-3.69-4.25-3.49-3.36-.21-6.61.95-9.95 1.07.41 2.29.74 4.59 1.01 6.9-1.22 0-2.43 0-3.64.02-.57-2.28-1.15-4.54-1.76-6.8-.71 1.15-1.41 2.31-2.12 3.47-5.39-1.87-11.31-1.31-16.55-3.62.96-.61 1.92-1.22 2.89-1.82-2.18-1.14-4.53-1.83-6.96-2.17-3.28-4.2-8.89-4.42-13.21-6.92-2.44-2.17-4.69-4.57-7.38-6.43-3.19-2.18-4.44-5.99-6.19-9.24-.46.31-1.39.93-1.85 1.24-1.54-2.39-2.84-4.92-4.04-7.49l-.44 1.13c-1.55-3.91-5.55-6.05-7.18-9.9-1.92-4.26-4.57-8.1-7.03-12.05-1.82-2.65-.47-6.22-2.22-8.88-1.44-2.32-2.95-4.64-3.34-7.39-1.68-2.38-2.07-5.23-2.3-8.05.03-2.35-2.66-3.58-2.6-5.92-.07-4.48-.79-8.92-2.84-12.94-.22 2.91-.56 5.83-1.34 8.66-2.26-7.63-.25-16.35-4.69-23.36-.95.38-1.9.77-2.86 1.16-.81-2.51-1.63-5.15-.65-7.73 1.48-3.83-2.56-6.63-3.45-10.06-.53-2.9-.5-5.89-1.42-8.71-1.86-5.5-.93-11.39-1.03-17.07-.12-3.94 2.55-7.19 2.97-11.02.84-6.69 2.51-13.36 5.77-19.29 2.27-4.01 3.32-8.53 5.26-12.68 2.69-5.83 5.23-11.75 7.17-17.88 1.3-3.98.45-8.15.03-12.19z" fill="#fdbe30"/><path d="m325.36 347.13c.45-.1 1.36-.29 1.81-.39 2.06 5.99 2.3 12.4 4.2 18.39 1.24-.92 2.48-1.83 3.72-2.75.99.43 1.98.87 2.98 1.3 2.68-2.69 6.27-3.74 10-3.34.56.77 1.13 1.54 1.71 2.32 1.22-2.47 1.97-5.89 5.33-6.05.11 3.75-1.44 7.16-2.57 10.64.37.45 1.11 1.35 1.48 1.79-.46 1.14-.96 2.26-1.48 3.37-1.83 2.48-2.35 5.95-.61 8.63 1.4 2.05 4.17 1.8 6.32 2.29 1.75 4.39-2.62 7.54-3.27 11.62-1.4 7.59-1.08 15.33-1.23 23.01-.13 2.36.37 4.68 1.19 6.89.62-1.88 1.19-3.78 1.75-5.67 2.56 4.88 4.35 10.25 4.17 15.83-.24 5.29 1.04 10.44 2.72 15.41.73-.23 1.45-.47 2.19-.69 1.07 1.95 2.15 3.9 3.25 5.85 1.19-2.06 2.35-4.14 3.43-6.25.63 1.66.77 3.79 2.41 4.84 2.86 2.08 6.73 1.55 9.76 3.21 2.4 2 3.81 4.91 6.15 6.98 1.62 1.18 3.65 1.57 5.51 2.28.38 4.87 5.19 6.73 7.86 10.16 2.93 3.61 7.34 5.49 11.19 7.95 4.31 1.67 9.05 1.9 13.45 3.4.08 2.53.18 5.07.3 7.61 6.63.2 13.01 2.27 19.62 2.65-1.03.66-2.06 1.33-3.08 2.01-.53 1.52-.94 3.1-1.69 4.54-2.08 1.8-4.83 2.57-7.28 3.76-6.95 2.85-13.81 5.91-20.36 9.6-5.09 2.88-11.23 4.06-15.37 8.44-3.03 3.02-6.72 5.66-8.22 9.85-2.23-3.63-7.78-3.46-9.92.17 2.39.7 4.87 1.19 7.12 2.31.88 1.57 1.23 3.37 1.71 5.1-2.6-.77-4.95-2.14-7.44-3.13-.85.44-1.67.91-2.47 1.43.57.71 1.15 1.43 1.74 2.16-.56.2-1.68.59-2.23.79-.19 2.11-.39 4.22-.58 6.35-6.39.18-12.79.05-19.18-.25-1.87-5.4-6.5-8.91-9.41-13.65-1.49-2.33-4.15-3.41-6.46-4.7-1.76-4.72-4.32-9.16-5.34-14.13-.89-1.25-1.9-2.46-2.43-3.91-.18-2.04.47-4.05.23-6.08-.89-2.46-3.14-4.09-4.42-6.32-.49-1.77-.63-3.61-.88-5.41-3.37-2.76-3.12-7.35-3.51-11.27-.67-8.18-1.57-16.84-6.41-23.74-2.1-6.43-1.28-13.47-3.28-19.94-1.01-3-4.29-4.54-5.3-7.49-.74-2.25 2.05-3.02 3.23-4.34-1.46-1.54-3.02-2.99-4.24-4.72-.07-1.97 2.12-2.78 3.27-4.03-1.36-1.08-3.26-1.86-3.55-3.78-1.78-5.2.14-10.64-.19-15.96-.32-5.89 1.29-11.63 2.6-17.31 1.22-.61 2.49-1.13 3.65-1.86 2.07-5.68 1.68-12.05 4.42-17.53 3.41-5.56.35-12.21 1.93-18.24z" fill="#fdca38"/><path d="m310.09 351.54c3.35 1.28 6.27-1.76 9.52-2.22-1.01 3.56-.82 7.26-.4 10.89-2.59 2.86-2.92 6.83-4.86 10.04-3.58 5.92-4.41 13.1-8.48 18.78-2.57 3.51-4.33 7.45-5.64 11.58-5.67 8.93-3.82 20.34-8.76 29.6 2.19 5.68 1.19 11.82 1.32 17.75.09 6.49.88 12.98 2.66 19.23 1.83 6.45 1.95 13.37 4.74 19.54 3.04 6.61 4.72 13.72 7.71 20.35 2.08 7.37 5.31 14.73 10.87 20.15 1.89 2.37 2.16 5.6 3.88 8.08 5.87 7.92 10.4 16.75 16.4 24.56 3.72 3.64 6.79 7.92 10.98 11.08 7.21 8.85 15.74 16.53 23.73 24.69.59-.47 1.19-.94 1.79-1.4.71 1.67 1.22 3.44 2.15 5.02 1.27.84 2.82 1.08 4.25 1.53 2.62 3.68 6.1 7.12 10.67 8.08.26.26.76.77 1.01 1.03-1.58 1.69-3.15 3.46-4.01 5.67-.33 2.54-.53 5.11-.74 7.68-3.89-1.62-6.54-5.03-10.17-7.07-5.95-3.48-10.21-9.03-15.18-13.67-3.24-2.92-4.66-7.52-8.56-9.72-5.29-3.13-8.96-8.17-13.62-12.05-4.1-3.28-6.62-8.06-10.79-11.29-3.37-3.96-8.07-6.93-10.21-11.82-2.11-4.8-7.68-7.38-8.68-12.77-.57-2.92-1.77-5.66-3.35-8.17-2.66-4.11-3.05-9.2-5.65-13.33-2.27-3.71-3.44-7.93-5.38-11.79-.75.37-2.25 1.12-3.01 1.49-2.58-5.69-2.95-12.64-7.61-17.28-.85-2.04-1.68-4.08-2.48-6.13-2.42-5.58-1.73-11.75-2.26-17.66-.44-5.99-.48-12-.43-18 .01-5.58 1.51-11.2-.04-16.71.06-8.2 2.14-16.27 3.59-24.32 4.61-21 12.56-41.21 22.94-60.01l1.16-.92c.23-.12.7-.36.94-.49z" fill="#f0a020"/><path d="m319.21 360.21c-.42-3.63-.61-7.33.4-10.89.63.16 1.89.47 2.52.62.42 4.04 1.27 8.21-.03 12.19-1.94 6.13-4.48 12.05-7.17 17.88-1.94 4.15-2.99 8.67-5.26 12.68-3.26 5.93-4.93 12.6-5.77 19.29-.42 3.83-3.09 7.08-2.97 11.02.1 5.68-.83 11.57 1.03 17.07.92 2.82.89 5.81 1.42 8.71.89 3.43 4.93 6.23 3.45 10.06-.98 2.58-.16 5.22.65 7.73.96-.39 1.91-.78 2.86-1.16 4.44 7.01 2.43 15.73 4.69 23.36.78-2.83 1.12-5.75 1.34-8.66 2.05 4.02 2.77 8.46 2.84 12.94-.06 2.34 2.63 3.57 2.6 5.92.23 2.82.62 5.67 2.3 8.05.39 2.75 1.9 5.07 3.34 7.39 1.75 2.66.4 6.23 2.22 8.88 2.46 3.95 5.11 7.79 7.03 12.05 1.63 3.85 5.63 5.99 7.18 9.9-.14 3.1.07 6.21.36 9.3 5.1 3.5 7.99 9.27 13.06 12.85-.26.83-.52 1.68-.78 2.53 3.15 3.81 7.46 6.77 9.27 11.55 1.19.56 2.39 1.13 3.59 1.7-.42.71-.84 1.44-1.26 2.17 2.41 3.02 5.4 5.58 7.43 8.9-.6.46-1.2.93-1.79 1.4-7.99-8.16-16.52-15.84-23.73-24.69-4.19-3.16-7.26-7.44-10.98-11.08-6-7.81-10.53-16.64-16.4-24.56-1.72-2.48-1.99-5.71-3.88-8.08-5.56-5.42-8.79-12.78-10.87-20.15-2.99-6.63-4.67-13.74-7.71-20.35-2.79-6.17-2.91-13.09-4.74-19.54-1.78-6.25-2.57-12.74-2.66-19.23-.13-5.93.87-12.07-1.32-17.75 4.94-9.26 3.09-20.67 8.76-29.6 1.31-4.13 3.07-8.07 5.64-11.58 4.07-5.68 4.9-12.86 8.48-18.78 1.94-3.21 2.27-7.18 4.86-10.04z" fill="#f9b328"/><path d="m677.33 352.27c1.96-.42 3.82-1.19 5.73-1.8.18.09.56.28.75.37-1.03 2.65-2.51 5.28-2.55 8.18 1.31 3.96 4.21 7.26 5.17 11.39 2.77 10.64 4.5 21.61 4.45 32.64 1.73 11.33-.82 22.66-1.28 34-1.24 7.45-2.66 14.88-4.25 22.27-.75 4.75-.44 9.64-1.68 14.33-1.02 6.84-3.18 13.42-4.24 20.25-1.2 4.14-3.28 7.99-4.11 12.26-1.56 7.84-7.28 14-13.42 18.73-4.31 4.36-8.29 9.83-14.86 10.69.87.27 1.75.54 2.63.83-4.69 2.59-9.87 6.31-15.49 4.4-2.36-.31-3.61-2.39-4.74-4.22-1.03 1.18-1.72 2.97-3.47 3.21-2.31-.81-3.2-3.35-4.47-5.22-.35 2.39-.72 4.79-1.05 7.19-2.63-1.1-5.33-2.02-8.09-2.72-.54-.85-1.08-1.69-1.6-2.52-.76.23-1.51.49-2.26.74-.91-.93-1.83-1.86-2.73-2.77-4.41 3.72-1.99 10.45-5.45 14.74-1.35 1.58-3.24 2.53-4.92 3.71 2.41-3.34 4.65-6.85 6.04-10.75.57-4.82-.69-10.09-4.41-13.41-4.5-3.4-9.88-5.35-14.78-8.09-4.45-5.12-11.66-5.83-17.44-8.76-5.08-2.71-10.76-3.78-16.31-5.04 1.22-.63 2.46-1.25 3.69-1.86.17.48.5 1.45.67 1.94 4.49-3.98 10.72-4.16 15.67-7.26-.32-.53-.98-1.61-1.31-2.14 2.24-.16 4.48-.28 6.72-.37.26-.25.77-.76 1.03-1.01-2.98-.18-5.98-.54-8.96-.17-4.03.64-7.49 3.06-10.42 5.78-4.84-.49-9.69-.97-14.56-1.04l.12-2.63c5.29-.18 10.58-.06 15.87-.27-.26-4.12-.47-8.24-.39-12.37-1.23-.4-2.46-.79-3.67-1.17 2.27-.34 4.63-1.04 6.93-.37 2.35.6 4.34 2.14 6.72 2.66 2.08.27 4.18.06 6.27.01 1.63.91 3.45 3.18 5.45 1.76 1.36-1.16 2.36-2.68 3.47-4.07l2.24 2.54c-1.05.74-2.1 1.49-3.13 2.25 1.1 1.48 2.22 2.95 3.36 4.42 3.07-4 2.35-9.27 3.4-13.92 1.04-4.97 1.38-10.03 1.53-15.09 1.23-.32 2.46-.64 3.7-.95-1.41-2.11-3.52-3.99-3.94-6.57-.39-3.65 5.56-3.83 4.85-7.71.54-.74 1.09-1.47 1.66-2.19 1.71.48 3.42.96 5.14 1.44.25 1.41.48 2.83.74 4.25.72-.37 1.43-.75 2.14-1.15.42-1.56.87-3.11 1.29-4.67.17 4.31-.06 8.64.41 12.93.18 3.17 4.38 4.69 3.77 8.03-.65 7.2-3.1 15.81 2.55 21.71-.12 1.2-.26 2.39-.37 3.6 7.72 4.53 16.83 1.55 25.21 2.91.39 1.52.74 3.05 1.25 4.55 2.55.31 5.11-.07 7.65-.26-1.24 1-2.46 2.02-3.67 3.07 1.52.3 3.07.63 4.64.57 4.28-.3 8.41 1.35 12.71 1.09-1.09-.89-2.18-1.78-3.27-2.65 1.76-.07 3.52-.15 5.29-.21.97-2.71 1.91-5.44 2.79-8.19.97.63 1.95 1.26 2.93 1.9-.52-2.27-1.04-4.54-1.56-6.8.95-.79 1.91-1.57 2.87-2.35.05-2.86.08-5.73.1-8.58.58.44 1.16.89 1.75 1.34-.88-5.58 3.6-9.66 3.97-15l-2.36-1.16c2.52-5.58 3.94-11.51 4.39-17.6 3.07-10.09 3.17-20.7 4.94-31.04.89-3.4-.79-6.52-1.62-9.72.38-1.2.94-2.32 1.46-3.46-3.07-6.16-1.79-13.12-2.72-19.7-.27-4.58-2.02-8.83-3.51-13.1l.16-2.35c-1.92-3.17-7.07-5.23-5.89-9.57.18-4.54 5.59-3.65 8.68-4.66z" fill="#fed13c"/><path d="m630.43 364.85c-2.78-3.18-7-5.42-8.19-9.71 5.66 4.89 10.82 10.32 15.8 15.9 3.55 3.91 6.42 8.44 10.47 11.88-4.66-.23-6.72-4.89-9.58-7.83-1.58-1.8-4.62-2.05-5.48-4.46-.88-1.99-1.7-4.04-3.02-5.78z" fill="#ffe570"/><path d="m700.03 368.99c-.43-4.74-3.27-8.71-4.65-13.16 2.11 1.04 4.38 1.92 6.2 3.48 2.3 2.16 2.96 5.39 3.96 8.26.42.09 1.24.26 1.66.35 1.57 4.57 4 8.82 5.32 13.48-2.34 4.55-.61 9.76-.61 14.6.22 7.73 3.19 15.2 2.21 22.98.4 5.68.71 11.36-.13 17.02-.06 11.65-1.87 23.3-5.55 34.36-1.96 9.36-2.67 18.95-4.73 28.3-.91 4.55-2.1 9.07-2.25 13.73-.17 4.32-1.87 8.35-2.93 12.49-.96 3.94-3.8 7.13-4.57 11.12-1.01 4.91-3.48 9.4-6.66 13.23-2.05 2.42-2.79 5.73-5.17 7.88-5.13 4.53-10.41 9.14-13.91 15.11-2.85 4.7-6.47 8.85-9.84 13.17-2.67 3.4-4.67 7.29-7.52 10.56-2.91 3.37-6.34 6.25-9.3 9.57-4.03 4.7-9.65 7.62-13.85 12.14-4.04 3.39-7.13 8.11-12.22 10.05-1.85.69-2.67 2.59-3.8 4.04-1.7 2.6-4.87 3.66-6.77 6.08-2.75 3.47-4.92 7.36-7.05 11.23-2.88-.67-5.73-1.43-8.58-2.16-5.28-2.21-10.82-3.71-16.51-4.37-.46-3.69 3.17-4.37 5.57-6.03 7.8-7.02 15.88-13.84 24.9-19.26 2.45-2.33 6.31-1.86 8.7-4.22 1.6-1.45 3.21-2.92 5.17-3.88 6.51-3.12 11.77-8.18 17.27-12.75 6.88-7.93 13.98-15.92 18.51-25.5 2.58-5.68 8.83-9.58 9.27-16.21.54-7.36 6.45-12.29 11.22-17.2 4.69-6.16 9.69-12.29 12.56-19.57 1.55-3.84 1.97-8 3.3-11.91 2.37-6.51 2.94-13.47 4.61-20.16 1.46-13.09 5.6-25.74 6.57-38.9 1.28-7.21.3-14.63 2.07-21.76 2.01-7.66-.87-15.43-.16-23.18.59-7-2.51-13.85-1.05-20.79.74-4.13-.87-8.15-1.26-12.22z" fill="#e99718"/><path d="m363.19 377.64c4.68-7.19 12.69-11.09 17.67-17.97.13 1.36.27 2.72.41 4.08-2.11 1.7-4.57 3.17-6.02 5.53-.86 2.67-.1 5.51.17 8.22 5.3.16 10.56-.66 15.85-.85 2.31-.37 2.52 2.52 3.5 3.93.53.08 1.61.23 2.14.31-.52-1.35-1.05-2.68-1.56-4.02 2.55.18 5.08.53 7.57 1.12-.87.99-1.75 1.98-2.62 2.98.37.77.74 1.55 1.12 2.33-.82.64-1.63 1.27-2.43 1.92-.25 5.76 1.14 11.99-2.08 17.19 2.22-.75 4.44-1.47 6.67-2.19-.14 1.92-.32 3.83-.52 5.75-.28.2-.84.59-1.13.79-4.14 1.91-2.7 6.72-2.87 10.37-.32 8.8 4.3 16.66 5.97 25.11 4.06 6.74 10.54 13.18 18.9 13.38 5.55-.24 11.09-1.25 16.35-3.04 3.61-1.17 5.89-4.38 8.74-6.68.47 1.71 2.78 3.66 1.16 5.32-1.45 1.67-3.47 2.69-5.3 3.9-.17 1.24-.33 2.48-.49 3.72-4.75.81-9.48 1.71-14.21 2.61-5.1.98-10.26-.11-15.27-1.06-1.68-3.11-4.74-4.81-7.44-6.86-1.14-2.01-1.63-4.31-2.71-6.34-1.32-.9-3.04-.76-4.54-1.08-.04-3.15.15-6.28.53-9.4-1.77.62-3.52 1.29-5.25 2-2.73-.86-4.94-2.68-6.1-5.33-1.71-3.52-5.17-5.46-8.04-7.87-.74-5.43-.42-11.14.97-16.46-4.74-.28-9.54.33-14.24-.4-1.58-1.59-2.74-3.8-2.41-6.09.37-5.48-1.15-10.86-3.38-15.8-.08-2.53 1.57-4.77 2.51-7.05-.54-.7-1.08-1.39-1.62-2.07z" fill="#fdde50"/><path d="m420.77 360.22c3.34.29 6.7.3 10.06.26 3.07 1.81 6.83 2.8 9.27 5.49 1.77 5.54.87 11.56.74 17.29-1.69.81-3.54 1.4-4.96 2.65-1.32 1.93-1.47 4.38-2.54 6.44-1.42 2.77-3.55 5.09-5.43 7.56-.71.05-2.13.14-2.84.18.48-1.25.96-2.5 1.44-3.74-2.12-3.51-4.88-6.8-5.96-10.81.7-1.52 1.86-2.75 2.88-4.06-.68-.84-1.35-1.66-2.02-2.49 2.43-.93 4.88-1.81 7.35-2.65.64-3.48.59-7.02.06-10.51-.68-.17-1.36-.33-2.03-.5-1.51-2.22-3.4-4.25-6.02-5.11z" fill="#fef064"/><path d="m668.71 374.16c-.71-2.61-2.89-5.19-1.44-7.95 2.36.91 4.72 1.79 7.11 2.64 1.49 4.27 3.24 8.52 3.51 13.1.93 6.58-.35 13.54 2.72 19.7-.52 1.14-1.08 2.26-1.46 3.46.83 3.2 2.51 6.32 1.62 9.72-1.77 10.34-1.87 20.95-4.94 31.04-.45 6.09-1.87 12.02-4.39 17.6l2.36 1.16c-.37 5.34-4.85 9.42-3.97 15-.59-.45-1.17-.9-1.75-1.34-.02 2.85-.05 5.72-.1 8.58-.96.78-1.92 1.56-2.87 2.35.52 2.26 1.04 4.53 1.56 6.8-.98-.64-1.96-1.27-2.93-1.9-.88 2.75-1.82 5.48-2.79 8.19-1.77.06-3.53.14-5.29.21 1.09.87 2.18 1.76 3.27 2.65-4.3.26-8.43-1.39-12.71-1.09-1.57.06-3.12-.27-4.64-.57 1.21-1.05 2.43-2.07 3.67-3.07-2.54.19-5.1.57-7.65.26-.51-1.5-.86-3.03-1.25-4.55-8.38-1.36-17.49 1.62-25.21-2.91.11-1.21.25-2.4.37-3.6-5.65-5.9-3.2-14.51-2.55-21.71.61-3.34-3.59-4.86-3.77-8.03-.47-4.29-.24-8.62-.41-12.93-.42 1.56-.87 3.11-1.29 4.67-.71.4-1.42.78-2.14 1.15-.26-1.42-.49-2.84-.74-4.25-1.72-.48-3.43-.96-5.14-1.44 2.85-3.65 5.53-7.51 9.11-10.51 4.67-3.79 6.88-9.63 11.12-13.83 1.22.93 2.44 1.87 3.68 2.8 5.44-.39 10.98-1.28 16.4-.26 2.09 1.57 2.38 4.79 4.42 6.51 1.54.21 3.11.21 4.68.28.37-4.96-.38-9.98.44-14.89 1.41-3.74 3.09-8.16 7.33-9.39.22 2.66.42 5.32.61 7.99 3.37.13 6.81-.07 10.13.69 3.93 4.05 2.22 10.22 2.73 15.29.68.03 2.04.09 2.72.13-.15-6.37.26-12.76 2.32-18.82 1.34-3.28-.51-6.39-2.07-9.17 1.17-.82 2.33-1.64 3.51-2.46-1.1-5.96-.71-12-.89-18.01-.94 1.27-1.61 2.71-2.23 4.16-.79-1.9-1.62-3.77-2.45-5.64.83-2.49 2.8-5.11 1.68-7.81z" fill="#fedb41"/><path d="m707.2 367.92 1.71.39c6.7 13.81 11.54 28.54 14.9 43.5-.99-1.02-1.93-2.08-2.95-3.06l-.2-.07c-.77-.16-1.54-.3-2.3-.42.41-.74.83-1.47 1.26-2.2-.72-.31-1.43-.6-2.14-.9.4-4.75.52-9.74-1.63-14.13-1.53-3.06-2.55-6.31-3.33-9.63-1.32-4.66-3.75-8.91-5.32-13.48zm-426.96 85.1c.24-5.25.03-10.58 1.22-15.74 1.55 5.51.05 11.13.04 16.71-.05 6-.01 12.01.43 18 .53 5.91-.16 12.08 2.26 17.66-.09 2.71-.46 5.41-.76 8.11-3.22-14.66-3.43-29.79-3.19-44.74zm121.97 383.91c2.95 4.19 4.17 9.36 7.5 13.34 3.49 5.12 8.59 8.76 13.78 12.01-.06.37-.17 1.13-.23 1.5-10.26-5.55-18.96-15.09-21.05-26.85zm21.46 26.88c5.59.01 10.7 2.84 16.28 2.9 5.18.13 10.4-.2 15.5.86-3.68 1.28-7.63.8-11.45.85-6.96-.45-14.15-1.08-20.33-4.61z" fill="#bd821f"/><path d="m654.45 371.85c2.55 3.45 2.57 7.75 2.12 11.83-2.29.32-4.67.76-6.88-.15 1.3-.85 2.61-1.7 3.9-2.59.56-3 .66-6.06.86-9.09z" fill="#f9e267"/><path d="m363.19 377.64c.54.68 1.08 1.37 1.62 2.07-.94 2.28-2.59 4.52-2.51 7.05 2.23 4.94 3.75 10.32 3.38 15.8-.33 2.29.83 4.5 2.41 6.09 4.7.73 9.5.12 14.24.4-1.39 5.32-1.71 11.03-.97 16.46 2.87 2.41 6.33 4.35 8.04 7.87 1.16 2.65 3.37 4.47 6.1 5.33 1.73-.71 3.48-1.38 5.25-2-.38 3.12-.57 6.25-.53 9.4 1.5.32 3.22.18 4.54 1.08 1.08 2.03 1.57 4.33 2.71 6.34 2.7 2.05 5.76 3.75 7.44 6.86 5.01.95 10.17 2.04 15.27 1.06 4.73-.9 9.46-1.8 14.21-2.61.16-1.24.32-2.48.49-3.72 1.83-1.21 3.85-2.23 5.3-3.9 1.62-1.66-.69-3.61-1.16-5.32 2.2-1.54 3.28-4.01 4.16-6.45.34.07 1.01.22 1.35.29.93 1.26 1.85 2.53 2.8 3.79 1.81-2.01 1.36-4.58.8-6.98.77.21 1.56.4 2.33.63 4.2 2.88 9.23 5.42 14.48 4.66 5.01-.66 10.07-.03 15.07-.68 2.35-.1 3.84-2.11 5.52-3.48.9.43 1.81.86 2.73 1.3 1.08-1.2 2.16-2.4 3.24-3.59 2.13-.17 4.27-.36 6.41-.52.83-1.03 1.65-2.06 2.49-3.08.97.55 1.99 1.06 2.92 1.73 1.08 3.44 1.05 7.22 2.78 10.47 2.04 3.87 4.25 7.65 6.22 11.56 6.29-.42 11.45 3.91 15.64 8.07 2.56-.81 5.11-1.64 7.66-2.47-.42-.79-.84-1.57-1.25-2.34 4.21-1.32 8.74-1.69 12.75-3.57 1.32-2.13.88-4.92 1.59-7.29 3.18 2.57 6.52 5.97 10.97 5.51 8.16 2.61 17.17.19 23.12-5.9l1.01 1.73c.71 3.88-5.24 4.06-4.85 7.71.42 2.58 2.53 4.46 3.94 6.57-1.24.31-2.47.63-3.7.95-.15 5.06-.49 10.12-1.53 15.09-1.05 4.65-.33 9.92-3.4 13.92-1.14-1.47-2.26-2.94-3.36-4.42 1.03-.76 2.08-1.51 3.13-2.25l-2.24-2.54c-1.11 1.39-2.11 2.91-3.47 4.07-2 1.42-3.82-.85-5.45-1.76-2.09.05-4.19.26-6.27-.01-2.38-.52-4.37-2.06-6.72-2.66-2.3-.67-4.66.03-6.93.37 1.21.38 2.44.77 3.67 1.17-.08 4.13.13 8.25.39 12.37-5.29.21-10.58.09-15.87.27l-.12 2.63c4.87.07 9.72.55 14.56 1.04 2.93-2.72 6.39-5.14 10.42-5.78 2.98-.37 5.98-.01 8.96.17-.26.25-.77.76-1.03 1.01-2.24.09-4.48.21-6.72.37.33.53.99 1.61 1.31 2.14-4.95 3.1-11.18 3.28-15.67 7.26-.17-.49-.5-1.46-.67-1.94-1.23.61-2.47 1.23-3.69 1.86-5.72-1.56-11.67-2.52-16.98-5.26-4.53-1.22-9.38-.7-13.87-2.2 4.82-2.31 10.37-1.61 15.44-3.06-7.85-.71-15.72-.06-23.58-.51-.33-1.26-.65-2.51-.97-3.76-7.78-.36-15.87-.19-23.24 2.58.42.69.85 1.39 1.28 2.09-3.71.71-7.66 1.71-11.3.13-1.4-.55-2.78-1.14-4.16-1.72 6.17-1.62 12.7-2.69 17.94-6.62 4.8 2.68 9.91-.7 14.98.13 2.57-2.84.92-6.93-1.62-9.14-2.78-2.02-6.24-2.7-9.56-3.22-3.84-.5-7.69-1.47-11.58-.96-1.98-.81-4.06-1.34-6.21-1.11.72 1.95 1.45 3.89 2.17 5.85-2.83-.48-5.61-1.17-8.3-2.12-4.62 1.44-8.94 4.32-13.94 4.05-3.2 0-6.4-.04-9.6.07-.26 1.9-.5 3.81-.76 5.73-5.29.01-10.58.28-15.86.3-4.4-1.5-9.14-1.73-13.45-3.4-3.85-2.46-8.26-4.34-11.19-7.95-2.67-3.43-7.48-5.29-7.86-10.16-1.86-.71-3.89-1.1-5.51-2.28-2.34-2.07-3.75-4.98-6.15-6.98-3.03-1.66-6.9-1.13-9.76-3.21-1.64-1.05-1.78-3.18-2.41-4.84-1.08 2.11-2.24 4.19-3.43 6.25-1.1-1.95-2.18-3.9-3.25-5.85-.74.22-1.46.46-2.19.69-1.68-4.97-2.96-10.12-2.72-15.41.18-5.58-1.61-10.95-4.17-15.83-.56 1.89-1.13 3.79-1.75 5.67-.82-2.21-1.32-4.53-1.19-6.89.15-7.68-.17-15.42 1.23-23.01.65-4.08 5.02-7.23 3.27-11.62 1.67-1.88 3.39-3.72 4.94-5.69z" fill="#fed943"/><path d="m581.71 378.95c4.31.61 7.98 3.28 11.07 6.21 5.4 5.22 8.4 12.32 10.5 19.41.09 1.04.19 2.08.3 3.13-.16.55-.49 1.65-.65 2.2-.45-.76-.87-1.52-1.32-2.26-.95.16-1.88.4-2.82.57-.88-3.91-2.01-8.11-5.39-10.64-4.15-3.19-8.92-6.5-14.4-6.32-4.96.09-10.34.34-14.57 3.25-4.33 2.93-5.37 8.46-8.72 12.23-1.37 1.83-3.43 3.29-4.15 5.52-.5 4.13.09 8.43-1.44 12.41-.765-5.165-.825-10.409-.18-15.59 1.08-6.76 3.08-13.66 7.38-19.11 3.84-2.72 6.74-6.72 11.17-8.59 3.99-2.43 8.8-1.65 13.22-2.42z" fill="#72460c"/><path d="m711.91 396c0-4.84-1.73-10.05.61-14.6.78 3.32 1.8 6.57 3.33 9.63 2.15 4.39 2.03 9.38 1.63 14.13.71.3 1.42.59 2.14.9-.43.73-.85 1.46-1.26 2.2.76.12 1.53.26 2.3.42-.62 2.55-1.37 5.21-.72 7.85.38 2.87 1.78 5.91.46 8.74-.84 2.33-1.56 4.71-2 7.16.89-1.11 1.78-2.21 2.68-3.3 1.68 4.02 0 8.28-.61 12.35-2.38 12.64-1.82 25.68-4.87 38.21-1.24 5.33-1.48 10.84-2.75 16.17-.87 3.33-.75 6.78-.95 10.18-.17 2.26-1.97 4.01-2.23 6.26-.32 3.56-.15 7.16-.39 10.73-3.67 5.13-3.02 11.6-4.14 17.49-1.24-.38-2.46-.74-3.69-1.1-.42 2.73-.81 5.46-1.26 8.19-2.52 2.57-3.17 6.28-5.53 8.97-1.97 2.3-3.3 5.03-4.48 7.81-1.93 4.47-6.34 6.98-9.96 9.92-2.68 2.01-3.7 5.43-6.16 7.65-1.53 1.46-3.36 2.68-4.42 4.57-3.15 5.61-6.77 11.19-11.97 15.12-3.4 2.58-5.94 6.09-9.37 8.65-4.01 5.18-6.47 12.57-13.43 14.58-.92 2.03-1.53 4.27-2.99 6.01-1.77 1.64-4.1 2.48-5.97 3.98-.47 1.58-.21 3.27-.27 4.91-2.25.27-4.49.56-6.73.88 1.95 1.06 3.93 2.1 5.92 3.11l-2.87.56c.93.36 1.87.73 2.82 1.1-1.23.26-2.46.52-3.68.81-.18 1.28-.36 2.56-.52 3.86-1.59.87-3.16 1.78-4.79 2.58-6.04-.84-11.97-2.33-17.92-3.62 2.13-3.87 4.3-7.76 7.05-11.23 1.9-2.42 5.07-3.48 6.77-6.08 1.13-1.45 1.95-3.35 3.8-4.04 5.09-1.94 8.18-6.66 12.22-10.05 4.2-4.52 9.82-7.44 13.85-12.14 2.96-3.32 6.39-6.2 9.3-9.57 2.85-3.27 4.85-7.16 7.52-10.56 3.37-4.32 6.99-8.47 9.84-13.17 3.5-5.97 8.78-10.58 13.91-15.11 2.38-2.15 3.12-5.46 5.17-7.88 3.18-3.83 5.65-8.32 6.66-13.23.77-3.99 3.61-7.18 4.57-11.12 1.06-4.14 2.76-8.17 2.93-12.49.15-4.66 1.34-9.18 2.25-13.73 2.06-9.35 2.77-18.94 4.73-28.3 3.68-11.06 5.49-22.71 5.55-34.36.84-5.66.53-11.34.13-17.02.98-7.78-1.99-15.25-2.21-22.98z" fill="#d88617"/><path d="m477.21 384.21c5.5-.38 11.02-.43 16.53-.07.18 5 1.34 9.9 1.77 14.87-.79.91-1.78 1.62-2.65 2.45-.93-.32-1.86-.63-2.79-.93-.37 2.05-.74 4.11-1.1 6.17 1.18.31 2.38.63 3.58.94.42-1.27.85-2.53 1.29-3.78 1.33 1.34 2.69 2.67 4.03 4.02 1.86-1.54 3.5-3.89 6.15-3.93 2.86-.25 5.82-.3 8.62.44 2.97 1.48 2.6 5.35 3.94 7.98.98 2.65 4.06 3.11 6.36 4.08.62 1.48 1.23 3.37 3.2 3.37 4.82.45 9.61-.73 14.4-1.18.37-1.67.74-3.35 1.15-5.01 1.09 1.68 2.1 3.42 3.02 5.21.17-.77.51-2.31.68-3.09.55 3.77 2.03 7.29 3.17 10.9-.84 1.84-1.7 3.68-2.56 5.52-.49.17-1.49.51-1.98.68-.86-1.85-1.7-3.7-2.55-5.54-4.64 1.52-9.48 3.56-14.46 2.51-6.31-1.44-10.41-7.22-16.37-9.38-6.28 2.62-12.97 4.01-19.62 5.39-4.96 1.32-9.5-2.11-14.46-1.44-2.76.4-4.73-1.88-6.76-3.34-1.58.45-3.14.97-4.71 1.45l-3.82-4.48c-.2 3.33-.39 6.67-.56 10.01-.64-1.98-1.28-3.95-1.93-5.91-.5 1.43-1 2.87-1.44 4.33-.4-1.24-.77-2.48-1.11-3.72.05-.24.15-.72.2-.95 2.73-5 3.28-11.9-.5-16.53 1.86-.29 3.71-.58 5.56-.94-3.02-1.63-6.55-1.58-9.82-2.37 3.64-1.65 7.22-3.55 10.02-6.46 1.13.83 2.26 1.68 3.4 2.53 1.37-1.57 2.64-3.28 4.32-4.55 2.38-.67 4.88-.59 7.33-.76.16-2.84.31-5.66.47-8.49z" fill="#feeb61"/><path d="m564.43 394.5c4.23-2.91 9.61-3.16 14.57-3.25 5.48-.18 10.25 3.13 14.4 6.32 3.38 2.53 4.51 6.73 5.39 10.64-.51.69-1.01 1.39-1.5 2.1.64 2.73 1.47 5.49 1.32 8.34-.4 5.95-3.8 11.33-3.62 17.36.15 3.26-.61 6.46-.6 9.72-.54.59-1.07 1.2-1.59 1.83-5.95 6.09-14.96 8.51-23.12 5.9-11.07-5.31-18.07-16.84-19.56-28.8 1.53-3.98.94-8.28 1.44-12.41.72-2.23 2.78-3.69 4.15-5.52 3.35-3.77 4.39-9.3 8.72-12.23z" fill="#a06113"/><path d="m548.08 405.89c.62 1.06 1.24 2.11 1.86 3.18-.645 5.181-.585 10.425.18 15.59 1.49 11.96 8.49 23.49 19.56 28.8-4.45.46-7.79-2.94-10.97-5.51-1.82-2.4-3.59-4.84-5.51-7.17-3.43-3.89-3.25-9.4-4.64-14.13-1.14-3.61-2.62-7.13-3.17-10.9.33-1.55.76-3.07 1.19-4.59.49-1.76.99-3.52 1.5-5.27z" fill="#fce270"/><path d="m399.06 417.13c.17-3.65-1.27-8.46 2.87-10.37l-.06 1.28v.02c-.46 5.21-.66 10.48.18 15.67 1.43 10.37 6.85 20.69 15.98 26.23 6.35 3.97 14.84 4.06 21.32.33 7.87-4.48 13.14-12.72 15.35-21.37.54-2.07 1.07-4.12 1.53-6.19.34 1.24.71 2.48 1.11 3.72-1.07 4.43-2.39 8.79-4.16 13-.88 2.44-1.96 4.91-4.16 6.45-2.85 2.3-5.13 5.51-8.74 6.68-5.26 1.79-10.8 2.8-16.35 3.04-8.36-.2-14.84-6.64-18.9-13.38-1.67-8.45-6.29-16.31-5.97-25.11zm27.55 122.05c3.92.35 7.84.77 11.73 1.39-4.8 5.16-8.54 11.73-8.04 19.01-.27.05-.82.16-1.1.21-.51-5.7 2.06-10.82 3.73-16.1.53-.94 1.12-1.86 1.69-2.77-2.75-.2-5.45-.73-8.01-1.74z" fill="#fbdc67"/><path d="m601.61 407.64c.45.74.87 1.5 1.32 2.26.16-.55.49-1.65.65-2.2 2.32 13.15-.33 27.72-9.19 38.03-.01-3.26.75-6.46.6-9.72-.18-6.03 3.22-11.41 3.62-17.36.15-2.85-.68-5.61-1.32-8.34.49-.71.99-1.41 1.5-2.1.94-.17 1.87-.41 2.82-.57zm50.96 218.09c4.35-4.76 9.31-8.92 13.93-13.4l1.15-.07c-4.11 4.4-8.31 8.77-12.95 12.6-.53.22-1.6.65-2.13.87z" fill="#8c5c0e"/><path d="m401.87 408.04c11.49.06 22.99-.17 34.49.01 5.99 1.72 12.25.86 18.38 1.15 1.07 6.59-.99 13.17-.04 19.72-2.21 8.65-7.48 16.89-15.35 21.37-6.48 3.73-14.97 3.64-21.32-.33-9.13-5.54-14.55-15.86-15.98-26.23 1.04-5.12 1.89-10.7-.18-15.67zm29.15 7.7c-4.1.58-8.58-.13-12.3 2.06-2.71 1.84-2.06 5.35-2.74 8.11-.99 1.37-2.24 2.54-3.18 3.95-.36 1.98.03 3.99.18 5.99-.62-.53-1.24-1.06-1.85-1.57.2 6.13 3.14 13.25 9.62 14.95 4.17.32 8.35 2.5 12.42.42-1.27-.93-2.59-1.77-3.94-2.54 1.64.1 3.35.59 4.97.12 1.98-1.19 3.24-3.23 5.09-4.57 1.49-.37 3.05-.24 4.58-.28-.22-.83-.43-1.65-.64-2.47 5.42-6.95 7.34-16.04 6.54-24.71-6.26-.24-12.54-.34-18.75.54zm-117.99 159.9c1.79 1 3.02 2.66 4.02 4.41 2.5 4.26 5.65 8.08 8.53 12.09 3.86 5.17 8.17 9.99 12.61 14.68 1.56 1.74 3.54 3.44 3.7 5.96-10.96-11.24-20.62-23.78-28.86-37.14z" fill="#875311"/><path d="m436.36 408.05c6.61-.21 13.22-.15 19.83-.29.39 4.66.52 9.34.24 14.02-.05.23-.15.71-.2.95-.46 2.07-.99 4.12-1.53 6.19-.95-6.55 1.11-13.13.04-19.72-6.13-.29-12.39.57-18.38-1.15z" fill="#674100"/><path d="m720.66 408.68.2.07c1.02.98 1.96 2.04 2.95 3.06l.36.39c.14 1.09.23 2.19.29 3.29-1.1 7.31 2.37 14.22 1.94 21.51-.26 5.02.47 9.98 1.16 14.93.92 17.08-.63 34.22-4.01 50.96-.58 2.26-.5 4.61-.2 6.91.16 2.45-.98 4.75-1.5 7.1-5.61 20.82-14.32 40.79-25.7 59.11-5.81 9.11-11.88 18.23-19.36 26.04-3.47 2.34-6.64 5.33-8.18 9.32-.11.22-.33.67-.44.89h-.52l-1.15.07c-4.62 4.48-9.58 8.64-13.93 13.4.53-.22 1.6-.65 2.13-.87-10.26 9.72-22.14 17.73-34.12 25.24.16-1.3.34-2.58.52-3.86 1.22-.29 2.45-.55 3.68-.81-.95-.37-1.89-.74-2.82-1.1l2.87-.56c-1.988-1.009-3.961-2.046-5.92-3.11 2.24-.32 4.48-.61 6.73-.88.06-1.64-.2-3.33.27-4.91 1.87-1.5 4.2-2.34 5.97-3.98 1.46-1.74 2.07-3.98 2.99-6.01 6.96-2.01 9.42-9.4 13.43-14.58 3.43-2.56 5.97-6.07 9.37-8.65 5.2-3.93 8.82-9.51 11.97-15.12 1.06-1.89 2.89-3.11 4.42-4.57 2.46-2.22 3.48-5.64 6.16-7.65 3.62-2.94 8.03-5.45 9.96-9.92 1.18-2.78 2.51-5.51 4.48-7.81 2.36-2.69 3.01-6.4 5.53-8.97.45-2.73.84-5.46 1.26-8.19 1.23.36 2.45.72 3.69 1.1 1.12-5.89.47-12.36 4.14-17.49.24-3.57.07-7.17.39-10.73.26-2.25 2.06-4 2.23-6.26.2-3.4.08-6.85.95-10.18 1.27-5.33 1.51-10.84 2.75-16.17 3.05-12.53 2.49-25.57 4.87-38.21.61-4.07 2.29-8.33.61-12.35-.9 1.09-1.79 2.19-2.68 3.3.44-2.45 1.16-4.83 2-7.16 1.32-2.83-.08-5.87-.46-8.74-.65-2.64.1-5.3.72-7.85z" fill="#cc7f1a"/><path d="m401.87 408.06c2.07 4.97 1.22 10.55.18 15.67-.84-5.19-.64-10.46-.18-15.67z" fill="#633800"/><path d="m431.02 415.74c6.21-.88 12.49-.78 18.75-.54.8 8.67-1.12 17.76-6.54 24.71.21.82.42 1.64.64 2.47-1.53.04-3.09-.09-4.58.28-1.85 1.34-3.11 3.38-5.09 4.57-1.62.47-3.33-.02-4.97-.12 1.35.77 2.67 1.61 3.94 2.54-4.07 2.08-8.25-.1-12.42-.42-6.48-1.7-9.42-8.82-9.62-14.95.61.51 1.23 1.04 1.85 1.57-.15-2-.54-4.01-.18-5.99.94-1.41 2.19-2.58 3.18-3.95.68-2.76.03-6.27 2.74-8.11 3.72-2.19 8.2-1.48 12.3-2.06zm-142.7 103.42c1.11 1.76 2.2 3.56 2.8 5.57 4.35 14.65 10.75 28.62 17.99 42.06.89 1.83 1.5 3.78 2.15 5.72-10.22-16.48-18.02-34.59-22.94-53.35z" fill="#985f18"/><path d="m724.46 415.49c3.94 16.82 5.04 34.26 4.77 51.5-.88 14.37-1.92 28.91-5.88 42.81-.3-2.3-.38-4.65.2-6.91 3.38-16.74 4.93-33.88 4.01-50.96-.69-4.95-1.42-9.91-1.16-14.93.43-7.29-3.04-14.2-1.94-21.51z" fill="#a87428"/><path d="m461.27 418.02 3.82 4.48c1.57-.48 3.13-1 4.71-1.45 2.03 1.46 4 3.74 6.76 3.34 4.96-.67 9.5 2.76 14.46 1.44 6.65-1.38 13.34-2.77 19.62-5.39 5.96 2.16 10.06 7.94 16.37 9.38 4.98 1.05 9.82-.99 14.46-2.51.85 1.84 1.69 3.69 2.55 5.54.49-.17 1.49-.51 1.98-.68.86-1.84 1.72-3.68 2.56-5.52 1.39 4.73 1.21 10.24 4.64 14.13 1.92 2.33 3.69 4.77 5.51 7.17-.71 2.37-.27 5.16-1.59 7.29-4.01 1.88-8.54 2.25-12.75 3.57.41.77.83 1.55 1.25 2.34-2.55.83-5.1 1.66-7.66 2.47-4.19-4.16-9.35-8.49-15.64-8.07-1.97-3.91-4.18-7.69-6.22-11.56-1.73-3.25-1.7-7.03-2.78-10.47-.93-.67-1.95-1.18-2.92-1.73-.84 1.02-1.66 2.05-2.49 3.08-2.14.16-4.28.35-6.41.52-1.08 1.19-2.16 2.39-3.24 3.59-.92-.44-1.83-.87-2.73-1.3-1.68 1.37-3.17 3.38-5.52 3.48-5 .65-10.06.02-15.07.68-5.25.76-10.28-1.78-14.48-4.66-.77-.23-1.56-.42-2.33-.63.56 2.4 1.01 4.97-.8 6.98-.95-1.26-1.87-2.53-2.8-3.79-.34-.07-1.01-.22-1.35-.29 1.77-4.21 3.09-8.57 4.16-13 .44-1.46.94-2.9 1.44-4.33.65 1.96 1.29 3.93 1.93 5.91.17-3.34.36-6.68.56-10.01z" fill="#fde553"/><path d="m475.07 474.27c2.15-.23 4.23.3 6.21 1.11 3.89-.51 7.74.46 11.58.96 3.32.52 6.78 1.2 9.56 3.22 2.54 2.21 4.19 6.3 1.62 9.14-5.07-.83-10.18 2.55-14.98-.13-5.24 3.93-11.77 5-17.94 6.62 1.38.58 2.76 1.17 4.16 1.72-4.82 1.11-9.95.5-14.61 2.26 2.54.61 5.09 1.23 7.59 2.04-6.76 2.26-13.92 2.9-20.72 5.04-3.55 1.15-7.22 1.82-10.89 2.47 2.45-1.19 5.2-1.96 7.28-3.76.75-1.44 1.16-3.02 1.69-4.54 1.02-.68 2.05-1.35 3.08-2.01-6.61-.38-12.99-2.45-19.62-2.65-.12-2.54-.22-5.08-.3-7.61 5.28-.02 10.57-.29 15.86-.3.26-1.92.5-3.83.76-5.73 3.2-.11 6.4-.07 9.6-.07 5 .27 9.32-2.61 13.94-4.05 2.69.95 5.47 1.64 8.3 2.12-.72-1.96-1.45-3.9-2.17-5.85z" fill="#fcd43a"/><path d="m284.19 489.65c.8 2.05 1.63 4.09 2.48 6.13 4.66 4.64 5.03 11.59 7.61 17.28 3.03 5.06 6.35 10.52 6.29 16.62 5.66 5.8 5.94 14.19 9.47 21.11 1.67 3.82 1.43 8.18 3.19 11.97 1.63 3.37 2.27 7.36 5.12 10 3.32 3.34 6.02 7.24 9.33 10.6 1.21 1.48 3.31 1.08 5 1.39.07.59.2 1.75.26 2.34-.72.81-1.44 1.65-2.16 2.48-1.12-.05-2.24-.1-3.36-.13-.61.89-1.22 1.79-1.84 2.7-2.88-4.01-6.03-7.83-8.53-12.09-1-1.75-2.23-3.41-4.02-4.41l-.58-.41c-.43-.91-.85-1.8-1.19-2.72-.65-1.94-1.26-3.89-2.15-5.72-7.24-13.44-13.64-27.41-17.99-42.06-.6-2.01-1.69-3.81-2.8-5.57-2.63-6.8-3.91-14.2-4.89-21.4.3-2.7.67-5.4.76-8.11z" fill="#d5881d"/><path d="m485.3 494.69c7.37-2.77 15.46-2.94 23.24-2.58.32 1.25.64 2.5.97 3.76 7.86.45 15.73-.2 23.58.51-5.07 1.45-10.62.75-15.44 3.06 4.49 1.5 9.34.98 13.87 2.2 5.31 2.74 11.26 3.7 16.98 5.26 5.55 1.26 11.23 2.33 16.31 5.04 5.78 2.93 12.99 3.64 17.44 8.76-17.11-7.22-34.82-13.32-53.21-16.23-26.61-4.59-54.18-3.48-80.3 3.4-19.48 4.84-38.01 13.66-53.72 26.2.07 1.38.15 2.76.22 4.16 6.11.03 12.22-.3 18.32.09-5.58.86-11.23 1.08-16.87.96-1.83.15-2.84-1.56-3.99-2.67 1.5-4.19 5.19-6.83 8.22-9.85 4.14-4.38 10.28-5.56 15.37-8.44 6.55-3.69 13.41-6.75 20.36-9.6 3.67-.65 7.34-1.32 10.89-2.47 6.8-2.14 13.96-2.78 20.72-5.04-2.5-.81-5.05-1.43-7.59-2.04 4.66-1.76 9.79-1.15 14.61-2.26 3.64 1.58 7.59.58 11.3-.13-.43-.7-.86-1.4-1.28-2.09zm55.64 153.17c5.68-1.02 11.36.3 17.07.1 5.38-.35 9.86 3.22 15.02 4.05 2.02.5 4.34.25 6.08 1.59-2.03.28-4.08.49-6.11.71-1.19 2.79-4.27 2.73-6.85 2.31-6.37 2.35-13.36-1.89-19.56.68-4.33-2.86-8.98 2.78-13.13-.67-.39.31-1.17.92-1.56 1.23l-5.91.15c-1.42 1.63-2.81 3.3-4.17 4.99 5.13 4.81 12.83 2.15 18.68 5.37 5.61 2.94 11.3 5.76 17.2 8.09.59 1.39 1.18 2.79 1.77 4.2 1.11-.01 2.23-.04 3.35-.03.53 1.28 1.03 2.56 1.57 3.85.43-.07 1.29-.22 1.72-.29 1.25 2.62 3.18 4.8 5.56 6.48-1.04 1.27-1.71 3.39-3.67 3.35-3.48.3-5.27-3.55-8.31-4.63-3.96-1.42-7.2-5.14-11.71-4.52-4.12.04-7.85 2.25-11.99 2.25-3.01.04-5.54 1.79-8.08 3.17 1.17 1.14 2.37 2.25 3.59 3.36.82 4.69.75 9.56-1.92 13.69-1.09-.02-2.19-.05-3.27.05-1.15.94-1.46 2.54-2.16 3.81-3.47 1.67-7.41 3.15-9.11 6.91-.74 2.01-3.13 1-4.73 1.21-.19 1.52-.38 3.05-.55 4.59-.52-.96-1.03-1.92-1.54-2.86.02 4.91 1.38 9.72 1.44 14.63-1.37 3.7-6.38 3.01-9.58 2.95-.8 2.47-1.06 6.37-4.68 5.39-.24-1.31-.48-2.6-.71-3.89-3.51-2.07-9.87.03-9.4 4.68-3.39-.75-6.91.09-10.28-.76-2.85-.72-5.78-.94-8.65-1.49-.95-.82-1.3-2.11-1.98-3.11-1.25-2.3-4.07-3.15-5.42-5.37-.89-1.56-1.44-3.27-2.04-4.94.61-.69 1.22-1.38 1.83-2.06-2.54-2.57-3.69-6.07-5.97-8.81-2.29-2.37-1.92-5.95-3.13-8.84-.97-3.44-3.84-5.98-4.55-9.5-.45-3.17-3.04-5.44-3.58-8.57-1.38-6.11-4.05-11.87-4.88-18.1-1.65-1.34-3.67-2.39-4.75-4.28-.07-2.02 1.97-3.16 3.15-4.5 3.12.89 6.22.12 9.28-.61 4 .66 8.09-.1 12.06.82l.16-1.46c9.27.92 18.2-2.5 27.23-3.87 1.06.09 2.13.22 3.19.4.99-.94 1.9-2.01 3.09-2.7 1.16.36 2.27.89 3.44 1.24 6.76-1.89 13.53-3.99 20.44-5.38 3.84-.8 7.41-2.91 11.44-2.68 5.23-.5 10.27-2.31 15.57-2.38z" fill="#fad44f"/><path d="m448.74 507.87c26.12-6.88 53.69-7.99 80.3-3.4 18.39 2.91 36.1 9.01 53.21 16.23 4.9 2.74 10.28 4.69 14.78 8.09 3.72 3.32 4.98 8.59 4.41 13.41-1-2.94-3.31-4.65-6.41-4.75-2.29 2.05-4.46 4.24-6.6 6.45-5.53 2.08-11.6 1.77-17.39 2.44-11.27.14-22.57.41-33.81-.54-6.77-.41-13.78-1.07-20.16 1.79 2.35 1.82 4.69 3.65 7.04 5.47.06.51.19 1.52.25 2.03 3.11 1.28 4.68 4.3 6.17 7.13 1.93 3.85 6.19 5.41 9.45 7.89 1.04.56 1.49 1.62 1.67 2.76-6.65-3.67-12.64-8.36-18.65-12.94-7.82-6.01-16.5-11.14-26.03-13.85-6.91-2.14-14.19-4.46-21.48-3.37-4.09 1.88-7.32 5.42-9.32 9.42-1.64 3.28-3.14 6.64-4.92 9.85-.44-2.06-.91-4.09-1.23-6.16-.29-5.35 1.28-10.51 3.11-15.47-5.2-.34-10.84-.51-15.4 2.42-6.7 4.3-11.95 10.4-16.75 16.66l-.68.15c-.5-7.28 3.24-13.85 8.04-19.01-3.89-.62-7.81-1.04-11.73-1.39-1.88-.3-3.77-.53-5.66-.64-2.46-.12-4.93-.18-7.39-.22-6.1-.39-12.21-.06-18.32-.09-.07-1.4-.15-2.78-.22-4.16 15.71-12.54 34.24-21.36 53.72-26.2m-30.08 17.84c-2.1.91-2.38 3.35-2.18 5.38 1.74 3.74 6.59 2.24 9.85 2.98-.59.39-1.79 1.17-2.38 1.56 5.11-.04 10.85 1.83 15.53-.82 12.15 1.02 24.35 1.12 36.51 1.95 9.43 1.38 18.95 1.91 28.48 1.79 10.15 1 20.34.87 30.53 1.05 4.36-.03 8.64 1 13.01.83 8.54-.07 17.16.69 25.65-.49 3.3-.56 6.67-.52 10.02-.63-.02-.38-.05-1.13-.07-1.51l1.29 1.09c1.94-2.04 3.01-4.57 2.76-7.41l-1.28.13.26-1.17-.78-.12c-9.22-7.33-20.6-11.2-31.74-14.56-2.53-.58-5.06-1.23-7.67-1.36l.01-.85c-1.68-.02-3.35-.04-5.01-.04l.05-1.01c-1.21-.03-2.4-.08-3.59-.14-4.32-1.28-8.98-1.83-13.5-1.86l.01-.84c-5.94-.04-11.87-.37-17.81-.26l-.18-.84c-9.81.38-19.66-.76-29.44.44-20.16 2.11-40.6 6.49-58.33 16.71zm249.95 85.66c1.54-3.99 4.71-6.98 8.18-9.32-.63.79-1.28 1.57-1.95 2.34-1.8 1.89-3.54 3.84-5.22 5.84-.25.29-.76.85-1.01 1.14zm-300.04 24.72c4.34 1.33 7.63 4.55 11.4 6.92 2.23 1.39 4.24 3.1 6.01 5.05-6.14-3.45-12-7.47-17.41-11.97zm32.63 20.55c3.06.71 6.07 1.64 8.91 3.01.37.17 1.12.51 1.49.69l-2.02.2c-3.02-.52-5.69-2.48-8.38-3.9z" fill="#744609"/><path d="m294.28 513.06c.76-.37 2.26-1.12 3.01-1.49 1.94 3.86 3.11 8.08 5.38 11.79 2.6 4.13 2.99 9.22 5.65 13.33 1.58 2.51 2.78 5.25 3.35 8.17 1 5.39 6.57 7.97 8.68 12.77 2.14 4.89 6.84 7.86 10.21 11.82 4.17 3.23 6.69 8.01 10.79 11.29 4.66 3.88 8.33 8.92 13.62 12.05 3.9 2.2 5.32 6.8 8.56 9.72 4.97 4.64 9.23 10.19 15.18 13.67 3.63 2.04 6.28 5.45 10.17 7.07 2.74 2.87 3.26 7.06 5.33 10.36-.77 1.14-1.43 2.37-2.2 3.52-.78-.79-1.56-1.57-2.33-2.35-.54.16-1.08.32-1.62.49-3.11-1.56-6.02-3.56-8.07-6.42-2.53-3.58-7.77-3.05-10.43-6.47-2.22-2.49-5.14-4.14-7.67-6.26-4.4-3.97-8.84-7.89-13.14-11.97-3.39-2.99-5.13-7.27-7.87-10.78-1.16.04-2.33.09-3.48.15-1.61-2.06-3.21-4.14-4.46-6.43-.06-.59-.19-1.75-.26-2.34-1.69-.31-3.79.09-5-1.39-3.31-3.36-6.01-7.26-9.33-10.6-2.85-2.64-3.49-6.63-5.12-10-1.76-3.79-1.52-8.15-3.19-11.97-3.53-6.92-3.81-15.31-9.47-21.11.06-6.1-3.26-11.56-6.29-16.62z" fill="#e28f16"/><path d="m474.93 517.76c5.5-2.57 11.65-.53 17.46-.61 5.45 1.87 10.74-1.55 16.23-.68 6.4.93 12.89.27 19.29 1.14 5.01.63 10.06.36 15.08 0-.88.71-1.76 1.4-2.63 2.12 4.71 1.15 9.25 3 14.05 3.8 1.9.2 3.88-1.97 5.59-.76.76 1.62 1.16 3.39 1.61 5.12 4.27.22 8.6-.04 12.83.74.65 1.8-1.24 3.25-1.78 4.83 3.5 1.11 7.18.79 10.8.85.03 1.15.07 2.32.15 3.49.02.38.05 1.13.07 1.51-3.35.11-6.72.07-10.02.63-8.49 1.18-17.11.42-25.65.49-4.37.17-8.65-.86-13.01-.83-10.19-.18-20.38-.05-30.53-1.05-1.34-1.99-2.13-5-4.82-5.52-5.01-1.36-10.21.12-15.3-.03.4-.95.8-1.88 1.2-2.81-2.81-.48-5.62-.95-8.43-1.44.85-.43 1.71-.86 2.57-1.28-3.1-1.09-5.98-2.71-9.05-3.83-1.24.17-2.42.65-3.6 1.04-1.48-.96-2.95-1.94-4.41-2.91 3.99-1.67 8.23-2.57 12.3-4.01z" fill="#fefbfd"/><path d="m423.95 535.63c.59-.39 1.79-1.17 2.38-1.56 4.37.44 8.77.42 13.15.74-4.68 2.65-10.42.78-15.53.82z" fill="#563002"/><path d="m588.43 543.9c2.14-2.21 4.31-4.4 6.6-6.45 3.1.1 5.41 1.81 6.41 4.75-1.39 3.9-3.63 7.41-6.04 10.75-5.55 6.73-11.82 12.82-18.45 18.48-3.06 2.05-5.98 4.39-9.3 6.04-4.13 1.7-8.74 1.47-13.1 1.01l-1.03-.36c-4.04-1.57-8.15-3.01-11.87-5.25-.18-1.14-.63-2.2-1.67-2.76-3.26-2.48-7.52-4.04-9.45-7.89-1.49-2.83-3.06-5.85-6.17-7.13-.06-.51-.19-1.52-.25-2.03 7.01 4.2 13.81 8.75 20.68 13.17 4.38 3.72 10.28 5.69 16 5.24 4.6-1.3 9.79-1.74 13.47-5.14 3.99-3.51 9.08-5.45 13.03-9.01 4.97-4.51 10.51-9.24 11.84-16.18-3.91-1.63-7.21 1.55-10.7 2.76z" fill="#8c5005"/><path d="m420.95 538.54c1.89.11 3.78.34 5.66.64 2.56 1.01 5.26 1.54 8.01 1.74-.57.91-1.16 1.83-1.69 2.77-1.16.69-2.31 1.41-3.47 2.09l-1.09-2.14c-3.49.88-6.82-.2-9.47-2.51.68-.87 1.36-1.73 2.05-2.59z" fill="#ddac3e"/><path d="m447.73 542.77c4.56-2.93 10.2-2.76 15.4-2.42-1.83 4.96-3.4 10.12-3.11 15.47-.15 1.56-.33 3.12-.53 4.68-1.87-4.28-1.75-9.01-1.82-13.58-2.51 1.23-4.98 2.52-7.43 3.87-1.13-.79-2.26-1.59-3.38-2.37-1.76.7-3.53 1.4-5.29 2.11-.31 1.18-.61 2.37-.91 3.56-1.23.24-2.54.25-3.67.81-1.96 1.58-3.1 4.58-6.01 4.53 4.8-6.26 10.05-12.36 16.75-16.66z" fill="#f0be4e"/><path d="m588.43 543.9c3.49-1.21 6.79-4.39 10.7-2.76-1.33 6.94-6.87 11.67-11.84 16.18-3.95 3.56-9.04 5.5-13.03 9.01-3.68 3.4-8.87 3.84-13.47 5.14-5.72.45-11.62-1.52-16-5.24-6.87-4.42-13.67-8.97-20.68-13.17-2.35-1.82-4.69-3.65-7.04-5.47 6.38-2.86 13.39-2.2 20.16-1.79 11.24.95 22.54.68 33.81.54 5.79-.67 11.86-.36 17.39-2.44z" fill="#a4650f"/><path d="m475.49 542.71c7.29-1.09 14.57 1.23 21.48 3.37 9.53 2.71 18.21 7.84 26.03 13.85 6.01 4.58 12 9.27 18.65 12.94 3.72 2.24 7.83 3.68 11.87 5.25-6.77.83-12.74-2.77-17.93-6.62-5.66-3.2-10.48-7.56-15.63-11.46-6.9-4.75-14.16-9.19-22.18-11.79-3.2-1.07-6.62-.72-9.93-.75-4.55.06-9.13-.47-13.66.14-3.18.38-5.51 2.76-8.02 4.49 2-4 5.23-7.54 9.32-9.42z" fill="#f3bf4b"/><path d="m343.88 545.24.44-1.13c1.2 2.57 2.5 5.1 4.04 7.49.46-.31 1.39-.93 1.85-1.24 1.75 3.25 3 7.06 6.19 9.24 2.69 1.86 4.94 4.26 7.38 6.43 4.32 2.5 9.93 2.72 13.21 6.92 2.43.34 4.78 1.03 6.96 2.17-.97.6-1.93 1.21-2.89 1.82 5.24 2.31 11.16 1.75 16.55 3.62.71-1.16 1.41-2.32 2.12-3.47.61 2.26 1.19 4.52 1.76 6.8 1.21-.02 2.42-.02 3.64-.02-.27-2.31-.6-4.61-1.01-6.9 3.34-.12 6.59-1.28 9.95-1.07 2.22-.2 3.01 2.12 4.25 3.49 1.73.17 3.65.07 5.04 1.32 3.5 2.6 7.49 4.41 11.11 6.84 6.75 3.92 14.59 4.44 22.1 5.73.28 1.52.57 3.05.86 4.59 1.82-.19 3.65-.48 5.49-.38 2.62.54 4.76 2.43 7.4 2.92 1.83.16 3.66-.05 5.5-.14-.8.44-1.58.9-2.36 1.37.37.58.77 1.17 1.18 1.75 3.65.62 7.04 2.46 10.83 2.25 2.68-.42 3.36 2.87 4.76 4.5 4.36-2.32 9.33-2.44 14.16-2.43.58-.98 1.16-1.95 1.75-2.91 5.89 2.1 12.15 3.91 18.45 2.68 6.27-1.38 12.56 1.71 18.8-.02 4.92-1.46 11.06-1.37 14.39-5.88 2.65-2.7 6.18-4.25 9.27-6.36.23-.87.45-1.73.69-2.59.72-.35 1.44-.69 2.18-1.02 1.19-3.89 5.29-6.41 4.91-10.82.8 1.15 1.61 2.3 2.44 3.45.67-2.16 1.59-4.39 1-6.66-.4-1.99-.92-5.07 1.64-5.8 2.39-1 3.89 1.82 5.62 2.95.31-1.52.57-3.05.89-4.55 3.17 1.49 6.64 2.09 10.14 1.81.24-1.13.5-2.23.75-3.34 4.11 3.88 9.3 6.77 14.78 8.12-.72 1.17-1.43 2.34-2.14 3.51 2.9 1.17 5.82 2.65 9.02 2.7 2.59-1.89 5.41-3.34 8.28-4.75 3.5-5.51 7.04-11.05 10.23-16.77 1.55-2.53 5.07-2.66 6.91-4.91 2-2.36 3.92-4.81 6.29-6.81-.7 3.54.2 7.01.66 10.5-3.22 4.79-5.79 10.13-9.96 14.23-4.21 4.3-5.67 10.62-10.37 14.51-4.59 3.76-8.78 8.27-14.44 10.44-4.98 2.29-11.42 2.57-14.46 7.8-.84.16-1.67.33-2.49.52-1.03.92-2.01 1.91-3.14 2.71-3.24.19-6.4-1.05-9.65-.98-2.92-.19-5.71.84-8.56 1.21-1.83-.61-3.46-1.64-5.14-2.55-2.65 4.88-8.85 5.03-12.97 8.14-3.37 2.56-7.61 2.97-11.69 3.04-.4 1.3-.79 2.61-1.17 3.93-4.45-.02-8.12 2.77-12.3 3.85-4.58 1.5-9.52 1.43-14.07 3.01 1.01.68 2.03 1.36 3.05 2.05-3.4.53-6.82.03-10.23.09-2.98.75-5.61 2.63-8.74 2.9-3.12.63-5.98-1.33-9.06-1.37-4.73.02-9.31 1.34-13.81 2.65-.91-1.2-1.81-2.4-2.71-3.58-1.088 1.88-2.135 3.784-3.14 5.71-5.04.17-9.89 1.82-14.89 2.07-2.06-1.25-2.84-4.18-5.38-4.64-4.35-.96-8.72-1.95-12.63-4.16-.75 2.69-.27 5.44.57 8.05l-2.45-.48c-2.44-4.7-6.12-8.62-8.33-13.44-1.48-2.73-2.58-6.03-5.47-7.58-3.19-1.82-6.19-3.93-9.37-5.74-2.13-1.29-4.68-.45-6.99-.46-5.49-1.4-11.24-1.12-16.37 1.38-1.79.67-3.57 1.36-5.36 2.02.86-2.21 2.43-3.98 4.01-5.67-.25-.26-.75-.77-1.01-1.03-4.57-.96-8.05-4.4-10.67-8.08-1.43-.45-2.98-.69-4.25-1.53-.93-1.58-1.44-3.35-2.15-5.02-2.03-3.32-5.02-5.88-7.43-8.9.42-.73.84-1.46 1.26-2.17-1.2-.57-2.4-1.14-3.59-1.7-1.81-4.78-6.12-7.74-9.27-11.55.26-.85.52-1.7.78-2.53-5.07-3.58-7.96-9.35-13.06-12.85-.29-3.09-.5-6.2-.36-9.3z" fill="#fdb424"/><path d="m567.65 577.47c3.32-1.65 6.24-3.99 9.3-6.04-2.39 4.18-6.66 6.98-11.2 8.36-3.71.75-8.12 1.47-11.2-1.31 4.36.46 8.97.69 13.1-1.01z" fill="#f9c355"/><path d="m330.78 589.57c.72-.83 1.44-1.67 2.16-2.48 1.25 2.29 2.85 4.37 4.46 6.43 1.15-.06 2.32-.11 3.48-.15 2.74 3.51 4.48 7.79 7.87 10.78 4.3 4.08 8.74 8 13.14 11.97 2.53 2.12 5.45 3.77 7.67 6.26 2.66 3.42 7.9 2.89 10.43 6.47 2.05 2.86 4.96 4.86 8.07 6.42.54-.17 1.08-.33 1.62-.49.77.78 1.55 1.56 2.33 2.35.77-1.15 1.43-2.38 2.2-3.52 4.05 7.56 8.86 14.65 13.82 21.63.77 1.43 1.42 2.91 2.08 4.41-2.84-1.37-5.85-2.3-8.91-3.01-5.42-2.09-10.53-5.18-15.22-8.58-1.761-1.953-3.783-3.652-6.01-5.05-3.77-2.37-7.06-5.59-11.4-6.92l-.04-.05c-2.24-3.24-5.66-5.32-8.52-7.93-3.48-2.88-6.48-6.5-10.76-8.24-2.85-1.88-5.05-4.67-7.36-7.09-.16-2.52-2.14-4.22-3.7-5.96-4.44-4.69-8.75-9.51-12.61-14.68.62-.91 1.23-1.81 1.84-2.7 1.12.03 2.24.08 3.36.13z" fill="#ce8019"/><path d="m669.62 610.23c1.68-2 3.42-3.95 5.22-5.84-.24 2.85-2.42 5.28-5.22 5.84z" fill="#f0dcb5"/><path d="m394.98 613.55c5.13-2.5 10.88-2.78 16.37-1.38 6.4 3.01 13.03 6.78 16.46 13.25 3.72 7.04 8.82 13.24 12.33 20.4 2.59 4.49 3.71 9.59 5.82 14.3 5.03-.87 9.97-2.21 15.02-2.97 10.86-1.44 21.44-4.45 32.28-6.01 14.71-3.67 29.71-6.18 44.71-8.37 4.31-.83 8.7-2.3 13.09-1.07 9.95 2.19 20.16 3.28 29.84 6.58 18.04 5.52 36.99 7.4 54.91 13.39 3.02.84 4.1 4.17 5.89 6.44-.26 5.03-4.26 9.23-9.34 9.53-13.29.58-26.81.21-39.77-3.11-4.49-1.02-8.85-3.44-13.58-2.53-4.33-1.92-9.27-2.15-13.28-4.8-2.6-1.73-5.72-2.09-8.75-2.19 5.57 7.32 13.56 12.06 20.22 18.27 5.85 5.97 11.51 12.15 16.55 18.84 6.31 9.97 14.3 18.83 19.86 29.28.47 1.14.77 2.35 1.1 3.55 3.31 1.74 5.14 5.08 5.6 8.71.57 1.47 1.07 3 1.03 4.62-2.75-1.79-4.95-4.25-6.66-7.02-3.57-5.64-9.11-9.5-13.71-14.2-5.62-5.36-10.76-11.37-17.43-15.5-4.24-2.58-8-6.03-12.77-7.63 2.14 4.74 7.09 7.12 10.49 10.83 8.17 8.21 16.89 15.96 23.88 25.24 2.34 2.92 5.9 4.61 8.03 7.74 1.78 2.54 3.31 5.25 4.98 7.88.56 2.32 1.24 4.67 1.22 7.09-.45 1.68-1.71 3.01-2.6 4.48-8.13-8.52-14.7-18.77-24.89-25.07-5.04-2.84-8.36-7.71-12.86-11.21-4.55-3.91-9.77-6.91-14.54-10.52-4.06-3.11-9.13-4.29-13.92-5.77-6.34-1.94-13.4-1.34-19.25 1.76-.72 1.93.91 3.77 2.43 4.76 3.43 1.28 7.2 1.24 10.69 2.39 3.7 1.22 7.16 3.07 10.89 4.22 11.22 3.28 20.26 11.07 29.38 18.03 6.08 4.39 11.15 10.02 17.26 14.38 3.7 2.57 6.23 6.36 9.01 9.83 1.29 1.79 2.95 3.62 2.93 5.98.36 3.03-1.4 5.62-2.86 8.11-2.79-.12-5.88.89-8.47-.53-6.75-3.64-13.55-7.19-20.01-11.33 1.13-1.2 2.25-2.39 3.39-3.57-2.76-.59-5.8-.67-8.11-2.46-2.19-1.63-4-3.69-5.88-5.64-.91.03-1.82.08-2.72.13-3.09-3.48-7.96-4.47-11.02-7.98-1.04-.01-2.07-.01-3.09 0-.9-.91-1.61-2.54-3.16-2.23-4 .31-8 .53-12 .17-3.92-.36-7.53 1.39-10.91 3.13-.98-.48-1.94-.94-2.9-1.39-2.03 2.06-4.51 3.55-7.21 4.55-1.24 3.19-2.02 6.8-4.67 9.18-1.62 1.51-3.04 3.2-4.28 5.04-4.99-2.32-11.59.89-15.54-3.61-.4-.37-1.21-1.11-1.62-1.48-1.33.65-2.67 1.27-3.99 1.93-.6-1.97-1.25-3.93-1.94-5.87-3.17 1.59-5.93 3.86-9.04 5.57-3.05.79-6.37.66-9.41-.13-1.65-2.01-2.28-4.98-4.78-6.17-1.78-1.22-4.35-1.62-5.29-3.75-1.89-3.82-3.83-7.6-5.93-11.3-.63 1.41-.3 3.95-2.46 3.85-1.34-3.3-1.12-6.92-1.74-10.36-.29-3.38-3.86-5.12-4.62-8.31-1.54-6.91-4.54-13.37-7.61-19.69-2.99-5.41-4.22-11.59-4.61-17.7-.3-4.06-.83-8.3-3.29-11.66-1.98 4.95-1.23 10.33-1.15 15.52-.01 2.19.29 4.65-1.26 6.45-.43-4.47-.51-8.99-1.43-13.4-.88-4.19-.5-8.48-.89-12.71-1.34.29-2.67.6-4 .9.2-4.01-1.41-7.76-3.4-11.14-.39-1.14-.9-2.22-1.27-3.35-.4-1.18-.72-2.39-1.08-3.57-.69-.29-1.37-.57-2.05-.83-.37-.18-1.12-.52-1.49-.69-.66-1.5-1.31-2.98-2.08-4.41.34-1.12.69-2.24 1.04-3.34-1.5-2.45-3.09-4.85-4.72-7.21-3.26-4.42-4.02-10.18-7.65-14.38-3.81-4.56-5.55-11.67-1.72-16.76m145.96 34.31c-5.3.07-10.34 1.88-15.57 2.38-4.03-.23-7.6 1.88-11.44 2.68-6.91 1.39-13.68 3.49-20.44 5.38-1.17-.35-2.28-.88-3.44-1.24-1.19.69-2.1 1.76-3.09 2.7-1.06-.18-2.13-.31-3.19-.4-9.03 1.37-17.96 4.79-27.23 3.87l-.16 1.46c-3.97-.92-8.06-.16-12.06-.82-3.06.73-6.16 1.5-9.28.61-1.18 1.34-3.22 2.48-3.15 4.5 1.08 1.89 3.1 2.94 4.75 4.28.83 6.23 3.5 11.99 4.88 18.1.54 3.13 3.13 5.4 3.58 8.57.71 3.52 3.58 6.06 4.55 9.5 1.21 2.89.84 6.47 3.13 8.84 2.28 2.74 3.43 6.24 5.97 8.81-.61.68-1.22 1.37-1.83 2.06.6 1.67 1.15 3.38 2.04 4.94 1.35 2.22 4.17 3.07 5.42 5.37.68 1 1.03 2.29 1.98 3.11 2.87.55 5.8.77 8.65 1.49 3.37.85 6.89.01 10.28.76-.47-4.65 5.89-6.75 9.4-4.68.23 1.29.47 2.58.71 3.89 3.62.98 3.88-2.92 4.68-5.39 3.2.06 8.21.75 9.58-2.95-.06-4.91-1.42-9.72-1.44-14.63.51.94 1.02 1.9 1.54 2.86.17-1.54.36-3.07.55-4.59 1.6-.21 3.99.8 4.73-1.21 1.7-3.76 5.64-5.24 9.11-6.91.7-1.27 1.01-2.87 2.16-3.81 1.08-.1 2.18-.07 3.27-.05 2.67-4.13 2.74-9 1.92-13.69-1.22-1.11-2.42-2.22-3.59-3.36 2.54-1.38 5.07-3.13 8.08-3.17 4.14 0 7.87-2.21 11.99-2.25 4.51-.62 7.75 3.1 11.71 4.52 3.04 1.08 4.83 4.93 8.31 4.63 1.96.04 2.63-2.08 3.67-3.35-2.38-1.68-4.31-3.86-5.56-6.48-.43.07-1.29.22-1.72.29-.54-1.29-1.04-2.57-1.57-3.85-1.12-.01-2.24.02-3.35.03-.59-1.41-1.18-2.81-1.77-4.2-5.9-2.33-11.59-5.15-17.2-8.09-5.85-3.22-13.55-.56-18.68-5.37 1.36-1.69 2.75-3.36 4.17-4.99l5.91-.15c.39-.31 1.17-.92 1.56-1.23 4.15 3.45 8.8-2.19 13.13.67 6.2-2.57 13.19 1.67 19.56-.68 2.58.42 5.66.48 6.85-2.31 2.03-.22 4.08-.43 6.11-.71-1.74-1.34-4.06-1.09-6.08-1.59-5.16-.83-9.64-4.4-15.02-4.05-5.71.2-11.39-1.12-17.07-.1z" fill="#f7c749"/><path d="m411.35 612.17c2.31.01 4.86-.83 6.99.46 3.18 1.81 6.18 3.92 9.37 5.74 2.89 1.55 3.99 4.85 5.47 7.58 2.21 4.82 5.89 8.74 8.33 13.44l2.45.48c1.53 5.04 2.08 12.02 7.69 14.26 11.33.32 22.3-2.94 33.26-5.37 4.5-.99 8.55-3.38 13.1-4.18 11.6-2.1 22.95-5.36 34.57-7.33 5.47-.72 10.97.06 16.41.63 13.59 2.26 26.45 8.21 40.3 9.02 2.85.73 5.7 1.49 8.58 2.16 5.95 1.29 11.88 2.78 17.92 3.62 4.87 1.16 9.78 2.08 14.65 3.26 3.38 4.18 10.11 4 12.5 9.11 1.26 3.09 1.57 7.27-1.15 9.7-4.42 4.39-11.22 5.55-17.21 4.84-5.49-.66-11.05-.97-16.52.01-6.79.38-13.43-1.44-20.13-2.21-4.48-.55-8.4-3.54-13.02-3.08 3.78 4.79 7.07 9.97 11.32 14.37 12.81 12.4 24.34 26.29 33.28 41.76 2.21 4.75 5.49 9.18 5.81 14.6 1.28 5.75-1.08 11.35-1.34 17.08-.07-1.38-.15-2.75-.26-4.11-.53 1.03-1.05 2.07-1.53 3.14-1.36-1.84-2.75-3.65-4.04-5.53-1.67-2.63-3.2-5.34-4.98-7.88-2.13-3.13-5.69-4.82-8.03-7.74-6.99-9.28-15.71-17.03-23.88-25.24-3.4-3.71-8.35-6.09-10.49-10.83 4.77 1.6 8.53 5.05 12.77 7.63 6.67 4.13 11.81 10.14 17.43 15.5 4.6 4.7 10.14 8.56 13.71 14.2 1.71 2.77 3.91 5.23 6.66 7.02.04-1.62-.46-3.15-1.03-4.62-.46-3.63-2.29-6.97-5.6-8.71-.33-1.2-.63-2.41-1.1-3.55-5.56-10.45-13.55-19.31-19.86-29.28-5.04-6.69-10.7-12.87-16.55-18.84-6.66-6.21-14.65-10.95-20.22-18.27 3.03.1 6.15.46 8.75 2.19 4.01 2.65 8.95 2.88 13.28 4.8 4.73-.91 9.09 1.51 13.58 2.53 12.96 3.32 26.48 3.69 39.77 3.11 5.08-.3 9.08-4.5 9.34-9.53-1.79-2.27-2.87-5.6-5.89-6.44-17.92-5.99-36.87-7.87-54.91-13.39-9.68-3.3-19.89-4.39-29.84-6.58-4.39-1.23-8.78.24-13.09 1.07-15 2.19-30 4.7-44.71 8.37-10.84 1.56-21.42 4.57-32.28 6.01-5.05.76-9.99 2.1-15.02 2.97-2.11-4.71-3.23-9.81-5.82-14.3-3.51-7.16-8.61-13.36-12.33-20.4-3.43-6.47-10.06-10.24-16.46-13.25z" fill="#e8ac3a"/><path d="m389.62 615.57c1.79-.66 3.57-1.35 5.36-2.02-3.83 5.09-2.09 12.2 1.72 16.76 3.63 4.2 4.39 9.96 7.65 14.38 1.63 2.36 3.22 4.76 4.72 7.21-.35 1.1-.7 2.22-1.04 3.34-4.96-6.98-9.77-14.07-13.82-21.63-2.07-3.3-2.59-7.49-5.33-10.36.21-2.57.41-5.14.74-7.68z" fill="#edab3a"/><path d="m630.44 655.94c6.37.64 12.64 4.33 15.36 10.28.91 1.42.42 3.12-.04 4.62-1.93 7.08-9.81 10.87-16.7 10.8-7.02-.12-14.28.31-21-2.04 5.47-.98 11.03-.67 16.52-.01 5.99.71 12.79-.45 17.21-4.84 2.72-2.43 2.41-6.61 1.15-9.7-2.39-5.11-9.12-4.93-12.5-9.11z" fill="#d6a550"/><path d="m411.6 660.34c.68.26 1.36.54 2.05.83.36 1.18.68 2.39 1.08 3.57.37 1.13.88 2.21 1.27 3.35 1.99 3.38 3.6 7.13 3.4 11.14-.21 2.65.72 5.13 1.8 7.5 1.93 4.21.38 8.84-.17 13.18-.64 2.93 2.36 5.13 2.18 8.07.36 12.54-1.75 24.98-3.26 37.39-.35.09-1.03.28-1.37.37-.34 5.43-1.08 10.82-1.33 16.26-.58 8.47-5.79 15.68-6.79 24.05-.82 5.36-2.17 10.61-3.51 15.86-.85 2.87.24 5.75.96 8.51-1.2.47-2.4.94-3.6 1.42.54 3.38 1.83 6.67 1.55 10.15-.17 2.71.23 5.4.64 8.07.27 1.81.44 3.64.66 5.47.84.07 1.67.14 2.51.23.37 3.43.14 7.29 2.38 10.18 2.74 3.68 7 5.71 10.41 8.66 2.29 2.06 4.7 4.1 7.73 4.97 7.22 3.06 14.95 5.08 22.85 4.35 7.75.12 14.45-4.12 21.54-6.56 3.01-.91 4.75-3.62 5.78-6.41 2.04.25 4.76.66 5.8-1.63 1.36-2.69 4.06-4.02 6.31-5.8 2.04-2.72 3.17-6.06 5.64-8.46 3.58-3.68 5.33-8.61 8.31-12.71 2.07-2.76 2.23-6.31 3.35-9.46.96-.4 2-.54 2.99-.88-.27-1.79-.55-3.58-.82-5.36.92-.11 1.86-.19 2.79-.28-.48-1.51-.95-3.01-1.37-4.52.55-.64 1.67-1.9 2.23-2.54 1.113 2.474 1.822 5.111 2.1 7.81-1.9 8.13-4.92 15.95-8.12 23.65-1.03 3.04-2.65 5.83-4.58 8.39l-.31.16c-3.87 1.67-6.03 5.53-9.11 8.22-5.29 4.8-11.15 9.22-17.76 12.03-4.82 1.36-8.87 4.65-13.84 5.53-2.64.56-5.29 1.04-7.94 1.57 1.79.05 3.58.1 5.38.12-1.87.86-3.94 1.1-5.96.78-5.1-1.06-10.32-.73-15.5-.86-5.58-.06-10.69-2.89-16.28-2.9l-.41-.03c.06-.37.17-1.13.23-1.5-5.19-3.25-10.29-6.89-13.78-12.01-3.33-3.98-4.55-9.15-7.5-13.34l-.41-.6c-1.6-6.22-1.72-12.78-.93-19.13 6.43-22.93 11.85-46.4 12.8-70.28l.61-.85c1.92-19.24 4.98-38.73 1.53-58 .22-8.53-3.08-16.55-3.59-25.01-.9-.84-1.78-1.67-2.64-2.52z" fill="#e3a23c"/><path d="m419.4 679.23c1.33-.3 2.66-.61 4-.9.39 4.23.01 8.52.89 12.71.92 4.41 1 8.93 1.43 13.4 1.55-1.8 1.25-4.26 1.26-6.45-.08-5.19-.83-10.57 1.15-15.52 2.46 3.36 2.99 7.6 3.29 11.66.39 6.11 1.62 12.29 4.61 17.7 3.07 6.32 6.07 12.78 7.61 19.69.76 3.19 4.33 4.93 4.62 8.31.62 3.44.4 7.06 1.74 10.36 2.16.1 1.83-2.44 2.46-3.85 2.1 3.7 4.04 7.48 5.93 11.3.94 2.13 3.51 2.53 5.29 3.75 2.5 1.19 3.13 4.16 4.78 6.17 3.04.79 6.36.92 9.41.13 3.11-1.71 5.87-3.98 9.04-5.57.69 1.94 1.34 3.9 1.94 5.87 1.32-.66 2.66-1.28 3.99-1.93.41.37 1.22 1.11 1.62 1.48 3.95 4.5 10.55 1.29 15.54 3.61 1.24-1.84 2.66-3.53 4.28-5.04 2.65-2.38 3.43-5.99 4.67-9.18 2.7-1 5.18-2.49 7.21-4.55.96.45 1.92.91 2.9 1.39 3.38-1.74 6.99-3.49 10.91-3.13 4 .36 8 .14 12-.17 1.55-.31 2.26 1.32 3.16 2.23 1.02-.01 2.05-.01 3.09 0 3.06 3.51 7.93 4.5 11.02 7.98.9-.05 1.81-.1 2.72-.13 1.88 1.95 3.69 4.01 5.88 5.64 2.31 1.79 5.35 1.87 8.11 2.46-1.14 1.18-2.26 2.37-3.39 3.57-5.34-4.07-11.07-7.58-17.18-10.38-.45.2-.88.42-1.31.65-3.6-3.43-8.56-4.78-13.19-6.21-3.23-1.04-6.63-.81-9.92-.26-2.87.5-5.86.31-8.65 1.24-3.38 2.46-6.85 5.72-7.22 10.16-.63 4.82-4.85 8.01-6.14 12.59-.95 3.12-2.11 6.2-3.91 8.95-2.35 3.1-.84 7.17.55 10.35-.56.64-1.68 1.9-2.23 2.54-1.39-.74-3.11-2.91-4.55-1.13-3.21 3.78-6.66 7.47-9.26 11.7-1.38 4.47-5.06 7.58-8.37 10.66-3.06 1.35-6.57 1.92-9.89 1.53-3.49-1.35-4.08-5.46-5.05-8.59-.67.51-1.34 1.03-2 1.56-1.23-5.86-1.64-11.89-.5-17.8-3.79-.12-7.59-.01-11.36.41-3 3.1-6.97 5.12-9.63 8.57-2.22 2.79-4.52 5.54-6.51 8.53-1.67 2.17-.94 5.04-.95 7.58-3.8 1.71-7.55 3.61-10.78 6.28-2.07-1.63-2.41-4.05-2.08-6.51-.99-.56-1.98-1.13-2.97-1.67.6 2.16 1.08 4.36 1.44 6.6-2.87-.05-5.74-.22-8.61-.43.12 2.17.24 4.34.35 6.52-1.77-.3-3.56-.52-5.25-1.11-1.42-1.67-2.39-3.64-3.48-5.5-1.04.91-2.09 1.82-3.13 2.76-.58-.94-1.15-1.86-1.71-2.79l-2.57 1.04c-.41-2.67-.81-5.36-.64-8.07.28-3.48-1.01-6.77-1.55-10.15 1.2-.48 2.4-.95 3.6-1.42-.72-2.76-1.81-5.64-.96-8.51 1.34-5.25 2.69-10.5 3.51-15.86 1-8.37 6.21-15.58 6.79-24.05.25-5.44.99-10.83 1.33-16.26.34-.09 1.02-.28 1.37-.37 1.51-12.41 3.62-24.85 3.26-37.39.18-2.94-2.82-5.14-2.18-8.07.55-4.34 2.1-8.97.17-13.18-1.08-2.37-2.01-4.85-1.8-7.5z" fill="#f5b93f"/><path d="m531.31 716.38c5.85-3.1 12.91-3.7 19.25-1.76 4.79 1.48 9.86 2.66 13.92 5.77 4.77 3.61 9.99 6.61 14.54 10.52 4.5 3.5 7.82 8.37 12.86 11.21 10.19 6.3 16.76 16.55 24.89 25.07.89-1.47 2.15-2.8 2.6-4.48.02-2.42-.66-4.77-1.22-7.09 1.29 1.88 2.68 3.69 4.04 5.53-.62 2.07-.81 4.23-.98 6.38-1.15 2-2.53 3.87-3.51 5.97-1.01 3.47-.85 7.3-2.71 10.52-.98.01-2.96.04-3.95.06 1.46-2.49 3.22-5.08 2.86-8.11.02-2.36-1.64-4.19-2.93-5.98-2.78-3.47-5.31-7.26-9.01-9.83-6.11-4.36-11.18-9.99-17.26-14.38-9.12-6.96-18.16-14.75-29.38-18.03-3.73-1.15-7.19-3-10.89-4.22-3.49-1.15-7.26-1.11-10.69-2.39-1.52-.99-3.15-2.83-2.43-4.76z" fill="#ecb53d"/><path d="m540.96 756.02c3.29-.55 6.69-.78 9.92.26 4.63 1.43 9.59 2.78 13.19 6.21.43-.23.86-.45 1.31-.65 6.11 2.8 11.84 6.31 17.18 10.38 6.46 4.14 13.26 7.69 20.01 11.33 2.59 1.42 5.68.41 8.47.53.99-.02 2.97-.05 3.95-.06-4.09 3.53-9.96 2.98-14.96 2.48-14.03-5.07-25.98-14.29-38.51-22.15-8.16-5.46-20.11-4.85-27.52 1.63-6.1 5.78-6.96 14.57-9.72 22.08-2.52 6.24-4.09 12.81-6.59 19.06-.278-2.699-.987-5.336-2.1-7.81-1.39-3.18-2.9-7.25-.55-10.35 1.8-2.75 2.96-5.83 3.91-8.95 1.29-4.58 5.51-7.77 6.14-12.59.37-4.44 3.84-7.7 7.22-10.16 2.79-.93 5.78-.74 8.65-1.24z" fill="#e6aa3e"/><path d="m622.19 761.15c.48-1.07 1-2.11 1.53-3.14.11 1.36.19 2.73.26 4.11-.7 1.91-1.78 3.65-2.77 5.41.17-2.15.36-4.31.98-6.38z" fill="#d4ae65"/><path d="m462.38 800.19c3.77-.42 7.57-.53 11.36-.41-1.14 5.91-.73 11.94.5 17.8.66-.53 1.33-1.05 2-1.56.97 3.13 1.56 7.24 5.05 8.59 3.32.39 6.83-.18 9.89-1.53 3.31-3.08 6.99-6.19 8.37-10.66 2.6-4.23 6.05-7.92 9.26-11.7 1.44-1.78 3.16.39 4.55 1.13.42 1.51.89 3.01 1.37 4.52-.93.09-1.87.17-2.79.28.27 1.78.55 3.57.82 5.36-.99.34-2.03.48-2.99.88-1.12 3.15-1.28 6.7-3.35 9.46-2.98 4.1-4.73 9.03-8.31 12.71-2.47 2.4-3.6 5.74-5.64 8.46-2.25 1.78-4.95 3.11-6.31 5.8-1.04 2.29-3.76 1.88-5.8 1.63-1.03 2.79-2.77 5.5-5.78 6.41-7.09 2.44-13.79 6.68-21.54 6.56-7.9.73-15.63-1.29-22.85-4.35-3.03-.87-5.44-2.91-7.73-4.97-3.41-2.95-7.67-4.98-10.41-8.66-2.24-2.89-2.01-6.75-2.38-10.18-.84-.09-1.67-.16-2.51-.23-.22-1.83-.39-3.66-.66-5.47l2.57-1.04c.56.93 1.13 1.85 1.71 2.79 1.04-.94 2.09-1.85 3.13-2.76 1.09 1.86 2.06 3.83 3.48 5.5 1.69.59 3.48.81 5.25 1.11-.11-2.18-.23-4.35-.35-6.52 2.87.21 5.74.38 8.61.43-.357-2.225-.837-4.429-1.44-6.6.99.54 1.98 1.11 2.97 1.67-.33 2.46.01 4.88 2.08 6.51 3.23-2.67 6.98-4.57 10.78-6.28.01-2.54-.72-5.41.95-7.58 1.99-2.99 4.29-5.74 6.51-8.53 2.66-3.45 6.63-5.47 9.63-8.57z" fill="#f1ac39"/><path d="m495.57 847.54c3.08-2.69 5.24-6.55 9.11-8.22-2.94 4.71-6.58 9.09-11.22 12.22-9.58 6.94-19.93 14.11-32.05 15.25-1.8-.02-3.59-.07-5.38-.12 2.65-.53 5.3-1.01 7.94-1.57 4.97-.88 9.02-4.17 13.84-5.53 6.61-2.81 12.47-7.23 17.76-12.03z" fill="#bc8f4e"/></g></svg>