<svg shape-rendering="crispEdges" viewBox="0 -.5 194 284" xmlns="http://www.w3.org/2000/svg"><path d="m64 0h12m6 0h26m-44 1h12m6 0h26m-54 1h4m-4 1h4m-10 1h6m-6 1h6m-10 1h4m-4 1h4m-8 1h4m-4 1h4m-6 1h2m-2 1h2m-4 1h2m-2 1h2m-4 1h2m-2 1h2m-4 1h4m-4 1h4m70 1h2m-2 1h2m-78 1h2m76 0h2m12 0h2m-94 1h2m76 0h2m12 0h2m-96 1h2m78 0h6m8 0h2m-96 1h2m78 0h6m8 0h2m-98 1h4m80 0h4m10 0h2m-100 1h4m80 0h4m10 0h2m-100 1h4m80 0h10m2 0h6m-102 1h4m80 0h10m2 0h6m-104 1h12m76 0h16m-104 1h12m76 0h16m-106 1h2m4 0h8m78 0h4m8 0h4m-108 1h2m4 0h8m78 0h4m8 0h4m-110 1h4m6 0h2m82 0h2m10 0h4m-110 1h4m6 0h2m82 0h2m10 0h4m-110 1h2m92 0h2m12 0h2m-110 1h2m92 0h2m12 0h2m-112 1h4m94 0h2m-100 1h4m94 0h2m-100 1h2m-2 1h2m-2 1h2m-2 1h2m-4 1h2m32 0h2m-36 1h2m32 0h2m-36 1h2m32 0h2m4 0h2m14 0h2m-58 1h2m32 0h2m4 0h2m14 0h2m-58 1h2m32 0h4m2 0h16m-56 1h2m32 0h4m2 0h16m-56 1h2m34 0h2m4 0h14m-56 1h2m34 0h2m4 0h14m-20 1h2m-2 1h2" stroke="#abc6fe"/><path d="m76 0h6m-6 1h6m-10 1h44m-44 1h44m-38 1h42m-42 1h42m-72 1h2m32 0h42m-76 1h2m32 0h42m-80 1h4m38 0h34m-76 1h4m38 0h34m-80 1h6m44 0h28m-78 1h6m44 0h28m-80 1h6m48 0h26m-80 1h6m48 0h26m-82 1h4m56 0h22m-82 1h4m56 0h22m-82 1h2m60 0h22m-84 1h2m60 0h22m-88 1h6m62 0h6m2 0h14m-90 1h6m62 0h6m2 0h14m-90 1h4m66 0h6m2 0h12m2 0h2m-94 1h4m66 0h6m2 0h12m2 0h2m-96 1h6m68 0h4m6 0h8m2 0h2m2 0h4m-102 1h6m68 0h4m6 0h8m2 0h2m2 0h4m-102 1h6m70 0h4m4 0h10m2 0h2m2 0h2m-102 1h6m70 0h4m4 0h10m2 0h2m2 0h2m-102 1h6m72 0h2m10 0h2m8 0h4m-104 1h6m72 0h2m10 0h2m8 0h4m-24 1h2m16 0h2m2 0h2m-24 1h2m16 0h2m2 0h2m-110 1h4m84 0h2m4 0h8m-102 1h4m84 0h2m4 0h8m-102 1h6m86 0h10m-102 1h6m86 0h10m-104 1h10m84 0h12m-106 1h10m84 0h12m-106 1h10m86 0h12m-108 1h10m86 0h12m-110 1h12m84 0h14m-110 1h12m84 0h14m-110 1h12m24 0h10m50 0h14m-110 1h12m24 0h10m50 0h14m-112 1h14m20 0h2m2 0h12m48 0h14m-112 1h14m20 0h2m2 0h12m48 0h14m-112 1h14m20 0h2m4 0h14m2 0h2m40 0h14m-112 1h14m20 0h2m4 0h14m2 0h2m40 0h14m-112 1h14m22 0h2m16 0h2m42 0h14m-112 1h14m22 0h2m16 0h2m42 0h14m-112 1h14m18 0h2m2 0h4m58 0h14m-112 1h14m18 0h2m2 0h4m58 0h14m-114 1h16m18 0h2m2 0h16m46 0h14m-114 1h16m18 0h2m2 0h16m46 0h14m-114 1h16m18 0h4m2 0h14m44 0h6m2 0h8m-114 1h16m18 0h4m2 0h14m44 0h6m2 0h8m-116 1h14m2 0h2m18 0h4m2 0h12m44 0h8m2 0h8m-116 1h14m2 0h2m18 0h4m2 0h12m44 0h8m2 0h8m-116 1h14m2 0h2m20 0h4m2 0h10m44 0h8m2 0h6m-114 1h14m2 0h2m20 0h4m2 0h10m44 0h8m2 0h6m-114 1h14m2 0h2m22 0h2m2 0h8m46 0h8m2 0h6m-114 1h14m2 0h2m22 0h2m2 0h8m46 0h8m2 0h6m-114 1h14m2 0h2m22 0h4m2 0h6m46 0h8m2 0h6m-114 1h14m2 0h2m22 0h4m2 0h6m46 0h8m2 0h6m-114 1h14m2 0h2m24 0h4m2 0h2m48 0h8m2 0h4m-112 1h14m2 0h2m24 0h4m2 0h2m48 0h8m2 0h4m-112 1h14m2 0h2m26 0h2m52 0h6m4 0h4m-112 1h14m2 0h2m26 0h2m52 0h6m4 0h4m-112 1h4m2 0h8m2 0h2m28 0h2m50 0h6m4 0h2m-110 1h4m2 0h8m2 0h2m28 0h2m50 0h6m4 0h2m-110 1h4m2 0h6m4 0h2m80 0h6m4 0h2m-110 1h4m2 0h6m4 0h2m80 0h6m4 0h2m-110 1h4m2 0h6m4 0h2m80 0h6m-104 1h4m2 0h6m4 0h2m80 0h6m-104 1h4m2 0h6m4 0h2m80 0h6m-104 1h4m2 0h6m4 0h2m80 0h6m-104 1h4m2 0h6m86 0h6m-104 1h4m2 0h6m86 0h6m-104 1h4m2 0h6m86 0h6m-104 1h4m2 0h6m86 0h6m-104 1h4m2 0h6m86 0h4m-102 1h4m2 0h6m86 0h4m-102 1h4m2 0h6m86 0h4m-102 1h4m2 0h6m86 0h4m-100 1h2m2 0h6m86 0h4m-100 1h2m2 0h6m86 0h4m-100 1h2m2 0h6m86 0h4m-100 1h2m2 0h6m86 0h4m-100 1h2m2 0h6m86 0h4m-100 1h2m2 0h6m86 0h4m-100 1h2m4 0h4m86 0h2m-98 1h2m4 0h4m86 0h2m-98 1h2m4 0h4m86 0h2m-98 1h2m4 0h4m86 0h2m-98 1h4m2 0h4m86 0h2m-98 1h4m2 0h4m86 0h2m-98 1h4m2 0h4m86 0h2m-98 1h4m2 0h4m86 0h2m-98 1h4m4 0h2m-10 1h4m4 0h2m-8 1h2m4 0h2m-8 1h2m4 0h2m-8 1h2m4 0h4m-10 1h2m4 0h4m-10 1h4m4 0h2m-10 1h4m4 0h2m-8 1h2m4 0h2m-8 1h2m4 0h2" stroke="#4e81e1"/><path d="m58 2h6m-6 1h6m-10 1h8m-8 1h8m-12 1h12m-12 1h12m-14 1h12m-12 1h12m-12 1h12m-12 1h12m-14 1h14m-14 1h14m-14 1h14m-14 1h14m-14 1h12m-12 1h12m-38 1h10m16 0h12m-38 1h10m16 0h12m-38 1h10m16 0h12m-38 1h10m16 0h12m-36 1h6m16 0h14m-36 1h6m16 0h14m-34 1h2m18 0h14m-34 1h2m18 0h14m-14 1h14m-14 1h14m-14 1h6m-6 1h6m-6 1h2m-2 1h2m36 35h2m-2 1h2m-40 1h4m8 0h2m22 0h2m12 0h4m-54 1h4m8 0h2m22 0h2m12 0h4m-54 1h2m10 0h2m22 0h2m12 0h2m-52 1h2m10 0h2m22 0h2m12 0h2m-50 1h2m6 0h2m26 0h2m8 0h2m-48 1h2m6 0h2m26 0h2m8 0h2m-52 5h2m-2 1h2m-4 1h2m16 0h4m-22 1h2m16 0h4m-6 1h2m-2 1h2m-4 1h2m-2 1h2" stroke="#fff"/><path d="m64 2h2m-2 1h2m-2 1h8m-8 1h8m-10 1h16m-16 1h16m-16 1h20m-20 1h20m-20 1h24m-24 1h24m-26 1h30m-30 1h30m-30 1h32m-32 1h32m-32 1h36m-36 1h36m-80 1h2m42 0h38m82 0h4m2 0h2m-172 1h2m42 0h38m82 0h4m2 0h2m-174 1h4m40 0h42m72 0h4m-162 1h4m40 0h42m72 0h4m-162 1h6m38 0h44m60 0h4m-152 1h6m38 0h44m60 0h4m-152 1h8m36 0h46m48 0h8m-146 1h8m36 0h46m48 0h8m-146 1h10m34 0h50m36 0h18m12 0h2m-162 1h10m34 0h50m36 0h18m12 0h2m-162 1h10m28 0h54m34 0h18m6 0h4m-154 1h10m28 0h54m34 0h18m6 0h4m-152 1h6m24 0h2m28 0h30m32 0h22m-144 1h6m24 0h2m28 0h30m32 0h22m-144 1h4m12 0h2m50 0h22m30 0h16m-136 1h4m12 0h2m50 0h22m30 0h16m-134 1h2m12 0h2m54 0h16m30 0h10m-126 1h2m12 0h2m54 0h16m30 0h10m-112 1h2m58 0h12m30 0h4m-106 1h2m58 0h12m30 0h4m-106 1h2m62 0h8m-72 1h2m62 0h8m-72 1h2m64 0h4m-70 1h2m64 0h4m-70 1h2m-2 1h2m32 97h2m-2 1h2m-2 1h2m-2 1h2m-6 1h2m2 0h2m40 0h2m-48 1h2m2 0h2m40 0h2m-50 1h2m4 0h2m36 0h4m-48 1h2m4 0h2m36 0h4m-48 1h2m4 0h2m34 0h4m-46 1h2m4 0h2m34 0h4m-46 1h2m62 0h4m-68 1h2m62 0h4m-68 1h4m34 0h2m30 0h4m-74 1h4m34 0h2m30 0h4m-74 1h6m-6 1h6m-24 1h4m14 0h8m22 0h2m-50 1h4m14 0h8m22 0h2m-64 1h14m18 0h12m14 0h8m-66 1h14m18 0h12m14 0h8m-70 1h16m20 0h16m6 0h14m-72 1h16m20 0h16m6 0h14m-74 1h16m24 0h14m4 0h16m-74 1h16m24 0h14m4 0h16m-76 1h18m26 0h12m4 0h16m30 0h2m-108 1h18m26 0h12m4 0h16m30 0h2m-106 1h16m28 0h10m4 0h12m-70 1h16m28 0h10m4 0h12m-58 1h2m30 0h10m4 0h10m-56 1h2m30 0h10m4 0h10m-56 1h2m30 0h12m2 0h8m-54 1h2m30 0h12m2 0h8m-54 1h2m32 0h10m2 0h6m36 0h2m-90 1h2m32 0h10m2 0h6m36 0h2m-108 1h20m32 0h16m2 0h2m-72 1h20m32 0h16m2 0h2m-72 1h20m32 0h14m2 0h2m-70 1h20m32 0h14m2 0h2m-74 1h2m2 0h20m32 0h2m50 0h4m-112 1h2m2 0h20m32 0h2m50 0h4m-114 1h4m2 0h20m30 0h2m52 0h6m-116 1h4m2 0h20m30 0h2m52 0h6m-116 1h4m2 0h18m30 0h2m52 0h10m20 0h2m-140 1h4m2 0h18m30 0h2m52 0h10m20 0h2m-142 1h2m6 0h18m30 0h2m52 0h14m14 0h2m8 0h4m-152 1h2m6 0h18m30 0h2m52 0h14m14 0h2m8 0h4m-144 1h16m30 0h2m54 0h28m14 0h2m-146 1h16m30 0h2m54 0h28m14 0h2m-156 1h2m6 0h16m32 0h12m42 0h2m2 0h26m16 0h2m-158 1h2m6 0h16m32 0h12m42 0h2m2 0h26m16 0h2m-158 1h2m8 0h12m32 0h12m44 0h2m2 0h26m16 0h4m-160 1h2m8 0h12m32 0h12m44 0h2m2 0h26m16 0h4m-160 1h4m2 0h2m2 0h12m30 0h14m44 0h2m2 0h24m18 0h4m-160 1h4m2 0h2m2 0h12m30 0h14m44 0h2m2 0h24m18 0h4m-160 1h8m2 0h10m30 0h14m46 0h2m4 0h22m16 0h8m-162 1h8m2 0h10m30 0h14m46 0h2m4 0h22m16 0h8m-162 1h10m2 0h6m30 0h14m48 0h2m4 0h20m4 0h4m8 0h10m-162 1h10m2 0h6m30 0h14m48 0h2m4 0h20m4 0h4m8 0h10m-162 1h12m34 0h14m54 0h2m2 0h14m8 0h22m-162 1h12m34 0h14m54 0h2m2 0h14m8 0h22m-164 1h16m30 0h14m54 0h2m6 0h10m2 0h2m4 0h24m-164 1h16m30 0h14m54 0h2m6 0h10m2 0h2m4 0h24m-164 1h12m32 0h16m56 0h2m14 0h2m4 0h22m-160 1h12m32 0h16m56 0h2m14 0h2m4 0h22m-160 1h10m34 0h14m78 0h16m-152 1h10m34 0h14m78 0h16m-150 1h6m34 0h16m78 0h8m-142 1h6m34 0h16m78 0h8m-102 1h14m-14 1h14m-16 1h16m-16 1h16m-16 1h14m-14 1h14m-16 1h16m-16 1h16m-16 1h16m66 0h2m-84 1h16m66 0h2m-84 1h14m68 0h4m-86 1h14m68 0h4m-86 1h14m68 0h6m-88 1h14m68 0h6m-88 1h14m68 0h8m-90 1h14m68 0h8m-90 1h14m66 0h12m-92 1h14m66 0h12m-92 1h14m66 0h12m-92 1h14m66 0h12m-92 1h14m66 0h12m-92 1h14m66 0h12m-92 1h14m64 0h14m-92 1h14m64 0h14m-92 1h14m64 0h12m-90 1h14m64 0h12m-90 1h14m62 0h14m-90 1h14m62 0h14m-88 1h12m60 0h16m-88 1h12m60 0h16m-16 1h14m-14 1h14m-16 1h16m-16 1h16m-18 1h18m-18 1h18m-20 1h20m-20 1h20m-20 1h18m-18 1h18m-122 1h2m98 0h22m-122 1h2m98 0h22m-24 1h22m-22 1h22m-82 1h2m56 0h24m-82 1h2m56 0h24m-60 1h2m42 0h14m-58 1h2m42 0h14m-14 1h18m-18 1h18m-80 1h14m50 0h18m-82 1h14m50 0h18m-82 1h14m52 0h16m-82 1h14m52 0h16m-82 1h14m52 0h14m-80 1h14m52 0h14m-80 1h14m52 0h14m-80 1h14m52 0h14m-80 1h14m52 0h14m-80 1h14m52 0h14m-80 1h14m52 0h14m-80 1h14m52 0h14m-80 1h14m52 0h14m-80 1h14m52 0h14m-80 1h14m52 0h14m-80 1h14m52 0h14m-80 1h14m52 0h14m-80 1h14m52 0h14m-80 1h16m50 0h14m-80 1h16m50 0h14m-80 1h16m50 0h12m-78 1h16m50 0h12m-76 1h14m50 0h12m-76 1h14m50 0h12m-76 1h14m50 0h12m-76 1h14m50 0h12" stroke="#9a798b"/><path d="m66 2h6m-6 1h6m-10 1h2m8 0h6m-16 1h2m8 0h6m0 1h4m-4 1h4m-22 1h2m20 0h4m-26 1h2m20 0h4m-40 1h2m12 0h2m24 0h4m-44 1h2m12 0h2m24 0h4m-46 1h2m44 0h2m-48 1h2m44 0h2m-52 1h6m46 0h4m-56 1h6m46 0h4m-76 1h10m8 0h8m12 0h2m36 0h2m-78 1h10m8 0h8m12 0h2m36 0h2m-80 1h2m10 0h2m6 0h8m12 0h2m38 0h2m84 0h2m-168 1h2m10 0h2m6 0h8m12 0h2m38 0h2m84 0h2m-168 1h2m16 0h10m54 0h2m74 0h10m-168 1h2m16 0h10m54 0h2m74 0h10m-166 1h2m14 0h8m58 0h2m62 0h18m-164 1h2m14 0h8m58 0h2m62 0h18m-162 1h2m12 0h8m60 0h2m54 0h24m-162 1h2m12 0h8m60 0h2m54 0h24m-160 1h2m10 0h8m118 0h12m-150 1h2m10 0h8m118 0h12m-138 1h8m6 0h2m106 0h6m-128 1h8m6 0h2m106 0h6m-128 1h8m-8 1h8m-10 1h10m-10 1h10m-10 1h8m-8 1h8m-8 1h6m-6 1h6m-6 1h4m-4 1h4m-4 1h4m-4 1h4m-4 1h2m-2 1h2m-2 1h2m-2 1h2m22 107h2m-2 1h2m-4 1h4m-4 1h4m-32 1h14m12 0h6m-32 1h14m12 0h6m-36 1h4m22 0h8m-34 1h4m22 0h8m-36 1h2m24 0h8m-34 1h2m24 0h8m-36 1h2m22 0h10m-34 1h2m22 0h10m-36 1h2m22 0h10m-34 1h2m22 0h10m-34 1h2m22 0h8m-32 1h2m22 0h8m-34 1h2m22 0h8m-32 1h2m22 0h8m-32 1h2m22 0h8m-32 1h2m22 0h8m-34 1h2m24 0h18m-44 1h2m24 0h18m-44 1h2m22 0h14m-38 1h2m22 0h14m-40 1h4m22 0h8m-34 1h4m22 0h8m-36 1h2m2 0h2m20 0h4m-30 1h2m2 0h2m20 0h4m-32 1h2m26 0h4m-32 1h2m26 0h4m-32 1h2m24 0h4m-30 1h2m24 0h4m-32 1h2m26 0h2m-30 1h2m26 0h2m-30 1h2m2 0h2m20 0h2m-28 1h2m2 0h2m20 0h2m-30 1h2m4 0h2m18 0h2m122 0h4m-154 1h2m4 0h2m18 0h2m122 0h4m-154 1h2m22 0h2m26 0h4m92 0h6m-154 1h2m22 0h2m26 0h4m92 0h6m-154 1h2m48 0h4m16 0h2m2 0h10m64 0h4m-152 1h2m48 0h4m16 0h2m2 0h10m64 0h4m-104 1h4m16 0h12m-32 1h4m16 0h12m-40 1h10m16 0h8m42 0h2m-78 1h10m16 0h8m42 0h2m-76 1h6m16 0h4m50 0h2m-78 1h6m16 0h4m50 0h2m-10 1h2m8 0h2m-12 1h2m8 0h2m-12 1h2m10 0h4m-16 1h2m10 0h4m-16 1h2m-2 1h2m-2 1h2m-2 1h2m-2 1h2m-2 1h2m-2 1h2m-2 1h2m-2 1h4m-4 1h4m-4 1h4m-4 1h4m-4 1h4m-4 1h4m-4 1h4m-4 1h4m-4 1h4m-4 1h4m-4 1h2m-2 1h2m-2 1h2m-2 1h2m-4 1h4m-4 1h4m-4 1h2m-2 1h2m-4 1h4m-4 1h4m-6 1h6m-6 1h6m-10 1h8m-8 1h8m-110 1h2m98 0h10m-110 1h2m98 0h10m-110 1h4m92 0h12m-108 1h4m92 0h12m-108 1h4m52 0h4m34 0h12m-106 1h4m52 0h4m34 0h12m-104 1h4m50 0h6m30 0h12m-102 1h4m50 0h6m30 0h12m-102 1h8m48 0h8m20 0h16m-100 1h8m48 0h8m20 0h16m-98 1h10m22 0h4m18 0h42m-96 1h10m22 0h4m18 0h42m-94 1h36m20 0h34m-90 1h36m20 0h34m-86 1h32m24 0h28m-84 1h32m24 0h28m-82 1h30m28 0h18m-76 1h30m28 0h18m-72 1h26m-26 1h26m-18 1h16m-16 1h16m-10 1h16m-16 1h16m-30 1h2m26 0h2m52 0h4m-86 1h2m26 0h2m52 0h4m-86 1h2m80 0h6m-88 1h2m80 0h6m-88 1h2m80 0h8m-90 1h2m80 0h8m-90 1h2m80 0h8m-90 1h2m80 0h8m-90 1h4m76 0h10m-90 1h4m76 0h10m-90 1h4m74 0h10m-88 1h4m74 0h10m-88 1h6m40 0h2m28 0h12m-88 1h6m40 0h2m28 0h12m-88 1h6m40 0h2m26 0h14m-88 1h6m40 0h2m26 0h14m-86 1h6m64 0h14m-84 1h6m64 0h14m-84 1h8m18 0h2m18 0h2m18 0h16m-82 1h8m18 0h2m18 0h2m18 0h16m-82 1h30m16 0h34m-80 1h30m16 0h34m-80 1h30m16 0h32m-78 1h30m16 0h32" stroke="#d4d4d4"/><path d="m120 8h8m-8 1h8m-10 1h14m-14 1h14m-14 1h16m-16 1h16m-16 1h18m-18 1h18m-16 1h18m-18 1h18m-16 1h18m-18 1h18m-14 1h16m-16 1h16m-16 1h2m4 0h12m-18 1h2m4 0h12m-16 1h2m2 0h12m-16 1h2m2 0h12m-16 1h2m4 0h6m-12 1h2m4 0h6m-10 1h2m2 0h4m-8 1h2m2 0h4m-28 1h2m18 0h6m-26 1h2m18 0h6m-26 1h4m16 0h4m-24 1h4m16 0h4m-24 1h4m16 0h4m-24 1h4m16 0h4m-82 1h20m40 0h4m14 0h4m-82 1h20m40 0h4m14 0h4m-84 1h30m32 0h4m14 0h4m-84 1h30m32 0h4m14 0h4m-86 1h8m10 0h18m28 0h4m14 0h4m-86 1h8m10 0h18m28 0h4m14 0h4m-86 1h2m4 0h2m12 0h14m30 0h4m14 0h4m-86 1h2m4 0h2m12 0h14m30 0h4m14 0h4m-86 1h2m4 0h2m20 0h6m30 0h4m14 0h4m-86 1h2m4 0h2m20 0h6m30 0h4m14 0h4m-102 1h2m14 0h2m24 0h6m32 0h4m14 0h4m-102 1h2m14 0h2m24 0h6m32 0h4m14 0h4m-102 1h2m14 0h2m22 0h6m34 0h4m14 0h4m-102 1h2m14 0h2m22 0h6m34 0h4m14 0h4m-102 1h2m14 0h2m20 0h8m34 0h4m14 0h4m-102 1h2m14 0h2m20 0h8m34 0h4m14 0h4m-102 1h2m14 0h2m4 0h2m14 0h6m36 0h2m6 0h2m8 0h4m-102 1h2m14 0h2m4 0h2m14 0h6m36 0h2m6 0h2m8 0h4m-106 1h2m2 0h2m14 0h2m4 0h2m12 0h6m36 0h2m8 0h2m8 0h4m-106 1h2m2 0h2m14 0h2m4 0h2m12 0h6m36 0h2m8 0h2m8 0h4m-106 1h2m2 0h2m16 0h2m4 0h2m10 0h6m36 0h2m8 0h2m6 0h6m-106 1h2m2 0h2m16 0h2m4 0h2m10 0h6m36 0h2m8 0h2m6 0h6m-106 1h2m2 0h2m18 0h2m2 0h2m8 0h6m38 0h2m8 0h2m6 0h6m-106 1h2m2 0h2m18 0h2m2 0h2m8 0h6m38 0h2m8 0h2m6 0h6m-106 1h2m2 0h2m18 0h2m4 0h2m6 0h4m40 0h2m8 0h2m6 0h6m-106 1h2m2 0h2m18 0h2m4 0h2m6 0h4m40 0h2m8 0h2m6 0h6m-106 1h2m2 0h2m20 0h2m4 0h2m2 0h6m40 0h2m8 0h2m4 0h8m-106 1h2m2 0h2m20 0h2m4 0h2m2 0h6m40 0h2m8 0h2m4 0h8m-106 1h2m2 0h2m20 0h4m2 0h8m42 0h2m6 0h4m4 0h8m-106 1h2m2 0h2m20 0h4m2 0h8m42 0h2m6 0h4m4 0h8m-116 1h2m8 0h2m2 0h2m22 0h4m2 0h6m42 0h2m6 0h4m2 0h10m-116 1h2m8 0h2m2 0h2m22 0h4m2 0h6m42 0h2m6 0h4m2 0h10m-116 1h2m6 0h4m2 0h2m24 0h8m44 0h2m6 0h4m2 0h10m-116 1h2m6 0h4m2 0h2m24 0h8m44 0h2m6 0h4m2 0h10m-116 1h2m6 0h4m2 0h2m26 0h6m44 0h2m6 0h16m-116 1h2m6 0h4m2 0h2m26 0h6m44 0h2m6 0h16m-116 1h2m6 0h4m2 0h2m76 0h2m6 0h16m-116 1h2m6 0h4m2 0h2m76 0h2m6 0h16m-116 1h2m6 0h8m76 0h2m6 0h16m-116 1h2m6 0h8m76 0h2m6 0h16m-116 1h2m6 0h8m76 0h2m6 0h16m-116 1h2m6 0h8m76 0h2m6 0h16m-116 1h2m6 0h8m76 0h2m4 0h18m-116 1h2m6 0h8m76 0h2m4 0h18m-116 1h2m6 0h8m76 0h2m4 0h18m-116 1h2m6 0h8m76 0h2m4 0h18m-120 1h2m2 0h2m6 0h8m76 0h2m4 0h18m-120 1h2m2 0h2m6 0h8m76 0h2m4 0h18m-120 1h2m2 0h2m6 0h8m76 0h2m4 0h18m-120 1h2m2 0h2m6 0h8m76 0h2m4 0h18m-120 1h2m2 0h2m6 0h8m76 0h2m4 0h6m2 0h8m-118 1h2m2 0h2m6 0h8m76 0h2m4 0h6m2 0h8m-118 1h2m2 0h4m4 0h8m76 0h2m2 0h8m2 0h8m-118 1h2m2 0h4m4 0h8m76 0h2m2 0h8m2 0h8m-118 1h2m2 0h4m4 0h8m76 0h2m2 0h8m2 0h8m-118 1h2m2 0h4m4 0h8m76 0h2m2 0h8m2 0h8m-118 1h2m4 0h2m4 0h8m76 0h2m2 0h8m2 0h8m-118 1h2m4 0h2m4 0h8m76 0h2m2 0h8m2 0h8m-118 1h2m4 0h2m4 0h8m76 0h2m2 0h8m2 0h6m-116 1h2m4 0h2m4 0h8m76 0h2m2 0h8m2 0h6m-116 1h2m4 0h4m2 0h8m76 0h12m2 0h6m-116 1h2m4 0h4m2 0h8m76 0h12m2 0h6m-114 1h2m2 0h4m2 0h8m76 0h10m4 0h6m-114 1h2m2 0h4m2 0h8m76 0h10m4 0h6m-114 1h2m2 0h4m4 0h6m76 0h10m4 0h4m-112 1h2m2 0h4m4 0h6m76 0h10m4 0h4m-112 1h2m4 0h4m2 0h6m76 0h10m2 0h6m-112 1h2m4 0h4m2 0h6m76 0h10m2 0h6m-110 1h2m2 0h4m2 0h6m76 0h10m2 0h6m-110 1h2m2 0h4m2 0h6m76 0h10m2 0h6m-110 1h16m76 0h8m4 0h4m-108 1h16m76 0h8m4 0h4m-108 1h16m76 0h8m4 0h4m-108 1h16m76 0h8m4 0h4m-106 1h14m76 0h8m4 0h2m-104 1h14m76 0h8m4 0h2m-104 1h2m2 0h10m76 0h6m6 0h2m-104 1h2m2 0h10m76 0h6m6 0h2m-98 1h8m76 0h6m-90 1h8m76 0h6m-90 1h8m76 0h6m-90 1h8m76 0h6m-88 1h6m76 0h4m-86 1h6m76 0h4m-84 1h4m76 0h4m-84 1h4m76 0h4m-82 1h4m74 0h2m18 0h4m-102 1h4m74 0h2m18 0h4m-102 1h4m74 0h2m14 0h10m-104 1h4m74 0h2m14 0h10m-102 1h4m72 0h2m8 0h2m4 0h12m-104 1h4m72 0h2m8 0h2m4 0h12m-102 1h2m80 0h4m4 0h14m-104 1h2m80 0h4m4 0h14m-22 1h4m6 0h12m-22 1h4m6 0h12m-22 1h6m4 0h14m-24 1h6m4 0h14m-24 1h8m2 0h16m-26 1h8m2 0h16m-24 1h6m4 0h16m-26 1h6m4 0h16m-26 1h8m2 0h16m-26 1h8m2 0h16m-24 1h26m-26 1h26m-26 1h26m-26 1h26m-24 1h24m-24 1h24m-24 1h26m-26 1h26m-26 1h26m-26 1h26m-22 1h22m-22 1h22m-16 1h4m-4 1h4m2 117h2m-2 1h2m-2 1h2m-2 1h2m-4 1h4m-4 1h4m-4 1h4m-4 1h4m-4 1h6m-6 1h6m-8 1h8m-8 1h8m-8 1h8m-8 1h8" stroke="#3c34bd"/><path d="m186 20h4m-4 1h4m-6 1h6m-6 1h6m-178 1h2m170 0h8m-180 1h2m170 0h8m-180 1h2m126 0h4m32 0h16m-180 1h2m126 0h4m32 0h16m-180 1h2m92 0h4m28 0h2m28 0h10m8 0h6m-180 1h2m92 0h4m28 0h2m28 0h10m8 0h6m-180 1h4m56 0h4m30 0h4m26 0h2m22 0h10m16 0h8m-182 1h4m56 0h4m30 0h4m26 0h2m22 0h10m16 0h8m-180 1h2m64 0h4m22 0h4m24 0h2m16 0h10m26 0h6m-180 1h2m64 0h4m22 0h4m24 0h2m16 0h10m26 0h6m-180 1h4m68 0h2m16 0h6m34 0h10m36 0h4m-180 1h4m68 0h2m16 0h6m34 0h10m36 0h4m-178 1h2m86 0h8m26 0h10m42 0h2m-176 1h2m86 0h8m26 0h10m42 0h2m-176 1h2m86 0h8m22 0h6m-124 1h2m86 0h8m22 0h6m-124 1h2m84 0h10m22 0h4m46 0h2m-170 1h2m84 0h10m22 0h4m46 0h2m-84 1h10m24 0h2m42 0h2m-80 1h10m24 0h2m42 0h2m-78 1h8m24 0h2m38 0h2m-74 1h8m24 0h2m38 0h2m-70 1h4m26 0h2m34 0h2m-68 1h4m26 0h2m34 0h2m-66 1h2m26 0h2m30 0h2m-62 1h2m26 0h2m30 0h2m-34 1h4m24 0h4m-32 1h4m24 0h4m-30 1h2m20 0h4m-26 1h2m20 0h4m-26 1h2m16 0h4m-22 1h2m16 0h4m-20 1h2m10 0h6m-18 1h2m10 0h6m-18 1h2m6 0h6m-14 1h2m6 0h6m-14 1h2m2 0h6m-10 1h2m2 0h6m-8 1h6m-6 1h6m-14 3h2m-2 1h2m-2 1h2m-2 1h2m-2 1h2m-2 1h2m-2 1h2m-2 1h2m-2 1h2m-2 1h2m-2 1h2m-2 1h2m-2 1h2m-2 1h2m-2 1h4m12 0h2m-18 1h4m12 0h2m-18 1h6m10 0h2m-18 1h6m10 0h2m-18 1h8m8 0h2m-18 1h8m8 0h2m-16 1h16m-16 1h16m-20 1h2m2 0h16m-20 1h2m2 0h16m-20 1h2m4 0h10m-16 1h2m4 0h10m-16 1h4m4 0h8m-16 1h4m4 0h8m-16 1h6m-6 1h6m-6 1h14m-14 1h14m-12 1h10m-10 1h10m8 71h2m-2 1h2m-4 3h2m4 0h6m-12 1h2m4 0h6m-12 1h2m4 0h8m-14 1h2m4 0h8m-14 1h2m8 0h6m-16 1h2m8 0h6m-18 1h2m12 0h6m-20 1h2m12 0h6m-4 1h6m-6 1h6m-4 1h4m-4 1h4m-2 1h4m-4 1h4m-4 1h4m-4 1h4m-4 1h6m-6 1h6m-4 1h4m-4 1h4m-4 1h4m-4 1h4m-4 1h4m-4 1h4m-4 1h4m-4 1h4" stroke="#5e3476"/><path d="m178 28h8m-8 1h8m-16 1h16m-16 1h16m-24 1h26m-26 1h26m-34 1h36m-36 1h36m-42 1h42m-42 1h42m-50 1h48m-48 1h48m-50 1h46m-46 1h46m-46 1h42m-42 1h42m-42 1h38m-38 1h38m-36 1h34m-34 1h34m-34 1h30m-30 1h30m-28 1h24m-24 1h24m-24 1h20m-20 1h20m-20 1h16m-16 1h16m-14 1h10m-10 1h10m-10 1h6m-6 1h6m-6 1h2m-2 1h2m18 99h4m-4 1h4m-38 1h14m18 0h8m-40 1h14m18 0h8m-40 1h24m6 0h4m4 0h4m-42 1h24m6 0h4m4 0h4m-44 1h28m2 0h4m6 0h4m-44 1h28m2 0h4m6 0h4m-36 1h18m2 0h4m8 0h4m-36 1h18m2 0h4m8 0h4m-26 1h6m4 0h2m2 0h8m-22 1h6m4 0h2m2 0h8m-14 1h2m4 0h12m-18 1h2m4 0h12m-18 1h2m8 0h10m-20 1h2m8 0h10m-8 1h10m-10 1h10m-8 1h10m-10 1h10m-8 1h10m-10 1h10m-8 1h8m-8 1h8m-8 1h10m-10 1h10m-8 1h8m-8 1h8m-8 1h10m-10 1h10m-8 1h8m-8 1h8m-8 1h8m-8 1h8m-8 1h8m-8 1h8m-8 1h8m-8 1h8m-8 1h8m-8 1h8" stroke="#78558e"/><path d="m48 30h24m-24 1h24m-28 1h36m-36 1h36m-38 1h44m-44 1h44m-46 1h12m20 0h20m100 0h2m-154 1h12m20 0h20m100 0h2m-156 1h12m30 0h16m92 0h4m-154 1h12m30 0h16m92 0h4m-154 1h8m42 0h10m88 0h2m-150 1h8m42 0h10m88 0h2m-152 1h8m46 0h12m32 0h2m46 0h4m-150 1h8m46 0h12m32 0h2m46 0h4m-154 1h2m2 0h6m52 0h10m30 0h2m42 0h6m-152 1h2m2 0h6m52 0h10m30 0h2m42 0h6m-150 1h8m56 0h10m26 0h4m38 0h4m-146 1h8m56 0h10m26 0h4m38 0h4m-146 1h8m58 0h10m24 0h4m34 0h4m-142 1h8m58 0h10m24 0h4m34 0h4m-142 1h8m38 0h16m6 0h10m22 0h4m32 0h4m-140 1h8m38 0h16m6 0h10m22 0h4m32 0h4m-140 1h6m2 0h6m28 0h2m28 0h6m22 0h6m26 0h4m-136 1h6m2 0h6m28 0h2m28 0h6m22 0h6m26 0h4m-136 1h4m2 0h2m66 0h2m24 0h6m22 0h6m-134 1h4m2 0h2m66 0h2m24 0h6m22 0h6m-134 1h4m96 0h8m18 0h4m-130 1h4m96 0h8m18 0h4m-130 1h4m70 0h2m24 0h8m14 0h4m-126 1h4m70 0h2m24 0h8m14 0h4m-126 1h4m70 0h2m24 0h8m10 0h6m-124 1h4m70 0h2m24 0h8m10 0h6m-124 1h4m70 0h2m24 0h10m6 0h4m-120 1h4m70 0h2m24 0h10m6 0h4m-120 1h4m96 0h20m-120 1h4m96 0h20m-120 1h4m40 0h2m54 0h2m2 0h16m-120 1h4m40 0h2m54 0h2m2 0h16m-120 1h4m96 0h2m2 0h16m-120 1h4m96 0h2m2 0h16m-120 1h4m96 0h2m2 0h16m-120 1h4m96 0h2m2 0h16m-120 1h4m96 0h2m2 0h18m-122 1h4m96 0h2m2 0h18m-122 1h4m96 0h2m2 0h18m-122 1h4m96 0h2m2 0h18m-122 1h2m98 0h2m2 0h18m-122 1h2m98 0h2m2 0h18m-122 1h2m98 0h2m2 0h18m-122 1h2m98 0h2m2 0h18m-122 1h2m98 0h2m4 0h12m2 0h2m-122 1h2m98 0h2m4 0h12m2 0h2m-122 1h2m98 0h2m6 0h10m2 0h2m-122 1h2m98 0h2m6 0h10m2 0h2m-122 1h2m98 0h2m8 0h8m2 0h2m-122 1h2m98 0h2m8 0h8m2 0h2m-122 1h2m86 0h2m8 0h6m16 0h2m-122 1h2m86 0h2m8 0h6m16 0h2m-122 1h2m86 0h2m8 0h2m2 0h2m16 0h2m-122 1h2m86 0h2m8 0h2m2 0h2m16 0h2m-122 1h2m86 0h2m8 0h2m2 0h4m10 0h6m-122 1h2m86 0h2m8 0h2m2 0h4m10 0h6m-122 1h2m86 0h2m8 0h2m4 0h4m8 0h4m-120 1h2m86 0h2m8 0h2m4 0h4m8 0h4m-120 1h2m86 0h2m6 0h4m6 0h14m-120 1h2m86 0h2m6 0h4m6 0h14m-120 1h4m84 0h2m6 0h4m14 0h4m-118 1h4m84 0h2m6 0h4m14 0h4m-118 1h4m82 0h4m6 0h6m10 0h4m-116 1h4m82 0h4m6 0h6m10 0h4m-116 1h4m82 0h4m4 0h22m-116 1h4m82 0h4m4 0h22m-116 1h4m82 0h2m6 0h4m2 0h6m2 0h6m-114 1h4m82 0h2m6 0h4m2 0h6m2 0h6m-114 1h2m72 0h2m10 0h2m6 0h4m2 0h4m4 0h2m-110 1h2m72 0h2m10 0h2m6 0h4m2 0h4m4 0h2m-110 1h2m72 0h2m8 0h4m4 0h4m4 0h2m4 0h4m-110 1h2m72 0h2m8 0h4m4 0h4m4 0h2m4 0h4m-110 1h2m70 0h4m8 0h4m4 0h2m4 0h4m4 0h2m-108 1h2m70 0h4m8 0h4m4 0h2m4 0h4m4 0h2m-108 1h2m68 0h6m8 0h4m2 0h4m4 0h2m4 0h2m-106 1h2m68 0h6m8 0h4m2 0h4m4 0h2m4 0h2m-106 1h2m66 0h6m8 0h6m2 0h2m4 0h2m4 0h2m-104 1h2m66 0h6m8 0h6m2 0h2m4 0h2m4 0h2m-104 1h2m64 0h4m12 0h8m4 0h2m4 0h2m-102 1h2m64 0h4m12 0h8m4 0h2m4 0h2m-102 1h2m60 0h6m14 0h8m2 0h2m4 0h2m-100 1h2m60 0h6m14 0h8m2 0h2m4 0h2m-100 1h2m58 0h4m16 0h18m-98 1h2m58 0h4m16 0h18m-98 1h2m54 0h4m20 0h20m-100 1h2m54 0h4m20 0h20m-98 1h2m48 0h4m22 0h18m4 0h2m-100 1h2m48 0h4m22 0h18m4 0h2m-100 1h2m74 0h14m10 0h2m-102 1h2m74 0h14m10 0h2m-26 1h8m2 0h4m12 0h2m-28 1h8m2 0h4m12 0h2m-30 1h2m2 0h4m4 0h4m14 0h2m-32 1h2m2 0h4m4 0h4m14 0h2m-28 1h4m4 0h6m12 0h4m-30 1h4m4 0h6m12 0h4m-28 1h2m6 0h4m14 0h4m-30 1h2m6 0h4m14 0h4m-30 1h2m8 0h2m16 0h2m-30 1h2m8 0h2m16 0h2m-32 1h6m6 0h4m16 0h2m-34 1h6m6 0h4m16 0h2m-36 1h4m2 0h2m8 0h2m16 0h2m-36 1h4m2 0h2m8 0h2m16 0h2m-32 1h6m26 0h2m-34 1h6m26 0h2m-36 1h8m26 0h2m-36 1h8m26 0h2m-38 1h12m24 0h2m-38 1h12m24 0h2m-40 1h14m26 0h2m-42 1h14m26 0h2m-44 1h16m26 0h2m-44 1h16m26 0h2m-42 1h12m28 0h2m-42 1h12m28 0h2m-42 1h8m-8 1h8m-8 1h4m-4 1h4m-72 3h8m-8 1h8m-8 1h6m28 0h4m-38 1h6m28 0h4m-40 1h4m34 0h2m-40 1h4m34 0h2m-42 1h4m36 0h2m84 0h4m-130 1h4m36 0h2m84 0h4m-130 1h4m120 0h6m-130 1h4m120 0h6m-130 1h2m120 0h8m-130 1h2m120 0h8m-130 1h2m118 0h2m8 0h4m-134 1h2m118 0h2m8 0h4m-136 1h4m116 0h2m14 0h2m-138 1h4m116 0h2m14 0h2m-138 1h2m118 0h2m16 0h2m-140 1h2m118 0h2m16 0h2m-140 1h2m116 0h2m20 0h2m-142 1h2m116 0h2m20 0h2m-24 1h2m22 0h2m-26 1h2m22 0h2m-28 1h2m26 0h2m-30 1h2m26 0h2m-32 1h4m26 0h2m-32 1h4m26 0h2m-34 1h4m30 0h2m-36 1h4m30 0h2m-36 1h4m30 0h2m-36 1h4m30 0h2m-38 1h4m34 0h2m-40 1h4m34 0h2m-40 1h2m36 0h2m-40 1h2m36 0h2m-42 1h4m36 0h2m-42 1h4m36 0h2m-68 1h2m24 0h2m38 0h2m-68 1h2m24 0h2m38 0h2m-68 1h2m22 0h2m40 0h2m-68 1h2m22 0h2m40 0h2m-68 1h2m20 0h4m40 0h2m-68 1h2m20 0h4m40 0h2m-66 1h2m18 0h2m34 0h10m-66 1h2m18 0h2m34 0h10m-64 1h2m14 0h4m26 0h18m-64 1h2m14 0h4m26 0h18m-64 1h2m2 0h14m20 0h8m8 0h10m-64 1h2m2 0h14m20 0h8m8 0h10m-64 1h2m8 0h6m12 0h12m14 0h4m-58 1h2m8 0h6m12 0h12m14 0h4m-58 1h2m8 0h8m4 0h12m-34 1h2m8 0h8m4 0h12m-34 1h4m8 0h14m-26 1h4m8 0h14m-24 1h2m8 0h2m-12 1h2m8 0h2m-12 1h4m-4 1h4m-2 1h4m-4 1h4m-2 1h4m4 0h2m-10 1h4m4 0h2m-8 1h4m2 0h2m-8 1h4m2 0h2m-6 1h6m-6 1h6m-4 1h4m-4 1h4m-4 1h2m-2 1h2m-2 1h4m-4 1h4m-2 1h2m-2 1h2m-2 1h4m-4 1h4m-4 1h4m-4 1h4m-2 1h2m-2 1h2m-2 1h4m-4 1h4m-4 1h4m-4 1h4m-4 1h4m-4 1h4m-4 1h4m-4 1h4m-4 1h4m-4 1h4m-4 1h4m-4 1h4m-4 1h4m-4 1h4m-4 1h4m-4 1h4m-4 1h4m-4 1h4m-4 1h4m-4 1h4m-4 1h4m-4 1h4m-4 1h4m-4 1h4m-4 1h4m-4 1h4m-6 1h6m-6 1h6m-6 1h4m-4 1h4m-4 1h4m-4 1h4m-4 1h4m-4 1h4m-6 1h6m-6 1h6m-6 1h4m-4 1h4m-4 1h4m-4 1h4m-4 1h4m-4 1h4m-4 1h2m-2 1h2m-2 1h2m-2 1h2" stroke="#291547"/><path d="m46 40h2m36 0h4m-42 1h2m36 0h4m-44 1h4m34 0h8m-46 1h4m34 0h8m-48 1h4m44 0h4m-52 1h4m44 0h4m-52 1h2m36 0h2m14 0h2m-56 1h2m36 0h2m14 0h2m-20 1h2m18 0h2m-22 1h2m18 0h2m-58 1h6m30 0h2m16 0h6m-60 1h6m30 0h2m16 0h6m-62 1h2m36 0h2m24 0h2m-66 1h2m36 0h2m24 0h2m-68 1h2m36 0h2m28 0h2m-70 1h2m36 0h2m28 0h2m-70 1h2m8 0h2m56 0h4m-72 1h2m8 0h2m56 0h4m-72 1h2m10 0h2m28 0h2m-44 1h2m10 0h2m28 0h2m-44 1h2m30 0h2m8 0h2m-44 1h2m30 0h2m8 0h2m-44 1h2m12 0h2m24 0h4m-44 1h2m12 0h2m24 0h4m-44 1h2m12 0h2m54 0h2m-72 1h2m12 0h2m54 0h2m-70 1h4m56 0h4m4 0h2m-70 1h4m56 0h4m4 0h2m-72 1h2m60 0h2m6 0h2m-72 1h2m60 0h2m6 0h2m-72 1h2m58 0h2m8 0h2m-72 1h2m58 0h2m8 0h2m-72 1h2m68 0h2m-72 1h2m68 0h2m-72 1h2m4 0h2m62 0h2m-72 1h2m4 0h2m62 0h2m-74 1h2m70 0h2m-74 1h2m70 0h2m-74 1h2m70 0h2m-74 1h2m70 0h2m-54 1h2m-2 1h2m-4 1h2m-2 1h2m-4 1h2m-2 1h2m-2 1h2m-2 1h2m-2 1h2m-2 1h2m-18 1h2m16 0h2m-20 1h2m16 0h2m-20 1h2m18 0h2m-22 1h2m18 0h2m-22 1h2m-2 1h2m0 1h2m-2 1h2m-2 1h2m-2 1h2m-2 1h2m68 0h2m-72 1h2m68 0h2m-70 1h2m40 0h2m24 0h2m-70 1h2m40 0h2m24 0h2m-68 1h2m14 0h4m8 0h12m-40 1h2m14 0h4m8 0h12m-40 1h2m62 0h2m-66 1h2m62 0h2m-64 1h2m58 0h2m-62 1h2m58 0h2m-60 1h2m54 0h2m-58 1h2m54 0h2m-56 1h2m50 0h2m6 0h2m-62 1h2m50 0h2m6 0h2m-60 1h2m46 0h2m4 0h6m-60 1h2m46 0h2m4 0h6m-58 1h2m48 0h8m-58 1h2m48 0h8m-56 1h2m36 0h2m4 0h12m-56 1h2m36 0h2m4 0h12m-54 1h2m30 0h2m4 0h16m-54 1h2m30 0h2m4 0h16m-52 1h2m22 0h4m4 0h20m-52 1h2m22 0h4m4 0h20m-50 1h4m12 0h34m-50 1h4m12 0h34m-46 1h46m-46 1h46m-44 1h44m2 0h2m-48 1h44m2 0h2m-48 1h48m-48 1h48m-46 1h48m-48 1h48m-44 1h44m-44 1h44m-44 1h42m-42 1h42m-40 1h38m-38 1h38m-36 1h32m-32 1h32m-30 1h24m-24 1h24m-24 1h14m-14 1h14m82 59h2m-2 1h2m-2 1h2m-2 1h2m-2 1h2m-2 1h2m-2 1h2m-2 1h2m-40 1h2m36 0h2m-40 1h2m36 0h2m-40 1h2m36 0h2m-40 1h2m36 0h2m-40 1h2m36 0h2m-40 1h2m36 0h2m-2 1h2m-2 1h2m-2 1h2m-2 1h2m-2 1h2m-2 1h2m-2 1h2m-2 1h2m-38 1h2m-2 1h2m-2 1h2m-2 1h2m-2 1h2m-2 1h2" stroke="#993d73"/><path d="m46 44h2m34 0h8m-44 1h2m34 0h8m-46 1h4m34 0h14m-52 1h4m34 0h14m-54 1h6m32 0h18m-56 1h6m32 0h18m-18 3h24m-24 1h24m-62 1h6m26 0h2m2 0h28m-64 1h6m26 0h2m2 0h28m-66 1h8m26 0h32m-66 1h8m26 0h32m-66 1h10m22 0h8m2 0h26m-68 1h10m22 0h8m2 0h26m-68 1h10m22 0h8m2 0h26m-68 1h10m22 0h8m2 0h26m-68 1h12m18 0h8m4 0h26m-68 1h12m18 0h8m4 0h26m-68 1h12m16 0h10m26 0h4m-68 1h12m16 0h10m26 0h4m-40 1h10m26 0h4m-40 1h10m26 0h4m-60 1h2m16 0h6m2 0h6m22 0h6m-60 1h2m16 0h6m2 0h6m22 0h6m-66 1h2m14 0h2m6 0h6m4 0h4m2 0h2m8 0h2m6 0h8m-66 1h2m14 0h2m6 0h6m4 0h4m2 0h2m8 0h2m6 0h8m-68 1h2m14 0h10m2 0h2m8 0h4m4 0h4m8 0h10m-68 1h2m14 0h10m2 0h2m8 0h4m4 0h4m8 0h10m-68 1h4m8 0h10m6 0h2m10 0h28m-68 1h4m8 0h10m6 0h2m10 0h28m-70 1h14m6 0h8m20 0h22m-70 1h14m6 0h8m20 0h22m-70 1h4m16 0h2m6 0h4m22 0h16m-70 1h4m16 0h2m6 0h4m22 0h16m-72 1h2m32 0h4m22 0h14m-74 1h2m32 0h4m22 0h14m-74 1h2m36 0h4m20 0h12m-74 1h2m36 0h4m20 0h12m-74 1h2m40 0h2m18 0h12m-74 1h2m40 0h2m18 0h12m-74 1h2m16 0h6m40 0h10m-74 1h2m16 0h6m40 0h10m-74 1h2m16 0h10m36 0h10m-74 1h2m16 0h10m36 0h10m-54 1h10m34 0h10m-54 1h10m34 0h10m-52 1h8m34 0h10m-52 1h8m34 0h10m-72 1h2m60 0h10m-72 1h2m60 0h10m-10 1h10m-10 1h10m-10 1h10m-10 1h10m-70 1h2m56 0h10m-68 1h2m56 0h10m-52 1h2m22 0h2m16 0h10m-52 1h2m22 0h2m16 0h10m-52 1h2m4 0h8m28 0h10m-52 1h2m4 0h8m28 0h10m-64 1h2m50 0h10m-62 1h2m50 0h10m-60 1h2m48 0h8m-58 1h2m48 0h8m-56 1h2m12 0h10m22 0h8m-54 1h2m12 0h10m22 0h8m-52 1h2m12 0h6m22 0h8m-50 1h2m12 0h6m22 0h8m-48 1h2m36 0h8m-46 1h2m36 0h8m-44 1h2m32 0h8m-42 1h2m32 0h8m-40 1h2m28 0h6m-36 1h2m28 0h6m-34 1h2m24 0h4m-30 1h2m24 0h4m-28 1h2m16 0h4m-22 1h2m16 0h4m-18 1h12m-12 1h12m-8 9h4m-4 1h4m-4 1h4m-4 1h4m-4 1h2m2 0h2m-6 1h2m2 0h2m-6 1h2m2 0h4m-8 1h2m2 0h4m-8 1h2m2 0h6m-10 1h2m2 0h6m-10 1h2m2 0h6m-10 1h2m2 0h6m90 59h6m-6 1h6m-12 1h12m-12 1h12m-18 1h18m-18 1h18m-26 1h26m-26 1h26m-36 1h36m-36 1h36m-36 1h36m-36 1h36m-36 1h36m-36 1h36m-36 1h36m-36 1h36m-34 1h34m-34 1h34m-32 1h32m-32 1h32m-32 1h32m-32 1h32m-30 1h26m-26 1h26m-24 1h14m-14 1h14m-12 1h4m-4 1h4m-10 1h4m-4 1h4" stroke="#e28f8d"/><path d="m50 60h2m-2 1h2m26 3h26m-26 1h26m-66 1h2m4 0h12m30 0h4m-52 1h2m4 0h12m30 0h4m-50 1h4m6 0h4m28 0h2m2 0h4m-50 1h4m6 0h4m28 0h2m2 0h4m-50 1h2m4 0h2m2 0h4m-14 1h2m4 0h2m2 0h4m-12 1h2m52 0h2m-56 1h2m52 0h2" stroke="#2c1d3a"/><path d="m80 66h2m2 0h2m8 0h6m-20 1h2m2 0h2m8 0h6m-28 1h2m24 0h2m-28 1h2m24 0h2m-28 1h4m20 0h2m-26 1h4m20 0h2m-54 1h2m20 0h2m2 0h8m6 0h2m4 0h2m2 0h2m-52 1h2m20 0h2m2 0h8m6 0h2m4 0h2m2 0h2m-50 1h6m10 0h6m2 0h10m-34 1h6m10 0h6m2 0h10m-28 1h6m8 0h20m-34 1h6m8 0h20m-42 1h14m2 0h6m4 0h22m-48 1h14m2 0h6m4 0h22m-54 1h2m2 0h14m6 0h8m4 0h22m-58 1h2m2 0h14m6 0h8m4 0h22m-58 1h16m4 0h16m4 0h20m-60 1h16m4 0h16m4 0h20m-60 1h14m4 0h22m2 0h18m-60 1h14m4 0h22m2 0h18m-60 1h14m8 0h40m-62 1h14m8 0h40m-62 1h14m12 0h36m-62 1h14m12 0h36m-62 1h16m12 0h34m-62 1h16m12 0h34m-62 1h18m10 0h34m-62 1h18m10 0h34m-60 1h60m-60 1h60m-60 1h60m-60 1h60m-60 1h60m-60 1h60m-58 1h56m-56 1h56m-56 1h14m2 0h22m4 0h14m-56 1h14m2 0h22m4 0h14m-54 1h12m26 0h16m-54 1h12m26 0h16m-52 1h50m-50 1h50m-48 1h48m-48 1h48m-46 1h12m10 0h22m-44 1h12m10 0h22m-42 1h12m6 0h22m-40 1h12m6 0h22m-38 1h36m-36 1h36m-34 1h32m-32 1h32m-30 1h28m-28 1h28m-26 1h24m-24 1h24m-22 1h16m-16 1h16m-8 15h2m-2 1h2m-2 1h2m-2 1h2m-2 1h2m-2 1h2m-2 1h2m-2 1h2m66 75h2m-2 1h2m-2 1h4m-4 1h4m-4 1h4m-4 1h4m-2 1h4m-4 1h4m-4 1h6m-6 1h6m-6 1h8m-8 1h8m-8 1h2m-2 1h2" stroke="#f1cccb"/><path d="m90 66h4m-4 1h4m-40 1h2m28 0h2m6 0h2m-40 1h2m28 0h2m6 0h2m-40 1h2m34 0h2m-38 1h2m34 0h2m-44 1h2m-2 1h2m58 67h4m-4 1h4m-10 1h6m-6 1h6m-16 1h12m-12 1h12m-36 1h2m6 0h24m-32 1h2m6 0h24m-32 1h2m8 0h20m-30 1h2m8 0h20m-30 1h2m4 0h22m-28 1h2m4 0h22m-28 1h4m12 0h6m-22 1h4m12 0h6m-20 1h2m-2 1h2m0 1h2m-2 1h2m0 1h2m-2 1h2" stroke="#761424"/><path d="m90 68h2m-2 1h2m-44 1h2m34 0h6m-42 1h2m34 0h6m-40 1h4m-4 1h4" stroke="#b13147"/><path d="m132 102h2m6 0h2m-10 1h2m6 0h2m-10 1h2m4 0h4m-10 1h2m4 0h4m-12 1h4m2 0h4m-10 1h4m2 0h4m-12 1h4m4 0h4m-12 1h4m4 0h4m-12 1h4m2 0h4m-10 1h4m2 0h4m-12 1h4m2 0h4m-10 1h4m2 0h4m-12 1h4m2 0h4m-10 1h4m2 0h4m-10 1h2m2 0h4m-8 1h2m2 0h4m-16 21h2m-2 1h2m-6 1h4m-4 1h4m-8 1h6m-6 1h6m-10 1h4m2 0h2m-8 1h4m2 0h2m-12 1h4m4 0h2m-10 1h4m4 0h2m-12 1h2m6 0h2m-10 1h2m6 0h2m-6 1h8m-8 1h8m-10 1h10m8 0h2m18 0h22m-60 1h10m8 0h2m18 0h22m-66 1h16m4 0h2m20 0h28m-70 1h16m4 0h2m20 0h28m-118 1h4m42 0h18m24 0h34m-122 1h4m42 0h18m24 0h34m-74 1h12m26 0h38m-76 1h12m26 0h38m-130 1h2m54 0h8m26 0h34m4 0h4m-132 1h2m54 0h8m26 0h34m4 0h4m-134 1h2m36 0h2m18 0h6m26 0h2m14 0h18m8 0h2m-134 1h2m36 0h2m18 0h6m26 0h2m14 0h18m8 0h2m-96 1h2m18 0h4m28 0h2m24 0h6m-84 1h2m18 0h4m28 0h2m24 0h6m-84 1h4m12 0h6m28 0h2m28 0h2m-82 1h4m12 0h6m28 0h2m28 0h2m-122 1h2m38 0h4m10 0h4m30 0h12m18 0h2m-120 1h2m38 0h4m10 0h4m30 0h12m18 0h2m-120 1h2m40 0h2m8 0h4m32 0h22m6 0h2m-118 1h2m40 0h2m8 0h4m32 0h22m6 0h2m-76 1h2m6 0h4m34 0h30m4 0h2m-82 1h2m6 0h4m34 0h30m4 0h2m-76 1h2m36 0h30m-68 1h2m36 0h30m-70 1h2m38 0h30m4 0h2m-76 1h2m38 0h30m4 0h2m-78 1h4m40 0h28m4 0h6m-82 1h4m40 0h28m4 0h6m-82 1h2m44 0h24m4 0h10m-84 1h2m44 0h24m4 0h10m-86 1h2m48 0h20m6 0h12m-88 1h2m48 0h20m6 0h12m-88 1h2m52 0h14m6 0h4m4 0h8m-90 1h2m52 0h14m6 0h4m4 0h8m-92 1h2m68 0h2m4 0h2m8 0h8m-94 1h2m68 0h2m4 0h2m8 0h8m-96 1h2m74 0h2m12 0h6m-96 1h2m74 0h2m12 0h6m-156 1h2m56 0h2m74 0h4m14 0h4m-156 1h2m56 0h2m74 0h4m14 0h4m-156 1h2m56 0h2m74 0h2m16 0h6m-158 1h2m56 0h2m74 0h2m16 0h6m-158 1h2m54 0h2m74 0h2m20 0h4m-158 1h2m54 0h2m74 0h2m20 0h4m-156 1h2m50 0h2m74 0h2m22 0h4m-156 1h2m50 0h2m74 0h2m22 0h4m-154 1h4m44 0h2m76 0h2m22 0h4m-154 1h4m44 0h2m76 0h2m22 0h4m-108 1h2m76 0h2m24 0h8m-112 1h2m76 0h2m24 0h8m-12 1h4m-4 1h4m-106 1h2m60 0h2m30 0h4m-98 1h2m60 0h2m30 0h4m-156 1h2m56 0h2m60 0h8m6 0h2m8 0h2m-146 1h2m56 0h2m60 0h8m6 0h2m8 0h2m-144 1h4m50 0h2m62 0h8m8 0h4m-138 1h4m50 0h2m62 0h8m8 0h4m-84 1h2m64 0h8m-74 1h2m64 0h8m-76 1h2m66 0h8m-76 1h2m66 0h8m-76 1h2m68 0h8m-78 1h2m68 0h8m-78 1h2m70 0h6m-78 1h2m70 0h6m-80 1h2m74 0h4m-80 1h2m74 0h4m-80 1h2m76 0h2m-80 1h2m76 0h2m-80 1h2m-2 1h2m-2 1h2m-2 1h2m-2 1h2m78 0h2m-82 1h2m78 0h2m-82 1h2m-2 1h2m-2 1h2m76 0h2m-80 1h2m76 0h2m-80 1h2m74 0h4m-80 1h2m74 0h4m-80 1h2m74 0h4m-80 1h2m74 0h4m-80 1h2m74 0h6m-82 1h2m74 0h6m-82 1h2m72 0h8m-82 1h2m72 0h8m-96 1h2m12 0h2m72 0h8m-96 1h2m12 0h2m72 0h8m-96 1h16m72 0h8m-96 1h16m72 0h8m-96 1h18m70 0h8m-96 1h18m70 0h8m-96 1h18m68 0h10m-96 1h18m68 0h10m-94 1h18m66 0h10m-94 1h18m66 0h10m-94 1h18m64 0h12m-94 1h18m64 0h12m-92 1h18m62 0h12m-92 1h18m62 0h12m-90 1h18m58 0h14m-90 1h18m58 0h14m-78 1h6m62 0h10m-78 1h6m62 0h10m-76 1h2m66 0h8m-76 1h2m66 0h8m-76 1h2m66 0h8m-76 1h2m66 0h8m-76 1h2m64 0h10m-76 1h2m64 0h10m-76 1h2m64 0h8m-74 1h2m64 0h8m-74 1h2m64 0h8m-74 1h2m64 0h8m-74 1h2m64 0h8m-74 1h2m64 0h8m-74 1h2m64 0h8m-74 1h2m64 0h8m-74 1h2m64 0h6m-72 1h2m64 0h6m-72 1h2m64 0h6m-72 1h2m64 0h6m-70 1h2m62 0h6m-70 1h2m62 0h6m-70 1h2m60 0h8m-70 1h2m60 0h8m-70 1h2m60 0h8m-70 1h2m60 0h8m-70 1h2m60 0h8m-70 1h2m60 0h8" stroke="#503d65"/><path d="m64 142h2m-2 1h2m-2 1h2m-2 1h2m-4 1h4m-4 1h4m-4 1h4m34 0h2m-40 1h4m34 0h2m-40 1h6m28 0h6m20 0h2m-62 1h6m28 0h6m20 0h2m-60 1h4m22 0h8m22 0h10m-66 1h4m22 0h8m22 0h10m-64 1h4m16 0h8m22 0h20m-70 1h4m16 0h8m22 0h20m-68 1h4m10 0h8m20 0h24m-66 1h4m10 0h8m20 0h24m-62 1h2m6 0h6m20 0h26m-60 1h2m6 0h6m20 0h26m-52 1h2m22 0h26m-50 1h2m22 0h26m-28 1h26m-26 1h26m-20 1h18m-18 1h18m-62 1h2m44 0h16m-62 1h2m44 0h16m-24 1h22m-22 1h22m-18 1h18m-18 1h18m-14 1h12m-12 1h12m-6 1h6m-6 1h6m-4 1h4m-4 1h4m-4 1h2m-2 1h2m-2 1h2m-2 1h2m-4 1h2m-2 1h2m-2 1h2m-2 1h2m-2 1h2m-2 1h2m-4 1h2m-2 1h2m-2 1h2m-2 1h2m-2 1h2m-2 1h2m-2 1h2m-2 1h2m-2 1h2m-2 1h2m-2 1h4m-4 1h4m-52 1h2m48 0h2m-52 1h2m48 0h2m-102 1h2m46 0h2m50 0h4m-104 1h2m46 0h2m50 0h4m-4 1h6m-6 1h6m-6 1h6m-6 1h6m-6 1h6m-6 1h6m-6 1h6m-6 1h6m-4 1h6m-6 1h6m-6 1h6m-6 1h6m-6 1h6m-6 1h6m-6 1h6m-6 1h6m-6 1h6m-6 1h6m-8 1h8m-8 1h8m-8 1h6m-6 1h6m-6 1h6m-6 1h6m-8 1h8m-8 1h8m-8 1h6m-6 1h6m-6 1h6m-6 1h6m-8 1h6m-6 1h6m-6 1h4m-4 1h4m-6 1h6m-6 1h6m-8 1h6m-6 1h6m-8 1h6m-6 1h6m-8 1h6m-6 1h6m-8 1h8m-8 1h8m-48 1h2m34 0h8m-44 1h2m34 0h8m-98 1h4m50 0h6m28 0h8m-96 1h4m50 0h6m28 0h8m-94 1h4m50 0h8m18 0h12m-92 1h4m50 0h8m18 0h12m-90 1h6m26 0h4m20 0h42m-98 1h6m26 0h4m20 0h42m-96 1h12m16 0h6m18 0h44m-96 1h12m16 0h6m18 0h44m-92 1h14m36 0h44m-94 1h14m36 0h44m-8 1h10m-10 1h10m-8 1h8m-8 1h8m-6 1h6m-6 1h6m-6 1h6m-6 1h6m-6 1h6m-6 1h6m-8 1h8m-8 1h8m-8 1h8m-8 1h8m-8 1h8m-8 1h8m-96 1h2m84 0h10m-96 1h2m84 0h10m-96 1h2m82 0h12m-96 1h2m82 0h12m-96 1h2m80 0h14m-96 1h2m80 0h14m-96 1h2m78 0h16m-96 1h2m78 0h16" stroke="#bca2b0"/><path d="m70 146h6m-6 1h6m-6 1h8m-8 1h8m-8 1h4m-4 1h4m-2 1h12m-12 1h12m-12 1h14m-14 1h14m-12 1h8m-8 1h8m-6 1h4m-4 1h4m66 73h2m-2 1h2m-8 1h12m-12 1h12m-12 1h14m-14 1h14m-12 1h12m-12 1h12m-12 1h14m-14 1h14m-14 1h16m-16 1h16m-16 1h18m-18 1h18m-18 1h20m-20 1h20m-20 1h20m-20 1h20m-20 1h22m-22 1h22m-22 1h24m-24 1h24m-24 1h24m-24 1h24m-24 1h26m-26 1h26m-164 1h2m136 0h26m-164 1h2m136 0h26m-164 1h4m134 0h26m-164 1h4m134 0h26m-164 1h4m136 0h24m-164 1h4m136 0h24m-164 1h4m136 0h26m-166 1h4m136 0h26m-166 1h4m136 0h26m-166 1h4m136 0h26m-166 1h4m136 0h28m-168 1h4m136 0h28m-170 1h6m136 0h28m-170 1h6m136 0h28m-170 1h8m134 0h28m-170 1h8m134 0h28m-170 1h8m134 0h30m-172 1h8m134 0h30m-172 1h8m136 0h28m-172 1h8m136 0h28m-172 1h10m134 0h28m-172 1h10m134 0h28m-172 1h10m134 0h28m-172 1h10m134 0h28m-172 1h10m134 0h30m-174 1h10m134 0h30" stroke="#c0233b"/><path d="m58 158h2m-2 1h2m-4 1h4m-4 1h4m-6 1h8m-8 1h8m-10 1h12m36 0h8m-56 1h12m36 0h8m-58 1h14m34 0h12m-60 1h14m34 0h12m-62 1h18m28 0h8m-54 1h18m28 0h8m-54 1h18m26 0h14m-58 1h18m26 0h14m-48 1h10m22 0h20m-52 1h10m22 0h20m-58 1h16m20 0h28m-64 1h16m20 0h28m-70 1h22m18 0h32m-72 1h22m18 0h32m-78 1h28m16 0h34m-78 1h28m16 0h34m-78 1h26m16 0h36m-78 1h26m16 0h36m-80 1h26m16 0h36m-78 1h26m16 0h36m-80 1h28m16 0h36m-80 1h28m16 0h36m-82 1h28m16 0h38m-82 1h28m16 0h38m-84 1h30m14 0h38m-82 1h30m14 0h38m-84 1h26m18 0h40m-84 1h26m18 0h40m-86 1h26m22 0h2m10 0h26m-86 1h26m22 0h2m10 0h26m-88 1h26m32 0h30m-88 1h26m32 0h30m-90 1h20m34 0h36m-90 1h20m34 0h36m-92 1h24m26 0h42m-92 1h24m26 0h42m-94 1h30m18 0h46m-94 1h30m18 0h46m-96 1h30m18 0h48m-96 1h30m18 0h48m-100 1h34m16 0h50m-100 1h34m16 0h50m-102 1h34m18 0h50m-102 1h34m18 0h50m-104 1h36m16 0h52m-104 1h36m16 0h52m-106 1h36m18 0h52m-106 1h36m18 0h52m-108 1h38m16 0h54m-108 1h38m16 0h54m-108 1h36m18 0h54m-108 1h36m18 0h54m-110 1h38m18 0h54m-110 1h38m18 0h54m-110 1h38m16 0h56m-110 1h38m16 0h56m-110 1h38m16 0h56m-110 1h38m16 0h56m-112 1h40m16 0h56m-112 1h40m16 0h56m-112 1h40m16 0h56m-112 1h40m16 0h56m-112 1h40m16 0h54m-110 1h40m16 0h54m-110 1h40m16 0h54m-110 1h40m16 0h54m-110 1h40m16 0h52m-108 1h40m16 0h52m-108 1h40m16 0h50m-106 1h40m16 0h50m-106 1h40m16 0h46m-102 1h40m16 0h46m-100 1h38m16 0h44m-98 1h38m16 0h44m-96 1h36m16 0h40m-92 1h36m16 0h40m-92 1h36m20 0h34m-90 1h36m20 0h34m-88 1h34m22 0h30m-86 1h34m22 0h30m-82 1h30m26 0h20m-76 1h30m26 0h20m-72 1h22m-22 1h22m26 11h4m-4 1h4m-48 1h26m18 0h36m-80 1h26m18 0h36m-80 1h28m16 0h36m-80 1h28m16 0h36m-80 1h28m16 0h36m-80 1h28m16 0h36m-80 1h28m16 0h36m-80 1h28m16 0h36m-78 1h26m16 0h34m-76 1h26m16 0h34m-76 1h26m16 0h32m-74 1h26m16 0h32m-72 1h24m18 0h28m-70 1h24m18 0h28m-70 1h24m18 0h26m-68 1h24m18 0h26m-66 1h22m18 0h24m-64 1h22m18 0h24m-62 1h18m22 0h18m-58 1h18m22 0h18" stroke="#e9e9e9"/><path d="m20 166h2m-2 1h2m-4 1h16m-16 1h16m-16 1h16m-16 1h16m-18 1h18m-18 1h18m-20 7h2m-2 1h2m-2 1h2m-2 1h2m-6 1h6m-6 1h6m-8 1h2m2 0h4m138 0h6m-152 1h2m2 0h4m138 0h6m-152 1h2m2 0h2m104 0h2m32 0h2m4 0h4m-154 1h2m2 0h2m104 0h2m32 0h2m4 0h4m-154 1h6m104 0h2m38 0h4m-154 1h6m104 0h2m38 0h4m-152 1h2m106 0h2m30 0h2m4 0h6m-152 1h2m106 0h2m30 0h2m4 0h6m-158 1h2m114 0h2m26 0h12m-156 1h2m114 0h2m26 0h12m-156 1h2m144 0h8m-154 1h2m144 0h8m-154 1h2m132 0h2m-136 1h2m132 0h2m-18 1h2m12 0h2m-16 1h2m12 0h2m-14 1h2m4 0h6m-12 1h2m4 0h6" stroke="#b296a6"/><path d="m70 178h10m-10 1h10m-12 1h12m-12 1h12m-14 1h12m-12 1h12m-12 1h12m-12 1h12m-14 1h12m-12 1h12m-34 49h2m-2 1h2m-2 1h14m-14 1h14m-12 1h12m-12 1h12m-8 15h12m-12 1h12" stroke="#746585"/><path d="m170 226h8m-8 1h8m-18 1h18m-18 1h18m-26 1h26m-26 1h26m-30 1h30m-30 1h30m-26 1h26m-26 1h26m-24 1h24m-24 1h24m-24 1h24m-24 1h24m-22 1h22m-22 1h22m-20 1h20m-20 1h20m-18 1h18m-18 1h18m-174 1h2m156 0h16m-174 1h2m156 0h16m-174 1h2m156 0h16m-174 1h2m156 0h16m-174 1h4m156 0h14m-174 1h4m156 0h14m-174 1h6m156 0h12m-174 1h6m156 0h12m-174 1h8m154 0h12m-174 1h8m154 0h12m-174 1h10m154 0h12m-176 1h10m154 0h12m-178 1h2m2 0h12m150 0h12m-178 1h2m2 0h12m150 0h12m-178 1h2m4 0h10m150 0h12m-178 1h2m4 0h10m150 0h12m-178 1h2m4 0h10m124 0h2m24 0h12m-178 1h2m4 0h10m124 0h2m24 0h12m-178 1h2m4 0h10m124 0h2m26 0h10m-178 1h2m4 0h10m124 0h2m26 0h10m-178 1h2m4 0h10m122 0h4m26 0h10m-178 1h2m4 0h10m122 0h4m26 0h10m-178 1h2m4 0h10m122 0h4m28 0h8m-178 1h2m4 0h10m122 0h4m28 0h8m-180 1h2m6 0h10m124 0h2m28 0h8m-180 1h2m6 0h10m124 0h2m28 0h8m-180 1h2m8 0h8m124 0h2m28 0h8m-180 1h2m8 0h8m124 0h2m28 0h8m-180 1h2m8 0h8m124 0h2m30 0h6m-180 1h2m8 0h8m124 0h2m30 0h6m-180 1h2m8 0h8m124 0h4m28 0h8m-182 1h2m8 0h8m124 0h4m28 0h8m-182 1h2m10 0h6m126 0h2m28 0h8m-182 1h2m10 0h6m126 0h2m28 0h8m-182 1h2m10 0h6m126 0h2m28 0h8m-182 1h2m10 0h6m126 0h2m28 0h8m-182 1h2m10 0h6m126 0h2m30 0h6m-182 1h2m10 0h6m126 0h2m30 0h6" stroke="#6b123f"/></svg>