<svg xmlns="http://www.w3.org/2000/svg" width="128pt" height="128pt" viewBox="0 0 128 128"><path fill="#d3222a" d="M0 0h94.21c7.94.71 15.87 1.6 23.82 2.29-10.2 7.67-20.46 15.26-30.74 22.83-2.96-.32-6.08-.98-8.86.48-9.21 3.81-18.37 7.74-27.6 11.47-.95 2.36-1.9 4.72-2.85 7.09-2.65-.02-5.31-.05-7.96-.07-4 5.96-8.25 11.76-12.21 17.75-2.23 3.09-1.35 7.94-4.96 10.03-6.12 4.39-12.36 8.6-18.42 13.07C12.17 81.32 20 77.89 27.8 74.41c.22-3.54-.45-7.34.9-10.69 4.17-5.83 8.77-11.36 13.14-17.04 1.69.43 3.38.87 5.08 1.3a373.75 373.75 0 0 1-3.5 7.27c.97 1.33 1.93 2.66 2.9 4-1.41 3.85-2.8 7.71-4.21 11.56 2.68.3 5.36.75 8.07.71 2.26-.95 4.29-2.64 5.75-4.61 2.06-4.02 2.14-9.12 5.91-12.15-.53-.35-1.58-1.07-2.1-1.43 1.03-2.41 2.06-4.82 3.11-7.22 8.35 1.24 16.69 2.55 25.03 3.82 3.13 5.41 6.29 10.8 9.46 16.19-.76 2.25-1.53 4.49-2.29 6.74-2.31-4.18-4.72-8.3-7.17-12.4-6.85-2.7-14.17-3.75-21.46-4.42 5.64 2.71 12.04 3.27 17.65 5.99 3.68 3.28 5.98 7.82 9.05 11.64-1.24 1.26-2.47 2.51-3.71 3.76-2.32-3.16-4.61-6.35-6.87-9.56-5.3-.48-10.61-.88-15.93-1.06 5.47.88 10.93 1.85 16.32 3.16 1.74 3.23 3.43 6.5 5.1 9.78L85 84.19c-1.67-2.33-2.9-4.92-3.78-7.64-5.92.03-11.85.1-17.78.25-.18 1.32.06 2.79-.56 4.01-2.71 1.05-5.64 1.34-8.46 1.93-.58 4.78-1.17 9.57-1.77 14.35-6.29 1.32-12.71 1.12-18.81-.94 2.06 1.38 4.14 2.72 6.22 4.07-13.34 9.27-26.54 18.76-40.06 27.76z"/><path fill="#fefefe" d="M94.21 0h30.77c-12.31 10.04-24.46 20.29-36.71 30.41-3.04-1.34-6.09-2.65-9.15-3.94-8.82 4.15-17.66 8.26-26.49 12.4-1.37 5.64-3.01 11.25-6.27 16.12.79 1.12 1.58 2.23 2.38 3.35-.76 2.76-1.56 5.52-2.35 8.28 1.39.68 2.78 1.36 4.17 2.03 3.44-3.8 5.75-8.39 6.62-13.46-.56-1.58-1.13-3.16-1.69-4.74.87.76 1.73 1.53 2.59 2.3 1.38-2.52 2.76-5.03 4.16-7.54 9.58.41 19.15.98 28.73 1.51 2.37 5.61 4.26 11.42 7 16.86 1.8-.75 2.34-2.72 3.12-4.33 2.08-5.11 5.23-10.11 4.39-15.88.99 2.14 1.98 4.28 3 6.41 6.47-4.57 13.13-8.86 19.52-13.53v1.29c-7.51 6.08-15.63 11.42-23.02 17.63-.82 3-.83 6.17-1.25 9.25-1.34.36-2.68.73-4.02 1.1-1.42 3.11-2.79 6.25-4.34 9.3-2.75.37-3.64 3.16-5.13 5.07-1.43 2.18-3.76 4.82-1.96 7.47-1.85 1.34-3.68 2.69-5.52 4.02-.06.99-.11 1.98-.16 2.97-3.09 1.74-6.23 3.4-9.32 5.13-.27-.45-.8-1.36-1.07-1.82-2.76 1.71-5.29 3.94-8.39 5.02-4.66-.05-9.81.15-13.96-2.3-2.32-.05-4.64-.1-6.97-.13-11.23 9.26-22.42 18.6-33.75 27.75H0v-.02c13.52-9 26.72-18.49 40.06-27.76-2.08-1.35-4.16-2.69-6.22-4.07 6.1 2.06 12.52 2.26 18.81.94.6-4.78 1.19-9.57 1.77-14.35 2.82-.59 5.75-.88 8.46-1.93.62-1.22.38-2.69.56-4.01 5.93-.15 11.86-.22 17.78-.25.88 2.72 2.11 5.31 3.78 7.64l3.03-4.44c-1.67-3.28-3.36-6.55-5.1-9.78-5.39-1.31-10.85-2.28-16.32-3.16 5.32.18 10.63.58 15.93 1.06 2.26 3.21 4.55 6.4 6.87 9.56 1.24-1.25 2.47-2.5 3.71-3.76-3.07-3.82-5.37-8.36-9.05-11.64-5.61-2.72-12.01-3.28-17.65-5.99 7.29.67 14.61 1.72 21.46 4.42 2.45 4.1 4.86 8.22 7.17 12.4.76-2.25 1.53-4.49 2.29-6.74-3.17-5.39-6.33-10.78-9.46-16.19-8.34-1.27-16.68-2.58-25.03-3.82-1.05 2.4-2.08 4.81-3.11 7.22.52.36 1.57 1.08 2.1 1.43-3.77 3.03-3.85 8.13-5.91 12.15-1.46 1.97-3.49 3.66-5.75 4.61-2.71.04-5.39-.41-8.07-.71 1.41-3.85 2.8-7.71 4.21-11.56-.97-1.34-1.93-2.67-2.9-4 1.19-2.41 2.36-4.83 3.5-7.27-1.7-.43-3.39-.87-5.08-1.3-4.37 5.68-8.97 11.21-13.14 17.04-1.35 3.35-.68 7.15-.9 10.69-7.8 3.48-15.63 6.91-23.37 10.53 6.06-4.47 12.3-8.68 18.42-13.07 3.61-2.09 2.73-6.94 4.96-10.03 3.96-5.99 8.21-11.79 12.21-17.75 2.65.02 5.31.05 7.96.07.95-2.37 1.9-4.73 2.85-7.09 9.23-3.73 18.39-7.66 27.6-11.47 2.78-1.46 5.9-.8 8.86-.48 10.28-7.57 20.54-15.16 30.74-22.83C110.08 1.6 102.15.71 94.21 0M66.49 80.25c-.98 7.26-1.72 14.56-2.62 21.83 3.05-2.32 5.98-4.79 8.97-7.18.03-5.05-.08-10.09-.34-15.13-2 .17-4 .35-6.01.48m7.36 16.64c2.52-1.14 5.08-2.2 7.64-3.27-.39-4.66-1.17-9.29-1.39-13.96-1.56.02-3.11.04-4.67.07-.61 5.71-.89 11.45-1.58 17.16m7.07-16c.9 2.58 1.86 5.14 2.83 7.7.55-.43 1.64-1.31 2.18-1.74-1.66-2-3.29-4.02-5.01-5.96m-24.85 3.62c-.84 5.27-1.51 10.56-2.38 15.83 3.26.65 6.52 1.31 9.8 1.83-.45-6.44-.14-12.89-.25-19.34-2.39.54-4.79 1.09-7.17 1.68z"/><g fill="#010101"><path d="M124.98 0H128v36.25c-6.39 4.67-13.05 8.96-19.52 13.53-1.02-2.13-2.01-4.27-3-6.41.84 5.77-2.31 10.77-4.39 15.88-.78 1.61-1.32 3.58-3.12 4.33-2.74-5.44-4.63-11.25-7-16.86-9.58-.53-19.15-1.1-28.73-1.51-1.4 2.51-2.78 5.02-4.16 7.54-.86-.77-1.72-1.54-2.59-2.3.56 1.58 1.13 3.16 1.69 4.74-.87 5.07-3.18 9.66-6.62 13.46-1.39-.67-2.78-1.35-4.17-2.03.79-2.76 1.59-5.52 2.35-8.28-.8-1.12-1.59-2.23-2.38-3.35 3.26-4.87 4.9-10.48 6.27-16.12 8.83-4.14 17.67-8.25 26.49-12.4 3.06 1.29 6.11 2.6 9.15 3.94 12.25-10.12 24.4-20.37 36.71-30.41z"/><path d="M104.98 55.17c7.39-6.21 15.51-11.55 23.02-17.63V128H9.14c11.33-9.15 22.52-18.49 33.75-27.75 2.33.03 4.65.08 6.97.13 4.15 2.45 9.3 2.25 13.96 2.3 3.1-1.08 5.63-3.31 8.39-5.02.27.46.8 1.37 1.07 1.82 3.09-1.73 6.23-3.39 9.32-5.13.05-.99.1-1.98.16-2.97 1.84-1.33 3.67-2.68 5.52-4.02-1.8-2.65.53-5.29 1.96-7.47 1.49-1.91 2.38-4.7 5.13-5.07 1.55-3.05 2.92-6.19 4.34-9.3 1.34-.37 2.68-.74 4.02-1.1.42-3.08.43-6.25 1.25-9.25z"/><path d="M66.49 80.25c2.01-.13 4.01-.31 6.01-.48.26 5.04.37 10.08.34 15.13-2.99 2.39-5.92 4.86-8.97 7.18.9-7.27 1.64-14.57 2.62-21.83zm14.43.64c1.72 1.94 3.35 3.96 5.01 5.96-.54.43-1.63 1.31-2.18 1.74-.97-2.56-1.93-5.12-2.83-7.7zm-24.85 3.62c2.38-.59 4.78-1.14 7.17-1.68.11 6.45-.2 12.9.25 19.34-3.28-.52-6.54-1.18-9.8-1.83.87-5.27 1.54-10.56 2.38-15.83z"/></g><path fill="#020202" d="M73.85 96.89c.69-5.71.97-11.45 1.58-17.16 1.56-.03 3.11-.05 4.67-.07.22 4.67 1 9.3 1.39 13.96-2.56 1.07-5.12 2.13-7.64 3.27z"/></svg>