<svg xmlns="http://www.w3.org/2000/svg" width="100pt" height="121pt" viewBox="0 0 100 121"><g fill="#5b4106"><path d="M79.76 0h9.93c4.16 1.64 6.27 5.72 8.77 9.12-.23 2.73.36 6.18-2.42 7.82-.1-2.32-.13-4.63-.11-6.95-2.69-1.69-5.62-3.59-8.96-3.24-7.97.97-15.9 2.29-23.85 3.41-.03.17-.08.52-.11.69-.39.31-1.16.91-1.55 1.22-1.54.34-3.09.6-4.65.77-.35-.48-1.03-1.46-1.37-1.95.14-2.26.48-4.51.78-6.76 3.16-1.01 6.47-1.43 9.79-1.32C70.77 3 75.24 1.18 79.76 0zM0 12.43C4.08 8.87 5.8 2.74 11.03.63c5.7-.84 11.59-.34 17.07 1.46 5.43 1.79 11.27.54 16.75 2.08.56 2.65 1.28 5.42.21 8.06l-.7 1.37c-.87-.4-2.62-1.19-3.5-1.58-4.98-2.38-10.6-2.66-15.97-3.53-3.92-.41-7.78-1.4-11.72-1.56-5.23.71-9.8 3.91-13.17 7.86v-2.36zm95.58 26.85c.57-.83 1.12-1.68 1.67-2.53-.15.44-.47 1.31-.62 1.74 1.47 2.94 2.41 6.08 3.14 9.27l.23-2.07v3.3l-.02 5.13c-1.47-4.94-3.15-9.83-4.4-14.84zM5.7 38.3c.19.28.56.83.75 1.1-.92 3.43-2.34 6.68-3.71 9.94-1.22-4.05 1.01-7.69 2.96-11.04zm45.61 17.84c8.42.88 16.36 4.13 24.74 5.25 2.27.4 4.3 1.54 6.44 2.34 1.19 2.56 1.45 5.64-.3 8.03-2.56-3.7-7.14-4.53-11.23-5.44-6.25-.77-12.58.14-18.85-.44-3.49-2.07-2.41-6.78-.8-9.74zM34.13 59.2c4.23-2.1 9.55-3.08 13.98-1.21.96 3.26-.06 6.67-1.67 9.53-5.45-.28-10.92.14-16.36-.29-3.75 1.47-6.98 4.1-10.3 6.36-.64.06-1.93.19-2.57.25.07-2.1-.31-4.29.32-6.32.75-2.09 3.24-2.06 4.88-3.04 3.65-2.3 7.87-3.39 11.72-5.28z"/><path d="M46.11 69.78c8.69.83 17.35-.81 25.94-1.93 3.69-.22 3.92 4.6 3.1 7.18-3.79 13.92-21.32 20.78-34.13 15.11-8.31-3.19-16.13-11.65-14.13-21.12 6.44-1.39 12.77.59 19.22.76zM32.34 94.2c4.49-.34 8.66 2.18 13.19 1.89.39-.63 1.16-1.89 1.55-2.52 4.26.19 8.58-.14 12.81.55.7.79 1.35 1.63 1.96 2.5 4.01.41 7.8-.88 11.13-3.03 1.21 2.82 2.4 5.81 1.63 8.94-1.49 3.33-3.56 6.51-6.64 8.58-4.23 3.6-9.88 4.56-14.46 7.58-.11.58-.33 1.73-.45 2.31h-.67c-3.09-1.85-6.36-3.35-9.74-4.57-6.18-2.42-11.08-7.29-13.96-13.2.69-3.09 1.01-6.97 3.65-9.03z"/></g><path fill="#ffcc4d" d="M45.84 10.82c3.19-.34 6.43-.5 9.6.07.34.49 1.02 1.47 1.37 1.95 1.56-.17 3.11-.43 4.65-.77-4.95 2.86-8.17 8.21-7.79 14.01.51 9.84 4.96 19.43 11.7 26.57 1.6 1.92 4.33 1.13 6.45.85 9.08-2.17 18.01-6.65 23.76-14.22 1.25 5.01 2.93 9.9 4.4 14.84l.02-5.13v15.08c-1.3 9.95-5 19.67-11.73 27.23-3.8 4.57-8.67 8.07-13.66 11.23.77-3.13-.42-6.12-1.63-8.94-3.33 2.15-7.12 3.44-11.13 3.03-.61-.87-1.26-1.71-1.96-2.5-4.23-.69-8.55-.36-12.81-.55-.39.63-1.16 1.89-1.55 2.52-4.53.29-8.7-2.23-13.19-1.89-2.64 2.06-2.96 5.94-3.65 9.03-9.85-5.36-18.26-13.64-22.66-24.07-4.43-9.24-4.89-19.84-3.29-29.82 1.37-3.26 2.79-6.51 3.71-9.94 5.74 7.55 14.71 11.95 23.76 14.13 2.09.24 4.83 1.05 6.36-.89 7.86-8.4 13.08-20.21 10.95-31.85-.59-3.87-3.88-6.39-6.66-8.77.88.39 2.63 1.18 3.5 1.58l.7-1.37c.19-.36.58-1.06.78-1.41m5.47 45.32c-1.61 2.96-2.69 7.67.8 9.74 6.27.58 12.6-.33 18.85.44 4.09.91 8.67 1.74 11.23 5.44 1.75-2.39 1.49-5.47.3-8.03-2.14-.8-4.17-1.94-6.44-2.34-8.38-1.12-16.32-4.37-24.74-5.25M34.13 59.2c-3.85 1.89-8.07 2.98-11.72 5.28-1.64.98-4.13.95-4.88 3.04-.63 2.03-.25 4.22-.32 6.32.64-.06 1.93-.19 2.57-.25 3.32-2.26 6.55-4.89 10.3-6.36 5.44.43 10.91.01 16.36.29 1.61-2.86 2.63-6.27 1.67-9.53-4.43-1.87-9.75-.89-13.98 1.21m11.98 10.58c-6.45-.17-12.78-2.15-19.22-.76-2 9.47 5.82 17.93 14.13 21.12 12.81 5.67 30.34-1.19 34.13-15.11.82-2.58.59-7.4-3.1-7.18-8.59 1.12-17.25 2.76-25.94 1.93z"/><path fill="#e50000" d="M61.46 12.07c.39-.31 1.16-.91 1.55-1.22 3.35.48 7.09-.01 10.04 2.01 2.8 1.5 4.42 4.33 6.06 6.93 2.57-.87 5.19-2.08 7.98-1.8 4.17.46 8.28 2.79 10.25 6.6 1.95 3.76 1.77 8.39-.09 12.16-.55.85-1.1 1.7-1.67 2.53-5.75 7.57-14.68 12.05-23.76 14.22-2.12.28-4.85 1.07-6.45-.85-6.74-7.14-11.19-16.73-11.7-26.57-.38-5.8 2.84-11.15 7.79-14.01zm-31.99.43c3.48-2.05 7.67-1.38 11.39-.48 2.78 2.38 6.07 4.9 6.66 8.77 2.13 11.64-3.09 23.45-10.95 31.85-1.53 1.94-4.27 1.13-6.36.89-9.05-2.18-18.02-6.58-23.76-14.13-.19-.27-.56-.82-.75-1.1-4.93-5.9-2.59-15.84 4.44-18.93 3.98-2.31 8.62-1.31 12.62.35 1.78-2.76 3.65-5.73 6.71-7.22z"/></svg>