<svg height="769" width="1146" xmlns="http://www.w3.org/2000/svg"><linearGradient id="a" gradientUnits="userSpaceOnUse" x1="421.754" x2="835.812" y1="-250.986" y2="-191.359"><stop offset="0" stop-color="#d80000"/><stop offset=".103" stop-color="red"/><stop offset=".32" stop-color="#ff5858"/><stop offset=".394" stop-color="#d30000"/><stop offset=".458" stop-color="#d30000"/><stop offset=".607" stop-color="red"/><stop offset=".734" stop-color="#ff5858"/><stop offset="1" stop-color="#d30000"/></linearGradient><path d="M632.383 607.541l36.611-239.65c-5.134-30.848 35.192-99.942 104.79-65.971 54.178 26.443 38.019 74.452 28.594 93.802-27.038 55.509-65.938 144.382-54.936 212.536z"/><path d="M598.36 548.932l65.181-92.3c-43.335-32.329-119.659-56.799-146.496-62.817-22.124-1.306-46.208 29.592-45.551 45.17 35.091 55.632 92.959 99.479 126.866 109.947z"/><path d="M679.264 442.641c-74.595.321-72.108 34.352-89.402 52.045-33.487 34.259-80.12 45.448-71.07 126.794l160.496 1.444c16.114-67.18 37.721-180.444-.024-180.283z" fill="#fff"/><path d="M721.998 435.799L640.817 600.02l84.813 3.598 21.633-153.387z"/><path d="M694.626 343.282c16.323-16.161 48.838 1.285 33.837 38.42-16.541 40.944-54.702 28.298-54.336 10.372-10.868 5.055-26.872-4.739-15.735-36.823 11.845-34.122 32.932-25.357 36.234-11.969z" fill="#fff"/><path d="M679.286 352.879c3.01-11.389-6.618-13.735-12.174 3.537-6.684 20.78 4.454 19.636 7.856 8.246-6.808-2.748-2.228-14.531 4.318-11.783z"/><path d="M569.279 401.663c-5.118 28.613 63.515 50.504 99.367 51.434 41.539 1.078 45.012-38.804 18.844-49.879-19.835-8.395-6.004-24.132-21.212-34.95-28.732-20.439-92.355 7.428-96.999 33.395z" fill="#fed600"/><path d="M708.692 360.015c2.224-10.997-8.19-17.663-16.887 5.5-7.672 20.436 5.24 25.527 11.391 10.995-7.985.001-4.191-18.85 5.496-16.495z"/><path d="M.091 574.059l1145.865-.152.026 195.034-1145.865.152z" fill="#fe0000"/><path d="M637.074 8.819L409.998 848" fill="none" stroke="#fed600" stroke-linecap="round" stroke-linejoin="round" stroke-width="17.5"/><g fill="#fed600"><path d="M132.189 730.226c-4.451 6.016-10.173 10.426-17.163 13.229-6.946 2.804-15.628 4.207-26.047 4.208-21.952.003-38.516-6.694-49.694-20.091-11.178-13.465-16.769-33.357-16.772-59.676-.004-26.386 5.582-46.279 16.756-59.68 11.174-13.468 27.737-20.203 49.689-20.206 18.478-.003 33.284 4.815 44.417 14.452 11.132 9.637 17.435 23.035 18.907 40.193l-41.944.005c-2.049-6.152-4.766-10.731-8.15-13.739-3.34-3.007-7.393-4.51-12.157-4.51-7.97.001-14.359 3.933-19.167 11.794-4.808 7.863-7.211 18.424-7.209 31.686.002 13.399 2.363 23.823 7.084 31.273 4.765 7.383 11.4 11.073 19.905 11.072 6.367-.001 11.665-1.779 15.895-5.334 4.229-3.555 6.811-8.409 7.746-14.562l-15.896.002-.005-32.812 55.168-.007.012 86.132-17.232.003zm39.942 13.427l-.02-151.655 45.284-.006 38.148 87.358-.012-87.363 37.069-.005.02 151.655-42.946.006-41.488-88.794.012 88.799zm180.513-151.679l.009 74.135c.002 15.245 1.495 25.84 4.479 31.787 3.029 5.879 8.239 8.817 15.63 8.816 7.392-.001 12.556-2.941 15.494-8.82 2.983-5.879 4.473-16.475 4.471-31.788l-.01-74.136 38.337-.005.011 79.673c.003 26.319-4.669 45.596-14.018 57.834-9.305 12.238-24.064 18.358-44.279 18.36-20.082.003-34.843-6.147-44.284-18.451-9.397-12.303-14.097-31.546-14.1-57.727l-.011-79.673zm147.933 151.805l-.02-151.656 38.27-.005.014 110.025 60.311-.008.006 41.63zm110.603-.015l-.02-151.655 38.27-.005.021 151.655zm59.443-.008l-.02-151.655 45.283-.006 38.148 87.358-.011-87.363 37.068-.005.02 151.655-42.946.006-41.488-88.794.012 88.799zm180.512-151.679l.01 74.136c.002 15.244 1.495 25.839 4.479 31.786 3.028 5.879 8.238 8.817 15.63 8.816 7.391-.001 12.556-2.941 15.494-8.82 2.982-5.879 4.472-16.475 4.47-31.788l-.01-74.136 38.338-.005.01 79.673c.004 26.319-4.669 45.597-14.018 57.834-9.304 12.238-24.064 18.358-44.279 18.36-20.081.003-34.843-6.147-44.284-18.451-9.397-12.303-14.097-31.546-14.1-57.727l-.011-79.673zM993.742 640.6l114.057 127.364c9.596 3.19 17.345-6.524 15.498-16.237l-113.688-129.028 23.248-24.147-40.966-6.655-39.484 41.632 22.516 29.136z"/><path d="M1029.531 563.17c47.613 33.572 76.086 91.5 44.305 134.032-31.413 42.117-73.194 21.101-81.563-2.903l-10.334.002-46.864 45.795c-6.518 15.82 4.677 20.813 14.765 18.731l33.209-45.794c17.472 25.667 65.583 59.755 111.088 3.731 45.842-56.44-3.214-153.603-64.606-153.594z"/><path d="M957.214 708.873c-4.921-4.994 3.443-12.488 7.011-8.326l22.147 25.806c3.2 5.272-3.197 12.211-7.38 7.91z"/></g><path d="M517.151 394.84c8.903 5.759 39.539 45.536 33.283 52.382-16.325 17.863-70.177-1.395-77.509-8.464z"/><path d="M624.625 19.481l-70.069 262.271c4.018-2.373 13.817.185 18.153 4.875 17.748-15.979 114.202-54.532 203.365-31.947 77.804 19.708 49.816 84.921 143.331 106.423 77.74 17.874 88.168-56.897 157.846-40.654 22.344 5.209 46.576 16.861 71.551 31.52C1242.757 407.114 1271.058 42.401 1146 54c-73.447 6.812-144.855 10.682-200 5-68.823-7.091-129.96-45.493-199-50-41.218-2.69-122.375 10.481-122.375 10.481z" fill="url(#a)"/></svg>