<svg height="103pt" viewBox="0 0 103 103" width="103pt" xmlns="http://www.w3.org/2000/svg"><path d="m14.72 11.09c4.5-2.45 9.6-3.48 14.69-3.5.03 4.37.03 8.74.02 13.11-4.91-.01-9.81.01-14.72-.02-.03-3.19-.03-6.39.01-9.59zm14.71 9.61c4.91.01 9.83 0 14.74.03.01 2.17.03 4.34.07 6.51-1.72 2.39-3.14 4.98-4.9 7.34-3.3-.18-6.6-.16-9.9-.17-.02-4.57 0-9.14-.01-13.71zm19.26 18.77c1.28-1.8 2.54-3.61 3.82-5.41l-.46 1.06c-.82 1.65-1.68 3.28-2.52 4.92 2.34 1.04 4.64 2.18 6.86 3.47-.47 1.59-.71 3.23-1.1 4.84-.22.1-.67.3-.9.4.49-1.65.97-3.3 1.42-4.95-2.59-1.64-5.42-2.81-8.18-4.12-1.17.19-2.33.4-3.49.62l3.44-.96-3.46-1.37c1.51.51 3.03 1.03 4.57 1.5zm8.71 8.77c-.32-1.21.21-1.99 1.59-2.33l.22.75c-.24.4-.72 1.19-.96 1.58zm3.78 11.85c3.63-3.56 6.53-7.74 9.65-11.73l1.76-.57c-3.37 4.28-6.93 8.41-10.46 12.56.1.31.29.94.39 1.25l.35 1.08c-1.11-.94-2.27-1.83-3.43-2.7l-1.11-1.18c.71.32 2.14.97 2.85 1.29zm8.7 3c-.15-2.1 2.25-2.89 3.75-3.7h.33c-.83 1.68-2.06 3.46-4.08 3.7zm5.16-1.26c4.41.02 8.83.02 13.24-.02.03 3.39.01 6.79-.04 10.19-.99 1.18-2.01 2.35-3.03 3.51-3.63-.23-7.64.91-11.01-.71-1.14-1.84-.45-4.07-.43-6.09.33-2.31.65-4.63 1.27-6.88z" fill="#fcdd09"/><path d="m29.41 7.59c5.18.31 10.3 1.77 14.71 4.54.02 2.86.04 5.73.05 8.6-4.91-.03-9.83-.02-14.74-.03.01-4.37.01-8.74-.02-13.11zm14.76 13.14c4.89-.01 9.79-.03 14.68 0-.01 3.8-.01 7.6.01 11.4-1.03-.58-2.07-1.15-3.12-1.72a59.213 59.213 0 0 0 -3.69 4.71l.46-1.06c.64-1.34 1.27-2.7 1.89-4.06-2.39-1.99-5-3.7-7.7-5.25-.84.82-1.69 1.62-2.46 2.49-.04-2.17-.06-4.34-.07-6.51zm17.94 13.48c3.82.2 7.64.26 11.46.23-.02 4.01 0 8.03.2 12.03-.3.33-.89.99-1.18 1.32l-1.76.57c.69-1.19 1.37-2.38 2.04-3.58-2.49-2.47-5.23-4.65-8.14-6.6-1.89 2.8-3.79 5.58-5.52 8.48l-.22-.75c2.14-3.13 4.53-6.17 5.62-9.87a541.7 541.7 0 0 0 -2.5-1.83zm13.3 14.03c4.29-.1 8.57-.13 12.86-.1.02 4.55.01 9.11.01 13.67-4.41.04-8.83.04-13.24.02.16-.62.47-1.87.63-2.49-.43.02-1.28.04-1.71.05h-.33c2.03-1.95 4.11-3.94 5.54-6.39-.98-1.78-2.41-3.26-3.76-4.76zm12.87 13.57c2.38.05 4.76.12 7.15.19-2.15 3.5-4.59 6.82-7.19 10 .05-3.4.07-6.8.04-10.19z" fill="#eb7711"/><g fill="#742c64"><path d="m58.83 12.83c4.38-2.99 9.51-4.74 14.79-5.18-.07 4.36-.08 8.71-.04 13.07-4.91-.03-9.82-.01-14.73.01 0-2.63-.01-5.27-.02-7.9zm14.75 7.89c4.89-.01 9.79-.02 14.69.01.02 4.56.01 9.13.01 13.69-4.91.02-9.81.02-14.71.02-.01-4.57-.01-9.15.01-13.72zm14.7 13.7c4.9.04 9.81.02 14.72 0v9.29c-.31 1.49-.7 2.95-1.12 4.41-4.53.05-9.07.06-13.61.02.02-4.57.03-9.14.01-13.72zm-86.15 13.7c4.2.05 8.39.04 12.59.02 0 4.56-.01 9.11-.03 13.67-2.04.04-4.09.1-6.13.16-2.65-4.36-4.92-8.97-6.43-13.85zm12.56 13.69c4.91.08 9.81.02 14.72-.01.06 4.58 0 9.15.03 13.73-3.45-.03-6.89.07-10.33.31-1.47-1.63-2.9-3.29-4.29-4.97-.07-3.02-.12-6.04-.13-9.06z"/><path d="m29.44 75.53c3.16.04 6.33.05 9.49.11.87 1.36 1.7 2.74 2.54 4.13-.65 3.15-1.14 6.34-1.56 9.53-1.98-.03-3.96-.05-5.93-.08-1.57-1.21-3.12-2.44-4.65-3.69.09-3.33.13-6.66.11-10zm28.1 15.08.51-.59.51.67c-.11.93-.32 2.79-.42 3.72z"/></g><g fill="#0f47af"><path d="m73.62 7.65c5.03-.17 10.13.69 14.67 2.92 0 3.39-.01 6.77-.02 10.16-4.9-.03-9.8-.02-14.69-.01-.04-4.36-.03-8.71.04-13.07z"/><path d="m88.27 20.73c3.79-.04 7.59-.03 11.38.06 1.35 2.21 2.46 4.55 3.35 6.98v6.65c-4.91.02-9.82.04-14.72 0 0-4.56.01-9.13-.01-13.69zm-88.27 13.8c4.9-.12 9.8-.11 14.7-.1.01 4.57 0 9.14.02 13.71-4.2.02-8.39.03-12.59-.02-.83-2.91-1.49-5.87-2.13-8.82zm14.72 13.61c4.34.02 8.67.01 13.01.05-1.29 2.22-2.52 4.47-3.81 6.68 1.74 2.38 3.67 4.61 5.49 6.93-4.91.03-9.81.09-14.72.01.02-4.56.03-9.11.03-13.67z"/><path d="m29.41 61.8c1.65 2.58 3.15 5.3 5.41 7.42 1.31 2.17 2.72 4.29 4.11 6.42-3.16-.06-6.33-.07-9.49-.11-.03-4.58.03-9.15-.03-13.73zm22.91 16.87c1.96-1.24 3.92-2.46 5.86-3.73.39 1.67.52 3.39.42 5.1-.2 3.55-.34 7.11-.04 10.65l-.51-.67-.51.59c.25-4.03-.47-8.02-1.11-11.98zm14.4 10.4 3.33.08c-.99 1.02-2.04 2.07-3.44 2.49.03-.64.08-1.93.11-2.57z"/></g><path d="m4.41 20.69c2.73-3.85 6.18-7.27 10.31-9.6-.04 3.2-.04 6.4-.01 9.59-3.43 0-6.87 0-10.3.01zm10.3-.01c4.91.03 9.81.01 14.72.02.01 4.57-.01 9.14.01 13.71-4.91.02-9.83.01-14.74.02 0-4.58.01-9.16.01-13.75zm14.73 13.73c3.3.01 6.6-.01 9.9.17-.11 2.5 3.11 2.43 4.78 3.39l3.46 1.37c-3.75-.92-7.31-2.39-10.86-3.86-2.99 3.09-5.06 6.87-7.5 10.36.37-3.79.23-7.62.22-11.43zm12.16 14.26c-3.13-.6-.17-3.95.52-.6zm12.79.08c.23-.1.68-.3.9-.4l2.11-.11h.85c-1.7 2.64-3.48 5.22-5.22 7.83 1.76.92 3.54 1.82 5.3 2.73l1.11 1.18c-3.77-.88-7.48-2.04-11.36-2.37 1.04 1.54 2.1 3.08 3.21 4.57l-1.9-.58c-1.79-2.34-3.12-5.24-6.06-6.36l.31-.34c.56-1.47.46-3.1.6-4.65 3.13 1.96 6.99-.58 10.15-1.5m-9.7 4.49c1.61 1.3 3.43 2.3 5.26 3.25 1.53-1.95 3.21-3.77 4.68-5.77-3.4.48-6.76 1.25-9.94 2.52zm17.83 8.36c1.15 1.09 2.27 2.21 3.49 3.22 1.31-.53 2.53-1.27 3.87-1.73-.97 1.07-2.03 2.07-3.05 3.1-1.33-1.16-2.66-2.32-3.96-3.51zm9.67 14.09c.47-2.34 1.14-4.63 1.58-6.98-.02 2.02-.71 4.25.43 6.09 3.37 1.62 7.38.48 11.01.71-3.56 4.03-7.5 7.73-11.77 11-.08-3.45.97-7.29-.79-10.45z" fill="#fff"/><path d="m88.29 10.57c4.6 2.35 8.42 6.01 11.36 10.22-3.79-.09-7.59-.1-11.38-.06.01-3.39.02-6.77.02-10.16zm-83.88 10.12c3.43-.01 6.87-.01 10.3-.01 0 4.59-.01 9.17-.01 13.75-4.9-.01-9.8-.02-14.7.1v-2.45c.83-4.01 2.18-7.93 4.41-11.39z" fill="#078930"/><path d="m14.7 34.43c4.91-.01 9.83 0 14.74-.02.01 3.81.15 7.64-.22 11.43-.37.59-1.12 1.76-1.49 2.35-4.34-.04-8.67-.03-13.01-.05-.02-4.57-.01-9.14-.02-13.71zm26.9 14.24.52-.6c.68.75 1.39 1.48 2.12 2.18-.14 1.55-.04 3.18-.6 4.65l-.31.34c-1.84-.61-3.68-1.23-5.53-1.83 1.28-1.57 2.51-3.18 3.8-4.74zm7.79 12.93 1.9.58c5.49 4.25 5.76 11.66 9.8 16.86l-2.49 1c.1-1.71-.03-3.43-.42-5.1-2.32-4.81-5.78-8.95-8.79-13.34zm17.55 20.43c1.57-2.25 3.15-4.54 5.25-6.34l.46.37c1.76 3.16.71 7 .79 10.45-1.13.88-2.28 1.73-3.39 2.64l-3.33-.08c.14-2.35.17-4.69.22-7.04z" fill="#078930"/><g fill="#da121a"><path d="m44.12 12.13c2.98 1.96 5.25 4.75 7.87 7.13 2.34-2.08 4.35-4.52 6.84-6.43.01 2.63.02 5.27.02 7.9-4.89-.03-9.79-.01-14.68 0-.01-2.87-.03-5.74-.05-8.6z"/><path d="m58.85 20.73c4.91-.02 9.82-.04 14.73-.01-.02 4.57-.02 9.15-.01 13.72-3.82.03-7.64-.03-11.46-.23a45.91 45.91 0 0 0 -3.25-2.08c-.02-3.8-.02-7.6-.01-11.4z"/><path d="m73.57 34.44c4.9 0 9.8 0 14.71-.02.02 4.58.01 9.15-.01 13.72-4.29-.03-8.57 0-12.86.1-.41-.44-1.23-1.33-1.64-1.77-.2-4-.22-8.02-.2-12.03zm14.7 13.7c4.54.04 9.08.03 13.61-.02-1.53 4.88-3.81 9.51-6.45 13.88-2.39-.07-4.77-.14-7.15-.19 0-4.56.01-9.12-.01-13.67zm-79.71 13.83c2.04-.06 4.09-.12 6.13-.16.01 3.02.06 6.04.13 9.06-2.24-2.86-4.37-5.8-6.26-8.9zm10.55 13.87c3.44-.24 6.88-.34 10.33-.31.02 3.34-.02 6.67-.11 10a79.386 79.386 0 0 1 -10.22-9.69zm14.87 13.38c1.97.03 3.95.05 5.93.08-.18 1.24-.35 2.49-.53 3.73-1.82-1.24-3.65-2.48-5.4-3.81z"/></g></svg>