<svg height="2031" viewBox="0 0 1971 2031" width="1971" xmlns="http://www.w3.org/2000/svg" xmlns:xlink="http://www.w3.org/1999/xlink"><linearGradient id="a"><stop offset="0" stop-color="#0f1558"/><stop offset="1" stop-color="#c66094"/></linearGradient><linearGradient id="b" gradientUnits="userSpaceOnUse" x1="1689.607" x2="1092.508" xlink:href="#a" y1="43.225" y2="462.127"/><linearGradient id="c" gradientUnits="userSpaceOnUse" x1="1926.839" x2="1410.735" xlink:href="#a" y1="190.029" y2="610.791"/><linearGradient id="d" gradientUnits="userSpaceOnUse" x1="1298.082" x2="40.82" xlink:href="#a" y1="584.957" y2="2001.37"/><g stroke="#000" stroke-linecap="round" stroke-linejoin="round"><path d="m1410.974854 40.434326c-7.983033 6.372559-15.955811 12.754883-23.71875 19.397461-14.22522 12.01416-28.19043 24.328858-41.925416 36.893555-9.273559 8.633056-18.536743 17.276367-27.710205 26.009277-11.25415 10.914063-22.338134 22.008301-33.392334 33.132569-11.554321 11.774169-22.978393 23.668457-34.142578 35.812988-8.57312 9.293457-17.116333 18.606933-25.419311 28.140381-14.375366 16.335937-28.44043 32.942138-42.045532 49.928466-12.004517 15.065674-23.778687 30.311036-35.052979 45.927002-11.304077 15.785645-22.348145 31.761597-32.631958 48.227539-9.933716 15.865845-19.457275 32.011841-27.960327 48.688111 42.745849 12.754638 85.551514 25.369263 128.697388 36.693359 17.80664 4.79187 35.703247 9.333618 53.779907 13.024903 7.482666-8.27295 15.215576-16.33606 23.068481-24.259034 13.375-14.035156 26.959839-27.880249 40.714966-41.535278 15.555786-15.605713 31.191528-31.13147 46.977295-46.49707 9.263428-8.773316 18.296753-17.796631 27.5802-26.549805 11.984375-11.374268 23.898804-22.80835 35.993286-34.0625 11.254151-10.483887 22.478272-20.997803 33.842408-31.361572 9.713623-8.863282 19.397216-17.776612 29.200805-26.539795 13.655152-12.19458 27.300049-24.398926 41.095215-36.433594 7.852783-6.692383 15.565674-13.544922 23.458618-20.197266 13.304932-11.294189 26.659668-22.52832 40.184815-33.5625 10.943969-8.743164 21.838012-17.556396 32.952026-26.099609 10.333984-7.842773 20.717651-15.635742 31.301636-23.168457 7.752685-5.37207 15.535644-10.703857 23.47876-15.805908-19.097168-5.091797-38.254273-10.08374-57.621338-13.975098-3.111206-1.070312-6.392456-1.460449-9.563477-2.230713-22.678467-4.771972-45.406738-9.413574-68.305176-12.944824-25.22937-4.501709-50.628662-8.203125-76.078125-11.224121-20.867798-2.611084-41.79541-4.761719-62.773193-6.29248-4.71167 3.551513-9.40332 7.142822-13.985107 10.864013z" fill="url(#b)" stroke-width=".094"/><path d="m1776.089355 194.101074c-6.362304 4.301758-12.724609 8.593262-18.97705 13.034912-11.243897 7.892823-22.498047 15.785645-33.562256 23.938721-10.523926 7.622803-20.987793 15.325684-31.401611 23.098633-12.114258 9.133301-24.278809 18.196533-36.253174 27.5-16.326294 12.594726-32.66211 25.189209-48.768067 38.053955-12.964966 10.34375-25.899536 20.707764-38.744384 31.191528-10.863892 8.993408-21.797852 17.906616-32.56189 27.02002-11.374268 9.623535-22.808472 19.197021-33.972534 29.070678-17.52649 15.285523-34.912842 30.741333-51.729126 46.79712-15.305542 14.645507-30.461182 29.520996-44.16626 45.687011 8.90332 10.37378 18.606934 20.007325 28.480469 29.440796 25.409424 23.858765 51.929077 46.717285 80.819702 66.294556 9.49353 6.152222 19.147095 12.554565 30.121338 15.745727 18.776733-9.313476 36.823486-20.017334 54.510132-31.251586 20.09729-12.894654 39.624511-26.659791 58.741455-40.965088 12.144653-8.993286 24.02893-18.336792 35.82312-27.790284 11.164306-8.933227 22.148193-18.06665 32.992187-27.390014 12.584717-10.593994 24.819336-21.60791 36.993653-32.671997 14.965576-13.535034 29.470947-27.570313 43.826171-41.745484 10.444092-10.273803 20.557618-20.887695 30.611329-31.561645 8.753173-9.223267 17.176269-18.766724 25.579345-28.330445 8.753418-9.993652 17.126221-20.307495 25.399414-30.711303 4.531739-5.66211 8.813233-11.52417 13.154786-17.336426 7.983154-10.933838 15.555908-22.187988 22.448242-33.842529 3.581543-5.852051 6.78247-11.934082 9.763672-18.10669-20.947754-16.135742-42.905762-30.971435-65.814209-44.16626-13.715088-7.782714-27.700196-15.27539-42.445557-20.907714-7.592773-3.351075-15.565918-5.931885-23.628662-7.882813-9.223633 5.702149-18.266846 11.694336-27.240235 17.786621z" fill="url(#c)" stroke-width="2"/><path d="m620.443542 593.028198c-16.926269 18.846802-33.752441 37.793823-50.488586 56.800781-16.516113 18.786988-33.042175 37.563843-49.388184 56.490967-21.417968 24.769043-42.815765 49.548218-63.893554 74.597412-21.117798 24.9292-42.08551 49.998413-62.783142 75.28772-14.195221 17.306397-28.300446 34.692871-42.295594 52.169312-12.634674 15.855835-25.149261 31.811645-37.683899 47.757568l.120087.080078c-18.576843 23.708618-36.713531 47.767578-54.480102 72.096436-13.50499 18.41687-26.769837 37.023681-39.634613 55.900512-11.424195 16.706299-22.598313 33.58252-33.272248 50.778809-17.456421 28.17041-34.152588 56.971191-47.11737 87.522217-5.812134 14.215332-11.084076 28.850708-12.98478 44.15625-.700256 7.342773-.970359 15.445801 3.101143 21.938232 2.96109 5.061768 9.79361 4.301514 14.835449 4.341553 20.637604-1.660645 40.334885-8.773316 59.641999-15.815918 34.07254-12.944702 67.104736-28.450439 99.816772-44.466309 19.56723-9.523559 39.014374-19.287109 58.331513-29.300781 21.828033-11.034058 43.446014-22.508301 65.123962-33.8125 28.970703-15.215576 57.901367-30.51123 86.862061-45.746826 19.287048-10.063721 38.534179-20.20752 57.901367-30.131104 21.847961-11.274169 43.796081-22.368164 65.834228-33.292236 32.401978-15.74585 64.933899-31.261475 98.216126-45.09668 17.546509-7.202636 35.223083-14.105102 53.269653-19.977295 19.2771-6.162231 39.004395-11.57434 59.281921-12.964843 10.183655-.510132 20.387513.550171 30.301087 2.881103 17.316345 3.771485 34.592773 11.154175 46.577148 24.639038 12.694702 13.885132 17.426453 33.092163 18.066712 51.468872 1.130371 18.316895-2.651001 36.373536-5.201905 54.410157-3.511291 23.278564-7.152648 46.537109-10.713989 69.805664-5.401977 34.98291-10.97406 69.935791-16.426025 104.898681-4.111511 25.939576-8.233093 51.869141-12.344605 77.808716-3.691284 23.088501-7.402771 46.18689-11.104004 69.275513-5.622131 34.582641-11.134094 69.185547-17.136291 103.698242-.710388 3.921387-1.450562 7.852905-2.10083 11.79419-13.705078.150146-27.410095.510253-41.105103.790405-49.728332.790283-99.436767 1.77063-149.155029 2.430786-49.928406 1.060547-99.87677 1.380615-149.795227 2.581055-30.49118.240112-60.982452.850341-91.463654 1.48059-34.332672.490113-68.685333 1.090332-103.007995 1.960572-51.408905.960449-102.837876 2.100952-154.226822 4.281616-1.850693 3.321289-3.641342 6.692627-5.442001 10.053833-17.086304 31.841675-34.282639 63.613403-50.748703 95.765259-13.935135 27.700073-27.710198 55.510376-40.214821 83.890869-15.155579 34.172607-28.970669 69.015503-39.484547 104.918701-9.593533 33.632324-17.366396 68.665283-14.105196 103.848145 1.490553 12.554687 4.231558 25.469482 10.894011 36.333496 13.044807 1.7406 26.219665-.490113 39.164436-2.130738 34.90287-5.231933 69.325539-13.154907 103.728233-20.977783 42.54567-9.883545 84.941269-20.367431 127.356919-30.821411 36.273376-8.893311 72.526702-17.896606 108.840118-26.64978 42.69574-10.283692 85.431457-20.417481 128.277283-30.031128 45.836853-10.173706 91.513672-21.007691 137.160461-31.98169 27.61023-6.602417 55.180359-13.375 82.77063-20.037475 24.058838-5.822022 48.107605-11.664185 72.186523-17.40625 40.124756-9.49353 80.269593-18.927002 120.634522-27.400147 31.751587-6.592529 63.603393-12.864746 95.735229-17.376465 8.093018-1.590576 15.235596-6.132202 21.858033-10.853881 10.233764-7.76294 19.157104-17.086426 27.310058-26.980103 19.507202-23.988769 34.872925-51.348877 45.326782-80.439453 4.271607-12.124512 7.672852-24.609253 9.413453-37.364014 1.520629-10.813842 1.250488-21.767944 1.840698-32.651977.620239-28.970581 1.220337-57.941284 2.030762-86.911988 1.080322-37.833984 2.500854-75.657836 4.461547-113.451782 2.44104-43.536011 5.221924-87.052124 9.303467-130.45813l-.130005-.099975c2.97107-30.071045 5.91211-60.162232 9.643555-90.163208 5.702026-46.477051 12.624634-92.79419 20.967651-138.871338l.110108.120239c3.54126-19.397156 7.302734-38.764282 11.624267-57.991333 5.872071-27.57019 12.574707-54.970337 20.017334-82.1604 5.141846-18.896851 10.764038-37.653809 16.726075-56.310669 11.444336-34.822876 24.01892-69.325562 39.18457-102.707886 3.071045-6.972534 6.20227-13.915039 9.663574-20.697632 4.441528-7.652832 7.212647-16.145996 9.203369-24.729004 5.211914-24.539062 4.191407-50.458618-3.111084-74.467407-2.861084-8.633301-6.55249-17.456543-13.255005-23.848877-13.575073-11.914429-30.301147-20.19751-48.02771-23.70874-25.799438-5.261963-52.489257-2.450928-77.96875 3.211182-17.446411 3.961547-34.772705 8.803222-51.108764 16.185913-35.943238 15.345703-71.256226 32.121826-106.649292 48.667968-17.256348 8.233033-34.632813 16.235962-51.849121 24.549073-25.149292 11.814331-50.268494 23.69873-75.407715 35.533081-17.956665 8.443115-35.93335 16.836181-53.939942 25.159179-40.104736 18.646973-80.389587 36.943604-121.21466 53.969971-12.234497 5.05188-24.559021 9.903687-37.083679 14.19519-9.053345 2.831055-18.246704 6.292359-27.88031 6.012208-5.62201-.01001-11.294129-2.890992-14.205201-7.762818-3.421264-5.712158-3.481262-12.614624-3.391296-19.067016.740356-19.167115 4.011475-38.114014 7.022644-57.020997 4.841797-28.620605 10.323792-57.131103 15.965881-85.601562 5.382019-27.02002 10.944031-53.999878 16.185974-81.039917-16.436035 17.946655-32.692077 36.063232-48.868042 54.240112z" fill="url(#d)"/><path d="m48.639214 2030c-6.817561-.02646-13.598818-.740698-20.013672-3.164062-5.742113-2.100748-10.092926-6.822847-12.753906-12.214844-12.814705-23.238522-15.677477-50.478321-14.457031-76.587891 2.250827-41.185055 13.535103-81.249917 27.080078-119.99414 34.832801-97.365733 85.471553-187.88858 134.189453-278.751954 51.298868-2.430844 102.659445-3.551789 153.988281-4.742187 175.994697-3.681393 352.009453-5.772617 527.994141-9.09375.990355-.820403.620728-2.489625 1.050781-3.580078 15.695846-94.634763 30.631179-189.401218 45.556641-284.166016 7.042534-45.066666 14.104621-90.13359 20.867187-135.240234 1.510497-10.894032 3.681641-21.727672 3.681641-32.761719-.009949-11.014088-.681279-22.456919-5.453125-32.560547-3.971371-8.63317-11.654123-15.066044-20.197266-18.9375-9.593496-4.331539-20.007823-6.622804-30.431641-7.783203-11.2141-.820312-22.377269 1.269717-33.28125 3.640625-21.217752 4.891719-41.785237 12.244393-62.052734 20.107422-40.544881 15.985885-79.938943 34.712666-119.033203 53.929687-105.318803 52.169138-207.998305 109.470939-313.126953 161.990235-36.643488 18.076581-73.526085 35.814468-111.580078 50.75-17.816557 6.882561-35.924244 13.243412-54.621094 17.294922-11.614277 2.310788-23.659024 4.002988-35.443359 1.912109-8.453102-1.43048-16.555243-5.72248-21.867188-12.544922-8.132987-9.883657-10.97438-23.119214-10.574219-35.673828.620224-19.407207 6.723564-38.113116 13.826172-56.009766 14.245241-34.912807 33.311193-67.605317 53.228516-99.537109 23.748725-37.75393 49.409145-74.267492 75.798828-110.220703 36.473444-49.608227 74.54609-98.015917 113.320312-145.853516 99.0364-121.77478 202.765121-239.658685 308.173829-355.941406 16.66606-18.216779 33.033403-36.724383 49.849609-54.791016-3.311215 23.008522-5.942692 46.138207-10.404297 68.976563-13.50493 70.595877-29.360057 140.781565-40.333984 211.847656-1.380553 9.653555-2.69159 19.336436-3.341797 29.080078 25.579381-8.082999 50.177576-18.926646 74.80664-29.480468 116.982977-51.398997 231.385981-108.419243 347.638672-161.388672 16.586287-7.392693 33.1122-15.007087 50.228516-21.109375 24.649145-7.932854 50.067897-13.915041 75.9375-15.845703 21.047708-1.570556 42.536031-.159906 62.773437 6.152343 17.666487 5.442011 34.233535 14.586072 48.058594 26.890625 11.814442 10.834096 18.275395 26.089249 22.626953 41.214844 6.102289 22.428322 7.513792 46.05642 4.802735 69.125-1.490477 12.01427-4.172246 23.949474-8.753907 35.183594-2.58093 6.722527-6.47156 12.805792-9.3125 19.408203-36.033167 77.38835-60.012713 159.788413-78.439453 242.958984-20.907694 95.635097-34.063119 192.831458-42.816406 290.28711-8.723136 97.085779-12.723879 194.531194-14.644531 291.957031-.500244 18.366742-.740602 36.744586-1.541016 55.111328-.980345 22.598244-6.801522 44.736471-14.974609 65.744141-12.174426 30.911407-29.241111 59.990931-50.789063 85.320312-10.973988 12.694598-23.238906 24.510034-37.574218 33.363281-7.812859 4.77177-16.385019 8.542681-25.478516 9.953125-43.725969 6.242273-86.972211 15.406168-130.078125 24.929688-93.364225 20.937754-186.098604 44.495826-279.212891 66.503906-41.825336 10.013685-83.790874 19.416674-125.736328 28.910156-84.951178 19.507168-169.50338 40.63592-254.144531 61.433594-46.557128 11.294071-93.094011 22.727288-140.03125 32.38086-22.858414 4.561613-45.796364 9.064461-69.044922 11.035156-4.592309.296713-9.274806.600135-13.939453.582031zm1.982422-28.011719c9.815483.030012 19.654718-1.531254 29.363281-2.761718 34.902843-5.231902 69.325855-13.155698 103.728516-20.978516 42.545627-9.883634 84.939892-20.366405 127.355468-30.820313 36.273371-8.893286 72.526465-17.897172 108.839844-26.65039 42.695697-10.283689 85.431562-20.417612 128.277344-30.03125 45.836807-10.173666 91.515365-21.008419 137.162109-31.982422 27.610202-6.602395 55.179288-13.37461 82.769532-20.037109 24.058813-5.822077 48.108605-11.664145 72.1875-17.40625 40.124776-9.493475 80.269876-18.927301 120.634765-27.400391 31.751555-6.592508 63.602571-12.863316 95.734375-17.375 8.092888-1.590666 15.234992-6.133794 21.857422-10.855469 10.233755-7.762871 19.157601-17.084849 27.310547-26.978515 19.507183-23.988807 34.872325-51.348815 45.326172-80.439454 4.271602-12.124469 7.673464-24.610547 9.414062-37.365234 1.520629-10.813924 1.249757-21.768352 1.839844-32.652344.620239-28.970613 1.220948-57.939512 2.03125-86.910156 1.080321-37.833947 2.502199-75.659217 4.462891-113.453125 2.440915-43.535967 5.221195-87.051069 9.302734-130.457031l-.130859-.101563c2.971066-30.071137 5.912967-60.161163 9.644531-90.162109 5.701899-46.477065 12.62391-92.794053 20.966797-138.871094l.111328.119141c3.541378-19.397198 7.301518-38.763203 11.623047-57.990235 5.872186-27.570162 12.574836-54.97012 20.017578-82.160156 5.141841-18.896954 10.76441-37.653583 16.726562-56.310547 11.444203-34.822719 24.01796-69.326815 39.183594-102.708984 3.071042-6.972527 6.20264-13.914802 9.664063-20.697266 4.441524-7.652824 7.212404-16.145394 9.203125-24.728515 5.211909-24.539038 4.191277-50.459863-3.111328-74.46875-2.861082-8.63317-6.551521-17.455207-13.253907-23.847657-13.575059-11.914294-30.300921-20.197757-48.027343-23.708984-25.799535-5.26208-52.489406-2.451166-77.96875 3.210938-17.446394 3.961421-34.77321 8.802863-51.109375 16.185546-35.94308 15.345688-71.255468 32.121843-106.648438 48.667969-17.25633 8.233024-34.633257 16.235848-51.849609 24.548828-25.149267 11.814442-50.269007 23.698743-75.408203 35.533203-17.956647 8.443107-35.93288 16.837167-53.939454 25.160157-40.104696 18.646832-80.389811 36.942522-121.214843 53.96875-12.234485 5.051997-24.559339 9.903813-37.083985 14.195312-9.053274 2.831052-18.247263 6.293701-27.880859 6.013672-5.622004-.01001-11.294009-2.891728-14.205078-7.763672-3.421261-5.71203-3.480591-12.613898-3.390625-19.066406.740356-19.166973 4.010318-38.114399 7.021484-57.021484 4.841792-28.620455 10.324713-57.131132 15.966797-85.601563 5.382014-27.019993 10.943609-53.999173 16.185547-81.039062-16.436019 17.946637-32.691178 36.061541-48.867188 54.238281-16.926252 18.846905-33.752152 37.793842-50.488281 56.800781-16.516097 18.786969-33.04268 37.565204-49.388672 56.492188-21.417916 24.76914-42.816763 49.548364-63.894531 74.597656-21.117777 24.929174-42.085592 49.99795-62.783203 75.287109-14.195207 17.306501-28.299788 34.693499-42.294922 52.169922-12.634631 15.855819-25.148999 31.811784-37.683594 47.757813l.119141.078125c-18.576825 23.708716-36.711962 47.768701-54.478516 72.097656-13.50496 18.416729-26.770017 37.023517-39.634765 55.90039-11.424198 16.706283-22.599529 33.583086-33.273438 50.779297-17.456418 28.170443-34.152418 56.970368-47.117187 87.521485-5.812128 14.215317-11.083681 28.850723-12.984375 44.15625-.700256 7.342766-.969929 15.445136 3.101562 21.9375 2.961087 5.061823 9.794088 4.301757 14.835938 4.341797 20.637583-1.660643 40.33353-8.771919 59.640625-15.814454 34.072491-12.94475 67.104403-28.450943 99.816406-44.466796 19.567211-9.523551 39.014912-19.287059 58.332031-29.300782 21.828012-11.033924 43.447043-22.508495 65.125-33.8125 28.970644-15.215622 57.900664-30.512466 86.861328-45.748047 19.287029-10.063649 38.533223-20.207346 57.900391-30.130859 21.84794-11.27422 43.797813-22.366954 65.835937-33.291016 32.401946-15.745833 64.932651-31.262526 98.214844-45.097656 17.546491-7.202629 35.22298-14.104376 53.269531-19.976562 19.277081-6.162348 39.005697-11.574343 59.283204-12.964844 10.183644-.510254 20.387217.549929 30.300781 2.880859 17.316328 3.771359 34.591809 11.1537 46.576172 24.638672 12.694689 13.885118 17.426148 33.091998 18.066406 51.46875 1.13037 18.316815-2.65021 36.373492-5.201172 54.410156-3.511288 23.278603-7.151554 46.53811-10.712891 69.806641-5.401972 34.982753-10.975774 69.935643-16.427734 104.898438-4.111507 25.93961-8.232243 51.868983-12.34375 77.808593-3.69128 23.088417-7.402225 46.186791-11.103516 69.275391-5.622125 34.582668-11.134527 69.184605-17.136718 103.697266-.710388 3.921352-1.451295 7.85355-2.101563 11.794921-13.705064.150055-27.408522.510834-41.103515.791016-49.728283.790282-99.437977 1.769532-149.15625 2.429688-49.928356 1.060484-99.876515 1.381501-149.794922 2.582031-30.49115.240081-60.98169.85022-91.462891 1.480469-34.332607.490172-68.685184 1.090577-103.007812 1.960937-51.408854.960418-102.839621 2.100527-154.228516 4.28125-1.850676 3.321286-3.640749 6.691532-5.441406 10.052734-17.086287 31.841674-34.282007 63.613802-50.748047 95.765625-13.935121 27.700137-27.710233 55.510191-40.214844 83.890625-15.155571 34.172589-28.970511 69.016714-39.484375 104.919922-9.593523 33.632352-17.366665 68.6648-14.105469 103.847657 1.490552 12.554659 4.232086 25.470008 10.894532 36.333984 3.261198.435158 6.528953.620855 9.800781.630859zm1496.636719-1362.755859c-3.802642.001445-7.70269-.904062-11.28711-1.798828-16.706265-5.291738-31.292387-15.414449-45.597656-25.248047-31.121398-22.438188-60.032281-47.818291-87.402344-74.658203-8.142928-8.593123-16.616103-16.946186-23.638672-26.509766-2.981073-4.071403-5.251103-8.592782-7.832031-12.904297 21.798052-29.911073 49.068413-55.210987 76.068359-80.330078 57.020883-52.029071 116.98291-100.737277 177.865235-148.134765 32.201718-24.939038 64.774236-49.397265 97.896484-73.085938 24.429029-17.286342 48.957449-34.512238 74.636719-49.917969 21.097858 3.301141 41.116249 11.283344 60.203125 20.636719 39.904705 19.837363 76.878365 45.196101 111.371094 73.316406-13.004735 34.572685-34.204513 65.243833-56.722657 94.234375-26.149727 33.312189-54.928404 64.475646-84.859375 94.386719-53.339615 52.809343-110.402221 101.957363-171.314453 145.853516-32.17181 22.938308-65.453806 44.51566-100.886718 62.082031-2.64342 1.527455-5.54239 2.077001-8.5 2.078125zm-1.884766-28.257813c18.776574-9.313458 36.825109-20.017722 54.511719-31.251953 20.097372-12.894627 39.623207-26.659574 58.740234-40.964843 12.144507-8.993269 24.029931-18.335591 35.824219-27.789063 11.164162-8.93321 22.148215-18.067279 32.992187-27.390625 12.584692-10.593973 24.819727-21.60781 36.994141-32.671875 14.965546-13.535007 29.468901-27.570951 43.824219-41.746094 10.443949-10.273783 20.55959-20.888571 30.613281-31.5625 8.753034-9.223248 17.175066-18.766376 25.578125-28.330078 8.753278-9.993632 17.127336-20.307028 25.400391-30.710937 4.531607-5.661976 8.812752-11.523694 13.154296-17.335938 7.983017-10.933938 15.554824-22.187523 22.447266-33.841797 3.581414-5.852039 6.782477-11.935071 9.763672-18.107422-20.947834-16.135832-42.904221-30.971217-65.8125-44.166015-13.71506-7.782822-27.701934-15.276012-42.447266-20.908203-7.59288-3.35119-15.566056-5.932011-23.628906-7.882813-9.223492 5.702137-18.266741 11.694837-27.240234 17.78711-6.362292 4.301627-12.724256 8.593636-18.976563 13.035156-11.243996 7.892928-22.498435 15.78444-33.5625 23.9375-10.523904 7.622665-20.986715 15.326675-31.40039 23.099609-12.114356 9.133405-24.279565 18.196552-36.253907 27.5-16.326139 12.594579-32.661775 25.187892-48.767578 38.052735-12.96494 10.343729-25.899317 20.707662-38.74414 31.191406-10.863992 8.99339-21.798606 17.908099-32.5625 27.021484-11.374367 9.623516-22.808739 19.196675-33.972657 29.070313-17.526454 15.285492-34.912265 30.741121-51.728515 46.796875-15.305634 14.645478-30.460965 29.521516-44.166016 45.6875 8.903303 10.373758 18.606953 20.006 28.480469 29.439453 25.409373 23.858717 51.927792 46.71769 80.818359 66.294922 9.493389 6.152209 19.146751 12.554938 30.121094 15.746093zm-266.267578-118.064453c-42.27555-8.142928-83.750815-19.845848-125.166016-31.5-35.653005-10.163676-71.175242-20.748312-106.658203-31.492187 32.001767-70.315656 77.097022-133.768918 126.035156-193.220703 48.787745-58.891484 101.997916-114.071881 158.46875-165.63086 23.488601-21.267779 47.54778-41.935829 72.707032-61.21289 4.141471-2.901118 7.871713-6.5127 12.363281-8.853516 48.297755 2.970941 96.367527 9.272721 144.125 17.015625 46.426909 7.712875 92.592376 17.115991 138.11914 29.070313 26.379586 6.892564 52.399222 15.0757 78.388672 23.298828-19.126915 8.523176-39.363072 14.806907-57.179687 26.041015-31.801694 19.487266-61.122006 42.674852-90.142578 66.023438-60.402223 49.318016-118.315422 101.607528-175.15625 154.957031-60.242067 56.860848-119.373526 114.941772-175.904297 175.503906zm-9.652344-30.599609c7.482651-8.272933 15.21547-16.336808 23.068359-24.259766 13.374974-14.035128 26.959745-27.880154 40.714844-41.535156 15.555755-15.605682 31.190828-31.132477 46.976563-46.498047 9.263409-8.773298 18.296649-17.795672 27.580078-26.548828 11.984351-11.374245 23.899682-22.808372 35.99414-34.0625 11.254128-10.483866 22.477684-20.997579 33.841797-31.361328 9.713604-8.863264 19.397603-17.77785 29.201172-26.541016 13.655124-12.194555 27.300565-24.39895 41.095703-36.433593 7.852768-6.69237 15.564103-13.544936 23.457032-20.197266 13.304905-11.294167 26.660427-22.528343 40.185546-33.5625 10.943948-8.743147 21.837181-17.556414 32.951172-26.099609 10.333964-7.842758 20.718772-15.635269 31.302735-23.167969 7.75267-5.37206 15.535416-10.702647 23.478515-15.804688-19.097129-5.091786-38.254067-10.085213-57.621093-13.976562-3.1112-1.070311-6.393439-1.460207-9.564454-2.230469-22.678421-4.771963-45.406295-9.41407-68.304687-12.945312-25.22932-4.5017-50.628713-8.201667-76.078125-11.222657-20.867756-2.611079-41.795696-4.76221-62.773438-6.292968-4.71166 3.551506-9.402597 7.142097-13.984375 10.863281-7.983016 6.372546-15.955826 12.755872-23.71875 19.398437-14.225191 12.014136-28.190823 24.327906-41.925781 36.892578-9.273541 8.63304-18.537494 17.276873-27.710937 26.009766-11.254128 10.914041-22.336448 22.008567-33.390625 33.132813-11.554298 11.774146-22.978416 23.667993-34.142578 35.8125-8.573103 9.293438-17.11696 18.607196-25.419922 28.140625-14.375338 16.335904-28.439847 32.94144-42.044922 49.927734-12.004493 15.065644-23.780418 30.311799-35.054688 45.927734-11.304054 15.785613-22.347066 31.762606-32.630859 48.228516-9.933696 15.865813-19.457903 32.011264-27.960938 48.6875 42.745765 12.754613 85.551478 25.369285 128.697266 36.693359 17.806605 4.791861 35.704626 9.334114 53.78125 13.025391z" fill-rule="evenodd" stroke-width=".094"/></g></svg>