<svg xmlns="http://www.w3.org/2000/svg" width="128pt" height="128pt" viewBox="0 0 128 128"><path fill="#f24747" d="M34 8.93c6.2-2.42 13.27-1.03 18.94 2.13 3.67 2.06 7.72 3.81 12.04 3.4 8.43-.54 16.92.19 25.12 2.21 7.17 2.09 14.58-.44 21.87.38 4.95.33 11 1.95 12.66 7.29 3.83 9.71-.68 19.82-.48 29.73.07 7.18-.53 14.35-1.63 21.45-1.01 6.89.59 13.89-.6 20.76-1.01 6.09-5.67 10.78-10.76 13.85-8.63 5.17-18.61 7.47-28.44 9.04-18.93 1.78-38.69 1.71-56.63-5.33-6.84-2.78-13.97-6.86-17.11-13.89-4.59-12.59-1.83-26.14.28-38.93-2.62-1.46-5.63-2.69-7.25-5.37C.33 53.07.31 49.89 0 46.93v-2.94c.63-4.78-.09-11.34 5-13.91 6.09-3.05 12.53.53 18.08 3.06 1.44-4.66 2.56-9.41 3.97-14.07C28.3 15.16 29.96 10.7 34 8.93m-2.54 28.81c-.68 3.09-2.56 5.68-4.29 8.25-7.07-.95-11.84-7.45-18.82-8.73-.01 1.02-.03 2.03-.04 3.05 5.07 2.91 9.99 6.06 15.2 8.71.06 1 .12 2.01.17 3.02-5.68-1.1-10.57-4.45-16.13-5.95.21 1.18.48 2.35.79 3.5 3.95 2.5 8.55 3.74 12.72 5.82-2.76 8-5.61 16.16-5.63 24.74.08 4.85-.6 9.93.93 14.61 3.69 6.52 11.07 9.59 17.87 11.81 13.46 4.21 27.77 4.7 41.74 3.75 9.17-.96 18.45-2.64 26.86-6.58 4.46-2.22 9.16-5.17 10.98-10.06.96-1.96.14-4.11-.15-6.12-.92-4.3-.73-8.76.13-13.04 2.12-9.6.3-19.56 2.23-29.19 1.08-5.8 1.82-11.69 1.37-17.6-6.86-2.53-14.35-1.03-21.38-.14-4.23.65-7.98-1.98-12.05-2.61-8.8-2.08-17.86-.87-26.77-1.2-6.56-2.06-12.06-7.49-19.27-7.42-3.38 6.7-4.75 14.13-6.46 21.38z"/><path fill="#3f3036" d="M31.46 37.74c1.71-7.25 3.08-14.68 6.46-21.38 7.21-.07 12.71 5.36 19.27 7.42 8.91.33 17.97-.88 26.77 1.2 4.07.63 7.82 3.26 12.05 2.61 7.03-.89 14.52-2.39 21.38.14.45 5.91-.29 11.8-1.37 17.6-1.93 9.63-.11 19.59-2.23 29.19-.86 4.28-1.05 8.74-.13 13.04.29 2.01 1.11 4.16.15 6.12-1.82 4.89-6.52 7.84-10.98 10.06-8.41 3.94-17.69 5.62-26.86 6.58-13.97.95-28.28.46-41.74-3.75-6.8-2.22-14.18-5.29-17.87-11.81-1.53-4.68-.85-9.76-.93-14.61.02-8.58 2.87-16.74 5.63-24.74-4.17-2.08-8.77-3.32-12.72-5.82-.31-1.15-.58-2.32-.79-3.5 5.56 1.5 10.45 4.85 16.13 5.95-.05-1.01-.11-2.02-.17-3.02-5.21-2.65-10.13-5.8-15.2-8.71.01-1.02.03-2.03.04-3.05 6.98 1.28 11.75 7.78 18.82 8.73 1.73-2.57 3.61-5.16 4.29-8.25m25.67 17.33c-.87 5.01-.68 10.13-.89 15.2 2.24.15 4.5.34 6.67.98 1.49.17 2.99.33 4.5.47.5-1.93.99-3.86 1.41-5.81.43-1.31.76-2.66 1.05-4.01 1.18-5.68 3.06-11.21 3.81-16.96-5.36-.37-10.61-1.83-16.01-1.72-.09 3.96-.17 7.91-.54 11.85m-3.45 23.85c-.14 2.42-.29 4.83-.35 7.25.66.27 1.97.83 2.62 1.11 3.06.32 6.14.51 9.22.34.31-1.87.57-3.75 1.12-5.57.1-1.73.12-3.47.12-5.2-1.17-.22-2.34-.46-3.5-.71-2.63-.72-5.36-.77-8.06-.74-.31 1.2-.7 2.38-1.17 3.52z"/><path fill="#fefdfd" d="M57.13 55.07c.37-3.94.45-7.89.54-11.85 5.4-.11 10.65 1.35 16.01 1.72-.75 5.75-2.63 11.28-3.81 16.96-.29 1.35-.62 2.7-1.05 4.01-.42 1.95-.91 3.88-1.41 5.81-1.51-.14-3.01-.3-4.5-.47-2.17-.64-4.43-.83-6.67-.98.21-5.07.02-10.19.89-15.2zM53.68 78.92c.47-1.14.86-2.32 1.17-3.52 2.7-.03 5.43.02 8.06.74 1.16.25 2.33.49 3.5.71 0 1.73-.02 3.47-.12 5.2-.55 1.82-.81 3.7-1.12 5.57-3.08.17-6.16-.02-9.22-.34-.65-.28-1.96-.84-2.62-1.11.06-2.42.21-4.83.35-7.25z"/></svg>