<svg viewBox="0 0 105.82 92.407" xmlns="http://www.w3.org/2000/svg" xmlns:xlink="http://www.w3.org/1999/xlink"><linearGradient id="a" gradientTransform="matrix(1.06 -.009 .008 1 -2.914 .553)" gradientUnits="userSpaceOnUse" x1="46.959" x2="81.766" y1="18.546" y2="18.546"><stop offset="0" stop-color="#fff" stop-opacity="0"/><stop offset=".549" stop-color="#1d1d1b" stop-opacity=".1"/></linearGradient><g transform="translate(-4.105 -3.567)"><path d="m100.03 31.005a3.622 3.622 0 0 0 -3.255-3.51c-4.64-.449-9.325.331-13.932 1.008-1.874.421-3.624-.523-5.365-1.047-10.029-3-18.957-2.086-24.084-1.666a3.483 3.483 0 0 0 -2.16 1.188c-.917.937-5.536.617-6.5 1.708a3.763 3.763 0 0 1 -2.72 1.447c-1.609.022-3.267.051-3.365.017-6.522-1.959-3.294-.77-3.937-.821-1.712-.135-1.967.408-1.957 2.125.015 2.537-2.432 5.005-4.771 8.861-.046.075-4.585 8.169-6.874 12.4-2.912 5.378-.879 7.57-6.945 14.39a5.691 5.691 0 0 0 -.544 6.833 2.838 2.838 0 0 1 .328.8 3.768 3.768 0 0 0 .662 1.356c2.254 2.838 2.841 1.948 3.336 5.277.664 3.474 3.639 5.864 6.5 7.621 7.069 4.016 15.2 5.59 23.184 6.6.083.01.166.018.25.024 13.533.9 27.618.467 40.244-4.99 3.979-1.809 8.256-4.4 9.673-8.771a3.282 3.282 0 0 0 .158-.983c.013-2.468-.9-4.859-.9-7.331-.289-4.248.921-8.363 1.538-12.525.43-2.873-.109-5.747-.39-8.6-.406-3.779 1.163-7.355 1.491-11.072a93.69 93.69 0 0 0 .335-10.339z" fill="#fbc11c"/><path d="m105.986 27.317c1.216.662 5.269.439-1.324 2.554-30.812 9.885-57.816 10.187-80.782-7.937 33.174-14.303 59.135-7.134 82.106 5.383z" fill="#cc983e"/><path d="m107.618 26.008c4.957 3.484.139 3.117-1.76 2.072-31.1-17.106-49.82-17.664-81.074-6.147-1.009.372-3.409-.2-.7-1.948.03-.02.063-.035.1-.053 15.33-8.322 51.943-12.891 79.639 3.644.124.077 3.677 2.346 3.795 2.432z" fill="#b3812b"/><path d="m22.094 22.482c.323-1.825 1.229-1.345 1.475-1.15 23.287 18.468 56.612 18.031 82.887 7.213 5-3.467 3.922 3.907.98 4.988-20.236 5.334-40.72 9.167-61.176 2.604-8-2.161-16.32-7.449-23.534-11.393-.054-.03 1.1.865 1.051.825-1.139-.983-1.92-1.747-1.683-3.087z" fill="#e04412"/><path d="m106.73 37.9c-26.864 7.457-59.43 10.731-82.968-7.479 0-2.366-2.5-5.572-1.546-7.447 28.552 19.226 55.448 17.236 87.394 7.765 0 2.444-.385 3.551-2.88 7.161z" fill="#f49b18"/><path d="m73.384 39.514c-.772 1.287-1.3 1.958-2.092 3.222a85.876 85.876 0 0 0 3.735-.155c-.712-1.217-.927-1.858-1.643-3.067zm7.967-.756c-.656 1.385-1.2 2.121-1.964 3.481a76.507 76.507 0 0 0 3.83-.464c-.752-1.227-1.043-1.838-1.866-3.017zm-15.974.816c-.776 1.2-1.26 1.83-2.041 3.017 1.482.091 2.221.12 3.7.151-.692-1.251-.942-1.911-1.659-3.168zm4.007.06c-.779 1.241-1.285 1.891-2.073 3.114 1.479.026 2.218.025 3.7-.006-.687-1.23-.911-1.879-1.627-3.108zm-12.031-.756c-.784 1.132-1.242 1.731-2.063 2.861 1.52.228 2.273.325 3.77.488-.708-1.316-.998-2.013-1.707-3.349zm4.013.447c-.774 1.163-1.239 1.776-2.027 2.932 1.5.158 2.239.221 3.721.316-.701-1.279-.974-1.956-1.694-3.248zm-12.024-1.969a54.15 54.15 0 0 1 -2.42 2.762 89.6 89.6 0 0 0 3.949.854c-.659-1.416-.944-2.166-1.529-3.616zm4.002.869a75.918 75.918 0 0 1 -2.184 2.8c1.556.3 2.324.434 3.847.667-.698-1.358-.995-2.079-1.663-3.467zm-11.513-3.087c-1 1.056-1.381 1.716-2.3 2.816 1.221.443 1.861.656 3.219 1.062a38.88 38.88 0 0 1 -.919-3.878zm3.569 1.139c-.973 1.078-1.436 1.7-2.389 2.814 1.37.4 2.091.595 3.624.959a44.536 44.536 0 0 1 -1.235-3.773zm-9.78-3.65a14.712 14.712 0 0 0 -2.02 2.739c1.006.518 1.525.77 2.617 1.254a32.956 32.956 0 0 1 -.597-3.993zm2.986 1.309a25.116 25.116 0 0 0 -2.181 2.774c1.1.482 1.673.715 2.884 1.161a34.932 34.932 0 0 1 -.703-3.935zm-8.67-4.43c-.945.9-.913 1.734-1.405 2.885.9.587 1.355.874 2.291 1.43-.283-1.64-.769-2.756-.886-4.315zm2.829 1.66c-1 .908-1.106 1.677-1.768 2.758.94.554 1.42.823 2.42 1.345a35.658 35.658 0 0 1 -.652-4.103zm-8.835-5.753c-.652 1.059-.262 2.129-.2 3.657.907.648 1.351.966 2.241 1.586-.658-1.927-1.492-3.309-2.041-5.243zm3.096 2.187c-.831.942-.638 1.874-.894 3.168.89.618 1.332.92 2.231 1.51-.421-1.744-1.056-2.973-1.337-4.678zm76.786 5.979a24.521 24.521 0 0 1 -2.7 4.311c1.2-.324 1.785-.487 2.962-.809a4.817 4.817 0 0 0 -.262-3.502zm3.429-1.025a22.607 22.607 0 0 1 -2.947 4.468c1.176-.321 1.76-.48 2.931-.789a5 5 0 0 0 .016-3.679zm-10.58 3.034a28.37 28.37 0 0 1 -2.146 4.01c1.271-.306 1.894-.463 3.122-.782a5.491 5.491 0 0 0 -.976-3.228zm3.622-.988a26.287 26.287 0 0 1 -2.417 4.159c1.226-.32 1.829-.482 3.025-.807a4.921 4.921 0 0 0 -.608-3.352zm-11.125 2.779a35.252 35.252 0 0 1 -1.793 3.732c1.4-.252 2.081-.386 3.414-.668a9.5 9.5 0 0 0 -1.621-3.064zm3.792-.856a31.3 31.3 0 0 1 -1.923 3.868c1.329-.283 1.977-.432 3.251-.736a6.8 6.8 0 0 0 -1.328-3.132zm-15.578 2.698c-.74 1.338-1.275 2.033-2.065 3.343 1.5-.093 2.263-.153 3.8-.3-.775-1.209-.993-1.845-1.735-3.043zm7.918-1.088c-.577 1.416-1.058 2.162-1.8 3.6 1.484-.212 2.2-.329 3.61-.578a15.967 15.967 0 0 0 -1.81-3.022z" fill="#5994b6"/><path d="m16.874 38.015c6.238 2.231 10.019 4.9 15.454 8.536a1.5 1.5 0 0 1 .672 1.53c-.4 1.879-4.091-.968-5.991-2.036-1.42-1.363-12.695-6.309-10.135-8.03zm.171 5.671c2.861 1.152 5.857 3.142 8.7 4.467 2.8 1.482 5.694 2.472 8.5 3.951a1.149 1.149 0 0 1 -.863 1.844c-3-1-5.747-2.425-8.616-3.477-2.766-1.157-7.057-3.73-7.766-4.057-1.156-.531-1.12-3.198.045-2.728zm55.903 10.114c.21-.046 2.789-.157 3-.181 5.723-.663 8.249-1.648 13.655-1.834 1.135-.039 1.3 2.175.179 2.431a130.288 130.288 0 0 1 -19.7 2.624c-.84.062-.726-1.649.057-2.056a10.88 10.88 0 0 1 2.809-.984zm-6.575 7.417a1.321 1.321 0 0 1 -.862-1.09c0-1.911 2.954-1.579 4.223-1.444 6.059-.11 10.992-.167 16.845.183 1.528.091 1.565.863 1.179 1.77a1.112 1.112 0 0 1 -.947.725c-3.1.128-6.263 0-9.362.068-4.449.022-8.749-.301-11.076-.212z" fill="#9da8a5"/><path d="m43.761 64.513c1.979-1.768 3.923-3.03 6-4.681 1.249 1.835 2.366 4.763 3.732 6.524-1 2.472-2.924 5.589-5.937 5.383-3.024-.184-3.225-4.879-3.795-7.226z" fill="#e73b67"/><path d="m9.847 70.4c.025-1.183 1.1-2.6 1.827-4 .56-1.085 2.053-1.028 2.564-2.178 1.352-1.789 3.268-4.234 5.163-3.407 1.555 1.143 11.772 6.289 11.521 8.008-.815 1.77-10.756-5.989-11.732-5.479-1.119 0-2.383 2.406-3.79 3.33a6.954 6.954 0 0 0 -2.651 3.126c-.536 3.3 4.067 5.24 4.931 8.055-.568 3.53-7.929-5.971-7.833-7.455zm67.246 2.125a2.11 2.11 0 0 0 -2.538-.927c-2.6.676-7.36 2.432-8.9 2.459-2 .035-2.156-.31-1.089-1.124 1.141-.871 6.2-2.4 6.276-2.459a46.728 46.728 0 0 1 5.037-1.388c1.225-.237 3.175 1.128 3.685 2.266.457 1.019 1.194.7 1.165 2.524-.021 1.306 1.69 1.348 1.82 2.569.106.984.669.492.633 1.159-.067 1.244 1.65 2.459-.422 4.091-1.985 1.563-5.887 4.5-6.832 5.194a.857.857 0 0 1 -1.211-1.206c.5-.567 3.385-2.866 5.131-4.421.974-.867.964-2 .672-3.447-.379-1.9-1.829-1.229-3.427-5.29z" fill="#1d1d1b"/><path d="m89.938 43.965c-.018-.009-.037-.016-.055-.024l-.053-.028a10.459 10.459 0 0 0 -14.47 12.779c0 .026.639 1.659.931 2.261l.055.1c.518 1.622 1.413 3.01.471 6.3a19.579 19.579 0 0 1 -2.028 4.52 19.049 19.049 0 0 0 -1.789 2.5 46.556 46.556 0 0 0 -5.046 11.041 1.523 1.523 0 0 0 -.046.229 2.928 2.928 0 0 0 4.637 2.233 1.511 1.511 0 0 0 .155-.176 46.6 46.6 0 0 0 5.486-10.83 18.917 18.917 0 0 0 .838-2.957 19.55 19.55 0 0 1 2.27-4.4c1.981-2.786 3.625-2.951 5.216-3.558l.115-.022c.653-.147 2.326-.667 2.349-.681a10.459 10.459 0 0 0 .968-19.281z" fill="#7c4f3a"/><path d="m74.807 53.651a10.51 10.51 0 0 0 .553 3.041c0 .026.639 1.659.931 2.261l.055.1c.518 1.622 1.413 3.01.471 6.3a19.579 19.579 0 0 1 -2.028 4.52 19.049 19.049 0 0 0 -1.789 2.5 46.556 46.556 0 0 0 -5.046 11.041 1.523 1.523 0 0 0 -.046.229 2.928 2.928 0 0 0 4.637 2.233 1.511 1.511 0 0 0 .155-.176 46.6 46.6 0 0 0 5.486-10.83 18.917 18.917 0 0 0 .838-2.957 19.55 19.55 0 0 1 2.27-4.4c1.981-2.786 3.625-2.951 5.216-3.558l.115-.022c.653-.147 2.326-.667 2.349-.681a10.518 10.518 0 0 0 2.722-1.464zm15.131-9.686c-.018-.009-.037-.016-.055-.024l-.053-.028a10.376 10.376 0 0 0 -10.345.677l16.374 7.885a10.377 10.377 0 0 0 -5.921-8.51z" fill="none"/><path d="m94.568 58.489-18.98-9.14a10.427 10.427 0 0 0 -.781 4.3l16.885 8.131a10.418 10.418 0 0 0 2.876-3.291z" fill="#82aa36"/><path d="m94.9 57.839c.087-.185.167-.372.242-.56l-1.963-.945-.479-.234-3.03-1.459-.488-.235-3.03-1.459-.487-.235-3.03-1.459-.488-.235-3.03-1.459-.487-.235-2.451-1.18c-.1.176-.2.355-.287.539-.109.22-.207.443-.3.667l18.98 9.14c.114-.213.228-.428.328-.651z" fill="#f49b18"/><path d="m79.112 49.558 3.311-3-.281 4.458.488.235 3.31-3-.28 4.458.487.235 3.311-3-.281 4.458.488.235 3.311-3-.276 4.463.488.235 2.7-2.451a10.324 10.324 0 0 0 -.029-1.408l-16.374-7.886q-.3.2-.589.42l-.271 4.313z" fill="#e84f1b"/><path d="m78.9 45.01a10.438 10.438 0 0 0 -2.722 3.133l2.451 1.18z" fill="#5995b7"/></g><path d="m75.007 45.991 3.03 1.459.281-4.458zm3.518 1.694 3.03 1.459.28-4.458zm3.517 1.694 3.031 1.459.28-4.458zm3.518 1.693 3.03 1.46.281-4.458z" fill="#5995b7"/><g transform="translate(-4.105 -3.567)"><path d="m95.146 57.279a10.427 10.427 0 0 0 .742-3.4l-2.7 2.451z" fill="#5995b7"/><path d="m12.945 32.125-.058.012-.059.008a10.477 10.477 0 0 0 -4.443 18.772c.017.02 1.468.992 2.05 1.318l.1.053c1.349 1.031 2.87 1.654 3.984 4.886a19.712 19.712 0 0 1 .939 4.867 19.032 19.032 0 0 0 -.024 3.074 46.966 46.966 0 0 0 2.217 11.94 1.694 1.694 0 0 0 .094.214 2.428 2.428 0 0 0 2.771 1.094 2.428 2.428 0 0 0 2.272-1.927 1.392 1.392 0 0 0 .02-.233 46.932 46.932 0 0 0 -1.738-12.019 19.218 19.218 0 0 0 -1.01-2.9 19.663 19.663 0 0 1 -.676-4.91c.016-3.418 1.256-4.5 2.2-5.908l.08-.083c.446-.5 1.508-1.882 1.518-1.907a10.478 10.478 0 0 0 -10.237-16.351z" fill="#7c4f3a"/><path d="m13.009 32.116c-.019 0-.038.009-.058.012l-.058.008a10.322 10.322 0 0 0 -8.421 7.772l19.009-3.138a10.321 10.321 0 0 0 -10.472-4.654zm-7.372 15.678a10.47 10.47 0 0 0 2.813 3.114c.017.02 1.468.992 2.05 1.317l.1.054c1.349 1.031 2.87 1.654 3.983 4.886a19.657 19.657 0 0 1 .939 4.867 19.052 19.052 0 0 0 -.023 3.074 46.879 46.879 0 0 0 2.217 11.939 1.414 1.414 0 0 0 .094.215 2.428 2.428 0 0 0 2.771 1.094 2.429 2.429 0 0 0 2.272-1.927 1.653 1.653 0 0 0 .02-.233 46.926 46.926 0 0 0 -1.739-12.019 19 19 0 0 0 -1.01-2.9 19.71 19.71 0 0 1 -.676-4.91c.016-3.418 1.256-4.5 2.2-5.908l.08-.083c.447-.5 1.508-1.882 1.518-1.907a10.5 10.5 0 0 0 1.663-3.853z" fill="none"/><path d="m25.124 42.959-20.217 3.341a10.419 10.419 0 0 0 .73 1.5l19.277-3.183a10.63 10.63 0 0 0 .21-1.658z" fill="#ba964e"/><path d="m25.052 41.122-2.221.366.579-1.658-2.194.362 1.084 1.385-3.32.548.579-1.658-2.194.362 1.081 1.384-3.319.548.573-1.661-2.194.362 1.081 1.384-3.317.554.579-1.658-2.194.358 1.081 1.384-3.32.549.584-1.658-2.2.363 1.081 1.384-2.5.412a10.561 10.561 0 0 0 .526 1.766l20.217-3.338a10.614 10.614 0 0 0 -.072-1.84z" fill="#e84540"/><path d="m5.8 42.738 2.2-.363.579-1.658 1.076 1.383 2.194-.362.578-1.658 1.081 1.384 2.192-.364.579-1.658 1.081 1.384 2.194-.362.579-1.659 1.081 1.384 2.194-.362.579-1.658.5.639a10.444 10.444 0 0 0 -1.007-2.041l-19.008 3.141a10.5 10.5 0 0 0 -.29 2.986l.538-1.54z" fill="#e73487"/><path d="m5.8 42.738-1.08-1.384-.538 1.54a10.8 10.8 0 0 0 .118 1.151c.025.165.056.327.088.489l2.5-.412z" fill="#78c092"/></g><path d="m3.89 38.808-.579 1.658 3.32-.548-1.081-1.384-1.081-1.384zm3.854-.636-.579 1.658 3.32-.548-1.082-1.384-1.081-1.384zm3.853-.637-.578 1.659 3.319-.549-1.081-1.384-1.081-1.384zm3.854-.636-.578 1.658 3.319-.548-1.081-1.384-1.081-1.384z" fill="#78c092"/><g transform="translate(-4.105 -3.567)"><path d="m23.41 39.83-.579 1.658 2.221-.366a10.432 10.432 0 0 0 -.074-.492 10.63 10.63 0 0 0 -.49-1.819l-.5-.639z" fill="#78c092"/><path d="m35.974 47.762c-.872-4.544 3.2-8.829 7.382-6.924a4.231 4.231 0 0 1 2.318 3.211c.639 5.354-5.62 9.811-9.027 5.421a6.293 6.293 0 0 1 -.673-1.708zm34.203-.074c1.635 3.322-2.477 10.512-7.377 7.53-6.562-4.994 3.513-15.386 7.377-7.53zm-28.788 9.004c1.142 1.734.969 7.647 3.953 4.488 1.484-.947 3.377-5.4 5.187-3.113 1.371 1.633 2.652 8.015 5.471 5.433 1.056-.929 2.967-3.068 4.075-3.929s2.9.085 2.037 1.194a26.543 26.543 0 0 1 -5.269 5.339c-5.09 4.608-5.126-6.2-8.218-4.961-1.713.8-4.55 5.908-6.475 3.92-1.747-2.108-1.788-3.317-3.2-6.957-1.108-2.867 1.65-2.891 2.439-1.414z" fill="#1d1d1b"/><path d="m93.283 22.063c2.152-.995 6.1-2.615 7.359-1.882.817.475 1.142 2.2.908 4.415-.76 7.228-5.632 5.954-9.194 5.806-4.483-.186-6.654-1.137-9.394-1.331-.232-.017-.292-.413-.119-.568 4.419-3.989 6.868-4.79 10.44-6.44z" fill="#f9c01c"/><path d="m82.868 29.446a.379.379 0 0 1 -.067-.722c.093-.055 1.63.5 2.366.6a50.958 50.958 0 0 0 13.347.339c1.346-.178 1.3.443.822.669-.581.275-1.393.7-1.808.833-.041.013-2.407.236-2.449.239-3.19.241-5.8-.453-9.992-1.382-.367-.079-1.04-.248-2.219-.576z" fill="#7c4f3a"/><path d="m33.307 19.229c1.753-4.585 1.2-9.553 10.487 1.588 2.41 2.893 3.633 3.855 3.88 5.141.085.438-.182.407-1.036.188a31.276 31.276 0 0 0 -3.822-.474c-8.925-.994-10.753-1.959-9.509-6.443z" fill="#f9c01c"/><path d="m33.68 22.117c4.461 2.581 7.774 2.522 12.95 3.277.843.123 1.662.911 1.047.908-3.175-.017-12.07-1.1-14.72-2.843-.557-.365.143-1.675.723-1.342z" fill="#7c4f3a"/><path d="m66.488 3.567c11 4.1 16.027 12.929 17.524 26.32-19.642 5.235-19.4 5.291-36.928-3.229 2.784-14.858 12.225-22.113 19.404-23.091z" fill="#f49b18"/><path d="m83.529 26.45c-6.495 2.308-11.111 2.857-18.4 2.625a45.3 45.3 0 0 1 -17.421-5.2 41.29 41.29 0 0 0 -.621 2.781c4.809 2.337 8.15 4.078 11.062 5.2a22.479 22.479 0 0 0 7.086 1.611 26.564 26.564 0 0 0 6.465-.537c3.148-.591 7-1.627 12.314-3.043q-.2-1.773-.485-3.437z" fill="#8aba47"/><path d="m49.683 18.194a35.2 35.2 0 0 0 -1.289 3.337c9.562 6.2 21.089 8.3 34.651 2.428q-.444-2-1.041-3.825c-12.88 5.543-20.868 3.455-32.321-1.94z" fill="#5994b6"/><path d="m66.488 3.567c11 4.1 16.027 12.929 17.524 26.32-19.642 5.235-19.4 5.291-36.928-3.229 2.784-14.858 12.225-22.113 19.404-23.091z" fill="url(#a)"/></g></svg>