<svg viewBox="0 0 75.39 70.014" xmlns="http://www.w3.org/2000/svg"><g transform="translate(-10.713 -6.179)"><path d="m86.1 14.768-.008-2.345c.114-2.395-.739-2.724-2.586-2.755-1.535-.026-4.137.973-5.828 1.736-6.551 3.578-5.6 2.862-10.892 1.193a53.511 53.511 0 0 0 -10.079-2.019c-7.7-.627-14.379-.426-21.3 3.193-.193.154-2.037 1.156-2.453.315a57.313 57.313 0 0 0 -6.007-5.519c-1.575-1.294-3.355-3.112-5.747-2.088-2.428 1.04-3.79 2.007-3.79 5.585 0 5.854-.211 12.748-.1 18.531a29.492 29.492 0 0 0 -2.354 4.478 57.725 57.725 0 0 0 -3.875 14.453 15.97 15.97 0 0 0 -.094.952 72.269 72.269 0 0 0 -.2 9.366c-.1 3.367 1.276 6.58 3.421 8.147 7.057 5.153 14.1 6.444 23.47 7.763a93.5 93.5 0 0 0 21.612-.35c8.759-1.394 16.981-2.452 23.9-8.225a7.821 7.821 0 0 0 2.655-4.079 10.728 10.728 0 0 0 -.358-4.8c-.175-1.236-.83-2.5-.927-3.743-.257-3.283.852-6.047 1.321-9.579.362-3.84-1.384-12.853-1.729-16.085-.359-3.358 2.032-10.893 1.948-14.125z" fill="#fbc11c"/><path d="m28.719 32.842c-4.079-3.824 2.36-11.723 6.52-8.172 4.513 3.853-1.762 12.22-6.52 8.172zm33.281-6.055c-5.694-4.25-11.39 8.247-4.689 9.86 5.819 1.401 8.526-7.153 4.689-9.86z" fill="#1a2030"/><path d="m65.11 30.908-.241.711c-.107-.212-.3-.423-.3-.635s.19-.422.3-.634z" fill="#fdca1a"/><path d="m41.342 68.677c7.358-.477 11.092-3.994 12.415-11.507.218-1.235.359-2.481.535-3.722a2.664 2.664 0 0 0 -1.6-3.379l-.131-.03q-1.236-.462-2.477-.812a35.819 35.819 0 0 0 -8.746-1.162 35.812 35.812 0 0 0 -8.738 1.162q-1.242.353-2.478.812l-.131.03a2.665 2.665 0 0 0 -1.6 3.379c.176 1.241.317 2.487.535 3.722 1.323 7.513 5.06 11.03 12.416 11.507z" fill="#fff"/></g><ellipse cx="42.935" cy="54.622" fill="#fbc11b" rx="3.06" ry="3.952"/><g transform="translate(-10.713 -6.179)"><path d="m31.554 51.665c6.819-2.142 13.227-2.406 19.813.323-4.945 3.543-13.536 3.412-19.813-.323z" fill="#852f1c"/><path d="m60.634 56.345a15.075 15.075 0 0 0 -8.283.4c-.681 1.255-2.445 1.67-2.2 3.572a2.971 2.971 0 0 0 -.222 3.41c-.176 1.225.957 2.014 1.049 3.149l.136.355c.524.666 1.017 1.358 1.58 1.989.432.485.967 1.324 1.617.877.769-.528.472-1.324-.229-1.93a4.133 4.133 0 0 1 -.624-.94 16.072 16.072 0 0 1 -2.179-3.882c-.292-.814.413-2.639.936-3.331 1.624-2.146 3.3-2.367 5.882-2.067.771.031 1.543.037 2.311.1.647.052 1.5.427 1.628-.558.121-.867-.786-1.031-1.402-1.144z" fill="#444443"/><path d="m51.05 38.575c-1.417-.281-2.221 1.711-2.961 2.838-1.814 2.764-2.318 2.114-3.433-.078-2.006-3.942-2.006-3.943-4.584-.222-.164.237-.307.488-.46.733-.139.01-.566.591-.685.663-1.065.582-1.382.324-1.9-.5-.19-.17-.314-1.088-.5-1.258-.135-.451-.244-.912-.411-1.351-.293-.773-.44-1.846-1.678-1.359-1.256.5-.577 1.369-.287 2.137-.092.053.222.5.187.6.353.692.587 1.1.949 1.789 1.806 3.428 3.671 3.405 5.9.092l-.062-.033c1.644-2.044 1.931.563 3.088 1.967 1.639 1.672 2.242 1.349 4.955-1.388a11.45 11.45 0 0 0 2.332-3.649c0-.629-.3-.656-.45-.981z" fill="#3d3a32"/><path d="m20.849 44.308c-2.455-.535-3.212-.6-3.551-2.345s.028-2.732 1.855-3.8c1.736-1.019 3.368-.807 6.1-.9 2.32 0 4.762-.365 5.672 2.491.265 1.756.65 3.618-2.014 4.558a38.929 38.929 0 0 1 -8.062-.004z" fill="#fb9e1d"/><path d="m21.578 43.55c-1.913-.416-2.5-.464-2.766-1.826s.022-2.128 1.445-2.963c1.352-.793 2.623-.628 4.748-.7 1.807 0 3.709-.284 4.417 1.94.206 1.368.506 2.818-1.569 3.55a30.282 30.282 0 0 1 -6.275-.001z" fill="#fb831e"/><path d="m26.376 44.177a16.113 16.113 0 0 1 -2.991 2.346c-2.174.895-4.333 2.512-6.747 2.761-.621.064-.821-.468-.418-.945 1.522-1.8 3.711-2.032 5.491-3.261a16.673 16.673 0 0 1 2.969-1.238c.82-.009 1.684-.514 1.696.337z" fill="#52452a"/><path d="m20.358 38.319-1.725.2c-.374-.07-1.349.222-1.5 0-.445-.635.744-1.026 1.043-1.129 2.09-.714 9.4-.55 10.7-.748 1.006.438.545 1.176-.593 1.176-1.535.005-5.216.403-7.925.501z" fill="#634c28"/><path d="m60.39 46.8c-.729-.02-1.465.021-2.184-.069a4.139 4.139 0 0 1 -3.9-3.473c-.3-2.086 1.487-3.254 3.214-3.64s3.048-.99 5.407-.349c2.191.847 4.118.861 4.879 3.248-.375 1.656-.2 3.44-2.422 4.225-.614.178-1.279-.071-1.893.107a8.02 8.02 0 0 0 -3.101-.049z" fill="#fb9e1d"/><path d="m60.555 45.811c-.543-.014-1.092.017-1.628-.051a3.084 3.084 0 0 1 -2.907-2.589c-.222-1.556 1.108-2.427 2.4-2.714a6.965 6.965 0 0 1 4.032-.261c1.633.632 3.071.643 3.638 2.422-.28 1.235-.146 2.565-1.806 3.151-.458.132-.954-.054-1.411.079a6.015 6.015 0 0 0 -2.318-.037z" fill="#fb831e"/><path d="m60.434 47.054c1.266-1.749 1.925-.111 2.939.444 2.163 1.888 5.333 3.347 7.562 5.7a.473.473 0 0 1 -.467.8c-2.863-.663-5.082-2.644-7.431-4.459-.986-.939-1.997-1.407-2.603-2.485z" fill="#393829"/><path d="m63.13 40.818c0-.542.438-.958 1.393-.94 3.154 1.109 7.642 1.07 9.867 3.26-1.68.681-4.616-.116-4.616-.116-1.532-.402-.974-.44-6.644-2.204z" fill="#34332c"/><path d="m41.461 43.683a29.107 29.107 0 0 1 3.947 2.165c1.826 1.837 5.062 3.638 5.959 6.14-6.248-2.327-11.945-2.764-19.813-.323-.1-4.38-1.24-4.582-3.031-6.381-.1-.106-4.332-3.4-5.3-5.119-.8-1.422-.263-3.2 1.086-4.748 0 0 1.973-2.264 2.807 1.563.83 3.806 2.958 2.63 4.435 3.557 1.427.323 2.974.02 4.4.344.791-.005 2.026.305 5.51 2.802z" fill="#fde5af" opacity=".7"/></g></svg>