<svg clip-rule="evenodd" fill-rule="evenodd" viewBox="0 0 951 960" xmlns="http://www.w3.org/2000/svg"><g fill-rule="nonzero" stroke-width=".09" transform="translate(-107.237 -1.00448)"><g stroke="#fff"><path d="m1027.06 16.17c11.25-4.99 23.81-5.65 35.95-6.08 30.93-1.11 61.79 7.89 88.25 23.71 13.63 8.62 23.1 22.19 30.68 36.14 8.22 15.81 13.85 32.8 19.28 49.72 4.55 14.31 7.27 29.1 10.23 43.79 2.2 9.98 2.65 20.22 3.8 30.35 2.38 22.32 2.49 44.78 3.14 67.18-.1 8.36.18 16.71.81 25.04 1.03 10.34-.47 20.68-.6 31.03-1.18 10.96-2.48 21.92-3.42 32.92-2.15 24-5.5 47.92-11.01 71.4-1.86 9.84-5.69 19.14-7.96 28.88-4.45 16.33-9.24 32.74-17.36 47.69-7.73 14.83-17.05 29.1-29.33 40.57-13.37 11.25-27.79 21.73-44.31 27.83-19.63 7.79-41.53 10.22-62.25 5.84-20.66-4.94-40-14.2-58.31-24.8-4.9-2.96-9.06-6.96-12.82-11.22-4.39-5.01-9.05-9.93-12.03-15.95-5.74-11.15-10.07-23.06-12.67-35.32-3.35-16.61-5.43-33.43-7.94-50.18-2.63-15.85-4.63-31.81-7.47-47.63-1.8-9.83-4.44-19.97-11.01-27.78-4.24-5.72-10.37-9.61-16.79-12.46 6.8-9.57 14.53-20.08 13.8-32.45-1.1-11.45.08-22.93-.07-34.4 1.32-38.94 7.4-77.55 14.76-115.75 4.25-21.15 11.97-41.42 20.7-61.08 9.78-22.15 22.57-43.15 39.25-60.79 6.72-6.96 13.66-13.75 21.29-19.73 3.94-3.12 8.81-4.6 13.41-6.47" fill="#fff" transform="translate(-169.845)"/><path d="m399.75 41.18c17.98-7.96 37.56-12.43 57.23-12.69 9.03.03 18.12-.69 27.08.73 10.86 1.44 22.01 1.31 32.58 4.51 6.24 1.84 12.46 3.84 18.37 6.59 10.69 5.17 21.33 10.6 30.78 17.86 11.23 8.69 22.79 17.1 32.71 27.32 7.64 7.76 15.78 15.23 21.65 24.5 5.09 7.92 10.69 15.53 15.25 23.78 6.06 12.06 10.48 24.84 15.86 37.21 4.85 14.25 9.63 28.59 12.65 43.37 2.89 12.15 5.16 24.43 7.45 36.71 1.55 8.55 2.1 17.25 2.17 25.94.13 21.34-.09 42.69-.22 64.03-1.28 11.94-.44 23.97-.69 35.95-.3 9.68 0 19.38-.53 29.05-.57 5.31-.49 10.65-.59 15.98-.07 6.02-1.8 11.89-1.85 17.92-.36 17.32-3.47 34.6-9.57 50.83-3.59 10.11-7.56 20.11-12.39 29.7-4.42 8.63-8.3 17.57-13.78 25.6-5.24 8.24-10.2 16.71-16.61 24.12-5.6 7.68-12.48 14.23-19.24 20.85-8.75 8.46-19.73 14.09-28.76 22.21-19.65 12.3-43.79 13.6-66.34 12.89-10.41-1.15-21.11-.15-31.27-3.11-7.55-2.22-15.54-2.62-22.95-5.38 7.75-.32-.97-5.08-9.82-5.17-2.4.04-4.71-.64-6.86-1.63-14.3-6.9-29.14-12.85-42.59-21.38-5.43-3.81-10.1-8.57-15.44-12.49-8.15-5.95-14.39-13.95-20.92-21.53 6.23.12-2.67-3.91-4.29-6.17-2.71-3.27-4.75-7.02-6.9-10.66 9.74.14-1.95-2.96-2.53-3.94-3.14-4.51-5.02-9.75-7.98-14.37 23.17 1.96 10.4-2.71-1.73-2.98-1.22-3.72-2.53-7.4-3.66-11.14 17.31.99 7.19-4.23-1.6-2.76-1.45-3.95-2.88-7.91-4.22-11.89 22.25.51 6.94-3.44-.95-2.82-2.57-5.46-4.17-11.36-4.11-17.43 7.65.42 17.51-4.58-3.19-4.77-4.26-.36-4.42 5.9-8.42 6.44-8.24 1.95-17.62 2.95-25.29-1.42-7.55-4.04-19.58-16.23-19.58-16.23s-3.61-5.61-4.85-7.12c-4.82-5.07-7.93-11.47-10.69-17.81 7.36.36 29.76-83.58 26.09-87.78 7.9-.01-8.12-40.1-12.44-40.54-.01-3.52-.08-7.04-.24-10.55 5.75.22 11.6-3.95-.8-4.09-.08-4.04-.19-8.07-.24-12.1 10.04 2.32 6.48-3.79-.53-4.14-.37-4.63-.46-9.28-.51-13.92 5.53.12 7.37-4.42.77-4.66 0-3.42.08-6.83.2-10.24 11.93.01 5.27-4.01.03-4.07.28-5.31 1.33-10.52 2.39-15.72 8.4-.37 23.61-4.48 1.35-4.01 1.29-4.49 2.13-9.14 3.97-13.45 4.18-1.06 5.24-4.7 1.95-4.47.53-5.52 2.25-10.8 3.68-16.12 16.73.35 5.09-4.42 2.06-4.78 1.44-6.58 4.51-12.61 7.23-18.72 2.72-5.99 8.79-17.65 8.79-17.65l3.25-6.19 5.26-8.81 3.49-3.93 7.64-12.61 2.43-5.5s7.99-8.5 11.9-12.93c14.05-.23 10.29-6.48 6.92-7.06 3.89-4.5 8.66-9.91 15.16-9.61 11.69.06 13.6-6.09 5.81-6.4 4.99-3.92 10.37-7.31 15.83-10.53 2.58-1.69 18.07-6.27 12.09-6.72 3.46-2.74 9.58-8.52 9.58-8.52z" fill="#e4c2ac"/><g fill="#fff"><path d="m1028.4 260.65c6.24-1.18 13.18-2.15 19.03 1 4.22 2.08 7.47 6.09 8.15 10.8 1.45 9.94-1.59 20.41-7.93 28.18-5.63 8.06-13.03 15.87-22.98 18.13-6.15 1.94-12.78.62-18.49-2.05-6.56-3.56-9.15-11.67-8.52-18.74.61-6.02 1.34-12.39 4.81-17.53 3.73-5.72 8-11.32 13.79-15.09 3.73-2.26 7.92-3.66 12.14-4.7z" transform="translate(-169.845)"/><path d="m600.52 275.05c6.46-.96 13-.15 19.5-.32 7.37-.07 15.49.99 21.28 5.95 3.01 3.58 5.97 8.49 4.47 13.32-1.4 5.55-3.44 11.17-7.37 15.46-3.68 4.04-8.33 7.01-12.96 9.83-4.07 2.36-8.2 4.84-12.85 5.87-13.95 1.97-29.03-1.6-39.65-11.12-3.52-4.13-4.76-9.79-5.34-15.06.37-7.93 6.23-14.7 13.1-18.16 6.24-2.98 13.02-4.67 19.82-5.77m3.8 10.99c-2.93 1.28-5.35 5.62-2.74 8.29 2.34 2.76 7.87 3.2 9.3-.71 2.61-4.06-2.17-9.84-6.56-7.58z"/><path d="m442.47 278.97c19.46-1.65 40.16-4.05 58.61 3.9 1.49 8.74-.52 18.26-5.97 25.34-5.6 7.86-14.83 12.04-23.84 14.64-6.36 1.48-12.93 3.35-19.5 2.15-11.25-1.76-22.67-4.44-32.44-10.53-3.63-2.42-7.31-5.43-8.72-9.71-1.85-6.2-2.62-12.83-1-19.16 11.03-1.85 21.91-4.44 32.86-6.63m25.84 8.04c-3.18 1.05-6.16 5.09-3.77 8.24 2.16 5.23 11.11 4.42 11.88-1.31 1.2-4.51-4.02-8.39-8.11-6.93z"/></g></g><g fill="#e4c2ac" stroke="#e4c2ac"><path d="m246.86 317.42c3.92-5.1 10.87-6.77 16.94-5.29 3.99 1.2 7.55 3.52 10.72 6.19-9.21-.77-18.45-.33-27.66-.9z"/><path d="m242.61 323.67c.73-1.17 2.17-.96 3.35-1.05 12.19-.11 24.51-.32 36.5 2.21 4.94 3.12 8.09 8.45 10.75 13.54-7 .13-14.01.05-21.01-.24-11.73-1.31-23.58.01-35.29-1.44 1.17-4.6 2.71-9.26 5.7-13.02z"/><path d="m234.59 341.35c4.99.01 9.97.23 14.95.48-2.88 4.05-4.26 8.84-4.94 13.71-4.16.02-8.32.04-12.47.1.37-4.84 1.39-9.58 2.46-14.29z"/><path d="m254.88 348.04c2.01-.95 4.59-2.21 6.69-.77 3.63 2 5.6 5.83 7.66 9.25-5.66.21-11.33-.07-16.99-.08.42-2.83-.36-6.77 2.64-8.4z"/><path d="m231.25 360.48c4.47-.1 8.95-.06 13.42.26.98 2.39 2.3 4.63 4.14 6.47 1.3-1.9 2.55-3.83 3.77-5.78 6.74.21 13.44 1.22 20.2 1.07 3.29 6.33 7 12.78 7.19 20.12-11.66-.18-23.31-.43-34.97-.31-4.48.07-8.97-.06-13.41-.64-.87-7.03-1.31-14.14-.34-21.19z"/><path d="m232.27 386.37c6.9.28 13.82-.02 20.69.8 9.15.36 18.32.31 27.49.53.12 2.64.2 5.28.29 7.92-3.89-.11-7.85-.61-11.7.13-3.38 1.07-4.26 4.94-5.63 7.78-9.71-.29-19.41 0-29.11.03-1.11-5.67-1.96-11.4-2.03-17.19z"/><path d="m235.17 408.43c9.39.19 18.82-.53 28.17.58-.14 5.83-.17 11.67.16 17.5-7.61-.25-15.25-.02-22.81-1.08-2.37-5.48-4.32-11.14-5.52-17z"/><path d="m274.57 431.8c4.42-.23 8.85-.15 13.26.27-.05.73-.14 2.2-.18 2.94-3.04.63-6.26 1.95-9.32.71-1.85-.57-2.62-2.55-3.76-3.92z"/><path d="m378.54 591c2.59 1.9 5.11 3.91 7.49 6.08-2.45.12-4.89.19-7.33.26-.06-2.12-.12-4.23-.16-6.34z"/><path d="m379.49 600.73c4.59.73 9.27.22 13.86.83 4.65 1.62 8.79 4.44 12.91 7.09-5.43 2.53-11.49 1.69-17.27 1.87-3.14.06-6.28.09-9.42.04-.07-3.28-.14-6.56-.08-9.83z"/><path d="m379.53 615.51c11.82-.32 23.64.01 35.46-.34 8.82-.78 16.5 4.51 23.64 8.95-6.86.62-13.76.26-20.63.33-12.71-.09-25.42.13-38.12-.09-.14-2.96-.25-5.91-.35-8.85z"/><path d="m551.42 629.59c6.17-1.74 11.91-4.7 18-6.68 3.46 28.9 8.89 78.87 10.19 72.07 5.01 4.54 9.84 9.42 13.44 15.19 1.69 2.69.1 5.85-1.24 8.32-4.82 9.17-12.24 16.59-19.84 23.49-10.76 9.73-24.57 16.16-39.05 17.53-13.79 2.28-27.84 2.55-41.75 1.64-10.02-1.65-20.13-2.97-29.9-5.8-13.82-3.86-27.19-9.51-39.37-17.12-6.15-3.83-13.16-6.43-18.38-11.61 6.65-.33 5.17-6-1.56-6.01-2.17-.24-4.64.16-6.5-1.2-2.3-1.56-2.78-4.48-3.65-6.91 9.74.31 2.32-4.38-1.99-5.41-3.33-4.29-5.05-9.58-6.97-14.6 6.76-.12 11.39-4.76-3.6-5.06.43-2.67.96-5.3 1.46-7.94 10.79-.45 13.23-5.49.61-5.98-.03-2.04-.04-4.07-.03-6.09 5 .02 6.52-6.92.09-6.91-.01-2.7-.02-5.41-.03-8.1 20.23.16 22.02-5.16-.79-4.86.01-2.36.01-4.71-.01-7.06 20.15.32 32.41-4.63-.12-3.99-.01-2.38-.02-4.76-.03-7.12 26.18.23 52.37.27 78.56.26 3.34.25 6.58 1.21 9.87 1.83 13.85 2.64 28 2.01 42.02 2.32 13.63.32 27.38-.59 40.57-4.2z"/></g><path d="m579.59 641.45c6.02 1.21 12.13 2.55 17.5 5.69 12.37 7.14 22 18.23 29.21 30.42 5.91 9.94 10.78 20.45 15.35 31.06 4.03 8.85 8.44 17.52 12.7 26.25 4.52 8.18 6.84 17.35 11.5 25.45 2.27 3.85 4.1 8.26 7.75 11.05 2.37.89 3.99-1.76 5.75-2.85 4.72 1.54 8.94 4.22 13.44 6.28 4.59 1.8 9.47-.27 13.99-1.32 6.61-1.9 13.42-4.33 18.25-9.47 3.71-3.99 8.75-6.52 12.24-10.71 1.6-4.36-5.36-6.71-3.74-11.21 4.23-6.24 10.34-10.89 16.44-15.19 2.37-1.34 1.47-4.38 1.65-6.57-2.57.05-5.26.21-7.44 1.74-4.8 3.04-9.07 6.87-14.1 9.56-8-9.63-18.62-17.47-30.91-20.49-5.32-1.37-10.82-.52-16.22-.65-1.83-1.68-2.43-4.23-3.42-6.42-3.51-9.42-8.14-18.34-12.38-27.44 3.43-.26 6.94-.75 10.34.04 4.61 1.49 8.14 5.01 11.51 8.32 5.31 5.34 11.26 10.55 13.89 17.83 1.2 3.48 2.64 7.02 5.62 9.38 1.47-2.46 3.53-5.04 2.96-8.1-.74-5.16-3.51-9.7-5.85-14.26 6.11-3.86 12.6-7.32 19.71-8.87 3.99-1.07 8.22.88 10.83 3.89 4.13 4.76 6.47 10.75 10.48 15.6 3.08 3.64 7.37 5.89 10.97 8.95 3.53 2.74 6.62 5.98 9.71 9.21 4.73 4.99 12.69 2.23 18.04 6.09 2.72 2.3 3.81 5.95 4.01 9.41.33 6.59.21 13.2.12 19.8-3.12-1.25-6.13-2.94-9.47-3.45-5.53 1.71-8.98 6.73-13.02 10.54-5.55 5.93-12.54 10.18-18.97 15.06-5.13 3.9-11.08 6.68-17.28 8.39-10.37 2.7-21.16 1.77-31.74 2.16-8.4 0-16.95.21-25.13-1.98-8.12-2.54-16.2-6.1-22.38-12.12-7.8-7.85-16.12-15.3-22.57-24.37-14.01-19.85-23.97-43.19-43.2-58.85-2.46-2.31-6.28-4.42-6.03-8.3.07-13.18-.13-26.37-.11-39.55z" fill="#e6ecee" stroke="#fff"/><path d="m619.94 654.73c8.85 1.01 17.78 1.07 26.63 2.06 2.84.42 3.64 3.67 4.96 5.78 7.4 15.19 14.35 30.64 20.22 46.48-6.08.71-11.77 3.01-17.08 5.97-4.28-7.59-7.5-15.7-11.46-23.46-6.66-12.93-14.03-25.56-23.27-36.83z" fill="#e6ecee" stroke="#e6ecee"/><path d="m590.04 737.02c4.55-4.71 7.74-10.49 10.98-16.12 9.7 13.73 16.78 29.36 28.47 41.63 1.29 1.79 3.63 3.68 2.96 6.15-1.03 3.23-3.18 5.93-5.01 8.73-3.97 5.66-7.42 11.77-12.45 16.58-8.09 7.73-17.88 13.52-28.29 17.54-2.35 1.26-6.07 2.28-6.16 5.49-.11 5.04 1.42 9.93 2.23 14.87 5.07 27.31 3.81 55.17 3.59 82.79-.54 7.69-.88 15.4-1.08 23.11-.66 7.38-.97 14.79-1.04 22.21h-24.73c-.03-23.01.1-46.03-.01-69.04 0-5.77-1.12-11.55-3.81-16.68 6.35-3.56 13.47-6.9 17.16-13.55 6.73-9.94 6.41-23.63.38-33.81-2.26-3.92-6.11-6.47-9.83-8.86 4.29-10.09 5.35-21.75 1.86-32.23-2.38-8.18-7.79-15.06-14.36-20.34 4.25-2.69 8.73-4.98 13.2-7.29 9.96-5.26 18.18-13.14 25.94-21.18z" fill="#f0c978" stroke="#f0c978"/><path d="m590.04 737.02c4.55-4.71 7.74-10.49 10.98-16.12 9.7 13.73 16.78 29.36 28.47 41.63 1.29 1.79 3.63 3.68 2.96 6.15-1.03 3.23-3.18 5.93-5.01 8.73-3.97 5.66-7.42 11.77-12.45 16.58-8.09 7.73-19.251 20.05-29.661 24.07-2.35 1.26-12.009 5.65-12.099 8.86-.11 5.04-6.11-6.47-9.83-8.86 4.29-10.09 5.35-21.75 1.86-32.23-2.38-8.18-7.79-15.06-14.36-20.34 4.25-2.69 8.73-4.98 13.2-7.29 9.96-5.26 18.18-13.14 25.94-21.18z" fill="#e6ecee" stroke="#e6ecee"/><path d="m399.84 736.29c9.21 4.64 17.75 10.49 26.96 15.13 17.87 8.92 37.21 15.37 57.2 17 5.03.21 10 1.06 15.01 1.54-2.21 4.58-5.9 8.41-7.26 13.4-2.28 7.99-2.62 16.4-2.34 24.67-.1 3.08 2.23 5.34 4.04 7.54 2.52 2.88 4.67 6.05 6.68 9.31-2.16 2.14-4.16 4.48-6.64 6.26-2.85-.09-5.55-1.48-8.43-1.46-14.79-.08-29.79-1.88-43.68-7.17-7.4-2.96-14.97-6.43-20.32-12.55 4.29-.53 8.79-1.12 12.27-3.94-6.23-2.09-12.88-2.02-19.36-2.47-2.48-.05-4.32-1.91-6.05-3.44-3.64-3.63-8.17-7.07-8.98-12.49 6.87-1.14 14.23-.29 20.57-3.7-6.08-2.58-12.79-1.15-19.18-1.39-1.28-11.12-.06-22.36-1.32-33.48-.62-4.27.52-8.52.83-12.76z" fill="#e6ecee" stroke="#f0c978"/><path d="m731.09 793.25c20.27-5.83 37.22-19.19 52.42-33.34 6.06 10.62 7.47 22.97 10.71 34.58 3.14 11.25 5.38 22.73 7.89 34.13 5.81 24.87 3.7 50.7 8.14 75.75 1.03 7.06 5.24 12.98 7.89 19.45 4.89 11.58 6.86 24.06 9.86 36.18h-235.19c1.04-5.95.96-12.03 1.5-18.03.21-9.01 1.35-17.96 1.24-26.97.08-25.17 1.24-50.51-2.64-75.48-1.03-6.66-2.69-13.21-3.74-19.86 13.5-4.6 25.89-12.43 35.68-22.8 4.36-4.85 7.48-10.61 11.2-15.93 1.48-1.91 3.23-4.19 5.83-4.42 2.62.98 4.67 2.98 6.9 4.62 3.69 2.94 7.85 5.2 12.1 7.2 12.31 6.31 26.54 7.11 40.12 7.07 10.04-.08 20.26.29 30.09-2.15z" fill="#f0c978" stroke="#f0c978"/><g fill="#bac1c4" stroke="#bac1c4"><path d="m520.78 769.76c6.38-.11 12.69-2.01 19.08-1.3 5.38 1.87 9.23 6.49 12.46 10.97-4.46 1.1-9.89 2.31-13.68-1.08-3.54-2.94-8.05-4.6-12.68-3.92-5.5.12-9.27 4.66-11.81 9.03-3.87.13-7.75.12-11.62.09.77-3.72 1.37-7.91 4.53-10.44 3.63-3.56 9.1-2.73 13.72-3.35z"/><path d="m524.5 781.66c3.67-.74 8.75-.79 10.79 3.02 1.17 2.24 2.32 4.72 2.19 7.32-1.42 6.63-11.13 9.27-15.66 4.15-4.65-3.99-2.29-11.89 2.68-14.49z"/><path d="m543.65 786.99c4.24-.43 8.51-.45 12.78-.41 2.69 8.3 3.38 17.9-.82 25.83-1.55 3.06-2.87 6.26-3.59 9.63 4.63 2.06 10.14 3.22 13.42 7.43 4.08 5.43 4.79 12.69 3.81 19.23-1.84 8.14-8.92 13.69-15.91 17.48-10.96 6.04-24.11 6.59-36.17 4.25-9.3-1.75-17.91-8.51-20.38-17.86-1.69-7.51 2.02-15.2 7.33-20.37 2.02-2.15 5.34-4.45 3.81-7.83-3.07-11.39-7.96-22.62-7.36-34.67 4.15.02 8.29-.04 12.44-.11.54 3.68 1.28 7.63 4.05 10.36 3.81 3.98 9.84 4.07 14.96 3.6 4.65-.98 9.34-4.24 10.46-9.08.62-2.46.88-4.98 1.17-7.48m-15.39 51.94c-2.4 1.09-4.66 3.29-4.73 6.08.76 3.77 4.53 5.73 7.74 7.14 4.4 1.88 10.21-2.22 9.19-7.12-.93-5.29-7.44-8.03-12.2-6.1z"/></g><path d="m357.94 743.58c10.72.04 21.43.08 32.14-.27.96 13.19.37 26.44.66 39.65-5.75.68-11.58-.12-17.29.9 4.16 4.22 10.5 3.23 15.85 3.9-2.51 4.26-6.84 6.84-10.19 10.34-1.62 1.49-3.2 3.39-5.54 3.64-8.61 1.43-17.42.22-26.06 1.33-1.96.07-2.95 1.86-3.95 3.28 5.15.41 10.32.33 15.45.97-15.29 6.42-31.02 12.24-47.44 14.97-5.87.41-11.97 1.02-17.71-.53-6.85-2.83-13.6-6.2-19.17-11.17 13.81-.65 27.54 1.26 41.35 1.15 6.55.69 13.64 1.11 19.35-2.84-9.6-2.5-19.63-.92-29.43-1.69-11.6-1.24-23.28-.81-34.92-.91-7.86-.15-14.35-5.11-21.24-8.25-5.92-3.2-12.64-5-17.9-9.34 8.24-.83 16.56-.28 24.83-.01 10.33 1.39 20.93-.26 31.16 2 4.09 1.82 7.59 4.78 11.8 6.39 7.53 3.04 15.1 6.58 23.3 7.21 5.48.5 10.68-1.52 15.96-2.6 5.98-1.3 11.65-3.73 16.95-6.75 3.4-1.99 7.22-3.3 10.33-5.76 4.21-4.18 2.11-11.45 6.61-15.44.56-.62-11.12-26.71-14.9-30.17zm-173.41 54.97c5.74-4.6 12.9-8.45 20.5-7.07 13.39 1.82 26.06 7.3 37.92 13.59-9.97.69-19.97.17-29.95.32-10.35-.21-20.7.43-31.05.28.42-2.49.37-5.44 2.58-7.12zm6.42-24.07c31.51-.37 63.02-.25 94.53-.15.36 3.4.84 6.79 1.2 10.2-10.39.1-20.79.01-31.15-.85-13.5-.31-27.02-.07-40.53.05-7.3.04-14.75-2.76-21.92-.22-2.46.47-5.58 2.01-7.77.26-.65-3.78.73-9.85 5.64-9.29zm17.99-27.27c6.36-3.45 13.5-6.03 20.76-6.38 11.04 1.88 22.29 4.79 31.48 11.49-10.08.52-20.1-1.16-30.18-.78-8.89-.35-17.71 1.05-26.59 1.01.03.98.09 2.94.12 3.92 11.13.34 22.28-.03 33.41.22 12.11 1.1 24.29.86 36.44 1.01 2.87 3.44 5.69 6.95 8 10.81-19.46.5-38.92-.5-58.38.13-11.37-.41-22.66 1.21-34.03.92 4.32-8.88 10.89-16.69 18.97-22.35zm77.86 10.43c3.11.02 6.22.27 9.29.8-3 1.81-6.4 2.71-9.84 1.69.14-.63.41-1.87.55-2.49zm-27.71-17.01c4.65-.34 9.3-.04 13.92.46 9.67.44 19.36 0 29.03.5 3.55-.26 4.51 3.95 4.74 6.7.66 3.12-2.99 4.49-5.37 5.2-11.54.65-23.04-1.06-34.58-.98-.48-5.09-4.34-8.52-7.74-11.88zm99.04-15.24c9.28.09 18.61-.36 27.87.38 2.99 3.54 3.09 8.48 3.8 12.84-4.74.24-9.48 0-14.18-.6-5.19-.63-10.45-.01-15.63-.66-.37-.32-1.12-.94-1.49-1.25-.42-3.56-.26-7.15-.37-10.71zm-15.74-.72c1.94-.02 3.89-.03 5.84-.02 1.05 4.24 1.99 8.51 2.44 12.86-1.97.03-3.92.12-5.88 0-1.97-3.97-2.13-8.51-2.4-12.84zm-97.56 10.96c2.91-5.46 5.43-12.28 11.32-15.05 7.15 1.83 14.39 3.41 21.81 3.71 18.44.56 36.9.2 55.36.34.67 4.3 1.3 8.61 2.09 12.9-7.94-.02-15.9.02-23.76-1.16-1.63-3.08-3.11-6.38-5.75-8.73-1.54-.12-3.08.01-4.6.1.05 2.85.2 5.71.41 8.57-9.59.4-19.13-.98-28.71-.75-9.39.02-18.78-.02-28.17.07zm110.3-23.03c9-.3 18.01-.53 27.01-.17.75 2.35 1.49 4.7 2.22 7.07-9.06-.07-18.19.57-27.19-.54-1.47-1.75-1.45-4.25-2.04-6.36zm-62.26.04c13.17-.01 26.33-.05 39.5-.02.07 1.94.15 3.89.24 5.84-11.5 1.32-23.1 1-34.64.75-3.53.01-3.81-4.15-5.1-6.57zm47.08.91c1.7-.47 3.41-.95 5.17-1.2 1.47 1.74 1.97 4.03 2.81 6.11-2.05.24-4.53 1.8-6.34.14-.69-1.64-1.13-3.37-1.64-5.05zm-17.04-20.2c5.67.16 11.33-.27 16.99-.59 3.43 4.18 3.98 9.96 4.94 15.13-3.25-.36-6.4-1.25-9.5-2.25-2.15 1.48-4.49 3.04-7.25 2.71-11.04-.2-22.09.16-33.13-.26 5.99-4.28 12.63-7.49 18.9-11.32 2.79-1.62 5.65-3.64 9.05-3.42zm27.17-.73c7.45.09 14.95-.72 22.36.1 3.36 4.26 5.07 9.56 6.7 14.67-8.46.04-16.93-.04-25.39.13-1.22-4.97-2.64-9.89-3.67-14.9zm-22.42-4.2c1.505-.925 3.138-1.542 4.821-1.797 1.684-.255 3.419-.148 5.129.377-2.97 2.01-6.57 1.75-9.95 1.42zm19.53-9.81c6.24-.04 12.49-.06 18.74.1 1.05 2.97 2.28 5.88 3.68 8.71-7.29.51-14.58 1.2-21.89.87-.7-3.19-1.2-6.45-.53-9.68zm4.89-5.1c4.74-8.6 12.37-15.15 20.34-20.68.13 2.9.26 8.71.26 8.71l-.15 6.3s.11 3.74.12 5.63c-6.86.06-13.72.26-20.57.04z" fill="#e6ecee" stroke="#e6ecee"/><path d="m375.75 809.91c5.13-2.67 10.84-.27 16.25-.39 3.9.22 7.73-1.07 11.62-.78 4.42 2.21 7.65 6.16 11.59 9.08 18.16 14.78 42.1 20.24 65.07 20.95 3.14 13.85 3.84 28.09 4.41 42.24 1.63 18.26 2.94 36.57 2.72 54.92.37 8.02-.51 16.15 1.16 24.07h-324.12c.11-1.8.21-3.58.32-5.36 12.4-.12 9.45-5.33.04-5.23-.03-2.99-.03-5.98 0-8.96 21.38-.3 17.15-5.11-.39-5.02.01-4.32.08-8.63.16-12.94 28.46-.67 23.12-5.46.97-5.27-.05-3.28-.04-6.54-.04-9.81 24.83.04 10.69-4.8.84-5.79.29-5.7 1.09-11.36 1.53-17.04 13.32-1.86 12.09-6.06 1.26-6.13.45-2.88.78-5.81 1.75-8.56 2.45-1.34 17.36-7.79 1.04-6.37.41-4.84 1.25-9.62 2.52-14.29 6.53.11 20.95-5.64 1.17-5.6.79-5.14 1.72-10.25 2.83-15.33 9.49-1.18 13.34-5.02.74-4.81.78-4.33 1.61-8.65 2.47-12.97 7.5-.1 15 .06 22.47-.65 9.62-.39 19.25-.06 28.87-.18 7.38.08 14.95-.42 22.15 1.54 6.53 2.6 12.26 6.86 18.77 9.54 7.13 2.92 13.65 7.26 21.06 9.5 10.68 3.05 21.67-.37 32.13-2.71 5.52-1.44 11.25-.95 16.89-.95 16.33.09 22.11-4.49 3.68-5.08 9.15-4.37 18.92-7.23 28.07-11.62z" fill="#f0c978" stroke="#f0c978"/><path d="m153.93 852.04c3.94-6.41 7.55-13.35 13.66-18-1.25 10.01-3.83 19.82-5.44 29.79-2.31.52-4.61 1.04-6.91 1.61.08.91.16 1.84.24 2.77 1.8.38 3.6.78 5.41 1.19-.22 3.09-.15 6.28-1.23 9.23-6.64 1.52-13.61 1.17-20.38 1.93 3.79-10.03 9.35-19.24 14.65-28.52z" fill="#e6ecee" stroke="#e6ecee"/><path d="m317.52 868.62c5.36-.03 10.72-.06 16.08.11-2.53 5.54-4.86 11.16-7.14 16.81-2.6.08-5.2.14-7.79.17-.39-5.7-1.18-11.38-1.15-17.09z" fill="#f0c978" stroke="#f0c978"/><path d="m496.33 867.95c3.13 2.74 6.27 5.58 10.03 7.46 4.94 2.51 10.44 3.57 15.83 4.62 3.39 9.32 1.79 19.32 3.13 28.96.54 16.99.1 34.01.2 51.01h-28.03c.18-6-.21-11.99-.66-17.96-.3-14.01-.32-28.03-.5-42.04-.79-10.66-.98-21.39 0-32.05z" fill="#f0c978" stroke="#f0c978"/><path d="m137.86 883.63c6.73 2.34 13.9 1.43 20.87 1.66-.09 5.41-.87 10.76-1.48 16.13-8.65-.07-17.31-.01-25.97-.02 1.68-6.1 4.06-11.98 6.58-17.77z" fill="#e6ecee" stroke="#e6ecee"/><path d="m534.59 884.42c4.55-.27 9.58.58 12.79 4.12.56 2.98.15 6.04.04 9.06-4.58.08-8.96-1.29-13.1-3.12-.03-3.36.07-6.72.27-10.06z" fill="#bac1c4" stroke="#bac1c4"/><path d="m319.35 890.65c1.14.02 3.42.06 4.56.08-.48 3.93-1.58 7.84-3.98 11.05-.57-3.69-.6-7.41-.58-11.13z" fill="#f0c978" stroke="#f0c978"/><path d="m534.3 901.79c4.95.95 10.48 2.28 13.8 6.39.46 2.38.38 4.82.52 7.25-3.87 1.31-8.51 1.75-11.56-1.52-3.82-2.85-3.56-7.94-2.76-12.12z" fill="#bac1c4" stroke="#bac1c4"/><path d="m129.59 905.29c8.95 1.08 17.95 1.34 26.96 1.34 0 3.28-.05 6.56-.03 9.84-10.07 1.2-20.23 1.14-30.36 1.07 1.08-4.1 2.22-8.19 3.43-12.25z" fill="#e6ecee" stroke="#e6ecee"/><path d="m326.42 916.36c2.77-.07 5.54-.1 8.31-.1-1.32 4.35-2.6 8.72-3.61 13.17-2.33.19-4.67.33-7.01.47.28-4.59 1.19-9.09 2.31-13.54z" fill="#f0c978" stroke="#f0c978"/><path d="m533.41 920.22c5.02.67 10.63 1.14 14.57 4.68 1.1 2.82.56 5.99.73 8.98-5.42.12-11.58-.75-15.06-5.39-.51-2.73-.26-5.52-.24-8.27z" fill="#bac1c4" stroke="#bac1c4"/><path d="m125.15 921.22c10 2.47 20.32.93 30.49 1.18-.05 4.34-.15 8.68-.28 13.03-11.16.29-22.42-.25-33.46 1.56-1.68 2.68 2.12 3.44 4.09 3.49 9.79.35 19.6.02 29.39.14-.01 2.91-.01 5.82-.01 8.74-12.36.03-24.71-.25-37.07-.11 1.54-9.5 4.51-18.71 6.85-28.03z" fill="#e6ecee" stroke="#e6ecee"/><path d="m322.67 935.57c2.03-.17 4.05-.32 6.08-.46-.89 3.88-2.06 7.68-3.24 11.49-1.46.03-2.91.07-4.36.13.2-3.76.77-7.48 1.52-11.16z" fill="#f0c978" stroke="#f0c978"/><path d="m534.54 937.4c4.83.06 10.5.12 14.07 3.9 1.42 2.72.61 6.04.8 9.02-5.41.04-11.96.66-15.91-3.82-.41-3.08.46-6.12 1.04-9.1z" fill="#bac1c4" stroke="#bac1c4"/><path d="m117.64 953.48c12.41 1.44 24.92 1.02 37.38 1.17.27 1.78.55 3.56.92 5.35h-41.75c1.3-2.1 2.36-4.32 3.45-6.52z" fill="#e6ecee" stroke="#e6ecee"/><path d="m535.16 960c3.23-.82 6.42-1.99 9.78-2.1 2.52.2 4.83 1.3 7.21 2.1z" fill="#bac1c4" stroke="#bac1c4"/><g fill="#0d0d0d" stroke="#0d0d0d"><path d="m1055.48 1.74c14.66-1.71 29.27.98 43.72 3.14 15.38 2.57 30.32 7.52 44.21 14.61 16.06 7.55 29.98 19.65 39.47 34.67 10.29 15.32 16.78 32.74 22.75 50.09 4.21 12.3 8 24.77 10.56 37.53 1.09 5.77 3.3 11.28 3.96 17.15 3.42 26.9 6.46 53.92 6.66 81.07.86 22.66.04 45.33-.09 67.99-1.62 38.2-4.91 76.57-13.97 113.81-2.33 9.84-5.62 19.43-7.77 29.33-3.06 12.06-7.11 23.85-11.1 35.63-5.13 12.82-12.02 24.9-19.8 36.28-5.89 8.31-12.57 16.14-20.47 22.6-4.98 4.01-9.4 8.67-14.57 12.44-16.38 12.33-35.94 20.28-56.13 23.59-16.63 1.74-33.84 2.29-50-2.68-17.6-5.26-34.68-12.65-49.94-22.96-9.69-5.64-17.77-13.65-24.46-22.58-9.75-13.14-15.53-28.78-19.36-44.56-3.35-16.11-5.49-32.44-8.34-48.64-2.22-18.35-5.09-36.62-8.07-54.86-1.65-11.6-7.96-22.91-18.27-28.87-3.55-2.2-7.79-2.75-11.5-4.54-1.8-1.74-.64-4.66.67-6.35 6.99-8.45 13.79-17.83 15.78-28.84-.31-21.38-.69-42.83 1.23-64.16 1.91-21.85 4.98-43.59 8.67-65.21.78-5.59.82-11.29 2.32-16.77 3.71-14.36 7.12-28.84 12.11-42.82 10.3-28.65 23.2-56.81 42.5-80.59 5.65-6.96 11.72-13.61 18.25-19.76 3.19-3.13 5.8-6.89 9.57-9.41 6.35-4.39 13.67-7.04 20.62-10.31 9.98-3.16 20.37-5.03 30.79-6.02m-28.42 14.43c-4.6 1.87-9.47 3.35-13.41 6.47-7.63 5.98-14.57 12.77-21.29 19.73-16.68 17.64-29.47 38.64-39.25 60.79-8.73 19.66-16.45 39.93-20.7 61.08-7.36 38.2-13.44 76.81-14.76 115.75.15 11.47-1.03 22.95.07 34.4.73 12.37-7 22.88-13.8 32.45 6.42 2.85 12.55 6.74 16.79 12.46 6.57 7.81 9.21 17.95 11.01 27.78 2.84 15.82 4.84 31.78 7.47 47.63 2.51 16.75 4.59 33.57 7.94 50.18 2.6 12.26 6.93 24.17 12.67 35.32 2.98 6.02 7.64 10.94 12.03 15.95 3.76 4.26 7.92 8.26 12.82 11.22 18.31 10.6 37.65 19.86 58.31 24.8 20.72 4.38 42.62 1.95 62.25-5.84 16.52-6.1 30.94-16.58 44.31-27.83 12.28-11.47 21.6-25.74 29.33-40.57 8.12-14.95 12.91-31.36 17.36-47.69 2.27-9.74 6.1-19.04 7.96-28.88 5.51-23.48 8.86-47.4 11.01-71.4.94-11 2.24-21.96 3.42-32.92.13-10.35 1.63-20.69.6-31.03-.63-8.33-.91-16.68-.81-25.04-.65-22.4-.76-44.86-3.14-67.18-1.15-10.13-1.6-20.37-3.8-30.35-2.96-14.69-5.68-29.48-10.23-43.79-5.43-16.92-11.06-33.91-19.28-49.72-7.58-13.95-17.05-27.52-30.68-36.14-26.46-15.82-57.32-24.82-88.25-23.71-12.14.43-24.7 1.09-35.95 6.08z" transform="translate(-169.845)"/><path d="m300.05 160.36c41.69-2.8 83.48.54 124.89 5.37 9.07 1.43 18.55 1.65 27.05 5.48-2.75 1.5-5.81 2.57-8.99 2.1-14.68-1.34-29.27-3.64-43.97-4.87-9.28-.83-18.56-1.67-27.85-2.32-8.36-.95-16.81-.29-25.18-1.05-18-1.66-36 1.04-54.01.16-3.31-.15-20.701-2.93-23.371-4.87 5.52-2.02 25.681.17 31.431 0z"/><path d="m468.87 242.46c12.71-.14 25.54-.87 38.14 1.28 5.37 1.3 10.54-1.03 15.81-1.62-.3 2.25-.14 5.04-2.38 6.39-5.43 4.21-12.73 3.37-19.07 2.38-18.73-2.93-37.65-.23-56.35 1.48-10.63.43-21.05 3.02-31.7 3.19.05-1.35.02-2.72.28-4.04 1.9-2.75 5.6-3.04 8.6-3.69 15.47-2.44 31.05-4.19 46.67-5.37z"/><path d="m616.01 244.39c7.34-.24 14.72.28 22.04-.69 4.44-.18 9.73-.95 13.24 2.47 1.38 2.3-1.08 4.97-3.31 5.32-5.19.59-10.43-.12-15.62.45-7.71.85-15.47.33-23.19.73-9.15.61-18.18 2.23-27.22 3.69-5.54 1.07-13.26-2.81-12.39-9.25 4.27.35 8.5 1.93 12.82 1.09 11.08-2.16 22.31-3.86 33.63-3.81z"/><path d="m1029.41 249.57c8.47-1.93 18.11-.52 25 5.02 5.18 4.16 7.57 10.71 8.81 17.03 2.38 12.14-3.02 24.2-9.46 34.2-3.51 6.52-8.95 11.69-14.8 16.11-8.32 6.74-19.31 10.3-29.98 9.15-6.36-.67-11.14-5.57-14.44-10.65-4.45-6.92-5.07-15.5-4.51-23.5.59-10.9 6.62-20.45 12.73-29.12 6.13-9.19 15.94-15.69 26.65-18.24m-1.01 11.08c-4.22 1.04-8.41 2.44-12.14 4.7-5.79 3.77-10.06 9.37-13.79 15.09-3.47 5.14-4.2 11.51-4.81 17.53-.63 7.07 1.96 15.18 8.52 18.74 5.71 2.67 12.34 3.99 18.49 2.05 9.95-2.26 17.35-10.07 22.98-18.13 6.34-7.77 9.38-18.24 7.93-28.18-.68-4.71-3.93-8.72-8.15-10.8-5.85-3.15-12.79-2.18-19.03-1z" transform="translate(-169.845)"/><path d="m1114.46 255.47c2.53-2.68 4.93-5.9 8.58-7.08 5.31.19 6.41 8.42 2.84 11.47-7.62 7.07-14.03 15.32-21.63 22.41-2.79 2.62-5.12 5.69-7.18 8.91 5.11 3.48 11.38 4.68 16.43 8.28 5.26 3.65 10.05 7.97 14.55 12.52 3.07 2.96 3.89 7.24 4.2 11.32-2.2.02-4.88.96-6.59-.91-2.97-2.72-5.56-5.86-8.89-8.17-9.51-6.33-19.9-12.88-31.8-12.36-3.63-.12-4.99 4.12-4.87 7.1.22 6.94.52 13.94-.43 20.84-.02 3.43-5.64 4.31-6.7 1.1-1.9-3.99-1.67-8.56-1.79-12.86.1-19.02-.07-38.04.08-57.05.06-4.93 3.05-11.64 8.93-10.86 3.06 12.35.13 25.04 1.43 37.53 2.09-.73 4.08-1.83 5.48-3.59 4.72-5.58 10.11-10.54 14.9-16.05 3.84-4.49 8.71-7.97 12.46-12.55z" transform="translate(-169.845)"/><path d="m602.34 268.16c11.32-1.2 23-1.01 34.02 2.08 6.39 1.68 11.52 6.68 14.09 12.67 2.07 4.42 1.28 9.43 1.15 14.13-.29 9.13-6.3 16.96-13.28 22.33-6.76 5.03-13.9 9.97-22.16 12.12-15.84 3.63-34-.12-45.3-12.36-4.71-4.86-7.07-11.49-8.37-18.01-1.25-8.42 4.03-16.23 10.01-21.62 8.17-7.26 19.26-9.98 29.84-11.34m-1.82 6.89c-6.8 1.1-13.58 2.79-19.82 5.77-6.87 3.46-12.73 10.23-13.1 18.16.58 5.27 1.82 10.93 5.34 15.06 10.62 9.52 25.7 13.09 39.65 11.12 4.65-1.03 8.78-3.51 12.85-5.87 4.63-2.82 9.28-5.79 12.96-9.83 3.93-4.29 5.97-9.91 7.37-15.46 1.5-4.83-1.46-9.74-4.47-13.32-5.79-4.96-13.91-6.02-21.28-5.95-6.5.17-13.04-.64-19.5.32z"/><path d="m491.14 271.66c6.64 1.27 14.25 2.9 18.13 9.03 2.42 5.59.85 11.98-.85 17.56-3 7.69-7.11 15.39-13.78 20.52-13.15 10.71-30.99 14.17-47.58 12.68-11.18-1.71-22.24-5.4-31.62-11.83-4.14-2.79-8.72-5.57-10.91-10.27-2.38-5.16-3.08-10.9-3.77-16.48-.84-7.26 5.24-13.93 12.17-15.2 11.84-2.55 26.01-5.917 35.57-7.41 4.088-.639 13.834-2.162 23.82-1.688 7.589.36 15.836 2.587 18.82 3.088zm-48.67 7.31c-10.95 2.19-21.83 4.78-32.86 6.63-1.62 6.33-.85 12.96 1 19.16 1.41 4.28 5.09 7.29 8.72 9.71 9.77 6.09 21.19 8.77 32.44 10.53 6.57 1.2 13.14-.67 19.5-2.15 9.01-2.6 18.24-6.78 23.84-14.64 5.45-7.08 7.46-16.6 5.97-25.34-18.45-7.95-39.15-5.55-58.61-3.9z"/><path d="m604.32 286.04c4.39-2.26 9.17 3.52 6.56 7.58-1.43 3.91-6.96 3.47-9.3.71-2.61-2.67-.19-7.01 2.74-8.29z"/><path d="m468.31 287.01c4.09-1.46 9.31 2.42 8.11 6.93-.77 5.73-9.72 6.54-11.88 1.31-2.39-3.15.59-7.19 3.77-8.24z"/><path d="m546.9 301.51c2.55-1.04 4.38 1.21 4.47 3.58.56 8.29-.12 16.64.94 24.91.37 18.14 3.6 36.1 8.33 53.59 2.13 7.66 6.61 14.41 8.95 21.98.76 6.71-5.19 11.98-10.75 14.57-.84-1.52-3.35-3.01-2.05-4.95 1.62-3.24 5.85-5.83 4.66-9.93-1.2-4.44-3.57-8.44-5.24-12.7-4.05-9.7-5.58-20.17-7.69-30.4-3.5-17.51-3.31-35.43-3.26-53.2.08-2.55.05-5.3 1.64-7.45z"/><path d="m538.88 408.96c1.81-2.37 4.6-2.89 7.42-2.8.41.82 1.23 2.48 1.64 3.3-1.3.68-2.44 1.87-3.95 2.02-1.82-.58-3.45-1.62-5.11-2.52z"/><path d="m524.13 477.99c8.98-5.34 19.86-4.28 29.87-4.46 3.52.11 7.71-.54 10.45 2.22.63 2.02.76 5.23-1.82 5.89-5.35 1.72-11.04 2.04-16.63 2.04-5.83-.06-11.81-.08-17.38-2-1.91-.63-3.12-2.35-4.49-3.69z"/><path d="m360.305 574.27c5.15-1.54 30.425-.32 35.655 0 13.68.14 27.36.08 41.04.51 7.45.83 15.13.68 22.31 3.12-2.33.9-4.73 1.78-7.26 1.72-11.69.06-23.41.38-35.06-.77-11.65-.48-23.39.25-34.98-1.41-1.54.03-22.245-1.87-21.705-3.17z"/><path d="m454.87 591.38c8.1-.91 16.28-.71 24.42-.58.1.91.22 1.82.33 2.74-4.37 1.53-8.91 2.7-13.57 2.75-16.68.33-33.37.02-50.06.18-3.44.1-42.486-2.14-45.826-2.93 1.89-2.35 40.296-1.59 43.286-1.64 13.79-.78 27.62.04 41.42-.52z"/><path d="m750.32 840.75c.28-3.67 1.55-7.15 3.55-10.21 2.2 2.34 4.68 4.96 4.56 8.44.28 9.85-2.9 19.36-5.43 28.76-3 11.06-7.55 21.93-7.65 33.55 5.05-6.29 8.82-13.48 12.3-20.73 2.45-5.33 4.73-11.29 10.22-14.23 2.94 7.13-.22 14.53-3.43 20.93-4.83 9.59-10.5 18.74-16.68 27.51-2.85 4.13-7.16 7.78-7.53 13.13-1.22 10.65-.49 21.4-.72 32.1h-8.04c-.7-26.49 1.6-53.21 8.32-78.88 3.72-13.39 9.04-26.45 10.53-40.37z"/><path d="m443.29 20.52c7.9-.7 15.79-1.92 23.75-1.58 5.66.25 11.29.92 16.95 1.19 7.33.41 14.77.19 21.95 1.92 11.09 2.82 22.24 5.64 32.75 10.25 13.84 6.08 27 13.76 38.88 23.13 14.6 11.24 28.4 23.6 40.49 37.52 10.23 12.53 19.49 25.92 26.61 40.47 4.77 9.48 9.5 19.06 12.63 29.24 3.67 11.55 7.93 22.92 11.29 34.57 2.48 8.5 3.81 17.29 6.32 25.79 6.82 22.63 7.51 46.52 7.41 69.98-.08 12.67.26 25.34-.4 38-.26 22.65.47 45.34-.96 67.96-.624 16.406-1.14 32.876-2.713 49.23-.824 8.557-1.937 17.083-3.507 25.55-2.03 10.16-5.82 19.86-9.52 29.51-4.86 13.91-12.52 26.59-19.47 39.51-8.24 15.19-17.9 29.66-29.42 42.57-9.46 11.05-21.37 19.59-33.45 27.53-2.14 1.52-4.98 3.1-4.88 6.14-.32 5.22.79 10.4 1.03 15.62 6.81.37 13.77 1.28 19.89 4.51 4.8 2.17 8.98 5.75 14.15 7.02 10.62 1.08 21.33.97 31.96 1.88 3.26.37 7.08.81 9.09 3.78 4.08 5.57 7.05 11.84 10.12 17.98 5.37-1.35 11.17-2.61 16.54-.54 7.93 2.68 12.97 9.76 19.22 14.89 7.29-4.51 14.77-9.27 23.36-10.77 5.71-1.07 12.19-.43 16.68 3.6 6.93 5.39 8.87 14.79 15.62 20.34 4.61 3.78 9.51 7.2 14.28 10.79 2.91 2.11 5.36 5.07 8.94 6.07 4.75 1.49 10.23 2.25 13.61 6.33 5.35 6.11 5.15 14.84 5.46 22.48.12 5.78.22 11.7-1.8 17.21-1.24 2.86-.05 5.86.85 8.62 2.79 8.05 4.29 16.45 6.6 24.64 2.94 10.68 5.28 21.52 7.62 32.35 4.96 20.03 4.4 40.79 6.49 61.19.63 7.8.82 15.75 3.16 23.29 1.47 3.92 4 7.32 5.7 11.14 5.57 12.21 7.75 25.57 10.64 38.58h-9.21c-3-12.12-4.97-24.6-9.86-36.18-2.65-6.47-6.86-12.39-7.89-19.45-4.44-25.05-2.33-50.88-8.14-75.75-2.51-11.4-4.75-22.88-7.89-34.13-3.24-11.61-4.65-23.96-10.71-34.58-15.2 14.15-32.15 27.51-52.42 33.34-9.83 2.44-20.05 2.07-30.09 2.15-13.58.04-27.81-.76-40.12-7.07-4.25-2-8.41-4.26-12.1-7.2-2.23-1.64-4.28-3.64-6.9-4.62-2.6.23-4.35 2.51-5.83 4.42-3.72 5.32-6.84 11.08-11.2 15.93-9.79 10.37-22.18 18.2-35.68 22.8 1.05 6.65 2.71 13.2 3.74 19.86 3.88 24.97 2.72 50.31 2.64 75.48.11 9.01-1.03 17.96-1.24 26.97-.54 6-.46 12.08-1.5 18.03h-8.57c.07-7.42.38-14.83 1.04-22.21.2-7.71.54-15.42 1.08-23.11.22-27.62 1.48-55.48-3.59-82.79-.118-.721-5.961 2.869-7.66 2.15-3.093-1.31-5.468-9.6-5.468-9.6s8.55-3.516 10.504-6.38c.245-.36 4.204-5.27 6.554-6.53 10.41-4.02 20.2-9.81 28.29-17.54 5.03-4.81 8.48-10.92 12.45-16.58 1.83-2.8 3.98-5.5 5.01-8.73.67-2.47-1.67-4.36-2.96-6.15-11.69-12.27-18.77-27.9-28.47-41.63-3.24 5.63-6.43 11.41-10.98 16.12-7.76 8.04-15.98 15.92-25.94 21.18-4.47 2.31-8.95 4.6-13.2 7.29 6.57 5.28 11.98 12.16 14.36 20.34 3.49 10.48 2.43 22.14-1.86 32.23 3.72 2.39 7.57 4.94 9.83 8.86 6.03 10.18 6.35 23.87-.38 33.81-3.69 6.65-10.81 9.99-17.16 13.55 2.69 5.13 3.81 10.91 3.81 16.68.11 23.01-.02 46.03.01 69.04h-7.36c-2.38-.8-4.69-1.9-7.21-2.1-3.36.11-6.55 1.28-9.78 2.1h-9.64c-.1-17 .34-34.02-.2-51.01-1.34-9.64.26-19.64-3.13-28.96-5.39-1.05-10.89-2.11-15.83-4.62-3.76-1.88-6.9-4.72-10.03-7.46-.98 10.66-.79 21.39 0 32.05.18 14.01.2 28.03.5 42.04.45 5.97.84 11.96.66 17.96h-8.92c-1.67-7.92-.79-16.05-1.16-24.07.22-18.35-1.09-36.66-2.72-54.92-.57-14.15-1.27-28.39-4.41-42.24-22.97-.71-46.91-6.17-65.07-20.95-3.94-2.92-7.17-6.87-11.59-9.08-3.89-.29-7.72 1-11.62.78-5.41.12-11.12-2.28-16.25.39-9.15 4.39-18.92 7.25-28.07 11.62 18.43.59 36.95-1.02 55.32 1.08 3.91.38 7.71 1.55 11.18 3.39-7 1.19-14.12.73-21.18.77-16.33-.29-32.67-.07-49-.16-5.64 0-11.37-.49-16.89.95-10.46 2.34-21.45 5.76-32.13 2.71-7.41-2.24-13.93-6.58-21.06-9.5-6.51-2.68-12.24-6.94-18.77-9.54-7.2-1.96-14.77-1.46-22.15-1.54-9.62.12-19.25-.21-28.87.18-7.47.71-14.97.55-22.47.65-.86 4.32-1.69 8.64-2.47 12.97 12.6-.21 25.21-.11 37.8.26 12.65 1.08 25.34.63 38.01.69 8.25.05 16.66-.46 24.69 1.83-7.38 3.5-15.72 3.31-23.69 3.3-16.35-.14-32.72.35-49.03-.93-9.52.16-19.03-1.52-28.52-.34-1.11 5.08-2.04 10.19-2.83 15.33 19.78-.04 39.59.2 59.34-1 16.53.12 33.12-.92 49.61.45.02.57.05 1.72.07 2.29-29.98 4.87-60.44 2.03-90.6 3.99-6.53.08-13.06-.02-19.59-.13-1.27 4.67-2.11 9.45-2.52 14.29 16.32-1.42 32.74-.43 49.06-1.74 18.67-.2 37.35-.24 56.02.01 9.8.85 19.72.44 29.42 2.33-9.49 3.26-19.63 1.81-29.43 3-23.62.7-47.27-.21-70.89.62-9.04.83-18.12.56-27.18.66-2.72.06-5.59.15-8.04 1.49-.97 2.75-1.3 5.68-1.75 8.56 10.83.07 21.66-.04 32.47-.77 14.13-.3 28.27-.04 42.4-.14 6.17-.1 12.29.62 18.41 1.27-.03.78-.05 1.57-.06 2.37-18.01 2.45-36.21 1.1-54.3 1.74-13.36 1.39-26.86-.2-40.18 1.66-.44 5.68-1.24 11.34-1.53 17.04 9.85.99 19.76.62 29.65.68 17.66.01 35.32-.05 52.99-.02 4.78-.03 9.59.31 14.19 1.72-7.31 3.06-15.38 3.15-23.18 3.51-24.83.14-49.66-.06-74.49-.1 0 3.27-.01 6.53.04 9.81 22.15-.19 44.3.24 66.45.36 3.59.03 7.16.42 10.74.66 6.57.46 13.33-.54 19.68 1.68-3.99 1.47-8.23 1.91-12.46 1.84-28.4 2.26-56.92.06-85.38.73-.08 4.31-.15 8.62-.16 12.94 17.54-.09 35.08-.21 52.62-.23 12.62-1.18 25.3-.64 37.96-.73 7.98.08 16.16-.74 23.9 1.73-9.33 4.31-19.81 1.48-29.67 2.63-6.72.95-13.5.95-20.28.88-21.35 1.38-42.76.44-64.14.74-.03 2.98-.03 5.97 0 8.96 9.41-.1 18.82.06 28.23-.11 13.99-.57 27.95-1.9 41.97-2.06 5.17-.12 10.52-.51 15.45 1.44-5.97 2.19-12.34 2.52-18.58 3.35-9.93 1.23-19.94 1.5-29.91 2.28-12.4.55-24.8.21-37.2.33-.11 1.78-.21 3.56-.32 5.36h-8.51c-.37-1.79-.65-3.57-.92-5.35-12.46-.15-24.97.27-37.38-1.17-1.09 2.2-2.15 4.42-3.45 6.52h-6.76c.65-5.58 1.69-11.11 3.07-16.55 4.12-16.84 8.06-33.77 13.76-50.17 7.29-19.84 16.94-38.81 28.56-56.46 2.88-4.46 6.12-8.68 8.65-13.35 6.17-12.68 10.09-26.31 12.93-40.09 2.31-13.12 9.74-24.71 18.38-34.59 7.03-8.18 17.23-12.7 27.42-15.54 5.73-1.68 11.75-1.14 17.58-.4 2-5.59 4.3-11.26 8.45-15.62 4.88-5.29 11.97-8 19.02-8.73 4.89-.61 10.22.12 14.6-2.64 10.15-5.82 20.16-11.91 30.37-17.63 5.98-3.34 11.31-8.03 18.01-9.9 3.37-1.06 6.96-1.43 10.21-2.85 2.96-2.82 4.62-6.69 7.28-9.77 6.18-7.45 13.15-14.33 21.16-19.82 1.71-1.29 3.6-2.45 4.9-4.2.47-2.21.29-4.48.2-6.7-1.02-16.26-2.1-32.55-1.75-48.83-2.65-3.77-6.8-6.13-9.99-9.4-11.34-10.95-20.4-24.06-28.37-37.6-10.42-18.54-17.65-38.64-23.74-58.95-7.13 2.48-14.78 3.2-22.26 2.19-9.99-.72-18.44-7.15-25.09-14.18-6-7-12.7-13.47-17.81-21.19-3.6-5.31-6.11-11.23-9.12-16.86-5.89-11.2-8.05-23.86-9.7-36.27-1.44-13.09-2.74-26.37-.78-39.49 2.11-14.88 6.63-29.98 16.19-41.86 2.52-3.33 6.34-5.39 8.86-8.69.44-5.4-.66-10.8-1.13-16.17-2.11-18.71-2.42-37.7-.04-56.4 1.43-12 6.19-23.21 9.14-34.86 2.95-11.48 6.21-22.93 11.23-33.71 6.11-14.58 13.19-28.81 22.42-41.69 5.11-6.74 8.42-14.64 13.81-21.17 6.15-8.09 12.59-16.02 20.26-22.74 9.15-8.14 19.63-14.55 29.98-21.02 12.29-7.55 24.19-15.94 37.63-21.4 16.45-6.97 33.72-12.44 51.57-14.18zm-43.54 20.66c6.15.41 12.32-.05 18.36-1.24 8.01-1.45 16.09-2.48 24.1-3.95 2.4-.59 4.82-.03 7.09.81-4.94 4.04-11.46 4.45-17.44 5.75 5.67 1.83 11.67 2.31 17.35 4.11 1.68.7 5.01 3.58 1.88 4.57-4.39-1.1-8.52-3.3-13.11-3.46-4.38-.2-8.72-.71-13.04-1.34-12.19-1.96-24.48-.05-36.71.13-4.44.85-8.12 3.78-11.58 6.52 5.98.45 12 .47 17.98 1.13 10.18.3 20.12 3.17 30.34 3.08 9.15-.12 18.26 1.09 27.3 2.42-5.35 2.75-11.52 1.89-17.29 1.58-11.87-1.56-23.9-.11-35.78-1.49-8.65-.81-17.37.15-26-.91-2.89-.28-6.06-.78-8.64.91-5.46 3.22-10.84 6.61-15.83 10.53 7.79.31 15.61-.24 23.37.77 9.95.44 19.92-.09 29.89.23 11.94.35 24.21-.83 35.8 2.76-1.97 1.44-4.19 2.65-6.71 2.37-17.69-.25-35.39.4-53.08-.04-11.7-.16-23.39.37-35.08.31-6.5-.3-11.27 5.11-15.16 9.61 3.37.58 6.78 1.01 10.21.94 25.35.11 50.71.11 76.07.1 6.49.22 13.19.26 19.38 2.51-2.9 1.56-6.1 2.55-9.4 2.52-20.34.21-40.69-.33-61.02.35-14.02 1.42-28.11.41-42.16.64-3.91 4.43-7.61 9.03-10.9 13.93 7.01.84 14.04 1.07 21.06.29 28.33.02 56.66-.32 85-.22 6.41.11 13.05-.67 19.2 1.62-8.02 4.39-17.51 2.05-26.21 2.68-16.96 1.47-34 .31-51 .85-16.83.06-33.71.36-50.48-.72-3.83 3.44-6.07 8.24-8.64 12.61 1.86.26 3.73.55 5.6.74 19.15.93 38.37-.4 57.49 1.11 19.91.33 39.96-1.03 59.73 1.89-10.2 4.77-21.8 2.99-32.69 3.35-14.66-.46-29.36.42-43.99-.91-16.58.26-33.15-.52-49.63-2.25-1.81 2.9-3.57 5.83-5.26 8.81 5.96.35 11.94.49 17.88 1.06 14.63.5 29.28-.05 43.89.73 8.43 1.06 16.98.22 25.39 1.4 8.71 1.13 17.44 2.08 26.06 3.77 8.31 1.67 16.95 1.96 24.98 4.87 1.76.55 2.9 2.06 4.04 3.41-10.13-.82-20.37-.66-30.34-2.87-17.16-3.35-34.62-4.27-52.03-5.07-21.04-.23-42.12.35-63.12-1.11-3.13 5.78-6.07 11.66-8.79 17.65-2.72 6.11-5.79 12.14-7.23 18.72 3.03.36 6.09.62 9.14.3 7.31-.78 14.67-.39 22.01-.46 9.24.09 18.5-.6 27.73.06 11.16 1.22 22.44.08 33.58 1.58 22.97 1.4 45.65 5.56 68.56 7.62 8.86 1.37 18.16 1.46 26.47 5.19-7.58 2.74-15.83 1.43-23.65.74-31.18-3.15-62.18-8.38-93.54-9.46-7.35-.92-14.77-.42-22.15-.62-16.74.1-33.48.18-50.21-.17-1.43 5.32-3.15 10.6-3.68 16.12 3.29-.23 6.56-.68 9.85-.95 11.71-.36 23.44-2.2 35.13-.61 32.03.7 63.97 3.19 95.86 6.25 10.73.13 21.36 1.89 32.09 2.16 5.31.49 11.03 1.17 15.29 4.72-6.1.89-12.19-.33-18.28-.5-21.43.46-42.68-2.82-64.02-4.23-11.66-.91-23.33-1.9-35.04-2.05-19.94-1.4-39.99-2.85-59.96-1.07-4.27.37-8.69-.31-12.87.75-1.84 4.31-2.68 8.96-3.97 13.45 22.26-.47 44.54-.17 66.81-.26 13.39.42 26.82-.31 40.18.99 15.93.29 31.84 1.35 47.72 2.63 11.71 1.9 23.53 3.17 35.15 5.59 3.01.51 5.79 1.88 8.04 3.95-5.33.3-10.41-1.53-15.58-2.47-5.11-1.06-10.33-1.4-15.54-1.47-12.22-.8-24.45-1.65-36.68-2.27-11.4-1.23-22.89-.29-34.3-1.32-7-.47-14.02-.3-21.04-.41-4.66-.06-9.27-.93-13.94-.8-12.35.22-24.75-.69-37.06.68-8.4.81-16.71-1.2-25.11-.83-1.06 5.2-2.11 10.41-2.39 15.72 5.24.06 10.5.15 15.71-.48 9.94-.61 19.92-.1 29.83-1.25 13.67-.09 27.34-.44 41.01-.1 8.88.08 17.8-.24 26.65.68 5.74.48 11.53.07 17.27.67 8.81 1.16 17.74.26 26.56 1.37 7.08.81 14.92-.82 21.33 2.96-10.25 1.31-20.56-.14-30.81-.44-12.61 1.6-25.33.7-38 .63-14.96-1.22-30-.68-44.99-.79-9.61.04-19.23-.26-28.81.66-11.92.51-23.85.17-35.78.16-.12 3.41-.2 6.82-.2 10.24 6.6.24 13.17 1.2 19.79.98 27.66-.38 55.33-.12 82.99-.19 15.81.49 31.67-.54 47.41 1.42.06.87.13 1.74.2 2.61-5.12 1.12-10.32 2.06-15.59 1.96-9.33-.13-18.69.4-27.99-.65-30.34-.45-60.7-.25-91.05-.28-5.54 0-11-1.07-16.53-1.19.05 4.64.14 9.29.51 13.92 7.01.35 14.03.61 21.04 1.06 20.01-.05 40.03.61 60.04-.13 7.95-.8 15.97-.35 23.91-1.3 10.18.06 20.59-.85 30.51 1.96-4.59 2.91-10.26 2.37-15.43 3-8.31 1.06-16.71.56-25.03 1.5-21.31.42-42.64.6-63.96.13-10.15-1.3-20.51.24-30.55-2.08.05 4.03.16 8.06.24 12.1 12.4.14 24.82-.42 37.21.29 23.29 2.26 46.71 2.7 70 5.01 6.24.82 12.91 1.46 18.05 5.48-9.95 1.57-19.96-.6-29.9-1.15-15.43-1.03-30.88-1.75-46.28-3.24-10.34-.93-20.82.75-31.06-1.33-5.67-1.12-11.47-.75-17.22-.97.16 3.51.23 7.03.24 10.55 4.32.44 8.49 1.66 12.55 3.17 4.05 1.55 8.44 1.06 12.68 1.08 10.73-.2 21.33 1.79 32 2.55 9.64 1.07 19.34.56 29.01.74 6.37.03 12.69.88 19.04 1.11 9.95 1.16 20.11 1.23 29.76 4.21-.45.8-.89 1.61-1.33 2.42-8.84.1-17.69.1-26.49-.91-8.29-1.08-16.66-.85-24.96-1.69-13.02-.47-26.05-.12-39.08-.53-4.93-.39-9.88-1-14.84-.66 2.44 2.77 4.73 6.82 8.87 6.96 11.97.86 23.84 2.76 35.83 3.37 7.15.91 14.37.43 21.53 1.04 8.24.96 16.58.3 24.81 1.34 7.09.31 14.17.78 21.17 1.99 7.04 1.29 14.52 1.15 20.95 4.69-7.61.64-15.31.93-22.92.15-12.23-1.42-24.57-1.41-36.79-2.95-10.27-.99-20.63.04-30.87-1.36-10.59-.33-21-2.45-31.54-3.21 2.83 4.35 4.61 9.3 7.51 13.59 13.43.67 26.84 1.86 40.27 2.55 18.57 1.82 37.35 2.08 55.64 6.05 7.3 1.63 15.67-.01 22.11 4.45-7.97 1.02-15.81-1.24-23.73-1.58-11.02-.16-21.94-1.87-32.95-2.27-15.29-1.26-30.61-2.22-45.92-3.28-6.68-.48-13.87-1.91-20.1 1.35-1.98-1.04-3.86-2.46-6.13-2.74-7.87-.52-15.74-1.1-23.64-1.09 3.67 4.2 6.11 9.25 9.42 13.7.71 1.2 2.15 1 3.34 1.09 6.46.08 12.94-.04 19.37.71 22.22 1.18 44.4 3.08 66.62 4.27 6.69-.11 13.34.51 20 .92 16.34-.23 32.67.29 49 .49 3.29.19 6.5 1.03 9.69 1.85-.14.37-.43 1.12-.57 1.49-3.34.48-6.66 1.13-10.04 1.17-21.98-.07-43.98.53-65.96-.14-8.05-.97-16.19-.45-24.24-1.44-6.97-.33-13.91-1.25-20.89-1.39-13.97-1.02-27.95-2.48-41.98-1.94 2.47 6.41 4.96 12.85 6.17 19.65 5.92.71 11.9.38 17.83 1.03 9.99.89 20.06.01 30.04 1.14 6.32.4 12.66.04 19 .29 15.99.41 32.02-.6 47.98.74 11.01.3 22.07-.25 33.02 1.15 4.58.49 9.49.46 13.52 3.03-3.44.91-6.99 1.25-10.53 1.16-10.67-.13-21.33.09-32-.19-8.39-.09-16.81.28-25.17-.69-14.94-.25-29.89.11-44.83-.25-7.71.29-15.35-.9-23.04-.89-8.56.07-17.05-1.23-25.61-1.13.27 5.34.69 10.91-1.7 15.88 5.11.27 10.18 1.07 15.3 1.09 10.39-.06 20.7 1.19 31.08 1.2 9.69 1.21 19.47.46 29.16 1.57 10.21.46 20.44-.01 30.65.54 14.83 1.43 29.77 1.52 44.55 3.53-7.52 2.59-15.61 1.19-23.39 1.44-20.35.08-40.7.03-61.03-.5-7.98-.96-16.05-.56-24.03-1.44-8.66-.6-17.37-.04-26-1.09-10.84-.12-21.61-1.62-32.46-1.28-.2 5.98-.55 12.07 1.1 17.9 5.39-.03 10.78.01 16.17.19-.52-2.81-1.35-5.61-1.23-8.49 1.27-2.4 5.07-2.05 6.5.02 1.84 2.48 2.72 5.49 3.8 8.35 7.7.13 15.42.09 23.12.42 7.83.96 15.75.3 23.6 1.12 6.63.78 13.34.3 19.98 1.09 25.81 2.09 51.6 4.39 77.41 6.66 4.56.48 9.23.68 13.56 2.36-10.77 1.52-21.66.22-32.49.54-20.35-1.29-40.63-3.56-60.98-4.95-13.02-.31-25.97-2.21-39.02-1.98-8.42.08-16.88-.61-25.28.09-2.06 3.22-3 7.49-6.56 9.5-5.51 3.16-12.82 3.21-18.41.21-4.11-2.16-5.11-7.01-7.5-10.6-7.19-1.95-14.77-1.05-22.13-1.41 2.76 6.34 5.87 12.74 10.69 17.81 1.24 1.51 3.4 1.1 5.13 1.25 14.37-.17 28.73.08 43.1.2 12.61 1.36 25.35.06 37.97 1.5 12.99.53 26.02-.05 38.99 1.08 13.99.49 28.03-.16 41.99 1.19 10.41-.03 20.78.56 31.15 1.36-6.59 1.55-13.37 1.87-20.1 2.46-18.99.54-38 .3-57 .03-11.31-1.33-22.75-.24-34.08-1.39-7.32-.47-14.67-.15-21.96-1.04-14.66-.28-29.34-.1-44-.52-5.1-.46-10.25-.88-15.34 0 5.04 6.8 11.03 13.19 18.58 17.23 7.67 4.37 17.05 3.37 25.29 1.42 4-.54 4.16-6.8 8.42-6.44 20.7.19 41.45-.92 62.11.84 6.43.2 12.88.01 19.29.75 17.63.92 35.35-.45 52.95 1.18 4.88.38 10.32-.61 14.48 2.62-17.5 2.4-35.19 1.55-52.79 1.51-10.56-1.23-21.22-.4-31.81-1.28-7.03-.78-14.12-.48-21.18-.71-5.68-.03-11.3-1.03-16.99-.86-7.64-.26-15.22 1.14-22.87.72-.06 6.07 1.54 11.97 4.11 17.43 7.89-.62 15.77-1.46 23.69-1.37 9.16-.78 18.39-1.16 27.54-.16 9.23.55 18.51-.09 27.71.98 8.6.42 17.25-.07 25.82.97 10.01.22 20.03.23 30.04.48 2.99.05 5.86 1.03 8.56 2.28-7.49.99-15.1.19-22.57 1.44-12.06.36-24.18.47-36.21-.64-5.62-.22-11.25-.11-16.87-.3-22.21-1.75-44.51-.35-66.76-.86 1.34 3.98 2.77 7.94 4.22 11.89 8.79-1.47 17.72-.74 26.58-1.09 14.35-.05 28.7-.12 43.04.43 13.28 1.54 26.99-.53 39.97 3.29-1.67.52-3.33 1.11-5.06 1.33-9.72 1.07-19.55 1.57-29.3.52-7.21-.57-14.45-.28-21.67-.57-17.28-1.53-34.65-.16-51.96-1.15 1.13 3.74 2.44 7.42 3.66 11.14 12.13.27 24.3-.44 36.39.92 14.35.22 28.58 2.45 42.94 2.38 17.02 1.76 34.17-.1 51.19 1.23-3.24 4.4-9.01 3.46-13.75 3.9-15.13 1.78-30.32-.12-45.48-.4-23.17-1.97-46.39-3.09-69.56-5.05 2.96 4.62 4.84 9.86 7.98 14.37.58.98 2 .38 2.94.49 10.52-1.27 21.13-.81 31.7-.9 9.33-.15 18.58 1.3 27.9 1.54 12.69 1.64 25.81-.82 38.24 2.88-4.12.97-8.3 1.73-12.54 1.75-10.61.15-21.26.57-31.82-.63-8.21-.54-16.45.27-24.65-.53-9.71-1.16-19.5-.52-29.24-.66 2.15 3.64 4.19 7.39 6.9 10.66 1.62 2.26 4.69 2.03 7.15 2.14 8.41-.01 16.85-.14 25.22.75 7.97.37 15.97-.07 23.91.89 8.07.88 16.51-1.14 24.29 1.84-7.7 3.4-16.32 2.88-24.48 2.03-11.03-.62-22.11.08-33.11-1.09-6.22-.37-12.46-.27-18.69-.39 6.53 7.58 12.77 15.58 20.92 21.53 5.34 3.92 10.01 8.68 15.44 12.49 13.45 8.53 28.29 14.48 42.59 21.38 2.15.99 4.46 1.67 6.86 1.63 8.85.09 17.73-.19 26.56.73 9.41.56 18.97-.35 28.22 1.9-6.42 4.11-14.43 3.39-21.7 3.19-7.73-.81-15.51-.97-23.26-.65 7.41 2.76 15.4 3.16 22.95 5.38 10.16 2.96 20.86 1.96 31.27 3.11 22.55.71 46.69-.59 66.34-12.89 9.03-8.12 20.01-13.75 28.76-22.21 6.76-6.62 13.64-13.17 19.24-20.85 6.41-7.41 11.37-15.88 16.61-24.12 5.48-8.03 9.36-16.97 13.78-25.6 4.83-9.59 8.8-19.59 12.39-29.7 6.1-16.23 9.21-33.51 9.57-50.83.05-6.03 1.78-11.9 1.85-17.92.1-5.33.02-10.67.59-15.98.53-9.67.23-19.37.53-29.05.25-11.98-.59-24.01.69-35.95.13-21.34.35-42.69.22-64.03-.07-8.69-.62-17.39-2.17-25.94-2.29-12.28-4.56-24.56-7.45-36.71-3.02-14.78-7.8-29.12-12.65-43.37-5.38-12.37-9.8-25.15-15.86-37.21-4.56-8.25-10.16-15.86-15.25-23.78-5.87-9.27-14.01-16.74-21.65-24.5-9.92-10.22-21.48-18.63-32.71-27.32-9.45-7.26-20.09-12.69-30.78-17.86-5.91-2.75-12.13-4.75-18.37-6.59-10.57-3.2-21.72-3.07-32.58-4.51-8.96-1.42-18.05-.7-27.08-.73-19.67.26-39.25 4.73-57.23 12.69m-152.89 276.24c9.21.57 18.45.13 27.66.9-3.17-2.67-6.73-4.99-10.72-6.19-6.07-1.48-13.02.19-16.94 5.29m-4.25 6.25c-2.99 3.76-4.53 8.42-5.7 13.02 11.71 1.45 23.56.13 35.29 1.44 7 .29 14.01.37 21.01.24-2.66-5.09-5.81-10.42-10.75-13.54-11.99-2.53-24.31-2.32-36.5-2.21-1.18.09-2.62-.12-3.35 1.05m-8.02 17.68c-1.07 4.71-2.09 9.45-2.46 14.29 4.15-.06 8.31-.08 12.47-.1.68-4.87 2.06-9.66 4.94-13.71-4.98-.25-9.96-.47-14.95-.48m20.29 6.69c-3 1.63-2.22 5.57-2.64 8.4 5.66.01 11.33.29 16.99.08-2.06-3.42-4.03-7.25-7.66-9.25-2.1-1.44-4.68-.18-6.69.77m-23.63 12.44c-.97 7.05-.53 14.16.34 21.19 4.44.58 8.93.71 13.41.64 11.66-.12 23.31.13 34.97.31-.19-7.34-3.9-13.79-7.19-20.12-6.76.15-13.46-.86-20.2-1.07-1.22 1.95-2.47 3.88-3.77 5.78-1.84-1.84-3.16-4.08-4.14-6.47-4.47-.32-8.95-.36-13.42-.26m1.02 25.89c.07 5.79.92 11.52 2.03 17.19 9.7-.03 19.4-.32 29.11-.03 1.37-2.84 2.25-6.71 5.63-7.78 3.85-.74 7.81-.24 11.7-.13-.09-2.64-.17-5.28-.29-7.92-9.17-.22-18.34-.17-27.49-.53-6.87-.82-13.79-.52-20.69-.8m2.9 22.06c1.2 5.86 3.15 11.52 5.52 17 7.56 1.06 15.2.83 22.81 1.08-.33-5.83-.3-11.67-.16-17.5-9.35-1.11-18.78-.39-28.17-.58m39.4 23.37c1.14 1.37 1.91 3.35 3.76 3.92 3.06 1.24 6.28-.08 9.32-.71.04-.74.13-2.21.18-2.94-4.41-.42-8.84-.5-13.26-.27m103.97 159.2c.04 2.11.1 4.22.16 6.34 2.44-.07 4.88-.14 7.33-.26-2.38-2.17-4.9-4.18-7.49-6.08m.95 9.73c-.06 3.27.01 6.55.08 9.83 3.14.05 6.28.02 9.42-.04 5.78-.18 11.84.66 17.27-1.87-4.12-2.65-8.26-5.47-12.91-7.09-4.59-.61-9.27-.1-13.86-.83m.04 14.78c.1 2.94.21 5.89.35 8.85 12.7.22 25.41 0 38.12.09 6.87-.07 13.77.29 20.63-.33-7.14-4.44-14.82-9.73-23.64-8.95-11.82.35-23.64.02-35.46.34m171.89 14.08c-13.19 3.61-26.94 4.52-40.57 4.2-14.02-.31-28.17.32-42.02-2.32-3.29-.62-6.53-1.58-9.87-1.83-26.19.01-52.38-.03-78.56-.26.01 2.36.02 4.74.03 7.12 32.53-.64 65.08-.31 97.62.19 5.53.28 11.11.73 16.43 2.37-2.9 3.37-7.54 2.57-11.49 2.69-13.99-.19-28.02.11-41.97-1.08-20.16-.25-40.32.14-60.47-.18.02 2.35.02 4.7.01 7.06 22.81-.3 45.64-.26 68.45.12 9.63 1.06 19.36.35 29 1.48 8.1.8 16.65-1.35 24.42 1.7-2.74 1.98-5.95 3.26-9.37 2.99-17.01-.14-34.05.31-51.01-1.06-20.23-.17-40.47-.21-60.7-.37.01 2.69.02 5.4.03 8.1 6.43-.01 12.89-.39 19.27.54 7.41 1.05 14.92.1 22.35.9 13.87 1.31 27.91-.4 41.72 1.73-.18.81-.36 1.64-.53 2.47-4 .93-8.06 1.66-12.17 1.6-12.03.01-24.04-.37-36.06-.5-6.55-.37-13.12-1.35-19.67-.5-4.97.76-10 .69-15 .67-.01 2.02 0 4.05.03 6.09 12.62.49 25.79-.64 37.83 3.88-1.86 1.07-3.84 2.14-6.06 2.09-10.79.36-21.59-.44-32.38.01-.5 2.64-1.03 5.27-1.46 7.94 14.99.3 30.19-.03 44.88 3.43.13.43.39 1.29.52 1.71-7.1 1.22-14.37 1.06-21.5.26-6.75-.56-13.54-.46-20.3-.34 1.92 5.02 3.64 10.31 6.97 14.6 4.31 1.03 8.83.18 13.22.64 4.64.48 9.29.76 13.94 1.15 6.85.87 14.05.17 20.49 3.12-5.47.63-10.98.35-16.47.31-9.72-.81-19.45.5-29.19.19.87 2.43 1.35 5.35 3.65 6.91 1.86 1.36 4.33.96 6.5 1.2 6.73.01 13.28 1.89 20.01 1.89 5.6.11 11.2.96 16.53 2.7-4.67 2.2-9.96 2.45-15.02 2.01-6.63-.67-13.31-.92-19.96-.59 5.22 5.18 12.23 7.78 18.38 11.61 12.18 7.61 25.55 13.26 39.37 17.12 9.77 2.83 19.88 4.15 29.9 5.8 13.91.91 27.96.64 41.75-1.64 14.48-1.37 28.29-7.8 39.05-17.53 7.6-6.9 15.02-14.32 19.84-23.49 1.34-2.47 2.93-5.63 1.24-8.32-3.6-5.77-8.43-10.65-13.44-15.19-1.3 6.8-.24 14.34-4.5 20.28-1.89-1.25-4.09-2.61-3.67-5.22-.31-29.04 1.44-58.23-2.02-87.13-6.09 1.98-11.83 4.94-18 6.68m28.17 11.86c-.02 13.18.18 26.37.11 39.55-.25 3.88 3.57 5.99 6.03 8.3 19.23 15.66 29.19 39 43.2 58.85 6.45 9.07 14.77 16.52 22.57 24.37 6.18 6.02 14.26 9.58 22.38 12.12 8.18 2.19 16.73 1.98 25.13 1.98 10.58-.39 21.37.54 31.74-2.16 6.2-1.71 12.15-4.49 17.28-8.39 6.43-4.88 13.42-9.13 18.97-15.06 4.04-3.81 7.49-8.83 13.02-10.54 3.34.51 6.35 2.2 9.47 3.45.09-6.6.21-13.21-.12-19.8-.2-3.46-1.29-7.11-4.01-9.41-5.35-3.86-13.31-1.1-18.04-6.09-3.09-3.23-6.18-6.47-9.71-9.21-3.6-3.06-7.89-5.31-10.97-8.95-4.01-4.85-6.35-10.84-10.48-15.6-2.61-3.01-6.84-4.96-10.83-3.89-7.11 1.55-13.6 5.01-19.71 8.87 2.34 4.56 5.11 9.1 5.85 14.26.57 3.06-1.49 5.64-2.96 8.1-2.98-2.36-4.42-5.9-5.62-9.38-2.63-7.28-8.58-12.49-13.89-17.83-3.37-3.31-6.9-6.83-11.51-8.32-3.4-.79-6.91-.3-10.34-.04 4.24 9.1 8.87 18.02 12.38 27.44.99 2.19 1.59 4.74 3.42 6.42 5.4.13 10.9-.72 16.22.65 12.29 3.02 22.91 10.86 30.91 20.49 5.03-2.69 9.3-6.52 14.1-9.56 2.18-1.53 4.87-1.69 7.44-1.74-.18 2.19.72 5.23-1.65 6.57-6.1 4.3-12.21 8.95-16.44 15.19-1.62 4.5 5.34 6.85 3.74 11.21-3.49 4.19-8.53 6.72-12.24 10.71-4.83 5.14-11.64 7.57-18.25 9.47-4.52 1.05-9.4 3.12-13.99 1.32-4.5-2.06-8.72-4.74-13.44-6.28-1.76 1.09-3.38 3.74-5.75 2.85-3.65-2.79-5.48-7.2-7.75-11.05-4.66-8.1-6.98-17.27-11.5-25.45-4.26-8.73-8.67-17.4-12.7-26.25-4.57-10.61-9.44-21.12-15.35-31.06-7.21-12.19-16.84-23.28-29.21-30.42-5.37-3.14-11.48-4.48-17.5-5.69m-227.51 32.06c6.85.22 13.71.02 20.57-.04-.01-1.89-.12-5.63-.12-5.63l.15-6.3s-.13-5.81-.26-8.71c-7.97 5.53-15.6 12.08-20.34 20.68m267.86-18.78c9.24 11.27 16.61 23.9 23.27 36.83 3.96 7.76 7.18 15.87 11.46 23.46 5.31-2.96 11-5.26 17.08-5.97-5.87-15.84-12.82-31.29-20.22-46.48-1.32-2.11-2.12-5.36-4.96-5.78-8.85-.99-17.78-1.05-26.63-2.06m-272.75 23.88c-.67 3.23-.17 6.49.53 9.68 7.31.33 14.6-.36 21.89-.87-1.4-2.83-2.63-5.74-3.68-8.71-6.25-.16-12.5-.14-18.74-.1m-19.53 9.81c3.38.33 6.98.59 9.95-1.42-3.42-1.05-6.94-.43-9.95 1.42m-4.75 4.93c-3.4-.22-6.26 1.8-9.05 3.42-6.27 3.83-12.91 7.04-18.9 11.32 11.04.42 22.09.06 33.13.26 2.76.33 5.1-1.23 7.25-2.71 3.1 1 6.25 1.89 9.5 2.25-.96-5.17-1.51-10.95-4.94-15.13-5.66.32-11.32.75-16.99.59m27.17-.73c1.03 5.01 2.45 9.93 3.67 14.9 8.46-.17 16.93-.09 25.39-.13-1.63-5.11-3.34-10.41-6.7-14.67-7.41-.82-14.91-.01-22.36-.1m-57.21 20.02c1.29 2.42 1.57 6.58 5.1 6.57 11.54.25 23.14.57 34.64-.75-.09-1.95-.17-3.9-.24-5.84-13.17-.03-26.33.01-39.5.02m47.08.91c.51 1.68.95 3.41 1.64 5.05 1.81 1.66 4.29.1 6.34-.14-.84-2.08-1.34-4.37-2.81-6.11-1.76.25-3.47.73-5.17 1.2m15.18-.95c.59 2.11.57 4.61 2.04 6.36 9 1.11 18.13.47 27.19.54-.73-2.37-1.47-4.72-2.22-7.07-9-.36-18.01-.13-27.01.17m-110.3 23.03c9.39-.09 18.78-.05 28.17-.07 9.58-.23 19.12 1.15 28.71.75-.21-2.86-.36-5.72-.41-8.57 1.52-.09 3.06-.22 4.6-.1 2.64 2.35 4.12 5.65 5.75 8.73 7.86 1.18 15.82 1.14 23.76 1.16-.79-4.29-1.42-8.6-2.09-12.9-18.46-.14-36.92.22-55.36-.34-7.42-.3-14.66-1.88-21.81-3.71-5.89 2.77-8.41 9.59-11.32 15.05m97.56-10.96c.27 4.33.43 8.87 2.4 12.84 1.96.12 3.91.03 5.88 0-.45-4.35-1.39-8.62-2.44-12.86-1.95-.01-3.9 0-5.84.02m15.74.72c.11 3.56-.05 7.15.37 10.71.37.31 1.12.93 1.49 1.25 5.18.65 10.44.03 15.63.66 4.7.6 9.44.84 14.18.6-.71-4.36-.81-9.3-3.8-12.84-9.26-.74-18.59-.29-27.87-.38m41.71 10.9c-.31 4.24-1.45 8.49-.83 12.76 1.26 11.12.04 22.36 1.32 33.48 6.39.24 13.1-1.19 19.18 1.39-6.34 3.41-13.7 2.56-20.57 3.7.81 5.42 5.34 8.86 8.98 12.49 1.73 1.53 3.57 3.39 6.05 3.44 6.48.45 13.13.38 19.36 2.47-3.48 2.82-7.98 3.41-12.27 3.94 5.35 6.12 12.92 9.59 20.32 12.55 13.89 5.29 28.89 7.09 43.68 7.17 2.88-.02 5.58 1.37 8.43 1.46 2.48-1.78 4.48-4.12 6.64-6.26-2.01-3.26-4.16-6.43-6.68-9.31-1.81-2.2-4.14-4.46-4.04-7.54-.28-8.27.06-16.68 2.34-24.67 1.36-4.99 5.05-8.82 7.26-13.4-5.01-.48-9.98-1.33-15.01-1.54-19.99-1.63-39.33-8.08-57.2-17-9.21-4.64-17.75-10.49-26.96-15.13m-190.9 10.92c-8.08 5.66-14.65 13.47-18.97 22.35 11.37.29 22.66-1.33 34.03-.92 19.46-.63 38.92.37 58.38-.13-2.31-3.86-5.13-7.37-8-10.81-12.15-.15-24.33.09-36.44-1.01-11.13-.25-22.28.12-33.41-.22-.03-.98-.09-2.94-.12-3.92 8.88.04 17.7-1.36 26.59-1.01 10.08-.38 20.1 1.3 30.18.78-9.19-6.7-20.44-9.61-31.48-11.49-7.26.35-14.4 2.93-20.76 6.38m50.15-6.58c3.4 3.36 7.26 6.79 7.74 11.88 11.54-.08 23.04 1.63 34.58.98 2.38-.71 6.03-2.08 5.37-5.2-.23-2.75-1.19-6.96-4.74-6.7-9.67-.5-19.36-.06-29.03-.5-4.62-.5-9.27-.8-13.92-.46m98.85 2.95c3.78 3.46 6.87 7.74 11.19 10.55 2.71.55 5.5.47 8.26.61.08.53.24 1.6.32 2.13-2.04.72-4.1 1.41-6.15 2.1.1 3.74.14 7.48-.01 11.23 1 .59 2.01 1.18 3.02 1.78-.59.58-1.17 1.15-1.73 1.77-4.5 3.99-2.4 11.26-6.61 15.44-3.11 2.46-6.93 3.77-10.33 5.76-5.3 3.02-10.97 5.45-16.95 6.75-5.28 1.08-10.48 3.1-15.96 2.6-8.2-.63-15.77-4.17-23.3-7.21-4.21-1.61-7.71-4.57-11.8-6.39-10.23-2.26-20.83-.61-31.16-2-8.27-.27-16.59-.82-24.83.01 5.26 4.34 11.98 6.14 17.9 9.34 6.89 3.14 13.38 8.1 21.24 8.25 11.64.1 23.32-.33 34.92.91 9.8.77 19.83-.81 29.43 1.69-5.71 3.95-12.8 3.53-19.35 2.84-13.81.11-27.54-1.8-41.35-1.15 5.57 4.97 12.32 8.34 19.17 11.17 5.74 1.55 11.84.94 17.71.53 16.42-2.73 32.15-8.55 47.44-14.97-5.13-.64-10.3-.56-15.45-.97 1-1.42 1.99-3.21 3.95-3.28 8.64-1.11 17.45.1 26.06-1.33 2.34-.25 3.92-2.15 5.54-3.64 3.35-3.5 7.68-6.08 10.19-10.34-5.35-.67-11.69.32-15.85-3.9 5.71-1.02 11.54-.22 17.29-.9-.29-13.21.3-26.46-.66-39.65-10.71.35-21.42.31-32.14.27m-71.14 14.06c-.14.62-.41 1.86-.55 2.49 3.44 1.02 6.84.12 9.84-1.69-3.07-.53-6.18-.78-9.29-.8m233.98 12.12c-4.62.62-10.09-.21-13.72 3.35-3.16 2.53-3.76 6.72-4.53 10.44 3.87.03 7.75.04 11.62-.09 2.54-4.37 6.31-8.91 11.81-9.03 4.63-.68 9.14.98 12.68 3.92 3.79 3.39 9.22 2.18 13.68 1.08-3.23-4.48-7.08-9.1-12.46-10.97-6.39-.71-12.7 1.19-19.08 1.3m-329.83 4.72c-4.91-.56-6.29 5.51-5.64 9.29 2.19 1.75 5.31.21 7.77-.26 7.17-2.54 14.62.26 21.92.22 13.51-.12 27.03-.36 40.53-.05 10.36.86 20.76.95 31.15.85-.36-3.41-.84-6.8-1.2-10.2-31.51-.1-63.02-.22-94.53.15m333.55 7.18c-4.97 2.6-7.33 10.5-2.68 14.49 4.53 5.12 14.24 2.48 15.66-4.15.13-2.6-1.02-5.08-2.19-7.32-2.04-3.81-7.12-3.76-10.79-3.02m19.15 5.33c-.29 2.5-.55 5.02-1.17 7.48-1.12 4.84-5.81 8.1-10.46 9.08-5.12.47-11.15.38-14.96-3.6-2.77-2.73-3.51-6.68-4.05-10.36-4.15.07-8.29.13-12.44.11-.6 12.05 4.29 23.28 7.36 34.67 1.53 3.38-1.79 5.68-3.81 7.83-5.31 5.17-9.02 12.86-7.33 20.37 2.47 9.35 11.08 16.11 20.38 17.86 12.06 2.34 25.21 1.79 36.17-4.25 6.99-3.79 14.07-9.34 15.91-17.48.98-6.54.27-13.8-3.81-19.23-3.28-4.21-8.79-5.37-13.42-7.43.72-3.37 2.04-6.57 3.59-9.63 4.2-7.93 3.51-17.53.82-25.83-4.27-.04-8.54-.02-12.78.41m-359.12 11.56c-2.21 1.68-2.16 4.63-2.58 7.12 10.35.15 20.7-.49 31.05-.28 9.98-.15 19.98.37 29.95-.32-11.86-6.29-24.53-11.77-37.92-13.59-7.6-1.38-14.76 2.47-20.5 7.07m-30.6 53.49c-5.3 9.28-10.86 18.49-14.65 28.52 6.77-.76 13.74-.41 20.38-1.93 1.08-2.95 1.01-6.14 1.23-9.23-1.81-.41-3.61-.81-5.41-1.19-.08-.93-.16-1.86-.24-2.77 2.3-.57 4.6-1.09 6.91-1.61 1.61-9.97 4.19-19.78 5.44-29.79-6.11 4.65-9.72 11.59-13.66 18m-16.07 31.59c-2.52 5.79-4.9 11.67-6.58 17.77 8.66.01 17.32-.05 25.97.02.61-5.37 1.39-10.72 1.48-16.13-6.97-.23-14.14.68-20.87-1.66m396.73.79c-.2 3.34-.3 6.7-.27 10.06 4.14 1.83 8.52 3.2 13.1 3.12.11-3.02.52-6.08-.04-9.06-3.21-3.54-8.24-4.39-12.79-4.12m-.29 17.37c-.8 4.18-1.06 9.27 2.76 12.12 3.05 3.27 7.69 2.83 11.56 1.52-.14-2.43-.06-4.87-.52-7.25-3.32-4.11-8.85-5.44-13.8-6.39m-404.71 3.5c-1.21 4.06-2.35 8.15-3.43 12.25 10.13.07 20.29.13 30.36-1.07-.02-3.28.03-6.56.03-9.84-9.01 0-18.01-.26-26.96-1.34m403.82 14.93c-.02 2.75-.27 5.54.24 8.27 3.48 4.64 9.64 5.51 15.06 5.39-.17-2.99.37-6.16-.73-8.98-3.94-3.54-9.55-4.01-14.57-4.68m-408.26 1c-2.34 9.32-5.31 18.53-6.85 28.03 12.36-.14 24.71.14 37.07.11 0-2.92 0-5.83.01-8.74-9.79-.12-19.6.21-29.39-.14-1.97-.05-5.77-.81-4.09-3.49 11.04-1.81 22.3-1.27 33.46-1.56.13-4.35.23-8.69.28-13.03-10.17-.25-20.49 1.29-30.49-1.18m409.39 16.18c-.58 2.98-1.45 6.02-1.04 9.1 3.95 4.48 10.5 3.86 15.91 3.82-.19-2.98.62-6.3-.8-9.02-3.57-3.78-9.24-3.84-14.07-3.9zm-217.02-68.78c-.03 5.71.76 11.39 1.15 17.09 2.59-.03 5.19-.09 7.79-.17 2.28-5.65 4.61-11.27 7.14-16.81-5.36-.17-10.72-.14-16.08-.11m1.83 22.03c-.02 3.72.01 7.44.58 11.13 2.4-3.21 3.5-7.12 3.98-11.05-1.14-.02-3.42-.06-4.56-.08m7.07 25.71c-1.12 4.45-2.03 8.95-2.31 13.54 2.34-.14 4.68-.28 7.01-.47 1.01-4.45 2.29-8.82 3.61-13.17-2.77 0-5.54.03-8.31.1m-3.75 19.21c-.75 3.68-1.32 7.4-1.52 11.16 1.45-.06 2.9-.1 4.36-.13 1.18-3.81 2.35-7.61 3.24-11.49-2.03.14-4.05.29-6.08.46zm-23.11-93.02c2.93-1.25 5.92-1.59 8.66-3.12 3.62.85 6.85 3.2 10.68 3.12 10.11-.03 20.21-.35 30.3-.93 17.6-.15 35.2-.04 52.8-.06 10.18.2 20.48.32 30.45 2.57-2.82.92-5.69 1.73-8.64 2.07-9.24.93-18.53 1.36-27.81 1.19-26.96-.33-53.91-.02-80.87.08.51 5.45 1.38 10.85 2.42 16.23 5.8.03 11.61-.1 17.42-.29 1.97-4.75 4.63-9.4 9.23-12.06 2.7 3.64 2.08 8.01 1.07 12.1 21.58-.26 43.16.35 64.74.11 3.29-.05 6.56.4 9.8 1.02-6.07 2.62-12.76 1.97-19.16 2.7-4.88.47-9.72 1.32-14.63 1.33-14.69.09-29.38-.17-44.07.11-1.88 5.28-3.89 10.51-5.77 15.79 15.31.07 30.51-2.26 45.82-2.06 7.71-.02 15.65-1 23.08 1.64-5.09 2.08-10.62 2.51-16.06 2.34-9.07-.29-17.98 1.9-27.03 2.03-7.35.09-14.64 1-21.98 1.08-2.32.27-5.69-.14-6.6 2.63-2.75 6.22-4.14 12.95-5.36 19.62 2.46-.34 5.03-.39 7.36-1.33 2.23-2.63 3.19-6.12 5.56-8.64 1.72-2 5.34-1.53 6.64.67.98 2.5.82 5.26 1.04 7.91 13.14.18 26.22-1.3 39.35-1.03 8.57.08 17.13-.42 25.7-.03-4.18 2.33-8.89 3.59-13.68 3.38-9.4-.27-18.65 1.87-28.03 1.84-8.75.08-17.49.05-26.23.24-1.97 4.67-3.7 9.47-4.78 14.44 18.35.03 36.71-.16 55.06.4 6.11.34 12.28.71 18.21 2.33-13.14 3.17-26.85 2.78-40.24 1.79-9.02-.2-18.04.05-27.06-.12-2.79.08-5.78-.26-8.34 1.04-2.95 3.28-4.06 7.73-5.67 11.75 8.04.05 16.11-.16 24.12.65 12.65.59 25.34.04 37.99.79 5.77.5 11.65.29 17.27 1.96-14.96 4.91-30.92 2.15-46.31 1.92-10.38.04-20.75-.36-31.12-.24-3.28-.15-6.09 1.69-8.79 3.29-1.96-1.29-3.89-2.59-5.84-3.87-.62 3.01-1.21 6.04-1.81 9.07h-9.86c-.11-2.49-.36-7.45-.36-7.45l.09-5.79s1.25-19.16 1.4-28.76c-.03-10.67.19-21.35-.4-32.01-.537-6.225-.219-11.03-.73-17.26-.025-.304-18.537-1.528-22.418-2.174-5.624-.937 2.72-1.456 2.621-2.856-.123-1.741 18.878.256 18.824-.29-.47-4.76-1.114-9.498-2.127-14.19-3.94.01-34.991-1.71-38.931-1.75-.47-.75 9.47-4.18 9-4.92 2.87-.51 24.001 0 24.001 0z"/><path d="m528.26 838.93c4.76-1.93 11.27.81 12.2 6.1 1.02 4.9-4.79 9-9.19 7.12-3.21-1.41-6.98-3.37-7.74-7.14.07-2.79 2.33-4.99 4.73-6.08z"/></g></g></svg>