<svg fill-rule="evenodd" height="159" viewBox="0 0 42.333 44.873" width="150" xmlns="http://www.w3.org/2000/svg"><path d="m8.534 5.453c-.355.685-.736 1.371-1.066 2.082l.025.432a46.295 46.295 0 0 1 1.6-2.59l.534-.077a43.43 43.43 0 0 0 -1.321 2.134c.203-.153.406-.28.584-.407.432-.61.864-1.219 1.295-1.778l.61-.076a30.494 30.494 0 0 0 -1.829 2.439l-.05.355 2.514-2.895.05.558a7.64 7.64 0 0 1 1.957-2.006l.025.559c.356-.508.61-.966.99-1.321l-.203-.686a1.145 1.145 0 0 1 -.508-.94c0-.635.483-1.143 1.118-1.143.61 0 1.118.508 1.118 1.143v.076c1.98.432 3.911.61 5.69.204 1.879-.432 4.089-.432 6.908 1.473 1.372.914 2.718 1.676 4.242 2.133 2.21.66 3.81 2.286 5.029 4.598.94 1.803 1.473 3.683 1.778 5.664l.483.178c.05.965.05 1.88.025 2.82l.254-.585c.05-.686.05-1.397.05-2.108l.483.178c0 .787-.025 1.549-.101 2.336l.203.33c.102-.838.178-1.701.229-2.565l.457.178a40.598 40.598 0 0 1 -.33 3.073c.076.178.101.33.127.483.254-1.118.431-2.26.584-3.43l.482.179a46.422 46.422 0 0 1 -.71 3.657c-.077.534-.153 1.093-.255 1.651l.33-.127c-.101.839-.38 1.778-.736 2.617l.432-.153c-.204.89-.483 1.677-1.016 2.388l.406-.076c-.229.787-.635 2.565-1.676 3.302-.229.94-.762 1.397-1.423 1.778a30.122 30.122 0 0 0 -.33 2.184l-.533-.152c-.127.584-.153 1.244-.153 1.854-.33-.102-.635-.229-.94-.33a12.516 12.516 0 0 0 -.177 1.676l-.204-.076c-.558.61-1.371 1.27-2.21 1.575a3.094 3.094 0 0 1 -.71.812c.203.077.355.28.253.534l-1.752 4.877c-.1.266-.255.413-.471.431h-.1a.98.98 0 0 1 -.293-.076l-4.14-1.65a1.78 1.78 0 0 1 -.483.66c-.355.254-.812.355-1.219.228-.305-.076-.457-.228-.66-.406l-.508-.457a3.676 3.676 0 0 1 -3.43-.458c-.202.432-.533.737-.99.839a1.426 1.426 0 0 1 -1.32-.432l-3.836 1.524c-.432.178-.61.025-.762-.254l-2.337-4.166c-.203-.33-.101-.584.076-.711l.305-.229c-.686-.177-1.55-.736-2.235-1.016l.381-.203c-.813-.203-1.829-.99-2.388-1.422l.407-.127c-.381-.178-.99-.813-1.448-1.321a19.986 19.986 0 0 1 -2.921-2.616l.102-.584c.838.94 1.701 1.854 2.667 2.641l.558-.025c-.127-.153-.228-.254-.304-.407-.94-.787-1.982-1.778-2.794-2.768l.101-.584c.686.838 1.524 1.701 2.286 2.438-.101-.28-.28-.711-.33-.94a23.965 23.965 0 0 1 -1.829-2.057l.127-.61a22.17 22.17 0 0 0 1.702 2.058c.406.279.737.33 1.194.355-.99-.66-1.981-1.752-2.794-2.794l.584-.076c-.762-.66-1.32-1.575-1.651-2.108l.483-.026c-.737-.736-1.524-2.159-1.728-2.463l.458-.051c-.305-.635-.305-1.499-.381-2.235a40.323 40.323 0 0 1 -1.245-6.274l.457-.28c.254 2.286.635 4.496 1.245 6.706l.33.127c-.533-2.362-1.016-4.7-1.143-7.087l.483-.304c.025.635.05 1.295.101 1.93l.33-.05c-.025-.712-.025-1.449-.025-2.16l.508-.305a36.624 36.624 0 0 0 0 2.363l.28-.051c.025-.864.05-1.727.126-2.591l.534-.33a36.379 36.379 0 0 0 -.178 2.845l.178-.026.025-.228.356-2.845.457.228.025.026c-.38-1.22.204-2.49.737-3.683l.127.33c.102-.686.432-1.372.838-2.083l.127.305c.33-.635.838-1.067 1.22-1.626l.888-1.778z" fill="#a80"/><path d="m32.665 5.605c3.429.99 4.826 4.8 5.562 7.925-.787 2.743-2.667 5.766-4.495 8.458-.686-6.223-5.944-11.074-12.345-11.074a12.8 12.8 0 0 0 -3.556.508l-2.82-9.297.966-.305c1.93.407 3.886.61 5.817.178 2.336-.533 4.546.076 6.502 1.397 1.397.94 2.87 1.753 4.369 2.21z" fill="#a00"/><path d="m34.163 23.334c0 7.036-5.715 12.751-12.776 12.751-7.036 0-12.751-5.715-12.751-12.75 0-7.062 5.715-12.777 12.75-12.777 7.062 0 12.777 5.715 12.777 12.776z" fill="#fff"/><path d="m34.163 23.334c0 7.036-5.715 12.751-12.776 12.751-7.036 0-12.751-5.715-12.751-12.75 0-7.062 5.715-12.777 12.75-12.777 7.062 0 12.777 5.715 12.777 12.776z" fill="#fd5"/><path d="m33.808 23.334c0 6.833-5.563 12.395-12.42 12.395s-12.397-5.562-12.397-12.395c0-6.858 5.537-12.42 12.395-12.42s12.42 5.562 12.42 12.42z" fill="#a00"/><path d="m32.766 23.334c0 6.274-5.106 11.354-11.38 11.354s-11.353-5.08-11.353-11.354 5.08-11.379 11.354-11.379 11.379 5.105 11.379 11.38z" fill="#fff"/><path d="m32.766 23.334c0 6.274-5.106 11.354-11.38 11.354s-11.353-5.08-11.353-11.354 5.08-11.379 11.354-11.379 11.379 5.105 11.379 11.38z" fill="#fd5"/><path d="m32.41 23.334c0 6.07-4.927 10.998-11.023 10.998-6.07 0-10.998-4.927-10.998-10.998 0-6.096 4.928-11.023 10.998-11.023a11.014 11.014 0 0 1 11.024 11.023z" fill="#4c4c4c"/><path d="m17.767 27.237c-.077-.051-.31-.257-.438-.257a10.183 10.183 0 0 0 -1.984-.026c-.026-.593-.103-.953-.026-1.546.052-.257.258-.515.413-.721.128-.155.36-.361.412-.541.077-.361-.464-.747-.593-1.057l-.025-.077.025-.103c.078-.257.412-.644.258-.876l-.49-.515c-.515-.593 1.598-2.138 1.366-2.344-.206-.18-.412-.335-.593-.541-.051-.052-.077-.155-.077-.232.129-.361.438-.464.541-.541.077-.103 0-.258.077-.541.155-.722.49-1.443.98-2.061.566-.747 1.39-1.391 2.215-1.7 1.623-.593 3.503-.439 5.023.283.98.438 2.345 1.108 3.04 3.143 0 .232.232.747.413 1.16.103.257.206.489.232.617 0 .052.025.13.077.232.129.438.36 1.185.129 1.907a6.821 6.821 0 0 1 -.13.438c-.231.721-.463 1.442-.772 1.855-.155.257-.36.515-.515.772-.18.258-.438.567-.516.722-.103.18-.257.515-.128.592.644.412 1.159.773 1.855 1.082l2.705 1.211c-.121.43-.23.868-.339 1.307-1.915 3.259-5.458 5.46-9.492 5.453-3.655-.005-6.927-1.82-8.939-4.595z" fill="#ccc"/><g fill="#1a1a1a"><path d="m21.925 13.026a7.08 7.08 0 0 0 -.45.018 6.521 6.521 0 0 0 -1.702.388 5.1 5.1 0 0 0 -2.24 1.693 5.066 5.066 0 0 0 -1.005 2.09c-.078.284.006.435-.097.539-.078.077-.418.186-.52.546-.027.078 0 .179.052.256.18.206.412.358.618.538.231.206-1.935 1.78-1.394 2.373l.494.511c.155.232-.153.65-.256.908l-.026.071.026.106c.129.309.694.698.591 1.058-.026.206-.26.41-.388.565-.18.206-.39.465-.44.723v.026c-.078.567 0 .951 0 1.544.695-.052 1.367-.051 2.036.026.13 0 .39.204.468.256l-5.221 2.47c.073.1.144.201.22.3l5.592-2.717c-.232-.412-.386-.591-.953-.591-.36 0-1.184 0-1.596.026-.026-.335-.079-1.029-.053-1.26.051-.516.46-.519.538-.75.077-.13.211-.258.185-.31-.077-.283.05-.57-.026-.802-.155-.36-.565-.464-.565-.67.026-.232.25-.482.353-.688.052-.077.206-.265.309-.29.103-.052-.18.03-.309-.098-.979-.67-.695-.65.362-1.887.257-.232.647-.695.776-.953.026-.051-.132-.098-.106-.15.335-.798.128-.697-.027-.388-.051.103-.335.106-.335.106l-.335-.256c-.154-.103.005-.284.185-.361.052-.026.152-.102.203-.283.206-.901.676-2.042.882-2.222v-.027c.026-.051.072-.125.124-.202.051-.078.125-.153.203-.256.463-.515 1.005-.933 1.649-1.19a4.954 4.954 0 0 1 1.728-.38c1.185-.077 2.423.23 3.608.873.618.335 1.31 1.002 1.516 1.208.18.18.83 1.035.856 1.447.052.567.279.772.485 1.287.129.258.232.537.335.82a2.995 2.995 0 0 1 0 2.117c-.232.696-.535 1.364-.767 1.879-.18.335-.57.873-.803 1.208-.18.258-.407.314-.485.494-.206.387-.213.516.07.67l.16.053 1.931 1.103c.129.077.286.08.44.105l2.056.927c-.11.393-.369 1.337-.653 2.284.372-.498.703-1.031.988-1.588.06-.234.12-.467.185-.696l-2.76-1.235c-.696-.31-1.235-.7-1.879-1.111-.129-.078.03-.411.132-.591.078-.155.332-.492.512-.75.155-.232.358-.51.538-.767.31-.413.544-1.157.776-1.879.052-.154.107-.338.159-.44.232-.722-.03-1.494-.159-1.932-.051-.103-.053-.178-.08-.23-.025-.128-.126-.369-.229-.652-.18-.412-.414-.924-.414-1.156-.721-2.06-2.108-2.729-3.087-3.192a7.1 7.1 0 0 0 -2.98-.662z"/><path d="m18.203 27.425c-.111.665-.515 3.158-.359 3.47.077.155.052.284.284.361.257.077.463.103.772.129.284.026.438-.026.438.129 0 .154-.36.49-.618.798-.258.335-.438.593-.464.747-.052.343.122.65.384.913a10.95 10.95 0 0 1 -.6-.176c-.13-.252-.188-.519-.118-.762.128-.413.566-.67.566-1.16 0-.077-.36-.128-.592-.232-.206-.077-.31-.231-.387-.309-.339-.361.194-2.624.4-3.662.002-.067-.011-.125-.065-.125-.129 0-.464.18-.464.18l-.103-.154s.18-.077.284-.206c.129-.103.309-.232.077-.31-.232-.076-.18-.411.129-.308.335.103.721.283.721.283s.103.103.36.103.697.232.697.232l.309.18 1.648.799s1.211.026 1.52 0c.31 0 .67-.438 1.392-1.134.747-.695 2.215-2.782 2.215-2.782l-.051.902c0 .013-.105.133-.276.32.02.765-.204 3.35-.317 4.162-.147 1.338-.428 2.851-.615 3.781-.199.078-.401.15-.606.215a1.717 1.717 0 0 0 -.067-.337 16.132 16.132 0 0 0 -1.056-1.509c-.21-.26-.046-.04-.13-.166-.154-.155-.798.026-.952.129-.155.103-.258.36-.284.618-.018.188-.065.526-.088.695.138.241.439.648.703.994-.11.015-.22.029-.33.04l-1.006-1.677c-.216-.36-1.527-3.178-2.413-4.999a1.696 1.696 0 0 0 -.19-.18l-.36-.103c-.025 0-.103-.051-.335.078a.304.304 0 0 0 -.053.033zm1.378.293a.154.154 0 0 0 -.074.012c.155.317.721 1.475.965 2.006l.415.87.821-1.514 1.623-.077c.439-.026 1.314 1.185 1.546 1.442.284.284.541.645.541.645s.052.18.13-.207c.29-1.45.489-4.603.512-4.985-.926.984-2.787 2.873-2.96 2.873l-1.7.026zm2.368 5.063a121.44 121.44 0 0 1 -1.054-2.159l1.329 1.252s-.18.13-.206.36c-.034.17-.057.405-.069.547zm3.107.483c-.926-1.132-1.132-1.493-1.08-1.93.051-.542.309-1.057.309-1.057.412.386.979.953.979 1.572 0 .217-.136.774-.153.97-.013.148-.036.297-.055.445zm-1.492-1.982c.054-.287.151-.586.206-.722.103-.283.18-.72.154-.824-.026-.103-.54-.412-.799-.412-.257 0-1.159-.052-1.288.154-.129.18-.566.748-.412 1.057.155.309 1.03 1.133 1.03 1.133s.207-.103.645-.18c.206-.052.36-.052.438-.052zm4.018-5.23c.49.747.902 1.597 1.03 2.525.078.438.207.953-.128 1.288-.36.335-.438.335-.824.54-.387.233-.567.233-.567.233l1.443.773c.045.015-.027.192-.13.4.199-.165.392-.337.579-.515l-1.068-.607s.31-.232.593-.463c.283-.258.386-.49.463-.696.13-.232.258-1.056-.231-2.138-.078-.206-.335-.67-.413-.825-.103-.154-.747-.515-.747-.515z"/><path d="m23.512 23.58 1.133-.052c.026.051-.103.18-.18.18-.412.026-1.468.129-1.185 0zm-.335.386 1.16-.078c0 .078-.13.206-.181.206-.412.026-1.494.13-1.21 0zm-.335.412 1.134-.077c0 .051-.103.18-.18.18-.413.026-1.495.129-1.186 0zm-.36.386 1.133-.077c0 .077-.103.18-.18.18-.413.026-1.495.155-1.185 0zm-.542.438 1.134-.051c0 .051-.103.18-.18.18-.413.026-1.469.129-1.186 0zm2.19-2.68s-.077-.102-.051-.231c.051-.103.103-.154.206-.283.077-.13.257-.258.309-.335.077-.103.103-.258.103-.387s.051-.283.077-.36c.026-.103.129-.387.284-.516.128-.128.49-.257.67-.154.154.103.257.309.257.438v.36c0 .078 0 .207-.077.361-.078.155-.18.412-.258.49-.077.077-.309.309-.438.36-.103.052-.283.206-.335.232-.077.026-.103-.077.026-.206.103-.129.31-.258.438-.36.129-.078.31-.258.335-.361.026-.078 0-.078 0-.155.026-.077.129-.026.129-.129s-.026-.36-.026-.438c-.026-.103-.026-.18-.077-.257-.078-.052-.078-.103-.206-.103-.155 0-.232-.052-.258.051s.052.103-.026.18c-.051.052-.129.052-.129.155s.103.026.13.129c.025.103.154.103.128.258-.026.128.026.231-.077.386-.129.155-.258.283-.258.283s-.129.078-.18-.025c-.052-.13-.155 0-.18.077-.052.103-.18.129-.284.206-.077.077-.103.103-.129.18a.488.488 0 0 1 -.103.155zm.36-1.648s-.128-.077-.128-.206.077-.18.077-.258c0-.077-.077-.128-.18-.103-.103.026-.206.026-.31-.103-.102-.103-.18-.051-.257-.154s-.232-.206-.232-.206-.129-.18-.129-.258c0-.077-.025-.18-.025-.18s.051.077.154.128c.103.026.18.052.284.078.103.026.257.103.283.026 0-.078-.154-.13-.206-.232-.077-.078-.206-.155-.31-.232-.128-.077-.18-.103-.231-.206-.052-.078-.103-.206-.103-.206l-.155-.13-.077-.205-.129-.155-.025-.206s-.18.026-.18-.103a.84.84 0 0 1 .102-.335c.078-.103.206-.258.232-.18.026.077.155.103.155.206 0 .077.077.232 0 .257-.052 0-.078-.128-.155-.128a.176.176 0 0 0 -.103.103l.103.36s.155.206.258.206a2.082 2.082 0 0 0 .515.077c.103.052.283.052.36.078.078 0 .258.129.258.129s.052.129-.051.154c-.129 0-.155.104-.232.104s-.103-.052-.206-.052-.206-.026-.18.052c.051.103.283.154.283.257s.18.155.18.155l.155.154s.051.026.129.026.231-.077.231-.077-.103.129-.103.206c0 .103.103.18.155.129.077-.078 0-.13.077-.18.103-.026.232-.026.232-.104 0-.051.026-.103-.155-.103s-.283-.103-.283-.103-.051-.077.103-.077h.515s-.025-.103-.128-.103h-.361c-.103 0-.206.026-.283 0-.078-.052-.18-.129-.078-.155.13-.025.31-.103.438-.103.155 0 .361-.026.412-.026h.67s.18.052.18-.051-.18-.155 0-.155h.31c.154 0 .257-.025.386 0 .103 0 .052-.18.284.052.206.206.36.309.386.36 0 .078.103.207.103.207s-.129-.078-.258-.103c-.128 0-.18-.052-.257-.13-.052-.076-.155-.128-.284-.18-.154-.051-.232-.077-.309-.051s-.077.129-.077.129.103-.026.232 0l.257.103s-.077.026-.128.103c-.052.103-.052.206.128.154.155-.051.258-.077.284 0 0 .078 0 .258.154.258h.258c.077 0 .232-.026.258.103.025.155.025.258.077.335.077.077.154.051.154.18v.541l-.128-.051c-.103-.026-.232-.026-.232.051 0 .052.103.078.129.18 0 .078.077.207.051.31s0 .232-.103.257c-.129.026-.18.078-.258.13-.077.05-.128.076-.128.076s.18-.154 0-.154-.232.051-.232.051-.155.103-.103.13c.077.025.077.025.206.025h.257s.207-.026.155.052c-.051.077-.051.154-.155.154-.103 0-.206-.051-.206.052s.078.206.078.206l.103.026s.077.077.077.128v.284l-.052.103s-.025-.206-.077-.284c-.051-.077-.154-.18-.206-.18-.077 0-.077.129-.077.129s.026.103 0 .18c0 .077-.052 0-.103-.051-.077-.078-.077-.078-.077-.206 0-.155.025-.258-.104-.258-.128.026-.18.103-.18.258 0 .154-.051.309 0 .309.077 0 .206-.103.206 0 0 .077-.051.18.026.18s.077-.026.206-.051c.129-.026.206-.052.206.025 0 .078.026.18-.077.258a.839.839 0 0 1 -.258.077l.206.052s.078.154-.051.154c-.155 0-.773.026-.902.026s-.335.026-.438.026-.335-.052-.335-.052.052-.103.13-.103c.076 0 .205 0 .282-.051.078-.026.258-.13.258-.206v-.232c0-.078-.129-.13-.232-.078-.129.052-.309 0-.309.078 0 .103.052.129.052.129s.335 0 .335.077-.026.129-.155.129-.283-.026-.386 0c-.078 0-.18.025-.207.103-.025.103-.051.18-.128.18-.078 0-.928.026-1.057.077-.128.026-.36.026-.36.026s-.155-.154-.026-.154c.103 0 .31-.052.31-.052s-.052-.052-.155-.129c-.078-.077-.13-.154-.13-.257s-.077-.18.026-.284c.078-.077.207-.077.207-.077s.154.154.154.283c0 .155 0 .232.129.232.129.026.283.052.386.052.13 0 .206-.026.232-.13.026-.076.052-.154.155-.154.129 0 .206-.077.309-.129.103-.051.31-.103.36-.18.078-.103.232-.335.336-.412.128-.077.283-.206.283-.31a.52.52 0 0 1 .077-.283c.026-.103.052-.128.052-.257v-.284c0-.051-.052-.103-.026-.206 0-.103.026-.232.026-.232s-.13-.077-.18-.154c-.078-.077-.078-.155-.155-.258s-.155-.206-.31-.206c-.18 0-.334.026-.411.026-.104.026-.232.103-.31.154s-.154.18-.232.284c-.051.129-.077.154-.128.283-.052.103-.052.18-.052.18zm2.036-.747s.129.258.129.386c0 .13.051.284.051.387 0 .077-.025.154-.077.283a1.233 1.233 0 0 1 -.103.206zm.387.052c.18.103.309.128.309.231v.258s.103.103.103.232-.18.232-.18.232-.026.026-.026-.13v-.334l-.103-.283zm.334-.258c.078.026.18.051.18.051l.155.232s.026.078.026.18c0 .13-.051.284-.077.207a.767.767 0 0 0 -.129-.361c-.077-.103-.18-.129-.18-.232s.025-.077.025-.077zm-.72-.721-.156-.052h-.128l.128.103.155.052zm-.8 4.353 1.134-.077c.026.077-.103.206-.18.206-.413.026-1.469.129-1.185 0zm-.128.413 1.082-.078c0 .078-.13.206-.18.206-.413.026-1.443.13-1.134 0zm-.155.335 1.005-.078c0 .078-.129.206-.18.206-.413.026-1.34.13-1.057-.025zm-.154.386 1.133-.077c0 .077-.103.206-.18.206-.413.026-1.469.129-1.185-.026zm-.104.412 1.16-.077c0 .077-.13.18-.206.18-.413.026-1.469.129-1.185 0zm-1.623-7.29c.078.05.078.102.155.18.077.077.18.103.232.129.077.025.103 0 .206 0 .077.025.129-.026.154.025 0 .078.078.103.078.103s.051.052.129.052c.077-.026.128-.026.128.051 0 .052-.051.13-.051.13s-.129.025-.206-.027c-.052-.077-.103-.103-.206-.103-.078.026-.155.026-.232.026s-.155.052-.206 0c-.078-.051-.335-.103-.36-.154a.444.444 0 0 1 -.156-.155v-.155c0-.051.052-.051.052-.051l.103.129s.129.077.129 0v-.13zm.876.927s.026-.077.13-.129c.076-.026.154-.026.231-.077.077-.026.129-.052.18-.052s.18-.026.31-.026c.128 0 .257-.077.334-.103.052-.025.052-.051.155-.051.077 0 .077-.052.206 0 .129.051.232.051.232.103 0 .077-.026.077-.18.077-.18 0-.387.026-.438.026s-.232.026-.31.077c-.077.078-.283.18-.334.18-.052 0-.232-.051-.284 0-.051.026-.103.078-.154.078-.052 0-.078-.103-.078-.103zm-1.159-1.778s.155.026.18.103c0 .103.155.258.18.284.026.051.13.154.155.18.052.026.13.052.206.077.078.052.13.078.206.155.103.077.18.154.258.154.052 0 .052-.051.052-.103a.646.646 0 0 0 -.13-.206c-.05-.025-.102-.077-.18-.077s-.128 0-.206-.051c-.051-.052-.103-.078-.128-.155-.052-.077-.18-.232-.18-.232s-.027-.103-.052-.129c-.026-.051-.078-.129-.026-.154.026-.026.129.025.129.025s.051.052.051.103c.026.078.103.232.155.258.026.052.103.103.206.129.077.026.258.077.283.129.052.051.103.103.206.18s.13.077.258.129c.129.051.206.077.335.103.129 0 .258 0 .335.026.077.025.283.129.283.129s.155.103.078.103c-.104 0-.232.025-.361.025s-.18.026-.258-.025c-.103-.078-.18-.078-.283-.13-.077-.025-.155-.077-.206-.077-.052.026-.103.104-.103.104s0 .077.025.103c.052 0 .13 0 .13.051 0 .077-.052.077-.155.026-.103-.052-.18-.103-.284-.103-.103 0-.154-.026-.206-.077-.051-.052-.154-.078-.257-.155-.078-.077-.18-.077-.206-.155a.597.597 0 0 0 -.13-.18c-.05-.077-.128-.077-.18-.155l-.129-.128c-.077-.078-.077-.078-.103-.155-.025-.051 0-.077 0-.077zm.593-.257s.18-.026.231.077c.052.103.078.077.155.129.051.077.155.129.18.206 0 .051.026.154.026.154l-.155-.051c-.051 0-.128.051-.154 0-.052-.052-.155-.129-.18-.206a1.515 1.515 0 0 1 -.078-.18zm.54 0h.052s.129.077.129.154c.026.052.129.103.18.18.026.078.052.078.103.13.052.05.103.077.13.128.025.026.154.077.154.129 0 .026.025.129.025.129s-.128 0-.18-.077c-.051-.052-.155-.078-.206-.13-.052-.05-.129-.077-.18-.205-.052-.103-.078-.103-.13-.155-.076-.052-.102-.052-.102-.103v-.129zm.335-.18c0-.078.13-.181.155-.104.026.078.077.206.103.284 0 .077.077.206.129.231.051.052.077.13.155.18.051.027.154.052.128.13-.025.077-.051.154-.103.128-.025-.025-.077-.103-.18-.18-.103-.103-.129-.18-.206-.258s-.052-.077-.103-.18l-.078-.154zm.748.978c.025-.051.077-.103.128-.103.052 0 .13.052.18.103.026.052.104.026.13.103.025.052.077.103.128.155.052.077.078.103.155.103.103 0 .206.026.232.103.025.077-.026.103.077.155.103.025.155.025.155.077 0 .077-.026.154-.078.103a.685.685 0 0 1 -.257-.155c-.052-.077-.258-.154-.258-.154s-.283-.155-.309-.18c-.052 0-.232-.104-.232-.104l-.051-.103zm.128-.747s.026-.18.052-.129c.051.078.154.18.18.284.026.129.232.335.284.386.051.026.103.129.18.129.077.026.129.077.206.129s.155.077.155.154c0 .078.025.13.051.155 0 .051.052.077.052.155v.128s-.078-.077-.103-.128c-.052-.052-.155-.052-.18-.155-.052-.077-.078-.18-.155-.206-.052-.052-.18-.052-.206-.103-.052-.052-.13-.103-.18-.18-.052-.104-.155-.13-.181-.232-.052-.103-.129-.13-.129-.207 0-.051-.026-.18-.026-.18zm1.134.696.051-.026s.052-.052.155.026c.077.103.155.18.232.257a.779.779 0 0 1 .129.18c0 .052-.026.13.025.13s.103-.052.18.025c.104.078.13.103.13.18 0 .078.077.078.103.13 0 .05.077.05.051.102 0 .078-.051.052-.103 0-.077-.077-.154-.128-.154-.051s-.052.232.025.232c.078 0 .155.026.155.103v.129c.026.103.103.103.103.154 0 .078.077.155.077.232.026.077.052.129.077.206.026.052.13.129.052.155-.052.026-.103.026-.155-.052s-.103-.103-.128-.154c-.026-.052-.13-.18-.13-.232-.025-.052-.05-.129-.102-.18-.078-.052-.103-.052-.18-.104-.078-.077-.18-.154-.18-.154s-.13-.077-.13-.129v-.386c0-.078 0-.284-.077-.361-.051-.103-.051-.103-.129-.155-.051-.077-.077-.154-.077-.154zm-5.359 8.192 1.134-.077c0 .077-.103.18-.18.18-.413.026-1.495.129-1.186 0zm-.773.464 1.314-.077c0 .077-.128.206-.18.206-.412 0-1.649.129-1.365-.026zm-1.133 1.468h1.7c.026.052-.103.155-.18.155-.49.026-1.108.129-1.34 0zm.67.413 1.571-.052c0 .103-.103.18-.18.18-.49 0-.98.13-1.21 0zm4.895-2.474 1.159-.077c0 .077-.129.18-.18.18-.413.026-1.495.13-1.211 0zm-.31.49 1.031-.077c0 .077-.103.18-.18.206-.413 0-1.366.128-1.082-.026zm-.128.36.85-.077c.026.078-.103.206-.18.206-.413.026-1.186.13-.902 0zm-.644.413 1.056-.078c.026.078-.103.18-.18.18-.413.027-1.392.155-1.108 0zm-.464.438 1.133-.078c0 .078-.128.18-.18.206-.412 0-1.494.104-1.185-.025zm-.335.438.979-.078c0 .078-.103.18-.18.18-.413.052-1.34.13-1.03 0zm-.438.335 1.03-.078c0 .078-.103.206-.18.206-.412 0-1.365.13-1.082 0zm-3.22 3.22 1.52-.052.077.18c-.876.026-.824 0-1.597 0-.18 0-.206-.102 0-.128zm.103.49 1.494-.052.077.18c-.85.026-.824 0-1.571 0-.18 0-.206-.103 0-.129zm.7 2.582 2.314-.135.044.118a10.985 10.985 0 0 1 -2.357.017zm3.86-5.829 1.829-.206-.052.258c-.824.051-1.03.051-1.777.077-.18 0-.232-.103 0-.129zm.412-.463 1.571-.18-.051.257c-.85.051-.773.051-1.52.103-.18-.052-.232-.129 0-.18zm.36-.413 1.237-.128-.077.18c-.824.077-.387.051-1.16.103-.18-.026-.206-.103 0-.155zm.31-.36.979-.13-.052.258c-.129-.025-.154-.025-.927 0-.18 0-.206-.103 0-.128zm.257-.31.722-.077-.052.232c-.154-.026.103-.051-.67-.026-.18 0-.231-.103 0-.128zm.206-.412.516-.051-.057.18a8.818 8.818 0 0 0 -.433.026c-.206-.026-.232-.103-.026-.155zm-1.545 2.396 1.855-.206-.052.258c-.85.051-1.03.051-1.803.077-.18 0-.206-.103 0-.129zm.257.464 1.598-.18-.052.257c-.85.052-.773.026-1.546.052-.18 0-.206-.103 0-.13zm.361.438 1.185-.129-.051.206c-.825.052-.361.026-1.134.077-.18-.025-.206-.103 0-.154zm.36.36.774-.077-.052.232c-.18.026.206-.051-.696-.026-.18 0-.231-.103-.025-.128zm.31.413.386-.13-.051.259c-.825.051.412-.026-.335 0-.18 0-.232-.103 0-.13zm-3.658-.747 2.215-.103-.077.257c-.825 0-1.391 0-2.138-.026-.18 0-.232-.103 0-.128zm.103.54 2.112-.205-.026.283c-.85 0-1.314.077-2.086.051-.18 0-.207-.103 0-.128zm.283.413 1.778-.155-.026.258c-.825.026-.98.051-1.752.051-.18-.025-.206-.128 0-.154zm.31.386 1.468-.128-.052.231c-.85 0-.67.026-1.417.026-.18-.026-.206-.129 0-.129zm1.262-.128 1.34-.104.05.18c-.54.052-.643.052-1.39.104-.18-.026-.207-.155 0-.18zm.154.412 1.34-.13.051.207c-.54.052-.644.052-1.39.077-.181 0-.207-.129 0-.154zm.18.438 1.34-.103.052.18c-.541.051-.645.051-1.392.077-.18 0-.231-.129 0-.154zm.103.49 1.34-.13-.051.18c-.541.078-.541.052-1.289.104-.18-.026-.206-.13 0-.155zm.335.489.954-.078-.052.18c-.541.052-.154.026-.902.078-.18-.026-.206-.155 0-.18zm-1.726-.8 1.211-.128.026.206c-.36.026-.49.052-1.237.078-.18-.026-.232-.13 0-.155zm-.051.439 1.21-.155.232.207c-.36.025-.695.051-1.442.077-.18-.026-.232-.13 0-.13zm-.026.49 1.571-.18.155.205c-.36.026-.979.077-1.726.103-.18-.026-.206-.129 0-.129zm.206.412 1.649-.155.154.206c-.36.026-1.056.077-1.803.103-.18-.026-.206-.129 0-.154zm.258.463 1.623-.232.1.13c-.169.058-.34.111-.512.16-.347.035-.77.071-1.211.071-.18 0-.206-.103 0-.129zm-2.036-2.653.49-.052.103.206c-.85.052-.335.026-.515.052-.18-.026-.284-.18-.078-.206zm.155.36.593-.051.206.18c-.825.052-.567.078-.722.078-.18-.026-.283-.155-.077-.206zm.232.335.747-.051.052.18c-.825.052-.593.077-.748.077-.18-.025-.283-.154-.051-.206zm.103.438.541-.051.077.18c-.85.052-.386.052-.54.052-.181-.026-.284-.155-.078-.18zm4.895-3.091 2.293-.077-.052.232h-2.215c-.18-.026-.232-.104-.026-.155zm-.078.464 2.293-.103-.077.231c-.824.052-1.443-.025-2.216 0-.18 0-.206-.103 0-.128zm-.025.463 2.01-.103-.052.232c-.85.052-1.185-.051-1.958 0-.18-.026-.206-.103 0-.129zm-.078.413 1.546-.078-.051.232c-.078.052-.387-.051-1.495-.026-.18 0-.206-.103 0-.128zm-.051.412 1.958-.052.258.18c-.825.052-1.443-.025-2.216 0-.18 0-.206-.102 0-.128zm-.077.412 2.37-.052.077.207c-.799.051-1.674-.052-2.447-.026-.18 0-.206-.103 0-.13zm-.13.515 2.21-.048c-.093.075-.186.148-.28.22-.649.006-1.32-.038-1.93-.017-.18-.026-.205-.103 0-.155zm-.05.412 1.704-.037c-.087.062-.175.122-.264.182-.483-.008-.956-.032-1.44-.016-.181 0-.233-.103 0-.129zm-.13.387 1.237-.028c-.094.059-.189.116-.285.171-.294-.012-.594-.026-.951-.014-.18 0-.207-.103 0-.13zm-.077.49.402-.011c-.094.046-.189.091-.284.135l-.118.004c-.18 0-.206-.103 0-.129zm.773-4.406 2.293-.077-.077.206c-.773 0-1.366.025-2.216 0-.18 0-.206-.103 0-.13zm.026-.438 2.293-.077-.078.206c-.772 0-1.365.026-2.215 0-.18 0-.206-.103 0-.13zm.051-.386 2.061-.078.155.206h-2.216c-.18 0-.206-.103 0-.128zm.052-.438 1.958-.103.077.206c-.799 0-1.185.051-2.035 0-.18 0-.232-.078 0-.103zm-.026-.413 1.726-.051.103.18h-1.829c-.18 0-.206-.077 0-.129zm0-.386 1.494-.077.078.206h-1.572c-.18-.026-.206-.103 0-.13zm-.026-.386 1.237-.052.103.206c-.799-.026-.49 0-1.34 0-.18-.026-.206-.103 0-.154zm.026-.413.773-.051.052.18h-.825c-.18 0-.232-.103 0-.129zm-.077-.335.335-.025.18.18c-.335 0 .335-.026-.515-.026-.18 0-.206-.103 0-.129zm2.087 1.83 2.138-.078-.085.206c-.747-.025-1.177 0-2.053 0-.18 0-.232-.128 0-.128zm.103.386 1.829-.077-.258.232c-.773-.052-.695 0-1.571 0-.18 0-.206-.13 0-.155zm.051.515 1.469-.077-.258.206c-.773 0-.335-.026-1.21 0-.181-.026-.207-.103 0-.129zm.052.36 1.03-.076-.232.231c-.747.026.078-.025-.798 0-.18-.025-.206-.103 0-.154zm-.166.505.887-.066-.258.206c-.706.024.015.003-.644 0zm-.246-2.179 1.159-.077.31.18h-1.418c-.18 0-.258-.077-.051-.103zm-.387-.335.773-.051.283.154c-.747.026-.67.026-1.004.052-.18 0-.258-.129-.052-.155zm.516 2.989.875-.052v.206c-.206.026-.901 0-.901 0zm-.258.335.927-.026-.026.18c-.18.026-.875 0-.901 0-.18 0-.206-.103 0-.154zm-.232.335.902-.052v.206c-.207.026-.902 0-.902 0-.18-.026-.232-.129 0-.154zm-.103.412.927-.052v.206c-.206.026-.901 0-.901 0-.18-.025-.232-.128-.026-.154zm1.778-.395a.252.252 0 0 1 .049-.069s.009-.008.022-.016zm-13.474-4.165s-.052-.155 0-.283c.051-.104.232-.361.232-.438.025-.078.103-.078.103-.078l-.13.49s.155-.078.233-.18c.103-.13.257-.438.309-.31.026.155-.052.387-.18.412-.104.052-.31.207-.361.284-.052.077-.206.103-.206.103zm1.314-.412s-.13.025-.284.077-.464.31-.464.31l-.231.257s.206.026.257 0c.077-.052.412-.31.412-.31l.155-.18zm.128.309.206-.258.31-.103v.206l-.284.103zm.078.258s.335-.18.438-.18c.128 0 .67-.052.67-.052l.231.025-.051.18-.567.027zm.309.128 3.297-.077c0 .077-.128.18-.18.206-.438 0-3.632.129-3.349 0zm.747.335 2.164-.026c0 .078-.103.18-.18.18-.413.027-2.5.104-2.216-.05zm0 .412 2.164-.025c0 .051-.103.18-.18.18-.413.026-1.495.103-1.778-.052zm-.644 3.556 2.37-.103.077.206c-.876 0-1.674.025-2.447.025-.18-.025-.206-.103 0-.128zm-.077-.516 2.37-.077.077.206c-.876 0-1.675 0-2.447.026-.18-.026-.207-.103 0-.155zm.103-.36 2.01-.078.076.18c-.85.027-1.314.027-2.086.052-.18-.025-.206-.103 0-.154zm.128-.335 1.855-.18.078.206c-.825.051-1.16.077-1.933.103-.18 0-.206-.103 0-.13zm0-.49 1.52-.154.078.18c-.825.052-.825.077-1.598.103-.18 0-.206-.103 0-.129zm.052-.463 1.288-.155.052.206c-.825.052-.567.052-1.34.077-.18-.025-.206-.103 0-.128zm-.026-.413 1.005-.103.077.18c-.824.052-.309.026-1.082.052-.18 0-.206-.103 0-.129zm0-.334 1.005-.13.077.233c-.824.025-.309 0-1.082.025-.18 0-.206-.103 0-.128zm0-.31 1.005-.128.051.18c-.824.077-.309.051-1.056.077-.18 0-.232-.129 0-.129zm0-.36.618-.078.052.18c-.824.052.103 0-.67.026-.18 0-.206-.103 0-.128zm.902 4.972 1.984-.103.077.18c-.876.026-1.314.052-2.061.052-.18 0-.232-.103 0-.13zm-.36.438 2.55-.18.077.206c-.85 0-1.88.103-2.628.103-.18 0-.232-.103 0-.13zm-.258.386 3.04-.18.077.18c-.876.026-2.345.129-3.092.129-.18 0-.232-.103-.025-.129zm0 .412 3.297-.154.052.18c-.85.026-2.602.103-3.35.129-.18-.026-.206-.103 0-.155zm.231.438 3.298-.18.052.206c-.85 0-2.602.103-3.35.103-.18 0-.206-.103 0-.129zm-1.545-6.002.618-.052.052.129c-.825.052.103.052-.67.052-.18 0-.206-.103 0-.13zm-.36.438.978-.13-.026.181c-.85.078-.206.052-.953.078-.18 0-.232-.104 0-.13zm-.593.49 1.313-.13.078.206c-.825.052-.644.026-1.391.052-.18-.026-.232-.103 0-.129zm.077.386 1.133-.103-.051.18c-.85.051-.31.026-1.082.051-.18 0-.232-.103 0-.128zm-.026.412 1.134-.103-.052.18c-.824.052-.31.026-1.082.052-.18 0-.206-.103 0-.13zm-.129.464 1.134-.104-.052.18c-.85.078-.309.027-1.082.078-.18-.026-.206-.103 0-.154zm-.026.412 1.16-.13-.078.207c-.824.052-.309.026-1.082.052-.18 0-.206-.104 0-.13zm0 .463 1.134-.128-.077.206c-.825.051-.31.026-1.057.051-.18 0-.231-.103 0-.129zm.232.438 1.134-.103-.052.18c-.85.052-.309.026-1.082.052-.18 0-.232-.103 0-.129zm.026.438 2.061-.154-.077.18c-.825.077-1.237.052-1.984.103-.18-.026-.232-.103 0-.129zm.103.413 2.061-.13-.077.181c-.825.052-1.237.052-1.984.077-.18 0-.232-.103 0-.128zm.077.412 1.598-.103-.052.18c-.824.052-.773.026-1.52.052-.18 0-.232-.103-.026-.13zm.103.515 1.134-.103-.077.18c-.825.052-.31.026-1.057.078-.18-.026-.231-.103 0-.155zm.326.376.963-.067-.078.18a34.76 34.76 0 0 1 -.52.03 11.08 11.08 0 0 1 -.365-.143zm1.065.374.026-.002-.002.01-.024-.007zm-4.147-3.507c.206-.025-.052-.025.747-.051.155.026.438.051.026.154-.129.026 0 .026-.747.026-.18 0-.232-.103-.026-.129zm0 .541c.206-.025-.052-.025.747-.051.155 0 .438.051.026.155-.129.025 0 .025-.747.025-.18 0-.232-.129-.026-.129zm0 .516c.206-.026.051-.026.85-.052.18 0 .464.052.026.155-.103.026-.103.026-.876.026a.322.322 0 0 1 -.056-.005l-.094-.083c.015-.023.062-.041.15-.041zm.342.459.611-.021c.155.025.438.051.026.18h-.434a11.084 11.084 0 0 1 -.203-.16zm.524.397.19-.006c.155 0 .438.051.026.154a11.059 11.059 0 0 1 -.216-.148zm2.87-13.995s0 .335.051.386c.077.052.386.026.696 0 .283-.025.463 0 .67-.051.357-.01.08.038.309.026.077 0 .386.025.489-.026.103-.026.18-.13.258-.13s.154.052.154.104.103.155.103.155l-.154.103-.078.103c-.025.077.284.154.335.206.078.026.155.257.13.386-.027.103-.027.284-.13.232-.103-.026-.309-.154-.36-.258-.052-.128-.387-.36-.464-.412a1.68 1.68 0 0 0 -.438-.077c-.103 0-.18.026-.258 0a.51.51 0 0 0 -.257.052c-.103.025-.258.025-.335.077-.078.026-.026.129.103.154.103.026.335.026.386.026.078.026.258.206.464.31.206.102.232.18.464.205.206.052.283 0 .386.103.129.103.284.078.284.155.025.103 0 .103-.18.103-.181 0-.13.052-.258.077-.155.026-.18 0-.284-.077-.103-.103-.309-.232-.386-.283-.103-.026-.155-.026-.206-.078-.026-.051.025-.103.025-.128-.025 0-.18-.103-.231-.103-.052 0-.078.231-.052.334.026.078.206.13.206.13s-.099.096-.18.114c-.099.024-.16.05-.258.014-.051-.051-.18-.077-.257-.129-.052-.051-.052-.051-.052-.18s.052-.206 0-.206c-.077-.026-.18 0-.258 0-.051 0-.154 0-.154-.103 0-.078.077-.078.077-.155.055-.22-.005-.037.052-.206 0-.077.051-.154-.052-.154s-.103.128-.232 0c-.154-.13-.18-.052-.232-.18-.025-.13-.077-.13-.077-.258 0-.104-.026-.052.052-.18.051-.104.128-.181.128-.181zm1.134 1.981-.001.002s.258.026.31 0 .025.129-.13.155c-.154.026-.103.103-.154.103s-.18-.103-.31-.052c-.102.052-.077.103-.154.103-.052 0-.077-.103-.077-.103l-.13-.103.078-.154s.077-.052.129 0c.052.051.129.051.206.051s.103.014.103.014c.058-.005.062.005.13-.016zm-.207-.719c.026 0 .051.052.051.103 0 .052-.051.103-.051.103s-.103-.025-.103-.051v-.129zm-2.449 2.035c0-.051.078-.077.13-.103.05-.025.128-.025.257-.025.103 0 .283 0 .283.154 0 .077-.026.129-.077.129-.077 0-.077 0-.155-.052-.051-.025-.103-.025-.18 0-.051.026-.103.078-.154.026-.078-.026-.104-.129-.104-.129zm1.134-.72s.232.18.232.205c.026.052.077.18.077.31 0 .154.077.128.103.18.052.077.052.18.077.257.026.103.13.361.207.464.077.077.283.31.283.386 0 .078.026.258.026.284 0 .051-.052.103-.078.051-.051-.077-.103-.154-.18-.231-.077-.052-.232-.104-.232-.155-.026-.052-.026-.155-.026-.206 0-.077-.077-.18-.103-.258-.025-.051-.025-.129-.103-.154-.051 0-.128-.026-.206.025-.154.078-.206.104-.412.104-.077 0-.206-.026-.206-.104s0-.077.026-.103c.051-.025.103-.025.206-.025s.18 0 .257-.052a.261.261 0 0 0 .155-.18c.026-.052.077-.155.052-.232a.234.234 0 0 0 -.104-.206c-.077-.077-.128-.103-.18-.155-.051-.077-.129-.129-.154-.154v-.13s.077-.05.128-.025c.052.026.155.103.155.103zm.283 2.137s.026-.154.078-.154c.025 0 .103.051.077.103 0 .051.026.154-.026.154-.051 0-.129-.103-.129-.103zm-1.648.438s.077-.283.154-.309a1.92 1.92 0 0 1 .438-.077c.434 0-.008-.04.36.051.078.026.233.078.258.13.052.05.13.102.155.025 0-.077.026-.129.026-.206.025-.077.025-.18.077-.103.026.051.026.129.052.232.051.077.128.129.154.18.052.052.103.026.155.129.051.077.154.077.206.051.051-.051.129-.077.103-.128s-.026-.13-.052-.13c-.051-.025-.103.027-.103-.05 0-.052-.051-.104.026-.13.077 0 .103-.025.129.052 0 .103.077.051.077.155 0 .077-.051.103 0 .18.077.051.155-.026.206 0 .078.051.078.051.078.18s.051.258.051.31c0 .05.052.128 0 .128-.077 0-.129.103-.232-.026-.103-.128-.051-.025-.103-.077-.051-.026-.18-.129-.232-.154-.077-.026-.077-.052-.18-.103-.103-.052-.206-.155-.283-.155-.052 0-.207-.052-.284-.052-.077-.025-.283-.077-.36-.103-.104 0-.207-.025-.284-.025s-.129-.026-.206 0c-.051.051-.077.128-.155.18-.051.026-.103.077-.103.077zm.721-.644a.463.463 0 0 1 -.232-.103.136.136 0 0 1 .052-.18c.077-.052.128-.026.154-.077.048.026.063-.033.155.051.051.026.129.026.129.026l.103-.052s.103-.025.025.052c-.077.051-.103.129-.103.129s.026.154.026.206c0 .077.026.18-.026.129-.051-.052-.077-.103-.129-.103-.144.026-.1-.075-.154-.078zm-.258 1.057c.026-.103.052-.103.155-.103l.232.077h.206c.077 0 .154.051.18.077.052.052.129.103.129.155 0 .077.077.154-.026.154s-.154-.051-.257-.051c-.13 0-.18.025-.31-.026-.128-.077-.154 0-.206-.077s-.103-.103-.103-.13zm-.077.566c.052-.025.077-.077.129-.077.077-.026.18.026.283.077.077.026.155 0 .232.078.077.051.077.025.155.103.077.077.18.103.18.18 0 .103.051.18.051.232 0 .026.052.103 0 .103-.077 0-.103-.026-.18-.103-.103-.077-.18-.026-.257-.077s-.078-.078-.13-.155c-.05-.103-.128-.18-.154-.129-.051.026 0 .103-.051.103-.026 0-.052-.051-.078-.103s-.077-.051-.128-.077c-.026 0-.052-.052-.052-.052z"/></g><path d="m33.655 29.608c1.219.356 2.438.686 3.708.89-.203.99-.355 1.955-.482 2.971-1.651-.533-3.379-1.22-4.979-1.702l-.559 1.626c-.457-.127-1.016-.229-1.473-.33.076-.585.178-1.296.28-1.855a5.655 5.655 0 0 0 -.915-.127h-.203c.05-.812.152-1.447.432-2.235l.66-.254c1.346.305 2.337.635 3.53 1.016z" fill="#a80"/><path d="m25.502 43.273c-.28.356-.864.432-1.22.127l-4.42-4.038-.507.61-1.448-1.195 1.499-1.803 1.397-.025.61.533-.814.965 4.801 3.583c.33.355.457.812.102 1.244zm12.318-12.522c.38-.178.66-.432.812-1.143-.228.102-.406.178-.584.254zm.61-1.499c.71-.025 1.066-.533 1.396-1.803-1.244.787-1.524 1.194-1.397 1.803zm.406-1.93c.71-.025 1.346-.813 1.346-2.007-1.245.864-1.473 1.423-1.346 2.007zm.61-2.286c.71-.025 1.168-.559 1.37-1.981-1.244.787-1.523 1.371-1.37 1.981zm.279-2.007c.71-.05 1.066-.558 1.27-1.955-1.245.889-1.397 1.447-1.27 1.955zm.228-1.905c-.178-.635.305-1.27.61-1.955.584 1.016.127 1.676-.61 1.955zm-6.273 15.063c.28.228.635.254 1.042.101-.305-.127-.61-.254-.89-.38a.605.605 0 0 0 -.152.279zm-1.6.584c.508-.178.99-.457 1.296-1.042-.254-.127-.508-.203-.762-.304-.381.406-.61.863-.534 1.346zm-1.829 1.473c.66-.152 1.194-.381 1.524-1.778-1.092.533-1.524 1.041-1.524 1.778zm1.88-.838c.559.482 1.295.152 2.21-.61-1.143-.101-2.007-.025-2.21.61zm-2.743-1.27c.61.406 1.244-.153 2.387-.89-1.422-.228-2.311.331-2.387.89zm-2.083.838c.533.381 1.499.432 2.413-.356-1.067-.457-2.007-.254-2.413.356zm-1.753.914c.483.407 1.194.305 2.185-.406-.94-.254-1.753-.254-2.185.406zm2.998-1.88c.889-.279 1.473-1.27 1.498-2.615-1.067.889-1.752 1.88-1.498 2.616zm-3.633 1.22c.94-.05 1.397-.686 1.83-1.854-1.449.584-1.83 1.27-1.83 1.854zm1.728-.356c.584.026 1.27-.66 1.727-2.21-1.067.585-1.804 1.372-1.727 2.21zm-.026 3.582c.61.584 1.423.28 2.312-.305-.915-.305-1.728-.33-2.312.305zm-.127-.737c.788.127 1.397-.254 1.778-1.32-1.194.33-1.778.787-1.778 1.32zm2.032 0c.686.508 1.499.203 2.312-.432-.94-.101-1.778-.203-2.312.432zm-.127-.635c.635 0 1.27-.33 1.829-1.6-.864.305-1.651.584-1.829 1.6zm2.032-.228c.457.33 1.677 0 2.312-.94-1.245-.026-2.007.254-2.312.94zm1.626-3.633c-1.651 1.499-3.607 2.617-5.97 3.455l.102.228c2.439-.838 4.47-2.006 6.173-3.581a1.432 1.432 0 0 0 -.305-.102zm-1.245 8.154-4.09-1.626.661-.228 3.582 1.422zm.254-.762-3.226-1.296.635-.228 2.744 1.117zm.28-.762-2.439-.965.635-.229 1.956.787zm.279-.737-1.626-.66.56-.254 1.218.482zm.28-.762-.966-.38.407-.331.71.28zm-1.372 3.785-3.861-1.55.508-.279 3.505 1.397zm1.625-4.547-.431-.178.584-.254zm-19.43 3.378 2.768-1.117.711.178-3.276 1.32zm-.432-.736 2.057-.838.61.254-2.439.965zm-.407-.737 1.372-.559.584.254-1.727.686zm-.406-.736.787-.305.534.254-1.093.432zm1.65 2.946 3.938-1.6v.482l-3.709 1.499zm-2.082-3.683.254-.102.457.305-.482.203zm5.13.305c-.609.66-1.523.508-2.565 0 .94-.483 1.83-.66 2.566 0zm2.312-.076c-.813.228-1.498-.178-2.133-.991 1.117-.05 1.905.203 2.133.99zm-.508.584c-.635.686-1.473.66-2.438.28 1.016-.61 1.854-.737 2.438-.28zm-8.863-10.668c-.56-.203-1.118-.381-1.169-2.235 1.092.787 1.397 1.524 1.169 2.235zm-.077 1.6c-.762-.152-1.447-.559-1.625-2.21 1.295.762 1.727 1.499 1.625 2.21zm1.347.483c-.635-.305-1.143-.762-.864-2.566.889.94 1.32 1.804.864 2.566zm.431 1.193c-.66.178-1.422-.05-2.489-1.473 1.677.127 2.337.686 2.49 1.473zm1.905 1.397c-.685.407-1.524.305-2.794-.863 1.753 0 2.515.28 2.794.863zm1.423.305c-.89-.101-1.499-.686-1.829-2.032 1.143.61 1.778 1.27 1.829 2.032zm.254.813c-.534.406-1.423.229-2.616-.533 1.346-.204 2.336-.153 2.616.533zm1.829.406c-.788.127-1.397-.304-2.007-1.803 1.27.381 1.905.914 2.007 1.803zm2.26.991c-1.041.152-1.575-.432-2.057-1.626 1.55.381 2.057.966 2.057 1.626zm-.61.762c-.609.457-1.422.28-2.54-.61 1.118-.254 2.058-.203 2.54.61zm-1.803-1.168c-.787.431-1.676.61-2.946-.432 1.575-.33 2.464-.102 2.946.432zm-5.105-5.258c-.203 1.473.254 2.032 1.041 2.235.153-.711-.203-1.422-1.041-2.235zm-3.607 2.895c-.838.051-1.397-.685-1.702-2.057 1.143.66 1.854 1.346 1.702 2.057zm1.27.864c-.533-.254-1.067-.533-1.168-2.438 1.041.914 1.397 1.727 1.168 2.438zm-.076.66c-.61.33-1.397.077-2.312-1.016 1.27-.025 2.109.254 2.312 1.016zm2.108 1.397c-.635.508-1.55.102-2.565-.71 1.295-.128 2.336-.026 2.565.71zm0-.61c-.864-.177-1.55-.71-1.778-2.133 1.067.584 1.727 1.296 1.778 2.134zm1.88 1.195c-.686-.102-1.321-.407-1.753-1.778 1.118.457 1.702 1.041 1.753 1.778zm1.93 1.092c-.635.076-1.27-.33-1.778-1.702.838.305 1.651.61 1.778 1.702zm-2.134-.635c-.38.533-1.397.178-2.514-.33 1.041-.305 1.981-.407 2.514.33zm1.88 1.117c-.813.407-1.702.356-2.769-.482 1.423-.407 2.286-.127 2.769.482zm2.083.153c-.61.101-1.169-.28-1.702-1.321 1.168.254 1.676.686 1.702 1.32zm1.143-1.016-.356.152c-4.216-1.371-7.391-3.429-9.779-7.213l-.152-.737c2.464 4.166 5.715 6.35 10.287 7.798zm-14.047-13.488c-.915-.101-1.474-.762-1.651-2.159 1.168.635 1.778 1.347 1.65 2.16zm.203-1.066c.305-.712 0-1.347-.534-1.93-.152.99.026 1.625.534 1.93zm.838 2.26c-.737-.66-.813-1.575-.203-2.794.533 1.169.635 2.108.203 2.794zm-.05.686c-.763.102-1.423-.508-2.007-1.778 1.6.61 1.93 1.194 2.006 1.778zm1.117.99c-.635-.33-.813-1.092-.381-2.463.787 1.244.787 1.981.38 2.464zm.178 1.144c-.839.05-1.575-.356-2.083-1.778 1.524.431 2.032 1.066 2.083 1.778zm1.244.965c-.711-.407-1.219-1.016-.838-2.591 1.22 1.473.94 1.956.838 2.59zm.127 1.143c-.686.127-1.448-.203-2.362-1.702 1.422.254 2.184.838 2.362 1.702zm1.346-4.09-.177.077c-.585-1.753-.991-3.455-1.042-5.309l.356.178c.076 1.778.305 3.378.863 5.054zm-.66-.203-.178.051a18.801 18.801 0 0 1 -1.092-5.436l.356.178c.101 1.753.33 3.556.914 5.207zm-.254.813-.178.076c-.99-2.133-1.55-4.369-1.752-6.705l.38.177c.204 2.261.585 4.37 1.55 6.452zm-2.438-6.756c.304 2.108.71 4.241 1.6 6.121l-.178.102c-.914-1.956-1.422-3.887-1.753-6.046zm-2.388-.026a71.988 71.988 0 0 1 -.483-2.489l.407.406c.05.407.127.813.178 1.22zm.076 2.16-.178.05c-.558-1.88-.889-3.556-1.143-5.512l.407.432c.228 1.727.432 3.302.914 5.03zm2.083-8.662-.28-.051-.076.66zm-.864 1.829.28-1.982-.356-.177-.28 2.336zm-1.168 5.207 2.26-1.118 2.261 1.092-.355-2.489 1.727-1.803-2.464-.432-1.194-2.21-1.168 2.21-2.49.457 1.753 1.803zm4.47-4.826c.305-.483.28-1.423.026-2.21-.432.736-.737 1.295-.737 2.083zm2.337-1.728c-.635.229-1.6.966-1.829 1.83l.89.126c.584-.457.812-1.448.94-1.956zm1.397-1.803c-.838.28-1.956.533-2.133 1.727 1.066.051 1.803-1.041 2.133-1.727zm-4.242 1.22c1.016-2.287 2.134-4.293 3.709-6.224l.28.203c-1.55 1.93-2.795 3.836-3.81 6.096zm1.448 1.117c.89-1.169.559-2.032.254-3.328-.457.94-1.041 2.337-.254 3.328zm-.863-3.505c-1.474.635-1.804 1.27-1.778 2.057.838-.152 1.27-.533 1.778-2.057zm-1.042.076c-.076-.788.407-1.499 1.778-2.032-.355 1.168-.914 1.93-1.778 2.032zm-.635.406c-.559-.736-.355-1.727.127-2.794.457 1.118.584 2.134-.127 2.794zm-.787 1.6c-.66-.558-.559-1.498-.051-2.667.406.915.787 1.83.05 2.667zm5.13-3.48c-.736.966-1.32 1.982-.914 2.922.99-.762.965-1.093.915-2.921zm2.77.712c-.89.076-2.414.533-2.642 1.575 1.117.05 2.133-.737 2.641-1.575zm-1.017-2.083c-.762.584-1.803 1.372-1.397 2.54 1.092-.432 1.321-1.651 1.397-2.54zm-3.353-1.499c-.71.585-1.168 1.296-1.041 2.109.838-.153 1.016-1.067 1.041-2.109zm-1.93 2.82c-.533-.94-.127-1.778.533-2.616.153 1.016.204 2.006-.533 2.616zm7.163-2.997c-.61.508-1.677 1.32-1.524 2.387 1.346-.28 1.473-1.702 1.524-2.387zm-.61-.585c-1.575.407-2.083.966-2.108 1.6.635 0 1.27-.025 2.108-1.6zm-1.702-.94c-1.346.966-1.219 1.5-1.27 2.058.585-.178 1.143-.508 1.27-2.057zm.102 2.87c-.178.077-.686.433-.838.56l-.254.05c.228-.279.432-.508.686-.736zm-1.778-.939c-.33.356-.61.66-.864 1.067l-.152-.076c.178-.407.559-1.016.864-1.347zm4.775 1.676c-1.168.305-2.108.127-2.641 1.499 1.371.102 2.032-.838 2.641-1.499zm1.27-1.88c-1.244.331-2.032.89-2.159 1.652.915.025 1.55-.33 2.16-1.651zm-.914-1.98c-1.524.05-1.88.508-2.058 1.016.66.05 1.245.127 2.058-1.016zm-1.677-1.27c-1.447 1.092-1.65 1.752-1.473 2.336.61-.254 1.245-.482 1.473-2.336zm1.143.94c.178-.33.432-.61.762-.788l.254.838a1.526 1.526 0 0 1 -1.016-.05zm2.312 4.317c-.762.28-1.6.585-2.413.966.61-.508 1.448-.94 2.337-1.22zm-.66-.965.304-.178.076.204-.533.228zm-1.931-1.168a14.697 14.697 0 0 1 1.55-1.27l.076.228c-.483.381-.966.762-1.474 1.194zm.711.254 1.067-.838.076.254-.736.406zm-1.041-2.87c-.026-.483.152-1.042.965-1.753l.203.737c-.28.762-.686.965-1.168 1.016zm15.824 23.621c.66-1.93 1.956-3.506 3.404-5.614 2.057-2.946 4.445-6.502 5.359-9.677-.762-3.226-2.108-6.782-5.664-7.849-1.575-.508-2.997-1.32-4.318-2.21-1.93-1.295-4.14-1.905-6.426-1.371-1.93.432-3.937.254-5.842-.178l-.94.305 2.82 9.195c-.179.05-.331.101-.483.152l-2.896-9.55 1.499-.458c1.88.432 3.86.61 5.765.178 2.439-.559 4.649.051 6.706 1.448 1.32.889 2.743 1.702 4.293 2.159 3.378 1.016 5.156 4.75 5.943 7.925.686 2.768.838 5.562.584 8.433-.254 2.895-1.193 6.197-1.752 9.144-1.372-.102-3.074-.635-4.674-1.143-1.295-.407-2.54-.788-3.378-.89zm1.448 4.19c-.076.382-.153.915-.178 1.296-.127-.025-.254-.076-.381-.102.05-.38.102-.94.178-1.295.127.025.254.076.38.102zm4.546 1.804c-.076.432-.101.864-.127 1.27l-.355-.178c.025-.406.05-.838.127-1.244zm-.635-.28a9.83 9.83 0 0 0 -.127 1.245l-.38-.203c.025-.406.076-.813.152-1.194zm1.753-1.32a16.266 16.266 0 0 0 -.152 1.6c-.102-.05-.229-.102-.356-.152a15.05 15.05 0 0 1 .152-1.575c.127.025.229.076.356.127zm-.635-.254a16.511 16.511 0 0 0 -.152 1.575 2.322 2.322 0 0 1 -.356-.178c.025-.457.076-1.042.152-1.524zm-.635-.229a15.773 15.773 0 0 0 -.152 1.499l-.381-.153c.05-.482.076-1.016.177-1.473zm-.635-.228a9.023 9.023 0 0 0 -.178 1.447l-.355-.177c.025-.458.076-.966.177-1.423zm-3.886-1.27c-.076.406-.127.812-.178 1.219-.127-.051-.254-.076-.356-.102.026-.406.077-.813.153-1.194zm.66.177a8.79 8.79 0 0 0 -.178 1.22 2.116 2.116 0 0 0 -.38-.102c.05-.406.101-.813.177-1.22.127.026.254.052.381.102zm3.277-.787a14.28 14.28 0 0 0 -.229 1.448l-.38-.127c.075-.483.152-.965.253-1.423.102.026.229.077.356.102zm-.66-.203c-.102.457-.178.94-.23 1.397-.126-.051-.253-.076-.38-.127.05-.457.127-.915.228-1.372.127.026.254.076.381.102zm-.661-.203c-.102.457-.203.914-.254 1.371-.127-.05-.229-.076-.356-.127.051-.457.127-.914.229-1.346zm-.686-.204c-.101.432-.178.89-.228 1.347-.127-.026-.254-.077-.381-.102.05-.457.152-.914.254-1.372zm-.66-.203c-.102.432-.203.89-.254 1.346a1.456 1.456 0 0 1 -.356-.101 8.67 8.67 0 0 1 .254-1.372c.102.026.229.076.356.127zm-.66-.228a9.29 9.29 0 0 0 -.255 1.422 1.02 1.02 0 0 0 -.38-.076c.05-.483.152-.965.253-1.448.127.05.254.076.381.102zm-.661-.178a7.283 7.283 0 0 0 -.28 1.448c-.126 0-.253-.026-.38-.051.05-.508.152-.99.279-1.499.127.051.254.076.381.102zm-.686-.153a8.025 8.025 0 0 0 -.28 1.524h-.38a7.053 7.053 0 0 1 .28-1.6zm3.328 2.769c-.077.432-.127.889-.178 1.346-.102-.05-.229-.127-.356-.152.051-.457.102-.89.178-1.321.127.05.254.076.356.127zm-.635-.229c-.077.432-.153.864-.178 1.296-.127-.051-.254-.102-.356-.153.026-.406.076-.838.178-1.244.127.025.229.076.356.101zm-.635-.203c-.102.407-.153.838-.204 1.245-.101-.051-.228-.076-.355-.127.05-.407.101-.813.178-1.22.127.026.254.077.38.102zm5.334-.38c-.102.609-.204 1.193-.28 1.803-.101-.026-.228-.077-.355-.102.076-.584.152-1.168.254-1.753.127.026.254.026.38.051zm-.686-.102a34.185 34.185 0 0 0 -.254 1.701l-.381-.152c.076-.533.152-1.067.254-1.6.127.025.254.025.38.05zm-.686-.127a16.8 16.8 0 0 0 -.229 1.574c-.127-.05-.254-.076-.38-.127.05-.508.152-1.016.253-1.524.102.026.229.051.356.077zm-.66-.178a31.763 31.763 0 0 0 -.254 1.524l-.356-.153c.05-.482.127-.965.229-1.447l.38.076zm-3.15 2.616c-.076.381-.127.889-.178 1.27l-.355-.102c.05-.431.101-.889.177-1.295.127.05.254.102.356.127zm-.635-.229c-.102.356-.152.915-.178 1.296-.127-.051-.254-.076-.38-.127.05-.356.1-.915.177-1.296.127.051.254.077.381.127zm2.388-.94c-.077.458-.127.94-.153 1.398a1.552 1.552 0 0 1 -.355-.178c.025-.432.076-.89.177-1.346.102.05.229.101.33.127zm.177 2.007a9.015 9.015 0 0 0 -.152 1.194c-.127-.05-.254-.127-.356-.178.026-.406.077-.787.153-1.168zm-.635-.28c-.076.382-.127.763-.177 1.144-.102-.051-.229-.102-.356-.153.05-.406.102-.787.178-1.168.127.076.228.127.355.178zm-.635-.279c-.101.356-.152.788-.177 1.169l-.356-.127c.025-.381.076-.838.178-1.194.101.05.228.102.355.152z" fill="#fff"/><path d="m19.279 7.637.685.025.686-1.803.66 1.829h.661l-.965-2.718-.686-.025zm4.52-.178 1.322.254-.102.534-1.956-.381.534-2.642 1.93.38-.102.534-1.32-.254-.102.508 1.32.254-.1.56-1.322-.28zm3.582-1.422.584.228-.38.89.914.38.38-.889.585.254-1.067 2.49-.559-.23.432-1.04-.914-.381-.432 1.04-.584-.253zm5.03 2.616.533.33-1.448 2.286-.533-.33.812-1.295-1.65.762-.534-.356 1.473-2.286.508.356-.813 1.295zm2.108 1.93.431.432-.685.686.71.686.661-.66.457.457-1.955 1.905-.432-.458.813-.787-.686-.711-.813.787-.432-.457z" fill="#fff"/><path d="m14.757.398c.458 0 .813.356.813.813a.742.742 0 0 1 -.05.228l-.763.229a.543.543 0 0 0 .204-.432.52.52 0 0 0 -.534-.533c-.152 0-.28.05-.38.127a.804.804 0 0 1 .71-.432z" fill="#fd5"/><path d="m13.64 5.199c-.026-.483.152-1.042.965-1.753l.203.737c-.28.762-.686.965-1.168 1.016zm1.041 2.87 1.067-.838.076.254-.736.406zm-.711-.254a14.697 14.697 0 0 1 1.55-1.27l.076.228c-.483.381-.966.762-1.474 1.194zm1.93 1.168.305-.178.076.204-.533.228zm.66.965c-.761.28-1.6.585-2.412.966.61-.508 1.448-.94 2.337-1.22zm-2.31-4.318c.177-.33.431-.61.761-.787l.254.838a1.526 1.526 0 0 1 -1.016-.05zm-1.144-.94c-1.447 1.093-1.65 1.753-1.473 2.337.61-.254 1.245-.482 1.473-2.336zm1.677 1.27c-1.524.051-1.88.509-2.058 1.017.66.05 1.245.127 2.058-1.016zm.914 1.982c-1.244.33-2.032.889-2.159 1.65.915.026 1.55-.33 2.16-1.65zm-1.27 1.88c-1.168.304-2.108.126-2.641 1.498 1.371.102 2.032-.838 2.641-1.499zm-4.775-1.678c-.33.356-.61.66-.864 1.067l-.152-.076c.178-.407.559-1.016.864-1.347zm1.778.94c-.178.076-.686.432-.838.559l-.254.05c.228-.28.432-.508.686-.736zm-.102-2.87c-1.346.965-1.219 1.498-1.27 2.057.585-.178 1.143-.508 1.27-2.057zm1.702.94c-1.575.406-2.083.965-2.108 1.6.635 0 1.27-.026 2.108-1.6zm.61.584c-.61.508-1.677 1.32-1.524 2.387 1.346-.28 1.473-1.702 1.524-2.387zm-7.163 2.997c-.533-.94-.127-1.778.533-2.616.153 1.016.204 2.006-.533 2.616zm1.93-2.82c-.71.585-1.168 1.296-1.041 2.109.838-.153 1.016-1.067 1.041-2.109zm3.353 1.499c-.762.584-1.803 1.372-1.397 2.54 1.092-.432 1.321-1.651 1.397-2.54zm1.016 2.083c-.889.076-2.413.533-2.641 1.575 1.117.05 2.133-.737 2.641-1.575zm-1.778 1.854c-.838.28-1.956.533-2.133 1.727 1.066.05 1.803-1.041 2.133-1.727zm-.99-2.565c-.737.965-1.321 1.98-.915 2.92.99-.761.965-1.092.915-2.92zm-5.131 3.48c-.66-.56-.559-1.5-.051-2.668.406.915.787 1.83.05 2.667zm.787-1.6c-.559-.737-.355-1.728.127-2.795.457 1.118.584 2.134-.127 2.794zm.635-.407c-.076-.788.407-1.499 1.778-2.032-.355 1.168-.914 1.93-1.778 2.032zm1.042-.076c-1.474.635-1.804 1.27-1.778 2.057.838-.152 1.27-.533 1.778-2.057zm2.26 2.971c-.635.229-1.6.966-1.829 1.83l.89.126c.584-.457.812-1.448.94-1.956zm-2.337 1.728c.305-.483.28-1.423.026-2.21-.432.736-.737 1.295-.737 2.083zm.94-1.194c.89-1.169.559-2.032.254-3.328-.457.94-1.041 2.337-.254 3.328zm-1.448-1.118c1.016-2.286 2.134-4.292 3.709-6.223l.28.203c-1.55 1.93-2.795 3.836-3.81 6.096zm-3.962 7.14 2.26-1.118 2.261 1.092-.355-2.49 1.727-1.802-2.464-.432-1.194-2.21-1.168 2.21-2.49.457 1.753 1.803zm1.168-5.207.28-1.982-.356-.177-.28 2.336zm.864-1.83-.28-.05-.076.66zm-2.083 8.662-.178.05c-.558-1.879-.889-3.555-1.143-5.51l.407.43c.228 1.728.432 3.303.914 5.03zm-.076-2.159a71.988 71.988 0 0 1 -.483-2.49l.407.407c.05.407.127.813.178 1.22zm2.388.026c.304 2.108.71 4.241 1.6 6.12l-.178.103c-.914-1.956-1.422-3.887-1.753-6.046zm2.438 6.756-.178.076c-.99-2.133-1.55-4.369-1.752-6.705l.38.177c.204 2.26.585 4.37 1.55 6.452zm.254-.813-.178.05a18.801 18.801 0 0 1 -1.092-5.435l.356.178c.101 1.753.33 3.556.914 5.207zm.66.203-.177.077c-.585-1.753-.991-3.455-1.042-5.31l.356.179c.076 1.778.305 3.378.863 5.054zm-1.346 4.09c-.686.127-1.448-.203-2.362-1.702 1.422.254 2.184.838 2.362 1.702zm-.127-1.143c-.711-.407-1.219-1.016-.838-2.591 1.22 1.473.94 1.956.838 2.59zm-1.244-.965c-.839.05-1.575-.356-2.083-1.778 1.524.431 2.032 1.066 2.083 1.778zm-.178-1.143c-.635-.33-.813-1.093-.381-2.464.787 1.244.787 1.98.38 2.464zm-1.118-.991c-.762.102-1.422-.508-2.006-1.778 1.6.61 1.93 1.194 2.006 1.778zm.051-.686c-.737-.66-.813-1.575-.203-2.794.533 1.169.635 2.108.203 2.794zm-.838-2.26c.305-.712 0-1.347-.534-1.93-.152.99.026 1.625.534 1.93zm-.203 1.066c-.915-.101-1.474-.762-1.651-2.159 1.168.635 1.778 1.347 1.65 2.16zm14.046 13.487-.356.152c-4.216-1.371-7.391-3.429-9.779-7.213l-.152-.737c2.464 4.166 5.715 6.35 10.287 7.798zm-1.143 1.016c-.61.101-1.169-.28-1.702-1.321 1.168.254 1.676.686 1.702 1.32zm-2.083-.153c-.813.407-1.702.356-2.769-.482 1.423-.407 2.286-.127 2.769.482zm-1.88-1.117c-.38.533-1.397.178-2.514-.33 1.041-.305 1.981-.407 2.514.33zm2.134.635c-.635.076-1.27-.33-1.778-1.702.838.305 1.651.61 1.778 1.702zm-1.93-1.092c-.686-.102-1.321-.407-1.753-1.778 1.118.457 1.702 1.04 1.753 1.778zm-1.88-1.194c-.864-.178-1.55-.711-1.778-2.134 1.067.584 1.727 1.296 1.778 2.134zm0 .61c-.635.507-1.55.1-2.565-.712 1.295-.127 2.336-.025 2.565.711zm-2.108-1.398c-.61.33-1.397.077-2.312-1.016 1.27-.025 2.109.254 2.312 1.016zm.076-.66c-.533-.254-1.067-.533-1.168-2.438 1.041.914 1.397 1.727 1.168 2.438zm-1.27-.864c-.838.051-1.397-.685-1.702-2.057 1.143.66 1.854 1.346 1.702 2.057zm3.607-2.895c-.203 1.473.254 2.032 1.041 2.235.153-.711-.203-1.422-1.041-2.235zm5.105 5.258c-.787.431-1.676.61-2.946-.432 1.575-.33 2.464-.102 2.946.432zm1.804 1.168c-.61.457-1.423.28-2.54-.61 1.117-.254 2.057-.203 2.54.61zm.61-.762c-1.042.152-1.576-.432-2.058-1.626 1.55.381 2.057.966 2.057 1.626zm-2.261-.99c-.788.126-1.397-.305-2.007-1.804 1.27.38 1.905.914 2.007 1.803zm-1.83-.407c-.533.406-1.422.229-2.615-.533 1.346-.204 2.336-.153 2.616.533zm-.253-.813c-.89-.101-1.499-.686-1.829-2.032 1.143.61 1.778 1.27 1.829 2.032zm-1.423-.305c-.685.407-1.524.305-2.794-.863 1.753 0 2.515.28 2.794.863zm-1.905-1.397c-.66.178-1.422-.05-2.489-1.473 1.677.127 2.337.686 2.49 1.473zm-.431-1.193c-.635-.305-1.143-.762-.864-2.566.889.94 1.32 1.804.864 2.566zm-1.347-.483c-.762-.152-1.447-.559-1.625-2.21 1.295.762 1.727 1.499 1.625 2.21zm.077-1.6c-.56-.203-1.118-.381-1.169-2.235 1.092.787 1.397 1.524 1.169 2.235zm8.864 10.668c-.635.686-1.473.66-2.438.28 1.016-.61 1.854-.737 2.438-.28zm.508-.584c-.813.228-1.498-.178-2.133-.991 1.117-.05 1.905.203 2.133.99zm-2.311.076c-.61.66-1.524.508-2.566 0 .94-.483 1.83-.66 2.566 0zm-5.131-.305.254-.102.457.305-.482.203zm2.083 3.683 3.937-1.6v.482l-3.709 1.499zm-1.651-2.946.787-.305.534.254-1.093.432zm.406.736 1.372-.559.584.254-1.727.686zm.407.737 2.057-.838.61.254-2.439.965zm.431.736 2.769-1.117.711.178-3.276 1.32zm19.431-3.378-.431-.178.584-.254zm-1.625 4.547-3.861-1.55.508-.28 3.505 1.398zm1.371-3.785-.965-.38.407-.331.71.28zm-.279.762-1.626-.66.56-.254 1.218.482zm-.28.737-2.438-.965.635-.23 1.956.788zm-.279.762-3.226-1.296.635-.228 2.744 1.117zm-.254.762-4.09-1.626.661-.228 3.582 1.422zm1.245-8.154c-1.651 1.499-3.607 2.617-5.97 3.455l.102.228c2.439-.838 4.47-2.006 6.173-3.581a1.432 1.432 0 0 0 -.305-.102zm-1.626 3.633c.457.33 1.677 0 2.312-.94-1.245-.026-2.007.254-2.312.94zm-2.032.228c.635 0 1.27-.33 1.829-1.6-.864.305-1.651.584-1.829 1.6zm.127.635c.686.508 1.499.203 2.312-.432-.94-.101-1.778-.203-2.312.432zm-2.032 0c.788.127 1.397-.254 1.778-1.32-1.194.33-1.778.787-1.778 1.32zm.127.737c.61.584 1.423.28 2.312-.305-.915-.305-1.728-.33-2.312.305zm.026-3.582c.584.026 1.27-.66 1.727-2.21-1.067.585-1.804 1.372-1.727 2.21zm-1.728.356c.94-.05 1.397-.686 1.83-1.854-1.449.584-1.83 1.27-1.83 1.854zm3.633-1.22c.889-.279 1.473-1.27 1.498-2.615-1.067.889-1.752 1.88-1.498 2.616zm-2.998 1.88c.483.407 1.194.305 2.185-.406-.94-.254-1.753-.254-2.185.406zm1.753-.914c.533.38 1.499.432 2.413-.356-1.067-.457-2.007-.254-2.413.356zm2.083-.838c.61.406 1.244-.153 2.387-.89-1.422-.228-2.311.33-2.387.89zm2.743 1.27c.559.482 1.295.152 2.21-.61-1.143-.101-2.007-.025-2.21.61zm-1.88.838c.66-.152 1.194-.381 1.524-1.778-1.092.533-1.524 1.041-1.524 1.778zm1.83-1.473c.507-.178.99-.457 1.295-1.042-.254-.127-.508-.203-.762-.304-.381.406-.61.863-.534 1.346zm1.6-.584c.279.228.634.254 1.04.101-.304-.127-.609-.254-.888-.38a.605.605 0 0 0 -.153.279zm6.273-15.063c-.178-.635.305-1.27.61-1.955.584 1.016.127 1.676-.61 1.955zm-.228 1.905c.71-.05 1.066-.558 1.27-1.955-1.245.889-1.397 1.447-1.27 1.955zm-.28 2.007c.711-.025 1.169-.559 1.372-1.981-1.245.787-1.524 1.371-1.372 1.98zm-.61 2.286c.712-.025 1.347-.813 1.347-2.007-1.245.864-1.473 1.423-1.346 2.007zm-.406 1.93c.711-.025 1.067-.533 1.397-1.803-1.244.787-1.524 1.194-1.397 1.803zm-.61 1.499c.382-.178.661-.432.813-1.143-.228.102-.406.178-.584.254zm-7.772-1.499a8.025 8.025 0 0 0 -.28 1.524h-.38a7.053 7.053 0 0 1 .28-1.6zm.686.153a7.283 7.283 0 0 0 -.28 1.448c-.126 0-.253-.026-.38-.051.05-.508.152-.99.279-1.499.127.05.254.076.381.102zm.66.178a9.29 9.29 0 0 0 -.254 1.422 1.02 1.02 0 0 0 -.38-.076c.05-.483.152-.965.253-1.448.127.05.254.076.381.102zm.66.228c-.1.432-.202.89-.253 1.346a1.456 1.456 0 0 1 -.356-.101 8.67 8.67 0 0 1 .254-1.372c.102.026.229.076.356.127zm.661.203c-.101.432-.178.89-.228 1.347-.127-.026-.254-.077-.381-.102.05-.457.152-.914.254-1.372zm.686.204c-.102.457-.203.914-.254 1.371-.127-.05-.229-.076-.356-.127.051-.457.127-.914.229-1.346zm.66.203c-.101.457-.177.94-.228 1.397-.127-.051-.254-.076-.381-.127.05-.457.127-.915.228-1.372.127.026.254.076.381.102zm.66.203a14.28 14.28 0 0 0 -.228 1.448l-.38-.127c.075-.483.152-.965.253-1.423.102.026.229.077.356.102zm.687.178a31.763 31.763 0 0 0 -.254 1.524l-.356-.153c.05-.482.127-.965.229-1.447l.38.076zm.66.178a16.8 16.8 0 0 0 -.229 1.574c-.127-.05-.254-.076-.38-.127.05-.508.152-1.016.253-1.524.102.026.229.051.356.077zm.686.127a34.185 34.185 0 0 0 -.254 1.701l-.381-.152c.076-.533.152-1.067.254-1.6.127.025.254.025.38.05zm.686.101c-.102.61-.204 1.194-.28 1.804-.101-.026-.228-.077-.355-.102.076-.584.152-1.168.254-1.753.127.026.254.026.38.051zm-5.995.203a8.79 8.79 0 0 0 -.178 1.22 2.116 2.116 0 0 0 -.38-.102c.05-.406.101-.813.177-1.22.127.026.254.052.381.102zm.66.178c-.101.407-.152.838-.203 1.245-.101-.051-.228-.076-.355-.127.05-.407.101-.813.178-1.22.127.026.254.077.38.102zm.636.203c-.077.432-.153.864-.178 1.296-.127-.051-.254-.102-.356-.153.026-.406.076-.838.178-1.244.127.025.229.076.356.101zm.635.229c-.077.432-.127.889-.178 1.346-.102-.05-.229-.127-.356-.152.051-.457.102-.89.178-1.321.127.05.254.076.356.127zm.635.229c-.077.457-.127.94-.153 1.397a1.552 1.552 0 0 1 -.355-.178c.025-.432.076-.89.177-1.346.102.05.229.101.33.127zm.66.254a9.023 9.023 0 0 0 -.178 1.447l-.355-.177c.025-.458.076-.966.177-1.423zm.635.228a15.773 15.773 0 0 0 -.152 1.499l-.381-.153c.05-.482.076-1.016.177-1.473zm.635.229a16.511 16.511 0 0 0 -.152 1.575 2.322 2.322 0 0 1 -.356-.178c.025-.457.076-1.042.152-1.524zm.635.254a16.266 16.266 0 0 0 -.152 1.6c-.102-.05-.229-.102-.356-.152a15.05 15.05 0 0 1 .152-1.575c.127.025.229.076.356.127zm-5.791-1.981c-.076.406-.127.812-.178 1.219-.127-.051-.254-.076-.356-.102.026-.406.077-.813.153-1.194l.38.077zm.838 1.955c-.102.356-.152.915-.178 1.296-.127-.051-.254-.076-.38-.127.05-.356.1-.915.177-1.296.127.051.254.077.381.127zm.635.229c-.076.38-.127.889-.178 1.27l-.355-.102c.05-.431.101-.889.177-1.295.127.05.254.102.356.127zm.66.28c-.101.355-.152.787-.177 1.168l-.356-.127c.025-.381.076-.838.178-1.194.101.05.228.102.355.152zm.635.279c-.076.38-.127.762-.177 1.143-.102-.051-.229-.102-.356-.153.05-.406.102-.787.178-1.168.127.076.228.127.355.178zm.635.28a9.015 9.015 0 0 0 -.152 1.193c-.127-.05-.254-.127-.356-.178.026-.406.077-.787.153-1.168zm.635.279a9.83 9.83 0 0 0 -.127 1.244l-.38-.203c.025-.406.076-.813.152-1.194zm.635.279c-.076.432-.101.864-.127 1.27l-.355-.178c.025-.406.05-.838.127-1.244zm-4.546-1.803c-.076.38-.153.914-.178 1.295-.127-.025-.254-.076-.381-.102.05-.38.102-.94.178-1.295.127.025.254.076.38.102zm-1.448-4.191c.66-1.93 1.956-3.506 3.404-5.614 2.057-2.946 4.445-6.502 5.359-9.677-.762-3.226-2.108-6.782-5.664-7.849-1.575-.508-2.997-1.32-4.318-2.21-1.93-1.295-4.14-1.905-6.426-1.371-1.93.432-3.937.254-5.842-.178l-.94.305 2.82 9.195c-.179.05-.331.101-.483.152l-2.896-9.55 1.499-.458c1.88.432 3.86.61 5.765.178 2.439-.559 4.649.05 6.706 1.448 1.32.889 2.743 1.702 4.293 2.159 3.378 1.016 5.156 4.75 5.943 7.925.686 2.768.838 5.562.584 8.433-.254 2.895-1.193 6.197-1.752 9.144-1.372-.102-3.074-.635-4.674-1.143-1.295-.407-2.54-.788-3.378-.89zm-3.962 14.452c-.28.356-.864.432-1.22.127l-4.42-4.038-.507.61-1.448-1.195 1.499-1.803 1.397-.025.61.533-.814.965 4.801 3.583c.33.355.457.812.102 1.244z" fill="#fc0"/><g fill="#a00"><path d="m6.655 19.118.305 2.082-1.905-.914-1.905.94.279-2.108-1.473-1.524 2.083-.381.99-1.854 1.016 1.854 2.083.381z"/><path d="m37.008 30.446c.584-2.92 1.498-5.842 1.752-8.788.229-2.388.127-4.8-.304-7.138-1.169 3.226-3.226 6.173-5.157 8.967-1.168 1.676-2.438 3.276-3.2 5.105 1.905.381 4.75 1.524 6.909 1.854zm-11.76 11.76c.254.229.304.635.076.89-.229.279-.61.304-.89.1-1.345-1.142-2.895-2.768-4.419-4.038l.432-.508c1.524 1.22 3.429 2.439 4.8 3.556zm-6.985-3.454 1.041.863 1.753-2.108-.356-.305-1.168.026z"/></g><path d="m25.019 40.606c-.381 1.397-1.727 2.388-3.2 2.286a3.167 3.167 0 0 1 -1.728-.61c-.127-.101-.254-.228-.38-.33a1.393 1.393 0 0 0 -.204.381c-.127.229-.228.458-.432.585a.915.915 0 0 1 -1.092-.051.913.913 0 0 1 -.05-1.27c.203-.203.457-.305.634-.508.127-.153.229-.33.305-.508l.915-.102c.177.254.431.457.66.635.406.28.914.407 1.372.356a2.09 2.09 0 0 0 1.727-1.321 2.116 2.116 0 0 0 -.711-2.311c-.534-.407-1.194-.508-1.83-.66.763-.458 1.576-.56 2.338-.23 1.397.585 2.057 2.261 1.676 3.658z" fill="#fff"/><path d="m25.019 40.606c-.381 1.397-1.727 2.388-3.2 2.286a3.167 3.167 0 0 1 -1.728-.61c-.127-.101-.254-.228-.38-.33a1.393 1.393 0 0 0 -.204.381c-.127.229-.228.458-.432.585a.915.915 0 0 1 -1.092-.051.913.913 0 0 1 -.05-1.27c.203-.203.457-.305.634-.508.127-.153.229-.33.305-.508l.915-.102c.177.254.431.457.66.635.406.28.914.407 1.372.356a2.09 2.09 0 0 0 1.727-1.321 2.116 2.116 0 0 0 -.711-2.311c-.534-.407-1.194-.508-1.83-.66.763-.458 1.576-.56 2.338-.23 1.397.585 2.057 2.261 1.676 3.658z" fill="#fc0"/><path d="m23.825 37.532c1.245 1.016 1.423 2.845.407 4.064a2.904 2.904 0 0 1 -4.09.407 6.577 6.577 0 0 0 -.432-.381c-.127.101-.203.177-.254.279-.152.203-.228.508-.406.711a.607.607 0 0 1 -.864.076c-.279-.228-.304-.61-.101-.889.178-.177.432-.304.635-.508.101-.101.203-.254.33-.482l.635-.051c.127.178.356.33.508.457.965.788 2.388.66 3.2-.305a2.288 2.288 0 0 0 -.304-3.2 3.547 3.547 0 0 0 -1.372-.61c.711-.228 1.448-.127 2.108.432z" fill="#a00"/><path d="m19.279 7.637.685.025.686-1.803.66 1.829h.661l-.965-2.718-.686-.025zm4.52-.178 1.322.254-.102.534-1.956-.381.534-2.642 1.93.38-.102.534-1.32-.254-.102.508 1.32.254-.1.56-1.322-.28zm3.582-1.422.584.228-.38.89.914.38.38-.889.585.254-1.067 2.49-.559-.23.432-1.04-.914-.381-.432 1.04-.584-.253zm5.03 2.616.533.33-1.448 2.286-.533-.33.812-1.295-1.65.762-.534-.356 1.473-2.286.508.356-.813 1.295zm2.108 1.93.431.432-.685.686.71.686.661-.66.457.457-1.955 1.905-.432-.458.813-.787-.686-.711-.813.787-.432-.457z" fill="#fff"/></svg>