<svg xmlns="http://www.w3.org/2000/svg" width="400pt" height="400pt" viewBox="0 0 400 400"><g fill="#ffd267"><path d="M196.49 0h6.9c36.27.64 72.33 11.21 103 30.63 30.54 19.21 55.75 46.8 72.03 79.01 13.7 26.8 20.93 56.77 21.58 86.83v6.11c-.46 30.64-7.78 61.24-21.9 88.48-15.05 29.44-37.58 54.93-64.74 73.75-2.43-8.99-10.23-15.45-12.03-24.73-2.11-6.18.55-12.92-1.54-19.01-1.71-.01-1.99 1.86-2.59 3.08-2.09 5.01-2.13 10.53-1.88 15.87.41 7.37-3.64 14.34-2.77 21.71 2.35 3.42 5.86.71 8.09-1.28.54-.06 1.61-.16 2.15-.22 1.61 3.02 2.8 6.3 2.7 9.77-3.88 2.26-7.76 4.51-11.66 6.72-1.98-1.05-3.87-2.28-5.81-3.38.53 1.82 1.04 3.66 1.71 5.44-24.25 12.21-51.01 19.3-78.11 20.87 2.04-2.12 4.82-4.28 4.69-7.56-.2-5.33-2.97-10.11-3.6-15.37 2.24-2.85 4.28-5.84 5.94-9.06 1.62-3.27 5.21-4.81 7.28-7.74 11.37-14.2 13.27-34.14 8.86-51.32 5.03-.57 9.62 1.91 14.4 3.01 21.43 5.73 44.41 5.44 65.7-.79 16.94-6.21 32.76-16.81 42.83-32.02 4.61-6.2 7.87-13.51 8.74-21.22.33-4.18.29-8.37.14-12.55-.16-6.07-3.82-11.22-5.12-17.03 1.59-2.24 2.74-5.07-.2-6.79l-.39-.43c-2.29 3.1-4.49 6.29-6.33 9.68-2.22-2.56-4.49-5.08-6.75-7.6 1.39-3.42 4.86-7.87 1.23-11.07-3.85 4.6-5.87 10.32-8.48 15.64-1.23-.22-2.45-.44-3.67-.66 4.41-3.35 6.64-8.65 9.67-13.13 7.8-13.54 12.61-28.64 16.37-43.73-11.02-1.55-22.06-3.08-32.98-5.26-8.81-1.82-17.93-2.68-26.2-6.43-13.01-5.77-26.16-11.3-39.8-15.43-18.67-5.78-37.92-12.48-57.77-10.09-4.81 1.24-9.51 5.09-9.54 10.44.09 9.09-1.83 18.1-.91 27.19-8.83-2.13-17.6-4.75-26.69-5.54-12.19-.91-24.71-.43-36.36 3.58-.41 2.93-1 5.82-1.58 8.72 1.04-9.68-.32-19.39.18-29.09.18-4.33-.88-9.86-5.59-11.36-10.29-3.25-20.8.88-30.69 3.6-15.09 3.23-29.45 8.99-44.1 13.69-12.17 3.74-24.97 4.05-37.53 5.43-1.73 5.37-.96 11.08-1.17 16.62-.35 7.24 1.6 14.23 3.75 21.06 2.95 12.23 7.8 25.11 18.45 32.68-.15.39-.44 1.17-.58 1.56-7.63 11.26-14.28 23.14-21.36 34.73-.84 2.45 1.72 3.17 3.58 2.55 2.59-2.33 4.35-5.41 5.98-8.44 3.85 8.07 6.21 17.28 13.18 23.41 1.15-.34 2.3-.67 3.46-.99-1.84 4.52-6.6 7.49-7.07 12.59-.54 4.27-1.17 9.12 1.49 12.85 1.95 2.79 4.53 5.51 7.94 6.36 3.68.3 7.39.33 11.07.05 4.64-1.82 5.36-7.37 3.89-11.58 12 3.71 24.69 4.56 37.15 3.36 8.59-1.39 17.03-3.65 25.34-6.23 2.67 12.19 8.2 23.47 12.26 35.21.91 3.24 3.73 6.36 2.42 9.87-2.17 7.47-2.12 15.32-1.84 23.03.2 8.15 2.93 16.31 7.97 22.76-1.24-.58-2.5-1.09-3.78-1.54-33.78-11.38-64.25-32.21-87.44-59.26C17.75 294.95.45 248.96 0 202.62v-6.05c.57-26.88 6.34-53.68 17.41-78.2 17.18-38.61 47.03-71.38 83.77-92.23C130.08 9.57 163.21.69 196.49 0m-62.5 34.38c-.48 3.84-1.05 7.68-1.29 11.54.28 4.41 1.8 8.64 2.03 13.06.47 2.95-1.7 5.31-2.59 7.96-2.63 7.13-3.91 14.67-5.25 22.12-.94 6.04-1.05 13.02 3.13 17.95 3.39 4 9.68 4.68 14 1.82 3.27-2 4.68-5.85 7.72-8.11 4.64-3.66 4.95-10.32 4.28-15.72-1.35-9.81.31-19.78 3.23-29.16-2.37 1.33-4.94 2.6-6.44 4.97-5.02 7.45-6.42 16.71-6.3 25.53-.69-1.47-1.38-2.93-2.08-4.39-1.52 2.55-2.85 5.47-1.62 8.43 2.36.08 6.69-.82 6.79 2.73 1.18 5.01-4.49 6.58-7.87 8.38-3.84 2.41-9.06-.63-10.27-4.62-.53-3.98.1-8.01.51-11.97.64-6.99 5.55-12.37 8.82-18.27.17 4.07-.79 8.31.61 12.24 1.11-7.59-.22-15.23.16-22.85.06-7.88-3.14-15.26-7.57-21.64m74.94 10.51c-3.95 5.01-7.64 10.65-8.52 17.1-.33 5.52 4.3 9.27 7.42 13.19 5.14 6.79 11.47 12.68 18.71 17.19 9.4 6.11 18.98 13.37 30.56 14.26 11.6 1.34 23.37 1.38 34.99.18 2.99-.56 6.49-.33 8.91-2.48-3.23-1.33-6.51-2.58-9.93-3.29-7.53-1.56-14.82-4.01-22.16-6.26-9.03-2.8-17.28-7.53-25.44-12.22-3.67-2.19-7.59-4.24-10.29-7.66-4.04-5-7.9-10.16-11.72-15.33-3.34-4.57-3.76-10.28-3.87-15.74-.84-.45-1.68-.91-2.51-1.38-2.15.38-4.74.5-6.15 2.44M117 47.06c-.72 1.24-2 2.4-1.75 3.98.19 3.22-.8 6.36-1.93 9.34-5.72 4.55-10.99 9.75-14.82 16.04-6.55 9.4-16.07 16.06-25.02 22.98-4.03 3.37-9.2 4.76-13.53 7.65-4.75 3.05-10.32 4.45-15.94 4.58 2.07 4.67 7.77 4.31 12.05 4.78 14.41 1.02 26.96-7.28 39.57-12.95 4.27-1.68 7.28-5.25 10.48-8.36 5.07-5.24 10.47-10.28 14.36-16.5 2.37-4.6 3.69-9.65 5.84-14.34 1.43-3.22 2.87-7.03 1.03-10.38-1.34-4.46-5.68-7.41-10.34-6.82m173.29 321.91c.79.99 1.64 1.95 2.5 2.89.91-1.36 1.73-2.8 1.92-4.46-1.63.11-3.71-.41-4.42 1.57z"/><path d="M212.47 181.93c-.04-3.92-1.14-8.45 1.48-11.81 4.85.79 9.57 2.14 14.41 2.99.36 9.25 1.71 18.91 6.72 26.89 8.04 11.95 22.84 18.14 36.97 17.6 19.04.23 37.73-11.93 45.2-29.42 7.68.51 15.17 2.34 22.57 4.35-.08 1.57-.08 3.19-.69 4.67-2.23 5.45-4.61 10.98-8.5 15.49-4.95 6.13-11.82 10.18-17.89 15.06-3.63 3.01-8.37 4-12.75 5.41-7.65 1.06-15.12 3.86-22.95 3.16-9.6-1.07-19.71-.49-28.66-4.71-5.43-2.17-9.83-6.08-14.13-9.92-11.95-9.86-19.63-24.49-21.78-39.76zm-113.4-6.64c4.72-.6 9.46-.98 14.15-1.75 4.25 8.04 1.84 17.64-1.21 25.67-6.37 16.89-24.33 27.55-42.04 27.37-6.83-.11-14.15-.44-19.98-4.45-8.91-5.26-14.29-14.59-18.03-23.93-1.4-4.23-2.56-8.68-2.2-13.17 1.21-.49 2.28-1.23 3.23-2.12 2.48-.26 4.96-.41 7.45-.57 1.45 6.49 2.02 13.56 6.11 19.07 3.37 4.44 7.72 8.73 13.46 9.66 7.76 1.11 16.37.78 22.98-3.96 10.58-6.81 15.3-19.74 16.08-31.82zm84.51 223.69c8.82-3.8 16.91-9.18 23.7-16 0 .78-.01 2.33-.01 3.1-1.58 1.55-3.55 2.78-4.64 4.76.35 3.55 2.18 7 5.12 9.09l-1.26.07h-9.83c-4.37-.22-8.73-.57-13.08-1.02z"/></g><g fill="#fff"><path d="M133.99 34.38c4.43 6.38 7.63 13.76 7.57 21.64-.38 7.62.95 15.26-.16 22.85-1.4-3.93-.44-8.17-.61-12.24-3.27 5.9-8.18 11.28-8.82 18.27-.41 3.96-1.04 7.99-.51 11.97 1.21 3.99 6.43 7.03 10.27 4.62 3.38-1.8 9.05-3.37 7.87-8.38-.1-3.55-4.43-2.65-6.79-2.73-1.23-2.96.1-5.88 1.62-8.43.7 1.46 1.39 2.92 2.08 4.39-.12-8.82 1.28-18.08 6.3-25.53 1.5-2.37 4.07-3.64 6.44-4.97-2.92 9.38-4.58 19.35-3.23 29.16.67 5.4.36 12.06-4.28 15.72-3.04 2.26-4.45 6.11-7.72 8.11-4.32 2.86-10.61 2.18-14-1.82-4.18-4.93-4.07-11.91-3.13-17.95 1.34-7.45 2.62-14.99 5.25-22.12.89-2.65 3.06-5.01 2.59-7.96-.23-4.42-1.75-8.65-2.03-13.06.24-3.86.81-7.7 1.29-11.54zm220.57 196.08c1.84-3.39 4.04-6.58 6.33-9.68l.39.43c-.73 3.33-1.31 6.69-1.68 10.09-2.37 11.96.48 25.24-6.07 36.16-3.64 6.53-12.13 10.35-19.2 7.26-3.27-1.52-5.42-4.59-6.83-7.79-.2-3.11-.3-6.24-.05-9.35 2.11-8.51 3.51-17.17 5.13-25.79 1.07-1.96 2.41-3.79 4.31-5.02 1.22.22 2.44.44 3.67.66.89 1.12 1.76 2.26 2.6 3.43 2.42 8.62.52 17.52-1.11 26.08-.46 2.43-.8 4.88-1.13 7.33 4.23 1.71 6.92-2.66 8.21-6.01 3.43-6.71 3.18-14.38 4.07-21.67.31-2.08.69-4.14 1.36-6.13zM44.72 261.12c.24.11.73.32.97.43 1.96 7.32 1.15 14.99.47 22.42-1.17 5.94 1.73 11.54 3.11 17.18.14-2.62.29-5.24.51-7.84 2.81 2.61 5.09 5.79 6.2 9.5 1.47 4.21.75 9.76-3.89 11.58-3.68.28-7.39.25-11.07-.05-3.41-.85-5.99-3.57-7.94-6.36-2.66-3.73-2.03-8.58-1.49-12.85.47-5.1 5.23-8.07 7.07-12.59 2.81-6.49 5.07-13.31 5.89-20.37l.17-1.05zm89.48 12.27c8.91-9.23 22.75-11 34.89-9.15 8.09 1.46 16.12 4.01 23.06 8.5.88.53 1.55 1.25 2.03 2.16-4.61 1.57-9.33 2.75-14.12 3.65-7.92 2.18-15.85 4.49-24.04 5.33-4.47.82-9.11-.03-13.3-1.66-3.66-1.99-5.98-5.66-8.52-8.83zm55.69 46.81c3.55-2.19 6-5.89 10.05-7.29-.88 5.7-6.49 8.66-11.06 11.18-.61.2-1.85.6-2.46.8.45-2.03 1.78-3.59 3.47-4.69zm107.31 3.95c.6-1.22.88-3.09 2.59-3.08 2.09 6.09-.57 12.83 1.54 19.01 1.8 9.28 9.6 15.74 12.03 24.73 1.67 8.43-3.25 18.32-12.24 19.75-4.79 1.16-8.62-2.38-11.39-5.78-.67-1.78-1.18-3.62-1.71-5.44 1.94 1.1 3.83 2.33 5.81 3.38 2.79-.1 5.92.32 8.38-1.32 1.93-1.14 2.47-3.48 3.28-5.4.1-3.47-1.09-6.75-2.7-9.77-.54.06-1.61.16-2.15.22-2.23 1.99-5.74 4.7-8.09 1.28-.87-7.37 3.18-14.34 2.77-21.71-.25-5.34-.21-10.86 1.88-15.87zm-81.98 18.04c1.95-4.64 1.39-9.88 3.11-14.6.02 3.71-.7 7.44-.06 11.14.73 4.25.95 8.8-.72 12.87-1.45 3.48-5.46 5.81-4.81 10.03-.06 5.03-.25 10.06-.03 15.09.63 5.26 3.4 10.04 3.6 15.37.13 3.28-2.65 5.44-4.69 7.56-1.29.09-2.58.2-3.87.28-2.94-2.09-4.77-5.54-5.12-9.09 1.09-1.98 3.06-3.21 4.64-4.76 0-.77.01-2.32.01-3.1-.21-4.62-.51-9.24-.48-13.86-.68-2.13-2.33-3.68-3.88-5.19-1.25.6-2.51 1.19-3.77 1.8-.14 5.77-3.08 11.28-7.75 14.66-2.65 1.94-6.12 1.29-9.18 1.41 1.29-1.81 2.33-4.04 4.41-5.09 1.74-.46 3.56-.47 5.35-.62 3.56-3.82 6.7-8.55 6.61-13.97-.36-2.13 1.92-2.77 3.34-3.64 1.35-3.54 2.6-7.43 5.77-9.8 2.57-2.07 6.16-3.23 7.52-6.49zm-31.71-12.32c.21-.1.64-.28.85-.38-.11 4.45 1.5 11.22-3.56 13.47-1.28-1.81-1.04-4.03-.9-6.1 1.07-2.39 2.15-4.81 3.61-6.99zm-18.79 6.83c.72-2.34 1.73-4.57 2.67-6.82.05 5.06 1.12 10.12.45 15.18-.45 4.57-4.11 7.81-6.22 11.67-.59-.06-1.78-.18-2.38-.25.83-3.03 2.43-5.73 4-8.43 1.99-3.48.36-7.66 1.48-11.35zm9.86 26.69c-.83-3.56 2.06-6.01 4.28-8.28-.15 2.86-.02 5.87-1.49 8.44-.93-.06-1.86-.11-2.79-.16zm-31.79-3.65c.88-.24 1.77-.39 2.68-.46.41 5.88-.51 11.76.13 17.64-1.64-1.72-4.05-3.3-4.16-5.92-.23-3.75-.56-7.87 1.35-11.26z"/><path d="M290.29 368.97c.71-1.98 2.79-1.46 4.42-1.57-.19 1.66-1.01 3.1-1.92 4.46-.86-.94-1.71-1.9-2.5-2.89zm-119.98 4.47c1.53-1.22 2.9 1.48 1.46 2.42-1.53 1.24-2.96-1.52-1.46-2.42zm-16.47 7.81c2.46.26 4.94.31 7.41.14.77.95 1.9 1.85 1.51 3.24-1.99.86-4.26 1.36-6.4.84-1.69-.77-2.1-2.62-2.52-4.22z"/></g><g fill="#624407"><path d="M208.93 44.89c1.41-1.94 4-2.06 6.15-2.44.83.47 1.67.93 2.51 1.38.11 5.46.53 11.17 3.87 15.74 3.82 5.17 7.68 10.33 11.72 15.33 2.7 3.42 6.62 5.47 10.29 7.66 8.16 4.69 16.41 9.42 25.44 12.22 7.34 2.25 14.63 4.7 22.16 6.26 3.42.71 6.7 1.96 9.93 3.29-2.42 2.15-5.92 1.92-8.91 2.48-11.62 1.2-23.39 1.16-34.99-.18-11.58-.89-21.16-8.15-30.56-14.26-7.24-4.51-13.57-10.4-18.71-17.19-3.12-3.92-7.75-7.67-7.42-13.19.88-6.45 4.57-12.09 8.52-17.1zM117 47.06c4.66-.59 9 2.36 10.34 6.82 1.84 3.35.4 7.16-1.03 10.38-2.15 4.69-3.47 9.74-5.84 14.34-3.89 6.22-9.29 11.26-14.36 16.5-3.2 3.11-6.21 6.68-10.48 8.36-12.61 5.67-25.16 13.97-39.57 12.95-4.28-.47-9.98-.11-12.05-4.78 5.62-.13 11.19-1.53 15.94-4.58 4.33-2.89 9.5-4.28 13.53-7.65 8.95-6.92 18.47-13.58 25.02-22.98 3.83-6.29 9.1-11.49 14.82-16.04 1.13-2.98 2.12-6.12 1.93-9.34-.25-1.58 1.03-2.74 1.75-3.98zm79.64 96.08c.03-5.35 4.73-9.2 9.54-10.44 19.85-2.39 39.1 4.31 57.77 10.09 13.64 4.13 26.79 9.66 39.8 15.43 8.27 3.75 17.39 4.61 26.2 6.43 10.92 2.18 21.96 3.71 32.98 5.26-3.76 15.09-8.57 30.19-16.37 43.73-3.03 4.48-5.26 9.78-9.67 13.13-1.9 1.23-3.24 3.06-4.31 5.02-7.88 7.12-17.4 12.25-27.44 15.6-2.03.62-4.07 1.21-6.12 1.72-7.12 1.65-14.42 3-21.75 2.52-1.72-.1-3.42-.22-5.12-.33-7.24-.37-14.67-.51-21.36-3.66-1.58-.62-3.17-1.21-4.76-1.76-4.86-1.5-9.37-3.86-13.72-6.44-1.36-.79-2.7-1.6-4-2.48-9.6-6.85-17.74-15.87-22.76-26.61-.94-1.92-1.81-3.88-2.63-5.85-4.51-10.83-6.68-22.47-7.19-34.17-.92-9.09 1-18.1.91-27.19m15.83 38.79c2.15 15.27 9.83 29.9 21.78 39.76 4.3 3.84 8.7 7.75 14.13 9.92 8.95 4.22 19.06 3.64 28.66 4.71 7.83.7 15.3-2.1 22.95-3.16 4.38-1.41 9.12-2.4 12.75-5.41 6.07-4.88 12.94-8.93 17.89-15.06 3.89-4.51 6.27-10.04 8.5-15.49.61-1.48.61-3.1.69-4.67-7.4-2.01-14.89-3.84-22.57-4.35-7.47 17.49-26.16 29.65-45.2 29.42-14.13.54-28.93-5.65-36.97-17.6-5.01-7.98-6.36-17.64-6.72-26.89-4.84-.85-9.56-2.2-14.41-2.99-2.62 3.36-1.52 7.89-1.48 11.81zM95 140.24c9.89-2.72 20.4-6.85 30.69-3.6 4.71 1.5 5.77 7.03 5.59 11.36-.5 9.7.86 19.41-.18 29.09-1.02 9.72-2.74 19.49-6.55 28.55-4 8.92-10.49 16.89-18.98 21.88-4.8 2.77-9.54 5.63-14.27 8.5-2.24 1.11-4.62 1.92-7.06 2.46-4.36.88-8.72 1.87-13.17 2.1-4.94.27-9.81-.71-14.66-1.49-1.52-.26-3.05-.5-4.58-.76-6.75-.53-11.97-5.12-17.43-8.61-10.65-7.57-15.5-20.45-18.45-32.68-2.15-6.83-4.1-13.82-3.75-21.06.21-5.54-.56-11.25 1.17-16.62 12.56-1.38 25.36-1.69 37.53-5.43 14.65-4.7 29.01-10.46 44.1-13.69m4.07 35.05c-.78 12.08-5.5 25.01-16.08 31.82-6.61 4.74-15.22 5.07-22.98 3.96-5.74-.93-10.09-5.22-13.46-9.66-4.09-5.51-4.66-12.58-6.11-19.07-2.49.16-4.97.31-7.45.57-.95.89-2.02 1.63-3.23 2.12-.36 4.49.8 8.94 2.2 13.17 3.74 9.34 9.12 18.67 18.03 23.93 5.83 4.01 13.15 4.34 19.98 4.45 17.71.18 35.67-10.48 42.04-27.37 3.05-8.03 5.46-17.63 1.21-25.67-4.69.77-9.43 1.15-14.15 1.75zm50.09 79.33c9.61-1.63 19.53-2.01 29.22-.85 1.93.31 3.86.69 5.77 1.16 10.57 3.16 20.39 8.85 28.82 15.95 1.28 1.15 2.51 2.36 3.73 3.59a63.42 63.42 0 0 1 11.74 16.86l.41.98c2.33 5.3 4.13 10.8 5.94 16.29 4.41 17.18 2.51 37.12-8.86 51.32-2.07 2.93-5.66 4.47-7.28 7.74-1.66 3.22-3.7 6.21-5.94 9.06-.22-5.03-.03-10.06.03-15.09 1.92-1.37 3.95-2.73 5.22-4.78 10.74-16.22 11.55-37.87 3.91-55.51-7.4-.37-14.99-.14-21.94 2.74-4.76 1.51-8.48 4.95-12.77 7.33-1.54.57-5.17 1.03-4.76-1.5 1.75-2.7 4.02-5.02 6-7.55-4.85.19-9.91-.2-14.51 1.6-16.19 7.78-27.93 23.41-32.14 40.74-3.56 10.99-4.23 23.13-.73 34.22 2.44 7.69 9.56 13.24 17.44 14.44 8.51 1.19 17.46-.1 25.1-4.11 9.33-4.56 17.09-11.85 23.24-20.13-.03 4.62.27 9.24.48 13.86-6.79 6.82-14.88 12.2-23.7 16 4.35.45 8.71.8 13.08 1.02H153c-5.33-1.72-10.04-5-13.72-9.19-5.04-6.45-7.77-14.61-7.97-22.76-.28-7.71-.33-15.56 1.84-23.03 1.31-3.51-1.51-6.63-2.42-9.87-4.06-11.74-9.59-23.02-12.26-35.21-.83-6.24-.65-12.66.67-18.83 3.1-11.65 12.82-20.68 23.92-24.8 2.01-.66 4.04-1.23 6.1-1.69m-14.96 18.77c2.54 3.17 4.86 6.84 8.52 8.83 4.19 1.63 8.83 2.48 13.3 1.66 8.19-.84 16.12-3.15 24.04-5.33 4.79-.9 9.51-2.08 14.12-3.65a5.412 5.412 0 0 0-2.03-2.16c-6.94-4.49-14.97-7.04-23.06-8.5-12.14-1.85-25.98-.08-34.89 9.15z"/><path d="M173.42 339.25c3.17-8.12 10.08-13.78 14.9-20.8.4.44 1.18 1.31 1.57 1.75-1.69 1.1-3.02 2.66-3.47 4.69.61-.2 1.85-.6 2.46-.8-1.21 1.66-2.38 3.35-3.59 5.02l-.93.38c-.21.1-.64.28-.85.38-1.46 2.18-2.54 4.6-3.61 6.99l-1.07 1.63c-.09 3.29-2.28 5.97-3.35 8.98-2.13 5.57-4.43 11.29-8.74 15.58-1.23-5.93.7-11.74 3.02-17.12-.11-8.09 1.15-16.09 1.85-24.13 1.14.73 1.89 1.83 1.84 3.24.44 4.73-.08 9.47-.03 14.21z"/></g><g fill="#ffa55d"><path d="M132.68 168.37c11.65-4.01 24.17-4.49 36.36-3.58 9.09.79 17.86 3.41 26.69 5.54.51 11.7 2.68 23.34 7.19 34.17-6.68 12.39-12.48 25.21-18.55 37.9-1.78 3.9-3.1 8.1-5.99 11.37-9.69-1.16-19.61-.78-29.22.85 11.14-25.8 23.64-50.99 35.56-76.43-.65-.79-1.31-1.58-1.96-2.36-3.14 3.42-5.02 7.68-7.09 11.77-11.36 22.66-23.38 45.06-32.61 68.71-11.1 4.12-20.82 13.15-23.92 24.8-1.32 6.17-1.5 12.59-.67 18.83-8.31 2.58-16.75 4.84-25.34 6.23-12.46 1.2-25.15.35-37.15-3.36-1.11-3.71-3.39-6.89-6.2-9.5-.22 2.6-.37 5.22-.51 7.84-1.38-5.64-4.28-11.24-3.11-17.18.68-7.43 1.49-15.1-.47-22.42-.24-.11-.73-.32-.97-.43 3.7-7.43 8.19-14.48 11.69-22.03 4.85.78 9.72 1.76 14.66 1.49 4.45-.23 8.81-1.22 13.17-2.1-6.35 14.33-13.76 28.17-20.27 42.43-1.17 2.46-1.59 5.16-1.87 7.85.68 0 2.04-.01 2.72-.01 9.17-17.4 17.88-35.04 26.48-52.73 4.73-2.87 9.47-5.73 14.27-8.5 8.49-4.99 14.98-12.96 18.98-21.88 3.81-9.06 5.53-18.83 6.55-28.55.58-2.9 1.17-5.79 1.58-8.72m21.99 1.31c-15.1 27.31-28.95 55.29-42.61 83.34-6.06 12.39-10.68 25.48-17.54 37.46-.92 1.2.09 2.41.61 3.51 2.29-1.23 4.1-3.14 5.31-5.43 4.41-7.87 7.8-16.24 11.85-24.28 13.9-28.92 28.57-57.47 42.57-86.34 1.3-3.14 3.82-6.07 3.68-9.61-1.04-2.11-3.33-.11-3.87 1.35zm50.88 40.67c5.02 10.74 13.16 19.76 22.76 26.61-5.51 11.13-10.26 22.6-15.34 33.92-8.43-7.1-18.25-12.79-28.82-15.95 6.9-14.96 13.63-30.04 21.4-44.58zm137.61 20.51c1.79-2.52 3.33-5.21 4.65-8 2.26 2.52 4.53 5.04 6.75 7.6-.67 1.99-1.05 4.05-1.36 6.13-1.63 3.18-3.49 6.25-4.89 9.56-1.75 3.77-2.89 8.07-6.26 10.79 1.63-8.56 3.53-17.46 1.11-26.08z"/><path d="M359.6 231.3c.6-1.12 1.25-2.2 1.88-3.3 1.3 5.81 4.96 10.96 5.12 17.03.15 4.18.19 8.37-.14 12.55-.87 7.71-4.13 15.02-8.74 21.22-10.07 15.21-25.89 25.81-42.83 32.02-21.29 6.23-44.27 6.52-65.7.79-4.78-1.1-9.37-3.58-14.4-3.01-1.81-5.49-3.61-10.99-5.94-16.29 1.13-.38 2.26-.75 3.39-1.12 5.74-14.7 12.52-28.97 18.55-43.55 6.69 3.15 14.12 3.29 21.36 3.66-4.74 11.1-9.73 22.09-14.76 33.06-2.78 6.06-6.73 12.18-6.12 19.13.62.06 1.86.16 2.47.21 2.49-6.58 5.57-12.89 8.88-19.08 4.96-10.96 10.56-21.66 14.65-32.99 7.33.48 14.63-.87 21.75-2.52-5.43 14.88-11.86 29.48-15.5 44.94-.38 1.73 2.17 1.43 3.18 2.02 1.13-2.35 2.27-4.72 3.13-7.19 4.53-14.03 10.67-27.49 15.31-41.49 10.04-3.35 19.56-8.48 27.44-15.6-1.62 8.62-3.02 17.28-5.13 25.79-4.7 8.33-8.7 17.04-12.92 25.62.93.61 2.51 2.35 3.52.92 3.79-5.32 7.17-11.05 9.45-17.19 1.41 3.2 3.56 6.27 6.83 7.79 7.07 3.09 15.56-.73 19.2-7.26 6.55-10.92 3.7-24.2 6.07-36.16zm-325.2-1.58c5.46 3.49 10.68 8.08 17.43 8.61-4.51 8.29-9.18 16.48-13.82 24.69-2.61 4.81-7.04 9.01-6.95 14.87.65-.05 1.95-.16 2.6-.22 3.6-5.18 6.98-10.53 10.89-15.5-.82 7.06-3.08 13.88-5.89 20.37-1.16.32-2.31.65-3.46.99-6.97-6.13-9.33-15.34-13.18-23.41 4.59-9.06 10.46-17.41 14.81-26.59-1.01-.75-2.02-1.49-3.01-2.25.14-.39.43-1.17.58-1.56zm197.91 9.72c4.35 2.58 8.86 4.94 13.72 6.44-5.94 15.11-13.71 29.6-17.59 45.45a63.42 63.42 0 0 0-11.74-16.86c5.3-11.63 10.27-23.41 15.61-35.03z"/></g><path fill="#ff755f" d="M154.67 169.68c.54-1.46 2.83-3.46 3.87-1.35.14 3.54-2.38 6.47-3.68 9.61-14 28.87-28.67 57.42-42.57 86.34-4.05 8.04-7.44 16.41-11.85 24.28-1.21 2.29-3.02 4.2-5.31 5.43-.52-1.1-1.53-2.31-.61-3.51 6.86-11.98 11.48-25.07 17.54-37.46 13.66-28.05 27.51-56.03 42.61-83.34zm21 17.92c2.07-4.09 3.95-8.35 7.09-11.77.65.78 1.31 1.57 1.96 2.36-11.92 25.44-24.42 50.63-35.56 76.43-2.06.46-4.09 1.03-6.1 1.69 9.23-23.65 21.25-46.05 32.61-68.71zm8.7 54.8c6.07-12.69 11.87-25.51 18.55-37.9.82 1.97 1.69 3.93 2.63 5.85-7.77 14.54-14.5 29.62-21.4 44.58-1.91-.47-3.84-.85-5.77-1.16 2.89-3.27 4.21-7.47 5.99-11.37zm156.19-14.97c2.61-5.32 4.63-11.04 8.48-15.64 3.63 3.2.16 7.65-1.23 11.07-1.32 2.79-2.86 5.48-4.65 8-.84-1.17-1.71-2.31-2.6-3.43zm20.72-6.22c2.94 1.72 1.79 4.55.2 6.79-.63 1.1-1.28 2.18-1.88 3.3.37-3.4.95-6.76 1.68-10.09zm-348.82 44.8c7.08-11.59 13.73-23.47 21.36-34.73.99.76 2 1.5 3.01 2.25-4.35 9.18-10.22 17.53-14.81 26.59-1.63 3.03-3.39 6.11-5.98 8.44-1.86.62-4.42-.1-3.58-2.55zm71.78-27.53c2.44-.54 4.82-1.35 7.06-2.46-8.6 17.69-17.31 35.33-26.48 52.73-.68 0-2.04.01-2.72.01.28-2.69.7-5.39 1.87-7.85 6.51-14.26 13.92-28.1 20.27-42.43zm144.07-1.52c1.3.88 2.64 1.69 4 2.48-5.34 11.62-10.31 23.4-15.61 35.03-1.22-1.23-2.45-2.44-3.73-3.59 5.08-11.32 9.83-22.79 15.34-33.92zm120 9.19c1.4-3.31 3.26-6.38 4.89-9.56-.89 7.29-.64 14.96-4.07 21.67-1.29 3.35-3.98 7.72-8.21 6.01.33-2.45.67-4.9 1.13-7.33 3.37-2.72 4.51-7.02 6.26-10.79zm-296.48-7.82c1.53.26 3.06.5 4.58.76-3.5 7.55-7.99 14.6-11.69 22.03l-.17 1.05c-3.91 4.97-7.29 10.32-10.89 15.5-.65.06-1.95.17-2.6.22-.09-5.86 4.34-10.06 6.95-14.87 4.64-8.21 9.31-16.4 13.82-24.69zm194.2 7.55c1.59.55 3.18 1.14 4.76 1.76-6.03 14.58-12.81 28.85-18.55 43.55-1.13.37-2.26.74-3.39 1.12l-.41-.98c3.88-15.85 11.65-30.34 17.59-45.45zm52.99 3.23c2.05-.51 4.09-1.1 6.12-1.72-4.64 14-10.78 27.46-15.31 41.49-.86 2.47-2 4.84-3.13 7.19-1.01-.59-3.56-.29-3.18-2.02 3.64-15.46 10.07-30.06 15.5-44.94zm-26.87 2.19c1.7.11 3.4.23 5.12.33-4.09 11.33-9.69 22.03-14.65 32.99-3.31 6.19-6.39 12.5-8.88 19.08-.61-.05-1.85-.15-2.47-.21-.61-6.95 3.34-13.07 6.12-19.13 5.03-10.97 10.02-21.96 14.76-33.06zm42.38 31.9c4.22-8.58 8.22-17.29 12.92-25.62-.25 3.11-.15 6.24.05 9.35-2.28 6.14-5.66 11.87-9.45 17.19-1.01 1.43-2.59-.31-3.52-.92z"/><path fill="#ff8fa2" d="M199.93 304.08c6.95-2.88 14.54-3.11 21.94-2.74 7.64 17.64 6.83 39.29-3.91 55.51-1.27 2.05-3.3 3.41-5.22 4.78-.65-4.22 3.36-6.55 4.81-10.03 1.67-4.07 1.45-8.62.72-12.87-.64-3.7.08-7.43.06-11.14-1.72 4.72-1.16 9.96-3.11 14.6-1.36 3.26-4.95 4.42-7.52 6.49-3.17 2.37-4.42 6.26-5.77 9.8-1.42.87-3.7 1.51-3.34 3.64.09 5.42-3.05 10.15-6.61 13.97-1.79.15-3.61.16-5.35.62-2.08 1.05-3.12 3.28-4.41 5.09 3.06-.12 6.53.53 9.18-1.41 4.67-3.38 7.61-8.89 7.75-14.66 1.26-.61 2.52-1.2 3.77-1.8 1.55 1.51 3.2 3.06 3.88 5.19-6.15 8.28-13.91 15.57-23.24 20.13-7.64 4.01-16.59 5.3-25.1 4.11-7.88-1.2-15-6.75-17.44-14.44-3.5-11.09-2.83-23.23.73-34.22 4.21-17.33 15.95-32.96 32.14-40.74 4.6-1.8 9.66-1.41 14.51-1.6-1.98 2.53-4.25 4.85-6 7.55-.41 2.53 3.22 2.07 4.76 1.5 4.29-2.38 8.01-5.82 12.77-7.33m-10.04 16.12c-.39-.44-1.17-1.31-1.57-1.75-4.82 7.02-11.73 12.68-14.9 20.8-.05-4.74.47-9.48.03-14.21.05-1.41-.7-2.51-1.84-3.24-.7 8.04-1.96 16.04-1.85 24.13-2.32 5.38-4.25 11.19-3.02 17.12 4.31-4.29 6.61-10.01 8.74-15.58 1.07-3.01 3.26-5.69 3.35-8.98l1.07-1.63c-.14 2.07-.38 4.29.9 6.1 5.06-2.25 3.45-9.02 3.56-13.47l.93-.38c1.21-1.67 2.38-3.36 3.59-5.02 4.57-2.52 10.18-5.48 11.06-11.18-4.05 1.4-6.5 5.1-10.05 7.29m-25.17 16.5c-1.12 3.69.51 7.87-1.48 11.35-1.57 2.7-3.17 5.4-4 8.43.6.07 1.79.19 2.38.25 2.11-3.86 5.77-7.1 6.22-11.67.67-5.06-.4-10.12-.45-15.18-.94 2.25-1.95 4.48-2.67 6.82m9.86 26.69c.93.05 1.86.1 2.79.16 1.47-2.57 1.34-5.58 1.49-8.44-2.22 2.27-5.11 4.72-4.28 8.28m-31.79-3.65c-1.91 3.39-1.58 7.51-1.35 11.26.11 2.62 2.52 4.2 4.16 5.92-.64-5.88.28-11.76-.13-17.64-.91.07-1.8.22-2.68.46m27.52 13.7c-1.5.9-.07 3.66 1.46 2.42 1.44-.94.07-3.64-1.46-2.42m-16.47 7.81c.42 1.6.83 3.45 2.52 4.22 2.14.52 4.41.02 6.4-.84.39-1.39-.74-2.29-1.51-3.24-2.47.17-4.95.12-7.41-.14z"/></svg>