<svg xmlns="http://www.w3.org/2000/svg" width="72" height="62"><path fill="#ce1126" d="M72 54a8 8 0 0 1-8 8H8a8 8 0 0 1-8-8V18a8 8 0 0 1 8-8h56a8 8 0 0 1 8 8z"/><path fill="#0038a8" d="M64 10H8a8 8 0 0 0-8 8v18h72V18a8 8 0 0 0-8-8z"/><path fill="#eee" d="M2.626 59.89l35.436-23.762L2.66 12.082C1.038 13.546 0 15.644 0 18v36c0 2.342 1.024 4.428 2.626 5.89z"/><path fill="#fcd116" d="M32.14 33.04l.086 2.306 2.23.588-2.166.792.13 2.304-1.424-1.816-2.15.834 1.286-1.914-1.46-1.786 2.22.632zM3.206 15.964l1.732 1.526 1.96-1.214-.916 2.118 1.76 1.49-2.296-.216-.874 2.132-.502-2.25-2.302-.172 1.986-1.172zm.862 34.426l1.148 2 2.248-.514-1.548 1.708 1.188 1.978L5 54.618 3.486 56.36l.246-2.296-2.122-.9 2.256-.476zM20 36a6 6 0 1 1-12 0 6 6 0 0 1 12 0z"/><path fill="#fcd116" d="M15.19 25.194l-.314 5.296-.488-.072.17-6.148-.558-.364-.558.364.17 6.148-.488.072-.314-5.296-.706.436.658 5.394h2.476l.658-5.394zm-2.38 21.612l.314-5.296.488.072-.172 6.148.56.364.558-.364-.17-6.148.488-.072.314 5.296.706-.436-.658-5.396h-2.476l-.658 5.396zm-7.294-4.008l3.97-3.518.292.392-4.466 4.226.136.654.654.138 4.226-4.47.394.294-3.522 3.97.808.188 3.35-4.278-.876-.876-.876-.876-4.278 3.35zM22.484 29.2l-3.97 3.522-.292-.394 4.466-4.226-.136-.654-.654-.138-4.226 4.468-.394-.292 3.522-3.97-.808-.188-3.35 4.278.876.876.876.876 4.278-3.35zm-19.29 5.61l5.298.314-.074.488-6.148-.172-.364.56.364.558 6.148-.17.074.488-5.298.314.436.706 5.394-.658V34.76l-5.394-.656zm21.612 2.38l-5.298-.314.074-.488 6.148.17.364-.558-.364-.56-6.148.172-.074-.488 5.298-.314-.436-.706-5.396.656v2.478l5.396.658zM7.2 27.516l3.522 3.97-.394.292-4.226-4.468-.654.138-.136.654 4.466 4.226-.292.394-3.97-3.522-.188.808 4.278 3.35.876-.876.876-.876-3.35-4.278zm13.6 16.968l-3.522-3.97.394-.294 4.226 4.47.654-.138.136-.654-4.466-4.226.292-.392 3.97 3.518.188-.806-4.278-3.35-.876.876-.876.876 3.35 4.278z"/><path fill="#f4900c" d="M72 20.054c0-2.176-.387-4.263-1.098-6.194-.485 5.689-3.518 8.611-6.687 7.25-2.969-1.275-.968-6.246-.82-8.618.249-4.021-.013-8.623-7.317-12.45 3.035 5.806.352 9.413-2.463 9.633-3.122.243-5.982-2.684-4.926-7.434-3.418 2.519-3.518 6.758-2.463 9.5 1.1 2.859-.044 5.234-2.727 5.498-2.998.296-4.663-3.21-3.127-8.796a17.872 17.872 0 0 0-4.263 11.611C36.109 29.966 44.143 38 54.054 38 63.966 38 72 29.966 72 20.054z"/><path fill="#ffcc4d" d="M65.027 25.332c.156 3.255-2.704 4.531-4.243 3.915-2.223-.89-1.627-2.419-2.199-5.585-.572-3.167-2.771-5.366-6.025-6.334 2.375 6.685-1.317 9.149-3.252 9.589-1.976.45-3.961-.001-4.188-4.23a12.627 12.627 0 0 0-3.733 8.979c0 .389.024.771.058 1.151A17.88 17.88 0 0 0 54.054 38a17.88 17.88 0 0 0 12.61-5.183c.034-.38.058-.762.058-1.151 0-2.308-.617-4.471-1.695-6.334z"/></svg>