<svg xmlns="http://www.w3.org/2000/svg" width="263pt" height="293pt" viewBox="0 0 263 293"><path d="M85.8 3.7C88.5 1.28 92.3-.4 95.94.68c6.01 1.71 10.57 6.33 14.66 10.82 14.75 16.88 29.55 33.73 44.29 50.63.91.94 1.78 2.13 3.2 2.25 16.31 2.31 33.14 6.24 46.5 16.39.62 1.81 1.99 3.22 3.91 3.58 4.52 5.04 7.81 11.7 6.82 18.62-1.6 12.76-9.82 23.56-19.18 31.88-1.07 1.05-2.61 1.73-3.25 3.14.22 1.18.47 2.35.75 3.52.13.64.4 1.92.54 2.56-.23 2.34-.99 5.18.67 7.17l.61.52c11.09.4 22.19.24 33.28.47 8.49.92 17.05.89 25.58.65 4.15.84 7.62 3.87 8.68 8.03v5.63c-.82 7.68-8.53 12.02-15.6 12.4-5.2.04-10.41.05-15.57.86l-.6.04c-6.53.09-13.07.23-19.52 1.3-6.56.6-13.25.15-19.66 1.85-.69 2.18-1.45 4.33-2.1 6.52-1.29 1.38-2 3.13-1.98 5.04-6.11 14.16-16.13 26.9-29.41 34.94-7.33 4.47-15.58 7.27-24.04 8.61-3.27-.05-6.57-.09-9.74.79-.48.06-1.42.17-1.9.22-.84 6.7 6.49 9.51 9.29 14.54 1.57 2.32.44 5.28-1.44 7.03-2.67 2.92-6.92 4.73-7.94 8.88-1.09 3.46-.65 7.12-.71 10.69-.52 1.39-1.77 2.29-2.85 3.23-2.29-1.08-4.83-.76-7.23-.32-2.48-.26-5.23-1.18-7.56.17-3.92 2.56-5.74 7.91-10.53 9.17-5.3-.3-7.89-6.29-12.93-7.36-5.3-.13-9.2 5.86-14.64 4.4-5.35-2.41-6.94-8.99-11.92-11.86-1.64-.73-3.49-.65-5.24-.64-3.31.01-6.61.15-9.92.23-1.15-.59-2.25-1.29-3.36-1.95-.57-2.09-1.56-4-2.85-5.71-.59-2.07-1.29-4.1-2.02-6.11-.38-1.68-1.54-3.14-3.21-3.65-3.78-1.77-8-2.25-11.78-4-2.84-1.38-4.09-4.58-3.93-7.6.56-3.89 1.74-8 .24-11.82-2.4-4.78-8.24-7.13-9.66-12.44.01-6.02 7.39-7.6 9.68-12.43 1.25-4.33-.35-9.23 1.78-13.35 1.77-2.82 5.55-2.55 8.43-2.26 3.49.84 7.27 1.82 10.75.38 2.45-2.64 4.17-5.83 6.26-8.74-7.84-5.15-16.29-11.58-17.68-21.57.33-1.39.29-2.78-.11-4.15.35-1.42.71-2.85 1.06-4.27-9.15-6.6-19.18-14.05-21.84-25.71a74.38 74.38 0 0 1-.03-9.79c1.37-6.29 4.69-11.95 8.84-16.81 1.95-1.7 3.79-3.51 5.48-5.47 10.11-8.78 22.08-15.11 34.4-20.19 2.06-.59 2.65-2.75 3.44-4.47 8.34-19.66 16.72-39.29 24.96-58.99C80 11.67 82.04 6.99 85.8 3.7m-2.3 16.67a2116.6 2116.6 0 0 0-7.54 20.64c-1.28 3.67-2.49 7.37-3.94 10.98-2.35 5.79-4.19 11.77-6.53 17.57-.67 1.48-.87 3.09-.97 4.69 8.74-2.58 17.53-5.09 26.52-6.62 5.2-.72 10.46-1.49 15.56-2.76-.13-.48-.38-1.45-.51-1.94.35.44 1.06 1.31 1.41 1.74 5.03-.02 9.98-1.3 15.02-1.12.96-.19 2.89-.58 3.85-.78 2.75.52 5.61.36 8.36-.09 1.4.74 2.91.93 4.56.55 1.79-.05 3.59-.08 5.38-.06.06-3.38-3.67-5.01-5.16-7.81-2.79-3.16-5.5-6.38-8.38-9.46-4.62-6.02-9.92-11.48-14.63-17.42 0-1.21-3.09-1.28-1.32-1.99-1.41-1.13-2.74-3.45-4.85-2.97.14-1.33-.24-2.56-1.11-3.68l-2.51 2.38 2.15-3.59-1.57 1.23c.55-2.24-1.43-3.75-2.67-5.27-3.21-2.85-6.92-6.41-11.63-5.36-5.02 1.51-7.67 6.61-9.49 11.14m18.36 54.92c-23.92 3.72-47.81 10.35-68.62 23.03-6.86 4.57-13.7 9.77-17.76 17.12-3.53 6.1-3.28 14.36 1.21 19.92 2.15 3.45 6.46 5.23 10.42 4.8 4.42-.68 4.97-5.73 7.08-8.84.89-1.19 2.07-2.14 2.89-3.38 2.02-3.57 5.92-5.32 8.67-8.23 4.07-2.77 8.42-5.07 12.8-7.3 4.71-2.21 9.59-4.03 14.55-5.57 9.27-2.86 18.77-5 28.37-6.37 4.6-.85 9.37-.74 13.91-1.69 9.45-.61 18.89-1.44 28.37-1.24 4.61.22 9.23.09 13.82.69l-.17-.65c3.6 1.05 7.39.82 11.03 1.69 2.81.66 5.63 1.3 8.53 1.46 2.48 1.87 5.69 2.39 8.32 4.03 4.49 2.49 7.41 7.23 8.12 12.26-.24.8-.7 2.4-.94 3.2.63.28 1.88.85 2.51 1.13 4.67-1.32 7.05-6.13 9.25-10.06 3.14-5.83 3.16-13.3-.83-18.74-7.06-9.05-18.44-12.99-29.15-15.79-23.7-5.6-48.42-4.88-72.38-1.47m27.75 33.58l.25.38c-4.53-.14-9.07.17-13.56.75-8.24.47-16.45 2.09-24.48 4.06l-.4 1.32c11.74 1.89 25.15 6.91 30.02 18.73-1.54 1.21-3.11-.21-4.49-.93-4.77-2.88-10.01-5.1-15.49-6.15-6.52-1.54-13.41-1.58-19.91.03-8.75 1.66-17.26 6.37-22.12 14.02-5.24 8.28-5.86 18.52-5.02 28.03 1.72 15.58 8.27 30.84 19.33 42.07 9.85 10.01 23.4 16.31 37.32 17.73 7.87 1.17 16.01 1.26 23.88.03 19.24-2.15 35.74-15.97 43.77-33.25 1.63-4.02 3.9-7.98 4.04-12.4-3.77.07-7.53.3-11.3.5-10.83.63-21.67 1.34-32.51 1.79-4.72.49-4.68-8.37-.07-8.3 5.44-.19 10.84-.87 16.29-.91 7.11-.76 14.28-.57 21.39-1.27 7.03-.1 14.11-.47 21.12-1.08 16.4-.31 32.89-1.54 49.32-2.26 3.42-.09 7.13-.54 9.7-3.05 1.3-2.36 1.85-5.56.09-7.82-1.49-1.42-3.72-1.76-5.7-1.68-28.16.37-56.35-.5-84.49-.34-4.55-.29-9.11-.14-13.66-.25-5.29-.1-10.59.15-15.87-.19-3.78-1.01-1.97-7.99 1.87-7.35 7.45-.04 14.92.18 22.35.01 8.64.42 17.29.41 25.93.32.13-1.59.09-3.16-.12-4.73-.46-5.71-1.41-11.56-4.09-16.68-3.79-6.45-12.36-7.72-19.11-6.33-5.42 1.01-9.61 4.72-13.91 7.86l-1.53-.17c3.72-11.78 16.84-19.55 28.98-17.09l.67-1.34c-3.98-1.46-8.2-2.52-12.41-2.81-11.03-1.6-22.26-1.77-33.37-1.15-.68-.02-2.04-.07-2.71-.1m-97.78 50.15c-2.64 4.47-1.72 10.55 1.65 14.4 4.33 4.98 10.3 8.27 16.43 10.5l.86-.18c.36-3.42-1.34-6.78-1.64-10.2-.09-4.31-4.26-7.11-8.16-7.65-.3.51-.88 1.54-1.17 2.06 2.16 1.79 4.29 4.06 4.27 7.06-2.23.27-1.83-2.7-3.46-3.49-2.17-1.39-5.44-2.38-5.48-5.5.27-3.64 4.84-5.02 7.88-4.05 1.68.06 3.9 2.11 4.94-.03.78-3.07-2.44-4.23-4.64-5.21-3.76-1.73-9.08-1.53-11.48 2.29m12.6 34.34c-3.37 1.81-4.25 5.87-6.76 8.48-4.29 2.22-9.04-1.25-13.46.19-3.56 3.02-1.02 8.34-2.52 12.28-2.31 3.41-6.24 5.27-8.44 8.75-.41 5.76 6.51 7.79 8.59 12.53.95 4.9-2.45 10.95 1.58 14.94 3.23 1.76 6.98 2.46 10.51 3.39 5.39 3.03 5.04 9.91 8.38 14.49 5.48 2.48 11.83-1.2 17.07 2.03 3.15 2.77 4.86 7.04 8.62 9.09 4.89 1.58 8.44-3.94 13.18-3.59 4.19.99 6.54 5.29 10.71 6.31 4.36-.78 5.81-5.7 9.35-7.8 4.38-2.04 9.16 1.38 13.61-.2 2.92-2.44 1.55-6.8 1.83-10.11.44-5.26 7.1-5.76 8.31-10.4-.64-4.49-4.87-7.04-7.47-10.37-.61-1.48-1.14-3-1.28-4.6-3.16-.19-6.27-.82-9.42-1.03-2.09 1.58-3.78 4.04-4.31 6.65-.07 7.37-6.51 13.23-13.48 14.41-11.25 2-22.56-2.63-31.54-9.16-6-4.74-11.17-10.78-13.75-18.07-2.06-5.84-1.15-12.9 3.45-17.29 2.09-2.28 5.66-2.69 7.29-5.42.69-1.17 1.5-2.26 2.36-3.31-2.14-4.32-4.47-8.55-6.66-12.84-1.93-.01-3.99-.35-5.75.65m11.18 30.46c1.33 7.48 7.06 13.32 13.32 17.17 6.65 4.13 15.13 6.84 22.79 3.94l-.04-.54c1.68-.34 3.32-1.93 3.7-3.6l.42-.01c1.08-1.5 2.54-2.94 2.66-4.9-14.3-4.02-27.47-12.29-36.65-24.04-3.46 2.8-6.72 7.27-6.2 11.98z"/><path d="M168.44 133.38c3.92-2.82 9.88-.62 11.39 3.86 2.82 5.76-3.82 13-9.79 10.38-6.01-1.94-7.03-10.99-1.6-14.24z"/><path fill="#3a76bc" d="M83.5 20.37c1.82-4.53 4.47-9.63 9.49-11.14 4.71-1.05 8.42 2.51 11.63 5.36-1.29 2.62-2.49 5.29-3.82 7.89-3.58-.59-7.16-1.2-10.76-1.64 2.52 2.69 5.2 5.22 7.78 7.85-1.74 3.23-3.42 6.49-4.98 9.82 3.34-1.67 6.58-3.51 9.94-5.12 2.5 2.56 5.03 5.09 7.58 7.6-.16-3.65-1.08-7.19-1.65-10.79 2.23-1.08 4.56-2.1 6.47-3.71-1.77.71 1.32.78 1.32 1.99 4.71 5.94 10.01 11.4 14.63 17.42-.3 1-.61 1.98-.93 2.97-3.67-.53-7.32-1.12-10.99-1.66 2.55 2.65 5.2 5.22 7.83 7.8-1.3 2.95-2.9 5.76-4.52 8.54-5.04-.18-9.99 1.1-15.02 1.12-.35-.43-1.06-1.3-1.41-1.74l-.27-.65c3.29-1.2 6.36-2.89 9.49-4.44-3.6-.87-7.28-1.28-10.94-1.74-.58-3.48-1.22-6.95-1.82-10.43-2.3 2.7-3.23 6.21-4.96 9.26-3.63-.41-7.24-.91-10.83-1.57 2.4 2.74 5.08 5.2 7.73 7.69-1.01 2.26-2.23 4.42-3.45 6.58-8.99 1.53-17.78 4.04-26.52 6.62.1-1.6.3-3.21.97-4.69 2.34-5.8 4.18-11.78 6.53-17.57 2.51 2.24 4.93 4.57 7.31 6.95-.61-3.68-1.29-7.35-1.9-11.02 3.3-1.72 6.65-3.35 9.96-5.05-3.81-.62-7.64-1.12-11.43-1.86a2116.6 2116.6 0 0 1 7.54-20.64zm42.87 42.4c1.87-.95 3.71-1.98 5.51-3.05.89 1.04 1.8 2.08 2.85 2.96-2.75.45-5.61.61-8.36.09zm-24.51 12.52c23.96-3.41 48.68-4.13 72.38 1.47 10.71 2.8 22.09 6.74 29.15 15.79 3.99 5.44 3.97 12.91.83 18.74-2.2 3.93-4.58 8.74-9.25 10.06-.63-.28-1.88-.85-2.51-1.13.24-.8.7-2.4.94-3.2.82.46 1.64.92 2.47 1.38-.75-3.58-1.5-7.15-1.77-10.8 3.26-1.56 6.49-3.18 9.71-4.82-3.65-.7-7.33-1.25-11.01-1.73-.62-3.72-1.2-7.44-1.76-11.17-1.68 3.39-3.38 6.78-5.03 10.19-3.59-.61-7.18-1.14-10.79-1.62.44.57 1.3 1.71 1.74 2.28-2.9-.16-5.72-.8-8.53-1.46-3.64-.87-7.43-.64-11.03-1.69-.19-.84-.35-1.69-.48-2.55 3.21-1.73 6.55-3.22 9.6-5.23-3.57-.58-7.17-.93-10.74-1.52-.63-3.62-1.2-7.25-1.8-10.88-1.73 3.25-3.35 6.56-4.97 9.87-3.67-.55-7.33-1.22-11.02-1.62 2.67 2.57 5.35 5.12 8.01 7.71-.77 1.38-1.52 2.77-2.25 4.18-9.48-.2-18.92.63-28.37 1.24.06-.55.19-1.63.26-2.17 3.02-1.93 6.38-3.24 9.46-5.07-3.61-.59-7.22-1.16-10.85-1.62-.59-3.7-1.29-7.37-1.99-11.05-1.61 3.35-3.18 6.72-4.88 10.02-3.6-.54-7.21-1.04-10.8-1.67 2.52 2.7 5.16 5.29 7.89 7.79-1.01 1.82-2 3.64-3 5.46-9.6 1.37-19.1 3.51-28.37 6.37.23-.48.68-1.45.91-1.93 3.06-1.51 6.09-3.07 9.07-4.74-3.63-.53-7.24-1.1-10.87-1.58-.55-3.7-1.17-7.39-2.08-11.02-2.01 3.13-3.61 6.47-5.14 9.85-3.66.05-7.5-2.15-11-.65 2.56 2.42 5.1 4.86 7.61 7.34-1.46 2.97-2.98 5.91-4.53 8.84l1.48-.54c-4.38 2.23-8.73 4.53-12.8 7.3-3.03.09-6.02-.41-8.99-.92-.58-3.69-1.13-7.39-1.75-11.08-1.67 3.38-3.34 6.76-5.03 10.14-3.61-.68-7.26-1.18-10.91-1.6 2.65 2.57 5.35 5.1 7.96 7.73-1.69 3.25-3.39 6.5-4.97 9.81 3.31-1.59 6.52-3.35 9.77-5.06.79.86 1.57 1.72 2.36 2.59-2.11 3.11-2.66 8.16-7.08 8.84-3.96.43-8.27-1.35-10.42-4.8-4.49-5.56-4.74-13.82-1.21-19.92 4.06-7.35 10.9-12.55 17.76-17.12 20.81-12.68 44.7-19.31 68.62-23.03z"/><path fill="#dde9f5" d="M104.62 14.59c1.24 1.52 3.22 3.03 2.67 5.27l1.57-1.23-2.15 3.59 2.51-2.38c.87 1.12 1.25 2.35 1.11 3.68 2.11-.48 3.44 1.84 4.85 2.97-1.91 1.61-4.24 2.63-6.47 3.71.57 3.6 1.49 7.14 1.65 10.79-2.55-2.51-5.08-5.04-7.58-7.6-3.36 1.61-6.6 3.45-9.94 5.12 1.56-3.33 3.24-6.59 4.98-9.82-2.58-2.63-5.26-5.16-7.78-7.85 3.6.44 7.18 1.05 10.76 1.64 1.33-2.6 2.53-5.27 3.82-7.89z"/><path fill="#e3ecf3" d="M75.96 41.01c3.79.74 7.62 1.24 11.43 1.86-3.31 1.7-6.66 3.33-9.96 5.05.61 3.67 1.29 7.34 1.9 11.02-2.38-2.38-4.8-4.71-7.31-6.95 1.45-3.61 2.66-7.31 3.94-10.98z"/><path fill="#dee9f8" d="M97.59 54.93c1.73-3.05 2.66-6.56 4.96-9.26.6 3.48 1.24 6.95 1.82 10.43 3.66.46 7.34.87 10.94 1.74-3.13 1.55-6.2 3.24-9.49 4.44l.27.65c.13.49.38 1.46.51 1.94-5.1 1.27-10.36 2.04-15.56 2.76 1.22-2.16 2.44-4.32 3.45-6.58-2.65-2.49-5.33-4.95-7.73-7.69 3.59.66 7.2 1.16 10.83 1.57z"/><path fill="#deeaf6" d="M131.13 45.9c2.88 3.08 5.59 6.3 8.38 9.46-.4.48-1.18 1.45-1.58 1.93.46 1.98.91 3.96 1.36 5.94-1.65.38-3.16.19-4.56-.55-1.05-.88-1.96-1.92-2.85-2.96-1.8 1.07-3.64 2.1-5.51 3.05-.96.2-2.89.59-3.85.78 1.62-2.78 3.22-5.59 4.52-8.54-2.63-2.58-5.28-5.15-7.83-7.8 3.67.54 7.32 1.13 10.99 1.66.32-.99.63-1.97.93-2.97zm-23.75 42.99c1.7-3.3 3.27-6.67 4.88-10.02.7 3.68 1.4 7.35 1.99 11.05 3.63.46 7.24 1.03 10.85 1.62-3.08 1.83-6.44 3.14-9.46 5.07-.07.54-.2 1.62-.26 2.17-4.54.95-9.31.84-13.91 1.69 1-1.82 1.99-3.64 3-5.46-2.73-2.5-5.37-5.09-7.89-7.79 3.59.63 7.2 1.13 10.8 1.67z"/><path fill="#3378c9" d="M139.51 55.36c1.49 2.8 5.22 4.43 5.16 7.81-1.79-.02-3.59.01-5.38.06-.45-1.98-.9-3.96-1.36-5.94.4-.48 1.18-1.45 1.58-1.93z"/><path fill="#dee9f6" d="M149.01 87.27c1.62-3.31 3.24-6.62 4.97-9.87.6 3.63 1.17 7.26 1.8 10.88 3.57.59 7.17.94 10.74 1.52-3.05 2.01-6.39 3.5-9.6 5.23.13.86.29 1.71.48 2.55l.17.65c-4.59-.6-9.21-.47-13.82-.69.73-1.41 1.48-2.8 2.25-4.18-2.66-2.59-5.34-5.14-8.01-7.71 3.69.4 7.35 1.07 11.02 1.62z"/><path fill="#121212" d="M204.59 80.77c1.91.4 3.3 1.75 3.91 3.58-1.92-.36-3.29-1.77-3.91-3.58z" opacity=".51"/><path fill="#dee8f7" d="M64.99 97.42c1.53-3.38 3.13-6.72 5.14-9.85.91 3.63 1.53 7.32 2.08 11.02 3.63.48 7.24 1.05 10.87 1.58-2.98 1.67-6.01 3.23-9.07 4.74-.23.48-.68 1.45-.91 1.93-4.96 1.54-9.84 3.36-14.55 5.57l-1.48.54c1.55-2.93 3.07-5.87 4.53-8.84-2.51-2.48-5.05-4.92-7.61-7.34 3.5-1.5 7.34.7 11 .65z"/><path fill="#dfe9f6" d="M191.04 89.88c.56 3.73 1.14 7.45 1.76 11.17 3.68.48 7.36 1.03 11.01 1.73-3.22 1.64-6.45 3.26-9.71 4.82.27 3.65 1.02 7.22 1.77 10.8-.83-.46-1.65-.92-2.47-1.38-.71-5.03-3.63-9.77-8.12-12.26-2.63-1.64-5.84-2.16-8.32-4.03-.44-.57-1.3-1.71-1.74-2.28 3.61.48 7.2 1.01 10.79 1.62 1.65-3.41 3.35-6.8 5.03-10.19z"/><path fill="#131313" d="M9.83 105.29c1.5-2.14 3.35-3.96 5.48-5.47-1.69 1.96-3.53 3.77-5.48 5.47z" opacity=".49"/><path fill="#dee9f7" d="M29.98 117.85c1.69-3.38 3.36-6.76 5.03-10.14.62 3.69 1.17 7.39 1.75 11.08 2.97.51 5.96 1.01 8.99.92-2.75 2.91-6.65 4.66-8.67 8.23-.82 1.24-2 2.19-2.89 3.38-.79-.87-1.57-1.73-2.36-2.59-3.25 1.71-6.46 3.47-9.77 5.06 1.58-3.31 3.28-6.56 4.97-9.81-2.61-2.63-5.31-5.16-7.96-7.73 3.65.42 7.3.92 10.91 1.6z"/><path fill="#e8d5b3" d="M129.61 108.87c.67.03 2.03.08 2.71.1 5.04 1.88 10.44.8 15.67 1.09 5.9.07 11.91 2.03 17.7.06 4.21.29 8.43 1.35 12.41 2.81l-.67 1.34c-12.14-2.46-25.26 5.31-28.98 17.09l1.53.17c4.3-3.14 8.49-6.85 13.91-7.86 6.75-1.39 15.32-.12 19.11 6.33 2.68 5.12 3.63 10.97 4.09 16.68-.46 1.06-.94 2.11-1.43 3.16-8.12.71-16.48-1.59-24.38 1.25-7.43.17-14.9-.05-22.35-.01-3.84-.64-5.65 6.34-1.87 7.35 5.28.34 10.58.09 15.87.19-3.07 4.47-.89 10.18-1.06 15.18 1.11.84 2.2 1.7 3.29 2.57-5.45.04-10.85.72-16.29.91-4.61-.07-4.65 8.79.07 8.3 10.84-.45 21.68-1.16 32.51-1.79.75 4.79 3.37 9.02 7.26 11.9-8.03 17.28-24.53 31.1-43.77 33.25-4.48-1.62-9.24-.56-13.86-.83-3.37-.16-6.79-.38-10.02.8-13.92-1.42-27.47-7.72-37.32-17.73-11.06-11.23-17.61-26.49-19.33-42.07-.84-9.51-.22-19.75 5.02-28.03 4.86-7.65 13.37-12.36 22.12-14.02 6.62.63 13.29.7 19.91-.03 5.48 1.05 10.72 3.27 15.49 6.15 1.38.72 2.95 2.14 4.49.93-4.87-11.82-18.28-16.84-30.02-18.73l.4-1.32c8.03-1.97 16.24-3.59 24.48-4.06 4.69 1.74 9.73.9 14.59.75-.26-.38-.77-1.13-1.03-1.5zm38.83 24.51c-5.43 3.25-4.41 12.3 1.6 14.24 5.97 2.62 12.61-4.62 9.79-10.38-1.51-4.48-7.47-6.68-11.39-3.86m-87.27 5.8c-5.36 1.91-7.16 9.65-2.9 13.55 3.87 4.47 11.77 2.69 13.6-2.85 3.02-6.2-4.5-13.67-10.7-10.7m3.24 26.42c-9.54 1.52-16.18 12.47-12.59 21.56 2.55 8.95 13.74 13.98 22.1 9.92 7.82-2.88 12.04-12.55 9.28-20.31-2.28-7.72-10.9-12.85-18.79-11.17m56.55 33.38c-4.25 1.62-8.89 1.72-13.3.73.65-.18 1.97-.56 2.63-.74l-.72-.75c-5.47-.9-12.11-1.28-16.46 2.85-5.95 4.95-4.58 16.03 2.5 19.3 2.26 1.03 5.64 3.12 7.65.64 11.48.58 23.59-5.71 28.56-16.29 1.26-2.56 1.78-6.85-1.69-7.87-3.2-.6-6.17 1.29-9.17 2.13z"/><path fill="#fbeccc" d="M132.32 108.97c11.11-.62 22.34-.45 33.37 1.15-5.79 1.97-11.8.01-17.7-.06-5.23-.29-10.63.79-15.67-1.09z"/><path fill="#fcecce" d="M116.3 110c4.49-.58 9.03-.89 13.56-.75.26.37.77 1.12 1.03 1.5-4.86.15-9.9.99-14.59-.75z"/><path fill="#0d0d0d" d="M0 123.14l.99-1.04c-.2 3.26-.2 6.53.03 9.79L0 130.72z" opacity=".48"/><path fill="#ddd1ba" d="M81.55 127.06c6.5-1.61 13.39-1.57 19.91-.03-6.62.73-13.29.66-19.91.03z"/><path fill="#131313" d="M192.89 137.99c.64-1.41 2.18-2.09 3.25-3.14-1.94 1.7-2.88 4.08-2.5 6.66-.28-1.17-.53-2.34-.75-3.52z" opacity=".68"/><path fill="#000001" d="M81.17 139.18c6.2-2.97 13.72 4.5 10.7 10.7-1.83 5.54-9.73 7.32-13.6 2.85-4.26-3.9-2.46-11.64 2.9-13.55zm59.79 59.8c3-.84 5.97-2.73 9.17-2.13 3.47 1.02 2.95 5.31 1.69 7.87-4.97 10.58-17.08 16.87-28.56 16.29-4.01-.61-8.31-2.14-10.51-5.79-2.65-3.98-2.02-9.75 1.57-12.95 3.49-3.46 8.84-3.13 13.34-2.56 4.41.99 9.05.89 13.3-.73z"/><path fill="#171717" d="M194.18 144.07c1.27 2.19 1.42 4.77.67 7.17-1.66-1.99-.9-4.83-.67-7.17z" opacity=".39"/><path fill="#fbefd2" d="M185.66 149.84c.49-1.05.97-2.1 1.43-3.16.21 1.57.25 3.14.12 4.73-8.64.09-17.29.1-25.93-.32 7.9-2.84 16.26-.54 24.38-1.25z"/><path fill="#111110" d="M228.74 152.23c8.5.08 17.2-1.11 25.58.65-8.53.24-17.09.27-25.58-.65z" opacity=".57"/><path fill="#ebd8b4" d="M31.83 159.02c2.4-3.82 7.72-4.02 11.48-2.29 2.2.98 5.42 2.14 4.64 5.21-1.04 2.14-3.26.09-4.94.03-3.04-.97-7.61.41-7.88 4.05.04 3.12 3.31 4.11 5.48 5.5 1.63.79 1.23 3.76 3.46 3.49.02-3-2.11-5.27-4.27-7.06.29-.52.87-1.55 1.17-2.06 3.9.54 8.07 3.34 8.16 7.65.3 3.42 2 6.78 1.64 10.2l-.86.18c-6.13-2.23-12.1-5.52-16.43-10.5-3.37-3.85-4.29-9.93-1.65-14.4z"/><path fill="#edbb9b" d="M152.93 158.62c4.55.11 9.11-.04 13.66.25-3.09.83-6.2 1.56-9.27 2.45.55 4.08.65 8.24.14 12.34 6.34 1.02 12.84-.31 19.09 1.44-7.11.7-14.28.51-21.39 1.27-1.09-.87-2.18-1.73-3.29-2.57.17-5-2.01-10.71 1.06-15.18z"/><path fill="#f09e85" d="M166.59 158.87c28.14-.16 56.33.71 84.49.34 1.98-.08 4.21.26 5.7 1.68 1.76 2.26 1.21 5.46-.09 7.82-.54-2.87.65-7.88-3.64-7.95-16.66-.09-33.35-.13-50.03-.06-7.28.31-14.99-.8-21.77 2.52 1.25.65 2.56 1.19 3.7 2.02.55 1.4.23 2.94.16 4.4-2.71.97-5.36 2.08-8.09 2.96 6.87.54 14.04-1.09 20.65 1.42-7.01.61-14.09.98-21.12 1.08-6.25-1.75-12.75-.42-19.09-1.44.51-4.1.41-8.26-.14-12.34 3.07-.89 6.18-1.62 9.27-2.45z"/><path fill="#f48673" d="M181.25 163.22c6.78-3.32 14.49-2.21 21.77-2.52 16.68-.07 33.37-.03 50.03.06 4.29.07 3.1 5.08 3.64 7.95-2.57 2.51-6.28 2.96-9.7 3.05-16.43.72-32.92 1.95-49.32 2.26-6.61-2.51-13.78-.88-20.65-1.42 2.73-.88 5.38-1.99 8.09-2.96.07-1.46.39-3-.16-4.4-1.14-.83-2.45-1.37-3.7-2.02z"/><path fill="#1a1a1a" d="M21.91 166.02c-1.51-1.04-1.71-3.08-.11-4.15.4 1.37.44 2.76.11 4.15z" opacity=".18"/><path fill="#ef452c" d="M84.41 165.6c7.89-1.68 16.51 3.45 18.79 11.17 2.76 7.76-1.46 17.43-9.28 20.31-8.36 4.06-19.55-.97-22.1-9.92-3.59-9.09 3.05-20.04 12.59-21.56z"/><path fill="#111" d="M231.83 179.8c5.16-.81 10.37-.82 15.57-.86-5.15.78-10.36 1.33-15.57.86z" opacity=".39"/><path fill="#0c0c0c" d="M211.71 181.14c6.45-1.07 12.99-1.21 19.52-1.3-6.46 1.1-13 1.22-19.52 1.3z" opacity=".49"/><path fill="#f1472a" d="M171.45 183.79c3.77-.2 7.53-.43 11.3-.5-.14 4.42-2.41 8.38-4.04 12.4-3.89-2.88-6.51-7.11-7.26-11.9z"/><path fill="#161516" d="M187.97 194.55c-.02-1.91.69-3.66 1.98-5.04.43 1.99-.18 3.96-1.98 5.04z" opacity=".37"/><path fill="#edeced" d="M44.43 193.36c1.76-1 3.82-.66 5.75-.65 2.19 4.29 4.52 8.52 6.66 12.84-.86 1.05-1.67 2.14-2.36 3.31-7.89.83-15.73 2.02-23.54 3.39-3.1.6-6.33.77-9.25 2.06 1.5-3.94-1.04-9.26 2.52-12.28 4.42-1.44 9.17 2.03 13.46-.19 2.51-2.61 3.39-6.67 6.76-8.48z"/><path fill="#191919" d="M22.58 195.95c3.58.29 7.17.15 10.75.38-3.48 1.44-7.26.46-10.75-.38z" opacity=".56"/><path fill="#eee1c5" d="M113.11 201.07c4.35-4.13 10.99-3.75 16.46-2.85l.72.75c-.66.18-1.98.56-2.63.74-4.5-.57-9.85-.9-13.34 2.56-3.59 3.2-4.22 8.97-1.57 12.95 2.2 3.65 6.5 5.18 10.51 5.79-2.01 2.48-5.39.39-7.65-.64-7.08-3.27-8.45-14.35-2.5-19.3z"/><path fill="#ea1f25" d="M30.94 212.25c7.81-1.37 15.65-2.56 23.54-3.39-1.63 2.73-5.2 3.14-7.29 5.42-4.6 4.39-5.51 11.45-3.45 17.29-7.31 1.28-14.6 2.68-21.9 4.02-2.08-4.74-9-6.77-8.59-12.53 2.2-3.48 6.13-5.34 8.44-8.75 2.92-1.29 6.15-1.46 9.25-2.06z"/><path fill="#e9d5b3" d="M55.61 223.82c-.52-4.71 2.74-9.18 6.2-11.98 9.18 11.75 22.35 20.02 36.65 24.04-.12 1.96-1.58 3.4-2.66 4.9l-.42.01c-1.98-.22-4.17 1.49-3.7 3.6l.04.54c-7.66 2.9-16.14.19-22.79-3.94-6.26-3.85-11.99-9.69-13.32-17.17z"/><path fill="#fdefd1" d="M111.06 228.91c3.23-1.18 6.65-.96 10.02-.8 4.62.27 9.38-.79 13.86.83-7.87 1.23-16.01 1.14-23.88-.03z"/><path fill="#edecec" d="M21.84 235.59c7.3-1.34 14.59-2.74 21.9-4.02 2.58 7.29 7.75 13.33 13.75 18.07-7.94.95-15.71 2.86-23.56 4.28-3.53-.93-7.28-1.63-10.51-3.39-4.03-3.99-.63-10.04-1.58-14.94z"/><path fill="#181717" d="M12.35 236.43c1.5 3.82.32 7.93-.24 11.82-.13-3.95.25-7.88.24-11.82z" opacity=".5"/><path fill="#eef7f0" d="M102.51 244.39c.53-2.61 2.22-5.07 4.31-6.65 3.15.21 6.26.84 9.42 1.03.14 1.6.67 3.12 1.28 4.6-5.02.08-10.03.38-15.01 1.02z"/><path fill="#121112" d="M124.78 238.89c3.17-.88 6.47-.84 9.74-.79-3.18.87-6.47.98-9.74.79z" opacity=".56"/><path fill="#fcf1d5" d="M91.68 244.39c-.47-2.11 1.72-3.82 3.7-3.6-.38 1.67-2.02 3.26-3.7 3.6z"/><path fill="#eb1f25" d="M117.52 243.37c2.6 3.33 6.83 5.88 7.47 10.37-1.21 4.64-7.87 5.14-8.31 10.4-16.25 1.16-32.46 2.98-48.57 5.4-2.89.4-5.79 1.24-8.73.9-5.24-3.23-11.59.45-17.07-2.03-3.34-4.58-2.99-11.46-8.38-14.49 7.85-1.42 15.62-3.33 23.56-4.28 8.98 6.53 20.29 11.16 31.54 9.16 6.97-1.18 13.41-7.04 13.48-14.41 4.98-.64 9.99-.94 15.01-1.02z"/><path fill="#151616" d="M27.82 259.85c1.67.51 2.83 1.97 3.21 3.65-1.86-.14-3.12-1.88-3.21-3.65z" opacity=".26"/><path fill="#ededed" d="M68.11 269.54c16.11-2.42 32.32-4.24 48.57-5.4-.28 3.31 1.09 7.67-1.83 10.11-4.45 1.58-9.23-1.84-13.61.2-3.54 2.1-4.99 7.02-9.35 7.8-4.17-1.02-6.52-5.32-10.71-6.31-4.74-.35-8.29 5.17-13.18 3.59-3.76-2.05-5.47-6.32-8.62-9.09 2.94.34 5.84-.5 8.73-.9z"/><path fill="#131212" d="M33.05 269.61c1.29 1.71 2.28 3.62 2.85 5.71-2.42-.85-3.68-3.25-2.85-5.71z" opacity=".35"/><path fill="#1e1f1f" d="M122.08 280.25c.06-3.57-.38-7.23.71-10.69.14 3.56.75 7.29-.71 10.69z" opacity=".6"/><g fill="#161616"><path d="M39.26 277.27c3.31-.08 6.61-.22 9.92-.23-3.27.56-6.72 1.72-9.92.23z" opacity=".31"/><path d="M112 283.16c2.4-.44 4.94-.76 7.23.32-2.22 1.36-5.01.71-7.23-.32z" opacity=".59"/></g></svg>