<svg xmlns="http://www.w3.org/2000/svg" shape-rendering="crispEdges" viewBox="0 -.5 123 88"><path stroke="#000" d="M60 0h3m-4 1h1m3 0h1m-5 1h1m3 0h1m-8 1h1m2 0h1m3 0h1m2 0h1M53 4h7m3 0h7M49 5h1m2 0h2m6 0h3m6 0h2m2 0h1M47 6h7m1 0h13m1 0h7M46 7h2m7 0h1m11 0h1m7 0h2M46 8h1m2 0h6m13 0h6m2 0h1M45 9h2m1 0h1m1 0h4m4 0h7m4 0h4m1 0h1m1 0h2m-34 1h3m1 0h3m4 0h3m7 0h3m4 0h3m1 0h3m-34 1h2m1 0h2m2 0h4m11 0h4m2 0h2m1 0h2m-32 1h1m1 0h2m1 0h1m6 0h7m6 0h1m1 0h2m1 0h1m-31 1h6m6 0h7m6 0h6m-33 1h6m8 0h1m5 0h1m8 0h6m-36 1h2m11 0h2m7 0h2m11 0h2m-38 1h2m4 0h8m11 0h8m4 0h2m-40 1h2m4 0h3m23 0h3m4 0h2m-41 1h2m4 0h3m23 0h3m4 0h2m-72 1h9m4 0h1m17 0h2m3 0h1m1 0h2m7 0h9m7 0h2m1 0h1m3 0h2m17 0h1m4 0h9M9 20h7m3 0h4m1 0h1m1 0h1m14 0h2m3 0h1m1 0h2m1 0h1m4 0h2m7 0h2m4 0h1m1 0h2m1 0h1m3 0h2m14 0h1m1 0h1m1 0h4m3 0h7M13 21h6m6 0h1m1 0h1m14 0h5m1 0h2m1 0h5m11 0h5m1 0h2m1 0h5m14 0h1m1 0h1m6 0h6m-93 1h4m7 0h3m12 0h2m1 0h1m2 0h1m1 0h3m15 0h3m1 0h1m2 0h1m1 0h2m12 0h3m7 0h4m-86 1h4m7 0h1m12 0h1m1 0h4m1 0h2m17 0h2m1 0h4m1 0h1m12 0h1m7 0h4m-80 1h2m1 0h1m4 0h1m12 0h1m2 0h2m2 0h1m19 0h1m2 0h2m2 0h1m12 0h1m4 0h1m1 0h2m-75 1h2m2 0h1m2 0h1m3 0h7m1 0h1m2 0h2m25 0h2m2 0h1m1 0h7m3 0h1m2 0h1m2 0h2m-71 1h3m2 0h1m2 0h1m6 0h1m1 0h1m2 0h2m25 0h2m2 0h1m1 0h1m6 0h1m2 0h1m2 0h3m-69 1h6m1 0h1m7 0h8m23 0h8m7 0h1m1 0h6m-70 1h3m5 0h1m7 0h8m23 0h8m7 0h1m5 0h3m-72 1h3m5 0h2m1 0h5m1 0h4m3 0h1m23 0h1m3 0h4m1 0h5m1 0h2m5 0h3m-74 1h3m7 0h1m1 0h2m2 0h1m1 0h1m1 0h2m3 0h1m23 0h1m3 0h2m1 0h1m1 0h1m2 0h2m1 0h1m7 0h3m-77 1h4m8 0h3m3 0h3m1 0h2m3 0h1m23 0h1m3 0h2m1 0h3m3 0h3m8 0h4m-80 1h4m10 0h2m2 0h4m1 0h2m3 0h1m23 0h1m3 0h2m1 0h4m2 0h2m10 0h4m-81 1h4m10 0h2m2 0h4m1 0h1m4 0h1m23 0h1m4 0h1m1 0h4m2 0h2m10 0h4m-80 1h5m8 0h1m2 0h1m1 0h3m1 0h1m4 0h1m23 0h1m4 0h1m1 0h3m1 0h1m2 0h1m8 0h5m-77 1h5m6 0h1m2 0h1m1 0h5m4 0h1m23 0h1m4 0h5m1 0h1m2 0h1m6 0h5m-73 1h6m2 0h1m2 0h2m1 0h5m5 0h1m21 0h1m5 0h5m1 0h2m2 0h1m2 0h6m-74 1h3m2 0h7m2 0h2m1 0h2m1 0h2m6 0h1m19 0h1m6 0h2m1 0h2m1 0h2m2 0h7m2 0h3m-78 1h2m1 0h1m4 0h4m3 0h2m1 0h4m8 0h1m17 0h1m8 0h4m1 0h2m3 0h4m4 0h1m1 0h2m-80 1h1m4 0h1m4 0h3m2 0h8m35 0h8m2 0h3m4 0h1m4 0h1m-82 1h1m3 0h2m6 0h1m3 0h5m1 0h2m35 0h2m1 0h5m3 0h1m6 0h2m3 0h1m-82 1h1m2 0h2m6 0h1m2 0h9m35 0h9m2 0h1m6 0h2m2 0h1m-82 1h2m1 0h3m5 0h1m3 0h9m35 0h9m3 0h1m5 0h3m1 0h2m-84 1h1m4 0h3m3 0h2m3 0h5m1 0h3m35 0h3m1 0h5m3 0h2m3 0h3m4 0h1m-91 1h2m3 0h1m3 0h2m1 0h2m3 0h2m3 0h1m1 0h6m37 0h6m1 0h1m3 0h2m3 0h2m1 0h2m3 0h1m3 0h2m-98 1h1m1 0h1m4 0h1m2 0h1m2 0h3m1 0h3m3 0h1m1 0h4m1 0h1m37 0h1m1 0h4m1 0h1m3 0h3m1 0h3m2 0h1m2 0h1m4 0h1m1 0h1M11 46h1m1 0h2m3 0h2m1 0h2m3 0h6m3 0h1m1 0h2m1 0h1m1 0h1m5 0h1m25 0h1m5 0h1m1 0h1m1 0h2m1 0h1m3 0h6m3 0h2m1 0h2m3 0h2m1 0h1M9 47h5m3 0h1m5 0h1m2 0h4m1 0h1m3 0h1m1 0h4m1 0h1m5 0h1m25 0h1m5 0h1m1 0h4m1 0h1m3 0h1m1 0h4m2 0h1m5 0h1m3 0h5M8 48h1m1 0h1m3 0h1m2 0h1m3 0h2m4 0h2m2 0h1m4 0h7m6 0h2m4 0h13m4 0h2m6 0h7m4 0h1m2 0h2m4 0h2m3 0h1m2 0h1m3 0h1m1 0h1M8 49h1m3 0h4m1 0h1m2 0h2m8 0h2m10 0h1m7 0h1m1 0h3m13 0h3m1 0h1m7 0h1m10 0h2m8 0h2m2 0h1m1 0h4m3 0h1M8 50h1m4 0h4m1 0h1m1 0h1m7 0h4m6 0h5m6 0h3m19 0h3m6 0h5m6 0h4m7 0h1m1 0h1m1 0h4m4 0h1M6 51h3m1 0h1m2 0h6m1 0h1m5 0h6m6 0h1m3 0h7m25 0h7m3 0h1m6 0h6m5 0h1m1 0h6m2 0h1m1 0h3M5 52h1m1 0h1m4 0h1m2 0h17m6 0h1m3 0h2m35 0h2m3 0h1m6 0h17m2 0h1m4 0h1m1 0h1M5 53h1m4 0h2m4 0h12m3 0h1m3 0h4m2 0h2m37 0h2m2 0h4m3 0h1m3 0h12m4 0h2m4 0h1M5 54h1m3 0h2m6 0h1m1 0h1m2 0h4m3 0h3m3 0h1m2 0h1m2 0h1m39 0h1m2 0h1m2 0h1m3 0h3m3 0h4m2 0h1m1 0h1m6 0h2m3 0h1M5 55h2m1 0h3m6 0h1m1 0h1m11 0h1m3 0h1m2 0h1m2 0h1m39 0h1m2 0h1m2 0h1m3 0h1m11 0h1m1 0h1m6 0h3m1 0h2M4 56h2m1 0h1m2 0h1m6 0h1m1 0h1m10 0h4m1 0h1m2 0h1m2 0h1m39 0h1m2 0h1m2 0h1m1 0h4m10 0h1m1 0h1m6 0h1m2 0h1m1 0h2M3 57h1m1 0h1m3 0h1m7 0h2m4 0h2m7 0h7m2 0h1m39 0h1m2 0h7m7 0h2m4 0h2m7 0h1m3 0h1m1 0h1M3 58h1m3 0h2m8 0h2m3 0h3m8 0h5m1 0h3m39 0h3m1 0h5m8 0h3m3 0h2m8 0h2m3 0h1M3 59h1m2 0h1m10 0h2m3 0h1m2 0h1m8 0h4m3 0h1m39 0h1m3 0h4m8 0h1m2 0h1m3 0h2m10 0h1m2 0h1M3 60h2m1 0h1m10 0h1m3 0h2m3 0h1m6 0h9m2 0h4m27 0h4m2 0h9m6 0h1m3 0h2m3 0h1m10 0h1m1 0h2M3 61h1m1 0h1m11 0h1m2 0h1m1 0h1m2 0h1m7 0h9m2 0h4m27 0h4m2 0h9m7 0h1m2 0h1m1 0h1m2 0h1m11 0h1m1 0h1M3 62h1m1 0h1m11 0h4m4 0h2m6 0h3m4 0h5m2 0h9m11 0h9m2 0h5m4 0h3m6 0h2m4 0h4m11 0h1m1 0h1M2 63h1m1 0h1m15 0h2m3 0h3m4 0h3m4 0h6m2 0h1m1 0h1m1 0h6m9 0h6m1 0h1m1 0h1m2 0h6m4 0h3m4 0h3m3 0h2m15 0h1m1 0h1M2 64h1m1 0h1m17 0h1m3 0h8m5 0h2m1 0h13m1 0h11m1 0h13m1 0h2m5 0h8m3 0h1m17 0h1m1 0h1M2 65h2m17 0h2m3 0h3m1 0h5m3 0h3m1 0h2m8 0h2m2 0h11m2 0h2m8 0h2m1 0h3m3 0h5m1 0h3m3 0h2m17 0h2M1 66h3m16 0h1m1 0h1m2 0h1m1 0h3m1 0h5m1 0h4m2 0h1m9 0h1m2 0h1m9 0h1m2 0h1m9 0h1m2 0h4m1 0h5m1 0h3m1 0h1m2 0h1m1 0h1m16 0h3M1 67h2m17 0h1m4 0h1m2 0h5m1 0h7m2 0h11m2 0h1m9 0h1m2 0h11m2 0h7m1 0h5m2 0h1m4 0h1m17 0h2M1 68h2m18 0h1m3 0h2m2 0h3m4 0h17m3 0h2m7 0h2m3 0h17m4 0h3m2 0h2m3 0h1m18 0h2M1 69h2m19 0h1m2 0h1m1 0h1m2 0h2m3 0h14m2 0h1m2 0h5m1 0h1m1 0h1m1 0h5m2 0h1m2 0h14m3 0h2m2 0h1m1 0h1m2 0h1m19 0h2M0 70h2m19 0h2m4 0h1m4 0h12m1 0h4m5 0h4m1 0h1m1 0h1m1 0h1m1 0h4m5 0h4m1 0h12m4 0h1m4 0h2m19 0h2M0 71h2m18 0h1m1 0h1m4 0h17m1 0h7m4 0h1m9 0h1m4 0h7m1 0h17m4 0h1m1 0h1m18 0h2M0 72h1m13 0h7m5 0h4m5 0h6m3 0h8m2 0h2m1 0h9m1 0h2m2 0h8m3 0h6m5 0h4m5 0h7m13 0h1M0 73h1m7 0h14m4 0h1m9 0h5m3 0h9m1 0h2m2 0h7m2 0h2m1 0h9m3 0h5m9 0h1m4 0h14m7 0h1M0 74h16m6 0h1m3 0h1m7 0h3m2 0h2m3 0h35m3 0h2m2 0h3m7 0h1m3 0h1m6 0h16M22 75h2m2 0h1m6 0h2m5 0h3m4 0h29m4 0h3m5 0h2m6 0h1m2 0h2m-78 1h1m2 0h1m5 0h3m5 0h5m2 0h29m2 0h5m5 0h3m5 0h1m2 0h1m-77 1h1m2 0h1m4 0h3m4 0h6m3 0h29m3 0h6m4 0h3m4 0h1m2 0h1m-77 1h2m1 0h1m3 0h4m3 0h1m4 0h1m2 0h4m2 0h4m2 0h9m2 0h4m2 0h4m2 0h1m4 0h1m3 0h4m3 0h1m1 0h2m-77 1h2m1 0h1m3 0h3m4 0h1m4 0h1m1 0h3m6 0h2m3 0h1m5 0h1m3 0h2m6 0h3m1 0h1m4 0h1m4 0h3m3 0h1m1 0h2m-76 1h1m1 0h1m2 0h3m5 0h1m4 0h1m1 0h2m7 0h2m13 0h2m7 0h2m1 0h1m4 0h1m5 0h3m2 0h1m1 0h1m-75 1h1m1 0h1m2 0h2m6 0h4m3 0h1m9 0h1m13 0h1m9 0h1m3 0h4m6 0h2m2 0h1m1 0h1m-75 1h1m1 0h1m1 0h2m8 0h3m2 0h2m33 0h2m2 0h3m8 0h2m1 0h1m1 0h1m-75 1h3m1 0h2m11 0h3m35 0h3m11 0h2m1 0h3m-74 1h4m65 0h4m-73 1h3m67 0h3m-73 1h3m67 0h3m-72 1h1m69 0h1"/><path stroke="#b0a0a8" d="M60 1h3m-2 1h1m-5 6h9m-8 2h2m3 0h2m-9 1h2m7 0h2m-12 1h1m11 0h1m-13 1h1m11 0h1m-17 1h1m3 0h1m11 0h1m3 0h1m-27 1h1m3 0h3m7 0h5m7 0h3m3 0h1m-34 1h1m33 0h1m-36 1h1m11 0h2m9 0h2m11 0h1m-29 1h5m11 0h5m-21 1h4m13 0h4m-36 7h6m39 0h6m-44 4h1m35 0h1m-42 1h1m4 0h1m35 0h1m4 0h1m-47 1h1m4 0h1m35 0h1m4 0h1m-48 1h1m47 0h1m-49 1h1m1 0h1m43 0h1m1 0h1m-50 1h1m2 0h1m43 0h1m2 0h1m-51 1h1m49 0h1m-52 1h1m51 0h1m-53 1h1m19 0h13m19 0h1m-54 1h2m17 0h3m11 0h3m17 0h2m-55 1h1m18 0h1m15 0h1m18 0h1m-56 1h2m16 0h1m1 0h1m15 0h1m1 0h1m16 0h2m-57 1h2m17 0h1m2 0h2m9 0h2m2 0h1m17 0h2m-58 1h2m18 0h1m2 0h2m9 0h2m2 0h1m18 0h2m-59 1h2m2 0h1m12 0h1m1 0h2m17 0h2m1 0h1m12 0h1m2 0h2m-59 1h2m2 0h1m14 0h1m19 0h1m14 0h1m2 0h2m-59 1h2m17 0h1m19 0h1m17 0h2m-59 1h2m15 0h4m17 0h4m15 0h2m-59 1h3m16 0h4m13 0h4m16 0h3m-59 1h1m1 0h6m11 0h1m3 0h1m11 0h1m3 0h1m11 0h6m1 0h1m-59 1h1m19 0h1m2 0h1m11 0h1m2 0h1m19 0h1m-59 1h1m6 0h3m7 0h1m2 0h1m17 0h1m2 0h1m7 0h3m6 0h1m-59 1h1m6 0h3m2 0h1m4 0h1m23 0h1m4 0h1m2 0h3m6 0h1m-59 1h1m6 0h2m2 0h1m35 0h1m2 0h2m6 0h1m-55 1h2m4 0h1m37 0h1m4 0h2M59 68h1m1 0h1m1 0h1m-5 1h1m1 0h1m1 0h1m-6 1h1m1 0h1m1 0h1m1 0h1m-7 1h1m1 0h1m1 0h1m1 0h1m-24 1h2m37 0h2m-44 6h4m39 0h4m-47 1h2m43 0h2"/><path stroke="#786877" d="M60 2h1m1 0h1m-3 1h3m-3 1h3m-7 3h11M55 8h2m9 0h2M54 9h4m7 0h4m-18 1h4m13 0h4m-22 1h2m6 0h7m6 0h2m-23 1h1m5 0h2m7 0h2m5 0h1m-17 1h2m7 0h2m-17 1h1m5 0h2m1 0h5m1 0h2m5 0h1m-21 1h4m2 0h1m5 0h1m2 0h4m-26 1h3m8 0h1m9 0h1m8 0h3m-34 1h3m3 0h5m13 0h5m3 0h3m-36 1h4m3 0h1m5 0h11m5 0h1m3 0h4m-37 1h3m4 0h1m4 0h2m9 0h2m4 0h1m4 0h3m-64 1h3m24 0h3m4 0h1m1 0h4m11 0h4m1 0h1m4 0h3m24 0h3m-88 1h4m27 0h1m21 0h1m27 0h4m-83 1h2m2 0h1m19 0h1m4 0h1m21 0h1m4 0h1m19 0h1m2 0h2m-76 1h1m1 0h1m16 0h1m4 0h1m21 0h1m4 0h1m16 0h1m1 0h1m-68 1h1m15 0h2m2 0h2m21 0h2m2 0h2m15 0h1m-49 1h2m2 0h2m21 0h2m2 0h2m-33 1h2m2 0h2m21 0h2m2 0h2m-43 1h7m39 0h7m-53 1h7m39 0h7m-53 1h1m5 0h1m39 0h1m5 0h1m-53 1h1m2 0h2m1 0h1m39 0h1m1 0h2m2 0h1m-51 1h1m1 0h1m43 0h1m1 0h1m-49 1h1m47 0h1m-48 1h1m4 0h1m35 0h1m4 0h1m-49 1h1m6 0h1m35 0h1m6 0h1m-50 1h1m47 0h1m-51 1h1m3 0h1m43 0h1m3 0h1m-52 1h1m2 0h1m43 0h1m2 0h1m-63 1h1m9 0h1m1 0h1m2 0h1m43 0h1m2 0h1m1 0h1m9 0h1m-66 2h1m1 0h1m51 0h1m1 0h1m-68 1h2m75 0h2m-79 1h1m9 0h1m57 0h1m9 0h1m-67 1h1m53 0h1m-55 1h1m53 0h1m-76 1h1m6 0h2m12 0h1m6 0h1m39 0h1m6 0h1m12 0h2m6 0h1m-98 1h1m7 0h1m13 0h1m1 0h1m4 0h1m39 0h1m4 0h1m1 0h1m13 0h1m7 0h1m-77 1h1m1 0h1m4 0h1m39 0h1m4 0h1m1 0h1m-54 1h1m51 0h1m-69 1h1m13 0h1m6 0h2m39 0h2m6 0h1m13 0h1M9 50h4m6 0h1m13 0h5m18 0h11m18 0h5m13 0h1m6 0h4M9 51h1m9 0h1m13 0h5m15 0h17m15 0h5m13 0h1m9 0h1m-81 1h5m12 0h23m12 0h5m-57 1h2m9 0h35m9 0h2M8 54h1m9 0h1m13 0h3m4 0h2m2 0h15m7 0h15m2 0h2m4 0h3m13 0h1m9 0h1M7 55h1m10 0h1m13 0h3m1 0h2m1 0h2m1 0h15m9 0h15m1 0h2m1 0h2m1 0h3m13 0h1m10 0h1M6 56h1m11 0h1m15 0h1m1 0h2m1 0h2m1 0h14m2 0h2m3 0h2m2 0h14m1 0h2m1 0h2m1 0h1m15 0h1m11 0h1m-78 1h2m1 0h14m2 0h2m3 0h2m2 0h14m1 0h2m-46 1h1m3 0h14m2 0h2m3 0h2m2 0h14m3 0h1m-62 1h2m13 0h3m1 0h15m9 0h15m1 0h3m13 0h2M5 60h1m17 0h1m18 0h2m4 0h10m7 0h10m4 0h2m18 0h1m17 0h1M4 61h1m37 0h2m4 0h27m4 0h2m37 0h1M4 62h1m51 0h11m51 0h1M3 63h1m20 0h1m32 0h9m32 0h1m20 0h1M3 64h1m19 0h2m16 0h1m39 0h1m16 0h2m19 0h1m-97 1h1m17 0h1m2 0h8m19 0h8m2 0h1m17 0h1m-59 1h2m1 0h9m4 0h9m4 0h9m1 0h2m-41 1h2m14 0h9m14 0h2m-58 1h1m33 0h1m1 0h1m1 0h1m1 0h1m33 0h1m-76 1h2m24 0h2m21 0h2m24 0h2m-77 1h2m19 0h1m4 0h3m19 0h3m4 0h1m19 0h2m-77 1h1m20 0h1m9 0h2m1 0h1m1 0h1m1 0h1m1 0h1m1 0h1m1 0h2m9 0h1m20 0h1m-57 1h1m12 0h1m9 0h1m12 0h1m-55 1h1m15 0h3m12 0h2m7 0h2m12 0h3m15 0h1m-73 1h1m15 0h3m35 0h3m15 0h1m-74 1h2m17 0h4m29 0h4m17 0h2m-75 1h2m19 0h2m29 0h2m19 0h2m-75 1h2m18 0h3m29 0h3m18 0h2m-74 1h1m17 0h2m33 0h2m17 0h1m-73 1h1m14 0h2m1 0h1m35 0h1m1 0h2m14 0h1m-73 1h1m12 0h4m1 0h1m35 0h1m1 0h4m12 0h1m-73 1h1m15 0h3m35 0h3m15 0h1m-73 1h1m15 0h2m37 0h2m15 0h1"/><path stroke="#fc0708" d="M54 5h1m13 0h1M54 6h1m13 0h1M48 7h1m5 0h1m13 0h1m5 0h1M47 8h1m27 0h1M47 9h1m27 0h1m-29 1h1m27 0h1m-29 1h1m27 0h1m-29 1h1m27 0h1m-29 8h1m27 0h1m-29 1h1m27 0h1m-29 1h2m25 0h2M42 37h1m37 0h1m-40 3h1m39 0h1m-42 3h1m41 0h1m-44 3h1m43 0h1M45 62h2m29 0h2m-33 1h2m1 0h1m1 0h1m21 0h1m1 0h1m1 0h2m-23 3h1m11 0h1m-14 1h2m11 0h2m-16 1h2m13 0h2m-18 1h2m15 0h2m-19 1h2m15 0h2m-19 1h2m15 0h2m-18 1h1m15 0h1"/><path stroke="#c30000" d="M55 5h5m3 0h5M49 7h5m15 0h5M48 8h1m25 0h1M47 19h1m27 0h1M55 64h1m11 0h1m-14 1h2m11 0h2m-15 1h1m13 0h1m-14 2h1m11 0h1m-16 4h1m17 0h1m-18 1h1m15 0h1"/><path stroke="#fff" d="M49 9h1m23 0h1"/><path stroke="#c8d0d8" d="M60 10h3m-11 2h3m13 0h3m-19 1h3m13 0h3m-19 1h3m13 0h3m-25 1h3m25 0h3m-20 1h9m-9 1h9M56 39h11m-12 1h2m9 0h2m-13 1h2m9 0h2m-11 1h9m-12 1h1m2 0h9m2 0h1m-16 1h17m-18 1h19m-19 1h19m-18 1h17m-14 2h11m-14 1h2m13 0h2m-20 1h2m19 0h2m-28 1h4m25 0h4"/><path stroke="#c19890" d="M23 20h1m75 0h1m-76 1h1m1 0h1m69 0h1m1 0h1m-76 1h1m2 0h1m69 0h1m2 0h1m-76 1h2m3 0h1m63 0h1m3 0h2m-74 1h1m1 0h1m32 0h3m32 0h1m1 0h1m-71 1h1m2 0h1m28 0h1m3 0h1m28 0h1m2 0h1m-66 1h1m26 0h2m5 0h2m26 0h1m-37 1h1m9 0h1m-12 1h1m11 0h1m-14 1h1m3 0h1m5 0h1m3 0h1m-23 1h2m27 0h2m-30 1h1m3 0h1m19 0h1m3 0h1m-29 1h1m2 0h1m10 0h1m10 0h1m2 0h1m-30 1h2m2 0h1m9 0h3m9 0h1m2 0h2m-31 1h2m2 0h1m9 0h3m9 0h1m2 0h2m-32 1h4m3 0h1m7 0h3m7 0h1m3 0h4m-32 1h3m3 0h1m8 0h1m8 0h1m3 0h3m-31 1h4m2 0h2m15 0h2m2 0h4m-32 1h5m3 0h2m13 0h2m3 0h5m-56 1h1m2 0h1m19 0h3m27 0h3m19 0h1m2 0h1m-80 1h1m1 0h1m20 0h6m23 0h6m20 0h1m1 0h1m-57 1h5m23 0h5m-33 1h5m23 0h5m-58 1h1m2 0h1m21 0h4m25 0h4m21 0h1m2 0h1m-84 1h1m1 0h1m22 0h4m27 0h4m22 0h1m1 0h1m-60 1h4m27 0h4m-36 1h5m27 0h5m-62 1h2m2 0h1m21 0h3m29 0h3m21 0h1m2 0h2M9 48h1m3 0h1m6 0h1m23 0h4m27 0h4m23 0h1m6 0h1m3 0h1M11 49h1m6 0h1m25 0h4m27 0h4m25 0h1m6 0h1m-69 1h6m25 0h6m-68 1h1m97 0h1M6 52h1m1 0h1m2 0h1m99 0h1m2 0h1m1 0h1M6 53h1m2 0h1m103 0h1m2 0h1M6 54h2m107 0h2M9 56h1m103 0h1M4 57h1m1 0h1m1 0h1m105 0h1m1 0h1m1 0h1M4 58h1m113 0h1M4 59h1m113 0h1m-94 1h1m71 0h1m-77 1h1m79 0h1m-81 1h1m2 0h1m73 0h1m2 0h1m-80 1h1m77 0h1m-76 1h1m71 0h1m-73 1h1m71 0h1m-77 1h1m79 0h1m-81 1h1m2 0h1m73 0h1m2 0h1m-80 1h1m77 0h1m-75 1h1m69 0h1m-72 1h1m71 0h1m-77 1h1m2 0h1m1 0h1m69 0h1m1 0h1m2 0h1m-81 1h1m1 0h1m1 0h1m71 0h1m1 0h1m1 0h1m-80 1h1m77 0h1m-77 1h1m73 0h1"/><path stroke="#e0d0df" d="M58 20h7m-9 1h1m9 0h1m-13 1h1m13 0h1m-8 1h1m-11 2h1m8 0h3m8 0h1m-13 1h5m-14 1h1m6 0h9m6 0h1m-17 1h3m5 0h3m-12 1h3m1 0h5m1 0h3m-14 1h15m-23 1h1m6 0h6m5 0h6m6 0h1m-31 1h1m4 0h1m1 0h5m1 0h1m3 0h1m1 0h5m1 0h1m4 0h1m-26 1h1m1 0h5m1 0h1m3 0h1m1 0h5m1 0h1m-21 1h7m1 0h1m3 0h1m1 0h7m-21 1h1m1 0h5m1 0h1m3 0h1m1 0h5m1 0h1m-27 1h1m7 0h5m1 0h1m3 0h1m1 0h5m7 0h1m-33 1h1m8 0h4m1 0h5m1 0h4m8 0h1m-26 3h1m17 0h1m-27 1h1m7 0h1m17 0h1m7 0h1m-35 1h1m6 0h1m19 0h1m6 0h1m-35 1h1m5 0h2m19 0h2m5 0h1m-29 1h1m21 0h1m-24 1h2m21 0h2m-25 1h2m21 0h2m-31 1h1m35 0h1m-37 1h1m35 0h1m-37 1h1m35 0h1"/><path stroke="#f2a8b7" d="M23 21h1m75 0h1m-76 1h1m2 0h1m67 0h1m2 0h1m-72 1h1m2 0h1m61 0h1m2 0h1m-68 1h1m1 0h1m61 0h1m1 0h1m-67 1h1m2 0h1m59 0h1m2 0h1m-64 1h1m59 0h1M23 39h2m73 0h2m-78 1h1m77 0h1m-80 3h2m77 0h2m-82 1h1m81 0h1m-83 3h2m79 0h2m-92 1h2m5 0h2m83 0h2m5 0h2M9 49h2m101 0h2M11 51h1m99 0h1M9 52h2m101 0h2M7 53h2m105 0h2m-58 1h7m-8 1h9M8 56h1m47 0h2m2 0h3m2 0h2m47 0h1M7 57h1m48 0h2m2 0h3m2 0h2m48 0h1M5 58h2m49 0h2m2 0h3m2 0h2m49 0h2M5 59h1m51 0h9m51 0h1m-94 1h1m33 0h7m33 0h1m-76 1h2m73 0h2m-78 1h2m75 0h2m-78 1h1m75 0h1m-76 2h1m73 0h1m-76 1h2m73 0h2m-78 1h2m75 0h2m-78 1h1m75 0h1m-74 2h1m69 0h1m-72 1h1m71 0h1m-76 1h1m1 0h1m73 0h1m1 0h1m-78 1h2m73 0h2m-77 1h1m75 0h1"/><path stroke="#f0f0f0" d="M57 21h9m-11 1h13m-15 1h8m1 0h8m-18 1h8m3 0h8m-19 1h7m5 0h7m-20 1h6m9 0h6m-21 1h5m11 0h5m-22 1h5m13 0h5m-23 1h4m15 0h4m-23 1h4m15 0h4m-23 1h1m1 0h1m6 0h5m6 0h1m1 0h1m-21 1h1m5 0h1m5 0h1m5 0h1m-19 1h1m5 0h1m5 0h1m5 0h1m-13 1h1m5 0h1m-7 1h1m5 0h1m-7 1h1m5 0h1m-7 1h1m5 0h1m-11 3h1m2 0h9m2 0h1m-15 1h1m2 0h9m2 0h1m-16 1h2m13 0h2m-17 1h1m15 0h1"/><path stroke="#895858" d="M59 28h5m-18 1h3m25 0h3m-29 1h1m25 0h1m-27 1h1m25 0h1m-27 1h1m25 0h1m-30 1h1m2 0h1m25 0h1m2 0h1m-33 1h1m2 0h1m25 0h1m2 0h1m-28 1h1m21 0h1m-24 1h1m1 0h1m19 0h1m1 0h1m-24 1h1m21 0h1m-29 1h1m5 0h2m19 0h2m5 0h1m-35 1h1m3 0h5m17 0h5m3 0h1m-29 1h2m19 0h2m-23 1h1m21 0h1m-23 1h1m21 0h1m-24 1h1m23 0h1m-31 1h1m4 0h1m25 0h1m4 0h1m-37 1h1m4 0h1m25 0h1m4 0h1m-33 2h1m27 0h1m-28 1h1m25 0h1m-27 1h2m23 0h2"/><path stroke="#c9a8a8" d="M60 32h1m1 0h1m-3 4h1m1 0h1"/></svg>