<svg height="307pt" viewBox="0 0 459 307" width="612" xmlns="http://www.w3.org/2000/svg"><g fill="#fff"><path d="m175.72 3.76c1.93-1.07 4.32-3.2 6.59-2.01 5.37 5.07 8.39 12.08 13.18 17.62 3.06 1.01 6.36.56 9.54.59 14.36-.54 28.83.69 43.09-1.58 7.69-1.01 15.32-2.43 22.98-3.66 11.61-1.3 23.39-1.79 35.02-.48 5.1.5 9.9 2.54 15 2.95 2.67-.29 5.31-1.58 8.01-.69 4.42 1.12 8.85 2.36 13.45 2.39-1.47-2.3-3.55-4.08-5.48-5.97 1.67-1.57 4.01-3.76 6.47-2.32 3.15 1.72 6.17 4.65 6.44 8.42-.1 2.07-.88 4.71-3.08 5.4-3.89.9-7.9.11-11.85.33 2.94 6.86 7.47 13.02 9.34 20.33 2.9 11.55 1.1 23.55-.76 35.12-.82 4.92.28 9.81.86 14.68.97 12.63-1.11 25.23-1.33 37.85 2.8.44 5.97-.22 8.47 1.4.41 1.4.06 2.87-.03 4.29 25.09.07 50.22 1.26 75.28-.16 1.96-1.78 4.08-4.51 7.09-3.67 4.05 1.51 6.4 5.56 8.12 9.3 5.5 12.64 7.03 26.49 9 40.01 2.09 13.6 1.79 27.39 2.25 41.1.21 27.34.3 54.67.47 82h-448.03c.34-38.98.76-77.97 1.7-116.94.27-11.43 3.83-22.43 5.08-33.74-2.83-3.43-5.71-7.5-5.26-12.2.4-2.34 1.03-5.34 3.51-6.31 2.78-1.09 6.02-2.04 8.87-.6 4.29 2.28 8.68-1.08 13.11-.87 2.25 1.21 4.53 2.55 7.21 2.26 25.3.59 50.62.22 75.93-.08 11.26-.38 22.59.61 33.81-.06-7.36-.43-14.81.13-22.21-.08-.26-1.12-.45-2.25-.58-3.39 1.46-1.82 3.95-1.55 6.02-1.76 13.67-.67 27.37.15 41.03-.65 1.9-.3 4.08-.59 5.12-2.47 7.78-10.86 12.24-23.95 13.8-37.15-.68-4.8-2.2-10.17-6.07-13.36-8.47-.82-16.49 3.99-25 3.24-6.38-.97-12.31-3.89-18.77-4.5-3.16-.59-7.04-.23-9.32-2.94-2.8-3.37-5.04-7.29-6.22-11.53-.55-2.55-.9-6.17 1.8-7.64 4.58-1.1 10.09.59 13.92-2.93 4.72-4.13 9.59-8.97 11.46-15.1-3.28-5.6-8.91-10.21-9.56-17.06-.36-4.52-.16-9.55 2.58-13.37.91-1.32 3.24-2.88 4.29-.84 4.14 5.8 10.64 9.21 16.93 12.2 1.48-5.33 1.39-12.18 6.73-15.37m-1.17 3.66c-2.52 3.64-2.19 8.32-3.83 12.3-1.58 2.29-4.23.56-6.07-.4-5.37-3.06-11.09-6.2-14.5-11.56-3.36 4.43-3.72 10.47-2.42 15.71 1.66 5.17 5.91 8.9 8.65 13.46 1.1 1.84-.3 3.89-1.11 5.54-3.09 5-6.96 9.61-11.7 13.14-4.03 2.89-9.24 1.94-13.88 2.34-1.62 5.69 1.9 11.02 5.04 15.45 1.81 2.78 5.48 2.4 8.33 2.87 6.85.54 13.06 3.86 19.84 4.67 7.56-.03 14.66-3.27 22.19-3.63 3.04-.27 5.21 2.25 6.44 4.72 2.08 4.27 4.15 9.05 3.17 13.9-2.2 12.67-6.44 25.24-14.14 35.67-1.26 1.77-3.27 3.08-5.5 2.97-13.35.83-26.74.07-40.1.56-2.21.15-4.55.08-6.57 1.13 7.04 1.47 14.31.56 21.43 1.49-.02.43-.05 1.28-.07 1.7-5.4.09-10.79.66-16.2.55-4.21-.05-8.39.61-12.6.57-26.3.19-52.62.61-78.92.11-3.32-.17-7.21.26-9.66-2.47-.72.06-1.44.13-2.16.2-.38.21-1.15.65-1.53.87-2.56.4-5.12.8-7.69 1.11-1.34-.89-2.7-1.77-4.07-2.62 1.17 1.62 2.71 3.16 2.85 5.28-1.31 2.3-2.54 4.68-4.26 6.71-.25 1.09-.49 2.2-.74 3.29-.24 7.55-2.07 14.89-3.59 22.24-.21 1.4-.48 2.8-.55 4.22-1.37 6.86-1.92 13.99-1.43 20.98-.57 35.17-1.14 70.34-1.37 105.51 148-.02 296.01-.02 444.01 0-.41-32.55.09-65.11-.95-97.63.09-6.41-.42-12.8-1.07-19.16-.24-3.05-.79-6.07-1.15-9.1-1.27-8.59-2.62-17.17-4.76-25.59-1.58-4.98-3.09-10.13-6.12-14.45-1.62-2.17-4.46-4.69-7.19-2.75-.84.94-1.58 1.95-2.33 2.95-6.42.6-12.87.58-19.3.66-20.85-.1-41.72.15-62.54-.88-5.1.3-10.38-1.1-15.35.07l3.03-2.18-2.26-.05-.84-.29c6.49-.9 13.11.09 19.55-1.24-2.26-2.49-6.06-.62-8.86-1.98-.38-1.08-.56-2.2-.53-3.34.43-12.8 2.58-25.65 1.06-38.45-1.21-5.62-1.05-11.43.11-17.04 1.93-12.3 3.17-25.69-2.61-37.19-1.79-4.31-4.73-8.04-6.38-12.42-.85-1.25.35-2.83 1.63-3.04 3.97-.91 8.32.95 12.11-.83 2.85-4.32-2.45-10.69-7.15-9.62 1.27 1.29 2.54 2.58 3.62 4.04.62 1.59.83 4.22-1.45 4.45-4.8.01-9.39-1.58-14.03-2.61-2.43-.74-4.63 1.22-7.03.96-5.4-.6-10.52-2.66-15.94-3.16-11.31-1.14-22.75-.7-34.03.61-9.67 1.63-19.34 3.36-29.1 4.45-13.29 1.27-26.65.23-39.98.82-2.93-.16-6.69.61-8.78-2-4.08-5.6-7.45-11.73-12.14-16.87-2.33 1.16-4.79 2.3-6.53 4.28m-165.01 135.59c-1.14 4.55 1.82 8.68 4.64 11.92.32-1.59.66-3.17 1.01-4.75-3.76-2.72-3.26-7.61-2.47-11.61-1.45 1.14-2.9 2.51-3.18 4.44m5.2-2.69c-.81 2.37-.6 4.86.24 7.18 1.12-1.89 2.1-3.85 2.87-5.91-1.04-.43-2.06-.9-3.11-1.27z"/><path d="m273.94 98.33c7.26-.95 13.92-4.67 21.23-5.3 4.48 2.02 5.17 7.68 4.8 12.01-1.01 8.63-6.09 15.99-10.6 23.16-1.05 1.58-1.06 3.51-1.31 5.31l4.98-.04-.42-.88c2.43-1.13 5.22-1.8 7.25-3.63 2.83-5.37 3.76-11.5 6.46-16.93 1.54-3.81 4.13-7.03 6.19-10.56 1.8-2.95 2.43-6.44 4.3-9.36 4.89 1.61 8.88 5.02 12.48 8.57 4.4 4.06 5.65 10.47 5.2 16.22-.41 5.39-1.38 10.95-4.1 15.69-1.57 2.57-4.86 2.13-7.42 2.3-10.64-.07-21.31.51-31.92-.5-14.9.8-29.91 1.05-44.82.04 1.09-4.75 1.77-9.9-.55-14.42-3.97-7.91-7.61-16.12-9.68-24.74 5.63-.64 11.09 1.34 16.56 2.35 7.02 1.29 14.28 1.88 21.37.71m3.57 1.4c-5.79 1.22-11.77 1.57-17.65.92-7.32-.48-14.31-2.9-21.58-3.73 2.6 7.13 5.01 14.37 8.67 21.05 2.43 4.46 2.85 9.7 1.81 14.62 12.39.6 24.85.71 37.23-.04.57-6.02 5.5-10.18 7.78-15.54 3.53-6.55 6.88-15.79 1.25-22.15-5.96 1.15-11.65 3.33-17.51 4.87m40.13-5.33c-1.29 4.39-3.34 8.51-6.01 12.22-4.66 6.57-6.25 14.57-9.25 21.9-.68 2.25-2.98 3.19-4.71 4.48 8.78-.15 17.57.04 26.35-.2 1.89-.17 4.51-.08 5.28-2.28 2.61-6.06 3.74-12.85 3.04-19.41-1.05-7.99-8.26-12.99-14.7-16.71zm-106.64 8.6c2.15-2.1 3.8-5.43 6.94-6.05 3.54 2.04 5.99 5.41 8.49 8.55 3.95 5.41 7.92 10.82 11.5 16.5 2.92 3.91.29 9.53-3.35 12.01l.09.31c-11.52.88-23.07.48-34.61.66-2.6-.01-5.22.22-7.79-.22.49-4.19 2.91-8.09 4.46-12.04 3.52-7.38 9.39-13.25 14.27-19.72m6.52-4.07c-5.33 5.23-9.69 11.33-14.33 17.15-4.06 4.95-6.26 11.03-8.56 16.91 12.18-.29 24.39.35 36.54-.68 5.07.33 7.82-6.79 4.41-10.27-5.64-7.95-10.54-16.74-18.06-23.11zm-54.95 38.72c6.79.14 13.58.01 20.37.04 33.34-.9 66.71-.55 100.06-.41 11.38.82 22.79.23 34.19.48.05.27.15.81.2 1.07l-.36-.12c-3.16-1.31-6.66-.56-9.97-.72-6.51.24-13.06-.47-19.53.39-11.17.43-22.36.1-33.53-.01-19.67 0-39.34-.01-59.01.02-1.69-.03-3.36-.24-5.03-.38-8.99-.04-17.98.01-26.97-.02l-.02 1.01c8.98-.05 17.96.11 26.93-.08 16.34-.68 32.75-.09 49.11-.37 7.37.26 14.76-.22 22.12.3l.24.12c-2.11.67-4.34.67-6.53.68-17.3-.05-34.6-.12-51.91-.2-13.55.06-27.11-.71-40.66-.15.07-.41.23-1.24.3-1.65z"/></g><path d="m174.55 7.42c1.74-1.98 4.2-3.12 6.53-4.28 4.69 5.14 8.06 11.27 12.14 16.87 2.09 2.61 5.85 1.84 8.78 2 13.33-.59 26.69.45 39.98-.82 9.76-1.09 19.43-2.82 29.1-4.45 11.28-1.31 22.72-1.75 34.03-.61 5.42.5 10.54 2.56 15.94 3.16 2.4.26 4.6-1.7 7.03-.96 4.64 1.03 9.23 2.62 14.03 2.61 2.28-.23 2.07-2.86 1.45-4.45-1.08-1.46-2.35-2.75-3.62-4.04 4.7-1.07 10 5.3 7.15 9.62-3.79 1.78-8.14-.08-12.11.83-1.28.21-2.48 1.79-1.63 3.04 1.65 4.38 4.59 8.11 6.38 12.42 5.78 11.5 4.54 24.89 2.61 37.19-1.16 5.61-1.32 11.42-.11 17.04 1.52 12.8-.63 25.65-1.06 38.45-.03 1.14.15 2.26.53 3.34 2.8 1.36 6.6-.51 8.86 1.98-6.44 1.33-13.06.34-19.55 1.24l.84.29-.95-.01c-2.02 2.48-5.28 2.81-8.25 2.88-1.66-.06-3.31-.21-4.96-.36l-.3-1.57c-.05-.26-.15-.8-.2-1.07-11.4-.25-22.81.34-34.19-.48-33.35-.14-66.72-.49-100.06.41-6.79-.03-13.58.1-20.37-.04-.07.41-.23 1.24-.3 1.65-1.97.65-3.9 1.4-5.87 2.05-3.63.33-7.62-1.34-10.93.77-.82.23-1.62.5-2.42.74-2.95-1.56-6.16-2.62-9.5-2.86 5.41.11 10.8-.46 16.2-.55.02-.42.05-1.27.07-1.7-7.12-.93-14.39-.02-21.43-1.49 2.02-1.05 4.36-.98 6.57-1.13 13.36-.49 26.75.27 40.1-.56 2.23.11 4.24-1.2 5.5-2.97 7.7-10.43 11.94-23 14.14-35.67.98-4.85-1.09-9.63-3.17-13.9-1.23-2.47-3.4-4.99-6.44-4.72-7.53.36-14.63 3.6-22.19 3.63-6.78-.81-12.99-4.13-19.84-4.67-2.85-.47-6.52-.09-8.33-2.87-3.14-4.43-6.66-9.76-5.04-15.45 4.64-.4 9.85.55 13.88-2.34 4.74-3.53 8.61-8.14 11.7-13.14.81-1.65 2.21-3.7 1.11-5.54-2.74-4.56-6.99-8.29-8.65-13.46-1.3-5.24-.94-11.28 2.42-15.71 3.41 5.36 9.13 8.5 14.5 11.56 1.84.96 4.49 2.69 6.07.4 1.64-3.98 1.31-8.66 3.83-12.3m99.39 90.91c-7.09 1.17-14.35.58-21.37-.71-5.47-1.01-10.93-2.99-16.56-2.35 2.07 8.62 5.71 16.83 9.68 24.74 2.32 4.52 1.64 9.67.55 14.42 14.91 1.01 29.92.76 44.82-.04 10.61 1.01 21.28.43 31.92.5 2.56-.17 5.85.27 7.42-2.3 2.72-4.74 3.69-10.3 4.1-15.69.45-5.75-.8-12.16-5.2-16.22-3.6-3.55-7.59-6.96-12.48-8.57-1.87 2.92-2.5 6.41-4.3 9.36-2.06 3.53-4.65 6.75-6.19 10.56-2.7 5.43-3.63 11.56-6.46 16.93-2.03 1.83-4.82 2.5-7.25 3.63l.42.88-4.98.04c.25-1.8.26-3.73 1.31-5.31 4.51-7.17 9.59-14.53 10.6-23.16.37-4.33-.32-9.99-4.8-12.01-7.31.63-13.97 4.35-21.23 5.3m-62.94 4.67c-4.88 6.47-10.75 12.34-14.27 19.72-1.55 3.95-3.97 7.85-4.46 12.04 2.57.44 5.19.21 7.79.22 11.54-.18 23.09.22 34.61-.66l-.09-.31c3.64-2.48 6.27-8.1 3.35-12.01-3.58-5.68-7.55-11.09-11.5-16.5-2.5-3.14-4.95-6.51-8.49-8.55-3.14.62-4.79 3.95-6.94 6.05z"/><path d="m430.6 137.32c2.73-1.94 5.57.58 7.19 2.75 3.03 4.32 4.54 9.47 6.12 14.45-.36.63-1.07 1.89-1.43 2.52-.91-2.76-2.08-5.43-3.57-7.92-.62.88-1.23 1.76-1.82 2.66-2.5-1.48-5.38-1-8.11-.85-4.26.28-8.58-1.16-12.76.12-4.6 1.33-9.35 2.46-14.16 1.92-8.4-.75-16.67-2.78-25.13-2.75-11.32.05-22.64.15-33.96.01-5.48-.18-11.26 2.09-16.44-.63-2.16.62-4.31 1.26-6.47 1.9 2.78.31 5.57.63 8.35 1.02-8.81 2.36-17.58-1.25-26.45-.67-11.67.71-23.37.1-35.04.61-12.43 1.17-25.37 3.8-37.62.14 4.83-.84 10.4-.28 14.08-4.16-3.83.07-7.59.78-11.27 1.78-5.26 1.56-10.7-.05-16.04.01-8.6-.4-17.09 1.57-25.68 1.13-1.56-.74-3.08-1.54-4.61-2.34 5.13-.86 10.56-.93 15.18-3.6 1.62.59 3.24 1.19 4.86 1.79-.61-1.23-1.2-2.47-1.8-3.7 11.68-.02 23.37-.12 35.05.05 5.08-.25 10.26.09 15.25-1.14-.23-.28-.7-.83-.93-1.11-3.07-.74-6.29-.26-9.42-.3-13.69-.05-27.39.06-41.09-.07l.05-1.49c17.31.08 34.61.15 51.91.2.1 1.26.2 2.52.31 3.78 3.23.02 6.46.07 9.7.22-.09-1.02-.21-2.04-.3-3.05-1.07-.53-2.13-1.08-3.18-1.63l-.24-.12c9.24-.06 18.48.01 27.73-.1 2.26.19 4.54.27 6.82.33 4.36.29 8.72.64 13.1.68l.05 1.26c-14.26.17-28.56-.7-42.79.35l-.88-.05c1.37 1.39 2.14 3.76 4.29 4.1 4.84.73 9.75.15 14.62.51 8.18.65 16.37-.95 24.11-3.49l.7-.21.36 1.89c2.2-.67 4.33-1.59 6.29-2.79-.11.57-.33 1.73-.44 2.31 5.31.02 10.77-.05 15.68-2.38-2.7-.23-5.41-.39-8.12-.5 2.97-.07 6.23-.4 8.25-2.88l.95.01 2.26.05-3.03 2.18-.08 2.81c1.27.3 2.57.48 3.88.58 5.35-.02 10.68.51 16.02.56 4.75.1 9.33-1.64 14.08-1.52 13.26 2.04 26.75 1.38 40.13 1.32.53-.42 1.06-.83 1.6-1.24 5.26 3.25 11.39.05 17.09.88 4 .03 9.59 2.49 11.57-2.54-.69-.05-2.05-.15-2.73-.19.44-1.22.89-2.44 1.34-3.66z" fill="#283032"/><path d="m30.21 138.41c.72-.07 1.44-.14 2.16-.2 2.45 2.73 6.34 2.3 9.66 2.47 26.3.5 52.62.08 78.92-.11 4.21.04 8.39-.62 12.6-.57 3.34.24 6.55 1.3 9.5 2.86-7.79 2.54-16.02.72-24 .62-8.37-.09-16.75-.17-25.12.03-9.87.64-19.8 1.27-29.68.28-4.43-.46-8.87-.09-13.29.34-7.39.76-14.82-1.09-22.19.13.75-1.68 1.54-3.34 2.22-5.04z" fill="#464644"/><path d="m428.27 140.27c.75-1 1.49-2.01 2.33-2.95l3.38-.2c-.45 1.22-.9 2.44-1.34 3.66.68.04 2.04.14 2.73.19-1.98 5.03-7.57 2.57-11.57 2.54-5.7-.83-11.83 2.37-17.09-.88-.54.41-1.07.82-1.6 1.24-13.38.06-26.87.72-40.13-1.32-4.75-.12-9.33 1.62-14.08 1.52-5.34-.05-10.67-.58-16.02-.56 2.91-3.34 7.52-3.15 11.55-3.46 20.82 1.03 41.69.78 62.54.88 6.43-.08 12.88-.06 19.3-.66z" fill="#474947"/><path d="m16.92 137.77c1.37.85 2.73 1.73 4.07 2.62 2.57-.31 5.13-.71 7.69-1.11-2.16 4.36-3.87 8.94-5.2 13.62-1.79-3.05-3.15-6.35-3.71-9.85-.14-2.12-1.68-3.66-2.85-5.28z" fill="#313733"/><path d="m28.68 139.28c.38-.22 1.15-.66 1.53-.87l.78.81c-.68 1.7-1.47 3.36-2.22 5.04-.85 1.95-1.62 3.96-1.93 6.08-.47 3.88-.9 7.98-4.03 10.74.12-2.73.25-5.47.67-8.18 1.33-4.68 3.04-9.26 5.2-13.62z" fill="#080c0b"/><path d="m295.68 139.08c7.11-.18 14.24.2 21.35-.37l.36.12.3 1.57c1.65.15 3.3.3 4.96.36 2.71.11 5.42.27 8.12.5-4.91 2.33-10.37 2.4-15.68 2.38.11-.58.33-1.74.44-2.31l.34-1.57c-2.37.01-4.73.03-7.09 0-4.38-.04-8.74-.39-13.1-.68zm-150.21 3.04c3.31-2.11 7.3-.44 10.93-.77 1.73-.02 3.45-.05 5.17-.1-.19.65-.58 1.94-.78 2.58-5.14-.26-10.23-1.01-15.32-1.71z" fill="#505a59"/><path d="m9.54 143.01c.28-1.93 1.73-3.3 3.18-4.44-.79 4-1.29 8.89 2.47 11.61-.35 1.58-.69 3.16-1.01 4.75-2.82-3.24-5.78-7.37-4.64-11.92z" fill="#0b0b0b"/><path d="m156.4 141.35c1.97-.65 3.9-1.4 5.87-2.05 13.55-.56 27.11.21 40.66.15l-.05 1.49c-.03.64-.08 1.93-.1 2.58-13.36-.04-26.81 1.62-40.1-.14l-1.11-2.13c-1.72.05-3.44.08-5.17.1m38.14-.3c.11 1.43.75 1.69 1.92.78-.11-1.43-.76-1.69-1.92-.78z" fill="#0f1417"/><path d="m254.84 139.65c2.19-.01 4.42-.01 6.53-.68 1.05.55 2.11 1.1 3.18 1.63.09 1.01.21 2.03.3 3.05-3.24-.15-6.47-.2-9.7-.22-.11-1.26-.21-2.52-.31-3.78z" fill="#101518"/><path d="m308.78 139.76c2.36.03 4.72.01 7.09 0l-.34 1.57c-1.96 1.2-4.09 2.12-6.29 2.79l-.36-1.89-.05-1.21z" fill="#0c1210"/><path d="m331.08 140.12c4.97-1.17 10.25.23 15.35-.07-4.03.31-8.64.12-11.55 3.46-1.31-.1-2.61-.28-3.88-.58z" fill="#0d1615"/><path d="m161.57 141.25 1.11 2.13c13.29 1.76 26.74.1 40.1.14l1.24-.01c.6 1.23 1.19 2.47 1.8 3.7-1.62-.6-3.24-1.2-4.86-1.79-4.62 2.67-10.05 2.74-15.18 3.6 1.53.8 3.05 1.6 4.61 2.34-4.4.62-8.82 1.83-13.3 1.15-6.28-.89-12.6-1.82-18.96-1.44-3.23.18-6.06 1.91-9.17 2.55-3.97.27-7.85-.84-11.76-1.31-7.43-1.23-14.85 1.28-22.29.2-10.59-1.35-21.27 1.1-31.83-.6-4.71-.76-9.4.24-14.08.65-4.38.53-8.32-2.06-12.64-2.08-3.49-.07-6.98-.11-10.45-.43-3.42-.48-6.58 1.2-9.9 1.61-1.69-.17-3.33-.58-4.98-.96-.21.63-.62 1.9-.83 2.54-1.07-1.03-2.21-1.97-3.36-2.9.31-2.12 1.08-4.13 1.93-6.08 7.37-1.22 14.8.63 22.19-.13 4.42-.43 8.86-.8 13.29-.34 9.88.99 19.81.36 29.68-.28 8.37-.2 16.75-.12 25.12-.03 7.98.1 16.21 1.92 24-.62.8-.24 1.6-.51 2.42-.74 5.09.7 10.18 1.45 15.32 1.71.2-.64.59-1.93.78-2.58z" fill="#232a29"/><path d="m194.54 141.05c1.16-.91 1.81-.65 1.92.78-1.17.91-1.81.65-1.92-.78z" fill="#363b3e"/><path d="m202.88 140.94c13.7.13 27.4.02 41.09.07 3.13.04 6.35-.44 9.42.3.23.28.7.83.93 1.11-4.99 1.23-10.17.89-15.25 1.14-11.68-.17-23.37-.07-35.05-.05l-1.24.01c.02-.65.07-1.94.1-2.58z" fill="#515555"/><path d="m265.16 141.32.88.05c3.62.72 7.29 1.34 11.01 1.14 10.37-.33 20.76-.12 31.13-.07-7.74 2.54-15.93 4.14-24.11 3.49-4.87-.36-9.78.22-14.62-.51-2.15-.34-2.92-2.71-4.29-4.1z" fill="#3d4142"/><path d="m266.04 141.37c14.23-1.05 28.53-.18 42.79-.35l.05 1.21-.7.21c-10.37-.05-20.76-.26-31.13.07-3.72.2-7.39-.42-11.01-1.14z" fill="#595d5d"/><path d="m15.51 149.76c1.72-2.03 2.95-4.41 4.26-6.71.56 3.5 1.92 6.8 3.71 9.85-.42 2.71-.55 5.45-.67 8.18 3.13-2.76 3.56-6.86 4.03-10.74 1.15.93 2.29 1.87 3.36 2.9.21-.64.62-1.91.83-2.54 1.65.38 3.29.79 4.98.96 3.32-.41 6.48-2.09 9.9-1.61 3.47.32 6.96.36 10.45.43 4.32.02 8.26 2.61 12.64 2.08 4.68-.41 9.37-1.41 14.08-.65 10.56 1.7 21.24-.75 31.83.6 7.44 1.08 14.86-1.43 22.29-.2 3.91.47 7.79 1.58 11.76 1.31 3.11-.64 5.94-2.37 9.17-2.55 6.36-.38 12.68.55 18.96 1.44 4.48.68 8.9-.53 13.3-1.15 8.59.44 17.08-1.53 25.68-1.13 5.34-.06 10.78 1.55 16.04-.01 3.68-1 7.44-1.71 11.27-1.78-3.68 3.88-9.25 3.32-14.08 4.16 12.25 3.66 25.19 1.03 37.62-.14 11.67-.51 23.37.1 35.04-.61 8.87-.58 17.64 3.03 26.45.67-2.78-.39-5.57-.71-8.35-1.02 2.16-.64 4.31-1.28 6.47-1.9 5.18 2.72 10.96.45 16.44.63 11.32.14 22.64.04 33.96-.01 8.46-.03 16.73 2 25.13 2.75 4.81.54 9.56-.59 14.16-1.92 4.18-1.28 8.5.16 12.76-.12 2.73-.15 5.61-.63 8.11.85.59-.9 1.2-1.78 1.82-2.66 1.49 2.49 2.66 5.16 3.57 7.92.36-.63 1.07-1.89 1.43-2.52 2.14 8.42 3.49 17 4.76 25.59-1.26-.79-2.51-1.58-3.76-2.37-.09-.49-.26-1.48-.35-1.97-.87-4.37-1.63-8.77-2.97-13.02-2.33-1.26-4.98-1.71-7.6-1.66-15.67.45-31.33-1.08-46.99-.1-7.32.59-14.62-.56-21.94-.1-7.36.41-14.71-.4-22.07-.17-49.33-.2-98.67-.05-148-.07-26.99.06-53.98 0-80.96.46-14.35-.95-28.68.36-43.02.47-9.16-.19-17.56 4.22-26.68 4.51-1.71-.62-3.37-1.56-5.21-1.65-2.23.28-4.3 1.2-6.41 1.91-2.12-1.48-4.23-2.97-6.35-4.46-2.27 3.83-3.57 8.11-4.29 12.48-.08.4-.23 1.2-.31 1.6-1.22 6.9-.87 13.95-1.9 20.87-.62-.01-1.85-.02-2.47-.02 1.43-6.83 2-13.8 2.35-20.76-.44 1.86-.87 3.71-1.31 5.57-.55-4.43-.85-8.89-.6-13.36-1.17 1.36-2.34 2.72-3.58 4.01l-.09-6.23c.46.65.92 1.3 1.38 1.96-.55-3.77 1.21-7.07 3.76-9.69a17.902 17.902 0 0 0 -4.53-5.27c.25-1.09.49-2.2.74-3.29z" fill="#141e22"/><path d="m14.77 153.05c1.84 1.45 3.38 3.23 4.53 5.27-2.55 2.62-4.31 5.92-3.76 9.69-.46-.66-.92-1.31-1.38-1.96l.09 6.23c-1 1.03-2.04 2.02-3.07 3.01 1.52-7.35 3.35-14.69 3.59-22.24z" fill="#080d10"/><path d="m71.01 161.58c14.34-.11 28.67-1.42 43.02-.47 26.98-.46 53.97-.4 80.96-.46 49.33.02 98.67-.13 148 .07 7.36-.23 14.71.58 22.07.17 7.32-.46 14.62.69 21.94.1 15.66-.98 31.32.55 46.99.1 2.62-.05 5.27.4 7.6 1.66-14.54.95-29.08-.26-43.62.02-25.09.11-50.17-.26-75.25-.2-50.4-.2-100.81-.39-151.21-.11-4.19-.29-8.37-.64-12.57-.52-23.54.56-47.09-.24-70.63.41-5.06.02-9.34 3.22-14.31 3.75-5.19.75-11.45 1.18-14.1 6.51-10.69 2.03-21.65.67-32.47.93-.81-1.09-1.62-2.18-2.44-3.26l-1.16 1.6c-.44.62-1.32 1.87-1.76 2.49.72-4.37 2.02-8.65 4.29-12.48 2.12 1.49 4.23 2.98 6.35 4.46 2.11-.71 4.18-1.63 6.41-1.91 1.84.09 3.5 1.03 5.21 1.65 9.12-.29 17.52-4.7 26.68-4.51zm-10.07 65.55c3.01-.39 6.05-.55 9.08-.39 12.66.65 25.34-.27 37.99.69 12.64.9 25.31.3 37.95.65 22.3 1.48 44.65.46 66.97 1.18 2.06-.03 4.13.23 5.99 1.2-2.31.96-4.79 1.37-7.28 1.25-16.51-1.07-33.08-.51-49.61-.75-8.36-.17-16.69-.98-25.04-.96-9.66-.02-19.33.28-28.97-.58-15.02-1.11-30.15.42-45.14-.86-.49-.36-1.46-1.07-1.94-1.43z" fill="#39424e"/><path d="m88.31 162.35c23.54-.65 47.09.15 70.63-.41 4.2-.12 8.38.23 12.57.52-3.5.32-6.99.71-10.51.66-11.86-.17-23.73.17-35.6.19-.79.89-1.59 1.78-2.38 2.68-2.27-.65-4.6-1.69-7.01-1.09-9.92 1.99-20.03 3.1-30.14 3.38-2.27.15-4.5.68-6.73 1.09 2.06 1.16 4.14 2.29 6.23 3.42-6.92 1.6-14.06.82-21.06 1.66-12.3.84-24.64.85-36.96.76-.25.7-.75 2.09-.99 2.79-.88-2.03-1.76-4.05-2.53-6.12l1.16-1.6c.82 1.08 1.63 2.17 2.44 3.26 10.82-.26 21.78 1.1 32.47-.93 2.65-5.33 8.91-5.76 14.1-6.51 4.97-.53 9.25-3.73 14.31-3.75z" fill="#57616d"/><path d="m125.4 163.31c11.87-.02 23.74-.36 35.6-.19 3.52.05 7.01-.34 10.51-.66 50.4-.28 100.81-.09 151.21.11.99.68 1.98 1.37 2.98 2.05-1.36.35-2.71.71-4.06 1.06 5.39 1.24 10.93.92 16.4 1.4 9 .83 17.99-1.19 26.98-.04 8.32.98 16.69-.06 25.03.22 5.32.24 10.57-.98 15.89-.74 5.5.27 11.04-.15 16.51.67 3.85.57 7.72-.19 11.59 0 1.88-.11 3 1.58 4.32 2.62 2.24 1.79 4.51 3.61 6.2 5.96.09.49.26 1.48.35 1.97.06.51.17 1.51.22 2.01-.04.6-.13 1.81-.18 2.42-1.13-3.61-3-6.91-4.91-10.15-1.3 1-2.61 2-3.9 3.01-4.89-.18-9.74-.97-14.63-1.15-5.89-.02-11.76.74-17.54 1.8-7 1.33-14.11.11-21.17.25-5.04.14-10.08-.3-15.12-.17-13.54.78-27.11.85-40.67.56-8.99.4-17.98-.09-26.98-.05-6-.3-12.01-.82-18-.1-9.38 1.06-18.69-.75-28.04-1.02-9.3-.91-18.63-1.36-27.96-1.85-9.35.4-18.7-.21-28.06-.09-6.98.06-13.91-.87-20.7-2.45-9.55 3.52-19.52-.21-29.27-.26-3.65.04-7.27-.55-10.77-1.57-5.36 2.04-11.13 1.47-16.74 1.39-.22 1.33-.44 2.67-.67 4.01-5.17-.05-10.45-1.59-15.55-.13-2.57.75-5.23 1.14-7.91 1.25 2.66 1.75 5.24 4.25 8.66 4.13 6.34.09 12.68-.03 19.02.15 14.05-.79 27.94 2.3 41.98 2.15 8.74.63 17.56.14 26.23 1.62-4.12.58-8.27.88-12.41 1.12 7.69 3.93 16.51 2.79 24.82 2.92 5.44-.18 10.86 1.08 16.3.34 6.28-.88 12.46.92 18.68 1.5 12.48.21 24.87 2.54 37.39 1.91 17.67.08 35.34.59 53 .62 8.13-.04 16.26-1.29 24.37-.32 5.53-.05 11.08-.22 16.59.46 15.87 1.5 32.07-1.66 47.72 2.24 6.64 1.61 13.39-.35 20.1.14.42.41 1.27 1.24 1.69 1.66-7.24.08-14.48-.03-21.72.18-11.23-1.06-22.51-.64-33.77-.64-11.34.1-22.67-.23-34-.04-6.32.11-12.6 1.04-18.92.98-27.36-.07-54.72.15-82.08.3-8.98.71-17.99.99-26.98 1.45-12.94 1.81-26.04.64-39.04.48-7.46.58-14.94 1.03-22.43.89-11.35-2.23-23.13.84-34.32-2.46 5.26-1.93 10.93-1.09 16.39-1.76 6.06-.73 12.17-.42 18.22.25.68-.32 1.37-.65 2.05-.97 5.18.37 10.09-1.4 14.95-2.9-.97.91-1.95 1.82-2.92 2.74 2.78.03 5.57.05 8.35-.01-2.41-1.84-5.02-3.81-8.24-3.5-8.82.2-17.25-3-26.06-2.95-11.04.27-21.95-1.67-32.98-1.67-5.79-.02-11.72.2-17.24-1.85-.73.5-1.45.99-2.17 1.49-.09-1.05-.18-2.1-.26-3.15-4.35-1.33-8.88-1.29-13.37-1.23-10.87-2.04-21.99-1.63-32.98-2.5-4.38-.48-8.59.9-12.78 1.93-3.1.8-6.15-.61-9.07-1.5-.37.84-.74 1.67-1.11 2.51-1.54-.29-3.08-.57-4.62-.86.02 1.87.02 3.73 0 5.6-2.13-3.25-2.04-7.22-1.64-10.93.08-.4.23-1.2.31-1.6.44-.62 1.32-1.87 1.76-2.49.77 2.07 1.65 4.09 2.53 6.12.24-.7.74-2.09.99-2.79 12.32.09 24.66.08 36.96-.76 7-.84 14.14-.06 21.06-1.66-2.09-1.13-4.17-2.26-6.23-3.42 2.23-.41 4.46-.94 6.73-1.09 10.11-.28 20.22-1.39 30.14-3.38 2.41-.6 4.74.44 7.01 1.09.79-.9 1.59-1.79 2.38-2.68z" fill="#67727e"/><path d="m322.72 162.57c25.08-.06 50.16.31 75.25.2 14.54-.28 29.08.93 43.62-.02 1.34 4.25 2.1 8.65 2.97 13.02-1.69-2.35-3.96-4.17-6.2-5.96-1.32-1.04-2.44-2.73-4.32-2.62-3.87-.19-7.74.57-11.59 0-5.47-.82-11.01-.4-16.51-.67-5.32-.24-10.57.98-15.89.74-8.34-.28-16.71.76-25.03-.22-8.99-1.15-17.98.87-26.98.04-5.47-.48-11.01-.16-16.4-1.4 1.35-.35 2.7-.71 4.06-1.06-1-.68-1.99-1.37-2.98-2.05z" fill="#556170"/><path d="m14.25 172.28c1.24-1.29 2.41-2.65 3.58-4.01-.25 4.47.05 8.93.6 13.36.44-1.86.87-3.71 1.31-5.57-.35 6.96-.92 13.93-2.35 20.76-.86 2.75-1.75 5.54-3.29 8-2.16-.35-3.48-2.18-4.77-3.75.27-.66.8-1.98 1.06-2.64l5.12.51c.18-2.16.36-4.32.49-6.48.25-3.35.61-6.68 1.01-10.01.27-2.57.52-5.16.38-7.74-1.32-.28-3.27-1.02-4.05.58-1.02 1.89-1.51 4.01-2.25 6.02-.11-.45-.34-1.35-.46-1.8.07-1.42.34-2.82.55-4.22 1.03-.99 2.07-1.98 3.07-3.01z" fill="#222d33"/><path d="m120.49 170.32c5.61.08 11.38.65 16.74-1.39 3.5 1.02 7.12 1.61 10.77 1.57 9.75.05 19.72 3.78 29.27.26 6.79 1.58 13.72 2.51 20.7 2.45 9.36-.12 18.71.49 28.06.09 9.33.49 18.66.94 27.96 1.85 9.35.27 18.66 2.08 28.04 1.02 5.99-.72 12-.2 18 .1 9-.04 17.99.45 26.98.05 13.56.29 27.13.22 40.67-.56 5.04-.13 10.08.31 15.12.17 7.06-.14 14.17 1.08 21.17-.25 5.78-1.06 11.65-1.82 17.54-1.8 4.89.18 9.74.97 14.63 1.15 1.29-1.01 2.6-2.01 3.9-3.01 1.91 3.24 3.78 6.54 4.91 10.15-.03.36-.1 1.09-.14 1.46-.6.33-1.79 1-2.39 1.34.71 4.08.49 8.25-.75 12.21-.29-.28-.87-.82-1.17-1.09a262.2 262.2 0 0 0 -1.69-1.66c-6.71-.49-13.46 1.47-20.1-.14-15.65-3.9-31.85-.74-47.72-2.24-5.51-.68-11.06-.51-16.59-.46-8.11-.97-16.24.28-24.37.32-17.66-.03-35.33-.54-53-.62-12.52.63-24.91-1.7-37.39-1.91-6.22-.58-12.4-2.38-18.68-1.5-5.44.74-10.86-.52-16.3-.34-8.31-.13-17.13 1.01-24.82-2.92 4.14-.24 8.29-.54 12.41-1.12-8.67-1.48-17.49-.99-26.23-1.62-14.04.15-27.93-2.94-41.98-2.15-6.34-.18-12.68-.06-19.02-.15-3.42.12-6-2.38-8.66-4.13 2.68-.11 5.34-.5 7.91-1.25 5.1-1.46 10.38.08 15.55.13.23-1.34.45-2.68.67-4.01m129.31 12.09c7.25.49 14.54.57 21.79 0 3.68-.28 7.35.23 10.99.74-.03.44-.08 1.33-.1 1.77 3.97 1.15 8.06 1.8 12.17 2.2 3.28 2.81 7.52.55 11.3.71 3.66.42 7.2 1.94 10.95 1.52 7.38-.57 14.78.78 22.15-.22 4.21-.63 8.46-.41 12.64.27 3.78.97 6.59-2.84 10.33-2.49 6.23.48 12.4-1.7 18.59-.47 3.37.73 6.6-.77 9.7-1.88-4.54-2.59-9.77-.95-14.65-1.94-3.52-.53-7.06.14-10.59-.08-5.05-.29-10.08-1.5-15.14-.86-2.19.19-4.36.69-6.56.61-2.81-.56-5.25-2.73-8.23-2.26-7.72.54-15.42-.49-23.09-1.15-6.05-.49-12.1.37-18.14.32-9.97-.23-19.93-.1-29.89.11-4.9.08-9.61 1.55-14.22 3.1z" fill="#818894"/><path d="m13.34 175.29c.78-1.6 2.73-.86 4.05-.58.14 2.58-.11 5.17-.38 7.74l-5.16.21c-.26 2.72-.54 5.43-.83 8.15.64-.59 1.29-1.18 1.94-1.76.14.72.42 2.18.57 2.91-.16-3.04.2-6.08 1.05-8.99.65 3.13 1.25 6.29 1.42 9.49-.13 2.16-.31 4.32-.49 6.48l-5.12-.51c-.26.66-.79 1.98-1.06 2.64l-.13-.58c-.49-6.99.06-14.12 1.43-20.98.12.45.35 1.35.46 1.8.74-2.01 1.23-4.13 2.25-6.02z" fill="#565e6e"/><path d="m19.86 196.84c1.03-6.92.68-13.97 1.9-20.87-.4 3.71-.49 7.68 1.64 10.93.02-1.87.02-3.73 0-5.6 1.54.29 3.08.57 4.62.86.37-.84.74-1.67 1.11-2.51 2.92.89 5.97 2.3 9.07 1.5 4.19-1.03 8.4-2.41 12.78-1.93 10.99.87 22.11.46 32.98 2.5 4.49-.06 9.02-.1 13.37 1.23.08 1.05.17 2.1.26 3.15.72-.5 1.44-.99 2.17-1.49 5.52 2.05 11.45 1.83 17.24 1.85 11.03 0 21.94 1.94 32.98 1.67 8.81-.05 17.24 3.15 26.06 2.95 3.22-.31 5.83 1.66 8.24 3.5-2.78.06-5.57.04-8.35.01.97-.92 1.95-1.83 2.92-2.74-4.86 1.5-9.77 3.27-14.95 2.9-.68.32-1.37.65-2.05.97-6.05-.67-12.16-.98-18.22-.25-5.46.67-11.13-.17-16.39 1.76 11.19 3.3 22.97.23 34.32 2.46-10.46 1.24-21.01.4-31.51.45-11.22-1.47-22.47.01-33.71.37-19.46.1-38.91-.16-58.37-.13-5.03-.08-10.11.55-15.11-.2-1.32-.76-2.04-2.21-3-3.34z" fill="#515c6e"/><path d="m444.91 177.74c1.25.79 2.5 1.58 3.76 2.37.36 3.03.91 6.05 1.15 9.1-.4 4.25-1.21 8.45-2.35 12.57-1.5-7.26-1.6-14.69-2.34-22.03-.05-.5-.16-1.5-.22-2.01z" fill="#222830"/><path d="m249.8 182.41c4.61-1.55 9.32-3.02 14.22-3.1 9.96-.21 19.92-.34 29.89-.11 6.04.05 12.09-.81 18.14-.32 7.67.66 15.37 1.69 23.09 1.15 2.98-.47 5.42 1.7 8.23 2.26 2.2.08 4.37-.42 6.56-.61 5.06-.64 10.09.57 15.14.86 3.53.22 7.07-.45 10.59.08 4.88.99 10.11-.65 14.65 1.94-3.1 1.11-6.33 2.61-9.7 1.88-6.19-1.23-12.36.95-18.59.47-3.74-.35-6.55 3.46-10.33 2.49-4.18-.68-8.43-.9-12.64-.27-7.37 1-14.77-.35-22.15.22-3.75.42-7.29-1.1-10.95-1.52-3.78-.16-8.02 2.1-11.3-.71-4.11-.4-8.2-1.05-12.17-2.2.02-.44.07-1.33.1-1.77-3.64-.51-7.31-1.02-10.99-.74-7.25.57-14.54.49-21.79 0z" fill="#9398a2"/><path d="m445.13 179.75c.74 7.34.84 14.77 2.34 22.03l-.11.43-2.61-.36c-1.86-1.88-3.79-4.25-6.72-4.11-7.05-.39-14.12.07-21.17-.43l1.92-1.04c7.24-.21 14.48-.1 21.72-.18.3.27.88.81 1.17 1.09 1.24-3.96 1.46-8.13.75-12.21.6-.34 1.79-1.01 2.39-1.34.04-.37.11-1.1.14-1.46.05-.61.14-1.82.18-2.42z" fill="#555d67"/><path d="m11.85 182.66 5.16-.21c-.4 3.33-.76 6.66-1.01 10.01-.17-3.2-.77-6.36-1.42-9.49-.85 2.91-1.21 5.95-1.05 8.99-.15-.73-.43-2.19-.57-2.91-.65.58-1.3 1.17-1.94 1.76.29-2.72.57-5.43.83-8.15z" fill="#79818e"/><path d="m447.47 201.78c1.14-4.12 1.95-8.32 2.35-12.57.65 6.36 1.16 12.75 1.07 19.16-.51-1.93-1.14-3.81-1.74-5.69-1.26 5.31-2.02 10.82-1.21 16.27 1.71 12.25 1.23 24.71-.34 36.94-16.2.48-32.4-.59-48.59.09-10.32-.06-20.65-.07-30.98.09-4.14.21-8.04-1.31-12.05-2.03-3.99.7-7.88 2.2-12.01 1.87-5.36-.44-10.26 2.43-15.62 2.13l-.66-6.23c-7.72 1.03-15.55 1.21-23.24-.2-.29-1.18-.57-2.36-.85-3.54-5.06-.14-10.12-.24-15.18-.25l-.66-5.2c-3.34-.64-6.63-1.44-9.93-2.22-5.44-1.37-11.11.35-16.55-.94-2.62-1.12-4.5-3.37-6.56-5.24-2.07-.18-4.15-.34-6.22-.49-.28-1.19-.56-2.37-.83-3.55-2.4-.19-4.8-.37-7.2-.55-.3-1.04-.61-2.07-.9-3.11-7.99-1.47-15.86-4.32-24.11-3.37l4.38 1.83c.35.75.71 1.5 1.06 2.25a54.228 54.228 0 0 1 -10.16-5.02c-1.15 1.8-2.3 3.61-3.44 5.41-2.51-.88-4.99-1.98-7.64-2.28-3.9-.24-7.84.63-11.72-.12-2.97-.49-5.92-1.44-8.96-1.32-2.6.4-4.9 1.74-7.21 2.9-2.29-1.47-4.9-1.96-7.24-.3-3.6-.19-7.19-.62-10.78-1.01 3.87-.29 7.75-.61 11.61-.98-7.43-1.41-14.91-.21-22.35.27-3.08.47-5.56-1.61-8.17-2.83-4.46-2.22-9.52-2.47-14.31-3.49-.27-.59-.8-1.78-1.07-2.37-5.16-.14-10.42.25-15.45-1.17-5.9-1.67-12.1-.77-18.12-1.66-7.96-1.12-15.9.76-23.88.65-6.66.84-13.23 2.98-20.03 1.99-4.85.28-8.01-3.83-12.01-5.77-2.62-1.09-5.18.63-7.6 1.48-1.83-3.83-3.1-8-2.57-12.28.32 1.56.7 3.11 1.07 4.67.15.62.45 1.86.6 2.49 3.58.54 7.21.92 10.84.7 5.86-.39 11.7.74 17.56.21 5.73-.45 11.44.46 17.17.34 10.01-.16 20.01.11 30.02-.02 3.77-.11 7.27 1.51 10.96 1.97 4.31-.7 8.5-2.34 12.95-2.02 11 .52 22.02.56 33.03.42 22.01.2 44.01-.04 66.02.14 3.83-.03 7.64-.48 11.48-.44 13.48.64 26.99.33 40.49.3 5.2-.01 9.74 3.43 15.03 2.98 6.28-.29 12.73 2.01 18.86-.15 1.53-.47 3.05-.96 4.58-1.44 4.62 1.98 9.66 1.79 14.56 1.48 5.66-.39 11.25 1.12 16.91.69 4-.25 8.06-.87 12.04-.08 4.5.81 8.92 2.95 13.6 1.97 4.49-.79 8.99.15 13.48.4 2.08.21 3.15-2.04 4.58-3.15 1.19.55 2.4 1.12 3.6 1.69-.7 1.25-1.38 2.51-2.08 3.76 11.54-3.92 23.83-1.81 35.74-2.25.74-1.06 1.48-2.11 2.23-3.16 5.91.06 11.67 1.85 17.57 1.76 3.08-2.47 3.41-6.87 4.67-10.38z" fill="#030d0c"/><path d="m332.09 196.57c6.32.06 12.6-.87 18.92-.98 11.33-.19 22.66.14 34 .04 11.26 0 22.54-.42 33.77.64l-1.92 1.04c-17.3-.03-34.59.5-51.89.41-5.99-.03-11.95.79-17.94.48-17.62-1.08-35.27-.12-52.88.55-5.01.59-10.02 1.24-15.08 1.3-14.43.24-28.75 2.53-43.19 2.44-5.29.07-10.54.95-15.83.99-6.06.12-12.06-.91-18.11-1.02-27.66-.22-55.31.19-82.96-.17-7.57-.17-15.43 1.27-22.64-1.78 11.24-.36 22.49-1.84 33.71-.37 10.5-.05 21.05.79 31.51-.45 7.49.14 14.97-.31 22.43-.89 13 .16 26.1 1.33 39.04-.48 8.99-.46 18-.74 26.98-1.45 27.36-.15 54.72-.37 82.08-.3z" fill="#4c565f"/><path d="m14.1 204.82c1.54-2.46 2.43-5.25 3.29-8 .62 0 1.85.01 2.47.02-.01.62-.04 1.87-.06 2.49-.53 4.28.74 8.45 2.57 12.28 2.42-.85 4.98-2.57 7.6-1.48 4 1.94 7.16 6.05 12.01 5.77 6.8.99 13.37-1.15 20.03-1.99 7.98.11 15.92-1.77 23.88-.65 6.02.89 12.22-.01 18.12 1.66 5.03 1.42 10.29 1.03 15.45 1.17.27.59.8 1.78 1.07 2.37 4.79 1.02 9.85 1.27 14.31 3.49 2.61 1.22 5.09 3.3 8.17 2.83 7.44-.48 14.92-1.68 22.35-.27-3.86.37-7.74.69-11.61.98 3.59.39 7.18.82 10.78 1.01 2.34-1.66 4.95-1.17 7.24.3 2.31-1.16 4.61-2.5 7.21-2.9 3.04-.12 5.99.83 8.96 1.32 3.88.75 7.82-.12 11.72.12 2.65.3 5.13 1.4 7.64 2.28 1.14-1.8 2.29-3.61 3.44-5.41 3.2 2.03 6.61 3.7 10.16 5.02-.35-.75-.71-1.5-1.06-2.25l-4.38-1.83c8.25-.95 16.12 1.9 24.11 3.37.29 1.04.6 2.07.9 3.11 2.4.18 4.8.36 7.2.55.27 1.18.55 2.36.83 3.55 2.07.15 4.15.31 6.22.49 2.06 1.87 3.94 4.12 6.56 5.24 5.44 1.29 11.11-.43 16.55.94 3.3.78 6.59 1.58 9.93 2.22l.66 5.2c5.06.01 10.12.11 15.18.25.28 1.18.56 2.36.85 3.54 7.69 1.41 15.52 1.23 23.24.2l.66 6.23c5.36.3 10.26-2.57 15.62-2.13 4.13.33 8.02-1.17 12.01-1.87 4.01.72 7.91 2.24 12.05 2.03 10.33-.16 20.66-.15 30.98-.09 16.19-.68 32.39.39 48.59-.09 1.57-12.23 2.05-24.69.34-36.94-.81-5.45-.05-10.96 1.21-16.27.6 1.88 1.23 3.76 1.74 5.69 1.04 32.52.54 65.08.95 97.63-148-.02-296.01-.02-444.01 0 .23-35.17.8-70.34 1.37-105.51l.13.58c1.29 1.57 2.61 3.4 4.77 3.75m44.32 20.32-1.48 2.16c-2.09-1.29-4.48-2.01-6.94-1.81-3.75.28-7.88-.48-11.2 1.71.31 4.97-7.79 3.96-6.16 9.24-.21.19-.62.55-.83.73.28 2.07.46 4.16.58 6.25 3.95 1.02 7.95 1.94 12.05 2.09.85.19 2.55.56 3.4.74l-.46-1.43c1.08 2.63 2.45 5.13 3.73 7.67.14.02.41.07.54.09.36.44 1.07 1.33 1.42 1.77 4.27.67 8.7.61 12.97-.03 2.77-1.1 3.02-4.38 3.84-6.83 6.7-.13 13.39.1 20.09.08 12.82-.02 25.71 1.87 38.48.22 12.5 1.22 25.12-.04 37.65.84 1.12 6.1 2.05 12.24 3.03 18.36.55 3.15.19 6.65 2.2 9.36 13.34-.12 26.69.12 40.03.04 1.45-6.88 2.82-13.85 3.28-20.88l.44 1.81c2.84-8.72 2.51-18.06 4.19-27l-.35.14c-1.86-.97-3.93-1.23-5.99-1.2-22.32-.72-44.67.3-66.97-1.18-12.64-.35-25.31.25-37.95-.65-12.65-.96-25.33-.04-37.99-.69-3.03-.16-6.07 0-9.08.39-.86-.65-1.69-1.33-2.52-1.99z" fill="#010100"/><path d="m19.86 196.84c.96 1.13 1.68 2.58 3 3.34 5 .75 10.08.12 15.11.2 19.46-.03 38.91.23 58.37.13 7.21 3.05 15.07 1.61 22.64 1.78 27.65.36 55.3-.05 82.96.17 6.05.11 12.05 1.14 18.11 1.02 5.29-.04 10.54-.92 15.83-.99 14.44.09 28.76-2.2 43.19-2.44 5.06-.06 10.07-.71 15.08-1.3 17.61-.67 35.26-1.63 52.88-.55 5.99.31 11.95-.51 17.94-.48 17.3.09 34.59-.44 51.89-.41 7.05.5 14.12.04 21.17.43 2.93-.14 4.86 2.23 6.72 4.11-12.56-1.48-25.13.79-37.68.93-7.47-.39-14.96.32-22.42-.31-3.62-.32-7.18.5-10.74 1.07-4.99.8-9.95-.97-14.95-.4-3.68.41-7.32 1.46-11.05 1.24-11.58-.68-23.18-.13-34.76.04-13.7.88-27.4-.56-41.11-.15-18.03.57-36.05.95-54.08 1.32-26.32-.86-52.66-.69-78.98-1.21-19.65-.04-39.3.22-58.95-.08-9.99-.52-20-.51-30-.48-9.72.05-19.45-.37-29.16.18-.37-1.56-.75-3.11-1.07-4.67.02-.62.05-1.87.06-2.49z" fill="#29343b"/><path d="m407.07 202.78c12.55-.14 25.12-2.41 37.68-.93l2.61.36c-1.26 3.51-1.59 7.91-4.67 10.38-5.9.09-11.66-1.7-17.57-1.76-.75 1.05-1.49 2.1-2.23 3.16-11.91.44-24.2-1.67-35.74 2.25.7-1.25 1.38-2.51 2.08-3.76-1.2-.57-2.41-1.14-3.6-1.69-1.43 1.11-2.5 3.36-4.58 3.15-4.49-.25-8.99-1.19-13.48-.4-4.68.98-9.1-1.16-13.6-1.97-3.98-.79-8.04-.17-12.04.08-5.66.43-11.25-1.08-16.91-.69-4.9.31-9.94.5-14.56-1.48-1.53.48-3.05.97-4.58 1.44-6.13 2.16-12.58-.14-18.86.15-5.29.45-9.83-2.99-15.03-2.98-13.5.03-27.01.34-40.49-.3-3.84-.04-7.65.41-11.48.44-22.01-.18-44.01.06-66.02-.14-11.01.14-22.03.1-33.03-.42-4.45-.32-8.64 1.32-12.95 2.02-3.69-.46-7.19-2.08-10.96-1.97-10.01.13-20.01-.14-30.02.02-5.73.12-11.44-.79-17.17-.34-5.86.53-11.7-.6-17.56-.21-3.63.22-7.26-.16-10.84-.7-.15-.63-.45-1.87-.6-2.49 9.71-.55 19.44-.13 29.16-.18 10-.03 20.01-.04 30 .48 19.65.3 39.3.04 58.95.08 26.32.52 52.66.35 78.98 1.21 18.03-.37 36.05-.75 54.08-1.32 13.71-.41 27.41 1.03 41.11.15 11.58-.17 23.18-.72 34.76-.04 3.73.22 7.37-.83 11.05-1.24 5-.57 9.96 1.2 14.95.4 3.56-.57 7.12-1.39 10.74-1.07 7.46.63 14.95-.08 22.42.31z" fill="#0d181d"/><path d="m58.42 225.14c.83.66 1.66 1.34 2.52 1.99.48.36 1.45 1.07 1.94 1.43 14.99 1.28 30.12-.25 45.14.86 9.64.86 19.31.56 28.97.58 8.35-.02 16.68.79 25.04.96 16.53.24 33.1-.32 49.61.75 1.22.35 2.43.73 3.64 1.14-9.05 1.07-18.16.37-27.24.51-7.7.12-15.37-.73-23.07-.68-21.32-.1-42.62-.92-63.94-1.38-12.56-.94-25.15-1.04-37.74-1.02-.12-.01-.35-.02-.46-.02-2.01-.91-3.96-1.91-5.89-2.96l1.48-2.16z" fill="#1c0000"/><path d="m38.8 227.2c3.32-2.19 7.45-1.43 11.2-1.71 2.46-.2 4.85.52 6.94 1.81 1.93 1.05 3.88 2.05 5.89 2.96-.71.23-2.14.7-2.85.94-1.35-.61-2.67-1.27-4-1.92.81 2.02 1.59 4.05 2.45 6.06-1.98-2.29-3.95-4.59-5.79-6.99-4.74-.3-10.71-1.92-13.96 2.66-.79.77-1.6 1.53-2.42 2.27-1.2 1.06-2.41 2.11-3.62 3.16-1.63-5.28 6.47-4.27 6.16-9.24z" fill="#bc3e3e"/><path d="m38.68 231.01c3.25-4.58 9.22-2.96 13.96-2.66 1.84 2.4 3.81 4.7 5.79 6.99 2.82 3.63 5.59 7.3 8.29 11.02.89 1.83 1.75 4.54-.4 5.88-4.56 2.24-9.87 1.01-14.67.34-.13-.02-.4-.07-.54-.09-1.28-2.54-2.65-5.04-3.73-7.67-.12-.27-.34-.81-.45-1.08-2.22-4.57-5.44-8.53-8.25-12.73z" fill="#bf0702"/><path d="m55.98 229.28c1.33.65 2.65 1.31 4 1.92 9.48 5.65 20.72 1.55 30.89 4.17-.28 1.71-.55 3.42-.81 5.14.71.24 2.12.73 2.82.97-2.24.53-4.48 1.07-6.72 1.64.4.76.8 1.53 1.2 2.3-6.11-.37-12.24-1.09-18.37-.79-.4.33-1.21.99-1.62 1.32l-.65.41c-2.7-3.72-5.47-7.39-8.29-11.02-.86-2.01-1.64-4.04-2.45-6.06z" fill="#c11006"/><path d="m62.83 230.26c.11 0 .34.01.46.02.5.5 1.51 1.49 2.01 1.99 13.26-.15 26.43 1.33 39.68 1.47 15.33 1.24 30.72.59 46.08 1.1 15.28 1.17 30.62.6 45.93.86 6.69.12 13.39.09 20.07-.42-.27 4.42-1.14 8.76-2.12 13.07.13-3.43.04-6.87-.04-10.3-15.75 1.42-31.56 1.99-47.37 1.88-.02 1.49-.05 2.97-.08 4.47-.72-1.47-1.44-2.95-2.16-4.41-5.35.02-10.72-.11-15.97-1.21-5.36-1.14-10.84-.46-16.26-.75-14.03-1.33-28.21-.64-42.19-2.66-10.17-2.62-21.41 1.48-30.89-4.17.71-.24 2.14-.71 2.85-.94z" fill="#a50201"/><path d="m63.29 230.28c12.59-.02 25.18.08 37.74 1.02 21.32.46 42.62 1.28 63.94 1.38 7.7-.05 15.37.8 23.07.68 9.08-.14 18.19.56 27.24-.51a80.51 80.51 0 0 0 -3.64-1.14c2.49.12 4.97-.29 7.28-1.25l.35-.14c-1.68 8.94-1.35 18.28-4.19 27l-.44-1.81c-.02-2.39.1-4.78.3-7.16.98-4.31 1.85-8.65 2.12-13.07-6.68.51-13.38.54-20.07.42-15.31-.26-30.65.31-45.93-.86-15.36-.51-30.75.14-46.08-1.1-13.25-.14-26.42-1.62-39.68-1.47-.5-.5-1.51-1.49-2.01-1.99z" fill="#690203"/><path d="m36.26 233.28c.82-.74 1.63-1.5 2.42-2.27 2.81 4.2 6.03 8.16 8.25 12.73.11.27.33.81.45 1.08l.46 1.43c-.85-.18-2.55-.55-3.4-.74-.78-.77-1.53-1.56-2.26-2.36-2.2-3.15-4.02-6.54-5.92-9.87z" fill="#920500"/><path d="m32.64 236.44c1.21-1.05 2.42-2.1 3.62-3.16 1.9 3.33 3.72 6.72 5.92 9.87-1.93-.13-3.9-.12-5.78-.58-1.83-1.53-3.12-3.57-4.59-5.4.21-.18.62-.54.83-.73z" fill="#c4170e"/><path d="m90.06 240.51c.26-1.72.53-3.43.81-5.14 13.98 2.02 28.16 1.33 42.19 2.66 5.42.29 10.9-.39 16.26.75 5.25 1.1 10.62 1.23 15.97 1.21.72 1.46 1.44 2.94 2.16 4.41.03-1.5.06-2.98.08-4.47 15.81.11 31.62-.46 47.37-1.88.08 3.43.17 6.87.04 10.3-.2 2.38-.32 4.77-.3 7.16-.46 7.03-1.83 14-3.28 20.88-13.34.08-26.69-.16-40.03-.04-2.01-2.71-1.65-6.21-2.2-9.36-.98-6.12-1.91-12.26-3.03-18.36-12.53-.88-25.15.38-37.65-.84-13.49-1.51-27.11-1.31-40.67-1.55l-.42-.82c-.4-.77-.8-1.54-1.2-2.3 2.24-.57 4.48-1.11 6.72-1.64-.7-.24-2.11-.73-2.82-.97z" fill="#bc0102"/><path d="m31.81 237.17c1.47 1.83 2.76 3.87 4.59 5.4 1.88.46 3.85.45 5.78.58.73.8 1.48 1.59 2.26 2.36-4.1-.15-8.1-1.07-12.05-2.09-.12-2.09-.3-4.18-.58-6.25z" fill="#a22a28"/><path d="m68.99 244.63c6.13-.3 12.26.42 18.37.79l.42.82c-6.81.18-13.61-.12-20.41-.29.41-.33 1.22-.99 1.62-1.32z" fill="#b4241b"/><path d="m66.72 246.36.65-.41c6.8.17 13.6.47 20.41.29 13.56.24 27.18.04 40.67 1.55-12.77 1.65-25.66-.24-38.48-.22-6.7.02-13.39-.21-20.09-.08-.82 2.45-1.07 5.73-3.84 6.83-4.27.64-8.7.7-12.97.03-.35-.44-1.06-1.33-1.42-1.77 4.8.67 10.11 1.9 14.67-.34 2.15-1.34 1.29-4.05.4-5.88z" fill="#6b0b0a"/></svg>