<svg xmlns="http://www.w3.org/2000/svg" width="680pt" height="680pt" viewBox="0 0 680 680"><path fill="#fecd4b" d="M327.5 0h25.04c7.94 2.22 16.25.48 24.2 2.42 6.4.11 12.67 1.37 18.99 2.21 3.39 1.02 7.09.36 10.35 1.85 6.34 1.22 12.73 2.24 18.95 4.03 4.81.13 8.76 3.54 13.63 3.29 1.76.82 3.56 1.57 5.33 2.41 1.18.1 2.38.19 3.58.29 5.19 1.91 10.19 4.58 15.68 5.52.77.74 1.54 1.48 2.33 2.22 7.66 1.11 14.12 5.86 21.31 8.43 8.51 4.52 16.99 9.13 25.33 13.97 2.26 1.38 4.51 2.78 6.8 4.14 3.41 3.63 8.38 4.97 12.21 8.02 3.11 2.43 6.26 4.8 9.57 6.96 6.94 5.29 13.51 11.02 20.29 16.51 3.33 2.52 6.09 5.67 9.13 8.51 3.25 3.11 6.79 5.96 9.57 9.52 6.64 6.46 12.95 13.22 19.5 19.77 2.17 3.74 5.55 6.57 7.73 10.31.44.12 1.31.35 1.75.47.62 1.51 1.3 3.01 1.98 4.5 2.71 2.91 5.35 5.95 7.26 9.46 2.34 3.17 4.71 6.34 6.71 9.74 1.58 2.11 2.94 4.38 4.51 6.5 4.29 7.74 9.96 14.85 12.98 23.22 4.62 7.39 7.68 15.58 11.64 23.31.81 3.19 2.32 6.14 3.38 9.24.19.43.58 1.27.77 1.69 1.35 3.69 2.89 7.33 3.68 11.2.3.55.92 1.65 1.22 2.19.59 1.81.74 3.71.95 5.6l1.03 1.07c-.15 5.11 3.22 9.28 3.96 14.21.63 4.87 2.87 9.36 3.35 14.27 1.2 4.93 2.43 9.89 2.56 14.99.81 3.66 1.34 7.37 1.16 11.14.35.31 1.07.93 1.43 1.23-.14 4.4-.27 8.87.96 13.15 1.44 6.51-1.42 13.75 1.7 19.82v25.27c-.4 1.45-.86 2.88-1.32 4.32-.16 5.68.45 11.47-1.22 16.99-.03 7.75-1.12 15.45-2.63 23.04-.43 8.6-3.64 16.74-4.58 25.29-.77 2.24-1.4 4.53-2.07 6.8-.54 1.28-1.11 2.55-1.73 3.79 0 .63-.01 1.9-.01 2.53-.34.37-1 1.11-1.33 1.47v3.06l-1.32 1.44c.2 4.87-2.53 9.09-3.8 13.64-.85 3.85-2.11 7.66-4.33 10.95-.07.49-.23 1.47-.3 1.96-.79 1.58-1.5 3.19-2.21 4.8-.5 1.82-1.21 3.57-1.96 5.3-1.37 2.72-2.61 5.49-4.11 8.14-1.11 2.24-2.18 4.52-3.4 6.71-1.08 2.41-2.29 4.75-3.55 7.06-2.82 5.83-6.61 11.09-9.7 16.77-.58.55-1.15 1.12-1.71 1.69-.74 2.64-2.05 5.07-3.93 7.07-1.54 2.4-3.46 4.51-5.05 6.88-.89 1.4-1.78 2.81-2.63 4.24-2.26 3.31-4.66 6.57-7.73 9.18l-.08 1.67c-2.3 2.23-4.88 4.36-6.1 7.42-.49-.01-1.48-.04-1.97-.05-.01.5-.03 1.51-.03 2.01-1.7 1.77-3.34 3.59-4.98 5.4-3.63 5.23-8.65 9.26-12.61 14.21-.2.09-.59.28-.79.37-.99 1.01-1.97 2.03-2.99 3.01-1.28 1.51-2.64 2.96-3.92 4.47l-1.28.88c-4.47 4.39-9.18 8.55-13.93 12.66-4.31 3.98-9.2 7.27-13.32 11.46-.4.01-1.2.04-1.59.05a163.05 163.05 0 0 1-4.88 4.96c-2.96 1.72-5.6 3.91-8.37 5.91l-1.53.08c-1.56 1.85-3.45 3.4-5.65 4.45-1.38 1.24-2.8 2.44-4.22 3.64-.53 0-1.6-.01-2.13-.01-2.32 2.7-5.83 3.81-8.67 5.84-8.65 5.95-18.44 9.85-27.65 14.8-1.56.69-3.13 1.37-4.65 2.15-1.72.78-3.47 1.51-5.29 2.02-5.62 2.45-11.17 5.21-17.15 6.7-4.32 1.42-8.29 4.27-13.03 3.93-.45.26-1.33.77-1.77 1.03-3.92.97-7.86 1.89-11.63 3.35-6.57 1.98-13.3 3.27-19.99 4.74-7.62 1.83-15.45 2.29-23.12 3.87-5.08 1.18-10.44-.33-15.41 1.5-5.56.61-11.27-.04-16.7 1.71h-26.46c-8.03-2.3-16.49-.33-24.49-2.57-6.12.34-11.96-1.71-18.05-1.68-1.1-.11-2.13-.44-3.09-.99-6.85.45-13.06-3.08-19.83-3.09-.34-.28-1.03-.86-1.37-1.14-.65-.07-1.95-.2-2.6-.26-4.6-1.53-9.56-1.97-13.93-4.28-4.69-2.16-10.16-1.63-14.64-4.24-4.36-1.11-8.52-2.85-12.69-4.5-3.1-1.07-6.03-2.63-9.23-3.4-3.98-1.81-7.8-3.98-11.9-5.5-2.02-1.04-4.06-2.01-6.16-2.84-1.62-1.29-3.39-2.38-5.22-3.33-3.34-.71-6.09-2.79-9.03-4.38-3.45-1.98-7.04-3.83-9.95-6.58-.56-.04-1.68-.1-2.24-.13-1.47-1.2-2.92-2.42-4.37-3.63-1.44-.82-2.83-1.71-4.16-2.7-3.37-2.09-6.69-4.26-9.75-6.78-3.51-1.86-6.51-4.5-9.36-7.22-1.6-.68-3.21-1.34-4.84-1.92-.03-.44-.08-1.32-.11-1.76-3.82-2.19-6.67-5.65-10.47-7.84-6.48-6.64-13.49-12.75-19.67-19.68-.39-.19-1.15-.56-1.54-.74-4.77-6.01-10.96-10.76-15.53-16.95-2.28-3.28-5.61-5.68-7.7-9.11-3.66-3.65-6.35-8.11-9.77-11.96-3.03-4.77-6.85-9-9.63-13.92-2.64-5.23-6.72-9.53-9.55-14.64-2.41-4.61-5.31-8.96-7.54-13.66-1.96-3.37-3.65-6.91-6-10.02-1.83-8.1-7.88-14.67-8.85-23.03-.79-.78-1.57-1.55-2.36-2.32-.16-1.49-.32-2.96-.52-4.43-1.49-1.93-2.3-4.23-2.63-6.62-.54-1.03-1.08-2.06-1.62-3.08-.44-1.61-.79-3.24-1.14-4.87-1.94-4.22-2.22-8.94-4.11-13.17-.85-2.02-1-4.22-1.21-6.36-.24-.26-.72-.8-.96-1.06-.88-8.36-3.58-16.42-4.48-24.77-1.27-7.28-2.62-14.58-2.72-21.99-1.95-8-.31-16.36-2.48-24.36v-25.03c1.04-4.74 1.67-9.57 1.38-14.43.2-3.08-.78-6.55 1.2-9.24.08-4.11.01-8.26.98-12.28.77-3.2.03-6.73 1.74-9.66.09-1.81.15-3.61.18-5.41.33-.34.98-1.01 1.3-1.35 0-1.98-.01-3.95-.01-5.92l1.37-1.81c.08-2.45-.21-5.07 1.13-7.26.14-.54.41-1.61.55-2.14.87-2.29 1.04-4.74 1.17-7.15.32-.32.95-.97 1.27-1.29l.2-2.5c1.23-2.07 1.16-4.51 1.36-6.82 1.01-2.37 1.92-4.77 3.01-7.1.46-1.34.79-2.71 1.11-4.08.72-1.97 1.44-3.93 2.34-5.82l.32-2.12c1.19-2.71 2.12-5.54 3.48-8.18 1.52-3.7 2.85-7.48 4.84-10.97 1.15-2.24 2.2-4.52 3.34-6.76.14-.61.4-1.82.54-2.43 2.2-4.13 3.94-8.5 6.27-12.58.93-1.36 1.87-2.7 2.81-4.04.63-1.4 1.31-2.77 1.97-4.15 2.1-3.8 4.54-7.4 6.96-11.01 4.28-7.73 10.05-14.46 15.04-21.73 1.48-1.81 2.83-3.72 4.02-5.73 1.14-1.16 2.29-2.31 3.45-3.44.09-.45.28-1.33.38-1.77.46-.17 1.38-.52 1.84-.69 6.64-10.53 16.35-18.5 24.86-27.42.21-.43.65-1.29.87-1.72.45-.24 1.34-.73 1.79-.97 5.32-5.29 10.53-10.71 16.13-15.71.17-.25.52-.76.7-1.01 2.72-1.51 5.04-3.61 7.7-5.23.21-.46.62-1.38.82-1.84.36-.12 1.06-.37 1.42-.49 2.91-2.73 6.3-4.86 9.38-7.38 3.24-2.23 6.29-4.71 9.59-6.86 3.87-3.29 8.27-5.81 12.49-8.6.18 0 .53.01.7.01 3.02-2.63 6.49-4.65 10.04-6.47 2.81-1.43 5.53-3.02 8.11-4.84 4.07-2.49 8.72-3.83 12.74-6.39h2.84l-.43-.94c6.04-2.23 11.53-5.69 17.67-7.67 1.32-.69 2.66-1.34 4-1.98 5.46-1.59 10.72-3.86 16.22-5.36 2.54-.99 5.11-1.89 7.63-2.94 2.13-.17 4.35-.2 6.24-1.37l2.49-.16c.33-.34.97-1.01 1.29-1.34 3.27.17 6.48-.39 9.42-1.84 7.14-1.6 14.44-2.59 21.63-3.99 3.31-1.39 7.01-.84 10.46-1.68 3.71-.98 7.58-.46 11.34-1.02 7.71-2.61 16.19.71 23.82-2.4m66.64 39.49c-15.45 2.55-28.18 12.95-38.12 24.51-4.29 4.78-4.93 12.2-2.08 17.86 4.46 8.89 18.21 11.88 25.24 4.36 4.43-4.98 9.36-9.74 15.51-12.52 5.71-2.66 12.54-3.31 18.46-.91 12.71 4.74 22.96 14.14 32.09 23.89 3.55 3.76 9.12 5.45 14.16 4.3-.37 6.74.96 13.36 1.62 20.03 1.51 9.85 2.62 19.78 4.93 29.48 1.21 6.2 2.22 12.48 4.3 18.47l.56 2.86c2.72 8.32 5.43 16.86 10.62 24.05 3.87 4.67 9.43 7.43 14.65 10.31 3.35.96 6.7 1.96 9.99 3.14 6.94.53 13.94.45 20.89-.04 3.23-1.06 6.5-2.02 9.75-3.06 14.04-6.55 25.06-19.16 29.39-34.07 2.55-9.91 1.65-20.38-.79-30.22-2.39-4.42-3.92-9.32-7.07-13.3-4.56-5.85-10.08-11.06-16.62-14.63-7.57-4.09-15.65-7.01-23.61-10.23l-2.03-.6c-3.27-1.17-6.59-2.2-9.84-3.41-11.31-3.72-22.72-7.19-34.21-10.3.9-3.75.8-7.89-1-11.36-2.03-3.8-5.39-6.62-8.32-9.7-6.97-7.14-14.68-13.57-23.12-18.91-13.24-8.62-29.7-12.54-45.35-10M217.1 53.08c-25.6 4.98-48.78 19.81-65.11 39.99-2.66 3.37-3.51 7.89-2.99 12.08-9.45 3.65-18.32 8.6-27.39 13.08-4.69 2.33-9.25 4.9-13.7 7.65-4.68 2.91-9.69 5.39-13.77 9.15-8.94 7.59-15.35 18.32-17 30-1.42 6.58-.5 13.33.69 19.86 3.31 12.9 11.67 24.25 23.07 31.15 1.07 1.02 2.44 1.58 3.78 2.16 4.58 1.91 9.25 3.87 14.22 4.38 9.16.43 18.81.75 27.23-3.5 6.35-2.04 11.01-6.93 16.42-10.55-.65-.13-1.94-.38-2.58-.51.77-.1 2.3-.3 3.07-.41 2.61-4.28 4.67-8.9 5.92-13.77.65-2.67 1.3-5.35 1.8-8.06 3.86-22.87 3.26-46.18 2.85-69.28 2.19-1.73 3.99-3.9 5.91-5.91 13.34-14.31 31.46-24.36 50.99-26.72 14.88-1.54 30.07-.74 44.58 3.05 10 2.98 20.52-6.71 19.48-16.84-.22-7.28-6.18-13.39-13.19-14.71-20.99-4.77-43.03-6.42-64.28-2.29m64.89 97.99c-33.7 3.98-67.18 17.2-91.55 41.33-11.96 11.42-21.3 25.23-29.53 39.5-21.3 36.18-33.47 77.36-37.48 119.05-1.77 15.65-1.19 31.44-.99 47.16 1.24 33.15 7.9 66.35 21.79 96.58 12.87 27.8 33.09 52.49 59.04 69 18.4 11.81 38.61 20.59 59.25 27.65l-.59-.19c15.04 5.03 30.79 7.65 46.08 11.85 20.71 5.71 42.12 7.99 63.37 10.63.42-1.31.88-2.6 1.35-3.87.03.89.07 2.67.09 3.56 16.91 2.45 34.07 2.26 51.12 2.19 42.7-1.13 85.69-9.89 123.89-29.45 14.6-7.32 28.21-16.97 38.95-29.35 10.07-11.45 17.48-25.17 21.72-39.8 5.52-18.77 6.09-38.63 4.37-58-2.49-26.24-9.97-51.65-18-76.64-17.28-51.9-42.64-101.85-79.27-142.84-24.11-27.58-53.6-50.7-86.96-66.02-31.51-14.57-66.05-21.97-100.61-23.77-15.35-.16-30.8-.87-46.04 1.43z"/><path fill="#664301" d="M394.14 39.49c15.65-2.54 32.11 1.38 45.35 10 8.44 5.34 16.15 11.77 23.12 18.91 2.93 3.08 6.29 5.9 8.32 9.7 1.8 3.47 1.9 7.61 1 11.36-1.57 5.91-6.83 9.93-12.53 11.52-5.04 1.15-10.61-.54-14.16-4.3-9.13-9.75-19.38-19.15-32.09-23.89-5.92-2.4-12.75-1.75-18.46.91-6.15 2.78-11.08 7.54-15.51 12.52-7.03 7.52-20.78 4.53-25.24-4.36-2.85-5.66-2.21-13.08 2.08-17.86 9.94-11.56 22.67-21.96 38.12-24.51zM217.1 53.08c21.25-4.13 43.29-2.48 64.28 2.29 7.01 1.32 12.97 7.43 13.19 14.71 1.04 10.13-9.48 19.82-19.48 16.84-14.51-3.79-29.7-4.59-44.58-3.05-19.53 2.36-37.65 12.41-50.99 26.72-1.92 2.01-3.72 4.18-5.91 5.91-9.32 5.9-23.11-.35-24.61-11.35-.52-4.19.33-8.71 2.99-12.08 16.33-20.18 39.51-35.01 65.11-39.99zm64.89 97.99c15.24-2.3 30.69-1.59 46.04-1.43 34.56 1.8 69.1 9.2 100.61 23.77 33.36 15.32 62.85 38.44 86.96 66.02 36.63 40.99 61.99 90.94 79.27 142.84 8.03 24.99 15.51 50.4 18 76.64 1.72 19.37 1.15 39.23-4.37 58-4.24 14.63-11.65 28.35-21.72 39.8-10.74 12.38-24.35 22.03-38.95 29.35-38.2 19.56-81.19 28.32-123.89 29.45-17.05.07-34.21.26-51.12-2.19-.02-.89-.06-2.67-.09-3.56.21-4.93-.19-9.84-.02-14.76 1.02-17.37 5.61-34.72 14.59-49.72 3.42-5.74 7.37-11.16 11.69-16.26 10.65-12.66 20.4-26.11 28.44-40.58 9.73-16.8 17.17-35.15 19.99-54.43 1.66-8.57 1.37-17.32 1.3-25.99-.07-14.06-4.4-27.58-8.23-40.96-10.79-35.71-31.42-67.72-56.04-95.46-7.54-8.11-14.46-17.27-24.52-22.44-10.83-6.27-23.82-6.75-35.94-5.34-16.49 2.6-30.43 14.26-38.27 28.67-5.6 10.53-6.5 22.86-4.94 34.51 1.46 8.34 5 16.32 10.31 22.93 6.02 7.32 13.03 13.77 18.79 21.33 12.17 15.59 22.62 32.93 28.08 52.07 2.64 13.41-2.87 26.81-9.35 38.31-7.04 12.83-17.92 22.84-26.28 34.73-24.3 33.31-37.7 74.36-37.92 115.57l-1.89-.6c-20.64-7.06-40.85-15.84-59.25-27.65-25.95-16.51-46.17-41.2-59.04-69-13.89-30.23-20.55-63.43-21.79-96.58-.2-15.72-.78-31.51.99-47.16 4.01-41.69 16.18-82.87 37.48-119.05 8.23-14.27 17.57-28.08 29.53-39.5 24.37-24.13 57.85-37.35 91.55-41.33z"/><path fill="#5dafee" d="M459.4 100.98c5.7-1.59 10.96-5.61 12.53-11.52 11.49 3.11 22.9 6.58 34.21 10.3 3.25 1.21 6.57 2.24 9.84 3.41l2.03.6c7.96 3.22 16.04 6.14 23.61 10.23 6.54 3.57 12.06 8.78 16.62 14.63 3.15 3.98 4.68 8.88 7.07 13.3 2.44 9.84 3.34 20.31.79 30.22-4.33 14.91-15.35 27.52-29.39 34.07-3.25 1.04-6.52 2-9.75 3.06-6.95.49-13.95.57-20.89.04-3.29-1.18-6.64-2.18-9.99-3.14-5.22-2.88-10.78-5.64-14.65-10.31-5.19-7.19-7.9-15.73-10.62-24.05l-.56-2.86c-2.08-5.99-3.09-12.27-4.3-18.47-2.31-9.7-3.42-19.63-4.93-29.48-.66-6.67-1.99-13.29-1.62-20.03zm-337.79 17.25c9.07-4.48 17.94-9.43 27.39-13.08 1.5 11 15.29 17.25 24.61 11.35.41 23.1 1.01 46.41-2.85 69.28-.5 2.71-1.15 5.39-1.8 8.06-1.25 4.87-3.31 9.49-5.92 13.77-.77.11-2.3.31-3.07.41.64.13 1.93.38 2.58.51-5.41 3.62-10.07 8.51-16.42 10.55-8.42 4.25-18.07 3.93-27.23 3.5-4.97-.51-9.64-2.47-14.22-4.38-1.34-.58-2.71-1.14-3.78-2.16-11.4-6.9-19.76-18.25-23.07-31.15-1.19-6.53-2.11-13.28-.69-19.86 1.65-11.68 8.06-22.41 17-30 4.08-3.76 9.09-6.24 13.77-9.15 4.45-2.75 9.01-5.32 13.7-7.65z"/><path fill="#ea5972" d="M285.72 272.49c7.84-14.41 21.78-26.07 38.27-28.67 12.12-1.41 25.11-.93 35.94 5.34 10.06 5.17 16.98 14.33 24.52 22.44 24.62 27.74 45.25 59.75 56.04 95.46 3.83 13.38 8.16 26.9 8.23 40.96.07 8.67.36 17.42-1.3 25.99-2.82 19.28-10.26 37.63-19.99 54.43-8.04 14.47-17.79 27.92-28.44 40.58-4.32 5.1-8.27 10.52-11.69 16.26-8.98 15-13.57 32.35-14.59 49.72-.17 4.92.23 9.83.02 14.76-.47 1.27-.93 2.56-1.35 3.87-21.25-2.64-42.66-4.92-63.37-10.63-15.29-4.2-31.04-6.82-46.08-11.85l.59.19 1.89.6c.22-41.21 13.62-82.26 37.92-115.57 8.36-11.89 19.24-21.9 26.28-34.73 6.48-11.5 11.99-24.9 9.35-38.31-5.46-19.14-15.91-36.48-28.08-52.07-5.76-7.56-12.77-14.01-18.79-21.33-5.31-6.61-8.85-14.59-10.31-22.93-1.56-11.65-.66-23.98 4.94-34.51z"/></svg>