<svg xmlns="http://www.w3.org/2000/svg" width="72" height="62"><path fill="#fe0000" d="M64 10H34v26H0v18a8 8 0 0 0 8 8h56a8 8 0 0 0 8-8V18a8 8 0 0 0-8-8z"/><path fill="#000095" d="M34 10H8a8 8 0 0 0-8 8v18h34zm-12.126 9.22l4.07-1.096-2.982 2.974a5.763 5.763 0 0 0-1.088-1.878zm.502 3.78a4.876 4.876 0 1 1-9.752 0 4.876 4.876 0 0 1 9.752 0zm0-8.444l-1.096 4.07a5.742 5.742 0 0 0-1.878-1.088zM17.5 13.25l1.084 4.068c-.35-.066-.714-.104-1.084-.104s-.734.038-1.084.104zm-1.902 4.288a5.763 5.763 0 0 0-1.878 1.088l-1.096-4.07zm-2.472 1.682a5.742 5.742 0 0 0-1.088 1.878l-2.982-2.974zm-1.308 2.696a5.708 5.708 0 0 0 0 2.168L7.75 23zm.22 2.984a5.778 5.778 0 0 0 1.088 1.878l-4.07 1.096zm.586 6.544l1.096-4.07a5.778 5.778 0 0 0 1.878 1.088zM17.5 32.75l-1.084-4.068a5.708 5.708 0 0 0 2.168 0zm1.902-4.288a5.778 5.778 0 0 0 1.878-1.088l1.096 4.07zm2.472-1.682a5.742 5.742 0 0 0 1.088-1.878l2.982 2.974zm1.308-2.696a5.708 5.708 0 0 0 0-2.168L27.25 23z"/><path fill="#fff" d="M18.584 17.318L17.5 13.25l-1.084 4.068c.35-.066.714-.104 1.084-.104s.734.038 1.084.104zM11.714 23c0-.37.036-.734.104-1.084L7.75 23l4.068 1.084A5.859 5.859 0 0 1 11.714 23zm4.702 5.682L17.5 32.75l1.084-4.068a5.708 5.708 0 0 1-2.168 0zM23.286 23c0 .37-.036.734-.104 1.084L27.25 23l-4.068-1.084c.066.35.104.714.104 1.084zm-.91-8.444l-2.974 2.982a5.814 5.814 0 0 1 1.878 1.088zm-.502 12.224l4.07 1.096-2.982-2.974a5.763 5.763 0 0 1-1.088 1.878zm-9.25 4.664l2.974-2.982a5.778 5.778 0 0 1-1.878-1.088zm.502-12.224l-4.07-1.096 2.982 2.974a5.763 5.763 0 0 1 1.088-1.878zm6.276 9.242l2.974 2.982-1.096-4.07a5.763 5.763 0 0 1-1.878 1.088zM12.038 24.9l-2.982 2.974 4.07-1.096a5.722 5.722 0 0 1-1.088-1.878zm3.56-7.362l-2.974-2.982 1.096 4.07a5.763 5.763 0 0 1 1.878-1.088zm10.346.586l-4.07 1.096a5.742 5.742 0 0 1 1.088 1.878zM22.376 23a4.876 4.876 0 1 1-9.752 0 4.876 4.876 0 0 1 9.752 0z"/><path fill="#f4900c" d="M72 20.054c0-2.176-.387-4.263-1.098-6.194-.485 5.689-3.518 8.611-6.687 7.25-2.969-1.275-.968-6.246-.82-8.618.249-4.021-.013-8.623-7.317-12.45 3.035 5.806.352 9.413-2.463 9.633-3.122.243-5.982-2.684-4.926-7.434-3.418 2.519-3.518 6.758-2.463 9.5 1.1 2.859-.044 5.234-2.727 5.498-2.998.296-4.663-3.21-3.127-8.796a17.872 17.872 0 0 0-4.263 11.611C36.109 29.966 44.143 38 54.054 38 63.966 38 72 29.966 72 20.054z"/><path fill="#ffcc4d" d="M65.027 25.332c.156 3.255-2.704 4.531-4.243 3.915-2.223-.89-1.627-2.419-2.199-5.585-.572-3.167-2.771-5.366-6.025-6.334 2.375 6.685-1.317 9.149-3.252 9.589-1.976.45-3.961-.001-4.188-4.23a12.627 12.627 0 0 0-3.733 8.979c0 .389.024.771.058 1.151A17.88 17.88 0 0 0 54.054 38a17.88 17.88 0 0 0 12.61-5.183c.034-.38.058-.762.058-1.151 0-2.308-.617-4.471-1.695-6.334z"/></svg>