<svg height="128pt" viewBox="0 0 93 128" width="124" xmlns="http://www.w3.org/2000/svg"><path d="m22.93 0h1.22c-4.15 2.12-8.63 3.62-13.32 3.7 1.2 1.25 2.4 2.51 3.57 3.78-2.17-.02-4.35-.06-6.52-.08.98 1.37 1.96 2.73 2.94 4.1-1.52.74-3.04 1.47-4.56 2.19 1.69 2.3 2.6 5 3.06 7.79-2.72 1.13-5.42 2.31-8.09 3.56 2.08.49 4.16.96 6.24 1.43-2.03 5.12-2.69 10.63-2.99 16.1 1.66 2.34 3.17 4.78 4.48 7.33.88-.42 1.75-.86 2.62-1.29.2 1.99.41 3.97.77 5.94l-.87-.12c-2.11-.7-4.18-1.72-6.43-1.86-1.79.3-3.4 1.17-5.05 1.88v-24.83c1.57-7.57 2.12-15.67 5.96-22.52 3.31-6.04 10.92-6.38 16.97-7.1zm-22.93 59.18c1.26 2.54 3.43 4.85 3.63 7.79-.33 4.1-2.39 7.77-3.63 11.63zm0 22.73c1.39 1.05 2.78 2.09 4.18 3.13 1.97-.51 3.94-1.03 5.9-1.57 1.33 6.12 3.1 12.14 5.28 18.01 2.14 5.8 4.34 11.87 8.8 16.34 4.43 4.32 9.73 7.67 15.37 10.18h-9.01c-6.98-3.34-13.88-7.89-17.71-14.84-5.51-8.94-5.82-20.28-12.81-28.39z" opacity=".42"/><g fill="#030303"><path d="m24.15 0h51.04c-2.74 2.89 2.92 2.94 2.6 0h3.34c2.71.47 5.43.85 8.15 1.22-.86.68-1.72 1.35-2.58 2.03.86 1.05 1.71 2.11 2.56 3.17-1.77.29-3.53.57-5.29.85 2.14 1 4.26 2.02 6.38 3.07-.16 3.71 1.16 7.2 2.65 10.53v10.26c-.95.45-1.9.89-2.84 1.35 1.09 5.87-1.4 11.59-1 17.46.44 7.37-.38 14.72-1.41 22-1.55 10.78-3.78 21.82-9.71 31.14-6.47 10.41-15.08 20.26-26.71 24.92h-11.8c-5.64-2.51-10.94-5.86-15.37-10.18-4.46-4.47-6.66-10.54-8.8-16.34-2.18-5.87-3.95-11.89-5.28-18.01-1.96.54-3.93 1.06-5.9 1.57-1.4-1.04-2.79-2.08-4.18-3.13v-3.31c1.24-3.86 3.3-7.53 3.63-11.63-.2-2.94-2.37-5.25-3.63-7.79v-4.73c1.65-.71 3.26-1.58 5.05-1.88 2.25.14 4.32 1.16 6.43 1.86-1.33 1.14.82 4.21 1.61 1.94-.18-.46-.55-1.37-.74-1.82-.36-1.97-.57-3.95-.77-5.94-.87.43-1.74.87-2.62 1.29a60.347 60.347 0 0 0 -4.48-7.33c.3-5.47.96-10.98 2.99-16.1-2.08-.47-4.16-.94-6.24-1.43 2.67-1.25 5.37-2.43 8.09-3.56-.46-2.79-1.37-5.49-3.06-7.79 1.52-.72 3.04-1.45 4.56-2.19-.98-1.37-1.96-2.73-2.94-4.1 2.17.02 4.35.06 6.52.08-1.17-1.27-2.37-2.53-3.57-3.78 4.69-.08 9.17-1.58 13.32-3.7m21.86 6.78c-1.69 2.16-4.71 1.05-6.78 2.47-1.15.6-2.16 1.42-3.23 2.15 2.78 5.26 5.82 10.46 10.47 14.31-.45-1.89-.94-3.76-1.19-5.69 2.04 2.05 2.99 4.81 4.37 7.29 1.11 1.36 2.7 2.19 4.03 3.3.99 3.4.98 7 1.9 10.43 1.28-1.92 2.37-3.96 3.8-5.78 1.07 4.98-1.47 9.58-4.43 13.36-3.87-1.89-7.38-4.41-11.06-6.62-1.01-.67-2.24-.91-3.43-.72-4.04 4.98-6.04 11.37-5.29 17.77-.04 3.79.97 10.16 5.9 9.91 4.07.65 5.89-3.77 9.33-4.91-1.4 5.74-4.69 12.21-10.97 13.65-.56-2.73 2.07-3.81 3.84-5.16-2.83-.14-6.09-.38-7.82-2.98-4.05-5.34-4.27-12.77-2.75-19.07 1.3-3.77.42-7.79.95-11.67-2.84-.41-5.71-.73-8.45-1.61 1.95-.84 5.96.53 5.47-2.76 1.65.08 3.3.13 4.96.15-3.68-2.27-7.95-4.16-9.98-8.23-.67-.04-2.02-.12-2.69-.15-.53 3.38-1.16 6.73-2.2 9.99-.9 2.37.06 4.89-.54 7.28-2.01 8.04-2.92 16.42-5.98 24.15-1.55-3.65-2.37-7.79-5.03-10.85-1.51-1.8-3.95-1.45-6.03-1.46-1.11 4.73 5 7.06 4.21 11.64-1.01 5.1-4.46 9.79-3.08 15.22 5.63-1.14 5.41-7.82 8.77-11.3.19 3.05-.04 6.11 0 9.16-.12 6.66 2.67 12.86 4.73 19.05 2.46 7.67 5.84 15.69 12.52 20.62 5.8 4.61 13.55 7.22 20.92 5.55 7.39-3.03 13.23-8.75 18.15-14.9 6.19-7.54 11.18-16.29 13.23-25.9 4.22-15.12 5.15-31.18 2.81-46.67l-2.28 1.68c.99 5.17-.27 10.34.11 15.54-.6 6.95-1.87 15.29-8.72 18.88 2.2.75 5.16.64 6.21 3.16-7.16 2.57-15.02-5.59-13.1-12.65 1.99 1.78 3.47 4 4.93 6.22 2.31-.25 4.82-1.14 5.58-3.59 3.32-7.55 3.77-16.79.12-24.3-3.2 1.91-6.34 3.94-9.63 5.71-3.04-4.56-4.73-9.87-5.74-15.21 1.75.53 3.49 1.08 5.25 1.57.75-2.34 1.65-4.64 2.91-6.75.65 2.3-.03 4.59-.41 6.87 2.08-3.71 2.27-8.2 4.77-11.7.03 2.04-.15 4.09-.37 6.12 1.43-1.83 2.98-3.58 4.68-5.17-.11 1.68-.18 3.36-.37 5.03-1 2.13-3.72 3.15-4.17 5.51 2.89-3.12 8.03-6.18 6.45-11.18-2.87-6.49-8.57-11-14.07-15.2-3.58-2.48-8.21-2.29-12.34-1.74-.01.46-.02 1.38-.03 1.84-2.55-.02-5.1-.08-7.64-.31-.26-1.67-.51-3.34-.72-5.02-.24 1.24-.44 2.48-.85 3.67m-28.81-2.86c2.77 3.04 6.8 4.34 10.59 5.58-2.95-2.76-6.51-5.04-10.59-5.58m59.38 4.5c2.98 1.52 6.29 2.19 9.62 2.27-3.02-1.38-6.28-2.26-9.62-2.27m-63 .46c1.98 1.68 4.36 2.74 6.91 3.19-1.74-2.07-4.15-3.37-6.91-3.19m71.86 5.5c-.61 1.16 1.25 2.63 2.22 1.69.67-1.18-1.27-2.53-2.22-1.69m-51.85 1.69c.27.55.82 1.66 1.09 2.21.45.07 1.36.22 1.82.29.03-.54.11-1.64.14-2.19-.76-.08-2.28-.23-3.05-.31m-21 2.99c2.26.37 4.56.41 6.84.2-2.18-1.03-4.6-1.15-6.84-.2m14.23 1.92c1.95.39 3.92.68 5.89.96-.1-.69-.29-2.07-.39-2.76-1.84.59-3.66 1.21-5.5 1.8m-2.72 2.11c1.24.51 2.45 1.07 3.66 1.62-.96-.93-1.93-1.87-2.86-2.84-.26.41-.53.82-.8 1.22m-15.61 7.97c2.38-.46 4.45-1.71 6.06-3.51-2.28.66-4.5 1.65-6.06 3.51m9.73-2.91c-.98.22-2.39 1.29-1.82 2.42 1.64 1.3 4.87-2.73 1.82-2.42m-8.8 6.26c-1.06.1-2.48 1.39-1.83 2.51 1.34.98 3.78-1.95 1.83-2.51m74.91.78c-1.36.67-1.39 1.34-.1 2 1.37-.68 1.4-1.35.1-2z"/><path d="m50.47 17.6c5.4.2 10.79.45 16.2.37-1.58 3.43-5.58 2.36-8.61 2.51-2.85.24-5.32-1.39-7.59-2.88zm2.23 5.29c6.02-.19 12.27.91 17.98-1.59-4.37 4.89-12.79 5.6-17.98 1.59zm9.17 20.04c3.28 5.33 3.79 12 3.74 18.17.43 5.14 2.17 10.04 3.5 14.99.77 3.15-.38 7.63-4.19 7.95-3.62-.19-7.22-1.58-10.75-.03.63-.49 1.91-1.47 2.54-1.96-2.8-1.79-4.78-4.45-6.43-7.28-1.82 3.11-3.41 6.82-6.95 8.3 1.74-5.12 5.25-9.32 7.78-14.04.96-2.34 4.55-3.82 6.33-1.61 1.65 1.3.95 3.58 1.13 5.38-1.4-1.42-2.7-2.93-4.04-4.41-1.87 2.58-1.4 6.08.58 8.45 2.91 3.18 7.27 4.63 11.52 3.93.33-3.66-.63-7.18-1.73-10.63-1.86-8.92-5.06-18.03-3.03-27.21zm-16.28 8.88c.95-.02 1.89-.03 2.84-.04.14 2.4.81 5.2-1.44 6.87-2.16-1.7-1.55-4.44-1.4-6.83zm30.05.01c.92.02 1.83.05 2.75.07.37 2.64.52 5.4-1.41 7.5-1.35-2.31-1.71-4.93-1.34-7.57zm-57.45 23.57c1.77-1.01 2.95 1.97 1.37 2.88-1.73 1.11-2.84-2.01-1.37-2.88z"/><path d="m35.18 79.75c.81-.26 2.41-.77 3.22-1.02 6.22 4.59 10.04 13.46 18.67 13.97 5.04.91 8.59-3.22 12.51-5.51-.75 3.7-2.27 7.18-3.85 10.6-1.68 4.76-6.73 6.75-10.01 10.22-3.47 1.6-8.17.96-11-1.78-2.72-2.64-5.2-5.81-6.05-9.58-1.34-5.59-2.46-11.24-3.49-16.9m4.2 3.75c.04 3.85 0 8.01 2.62 11.14.3-2.06.96-4.13.68-6.21-.96-1.74-2.18-3.31-3.3-4.93m5.95 7.79c.22 2.12.65 4.21 1.16 6.28l2.1-.08c-.03-1.56.04-3.13-.21-4.67-1.03-.49-2.04-1.01-3.05-1.53m8.05 4.21c.11 1.57.22 3.15.34 4.72.41.07 1.25.2 1.66.26.54-1.58 1.06-3.17 1.49-4.78-1.16-.07-2.32-.14-3.49-.2m8.13.19c-.06 1.03-.13 2.06-.19 3.08.47-.11 1.42-.35 1.9-.47.14-.98.28-1.95.43-2.93z"/><path d="m48.98 81.41c1.64-.53 2.2.03 1.66 1.67-1.62.49-2.18-.06-1.66-1.67zm-31.35 2.05c.63.06 1.89.17 2.52.23-.03.59-.08 1.78-.11 2.37-.63.09-1.88.26-2.5.35.02-.74.07-2.21.09-2.95zm5.57-.19c1.44-1.1 3.15 1.4 1.66 2.39-1.48 1.16-3.08-1.36-1.66-2.39zm8.91 2.28c.97-.99 3.18-.32 2.64 1.27-.55 2.25-4.71.48-2.64-1.27zm29.82-.04c1.28-1 2.85 1.23 1.6 2.18-1.33 1.01-2.82-1.18-1.6-2.18zm-3.69 1.82c1.37-.35 1.85.18 1.46 1.58-1.34.35-1.83-.18-1.46-1.58zm-30.78.3c.46.06 1.39.17 1.86.22l.08 3.2c-.43.02-1.31.04-1.74.05zm44.62 2.13 2.72-1.88c-.38 1.54-.77 3.08-1.17 4.62-.39-.69-1.16-2.06-1.55-2.74zm-50.02 1.36c1.4-1.07 3.25 1.33 1.8 2.38-1.42 1.06-3.23-1.32-1.8-2.38zm53.58.21c.49-.13 1.48-.4 1.97-.53-.04.62-.14 1.86-.18 2.48l-1.9.36c.02-.58.08-1.73.11-2.31zm-55.47 6c1.44-1.12 3.22 1.26 1.74 2.31-1.4 1.09-3.28-1.3-1.74-2.31zm8.96-.44c1.5-1.21 2.94 1.48 1.58 2.47-1.51 1.17-2.98-1.5-1.58-2.47zm44.98 1.51c2.58-.72.39 3.15-.44.72zm-48.93 1.97c1.41-1.09 3.21 1.33 1.77 2.38-1.44 1.08-3.19-1.31-1.77-2.38zm42.13 4.06c.48-1.48 1.53-2.6 2.76-3.52.04 1.16.07 2.32.1 3.49-.72.01-2.15.02-2.86.03zm-34.32-2.52c.64-.06 1.92-.16 2.55-.21-.07 1.21-.16 2.42-.25 3.63l-2.51.16zm27.89 2.51c1.09.7 2.02 1.56 2.8 2.59-.89.81-1.82 1.59-2.79 2.31a36.42 36.42 0 0 1 -.01-4.9zm-36.71 2.47 2.86.08.16 2.96c-1.74-.26-2.75-1.32-3.02-3.04zm4.43-.28c.76.81 1.54 1.6 2.24 2.47-.74.85-1.48 1.7-2.23 2.54-.09-1.67-.1-3.34-.01-5.01zm12.37 1.01c1.47-1.21 3.25 1.23 1.53 2.19-1.43 1.43-3.08-1.25-1.53-2.19zm-4.56 1.89c1.62-.51 2.17.05 1.64 1.68-1.6.53-2.15-.03-1.64-1.68zm28.76-.12c1.43-1.22 3.38 1.1 1.57 2.08-1.42 1.26-3.36-1.14-1.57-2.08zm-9.73 1.46c1.61-.52 2.17.04 1.65 1.66-1.63.53-2.18-.02-1.65-1.66zm-5.43 2.28c1.06.36 2.76.21 2.6 1.8-.52.75-1.07 1.48-1.65 2.19-.34-1.33-.65-2.66-.95-3.99zm10.94.23c1.62-.53 2.16.03 1.62 1.69-1.61.52-2.15-.05-1.62-1.69zm-28.08.37c.79.05 2.37.16 3.15.22.01.8.02 2.41.03 3.22-.79.03-2.35.08-3.13.11-.01-.89-.04-2.66-.05-3.55z"/><path d="m50.07 118.99c3.89.56 5.92-3.2 8.37-5.46 1.36 6.11-6.71 11.18-11.8 7.84-2.59-1.36-3.59-4.34-3.27-7.12 3.07.53 3.47 5.05 6.7 4.74zm-11.07-2.6c1.5-1.17 3.03 1.46 1.57 2.44-1.49 1.28-2.91-1.47-1.57-2.44z"/></g><path d="m75.19 0h2.6c.32 2.94-5.34 2.89-2.6 0zm-29.18 6.78c.41-1.19.61-2.43.85-3.67.21 1.68.46 3.35.72 5.02 2.54.23 5.09.29 7.64.31.01-.46.02-1.38.03-1.84 4.13-.55 8.76-.74 12.34 1.74 5.5 4.2 11.2 8.71 14.07 15.2 1.58 5-3.56 8.06-6.45 11.18.45-2.36 3.17-3.38 4.17-5.51.19-1.67.26-3.35.37-5.03-1.7 1.59-3.25 3.34-4.68 5.17.22-2.03.4-4.08.37-6.12-2.5 3.5-2.69 7.99-4.77 11.7.38-2.28 1.06-4.57.41-6.87-1.26 2.11-2.16 4.41-2.91 6.75-1.76-.49-3.5-1.04-5.25-1.57 1.01 5.34 2.7 10.65 5.74 15.21 3.29-1.77 6.43-3.8 9.63-5.71 3.65 7.51 3.2 16.75-.12 24.3-.76 2.45-3.27 3.34-5.58 3.59-1.46-2.22-2.94-4.44-4.93-6.22-1.92 7.06 5.94 15.22 13.1 12.65-1.05-2.52-4.01-2.41-6.21-3.16 6.85-3.59 8.12-11.93 8.72-18.88-.38-5.2.88-10.37-.11-15.54l2.28-1.68c2.34 15.49 1.41 31.55-2.81 46.67-2.05 9.61-7.04 18.36-13.23 25.9-4.92 6.15-10.76 11.87-18.15 14.9-7.37 1.67-15.12-.94-20.92-5.55-6.68-4.93-10.06-12.95-12.52-20.62-2.06-6.19-4.85-12.39-4.73-19.05-.04-3.05.19-6.11 0-9.16-3.36 3.48-3.14 10.16-8.77 11.3-1.38-5.43 2.07-10.12 3.08-15.22.79-4.58-5.32-6.91-4.21-11.64 2.08.01 4.52-.34 6.03 1.46 2.66 3.06 3.48 7.2 5.03 10.85 3.06-7.73 3.97-16.11 5.98-24.15.6-2.39-.36-4.91.54-7.28 1.04-3.26 1.67-6.61 2.2-9.99.67.03 2.02.11 2.69.15 2.03 4.07 6.3 5.96 9.98 8.23-1.66-.02-3.31-.07-4.96-.15.49 3.29-3.52 1.92-5.47 2.76 2.74.88 5.61 1.2 8.45 1.61-.53 3.88.35 7.9-.95 11.67-1.52 6.3-1.3 13.73 2.75 19.07 1.73 2.6 4.99 2.84 7.82 2.98-1.77 1.35-4.4 2.43-3.84 5.16 6.28-1.44 9.57-7.91 10.97-13.65-3.44 1.14-5.26 5.56-9.33 4.91-4.93.25-5.94-6.12-5.9-9.91-.75-6.4 1.25-12.79 5.29-17.77 1.19-.19 2.42.05 3.43.72 3.68 2.21 7.19 4.73 11.06 6.62 2.96-3.78 5.5-8.38 4.43-13.36-1.43 1.82-2.52 3.86-3.8 5.78-.92-3.43-.91-7.03-1.9-10.43-1.33-1.11-2.92-1.94-4.03-3.3-1.38-2.48-2.33-5.24-4.37-7.29.25 1.93.74 3.8 1.19 5.69-4.65-3.85-7.69-9.05-10.47-14.31 1.07-.73 2.08-1.55 3.23-2.15 2.07-1.42 5.09-.31 6.78-2.47m4.46 10.82c2.27 1.49 4.74 3.12 7.59 2.88 3.03-.15 7.03.92 8.61-2.51-5.41.08-10.8-.17-16.2-.37m2.23 5.29c5.19 4.01 13.61 3.3 17.98-1.59-5.71 2.5-11.96 1.4-17.98 1.59m9.17 20.04c-2.03 9.18 1.17 18.29 3.03 27.21 1.1 3.45 2.06 6.97 1.73 10.63-4.25.7-8.61-.75-11.52-3.93-1.98-2.37-2.45-5.87-.58-8.45 1.34 1.48 2.64 2.99 4.04 4.41-.18-1.8.52-4.08-1.13-5.38-1.78-2.21-5.37-.73-6.33 1.61-2.53 4.72-6.04 8.92-7.78 14.04 3.54-1.48 5.13-5.19 6.95-8.3 1.65 2.83 3.63 5.49 6.43 7.28-.63.49-1.91 1.47-2.54 1.96 3.53-1.55 7.13-.16 10.75.03 3.81-.32 4.96-4.8 4.19-7.95-1.33-4.95-3.07-9.85-3.5-14.99.05-6.17-.46-12.84-3.74-18.17m-16.28 8.88c-.15 2.39-.76 5.13 1.4 6.83 2.25-1.67 1.58-4.47 1.44-6.87-.95.01-1.89.02-2.84.04m30.05.01c-.37 2.64-.01 5.26 1.34 7.57 1.93-2.1 1.78-4.86 1.41-7.5-.92-.02-1.83-.05-2.75-.07m-57.45 23.57c-1.47.87-.36 3.99 1.37 2.88 1.58-.91.4-3.89-1.37-2.88m16.99 4.36c1.03 5.66 2.15 11.31 3.49 16.9.85 3.77 3.33 6.94 6.05 9.58 2.83 2.74 7.53 3.38 11 1.78 3.28-3.47 8.33-5.46 10.01-10.22 1.58-3.42 3.1-6.9 3.85-10.6-3.92 2.29-7.47 6.42-12.51 5.51-8.63-.51-12.45-9.38-18.67-13.97-.81.25-2.41.76-3.22 1.02m13.8 1.66c-.52 1.61.04 2.16 1.66 1.67.54-1.64-.02-2.2-1.66-1.67m-31.35 2.05c-.02.74-.07 2.21-.09 2.95.62-.09 1.87-.26 2.5-.35.03-.59.08-1.78.11-2.37-.63-.06-1.89-.17-2.52-.23m5.57-.19c-1.42 1.03.18 3.55 1.66 2.39 1.49-.99-.22-3.49-1.66-2.39m8.91 2.28c-2.07 1.75 2.09 3.52 2.64 1.27.54-1.59-1.67-2.26-2.64-1.27m29.82-.04c-1.22 1 .27 3.19 1.6 2.18 1.25-.95-.32-3.18-1.6-2.18m-3.69 1.82c-.37 1.4.12 1.93 1.46 1.58.39-1.4-.09-1.93-1.46-1.58m-30.78.3.2 3.47c.43-.01 1.31-.03 1.74-.05l-.08-3.2c-.47-.05-1.4-.16-1.86-.22m44.62 2.13c.39.68 1.16 2.05 1.55 2.74.4-1.54.79-3.08 1.17-4.62zm-50.02 1.36c-1.43 1.06.38 3.44 1.8 2.38 1.45-1.05-.4-3.45-1.8-2.38m53.58.21c-.03.58-.09 1.73-.11 2.31l1.9-.36c.04-.62.14-1.86.18-2.48-.49.13-1.48.4-1.97.53m-55.47 6c-1.54 1.01.34 3.4 1.74 2.31 1.48-1.05-.3-3.43-1.74-2.31m8.96-.44c-1.4.97.07 3.64 1.58 2.47 1.36-.99-.08-3.68-1.58-2.47m44.98 1.51-.44.72c.83 2.43 3.02-1.44.44-.72m-48.93 1.97c-1.42 1.07.33 3.46 1.77 2.38 1.44-1.05-.36-3.47-1.77-2.38m42.13 4.06c.71-.01 2.14-.02 2.86-.03-.03-1.17-.06-2.33-.1-3.49-1.23.92-2.28 2.04-2.76 3.52m-34.32-2.52-.21 3.58 2.51-.16c.09-1.21.18-2.42.25-3.63-.63.05-1.91.15-2.55.21m27.89 2.51c-.11 1.63-.1 3.27.01 4.9.97-.72 1.9-1.5 2.79-2.31-.78-1.03-1.71-1.89-2.8-2.59m-36.71 2.47c.27 1.72 1.28 2.78 3.02 3.04l-.16-2.96zm4.43-.28c-.09 1.67-.08 3.34.01 5.01.75-.84 1.49-1.69 2.23-2.54-.7-.87-1.48-1.66-2.24-2.47m12.37 1.01c-1.55.94.1 3.62 1.53 2.19 1.72-.96-.06-3.4-1.53-2.19m-4.56 1.89c-.51 1.65.04 2.21 1.64 1.68.53-1.63-.02-2.19-1.64-1.68m28.76-.12c-1.79.94.15 3.34 1.57 2.08 1.81-.98-.14-3.3-1.57-2.08m-9.73 1.46c-.53 1.64.02 2.19 1.65 1.66.52-1.62-.04-2.18-1.65-1.66m-5.43 2.28c.3 1.33.61 2.66.95 3.99.58-.71 1.13-1.44 1.65-2.19.16-1.59-1.54-1.44-2.6-1.8m10.94.23c-.53 1.64.01 2.21 1.62 1.69.54-1.66 0-2.22-1.62-1.69m-28.08.37c.01.89.04 2.66.05 3.55.78-.03 2.34-.08 3.13-.11-.01-.81-.02-2.42-.03-3.22-.78-.06-2.36-.17-3.15-.22m17.2 5.26c-3.23.31-3.63-4.21-6.7-4.74-.32 2.78.68 5.76 3.27 7.12 5.09 3.34 13.16-1.73 11.8-7.84-2.45 2.26-4.48 6.02-8.37 5.46m-11.07-2.6c-1.34.97.08 3.72 1.57 2.44 1.46-.98-.07-3.61-1.57-2.44z" fill="#fefefe"/><path d="m33.59 16.07c.77.08 2.29.23 3.05.31-.03.55-.11 1.65-.14 2.19-.46-.07-1.37-.22-1.82-.29-.27-.55-.82-1.66-1.09-2.21zm-6.77 4.91c1.84-.59 3.66-1.21 5.5-1.8.1.69.29 2.07.39 2.76-1.97-.28-3.94-.57-5.89-.96zm-2.72 2.11c.27-.4.54-.81.8-1.22.93.97 1.9 1.91 2.86 2.84-1.21-.55-2.42-1.11-3.66-1.62zm15.28 60.41c1.12 1.62 2.34 3.19 3.3 4.93.28 2.08-.38 4.15-.68 6.21-2.62-3.13-2.58-7.29-2.62-11.14zm5.95 7.79c1.01.52 2.02 1.04 3.05 1.53.25 1.54.18 3.11.21 4.67l-2.1.08c-.51-2.07-.94-4.16-1.16-6.28zm8.05 4.21c1.17.06 2.33.13 3.49.2-.43 1.61-.95 3.2-1.49 4.78-.41-.06-1.25-.19-1.66-.26-.12-1.57-.23-3.15-.34-4.72zm8.13.19 2.14-.32c-.15.98-.29 1.95-.43 2.93-.48.12-1.43.36-1.9.47.06-1.02.13-2.05.19-3.08z" fill="#fefefe"/><path d="m17.2 3.92c4.08.54 7.64 2.82 10.59 5.58-3.79-1.24-7.82-2.54-10.59-5.58zm59.38 4.5c3.34.01 6.6.89 9.62 2.27-3.33-.08-6.64-.75-9.62-2.27zm8.86 5.96c.95-.84 2.89.51 2.22 1.69-.97.94-2.83-.53-2.22-1.69zm-72.85 4.68c2.24-.95 4.66-.83 6.84.2-2.28.21-4.58.17-6.84-.2zm-4.1 12c1.56-1.86 3.78-2.85 6.06-3.51-1.61 1.8-3.68 3.05-6.06 3.51zm9.73-2.91c3.05-.31-.18 3.72-1.82 2.42-.57-1.13.84-2.2 1.82-2.42zm-8.8 6.26c1.95.56-.49 3.49-1.83 2.51-.65-1.12.77-2.41 1.83-2.51zm74.91.78c1.3.65 1.27 1.32-.1 2-1.29-.66-1.26-1.33.1-2z" fill="#aeaeae"/><path d="m13.58 8.88c2.76-.18 5.17 1.12 6.91 3.19-2.55-.45-4.93-1.51-6.91-3.19zm-2.1 45.55.87.12c.19.45.56 1.36.74 1.82-.79 2.27-2.94-.8-1.61-1.94z" fill="#4f4f4f"/></svg>