<svg height="512pt" viewBox="0 0 512 512" width="512pt" xmlns="http://www.w3.org/2000/svg"><path d="m192.54 0h14.49c-.39.5-1.18 1.49-1.57 1.98-2.67-.46-5.33-1-7.97-1.63-.03.48-.1 1.42-.14 1.89 1.44.43 2.87.87 4.31 1.31l-.33 4.9c.66.05 1.98.16 2.64.21-1.7.35-5.11.28-2.93 2.7-.25-.3-.74-.88-.99-1.17-.2-.24-.6-.73-.81-.97-1.8-1.46-3.96-2.69-6.34-2.77-2.14.55-.75 2.81-.55 4.17-.81-.8-3.17-1-2.41-2.59-.1-3.15 3.45-2.72 5.57-3.32-.97-1.58-1.93-3.17-2.97-4.71z" opacity=".22"/><path d="m207.03 0h3.06c4.42 2.5 9.14 4.62 13.01 7.96 1.62 1.12 1.39 3.26 1.76 4.96-5.51-1.91-10.88-4.23-16.21-6.59-1.95-.63-2.43-2.72-3.19-4.35.39-.49 1.18-1.48 1.57-1.98m.8 3.26c2.46 3.8 7.84 4.4 11.92 5.66-.09-.53-.28-1.59-.38-2.11-3.35-2.25-6.99-4.01-10.72-5.52-.21.5-.62 1.48-.82 1.97z" fill="#363636"/><path d="m210.09 0h42.12c-.16 2.09-.3 4.18-.49 6.27-.23.27-.7.8-.93 1.07-2.02.23-4.05.19-6.07.21-.36.48-1.09 1.42-1.45 1.9-1.15.04-2.29.09-3.44.13-.18.58-.54 1.73-.72 2.3-.11-.32-.34-.97-.45-1.3-2.97.63-5.75-.69-8.41-1.82-.97.56-1.95 1.11-2.92 1.66 1.51 2.02 3.27 3.87 5.48 5.12.9.61 1.83 1.18 2.75 1.77 0 .45-.01 1.37-.01 1.82-2.57 2.35-7.45 3.13-7.39 7.33-3.31.69-7.16.33-9.79 2.81.01 1.48.02 2.96 0 4.44-2.61.89-3.45 3.34-3.9 5.81-1.01 1.08-2.01 2.15-3.01 3.23.42 1.33.86 2.66 1.29 4-2.53 3.5-5.53 6.62-8.11 10.08-.48.66-.95 1.33-1.4 2.01-.75 1.4-2.04 2.82-1.74 4.52.99 1.08 2.13 2 3.24 2.95-.8 3.09-1.31 6.24-1.54 9.42.66-.01 1.96-.04 2.61-.05.57-1.6 1.15-3.19 1.74-4.77-.39 9.98-4.29 19.38-5.82 29.2-.9-1.72-1.81-3.43-2.77-5.11-1.8-3.65 1.28-6.7 1.86-10.17-.65-.3-1.94-.91-2.59-1.22.33-3.59.53-7.2.5-10.81-2.18.64-4.28 1.54-6.21 2.74.22-2.62.73-5.61-1.62-7.47-.18-.36-.55-1.09-.74-1.45 1.13-1.7 2.62-3.54 1.76-5.71-1.62.53-2.95 1.63-4.28 2.65-.13-.16-.38-.49-.51-.65.97-1.84 2.11-3.59 3.05-5.45-.02-.17-.06-.49-.09-.66 3.17-.54 6.59-3.27 4.57-6.77-1.71.68-3.42 1.38-5.12 2.08.02-2.51-.72-4.92-.99-7.39 1.22-1.43 2.71-2.6 3.91-4.04.02-1.8-.45-3.55-.76-5.31-2.15-.04-4.29-.09-6.43-.18 3.48-2.3 7.51-3.42 11.58-4.16-.51-2.18-2.28-3.57-4.01-4.82l.49-.53c.85-.91 1.75-1.78 2.53-2.76-.22-1.37-1.32-2.32-2.04-3.43 2.5-2.83 3.25-6.88 6.23-9.3.25.29.74.87.99 1.17 2.89 2.61 6.88 3.28 10.64 3.4l-.45-2.73c-2.39-1.18-4.73-2.51-7.26-3.37-.66-.05-1.98-.16-2.64-.21l.33-4.9c-1.44-.44-2.87-.88-4.31-1.31.04-.47.11-1.41.14-1.89 2.64.63 5.3 1.17 7.97 1.63.76 1.63 1.24 3.72 3.19 4.35 5.33 2.36 10.7 4.68 16.21 6.59-.37-1.7-.14-3.84-1.76-4.96-3.87-3.34-8.59-5.46-13.01-7.96m-12.43 17.51c-.08.42-.23 1.26-.3 1.68 2.04.92 4.05 1.93 6.14 2.73-1.74.68-3.48 1.49-4.85 2.79-1.12 1.46.26 3.52 1.95 3.68 2.98.5 6.44.98 9.14-.71.7-2.46-1.84-4.08-2.98-5.93l2.84-.16c0-.56-.01-1.67-.01-2.22-3.79-1.53-7.85-2.18-11.93-1.86m14.75 9.48c.39 2.21 2.59 1.58 4.2 1.71.03-1.18.07-2.36.1-3.55-1.63.22-3.86-.33-4.3 1.84m-16.8 14.33c-1.31.06-2.1 1.28-3.07 1.99-.03.59-.1 1.75-.13 2.33 2.51 1.36 4.87-.67 7.11-1.61 1.5-1.11 4.18-2.07 2.86-4.38-2.33-1.05-5.41-.73-6.77 1.67m6.39 6.14c3.5-1.11 8.76-2.63 7.8-7.35-4.41-.25-6.22 4.01-7.8 7.35m-5.21 15.32c-.87 1.13-.45 2.78-.74 4.12 1.17-.12 2.34-.23 3.51-.35.11-1.52.22-3.04.32-4.56-1.04.21-2.07.47-3.09.79zm56.29-25.08c.93-.13 1.87-.27 2.81-.4 1.99 4.17 3.3 8.61 4.98 12.9.78 2.05 3.18 2.56 4.7 3.92.72 2.8 1.04 5.69 1.68 8.51 1.63-.02 3.26-.05 4.89-.07a39.004 39.004 0 0 1 -5.06 8.93c-1.63-1.48-3.25-2.96-4.89-4.43-.93-1.07-1.83-2.17-2.72-3.27l.9-2.97c-2-2.09-4.25-3.93-6.11-6.15-1.1-1.96-.86-4.7-2.94-6.05-1.58-1.7-3.92-.89-5.88-.66-1.08-.87-2.21-1.68-3.36-2.45.11-1.16.21-2.32.28-3.48 2.44-1.75 5.42-1.48 8.25-1.65.91-.8 1.66-1.77 2.47-2.68zm44.39 8.06c.75-.4 2.25-1.19 3-1.59-.03 1.59-.05 3.18-.07 4.77.51.63 1.03 1.26 1.55 1.9-1.16 2.33-2.13 4.76-2.8 7.28 1.87.11 3.67.6 4.96 2.05-6.68.19-9.43 7.08-14.19 10.65a75.675 75.675 0 0 1 -3.92-9.17c1.19-.17 2.39-.36 3.58-.57l.24-1.4c.05-.37.16-1.13.22-1.51.36-3.11.32-6.25.81-9.35.32 3.03.54 6.08.63 9.12.16-1.57.32-3.15.5-4.72 1.83-1.07 4.15-1.87 4.85-4.11.23-1.11.45-2.23.64-3.35z" fill="#040404"/><path d="m252.21 0h2.93c1.32 2.29 1.51 6.27 4.94 6.3 1.81.48 2.92-1.6 4.34-2.4 2.49-.28 4.35-1.78 5.61-3.9h.83c1.85 1.31 3.82 2.44 5.84 3.48-1.47.31-2.94.58-4.38 1l-1.41.77c-.51.11-1.54.34-2.05.45-.33.5-.98 1.49-1.3 1.99-4.74 1.13-11.14 1.38-13.63-3.74-.55.58-1.66 1.74-2.21 2.32.19-2.09.33-4.18.49-6.27z" fill="#2d2d2d"/><path d="m255.14 0h14.89c-1.26 2.12-3.12 3.62-5.61 3.9-1.42.8-2.53 2.88-4.34 2.4-3.43-.03-3.62-4.01-4.94-6.3z" fill="#020202"/><path d="m270.86 0h43.74c.34.59 1.02 1.78 1.37 2.37l3.84.33c.31.74.64 1.48.99 2.21-2.01.24-4.01.48-6.02.74-.25.65-.76 1.96-1.01 2.61-3.38-.68-6.99-1.63-10.39-.71-1.97.49-.92 2.95.47 3.51 3.13 1.58 6.66 2.11 10.01 3.06-.13 1.16-.25 2.32-.37 3.48 1.55 1.64 3.11 3.3 4.83 4.78.43.07 1.29.21 1.71.28.38.05 1.13.14 1.5.19 2.07 1.71 3.99 3.59 5.76 5.61-.45-.04-1.36-.11-1.81-.14-2.2-.85-4.49-1.46-6.86-1.35a8.451 8.451 0 0 0 4.41 4.18c1.77 1.87 3.43 3.84 5.06 5.83-.88 1.4-1.76 2.81-2.63 4.21 1.03 1.03 2.06 2.06 3.1 3.09-.02.7-.04 2.09-.05 2.79-1.4.39-2.79.79-4.18 1.2 1.29 3.15 2.34 6.91.15 9.92.36 2.08.85 4.13 1.28 6.2-1.04.52-2.07 1.04-3.1 1.55-.54 9.4 1.83 18.73.56 28.12-1.23 9.07-1.3 18.3-3.25 27.26-.12-6.8.9-13.55 1.14-20.35 1.06-8.95.38-17.97.68-26.96.03-2.79.26-5.79-1.3-8.26-.5-3.23-.92-6.46-1.25-9.71-.21.41-.64 1.22-.85 1.63-.03-7.5-4.24-14.28-3.94-21.8-.19 1.13-.38 2.26-.56 3.38-.53-6.21-4.66-11.17-8.03-16.11-5.72-6.87-13.1-12.13-20.23-17.43-1.54-.18-3.07-.35-4.59-.56-2.85-.71-5.81-1.21-8.72-.67 1.44-.42 2.91-.69 4.38-1-2.02-1.04-3.99-2.17-5.84-3.48zm5.16 145.43c3.92-1.16 6.76-4.29 9.95-6.67-1.08 4.08-3.39 7.68-4.63 11.7-.56-1.06-1.11-2.12-1.65-3.19l-3.83.52c-.37.16-1.11.49-1.48.66 0 1.36-.02 2.74.21 4.1 1.14.91 2.42 1.61 3.65 2.41-1.44 1.11-3 2.03-4.56 2.96-2.96 1.67-4.36 5.31-7.66 6.48-3.49.81-7.69.69-10.31-2.08-3.24-3.43-3.75-8.39-4.59-12.82 1.51-.42 3.02-.83 4.53-1.25.15 2.35.29 5.69 3.28 6.05 4.91-.93 4.3-6.85 4.91-10.63 3.68 2.07 8.07 2.52 12.18 1.76m-10.42 3.08c.27 2.21-.88 5.09.9 6.81 4.07 1.32 5.01-3.87 5.15-6.77-2.02-.1-4.03-.11-6.05-.04z" fill="#030303"/><path d="m314.6 0h4.5c.07.28.22.85.3 1.13l.41 1.57-3.84-.33c-.35-.59-1.03-1.78-1.37-2.37z" fill="#363636" opacity=".93"/><path d="m319.1 0h3.79c.64 1.47 1.72 2.92 1.68 4.58-.7 1.29-1.62 2.44-2.47 3.63 1.84 1.35 4.04 2.43 5.32 4.39.46 2.52-1.1 5.01-.69 7.58.47 2.84 2.3 5.17 3.27 7.83.2 1.77-1.4 3.03-2.11 4.49.98.67 1.95 1.32 2.94 1.98-.15.52-.45 1.58-.6 2.11-1.79-1.65-3.56-3.31-5.31-5 1.44-1.04 2.88-2.08 4.33-3.11a102.57 102.57 0 0 0 -4.42-5.34c.22-.54.65-1.64.87-2.18-.46-1.23-.92-2.46-1.38-3.68.86-.93 1.74-1.85 2.61-2.77-2.02-3.62-6.03-5.07-9.55-6.77 1.85-1.12 4.87-1.32 5.58-3.68-.6-1.47-2.44-1.92-3.56-2.93-.08-.28-.23-.85-.3-1.13z" fill="#010101" opacity=".32"/><path d="m207.83 3.26c.2-.49.61-1.47.82-1.97 3.73 1.51 7.37 3.27 10.72 5.52.1.52.29 1.58.38 2.11-4.08-1.26-9.46-1.86-11.92-5.66z" fill="#919191"/><path d="m319.4 1.13c1.12 1.01 2.96 1.46 3.56 2.93-.71 2.36-3.73 2.56-5.58 3.68 3.52 1.7 7.53 3.15 9.55 6.77-.87.92-1.75 1.84-2.61 2.77.46 1.22.92 2.45 1.38 3.68-.22.54-.65 1.64-.87 2.18 1.53 1.73 3.01 3.51 4.42 5.34-1.45 1.03-2.89 2.07-4.33 3.11 1.75 1.69 3.52 3.35 5.31 5-.16.58-.5 1.76-.67 2.34-.47.57-.94 1.13-1.42 1.69.16 1.22.29 2.44.42 3.66-1.04-1.03-2.07-2.06-3.1-3.09.87-1.4 1.75-2.81 2.63-4.21-1.63-1.99-3.29-3.96-5.06-5.83.61-.7 1.84-2.12 2.45-2.83.45.03 1.36.1 1.81.14-1.77-2.02-3.69-3.9-5.76-5.61.45-1.48.83-2.97 1.28-4.45.61-1.68 1.36-3.31 2.14-4.93-2.09-1.47-4.29-2.79-6.68-3.68-1.49-.56-2.99-1.08-4.5-1.53.25-.65.76-1.96 1.01-2.61 2.01-.26 4.01-.5 6.02-.74-.35-.73-.68-1.47-.99-2.21z" fill="#020202" opacity=".68"/><g fill="#be1931"><path d="m86.68 31.73c18.21-16.68 42.47-27.7 67.42-27.4 2.58.3 5.75-.04 7.81 1.77.61 3.34-1.03 6.56-2.19 9.61-6.83 15.25-15.57 29.58-22.01 45-4.2 10.79-8.83 21.4-13.84 31.83-10.08 20.66-20.83 41.2-34.9 59.47-6.13 7.79-12.97 15.45-21.95 19.99-5.69 2.9-12.86 3.02-18.3-.54-5.55-5.24-6.95-13.2-7.26-20.49-.39-13.18 2.22-26.23 5.51-38.93 5.09-18.92 12.23-37.32 21.49-54.59 5.09-9.19 10.66-18.32 18.22-25.72zm263.79-26.16c4.33-1.59 9.06-1.3 13.59-1.15 21.36 1.45 41.78 10.68 58.05 24.41 7.78 6.43 13.45 14.94 18.55 23.54 9.44 16.31 16.63 33.87 22.15 51.87 4.28 14.53 7.76 29.52 7.75 44.76-.13 7.9-1.25 16.72-7.3 22.45-5.64 3.7-13.11 3.33-18.92.23-6.75-3.59-12.4-8.92-17.28-14.73-16.15-19.38-27.94-41.9-38.96-64.45-4.75-9.97-9.23-20.08-13.23-30.37-6.63-16.47-16.15-31.56-23.18-47.84-.86-2.73-2.66-5.91-1.22-8.72zm-83.08 4.36c2.59-1.64 5.27-4.23 8.58-3.63 2.54.33 5.11.58 7.61 1.16 3.74 1.21 6.44 4.24 9.41 6.64 2.83 2.48 6.04 4.52 8.7 7.19 3.52 3.97 6.34 8.52 8.64 13.3-.6-.14-1.79-.41-2.39-.55-1.44.78-2.88 1.55-4.32 2.33-.91-1.26-1.82-2.5-2.75-3.74-2.93 1.91-4.19 5.18-5.2 8.37-.65.02-1.95.04-2.59.05-3.41 3.82-4.11 8.94-5.41 13.68-1.2-2.3-2.4-4.6-3.74-6.83-.76.02-2.29.05-3.05.07-2.52 5.68 1.91 11.19 1.19 17.02-1.25.34-2.5.68-3.74 1.04-.7.98-1.42 1.95-2.13 2.92-1.8-4.31-.21-8.71.1-13.1 1.3-.39 2.59-.79 3.89-1.2-2.36-.59-4.66-1.68-7.14-1.63-1.73.94-2.6 2.91-3.85 4.37-.95-4.34-1.35-8.77-2.3-13.11-.72-.66-1.43-1.31-2.14-1.97l-2.79.93c-1.87-4.14-3.49-8.4-5.78-12.33-.97-1.36-1.78-3.68-3.88-2.93-.72 1.08-1.38 2.19-1.98 3.35a59.561 59.561 0 0 0 -7.11-4.66c-.56.4-1.67 1.19-2.23 1.58.01 1.13.03 2.27.05 3.4-1.36.44-2.72.88-4.07 1.33l-.03 3.35c-1.11 1.04-3.47 1.64-2.96 3.61 1.1 1.8 3.04 2.83 4.64 4.12.58 1.52 1.18 3.03 1.8 4.54-1.31 1.17-2.3 3.11-4.26 3.18-1.87.36-5.75.02-5.2 2.98 2.66 1.8 5.94 2.28 8.88 3.47-2 2.42-4.35 4.77-5.18 7.91-.16.41-.47 1.22-.63 1.63-1.22 1.63-2.36 3.36-2.94 5.34-2.9 9.63-2.83 20.1-.07 29.76 2.03 5.45 6.33 10.87 12.47 11.62-.83 1.54-1.65 3.08-2.47 4.61l1.14 3.12c4.48.73 8.03-2.57 11.5-4.82-1.77 3.66-3.95 7.1-5.74 10.76.49 1.04.98 2.08 1.48 3.12-.6 1.88-1.3 3.76-1.37 5.75-.16 8.47-.88 17.62 3.77 25.15 3.53 5.61 11.69 7.47 17.31 3.97 2.6-2.03 4.67-4.72 7.68-6.2 2.29-1.01 3.46-3.27 4.8-5.23l-1.5-.51c2.39-.03 2.92-2.55 3.83-4.21 1.68-4.12 4.44-7.99 4.26-12.63-1.06-.47-2.12-.95-3.18-1.43-2.55 2.46-4.81 5.53-8.28 6.75-3.1.71-6.37.63-9.49.06-2.36-.77-3.87-2.93-5.54-4.64.85-.03 2.54-.08 3.39-.1.77-1.09 1.54-2.18 2.32-3.26.74.37 1.46.78 2.16 1.23-.65 2.15-.43 4.35.36 6.44 2.05-.33 5.27-.52 5.12-3.38.61-2.18-1.92-2.72-3.19-3.79.27-1.52.55-3.04.85-4.55 1.35.83 2.75 1.6 4 2.6-.26 1.97-1.12 4.65 1.28 5.69 2.81.96 3.03-2.63 3.44-4.49 3.35-.89 7.29-1.61 9.3-4.78 2.26-3.85 1.47-8.54 1.28-12.78 3.43 2.36 6.75 5.35 10.97 6.1 2.6.51 4.91-.89 7.12-2.03-.04-1.32-.06-2.65-.08-3.97-2.12-.71-4.25-1.38-6.36-2.1 1.56-1.24 3.36-2.27 4.54-3.93 5.25-8.33 7.34-18.29 7.41-28.04-.44-5.71-1.16-11.42-2.37-17.02-.41-1.98-.96-3.93-1.51-5.87-1.69-.92-3.39-1.81-5.09-2.69 1.42-1.77 3.02-3.4 4.62-5.01-.72-1.52-1.5-3.01-2.08-4.59.96-1.41 2.17-2.64 3.31-3.92 2.53 3.76 3.14 8.38 4.03 12.73.6 4.45 1.49 8.89 1.52 13.4-.04 10.87-.07 21.74.04 32.62-1.86 3.41-.7 7.58-1.79 11.25-2.57 11.67-5.42 23.35-9.65 34.54l-.24-1.2c-.2-.98-.39-1.95-.57-2.93l-1.88-1.64c-.78.13-2.32.4-3.1.53-1.35 2.39-.18 4.51 1.78 6.07 1.25-.69 2.5-1.37 3.77-2.03-.48 2.79-1.49 5.44-2.6 8.03-1.23-.44-2.45-.88-3.66-1.32-.96.48-1.92.96-2.87 1.43-.44.91-.88 1.82-1.31 2.73 1.12 1.32 2.25 2.63 3.39 3.95-2.84 4.32-5.71 8.65-9.2 12.48-1.56-1.08-2.96-3.11-5.11-2.45-2.46.67-1.78 3.49-2.11 5.42 1.14.53 2.27 1.07 3.41 1.61-1.41 1.48-2.82 2.96-4.19 4.48-.34-1.78-.91-3.5-1.74-5.12-.89.16-2.66.48-3.55.65-.25 1.35-1.5 2.97-.13 4.13 1.19.79 2.57 1.21 3.88 1.78-3.03 3.18-6.15 6.47-10.4 7.97 2.59-3.16 5.46-6.54 4.97-10.94-.97-.67-1.93-1.33-2.88-2 .25-1.64.24-3.29-.03-4.91l-3.56-.64c-.61.87-1.18 1.78-1.7 2.71-.29 1.97 2.16 2.58 3.34 3.56-1.88 4.15-5.73 6.58-9.7 8.44-3.48-.99-5.58-3.81-7.33-6.77-.98-2.03-3.89-1.87-5.11-.16-2.84 2.93.45 6.84 2.38 9.29 3.3 4.04 8.6 4.73 13.5 4.69-2.12 1.38-4.3 3.09-6.99 2.89-16.45.37-32.71-9.1-40.71-23.45-2.37-5.58-5.61-10.85-6.82-16.86.97.24 1.94.49 2.92.73.55-.23 1.64-.71 2.19-.95l.88-2.73c-.22-.66-.66-1.97-.87-2.63-.93-.51-1.85-1.02-2.77-1.53-1.24 1.3-2.47 2.61-3.69 3.93-4.12-9.06-6.41-18.82-8.11-28.58-1.14-5.38 2.06-10.8.02-16.06l-3.97.09c-2.46 5.89-3.71 12.83-9.33 16.7-.53-1.25-2.31-2.28-1.75-3.78 1.92-7.33 6.31-14.15 5.83-21.99.5-6.13-7.08-9.12-6.34-15.33 2.8.21 6.33-.01 8.13 2.63 3.13 4.84 4.83 10.41 6.92 15.74l3.41-.04c2.28-4.7 2.4-10.02 3.95-14.95.86-2.94 1.62-5.92 2.01-8.96l.52-.72.09-.13c1.21-4.26 1.33-8.73 2.69-12.95.7-2.13.71-4.39.6-6.61-.16-.49-.48-1.46-.65-1.95 1.3-4.22 2.27-8.54 3.71-12.72-.14-.72-.42-2.14-.56-2.85.7-1.92 1.39-3.83 2.02-5.76 2.03-2.14 3.95-4.55 3.86-7.69 2.4-.53 4.87-.68 7.27-1.21 2.76-3.44 5.86-6.61 9.68-8.89-.43-1.39-.88-2.77-1.24-4.18 3.79-3.26 8.53-5.88 13.68-5.63.87-.84 1.75-1.69 2.63-2.53 4.04 3.19 9.25 2.96 14.1 2.63m-5.03 12.1c-1.26.88-1.39 2.38-1.6 3.76 3.51 1.92 7.09 4.46 11.27 4.22 5.04-.11 10.49.81 14.96-2.12-.06-1.21-.12-2.43-.17-3.64-4.18-1.49-8.49.47-12.76-.07-4.05.03-7.63-2.64-11.7-2.15m9.16 9.32c-2.05-.66-4.22-.39-6.33-.31-.43.86-.87 1.72-1.3 2.58 6.57 5.68 16.04 5.08 23.72 2.2 2.11-1.1 3.85-2.73 5.64-4.27-.36-1.21-.49-2.82-2.23-2.55-6.12 2.46-12.96 4.21-19.5 2.35m5.72 31.88c.46.55.46.55 0 0m-71.18 55.09c-.19 1.44-.2 2.92.01 4.36.88 1.75 2.82 1.26 4.42 1.34.36-.63 1.07-1.89 1.43-2.51.03-.64.09-1.91.11-2.55-.32-.5-.96-1.49-1.28-1.99-1.66.12-3.74-.47-4.69 1.35m30.63 11.91c.38 1.58.81 3.15 1.33 4.7 1.2.02 2.41.04 3.63.07.35-1.01.7-2.03 1.07-3.04-.31-1.05-.61-2.1-.91-3.15-1.93-.52-3.61.27-5.12 1.42m-31.67 2.72c.01 1.62 1.21 2.87 1.87 4.27 1.71-.16 3.75-.43 4.42-2.33 1.26-1.71-.29-3.68-1.71-4.68-2.05-1.06-3.68 1.2-4.58 2.74m10.26-2.87c-.4.99-.8 1.97-1.2 2.95.67 1.37 1.27 2.81 2.26 4 2.71.71 3.71-1.98 4.48-4-.65-.98-1.3-1.97-1.95-2.94-1.2 0-2.4-.01-3.59-.01m14.65 3.93c.06 1.64.11 3.29.17 4.94 1.2.05 2.4.04 3.6-.01 1.77-1.04 1.23-3.19 1.49-4.9-1.67-1.31-3.52-.97-5.26-.03m-8.16 4.86c-1.34 1.52.26 3.38.55 5 1.47.04 2.94.08 4.41.13.32-.94.64-1.88.98-2.81-.7-1.49-1-3.44-2.67-4.17-1.57-.57-2.53.69-3.27 1.85m-10.05 6.08c.8 1.36 1.61 2.71 2.45 4.06l3.57-.18 1.41-2.85-1.35-2.55c-.97-.46-1.93-.91-2.89-1.37-1.07.95-2.14 1.91-3.19 2.89m21.32 3.23c.23 1.56 1.42 2.74 2.16 4.08 2.44.04 4.48-1.69 3.79-4.28.57-2.53-2.29-3.28-4.22-3.16-.6 1.11-1.23 2.2-1.73 3.36m60.31-3.17c-2.21 1.27-1.15 4.04-1.42 6.11 1.24-.02 2.49-.08 3.73-.2 2.97-1.49 1.19-7.15-2.31-5.91m-68.34 6.88c-1.11 1.65-1.09 3.62-1.01 5.53.66.46 1.97 1.37 2.62 1.83 1.79-.69 2.68-2.39 3.52-3.99-.51-1.07-1.01-2.15-1.49-3.23-1.22-.04-2.43-.09-3.64-.14m59.25 1.43c-1.25 1.76-1.52 3.74-.27 5.58.6.15 1.81.44 2.41.58.87-.25 1.75-.51 2.63-.75.73-1.74.96-3.59.92-5.46-.99-.46-1.97-.91-2.95-1.37-.92.48-1.83.95-2.74 1.42m-44.27 2.91c0 .71.01 2.14.01 2.85.85.59 1.71 1.18 2.56 1.77.76-.33 1.53-.65 2.3-.97.36-.94.73-1.87 1.1-2.8-.29-.5-.88-1.51-1.17-2.02-.68-.11-2.03-.34-2.7-.45-.53.4-1.58 1.21-2.1 1.62m-20.88.68c-1.57 2.12-1.77 4.61-1.01 7.1 1.14.29 2.24 1.2 3.45.91 1.11-1.05 2.79-2.16 2.5-3.93.07-1.67-1.52-2.7-2.31-3.99-.66-.02-1.97-.07-2.63-.09m67.97 7.04c.77 1.1 1.53 2.2 2.3 3.31 2.75-.02 4.66-2.68 4.59-5.25-.67-1.35-1.96-2.23-2.99-3.28-1.78 1.35-3.13 3.11-3.9 5.22m-53.59-4.14c-.8.88-1.61 1.76-2.43 2.63.04 1.76.1 3.52.16 5.29 1.57.09 3.15.18 4.72.29.7-1.9 2.32-3.94 1.27-6.01-.5-1.61-2.28-1.97-3.72-2.2m44.83 5.93c-1.72 1.86-3.65 4.98-1.09 7.04 2.43 2.39 5.47-1.3 5.79-3.7-.83-1.93-2.59-3.24-4.7-3.34m-59.98 3.26c-1.65 1.1-1.31 3.13-1.54 4.83 1.67 1.38 3.72 1.59 5.81 1.35 1.3 1.02 2.64 2.34 4.47 1.8 2.18-1.09 1.89-3.71 2.09-5.75-1.41-.85-2.81-2.55-4.62-1.58-2.11.73-4.1-.82-6.21-.65m25.65.92c-.2 1.2-1.3 2.4-.82 3.64.85.98 1.8 1.85 2.74 2.75 1.07-.91 2.14-1.82 3.22-2.72.75-3.12-2.54-5.14-5.14-3.67m16.95 4.03c-.64 2.55 2.18 3.3 4.12 3.31.58-1.08 1.24-2.12 1.68-3.26-.57-1.14-1.31-2.19-1.97-3.27-1.77.15-4.4.9-3.83 3.22m-24.71-.66c-.63 1.62.13 3.24.8 4.71.69 0 2.08.02 2.77.02.68-1 1.42-1.97 2-3.04-.62-1.16-1.42-2.23-2.14-3.32-1.17.46-2.5.7-3.43 1.63m24.1 5.47-2.22 3.36c.69 1.37 1.39 2.73 2.11 4.1 1.61-.25 3.23-.57 4.74-1.21-.04-1.7-.05-3.39-.06-5.07-1.51-.46-3.04-.84-4.57-1.18m-27.94 1.3c-2.03 1.2-1.17 3.73-1.44 5.67 1.03.8 2 1.69 3.15 2.34.93-.37 1.86-.77 2.77-1.2-.32-2.24 1.04-5.28-1.22-6.78-1.09-.18-2.17-.19-3.26-.03m7.57 4.99.06 3.63c.8.76 1.63 1.49 2.5 2.2 1.5.64 2.45-1.11 3.46-1.87 0-1.26.01-2.52.04-3.77-.74-.74-1.51-1.44-2.3-2.11-1.6-.72-2.66 1.14-3.76 1.92z"/><path d="m276.26 69.86.49 1.19c.3 3.27.1 6.59.6 9.85 2.39 11.63 3.15 23.63 6.88 34.97 1.14 3.32 1.23 6.86.92 10.32-5.9.1-11.57-2.53-15.9-6.4-2.33-2.64-4.03-7.48-1.11-10.27.96 1.52 1.92 3.03 2.9 4.54l3.02.04c3.23-4.12.34-10.13-4.13-11.87-3.23-1.11-6.12 1.3-8.97 2.41.12-.64.37-1.94.49-2.58 2.15-1.35 4.73-2.15 6.52-4 1.65-3.54 2.64-7.35 4.17-10.95 2.39-5.5 1.51-11.8 4.12-17.25zm-22.6 47.54c.04-.02.1-.07.14-.09l-.03.12zm.1 12.24c2.18-3.02 4.39-6.03 6.67-8.98 1.82 2.5 3.73 4.94 6.06 7 1.63 1.18-.4 2.95-.64 4.34h-3.3c.98-2.35-.05-4.39-1.49-6.23-1.4.26-3.16-.06-4 1.38-.17 1.43-.26 2.87-.29 4.32-1.01-.61-2.01-1.22-3.01-1.83zm3.68 2.48c.91-.03 2.75-.1 3.66-.14-.07 1.53-.15 3.05-.22 4.58-1.25-1.4-2.41-2.87-3.44-4.44zm-59.62 45.8c3.61-.86 7.43-1.78 11.13-.9 2.74.68 2.74 4.06 3.65 6.18-4.99 1.85-10.42 1.45-15.49 2.94-19.26 5.7-37.56 15.02-52.96 28-5.71 5-11.63 10.49-14.31 17.78 7.1-2.92 13.18-7.74 20.12-10.96 25.82-13.07 54.64-18.98 83.33-21.13 3.92 1.75 7.74 4.25 12.21 4.08 5.08.18 10.17.11 15.26.09 4.89.33 8.54-3.75 13.29-4.05 4.35-.39 8.7.24 13.02.64 27.11 2.61 54.16 9.23 78.31 22.1 5.7 2.91 10.82 6.86 16.78 9.27-1.71-5.42-5.73-9.6-9.62-13.55-17.21-16.36-38.99-27.14-61.67-33.63.51-2.51 1.08-5.02 1.59-7.53 5.59 2.4 11.62 3.58 17.22 5.98 27.68 10.52 52.2 29.27 69.17 53.58 4.75 6.63 8.84 13.7 12.53 20.96 3.82 7.83 7.1 15.92 9.68 24.25 2.88 9.45 5.04 19.19 5.56 29.08 0 .43-.01 1.29-.01 1.72-7.88 5.02-15.67 10.19-23.04 15.94-5.8 4.5-11.25 9.42-16.66 14.38-6.65 5.94-12.87 12.35-19.27 18.56-2.92 2.99-5.87 5.96-8.93 8.81-7.43 7.21-15.18 14.15-23.69 20.07-7.65 5.27-15.82 9.83-24.56 13.03-20.45 7.87-42.72 9.45-64.43 8.58-15.12-.73-30.37-3.2-44.31-9.32-8.13-3.71-15.99-8.21-22.87-13.95-8.79-7.21-16.8-15.3-24.57-23.57l.02-.16c-1.99-1.68-3.91-3.44-5.68-5.34-6.82-7.06-14.01-13.79-21.6-20.02a173.32 173.32 0 0 0 -15.51-11.6c-8.29-5.82-17.21-10.64-26.11-15.44-.01-.42-.01-1.27-.02-1.69.54-9.89 2.68-19.63 5.55-29.09 2.58-8.33 5.86-16.44 9.7-24.27 3.6-7.29 7.82-14.27 12.5-20.92 9.1-12.88 20.2-24.34 32.88-33.73 15.5-11.58 33.36-19.59 51.81-25.17m-1.54 37.49c-6.87 1.07-13.63 3.46-19.32 7.52-3.19 2.25-5.53 6.37-4.39 10.33 1.56 5.88 7.06 9.4 12.1 12.1 5.04 2.3 10.9 3.83 16.38 2.33 5.75-2.3 9.18-8.13 10.95-13.8 1.65-5.32 1.65-12.05-2.83-16.02-3.6-2.83-8.53-3.12-12.89-2.46m111.08 0c-2.92.58-5.85 1.91-7.58 4.44-2.64 3.71-2.3 8.66-1.41 12.9 1.69 5.98 5.01 12.21 10.96 14.82 6.62 1.96 13.73-.39 19.5-3.72 4.16-2.85 8.76-6.5 9.46-11.84.78-5.27-4.06-8.89-7.99-11.35-7.01-3.52-15-6.32-22.94-5.25m-151.99 18.02c-5.09 1.19-9.54 4.15-13.5 7.46-3.23 2.76-6.43 6.58-5.95 11.11.64 4.57 4.79 7.57 8.66 9.43 6.02 2.84 12.71 4.93 19.43 4.38 3.26-.31 4.31-4.02 4.93-6.7 1.4-7.47 1.01-15.96-3.7-22.26-2.14-3.12-6.32-4.13-9.87-3.42m195.91-.04c-3.73.57-6.46 3.66-7.97 6.93-2.7 6.14-2.79 13.22-1.36 19.69.6 2.51 1.92 5.9 5 5.89 6.71.26 13.39-1.68 19.38-4.6 3.63-2.04 8.09-4.61 8.52-9.23.72-4.83-3.21-8.53-6.46-11.46-4.81-3.89-10.57-8.05-17.11-7.22m-228.98 25c-6.36 2.74-10.56 9-12.84 15.32-1.66 4.27.42 9.34 4.51 11.32 7 3.35 15.08 3.57 22.64 2.54 1.98-.36 4.85-1 4.69-3.59.5-7.15-2.67-13.94-6.44-19.82-2.68-3.92-7.61-7.48-12.56-5.77m260.93-.07c-5.18 1.81-8.38 6.7-10.62 11.43-2.08 4.67-3.79 9.81-3.24 14.99 1.17 2.4 4.17 2.79 6.54 3.11 6.63.53 13.56.35 19.78-2.27 3.73-1.49 6.91-5.35 6.08-9.56-1.31-6.45-5.38-12.19-10.56-16.17-2.2-1.81-5.27-2.27-7.98-1.53m-281.01 30.91c-4.27 2.07-6.79 6.58-7.81 11.05-.74 2.98.81 6.32 3.62 7.58 5.9 2.75 12.64 2.42 18.95 1.77 4.21-.65 8.68-1.16 12.25-3.69-2.8-7.04-8.79-12.23-15.28-15.84-3.55-1.71-8.05-2.94-11.73-.87m287.12 6.01c-3.2 3.22-6.91 6.7-7.39 11.48 8.4 2.94 17.57 4.32 26.38 2.66 3.66-.76 8.08-3.15 8.05-7.42-.42-6.24-4.65-13.12-11.35-13.79-5.98-.25-11.38 3.27-15.69 7.07m-235.51 51.57c.13 4.27 3.01 7.64 5.39 10.93 14.13 18.26 34.78 30.73 56.69 37.41 24.64 7.22 51.24 7.56 76.1 1.14 22.87-5.96 44.34-18.5 59.47-36.82 2.74-3.88 6.33-7.67 6.72-12.62-4.71 2.56-8.62 6.3-13.17 9.11-26.47 17.37-58.78 23.84-90.09 23.4-29.9.18-60.5-6.16-86.07-22.18-5.31-3.03-9.71-7.39-15.04-10.37z"/></g><path d="m251.72 6.27c.55-.58 1.66-1.74 2.21-2.32 2.49 5.12 8.89 4.87 13.63 3.74.32-.5.97-1.49 1.3-1.99.51-.11 1.54-.34 2.05-.45l1.41-.77c2.91-.54 5.87-.04 8.72.67 1.52.21 3.05.38 4.59.56 7.13 5.3 14.51 10.56 20.23 17.43 3.37 4.94 7.5 9.9 8.03 16.11.18-1.12.37-2.25.56-3.38-.3 7.52 3.91 14.3 3.94 21.8 1.13 12.12 1.17 24.3 1.16 36.48 0 2.42-.02 4.83-.16 7.25l-1.32 1.22c-.11-10.88-.08-21.75-.04-32.62-.03-4.51-.92-8.95-1.52-13.4-.89-4.35-1.5-8.97-4.03-12.73-.62-.82-1.25-1.62-1.88-2.42-1.24.32-2.49.64-3.73.95.37-1.28.76-2.57 1.15-3.85.23-.74.47-1.48.71-2.22-.56.05-1.67.17-2.22.23a65.84 65.84 0 0 1 -6.01 5.56c.08-2.08.19-4.16.31-6.24l-2.04.84c-.18 1-.35 2-.52 2.99-.66 1.27-1.35 2.52-2.04 3.78-.85-.09-2.54-.25-3.39-.34-.35.92-.69 1.84-1.02 2.77-.34.96-.66 1.92-.95 2.9-.49 3.1-.45 6.24-.81 9.35-.06.38-.17 1.14-.22 1.51l-2.91-.39c-1.58-3.1-1.25-8.79-5.61-9.25 1.25 7.72 3.96 15.11 7.4 22.11l2.41.44-.82 1.01c-.86.02-1.71.03-2.56.02-1.17-2.27-2.49-4.45-4.01-6.49-.28 2.76-.47 5.52-.44 8.29-.5-2.63-.54-5.43-1.69-7.88-.99-.3-2-.57-3-.8-.86 12.19 2.29 24.13 4.27 36.07 1.06 7.57 4.81 14.59 4.68 22.34-.97 1.14-1.93 2.27-2.88 3.42-2.86-.51-5.76-.85-8.61-1.43.5-.14 1.5-.4 2.01-.54-3.97-1.97-8.42-3.75-10.97-7.58-2.11-3.12-1.78-7.08-1.74-10.66 3.53-3.06 5.36 2.52 7.55 4.46 2.23-4.12-1.23-8-4.81-9.68-2.69 1.34-5.69 2.7-6.68 5.8-1.13 2.37-2.48 4.63-3.98 6.79-2.26 3.37-4.45 6.78-6.6 10.22l-1.28 2c.49 1.51.98 3.01 1.48 4.51-1.96 4.23-1.44 8.97-1.58 13.48-.19 5.46 1.02 11.08 3.9 15.75 3.64 5.74 13.1 6.36 17.39 1.05 1.73-2.23 3.99-3.91 6.74-4.65.9-1.28 1.78-2.56 2.61-3.88l1.5.51c-1.34 1.96-2.51 4.22-4.8 5.23-3.01 1.48-5.08 4.17-7.68 6.2-5.62 3.5-13.78 1.64-17.31-3.97-4.65-7.53-3.93-16.68-3.77-25.15.07-1.99.77-3.87 1.37-5.75-.5-1.04-.99-2.08-1.48-3.12 1.79-3.66 3.97-7.1 5.74-10.76l.11.03.03-.12c-.04.02-.1.07-.14.09-3.47 2.25-7.02 5.55-11.5 4.82l-1.14-3.12c.82-1.53 1.64-3.07 2.47-4.61-6.14-.75-10.44-6.17-12.47-11.62-2.76-9.66-2.83-20.13.07-29.76.58-1.98 1.72-3.71 2.94-5.34l.08.85c.32 2.91-1.4 5.43-2.1 8.16-1.74 8.53-1.96 17.59 1.08 25.87 1.27 3.26 3.3 6.3 6.15 8.38 2.43 1.76 5.57 1.35 8.39 1.57l-.27 2.41c-2.03 1.5-4.37 3.03-4.21 5.92 6.73-1.35 10.74-7.49 13.78-13.09 1.27-2 1.77-4.32 2.09-6.64-.53.1-1.59.28-2.12.37-1.75 2.07-3.39 4.43-5.91 5.63-3.27 1.06-6.84 1.11-10.18.33-4.6-3.75-5.79-9.98-5.67-15.63-.05-6.03-.31-12.21 1.59-18.03l.97 1.1c-1 9.8-2.73 20.64 2.92 29.47 1.71 2.85 5.53 2.46 8.26 1.61 3.8-1.51 5.55-5.7 9.11-7.56 1.97.14 2.74 2.04 3.46 3.57-.12.64-.37 1.94-.49 2.58 2.85-1.11 5.74-3.52 8.97-2.41 4.47 1.74 7.36 7.75 4.13 11.87l-3.02-.04c-.98-1.51-1.94-3.02-2.9-4.54-2.92 2.79-1.22 7.63 1.11 10.27 4.33 3.87 10 6.5 15.9 6.4.31-3.46.22-7-.92-10.32-3.73-11.34-4.49-23.34-6.88-34.97-.5-3.26-.3-6.58-.6-9.85l-.49-1.19c-.61-1.35-1.27-2.69-1.92-4.02-2.19 3.07-3.35 8.69-7.92 8.71-3.73-1.74-6.21-5.39-9.11-8.22.59.05 1.76.13 2.34.17 2.73 2.37 4.74 6.42 8.87 6.28 3.46-5.37 6.13-11.28 6.51-17.74-.61.08-1.82.23-2.42.31-.6 1.51-1.2 3.01-1.8 4.52-1.05-.11-2.09-.23-3.13-.35-.36-5.36-1.15-10.71-2.73-15.86-1.21 1.56-1.62 3.48-2.11 5.33-3.93-6.28-4.7-14.37-10.24-19.67.31 1.86.64 3.72.98 5.58-4.68-.57-6.82-6.27-11.83-5.82 2.7 3.26 5.87 6.13 8.34 9.59-4.72.85-7.11-3.81-11.18-5 .64 1.71 1.35 3.4 2.06 5.09-1.68-.08-3.35-.14-5.02-.19.71 2.08 2.58 3.26 4.3 4.45.2 1 .41 2 .62 3l3.22 3.16c-3.41 2.5-7.33 4.07-11.46 4.91 3.01 1.11 6.08 2.05 9.18 2.9-.63 1.43-1.25 2.85-1.93 4.26-1.68 2-3.08 4.21-4.37 6.49-.21-.4-.64-1.2-.85-1.6.83-3.14 3.18-5.49 5.18-7.91-2.94-1.19-6.22-1.67-8.88-3.47-.55-2.96 3.33-2.62 5.2-2.98 1.96-.07 2.95-2.01 4.26-3.18-.62-1.51-1.22-3.02-1.8-4.54-1.6-1.29-3.54-2.32-4.64-4.12-.51-1.97 1.85-2.57 2.96-3.61l.03-3.35c1.35-.45 2.71-.89 4.07-1.33-.02-1.13-.04-2.27-.05-3.4.56-.39 1.67-1.18 2.23-1.58 2.48 1.38 4.85 2.94 7.11 4.66.6-1.16 1.26-2.27 1.98-3.35 2.1-.75 2.91 1.57 3.88 2.93 2.29 3.93 3.91 8.19 5.78 12.33l2.79-.93c.71.66 1.42 1.31 2.14 1.97.95 4.34 1.35 8.77 2.3 13.11 1.25-1.46 2.12-3.43 3.85-4.37 2.48-.05 4.78 1.04 7.14 1.63-1.3.41-2.59.81-3.89 1.2-.31 4.39-1.9 8.79-.1 13.1.71-.97 1.43-1.94 2.13-2.92 1.24-.36 2.49-.7 3.74-1.04.72-5.83-3.71-11.34-1.19-17.02.76-.02 2.29-.05 3.05-.07 1.34 2.23 2.54 4.53 3.74 6.83 1.3-4.74 2-9.86 5.41-13.68.64-.01 1.94-.03 2.59-.05 1.01-3.19 2.27-6.46 5.2-8.37.93 1.24 1.84 2.48 2.75 3.74 1.44-.78 2.88-1.55 4.32-2.33.6.14 1.79.41 2.39.55-2.3-4.78-5.12-9.33-8.64-13.3-2.66-2.67-5.87-4.71-8.7-7.19-2.97-2.4-5.67-5.43-9.41-6.64-2.5-.58-5.07-.83-7.61-1.16-3.31-.6-5.99 1.99-8.58 3.63-4.85.33-10.06.56-14.1-2.63-.88.84-1.76 1.69-2.63 2.53-5.15-.25-9.89 2.37-13.68 5.63.36 1.41.81 2.79 1.24 4.18-3.82 2.28-6.92 5.45-9.68 8.89-2.4.53-4.87.68-7.27 1.21.09 3.14-1.83 5.55-3.86 7.69-.63 1.93-1.32 3.84-2.02 5.76.14.71.42 2.13.56 2.85-1.44 4.18-2.41 8.5-3.71 12.72.17.49.49 1.46.65 1.95.11 2.22.1 4.48-.6 6.61-1.36 4.22-1.48 8.69-2.69 12.95l-.09.13c-2.33-5.9 1.44-12.03 2.11-18-2.29-2.64-.94-5.74.52-8.4-.43-3.9 3.37-7.15 1.56-10.97.24-1.17.5-2.34.77-3.51.45-2.47 1.29-4.92 3.9-5.81.02-1.48.01-2.96 0-4.44 2.63-2.48 6.48-2.12 9.79-2.81-.06-4.2 4.82-4.98 7.39-7.33 0-.45.01-1.37.01-1.82-.92-.59-1.85-1.16-2.75-1.77-.12-.76-.35-2.27-.47-3.03 2.16.05 4.32.13 6.48.08l.29-.71c.18-.57.54-1.72.72-2.3 1.15-.04 2.29-.09 3.44-.13.36-.48 1.09-1.42 1.45-1.9 2.02-.02 4.05.02 6.07-.21.23-.27.7-.8.93-1.07z" fill="#bdbdbd"/><path d="m192.35 10.62c-.2-1.36-1.59-3.62.55-4.17 2.38.08 4.54 1.31 6.34 2.77.21.24.61.73.81.97-2.98 2.42-3.73 6.47-6.23 9.3.72 1.11 1.82 2.06 2.04 3.43-.78.98-1.68 1.85-2.53 2.76.29-1.37.55-2.75.76-4.13l-1.75-.56c-1.64-.49-3.28-.96-4.91-1.45.02-1.04.05-2.08.08-3.12 1.98.02 3.96.06 5.94.09.5-1.66 1-3.32 1.49-4.98-.64-.23-1.94-.69-2.59-.91z" opacity=".72"/><path d="m303.38 7.55c3.4-.92 7.01.03 10.39.71 1.51.45 3.01.97 4.5 1.53.12.99.25 1.97.39 2.96-.47.69-.94 1.38-1.4 2.07 1.06 1.18 2.12 2.36 3.18 3.55-.93 0-2.78-.01-3.71-.01 1.06 1.46 2.12 2.93 3.3 4.3-.42-.07-1.28-.21-1.71-.28-1.72-1.48-3.28-3.14-4.83-4.78.12-1.16.24-2.32.37-3.48-3.35-.95-6.88-1.48-10.01-3.06-1.39-.56-2.44-3.02-.47-3.51m2.82 1.8 1.53 2.1c2.41.47 4.88.71 7.32.22-1.98-3.12-5.7-2.42-8.85-2.32z" fill="#292929"/><path d="m230.25 8.76c2.66 1.13 5.44 2.45 8.41 1.82.11.33.34.98.45 1.3l-.29.71c-2.16.05-4.32-.03-6.48-.08.12.76.35 2.27.47 3.03-2.21-1.25-3.97-3.1-5.48-5.12.97-.55 1.95-1.1 2.92-1.66zm10.38 124.95c-2.9.22-2.38-3.36-.61-4.61.83 1.41 2.1 3.14.61 4.61zm61.02 12.33c-1.12-2.21 2.21-1.35 3.22-1.99-.23 1.52-.75 2.96-1.87 4.06z" fill="#545454"/><path d="m201.04 11.36c-2.18-2.42 1.23-2.35 2.93-2.7 2.53.86 4.87 2.19 7.26 3.37l.45 2.73c-3.76-.12-7.75-.79-10.64-3.4z" fill="#535353"/><path d="m306.2 9.35c3.15-.1 6.87-.8 8.85 2.32-2.44.49-4.91.25-7.32-.22zm-68.67 164.2 2.14-.2c0 1.12.01 2.24.01 3.36-.57-.07-1.71-.2-2.28-.27.04-.97.09-1.93.13-2.89z" fill="#636363"/><path d="m318.27 9.79c2.39.89 4.59 2.21 6.68 3.68-.78 1.62-1.53 3.25-2.14 4.93-.59-.01-1.78-.02-2.37-.03-1.06-1.19-2.12-2.37-3.18-3.55.46-.69.93-1.38 1.4-2.07-.14-.99-.27-1.97-.39-2.96zm-136.7 71.88c4.57-.35 9.65-.28 12.82 3.57-2.78-.66-5.47-1.9-8.35-1.99-2.1.31-3.79 1.76-5.62 2.72l.4-2.58c.19-.43.56-1.29.75-1.72z" fill="#010101" opacity=".98"/><path d="m197.66 17.51c4.08-.32 8.14.33 11.93 1.86 0 .55.01 1.66.01 2.22l-2.84.16c-1.09.06-2.18.11-3.26.17-2.09-.8-4.1-1.81-6.14-2.73.07-.42.22-1.26.3-1.68zm80.93 49.23c.68.55 2.05 1.65 2.74 2.21.28 11.71 2.64 23.25 5.02 34.69 1.24-.51 2.48-1.01 3.75-1.48.24.39.74 1.17.99 1.56-.44.4-1.31 1.19-1.75 1.58.25.83.5 1.65.77 2.48-.98-.18-1.97-.36-2.94-.54.14 3.51 1.1 6.89 2.61 10.04.77 3.79 1.42 8.18-.8 11.62-2.7 3.7-7.93 3.22-11.77 1.85 3.14-.16 6.27-.48 9.39-.89-.48-.33-1.45-.97-1.94-1.29.95-1.15 1.91-2.28 2.88-3.42.13-7.75-3.62-14.77-4.68-22.34-1.98-11.94-5.13-23.88-4.27-36.07z" fill="#343434"/><path d="m167.86 35.1c1.34-6.07 1.04-12.4 2.88-18.37 7.93 5.95 10.31 16.18 12.19 25.37.88 7.05 1.43 14.16.95 21.26-.03.57-.08 1.7-.11 2.26-.33 4.68-.73 9.36-1.5 13.99-.17.52-.53 1.54-.7 2.06-.19.43-.56 1.29-.75 1.72-.37.78-.77 1.56-1.13 2.35-.39 1.87-.66 3.76-.99 5.63-.2.99-.44 1.97-.72 2.94-8.94 18.48-22.64 34.18-37.21 48.44-15.22 14.41-31.97 27.84-51.48 35.93 8.69 19.06 17.29 38.22 23.84 58.14-4.68 6.65-8.9 13.63-12.5 20.92-8.3-6.04-15.79-13.12-22.98-20.41-9.39-9.61-18.36-19.65-26.52-30.32-3.59-4.81-7.47-9.87-8.2-16.01-1.13-6.99 1.26-14.2 5.79-19.54 5.44 3.56 12.61 3.44 18.3.54 8.98-4.54 15.82-12.2 21.95-19.99 14.07-18.27 24.82-38.81 34.9-59.47 7.94-6.24 15.93-12.45 23.4-19.26 11.23-9.67 17.75-23.85 20.59-38.18zm162.97-.62c1.8-6.68 4.67-13.54 10.44-17.74 1.27 4.16 1.5 8.51 1.99 12.8 1.69 13.86 6.92 27.51 15.94 38.26 8.78 9.17 18.99 16.82 28.9 24.7 11.02 22.55 22.81 45.07 38.96 64.45 4.88 5.81 10.53 11.14 17.28 14.73 5.81 3.1 13.28 3.47 18.92-.23 5.72 6.58 7.74 16.22 4.55 24.42-3.07 7.08-8.37 12.87-13.08 18.89-13.16 15.53-27.01 30.75-43.35 43.01-3.69-7.26-7.78-14.33-12.53-20.96 6.56-19.92 15.15-39.08 23.84-58.13-13.81-5.62-26.15-14.25-37.65-23.62-14.02-11.62-26.88-24.72-37.83-39.28-8.18-11.24-16.23-23.53-17.74-37.7-1.85-12.98-2.19-26.2.09-39.15.17-.58.51-1.76.67-2.34.15-.53.45-1.59.6-2.11zm-34.61 140.64c1.88-.09 3.77-.01 5.65.14 3.56.42 7.3.36 10.59 1.99-.51 2.51-1.08 5.02-1.59 7.53 22.68 6.49 44.46 17.27 61.67 33.63 3.89 3.95 7.91 8.13 9.62 13.55-5.96-2.41-11.08-6.36-16.78-9.27-24.15-12.87-51.2-19.49-78.31-22.1-4.32-.4-8.67-1.03-13.02-.64-4.75.3-8.4 4.38-13.29 4.05 4.01-3 8.64-4.91 13.12-7.08 5.46-2.6 8.95-7.76 13.5-11.55 3.49-2.92 6.22-6.56 8.84-10.25zm-83.62 8.08c6.26 6.25 13.06 12.11 20.69 16.63-28.69 2.15-57.51 8.06-83.33 21.13-6.94 3.22-13.02 8.04-20.12 10.96 2.68-7.29 8.6-12.78 14.31-17.78 15.4-12.98 33.7-22.3 52.96-28 5.07-1.49 10.5-1.09 15.49-2.94zm-207.29 57.95c-.92-4.35-1.32-10.85 3.72-12.8 5.09-1.1 9.61 2.4 13.56 5.12 11.73 9.15 21.24 20.73 30.81 32.02 4.47 5.43 9.48 10.47 12.99 16.61 7.69-3.65 16.86-3.91 24.54-.09-2.87 9.46-5.01 19.2-5.55 29.09-7.28 1.93-15.58 1.86-22-2.52-3.8-2.32-6.03-6.36-7.05-10.59-6.18 1.23-12.63-.09-17.95-3.41-8.18-4.68-13.3-12.88-18.21-20.62-6.2-10.28-12.21-21-14.86-32.81zm484.1-7.69c3.94-2.72 8.49-6.25 13.57-5.09 4.97 1.97 4.58 8.39 3.69 12.71-2.57 11.58-8.41 22.09-14.44 32.19-5.15 8.18-10.51 16.92-19.27 21.67-5.18 3.12-11.39 4.14-17.33 3.11-.96 3.48-2.42 6.99-5.35 9.27-6.49 5.52-15.75 5.93-23.66 3.78-.52-9.89-2.68-19.63-5.56-29.08 7.67-3.81 16.84-3.59 24.52.09 2.04-3.42 4.41-6.64 7.06-9.62 11.69-13.49 22.63-27.94 36.77-39.03zm-377.9 94.77a173.32 173.32 0 0 1 15.51 11.6c-6.68 11.63-16.87 21.14-28.44 27.8-5.87 3.61-13.21 3.25-19.38.6-3.03 2.43-6.44 4.55-10.35 5.13-9.56 1.77-19-1.71-27.56-5.65-10.84-5-21.56-10.57-30.9-18.08-3.47-2.98-7.16-6.21-8.64-10.67-.99-2.74.3-5.95 2.8-7.38 3.41-2.02 7.53-2.27 11.4-2.38 9.51.02 18.9 1.85 28.13 4.02 8.88 2.12 17.74 4.57 26.08 8.34 4.57-4.27 10.66-6.21 16.71-7.2 8.34-1.54 16.37-4.33 24.64-6.13zm275.4 14.91c5.41-4.96 10.86-9.88 16.66-14.38 8.04 2.44 16.17 4.64 24.44 6.2 5.09.94 9.96 3.1 13.82 6.6 12.2-5.38 25.28-8.43 38.34-10.87 7.89-1.19 16.09-2.44 23.96-.51 3.2.73 6.56 3.17 6.43 6.8-.37 4.73-4.08 8.22-7.35 11.28-8.64 7.45-18.78 12.9-29 17.85-7.67 3.53-15.57 7.28-24.15 7.66-6.23.49-12.59-1.34-17.27-5.55-3.44 1.24-7.05 2.37-10.75 2.09-5.31-.3-9.94-3.22-14.22-6.12-8.09-5.76-15.39-12.76-20.91-21.05zm-271.9 38.87c11.6-6.78 21.39-16.41 33.61-22.16 1.77 1.9 3.69 3.66 5.68 5.34l-.02.16c-2.9 13.35-9.75 25.45-17.11 36.82-3.86 5.64-7.93 11.29-13.24 15.67-4.11 3.58-9.87 3.26-14.96 3.85-1.39 3.4-3.16 6.79-6.12 9.1-6.96 5.83-16.34 6.83-24.97 8.32-13.47 1.87-27.25 3.42-40.78 1.28-4.1-.87-9.37-2.06-10.84-6.57-.95-4.45 2.73-8.02 5.8-10.64 8.61-6.84 18.85-11.19 28.98-15.22 10.48-3.99 21.27-8.04 32.64-8.01 1.62-4.4 3.86-8.75 7.66-11.65 3.92-3.34 9.33-3.72 13.67-6.29zm243.7-11.5c3.06-2.85 6.01-5.82 8.93-8.81 9.54 6.22 18.43 13.37 28 19.53 4.83 3.33 11.24 3.49 15.61 7.56 3.47 2.88 5.5 7.01 7.05 11.16 10.9-.04 21.26 3.74 31.34 7.47 8.61 3.31 17.12 7.03 24.96 11.91 3.78 2.46 7.6 5.18 10.06 9.04 1.41 2.16 1.8 5.26.1 7.39-2.38 2.95-6.32 3.86-9.85 4.62-9.53 1.61-19.27 1.09-28.85.22-9.34-1.06-18.77-2.12-27.8-4.84-6.89-2.12-12.98-7.12-15.29-14.09-6-.37-12.74-.7-16.97-5.62-12.4-12.84-20.99-28.95-27.29-45.54zm-179.86 18.41c6.88 5.74 14.74 10.24 22.87 13.95-4.26 10.19-8.99 20.33-15.67 29.19-2.15 2.97-5 5.36-8.31 6.94.91 4.28 1.33 8.66 1.03 13.03-.61 9.96-.45 20.02-2.35 29.86-1.52 7.8-4.28 15.78-10.04 21.5-3.66 3.49-8.36 6.19-13.45 6.71-4.2-.65-5.89-5.28-7.34-8.71-4.35-12.65-5.32-26.15-6.04-39.41-.17-8.25-.8-16.93 2.61-24.68 2.27-5.6 6.97-9.97 12.71-11.85 1.06-7.17 3.3-14.24 7.37-20.28 4.21-6.64 10.87-11.06 16.61-16.25zm131.61 14.69c8.74-3.2 16.91-7.76 24.56-13.03 5.04 4.37 10.59 8.36 14.31 14.01 4.3 6.17 6.67 13.46 7.76 20.85 8.97 2.72 14.24 11.76 15.09 20.68.95 10.26.1 20.58-.82 30.82-1.08 9.01-2.3 18.2-5.86 26.62-1.33 2.75-3.07 6.17-6.47 6.55-7.46-.89-14.01-5.94-17.79-12.3-5.96-10.15-6.92-22.22-7.47-33.71-.17-8.36-1.51-16.84.47-25.09-2.85-1.43-5.49-3.31-7.43-5.86-7.11-8.83-11.76-19.27-16.35-29.54z" fill="#a0041e"/><path d="m316.73 18.36c.93 0 2.78.01 3.71.01.59.01 1.78.02 2.37.03-.45 1.48-.83 2.97-1.28 4.45-.37-.05-1.12-.14-1.5-.19-1.18-1.37-2.24-2.84-3.3-4.3z" fill="#6e6e6e" opacity=".94"/><path d="m192.34 20.99 1.75.56c-.21 1.38-.47 2.76-.76 4.13l-.49.53c1.73 1.25 3.5 2.64 4.01 4.82-4.07.74-8.1 1.86-11.58 4.16 2.14.09 4.28.14 6.43.18.31 1.76.78 3.51.76 5.31-1.2 1.44-2.69 2.61-3.91 4.04.27 2.47 1.01 4.88.99 7.39.06 1.58.25 3.14.55 4.69.03.17.07.49.09.66-.94 1.86-2.08 3.61-3.05 5.45.13.16.38.49.51.65.86 1 1.7 2.02 2.52 3.06.19.36.56 1.09.74 1.45 2.35 1.86 1.84 4.85 1.62 7.47 1.93-1.2 4.03-2.1 6.21-2.74.03 3.61-.17 7.22-.5 10.81-1.27.47-2.45 1.68-3.84 1.63-3.17-3.85-8.25-3.92-12.82-3.57.17-.52.53-1.54.7-2.06 4.68-.28 9.2 1.05 13.31 3.22.49-1.85.98-3.69 1.46-5.54-1.94.14-3.88.33-5.82.25-.99-1.85-.5-4.12-.67-6.14a32.043 32.043 0 0 0 -6.78-5.78c.03-.56.08-1.69.11-2.26 1.52-1.88 3.03-3.77 4.57-5.65-1.27-.44-2.52-.89-3.78-1.34a80.09 80.09 0 0 1 3.07-6.74c-.84-1.32-1.7-2.64-2.55-3.96 1.51-1.86 3.22-3.54 5.1-5.02-.02-1.26-.05-2.52-.08-3.77-2.51.14-5.21.67-7.57-.46-.34-.58-1.03-1.73-1.37-2.3l11.37-4.08c-.68-1.02-1.36-2.03-1.93-3.11-.13-1.6 1.11-2.89 1.7-4.3-.02-.41-.05-1.23-.07-1.64zm129.34 120.97c.06-1.93.17-3.87.45-5.78 1.2 2.03 1.9 4.34-.45 5.78z" opacity=".58"/><path d="m203.5 21.92c1.08-.06 2.17-.11 3.26-.17 1.14 1.85 3.68 3.47 2.98 5.93-2.7 1.69-6.16 1.21-9.14.71-1.69-.16-3.07-2.22-1.95-3.68 1.37-1.3 3.11-2.11 4.85-2.79m-2.79 3.97c1.85 1.07 3.87 1.75 6.01 1.15-.03-.7-.1-2.09-.13-2.79-2.09.08-4.57-.42-5.88 1.64z" fill="#222"/><g fill="#cfcdcd"><path d="m262.36 22.03c4.07-.49 7.65 2.18 11.7 2.15 4.27.54 8.58-1.42 12.76.07.05 1.21.11 2.43.17 3.64-4.47 2.93-9.92 2.01-14.96 2.12-4.18.24-7.76-2.3-11.27-4.22.21-1.38.34-2.88 1.6-3.76m.72 1.19c.34 1.12.08 2.83 1.55 3.19 6.18 3.01 13.51 2.47 20.04 1.07.04-.55.11-1.65.14-2.2-7.31.18-14.75.54-21.73-2.06zm-55.08 57.69c.25.05.74.15.99.21-.39 3.04-1.15 6.02-2.01 8.96-1.55 4.93-1.67 10.25-3.95 14.95l-3.41.04c-2.09-5.33-3.79-10.9-6.92-15.74-1.8-2.64-5.33-2.42-8.13-2.63-.74 6.21 6.84 9.2 6.34 15.33.48 7.84-3.91 14.66-5.83 21.99-.56 1.5 1.22 2.53 1.75 3.78 5.62-3.87 6.87-10.81 9.33-16.7l3.97-.09c2.04 5.26-1.16 10.68-.02 16.06 1.7 9.76 3.99 19.52 8.11 28.58 1.22-1.32 2.45-2.63 3.69-3.93.92.51 1.84 1.02 2.77 1.53.21.66.65 1.97.87 2.63l-.88 2.73c-.55.24-1.64.72-2.19.95-.98-.24-1.95-.49-2.92-.73 1.21 6.01 4.45 11.28 6.82 16.86 8 14.35 24.26 23.82 40.71 23.45 2.69.2 4.87-1.51 6.99-2.89-4.9.04-10.2-.65-13.5-4.69-1.93-2.45-5.22-6.36-2.38-9.29 1.22-1.71 4.13-1.87 5.11.16 1.75 2.96 3.85 5.78 7.33 6.77 3.97-1.86 7.82-4.29 9.7-8.44-1.18-.98-3.63-1.59-3.34-3.56.52-.93 1.09-1.84 1.7-2.71l3.56.64c.27 1.62.28 3.27.03 4.91.95.67 1.91 1.33 2.88 2 .49 4.4-2.38 7.78-4.97 10.94 4.25-1.5 7.37-4.79 10.4-7.97-1.31-.57-2.69-.99-3.88-1.78-1.37-1.16-.12-2.78.13-4.13.89-.17 2.66-.49 3.55-.65.83 1.62 1.4 3.34 1.74 5.12 1.37-1.52 2.78-3 4.19-4.48-1.14-.54-2.27-1.08-3.41-1.61.33-1.93-.35-4.75 2.11-5.42 2.15-.66 3.55 1.37 5.11 2.45 3.49-3.83 6.36-8.16 9.2-12.48-1.14-1.32-2.27-2.63-3.39-3.95a339 339 0 0 1 1.31-2.73c.95-.47 1.91-.95 2.87-1.43 1.21.44 2.43.88 3.66 1.32 1.11-2.59 2.12-5.24 2.6-8.03l.24 1.2c4.23-11.19 7.08-22.87 9.65-34.54 1.09-3.67-.07-7.84 1.79-11.25l1.32-1.22c-.05 1.56-.1 3.11-.13 4.68-.13.47-.37 1.43-.49 1.9-2.13 7.97-3.44 16.14-5.79 24.06-2.27 8.59-4.56 17.42-9.49 24.92-1.64-.28-4.01-2.74-5.27-.83-2.37 2.1 1.38 3.42 2.67 4.62-1.72 4.5-5.3 7.94-7.09 12.4a33.532 33.532 0 0 0 -4.44 5.43c-4.66 3.73-8.81 8.14-12.64 12.71l-.52.56c-7.1 2.79-13.1 8.91-21.2 8.57-12.52-.23-24.75-6.08-33.13-15.34-9.72-9.82-12.56-23.82-17.62-36.2-2.63-8.1-5.08-16.39-5.69-24.92-.46-4.12 2.38-8.69-.44-12.35-.24.38-.71 1.14-.94 1.52-2.38 5.08-3.26 11.45-8.28 14.78-1.97 1.61-4.19-.13-5.77-1.39.82-9.06 7.62-16.89 6.34-26.21-1.74-4.48-5.85-7.63-7.3-12.31l1.78-2.18 3.12-1.38c4.33 1.26 8.09 4.13 9.44 8.57.85 1.98 1.71 3.95 2.6 5.92.47 1.89.99 3.77 1.59 5.63 1.31-1.41 2.47-3.02 2.73-4.98 1.24-6.29 2.73-12.53 4.57-18.67m3.17 76.74c.66-.01 1.97-.05 2.63-.07-.13-1.79-.16-3.72-2.04-4.66-.24 1.57-.42 3.15-.59 4.73m73.11 19.07c2.4 2.27 3.75-1.48 3.48-3.48-2.43-.64-4.41 1.03-3.48 3.48m-15.04-.74c-1.78.53-.98 3.47.85 2.92 2.06-.35 1.04-3.64-.85-2.92m9.01 4.33c-1.57 1 .23 3.44 1.66 2.26 1.57-1-.23-3.46-1.66-2.26m-8.58 4.43c-1.53 2.98-4.82 4.12-7.59 5.61-.8.02-2.41.04-3.21.06-2.73-.96-4.7-2.98-5.76-5.65-.44-1.82-2.43-1.3-3.81-1.58.08 1.41.16 2.81.26 4.22 1.2 1.66 2.17 3.58 3.91 4.78 3.6 3.68 10.5 3.71 14.1.02 1.19-.84 2.33-1.79 3.19-2.97 2.71-1.13 3.8-4.84 2.41-7.32-2.01-1.58-2.96 1.46-3.5 2.83z"/><path d="m205.02 132.95c.9-1.54 2.53-3.8 4.58-2.74 1.42 1 2.97 2.97 1.71 4.68-.67 1.9-2.71 2.17-4.42 2.33-.66-1.4-1.86-2.65-1.87-4.27m4.48 2.97c.06-1.65.07-3.29.02-4.93-3.48.68-3.81 4.51-.02 4.93zm5.78-5.84c1.19 0 2.39.01 3.59.01.65.97 1.3 1.96 1.95 2.94-.77 2.02-1.77 4.71-4.48 4-.99-1.19-1.59-2.63-2.26-4 .4-.98.8-1.96 1.2-2.95m.96 1.18c0 1.17 0 2.34.01 3.52l2.38-.04c-.01-1.12-.01-2.23-.02-3.35-.59-.03-1.78-.1-2.37-.13zm-4.52 13.69c1.05-.98 2.12-1.94 3.19-2.89.96.46 1.92.91 2.89 1.37l1.35 2.55-1.41 2.85-3.57.18c-.84-1.35-1.65-2.7-2.45-4.06m2.54-.98c.05 1.29.12 2.58.2 3.87 1.32-.15 2.64-.49 3.27-1.83-.59-1.52-2.11-1.74-3.47-2.04zm86.58-.8c.78-.13 2.32-.4 3.1-.53l1.88 1.64c.18.98.37 1.95.57 2.93-1.27.66-2.52 1.34-3.77 2.03-1.96-1.56-3.13-3.68-1.78-6.07m.81 2.87 1.35 2.07c1.12-1.1 1.64-2.54 1.87-4.06-1.01.64-4.34-.22-3.22 1.99zm-68.61 2.14c.5-1.16 1.13-2.25 1.73-3.36 1.93-.12 4.79.63 4.22 3.16.69 2.59-1.35 4.32-3.79 4.28-.74-1.34-1.93-2.52-2.16-4.08m4.38 2.67c.07-1.54.12-3.08.15-4.62-3.59-.42-3.95 4.52-.15 4.62zm46.84 2.47c.91-.47 1.82-.94 2.74-1.42.98.46 1.96.91 2.95 1.37.04 1.87-.19 3.72-.92 5.46-.88.24-1.76.5-2.63.75-.6-.14-1.81-.43-2.41-.58-1.25-1.84-.98-3.82.27-5.58m-.01 2.68c.57 2.1 2.62 1.47 4.22 1.51-.17-1.49.66-3.88-1.58-4.19-1 .78-1.88 1.67-2.64 2.68zm-65.14.91c.66.02 1.97.07 2.63.09.79 1.29 2.38 2.32 2.31 3.99.29 1.77-1.39 2.88-2.5 3.93-1.21.29-2.31-.62-3.45-.91-.76-2.49-.56-4.98 1.01-7.1m.2 2.09c.03 1.26.06 2.53.1 3.8 1.07-.14 2.15-.28 3.23-.41.33-2.44-1.23-3.25-3.33-3.39zm67.77 4.95c.77-2.11 2.12-3.87 3.9-5.22 1.03 1.05 2.32 1.93 2.99 3.28.07 2.57-1.84 5.23-4.59 5.25-.77-1.11-1.53-2.21-2.3-3.31m2.36-2.6c-.02 1.38-.04 2.77-.04 4.15.48 0 1.45-.01 1.94-.01.43-1.29.86-2.57 1.29-3.86-1.07-.09-2.13-.19-3.19-.28zm-55.95-1.54c1.44.23 3.22.59 3.72 2.2 1.05 2.07-.57 4.11-1.27 6.01-1.57-.11-3.15-.2-4.72-.29-.06-1.77-.12-3.53-.16-5.29.82-.87 1.63-1.75 2.43-2.63m-.95 2.67-.15 4.23c1.01-.09 2.02-.18 3.03-.26l.36-4.23c-1.08.08-2.16.17-3.24.26zm45.78 3.26c2.11.1 3.87 1.41 4.7 3.34-.32 2.4-3.36 6.09-5.79 3.7-2.56-2.06-.63-5.18 1.09-7.04m-.61 5.44c.97.28 1.96.51 2.96.68-.05-1.61-.14-3.23-.26-4.83-1.52.59-3.57 2.26-2.7 4.15zm-33.72-1.26c2.6-1.47 5.89.55 5.14 3.67-1.08.9-2.15 1.81-3.22 2.72-.94-.9-1.89-1.77-2.74-2.75-.48-1.24.62-2.44.82-3.64m1.18 3.84c1.35 1.37 3.52-.95 2.2-2.24-1.36-1.31-3.76.92-2.2 2.24zm-8.94-.47c.93-.93 2.26-1.17 3.43-1.63.72 1.09 1.52 2.16 2.14 3.32-.58 1.07-1.32 2.04-2 3.04-.69 0-2.08-.02-2.77-.02-.67-1.47-1.43-3.09-.8-4.71m1.3.26c-.04.96-.09 1.92-.13 2.89.57.07 1.71.2 2.28.27 0-1.12-.01-2.24-.01-3.36zm22.8 5.21c1.53.34 3.06.72 4.57 1.18.01 1.68.02 3.37.06 5.07-1.51.64-3.13.96-4.74 1.21-.72-1.37-1.42-2.73-2.11-4.1zm.02 1.65c.04 1.37.09 2.74.15 4.11l2.98-.12c0-1.27 0-2.55.01-3.82-1.05-.06-2.1-.11-3.14-.17zm-27.96-.35c1.09-.16 2.17-.15 3.26.03 2.26 1.5.9 4.54 1.22 6.78-.91.43-1.84.83-2.77 1.2-1.15-.65-2.12-1.54-3.15-2.34.27-1.94-.59-4.47 1.44-5.67m.09 1.36c0 1.38.01 2.77.02 4.16 1.05.03 2.09.07 3.15.1-.06-1.38-.11-2.76-.16-4.13-1.01-.05-2.01-.09-3.01-.13zm7.48 3.63c1.1-.78 2.16-2.64 3.76-1.92.79.67 1.56 1.37 2.3 2.11-.03 1.25-.04 2.51-.04 3.77-1.01.76-1.96 2.51-3.46 1.87-.87-.71-1.7-1.44-2.5-2.2zm2.05.02c-1.45 1.3-.58 3.72.83 4.71 3.4.17 1.65-7.79-.83-4.71z"/></g><path d="m263.08 23.22c6.98 2.6 14.42 2.24 21.73 2.06-.03.55-.1 1.65-.14 2.2-6.53 1.4-13.86 1.94-20.04-1.07-1.47-.36-1.21-2.07-1.55-3.19zm-51.91 134.43c.17-1.58.35-3.16.59-4.73 1.88.94 1.91 2.87 2.04 4.66-.66.02-1.97.06-2.63.07zm21.31 23.77c1 .04 2 .08 3.01.13.05 1.37.1 2.75.16 4.13-1.06-.03-2.1-.07-3.15-.1-.01-1.39-.02-2.78-.02-4.16z" fill="#444"/><path d="m200.71 25.89c1.31-2.06 3.79-1.56 5.88-1.64.03.7.1 2.09.13 2.79-2.14.6-4.16-.08-6.01-1.15zm67.43 107.64c.03-1.15.32-2.21.89-3.17 1.24.61 1.43 1.91 1.69 3.1-.64.01-1.93.05-2.58.07zm-30.72 17.32c-3.8-.1-3.44-5.04.15-4.62-.03 1.54-.08 3.08-.15 4.62zm4.62 5.43c1.42-1.15 3.23 1.28 1.66 2.28-1.44 1.16-3.25-1.28-1.66-2.28z" fill="#595959"/><path d="m212.41 26.99c.44-2.17 2.67-1.62 4.3-1.84-.03 1.19-.07 2.37-.1 3.55-1.61-.13-3.81.5-4.2-1.71zm71.84 129.01c.76-1.01 1.64-1.9 2.64-2.68 2.24.31 1.41 2.7 1.58 4.19-1.6-.04-3.65.59-4.22-1.51z" fill="#454545"/><path d="m318.62 26.97c2.37-.11 4.66.5 6.86 1.35-.61.71-1.84 2.13-2.45 2.83a8.451 8.451 0 0 1 -4.41-4.18z" fill="#202020" opacity=".98"/><path d="m241.75 29.08c5.01-.45 7.15 5.25 11.83 5.82-.34-1.86-.67-3.72-.98-5.58 5.54 5.3 6.31 13.39 10.24 19.67.49-1.85.9-3.77 2.11-5.33 1.58 5.15 2.37 10.5 2.73 15.86 1.04.12 2.08.24 3.13.35.6-1.51 1.2-3.01 1.8-4.52.6-.08 1.81-.23 2.42-.31-.38 6.46-3.05 12.37-6.51 17.74-4.13.14-6.14-3.91-8.87-6.28.64.14 1.91.42 2.54.56 1.64 1.47 3.26 2.95 4.89 4.43 2.07-2.75 3.78-5.74 5.06-8.93-1.63.02-3.26.05-4.89.07-.64-2.82-.96-5.71-1.68-8.51-1.52-1.36-3.92-1.87-4.7-3.92-1.68-4.29-2.99-8.73-4.98-12.9-.94.13-1.88.27-2.81.4-.81.91-1.56 1.88-2.47 2.68-2.83.17-5.81-.1-8.25 1.65-.07 1.16-.17 2.32-.28 3.48l-1.21.51c-.21-1-.42-2-.62-3-1.72-1.19-3.59-2.37-4.3-4.45 1.67.05 3.34.11 5.02.19-.71-1.69-1.42-3.38-2.06-5.09 4.07 1.19 6.46 5.85 11.18 5-2.47-3.46-5.64-6.33-8.34-9.59zm-32.25 106.84c-3.79-.42-3.46-4.25.02-4.93a73.7 73.7 0 0 1 -.02 4.93zm13.69 3.31c.61.03 1.83.1 2.44.13.05 1.11.09 2.21.14 3.32-.61.01-1.82.02-2.43.03z" fill="#4c4c4c"/><path d="m271.52 31.35c6.54 1.86 13.38.11 19.5-2.35 1.74-.27 1.87 1.34 2.23 2.55-1.79 1.54-3.53 3.17-5.64 4.27-7.68 2.88-17.15 3.48-23.72-2.2.43-.86.87-1.72 1.3-2.58 2.11-.08 4.28-.35 6.33.31m-4.07.9-.24 2.16c3.79 1.27 7.76 2.53 11.81 1.78 4.65-.79 10.42-1.38 12.97-5.96-7.62 3.65-16.41 4.03-24.54 2.02zm39.88 38.34c3.09 7.73 2.51 16.4.95 24.41-1.07 4.33-1.82 9.16-5.2 12.39 1.83-5.22 4.1-10.35 4.57-15.94-2.42-.17-6 1.09-7.18-1.85-1.2-3.04-1.29-6.88.47-9.72 1.86-2.47 4.87-.7 7.18-.1-.39-3.05-.58-6.13-.79-9.19m-5.7 12.37c-.01 1.37-.01 2.74-.01 4.11.32.66.95 1.97 1.26 2.63 1.9.08 2.81-.78 2.72-2.58-.03-2.48 1.13-6.76-2.67-6.77-.32.65-.98 1.96-1.3 2.61zm-64.94 47.27c1.51-1.15 3.19-1.94 5.12-1.42.3 1.05.6 2.1.91 3.15-.37 1.01-.72 2.03-1.07 3.04-1.22-.03-2.43-.05-3.63-.07-.52-1.55-.95-3.12-1.33-4.7m3.94 3.48c1.49-1.47.22-3.2-.61-4.61-1.77 1.25-2.29 4.83.61 4.61zm-18.86 5.16c.74-1.16 1.7-2.42 3.27-1.85 1.67.73 1.97 2.68 2.67 4.17-.34.93-.66 1.87-.98 2.81-1.47-.05-2.94-.09-4.41-.13-.29-1.62-1.89-3.48-.55-5m1.42.36.15 3.48c.61-.01 1.82-.02 2.43-.03-.05-1.11-.09-2.21-.14-3.32-.61-.03-1.83-.1-2.44-.13zm16.8 17c.52-.41 1.57-1.22 2.1-1.62.67.11 2.02.34 2.7.45.29.51.88 1.52 1.17 2.02-.37.93-.74 1.86-1.1 2.8-.77.32-1.54.64-2.3.97-.85-.59-1.71-1.18-2.56-1.77 0-.71-.01-2.14-.01-2.85m2.05.05c-1.59 1 .22 3.44 1.66 2.28 1.57-1-.24-3.43-1.66-2.28zm-23.7 12.72c2.11-.17 4.1 1.38 6.21.65 1.81-.97 3.21.73 4.62 1.58-.2 2.04.09 4.66-2.09 5.75-1.83.54-3.17-.78-4.47-1.8-2.09.24-4.14.03-5.81-1.35.23-1.7-.11-3.73 1.54-4.83m.02 1.31c.03 1.06.06 2.12.1 3.18 1.03.06 2.07.11 3.11.17-.08-1-.17-1.99-.25-2.98-.99-.13-1.98-.25-2.96-.37m6.03 1.03c.08 1.34.16 2.69.26 4.04.89-.01 1.78-.03 2.68-.04.09-1.28.17-2.56.26-3.83-1.07-.06-2.14-.12-3.2-.17zm36.55 2.61c-.57-2.32 2.06-3.07 3.83-3.22.66 1.08 1.4 2.13 1.97 3.27-.44 1.14-1.1 2.18-1.68 3.26-1.94-.01-4.76-.76-4.12-3.31m1.6-1.36c-.08.99-.15 1.98-.22 2.98.59.02 1.77.05 2.36.07-.02-1.07-.04-2.13-.05-3.19-.52.03-1.57.11-2.09.14z" fill="#c4c4c4"/><path d="m267.45 32.25c8.13 2.01 16.92 1.63 24.54-2.02-2.55 4.58-8.32 5.17-12.97 5.96-4.05.75-8.02-.51-11.81-1.78zm-55.99 10.5c1-1.08 2-2.15 3.01-3.23-.27 1.17-.53 2.34-.77 3.51 1.81 3.82-1.99 7.07-1.56 10.97-1.46 2.66-2.81 5.76-.52 8.4-.67 5.97-4.44 12.1-2.11 18l-.52.72c-.25-.06-.74-.16-.99-.21-1.84 6.14-3.33 12.38-4.57 18.67-.26 1.96-1.42 3.57-2.73 4.98-.6-1.86-1.12-3.74-1.59-5.63-.89-1.97-1.75-3.94-2.6-5.92.83.65 1.64 1.31 2.45 1.99.96 1.68 1.87 3.39 2.77 5.11 1.53-9.82 5.43-19.22 5.82-29.2-.59 1.58-1.17 3.17-1.74 4.77-.65.01-1.95.04-2.61.05.23-3.18.74-6.33 1.54-9.42-1.11-.95-2.25-1.87-3.24-2.95-.3-1.7.99-3.12 1.74-4.52.1 1.28.21 2.56.31 3.85.53-.06 1.59-.17 2.11-.23.75-2.01 1.49-4.01 2.24-6.01-1.09.13-2.17.25-3.26.38 2.58-3.46 5.58-6.58 8.11-10.08-.43-1.34-.87-2.67-1.29-4z" fill="#464646"/><path d="m298.77 36.72 2.04-.84c-.12 2.08-.23 4.16-.31 6.24a65.84 65.84 0 0 0 6.01-5.56c.55-.06 1.66-.18 2.22-.23-.24.74-.48 1.48-.71 2.22-2.26 2.09-4.07 4.61-5.19 7.49 2.77-.86 5.48-1.94 8.13-3.13-3.08 3.33-6.74 6.41-8.06 10.93 2.03-.87 4.04-1.77 6.07-2.64-1.55 2.31-3.2 4.54-4.73 6.85l1 1.11c1.35 1.42 2.74 2.8 4.04 4.26 5.36 11.91 5.47 25.75 1.39 38.05-1.55 4-3.23 8.38-6.98 10.84-.7-.39-2.09-1.18-2.79-1.57 2.24-1.98 4.8-3.89 5.8-6.85 4.38-11.32 5.63-24.35 1.27-35.86-1.29-2.68-3.32-6.5-6.8-6.04-3.53 2.35-6.33 5.65-8.84 9.03-.41.52-.81 1.04-1.22 1.57l-2.41-.44c-3.44-7-6.15-14.39-7.4-22.11 4.36.46 4.03 6.15 5.61 9.25l2.91.39-.24 1.4c-1.19.21-2.39.4-3.58.57 1.11 3.14 2.41 6.21 3.92 9.17 4.76-3.57 7.51-10.46 14.19-10.65-1.29-1.45-3.09-1.94-4.96-2.05.67-2.52 1.64-4.95 2.8-7.28-.52-.64-1.04-1.27-1.55-1.9.02-1.59.04-3.18.07-4.77-.75.4-2.25 1.19-3 1.59.3-2.01.51-4.03.78-6.05.17-.99.34-1.99.52-2.99zm-96.77 10.74c1.58-3.34 3.39-7.6 7.8-7.35.96 4.72-4.3 6.24-7.8 7.35zm12.26 96.51c1.36.3 2.88.52 3.47 2.04-.63 1.34-1.95 1.68-3.27 1.83-.08-1.29-.15-2.58-.2-3.87z" fill="#424242"/><path d="m182.91 38c2.31-.01 4.61-.02 6.92-.02.12.67.35 2 .46 2.67a32.285 32.285 0 0 0 -5.1 5.02c.85 1.32 1.71 2.64 2.55 3.96a80.09 80.09 0 0 0 -3.07 6.74c1.26.45 2.51.9 3.78 1.34-1.54 1.88-3.05 3.77-4.57 5.65.48-7.1-.07-14.21-.95-21.26-.03-1.37-.03-2.74-.02-4.1z" opacity=".05"/><path d="m195.61 41.32c1.36-2.4 4.44-2.72 6.77-1.67 1.32 2.31-1.36 3.27-2.86 4.38-.16-.71-.47-2.12-.63-2.82-.82.03-2.46.08-3.28.11z" fill="#2b2b2b"/><path d="m302.83 46.04c1.12-2.88 2.93-5.4 5.19-7.49-.39 1.28-.78 2.57-1.15 3.85 1.24-.31 2.49-.63 3.73-.95.63.8 1.26 1.6 1.88 2.42-1.14 1.28-2.35 2.51-3.31 3.92.58 1.58 1.36 3.07 2.08 4.59-1.6 1.61-3.2 3.24-4.62 5.01-.35.44-1.04 1.33-1.39 1.77l-1-1.11c1.53-2.31 3.18-4.54 4.73-6.85-2.03.87-4.04 1.77-6.07 2.64 1.32-4.52 4.98-7.6 8.06-10.93-2.65 1.19-5.36 2.27-8.13 3.13z" fill="#a0a0a0"/><path d="m296.21 43.49c.69-1.26 1.38-2.51 2.04-3.78-.27 2.02-.48 4.04-.78 6.05-.19 1.12-.41 2.24-.64 3.35-.78.06-2.34.19-3.12.25-.01-1.37-.03-2.73-.03-4.1-.47.17-1.41.49-1.88.66.33-.93.67-1.85 1.02-2.77.85.09 2.54.25 3.39.34zm-103.67-.18c.97-.71 1.76-1.93 3.07-1.99.82-.03 2.46-.08 3.28-.11.16.7.47 2.11.63 2.82-2.24.94-4.6 2.97-7.11 1.61.03-.58.1-1.74.13-2.33z" fill="#6c6c6c"/><path d="m291.8 45.92c.47-.17 1.41-.49 1.88-.66 0 1.37.02 2.73.03 4.1.78-.06 2.34-.19 3.12-.25-.7 2.24-3.02 3.04-4.85 4.11-.18 1.57-.34 3.15-.5 4.72-.09-3.04-.31-6.09-.63-9.12.29-.98.61-1.94.95-2.9zm-75.56 85.34c.59.03 1.78.1 2.37.13.01 1.12.01 2.23.02 3.35l-2.38.04c-.01-1.18-.01-2.35-.01-3.52zm3.07 27.74c2.1.14 3.66.95 3.33 3.39-1.08.13-2.16.27-3.23.41-.04-1.27-.07-2.54-.1-3.8zm70.13 2.35c1.06.09 2.12.19 3.19.28-.43 1.29-.86 2.57-1.29 3.86-.49 0-1.46.01-1.94.01 0-1.38.02-2.77.04-4.15zm-11.73 9.83c-.87-1.89 1.18-3.56 2.7-4.15.12 1.6.21 3.22.26 4.83-1-.17-1.99-.4-2.96-.68z" fill="#3b3b3b"/><path d="m240.87 46.02 1.21-.51c1.15.77 2.28 1.58 3.36 2.45 1.62 1.78 3.11 3.67 4.58 5.58-.83-.03-2.49-.07-3.32-.09-1.87-.48-3.74-.95-5.62-1.41.48 2.24 1.21 4.42 1.61 6.67-.86.92-1.87 1.7-2.81 2.54.68-1.41 1.3-2.83 1.93-4.26-3.1-.85-6.17-1.79-9.18-2.9 4.13-.84 8.05-2.41 11.46-4.91zm46.3 61.22c.97.18 1.96.36 2.94.54 2.38 6.46 8.84 13.34 16.27 11.97-2.83-1.57-7.56-2.2-7.26-6.38.43-.09 1.29-.28 1.72-.37.48-.03 1.43-.1 1.9-.13-.52.64-1.58 1.91-2.1 2.54 2.41 1.16 4.98 1.89 7.47 2.86 1.25 2.39-2.38 3.29-4.1 3.25-5.99-.62-9.82-5.7-14.35-9.03.01 1.6.05 3.19.12 4.79-1.51-3.15-2.47-6.53-2.61-10.04zm-28.05 20.01c.4.23 1.2.7 1.6.93-.02.57-.04 1.72-.06 2.29l-2.37-.08c.27-1.05.55-2.1.83-3.14zm-40.76 43.06c.98.12 1.97.24 2.96.37.08.99.17 1.98.25 2.98-1.04-.06-2.08-.11-3.11-.17-.04-1.06-.07-2.12-.1-3.18zm26.81 3.45c-1.56-1.32.84-3.55 2.2-2.24 1.32 1.29-.85 3.61-2.2 2.24zm17.37-1.17c.52-.03 1.57-.11 2.09-.14.01 1.06.03 2.12.05 3.19-.59-.02-1.77-.05-2.36-.07.07-1 .14-1.99.22-2.98z" fill="#5e5e5e"/><path d="m245.44 47.96c1.96-.23 4.3-1.04 5.88.66 2.08 1.35 1.84 4.09 2.94 6.05 1.86 2.22 4.11 4.06 6.11 6.15l-.9 2.97c.89 1.1 1.79 2.2 2.72 3.27-.63-.14-1.9-.42-2.54-.56-2.71-1.38-4.82-3.63-6.71-5.97-.34.03-1.01.09-1.35.13l-.12-1.28c-1.88.09-3.75.18-5.61.28.16-.51.5-1.52.67-2.03l4.37-.84c-1.39-1.13-2.77-2.26-4.2-3.34.83.02 2.49.06 3.32.09-1.47-1.91-2.96-3.8-4.58-5.58z" fill="#202020"/><path d="m189.54 52.11c1.7-.7 3.41-1.4 5.12-2.08 2.02 3.5-1.4 6.23-4.57 6.77-.3-1.55-.49-3.11-.55-4.69z" fill="#858585"/><path d="m241.08 52.04c1.88.46 3.75.93 5.62 1.41 1.43 1.08 2.81 2.21 4.2 3.34l-4.37.84c-.17.51-.51 1.52-.67 2.03l-.52 1.44c-1.07 1.38-2.25 2.67-3.46 3.92a76.4 76.4 0 0 0 -2.72 5.43l-.42.08c-.34 1.13-.69 2.26-1.04 3.4v1.04l-.97-1.1c-1.9 5.82-1.64 12-1.59 18.03-.12 5.65 1.07 11.88 5.67 15.63 3.34.78 6.91.73 10.18-.33 2.52-1.2 4.16-3.56 5.91-5.63.53-.09 1.59-.27 2.12-.37-.32 2.32-.82 4.64-2.09 6.64-3.04 5.6-7.05 11.74-13.78 13.09-.16-2.89 2.18-4.42 4.21-5.92l.27-2.41c-2.82-.22-5.96.19-8.39-1.57-2.85-2.08-4.88-5.12-6.15-8.38-3.04-8.28-2.82-17.34-1.08-25.87.7-2.73 2.42-5.25 2.1-8.16l-.08-.85c.16-.41.47-1.22.63-1.63.21.4.64 1.2.85 1.6 1.29-2.28 2.69-4.49 4.37-6.49.94-.84 1.95-1.62 2.81-2.54-.4-2.25-1.13-4.43-1.61-6.67z" fill="#1b1b1b"/><path d="m204.64 56.83c1.09-.13 2.17-.25 3.26-.38-.75 2-1.49 4-2.24 6.01-.52.06-1.58.17-2.11.23-.1-1.29-.21-2.57-.31-3.85.45-.68.92-1.35 1.4-2.01z" fill="#828282"/><path d="m318.39 57.67c.21-.41.64-1.22.85-1.63.33 3.25.75 6.48 1.25 9.71.39 5.73-.32 11.49.39 17.2.54 3.96.23 7.95-.28 11.89l-1.05-.69c.01-12.18-.03-24.36-1.16-36.48z" fill="#656565"/><path d="m305.24 59.16c.35-.44 1.04-1.33 1.39-1.77 1.7.88 3.4 1.77 5.09 2.69.55 1.94 1.1 3.89 1.51 5.87l-.29 1.21a86.02 86.02 0 0 1 -3.66-3.74c-1.3-1.46-2.69-2.84-4.04-4.26z" fill="#e2e2e2"/><path d="m245.34 61.1.52-1.44c1.86-.1 3.73-.19 5.61-.28l.12 1.28c.34-.04 1.01-.1 1.35-.13 1.89 2.34 4 4.59 6.71 5.97-.58-.04-1.75-.12-2.34-.17 2.9 2.83 5.38 6.48 9.11 8.22 4.57-.02 5.73-5.64 7.92-8.71.65 1.33 1.31 2.67 1.92 4.02-2.61 5.45-1.73 11.75-4.12 17.25-1.53 3.6-2.52 7.41-4.17 10.95-1.79 1.85-4.37 2.65-6.52 4-.72-1.53-1.49-3.43-3.46-3.57-3.56 1.86-5.31 6.05-9.11 7.56-2.73.85-6.55 1.24-8.26-1.61-5.65-8.83-3.92-19.67-2.92-29.47v-1.04c.35-1.14.7-2.27 1.04-3.4l.42-.08a76.4 76.4 0 0 1 2.72-5.43c1.21-1.25 2.39-2.54 3.46-3.92m7.18 19.45c-.06 2.66-.06 5.32-.03 7.99 1.03.03 3.11.11 4.15.14.07-2.76.06-5.53-.02-8.3-1.03.04-3.07.12-4.1.17z" fill="#fdfdfd"/><path d="m187.64 63.56c1.33-1.02 2.66-2.12 4.28-2.65.86 2.17-.63 4.01-1.76 5.71-.82-1.04-1.66-2.06-2.52-3.06z" fill="#171717" opacity=".95"/><path d="m196.79 62.78c1.02-.32 2.05-.58 3.09-.79-.1 1.52-.21 3.04-.32 4.56-1.17.12-2.34.23-3.51.35.29-1.34-.13-2.99.74-4.12z" fill="#1f1f1f"/><path d="m292.33 71.02c2.51-3.38 5.31-6.68 8.84-9.03 3.48-.46 5.51 3.36 6.8 6.04 4.36 11.51 3.11 24.54-1.27 35.86-1 2.96-3.56 4.87-5.8 6.85-1.71-.13-3.46-.08-5.11-.55-2.14-1.68-3.27-4.23-4.7-6.47-.25-.39-.75-1.17-.99-1.56-1.27.47-2.51.97-3.75 1.48-2.38-11.44-4.74-22.98-5.02-34.69-.69-.56-2.06-1.66-2.74-2.21 1 .23 2.01.5 3 .8 1.15 2.45 1.19 5.25 1.69 7.88 1.4 8.29 2.15 16.72 4.32 24.87 1.15.11 2.3.22 3.46.34 2.09 2.81 3.77 6.13 6.81 8.05 1.81-.03 3.53-.68 5.21-1.29 3.38-3.23 4.13-8.06 5.2-12.39 1.56-8.01 2.14-16.68-.95-24.41-1-3-3.01-5.49-5.23-7.68-3.12 2.86-5.73 6.45-9.77 8.11z" fill="#9a9a9a"/><path d="m277.24 63.23c.46.55.46.55 0 0z" fill="#c8686e"/><path d="m292.33 71.02c4.04-1.66 6.65-5.25 9.77-8.11 2.22 2.19 4.23 4.68 5.23 7.68.21 3.06.4 6.14.79 9.19-2.31-.6-5.32-2.37-7.18.1-1.76 2.84-1.67 6.68-.47 9.72 1.18 2.94 4.76 1.68 7.18 1.85-.47 5.59-2.74 10.72-4.57 15.94-1.68.61-3.4 1.26-5.21 1.29-3.04-1.92-4.72-5.24-6.81-8.05-1.16-.12-2.31-.23-3.46-.34-2.17-8.15-2.92-16.58-4.32-24.87-.03-2.77.16-5.53.44-8.29 1.52 2.04 2.84 4.22 4.01 6.49.85.01 1.7 0 2.56-.02l.82-1.01c.41-.53.81-1.05 1.22-1.57z" fill="#fcfcfc"/><path d="m309.28 63.42a86.02 86.02 0 0 0 3.66 3.74l.29-1.21c1.21 5.6 1.93 11.31 2.37 17.02-.07 9.75-2.16 19.71-7.41 28.04-1.18 1.66-2.98 2.69-4.54 3.93 2.11.72 4.24 1.39 6.36 2.1.02 1.32.04 2.65.08 3.97-2.21 1.14-4.52 2.54-7.12 2.03-4.22-.75-7.54-3.74-10.97-6.1.19 4.24.98 8.93-1.28 12.78-2.01 3.17-5.95 3.89-9.3 4.78-.41 1.86-.63 5.45-3.44 4.49-2.4-1.04-1.54-3.72-1.28-5.69-1.25-1-2.65-1.77-4-2.6-.3 1.51-.58 3.03-.85 4.55 1.27 1.07 3.8 1.61 3.19 3.79.15 2.86-3.07 3.05-5.12 3.38-.79-2.09-1.01-4.29-.36-6.44-.7-.45-1.42-.86-2.16-1.23-.78 1.08-1.55 2.17-2.32 3.26-.85.02-2.54.07-3.39.1 1.67 1.71 3.18 3.87 5.54 4.64 3.12.57 6.39.65 9.49-.06 3.47-1.22 5.73-4.29 8.28-6.75 1.06.48 2.12.96 3.18 1.43.18 4.64-2.58 8.51-4.26 12.63-.91 1.66-1.44 4.18-3.83 4.21.42-1.25.84-2.5 1.25-3.75 1.24-4.02 3.55-7.62 4.63-11.7-3.19 2.38-6.03 5.51-9.95 6.67-4.11.76-8.5.31-12.18-1.76-3.89-3.1-6.34-7.51-9.44-11.32-.84.03-2.53.09-3.37.11-.5-1.5-.99-3-1.48-4.51l1.28-2c-.08.81-.26 2.45-.35 3.26 4.09-3.04 6.7-7.54 9.01-11.98.82.16 1.65.32 2.48.47 2.39 6.75 8.91 10.61 15.24 13.05 3.84 1.37 9.07 1.85 11.77-1.85 2.22-3.44 1.57-7.83.8-11.62-.07-1.6-.11-3.19-.12-4.79 4.53 3.33 8.36 8.41 14.35 9.03 1.72.04 5.35-.86 4.1-3.25-2.49-.97-5.06-1.7-7.47-2.86.52-.63 1.58-1.9 2.1-2.54-.47.03-1.42.1-1.9.13.72-.17 2.14-.52 2.85-.69 3.75-2.46 5.43-6.84 6.98-10.84 4.08-12.3 3.97-26.14-1.39-38.05m-55.52 66.22c1 .61 2 1.22 3.01 1.83.03-1.45.12-2.89.29-4.32.84-1.44 2.6-1.12 4-1.38 1.44 1.84 2.47 3.88 1.49 6.23h3.3c.24-1.39 2.27-3.16.64-4.34-2.33-2.06-4.24-4.5-6.06-7-2.28 2.95-4.49 5.96-6.67 8.98m5.36-2.39c-.28 1.04-.56 2.09-.83 3.14l2.37.08c.02-.57.04-1.72.06-2.29-.4-.23-1.2-.7-1.6-.93m9.02 6.28c.65-.02 1.94-.06 2.58-.07-.26-1.19-.45-2.49-1.69-3.1-.57.96-.86 2.02-.89 3.17m-10.7-1.41c1.03 1.57 2.19 3.04 3.44 4.44.07-1.53.15-3.05.22-4.58-.91.04-2.75.11-3.66.14m4.84 1.25c0 .61-.01 1.82-.01 2.42.72.14 2.14.42 2.85.56-.09-.77-.28-2.32-.37-3.09-.62.03-1.85.09-2.47.11m15.95.93c-.97.89-.87 3.18.62 3.46 2-.29 1.53-4.62-.62-3.46m-8.33 5.42c.88.14 2.65.4 3.53.54-.18-.75-.53-2.24-.7-2.98-1.64-.32-2.07 1.4-2.83 2.44z" fill="#a8a8a8"/><path d="m320.49 65.75c1.56 2.47 1.33 5.47 1.3 8.26-.3 8.99.38 18.01-.68 26.96-.24 6.8-1.26 13.55-1.14 20.35-.4 2.64-.92 5.27-1.48 7.88-1.36 3.16-2.51 6.4-3.36 9.73-3.64 13.25-10.58 25.35-18.91 36.19-2.62 3.69-5.35 7.33-8.84 10.25-4.55 3.79-8.04 8.95-13.5 11.55-4.48 2.17-9.11 4.08-13.12 7.08-5.09.02-10.18.09-15.26-.09-3.8-2.58-8.3-3.81-12.19-6.23-5.52-3.34-10.6-7.37-15.48-11.56-3.34-2.79-4.83-6.97-6.94-10.62-.49-.77-.98-1.53-1.51-2.25-3.56-7.44-5.72-15.4-8.59-23.1-2.45-6.71-3.41-13.83-5.43-20.65-3.69.26-6.63 3.75-10.49 3.02-3.46-.97-5.91-4.56-5.49-8.14.58-6.91 5.62-12.51 6.19-19.44 1.18-5.68-4.34-9.21-6.87-13.57.33-1.87.6-3.76.99-5.63 1.39 2.8 2.1 6 4.2 8.4 2 2.63 4.58 5.34 4.43 8.88-.38 7.77-5.72 14.26-6.32 21.97-.19 2.09 1.36 3.86 3 4.93 5.38.95 8.31-4.55 10.89-8.25.42 1.2.82 2.41 1.21 3.62 1.67 14.02 7.23 27.13 11.56 40.45 3.71 8.25 7.76 16.74 14.66 22.85 7.09 6.85 16.39 11.26 26.09 12.85 4.86.56 10.08.76 14.58-1.49 4.36-2.2 9.04-4.24 12.21-8.1l.52-.56c5.22-3.04 9.76-7.36 12.64-12.71 1.28-1.96 2.78-3.78 4.44-5.43 1.76-1.67 3.51-3.39 4.89-5.39 5.83-8.95 11.23-18.37 14.01-28.75 2.19-8.3 4.3-16.62 5.96-25.04.44-1.97.33-4 .11-5.99.12-.47.36-1.43.49-1.9.03-1.57.08-3.12.13-4.68.14-2.42.16-4.83.16-7.25l1.05.69c.51-3.94.82-7.93.28-11.89-.71-5.71 0-11.47-.39-17.2z" fill="#1f1616"/><path d="m252.52 80.55c1.03-.05 3.07-.13 4.1-.17.08 2.77.09 5.54.02 8.3-1.04-.03-3.12-.11-4.15-.14-.03-2.67-.03-5.33.03-7.99zm36.82 24.75c.44-.39 1.31-1.18 1.75-1.58 1.43 2.24 2.56 4.79 4.7 6.47 1.65.47 3.4.42 5.11.55.7.39 2.09 1.18 2.79 1.57-.71.17-2.13.52-2.85.69-.43.09-1.29.28-1.72.37-.3 4.18 4.43 4.81 7.26 6.38-7.43 1.37-13.89-5.51-16.27-11.97-.27-.83-.52-1.65-.77-2.48z" fill="#050505"/><path d="m301.63 82.96c.32-.65.98-1.96 1.3-2.61 3.8.01 2.64 4.29 2.67 6.77.09 1.8-.82 2.66-2.72 2.58-.31-.66-.94-1.97-1.26-2.63 0-1.37 0-2.74.01-4.11z" fill="#0f0f0f"/><path d="m179.69 85.74c.36-.79.76-1.57 1.13-2.35l-.4 2.58c1.83-.96 3.52-2.41 5.62-2.72 2.88.09 5.57 1.33 8.35 1.99 1.39.05 2.57-1.16 3.84-1.63.65.31 1.94.92 2.59 1.22-.58 3.47-3.66 6.52-1.86 10.17a92.52 92.52 0 0 0 -2.45-1.99c-1.35-4.44-5.11-7.31-9.44-8.57l-3.12 1.38-1.78 2.18c1.45 4.68 5.56 7.83 7.3 12.31 1.28 9.32-5.52 17.15-6.34 26.21 1.58 1.26 3.8 3 5.77 1.39 5.02-3.33 5.9-9.7 8.28-14.78 1.6 3.94 0 8.11-.08 12.16-.39-1.21-.79-2.42-1.21-3.62-2.58 3.7-5.51 9.2-10.89 8.25-1.64-1.07-3.19-2.84-3-4.93.6-7.71 5.94-14.2 6.32-21.97.15-3.54-2.43-6.25-4.43-8.88-2.1-2.4-2.81-5.6-4.2-8.4z" fill="#3a3a3a"/><path d="m178.7 91.37c2.53 4.36 8.05 7.89 6.87 13.57-.57 6.93-5.61 12.53-6.19 19.44-.42 3.58 2.03 7.17 5.49 8.14 3.86.73 6.8-2.76 10.49-3.02 2.02 6.82 2.98 13.94 5.43 20.65 2.87 7.7 5.03 15.66 8.59 23.1-.3.42-.89 1.28-1.18 1.71-4.15-6.95-5.63-14.98-8.74-22.37-2.66-6.55-3.94-13.53-5.91-20.29-3.9 1.37-8.82 3.74-12.5.56-3.28-2.07-3.32-6.3-3.1-9.74.18-7.47 6.04-13.6 5.55-21.15-1.25-2.93-3.53-5.23-5.52-7.66.28-.97.52-1.95.72-2.94z" opacity=".44"/><path d="m261.41 108.94c.99-3.1 3.99-4.46 6.68-5.8 3.58 1.68 7.04 5.56 4.81 9.68-2.19-1.94-4.02-7.52-7.55-4.46-1.14 1.68-1.56 3.67-1.58 5.68-.66-1.76-1.52-3.43-2.36-5.1z" fill="#2c2c2c"/><path d="m263.77 114.04c.02-2.01.44-4 1.58-5.68-.04 3.58-.37 7.54 1.74 10.66 2.55 3.83 7 5.61 10.97 7.58-.51.14-1.51.4-2.01.54-5.9-2.17-11.05-6.71-12.28-13.1z" fill="#6f6f6f"/><path d="m318.77 107.98c.22 1.99.33 4.02-.11 5.99-1.66 8.42-3.77 16.74-5.96 25.04-2.78 10.38-8.18 19.8-14.01 28.75-1.38 2-3.13 3.72-4.89 5.39 1.79-4.46 5.37-7.9 7.09-12.4-1.29-1.2-5.04-2.52-2.67-4.62 1.26-1.91 3.63.55 5.27.83 4.93-7.5 7.22-16.33 9.49-24.92 2.35-7.92 3.66-16.09 5.79-24.06zm-49.1 76.76c.54-1.37 1.49-4.41 3.5-2.83 1.39 2.48.3 6.19-2.41 7.32.63-1.68 1.21-3.37 1.8-5.06-.72.14-2.17.43-2.89.57z" fill="#717171"/><path d="m257.43 115.73c1.5-2.16 2.85-4.42 3.98-6.79.84 1.67 1.7 3.34 2.36 5.1 1.23 6.39 6.38 10.93 12.28 13.1 2.85.58 5.75.92 8.61 1.43.49.32 1.46.96 1.94 1.29-3.12.41-6.25.73-9.39.89-6.33-2.44-12.85-6.3-15.24-13.05-.83-.15-1.66-.31-2.48-.47-.51-.38-1.55-1.13-2.06-1.5z" fill="#101010"/><path d="m197.18 113.13c.23-.38.7-1.14.94-1.52 2.82 3.66-.02 8.23.44 12.35.61 8.53 3.06 16.82 5.69 24.92 5.06 12.38 7.9 26.38 17.62 36.2 8.38 9.26 20.61 15.11 33.13 15.34 8.1.34 14.1-5.78 21.2-8.57-3.17 3.86-7.85 5.9-12.21 8.1-4.5 2.25-9.72 2.05-14.58 1.49-9.7-1.59-19-6-26.09-12.85-6.9-6.11-10.95-14.6-14.66-22.85-4.33-13.32-9.89-26.43-11.56-40.45.08-4.05 1.68-8.22.08-12.16z" fill="#5f5f5f"/><path d="m250.83 125.95c2.15-3.44 4.34-6.85 6.6-10.22.51.37 1.55 1.12 2.06 1.5-2.31 4.44-4.92 8.94-9.01 11.98.09-.81.27-2.45.35-3.26z" fill="#313131"/><path d="m206.06 118.32c.95-1.82 3.03-1.23 4.69-1.35.32.5.96 1.49 1.28 1.99-.02.64-.08 1.91-.11 2.55-.36.62-1.07 1.88-1.43 2.51-1.6-.08-3.54.41-4.42-1.34-.21-1.44-.2-2.92-.01-4.36m1.43-.05c.03 1.35.06 2.71.11 4.07.53.07 1.58.22 2.1.3.28-1.26.86-2.52.55-3.83-.92-.21-1.84-.39-2.76-.54z" fill="#c0b9b9"/><path d="m207.49 118.27c.92.15 1.84.33 2.76.54.31 1.31-.27 2.57-.55 3.83-.52-.08-1.57-.23-2.1-.3-.05-1.36-.08-2.72-.11-4.07zm41.96 27.67c.14-4.51-.38-9.25 1.58-13.48.52 3.14.52 6.32.33 9.48.34-2.08.72-4.16 1.11-6.23 2.57.04 3.76 1.93 4.15 4.22-.82-.51-2.44-1.55-3.25-2.06-.97 3.03-1.11 6.23.04 9.24l3.06-3.21c-.26 1.45-.57 2.9-.82 4.35-1.51.42-3.02.83-4.53 1.25.84 4.43 1.35 9.39 4.59 12.82 2.62 2.77 6.82 2.89 10.31 2.08 3.3-1.17 4.7-4.81 7.66-6.48 1.56-.93 3.12-1.85 4.56-2.96-1.23-.8-2.51-1.5-3.65-2.41-.23-1.36-.21-2.74-.21-4.1.37-.17 1.11-.5 1.48-.66-.05 1.68-.08 3.37-.1 5.05 2.82-.55 3.43-3.14 3.93-5.57.54 1.07 1.09 2.13 1.65 3.19-.41 1.25-.83 2.5-1.25 3.75-.83 1.32-1.71 2.6-2.61 3.88-2.75.74-5.01 2.42-6.74 4.65-4.29 5.31-13.75 4.69-17.39-1.05-2.88-4.67-4.09-10.29-3.9-15.75zm-23.74 7.77c.52-.11 1.57-.35 2.1-.47.27 1.15.29 2.28.06 3.39-.62.04-1.85.13-2.47.17.1-1.03.2-2.06.31-3.09z" fill="#4f4f4f"/><path d="m315.13 138.93c.85-3.33 2-6.57 3.36-9.73-.02 10.14-4.05 19.82-8.63 28.7-2.66 5.37-6.41 10.08-9.34 15.28.47.45 1.42 1.34 1.89 1.79l-.54.29c-1.88-.15-3.77-.23-5.65-.14 8.33-10.84 15.27-22.94 18.91-36.19z" fill="#030000" opacity=".44"/><path d="m229.93 134.01c1.74-.94 3.59-1.28 5.26.03-.26 1.71.28 3.86-1.49 4.9-1.2.05-2.4.06-3.6.01-.06-1.65-.11-3.3-.17-4.94m2.37.38c-1.68-.02-1.89 3.77-.3 3.44 2.45.68 2.65-3.9.3-3.44z" fill="#c2b9b9"/><path d="m251.03 132.46c.84-.02 2.53-.08 3.37-.11 3.1 3.81 5.55 8.22 9.44 11.32-.61 3.78 0 9.7-4.91 10.63-2.99-.36-3.13-3.7-3.28-6.05.25-1.45.56-2.9.82-4.35.1-1.32.15-2.65.15-3.97-.39-2.29-1.58-4.18-4.15-4.22-.39 2.07-.77 4.15-1.11 6.23.19-3.16.19-6.34-.33-9.48m6.46 11.87c-.39 2.76-1.48 5.8.29 8.33 3.57.62 5.54-3.83 4.77-6.81-.72-2.29-3.29-1.32-5.06-1.52z" fill="#121212"/><path d="m262.28 133.37c.62-.02 1.85-.08 2.47-.11.09.77.28 2.32.37 3.09-.71-.14-2.13-.42-2.85-.56 0-.6.01-1.81.01-2.42z" fill="#8a8a8a"/><path d="m232.3 134.39c2.35-.46 2.15 4.12-.3 3.44-1.59.33-1.38-3.46.3-3.44z" fill="#8b8b8b"/><path d="m278.23 134.3c2.15-1.16 2.62 3.17.62 3.46-1.49-.28-1.59-2.57-.62-3.46z" fill="#878787"/><path d="m269.9 139.72c.76-1.04 1.19-2.76 2.83-2.44.17.74.52 2.23.7 2.98-.88-.14-2.65-.4-3.53-.54z" fill="gray"/><path d="m253.41 147.11c-1.15-3.01-1.01-6.21-.04-9.24.81.51 2.43 1.55 3.25 2.06 0 1.32-.05 2.65-.15 3.97z" fill="#d3d3d3"/><path d="m257.49 144.33c1.77.2 4.34-.77 5.06 1.52.77 2.98-1.2 7.43-4.77 6.81-1.77-2.53-.68-5.57-.29-8.33m1.85 2.04c-1.01.81-1.14 3.19.44 3.39 2.02-.2 1.74-4.62-.44-3.39z" fill="#6e6e6e"/><path d="m293.35 145.01c3.5-1.24 5.28 4.42 2.31 5.91-1.24.12-2.49.18-3.73.2.27-2.07-.79-4.84 1.42-6.11m-.38 1.76c-.48 1.59-.18 3.92 2.01 3.14 1.75-1.45.24-4.31-2.01-3.14z" fill="#beb7b8"/><path d="m259.34 146.37c2.18-1.23 2.46 3.19.44 3.39-1.58-.2-1.45-2.58-.44-3.39z" fill="#a5a5a5"/><path d="m292.97 146.77c2.25-1.17 3.76 1.69 2.01 3.14-2.19.78-2.49-1.55-2.01-3.14z" fill="#7b7b7b"/><path d="m265.6 148.51c2.02-.07 4.03-.06 6.05.04-.14 2.9-1.08 8.09-5.15 6.77-1.78-1.72-.63-4.6-.9-6.81z" fill="#969696"/><path d="m275.86 147.79 3.83-.52c-.5 2.43-1.11 5.02-3.93 5.57.02-1.68.05-3.37.1-5.05z" fill="#7c7c7c"/><path d="m225.01 151.89c1.21.05 2.42.1 3.64.14.48 1.08.98 2.16 1.49 3.23-.84 1.6-1.73 3.3-3.52 3.99-.65-.46-1.96-1.37-2.62-1.83-.08-1.91-.1-3.88 1.01-5.53m.7 1.82c-.11 1.03-.21 2.06-.31 3.09.62-.04 1.85-.13 2.47-.17.23-1.11.21-2.24-.06-3.39-.53.12-1.58.36-2.1.47z" fill="#bbb1b1"/><path d="m232.54 162.48c1.08-.09 2.16-.18 3.24-.26l-.36 4.23c-1.01.08-2.02.17-3.03.26z" fill="#434343"/><path d="m224.39 171.34c1.06.05 2.13.11 3.2.17-.09 1.27-.17 2.55-.26 3.83-.9.01-1.79.03-2.68.04-.1-1.35-.18-2.7-.26-4.04zm35.96 9.07c1.04.06 2.09.11 3.14.17-.01 1.27-.01 2.55-.01 3.82l-2.98.12c-.06-1.37-.11-2.74-.15-4.11z" fill="#484848"/><path d="m284.28 176.72c-.93-2.45 1.05-4.12 3.48-3.48.27 2-1.08 5.75-3.48 3.48z" fill="#797979"/><path d="m197.82 177.92c4.01-2.2 8.59-2.43 13.07-2.42 2.11 3.65 3.6 7.83 6.94 10.62 4.88 4.19 9.96 8.22 15.48 11.56 3.89 2.42 8.39 3.65 12.19 6.23-4.47.17-8.29-2.33-12.21-4.08-7.63-4.52-14.43-10.38-20.69-16.63-.91-2.12-.91-5.5-3.65-6.18-3.7-.88-7.52.04-11.13.9z" fill="#6e0716" opacity=".94"/><path d="m269.24 175.98c1.89-.72 2.91 2.57.85 2.92-1.83.55-2.63-2.39-.85-2.92z" fill="#838383"/><path d="m276.72 191.29c3.83-4.57 7.98-8.98 12.64-12.71-2.88 5.35-7.42 9.67-12.64 12.71z" fill="#696868"/><path d="m278.25 180.31c1.43-1.2 3.23 1.26 1.66 2.26-1.43 1.18-3.23-1.26-1.66-2.26z" fill="#747474"/><path d="m249.3 183.18c1.38.28 3.37-.24 3.81 1.58 1.06 2.67 3.03 4.69 5.76 5.65.8-.02 2.41-.04 3.21-.06 2.77-1.49 6.06-2.63 7.59-5.61.72-.14 2.17-.43 2.89-.57-.59 1.69-1.17 3.38-1.8 5.06-.86 1.18-2 2.13-3.19 2.97-4.61 1.45-9.52 1.57-14.1-.02-1.74-1.2-2.71-3.12-3.91-4.78-.1-1.41-.18-2.81-.26-4.22z" fill="#1e1e1e"/><path d="m242.01 185.07c2.48-3.08 4.23 4.88.83 4.71-1.41-.99-2.28-3.41-.83-4.71z" fill="#5c5c5c"/><path d="m253.47 192.18c4.58 1.59 9.49 1.47 14.1.02-3.6 3.69-10.5 3.66-14.1-.02z" fill="#6a6a6a"/><path d="m196.28 215.41c4.36-.66 9.29-.37 12.89 2.46 4.48 3.97 4.48 10.7 2.83 16.02-1.77 5.67-5.2 11.5-10.95 13.8-5.48 1.5-11.34-.03-16.38-2.33-5.04-2.7-10.54-6.22-12.1-12.1-1.14-3.96 1.2-8.08 4.39-10.33 5.69-4.06 12.45-6.45 19.32-7.52zm111.08 0c7.94-1.07 15.93 1.73 22.94 5.25 3.93 2.46 8.77 6.08 7.99 11.35-.7 5.34-5.3 8.99-9.46 11.84-5.77 3.33-12.88 5.68-19.5 3.72-5.95-2.61-9.27-8.84-10.96-14.82-.89-4.24-1.23-9.19 1.41-12.9 1.73-2.53 4.66-3.86 7.58-4.44zm-151.99 18.02c3.55-.71 7.73.3 9.87 3.42 4.71 6.3 5.1 14.79 3.7 22.26-.62 2.68-1.67 6.39-4.93 6.7-6.72.55-13.41-1.54-19.43-4.38-3.87-1.86-8.02-4.86-8.66-9.43-.48-4.53 2.72-8.35 5.95-11.11 3.96-3.31 8.41-6.27 13.5-7.46zm195.91-.04c6.54-.83 12.3 3.33 17.11 7.22 3.25 2.93 7.18 6.63 6.46 11.46-.43 4.62-4.89 7.19-8.52 9.23-5.99 2.92-12.67 4.86-19.38 4.6-3.08.01-4.4-3.38-5-5.89-1.43-6.47-1.34-13.55 1.36-19.69 1.51-3.27 4.24-6.36 7.97-6.93zm-228.98 25c4.95-1.71 9.88 1.85 12.56 5.77 3.77 5.88 6.94 12.67 6.44 19.82.16 2.59-2.71 3.23-4.69 3.59-7.56 1.03-15.64.81-22.64-2.54-4.09-1.98-6.17-7.05-4.51-11.32 2.28-6.32 6.48-12.58 12.84-15.32zm260.93-.07c2.71-.74 5.78-.28 7.98 1.53 5.18 3.98 9.25 9.72 10.56 16.17.83 4.21-2.35 8.07-6.08 9.56-6.22 2.62-13.15 2.8-19.78 2.27-2.37-.32-5.37-.71-6.54-3.11-.55-5.18 1.16-10.32 3.24-14.99 2.24-4.73 5.44-9.62 10.62-11.43zm-281.01 30.91c3.68-2.07 8.18-.84 11.73.87 6.49 3.61 12.48 8.8 15.28 15.84-3.57 2.53-8.04 3.04-12.25 3.69-6.31.65-13.05.98-18.95-1.77-2.81-1.26-4.36-4.6-3.62-7.58 1.02-4.47 3.54-8.98 7.81-11.05zm287.12 6.01c4.31-3.8 9.71-7.32 15.69-7.07 6.7.67 10.93 7.55 11.35 13.79.03 4.27-4.39 6.66-8.05 7.42-8.81 1.66-17.98.28-26.38-2.66.48-4.78 4.19-8.26 7.39-11.48zm-235.51 51.57c5.33 2.98 9.73 7.34 15.04 10.37 25.57 16.02 56.17 22.36 86.07 22.18 31.31.44 63.62-6.03 90.09-23.4 4.55-2.81 8.46-6.55 13.17-9.11-.39 4.95-3.98 8.74-6.72 12.62-15.13 18.32-36.6 30.86-59.47 36.82-24.86 6.42-51.46 6.08-76.1-1.14-21.91-6.68-42.56-19.15-56.69-37.41-2.38-3.29-5.26-6.66-5.39-10.93z" fill="#dd2e44"/></svg>