<svg xmlns="http://www.w3.org/2000/svg" width="564" height="456" viewBox="0 0 423 342"><g fill="#fff"><path d="M265 15.07c5.33-.72 10.81.08 16.04-1.44 5.05-.07 11.41-1.06 15.03 3.34 1.96 2.35 3.5 5.04 5.75 7.15 4.26 4.26 6.96 9.72 9.44 15.14.36 3.93-.98 7.8-.76 11.75.12 7.86-4.36 14.53-7.13 21.57-6.91-1.79-14.07-.97-21.12-1.32-6.09-.71-12.4-2.62-18.4-.35 3.08 1.99 6.84 1.36 10.26 2.23 5.36 1.01 10.86 1.16 16.18 2.43-4.87.84-9.45-1.56-14.27-1.01.58 2.02 2.94 1.89 4.56 2.42 5.97 1.52 12.15 1.95 18.09 3.59-.44 2.01-.97 4.01-1.42 6.01-4.72.58-8.94-1.83-13.45-2.65-6.58-1.43-13.27-2.22-19.91-3.28-10.31-1.19-20.46-3.7-30.85-4.04-5.73.14-11.46-.12-17.1-1.09-8.86-.64-15.13 6.74-22.72 9.82-11.72 2.13-23.25 5.46-35.19 6.16-12.56.18-25.18.33-37.7-.6-4.35-.67-8.75.01-13.12-.21 2.31-3.04 6.31-3.39 9.58-4.82 2.68-1.24 5.64-1.64 8.36-2.75 4.48-6.42 13.13-5.15 19.87-6.66 13.99.22 28.26-1.52 41.97 2.05 3.01.73 6.03 1.45 9.11 1.79 4.11.33 7.57-2.31 11.19-3.8 4.9-1.85 8.98-5.26 13.72-7.46 4.5-2.43 9.92-2.99 13.87-6.44-2.1.02-4.29-.23-6.28.63-7.27 2.6-14.51 5.32-21.49 8.64-3.85 1.6-7.73 3.89-12.02 3.8-5.23-.62-10.45-1.34-15.67-1.99-4.34-.45-8.73-.05-13.03-.91-9.98-.81-20.01-.52-30-.06-1.58-2.72-3.73-5.01-5.66-7.47-.6-.72-.49-2.27.55-2.56 5.2-2.55 9.84-6.64 15.79-7.37 7.85-1.79 15.87-.03 23.8-.59 1.74.12 3.17-.9 4.54-1.82-2.86-1.32-6.17-1.91-8.24-4.5a49.76 49.76 0 0 1-6.27 1.39c3.98-3.05 8.67-5.09 12.25-8.66 5.65-4.26 10.09-9.87 15.66-14.2 4.12-3.5 9.13-5.69 14.03-7.86 6.74-1.9 13.82-1.16 20.73-1.81 5.96-.82 11.99-.6 17.97-1.27 7.78-1 15.66-.08 23.46-.92z"/><path d="M201.2 85.78c5.49-1.72 10.67-4.26 16.17-5.94 6.56-.67 13.12.69 19.7.54 9.6.94 19.04 3.15 28.67 3.99 3.48.13 6.71 1.57 10.01 2.53 5.88 1.97 12.08 2.69 17.96 4.66-.31 3.82-1.22 7.58-1.18 11.43.13 4.41-1.34 8.64-1.81 12.99.41 12.82-2.93 25.31-4.23 38-.03 14.98-.77 30.05 1.16 44.93 1.1 8.44.37 17.71 5.19 25.16 3.98 5.08 8.63 11.28 15.9 10.8 1.18-3.7-2.9-3.95-5.02-5.65-1.59-1.51-2.64-3.45-3.67-5.35 8.38-.71 16.81-.73 25.21-.42-1.7 2.51-3.55 4.93-5.73 7.04-7.95 7.85-14.65 16.84-21.1 25.92-4.82 5.84-9.55 11.77-14.81 17.22-3.04 3.23-5.57 7.11-9.38 9.5-4.83 1.74-9.95 2.65-15.09 2.49-6.05.5-12.09 1.06-18.12 1.72-7.32.45-14.7-.25-21.97.87-4.7.37-9.45.12-14.11.96-5.95.89-11.98.27-17.96.56-9.46 1.02-19.11.47-28.44-1.24-2.57-9.97-5.12-20.46-3.92-30.73 5.44-3.07 10.57-6.7 15.24-10.86 4.44-4.85 6.67-11.19 8.92-17.26 1.57-6.12 1.77-12.52 3.51-18.61.69-3.16 3.87-4.72 6.11-6.7 5.73-5.17 13.47-6.89 20.08-10.59 5.61-2.56 11.06-6.61 17.52-6.21 8.3-.14 16.8-2.9 22.74-8.88 8.26-9.53 10.74-22.66 10.64-34.92 6-2.5 9.26-8.34 13.46-12.92 5.58-6.85 5.49-16.46 3.57-24.65-1.43-5-.71-10.58-3.46-15.19-2.8-3.34-7.34-6.66-11.87-4.65-6.21 2.31-12.52 5.7-16.38 11.27-.2 1.13-.31 2.27-.34 3.42 3.22-1.61 4.37-5.46 7.63-7.03 4.55-2.53 9.34-6.83 14.92-5.22 4.4 1.76 4.74 7.11 5.01 11.16-1.41-.6-2.81-1.23-4.23-1.8 1.97 5.68 5.76 11.23 4.72 17.51-1.76 6.11-5.79 11.17-8.78 16.69.9.08 2.68.23 3.58.31-1.83 2.94-4.21 5.49-7.24 7.22-1.29-.68-2.58-1.37-3.87-2.05.12 4.83.88 9.76-.33 14.51-1.4 6.68-2.67 13.56-5.8 19.69-3.83 7.4-12.58 10.05-20.23 11.33-5.75.33-11.3 2.13-17.04 2.37 2.1-4.67 5.37-8.73 7.15-13.56 1.61-4.59 4.63-8.54 5.94-13.24-3.46 3.37-5.16 8.03-7.75 12.02-2.89 5.91-7.93 10.42-10.86 16.28-3.07.84-6.19 1.56-9.4 1.39 1.69-3.01 4.53-5.39 5.26-8.88-3.86 2.91-7.77 5.74-11.74 8.49-6.46 5.94-15.75 5.55-23.88 6.77-5 1.05-10.63-.42-13.9-4.5-2.14-10.04 4.8-18.98 4.01-29 6.62-2.39 13.82-2.14 20.51-4.35 5.15-1.31 9.42-4.52 13.87-7.24 2.06-1.42 4.13.63 5.89 1.57-.15-1.39-.29-2.77-.44-4.15 1.84-1.49 3.55-3.12 5.18-4.82.51-.01 1.51-.04 2.02-.05 2.11 3.49 2.78 7.84 1.54 11.75-1.81 3.8-4.37 7.21-5.89 11.16 5.52-1.41 6.76-7.42 7.55-12.24 1.44-4.79.3-9.77-.49-14.56-6.98-.45-14.42 1.61-21-1.6-3.79-1.27-6.55-4.25-9.68-6.57 2.73 8.38 12.34 10.6 19.95 12.27l.08 2.35c-2.49 0-4.68-1.07-6.76-2.32-5.01-2.01-10.15 2.47-15.13.11-3.45-1.65-7.2-3.11-9.86-5.97 3.86-1.75 9-5.3 7.17-10.21-.2-2.93-2.29-5.04-4.66-6.5.72 2.64 2.76 5.03 2.27 7.89.13 2.39-1.83 4-3.16 5.72-2.59-4.65-7.92-6.25-12.89-4.82 1.41 1.65 3.6 1.52 5.53 2 1.34 1.08 1.93 2.77 2.78 4.21-1.9.44-3.78.93-5.65 1.45-2.72-2.49-6.09-3.96-9.45-5.35-3.91-1.56-3.72-6.73-3.14-10.21 3.17-3.26 6.87-5.98 9.79-9.51 5.44-4.82 9.38-11.05 12.21-17.7 11.86-.85 23.8-7.34 35.69-3.23 1.87.61 3.59-.73 5.3-1.27-1.81-1.2-3.62-2.39-5.47-3.5m52.42 13.79c-2.17 3.45-4.88 7.04-4.33 11.36 1.41-1.63 2.79-3.29 4.14-4.98 2.95 2.19 6.31 5.1 6.18 9.1.23 3.24-1.96 5.92-2.42 9.04 4.21-2.56 7.27-7.87 5.6-12.8-.58-3-3.56-4.56-5.07-7.02-.28-1.55-.42-3.15-.14-4.71 2.82-3.38 7.07-5.61 11.56-5.19-1.01-1.53-2.03-3.54-4.21-2.89-4.71.86-8.4 4.48-11.31 8.09m-50.49-.73c-2.16-.95-4.5-1.91-6.86-1.06-5.51 1.59-11.28 2.24-16.99 1.56-2.23-.85-4.56-1.1-6.89-.49 1.71 1.97 4.45 2.01 6.76 2.77-.48.52-1.44 1.55-1.92 2.06 6.77.31 13.27-1.62 19.79-3.11 4.26-1.21 7.91 2.02 11.83 3.11-1.71-1.65-3.7-2.97-5.75-4.16.85-1.3 1.76-2.57 2.52-3.93-1.07.88-1.84 2.03-2.49 3.25m-29.29 7.66c1.02 1.94 2.35 4.62 5.04 3.91 7.84-.55 16.12-.22 23.35-3.8-6.95-1.5-13.82 1.94-20.77.43-2.49-.65-5.07-.91-7.62-.54m56.76 13.09c-5.4 5.01-12.82 10.22-12.32 18.5 3.8-2.79 6.4-6.8 9.74-10.07 2.39-2.35 4.17-5.2 5.91-8.04 1.39-2.46 3.12-5 2.59-7.98-2.83 1.82-3.28 5.57-5.92 7.59m-18.24 36.54c-.8 2.62-2.58 4.79-3.54 7.34 3.79-.14 6.1-4.14 6.49-7.56.24-4.08.4-8.2-.21-12.25-1.81 3.95-1.28 8.42-2.74 12.47m-43.46 8.89c7.44-.16 14.69-3.6 19.3-9.48-5.95 4.12-13.1 5.85-19.3 9.48m96.16 16.56c-4.4 12.04-8.34 24.27-13.63 35.97-1.82 4.05-2.81 8.4-4.41 12.54-1.2 3.47-2.91 6.86-2.87 10.62 1.05-.1 2.1-.17 3.16-.2 1.63-7.12 4.59-13.85 7.95-20.3 2.98-7.4 5.91-14.88 7.61-22.7 1.25-5.62 3.63-10.92 4.72-16.58.57-3.03 2.11-5.86 1.88-9.01-2.57 2.62-3.18 6.35-4.41 9.66m-83.52 37.65c.23 15.56-1.87 31.19-6.82 45.97-.62 2.02-.54 4.17-.12 6.23 1.23-1.15 2.43-2.42 2.85-4.1 1.42-4.92 3.21-9.72 4.59-14.65 2.61-10.95 1.58-22.27 1.41-33.4z"/><path d="M175.28 151.65c1.83-2.49 5.15-2.45 7.88-3.14 1.16.92 1.58 2.11 1.25 3.56-2.35 1.34-4.98 2.06-7.54 2.9-.4-.83-1.19-2.49-1.59-3.32zm-6.02.05c1.49-.21 2.99-.37 4.5-.51.3 1.65.54 3.31.73 4.98-.97.1-2.93.29-3.9.39-.63-1.57-1.08-3.2-1.33-4.86zm-11.15 1.58c.6.03 1.81.1 2.41.13 1.3 1.99.61 3.96-.57 5.82-.89-1.89-1.51-3.89-1.84-5.95zm4.18-.69c1.98-.05 3.96-.11 5.94-.15.03 1.64.08 3.29.13 4.94-1.9.11-3.8.19-5.71.23-.13-1.68-.25-3.35-.36-5.02zm16.44 45c2.13-1.26 4.63-1.33 7.03-1.57 0 3.04-.94 5.9-2.88 8.26-1.47-2.18-2.82-4.43-4.15-6.69zm-21 31.21c5.69 1.51 11.24-1.59 16.92-1.74-.15 3.36-1.15 6.68-3.14 9.42-3.14 4.38-6.53 8.86-11.38 11.46-2.54 1.35-5.11 2.62-7.66 3.96-2.35-7.07-3.98-14.45-4.28-21.9 3.08-.89 6.3-1.97 9.54-1.2zM311 246.92c3.19-5.33 7.56-9.75 12.16-13.87 1.24 1.94 2.3 4.19 4.41 5.35 6.87 4.03 14.91 5.15 22.64 6.47 7.46 1.37 14.84 3.3 22.43 3.91 6.91.59 13.39 3.59 20.36 3.74 10.13.94 19.83 4.45 30 5.22V342H192.47c7.67-8.09 17.59-13.45 26.64-19.8 7.37-5.7 16.11-9.22 23.89-14.29 8.28-5.37 15.92-11.73 24.52-16.61 3.44-2.04 7.93-1.99 10.91-4.84 5.48-5.87 11.91-10.87 16.45-17.58 5.84-6.98 10.54-14.78 16.12-21.96m22.6 6.1c-1.79 11.13-10.85 18.8-19.63 24.82-14.15 9.29-30.19 15.08-44.89 23.39-11.55 5.04-22.44 11.35-33.47 17.39-5.12 2.43-9.76 5.89-15.24 7.49-3.39.61-5.13 3.9-7.21 6.3 1.42.04 2.87.26 4.27-.11 5.34-2.46 10.39-5.52 15.56-8.33 9.83-5.01 19.87-9.59 29.91-14.18 9.65-3.44 18.24-9.1 27.28-13.82 8.06-3.02 15.27-7.82 22.76-12 8.67-6.14 18.88-11.05 24.57-20.44 2.28-3.99.32-8.96-3.91-10.51zm-220.35-.24c11.67-1.39 22.97-5.71 34.85-5.27 2.07 8.38 3.57 16.91 3.96 25.55 1.18 14.77 10.45 26.82 17.35 39.37 5.36 9.95 12.84 18.74 16.48 29.57H20.14c2.96-5.08 3.62-11.1 6.61-16.16 5.64-15.3 12.85-29.98 20.69-44.26 1.31-4.29 4.38-7.63 7.14-11.03 1.48-1.82 3.09-3.61 5.13-4.82 1.75-.39 3.62 0 5.32-.66 6.88-2.54 14.06-4.11 21.26-5.45 8.98-2.29 17.87-4.98 26.96-6.84z"/><path d="M220.98 293.05c7.4-1.16 14.95.1 22.33-1.23 3.61-.39 7.26-.5 10.89-.27-6.84 6.23-14.75 11.22-22.75 15.82-4.29 3.05-8.34 6.45-12.86 9.18-8.18 4.91-15.02 11.68-21.6 18.5-1.57 1.42-3.4 2.52-5.12 3.75-1.35-2.81-2.62-5.69-4.44-8.24-4.84-6.58-8.53-13.93-13.68-20.29-3.39-5.05-7.69-9.65-9.67-15.51 12.82-.12 25.66.23 38.46-.59 6.1-1.03 12.33-.14 18.44-1.12z"/></g><path fill="#040404" d="M262.2 10.91c9.9-.57 19.8-2.06 29.73-1.06 3.31 1.53 5.66 4.49 8.49 6.72 4.53 3.59 7.43 8.66 10.91 13.17 2.24 2.97 4.38 6.34 4.39 10.2.13 6.31.24 12.77-1.73 18.84-1.53 4.56-2.52 9.28-4.17 13.79-.84 3.02-4.17 4-5.96 6.28-2.95 3.77-3.72 8.68-6.15 12.74-1.67 2.46-.97 5.53-1.16 8.32.12 5.91-2.5 11.4-2.88 17.25-.17 14.38-4.42 28.42-4.1 42.83.17 9.27-.59 18.56.09 27.81 1.54 8.87 1.31 18.07 4.02 26.71 1.02 2.61 2.72 6.5 6.2 5.68 6.75-.86 13.59-.37 20.33-1.31 3.6-.45 7.28-.28 10.75.85-1.11 4.69-3.87 8.74-5.29 13.33 1.22 1.13 2.48 2.37 4.22 2.64 11.67 2.65 23.49 4.62 35.31 6.56 6.58.49 13.16 1.62 19.43 3.76 7.17 2.15 14.73 2.28 22 3.97 5.44 1.03 10.82 2.49 16.37 2.77v4.98c-10.17-.77-19.87-4.28-30-5.22-6.97-.15-13.45-3.15-20.36-3.74-7.59-.61-14.97-2.54-22.43-3.91-7.73-1.32-15.77-2.44-22.64-6.47-2.11-1.16-3.17-3.41-4.41-5.35-4.6 4.12-8.97 8.54-12.16 13.87-5.58 7.18-10.28 14.98-16.12 21.96-4.54 6.71-10.97 11.71-16.45 17.58-2.98 2.85-7.47 2.8-10.91 4.84-8.6 4.88-16.24 11.24-24.52 16.61-7.78 5.07-16.52 8.59-23.89 14.29-9.05 6.35-18.97 11.71-26.64 19.8h-6.58c-3.64-10.83-11.12-19.62-16.48-29.57-6.9-12.55-16.17-24.6-17.35-39.37-.39-8.64-1.89-17.17-3.96-25.55-11.88-.44-23.18 3.88-34.85 5.27-9.09 1.86-17.98 4.55-26.96 6.84-7.2 1.34-14.38 2.91-21.26 5.45-1.7.66-3.57.27-5.32.66-2.04 1.21-3.65 3-5.13 4.82-2.76 3.4-5.83 6.74-7.14 11.03-7.84 14.28-15.05 28.96-20.69 44.26-2.99 5.06-3.65 11.08-6.61 16.16h-3.29c2.73-4.16 3.95-9.01 5.47-13.68 6.97-15.26 12.85-31.08 21.39-45.57 1.8-3.48 3.21-7.23 5.91-10.16 2.54-2.77 4.35-6.25 7.52-8.4 2.89-2.04 5.94-3.88 9.17-5.34 8.56-.92 17.3-1.56 25.39-4.8 9.52-2.1 19.07-4.14 28.65-5.96 8.78-2.7 17.75-4.76 26.54-7.42-.35-4.1-1.12-8.14-1.5-12.23 5.01-1.63 9.97-3.58 15.27-4.02 5.19-1.12 10.89-.86 15.67-3.28 1.39-4.89 1.91-10.05 2.18-15.11.43-4.15-3.49-7.78-7.51-7.56-4.64-.28-9.77 1.35-13.95-1.38-3.31-1.83-6.96-4.91-6.75-9.06-.24-7.63 4.4-14.45 4.11-22.08-.36-2.96 1.56-5.36 2.32-8.06.52-5.14-5.01-7.7-7.29-11.71-4.36.59-5.84 4.76-7.33 8.3-1.51-1.86-2.46-4.12-1.8-6.52 1.35-5.87 6.41-9.65 11.55-12.17-2.36-.84-4.77-1.5-7.06-2.5-6.28-3.13-7.61-13.03-1.79-17.27 7.48-6.05 14.79-12.69 18.97-21.54-5.36 0-10.62 1.23-15.97 1.25-8.36.08-16.75.07-25.04-1.1-6.39-.72-13.91.13-18.97-4.62 3.3-2.64 7.17-4.35 10.94-6.17 6.96-3.11 13.49-7.08 20.35-10.4-2.29-4.58-7.91-9.4-4.76-14.86 4.52-3.82 9.9-6.49 15.23-9.02C154.96 43.6 166.5 38.19 177 31c9.6-6.04 18.53-14.06 29.99-16.3 7.84-1.97 15.99-.8 23.95-1.79 3.92-.44 7.9-.3 11.8-.97 6.44-1.01 13-.22 19.46-1.03m2.8 4.16c-7.8.84-15.68-.08-23.46.92-5.98.67-12.01.45-17.97 1.27-6.91.65-13.99-.09-20.73 1.81-4.9 2.17-9.91 4.36-14.03 7.86-5.57 4.33-10.01 9.94-15.66 14.2-3.58 3.57-8.27 5.61-12.25 8.66 2.12-.32 4.21-.8 6.27-1.39 2.07 2.59 5.38 3.18 8.24 4.5-1.37.92-2.8 1.94-4.54 1.82-7.93.56-15.95-1.2-23.8.59-5.95.73-10.59 4.82-15.79 7.37-1.04.29-1.15 1.84-.55 2.56 1.93 2.46 4.08 4.75 5.66 7.47 9.99-.46 20.02-.75 30 .06 4.3.86 8.69.46 13.03.91 5.22.65 10.44 1.37 15.67 1.99 4.29.09 8.17-2.2 12.02-3.8 6.98-3.32 14.22-6.04 21.49-8.64 1.99-.86 4.18-.61 6.28-.63-3.95 3.45-9.37 4.01-13.87 6.44-4.74 2.2-8.82 5.61-13.72 7.46-3.62 1.49-7.08 4.13-11.19 3.8-3.08-.34-6.1-1.06-9.11-1.79-13.71-3.57-27.98-1.83-41.97-2.05-6.74 1.51-15.39.24-19.87 6.66-2.72 1.11-5.68 1.51-8.36 2.75-3.27 1.43-7.27 1.78-9.58 4.82 4.37.22 8.77-.46 13.12.21 12.52.93 25.14.78 37.7.6 11.94-.7 23.47-4.03 35.19-6.16 7.59-3.08 13.86-10.46 22.72-9.82 5.64.97 11.37 1.23 17.1 1.09 10.39.34 20.54 2.85 30.85 4.04 6.64 1.06 13.33 1.85 19.91 3.28 4.51.82 8.73 3.23 13.45 2.65.45-2 .98-4 1.42-6.01-5.94-1.64-12.12-2.07-18.09-3.59-1.62-.53-3.98-.4-4.56-2.42 4.82-.55 9.4 1.85 14.27 1.01-5.32-1.27-10.82-1.42-16.18-2.43-3.42-.87-7.18-.24-10.26-2.23 6-2.27 12.31-.36 18.4.35 7.05.35 14.21-.47 21.12 1.32 2.77-7.04 7.25-13.71 7.13-21.57-.22-3.95 1.12-7.82.76-11.75-2.48-5.42-5.18-10.88-9.44-15.14-2.25-2.11-3.79-4.8-5.75-7.15-3.62-4.4-9.98-3.41-15.03-3.34-5.23 1.52-10.71.72-16.04 1.44m-63.8 70.71c1.85 1.11 3.66 2.3 5.47 3.5-1.71.54-3.43 1.88-5.3 1.27-11.89-4.11-23.83 2.38-35.69 3.23-2.83 6.65-6.77 12.88-12.21 17.7-2.92 3.53-6.62 6.25-9.79 9.51-.58 3.48-.77 8.65 3.14 10.21 3.36 1.39 6.73 2.86 9.45 5.35 1.87-.52 3.75-1.01 5.65-1.45-.85-1.44-1.44-3.13-2.78-4.21-1.93-.48-4.12-.35-5.53-2 4.97-1.43 10.3.17 12.89 4.82 1.33-1.72 3.29-3.33 3.16-5.72.49-2.86-1.55-5.25-2.27-7.89 2.37 1.46 4.46 3.57 4.66 6.5 1.83 4.91-3.31 8.46-7.17 10.21 2.66 2.86 6.41 4.32 9.86 5.97 4.98 2.36 10.12-2.12 15.13-.11 2.08 1.25 4.27 2.32 6.76 2.32l-.08-2.35c-7.61-1.67-17.22-3.89-19.95-12.27 3.13 2.32 5.89 5.3 9.68 6.57 6.58 3.21 14.02 1.15 21 1.6.79 4.79 1.93 9.77.49 14.56-.79 4.82-2.03 10.83-7.55 12.24 1.52-3.95 4.08-7.36 5.89-11.16 1.24-3.91.57-8.26-1.54-11.75-.51.01-1.51.04-2.02.05-1.63 1.7-3.34 3.33-5.18 4.82.15 1.38.29 2.76.44 4.15-1.76-.94-3.83-2.99-5.89-1.57-4.45 2.72-8.72 5.93-13.87 7.24-6.69 2.21-13.89 1.96-20.51 4.35.79 10.02-6.15 18.96-4.01 29 3.27 4.08 8.9 5.55 13.9 4.5 8.13-1.22 17.42-.83 23.88-6.77 3.97-2.75 7.88-5.58 11.74-8.49-.73 3.49-3.57 5.87-5.26 8.88 3.21.17 6.33-.55 9.4-1.39 2.93-5.86 7.97-10.37 10.86-16.28 2.59-3.99 4.29-8.65 7.75-12.02-1.31 4.7-4.33 8.65-5.94 13.24-1.78 4.83-5.05 8.89-7.15 13.56 5.74-.24 11.29-2.04 17.04-2.37 7.65-1.28 16.4-3.93 20.23-11.33 3.13-6.13 4.4-13.01 5.8-19.69 1.21-4.75.45-9.68.33-14.51 1.29.68 2.58 1.37 3.87 2.05 3.03-1.73 5.41-4.28 7.24-7.22-.9-.08-2.68-.23-3.58-.31 2.99-5.52 7.02-10.58 8.78-16.69 1.04-6.28-2.75-11.83-4.72-17.51 1.42.57 2.82 1.2 4.23 1.8-.27-4.05-.61-9.4-5.01-11.16-5.58-1.61-10.37 2.69-14.92 5.22-3.26 1.57-4.41 5.42-7.63 7.03.03-1.15.14-2.29.34-3.42 3.86-5.57 10.17-8.96 16.38-11.27 4.53-2.01 9.07 1.31 11.87 4.65 2.75 4.61 2.03 10.19 3.46 15.19 1.92 8.19 2.01 17.8-3.57 24.65-4.2 4.58-7.46 10.42-13.46 12.92.1 12.26-2.38 25.39-10.64 34.92-5.94 5.98-14.44 8.74-22.74 8.88-6.46-.4-11.91 3.65-17.52 6.21-6.61 3.7-14.35 5.42-20.08 10.59-2.24 1.98-5.42 3.54-6.11 6.7-1.74 6.09-1.94 12.49-3.51 18.61-2.25 6.07-4.48 12.41-8.92 17.26-4.67 4.16-9.8 7.79-15.24 10.86-1.2 10.27 1.35 20.76 3.92 30.73 9.33 1.71 18.98 2.26 28.44 1.24 5.98-.29 12.01.33 17.96-.56 4.66-.84 9.41-.59 14.11-.96 7.27-1.12 14.65-.42 21.97-.87 6.03-.66 12.07-1.22 18.12-1.72 5.14.16 10.26-.75 15.09-2.49 3.81-2.39 6.34-6.27 9.38-9.5 5.26-5.45 9.99-11.38 14.81-17.22 6.45-9.08 13.15-18.07 21.1-25.92 2.18-2.11 4.03-4.53 5.73-7.04-8.4-.31-16.83-.29-25.21.42 1.03 1.9 2.08 3.84 3.67 5.35 2.12 1.7 6.2 1.95 5.02 5.65-7.27.48-11.92-5.72-15.9-10.8-4.82-7.45-4.09-16.72-5.19-25.16-1.93-14.88-1.19-29.95-1.16-44.93 1.3-12.69 4.64-25.18 4.23-38 .47-4.35 1.94-8.58 1.81-12.99-.04-3.85.87-7.61 1.18-11.43-5.88-1.97-12.08-2.69-17.96-4.66-3.3-.96-6.53-2.4-10.01-2.53-9.63-.84-19.07-3.05-28.67-3.99-6.58.15-13.14-1.21-19.7-.54-5.5 1.68-10.68 4.22-16.17 5.94m-25.92 65.87c.4.83 1.19 2.49 1.59 3.32 2.56-.84 5.19-1.56 7.54-2.9.33-1.45-.09-2.64-1.25-3.56-2.73.69-6.05.65-7.88 3.14m-6.02.05c.25 1.66.7 3.29 1.33 4.86.97-.1 2.93-.29 3.9-.39-.19-1.67-.43-3.33-.73-4.98-1.51.14-3.01.3-4.5.51m-11.15 1.58c.33 2.06.95 4.06 1.84 5.95 1.18-1.86 1.87-3.83.57-5.82-.6-.03-1.81-.1-2.41-.13m4.18-.69c.11 1.67.23 3.34.36 5.02 1.91-.04 3.81-.12 5.71-.23-.05-1.65-.1-3.3-.13-4.94-1.98.04-3.96.1-5.94.15m16.44 45c1.33 2.26 2.68 4.51 4.15 6.69 1.94-2.36 2.88-5.22 2.88-8.26-2.4.24-4.9.31-7.03 1.57m-21 31.21c-3.24-.77-6.46.31-9.54 1.2.3 7.45 1.93 14.83 4.28 21.9 2.55-1.34 5.12-2.61 7.66-3.96 4.85-2.6 8.24-7.08 11.38-11.46 1.99-2.74 2.99-6.06 3.14-9.42-5.68.15-11.23 3.25-16.92 1.74m63.25 64.25c-6.11.98-12.34.09-18.44 1.12-12.8.82-25.64.47-38.46.59 1.98 5.86 6.28 10.46 9.67 15.51 5.15 6.36 8.84 13.71 13.68 20.29 1.82 2.55 3.09 5.43 4.44 8.24 1.72-1.23 3.55-2.33 5.12-3.75 6.58-6.82 13.42-13.59 21.6-18.5 4.52-2.73 8.57-6.13 12.86-9.18 8-4.6 15.91-9.59 22.75-15.82-3.63-.23-7.28-.12-10.89.27-7.38 1.33-14.93.07-22.33 1.23z"/><path fill="#040404" d="M253.62 99.57c2.91-3.61 6.6-7.23 11.31-8.09 2.18-.65 3.2 1.36 4.21 2.89-4.49-.42-8.74 1.81-11.56 5.19-.28 1.56-.14 3.16.14 4.71 1.51 2.46 4.49 4.02 5.07 7.02 1.67 4.93-1.39 10.24-5.6 12.8.46-3.12 2.65-5.8 2.42-9.04.13-4-3.23-6.91-6.18-9.1-1.35 1.69-2.73 3.35-4.14 4.98-.55-4.32 2.16-7.91 4.33-11.36zm-50.49-.73c.65-1.22 1.42-2.37 2.49-3.25-.76 1.36-1.67 2.63-2.52 3.93 2.05 1.19 4.04 2.51 5.75 4.16-3.92-1.09-7.57-4.32-11.83-3.11-6.52 1.49-13.02 3.42-19.79 3.11.48-.51 1.44-1.54 1.92-2.06-2.31-.76-5.05-.8-6.76-2.77 2.33-.61 4.66-.36 6.89.49 5.71.68 11.48.03 16.99-1.56 2.36-.85 4.7.11 6.86 1.06zm-29.29 7.66c2.55-.37 5.13-.11 7.62.54 6.95 1.51 13.82-1.93 20.77-.43-7.23 3.58-15.51 3.25-23.35 3.8-2.69.71-4.02-1.97-5.04-3.91zm56.76 13.09c2.64-2.02 3.09-5.77 5.92-7.59.53 2.98-1.2 5.52-2.59 7.98-1.74 2.84-3.52 5.69-5.91 8.04-3.34 3.27-5.94 7.28-9.74 10.07-.5-8.28 6.92-13.49 12.32-18.5zm-18.24 36.54c1.46-4.05.93-8.52 2.74-12.47.61 4.05.45 8.17.21 12.25-.39 3.42-2.7 7.42-6.49 7.56.96-2.55 2.74-4.72 3.54-7.34zm-43.46 8.89c6.2-3.63 13.35-5.36 19.3-9.48-4.61 5.88-11.86 9.32-19.3 9.48zm96.16 16.56c1.23-3.31 1.84-7.04 4.41-9.66.23 3.15-1.31 5.98-1.88 9.01-1.09 5.66-3.47 10.96-4.72 16.58-1.7 7.82-4.63 15.3-7.61 22.7-3.36 6.45-6.32 13.18-7.95 20.3-1.06.03-2.11.1-3.16.2-.04-3.76 1.67-7.15 2.87-10.62 1.6-4.14 2.59-8.49 4.41-12.54 5.29-11.7 9.23-23.93 13.63-35.97zm-83.52 37.65l1.91.05c.17 11.13 1.2 22.45-1.41 33.4-1.38 4.93-3.17 9.73-4.59 14.65-.42 1.68-1.62 2.95-2.85 4.1-.42-2.06-.5-4.21.12-6.23 4.95-14.78 7.05-30.41 6.82-45.97zm152.06 33.79c4.23 1.55 6.19 6.52 3.91 10.51-5.69 9.39-15.9 14.3-24.57 20.44-7.49 4.18-14.7 8.98-22.76 12-9.04 4.72-17.63 10.38-27.28 13.82-10.04 4.59-20.08 9.17-29.91 14.18-5.17 2.81-10.22 5.87-15.56 8.33-1.4.37-2.85.15-4.27.11 2.08-2.4 3.82-5.69 7.21-6.3 5.48-1.6 10.12-5.06 15.24-7.49 11.03-6.04 21.92-12.35 33.47-17.39 14.7-8.31 30.74-14.1 44.89-23.39 8.78-6.02 17.84-13.69 19.63-24.82z"/></svg>