<svg xmlns="http://www.w3.org/2000/svg" width="128pt" height="128pt" viewBox="0 0 128 128"><path fill="#473c3a" d="M38.2 0h51.32c6.78.98 13.26 4.59 17.18 10.28 3.01 4.13 4.63 9.07 5.48 14.06-3.75-3.91-8.44-7.59-14.14-7.49-20.33-.25-40.67.04-61-.13-4.18.04-8.56-.03-12.43 1.79-3.39 1.65-6.23 4.23-8.89 6.87.81-6.04 2.93-12.04 6.94-16.72C26.55 3.96 32.31 1.22 38.2 0z"/><path fill="#565352" d="M24.61 18.51c3.87-1.82 8.25-1.75 12.43-1.79 20.33.17 40.67-.12 61 .13 5.7-.1 10.39 3.58 14.14 7.49.93 2.48 2.11 4.85 3.03 7.34 2.14 5.52 1.14 11.54 1.34 17.31.2 4.85-.08 9.69-.68 14.51-6.35 1.92-13.02 1.71-19.57 1.62-.71 0-2.13-.01-2.84-.01-7.79.03-15.58.01-23.38.01-4.03.02-8.06.02-12.1 0-7.76.01-15.53.02-23.3-.01-.99 0-1.97 0-2.96.01-6.58.26-13.37.31-19.4-2.7-1.2-7.74-.74-15.58-.79-23.38-.08-4.92 2.59-9.17 4.19-13.66 2.66-2.64 5.5-5.22 8.89-6.87m35.28 16.67c-3.58.34-7.16.61-10.75.84 2.67 2.42 5.43 4.75 8.15 7.12-.83 3.5-1.64 7-2.47 10.5 3.07-1.88 6.15-3.74 9.22-5.62 3.08 1.88 6.17 3.74 9.24 5.63-.84-3.5-1.67-7.01-2.49-10.52 2.72-2.36 5.49-4.68 8.14-7.13-3.61-.2-7.22-.45-10.81-.89-1.27-3.15-2.55-6.3-3.87-9.43-2.05 2.85-2.87 6.34-4.36 9.5z"/><path fill="#f44336" d="M59.89 35.18c1.49-3.16 2.31-6.65 4.36-9.5 1.32 3.13 2.6 6.28 3.87 9.43 3.59.44 7.2.69 10.81.89-2.65 2.45-5.42 4.77-8.14 7.13.82 3.51 1.65 7.02 2.49 10.52-3.07-1.89-6.16-3.75-9.24-5.63-3.07 1.88-6.15 3.74-9.22 5.62.83-3.5 1.64-7 2.47-10.5-2.72-2.37-5.48-4.7-8.15-7.12 3.59-.23 7.17-.5 10.75-.84z"/><path fill="#494342" d="M12.32 62.42c6.03 3.01 12.82 2.96 19.4 2.7-.73 4.98-1.67 9.95-3.04 14.8-1.78 6.25-4.19 12.35-7.49 17.96-.47.81-.96 1.61-1.47 2.4-4.82 7.64-11.74 13.8-19.72 17.99V93.9c7.47-8.82 10.53-20.3 12.32-31.48zm83.98 2.7c6.55.09 13.22.3 19.57-1.62 1.78 10.83 4.96 21.85 12.13 30.42v24.36c-7.95-4.2-14.85-10.33-19.67-17.94-.51-.8-1-1.61-1.48-2.42-3.31-5.62-5.72-11.73-7.51-17.99-1.37-4.86-2.32-9.82-3.04-14.81z"/><path fill="#ffcc4d" d="M31.72 65.12c.99-.01 1.97-.01 2.96-.01-2.97 4.01-4.1 9.1-2.92 13.97-1.03.28-2.06.55-3.08.84 1.37-4.85 2.31-9.82 3.04-14.8zm26.26 0c4.04.02 8.07.02 12.1 0-2.27 3.51-3.99 7.65-3.17 11.91.84 6.8 6.84 12.07 13.51 12.89 0 3.29 0 6.81 1.89 9.65 3.37 5.93 11.47 8.42 17.57 5.34 3.17-1.32 5.17-4.22 6.97-6.99.48.81.97 1.62 1.48 2.42-7.48 15.42-23.23 26.26-40.32 27.66H60.4c-17.24-1.24-33.17-12.19-40.68-27.72.51-.79 1-1.59 1.47-2.4 1.8 2.79 3.82 5.67 6.98 7.02 6.07 3.08 14.13.64 17.53-5.23 1.96-2.86 1.96-6.42 2.01-9.75 6.35-.82 12.1-5.61 13.31-12.01 1.09-4.51-.53-9.07-3.04-12.79m-5.77 41.22c-2.88.75-2.16 5.54.86 5.3 7.29.09 14.59.08 21.88.01 3.06.28 3.81-4.55.9-5.32-7.87-.21-15.77-.23-23.64.01zm41.25-41.23c.71 0 2.13.01 2.84.01.72 4.99 1.67 9.95 3.04 14.81-.75-.22-2.25-.67-3-.89 1.16-4.87-.01-9.88-2.88-13.93z"/><path fill="#f5f8fa" d="M34.68 65.11c7.77.03 15.54.02 23.3.01 2.51 3.72 4.13 8.28 3.04 12.79-1.21 6.4-6.96 11.19-13.31 12.01-7.07.53-13.8-4.11-15.95-10.84-1.18-4.87-.05-9.96 2.92-13.97m8.75 3.54c-4.17 1.77-5.36 7.86-1.99 10.95 3.23 3.72 10.04 2.12 11.35-2.6 2.17-5.36-4.25-11.05-9.36-8.35zm26.65-3.53c7.8 0 15.59.02 23.38-.01 2.87 4.05 4.04 9.06 2.88 13.93-2.14 6.72-8.85 11.41-15.92 10.88-6.67-.82-12.67-6.09-13.51-12.89-.82-4.26.9-8.4 3.17-11.91m9.24 3.32c-4.92 1.66-5.96 9.02-1.61 11.9 3.86 3.15 10.28.42 10.83-4.48.96-4.96-4.57-9.35-9.22-7.42z"/><path fill="#664500" d="M43.43 68.65c5.11-2.7 11.53 2.99 9.36 8.35-1.31 4.72-8.12 6.32-11.35 2.6-3.37-3.09-2.18-9.18 1.99-10.95zm35.89-.21c4.65-1.93 10.18 2.46 9.22 7.42-.55 4.9-6.97 7.63-10.83 4.48-4.35-2.88-3.31-10.24 1.61-11.9z"/><path fill="#ff7892" d="M28.68 79.92c1.02-.29 2.05-.56 3.08-.84 2.15 6.73 8.88 11.37 15.95 10.84-.05 3.33-.05 6.89-2.01 9.75-3.4 5.87-11.46 8.31-17.53 5.23-3.16-1.35-5.18-4.23-6.98-7.02 3.3-5.61 5.71-11.71 7.49-17.96zm51.74 10c7.07.53 13.78-4.16 15.92-10.88.75.22 2.25.67 3 .89 1.79 6.26 4.2 12.37 7.51 17.99-1.8 2.77-3.8 5.67-6.97 6.99-6.1 3.08-14.2.59-17.57-5.34-1.89-2.84-1.89-6.36-1.89-9.65z"/><path fill="#684701" d="M52.21 106.34c7.87-.24 15.77-.22 23.64-.01 2.91.77 2.16 5.6-.9 5.32-7.29.07-14.59.08-21.88-.01-3.02.24-3.74-4.55-.86-5.3z"/></svg>