<svg height="253pt" viewBox="0 0 193 253" width="193pt" xmlns="http://www.w3.org/2000/svg"><path d="m66.32 8.26c13.09-2.31 26.34-4.02 39.65-4.21 4.44.58 9.09-.03 13.39 1.38 8.32 3.41 17.56 2.64 26.1 5.24 4.31 1.45 8.8 2.28 13.12 3.67 2.46 1.98 4.63 4.33 6.58 6.8 1.02 2.11 1.82 4.32 2.63 6.51.28-.36.84-1.07 1.13-1.43 1.16 2.1 2.22 4.26 3.22 6.45l-1.12 2.75c-.4-.03-1.22-.1-1.62-.14-.45-2.3-1.38-4.46-3.21-5.99-2.34-4.33-5.55-8.07-9.01-11.52-1.49-1.38-3.53-1.86-5.38-2.54-5-1.58-9.56-4.51-14.88-5.05-6.22-1.42-12.8-.71-18.86-2.84-3.65-1.47-7.35.68-11.02 1.01-5.08.97-9.98-1.47-15.05-1.03-4.17-.09-7.96 2.02-12.09 2.23-4.52.31-9.04-.23-13.57-.12zm112.68 37.46c1.83 7.56 2.63 15.56 1.44 23.31-.93 8.35-.02 17.02-2.31 25.15-.95-5.25-.43-10.6-.85-15.9.08-.36.22-1.09.3-1.46.63-2.86 1.48-5.68 2.23-8.52-.41.09-1.23.27-1.64.37.68-1.76 1.27-3.55 1.88-5.34-.57.12-1.7.34-2.27.46.82-2.18 1.83-5.28-.52-6.88 2.23-3.32 1.24-7.45 1.74-11.19z" fill="#363836"/><path d="m107.04 8.35c3.67-.33 7.37-2.48 11.02-1.01 6.06 2.13 12.64 1.42 18.86 2.84 5.32.54 9.88 3.47 14.88 5.05 1.85.68 3.89 1.16 5.38 2.54 3.46 3.45 6.67 7.19 9.01 11.52.41.69 1.23 2.08 1.64 2.77-.44 2.49.33 5.8-2.24 7.35-.13-1.99-.21-3.98-.27-5.97-.34-.13-1-.38-1.33-.51-.15-3.14-1.54-5.92-3.8-8.05-3.75.68-7.21-1.46-10.7-2.43-.75-.62-1.5-1.24-2.25-1.85-.53-.45-1.6-1.37-2.14-1.82-.75.84-1.51 1.68-2.26 2.52-.08-.77-.26-2.33-.34-3.1-.38.02-1.15.05-1.54.07-.75 1.46-1.61 2.88-2.96 3.87-1.16-4.13-4.69-6.65-8.63-7.79 2.02 2.6 4.68 5.13 4.27 8.75-.75-.54-2.24-1.63-2.98-2.17-.09-.48-.26-1.45-.35-1.93-.69-.47-2.07-1.42-2.75-1.9l-.12 1.81c-.79-.64-1.58-1.28-2.36-1.94l-4.86-4.74c.2.72.6 2.18.8 2.9-1.25-.04-2.49-.12-3.74-.21-.38.39-1.15 1.16-1.54 1.55-1.69-1.99-4.29-2.33-6.72-2.67 1.44 1.07 2.94 2.07 4.25 3.3l.44 5.25c-1.61-2.19-3.23-4.39-5.19-6.29-.56-.24-1.67-.72-2.22-.96.08.8.23 2.41.31 3.21-.19.15-.56.46-.74.61-3.74-2.43-7.18-5.32-11.07-7.53 1.45 2.01 3.07 3.87 4.7 5.73-.23.41-.68 1.24-.91 1.65-.85-.8-1.69-1.59-2.54-2.38-.84.04-2.52.11-3.37.14-.83-.02-1.65-.06-2.48-.12-1.38-.95-2.78-1.89-4.33-2.53-1.13-.49-2.28-.95-3.42-1.4.02.54.04 1.63.06 2.17-3.95-1.13-8.02-.29-11.99.22-5.92.49-11.65 2.34-17.59 2.69-5 .34-10.23 1.16-14.45 4.06-3.64 2.56-7.95 4.01-11.38 6.9.08-.72.24-2.15.31-2.87l-2.72.46 1.64 2.19c-.26.08-.78.24-1.03.32-.31-.99-.63-1.98-.97-2.96l-.01-.03c.17-.03.52-.08.69-.11 5.75.29 7.76-5.98 12.43-8 5.15-.08 10.39-.79 14.91-3.45 3.47-.9 6.95-1.91 10.04-3.78l.45.41-.41-1.18c1.3-.03 2.6-.09 3.9-.09 4.53-.11 9.05.43 13.57.12 4.13-.21 7.92-2.32 12.09-2.23 5.07-.44 9.97 2 15.05 1.03zm43.56 111.98c.75-.13 2.24-.39 2.99-.51-.09.58-.26 1.75-.35 2.34-.98.19-1.96.38-2.94.58z" fill="#f6f4f3"/><path d="m46.84 13.74c5.31-.55 10.11-4.45 15.55-3.45-3.09 1.87-6.57 2.88-10.04 3.78-4.95 1.22-10.13 1.65-14.91 3.45-4.67 2.02-6.68 8.29-12.43 8 1.66-2.64 3.42-5.5 6.09-7.23 5.06-2.07 10.23-4.16 15.74-4.55zm80.6 5.17.12-1.81c.68.48 2.06 1.43 2.75 1.9.09.48.26 1.45.35 1.93.11.63.33 1.89.45 2.52.65.22 1.96.68 2.61.9.05 1.89.11 3.77.21 5.66 2.19-1.67 2.12-4.56 2.98-6.94 1.41 1.24 2.96 2.39 4.05 3.96.12 2.48-.16 4.97-.22 7.45 1.87-2.91 2.73-6.28 3.59-9.6 2.67 1.47 4.98 3.48 6.63 6.05.81-1.19 1.62-2.37 2.43-3.55.17.26.52.8.7 1.06.45 2.55 1.02 5.08 1.64 7.6.58-2.36 1.33-4.67 2.4-6.86.41 2.97.73 5.95 1.28 8.89-1.24 2.87-2.61 5.68-4 8.48-1.02.28-2.04.56-3.05.83-.76 1.88-1.52 3.75-2.19 5.66 7.87-3.4 10.05-12.59 13.89-19.46.31 4.2.78 8.4 1.58 12.54 2.14-3.16 2.26-7.07 2.99-10.69.34 2.5.62 5.01 1.06 7.5.22 1.07.43 2.14.62 3.22-2.3 3.53-5.16 6.68-8.11 9.69l-.99-.62c-.42-.46-1.27-1.38-1.7-1.84.38-1.54.77-3.08 1.17-4.62-1.49 1.44-2.95 2.91-4.37 4.4-1.33.7-2.65 1.4-3.97 2.08-2.84.03-5.75-.82-8.53.06-2.08.74-4.25 1.3-6.43.59-2.24-.73-4.17.93-6.11 1.75-.24.12-.72.35-.95.47-2.29-.6-4.68-1.06-7.04-.54-.48-.29-1.44-.86-1.92-1.15 2.96-1.15 6.06-2.01 9.26-1.64-.05-1.65-.1-3.3-.14-4.95.32-.4.96-1.21 1.28-1.61-3.37.56-6.46 2.43-9.93 2.38-.36-3.59-.59-7.23-1.72-10.69-.32-1.06-.67-2.11-.98-3.17l-.09-.96c.57.7 1.15 1.4 1.74 2.09.55-2.7 1.09-5.42 1.68-8.12.68.53 1.37 1.05 2.04 1.6-.67 1.83-1.91 3.96-.71 5.85 1.13 1.6 2.74 2.76 4.24 3.99-.16-1.99-.36-3.98-.79-5.93.01-2.51-.29-5.01-.93-7.43.45-2.96.99-5.92 1.13-8.92m18.71 21.22c2.81-1.88 3.76-5.27 3.91-8.48-3.28 1.29-3.2 5.56-3.91 8.48m-9.75 10.6c-.68.01-2.04.02-2.71.03-.19 1.01-.37 2.02-.56 3.03 2.1-.45 4.26-.65 6.4-.32 0-1.16 0-2.33.02-3.49 1.73-3.53 3.41-7.18 4.2-11.04-2.5 3.89-4.05 8.41-7.35 11.79m13.54-10.95c-.39 1.68-.74 3.41-1.76 4.85-1.35.41-2.28-.05-2.79-1.39.04 3.47-1.73 6.68-3.49 9.58 1.52-.4 3.58.04 4.83-.88.36-3.97 3.55-6.48 5.73-9.49-.39-1.11-.79-2.21-1.17-3.31-.34.16-1.01.48-1.35.64z" fill="#1e1511"/><path d="m94.8 11.39c3.89 2.21 7.33 5.1 11.07 7.53l-2.08 1.8c1 1.98 1.97 3.98 2.81 6.04l-.93 3.92c-.29-.36-.89-1.08-1.18-1.44-.75 2.04-1.45 4.13-1.51 6.32-.2.45-.43.88-.67 1.31 2.72.23 5.8.5 7.27 3.21.02 5.48 0 10.95-.06 16.43 2.34-.15 4.7-.37 6.96-1.06l.62-.3c.17-2.01.26-4.03.35-6.05l-1.48 1.04c.31-.29.94-.87 1.26-1.16-.74-3-.47-6.08-.06-9.1l2.4 3.27c-.15 1.21-.29 2.42-.42 3.63l1.91 1.99c-.33 2.29-.69 4.59-.92 6.89l.55.36.67.4c.48.29 1.44.86 1.92 1.15-2.35.89-4.8.74-7.2.11-1.66.71-3.45 1.17-5.23.58-3.25-.94-6.55.96-9.79-.03.31-.42.92-1.26 1.23-1.69 1.05.42 2.1.83 3.15 1.25.05-6.2.38-12.43-.98-18.52-.23-.01-.68-.03-.91-.03-.21 1.87-.43 3.74-.67 5.61-.31 1.42-.68 2.83-1.04 4.24-.68.09-2.05.27-2.74.35l-.28 1.63c-.32 1.95-.6 3.9-.88 5.86l-2.14-.9c-.01.68-.02 2.05-.02 2.74-1.46-.19-2.93-.38-4.39-.53 1.49-1.07 2.94-2.21 4.34-3.4-1.13-1.11-2.26-2.22-3.39-3.32 0-.64.02-1.93.03-2.57-.42-.46-1.27-1.37-1.69-1.82-.59-.61-1.17-1.22-1.76-1.83-.44 2.41-.17 5.36-2.56 6.83.3 1.72.62 3.43.94 5.14l-1.58.49c-.72-.67-1.35-1.42-1.88-2.24-.32-2.57-.5-5.15-.54-7.74.07-1.98.14-3.95.19-5.93.73 2.21 1.5 4.39 2.31 6.57.14-2.76.99-5.92-.81-8.33-1.45-1.92-2.59-4.05-3.01-6.44-1.04-.17-2.09-.32-3.13-.44.46 2.33 1.8 4.38 2.29 6.7.2 2.32-.68 4.54-1.37 6.72-.22-2.47-.28-4.95-.33-7.43-.56-.03-1.69-.1-2.26-.14.82 5 1.53 10.03 1.42 15.11.13-.37.38-1.1.51-1.47.13 1.16.28 2.31.44 3.46 1.28.56 2.56 1.12 3.85 1.69-1.08.51-2.15 1.02-3.23 1.53-.33-.12-1-.34-1.34-.45-.44-.35-1.32-1.05-1.77-1.41-.67.01-2.02.02-2.7.02.4-.4 1.2-1.19 1.6-1.59-1.48-1.34-2.97-2.67-4.52-3.92-4.55.01-5.28-4.94-6.2-8.36-.44-.05-1.32-.16-1.76-.22l.96 1c1.49 3.01 2.46 6.68 5.73 8.27 1.2 1.52 3.54 2.95 2.95 5.17-.61.01-1.83.04-2.44.06.05-.46.13-1.36.18-1.82-1.61-.66-3.22-1.3-4.76-2.09-1.89-1.36-3.83-2.81-6.28-2.81 1.41 1.51 2.9 2.95 4.32 4.45.11.67.2 1.33.28 2-2.5-.94-5.04-2.08-6.7-4.27-2.15-3.26-3.94-7.32-8.02-8.52 1.81 2.88 4.54 5.03 6.4 7.88-.07.25-.21.76-.28 1.02-1.98.19-2.69-2.62-4.01-3.76-1.76 1.8-3.66 3.64-4.17 6.22-.68.1-2.03.29-2.7.38.04-.32.12-.98.17-1.3-.09-2.06.91-3.67 2.79-4.55-4.69 1.77-9.2 3.98-13.96 5.53 3.11.03 6.23-.11 9.3-.66l.2 1.95c-.38.34-1.16 1.01-1.54 1.34-1.64-.69-3.43-.94-5.14-.36-5.76 1.95-10.81 5.5-15.06 9.79.02.36.07 1.08.09 1.44.22-.47.65-1.42.87-1.9 3.79-2.07 7.56-4.19 11.5-5.96l2.19-.08c-1.63 1.6-3.3 3.18-5.11 4.58-5.07 2.39-9.19 6.36-14.36 8.54-2.03.75-2.73 3.04-3.96 4.6.86.01 2.57.02 3.42.02-.79 1.31-1.51 2.66-2.22 4.01.1-.91.29-2.74.39-3.65-1.57.43-2.64 1.64-3.52 2.92-.53-.34-1.06-.68-1.59-1.01 3.02-2.04 3.05-6.51 5.82-9.01 1.75-2.37 3.33-4.85 4.88-7.35-.72.06-2.16.19-2.88.25 1.74-3.49 3.57-6.94 5.02-10.56-4.63 3.43-7.92 8.29-10.75 13.23-.14-.49-.42-1.46-.57-1.95 1.4-3.09 3.16-6.02 5.29-8.65 2.2-2.04 4.82-3.58 6.9-5.75 1.67-2 2.85-4.43 4.83-6.17 2.68-2.41 6.07-3.76 9.32-5.21-1.88-.19-3.75-.41-5.62-.65 2.03-1.46 5.21-1.94 5.42-5.01-5.01 1-9.22 4.24-14.3 4.96 3.66-2.48 7.49-4.85 11.71-6.27 1.56-.6 3.03.48 4.47.91 1.77-.22 3.54-.46 5.31-.7-.74-1.5-1.48-3-2.2-4.51l1.44.4c1.04 1.23 2.03 2.51 3.07 3.74.49.57.99 1.15 1.49 1.72 1.64 3.46 4.41 6.4 8.22 7.39-2.06-3.04-4.34-6.13-7.75-7.75-.04-.91-.13-2.72-.17-3.63 4.47.79 7.86 3.82 10.99 6.86.37.89.74 1.78 1.12 2.67-.89-4.28-3.29-8.01-6.08-11.29-1.18-1.38-3.17-1.39-4.8-1.8-2.53-.48-5.07-.97-7.51-1.79-.36-.32-1.09-.95-1.45-1.27 6.16-.45 12.45-.22 18.25 2.14l-.35-1.72c3.37 4.54 7.94 8.27 10.28 13.51.28-.23.84-.68 1.12-.91-.74-2.76-1.42-5.57-2.69-8.15.47-.05 1.41-.16 1.89-.22-3.91-2.6-6.91-6.23-10.18-9.54-1.42-.25-2.83-.51-4.24-.79 2.31-1.02 4.84-.77 7.23-.17 2.71.85 5.13 2.38 7.57 3.8.68 2.09 1.5 4.14 2.44 6.13 1.75-.36 3.5-.71 5.26-1.07-.34-2.79-2.14-4.86-4.35-6.43 1.03.01 3.08.02 4.1.03-1.38-1.31-2.76-2.61-4.05-4.01l-.83-1.28c2.32.96 4.66 1.91 6.91 3.04.81.76 1.58 1.54 2.36 2.33-1.11.06-3.32.19-4.43.26 2.8 2.7 5.85 5.15 9.34 6.9.63 2.23 1.19 4.74 3.88 5.21-1.26-5.84-2.87-12.49-8.79-15.28 1.65-.32 3.29-.03 4.78.74 3.25 2.67 4.78 7.02 8.65 8.99-.55-2.61-.85-5.4-2.27-7.71-1.25-1.01-2.69-1.74-4.02-2.63-1.69-1.25-3.24-2.66-4.75-4.12.53.04 1.61.11 2.14.14 1.55.64 2.95 1.58 4.33 2.53.83.06 1.65.1 2.48.12 2.46 4.42 4.55 9.02 6.52 13.67.35-1.32.7-2.64 1.04-3.95.57-.26 1.71-.77 2.28-1.03-.86-2.75-1.55-5.59-3.02-8.1-1.63-1.86-3.25-3.72-4.7-5.73m-56.24 26.77c2.45-.25 6.45 1.11 7.62-1.85-2.53.27-6.3-1.15-7.62 1.85m4.09 2.09c.17 3.59-4.57 2.39-6.86 3.5-1.27.57-2.54 1.14-3.81 1.73.65-.14 1.96-.4 2.61-.53l.4 1.96.56-2.32c3.33.21 6.56-.63 9.75-1.42-.05-.88-.09-1.76-.14-2.64-.84-.09-1.68-.19-2.51-.28m52.07.57c.48 2.22-1.45 8.42 2.31 7.29.49-2.69.07-5.42-.2-8.11-.53.21-1.58.62-2.11.82m-25.38.72c.74 1.95 1.65 3.83 2.85 5.54.21-1.87.37-3.74.5-5.61-1.11.02-2.23.04-3.35.07m-36.48 11.07c4.97-1.22 9.92-2.53 14.77-4.17.33-.7.66-1.39.99-2.09-5.79.55-10.11 5.06-15.76 6.26m-7.17-1.24-1.41 2.57c2.87-1.47 5.36-3.62 8.36-4.85.03-.43.07-1.3.1-1.74-.93.11-2.77.34-3.7.45-1.1 1.2-2.22 2.39-3.35 3.57m-1.11 7.22c-.59 1.17-1.18 2.35-1.76 3.54 1.23-.64 2.45-1.29 3.67-1.94.03-.45.08-1.36.11-1.81-.51.05-1.51.16-2.02.21zm95.64-46.36 4.86 4.74c.12.77.35 2.31.47 3.07-1.1-.76-2.18-1.55-3.23-2.38-.46-.83-.91-1.67-1.3-2.53-.2-.72-.6-2.18-.8-2.9z" fill="#1d1210"/><path d="m82.45 12.48c1.14.45 2.29.91 3.42 1.4-.53-.03-1.61-.1-2.14-.14 1.51 1.46 3.06 2.87 4.75 4.12-.59.34-1.77 1.01-2.36 1.35-1.49-.77-3.13-1.06-4.78-.74-.79.19-1.58.38-2.36.58-2.25-1.13-4.59-2.08-6.91-3.04l.83 1.28c-1.07.93-2.17 1.81-3.26 2.7.65.98 1.3 1.96 1.95 2.95-.52-.08-1.57-.23-2.09-.3-2.44-1.42-4.86-2.95-7.57-3.8 3.58 1.07 6.48-1.41 8.59-3.97 3.97-.51 8.04-1.35 11.99-.22-.02-.54-.04-1.63-.06-2.17zm-49.59 40.13c5.65-1.2 9.97-5.71 15.76-6.26-.33.7-.66 1.39-.99 2.09-4.85 1.64-9.8 2.95-14.77 4.17zm-7.17-1.24c1.13-1.18 2.25-2.37 3.35-3.57.93-.11 2.77-.34 3.7-.45-.03.44-.07 1.31-.1 1.74-3 1.23-5.49 3.38-8.36 4.85zm-1.11 7.22c.51-.05 1.51-.16 2.02-.21-.03.45-.08 1.36-.11 1.81-1.22.65-2.44 1.3-3.67 1.94.58-1.19 1.17-2.37 1.76-3.54zm-13.59 24.3c.88-1.28 1.95-2.49 3.52-2.92-.1.91-.29 2.74-.39 3.65l-.58 1.16c-.69 1.36-1.34 2.74-1.98 4.13-.1-1.22-.2-2.44-.32-3.66-.06-.59-.19-1.77-.25-2.36z" fill="#bab3af"/><path d="m37.44 17.52c4.78-1.8 9.96-2.23 14.91-3.45-4.52 2.66-9.76 3.37-14.91 3.45z" fill="#a5a39e"/><path d="m109.02 13.8c2.43.34 5.03.68 6.72 2.67.37.41 1.1 1.23 1.47 1.64 3.08 1.29 5.57 3.54 7.92 5.85.39 1.29.78 2.58 1.18 3.87.64 2.42.94 4.92.93 7.43a55.9 55.9 0 0 0 -2.74-3.91c-.67-.55-1.36-1.07-2.04-1.6-.59 2.7-1.13 5.42-1.68 8.12-.59-.69-1.17-1.39-1.74-2.09l-.46-.72c-.58-1.19-1.11-2.4-1.65-3.6-2.38 1.18-4.89 2.1-7.54 2.5l-1.01-2.7c1.79-5.04.14-10.09.14-15.2 1.96 1.9 3.58 4.1 5.19 6.29l-.44-5.25c-1.31-1.23-2.81-2.23-4.25-3.3zm36.18 6.5c.51.07 1.53.23 2.04.3.75.61 1.5 1.23 2.25 1.85.28.54.85 1.61 1.13 2.14-.1.76-.31 2.28-.42 3.04-1.76-2.38-3.43-4.82-5-7.33zm-127.86 14.96c2.58-3.03 4.1-6.82 6.99-9.6.34.98.66 1.97.97 2.96-4.76 4.55-8.87 9.83-10.89 16.19-.73-.05-2.19-.16-2.92-.21 1.58-3.32 3.54-6.47 5.85-9.34z" fill="#14100d"/><path d="m117.28 14.92c1.25.09 2.49.17 3.74.21.39.86.84 1.7 1.3 2.53-1.71.16-3.41.31-5.11.45-.37-.41-1.1-1.23-1.47-1.64.39-.39 1.16-1.16 1.54-1.55zm-64.35 2.64c5.94-.35 11.67-2.2 17.59-2.69-2.11 2.56-5.01 5.04-8.59 3.97-2.39-.6-4.92-.85-7.23.17 1.41.28 2.82.54 4.24.79 3.27 3.31 6.27 6.94 10.18 9.54-.48.06-1.42.17-1.89.22-.29-.47-.88-1.43-1.17-1.91-.64-.04-1.91-.11-2.55-.15-.78-.92-1.55-1.85-2.39-2.72-2.74-3-7.03-4.11-10.94-4.48-3.27 1.4-6.08 3.93-9.83 4.18-4.66.92-9.27 3.09-11.24 7.7-1.59.69-3.18 1.4-4.77 2.11-.38 1.04-.75 2.08-1.12 3.12-.77.36-1.53.72-2.3 1.08-.23 1.51-.47 3.02-.71 4.53.53.26 1.58.78 2.1 1.04-4.4 1.92-7.9 5.32-10.29 9.45-.2.13-.59.41-.78.55-.19-3.4 2.09-6.18 3.17-9.25 2.02-6.36 6.13-11.64 10.89-16.19.25-.08.77-.24 1.03-.32l-1.64-2.19 2.72-.46c-.07.72-.23 2.15-.31 2.87 3.43-2.89 7.74-4.34 11.38-6.9 4.22-2.9 9.45-3.72 14.45-4.06zm6.89 33.67c2.45 0 4.39 1.45 6.28 2.81l-1.96 1.64c-1.42-1.5-2.91-2.94-4.32-4.45zm.79 124.83c2.1 1.52 3.8 3.48 5.29 5.59-3.37.23-4.85-2.71-5.29-5.59zm33.89 59.73c.34-.15 1.03-.44 1.37-.59 5.59.34 11.17.84 16.77.49 1.65.35 3.29.76 4.95 1.1-7.68.63-15.59 1.11-23.09-1zm28.96 4.67c2.52-1.65 5.54-2.23 8.36-3.16-.17.63-.5 1.91-.67 2.55-.14.11-.42.35-.57.46-2.1.36-4.18 2.03-6.36 1.42-.19-.31-.57-.95-.76-1.27z" fill="#d0c6c0"/><path d="m129.37 14.35c3.94 1.14 7.47 3.66 8.63 7.79l-1.09.93c-.86 2.38-.79 5.27-2.98 6.94-.1-1.89-.16-3.77-.21-5.66-.65-.22-1.96-.68-2.61-.9-.12-.63-.34-1.89-.45-2.52.74.54 2.23 1.63 2.98 2.17.41-3.62-2.25-6.15-4.27-8.75z" fill="#454243"/><path d="m106.3 15.1c.55.24 1.66.72 2.22.96 0 5.11 1.65 10.16-.14 15.2-.58-1.51-1.18-3.01-1.78-4.5-.84-2.06-1.81-4.06-2.81-6.04l2.08-1.8c.18-.15.55-.46.74-.61-.08-.8-.23-2.41-.31-3.21z" fill="#868281"/><path d="m92.68 16.53c.85-.03 2.53-.1 3.37-.14.85.79 1.69 1.58 2.54 2.38.23-.41.68-1.24.91-1.65 1.47 2.51 2.16 5.35 3.02 8.1-.57.26-1.71.77-2.28 1.03-.34 1.31-.69 2.63-1.04 3.95-1.97-4.65-4.06-9.25-6.52-13.67z" fill="#797473"/><path d="m125.08 16.97c.78.66 1.57 1.3 2.36 1.94-.14 3-.68 5.96-1.13 8.92-.4-1.29-.79-2.58-1.18-3.87-2.35-2.31-4.84-4.56-7.92-5.85 1.7-.14 3.4-.29 5.11-.45 1.05.83 2.13 1.62 3.23 2.38-.12-.76-.35-2.3-.47-3.07z" fill="#a29597"/><path d="m72.9 17.29c1.29 1.4 2.67 2.7 4.05 4.01-1.02-.01-3.07-.02-4.1-.03 2.21 1.57 4.01 3.64 4.35 6.43-1.76.36-3.51.71-5.26 1.07-.94-1.99-1.76-4.04-2.44-6.13.52.07 1.57.22 2.09.3-.65-.99-1.3-1.97-1.95-2.95 1.09-.89 2.19-1.77 3.26-2.7zm92.26 3.85c1.36 1.57 2.67 3.18 4 4.77l-.24.31c-.29.36-.85 1.07-1.13 1.43-.81-2.19-1.61-4.4-2.63-6.51z" fill="#787574"/><path d="m78.98 19.05c.78-.2 1.57-.39 2.36-.58 5.92 2.79 7.53 9.44 8.79 15.28-2.69-.47-3.25-2.98-3.88-5.21-3.49-1.75-6.54-4.2-9.34-6.9 1.11-.07 3.32-.2 4.43-.26-.78-.79-1.55-1.57-2.36-2.33zm-57.28 49.32c4.25-4.29 9.3-7.84 15.06-9.79-.47 1.4-1.46 2.49-2.6 3.37-3.94 1.77-7.71 3.89-11.5 5.96-.22.48-.65 1.43-.87 1.9-.02-.36-.07-1.08-.09-1.44zm99.51 102.53c3.93-.62 7.29-2.82 11.01-4.06 1.46.45 2.87 1.03 4.31 1.56-1.76-.08-3.52-.13-5.27-.16-.67.75-1.33 1.52-1.98 2.29 3.29.7 6.65.8 10 .89-1.05.54-1.87 1.93-3.2 1.62-3.62-.62-7.23-2.68-10.94-1.29-.79.18-2.37.54-3.15.72-.2-.4-.58-1.18-.78-1.57zm-87 4.97c.54.31 1.63.92 2.17 1.23.03 2.38-.13 4.76-.23 7.14-.81-1.7-1.75-3.33-2.58-5.01-.1-.3-.29-.9-.38-1.19.25-.55.76-1.63 1.02-2.17z" fill="#7d7872"/><path d="m88.48 17.86c1.33.89 2.77 1.62 4.02 2.63 1.42 2.31 1.72 5.1 2.27 7.71-3.87-1.97-5.4-6.32-8.65-8.99.59-.34 1.77-1.01 2.36-1.35z" fill="#868080"/><path d="m140.96 18.27c.39-.02 1.16-.05 1.54-.07.08.77.26 2.33.34 3.1.75-.84 1.51-1.68 2.26-2.52.54.45 1.61 1.37 2.14 1.82-.51-.07-1.53-.23-2.04-.3 1.57 2.51 3.24 4.95 5 7.33.11-.76.32-2.28.42-3.04l1.14 2.1c.53-.42 1.59-1.26 2.12-1.69 3.1 1.22 5.31 3.63 6.71 6.6 1.13.45 2.26.89 3.4 1.33.33.13.99.38 1.33.51.06 1.99.14 3.98.27 5.97 2.57-1.55 1.8-4.86 2.24-7.35-.41-.69-1.23-2.08-1.64-2.77 1.83 1.53 2.76 3.69 3.21 5.99.4.04 1.22.11 1.62.14.45.8.88 1.61 1.29 2.42-.62-.34-1.86-1.04-2.48-1.39-.13 2.16-.3 4.32-.14 6.48-.44-2.49-.72-5-1.06-7.5-.73 3.62-.85 7.53-2.99 10.69-.8-4.14-1.27-8.34-1.58-12.54-3.84 6.87-6.02 16.06-13.89 19.46.67-1.91 1.43-3.78 2.19-5.66 1.01-.27 2.03-.55 3.05-.83 1.39-2.8 2.76-5.61 4-8.48-.55-2.94-.87-5.92-1.28-8.89-1.07 2.19-1.82 4.5-2.4 6.86-.62-2.52-1.19-5.05-1.64-7.6-.18-.26-.53-.8-.7-1.06-.81 1.18-1.62 2.36-2.43 3.55-1.65-2.57-3.96-4.58-6.63-6.05-.86 3.32-1.72 6.69-3.59 9.6.06-2.48.34-4.97.22-7.45-1.09-1.57-2.64-2.72-4.05-3.96l1.09-.93c1.35-.99 2.21-2.41 2.96-3.87z" fill="#7e797b"/><path d="m40.35 24.48c3.75-.25 6.56-2.78 9.83-4.18 3.91.37 8.2 1.48 10.94 4.48l-2.96-1.16.36 1.49.35 1.72c-5.8-2.36-12.09-2.59-18.25-2.14zm28.99 17.06c1.12-.03 2.24-.05 3.35-.07-.13 1.87-.29 3.74-.5 5.61-1.2-1.71-2.11-3.59-2.85-5.54zm-35.4 14.77c4.76-1.55 9.27-3.76 13.96-5.53-1.88.88-2.88 2.49-2.79 4.55l-1.87.32c-3.07.55-6.19.69-9.3.66z" fill="#b7aca6"/><path d="m149.49 22.45c3.49.97 6.95 3.11 10.7 2.43 2.26 2.13 3.65 4.91 3.8 8.05-1.14-.44-2.27-.88-3.4-1.33-1.4-2.97-3.61-5.38-6.71-6.6-.53.43-1.59 1.27-2.12 1.69l-1.14-2.1c-.28-.53-.85-1.6-1.13-2.14z" fill="#d8d1d0"/><path d="m29.11 32.18c1.97-4.61 6.58-6.78 11.24-7.7l.27.21c.36.32 1.09.95 1.45 1.27 2.44.82 4.98 1.31 7.51 1.79-1.43.33-2.85.72-4.26 1.09.39 1.59.81 3.16 1.24 4.74-1.04-1.23-2.03-2.51-3.07-3.74-.64-.74-1.26-1.82-2.43-1.54-4.21.42-8.06 2.36-11.95 3.88z" fill="#ac9d95"/><path d="m58.16 23.62 2.96 1.16c.84.87 1.61 1.8 2.39 2.72.64.04 1.91.11 2.55.15.29.48.88 1.44 1.17 1.91 1.27 2.58 1.95 5.39 2.69 8.15-.28.23-.84.68-1.12.91-2.34-5.24-6.91-8.97-10.28-13.51z" fill="#060906"/><path d="m106.6 26.76c.6 1.49 1.2 2.99 1.78 4.5l1.01 2.7c2.65-.4 5.16-1.32 7.54-2.5.54 1.2 1.07 2.41 1.65 3.6-3.25-.67-1.45 4.84.55 1.68.31 1.06.66 2.11.98 3.17-.19 1.08-.38 2.16-.54 3.24l-2.4-3.27c-.41 3.02-.68 6.1.06 9.1-.32.29-.95.87-1.26 1.16l-1.4 1.03c-.33-3.24-.11-6.53-.85-9.72-.43 3.6.06 7.37-1.45 10.78-3.57-4.05-1.21-9.61-2.4-14.38-.07.56-.22 1.67-.29 2.23-1.47-2.71-4.55-2.98-7.27-3.21.24-.43.47-.86.67-1.31.06-2.19.76-4.28 1.51-6.32.29.36.89 1.08 1.18 1.44z" fill="#27201c"/><path d="m29.11 32.18c3.89-1.52 7.74-3.46 11.95-3.88 1.17-.28 1.79.8 2.43 1.54l-1.44-.4c.72 1.51 1.46 3.01 2.2 4.51-1.77.24-3.54.48-5.31.7-1.44-.43-2.91-1.51-4.47-.91-4.22 1.42-8.05 3.79-11.71 6.27 5.08-.72 9.29-3.96 14.3-4.96-.21 3.07-3.39 3.55-5.42 5.01 1.87.24 3.74.46 5.62.65-3.25 1.45-6.64 2.8-9.32 5.21-1.98 1.74-3.16 4.17-4.83 6.17-2.08 2.17-4.7 3.71-6.9 5.75-.02-.58-.06-1.73-.09-2.3-1.59.04-3.18.08-4.77.13-.03-.4-.08-1.21-.11-1.61.19-.14.58-.42.78-.55.4-.13 1.22-.38 1.62-.51 3.36-4.16 8.06-6.78 12.3-9.91-1.21.31-2.43.61-3.63.97-.52-.26-1.57-.78-2.1-1.04.24-1.51.48-3.02.71-4.53.77-.36 1.53-.72 2.3-1.08.37-1.04.74-2.08 1.12-3.12 1.59-.71 3.18-1.42 4.77-2.11z" fill="#7c7676"/><path d="m49.58 27.75c1.63.41 3.62.42 4.8 1.8 2.79 3.28 5.19 7.01 6.08 11.29-.38-.89-.75-1.78-1.12-2.67-3.13-3.04-6.52-6.07-10.99-6.86.04.91.13 2.72.17 3.63 3.41 1.62 5.69 4.71 7.75 7.75-3.81-.99-6.58-3.93-8.22-7.39-.5-.57-1-1.15-1.49-1.72-.43-1.58-.85-3.15-1.24-4.74 1.41-.37 2.83-.76 4.26-1.09zm-44.76 53.28c-1.44-6.59-2.38-13.64-.16-20.17l.16 2.78c.5-.28 1.51-.83 2.01-1.11-1.24 2.7-2.9 5.34-3.14 8.36.15 3.4.83 6.75 1.13 10.14zm73.08 94.67c2.17-1.36 4.6-2.26 7.18-2.34-1.7 2.01-4.6 3.23-7.18 2.34zm24.5 2.13c.88-.55 1.76-1.09 2.64-1.63 1.43.15 2.87.31 4.3.5-2.27.64-4.56 1.21-6.85 1.75.47 1.27.95 2.55 1.5 3.8a87.34 87.34 0 0 0 -3.61-.08c-4.9-.5-9.82-.8-14.75-.77 5.29-1.15 10.7-.34 16.02.06-.81-.83-1.63-1.64-2.45-2.46.8-.29 2.4-.88 3.2-1.17z" fill="#78726f"/><path d="m123.79 37.2c-1.2-1.89.04-4.02.71-5.85a55.9 55.9 0 0 1 2.74 3.91c.43 1.95.63 3.94.79 5.93-1.5-1.23-3.11-2.39-4.24-3.99z" fill="#332c27"/><path d="m146.15 40.13c.71-2.92.63-7.19 3.91-8.48-.15 3.21-1.1 6.6-3.91 8.48z" fill="#332f2b"/><path d="m78.85 33.21c1.04.12 2.09.27 3.13.44.42 2.39 1.56 4.52 3.01 6.44 1.8 2.41.95 5.57.81 8.33-.81-2.18-1.58-4.36-2.31-6.57-.05 1.98-.12 3.95-.19 5.93-.29.79-.88 2.37-1.17 3.17-.91-1.37-1.81-2.77-2.36-4.32.69-2.18 1.57-4.4 1.37-6.72-.49-2.32-1.83-4.37-2.29-6.7zm-56.11 52.21c5.44-2.7 8.93-7.74 12.83-12.17.54.23 1.63.69 2.18.91-2.27 3.46-4.66 6.83-7.25 10.04 1.42 1.03 2.85 2.06 4.27 3.09-.51.47-1.53 1.4-2.04 1.86.84.16 2.52.46 3.36.62-.85 2.43-2.88 4.06-4.63 5.83-5.28 6.57-9.11 14.64-8.96 23.23-1.08-1.05-2.14-2.13-3.22-3.18-.4-1.41-.5-2.88-.77-4.31-1.3.93-3.14 2.45-2.16 4.24.78.92 1.8 1.6 2.69 2.41l.51.45c.52.19 1.55.59 2.06.78-.4.63-1.2 1.87-1.6 2.5-2.75-1.71-5.27-3.81-8.17-5.29-1.36-.2-2.61.63-3.84 1.07l.34-1.16c.55-1.85 1.14-3.68 1.84-5.48.97 1.47 1.94 2.93 2.91 4.39 2.24-3.4 4.23-7 7.13-9.9 1.88-1.8 2.96-4.19 3.78-6.61-1.35 1.06-2.67 2.16-3.9 3.37.17-2.5.19-5 .18-7.5.83-1.39 1.68-2.76 2.52-4.14-.98.12-2.94.36-3.92.49 2.72-1.16 5.48-2.21 8.16-3.44-1.95.19-3.89.4-5.82.63l-2.67-2.67c2.04-1.7 4.15-3.32 6.16-5.06l-2.91.07c1.05-.82 2.29-1.35 3.56-1.75l.12 2.5c-.93 1.39-1.85 2.78-2.74 4.18z" fill="#2b221d"/><path d="m171.02 35.42 1.12-2.75c2.05 4.27 4.46 8.36 6.9 12.43l-.04.62c-.5 3.74.49 7.87-1.74 11.19-.71 1.59-.93 3.33-1.21 5.04-2.77 3.23-5.79 6.23-8.48 9.53-.81.07-2.44.19-3.26.26-.11-3.12 2.81-5.61 2.47-8.56-1.15-.6-2.35-1.08-3.54-1.58.06-.39.19-1.19.25-1.59.6-3.8 3.6-6.51 5.85-9.43l.28-3.21c.71.05 2.12.14 2.83.19.76-3.18 1.96-6.77-.14-9.72-.41-.81-.84-1.62-1.29-2.42m4.66 9.72c-.95 2.22-1.81 4.59-.84 6.97-2.42 3.25-5.78 6.3-7.11 10.04.19.22.56.66.74.88 2.71-2.43 5.98-4.58 7.42-8.07 1.15-2.94 1.55-6.13 1.59-9.27-.45-.14-1.35-.41-1.8-.55z" fill="#1b100d"/><path d="m119.13 36.74c-2 3.16-3.8-2.35-.55-1.68l.46.72z" fill="#554e48"/><path d="m38.56 38.16c1.32-3 5.09-1.58 7.62-1.85-1.17 2.96-5.17 1.6-7.62 1.85z" fill="#353131"/><path d="m169.83 36.45c.62.35 1.86 1.05 2.48 1.39 2.1 2.95.9 6.54.14 9.72-.71-.05-2.12-.14-2.83-.19l-.28 3.21c-2.25 2.92-5.25 5.63-5.85 9.43-.71-1.62-1.51-3.2-2.28-4.79l.99.62c2.95-3.01 5.81-6.16 8.11-9.69-.19-1.08-.4-2.15-.62-3.22-.16-2.16.01-4.32.14-6.48z" fill="#e4dfdb"/><path d="m109.87 37.85c1.19 4.77-1.17 10.33 2.4 14.38 1.51-3.41 1.02-7.18 1.45-10.78.74 3.19.52 6.48.85 9.72l1.4-1.03 1.48-1.04c-.09 2.02-.18 4.04-.35 6.05l-.62.3c-.2-.53-.58-1.57-.78-2.1-1.09.33-2.18.66-3.26.99-.69-.38-1.38-.76-2.06-1.15-.21.83-.65 2.49-.86 3.32.06-5.48.08-10.95.06-16.43.07-.56.22-1.67.29-2.23zm-6.32 1.39c.23 0 .68.02.91.03 1.36 6.09 1.03 12.32.98 18.52-1.05-.42-2.1-.83-3.15-1.25-.31.43-.92 1.27-1.23 1.69-1.05-.42-2.09-.86-3.12-1.3.28-1.96.56-3.91.88-5.86 1.51.57 3.02 1.15 4.53 1.73-.2-2.65-.45-5.29-.47-7.95.24-1.87.46-3.74.67-5.61zm-35.11 142.55c2.31-.21 4.63-.38 6.95-.47-1.14 1.99-3.11 2.81-5.37 2.03-.07.69-.22 2.06-.29 2.74-3.37-.45-7.23-.38-9.81-2.97 3.16 1.33 7.25 2.66 9.97-.22z" fill="#ad8e88"/><path d="m77.18 39.06c.57.04 1.7.11 2.26.14.05 2.48.11 4.96.33 7.43.55 1.55 1.45 2.95 2.36 4.32.29-.8.88-2.38 1.17-3.17.04 2.59.22 5.17.54 7.74l-.3-.55c-.92-2.01-2.15-3.85-3.6-5.51-.28 1.08-.56 2.16-.83 3.24-.13.37-.38 1.1-.51 1.47.11-5.08-.6-10.11-1.42-15.11z" fill="#827370"/><path d="m136.4 50.73c3.3-3.38 4.85-7.9 7.35-11.79-.79 3.86-2.47 7.51-4.2 11.04-.02 1.16-.02 2.33-.02 3.49-2.14-.33-4.3-.13-6.4.32.19-1.01.37-2.02.56-3.03.67-.01 2.03-.02 2.71-.03z" fill="#b6ada7"/><path d="m149.94 39.78c.34-.16 1.01-.48 1.35-.64.38 1.1.78 2.2 1.17 3.31-2.18 3.01-5.37 5.52-5.73 9.49-1.25.92-3.31.48-4.83.88 1.76-2.9 3.53-6.11 3.49-9.58.51 1.34 1.44 1.8 2.79 1.39 1.02-1.44 1.37-3.17 1.76-4.85zm-135 47.91c1.89-2.74 4.16-5.23 6.86-7.2l2.91-.07c-2.01 1.74-4.12 3.36-6.16 5.06-2.61 2.27-3.68 5.65-4.57 8.87-.7 1.27-1.44 2.52-2.2 3.76-.51-3.88.22-7.69 3.16-10.42zm89.53 84.47c2.7-1.43 5.66-2.26 8.74-1.79.19.26.56.78.75 1.03-3.16.31-6.3 1.09-9.49.76z" fill="#b0a3a2"/><path d="m42.65 40.25c.83.09 1.67.19 2.51.28.05.88.09 1.76.14 2.64-3.19.79-6.42 1.63-9.75 1.42l-.56 2.32-.4-1.96c-.65.13-1.96.39-2.61.53 1.27-.59 2.54-1.16 3.81-1.73 2.29-1.11 7.03.09 6.86-3.5z" fill="#a7a29d"/><path d="m94.72 40.82c.53-.2 1.58-.61 2.11-.82.27 2.69.69 5.42.2 8.11-3.76 1.13-1.83-5.07-2.31-7.29z" fill="#6b5d5c"/><path d="m119.57 43.15c.16-1.08.35-2.16.54-3.24 1.13 3.46 1.36 7.1 1.72 10.69-.3 1.82-.75 3.62-1.14 5.42l-.55-.36c.23-2.3.59-4.6.92-6.89l-1.91-1.99c.13-1.21.27-2.42.42-3.63z" fill="#786c6e"/><path d="m22.31 44.06c1.2-.36 2.42-.66 3.63-.97-4.24 3.13-8.94 5.75-12.3 9.91-.4.13-1.22.38-1.62.51 2.39-4.13 5.89-7.53 10.29-9.45zm11.26 135.17c.83 1.68 1.77 3.31 2.58 5.01.3 3.49 1.16 6.88 1.9 10.3l-.05.26c-.58 2.43-1.25 4.83-1.94 7.23-.29-.82-.88-2.45-1.18-3.27 1.26-3.95-.41-7.84-1.31-11.65-.23.39-.7 1.17-.93 1.55-.64-.61-1.27-1.23-1.91-1.85-.14-1.8-.28-3.6-.37-5.4 1.07-.73 2.14-1.45 3.21-2.18z" fill="#3a2c26"/><path d="m63.48 43.45c.44.06 1.32.17 1.76.22.92 3.42 1.65 8.37 6.2 8.36 1.55 1.25 3.04 2.58 4.52 3.92-.4.4-1.2 1.19-1.6 1.59.68 0 2.03-.01 2.7-.02.45.36 1.33 1.06 1.77 1.41.66.91 1.29 1.84 1.93 2.77-2.84-.61-5.76-1.09-8.66-.64-4.59.62-9.17-.49-13.76-.57-.75-.84-1.5-1.68-2.23-2.54.12-.35.34-1.06.46-1.41 4 .89 8.19 1 11.98 2.71 1.66.83 3.33-.37 4.57-1.36.59-2.22-1.75-3.65-2.95-5.17-3.27-1.59-4.24-5.26-5.73-8.27z" fill="#facdb9"/><path d="m4.66 60.86c1.75-5.61 4.15-11.03 6.83-16.26.73.05 2.19.16 2.92.21-1.08 3.07-3.36 5.85-3.17 9.25.03.4.08 1.21.11 1.61.04 2.31.69 4.83-.5 6.96-1.15 2.16-2.27 4.35-2.83 6.75.73-.73 2.18-2.17 2.9-2.89.15.49.43 1.46.57 1.95-.96 1.85-2.28 3.54-2.97 5.52-.07 2.16.37 4.29.65 6.42l.23 1.5c.53.33 1.06.67 1.59 1.01.06.59.19 1.77.25 2.36-2.83-2.07-3.4-5.5-4.2-8.67-.45 2.47-1.01 4.91-1.44 7.38l-.18.94c-.15-.96-.45-2.9-.6-3.87-.3-3.39-.98-6.74-1.13-10.14.24-3.02 1.9-5.66 3.14-8.36-.5.28-1.51.83-2.01 1.11z" fill="#353335"/><path d="m49.7 44.89c4.08 1.2 5.87 5.26 8.02 8.52-.4 1.04-.78 2.08-1.15 3.13-.12.35-.34 1.06-.46 1.41-2.58.38-5.27.6-7.74-.44-.52.53-1.04 1.07-1.56 1.61.21-.72.62-2.15.83-2.87.51-2.58 2.41-4.42 4.17-6.22 1.32 1.14 2.03 3.95 4.01 3.76.07-.26.21-.77.28-1.02-1.86-2.85-4.59-5-6.4-7.88z" fill="#b98f7c"/><path d="m101.84 49.09c.36-1.41.73-2.82 1.04-4.24.02 2.66.27 5.3.47 7.95-1.51-.58-3.02-1.16-4.53-1.73l.28-1.63c.69-.08 2.06-.26 2.74-.35z" fill="#58423c"/><path d="m175.68 45.14c.45.14 1.35.41 1.8.55-.04 3.14-.44 6.33-1.59 9.27-1.44 3.49-4.71 5.64-7.42 8.07-.18-.22-.55-.66-.74-.88 1.33-3.74 4.69-6.79 7.11-10.04-.97-2.38-.11-4.75.84-6.97z" fill="#b8b1b0"/><path d="m86.36 52.13c2.39-1.47 2.12-4.42 2.56-6.83.59.61 1.17 1.22 1.76 1.83-1.2 1.7-1.11 3.79-1.07 5.77-.64 1.45-1.33 2.87-2.07 4.27l-.24.1c-.32-1.71-.64-3.42-.94-5.14z" fill="#573f37"/><path d="m89.61 52.9c-.04-1.98-.13-4.07 1.07-5.77.42.45 1.27 1.36 1.69 1.82-.01.64-.03 1.93-.03 2.57 1.13 1.1 2.26 2.21 3.39 3.32-1.4 1.19-2.85 2.33-4.34 3.4l-1.21-.08.28-2.09c-.98.36-1.95.73-2.92 1.1.74-1.4 1.43-2.82 2.07-4.27z" fill="#b7988b"/><path d="m121.83 50.6c3.47.05 6.56-1.82 9.93-2.38-.32.4-.96 1.21-1.28 1.61.04 1.65.09 3.3.14 4.95-3.2-.37-6.3.49-9.26 1.64l-.67-.4c.39-1.8.84-3.6 1.14-5.42z" fill="#b5a09a"/><path d="m156.31 53.16c1.42-1.49 2.88-2.96 4.37-4.4-.4 1.54-.79 3.08-1.17 4.62.43.46 1.28 1.38 1.7 1.84-.64.53-1.29 1.06-1.93 1.58-.61-.15-1.21-.29-1.82-.44-1.7-.42-3.41-.8-5.12-1.12 1.32-.68 2.64-1.38 3.97-2.08z" fill="#c9ab9a"/><path d="m79.11 52.7c.27-1.08.55-2.16.83-3.24 1.45 1.66 2.68 3.5 3.6 5.51-1.33.39-2.66.79-3.99 1.19-.16-1.15-.31-2.3-.44-3.46z" fill="#b39895"/><path d="m57.72 53.41c1.66 2.19 4.2 3.33 6.7 4.27-.08-.67-.17-1.33-.28-2l1.96-1.64c1.54.79 3.15 1.43 4.76 2.09-.05.46-.13 1.36-.18 1.82.61-.02 1.83-.05 2.44-.06-1.24.99-2.91 2.19-4.57 1.36-3.79-1.71-7.98-1.82-11.98-2.71.37-1.05.75-2.09 1.15-3.13z" fill="#3c2c25"/><path d="m110.38 53.19c.68.39 1.37.77 2.06 1.15 1.08-.33 2.17-.66 3.26-.99.2.53.58 1.57.78 2.1-2.26.69-4.62.91-6.96 1.06.21-.83.65-2.49.86-3.32z" fill="#b49691"/><path d="m11.35 55.67c1.59-.05 3.18-.09 4.77-.13.03.57.07 1.72.09 2.3-2.13 2.63-3.89 5.56-5.29 8.65-.72.72-2.17 2.16-2.9 2.89.56-2.4 1.68-4.59 2.83-6.75 1.19-2.13.54-4.65.5-6.96z" fill="#bbb3b1"/><path d="m43.24 55.65 1.87-.32c-.05.32-.13.98-.17 1.3.67-.09 2.02-.28 2.7-.38-.21.72-.62 2.15-.83 2.87-.46 1.34-.92 2.69-1.37 4.03-.98.15-2.95.46-3.94.61.73-1.06 1.35-2.19 1.97-3.31-.52-.51-1.05-1.01-1.57-1.51.38-.33 1.16-1 1.54-1.34zm45.83 50.23c.56-.13 1.66-.4 2.22-.53 3.59 1.24 7.01 2.89 10.4 4.6-.16 1.35-.31 2.69-.46 4.04 3.59-1.21 7.58-2.57 8.67-6.66l1.93.12c-.04 3.94-3.27 6.42-6.72 7.53.58 1.5 1.17 2.98 1.68 4.5 1.53 10.21 1.81 20.64 4.73 30.61-1.32-1.56-2.56-3.21-3.41-5.08-1.92-9.82-2.53-19.83-3.58-29.76-.8.13-2.39.38-3.18.5 1.9 8.24 2.77 16.66 3.63 25.06.52 2.7.28 5.77 2.14 8 1.76 1.18 3.58 2.25 5.32 3.46.68 2.53-2.04 1.08-3.38 1.14 1.03 1.07 2.05 2.16 3.06 3.26-4.3 1.16-5.89-4.85-9.94-4.27-2.55 1.87-3.28 5.07-3.83 8-.2.78-.59 2.35-.78 3.13-.3-.42-.91-1.27-1.22-1.69.03-1.67.2-3.33.45-4.98-.69-.83-.84-2.81-2.23-2.62.04 1.11.55 2.17.79 3.26-3.69 2.35-7.81 3.99-11.33 6.63-1.24 1.02-2.82 1.41-4.35 1.77 2.33-3.93 6.05-6.71 9.3-9.83 4.53-3.38 9.9-8.29 15.99-5.64-1.18-6.34-2.12-12.73-3.1-19.11-.24-1.59-.45-3.18-.67-4.77-.32.07-.96.22-1.27.3-.52-.37-1.56-1.12-2.07-1.49.67-.11 2.01-.34 2.69-.46-.06-.39-.16-1.18-.21-1.57-.27-2.09-.52-4.18-.75-6.28.36-.97 1.06-2.93 1.42-3.91-2.69.16-5.37.36-8.07.43-4-.32-7.86-1.57-11.51-3.19.34-.61 1.03-1.82 1.37-2.42 4.75 2.23 9.95 3.32 15.2 2.85-1.68-.77-3.36-1.52-5.05-2.27-.36.24-1.06.71-1.42.94l-2.46-3.6zm40.83 75.27c2.68-.38 5.31.25 7.67 1.53-3.49 1.81-7.3 2.9-11.16 3.58-8.75 2.38-17.88 1.15-26.41-1.48l-.76-.09c-4.65-.51-9.34-.63-13.98-1.24-1.1-.35-2.18-.75-3.26-1.14.77-.21 2.31-.64 3.09-.85l.54-.06c4.93-.03 9.85.27 14.75.77.11.26.32.78.43 1.04 3.03.65 6.06 1.41 9.15 1.79 7.76 1.68 15.35-1.42 23.02-2.21-1.28-.17-2.55-.34-3.82-.5z" fill="#43190d"/><path d="m79.55 56.16c1.33-.4 2.66-.8 3.99-1.19l.3.55c.53.82 1.16 1.57 1.88 2.24l1.58-.49.24-.1c.97-.37 1.94-.74 2.92-1.1l-.28 2.09 1.21.08c1.46.15 2.93.34 4.39.53 0-.69.01-2.06.02-2.74l2.14.9c1.03.44 2.07.88 3.12 1.3 3.24.99 6.54-.91 9.79.03 1.78.59 3.57.13 5.23-.58 2.4.63 4.85.78 7.2-.11 2.36-.52 4.75-.06 7.04.54.23-.12.71-.35.95-.47 3.67 3.89 8.97.71 13.4.34-.21-.67-.64-2.01-.86-2.68 2.78-.88 5.69-.03 8.53-.06 1.71.32 3.42.7 5.12 1.12-.34 4.55-1.51 9.03-1.33 13.62-.05 6.74 2.37 13.16 2.59 19.88-.04 2.19 1.19 4.05 2.42 5.76.29-.68.88-2.05 1.17-2.73.61 3.62 1.55 7.18 1.94 10.84-.55-.71-1.65-2.11-2.2-2.82-4.48-4.19-11.31-5.45-16.91-2.87-3.64 1.98-6.6 4.91-9.93 7.33-3.91 2.96-8.23 5.3-12.49 7.69-1-4.78-2.54-9.4-4.19-13.98.62 5.17.87 10.51 3.21 15.27.52.31 1.55.91 2.06 1.21-.46 1.83-1.02 3.65-1.19 5.54 1.1 4.02 2.86 7.85 3.44 12.02.31 2.95.91 5.86 1.44 8.79l.12 2.76c.8.96 1.6 1.91 2.41 2.86-.54.05-1.63.14-2.18.19l-.48 1.64c1.93.11 3.86.23 5.8.35.17.53.53 1.58.71 2.11 3.58 3 2.18 9.63-1.91 11.47-.34-2.18-.64-4.36-1.1-6.52-.08 1.45-.14 2.9-.19 4.35-2.01 2.14-3.79 4.66-6.41 6.11-2.98 1.05-6.2.38-9.26.12-1.25-1.29-2.5-2.56-3.75-3.83-2.96-.17-6-.25-8.75 1.03-1.49-1.28-2.91-2.63-4.15-4.15.55-2.93 1.28-6.13 3.83-8 4.05-.58 5.64 5.43 9.94 4.27-1.01-1.1-2.03-2.19-3.06-3.26 1.34-.06 4.06 1.39 3.38-1.14.03-4.36 1.36-8.74.22-13.05-.19-2.25-.25-4.49-.3-6.74 1.22-5.41 1.49-10.97.69-16.46l-2.94 2.19a24.33 24.33 0 0 0 -2.28-3.49c-.05.65-.17 1.96-.22 2.61-.21.54-.62 1.61-.82 2.15-.51-1.52-1.1-3-1.68-4.5 3.45-1.11 6.68-3.59 6.72-7.53l-1.93-.12c-1.09 4.09-5.08 5.45-8.67 6.66.15-1.35.3-2.69.46-4.04-3.39-1.71-6.81-3.36-10.4-4.6-5.49-2.74-10.25-6.82-16.03-8.96-2.97-1.12-6.2-.75-9.29-.86-5.26 4.08-10.3 9.01-12.55 15.44-.93 2.61-2.05 5.17-2.71 7.87.86 3.13 4.54 3.71 7.16 4.74-1.28-1.32-2.59-2.6-3.89-3.9 1.8-1.57 4.17-1.34 6.38-1.3-1.8-1.72-3.65-3.54-4.36-6.02 1.71.26 3.41.69 5.13.88.12-1.27.1-2.54.12-3.81.63-.04 1.9-.13 2.54-.17-.23 2.25-1.15 4.33-1.73 6.5-.47 2.55.02 5.16.29 7.72 1.39-.27 2.78-.56 4.18-.78.55.38 1.65 1.15 2.2 1.53-1.2 2.03-2.57 3.94-4.03 5.79-.22.26-.64.8-.85 1.06 3.02 4.09 7.71 8.88 13.29 7.12 3.6-.95 7.09 1.84 10.66.53 3.95-1.13 7.56-3.17 10.99-5.41-.36 4.44.61 8.81 1.15 13.19-3.25-.33-6.58-.03-9.1 2.3-2.08.03-4.14 1.27-4.74 3.34-.39 1.55.94 2.67 1.77 3.77-1.79-.18-3.6-.57-5.4-.29-3.2 1.81-1.73 6.79-5.16 8.53-.24-2.3-.41-4.6-.58-6.9-.49-.41-1.49-1.23-1.99-1.64-1.9 4.02-2.22 8.84.75 12.44-.82 1.02-1.65 2.04-2.47 3.06-4.18-1.44-7.57-4.26-10.9-7.05-.52.34-1.58 1.03-2.11 1.38-.47-.78-.94-1.55-1.41-2.31-.17 2.77-.43 5.53-.76 8.29-.62.01-1.86.01-2.48.01-.08 2.15-.47 4.36.15 6.47.98 2.08 2.71 3.71 4.41 5.21 2.58 2.59 6.44 2.52 9.81 2.97 5.45.99 10.16-3.25 15.53-2.64 4.64.61 9.33.73 13.98 1.24-2.38.12-4.75.37-7.11.6 3.38 1.47 7.02 3.01 8.88 6.41 8.18-1.21 16.79-1.58 24.71 1.18-1.18.49-2.37.97-3.56 1.43-7.55-2.13-15.57-1.35-23.11.32-3.51-1.84-6.58-4.43-10.16-6.15.72.86 1.44 1.72 2.21 2.55-.21 1.39-.39 2.78-.59 4.17 3.95 1.78 8.66 3.83 9.56 8.57.61.4 1.24.77 1.89 1.11-.6.68-1.2 1.35-1.8 2.03 3.4-.13 6.72-.81 10-1.68.29.03.88.08 1.17.1.32.32.95.95 1.27 1.26 4.91-.08 9.83-.31 14.74.03.24-1.18.47-2.36.72-3.52.76-.85 1.53-1.68 2.28-2.53l.65-.73c-2.23-.89-4.44-1.82-6.66-2.73 4.41-.27 7.93-3.38 10.58-6.66 2.14-3.26 5.81-4.78 9.11-6.56 7.13 2.01 14.83-.09 20.77-4.31.45 1.61.9 3.22 1.36 4.83-1.73 5.1-2.49 10.63-5.51 15.21-1.86 3.01-3.22 6.27-4.66 9.48-1.4 2.92-3.09 5.69-4.94 8.34-1.38 1.82-3 3.45-4.64 5.03-18.31 3.39-36.89 7.57-55.63 5.79-6.21-2.02-12.33-4.32-18.53-6.36-4.8-2.81-8.24-7.49-11.02-12.22-2.4-3.94-6.82-6.53-8.11-11.13-1.56-5.19-2.97-10.43-4.51-15.62.44 7.31 1.67 14.67 4.12 21.59-.26.52-.8 1.57-1.07 2.1-.78-1.05-1.55-2.09-2.31-3.15-1.73-8.55-2.82-17.22-3.93-25.88 1.75-5.3 2.14-11.24-.25-16.41.52-2.73 1.63-5.3 2.92-7.74l2.62 3.34c-.03.22-.09.66-.13.89 4.4-5.67 9.81-10.43 15.28-15.03-.18-.14-.53-.42-.7-.55-1.96-1.65-3.94-3.31-6.3-4.36-.42-.14-1.26-.42-1.69-.55-5.25 3.57-9.6 8.46-11.75 14.51-.54-.53-1.63-1.59-2.17-2.11.21-3.21 2.17-6.8-.14-9.65-2.16-3.15-2.37-7.04-3.65-10.52-2.09-2.29-4.54-4.25-6.53-6.63.54-2.79 1.16-5.56 1.62-8.36.43.32 1.28.97 1.7 1.29.06 2.59-1.43 5.58.35 7.83 2.6.69 5.07-1.36 6.83-3.04 1.62-3.72 2.25-7.78 3.61-11.59 2.37-7.11.87-14.7 1.79-22.01.77-5.82.22-11.67-.13-17.5-.45-.03-1.35-.1-1.8-.14 1.24-2.06 2.48-4.72 5.25-4.84 9.2-.12 17.65 5.36 26.89 4.82 4.11-.43 5.47-4.62 6.66-7.93-1.84-.66-3.67-1.32-5.52-1.93 1.08-.51 2.15-1.02 3.23-1.53-1.29-.57-2.57-1.13-3.85-1.69m-30.22 67.05c.15.45.44 1.34.59 1.78.59.31 1.77.93 2.35 1.23-.47.39-1.4 1.15-1.87 1.53-.36-.15-1.08-.45-1.44-.61 2.07 1.78 4.57 4.25 7.51 2.83l.14.04.56-3.43c-.39.03-1.18.08-1.58.11-1.81-1.61-4.06-2.56-6.26-3.48z" fill="#f7c1a5"/><path d="m131.27 57.64c1.94-.82 3.87-2.48 6.11-1.75 2.18.71 4.35.15 6.43-.59.22.67.65 2.01.86 2.68-4.43.37-9.73 3.55-13.4-.34z" fill="#cfa89d"/><path d="m159.28 56.8c.64-.52 1.29-1.05 1.93-1.58.77 1.59 1.57 3.17 2.28 4.79-.06.4-.19 1.2-.25 1.59-1.54 3.41-.22 6.88.3 10.32.21 5.76-1.07 11.81 1.34 17.29.61 1.25 2.34 1.2 3.44 1.8l.21 2.45c.08 1.11.16 2.23.25 3.35-.66 2.67-1.11 5.38-1.05 8.14-.72 1.09-1.45 2.18-2.17 3.27-.53-1.47-.94-2.98-1.31-4.49-.39-3.66-1.33-7.22-1.94-10.84-.22-12.07-2-24.06-3.03-36.09z" fill="#d19175"/><path d="m11.49 68.44c2.83-4.94 6.12-9.8 10.75-13.23-1.45 3.62-3.28 7.07-5.02 10.56.72-.06 2.16-.19 2.88-.25-1.55 2.5-3.13 4.98-4.88 7.35-.13-.76-.4-2.28-.53-3.04-2.53 3.11-4.37 6.72-5.52 10.55-.28-2.13-.72-4.26-.65-6.42.69-1.98 2.01-3.67 2.97-5.52z" fill="#7d787d"/><path d="m157.46 56.36c.61.15 1.21.29 1.82.44 1.03 12.03 2.81 24.02 3.03 36.09-.29.68-.88 2.05-1.17 2.73-1.23-1.71-2.46-3.57-2.42-5.76-.22-6.72-2.64-13.14-2.59-19.88-.18-4.59.99-9.07 1.33-13.62z" fill="#efaa8c"/><path d="m46.81 59.12c.52-.54 1.04-1.08 1.56-1.61 2.47 1.04 5.16.82 7.74.44.73.86 1.48 1.7 2.23 2.54 4.59.08 9.17 1.19 13.76.57 2.9-.45 5.82.03 8.66.64-.64-.93-1.27-1.86-1.93-2.77.34.11 1.01.33 1.34.45 1.85.61 3.68 1.27 5.52 1.93-1.19 3.31-2.55 7.5-6.66 7.93-9.24.54-17.69-4.94-26.89-4.82-2.77.12-4.01 2.78-5.25 4.84.45.04 1.35.11 1.8.14.35 5.83.9 11.68.13 17.5-.92 7.31.58 14.9-1.79 22.01-1.36 3.81-1.99 7.87-3.61 11.59-1.76 1.68-4.23 3.73-6.83 3.04-1.78-2.25-.29-5.24-.35-7.83-.42-.32-1.27-.97-1.7-1.29.37-2.51 1.01-4.95 1.62-7.4.98-2.48.41-5.07-.97-7.26 1.31-1.94 2.45-4.01 2.84-6.35-3.11-.96-4.73 1.32-5.9 3.73-.17-.39-.5-1.16-.67-1.54 1.75-1.77 3.78-3.4 4.63-5.83-.84-.16-2.52-.46-3.36-.62.51-.46 1.53-1.39 2.04-1.86 1.36-1.21 2.77-2.35 4.17-3.51-1.23-.87-2.45-1.73-3.68-2.59 3.57-3.4 6.45-7.47 8.01-12.17.77-1.94 1.51-3.89 2.17-5.87.45-1.34.91-2.69 1.37-4.03z" fill="#f2a889"/><path d="m177.26 56.91c2.35 1.6 1.34 4.7.52 6.88-.53 1.27-1.09 2.53-1.64 3.8l-3.32-.48c-1.91 2.04-3.77 4.15-5.23 6.54-.75.36-1.48.72-2.22 1.08.73-1.08 1.45-2.18 2.2-3.25 2.69-3.3 5.71-6.3 8.48-9.53.28-1.71.5-3.45 1.21-5.04z" fill="#cdc3bb"/><path d="m36.76 58.58c1.71-.58 3.5-.33 5.14.36.52.5 1.05 1 1.57 1.51-.62 1.12-1.24 2.25-1.97 3.31-2.36 3.33-5.42 6.09-8.36 8.89-4.22 1.01-7.2 4.57-11.39 5.73.28-1.64.56-3.28.93-4.89.65-.42 1.93-1.25 2.57-1.66-.38 1.34-.77 2.68-1.16 4.03 3.28-3.41 7.04-6.31 10.25-9.79-.77.09-2.32.28-3.1.38 1.81-1.4 3.48-2.98 5.11-4.58l-2.19.08c1.14-.88 2.13-1.97 2.6-3.37z" fill="#322524"/><path d="m163.24 61.6c1.19.5 2.39.98 3.54 1.58.34 2.95-2.58 5.44-2.47 8.56.82-.07 2.45-.19 3.26-.26-.75 1.07-1.47 2.17-2.2 3.25.74-.36 1.47-.72 2.22-1.08-.93 2.7-1.55 5.49-2.06 8.29 3.35-1.21 4.91-4.55 6.86-7.25.43.29 1.29.88 1.72 1.17l.8.48c-2.62 2.04-5.88 4.09-6.52 7.62-.37 1.74-.58 4.02 1.35 4.93-.46.71-.94 1.42-1.42 2.12-1.1-.6-2.83-.55-3.44-1.8-2.41-5.48-1.13-11.53-1.34-17.29-.52-3.44-1.84-6.91-.3-10.32z" fill="#b07a6f"/><path d="m41.5 63.76c.99-.15 2.96-.46 3.94-.61-.66 1.98-1.4 3.93-2.17 5.87-.89-1.49-2.56-1.55-4.1-1.73-.95 2.13-2.07 4.2-3.6 5.96-3.9 4.43-7.39 9.47-12.83 12.17.89-1.4 1.81-2.79 2.74-4.18l-.12-2.5c3.47-.66 5.53-3.68 7.78-6.09 2.94-2.8 6-5.56 8.36-8.89z" fill="#e4bfb7"/><path d="m177.78 63.79c.57-.12 1.7-.34 2.27-.46-.61 1.79-1.2 3.58-1.88 5.34-1.32 2.41-2.67 4.81-4.06 7.19-.43-.29-1.29-.88-1.72-1.17-1.95 2.7-3.51 6.04-6.86 7.25.51-2.8 1.13-5.59 2.06-8.29 1.46-2.39 3.32-4.5 5.23-6.54l3.32.48c.55-1.27 1.11-2.53 1.64-3.8z" fill="#251a19"/><path d="m31.24 66.45c.78-.1 2.33-.29 3.1-.38-3.21 3.48-6.97 6.38-10.25 9.79.39-1.35.78-2.69 1.16-4.03-.64.41-1.92 1.24-2.57 1.66-2.31 1.82-4.29 4.01-6.34 6.12-.85 0-2.56-.01-3.42-.02 1.23-1.56 1.93-3.85 3.96-4.6 5.17-2.18 9.29-6.15 14.36-8.54z" fill="#918d8b"/><path d="m39.17 67.29c1.54.18 3.21.24 4.1 1.73-1.56 4.7-4.44 8.77-8.01 12.17 1.23.86 2.45 1.72 3.68 2.59-1.4 1.16-2.81 2.3-4.17 3.51-1.42-1.03-2.85-2.06-4.27-3.09 2.59-3.21 4.98-6.58 7.25-10.04-.55-.22-1.64-.68-2.18-.91 1.53-1.76 2.65-3.83 3.6-5.96z" fill="#3e1e18"/><path d="m178.17 68.67c.41-.1 1.23-.28 1.64-.37-.75 2.84-1.6 5.66-2.23 8.52l-2.67-.48-.8-.48c1.39-2.38 2.74-4.78 4.06-7.19z" fill="#c7bbb6"/><path d="m9.17 80.38c1.15-3.83 2.99-7.44 5.52-10.55.13.76.4 2.28.53 3.04-2.77 2.5-2.8 6.97-5.82 9.01z" fill="#999396"/><path d="m21.75 78.38c4.19-1.16 7.17-4.72 11.39-5.73-2.25 2.41-4.31 5.43-7.78 6.09-1.27.4-2.51.93-3.56 1.75-2.7 1.97-4.97 4.46-6.86 7.2-.35-.72-1.05-2.18-1.4-2.91l.58-1.16c.71-1.35 1.43-2.7 2.22-4.01 2.05-2.11 4.03-4.3 6.34-6.12-.37 1.61-.65 3.25-.93 4.89z" fill="#0c0807"/><path d="m5.6 83.96c.43-2.47.99-4.91 1.44-7.38.8 3.17 1.37 6.6 4.2 8.67.12 1.22.22 2.44.32 3.66.64-1.39 1.29-2.77 1.98-4.13.35.73 1.05 2.19 1.4 2.91-2.94 2.73-3.67 6.54-3.16 10.42.76-1.24 1.5-2.49 2.2-3.76.14.47.4 1.42.54 1.9-.78 1.27-1.6 2.5-2.43 3.74 1.2 1.27 2.4 2.54 3.59 3.81-1.38 1.53-2.92 2.89-4.3 4.42-.42.87-.82 1.75-1.2 2.64-.7 1.8-1.29 3.63-1.84 5.48-.3-1.45-.64-2.88-1.04-4.31.76-3.9.96-8.41-2-11.5 1.28-5.46.69-11.05.3-16.57z" fill="#282626"/><path d="m168.39 83.96c.64-3.53 3.9-5.58 6.52-7.62l2.67.48c-.08.37-.22 1.1-.3 1.46-.87 2.81-2.11 5.48-3.35 8.14-1.04.03-2.09.07-3.12.11-.27.59-.81 1.77-1.07 2.36-1.93-.91-1.72-3.19-1.35-4.93z" fill="#231210"/><path d="m177.28 78.28c.42 5.3-.1 10.65.85 15.9.03.25.1.75.14 1-.13.28-.4.85-.53 1.13-1.41 2.94-2.49 6.01-3.42 9.13-.41.24-1.22.73-1.63.98-.43-2.6.81-5 1.63-7.38-.7-.99-1.77-1.79-2.12-2.98 1.15-2.77 2.71-5.35 3.68-8.19-3.29.48-5.19 3.4-7.35 5.59l-.21-2.45c.48-.7.96-1.41 1.42-2.12.26-.59.8-1.77 1.07-2.36 1.03-.04 2.08-.08 3.12-.11 1.24-2.66 2.48-5.33 3.35-8.14zm-74.29 88.33c1.43-.03 2.87-.03 4.3-.02.14.6.41 1.8.55 2.4-1.89-.18-3.55-1.01-4.85-2.38z" fill="#c1abad"/><path d="m13.98 94.35c.89-3.22 1.96-6.6 4.57-8.87l2.67 2.67c1.93-.23 3.87-.44 5.82-.63-2.68 1.23-5.44 2.28-8.16 3.44-2.13 1.02-2.99 3.5-4.36 5.29-.14-.48-.4-1.43-.54-1.9z" fill="#0c090a"/><path d="m168.53 93.46c2.16-2.19 4.06-5.11 7.35-5.59-.97 2.84-2.53 5.42-3.68 8.19.35 1.19 1.42 1.99 2.12 2.98-.82 2.38-2.06 4.78-1.63 7.38.15 2.16.07 4.32-.03 6.49-.65-1.45-1.31-2.9-1.91-4.37-1.72-3.82.76-8.38-1.97-11.73-.09-1.12-.17-2.24-.25-3.35z" fill="#2a0c0a"/><path d="m14.52 96.25c1.37-1.79 2.23-4.27 4.36-5.29.98-.13 2.94-.37 3.92-.49-.84 1.38-1.69 2.75-2.52 4.14-1.82 2.91-3.14 6.09-4.6 9.19-1.19-1.27-2.39-2.54-3.59-3.81.83-1.24 1.65-2.47 2.43-3.74z" fill="#7d7d78"/><path d="m32.13 97.14c1.17-2.41 2.79-4.69 5.9-3.73-.39 2.34-1.53 4.41-2.84 6.35-3.11 4.69-4.97 10.07-6.69 15.39-.72 2.7-2.18 6.1.5 8.25 1.09-6.96 3.06-13.74 5.12-20.46.39.33 1.16.97 1.55 1.29.12.7.37 2.09.49 2.79-.61 2.45-1.25 4.89-1.62 7.4-.46 2.8-1.08 5.57-1.62 8.36l-.12.76c-.38 2.43-.74 4.87-1.1 7.31-1.02-.18-3.05-.53-4.06-.71.31-1.89.63-3.78.94-5.67-1.17-.06-2.34-.11-3.5-.16.41 2.58.85 5.15 1.67 7.63-.08 2.1-.2 4.21-.35 6.31-.25-.84-.49-1.67-.73-2.5-.73-2.53-1.41-5.06-2.17-7.58-.7-2.37-1.86-4.58-3.49-6.45.4-.63 1.2-1.87 1.6-2.5.57.67 1.14 1.34 1.7 2.01 1.7-8.43 4.6-16.58 8.82-24.09z" fill="#2c130e"/><path d="m20.28 94.61c.01 2.5-.01 5-.18 7.5-1.03 2.26-2.15 4.48-3.31 6.69-1.8-.2-3.61-.4-5.41-.58 1.38-1.53 2.92-2.89 4.3-4.42 1.46-3.1 2.78-6.28 4.6-9.19z" fill="#0c0b07"/><path d="m22.5 118.83c-.15-8.59 3.68-16.66 8.96-23.23.17.38.5 1.15.67 1.54-4.22 7.51-7.12 15.66-8.82 24.09-.56-.67-1.13-1.34-1.7-2.01-.51-.19-1.54-.59-2.06-.78l-.51-.45c-.89-.81-1.91-1.49-2.69-2.41-.98-1.79.86-3.31 2.16-4.24.27 1.43.37 2.9.77 4.31 1.08 1.05 2.14 2.13 3.22 3.18z" fill="#bcb1ac"/><path d="m53.42 110.97c2.25-6.43 7.29-11.36 12.55-15.44 3.09.11 6.32-.26 9.29.86 5.78 2.14 10.54 6.22 16.03 8.96-.56.13-1.66.4-2.22.53l2.46 3.6c.36-.23 1.06-.7 1.42-.94 1.69.75 3.37 1.5 5.05 2.27-5.25.47-10.45-.62-15.2-2.85-.34.6-1.03 1.81-1.37 2.42-2.97-1.47-5.72-3.34-8.35-5.34-2.19-2.35-6.08-1.67-7.32 1.32-1.16-.32-2.31-.65-3.46-.98.51 1.29 1.01 2.57 1.49 3.88-.64.04-1.91.13-2.54.17-.02 1.27 0 2.54-.12 3.81-1.72-.19-3.42-.62-5.13-.88.71 2.48 2.56 4.3 4.36 6.02-2.21-.04-4.58-.27-6.38 1.3 1.3 1.3 2.61 2.58 3.89 3.9-2.62-1.03-6.3-1.61-7.16-4.74.66-2.7 1.78-5.26 2.71-7.87z" fill="#3e221a"/><path d="m145.14 98.04c5.6-2.58 12.43-1.32 16.91 2.87-.25 1.53-.52 3.07-.79 4.59-1.42.81-2.84 1.61-4.28 2.38-.59-1.11-1.11-2.24-1.64-3.37-.29-.06-.87-.18-1.15-.24-5.25-2.3-9.41 2.43-14.26 3.26.39-.48 1.17-1.45 1.56-1.93-.31-.3-.94-.89-1.25-1.19 2.1-1.74 4.23-3.59 4.9-6.37z" fill="#3e2d26"/><path d="m174.32 105.44c.93-3.12 2.01-6.19 3.42-9.13.21 1.5.39 3.01.54 4.51.04 2.43-.03 4.86-.1 7.29-2.11 4.3-3.45 8.92-5.03 13.43-.26-.69-.78-2.06-1.04-2.74-.3-.56-.92-1.67-1.22-2.23-.06-2.68-.03-5.36-.14-8.03.6 1.47 1.26 2.92 1.91 4.37.1-2.17.18-4.33.03-6.49.41-.25 1.22-.74 1.63-.98z" fill="#3c2b26"/><path d="m167.73 104.95c-.06-2.76.39-5.47 1.05-8.14 2.73 3.35.25 7.91 1.97 11.73.11 2.67.08 5.35.14 8.03-.56-2.2-.87-4.46-1.23-6.7-.73.59-1.46 1.19-2.19 1.79-.14-.17-.43-.51-.58-.68-.48-.91-.92-1.82-1.33-2.76.72-1.09 1.45-2.18 2.17-3.27z" fill="#daa89d"/><path d="m20.1 102.11c1.23-1.21 2.55-2.31 3.9-3.37-.82 2.42-1.9 4.81-3.78 6.61-2.9 2.9-4.89 6.5-7.13 9.9-.97-1.46-1.94-2.92-2.91-4.39.38-.89.78-1.77 1.2-2.64 1.8.18 3.61.38 5.41.58 1.16-2.21 2.28-4.43 3.31-6.69z" fill="#838385"/><path d="m121.74 114.35c-2.34-4.76-2.59-10.1-3.21-15.27 1.65 4.58 3.19 9.2 4.19 13.98 4.26-2.39 8.58-4.73 12.49-7.69 3.33-2.42 6.29-5.35 9.93-7.33-.67 2.78-2.8 4.63-4.9 6.37.31.3.94.89 1.25 1.19-.39.48-1.17 1.45-1.56 1.93 4.85-.83 9.01-5.56 14.26-3.26-3.05 1.94-6.58 2.76-9.88 4.13-3.55 1.78-6.66 4.31-10.05 6.37-1.72.49-3.48.75-5.24 1.05-2.21 2.7-3.18 6-2.22 9.42.23 2.64.75 5.48-.75 7.88-.58-4.17-2.34-8-3.44-12.02.17-1.89.73-3.71 1.19-5.54-.51-.3-1.54-.9-2.06-1.21z" fill="#3f1c14"/><path d="m28.5 115.15c1.72-5.32 3.58-10.7 6.69-15.39 1.38 2.19 1.95 4.78.97 7.26-.12-.7-.37-2.09-.49-2.79-.39-.32-1.16-.96-1.55-1.29-2.06 6.72-4.03 13.5-5.12 20.46-2.68-2.15-1.22-5.55-.5-8.25z" fill="#c3afa4"/><path d="m178.28 100.82c.77 2.31.37 4.78.44 7.17l1.65-1.34c.61 5.94.15 11.92-.04 17.88-.65-.66-1.26-1.37-1.88-2.06.34-2 .6-4.01.7-6.04-3.07 5.2-4.12 11.42-3.61 17.38.69-2.41 1.52-4.79 2.45-7.12 2.97 8.22-.75 16.78-1.69 25.06l-.91-.08c.08-6.28-1.08-12.47-1.16-18.74-1.04-4.09-2.61-8.03-3.36-12.19.31-.48.93-1.45 1.24-1.94.26.68.78 2.05 1.04 2.74 1.58-4.51 2.92-9.13 5.03-13.43.07-2.43.14-4.86.1-7.29z" fill="#eecec1"/><path d="m161.26 105.5c.27-1.52.54-3.06.79-4.59.55.71 1.65 2.11 2.2 2.82.37 1.51.78 3.02 1.31 4.49.41.94.85 1.85 1.33 2.76.15.17.44.51.58.68l1.47 1.67c-.8 1.17-1.68 2.29-2.54 3.42.65.82 1.3 1.63 1.97 2.44-.34 1.21-.7 2.41-1.04 3.62l-2.16-1.74c.42-.52 1.25-1.57 1.67-2.1-.91-.55-1.82-1.09-2.73-1.64-.86-4.11-5.07-6.03-7.13-9.45 1.44-.77 2.86-1.57 4.28-2.38zm5.19 18.92c1.81-1.47 4.27 2.13 1.59 2.7-1.34.18-2.41-1.65-1.59-2.7zm-121.04 27.27c2.15-6.05 6.5-10.94 11.75-14.51.43.13 1.27.41 1.69.55-4.96 3.72-9.12 8.4-12.72 13.43.68.21 1.36.39 2.06.52 3.16-4.67 7.16-8.69 11.72-12-3.79 4.73-9.14 8.18-11.83 13.76-1.29 2.44-2.4 5.01-2.92 7.74-.78-2.66 1.56-5.02 1.81-7.62-.79-.94-2.1-.4-3.07-.17.3-.28.92-.85 1.23-1.14z" fill="#3c2012"/><path d="m65.76 106.36c1.24-2.99 5.13-3.67 7.32-1.32-2.13.17-4.25.34-6.37.52 4.4.5 8.47 2.32 11.49 5.63-3.32 4.4-8 7.44-11.67 11.51-1.4.22-2.79.51-4.18.78-.27-2.56-.76-5.17-.29-7.72.58-2.17 1.5-4.25 1.73-6.5-.48-1.31-.98-2.59-1.49-3.88 1.15.33 2.3.66 3.46.98z" fill="#f1a889"/><path d="m154.19 104.27c.28.06.86.18 1.15.24.53 1.13 1.05 2.26 1.64 3.37 2.06 3.42 6.27 5.34 7.13 9.45.91.55 1.82 1.09 2.73 1.64-.42.53-1.25 1.58-1.67 2.1l2.16 1.74c.34-1.21.7-2.41 1.04-3.62-.67-.81-1.32-1.62-1.97-2.44.86-1.13 1.74-2.25 2.54-3.42l-1.47-1.67c.73-.6 1.46-1.2 2.19-1.79.36 2.24.67 4.5 1.23 6.7.3.56.92 1.67 1.22 2.23-.31.49-.93 1.46-1.24 1.94-.69 1.72-.32 3.54.12 5.27 1.5 5.58.01 11.38.94 17.03 2.34 14.06-2.32 27.91-5.78 41.37-.46-1.61-.91-3.22-1.36-4.83-5.94 4.22-13.64 6.32-20.77 4.31-.52-.23-1.55-.68-2.07-.9-1.02.55-2.03 1.11-3.04 1.68-.45-.67-.9-1.33-1.34-1.99 3.9-.08 7.79-.53 11.43-2.02 2.34.98 5.23 2.96 7.55.78 4.14-3.48 8.71-8.28 7.96-14.15-.1-2.01-.22-4.02-.52-6 1.46.25 2.93.52 4.4.79 1.98-4.83.57-10 .63-15.01.17-5.61-1.42-11.04-2.01-16.58-2.85.41-5.76.25-8.33-1.16-1.37.39-2.74.8-4.11 1.2-6.5.02-12.66 4.52-19.19 2.15 1.4-1.15 2.81-2.29 4.23-3.43-.85-.21-1.7-.41-2.54-.62-.24-.37-.73-1.1-.97-1.47l-.94.12c.95-.62 1.88-1.28 2.82-1.91 6.35-.31 12.68.57 19.03.28 3.1-.34 4.56 2.98 6.78 4.54-.73-3.94-3.31-7.12-5.15-10.58l-.57-.89c-5.69-1.81-11.79-2.82-17.71-1.53-1.13.2-2.26.44-3.37.72-.91-1.05-1.82-2.09-2.73-3.14 3.39-2.06 6.5-4.59 10.05-6.37 3.3-1.37 6.83-2.19 9.88-4.13m12.26 20.15c-.82 1.05.25 2.88 1.59 2.7 2.68-.57.22-4.17-1.59-2.7z" fill="#f1c5b2"/><path d="m66.71 105.56c2.12-.18 4.24-.35 6.37-.52 2.63 2 5.38 3.87 8.35 5.34 3.65 1.62 7.51 2.87 11.51 3.19.25 1.48.49 2.96.72 4.45-6.27-1.76-12.63.56-18.95.59-2.46 1.32-4.78 3.01-5.98 5.62-.55-.38-1.65-1.15-2.2-1.53 3.67-4.07 8.35-7.11 11.67-11.51-3.02-3.31-7.09-5.13-11.49-5.63zm34.64 10.19c.79-.12 2.38-.37 3.18-.5 1.05 9.93 1.66 19.94 3.58 29.76-.3 1.27-.63 2.54-.99 3.8-1.86-2.23-1.62-5.3-2.14-8-.86-8.4-1.73-16.82-3.63-25.06z" fill="#efc1b1"/><path d="m180.37 106.65c3.53-.4 2.86 3.27 2.8 5.59-.49 4.26-.62 8.55-.53 12.83-.57-.13-1.73-.4-2.31-.54.19-5.96.65-11.94.04-17.88z" fill="#1d1912"/><path d="m182.64 125.07c-.09-4.28.04-8.57.53-12.83 1.87 3.3 1.21 7.13 1.29 10.74-.06 4.5.36 9.11-.98 13.48-1.26 3.99-2.84 7.87-4.42 11.73-.73 1.3-1.01 3.24-2.76 3.56.94-8.28 4.66-16.84 1.69-25.06-.93 2.33-1.76 4.71-2.45 7.12-.51-5.96.54-12.18 3.61-17.38-.1 2.03-.36 4.04-.7 6.04.62.69 1.23 1.4 1.88 2.06.58.14 1.74.41 2.31.54zm-133.31-1.86c2.2.92 4.45 1.87 6.26 3.48l-.07 1.22c-1.08-.57-2.16-1.13-3.25-1.69-.58-.3-1.76-.92-2.35-1.23-.15-.44-.44-1.33-.59-1.78z" fill="#382316"/><path d="m92.94 113.57c2.7-.07 5.38-.27 8.07-.43-.36.98-1.06 2.94-1.42 3.91.23 2.1.48 4.19.75 6.28-2.32-1.66-4.53-3.46-6.68-5.31-.23-1.49-.47-2.97-.72-4.45z" fill="#e2b3a4"/><path d="m129.02 115.82c1.76-.3 3.52-.56 5.24-1.05.91 1.05 1.82 2.09 2.73 3.14-.64.33-1.27.69-1.89 1.06-2.41 1.87-4.48 4.14-6.46 6.44-.46-.04-1.38-.13-1.84-.17-.96-3.42.01-6.72 2.22-9.42z" fill="#e7b098"/><path d="m8 117.5c1.23-.44 2.48-1.27 3.84-1.07 2.9 1.48 5.42 3.58 8.17 5.29 1.63 1.87 2.79 4.08 3.49 6.45-.98.98-1.95 1.98-2.89 3-.76-3.61-2.43-7.01-5.14-9.55-2.23-.2-4.44-.5-6.65-.84-.86 4.26-1.57 8.83.5 12.88.8 1.74 1.69 3.44 2.39 5.23.44 1.25.87 2.52 1.36 3.76-.37.61-1.12 1.81-1.5 2.41-1.8-7.96-8.15-15.15-6.35-23.7.9-1.3 1.8-2.61 2.78-3.86z" fill="#e1bdb4"/><path d="m107.83 114.72c.86 1.1 1.62 2.26 2.28 3.49.67 4.77 1.48 9.52 2.25 14.27.05 2.25.11 4.49.3 6.74-2.87-7.02-2.66-14.75-5.05-21.89.05-.65.17-1.96.22-2.61zm-68.88 40.64c.09-.42.28-1.25.38-1.66.58 5.22 1.17 10.44 1.41 15.7-.79 10.8 1.92 21.42 1.95 32.18-2.52-6.99-3.57-14.39-4.21-21.76.11-8.14-.56-16.36.47-24.46z" fill="#531609"/><path d="m110.11 118.21 2.94-2.19c.8 5.49.53 11.05-.69 16.46-.77-4.75-1.58-9.5-2.25-14.27zm-100.79 15.45c.4-3.58.71-7.16 1.12-10.73 2.5.65 5.87 1.08 6.6 4.09-1.22 4.23-6.07 6.95-5.33 11.87-.7-1.79-1.59-3.49-2.39-5.23z" fill="#e0a388"/><path d="m140.36 117.19c5.92-1.29 12.02-.28 17.71 1.53l.57.89c-1.69-.04-3.38-.02-5.05.21-.75.12-2.24.38-2.99.51-3.12-1.85-6.68-2.65-10.24-3.14z" fill="#332019"/><path d="m136.99 117.91c1.11-.28 2.24-.52 3.37-.72 3.56.49 7.12 1.29 10.24 3.14l-.3 2.41c.98-.2 1.96-.39 2.94-.58.09-.59.26-1.76.35-2.34 1.67-.23 3.36-.25 5.05-.21 1.84 3.46 4.42 6.64 5.15 10.58-2.22-1.56-3.68-4.88-6.78-4.54-6.35.29-12.68-.59-19.03-.28 1.38-.96 2.75-1.93 4.17-2.81 2.11-.01 4.22.15 6.33.26.04-.84.11-2.52.15-3.37-2.7.14-5.4.2-8.09.37-.9.07-2.7.2-3.6.26-.46-.27-1.38-.83-1.84-1.11.62-.37 1.25-.73 1.89-1.06zm-50.84 1.47h1.33c.41.74 1.24 2.24 1.65 2.99.43-.59 1.29-1.77 1.71-2.36.17 1 .32 2 .44 3-1.56-.18-3.13-.33-4.7-.46-.15-1.06-.29-2.12-.43-3.17z" fill="#221918"/><path d="m74.71 118.61c6.32-.03 12.68-2.35 18.95-.59 2.15 1.85 4.36 3.65 6.68 5.31.05.39.15 1.18.21 1.57-.68.12-2.02.35-2.69.46-2.34.14-4.68.1-7.02.13l.44-2.48c-.12-1-.27-2-.44-3-.02-.14-.07-.43-.09-.57a89.16 89.16 0 0 0 -3.27-.06h-1.33c-2.85.21-5.59 1.12-8.42 1.46-2.47.34-5.02.82-7.06 2.35-.58 1.3-.25 2.26.97 2.87-.43.17-1.28.49-1.7.65-.52.61-1.55 1.84-2.07 2.45-1.05.31-2.12.55-3.17.86 1.46-1.85 2.83-3.76 4.03-5.79 1.2-2.61 3.52-4.3 5.98-5.62z" fill="#140600"/><path d="m106.79 119.48c.2-.54.61-1.61.82-2.15 2.39 7.14 2.18 14.87 5.05 21.89 1.14 4.31-.19 8.69-.22 13.05-1.74-1.21-3.56-2.28-5.32-3.46.36-1.26.69-2.53.99-3.8.85 1.87 2.09 3.52 3.41 5.08-2.92-9.97-3.2-20.4-4.73-30.61z" fill="#de957d"/><path d="m77.73 120.84c2.83-.34 5.57-1.25 8.42-1.46.14 1.05.28 2.11.43 3.17-2.27-.08-4.54.03-6.8.3l-2.64.52c.15-.63.44-1.9.59-2.53zm9.75-1.46c1.09 0 2.18.02 3.27.06.02.14.07.43.09.57-.42.59-1.28 1.77-1.71 2.36-.41-.75-1.24-2.25-1.65-2.99z" fill="#eaebee"/><path d="m135.1 118.97c.46.28 1.38.84 1.84 1.11-.77.87-1.54 1.73-2.31 2.6 1.88-.04 3.75-.09 5.63-.11.47 0 1.42-.01 1.89-.01-1.42.88-2.79 1.85-4.17 2.81-.94.63-1.87 1.29-2.82 1.91l-.8.13c-1.83.12-3.67.16-5.5.21-.05-.55-.17-1.65-.22-2.21 1.98-2.3 4.05-4.57 6.46-6.44z" fill="#452017"/><path d="m8.82 120.78c2.21.34 4.42.64 6.65.84 2.71 2.54 4.38 5.94 5.14 9.55-1.07 3.22-2.05 6.55-4.19 9.27.66-3.24 1.48-6.46 1.83-9.75-1.62 2.3-3.62 4.51-4.33 7.3.68 4.39 3.62 7.96 4.91 12.16 1.36 3.34 2.05 7.81 6.05 9.02-1.38-4.99-4.53-9.24-5.93-14.2-.8-1.96.46-3.78 1.11-5.56l4.15-.3c.1.4.32 1.2.43 1.6-1.56 1.06-3.11 2.13-4.66 3.2 1.53 6.15 5.23 11.56 5.99 17.95-.48-.06-1.45-.17-1.93-.23-2.14-1.39-3.92-3.36-4.78-5.79-1.78-4.53-3.91-8.9-6.19-13.19-.49-1.24-.92-2.51-1.36-3.76-.74-4.92 4.11-7.64 5.33-11.87-.73-3.01-4.1-3.44-6.6-4.09-.41 3.57-.72 7.15-1.12 10.73-2.07-4.05-1.36-8.62-.5-12.88z" fill="#53190d"/><path d="m136.94 120.08c.9-.06 2.7-.19 3.6-.26l-.28 2.75c-1.88.02-3.75.07-5.63.11.77-.87 1.54-1.73 2.31-2.6z" fill="#786562"/><path d="m140.54 119.82c2.69-.17 5.39-.23 8.09-.37-.04.85-.11 2.53-.15 3.37-2.11-.11-4.22-.27-6.33-.26-.47 0-1.42.01-1.89.01z" fill="#f9f0f3"/><path d="m5.36 120.76-.14.6c-1.8 8.55 4.55 15.74 6.35 23.7 2.13 8.45 5.09 16.68 9.06 24.43 1.54 2.73 4.7 3.68 7.65 2.99l1.41-.31c-.4.26-1.22.76-1.62 1.01-2.75.82-5.58 1.36-8.34 2.12-2.72-2.32-5.64-4.74-6.82-8.24-2.59-7.15-3.92-14.67-4.74-22.21-1.14-7.95-7.02-16.13-2.81-24.09z" fill="#373030"/><path d="m70.67 123.19c2.04-1.53 4.59-2.01 7.06-2.35-.15.63-.44 1.9-.59 2.53l2.64-.52c.33.49.97 1.46 1.29 1.95-3.24-.92-6.46-.09-9.43 1.26-1.22-.61-1.55-1.57-.97-2.87z" fill="#534e4f"/><path d="m170.99 126.01c-.44-1.73-.81-3.55-.12-5.27.75 4.16 2.32 8.1 3.36 12.19.08 6.27 1.24 12.46 1.16 18.74l.91.08.91.07c-4.63 7.75-2.31 17.38-5.74 25.58-2.27 11.55-5.84 22.84-10.53 33.64-3.25 8.6-9.78 15.4-16.28 21.69l-.38.07c-3.35.31-6.53 1.61-9.04 3.86.11.48.31 1.45.42 1.94l.09.41c-.59-.01-1.76-.05-2.34-.06-.07-2.4 1.65-4.07 3.2-5.64-.9-.5-1.79-1.01-2.67-1.51 4.68-2.2 9.58-4.43 12.74-8.73-5.23.8-10.07 3.08-15.27 4.04-7.31 1.43-14.6 3.17-22.06 3.58-3.09-.69-6.15-1.71-9.35-1.73-3.09-.08-6.29.53-9.23-.7 18.74 1.78 37.32-2.4 55.63-5.79 1.64-1.58 3.26-3.21 4.64-5.03 1 .84 2 1.69 3 2.54 1.79-2.94 3.6-5.87 5.41-8.8-1.16-.69-2.31-1.38-3.47-2.08 1.44-3.21 2.8-6.47 4.66-9.48 3.02-4.58 3.78-10.11 5.51-15.21 3.46-13.46 8.12-27.31 5.78-41.37-.93-5.65.56-11.45-.94-17.03z" fill="#2f1109"/><path d="m31.7 130.85c.36-2.44.72-4.88 1.1-7.31.86 2.81 2.62 5.49 2.3 8.54-.37 6.16 1.33 12.25 3.63 17.91.5 1.17.53 2.45.6 3.71-.1.41-.29 1.24-.38 1.66l-3.75-.8c-.17-.5-.35-.99-.53-1.49-.17 5.15-.32 10.29-.52 15.43-1.87-5.7-.87-11.77-1.74-17.62-.61 6.84.08 13.71-.67 20.55-.51.18-1.54.56-2.05.74l-1.41.31c-1.14-1.19-2.39-2.29-3.34-3.65-.58-2.35-.64-4.79-.9-7.2.48.06 1.45.17 1.93.23-.76-6.39-4.46-11.8-5.99-17.95 1.55-1.07 3.1-2.14 4.66-3.2-.11-.4-.33-1.2-.43-1.6.48-1.12.97-2.24 1.46-3.36.24.83.48 1.66.73 2.5.15-2.1.27-4.21.35-6.31 1.14 1.43 1.66 3.13 1.83 4.92.53-1.73 1.1-3.44 1.7-5.14-.88-.53-1.76-1.05-2.64-1.58 1.01.18 3.04.53 4.06.71m-2.06 12.07c-.35 8.78-.72 17.7.61 26.4 1.03-5.05.42-10.21.22-15.31-.2-3.7.02-7.45-.83-11.09zm70.36 41.86c8.53 2.63 17.66 3.86 26.41 1.48l.84.56c-4.37 1.04-8.73 3.05-13.31 2.33-4.58-.65-9.16-1.58-13.81-1.11.34-.38 1.01-1.12 1.34-1.5-.49-.59-.98-1.17-1.47-1.76z" fill="#d38f75"/><path d="m32.8 123.54.12-.76c1.99 2.38 4.44 4.34 6.53 6.63 1.28 3.48 1.49 7.37 3.65 10.52 2.31 2.85.35 6.44.14 9.65.54.52 1.63 1.58 2.17 2.11l-.28.56c-.31.29-.93.86-1.23 1.14.97-.23 2.28-.77 3.07.17-.25 2.6-2.59 4.96-1.81 7.62 2.39 5.17 2 11.11.25 16.41-.53-1.89-1.12-3.77-1.72-5.64-.1 2.26-.2 4.53-.25 6.81-1.33-2.98-2.01-6.19-2.7-9.36-.24-5.26-.83-10.48-1.41-15.7-.07-1.26-.1-2.54-.6-3.71-2.3-5.66-4-11.75-3.63-17.91.32-3.05-1.44-5.73-2.3-8.54z" fill="#f1a78c"/><path d="m79.78 122.85c2.26-.27 4.53-.38 6.8-.3 1.57.13 3.14.28 4.7.46l-.44 2.48c-3.27.08-6.55-.14-9.77-.69-.32-.49-.96-1.46-1.29-1.95z" fill="#352f2e"/><path d="m25.08 124.31c1.16.05 2.33.1 3.5.16-.31 1.89-.63 3.78-.94 5.67.88.53 1.76 1.05 2.64 1.58-.6 1.7-1.17 3.41-1.7 5.14-.17-1.79-.69-3.49-1.83-4.92-.82-2.48-1.26-5.05-1.67-7.63z" fill="#d2c6c7"/><path d="m71.64 126.06c2.97-1.35 6.19-2.18 9.43-1.26 3.22.55 6.5.77 9.77.69 2.34-.03 4.68.01 7.02-.13.51.37 1.55 1.12 2.07 1.49-2.05.69-4.06 1.92-6.3 1.68-5.54-.46-11.07-1.4-16.65-1.15-3.08.33-5.98 1.67-9.11 1.78.52-.61 1.55-1.84 2.07-2.45.42-.16 1.27-.48 1.7-.65z" fill="#f3dace"/><path d="m126.8 125.24c.46.04 1.38.13 1.84.17.05.56.17 1.66.22 2.21 1.83-.05 3.67-.09 5.5-.21-2.15.52-4.47.61-6.47 1.58.04 2.01 2.67 1.99 4.07 2.74-1.14.13-2.26.32-3.37.57l-.53.8c.73 4.01 1.63 8.02 1.49 12.13-.7-1.1-1.41-2.19-2.06-3.32-.53-2.93-1.13-5.84-1.44-8.79 1.5-2.4.98-5.24.75-7.88z" fill="#9d6b56"/><path d="m52.27 126.22c1.09.56 2.17 1.12 3.25 1.69l.07-1.22c.4-.03 1.19-.08 1.58-.11l-.56 3.43-.14-.04c-2.05-.68-4.1-1.35-6.07-2.22.47-.38 1.4-1.14 1.87-1.53zm-19.86 24.66c.87 5.85-.13 11.92 1.74 17.62.19 2.45.31 4.92.06 7.37-.26.54-.77 1.62-1.02 2.17-.68-2.16-1.19-4.37-1.45-6.61.75-6.84.06-13.71.67-20.55zm3.97 26.22c-.22-7.52-.53-15.04-1.18-22.54l3.75.8c-1.03 8.1-.36 16.32-.47 24.46-1.13 4.92 1.85 10.06-.43 14.72-.74-3.42-1.6-6.81-1.9-10.3.1-2.38.26-4.76.23-7.14zm46.53 57.88c6.29 2.61 12.6 5.2 19.23 6.82.06.56.16 1.67.21 2.22 1.03-.78 2.07-1.56 3.11-2.34 4.75.16 9.56.01 14.16-1.33 0 .43.02 1.29.02 1.72-3.36.97-6.66 2.23-9.64 4.09-.96 0-2.87.01-3.82.02 1.01-1.35 2-2.7 2.98-4.07-2.53.35-4.25 2.25-6.29 3.53-3.35.08-6.7-.39-10.03-.73-1.31-.93-2.55-1.94-3.83-2.9 1.38.24 2.78.38 4.17.48-3.73-2.04-7.59-4.08-10.27-7.51z" fill="#d3a495"/><path d="m48.96 127.14c.36.16 1.08.46 1.44.61 1.97.87 4.02 1.54 6.07 2.22-2.94 1.42-5.44-1.05-7.51-2.83zm16.19 14.95c.17.13.52.41.7.55-5.47 4.6-10.88 9.36-15.28 15.03.04-.23.1-.67.13-.89 3.05-6.34 8.15-11.55 14.45-14.69zm25.95 48.94c-.77-.83-1.49-1.69-2.21-2.55 3.58 1.72 6.65 4.31 10.16 6.15 7.54-1.67 15.56-2.45 23.11-.32 1.19-.46 2.38-.94 3.56-1.43 2.4-1.05 4.78-2.26 7.42-2.58.44.04 1.33.11 1.77.15-2.65 3.28-6.17 6.39-10.58 6.66-1.95-.53-3.96-.87-5.98-.84-4.64.04-9.33-.07-13.9.84-5.29 1.27-9.75-2.81-13.35-6.08z" fill="#462212"/><path d="m67.87 129.16c3.13-.11 6.03-1.45 9.11-1.78 5.58-.25 11.11.69 16.65 1.15 2.24.24 4.25-.99 6.3-1.68.31-.08.95-.23 1.27-.3.22 1.59.43 3.18.67 4.77l-3.08 2c-3.43 2.24-7.04 4.28-10.99 5.41-3.57 1.31-7.06-1.48-10.66-.53-5.58 1.76-10.27-3.03-13.29-7.12.21-.26.63-.8.85-1.06 1.05-.31 2.12-.55 3.17-.86m15.11 3.69c-4.7-.09-9.41-.51-14.1-.02 1.24.76 2.5 1.61 4.01 1.68 4.81.71 9.72 1.82 14.57.86 3.75-1.03 7.14-3.01 10.78-4.35.11-.43.33-1.31.44-1.74-5.49.13-10.15 3.9-15.7 3.57z" fill="#efc7b0"/><path d="m134.36 127.41.8-.13.94-.12c.24.37.73 1.1.97 1.47.84.21 1.69.41 2.54.62-1.42 1.14-2.83 2.28-4.23 3.43-1.15-.3-2.29-.62-3.42-.95-1.4-.75-4.03-.73-4.07-2.74 2-.97 4.32-1.06 6.47-1.58z" fill="#e9b7a1"/><path d="m20.61 131.17c.94-1.02 1.91-2.02 2.89-3 .76 2.52 1.44 5.05 2.17 7.58-.49 1.12-.98 2.24-1.46 3.36l-4.15.3c-.65 1.78-1.91 3.6-1.11 5.56 1.4 4.96 4.55 9.21 5.93 14.2-4-1.21-4.69-5.68-6.05-9.02-1.29-4.2-4.23-7.77-4.91-12.16.71-2.79 2.71-5 4.33-7.3-.35 3.29-1.17 6.51-1.83 9.75 2.14-2.72 3.12-6.05 4.19-9.27z" fill="#d98f7a"/><path d="m82.98 132.85c5.55.33 10.21-3.44 15.7-3.57-.11.43-.33 1.31-.44 1.74-3.64 1.34-7.03 3.32-10.78 4.35-4.85.96-9.76-.15-14.57-.86-1.51-.07-2.77-.92-4.01-1.68 4.69-.49 9.4-.07 14.1.02z" fill="#401911"/><path d="m154.57 130.53c1.37-.4 2.74-.81 4.11-1.2 2.57 1.41 5.48 1.57 8.33 1.16.59 5.54 2.18 10.97 2.01 16.58-.06 5.01 1.35 10.18-.63 15.01-1.47-.27-2.94-.54-4.4-.79-.22-.53-.64-1.58-.85-2.11-.26.42-.79 1.25-1.05 1.67-.95.37-1.86.81-2.75 1.31.31.43.93 1.3 1.24 1.74a69.79 69.79 0 0 1 -1.84 3.09c-1.63 1.07-3.28 2.13-4.94 3.15-1.26-.14-2.52-.26-3.77-.39 1.2-.69 2.4-1.37 3.6-2.06-.64-1.7-1.52-3.37-3.32-4.06-4.98-4.8-8.75-10.72-13.99-15.24 1.8-.43 3.6-.85 5.4-1.28-.05-2.55-.38-5.09-1-7.56-.56-.24-1.67-.73-2.22-.97.38-.38.76-.75 1.13-1.13-1.65-.53-3.22-1.24-4.71-2.11 6.88.96 13.79-1.31 19.65-4.81z" fill="#f7c1a7"/><path d="m135.38 132.68c6.53 2.37 12.69-2.13 19.19-2.15-5.86 3.5-12.77 5.77-19.65 4.81-2.06-1.1-4.2-2.07-6.33-3.04 1.11-.25 2.23-.44 3.37-.57 1.13.33 2.27.65 3.42.95z" fill="#4d1506"/><path d="m98.79 133.32 3.08-2c.98 6.38 1.92 12.77 3.1 19.11-6.09-2.65-11.46 2.26-15.99 5.64l-1.11-.15c-.83-1.1-2.16-2.22-1.77-3.77.6-2.07 2.66-3.31 4.74-3.34 2.52-2.33 5.85-2.63 9.1-2.3-.54-4.38-1.51-8.75-1.15-13.19z" fill="#ecb398"/><path d="m128.06 133.1.53-.8c2.13.97 4.27 1.94 6.33 3.04 1.49.87 3.06 1.58 4.71 2.11-.37.38-.75.75-1.13 1.13.55.24 1.66.73 2.22.97.62 2.47.95 5.01 1 7.56-1.8.43-3.6.85-5.4 1.28-1.95-.97-4.16-1.06-6.3-.86-.81-.95-1.61-1.9-2.41-2.86l-.12-2.76c.65 1.13 1.36 2.22 2.06 3.32.14-4.11-.76-8.12-1.49-12.13z" fill="#f2a98e"/><path d="m58.85 137.73c2.36 1.05 4.34 2.71 6.3 4.36-6.3 3.14-11.4 8.35-14.45 14.69l-2.62-3.34c2.69-5.58 8.04-9.03 11.83-13.76-4.56 3.31-8.56 7.33-11.72 12-.7-.13-1.38-.31-2.06-.52 3.6-5.03 7.76-9.71 12.72-13.43z" fill="#eac4b0"/><path d="m11.57 145.06c.38-.6 1.13-1.8 1.5-2.41 2.28 4.29 4.41 8.66 6.19 13.19.86 2.43 2.64 4.4 4.78 5.79.26 2.41.32 4.85.9 7.2.95 1.36 2.2 2.46 3.34 3.65-2.95.69-6.11-.26-7.65-2.99-3.97-7.75-6.93-15.98-9.06-24.43z" fill="#e7c6b7"/><path d="m29.64 142.92c.85 3.64.63 7.39.83 11.09.2 5.1.81 10.26-.22 15.31-1.33-8.7-.96-17.62-.61-26.4zm5.03 10.15c.18.5.36.99.53 1.49.65 7.5.96 15.02 1.18 22.54-.54-.31-1.63-.92-2.17-1.23.25-2.45.13-4.92-.06-7.37.2-5.14.35-10.28.52-15.43zm9.02 18.88c.6 1.87 1.19 3.75 1.72 5.64 1.11 8.66 2.2 17.33 3.93 25.88.37 4.58 1.92 8.92 4.16 12.9-.35.09-1.04.26-1.39.34-7.44-11.19-6.94-25.15-8.67-37.95.05-2.28.15-4.55.25-6.81zm66.47 33.28c5.3-1.03 10.57-2.99 16.06-2.43-4.49 1.55-9.14 2.76-13.91 2.9l.29.89c-.32-.31-.95-.94-1.27-1.26-.29-.02-.88-.07-1.17-.1z" fill="#632d18"/><path d="m127.84 147.72c.55-.05 1.64-.14 2.18-.19 2.14-.2 4.35-.11 6.3.86 5.24 4.52 9.01 10.44 13.99 15.24-1.1-.17-2.2-.29-3.29-.48-2.89-2.35-5.64-4.88-8.51-7.26-.16 2.69.57 5.56-.35 8.15-1.69 1.45-3.88 2.09-5.94 2.8-3.72 1.24-7.08 3.44-11.01 4.06.2.39.58 1.17.78 1.57.78-.18 2.36-.54 3.15-.72-1.24.74-2.44 1.52-3.65 2.3-.34-.18-1.01-.53-1.34-.71l-1.75 1.59c2.57 1.76 5.39 3.12 8.49 3.57-.19-.57-.56-1.72-.75-2.29 1.3.45 2.62.85 3.94 1.26-2.62.86-5.21 1.82-7.76 2.89-6-1.04-11.26 4-17.35 2.01l-.98-.12c-.55-1.25-1.03-2.53-1.5-3.8 2.29-.54 4.58-1.11 6.85-1.75-1.43-.19-2.87-.35-4.3-.5 3.23-1.33 6.59-2.28 9.85-3.52-.23-.32-.7-.96-.93-1.28-.19-.25-.56-.77-.75-1.03-3.08-.47-6.04.36-8.74 1.79-2.63-.57-5.34-.47-7.87.51-1.5.43-2.95 1.02-4.37 1.65-3.44 2.69-7.72 3.17-11.9 3.7-.01.94-.01 1.89-.01 2.83 1.59.22 3.17.46 4.77.61-.78.21-2.32.64-3.09.85 1.08.39 2.16.79 3.26 1.14-5.37-.61-10.08 3.63-15.53 2.64.07-.68.22-2.05.29-2.74 2.26.78 4.23-.04 5.37-2.03-2.32.09-4.64.26-6.95.47l1.45 1.11c-2.72 2.88-6.81 1.55-9.97.22-1.7-1.5-3.43-3.13-4.41-5.21-.62-2.11-.23-4.32-.15-6.47.62 0 1.86 0 2.48-.01.33-2.76.59-5.52.76-8.29.47.76.94 1.53 1.41 2.31 1.22 6 4.86 11.62 10.05 14.94-1.34-1.6-2.79-3.1-4.25-4.57-.45-2.17-.91-4.33-1.36-6.49.39.12 1.17.35 1.56.46 1.04 1.87 2.01 3.79 3.26 5.54 1.31 2.14 3.28 3.8 5.96 3.49-1.18-1.29-2.41-2.54-3.65-3.78.93-.25 1.85-.51 2.77-.79 4.87-3.24 10.68-4.31 16.18-6.05 3.15-.95 6.48-.94 9.74-1.08-.91-1.2-1.83-2.38-2.7-3.59.19-.78.58-2.35.78-3.13 1.24 1.52 2.66 2.87 4.15 4.15 2.75-1.28 5.79-1.2 8.75-1.03 1.25 1.27 2.5 2.54 3.75 3.83 3.06.26 6.28.93 9.26-.12 2.62-1.45 4.4-3.97 6.41-6.11.05-1.45.11-2.9.19-4.35.46 2.16.76 4.34 1.1 6.52 4.09-1.84 5.49-8.47 1.91-11.47-.18-.53-.54-1.58-.71-2.11-1.94-.12-3.87-.24-5.8-.35zm-24.85 18.89c1.3 1.37 2.96 2.2 4.85 2.38-.14-.6-.41-1.8-.55-2.4-1.43-.01-2.87-.01-4.3.02m-25.09 9.09c2.58.89 5.48-.33 7.18-2.34-2.58.08-5.01.98-7.18 2.34m-17.29.36c.44 2.88 1.92 5.82 5.29 5.59-1.49-2.11-3.19-4.07-5.29-5.59m52.72.25c-.75.91-1.5 1.83-2.23 2.75 2.35.78 3.72-1.15 4.91-2.8-.67.02-2.01.04-2.68.05zm-17.46 58.89c6.26-3.16 13.35-.35 19.99-.64-1.07.39-2.14.76-3.22 1.13-5.6.35-11.18-.15-16.77-.49z" fill="#331c17"/><path d="m94.57 154.24c1.39-.19 1.54 1.79 2.23 2.62-.25 1.65-.42 3.31-.45 4.98.31.42.92 1.27 1.22 1.69.87 1.21 1.79 2.39 2.7 3.59-3.26.14-6.59.13-9.74 1.08-5.5 1.74-11.31 2.81-16.18 6.05-1.27-.64-2.53-1.28-3.79-1.93l.16 3.55-1.45-.54c-1.25-1.75-2.22-3.67-3.26-5.54-.39-.11-1.17-.34-1.56-.46.45 2.16.91 4.32 1.36 6.49 1.46 1.47 2.91 2.97 4.25 4.57-5.19-3.32-8.83-8.94-10.05-14.94.53-.35 1.59-1.04 2.11-1.38 3.33 2.79 6.72 5.61 10.9 7.05.82-1.02 1.65-2.04 2.47-3.06-2.97-3.6-2.65-8.42-.75-12.44.5.41 1.5 1.23 1.99 1.64.17 2.3.34 4.6.58 6.9 3.43-1.74 1.96-6.72 5.16-8.53 1.8-.28 3.61.11 5.4.29l1.11.15c-3.25 3.12-6.97 5.9-9.3 9.83 1.53-.36 3.11-.75 4.35-1.77 3.52-2.64 7.64-4.28 11.33-6.63-.24-1.09-.75-2.15-.79-3.26z" fill="#edc6b2"/><path d="m138.51 155.89c2.87 2.38 5.62 4.91 8.51 7.26-1.33.62-2.67 1.21-4.02 1.78.58 1.5 1.15 3 1.72 4.5-1.07.18-2.13.36-3.19.53-1.69-.45-3.35-1.01-5-1.56-1.44-.53-2.85-1.11-4.31-1.56 2.06-.71 4.25-1.35 5.94-2.8.92-2.59.19-5.46.35-8.15z" fill="#edc9b9"/><path d="m162.09 160.85c.26-.42.79-1.25 1.05-1.67.21.53.63 1.58.85 2.11.3 1.98.42 3.99.52 6l-1.16-3.21c-1.54.97-3.08 1.92-4.61 2.91a69.79 69.79 0 0 0 1.84-3.09c-.31-.44-.93-1.31-1.24-1.74.89-.5 1.8-.94 2.75-1.31z" fill="#835d59"/><path d="m147.02 163.15c1.09.19 2.19.31 3.29.48 1.8.69 2.68 2.36 3.32 4.06-1.2.69-2.4 1.37-3.6 2.06 1.25.13 2.51.25 3.77.39-3.97 1.25-8.31.89-12.27-.18 1.06-.17 2.12-.35 3.19-.53-.57-1.5-1.14-3-1.72-4.5 1.35-.57 2.69-1.16 4.02-1.78z" fill="#eca893"/><path d="m158.74 166.99c1.53-.99 3.07-1.94 4.61-2.91l1.16 3.21c.75 5.87-3.82 10.67-7.96 14.15-2.32 2.18-5.21.2-7.55-.78-3.64 1.49-7.53 1.94-11.43 2.02-2.36-1.28-4.99-1.91-7.67-1.53-2.56.13-5.08-.32-7.58-.79 2.55-1.07 5.14-2.03 7.76-2.89-1.32-.41-2.64-.81-3.94-1.26-1.6-.63-3.14-1.37-4.65-2.16 1.21-.78 2.41-1.56 3.65-2.3 3.71-1.39 7.32.67 10.94 1.29 1.33.31 2.15-1.08 3.2-1.62-3.35-.09-6.71-.19-10-.89.65-.77 1.31-1.54 1.98-2.29 1.75.03 3.51.08 5.27.16 1.65.55 3.31 1.11 5 1.56 3.96 1.07 8.3 1.43 12.27.18 1.66-1.02 3.31-2.08 4.94-3.15m-2.46 2.87c-.26.33-.79.98-1.06 1.31 1.05 3.2 4.93-2.38 1.06-1.31m-29.41 3.52c2.03 2.14 5.03 2.77 7.61 3.98 2.9 1.46 6.28 1.05 9.28.14l4.3.12c-5.34-1.26-10.88-1.04-16.21-2.28-1.46-1.11-3.09-2-4.98-1.96m15.87.56c1.2 2.36 5.42 1.26 6.77-.83-2.07.13-5.56-1.14-6.77.83z" fill="#271210"/><path d="m40.74 169.4c.69 3.17 1.37 6.38 2.7 9.36 1.73 12.8 1.23 26.76 8.67 37.95-.58.14-1.74.43-2.32.57-2.62-3.03-5.94-5.64-7.45-9.47-1.72-4.23-3.46-8.51-4.34-13.01l.05-.26c2.28-4.66-.7-9.8.43-14.72.64 7.37 1.69 14.77 4.21 21.76-.03-10.76-2.74-21.38-1.95-32.18z" fill="#c89080"/><path d="m156.28 169.86c3.87-1.07-.01 4.51-1.06 1.31.27-.33.8-.98 1.06-1.31z" fill="#65514d"/><path d="m96.6 172.67c2.53-.98 5.24-1.08 7.87-.51 3.19.33 6.33-.45 9.49-.76.23.32.7.96.93 1.28-3.26 1.24-6.62 2.19-9.85 3.52-.88.54-1.76 1.08-2.64 1.63-1.44-.76-2.86-1.54-4.33-2.23.2-.59.61-1.78.81-2.37z" fill="#1c090a"/><path d="m29.69 172.17c.51-.18 1.54-.56 2.05-.74.26 2.24.77 4.45 1.45 6.61.09.29.28.89.38 1.19-1.07.73-2.14 1.45-3.21 2.18-.14-1.83-.32-3.65-.5-5.46-3.39-1.32-7.08 1.84-10.13-.65 2.76-.76 5.59-1.3 8.34-2.12.4-.25 1.22-.75 1.62-1.01z" fill="#301c17"/><path d="m70.56 172.32c1.26.65 2.52 1.29 3.79 1.93-.92.28-1.84.54-2.77.79 1.24 1.24 2.47 2.49 3.65 3.78-2.68.31-4.65-1.35-5.96-3.49l1.45.54z" fill="#7a635b"/><path d="m92.23 174.32c1.42-.63 2.87-1.22 4.37-1.65l2.28.56c-.2.59-.61 1.78-.81 2.37-1.93-.5-3.89-.89-5.84-1.28z" fill="#5b4b4b"/><path d="m120.15 173.34c.33.18 1 .53 1.34.71 1.51.79 3.05 1.53 4.65 2.16.19.57.56 1.72.75 2.29-3.1-.45-5.92-1.81-8.49-3.57z" fill="#4e3e40"/><path d="m126.87 173.38c1.89-.04 3.52.85 4.98 1.96 5.33 1.24 10.87 1.02 16.21 2.28l-4.3-.12c-3 .91-6.38 1.32-9.28-.14-2.58-1.21-5.58-1.84-7.61-3.98z" fill="#938a8d"/><path d="m142.74 173.94c1.21-1.97 4.7-.7 6.77-.83-1.35 2.09-5.57 3.19-6.77.83z" fill="#67534e"/><path d="m80.33 178.02c4.18-.53 8.46-1.01 11.9-3.7 1.95.39 3.91.78 5.84 1.28 1.47.69 2.89 1.47 4.33 2.23-.8.29-2.4.88-3.2 1.17.82.82 1.64 1.63 2.45 2.46-5.32-.4-10.73-1.21-16.02-.06l-.54.06c-1.6-.15-3.18-.39-4.77-.61 0-.94 0-1.89.01-2.83z" fill="#38251e"/><path d="m113.33 176.31c.67-.01 2.01-.03 2.68-.05-1.19 1.65-2.56 3.58-4.91 2.8.73-.92 1.48-1.84 2.23-2.75z" fill="#463034"/><path d="m104.97 182.37c6.09 1.99 11.35-3.05 17.35-2.01 2.5.47 5.02.92 7.58.79l-.74 1.14c-3.11-.33-6.15-1.09-9.25-1.43-3.64.32-6.95 2.16-9.95 4.14-3.09-.38-6.12-1.14-9.15-1.79-.11-.26-.32-.78-.43-1.04 1.2 0 2.4.03 3.61.08z" fill="#af9287"/><path d="m109.96 185c3-1.98 6.31-3.82 9.95-4.14 3.1.34 6.14 1.1 9.25 1.43 1.27.16 2.54.33 3.82.5-7.67.79-15.26 3.89-23.02 2.21z" fill="#edcbbb"/><path d="m48.6 182.93c1.54 5.19 2.95 10.43 4.51 15.62 1.29 4.6 5.71 7.19 8.11 11.13 2.78 4.73 6.22 9.41 11.02 12.22 6.2 2.04 12.32 4.34 18.53 6.36 2.94 1.23 6.14.62 9.23.7 3.2.02 6.26 1.04 9.35 1.73-11.59 1.67-23.81.12-34.18-5.48 4.43 3.78 9.95 5.76 14.88 8.74 1.42.75 2.91 1.37 4.45 1.84 7.5 2.11 15.41 1.63 23.09 1 5.38-.55 10.55-2.39 15.45-4.59l.9-.4c.88.5 1.77 1.01 2.67 1.51-1.55 1.57-3.27 3.24-3.2 5.64l-.15 1.02-2.11-.12c.17-.64.5-1.92.67-2.55-2.82.93-5.84 1.51-8.36 3.16.19.32.57.96.76 1.27 2.18.61 4.26-1.06 6.36-1.42-.98 2.17-3.73 2.31-5.65 3.24-1.38-.43-2.7-1.03-3.85-1.9-.36.1-1.08.31-1.44.42 0-.43-.02-1.29-.02-1.72-4.6 1.34-9.41 1.49-14.16 1.33-1.04.78-2.08 1.56-3.11 2.34-.05-.55-.15-1.66-.21-2.22-6.63-1.62-12.94-4.21-19.23-6.82 2.68 3.43 6.54 5.47 10.27 7.51-1.39-.1-2.79-.24-4.17-.48-.96-.71-1.93-1.41-2.89-2.11-1.21-.91-2.39-1.85-3.57-2.79l-2.46.6c-2.4-2.13-4.73-4.34-7.18-6.42-3.84-3.14-7.32-6.69-10.44-10.55-4.92-4.3-7.15-10.42-9.75-16.22-2.45-6.92-3.68-14.28-4.12-21.59m28.8 50.32c-.14 1.44 1.77 3.54 3.27 2.75.4-1.54-1.91-2.98-3.27-2.75z" fill="#3d1c14"/><path d="m137.57 182.68c.44.66.89 1.32 1.34 1.99 1.01-.57 2.02-1.13 3.04-1.68.52.22 1.55.67 2.07.9-3.3 1.78-6.97 3.3-9.11 6.56-.44-.04-1.33-.11-1.77-.15-2.11-.9-4.02-2.17-5.89-3.48l-.84-.56c3.86-.68 7.67-1.77 11.16-3.58z" fill="#e1927a"/><path d="m92.13 185.29c2.36-.23 4.73-.48 7.11-.6l.76.09c.49.59.98 1.17 1.47 1.76-.33.38-1 1.12-1.34 1.5 4.65-.47 9.23.46 13.81 1.11 4.58.72 8.94-1.29 13.31-2.33 1.87 1.31 3.78 2.58 5.89 3.48-2.64.32-5.02 1.53-7.42 2.58-7.92-2.76-16.53-2.39-24.71-1.18-1.86-3.4-5.5-4.94-8.88-6.41z" fill="#f0a58b"/><path d="m30.73 186.81c.64.62 1.27 1.24 1.91 1.85.23-.38.7-1.16.93-1.55.9 3.81 2.57 7.7 1.31 11.65l-.16.89c-2-4.04-3.23-8.41-3.99-12.84z" fill="#493936" opacity=".97"/><path d="m90.51 195.2c.2-1.39.38-2.78.59-4.17 3.6 3.27 8.06 7.35 13.35 6.08 4.57-.91 9.26-.8 13.9-.84.1.27.29.8.39 1.06-2.32.44-4.64.89-6.92 1.47-4.16 1.02-8.08 2.8-11.75 4.97-.9-4.74-5.61-6.79-9.56-8.57z" fill="#ebc9bf"/><path d="m36.06 202.03c.69-2.4 1.36-4.8 1.94-7.23.88 4.5 2.62 8.78 4.34 13.01 1.51 3.83 4.83 6.44 7.45 9.47 2.45 3.35 6.09 5.37 9.93 6.73-1.84.23-3.68.47-5.52.62-.46.02-1.38.07-1.84.09l-.21.01c-6.85-6.31-11.78-14.33-16.16-22.46z" fill="#2e0f04"/><path d="m118.35 196.27c2.02-.03 4.03.31 5.98.84 2.22.91 4.43 1.84 6.66 2.73l-.65.73c-5.71-.6-11.52-.83-17.19.27 1.04-.55 2.04-1.14 3.05-1.72-1.46-.13-2.92-.24-4.38-.32 2.28-.58 4.6-1.03 6.92-1.47-.1-.26-.29-.79-.39-1.06z" fill="#543a2e"/><path d="m100.07 203.77c3.67-2.17 7.59-3.95 11.75-4.97 1.46.08 2.92.19 4.38.32-1.01.58-2.01 1.17-3.05 1.72-3.73 1.35-7.43 2.77-11.19 4.04-.65-.34-1.28-.71-1.89-1.11z" fill="#3f1a10"/><path d="m113.15 200.84c5.67-1.1 11.48-.87 17.19-.27-.75.85-1.52 1.68-2.28 2.53-.25 1.16-.48 2.34-.72 3.52-4.91-.34-9.83-.11-14.74-.03l-.29-.89c4.77-.14 9.42-1.35 13.91-2.9-5.49-.56-10.76 1.4-16.06 2.43-3.28.87-6.6 1.55-10 1.68.6-.68 1.2-1.35 1.8-2.03 3.76-1.27 7.46-2.69 11.19-4.04z" fill="#fbd3c1"/><path d="m49.34 203.47c.76 1.06 1.53 2.1 2.31 3.15.27-.53.81-1.58 1.07-2.1 2.6 5.8 4.83 11.92 9.75 16.22-2.38.35-4.81.34-7.18-.11-.57-1.43-1.13-2.87-1.79-4.26-2.24-3.98-3.79-8.32-4.16-12.9z" fill="#ce9784"/><path d="m155.98 209.1c1.16.7 2.31 1.39 3.47 2.08-1.81 2.93-3.62 5.86-5.41 8.8-1-.85-2-1.7-3-2.54 1.85-2.65 3.54-5.42 4.94-8.34z" fill="#471b0d"/><path d="m53.5 216.37c.66 1.39 1.22 2.83 1.79 4.26 2.37.45 4.8.46 7.18.11 3.12 3.86 6.6 7.41 10.44 10.55-.35.31-1.06.95-1.42 1.26-.27.62-.82 1.85-1.09 2.46-3.33-2.55-7.19-4.3-10.38-7.04-1.73-1.44-3.49-3.04-5.82-3.34 1.84-.15 3.68-.39 5.52-.62-3.84-1.36-7.48-3.38-9.93-6.73.58-.14 1.74-.43 2.32-.57.35-.08 1.04-.25 1.39-.34m8.92 7.86c-.64.87-1.24 1.75-1.8 2.66 1.55.15 3.1.3 4.66.43-.84-.99-.98-3.81-2.86-3.09m2.86 3.25c1.24 2.01 2.83 3.83 4.97 4.9-.38-2.61-2.48-4.36-4.97-4.9z" fill="#9e6e63"/><path d="m52.36 224.72c.46-.02 1.38-.07 1.84-.09 2.33.3 4.09 1.9 5.82 3.34 3.19 2.74 7.05 4.49 10.38 7.04.27-.61.82-1.84 1.09-2.46.01 1.08.04 2.16.08 3.25 4.65 2.01 8.71 5.11 13.26 7.31-1.03.91-2.05 1.82-3.04 2.77l-.59.54c-7.29-4.65-15.57-7.79-22.1-13.59-2.36-2.61-4.37-5.51-6.74-8.11z" fill="#281c18"/><path d="m62.42 224.23c1.88-.72 2.02 2.1 2.86 3.09-1.56-.13-3.11-.28-4.66-.43.56-.91 1.16-1.79 1.8-2.66z" fill="#542414"/><path d="m131.41 227.11c5.2-.96 10.04-3.24 15.27-4.04-3.16 4.3-8.06 6.53-12.74 8.73l-.9.4c-10.57 1.87-21.36 1.48-32.03 1.04-3.68-.23-7.29.75-10.96.71-4.93-2.98-10.45-4.96-14.88-8.74 10.37 5.6 22.59 7.15 34.18 5.48 7.46-.41 14.75-2.15 22.06-3.58z" fill="#ebc7ba"/><path d="m65.28 227.48c2.49.54 4.59 2.29 4.97 4.9-2.14-1.07-3.73-2.89-4.97-4.9z" fill="#5a3830"/><path d="m71.49 232.55c.36-.31 1.07-.95 1.42-1.26 2.45 2.08 4.78 4.29 7.18 6.42l2.46-.6c1.18.94 2.36 1.88 3.57 2.79-.53.18-1.59.54-2.12.73 1.01.94 2.2 1.38 3.57 1.34l-.2.56.48.27.17-.46-.45-.37c-.36-.52-1.09-1.55-1.45-2.07.96.7 1.93 1.4 2.89 2.11 1.28.96 2.52 1.97 3.83 2.9-1.07-.15-2.13-.31-3.19-.5l-.42-.74c-1.47-.16-2.95-.31-4.4-.56-4.55-2.2-8.61-5.3-13.26-7.31-.04-1.09-.07-2.17-.08-3.25z" fill="#d5bbb1"/><path d="m101.01 233.24c10.67.44 21.46.83 32.03-1.04-4.9 2.2-10.07 4.04-15.45 4.59-1.66-.34-3.3-.75-4.95-1.1 1.08-.37 2.15-.74 3.22-1.13-6.64.29-13.73-2.52-19.99.64-.34.15-1.03.44-1.37.59-1.54-.47-3.03-1.09-4.45-1.84 3.67.04 7.28-.94 10.96-.71z" fill="#7f5f52"/><path d="m77.4 233.25c1.36-.23 3.67 1.21 3.27 2.75-1.5.79-3.41-1.31-3.27-2.75z" fill="#b39287"/><path d="m135.24 236.66c2.51-2.25 5.69-3.55 9.04-3.86a33.05 33.05 0 0 1 -8.62 5.8c-.11-.49-.31-1.46-.42-1.94z" fill="#31201d" opacity=".93"/><path d="m84 240.63c.53-.19 1.59-.55 2.12-.73.36.52 1.09 1.55 1.45 2.07-1.37.04-2.56-.4-3.57-1.34z" fill="#5a4133"/><path d="m119.64 242.07c.36-.11 1.08-.32 1.44-.42 1.15.87 2.47 1.47 3.85 1.9-10.56 4.46-22.24 4.65-33.52 4.5-.58-1.22-1.15-2.44-1.76-3.64 1.06.19 2.12.35 3.19.5 3.33.34 6.68.81 10.03.73 2.04-1.28 3.76-3.18 6.29-3.53-.98 1.37-1.97 2.72-2.98 4.07.95-.01 2.86-.02 3.82-.02 2.98-1.86 6.28-3.12 9.64-4.09z" fill="#34150c"/><path d="m87.57 241.97.45.37-.17.46-.48-.27z" fill="#543929"/><path d="m84.83 243.11c1.45.25 2.93.4 4.4.56l.42.74c.61 1.2 1.18 2.42 1.76 3.64-3.51.07-7.06-.2-10.39-1.43l.77-.74c.99-.95 2.01-1.86 3.04-2.77z" fill="#332f23"/></svg>