<svg xmlns="http://www.w3.org/2000/svg" width="80pt" height="88pt" viewBox="0 0 80 88"><path fill="#5bcefa" d="M33.63 0h1.73c1.67.55 3.16 1.49 4.64 2.41C41.41 1.53 42.83.68 44.35 0h1.78c.74.43 2.22 1.3 2.96 1.73-1.31.48-2.62.94-3.94 1.36C52.8 4.43 59.8 8.8 64.35 15.1h-48.7c4.57-6.24 11.53-10.71 19.2-11.97-1.36-.44-2.66-1.02-3.9-1.7.67-.36 2.01-1.07 2.68-1.43zM19.95 60.37c14.5.05 29 .05 43.5.01-2.88 4.15-5.58 8.42-8.45 12.58-2.54-4.09-4.92-8.28-7.49-12.35-1.7 1.6-3.33 3.26-5.02 4.87-3.29-1.67-6.59-3.31-9.92-4.9-2.63 3.19-5 6.6-7.56 9.86-1.75-3.33-3.38-6.71-5.06-10.07z"/><path fill="#f5a9b8" d="M10.1 30.19c.44-5.42 2.4-10.67 5.55-15.09h48.7c3.14 4.43 5.1 9.68 5.54 15.09-3.9.04-7.79-.11-11.68.12 3.06-2.22 1.76-7.6-2.24-7.3-3.74.3-4.44 5.16-1.71 7.29-2.38-.12-4.76-.17-7.14-.19-1.55-2.49-4.02-4.75-7.16-4.59-3.11-.14-5.54 2.12-7.08 4.59-2.38.01-4.77.07-7.15.19 2.73-2.12 2.05-7-1.7-7.28-4-.33-5.31 5.07-2.26 7.29-3.88-.23-7.78-.08-11.67-.12zM8.39 45.3c21.08 0 42.15.01 63.22-.01.92 4.4 1.47 8.88 1.47 13.38-.14.41-.42 1.22-.55 1.63-2.5-.67-4.97-1.43-7.44-2.18-.55.75-1.1 1.5-1.64 2.26-14.5.04-29 .04-43.5-.01-.78-1.62-1.65-3.19-2.5-4.78-2.45 1.64-4.93 3.23-7.45 4.76-1.1-2.37-2.08-4.77-3.08-7.17.51-2.63.97-5.26 1.47-7.88z"/><path fill="#662113" d="M21.77 30.31c-3.05-2.22-1.74-7.62 2.26-7.29 3.75.28 4.43 5.16 1.7 7.28-1.32.07-2.64.08-3.96.01zm32.49-.01c-2.73-2.13-2.03-6.99 1.71-7.29 4-.3 5.3 5.08 2.24 7.3-1.32.07-2.64.06-3.95-.01z"/><path fill="#f4900c" d="M32.88 30.11c1.54-2.47 3.97-4.73 7.08-4.59 3.14-.16 5.61 2.1 7.16 4.59.49 2.41.78 5.76-1.92 6.98-3.26 1.26-7.12 1.24-10.38.01-2.72-1.21-2.44-4.58-1.94-6.99z"/><path fill="#fff" d="M10.1 30.19c3.89.04 7.79-.11 11.67.12 1.32.07 2.64.06 3.96-.01 2.38-.12 4.77-.18 7.15-.19-.5 2.41-.78 5.78 1.94 6.99 3.26 1.23 7.12 1.25 10.38-.01 2.7-1.22 2.41-4.57 1.92-6.98 2.38.02 4.76.07 7.14.19 1.31.07 2.63.08 3.95.01 3.89-.23 7.78-.08 11.68-.12.07 3.27.06 6.54.65 9.77.32 1.78.71 3.55 1.07 5.33-21.07.02-42.14.01-63.22.01.34-1.78.72-3.55 1.04-5.33.62-3.22.62-6.51.67-9.78z"/><path fill="#99aab5" d="M3.19 44.4c1.45-2.14 2.88-4.29 4.35-6.41.47.5 1.42 1.49 1.89 1.98-.32 1.78-.7 3.55-1.04 5.33-.5 2.62-.96 5.25-1.47 7.88-1.65-3.97-3.37-7.91-5.28-11.76.03-.11.07-.33.1-.44.49 1.13.97 2.28 1.45 3.42zm67.35-4.44c.64-.65 1.28-1.3 1.93-1.95 1.58 3.08 3.13 6.18 4.66 9.28-1.32 3.81-2.64 7.61-4.05 11.38 0-4.5-.55-8.98-1.47-13.38-.36-1.78-.75-3.55-1.07-5.33z"/><path fill="#e1e8ed" d="M1.64 41.42c1.91 3.85 3.63 7.79 5.28 11.76 1 2.4 1.98 4.8 3.08 7.17 2.52-1.53 5-3.12 7.45-4.76.85 1.59 1.72 3.16 2.5 4.78 1.68 3.36 3.31 6.74 5.06 10.07 2.56-3.26 4.93-6.67 7.56-9.86 3.33 1.59 6.63 3.23 9.92 4.9 1.69-1.61 3.32-3.27 5.02-4.87 2.57 4.07 4.95 8.26 7.49 12.35 2.87-4.16 5.57-8.43 8.45-12.58.54-.76 1.09-1.51 1.64-2.26 2.47.75 4.94 1.51 7.44 2.18.13-.41.41-1.22.55-1.63 1.41-3.77 2.73-7.57 4.05-11.38.53-1.53 1.08-3.07 1.65-4.59.49 2.42.96 4.85 1.22 7.31v2.23c-.17 9.27-4.38 18.28-11.15 24.58C61.47 83.88 51.33 87.64 41.19 88h-2.12c-11.64-.28-23.3-5.28-30.84-14.28C3.16 67.81.2 60.17 0 52.39v-1.76c.1-3.13.84-6.19 1.64-9.21z"/></svg>