<svg height="425pt" viewBox="0 0 550 425" width="550pt" xmlns="http://www.w3.org/2000/svg"><path d="m144.37 14.2c10.08-1.4 20.32-2.57 30.5-1.46 2.67.59 5.41.75 8.13.94 21.24 2.9 41.56 11.7 58.43 24.88 4.09 3.92 8.62 7.36 12.45 11.54 3.27 3.81 6.44 7.7 9.64 11.57 1.38-.2 3.14.21 4.09-1.11 2.92-3.12 4.85-7.03 7.86-10.09 17.17-17.62 39.4-30.71 63.66-35.43 36.86-8.14 77.26 2.23 105.5 27.36 6.44 4.84 11.32 11.29 16.49 17.39 2.74 3.11 4.54 6.89 6.62 10.45.48 1.61.87 3.25 1.28 4.88-24 .33-48.01.02-72.02.12-75.67.01-151.33-.02-227 .01-4.09-.09-8.26-.23-12.21-1.44-4.17-1.14-5.53-5.8-8.1-8.8-2.88-5.25-4.62-10.99-6.26-16.72-1.38-4.33-3.79-9.18-8.58-10.39-5.03-1.39-11.8-.8-14.45 4.37-4.95 10.17-6.57 21.86-12.78 31.44-5.14 3.41-11.72 2.83-17.62 2.85-10.21-.42-20.49.79-30.62-.89 4.16-10.91 12.72-19.34 20.34-27.96a237.89 237.89 0 0 1 17.87-15.06c14.34-8.82 30.04-15.83 46.78-18.45zm25.82 334.96c63.23.04 126.46.04 189.7-.01-6.95 6.03-14.51 11.32-21.66 17.11-5.44 4.74-11.9 8.03-17.7 12.27-6.23 4.65-13.28 7.99-19.8 12.19-6.76 3.66-13.43 7.6-20.65 10.32-4.27 1.94-8.44 4.23-13 5.43-6.21.95-11.68-2.87-17.05-5.36-13.72-5.66-26.37-13.53-38.92-21.38-14.58-8.89-27.55-20.03-40.92-30.57z" fill="#5bcefa"/><path d="m120.4 42.27c2.65-5.17 9.42-5.76 14.45-4.37 4.79 1.21 7.2 6.06 8.58 10.39 1.64 5.73 3.38 11.47 6.26 16.72.97 2.98 1.12 6.54 3.41 8.88 3.76 2.49 8.33 3.28 12.59 4.57 5.55 2.14 11.23 4 16.72 6.3 4.17 1.71 7.71 5.55 7.91 10.21.03 4.64-1.97 9.71-6.26 11.96-9.71 5.25-21.49 5.31-30.89 11.25-2.63 4.77-3.58 10.27-5.85 15.22-2.87 6.36-4.36 13.56-8.94 19-3.47 4.17-9.95 4.17-14.29 1.46-2.76-2.17-3.92-5.67-5.28-8.78-3.1-8.16-5.8-16.49-9.48-24.43-.7-1.46-1.59-2.97-3.15-3.65-9.3-4.5-19.91-5.47-29.13-10.18-4.04-1.95-6.03-6.58-6.35-10.83.3-4.79 3.31-9.48 7.88-11.23 6.46-2.7 13.33-4.37 19.56-7.64-13.18-1.12-26.43.08-39.63-.77.22-.17.65-.51.87-.68 10.13 1.68 20.41.47 30.62.89 5.9-.02 12.48.56 17.62-2.85 6.21-9.58 7.83-21.27 12.78-31.44zm262.21 173.35c3.03-4.22 9.11-5.34 13.61-2.88 2.93 1.19 3.9 4.44 5.05 7.09 2.87 7.69 7 14.9 9.05 22.89 1.1 4.52 3.41 8.58 5.05 12.9 1.38 3.51.56 7.81 2.99 10.88 4.66 2.79 10.3 3.13 15.42 4.69.46.17 1.38.52 1.84.7 11.03 3.96 21.92 8.33 32.92 12.36 7.23 3.1 8.17 13.86 2.74 19.03-4.45 2.99-9.79 4.12-14.7 6.1-11.38 4.52-23.01 8.34-34.43 12.73-3.92 1.84-4.44 6.64-5.96 10.22-4.54 11.55-8.51 23.3-12.92 34.9-.95 2.62-1.73 5.37-3.39 7.66-5.25 5.56-15.71 4.46-19.17-2.57-4.05-9.61-6.69-19.81-11.38-29.16-2.44-5.52-4.18-11.31-6.6-16.82-1.28-3.25-4.97-4.17-7.9-5.34-12.09-4-23.88-8.87-35.91-13.07-3.2-1.21-6.6-2.32-9.15-4.7-5.32-5.17-4.21-15.35 2.36-18.97 4.05-2.23 8.52-3.51 12.81-5.19 6.81-2.45 13.41-5.67 20.62-6.79 5.98.35 11.79-1.86 16.86-4.83 3.18-3.79 3.38-9.15 5.59-13.5 3.42-6.77 4.14-14.5 7.53-21.29 2.63-5.56 3.43-11.97 7.07-17.04z" fill="#fff"/><path d="m149.69 65.01c2.57 3 3.93 7.66 8.1 8.8 3.95 1.21 8.12 1.35 12.21 1.44 75.67-.03 151.33 0 227-.01 24.01-.1 48.02.21 72.02-.12-.41-1.63-.8-3.27-1.28-4.88 1.77 2.22 3.11 4.72 4.54 7.16-11.05 1.27-22.19.4-33.28.5-19 .48-38-.1-57 .15-14.66.26-29.33-.41-44 .03-25 .01-50-.38-75 .03-26-.27-52-.1-78-.06-6.44-.39-12.89-.13-19.31.41-4.26-1.29-8.83-2.08-12.59-4.57-2.29-2.34-2.44-5.9-3.41-8.88z" fill="#9bc0db"/><path d="m57.97 76.33.54.02c13.2.85 26.45-.35 39.63.77-6.23 3.27-13.1 4.94-19.56 7.64-4.57 1.75-7.58 6.44-7.88 11.23.32 4.25 2.31 8.88 6.35 10.83 9.22 4.71 19.83 5.68 29.13 10.18 1.56.68 2.45 2.19 3.15 3.65 3.68 7.94 6.38 16.27 9.48 24.43 1.36 3.11 2.52 6.61 5.28 8.78 4.34 2.71 10.82 2.71 14.29-1.46 4.58-5.44 6.07-12.64 8.94-19 2.27-4.95 3.22-10.45 5.85-15.22 9.4-5.94 21.18-6 30.89-11.25 4.29-2.25 6.29-7.32 6.26-11.96-.2-4.66-3.74-8.5-7.91-10.21-5.49-2.3-11.17-4.16-16.72-6.3 6.42-.54 12.87-.8 19.31-.41 26-.04 52-.21 78 .06 25-.41 50-.02 75-.03 14.67-.44 29.34.23 44-.03 19-.25 38 .33 57-.15 11.09-.1 22.23.77 33.28-.5 6.76 11.52 10.14 24.62 12.77 37.61.94 5.27.69 10.66.81 15.99-.1 8.55.47 17.3-2.08 25.59-2.23.35-4.47.69-6.72.8-94.68.01-189.38-.12-284.06-.04-48.78-.09-97.55.2-146.32-.08-3.19-14.97-2.2-30.33-1.14-45.47 2.29-12.36 6.39-24.43 12.43-35.47zm34.01 187.42c86-.22 172.01.13 258.02-.17 4.14-.08 8.3.03 12.42.56-4.98 3.89-11.21 5.48-16.86 8.14-7.21 1.12-13.81 4.34-20.62 6.79-4.29 1.68-8.76 2.96-12.81 5.19-6.57 3.62-7.68 13.8-2.36 18.97 2.55 2.38 5.95 3.49 9.15 4.7 12.03 4.2 23.82 9.07 35.91 13.07 2.93 1.17 6.62 2.09 7.9 5.34 2.42 5.51 4.16 11.3 6.6 16.82-2.06.99-4 2.21-6.07 3.17-9.75-.51-19.51-.05-29.26-.16-46.67-.01-93.34-.02-140 0-8.8.2-17.62-.61-26.39.37l-.72.07c-16.8-13.54-31.87-29.11-46.12-45.29-9.93-12.24-20.64-24.03-28.79-37.57z" fill="#f5a8b8"/><path d="m43.95 118.68c.27-2.35.78-4.66 1.59-6.88-1.06 15.14-2.05 30.5 1.14 45.47 1.65 9.72 4.09 19.28 6.22 28.9-3.45-7.1-4.2-15.08-6.07-22.66-3.4-14.67-4.13-29.86-2.88-44.83z" fill="#80676d" opacity=".57"/><path d="m477.06 157.39c2.25-.11 4.49-.45 6.72-.8-3.39 20.44-9.07 40.55-18.03 59.28-7.51 17.04-17.46 32.83-27.48 48.47l-.74-.08c-5.93-.82-11.96-.96-17.89-.08 4.33 3.05 9.47 4.58 14.14 7.01-5.12-1.56-10.76-1.9-15.42-4.69-2.43-3.07-1.61-7.37-2.99-10.88-1.64-4.32-3.95-8.38-5.05-12.9-2.05-7.99-6.18-15.2-9.05-22.89-1.15-2.65-2.12-5.9-5.05-7.09-4.5-2.46-10.58-1.34-13.61 2.88-3.64 5.07-4.44 11.48-7.07 17.04-3.39 6.79-4.11 14.52-7.53 21.29-2.21 4.35-2.41 9.71-5.59 13.5-5.07 2.97-10.88 5.18-16.86 4.83 5.65-2.66 11.88-4.25 16.86-8.14-4.12-.53-8.28-.64-12.42-.56-86.01.3-172.02-.05-258.02.17-1.15-.27-1.52-1.59-2.22-2.4-15.42-23.33-28.92-48.26-36.86-75.18-2.13-9.62-4.57-19.18-6.22-28.9 48.77.28 97.54-.01 146.32.08 94.68-.08 189.38.05 284.06.04z" fill="#fbfbfb"/><path d="m419.64 264.18c5.93-.88 11.96-.74 17.89.08-.71 2.54-2.45 4.86-1.91 7.63-.46-.18-1.38-.53-1.84-.7-4.67-2.43-9.81-3.96-14.14-7.01z" fill="#f0a9bb"/><path d="m167.61 346.54c8.77-.98 17.59-.17 26.39-.37 46.66-.02 93.33-.01 140 0 9.75.11 19.51-.35 29.26.16-1.12.94-2.26 1.87-3.37 2.82-63.24.05-126.47.05-189.7.01-.86-.88-1.72-1.75-2.58-2.62z" fill="#b3b7d4"/></svg>