<svg xmlns="http://www.w3.org/2000/svg" width="400" height="400" viewBox="0 0 300 300"><g fill="#ed0008"><path d="M125.74 19.38c3.72-.48 7.45-1.05 11.22-.97 14.01.09 28.02-.03 42.03.03 6.07.12 11.38 3.39 16.66 5.98 5.78 2.89 12.5 4.1 17.4 8.58 2.72 2.66 7.07 1.57 9.95 3.99 4.01 3.04 8.14 5.9 12.38 8.62 5.68 3.61 10.15 8.7 13.71 14.36 2.42 3.5 5.54 6.41 8.59 9.34a53.61 53.61 0 0 1 10.06 13.23c2.04 3.81 2.62 8.15 4.04 12.19 1.28 3.7 3.51 6.95 5.38 10.35 2.78 4.96 4.26 10.5 6.3 15.77 2.62 6.5-.11 13.45.08 20.16.47 1.02-1.12 2.82-1.71 1.39-.58-2.69-.32-5.46.62-8.04a245.7 245.7 0 0 1-3.46-2.11c1.14-2.88 2.13-5.81 3.04-8.77-1.45 1.05-2.89 2.1-4.36 3.12-.87-3.86-1.01-7.83-1.62-11.73-2.24-7.81-6-15.09-8.32-22.87-1.61-5.45-3.39-11.11-7.4-15.31-4.01-4.72-9.58-7.86-13.2-12.93-3.06-3.92-5.08-8.64-8.79-12.05-4.8-4.44-10.64-7.49-16.19-10.85-2.62-1.69-5.68-2.33-8.53-3.47-2.61-1.59-4.53-4.18-7.41-5.35-3.16-1.4-6.66-1.47-10.01-2.03-3.83-.59-5.85-4.42-9.38-5.67-7.87-3.09-16.5-3.41-24.85-3.6-9.32.97-18.71.85-28.06.65-2.62-.17-4.86 1.32-7.29 2-2.83.38-5.87-.66-8.53.76-3.03 1.43-6.37 1.82-9.57 2.66-3.82 1.02-7.16 3.22-10.55 5.19-5.28 3.12-11.41 4.79-16.12 8.87-3.69 3.16-7.64 6.03-12.08 8.07-.35-.66-1.07-1.98-1.42-2.64 2.9-3.39 7.42-4.42 10.91-7.01C85.39 34.88 91.9 31 98.69 27.7c5.77-2.78 11.96-4.51 17.79-7.15 2.9-1.38 6.17-.77 9.26-1.17z"/><path d="M135.79 36.71c2.37.5 4.44 1.88 6.73 2.63 4.1 1.65 8.59 1.08 12.9 1.14.03-1.47.04-2.95.06-4.42 1.81.94 3.46 2.57 5.64 2.45 4.08-.03 8.03 1.12 11.86 2.42 2.66 1.19 5.4-.37 8.1-.51 1.3.76 2.41 1.79 3.58 2.71-.58-1.93-1.14-3.87-1.53-5.85 2.61 1.79 5.31 5.4 3.71 8.57-.36.22-1.09.65-1.45.87-8.01-.51-15.33-4.74-23.39-5.01-4.04.18-7.92 1.78-11.98 1.68-4.56-.48-9.01-2.58-13.66-1.68-5.33 1.02-10.39 3.13-15.74 4.08-2.19.55-4.52.59-6.59 1.51-2.42 1.51-4.4 3.74-7.16 4.69-4.6 1.64-9.39 2.93-13.61 5.47-3.02 1.83-5.14 4.74-7.87 6.92-3.56 2.89-7.97 4.58-11.36 7.7-2.53 2.35-2.93 6.16-5.49 8.48-2.43 2.23-4.98 4.44-6.52 7.43-2.73 5.13-6.78 9.43-9.3 14.69-2.61 5.42-4.56 11.23-5.09 17.25 5.13-7.34 6.96-16.92 14.15-22.81.07 5.58-2.01 10.81-3.07 16.21-1.1 5.61-1.58 11.31-2.28 16.99-2.56.36-5.07 1.13-7.67 1.23-2.58-.12-5.08-.91-7.66-1.07.93-6.61 3.57-12.81 4.83-19.36 1.53-5.12 2.23-10.95 6.37-14.77 3.7-3.69 6.21-8.29 8.77-12.79-1.58.51-3.17.97-4.77 1.39.54-1.94 1.04-3.89 1.85-5.73 2.02.08 3.89.9 5.76 1.59l-4.29-3.96c1.39-1.51 2.5-3.41 4.35-4.4 1.36.1 2.68.45 3.99.78-.77-1.14-1.51-2.31-2.23-3.48 2.57-.28 5.43.23 7.68-1.33 2.71-1.66 5.44-3.27 8.07-5.06 3.97-2.93 6.15-7.59 7.41-12.24 3.58.58 7.4 1.1 10.82-.51 4.16-1.28 7.43-4.23 10.81-6.83 2.83-.57 5.84.13 8.61-.93 5.75-1.5 10.96-4.52 16.66-6.14z"/><path d="M146.34 36.27c2.77.56 6.51-.85 8.44 1.7-2.12 2.37-5.72 1.23-8.53 1.41.02-.78.07-2.33.09-3.11zm41.88 2.34c1.6-.96 3.2 1.8 1.7 2.8-1.66.99-3.27-1.78-1.7-2.8zm-.12 8.19c.66-1.39 1.73-2.51 2.7-3.69 4.44 4.11 9.6 7.97 15.8 8.7l.06 3.09c8.26 4.32 16.81 8.08 25.09 12.34 8.57 6.07 14.16 15.69 17.1 25.63.78 2.37 3.18 3.59 4.68 5.44 3.14 3.08 3.45 7.71 4.06 11.81.36 4.14 4.45 6.82 4.62 11.01.26 2.63.65 5.25 1.22 7.83 1.24 5.44 1.16 11.05.88 16.59-4.11-5.38-6.89-12.57-13.49-15.4-4.51-.89-5.21-5.76-6.95-9.25-3.76-8.7-9.34-16.43-15.45-23.6-3.21 6.22-6.68 12.31-9.83 18.57 2.33 3.69 4.03 7.74 6.37 11.42-2.83 1.07-6.29 1.2-8.62 3.23-1.33 4.17-.61 8.65-1.06 12.95-.76-.87-1.52-1.73-2.21-2.65-3.03-10.33-8.67-19.9-16.67-27.16-1.84-1.44-3.81-3.24-6.31-3.08-17.39-.03-34.78.04-52.17-.03-5.99-.48-9.63 5.41-12.75 9.64-2.37 3.67.88 7.62 2.22 11.04-2.4-.27-4.82-.83-7.23-.47-3.02 2.26-2.74 6.65-3.95 9.93-1.84-4.05-3.49-9.23-8.73-9.69.33-4.34 2.22-8.47 2.17-12.84-1.01-4.35-4.31-7.84-5.21-12.23-.45-2.33.53-4.94 2.83-5.88 6.22-1.94 13.75 1.72 19.31-2.57 9.63-6.87 21.71-9.68 33.42-9.19 13.4-.44 27.14 1.99 38.91 8.63 4.66 2.52 8.3 6.54 12.98 9.04 1.12-2.33 2.28-4.65 3.48-6.94-18.53-7.69-38.26-13-58.37-13.86-17.41-1.59-34.98.47-52.01 4.16-2.95.77-6.72 1.17-8.01 4.41-4.78 9.36-8.46 19.45-9.55 29.96-.29 2.54-.75 5.06-1.21 7.58-3.32 2.13-4.49 5.99-4.67 9.74-.58 10.55.55 21.53 5.41 31.05 1.71 3.42 5.3 5.13 8.1 7.49.7-1.22 1.4-2.45 2.11-3.67.46.23 1.39.68 1.85.91.54 3.16 1.18 6.3 2.12 9.37.46-1.73.9-3.46 1.21-5.21 2.35 2.58 4.7 5.16 7.15 7.65 3.05-1.35 6.43-1.38 9.69-.99 1.1.1 2.19.22 3.29.33 2.19 4.1 4.16 8.31 6.46 12.34 1.56 2.85 5.02 3.55 7.82 4.59 7 2.08 14.24 3.71 21.57 3.76 3.64-7.15 7.08-14.42 11.19-21.32 3.84.1 7.68.07 11.53.22-2.84 7.09-7.21 13.44-9.91 20.59 7.97-1.4 16.16-3.32 22.72-8.32 6.69-5.28 12.36-12.01 15.84-19.83 2.07-4.44 3.18-9.24 5.14-13.72 1.9 2.5 4.69 4.55 5.43 7.76.91 3.68 1.44 7.48 1.49 11.28.05 3.52-2.32 6.41-4.2 9.18-9.45 13.22-24.17 21.99-39.69 26.19-4.13 1.14-8.41 1.52-12.64 2.14-2.48.24-3.53 2.76-4.61 4.65-2.64 5.19-5.63 10.25-7.55 15.77 6.29.47 12.71.72 18.88-.82 8.91-2.19 17.34-5.87 26-8.8 19.28-7.94 35.18-23.47 44-42.32 1.4-2.83 2.41-5.97 4.7-8.24 4.66-3.09 1.65-9.25 3.61-13.54 2.66-2.08 6.5-1.91 9.09-4.14 1.81-1.72 3.2-3.81 4.76-5.76.36 2.42.72 4.85 1.2 7.25.41 3.52-1.94 6.46-2.77 9.73-.38 2.01-.09 4.05.07 6.07-6.02 4.67-2.78 13.69-8.17 18.68-1.6 1.85-3.38 3.62-4.44 5.85-2.7 6.65-6.04 13.04-9.93 19.07-3.25 4.26-7.17 8.45-12.5 9.94-6.64 1.71-12.3 5.78-17.88 9.59-3.49 2.51-7.56 3.99-11.29 6.08 1.49-.17 2.98-.33 4.47-.49-.15.88-.47 2.64-.62 3.52-2.06-.27-4.1-.69-6.09-1.28-1.44 1.04-2.87 2.09-4.29 3.15-1.13-.53-2.24-1.06-3.36-1.58-.81 2.92-2.02 5.72-3.81 8.19-.21-2.22-.25-4.45-.34-6.67-.8 1.3-1.58 2.62-2.36 3.95-1.55-1.1-3.2-2.48-5.25-2.11-3.81.57-7.32 2.43-11.16 2.88-2.01.28-4.15.08-5.99 1.07-3.49 1.75-7.51 2.19-11.35 1.87-.99-1.28-1.82-2.68-2.7-4.02-3.68.75-7.29 4.27-11.13 2.48-7.13-2.56-14.14-6.19-21.87-6.32-1.65.16-2.83-1.12-4.04-2.01-4.89-4.12-11.42-7.03-17.9-5.66-3.02-8.36-10.21-14.48-18.17-18-2.06-.53-4.22-.27-6.32-.46.83-.97 1.69-1.92 2.55-2.86-1.42.08-2.86.23-4.28.07-1.39-1.24-2.54-2.72-3.76-4.13 1.29-1.34 2.57-2.68 3.81-4.05-1.59.79-3.18 1.61-4.76 2.42-1.07-2.09-2.1-4.21-3.07-6.35 1.74.41 3.47.85 5.2 1.29-1.87-3.27-3.61-6.65-6.06-9.54-2.48-3.19-5.78-5.99-6.9-10.03-2-6.8-3.42-13.77-5.72-20.5-1.64-4.84-.86-10.16-2.87-14.9-1.32-3.39-1.11-7.11-.97-10.68-.15-1.92 1.66-3 2.68-4.36-1.37-.46-2.75-.93-4.12-1.39 1.33.13 2.66.27 3.99.41.78 2.7 1.59 5.39 2.38 8.09.6-.07 1.79-.22 2.38-.29.43-5.59.83-11.18 1.45-16.75 2.39 11.06.66 22.35 1.41 33.52-1.62-5.28-2.34-10.77-3.61-16.13-.76 1.72-1.75 3.51-1.27 5.45 1 5.6.95 11.38 2.63 16.86 1.39 6.2 2.44 12.55 5 18.42 2.33 6.18 7.09 10.94 10.12 16.73 1.66 3.19 3.96 5.99 6.74 8.27 3.12 2.4 3.81 6.67 6.81 9.18 3.08 2.71 7.02 4.19 10.14 6.86 3.25 2.65 5.75 6.29 9.61 8.13 3.62 1.55 7.48 2.45 11.13 3.94 3.91 1.53 6.72 5.25 11.04 5.83 6.29 1.15 12.46 2.8 18.65 4.39 6.19 1.73 12.26-1.95 18.48-.65 5 .93 10.9 2.44 14.91-1.78-7.9-1.2-15.89-1.62-23.88-1.41-3.28-.78-6.26-2.6-9.57-3.37-9.16-2.54-18.15-5.79-26.66-10.05-13.3-6.57-26.38-14.25-36.75-25.03-7.74-7.57-13.06-17.26-17.37-27.1.03-2.98-.98-6.77 1.71-8.92 2.24-2.03 3.9-4.56 5.36-7.18 11.7 32.62 40.36 58.82 74.07 67.11-3.19-6.69-6.66-13.25-10.09-19.83-1.06-2.37-3.2-3.93-5.55-4.89-17.64-7.84-31.86-22.49-40.46-39.65 1.12-8.08-3.85-14.92-7.93-21.35 3.46-6.23 4.92-15.33-1.28-20.39-.12-5.88 1.91-11.67 1.1-17.55-2.92-7.88-8.23-14.59-11.61-22.22 7.51-3.98 15.37-7.28 23.46-9.91 2.98-1.08 6.24-1.85 8.64-4.06 3.33-3.04 6.52-6.23 10.09-8.99 14.74-11.79 33.1-18.71 51.86-20.31 24.69-.77 49.26 7.58 69.15 22.08 5.17 3.52 9.45 8.15 14.59 11.7-.5-2.6-.5-5.72-2.7-7.58-2.7-2.37-6.11-3.76-8.83-6.13-3.7-3.13-8.43-4.71-12.06-7.95-2.58-2.45-6.12-3.2-9.17-4.83-3.7-2.54-6.8-5.86-10.55-8.33-2.27-1.35-4.94-1.76-7.31-2.9m-76.93 29.84c15.49-1.98 31.19-4.35 46.81-2.38 15.26.67 30.43 3.65 44.93 8.44 5.77 1.75 11.24 4.3 16.97 6.16-12.91-11.84-28.86-20.52-46.01-24.24-8.15-1.84-16.56-1.27-24.84-1.05-13.37 1.51-26.67 5.39-37.86 13.07M76.58 98.76c.01.84.02 1.69.04 2.54.57.09 1.72.28 2.29.37.55-1.7 1.14-3.38 1.83-5.02-1.35.77-2.75 1.46-4.16 2.11m63.7 123.43c1.45 3.59 3.1 7.16 5.62 10.14 1.52-2.84 2.96-5.72 4.22-8.68-3.16-1.12-6.51-1.39-9.84-1.46z"/><path d="M197.11 45.33c2.53-.29 4.63.75 5.97 2.92-1.42.17-2.83.3-4.25.42-.43-.84-1.29-2.51-1.72-3.34zM55.63 55.59c2.36-2.69 4.91-5.49 8.38-6.7.93-.06 2.79-.16 3.72-.21-3.19 4.16-8.02 6.66-11.11 10.91-3.28 4.37-6.73 8.61-10.26 12.77-3.85 4.36-5.78 9.96-9.4 14.47-2.29 4-6.36 7.04-7.34 11.71-.36 3.64.17 7.31-.12 10.96-.47 3.7 2.18 6.69 3.35 10-2.74.01-5.47.03-8.2-.01-.65 3.6-1.31 7.22-1.23 10.9-.9-.01-1.8-.01-2.7-.01.41-6.38 2.16-12.64 1.81-19.06-.33-4.41 1.85-8.35 3.59-12.24 1.67-3.62 2.58-7.66 5.14-10.8 2.06-2.42 3.04-5.52 5.03-7.99 6.56-8.14 12.5-16.77 19.34-24.7zm74 63.12c1.32-2.86 4.74-2.38 7.32-2.45 14.71.12 29.42-.05 44.12.08 2.56-.37 4.53 1.53 5.45 3.74-.33 3.48-2.2 6.54-3.46 9.73 3.79 3.6 7.81 7.19 10.3 11.87 3.55 6.28 3.55 13.75 2.02 20.61-4.93-7.19-9.56-14.85-11.55-23.43-.82-3.4-2.18-6.63-3.83-9.7-3.76.6-7.52 1.2-11.32 1.36-.47-1-.94-1.99-1.42-2.98-7.25-.03-14.51-.03-21.76 0-.1 1.29-.19 2.59-.27 3.89-3.99.4-8 .23-12.01.14-1.86-4.01-5.13-8.19-3.59-12.86z"/><path d="M155.99 130.24c1.59.2 3.23.18 4.76.72 2.67.79 2.15 4.38 1.64 6.5-2.33 5.43-5.41 10.51-8 15.82-1.11 2.52-3.15 4.4-5.37 5.94-3.61-3.4-5.58-7.98-7.77-12.32 2.98-2.34 5.9-4.82 7.9-8.1 2.93-2.28 4.98-5.4 6.84-8.56zm-25.77 13.01c1.3-.03 2.61-.06 3.91-.06.31 1.41.62 2.82.95 4.23-1.48.05-2.97.08-4.46.11-.13-1.43-.27-2.85-.4-4.28zm-17.24 19.8c.58-2.87 1.11-5.76 1.9-8.58 1.14 3.68 1.85 7.56.98 11.38-.97-.92-1.93-1.86-2.88-2.8zm19.51-6.51c2.78-.11 5.57-.08 8.34.12-.01.74-.05 2.23-.07 2.98-3.2.43-6.32-.4-8.27-3.1zm20.23 11.91c1.24-2.13 2.47-4.27 3.63-6.44 1.16 4.51 3.15 8.79 3.82 13.42.58 3.97.83 7.99 1.11 11.99-4.63-.33-9.01 1.03-12.46 4.15-2.23-2.12-4.1-4.74-6.9-6.15-3.68-1.84-7.42-3.56-11.1-5.4.02-2.66-.22-6.08 1.95-7.98 4.84-1.19 9.84-1.68 14.69-2.86 1.74-.31 3.5-.52 5.26-.73zm25.75-4.29c.89.84 1.77 1.68 2.63 2.55 1.08 1.15 2.17 2.29 3.23 3.47-.4 3.33 1.18 7.87-2.27 9.97-5.47 3.9-12.01 6.11-18.63 7.02-.21-4.07-.21-8.17.44-12.2 5.86-2.04 10.82-5.93 14.6-10.81zm46 18.08c-2.6-6.24 2.19-11.99 4.63-17.42-.82 5.97-2.36 11.84-4.63 17.42zm55.67-15.61c.93 0 2.8-.01 3.73-.01 2.99 4.89 1.66 10.78-.43 15.71-1.37 3.47-2.01 7.2-3.58 10.59-2.04 4.53-5.25 8.45-6.99 13.12-1.27 3.44-1.19 7.39-3.33 10.5-3.61 5.35-6.55 11.24-11.14 15.87-1.4 1.33-2.77 2.99-4.77 3.37-1.12.16-1.8.8-2.06 1.9-1.05 2.42-2.74 4.59-4.63 6.43-.34.4-1.01 1.2-1.35 1.61-4.88 9.81-16.3 13.21-24.74 19.21-2.6.39-5.57.36-7.23 2.75-4.02 4.35-10.11 5.4-15.43 7.34-4.03 1.37-7.35 4.16-11.27 5.76-2.85 1.12-5.95.68-8.92.58-4.79-.49-9.24 3.15-14.02 1.41-2.56-.78-5.17-1.51-7.88-1.4-9.7 0-19.41.38-29.11.02-9.22-.5-17.36-5.23-25.76-8.57-7.93-3.8-15.9-7.73-22.91-13.09-3.41-2.37-7.4-4.1-9.85-7.61 4.16-.2 7.84 1.85 10.86 4.53 4.91 4.35 10.62 7.7 16.61 10.33 4.73 2.11 8.9 5.42 13.96 6.8 3.36.88 6.76 1.68 9.91 3.2 2.77 1.48 5.92-1.01 8.66.4 2.38.99 4.71 2.56 7.42 2.11 5.27-.63 10.59-1.56 15.89-.58 8.54 1.6 17.4-.73 25.78 1.83-.37-.64-.74-1.27-1.12-1.89 4.09-.91 8.39-1.36 12.14-3.35 2.46-1.27 4.21-3.72 6.95-4.44 4.75-1.34 10.1-1.34 14.2-4.42 2.08-1.39 3.68-3.58 6.18-4.22 7.18-1.82 12.51-7.31 18.97-10.6 4.59-2.27 7.66-6.41 10.03-10.8 4.32-6.88 10.55-12.24 16.52-17.62 6.05-6.54 6.21-15.99 10.13-23.63 2.39-4.79 4.13-9.88 5.57-15.02.59-3.91.2-7.93 1.33-11.77 1.51 1.53 2.99 3.11 4.45 4.71-1.19-3.62-2.38-7.26-2.77-11.06zm-155.11 5.5c.61.1 1.83.28 2.44.37.21 1.5.43 3 .63 4.51-1.51-.72-3.02-1.45-4.51-2.19.47-.9.95-1.8 1.44-2.69zm-102.4 6.45c2.97 2.67 1.56 6.62 1.01 9.97-.27-3.33-.87-6.63-1.01-9.97zm5.08 2.71c1.17.04 2.34.08 3.51.08.43 0 1.29-.01 1.71-.01-.51 3.25-2.93 6.03-2.5 9.44.2 2.9-.25 5.76-.49 8.63.81 6.29 5.83 10.6 8.83 15.84 5.1 8.39 11.17 16.11 16.97 24.01 3.33 4.66 8.2 7.76 12.47 11.44-.55.12-1.64.38-2.18.51-5.08-1.27-8.62-5.64-11.65-9.65-5.57-7.68-12.13-14.61-17.46-22.46-4.31-6.96-8.03-14.27-11.31-21.77-1.1-2.49-1.68-5.18-1.92-7.88 1.29-.61 2.57-1.23 3.86-1.85.02-2.11.03-4.23.16-6.33z"/><path d="M188.92 259.33c1.39-1.14 3.34 1.14 1.73 2.19-1.4 1.19-3.33-1.16-1.73-2.19z"/></g><g fill="#01c0bf"><path d="M133.91 21.39c9.35.2 18.74.32 28.06-.65 8.35.19 16.98.51 24.85 3.6 3.53 1.25 5.55 5.08 9.38 5.67 3.35.56 6.85.63 10.01 2.03 2.88 1.17 4.8 3.76 7.41 5.35 2.85 1.14 5.91 1.78 8.53 3.47 5.55 3.36 11.39 6.41 16.19 10.85 3.71 3.41 5.73 8.13 8.79 12.05 3.62 5.07 9.19 8.21 13.2 12.93 4.01 4.2 5.79 9.86 7.4 15.31 2.32 7.78 6.08 15.06 8.32 22.87.61 3.9.75 7.87 1.62 11.73 1.47-1.02 2.91-2.07 4.36-3.12-.91 2.96-1.9 5.89-3.04 8.77 1.15.71 2.3 1.42 3.46 2.11-.94 2.58-1.2 5.35-.62 8.04-2.86-4.48-4.82-9.75-8.95-13.27-2.92-1.46-6.35-.3-9.45-.17-.57-2.58-.96-5.2-1.22-7.83-.17-4.19-4.26-6.87-4.62-11.01-.61-4.1-.92-8.73-4.06-11.81-1.5-1.85-3.9-3.07-4.68-5.44-2.94-9.94-8.53-19.56-17.1-25.63-8.28-4.26-16.83-8.02-25.09-12.34l-.06-3.09c-6.2-.73-11.36-4.59-15.8-8.7-.97 1.18-2.04 2.3-2.7 3.69 2.37 1.14 5.04 1.55 7.31 2.9 3.75 2.47 6.85 5.79 10.55 8.33 3.05 1.63 6.59 2.38 9.17 4.83 3.63 3.24 8.36 4.82 12.06 7.95 2.72 2.37 6.13 3.76 8.83 6.13 2.2 1.86 2.2 4.98 2.7 7.58-5.14-3.55-9.42-8.18-14.59-11.7-19.89-14.5-44.46-22.85-69.15-22.08-18.76 1.6-37.12 8.52-51.86 20.31-3.57 2.76-6.76 5.95-10.09 8.99-2.4 2.21-5.66 2.98-8.64 4.06-8.09 2.63-15.95 5.93-23.46 9.91 3.38 7.63 8.69 14.34 11.61 22.22.81 5.88-1.22 11.67-1.1 17.55-4.44-2.8-9.82-3.76-15.01-3.46.7-5.68 1.18-11.38 2.28-16.99 1.06-5.4 3.14-10.63 3.07-16.21-7.19 5.89-9.02 15.47-14.15 22.81.53-6.02 2.48-11.83 5.09-17.25 2.52-5.26 6.57-9.56 9.3-14.69 1.54-2.99 4.09-5.2 6.52-7.43 2.56-2.32 2.96-6.13 5.49-8.48 3.39-3.12 7.8-4.81 11.36-7.7 2.73-2.18 4.85-5.09 7.87-6.92 4.22-2.54 9.01-3.83 13.61-5.47 2.76-.95 4.74-3.18 7.16-4.69 2.07-.92 4.4-.96 6.59-1.51 5.35-.95 10.41-3.06 15.74-4.08 4.65-.9 9.1 1.2 13.66 1.68 4.06.1 7.94-1.5 11.98-1.68 8.06.27 15.38 4.5 23.39 5.01.36-.22 1.09-.65 1.45-.87 1.6-3.17-1.1-6.78-3.71-8.57.39 1.98.95 3.92 1.53 5.85-1.17-.92-2.28-1.95-3.58-2.71-2.7.14-5.44 1.7-8.1.51-3.83-1.3-7.78-2.45-11.86-2.42-2.18.12-3.83-1.51-5.64-2.45-.02 1.47-.03 2.95-.06 4.42-4.31-.06-8.8.51-12.9-1.14-2.29-.75-4.36-2.13-6.73-2.63-5.7 1.62-10.91 4.64-16.66 6.14-2.77 1.06-5.78.36-8.61.93-3.38 2.6-6.65 5.55-10.81 6.83-3.42 1.61-7.24 1.09-10.82.51-1.26 4.65-3.44 9.31-7.41 12.24-2.63 1.79-5.36 3.4-8.07 5.06-2.25 1.56-5.11 1.05-7.68 1.33.72 1.17 1.46 2.34 2.23 3.48-1.31-.33-2.63-.68-3.99-.78-1.85.99-2.96 2.89-4.35 4.4l4.29 3.96c-1.87-.69-3.74-1.51-5.76-1.59-.81 1.84-1.31 3.79-1.85 5.73 1.6-.42 3.19-.88 4.77-1.39-2.56 4.5-5.07 9.1-8.77 12.79-4.14 3.82-4.84 9.65-6.37 14.77-1.26 6.55-3.9 12.75-4.83 19.36-5.89 1.13-11.78.2-17.68-.09-.08-3.68.58-7.3 1.23-10.9 2.73.04 5.46.02 8.2.01-1.17-3.31-3.82-6.3-3.35-10 .29-3.65-.24-7.32.12-10.96.98-4.67 5.05-7.71 7.34-11.71 3.62-4.51 5.55-10.11 9.4-14.47 3.53-4.16 6.98-8.4 10.26-12.77 3.09-4.25 7.92-6.75 11.11-10.91-.93.05-2.79.15-3.72.21 1.58-.63 3.35-1.1 4.34-2.59.35.66 1.07 1.98 1.42 2.64 4.44-2.04 8.39-4.91 12.08-8.07 4.71-4.08 10.84-5.75 16.12-8.87 3.39-1.97 6.73-4.17 10.55-5.19 3.2-.84 6.54-1.23 9.57-2.66 2.66-1.42 5.7-.38 8.53-.76 2.43-.68 4.67-2.17 7.29-2m12.43 14.88c-.02.78-.07 2.33-.09 3.11 2.81-.18 6.41.96 8.53-1.41-1.93-2.55-5.67-1.14-8.44-1.7m41.88 2.34c-1.57 1.02.04 3.79 1.7 2.8 1.5-1-.1-3.76-1.7-2.8m8.89 6.72c.43.83 1.29 2.5 1.72 3.34 1.42-.12 2.83-.25 4.25-.42-1.34-2.17-3.44-3.21-5.97-2.92M40.14 85.25c-1.62-.11-1.83 2.67-.12 2.61 1.62.09 1.84-2.65.12-2.61m16.96 1.16c-1.46-.12-1.68 2.33-.12 2.27 1.47.14 1.69-2.34.12-2.27z"/><path d="M111.17 76.64c11.19-7.68 24.49-11.56 37.86-13.07 8.28-.22 16.69-.79 24.84 1.05 17.15 3.72 33.1 12.4 46.01 24.24-5.73-1.86-11.2-4.41-16.97-6.16-14.5-4.79-29.67-7.77-44.93-8.44-15.62-1.97-31.32.4-46.81 2.38zm-6.18 12.68c17.03-3.69 34.6-5.75 52.01-4.16 20.11.86 39.84 6.17 58.37 13.86-1.2 2.29-2.36 4.61-3.48 6.94-4.68-2.5-8.32-6.52-12.98-9.04-11.77-6.64-25.51-9.07-38.91-8.63-11.71-.49-23.79 2.32-33.42 9.19-5.56 4.29-13.09.63-19.31 2.57-2.3.94-3.28 3.55-2.83 5.88.9 4.39 4.2 7.88 5.21 12.23.05 4.37-1.84 8.5-2.17 12.84-2.43 2-6.97 3.12-6.67 6.99.79 6.2 1.07 12.51.01 18.7-.58 1.45-1.95 2.37-2.92 3.54-1.05-1.66-2.95-3.14-2.71-5.3.06-3.57 2.84-6.72 1.98-10.34-.78-4.06-1.51-8.14-1.96-12.25-2.98-.45-5.99-.74-8.99-1.07.46-2.52.92-5.04 1.21-7.58 1.09-10.51 4.77-20.6 9.55-29.96 1.29-3.24 5.06-3.64 8.01-4.41zm-28.41 9.44c1.41-.65 2.81-1.34 4.16-2.11-.69 1.64-1.28 3.32-1.83 5.02-.57-.09-1.72-.28-2.29-.37-.02-.85-.03-1.7-.04-2.54zm151.84-1.46c6.11 7.17 11.69 14.9 15.45 23.6 1.74 3.49 2.44 8.36 6.95 9.25-5.17-1.52-11.51-.62-15.6 3.05-3.39 4.29-3.76 10.03-5.6 15.02-.81-4.97-.84-10.01-1.25-15.02-.13-2.42-2.1-4.07-3.41-5.91-2.34-3.68-4.04-7.73-6.37-11.42 3.15-6.26 6.62-12.35 9.83-18.57z"/><path d="M125.17 120.19c3.12-4.23 6.76-10.12 12.75-9.64 17.39.07 34.78 0 52.17.03 2.5-.16 4.47 1.64 6.31 3.08 8 7.26 13.64 16.83 16.67 27.16-3.01-3.76-4.61-8.65-8.51-11.67-2.49-1.64-5.54-.26-8.15.28.34 11.22-.16 22.44.16 33.65-.04 2.95 1.78 5.43 2.99 8 3.32.05 5.22 2.6 6.68 5.26.94-3.03 2.01-6.02 3.28-8.93 1.43-3.05.82-6.5 1.04-9.76 1.48 2.84 2.75 5.79 4.28 8.6-1.96 4.48-3.07 9.28-5.14 13.72-3.48 7.82-9.15 14.55-15.84 19.83-6.56 5-14.75 6.92-22.72 8.32 2.7-7.15 7.07-13.5 9.91-20.59-3.85-.15-7.69-.12-11.53-.22-4.11 6.9-7.55 14.17-11.19 21.32-7.33-.05-14.57-1.68-21.57-3.76-2.8-1.04-6.26-1.74-7.82-4.59-2.3-4.03-4.27-8.24-6.46-12.34-1.54-4.34-1.29-9.15 1.11-13.12 1.49.74 3 1.47 4.51 2.19.32 2.49.37 5.01.47 7.52.69-.06 2.07-.17 2.76-.23-.18-1.43-.35-2.85-.51-4.28 3.68 1.84 7.42 3.56 11.1 5.4 2.8 1.41 4.67 4.03 6.9 6.15 3.45-3.12 7.83-4.48 12.46-4.15.54-.06 1.61-.18 2.15-.25 6.62-.91 13.16-3.12 18.63-7.02 3.45-2.1 1.87-6.64 2.27-9.97.42 2.54.58 5.13.24 7.69-.71 5.04.39 10.08.55 15.12.53-.17 1.6-.52 2.14-.69.82-4.66 1.2-9.37 1.33-14.09-.06-5.18 5.62-7.16 7.64-11.33-.06-1.56-.51-3.07-.85-4.59 1.53-6.86 1.53-14.33-2.02-20.61-2.49-4.68-6.51-8.27-10.3-11.87 1.26-3.19 3.13-6.25 3.46-9.73-.92-2.21-2.89-4.11-5.45-3.74-14.7-.13-29.41.04-44.12-.08-2.58.07-6-.41-7.32 2.45-1.54 4.67 1.73 8.85 3.59 12.86-1.94-.04-3.89-.11-5.83-.34-1.34-3.42-4.59-7.37-2.22-11.04zm-102.64-8.87c.35 6.42-1.4 12.68-1.81 19.06-4.22.15-8.44-.16-12.66-.07-.93 3.9.32 7.86.43 11.79.05 4.14 1.82 7.99 2.27 12.08-.72-3.18-2.46-6.07-3.26-9.16 1.16-5.14-1.35-10.33.1-15.44 3.3-.25 6.59.64 9.89.09 1.05-6.23 2.1-12.71 5.04-18.35z"/><path d="M145.5 127.54c7.25-.03 14.51-.03 21.76 0 .48.99.95 1.98 1.42 2.98-2.95 4.74-3.78 10.33-5.74 15.47-2.03 5.41-3.7 10.99-6.59 16.02-1.16 2.17-2.39 4.31-3.63 6.44-1.76.21-3.52.42-5.26.73-.21-3.22-.6-6.41-1.16-9.59-1.85 0-3.69.01-5.54.05.02-.75.06-2.24.07-2.98.44-3.13.83-6.31.26-9.45-2.01.05-4.01.13-6.01.21-.33-1.41-.64-2.82-.95-4.23 2.91-.13 5.43 1.45 7.12 3.71 2.19 4.34 4.16 8.92 7.77 12.32 2.22-1.54 4.26-3.42 5.37-5.94 2.59-5.31 5.67-10.39 8-15.82.51-2.12 1.03-5.71-1.64-6.5-1.53-.54-3.17-.52-4.76-.72-1.86 3.16-3.91 6.28-6.84 8.56-1.21-2.5-2.37-5.05-3.92-7.37.08-1.3.17-2.6.27-3.89zm-85.27 15.79c.62.01 1.86.04 2.48.06.35 1.14.7 2.28 1.05 3.43-.84.34-1.67.67-2.51 1.01-.36-1.5-.7-3-1.02-4.5z"/><path d="M15.6 158.73c-1.41-4.86.98-9.5 2.77-13.89 2.13 8.6.63 17.52.3 26.23-.14 3.04 2.43 5.15 3.96 7.51.14 3.34.74 6.64 1.01 9.97l.05.92c.24 2.7.82 5.39 1.92 7.88 3.28 7.5 7 14.81 11.31 21.77 5.33 7.85 11.89 14.78 17.46 22.46 3.03 4.01 6.57 8.38 11.65 9.65.54-.13 1.63-.39 2.18-.51-4.27-3.68-9.14-6.78-12.47-11.44-5.8-7.9-11.87-15.62-16.97-24.01-3-5.24-8.02-9.55-8.83-15.84.24-2.87.69-5.73.49-8.63-.43-3.41 1.99-6.19 2.5-9.44.24-3.7 1.62-7.11 2.81-10.56.2-8.44-2.15-17.62 2.11-25.44 1.37.46 2.75.93 4.12 1.39-1.02 1.36-2.83 2.44-2.68 4.36-.14 3.57-.35 7.29.97 10.68 2.01 4.74 1.23 10.06 2.87 14.9 2.3 6.73 3.72 13.7 5.72 20.5 1.12 4.04 4.42 6.84 6.9 10.03 2.45 2.89 4.19 6.27 6.06 9.54-1.73-.44-3.46-.88-5.2-1.29.97 2.14 2 4.26 3.07 6.35 1.58-.81 3.17-1.63 4.76-2.42-1.24 1.37-2.52 2.71-3.81 4.05 1.22 1.41 2.37 2.89 3.76 4.13 1.42.16 2.86.01 4.28-.07-.86.94-1.72 1.89-2.55 2.86 2.1.19 4.26-.07 6.32.46 7.96 3.52 15.15 9.64 18.17 18 6.48-1.37 13.01 1.54 17.9 5.66 1.21.89 2.39 2.17 4.04 2.01 7.73.13 14.74 3.76 21.87 6.32 3.84 1.79 7.45-1.73 11.13-2.48.88 1.34 1.71 2.74 2.7 4.02 3.84.32 7.86-.12 11.35-1.87 1.84-.99 3.98-.79 5.99-1.07 3.84-.45 7.35-2.31 11.16-2.88 2.05-.37 3.7 1.01 5.25 2.11.78-1.33 1.56-2.65 2.36-3.95.09 2.22.13 4.45.34 6.67 1.79-2.47 3-5.27 3.81-8.19 1.12.52 2.23 1.05 3.36 1.58 1.42-1.06 2.85-2.11 4.29-3.15 1.99.59 4.03 1.01 6.09 1.28.15-.88.47-2.64.62-3.52-1.49.16-2.98.32-4.47.49 3.73-2.09 7.8-3.57 11.29-6.08 5.58-3.81 11.24-7.88 17.88-9.59 5.33-1.49 9.25-5.68 12.5-9.94 3.89-6.03 7.23-12.42 9.93-19.07 1.06-2.23 2.84-4 4.44-5.85 5.39-4.99 2.15-14.01 8.17-18.68-.16-2.02-.45-4.06-.07-6.07.83-3.27 3.18-6.21 2.77-9.73 2.1 4.15 6.84 5.64 9.6 9.24.67-3.14 1.72-6.16 2.99-9.1 1.26-2.94.56-6.2.62-9.28 1.77 2.98 3.56 5.94 5.35 8.91-.93 0-2.8.01-3.73.01.39 3.8 1.58 7.44 2.77 11.06-1.46-1.6-2.94-3.18-4.45-4.71-1.13 3.84-.74 7.86-1.33 11.77-1.44 5.14-3.18 10.23-5.57 15.02-3.92 7.64-4.08 17.09-10.13 23.63-5.97 5.38-12.2 10.74-16.52 17.62-2.37 4.39-5.44 8.53-10.03 10.8-6.46 3.29-11.79 8.78-18.97 10.6-2.5.64-4.1 2.83-6.18 4.22-4.1 3.08-9.45 3.08-14.2 4.42-2.74.72-4.49 3.17-6.95 4.44-3.75 1.99-8.05 2.44-12.14 3.35.38.62.75 1.25 1.12 1.89-8.38-2.56-17.24-.23-25.78-1.83-5.3-.98-10.62-.05-15.89.58-2.71.45-5.04-1.12-7.42-2.11-2.74-1.41-5.89 1.08-8.66-.4-3.15-1.52-6.55-2.32-9.91-3.2-5.06-1.38-9.23-4.69-13.96-6.8-5.99-2.63-11.7-5.98-16.61-10.33-3.02-2.68-6.7-4.73-10.86-4.53 2.45 3.51 6.44 5.24 9.85 7.61 7.01 5.36 14.98 9.29 22.91 13.09 8.4 3.34 16.54 8.07 25.76 8.57 9.7.36 19.41-.02 29.11-.02 2.71-.11 5.32.62 7.88 1.4-1.97 1.65-4.61 1.15-6.98 1.28-6.01-.05-12.02.14-18.03-.11-13.48-1.87-27.15-4-39.79-9.32-29.63-11.59-54.64-34.34-69.19-62.62-8.54-16.46-13.4-34.78-14.39-53.27m24.47 53.57c-1.51 1.02.28 3.46 1.7 2.29 1.54-1.02-.28-3.43-1.7-2.29m16.44-.06c-1.01 1.25 1.06 3.02 2.04 1.64 1.03-1.26-1.09-3.09-2.04-1.64m132.41 47.09c-1.6 1.03.33 3.38 1.73 2.19 1.61-1.05-.34-3.33-1.73-2.19zm56.78-111.46c1-.29 2.01-.52 3.04-.7-.05 1.92-.24 3.84-.62 5.73-1.25-.2-2.49-.4-3.73-.6.32-1.49-.13-3.43 1.31-4.43z"/><path d="M229.6 151.97c1.27 4.79 3.19 9.37 5.73 13.62 3.1 5.07 1.85 11.41 4.58 16.64 1.63-5.08 1.89-10.53 4-15.46 2.68 4.99 2.6 10.76 2.74 16.27-2.29 2.27-3.3 5.41-4.7 8.24-8.82 18.85-24.72 34.38-44 42.32-8.66 2.93-17.09 6.61-26 8.8-6.17 1.54-12.59 1.29-18.88.82 1.92-5.52 4.91-10.58 7.55-15.77 1.08-1.89 2.13-4.41 4.61-4.65 4.23-.62 8.51-1 12.64-2.14 20.1-4.95 39.32-18.43 46.6-38.42 2.27-5.58 3.81-11.45 4.63-17.42.79-4.23.69-8.56.5-12.85z"/><path d="M44.58 159.66c-.48-1.94.51-3.73 1.27-5.45 1.27 5.36 1.99 10.85 3.61 16.13 1.97 5.9 3.34 12.04 2.68 18.3l3.47.24c4.31 9.84 9.63 19.53 17.37 27.1 10.37 10.78 23.45 18.46 36.75 25.03 8.51 4.26 17.5 7.51 26.66 10.05 3.31.77 6.29 2.59 9.57 3.37 7.99-.21 15.98.21 23.88 1.41-4.01 4.22-9.91 2.71-14.91 1.78-6.22-1.3-12.29 2.38-18.48.65-6.19-1.59-12.36-3.24-18.65-4.39-4.32-.58-7.13-4.3-11.04-5.83-3.65-1.49-7.51-2.39-11.13-3.94-3.86-1.84-6.36-5.48-9.61-8.13-3.12-2.67-7.06-4.15-10.14-6.86-3-2.51-3.69-6.78-6.81-9.18a26.562 26.562 0 0 1-6.74-8.27c-3.03-5.79-7.79-10.55-10.12-16.73-2.56-5.87-3.61-12.22-5-18.42-1.68-5.48-1.63-11.26-2.63-16.86zm122.69 8.65c3.59-3.08 5.19-7.61 6.94-11.84 2.52 3.26 4.38 6.97 6.89 10.24-.86-.87-1.74-1.71-2.63-2.55-3.78 4.88-8.74 8.77-14.6 10.81.34-2.56 1.38-4.99 3.4-6.66z"/><path d="M61.63 161.35c4.02 5.57 7.25 11.68 10.25 17.85 1 .18 2 .35 3 .53.91 1.95 1.9 3.86 3.02 5.7 1.17-3.23 2.14-6.53 2.75-9.91 8.6 17.16 22.82 31.81 40.46 39.65 2.35.96 4.49 2.52 5.55 4.89 3.43 6.58 6.9 13.14 10.09 19.83-33.71-8.29-62.37-34.49-74.07-67.11.05-3.84-.62-7.63-1.05-11.43zm51.35 1.7c.95.94 1.91 1.88 2.88 2.8-1.02 3.79 1.8 6.88 2.72 10.34.7 3.75.86 7.61.61 11.42-3.26-.39-6.64-.36-9.69.99-2.45-2.49-4.8-5.07-7.15-7.65l.36-2.47c1.17.05 2.35.11 3.53.16.42-2.34.55-4.79 1.52-6.99 1.68-2.91 4.26-5.3 5.22-8.6zm-83.61 9.3c.99 2.92 1.38 5.99 1.85 9.02-1.17 0-2.34-.04-3.51-.08.36-3.02.92-6 1.66-8.94zm110.91 49.84c3.33.07 6.68.34 9.84 1.46-1.26 2.96-2.7 5.84-4.22 8.68-2.52-2.98-4.17-6.55-5.62-10.14zm111.29 15.49c.26-1.1.94-1.74 2.06-1.9.23 1.64-.46 2.27-2.06 1.9zm-5.98 8.04c.34-.41 1.01-1.21 1.35-1.61l.25.84c-.4.19-1.2.57-1.6.77zm-31.97 21.96c1.66-2.39 4.63-2.36 7.23-2.75-2.42.9-5 1.39-7.23 2.75z"/></g><path fill="#111701" d="M249.09 59.97c4.6 5.37 10.54 9.47 14.58 15.33 2.96 4.21 6.36 8.47 6.92 13.77 1.16 9.05 8.72 15.48 10.73 24.24 1.04 5.22 4.97 9.7 3.89 15.3 3.57-.4 8.53-2.67 11.07 1.09 2.05 5.51 1.1 11.53 1.4 17.29-.04 5.6 1.4 11.27.05 16.81-.85 4.13-3.35 7.67-4.39 11.74-1.12 3.02-.29 6.3-1.14 9.37-.65-.14-1.94-.41-2.59-.55-.55-4.85-.17-10.22-3.21-14.36-.44 4.23-.35 8.72-2.96 12.33 2.09-4.93 3.42-10.82.43-15.71-1.79-2.97-3.58-5.93-5.35-8.91-.06 3.08.64 6.34-.62 9.28-1.27 2.94-2.32 5.96-2.99 9.1-2.76-3.6-7.5-5.09-9.6-9.24-.48-2.4-.84-4.83-1.2-7.25-1.56 1.95-2.95 4.04-4.76 5.76-2.59 2.23-6.43 2.06-9.09 4.14-1.96 4.29 1.05 10.45-3.61 13.54-.14-5.51-.06-11.28-2.74-16.27-2.11 4.93-2.37 10.38-4 15.46-2.73-5.23-1.48-11.57-4.58-16.64a52.996 52.996 0 0 1-5.73-13.62c.19 4.29.29 8.62-.5 12.85-2.44 5.43-7.23 11.18-4.63 17.42-7.28 19.99-26.5 33.47-46.6 38.42 15.52-4.2 30.24-12.97 39.69-26.19 1.88-2.77 4.25-5.66 4.2-9.18-.05-3.8-.58-7.6-1.49-11.28-.74-3.21-3.53-5.26-5.43-7.76-1.53-2.81-2.8-5.76-4.28-8.6-.22 3.26.39 6.71-1.04 9.76-1.27 2.91-2.34 5.9-3.28 8.93-1.46-2.66-3.36-5.21-6.68-5.26-1.21-2.57-3.03-5.05-2.99-8-.32-11.21.18-22.43-.16-33.65 2.61-.54 5.66-1.92 8.15-.28 3.9 3.02 5.5 7.91 8.51 11.67.69.92 1.45 1.78 2.21 2.65.45-4.3-.27-8.78 1.06-12.95 2.33-2.03 5.79-2.16 8.62-3.23 1.31 1.84 3.28 3.49 3.41 5.91.41 5.01.44 10.05 1.25 15.02 1.84-4.99 2.21-10.73 5.6-15.02 4.09-3.67 10.43-4.57 15.6-3.05 6.6 2.83 9.38 10.02 13.49 15.4.28-5.54.36-11.15-.88-16.59 3.1-.13 6.53-1.29 9.45.17 4.13 3.52 6.09 8.79 8.95 13.27.59 1.43 2.18-.37 1.71-1.39-.19-6.71 2.54-13.66-.08-20.16-2.04-5.27-3.52-10.81-6.3-15.77-1.87-3.4-4.1-6.65-5.38-10.35-1.42-4.04-2-8.38-4.04-12.19a53.61 53.61 0 0 0-10.06-13.23c-3.05-2.93-6.17-5.84-8.59-9.34m-3.39 87.9c-1.44 1-.99 2.94-1.31 4.43 1.24.2 2.48.4 3.73.6.38-1.89.57-3.81.62-5.73-1.03.18-2.04.41-3.04.7zM40.14 85.25c1.72-.04 1.5 2.7-.12 2.61-1.71.06-1.5-2.72.12-2.61zm16.96 1.16c1.57-.07 1.35 2.41-.12 2.27-1.56.06-1.34-2.39.12-2.27z"/><path fill="#111701" d="M168.68 130.52c3.8-.16 7.56-.76 11.32-1.36 1.65 3.07 3.01 6.3 3.83 9.7 1.99 8.58 6.62 16.24 11.55 23.43.34 1.52.79 3.03.85 4.59-2.02 4.17-7.7 6.15-7.64 11.33-.13 4.72-.51 9.43-1.33 14.09-.54.17-1.61.52-2.14.69-.16-5.04-1.26-10.08-.55-15.12.34-2.56.18-5.15-.24-7.69-1.06-1.18-2.15-2.32-3.23-3.47-2.51-3.27-4.37-6.98-6.89-10.24-1.75 4.23-3.35 8.76-6.94 11.84-2.02 1.67-3.06 4.1-3.4 6.66-.65 4.03-.65 8.13-.44 12.2-.54.07-1.61.19-2.15.25-.28-4-.53-8.02-1.11-11.99-.67-4.63-2.66-8.91-3.82-13.42 2.89-5.03 4.56-10.61 6.59-16.02 1.96-5.14 2.79-10.73 5.74-15.47zm-160.62-.21c4.22-.09 8.44.22 12.66.07.9 0 1.8 0 2.7.01 5.9.29 11.79 1.22 17.68.09 2.58.16 5.08.95 7.66 1.07 2.6-.1 5.11-.87 7.67-1.23 5.19-.3 10.57.66 15.01 3.46 6.2 5.06 4.74 14.16 1.28 20.39 4.08 6.43 9.05 13.27 7.93 21.35-.61 3.38-1.58 6.68-2.75 9.91-1.12-1.84-2.11-3.75-3.02-5.7-1-.18-2-.35-3-.53-3-6.17-6.23-12.28-10.25-17.85.43 3.8 1.1 7.59 1.05 11.43-1.46 2.62-3.12 5.15-5.36 7.18-2.69 2.15-1.68 5.94-1.71 8.92l-3.47-.24c.66-6.26-.71-12.4-2.68-18.3-.75-11.17.98-22.46-1.41-33.52-.62 5.57-1.02 11.16-1.45 16.75-.59.07-1.78.22-2.38.29-.79-2.7-1.6-5.39-2.38-8.09-1.33-.14-2.66-.28-3.99-.41-4.26 7.82-1.91 17-2.11 25.44-1.19 3.45-2.57 6.86-2.81 10.56-.42 0-1.28.01-1.71.01-.47-3.03-.86-6.1-1.85-9.02-.74 2.94-1.3 5.92-1.66 8.94-.13 2.1-.14 4.22-.16 6.33-1.29.62-2.57 1.24-3.86 1.85l-.05-.92c.55-3.35 1.96-7.3-1.01-9.97-1.53-2.36-4.1-4.47-3.96-7.51.33-8.71 1.83-17.63-.3-26.23-1.79 4.39-4.18 9.03-2.77 13.89-1.36-.91-2.91-1.43-4.45-1.94-.1-.65-.29-1.95-.39-2.61-.45-4.09-2.22-7.94-2.27-12.08-.11-3.93-1.36-7.89-.43-11.79m52.17 13.02c.32 1.5.66 3 1.02 4.5.84-.34 1.67-.67 2.51-1.01-.35-1.15-.7-2.29-1.05-3.43-.62-.02-1.86-.05-2.48-.06zM107.48 131c5.24.46 6.89 5.64 8.73 9.69 1.21-3.28.93-7.67 3.95-9.93 2.41-.36 4.83.2 7.23.47 1.94.23 3.89.3 5.83.34 4.01.09 8.02.26 12.01-.14 1.55 2.32 2.71 4.87 3.92 7.37-2 3.28-4.92 5.76-7.9 8.1-1.69-2.26-4.21-3.84-7.12-3.71-1.3 0-2.61.03-3.91.06.13 1.43.27 2.85.4 4.28 1.49-.03 2.98-.06 4.46-.11 2-.08 4-.16 6.01-.21.57 3.14.18 6.32-.26 9.45-2.77-.2-5.56-.23-8.34-.12 1.95 2.7 5.07 3.53 8.27 3.1 1.85-.04 3.69-.05 5.54-.05.56 3.18.95 6.37 1.16 9.59-4.85 1.18-9.85 1.67-14.69 2.86-2.17 1.9-1.93 5.32-1.95 7.98.16 1.43.33 2.85.51 4.28-.69.06-2.07.17-2.76.23-.1-2.51-.15-5.03-.47-7.52-.2-1.51-.42-3.01-.63-4.51-.61-.09-1.83-.27-2.44-.37-.49.89-.97 1.79-1.44 2.69-2.4 3.97-2.65 8.78-1.11 13.12-1.1-.11-2.19-.23-3.29-.33.25-3.81.09-7.67-.61-11.42-.92-3.46-3.74-6.55-2.72-10.34.87-3.82.16-7.7-.98-11.38-.79 2.82-1.32 5.71-1.9 8.58-.96 3.3-3.54 5.69-5.22 8.6-.97 2.2-1.1 4.65-1.52 6.99-1.18-.05-2.36-.11-3.53-.16l-.36 2.47c-.31 1.75-.75 3.48-1.21 5.21-.94-3.07-1.58-6.21-2.12-9.37-.46-.23-1.39-.68-1.85-.91-.71 1.22-1.41 2.45-2.11 3.67-2.8-2.36-6.39-4.07-8.1-7.49-4.86-9.52-5.99-20.5-5.41-31.05.18-3.75 1.35-7.61 4.67-9.74 3 .33 6.01.62 8.99 1.07.45 4.11 1.18 8.19 1.96 12.25.86 3.62-1.92 6.77-1.98 10.34-.24 2.16 1.66 3.64 2.71 5.3.97-1.17 2.34-2.09 2.92-3.54 1.06-6.19.78-12.5-.01-18.7-.3-3.87 4.24-4.99 6.67-6.99zm-67.41 81.3c1.42-1.14 3.24 1.27 1.7 2.29-1.42 1.17-3.21-1.27-1.7-2.29zm16.44-.06c.95-1.45 3.07.38 2.04 1.64-.98 1.38-3.05-.39-2.04-1.64z"/></svg>