<svg xmlns="http://www.w3.org/2000/svg" width="72" height="52"><path fill="#c00" d="M10 0C4.477 0 0 4.477 0 10v32c0 5.523 4.477 10 10 10h52c5.523 0 10-4.477 10-10V10c0-5.523-4.477-10-10-10z"/><path fill="gold" d="M17.333 3.25l-.729 2.246h-2.362l1.911 1.388-.73 2.245 1.91-1.388 1.911 1.388-.73-2.245 1.91-1.388h-2.361zm0 1.17l.467 1.437h1.512l-1.223.889.467 1.437-1.223-.889-1.222.889.467-1.437-1.223-.889h1.511z"/><g fill="gold"><path d="M12.116 15.009l1.617 1.624 1.525-1.51c2.32 2.482 4.754 4.874 7.056 7.365a.89.89 0 0 0 1.257.005.885.885 0 0 0 .004-1.254c-2.471-2.325-4.949-4.67-7.421-7.003l2.055-2.036-2.859-.394z"/><path d="M17.333 9.75c1.331.747 2.341 1.82 2.937 2.941.604 1.137.869 2.323.875 3.272.011 1.945-1.581 3.521-3.531 3.521a3.525 3.525 0 0 1-2.622-1.163l-.358.3a.539.539 0 0 0-.598.153.67.67 0 0 0-.549.453c-.269.538-.74.959-1.311 1.153l-.015.006a2.146 2.146 0 0 0-.754.496c-.445.448-.662 1.021-.54 1.423a.337.337 0 0 0 .454.416c.402.091.949-.132 1.376-.561.243-.243.424-.532.513-.815a2.274 2.274 0 0 1 1.168-1.287.241.241 0 0 0 .033-.019.673.673 0 0 0 .363-.446 4.684 4.684 0 0 0 3.474 1.636c2.558.06 4.47-1.818 4.558-4.518.044-1.359-.483-3.112-1.684-4.549a7.532 7.532 0 0 0-3.789-2.412z"/></g></svg>