<svg xmlns="http://www.w3.org/2000/svg" width="1500" height="1138pt" viewBox="0 0 1125 1138"><path fill="#e5ffe8" d="M604.85 0h1.13c10.9.27 21.21 4.21 31.93 5.76 6.87.93 14.39 1.59 19.77 6.51 8.1 6.69 9.28 19.1 4.77 28.16-2.13 4.31-7.4 6.65-8.22 11.65.77 3.48 2.72 6.54 4.16 9.77 3.23 6.68 3.59 14.43 2.33 21.65-1.08 6.15-5.13 11.59-10.6 14.55-9.4 5.02-20.47 7.18-31.02 5.27-4.8-.59-9.13-3.22-14.03-3.22-7.32-.79-15.39.79-21.98-3.26-4.02-2.42-4.03-7.79-3.59-11.9 2.95-24.42 7.23-48.66 10.59-73.02.5-3.43 1.79-7.01 4.63-9.2C597.58.48 601.37.27 604.85 0m4.57 12.65c-2.99 1.25-4 4.67-4.77 7.53-.94 4.58-1.73 9.28-1.52 13.96.23 3.72 3.33 6.68 6.96 7.16 9.83 1.82 19.94 3.97 29.96 2.54 4.18-.45 6.46-4.52 7.27-8.24 1.03-4.4 2.04-9.84-1.34-13.5-4.4-4.54-10.94-5.56-16.87-6.6-6.5-1.17-12.98-5.43-19.69-2.85m-5.21 43.48c-3.25.45-4.55 3.96-5.09 6.76-.81 4.68-.8 9.46-1.09 14.19-.42 4.02 2.68 7.28 5.95 9.09 5.19 2.89 11.01 4.43 16.83 5.44 5.76 1.06 12.14 1.53 17.38-1.59 7.31-4.38 12.5-13.92 9.15-22.31-3.8-8.28-13.68-11.89-22.3-11.21-6.95.51-13.9-.36-20.83-.37zm-60.8-54.58c4.08-1.06 10.84-1.53 12.37 3.54 2.15 13.51 1.92 27.25 2.42 40.88.37 13.01.33 26.02.88 39.02-.01 3.86-.61 7.96-2.91 11.17-2.54 3.4-8.1 3.85-11.07.78-2.75-2.48-2.83-6.5-2.66-9.92.72-15.38-1.37-30.66-2.28-45.98-.3-12.05 1.88-24.02 1.54-36.06-.17-1.36.27-2.96 1.71-3.43zm-85.05 6.98c2.52-.88 5.97-1.18 7.87 1.09 1.83 2.78 2.44 6.16 2.86 9.41.58 6.32.98 12.67 1.6 18.99 1.47 14.84 4.75 29.42 7.32 44.09.85 6.39 7.82 10.49 13.93 9.21 10.9-1.83 21.92-5.29 33.05-2.98 2.94-.32 6.39 3.11 4.31 5.85-3.49 3.47-8.57 4.6-13.27 5.3-13.42.91-26.8 2.44-40.09 4.52-3.32.48-7.47.74-9.8-2.16-2.3-3.13-3.04-7.07-3.69-10.81-3.52-23.02-7.08-46.02-10.56-69.04-1.02-5.25.77-11.84 6.47-13.47zm252.96 10.05c2.74-1.2 5.75-.31 8.44.59 13.68 4.59 27.26 9.48 40.95 14.05 2.92 1.12 7.42 1.94 7.78 5.76.02 2.97-1.71 7.72-5.51 6.76-8.99-1.89-17.55-5.4-26.05-8.83-5.13-1.85-10.99-3.21-16.26-1.15-4.85 2.43-6.88 8.12-7.7 13.15-.82 4.61 1.62 9.17 5.48 11.62 8.83 6.74 20.34 7.49 30.22 11.89 3.68 1.58 1.85 6.09.52 8.73-1.15 2.84-4.83 3.3-7.41 2.44-6.65-2.32-12.98-5.47-19.66-7.66-5.55-1.69-12.76-1.18-16.26 4.06-3.27 4.95-5.65 10.87-5.42 16.89.13 4.01 2.85 7.31 5.99 9.55 7.42 5.63 16.82 7.2 25.53 9.89 4.52 1.44 10.24 1.52 13.18 5.83 1.18 3.29-.09 8-3.52 9.41-2.79.61-5.65-.07-8.35-.74-14.74-4.32-29.13-9.72-43.65-14.7-3.51-1.22-7.26-3.04-8.94-6.57-1.21-2.46-.71-5.3.19-7.77 4.54-12.81 9.19-25.58 13.06-38.61 3.14-10.45 5.3-21.16 8.44-31.6 1.87-4.86 3.72-10.81 8.95-12.99zm93.19 36.03c3.56-1.02 7.09.98 10.2 2.53 12.3 6.87 24.97 13.06 37.36 19.77 7.19 3.82 11.76 11.19 14.06 18.81 2.71 9.06-.62 19.63-7.99 25.53-4.93 4.03-12.61 2.93-16.69 8.26-3.24 4.24-1.34 9.74-.82 14.5-.38 7.6-4.21 14.46-7.69 21.05-1.88 2.97-3.41 6.69-6.78 8.22-4.05.35-8.46-2.95-8.19-7.26.32-8.72 6.01-16.23 6.05-24.99.33-6.66-1.61-13.78-6.97-18.11-6.07-4.99-14.03-9.1-22.1-7.59-7.31 1.82-12.66 7.9-16.35 14.17-2.17 3.7-4.29 7.7-7.89 10.22-2.54 1.77-5.85.44-8.08-1.21-1.56-1.8-1.34-4.4-.78-6.54 1.13-4.47 3.33-8.55 5.31-12.68 9.03-18.11 18.88-35.8 28.57-53.56 2.26-4.09 4.13-9.19 8.78-11.12m7.95 19.06c-3.88 2.14-5.49 6.51-7.61 10.13-1.76 3.49-4.13 6.7-5.41 10.4-1.21 4.71 2.06 9.01 5.57 11.74 6 4.62 12.75 8.5 20.13 10.41 6.31 1.47 13.57 1.64 19.19-2.07 9.07-6.77 8.18-23.33-2.11-28.52-6.31-3.66-12.2-8-18.68-11.35-3.37-1.72-7.62-2.88-11.08-.74zm-513.19-9.43c1.89-.78 4.39-1.01 5.93.61 2.59 2.55 4.24 5.88 5.61 9.21 3.55 8.75 6.97 17.57 11.14 26.05 5.04 10.17 10.55 20.09 15.82 30.14 2.85 5.58 10.42 7.27 15.76 4.38 10.63-5.48 21.05-12.62 33.42-13.08 2.24.24 4.6 3.12 2.89 5.21-2.61 4.06-6.96 6.59-11.24 8.56a434.645 434.645 0 0 0-34.86 15.42c-3.42 1.67-7.63 3.89-11.32 1.73-3.18-2.19-5.07-5.71-6.83-9.05-9.79-19.9-19.58-39.8-29.38-59.69-1.69-3.36-3.47-6.88-3.44-10.74.01-3.94 3-7.29 6.5-8.75zm-71.88 46.41c6.56-2.53 13.41.78 19.16 3.85 11.13 6.58 21.07 14.94 31.79 22.13 10.53 7.25 21.94 13.19 32.08 21.01 2.39 1.98 5.05 4.12 5.86 7.28.59 3.06-2.46 5.4-5.2 5.76-7.91 1.41-15.27-3.46-23.16-2.56-10.94.97-18.7 9.65-26.93 15.95-1.82 1.63-3.96 3.37-4.17 6.01-.64 6.05 1.44 11.97 1.25 18.01.03 3.41-2.74 5.83-5.24 7.69-1.4 1.05-3.44 1.37-4.88.23-3.14-2.43-4.11-6.53-4.81-10.23-2.13-12.72-6.46-24.91-9.92-37.3-3.24-12.16-8.2-23.76-12.29-35.63-1.43-4.79-2.41-10.04-.9-14.93 1.06-3.47 4.05-6.01 7.36-7.27m16.12 20.94c-5.17 1.98-6.11 8.4-4.89 13.16 2.03 8.52 5.94 17.14 12.94 22.69 3.76 2.93 8.28-.18 11.58-2.32 3.58-2.7 8.03-5.48 9.01-10.19.34-4.59-3.82-7.58-7.02-10.11-5.52-3.75-10.17-8.63-15.79-12.26-1.69-1.11-3.87-1.71-5.83-.97zm679.92 2.11c3-.68 6.33-.74 9.13.73 4.45 2.42 7.21 7.45 7.16 12.49-.15 8.75-3.71 16.91-7.06 24.84-3.77 9.16-8.13 18.08-11.43 27.43-3.92 10.16-6.87 20.7-11.49 30.58-1.5 2.92-3.05 6.29-6.19 7.74-2.7 1.04-5.43-1.16-6.44-3.55-3.44-7.89.21-16.87-3.13-24.78-2.96-8.14-10.52-12.98-16.84-18.32-2.9-2.09-5.56-4.87-9.07-5.86-7.79-.6-14.38 5.61-22.11 5.05-3.24-1.25-8.09-3.71-7.1-7.9 2.25-4.99 7.97-6.59 12.56-8.67 11.5-5.15 22.24-11.79 33.34-17.72 10.43-5.58 20-12.6 30.13-18.7 2.69-1.45 5.54-2.67 8.54-3.36m-15.08 22.84c-8.59 3.55-16.67 9.59-21.02 17.95-2.21 3.94 1.1 7.74 3.8 10.35 3.44 3.12 7.09 6.79 11.92 7.42 4.97-.05 7.31-5.17 9.13-9.02 2.6-6.94 7.29-13.03 9.08-20.28.52-6.57-7.97-8.89-12.91-6.42zm-747.67 12.23c2.3-1.48 5.24-1.2 7.51.17 4.21 2.22 7.91 5.27 11.57 8.28 16.33 13.74 33.49 26.43 49.85 40.13 3.02 2.91 6.89 5.54 8.14 9.74-.04 4.59-5.22 8.08-9.44 5.93-10.06-4.35-16.46-13.79-24.35-20.96-7.87-6.5-15.92-12.77-23.98-19.02-2.4-1.58-4.84-4.37-8.02-3.39-2.2 1.1-3.88 3.26-4.55 5.61-.22 3.78 1.01 7.47 1.66 11.16-4.68-6.12-10.35-11.38-15.2-17.34-2.13-2.69-4.44-6.37-2.4-9.77 2.19-4.13 5.2-8.05 9.21-10.54zm814.88 9.83c2.16-1.28 4.24.67 5.63 2.17 4.78 5.36 8.26 11.71 12.57 17.43 4.43 6.17 9.53 11.83 15.09 17.01 4.91 4.75 10.37 9.21 13.66 15.33 2.7 3.94-2.12 10.1-6.47 8.78-5.11-2.93-7.78-8.55-12.31-12.15-2.64-2.09-6.13-3.33-9.49-2.65-3.38.63-6.21 2.72-8.82 4.83-5.4 4.37-11.44 7.84-16.96 12.04-7.8 5.78-14.82 12.5-21.65 19.37-4.02 4.1-8.63 7.8-13.96 10.02-4.47 1.98-9.52-1.56-10.59-5.97-.62-3.17 1.88-5.64 3.82-7.77 7.18-7.38 16.35-12.32 24.44-18.58 8.32-6.21 15.45-13.81 23.1-20.8 3.88-3.34 8.3-7.11 8.65-12.62.48-3.35-1.14-6.53-3.4-8.87-3.01-3.49-6.29-6.97-7.96-11.33-.93-3.08 2.47-4.92 4.65-6.24zm-804.68 30.97c3.4 3.08 6.83 6.15 10.3 9.16 6.91 5.89 11.52 13.88 17.83 20.34 4.8 4.43 7.65 10.45 11.02 15.95 2.34 3.2-.32 7.23-3.47 8.59-4.49 2.01-9.55.43-13.83-1.39-15.47-7.39-29.84-17.19-46.19-22.65-3.45-1.1-7.68-2.34-10.9-.03-2.05 2.78.48 6.23 2.65 8.12 12.39 10.61 24.88 21.1 37.3 31.68 2.66 2.39 5.44 4.82 7.23 7.97 2.86 4.5-3.07 10.58-7.74 8.49-3.58-1.42-6.58-3.95-9.54-6.36-11.37-9.64-22.74-19.27-34.1-28.92-4.77-3.92-7.45-10.28-13.5-12.6-4.02-1.47-8.42-3.45-10.13-7.69-2.23-7.94 2.16-16.17 8.32-21.03 1.64-1.21 3.75-2.32 5.83-1.62 3.82 1.14 7.33 3.07 10.9 4.82 12.19 6.32 24.32 12.79 36.44 19.26 5.17 2.45 10.97 4.43 16.76 3.54 1.64-.32 4.05-1.1 4.02-3.15-.29-2.63-1.64-4.96-2.9-7.22-5.04-8.67-10.58-17.03-16.3-25.26zm864.44 47.7c1.68-1.02 3.46.51 4.38 1.87 1.6 2.31 3.42 4.9 3.25 7.85-.19 2.33-2.27 3.68-3.93 4.99-9.64 7.57-20.19 13.85-30.48 20.48-11.19 7.19-22.65 13.95-33.73 21.3-3.28 1.97-7.01 3.52-10.89 3.43-4.25-.31-7.78-4.69-6.79-8.92.65-3.88 4.29-6.1 7.48-7.79 11.66-6.21 22.12-14.33 32.92-21.87 11.61-8.78 25.6-13.52 37.79-21.34zm-265.03 7.85c8.97-2.71 18.8-4.66 27.93-1.49 8.9 2.9 15.32 10.35 19.95 18.17 7.91 13.07 12.52 28.45 23.78 39.26 19.13-.46 39.4 3.08 54.98 14.86 10.41 7.79 16.85 20.26 17.54 33.21 5.64 38.47-13.64 75.42-9.4 113.87 1.14 12.85-2.87 25.43-7.85 37.09-5.3 12.72-12.03 25.11-14.22 38.87-1.65 16.89-.88 33.93-2.69 50.81-1.59 15.49-5.68 31.41-15.75 43.67-2.75 3.9-7.29 6.37-9.13 10.9-11.64 23.8-8.27 51.75-19.24 75.77-6.54 13.6-7.28 29.08-6.86 43.91.3 14.22 1.64 28.63-1.07 42.71-1.36 2.2-3.97 4.96-6.81 3.72-2.35-1.34-3.5-3.96-4.54-6.31-2.86-7.2-4.23-14.86-5.85-22.39-.93-4.97-2.61-9.76-3.17-14.8-2.41-14-17.78-24.84-31.73-20.61-7.99 2.34-12.62 10.61-13.05 18.55-.18 9.77-1.65 19.64-5.44 28.7-1.25 2.55-2.67 5.74-5.75 6.4-3.6-.55-5.05-4.51-6.46-7.38-1.69-2.78-.36-5.93-.16-8.9 1.56-13.52-.62-28-8.59-39.31-3.74-5.38-8.66-9.85-14.12-13.41-.57-3.66.53-7.63 3.71-9.77 8.19-5.91 19.81-6.23 26.44-14.45 2.96-3.43 2.63-8.12 3.6-12.26 2.31-6.93 7.46-12.68 13.44-16.73 2.74-1.69 6.29-3.6 9.5-2.07 3.39 2.41 2.53 7.23 1.98 10.78-1.53 6.11-2.15 12.79.38 18.73 2.81 7.15 9.69 12.48 17.32 13.39 7.13 1.01 14.52-2.29 18.81-8.01 3.29-4.05 4.45-9.26 7.04-13.7 5.34-11.39 2.14-24.23.02-36-1.63-8.9-2.91-19.27 3.08-26.89 4.78-6.67 13.43-8.29 19.11-13.9 9.94-8.6 14.46-21.67 16.25-34.34 1.75-12.51 1.96-25.16 2.93-37.73-.19-15.29 7.47-28.97 13.45-42.57 4.73-10.78 8.82-22.72 6.46-34.62-1.19-8.22 1.15-16.58-.48-24.77-.51-2.82-2.57-5.63-5.61-5.85-5.48-.57-10.36 2.35-15.13 4.54-10.75 2.92-22.01-.17-32.9 1.37-2.35.07-4.59 2.34-2.89 4.6 2.67 3.83 5.96 8.19 10.89 8.93 5.28 1.21 10.6 4.81 11.65 10.46 1.37 7.77-1.78 15.32-3.39 22.8 2.26 3.24 4.96 6.83 4.45 11.02-.66 3.99-4.5 6.23-7.7 8.09-6.17 3.46-13.6 6.35-16.8 13.16-2.58 4.86.41 10.64-2.52 15.4-4.8 11.09-16.9 15.34-25.92 22.14-5.51 3.88-9.46 9.52-11.89 15.74a28.974 28.974 0 0 0-9.62 16.55c-2.21 9.56-.98 19.43-1.93 29.11-9.71-4.06-15.24-13.64-19.81-22.58-5.29-10.13-10.43-21.43-20.71-27.44-4.1-2.05-7.59-5.05-11.55-7.33-23.3-13.88-52.54-17.85-78.51-9.71-4.38.73-11.05-1.66-10.52-7.1.68-7.24 5.52-13.66 4.83-21.13-.18-3.44-2.32-6.33-4.83-8.51-.21-8.48 5.5-15.79 5.34-24.22-.23-5.98-5.59-9.86-10.54-12.12-4.57-2.12-9.78-5.51-10.17-11.04-.11-4.16 4.43-6.47 8.11-6.13 4.25-.2 8.05 3.39 12.3 1.74 9.24-2.83 15.45-10.78 23.36-15.85 1.65-1.04 4.37-2.18 5.82-.22 2.58 3.9 1.46 8.86 1.98 13.25 1.92 6.46 5.32 12.46 6.5 19.15.59 3 .11 6.63-2.57 8.51-3.61 2.61-8.29 2.39-12.52 2.69-5.49 2.41-10.31 7.55-10.83 13.75-.49 5.64 2.26 11.05 5.99 15.13 6.73 7.34 17.07 11.74 27.06 10.05 3.18-.4 5.94-2.15 8.96-3.1 23.29-5.16 41.23-24.36 50.19-45.76.21-25.62-9.33-49.85-15.09-74.48-2.75-13.16-12.06-25.19-25-29.59-15.94-5.62-33.49-1.6-48.22 5.63-15.29 3.65-30.75 6.73-45.72 11.6-16.29 5.2-32.21 12.42-45.43 23.44-6.52 5.49-10.47 13.64-11.38 22.07-1.6 13.76 2.16 27.34 3.03 41.02.32 4.68-.11 9.38.41 14.06 1.7 25.52-1.67 51.76 5.85 76.62 2.84 10.12 8.66 18.95 13.74 28.04 9.19 15.47 20.12 29.97 27.58 46.42 4.27 9.43 7.28 19.54 7.79 29.93.1 4.71 1.43 9.27 1.82 13.96 2.71 25.11-3.67 50.26-.67 75.36 3.86 15.21 6.64 30.94 5.34 46.69-.92 11.39-4.21 22.9-11.23 32.09-1.49 2.69-5.52 2.48-7.67.77-5.88-13.07-4.65-27.85-2.98-41.69 1.73-13.25 3.3-26.73.92-40.01 1.25-33.31 3.57-67.39-5.34-99.93-4.05-15.4-11.46-29.65-20-42.99-9.28-14.7-19.71-28.93-25.86-45.32-3.46-9.19-5.31-19.06-4.72-28.89 2.07-38.16-11.88-75.46-7.69-113.63 3.45-9.46 10.54-17.08 17.65-23.99 11.56-11.08 25.09-21.01 32.23-35.77 1.11-3.04 4.2-4.52 6.1-6.99 9.26-10.85 10.35-25.99 18.36-37.55 3.78-5.52 9.72-9.42 16.25-10.85 19.85-3.91 38.51-12.53 55.53-23.32 11.6-7.21 22.09-16 33.37-23.66 17.67-12.32 36.29-23.97 57.12-30.09m-9.46 23.73c-14.07 6.15-26.8 15.05-38.35 25.09 12.75-.63 24.71-5.94 37.44-6.75 7.63-.6 15.72 1.19 21.67 6.22 3.3 3.05 7.6 4.98 10.18 8.79 7.59 10.46 6.97 24.43 13.79 35.27 2.43 3.96 6.33 6.77 10.65 8.35 4.5-5.66 7.34-12.61 7.88-19.83 1-12.08-2.86-23.99-8.2-34.67-5.32-10.21-12-19.88-20.42-27.77-11.74-2.3-23.82.7-34.64 5.3m-116.2 72.04c-4.33.21-9.27-.18-12.64 3.15-3.78 3.05-4.37 10.26.56 12.47 4.82 1.96 9.39-1.32 13.61-3.21 27.01-8.83 53.08-20.59 80.76-27.32 7.32-2.14 15.41-2.65 22.57.38 9.36 3.84 15.47 12.63 19.58 21.51 6.71 14.17 9.04 29.84 14.29 44.52 3.53 12.78 3.57 26.58 9.52 38.64 2.39 5.21 7.69 9.02 13.6 8.45 2.12-9.02 1.86-18.4.47-27.5-2.51-16.56-7.87-32.74-7.85-49.62-3.29-8.77-5.86-17.79-8.89-26.66-3.29-9.21-7.13-18.75-14.5-25.49-6.04-5.62-14.83-7.51-22.81-6-37.7 7-71.99 25.05-108.27 36.68m195.96-10.98c1.28 3.55 3.49 6.93 7.01 8.6 8.77 4.33 19.26 2.45 28 6.92 4.19 2.1 7.14 6.22 8.14 10.77 1.32 6.5 4.53 13.2 2.24 19.89-1.94 5.82-8.49 8.14-14.09 8.45-12.42.68-24.55-2.98-36.19-6.89-5.3-1.14-11.36 1.19-13.92 6.11-3.44 6.52-2.56 14.53.28 21.11 2.66 6.17 8.04 11.78 15.01 12.53 8.4-.19 16.93.78 25.2-1.33 11.01-1.76 21.14-8.07 27.49-17.24 9.9-14.04 12.3-32.19 9.7-48.89-.66-10.01-7.64-18.34-15.59-23.83-8.58-5.84-19.29-9.69-29.73-7.67-6.18 1.14-11.21 5.73-13.55 11.47m-119.1 10.89c-6.99 1.55-13.01 5.71-19.94 7.5-13.36 4.93-26.15 11.3-39.65 15.85-12.11 4.1-25.06 6.65-37.85 4.93-6.71-.15-13.12 3.45-17.55 8.32-1.42 1.75-3.37 4.44-1.59 6.59 2.41 1.67 5.57 1.05 8.29.7 5.94-1.18 11.96-2.06 17.8-3.73 14.13-3.82 27.66-9.56 41.79-13.38 12.96-3.55 26.9-5.24 40.04-1.66 9.03 3.19 15.92 10.72 20.1 19.16 8.15 16.27 9.16 34.99 16.56 51.54 5.31 9.76 3.69 21.85 9.51 31.4 1.87 3.34 6.63 3.98 9.54 1.67 7.43-8.65 10.4-20.45 9.52-31.68-1.22-17.93-8.82-34.5-13.21-51.73-.86-3.05-.49-6.24-.86-9.35-1.14-12.26-7.11-24.48-17.46-31.49-7.21-4.98-16.52-6.67-25.04-4.64m113.67 15.52c-2.06 3.43.54 7.16 2.79 9.74 10.49 1.78 20.42 6.12 31.09 7.05 2.92-4.28 4.68-10.57.88-14.88-5.2-5.71-13.54-7.07-20.91-7.03-4.87.26-10.72.88-13.85 5.12zM85.41 268.44c1.54-.95 3.45-.72 4.99.12 4.89 2.39 9.78 4.81 14.45 7.63 16.24 9.64 32.19 19.76 48.23 29.74 4.73 2.66 9.84 5.51 12.43 10.52 2.23 3.96-.19 9.59-4.63 10.64-3.56 1.2-7.05-.95-9.87-2.94-11.08-8.1-23.45-14.13-35.41-20.78-12.41-6.39-22.34-16.49-34.25-23.66-1.41-.7-2.17-2.25-1.54-3.77 1.21-2.87 2.88-5.83 5.6-7.5zm943.11 38.35c10.46-2 21.6-1.05 31.43 3.14 11.95 5.25 20 16.6 24.53 28.48 4.75 12.41 4.07 26.95-2.3 38.66-6.96 11.82-19.28 19.09-31.44 24.59-11.21 5.07-24.57 7.73-36.25 2.64-12.4-5.39-20.24-17.39-25.52-29.33-5.21-11.45-7.02-25.13-1.78-36.91 7.03-16.83 23.87-27.8 41.33-31.27m4.96 12.97c-9.56 1.9-18.46 6.63-26.01 12.71-8.77 7.08-13.96 18.27-13.73 29.53.18 7.5 3.61 14.98 9.65 19.55 9.44 7.16 22.02 9.89 33.61 7.46 8.84-1.9 17.47-5.64 24.3-11.66 9.45-8.22 13-21.8 10.95-33.89-1.72-7.76-5.2-15.96-12.4-20.08-7.93-4.45-17.55-5.06-26.37-3.62zm-672.4-10.84c4.52-2.2 10.6-.59 13.14 3.87 4.08 7.01 2.5 16 7.19 22.78 2.7 4.36 8.15 5.24 12.23 7.85 8.55 3.42 11.77 12.72 15.91 20.15 5.46 9.03 2.57 20.67 8.25 29.63 2.13 3.22 3.37 7.06 6.25 9.75 2.85 3.11 7.16 3.97 10.52 6.35 4.13 2.81 8.07 6.03 11.22 9.94 2.77 4.03 2.66 9.18 4.12 13.71.76 3.45 3.73 5.66 5.94 8.19 4.42 4.82 9.75 9.03 12.71 15 1.13 2.22 2.31 4.44 3.83 6.45 4.19 4.98 4.06 11.85 5.81 17.83 1.16 5.26 3.84 10.16 4 15.64 1.1 10.15-2.38 19.93-3.62 29.87-.86 6.11-1.36 12.28-2.49 18.35-.92 6.15-3.77 11.77-6.16 17.45-2.83 7.38-4.38 15.2-7.56 22.45-3.19 6.43-2.83 13.83-2.88 20.82-.09 9.37 2.73 18.61 1.47 27.99-.94 7.37-2.75 14.59-4.32 21.84-1.08 4.84-4.41 9.01-4.56 14.08-.15 6.06-1.49 12.01-1.8 18.06-.61 9.99-.5 20.05.77 29.99 1.18 11.66 1.37 23.42 3.28 34.99 2.42 14.66-.33 29.41-2.07 43.98-2.67 13.59-1.42 27.77-5.39 41.14-1.97 7.91-3.27 15.97-5.08 23.93-.99 3.46-1.83 7.83-5.59 9.36-4.65 1.82-9.42-.78-14.11-1.09-6.16-.54-10.96-5.06-16.96-6.14-4.59-.81-9.26-.59-13.89-.77-2.39-2.59-4.94-5.23-6.03-8.65-2.06-6.04-1.74-12.52-2.76-18.75-.88-7.02-4.99-13.01-6.84-19.73-1.18-3.69-1.56-7.58-2.75-11.25-.97-3.24-2.44-6.38-2.62-9.8-.6-8.84 2.81-17.33 2.56-26.16-.17-8.44-.69-17.7-6.26-24.53-1.97-2.28-2.31-5.45-4.23-7.74-2.32-2.84-4.9-5.94-5.06-9.76.54-5.52 5.12-9.46 9.43-12.38 4.08-1.89 8.01-4.08 12.07-6.01 5.74-3.01 7.77-11.56 3.08-16.37-2.88-2.28-6.45-3.5-9.39-5.72-6.2-4.38-13.88-5.3-21.05-7.13-4.59-1.02-7.8-4.77-10.61-8.27-1.55-2.07-3.14-5.31-1.17-7.6 2.49-2.68 6.23-3.58 9.67-4.38 4.24-.93 8.03-3.14 11.98-4.87 6.95-3.38 15.01-3.4 21.86-7.07 6.47-3.3 15.3-4.48 21.22.54 4.22 3.47 10.26 4.95 15.52 3.22 1.59-.57 3.63-1.98 2.81-3.96-2.5-3.78-7.45-4.35-11.56-4.96-4.92-.55-8.96-4.18-14.03-4.08-7.02-.22-14.09-.09-21.09.54-8.1 1.37-15.68 5.06-23.96 5.55-13.13.66-26.3 0-39.43.45-3.57 1.67-6.47 4.4-9.76 6.52-4.21 2.26-9.17 2.3-13.83 2.46-8.61-.06-17.32.18-25.8-1.52-4.35-.77-8.48-4.2-13.02-2.7-3.2 1.89-2.4 6.18-2.55 9.31 2.37 2.25 4.89 4.38 6.93 6.96 1.42 1.8 1.58 4.21 2.59 6.23 1.64 3.32 4.41 5.96 5.84 9.41 1.91 4.09 2.48 8.83 5.38 12.42 4.96 5.96 4.74 14.14 6.04 21.38.81 7.91 5.2 14.99 5.51 22.99 1.11 18.34 1.36 36.72 1.62 55.09.55 7.97 1.35 15.97.78 23.97-.47 2.54-1.48 5.16-3.4 6.97-2.61 1.88-6.26.24-7.46-2.53-4.6-7.31-2.77-16.16-4.22-24.24-.92-14.06-2.89-28.02-3.69-42.08-.91-13.21-.95-26.47-2.32-39.64-.32-4.89-3.54-8.76-5.74-12.92-2.4-4.18-2.55-9.2-4.91-13.39-1.85-3.41-4.4-6.43-5.78-10.1-3.51-8.62-10.58-15.63-12.14-25.04-.82-5.47-4.13-10.26-4.34-15.85-.62-7.74-.68-15.54-1.76-23.24-.54-4.02-2.28-7.77-4.68-11.01-1.99-2.73-2.41-6.18-3.83-9.19-1.93-4.5-5.94-7.8-7.43-12.53-3.16-9.4-2.68-19.52-1.92-29.26 3.14-20.28-2.74-40.53-1.15-60.86.54-7.52 1.85-15.62 7.13-21.41 4.39-6.3 9.99-11.77 13.35-18.76 5.47-8.31 10.82-16.75 15-25.8.97-1.97 1.53-4.25 3.23-5.75 5.11-4.73 8.93-10.63 12.45-16.58 3.92-6.5 2.48-14.65 5.81-21.37 1.83-3.76 3.79-7.46 5.68-11.19 4.42-8.85 14.38-13.78 17.55-23.42 1.59-5.18 3.78-10.14 5.65-15.21 1.57-4.23.24-9.33 3.27-13.01 1.77-2.47 4.04-5.21 7.34-5.33 3.91-.3 6.85 2.88 9.07 5.69 5.66 6.45 1.46 16.44 6.88 23.01 4.05 3.37 9.47 6.03 14.87 4.87 5.54-1.18 12.13-2.38 14.85-8.05 3.06-7.05 6.97-13.93 7.89-21.68.53-2.88.77-6.45 3.5-8.19m15.25 57.73c-3.91 2.17-8.04 3.87-12.12 5.7-5.38 3.64-12.25 8.13-12.01 15.48-.41 14.72-.35 29.45-.5 44.18-.29 3.58 1.76 6.75 3.34 9.81 1.93 3.82 6.55 4.35 9.98 6.19 5.17 2.01 11.25 3.86 16.55 1.3 4.64-2.34 9.36-5.73 10.59-11.11 4.6-16.66 3.37-34.18 2.2-51.22-.59-5.99-1.27-12.43-4.9-17.45-2.99-4.14-8.7-3.54-13.13-2.88m-82.01 5.5c-3.77 1.21-8.79 1.46-10.48 5.73-2.28 5.85-4.45 11.85-4.96 18.16-.81 6.39 1.65 12.81-.18 19.13-2.11 9.84 2.44 19.14 4.95 28.39 1.79 3.47 5.93 4.56 9.44 5.42 4.01.8 8.89 1.3 12.18-1.68 3.9-3.51 6.3-8.33 10.23-11.83 2.84-3.87 5.31-8.5 4.99-13.45-.23-9.34 0-18.7-.46-28.03-.21-7.07-2.95-14.13-7.81-19.28-4.88-4-12.04-3.89-17.9-2.56m140.11 95.49c-3.73 1.44-7.49 3.58-9.47 7.19-2.12 3.89-5.49 6.94-7.36 10.97-2.83 5.76-4.15 12.09-6.67 17.97-1.74 3.95-2.41 8.25-3.23 12.46-.5 2.98-1.47 6.21.08 9.06 1.45 3.92 5.88 4.93 9.42 6.14 7.32 1.92 15.02 4.56 22.6 2.44 7.36-2.26 13.93-8.03 15.78-15.69 1.11-4.78 4.71-8.54 5.89-13.25.07-7.02-.47-14.28-3.6-20.69-2.52-4.94-1.62-12.02-7.14-15-5.25-1.35-10.92-2.46-16.3-1.6m-186.85 3.18c-5.23.92-8.39 5.48-11.04 9.65-3.33 5.63-5.67 11.89-6.38 18.41-2.21 10.71-1.69 21.76-.45 32.56.5 4.63 2.36 9.75 6.86 11.86 5.94 3.51 13.19 2.86 19.7 1.77 5.68-1.94 8.49-7.84 11.03-12.84 2.32-4.16 2.35-9.29.97-13.76-3.1-8.11-4.42-16.78-5.2-25.39-.58-6.47.44-13.46-2.76-19.41-2.55-4.36-8.49-3.92-12.73-2.85m89.82 41.8c-4.1 1.12-7.53 3.7-11.1 5.88-4.4 2.3-9.12 4.01-13.25 6.8-2.46 4.28-5.47 8.57-5.98 13.63-1.24 8.99.13 18.05.78 27.03.62 8.02-3.47 15.54-8.39 21.57-5.49 6.17-14.82 3.18-21.7 6.27-5.69 3.43-10.64 7.97-15.34 12.64-2.23 2.4-4.94 4.91-5.2 8.39-.38 3.11.81 6.81 3.89 8.14 6.86 2.61 15.13 1.69 20.85-3.08 3.97-3.55 9.27-5.08 13.14-8.75 4.42-3.92 8.3-8.44 12.99-12.06 4.04-3.12 9.6-2.22 14.24-1.22 4.17.83 6.09 5.31 10.07 6.57 4.36 1.36 7.98 4.3 12.32 5.71 4.87 1.87 10.22 1.24 15.28.65 4.24-.51 6.95-4.26 9.13-7.57 2.45-3.59.56-7.96-1.18-11.39-2.83-5.34-4.82-11.05-7.04-16.65-1.85-6.74-1.75-14.34 1.59-20.62 2.14-4.18 3.09-8.89 2.59-13.57-.16-5.34-3.41-9.81-4.68-14.86-1.57-5.99-5.82-11.39-11.59-13.81-3.71-1.08-7.73-.71-11.42.3M233.42 576.5c-4.29 2.11-5.67 8.71-2.16 12.13 2.45 2.64 5.22 5.05 8.33 6.9 2.25 1.5 5.19-.63 5.95-2.88 1.55-4.59.26-9.82-2.55-13.66-2.11-2.99-6.32-3.21-9.57-2.49m173.15 14.22c-4.81 3.01-9.7 7.15-10.71 13.05-.64 3.9-1.38 8.62 1.59 11.8 3.58 4.44 10.02 1.33 14.77 3.28 3.95 1.76 8.29-1.72 8.78-5.64-.36-4.68-5.6-7.31-5.74-12.04-.3-3.41.51-7.15-1.21-10.26-1.77-2.45-5.31-1.56-7.48-.19zM62.22 309.14c3.75-1.58 7.85-.11 11.53.96 10.95 3.66 21.56 8.27 32.01 13.15 3.6 1.52 6.2 4.55 9.46 6.6 6.81 3.39 14.75 3.29 21.61 6.56 4.06 1.92 8.37 4.27 10.59 8.36 2.13 4.25-.47 9.17-3.77 11.98-6.38 5.4-14.9 7.13-22.97 8.15-12.84 1.52-25.8.83-38.68 1.57-3.22.26-6.76.02-9.59 1.86-3.29 2.18-3.61 7.35-.91 10.12 2.35 2.51 5.58 3.91 8.57 5.49 12.4 6.11 25.42 10.87 37.66 17.31 2.72 1.46 5.83 4.13 4.93 7.59-.87 2.97-3.12 6.43-6.64 6.13-6.36-.85-11.37-5.22-16.87-8.12-7.69-4.56-16.19-7.6-24.93-9.39-6.79-1.16-12.06-5.89-18.07-8.85-7.35-3.06-16.34-3.43-22.04-9.59-3.04-3.35-1.14-8.06.59-11.54 1.5-3.17 3.24-7.18 7.32-7.35 17.56-2.21 35.38-1.99 52.87-4.88 5.03-.9 10.29-1.9 14.53-4.91 1.86-1.37 3.69-3.81 2.63-6.21-1.33-2.46-4.03-3.66-6.43-4.79-13.73-5.94-27.48-11.82-41.2-17.77-2.42-1.19-5.51-2.61-5.83-5.66.03-2.63 1.12-5.58 3.63-6.77zm1016.67 110.12c9.02-.23 16.93-6.5 26.09-5.57 2.86.18 5.46 2.05 6.41 4.78 1.22 3.39 1.75 7.01 1.91 10.59.28 2.73-2.01 4.64-3.78 6.33-10.25 8.86-21.08 17.01-31.34 25.86-5.26 4.73-10.74 9.4-14.71 15.31-1.74 2.78-3.52 6.44-1.86 9.65 1.98 2.56 5.7 1.86 8.49 1.48 12.31-2.5 24.59-5.11 36.89-7.64 4.26-.72 8.49-2.28 12.87-1.92 2.74.28 3.71 3.14 5.03 5.12 0 .68-.01 2.03-.01 2.71-3.22 5.43-9.7 6.81-15.3 8.45-10.06 2.65-20.26 4.86-30.53 6.53-4.34.86-8.8-.98-13.05.39-7.51 1.95-14.24 6.47-22.12 7.02-4.76.52-11.14.39-13.53-4.58-3.14-7.01 1.1-14.55 5.36-20.06 12.23-14.76 29.77-23.52 43.89-36.17 4.16-3.6 1.74-11.03-3.66-11.67-7.59-.61-15.08 1.53-22.51 2.82-9.23 1.88-18.46 3.83-27.79 5.14-2.99.37-6.96.12-8.48-2.94-1.4-3.13-1.39-7.87 2.21-9.5 5.84-2.8 12.53-2.06 18.79-2.91 8.55-.7 16.88-3.05 24.74-6.43 4.98-2.38 10.59-2.45 15.99-2.79zM96.45 429.84c5.09-.41 10.54-1.62 15.42.38 3.13 1.26 3.13 5.51 1.22 7.84-5.02 6.79-14.34 7.94-19.78 14.24-3.61 3.89-5.61 8.99-6.58 14.14-1.17 6.17-2.59 12.33-3 18.61-.19 2.44 1.39 4.51 2.93 6.22 3.58 3.76 8.01 6.65 11.29 10.71 2.16 2.7 1.56 6.48.7 9.57-.58 1.95-2.7 3.11-4.67 2.74-5.67-.75-9.57-5.33-14.04-8.41-9.18-6.59-18.96-12.28-28.45-18.4-8.53-5.66-17.73-10.15-26.66-15.1-5.77-2.99-11.75-6.61-14.94-12.5-2.98-5.59-.14-12.78 4.9-16.12 4.53-2.95 9.88-4.29 15.13-5.26 13.79-2.16 27.8-2.48 41.59-4.71 8.33-1.18 16.59-2.85 24.94-3.95m-55.02 20.89c-4.42.11-7.08 4.84-5.84 8.85 1.7 5.73 7.39 8.81 12.29 11.48 5.56 2.73 11.74 4.81 18.01 4.4 4.42-.14 5.92-4.91 6.93-8.43 1.06-4.42 2.41-9.24.81-13.67-2.07-4.31-7.61-4.14-11.67-3.88-6.82.79-13.72.34-20.53 1.25zm12.01 106.08c5.02-1.84 10.47 1.29 13.36 5.37 3.86 5.74 2.8 14.55-2.77 18.83-7.32 4.22-17.67-1.67-18.13-10.01-.81-5.6 1.51-12.62 7.54-14.19zm1012.95 3.5c6.42-2.86 14.38 1 16.75 7.44 1.22 4.28.97 9.15-1.37 13.02-3.02 5.06-10.54 6.23-15.12 2.6-7.99-4.84-8.12-18.08-.26-23.06zM48.95 653.7c13.83-3.42 26.59-11.05 41.07-11.73 3.87-.35 5.7 3.86 6.14 7.04.48 3.21-2.08 5.87-4.72 7.27-6.4 3.31-13.53 4.72-20.41 6.67-4.56 1.19-7.84 5.23-9.27 9.57-1.35 4.14.65 8.3 1.46 12.34 1.5 5.16 2.09 10.63 4.28 15.56 2.55 4.33 7.35 7.27 12.37 7.59 7.57.65 14.65-3.16 22.2-2.91 4.38.09 6.48 5.12 6.37 8.88-.76 3.69-4.8 5.07-7.88 6.33-8.36 2.71-16.99 4.52-25.46 6.86-16.01 4.05-31.93 8.5-47.99 12.3-3.01.38-7.41 1.96-9.23-1.43-2.16-3.72-3.31-9.52.79-12.38 5.37-3.43 11.8-4.64 17.85-6.4 6.49-1.6 14.79-3.33 17.32-10.45 1.59-7.56-.3-15.32-1.68-22.79-1.13-5.04-1.87-11.57-7.37-13.78-7.64-2.49-15.75-.01-23.23 1.95-5.55 1.31-10.77 4.59-16.62 4.11-3.52-.41-4.36-4.5-4.94-7.36v-.32c.34-3.2 2.78-5.57 5.53-6.91 5.38-2.68 11.18-4.37 16.95-6 8.61-2.62 17.78-1.75 26.47-4.01zm985.41-8.92c4.46-1.44 9.2-.19 13.7.49 7.89 1.48 15.68 3.44 23.45 5.5 4.39 1.24 8.99 2.18 12.87 4.73 6.92 4.87 15.82 2.98 23.67 4.61 5.1 1.12 10.54 2.73 14.16 6.72 3.08 3.58 1.72 8.98-.98 12.36-4.47 5.61-11.21 8.76-17.86 10.98-15.35 5.06-31.64 6.08-47.24 10.12-3.1.72-5.95 3.32-5.81 6.71-.2 4 3.43 6.65 6.84 7.8 15.35 5.67 31.78 7.92 47.03 13.85 5.77 1.98 4.72 10.45-.23 12.64-6.28 1.16-12.02-2.5-17.73-4.5a80.853 80.853 0 0 0-27.26-5.92c-5.46-.02-10.46-2.36-15.39-4.41-8.32-3.9-18.42-1.61-26.32-6.67-2.32-1.37-3.81-4-3.52-6.71.34-3.67 1.48-7.24 2.94-10.61.89-2.38 3.46-3.24 5.69-3.9 14.12-3.81 28.54-6.45 42.64-10.36 6.22-1.86 12.62-3.6 18.15-7.12 2.41-1.64 5-3.94 5.04-7.09-.53-3.37-4.36-4.45-7.15-5.3-14.5-3.74-29.03-7.39-43.54-11.11-2.5-.78-5.56-1.47-6.83-4.01-1.21-3.24.21-7.64 3.68-8.8zm-926.96 89.8c3.22-1.22 7.04-1.93 10.17-.08 3.15 1.65 5.68 5.63 3.89 9.15-1.76 3.62-4.52 7.31-8.6 8.41-4.65 1.33-9.16 3.1-13.61 4.99-13.63 5.99-27.5 11.83-39.79 20.35-4.26 3.04-9.01 6.43-10.27 11.84-1.68 7.14 1.52 14.35 5.23 20.31 3.29 5.3 9.05 9.33 15.48 9.14 13.48.18 25.51-6.82 36.96-13.1 9.12-4.53 18.1-9.54 27.82-12.7 3.67-1.1 8.5-2.27 11.43 1.02 2.41 2.23 2.76 6.19.29 8.54-4.81 4.83-11.12 7.79-17.15 10.79-16.27 7.49-33 13.99-49.92 19.86-4.28 1.23-8.83 3.41-13.31 1.82-8.95-2.68-15.65-9.79-20.06-17.77-5.9-10.28-11.62-22.42-8.07-34.48 3.32-9.24 9.6-17.61 18.06-22.71 12.62-7.99 26.5-13.61 39.89-20.09 3.86-1.75 7.62-3.75 11.56-5.29zm912.08 9.1c10.06-1.88 20.36.48 29.79 4.03 8.9 3.47 17.74 7.73 24.77 14.35 5.39 5.01 9.44 11.59 10.87 18.85 1.91 9 .05 18.32-3.09 26.82-3.68 9.76-8.85 19.34-16.96 26.14-12.16 10.31-29.92 11.9-44.64 6.75-17.1-5.56-31.9-18.96-37.39-36.29-3.7-11.96-.73-24.91 4.89-35.77 6.22-12.42 18.12-21.97 31.76-24.88m3 16c-13.77 2.8-25.78 13.5-29.16 27.27-1.26 5.52-.09 11.35 2.46 16.34 4.53 9 12.14 16.41 21.32 20.61 10.12 4.8 21.81 7.99 32.93 4.98 10.29-2.71 20.24-9.9 23.02-20.62 2.04-8.23-.24-16.89-3.94-24.3-5.2-10.2-14.9-17.37-25.31-21.62-6.69-2.77-14.15-4.04-21.32-2.66zm-881.31 65.35c2.28-3.62 5.28-7.47 9.81-8.05 8.61-.26 16.02 6.36 19.03 14.04 1.55 3.9-1.85 7.12-3.89 10.04-9.68 11.99-19.81 23.61-29.81 35.34-4 5.23-8.26 11.67-6.98 18.56.71 2.9 4.32 1.95 6.45 1.52 10.69-3.02 21.03-7.17 31.32-11.35-3.88 2.77-7.76 5.54-11.58 8.39-7.16 5.31-15.79 8.03-23.32 12.74-5.38 3.73-11.89 5.22-18 7.33-3.76 1.6-7.15-2.18-7.66-5.63-.77-4.76 1.83-9.21 4.49-12.93 10.39-13.24 22.74-24.99 31.59-39.39 1.97-3.32 4.32-7.33 2.84-11.28-2.17-2.65-6.06-1.01-8.35.65-13.94 10.39-27.62 21.12-41.6 31.44-2.88 1.82-5.96 4.09-9.54 3.84-3.8-.99-6.39-6-4.09-9.47 2.35-3.56 5.86-6.11 9.18-8.71 11.57-8.79 23.13-17.59 34.71-26.37 4.91-3.91 11.85-5.14 15.4-10.71zm814.47 4.66c1.69-1.37 4.12-1.48 5.96-.28 13.97 7.54 26.68 17.13 39.79 26.04 7.76 5.32 15.33 10.93 23.19 16.12 4.47 2.91 9.49 6.73 10.2 12.39.42 5.53-6.02 9.66-10.92 7.13-5.29-2.82-9.54-7.22-14.64-10.36-9.58-6.54-19.75-12.17-29.45-18.51-9.87-7.1-18.47-15.82-28.47-22.74-2.32-3.47 1.91-7.44 4.34-9.79zm-18.2 24.75c3.37-1.6 7.79 1.29 8.58 4.73-1.73 7.49-10.13 11.37-11.68 19.01-1.19 4.76 1.58 9.35 5.02 12.42 4.42 3.93 8.41 8.31 12.48 12.61 7.69 8.08 16.5 14.98 25.56 21.46 5.03 3.52 9.86 7.7 12.97 13.08 3.15 5.22-3.03 13.56-8.91 10.63-9.16-4.68-15.5-13.08-22.74-20.11-9.18-9.7-20.5-16.9-30.74-25.36-3.81-3.27-9.38-5.22-14.2-3.06-4.29 2.17-6.41 6.84-9.93 9.94-2.05 1.77-4.34 4.7-7.38 3.82-2.11-1.57-5.23-3.56-4.7-6.58 1.76-4.03 5.29-6.88 8.33-9.93 7.62-7.01 15.06-14.34 20.97-22.89 5.1-6.83 9.01-15.03 16.37-19.77zM190.88 872.9c2.75-1.24 6.24-2.73 9.03-.77 3.13 2.13 5.55 5.19 7.58 8.36 1.62 2.65 2.96 6.23 1.03 9.1-2.88 4.3-7.12 7.43-11.1 10.67-16.4 12.58-32.09 26.06-48.35 38.83-3.52 2.61-7 5.42-11.07 7.13-4.83 1.97-9.5-4.71-6.85-8.89 4.16-7.2 11.88-11.23 18.66-15.56 7.41-3.99 13.67-9.65 20.18-14.89 5.03-4.26 10.4-8.15 15.07-12.82 2.16-2.1 1.1-5.41-.82-7.25-3.34-4-9.17-2.19-13.68-2.75 7.01-3.27 13.4-7.71 20.32-11.16zm51.56 46.71c3.23-.69 6.85-.62 9.7 1.25 4.31 2.79 6.74 8.01 6.33 13.11-.74 11.33-6.42 21.44-10.65 31.74-6.07 12.78-10.7 26.17-15.49 39.46-2.37 5.73-4.23 11.97-8.46 16.65-2.08 2.59-6.14 1.96-7.78-.76-3.1-5.1-2.25-11.38-2.23-17.07.31-7.59-3.4-14.93-9.08-19.83-5.8-4.69-11.11-10.3-17.86-13.6-8.01-.9-14.86 5.78-22.84 4.78-3.22-1.41-8.4-4.36-6.31-8.59 4.12-6.21 12.26-7.05 18.31-10.61 15.55-8.31 31.35-16.24 46.09-25.96 6.53-3.91 12.65-8.96 20.27-10.57m-16.04 23c-7.7 3.26-14.76 8.53-19.4 15.57-1.66 2.43-2.65 5.85-.62 8.39 3.53 4.74 8.13 9.18 13.77 11.24 5.65 1.37 8.76-4.68 10.66-8.93 2.64-7.14 7.91-13.3 9.18-20.9-.49-6.38-8.74-7.89-13.59-5.37zm636.82-12.39c4.6-1.26 9.32.4 13.57 2.13 8.45 3.69 15.77 9.4 23.46 14.41 10.41 7.5 21.5 13.96 32.6 20.37 5.38 3.19 10.83 6.37 15.57 10.5 1.91 1.77 4.07 4.32 3.17 7.13-.96 2.27-3.41 3.48-5.74 3.78-8.07 1.17-15.78-3.62-23.85-1.82-8.78 1.46-15.04 8.28-21.67 13.59-2.5 2.41-5.81 4.42-7.03 7.82-1.44 7.19 2.59 14.32 1.19 21.5-1.39 3.04-4.12 6-7.52 6.62-4.19-.88-5.86-5.57-6.75-9.26-1.45-7.04-3.28-13.99-5.61-20.79-4.38-13.14-8.16-26.5-13.65-39.24-3.04-8.44-8.06-16.7-7.31-25.98.25-5.31 4.58-9.56 9.57-10.76m14.24 21.36c-4.1 2.13-5.16 7.34-4.22 11.53 1.34 6.63 4.25 12.96 8.35 18.33 2.25 2.73 4.75 5.84 8.41 6.6 4.37-.15 7.87-3.29 11.2-5.8 2.95-2.6 6.81-5.79 6.03-10.19-1.02-3.97-4.73-6.33-7.84-8.6-5.59-3.58-10.31-8.38-16.09-11.66-1.78-.98-4.04-1.23-5.84-.21zm-584.07 9.76c3.45-2.15 7.47-.08 10.51 1.82 3.23 1.99 7.44 4.29 7.02 8.75.12 17.7-2.01 35.38-1.08 53.08.36 5 .76 10.26 3.31 14.71 1.15 1.91 3.28 3.97 5.73 3.21 2.6-.98 4.09-3.53 5.49-5.76 7.25-12.68 14.49-25.36 21.73-38.04 1.35-2.19 2.66-4.69 5.08-5.85 3.71-1.07 8.33 1.8 8.47 5.82.12 3.95-1.77 7.59-3.31 11.12-3.58 7.6-7.75 14.9-11.95 22.18-2.6 4.26-4.89 8.87-8.75 12.19-5.92 5.07-6.75 13.32-9.85 20.05-2.38 4.93-5.42 9.96-10.25 12.81-4.04 2.35-8.99.02-11.69-3.29-4.34-5.4-5.79-12.49-6.27-19.24-1.16-16.71 2.52-33.25 2.71-49.93.26-3.68-2.47-7.4-6.32-7.51-4.18-.37-6.99 3.32-9.09 6.39-8.47 12.47-14.99 26.16-23.53 38.6-1.66 2.27-4.23 4.63-7.29 3.96-3.34-1.08-7.14-4.36-5.74-8.25 2-6.29 7.04-10.87 10.6-16.26 5.2-7.02 8.83-15.05 11.57-23.32 2.46-7.9 9.99-12.84 12.62-20.66 2.62-5.9 4.6-12.83 10.28-16.58zm505.86 13.86c6-1.4 12.36-.77 18.18 1.13 8.48 2.85 14.93 10.86 16.15 19.69 1.03 6.22-3.81 11.71-2.55 17.95.71 4.07 4.44 6.66 8.03 8.09 3.46 1.14 6.44 3.35 8.68 6.22 4.86 6.26 9.1 13.19 11.69 20.71 1.42 3.57-2.38 6.33-5.43 7.04-3.57.72-6.49-2.02-8.7-4.42-4.48-4.56-7.34-10.55-12.5-14.44-5.38-4.23-12.41-7.32-19.33-5.41-7 1.85-13.96 5.6-18.06 11.73-3.5 5.42-2.82 12.4-.99 18.29 1.74 5.91 5.93 10.95 6.6 17.21.63 3.59-2.82 6.53-6.03 7.08-4.63-.54-7.05-5.23-9.48-8.66-12.66-20.81-23.6-42.6-35.25-63.98-1.52-3.07-3.07-7.07-.93-10.22 2.46-3.36 6.42-5.06 9.97-7 11.04-5.83 21.82-12.16 32.8-18.11 2.25-1.24 4.62-2.33 7.15-2.9m-1.88 14.42c-7.95 4-16.51 6.87-24 11.72-4.34 2.63-5.82 8.46-3.56 12.96 2.48 5.11 5.2 10.12 7.89 15.13 2.24 4.13 7.62 5.09 11.83 3.88 6.73-1.79 13.08-5 18.73-9.05 6.11-4.6 11.55-11.3 11.96-19.23-.2-10.79-12.85-19.07-22.85-15.41zm-75.92 21.18c2.72-.71 5.57-1.93 8.41-1.18 2.71 1.27 3.57 4.64 3.46 7.4-.34 2.23-2.81 2.81-4.55 3.59-7.29 2.52-14.76 4.52-22.32 6.03-5.58 1.2-11.4 3.2-15.26 7.61-3.29 4.05-2.21 9.79-.58 14.31 1.4 4.13 4.89 7.75 9.38 8.22 9.81 1.26 19.19-2.65 28.32-5.64 2.71-.68 5.67-2.08 8.46-1.02 2.11 1.56 2.42 4.46 2.87 6.88.44 2.92-2.38 5.11-4.89 5.89-6.73 1.8-13.66 2.8-20.36 4.73-5.42 1.68-11.02 5.96-11.17 12.12.03 6.18 1.39 12.81 5.31 17.77 4.33 5.06 11.76 4.48 17.71 3.61 9.24-1.9 18-5.56 26.93-8.54 2.57-.65 6.06-.89 7.78 1.6 1.58 2.4 2.76 6.01.71 8.5-1.93 1.99-4.64 2.96-7.17 3.94-13.01 4.24-26.28 7.63-39.48 11.21-4.72 1.19-9.76 3.31-14.6 1.57-3.14-1.11-4.88-4.28-5.58-7.35-4.98-19.04-10.02-38.12-17.17-56.48-2.7-7.68-6.25-15.33-6.37-23.61-.09-4.4 3.14-8.37 7.42-9.3 14.19-4.15 28.52-7.8 42.74-11.86zm-263.05 17.65c3.72-1.79 9.87-1.69 11.73 2.65 1.37 6.87-1.57 13.57-2.94 20.22-4.09 15.29-6 31.04-8.18 46.69-.41 3.47-1.56 7.08-.38 10.53 1.35 4.15 5.25 7.15 9.49 7.89 10.06 1.79 20.76 1.69 30.04 6.51 2.28 1.26 5.86 1.9 6.14 5.08.61 2.63-2.22 3.86-4.32 4.17-8.11 1.63-15.9-1.83-23.72-3.36-9.21-2.16-18.5-3.9-27.82-5.53-2.98-.58-6.38-1.79-7.66-4.8-1.37-4.01-.65-8.33 0-12.39 3.88-22.4 7.73-44.8 11.6-67.2.72-3.98 2.22-8.43 6.02-10.46zm157.64 8.08c6.94.25 13.94-1.72 20.8-.03 6.81 1.6 12.76 6.73 15.03 13.39 1.69 4.99 2.29 10.56.74 15.67-1.34 4.37-5.59 7.66-5.44 12.49 1.25 3.08 3.67 5.49 5.62 8.15 5.03 6.09 7.18 14.1 7.39 21.88.07 6.26-2.96 12.34-7.77 16.29-7.98 6.52-17.93 10.83-28.29 11.27-4.44.51-8.83-.94-13.25-.37-5.02.55-9.93 1.72-14.86 2.73h-5.57c-2.47-.66-5.22-1.42-6.74-3.62-2.3-3.36-2.51-7.57-2.92-11.47-1.98-23.59-3.05-47.25-4.75-70.86-.53-4.93 1.61-10.44 6.44-12.41 10.58-4.63 22.37-2.8 33.57-3.11m-17.64 11.06c-2.24.61-4.58 1.88-5.42 4.2-1.65 4.61-.9 9.61-.47 14.38.33 3.15.74 6.73 3.32 8.93 2.23 1.96 5.37 1.94 8.17 1.87 6.84-.24 13.7-.63 20.45-1.77 3.45-.75 7.17-1.48 9.92-3.84 2.78-3.06 2.69-7.57 2.52-11.43-.13-3.56-1.17-7.54-4.4-9.51-5.54-3.5-12.33-2.77-18.56-2.7-5.17.1-10.43-1.6-15.53-.13m21.06 41.11c-6.09 1.58-12.28 2.71-18.51 3.51-2.57.2-4.77 2.22-5.05 4.8-.86 6 .93 11.95 1.73 17.87.77 4.56 5.5 6.83 9.58 7.75 7.81 1.71 16.01 1.72 23.86.29 8.78-1.68 14.84-10.3 15.23-18.93.15-4.29-1.4-8.73-4.76-11.51-5.93-5.24-14.72-5.98-22.08-3.78zm-81.13-49.27c3.31-.82 7.19-.63 10.2 1.12 3.25 2.39 1.99 6.98 2.47 10.44.27 22.7-1.72 45.35-2.56 68.03-.01 5.12-.33 10.65-3.37 14.99-2.73 3.97-9.3 4.01-12.06.03-2.8-3.78-1.45-8.68-1.12-12.95 1.39-14.65.31-29.37.67-44.05.77-11.72 3.54-23.22 4.03-34.96-.05-1.15.62-2.29 1.74-2.65z"/></svg>