<svg viewBox="162.525 44.29 77.11 67.494" xmlns="http://www.w3.org/2000/svg"><g stroke-width=".147211" transform="matrix(2.820671 0 0 2.820671 101.644852 -2830.024902)"><path d="m46.646551 1023.8809c-4.857359 2.0082-7.19285.8793-9.297822-.5374l-2.396291 8.3119c2.102898 1.4246 4.641696 2.596 9.301938.5097z" fill="#91c300"/><path d="m30.855564 1040.59c-2.109672-1.4198-4.403063-2.5877-9.271907-.5745l2.384075-8.3273c4.86987-2.0136 7.209344-.8741 9.316958.5544l-2.429126 8.3473z" fill="#00b4f1"/><path d="m33.689523 1030.7394c-1.270136-.8553-2.636105-1.6536-4.576043-1.6684-1.279998-.011-2.803632.3538-4.737831 1.1535l2.397028-8.3059c4.866639-2.0122 7.204196-.8733 9.310334.5542z" fill="#f8682c"/><path d="m34.548341 1033.0439c2.107032 1.4186 4.447532 2.5486 9.310047.5388l-2.396734 8.2782c-4.863401 2.0114-7.199039.8723-9.303864-.555z" fill="#ffc300"/></g><path d="m239.635 64.302c0-2.176-.387-4.263-1.098-6.194-.485 5.689-3.518 8.611-6.687 7.25-2.969-1.275-.968-6.246-.82-8.618.249-4.021-.013-8.623-7.317-12.45 3.035 5.806.352 9.413-2.463 9.633-3.122.243-5.982-2.684-4.926-7.434-3.418 2.519-3.518 6.758-2.463 9.5 1.1 2.859-.044 5.234-2.727 5.498-2.998.296-4.663-3.21-3.127-8.796-2.758 3.24-4.27 7.357-4.263 11.611 0 9.912 8.034 17.946 17.945 17.946 9.912 0 17.946-8.034 17.946-17.946z" fill="#f4900c"/><path d="m232.662 69.58c.156 3.255-2.704 4.531-4.243 3.915-2.223-.89-1.627-2.419-2.199-5.585-.572-3.167-2.771-5.366-6.025-6.334 2.375 6.685-1.317 9.149-3.252 9.589-1.976.45-3.961-.001-4.188-4.23-2.393 2.375-3.738 5.608-3.733 8.979 0 .389.024.771.058 1.151 3.353 3.325 7.886 5.188 12.609 5.183 4.723.006 9.256-1.858 12.61-5.183.034-.38.058-.762.058-1.151 0-2.308-.617-4.471-1.695-6.334z" fill="#ffcc4d"/></svg>