<svg height="205" viewBox="0 0 63.235 54.24" width="239" xmlns="http://www.w3.org/2000/svg"><g stroke-width=".523"><path d="m32.286 1.97c-.164.017-.228.109-.258.322-.047.332-.14.364-1.052.37-.85.004-1.098.077-1.648.483-.356.263-1.02.73-1.475 1.037-.955.646-1.681 1.448-1.681 1.859 0 .156-.052.336-.116.4-.19.189-.517 1.59-.524 2.244-.004.334-.062.612-.129.618l-.672.064a1.805 1.805 0 0 1 -1.052-.253c-.56-.342-1.393-.404-1.672-.125-.244.245-.69.06-.69-.286 0-.818-1.377-1.168-2.241-.57-.236.163-.795.396-1.24.517-.445.12-1.343.49-1.996.823-.93.475-1.26.74-1.515 1.224-.179.34-.5.804-.713 1.032-.26.277-.388.604-.388.992 0 .652-.142.807-1.028 1.12-.376.134-.712.395-.85.662-.125.242-.41.622-.631.844s-.404.503-.404.623-.078.294-.172.389c-.121.12-.073.347.162.765.183.327.333.72.333.873-.001.297-.853 1.382-1.78 2.266-.503.479-.64.53-1.214.447-.356-.05-1.558-.137-2.67-.192l-2.024-.1-.566.701c-.652.808-1.011 1.387-1.87 3.02-.512.97-.588 1.23-.447 1.536.093.203.256.553.361.778.322.688 1.379 1.13 2.703 1.129.877 0 1.243.071 1.537.3.584.456 1.27.551 4.256.592 3.236.044 3.491-.044 4.307-1.49.28-.495.568-.835.64-.757.074.077.061.686-.028 1.354-.258 1.936-.333 5.655-.13 6.474.43 1.724.531 2.07.847 2.914.812 2.167 1.967 4.18 3.53 6.149.757.956 2.31 2.585 2.466 2.588.069.001.991.585 2.05 1.297s1.985 1.296 2.06 1.298.316.147.539.321c.222.174.53.318.683.32s.538.15.855.327.683.324.814.324.238.072.238.161c0 .09.24.162.533.162s.604.062.689.137.59.228 1.124.34c.534.114 1.182.27 1.44.35s.841.154 1.295.164 1.044.075 1.311.143c1.043.264 5.593-.204 7.689-.79.311-.088.748-.208.97-.268s.714-.246 1.091-.415.833-.308 1.012-.308.325-.067.325-.149.274-.238.608-.347c.611-.198 1.532-.76 1.632-.995.03-.07.125-.128.213-.128.24 0 1.636-.988 1.946-1.378.149-.187.584-.554.967-.816.963-.657 1.231-.874 1.902-1.54 2.504-2.487 4.696-6.473 5.199-9.456.105-.623.257-1.3.337-1.505.198-.51.184-3.55-.017-3.674-.09-.055-.162-.339-.162-.63 0-.703-.334-2.405-.509-2.6-.076-.084-.138-.311-.138-.504 0-.38-.45-1.617-1.056-2.902-.21-.446-.45-.994-.536-1.218-.203-.541-2.13-3.108-3.079-4.102-.413-.434-1.298-1.219-1.966-1.744-.667-.525-1.302-1.026-1.41-1.113s-.252-.161-.322-.165-.38-.223-.689-.486-.727-.48-.93-.48-.37-.057-.37-.128c0-.072-.383-.335-.85-.585-1.269-.678-1.417-.853-1.417-1.672 0-.658-.082-.803-.99-1.75-1.121-1.166-1.436-1.299-3.419-1.45-1.264-.095-1.472-.072-1.963.232l-.549.34-.279-.426c-.23-.353-.244-.49-.08-.795.257-.481.108-.694-.752-1.074-.39-.172-.708-.385-.708-.474 0-.09-.146-.465-.325-.834-.178-.37-.285-.796-.237-.948.102-.32-.56-.906-1.204-1.066a2.956 2.956 0 0 1 -.824-.392c-.222-.157-.586-.309-.809-.336a.919.919 0 0 0 -.198-.008zm-9.892 11.246c.079.005.16.014.245.027.369.059.737.149.82.2.081.05-.312.402-.875.781-1.03.693-2.693 2.093-2.934 2.472-.071.112-.29.203-.487.203-.275 0-.403-.149-.558-.645-.111-.355-.202-.856-.202-1.115 0-.45.047-.48 1.054-.68.58-.115 1.183-.33 1.34-.476.63-.588 1.047-.796 1.597-.767zm-9.41 5.965c.125-.008.272 0 .466.013.507.033.834.14.906.294.062.134.196.407.3.606s.186.496.186.66c0 .165.05.349.112.41.463.463.463 1.615 0 2.33-.208.323-.428.238-.622-.242-.578-1.433-.99-1.822-1.939-1.822-.52 0-1.274-.26-1.273-.44 0-.07.347-.513.77-.986.564-.632.723-.8 1.095-.823z"/><g fill="#fff"><path d="m36.328 49.003c.758-.091.85-.144.85-.487 0-.211-.073-.529-.162-.706l-.324-.643c-.089-.176-.162-.4-.162-.495 0-.164-1.042-1.368-1.659-1.916-.155-.139-.284-.364-.286-.5-.001-.136-.218-.611-.482-1.056-.476-.802-.619-1.376-.342-1.376.078 0 .26.245.401.544.142.3.369.636.504.748.135.113.246.307.246.433 0 .312.43.973 1.167 1.794.34.377.735.96.878 1.295.534 1.242.986 2.053 1.233 2.209.17.107.46.1.875-.02.342-.1 1.059-.266 1.593-.37s1.097-.254 1.252-.335.39-.148.522-.148.718-.218 1.3-.485 1.13-.486 1.214-.486c.21 0 1.165-.547 2.286-1.307.513-.35.98-.635 1.035-.635s.203-.09.327-.202.652-.567 1.172-1.012c1.138-.972 1.845-1.837 1.78-2.176-.027-.137-.247-.344-.49-.46-.243-.117-.506-.336-.584-.488-.2-.386-.342-2.59-.36-5.571l-.016-2.546-.528-.449c-1.091-.926-1.258-1.036-1.457-.96-.113.044-.249.297-.302.564-.11.552-1.72 2.294-2.12 2.294-.386 0-.31-.373.207-1.025.32-.403.44-.707.388-.984-.055-.288.06-.545.413-.924.564-.603.733-1.27.576-2.27-.13-.832-.325-1.007-.774-.692-.8.56-.772.091.08-1.311.825-1.357.755-1.45-1.235-1.658-1.397-.145-1.51-.187-2.464-.912-.55-.418-1.035-.818-1.08-.89-.043-.07-.554-.406-1.134-.745-1.341-.785-1.698-1.122-1.817-1.717-.107-.538-.935-1.513-1.163-1.371-.082.05-.156.581-.165 1.179s-.088 1.309-.175 1.58c-.161.498-.573 2.691-.8 4.262-.099.675-.25.984-.718 1.463-.326.334-.592.687-.592.784 0 .237.616.624 1.213.761 2.88.664 3.419.696 5.342.324l1.76-.34c.757-.144.44.274-.472.621-.645.246-1.27.31-3.168.323-1.455.01-2.494-.052-2.7-.163-.405-.216-.842-.234-.842-.033 0 .269 1.145.825 1.699.825.3 0 .592.073.647.162s.236.162.401.162c.437 0 1.784.606 1.784.803 0 .205-.5.218-1.004.027-.204-.078-.808-.272-1.342-.431s-1.19-.377-1.457-.483-.995-.36-1.619-.564-1.202-.433-1.286-.509-.377-.138-.649-.138c-.435 0-.519.077-.696.645-.11.354-.201.814-.201 1.021 0 .441.652 1.089 1.457 1.447 1.97.876 2.187 1.002 1.829 1.059-.196.03-.5-.02-.676-.115a.865.865 0 0 0 -.696-.03c-.292.11-.616.019-1.44-.406-.586-.3-1.222-.73-1.415-.951-.408-.47-.56-.497-.844-.156-.3.362.058.944.75 1.215.585.23 1.151.74.995.897-.051.05-.54-.033-1.086-.186-.862-.242-1.083-.25-1.673-.064-.375.117-.754.259-.843.313s-.453.196-.809.315c-.94.314-1.052.454-1.052 1.308 0 .423.091.843.202.932s.967.548 1.902 1.019 1.817.99 1.961 1.152.381.296.526.296.265.064.265.143.138.179.306.223c.232.06.328.274.394.869.193 1.759 1.27 5.494 1.712 5.936.24.24.65.005.833-.476.127-.333.21-.39.355-.246s.05.463-.403 1.348c-.326.638-.556 1.22-.51 1.294.099.16.496.167 1.642.03zm-2.71-.623c0-.143-.147-.56-.325-.93s-.323-.79-.323-.938c0-.423-.581-.855-1.006-.748-.205.05-.796.503-1.314 1.005-.904.876-.93.923-.661 1.22.154.17.505.314.78.32s.644.068.819.136c.174.068.703.14 1.173.159.691.028.856-.015.856-.224zm-5.897-3.076c.317-.416.555-.567.898-.567.256 0 .466-.072.466-.161s-.073-.162-.162-.162-.161-.073-.161-.162.142-.162.317-.162c.565 0 .977-.628.977-1.487 0-.688-.04-.779-.346-.779-.19 0-.662.291-1.048.648s-.838.647-1.003.647c-.433 0-.524.153-.304.513.169.277.107.39-.498.913-.968.838-.907 1.173.237 1.303.107.012.389-.233.627-.544z"/><path d="m46.482 15.158c-.313-.018-.32.247.007.68.13.172.238.443.238.6 0 .159.222.54.494.85.575.655.733 1.127.882 2.637.06.606.19 1.335.288 1.621.13.38.128.621-.002.891-.316.652-.37 1.596-.118 2.083.324.626.312 2.15-.019 2.424-.212.176-.236.441-.143 1.598.126 1.575.266 1.804 1.635 2.685.458.294.895.632.971.75s.151 1.237.165 2.483c.032 2.829.267 5.558.52 6.032.243.453 1.108.506 1.272.077a2.09 2.09 0 0 1 .36-.554c.216-.233.486-.705 1.418-2.48.456-.868 1.04-2.639 1.23-3.723.286-1.637.23-5.514-.095-6.603-.154-.516-.28-1.067-.28-1.223s-.145-.587-.323-.956-.324-.744-.324-.834c0-.2-1.21-2.482-1.71-3.225-1.476-2.195-5.05-5.472-6.313-5.789a.82.82 0 0 0 -.153-.024zm-24.592 1.902c-.133-.01-.47.274-1.035.848-.95.965-1.077 1.584-.512 2.51.393.645.73.67 1.035.08.147-.285.201-.712.149-1.179-.054-.474.008-.949.177-1.352.249-.596.32-.898.186-.907zm5.958 9.07c-.24-.006-.381.375-.381 1.03 0 .287-.146.824-.324 1.192s-.323.878-.323 1.133c0 .356-.154.571-.665.938-.365.262-.782.604-.926.76-.181.196-.512.284-1.075.286-.558.003-.942.103-1.22.32-.222.174-.527.318-.677.32s-.32.077-.375.166-.44.161-.858.161c-.613 0-.869-.094-1.326-.49-.311-.27-.874-.726-1.25-1.012-.375-.286-.684-.581-.687-.656s-.15-.322-.329-.549-.324-.514-.324-.639c0-.361-.681-1.185-.98-1.185-.223 0-.284.21-.34 1.173-.124 2.096.21 6.005.529 6.202.079.05.144.244.144.433s.136.64.302 1.003.465 1.022.662 1.467c.914 2.058 3.6 5.26 4.413 5.26.207 0 .746-.425 1.386-1.093 2.046-2.134 2.424-2.725 2.553-3.985.035-.344.135-.712.222-.817s.18-.768.206-1.475c.043-1.141.084-1.291.372-1.337.178-.028.542-.154.809-.28s.813-.364 1.214-.532c.62-.26.758-.404.93-.974.112-.368.203-.777.203-.909 0-.216.53-.426 1.537-.61.26-.047.315-.167.279-.613-.051-.617-.178-.736-1.029-.972-.323-.09-.686-.282-.807-.428-.225-.27-.607-1.53-.62-2.042-.008-.306-.939-1.238-1.245-1.246z"/><path d="m21.76 30.823c.188-.175.472-.54.631-.81.204-.344.414-.49.708-.49.542 0 .807-.276.807-.841 0-.25.073-.453.162-.453.48 0-.427-1.952-1.037-2.23-.345-.157-.42-.3-.42-.81 0-.495-.113-.73-.563-1.165-.55-.534-.57-.54-.892-.248a.874.874 0 0 0 -.287.71c.06.571-.41.642-.657.1-.291-.64-.248-1.091.095-.982.176.056.358-.025.474-.212.16-.256.104-.383-.38-.848-.7-.673-1.027-1.275-1.027-1.893 0-.456-.342-1.016-1.082-1.768-.475-.483-.86-.322-.86.36 0 .292-.11.62-.243.731-.391.325-.287.93.243 1.401.57.509.598.636.164.75-.484.126-.69.86-.569 2.015.059.556.163 1.045.232 1.088.156.096.497-.626.497-1.053 0-.174.073-.316.162-.316.098 0 .161.73.161 1.869 0 1.378.067 1.998.253 2.358.408.789.719.352.719-1.01 0-1.31.255-1.486.38-.264.05.468.137 1.342.197 1.943s.172 1.092.25 1.092.144.12.144.265c0 .318.789 1.03 1.143 1.03.139 0 .406-.143.594-.319z"/><path d="m21.101 29.402c-.295-.493-.756-1.359-.756-1.421 0-.207.593-.04.75.212.273.438.437 1.33.244 1.33-.091 0-.198-.054-.238-.12zm4.554-1.995c-.032-.095-.127-.174-.211-.174s-.18.079-.212.174c-.032.096.063.174.212.174s.243-.078.211-.174zm-.454-1.202a.243.243 0 0 0 -.243-.242c-.253 0-.321.191-.135.377s.378.118.378-.135zm1.5-.091c.324-.513-1.005-1.932-1.808-1.932-.344 0-.172.42.389.949.311.294.566.662.566.818 0 .555.542.66.854.165zm-24.744-.227c.143-.219.261-.555.261-.747s.225-.605.5-.918c.462-.526.496-.647.445-1.56-.066-1.183.123-1.269.8-.362.471.633 1.327 1.062 2.14 1.074.222.003.905.183 1.518.399.694.245 1.288.358 1.577.3.255-.05.686 0 .958.112.4.166.569.166.884-.003.254-.136.699-.176 1.286-.116.807.084.898.062.898-.215 0-.169-.172-.613-.382-.987-.305-.544-.523-.722-1.092-.892-1.066-.319-1.397-.274-1.708.228-.74 1.19-1.204 1.397-2.097.934-.55-.285-.718-.674-.52-1.203.091-.244.086-.451-.014-.55-.087-.089-.91-.195-1.826-.237s-1.809-.15-1.981-.24c-.256-.134-.381-.08-.687.303-.206.257-.374.558-.374.669s-.06.202-.133.202-.232.257-.355.57-.355.69-.516.835-.292.43-.292.634c0 .203-.073.415-.162.47-.257.159-.188 1.079.106 1.403.351.388.453.375.766-.103zm31.09-1.374c.233-.451.227-.498-.117-.822-.289-.271-.491-.323-.972-.248-.483.076-.664.03-.886-.23-.166-.194-.478-.325-.771-.325-.271 0-.761-.183-1.089-.405-.721-.49-1.098-.518-1.098-.081 0 .178.067.324.15.324s.355.2.607.445c.902.878 1.735 1.406 2.151 1.363a1.2 1.2 0 0 1 .734.202c.526.398 1.013.314 1.291-.223zm13.194-1.95c0-.088-.072-.161-.161-.161s-.162.073-.162.162.073.162.162.162.161-.073.161-.162zm-23.238-.745c.14-.054.256-.207.256-.34 0-.156-.093-.208-.256-.145-.141.054-.287.098-.324.098s-.068.11-.068.243c0 .272.03.283.392.144zm2.602-.39c0-.152-.19-.258-.526-.29-.57-.056-.696.176-.242.444.377.223.768.145.768-.153zm8.336.054c0-.309-.613-1.022-.878-1.023-.096 0-.43-.22-.74-.49-.443-.381-.656-.464-.972-.375-.508.143-1.472.133-2.468-.026-.716-.115-.769-.1-.769.222 0 .261.1.346.405.346.222 0 .55.146.728.324.248.248.54.323 1.245.323 1.446 0 2.801.33 2.801.68 0 .184.12.292.324.292.196 0 .324-.108.324-.273zm11.764.05a.401.401 0 0 1 .083-.393c.118-.117.071-.308-.153-.626-.177-.252-.37-.615-.43-.807-.06-.193-.215-.438-.346-.546s-.236-.333-.236-.5c0-.253.124-.304.728-.304 1.082 0 .963-.394-.189-.625-1.205-.242-1.51-.233-1.51.047 0 .128-.151.28-.336.339-.32.101-.322.12-.055.415.153.17.368.31.477.31.312 0 .69.521.44.606-.347.116-.222.623.212.855.314.168.392.31.323.584-.065.258.012.435.269.615.446.313.838.329.723.03zm-9.498-1c0-.14-.073-.208-.162-.153-.09.055-.162.168-.162.252s.073.152.162.152.162-.113.162-.252zm6.797.11c0-.205-.475-.57-.59-.455-.166.166.082.596.343.596.136 0 .247-.063.247-.142zm-1-.934c.236-.421.04-.825-.53-1.096-.291-.138-.62-.36-.733-.496-.34-.41-.678-.302-.62.2.044.385.137.455.697.525.445.056.662.169.7.364.034.18-.025.254-.16.204-.118-.043-.324-.007-.458.081-.215.143-.215.178 0 .32.374.245.939.194 1.104-.102zm-16.31-.517c.433-.35.306-.673-.265-.673-.425 0-.647.327-.493.728.122.32.312.306.758-.055zm8.392-.411c.132-.158.138-.349.02-.658-.09-.24-.165-.6-.165-.804 0-.507-.504-.918-1.33-1.083-.381-.076-1.195-.247-1.808-.38s-1.177-.204-1.254-.156c-.185.114-.178.648.012 1 .084.155.192.463.24.686.14.645 1.624 1.24 3.999 1.603.055.008.184-.085.286-.208zm4.387-.182c0-.133-.073-.242-.162-.242s-.162.109-.162.242.073.243.162.243.162-.109.162-.243zm-9.388-.556c0-.084-.073-.198-.162-.253s-.161-.314-.161-.576c0-.508-.14-.595-.454-.282-.269.27-.242.617.074.967.284.313.703.4.703.144zm-16.913-.334c.055-.089.297-.162.537-.162.275 0 .548-.146.735-.395.163-.217.502-.44.753-.495.467-.103.75-.483.482-.648-.082-.051-.107-.307-.055-.568.081-.403.033-.5-.313-.632-.224-.085-.456-.232-.514-.327-.059-.094-.212-.172-.34-.172-.306 0-.3.553.01.81.133.11.242.343.242.516 0 .52-.716.319-.778-.218-.035-.307-.17-.46-.468-.535-.62-.155-.87.183-.413.557.587.48.373 1.136-.37 1.136-.493 0-.546.11-.353.738.168.548.62.76.845.395zm13.912-.21c.332-.505.633-1.403.512-1.524-.166-.166-1.395.315-1.395.546 0 .12.073.217.162.217s.162.142.162.314-.073.36-.162.415c-.273.168-.18.404.158.404.176 0 .43-.167.563-.371zm12.034-.287c-.032-.096-.127-.174-.212-.174s-.18.078-.212.174c-.031.095.064.174.212.174s.244-.079.212-.174zm6.1-.312c.055-.089.023-.162-.071-.162s-.171.073-.171.162.032.162.07.162.117-.073.172-.162zm.068-.96c.196-.124.19-.207-.044-.564-.301-.46-.68-.524-1.119-.19-.647.49.453 1.204 1.163.754zm-11.628-.866c.14-.108.385-.397.545-.642.353-.542 1.029-.592 1.914-.14.526.267.62.275.797.061.166-.198.133-.297-.18-.55-.21-.17-.343-.349-.295-.397.047-.048.647.029 1.332.17 1.476.305 2.28.21 2.41-.288.093-.36-.477-1.506-1.082-2.174-.356-.393-.918-.491-.926-.162-.003.111-.112.343-.241.514-.23.303-.253.299-.845-.167-1.042-.82-2.785-1.072-7.73-1.118-3.838-.035-4.264-.067-4.842-.361-.633-.323-.634-.323-1.183.002-.411.242-.597.278-.735.14-.292-.292-.633-.216-1.121.252-.85.813-.357 1.173.73.532.461-.273.633-.298 1.02-.149.257.098.94.175 1.518.17.96-.007 2.093.241 2.371.52.061.06.263.111.448.113.186 0 .62.1.964.22.793.276.477.536-.36.296-1.698-.485-1.966-.582-1.966-.707 0-.074-.219-.136-.486-.136-.646 0-.625.349.04.68.29.145 1.255.631 2.145 1.082.89.45 1.703.821 1.807.824.153.003 1.433.671 2.806 1.463.349.202.85.18 1.145-.048zm-18.14-2.706c0-.341-.235-.435-.404-.162-.118.191.035.486.252.486.084 0 .153-.146.153-.324zm26.544.162c0-.089-.073-.162-.162-.162s-.161.073-.161.162.072.162.161.162.162-.073.162-.162zm-25.572-.405c0-.133-.073-.242-.162-.242s-.162.109-.162.242.073.243.162.243.162-.109.162-.243zm1.069-.846c-.165-.164-.3.083-.166.302.102.165.14.165.195 0 .038-.112.024-.248-.03-.302zm1.166-.582c.052-.612-.083-.74-.422-.4-.212.21-.262.817-.083.996.235.235.457-.026.505-.596zm-1.912-.038a.239.239 0 0 0 -.242-.233c-.273 0-.284.03-.145.39.114.297.387.186.387-.157zm26.22-.395c0-.089-.057-.162-.126-.162s-.209-.218-.31-.485c-.156-.415-.267-.486-.763-.486-.32 0-.581.073-.581.162s.096.162.212.162c.117 0 .422.218.678.485.46.48.89.637.89.324zm-9.548-.971c.203-.109.336-.109.404 0 .055.089.412.162.794.162.653 0 .711-.038.986-.647.18-.401.401-.648.578-.648.355 0 .479-.31.278-.7-.23-.445-.033-.8.372-.671.27.086.328.047.283-.191-.048-.249-.234-.306-1.108-.34-1.695-.067-1.735-.089-1.752-.928-.008-.402.055-.73.141-.73s.156-.141.156-.313c0-.418-.537-.567-1.09-.303-.428.205-.449.27-.483 1.507-.053 1.893-.16 2.33-.62 2.54-.218.1-.397.274-.397.388 0 .41-.339.404-.835-.014-.509-.427-.882-.369-.699.11.154.4.881.698 1.637.668.386-.015.745.04.795.122.117.19.186.188.56-.012zm-11.816-.304c0-.078-.103-.227-.228-.331-.254-.21-.513.028-.338.311.123.2.566.215.566.02z"/></g></g></svg>