<svg clip-rule="evenodd" fill-rule="evenodd" stroke-linejoin="round" stroke-miterlimit="2" viewBox="0 0 590 577" xmlns="http://www.w3.org/2000/svg" xmlns:xlink="http://www.w3.org/1999/xlink"><clipPath id="a"><path clip-rule="evenodd" d="m-.264.47h589.38v576.053h-589.38z"/></clipPath><g fill="#fff" fill-rule="nonzero"><path d="m207.85 23.01c29.62-17.25 64.94-11.33 97.2-7.37 30.83 3.6 61.77 10.89 89.28 25.7 10.18 5.85 21.04 13.66 23.81 25.79 2.4 12.41-5.03 23.74-7.56 34.89 7.55 8.84 22.17 12.19 24.64 25.25 1.65 23.16-8.96 46.44-23.02 64.05 3.68-13.02 12.43-23.98 15.18-37.32-.8-1.61-1.6-3.22-2.39-4.83 3.26-2.48 6.34-6.38 3.31-10.35 1.02-2.24 1.44-4.67 1.24-7.12-2.12-.41-4.23-.88-6.37-1.2 1-1.74 1.48-3.67 1.39-5.68-1.81-.44-3.63-.92-5.43-1.38.79-1.18 1.59-2.36 2.4-3.54-.73-1.13-1.45-2.26-2.17-3.39-2.05.02-4.11.07-6.15.15.11-.89.34-2.68.46-3.58-2.99-2.86-7.73-2.19-10.7.32 7.1-15.64 15.06-35.86 6.33-52.29-2.26.11-5.48.82-4.85 3.81.21 8.59-2.71 16.68-5.1 24.78 3.16-9.31 3.96-18.94 3.22-28.78-.73-.44-2.19-1.3-2.92-1.73-5.76 4.16-3.42 12.11-5.09 18.11-.74-8.36 2.58-16.79-.23-25.02-9.41-1.06-5.06 12.26-9.54 17.45-1.26-7.99 2.73-18.08-3.46-24.51-1.22.56-2.43 1.11-3.64 1.65-.93 3.68-1.31 7.45-1.77 11.2-2.87-4.96.14-16.3-7.4-16.48-4.7 4.82-.69 12.82-2.64 18.86-2.17-6.89 1.77-20.25-7.25-22.2-.68.74-1.36 1.47-2.04 2.21 0 3.91.05 7.84-.62 11.7-2.08-4.76-.56-11.44-6.07-14.19-5.3 3.85-2.46 10.74-3.7 16.19-2.33-7.19-1.19-15.75-6.43-21.77-1.07.08-2.13.15-3.19.23-.78 2.81-1.17 5.7-1.44 8.6-2.59-4.5-5.07-9.15-8.85-12.8l-3.72.12c-2.63 6.57 4.96 12.74 1.78 19.91-.93-6.45-1.75-13.09-5.03-18.86-1.27-.03-2.54-.05-3.81-.08-2.04 7.39.95 15.19 0 22.81-.82-8.61-2.18-17.3-5.64-25.28-1.1-2.8-6.54-2.45-6.5.83-.38 7.49 2.58 14.7 2.18 22.22-2.37-8.45-4.12-17.28-7.48-25.32-6.84-2.86-5.68 6.44-5.7 10.29-2.64-4.66-4.16-9.83-6.62-14.58-1.08.01-2.15.01-3.22.02-.75.66-1.49 1.31-2.23 1.97-.13 4.65 1.52 9.1 1.54 13.74-3.95-4.82-5.99-10.75-9.17-16.02-6.33-.56-5.1 7.02-5.11 11.07-3.12-3.65-4.11-14.41-11.06-10.82-.01 2.52 0 5.03-.06 7.55-1.55-3.15-2.9-6.39-4.32-9.6-1.85.12-3.49.91-4.86 2.13.53 6.19 1.76 12.3 2.53 18.46-1.82-7.4-3.78-15.68-9.65-20.95-8.59 4.7.32 15-.43 22.34-4.48-6.34-4.48-18.17-13.96-19.13-2.84 4.64 1.81 9.17 1.03 14.06-1.8-2.95-3.38-6.02-5.15-8.98-7.32-1.97-6.41 6.51-6.02 11.13-1.73-3.95-4.39-7.44-9.1-5.97-.29 3.41-.19 6.84.09 10.25-1.51-1.43-3.02-2.84-4.53-4.26-1.21.75-2.42 1.49-3.64 2.23.04 3.12.2 6.25.38 9.37-1.98-2.08-4.48-3.05-7.3-2.71-.29 3.43-.16 6.87.11 10.3-2.06-.14-4.11-.24-6.17-.31-.3 3.84-.09 7.69.21 11.52-2.14-.22-4.28-.4-6.42-.53-2.86 4.33-.65 9.41-.47 14.13-2.05.02-4.11.07-6.16.15-.32 4.12.25 8.2 1.15 12.21-1.73-.06-3.44-.14-5.16-.22a444 444 0 0 0 -2.24 1.89c.16 4.11.96 8.15 1.57 12.21-2.64-.1-5.29-.14-7.93-.09 6.4-32.13 19.24-65.94 47.85-84.61zm287.35 23.34c8.42.29 18.28-2.89 25.7 2.19-.64 10-13.05 4.6-19.44 5.84.08 2.28.17 4.56.28 6.84 4.12.15 8.78-.89 12.19 2.06 1.29 7.08-6.74 6.51-11.47 7.03.46 2.4.96 4.78 1.43 7.18 6.08.36 13.46-1.96 18.08 3.29-4.78 10.1-30.17 11.39-28.76-3.85-.18-9.95-3.72-21.89 1.99-30.58zm59.21-.14c9.84-1.75 7.82 11.48 8.29 17.78-.81 7.51 3.7 16.09-1.28 22.74l-5.88-.03c-3.17-4.02-1.7-9.33-2.92-13.98-3.97.26-8.16-.51-11.95.94-2.75 3.65 1.38 10.09-3.1 13.06-3.86 2.99-8.55-1.48-8.15-5.66.26-10.67-1.73-21.34-.64-31.98.57-3.33 4.16-2.58 6.67-2.91 2.88 5.25 3.43 11.27 3.44 17.15 4.55.17 9.14.23 13.61-.72.04-5.51-.78-11.32 1.91-16.39zm-100.75 2.14c8.98-2.19 7.26 9.59 8.04 15.17 4.66-.04 9.32-.3 13.91-1.15.28-4.94-1.42-17.98 6.95-13.99 4.97 10.63 2.62 23.28 4.04 34.77-.73.83-1.46 1.67-2.17 2.52-1.72.05-3.42.07-5.13.08-2.94-3.8-3.09-8.63-3.07-13.22-4.58-.02-9.15.08-13.72.17-1.12 5.04.42 10.89-3.19 15.12-5.57.79-7.4-5.41-6.88-9.81.41-9.87-1.16-19.98 1.22-29.66z"/><path d="m200.24 125.19c5.92-21.38 18.62-48.07 43.74-49.89 22.86 1.67 44.6 12.1 62.67 25.96 4.05 2.61 4.26 9.42 9.57 10.22 21-2.57 43.37-1.5 62.8 7.61 21.15 12.49 21.06 43.26 8.6 61.88 4.35 17.82.22 36.84-6.42 53.67-1.2 2.82-1.05 6.02 1.24 8.24 13.34-1.84 18.44-18.24 26.58-27.56 10.42-.45 10.58 14.62 4.99 20.49-8.22 9.78-17.89 18.61-22.58 30.87-7.21 12.55 1.21 29.3-9.37 40.34-2.98 3.82-8.96 9.06-13.58 5.08 1.63-12.32 6.51-24.48 4.93-37.13-1.14-1.57-3.15-1.5-4.85-1.88-3.59 6.23-4.33 13.55-6.84 20.22-6.81 28.89-23.76 53.75-38.51 78.95-28.55 27.84-65.83 51.01-107.21 48.47-16.22-.71-33.69-4.14-45.06-16.66-31.64-25.59-43.03-67.98-43.18-107.18.65-.19 1.94-.58 2.58-.77 1.69-7.93 1.13-16.07 1.2-24.12-.04-25.5 7.11-50.6 18.44-73.26-10.78-3.81-14.42 12-18.54 19.32-1.74 10.48-17.1 19.3-23.99 8.24-.3-10.86 3.95-21.74 10.62-30.21 16.21-15.69 7.28-40.61 13.76-59.99 1.87-4.66 8.13-7.62 12.32-4.12 3.34 5.69 2.79 12.88 5.35 18.84-2.22 6.17-8.5 21.02 3.44 19.42 7.17-7.01 6.15-18.73 11.3-27.03 10.54-8.77 22.71-15.4 36-18.02m34.42-9.49-1.14 3.78c-1.95.41-3.89.84-5.84 1.22-4.98 9.08 7.96 4.83 11.91 8.75 12.74 7.37 12.94 23.52 14.05 36.44-7.19-5.65-16.15-9.35-25.38-9.24-32.48 5.15-51.16 56.86-20.1 75.93-5.87.59-11.53-1.01-17.22-2.1-4.73-.53-4.58 6.8-.66 7.96 17.25 8.53 45.34 2.01 50.54-17.87-9.03-2.45-17.36 6.96-26.74 2.93-14.59-4.51-15.18-23.51-9.16-35.13 8.6 5.16 16.7 11.14 25.64 15.73-.97 3.23-1.32 6.68 1.02 9.43 1.6.05 3.21.11 4.82.17 1.29-1.69 2.49-3.45 3.65-5.23 3.54 1.8 7.88 2.83 10.66-.81.87-5.9-5.46-7.53-9.64-9.39-11.54-4.51-21.25-12.35-32.21-17.97 6.37-11.7 21.97-18.99 34.01-10.95 9.81 3.51 7.63 15.27 11.78 22.58 4.34.12 5.49-3.98 5.97-7.45 1.79 2.1 3.85 3.94 6.12 5.51-.76 17.99-7.45 35.68-18.09 50.06-.95 7.19 8.45 4.28 10.09-.36 12.64-19.13 21.83-47.08 6.73-66.19-2.53-8.2 1.86-16.49 1.18-24.82-1.38-.59-2.76-1.18-4.14-1.74-.84-6.38 2.52-14.29-2.56-19.37-1.39.48-2.78.94-4.17 1.39-1.54-4.88-2.81-13.62-9.82-12.41-.32 1.53-.63 3.07-.94 4.6-2.41-2.58-5.03-4.97-7.91-7.03-.61.4-1.84 1.19-2.45 1.58m52.02 35.73c-3.96 7.65-5.62 16.24-9.78 23.81-2.63 4.46 4.42 7.6 6.7 3.43 4.9-7.98 8.06-17.72 6.76-27.16zm8.06 32.59c9.08-2.69 3.94-15.62 9.33-22.18 1.72-3.61 7.13-7.45 2.1-10.93-10.59 6.14-15.91 22.13-11.43 33.11m40.41-21.52c-7.1-2.55-8.89 5.56-12.12 9.98-1.76 0-3.52.01-5.28.03-3.18 5.43-6.59 12.24-13.93 11.96-6.38 1-1.88 9.36 3.12 8.1 21.03 2.02 27.31-26.9 48.03-26.11 7.48-2.18 11.77 7.31 18.83 5.76 5.34-5.1-2.85-9.42-5.46-13.41-3.61-6.67-12.1-3.56-17.8-2.02-.85-1.17-1.69-2.34-2.52-3.51-5.79.16-9.47 5.19-12.87 9.22m-28.81 46.95c9.44 1.62 14.22-11.98 24.51-9 14.07 4.61 15.39 23.07 12.44 35.37-13.66-.65-26.86-5.05-39.35-10.31-3.86-1.14-6.17 4.27-3.13 6.57 6.18 5.82 15.04 6.9 22.77 9.58-.18 2.64-.3 5.29-.32 7.93 4.6 4.15 9.56-.31 10.6-5.2 1.78.41 3.55.82 5.35 1.22-3.13 10.94-16.87 19.56-27.84 14.13-5.8-2.38-7.86-8.53-10.88-13.45-7.57-.08-6.23 8.63-6.17 13.77 1.53 12.57 8.13 29.74 21.43 32.8 2.66-10.01-10.51-15.59-11.92-25.52 6.87 4.04 15.51 5.48 23.18 3.08 28.59-10.63 39.27-57.06 13.33-75.68-11.92-8.07-32.09.2-34 14.71m-17.09-6.01c-9.19 16.28-15.69 34.08-18.71 52.54-.76 3.81.82 8.46 5.13 9.06 4.03-5.53 3.96-12.68 5.93-19.02 3.05-18.65 15.51-34.6 18.99-52.62-6.56-1.66-8.84 5.53-11.34 10.04m-72.38 49.43c-12.79 9.08-30.66 16.69-35.62 32.57 11.42-.99 19.17-13.04 29.42-18.16.93 7.84 7.77 13.6 15.42 14.42-.56 16.74 19.17 28.07 33.89 21.61 6.4-3.97 13.8 1.54 20.47-2.06 1.79 10.11-2.93 20.9.84 30.43 7.68 1.48 8.28-8.34 8.38-13.71 1.92-12.01-1.33-23.98-.05-36.02.86-5.9-3.97-14.21-10.7-12.12-3.88 3.31 1.1 6.98 2.36 10.21.1 6.14-2.21 14.79-10.13 13.64.98-4.41 2.89-9.89-1.43-13.19l-4.52-.03c-2.95 3.09-3.4 7.53-5.66 11-6.24 5.28-16.21 3.28-21.3-2.6-4.61-6.3-2.48-14.32-2.73-21.52-3.63-.52-6.09 1.77-7.95 4.56-7.4 1.01-9.46-8.19-5.51-12.99 2.81-5.08 10.21-2.88 12.98-8-5.31-4.51-13.59-2.84-18.16 1.96m-20.08 33.39c-4.19 15.96-12.18 31.36-12.49 48.13 3.31 3.37 7.59 1.4 10.26-1.66 2.8 9.63 6.66 20.21 15.81 25.54 10.69 4.52 23.87 3.91 32.58-4.48.66 1.26 1.32 2.52 1.99 3.78 1.78.07 3.57.12 5.36.18 8.87-12.48 16.59-26.65 18.43-42.06-2.1-1.6-4.52-2.89-6.92-1.03-18.05 10.84-47.8 7.47-56.79-13.77-4.55-4.38.58-15.34-8.23-14.63m-45.98 64.01c3.64 8.06 10.58 12.92 18.46 16.43-1.21 35.98 52.08 54.61 73.41 26.01 11.86 2.94 26.45 2.63 35.82-6.24 2.71-2.42.11-5.71-2.26-7.14-8.41 3.49-17.5 4.71-26.53 5.12-.08-2.89-.62-5.74-2.34-8.12-1.87 0-3.73 0-5.59.01-5.93 5.2-9.02 13.56-16.76 16.52-20.33 8.18-47.23-6.54-46.51-29.8 2.08-6.31-4.22-15.12-8.6-6.6-7.32-4.22-15.14-10.73-15.58-19.82-8.54-4.41-7.77 9.65-3.52 13.63zm373.26-248.22c7.29-.01 25.09-5.77 23.7 6.6-5.36 2.01-11.15.72-16.7 1.53.15 2.46.33 4.91.46 7.36 4.45.07 9.14-.96 13.34 1.03 1.67 7.77-7.11 8.64-12.62 8.04.04 2.62.09 5.24.16 7.86 5.52.61 11.5-2.71 16.41 1.05 1.96 7.41-6.67 7.75-11.83 7.39-5.14-.32-13.83 2-14.47-5.44.46-11.62-2.83-24.82 1.55-35.42zm-42.89 12.98c.72-4.51-2.09-11.58 3.61-13.52 1.18.43 2.37.86 3.57 1.29 1.53 5.11 2.01 10.45 2.25 15.76 4.63-.13 9.28-.17 13.86-.94.57-5.25-1.93-12 2.57-15.97 3.67-1.79 6.23 2.07 6.38 5.34.8 10.89 2.08 21.86 1.37 32.77-.3 3.68-4.64 2.75-7.2 2.97-2.52-4.7-2.46-10.04-2.45-15.22-4.51-1.14-9.16-.85-13.67.07.13 5.98 1.33 16.99-7.93 15.27-4.65-8.27-1.21-18.67-2.36-27.82zm98.5-11.76c9.4-1.56 8.03 10.74 8.1 16.77-.74 7.79 4.52 18.78-2.82 24.29-8.51 1.73-7.65-9.36-7.51-14.82-4.04.06-8.08.18-12.12.16 0 4.94-.17 9.88-.74 14.79-4.79 4.92-11.26-.61-10.19-6.46.77-11.5-2.66-24.02 2.14-34.82 10.11-1.67 6.54 10.44 8.04 16.44 4.27.46 8.56.13 12.83-.23.41-5.4-1.3-11.46 2.27-16.12z"/><path d="m156.15 121.59c1.3-4.3 2.16-8.74 3.98-12.87.27 4.2.37 8.41.53 12.62-1.13.06-3.38.18-4.51.25zm400.16 50.85c.95-6.58-3.47-19.49 7.04-19.26 5.9 11.45 3.43 25.29 4.5 37.81 1.14 4.55-4.18 7.35-7.8 5.15-3.86-3.42-2.14-9.15-3.4-13.64-4.09-.17-8.18-.33-12.27-.09-.06 5.98 2.62 16.55-6.55 16.56-7.38-11.04-3.85-27.01-3.99-39.9 8.61-8.49 9.49 7.65 9.63 13.38 4.28.02 8.56.06 12.84-.01zm-97.54-14.4c.48-3.01 3.63-2.89 5.98-2.99 3.04 5.17 2.11 11.53 3.02 17.28 4.88-.05 9.81.26 14.63-.75.45-5.66-2.69-18.66 7-16.1 4.98 11.52 2.74 25.44 3.2 37.93-.85.78-1.69 1.57-2.53 2.37-8.3.73-6.59-8.91-7.54-14.27-4.63.01-9.26-.06-13.89-.21-.03 5.01.78 10.77-3.24 14.6-3-.27-6.52-1.36-6.42-5-.73-10.89-1.31-21.96-.21-32.86zm43.4-3.19c7.75.02 18.45-3.13 24.28 3.1-.54 8.55-12.53 3.6-18.18 4.62.04 2.28.08 4.55.09 6.83 3.97.26 8.24.34 11.58 2.83-.17 1.7-.34 3.4-.54 5.09-3.57.57-7.15 1.01-10.73 1.39l.12 7.82c6.22 1.18 19.62-3.06 18.1 7.25-8.79 4.58-29.84 6.67-28.27-8.74 1.18-9.79-3.42-22.22 3.55-30.19zm-485.67 144.76c4.58-6.06 13.35-6.98 20.28-5.58 9.43 2.8 5.48 17.04 14.36 20.13 14.03-.53 28.1-1.77 41.99-3.99-.45 2.49-.95 4.99-1.62 7.44-1.69-.05-3.37-.09-5.05-.11-.62.62-1.25 1.24-1.87 1.87-.18 2.12-.33 4.24-.49 6.37-3.25-5.29-10.64-7.64-12.02.54-.9-2.01-1.85-3.99-2.82-5.96-5.46-1.43-7.09 4.56-7 8.78-2.99-2.13-4.06-5.87-6.41-8.58l-2.25.12-2.21 1.76c-.01 3.46.16 6.92-.07 10.38-4.53-5.02-4.04-20.07-13.01-17.42-1.87 6.82 4.71 13.81 4.26 21.06-4.35-6.49-6.67-14.18-11.82-20.17-1.48.09-2.96.19-4.43.31-.47 8.47 6.66 15.09 6.59 23.53-2.14-3.68-4.46-8.1-9.47-6.7-.25 3.92.71 7.72 1.67 11.49-2.05-3.01-4.74-5.61-8.6-4.38-.07 3.11.03 6.21.13 9.32a462.84 462.84 0 0 0 -4.12-4.6c-2.98-8.52 6.02-12.34 7.9-19.05-5.78-7.35-8.55-17.85-3.92-26.56zm181.46 6.57c1.55 3.01 3.19 5.97 4.83 8.94-2.91 3.04-6.19 5.68-9.58 8.15.92-5.86 2.86-11.48 4.75-17.09zm-96.42 7.07c1.61-7.76 11.38-3.88 16.93-4.87.05 2.6.09 5.21.13 7.82-2.89.82-5.21 2.69-6.85 5.18-1.13-1.05-2.26-2.09-3.38-3.13-4.86-.18-5.33 5.58-6.97 8.92-5.8 13.51-8.3 28.11-13.92 41.67-1.29 3.67-4 9.49.95 11.6 8.34 1.68 16.91 2.55 25.02 5.39.56 14.41-18.96 17.92-23.33 29.44 15.53 21.38 32.34 41.77 50.88 60.72-6.36-2.53-11.55-7.03-16.02-12.11-16.47-15.49-32.83-32.19-42.37-52.97 7.95-6.73 19.75-10.14 24.28-20.05-6.25-7.9-17.75-5.15-26.48-7.53 4.82-23.98 15.07-46.42 21.13-70.08zm107.13 7.7c3.18 2.31 6.57 4.3 10.18 5.86-3.22 3.92-5.57 8.49-9.27 12.03-.32-5.97-1.14-11.91-.91-17.89zm18.75 7.48c3.77.39 7.53.95 11.3 1.41-2.92 5.31-5.93 10.62-10.04 15.13-.04-5.54-.98-11.01-1.26-16.54zm20.89 1.39c3.27-.91 6.52-1.85 9.8-2.7-2.04 5.75-4.46 11.39-7.59 16.64-2.04-4.3-1.88-9.29-2.21-13.94zm-119.01 35.74c10.48 22.83 26.7 43.11 48.06 56.43-10.64 6.39-19.74 15.05-30.47 21.26-7.85-25.25-16.26-51.25-17.59-77.69zm-116.28 32.47c9.77-9.46 17.6-21.54 29.66-28.21.37 3.28-1.08 6.19-3.68 8.12-14.07 11.52-23.88 27.05-34.78 41.34.57-7.8 2.81-15.84 8.8-21.25zm307.53-8.34c6.84-11.61 15.32 2.41 20.19 8.21-7.23 17.46-18.56 33.18-27.47 49.93-8.72-.63-16.75-5.16-25.5-5.5-.79 1.21-1.57 2.42-2.35 3.64 4.77 9.09 8.03 18.85 11.58 28.46-33.44 16.2-71.56 21.34-108.17 23.81 32.85-7.13 66.94-11.66 97.68-25.78 7.19-9.96-5.98-21.46-6.01-32.47-.64-5.12 5.67-3.71 8.7-2.75 6.55 2.34 13.39 3.31 20.23 4.31 8.94-8.94 12.95-21.67 20.26-31.93 2.06-3.83 6.52-9.16 1.46-12.6-5.05 2.62-7.54 7.88-11.08 12.03 2.21-4.66 7.76-9.09 5.58-14.65-1.69.08-3.38.16-5.06.27 0-1.66-.01-3.32-.04-4.98zm27.38 13.69c10.12 6.89 17.95 18.81 30 22.31 7.26-4.2 17.31-10.96 25.32-3.99 11.78 8.63 5.13 27.92-7.96 30.95-5.37.6-9.65 4.69-7.87 10.4 2.56 10.61 2.02 21.78 5.33 32.18l-3.99 1.83c1.23-5.01-3.36-7.4-7.71-6.57 1.48-1.34 2.96-2.66 4.42-4.02.01-1.34.02-2.68.04-4.02-.66-.59-1.31-1.18-1.95-1.76-1.58-.13-3.16-.26-4.72-.38 1.41-2.71 3.51-4.92 5.84-6.85-.06-1.55-.14-3.09-.22-4.62-1.79-.59-3.59-1.19-5.38-1.76 3.1-3.97 7.82-8.77 2.29-12.92 5.35-4.86 10.66-9.77 16.19-14.42 0-1.54-.01-3.08 0-4.6-4.7-3.95-9.29 2.1-13.34 4.17.66-2.56 1.31-5.13 1.37-7.78-5.68-1.77-9.64 2.84-13.55 6.09.47-2.39 1.06-4.73 1.63-7.08-5.21-4.04-8.59 3.82-12.86 3.75-.4-3.5 4.4-6.66 2.73-10.92-4.55-.89-7.97 2.31-11.13 5.04 1.65-2.7 2.64-5.73 2.12-8.92-3.6-.66-6.79.98-9.71 2.9 4.77-6.02-.36-12.79 3.11-19.01zm-145.9 26.82c21.21 3.61 42.65.11 63.02-6.11-16.26 14.93-34.47 27.33-52.06 40.58-2.38-11.87-6.34-23.32-10.96-34.47zm-24.25 3.2c3.33-5.05 14.44-10.25 15.46-.97-5.14.58-10.28 1.38-15.46.97zm-26.61 20.08c5.82-5.52 12.42-10.12 18.89-14.83.15 4.24 6.17 9.85 1.27 12.9-5.98 4.58-10.63 10.58-16.31 15.5-2.01-4.29-4.06-8.72-3.85-13.57zm27.73-12.93c6.08.45 12.46-2.31 18.27.19-3.85 6.43-16.69 9.55-18.27-.19zm9.28 40.61c3.1-10.51-3.85-27.34 11.27-28.97 1.72 6.34 4.4 12.56 4.39 19.23-5.17 3.32-10.42 6.53-15.66 9.74zm-13.19-22.51c6.67-8.17 7.56 3.24 6.14 8.73a64.663 64.663 0 0 1 -6.14-8.73zm-7.89 9.01c1.3-1.33 2.59-2.67 3.87-4.01 2.58 4.53 5.61 8.78 8.55 13.09-.81 3.36-1.07 6.81-1.09 10.27-3.95-6.31-9.18-12.13-11.33-19.35zm180.2 1.53c11.94 11.17 9.5 30.87 13.43 45.91-2.76.95-5.51 1.94-8.27 2.89-.13-16.39-2.09-32.73-5.16-48.8zm-182.62 22.73c-1.48-6.15-8.17-12.66-2.76-18.62 3.16 5.28 6.91 10.25 9.27 15.96-2.17.88-4.34 1.79-6.51 2.66zm-115.15-7.34c2.13-2.44 5.1-.18 7.17 1.11-.95 11.42-2.87 23.32-8.12 33.64-4.89 9.72-21.6 11.76-25.72.39-1.06-6.76-1.96-14.84 2.96-20.39 10.68-.98 2.92 12.4 6.61 18.34 15.9-1.09 9.63-23.47 17.1-33.09zm14.17 15.47c.71-5.27 4.76-13.98 10.91-8.59-1.67 13.75-3.07 29.2-10.16 41.2-1.58-.04-3.15-.07-4.73-.09-5.3-10.08 2.96-21.83 3.98-32.52zm14.02 16.12c2.77-7 2.24-17.04 8.53-21.64 9.93 2.79 10.85 16.39 14.73 24.66 3.01-6.61 2.6-15.25 8.21-20.35 7.1-1.91 5.99 7.67 4.76 11.87-3.42 10.63-4.28 22.46-10.52 31.94-1.96-.02-3.91-.03-5.86-.02-4.51-8.06-4.92-17.76-8.65-26.23-4.52 6.93-1.1 20.48-11.41 22.35-6.63-5.99-1.02-15.39.21-22.58zm46.25-12.21c11.59-5.18 26.61 7.18 23.1 19.85-2.59 8.62-13.12 9.05-20.56 9.84-1.69 4.74-1.49 14.16-8.65 12.99-4.66-.72-3.49-6.87-2.69-10.19 2.91-10.78 3.88-22.51 8.8-32.49m6.7 7.23c-.91 4.43-1.54 8.93-1.4 13.47 3.33-.67 6.58-1.68 9.62-3.18-.53-4.77-3.14-9.45-8.22-10.29zm25.83.19c1.66-.01 3.33 0 4.99.03.69.7 1.39 1.39 2.09 2.1 1.03 11.95-2.58 23.6-3.94 35.32-2.5 6.44-11.78 2.54-10.23-3.76 1.4-11.32 3.12-22.98 7.09-33.69zm18.91 1.84c1.9.05 3.8.12 5.71.22 4.23 7.27 9.75 13.78 13.25 21.47 1.81-7.18.3-15.22 4.1-21.8 2.8.14 7-.1 6.95 3.79-.66 12-1.84 24.18-5.14 35.77-11.15.77-12.98-14.28-18.52-21.62-2.4 7.3.63 21.11-10.07 21.83-4.22-3.97-2.06-10.21-1.68-15.21 1.93-8.11.48-17.29 5.4-24.45zm34.8 20.5c-1.4-13.29 14.28-27.2 25.43-15.74.67 9.27-9.05 2.36-13.79 5.75-2.39 5.77-3.8 12.07-3.22 18.34 1.28 5.05 10.82 4.85 10.27-1.19-1.82-.86-3.61-1.74-5.4-2.64-.06-1.59-.12-3.18-.17-4.76 5.96-1.12 19.95-4.16 18.42 5.76-8.1 1.28-3.33 12.67-11.6 14.31-12.47 5.57-24.72-7.51-19.94-19.83z"/></g><g clip-path="url(#a)"><path d="m215.78 8.92c26.96-12.93 57.7-8.04 86.23-4.69 33.15 2.7 65.41 12.2 95.49 26.13 13.38 6.68 27.02 16.37 31.49 31.4 2.48 13.05-.12 26.59-5.63 38.57 10.74 3.88 19.79 13.07 22.74 24.15 4.08 30.26-12.65 58.25-30.05 81.17 13.65 6.82 15.54 26.41 6.34 37.58-11.36 12.62-24.8 26.36-23.98 44.75 1.91 18.08-14.5 41.68-34.57 34.35-8.8 18.85-18.49 37.38-30.39 54.47 15.59 12.18 29.97 25.55 45.44 37.84 10.69-7.45 26.79-7.7 35.19 3.35 14.44 15.18 3.3 41.36-15.69 46.36 2.54 12 4.14 24.01 6.58 35.99-2.581 1.592 5.656 78.463 5.656 78.463s-49.887-3.092-89.424.22c-37.749 3.163-74.156-3.78-117.454-1.347-45.717-.628-130.333.657-130.333-.998 0 0-31.561 16.451-56.891 15.556-5.846-.207-12.341-9.588-16.927-10l.403-279.784c-.864-4.224-.023-11.283 8.89-12.91 7.89-1.44 14.61-7.4 23.13-6.07 12.5-1.26 20.97 10.11 22.78 21.29 21.33-1.22 42.19-7.35 63.66-6.42.31-19.16 4.22-38 5.36-57.1-10.26 3.15-23.08-1.41-26.12-12.4-2.48-16.19 5.26-32.29 16.02-44 8.9-14.6 3.77-32.62 8.1-48.5 2.88-10.89 14.74-18.14 25.59-13.59 1.02-18.52 7.4-36.17 12.15-53.96 11.47-25.12 28.55-51.07 56.22-59.87m-7.93 14.09c-28.61 18.67-41.45 52.48-47.85 84.61 2.64-.05 5.29-.01 7.93.09-.61-4.06-1.41-8.1-1.57-12.21a444 444 0 0 1 2.24-1.89c1.72.08 3.43.16 5.16.22-.9-4.01-1.47-8.09-1.15-12.21 2.05-.08 4.11-.13 6.16-.15-.18-4.72-2.39-9.8.47-14.13 2.14.13 4.28.31 6.42.53-.3-3.83-.51-7.68-.21-11.52 2.06.07 4.11.17 6.17.31-.27-3.43-.4-6.87-.11-10.3 2.82-.34 5.32.63 7.3 2.71-.18-3.12-.34-6.25-.38-9.37 1.22-.74 2.43-1.48 3.64-2.23 1.51 1.42 3.02 2.83 4.53 4.26-.28-3.41-.38-6.84-.09-10.25 4.71-1.47 7.37 2.02 9.1 5.97-.39-4.62-1.3-13.1 6.02-11.13 1.77 2.96 3.35 6.03 5.15 8.98.78-4.89-3.87-9.42-1.03-14.06 9.48.96 9.48 12.79 13.96 19.13.75-7.34-8.16-17.64.43-22.34 5.87 5.27 7.83 13.55 9.65 20.95-.77-6.16-2-12.27-2.53-18.46 1.37-1.22 3.01-2.01 4.86-2.13 1.42 3.21 2.77 6.45 4.32 9.6.06-2.52.05-5.03.06-7.55 6.95-3.59 7.94 7.17 11.06 10.82.01-4.05-1.22-11.63 5.11-11.07 3.18 5.27 5.22 11.2 9.17 16.02-.02-4.64-1.67-9.09-1.54-13.74.74-.66 1.48-1.31 2.23-1.97 1.07-.01 2.14-.01 3.22-.02 2.46 4.75 3.98 9.92 6.62 14.58.02-3.85-1.14-13.15 5.7-10.29 3.36 8.04 5.11 16.87 7.48 25.32.4-7.52-2.56-14.73-2.18-22.22-.04-3.28 5.4-3.63 6.5-.83 3.46 7.98 4.82 16.67 5.64 25.28.95-7.62-2.04-15.42 0-22.81 1.27.03 2.54.05 3.81.08 3.28 5.77 4.1 12.41 5.03 18.86 3.18-7.17-4.41-13.34-1.78-19.91l3.72-.12c3.78 3.65 6.26 8.3 8.85 12.8.27-2.9.66-5.79 1.44-8.6 1.06-.08 2.12-.15 3.19-.23 5.24 6.02 4.1 14.58 6.43 21.77 1.24-5.45-1.6-12.34 3.7-16.19 5.51 2.75 3.99 9.43 6.07 14.19.67-3.86.62-7.79.62-11.7.68-.74 1.36-1.47 2.04-2.21 9.02 1.95 5.08 15.31 7.25 22.2 1.95-6.04-2.06-14.04 2.64-18.86 7.54.18 4.53 11.52 7.4 16.48.46-3.75.84-7.52 1.77-11.2 1.21-.54 2.42-1.09 3.64-1.65 6.19 6.43 2.2 16.52 3.46 24.51 4.48-5.19.13-18.51 9.54-17.45 2.81 8.23-.51 16.66.23 25.02 1.67-6-.67-13.95 5.09-18.11.73.43 2.19 1.29 2.92 1.73.74 9.84-.06 19.47-3.22 28.78 2.39-8.1 5.31-16.19 5.1-24.78-.63-2.99 2.59-3.7 4.85-3.81 8.73 16.43.77 36.65-6.33 52.29 2.97-2.51 7.71-3.18 10.7-.32-.12.9-.35 2.69-.46 3.58 2.04-.08 4.1-.13 6.15-.15.72 1.13 1.44 2.26 2.17 3.39-.81 1.18-1.61 2.36-2.4 3.54 1.8.46 3.62.94 5.43 1.38.09 2.01-.39 3.94-1.39 5.68 2.14.32 4.25.79 6.37 1.2.2 2.45-.22 4.88-1.24 7.12 3.03 3.97-.05 7.87-3.31 10.35.79 1.61 1.59 3.22 2.39 4.83-2.75 13.34-11.5 24.3-15.18 37.32 14.06-17.61 24.67-40.89 23.02-64.05-2.47-13.06-17.09-16.41-24.64-25.25 2.53-11.15 9.96-22.48 7.56-34.89-2.77-12.13-13.63-19.94-23.81-25.79-27.51-14.81-58.45-22.1-89.28-25.7-32.26-3.96-67.58-9.88-97.2 7.37m-7.61 102.18c-13.29 2.62-25.46 9.25-36 18.02-5.15 8.3-4.13 20.02-11.3 27.03-11.94 1.6-5.66-13.25-3.44-19.42-2.56-5.96-2.01-13.15-5.35-18.84-4.19-3.5-10.45-.54-12.32 4.12-6.48 19.38 2.45 44.3-13.76 59.99-6.67 8.47-10.92 19.35-10.62 30.21 6.89 11.06 22.25 2.24 23.99-8.24 4.12-7.32 7.76-23.13 18.54-19.32-11.33 22.66-18.48 47.76-18.44 73.26-.07 8.05.49 16.19-1.2 24.12-.64.19-1.93.58-2.58.77.15 39.2 11.54 81.59 43.18 107.18 11.37 12.52 28.84 15.95 45.06 16.66 41.38 2.54 78.66-20.63 107.21-48.47 14.75-25.2 31.7-50.06 38.51-78.95 2.51-6.67 3.25-13.99 6.84-20.22 1.7.38 3.71.31 4.85 1.88 1.58 12.65-3.3 24.81-4.93 37.13 4.62 3.98 10.6-1.26 13.58-5.08 10.58-11.04 2.16-27.79 9.37-40.34 4.69-12.26 14.36-21.09 22.58-30.87 5.59-5.87 5.43-20.94-4.99-20.49-8.14 9.32-13.24 25.72-26.58 27.56-2.29-2.22-2.44-5.42-1.24-8.24 6.64-16.83 10.77-35.85 6.42-53.67 12.46-18.62 12.55-49.39-8.6-61.88-19.43-9.11-41.8-10.18-62.8-7.61-5.31-.8-5.52-7.61-9.57-10.22-18.07-13.86-39.81-24.29-62.67-25.96-25.12 1.82-37.82 28.51-43.74 49.89m-44.09-3.6c1.13-.07 3.38-.19 4.51-.25-.16-4.21-.26-8.42-.53-12.62-1.82 4.13-2.68 8.57-3.98 12.87m-139.65 178.02c-4.63 8.71-1.86 19.21 3.92 26.56-1.88 6.71-10.88 10.53-7.9 19.05 1.38 1.52 2.75 3.05 4.12 4.6-.1-3.11-.2-6.21-.13-9.32 3.86-1.23 6.55 1.37 8.6 4.38-.96-3.77-1.92-7.57-1.67-11.49 5.01-1.4 7.33 3.02 9.47 6.7.07-8.44-7.06-15.06-6.59-23.53 1.47-.12 2.95-.22 4.43-.31 5.15 5.99 7.47 13.68 11.82 20.17.45-7.25-6.13-14.24-4.26-21.06 8.97-2.65 8.48 12.4 13.01 17.42.23-3.46.06-6.92.07-10.38l2.21-1.76 2.25-.12c2.35 2.71 3.42 6.45 6.41 8.58-.09-4.22 1.54-10.21 7-8.78.97 1.97 1.92 3.95 2.82 5.96 1.38-8.18 8.77-5.83 12.02-.54.16-2.13.31-4.25.49-6.37.62-.63 1.25-1.25 1.87-1.87 1.68.02 3.36.06 5.05.11.67-2.45 1.17-4.95 1.62-7.44-13.89 2.22-27.96 3.46-41.99 3.99-8.88-3.09-4.93-17.33-14.36-20.13-6.93-1.4-15.7-.48-20.28 5.58m85.04 13.64c-6.06 23.66-16.31 46.1-21.13 70.08 8.73 2.38 20.23-.37 26.48 7.53-4.53 9.91-16.33 13.32-24.28 20.05 9.54 20.78 25.9 37.48 42.37 52.97 4.47 5.08 9.66 9.58 16.02 12.11-18.54-18.95-35.35-39.34-50.88-60.72 4.37-11.52 23.89-15.03 23.33-29.44-8.11-2.84-16.68-3.71-25.02-5.39-4.95-2.11-2.24-7.93-.95-11.6 5.62-13.56 8.12-28.16 13.92-41.67 1.64-3.34 2.11-9.1 6.97-8.92 1.12 1.04 2.25 2.08 3.38 3.13 1.64-2.49 3.96-4.36 6.85-5.18-.04-2.61-.08-5.22-.13-7.82-5.55.99-15.32-2.89-16.93 4.87m27.76 52.31c1.33 26.44 9.74 52.44 17.59 77.69 10.73-6.21 19.83-14.87 30.47-21.26-21.36-13.32-37.58-33.6-48.06-56.43m-116.28 32.47c-5.99 5.41-8.23 13.45-8.8 21.25 10.9-14.29 20.71-29.82 34.78-41.34 2.6-1.93 4.05-4.84 3.68-8.12-12.06 6.67-19.89 18.75-29.66 28.21m307.53-8.34c.03 1.66.04 3.32.04 4.98 1.68-.11 3.37-.19 5.06-.27 2.18 5.56-3.37 9.99-5.58 14.65 3.54-4.15 6.03-9.41 11.08-12.03 5.06 3.44.6 8.77-1.46 12.6-7.31 10.26-11.32 22.99-20.26 31.93-6.84-1-13.68-1.97-20.23-4.31-3.03-.96-9.34-2.37-8.7 2.75.03 11.01 13.2 22.51 6.01 32.47-30.74 14.12-64.83 18.65-97.68 25.78 36.61-2.47 74.73-7.61 108.17-23.81-3.55-9.61-6.81-19.37-11.58-28.46.78-1.22 1.56-2.43 2.35-3.64 8.75.34 16.78 4.87 25.5 5.5 8.91-16.75 20.24-32.47 27.47-49.93-4.87-5.8-13.35-19.82-20.19-8.21m27.38 13.69c-3.47 6.22 1.66 12.99-3.11 19.01 2.92-1.92 6.11-3.56 9.71-2.9.52 3.19-.47 6.22-2.12 8.92 3.16-2.73 6.58-5.93 11.13-5.04 1.67 4.26-3.13 7.42-2.73 10.92 4.27.07 7.65-7.79 12.86-3.75-.57 2.35-1.16 4.69-1.63 7.08 3.91-3.25 7.87-7.86 13.55-6.09-.06 2.65-.71 5.22-1.37 7.78 4.05-2.07 8.64-8.12 13.34-4.17-.01 1.52 0 3.06 0 4.6-5.53 4.65-10.84 9.56-16.19 14.42 5.53 4.15.81 8.95-2.29 12.92 1.79.57 3.59 1.17 5.38 1.76.08 1.53.16 3.07.22 4.62-2.33 1.93-4.43 4.14-5.84 6.85 1.56.12 3.14.25 4.72.38.64.58 1.29 1.17 1.95 1.76-.02 1.34-.03 2.68-.04 4.02-1.46 1.36-2.94 2.68-4.42 4.02 4.35-.83 8.94 1.56 7.71 6.57l3.99-1.83c-3.31-10.4-2.77-21.57-5.33-32.18-1.78-5.71 2.5-9.8 7.87-10.4 13.09-3.03 19.74-22.32 7.96-30.95-8.01-6.97-18.06-.21-25.32 3.99-12.05-3.5-19.88-15.42-30-22.31m-145.9 26.82c4.62 11.15 8.58 22.6 10.96 34.47 17.59-13.25 35.8-25.65 52.06-40.58-20.37 6.22-41.81 9.72-63.02 6.11m-24.25 3.2c5.18.41 10.32-.39 15.46-.97-1.02-9.28-12.13-4.08-15.46.97m-26.61 20.08c-.21 4.85 1.84 9.28 3.85 13.57 5.68-4.92 10.33-10.92 16.31-15.5 4.9-3.05-1.12-8.66-1.27-12.9-6.47 4.71-13.07 9.31-18.89 14.83m27.73-12.93c1.58 9.74 14.42 6.62 18.27.19-5.81-2.5-12.19.26-18.27-.19m9.28 40.61c5.24-3.21 10.49-6.42 15.66-9.74.01-6.67-2.67-12.89-4.39-19.23-15.12 1.63-8.17 18.46-11.27 28.97m-13.19-22.51c1.8 3.08 3.86 5.99 6.14 8.73 1.42-5.49.53-16.9-6.14-8.73m-7.89 9.01c2.15 7.22 7.38 13.04 11.33 19.35.02-3.46.28-6.91 1.09-10.27-2.94-4.31-5.97-8.56-8.55-13.09a485.22 485.22 0 0 1 -3.87 4.01m180.2 1.53c3.07 16.07 5.03 32.41 5.16 48.8 2.76-.95 5.51-1.94 8.27-2.89-3.93-15.04-1.49-34.74-13.43-45.91m-182.62 22.73c2.17-.87 4.34-1.78 6.51-2.66-2.36-5.71-6.11-10.68-9.27-15.96-5.41 5.96 1.28 12.47 2.76 18.62m-115.15-7.34c-7.47 9.62-1.2 32-17.1 33.09-3.69-5.94 4.07-19.32-6.61-18.34-4.92 5.55-4.02 13.63-2.96 20.39 4.12 11.37 20.83 9.33 25.72-.39 5.25-10.32 7.17-22.22 8.12-33.64-2.07-1.29-5.04-3.55-7.17-1.11m14.17 15.47c-1.02 10.69-9.28 22.44-3.98 32.52 1.58.02 3.15.05 4.73.09 7.09-12 8.49-27.45 10.16-41.2-6.15-5.39-10.2 3.32-10.91 8.59m14.02 16.12c-1.23 7.19-6.84 16.59-.21 22.58 10.31-1.87 6.89-15.42 11.41-22.35 3.73 8.47 4.14 18.17 8.65 26.23 1.95-.01 3.9 0 5.86.02 6.24-9.48 7.1-21.31 10.52-31.94 1.23-4.2 2.34-13.78-4.76-11.87-5.61 5.1-5.2 13.74-8.21 20.35-3.88-8.27-4.8-21.87-14.73-24.66-6.29 4.6-5.76 14.64-8.53 21.64m46.25-12.21c-4.92 9.98-5.89 21.71-8.8 32.49-.8 3.32-1.97 9.47 2.69 10.19 7.16 1.17 6.96-8.25 8.65-12.99 7.44-.79 17.97-1.22 20.56-9.84 3.51-12.67-11.51-25.03-23.1-19.85m32.53 7.42c-3.97 10.71-5.69 22.37-7.09 33.69-1.55 6.3 7.73 10.2 10.23 3.76 1.36-11.72 4.97-23.37 3.94-35.32-.7-.71-1.4-1.4-2.09-2.1-1.66-.03-3.33-.04-4.99-.03m18.91 1.84c-4.92 7.16-3.47 16.34-5.4 24.45-.38 5-2.54 11.24 1.68 15.21 10.7-.72 7.67-14.53 10.07-21.83 5.54 7.34 7.37 22.39 18.52 21.62 3.3-11.59 4.48-23.77 5.14-35.77.05-3.89-4.15-3.65-6.95-3.79-3.8 6.58-2.29 14.62-4.1 21.8-3.5-7.69-9.02-14.2-13.25-21.47-1.91-.1-3.81-.17-5.71-.22m34.8 20.5c-4.78 12.32 7.47 25.4 19.94 19.83 8.27-1.64 3.5-13.03 11.6-14.31 1.53-9.92-12.46-6.88-18.42-5.76.05 1.58.11 3.17.17 4.76 1.79.9 3.58 1.78 5.4 2.64.55 6.04-8.99 6.24-10.27 1.19-.58-6.27.83-12.57 3.22-18.34 4.74-3.39 14.46 3.52 13.79-5.75-11.15-11.46-26.83 2.45-25.43 15.74z" fill="#010101" fill-rule="nonzero"/></g><g fill="#010101" fill-rule="nonzero"><path d="m234.66 115.7c.61-.39 1.84-1.18 2.45-1.58 2.88 2.06 5.5 4.45 7.91 7.03.31-1.53.62-3.07.94-4.6 7.01-1.21 8.28 7.53 9.82 12.41 1.39-.45 2.78-.91 4.17-1.39 5.08 5.08 1.72 12.99 2.56 19.37 1.38.56 2.76 1.15 4.14 1.74.68 8.33-3.71 16.62-1.18 24.82 15.1 19.11 5.91 47.06-6.73 66.19-1.64 4.64-11.04 7.55-10.09.36 10.64-14.38 17.33-32.07 18.09-50.06a31.747 31.747 0 0 1 -6.12-5.51c-.48 3.47-1.63 7.57-5.97 7.45-4.15-7.31-1.97-19.07-11.78-22.58-12.04-8.04-27.64-.75-34.01 10.95 10.96 5.62 20.67 13.46 32.21 17.97 4.18 1.86 10.51 3.49 9.64 9.39-2.78 3.64-7.12 2.61-10.66.81-1.16 1.78-2.36 3.54-3.65 5.23-1.61-.06-3.22-.12-4.82-.17-2.34-2.75-1.99-6.2-1.02-9.43-8.94-4.59-17.04-10.57-25.64-15.73-6.02 11.62-5.43 30.62 9.16 35.13 9.38 4.03 17.71-5.38 26.74-2.93-5.2 19.88-33.29 26.4-50.54 17.87-3.92-1.16-4.07-8.49.66-7.96 5.69 1.09 11.35 2.69 17.22 2.1-31.06-19.07-12.38-70.78 20.1-75.93 9.23-.11 18.19 3.59 25.38 9.24-1.11-12.92-1.31-29.07-14.05-36.44-3.95-3.92-16.89.33-11.91-8.75 1.95-.38 3.89-.81 5.84-1.22zm52.02 35.73 3.68.08c1.3 9.44-1.86 19.18-6.76 27.16-2.28 4.17-9.33 1.03-6.7-3.43 4.16-7.57 5.82-16.16 9.78-23.81zm8.06 32.59c-4.48-10.98.84-26.97 11.43-33.11 5.03 3.48-.38 7.32-2.1 10.93-5.39 6.56-.25 19.49-9.33 22.18zm40.41-21.52c3.4-4.03 7.08-9.06 12.87-9.22.83 1.17 1.67 2.34 2.52 3.51 5.7-1.54 14.19-4.65 17.8 2.02 2.61 3.99 10.8 8.31 5.46 13.41-7.06 1.55-11.35-7.94-18.83-5.76-20.72-.79-27 28.13-48.03 26.11-5 1.26-9.5-7.1-3.12-8.1 7.34.28 10.75-6.53 13.93-11.96 1.76-.02 3.52-.03 5.28-.03 3.23-4.42 5.02-12.53 12.12-9.98z"/><path d="m306.34 209.45c1.91-14.51 22.08-22.78 34-14.71 25.94 18.62 15.26 65.05-13.33 75.68-7.67 2.4-16.31.96-23.18-3.08 1.41 9.93 14.58 15.51 11.92 25.52-13.3-3.06-19.9-20.23-21.43-32.8-.06-5.14-1.4-13.85 6.17-13.77 3.02 4.92 5.08 11.07 10.88 13.45 10.97 5.43 24.71-3.19 27.84-14.13-1.8-.4-3.57-.81-5.35-1.22-1.04 4.89-6 9.35-10.6 5.2.02-2.64.14-5.29.32-7.93-7.73-2.68-16.59-3.76-22.77-9.58-3.04-2.3-.73-7.71 3.13-6.57 12.49 5.26 25.69 9.66 39.35 10.31 2.95-12.3 1.63-30.76-12.44-35.37-10.29-2.98-15.07 10.62-24.51 9zm-17.09-6.01c2.5-4.51 4.78-11.7 11.34-10.04-3.48 18.02-15.94 33.97-18.99 52.62-1.97 6.34-1.9 13.49-5.93 19.02-4.31-.6-5.89-5.25-5.13-9.06 3.02-18.46 9.52-36.26 18.71-52.54zm-72.38 49.43c4.57-4.8 12.85-6.47 18.16-1.96-2.77 5.12-10.17 2.92-12.98 8-3.95 4.8-1.89 14 5.51 12.99 1.86-2.79 4.32-5.08 7.95-4.56.25 7.2-1.88 15.22 2.73 21.52 5.09 5.88 15.06 7.88 21.3 2.6 2.26-3.47 2.71-7.91 5.66-11l4.52.03c4.32 3.3 2.41 8.78 1.43 13.19 7.92 1.15 10.23-7.5 10.13-13.64-1.26-3.23-6.24-6.9-2.36-10.21 6.73-2.09 11.56 6.22 10.7 12.12-1.28 12.04 1.97 24.01.05 36.02-.1 5.37-.7 15.19-8.38 13.71-3.77-9.53.95-20.32-.84-30.43-6.67 3.6-14.07-1.91-20.47 2.06-14.72 6.46-34.45-4.87-33.89-21.61-7.65-.82-14.49-6.58-15.42-14.42-10.25 5.12-18 17.17-29.42 18.16 4.96-15.88 22.83-23.49 35.62-32.57z"/><path d="m196.79 286.26c8.81-.71 3.68 10.25 8.23 14.63 8.99 21.24 38.74 24.61 56.79 13.77 2.4-1.86 4.82-.57 6.92 1.03-1.84 15.41-9.56 29.58-18.43 42.06-1.79-.06-3.58-.11-5.36-.18-.67-1.26-1.33-2.52-1.99-3.78-8.71 8.39-21.89 9-32.58 4.48-9.15-5.33-13.01-15.91-15.81-25.54-2.67 3.06-6.95 5.03-10.26 1.66.31-16.77 8.3-32.17 12.49-48.13m1.17 19.92c-1.89 5.61-3.83 11.23-4.75 17.09 3.39-2.47 6.67-5.11 9.58-8.15-1.64-2.97-3.28-5.93-4.83-8.94m10.71 14.77c-.23 5.98.59 11.92.91 17.89 3.7-3.54 6.05-8.11 9.27-12.03-3.61-1.56-7-3.55-10.18-5.86m18.75 7.48c.28 5.53 1.22 11 1.26 16.54 4.11-4.51 7.12-9.82 10.04-15.13-3.77-.46-7.53-1.02-11.3-1.41m20.89 1.39c.33 4.65.17 9.64 2.21 13.94 3.13-5.25 5.55-10.89 7.59-16.64-3.28.85-6.53 1.79-9.8 2.7z"/><path d="m150.81 350.27c-4.25-3.98-5.02-18.04 3.52-13.63.44 9.09 8.26 15.6 15.58 19.82 4.38-8.52 10.68.29 8.6 6.6-.72 23.26 26.18 37.98 46.51 29.8 7.74-2.96 10.83-11.32 16.76-16.52 1.86-.01 3.72-.01 5.59-.01 1.72 2.38 2.26 5.23 2.34 8.12 9.03-.41 18.12-1.63 26.53-5.12 2.37 1.43 4.97 4.72 2.26 7.14-9.37 8.87-23.96 9.18-35.82 6.24-21.33 28.6-74.62 9.97-73.41-26.01-7.88-3.51-14.82-8.37-18.46-16.43zm-20.14 160.92c5.08.84 7.69 5.52 8.22 10.29-3.04 1.5-6.29 2.51-9.62 3.18-.14-4.54.49-9.04 1.4-13.47z"/></g></svg>