<svg xmlns="http://www.w3.org/2000/svg" width="112pt" height="112pt" viewBox="0 0 112 112"><path fill="#ff9000" d="M98.02 3.06c2.97-.01 5.94-.05 8.91-.03-.88 4.48-1.3 9.04-2.12 13.54 2.09-.15 4.19-.27 6.3-.3-.38 2.63-.86 5.24-1.29 7.85-1.98.21-3.96.33-5.94.41-1.18 8.22-2.77 16.43-2.99 24.74 1.83.06 3.65 0 5.47-.12-.34 2.55-.57 5.12-.94 7.67-3.74.67-7.96 1.7-11.37-.59-2.65-2.44-2.08-6.34-1.82-9.55 1.08-7.22 1.62-14.52 2.9-21.71-1.42 0-2.83 0-4.24-.01.28-2.65.67-5.29 1.23-7.89h3.82c.82-4.65 1.21-9.37 2.08-14.01zM66.96 23.89c4.29-4.03 11.97-5.59 16.74-1.61 4.17 4.83 2.63 11.83 2.24 17.64-5.18 1.02-10.52.66-15.71 1.48-.94 3.82-1.25 7.93.1 11.69 1.33.01 2.67.02 4.01.01 1.62-2.2 2.19-4.88 2.76-7.5 2.71-.23 5.42-.43 8.13-.59-.21 6.09-2.78 13.17-9 15.38-4.14 1.41-9.63 1.88-12.76-1.77-3.23-4.62-2.38-10.6-2.32-15.91.71-6.5 1.13-13.77 5.81-18.82m5.15 5.06a95.66 95.66 0 0 0-1.56 4.29c2.53-.11 5.06-.21 7.59-.28.01-1.35 0-2.71-.02-4.06-1.94-1.08-4.04-.69-6.01.05zm-35.06-2.07c3.55-3.64 9.03-4.57 13.88-3.63 2.74.95 4.76 3.56 5.31 6.37 1 4.23.56 8.63.37 12.93-5.32.45-10.57 1.46-15.92 1.54-.45 3.83-1.85 8.34.78 11.69 4.54 2.04 6.16-3.9 5.98-7.28 2.89-.42 5.8-.59 8.7-.9-.57 5.66-2.19 12.23-7.67 15.08-4.2 1.93-9.93 2.83-13.65-.55-3.53-4.22-2.8-10.04-2.84-15.15-.08-6.91.38-14.57 5.06-20.1m5.01 5.18c-.47 1.41-.92 2.82-1.35 4.24 2.7-.19 5.4-.42 8.06-.98-.58-1.42-.47-3.33-1.82-4.32-1.73-.39-3.32.49-4.89 1.06zm-20.72-5.93c2.92-.64 5.89-1.05 8.88-1.25-3.95 14.19-8.11 28.34-11.65 42.64-.64 2.45-1.46 4.98-3.29 6.82-2.9 3.11-7.31 3.83-11.25 4.79.02-2.65.04-5.29.01-7.93 3.05-.84 7.47-2.04 7.02-6.09-2.45-12.19-5.29-24.33-8.05-36.47 2.92-.47 5.86-.84 8.77-1.38 1.15 8.47 3.03 16.87 3.43 25.43 2.35-8.77 4.11-17.7 6.13-26.56zm-4.91 54.23c25.33-8.74 51.95-13.63 78.68-15.14 2.99-.68 5.01 1.75 6.86 3.64 0 1.37.01 2.74 0 4.12-1.54 1.4-2.95 3.26-5.15 3.59-27.15 1.64-54.24 6.62-79.91 15.74-2.86 1.03-4.91-1.82-6.85-3.4-.03-1.38-.05-2.76-.06-4.13 1.78-1.94 3.81-3.73 6.43-4.42zm62.03 6.96c3.2-.44 6.42-.88 9.65-1.05 4.01-.57 7.35 4.18 5.74 7.82-.89 2.32-3.29 3.73-5.72 3.75-14.85 1.38-29.58 4.21-43.81 8.71-2.59.84-5.3 1.98-8.07 1.3-2.67-1.39-4.55-5.02-2.79-7.8 1.33-2.78 4.6-3.43 7.25-4.34 12.29-3.95 24.93-6.8 37.75-8.39z"/></svg>