<svg height="170" viewBox="0 0 170 170" width="170" xmlns="http://www.w3.org/2000/svg"><path d="m81.120003-.666672h7.199997c21.626663.973343 42.906669 10.120011 57.920005 25.840012 14.559998 14.546661 23.133332 34.586662 24.426667 55.079994v9.399994c-1.546677 20.640007-10.293335 40.786674-25.146668 55.306679-15.013336 15.213318-35.920006 24.053329-57.213333 25.039993h-5.866669c-21.346668-.960007-42.320003-9.880005-57.34667-25.146667-14.959999-14.653336-23.786665-35.026658-25.093332-55.866669v-8.519997c1.293333-21.199997 10.413333-41.920006 25.800001-56.653328 14.639998-14.626678 34.773333-23.080002 55.320002-24.480011m-66.10667 82.613335"/><path d="m79.040001 14.506668c18.58667-1.706665 37.706665 4.279999 51.853325 16.479996 15.573334 13.120003 25.17334 33.239998 24.853332 53.68.266678 16.58667-6 33.079994-16.773315 45.653328-12.826676 15.17334-32.346672 24.76001-52.306679 24.706665-21.199997.826676-42.266666-9.186661-55.639997-25.546661-10.946667-13.146668-16.973334-30.400002-16.013334-47.533333.386668-34.360001 29.866668-65.013329 64.026668-67.439995" fill="#fff"/><path d="m18.199999 81.106667c5 5 10.466667 9.82666 17.226667 12.240005 13.399998 5.186661 28.026669 3.46666 42.013336 2.733322 6.306664-.266662 13.040001-.466659 18.679993 2.853333-8.839996 16.44001-18.079994 32.666664-26.946663 49.106666-2.253334-.23999-4.493332-.479995-6.73333-.746658 4.093331-9.919998 9.559998-19.226669 14.306664-28.853333-14.613335-3.680007-30.879997.133332-44.546665-7.320007-10.546667-5.91999-13.280001-18.893333-14.000002-30.013328z"/><path d="m19.186666 77.693336c1.746666-18.04 11.586667-34.760002 25.973334-45.666664 4.666664 5.159989 10.693333 9.319992 17.666664 10.519997 20.440006 3.879997 40.693333-6.746666 61.093342-2.466667 10.599998 2.239998 17.599998 11.853332 20.73333 21.666664-17.053338 29.666664-34.573342 59.053337-51.506669 88.773338-2.613334.186661-5.226661.119995-7.840003-.053344 8.586669-15.093323 17.213333-30.159989 26.146667-45.039994-3.706665-7.239998-11.546661-11.333336-19.479996-11.786659-17.106666-1.253342-34.68 3.373329-51.453335-1.773338-8.386665-2.440003-15.506666-7.800003-21.333334-14.173333z" fill="#f00"/></svg>