<svg xmlns="http://www.w3.org/2000/svg" width="923pt" height="667pt" viewBox="0 0 923 667"><path fill="red" d="m97.68.0h724.64c10.21 1.05 20.57 1.96 30.31 5.43 19.27 6.35 36.49 18.72 48.63 34.99-14.24 8.92-28.01 18.57-42.06 27.78-279.15 186.03-558.24 372.16-837.44 558.12-10.06-12.88-17.04-28.2-19.88-44.3-.75-4.23-1.34-8.48-1.88-12.74v-473.49c1.83-10.04 3.22-20.26 7.04-29.79 9.2-24.48 28.4-44.81 52.02-55.93 12.04-5.93 25.31-8.86 38.62-10.07z"/><path d="m859.2 68.2c14.05-9.21 27.82-18.86 42.06-27.78 6.93 8.81 12.27 18.83 15.92 29.42 3.02 8.38 4.15 17.24 5.82 25.94v473.39c-1.72 9.63-2.77 19.46-6.24 28.67-11.56 33.43-41.6 59.9-76.48 66.38-5.71.92-11.44 1.71-17.11 2.78H638.68c-16.86-1.44-33.79-.44-50.68-.63-10.56.19-21.14-.41-31.67.63H365.67c-6.54-.58-13.1-.75-19.67-.6-47.66-.21-95.33.37-143 .15-31-.03-61.99-.06-92.99.07-9.14-.11-18.3-.76-27.3-2.37-24.05-4.59-46.19-18.38-60.95-37.93 279.2-185.96 558.29-372.09 837.44-558.12z"/></svg>