<svg clip-rule="evenodd" fill-rule="evenodd" viewBox="0 0 389 360" xmlns="http://www.w3.org/2000/svg"><g fill-rule="nonzero" stroke-width=".09" transform="translate(.193271 -28.517)"><g fill="#2c2c2c"><g stroke="#412421"><path d="m97.45 29.13c3.4-1.35 6.74.91 9.96 1.81 1.74.94 3.43 2 5.04 3.16-5.2-.94-10.31-2.53-15-4.97z"/><path d="m108.34 30.49c3.11-2.26 6.13 1.74 9.41 1.72 3.52 0 6.78 1.29 9.4 3.62-1.98-.54-3.87-1.38-5.89-1.8-1.76-.27-3.62.78-5.29-.09-2.54-1.16-4.98-2.53-7.63-3.45z"/><path d="m74.98 33.01c2.47-.37 4.58-1.89 7.01-2.41 2.83-.38 5.43 1.15 7.9 2.31-3.34.06-6.63-.59-9.92-1.06-.25 1.02-.47 2.04-.68 3.07-3.11-.21-6.23-.29-9.34-.21-.73-.55-1.47-1.11-2.19-1.67 2.4.04 4.82.22 7.22-.03z"/></g><path d="m27.18 319.57c8.65-7.18 16.32-15.44 24.97-22.63-5.51 22.87-14.7 44.6-23.63 66.29 11.88.42 23.9-.79 35.68 1.22-12.33 7.6-25.67 13.49-39.14 18.78.7 1.6 1.4 3.2 2.18 4.77h-27.24v-44.58c8.81-8.22 18.19-15.82 27.18-23.85z" stroke="#2c2c2c"/><path d="m53.37 345.42c14.19-4.26 29.4-5.52 43.98-2.53 2.16 1.99 3.7 4.51 4.4 7.37 3.75 12.85 9.12 25.12 13.5 37.74h-83.97c.46-1.46.84-2.95 1.47-4.34 1.46-1.68 3.69-2.36 5.66-3.25 12.87-4.92 24.98-11.84 35.8-20.35-13.41-.39-26.91 1.76-40.29-.18.65-2.4.78-5.35 3.08-6.85 4.9-3.56 10.68-5.66 16.37-7.61z" stroke="#2c2c2c"/><g stroke="#262d2f"><path d="m83.09 35.6c1.69 1.25 3.26 2.65 4.54 4.31 2.11 2.7 4.37 5.27 6.53 7.93 3.73 4.61 6.32 9.97 8.92 15.26-.44.19-.89.36-1.33.51-4.07-8.78-11.66-15.17-16.27-23.61-.86-1.43-1.66-2.9-2.39-4.4z"/><path d="m95.52 36.86c1.79 2.11 3.52 4.27 5.25 6.43 3.93 5.03 5.6 11.37 7.49 17.37-.37.04-1.11.13-1.47.17-2.87-7.92-7.22-15.15-11.36-22.45.02-.38.07-1.14.09-1.52z"/><path d="m95.52 66.13c-6.31-7.65-15.33-12.54-21.32-20.46l.55.4c8.23 5.32 16.21 11.37 21.97 19.42-.3.16-.9.48-1.2.64z"/><path d="m64.07 49.83c1.97.35 3.88.94 5.79 1.49 7.32 4.42 15.04 8.72 20.44 15.54-.26.04-.78.13-1.04.18-1.6-1.44-3.16-2.95-4.96-4.14-6.58-4.63-13.9-8.09-20.23-13.07z"/><path d="m54.99 54.36c6.5.9 12.31 4.06 18.45 6.17 2.83.99 5.61 2.27 7.87 4.29-3.52.77-7-.8-10.43-1.45-5.82-1.7-12.09-4.03-15.89-9.01z"/><path d="m170.91 214.97c.52.32 1.54.97 2.06 1.3.18 1.61.35 3.23.48 4.86-1.46-1.76-2.05-3.98-2.54-6.16z"/></g><path d="m60.94 37.42c1.4-.37 2.83-.63 4.25-.89 2.84.41 5.69.78 8.54 1.11-.01.21-.02.64-.03.85-4.58-.11-9.17-.15-13.75.1.25-.29.74-.88.99-1.17z" stroke="#33281f"/><path d="m152.27 126.79c-1.31-2.73.48-5.96 1.77-8.44.06 1.88.34 3.81-.09 5.67-.36 1.18-.76 2.36-1.18 3.53z" stroke="#33281f"/><path d="m75.5 155.9c1.23.27 2.44.61 3.63 1 1.19 1.04 2.33 2.14 3.39 3.32-1.81-.66-3.55-1.48-5.14-2.57-.47-.44-1.41-1.31-1.88-1.75z" stroke="#33281f"/><path d="m103.67 36.72c4.92 5.94 9.44 12.99 9.18 21.01-4.12-6.45-6.58-13.85-9.18-21.01z" stroke="#2c2c2b"/><path d="m48.3 42.35c3.05-2.14 6.88-2.23 10.46-2.29 1.91.29 3.8.73 5.64 1.28-3.53.42-7.1.43-10.64.76-2.11.23-4.16.79-6.19 1.35 2.99.42 6.02.68 8.99 1.26-5.48 1.1-11.01 2.01-16.59 2.5-.18-.4-.55-1.21-.73-1.61 3.18-.56 6.37-1.38 9.06-3.25z" stroke="#3a261e"/><path d="m114.96 38.68c2.24 3.55 3.74 7.49 5.04 11.46-.58.76-1.16 1.53-1.74 2.29-.98-4.61-2.41-9.11-3.3-13.75z" stroke="#312924"/><path d="m121.52 144.96c.6.28 1.81.85 2.42 1.13.83 1.34 1.56 2.74 2.22 4.18-1.61-1.26-3.05-2.74-4.12-4.5z" stroke="#312924"/><path d="m187 195.39c2.54 2.73 2.91 6.59 1.14 9.84-.73-.8-1.46-1.59-2.19-2.38-1.39 2.45-1.97 5.2-2.35 7.97-2.32 9.19-8.55 17.52-17.27 21.52-13.1 6.52-28.91 5.11-41.99-.72-9.6-4.48-19.61-8.43-28.23-14.67-.01 1.6-.06 3.21-.15 4.81-2.75-2.61-4.03-6.52-3.42-10.26 1.24 1.08 2.15 2.58 3.61 3.39 5.58.44 11.2.34 16.79.46 10.33.66 20.68 1.13 31.03.87 5.87-.04 11.47-1.93 17.14-3.22 8.97-2.32 17.92-5.73 25.06-11.79.52-1.9.48-3.89.83-5.82m-13.62 17.06c-5.55 2.86-11.71 4.08-17.71 5.59 1.17 2.95 2.02 6.03 2.17 9.21-2-2.52-2.35-5.81-2.71-8.89-4.18.59-8.35 1.26-12.56 1.64.4 3.4.85 6.8.97 10.23-2.68-2.6-1.73-6.9-2.11-10.28-4.67.06-9.34-.12-13.99-.38.72 3.34 1.05 6.74 1.48 10.13 3.26 1.02 6.55 2.25 10.03 2.1 10.77-.01 21.56-2.23 31.53-6.3 2.57-.86 4.44-2.88 5.94-5.06 2.49-3.79 5.3-7.73 5.36-12.46-2.88 1.33-5.59 2.99-8.4 4.47m-73.79 4.64c4.41 2.96 9.61 4.4 14.23 6.99-.02-1.9-.04-3.8 0-5.7-4.75-.36-9.44-1.48-14.23-1.29m15.05 1.4c.18 2.09.38 4.2.58 6.3 4.13 1.43 8.24 2.94 12.42 4.26-.58-3.14-.81-6.35-.3-9.52-4.24-.24-8.46-.73-12.7-1.04z" stroke="#312924"/><path d="m45.52 57.67c3.19.99 6.22 2.4 9.35 3.54 3.66 1.49 7.68 2.38 10.68 5.11-4.71.33-9.28-1.03-13.42-3.22-.42-.19-1.26-.58-1.69-.78-1.78-1.39-3.45-2.92-4.92-4.65z" stroke="#392c21"/><path d="m172.13 107.39c.93-1.18 1.86-2.36 2.85-3.5-.27 1.09-.58 2.17-.93 3.24-.48 1.41-1.04 2.79-1.6 4.17-.1-1.3-.21-2.61-.32-3.91z" stroke="#3d2b1b"/><path d="m80.93 151.99c1.3.48 2.61.96 3.82 1.64 1.37 1 2.56 2.23 3.65 3.53-2.07-.86-4-2.01-5.7-3.47-.45-.42-1.33-1.28-1.77-1.7z" stroke="#3d2b1b"/><path d="m157.92 242.93c9.09-1.23 16.4-7.11 24.22-11.31-5.41 6.76-13.08 11.81-21.55 13.75-13.56 3.47-27.73-.21-40.53-4.92-2.72-1.17-5.27-2.67-7.8-4.19-1.22-1.07-2.36-2.2-3.49-3.34 15.5 6.4 32.16 11.69 49.15 10.01z" stroke="#3d2b1b"/><path d="m167.28 109.33c.25-1.78 1.2-3.32 2.49-4.54-.06.45-.18 1.35-.24 1.8-.44 2.69-1.11 5.35-2.3 7.82-.08-1.7-.1-3.39.05-5.08z" stroke="#3b291d"/><path d="m108.53 146.1c1.38.61 2.74 1.28 4.12 1.91.47 1.17.93 2.34 1.37 3.52-1.7-1.1-3.37-2.26-4.81-3.69-.17-.44-.51-1.3-.68-1.74z" stroke="#3b291d"/><path d="m121.52 189.13c3.48-1.49 7.02-2.86 10.69-3.82-.54 2-1.13 3.98-1.63 5.99-.74 5.79 5.86 7.47 9.79 9.71-2.91.05-6.26.35-8.51-1.91-3.18-2.37-4.3-6.35-4.67-10.12-11.43 6.14-23.33 11.34-35.5 15.83-4.92 2.06-10.01 3.74-14.81 6.12.17 3.87 1.2 7.61 2.73 11.16-1.44-1.47-3.12-2.79-4.07-4.65-1.14-2.38-.44-5.06-.24-7.56 4.35-3.41 9.11-6.29 14.24-8.39 10.4-4.77 21.25-8.43 31.98-12.36z" stroke="#3b291d"/><path d="m115.28 144.94c.78.65 1.58 1.29 2.26 2.05 1.24 1.35 2.16 2.95 2.89 4.64-2.02-1.2-3.83-2.79-4.93-4.9-.05-.45-.16-1.34-.22-1.79z" stroke="#2c2e24"/><path d="m161.86 117.59c-.2-3.13.22-6.69 2.71-8.89l-.15 1.03c-.38 2.39-.72 4.86-1.98 6.98z" stroke="#3a281e"/><path d="m103.14 146.78c1.16.83 2.32 1.66 3.39 2.61.91.97 1.73 2.01 2.54 3.07-1.72-.81-3.37-1.75-5.07-2.6-.29-1.03-.57-2.05-.86-3.08z" stroke="#3a281e"/><path d="m16.51 135.243-.022.108c.015-.072.03-.144.044-.216l.02-.108.015-.08c.028-.153.053-.305.076-.458l-.016.108c-.019.116-.038.233-.06.35l-.015.08-.02.108c-.007.036-.015.072-.022.108zm.177-1.076-.014.107c.029-.211.052-.422.072-.633.003-.039.007-.078.01-.117l-.01.107v.01c-.016.174-.035.35-.058.526zm.091-.965-.007.107-.008.107c.005-.057.009-.114.012-.172.004-.049.007-.099.009-.149zm-2.749-23.4c-.041.144-.031.108 0 0l.031-.108.033-.108.033-.108c-.023.072-.044.143-.066.216zm2.333 26.089c-.009.036-.019.072-.028.108l-.029.108c-.01.036-.02.072-.03.108-.02.072-.041.145-.062.217l-.033.108c-.19-.68-.57-2.03-.75-2.71-1.94-8.91-4.61-17.71-5.37-26.83-.54-6.77-1.53-13.77.61-20.37 2.03-6.01 3.37-12.51 7.41-17.59 2.5-3.13 5.25-6.07 8.25-8.73 4.47-4.12 10.08-6.61 14.99-10.12 1.85-.28 3.69-.61 5.54-.94-9.56 5.98-19.01 12.7-25.59 22.01-3.48 5.25-5.82 11.18-7.65 17.18-1.32 6.93.1 13.98.54 20.93l.038.24c3.259 20.435 9.324 40.248 14.982 60.11-3.75-3.37-5.16-8.35-6.91-12.89-2.31-6.68-4.68-13.36-6.09-20.29l.033-.108c.021-.072.042-.144.062-.217.01-.036.02-.073.03-.108l.029-.108c.019-.073.037-.145.055-.217z" stroke="#412421"/><path d="m156.79 116.8c.53-1.38 1.21-2.69 1.88-4.01.18.89.54 2.66.72 3.54-.37 2.15-1 4.24-1.97 6.19-.29-1.9-.51-3.8-.63-5.72z" stroke="#3b291c"/><path d="m96.51 149.46c1.93.5 3.83 1.13 5.76 1.62.27 1.02.54 2.04.82 3.06-1.86-1.09-3.72-2.2-5.38-3.58-.3-.27-.9-.82-1.2-1.1z" stroke="#3b291c"/><path d="m166.75 172.49c10.49-.67 21.56-1.11 31.57 2.65-2.4.75-4.9.95-7.38 1.09-3.24.22-6.48.1-9.71-.21-4.31-.67-8.66-1.24-12.89-2.3-.4-.31-1.19-.92-1.59-1.23z" stroke="#3b291c"/><path d="m180.03 112.99c-.16 1-.47 2.01-1.22 2.74-7.71 7.76-16.78 13.95-25.51 20.49-2.89 2.07-5.67 4.32-8.82 6.01.07-.46.22-1.36.29-1.82 3.51-3.74 7.68-6.76 11.71-9.9 7.82-5.88 15.57-11.85 23.55-17.52z" stroke="#3b2817"/><path d="m300.05 168.8c-.27-2.23 1.22-3.72 2.88-4.93 1.25 1.51 2 3.29 1.93 5.28-1.62.15-3.23-.04-4.81-.35m1.5-2.68c-.82 1.16 1.15 2.54 2.07 1.57.8-1.16-1.16-2.61-2.07-1.57z" stroke="#3b2817"/><path d="m322.79 170.17c-2.33-4.13 3.6-6.97 7.05-6.17.86 2.34.98 4.82.6 7.27-2.51.42-6.07 1.75-7.65-1.1m1.18-3.89c.13 1.37.04 2.82.71 4.08 1.84.83 3.85.09 5.73-.15-.56-1.8-1.28-3.55-2.13-5.24-1.44.44-2.88.87-4.31 1.31z" stroke="#3b2817"/><g stroke="#402814"><path d="m146.52 128.89c-.15-2.35.81-4.58 2.39-6.28-.02.6-.05 1.79-.06 2.39-.05 2.57-.54 5.14-1.9 7.35-.11-.86-.32-2.59-.43-3.46z"/><path d="m142.89 134.56c-.44-1.89-.04-3.81.51-5.62.07.54.21 1.6.29 2.14.19 1.65.29 3.32.38 4.98-.29-.37-.88-1.13-1.18-1.5z"/><path d="m340.09 172.59c2.27.8 2.58 3.15 2.94 5.21-1.48 0-2.97-.05-4.44-.12-.2-.68-.58-2.05-.77-2.73 1.4.77 2.81 1.55 4.27 2.24-.66-1.54-1.38-3.05-2-4.6z"/><path d="m316.5 175.51c3.7-2.15 7.29 2.74 6.02 6.18-.88 4.54-9.31 4.06-9.28-.76-.3-2.34 1.26-4.39 3.26-5.42m-1.15 7.11c2.04 1.24 4.38.61 6.51.01.08-2.52-.72-6.06-3.86-6.07-3.09-.41-4.4 3.96-2.65 6.06z"/><path d="m306.88 186.91c1.99-1.89 3.83.85 5.02 2.27-1.16 1.81-2.86 3.09-4.92 3.71-1.57-1.7-2.25-4.39-.1-5.98m.04.55c-.07.91-.21 2.73-.28 3.64.93-.1 2.79-.29 3.72-.38-.33-1.8-1.42-3.39-3.44-3.26z"/><path d="m94.64 250.23c2.05 1.49 3.99 3.11 5.95 4.72 13.12 10.12 25.63 22.62 42.36 26.34 7.75 2.55 16.11 2.18 23.72-.65 4.68-1.98 9.16-5.32 11.21-10.11.66-.45 1.97-1.36 2.63-1.81-.61 2.39-1.48 4.77-3.17 6.63-5.37 6.12-12.99 10.67-21.29 10.85-8.89.09-17.89-1.68-25.86-5.7-9.58-4.81-17.94-11.67-25.73-18.96-3.59-3.47-7.14-7.07-9.82-11.31z"/></g><path d="m45.55 125.9c1.5 6.18 2.93 12.42 5.28 18.36 1 2.54 2.35 4.95 3.03 7.61-.51 1.26-1.33 2.35-2.04 3.49 1.1 1.26 2.2 2.54 3.18 3.9-2.07-.84-3.66-2.42-5.03-4.13.7-1.07 1.42-2.12 2.13-3.18-4.59-7.88-7.11-16.89-6.55-26.05z" stroke="#492106"/><path d="m206.25 268.09c2.68-1.31 5.26-2.8 7.81-4.34 4.68 1.78 5.88 6.78 7.42 11.01 3.07 10.58 5.4 21.35 7.6 32.14-7.01 1.28-14.13 1.85-21.25 2.12-9.64.02-19.22 1.36-28.87 1.32-2.7.09-5.46-.16-8.12.46-2.3.93-4.18 2.77-6.68 3.23-2.61.65-5.54.61-7.71 2.41-3.89 2.9-8.29 5-12.3 7.7-7.04 4.5-14.78 7.71-21.88 12.09-5.89 3.2-11.88 6.3-18.24 8.47-1.72-8.09-5.593-18.139-7.613-26.129m-4.807 4.199c-7.88 4.28-16.39 8.14-25.57 7.95-7.04.51-13.89-1.6-20.12-4.73 5.65-17.92 11.22-35.88 17.49-53.6 1.84-4.68 3.51-9.41 4.99-14.21.9-2.64 3.57-5.97.81-8.36-6.06-6.66-15.33-23.22-15.33-23.22-2.88-6.6-4.21-13.87-3.69-21.06 3.09 6.86 4.76 14.3 8.29 20.99l.042.086c3.514 7.209 8.692 13.365 13.48 19.74 0 0 9.474 10.761 14.618 15.004 7.21 5.89 14.28 12.01 22.24 16.88 6.47 4.43 13.59 7.85 21.13 10 10.19 3.24 21.39 5.07 31.77 1.6 8.53-4.32 17-10.47 20.35-19.84 2.54-6.08 4.85-12.26 7.61-18.26 3.7-8.6 6.05-17.7 8.28-26.77 1.22-4.71 2.91-9.29 3.76-14.09 2.32-12.5 6.37-25.12 4.3-37.96-1.09-8.26-6.15-15.12-10.31-22.07l-.068-.085c-2.848-3.622-2.578-8.547-4.622-12.565l-.043-.042c-1.796-1.784-3.002-4.047-3.657-6.488-3.71-13.71-8.29-27.21-13.9-40.26-3.22-6.74-7.35-13.04-12.02-18.85-6.4-7.16-14.38-12.88-23.13-16.8-4.31-1.95-8.45-4.25-12.56-6.58l.72-.53c7.42 2.18 14.72 4.9 21.51 8.62 5.79 3.67 10.91 8.24 16.16 12.6-4.7-8.01-11.11-14.83-17.68-21.33-4.15-4.3-8.87-8-13.8-11.36 5.56.76 10.13 4.33 13.97 8.18 5.45 5.55 11.1 10.96 15.72 17.24 4.58 6.28 7.03 13.74 10.44 20.66 2.24 4.66 4.84 9.14 7.01 13.84.64 1.73 1.29 3.46 1.94 5.19 2.82 6.89 4.61 14.13 6.69 21.27 1.25 4.376 6.09 17.1 6.35 19.63.42 2.69 7.488 12.061 9.77 14.68 2.56 3.12 3.97 6.97 4.83 10.88 3.21 12.92-.15 26.15-2.69 38.86-3.888 15.15-7.069 30.561-13.062 45.07l-.288.69c-.73 1.93-1.43 3.86-2.13 5.8 4.41 3.01 8.85 6.03 13.72 8.27-4.17 3.94-9.23 6.7-13.83 10.08-1.27-2.65-2.66-5.25-4.08-7.82-2.25 5.44-4.8 11.04-9.4 14.91-4.07 3.4-8.46 6.42-13.14 8.91" stroke="#2c2c2c"/><g stroke="#492106"><path d="m129.73 138.86c4.96 1.92 5.83 8.2 5.44 12.85-2.56-3.88-3.31-8.7-5.44-12.85z"/><path d="m101.74 179.75c7.27-3.06 11.97-9.74 18.34-14.09-5.17 7.54-11.61 14.8-20.53 17.79-4.34 1.22-8.99 2.83-13.5 1.64 5.02-2.36 10.71-2.83 15.69-5.34z"/><path d="m50.86 167.78c2.86.46 5.69 1.07 8.53 1.65.89.17 1.79.34 2.69.51 1.13.2 2.26.41 3.4.62-.4.3-1.19.91-1.58 1.22-3.72-.01-7.38-.7-10.98-1.54-.69-.82-1.38-1.64-2.06-2.46z"/><path d="m66.93 177.58c2.41-.9 4.89-1.62 7.43-2.05-2.06 1.38-4.31 2.44-6.56 3.46-5.77 2.57-11.16 6.01-17.2 7.96 4.59-4.4 10.49-7.05 16.33-9.37z"/><path d="m69.03 184.48c1.94-1.29 3.97-2.44 6.06-3.49-6.51 5.79-12.02 12.85-19.58 17.35.83-1.47 1.71-2.91 2.73-4.24 3.37-3.44 6.9-6.77 10.79-9.62z"/><path d="m312.62 219.55c3.27.45 6.85 1.07 9.22 3.6 3.01 2.89 2.4 7.42 2.83 11.21 2.43 1.92 5.34 3.27 7.41 5.61 1.92 3.3 1.17 7.31 1.78 10.93 2.31 3.76 7.74 4.8 9.13 9.23.96 4.16.12 8.52.98 12.7 2.43 3.56 6.62 5.66 8.76 9.49.95 1.49-.33 3.13-.65 4.61-1.12-2.1-2.09-4.41-4.02-5.9-1.93-1.78-4.5-2.92-5.94-5.15-1.76-4.58-.38-9.67-1.73-14.32-1.94-3.35-5.88-4.82-8.08-7.92-1.29-3.56-.73-7.48-1.84-11.08-2.24-2.49-5.57-3.7-7.7-6.28-1.21-3.46-.59-7.4-2.33-10.69-1.94-2.75-5.15-4.14-7.82-6.04z"/><path d="m295.26 273.32c.46-2.85-.02-6.27 2.15-8.51-.18 2.82 1.31 7.22-2.15 8.51z"/></g><path d="m135.8 135.1c1.68.97 3.53 1.77 4.94 3.15 2.39 3.25 2.4 7.49 2.83 11.34 4.72 5.65 9.46 11.43 12.61 18.16 3.59 7.15 7.17 14.48 8.64 22.41-2.46-3.79-3.56-8.26-5.81-12.17-4.57-8.44-8.6-17.6-15.97-24.03-2.69-1.79-1.17-5.3-1.9-7.93-.33-4.25-2.96-7.62-5.34-10.93z" stroke="#422513"/><path d="m70.44 160.18c1.12-.95 3.81.21 3.22 1.79-1.1.87-3.77-.28-3.22-1.79z" stroke="#422513"/><path d="m104.14 168.08c4.18-1.27 7.92-3.58 11.99-5.14-2.2 3.94-6.38 5.95-10.2 7.97-5.36 2.79-11.66 3.71-17.61 2.68-1.29-.08-2.2-1-2.68-2.13 6.25-.56 12.48-1.57 18.5-3.38z" stroke="#422513"/><path d="m176.56 141.15c1.11-.5 2.28-.85 3.45-1.19-1.42 1.3-2.95 2.49-4.65 3.4-6.82 3.65-13.95 6.91-21.59 8.38.78-.85 1.29-2.11 2.47-2.49 1.42-.56 2.87-1.07 4.31-1.59.24-1.4.49-2.8.74-4.19 1.56-.48 3.11-.99 4.64-1.53.99.84 1.98 1.69 2.98 2.52 2.56-1.09 5.12-2.16 7.65-3.31z" stroke="#312923"/><path d="m89.77 151.32c1.43.37 2.86.81 4.16 1.54.98.96 1.86 2.02 2.71 3.11-2.34-.92-4.53-2.21-6.26-4.05z" stroke="#352820"/><path d="m21.49 171.57c2.86-.62 5.79.1 8.65.44 3.1 3.34 6.84 6.09 9.4 9.93-.27.16-.82.48-1.09.64-3.94-3.24-7.64-7.09-12.55-8.84-1.95-.34-4.43-.32-5.58 1.6-2.07 2.41-1.81 5.76-1.31 8.69 2.85 9.32 9.52 16.68 15.57 24.07 3.8 5.33 7.1 11.01 11.22 16.11 1.65 2.03 4.35 2.6 6.6 3.71-4.01 1.65-7.86-1.06-10.15-4.21-5.78-7.54-11.21-15.36-17.27-22.69-4.25-5.82-8.77-12.08-9.53-19.47-.6-4.2 2.28-8.34 6.04-9.98z" stroke="#352820"/><path d="m161.36 155.49c7.69 2.09 15.13-1.64 21.99-4.64-4.06 4.89-10.54 6.85-16.54 8.03-4.04-.1-9.18-.5-11.87-3.8 1.91-1.59 4.31.17 6.42.41z" stroke="#3d2b10"/><path d="m91.26 162.02c12.37-2 24.52-5.12 36.87-7.2-1.8 3.38-6.35 3.59-9.6 4.87-11.08 2.45-22.29 4.29-33.46 6.21-4.43.6-8.89 1.3-13.38.95.47-.32 1.4-.97 1.87-1.3 5.73-1.93 11.78-2.49 17.7-3.53z" stroke="#352419"/><path d="m173.51 178.69c.23.25.68.76.9 1.01.07.56.19 1.68.25 2.24-.25 7.4-.61 15.98-6.18 21.53-4.81 3.38-11.04.63-16.05-.96-5.04-2.37-10.38-4.32-15.04-7.4 8.55-.95 15.42 5.24 23.35 7.19 2.39.68 6.1 1.79 7.44-1.14 3.67-6.94 3.4-15.03 5.33-22.47z" stroke="#44240a"/><path d="m21.45 179.59c9.73 3.52 16.23 12.54 21.07 21.26-1.75-.75-3.47-1.54-5.22-2.3-.15 4.03 1.2 8.21 5.28 9.73 1.04.65 2.07 1.32 3.08 2.04-3.2.62-6.09-.82-8.99-1.89-.44-3.78-.74-7.61-.25-11.41-4.7-4.25-9.73-8.14-14.13-12.72-.29-1.57-.57-3.14-.84-4.71z" stroke="#3b2b1d"/><path d="m74.76 229.88c4.09 3.78 7.71 8.18 10.02 13.27-.28.24-.83.73-1.1.97-2.21-1.65-4.4-3.31-6.45-5.14-2.76-2.24-2.3-5.94-2.47-9.1z" stroke="#482007"/><path d="m278.76 268.68c-.56-6.61.28-14 4.6-19.3-.76 6.43 1.1 14.7-4.6 19.3z" stroke="#462711"/><path d="m287.37 266.48c.37-.21 1.11-.65 1.49-.86.02 3.88 1.79 8.92-1.63 11.86-.25-3.65-.64-7.39.14-11z" stroke="#662a07"/><path d="m338.74 303.84c5.08.15 10.17.29 15.24-.08-3.13-2.1-7.08-2.33-10.74-2.44-1.62.59-3.05 1.61-4.5 2.52zm-55.58-109.75c2.02 10.93-1.83 21.68-4.33 32.19 10.44-6.12 20.88-12.24 31.46-18.14.02-1.76.07-3.51.13-5.26-9.81.52-19.37-3.16-27.26-8.79zm-20.08-13.49c1.46 4.93 1.77 10.56 4.86 14.78-.08-4.31-1.29-8.51-2.7-12.56-.37-1.06-1.09-1.8-2.16-2.22zm95.755 3.357s8.385.323 10.035 4.183c1.79 4.42 2.86 10.2-.57 14.14-3.64 4.2-8.76 6.66-13.39 9.57-6.17 3.69-12.44 7.21-18.65 10.81 4.57 1.89 9.53 3.52 13.16 6.99 2.44 4.44-.2 9.55-.22 14.25.09 2.57 2.93 3.43 4.72 4.65 2.45 1.59 5.47 3.02 6.61 5.9.67 4.25-.89 8.46-1.45 12.66 2.02-.56 4.14-.92 6-1.93 2.2-2.16 3.41-5.28 6.15-6.89 2.46-1.48 5.18-2.44 7.92-3.25 2.92-.74 5.89-1.22 8.85-1.78v2c-6.79 1.82-14.52 3.01-19.54 8.39 5.97-1.44 11.71-3.88 17.88-4.42-4.57 3.18-9.95 4.88-15.03 7.05-4.9 2.17-11.55 1.61-14.34 7.06-.83-5.14.48-10.23 1.02-15.31.57-3.24-3.09-4.42-5.18-5.93-3.09-1.52-5.07-4.63-5.64-7.96.26-4.11 2.05-8.2 1.1-12.34-4.69-4.28-11.46-4.47-16.96-7.18-2.9-1.74-4.94-4.56-6.64-7.41 2.73 1.46 5.42 3.01 8.18 4.41 8.31-5.78 17.14-10.74 25.82-15.94 2.9-1.84 6.32-2.88 8.91-5.19.82-3.86 1.02-8.33-1.26-11.76-1.19-2.23-4.19-1.78-6.31-1.73-2.9.08-5.19 2-7.5 3.51-6.07 4.15-12.78 7.2-19.25 10.67-18.76 8.64-36.54 19.22-54.41 29.54-8.21 4.78-17.71 7.85-24.09 15.23.74-2.16 1.06-4.72 2.92-6.27 2.78-2.37 6-4.15 9.11-6.04 3.18-1.99 6.89-3.4 9.43-6.25 1.37-5.79 2.16-11.72 3.53-17.52 1.83-8.18 1.48-17.3-3.04-24.58-2.84-3.52-6.65-8.44-11.78-6.41 2.44 5.5 6.54 12.1 3.19 18.03-1.36 2.7-1.03 5.84-1.78 8.72-.69 3.68-3.5 6.4-4.93 9.76-.79 3.27-.46 6.73-1.53 9.96-3.51 5.86-8.38 10.73-12.02 16.49-1.23 1.97-2.51 3.97-3.09 6.24.49 5.1 2.81 9.81 4.21 14.7 0 0 5.786 16.077 8.07 24.11 2.09 5.98 3.73 12.43 2.53 18.77-6.231 6.231-11.358 13.509-17.85 19.486 0 0 7.94 6.104 11.9 9.244 4.597 3.662 13.9 11.33 13.9 11.33 2.31 2.07 4.64 4.11 6.97 6.16 3.04-4.15 5.46-8.72 8.49-12.88 3.16-4.78 7.06-9 10.5-13.57 1-1.29 2.19-2.45 3.58-3.32 10.36-6.06 21.22-11.24 31.31-17.76 4.96-2.26 9.84-4.7 14.47-7.58l.356-.225c7.463-4.74 14.702-9.933 22.794-13.585 7.23-3.62 14.86-6.39 22-10.21v3.5c-5.41 2.84-11.08 5.17-16.62 7.75-4.61 2.02-9.41 3.6-13.95 5.78-3.376 3.475-7.276 6.359-11.317 9.014l-.193.126c3.41 1.59 7.68 1.65 10.01 5.02-2.06.77-4.13 1.52-6.22 2.19-6.19 1.09-12.53.66-18.76 1.43.66 2.06 1.36 4.12 2.48 5.98 10.6 16.09 15.95 34.82 22.38 52.8 1.93 7.13 3.51 14.35 4.61 21.66h-67.51c2.39-2.46 4.37-5.28 6.3-8.11-5.98-6.4-12.82-11.9-19.2-17.89-5.11-4.57-9.98-9.41-15.17-13.88l-.777-.644c-8.029-6.645-16.184-13.159-23.973-20.086-.36.322-1.89 1.73-1.89 1.73-9.71 11.48-19.35 23.03-28.75 34.77 3.44 2.79 7.05 5.38 10.55 8.11 5.97 4.83 11.29 10.37 16.48 16h-54.15c7.84-9.36 16.16-18.3 24.35-27.33 6.1-6.82 11.99-13.83 18.19-20.56-2.99-4.74-5.3-9.85-7.96-14.76 5.18-6.04 11.9-10.83 19.69-12.8 4.29-1.37 8.83-1.32 13.26-1.92 2.78-.31 4.46-2.86 6.39-4.59-7.19-6.59-13.56-14.12-21.46-19.89 2.07 2.86 4.41 5.5 6.75 8.13-2.86 3.35-6.37 6.35-10.93 6.82-2.87-8.62-5.27-17.4-7.19-26.27 1.4.02 2.77.21 4.12.55 8.04 2.82 16.1 5.56 24.01 8.73-2.52-7.35-5.82-14.44-7.33-22.1l-.111-.415c-1.138-4.291-1.882-8.738-1.669-13.185.53-4.75 3.21-8.86 5.6-12.88 2.81-3.94 6.65-7.12 8.98-11.41 1.51-2.73 1.37-5.93 2.03-8.89 1.05-3.87 5.76-5.98 5.62-10.25.86-8.96-4.99-17.34-2.97-26.32.43-2.85 3.9-2.67 6.08-2.97.207-.02.208-.02 0 0-4.52-8.85-7.26-19.24-4.49-29.06l29.68-.84c6.04.08 12.08-.09 18.12-.23 19.64.16 39.27.48 58.9.74 1.02 4.62 1.47 9.44.3 14.08-1.984 8.563-5.347 17.096-11.455 23.577zm-93.705-35.807c-.07 2.75-.02 5.51.02 8.26 4.28-.22 8.56-.64 12.86-.65 29.97.46 59.94-.11 89.9-.05.26-2.68 1.17-5.42.54-8.1-1.45-.34-2.94-.3-4.41-.3-32.97.27-65.95.19-98.91.84zm97.63 25.54c-1.437 3.623-4.74 10.86-4.74 10.86-5.24 3.62-11.38 5.57-17 8.51-6.34 3.37-12.99 6.1-19.42 9.3-3.16 1.55-6.27 3.18-9.4 4.79.05-1.4.11-2.8.16-4.2 1.54-.42 3.08-.84 4.63-1.21-8.43 0-16.47-2.62-24.34-5.39-3.53-1.59-7.07-3.4-10.03-5.92-1.38-2.36-2.19-5.04-3.82-7.26-2.26-3.18-6.05-4.73-8.53-7.7l-.064-.129c-2.694-5.466-3.843-11.508-4.696-17.491 14.52-.28 29.03.25 43.55.26 1.46.06 2.97-.09 4.39.35 2 1.4 3.67 4.03 6.47 3.55 1.95-.14 4.58-.9 4.72-3.26-2.81 2.53-6.94 2.63-9.37-.46 3.16-.42 6.36-.51 9.55-.51 14.26-.2 28.53-.15 42.78-.6-.81 5.7-2.34 11.31-4.84 16.51z" stroke="#2c2e24"/></g><path d="m90.3 32.91c2.3-1.4 4.58-2.91 7.15-3.78 4.69 2.44 9.8 4.03 15 4.97-1.61-1.16-3.3-2.22-5.04-3.16l.93-.45c2.65.92 5.09 2.29 7.63 3.45 1.67.87 3.53-.18 5.29.09 2.02.42 3.91 1.26 5.89 1.8 1.81.58 3.67.91 5.51 1.35 4.93 3.36 9.65 7.06 13.8 11.36 6.57 6.5 12.98 13.32 17.68 21.33-5.25-4.36-10.37-8.93-16.16-12.6.38-1.09.77-2.18 1.16-3.27-3.56-2.77-6.87-5.85-10.52-8.5-3.72-2.71-8.15-4.15-12.56-5.28-1.2 1.53-2.43 3.05-3.67 4.54 1.8.99 3.61 1.96 5.43 2.9l-.64.45c-2.52.13-5.32-.01-7.18 2.03-1.3-3.97-2.8-7.91-5.04-11.46.89 4.64 2.32 9.14 3.3 13.75-1.63 2.09-3.32 4.14-5.08 6.12l-.33-.82c.26-8.02-4.26-15.07-9.18-21.01l-.54-.77c-.92 2.4-1.72 4.85-2.36 7.34-1.73-2.16-3.46-4.32-5.25-6.43-.02.38-.07 1.14-.09 1.52-2.59.56-5.21.99-7.8 1.53-1.28-1.66-2.85-3.06-4.54-4.31.73 1.5 1.53 2.97 2.39 4.4-1.93 4.35-7.13 4.03-10.73 6.07l-.55-.4c-.25-.3-.49-.61-.72-.92-1.46 1.36-2.93 2.7-4.4 4.04.86.75 1.72 1.51 2.57 2.27-.45.06-1.34.19-1.79.26-1.91-.55-3.82-1.14-5.79-1.49-1.77-.3-3.57-.37-5.36-.5-.14.69-.28 1.37-.42 2.06-1.29-.12-2.59-.23-3.88-.34.19 1.1.37 2.21.58 3.31 3.8 4.98 10.07 7.31 15.89 9.01 3.43.65 6.91 2.22 10.43 1.45 1.01-.62 2-1.27 2.99-1.92 1.8 1.19 3.36 2.7 4.96 4.14-7.66 2.3-16.3 2.69-23.71-.72-3-2.73-7.02-3.62-10.68-5.11-3.13-1.14-6.16-2.55-9.35-3.54 1.47 1.73 3.14 3.26 4.92 4.65-2.41-.55-4.8-1.19-7.24-1.6-2.12-.45-3.92 1.09-5.44 2.32-2.85 2.62-6.08 5.32-7.02 9.26-4.19 4.56-8.63 9.22-10.87 15.1-.93 2.81 2.43 4.53 3.41 6.86-1.99 3.17-3.34 6.72-3.93 10.42.61-.46 1.84-1.38 2.46-1.84.69 1.93 1.44 3.85 2.24 5.74-.71 1.96-1.01 4.02-1.26 6.08 1.74-1.38 3.15-3.13 4.15-5.11.06 2.65.33 5.28.36 7.93-.9 2.89-2.34 5.81-1.85 8.91.87 1.61 1.84 3.17 2.78 4.75-.61 2-.99 4.06-1.28 6.13 1.41-1.67 2.71-3.44 3.78-5.35 1.28.45 2.55.9 3.83 1.35-2.15 5.41-5.54 10.84-4.98 16.87 4.68-4.72 5.69-11.58 7.87-17.6.99 1.88 1.91 3.89 1.74 6.06-4 6.2-6.95 13.39-6.33 20.9.77-1.23 1.51-2.48 2.16-3.78.81 1.14 1.62 2.29 2.43 3.44-1.22 4.02-2.4 8.14-2.34 12.38 1.63-1.65 2.41-3.84 2.78-6.09 2.89-.73 5.63.54 8.2 1.72.26 5.62-1.66 11.57-6.55 14.77-2.56-3.84-6.3-6.59-9.4-9.93-.33-.76-.65-1.53-.96-2.29-5.68-19.94-11.77-39.83-15.02-60.35-.44-6.95-1.86-14-.54-20.93 1.83-6 4.17-11.93 7.65-17.18 6.58-9.31 16.03-16.03 25.59-22.01-1.85.33-3.69.66-5.54.94-.33-.75-1.01-2.24-1.35-2.98 5.58-.49 11.11-1.4 16.59-2.5.79-.04 2.36-.12 3.14-.16-1.81-1.18-3.77-2.18-5.94-2.45 3.54-.33 7.11-.34 10.64-.76-1.84-.55-3.73-.99-5.64-1.28.3-.37.9-1.1 1.19-1.47 4.58-.25 9.17-.21 13.75-.1.01-.21.02-.64.03-.85-2.85-.33-5.7-.7-8.54-1.11 1.57-.64 3.14-1.31 4.76-1.82 3.11-.08 6.23 0 9.34.21.21-1.03.43-2.05.68-3.07 3.29.47 6.58 1.12 9.92 1.06z" fill="#fcfdfd" stroke="#fcfdfd"/><path d="m261.55 379.63c1.39-2.41 4.09-3.66 6.7-4.26 7.2-1.63 16.17 4.67 13.93 12.63h-1.66c-.6-3.79-1.39-8.78-5.9-9.71-5.41-2.27-10.01 2.44-12.79 6.52 3.56-1.28 7.25-3.06 11.13-2.09 3.09.42 4.86 3.2 6.84 5.28h-19.38c.07-2.8-.55-5.91 1.13-8.37z" fill="#2c2c2c" stroke="#2c2c2c"/><g fill="#262d2f" stroke="#262d2f"><path d="m30.74 72.3c1.91-1.69 3.91-3.27 6.05-4.67-3.32 4.38-7.25 8.27-10.31 12.84-2 2.77-3.7 5.83-6.19 8.19-.1-.32-.32-.95-.42-1.26 2.24-5.88 6.68-10.54 10.87-15.1z"/><path d="m23.28 94.26c3.37-4.88 7.14-9.48 11.37-13.64-.69 1.36-1.36 2.74-2.04 4.11-3.62 6.02-7.16 12.1-10.8 18.11-.62.46-1.85 1.38-2.46 1.84.59-3.7 1.94-7.25 3.93-10.42z"/><path d="m32.86 159.5c-.62-7.51 2.33-14.7 6.33-20.9.01.34.02 1.02.02 1.37v1.05c-1.75 4.8-2.76 9.81-4.19 14.7-.65 1.3-1.39 2.55-2.16 3.78z"/><path d="m37.45 159.16c.81-2.72 2.03-5.29 3.52-7.69l.1.98c-1.18 4.3-2.38 8.6-3.18 13-.37 2.25-1.15 4.44-2.78 6.09-.06-4.24 1.12-8.36 2.34-12.38z"/></g><path d="m100.77 43.29c.64-2.49 1.44-4.94 2.36-7.34l.54.77c2.6 7.16 5.06 14.56 9.18 21.01l.33.82c-1.45 1.08-3.11 1.9-4.92 2.11-1.89-6-3.56-12.34-7.49-17.37z" fill="#e8ecee" stroke="#e8ecee"/><g fill="#2c2c2b" stroke="#2c2c2b"><path d="m32.48 94.77c-.06.99-.16 1.98-.27 2.97-2.07 3.78-3.96 7.68-5.27 11.81-1 1.98-2.41 3.73-4.15 5.11.25-2.06.55-4.12 1.26-6.08 2.35-4.87 4.94-9.65 8.43-13.81z"/><path d="m35.28 116.76c.02.95.01 1.91-.01 2.87-1.91 3.94-3.14 8.15-4.54 12.29-1.07 1.91-2.37 3.68-3.78 5.35.29-2.07.67-4.13 1.28-6.13 2.01-4.95 4.53-9.67 7.05-14.38z"/><path d="m174.4 371.56c-.11-2.25-.61-6.43 2.66-6.41 3.44-.44 4.44 4.25 2.5 6.4-1.6 1.09-3.48.44-5.16.01m.36-3.53c.47.89.95 1.79 1.43 2.69.73-.02 2.19-.05 2.92-.06-.34-1.32-.7-2.64-1.08-3.94-1.11.4-2.2.83-3.27 1.31z"/></g><path d="m87.63 39.91c2.59-.54 5.21-.97 7.8-1.53 4.14 7.3 8.49 14.53 11.36 22.45-1.23.77-2.45 1.56-3.71 2.27-2.6-5.29-5.19-10.65-8.92-15.26-2.16-2.66-4.42-5.23-6.53-7.93z" fill="#e3e8e9" stroke="#e3e8e9"/><path d="m85.48 40c4.61 8.44 12.2 14.83 16.27 23.61-1.69.58-3.4 1.14-5.03 1.88-5.76-8.05-13.74-14.1-21.97-19.42 3.6-2.04 8.8-1.72 10.73-6.07z" fill="#e2e8e9" stroke="#e2e8e9"/><path d="m126.06 40.22c4.41 1.13 8.84 2.57 12.56 5.28 3.65 2.65 6.96 5.73 10.52 8.5-.39 1.09-.78 2.18-1.16 3.27-6.79-3.72-14.09-6.44-21.51-8.62l.71-.54.64-.45c-1.82-.94-3.63-1.91-5.43-2.9 1.24-1.49 2.47-3.01 3.67-4.54z" fill="#dee6e8" stroke="#dee6e8"/><path d="m47.57 43.45c2.03-.56 4.08-1.12 6.19-1.35 2.17.27 4.13 1.27 5.94 2.45-.78.04-2.35.12-3.14.16-2.97-.58-6-.84-8.99-1.26z" fill="#e2e4e2" stroke="#e2e4e2"/><path d="m41.07 152.45c1.7 4.9 3.94 9.62 5.02 14.72-2.57-1.18-5.31-2.45-8.2-1.72.8-4.4 2-8.7 3.18-13z" fill="#e2e4e2" stroke="#e2e4e2"/><path d="m73.48 44.75c.23.31.47.62.72.92 5.99 7.92 15.01 12.81 21.32 20.46-1.52 1.23-3.43 1.16-5.22.73-5.4-6.82-13.12-11.12-20.44-15.54.45-.07 1.34-.2 1.79-.26-.85-.76-1.71-1.52-2.57-2.27 1.47-1.34 2.94-2.68 4.4-4.04z" fill="#e1e6e6" stroke="#e1e6e6"/><path d="m120 50.14c1.86-2.04 4.66-1.9 7.18-2.03l-.71.54-.72.53c4.11 2.33 8.25 4.63 12.56 6.58 8.75 3.92 16.73 9.64 23.13 16.8 4.67 5.81 8.8 12.11 12.02 18.85 5.61 13.05 10.19 26.55 13.9 40.26.66 2.46 1.88 4.74 3.7 6.53 2.06 4.05 1.77 9.02 4.69 12.65 4.16 6.95 9.22 13.81 10.31 22.07 2.07 12.84-1.98 25.46-4.3 37.96-.85 4.8-2.54 9.38-3.76 14.09-2.23 9.07-4.58 18.17-8.28 26.77-2.76 6-5.07 12.18-7.61 18.26-.82-.92-1.65-1.85-2.47-2.77-.29.21-.89.64-1.19.85-.18.82-.37 1.63-.57 2.45-2.05 4.79-6.53 8.13-11.21 10.11-.63-2.93-.38-6.34-2.56-8.68-5.11-5.83-12.03-9.61-18.65-13.43-5.17-3.02-11.18-4.39-16.05-7.94-3.37-2.45-6.53-5.16-9.79-7.74.11-.6.33-1.8.44-2.4 12.8 4.71 26.97 8.39 40.53 4.92 8.47-1.94 16.14-6.99 21.55-13.75-7.82 4.2-15.13 10.08-24.22 11.31-16.99 1.68-33.65-3.61-49.15-10.01 1.13 1.14 2.27 2.27 3.49 3.34-4.69-.28-9.21 1.27-13.86 1.45-3.96-4.26-6.18-9.81-9.75-14.39-3.04-4.94-8.1-8.01-11.77-12.39 4.8-2.38 9.89-4.06 14.81-6.12 2.98 1.57 6.05 3.5 9.56 3.3 5.96-.15 11.92-.6 17.81-1.57 4.95-.87 9.76 1.42 14.7 1.08 2.62-.15 2.32-3.34 2.97-5.15 1.21-.5 2.42-.98 3.64-1.46-3.93-2.24-10.53-3.92-9.79-9.71 5.68 2.07 11.45-1.03 17.24-.17 2.17-.13 5.58 1.07 6.46-1.76 2.05-5.89-.44-12.06-3.62-17.04-3.55-5.6-5.93-12.53-11.89-16.11-3.73-2.4-9.28-.96-11.49 2.83-1.35 3.51-1.6 7.37-1.54 11.1.09 4.92 2.92 9.12 5.16 13.3-2.88.71-6.05.9-8.56 2.59-.38 1-.58 2.05-.82 3.09-10.73 3.93-21.58 7.59-31.98 12.36-5.13 2.1-9.89 4.98-14.24 8.39-3.48-2.47-7.95-4.71-12.24-2.99-4.95 1.52-5.85 7.92-4.02 12.11 3.34 7.93 8.28 15.36 15.16 20.64 1-.22 2.02-.44 3.03-.66 2.05 1.83 4.24 3.49 6.45 5.14-1.91 1.59-3.79 3.21-5.64 4.86 7.3 12.54 21.19 18.87 30.82 29.26-7.96-4.87-15.03-10.99-22.24-16.88-5.31-4.38-9.89-9.52-14.39-14.7-4.87-6.51-10.18-12.77-13.75-20.13-3.53-6.69-5.2-14.13-8.29-20.99-.52 7.19.81 14.46 3.69 21.06l.33.82c-.45.12-1.36.37-1.81.5-2.25-1.11-4.95-1.68-6.6-3.71-4.12-5.1-7.42-10.78-11.22-16.11.52.08 1.57.25 2.09.33 2.9 1.07 5.79 2.51 8.99 1.89-1.01-.72-2.04-1.39-3.08-2.04 1.05-.54 2.09-1.08 3.14-1.62-1.08-1.93-2.14-3.87-3.2-5.81-4.84-8.72-11.34-17.74-21.07-21.26.27 1.57.55 3.14.84 4.71-1.09-.1-2.18-.19-3.28-.27-.5-2.93-.76-6.28 1.31-8.69 1.15-1.92 3.63-1.94 5.58-1.6 4.91 1.75 8.61 5.6 12.55 8.84.27-.16.82-.48 1.09-.64 4.89-3.2 6.81-9.15 6.55-14.77-1.08-5.1-3.32-9.82-5.02-14.72l-.1-.98c-.23-3.54-1-7-1.76-10.45v-1.05c4.66 5.44 2.52 13.62 6.22 19.57 3.38 3.2 8.68 2.91 12.26 5.8.88 1.21 1.22 2.7 1.7 4.09-2.84-.58-5.67-1.19-8.53-1.65.68.82 1.37 1.64 2.06 2.46-1.43 2.59-3.28 5.19-3.34 8.26-.06 3.97.54 8.02 2.14 11.67 1 2.68 4.22 2.93 6.52 3.93-1.02 1.33-1.9 2.77-2.73 4.24 7.56-4.5 13.07-11.56 19.58-17.35-2.09 1.05-4.12 2.2-6.06 3.49-.42-1.83-.83-3.66-1.23-5.49 2.25-1.02 4.5-2.08 6.56-3.46-2.54.43-5.02 1.15-7.43 2.05-1.07-1.9-2.12-3.82-3.03-5.8.39-.31 1.18-.92 1.58-1.22-1.14-.21-2.27-.42-3.4-.62-.99-1.89-2.16-3.73-2.7-5.81-.39-2.35.39-4.69.8-6.98 3.37-.25 7.16.36 10.08-1.76 2.98-2.03 5.91-4.19 8.43-6.78 2.54-2.7 2.18-6.76 1.78-10.15-1.38-9.69-6.98-17.9-11.86-26.11-4.86-7.73-8.73-16.19-15.03-22.91-3.23-3.43-5.97-7.4-9.77-10.25-2.67-2.11-5.96-.03-8.71.81 3.3-4.37 6.48-8.82 9.73-13.21 1.68-2.38 4.71-2.88 7.3-3.69 4.14 2.19 8.71 3.55 13.42 3.22 7.41 3.41 16.05 3.02 23.71.72.26-.05.78-.14 1.04-.18 1.79.43 3.7.5 5.22-.73l1.2-.64c1.63-.74 3.34-1.3 5.03-1.88.44-.15.89-.32 1.33-.51 1.26-.71 2.48-1.5 3.71-2.27.36-.04 1.1-.13 1.47-.17 1.81-.21 3.47-1.03 4.92-2.11 1.76-1.98 3.45-4.03 5.08-6.12.58-.76 1.16-1.53 1.74-2.29m52.13 57.25c-.65-.2-1.95-.6-2.6-.8.06-.45.18-1.35.24-1.8-1.29 1.22-2.24 2.76-2.49 4.54-.71.1-2.14.3-2.86.4l.15-1.03c-2.49 2.2-2.91 5.76-2.71 8.89l.58-.88c-.18.34-.54 1.01-.72 1.35-.43-1.38-.86-2.77-1.29-4.15-.38.79-.72 1.6-1.04 2.42-.18-.88-.54-2.65-.72-3.54-.67 1.32-1.35 2.63-1.88 4.01-1.35 2.23-2.12 4.73-2.84 7.22.43-1.86.15-3.79.09-5.67-1.29 2.48-3.08 5.71-1.77 8.44-.54-.82-1.09-1.64-1.65-2.44-.44.16-1.33.49-1.77.65.01-.6.04-1.79.06-2.39-1.58 1.7-2.54 3.93-2.39 6.28-.94.73-1.89 1.46-2.83 2.19-.08-.54-.22-1.6-.29-2.14-.55 1.81-.95 3.73-.51 5.62-.84 2.25-.58 4.81 1.88 5.85-.07.46-.22 1.36-.29 1.82 3.15-1.69 5.93-3.94 8.82-6.01 8.73-6.54 17.8-12.73 25.51-20.49.75-.73 1.06-1.74 1.22-2.74-1.95-2-3.93-3.97-5.98-5.86.35-1.07.66-2.15.93-3.24-.99 1.14-1.92 2.32-2.85 3.5m3.92-.1c-1.55 3.03 3.31.12 0 0m-40.25 27.81c2.38 3.31 5.01 6.68 5.34 10.93.73 2.63-.79 6.14 1.9 7.93 7.37 6.43 11.4 15.59 15.97 24.03 2.25 3.91 3.35 8.38 5.81 12.17-1.47-7.93-5.05-15.26-8.64-22.41-3.15-6.73-7.89-12.51-12.61-18.16-.43-3.85-.44-8.09-2.83-11.34-1.41-1.38-3.26-2.18-4.94-3.15m21.11 7.73c-1.02 2.09-1.11 4.47-1.48 6.73l.81-.31c-1.18.38-1.69 1.64-2.47 2.49 7.64-1.47 14.77-4.73 21.59-8.38 1.7-.91 3.23-2.1 4.65-3.4-1.17.34-2.34.69-3.45 1.19-.85-1-1.49-2.49-2.98-2.6-5.78-1.01-12.32.14-16.67 4.28m-27.18-3.97c2.13 4.15 2.88 8.97 5.44 12.85.39-4.65-.48-10.93-5.44-12.85m-14.45 6.08c.06.45.17 1.34.22 1.79-.71.32-2.14.96-2.85 1.28-1.38-.63-2.74-1.3-4.12-1.91.17.44.51 1.3.68 1.74-.67.39-2.01 1.16-2.68 1.55-1.07-.95-2.23-1.78-3.39-2.61.29 1.03.57 2.05.86 3.08-.43.31-1.29.92-1.73 1.22-1.93-.49-3.83-1.12-5.76-1.62.3.28.9.83 1.2 1.1-1.26.77-2.52 1.53-3.78 2.3-1.3-.73-2.73-1.17-4.16-1.54l.61.6c-1.87.59-3.75 1.14-5.63 1.71-1.21-.68-2.52-1.16-3.82-1.64.44.42 1.32 1.28 1.77 1.7-1.15 1.04-3.46 1.4-3.57 3.21-1.19-.39-2.4-.73-3.63-1 .47.44 1.41 1.31 1.88 1.75-1.55 2.05-3.13 4.08-4.82 6.01.25.47.75 1.42 1 1.89-.47.33-1.4.98-1.87 1.3 4.49.35 8.95-.35 13.38-.95-.65 1.81-2.57 3.64-1.64 5.65 1.63 3.74 5.56 5.54 8.55 8.01-2.68 1.62-5.37 3.39-7.15 6.05 3.66 1.36 7.56 4.76 11.59 2.9 5.62-2.4 9.75-7.19 15.21-9.88 6.14-3.15 11.28-9.79 9.91-17.02-1.01-.64-2.01-1.28-3.01-1.92 3.25-1.28 7.8-1.49 9.6-4.87 1.36-.84 3.03-1.99 2.74-3.83.07-3.57-3.96-4.96-6.93-4.9-.61-.28-1.82-.85-2.42-1.13l.52.81c-1.5.4-3 .81-4.5 1.22-.68-.76-1.48-1.4-2.26-2.05m46.08 10.55c-2.11-.24-4.51-2-6.42-.41 2.69 3.3 7.83 3.7 11.87 3.8 6-1.18 12.48-3.14 16.54-8.03-6.86 3-14.3 6.73-21.99 4.64m-90.92 4.69c-.55 1.51 2.12 2.66 3.22 1.79.59-1.58-2.1-2.74-3.22-1.79m96.31 12.31c.4.31 1.19.92 1.59 1.23 4.23 1.06 8.58 1.63 12.89 2.3-2.48.78-4.64 2.3-6.82 3.68-.22-.25-.67-.76-.9-1.01-1.93 7.44-1.66 15.53-5.33 22.47-1.34 2.93-5.05 1.82-7.44 1.14-7.93-1.95-14.8-8.14-23.35-7.19 4.66 3.08 10 5.03 15.04 7.4 5.01 1.59 11.24 4.34 16.05.96 5.57-5.55 5.93-14.13 6.18-21.53 4.6 4.74 11.68 3.6 17.32 1.77.08-2.54-.22-5.07-1.04-7.48 2.48-.14 4.98-.34 7.38-1.09-10.01-3.76-21.08-3.32-31.57-2.65m20.25 22.9c-.35 1.93-.31 3.92-.83 5.82-7.14 6.06-16.09 9.47-25.06 11.79-5.67 1.29-11.27 3.18-17.14 3.22-10.35.26-20.7-.21-31.03-.87-5.59-.12-11.21-.02-16.79-.46-1.46-.81-2.37-2.31-3.61-3.39-.61 3.74.67 7.65 3.42 10.26.09-1.6.14-3.21.15-4.81 8.62 6.24 18.63 10.19 28.23 14.67 13.08 5.83 28.89 7.24 41.99.72 8.72-4 14.95-12.33 17.27-21.52.38-2.77.96-5.52 2.35-7.97.73.79 1.46 1.58 2.19 2.38 1.77-3.25 1.4-7.11-1.14-9.84z" fill="#ffd6bc" stroke="#ffd6bc"/><path d="m58.71 49.33c1.79.13 3.59.2 5.36.5 6.33 4.98 13.65 8.44 20.23 13.07-.99.65-1.98 1.3-2.99 1.92-2.26-2.02-5.04-3.3-7.87-4.29-6.14-2.11-11.95-5.27-18.45-6.17-.21-1.1-.39-2.21-.58-3.31 1.29.11 2.59.22 3.88.34.14-.69.28-1.37.42-2.06z" fill="#dee5e6" stroke="#dee5e6"/><path d="m37.76 63.04c1.52-1.23 3.32-2.77 5.44-2.32 2.44.41 4.83 1.05 7.24 1.6.43.2 1.27.59 1.69.78-2.59.81-5.62 1.31-7.3 3.69-3.25 4.39-6.43 8.84-9.73 13.21l-.45.62c-4.23 4.16-8 8.76-11.37 13.64-.98-2.33-4.34-4.05-3.41-6.86.1.31.32.94.42 1.26 2.49-2.36 4.19-5.42 6.19-8.19 3.06-4.57 6.99-8.46 10.31-12.84-2.14 1.4-4.14 2.98-6.05 4.67.94-3.94 4.17-6.64 7.02-9.26z" fill="#e0e5e5" stroke="#e0e5e5"/><path d="m156.91 142.83c4.35-4.14 10.89-5.29 16.67-4.28 1.49.11 2.13 1.6 2.98 2.6-2.53 1.15-5.09 2.22-7.65 3.31-1-.83-1.99-1.68-2.98-2.52-1.53.54-3.08 1.05-4.64 1.53-.25 1.39-.5 2.79-.74 4.19-1.44.52-2.89 1.03-4.31 1.59l-.81.31c.37-2.26.46-4.64 1.48-6.73z" fill="#fffcf6" stroke="#fffcf6"/><path d="m35.1 80c2.75-.84 6.04-2.92 8.71-.81 3.8 2.85 6.54 6.82 9.77 10.25 6.3 6.72 10.17 15.18 15.03 22.91 4.88 8.21 10.48 16.42 11.86 26.11.4 3.39.76 7.45-1.78 10.15-2.52 2.59-5.45 4.75-8.43 6.78-2.92 2.12-6.71 1.51-10.08 1.76-.41 2.29-1.19 4.63-.8 6.98.54 2.08 1.71 3.92 2.7 5.81-.9-.17-1.8-.34-2.69-.51-.48-1.39-.82-2.88-1.7-4.09-3.58-2.89-8.88-2.6-12.26-5.8-3.7-5.95-1.56-14.13-6.22-19.57 0-.35-.01-1.03-.02-1.37.17-2.17-.75-4.18-1.74-6.06.32-1.66.51-3.39.1-5.06-.78-2.62-1.65-5.2-2.28-7.85.02-.96.03-1.92.01-2.87-.45-2.39-1.14-4.72-1.73-7.06-.1-1.31-.21-2.61-.38-3.91-.34-2.68-.82-5.35-.96-8.05.11-.99.21-1.98.27-2.97.16-3.35.06-6.7.13-10.04.68-1.37 1.35-2.75 2.04-4.11zm10.45 45.9c-.56 9.16 1.96 18.17 6.55 26.05-.71 1.06-1.43 2.11-2.13 3.18 1.37 1.71 2.96 3.29 5.03 4.13-.98-1.36-2.08-2.64-3.18-3.9.71-1.14 1.53-2.23 2.04-3.49-.68-2.66-2.03-5.07-3.03-7.61-2.35-5.94-3.78-12.18-5.28-18.36z" fill="#fdb885" stroke="#fdb885"/><path d="m21.81 102.84c3.64-6.01 7.18-12.09 10.8-18.11-.07 3.34.03 6.69-.13 10.04-3.49 4.16-6.08 8.94-8.43 13.81-.8-1.89-1.55-3.81-2.24-5.74z" fill="#e2e4e3" stroke="#e2e4e3"/><path d="m32.21 97.74c.14 2.7.62 5.37.96 8.05-1.62 4.07-3.96 7.78-5.87 11.69-.03-2.65-.3-5.28-.36-7.93 1.31-4.13 3.2-8.03 5.27-11.81z" fill="#e3e2e0" stroke="#e3e2e0"/><path d="m33.17 105.79c.17 1.3.28 2.6.38 3.91-2.48 5.63-3.79 12.07-8.1 16.69-.49-3.1.95-6.02 1.85-8.91 1.91-3.91 4.25-7.62 5.87-11.69z" fill="#2c2e24" stroke="#2c2e24"/><path d="m169.53 106.59 2.6.8c.11 1.3.22 2.61.32 3.91.56-1.38 1.12-2.76 1.6-4.17 2.05 1.89 4.03 3.86 5.98 5.86-7.98 5.67-15.73 11.64-23.55 17.52-4.03 3.14-8.2 6.16-11.71 9.9-2.46-1.04-2.72-3.6-1.88-5.85.3.37.89 1.13 1.18 1.5-.09-1.66-.19-3.33-.38-4.98.94-.73 1.89-1.46 2.83-2.19.11.87.32 2.6.43 3.46 1.36-2.21 1.85-4.78 1.9-7.35.44-.16 1.33-.49 1.77-.65.56.8 1.11 1.62 1.65 2.44l.5.76c.42-1.17.82-2.35 1.18-3.53.72-2.49 1.49-4.99 2.84-7.22.12 1.92.34 3.82.63 5.72.97-1.95 1.6-4.04 1.97-6.19.32-.82.66-1.63 1.04-2.42.43 1.38.86 2.77 1.29 4.15.18-.34.54-1.01.72-1.35 1.26-2.12 1.6-4.59 1.98-6.98.72-.1 2.15-.3 2.86-.4-.15 1.69-.13 3.38-.05 5.08 1.19-2.47 1.86-5.13 2.3-7.82z" fill="#fcfefe" stroke="#fcfefe"/><path d="m176.05 107.29c3.31.12-1.55 3.03 0 0z" fill="#725741" stroke="#725741"/><path d="m33.55 109.7c.59 2.34 1.28 4.67 1.73 7.06-2.52 4.71-5.04 9.43-7.05 14.38-.94-1.58-1.91-3.14-2.78-4.75 4.31-4.62 5.62-11.06 8.1-16.69z" fill="#eae5e3" stroke="#eae5e3"/><path d="m30.73 131.92c1.4-4.14 2.63-8.35 4.54-12.29.63 2.65 1.5 5.23 2.28 7.85-1 1.93-2.04 3.84-2.99 5.79-1.28-.45-2.55-.9-3.83-1.35z" fill="#e6e1e1" stroke="#e6e1e1"/><path d="m37.55 127.48c.41 1.67.22 3.4-.1 5.06-2.18 6.02-3.19 12.88-7.87 17.6-.56-6.03 2.83-11.46 4.98-16.87.95-1.95 1.99-3.86 2.99-5.79z" fill="#2e2b27" stroke="#2e2b27"/><g fill="#fdfbea" stroke="#fdfbea"><path d="m301.55 166.12c.91-1.04 2.87.41 2.07 1.57-.92.97-2.89-.41-2.07-1.57z"/><path d="m263.08 180.6c1.07.42 1.79 1.16 2.16 2.22 1.41 4.05 2.62 8.25 2.7 12.56-3.09-4.22-3.4-9.85-4.86-14.78z"/><path d="m306.92 187.46c2.02-.13 3.11 1.46 3.44 3.26-.93.09-2.79.28-3.72.38.07-.91.21-2.73.28-3.64z"/></g><path d="m39.21 141.02c.76 3.45 1.53 6.91 1.76 10.45-1.49 2.4-2.71 4.97-3.52 7.69-.81-1.15-1.62-2.3-2.43-3.44 1.43-4.89 2.44-9.9 4.19-14.7z" fill="#e2e7e5" stroke="#e2e7e5"/><path d="m117.54 146.99c1.5-.41 3-.82 4.5-1.22 1.07 1.76 2.51 3.24 4.12 4.5-.66-1.44-1.39-2.84-2.22-4.18 2.97-.06 7 1.33 6.93 4.9.29 1.84-1.38 2.99-2.74 3.83-12.35 2.08-24.5 5.2-36.87 7.2-5.92 1.04-11.97 1.6-17.7 3.53-.25-.47-.75-1.42-1-1.89 1.69-1.93 3.27-3.96 4.82-6.01 1.59 1.09 3.33 1.91 5.14 2.57-1.06-1.18-2.2-2.28-3.39-3.32.11-1.81 2.42-2.17 3.57-3.21 1.7 1.46 3.63 2.61 5.7 3.47-1.09-1.3-2.28-2.53-3.65-3.53 1.88-.57 3.76-1.12 5.63-1.71 1.73 1.84 3.92 3.13 6.26 4.05-.85-1.09-1.73-2.15-2.71-3.11 1.26-.77 2.52-1.53 3.78-2.3 1.66 1.38 3.52 2.49 5.38 3.58-.28-1.02-.55-2.04-.82-3.06.44-.3 1.3-.91 1.73-1.22 1.7.85 3.35 1.79 5.07 2.6-.81-1.06-1.63-2.1-2.54-3.07.67-.39 2.01-1.16 2.68-1.55 1.44 1.43 3.11 2.59 4.81 3.69-.44-1.18-.9-2.35-1.37-3.52.71-.32 2.14-.96 2.85-1.28 1.1 2.11 2.91 3.7 4.93 4.9-.73-1.69-1.65-3.29-2.89-4.64z" fill="#fdfefc" stroke="#fdfefc"/><path d="m316.99 201.74c1.55.1 3.08.36 4.61.62-3.16 1.55-6.27 3.18-9.4 4.79.05-1.4.11-2.8.16-4.2 1.54-.42 3.08-.84 4.63-1.21z" fill="#fdfefc" stroke="#fdfefc"/><path d="m265.13 148.15c32.96-.65 65.94-.57 98.91-.84 1.47 0 2.96-.04 4.41.3.63 2.68-.28 5.42-.54 8.1-29.96-.06-59.93.51-89.9.05-4.3.01-8.58.43-12.86.65-.04-2.75-.09-5.51-.02-8.26z" fill="#fefefd" stroke="#fefefd"/><path d="m127.28 159.05c2.21-3.79 7.76-5.23 11.49-2.83 5.96 3.58 8.34 10.51 11.89 16.11 3.18 4.98 5.67 11.15 3.62 17.04-.88 2.83-4.29 1.63-6.46 1.76-5.79-.86-11.56 2.24-17.24.17.5-2.01 1.09-3.99 1.63-5.99-3.67.96-7.21 2.33-10.69 3.82.24-1.04.44-2.09.82-3.09 2.51-1.69 5.68-1.88 8.56-2.59-2.24-4.18-5.07-8.38-5.16-13.3-.06-3.73.19-7.59 1.54-11.1z" fill="#fdb884" stroke="#fdb884"/><path d="m63.06 206.89c4.29-1.72 8.76.52 12.24 2.99-.2 2.5-.9 5.18.24 7.56.95 1.86 2.63 3.18 4.07 4.65-1.53-3.55-2.56-7.29-2.73-11.16 3.67 4.38 8.73 7.45 11.77 12.39 3.57 4.58 5.79 10.13 9.75 14.39 4.65-.18 9.17-1.73 13.86-1.45 2.53 1.52 5.08 3.02 7.8 4.19-.11.6-.33 1.8-.44 2.4 3.26 2.58 6.42 5.29 9.79 7.74 4.87 3.55 10.88 4.92 16.05 7.94 6.62 3.82 13.54 7.6 18.65 13.43 2.18 2.34 1.93 5.75 2.56 8.68-7.61 2.83-15.97 3.2-23.72.65-7.13-4.78-15.78-7.11-22.07-13.16-5.17-4.94-10.1-10.14-15.07-15.29-1.74.7-3.48 1.4-5.22 2.11-1.96-1.61-3.9-3.23-5.95-4.72 2.68 4.24 6.23 7.84 9.82 11.31 7.79 7.29 16.15 14.15 25.73 18.96-.06 2.58-.12 5.16-.2 7.74-7.54-2.15-14.66-5.57-21.13-10-9.63-10.39-23.52-16.72-30.82-29.26 1.85-1.65 3.73-3.27 5.64-4.86.27-.24.82-.73 1.1-.97-2.31-5.09-5.93-9.49-10.02-13.27.17 3.16-.29 6.86 2.47 9.1-1.01.22-2.03.44-3.03.66-6.88-5.28-11.82-12.71-15.16-20.64-1.83-4.19-.93-10.59 4.02-12.11z" fill="#fdb884" stroke="#fdb884"/><path d="m324.82 157.78c14.26-.2 28.53-.15 42.78-.6-.81 5.7-2.34 11.31-4.84 16.51-1.46 3.68-3.84 6.97-4.74 10.86-5.24 3.62-11.38 5.57-17 8.51-6.34 3.37-12.99 6.1-19.42 9.3-1.53-.26-3.06-.52-4.61-.62-8.43 0-16.47-2.62-24.34-5.39-3.53-1.59-7.07-3.4-10.03-5.92-1.38-2.36-2.19-5.04-3.82-7.26-2.26-3.18-6.05-4.73-8.53-7.7-2.74-5.5-3.9-11.59-4.76-17.62 14.52-.28 29.03.25 43.55.26 1.46.06 2.97-.09 4.39.35 2 1.4 3.67 4.03 6.47 3.55 1.95-.14 4.58-.9 4.72-3.26zm-24.77 11.02c1.58.31 3.19.5 4.81.35.07-1.99-.68-3.77-1.93-5.28-1.66 1.21-3.15 2.7-2.88 4.93m22.74 1.37c1.58 2.85 5.14 1.52 7.65 1.1.38-2.45.26-4.93-.6-7.27-3.45-.8-9.38 2.04-7.05 6.17m17.3 2.42c.62 1.55 1.34 3.06 2 4.6-1.46-.69-2.87-1.47-4.27-2.24.19.68.57 2.05.77 2.73 1.47.07 2.96.12 4.44.12-.36-2.06-.67-4.41-2.94-5.21m-23.59 2.92c-2 1.03-3.56 3.08-3.26 5.42-.03 4.82 8.4 5.3 9.28.76 1.27-3.44-2.32-8.33-6.02-6.18m-9.62 11.4c-2.15 1.59-1.47 4.28.1 5.98 2.06-.62 3.76-1.9 4.92-3.71-1.19-1.42-3.03-4.16-5.02-2.27z" fill="#fff4af" stroke="#fff4af"/><path d="m315.27 158.29c3.16-.42 6.36-.51 9.55-.51l-.18.97c-2.81 2.53-6.94 2.63-9.37-.46z" fill="#f2eee6" stroke="#f2eee6"/><path d="m85.07 165.9c11.17-1.92 22.38-3.76 33.46-6.21 1 .64 2 1.28 3.01 1.92 1.37 7.23-3.77 13.87-9.91 17.02-5.46 2.69-9.59 7.48-15.21 9.88-4.03 1.86-7.93-1.54-11.59-2.9 1.78-2.66 4.47-4.43 7.15-6.05-2.99-2.47-6.92-4.27-8.55-8.01-.93-2.01.99-3.84 1.64-5.65m19.07 2.18c-6.02 1.81-12.25 2.82-18.5 3.38.48 1.13 1.39 2.05 2.68 2.13 5.95 1.03 12.25.11 17.61-2.68 3.82-2.02 8-4.03 10.2-7.97-4.07 1.56-7.81 3.87-11.99 5.14m-2.4 11.67c-4.98 2.51-10.67 2.98-15.69 5.34 4.51 1.19 9.16-.42 13.5-1.64 8.92-2.99 15.36-10.25 20.53-17.79-6.37 4.35-11.07 11.03-18.34 14.09z" fill="#f8ba8b" stroke="#f8ba8b"/><path d="m323.97 166.28c1.43-.44 2.87-.87 4.31-1.31.85 1.69 1.57 3.44 2.13 5.24-1.88.24-3.89.98-5.73.15-.67-1.26-.58-2.71-.71-4.08z" fill="#fffdff" stroke="#fffdff"/><path d="m52.92 170.24c3.6.84 7.26 1.53 10.98 1.54.91 1.98 1.96 3.9 3.03 5.8-5.84 2.32-11.74 4.97-16.33 9.37 6.04-1.95 11.43-5.39 17.2-7.96.4 1.83.81 3.66 1.23 5.49-3.89 2.85-7.42 6.18-10.79 9.62-2.3-1-5.52-1.25-6.52-3.93-1.6-3.65-2.2-7.7-2.14-11.67.06-3.07 1.91-5.67 3.34-8.26z" fill="#fab989" stroke="#fab989"/><path d="m181.23 176.02c3.23.31 6.47.43 9.71.21.82 2.41 1.12 4.94 1.04 7.48-5.64 1.83-12.72 2.97-17.32-1.77-.06-.56-.18-1.68-.25-2.24 2.18-1.38 4.34-2.9 6.82-3.68z" fill="#fab989" stroke="#fab989"/><path d="m315.35 182.62c-1.75-2.1-.44-6.47 2.65-6.06 3.14.01 3.94 3.55 3.86 6.07-2.13.6-4.47 1.23-6.51-.01z" fill="#fffcfc" stroke="#fffcfc"/><path d="m264.93 178.88c5.13-2.03 8.94 2.89 11.78 6.41 4.52 7.28 4.87 16.4 3.04 24.58-1.37 5.8-2.16 11.73-3.53 17.52-2.54 2.85-6.25 4.26-9.43 6.25-.5-2.22-.78-4.48-.89-6.75-2-.55-4.01-1.07-6.02-1.54 1.07-3.23.74-6.69 1.53-9.96 1.43-3.36 4.24-6.08 4.93-9.76.75-2.88.42-6.02 1.78-8.72 3.35-5.93-.75-12.53-3.19-18.03z" fill="#fed7bc" stroke="#fed7bc"/><path d="m19.01 184.03c1.1.08 2.19.17 3.28.27 4.4 4.58 9.43 8.47 14.13 12.72-.49 3.8-.19 7.63.25 11.41-.52-.08-1.57-.25-2.09-.33-6.05-7.39-12.72-14.75-15.57-24.07z" fill="#f8ba8c" stroke="#f8ba8c"/><path d="m352.51 190.51c2.31-1.51 4.6-3.43 7.5-3.51 2.12-.05 5.12-.5 6.31 1.73 2.28 3.43 2.08 7.9 1.26 11.76-2.59 2.31-6.01 3.35-8.91 5.19-8.68 5.2-17.51 10.16-25.82 15.94-2.76-1.4-5.45-2.95-8.18-4.41 1.7 2.85 3.74 5.67 6.64 7.41 5.5 2.71 12.27 2.9 16.96 7.18.95 4.14-.84 8.23-1.1 12.34.57 3.33 2.55 6.44 5.64 7.96 2.09 1.51 5.75 2.69 5.18 5.93-.54 5.08-1.85 10.17-1.02 15.31 2.79-5.45 9.44-4.89 14.34-7.06 5.08-2.17 10.46-3.87 15.03-7.05-6.17.54-11.91 2.98-17.88 4.42 5.02-5.38 12.75-6.57 19.54-8.39v17.49c-7.14 3.82-14.77 6.59-22 10.21-8.22 3.71-15.56 9.01-23.15 13.81-4.63 2.88-9.51 5.32-14.47 7.58-10.09 6.52-20.95 11.7-31.31 17.76-1.39.87-2.58 2.03-3.58 3.32-3.44 4.57-7.34 8.79-10.5 13.57-3.03 4.16-5.45 8.73-8.49 12.88-2.33-2.05-4.66-4.09-6.97-6.16-4.54-3.9-9.23-7.61-13.9-11.33-3.96-3.14-8.4-5.63-12.21-8.96 6.64-6.03 11.83-13.44 18.16-19.77 1.2-6.34-.44-12.79-2.53-18.77-2.32-8.16-5.81-15.92-8.07-24.11-1.4-4.89-3.72-9.6-4.21-14.7.58-2.27 1.86-4.27 3.09-6.24 1.02.85 2.05 1.7 3.08 2.55.82-.31 1.64-.62 2.47-.92.25 1.11.5 2.22.76 3.34.15-.21.44-.64.59-.86 6.38-7.38 15.88-10.45 24.09-15.23 17.87-10.32 35.65-20.9 54.41-29.54 6.47-3.47 13.18-6.52 19.25-10.67m-46.42 31.58c-3.02 1.51-3.96 5.52-7.31 6.53-3.54 1.34-7.41 2.25-10.22 4.95-4.76 4.53-10.35 8.52-16.82 10.08-4.83 1.23-9.2 3.7-13.84 5.48-3.57 1.33-7.21 4.96-5.95 9.08 2.62 8.09 7.02 15.72 13.43 21.4 4.51 3.24 1.74 9.8 5.49 13.51 5.75 6.13 10.6 13.43 18.04 17.69 6.89 3.18 14.25.16 20.87-2.19 4.57-1.74 8.04-5.41 12.51-7.33 1.83-.86 3.79-1.46 5.5-2.56 1.74-2.48 1.98-5.96 4.3-7.98 3.04-.64 5.99.79 8.83 1.69 1.44-1.27 2.69-2.86 4.46-3.67 2.3-.37 4.68-.54 6.7-1.84.32-1.48 1.6-3.12.65-4.61-2.14-3.83-6.33-5.93-8.76-9.49-.86-4.18-.02-8.54-.98-12.7-1.39-4.43-6.82-5.47-9.13-9.23-.61-3.62.14-7.63-1.78-10.93-2.07-2.34-4.98-3.69-7.41-5.61-.43-3.79.18-8.32-2.83-11.21-2.37-2.53-5.95-3.15-9.22-3.6-2.19.82-4.44 1.5-6.53 2.54z" fill="#fed6bc" stroke="#fed6bc"/><path d="m91.69 204.81c12.17-4.49 24.07-9.69 35.5-15.83.37 3.77 1.49 7.75 4.67 10.12 2.25 2.26 5.6 1.96 8.51 1.91-1.22.48-2.43.96-3.64 1.46-.65 1.81-.35 5-2.97 5.15-4.94.34-9.75-1.95-14.7-1.08-5.89.97-11.85 1.42-17.81 1.57-3.51.2-6.58-1.73-9.56-3.3z" fill="#fab987" stroke="#fab987"/><path d="m37.3 198.55c1.75.76 3.47 1.55 5.22 2.3 1.06 1.94 2.12 3.88 3.2 5.81-1.05.54-2.09 1.08-3.14 1.62-4.08-1.52-5.43-5.7-5.28-9.73z" fill="#f8b989" stroke="#f8b989"/><path d="m173.38 212.45c2.81-1.48 5.52-3.14 8.4-4.47-.06 4.73-2.87 8.67-5.36 12.46-1.5 2.18-3.37 4.2-5.94 5.06-9.97 4.07-20.76 6.29-31.53 6.3-3.48.15-6.77-1.08-10.03-2.1-.43-3.39-.76-6.79-1.48-10.13 4.65.26 9.32.44 13.99.38.38 3.38-.57 7.68 2.11 10.28-.12-3.43-.57-6.83-.97-10.23 4.21-.38 8.38-1.05 12.56-1.64.36 3.08.71 6.37 2.71 8.89-.15-3.18-1-6.26-2.17-9.21 6-1.51 12.16-2.73 17.71-5.59m-2.47 2.52c.49 2.18 1.08 4.4 2.54 6.16-.13-1.63-.3-3.25-.48-4.86-.52-.33-1.54-.98-2.06-1.3z" fill="#fdfefd" stroke="#fdfefd"/><path d="m99.59 217.09c4.79-.19 9.48.93 14.23 1.29-.04 1.9-.02 3.8 0 5.7-4.62-2.59-9.82-4.03-14.23-6.99z" fill="#fdfeff" stroke="#fdfeff"/><path d="m114.64 218.49c4.24.31 8.46.8 12.7 1.04-.51 3.17-.28 6.38.3 9.52-4.18-1.32-8.29-2.83-12.42-4.26-.2-2.1-.4-4.21-.58-6.3z" fill="#fefdff" stroke="#fefdff"/><path d="m306.09 222.09c2.09-1.04 4.34-1.72 6.53-2.54 2.67 1.9 5.88 3.29 7.82 6.04 1.74 3.29 1.12 7.23 2.33 10.69 2.13 2.58 5.46 3.79 7.7 6.28 1.11 3.6.55 7.52 1.84 11.08 2.2 3.1 6.14 4.57 8.08 7.92 1.35 4.65-.03 9.74 1.73 14.32 1.44 2.23 4.01 3.37 5.94 5.15 1.93 1.49 2.9 3.8 4.02 5.9-2.02 1.3-4.4 1.47-6.7 1.84-1.77.81-3.02 2.4-4.46 3.67-2.84-.9-5.79-2.33-8.83-1.69-2.32 2.02-2.56 5.5-4.3 7.98-1.71 1.1-3.67 1.7-5.5 2.56-4.47 1.92-7.94 5.59-12.51 7.33-6.62 2.35-13.98 5.37-20.87 2.19-7.44-4.26-12.29-11.56-18.04-17.69-3.75-3.71-.98-10.27-5.49-13.51-6.41-5.68-10.81-13.31-13.43-21.4-1.26-4.12 2.38-7.75 5.95-9.08 4.64-1.78 9.01-4.25 13.84-5.48 6.47-1.56 12.06-5.55 16.82-10.08 2.81-2.7 6.68-3.61 10.22-4.95 3.35-1.01 4.29-5.02 7.31-6.53m-27.33 46.59c5.7-4.6 3.84-12.87 4.6-19.3-4.32 5.3-5.16 12.69-4.6 19.3m16.5 4.64c3.46-1.29 1.97-5.69 2.15-8.51-2.17 2.24-1.69 5.66-2.15 8.51m-7.89-6.84c-.78 3.61-.39 7.35-.14 11 3.42-2.94 1.65-7.98 1.63-11.86-.38.21-1.12.65-1.49.86z" fill="#feb885" stroke="#feb885"/><path d="m259.88 225.35c2.01.47 4.02.99 6.02 1.54.11 2.27.39 4.53.89 6.75-3.11 1.89-6.33 3.67-9.11 6.04-1.86 1.55-2.18 4.11-2.92 6.27-.15.22-.44.65-.59.86-.26-1.12-.51-2.23-.76-3.34-.83.3-1.65.61-2.47.92-1.03-.85-2.06-1.7-3.08-2.55 3.64-5.76 8.51-10.63 12.02-16.49z" fill="#fab98a" stroke="#fab98a"/><path d="m100.59 254.95c1.74-.71 3.48-1.41 5.22-2.11 4.97 5.15 9.9 10.35 15.07 15.29 6.29 6.05 14.94 8.38 22.07 13.16-16.73-3.72-29.24-16.22-42.36-26.34z" fill="#fcd1b4" stroke="#fcd1b4"/><g fill="#fff" stroke="#fff"><path d="m73.93 254.88c9.81 9.78 21.06 17.89 32.34 25.86 11.46 7.54 23.94 14.28 37.68 16.32 6.94.34 14.33-.08 20.53-3.54 4.68-2.49 9.07-5.51 13.14-8.91 4.6-3.87 7.15-9.47 9.4-14.91 1.42 2.57 2.81 5.17 4.08 7.82 4.6-3.38 9.66-6.14 13.83-10.08.33.16.99.49 1.32.65-7.65 4.14-14.18 9.93-21.23 14.95-6.86 4-13.24 8.79-19.04 14.21-4.83-1.27-9.45.38-13.74 2.43-14.42-.46-28.85-1.21-43.25-2.24-5.5-.56-11.06-1.07-16.56-.2-.34.51-1.02 1.54-1.36 2.05 1.67 7.32 4.29 14.39 5.93 21.73 2.02 7.99 5.31 15.59 7.03 23.68 6.36-2.17 12.35-5.27 18.24-8.47 7.1-4.38 14.84-7.59 21.88-12.09 4.01-2.7 8.41-4.8 12.3-7.7 2.17-1.8 5.1-1.76 7.71-2.41 2.5-.46 4.38-2.3 6.68-3.23 2.66-.62 5.42-.37 8.12-.46 9.65.04 19.23-1.3 28.87-1.32 2.52 5.71 6.02 10.9 9.08 16.33 2.66 4.91 4.97 10.02 7.96 14.76-6.2 6.73-12.09 13.74-18.19 20.56-8.19 9.03-16.51 17.97-24.35 27.33h-67.08c-4.38-12.62-9.75-24.89-13.5-37.74-.7-2.86-2.24-5.38-4.4-7.37-1.29-6.89-4.4-13.26-5.74-20.12-3.52-15.64-9.61-30.57-13.27-46.18-1.67-7.18-4.45-14.23-4.41-21.71m100.47 116.68c1.68.43 3.56 1.08 5.16-.01 1.94-2.15.94-6.84-2.5-6.4-3.27-.02-2.77 4.16-2.66 6.41z"/><path d="m338.74 303.84c1.45-.91 2.88-1.93 4.5-2.52 3.66.11 7.61.34 10.74 2.44-5.07.37-10.16.23-15.24.08z"/><path d="m238.2 329.12c.47-.44 1.41-1.3 1.89-1.73 8.04 7.15 16.47 13.86 24.75 20.73 5.19 4.47 10.06 9.31 15.17 13.88 6.38 5.99 13.22 11.49 19.2 17.89-1.93 2.83-3.91 5.65-6.3 8.11h-10.73c2.24-7.96-6.73-14.26-13.93-12.63-2.61.6-5.31 1.85-6.7 4.26-1.68 2.46-1.06 5.57-1.13 8.37h-23.94c-5.19-5.63-10.51-11.17-16.48-16-3.5-2.73-7.11-5.32-10.55-8.11 9.4-11.74 19.04-23.29 28.75-34.77z"/></g><path d="m52.15 296.94c5.26-12.96 8.33-27.02 16.25-38.76-1.48 4.8-3.15 9.53-4.99 14.21-6.27 17.72-11.84 35.68-17.49 53.6 6.23 3.13 13.08 5.24 20.12 4.73 9.18.19 17.69-3.67 25.57-7.95 1.34 6.86 4.45 13.23 5.74 20.12-14.58-2.99-29.79-1.73-43.98 2.53-5.69 1.95-11.47 4.05-16.37 7.61-2.3 1.5-2.43 4.45-3.08 6.85 13.38 1.94 26.88-.21 40.29.18-10.82 8.51-22.93 15.43-35.8 20.35-1.97.89-4.2 1.57-5.66 3.25-.63 1.39-1.01 2.88-1.47 4.34h-4.04c-.78-1.57-1.48-3.17-2.18-4.77 13.47-5.29 26.81-11.18 39.14-18.78-11.78-2.01-23.8-.8-35.68-1.22 8.93-21.69 18.12-43.42 23.63-66.29z" fill="#7d8b98" stroke="#7d8b98"/><path d="m178.45 268.08c.3-.21.9-.64 1.19-.85.82.92 1.65 1.85 2.47 2.77-3.35 9.37-11.82 15.52-20.35 19.84-10.38 3.47-21.58 1.64-31.77-1.6.08-2.58.14-5.16.2-7.74 7.97 4.02 16.97 5.79 25.86 5.7 8.3-.18 15.92-4.73 21.29-10.85 1.69-1.86 2.56-4.24 3.17-6.63-.66.45-1.97 1.36-2.63 1.81.2-.82.39-1.63.57-2.45z" fill="#fbd9c0" stroke="#fbd9c0"/><path d="m221.48 274.76c.49.01 1.46.05 1.94.07 1.92 8.87 4.32 17.65 7.19 26.27 4.56-.47 8.07-3.47 10.93-6.82-2.34-2.63-4.68-5.27-6.75-8.13 7.9 5.77 14.27 13.3 21.46 19.89-1.93 1.73-3.61 4.28-6.39 4.59-4.43.6-8.97.55-13.26 1.92-7.79 1.97-14.51 6.76-19.69 12.8-3.06-5.43-6.56-10.62-9.08-16.33 7.12-.27 14.24-.84 21.25-2.12-2.2-10.79-4.53-21.56-7.6-32.14z" fill="#7c8b99" stroke="#7c8b99"/><path d="m174.76 368.03c1.07-.48 2.16-.91 3.27-1.31.38 1.3.74 2.62 1.08 3.94-.73.01-2.19.04-2.92.06-.48-.9-.96-1.8-1.43-2.69z" fill="#fefefe" stroke="#fefefe"/><path d="m261.83 384.81c2.78-4.08 7.38-8.79 12.79-6.52 4.51.93 5.3 5.92 5.9 9.71h-.72c-1.98-2.08-3.75-4.86-6.84-5.28-3.88-.97-7.57.81-11.13 2.09z" fill="#fefefe" stroke="#fefefe"/></g></svg>