<svg height="500" viewBox="0 0 132.292 132.292" width="500" xmlns="http://www.w3.org/2000/svg" xmlns:xlink="http://www.w3.org/1999/xlink"><linearGradient id="a" gradientUnits="userSpaceOnUse" x1="115.627" x2="339.344" y1="343.971" y2="128.436"><stop offset="0" stop-color="#ec9400"/><stop offset="1" stop-color="#ffdf55"/></linearGradient><linearGradient id="b" gradientUnits="userSpaceOnUse" x1="524.772" x2="598.031" y1="502.182" y2="393.063"><stop offset="0" stop-color="#bc0000"/><stop offset="1" stop-color="#ec3f3f"/></linearGradient><g transform="translate(0 -164.70832)"><circle cx="127.266" cy="203.647" fill="#ff8d8d" r="65.602" stroke="#000" stroke-linecap="round" stroke-width="1.055" transform="matrix(.96119275 .27587768 -.27587768 .96119275 0 0)"/><path d="m558.09375 354.8125c-27.25441 0-51.77515 11.79039-68.71875 30.53125.13645.0244.26266.0412.40625.0625.92528-.13999 2.12077.31292 2.625-.53125.20236-.26893.8827-.25685.65625-.46875.34974-.57724.72937-.61784 1.15625-1.34375.83359-.56338 1.81415-.53505 2.78125-.71875.88005-.15482 1.40694-.76146 1.9375-.96875.0221-1.32215 1.95092-.94415 2.96875-.96875.16879-.0922.38408-.13377.59375-.15625-.006.0623-.0315.12618-.0312.1875-.17463 1.27626-.54632 2.85968 1.03125 2.78125 1.81432-.24268-.59427 1.84907.90625 1.8125 1.31352-.22686 1.07215 1.02315.6875 1.71875-.32908 1.01346-.9426 1.74423-.28125 2.5625-.18829.94925.66925 2.02511.625 1.6875.90031-.11473.69498-1.98355 1.34375-2.46875.38858-.60009.89523-.99157 1.53125-1.25.68024-.22492 1.08839-.7132 1.5-1.125.72498-.97945 1.26986-.07 1 1.0625-.21316 1.23848-.39718 2.76744-.875 3.71875-1.16624.17402-2.80053-.32102-2.96875 1.21875-.33761 1.35646-.15911 3.22459-1.46875 3.90625-1.04796 1.21986-.26154 1.08751.6875.75.87469-.28441 1.41088-.32498 1.875-.96875.47991-.91751.84038-2.08744 1.46875-2.5625.34523-.22685 1.28637-.61579 1.46875-.65625-.0209.0145-.0233.0591-.0937.0937.62-.11682 1.70116.24389 1.125-.46875-1.06263.10546-.55215-.43438.0937-.375.72537.11021.65167-.95717 1.21875-1.15625.47895-.47177.89463-.73591.78125-1.53125-.075-.16278-.137-.38748-.15625-.46875.0301.0467.10051.16512.1875.34375.18589.39048 1.2483 1.07362 1.21875.0625.1812-1.02412.99325-1.34918 1.375-2.125.4452-.4056.68399-.93373 1.21875-1.25.36804-.69446.63083.56407 1.0625.0625.48183-.28931.77075-.86028 1.4375-1.09375.5432-.55805.93487-1.01705 1.53125-1.3125.31745-.22199 1.00077-.35908 1.15625-.84375-.0122-.40036-1.22887-.20352-1.46875-.625-.42464-.34416-.0541-.77225.21875-1 .73688-.44446.97643-.78467 1.90625-.875.78408.006 1.82854-.11991 1.875-1.09375.35847-.46127 1.17841-.40584 1.625-.9375.27442-.28049.91685-.54385.71875-1.15625.16402-.56369.86092-.70141 1.0625-1.34375-.44221-.30219-.99904-.61228-1.5625-.34375-.82688-.27905-1.10841.25205-1.90625-.0312-.9265-.33783-1.11421.38835-1.875.5-.53912.21098-1.04732.73465-1.75.65625-.57873.12802-1.12552-.0802-1.125-.5625-.0649-.29766-.53706-.66769-.8125-.28125-.66849.67343-1.88096.27045-2.53125.6875-.67813-.11496-.5129-1.01364.15625-1.03125.61827-.3083 1.35158-.54416 1.78125-.875.84458-.13571 1.02795-.91872 2.03125-.625 1.11069.22788 1.42076-.84682 2.03125-1.375.44324-.82513 1.17914-.9359 1.84375-1.4375.62418-.30178 1.36819-.58616 1.90625-.9375.7249-.24722.97308-.81731 1.46875-1.1875.87892.13974 1.50489-.18638 2.34375-.375.38536-.91921 1.7722-.63457 2.5625-.25.32872.37165.66709 1.00145.90625 1.5625.45633.43242.30141.17886.28125.875.006.55942.4744.75396.71875 1.28125-.40415.31378-1.28565.0724-1.625-.34375-.2566-.22385-.72637-.49713-.9375.0625-.52097.41235-.4825 1.12449-.875 1.46875-.0878.33814-.81928 1.24238.0312 1.25.8936.1759 1.12658-.79261 1.78125-.8125.3986-.30138 1.16759-.42347 1.6875-.28125.15191.53567-.0148 1.14851.90625 1.125.76865.40447 1.5839.105 2.28125.4375.7026.3289-.0556 1.14864-.4375 1.375-.56247.349-.99347.72153-1.6875.96875-.70394.58016-1.88824.63575-2.84375.375-.21927-.65037-.36533-1.47238-.96875-1.90625-.0944-.35779-1.10308-.55861-1.25-.0625-.33402.29129-.23911.98066-.6875 1.125-.53135.72704-1.00435.88238-1.6875 1.40625-.52339.36333-1.20871.85591-1.625 1.34375-.30238.16722-.33798.52891-.3125.28125-.43446.39079-1.09526.48451-1.59375 1.0625-.50376.14302-.76437.63505-.34375.84375.15583.25494.81026.51348 1.125.3125-.0566.25075 1.43297.37254 1.65625.15625.53561-.21132.96581-.66903 1.5-.90625.70571-.17938 1.38248-.4657 2.03125-.65625.50006-.33419-.27909.66617-.53125.59375-.61343.21737-.96132.64201-1.5.875-.16652.62139 1.09132.65241 1.71875.78125.78889.2946 1.30309-.0892 1.625-.71875.43184-.27908 1.04299-.76862 1.375-1.125.72127-.4541 1.15655-1.0568 1.9375-.96875 1.07706.29883 1.39331-.73663 2.34375-.71875.5881-.23997 1.24734-.73643 1.59375-1.25.42081-.41972 1.2095-.41002 1.84375-.8125.68482-.39363 1.40416-.51492 2.25-.375.52036-.16081.44195-.90842 1-1.25.23623-.39636.35281-1.04601.84375-1.125.63822-.044.0827 1.14432.21875 1.65625.15676.37401 1.0773.62793 1.625.5625.0704-.48411.74706-.9727.75-.0937-.12725.51919.49882.56131.71875.90625.2856.0535.51443.17435.71875.3125.0361.01.0876-.0134.125 0 .0464.0684.0755.13605.125.1875.0539.0454.1053.0786.15625.125.47802.34163 1.03819.16766 1.5.65625.54471.41491 1.49908 1.19188 2.03125 1.625.83953-.11386 1.43695.47569 2.15625.71875.52933.14399 1.13762.11466 1.65625.25.0601-.048.10557-.12826.125-.21875.25076-1.17699.39268-2.62906-.0625-3.46875-.65172-.26251.18387-1.5878-.59375-1.9375-.23205-.59885-.99154-.87244-1.65625-1.25-.26806-.41055.96451-.44674 1.3125-.6875.97201-.22239-.60902-.81376-1-1.0625-.84498-.64691-1.41688.64464-2.25-.0312.60996-.16529.73473-.98728 1.1875-1.53125.75376-1.1611 1.90909.367 2.8125.375.42537-.71751.89401-1.29757 1.125-2.1875-.50116-1.04141-1.50386-.0345-2.53125-.4375-.57379-.69414-1.27484.13744-2-.15625-.45751-.4725 1.28035-.47442 1.84375-.625.98948.32272 3.10707-.34584 2-1.3125-1.06634-.0161-.51793-1.17566-1.34375-1.375-.98137-.26276-1.58122.0632-2.3125.3125-.58401.39362-1.99131.0625-2.03125-.15625 1.20129-.67462 2.80538-.21275 4.21875-.65625.97025-.0438 2.66954.24124 3.53125.0937 2.82442.0827 3.88877-.47258 5.46875-.71875 1.83362.34309 2.71934.0979 5.125 1 .42536.10616.90023.24956 1.375.34375.01.002.0214-.002.0312 0 .60389.6098 1.00314 1.58669 2.3125 1.8125 1.27867.5739 2.2282 1.07704 3.65625 1.40625 1.92708.89872 3.86763-.0168 5.4375-.25 1.16278-.39342 2.55622-.71687 3.40625-1.28125.0447-.061.0628-.1441.0937-.21875-.294.0795-.81263.15142-.5625-.125.18062.12974.75968.0895.3125-.0937-.4333-.14098-1.02714.15889-1.1875-.28125-.45634.005-.89472-.10045-1.25-.40625-.27819-.11443-.50417-.40019-.0625-.4375.49608.1291.98172.11527 1.40625-.21875.37655-.27535.83845-.28715 1.28125-.21875.13395.0119.27197.004.40625 0 .0547-.18896.12318-.35192.25-.46875-.36356-.10175-.61055-.45688-1-.5-.52982-.29657-1.14583-.39498-1.6875-.5625-.61536-.0176.28515-.35188.5-.28125 1.08893.0256 2.16011.0346 3.25.0312.34395-.24391.88784-.50908 1.84375-.84375.95332-.33377-4.32293-1.46359-5.375-1.9375-.85555-1.17233-2.68023-.852-4.28125-1-1.96452-.98722-3.92664-.0376-6.09375-.3125-.35123-.70701-2.25727-1.11303-2.40625-.46875-.71735.16932-1.66813.4443-1.71875.40625-2.27997-.32555-2.53085.52139-3.6875.0312-.0927-.92041-1.95042-.72252-2.28125-1.3125-.3173-.31252-.78233-.34031-1.09375-.8125.85843-.0626-1.04695-.64281-1.125-.90625.0492-.72161-1.19913-.51951-1.21875-1.15625-.15262-.0899-.30314-.17522-.46875-.25-.0104-.00032-.0208.00032-.0312 0-.96023-.0295-1.90762-.0625-2.875-.0625zm29.90625 11.9375c-.10303.009-.19941.0344-.3125.0625-.27212.21293 1.2128.45752.71875 2.15625 1.80248.60822-.64492 1.4599.6875 2.3125.77059.71751 1.69515 1.28551 2.5 1.96875 1.56122.24451 1.93016 1.30636 2.6875 2.5 1.07886 1.49727.87624-1.73719 1.625.96875-.0135.64001-.17831 2.78622.875 2.96875.29534 2.17319-1.09125 4.11557-.34375 6.0625 1.46764.96129.50269-2.14251 1.25-2.5-.15257-2.12239 1.07662.85497.875 2.09375.2272.66883-.45474 1.46004-1.25 2.03125-.55927 2.03827.38181 3.97064.71875 5.6875-2.17109-.40705.51413 2.2183-.875 3.40625-.30379 1.02327-1.28925 2.68773-1.4375 2.84375-1.40039.97955-.1418.41176-1.25.90625.011.0875.016.16881.0312.25-.0306-.0211-.10896-.0426-.125-.0625-.96336.81499-1.37257 1.35552-1.875 1.96875-.39621.70402-2.8664 1.63828-3.03125 2.3125-1.56842.10203-3.18925.15782-4.125.71875-.46859-.0525-.65897 2.0272 0 2.3125.57781.62687-.0247 2.41561-1.25 2.3125-.7768.51335-1.04635 1.25622-2 1.4375-1.4606-.0289-3.00102 1.94685-3.5 1.96875s-1.70435.18537-1.28125-.3125c.36288-.42696 1.12292-.93887.6875-.875-.43542.0639-1.47455-.57288-1.15625-.25.20865.31125-.65256.3526-.8125 1.625-.81528.1718-.74022-.43871-1.65625-.1875.10821.55989-.73051.9197-1.5625.875-.34045 1.46214.60545.6154.59375 2.15625-.23682 1.1427-.0991 1.68831-1.5625 1.15625-.0564 1.01762-1.0558.8518-1.75.5-.6942-.35179-1.36316-.91396-1.90625-1.46875-.54309-.5548-.95497-1.105-1.09375-1.5 3.87367 2.6319 5.44803 1.03698 4.34375-.125.0404-.33132-2.29475-1.12056-2.15625-2.46875-.44042-.88093-.88426-.41057-1.59375-1.28125-.5518-.86147-.71564-1.61797-1.25-2.125-.36517-1.13348-1.47404-.62375-2.78125-.71875-1.10658.38152-1.74504.42311-2.59375 1.0625-1.07298.43501-2.01515 1.1209-3.375 1.0625-.42134.71283-1.59395 1.07665-2.34375 1.4375-.51046.21091-2.4148 2.12048-3.40625 2.3125-.75396 1.41745-1.7803-.22918-2.65625.71875-.88604.22005-1.74686.73857-2.125 1.4375-.81279.54766-1.99783.62034-2.5 1.4375-.72094.28218-1.46499 2.89734-1.5625 3.75-.36195.86502.86556 1.17865 1.6875 1.15625 1.17029-.50014 1.90669-.51898 2.71875-.8125-.28012 1.72936-.0588 2.73495-.375 4.9375.0371.62882.91697.79684 1.5625.53125.63975-.2632 1.33162.0585 2.09375-.4375.51979-1.56115 1.74769-2.63698 3.375-3.34375-.71536-1.59873.48692-2.80379 2.09375-4.1875-.3272-1.03871 1.39563-1.15667 1.96875-2.3125 1.27836-1.44728 1.38003.34786.96875.71875-.93579.3753-1.94718 2.14088-2.09375 2.8125-.74806.34762.0428 1.48167-.65625 3.875-1.21374 2.85102.76869 1.05098 1.0625 2.375.15438.69568-1.06486 1.02444-1.90625.21875-1.39325-.18791-1.48877.9309-2.1875 1.4375.27821 1.33563-2.47219 1.45669-2.34375 1.0625-.3751-.5057-2.371-.62264-2.5.1875-1.19699-.002-1.67597.18268-2.65625-.1875-.40365-.82466-2.37078.6402-1.9375-.65625.21783-.17327.37565-.38218.5-.625.22297-.18104.45551-.36442.6875-.53125.0662-.32794-.53613-.22058.21875-.4375.23679.60612.5501.51187.96875-.15625-.14854-.50143-.95758-.2522-1.5-.28125.0752-.61979.0929-1.26696.1875-1.84375.0226-.0391.0466-.083.0625-.125.0363-.0955.0947-.20095.15625-.28125.0574-.0781.1019-.0996.1875-.15625.10567-.0605.2068-.16314.25-.28125.0305-.0974.0575-.2378-.0312-.3125-.11229-.0612-.2319.0471-.3125.125-.0849.10513-.20033.17893-.3125.25-1.24326-1.10048-1.69795.92115-1.6875 2.09375-1.29413.29022-.79696 1.4021-1.28125 1.53125-.93431.4969-3.17309-.71054-4.46875-1.3125-2.11387.98669-1.5113 1.42258-3.875 1.4375-1.8722-.87065-1.98208.19771-3.4375.59375-1.04425.32294-3.79629-.20673-4.8125 0-.5771.93541-1.97964.0668-3.3125.625-.75371.4117.87049.88384 1.25 1.40625.54601.92544 2.08733 3.32435 1.3125 4.59375-.95696.85851-2.64623-.23845-3.8125-.125-.71093.92686-3.69287-1.42507-4.78125-.875-.947.27323-.7119 2.75537-1.65625 3.03125-.87418.29291-1.66193 2.74706-1 2.65625.5963-.12124-.25883 1.70764-.34375 2.5625-.18632.72206 1.3811 1.60065 2.09375 2.09375.90976.26882.49042 1.88867.96875 1.625.98876-.41841 3.24694.0232 3.96875-.125.22245-.31714 1.16298-.67084 1.8125-1.3125.69472-.62225.19451-1.16709 1.78125-1.8125.73243-.45501 2.27276-.664 2.6875.1875.74222.0729.97398.00077 1.59375-.71875-.0215-.39961 1.03884-1.25045 1.09375-1.40625.90656.13727 1.49717.76721 2.3125 1.0625 1.43852.61927 1.92793-.8167 3.46875-.90625.0862.25805.80305.87416.8125 1.09375.37937.58447-.17924.96251.0937 1.59375.24192.69626.41995 1.39716.46875 2.125.0685.66692.42407 1.24769.6875 1.84375.38129.55335.64325.83645 1.03125 1.28125.28759.31344.45222 1.02945.96875 1.3125.54332.26276.43191 1.08407.96875 1.5.45901.39595.52859 1.15242-.0625 1.3125-.0448.49418-.96175.68189-.96875 1.0625-.34898-.10955-.64127-.74725-1.125-.71875-.66235.17299-2.47111-.66889-2.71875.1875-.0525.37195.86785.55781.84375 1.75.28673.27176 1.19613.50473 1.46875.15625.51873-.30044 1.35178-.87992 1.8125-1.25.25273.2009.045.2864.4375.1875.58585.0263 1.13605-.79921 1.53125-.96875.3252-.48337-.11687-1.06436.40625-1.21875.86422-.45097.889.8788.9375 1.25.76864-.0131.61567-.20911.5-.9375.001-.60178-.3663-.9978-.4375-1.59375-.10058-.77516-.87908-1.53776-1.25-2-.4078-.68734-.60672-1.17209-.9375-2.125-.46675-.87697-.9707-1.44302-.9375-2.25-.0113-.88218-.0855-1.86388.1875-2.4375.26318-.52043 1.57393-.14359 1.78125-.53125.15665-.051.29151-.0609.34375.0937.0298.15355.12401.21194.21875.28125.0474.0346.0931.0726.125.125.0126.0198.0186.0423.0312.0625.0161.0439.0349.0892.0312.15625-.14332.67877.14592.91663.15625 1.4375.0784.25476-.17089.84808.1875.8125-.0683.33326.44375.0935.4375.34375.17012.32439.30414.5935.3125 1.09375.34191-.0231.17671.48562.5.5-.11055.20532.0593.38693.1875.46875.20158.23783.42847.30255.4375.625.34848-.11198.25408.29688.625.21875.0261.28816.46243.2065.34375.65625.26199.0571.4206.24768.375.625.0264.32665-.0611.72561.0312 1-.003.01.003.0215 0 .0312.0714.63201-.78717.85925-.375 1.8125.41084 1.30127.39932.57339.21875 1.59375-.20011.561-.44122 1.06434-.5 1.78125-.6507.44923.94374.94387 1.46875.0937.57854-.90194 1.03291.46143 1.21875.125-.20712-.4975-.3016-1.20105 0-1.5625-.0543-.73961.0479-.79865-.0312-1.5625.32618-.66663.55476-1.016 1.1875-1.28125.22892-.45069 1.17189-.69764 1.84375-.875.24104-.3747 1.00343-.22459 1.59375-.25.69604.0464.89575-.60063 1.3125-.625.32504-.60162 1.14563-.5217 1.90625-.90625.46576-.16416 1.62425.36711 1.5-.375.67448-.30581.41615.1214.875-.3125.17464-.57515.6261-1.16493.78125-1.1875.5207-.50648 1.71165.23173 2.46875-.6875.93482-.15503.42486.33205-.21875 1.25-.26408.30437.74979 1.40028 1.34375 1.28125.75998-.0938-.94706 1.32406.8125.65625.37087-.0787 1.24258-.0546 1-.34375-.009-.004.004-.0276 0-.0312.29396-.0812 2.2614-.10954 1.84375-.75-.72705-.11155-1.47735-.56405-1.6875-.875-.25093-.74482 3.47093-1.55433 3.90625-1.34375.67414-.0788-1.00229 1.5022-1.6875 2.21875.15312.87388 1.25001 1.25757 1.21875 1.53125.66736.42519.63616 1.20714 1.21875 1.5.26381.49381.63932.88431.875 1.40625-.0227.55475.0817 1.22295-.125 1.59375-.0202.59834.0775 1.25841-.125 1.78125.23288.81327-.37116.78395-.625 1.09375-.24074.44261-.11485 1.18112-.75 1.21875-.59381.57831-.28649 1.40608.125 1.875.36686.33658.71581 1.60297 1.03125 1.6875.17648.49976.57723.9342.96875 1.28125.009 4.46405-.27321 8.89992-.15625 13.375.0567 2.44888.24661 4.83378.15625 7.34375-.35867 1.21727-.0203 2.77414-.6875 3.75-.73546.73353-.53617 1.41614-.375 2.875.7146 1.70016-.26499 5.93135.53125 8.21875 1.36602.30065 2.54868.38733 3.84375.3125 1.36794.0427 2.57741-.55527 3.375-.78125 1.4422-.75644 2.70003-1.29528 4.21875-2.0625 1.19406-.68558 2.97945-1.15341 3.84375-2.125.80108-1.0984 1.36492-.73653 1.875-1.4375 1.39776-.21633 1.47269-2.09486 2.9375-3.15625.14816-1.98204 2.19447-2.21933 3.125-4.375.86988-1.48764 2.54207-2.30143 3.3125-3.53125 1.65008-2.07523-1.91466-5.49733.25-6.96875.87258-1.71877 1.60151-2.75154 3.0625-4.125 1.01509-1.62517 2.69168-2.37737 3.75-3.75.10131-.10886.22871-.18289.34375-.28125-.013.92659-.0285 1.85539 0 2.78125.34196 1.68774 1.74209 3.82554 2.15625 6.09375.67173 1.21281 1.17436 2.26639 1.9375 3.5625-.20278 2.08208 3.17235 1.87075 3.65625.71875-.54064 3.12879 1.20592 3.87514 1.53125 5.1875 1.00395.54687 1.24734 1.75981 1.96875 2.65625.13228.94384 1.42785 2.24496 2 2.40625l.5 4.375c.51816 1.68422.59354 2.08354 1.875 2.46875 1.60359.67141.70108-2.12539 1.53125-3.15625.36581-1.05618-.0891-2.74052 1.0625-3.21875.39334-.4661-.0111-2.21117.53125-3.40625.35593-1.31074.27856-3.05478 1.4375-3.5625 1.17378-.47515 1.64923-1.34045 2.3125-2.5.94801-.64991.43283-2.88621 1.0625-3.75.85069-1.21219 1.6773-1.9283 1.625-3.9375.18616-1.59956.29807-3.25996 1.0625-4.28125.58014-.87131 3.4128-.47059 4.28125.1875 1.36962 1.57418.74631 2.02598.9375 2.78125.41815 1.51845.93215 2.23523 2.0625 1.21875.41563-.81868 2.04257-.46961 2.21875 1.65625.87258 2.62452-.17179 3.45227 1.4375 4.15625 1.30825 1.77677.67498 1.47117.71875 2.96875-.0624.41897.20508 1.65929.4375 1.875.1984.18413.58043.2851.96875.375.23924-.55177.49001-1.09897.71875-1.65625-.24425-.24493-.52137-.5437-.78125-1.1875.21887-3.22454-2.08145-3.798-1.375-6.6875.26474-3.75191.56074-1.33692.53125-3.1875 1.24775-1.41418 1.92502-1.04282 2.84375-1.96875 1.11667-.46203.91971-.66684 2.25-.84375.40529-1.7514.20954-4.11067.0625-6.125-.0971-1.32964-1.74257-2.27563-1.5-3.625-1.25411-.72882-2.14595-2.37774-.375-3.96875.9585-.26312 1.6441-2.24986 1.625-2.84375.21431-2.01991-.15411-3.88302.0625-5.9375.10937-1.84697-.29475-3.5302-1.40625-4.15625-.79606-.78262-.35897-1.77403.0937-2.3125.89367-1.27404 1.69804-1.01097 2.59375-.1875 1.16294-.0485.34063 3.95708 1.9375 2.3125.40973-1.33614-1.85308-2.91726-1.96875-4.28125-.5519-1.11887-.51661-.93863-.875-2.3125-.83819-.63792-.99864-1.86737-1.78125-2.84375-.53979-1.16386-1.30672-2.0969-1.78125-3.21875-.74-1.03327-1.35648-1.76673-1.96875-2.6875-.55781-.89331-1.95479-1.42227-2.6875-1.96875.11558-1.84177-.16135-1.49639-.71875-2.84375-.21249-.56494-.26335-.72853-.28125-1.3125-.1028-.96021-1.5032-.49532-.9375.34375.52353.41263-.79712.76291-1.15625.625-.41157.004-1.01523-.23025-1.1875.28125-.32836.10093-.50145-.45675-.6875-.65625-.0869-.90906.39035-.46512.34375-1.375-.1378-.747-1.24789-2.48647-1.75-2.96875-.11921-.51745 1.6566-.49874 1.625 0-.0937.33766.27012.46626.40625.78125.0563.45603.3315.86212.71875.59375.26852-.30147-.0919-.86446.25-1 .94281-.37365 1.17857-.6488 2.25.84375.10687.60943 1.08258.39902 1.875 1.375.0838-.007.0518-.51545.125-.53125.14106-.14427.22621-.32234.21875-.59375.003-1.28587-1.54133-3.34941-1.28125-2.5-.6117.74349-1.17938.46229-1.46875-.59375-.93582-1.96809-2.50047.41303-2.90625-1.8125 4.21947-.34074 1.13211-4.04385 1.5-7.09375-.74335-4.68174-.71015-1.75126-2.5625-7.21875-.65345-.82244-2.47784-3.84367-3.1875-4.875l.53125.3125 4.1875 2.96875.0937-.5625-3.125-2.21875 1.15625-.1875-5.4375-2.9375.40625 1.0625c-.0845-.0723-.1625-.15513-.25-.21875-1.80475-.44517 1.52699 2.81552-2.65625.8125-1.995-.0282-5.49244-.48172-7.15625-1-.76458-.93324-5.18915-3.13414-5.78125-4.125-.87223-1.56535.0197-2.49704-.40625-3.8125-.70455-.34403-3.48454-.69818-3.78125-2.375 1.10093-1.50353-.90756-.58071-.84375-1.71875 1.60037-.31456 1.17575-.70655 2.28125-1.09375 1.77663 1.43427 6.33329 3.23435 7.90625 2.34375-1.53896-1.55075-7.3995-5.29582-8.46875-3.90625-4.56735-1.29957-3.40923-.72013-7.53125-4.78125-1.02672-1.01722-3.30322-1.17536-2.65625-2.84375.97923-1.1683-3.22512-.53488-5-2-.77482.35073.0721 1.40193.40625 1.75-.93842-.008-1.02122.89544-2 .28125-1.42462-.13415-2.63442-2.97207-4.03125-2.96875-.0998.00023-.20947-.009-.3125 0zm-39.09375 11.875c-.71436-.051-1.31421.82518-1.75 1.125-.45833.6203-.98513.94199-.96875 1.96875-.62337.83639-.88571 1.20129-1.875 1.25-.74083.10675-1.81331-.13374-2.59375.375-.6723.31979-1.32414.51611-2.0625.65625-.36519.19534-.597.32314-.59375 1 .25537.67214-.71868 1.14772-.8125.71875-.22114-.42501-.47663-.89447-1.21875-.96875-.62063.23465-.81428.75925-1.40625.875-.42641-.0122-.2958.46373-.65625.5-.39416.50318-1.37152.0483-1.96875.3125-.72052-.0257-1.4713-.21512-1.9375.28125-.42597.30882-1.16339.52728-1.6875.78125-.50939.28278-1.14098.53345-1.6875.84375-.75867.4718-1.62557 1.09097-2.3125 1.53125-.35005.47656-.67589 1.03452-.9375 1.59375-.49907.12125-1.12144.51582-.875 1.15625-.0615.72267-.12292 1.46969-.8125 1.71875-.63982.42247-.91006 1.24102-.3125 1.6875.93014.44287 1.9619.15131 2.90625-.15625.75207-.14742 1.06728-.86188 1.96875-.5.80081.15331 1.61783.37097 2.1875-.0937.54333-.63411 1.78832-.33154 2.15625.21875.12809.48462.50758.99894 1.125 1.15625.99048.0661 1.89552.50286 2.71875.0937.63619.0864 1.32657.50443 1.59375.8125.64858.8061 1.55544 1.3428 2.65625 1.5.77427.29463 2.15791.55191 2.8125.25-.33535-.34229.5502-.52645.625-.8125.54628-.1731 1.3084-.2022 1.6875-.78125.50434-.51055 1.37452-.7662 2.15625-.84375.80235-.1141 1.37227-.65637 1.6875-1.09375.56358-.6546 1.32372-.73259 1.96875-1.03125.42345-.21697 1.34949-.88567 1.75-1.1875.82003-.21405 1.2414-.72351 1.875-1.0625.54079-.54091.8496-.79353 1.65625-1 .72962-.19006 1.31461-.32379 1.84375-.59375.43625-.41923 1.22785-.33995 1.625-1.09375.78499-1.1119-.61845-1.59123-.125-2.75.29719-.97085.2007-2.06992-.375-2.40625-.48398-.4157-.75077-.69287-1.28125-1.0625-.2655-.27444-.47795-.59831-.75-.96875-.0879-.0271-.1753-.036-.25-.0625.0282-.0316.0218-.0682.0312-.0937-.0636-.06-.13483-.11495-.1875-.1875-.23505-.10874-.59746-.207-.5625-.53125-.73396-.60532-.71882-.50776-1.65625-.78125-.58506.0635-1.4314-.47615-2.09375-1-.54047-.0578-1.00538-.19921-1.03125-.8125-.0181-.032-.0462-.0607-.0625-.0937-.32831-.19439-.71182-.32463-1.125-.4375-.23922.25777-.58404.46089-.75.0625-.10794-.0496-.21045-.0552-.3125-.0625zm28.21875 15.5c-.036-.007-.0616-.006-.15625.0312.01.27305-.28861.43815-.4375.5625-.27036.17604-.0839.63077 0 .90625.17508-.0376.35663.0469.53125 0 .13156-.25201.47207-.0133.625-.1875-.0531-.30435.103-.70493-.0625-.9375-.12501-.10395.0145-.48003-.3125-.375-.11606.0238-.15148.007-.1875 0zm-12.75 1.25c-.0409.0291-.11291.0363-.1875.0625-.15515.12424-.22605.55571-.5.4375-.25625.35264-.28613.31592-.59375.625.043.5661.088.85534.21875 1.34375.33988.39004.38293.82851.34375 1.375-.0455.6018.31509 1.02049.71875 1.375.1847.1917.79874.24899.8125.21875-.14821-.0771.44973-.39542.40625-.6875.0803-.40581.30485-.78749.5-1.1875-.0909-.26243.10403-.87683.21875-.875.23372-.39545.48924-.93601.375-1.46875.23978-.67449-.3551-.95299-.9375-.8125-.3296-.0133.2362-.025-.1875 0-.26127-.27773-.891-.0929-1.1875-.40625zm8.1875.625c-.0771-.002-.16075.0276-.1875.0937-.1121.0529-.1667.12167-.125.25-.0273.23714-.27271.36505-.375.5625.16435.0576.30308.1344.46875.1875.33698.1079.71609.0575 1.0625.0625.0791.00075.14304.0168.21875.0312.0956.0131.24155-.20324.28125-.0625.005-.003.004-.1786 0-.25-.001-.15917-.0159-.30994 0-.46875.0243-.11024-.0322-.314-.1875-.25-.059-.0391-.12344-.18995-.25-.15625-.22496.016-.46203.006-.6875 0-.0629.0109-.14167.002-.21875 0zm63.75 1.84375c-.25223.009-.51351-.007-.75.0312.42544.41145 1.11363 1.82876 1.875 3.125 5.46154 10.81838 1.66319 13.90047 3.03125 14 .066 1.04935.6301 2.62267 1.40625 2.75.72029.89809 1.14605-.28957.65625-1.5-.39611-.97888.52336-1.72886.0937-2.375-.65907-.54784-.63289-3.94387-1.09375-6.625-.006-.0127-.0252-.0186-.0312-.0312-1.56104-3.2359-3.27447-6.36184-5.1875-9.375zm-156.625.75c-.15193.03-.30169.10967-.40625.21875-.0111-.00038-.0202.00019-.0312 0-1.63255 2.64364-3.13477 5.37612-4.5 8.1875.4578-.006.58581-1.26634 1.375-.875.57556-.13266 1.48115-.27025 1.40625-1.09375.38198-.0132.29621-.15119.34375-.34375.18458-.12025.2716-.6237.71875-.625-.0563-.48432.84231-.58546.78125-1 .43972-.54103.18411-1.46622.71875-1.9375.1593-.68579 1.6185-1.23717.75-2.03125-.13924-.34651-.70047-.59013-1.15625-.5zm102.40625.40625c-.16573.003-.41049.20904-.65625.4375-1.07288.74752-.79386.068-1.4375.53125-.35256-.15271-.27298.52952-.5625.6875.13054.43508-.47116.20922-.375.65625-.19295-.007.0252.33092-.3125.25-.18913.23104-.16035.65771-.46875.90625-.29593.33997-.23176.62555-.59375.875-.0499.44465-.49802.70737-.625 1.21875-.0154.50097-.10251.99525.25 1.34375.00042.45092-.40185.75451-.25 1.28125-.0491.43852-.0289.92637.21875 1.21875.53017.57489.45712 1.25094.6875 1.78125.42484-.085 1.05769-.344 1.375-.65625-.1731-2.25893.47019-1.41346.21875-3.65625.0472-.29642-.24756-.4008-.0937-.75-.28119-.3748-.16355-.81892.15625-1.125.24584-.27016.70696-.4091.71875-.75.12432-.11448.14788-.25404.28125-.4375.2041-.34455.46699-.52069.59375-.625.1718-.19039.25569-.19494.5-.625.0857-.37591.88289-1.59865.8125-2.03125-.0826.0292-.24817-.35443-.3125-.46875-.0316-.0486-.0698-.0635-.125-.0625zm-107.375 8.09375c-.0204.0421-.0422.0829-.0625.125.0315-.0272.0697-.0809.0625-.125zm-1.125 2.34375c-.33079.73521-.65674 1.4735-.96875 2.21875.17602-.40732.46388-.75816.6875-1.125.31173-.28098.29816-.68461.28125-1.09375zm1.96875.40625c-.26145-.016-.73869.38754-1.03125.65625-.6511.28415-.62053 1.10206-.8125 1.65625-.48037.21197-1.37268 1.26455-1.25.125.009-.15268.049-.30001.0937-.4375-.69207 1.66305-1.34129 3.35208-1.9375 5.0625.20623.0498.39979.0527.46875-.1875.32031-.22903.33594-.42574.40625-.8125.19944-.005-.0486-.75077.46875-.5.0933-.78228 1.20197-1.14738 1.40625-1.875.44691-.50378 1.0222-.71693 1.625-1.03125.34956-.73881.22992-1.42085.71875-2.0625.0733-.41365.00062-.58415-.15625-.59375zm57.65625 34.625c-.12658-.0258-.195.0103-.21875.28125-.1034.1811-.63218 1.2269-.1875 1.59375.23486.45097-1.09886.3846-1.4375.5-.31161.0652-.3705.94426-.4375 1.3125-.55066.18023-.2933.70451-.375 1.125-.10863.59739.18021.9194.6875 1 .37211.20854.51205-.006.9375.125.2725-.4669.69946-1.32016.53125-1.8125.001-.56145-.122-.22377-.125-.78125-.0282-.42606-.017-.92414.375-1.1875.0874-.46076-.003-.42694.46875-.3125.48438.0238.56084-.94588.75-1.40625.15449-.50901-.0143-.47225-.46875-.40625-.20205.0779-.37342-.005-.5-.0312zm49.78125 1.34375c.59268.0854 1.0632.36348 1.5625.65625.55836-.0361.577.55576.625 1-.0814.43544-.0002 1.38236-.6875 1.21875-.63087.0756-.49116-1.06772-1.25-.65625-.58999.10737-1.01116.489-1.34375.9375-.85031.25083.19991.57662.34375 1 .37811.43835.48211 1.01762.90625 1.40625.0231-.001.0352.004.0625 0 .12398.0297.24823.0766.375.0937.75103-.24831 1.01187.45133.6875 1.03125-.44481.27638-.77911 1.02763-.15625 1.3125.54291.3625 1.26317.29829 1.78125.65625.3381.29647.71555.55681.9375 1.03125.13218.55426-.1366 1.14577-.46875 1.5625-.41194.39305-.77991.88388-.5 1.46875.2132.56828.85304.66602 1.25 1.09375.69019.38129.11627 1.06928-.0625 1.59375-.40327.005-.80686-.047-1.1875.21875-.56484-.1426-1.10724-.1449-1.6875-.0625-.69712-.0638-1.06324-.47023-1.34375-1.0625.0424-.6524-.7137-1.11333-.6875-1.75-.03-.68371-.61443-1.0773-.9375-1.59375-.34413-.36605-.5173-.89906-.8125-1.28125-.10416-.12772-.33146-.71152-.59375-1.0625-.49498-.14548-.58048-.85019-1-1.125-.15244-.61036-1.05934-.66276-.875-1.40625.12012-.42429.2148-.91436.4375-1.34375.0994-.70568.45539-1.37813.5625-2.09375.009-.59064.25019-1.14932.53125-1.65625.63235-.15934 1.33651-.0458 1.90625-.375.78562.13364.97269-.758 1.625-.8125zm-68.0625.75c-.89656.0481-1.98038.2981-2.625.0937-1.52143.20373-3.27692-.15833-4.53125.3125-1.01277.59375-1.35133 1.65866-2.25 2.1875-1.10769.55898-2.64335.65873-3.5625 1.40625-.71474.84196-3.22171.10224-4.375.59375.2596-.11221-1.41525.64305-1.71875 1.25-.43901.75146-2.4743 2.02273-2.78125 2.90625.21693 1.03469-.98747 2.05632-2.65625 4.34375-.57073.83349-.74727.68168-1.46875 1.4375-.79749.67126-.72068 2.28948-1.125 3.40625-.0146 1.51667-.46462 2.53017.1875 3.40625.15836 1.25142.42477 1.90489.21875 3.625-.3829.63813-.0159 2.28719-.0312 3.6875-.25179 1.94744.71034 3.28031 1.46875 4.0625 1.75721 2.19457 1.28417 2.87355 2.8125 5.40625 1.14613.26188.49962 1.22616 2.15625 1.59375 1.43717.2295 2.20925 1.12408 3.375 1.625.98471.51414 2.36315.9469 3.40625 1.59375 1.0464.38217 1.66399 1.18869 2.5 1.78125.48554.81729 1.6091.61547 2.1875 1.4375.18658.82261.99784 1.57654 1.5625 2.5.54223 1.00838 1.30426 1.60253 1.78125 2.84375 1.45569 1.54047 1.69022 2.2287 2.5 3.59375.60969.60166.94671 1.4605 1.25 2.3125.75381.79381 1.24782 1.82956 1.59375 3.03125-.16623.0714.84034 1.86879 1.09375 2.6875.6288.91882 1.31725 1.76013 1.59375 3.03125 1.00079 1.05916-.10043 2.90204-.34375 3.84375.26945 1.58038-.16153 3.83815.6875 4.71875.40175 1.14588.63151 2.47712 1.4375 3.21875.2338 1.19477.8401 2.01258 1.78125 2.5.65391.86302 1.46746 1.59774 1.96875 2.6875.92993 1.12194 1.02155 2.11579 1.78125 1.96875 1.09374 1.35982.3947 1.61212 1.96875 1.96875.46205.6747 1.21784 1.02781 1.8125 1.5625 2.17177.72892 4.3847 1.36858 6.625 1.9375.0908.0222.19343.0376.28125.0625.10558.0265.20678.0676.3125.0937.59441.14672 1.18238.30232 1.78125.4375.84961-.0243 1.45534.18586 2.0625.40625.54913.11082 1.10364.2427 1.65625.34375.14927-.002.30121-.0109.46875-.0312 1.72497-.11924 2.78403-.90301 4.28125-1.25.92261-.51246 1.7684-.75971 2.5-1.78125.91247-.45658 1.21383-1.54212 2.15625-1.96875 1.07762-1.99305 1.74985-1.2553 3.59375-1.3125 1.49015-.0454 4.3323-1.67642 6.0625-2.0625.87268-.92251.62077-1.91794.6875-3.25.36613-1.53104.4989-1.76772.0937-2.3125-.95373-.3062-.38772-2.83701.28125-3.03125.47107-.89797 1.42559-1.29911 1.78125-2.3125.7196-1.13632 1.89068-1.13902 2.6875-1.78125.16039-1.27023 1.64048-1.2414 2.5-1.8125 1.59613.2057 2.26345-.52072 3.375-1.0625.96369-.56279 2.20171-.97798 3.03125-1.78125.42103-.94731.78381-1.93535 1.625-2.5.54883-.74703 1.22407-1.45347 1.78125-2.3125.60225-.63493 1.1766-1.98796 1.25-1.78125 1.26426-.81907 1.21284-1.65918 2.09375-2.28125.82745-1.41536 1.1379-2.24442 1.34375-2.875-.50795-1.0292-1.30295-.66278-2.1875-.53125-1.82.38692-2.06825.76211-3.21875 1.21875-1.09657.77795-2.40521.0331-3.75.15625-2.92985.5108-2.54868-.59877-3.125-1.0625-.66768-.53724-.9896-.89968-1.75-1.53125-.0671-1.62933-.99318-2.61396-2.09375-3.65625.37466-1.77399-.63817-2.15-.53125-3.65625.23436-1.21983-1.1501-2.2473-1.25-4-.37494-1.23144-2.4563-1.36329-3.03125-2.5-.72284-.53073-1.37153-2.16356-1.96875-3.21875-1.14434-1.03312-2.51049-2.88009-4.09375-3.5625-1.28086-1.01442-2.92926-.88284-2.6875-3.21875-.0966-2.01681-.44934-3.08801.53125-4.46875.50799-.84286.69993-2.32309 2.3125-2.15625 1.41612-.77938.87856 2.01678 2.34375 1.78125 1.8565-.66799 3.6342.10595 3.5625-1.59375.55129-.86901 2.34457-.95089 3.03125-1.25-.31843-1.74261-2.36796-3.55798-3.75-4.28125h-6.96875c-1.17287-.36578-3.48961-1.02188-4.3125-1.53125-.633-.56243-2.36597.002-3.1875.46875-.30759 1.33669-2.18145 1.26259-3.375 1.78125-.78597 1.77984-3.00038-.83432-4.65625-1.625-.73314-.66674-1.79025-.7451-3.03125-1.40625-1.85752.38151-1.75629-1.69631-3.21875-1.96875-1.0934-.1901-2.85745-1.10907-1.25-1.96875 1.57758-.38886.34321-1.73608.1875-2.875.2018-.88198.84621-2.28035-.53125-2.65625h-2.78125c-1.40893-.0339-2.48944-.42333-2.9375-1.4375-1.79511.14258-1.95545-.2199-3.59375-.1875-.90766-.45209-2.49459-1.1564-2.84375-1.25-1.48825.44301-2.3725-1.04336-2.3125-1.15625.12066-.96912-.60344-1.11059-1.5-1.0625zm77.125 1.15625c.41079-.0552.90495.0674 1 .46875-.15448.4759.21523 1.31613-.21875 1.5625.19621.62245-.52869.82849-.875 1.1875.30032-.48929-.42337-.8564-.6875-.375-.61694-.0326-.58791-.65229-.84375-1.125-.13869-.2941-.6488-.36703-.15625-.65625.42727-.36818.9056-.66704 1.40625-.9375.10784-.0587.23807-.10661.375-.125zm46.25 35.21875c-.0564.006-.10327.0254-.15625.0625.2739.90878.83256 1.10668.96875 1.75.53606 1.06635 1.40294 2.05478 2.34375 2.875.43511-.90024.87471-1.80257 1.28125-2.71875-.58819-.2858-1.17927-.59295-1.78125-.65625-.60805 1.68649-1.80967-1.40896-2.65625-1.3125zm-15.28125 9.78125c.0711 1.0909-.0913 2.19897-.5625 3.1875-.52956 1.05989.56131 1.59826 1.4375 1.59375.67935.33516 1.06039-.43903 1.375-.75-.6467-.48799-.28682-1.36834-.5625-2-.43431-.77167-.77957-1.70819-1.6875-2.03125zm-48.71875 34.625c-.38913.0527-.75982.30588-1.15625.4375-.49146.18366-.94488.44456-1.3125.78125-.50545.28758-.92551.47694-1.40625.71875-.13229.27121-.53257.46721-.875.6875-.49523.2627-.92301.35342-1.4375.6875-.52945-.0214-1.08168.0717-1.59375-.0937-.45242-.13571-1.0653-.11808-1.53125 0-.49399.33805-.36343 1.0071-.625 1.46875-.1715.4998.0108.66032-.28125 1.09375-.49909.30757-1.26798-.22874-1.46875.96875.10336.65078-.17957 2.78178.40625 2.96875.35801.23018 1.04174.53269 2.25.96875.51742.15093.74831.2487 1.3125.3125.54943-.14882 1.32117-.0417 1.96875-.5625.44498-.34836.61231-.69755 1.03125-1.0625.51106-.20519.64598-.69436.9375-1.09375.41003-.33566.2756-.7396.53125-1.09375.15784-.57725.44763-.63898.3125-1.09375.1149-.53521.79435-.83179 1.15625-1.0625.49505-.18579.54277-.3259 1-.59375.44589-.15032.38254-.69195.65625-1.1875.22081-.56745.23865-1.03391.28125-1.59375-.084-.54682.15769-1.19668-.15625-1.65625z" fill="#bc0000" transform="matrix(.68101924 .19546341 -.19546341 .68101927 -226.47878 -182.8764)"/><g stroke="#000"><circle cx="66.146" cy="230.854" fill="none" r="65.602" stroke-linecap="round" stroke-width=".709"/><g fill="#fcd116" stroke-width=".334" transform="matrix(3.1681988 0 0 3.1529979 -265.72588 -460.82461)"><path d="m96.969103 205.55741c25.252627-3.84095 19.851687 28.71417 1.392502 16.95027.227541-.31194.0799-.1487.32041-.46937l-1.031875-1.00198c-.113506.0497-.294481.16113-.452966.27041-.214313-.22278-.566738-.49134-.766498-.75407l-1.218407 1.00701c.149225.20108.566209.62362.726017.8083-.822325.69241-2.881312 2.48126-3.179498 2.91306-1.271323 1.58697 1.12395 3.62903 2.308225 2.32754.465138-.36777 1.717411-2.32622 2.550054-3.53854 2.122488 2.23203 5.013853 3.79042 8.903763 3.71978.87021-.0159 5.96529-.2241 9.22337-5.69119 2.38337-4.00023 1.69757-10.00733-2.57281-14.15468-4.63814-4.50506-11.57367-4.15501-16.202287-2.38654z"/><path d="m102.88704 212.52204 3.19617-3.20516-1.05622-.98531-4.18624-.28893-5.988314 5.5933 3.367352 3.33798 2.881312-2.6797c4.38335 4.55798 12.64021 13.21408 13.30431 13.96471.6641.75088 2.70298-1.0242 2.02353-1.80817-.67945-.78369-10.51242-11.28977-13.5419-13.92872z"/></g><circle cx="127.266" cy="203.647" fill="#66c6ee" r="65.602" stroke-linecap="round" stroke-width="1.055" transform="matrix(.96119275 .27587768 -.27587768 .96119275 0 0)"/></g><path d="m558.09375 354.8125c-27.25441 0-51.77515 11.79039-68.71875 30.53125.13645.0244.26266.0412.40625.0625.92528-.13999 2.12077.31292 2.625-.53125.20236-.26893.8827-.25685.65625-.46875.34974-.57724.72937-.61784 1.15625-1.34375.83359-.56338 1.81415-.53505 2.78125-.71875.88005-.15482 1.40694-.76146 1.9375-.96875.0221-1.32215 1.95092-.94415 2.96875-.96875.16879-.0922.38408-.13377.59375-.15625-.006.0623-.0315.12618-.0312.1875-.17463 1.27626-.54632 2.85968 1.03125 2.78125 1.81432-.24268-.59427 1.84907.90625 1.8125 1.31352-.22686 1.07215 1.02315.6875 1.71875-.32908 1.01346-.9426 1.74423-.28125 2.5625-.18829.94925.66925 2.02511.625 1.6875.90031-.11473.69498-1.98355 1.34375-2.46875.38858-.60009.89523-.99157 1.53125-1.25.68024-.22492 1.08839-.7132 1.5-1.125.72498-.97945 1.26986-.07 1 1.0625-.21316 1.23848-.39718 2.76744-.875 3.71875-1.16624.17402-2.80053-.32102-2.96875 1.21875-.33761 1.35646-.15911 3.22459-1.46875 3.90625-1.04796 1.21986-.26154 1.08751.6875.75.87469-.28441 1.41088-.32498 1.875-.96875.47991-.91751.84038-2.08744 1.46875-2.5625.34523-.22685 1.28637-.61579 1.46875-.65625-.0209.0145-.0233.0591-.0937.0937.62-.11682 1.70116.24389 1.125-.46875-1.06263.10546-.55215-.43438.0937-.375.72537.11021.65167-.95717 1.21875-1.15625.47895-.47177.89463-.73591.78125-1.53125-.075-.16278-.137-.38748-.15625-.46875.0301.0467.10051.16512.1875.34375.18589.39048 1.2483 1.07362 1.21875.0625.1812-1.02412.99325-1.34918 1.375-2.125.4452-.4056.68399-.93373 1.21875-1.25.36804-.69446.63083.56407 1.0625.0625.48183-.28931.77075-.86028 1.4375-1.09375.5432-.55805.93487-1.01705 1.53125-1.3125.31745-.22199 1.00077-.35908 1.15625-.84375-.0122-.40036-1.22887-.20352-1.46875-.625-.42464-.34416-.0541-.77225.21875-1 .73688-.44446.97643-.78467 1.90625-.875.78408.006 1.82854-.11991 1.875-1.09375.35847-.46127 1.17841-.40584 1.625-.9375.27442-.28049.91685-.54385.71875-1.15625.16402-.56369.86092-.70141 1.0625-1.34375-.44221-.30219-.99904-.61228-1.5625-.34375-.82688-.27905-1.10841.25205-1.90625-.0312-.9265-.33783-1.11421.38835-1.875.5-.53912.21098-1.04732.73465-1.75.65625-.57873.12802-1.12552-.0802-1.125-.5625-.0649-.29766-.53706-.66769-.8125-.28125-.66849.67343-1.88096.27045-2.53125.6875-.67813-.11496-.5129-1.01364.15625-1.03125.61827-.3083 1.35158-.54416 1.78125-.875.84458-.13571 1.02795-.91872 2.03125-.625 1.11069.22788 1.42076-.84682 2.03125-1.375.44324-.82513 1.17914-.9359 1.84375-1.4375.62418-.30178 1.36819-.58616 1.90625-.9375.7249-.24722.97308-.81731 1.46875-1.1875.87892.13974 1.50489-.18638 2.34375-.375.38536-.91921 1.7722-.63457 2.5625-.25.32872.37165.66709 1.00145.90625 1.5625.45633.43242.30141.17886.28125.875.006.55942.4744.75396.71875 1.28125-.40415.31378-1.28565.0724-1.625-.34375-.2566-.22385-.72637-.49713-.9375.0625-.52097.41235-.4825 1.12449-.875 1.46875-.0878.33814-.81928 1.24238.0312 1.25.8936.1759 1.12658-.79261 1.78125-.8125.3986-.30138 1.16759-.42347 1.6875-.28125.15191.53567-.0148 1.14851.90625 1.125.76865.40447 1.5839.105 2.28125.4375.7026.3289-.0556 1.14864-.4375 1.375-.56247.349-.99347.72153-1.6875.96875-.70394.58016-1.88824.63575-2.84375.375-.21927-.65037-.36533-1.47238-.96875-1.90625-.0944-.35779-1.10308-.55861-1.25-.0625-.33402.29129-.23911.98066-.6875 1.125-.53135.72704-1.00435.88238-1.6875 1.40625-.52339.36333-1.20871.85591-1.625 1.34375-.30238.16722-.33798.52891-.3125.28125-.43446.39079-1.09526.48451-1.59375 1.0625-.50376.14302-.76437.63505-.34375.84375.15583.25494.81026.51348 1.125.3125-.0566.25075 1.43297.37254 1.65625.15625.53561-.21132.96581-.66903 1.5-.90625.70571-.17938 1.38248-.4657 2.03125-.65625.50006-.33419-.27909.66617-.53125.59375-.61343.21737-.96132.64201-1.5.875-.16652.62139 1.09132.65241 1.71875.78125.78889.2946 1.30309-.0892 1.625-.71875.43184-.27908 1.04299-.76862 1.375-1.125.72127-.4541 1.15655-1.0568 1.9375-.96875 1.07706.29883 1.39331-.73663 2.34375-.71875.5881-.23997 1.24734-.73643 1.59375-1.25.42081-.41972 1.2095-.41002 1.84375-.8125.68482-.39363 1.40416-.51492 2.25-.375.52036-.16081.44195-.90842 1-1.25.23623-.39636.35281-1.04601.84375-1.125.63822-.044.0827 1.14432.21875 1.65625.15676.37401 1.0773.62793 1.625.5625.0704-.48411.74706-.9727.75-.0937-.12725.51919.49882.56131.71875.90625.2856.0535.51443.17435.71875.3125.0361.01.0876-.0134.125 0 .0464.0684.0755.13605.125.1875.0539.0454.1053.0786.15625.125.47802.34163 1.03819.16766 1.5.65625.54471.41491 1.49908 1.19188 2.03125 1.625.83953-.11386 1.43695.47569 2.15625.71875.52933.14399 1.13762.11466 1.65625.25.0601-.048.10557-.12826.125-.21875.25076-1.17699.39268-2.62906-.0625-3.46875-.65172-.26251.18387-1.5878-.59375-1.9375-.23205-.59885-.99154-.87244-1.65625-1.25-.26806-.41055.96451-.44674 1.3125-.6875.97201-.22239-.60902-.81376-1-1.0625-.84498-.64691-1.41688.64464-2.25-.0312.60996-.16529.73473-.98728 1.1875-1.53125.75376-1.1611 1.90909.367 2.8125.375.42537-.71751.89401-1.29757 1.125-2.1875-.50116-1.04141-1.50386-.0345-2.53125-.4375-.57379-.69414-1.27484.13744-2-.15625-.45751-.4725 1.28035-.47442 1.84375-.625.98948.32272 3.10707-.34584 2-1.3125-1.06634-.0161-.51793-1.17566-1.34375-1.375-.98137-.26276-1.58122.0632-2.3125.3125-.58401.39362-1.99131.0625-2.03125-.15625 1.20129-.67462 2.80538-.21275 4.21875-.65625.97025-.0438 2.66954.24124 3.53125.0937 2.82442.0827 3.88877-.47258 5.46875-.71875 1.83362.34309 2.71934.0979 5.125 1 .42536.10616.90023.24956 1.375.34375.01.002.0214-.002.0312 0 .60389.6098 1.00314 1.58669 2.3125 1.8125 1.27867.5739 2.2282 1.07704 3.65625 1.40625 1.92708.89872 3.86763-.0168 5.4375-.25 1.16278-.39342 2.55622-.71687 3.40625-1.28125.0447-.061.0628-.1441.0937-.21875-.294.0795-.81263.15142-.5625-.125.18062.12974.75968.0895.3125-.0937-.4333-.14098-1.02714.15889-1.1875-.28125-.45634.005-.89472-.10045-1.25-.40625-.27819-.11443-.50417-.40019-.0625-.4375.49608.1291.98172.11527 1.40625-.21875.37655-.27535.83845-.28715 1.28125-.21875.13395.0119.27197.004.40625 0 .0547-.18896.12318-.35192.25-.46875-.36356-.10175-.61055-.45688-1-.5-.52982-.29657-1.14583-.39498-1.6875-.5625-.61536-.0176.28515-.35188.5-.28125 1.08893.0256 2.16011.0346 3.25.0312.34395-.24391.88784-.50908 1.84375-.84375.95332-.33377-4.32293-1.46359-5.375-1.9375-.85555-1.17233-2.68023-.852-4.28125-1-1.96452-.98722-3.92664-.0376-6.09375-.3125-.35123-.70701-2.25727-1.11303-2.40625-.46875-.71735.16932-1.66813.4443-1.71875.40625-2.27997-.32555-2.53085.52139-3.6875.0312-.0927-.92041-1.95042-.72252-2.28125-1.3125-.3173-.31252-.78233-.34031-1.09375-.8125.85843-.0626-1.04695-.64281-1.125-.90625.0492-.72161-1.19913-.51951-1.21875-1.15625-.15262-.0899-.30314-.17522-.46875-.25-.0104-.00032-.0208.00032-.0312 0-.96023-.0295-1.90762-.0625-2.875-.0625zm29.90625 11.9375c-.10303.009-.19941.0344-.3125.0625-.27212.21293 1.2128.45752.71875 2.15625 1.80248.60822-.64492 1.4599.6875 2.3125.77059.71751 1.69515 1.28551 2.5 1.96875 1.56122.24451 1.93016 1.30636 2.6875 2.5 1.07886 1.49727.87624-1.73719 1.625.96875-.0135.64001-.17831 2.78622.875 2.96875.29534 2.17319-1.09125 4.11557-.34375 6.0625 1.46764.96129.50269-2.14251 1.25-2.5-.15257-2.12239 1.07662.85497.875 2.09375.2272.66883-.45474 1.46004-1.25 2.03125-.55927 2.03827.38181 3.97064.71875 5.6875-2.17109-.40705.51413 2.2183-.875 3.40625-.30379 1.02327-1.28925 2.68773-1.4375 2.84375-1.40039.97955-.1418.41176-1.25.90625.011.0875.016.16881.0312.25-.0306-.0211-.10896-.0426-.125-.0625-.96336.81499-1.37257 1.35552-1.875 1.96875-.39621.70402-2.8664 1.63828-3.03125 2.3125-1.56842.10203-3.18925.15782-4.125.71875-.46859-.0525-.65897 2.0272 0 2.3125.57781.62687-.0247 2.41561-1.25 2.3125-.7768.51335-1.04635 1.25622-2 1.4375-1.4606-.0289-3.00102 1.94685-3.5 1.96875s-1.70435.18537-1.28125-.3125c.36288-.42696 1.12292-.93887.6875-.875-.43542.0639-1.47455-.57288-1.15625-.25.20865.31125-.65256.3526-.8125 1.625-.81528.1718-.74022-.43871-1.65625-.1875.10821.55989-.73051.9197-1.5625.875-.34045 1.46214.60545.6154.59375 2.15625-.23682 1.1427-.0991 1.68831-1.5625 1.15625-.0564 1.01762-1.0558.8518-1.75.5-.6942-.35179-1.36316-.91396-1.90625-1.46875-.54309-.5548-.95497-1.105-1.09375-1.5 3.87367 2.6319 5.44803 1.03698 4.34375-.125.0404-.33132-2.29475-1.12056-2.15625-2.46875-.44042-.88093-.88426-.41057-1.59375-1.28125-.5518-.86147-.71564-1.61797-1.25-2.125-.36517-1.13348-1.47404-.62375-2.78125-.71875-1.10658.38152-1.74504.42311-2.59375 1.0625-1.07298.43501-2.01515 1.1209-3.375 1.0625-.42134.71283-1.59395 1.07665-2.34375 1.4375-.51046.21091-2.4148 2.12048-3.40625 2.3125-.75396 1.41745-1.7803-.22918-2.65625.71875-.88604.22005-1.74686.73857-2.125 1.4375-.81279.54766-1.99783.62034-2.5 1.4375-.72094.28218-1.46499 2.89734-1.5625 3.75-.36195.86502.86556 1.17865 1.6875 1.15625 1.17029-.50014 1.90669-.51898 2.71875-.8125-.28012 1.72936-.0588 2.73495-.375 4.9375.0371.62882.91697.79684 1.5625.53125.63975-.2632 1.33162.0585 2.09375-.4375.51979-1.56115 1.74769-2.63698 3.375-3.34375-.71536-1.59873.48692-2.80379 2.09375-4.1875-.3272-1.03871 1.39563-1.15667 1.96875-2.3125 1.27836-1.44728 1.38003.34786.96875.71875-.93579.3753-1.94718 2.14088-2.09375 2.8125-.74806.34762.0428 1.48167-.65625 3.875-1.21374 2.85102.76869 1.05098 1.0625 2.375.15438.69568-1.06486 1.02444-1.90625.21875-1.39325-.18791-1.48877.9309-2.1875 1.4375.27821 1.33563-2.47219 1.45669-2.34375 1.0625-.3751-.5057-2.371-.62264-2.5.1875-1.19699-.002-1.67597.18268-2.65625-.1875-.40365-.82466-2.37078.6402-1.9375-.65625.21783-.17327.37565-.38218.5-.625.22297-.18104.45551-.36442.6875-.53125.0662-.32794-.53613-.22058.21875-.4375.23679.60612.5501.51187.96875-.15625-.14854-.50143-.95758-.2522-1.5-.28125.0752-.61979.0929-1.26696.1875-1.84375.0226-.0391.0466-.083.0625-.125.0363-.0955.0947-.20095.15625-.28125.0574-.0781.1019-.0996.1875-.15625.10567-.0605.2068-.16314.25-.28125.0305-.0974.0575-.2378-.0312-.3125-.11229-.0612-.2319.0471-.3125.125-.0849.10513-.20033.17893-.3125.25-1.24326-1.10048-1.69795.92115-1.6875 2.09375-1.29413.29022-.79696 1.4021-1.28125 1.53125-.93431.4969-3.17309-.71054-4.46875-1.3125-2.11387.98669-1.5113 1.42258-3.875 1.4375-1.8722-.87065-1.98208.19771-3.4375.59375-1.04425.32294-3.79629-.20673-4.8125 0-.5771.93541-1.97964.0668-3.3125.625-.75371.4117.87049.88384 1.25 1.40625.54601.92544 2.08733 3.32435 1.3125 4.59375-.95696.85851-2.64623-.23845-3.8125-.125-.71093.92686-3.69287-1.42507-4.78125-.875-.947.27323-.7119 2.75537-1.65625 3.03125-.87418.29291-1.66193 2.74706-1 2.65625.5963-.12124-.25883 1.70764-.34375 2.5625-.18632.72206 1.3811 1.60065 2.09375 2.09375.90976.26882.49042 1.88867.96875 1.625.98876-.41841 3.24694.0232 3.96875-.125.22245-.31714 1.16298-.67084 1.8125-1.3125.69472-.62225.19451-1.16709 1.78125-1.8125.73243-.45501 2.27276-.664 2.6875.1875.74222.0729.97398.00077 1.59375-.71875-.0215-.39961 1.03884-1.25045 1.09375-1.40625.90656.13727 1.49717.76721 2.3125 1.0625 1.43852.61927 1.92793-.8167 3.46875-.90625.0862.25805.80305.87416.8125 1.09375.37937.58447-.17924.96251.0937 1.59375.24192.69626.41995 1.39716.46875 2.125.0685.66692.42407 1.24769.6875 1.84375.38129.55335.64325.83645 1.03125 1.28125.28759.31344.45222 1.02945.96875 1.3125.54332.26276.43191 1.08407.96875 1.5.45901.39595.52859 1.15242-.0625 1.3125-.0448.49418-.96175.68189-.96875 1.0625-.34898-.10955-.64127-.74725-1.125-.71875-.66235.17299-2.47111-.66889-2.71875.1875-.0525.37195.86785.55781.84375 1.75.28673.27176 1.19613.50473 1.46875.15625.51873-.30044 1.35178-.87992 1.8125-1.25.25273.2009.045.2864.4375.1875.58585.0263 1.13605-.79921 1.53125-.96875.3252-.48337-.11687-1.06436.40625-1.21875.86422-.45097.889.8788.9375 1.25.76864-.0131.61567-.20911.5-.9375.001-.60178-.3663-.9978-.4375-1.59375-.10058-.77516-.87908-1.53776-1.25-2-.4078-.68734-.60672-1.17209-.9375-2.125-.46675-.87697-.9707-1.44302-.9375-2.25-.0113-.88218-.0855-1.86388.1875-2.4375.26318-.52043 1.57393-.14359 1.78125-.53125.15665-.051.29151-.0609.34375.0937.0298.15355.12401.21194.21875.28125.0474.0346.0931.0726.125.125.0126.0198.0186.0423.0312.0625.0161.0439.0349.0892.0312.15625-.14332.67877.14592.91663.15625 1.4375.0784.25476-.17089.84808.1875.8125-.0683.33326.44375.0935.4375.34375.17012.32439.30414.5935.3125 1.09375.34191-.0231.17671.48562.5.5-.11055.20532.0593.38693.1875.46875.20158.23783.42847.30255.4375.625.34848-.11198.25408.29688.625.21875.0261.28816.46243.2065.34375.65625.26199.0571.4206.24768.375.625.0264.32665-.0611.72561.0312 1-.003.01.003.0215 0 .0312.0714.63201-.78717.85925-.375 1.8125.41084 1.30127.39932.57339.21875 1.59375-.20011.561-.44122 1.06434-.5 1.78125-.6507.44923.94374.94387 1.46875.0937.57854-.90194 1.03291.46143 1.21875.125-.20712-.4975-.3016-1.20105 0-1.5625-.0543-.73961.0479-.79865-.0312-1.5625.32618-.66663.55476-1.016 1.1875-1.28125.22892-.45069 1.17189-.69764 1.84375-.875.24104-.3747 1.00343-.22459 1.59375-.25.69604.0464.89575-.60063 1.3125-.625.32504-.60162 1.14563-.5217 1.90625-.90625.46576-.16416 1.62425.36711 1.5-.375.67448-.30581.41615.1214.875-.3125.17464-.57515.6261-1.16493.78125-1.1875.5207-.50648 1.71165.23173 2.46875-.6875.93482-.15503.42486.33205-.21875 1.25-.26408.30437.74979 1.40028 1.34375 1.28125.75998-.0938-.94706 1.32406.8125.65625.37087-.0787 1.24258-.0546 1-.34375-.009-.004.004-.0276 0-.0312.29396-.0812 2.2614-.10954 1.84375-.75-.72705-.11155-1.47735-.56405-1.6875-.875-.25093-.74482 3.47093-1.55433 3.90625-1.34375.67414-.0788-1.00229 1.5022-1.6875 2.21875.15312.87388 1.25001 1.25757 1.21875 1.53125.66736.42519.63616 1.20714 1.21875 1.5.26381.49381.63932.88431.875 1.40625-.0227.55475.0817 1.22295-.125 1.59375-.0202.59834.0775 1.25841-.125 1.78125.23288.81327-.37116.78395-.625 1.09375-.24074.44261-.11485 1.18112-.75 1.21875-.59381.57831-.28649 1.40608.125 1.875.36686.33658.71581 1.60297 1.03125 1.6875.17648.49976.57723.9342.96875 1.28125.009 4.46405-.27321 8.89992-.15625 13.375.0567 2.44888.24661 4.83378.15625 7.34375-.35867 1.21727-.0203 2.77414-.6875 3.75-.73546.73353-.53617 1.41614-.375 2.875.7146 1.70016-.26499 5.93135.53125 8.21875 1.36602.30065 2.54868.38733 3.84375.3125 1.36794.0427 2.57741-.55527 3.375-.78125 1.4422-.75644 2.70003-1.29528 4.21875-2.0625 1.19406-.68558 2.97945-1.15341 3.84375-2.125.80108-1.0984 1.36492-.73653 1.875-1.4375 1.39776-.21633 1.47269-2.09486 2.9375-3.15625.14816-1.98204 2.19447-2.21933 3.125-4.375.86988-1.48764 2.54207-2.30143 3.3125-3.53125 1.65008-2.07523-1.91466-5.49733.25-6.96875.87258-1.71877 1.60151-2.75154 3.0625-4.125 1.01509-1.62517 2.69168-2.37737 3.75-3.75.10131-.10886.22871-.18289.34375-.28125-.013.92659-.0285 1.85539 0 2.78125.34196 1.68774 1.74209 3.82554 2.15625 6.09375.67173 1.21281 1.17436 2.26639 1.9375 3.5625-.20278 2.08208 3.17235 1.87075 3.65625.71875-.54064 3.12879 1.20592 3.87514 1.53125 5.1875 1.00395.54687 1.24734 1.75981 1.96875 2.65625.13228.94384 1.42785 2.24496 2 2.40625l.5 4.375c.51816 1.68422.59354 2.08354 1.875 2.46875 1.60359.67141.70108-2.12539 1.53125-3.15625.36581-1.05618-.0891-2.74052 1.0625-3.21875.39334-.4661-.0111-2.21117.53125-3.40625.35593-1.31074.27856-3.05478 1.4375-3.5625 1.17378-.47515 1.64923-1.34045 2.3125-2.5.94801-.64991.43283-2.88621 1.0625-3.75.85069-1.21219 1.6773-1.9283 1.625-3.9375.18616-1.59956.29807-3.25996 1.0625-4.28125.58014-.87131 3.4128-.47059 4.28125.1875 1.36962 1.57418.74631 2.02598.9375 2.78125.41815 1.51845.93215 2.23523 2.0625 1.21875.41563-.81868 2.04257-.46961 2.21875 1.65625.87258 2.62452-.17179 3.45227 1.4375 4.15625 1.30825 1.77677.67498 1.47117.71875 2.96875-.0624.41897.20508 1.65929.4375 1.875.1984.18413.58043.2851.96875.375.23924-.55177.49001-1.09897.71875-1.65625-.24425-.24493-.52137-.5437-.78125-1.1875.21887-3.22454-2.08145-3.798-1.375-6.6875.26474-3.75191.56074-1.33692.53125-3.1875 1.24775-1.41418 1.92502-1.04282 2.84375-1.96875 1.11667-.46203.91971-.66684 2.25-.84375.40529-1.7514.20954-4.11067.0625-6.125-.0971-1.32964-1.74257-2.27563-1.5-3.625-1.25411-.72882-2.14595-2.37774-.375-3.96875.9585-.26312 1.6441-2.24986 1.625-2.84375.21431-2.01991-.15411-3.88302.0625-5.9375.10937-1.84697-.29475-3.5302-1.40625-4.15625-.79606-.78262-.35897-1.77403.0937-2.3125.89367-1.27404 1.69804-1.01097 2.59375-.1875 1.16294-.0485.34063 3.95708 1.9375 2.3125.40973-1.33614-1.85308-2.91726-1.96875-4.28125-.5519-1.11887-.51661-.93863-.875-2.3125-.83819-.63792-.99864-1.86737-1.78125-2.84375-.53979-1.16386-1.30672-2.0969-1.78125-3.21875-.74-1.03327-1.35648-1.76673-1.96875-2.6875-.55781-.89331-1.95479-1.42227-2.6875-1.96875.11558-1.84177-.16135-1.49639-.71875-2.84375-.21249-.56494-.26335-.72853-.28125-1.3125-.1028-.96021-1.5032-.49532-.9375.34375.52353.41263-.79712.76291-1.15625.625-.41157.004-1.01523-.23025-1.1875.28125-.32836.10093-.50145-.45675-.6875-.65625-.0869-.90906.39035-.46512.34375-1.375-.1378-.747-1.24789-2.48647-1.75-2.96875-.11921-.51745 1.6566-.49874 1.625 0-.0937.33766.27012.46626.40625.78125.0563.45603.3315.86212.71875.59375.26852-.30147-.0919-.86446.25-1 .94281-.37365 1.17857-.6488 2.25.84375.10687.60943 1.08258.39902 1.875 1.375.0838-.007.0518-.51545.125-.53125.14106-.14427.22621-.32234.21875-.59375.003-1.28587-1.54133-3.34941-1.28125-2.5-.6117.74349-1.17938.46229-1.46875-.59375-.93582-1.96809-2.50047.41303-2.90625-1.8125 4.21947-.34074 1.13211-4.04385 1.5-7.09375-.74335-4.68174-.71015-1.75126-2.5625-7.21875-.65345-.82244-2.47784-3.84367-3.1875-4.875l.53125.3125 4.1875 2.96875.0937-.5625-3.125-2.21875 1.15625-.1875-5.4375-2.9375.40625 1.0625c-.0845-.0723-.1625-.15513-.25-.21875-1.80475-.44517 1.52699 2.81552-2.65625.8125-1.995-.0282-5.49244-.48172-7.15625-1-.76458-.93324-5.18915-3.13414-5.78125-4.125-.87223-1.56535.0197-2.49704-.40625-3.8125-.70455-.34403-3.48454-.69818-3.78125-2.375 1.10093-1.50353-.90756-.58071-.84375-1.71875 1.60037-.31456 1.17575-.70655 2.28125-1.09375 1.77663 1.43427 6.33329 3.23435 7.90625 2.34375-1.53896-1.55075-7.3995-5.29582-8.46875-3.90625-4.56735-1.29957-3.40923-.72013-7.53125-4.78125-1.02672-1.01722-3.30322-1.17536-2.65625-2.84375.97923-1.1683-3.22512-.53488-5-2-.77482.35073.0721 1.40193.40625 1.75-.93842-.008-1.02122.89544-2 .28125-1.42462-.13415-2.63442-2.97207-4.03125-2.96875-.0998.00023-.20947-.009-.3125 0zm-39.09375 11.875c-.71436-.051-1.31421.82518-1.75 1.125-.45833.6203-.98513.94199-.96875 1.96875-.62337.83639-.88571 1.20129-1.875 1.25-.74083.10675-1.81331-.13374-2.59375.375-.6723.31979-1.32414.51611-2.0625.65625-.36519.19534-.597.32314-.59375 1 .25537.67214-.71868 1.14772-.8125.71875-.22114-.42501-.47663-.89447-1.21875-.96875-.62063.23465-.81428.75925-1.40625.875-.42641-.0122-.2958.46373-.65625.5-.39416.50318-1.37152.0483-1.96875.3125-.72052-.0257-1.4713-.21512-1.9375.28125-.42597.30882-1.16339.52728-1.6875.78125-.50939.28278-1.14098.53345-1.6875.84375-.75867.4718-1.62557 1.09097-2.3125 1.53125-.35005.47656-.67589 1.03452-.9375 1.59375-.49907.12125-1.12144.51582-.875 1.15625-.0615.72267-.12292 1.46969-.8125 1.71875-.63982.42247-.91006 1.24102-.3125 1.6875.93014.44287 1.9619.15131 2.90625-.15625.75207-.14742 1.06728-.86188 1.96875-.5.80081.15331 1.61783.37097 2.1875-.0937.54333-.63411 1.78832-.33154 2.15625.21875.12809.48462.50758.99894 1.125 1.15625.99048.0661 1.89552.50286 2.71875.0937.63619.0864 1.32657.50443 1.59375.8125.64858.8061 1.55544 1.3428 2.65625 1.5.77427.29463 2.15791.55191 2.8125.25-.33535-.34229.5502-.52645.625-.8125.54628-.1731 1.3084-.2022 1.6875-.78125.50434-.51055 1.37452-.7662 2.15625-.84375.80235-.1141 1.37227-.65637 1.6875-1.09375.56358-.6546 1.32372-.73259 1.96875-1.03125.42345-.21697 1.34949-.88567 1.75-1.1875.82003-.21405 1.2414-.72351 1.875-1.0625.54079-.54091.8496-.79353 1.65625-1 .72962-.19006 1.31461-.32379 1.84375-.59375.43625-.41923 1.22785-.33995 1.625-1.09375.78499-1.1119-.61845-1.59123-.125-2.75.29719-.97085.2007-2.06992-.375-2.40625-.48398-.4157-.75077-.69287-1.28125-1.0625-.2655-.27444-.47795-.59831-.75-.96875-.0879-.0271-.1753-.036-.25-.0625.0282-.0316.0218-.0682.0312-.0937-.0636-.06-.13483-.11495-.1875-.1875-.23505-.10874-.59746-.207-.5625-.53125-.73396-.60532-.71882-.50776-1.65625-.78125-.58506.0635-1.4314-.47615-2.09375-1-.54047-.0578-1.00538-.19921-1.03125-.8125-.0181-.032-.0462-.0607-.0625-.0937-.32831-.19439-.71182-.32463-1.125-.4375-.23922.25777-.58404.46089-.75.0625-.10794-.0496-.21045-.0552-.3125-.0625zm28.21875 15.5c-.036-.007-.0616-.006-.15625.0312.01.27305-.28861.43815-.4375.5625-.27036.17604-.0839.63077 0 .90625.17508-.0376.35663.0469.53125 0 .13156-.25201.47207-.0133.625-.1875-.0531-.30435.103-.70493-.0625-.9375-.12501-.10395.0145-.48003-.3125-.375-.11606.0238-.15148.007-.1875 0zm-12.75 1.25c-.0409.0291-.11291.0363-.1875.0625-.15515.12424-.22605.55571-.5.4375-.25625.35264-.28613.31592-.59375.625.043.5661.088.85534.21875 1.34375.33988.39004.38293.82851.34375 1.375-.0455.6018.31509 1.02049.71875 1.375.1847.1917.79874.24899.8125.21875-.14821-.0771.44973-.39542.40625-.6875.0803-.40581.30485-.78749.5-1.1875-.0909-.26243.10403-.87683.21875-.875.23372-.39545.48924-.93601.375-1.46875.23978-.67449-.3551-.95299-.9375-.8125-.3296-.0133.2362-.025-.1875 0-.26127-.27773-.891-.0929-1.1875-.40625zm8.1875.625c-.0771-.002-.16075.0276-.1875.0937-.1121.0529-.1667.12167-.125.25-.0273.23714-.27271.36505-.375.5625.16435.0576.30308.1344.46875.1875.33698.1079.71609.0575 1.0625.0625.0791.00075.14304.0168.21875.0312.0956.0131.24155-.20324.28125-.0625.005-.003.004-.1786 0-.25-.001-.15917-.0159-.30994 0-.46875.0243-.11024-.0322-.314-.1875-.25-.059-.0391-.12344-.18995-.25-.15625-.22496.016-.46203.006-.6875 0-.0629.0109-.14167.002-.21875 0zm63.75 1.84375c-.25223.009-.51351-.007-.75.0312.42544.41145 1.11363 1.82876 1.875 3.125 5.46154 10.81838 1.66319 13.90047 3.03125 14 .066 1.04935.6301 2.62267 1.40625 2.75.72029.89809 1.14605-.28957.65625-1.5-.39611-.97888.52336-1.72886.0937-2.375-.65907-.54784-.63289-3.94387-1.09375-6.625-.006-.0127-.0252-.0186-.0312-.0312-1.56104-3.2359-3.27447-6.36184-5.1875-9.375zm-156.625.75c-.15193.03-.30169.10967-.40625.21875-.0111-.00038-.0202.00019-.0312 0-1.63255 2.64364-3.13477 5.37612-4.5 8.1875.4578-.006.58581-1.26634 1.375-.875.57556-.13266 1.48115-.27025 1.40625-1.09375.38198-.0132.29621-.15119.34375-.34375.18458-.12025.2716-.6237.71875-.625-.0563-.48432.84231-.58546.78125-1 .43972-.54103.18411-1.46622.71875-1.9375.1593-.68579 1.6185-1.23717.75-2.03125-.13924-.34651-.70047-.59013-1.15625-.5zm102.40625.40625c-.16573.003-.41049.20904-.65625.4375-1.07288.74752-.79386.068-1.4375.53125-.35256-.15271-.27298.52952-.5625.6875.13054.43508-.47116.20922-.375.65625-.19295-.007.0252.33092-.3125.25-.18913.23104-.16035.65771-.46875.90625-.29593.33997-.23176.62555-.59375.875-.0499.44465-.49802.70737-.625 1.21875-.0154.50097-.10251.99525.25 1.34375.00042.45092-.40185.75451-.25 1.28125-.0491.43852-.0289.92637.21875 1.21875.53017.57489.45712 1.25094.6875 1.78125.42484-.085 1.05769-.344 1.375-.65625-.1731-2.25893.47019-1.41346.21875-3.65625.0472-.29642-.24756-.4008-.0937-.75-.28119-.3748-.16355-.81892.15625-1.125.24584-.27016.70696-.4091.71875-.75.12432-.11448.14788-.25404.28125-.4375.2041-.34455.46699-.52069.59375-.625.1718-.19039.25569-.19494.5-.625.0857-.37591.88289-1.59865.8125-2.03125-.0826.0292-.24817-.35443-.3125-.46875-.0316-.0486-.0698-.0635-.125-.0625zm-107.375 8.09375c-.0204.0421-.0422.0829-.0625.125.0315-.0272.0697-.0809.0625-.125zm-1.125 2.34375c-.33079.73521-.65674 1.4735-.96875 2.21875.17602-.40732.46388-.75816.6875-1.125.31173-.28098.29816-.68461.28125-1.09375zm1.96875.40625c-.26145-.016-.73869.38754-1.03125.65625-.6511.28415-.62053 1.10206-.8125 1.65625-.48037.21197-1.37268 1.26455-1.25.125.009-.15268.049-.30001.0937-.4375-.69207 1.66305-1.34129 3.35208-1.9375 5.0625.20623.0498.39979.0527.46875-.1875.32031-.22903.33594-.42574.40625-.8125.19944-.005-.0486-.75077.46875-.5.0933-.78228 1.20197-1.14738 1.40625-1.875.44691-.50378 1.0222-.71693 1.625-1.03125.34956-.73881.22992-1.42085.71875-2.0625.0733-.41365.00062-.58415-.15625-.59375zm57.65625 34.625c-.12658-.0258-.195.0103-.21875.28125-.1034.1811-.63218 1.2269-.1875 1.59375.23486.45097-1.09886.3846-1.4375.5-.31161.0652-.3705.94426-.4375 1.3125-.55066.18023-.2933.70451-.375 1.125-.10863.59739.18021.9194.6875 1 .37211.20854.51205-.006.9375.125.2725-.4669.69946-1.32016.53125-1.8125.001-.56145-.122-.22377-.125-.78125-.0282-.42606-.017-.92414.375-1.1875.0874-.46076-.003-.42694.46875-.3125.48438.0238.56084-.94588.75-1.40625.15449-.50901-.0143-.47225-.46875-.40625-.20205.0779-.37342-.005-.5-.0312zm49.78125 1.34375c.59268.0854 1.0632.36348 1.5625.65625.55836-.0361.577.55576.625 1-.0814.43544-.0002 1.38236-.6875 1.21875-.63087.0756-.49116-1.06772-1.25-.65625-.58999.10737-1.01116.489-1.34375.9375-.85031.25083.19991.57662.34375 1 .37811.43835.48211 1.01762.90625 1.40625.0231-.001.0352.004.0625 0 .12398.0297.24823.0766.375.0937.75103-.24831 1.01187.45133.6875 1.03125-.44481.27638-.77911 1.02763-.15625 1.3125.54291.3625 1.26317.29829 1.78125.65625.3381.29647.71555.55681.9375 1.03125.13218.55426-.1366 1.14577-.46875 1.5625-.41194.39305-.77991.88388-.5 1.46875.2132.56828.85304.66602 1.25 1.09375.69019.38129.11627 1.06928-.0625 1.59375-.40327.005-.80686-.047-1.1875.21875-.56484-.1426-1.10724-.1449-1.6875-.0625-.69712-.0638-1.06324-.47023-1.34375-1.0625.0424-.6524-.7137-1.11333-.6875-1.75-.03-.68371-.61443-1.0773-.9375-1.59375-.34413-.36605-.5173-.89906-.8125-1.28125-.10416-.12772-.33146-.71152-.59375-1.0625-.49498-.14548-.58048-.85019-1-1.125-.15244-.61036-1.05934-.66276-.875-1.40625.12012-.42429.2148-.91436.4375-1.34375.0994-.70568.45539-1.37813.5625-2.09375.009-.59064.25019-1.14932.53125-1.65625.63235-.15934 1.33651-.0458 1.90625-.375.78562.13364.97269-.758 1.625-.8125zm-68.0625.75c-.89656.0481-1.98038.2981-2.625.0937-1.52143.20373-3.27692-.15833-4.53125.3125-1.01277.59375-1.35133 1.65866-2.25 2.1875-1.10769.55898-2.64335.65873-3.5625 1.40625-.71474.84196-3.22171.10224-4.375.59375.2596-.11221-1.41525.64305-1.71875 1.25-.43901.75146-2.4743 2.02273-2.78125 2.90625.21693 1.03469-.98747 2.05632-2.65625 4.34375-.57073.83349-.74727.68168-1.46875 1.4375-.79749.67126-.72068 2.28948-1.125 3.40625-.0146 1.51667-.46462 2.53017.1875 3.40625.15836 1.25142.42477 1.90489.21875 3.625-.3829.63813-.0159 2.28719-.0312 3.6875-.25179 1.94744.71034 3.28031 1.46875 4.0625 1.75721 2.19457 1.28417 2.87355 2.8125 5.40625 1.14613.26188.49962 1.22616 2.15625 1.59375 1.43717.2295 2.20925 1.12408 3.375 1.625.98471.51414 2.36315.9469 3.40625 1.59375 1.0464.38217 1.66399 1.18869 2.5 1.78125.48554.81729 1.6091.61547 2.1875 1.4375.18658.82261.99784 1.57654 1.5625 2.5.54223 1.00838 1.30426 1.60253 1.78125 2.84375 1.45569 1.54047 1.69022 2.2287 2.5 3.59375.60969.60166.94671 1.4605 1.25 2.3125.75381.79381 1.24782 1.82956 1.59375 3.03125-.16623.0714.84034 1.86879 1.09375 2.6875.6288.91882 1.31725 1.76013 1.59375 3.03125 1.00079 1.05916-.10043 2.90204-.34375 3.84375.26945 1.58038-.16153 3.83815.6875 4.71875.40175 1.14588.63151 2.47712 1.4375 3.21875.2338 1.19477.8401 2.01258 1.78125 2.5.65391.86302 1.46746 1.59774 1.96875 2.6875.92993 1.12194 1.02155 2.11579 1.78125 1.96875 1.09374 1.35982.3947 1.61212 1.96875 1.96875.46205.6747 1.21784 1.02781 1.8125 1.5625 2.17177.72892 4.3847 1.36858 6.625 1.9375.0908.0222.19343.0376.28125.0625.10558.0265.20678.0676.3125.0937.59441.14672 1.18238.30232 1.78125.4375.84961-.0243 1.45534.18586 2.0625.40625.54913.11082 1.10364.2427 1.65625.34375.14927-.002.30121-.0109.46875-.0312 1.72497-.11924 2.78403-.90301 4.28125-1.25.92261-.51246 1.7684-.75971 2.5-1.78125.91247-.45658 1.21383-1.54212 2.15625-1.96875 1.07762-1.99305 1.74985-1.2553 3.59375-1.3125 1.49015-.0454 4.3323-1.67642 6.0625-2.0625.87268-.92251.62077-1.91794.6875-3.25.36613-1.53104.4989-1.76772.0937-2.3125-.95373-.3062-.38772-2.83701.28125-3.03125.47107-.89797 1.42559-1.29911 1.78125-2.3125.7196-1.13632 1.89068-1.13902 2.6875-1.78125.16039-1.27023 1.64048-1.2414 2.5-1.8125 1.59613.2057 2.26345-.52072 3.375-1.0625.96369-.56279 2.20171-.97798 3.03125-1.78125.42103-.94731.78381-1.93535 1.625-2.5.54883-.74703 1.22407-1.45347 1.78125-2.3125.60225-.63493 1.1766-1.98796 1.25-1.78125 1.26426-.81907 1.21284-1.65918 2.09375-2.28125.82745-1.41536 1.1379-2.24442 1.34375-2.875-.50795-1.0292-1.30295-.66278-2.1875-.53125-1.82.38692-2.06825.76211-3.21875 1.21875-1.09657.77795-2.40521.0331-3.75.15625-2.92985.5108-2.54868-.59877-3.125-1.0625-.66768-.53724-.9896-.89968-1.75-1.53125-.0671-1.62933-.99318-2.61396-2.09375-3.65625.37466-1.77399-.63817-2.15-.53125-3.65625.23436-1.21983-1.1501-2.2473-1.25-4-.37494-1.23144-2.4563-1.36329-3.03125-2.5-.72284-.53073-1.37153-2.16356-1.96875-3.21875-1.14434-1.03312-2.51049-2.88009-4.09375-3.5625-1.28086-1.01442-2.92926-.88284-2.6875-3.21875-.0966-2.01681-.44934-3.08801.53125-4.46875.50799-.84286.69993-2.32309 2.3125-2.15625 1.41612-.77938.87856 2.01678 2.34375 1.78125 1.8565-.66799 3.6342.10595 3.5625-1.59375.55129-.86901 2.34457-.95089 3.03125-1.25-.31843-1.74261-2.36796-3.55798-3.75-4.28125h-6.96875c-1.17287-.36578-3.48961-1.02188-4.3125-1.53125-.633-.56243-2.36597.002-3.1875.46875-.30759 1.33669-2.18145 1.26259-3.375 1.78125-.78597 1.77984-3.00038-.83432-4.65625-1.625-.73314-.66674-1.79025-.7451-3.03125-1.40625-1.85752.38151-1.75629-1.69631-3.21875-1.96875-1.0934-.1901-2.85745-1.10907-1.25-1.96875 1.57758-.38886.34321-1.73608.1875-2.875.2018-.88198.84621-2.28035-.53125-2.65625h-2.78125c-1.40893-.0339-2.48944-.42333-2.9375-1.4375-1.79511.14258-1.95545-.2199-3.59375-.1875-.90766-.45209-2.49459-1.1564-2.84375-1.25-1.48825.44301-2.3725-1.04336-2.3125-1.15625.12066-.96912-.60344-1.11059-1.5-1.0625zm77.125 1.15625c.41079-.0552.90495.0674 1 .46875-.15448.4759.21523 1.31613-.21875 1.5625.19621.62245-.52869.82849-.875 1.1875.30032-.48929-.42337-.8564-.6875-.375-.61694-.0326-.58791-.65229-.84375-1.125-.13869-.2941-.6488-.36703-.15625-.65625.42727-.36818.9056-.66704 1.40625-.9375.10784-.0587.23807-.10661.375-.125zm46.25 35.21875c-.0564.006-.10327.0254-.15625.0625.2739.90878.83256 1.10668.96875 1.75.53606 1.06635 1.40294 2.05478 2.34375 2.875.43511-.90024.87471-1.80257 1.28125-2.71875-.58819-.2858-1.17927-.59295-1.78125-.65625-.60805 1.68649-1.80967-1.40896-2.65625-1.3125zm-15.28125 9.78125c.0711 1.0909-.0913 2.19897-.5625 3.1875-.52956 1.05989.56131 1.59826 1.4375 1.59375.67935.33516 1.06039-.43903 1.375-.75-.6467-.48799-.28682-1.36834-.5625-2-.43431-.77167-.77957-1.70819-1.6875-2.03125zm-48.71875 34.625c-.38913.0527-.75982.30588-1.15625.4375-.49146.18366-.94488.44456-1.3125.78125-.50545.28758-.92551.47694-1.40625.71875-.13229.27121-.53257.46721-.875.6875-.49523.2627-.92301.35342-1.4375.6875-.52945-.0214-1.08168.0717-1.59375-.0937-.45242-.13571-1.0653-.11808-1.53125 0-.49399.33805-.36343 1.0071-.625 1.46875-.1715.4998.0108.66032-.28125 1.09375-.49909.30757-1.26798-.22874-1.46875.96875.10336.65078-.17957 2.78178.40625 2.96875.35801.23018 1.04174.53269 2.25.96875.51742.15093.74831.2487 1.3125.3125.54943-.14882 1.32117-.0417 1.96875-.5625.44498-.34836.61231-.69755 1.03125-1.0625.51106-.20519.64598-.69436.9375-1.09375.41003-.33566.2756-.7396.53125-1.09375.15784-.57725.44763-.63898.3125-1.09375.1149-.53521.79435-.83179 1.15625-1.0625.49505-.18579.54277-.3259 1-.59375.44589-.15032.38254-.69195.65625-1.1875.22081-.56745.23865-1.03391.28125-1.59375-.084-.54682.15769-1.19668-.15625-1.65625z" fill="url(#b)" stroke="#3d0000" stroke-width="1.867" transform="matrix(.68101924 .19546341 -.19546341 .68101927 -226.47878 -182.8764)"/><circle cx="66.146" cy="230.854" fill="none" r="65.602" stroke="#000" stroke-linecap="round" stroke-width=".709"/><path d="m237.57422 70.804688c-29.07535-.200991-57.37368 5.681431-80.75586 14.572265 195.85235-29.646417 237.71867 122.658217 182.85156 195.562497-39.15879-41.10428-90.20989-93.68649-111.98828-112.5664l38.27148-38.19532-12.64648-11.74218-50.12891-3.44336-71.70507 66.65429 40.32226 39.7793 34.50196-31.93359c30.31485 31.37133 74.60742 77.49502 109.41406 113.88867-32.75192 21.15489-81.60391 22.43232-142.21875-16.01172 2.72464-3.71735.95795-1.77043 3.83789-5.5918l-12.35742-11.9414c-1.35916.59229-3.52609 1.92038-5.42383 3.22265-2.56625-2.65485-6.78575-5.85544-9.17774-8.98632l-14.58984 12c1.78687 2.39622 6.77977 7.43203 8.69336 9.63281-9.84676 8.25135-34.5017 29.56913-38.07227 34.71484-15.223192 18.91166 13.45977 43.246 27.64063 27.73633 5.5697-4.38263 20.56484-27.72095 30.53515-42.16797 25.4153 26.59873 60.03631 45.16994 106.61524 44.32813 7.04846-.12809 37.24519-1.31051 68.12305-22.22266 13.64024 14.31547 24.04487 25.28807 26.28906 27.8125 7.95212 8.94811 32.36639-12.20441 24.23047-21.54687-2.13806-2.45424-12.07361-13.14228-25.88282-27.79493 6.1978-6.88186 12.16139-14.84649 17.6836-24.06836 28.53917-47.67008 20.32813-119.25639-30.80664-168.67968-32.10817-31.037286-73.41187-42.736291-113.25586-43.011722z" fill="url(#a)" stroke="#4a3500" stroke-width="6" transform="matrix(.26458333 0 0 .26458333 0 164.70832)"/></g></svg>