<svg shape-rendering="crispEdges" viewBox="0 -.5 112 132" xmlns="http://www.w3.org/2000/svg"><path d="m47 0h22m-28 1h31m-36 1h13m18 0h8m-42 1h9m29 0h7m-48 1h8m35 0h7m-53 1h7m42 0h6m-57 1h7m46 0h6m-61 1h6m51 0h6m-65 1h6m55 0h5m-67 1h5m59 0h5m-71 1h5m63 0h4m-73 1h4m66 0h5m-77 1h5m69 0h4m-79 1h4m72 0h4m-81 1h4m74 0h4m-83 1h4m76 0h4m-85 1h4m78 0h4m-87 1h4m80 0h4m-88 1h3m82 0h3m-89 1h3m84 0h3m-91 1h3m85 0h4m-92 1h3m86 0h4m-94 1h3m88 0h3m-94 1h3m89 0h3m-95 1h2m90 0h3m-96 1h3m91 0h3m-97 1h2m93 0h3m-99 1h3m93 0h3m-99 1h2m95 0h3m-101 1h3m95 0h3m-101 1h3m96 0h2m-101 1h2m97 0h3m-103 1h3m65 0h11m22 0h2m-103 1h2m22 0h14m28 0h15m20 0h2m-103 1h2m21 0h16m26 0h17m19 0h3m-105 1h3m20 0h19m23 0h19m18 0h3m-105 1h2m21 0h20m21 0h21m18 0h2m-105 1h2m20 0h6m4 0h11m21 0h6m4 0h11m18 0h2m-105 1h2m20 0h5m5 0h12m19 0h7m4 0h12m17 0h3m-106 1h2m19 0h5m6 0h13m17 0h7m5 0h12m18 0h2m-106 1h2m19 0h5m6 0h13m16 0h7m6 0h13m17 0h2m-106 1h2m18 0h6m5 0h14m16 0h7m6 0h13m17 0h2m-106 1h2m18 0h5m6 0h15m15 0h6m7 0h13m17 0h2m-106 1h2m17 0h6m5 0h16m15 0h8m4 0h14m17 0h2m-106 1h2m17 0h27m15 0h26m17 0h2m-106 1h2m17 0h27m15 0h26m17 0h2m-106 1h2m18 0h26m15 0h26m17 0h2m-106 1h2m18 0h26m15 0h26m17 0h2m-106 1h2m18 0h26m15 0h26m17 0h2m-106 1h2m18 0h26m15 0h25m18 0h2m-106 1h2m19 0h24m17 0h24m18 0h2m-106 1h2m19 0h24m17 0h23m19 0h2m-106 1h2m20 0h22m19 0h21m20 0h2m-106 1h2m20 0h21m20 0h20m21 0h2m-108 1h4m21 0h19m22 0h18m21 0h3m-108 1h2m25 0h16m24 0h13m25 0h3m-108 1h2m27 0h12m64 0h2m-107 1h3m101 0h3m-107 1h3m101 0h2m-105 1h3m99 0h3m-105 1h3m99 0h3m-104 1h3m97 0h3m-103 1h4m95 0h3m-101 1h3m95 0h3m-100 1h4m92 0h3m-98 1h3m91 0h4m-97 1h3m89 0h4m-95 1h3m87 0h4m-93 1h3m38 0h14m33 0h4m-92 1h4m37 0h14m32 0h4m-89 1h3m80 0h5m-88 1h4m78 0h5m-86 1h5m75 0h4m-82 1h4m72 0h5m-80 1h4m70 0h4m-77 1h4m67 0h5m-75 1h5m63 0h5m-71 1h4m59 0h7m-69 1h5m56 0h23m-82 1h4m52 0h28m-83 1h4m47 0h8m20 0h5m-83 1h5m38 0h12m25 0h5m-83 1h4m31 0h14m31 0h3m-82 1h5m23 0h13m39 0h3m-82 1h8m10 0h16m46 0h3m-81 1h27m51 0h3m-77 1h13m62 0h3m-75 1h2m70 0h3m-76 1h3m71 0h2m-76 1h2m72 0h3m-77 1h2m72 0h3m-77 1h2m73 0h2m-77 1h2m73 0h2m-77 1h2m73 0h2m-77 1h2m73 0h2m-77 1h2m73 0h2m-77 1h2m73 0h2m-77 1h2m73 0h2m-77 1h2m73 0h2m-77 1h2m73 0h2m-77 1h2m73 0h2m-77 1h2m73 0h2m-77 1h2m73 0h2m-77 1h2m21 0h3m22 0h10m17 0h2m-77 1h2m21 0h3m17 0h16m16 0h2m-77 1h3m20 0h3m17 0h6m3 0h2m2 0h3m16 0h2m-77 1h3m20 0h3m16 0h2m8 0h2m3 0h2m16 0h2m-76 1h2m20 0h3m16 0h2m8 0h2m3 0h2m15 0h3m-76 1h2m19 0h4m16 0h2m8 0h2m3 0h3m14 0h3m-76 1h2m19 0h4m16 0h2m8 0h2m3 0h3m13 0h3m-75 1h3m18 0h5m15 0h2m8 0h2m4 0h2m13 0h3m-75 1h3m18 0h5m15 0h2m8 0h2m4 0h2m13 0h2m-73 1h2m18 0h2m1 0h2m15 0h2m8 0h2m4 0h2m13 0h2m-73 1h3m17 0h2m1 0h2m15 0h2m8 0h2m4 0h2m12 0h3m-73 1h3m17 0h2m1 0h2m15 0h2m8 0h2m4 0h2m12 0h2m-71 1h2m17 0h2m1 0h2m15 0h2m8 0h2m4 0h3m11 0h2m-71 1h2m17 0h2m1 0h3m13 0h3m8 0h2m4 0h3m11 0h2m-71 1h3m16 0h2m1 0h3m13 0h3m8 0h2m5 0h2m11 0h2m-71 1h3m16 0h2m2 0h2m13 0h4m7 0h2m5 0h2m10 0h3m-70 1h2m16 0h2m2 0h2m13 0h4m7 0h2m5 0h2m10 0h3m-70 1h3m15 0h2m2 0h3m12 0h5m5 0h3m5 0h3m9 0h2m-69 1h3m15 0h2m2 0h3m12 0h5m4 0h4m6 0h2m8 0h3m-68 1h2m14 0h3m3 0h3m11 0h2m1 0h9m7 0h3m6 0h3m-67 1h2m14 0h2m4 0h3m11 0h2m1 0h8m8 0h3m4 0h5m-67 1h3m13 0h2m5 0h2m10 0h3m18 0h10m-65 1h2m13 0h2m5 0h3m9 0h2m19 0h8m-63 1h3m11 0h3m6 0h3m8 0h2m-35 1h3m9 0h3m7 0h4m6 0h3m-35 1h4m7 0h4m8 0h4m4 0h3m-33 1h4m5 0h4m10 0h10m-32 1h11m12 0h8m-30 1h9" stroke="#000"/><path d="m49 2h18m-25 1h29m-33 1h35m-39 1h42m-44 1h46m-49 1h51m-53 1h55m-57 1h59m-61 1h63m-65 1h66m-67 1h69m-71 1h72m-73 1h74m-75 1h76m-77 1h78m-79 1h80m-81 1h82m-83 1h84m-85 1h85m-85 1h86m-87 1h88m-88 1h89m-90 1h90m-90 1h91m-92 1h93m-93 1h93m-94 1h95m-95 1h95m-95 1h96m-97 1h97m-97 1h65m11 0h22m-99 1h22m14 0h28m15 0h20m-99 1h21m16 0h26m17 0h19m-99 1h20m19 0h23m19 0h18m-100 1h21m20 0h21m21 0h18m-101 1h20m6 0h4m11 0h21m6 0h4m11 0h18m-101 1h20m5 0h5m12 0h19m7 0h4m12 0h17m-101 1h19m5 0h6m13 0h17m7 0h5m12 0h18m-102 1h19m5 0h6m13 0h16m7 0h6m13 0h17m-102 1h18m6 0h5m14 0h16m7 0h6m13 0h17m-102 1h18m5 0h6m15 0h15m6 0h7m13 0h17m-102 1h17m6 0h5m16 0h15m8 0h4m14 0h17m-102 1h17m27 0h15m26 0h17m-102 1h17m27 0h15m26 0h17m-102 1h18m26 0h15m26 0h17m-102 1h18m26 0h15m26 0h17m-102 1h18m26 0h15m26 0h17m-102 1h18m26 0h15m25 0h18m-102 1h19m24 0h17m24 0h18m-102 1h19m24 0h17m23 0h19m-102 1h20m22 0h19m21 0h20m-102 1h20m21 0h20m20 0h21m-102 1h21m19 0h22m18 0h21m-103 1h25m16 0h24m13 0h25m-103 1h27m12 0h64m-102 1h101m-101 1h101m-100 1h99m-99 1h99m-98 1h97m-96 1h95m-95 1h95m-93 1h92m-92 1h91m-90 1h89m-88 1h87m-86 1h38m14 0h33m-84 1h37m14 0h32m-82 1h80m-79 1h78m-76 1h75m-74 1h72m-71 1h70m-69 1h67m-65 1h63m-62 1h59m-57 1h56m-55 1h52m-51 1h47m8 0h20m-73 1h38m12 0h25m-74 1h31m14 0h31m-74 1h23m13 0h39m-71 1h10m16 0h46m-51 1h51m-61 1h62m-70 1h70m-70 1h71m-72 1h72m-72 1h72m-72 1h73m-73 1h73m-73 1h73m-73 1h73m-73 1h73m-73 1h73m-73 1h73m-73 1h73m-73 1h73m-73 1h73m-73 1h73m-73 1h73m-73 1h21m3 0h22m10 0h17m-73 1h21m3 0h17m16 0h16m-72 1h20m3 0h17m6 0h3m7 0h16m-72 1h20m3 0h16m2 0h8m7 0h16m-72 1h20m3 0h16m2 0h8m7 0h15m-71 1h19m4 0h16m2 0h8m8 0h14m-71 1h19m4 0h16m2 0h8m8 0h13m-69 1h18m5 0h15m2 0h8m8 0h13m-69 1h18m5 0h15m2 0h8m8 0h13m-69 1h18m5 0h15m2 0h8m8 0h13m-68 1h17m5 0h15m2 0h8m8 0h12m-67 1h17m5 0h15m2 0h8m8 0h12m-67 1h17m5 0h15m2 0h8m9 0h11m-67 1h17m6 0h13m3 0h8m9 0h11m-66 1h16m6 0h13m3 0h8m9 0h11m-66 1h16m6 0h13m4 0h7m9 0h10m-65 1h16m6 0h13m4 0h7m9 0h10m-64 1h15m7 0h12m5 0h5m11 0h9m-64 1h15m7 0h12m5 0h4m12 0h8m-63 1h14m9 0h11m22 0h6m-62 1h14m9 0h11m22 0h4m-59 1h13m9 0h10m-32 1h13m10 0h9m-31 1h11m12 0h8m-30 1h9m14 0h6m-28 1h7m16 0h4m-26 1h5" stroke="#fff"/></svg>