<svg height="483.734" width="466.229" xmlns="http://www.w3.org/2000/svg"><path d="m102.31537 483.40317c-37.37872-3.79541-69.76754-7.49885-102.31537-28.43908 30.101057 1.53048 60.83706 2.803 90.81537-.32125 77.74909-8.91205 139.26503-32.90226 174.77418-68.15907 67.82878-72.63463 40.2592-152.678-40.62446-180.37605-13.03453-4.59841-42.37793-11.88706-56.14972-13.48476-25.77889-2.99067-46.30361-4.09459-70.5-6.68239 24.23195-63.50326 63.21716-185.94057 63.21716-185.94057h269.62558l-17.01109 50.99113-217.08813.50887s-28.99288 72.20864-37.55216 110.93665c34.28061 1.94343 71.51802 5.99501 97.30864 9.11345 69.01956 8.36934 121.79594 29.99977 153.26532 62.81586 30.27137 34.99732 38.39421 74.10768 17.20901 113.91618-15.36374 30.7313-49.3748 64.6962-87.03686 86.91873-42.37584 25.0039-89.05506 39.4559-149.93308 46.41963-12.69734 1.45243-76.34732 2.74176-88.00439 1.78267zm325-22.96775c-50.75322-18.88083-71.96076-27.04102-71.75239-27.60872 19.95763-14.5974 34.25139-23.43264 51.25239-42.54873 14.45159 6.44158 42.82185 11.05721 52.24821 20.56196 8.06845 8.24267 9.45065 21.81696 3.49829 34.35617-8.5359 15.61478-20.61422 20.53992-35.2465 15.23932zm-361.76985-73.93477 51.26985-146.01626s29.46729 12.32612 49.20013-18.43522c8.33548 2.10671 30.95735 11.50061 30.95735 11.50061l-23.67953 77.43659s77.62965 25.26839 111.06451 37.98027c-11.41124 26.09269-37.63949 43.88261-37.63949 43.88261l-91.30774-33.27594-20.93589 59.5695z" fill="#fe0000"/></svg>