<svg height="88pt" viewBox="0 0 120 88" width="160" xmlns="http://www.w3.org/2000/svg"><path d="m0 12.68c.67-6.84 7.07-12.4 13.95-12.03H106c6.88-.41 13.24 5.11 14 11.93v62.63c-.61 6.9-7.04 12.53-13.96 12.14-31.02-.03-62.04.06-93.06-.04-7.07.1-12.41-6.41-12.98-13.07zm21.53-7.95c-.55 1.61-1.09 3.23-1.64 4.85-1.74.13-3.48.26-5.23.39 1.34 1.04 2.67 2.09 4.01 3.13-.51 1.78-1.05 3.55-1.54 5.34 1.38-1.1 2.73-2.24 4.09-3.36 1.6 1.08 3.24 2.09 4.78 3.25-.53-1.73-1.1-3.44-1.64-5.17 1.51-1.12 3.01-2.24 4.52-3.36-1.95-.06-3.89-.12-5.84-.2-.51-1.62-1.01-3.25-1.51-4.87m.22 14.85c6.37 4.15 11.19 12.75 7.12 20.08-3.4-3.12-6.77-6.29-10.13-9.45 1.6-1.56 3.2-3.13 4.8-4.69-2.19-.3-4.37-.63-6.56-.94-2.61 2.45-5.18 4.93-7.7 7.46 1.27 1.27 2.54 2.54 3.81 3.82 1.21-1.18 2.43-2.35 3.64-3.53 3.02 3.27 6.16 6.42 9.15 9.71-2.45.19-5.14.9-7.34-.59-1.57-1.08-3.78-1.93-5.27-.21-2.41 3.08-7.68 4.37-6.89 9.15 4.87.07 5.58-5.44 9.25-7.43 3.48 3.76 9.04 4.5 13.65 2.47 1.64 1.67 3.3 3.34 4.91 5.04 1.14-.67 3.04-1.32 2.44-3.02-1.24-1.77-2.95-3.13-4.51-4.6 5.71-8.82-1-20.58-10.37-23.27z" fill="#c00"/><path d="m21.53 7.84c.29.73.88 2.19 1.17 2.92.85.0 2.56-.01 3.42-.01-.99.71-1.99 1.41-2.98 2.12.31.78.94 2.33 1.25 3.1-.97-.65-1.94-1.3-2.91-1.95-.73.51-2.19 1.52-2.93 2.02.33-.79 1-2.37 1.33-3.16-.96-.66-1.9-1.33-2.84-2.01 2.37.32 4.06-.54 4.49-3.03z" fill="#c00"/><g fill="#ffd800"><path d="m21.53 4.73c.5 1.62 1 3.25 1.51 4.87 1.95.08 3.89.14 5.84.2-1.51 1.12-3.01 2.24-4.52 3.36.54 1.73 1.11 3.44 1.64 5.17-1.54-1.16-3.18-2.17-4.78-3.25-1.36 1.12-2.71 2.26-4.09 3.36.49-1.79 1.03-3.56 1.54-5.34-1.34-1.04-2.67-2.09-4.01-3.13 1.75-.13 3.49-.26 5.23-.39.55-1.62 1.09-3.24 1.64-4.85m0 3.11c-.43 2.49-2.12 3.35-4.49 3.03.94.68 1.88 1.35 2.84 2.01-.33.79-1 2.37-1.33 3.16.74-.5 2.2-1.51 2.93-2.02l2.91 1.95c-.31-.77-.94-2.32-1.25-3.1.99-.71 1.99-1.41 2.98-2.12-.86.0-2.57.01-3.42.01-.29-.73-.88-2.19-1.17-2.92z"/><path d="m21.75 19.58c9.37 2.69 16.08 14.45 10.37 23.27 1.56 1.47 3.27 2.83 4.51 4.6.6 1.7-1.3 2.35-2.44 3.02-1.61-1.7-3.27-3.37-4.91-5.04-4.61 2.03-10.17 1.29-13.65-2.47-3.67 1.99-4.38 7.5-9.25 7.43-.79-4.78 4.48-6.07 6.89-9.15 1.49-1.72 3.7-.87 5.27.21 2.2 1.49 4.89.78 7.34.59-2.99-3.29-6.13-6.44-9.15-9.71-1.21 1.18-2.43 2.35-3.64 3.53-1.27-1.28-2.54-2.55-3.81-3.82 2.52-2.53 5.09-5.01 7.7-7.46 2.19.31 4.37.64 6.56.94-1.6 1.56-3.2 3.13-4.8 4.69 3.36 3.16 6.73 6.33 10.13 9.45 4.07-7.33-.75-15.93-7.12-20.08z"/></g></svg>