<svg height="600" viewBox="0 0 158.75 158.75" width="600" xmlns="http://www.w3.org/2000/svg"><g fill="#fc0" stroke-width=".408"><g transform="matrix(.61089689 0 0 .61089689 -204.709326 -124.850213)"><path d="m452.345 281.22h25.335v183.016h-25.335z"/><path d="m465.02827 204.37199c-7.45272 17.19903-12.54876 25.46533-14.90625 35.875-5.10817 22.55548 5.53125 40.96875 5.53125 40.96875h9.375 9.34375s10.63942-18.41327 5.53125-40.96875c-2.35749-10.40967-7.42228-18.67597-14.875-35.875z"/></g><path d="m654.46169 217.22434c-5.81625-.0214-9.4375.34375-9.4375.34375s86.66015 34.12423 39.8125 51.625l14.3125 14.15625c11.26449 1.27005 22.40429-.14788 27.03125-5.59375 6.11222-7.19399 6.64841-20.19082.65625-29.4375-17.80039-27.46831-54.92626-31.02954-72.375-31.09375z" transform="matrix(.61089689 0 0 .61089689 -296.674361 -103.894067)"/><path d="m682.55544 266.91184-130.09375 131.21875 18 17.84375 130.09375-131.25z" transform="matrix(.61089689 0 0 .61089689 -296.674361 -103.894067)"/><g transform="matrix(.61062841 .0181096 -.0181096 .61062841 65.744402 32.060722)"><path d="m-99.030569 60.68893 51.157709-53.8085076 24.998164-1.0700716 12.595626 11.9751202-63.560248 66.853699z"/><path d="m-88.293-38.668h25.335v223.476h-25.335z" transform="matrix(.68902995 -.72473287 .72473287 .68902995 0 0)"/></g></g></svg>