<svg clip-rule="evenodd" fill-rule="evenodd" viewBox="0 0 190 200" xmlns="http://www.w3.org/2000/svg"><g fill-rule="nonzero" stroke-width=".09" transform="translate(.193271 .77829)"><path d="m54.65 72.71c2.68-2.91 5.05-7.25 9.4-7.6 4.35.68 6.32 5.28 8.68 8.46 2.31-3.04 4.29-7.04 8.3-8.04 3.11.68 4.64 3.81 6.49 6.09 1.74-4.05 5.5-6.3 9.61-7.42 3.24 6.14 7.98 11.28 11.47 17.26 1.52 2.8 4.02 5.3 4.39 8.57-1.82 2.16-4.64 3.05-7.26 3.81-10.88 2.75-22.17 2.62-33.29 3.3-11.75.68-23.54 1.62-35.06 4.12-5.55 1.05-10.2 4.37-14.87 7.34-7.46-7.85-13.59-17.7-14.34-28.74 2.09 1.39 4.15 2.81 6.21 4.25 1.7-4.33 2.53-10.57 7.68-12.08 5.4 0 8.92 4.84 12.6 8.12 1.89-4.16 3.5-8.55 6.36-12.17 1.31-1.77 3.68-3.16 5.89-2.25 3.34 1.31 5.46 4.38 7.74 6.98z" fill="#fff" stroke="#fff"/><path d="m112.28 140.77c3.83-1.86 7.09-5.43 11.7-5.13 4.21-.46 6.87 3.2 10.07 5.21 2.29 1.68 5.51 2.64 6.48 5.6 1.54 2.99-1.77 5.19-3.67 6.95-4.63.92-9.24-.41-13.27-2.68 1.54 3.54 2.46 7.59.15 11.03-.42.43-1.26 1.27-1.67 1.7l-.77-.16c-6.47-.87-12.52-3.57-17.58-7.67.84 5.74.11 11.59-2.64 16.74-1.02.28-2.03.55-3.05.8-4.77.11-8.63-2.89-10.73-6.98.65 3.86-.03 7.74-2.01 11.12l-1.14-.22c-4.43-.59-8.26-2.99-11.85-5.5-1.23 3.39-2.61 6.75-4.65 9.74l-1.18.26s-5.07-4.44-7.28-6.97c-2.26 2.47-4.15 6.42-7.98 6.42-2.69-2.44-3.91-5.98-5.47-9.16-3.62 3-7.28 7.85-12.61 6.36-.05-3.32.19-6.67 1.34-9.81 1.92-5.5 2.77-11.28 4.37-16.86.54.07 1.62.19 2.16.26 7.8 1.66 15.99 1.76 23.85.59 6.9-2.01 14.02-3.36 21.23-3.24 9.47.22 17.8-4.76 26.2-8.4z" fill="#fff" stroke="#fff"/><g fill="#ffd468" stroke="#ffd468"><path d="m81.05 0s7.815-.585 11.421-.585c3.258 0 10.219.585 10.219.585 5.8 1.3 11.71 2.15 17.42 3.85 25.56 7.93 47.8 26.48 59.26 50.78 5.4 9.69 7.45 20.65 9.63 31.38v21.69c-1.56 7.1-2.58 14.35-5.08 21.21-7.26 19.74-20.42 37.6-38.27 48.97-4.52-2.08-9.29-4.02-12.93-7.53.49-.59 1.47-1.78 1.95-2.38-2.96-1.08-5.89-2.25-8.79-3.48 6.39-3.89 13.52-7.46 17.82-13.82 2.91-4.46 1-9.95-.78-14.45-5.84-13.99-14.1-26.78-21.41-40.03-7.78-12.63-15.62-25.25-24.19-37.36-1.91-3.02-5.16-4.82-8.61-5.45-14.54-2.78-29.83-3.14-44.12 1.15-4.61 1.45-9.26 2.74-14.02 3.6-.48-7.22-.14-14.47 1.13-21.6-2.41 6.95-3.41 14.27-3.55 21.61-9.74-4.79-15.45-14.31-22.3-22.27 3.22 6.08 6.99 11.86 11.2 17.29-3.17 2.13-7.03 3.61-9.14 6.98 3.99-1.65 6.92-5.34 11.4-6 2.11 1.83 4.25 3.62 6.43 5.36-6.35 2.46-13.59 4.73-17.42 10.83-2.89 4.27-3.46 9.56-3.23 14.59-2.31-4-3.94-8.34-5.09-12.81v-3.95c.81-5.87 5.22-11.07 3.78-17.21-1.08-5.83-1.17-12.18 1.59-17.58 3.87-5.97 12.04-6.76 18.51-5.95 10.95-9.96 27.875-19.008 37.72-22.85 6.338-2.473 12.754-3.894 19.45-4.57m-33.14 24.04c7.84-5.77 16.32-11.25 26.13-12.79 8.65-1.18 17.55-1.27 26.13.45 6.37 1.24 12.12 4.35 17.88 7.18-10.39-6.72-22.62-10.6-35.06-10.12-13.3-.32-25.5 6.58-35.08 15.28m20.03 2.79c-8.07 3.61-11.52 12.64-18.75 17.35-2.62 1.82-5.71 2.73-8.71 3.67-.05.46-.14 1.36-.18 1.82 4.61.06 9.22-.58 13.59-2.04 5.78-1.74 10.51-5.75 16.17-7.79 3.56-1.37 7.36-1.89 11.09-2.62-2.99.22-5.99.51-8.9 1.28-7.79 1.77-14.18 7.16-22.12 8.51 6.82-5.19 10.4-13.57 17.58-18.3 9.04-4.74 19.43-5.53 29.42-6.35-9.85 0-19.96.73-29.19 4.47m29.75 8.45c6.26-1.61 14.33-.96 18.43 4.67 3.2 4.47 3.22 10.48 1.44 15.52-1.99 5.51-1.18 11.48-.06 17.09-.04-3.18-.29-6.36-.11-9.53.34-5.24 3.99-9.7 3.85-15.02-.38-4.57-2.43-9.32-6.49-11.77-4.16-2.87-9.45-1.82-14.17-2.4 4.14-4.32 10.86-5 16.17-2.59 4.87 1.92 8.31 6 12.39 9.09-4.85-6.53-12.57-12.28-21.13-11.08-4.27.12-7.33 3.41-10.32 6.02m45.63 10.78c-1.13 3.78-.08 7.71.85 11.42.82-7.16 2.02-14.5 5.94-20.7-2.79 2.63-5.83 5.41-6.79 9.28m26.36 63.36c-1.15-9.04-4.89-17.46-8.57-25.71 2.54 8.68 6.14 17 8.57 25.71m-44.14-20 1.63-.55c2.83 7.07 5.25 14.34 8.83 21.09 2.29 4.31 4.52 8.65 6.72 13.01-3.54-8.59-6.58-17.43-11.12-25.58-1.81-3.27-3.26-6.72-4.89-10.08-.57.53-.96 1.24-1.17 2.11m25.2 48.2c-.15 3.85.27 7.89-1.31 11.51-3.03 7.01-8.97 12.28-15.49 16 6.29-2.37 12.81-5.84 16.05-12.02 2.53-4.8 1.83-10.4.75-15.49z"/><path d="m56.22 187.73c16.33-4.7 33.15-7.69 49.15-13.51 2.67 2.48 5.25 5.05 7.89 7.56 3.98 4.05 10.09 3.97 15.21 5.54-11.95 4.44-24.66 7.27-37.46 6.73-11.92.44-23.56-2.67-34.79-6.32z"/><path d="m127.93 182.73c2.19.37 4.38.77 6.5 1.46-1.02.56-2.03 1.12-3.04 1.69-1.2-.99-2.33-2.08-3.46-3.15z"/></g><g fill="#ffa8b0" stroke="#ffa8b0"><path d="m40.21 59.25c11.42-3.88 23.67-5.68 35.7-4.31 5.24.59 10.67.75 15.61 2.78 2.5 1.49 3.83 4.27 5.61 6.48-4.11 1.12-7.87 3.37-9.61 7.42-1.85-2.28-3.38-5.41-6.49-6.09-4.01 1-5.99 5-8.3 8.04-2.36-3.18-4.33-7.78-8.68-8.46-4.35.35-6.72 4.69-9.4 7.6-2.28-2.6-4.4-5.67-7.74-6.98-2.21-.91-4.58.48-5.89 2.25-2.86 3.62-4.47 8.01-6.36 12.17-3.68-3.28-7.2-8.12-12.6-8.12-5.15 1.51-5.98 7.75-7.68 12.08-2.06-1.44-4.12-2.86-6.21-4.25 1.17-4.48 2.81-9.28 6.91-11.91 7.53-4.92 16.57-6.49 25.13-8.7z"/><path d="m123.59 150.72c4.03 2.27 8.64 3.6 13.27 2.68-4.16 3.1-8.47 6.04-13.12 8.35 2.31-3.44 1.39-7.49-.15-11.03z"/><path d="m103.72 155.62c5.06 4.1 11.11 6.8 17.58 7.67-6.29 3.95-13.33 6.41-20.22 9.07 2.75-5.15 3.48-11 2.64-16.74z"/><path d="m87.3 166.18c2.1 4.09 5.96 7.09 10.73 6.98-4.2 1.52-8.63 2.36-12.74 4.14 1.98-3.38 2.66-7.26 2.01-11.12z"/><path d="m45.74 171.87c1.56 3.18 2.78 6.72 5.47 9.16 3.83 0 5.72-3.95 7.98-6.42 2.21 2.53 4.61 4.91 7.28 6.97-9.22 2.22-19.22 4.74-28.5 1.46-2.39-.65-3.61-2.88-4.84-4.81 5.33 1.49 8.99-3.36 12.61-6.36z"/><path d="m67.65 181.32c2.04-2.99 3.42-6.35 4.65-9.74 3.59 2.51 7.42 4.91 11.85 5.5-5.52 1.35-11.03 2.73-16.5 4.24z"/></g><path d="m37.38 101.26c11.52-2.5 23.31-3.44 35.06-4.12-.68 2.72-1.4 5.43-2.15 8.13-2.9 2.31-6.25 4-10.05 4.02-4.85.14-9.51 2.55-14.38 1.72-5.79 3.62-12.75 1.73-18.94.36-1.31-1.17-2.76-2.17-4.41-2.77 4.67-2.97 9.32-6.29 14.87-7.34z" fill="#dbdbdb" stroke="#dbdbdb"/><path d="m41 151.82c8.55-1.48 16.51-4.87 24.08-9.01-.66 2.96-3.16 5.89-2.58 8.89.59.18 1.76.53 2.35.71-7.86 1.17-16.05 1.07-23.85-.59z" fill="#dbdbdb" stroke="#dbdbdb"/><path d="m98.06 108.97c6.76-3.97 13.95-7.17 21.3-9.88 2.132 1.342 9.247 14.203 10.78 18.96-7.57 6.15-12.85 14.48-17.86 22.72-8.4 3.64-16.73 8.62-26.2 8.4-7.21-.12-14.33 1.23-21.23 3.24-.59-.18-1.76-.53-2.35-.71-.58-3 1.92-5.93 2.58-8.89 6.6-14.69 19.3-25.82 32.98-33.84z" fill="#fc6d68" stroke="#fc6d68"/><path d="m122.53 104.72s.41.28.14.5c-3.01 2.56-6.57 4.33-9.69 6.72-8.27 6.61-16.02 13.83-23.36 21.45 6.27-13.71 18.53-24.25 32.91-28.67z" fill="#cf4c41" stroke="#cf4c41"/><g fill="#7b560c" stroke="#7b560c"><path d="m47.91 24.04c9.58-8.7 21.78-15.6 35.08-15.28 12.44-.48 24.67 3.4 35.06 10.12-5.76-2.83-11.51-5.94-17.88-7.18-8.58-1.72-17.48-1.63-26.13-.45-9.81 1.54-18.29 7.02-26.13 12.79z"/><path d="m67.94 26.83c9.23-3.74 19.34-4.47 29.19-4.47-9.99.82-20.38 1.61-29.42 6.35-7.18 4.73-10.76 13.11-17.58 18.3 7.94-1.35 14.33-6.74 22.12-8.51 2.91-.77 5.91-1.06 8.9-1.28-3.73.73-7.53 1.25-11.09 2.62-5.66 2.04-10.39 6.05-16.17 7.79-4.37 1.46-8.98 2.1-13.59 2.04.04-.46.13-1.36.18-1.82 3-.94 6.09-1.85 8.71-3.67 7.23-4.71 10.68-13.74 18.75-17.35z"/><path d="m97.69 35.28c2.99-2.61 6.05-5.9 10.32-6.02 8.56-1.2 16.28 4.55 21.13 11.08-4.08-3.09-7.52-7.17-12.39-9.09-5.31-2.41-12.03-1.73-16.17 2.59 4.72.58 10.01-.47 14.17 2.4 4.06 2.45 6.11 7.2 6.49 11.77.14 5.32-3.51 9.78-3.85 15.02-.18 3.17.07 6.35.11 9.53-1.12-5.61-1.93-11.58.06-17.09 1.78-5.04 1.76-11.05-1.44-15.52-4.1-5.63-12.17-6.28-18.43-4.67z"/><path d="m5.85 35.87c6.85 7.96 12.56 17.48 22.3 22.27.14-7.34 1.14-14.66 3.55-21.61-1.27 7.13-1.61 14.38-1.13 21.6 4.76-.86 9.41-2.15 14.02-3.6 14.29-4.29 29.58-3.93 44.12-1.15 3.45.63 6.7 2.43 8.61 5.45 8.57 12.11 16.41 24.73 24.19 37.36 7.31 13.25 15.57 26.04 21.41 40.03 1.78 4.5 3.69 9.99.78 14.45-4.3 6.36-11.43 9.93-17.82 13.82-6.5 3.91-13.37 7.17-20.51 9.73-16 5.82-32.82 8.81-49.15 13.51-5.16.45-11.47.8-15.53.2-3.17-.468-6.91-1.813-8.83-3.8s-2.69-5.18-2.69-8.12c.01-2.59 4.37-15.43 5.26-21.36.704-4.688.83-9.53.08-14.22-.075-1.445-3.324-10.429-3.63-10.82-3.45-6.85-6.76-13.87-11.91-19.66-4.73-5.23-8.86-11.01-11.74-17.47-.28-1.02-.56-2.03-.85-3.04-.41-1.03-1.28-4.16-1.29-4.52-.23-5.03.34-10.32 3.23-14.59 3.83-6.1 11.07-8.37 17.42-10.83-2.18-1.74-4.32-3.53-6.43-5.36-4.48.66-7.41 4.35-11.4 6 2.11-3.37 5.97-4.85 9.14-6.98-4.21-5.43-7.98-11.21-11.2-17.29m34.36 23.38c-8.56 2.21-17.6 3.78-25.13 8.7-4.1 2.63-5.74 7.43-6.91 11.91.75 11.04 6.88 20.89 14.34 28.74 1.65.6 3.1 1.6 4.41 2.77 6.19 1.37 13.15 3.26 18.94-.36 4.87.83 9.53-1.58 14.38-1.72 3.8-.02 7.15-1.71 10.05-4.02.75-2.7 1.47-5.41 2.15-8.13 11.12-.68 22.41-.55 33.29-3.3 2.62-.76 5.44-1.65 7.26-3.81-.37-3.27-2.87-5.77-4.39-8.57-3.49-5.98-8.23-11.12-11.47-17.26-1.78-2.21-3.11-4.99-5.61-6.48-4.94-2.03-10.37-2.19-15.61-2.78-12.03-1.37-24.28.43-35.7 4.31m57.85 49.72c-13.68 8.02-26.38 19.15-32.98 33.84-7.57 4.14-15.53 7.53-24.08 9.01-.54-.07-1.62-.19-2.16-.26-1.6 5.58-2.45 11.36-4.37 16.86-1.15 3.14-1.39 6.49-1.34 9.81 1.23 1.93 2.45 4.16 4.84 4.81 9.28 3.28 19.28.76 28.5-1.46.429.084 12.16-3.15 17.68-4.5 0 0 15.91-4.44 16.93-4.72 6.89-2.66 13.93-5.12 20.22-9.07 0 0 2.02-1.11 2.44-1.54 4.65-2.31 8.96-5.25 13.12-8.35 1.9-1.76 5.21-3.96 3.67-6.95-.97-2.96-4.19-3.92-6.48-5.6-3.2-2.01-5.86-5.67-10.07-5.21-4.61-.3-7.87 3.27-11.7 5.13 5.01-8.24 10.29-16.57 17.86-22.72-2.34-4.36-4.66-8.75-7.47-12.83.27-.22-.14-.5-.14-.5-1.05-1.88-2.11-3.76-3.17-5.63-7.35 2.71-14.54 5.91-21.3 9.88z"/><path d="m143.32 46.06c.96-3.87 4-6.65 6.79-9.28-3.92 6.2-5.12 13.54-5.94 20.7-.93-3.71-1.98-7.64-.85-11.42z"/><path d="m169.68 109.42c-2.43-8.71-6.03-17.03-8.57-25.71 3.68 8.25 7.42 16.67 8.57 25.71z"/><path d="m125.54 89.42c.21-.87.6-1.58 1.17-2.11 1.63 3.36 3.08 6.81 4.89 10.08 4.54 8.15 7.58 16.99 11.12 25.58-2.2-4.36-4.43-8.7-6.72-13.01-3.58-6.75-6-14.02-8.83-21.09z"/><path d="m150.74 137.62c1.08 5.09 1.78 10.69-.75 15.49-3.24 6.18-9.76 9.65-16.05 12.02 6.52-3.72 12.46-8.99 15.49-16 1.58-3.62 1.16-7.66 1.31-11.51z"/></g><path d="m105.37 174.22c7.14-2.56 14.01-5.82 20.51-9.73 2.9 1.23 5.83 2.4 8.79 3.48-.48.6-1.46 1.79-1.95 2.38 3.64 3.51 8.41 5.45 12.93 7.53 4.47 1.93 9.02 3.75 13.85 4.54-2.04.66-4.07 1.36-6.09 2.08 4.86 3.64 10.76 5.3 16.19 7.86 4.33 2.11 9.16 3.41 12.87 6.64h-2.16c-3.12-2.16-6.88-2.91-10.46-3.95-11.84-3.53-23.68-7.04-35.42-10.86-2.12-.69-4.31-1.09-6.5-1.46 1.13 1.07 2.26 2.16 3.46 3.15 1.04.81 2.09 1.61 3.15 2.42-2.03-.29-4.07-.53-6.07-.98-5.12-1.57-11.23-1.49-15.21-5.54-2.64-2.51-5.22-5.08-7.89-7.56z" fill="#36cff7" stroke="#36cff7"/></g></svg>