<svg height="691pt" viewBox="0 0 607 691" width="607pt" xmlns="http://www.w3.org/2000/svg"><path d="m260.04 0h51.57c3.68 9.53 8.61 18.53 12.17 28.11 5.82 14.62 11.58 29.26 16.81 44.09 1.59 6.23 4.68 11.93 6.38 18.12-3.16-1.48-6.45-2.7-9.82-3.6-3.31-.87-6.69.11-9.95.67.39-7.04 1.19-14.14.45-21.18-.17-2.44-2.73-3.34-4.58-4.29-8.21-3.82-17.45-3.73-26.31-3.9-7.28-.29-14.53.69-21.72 1.76-17.55 3.12-35.36 7.16-50.87 16.33-4.07 2.32-7.74 5.24-11.53 7.97-4.74 2.4-10.09 2.49-15.18 3.53-4.21 1.55-8.7 3.59-13.25 2.1-3.48-1.35-6.63-3.61-10.44-4.04 27.99-29.3 55.97-58.73 86.27-85.67z" fill="#19161b"/><path d="m311.61 0h12.6c16.28 10.32 31.94 21.67 46.32 34.54 6.55 6.05 13.12 12.21 18.26 19.56 7.21-12.6 14.88-25.02 24.29-36.12.31 4.6 2.2 9.12 1.97 13.69-3.59 3.11-10.53 5.26-9.54 11.15 1.84 10.15 3.69 20.31 6.11 30.33-1.38 4.48-4.7 8-6.06 12.48-4.5-2.42-7.44-6.71-10.86-10.35-3.63-4.02-7.56-7.76-11.7-11.26-4.71-3.96-8.79-8.68-13.99-12.04-5.6-3.64-9.86-8.89-15.29-12.74-8.2-6.36-13.31-16.15-22.25-21.62 3.4 6.85 9.63 11.65 13.9 17.91 5.48 8.13 12.11 15.42 17.46 23.65 2.8 4.26 5.2 8.77 7.97 13.05 3.65 5.61 6.1 11.88 9.17 17.8 3.72 7.56 7.75 14.95 11.88 22.29-4.46-2.6-9.1-4.87-13.55-7.49-9.43-5.67-19.75-9.57-29.93-13.59-.35-.23-1.05-.69-1.4-.92-1.7-6.19-4.79-11.89-6.38-18.12-5.23-14.83-10.99-29.47-16.81-44.09-3.56-9.58-8.49-18.58-12.17-28.11z" fill="#302d31"/><path d="m410.25 0h1.67c1.03 10.1 2.91 20.1 4.92 30.05 4.78 17.74 9.53 35.49 14.54 53.17 1.76-.71 3.54-1.39 5.32-2.07-3.1-14.3-5.47-28.74-7.78-43.19-.91-2.66 1.53-4.31 3.37-5.65 3.85-2.63 7.59-5.58 12.05-7.12 2.1 13.05 3.08 26.3 6.07 39.21 1.7 6.86 2.7 13.87 4.38 20.74.66 2.76.9 5.61.82 8.44-.56-1.16-1.19-2.31-1.45-3.58-4.33-20.74-8.85-41.49-11-62.6-4.65 2.26-8.9 5.25-12.77 8.65 1.99 13.62 4.28 27.2 6.97 40.71.5 3.29 4.01 5.05 4.46 8.42 2.19 9 5.65 17.89 5.91 27.23-1.05-1.79-1.84-3.73-2.25-5.77-1.71-8.28-3.69-16.52-6.23-24.59-4.66 1.61-9.27 3.9-12.91 7.24-1.09 2.69.48 5.84.86 8.63 4.09 19.37 11.52 37.76 18.76 56.1 1.2 2.92 2.11 5.95 2.56 9.08-1.16-1.43-2.27-2.94-2.85-4.71-3.84-10.41-7.87-20.74-11.83-31.09-4-11.87-7.62-23.94-9.61-36.32-.86-3.58 3.59-4.61 5.7-6.45-2.25-9.37-5.18-18.57-7.65-27.89-2.39-7.73-3.88-15.72-6.32-23.44-4.42 2.15-10.6 5.81-8.7 11.7 2.91 14.32 5.75 28.67 8.87 42.96 5.77 19.22 13.65 37.72 20.49 56.57 14.88 38.38 29.81 76.73 45.32 114.85.71-.11 2.13-.32 2.84-.43-3.45-11.24-5.85-22.79-7.42-34.45-.36-3.01-1-6.09-.06-9.05.59 1.94 1.15 3.91 1.43 5.94 1.33 12.64 3.86 25.2 7.89 37.26 1.99-.17 4-.34 6.01-.51-1.24-8.67-2.7-17.32-3.67-26.03-.41-2.51.22-4.99 1.01-7.36.32 11.19 3.04 22.09 3.91 33.22 4.03.08 8.06-.02 12.09.2 1.76.23 3.52.55 5.27.89 6.55-13.94 12.98-27.94 20.17-41.56-.1 4.06.6 8.12.23 12.17-.38 2.62-3.08 3.79-4.93 5.25-3.1 1.85-4.65 5.23-6.39 8.23-3.51 6.37-6.4 13.06-9.34 19.71 6.65-5.46 15-7.98 23.08-10.48 6.47-1.86 13.19-3.65 19.99-2.91 3.09.31 6.44 2.07 7.2 5.34 1.59 8.28-1.03 16.95-5.8 23.76-3.71 4.71-1.47 11.11-3.18 16.52-.92 5.96-6.68 9.13-9 14.38-1.62 3.81-5.85 7.68-10.17 5.39-8.78-4.4-15.25-12.14-21.85-19.19 3.99 11.41 7.7 22.93 10.89 34.59l-.85 1.31c-3.88-12.82-7.35-25.8-12.37-38.24l-1.12.04c-7.67.76-15.36.48-23.04.15-1.22 2.79-2.26 5.65-2.99 8.6-2.37 8.94-5.16 17.83-6.18 27.06-.17 1.13-.62 2.21-.93 3.32-1.55-11.22 4.02-21.77 5.88-32.63-4.42 8.19-7.32 17.09-11.4 25.45-3.04 8.06-7.42 15.58-10.13 23.74.73 3.5 3.46 6.07 6.15 8.22 1.47-3.22 2.86-6.47 4.56-9.58-.66 4.95-2.01 10.38-5.23 14.2.12-.76.38-2.29.51-3.05-3.4-2.5-5.88-5.95-7.84-9.64 8.12-17.49 15.35-35.38 23.31-52.94.23-.44.7-1.32.93-1.77.26-.58.78-1.74 1.04-2.32 8.47-.29 16.95.2 25.43-.13.09-3.85.02-7.69-.21-11.52-8.55-.99-17.49-2.22-25.92.12-.34-.95-.67-1.89-.99-2.83-.59-5.25-.62-10.54-.45-15.81-11.41 5.32-23.18 9.81-35.11 13.82 5.57 8.08 12.26 16.21 13.44 26.3.57 10.53-5.4 19.97-11.58 27.98-3.7 4.73-7.84 9.08-12.15 13.25 6.32 9.29 15.74 16.85 26.59 20.36l-1.94.81c-8.41-2.62-15.59-8.2-21.5-14.6-4.68-4.82-8.11-11.17-8.61-17.93-.41-9.31 6.51-16.73 7.42-25.81 1.17-5.51-1.38-10.73-2.07-16.1 4.27 5.76 4.54 13.68 2.67 20.4-1.61 7.06-6.6 13.15-6.51 20.61-.15 3.9 1.47 7.53 3.01 11.02 6.01-5.69 11.54-11.95 16.14-18.85 4.33-6.78 8.14-14.72 6.72-22.99-1.53-7.63-6.31-13.97-10.55-20.3-11.39-16.26-23.34-32.11-34.74-48.36-2.22-3.32-4.55-6.56-6.99-9.71-4.26-6.95-7.51-14.49-11.86-21.37-2.34-.39-4.72-.04-7.06.11 1.04 5.22 1.77 10.58.93 15.89-1.17 6.38-3.33 12.62-6.97 18.03-.09-.47-.29-1.4-.39-1.87 3.31-5.93 5.7-12.5 5.96-19.34-.24-4.11.51-9-1.56-12.56-7.51-.43-15.08-.15-22.58-.89-5.4-.72-10.81-3.18-13.95-7.79-2.46-3.2-2.42-7.41-2.77-11.22-11.99-1.29-24.19-3-36.2-.99-7.29 1.13-14.56 2.39-21.85 3.48.2 2.62-.49 5.71 1.51 7.82 4.75 5.76 7.69 12.74 9.34 19.98 3.86.42 7.74.63 11.63.7 2.24-4.64 2.83-9.78 3.14-14.86 4.81 3.27 7.6 8.51 10.19 13.53 3.43-.59 6.82-1.43 10.24-2.09-2 3.14-6.33 2.71-9.5 3.82 4.38 11.63 3.94 24.79-.21 36.42-1.44 4.14-3.44 8.05-5.22 12.04l-.49.92c1.93-.1 3.86-.21 5.79-.29l1.21 1.31c-2.87.43-5.79.49-8.69.34.01-.43.02-1.3.03-1.73 4.63-9.12 8.87-18.81 9.05-29.22.35-6.67-.8-13.33-2.99-19.62-3.86.48-7.74.82-11.63 1.04-2.48 4.37-5.53 8.39-9.08 11.93 1.95.61 3.92 1.2 5.85 1.91-4.34.3-8.67.78-13.02.34-2.77.82-5.36 2.17-8.04 3.26 2.79-3.01 6.59-4.69 10.49-5.7.4-4.2.39-8.43-.11-12.62-3.51-.5-6.98-1.3-10.36-2.37-1.91 12.94-7.24 26.21-18.02 34.25-.25-1.89-.49-3.78-.72-5.67-1.72 4.61-2.75 10.02-6.71 13.31-3.53.59-6.84-1.66-10.05-2.86-16.58-7.28-29.65-21.39-36.52-38.05-2.29 1.11-4.57 2.26-6.83 3.42-.79 5.85-1.08 11.74-1.56 17.61-6.65-2.19-10.77-8.25-13.47-14.36-3.07 11.92-3.34 24.87 1.12 36.48 1.49 4.21 4.4 7.7 6.13 11.79-3.94-.42-7.86-1.02-11.78-1.57-1.84 12.97-1.82 27.04 4.67 38.81 2.04 4.03 5.27 7.25 8.65 10.17.72.65 1.45 1.29 2.18 1.93-.46.08-1.38.26-1.84.35-9.96-7.01-15.06-19.09-16.03-30.93-.84-6.9-.03-13.82.66-20.68-8.93-1.99-17.21-6.21-24.02-12.31-7.37 8.11-13.24 17.72-16.35 28.28l-1.35-.52c.78-2.48 1.56-4.96 2.31-7.45-25.18-7.68-50.09-17.33-72.26-31.72-18.85-13.41-38.2-26.19-56.03-40.97-4.94-4.34-10.33-8.48-13.76-14.2-2.37-3.57 1.77-6.74 4.1-9.01.7.09 2.09.26 2.79.35 10.87-5.25 20.46-12.69 30.66-19.07 12.53-7.28 25.21-14.3 37.97-21.18 7.34-4.03 15.22-6.92 22.97-10.05 5.74-1.54 11.12-4.08 16.61-6.32 18.97-4.67 37.86-9.71 57.16-12.88 10.49-2.56 21.28-3.42 31.88-5.4 6.92-1.33 13.98-1.36 20.97-2.06 13.63-1.58 27.38-.82 41.08-.89 33.61 2.64 66.22 13.13 96.46 27.75 19.28 8.57 37.74 19 55 31.13 4.38 2.86 9.06 5.33 12.92 8.92 3.42 3.19 7.13 6.18 11.62 7.72-3.82-13.29-10.17-25.7-14.3-38.9-5.16-14.23-10.73-28.33-15.48-42.71-2.11-6.36-3.04-13.01-4.58-19.51-2.42-10.02-4.27-20.18-6.11-30.33-.99-5.89 5.95-8.04 9.54-11.15.23-4.57-1.66-9.09-1.97-13.69-.84-6.01-1.83-12-2.83-17.98m-212.73 145.29c-2.04.45-4.29.77-5.76 2.41-4.72 4.64-9.48 9.26-13.59 14.44-2.24 3.05-5.07 6.34-4.22 10.42 3.97-2.59 8.5-4.15 13.1-5.18 11.83-2.45 24.01-3.26 36.04-2.01 9.34.91 19.13 1.49 27.6 5.92 4.19 2.02 6.35 6.54 10.38 8.75 4.62 2.2 9.87 2.08 14.88 2.26 14.87.01 29.26-4.88 44.11-5.15 10.72.36 21.37 1.78 32.04 2.78-2.89-8.01-7.11-15.44-11.09-22.95-.78-1.19-1.37-2.81-2.89-3.2-24.08-7.25-49.09-11.2-74.17-12.66.41 5.94.74 11.89.57 17.85-.08 1.5.1 3.26-1.32 4.23-.69-7.4.44-14.91-1.09-22.24-21.59-1.1-43.39-.07-64.59 4.33m-22.69 6.59c-4.45 2.13-5.75 7.56-9.64 10.15.55-3.32 3.12-5.71 4.89-8.42-20.28 8.22-39.72 20.91-51.72 39.61 14.26.12 28.62-.68 42.6-3.61 6.29-1.55 12.95-2.99 18.12-7.16-3.27-3.45-6.45-7.5-6.9-12.4.76-3.88 3.41-6.99 5.78-10.01 3.64-4.65 7.92-8.73 12.1-12.89-5.12 1.42-10.32 2.67-15.23 4.73m166.98 3.05c4.59 9.25 10.03 18.18 12.91 28.17 1.08 3.94-.06 8.79-3.92 10.77 3.49 3.29 8.49 4.12 13.1 4.56 14.68.95 29.41.48 44.06-.59-5.71-10.46-16.27-16.91-25.01-24.6-6.57-5.99-15.07-8.99-23.25-12.03 2.74 4.41 6.26 8.65 7.29 13.88-.3-.21-.88-.63-1.17-.84-2.51-4.73-4.89-9.61-8.3-13.78-4.98-2.46-10.43-3.85-15.71-5.54m-151.22 13.41c-3.29 6.64-7.1 13.64-13.64 17.58-11.44 5.63-24.34 6.97-36.86 8.23-3.42 11.34-8.77 22.8-6.99 34.94 1.69 10.12 8.33 18.53 15.4 25.59-1.67-12.76-3.56-26.08.28-38.64 1-3.38 1.93-6.79 3.15-10.09.29-.99.9-1.72 1.82-2.2-.78 6.07-2.47 12.05-2.03 18.23-.13 10.67 3.53 21.65 11.34 29.14 8.71 8.49 20.98 11.82 32.78 12.99-4.29-7.01-7.17-14.93-7.94-23.14-.47-7.45.07-14.93 1.5-22.26-2.89.13-5.78.19-8.66.07.17-.32.53-.97.71-1.29 2.96-.37 5.95-.33 8.92-.61-.02-7.63-1.25-15.3-.28-22.95-.01-1.48.96-2.6 2.06-3.45-1.17 8.64-1.55 17.58.62 26.1 4.2-.66 8.87-.99 12.36-3.66.99-2.61 1.3-5.47 2.74-7.91.74-1.57 2.18-3 1.78-4.88-.87-11-.63-22.94 5.65-32.48 1.06 1.9-.53 3.72-1.1 5.48-3.61 7.78-3.38 16.58-3.13 24.97.05 3.78 1.78 7.23 3.09 10.7 3.55-1.83 7.14-3.79 9.95-6.67 1.35-1.38 2.73-2.78 4.55-3.5-2.74 5.86-8.98 8.78-14.26 11.95 2.61 4.18 4.52 8.75 7.24 12.86 8.78 12.64 21.52 22.77 36.4 27.11 1.46.33 2.56-1.13 3.19-2.26 2.65-5.08 3.81-10.78 6.2-15.97.31-.12.95-.37 1.27-.5-.1 3.24-.2 6.47-.22 9.71 9.14-8.07 13.73-20.1 15.34-31.93-4.39-1.45-8.65-3.28-12.49-5.85-2.63-1.8-5.95-3.19-7.15-6.39 6.43 3.82 12.43 8.6 19.79 10.61 1.37-8.04.75-16.25.86-24.37-7.38.53-14.98.95-22.16-1.19-6.01-1.76-8.58-8.46-14.37-10.66-9.91-4.03-20.81-4.32-31.34-5.17-8.82-.8-17.67.34-26.37 1.76m-15.62 5.53c1.17 2.85 2.93 5.39 4.99 7.67 4-3.47 6.32-8.34 8.77-12.94-4.81 1.09-9.71 2.32-13.76 5.27m210.45-.74c8.49 7.62 18.88 13.96 24.13 24.47 2.3 3.97-1.65 7.51-4.07 10.24 7.53 1.48 15.2.18 22.75-.45-9.64-12.19-21.57-22.72-35.15-30.34-2.5-1.41-4.84-3.19-7.66-3.92m-39.42 7.78c.15 3.78.02 9.55 4.07 11.26 4.16-1.16 3.58-6.96 2.88-10.34-2.29-.48-4.62-.76-6.95-.92m-60.37 27.63c3.19 1.07 6.48 1.8 9.78 2.48-1.33-6.97-4.38-13.56-8.85-19.09-.2 5.55-.23 11.1-.93 16.61m-166.63-13.49c3.4 3.63 7.01 7.08 11 10.06 2.03-1.28 4.27-2.31 5.97-4.04 1.27-2.09 1.57-4.61 2.28-6.93-6.41.57-12.82 1.01-19.25.91m194.33 4.84c-.35 4.15-1.33 8.22-2.88 12.08 3.32-.27 6.63-.67 9.92-1.25-1.74-3.97-4.08-7.66-7.04-10.83m82.29.2-.49.79c3.34 6.33 6.12 13.12 10.58 18.77 6.59-3.42 13.35-6.55 19.69-10.42-6.23.98-12.65 1.19-18.89.41-4.76-.94-7.07-5.47-8.45-9.64-.61.02-1.83.06-2.44.09m4.1.03c.96 2.38 1.84 5.23 4.32 6.44 2.71-1.26 3.93-4.41 5.23-6.94-3.2-.07-6.38.17-9.55.5m-267.83 6.17c.07 1.12.65 1.57 1.74 1.38.84-.79 1.49-2.15 1.23-3.31-1.21-.21-2.51.86-2.97 1.93m74.94 6.29c2.01-.93 4-1.91 5.97-2.94-.78-1.95-1.55-3.91-2.36-5.85-1.93 2.59-2.66 5.77-3.61 8.79m90.53.26c.71 4.38.54 8.82.05 13.21 4.14-3.62 7.97-7.79 10.26-12.85-3.44-.09-6.87-.18-10.31-.36m-103.85 5.39c1.72 5.12 5.72 8.97 10.04 12 .55-4.94.29-9.96 1.36-14.85-3.71 1.3-7.51 2.3-11.4 2.85m326.89 40.23c-4.82 2.16-10.97 5.37-10.31 11.6-.3 4.11-.41 8.23-.68 12.35 2.11 1.23 4.23 2.46 6.18 3.94 8.04 6.46 17.38 11.11 25.45 17.51-3.64-1.07-6.92-2.98-10.05-5.08-7.44-4.64-14.47-9.9-21.43-15.22.05 4.07-.31 8.8 3.03 11.81 6.02 6.01 11.62 12.64 18.83 17.3 1.98 1.45 4.82 1.47 7.01.54 3.41-2.67 4.9-6.94 7.69-10.15 1.48-1.83 3.4-3.43 4.14-5.74.72-2.5.97-5.09 1.42-7.64.53-3.86-.17-8.25 2.46-11.49 4.65-6.64 7.48-14.95 5.83-23.07-1.38-4.66-7-4.87-10.99-4.55-9.84 1.2-19.47 4.03-28.58 7.89m-38.7 2.2c-.09 1.7 0 3.42.26 5.11 7.82-1.2 15.78-.77 23.65-.44.05.48.14 1.43.19 1.91-8.01-.94-16.19-.83-24.16.33-.07 3.43.01 6.88.43 10.3 8.59.13 17.29-.62 25.78 1.09.41-6.15-.02-12.54 2.73-18.25-9.33-2.66-19.33-.62-28.88-.05z" fill="#060806"/><path d="m411.92 0h50.22c.84 9.57 2.35 19.06 3.6 28.58.45 3.06.85 6.25 2.81 8.77-1.39-12.47-3.73-24.84-4.9-37.35h4.22c1.61 7.76 1.34 16.07 4.58 23.38.01-7.89-2.14-15.57-3.02-23.38h36.73c-.04 6.64-.45 13.31.3 19.93.75-1.52 1.06-3.2 1.05-4.89.08-5.01.16-10.03.06-15.04h70.11c-4.49 18.09-8.41 36.38-14.53 54.02-.83 2.55-2.13 4.9-3.67 7.07.01-6.47 1.65-12.75 2.4-19.15 1.21-10.06 3.2-20.03 3.68-30.16-7.66.03-15.27-1.04-22.92-1.13-2.45 11.97-3.75 24.13-5.34 36.24-.92 7.19-2.38 14.4-1.94 21.68 1.99-3.97 1.75-8.51 2.37-12.8 1.7-12.38 3.07-24.8 5-37.15 3.7.85 8.04.9 10.82 3.87 3.55 3.16 2.68 8.38 2.37 12.59-2.72 21.79-7.32 43.28-11.44 64.82-1.51 9.92-4.72 19.45-7.57 29.03-5.89 21.08-12.68 41.92-17.82 63.21-.91 3.54-1.78 7.11-1.98 10.78 5.79-8.04 8.38-17.9 12.77-26.72-.1 2.3-.2 4.63-.75 6.88-2.81 11.26-6.11 22.41-8.27 33.82-3.42 14.2-8 28.26-14.89 41.17-4.03-.22-8.06-.12-12.09-.2-.87-11.13-3.59-22.03-3.91-33.22-.79 2.37-1.42 4.85-1.01 7.36.97 8.71 2.43 17.36 3.67 26.03-2.01.17-4.02.34-6.01.51-4.03-12.06-6.56-24.62-7.89-37.26-.28-2.03-.84-4-1.43-5.94-.94 2.96-.3 6.04.06 9.05 1.57 11.66 3.97 23.21 7.42 34.45-.71.11-2.13.32-2.84.43-15.51-38.12-30.44-76.47-45.32-114.85-6.84-18.85-14.72-37.35-20.49-56.57-3.12-14.29-5.96-28.64-8.87-42.96-1.9-5.89 4.28-9.55 8.7-11.7 2.44 7.72 3.93 15.71 6.32 23.44 2.47 9.32 5.4 18.52 7.65 27.89-2.11 1.84-6.56 2.87-5.7 6.45 1.99 12.38 5.61 24.45 9.61 36.32 3.96 10.35 7.99 20.68 11.83 31.09.58 1.77 1.69 3.28 2.85 4.71-.45-3.13-1.36-6.16-2.56-9.08-7.24-18.34-14.67-36.73-18.76-56.1-.38-2.79-1.95-5.94-.86-8.63 3.64-3.34 8.25-5.63 12.91-7.24 2.54 8.07 4.52 16.31 6.23 24.59.41 2.04 1.2 3.98 2.25 5.77-.26-9.34-3.72-18.23-5.91-27.23-.45-3.37-3.96-5.13-4.46-8.42-2.69-13.51-4.98-27.09-6.97-40.71 3.87-3.4 8.12-6.39 12.77-8.65 2.15 21.11 6.67 41.86 11 62.6.26 1.27.89 2.42 1.45 3.58.08-2.83-.16-5.68-.82-8.44-1.68-6.87-2.68-13.88-4.38-20.74-2.99-12.91-3.97-26.16-6.07-39.21-4.46 1.54-8.2 4.49-12.05 7.12-1.84 1.34-4.28 2.99-3.37 5.65 2.31 14.45 4.68 28.89 7.78 43.19-1.78.68-3.56 1.36-5.32 2.07-5.01-17.68-9.76-35.43-14.54-53.17-2.01-9.95-3.89-19.95-4.92-30.05z" fill="#684634"/><path d="m462.14 0h1.51c1.17 12.51 3.51 24.88 4.9 37.35-1.96-2.52-2.36-5.71-2.81-8.77-1.25-9.52-2.76-19.01-3.6-28.58z" fill="#050304"/><path d="m467.87 0h1.56c.88 7.81 3.03 15.49 3.02 23.38-3.24-7.31-2.97-15.62-4.58-23.38z" fill="#050304"/><path d="m506.16 0h1.41c.1 5.01.02 10.03-.06 15.04.01 1.69-.3 3.37-1.05 4.89-.75-6.62-.34-13.29-.3-19.93z" fill="#050304"/><path d="m602.94 0h1.37c-10.06 37.37-21.16 74.46-32.07 111.59 2.56 2.09 6.61 4.38 5.5 8.35-1.44 5.98-4.38 11.46-6.64 17.15-8.52 19.17-17.68 38.06-26.66 57.02-.16.32-.48.98-.65 1.31-.45.04-1.35.12-1.8.16 2.54-4.9 4.85-9.92 7.17-14.93l-.18-.48c.42-1.34.84-2.69 1.26-4.03l1.37 1.38c.28-1.44.6-2.88 1.07-4.27l.51-1.01c6.31-13.11 12.37-26.33 18.33-39.6 1.87-4.49 4.24-8.85 5.18-13.66.19-2.91-2.88-4.3-4.68-6.01-2.92 20.42-11.76 39.29-19.11 58.38-.21.51-.62 1.52-.83 2.03-.69.81-1.23 1.9-2.35 2.16 6.82-18.75 15.6-36.95 19.7-56.6.65-3.72 1.37-7.44 2.61-11.02 10.75-35.84 20.96-71.84 30.9-107.92z" fill="#050304"/><path d="m360.76 202.56c.43.34 1.29 1 1.71 1.34l.09.06c2.96 9.36 3.23 19.33 2.27 29.03.05 4.43-.7 8.8-2.24 12.95 6.77-2.57 12.87-7.04 16.6-13.34.1.47.3 1.4.39 1.87-.68 1.11-1.43 2.17-2.15 3.25-.19.27-.55.8-.73 1.06 6.9 12.74 4.47 29.42-4.8 40.34 14.9 18.32 24.44 43.65 16.99 67.06 4.74 2.79 10.14 4.83 13.82 9.11 5.85 6.7 11.63 13.73 14.88 22.12 2.68 5.98 3.29 13.08 8.07 17.96 6.35 6.46 14.17 11.19 21.58 16.32 1.15-8.64-1.24-17.15-4.45-25.08 8.28 3.21 17.18 5.96 26.15 4.76 3.66-.39 6.87-2.42 9.38-5.03 4.4-5.23 4.85-12.66 3.9-19.15-.56-.03-1.66-.09-2.22-.11-2.28 4.35-3.35 9.22-5.52 13.63-4.58-2.21-9.2-4.32-13.79-6.49.79-2.89 1.59-5.79 2.4-8.67-1.19-.38-2.36-.75-3.54-1.12l1.94-.81c.51.07 1.52.22 2.03.29.24-.53.72-1.59.97-2.11.84 4-1.5 7.79-2.33 11.62 3.84 2.09 7.8 3.9 11.82 5.6 2-5.4 3.96-10.81 5.79-16.28 1.3-3.75 1.5-7.84 3.49-11.34.04 4.97-1.51 9.72-2.66 14.51 3.43.45 6.87.79 10.32 1.07.33-9.7-.16-19.69 2.43-29.12.53 13.98-3.02 28.23.95 42 3.72.27 7.68 1.03 11.27-.34 3.1-2.55 2.52-6.95 2.73-10.52.02-18.69.44-37.38.17-56.07.15-1.3.39-2.6.7-3.87.69 3.54 1.04 7.14 1.13 10.76-.19 14.73-.47 29.46-.42 44.19-.03 3.68.09 7.38-.34 11.04-.3 2.6-2.34 4.53-3.1 6.96.02 2.46.86 4.83 1.41 7.21 3.45-.89 6.88-1.88 10.32-2.8 1.41-.4 2.82-.78 4.19-1.3 1.01-14.52-2.32-28.83-3.87-43.18 2 2.51 2.15 5.8 2.63 8.86.69 5.02 1.32 10.05 2.2 15.05 2.07-.89 4.14-1.8 6.2-2.74-2.29-10.66-5.24-21.16-8.23-31.64l.85-1.31c3.21 11.05 6.28 22.16 8.77 33.4-2.43 1.35-4.94 2.55-7.53 3.56.03 6.33.4 12.65.55 18.98-5.69 1.42-11.23 3.44-17.04 4.38-.8-3.03-1.48-6.1-2.05-9.18-.67.06-2 .17-2.67.23-1.02 35.49-2.11 70.98-3.1 106.47 4.32.05 8.89-.06 12.8 2.1 7.25 3.86 11.17 12.12 12.15 19.98-.9 4.17-2.72 8.11-3.28 12.37-1.13 5.81-.72 11.75-1.07 17.63-.87 9.29-8.28 17.04-17.17 19.34-.49 3.56-1.14 7.15-2.73 10.4-1.24 3-3.39 5.79-3.4 9.17-.66 23.02-1.36 46.05-2.01 69.08-.32 1.6 1.33 2.42 2.27 3.39 14.01 11.89 27.82 24.14 40.05 37.88.01.41.03 1.24.04 1.66h-1.49l-.34-.59c-.76-1.86-2.18-3.31-3.54-4.72-11.76-12.07-24.35-23.27-37.08-34.3-.35 6.81-.37 13.63-.41 20.46-.17 6.09-.58 12.19-.53 18.3-.35.01-1.06.03-1.41.05.33-28.42 1.8-56.81 2.32-85.22.73-12.32.75-24.66.93-36.99-.1-4.42 1.31-9.22-1.13-13.25-4.97-1.63-9.95-3.23-14.65-5.54-.7 9.26-.1 18.56-.67 27.83-.8 14.48-.59 28.99-1.51 43.47-.16 23.21-1.3 46.41-1.71 69.61-.41-.01-1.25-.03-1.66-.05.13-5.01.12-10.02.33-15.02.38-7.15.75-14.3.84-21.46-.3-5.72 1.15-11.68-.05-17.22-23.29-17.37-49.39-30.67-76.08-41.99.52 1.04 1.04 2.1 1.55 3.17 1.08 3.12 2 6.63.86 9.88-.97 1.22-2.47 1.82-3.67 2.77-2 2.48-1.39 5.89-.98 8.8.5 3.59 1.84 7.02 4.08 9.9 2.85-1.39 5.5-3.18 8.43-4.39 2.22-.58 4.33 1.24 5.13 3.21 4.12 9.73 8.81 19.6 9.24 30.36-.04 2.04.14 4.43-1.35 6.07-2.82 1.82-6.61 1.55-9.2 3.76-2.76 3.29-2.58 8.02-1.24 11.88 3.55.21 7.1.55 10.65.89.89 3.07 1.54 6.22 1.87 9.41l-.5.92h-1.58c-.19-2.88-.38-5.75-.6-8.62-3.77-.75-7.96-1.21-11.46.73-3.32 1.86-7.03 2.81-10.77 3.34-.24 1.51-.48 3.03-.75 4.55h-.86c1.22-13.94-1.85-27.74-5.23-41.17-4.22-15.93-9.43-31.59-15.39-46.94-1.69-4.22-3.85-8.29-4.59-12.82-4.85 2.83-10 5.08-15.14 7.31-3.59 1.44-5.93 4.66-9 6.87-12.96 9.66-28.71 14.49-44.34 17.78-10.44 2.11-21.04 3.23-31.62 4.24-1.4.12-2.82 0-4.13-.49 13.98-1.95 28.15-2.87 41.89-6.33 15.12-3.61 30.19-9.32 42.02-19.71-15.8 5.42-32.35 9.16-49.14 8.82-24.06.14-47.78-7.05-68.42-19.21 9.08 8.56 19.62 15.43 30.28 21.86 3.9 2.46 8.23 4.07 12.37 6.06-5.23.17-9.52-3.28-13.93-5.59-11.67-7.13-23.38-14.62-32.78-24.68-13.19 15.91-24.29 33.51-33.64 51.93-8.3 16.62-15.21 34.01-19.69 52.07h-1.31c9.78-38.38 28.84-74.17 53.69-104.91-2.17-1.8-5.14-4.66-8.08-2.65-5.94 4.28-11.43 9.33-15.93 15.12-3.27 4.47 3.12 8.7 2.35 13.29-1.1 3.05-2.72 5.93-4.62 8.57-1.28 2.12-3.74.22-5.47-.09-8.04 5.38-14.68 13.41-17.53 22.73-1.32 3.22 1.57 5.49 2.94 8.02.67 3.14-.65 6.34-2.4 8.9-1.37 2.29-4.45 1.32-6.64 1.59-2.47 9.85-5.21 19.62-7.82 29.43h-1.72c16.78-61.2 32.62-122.66 47.36-184.39-17 .42-33.52-4.54-49.56-9.63-12 64.9-26.84 129.24-39.44 194.02h-6.34c1.91-1.57 3.88-3.11 5.44-5.03 1.3-3.47 1.6-7.23 2.22-10.86l-.85.63c.29-.22.86-.65 1.14-.87 4.12-20.72 8.49-41.39 12.85-62.06.32-1.78.9-3.68.02-5.4-4.14-10.42-7.6-21.16-9.59-32.21-1.02-5.59-1.57-12.14 2.41-16.76 5.12-5.93 13.21-7.58 20.41-9.58 3.29-15.81 6.36-31.66 9.51-47.5-3.39 3.13-8.18 6.8-12.96 4.29-6.07-3.56-8.51-10.72-10.99-16.92-1.56-4.17-3.02-10.02 1.18-13.18 6.12-4.36 14.19-2.64 21.19-2.32-5.42-7.74-10.98-15.87-12.95-25.27-1.25-5.86 1.1-11.8 5.13-16.02-2.24-6.51-2.26-13.46-2.09-20.25-7.73 3.08-16.51 4.43-24.56 1.76-9.29-2.98-16.43-10.61-20.65-19.2-1.41-3.06-3.12-6.43-2.03-9.86 7.28 4.07 16.19 6.74 24.31 3.57 10.15-3.77 17.41-15.27 15.06-26.06-1.03-4.93-5.64-7.6-9.13-10.69-5.32-4.66-10.81-9.39-14.56-15.46-3.13-4.99-1.37-11.12.39-16.26 4.28-11.14 11.33-20.94 18.59-30.3 2.39-3.24 5.47-5.98 7.31-9.59l1.35.52c-3.55 13.22-2.73 27.7 2.69 40.31 1.76 4.2 3.8 8.28 6.1 12.21.13-7.9-1.27-17.37 4.89-23.5.48 6.45-.12 13.26 2.85 19.25 5.75 12.35 18.7 19.63 31.47 22.72 1.61-8.17 1.05-16.84 4.73-24.52 1.38-3.03 3.1-6.05 5.91-7.95 1.09 7.64-1.13 15.47.98 23.01 1.14 4.66 3.78 8.73 6.57 12.56 4.78-1.94 8.83-5.18 13.37-7.56-3.68-6.24-6.52-13.07-6.81-20.4-5.89-3.12-11.86-6.2-17.01-10.49.46-.09 1.38-.27 1.84-.35 6.78 4.94 14.2 8.94 22.02 11.95-2.61-4.92-3.97-10.8-2.46-16.27.79-2.74 2.96-4.7 5.13-6.38 5.43-1.92 11.27-.97 16.9-1.18 15.11-.21 30.31-.26 45.29-2.57 5.85-.39 12.12.21 17.18 3.41 4.11 2.66 4.02 8.2 4.05 12.54-.09 5.89-3.75 10.79-7.61 14.88 5.1-1.85 10.32-3.58 14.84-6.66 1.42-.95 2.81-1.95 4.19-2.95-.12-7.15 3.2-13.85 8.35-18.69-2.17-4.49-3.92-9.36-3.55-14.43.12-5.35 3.16-10.08 6.92-13.67-2-4.29-3.48-8.81-4.29-13.48-1.85.22-3.7.47-5.55.68l-1.21-1.31c14.95-1.93 30.19-9.3 37.79-22.86 4.09-6.36 3.54-14.22 3.11-21.42-.29-4.5-1.26-8.93-2.85-13.15.01-.33.04-.97.05-1.29m-5.35 44.91c-5.25 4.49-7.87 11.11-10.25 17.4 5.36-4.51 11.12-8.74 17.87-10.91-.14.4-.42 1.21-.55 1.61-6.74 3.11-13.24 7.02-18.12 12.72-1.37 3.87-2.06 7.93-3.01 11.92-2.44-.66-4.49-2.14-6.47-3.64-1.32 1.64-3.87 3.03-3.8 5.31 2.43 4.56 5.36 9.13 5.22 14.53l-1.36-.8c-1-4.42-2.41-8.74-4.98-12.52-3.7 7.84-.58 17.25 4.56 23.74 1.72-8.11 6.47-14.89 10.63-21.86-.6-.16-1.79-.48-2.39-.64 4.27-2.48 8.56-5.03 12.16-8.45 8.61-7.61 12.41-19.35 12.88-30.55-2.36 1.1-4.82 1.98-7.42 2.24.83-3.43 2.34-6.69 2.66-10.24-2.41 3.48-4.45 7.27-7.63 10.14m13.95-3.11c.11 10.76-3.78 21.3-10.2 29.86.99 2.76 2.42 5.38 2.97 8.3 4.26-.88 8.09-3.34 10.67-6.85 3.8-5.26 5.35-11.73 6.29-18.06.21-6.08-.4-12.53-3.76-17.76-1.91 1.61-3.91 3.1-5.97 4.51m-31.2 14.73c1.52 2.4 3.12 4.76 4.81 7.05 1.52-4.22 2.89-8.52 5.24-12.38-3.32 1.84-6.71 3.55-10.05 5.33m-7.25 2.21c1.26 6.28 2.5 13.86 9.03 16.81.9-3.33 1.72-6.68 2.48-10.04-2.31-2.6-3.71-5.97-6.03-8.46-1.86.46-3.67 1.08-5.48 1.69m17.52 22.15c-2.98 4.03-5.63 8.3-8.14 12.63 4.27-2.52 8.56-6.07 13.82-5.82-2.23 1.99-5.34 2.38-7.84 3.92-2.88 1.68-5.78 3.57-7.91 6.17-1.81 4.03-2.54 8.44-2.98 12.81-2.52-2.01-1.21-6.45-4.26-8.36-1.95 2.22-3.9 4.48-5.25 7.14-.53 1.03-1.36 2.42-.21 3.4 2.15 2.58 4.48 5.11 5.64 8.33-3.33-1.4-4.17-5.43-7.1-7.36-1.58 7.31.8 14.83 5.22 20.67 1.38-7.85 3.15-16.05 8.1-22.51 3.14-3.51 6.88-6.51 10.9-8.95 5.11-2.13 7.56-7.57 9.87-12.24 2.76-5.62 2.81-12.41-.26-17.92-3.18 2.71-6.78 4.99-9.6 8.09m13.77.72c-.27 2.91-1.57 5.79-1.36 8.69 9.25 11.88 9.95 28.71 4.01 42.23-.04.45-.13 1.36-.17 1.81 7.86 2.77 15.59 5.9 23.39 8.85 1.62-7.14 2.78-14.43 1.96-21.76-1.4-16.24-8.95-31.42-18.96-44.05-2.7 1.92-5.71 3.31-8.87 4.23m-239.79 28.29c-2.52 5.21-5.11 10.63-5.21 16.54-.59 4.55 2.8 8.13 5.44 11.4 4.68 5.68 10.82 9.82 16.14 14.83 4.21 3.96 5.1 10.31 3.58 15.69-1.89 8.84-8.8 16.44-17.51 18.96-7.44 2.22-15.49.4-22.23-3.11 2.5 10.85 10.39 20.57 20.75 24.78 8.02 2.8 17.11 1.96 24.87-1.29 3.41-2.5 3.1-8.86 7.62-10.1-1.97 4.22-5.03 8.13-5.54 12.89-.17 5.95.04 12.01 1.7 17.76 7.4-4.69 16.09-8.06 21.43-15.35 6.9-9.7 8.45-21.94 9.53-33.48.32-4.85 3.46-8.91 6.69-12.29 5.95-5.93 12.9-10.78 20.14-15-4.13-4.6-6.75-10.47-7.63-16.57-.42-5.38.09-10.78-.15-16.17-3.86 5.61-5.77 12.32-6.27 19.06-.61 3.92.1 8.36-2.53 11.68-13.31-2.75-26.62-10.5-32.85-23.01-2.47-4.56-2.75-9.79-3.78-14.73-2.31 6.6-1.21 13.65-1.15 20.47-1.84.63-2.44-1.39-3.32-2.44-8.68-14.32-13.34-31.6-9.99-48.27-7.76 8.33-14.09 17.89-19.73 27.75m237.23-18.35c-1.8 3.99-4.38 7.5-6.93 11.03 2.26 8.46 3.07 18.26-2.81 25.52 2.94 1.15 6.25 1.72 8.63 3.95 1.22 1.23 3.02 1.33 4.62 1.74 5.83-13.36 6.15-29.9-2.7-42.04-.2-.05-.6-.15-.81-.2m-77.35 9.28c-16.3 1.46-32.67 1.52-49.02 1.83-1.44 3.75-2.41 7.67-2.79 11.68-.72 4.2-.37 8.5 1 12.53 4.77 2.49 10.15 3.15 15.35 4.23 13.58 2.41 27.57 3.08 41.23.95 4.65-.68 9.6-1.18 13.62-3.83 4.14-3.3 7.29-8.24 7.38-13.66-.03-4.09.36-9.12-3.47-11.78-7.04-4.05-15.61-3.33-23.3-1.95m52.68 18.54c-2.31 5.09-2.76 10.76-4.44 16.06.66 1.06 1.31 2.12 1.96 3.2-2.91-.45-4.14-3.36-5.74-5.44-2.07.87-3.44 2.66-4.88 4.29 2.22 2.91 3.95 6.2 4.16 9.93-3.13-1.27-2.03-6.12-5-7.99-.92 2.57-1.36 5.3-1.18 8.03.36 4.82 1.08 10.3 5.51 13.17 1.32-3.57 1.25-7.49 2.76-11.01 2.7-6.71 6.57-13.39 12.92-17.23 3.24-1.89 6.69-3.8 8.76-7.06 4.46-6.41 3.38-14.88 1.37-21.97-6.84 3.44-13.27 8.76-16.2 16.02m-67.06 22.71c-12.83-.75-25.07-5.67-35.79-12.59-.01 6.52-.2 13.16 1.49 19.52 1.74 6.7 8.1 10.51 13.37 14.28 14.57 9.65 32.92 10.74 49.75 8.13l.13 1.43c-7.86 1.11-15.84 2.03-23.75.97-13.98-1.23-27.2-7.71-37.26-17.4.01 7.99-.67 15.95-1.31 23.91-.16 2.78-.4 5.62.2 8.37.17 1.63 2.27 1.5 3.41 2.02 12.41 3.27 25.08 5.52 37.86 6.68 11.25.84 22.72 1.28 33.82-1.18.61-5.83 1.68-11.81 5.49-16.48 1.8-1.35 3.34-3.06 5.25-4.26 2.96-.5 6.02-.48 9-.14 2.65 1.29 4.03 4.13 6.22 5.99 2.81 9.43 6.78 19.02 5.55 29.07-.66 5.16-.58 11-4.47 15-1.79 1.28-3.94.01-5.79-.44-.58 1.11-1.16 2.21-1.74 3.32-1.63.68-3.44 2.21-5.24 1.11-2.35-1.87-4.16-4.3-6.18-6.49-4.84-7.26-7-15.79-8.09-24.35-19.61 1.99-39.61 1.19-58.83-3.29-5.87-1.19-12.16-1.19-17.36-4.55-.99-4.03-1.13-8.2-.64-12.31.99-7.6.87-15.28 1-22.91-1.18-4.06-1.6-8.46-3.77-12.14-3.94 1.95-8.76 3.32-10.78 7.63-4.59 6.15-5.04 14.07-6.04 21.4-2.18 14.31-.75 28.81-1.44 43.21-.36 4-2.31 7.6-3.38 11.43-1.56 4.64-2.15 9.51-3 14.31-2.26 9.84-3.09 20.08-1.79 30.12.76 6.1 1.33 12.37 3.91 18.04 2.08 4.52 3.74 9.36 7.03 13.2 2.81 3.25 5.02 6.97 7.95 10.13 1.9 2.07 3.21 4.76 3.09 7.62.69 6.75-6.87 10.51-7.17 17-.18 4.18-1.45 8.5-.15 12.59 3 3.28 7.22 4.98 11.11 6.94 14.93 7.96 31.7 11.95 48.47 13.45 16.07 1.55 32.54 1.53 48.25-2.65 8.51-1.72 16.56-5.05 24.48-8.52 3.51-1.61 6.3-4.35 9.65-6.23 6.47-3.8 13.23-7.4 18.36-13 4.62-3.41 8.22-8.06 10.8-13.15 2.03-4.43-1.51-8.56-4.03-11.87-3.83-4.47-5.9-10.06-9.29-14.81-2.03-2.81-2.92-6.37-2.04-9.77 1.32-6.31 2.07-12.7 2.96-19.08-.35-.53-1.06-1.6-1.41-2.13-1.88 2.59-1.92 6-3.2 8.9-.47.83-.77 2.26-2.02 1.96-3.47-6.59-5.63-13.98-10.42-19.82-2.11-1.96-4.89-3-7.01-4.94-1.84-1.86-3.17-4.49-2.52-7.15 1.38-7.37 4.15-14.39 6.83-21.37 1.15-3.31 3.76-6.35 3.19-10.06-.91-10.07-3.19-20.02-2.45-30.19.4-.33 1.2-.97 1.59-1.29l-.28 1.07c.23 10.45 1.32 20.93 3.84 31.09-4.02 9.51-8.58 18.93-10.63 29.12-.43 2.28-.77 5.26 1.38 6.82 7.75 6.25 17.7 9.02 25.18 15.68 15.36-3.21 30.65-7.02 45.53-11.99 4.79-1.59 9.81-3.01 14-5.9 6.59-6.96 11.38-15.54 14.3-24.65.9-2.78 1.22-5.85.54-8.71-1.44-3.01-4.23-5.08-6.8-7.08-6.49-4.53-13.16-8.86-19.24-13.95-3.71-3.05-6.68-7.07-8.07-11.7-2.85-9.53-6.92-18.94-13.73-26.35-3.66-5.3-8.56-9.64-14.56-12.11l-.05-.14c-10.53-4.73-21.29-9.01-32.4-12.18.32 5.96.18 11.93.46 17.89l-1.51.25c-.57-5.79.06-11.72-1.3-17.41-2.86-2.12-6.76-3.99-10.37-2.91 1.98 3.49 4.31 7.09 3.93 11.32.37 4.46-1.99 8.29-4.16 11.95-5.18 3.09-10.35 7.86-16.84 6.78-4.61-.04-7.45-4.08-9.58-7.6-.65-3.36-1.7-6.76-1.17-10.2.48-5.12 3.35-9.79 7.39-12.9-1.37-2.95-2.5-6.01-3.32-9.15-14.9 12.84-34.48 21.17-54.39 19.79m-48.93-17.66c.39 6.78 3.1 13.14 6.47 18.94 1.72-.67 3.57-1.19 5.04-2.36.69-3.91-.11-7.97.14-11.94-3.79-1.78-7.63-3.46-11.65-4.64m37.06 9.76c.47 1.54.87 3.13 1.48 4.66 19.13 4.84 39.53-.67 55.59-11.53-18.06 7.04-37.88 8.81-57.07 6.87m-17.36-2.48c5.46 2.83 11.2 5.06 17.06 6.92-.91-1.85-.83-5.27-3.67-5.01-4.54-.21-8.84-2-13.39-1.91m88.75 30c2.64-.03 5.51.49 7.92-.92 5-2.74 9.88-6.56 11.98-12.05 1.89-5.59.07-12.02-4.11-16.1-9.89 6.05-15.3 17.74-15.79 29.07m-136.19 6.06c-3.29 3.18-6.29 7.1-6.71 11.82-.88 10.08-2.32 20.43-6.96 29.56-3.19 6.26-8.53 11.11-14.62 14.5-4.86 2.87-10.61 5.1-13.56 10.25-2.9 4.22-2.9 9.78-1.31 14.49 2.63 8 7.34 15.08 12.14 21.92 1.1 1.49 2.2 3.2 4.1 3.75 12.61 4.88 25.94 7.99 39.44 8.82-4.18-18.36-1.95-37.53 2.99-55.5.22-1.55 1.43-3.34.34-4.79-4.61-7.68-8.85-15.6-12.43-23.81-1.72-4-3.72-7.94-4.58-12.24 1.01.59 1.83 1.43 2.18 2.59 4.49 11.21 9.69 22.21 16.1 32.46 1.33-3.55 2.17-7.27 2.23-11.07.32-10.68-.2-21.38.38-32.05.93-9.15 2.47-18.23 4.73-27.14-9.22 3.65-17.37 9.58-24.46 16.44m293.13-2.36c-.15 9.37-.86 18.73-.64 28.11-.15 2.71.62 5.87-1.48 8.06-.15-7.42.41-14.83.44-22.25-1.78 4.49-5.08 8.53-9.81 10.05-9.07 3.04-18.76.28-27.48-2.65 2.6 7.36 4.8 15.34 3.11 23.17 2.27 2.04 4.87 3.93 6.23 6.76 1.47 2.95.93 6.39.06 9.44-2.58 8.87-7.17 17.11-13.13 24.16 7.74-2.49 16.74-4.94 24.39-.91 4.25 2.37 3.86 8.01 2.39 11.95-2.54 6.77-6.43 13.07-11.15 18.52-5.09 2.86-10.1-2.37-13.86-5.31 2.72 9.55 5.39 19.12 7.98 28.72 3.91.48 7.84.77 11.77 1.08 2.64-8.74 7.17-18.52 16.57-21.5.99-26.51 1.22-53.06 2.51-79.55 1.15 2.6.99 5.42.88 8.18-.19 23.65-1.81 47.27-1.72 70.92 2.96.62 5.47 2.3 7.46 4.55 1.66-.37 3.33-.73 4.99-1.12 1.29-.13 2.58-.28 3.88-.47.61-23.96 1.41-47.91 2.05-71.87.22-11.38 1.03-22.75.88-34.14-.74 0-2.21-.01-2.95-.01-1.62-.53-3.5-.64-4.81-1.79-1.01-3.87-1.39-7.87-2.22-11.78-2.12-.18-4.23-.27-6.34-.32m-165.53 11.91c-3.56 4.66-6.77 10.07-6.87 16.11-.87 11.23 3.46 22.24 9.72 31.37 1.36 1.52 3.21 4.74 5.53 2.96 1.26-1.91 2.33-3.94 3.61-5.83 1.4.9 2.79 1.81 4.19 2.71.75-1.35 1.62-2.66 1.91-4.21 1.01-4.3 2.85-8.49 2.68-12.98.17-8.53-2.9-16.67-6.29-24.35-1.18-2.42-2.13-5.05-4.03-7.01-3.4-.34-7.65-1.26-10.45 1.23m121.97 74.81c-.23-.03-.68-.1-.91-.13 2.06 6.65 4.82 13.6 3.38 20.67 3.64 2.94 7.45 7.35 12.61 6.6 4.26-3.88 6.95-9.25 9.67-14.28 1.74-3.72 3.52-8.01 2.16-12.13-1.2-2.56-4.3-3.47-6.84-4.03-6.82-.89-13.83.52-20.07 3.3m-10.74 4.8c-16.37 5.81-33.33 9.74-50.21 13.73 2.03 5.83 3.99 12.12 8.51 16.55 16.09-1.55 31.24-7.56 46.3-13.05l-.01-.11c2.37-.9 4.98-1.4 7.09-2.87 1.28-6.05-1.35-12.1-3.04-17.84-2.9 1.16-5.75 2.42-8.64 3.59m-65.79 4.71c2.28 4.97 4.49 9.97 6.43 15.09 1.85-2.99 2.18-6.65 3.21-9.99-3.16-1.81-6.32-3.62-9.64-5.1m-220.12 10.03c-3.05.42-6.57 1.78-7.77 4.86-1.1 5.76 1.86 11.2 4.13 16.29 1.71 3.66 3.99 7.49 7.75 9.33 4.75 1.74 9.33-1.88 12-5.49 1.56-1.89-.06-4.16-.33-6.18-.58-5.05.51-10.07 1.23-15.04.53-1.92-1.38-3.72-3.23-3.64-4.58-.43-9.2-.43-13.78-.13m289.64 4.59c-13.9 5.23-28.05 10.01-42.75 12.42 7.12 21.8 14.58 43.96 27.67 63.02 3.41 4.81 7.91 9.96 14.28 10.19 9.62.46 19.03-2.09 28.41-3.83 5.06-1.2 10.46-1.43 15.12-3.96.53-4.18 1.06-8.48-.39-12.55.41-10.04 1.15-20.16-.3-30.16-1.21-2.28-3.79-3.96-3.63-6.83.21-3.33-.42-7.35 2.01-10 .29 3.95-.96 7.96-.02 11.85 1.26 3.64 5.79 4.24 9.06 3.48 2.94-3.78 3.91-8.7 4.45-13.36.18-3.83.27-8.33-2.63-11.25-2.57-1.99-6.06-.76-8.56.71-5.98 3.75-9.22 10.5-11.24 17.02-1.8 5.5-.88 11.33-1.7 16.97-1.45-1.96-1-4.49-1.15-6.75.14-2.48.29-4.95.45-7.42-4.6-.13-9.3-1.38-13.81.08-5.83 1.6-11.66 3.75-16.69 7.15-3.16 3.18-4.87 7.7-8.66 10.22 1.42-3.69 3.89-6.85 6.42-9.85 2.81-3.29 6.98-4.78 10.81-6.51 2.94-1.26 6.03-2.11 9.15-2.81-2.86-10.26-5.66-20.54-8.59-30.78-2.62.86-5.19 1.85-7.71 2.95m-272.45 13.3c.12 1.29.28 3.21 1.88 3.5 15.7 4.89 31.84 9.84 48.46 9.36-2.76-5.42-5.27-10.96-7.1-16.77-.32-1.69-2.41-1.12-3.61-1.47-13.1-.97-25.89-4.42-38.17-8.97-.87 4.72-1.59 9.53-1.46 14.35m217.81-15.19c-.8 6.43-2.85 12.69-3.07 19.18 1.3 7.52 6.48 13.57 10.71 19.67 2.77-2.64 5.54-5.29 7.98-8.25-1.62-5.33-3.55-10.56-5.22-15.87-6.15-2.28-7.38-9.64-10.4-14.73m110.52 13.87c.55 7.26-.6 14.72-3.67 21.33-1.63 3.14-5.66 2.09-8.49 2.11 1.17 9.87.66 19.83.19 29.73.07 1.3.52 2.8 1.75 3.49 4.3 2.48 9.1 3.89 13.84 5.31.92.16 1.41 1.03 2.08 1.61.78 1.9 2.35 3.69 4.61 3.47 8.08-.21 15.07-6.76 17.37-14.27 1.66-5.73.53-11.76 1.25-17.61.21-5.56 2.51-10.69 3.81-16.01-.97-7.38-4.72-15.21-11.7-18.61-4.68-2.29-10.07-1.72-15.11-1.67-1.99.34-3.96.7-5.93 1.12m-276.27 16.62c-.59 2.61-1.15 5.23-1.71 7.85 3.24 4.29 7.15 8.07 11.66 11 1.03-2.58 1.19-5.59-.61-7.88-2.92-3.8-5.86-7.65-9.34-10.97m174.27 9.59c1.96 3.14 5.47 5.91 4.52 10.07-1.24 6.78-6.86 11.37-10.92 16.54 2 4.72 2.85 10.37.47 15.12-1.15 2.64-3.53 4.39-5.6 6.26.86 5.55 1.15 11.16 1.88 16.72 3.09-1.46 6.04-3.23 9.26-4.4 1.42-.6 3.23.08 3.97 1.44 2.74 4.4 4.82 9.17 7.09 13.83 21.1 8.47 41.32 19.03 60.7 30.89 3.14 2.05 6.11 4.9 10.05 5.14 3.14-3.14 5.05-7.52 6.76-11.59.71-8.48.67-17.03.88-25.54.36-11.18.78-22.39.93-33.59-5.71 3.01-12.29 3.27-18.45 4.77-8.66 1.53-17.33 3.89-26.2 3.38-5.41-.27-10.08-3.67-13.21-7.9-11.25-14.39-17.86-31.65-24.24-48.58-2.7 2.41-5.19 5.03-7.89 7.44m-176.54.12c-2.12 8.96-4.34 17.91-6.51 26.86 3.81.7 7.56 1.66 11.31 2.65.21-6.92 2.15-13.7 6.53-19.14-4.37-2.76-8-6.47-11.33-10.37m120.8 53.74c-12.66 3.33-25.73 5.99-38.89 5.19-18.82-.88-37.76-3.78-55.37-10.66-4.07-1.47-7.7-4-11.93-5 .09 2.31.38 4.96 2.77 6.04 11.03 6.14 23.18 10.1 35.44 12.98 18.88 3.68 38.35 6.07 57.53 3.23 18.53-2.76 36.56-9.03 52.79-18.38 2.79-1.76 5.51-4.09 6.56-7.33 1.53-4.02.68-8.44-.74-12.35-13.35 12.95-30.76 20.49-48.16 26.28m-127.77-25.29c-6.15 25.45-12.8 50.82-19.18 76.18 7.37-3.76 14.18-8.56 20.35-14.07-1.28-2.89-3.55-6.4-1.3-9.42 4.59-6.43 10.73-11.61 17.02-16.31 2.99-2.25 6.41.48 8.88 2.22-.13-4.99.33-9.97.46-14.95-1.95-1.18-4.19-2.21-5.4-4.24-1.03-1.77-.26-3.82-.08-5.69-2.66-1.74-5.51-3.26-7.81-5.49-1.49-1.41-1.14-3.66-1.48-5.5-3.74-1.23-7.58-2.11-11.46-2.73m-72.66 13.9c-3.41 3.84-2.85 9.35-2.27 14.07 1.93 11.17 5.2 22.11 9.53 32.58 4.18-18.44 7.83-37.02 11.58-55.56-6.61 1.98-14.17 3.36-18.84 8.91m365.4-.39c-.06 4.49-.34 8.97-.23 13.46 2.4-3.98 3.8-8.48 4.22-13.09-1.34-.14-2.67-.26-3.99-.37m-170.77 24.57c-20.31 3.79-41.19 1.39-61.29-2.52-11.33-2.54-22.86-5.2-33.19-10.68-.52 3.79 3.86 4.09 6.26 5.64 6.76 3.62 14.22 5.89 20.81 9.77-4.29.14-7.86-2.58-11.7-4.06-5.08-2.48-10.51-4.28-15.23-7.44-.1 2.59-.15 5.18-.14 7.79 5.05 2.44 10.03 5.11 15.43 6.72 2.32.83 4.98 1.12 6.78 2.97-7.97-.96-15.49-4.48-22.37-8.5.12.62.35 1.85.47 2.47 21.15 14.09 46.62 21.63 72.04 21.44 21.76.07 43.31-5.73 62.68-15.51 2.46-1.44 5.87-2.06 7.07-4.95-3.88 1.82-7.66 4-11.93 4.74 4.09-4.08 10.84-4.1 14.73-8.64-.62-5.52-1.06-11.05-1.8-16.55-15.41 7.73-31.64 14.08-48.62 17.31m54.44-1.59c-2.17 1.28-4.71 2.5-5.65 5.03-1.56 2.95-.59 6.35.72 9.2 3.13 6.69 5.56 13.69 8.01 20.66 2.68-2.09 5.42-4.16 8.53-5.57-1.92 3.05-5.4 4.47-8.18 6.57 5.12 14.59 9.62 29.42 12.78 44.56 3.57-.48 7.02-1.54 10.54-2.28-2.38 2.97-6.89 2.42-10.26 3.43 1.27 7.2 2.41 14.46 2.19 21.8 3.92-.95 7.97-1.78 11.39-4.05-2.2-2.97-1.59-6.87-1.29-10.29.51-3.25 3.41-5.2 6.12-6.55 1.67-.36 3.47-.38 5.03-1.14 1.34-1.43 1.19-3.61 1.24-5.43-.45-9.47-4.14-18.33-7.86-26.92-.96-1.92-1.36-4.88-3.96-5.18-2.93.92-5.35 2.93-8.1 4.25-3.25 1.06-6.24 3.29-9.78 3.09 1.9-1.26 3.91-2.35 5.92-3.42-1.79-5.79-4.05-11.73-3.17-17.89.12-1.35 1.15-2.3 1.89-3.33 1.55-.7 3.81-1.36 3.36-3.56-.29-7.7-4.5-14.57-7.71-21.37-1.2-1.82-1.68-4.89-4.33-4.98-2.66.69-4.99 2.19-7.43 3.37m-196.32 41.87c-1.08 4.33-2.29 8.62-3.4 12.95 3.77-6.58 8.75-12.62 14.94-17.04 1.78-1.59 4-.72 5.93.04 2.11-3.23 5.1-6.64 4.73-10.76-7.04 5.41-14.16 10.89-22.2 14.81m285.24 6.6c2.07 1.32 4.06 2.76 6.01 4.26.17-4.61.28-9.21.42-13.81-1.9 3.33-3.51 6.94-6.43 9.55m-291.4 15.74c-.69 4.61-2.18 9.04-3.33 13.55.83.07 2.49.2 3.32.26 2.39-.91 3.11-3.87 3.72-6.1.83-3.23-2.46-5.15-3.71-7.71z" fill="#050304"/><path d="m480.75 277.72c.32.94.65 1.88.99 2.83 1.07 3.73 1.47 7.7.7 11.53-.26.58-.78 1.74-1.04 2.32-.23.45-.7 1.33-.93 1.77-.11-1.65-.27-3.3-.28-4.95l.17-.94c2.06-3.96.47-8.37.39-12.56z" fill="#050304"/><path d="m330.34 355.78c1.27-4.92 7.17-6.72 11.66-7.57-.56 1.79-2.63 2.01-4.05 2.8-2.8 1.14-5.12 3.11-7.61 4.77z" fill="#050304"/><path d="m386.28 387.41c.93-1.31 2.11-2.41 3.39-3.37-1.04 3.5-3.63 6.17-5.75 9.03-3.83 4.83-7.22 9.99-10.87 14.95-2.17 2.93-3.7 6.39-6.64 8.66.4-1.51.92-2.99 1.86-4.26 5.72-8.54 11.83-16.8 18.01-25.01z" fill="#050304"/><path d="m493.57 504.67c5.04-1.55 10.41-.76 15.42.55 2.05.65 3.95 1.72 5.64 3.06-1.07-.23-3.19-.71-4.26-.95-5.4-2.01-11.19-1.81-16.8-2.66z" fill="#050304"/><path d="m493.91 521.22c3.61.84 7.36 1.96 10.14 4.54-3.47-.13-6.58-1.93-9.62-3.4-.13-.28-.39-.85-.52-1.14z" fill="#050304"/><path d="m577.68 0h25.26c-9.94 36.08-20.15 72.08-30.9 107.92-1.24 3.58-1.96 7.3-2.61 11.02-4.1 19.65-12.88 37.85-19.7 56.6-1.77.96-1.64 3.09-.75 4.63l.18.48c-2.32 5.01-4.63 10.03-7.17 14.93l-.08.13c-3.46 7.25-7.06 14.43-10.5 21.69-7.19 13.62-13.62 27.62-20.17 41.56-1.75-.34-3.51-.66-5.27-.89 6.89-12.91 11.47-26.97 14.89-41.17 2.16-11.41 5.46-22.56 8.27-33.82.55-2.25.65-4.58.75-6.88-4.39 8.82-6.98 18.68-12.77 26.72.2-3.67 1.07-7.24 1.98-10.78 5.14-21.29 11.93-42.13 17.82-63.21 2.85-9.58 6.06-19.11 7.57-29.03 4.12-21.54 8.72-43.03 11.44-64.82.31-4.21 1.18-9.43-2.37-12.59-2.78-2.97-7.12-3.02-10.82-3.87.36-2.15.8-4.28 1.26-6.41 6.66.24 13.29.99 19.96 1.15-1.15 12.78-3.36 25.44-5.15 38.15-2.14 13.17-3.99 26.39-6.87 39.43-.68 3.04-1.29 6.1-1.51 9.22 3-4.14 2.78-9.53 4.14-14.29 2.06-8.17 2.23-16.76 4.92-24.78 1.54-2.17 2.84-4.52 3.67-7.07 6.12-17.64 10.04-35.93 14.53-54.02z" fill="#bd9e70"/><path d="m552.08 173.38c.21-.51.62-1.52.83-2.03l.28.89-.51 1.01z" fill="#bd9e70"/><path d="m542.64 10.65c7.65.09 15.26 1.16 22.92 1.13-.48 10.13-2.47 20.1-3.68 30.16-.75 6.4-2.39 12.68-2.4 19.15-2.69 8.02-2.86 16.61-4.92 24.78-1.36 4.76-1.14 10.15-4.14 14.29.22-3.12.83-6.18 1.51-9.22 2.88-13.04 4.73-26.26 6.87-39.43 1.79-12.71 4-25.37 5.15-38.15-6.67-.16-13.3-.91-19.96-1.15-.46 2.13-.9 4.26-1.26 6.41-1.93 12.35-3.3 24.77-5 37.15-.62 4.29-.38 8.83-2.37 12.8-.44-7.28 1.02-14.49 1.94-21.68 1.59-12.11 2.89-24.27 5.34-36.24z" fill="#010313"/><path d="m331.47 17.62c8.94 5.47 14.05 15.26 22.25 21.62 5.43 3.85 9.69 9.1 15.29 12.74 5.2 3.36 9.28 8.08 13.99 12.04 4.14 3.5 8.07 7.24 11.7 11.26 3.42 3.64 6.36 7.93 10.86 10.35.72 9.76 1.87 19.69-.06 29.38-.49 3-2.07 5.63-3.97 7.93-1.57-.62-3.07-1.37-4.61-2.03-.12-3.65-1.94-6.75-5.07-8.59-4.13-7.34-8.16-14.73-11.88-22.29-3.07-5.92-5.52-12.19-9.17-17.8-2.77-4.28-5.17-8.79-7.97-13.05-5.35-8.23-11.98-15.52-17.46-23.65-4.27-6.26-10.5-11.06-13.9-17.91z" fill="#1b181c"/><path d="m275.04 59.78c7.19-1.07 14.44-2.05 21.72-1.76 6.2 1.19 13.26.7 18.5 4.76 2.56 1.87 2.72 5.3 3.09 8.17.81 8.64 1.1 17.44-.75 25.97-10.45-2.29-21.19-2.9-31.79-4.22-14.25-.56-28.57-2.18-42.81-.43-8.67.28-17.34 2.07-26.01 1-2.81-1.98-3.04-6.16-4.35-9.19 3.79-2.73 7.46-5.65 11.53-7.97 15.51-9.17 33.32-13.21 50.87-16.33z" fill="#442a38"/><path d="m296.76 58.02c8.86.17 18.1.08 26.31 3.9 1.85.95 4.41 1.85 4.58 4.29.74 7.04-.06 14.14-.45 21.18-.33 3.7-.61 7.39-.79 11.09-2.93-.55-5.9-.92-8.81-1.56 1.85-8.53 1.56-17.33.75-25.97-.37-2.87-.53-6.3-3.09-8.17-5.24-4.06-12.3-3.57-18.5-4.76z" fill="#694b62"/><path d="m97.43 80.45c8.68-4.62 18.95-4.27 28.51-3.9 15.58 1.24 31.37 3.2 46.08 8.74 2.83 2.28 6.4 3.3 9.33 5.38 2.77 2.33 1.89 6.85-1.09 8.57-5.38 3.3-11.93 3.41-17.82 5.32-8.32 2.88-17.21 3.54-25.53 6.39-3 1.09-5.37 3.37-8.33 4.53-3.24.75-6.67.23-9.86 1.24-4.04 1.5-7.59 4.28-11.9 5.06-2.6.52-5.12-.6-7.57-1.33-3.04-8.09-6.43-16.15-8.05-24.68-1.17-5.75.73-12.49 6.23-15.32z" fill="#331b26"/><path d="m327.2 87.39c3.26-.56 6.64-1.54 9.95-.67 3.37.9 6.66 2.12 9.82 3.6.35.23 1.05.69 1.4.92.29 4.27-.73 8.43-2.51 12.28-6.37-2.09-13.2-2.45-19.45-5.04.18-3.7.46-7.39.79-11.09z" fill="#331b26"/><path d="m197.46 87.61c5.09-1.04 10.44-1.13 15.18-3.53 1.31 3.03 1.54 7.21 4.35 9.19 8.67 1.07 17.34-.72 26.01-1 14.24-1.75 28.56-.13 42.81.43 10.6 1.32 21.34 1.93 31.79 4.22 2.91.64 5.88 1.01 8.81 1.56 6.25 2.59 13.08 2.95 19.45 5.04 10.17 3.62 20.65 6.26 30.76 10.06 6.8 2.35 13.47 5.07 20.3 7.33 1.54.66 3.04 1.41 4.61 2.03 10.21 3.72 20.2 8.06 30.15 12.43 4.13 13.2 10.48 25.61 14.3 38.9-4.49-1.54-8.2-4.53-11.62-7.72-3.86-3.59-8.54-6.06-12.92-8.92-17.26-12.13-35.72-22.56-55-31.13-30.24-14.62-62.85-25.11-96.46-27.75-13.7.07-27.45-.69-41.08.89-6.99.7-14.05.73-20.97 2.06-10.6 1.98-21.39 2.84-31.88 5.4-19.3 3.17-38.19 8.21-57.16 12.88-5.49 2.24-10.87 4.78-16.61 6.32-1.96-.34-3.9-.77-5.84-1.19 1.35-.56 2.7-1.11 4.05-1.65-.31-.75-.93-2.26-1.24-3.01 2.45.73 4.97 1.85 7.57 1.33 4.31-.78 7.86-3.56 11.9-5.06 3.19-1.01 6.62-.49 9.86-1.24 2.96-1.16 5.33-3.44 8.33-4.53 8.32-2.85 17.21-3.51 25.53-6.39 5.89-1.91 12.44-2.02 17.82-5.32 2.98-1.72 3.86-6.24 1.09-8.57-2.93-2.08-6.5-3.1-9.33-5.38.44.1 1.32.29 1.75.38 3.81.43 6.96 2.69 10.44 4.04 4.55 1.49 9.04-.55 13.25-2.1z" fill="#221f20"/><path d="m348.37 91.24c10.18 4.02 20.5 7.92 29.93 13.59 4.45 2.62 9.09 4.89 13.55 7.49 3.13 1.84 4.95 4.94 5.07 8.59-6.83-2.26-13.5-4.98-20.3-7.33-10.11-3.8-20.59-6.44-30.76-10.06 1.78-3.85 2.8-8.01 2.51-12.28z" fill="#644a59"/><path d="m572.02 112.97c1.8 1.71 4.87 3.1 4.68 6.01-.94 4.81-3.31 9.17-5.18 13.66-5.96 13.27-12.02 26.49-18.33 39.6l-.28-.89c7.35-19.09 16.19-37.96 19.11-58.38z" fill="#c0a072"/><path d="m552.08 173.38.6-.13c-.47 1.39-.79 2.83-1.07 4.27l-1.37-1.38c-.42 1.34-.84 2.69-1.26 4.03-.89-1.54-1.02-3.67.75-4.63 1.12-.26 1.66-1.35 2.35-2.16z" fill="#c0a072"/><path d="m30.86 159.8c20.97-13.13 42.59-25.43 65.58-34.69 1.94.42 3.88.85 5.84 1.19-7.75 3.13-15.63 6.02-22.97 10.05-12.76 6.88-25.44 13.9-37.97 21.18-10.2 6.38-19.79 13.82-30.66 19.07-.7-.09-2.09-.26-2.79-.35 7.09-6.23 15.07-11.33 22.97-16.45z" fill="#1d1b1b"/><path d="m197.52 145.29c21.2-4.4 43-5.43 64.59-4.33 1.53 7.33.4 14.84 1.09 22.24 1.42-.97 1.24-2.73 1.32-4.23.17-5.96-.16-11.91-.57-17.85 25.08 1.46 50.09 5.41 74.17 12.66 1.52.39 2.11 2.01 2.89 3.2 3.98 7.51 8.2 14.94 11.09 22.95-10.67-1-21.32-2.42-32.04-2.78-14.85.27-29.24 5.16-44.11 5.15-5.01-.18-10.26-.06-14.88-2.26-4.03-2.21-6.19-6.73-10.38-8.75-8.47-4.43-18.26-5.01-27.6-5.92-12.03-1.25-24.21-.44-36.04 2.01-4.6 1.03-9.13 2.59-13.1 5.18-.85-4.08 1.98-7.37 4.22-10.42 4.11-5.18 8.87-9.8 13.59-14.44 1.47-1.64 3.72-1.96 5.76-2.41z" fill="#918b8d"/><path d="m341.81 154.93c5.28 1.69 10.73 3.08 15.71 5.54 3.41 4.17 5.79 9.05 8.3 13.78.29.21.87.63 1.17.84-1.03-5.23-4.55-9.47-7.29-13.88 8.18 3.04 16.68 6.04 23.25 12.03 8.74 7.69 19.3 14.14 25.01 24.6-14.65 1.07-29.38 1.54-44.06.59-4.61-.44-9.61-1.27-13.1-4.56 3.86-1.98 5-6.83 3.92-10.77-2.88-9.99-8.32-18.92-12.91-28.17z" fill="#918b8d"/><path d="m174.83 151.88c4.91-2.06 10.11-3.31 15.23-4.73-4.18 4.16-8.46 8.24-12.1 12.89-2.37 3.02-5.02 6.13-5.78 10.01.45 4.9 3.63 8.95 6.9 12.4-5.17 4.17-11.83 5.61-18.12 7.16-13.98 2.93-28.34 3.73-42.6 3.61 12-18.7 31.44-31.39 51.72-39.61-1.77 2.71-4.34 5.1-4.89 8.42 3.89-2.59 5.19-8.02 9.64-10.15z" fill="#918c8d"/><g fill="#93674b"><path d="m190.59 168.34c8.7-1.42 17.55-2.56 26.37-1.76 10.53.85 21.43 1.14 31.34 5.17 5.79 2.2 8.36 8.9 14.37 10.66 7.18 2.14 14.78 1.72 22.16 1.19-.11 8.12.51 16.33-.86 24.37-7.36-2.01-13.36-6.79-19.79-10.61 1.2 3.2 4.52 4.59 7.15 6.39 3.84 2.57 8.1 4.4 12.49 5.85-1.61 11.83-6.2 23.86-15.34 31.93.02-3.24.12-6.47.22-9.71-.32.13-.96.38-1.27.5-2.39 5.19-3.55 10.89-6.2 15.97-.63 1.13-1.73 2.59-3.19 2.26-14.88-4.34-27.62-14.47-36.4-27.11-2.72-4.11-4.63-8.68-7.24-12.86 5.28-3.17 11.52-6.09 14.26-11.95-1.82.72-3.2 2.12-4.55 3.5-2.81 2.88-6.4 4.84-9.95 6.67-1.31-3.47-3.04-6.92-3.09-10.7-.25-8.39-.48-17.19 3.13-24.97.57-1.76 2.16-3.58 1.1-5.48-6.28 9.54-6.52 21.48-5.65 32.48.4 1.88-1.04 3.31-1.78 4.88-1.44 2.44-1.75 5.3-2.74 7.91-3.49 2.67-8.16 3-12.36 3.66-2.17-8.52-1.79-17.46-.62-26.1-1.1.85-2.07 1.97-2.06 3.45-.97 7.65.26 15.32.28 22.95-2.97.28-5.96.24-8.92.61-.18.32-.54.97-.71 1.29 2.88.12 5.77.06 8.66-.07-1.43 7.33-1.97 14.81-1.5 22.26.77 8.21 3.65 16.13 7.94 23.14-11.8-1.17-24.07-4.5-32.78-12.99-7.81-7.49-11.47-18.47-11.34-29.14-.44-6.18 1.25-12.16 2.03-18.23-.92.48-1.53 1.21-1.82 2.2-1.22 3.3-2.15 6.71-3.15 10.09-3.84 12.56-1.95 25.88-.28 38.64-7.07-7.06-13.71-15.47-15.4-25.59-1.78-12.14 3.57-23.6 6.99-34.94 12.52-1.26 25.42-2.6 36.86-8.23 6.54-3.94 10.35-10.94 13.64-17.58z"/><path d="m308.09 179.81c12.01-2.01 24.21-.3 36.2.99.35 3.81.31 8.02 2.77 11.22 3.14 4.61 8.55 7.07 13.95 7.79 7.5.74 15.07.46 22.58.89 2.07 3.56 1.32 8.45 1.56 12.56-7.49-3.19-14.79-6.9-22.59-9.3l-.09-.06c-.42-.34-1.28-1-1.71-1.34-.01.32-.04.96-.05 1.29-1.98 1.22-4.44 2.26-4.81 4.86-2.85 10.54-5.47 21.39-11.38 30.72-6.21 9.92-15.89 17.85-27.16 21.22 1.78-3.99 3.78-7.9 5.22-12.04 4.15-11.63 4.59-24.79.21-36.42 3.17-1.11 7.5-.68 9.5-3.82-3.42.66-6.81 1.5-10.24 2.09-2.59-5.02-5.38-10.26-10.19-13.53-.31 5.08-.9 10.22-3.14 14.86-3.89-.07-7.77-.28-11.63-.7-1.65-7.24-4.59-14.22-9.34-19.98-2-2.11-1.31-5.2-1.51-7.82 7.29-1.09 14.56-2.35 21.85-3.48z"/><path d="m376.7 238.78c.18-.26.54-.79.73-1.06 6.53 6.1 12.77 12.53 17.98 19.82 8.35 10.18 14.36 22.4 16.45 35.46 1.04 6.22.91 12.55 1.76 18.8 2.88-7.75 3.33-16.12 5.21-24.13 2.97 7.39 4.87 15.33 5.08 23.31.43 11.01-5.95 20.99-5.21 32.04.05 11.74 6.12 22.85 15.24 30.06 12.05 10.68 28.7 13.91 44.38 13.26-2.51 2.61-5.72 4.64-9.38 5.03-8.97 1.2-17.87-1.55-26.15-4.76 3.21 7.93 5.6 16.44 4.45 25.08-7.41-5.13-15.23-9.86-21.58-16.32-4.78-4.88-5.39-11.98-8.07-17.96-3.25-8.39-9.03-15.42-14.88-22.12-3.68-4.28-9.08-6.32-13.82-9.11 7.45-23.41-2.09-48.74-16.99-67.06 9.27-10.92 11.7-27.6 4.8-40.34z"/><path d="m355.41 247.47c3.18-2.87 5.22-6.66 7.63-10.14-.32 3.55-1.83 6.81-2.66 10.24 2.6-.26 5.06-1.14 7.42-2.24-.47 11.2-4.27 22.94-12.88 30.55-3.6 3.42-7.89 5.97-12.16 8.45.6.16 1.79.48 2.39.64-4.16 6.97-8.91 13.75-10.63 21.86-5.14-6.49-8.26-15.9-4.56-23.74 2.57 3.78 3.98 8.1 4.98 12.52l1.36.8c.14-5.4-2.79-9.97-5.22-14.53-.07-2.28 2.48-3.67 3.8-5.31 1.98 1.5 4.03 2.98 6.47 3.64.95-3.99 1.64-8.05 3.01-11.92 4.88-5.7 11.38-9.61 18.12-12.72.13-.4.41-1.21.55-1.61-6.75 2.17-12.51 6.4-17.87 10.91 2.38-6.29 5-12.91 10.25-17.4z"/><path d="m161.23 251.84c6.81 6.1 15.09 10.32 24.02 12.31-.69 6.86-1.5 13.78-.66 20.68.97 11.84 6.07 23.92 16.03 30.93 5.15 4.29 11.12 7.37 17.01 10.49.29 7.33 3.13 14.16 6.81 20.4-4.54 2.38-8.59 5.62-13.37 7.56-2.79-3.83-5.43-7.9-6.57-12.56-2.11-7.54.11-15.37-.98-23.01-2.81 1.9-4.53 4.92-5.91 7.95-3.68 7.68-3.12 16.35-4.73 24.52-12.77-3.09-25.72-10.37-31.47-22.72-2.97-5.99-2.37-12.8-2.85-19.25-6.16 6.13-4.76 15.6-4.89 23.5-2.3-3.93-4.34-8.01-6.1-12.21-5.42-12.61-6.24-27.09-2.69-40.31 3.11-10.56 8.98-20.17 16.35-28.28z"/><path d="m338.16 259.09c3.34-1.78 6.73-3.49 10.05-5.33-2.35 3.86-3.72 8.16-5.24 12.38-1.69-2.29-3.29-4.65-4.81-7.05z"/><path d="m330.91 261.3c1.81-.61 3.62-1.23 5.48-1.69 2.32 2.49 3.72 5.86 6.03 8.46-.76 3.36-1.58 6.71-2.48 10.04-6.53-2.95-7.77-10.53-9.03-16.81z"/><path d="m348.43 283.45c2.82-3.1 6.42-5.38 9.6-8.09 3.07 5.51 3.02 12.3.26 17.92-2.31 4.67-4.76 10.11-9.87 12.24-4.02 2.44-7.76 5.44-10.9 8.95-4.95 6.46-6.72 14.66-8.1 22.51-4.42-5.84-6.8-13.36-5.22-20.67 2.93 1.93 3.77 5.96 7.1 7.36-1.16-3.22-3.49-5.75-5.64-8.33-1.15-.98-.32-2.37.21-3.4 1.35-2.66 3.3-4.92 5.25-7.14 3.05 1.91 1.74 6.35 4.26 8.36.44-4.37 1.17-8.78 2.98-12.81 2.13-2.6 5.03-4.49 7.91-6.17 2.5-1.54 5.61-1.93 7.84-3.92-5.26-.25-9.55 3.3-13.82 5.82 2.51-4.33 5.16-8.6 8.14-12.63z"/><path d="m362.2 284.17c3.16-.92 6.17-2.31 8.87-4.23 10.01 12.63 17.56 27.81 18.96 44.05.82 7.33-.34 14.62-1.96 21.76-7.8-2.95-15.53-6.08-23.39-8.85.04-.45.13-1.36.17-1.81 5.94-13.52 5.24-30.35-4.01-42.23-.21-2.9 1.09-5.78 1.36-8.69z"/><path d="m122.41 312.46c5.64-9.86 11.97-19.42 19.73-27.75-3.35 16.67 1.31 33.95 9.99 48.27.88 1.05 1.48 3.07 3.32 2.44-.06-6.82-1.16-13.87 1.15-20.47 1.03 4.94 1.31 10.17 3.78 14.73 6.23 12.51 19.54 20.26 32.85 23.01 2.63-3.32 1.92-7.76 2.53-11.68.5-6.74 2.41-13.45 6.27-19.06.24 5.39-.27 10.79.15 16.17.88 6.1 3.5 11.97 7.63 16.57-7.24 4.22-14.19 9.07-20.14 15-3.23 3.38-6.37 7.44-6.69 12.29-1.08 11.54-2.63 23.78-9.53 33.48-5.34 7.29-14.03 10.66-21.43 15.35-1.66-5.75-1.87-11.81-1.7-17.76.51-4.76 3.57-8.67 5.54-12.89-4.52 1.24-4.21 7.6-7.62 10.1-7.76 3.25-16.85 4.09-24.87 1.29-10.36-4.21-18.25-13.93-20.75-24.78 6.74 3.51 14.79 5.33 22.23 3.11 8.71-2.52 15.62-10.12 17.51-18.96 1.52-5.38.63-11.73-3.58-15.69-5.32-5.01-11.46-9.15-16.14-14.83-2.64-3.27-6.03-6.85-5.44-11.4.1-5.91 2.69-11.33 5.21-16.54m13.06 29.52c.59 4.64 3.48 9.04 7.75 11.1-.12-3.73-1.05-7.36-1.24-11.07-.15-5.73.22-11.45.82-17.14-4.15 4.71-7.62 10.63-7.33 17.11z"/><path d="m359.64 294.11c.21.05.61.15.81.2 8.85 12.14 8.53 28.68 2.7 42.04-1.6-.41-3.4-.51-4.62-1.74-2.38-2.23-5.69-2.8-8.63-3.95 5.88-7.26 5.07-17.06 2.81-25.52 2.55-3.53 5.13-7.04 6.93-11.03z"/><path d="m334.97 321.93c2.93-7.26 9.36-12.58 16.2-16.02 2.01 7.09 3.09 15.56-1.37 21.97-2.07 3.26-5.52 5.17-8.76 7.06-6.35 3.84-10.22 10.52-12.92 17.23-1.51 3.52-1.44 7.44-2.76 11.01-4.43-2.87-5.15-8.35-5.51-13.17-.18-2.73.26-5.46 1.18-8.03 2.97 1.87 1.87 6.72 5 7.99-.21-3.73-1.94-7.02-4.16-9.93 1.44-1.63 2.81-3.42 4.88-4.29 1.6 2.08 2.83 4.99 5.74 5.44-.65-1.08-1.3-2.14-1.96-3.2 1.68-5.3 2.13-10.97 4.44-16.06m8.06.21c-3.1 2.67-6.27 5.51-7.88 9.36 4.44-.71 8.23-3.36 12.28-5.16.04-.51.13-1.54.17-2.05-2.64 1.4-5.31 2.76-8.13 3.75 2.56-3.6 6.72-5.4 9.59-8.67-2.38-.17-4.28 1.42-6.03 2.77z"/><path d="m327.43 364.26c.49-11.33 5.9-23.02 15.79-29.07 4.18 4.08 6 10.51 4.11 16.1-2.1 5.49-6.98 9.31-11.98 12.05-2.41 1.41-5.28.89-7.92.92m2.91-8.48c2.49-1.66 4.81-3.63 7.61-4.77 1.42-.79 3.49-1.01 4.05-2.8-4.49.85-10.39 2.65-11.66 7.57z"/><path d="m318.84 379.87c2.8-2.49 7.05-1.57 10.45-1.23 1.9 1.96 2.85 4.59 4.03 7.01 3.39 7.68 6.46 15.82 6.29 24.35.17 4.49-1.67 8.68-2.68 12.98-.29 1.55-1.16 2.86-1.91 4.21-1.4-.9-2.79-1.81-4.19-2.71-1.28 1.89-2.35 3.92-3.61 5.83-2.32 1.78-4.17-1.44-5.53-2.96-6.26-9.13-10.59-20.14-9.72-31.37.1-6.04 3.31-11.45 6.87-16.11z"/><path d="m379.16 476.92c3.02 5.09 4.25 12.45 10.4 14.73 1.67 5.31 3.6 10.54 5.22 15.87-2.44 2.96-5.21 5.61-7.98 8.25-4.23-6.1-9.41-12.15-10.71-19.67.22-6.49 2.27-12.75 3.07-19.18z"/><path d="m213.41 507.41c3.48 3.32 6.42 7.17 9.34 10.97 1.8 2.29 1.64 5.3.61 7.88-4.51-2.93-8.42-6.71-11.66-11 .56-2.62 1.12-5.24 1.71-7.85z"/></g><path d="m174.97 173.87c4.05-2.95 8.95-4.18 13.76-5.27-2.45 4.6-4.77 9.47-8.77 12.94-2.06-2.28-3.82-4.82-4.99-7.67z" fill="#6e6a6a"/><path d="m385.42 173.13c2.82.73 5.16 2.51 7.66 3.92 13.58 7.62 25.51 18.15 35.15 30.34-7.55.63-15.22 1.93-22.75.45 2.42-2.73 6.37-6.27 4.07-10.24-5.25-10.51-15.64-16.85-24.13-24.47z" fill="#8f8a8c"/><path d="m346 180.91c2.33.16 4.66.44 6.95.92.7 3.38 1.28 9.18-2.88 10.34-4.05-1.71-3.92-7.48-4.07-11.26z" fill="#716d6d"/><path d="m285.63 208.54c.7-5.51.73-11.06.93-16.61 4.47 5.53 7.52 12.12 8.85 19.09-3.3-.68-6.59-1.41-9.78-2.48z" fill="#a88c81"/><path d="m313.33 199.89c2.96 3.17 5.3 6.86 7.04 10.83-3.29.58-6.6.98-9.92 1.25 1.55-3.86 2.53-7.93 2.88-12.08z" fill="#a88c81"/><path d="m206.83 212.58c.95-3.02 1.68-6.2 3.61-8.79.81 1.94 1.58 3.9 2.36 5.85-1.97 1.03-3.96 2.01-5.97 2.94z" fill="#a88c81"/><path d="m285.37 210.15c3.38 1.07 6.85 1.87 10.36 2.37.5 4.19.51 8.42.11 12.62-3.9 1.01-7.7 2.69-10.49 5.7-7.52 7.84-5.98 21.99 2.87 28.24l.17.1c-.53 13.94 1.04 27.84.95 41.78-14.98 2.31-30.18 2.36-45.29 2.57-5.63.21-11.47-.74-16.9 1.18-.99-15.24-1.59-30.49-2.07-45.75 2.53-4.15 3.94-9.14 2.98-13.99-1.06-8.03-8.76-15.24-17.12-14.08-7.76.49-13.93 7.59-14.58 15.12-.63 4.62.96 9.2 3.37 13.08-.14 2.94-.18 5.9.09 8.84.87 9.35.5 18.75 1.01 28.11.33 5.82.15 11.66-.55 17.44-3.38-2.92-6.61-6.14-8.65-10.17-6.49-11.77-6.51-25.84-4.67-38.81 3.92.55 7.84 1.15 11.78 1.57-1.73-4.09-4.64-7.58-6.13-11.79-4.46-11.61-4.19-24.56-1.12-36.48 2.7 6.11 6.82 12.17 13.47 14.36.48-5.87.77-11.76 1.56-17.61 2.26-1.16 4.54-2.31 6.83-3.42 6.87 16.66 19.94 30.77 36.52 38.05 3.21 1.2 6.52 3.45 10.05 2.86 3.96-3.29 4.99-8.7 6.71-13.31.23 1.89.47 3.78.72 5.67 10.78-8.04 16.11-21.31 18.02-34.25m-33.77 60.34c4.24-1.74 7.72-4.99 10.45-8.62-4.33 1.5-8.05 4.76-10.45 8.62m13.27-.31c3.97-1.92 7.77-4.59 10.27-8.28-4.1 1.55-8.02 4.49-10.27 8.28m-28 3.06c4.33-1.94 7.8-5.57 10.23-9.59-4.3 1.97-7.34 5.96-10.23 9.59m39.88-1.91c3.71-1.11 7.18-3.77 8.42-7.54-3.49 1.58-6.45 4.26-8.42 7.54m-49.87 3.56c3.69-2.26 8.08-4.72 9.43-9.1-3.77 1.92-8.36 4.78-9.43 9.1z" fill="#a88c81"/><path d="m309.64 213.4c3.89-.22 7.77-.56 11.63-1.04 2.19 6.29 3.34 12.95 2.99 19.62-.18 10.41-4.42 20.1-9.05 29.22.2-3.72-.37-7.41-.85-11.08 2.74-8.42-.31-18.16-7.95-22.88-1.93-.71-3.9-1.3-5.85-1.91 3.55-3.54 6.6-7.56 9.08-11.93z" fill="#a88c81"/><path d="m359.16 274.22c6.42-8.56 10.31-19.1 10.2-29.86.47 5.94 6.58 8.77 9.73 13.25-.94 6.33-2.49 12.8-6.29 18.06-2.58 3.51-6.41 5.97-10.67 6.85-.55-2.92-1.98-5.54-2.97-8.3z" fill="#a88c81"/><path d="m323.87 262.59c1.85-.21 3.7-.46 5.55-.68.81 4.67 2.29 9.19 4.29 13.48-3.76 3.59-6.8 8.32-6.92 13.67-.37 5.07 1.38 9.94 3.55 14.43-5.15 4.84-8.47 11.54-8.35 18.69-1.38 1-2.77 2-4.19 2.95-1.34-20.71-1.54-41.47-2.62-62.2 2.9.15 5.82.09 8.69-.34z" fill="#a88c81"/><path d="m256.04 336.74c19.19 1.94 39.01.17 57.07-6.87-16.06 10.86-36.46 16.37-55.59 11.53-.61-1.53-1.01-3.12-1.48-4.66z" fill="#a88c81"/><path d="m391.05 491.23c14.7-2.41 28.85-7.19 42.75-12.42 1.81 10.34 4.44 20.5 7.15 30.64-3.83 1.73-8 3.22-10.81 6.51-2.53 3-5 6.16-6.42 9.85 3.79-2.52 5.5-7.04 8.66-10.22 10.02.2 20.04-.24 30.05.19.15 2.26-.3 4.79 1.15 6.75.82-5.64-.1-11.47 1.7-16.97 2.02-6.52 5.26-13.27 11.24-17.02 2.5-1.47 5.99-2.7 8.56-.71 2.9 2.92 2.81 7.42 2.63 11.25-.54 4.66-1.51 9.58-4.45 13.36-3.27.76-7.8.16-9.06-3.48-.94-3.89.31-7.9.02-11.85-2.43 2.65-1.8 6.67-2.01 10-.16 2.87 2.42 4.55 3.63 6.83 1.45 10 .71 20.12.3 30.16 1.45 4.07.92 8.37.39 12.55-4.66 2.53-10.06 2.76-15.12 3.96-9.38 1.74-18.79 4.29-28.41 3.83-6.37-.23-10.87-5.38-14.28-10.19-13.09-19.06-20.55-41.22-27.67-63.02z" fill="#a88c81"/><path d="m489.68 490.79c1.97-.42 3.94-.78 5.93-1.12 6.28 3.22 10.94 8.97 13.38 15.55-5.01-1.31-10.38-2.1-15.42-.55 5.61.85 11.4.65 16.8 2.66-1.54 4.26-.41 8.93-1.74 13.26-3.14 11.66-4.82 24.49-13.25 33.78-.67-.58-1.16-1.45-2.08-1.61-4.74-1.42-9.54-2.83-13.84-5.31-1.23-.69-1.68-2.19-1.75-3.49.47-9.9.98-19.86-.19-29.73 2.83-.02 6.86 1.03 8.49-2.11 3.07-6.61 4.22-14.07 3.67-21.33m4.23 30.43c.13.29.39.86.52 1.14 3.04 1.47 6.15 3.27 9.62 3.4-2.78-2.58-6.53-3.7-10.14-4.54z" fill="#a88c81"/><path d="m162.51 496.98c16.04 5.09 32.56 10.05 49.56 9.63-14.74 61.73-30.58 123.19-47.36 184.39h-41.64c12.6-64.78 27.44-129.12 39.44-194.02z" fill="#a88c81"/><path d="m119 195.05c6.43.1 12.84-.34 19.25-.91-.71 2.32-1.01 4.84-2.28 6.93-1.7 1.73-3.94 2.76-5.97 4.04-3.99-2.98-7.6-6.43-11-10.06z" fill="#6f6764"/><path d="m541.91 195.71.08-.13c.45-.04 1.35-.12 1.8-.16.17-.33.49-.99.65-1.31 5.22 3.55 10.54 7.03 15.17 11.35 1.77 1.71 3.88 3.81 3.33 6.53-1 4.85-4.69 8.59-8.28 11.74-10.17 8.45-22.25 14.18-34.34 19.32 1.74-3 3.29-6.38 6.39-8.23 1.85-1.46 4.55-2.63 4.93-5.25.37-4.05-.33-8.11-.23-12.17 3.44-7.26 7.04-14.44 10.5-21.69z" fill="#21201f"/><path d="m385.62 200.55c2.34-.15 4.72-.5 7.06-.11 4.35 6.88 7.6 14.42 11.86 21.37-1.86.57-3.66-.28-5.36-.93-4.14-1.69-8.43-2.91-12.63-4.44.84-5.31.11-10.67-.93-15.89z" fill="#986950"/><path d="m395.62 200.09c.61-.03 1.83-.07 2.44-.09 1.38 4.17 3.69 8.7 8.45 9.64 6.24.78 12.66.57 18.89-.41-6.34 3.87-13.1 7-19.69 10.42-4.46-5.65-7.24-12.44-10.58-18.77z" fill="#6e6764"/><path d="m399.72 200.12c3.17-.33 6.35-.57 9.55-.5-1.3 2.53-2.52 5.68-5.23 6.94-2.48-1.21-3.36-4.06-4.32-6.44z" fill="#6d696b"/><path d="m131.89 206.29c.46-1.07 1.76-2.14 2.97-1.93.26 1.16-.39 2.52-1.23 3.31-1.09.19-1.67-.26-1.74-1.38z" fill="#676154"/><path d="m355.9 208.71c.37-2.6 2.83-3.64 4.81-4.86 1.59 4.22 2.56 8.65 2.85 13.15.43 7.2.98 15.06-3.11 21.42-7.6 13.56-22.84 20.93-37.79 22.86-1.93.08-3.86.19-5.79.29l.49-.92c11.27-3.37 20.95-11.3 27.16-21.22 5.91-9.33 8.53-20.18 11.38-30.72z" fill="#e5d488"/><path d="m362.56 203.96c7.8 2.4 15.1 6.11 22.59 9.3-.26 6.84-2.65 13.41-5.96 19.34-3.73 6.3-9.83 10.77-16.6 13.34 1.54-4.15 2.29-8.52 2.24-12.95.96-9.7.69-19.67-2.27-29.03z" fill="#e3d387"/><path d="m297.36 212.84c3.44.18 6.87.27 10.31.36-2.29 5.06-6.12 9.23-10.26 12.85.49-4.39.66-8.83-.05-13.21z" fill="#8f6758"/><path d="m193.51 218.23c3.89-.55 7.69-1.55 11.4-2.85-1.07 4.89-.81 9.91-1.36 14.85-4.32-3.03-8.32-6.88-10.04-12z" fill="#8f6652"/><path d="m379.58 234.47c3.64-5.41 5.8-11.65 6.97-18.03 4.2 1.53 8.49 2.75 12.63 4.44 1.7.65 3.5 1.5 5.36.93 2.44 3.15 4.77 6.39 6.99 9.71 11.4 16.25 23.35 32.1 34.74 48.36 4.24 6.33 9.02 12.67 10.55 20.3 1.42 8.27-2.39 16.21-6.72 22.99-4.6 6.9-10.13 13.16-16.14 18.85-1.54-3.49-3.16-7.12-3.01-11.02-.09-7.46 4.9-13.55 6.51-20.61 1.87-6.72 1.6-14.64-2.67-20.4.69 5.37 3.24 10.59 2.07 16.1-.91 9.08-7.83 16.5-7.42 25.81.5 6.76 3.93 13.11 8.61 17.93 5.91 6.4 13.09 11.98 21.5 14.6 1.18.37 2.35.74 3.54 1.12-.81 2.88-1.61 5.78-2.4 8.67 4.59 2.17 9.21 4.28 13.79 6.49 2.17-4.41 3.24-9.28 5.52-13.63.56.02 1.66.08 2.22.11.95 6.49.5 13.92-3.9 19.15-15.68.65-32.33-2.58-44.38-13.26-9.12-7.21-15.19-18.32-15.24-30.06-.74-11.05 5.64-21.03 5.21-32.04-.21-7.98-2.11-15.92-5.08-23.31-1.88 8.01-2.33 16.38-5.21 24.13-.85-6.25-.72-12.58-1.76-18.8-2.09-13.06-8.1-25.28-16.45-35.46-5.21-7.29-11.45-13.72-17.98-19.82.72-1.08 1.47-2.14 2.15-3.25z" fill="#e4d487"/><path d="m293.39 227.58c4.35.44 8.68-.04 13.02-.34 7.64 4.72 10.69 14.46 7.95 22.88-2.1 5.5-6.65 10.11-12.46 11.5-4.62 1.29-9.52.04-13.51-2.44l-.17-.1c-8.85-6.25-10.39-20.4-2.87-28.24 2.68-1.09 5.27-2.44 8.04-3.26m-2 5.87c-5.94 3.04-7.42 12.84-1.16 16.32 5.83 3.27 12.19-2.87 12.44-8.68.87-5.81-6.13-10.94-11.28-7.64m16.92 14.05c-2.27 1.17-2.47 5.34.51 5.66 1.78-.52 3.54-2.06 3.07-4.11.27-1.98-2.26-2.57-3.58-1.55z" fill="#222018"/><path d="m196.36 246.01c.65-7.53 6.82-14.63 14.58-15.12 8.36-1.16 16.06 6.05 17.12 14.08.96 4.85-.45 9.84-2.98 13.99-3.67 4.28-9.36 7.16-15.08 6.17-4.11-.51-7.51-3.13-10.27-6.04-2.41-3.88-4-8.46-3.37-13.08m11.83-7.71c-6.45 2.87-8.07 13.42-1.4 16.95 6.36 2.99 13.26-3.81 12.46-10.22.09-5.36-6.29-9.45-11.06-6.73m11.52 22.21c3.58.53 7.52-3.05 5.2-6.59-3.83-1.87-7.66 3.29-5.2 6.59z" fill="#232019"/><path d="m291.39 233.45c5.15-3.3 12.15 1.83 11.28 7.64-.25 5.81-6.61 11.95-12.44 8.68-6.26-3.48-4.78-13.28 1.16-16.32z" fill="#aba9a7"/><path d="m208.19 238.3c4.77-2.72 11.15 1.37 11.06 6.73.8 6.41-6.1 13.21-12.46 10.22-6.67-3.53-5.05-14.08 1.4-16.95z" fill="#aba9a7"/><path d="m308.31 247.5c1.32-1.02 3.85-.43 3.58 1.55.47 2.05-1.29 3.59-3.07 4.11-2.98-.32-2.78-4.49-.51-5.66z" fill="#aba9a7"/><path d="m219.71 260.51c-2.46-3.3 1.37-8.46 5.2-6.59 2.32 3.54-1.62 7.12-5.2 6.59z" fill="#aba9a7"/><path d="m369.36 244.36c2.06-1.41 4.06-2.9 5.97-4.51 3.36 5.23 3.97 11.68 3.76 17.76-3.15-4.48-9.26-7.31-9.73-13.25z" fill="#d5c9bd"/><path d="m433.8 478.81c2.52-1.1 5.09-2.09 7.71-2.95 2.93 10.24 5.73 20.52 8.59 30.78-3.12.7-6.21 1.55-9.15 2.81-2.71-10.14-5.34-20.3-7.15-30.64z" fill="#d5c9bd"/><path d="m495.61 489.67c5.04-.05 10.43-.62 15.11 1.67 6.98 3.4 10.73 11.23 11.7 18.61-1.3 5.32-3.6 10.45-3.81 16.01-.72 5.85.41 11.88-1.25 17.61-2.3 7.51-9.29 14.06-17.37 14.27-2.26.22-3.83-1.57-4.61-3.47 8.43-9.29 10.11-22.12 13.25-33.78 1.33-4.33.2-9 1.74-13.26 1.07.24 3.19.72 4.26.95-1.69-1.34-3.59-2.41-5.64-3.06-2.44-6.58-7.1-12.33-13.38-15.55z" fill="#d5c9bd"/><path d="m432.38 515.59c5.03-3.4 10.86-5.55 16.69-7.15 4.51-1.46 9.21-.21 13.81-.08-.16 2.47-.31 4.94-.45 7.42-10.01-.43-20.03.01-30.05-.19z" fill="#d5c9bd"/><path d="m314.36 250.12c.48 3.67 1.05 7.36.85 11.08-.01.43-.02 1.3-.03 1.73 1.08 20.73 1.28 41.49 2.62 62.2-4.52 3.08-9.74 4.81-14.84 6.66 3.86-4.09 7.52-8.99 7.61-14.88-.03-4.34.06-9.88-4.05-12.54-5.06-3.2-11.33-3.8-17.18-3.41.09-13.94-1.48-27.84-.95-41.78 3.99 2.48 8.89 3.73 13.51 2.44 5.81-1.39 10.36-6 12.46-11.5z" fill="#c7c0bc"/><path d="m520.4 258.46c9.11-3.86 18.74-6.69 28.58-7.89 3.99-.32 9.61-.11 10.99 4.55 1.65 8.12-1.18 16.43-5.83 23.07-2.63 3.24-1.93 7.63-2.46 11.49-7.26-2.26-14.37-5-21.33-8.03-1.91-.76-3.47-2.06-4.99-3.38 4.14-3.42 9.82-4.35 13.67-8.13 2.23-1.96 1.96-6.2-1.42-6.58-9.58-.96-18.98 2.5-27.52 6.5-.66-6.23 5.49-9.44 10.31-11.6z" fill="#9c514f"/><path d="m481.7 260.66c9.55-.57 19.55-2.61 28.88.05-2.75 5.71-2.32 12.1-2.73 18.25-8.49-1.71-17.19-.96-25.78-1.09-.42-3.42-.5-6.87-.43-10.3 7.97-1.16 16.15-1.27 24.16-.33-.05-.48-.14-1.43-.19-1.91-7.87-.33-15.83-.76-23.65.44-.26-1.69-.35-3.41-.26-5.11z" fill="#4a2321"/><path d="m199.73 259.09c2.76 2.91 6.16 5.53 10.27 6.04 5.72.99 11.41-1.89 15.08-6.17.48 15.26 1.08 30.51 2.07 45.75-2.17 1.68-4.34 3.64-5.13 6.38-1.51 5.47-.15 11.35 2.46 16.27-7.82-3.01-15.24-7.01-22.02-11.95-.73-.64-1.46-1.28-2.18-1.93.7-5.78.88-11.62.55-17.44-.51-9.36-.14-18.76-1.01-28.11-.27-2.94-.23-5.9-.09-8.84z" fill="#c6c0bb"/><path d="m251.6 270.49c2.4-3.86 6.12-7.12 10.45-8.62-2.73 3.63-6.21 6.88-10.45 8.62z" fill="#8f7268"/><path d="m264.87 270.18c2.25-3.79 6.17-6.73 10.27-8.28-2.5 3.69-6.3 6.36-10.27 8.28z" fill="#90746a"/><path d="m510.09 270.06c8.54-4 17.94-7.46 27.52-6.5 3.38.38 3.65 4.62 1.42 6.58-3.85 3.78-9.53 4.71-13.67 8.13 1.52 1.32 3.08 2.62 4.99 3.38 6.96 3.03 14.07 5.77 21.33 8.03-.45 2.55-.7 5.14-1.42 7.64-.74 2.31-2.66 3.91-4.14 5.74-2.79 3.21-4.28 7.48-7.69 10.15-2.19.93-5.03.91-7.01-.54-7.21-4.66-12.81-11.29-18.83-17.3-3.34-3.01-2.98-7.74-3.03-11.81 6.96 5.32 13.99 10.58 21.43 15.22 3.13 2.1 6.41 4.01 10.05 5.08-8.07-6.4-17.41-11.05-25.45-17.51-1.95-1.48-4.07-2.71-6.18-3.94.27-4.12.38-8.24.68-12.35z" fill="#4a2220"/><path d="m236.87 273.24c2.89-3.63 5.93-7.62 10.23-9.59-2.43 4.02-5.9 7.65-10.23 9.59z" fill="#8e7167"/><path d="m276.75 271.33c1.97-3.28 4.93-5.96 8.42-7.54-1.24 3.77-4.71 6.43-8.42 7.54z" fill="#94796d"/><path d="m226.88 274.89c1.07-4.32 5.66-7.18 9.43-9.1-1.35 4.38-5.74 6.84-9.43 9.1z" fill="#97786d"/><path d="m481.74 280.55c8.43-2.34 17.37-1.11 25.92-.12.23 3.83.3 7.67.21 11.52-8.48.33-16.96-.16-25.43.13.77-3.83.37-7.8-.7-11.53z" fill="#47221c"/><path d="m484.76 293.42c7.68.33 15.37.61 23.04-.15.55 5.25 1.16 10.51 1.37 15.79-.31 1.27-.55 2.57-.7 3.87.27 18.69-.15 37.38-.17 56.07-.21 3.57.37 7.97-2.73 10.52-3.59 1.37-7.55.61-11.27.34-3.97-13.77-.42-28.02-.95-42-2.59 9.43-2.1 19.42-2.43 29.12-3.45-.28-6.89-.62-10.32-1.07 1.15-4.79 2.7-9.54 2.66-14.51-1.99 3.5-2.19 7.59-3.49 11.34-1.83 5.47-3.79 10.88-5.79 16.28-4.02-1.7-7.98-3.51-11.82-5.6.83-3.83 3.17-7.62 2.33-11.62 3.22-3.82 4.57-9.25 5.23-14.2-1.7 3.11-3.09 6.36-4.56 9.58-2.69-2.15-5.42-4.72-6.15-8.22 2.71-8.16 7.09-15.68 10.13-23.74 4.08-8.36 6.98-17.26 11.4-25.45-1.86 10.86-7.43 21.41-5.88 32.63.31-1.11.76-2.19.93-3.32 1.02-9.23 3.81-18.12 6.18-27.06.73-2.95 1.77-5.81 2.99-8.6z" fill="#684635"/><path d="m507.8 293.27 1.12-.04c5.02 12.44 8.49 25.42 12.37 38.24 2.99 10.48 5.94 20.98 8.23 31.64-2.06.94-4.13 1.85-6.2 2.74-.88-5-1.51-10.03-2.2-15.05-.48-3.06-.63-6.35-2.63-8.86 1.55 14.35 4.88 28.66 3.87 43.18-1.37.52-2.78.9-4.19 1.3-2.86-22.18-4.84-44.45-7.87-66.6-.09-3.62-.44-7.22-1.13-10.76-.21-5.28-.82-10.54-1.37-15.79z" fill="#a58661"/><path d="m282.29 303.39c7.69-1.38 16.26-2.1 23.3 1.95 3.83 2.66 3.44 7.69 3.47 11.78-8.19-4.07-16.49-8.75-25.79-9.46-11.31-.86-22.9-.57-33.81 2.82-6.5 1.62-12.63 4.35-18.98 6.42.38-4.01 1.35-7.93 2.79-11.68 16.35-.31 32.72-.37 49.02-1.83z" fill="#4c322c"/><path d="m249.46 310.48c10.91-3.39 22.5-3.68 33.81-2.82 9.3.71 17.6 5.39 25.79 9.46-.09 5.42-3.24 10.36-7.38 13.66-4.02 2.65-8.97 3.15-13.62 3.83-13.66 2.13-27.65 1.46-41.23-.95-5.2-1.08-10.58-1.74-15.35-4.23-1.37-4.03-1.72-8.33-1-12.53 6.35-2.07 12.48-4.8 18.98-6.42z" fill="#7f504c"/><path d="m343.03 322.14c1.75-1.35 3.65-2.94 6.03-2.77-2.87 3.27-7.03 5.07-9.59 8.67 2.82-.99 5.49-2.35 8.13-3.75-.04.51-.13 1.54-.17 2.05-4.05 1.8-7.84 4.45-12.28 5.16 1.61-3.85 4.78-6.69 7.88-9.36z" fill="#150c0d"/><path d="m510.3 319.82c3.03 22.15 5.01 44.42 7.87 66.6-3.44.92-6.87 1.91-10.32 2.8-.55-2.38-1.39-4.75-1.41-7.21.76-2.43 2.8-4.36 3.1-6.96.43-3.66.31-7.36.34-11.04-.05-14.73.23-29.46.42-44.19z" fill="#6a4833"/><path d="m135.47 341.98c-.29-6.48 3.18-12.4 7.33-17.11-.6 5.69-.97 11.41-.82 17.14.19 3.71 1.12 7.34 1.24 11.07-4.27-2.06-7.16-6.46-7.75-11.1z" fill="#000001"/><path d="m267.91 344.64c19.91 1.38 39.49-6.95 54.39-19.79.82 3.14 1.95 6.2 3.32 9.15-4.04 3.11-6.91 7.78-7.39 12.9-.53 3.44.52 6.84 1.17 10.2-4-3.49-7.19-7.99-11.84-10.67-2.51-1.5-5.61.02-6.64 2.57-3.58 7.78-4 16.55-4.19 24.98-16.83 2.61-35.18 1.52-49.75-8.13-5.27-3.77-11.63-7.58-13.37-14.28-1.69-6.36-1.5-13-1.49-19.52 10.72 6.92 22.96 11.84 35.79 12.59z" fill="#91878b"/><path d="m218.98 326.98c4.02 1.18 7.86 2.86 11.65 4.64-.25 3.97.55 8.03-.14 11.94-1.47 1.17-3.32 1.69-5.04 2.36-3.37-5.8-6.08-12.16-6.47-18.94z" fill="#93674a"/><path d="m238.68 334.26c4.55-.09 8.85 1.7 13.39 1.91 2.84-.26 2.76 3.16 3.67 5.01-5.86-1.86-11.6-4.09-17.06-6.92z" fill="#726e6a"/><path d="m346.05 334.65c3.61-1.08 7.51.79 10.37 2.91 1.36 5.69.73 11.62 1.3 17.41-4.02.72-8.3.83-11.9 2.95 2.17-3.66 4.53-7.49 4.16-11.95.38-4.23-1.95-7.83-3.93-11.32z" fill="#1e1714"/><path d="m358.77 336.83c11.11 3.17 21.87 7.45 32.4 12.18l.05.14c1.3 5.41 5.09 9.79 6.54 15.17 2.83 9.21 4 19.9-.74 28.69-1.71 3.3-4.36 5.95-6.58 8.89 5.99-2.17 12.88-7.62 19.17-3.39 9.01 5.75 18.21 11.47 25.82 19.06 3.93 3.71 3.99 9.54 3.35 14.52-1.46 10.44-7.58 19.45-14 27.51-14.88 4.97-30.17 8.78-45.53 11.99-7.48-6.66-17.43-9.43-25.18-15.68-2.15-1.56-1.81-4.54-1.38-6.82 2.05-10.19 6.61-19.61 10.63-29.12-2.52-10.16-3.61-20.64-3.84-31.09l.28-1.07c2.92-8.47 4.33-17.61 3.02-26.52-.32-2.58-1.93-4.66-3.55-6.57-.28-5.96-.14-11.93-.46-17.89m27.51 50.58c-6.18 8.21-12.29 16.47-18.01 25.01-.94 1.27-1.46 2.75-1.86 4.26 2.94-2.27 4.47-5.73 6.64-8.66 3.65-4.96 7.04-10.12 10.87-14.95 2.12-2.86 4.71-5.53 5.75-9.03-1.28.96-2.46 2.06-3.39 3.37z" fill="#988f92"/><path d="m191.24 370.32c7.09-6.86 15.24-12.79 24.46-16.44-2.26 8.91-3.8 17.99-4.73 27.14-.58 10.67-.06 21.37-.38 32.05-.06 3.8-.9 7.52-2.23 11.07-6.41-10.25-11.61-21.25-16.1-32.46-.35-1.16-1.17-2-2.18-2.59.86 4.3 2.86 8.24 4.58 12.24 3.58 8.21 7.82 16.13 12.43 23.81 1.09 1.45-.12 3.24-.34 4.79-4.94 17.97-7.17 37.14-2.99 55.5-13.5-.83-26.83-3.94-39.44-8.82-1.9-.55-3-2.26-4.1-3.75-4.8-6.84-9.51-13.92-12.14-21.92-1.59-4.71-1.59-10.27 1.31-14.49 2.95-5.15 8.7-7.38 13.56-10.25 6.09-3.39 11.43-8.24 14.62-14.5 4.64-9.13 6.08-19.48 6.96-29.56.42-4.72 3.42-8.64 6.71-11.82z" fill="#988f92"/><path d="m161.35 492.11c-.13-4.82.59-9.63 1.46-14.35 12.28 4.55 25.07 8 38.17 8.97 1.2.35 3.29-.22 3.61 1.47 1.83 5.81 4.34 11.35 7.1 16.77-16.62.48-32.76-4.47-48.46-9.36-1.6-.29-1.76-2.21-1.88-3.5z" fill="#988f92"/><path d="m219.45 353.54c2.02-4.31 6.84-5.68 10.78-7.63 2.17 3.68 2.59 8.08 3.77 12.14-.13 7.63-.01 15.31-1 22.91-.49 4.11-.35 8.28.64 12.31 5.2 3.36 11.49 3.36 17.36 4.55 19.22 4.48 39.22 5.28 58.83 3.29 1.09 8.56 3.25 17.09 8.09 24.35-6.56 1.62-12.53 7.52-12.3 14.59-.19 6.88 5.44 13.5 12.33 14.18 6.14.15 12.28-3.82 14.51-9.56 1.13-4.68 1.48-10.86-3.12-13.83.58-1.11 1.16-2.21 1.74-3.32 1.85.45 4 1.72 5.79.44 3.89-4 3.81-9.84 4.47-15 1.23-10.05-2.74-19.64-5.55-29.07 5.16 2.41 10.27 5.11 15.78 6.65 2.33.78 4.65-.21 6.6-1.44-.74 10.17 1.54 20.12 2.45 30.19.57 3.71-2.04 6.75-3.19 10.06-2.68 6.98-5.45 14-6.83 21.37-.65 2.66.68 5.29 2.52 7.15 2.12 1.94 4.9 2.98 7.01 4.94 4.79 5.84 6.95 13.23 10.42 19.82 1.25.3 1.55-1.13 2.02-1.96 1.28-2.9 1.32-6.31 3.2-8.9.35.53 1.06 1.6 1.41 2.13-.89 6.38-1.64 12.77-2.96 19.08-.88 3.4.01 6.96 2.04 9.77 3.39 4.75 5.46 10.34 9.29 14.81 2.52 3.31 6.06 7.44 4.03 11.87-2.58 5.09-6.18 9.74-10.8 13.15-5.13 5.6-11.89 9.2-18.36 13-3.35 1.88-6.14 4.62-9.65 6.23-7.92 3.47-15.97 6.8-24.48 8.52-15.71 4.18-32.18 4.2-48.25 2.65-16.77-1.5-33.54-5.49-48.47-13.45-3.89-1.96-8.11-3.66-11.11-6.94-1.3-4.09-.03-8.41.15-12.59.3-6.49 7.86-10.25 7.17-17 .12-2.86-1.19-5.55-3.09-7.62-2.93-3.16-5.14-6.88-7.95-10.13-3.29-3.84-4.95-8.68-7.03-13.2-2.58-5.67-3.15-11.94-3.91-18.04-1.3-10.04-.47-20.28 1.79-30.12.85-4.8 1.44-9.67 3-14.31 1.07-3.83 3.02-7.43 3.38-11.43.69-14.4-.74-28.9 1.44-43.21 1-7.33 1.45-15.25 6.04-21.4m8.78 74.87c-5.64 1.7-9.12 7.88-8.49 13.63.5 3.99 1.45 8.82 5.42 10.82 5.07 3.4 12.79 1.28 15.16-4.41 2.47-5.96 2.38-14.28-3.45-18.29-2.32-2.15-5.67-2.42-8.64-1.75m92.1 63.91c-2.9 1.3-4.91 4-6.39 6.72-3.3 8.69 2.55 19.6 11.98 20.83 7.62 1.27 14.4-6.55 13.17-13.91-.08-9.17-9.83-17.09-18.76-13.64m-87.02 4.04c-2.76 1.21-4.93 3.73-5.65 6.66-.96 9.36 9.51 17.7 18.43 15.16 2.95-.57 3.92-3.79 4.86-6.23 1.62-4.9-1.74-9.6-5.13-12.79-3.15-3.35-8.26-3.99-12.51-2.8z" fill="#1c1615"/><path d="m364 575.12c2.64-1.38 5.13-3.14 8.1-3.73-1.88 2.21-4.6 3.38-7.08 4.77-8.66 4.49-17.76 8.95-27.7 9.41-.04-.34-.13-1.01-.18-1.35 9.63-.43 18.49-4.67 26.86-9.1z" fill="#1c1615"/><path d="m225.27 675.17c1.41.74 2.84 1.52 4.1 2.52 7.1 5.68 15.5 9.33 23.6 13.31h-3.41c-5.41-2.62-10.81-5.26-15.91-8.44-3.15-2.01-6.43-4.1-8.38-7.39z" fill="#1c1615"/><path d="m342.27 683.16c1.83-.92 3.8-1.5 5.87-1.53-6.34 4.02-13.57 6.31-20.38 9.37h-3.66c6.03-2.67 12.23-4.96 18.17-7.84z" fill="#1c1615"/><path d="m300.92 349c1.03-2.55 4.13-4.07 6.64-2.57 4.65 2.68 7.84 7.18 11.84 10.67 2.13 3.52 4.97 7.56 9.58 7.6 6.49 1.08 11.66-3.69 16.84-6.78 3.6-2.12 7.88-2.23 11.9-2.95l1.51-.25c1.62 1.91 3.23 3.99 3.55 6.57 1.31 8.91-.1 18.05-3.02 26.52-.39.32-1.19.96-1.59 1.29-1.95 1.23-4.27 2.22-6.6 1.44-5.51-1.54-10.62-4.24-15.78-6.65-2.19-1.86-3.57-4.7-6.22-5.99-2.98-.34-6.04-.36-9 .14-1.91 1.2-3.45 2.91-5.25 4.26-3.57 2.43-7.28 6.14-11.98 5.34-4.9-1.85-5.64-7.74-6.48-12.23l-.13-1.43c.19-8.43.61-17.2 4.19-24.98z" fill="#3b1f27"/><path d="m397.76 364.32c-1.45-5.38-5.24-9.76-6.54-15.17 6 2.47 10.9 6.81 14.56 12.11 6.81 7.41 10.88 16.82 13.73 26.35 1.39 4.63 4.36 8.65 8.07 11.7 6.08 5.09 12.75 9.42 19.24 13.95 2.57 2 5.36 4.07 6.8 7.08.68 2.86.36 5.93-.54 8.71-2.92 9.11-7.71 17.69-14.3 24.65-4.19 2.89-9.21 4.31-14 5.9 6.42-8.06 12.54-17.07 14-27.51.64-4.98.58-10.81-3.35-14.52-7.61-7.59-16.81-13.31-25.82-19.06-6.29-4.23-13.18 1.22-19.17 3.39 2.22-2.94 4.87-5.59 6.58-8.89 4.74-8.79 3.57-19.48.74-28.69z" fill="#dad6d1"/><path d="m235.85 358.98c10.06 9.69 23.28 16.17 37.26 17.4 7.91 1.06 15.89.14 23.75-.97.84 4.49 1.58 10.38 6.48 12.23 4.7.8 8.41-2.91 11.98-5.34-3.81 4.67-4.88 10.65-5.49 16.48-11.1 2.46-22.57 2.02-33.82 1.18-12.78-1.16-25.45-3.41-37.86-6.68-1.14-.52-3.24-.39-3.41-2.02-.6-2.75-.36-5.59-.2-8.37.64-7.96 1.32-15.92 1.31-23.91z" fill="#989093"/><path d="m484.37 367.96c2.11.05 4.22.14 6.34.32.83 3.91 1.21 7.91 2.22 11.78 1.31 1.15 3.19 1.26 4.81 1.79.26 19.42-2.05 38.76-3.23 58.12-.49 15.92-4.14 31.71-2.61 47.68.49.17 1.48.52 1.98.69-1.66.39-3.33.75-4.99 1.12-1.99-2.25-4.5-3.93-7.46-4.55-.09-23.65 1.53-47.27 1.72-70.92.11-2.76.27-5.58-.88-8.18-.02-.56-.03-1.13-.02-1.68 2.1-2.19 1.33-5.35 1.48-8.06-.22-9.38.49-18.74.64-28.11z" fill="#4c2f21"/><path d="m497.74 381.85c.74 0 2.21.01 2.95.01.15 11.39-.66 22.76-.88 34.14-.64 23.96-1.44 47.91-2.05 71.87-1.3.19-2.59.34-3.88.47-.5-.17-1.49-.52-1.98-.69-1.53-15.97 2.12-31.76 2.61-47.68 1.18-19.36 3.49-38.7 3.23-58.12z" fill="#614a3e"/><path d="m305.62 440.05c-.23-7.07 5.74-12.97 12.3-14.59 2.02 2.19 3.83 4.62 6.18 6.49 1.8 1.1 3.61-.43 5.24-1.11 4.6 2.97 4.25 9.15 3.12 13.83-2.23 5.74-8.37 9.71-14.51 9.56-6.89-.68-12.52-7.3-12.33-14.18z" fill="#55341f"/><path d="m228.23 428.41c2.97-.67 6.32-.4 8.64 1.75 5.83 4.01 5.92 12.33 3.45 18.29-2.37 5.69-10.09 7.81-15.16 4.41-3.97-2-4.92-6.83-5.42-10.82-.63-5.75 2.85-11.93 8.49-13.63z" fill="#55341f"/><path d="m320.33 492.32c8.93-3.45 18.68 4.47 18.76 13.64 1.23 7.36-5.55 15.18-13.17 13.91-9.43-1.23-15.28-12.14-11.98-20.83 1.48-2.72 3.49-5.42 6.39-6.72z" fill="#55341f"/><path d="m233.31 496.36c4.25-1.19 9.36-.55 12.51 2.8 3.39 3.19 6.75 7.89 5.13 12.79-.94 2.44-1.91 5.66-4.86 6.23-8.92 2.54-19.39-5.8-18.43-15.16.72-2.93 2.89-5.45 5.65-6.66z" fill="#55341f"/><path d="m440.81 454.68c6.24-2.78 13.25-4.19 20.07-3.3 2.54.56 5.64 1.47 6.84 4.03 1.36 4.12-.42 8.41-2.16 12.13-.86-1.16-1.55-2.5-2.77-3.31-6.66-4.56-14.6-6.52-21.98-9.55z" fill="#d8d5d1"/><path d="m439.9 454.55c.23.03.68.1.91.13 7.38 3.03 15.32 4.99 21.98 9.55 1.22.81 1.91 2.15 2.77 3.31-2.72 5.03-5.41 10.4-9.67 14.28-5.16.75-8.97-3.66-12.61-6.6 1.44-7.07-1.32-14.02-3.38-20.67z" fill="#979191"/><path d="m430.07 459.48c2.89-1.17 5.74-2.43 8.64-3.59 1.69 5.74 4.32 11.79 3.04 17.84-2.11 1.47-4.72 1.97-7.09 2.87.3-6.06-1.65-11.9-4.59-17.12z" fill="#d9d6d1"/><path d="m379.86 473.21c16.88-3.99 33.84-7.92 50.21-13.73 2.94 5.22 4.89 11.06 4.59 17.12l.01.11c-15.06 5.49-30.21 11.5-46.3 13.05-4.52-4.43-6.48-10.72-8.51-16.55z" fill="#989092"/><path d="m364.28 464.19c3.32 1.48 6.48 3.29 9.64 5.1-1.03 3.34-1.36 7-3.21 9.99-1.94-5.12-4.15-10.12-6.43-15.09z" fill="#959190"/><path d="m144.16 474.22c4.58-.3 9.2-.3 13.78.13 1.85-.08 3.76 1.72 3.23 3.64-.72 4.97-1.81 9.99-1.23 15.04.27 2.02 1.89 4.29.33 6.18-2.67 3.61-7.25 7.23-12 5.49-3.76-1.84-6.04-5.67-7.75-9.33-2.27-5.09-5.23-10.53-4.13-16.29 1.2-3.08 4.72-4.44 7.77-4.86z" fill="#979092"/><path d="m387.68 517c2.7-2.41 5.19-5.03 7.89-7.44 6.38 16.93 12.99 34.19 24.24 48.58 3.13 4.23 7.8 7.63 13.21 7.9 8.87.51 17.54-1.85 26.2-3.38 6.16-1.5 12.74-1.76 18.45-4.77-.15 11.2-.57 22.41-.93 33.59-6.13 10.53-11.11 21.72-17.69 31.99-19.38-11.86-39.6-22.42-60.7-30.89-2.27-4.66-4.35-9.43-7.09-13.83-.74-1.36-2.55-2.04-3.97-1.44-3.22 1.17-6.17 2.94-9.26 4.4-.73-5.56-1.02-11.17-1.88-16.72 2.07-1.87 4.45-3.62 5.6-6.26 2.38-4.75 1.53-10.4-.47-15.12 4.06-5.17 9.68-9.76 10.92-16.54.95-4.16-2.56-6.93-4.52-10.07z" fill="#ac9796"/><path d="m331.94 570.86c17.4-5.79 34.81-13.33 48.16-26.28 1.42 3.91 2.27 8.33.74 12.35-1.05 3.24-3.77 5.57-6.56 7.33-16.23 9.35-34.26 15.62-52.79 18.38-19.18 2.84-38.65.45-57.53-3.23-12.26-2.88-24.41-6.84-35.44-12.98-2.39-1.08-2.68-3.73-2.77-6.04 4.23 1 7.86 3.53 11.93 5 17.61 6.88 36.55 9.78 55.37 10.66 13.16.8 26.23-1.86 38.89-5.19z" fill="#8c8484"/><path d="m204.17 545.57c3.88.62 7.72 1.5 11.46 2.73.34 1.84-.01 4.09 1.48 5.5 2.3 2.23 5.15 3.75 7.81 5.49-.18 1.87-.95 3.92.08 5.69 1.21 2.03 3.45 3.06 5.4 4.24-.13 4.98-.59 9.96-.46 14.95-2.47-1.74-5.89-4.47-8.88-2.22-6.29 4.7-12.43 9.88-17.02 16.31-2.25 3.02.02 6.53 1.3 9.42-6.17 5.51-12.98 10.31-20.35 14.07 6.38-25.36 13.03-50.73 19.18-76.18z" fill="#ab9897"/><path d="m478.72 577.03c.57-9.27-.03-18.57.67-27.83 4.7 2.31 9.68 3.91 14.65 5.54-3.51 3.19-2.2 8.1-2.38 12.27-.3 15.68.75 31.62-2.93 47.01-1.7 7.99-.79 16.21-1.4 24.3-.41 17.31-.9 34.63-.68 51.95-3.72-.02-7.43-.05-11.15-.16.41-23.2 1.55-46.4 1.71-69.61.92-14.48.71-28.99 1.51-43.47z" fill="#4c3022"/><path d="m131.51 559.47c4.67-5.55 12.23-6.93 18.84-8.91-3.75 18.54-7.4 37.12-11.58 55.56-4.33-10.47-7.6-21.41-9.53-32.58-.58-4.72-1.14-10.23 2.27-14.07z" fill="#ad9898"/><path d="m491.66 567.01c.18-4.17-1.13-9.08 2.38-12.27 2.44 4.03 1.03 8.83 1.13 13.25-.18 12.33-.2 24.67-.93 36.99-.52 28.41-1.99 56.8-2.32 85.22-1.76.04-3.52.06-5.27.07-.22-17.32.27-34.64.68-51.95.61-8.09-.3-16.31 1.4-24.3 3.68-15.39 2.63-31.33 2.93-47.01z" fill="#624b3d"/><path d="m496.91 559.08c1.32.11 2.65.23 3.99.37-.42 4.61-1.82 9.11-4.22 13.09-.11-4.49.17-8.97.23-13.46z" fill="#d6d7d0"/><path d="m326.14 583.65c16.98-3.23 33.21-9.58 48.62-17.31.74 5.5 1.18 11.03 1.8 16.55-3.89 4.54-10.64 4.56-14.73 8.64 4.27-.74 8.05-2.92 11.93-4.74-1.2 2.89-4.61 3.51-7.07 4.95-19.37 9.78-40.92 15.58-62.68 15.51-25.42.19-50.89-7.35-72.04-21.44-.12-.62-.35-1.85-.47-2.47 6.88 4.02 14.4 7.54 22.37 8.5-1.8-1.85-4.46-2.14-6.78-2.97-5.4-1.61-10.38-4.28-15.43-6.72-.01-2.61.04-5.2.14-7.79 4.72 3.16 10.15 4.96 15.23 7.44 3.84 1.48 7.41 4.2 11.7 4.06-6.59-3.88-14.05-6.15-20.81-9.77-2.4-1.55-6.78-1.85-6.26-5.64 10.33 5.48 21.86 8.14 33.19 10.68 20.1 3.91 40.98 6.31 61.29 2.52m37.86-8.53c-8.37 4.43-17.23 8.67-26.86 9.1.05.34.14 1.01.18 1.35 9.94-.46 19.04-4.92 27.7-9.41 2.48-1.39 5.2-2.56 7.08-4.77-2.97.59-5.46 2.35-8.1 3.73z" fill="#ac9b99"/><path d="m380.58 582.06c2.44-1.18 4.77-2.68 7.43-3.37 2.65.09 3.13 3.16 4.33 4.98 3.21 6.8 7.42 13.67 7.71 21.37.45 2.2-1.81 2.86-3.36 3.56-.88-5.21-2.95-10.12-4.29-15.21-1.48-5.65-6.59-9.4-11.82-11.33z" fill="#c0b6b4"/><path d="m374.93 587.09c.94-2.53 3.48-3.75 5.65-5.03 5.23 1.93 10.34 5.68 11.82 11.33 1.34 5.09 3.41 10 4.29 15.21-.74 1.03-1.77 1.98-1.89 3.33-.88 6.16 1.38 12.1 3.17 17.89-2.01 1.07-4.02 2.16-5.92 3.42 3.54.2 6.53-2.03 9.78-3.09 4.58 5.97 8.91 12.24 11.93 19.16 2.15 4.79 2.2 10.12 1.72 15.26-2.71 1.35-5.61 3.3-6.12 6.55-.3 3.42-.91 7.32 1.29 10.29-3.42 2.27-7.47 3.1-11.39 4.05.22-7.34-.92-14.6-2.19-21.8 3.37-1.01 7.88-.46 10.26-3.43-3.52.74-6.97 1.8-10.54 2.28-3.16-15.14-7.66-29.97-12.78-44.56 2.78-2.1 6.26-3.52 8.18-6.57-3.11 1.41-5.85 3.48-8.53 5.57-2.45-6.97-4.88-13.97-8.01-20.66-1.31-2.85-2.28-6.25-.72-9.2z" fill="#ab9b99"/><path d="m221.55 583.44c2.94-2.01 5.91.85 8.08 2.65-24.85 30.74-43.91 66.53-53.69 104.91h-9.51c2.61-9.81 5.35-19.58 7.82-29.43 2.19-.27 5.27.7 6.64-1.59 1.75-2.56 3.07-5.76 2.4-8.9-1.37-2.53-4.26-4.8-2.94-8.02 2.85-9.32 9.49-17.35 17.53-22.73 1.73.31 4.19 2.21 5.47.09 1.9-2.64 3.52-5.52 4.62-8.57.77-4.59-5.62-8.82-2.35-13.29 4.5-5.79 9.99-10.84 15.93-15.12z" fill="#ab9b99"/><path d="m196.94 638.93c9.35-18.42 20.45-36.02 33.64-51.93 9.4 10.06 21.11 17.55 32.78 24.68 4.41 2.31 8.7 5.76 13.93 5.59-4.14-1.99-8.47-3.6-12.37-6.06-10.66-6.43-21.2-13.3-30.28-21.86 20.64 12.16 44.36 19.35 68.42 19.21 16.79.34 33.34-3.4 49.14-8.82-11.83 10.39-26.9 16.1-42.02 19.71-13.74 3.46-27.91 4.38-41.89 6.33 1.31.49 2.73.61 4.13.49 10.58-1.01 21.18-2.13 31.62-4.24 15.63-3.29 31.38-8.12 44.34-17.78 3.07-2.21 5.41-5.43 9-6.87 5.14-2.23 10.29-4.48 15.14-7.31.74 4.53 2.9 8.6 4.59 12.82 5.96 15.35 11.17 31.01 15.39 46.94 3.38 13.43 6.45 27.23 5.23 41.17h-69.97c6.81-3.06 14.04-5.35 20.38-9.37-2.07.03-4.04.61-5.87 1.53-5.94 2.88-12.14 5.17-18.17 7.84h-71.13c-8.1-3.98-16.5-7.63-23.6-13.31-1.26-1-2.69-1.78-4.1-2.52 1.95 3.29 5.23 5.38 8.38 7.39 5.1 3.18 10.5 5.82 15.91 8.44h-72.31c4.48-18.06 11.39-35.45 19.69-52.07z" fill="#ac9a99"/><path d="m459.05 623.47c6.58-10.27 11.56-21.46 17.69-31.99-.21 8.51-.17 17.06-.88 25.54-1.71 4.07-3.62 8.45-6.76 11.59-3.94-.24-6.91-3.09-10.05-5.14z" fill="#d8d2ce"/><path d="m398.88 594.37c26.69 11.32 52.79 24.62 76.08 41.99 1.2 5.54-.25 11.5.05 17.22-16.32-14.67-33.2-28.74-51.16-41.38-7.65-5.1-14.97-10.91-23.42-14.66-.51-1.07-1.03-2.13-1.55-3.17z" fill="#9e8d8a"/><path d="m400.43 597.54c8.45 3.75 15.77 9.56 23.42 14.66 17.96 12.64 34.84 26.71 51.16 41.38-.09 7.16-.46 14.31-.84 21.46-2.98-2.78-6.12-5.39-9-8.26-6.83-7.24-15.15-12.82-22.39-19.6-10.51-11.07-24.81-17.55-35.52-28.4-3.21-2.88-6.74-5.39-9.64-8.59 1.2-.95 2.7-1.55 3.67-2.77 1.14-3.25.22-6.76-.86-9.88z" fill="#403734"/><path d="m396.64 618.99c-.41-2.91-1.02-6.32.98-8.8 2.9 3.2 6.43 5.71 9.64 8.59 10.71 10.85 25.01 17.33 35.52 28.4 7.24 6.78 15.56 12.36 22.39 19.6 2.88 2.87 6.02 5.48 9 8.26-.21 5-.2 10.01-.33 15.02-16.53-.1-33.07-.13-49.59.02-.33-3.19-.98-6.34-1.87-9.41-3.55-.34-7.1-.68-10.65-.89-1.34-3.86-1.52-8.59 1.24-11.88 2.59-2.21 6.38-1.94 9.2-3.76 1.49-1.64 1.31-4.03 1.35-6.07-.43-10.76-5.12-20.63-9.24-30.36-.8-1.97-2.91-3.79-5.13-3.21-2.93 1.21-5.58 3-8.43 4.39-2.24-2.88-3.58-6.31-4.08-9.9z" fill="#2c1e1d"/><path d="m401.83 630.15c2.75-1.32 5.17-3.33 8.1-4.25 2.6.3 3 3.26 3.96 5.18 3.72 8.59 7.41 17.45 7.86 26.92-.05 1.82.1 4-1.24 5.43-1.56.76-3.36.78-5.03 1.14.48-5.14.43-10.47-1.72-15.26-3.02-6.92-7.35-13.19-11.93-19.16z" fill="#c2b8b6"/><path d="m494.27 651.39c12.73 11.03 25.32 22.23 37.08 34.3 1.36 1.41 2.78 2.86 3.54 4.72-.37-.02-1.11-.07-1.47-.1-5.94.29-11.89.31-17.82.67l1.49.02h-4.93c-4.97-7.35-11.94-13.06-18.3-19.15.04-6.83.06-13.65.41-20.46z" fill="#9d8b87"/><path d="m493.86 671.85c6.36 6.09 13.33 11.8 18.3 19.15h-.83c-5.76-2.06-12.03-.66-18-.85-.05-6.11.36-12.21.53-18.3z" fill="#403633"/><path d="m106.16 691c5.41-5.5 11.05-10.82 17.38-15.26l.85-.63c-.62 3.63-.92 7.39-2.22 10.86-1.56 1.92-3.53 3.46-5.44 5.03z" fill="#867b74"/><path d="m410.11 683.11c3.5-1.94 7.69-1.48 11.46-.73.22 2.87.41 5.74.6 8.62h-23.58c.27-1.52.51-3.04.75-4.55 3.74-.53 7.45-1.48 10.77-3.34z" fill="#ac9c9b"/><path d="m424.25 690.08c16.52-.15 33.06-.12 49.59-.02.41.02 1.25.04 1.66.05 3.72.11 7.43.14 11.15.16 1.75-.01 3.51-.03 5.27-.07.35-.02 1.06-.04 1.41-.05 5.97.19 12.24-1.21 18 .85h-87.58z" fill="#1a1310" opacity=".49"/></svg>