<svg enable-background="new 0 0 556.5 618.5" viewBox="0 0 556.5 618.5" xmlns="http://www.w3.org/2000/svg"><path d="m556.5 479.3v-340.2l-278.3-139.1-278.2 139.1v340.2l278.2 139.2" fill="#5e3f29"/><path d="m0 139.1v63.8l17.4 8.7v-21.3l17.4 8.7v21.3l34.8 17.4v21.3l17.3 8.6v-63.7l17.4 8.7v42.5l17.4 8.7v-21.3l17.4 8.7v42.5l17.4 8.7v-21.2l17.4 8.7v21.2l17.4 8.7v-21.2l17.4 8.7v-21.3l17.4 8.7v21.3l34.7 17.4v-21.3l17.4 8.7v-42.5z" fill="#74b24b"/><path d="m278.2 278.3v63.8l17.4-8.7v-21.3l17.4-8.7v21.3l34.8-17.4v21.2l17.4-8.7v-63.8l17.4-8.7v42.6l17.4-8.7v-21.3l17.4-8.7v42.5l17.3-8.7v-21.2l17.4-8.7v21.2l17.4-8.7v-21.2l17.4-8.7v-21.3l17.4-8.7v21.3l34.8-17.4v-21.3l17.4-8.7v-42.5z" fill="#5d6f32"/><path d="m104.3 255.1v-21.3l-17.4-8.7v21.3z" fill="#4a3123"/><path d="m69.6 237.7v-21.3l-17.4-8.7v21.3z" fill="#518630"/><path d="m121.7 455.1v21.3l17.4 8.7v-21.3z" fill="#64452f"/><path d="m156.5 472.5v21.3l17.4 8.7v-21.3z" fill="#64452f"/><path d="m139.1 463.8v21.3l17.4 8.7v-21.3z" fill="#65442f"/><path d="m52.2 420.3v21.3l17.4 8.7v-21.3z" fill="#65442f"/><path d="m208.7 477.4 17.4 8.7v-21.3l-17.4-8.7z" fill="#7b593b"/><path d="m208.7 434.8 17.4 8.7v-21.2l-17.4-8.7z" fill="#64452d"/><path d="m173.9 481.2v21.3l17.4 8.7v-21.3z" fill="#624330"/><path d="m191.3 489.9v21.3l17.4 8.7v-21.3z" fill="#644531"/><path d="m208.7 498.6 17.4 8.7v-21.2l-17.4-8.7z" fill="#483223"/><path d="m208.7 519.9 17.4 8.7v-21.3l-17.4-8.7z" fill="#64452d"/><path d="m139.1 293.7v-21.2l-17.4-8.7v21.2z" fill="#42361f"/><path d="m104.3 276.3v-21.2l-17.4-8.7v21.2z" fill="#4a3123"/><path d="m208.7 413.6 17.4 8.7v-21.3l-17.4-8.7z" fill="#64452d"/><path d="m121.7 285v-21.2l-17.4-8.7v21.2z" fill="#483223"/><path d="m173.9 311.1v-21.2l-17.4-8.7v21.2z" fill="#483221"/><path d="m208.7 328.5v-21.2l-17.4-8.7v21.2z" fill="#473321"/><path d="m191.3 319.8v-21.2l-17.4-8.7v21.2z" fill="#5a8c37"/><path d="m156.5 302.4v-21.2l-17.4-8.7v21.2z" fill="#4c842a"/><path d="m69.6 344-17.4-8.7v21.3l17.4 8.7z" fill="#795841"/><path d="m86.9 267.6v-21.2l-17.3-8.7v21.3z" fill="#5d913b"/><path d="m69.6 259-17.4-8.7v21.2l17.4 8.7z" fill="#966d4d"/><path d="m208.7 328.5 17.4 8.7v-21.2l-17.4-8.7z" fill="#65452d"/><path d="m52.2 335.3-17.4-8.7v21.3l17.4 8.7z" fill="#634733"/><path d="m52.2 356.6-17.4-8.7v21.2l17.4 8.7z" fill="#483221"/><path d="m52.2 399.1-17.4-8.7v21.2l17.4 8.7z" fill="#65442f"/><path d="m52.2 377.8-17.4-8.7v21.3l17.4 8.7z" fill="#64452d"/><path d="m52.2 314-17.4-8.7v21.3l17.4 8.7 17.4 8.7v-21.3z" fill="#966e4b"/><path d="m52.2 292.8-17.4-8.7v21.2l17.4 8.7 17.4 8.7v-21.2z" fill="#64452f"/><path d="m104.3 467.7v21.3l17.4 8.7v-21.3z" fill="#79593f"/><path d="m86.9 459v21.3l17.4 8.7v-21.3z" fill="#65442f"/><path d="m52.2 271.5v-21.2l-17.4-8.7v21.2 21.3l17.4 8.7 17.4 8.7v-21.3z" fill="#7c5940"/><path d="m121.7 476.4v21.3l17.4 8.6v-21.2z" fill="#7b583d"/><path d="m139.1 485.1v21.2l17.4 8.7v-21.2z" fill="#64452f"/><path d="m34.8 432.9v21.3l17.4 8.7v-21.3z" fill="#64452f"/><path d="m69.6 450.3v21.3l17.3 8.7v-21.3z" fill="#483223"/><path d="m52.2 420.3-17.4-8.7v21.3l17.4 8.7z" fill="#79593d"/><path d="m156.5 281.2v-21.3l-17.4-8.7v21.3z" fill="#5f963f"/><path d="m173.9 289.9v-21.3l-17.4-8.7v21.3z" fill="#679c46"/><path d="m191.3 298.6v-21.3l-17.4-8.7v21.3z" fill="#769e51"/><path d="m226.1 316v-21.3l-17.4-8.7v21.3z" fill="#463121"/><path d="m208.7 307.3v-21.3l-17.4-8.7v21.3z" fill="#7ba356"/><path d="m191.3 341.1 17.4 8.7v-21.3l-17.4-8.7z" fill="#575958"/><path d="m208.7 371 17.4 8.7v-21.2l-17.4-8.7z" fill="#64452f"/><path d="m208.7 349.8 17.4 8.7v-21.3l-17.4-8.7z" fill="#64452f"/><path d="m86.9 246.4v-21.3l-17.3-8.7v21.3z" fill="#548b36"/><path d="m52.2 207.7-17.4-8.7v21.3l17.4 8.7z" fill="#7ea659"/><path d="m52.2 229-17.4-8.7v21.3l17.4 8.7 17.4 8.7v-21.3z" fill="#483221"/><path d="m139.1 272.5v-21.3l-17.4-8.7v21.3z" fill="#483223"/><path d="m208.7 392.3 17.4 8.7v-21.3l-17.4-8.7z" fill="#64452f"/><path d="m121.7 263.8v-21.3l-17.4-8.7v21.3z" fill="#5c903a"/><path d="m52.2 441.6v21.3l17.4 8.7v-21.3z" fill="#624531"/><path d="m121.7 327.6v-21.3l-17.4-8.7v21.3z" fill="#473321"/><path d="m104.3 340.1-17.4-8.7v21.3l17.4 8.7z" fill="#79593d"/><path d="m156.5 345v-21.3l-17.4-8.7v21.3z" fill="#483125"/><path d="m139.1 336.3v-21.3l-17.4-8.7v21.3z" fill="#473121"/><path d="m139.1 421.3v21.3l17.4 8.7v-21.3z" fill="#483223"/><path d="m104.3 382.6-17.4-8.6v21.2l17.4 8.7z" fill="#4a3121"/><path d="m104.3 403.9v21.3l17.4 8.7v-21.3z" fill="#946c4a"/><path d="m104.3 361.4-17.4-8.7v21.3l17.4 8.6z" fill="#7c593e"/><path d="m86.9 395.2v21.3l17.4 8.7v-21.3z" fill="#644531"/><path d="m121.7 391.3v21.3l17.4 8.7v-21.3z" fill="#62462d"/><path d="m139.1 378.8 17.4 8.7v-21.3l-17.4-8.7z" fill="#76593a"/><path d="m156.5 366.2v-21.2l-17.4-8.7v21.2z" fill="#976d4b"/><path d="m139.1 357.5v-21.2l-17.4-8.7v21.2z" fill="#906a4e"/><path d="m139.1 400 17.4 8.7v-21.2l-17.4-8.7z" fill="#64452f"/><path d="m121.7 370.1v21.2l17.4 8.7v-21.2z" fill="#4a3121"/><path d="m156.5 430 17.4 8.7v-21.3l-17.4-8.7z" fill="#644531"/><path d="m156.5 387.5 17.4 8.7v-21.3l-17.4-8.7z" fill="#47311f"/><path d="m139.1 400v21.3l17.4 8.7v-21.3z" fill="#64452f"/><path d="m173.9 438.7-17.4-8.7v21.3l17.4 8.7 17.4 8.7v-21.3z" fill="#976d49"/><path d="m121.7 348.8v-21.2l-17.4-8.7-17.4-8.7v21.2l17.4 8.7v21.3 21.2l17.4 8.7v-21.2l17.4 8.7v-21.3z" fill="#64452f"/><path d="m104.3 382.6v21.3l17.4 8.7v-21.3z" fill="#4a3123"/><path d="m139.1 442.6v21.2l17.4 8.7v-21.2z" fill="#585956"/><path d="m104.3 425.2v21.2l17.4 8.7v-21.2z" fill="#65442f"/><path d="m121.7 412.6v21.3 21.2l17.4 8.7v-21.2-21.3z" fill="#7b583d"/><path d="m156.5 451.3v21.2l17.4 8.7v-21.2z" fill="#7c573d"/><path d="m191.3 362.4 17.4 8.6v-21.2l-17.4-8.7z" fill="#4a3025"/><path d="m86.9 416.5v21.2l17.4 8.7v-21.2z" fill="#976d4b"/><path d="m69.6 386.5-17.4-8.7v21.3l17.4 8.7 17.3 8.7v-21.3z" fill="#976d4b"/><path d="m86.9 437.7v-21.2l-17.3-8.7-17.4-8.7v21.2l17.4 8.7v21.3l17.3 8.7 17.4 8.7v-21.3z" fill="#7b583d"/><path d="m173.9 460v21.2l17.4 8.7v-21.2z" fill="#79583a"/><path d="m173.9 438.7 17.4 8.7v-21.3l-17.4-8.7z" fill="#62462f"/><path d="m191.3 489.9 17.4 8.7v-21.2l-17.4-8.7z" fill="#64452f"/><path d="m191.3 468.7 17.4 8.7v-21.3l-17.4-8.7z" fill="#62462d"/><path d="m191.3 447.4 17.4 8.7v-21.3l-17.4-8.7z" fill="#67442b"/><path d="m191.3 426.1 17.4 8.7v-21.2l-17.4-8.7z" fill="#64452f"/><path d="m191.3 341.1v-21.3l-17.4-8.7v21.3z" fill="#483223"/><path d="m173.9 332.4v-21.3l-17.4-8.7v21.3z" fill="#483125"/><path d="m156.5 323.7v-21.3l-17.4-8.7v21.3z" fill="#483223"/><path d="m173.9 332.4-17.4-8.7v21.3 21.2l17.4 8.7v-21.2l17.4 8.7v-21.3z" fill="#64452f"/><path d="m69.6 344v21.3l-17.4-8.7v21.2l17.4 8.7 17.3 8.7v-21.2-21.3z" fill="#64432c"/><path d="m191.3 362.4-17.4-8.7v21.2l17.4 8.7 17.4 8.7v-21.3z" fill="#966e4b"/><path d="m191.3 383.6-17.4-8.7v21.3l-17.4-8.7v21.2l17.4 8.7 17.4 8.7v-21.2l17.4 8.7v-21.3z" fill="#7c583b"/><path d="m86.9 310.2-17.3-8.7v21.2l17.3 8.7z" fill="#6d6d6d"/><path d="m86.9 331.4-17.3-8.7v21.3l17.3 8.7z" fill="#7b583d"/><path d="m86.9 288.9-17.3-8.7v21.3l17.3 8.7z" fill="#64452d"/><path d="m121.7 285-17.4-8.7v21.3l17.4 8.7 17.4 8.7v-21.3z" fill="#62462f"/><path d="m86.9 267.6v21.3 21.3l17.4 8.7v-21.3-21.3z" fill="#7c573f"/><path d="m86.9 267.6-17.3-8.6v21.2l17.3 8.7z" fill="#473323"/><path d="m104.3 446.4v21.3l17.4 8.7v-21.3z" fill="#976d4b"/><path d="m17.4 211.6-17.4-8.7v21.3l17.4 8.7z" fill="#4a3025"/><path d="m243.4 367.2 17.4 8.7v-21.3l-17.4-8.7z" fill="#473225"/><path d="m17.4 190.3-17.4-8.7v21.3l17.4 8.7z" fill="#739b4d"/><path d="m17.4 254.1-17.4-8.7v21.3l17.4 8.7z" fill="#64452f"/><path d="m17.4 147.8-17.4-8.7v21.3l17.4 8.7z" fill="#5f943e"/><path d="m34.8 177.8v-21.3l-17.4-8.7v21.3z" fill="#60953f"/><path d="m17.4 169.1-17.4-8.7v21.2l17.4 8.7z" fill="#60913f"/><path d="m17.4 402.9-17.4-8.7v21.3l17.4 8.7z" fill="#64452f"/><path d="m17.4 424.2-17.4-8.7v21.3l17.4 8.7z" fill="#65442f"/><path d="m0 266.7v21.2 21.3l17.4 8.7v-21.3-21.2z" fill="#966c4a"/><path d="m52.2 186.5v-21.3l-17.4-8.7v21.3z" fill="#5c933d"/><path d="m208.7 264.7v-21.2l-17.4-8.7v21.2z" fill="#538832"/><path d="m243.4 282.1v-21.2l-17.3-8.7v21.2z" fill="#518630"/><path d="m17.4 445.5-17.4-8.7v21.2l17.4 8.7z" fill="#7b583d"/><path d="m260.8 290.8v-21.2l-17.4-8.7v21.2z" fill="#41761d"/><path d="m226.1 273.4v-21.2l-17.4-8.7v21.2z" fill="#568b32"/><path d="m243.4 345.9 17.4 8.7v-21.2l-17.4-8.7z" fill="#4a3025"/><path d="m243.4 303.4 17.4 8.7v-21.3l-17.4-8.7z" fill="#558a31"/><path d="m243.4 324.7 17.4 8.7v-21.3l-17.4-8.7z" fill="#4e822c"/><path d="m104.3 212.6v-21.3l-17.4-8.7v21.3z" fill="#5a8f39"/><path d="m69.6 195.2v-21.3l-17.4-8.7v21.3z" fill="#538930"/><path d="m121.7 221.3v-21.3l-17.4-8.7v21.3z" fill="#4c832c"/><path d="m86.9 203.9v-21.3l-17.3-8.7v21.3z" fill="#528930"/><path d="m173.9 247.3v-21.2l-17.4-8.7v21.2z" fill="#619640"/><path d="m139.1 230v-21.3l-17.4-8.7v21.3z" fill="#588d37"/><path d="m191.3 256v-21.2l-17.4-8.7v21.2z" fill="#578c36"/><path d="m156.5 238.6v-21.2l-17.4-8.7v21.3z" fill="#669b45"/><path d="m17.4 232.9-17.4-8.7v21.2l17.4 8.7z" fill="#7b583d"/><path d="m260.8 482.2 17.4 8.7v-21.3l-17.4-8.7z" fill="#7b583d"/><path d="m260.8 460.9 17.4 8.7v-21.2l-17.4-8.7z" fill="#64452f"/><path d="m260.8 503.5 17.4 8.7v-21.3l-17.4-8.7z" fill="#64452d"/><path d="m260.8 524.7 17.4 8.7v-21.2l-17.4-8.7z" fill="#483223"/><path d="m260.8 312.1 17.4 8.7v-21.3l-17.4-8.7z" fill="#558c36"/><path d="m260.8 333.4 17.4 8.7v-21.3l-17.4-8.7z" fill="#473121"/><path d="m260.8 269.6v21.2l17.4 8.7v-21.2z" fill="#588d37"/><path d="m260.8 375.9 17.4 8.7v-21.3l-17.4-8.7z" fill="#62442e"/><path d="m260.8 397.1 17.4 8.7v-21.2l-17.4-8.7z" fill="#966d4d"/><path d="m260.8 354.6 17.4 8.7v-21.2l-17.4-8.7z" fill="#64452f"/><path d="m0 458v21.3l17.4 8.7v-21.3z" fill="#7b583d"/><path d="m86.9 501.5v21.3l17.4 8.7v-21.3z" fill="#64452f"/><path d="m104.3 510.2v21.3l17.4 8.7v-21.3z" fill="#6f6f6f"/><path d="m17.4 466.7v21.3l17.4 8.7v-21.3z" fill="#644531"/><path d="m69.6 492.8-17.4-8.7v21.3l17.4 8.7 17.3 8.7v-21.3z" fill="#7c583b"/><path d="m34.8 475.4v21.3l17.4 8.7v-21.3z" fill="#976d4b"/><path d="m208.7 562.4v21.3l17.4 8.7v-21.3z" fill="#7b583d"/><path d="m226.1 571.1v21.3l17.3 8.7v-21.3z" fill="#765a43"/><path d="m243.4 579.8v21.3l17.4 8.7v-21.3z" fill="#61432d"/><path d="m156.5 536.3-17.4-8.7-17.4-8.7v21.3l17.4 8.7 17.4 8.7 17.4 8.7v-21.3z" fill="#7b583f"/><path d="m260.8 609.8 17.4 8.7v-21.3l-17.4-8.7z" fill="#483221"/><path d="m191.3 553.7v21.3l17.4 8.7v-21.3z" fill="#624531"/><path d="m173.9 545v21.3l17.4 8.7v-21.3z" fill="#62462f"/><path d="m243.4 516 17.4 8.7v-21.2l-17.4-8.7z" fill="#65442f"/><path d="m243.4 303.4v-21.3l-17.3-8.7v21.3z" fill="#588d37"/><path d="m173.9 268.6v-21.3l-17.4-8.7v21.3z" fill="#76a050"/><path d="m139.1 251.2v-21.2l-17.4-8.7v21.2z" fill="#50852f"/><path d="m121.7 242.5v-21.2l-17.4-8.7v21.2z" fill="#538a33"/><path d="m34.8 241.6-17.4-8.7v21.2l17.4 8.7z" fill="#65452d"/><path d="m226.1 294.7v-21.3l-17.4-8.7v21.3z" fill="#4f842d"/><path d="m208.7 286v-21.3l-17.4-8.7v21.3z" fill="#5e933d"/><path d="m156.5 259.9v-21.3l-17.4-8.6v21.2z" fill="#4d8229"/><path d="m34.8 199-17.4-8.7v21.3l17.4 8.7z" fill="#483221"/><path d="m34.8 177.8-17.4-8.7v21.2l17.4 8.7z" fill="#578c36"/><path d="m34.8 220.3-17.4-8.7v21.3l17.4 8.7z" fill="#585956"/><path d="m52.2 207.7v-21.2l-17.4-8.7v21.2z" fill="#72964a"/><path d="m104.3 233.8v-21.2l-17.4-8.7v21.2z" fill="#483223"/><path d="m86.9 225.1v-21.2l-17.3-8.7v21.2z" fill="#698e42"/><path d="m69.6 216.4v-21.2l-17.4-8.7v21.2z" fill="#689043"/><path d="m191.3 277.3v-21.3l-17.4-8.7v21.3z" fill="#789b50"/><path d="m226.1 549.8 17.3 8.7v-21.2l-17.3-8.7z" fill="#976c4d"/><path d="m226.1 486.1 17.3 8.7v-21.3l-17.3-8.7z" fill="#7b583d"/><path d="m226.1 507.3 17.3 8.7v-21.2l-17.3-8.7z" fill="#7c573d"/><path d="m226.1 528.6 17.3 8.7v-21.3l-17.3-8.7z" fill="#65452d"/><path d="m208.7 519.9v21.2l17.4 8.7v-21.2z" fill="#68452d"/><path d="m173.9 502.5v21.2l17.4 8.7v-21.2z" fill="#976d4b"/><path d="m191.3 511.2v21.2l17.4 8.7v-21.2z" fill="#483223"/><path d="m226.1 379.7 17.3 8.7v-21.2l-17.3-8.7z" fill="#64432c"/><path d="m226.1 358.5 17.3 8.7v-21.3l-17.3-8.7z" fill="#79593f"/><path d="m226.1 443.5-17.4-8.7v21.3l17.4 8.7 17.3 8.7v-21.3z" fill="#976d49"/><path d="m226.1 337.2 17.3 8.7v-21.2l-17.3-8.7z" fill="#483223"/><path d="m226.1 316 17.3 8.7v-21.3l-17.3-8.7z" fill="#477b27"/><path d="m226.1 401 17.3 8.7v-21.3l-17.3-8.7z" fill="#78583c"/><path d="m226.1 443.5 17.3 8.7v-21.2l-17.3-8.7z" fill="#64452f"/><path d="m226.1 422.3 17.3 8.7v-21.3l-17.3-8.7z" fill="#64452f"/><path d="m121.7 497.7v21.2l17.4 8.7v-21.3z" fill="#4a3121"/><path d="m226.1 549.8v21.3l17.3 8.7v-21.3z" fill="#64452f"/><path d="m208.7 541.1v21.3l17.4 8.7v-21.3z" fill="#64452f"/><path d="m191.3 532.4v21.3l17.4 8.7v-21.3z" fill="#4a3123"/><path d="m156.5 515v21.3l17.4 8.7v-21.3z" fill="#64452f"/><path d="m139.1 506.3v21.3l17.4 8.7v-21.3z" fill="#65452d"/><path d="m173.9 523.7v21.3l17.4 8.7v-21.3z" fill="#64452f"/><path d="m243.4 452.2 17.4 8.7v-21.2l-17.4-8.7z" fill="#4a3121"/><path d="m260.8 397.1v21.3l-17.4-8.7v21.3l17.4 8.7 17.4 8.7v-21.3-21.3z" fill="#7b583d"/><path d="m243.4 409.7 17.4 8.7v-21.3l-17.4-8.7z" fill="#64452d"/><path d="m156.5 493.8v21.2l17.4 8.7v-21.2z" fill="#483223"/><path d="m260.8 524.7-17.4-8.7v21.3l17.4 8.7 17.4 8.7v-21.3z" fill="#976c4d"/><path d="m243.4 473.5 17.4 8.7v-21.3l-17.4-8.7z" fill="#64452f"/><path d="m243.4 494.8 17.4 8.7v-21.3l-17.4-8.7z" fill="#706e6f"/><path d="m260.8 546-17.4-8.7v21.2 21.3l17.4 8.7 17.4 8.7v-21.3-21.2z" fill="#7b583d"/><path d="m34.8 390.4-17.4-8.7v21.2l17.4 8.7z" fill="#64452f"/><path d="m17.4 339.2v-21.3l-17.4-8.7v21.3 21.2 21.3 21.2l17.4 8.7v-21.2l17.4 8.7v-21.3-21.2z" fill="#79593d"/><path d="m34.8 411.6-17.4-8.7v21.3l17.4 8.7z" fill="#4a3121"/><path d="m17.4 254.1v21.3 21.2l17.4 8.7v-21.2-21.3z" fill="#483223"/><path d="m34.8 305.3-17.4-8.7v21.3l17.4 8.7z" fill="#64452f"/><path d="m34.8 326.6-17.4-8.7v21.3l17.4 8.7z" fill="#644531"/><path d="m69.6 471.6v21.2l17.3 8.7v-21.2z" fill="#65452b"/><path d="m86.9 480.3v21.2l17.4 8.7v-21.2z" fill="#473323"/><path d="m104.3 489v21.2l17.4 8.7v-21.2z" fill="#62462f"/><path d="m243.4 388.4 17.4 8.7v-21.2l-17.4-8.7z" fill="#644531"/><path d="m17.4 445.5v21.2l17.4 8.7v-21.2z" fill="#644531"/><path d="m34.8 432.9-17.4-8.7v21.3l17.4 8.7z" fill="#79593f"/><path d="m34.8 454.2v21.2l17.4 8.7v-21.2z" fill="#483223"/><path d="m52.2 462.9v21.2l17.4 8.7v-21.2z" fill="#966e4b"/><path d="m434.7 455.1v21.3l-17.3 8.7v-21.3z" fill="#4b3425"/><path d="m400 472.5v21.3l-17.4 8.7v-21.3z" fill="#71503b"/><path d="m417.4 463.8v21.3l-17.4 8.7v-21.3z" fill="#493525"/><path d="m469.5 437.7v21.3l-17.4 8.7v-21.3z" fill="#4b3423"/><path d="m486.9 429v21.3l-17.4 8.7v-21.3z" fill="#4b3425"/><path d="m486.9 407.8 17.4-8.7v21.2l-17.4 8.7z" fill="#372519"/><path d="m504.3 420.3v21.3l-17.4 8.7v-21.3z" fill="#4b3425"/><path d="m347.8 477.4-17.4 8.7v-21.3l17.4-8.7z" fill="#6f513b"/><path d="m347.8 456.1-17.4 8.7v-21.3l17.4-8.7z" fill="#4b3425"/><path d="m347.8 434.8-17.4 8.7v-21.2l17.4-8.7z" fill="#5a422f"/><path d="m486.9 386.5 17.4-8.7v21.3l-17.4 8.7z" fill="#5d432e"/><g fill="#5c422d"><path d="m382.6 481.2v21.3l-17.4 8.7v-21.3z"/><path d="m365.2 489.9v21.3l-17.4 8.7v-21.3z"/><path d="m347.8 498.6-17.4 8.7v-21.2l17.4-8.7z"/></g><path d="m347.8 519.9-17.4 8.7v-21.3l17.4-8.7z" fill="#4b3423"/><path d="m417.4 293.7v-21.2l17.3-8.7v21.2z" fill="#396122"/><path d="m452.1 276.3v-21.2l17.4-8.7v21.2z" fill="#446a29"/><path d="m347.8 413.6-17.4 8.7v-21.3l17.4-8.7z" fill="#715039"/><path d="m434.7 285v-21.2l17.4-8.7v21.2z" fill="#342619"/><path d="m486.9 365.3 17.4-8.7v21.2l-17.4 8.7z" fill="#71503b"/><path d="m382.6 311.1v-21.2l17.4-8.7v21.2z" fill="#372519"/><path d="m347.8 328.5v-21.2l17.4-8.7v21.2z" fill="#476c2d"/><path d="m365.2 319.8v-21.2l17.4-8.7v21.2z" fill="#362519"/><path d="m400 302.4v-21.2l17.4-8.7v21.2z" fill="#372519"/><path d="m486.9 301.5 17.4-8.7v21.2l-17.4 8.7z" fill="#4b3425"/><path d="m486.9 322.7 17.4-8.7v21.3l-17.4 8.7z" fill="#4c3325"/><path d="m486.9 344 17.4-8.7v21.3l-17.4 8.7z" fill="#493525"/><path d="m486.9 237.7 17.4-8.7v21.3l-17.4 8.7z" fill="#493523"/><path d="m486.9 280.2 17.4-8.7v21.3l-17.4 8.7z" fill="#4b3427"/><path d="m469.5 267.6v-21.2l17.4-8.7v21.3z" fill="#362519"/><path d="m486.9 259 17.4-8.7v21.2l-17.4 8.7z" fill="#4b3425"/><path d="m347.8 328.5-17.4 8.7v-21.2l17.4-8.7z" fill="#362519"/><path d="m504.3 335.3 17.4-8.7v21.3l-17.4 8.7z" fill="#4c3327"/><path d="m504.3 356.6 17.4-8.7v21.2l-17.4 8.7z" fill="#6f533c"/><path d="m504.3 399.1 17.4-8.7v21.2l-17.4 8.7z" fill="#5c412f"/><path d="m504.3 377.8 17.4-8.7v21.3l-17.4 8.7z" fill="#5c422b"/><path d="m504.3 271.5 17.4-8.7v21.3l-17.4 8.7z" fill="#4b3425"/><path d="m504.3 314 17.4-8.7v21.3l-17.4 8.7z" fill="#4b3425"/><path d="m504.3 292.8 17.4-8.7v21.2l-17.4 8.7z" fill="#5a422d"/><path d="m452.1 467.7v21.3l-17.4 8.7v-21.3z" fill="#362519"/><path d="m469.5 459v21.3l-17.4 8.7v-21.3z" fill="#70523a"/><path d="m504.3 250.3 17.4-8.7v21.2l-17.4 8.7z" fill="#5c422b"/><path d="m434.7 476.4v21.3l-17.3 8.6v-21.2z" fill="#4b3427"/><path d="m417.4 485.1v21.2l-17.4 8.7v-21.2z" fill="#5c422d"/><path d="m521.7 432.9v21.3l-17.4 8.7v-21.3z" fill="#715039"/><path d="m486.9 450.3v21.3l-17.4 8.7v-21.3z" fill="#362519"/><path d="m504.3 420.3 17.4-8.7v21.3l-17.4 8.7z" fill="#4c3624"/><path d="m400 281.2v-21.3l17.4-8.7v21.3z" fill="#362519"/><path d="m382.6 289.9v-21.3l17.4-8.7v21.3z" fill="#456b2c"/><path d="m365.2 298.6v-21.3l17.4-8.7v21.3z" fill="#362519"/><path d="m330.4 316v-21.3l17.4-8.7v21.3z" fill="#3e6425"/><path d="m347.8 307.3v-21.3l17.4-8.7v21.3z" fill="#3f6727"/><path d="m365.2 341.1-17.4 8.7v-21.3l17.4-8.7z" fill="#372519"/><path d="m347.8 371-17.4 8.7v-21.2l17.4-8.7z" fill="#5a422d"/><path d="m347.8 349.8-17.4 8.7v-21.3l17.4-8.7z" fill="#6f5139"/><path d="m469.5 246.4v-21.3l17.4-8.7v21.3z" fill="#5d793e"/><path d="m486.9 237.7v-21.3l17.4-8.7v21.3z" fill="#342619"/><path d="m504.3 207.7 17.4-8.7v21.3l-17.4 8.7z" fill="#335b1e"/><path d="m504.3 229 17.4-8.7v21.3l-17.4 8.7z" fill="#342417"/><path d="m417.4 272.5v-21.3l17.3-8.7v21.3z" fill="#466e2e"/><path d="m452.1 255.1v-21.3l17.4-8.7v21.3z" fill="#58763a"/><path d="m347.8 392.3-17.4 8.7v-21.3l17.4-8.7z" fill="#4b3425"/><path d="m434.7 263.8v-21.3l17.4-8.7v21.3z" fill="#4f7435"/><path d="m504.3 441.6v21.3l-17.4 8.7v-21.3z" fill="#4c3526"/><path d="m452.1 297.6 17.4-8.7v21.3l-17.4 8.7z" fill="#4b3425"/><path d="m452.1 318.9 17.4-8.7v21.2l-17.4 8.7z" fill="#715039"/><path d="m434.7 327.6v-21.3l17.4-8.7v21.3z" fill="#4b3425"/><path d="m400 366.2-17.4 8.7v-21.2l17.4-8.7z" fill="#4b3423"/><path d="m452.1 340.1 17.4-8.7v21.3l-17.4 8.7z" fill="#5c412f"/><path d="m382.6 353.7v-21.3l17.4-8.7v21.3z" fill="#362519"/><path d="m400 345v-21.3l17.4-8.7v21.3z" fill="#372517"/><path d="m417.4 336.3v-21.3l17.3-8.7v21.3z" fill="#372517"/><path d="m417.4 421.3v21.3l-17.4 8.7v-21.3z" fill="#5d412d"/><path d="m400 430v21.3l-17.4 8.7v-21.3z" fill="#6f513b"/><path d="m434.7 412.6v21.3l-17.3 8.7v-21.3z" fill="#372519"/><path d="m452.1 382.6 17.4-8.6v21.2l-17.4 8.7z" fill="#4b3425"/><path d="m452.1 403.9v21.3l-17.4 8.7v-21.3z" fill="#71503b"/><path d="m452.1 361.4 17.4-8.7v21.3l-17.4 8.6z" fill="#5c422d"/><path d="m469.5 395.2v21.3l-17.4 8.7v-21.3z" fill="#71503b"/><path d="m434.7 391.3v21.3l-17.3 8.7v-21.3z" fill="#4b3427"/><path d="m417.4 378.8-17.4 8.7v-21.3l17.4-8.7z" fill="#4b3425"/><path d="m400 366.2v-21.2l17.4-8.7v21.2z" fill="#6d503a"/><path d="m417.4 357.5v-21.2l17.3-8.7v21.2z" fill="#6f5139"/><path d="m417.4 400-17.4 8.7v-21.2l17.4-8.7z" fill="#342717"/><path d="m417.4 357.5 17.3-8.7v21.3l-17.3 8.7z" fill="#5a422f"/><path d="m434.7 370.1v21.2l-17.3 8.7v-21.2z" fill="#4b3425"/><path d="m434.7 327.6 17.4-8.7v21.2l-17.4 8.7z" fill="#4b3425"/><path d="m400 430-17.4 8.7v-21.3l17.4-8.7z" fill="#342619"/><path d="m400 387.5-17.4 8.7v-21.3l17.4-8.7z" fill="#4b3425"/><path d="m434.7 348.8 17.4-8.7v21.3l-17.4 8.7z" fill="#362519"/><path d="m400 408.7-17.4 8.7v-21.2l17.4-8.7z" fill="#493226"/><path d="m417.4 400v21.3l-17.4 8.7v-21.3z" fill="#4c3325"/><path d="m382.6 460-17.4 8.7v-21.3l17.4-8.7z" fill="#4c3325"/><path d="m434.7 370.1 17.4-8.7v21.2l-17.4 8.7z" fill="#5c422d"/><path d="m452.1 382.6v21.3l-17.4 8.7v-21.3z" fill="#4b3425"/><path d="m417.4 442.6v21.2l-17.4 8.7v-21.2z" fill="#544437"/><path d="m452.1 425.2v21.2l-17.4 8.7v-21.2z" fill="#5a3d29"/><path d="m434.7 433.9v21.2l-17.3 8.7v-21.2z" fill="#46423e"/><path d="m400 451.3v21.2l-17.4 8.7v-21.2z" fill="#4c3423"/><path d="m365.2 362.4-17.4 8.6v-21.2l17.4-8.7z" fill="#4b3425"/><path d="m469.5 416.5v21.2l-17.4 8.7v-21.2z" fill="#5a422d"/><path d="m469.5 395.2 17.4-8.7v21.3l-17.4 8.7z" fill="#4b3423"/><path d="m469.5 374 17.4-8.7v21.2l-17.4 8.7z" fill="#4b3425"/><path d="m486.9 407.8v21.2l-17.4 8.7v-21.2z" fill="#4b3425"/><path d="m365.2 404.9-17.4 8.7v-21.3l17.4-8.7z" fill="#5c412f"/><path d="m382.6 460v21.2l-17.4 8.7v-21.2z" fill="#6f513b"/><path d="m365.2 383.6-17.4 8.7v-21.3l17.4-8.6z" fill="#545253"/><path d="m382.6 438.7-17.4 8.7v-21.3l17.4-8.7z" fill="#342619"/><path d="m365.2 489.9-17.4 8.7v-21.2l17.4-8.7z" fill="#5c422d"/><path d="m365.2 468.7-17.4 8.7v-21.3l17.4-8.7z" fill="#715039"/><path d="m365.2 447.4-17.4 8.7v-21.3l17.4-8.7z" fill="#4b3425"/><path d="m365.2 426.1-17.4 8.7v-21.2l17.4-8.7z" fill="#4b3425"/><path d="m365.2 341.1v-21.3l17.4-8.7v21.3z" fill="#5d412b"/><path d="m382.6 332.4v-21.3l17.4-8.7v21.3z" fill="#4b3425"/><path d="m400 323.7v-21.3l17.4-8.7v21.3z" fill="#4b3427"/><path d="m382.6 353.7-17.4 8.7v-21.3l17.4-8.7z" fill="#5c422d"/><path d="m469.5 352.7 17.4-8.7v21.3l-17.4 8.7z" fill="#4b3423"/><path d="m382.6 396.2-17.4 8.7v-21.3l17.4-8.7z" fill="#5a422f"/><path d="m382.6 374.9-17.4 8.7v-21.2l17.4-8.7z" fill="#4b3423"/><path d="m382.6 417.4-17.4 8.7v-21.2l17.4-8.7z" fill="#5c412f"/><path d="m469.5 310.2 17.4-8.7v21.2l-17.4 8.7z" fill="#715039"/><path d="m469.5 331.4 17.4-8.7v21.3l-17.4 8.7z" fill="#5a422d"/><path d="m469.5 288.9 17.4-8.7v21.3l-17.4 8.7z" fill="#342619"/><path d="m417.4 315v-21.3l17.3-8.7v21.3z" fill="#342619"/><path d="m434.7 306.3v-21.3l17.4-8.7v21.3z" fill="#362519"/><path d="m452.1 297.6v-21.3l17.4-8.7v21.3z" fill="#37271a"/><path d="m469.5 267.6 17.4-8.6v21.2l-17.4 8.7z" fill="#414342"/><path d="m452.1 446.4v21.3l-17.4 8.7v-21.3z" fill="#4b3423"/><path d="m539.1 211.6 17.4-8.7v21.3l-17.4 8.7z" fill="#4b3425"/><path d="m313 367.2-17.4 8.7v-21.3l17.4-8.7z" fill="#493525"/><path d="m539.1 190.3 17.4-8.7v21.3l-17.4 8.7z" fill="#342417"/><path d="m539.1 254.1 17.4-8.7v21.3l-17.4 8.7z" fill="#6f513b"/><path d="m539.1 147.8 17.4-8.7v21.3l-17.4 8.7z" fill="#446a27"/><path d="m521.7 177.8v-21.3l17.4-8.7v21.3z" fill="#315917"/><path d="m539.1 169.1 17.4-8.7v21.2l-17.4 8.7z" fill="#406829"/><path d="m539.1 275.4 17.4-8.7v21.2l-17.4 8.7z" fill="#5c422d"/><path d="m539.1 360.4 17.4-8.7v21.3l-17.4 8.7z" fill="#493525"/><path d="m539.1 402.9 17.4-8.7v21.3l-17.4 8.7z" fill="#71503b"/><path d="m539.1 381.7 17.4-8.7v21.2l-17.4 8.7z" fill="#342417"/><path d="m539.1 424.2 17.4-8.7v21.3l-17.4 8.7z" fill="#5d412d"/><path d="m539.1 296.6 17.4-8.7v21.3l-17.4 8.7z" fill="#5c422d"/><path d="m539.1 317.9 17.4-8.7v21.3l-17.4 8.7z" fill="#4c3325"/><path d="m539.1 339.2 17.4-8.7v21.2l-17.4 8.7z" fill="#594028"/><path d="m504.3 186.5v-21.3l17.4-8.7v21.3z" fill="#3d6322"/><path d="m347.8 264.7v-21.2l17.4-8.7v21.2z" fill="#406526"/><path d="m313 282.1v-21.2l17.4-8.7v21.2z" fill="#476c2d"/><path d="m539.1 445.5 17.4-8.7v21.2l-17.4 8.7z" fill="#5c422d"/><path d="m295.6 290.8v-21.2l17.4-8.7v21.2z" fill="#476f30"/><path d="m330.4 273.4v-21.2l17.4-8.7v21.2z" fill="#406524"/><path d="m313 345.9-17.4 8.7v-21.2l17.4-8.7z" fill="#424340"/><path d="m313 303.4-17.4 8.7v-21.3l17.4-8.7z" fill="#41692a"/><path d="m313 324.7-17.4 8.7v-21.3l17.4-8.7z" fill="#342619"/><path d="m452.1 212.6v-21.3l17.4-8.7v21.3z" fill="#406829"/><path d="m486.9 195.2v-21.3l17.4-8.7v21.3z" fill="#3e6626"/><path d="m434.7 221.3.1-21.3 17.3-8.7v21.3z" fill="#476f32"/><path d="m469.5 203.9v-21.3l17.4-8.7v21.3z" fill="#3e6425"/><path d="m382.6 247.3v-21.2l17.4-8.7v21.2z" fill="#396220"/><path d="m417.4 230v-21.3l17.4-8.7-.1 21.3z" fill="#4c7434"/><path d="m365.2 256v-21.2l17.4-8.7v21.2z" fill="#456b2c"/><path d="m400 238.6v-21.2l17.4-8.7v21.3z" fill="#41692a"/><path d="m539.1 232.9 17.4-8.7v21.2l-17.4 8.7z" fill="#4b3425"/><path d="m295.6 482.2-17.4 8.7v-21.3l17.4-8.7z" fill="#5c422d"/><path d="m295.6 439.7-17.4 8.7v-21.3l17.4-8.7z" fill="#715039"/><path d="m295.6 460.9-17.4 8.7v-21.2l17.4-8.7z" fill="#5c422d"/><path d="m295.6 503.5-17.4 8.7v-21.3l17.4-8.7z" fill="#5c412f"/><path d="m295.6 567.2-17.4 8.7v-21.2l17.4-8.7z" fill="#4c3325"/><path d="m295.6 546-17.4 8.7v-21.3l17.4-8.7z" fill="#4b3425"/><path d="m295.6 524.7-17.4 8.7v-21.2l17.4-8.7z" fill="#5c4131"/><path d="m295.6 418.4-17.4 8.7v-21.3l17.4-8.7z" fill="#724f39"/><path d="m295.6 312.1-17.4 8.7v-21.3l17.4-8.7z" fill="#47702e"/><path d="m295.6 333.4-17.4 8.7v-21.3l17.4-8.7z" fill="#567438"/><path d="m295.6 269.6v21.2l-17.4 8.7v-21.2z" fill="#466e2e"/><path d="m295.6 375.9-17.4 8.7v-21.3l17.4-8.7z" fill="#5e4331"/><path d="m295.6 397.1-17.4 8.7v-21.2l17.4-8.7z" fill="#4b3425"/><path d="m295.6 354.6-17.4 8.7v-21.2l17.4-8.7z" fill="#37241b"/><path d="m295.6 588.5-17.4 8.7v-21.3l17.4-8.7z" fill="#5a422d"/><path d="m556.5 458v21.3l-17.4 8.7v-21.3z" fill="#362519"/><path d="m469.5 501.5v21.3l-17.4 8.7v-21.3z" fill="#493525"/><path d="m486.9 492.8v21.3l-17.4 8.7v-21.3z" fill="#4c3325"/><path d="m452.1 510.2v21.3l-17.4 8.7v-21.3z" fill="#5d412b"/><path d="m539.1 466.7v21.3l-17.4 8.7v-21.3z" fill="#4b3425"/><path d="m504.3 484.1v21.3l-17.4 8.7v-21.3z" fill="#5c422d"/><path d="m434.7 518.9v21.3l-17.3 8.7v-21.3z" fill="#5a422d"/><path d="m521.7 475.4v21.3l-17.4 8.7v-21.3z" fill="#5c422d"/><path d="m400 536.3v21.3l-17.4 8.7v-21.3z" fill="#535353"/><path d="m347.8 562.4v21.3l-17.4 8.7v-21.3z" fill="#5c422d"/><path d="m330.4 571.1v21.3l-17.4 8.7v-21.3z" fill="#6f5139"/><path d="m313 579.8v21.3l-17.4 8.7v-21.3z" fill="#4b3423"/><path d="m417.4 527.6v21.3l-17.4 8.7v-21.3z" fill="#5b4332"/><path d="m295.6 609.8-17.4 8.7v-21.3l17.4-8.7z" fill="#5c422b"/><path d="m365.2 553.7v21.3l-17.4 8.7v-21.3z" fill="#5c422d"/><path d="m382.6 545v21.3l-17.4 8.7v-21.3z" fill="#4b3423"/><path d="m313 516-17.4 8.7v-21.2l17.4-8.7z" fill="#4c3526"/><path d="m313 303.4v-21.3l17.4-8.7v21.3z" fill="#537137"/><path d="m382.6 268.6v-21.3l17.4-8.7v21.3z" fill="#416725"/><path d="m417.4 251.2v-21.2l17.3-8.7v21.2z" fill="#3b6120"/><path d="m434.7 242.5v-21.2l17.4-8.7v21.2z" fill="#59773d"/><path d="m521.7 241.6 17.4-8.7v21.2l-17.4 8.7z" fill="#372517"/><path d="m330.4 294.7v-21.3l17.4-8.7v21.3z" fill="#4f6b32"/><path d="m347.8 286v-21.3l17.4-8.7v21.3z" fill="#526d34"/><path d="m400 259.9v-21.3l17.4-8.6v21.2z" fill="#3d6322"/><path d="m521.7 199 17.4-8.7v21.3l-17.4 8.7z" fill="#3f6023"/><path d="m521.7 177.8 17.4-8.7v21.2l-17.4 8.7z" fill="#406526"/><path d="m521.7 220.3 17.4-8.7v21.3l-17.4 8.7z" fill="#362615"/><path d="m504.3 207.7v-21.2l17.4-8.7v21.2z" fill="#43692a"/><path d="m452.1 233.8v-21.2l17.4-8.7v21.2z" fill="#59743b"/><path d="m469.5 225.1v-21.2l17.4-8.7v21.2z" fill="#456d2d"/><path d="m486.9 216.4v-21.2l17.4-8.7v21.2z" fill="#3c621f"/><path d="m365.2 277.3v-21.3l17.4-8.7v21.3z" fill="#362519"/><path d="m330.4 549.8-17.4 8.7v-21.2l17.4-8.7z" fill="#4b3427"/><path d="m330.4 486.1-17.4 8.7v-21.3l17.4-8.7z" fill="#4c3624"/><path d="m330.4 507.3-17.4 8.7v-21.2l17.4-8.7z" fill="#4c3423"/><path d="m330.4 528.6-17.4 8.7v-21.3l17.4-8.7z" fill="#5d412d"/><path d="m347.8 519.9v21.2l-17.4 8.7v-21.2z" fill="#4c3325"/><path d="m382.6 502.5v21.2l-17.4 8.7v-21.2z" fill="#4b3425"/><path d="m365.2 511.2v21.2l-17.4 8.7v-21.2z" fill="#38261a"/><path d="m330.4 379.7-17.4 8.7v-21.2l17.4-8.7z" fill="#5c422d"/><path d="m330.4 358.5-17.4 8.7v-21.3l17.4-8.7z" fill="#5e442f"/><path d="m330.4 464.8-17.4 8.7v-21.3l17.4-8.7z" fill="#382618"/><path d="m330.4 337.2-17.4 8.7v-21.2l17.4-8.7z" fill="#34261b"/><path d="m330.4 316-17.4 8.7v-21.3l17.4-8.7z" fill="#617c43"/><path d="m330.4 401-17.4 8.7v-21.3l17.4-8.7z" fill="#493525"/><path d="m330.4 443.5-17.4 8.7v-21.2l17.4-8.7z" fill="#4c3423"/><path d="m330.4 422.3-17.4 8.7v-21.3l17.4-8.7z" fill="#6f5139"/><path d="m434.7 497.7v21.2l-17.3 8.7v-21.3z" fill="#4c3325"/><path d="m330.4 549.8v21.3l-17.4 8.7v-21.3z" fill="#392417"/><path d="m347.8 541.1v21.3l-17.4 8.7v-21.3z" fill="#715039"/><path d="m313 579.8-17.4 8.7v-21.3l17.4-8.7z" fill="#4b3425"/><path d="m365.2 532.4v21.3l-17.4 8.7v-21.3z" fill="#4c3325"/><path d="m400 515v21.3l-17.4 8.7v-21.3z" fill="#433a2f"/><path d="m417.4 506.3v21.3l-17.4 8.7v-21.3z" fill="#372517"/><path d="m521.7 262.8 17.4-8.7v21.3l-17.4 8.7z" fill="#4c3423"/><path d="m382.6 523.7v21.3l-17.4 8.7v-21.3z" fill="#362519"/><path d="m313 452.2-17.4 8.7v-21.2l17.4-8.7z" fill="#4b3425"/><path d="m313 431-17.4 8.7v-21.3l17.4-8.7z" fill="#493322"/><path d="m313 409.7-17.4 8.7v-21.3l17.4-8.7z" fill="#362617"/><path d="m400 493.8v21.2l-17.4 8.7v-21.2z" fill="#5a422f"/><path d="m313 537.3-17.4 8.7v-21.3l17.4-8.7z" fill="#37271a"/><path d="m313 473.5-17.4 8.7v-21.3l17.4-8.7z" fill="#5c422d"/><path d="m313 494.8-17.4 8.7v-21.3l17.4-8.7z" fill="#59412e"/><path d="m313 558.5-17.4 8.7v-21.2l17.4-8.7z" fill="#5a422f"/><path d="m521.7 369.1 17.4-8.7v21.3l-17.4 8.7z" fill="#545253"/><path d="m521.7 390.4 17.4-8.7v21.2l-17.4 8.7z" fill="#4c3526"/><path d="m521.7 347.9 17.4-8.7v21.2l-17.4 8.7z" fill="#4b3425"/><path d="m521.7 411.6 17.4-8.7v21.3l-17.4 8.7z" fill="#715039"/><path d="m521.7 284.1 17.4-8.7v21.2l-17.4 8.7z" fill="#4b3425"/><path d="m521.7 305.3 17.4-8.7v21.3l-17.4 8.7z" fill="#5c412f"/><path d="m521.7 326.6 17.4-8.7v21.3l-17.4 8.7z" fill="#372519"/><path d="m486.9 471.6v21.2l-17.4 8.7v-21.2z" fill="#362519"/><path d="m469.5 480.3v21.2l-17.4 8.7v-21.2z" fill="#4b3425"/><path d="m452.1 489v21.2l-17.4 8.7v-21.2z" fill="#4b3425"/><path d="m313 388.4-17.4 8.7v-21.2l17.4-8.7z" fill="#362519"/><path d="m539.1 445.5v21.2l-17.4 8.7v-21.2z" fill="#5d432e"/><path d="m521.7 432.9 17.4-8.7v21.3l-17.4 8.7z" fill="#5d412b"/><path d="m521.7 454.2v21.2l-17.4 8.7v-21.2z" fill="#4b3425"/><path d="m504.3 462.9v21.2l-17.4 8.7v-21.2z" fill="#4b3425"/><path d="m0 139.1 278.2-139.1 278.3 139.1-278.3 139.2z" fill="#74b24b"/><path d="m330.4 182.6 17.4 8.7 17.4-8.7-17.4-8.7z" fill="#64a23b"/><path d="m365.2 165.2 17.4 8.7 17.4-8.7-17.4-8.7z" fill="#6fb046"/><path d="m330.4 147.8 17.4 8.7 17.4-8.7-17.4-8.7z" fill="#9ecd70"/><path d="m313 139.1 17.4-8.7-17.4-8.7-17.4 8.7z" fill="#61a23a"/><path d="m243.5 121.7-17.4-8.7-17.4 8.7 17.4 8.7z" fill="#639f39"/><path d="m243.5 104.3-17.4-8.6-17.4 8.6 17.4 8.7z" fill="#6eae47"/><path d="m313 191.3 17.4 8.7 17.4-8.7-17.4-8.7z" fill="#6bac44"/><path d="m347.8 173.9 17.4 8.7 17.4-8.7-17.4-8.7z" fill="#6dab44"/><path d="m260.8 217.4 17.4 8.7 17.4-8.7-17.4-8.7z" fill="#88b55b"/><path d="m260.8 200-17.3 8.7 17.3 8.7 17.4-8.7z" fill="#5d9b32"/><path d="m295.6 200 17.4 8.7 17.4-8.7-17.4-8.7z" fill="#6dad45"/><path d="m278.2 87 17.4-8.7-17.4-8.7-17.4 8.7z" fill="#97c165"/><path d="m434.7 147.8 17.4-8.7-17.4-8.7-17.4 8.7z" fill="#6eac45"/><path d="m417.3 139.1 17.4-8.7-17.4-8.7-17.3 8.7z" fill="#76b54e"/><path d="m400 130.4 17.3-8.7-17.3-8.7-17.4 8.7z" fill="#6dad45"/><path d="m382.6 121.7 17.4-8.7-17.4-8.7-17.4 8.7z" fill="#61a23a"/><path d="m382.6 156.5 17.4 8.7 17.3-8.7-17.3-8.7z" fill="#57952e"/><path d="m243.5 191.3-17.4 8.7 17.4 8.7 17.3-8.7z" fill="#68a941"/><path d="m400 147.8 17.3 8.7 17.4-8.7-17.4-8.7z" fill="#8fc462"/><path d="m191.3 165.2-17.4 8.7 17.4 8.7 17.4-8.7z" fill="#599730"/><path d="m191.3 113-17.4-8.7-17.4 8.7 17.4 8.7z" fill="#69a944"/><path d="m173.9 121.7-17.4-8.7-17.4 8.7 17.4 8.7z" fill="#8fbc60"/><path d="m226.1 95.7-17.4-8.7-17.4 8.7 17.4 8.6z" fill="#69aa42"/><path d="m208.7 104.3-17.4-8.6-17.4 8.6 17.4 8.7z" fill="#92c264"/><path d="m278.2 69.6-17.4-8.7-17.3 8.7 17.3 8.7z" fill="#639f39"/><path d="m226.1 182.6-17.4 8.7 17.4 8.7 17.4-8.7z" fill="#6fb048"/><path d="m243.5 87-17.4-8.7-17.4 8.7 17.4 8.7z" fill="#6eae47"/><path d="m260.8 78.3-17.3-8.7-17.4 8.7 17.4 8.7z" fill="#8fbc60"/><path d="m173.9 156.5-17.4 8.7 17.4 8.7 17.4-8.7z" fill="#62a138"/><path d="m365.2 113 17.4-8.7-17.4-8.6-17.4 8.6z" fill="#609f35"/><path d="m156.5 130.4-17.4-8.7-17.4 8.7 17.4 8.7z" fill="#8ab95c"/><path d="m208.7 173.9-17.4 8.7 17.4 8.7 17.4-8.7z" fill="#47851c"/><path d="m121.7 130.4-17.4 8.7 17.4 8.7 17.4-8.7z" fill="#6ba741"/><path d="m156.5 147.8-17.4 8.7 17.4 8.7 17.4-8.7z" fill="#71b248"/><path d="m139.1 139.1-17.4 8.7 17.4 8.7 17.4-8.7z" fill="#79b750"/><path d="m278.2 208.7 17.4 8.7 17.4-8.7-17.4-8.7z" fill="#5f9e34"/><path d="m191.3 182.6-17.4 8.7 17.4 8.7 17.4-8.7z" fill="#8ab758"/><path d="m208.7 191.3-17.4 8.7 17.4 8.7 17.4-8.7z" fill="#acde7d"/><path d="m173.9 173.9-17.4 8.7 17.4 8.7 17.4-8.7z" fill="#acdd7f"/><path d="m347.8 104.3 17.4-8.6-17.4-8.7-17.4 8.7z" fill="#59982e"/><path d="m243.5 208.7-17.4 8.7 17.4 8.7 17.3-8.7z" fill="#7bb751"/><path d="m121.7 147.8-17.4 8.7 17.4 8.7 17.4-8.7z" fill="#5e9a34"/><path d="m139.1 156.5-17.4 8.7 17.4 8.7 17.4-8.7z" fill="#609e37"/><path d="m156.5 165.2-17.4 8.7 17.4 8.7 17.4-8.7z" fill="#64a03a"/><path d="m260.8 217.4-17.3 8.7 17.3 8.7 17.4-8.7z" fill="#7ebc58"/><path d="m313 208.7 17.4 8.7 17.4-8.7-17.4-8.7z" fill="#69a53e"/><path d="m104.3 139.1-17.4 8.7 17.4 8.7 17.4-8.7z" fill="#56942d"/><path d="m347.8 191.3 17.4 8.7 17.4-8.7-17.4-8.7z" fill="#7cac4c"/><path d="m330.4 200 17.4 8.7 17.4-8.7-17.4-8.7z" fill="#9bc86b"/><path d="m260.8 234.8 17.4 8.7 17.4-8.7-17.4-8.7z" fill="#66a63e"/><path d="m295.6 217.4 17.4 8.7 17.4-8.7-17.4-8.7z" fill="#5f9e34"/><path d="m278.2 226.1 17.4 8.7 17.4-8.7-17.4-8.7z" fill="#8ebb5e"/><path d="m226.1 200-17.4 8.7 17.4 8.7 17.4-8.7z" fill="#91bd61"/><path d="m243.5 69.6-17.4-8.7-17.4 8.7 17.4 8.7z" fill="#58962f"/><path d="m278.2 69.6 17.4-8.7-17.4-8.7-17.4 8.7z" fill="#77b34c"/><path d="m260.8 60.9-17.3-8.7-17.4 8.7 17.4 8.7z" fill="#95c465"/><path d="m278.2 52.2-17.4-8.7-17.3 8.7 17.3 8.7z" fill="#69a83f"/><path d="m330.4 95.7 17.4-8.7-17.4-8.7-17.4 8.7z" fill="#5d9b32"/><path d="m313 87 17.4-8.7-17.4-8.7-17.4 8.7z" fill="#77b64f"/><path d="m295.6 78.3 17.4-8.7-17.4-8.7-17.4 8.7z" fill="#6fb046"/><path d="m139.1 121.7-17.4-8.7-17.4 8.7 17.4 8.7z" fill="#66a23c"/><path d="m156.5 113-17.4-8.7-17.4 8.7 17.4 8.7z" fill="#75b34e"/><path d="m86.9 130.4-17.3 8.7 17.3 8.7 17.4-8.7z" fill="#56942d"/><path d="m121.7 130.4-17.4-8.7-17.4 8.7 17.4 8.7z" fill="#5d9e36"/><path d="m191.3 95.7-17.4-8.7-17.4 8.7 17.4 8.6z" fill="#a0ca6f"/><path d="m208.7 87-17.4-8.7-17.4 8.7 17.4 8.7z" fill="#86b356"/><path d="m173.9 104.3-17.4-8.6-17.4 8.6 17.4 8.7z" fill="#a1cc6e"/><path d="m226.1 78.3-17.4-8.7-17.4 8.7 17.4 8.7z" fill="#8ebb60"/><path d="m382.6 139.1 17.4-8.7-17.4-8.7-17.4 8.7z" fill="#5e9d33"/><path d="m226.1 130.4-17.4-8.7-17.4 8.7 17.4 8.7z" fill="#81b051"/><path d="m191.3 130.4-17.4 8.7 17.4 8.7 17.4-8.7z" fill="#9ecd70"/><path d="m208.7 139.1-17.4 8.7 17.4 8.7 17.4-8.7z" fill="#6caa45"/><path d="m260.8 113-17.3-8.7-17.4 8.7 17.4 8.7z" fill="#5a9932"/><path d="m278.2 104.3-17.4-8.6-17.3 8.6 17.3 8.7z" fill="#61a039"/><path d="m226.1 147.8-17.4 8.7 17.4 8.7 17.4-8.7z" fill="#7aa94c"/><path d="m313 156.5 17.4 8.7 17.4-8.7-17.4-8.7z" fill="#66a43f"/><path d="m295.6 165.2 17.4 8.7 17.4-8.7-17.4-8.7z" fill="#61a039"/><path d="m278.2 121.7 17.4-8.7-17.4-8.7-17.4 8.7z" fill="#6dab44"/><path d="m243.5 156.5-17.4 8.7 17.4 8.7 17.3-8.7z" fill="#aad97c"/><path d="m278.2 173.9 17.4 8.7 17.4-8.7-17.4-8.7z" fill="#70af48"/><path d="m260.8 165.2-17.3 8.7 17.3 8.7 17.4-8.7z" fill="#58962f"/><path d="m260.8 182.6 17.4 8.7 17.4-8.7-17.4-8.7z" fill="#84c35c"/><path d="m295.6 147.8 17.4-8.7-17.4-8.7-17.4 8.7z" fill="#75b34c"/><path d="m278.2 121.7-17.4-8.7-17.3 8.7 17.3 8.7z" fill="#82c059"/><path d="m278.2 139.1 17.4-8.7-17.4-8.7-17.4 8.7z" fill="#64a03a"/><path d="m260.8 130.4-17.3-8.7-17.4 8.7 17.4 8.7z" fill="#95c467"/><path d="m260.8 147.8 17.4 8.7 17.4-8.7-17.4-8.7z" fill="#9ccb6e"/><path d="m365.2 147.8 17.4-8.7-17.4-8.7-17.4 8.7z" fill="#67a53e"/><path d="m260.8 130.4-17.3 8.7 17.3 8.7 17.4-8.7z" fill="#82b154"/><path d="m226.1 130.4-17.4 8.7 17.4 8.7 17.4-8.7z" fill="#91c063"/><path d="m295.6 147.8 17.4 8.7 17.4-8.7-17.4-8.7z" fill="#95c465"/><path d="m243.5 139.1-17.4 8.7 17.4 8.7 17.3-8.7z" fill="#619c36"/><path d="m330.4 147.8 17.4-8.7-17.4-8.7-17.4 8.7z" fill="#66a23c"/><path d="m295.6 130.4 17.4-8.7-17.4-8.7-17.4 8.7z" fill="#5f9e34"/><path d="m278.2 156.5 17.4 8.7 17.4-8.7-17.4-8.7z" fill="#90c060"/><path d="m260.8 147.8-17.3 8.7 17.3 8.7 17.4-8.7z" fill="#65a33c"/><path d="m260.8 165.2 17.4 8.7 17.4-8.7-17.4-8.7z" fill="#6fb046"/><path d="m243.5 173.9-17.4 8.7 17.4 8.7 17.3-8.7z" fill="#70af46"/><path d="m313 173.9 17.4 8.7 17.4-8.7-17.4-8.7z" fill="#6fae47"/><path d="m330.4 165.2 17.4 8.7 17.4-8.7-17.4-8.7z" fill="#609e37"/><path d="m295.6 95.7 17.4-8.7-17.4-8.7-17.4 8.7z" fill="#96c767"/><path d="m347.8 156.5 17.4 8.7 17.4-8.7-17.4-8.7z" fill="#96c066"/><path d="m260.8 182.6-17.3 8.7 17.3 8.7 17.4-8.7z" fill="#69aa42"/><path d="m278.2 191.3 17.4 8.7 17.4-8.7-17.4-8.7z" fill="#62a13a"/><path d="m260.8 200 17.4 8.7 17.4-8.7-17.4-8.7z" fill="#5a9930"/><path d="m295.6 182.6 17.4 8.7 17.4-8.7-17.4-8.7z" fill="#89c760"/><path d="m330.4 113 17.4-8.7-17.4-8.6-17.4 8.6z" fill="#94c164"/><path d="m313 104.3 17.4-8.6-17.4-8.7-17.4 8.7z" fill="#709f41"/><path d="m278.2 87-17.4-8.7-17.3 8.7 17.3 8.7z" fill="#609e37"/><path d="m347.8 121.7 17.4-8.7-17.4-8.7-17.4 8.7z" fill="#a0d271"/><path d="m365.2 182.6 17.4 8.7 17.4-8.7-17.4-8.7z" fill="#88b559"/><path d="m365.2 130.4 17.4-8.7-17.4-8.7-17.4 8.7z" fill="#55932c"/><path d="m400 147.8 17.3-8.7-17.3-8.7-17.4 8.7z" fill="#8dbf5f"/><path d="m365.2 147.8 17.4 8.7 17.4-8.7-17.4-8.7z" fill="#64a239"/><path d="m156.5 130.4-17.4 8.7 17.4 8.7 17.4-8.7z" fill="#75b34e"/><path d="m278.2 104.3 17.4-8.6-17.4-8.7-17.4 8.7z" fill="#72b34b"/><path d="m260.8 95.7-17.3-8.7-17.4 8.7 17.4 8.6z" fill="#72b049"/><path d="m330.4 130.4 17.4-8.7-17.4-8.7-17.4 8.7z" fill="#65a33c"/><path d="m313 121.7 17.4-8.7-17.4-8.7-17.4 8.7z" fill="#81b051"/><path d="m295.6 113 17.4-8.7-17.4-8.6-17.4 8.6z" fill="#74b24b"/><path d="m208.7 156.5-17.4 8.7 17.4 8.7 17.4-8.7z" fill="#68a73e"/><path d="m226.1 113-17.4-8.7-17.4 8.7 17.4 8.7z" fill="#93c063"/><path d="m191.3 147.8-17.4 8.7 17.4 8.7 17.4-8.7z" fill="#72b049"/><path d="m226.1 165.2-17.4 8.7 17.4 8.7 17.4-8.7z" fill="#75b34c"/><path d="m173.9 139.1-17.4 8.7 17.4 8.7 17.4-8.7z" fill="#65a33c"/><path d="m208.7 121.7-17.4-8.7-17.4 8.7 17.4 8.7z" fill="#6ba942"/><path d="m347.8 139.1 17.4-8.7-17.4-8.7-17.4 8.7z" fill="#76b249"/><path d="m191.3 130.4-17.4-8.7-17.4 8.7 17.4 8.7z" fill="#609e39"/><path d="m278.2 17.4-17.4-8.7-17.3 8.7 17.3 8.7z" fill="#74b24b"/><path d="m86.9 165.2-17.3 8.7 17.3 8.7 17.4-8.7z" fill="#84bf59"/><path d="m69.6 156.5-17.4 8.7 17.4 8.7 17.3-8.7z" fill="#508f25"/><path d="m121.7 182.6-17.4 8.7 17.4 8.7 17.4-8.7z" fill="#73b14a"/><path d="m52.2 130.4-17.4-8.7-17.4 8.7 17.4 8.7z" fill="#8ebb5c"/><path d="m17.4 130.4-17.4 8.7 17.4 8.7 17.4-8.7z" fill="#64a23b"/><path d="m34.8 139.1-17.4 8.7 17.4 8.7 17.4-8.7z" fill="#76b14b"/><path d="m260.8 252.2-17.3 8.7 17.3 8.7 17.4-8.7z" fill="#67a63c"/><path d="m104.3 173.9-17.4 8.7 17.4 8.7 17.4-8.7z" fill="#76b54e"/><path d="m208.7 226.1-17.4 8.7 17.4 8.7 17.4-8.7z" fill="#609e37"/><path d="m226.1 234.8-17.4 8.7 17.4 8.7 17.4-8.7z" fill="#64a23b"/><path d="m243.5 243.5-17.4 8.7 17.4 8.7 17.3-8.7z" fill="#6caf47"/><path d="m156.5 200-17.4 8.7 17.4 8.7 17.4-8.7z" fill="#6bac44"/><path d="m139.1 191.3-17.4 8.7 17.4 8.7 17.4-8.7z" fill="#9fce71"/><path d="m191.3 217.4-17.4 8.7 17.4 8.7 17.4-8.7z" fill="#5d9933"/><path d="m173.9 208.7-17.4 8.7 17.4 8.7 17.4-8.7z" fill="#a6d578"/><path d="m52.2 147.8-17.4 8.7 17.4 8.7 17.4-8.7z" fill="#68a33d"/><path d="m243.5 34.8-17.4-8.7-17.4 8.7 17.4 8.7z" fill="#56942d"/><path d="m226.1 43.5-17.4-8.7-17.4 8.7 17.4 8.7z" fill="#81bf56"/><path d="m260.8 26.1-17.3-8.7-17.4 8.7 17.4 8.7z" fill="#8cb95c"/><path d="m295.6 43.5 17.4-8.7-17.4-8.7-17.4 8.7z" fill="#88b557"/><path d="m313 52.2 17.4-8.7-17.4-8.7-17.4 8.7z" fill="#7dae52"/><path d="m208.7 52.2-17.4-8.7-17.4 8.7 17.4 8.7z" fill="#77b551"/><path d="m278.2 34.8 17.4-8.7-17.4-8.7-17.4 8.7z" fill="#67aa44"/><path d="m86.9 113-17.3-8.7-17.4 8.7 17.4 8.7z" fill="#a3d071"/><path d="m104.3 104.3-17.4-8.6-17.3 8.6 17.3 8.7z" fill="#64a23d"/><path d="m121.7 95.7-17.4-8.7-17.4 8.7 17.4 8.6z" fill="#7ab851"/><path d="m69.6 121.7-17.4-8.7-17.4 8.7 17.4 8.7z" fill="#a0cc70"/><path d="m191.3 60.9-17.4-8.7-17.4 8.7 17.4 8.7z" fill="#5e9c35"/><path d="m139.1 87-17.4-8.7-17.4 8.7 17.4 8.7z" fill="#75b34c"/><path d="m173.9 69.6-17.4-8.7-17.4 8.7 17.4 8.7z" fill="#6bae45"/><path d="m156.5 78.3-17.4-8.7-17.4 8.7 17.4 8.7z" fill="#609e37"/><path d="m521.7 139.1 17.4-8.7-17.4-8.7-17.4 8.7z" fill="#4e8f25"/><path d="m434.7 95.7 17.4-8.7-17.4-8.7-17.4 8.7z" fill="#74b24b"/><path d="m452.1 104.3 17.4-8.6-17.4-8.7-17.4 8.7z" fill="#69a743"/><path d="m400 78.3 17.3-8.7-17.3-8.7-17.4 8.7z" fill="#69aa42"/><path d="m417.3 87 17.4-8.7-17.4-8.7-17.3 8.7z" fill="#7cba53"/><path d="m330.4 60.9 17.4-8.7-17.4-8.7-17.4 8.7z" fill="#80af52"/><path d="m469.5 113 17.4-8.7-17.4-8.6-17.4 8.6z" fill="#66a43d"/><path d="m486.9 121.7 17.4-8.7-17.4-8.7-17.4 8.7z" fill="#67a740"/><path d="m313 34.8 17.4-8.7-17.4-8.7-17.4 8.7z" fill="#73b14c"/><path d="m504.3 130.4 17.4-8.7-17.4-8.7-17.4 8.7z" fill="#5f9e34"/><path d="m295.6 26.1 17.4-8.7-17.4-8.7-17.4 8.7z" fill="#74b24b"/><path d="m260.8 8.7 17.4 8.7 17.4-8.7-17.4-8.7z" fill="#74b04c"/><path d="m382.6 69.6 17.4-8.7-17.4-8.7-17.4 8.7z" fill="#5f9d36"/><path d="m330.4 43.5 17.4-8.7-17.4-8.7-17.4 8.7z" fill="#64a53d"/><path d="m365.2 60.9 17.4-8.7-17.4-8.7-17.4 8.7z" fill="#6dad45"/><path d="m347.8 52.2 17.4-8.7-17.4-8.7-17.4 8.7z" fill="#64a53d"/><path d="m504.3 147.8 17.4 8.7 17.4-8.7-17.4-8.7z" fill="#69ac43"/><path d="m539.1 147.8 17.4-8.7-17.4-8.7-17.4 8.7z" fill="#69ab45"/><path d="m365.2 217.4 17.4 8.7 17.4-8.7-17.4-8.7z" fill="#629d39"/><path d="m330.4 234.8 17.4 8.7 17.4-8.7-17.4-8.7z" fill="#69a743"/><path d="m278.2 260.9 17.4 8.7 17.4-8.7-17.4-8.7z" fill="#88b559"/><path d="m382.6 208.7 17.4 8.7 17.4-8.7-17.4-8.7z" fill="#5f9c31"/><path d="m313 243.5 17.4 8.7 17.4-8.7-17.4-8.7z" fill="#65a33c"/><path d="m295.6 252.2 17.4 8.7 17.4-8.7-17.4-8.7z" fill="#96c568"/><path d="m347.8 226.1 17.4 8.7 17.4-8.7-17.4-8.7z" fill="#6bae45"/><path d="m486.9 156.5 17.4 8.7 17.4-8.7-17.4-8.7z" fill="#9cc96c"/><path d="m469.5 165.2 17.4 8.7 17.4-8.7-17.4-8.7z" fill="#5d9b34"/><path d="m260.8 269.6 17.4 8.7 17.4-8.7-17.4-8.7z" fill="#7cba55"/><path d="m434.7 182.6 17.4 8.7 17.4-8.7-17.4-8.7z" fill="#73b14a"/><path d="m417.4 191.3 17.3 8.7 17.4-8.7-17.4-8.7z" fill="#77a648"/><path d="m452.1 173.9 17.4 8.7 17.4-8.7-17.4-8.7z" fill="#6aab43"/><path d="m400 200 17.4 8.7 17.3-8.7-17.3-8.7z" fill="#92be64"/><path d="m313 69.6 17.4-8.7-17.4-8.7-17.4 8.7z" fill="#68a740"/><path d="m208.7 69.6-17.4-8.7-17.4 8.7 17.4 8.7z" fill="#82b355"/><path d="m191.3 78.3-17.4-8.7-17.4 8.7 17.4 8.7z" fill="#6aa03e"/><path d="m156.5 95.7-17.4-8.7-17.4 8.7 17.4 8.6z" fill="#61a23a"/><path d="m173.9 87-17.4-8.7-17.4 8.7 17.4 8.7z" fill="#81b252"/><path d="m260.8 43.5-17.3-8.7-17.4 8.7 17.4 8.7z" fill="#65a33c"/><path d="m243.5 52.2-17.4-8.7-17.4 8.7 17.4 8.7z" fill="#62a13a"/><path d="m226.1 60.9-17.4-8.7-17.4 8.7 17.4 8.7z" fill="#76b450"/><path d="m86.9 147.8-17.3 8.7 17.3 8.7 17.4-8.7z" fill="#5a9932"/><path d="m69.6 139.1-17.4 8.7 17.4 8.7 17.3-8.7z" fill="#66a53b"/><path d="m278.2 34.8-17.4-8.7-17.3 8.7 17.3 8.7z" fill="#a2cf72"/><path d="m52.2 130.4-17.4 8.7 17.4 8.7 17.4-8.7z" fill="#87b659"/><path d="m86.9 130.4-17.3-8.7-17.4 8.7 17.4 8.7z" fill="#91bd61"/><path d="m121.7 113-17.4-8.7-17.4 8.7 17.4 8.7z" fill="#95c467"/><path d="m139.1 104.3-17.4-8.6-17.4 8.6 17.4 8.7z" fill="#86b557"/><path d="m104.3 121.7-17.4-8.7-17.3 8.7 17.3 8.7z" fill="#74b24b"/><path d="m400 113 17.3-8.7-17.3-8.6-17.4 8.6z" fill="#7fbb55"/><path d="m469.5 147.8 17.4-8.7-17.4-8.7-17.4 8.7z" fill="#57962c"/><path d="m417.3 121.7 17.4-8.7-17.4-8.7-17.3 8.7z" fill="#91bd61"/><path d="m434.7 130.4 17.4-8.7-17.4-8.7-17.4 8.7z" fill="#96c568"/><path d="m452.1 139.1 17.4-8.7-17.4-8.7-17.4 8.7z" fill="#65a33c"/><path d="m400 165.2 17.3 8.7 17.4-8.7-17.4-8.7z" fill="#69a53e"/><path d="m434.7 147.8 17.4 8.7 17.4-8.7-17.4-8.7z" fill="#6bac44"/><path d="m417.3 156.5 17.4 8.7 17.4-8.7-17.4-8.7z" fill="#5e9d33"/><path d="m365.2 95.7 17.4-8.7-17.4-8.7-17.4 8.7z" fill="#6eaf45"/><path d="m382.6 173.9 17.4 8.7 17.3-8.7-17.3-8.7z" fill="#8ebd5e"/><path d="m295.6 60.9 17.4-8.7-17.4-8.7-17.4 8.7z" fill="#64a23b"/><path d="m104.3 156.5-17.4 8.7 17.4 8.7 17.4-8.7z" fill="#9bca6c"/><path d="m330.4 78.3 17.4-8.7-17.4-8.7-17.4 8.7z" fill="#67a53e"/><path d="m278.2 52.2 17.4-8.7-17.4-8.7-17.4 8.7z" fill="#99c969"/><path d="m382.6 104.3 17.4-8.6-17.4-8.7-17.4 8.7z" fill="#73b148"/><path d="m347.8 87 17.4-8.7-17.4-8.7-17.4 8.7z" fill="#6eae47"/><path d="m417.3 104.3 17.4-8.6-17.4-8.7-17.3 8.7z" fill="#93be62"/><path d="m469.5 147.8 17.4 8.7 17.4-8.7-17.4-8.7z" fill="#5f9e34"/><path d="m452.1 156.5 17.4 8.7 17.4-8.7-17.4-8.7z" fill="#6bac44"/><path d="m486.9 139.1 17.4-8.7-17.4-8.7-17.4 8.7z" fill="#69aa42"/><path d="m504.3 147.8 17.4-8.7-17.4-8.7-17.4 8.7z" fill="#66a43d"/><path d="m400 182.6 17.4 8.7 17.3-8.7-17.4-8.7z" fill="#75b34c"/><path d="m382.6 191.3 17.4 8.7 17.4-8.7-17.4-8.7z" fill="#619c36"/><path d="m434.7 165.2 17.4 8.7 17.4-8.7-17.4-8.7z" fill="#67a53e"/><path d="m417.3 173.9 17.4 8.7 17.4-8.7-17.4-8.7z" fill="#6bac44"/><path d="m382.6 87 17.4-8.7-17.4-8.7-17.4 8.7z" fill="#61a039"/><path d="m400 95.7 17.3-8.7-17.3-8.7-17.4 8.7z" fill="#5f9e34"/><path d="m365.2 78.3 17.4-8.7-17.4-8.7-17.4 8.7z" fill="#67a53e"/><path d="m434.7 113 17.4-8.7-17.4-8.6-17.4 8.6z" fill="#8fbc62"/><path d="m121.7 165.2-17.4 8.7 17.4 8.7 17.4-8.7z" fill="#94c162"/><path d="m469.5 130.4 17.4-8.7-17.4-8.7-17.4 8.7z" fill="#609e37"/><path d="m347.8 69.6 17.4-8.7-17.4-8.7-17.4 8.7z" fill="#5d9e36"/><path d="m452.1 121.7 17.4-8.7-17.4-8.7-17.4 8.7z" fill="#73af49"/><path d="m208.7 208.7-17.4 8.7 17.4 8.7 17.4-8.7z" fill="#74b24b"/><path d="m191.3 200-17.4 8.7 17.4 8.7 17.4-8.7z" fill="#72b34b"/><path d="m226.1 217.4-17.4 8.7 17.4 8.7 17.4-8.7z" fill="#65a33e"/><path d="m156.5 182.6-17.4 8.7 17.4 8.7 17.4-8.7z" fill="#72b049"/><path d="m139.1 173.9-17.4 8.7 17.4 8.7 17.4-8.7z" fill="#71b248"/><path d="m365.2 200 17.4 8.7 17.4-8.7-17.4-8.7z" fill="#5e9d33"/><path d="m243.5 226.1-17.4 8.7 17.4 8.7 17.3-8.7z" fill="#92bf60"/><path d="m173.9 191.3-17.4 8.7 17.4 8.7 17.4-8.7z" fill="#5e9d33"/><path d="m260.8 234.8-17.3 8.7 17.3 8.7 17.4-8.7z" fill="#85b456"/><path d="m330.4 217.4 17.4 8.7 17.4-8.7-17.4-8.7z" fill="#66a53b"/><path d="m347.8 208.7 17.4 8.7 17.4-8.7-17.4-8.7z" fill="#6eaf45"/><path d="m313 226.1 17.4 8.7 17.4-8.7-17.4-8.7z" fill="#5d9b32"/><path d="m295.6 234.8 17.4 8.7 17.4-8.7-17.4-8.7z" fill="#599732"/><path d="m260.8 252.2 17.4 8.7 17.4-8.7-17.4-8.7z" fill="#67ab42"/><path d="m278.2 243.5 17.4 8.7 17.4-8.7-17.4-8.7z" fill="#92c264"/></svg>