<svg height="608pt" viewBox="0 0 800 608" width="800pt" xmlns="http://www.w3.org/2000/svg"><path d="m136.83 31.78c4.8 3.24 9.1 7.12 13.54 10.83 22.95 18.27 46.36 36.03 70.88 52.16 4.5 3.13 9.07 6.18 14 8.6.07.98.14 1.97.23 2.95-33.11-20.79-64.44-44.31-94.58-69.16 11.63 23.27 21.74 47.43 28.36 72.64-.97-.59-1.95-1.16-2.93-1.71-1.55-9.91-5.37-19.23-8.8-28.58-3.44-9.31-7.41-18.4-11.56-27.41-2.89-6.85-6.85-13.22-9.14-20.32z" fill="#040303"/><path d="m427.74 37.74c.47-.16 1.4-.49 1.86-.66 4.4 18.66 10.75 36.86 19.2 54.07 5.47 11.01 12.29 21.45 21.21 29.99-1.3-.33-2.6-.63-3.9-.92-4.26-5.21-8.72-10.3-12.25-16.05-12.01-19.24-19.17-40.96-25.36-62.64-12.97 27.29-28.04 54.03-48.62 76.38-10.27 10.8-22.14 20.8-36.48 25.59-8.46 2.81-17.55 1.75-26.21.64.19-.49.59-1.47.79-1.96 8.68 1.26 17.84 2.04 26.28-.91 12.57-4.55 23.09-13.23 32.17-22.84 12.02-11.66 21.38-25.68 30.18-39.83 7.83-13.18 15.31-26.65 21.13-40.86z" fill="#040303"/><path d="m559.2 70.29c6.83-9.36 12.72-19.35 19.36-28.82.37 8.89-1.84 17.63-1.72 26.52.05 6.72-.13 13.45.02 20.17-.81-1.03-1.64-2.03-2.48-3.01.01-12.49.55-24.98 2.23-37.36-5.16 7.98-10.27 16-15.8 23.74-.4-.31-1.21-.93-1.61-1.24z" fill="#040303"/><path d="m672.54 118.53c14.39-10.43 28.04-21.84 41.37-33.57-.29 1.02-.61 2.03-.95 3.03-14.62 13.55-30.32 25.96-46.74 37.28-10.09 6.67-20.38 13.26-31.66 17.73-1.49-.19-2.97-.39-4.45-.53 15.52-5.18 28.94-14.96 42.43-23.94z" fill="#040303"/><path d="m675.89 160.48c8.21-23.82 20.14-46.3 34.88-66.72-.4 1.57-.71 3.15-1.05 4.73-13.08 19.48-24.73 40.18-31.85 62.64-.49-.17-1.49-.49-1.98-.65z" fill="#040303"/><path d="m576.68 110.7c.54-.99 1.06-2 1.56-3.02 1.98 12.68 5.84 26.43 16.45 34.65 4.23 3.62 9.88 4.6 15.25 5.01-.83.57-1.63 1.17-2.41 1.79-7.29-.66-14.23-4.06-18.88-9.76-6.84-8.07-9.93-18.49-11.97-28.67z" fill="#040303"/><path d="m495.95 128.31c1.68-.43 3.37-.87 5.06-1.31-.05.45-.14 1.35-.18 1.81-.94.53-1.87 1.04-2.81 1.55-.68-.7-1.37-1.38-2.07-2.05z" fill="#040303"/><path d="m9.7 159.01c7.15 1.16 13.99 3.64 21.01 5.36 6.34 1.58 12.68 3.16 19.05 4.63-.09.53-.25 1.58-.33 2.11-10.99-2.79-21.95-5.78-33.01-8.3 8.47 9.08 17.55 17.58 26.1 26.59-.24.42-.72 1.25-.96 1.67-10.26-11.04-21.28-21.34-31.86-32.06z" fill="#040303"/><path d="m88.98 177.01c11.83.84 23.53 3.31 35.43 3.02.25.49.74 1.46.99 1.94-11.55.22-22.99-1.57-34.43-2.89-.66-.7-1.32-1.39-1.99-2.07z" fill="#040303"/><path d="m736.75 243.77c.2-.51.59-1.53.79-2.04 8.75 1.39 17.58 2.53 26.47 2.45 6.22-.05 12.47-.29 18.67.43-3.07 2.11-6.29 4-9.73 5.44-13.95 5.99-26.87 14.06-40.23 21.2-.29-.29-.86-.86-1.15-1.15 14.28-8.91 29.28-16.66 44.56-23.72-13.17.11-26.35-.65-39.38-2.61z" fill="#040303"/><path d="m654.39 343.44c.43.32 1.28.97 1.7 1.29-2.72 7.44-4.61 15.3-4.15 23.27 1.07 16.34 5.49 32.3 11.69 47.4 14.58 35.68 34.71 68.79 56.49 100.48 4.53 6.87 9.97 13.12 14.05 20.28-7.86-4.31-14.39-10.56-21.8-15.54-19.14-13.79-38.82-26.86-59.16-38.84-13.08-7.48-26.15-15.11-40.07-20.95-16.02-7.32-32.81-13.45-50.37-15.65-10.88-1.14-22.57-.35-32.13 5.46-11.47 7.53-19.3 19.64-23.42 32.57-5.89 18.94-5.94 39.01-5.1 58.64 1.21 13.51 2.87 26.99 5.62 40.28 1.33 7.06 3.41 13.96 4.31 21.1-6.41-6.78-11.24-14.85-17.52-21.76-6.89-8.73-14.91-16.44-22.19-24.82-5.41-5.28-11.17-10.17-16.71-15.31-12.95-10.63-26.74-20.94-42.87-26.13-11.32-3.8-23.99-3.24-34.92 1.58-18.22 7.69-32.51 22.2-44.44 37.6-9.14 12.58-17.41 25.82-24.25 39.8-2.28 4.55-3.95 9.38-6.47 13.81h-.87c-1.49-10.54-2.31-21.26-5.5-31.47.61-.59 1.22-1.18 1.83-1.76 2.31 9.02 3.56 18.24 5.15 27.4 6.82-15.16 14.98-29.73 24.55-43.33 9.86-13.87 21.37-26.87 35.55-36.46 10.01-6.46 21.44-11.89 33.61-11.66 16.25.12 31.11 8.1 44.2 17.04 26.43 18.55 47.79 43.19 67.59 68.44-6.62-27.85-10.49-56.6-8.58-85.26 1.22-15.09 4.34-30.45 12.07-43.65 6.84-11.41 17.74-21.36 31.26-23.55 17.13-2.97 34.4 1.73 50.54 7.22 33.2 12.13 63.72 30.43 93.13 49.81 13.32 8.68 25.97 18.35 39.04 27.4-18.9-27.13-37.13-54.87-51.93-84.49-9.12-18.19-17.25-37.07-21.73-56.98-3.18-14.22-3.97-29.57 1.8-43.26z" fill="#040303"/><path d="m76.66 384.24c.39-.32 1.16-.98 1.54-1.3 16.43 2.69 33.52 11.18 40.99 26.83 5.53 10.77 4.38 23.48 1.21 34.77-3.64 12.73-9.22 24.84-15.55 36.43-.95.73-1.99 1.33-3 1.95 8.47-17.08 18-34.47 19.32-53.9.85-11.19-3.89-22.51-12.22-29.98-8.84-8.3-20.68-12.2-32.29-14.8z" fill="#040303"/><path d="m31.38 581.34c11.6-13.85 22.73-28.09 33.57-42.54.33.4.98 1.2 1.31 1.6-11.44 15.12-23.24 29.94-35.37 44.5 14.48-11.73 28.92-23.52 43.61-35.01.54.55 1.09 1.1 1.66 1.64-15.34 11.03-29.86 23.13-44.28 35.31-4.53 3.96-8.95 8.09-14.05 11.33 3.55-6.34 8.98-11.26 13.55-16.83z" fill="#040303"/><g fill="#fff"><path d="m140.9 37.16c30.14 24.85 61.47 48.37 94.58 69.16.69 7.98.73 16.15 3.36 23.81 2.29 7.26 7.05 13.37 12 19.01 4.71 5.34 11.08 8.71 17.46 11.63-9.54.22-19.22.55-28.49 2.96-3.5.78-2.95 5.43-1.19 7.64 4.48 6.1 11.35 10.11 15.24 16.74 6.6 11.03 9.92 23.63 12.95 36.02-4.31-7.06-9.11-14.41-16.74-18.23-7.45-3.96-16.79-3.91-24.31-.16-6.6 3.24-11.88 8.51-17.18 13.48-1.03-12.7-1.58-25.46-.8-38.19.31-11.24 1.71-22.73-1.04-33.79-1.98-7.87-7.06-14.61-13.31-19.66-7.69-6.4-15.78-12.32-24.17-17.78-6.62-25.21-16.73-49.37-28.36-72.64z"/><path d="m428.5 41.53c6.19 21.68 13.35 43.4 25.36 62.64 3.53 5.75 7.99 10.84 12.25 16.05-8.81-1.9-17.2-5.35-25.47-8.88-5.21-2.16-9.58-5.78-14.44-8.55-2.34-1.28-5.64-2.58-7.92-.5-2.23 2.55-.46 6.09.75 8.69 3.14 5.77 6.22 11.63 7.96 18.01 4.66 16.01 7.65 32.54 8.78 49.18-4.16-5.43-6.63-11.9-10.52-17.49-1.23-2.02-3.76-2.19-5.78-2.89-.61 14.79 1.5 29.53 2.41 44.27-3.23-7.34-6.74-14.84-12.54-20.52-1.28-1.67-4.55-1.69-4.82.8-1.02 7.51.4 15.15-.57 22.68-.45 2.31-1.82 4.29-2.96 6.31-1.89-3.16-3.64-6.45-6.13-9.19-7.63-8.18-20.01-11.61-30.68-7.99-13.29 4.05-22.66 14.97-31.19 25.31.11-5.85.97-11.66 1.16-17.51.26-4.82-2.72-8.93-5.69-12.41-6.5-7.55-15.52-12.18-24.09-16.93-4.69-2.57-9.4-5.11-14.29-7.27 11.61-2.57 22.42-9.99 27.11-21.2 8.66 1.11 17.75 2.17 26.21-.64 14.34-4.79 26.21-14.79 36.48-25.59 20.58-22.35 35.65-49.09 48.62-76.38z"/><path d="m560.81 71.53c5.53-7.74 10.64-15.76 15.8-23.74-1.68 12.38-2.22 24.87-2.23 37.36-4.22-4.83-8.51-9.65-13.57-13.62z"/><path d="m666.22 125.27c16.42-11.32 32.12-23.73 46.74-37.28-.68 1.94-1.41 3.87-2.19 5.77-14.74 20.42-26.67 42.9-34.88 66.72-14.41-4.32-26.79-13.61-41.33-17.48 11.28-4.47 21.57-11.06 31.66-17.73z"/><path d="m533.02 135.48c16.46-3.37 34.72-9.37 43.66-24.78 2.04 10.18 5.13 20.6 11.97 28.67 4.65 5.7 11.59 9.1 18.88 9.76-.96 1.94-2.32 4.17-1.38 6.37 3.52 2.71 8.3 3.58 11.25 7.08 3.12 3.81 4.28 8.71 5.7 13.32-3.9-2.73-7.87-5.38-11.38-8.6-5.27-4.77-8.79-11.2-14.44-15.58-6.15-5.34-14.03-8.34-19.66-14.33-1.83-1.75-4.98-5.04-7.35-2.25-3.15 5.3-5.14 11.23-8.51 16.43-6.02-3.73-12.99-5.55-18.92-9.43-3.35-2.12-6.56-4.43-9.82-6.66z"/><path d="m498.02 130.36c.94-.51 1.87-1.02 2.81-1.55-.04 1.49-.05 2.99-.04 4.49-.93-.98-1.84-1.97-2.77-2.94z"/><path d="m16.42 162.81c11.06 2.52 22.02 5.51 33.01 8.3-.51 6.66-3.27 12.79-6.91 18.29-8.55-9.01-17.63-17.51-26.1-26.59z"/><path d="m90.97 179.08c11.44 1.32 22.88 3.11 34.43 2.89 13.64 25 22.81 52.08 31.45 79.12-9.3-12.22-19.63-23.64-31.13-33.82-6.41-6.28-14.49-11.72-17.34-20.68-3.52-10.44-10.08-19.44-17.41-27.51z"/><path d="m485.74 212.75c4.14-5.09 8.72-9.8 13.09-14.69-1.42 28.99-2.35 58.02-1.81 87.05-2.83 1.19-5.74 2.87-8.92 2.36-4.34-4.65-5.63-11.27-5.67-17.44-.15-15.03-1.31-30.04-1.18-45.08-.07-4.46 1.8-8.72 4.49-12.2z"/><path d="m581.03 242.88c2.81-13.31 12.98-23.15 21.78-32.85-.58 16.4-1.71 33.28-8.23 48.55-3.74 8.45-8.92 16.61-16.57 22.02-.78-12.63.25-25.38 3.02-37.72z"/><path d="m664.99 229.14c.75-3.64 2.07-7.15 4.03-10.31-.63 3.67-2.03 7.17-4.03 10.31z"/><path d="m729.99 263.22c1.7-6.66 4.31-13.04 6.76-19.45 13.03 1.96 26.21 2.72 39.38 2.61-15.28 7.06-30.28 14.81-44.56 23.72-1.13-2.09-2.42-4.44-1.58-6.88z"/><path d="m404.22 295.21c4.63-15.83 17.26-29.65 33.57-33.61.29 6.84.81 13.66 1.3 20.48.54 4.14-1.96 7.71-3.98 11.07-4.76 7.66-11.34 15.17-20.52 17.21-2.51.34-5.5 1.07-7.77-.26-3.25-4.11-3.9-9.92-2.6-14.89z"/><path d="m223.74 311.38c-.73-7.26-1.65-14.83.82-21.87 5.77 10.79 8.46 22.86 11.09 34.72 3.73 17.49 6.55 35.21 7.79 53.06.52 8.63.57 17.34-1.03 25.87-4.15-13.64-7.12-27.62-9.94-41.59-2.95-16.72-6.71-33.31-8.73-50.19z"/><path d="m105.55 325.47c6.5-10.59 13.29-21.01 19.49-31.78 7.76 16.17 14.43 32.93 18.98 50.3 8.73 31.83 6.21 66.44-6.02 97.02-4.37 10.25-9.52 20.51-17.66 28.33-4.71 4.41-9.48 9.06-15.49 11.63 6.33-11.59 11.91-23.7 15.55-36.43 3.17-11.29 4.32-24-1.21-34.77-7.47-15.65-24.56-24.14-40.99-26.83.34-2.93 1.17-5.78 2.29-8.5 6.95-16.99 15.64-33.22 25.06-48.97z"/><path d="m356.13 346.17c6.49-4.73 12.99-9.47 18.55-15.31 1.99 3.26 3.99 6.5 5.97 9.76-5.09 4.99-8.36 12.68-15.69 14.75-5.58 1.62-7.41-5.25-8.83-9.2z"/><path d="m643.33 334.06c3.67 3.13 7.3 6.34 11.06 9.38-5.77 13.69-4.98 29.04-1.8 43.26 4.48 19.91 12.61 38.79 21.73 56.98 14.8 29.62 33.03 57.36 51.93 84.49-13.07-9.05-25.72-18.72-39.04-27.4-29.41-19.38-59.93-37.68-93.13-49.81-16.14-5.49-33.41-10.19-50.54-7.22-13.52 2.19-24.42 12.14-31.26 23.55-7.73 13.2-10.85 28.56-12.07 43.65-1.91 28.66 1.96 57.41 8.58 85.26-19.8-25.25-41.16-49.89-67.59-68.44-13.09-8.94-27.95-16.92-44.2-17.04-12.17-.23-23.6 5.2-33.61 11.66-14.18 9.59-25.69 22.59-35.55 36.46-9.57 13.6-17.73 28.17-24.55 43.33-1.59-9.16-2.84-18.38-5.15-27.4 20.13-20.85 38.03-43.69 57.65-65 6.64-7.88 14.34-15.79 16.76-26.13 1.46-10.48-.94-21.09-4.21-31.01-3.49-10.16-7.03-20.3-10.54-30.44 4.68.84 9.47 1.85 14.25 1.17 8.85-1.04 16.56-6.49 22.11-13.23 10.04-11.99 13.64-27.93 14.44-43.21 10.31 6.73 20.91 14.43 33.49 15.85 8.2 1.05 13.47-6.61 16.83-12.93 4.86-8.27 5.83-17.94 6.88-27.27 6.19 5.74 11.98 12.33 19.88 15.76 3.67 1.8 8.1 2.22 11.78.2 9.22-4.52 14.01-14.2 18.82-22.74 4.82 4.92 9.76 9.92 15.96 13.1 6.08 3.42 13.65 5.29 20.39 2.72 4.92-2.12 6.94-7.51 9.23-11.95 6.67 5.79 13.75 12.98 23.11 13.34 7.34-1.16 11.21-8.58 15.6-13.8 6.62 7.08 13.65 14.97 23.53 17.15 3.09.85 6.2-.77 8.14-3.13 4.79-5.67 7.99-12.47 11.09-19.16z"/><path d="m291.57 391.63c2.97 7.28 5.01 14.89 7.41 22.37 2.6 8.82 5.34 17.78 5.52 27.05.18 5.91-3.76 10.8-7.82 14.64-9.65 8.83-21.53 14.84-33.68 19.45 14.05-26.04 22.24-54.75 28.57-83.51z"/><path d="m30.89 584.9c12.13-14.56 23.93-29.38 35.37-44.5 2.68 3.22 5.36 6.44 8.24 9.49-14.69 11.49-29.13 23.28-43.61 35.01z"/></g><path d="m701 46.01c2.75-1.1 5.78-1.09 8.68-.79 10.26 1.15 20.46 3.68 29.68 8.4 14.5 6.99 25.77 18.99 35.42 31.59 4.78 5.95 8.62 12.6 13.62 18.38 3.08 3.65 7.3 6.8 8.46 11.68.69 4.68-1.31 9.22-3.18 13.4-4.57 9.19-10.23 17.78-15.32 26.69-8.16 14.38-16.52 28.71-23.16 43.89-6.52 13.88-12.74 27.94-17.66 42.48-.2.51-.59 1.53-.79 2.04-2.45 6.41-5.06 12.79-6.76 19.45-.84 2.44.45 4.79 1.58 6.88.29.29.86.86 1.15 1.15 4.11 4.27 8.9 7.8 13.44 11.6 1.47 1.41 3.91 3.34 2.53 5.61-3.11 4.01-7.97 6.13-11.39 9.85-9 9.65-15.11 21.51-20.59 33.4-2.78 6-1.84 12.79-.74 19.08 7.37 1.18 14.9 2.3 21.71 5.54 9.13 4.29 16.47 11.47 23.08 18.94 4.12 4.74 7.54 10.49 8.11 16.86.19 6.54-3 12.71-7.18 17.56-5.4 5.83-12.38 9.9-19.22 13.81-8.47 4.41-17.77 8.36-27.53 7.62-5.81-.07-11.03-3.09-15.43-6.63-5.77-4.57-10.97-10.14-14.07-16.89-2.64-6.84-2.26-14.56-.34-21.53 2.27-8.14 8.26-14.79 9.75-23.17.98-9.05-2.01-18.11-.01-27.12-4.09 3.92-8.41 7.7-11.55 12.46-1.73 2.31-3.16 5.05-5.73 6.53-3.22 1-6.48-.58-9.26-2.08-4.21-2.43-8.24-5.16-12.21-7.96-.42-.32-1.27-.97-1.7-1.29-3.76-3.04-7.39-6.25-11.06-9.38-3.1 6.69-6.3 13.49-11.09 19.16-1.94 2.36-5.05 3.98-8.14 3.13-9.88-2.18-16.91-10.07-23.53-17.15-4.39 5.22-8.26 12.64-15.6 13.8-9.36-.36-16.44-7.55-23.11-13.34-2.29 4.44-4.31 9.83-9.23 11.95-6.74 2.57-14.31.7-20.39-2.72-6.2-3.18-11.14-8.18-15.96-13.1-4.81 8.54-9.6 18.22-18.82 22.74-3.68 2.02-8.11 1.6-11.78-.2-7.9-3.43-13.69-10.02-19.88-15.76-1.05 9.33-2.02 19-6.88 27.27-3.36 6.32-8.63 13.98-16.83 12.93-12.58-1.42-23.18-9.12-33.49-15.85-.8 15.28-4.4 31.22-14.44 43.21-5.55 6.74-13.26 12.19-22.11 13.23-4.78.68-9.57-.33-14.25-1.17 3.51 10.14 7.05 20.28 10.54 30.44 3.27 9.92 5.67 20.53 4.21 31.01-2.42 10.34-10.12 18.25-16.76 26.13-19.62 21.31-37.52 44.15-57.65 65-.61.58-1.22 1.17-1.83 1.76-5.44 5.18-11.04 10.2-17.01 14.77-9.3 7.31-19.73 14.3-31.87 15.26-13.29 1.43-25.23-6.02-35.57-13.41-11.02-8.4-21.9-17.72-28.48-30.15-4.72 5.08-9.21 10.44-14.82 14.58-8.08 6.38-18.31 9.84-28.56 10.16-9.93-.33-19.73-3.34-28.2-8.52-8.96-5.48-18.18-10.87-25.54-18.47-3.19-3.27-6.7-6.19-10.1-9.22-.57-.54-1.12-1.09-1.66-1.64-2.88-3.05-5.56-6.27-8.24-9.49-.33-.4-.98-1.2-1.31-1.6-16.71-21.04-28.47-45.68-36.51-71.23-11.34-36.78-16.27-75.21-18.41-113.54-.15-12.01.07-24.02-.06-36.03-.25-11.83 1.21-23.61 2.71-35.33 2.58-20.36 7.28-40.46 14.23-59.78 4.04-10.97 9.17-21.5 14.65-31.82.24-.42.72-1.25.96-1.67 3.64-5.5 6.4-11.63 6.91-18.29.08-.53.24-1.58.33-2.11.57-4.54 2.16-9.62 6.68-11.67 3.71-2.18 7.91.07 11.11 2.12 7.59 5.28 14.7 11.23 21.43 17.56.67.68 1.33 1.37 1.99 2.07 7.33 8.07 13.89 17.07 17.41 27.51 2.85 8.96 10.93 14.4 17.34 20.68 11.5 10.18 21.83 21.6 31.13 33.82-8.64-27.04-17.81-54.12-31.45-79.12-.25-.48-.74-1.45-.99-1.94-6.75-14.15-14.53-27.78-21.76-41.69-8.93-18.24-19.2-35.92-25.8-55.2-1.47-4.35-3.19-8.69-3.71-13.28-.38-2.59 1-5.42 3.53-6.33 2.79-1.28 5.97-.18 8.41 1.37 5.18 3.38 9.15 8.21 13.82 12.19 6.37 5.35 13.57 9.74 21.37 12.65 15.46 5.82 31.38 10.65 46.06 18.35.98.55 1.96 1.12 2.93 1.71 8.39 5.46 16.48 11.38 24.17 17.78 6.25 5.05 11.33 11.79 13.31 19.66 2.75 11.06 1.35 22.55 1.04 33.79-.78 12.73-.23 25.49.8 38.19 5.3-4.97 10.58-10.24 17.18-13.48 7.52-3.75 16.86-3.8 24.31.16 7.63 3.82 12.43 11.17 16.74 18.23-3.03-12.39-6.35-24.99-12.95-36.02-3.89-6.63-10.76-10.64-15.24-16.74-1.76-2.21-2.31-6.86 1.19-7.64 9.27-2.41 18.95-2.74 28.49-2.96-6.38-2.92-12.75-6.29-17.46-11.63-4.95-5.64-9.71-11.75-12-19.01-2.63-7.66-2.67-15.83-3.36-23.81-.09-.98-.16-1.97-.23-2.95.04-13.3-3.24-26.52-9.31-38.34-1.07-2.25-2.36-4.47-2.76-6.96.33-2.49 2.27-5.08 4.96-5.19 3.53-.35 6.55 1.83 9.53 3.37 5.38 3.02 11.44 4.47 16.98 7.12 8.24 4.31 16.66 8.37 24.38 13.59 11.3 8.16 22.26 17.19 30.26 28.75 7.1 10.53 12.37 23.68 8.69 36.47-.2.49-.6 1.47-.79 1.96-4.69 11.21-15.5 18.63-27.11 21.2 4.89 2.16 9.6 4.7 14.29 7.27 8.57 4.75 17.59 9.38 24.09 16.93 2.97 3.48 5.95 7.59 5.69 12.41-.19 5.85-1.05 11.66-1.16 17.51 8.53-10.34 17.9-21.26 31.19-25.31 10.67-3.62 23.05-.19 30.68 7.99 2.49 2.74 4.24 6.03 6.13 9.19 1.14-2.02 2.51-4 2.96-6.31.97-7.53-.45-15.17.57-22.68.27-2.49 3.54-2.47 4.82-.8 5.8 5.68 9.31 13.18 12.54 20.52-.91-14.74-3.02-29.48-2.41-44.27 2.02.7 4.55.87 5.78 2.89 3.89 5.59 6.36 12.06 10.52 17.49-1.13-16.64-4.12-33.17-8.78-49.18-1.74-6.38-4.82-12.24-7.96-18.01-1.21-2.6-2.98-6.14-.75-8.69 2.28-2.08 5.58-.78 7.92.5 4.86 2.77 9.23 6.39 14.44 8.55 8.27 3.53 16.66 6.98 25.47 8.88 1.3.29 2.6.59 3.9.92 8.49 2.96 18.12 2.37 25.94 7.17.7.67 1.39 1.35 2.07 2.05.93.97 1.84 1.96 2.77 2.94-.01-1.5 0-3 .04-4.49.04-.46.13-1.36.18-1.81.56-5.67 1.99-11.28 4.62-16.36 3.01-6.46 7.26-12.57 8.38-19.73 1.04-7.55-5.14-13.12-9.67-18.24-4.73-5.6-10.98-9.95-14.66-16.39-1.49-2.05.7-4.52 2.87-4.69 9.03-1.78 18.29.02 27.22 1.62 14.21 2.61 27.97 8.19 39.43 17.08.4.31 1.21.93 1.61 1.24 5.06 3.97 9.35 8.79 13.57 13.62.84.98 1.67 1.98 2.48 3.01 2.26 6.27 2.62 13 1.38 19.52-.5 1.02-1.02 2.03-1.56 3.02-8.94 15.41-27.2 21.41-43.66 24.78 3.26 2.23 6.47 4.54 9.82 6.66 5.93 3.88 12.9 5.7 18.92 9.43 3.37-5.2 5.36-11.13 8.51-16.43 2.37-2.79 5.52.5 7.35 2.25 5.63 5.99 13.51 8.99 19.66 14.33 5.65 4.38 9.17 10.81 14.44 15.58 3.51 3.22 7.48 5.87 11.38 8.6-1.42-4.61-2.58-9.51-5.7-13.32-2.95-3.5-7.73-4.37-11.25-7.08-.94-2.2.42-4.43 1.38-6.37.78-.62 1.58-1.22 2.41-1.79 5.82-4.17 13.16-5.34 20.17-4.87 1.48.14 2.96.34 4.45.53 14.54 3.87 26.92 13.16 41.33 17.48.49.16 1.49.48 1.98.65 5.9 1.9 11.85 3.68 17.87 5.18 3.72-17.88 6.24-36.02 10.87-53.71 1.23-4.66 2.25-9.37 3.11-14.11.34-1.58.65-3.16 1.05-4.73.78-1.9 1.51-3.83 2.19-5.77.34-1 .66-2.01.95-3.03 1.18-5.74 3.51-11.56 2.72-17.49-2.68-7.72-11.53-9.94-16.57-15.64-1.63-1.59-1.7-5.3.94-5.82m.92 3.12c3.52 4.26 8.89 6.3 12.7 10.25 3.04 3.02 6.2 6.92 5.5 11.5-1.29 9.95-4.47 19.52-6.9 29.23-6.64 23.36-10.72 47.33-14.66 71.26-3.83 22.21-7.3 44.48-10.06 66.85-1.83 15.18-3.71 30.45-3.22 45.78.2 9.01-1.01 18.32 1.82 27.06 1.46 4.93 6.67 6.93 10.56 9.58 5.06-13.54 9.24-27.97 18.82-39.15 3.11-3.86 7.65-6.02 11.62-8.84-1.7-.75-3.56-1.43-5.41-.88-8.65 2.02-15.61 7.83-22.89 12.55 8.26-38.17 22.63-74.76 39.56-109.86 7.84-15.82 16.58-31.18 25.79-46.24 3.86-7.22 8.75-14.05 11.03-21.99.95-2.69-.18-5.47-1.94-7.53-3.97-4.72-8.16-9.27-11.59-14.42-6.88-8.95-12.6-19.3-22.23-25.66-7.29-5.01-15.86-7.81-24.5-9.36-4.61-.77-9.45-1.67-14-.13m-209.77 5.48c6.38 10.18 17.57 16.34 23.32 26.99 2.36 4.16 2.42 9.24.96 13.71-2.74 8.48-8.42 15.63-11.25 24.08 14.78-.35 29.64-4.95 41.77-13.47 6.39-4.59 11.48-11.84 11.63-19.92-.22-7.53-4.71-14.49-10.81-18.71-7.16-4.93-15.39-8.19-23.86-10.04-10.42-2.18-21.11-3.87-31.76-2.64m-263.78.45c-.51 1.1-1.12 2.15-1.88 3.09 5.01 10.6 9.53 21.62 11.18 33.31.91 7.83 1.47 15.7 1.69 23.58.15 6.85 1.72 13.72 4.88 19.82 2.76 5.35 7.69 9.39 13.3 11.47 17.47 7.58 40.03-6.48 41.17-25.42.51-5.61-1.62-10.97-3.74-16.03-3.63-8.32-8.37-16.5-15.63-22.16-11.3-8.63-23.59-16.22-37.11-20.81-4.89-1.7-9.35-4.36-13.86-6.85m-152.43 11.97c1.61 10.81 5.89 20.98 10.17 30.96 12.08 26.11 26.32 51.11 39.24 76.79 7.72 13.53 13.81 27.92 19.64 42.34 11.9 31.37 21.37 63.59 30.09 95.96 13.19 48.87 25.9 97.85 37.96 147.01 1.35 5.71 2.52 12.55 8.15 15.68 3.45 2.27 7.51-.09 10.33-2.27 7.16-5.83 11.58-14.18 15.57-22.33 4.68-9.11 8.36-18.7 11.52-28.43 9.48-27.71 15.38-56.6 18.23-85.73.85-6.88-.76-13.69-1.58-20.48-2.88-23.73-3.32-47.67-5.66-71.45-.7-9.16-4.71-17.62-9.37-25.39-3.68-6.2-9.65-11.21-16.71-12.99-6.84-1.63-14.16.04-19.89 4.01-14.23 9.22-22.75 24.35-32.44 37.76-1.08-7.71-1.36-15.49-1.8-23.25-.92-16.4-3.05-32.77-2.71-49.22-.12-8.02 1.36-15.97 1.14-23.99.14-8.8-.51-18.05-5.08-25.8-4.46-7.84-12.78-12.16-20.28-16.57-13.82-6.89-28.66-11.42-43.06-16.91-10.41-4.07-20.17-10.09-27.93-18.18-2.67-2.68-5.34-5.49-8.7-7.32-2.08-1.33-4.57-.33-6.83-.2m344 36.84c1.84 7 6.51 12.78 8.59 19.7 4.73 14.78 7.81 30.07 9.63 45.47.76 5.18 1.15 10.42 1 15.66-8.85-4.77-11.49-15.11-17.02-22.78.77 13.39 1.78 26.76 2.93 40.13.91 6.49.68 13.67 4.72 19.21 2.39 3.59 6.43 5.42 10.25 7.09.55 10.21-.23 20.46 1.08 30.63.1 12.09.6 24.25 2.98 36.14 2.95 11.54 7.96 22.52 14.24 32.63 3.28 4.87 6.68 9.86 11.39 13.46 3.23 2.57 7.89 1.79 11.04-.5 7.33-5.21 11.76-13.33 15.68-21.2 1.64-3.46 3.73-7.15 2.97-11.13-1.06-6.3-2.06-12.62-2.69-18.98-4.3.61-8.86 1.65-13.08.09-4.8-1.82-8.61-5.47-12.03-9.18-4.67-5.19-8.69-11.39-9.61-18.45-.88-7.52.29-15.12-.6-22.64-1.1-9.38-.62-18.83-.72-28.25-.34-7 3.77-13.04 8.38-17.88 10.46-11.35 21.28-22.64 28.68-36.31.63-1.54.53-3.24.56-4.87-6.75 2.91-12.71 7.3-19.34 10.43-.9-6.49-1.59-13.62 1.72-19.58 2.7-4.79 8.01-6.89 12.28-9.96 1.19-.65.77-2.79-.48-3.12-6-2.42-12.58-2.68-18.84-4.13-12.01-2.15-23.38-6.76-34.56-11.48-6.74-2.76-12.14-8.02-19.15-10.2m84.38 19.07c-.72 10.05 1.58 20.01 1 30.06-1.31 22.68-4.1 45.29-4.13 68.03-1.63 15.27-.67 30.64-.92 45.97.12 10.9-.65 21.89 1.35 32.67 1.44 10.67 4.57 21.64 11.99 29.75 4.99 5.53 13.37 8.06 20.46 5.54 5.02-3.19 6.56-9.42 8.41-14.71-4.94-8.05-9.62-16.4-12.41-25.46-1.88-6.88-4.04-13.7-5.41-20.7-1.88-13.72-2.7-27.65-1.37-41.46.88-10.09 1.39-20.46 5.24-29.96 5.86-13.88 13.83-26.96 24.18-37.95 2.92-3.15 5-6.94 7.06-10.67-4.08-2.31-8.35-4.23-12.64-6.09-6.71-2.92-12.36-7.67-18.52-11.53-7.87-4.87-15.12-11.15-24.29-13.49m58.68 32.97c-6.66 10.74-13.65 21.3-19.55 32.5-8.23 15.25-12.9 32.33-14.01 49.6-.12 8.34-1.69 16.67-.45 25 .32 9.58 1.01 19.21 3.7 28.46 3.92 12.75 10.5 24.63 18.93 34.95 3.84 4.26 8.52 8.61 14.44 9.4 4.85.58 7.92-3.85 10.62-7.13 2.94-3.85 6.64-7.6 7.03-12.7.71-7.86 6.12-13.95 9.35-20.84 12.83-23.96 19.87-50.4 26.2-76.67 1.21-5.51 2.97-11.13 2.02-16.82-1.39-8.61-4.2-17.3-9.9-24.07-5.26-6.12-11.72-11.06-18.45-15.47-4.51-2.71-4.52-8.63-7.64-12.45-3.76-4.58-8.3-8.44-12.4-12.71-3.26 6.34-6.12 12.89-9.89 18.95m59.66-10.19c-5.29 1.08-11.93 2.57-13.9 8.32 5.94 1.72 11.53 5.38 14.02 11.25 4.54 10.92 5.56 23.19 3.62 34.82-2.98 20.02-8.68 39.51-14.28 58.91-5.64 16.5-12.11 32.87-21.36 47.72-2.07 3.63-4.76 8.01-2.65 12.23 3.32 7.47 9.81 12.8 15.38 18.55 1.93 2.25 5.74 3.42 8 .96 8.44-9.5 12.44-21.86 15.9-33.86 1.02 3.69 2.2 7.43 4.41 10.61 4.46 6.38 9.28 12.65 15.52 17.41 2.93 2.17 5.91 4.81 9.69 5.19 3.85.28 4.91-4.4 7.17-6.69 5.86-6.92 12.72-12.95 19.13-19.35-2.56-11.44-1.36-23.19-1.65-34.79-.17-9.39 1.12-18.71 1.97-28.04 2.37-20.6 5.35-41.13 8.59-61.62.57-4.29 1.96-8.61 1.29-12.96-1.64-5.33-7.62-9.16-13.16-7.91-8.35 1.53-14.8 7.38-21.63 11.95.45-4.28 1.27-8.62.64-12.92-.92-4.29-3.45-8.22-7-10.8-8.43-6.28-19.12-10.17-29.7-8.98m-567.76 17.13c-2.06 3.67-2.08 8.02-2.84 12.07-1.08 8.47-6.49 15.38-10.35 22.72-17.64 33.39-25.4 71.06-28.22 108.46-.56 14.95 0 29.94-.27 44.9 1.58 34.78 5.82 69.56 14.67 103.29 8.9 33.65 24.31 66.13 47.77 92.1 4.79 5.21 10.48 9.53 16.18 13.71 11.59 8.15 26.6 13.21 40.68 9.27 13.62-3.33 24.17-13.6 32.2-24.6 2.96-4.53 6.87-9.05 6.99-14.73.13-4.91-.12-9.84.47-14.73.86-7.76.56-15.57.58-23.36-.02-6.11-1.47-12.47-5.55-17.2-1.27-2.07-3.83-3.88-3.44-6.55 2.07-3.07 6.27-3.31 9.6-2.87 6.93 1.07 12.46 5.93 16.62 11.29 1.1-10.86 2.92-21.68 2.79-32.62-.18-9.03.35-18.08-.7-27.07-2.91-38.9-11.63-77.44-26.64-113.49-3.88-10.61-9.46-20.46-14.37-30.6-11.64-22.15-27.41-42.23-46.56-58.36-3.95-3.72-7.82-7.52-11.54-11.46-3.84-4.12-5.23-9.7-7.4-14.74-2.76-6.71-7.55-12.26-11.92-17.95-3.42-4.19-7.11-8.56-12.23-10.67-2.59-1.11-5.19 1.13-6.52 3.19m188.9 3.15c-1.29.42-3.14.43-3.53 2.05 4.28 7.41 12.48 11.58 16.69 19.07 7.24 13.01 11.23 27.53 14.06 42.07 4.12 24.71 4.2 49.83 6.49 74.73 2.34 26.91 8.01 53.42 15.37 79.37 4.04 15.93 10.5 31.18 13.68 47.34 1.13 7.33 2.16 15.83-2.79 22.07-7.27 9.48-18.05 15.41-28.56 20.63-18.14 9.06-38.39 12.54-58.38 14.67-7.16.77-14.47-.23-21.3-2.43-6.92-2.26-9.39-10.11-15.49-13.58-3.68-2.65-8.24-3.44-12.69-3.2 2.9 3.62 5.72 7.42 7.16 11.89 2.65 6.8 1.67 14.2 1.81 21.31.37 11-2.46 22.03-.15 32.96 2.81 13.35 8.66 26.11 17 36.93 3.85 4.98 9.73 7.61 14.87 11 4.65 2.98 9.47 6.23 15.12 6.76 9.26.79 18.6-2.13 26.22-7.33 23.41-14.66 41.08-36.29 58.95-56.95 10.17-12.13 20.86-23.81 31.3-35.71 5.49-7.12 12.34-14.38 12.87-23.85.07-19.04-9.19-36.17-14.34-54.08-1.08-4.72-5.4-7.21-8.98-9.88-6.15-4.53-9.58-11.59-12.85-18.29-6.31-12.86-8.3-27.26-9.93-41.33-1.17-9.37-.55-18.81-.71-28.22-.28-12.34 1.26-24.66 3.37-36.79.94-6.21.49-12.52 1.19-18.74.98-9.47.16-19 .52-28.49 1.06-12.79 1.19-25.63 2.66-38.39.97-4.93-2.51-9.04-5.94-12.07-10.25-8.54-22.97-14.64-36.45-15.22-9.1-.28-18.3-.24-27.24 1.7m163.33 17.12c.07 6.98.31 13.96.18 20.93.14 3.03-1.22 5.82-3.16 8.07-10.13 12.14-20.35 24.51-26.98 39-10.06 19.78-13.51 43.64-6 64.86 3.89 9.77 9.33 18.88 15.61 27.31 6.54 8.69 16.17 14.32 25.78 19.03 5.4 2.41 11.74 4.97 17.6 2.68 6.71-3.73 10.04-11.23 12.55-18.13 2.26-6.05 1.84-12.57 2.14-18.89.13-4.06 2.3-7.71 2.55-11.73-.5-3.05-1.98-5.81-3.06-8.67-2.16-5.24-3.5-10.76-4.61-16.31-4.91 9.13-11.74 18.3-22.06 21.52-7.72 3.09-16.64.61-22.72-4.73-6.2-5.37-11.52-12.67-12.19-21.07.22-8.45 4.5-16.19 9.11-23.05 7.48-10.29 18.9-18.94 32.05-19.36 4.76-.11 9-2.36 12.89-4.89-.14-2.62.33-5.4-.63-7.9-4.07-3.98-9.78-6.11-13.13-10.89-3.77-4.48-3.02-10.65-4.11-16.02-1.62-8.3-7.18-14.95-11.81-21.76m-60.51 25.55c-11.73 12-20.57 26.68-26.51 42.34-8.69 22.19-11.36 46.3-10.83 69.99-.46 14.06 1.03 28.16 4 41.9 3.08 12.61 7.33 25.65 16.79 35 6.42 6.24 15.63 10.1 24.64 8.62 8.27-1.43 15.53-6.64 20.47-13.3 8.51-10.81 11.9-24.75 12.69-38.25.62-4.67-2.71-8.29-5.36-11.68-3.63 4.11-6.87 8.6-10.95 12.29-4.15 3.83-10.57 3.47-15.47 1.43-10.69-4.67-17.98-15.04-21.33-25.92 2.16-2.41 5.16-3.79 7.79-5.61 7.93-5.24 14.42-12.3 20.21-19.76 2.06-2.44 1.19-5.81 1.14-8.7-1.97-22.57 6.68-44.63 18.8-63.27 4.61-7.03 10.22-13.31 15.35-19.95-3.16-10.19-13.34-17.72-24.02-17.69-10.6-.69-19.84 5.88-27.41 12.56m139.12 4.08c-2.69 3.48-4.56 7.74-4.49 12.2-.13 15.04 1.03 30.05 1.18 45.08.04 6.17 1.33 12.79 5.67 17.44 3.18.51 6.09-1.17 8.92-2.36-.54-29.03.39-58.06 1.81-87.05-4.37 4.89-8.95 9.6-13.09 14.69m-81.52 82.46c-1.3 4.97-.65 10.78 2.6 14.89 2.27 1.33 5.26.6 7.77.26 9.18-2.04 15.76-9.55 20.52-17.21 2.02-3.36 4.52-6.93 3.98-11.07-.49-6.82-1.01-13.64-1.3-20.48-16.31 3.96-28.94 17.78-33.57 33.61m-48.09 50.96c1.42 3.95 3.25 10.82 8.83 9.2 7.33-2.07 10.6-9.76 15.69-14.75-1.98-3.26-3.98-6.5-5.97-9.76-5.56 5.84-12.06 10.58-18.55 15.31m341.92-6.96c-1.95 8.18 1.53 16.44-.08 24.65-1.26 8.78-7.96 15.45-9.92 24-1.82 7.41-2.11 16.07 2.66 22.5 4.13 5.37 10.98 9.44 17.95 8.12 9.4-1.56 18.08-5.84 26.23-10.64 6.67-4.02 12.96-9.17 16.93-15.97 3.22-5.55 2.38-12.63-.75-18.02-4.54-7.93-12.07-14.19-20.81-16.93-5.4-1.78-11.11-2.19-16.62-3.43-2.97-.67-6.04-1.71-8.11-4.04-2.52-2.87-3.69-6.59-5.07-10.07-.6-.04-1.8-.13-2.41-.17m-406.48 52.42c-6.33 28.76-14.52 57.47-28.57 83.51 12.15-4.61 24.03-10.62 33.68-19.45 4.06-3.84 8-8.73 7.82-14.64-.18-9.27-2.92-18.23-5.52-27.05-2.4-7.48-4.44-15.09-7.41-22.37z" fill="#7d0a0b"/><path d="m590.99 170.26c7.24 4.14 13.09 11.29 14.34 19.7 1.08 6.61 1.18 13.37.9 20.06-1.1 14.43-1.56 29.13-6.05 43.02-3.9 11.01-9.78 21.75-18.87 29.33-5.43 4.08-12.09 7.97-19.16 6.76-4.14-6.09-3.92-13.88-4.82-20.92-1.31-9.24.34-18.52.96-27.75 1.48-9.44 3.11-19.35 8.76-27.33 4.5-6.42 9.74-12.29 14.96-18.14 3.05-3.52 7.27-6.19 9.29-10.5 1.18-4.66-.06-9.51-.31-14.23m-9.96 72.62c-2.77 12.34-3.8 25.09-3.02 37.72 7.65-5.41 12.83-13.57 16.57-22.02 6.52-15.27 7.65-32.15 8.23-48.55-8.8 9.7-18.97 19.54-21.78 32.85z" fill="#7d0a0b"/><path d="m647.44 205.52c2.74-6.82 9.38-11.85 16.64-12.78 2.95-.41 6.31.68 7.83 3.39 2.18 3.88 2.58 8.49 2.3 12.86-.69 8.09-2.72 16.19-6.98 23.18-6.24 10.64-13.64 20.55-19.71 31.3-3.21 5.54-6.01 11.31-9.05 16.95-3.4 6.29-5.82 13.07-9.61 19.16-.26-7.17 1.42-14.17 2.3-21.23 3-24.72 6.84-49.64 16.28-72.83m17.55 23.62c2-3.14 3.4-6.64 4.03-10.31-1.96 3.16-3.28 6.67-4.03 10.31z" fill="#7d0a0b"/><path d="m346.74 248.79c4.23-4.43 9.16-8.9 15.43-9.92 4.36-1.2 6.65 4.36 5.9 7.91-1.57 12.37-6.53 24.03-12.07 35.1-6.2 12.85-14.91 24.64-26.02 33.66-2.03-8.67-1.45-17.66-1.03-26.47 1.98-14.68 7.3-29.5 17.79-40.28z" fill="#7d0a0b"/><path d="m102.92 241.33c2.06 1.59 3.77 3.6 4.9 5.95 5.79 11.29 9.97 23.3 15.17 34.85 9.49 18.8 17.81 38.28 23.42 58.61 5.75 19.8 7.44 40.77 4.75 61.22-2.27 20.84-8.63 41.44-19.96 59.18-4.81 7.08-10.87 13.3-17.76 18.36-6.19 4.69-13.04 8.87-20.73 10.44-5.87 1.21-11.71-1.83-15.83-5.82-6.44-6.43-10.28-14.85-14.12-22.97-5.63-11.99-7.19-25.31-8.71-38.32-.73-13.44-.97-26.94.16-40.36 1.66-16.35 9.15-31.25 16.5-45.67 6.3-13.27 14.08-25.76 21.76-38.26 4.8-7.63 9.78-15.19 13.67-23.35 1-2.11 1.8-4.45 1.32-6.81-1.32-7.64-4.14-14.93-5.48-22.56-.39-1.58.15-3.14.94-4.49m2.63 84.14c-9.42 15.75-18.11 31.98-25.06 48.97-1.12 2.72-1.95 5.57-2.29 8.5-.38.32-1.15.98-1.54 1.3-4.41 25.75-3.46 52.33 2.34 77.79 2.75 8.78 6.13 17.49 11.26 25.18 3.96-1.05 8.27-1.7 11.59-4.29 1.01-.62 2.05-1.22 3-1.95 6.01-2.57 10.78-7.22 15.49-11.63 8.14-7.82 13.29-18.08 17.66-28.33 12.23-30.58 14.75-65.19 6.02-97.02-4.55-17.37-11.22-34.13-18.98-50.3-6.2 10.77-12.99 21.19-19.49 31.78z" fill="#7d0a0b"/><path d="m207.23 271.96c3.57-1.07 7.36.38 10.2 2.57 4.51 3.35 7.43 8.31 9.94 13.24 6.92 13.48 9.92 28.48 12.84 43.22 3.87 18.78 6.07 37.88 6.96 57.02-.3 6.44-.74 13.05-2.81 19.21-.86 2.94-3.36 4.84-6.23 5.62-2.71-4.89-5.2-9.94-6.81-15.31-4.51-14.79-8.27-29.81-12.26-44.75-5.05-18.04-11.44-35.77-14.77-54.26-1.24-6.41-2.18-12.98-1.46-19.51.32-2.79 1.45-6.09 4.4-7.05m16.51 39.42c2.02 16.88 5.78 33.47 8.73 50.19 2.82 13.97 5.79 27.95 9.94 41.59 1.6-8.53 1.55-17.24 1.03-25.87-1.24-17.85-4.06-35.57-7.79-53.06-2.63-11.86-5.32-23.93-11.09-34.72-2.47 7.04-1.55 14.61-.82 21.87z" fill="#7d0a0b"/><path d="m701.92 49.13c4.55-1.54 9.39-.64 14 .13 8.64 1.55 17.21 4.35 24.5 9.36 9.63 6.36 15.35 16.71 22.23 25.66 3.43 5.15 7.62 9.7 11.59 14.42 1.76 2.06 2.89 4.84 1.94 7.53-2.28 7.94-7.17 14.77-11.03 21.99-9.21 15.06-17.95 30.42-25.79 46.24-16.93 35.1-31.3 71.69-39.56 109.86 7.28-4.72 14.24-10.53 22.89-12.55 1.85-.55 3.71.13 5.41.88-3.97 2.82-8.51 4.98-11.62 8.84-9.58 11.18-13.76 25.61-18.82 39.15-3.89-2.65-9.1-4.65-10.56-9.58-2.83-8.74-1.62-18.05-1.82-27.06-.49-15.33 1.39-30.6 3.22-45.78 2.76-22.37 6.23-44.64 10.06-66.85 3.94-23.93 8.02-47.9 14.66-71.26 2.43-9.71 5.61-19.28 6.9-29.23.7-4.58-2.46-8.48-5.5-11.5-3.81-3.95-9.18-5.99-12.7-10.25z" fill="#fb0002"/><path d="m492.15 54.61c10.65-1.23 21.34.46 31.76 2.64 8.47 1.85 16.7 5.11 23.86 10.04 6.1 4.22 10.59 11.18 10.81 18.71-.15 8.08-5.24 15.33-11.63 19.92-12.13 8.52-26.99 13.12-41.77 13.47 2.83-8.45 8.51-15.6 11.25-24.08 1.46-4.47 1.4-9.55-.96-13.71-5.75-10.65-16.94-16.81-23.32-26.99z" fill="#fb0002"/><path d="m228.37 55.06c4.51 2.49 8.97 5.15 13.86 6.85 13.52 4.59 25.81 12.18 37.11 20.81 7.26 5.66 12 13.84 15.63 22.16 2.12 5.06 4.25 10.42 3.74 16.03-1.14 18.94-23.7 33-41.17 25.42-5.61-2.08-10.54-6.12-13.3-11.47-3.16-6.1-4.73-12.97-4.88-19.82-.22-7.88-.78-15.75-1.69-23.58-1.65-11.69-6.17-22.71-11.18-33.31.76-.94 1.37-1.99 1.88-3.09z" fill="#fb0002"/><path d="m75.94 67.03c2.26-.13 4.75-1.13 6.83.2 3.36 1.83 6.03 4.64 8.7 7.32 7.76 8.09 17.52 14.11 27.93 18.18 14.4 5.49 29.24 10.02 43.06 16.91 7.5 4.41 15.82 8.73 20.28 16.57 4.57 7.75 5.22 17 5.08 25.8.22 8.02-1.26 15.97-1.14 23.99-.34 16.45 1.79 32.82 2.71 49.22.44 7.76.72 15.54 1.8 23.25 9.69-13.41 18.21-28.54 32.44-37.76 5.73-3.97 13.05-5.64 19.89-4.01 7.06 1.78 13.03 6.79 16.71 12.99 4.66 7.77 8.67 16.23 9.37 25.39 2.34 23.78 2.78 47.72 5.66 71.45.82 6.79 2.43 13.6 1.58 20.48-2.85 29.13-8.75 58.02-18.23 85.73-3.16 9.73-6.84 19.32-11.52 28.43-3.99 8.15-8.41 16.5-15.57 22.33-2.82 2.18-6.88 4.54-10.33 2.27-5.63-3.13-6.8-9.97-8.15-15.68-12.06-49.16-24.77-98.14-37.96-147.01-8.72-32.37-18.19-64.59-30.09-95.96-5.83-14.42-11.92-28.81-19.64-42.34-12.92-25.68-27.16-50.68-39.24-76.79-4.28-9.98-8.56-20.15-10.17-30.96m131.29 204.93c-2.95.96-4.08 4.26-4.4 7.05-.72 6.53.22 13.1 1.46 19.51 3.33 18.49 9.72 36.22 14.77 54.26 3.99 14.94 7.75 29.96 12.26 44.75 1.61 5.37 4.1 10.42 6.81 15.31 2.87-.78 5.37-2.68 6.23-5.62 2.07-6.16 2.51-12.77 2.81-19.21-.89-19.14-3.09-38.24-6.96-57.02-2.92-14.74-5.92-29.74-12.84-43.22-2.51-4.93-5.43-9.89-9.94-13.24-2.84-2.19-6.63-3.64-10.2-2.57z" fill="#fb0002"/><path d="m419.94 103.87c7.01 2.18 12.41 7.44 19.15 10.2 11.18 4.72 22.55 9.33 34.56 11.48 6.26 1.45 12.84 1.71 18.84 4.13 1.25.33 1.67 2.47.48 3.12-4.27 3.07-9.58 5.17-12.28 9.96-3.31 5.96-2.62 13.09-1.72 19.58 6.63-3.13 12.59-7.52 19.34-10.43-.03 1.63.07 3.33-.56 4.87-7.4 13.67-18.22 24.96-28.68 36.31-4.61 4.84-8.72 10.88-8.38 17.88.1 9.42-.38 18.87.72 28.25.89 7.52-.28 15.12.6 22.64.92 7.06 4.94 13.26 9.61 18.45 3.42 3.71 7.23 7.36 12.03 9.18 4.22 1.56 8.78.52 13.08-.09.63 6.36 1.63 12.68 2.69 18.98.76 3.98-1.33 7.67-2.97 11.13-3.92 7.87-8.35 15.99-15.68 21.2-3.15 2.29-7.81 3.07-11.04.5-4.71-3.6-8.11-8.59-11.39-13.46-6.28-10.11-11.29-21.09-14.24-32.63-2.38-11.89-2.88-24.05-2.98-36.14-1.31-10.17-.53-20.42-1.08-30.63-3.82-1.67-7.86-3.5-10.25-7.09-4.04-5.54-3.81-12.72-4.72-19.21-1.15-13.37-2.16-26.74-2.93-40.13 5.53 7.67 8.17 18.01 17.02 22.78.15-5.24-.24-10.48-1-15.66-1.82-15.4-4.9-30.69-9.63-45.47-2.08-6.92-6.75-12.7-8.59-19.7z" fill="#fb0002"/><path d="m504.32 122.94c9.17 2.34 16.42 8.62 24.29 13.49 6.16 3.86 11.81 8.61 18.52 11.53 4.29 1.86 8.56 3.78 12.64 6.09-2.06 3.73-4.14 7.52-7.06 10.67-10.35 10.99-18.32 24.07-24.18 37.95-3.85 9.5-4.36 19.87-5.24 29.96-1.33 13.81-.51 27.74 1.37 41.46 1.37 7 3.53 13.82 5.41 20.7 2.79 9.06 7.47 17.41 12.41 25.46-1.85 5.29-3.39 11.52-8.41 14.71-7.09 2.52-15.47-.01-20.46-5.54-7.42-8.11-10.55-19.08-11.99-29.75-2-10.78-1.23-21.77-1.35-32.67.25-15.33-.71-30.7.92-45.97.03-22.74 2.82-45.35 4.13-68.03.58-10.05-1.72-20.01-1-30.06z" fill="#fb0002"/><path d="m563 155.91c3.77-6.06 6.63-12.61 9.89-18.95 4.1 4.27 8.64 8.13 12.4 12.71 3.12 3.82 3.13 9.74 7.64 12.45 6.73 4.41 13.19 9.35 18.45 15.47 5.7 6.77 8.51 15.46 9.9 24.07.95 5.69-.81 11.31-2.02 16.82-6.33 26.27-13.37 52.71-26.2 76.67-3.23 6.89-8.64 12.98-9.35 20.84-.39 5.1-4.09 8.85-7.03 12.7-2.7 3.28-5.77 7.71-10.62 7.13-5.92-.79-10.6-5.14-14.44-9.4-8.43-10.32-15.01-22.2-18.93-34.95-2.69-9.25-3.38-18.88-3.7-28.46-1.24-8.33.33-16.66.45-25 1.11-17.27 5.78-34.35 14.01-49.6 5.9-11.2 12.89-21.76 19.55-32.5m27.99 14.35c.25 4.72 1.49 9.57.31 14.23-2.02 4.31-6.24 6.98-9.29 10.5-5.22 5.85-10.46 11.72-14.96 18.14-5.65 7.98-7.28 17.89-8.76 27.33-.62 9.23-2.27 18.51-.96 27.75.9 7.04.68 14.83 4.82 20.92 7.07 1.21 13.73-2.68 19.16-6.76 9.09-7.58 14.97-18.32 18.87-29.33 4.49-13.89 4.95-28.59 6.05-43.02.28-6.69.18-13.45-.9-20.06-1.25-8.41-7.1-15.56-14.34-19.7z" fill="#fb0002"/><path d="m622.66 145.72c10.58-1.19 21.27 2.7 29.7 8.98 3.55 2.58 6.08 6.51 7 10.8.63 4.3-.19 8.64-.64 12.92 6.83-4.57 13.28-10.42 21.63-11.95 5.54-1.25 11.52 2.58 13.16 7.91.67 4.35-.72 8.67-1.29 12.96-3.24 20.49-6.22 41.02-8.59 61.62-.85 9.33-2.14 18.65-1.97 28.04.29 11.6-.91 23.35 1.65 34.79-6.41 6.4-13.27 12.43-19.13 19.35-2.26 2.29-3.32 6.97-7.17 6.69-3.78-.38-6.76-3.02-9.69-5.19-6.24-4.76-11.06-11.03-15.52-17.41-2.21-3.18-3.39-6.92-4.41-10.61-3.46 12-7.46 24.36-15.9 33.86-2.26 2.46-6.07 1.29-8-.96-5.57-5.75-12.06-11.08-15.38-18.55-2.11-4.22.58-8.6 2.65-12.23 9.25-14.85 15.72-31.22 21.36-47.72 5.6-19.4 11.3-38.89 14.28-58.91 1.94-11.63.92-23.9-3.62-34.82-2.49-5.87-8.08-9.53-14.02-11.25 1.97-5.75 8.61-7.24 13.9-8.32m24.78 59.8c-9.44 23.19-13.28 48.11-16.28 72.83-.88 7.06-2.56 14.06-2.3 21.23 3.79-6.09 6.21-12.87 9.61-19.16 3.04-5.64 5.84-11.41 9.05-16.95 6.07-10.75 13.47-20.66 19.71-31.3 4.26-6.99 6.29-15.09 6.98-23.18.28-4.37-.12-8.98-2.3-12.86-1.52-2.71-4.88-3.8-7.83-3.39-7.26.93-13.9 5.96-16.64 12.78z" fill="#fb0002"/><path d="m54.9 162.85c1.33-2.06 3.93-4.3 6.52-3.19 5.12 2.11 8.81 6.48 12.23 10.67 4.37 5.69 9.16 11.24 11.92 17.95 2.17 5.04 3.56 10.62 7.4 14.74 3.72 3.94 7.59 7.74 11.54 11.46 19.15 16.13 34.92 36.21 46.56 58.36 4.91 10.14 10.49 19.99 14.37 30.6 15.01 36.05 23.73 74.59 26.64 113.49 1.05 8.99.52 18.04.7 27.07.13 10.94-1.69 21.76-2.79 32.62-4.16-5.36-9.69-10.22-16.62-11.29-3.33-.44-7.53-.2-9.6 2.87-.39 2.67 2.17 4.48 3.44 6.55 4.08 4.73 5.53 11.09 5.55 17.2-.02 7.79.28 15.6-.58 23.36-.59 4.89-.34 9.82-.47 14.73-.12 5.68-4.03 10.2-6.99 14.73-8.03 11-18.58 21.27-32.2 24.6-14.08 3.94-29.09-1.12-40.68-9.27-5.7-4.18-11.39-8.5-16.18-13.71-23.46-25.97-38.87-58.45-47.77-92.1-8.85-33.73-13.09-68.51-14.67-103.29.27-14.96-.29-29.95.27-44.9 2.82-37.4 10.58-75.07 28.22-108.46 3.86-7.34 9.27-14.25 10.35-22.72.76-4.05.78-8.4 2.84-12.07m48.02 78.48c-.79 1.35-1.33 2.91-.94 4.49 1.34 7.63 4.16 14.92 5.48 22.56.48 2.36-.32 4.7-1.32 6.81-3.89 8.16-8.87 15.72-13.67 23.35-7.68 12.5-15.46 24.99-21.76 38.26-7.35 14.42-14.84 29.32-16.5 45.67-1.13 13.42-.89 26.92-.16 40.36 1.52 13.01 3.08 26.33 8.71 38.32 3.84 8.12 7.68 16.54 14.12 22.97 4.12 3.99 9.96 7.03 15.83 5.82 7.69-1.57 14.54-5.75 20.73-10.44 6.89-5.06 12.95-11.28 17.76-18.36 11.33-17.74 17.69-38.34 19.96-59.18 2.69-20.45 1-41.42-4.75-61.22-5.61-20.33-13.93-39.81-23.42-58.61-5.2-11.55-9.38-23.56-15.17-34.85-1.13-2.35-2.84-4.36-4.9-5.95z" fill="#fb0002"/><path d="m243.8 166c8.94-1.94 18.14-1.98 27.24-1.7 13.48.58 26.2 6.68 36.45 15.22 3.43 3.03 6.91 7.14 5.94 12.07-1.47 12.76-1.6 25.6-2.66 38.39-.36 9.49.46 19.02-.52 28.49-.7 6.22-.25 12.53-1.19 18.74-2.11 12.13-3.65 24.45-3.37 36.79.16 9.41-.46 18.85.71 28.22 1.63 14.07 3.62 28.47 9.93 41.33 3.27 6.7 6.7 13.76 12.85 18.29 3.58 2.67 7.9 5.16 8.98 9.88 5.15 17.91 14.41 35.04 14.34 54.08-.53 9.47-7.38 16.73-12.87 23.85-10.44 11.9-21.13 23.58-31.3 35.71-17.87 20.66-35.54 42.29-58.95 56.95-7.62 5.2-16.96 8.12-26.22 7.33-5.65-.53-10.47-3.78-15.12-6.76-5.14-3.39-11.02-6.02-14.87-11-8.34-10.82-14.19-23.58-17-36.93-2.31-10.93.52-21.96.15-32.96-.14-7.11.84-14.51-1.81-21.31-1.44-4.47-4.26-8.27-7.16-11.89 4.45-.24 9.01.55 12.69 3.2 6.1 3.47 8.57 11.32 15.49 13.58 6.83 2.2 14.14 3.2 21.3 2.43 19.99-2.13 40.24-5.61 58.38-14.67 10.51-5.22 21.29-11.15 28.56-20.63 4.95-6.24 3.92-14.74 2.79-22.07-3.18-16.16-9.64-31.41-13.68-47.34-7.36-25.95-13.03-52.46-15.37-79.37-2.29-24.9-2.37-50.02-6.49-74.73-2.83-14.54-6.82-29.06-14.06-42.07-4.21-7.49-12.41-11.66-16.69-19.07.39-1.62 2.24-1.63 3.53-2.05z" fill="#fb0002"/><path d="m407.13 183.12c4.63 6.81 10.19 13.46 11.81 21.76 1.09 5.37.34 11.54 4.11 16.02 3.35 4.78 9.06 6.91 13.13 10.89.96 2.5.49 5.28.63 7.9-3.89 2.53-8.13 4.78-12.89 4.89-13.15.42-24.57 9.07-32.05 19.36-4.61 6.86-8.89 14.6-9.11 23.05.67 8.4 5.99 15.7 12.19 21.07 6.08 5.34 15 7.82 22.72 4.73 10.32-3.22 17.15-12.39 22.06-21.52 1.11 5.55 2.45 11.07 4.61 16.31 1.08 2.86 2.56 5.62 3.06 8.67-.25 4.02-2.42 7.67-2.55 11.73-.3 6.32.12 12.84-2.14 18.89-2.51 6.9-5.84 14.4-12.55 18.13-5.86 2.29-12.2-.27-17.6-2.68-9.61-4.71-19.24-10.34-25.78-19.03-6.28-8.43-11.72-17.54-15.61-27.31-7.51-21.22-4.06-45.08 6-64.86 6.63-14.49 16.85-26.86 26.98-39 1.94-2.25 3.3-5.04 3.16-8.07.13-6.97-.11-13.95-.18-20.93z" fill="#fb0002"/><path d="m346.62 208.67c7.57-6.68 16.81-13.25 27.41-12.56 10.68-.03 20.86 7.5 24.02 17.69-5.13 6.64-10.74 12.92-15.35 19.95-12.12 18.64-20.77 40.7-18.8 63.27.05 2.89.92 6.26-1.14 8.7-5.79 7.46-12.28 14.52-20.21 19.76-2.63 1.82-5.63 3.2-7.79 5.61 3.35 10.88 10.64 21.25 21.33 25.92 4.9 2.04 11.32 2.4 15.47-1.43 4.08-3.69 7.32-8.18 10.95-12.29 2.65 3.39 5.98 7.01 5.36 11.68-.79 13.5-4.18 27.44-12.69 38.25-4.94 6.66-12.2 11.87-20.47 13.3-9.01 1.48-18.22-2.38-24.64-8.62-9.46-9.35-13.71-22.39-16.79-35-2.97-13.74-4.46-27.84-4-41.9-.53-23.69 2.14-47.8 10.83-69.99 5.94-15.66 14.78-30.34 26.51-42.34m.12 40.12c-10.49 10.78-15.81 25.6-17.79 40.28-.42 8.81-1 17.8 1.03 26.47 11.11-9.02 19.82-20.81 26.02-33.66 5.54-11.07 10.5-22.73 12.07-35.1.75-3.55-1.54-9.11-5.9-7.91-6.27 1.02-11.2 5.49-15.43 9.92z" fill="#fb0002"/><path d="m698.05 339.21c.61.04 1.81.13 2.41.17 1.38 3.48 2.55 7.2 5.07 10.07 2.07 2.33 5.14 3.37 8.11 4.04 5.51 1.24 11.22 1.65 16.62 3.43 8.74 2.74 16.27 9 20.81 16.93 3.13 5.39 3.97 12.47.75 18.02-3.97 6.8-10.26 11.95-16.93 15.97-8.15 4.8-16.83 9.08-26.23 10.64-6.97 1.32-13.82-2.75-17.95-8.12-4.77-6.43-4.48-15.09-2.66-22.5 1.96-8.55 8.66-15.22 9.92-24 1.61-8.21-1.87-16.47.08-24.65z" fill="#fb0002"/></svg>