<svg height="112" viewBox="0 0 112 112" width="112" xmlns="http://www.w3.org/2000/svg"><path d="m17.91 112c-1.91-2.52-4.61-6.111-2.24-9.211 3.38-4.28 9.099-5.288 14.109-6.408-.1-.35-.3-1.031-.41-1.371-2.54-.53-5.099-1.059-7.509-2.049 2.6-3.4 5.651-6.432 8.361-9.762 1.64-1.8 3.799-4.398 6.549-3.238 4.89 1.58 9.979 3.109 15.179 2.129-4.35 2.97-10.398 2.03-14.148 6.06 4.44 2.15 8.449 5.41 13.309 6.58 5.37.06 9.85-3.56 14.89-4.97 5.23-1.49 9.82-4.55 13.5-8.52-.75-1.28-1.49-2.56-2.24-3.84 2.39-.16 4.78-.25 7.18-.41-.86.51-1.709 1.04-2.539 1.58 3.25 1.51 6.578 3.03 9.298 5.42-3.25 3.17-8.049 3.45-11.959 5.42-5.74 2.47-10.019 7.431-15.839 9.731-5.09 1-10.34.459-15.5.529-4.88.31-8.681-3.13-12.581-5.5-.19.31-.57.94-.75 1.25 1.08 2.23 3.77 4.59 2.42 7.23-1.85 3.64-4.81 6.56-7.73 9.35h-2.07c3.9-3.06 7.13-7.07 8.13-12.02-4.89 1.83-9.719 3.901-14.849 4.981-.31 2.35-.661 4.689-.951 7.039zm-8.343-19.697c-3.246-.026-6.915-1.903-7.108-5.403-.67-8.45.791-17.01-.869-25.4 1.54-1.4 2.999-2.969 4.869-3.939 5.92-.59 11.9-.091 17.83-.051-.42.01-1.25.019-1.67.029-5.75.03-12.079-.428-17.039 3.022-2.1 1.28-2.339 3.929-3.109 6.039 2.57.38 5.129.71 7.699 1.06-3.11 3.97-8.489 7.591-7.519 13.301.25 2.52 1.919 6.54 5.039 5.75 4.58-1.02 9.711-2.391 12.291-6.691 4.35-5.14 6.639-11.509 8.189-17.969 1.13 1 2.249 2.009 3.369 3.029.81-3.89 2.142-7.761 5.112-10.541-.9 2.65-2.082 5.39-1.782 8.24 2.37 4.25 7.38 6.511 12.08 6.891 7.42.52 15.39.121 21.93-3.789 3.76-3.76 5.321-11.661.291-15.051-4.91-3.37-11.149-3.971-16.939-3.471-5.02.43-9.141 3.631-13.801 5.221-.4.03-1.2.089-1.6.119 5.7-3.29 11.57-6.439 17.86-8.449 5.27 2.12 11.281 2.71 15.961 6.07 3.31 3.74 6.229 8.059 7.849 12.799-.9 2.47-2.47 4.62-3.73 6.91 2.46-.91 6.4-1.029 6.89-4.299.98-5.76-1.171-11.97-5.381-16-4.96-3.83-12.869-3.149-16.359-9.009-1.57-4.27 2.989-7.25 5.109-10.34-2.94.4-5.85 1.18-8.83 1.26-3.37-1.65-5.589-4.891-8.209-7.481 2.55-1.53 4.801-3.63 4.741-6.83-2.94 1.03-5.981 3.18-9.221 2.24-3.37-1.32-3.15-5.499-3.93-8.429 1.6 2.16 3.11 4.389 4.61 6.619.59-.06 1.749-.18 2.339-.24.43-2.57.871-5.139 1.301-7.719 2.09.67 5.15.599 5.83 3.199 1.44 4.08 2.939 8.27 6.219 11.27-2.65-.8-5.36-1.38-8.1-1.76 1.87 2.37 3.471 5.46 6.551 6.4 2.76.7 5.61.909 8.43 1.279-.87 2.7-2.461 5.452-1.881 8.372 4.86 2.92 10.651 4.64 14.311 9.25 3.7 3.73 3.451 9.358 3.611 14.228-.21 2.31.379 5.35-1.791 6.91-2.65 2.09-5.529 3.861-8.459 5.531-5.32 3.1-11.821 2.72-17.231 5.62-.23-.65-.701-1.94-.941-2.58-6.42-.07-12.839-1.44-18.629-4.25-2.05-1.17-2.731-3.63-3.881-5.54-.35-.16-1.06-.461-1.41-.611-.59 4.4-.818 9.072-3.238 12.942-3.59 5.89-9.421 10.808-16.301 12.138-.435.073-.89.107-1.353.104zm95.343-7.739c-1.592.02-3.165-.164-4.65-.834-4.75-1.99-9.051-4.901-13.811-6.871-.34-3.08-.839-6.148-1.289-9.218 2.51 1.7 4.86 3.87 7.86 4.66 3.38.7 4.68-3.161 5.83-5.571 1.97-4.41-1.271-8.73-3.071-12.58-3.19-6.84-10.29-10.61-13.82-17.22 5.68 4.66 10.771 9.97 15.961 15.16 4.59 4.36 7.4 10.59 6.66 16.99.19 4.04-2.849 6.969-5.279 9.779.63.33 1.259.67 1.889 1.01 1.61 1.75 3.79 2.601 6.16 2.621-.31-2.66-.731-5.301-1.481-7.871 3.01-7.11.481-14.809-2.039-21.629-.76-1.96-1.83-3.839-3.48-5.189-4.59-3.87-9.57-7.272-14.26-11.012 7.09 1.41 12.31 6.701 18.26 10.371.05-2.73.8-5.68-.34-8.26-2.32-3.56-5.6-6.36-8.76-9.14 9.29 3.11 13.039 13.291 14.029 22.201.4 10.73.241 21.469.401 32.209-1.565.15-3.177.374-4.77.394zm-74.242-54.738c-1.592.025-3.226-.43-3.267-2.156-.56-1.47.67-3.139 2.24-2.949 3.56.19 6.468-1.671 8.898-4.071 2.55-2.29 4.46 1.621 6.17 3.071-4.1 1.77-7.889 4.209-12.049 5.849-.553.135-1.268.245-1.992.256zm-7.777-14.826c-.51-4.11-.781-8.229-1.051-12.359-.39.12-1.17.37-1.57.5-.41.14-1.231.408-1.641.548-.7.99-1.349 2.021-1.949 3.081.37-1.21.72-2.429 1.07-3.639 1.76-.94 3.45-1.991 5.09-3.131h.51c-.18 1.8-.349 3.591-.459 5.391-.09 2.25-.062 4.5-.012 6.75.69-1.07 1.381-2.141 2.041-3.231.01.69.029 2.07.029 2.76 1.5-.43 2.991-.88 4.481-1.32.11 1.41.22 2.82.33 4.23-2.29.14-4.579.28-6.869.42z" fill="#007229"/><path d="m73.89 37.64c1.2.15 2.59-.05 3.54.88 5.12 4.15 11.43 7.15 14.94 12.98.3 1.26-.22 2.55-.34 3.82-2.67-1.71-5.07-3.8-7.22-6.13-3.62-3.87-7.72-7.3-10.92-11.55zm-23.27 15.08c3.83-.99 7.86-.44 11.76-.27-2.74 5.47-9.49 7.79-15.29 7.24.15-2.68.69-5.86 3.53-6.97zm-40.58 7.51c2.99-1.47 6.51-1.1 9.71-.72 2.8.25 4.23 2.87 5.55 5.01-5.06-.13-13.53 2.47-15.26-4.29z" fill="#ff1541"/><path d="m19.521 112c.29-2.35.639-4.689.949-7.039 5.13-1.08 9.96-3.151 14.85-4.981-1 4.95-4.229 8.96-8.129 12.02zm31.59-17.27c-4.86-1.17-8.871-4.43-13.311-6.58 3.75-4.03 9.8-3.09 14.15-6.06 1.14-.64 2.24-1.34 3.37-1.99 5.41-2.9 11.91-2.52 17.23-5.62 2.93-1.67 5.809-3.441 8.459-5.531 2.17-1.56 1.581-4.6 1.791-6.91-.16-4.87.091-10.498-3.609-14.228-3.66-4.61-9.451-6.33-14.311-9.25-.58-2.92 1.009-5.672 1.879-8.372-2.82-.37-5.67-.579-8.43-1.279-3.08-.94-4.678-4.03-6.548-6.4 2.74.38 5.449.96 8.099 1.76-3.28-3-4.781-7.19-6.221-11.27-.68-2.6-3.74-2.529-5.83-3.199-.43 2.58-.868 5.149-1.298 7.719-.59.06-1.75.18-2.34.24-1.5-2.23-3.012-4.459-4.612-6.619-2.63-5.24-9.119-3.68-13.869-3.51-.2.32-.591.959-.791 1.279-.66 1.09-1.349 2.161-2.039 3.231-.05-2.25-.08-4.5.01-6.75.11-1.8.281-3.591.461-5.391h14.76.769c4.99 4.49 12.041 5.591 17.051 9.971 1.83 2.11 3.619 4.379 6.199 5.609 5.85 2.87 10.66 7.66 17.01 9.52 5.25 1.98 10.859 2.71 16.109 4.66 3.16 2.78 6.44 5.58 8.76 9.14 1.14 2.58.392 5.53.342 8.26-5.95-3.67-11.172-8.961-18.262-10.371-2.23-1.79-4.528-3.479-6.978-4.949.88 1.73 1.789 3.46 2.849 5.09 3.53 6.61 10.631 10.38 13.821 17.22 1.8 3.85 5.04 8.17 3.07 12.58-1.15 2.41-2.45 6.271-5.83 5.571-3-.79-5.352-2.96-7.862-4.66.45 3.07.951 6.138 1.291 9.218-.5.04-1.509.101-2.009.131-2.4.16-4.792.25-7.182.41.75 1.28 1.49 2.56 2.24 3.84-3.68 3.97-8.27 7.03-13.5 8.52-5.04 1.41-9.518 5.03-14.888 4.97zm-44.26-7.919c-2.581-.052-3.975-3.566-4.201-5.85-.97-5.71 4.409-9.331 7.519-13.301-2.57-.35-5.129-.68-7.699-1.06.77-2.11 1.009-4.759 3.109-6.039 4.96-3.45 11.291-2.992 17.041-3.022 1.92 1.42 3.759 2.932 5.549 4.512-1.55 6.46-3.839 12.829-8.189 17.969-2.58 4.3-7.709 5.671-12.289 6.691-.293.074-.573.105-.84.1zm100.5-4.321c-2.37-.02-4.55-.871-6.16-2.621 1.55-1.75 3.149-3.47 4.679-5.25.75 2.57 1.171 5.211 1.481 7.871zm-55.473-12.638c-1.655.001-3.304-.068-4.928-.182-4.7-.38-9.71-2.641-12.08-6.891-.3-2.85.88-5.59 1.78-8.24.44-.49 1.331-1.469 1.781-1.959 4.66-1.59 8.779-4.791 13.799-5.221 5.79-.5 12.029.101 16.939 3.471 5.03 3.39 3.471 11.291-.289 15.051-5.109 3.055-11.091 3.966-17.002 3.971zm-34.328-4.948c2.669.025 5.536-.441 7.75-.384-1.32-2.14-2.751-4.76-5.551-5.01-3.2-.38-6.719-.75-9.709.72.973 3.803 4.078 4.643 7.51 4.674zm31.191-5.134c5.379.008 11.156-2.364 13.639-7.321-3.9-.17-7.93-.718-11.76.272-2.84 1.11-3.381 4.288-3.531 6.968.544.052 1.096.08 1.652.081zm43.29-4.45c.12-1.27.639-2.56.339-3.82-3.51-5.83-9.819-8.831-14.939-12.98-.95-.93-2.341-.729-3.541-.879 3.2 4.25 7.3 7.678 10.92 11.548 2.15 2.33 4.551 4.421 7.221 6.131zm-70.272-30.513c-.377.005-.755-.004-1.129-.018-.75-2.37-1.55-4.719-2.4-7.059 1.84-.03 3.741-.439 5.541.081 1.42 1 2.669 2.209 3.969 3.349-.762 2.993-3.344 3.612-5.981 3.647zm8.213-.075c-.11-.002-.221-.005-.332-.011.27-2.07.591-4.131.891-6.201 1.99-.8 3.988-1.601 5.978-2.401.67 1.51 1.341 3.031 2.031 4.531-2.354 2.325-5.159 4.144-8.568 4.082zm-10.352-9.912c-.48-.08-1.43-.259-1.91-.349-.42-2.28-.891-4.55-1.301-6.84l.272-.861c.6-1.06 1.249-2.091 1.949-3.081.41-.14 1.231-.408 1.641-.548-.02 3.9-.361 7.789-.651 11.679zm6.631-10.433c.563-.159 1.126-.311 1.692-.459-.566.148-1.129.3-1.692.459zm6.823-1.623c.861-.163 1.726-.308 2.595-.434-.869.126-1.734.271-2.595.434z" fill="#eee"/><path d="m13.08 112c-3.03-3.23-6.351-6.32-8.461-10.27-1.5-2.74-2.999-5.48-4.619-8.15v-30.551c.4-.38 1.19-1.149 1.59-1.529 1.66 8.39.201 16.95.871 25.4.22 4 4.979 5.879 8.459 5.299 6.88-1.33 12.711-6.248 16.301-12.138 2.42-3.87 2.65-8.542 3.24-12.942.35.15 1.058.451 1.408.611 1.15 1.91 1.831 4.37 3.881 5.54 5.79 2.81 12.211 4.18 18.631 4.25.24.64.709 1.93.939 2.58-1.13.65-2.231 1.35-3.371 1.99-5.2.98-10.289-.549-15.179-2.129-2.75-1.16-4.909 1.438-6.549 3.238-2.71 3.33-5.762 6.362-8.362 9.762 2.41.99 4.97 1.519 7.51 2.049.11.34.31 1.021.41 1.371-5.01 1.12-10.729 2.128-14.109 6.408-2.37 3.1.33 6.691 2.24 9.211zm16.18 0c2.92-2.79 5.88-5.71 7.73-9.35 1.35-2.64-1.34-5-2.42-7.23.18-.31.56-.94.75-1.25 3.9 2.37 7.7 5.81 12.58 5.5 5.16-.07 10.41.471 15.5-.529 5.82-2.3 10.1-7.261 15.84-9.731 3.91-1.97 8.709-2.25 11.959-5.42-2.72-2.39-6.049-3.91-9.299-5.42.83-.54 1.679-1.07 2.539-1.58.5-.03 1.51-.091 2.01-.131 4.76 1.97 9.061 4.881 13.811 6.871 2.97 1.34 6.29.74 9.42.44-.16-10.74-.001-21.479-.401-32.209-.99-8.91-4.739-19.091-14.029-22.201-5.25-1.95-10.859-2.68-16.109-4.66-6.35-1.86-11.16-6.65-17.01-9.52-2.58-1.23-4.371-3.499-6.201-5.609 2.72 2.51 5.911 4.418 9.211 6.058 4.43 2.11 7.928 5.76 12.558 7.5 4.58 1.72 9.271 3.241 14.121 3.971 5.99 1.11 10.81 5.349 14.34 10.109 3.18 6.26 3.85 13.34 3.36 20.26.62.62 1.86 1.87 2.48 2.49v24.231c-2.46 1.33-4.98 2.95-7.9 2.74-4.35.28-9.129-.919-13.049 1.551-5.42 2.97-11.03 5.579-16.5 8.449-3.44 1.72-5.542 5.26-8.932 6.99-7.82.73-15.729-.331-23.549.379-3.38 1.39-5.37 4.871-7.99 7.301zm71.929-32.131c-.63-.34-1.258-.68-1.888-1.01 2.43-2.81 5.469-5.739 5.279-9.779.74-6.4-2.07-12.63-6.66-16.99-5.19-5.19-10.279-10.5-15.959-15.16-1.06-1.63-1.972-3.36-2.852-5.09 2.45 1.47 4.751 3.159 6.981 4.949 4.69 3.74 9.67 7.142 14.26 11.012 1.65 1.35 2.72 3.229 3.48 5.189 2.52 6.82 5.049 14.519 2.039 21.629-1.53 1.78-3.13 3.5-4.68 5.25zm-26.419-9.84c1.26-2.29 2.83-4.44 3.73-6.91-1.62-4.74-4.54-9.059-7.85-12.799-4.68-3.36-10.691-3.95-15.961-6.07-.12-2.85.301-5.82-.539-8.58-2.32-3.18-5.171-6.1-8.461-8.27-4.95.37-8.569 5.219-13.679 5.129-3.82.32-5.78-3.899-9.17-4.849-1.55-.38-3.129-.609-4.709-.879-3.05-5.86-4.071-12.88-1.721-19.17.41 2.29.881 4.56 1.301 6.84.48.09 1.428.269 1.908.349.29-3.89.631-7.779.651-11.679.4-.13 1.18-.38 1.57-.5.27 4.13.541 8.249 1.051 12.359 2.29-.14 4.579-.28 6.869-.42-.11-1.41-.22-2.82-.33-4.23-1.49.44-2.981.89-4.481 1.32 0-.69-.019-2.07-.029-2.76.2-.32.591-.959.791-1.279 4.75-.17 11.239-1.73 13.869 3.51.78 2.93.56 7.109 3.93 8.429 3.24.94 6.28-1.21 9.22-2.24.06 3.2-2.19 5.3-4.74 6.83 2.62 2.59 4.839 5.831 8.209 7.481 2.98-.08 5.89-.86 8.83-1.26-2.12 3.09-6.679 6.07-5.109 10.34 3.49 5.86 11.399 5.179 16.359 9.009 4.21 4.03 6.361 10.24 5.381 16-.49 3.27-4.43 3.389-6.89 4.299zm-43.231-4.949c-1.12-1.02-2.239-2.029-3.369-3.029-1.79-1.58-3.631-3.092-5.551-4.512.42-.01 1.25-.019 1.67-.029 1.86-.04 3.731 0 5.551-.41 2.52-1.14 4.53-3.131 6.99-4.401l1.6-.119c-.45.49-1.34 1.469-1.78 1.959-2.97 2.78-4.301 6.651-5.111 10.541zm-.871-35.254c.724-.011 1.439-.121 1.992-.256 4.16-1.64 7.951-4.079 12.051-5.849-1.71-1.45-3.622-5.361-6.172-3.071-.69-1.5-1.359-3.021-2.029-4.531-1.99.8-3.991 1.601-5.981 2.401-.3 2.07-.618 4.131-.888 6.201-1.57-.19-2.801 1.479-2.241 2.949.042 1.726 1.676 2.181 3.268 2.156zm-8.91-5.019c2.637-.035 5.221-.654 5.982-3.647-1.3-1.14-2.55-2.349-3.97-3.349-1.8-.52-3.7-.111-5.54-.081.85 2.34 1.651 4.689 2.401 7.059.374.014.75.023 1.127.018z" fill="#141414"/></svg>