<svg height="1382.851" width="1014.279" xmlns="http://www.w3.org/2000/svg"><g transform="translate(94.282478 164.77744)"><rect fill="#f00" height="1382.851" rx="120" width="1014.279" x="-94.282" y="-164.777"/><rect fill="#fff" height="1343.28" rx="104.378" ry="98.383" width="967.622" x="-70.954" y="-144.155"/><path d="m458.39286 465.3979 67.32143 165.53571 25.71428-37.14286 54.28572-21.42857 8.57142-32.85714-17.14285-51.42857-32.85715-2.85714-2.85714-47.14286c-38.16763-3.44003-75.93394-9.81334-103.03571 27.32143z" fill="#f00"/><path d="m294.28571 86.647896 214.28572 532.857144-55.71429 2.85714-12.85714-52.85714-7.14286-90c-37.53582-10.11326-62.45851-1.30682-77.14285 22.85714-5.31541 21.37703-.19698 49.70996 5.71428 78.57143l-8.57143 20-361.4285686-668.571428c73.9541446 3.568064 147.1730586 5.832771 302.8571386 154.285714z" fill="#f00"/><path d="m242.84375-62.8125 36.75 90.03125 156.78125 46.3125c38.535 1.683534 89.30325-1.297002 125.28125 110.09375 54.17154 7.71836 109.1879 30.35316 168.6875 131.3125-40.86815-143.04866-112.35761-176.42361-184.875-206.0625-130.11076-175.497976-231.93004-165.031377-302.625-171.6875zm293.5625 315.125-50.53125 23.25c69.2625.008 128.94776 14.13657 147.5 88.875 65.98108 14.68866 115.43943 51.0641 138.375 122.25-6.38067-63.9417-21.9615-125.19479-73.75-175.78125-68.57272-63.62337-110.04523-46.04298-161.59375-58.59375zm-5.0625 103.65625c-24.48694-.17596-49.09037 5.10877-73.75 12.53125l-4.90625 82.40625 6.96875 17.03125c54.3465-16.93258 105.9151-26.92467 170.6875 13.6875l37.375 104.03125 91.90625 76.78125 21.21875-84.84375 14.15625-22.21875c-27.89384-74.14029-73.25756-103.71237-125.28125-116.1875-45.32966-62.73369-91.62721-82.88283-138.375-83.21875z" fill="#00f"/><path d="m243.96875-60.0625 212.5625 520.34375c11.99798-104.36204 28.92915-204.39516 162.6875-201.90625-76.73599-123.26911-173.21884-239.543767-375.25-318.4375z" fill="#f00"/><path d="m180.71875 353.0625 1.4375 94.3125-11.4375 7.84375-1.4375 8.5625v28.59375l-13.5625-1.4375-24.28125-75.71875-5-19.28125-9.28125 6.4375 9.28125 35.6875 20.71875 57.15625-10 15.71875-1.4375 15.71875-1.4375 5.71875 12.15625 32.125 11.40625 27.875-2.84375 17.84375-12.15625 2.84375-12.84375-48.5625 15-2.125-10.71875-29.3125-7.84375 2.875-16.4375 1.4375-7.84375 10.6875-10-36.40625-8.59375-.71875 1.4375 9.28125 8.5625 38.5625-5 5v.71875 32.15625s15.72321 21.42411 16.4375 24.28125-4.28125 12.125-4.28125 12.125l-13.5625-15 .6875-21.40625.71875-32.15625-6.40625-10-2.875-27.125-7.125-2.875-5.71875-31.4375-2.875-18.5625-2.125-40.71875-9.28125-1.40625-.71875 33.5625 4.28125 16.4375 3.5625 42.84375-6.4375 7.84375 1.4375 42.875 4.28125 27.84375v28.59375l-12.125-41.4375-12.15625-42.875-23.223214-58.5625-24.629465-39.625c-13.933614-5.34609-27.019848-6.9333-37.147321-1.8125l40.71875 81.4375 32.84375 61.4375 6.4375 44.28125.71875 33.5625-6.4375-.71875-4.28125-28.5625-4.28125-12.84375-5-22.15625-14.28125-26.4375-8.5625-4.28125-14.3125-64.28125h-6.40625l15.71875 65-6.4375 2.15625-6.4375 10.71875 5.71875 5.6875v12.15625l-12.15625-8.5625-5.6875-70-10.71875-.71875 7.84375 66.4375-15 35-10.25 16.90625-2.020305 440.64525c-.329923 71.9589 38.450468 114.1609 116.520305 114.1985l740.79911.3571c88.02296.043 114.78841-55.5536 114.46875-116.2188l-2.14286-406.66955-2.375 2.90625-14.28125 8.5625-3.5625-6.40625 11.40625-12.15625 8.59375-6.4375.21875-3v-54.34375l-10.21875 3.0625-7.875 17.875-13.5625 16.40625-14.28125 20.71875-.71875 9.28125-12.15625 5s5.72321-11.4241 6.4375-14.28125c.71428-2.85714 6.4375-2.125 6.4375-2.125l10.71875-16.4375-5-6.4375 7.84375-11.40625 20-36.4375 11.4375 2.125-3.5625-12.84375-12.15625-4.28125 2.84375-11.4375 13.8125-18.21875v-7.125l-3.09375-7.5-18.5625 20.71875-8.5625 11.40625s-12.14285-11.41518-15-12.84375c-2.85714-1.42857-15 14.28125-15 14.28125l13.5625 17.15625-12.15625 22.84375-4.28125 3.5625-1.40625-16.40625-7.15625-10-1.4375-39.3125-7.125-.6875v20l-3.59375 17.84375-7.125 2.84375-3.5625 35.71875s-2.16518 32.14732-3.59375 35.71875-9.28125 5-9.28125 5l-9.28125-13.5625v-12.875-12.125l15.71875-45.71875 22.84375-47.15625 27.875-42.125 18.5625-22.875-12.84375-17.125-20 7.84375-25 21.4375s-6.44196 17.86607-7.15625 21.4375c-.71428 3.57142-21.4375 44.98661-21.4375 47.84375s-16.40625 37.875-16.40625 37.875l-11.4375 43.5625-10.71875-10.71875s-.71875-19.29911-.71875-22.15625c0-2.85715 7.15625-34.28125 7.15625-34.28125l4.28125-63.5625-5-12.84375 9.28125-45.71875 7.15625-20.71875-9.3125-3.5625-5.6875 20-8.59375 50-7.84375.6875-2.875 22.15625-2.84375 28.5625-7.15625 25-9.28125-.71875 2.875-23.5625s3.55357-29.27679 2.125-33.5625l-4.28125-12.875s3.5625-27.83483 3.5625-31.40625c0-3.57143 7.15625-21.4375 7.15625-21.4375l-7.15625-.71875-10 34.28125-5 23.59375-13.5625 10-5 22.125-6.4375 42.15625s-2.85268-11.42411-4.28125-14.28125-5-22.14733-5-25.71875c0-3.57143-9.29018-33.58035-10.71875-36.4375-1.42857-2.85714-7.125-16.4375-7.125-16.4375l-6.4375-15.71875s-7.84375-22.83483-7.84375-26.40625c0-3.57143-.71875-17.875-.71875-17.875l-16.4375-.71875-2.125 15 11.40625 28.59375 1.4375 19.28125-2.84375 18.5625 11.40625 46.4375 5 39.28125-10 2.15625s-.71875 19.27232-.71875 22.84375c0 3.57142 10.71875.71875 10.71875.71875s4.28125 4.27233 4.28125 7.84375c0 3.57143-1.40625 16.4375-1.40625 16.4375l-10.71875-16.4375s-7.14286.004-10 .71875c-2.85715.71429-3.5625-10-3.5625-10s8.42245 2.6425 10.52679.71429c.81165-1.0246 1.05357-23.03125 1.05357-23.03125l-9.44197-5.36161-38.56696 18.40178-5.72768 17.83929-12.84375 7.875.6875 11.4375-7.125 10s-10.73214-17.16071-12.875-22.875c-2.14285-5.71429 12.875-6.4375 12.875-6.4375l10.71875-17.84375h14.28125l38.38839-18.37946-9.10714-28.05804s-8.57143.0178-15 2.875c-6.42857 2.85714-10.71875-6.4375-10.71875-6.4375l.71875-16.4375-.71875-18.5625-8.5625-14.28125s4.98661-2.875 7.84375-2.875 18.59375 7.875 18.59375 7.875l-2.15625-13.5625-15-12.15625-19.28125 1.4375s-1.4375-17.16518-1.4375-23.59375-6.4375-2.84375-6.4375-2.84375l-.6875 26.4375-10 6.40625.6875 37.15625s.0268 30-.6875 35c-.71429 5-6.44196 17.15178-7.15625 21.4375-.71429 4.28571-5.71875 25.71875-5.71875 25.71875h-17.84375l-2.875-11.4375-1.40625-22.875 2.125-32.125s7.85268-24.29017 9.28125-30.71875c1.42857-6.42857-1.40625-22.84375-1.40625-22.84375l-12.875-17.875 4.28125-50 2.875-31.4375-12.15625-3.5625.71875 30-5 55-8.5625 7.15625s.71875 32.14732.71875 35.71875-7.875 47.84375-7.875 47.84375l-2.84375 35-10.71875 17.84375-11.4375-2.125 7.15625-10.71875s-4.29018-28.56696-5.71875-34.28125c-1.42858-5.71429-10-22.875-10-22.875l-11.4375-12.84375-5-50-2.125-33.5625-11.4375 2.84375 6.4375 45 5 37.875-9.3125 5.6875 1.4375 10.71875 3.5625 20 3.59375 25 4.28125 72.15625-9.28125 2.125-10-5.6875-.71875-12.15625-14.28125-12.15625.71875-14.28125-10-15.71875h-12.875l-4.28125-9.28125 20.71875-15-5.71875-16.40625 3.5625-10.71875 11.4375 10 10-7.875.71875-12.125-4.28125-12.15625-12.875-7.125 2.15625-6.4375 10-15.71875-5.71875-6.4375-22.84375 30.71875h-8.59375l-2.125 8.5625-9.28125 12.15625-.71875 7.84375-9.28125 11.4375-35 61.4375 6.40625 3.5625 16.4375 10 5.71875-2.84375-.71875 7.125-11.4375 10.71875-14.28125-5.71875-6.4375-18.5625v-21.4375l3.59375-55.71875-.71875-38.5625-11.4375-12.84375 7.15625-72.15625-12.875-1.4375-.71875 72.15625-13.5625 4.28125s-6.4375 33.58036-6.4375 36.4375.71875 44.28125.71875 44.28125l-18.5625 6.4375-9.28125 7.125v-10l.71875-37.84375 2.125-33.5625-7.125-18.59375-10-10.71875-.71875-80.6875-11.4375-2.15625v79.28125l-10.71875 9.28125.71875 50.71875-3.5625 12.875-6.4375-1.4375-5-22.875 1.4375-31.40625.71875-30.71875-2.875-14.28125-7.125-8.59375 2.125-93.5625z"/><path d="m440 138.07647-10 32.85714-33.57143 5 42.85714 27.14286 1.42858 35 27.85714-18.57143 38.57143 8.57143-16.42857-29.28572 15.71428-20-35-8.57143z" fill="#fff"/><path d="m649.65625 706.53125c-40.77056 2.20475-81.86367-1.67056-122.5625 2.125-8.09141 2.50637-15.1055 8.05198-19.875 15-9.45604-13.94406-27.74086-19.05296-43.874-16.54744-38.63217.88978-77.49133-2.04402-115.96975 1.76619-9.48449 3.09059-16.82725 10.64005-21.625 19.15625-10.35322-15.95476-30.10381-23.3472-48.6556-21.22427-44.17545.57747-88.35479-.046-132.5319.16177v385.65625h77.5625c0-23.6562 0-47.3125 0-70.9688 27.071-.6983 54.74161 2.9226 81.375-2.75 7.1793-2.7307 13.59604-7.4695 18.5-13.3437.51741 20.5628-1.34493 41.4665 1.8125 61.8125 6.45225 19.0029 28.50301 28.8876 47.68733 25.1067 39.0008-.8136 78.21952 2.2429 117.06267-1.8879 7.81515-2.1979 13.84-9.1044 18.5625-14.4063 9.88461 14.1541 28.57861 19.1848 45.06218 16.2768 38.23596-.7232 76.71866 2.1852 114.78157-1.8393 18.63961-6.1428 28.71102-27.4642 25.34375-46.25 0-35.6146 0-71.22917 0-106.84375-24.6875 0-49.375 0-74.0625 0-3.1806 22.0934 3.53968 45.2406-3.59375 66.62495-8.83929 13.7906-35.15881 11.5304-38.53125-5.5937-2.83188-14.31877.57934-29.08712-.76548-43.59373.31638-52.17419-1.38276-104.46954 1.20298-156.56252 7.07044-16.48943 37.19341-15.49153 40.625 3.15625 1.50435 13.70321-.0603 27.7043.47872 41.5312-.0615 6.34451.0698 12.68809.17753 19.0313h74.625c-1.47847-43.11535 2.23087-86.4866-2.03125-129.4375-5.35637-16.88611-23.53738-27.04271-40.78125-26.15625zm-408.59375 77.5625c8.45704-.59146 17.86392 5.72745 16.98295 14.99705.54013 17.44074-.6081 34.89366.006 52.3466.007 28.41443 1.28182 57.11993-1.3326 85.34385-5.16382 9.32216-17.68398 8.60083-26.71875 7.28125-2.68713.0897-5.24904 1.0657-7.875.53125 0-53.33333 0-106.66667 0-160 6.31365-.12443 12.62828-.21975 18.9375-.5zm176.8125 2.65625c12.20694-1.0456 23.9296 10.80823 21.00488 23.03124.093 17.44784-.14913 34.89705.15137 52.34376h61.625c-.0208 25.13542-.0417 50.27083-.0625 75.40625-20.38542 0-40.77083 0-61.15625 0-3.1806 22.0934 3.53968 45.2406-3.59375 66.62495-8.83929 13.7906-35.15881 11.5304-38.53125-5.5937-2.82379-14.31873.56071-29.08721-.7498-43.59365.3648-52.30889-1.52416-104.74632 1.28105-156.96885 3.32503-7.67366 12.22522-11.12307 20.03125-11.25z" fill="#fff"/><path d="m156.5625 718.96875v361.65625h53.5625v-70.7812h76.71875c19.02723 0 34.34375-15.31657 34.34375-34.3438v-222.125c0-19.02723-15.31652-34.34375-34.34375-34.34375h-76.71875v-.0625zm202.96875.125c-14.24571 0-25.6875 11.44179-25.6875 25.6875v310.09375c0 14.2457 11.44179 25.6875 25.6875 25.6875h116.28125c14.24571 0 25.6875-11.4418 25.6875-25.6875v-105.34375h-50.625v44.53125c0 17.2754-14.79292 31.1875-33.1875 31.1875s-33.21875-13.9121-33.21875-31.1875v-44.53125-99.40625-44.53125c0-17.27538 14.82417-31.1875 33.21875-31.1875s33.1875 13.91212 33.1875 31.1875v44.53125h50.625v-105.34375c0-14.24571-11.44179-25.6875-25.6875-25.6875zm178.8125 0c-14.24571 0-25.6875 11.44179-25.6875 25.6875v310.09375c0 14.2457 11.44179 25.6875 25.6875 25.6875h116.28125c14.24571 0 25.6875-11.4418 25.6875-25.6875v-105.34375h-50.625v44.53125c0 17.2754-14.79292 31.1875-33.1875 31.1875s-33.21875-13.9121-33.21875-31.1875v-44.53125-99.40625-44.53125c0-17.27538 14.82417-31.1875 33.21875-31.1875s33.1875 13.91212 33.1875 31.1875v44.53125h50.625v-105.34375c0-14.24571-11.44179-25.6875-25.6875-25.6875zm-325.90625 53.40625h31.71875c14.4039 0 26 11.5961 26 26v131.875c0 14.4039-11.5961 26-26 26h-31.71875c-.78219 0-1.54828-.0268-2.3125-.0937v-183.6875c.76422-.067 1.53031-.0937 2.3125-.0937z" fill="#f00"/></g></svg>