<svg height="62" viewBox="0 0 72 62" width="72" xmlns="http://www.w3.org/2000/svg"><path d="m71.980766 54.004272c0 4.415642-3.580085 7.995728-7.995723 7.995728h-55.970086c-4.41564 0-7.995726-3.580086-7.995726-7.995728v-7.995727h71.961535z" fill="#ce2028"/><path d="m.019231 26.01923h71.961535v19.989315h-71.961535z" fill="#22408c"/><path d="m63.985043 10.027779h-55.970086c-4.41564 0-7.995726 3.580085-7.995726 7.995727v7.995724h71.961535v-7.995724c0-4.415642-3.580085-7.995727-7.995723-7.995727z" fill="#eee"/><path d="m72 20.054001c0-2.176003-.387001-4.263001-1.098-6.194-.485 5.688999-3.517997 8.611-6.687004 7.25-2.968998-1.275002-.967994-6.246003-.819996-8.618.249001-4.021-.013-8.623002-7.317001-12.450001 3.035 5.806.352001 9.413002-2.462997 9.632999-3.122002.243-5.982003-2.683998-4.926003-7.433998-3.417999 2.519001-3.517998 6.758-2.462997 9.5 1.099998 2.858997-.044003 5.233997-2.727001 5.497997-2.998002.296002-4.663002-3.209999-3.126999-8.795997-2.659001 3.129997-4.263001 7.182998-4.263001 11.611 0 9.911999 8.034001 17.945999 17.945 17.945999 9.911999 0 17.945999-8.034 17.945999-17.945999z" fill="#f4900c"/><path d="m65.027 25.332001c.155999 3.254997-2.703998 4.530998-4.243 3.915001-2.222999-.89-1.626999-2.419003-2.199001-5.584999-.571999-3.167-2.771-5.366005-6.024998-6.334004 2.375 6.685001-1.317001 9.148998-3.252002 9.589001-1.975998.450001-3.960999-.001-4.188-4.23-2.306 2.295002-3.732998 5.469998-3.732998 8.979 0 .389.023998.771.057999 1.151001 3.241001 3.202999 7.692001 5.182999 12.609001 5.182999 4.917999 0 9.368999-1.98 12.61-5.182999.033997-.380001.057999-.762001.057999-1.151001 0-2.307998-.616997-4.471-1.695-6.333999z" fill="#ffcc4d"/></svg>