<svg height="597.626" viewBox="0 0 1783 597.626" width="1783" xmlns="http://www.w3.org/2000/svg"><path d="m1565.1309 313.35534c-3.5031-.79436-9.1281-2.78676-12.5-4.42755-14.3019-6.95927-17.8862-11.69934-18.4837-24.44376-.4274-9.11537.8638-16.58625 4.9357-28.55802 3.3754-9.92392 3.9095-19.23006 1.3162-22.93257-2.4246-3.4616-5.9013-4.32191-17.3991-4.30543-11.571.0166-22.8056 1.98186-32.9031 5.75579-3.6283 1.35608-12.6719 4.64857-20.0969 7.31666-16.2656 5.84486-42.1964 16.31364-54.3898 21.95827-4.8895 2.26343-9.277 4.11532-9.75 4.11532-.4744 0-.8602-43.73465-.8602-97.5v-97.500004h17.4182c9.58 0 18.13-.27314 19-.60699 1.34-.5142 1.5822.36476 1.5846 5.75 0 3.49635.4924 10.34879 1.0908 15.22767l1.0879 8.870674-3.0581 2.79316c-2.9091 2.65698-9.1234 11.55796-9.1234 13.06765 0 .39083.8928.47713 1.984.19179 3.7139-.97122 6.846.69568 12.1283 6.45464 12.9473 14.11576 26.0708 25.78678 44.1162 39.23365l19.4349 14.48223 12.8283 17.27442c7.0556 9.50094 12.9782 17.12455 13.1614 16.94138.1831-.18318-.6137-3.13636-1.7707-6.56262-1.1571-3.42627-1.8411-6.49225-1.5201-6.8133.3211-.32104 5.4334 2.1246 11.3607 5.43477 5.9274 3.31017 14.377 7.93655 18.777 10.28084l8 4.26236-4.3204-3.77934c-12.9534-11.3312-42.848-50.17161-51.1674-66.47904-2.3596-4.62513-2.4191-5.0187-.7622-5.04003 2.5661-.033 21.0018-9.008 31.5148-15.3422 13.5428-8.15973 33.3868-22.42938 51.8873-37.311794 16.2039-13.03497 23.6617-19.7449 21.0162-18.90888-1.0074.31837-12.9821 3.04814-26.6104 6.06614-39.3099 8.70521-73.7808 14.48078-95.5579 16.01067l-9 .63227-5.229-7.39983c-9.894-14.00137-21.1184-35.4452-29.8381-57.00461-6.2527-15.45999-6.24-15.52424 3.8336-19.36441 4.5284-1.7263004 14.707-5.9026804 22.619-9.2808404 32.5388-13.8929896 56.4511-17.9418196 77.1145-13.0570396 17.6346 4.1687796 23.1454 7.9299196 26.572 18.1353496 2.2613 6.7348004 2.2899 19.0599704.064 27.6720304-3.4652 13.40786-3.8814 13.17163 23.1852 13.15956 62.5763-.0279 103.852-6.33273 138.6786-21.18295l8-3.41124.024 47.05193c.019 37.034324.4011 51.097134 1.7939 66.051934 3.8417 41.24731 8.4463 66.82518 18.0023 100 1.2211 4.23943 5.8399 17.1004 8.123 22.61858.4446 1.07437.062 1.80474-1.1368 2.17225-.9936.30452-6.7566 2.65192-12.8066 5.21643-49.357 20.92177-105.3239 38.51139-145.0466 45.5861-15.6711 2.79107-47.7836 3.59101-57.3225 1.42793z" fill="#e40000"/><path d="m1319.994 186.58405c0-58.4375-.295-109.962504-.6482-114.500004l-.6422-8.25h-21.8518-21.8518v-29-29.0000004l63.25-.003c34.7875-.002 71.6875-.2977 82-.65811l18.75-.65528v29.6581104 29.65811h-22.1597-22.1596l.5909 114.500004.5908 114.5h-37.9312-37.9312l-.01-106.25zm-316.994-36.25v-143.5000044h37.335 37.3349l.6651 102.1655744c.3657 56.19107.665 120.76607.665 143.5v41.33443h-38-38zm-135.33342 100.40997c-.36526-24.42548-.66467-89.29747-.66535-144.15997l-.001-99.7500044h37.33687 37.3368l.6632 46.6642504c.3647 25.66533.6631 77.190334.6631 114.500004v67.83575h22.4429 22.4429l.3071 28.75c.1689 15.8125.2498 28.88234.1797 29.04409-.07.16175-27.1082.57124-60.0847.90998l-59.95717.61588-.66412-44.40998zm-98.35714-79.65997c-3.01427-27.4632-8.30944-84.554784-8.30944-89.590844 0-2.19587-.19335-3.79914-.42967-3.56282-.23632.23631-2.24981 14.82381-4.47441 32.416664-3.44219 27.2218-4.94143 40.71121-8.52871 76.737l-.47298 4.75h12.24633 12.24633zm-103.30944 122.36558c0-.76143 1.11156-9.64893 2.47012-19.75 1.35857-10.10107 8.79947-67.64058 16.53534-127.86558 15.5827-121.313924 17.65672-137.0168544 18.15364-137.4458144.18749-.16185 24.63851-.46526 54.33558-.67423l53.99468-.37996 3.1729 20.5000004c1.74509 11.275 9.08251 59.425 16.30538 107.000004 7.22287 47.575 15.58496 102.58268 18.58243 122.2393 2.99746 19.65661 5.44993 36.19411 5.44993 36.75 0 .6634-13.20468 1.0107-38.42804 1.0107h-38.42805l-.57703-5.25c-.31737-2.8875-1.02575-11.775-1.57418-19.75s-1.26532-17.0875-1.59311-20.25l-.59596-5.75h-12.90182c-11.61568 0-12.90314.17445-12.91518 1.75-.007.9625-.9061 12.325-1.99722 25.25-1.09111 12.925-1.98509 23.6125-1.98662 23.75-.002.1375-17.55279.25-39.00279.25-32.55285 0-39-.22886-39-1.38442zm-88.33826-30.77882c-.36396-18.23979-.66174-83.03979-.66174-144v-110.8367644h37.33622 37.33621l.66379 57.1647004c.36508 31.44058.66378 95.945134.66378 143.343444v86.17874l-15.75.65323c-8.6625.35927-25.46472.65473-37.33826.65656l-21.58827.003-.66173-33.16324zm590.33996 36.10754c-28.1974-3.53257-51.5609-17.15378-60.5185-35.28305-5.8259-11.79103-7.5846-22.4964-8.1994-49.91129l-.5326-23.75h35.0374 35.0373l.3461 25.75c.3014 22.41898.5776 26.17598 2.135 29.04296 2.0575 3.78761 5.0658 5.20704 11.0356 5.20704 5.2122 0 8.0668-1.92206 10.794-7.26783 4.3272-8.48197 3.3415-32.92534-1.7536-43.48727-3.0868-6.39874-10.0585-12.02342-38.4513-31.02201-36.8169-24.63548-44.1208-31.71785-50.9367-49.39216-8.7075-22.579314-7.8515-64.950754 1.7065-84.473224 11.7308-23.96021 47.4634-37.5791604 87.7985-33.46304039 15.9614 1.62883999 26.6125 4.46067999 38.0689 10.12153039 16.0029 7.90741 24.0886 17.08314 27.807 31.5554 2.1269 8.27796 3.6241 24.40407 3.6241 39.03455v12.39405h-35-35v-14.36351c0-24.11595-2.1274-29.63645-11.4209-29.63645-9.3063 0-13.026 7.43225-12.4282 24.83259.627 18.25139 3.9086 22.62772 27.8491 37.138694 34.154 20.70167 53.8386 36.54568 61.3692 49.39565 7.3984 12.62445 10.9024 31.38226 10.9528 58.63307.041 22.28883-1.5814 33.5114-6.3267 43.75853-7.2676 15.69399-26.378 28.33282-50.4736 33.38134-10.6366 2.22857-31.9238 3.13196-42.52 1.80447zm-716.82543 1.98139c-11.26143-1.46146-22.46801-4.79477-32.13305-9.55774-7.58924-3.74-10.94642-6.16195-17-12.26416-8.78038-8.85093-13.04861-16.66848-15.97659-29.26223-4.29455-18.47154-4.56678-24.75571-4.56344-105.3416.003-69.590004.17042-77.718374 1.74099-84.464824 9.06331-38.93187 46.56882-61.1466604 96.34415-57.0653204 18.81878 1.54304 32.10775 5.51734 44.70789 13.3706604 13.19519 8.22421 22.58352 19.15405 26.66862 31.04747 4.6638 13.57821 7.02866 36.39785 7.03273 67.862014l.002 18.75004h-38-38v-33.36351c0-18.349934-.44847-35.787434-.99659-38.750004-1.31646-7.11536-4.3489-9.8879-10.80917-9.88275-6.27549.005-10.71006 2.77795-12.3048 7.69424-1.60392 4.94457-2.3253 102.069674-1.11263 149.802024.92369 36.35777 1.30573 38.86825 6.32351 41.55369 3.37121 1.80422 10.86823 1.36029 13.78334-.81615 4.54342-3.39216 5.24662-8.26534 5.84233-40.48754l.55-29.75h37.50731 37.50732l-.58533 24.25c-1.08146 44.80442-5.21898 58.71126-22.19118 74.58792-12.28186 11.48908-28.31184 18.97418-46.50998 21.71754-10.18662 1.53564-27.53917 1.70548-37.82786.37027zm-170.02587-49.00622c1.1104-.59427 2.76832-2.73177 3.68426-4.75 1.50269-3.31111 1.69397-11.72715 1.95849-86.16951.30717-86.445184-.16854-100.339904-3.59287-104.942504-2.61816-3.51905-10.64848-4.15188-13.92696-1.09751-4.77318 4.44689-4.79424 4.90092-4.4561 96.040014.17448 47.025.72398 88.2 1.22112 91.5.68021 4.51524 1.54349 6.55679 3.48854 8.25 2.81804 2.45317 8.21107 2.9958 11.62352 1.16951zm-18.54558 49.98194c-30.26027-3.19085-52.77311-17.24093-63.97-39.92318-6.20336-12.56654-7.39285-19.03711-8.72039-47.43702-1.41645-30.30191-.66087-137.711134 1.04493-148.541254 2.63155-16.70772 8.45857-28.32034 20.13747-40.13181 6.39412-6.4667 9.24383-8.48064 18-12.72088 5.72174-2.77079 13.10317-5.7129904 16.40317-6.5382104 16.42507-4.10736 38.45532-4.55299 55-1.11253 32.51692 6.7618604 54.85351 29.1429104 59.4769 59.5952804 1.73604 11.43455 3.12918 114.712544 1.97494 146.408154-1.18755 32.61009-2.45247 40.05392-8.75135 51.5-12.65809 23.00178-34.0397 35.75436-65.33155 38.96551-11.19311 1.14863-13.82693 1.14195-25.26412-.0641zm-192.79086.0206c-10.42672-1.52953-18.22474-3.98784-28.31396-8.92591-12.31006-6.02504-20.1443-12.21374-25.37266-20.04326-8.50258-12.73272-11.08952-25.11155-11.84979-56.70284l-.53548-22.25h35.02779 35.02779l.39985 24.75c.46 28.47329 1.05935 31.20589 7.42817 33.86695 6.92578 2.89378 13.84983.0952 16.98238-6.8641 2.65577-5.90005 2.673-29.42725.028-38.25285-2.59293-8.65186-9.6357-15.0144-37.10733-33.52324-38.72035-26.0876-44.90661-31.60232-52.00429-46.35901-7.08192-14.72392-9.93818-37.510604-7.59829-60.617754 2.06514-20.39394 5.68265-30.2231 14.7131-39.97706 14.59405-15.76331 35.68025-23.0100004 66.97976-23.0189204 28.83427-.008 51.37967 6.9292604 65.97175 20.3002604 11.9048 10.90858 15.16162 21.6223 16.09477 52.94572l.58837 19.75h-35.13694-35.13695v-14.95078c0-23.97786-1.79129-28.54922-11.18702-28.54922-4.34033 0-5.34405.41076-7.84592 3.21084-4.0596 4.54348-5.26783 10.08882-4.75408 21.81951.77327 17.65631 4.77863 23.060734 26.78702 36.143724 25.65175 15.24879 49.36679 32.8871 57.10008 42.46876 10.82056 13.40684 15.31357 29.384 16.55149 58.85717.95693 22.78312-1.73343 42.29948-7.36522 53.4286-7.53106 14.88232-30.04131 28.07071-54.78635 32.09844-9.62506 1.56666-31.26655 1.77675-40.68604.39497zm1583.18544 239.98794c-.0004-28.27547-.2991-90.83489-.6638-139.02093l-.6631-87.61098 5.4138-1.29019c2.9775-.70961 11.488-3.02217 18.9121-5.13902l13.4984-3.84883h43.7516 43.7516v18.34444c0 10.08944.2934 23.13944.652 29l.6519 10.65556h-25.1519-25.152v26.48157 26.48157l23.25.26843 23.25.26843.2658 27.75.2658 27.75h-23.5158-23.5158v31 31h27.5 27.5v29 29h-40.8381c-22.4609 0-51.7109.29698-65 .65995l-24.1619.65994zm-171.8593 3.34814c-4.02-26.26695-13.7961-90.03766-21.7246-141.7127s-14.4155-94.69178-14.4155-95.59277c0-1.47969 3.7954-1.69519 39.2343-2.22776 21.5789-.32428 39.389-.43493 39.578-.24588 1.0159 1.01585 13.5813 119.67158 18.1109 171.02102 1.0188 11.55 1.9029 19.93025 1.9646 18.62279.7283-15.4321 7.888-102.64897 12.2691-149.45955l2.231-23.83677 3.056.48274c17.676 2.7921 22.1754 3.01617 37.0873 1.84693 8.4006-.65868 20.5226-2.13328 26.9379-3.27688s11.8045-1.92177 11.9759-1.72926c.1715.1925-7.621 61.775-17.3166 136.85l-17.6284 136.5-57.0254.25809-57.0254.25809zm-124.1419-52.75809c-.0004-55.55-.2984-120.2375-.6623-143.75l-.6616-42.75h38.0046 38.0047l.5803 143.24452c.3192 78.78449.4999 143.32504.4015 143.42345-.098.0984-17.1637.32587-37.9227.50548l-37.7438.32655zm-133.9989 65.75c-.0004-19.6625-.2994-71.1875-.6646-114.5l-.6638-78.75h-21.8355-21.8354v-28-28l8.25-.0317c4.5375-.0174 12.975-.67817 18.75-1.46832 8.1842-1.11978 24.4499-1.44362 73.75-1.46832l63.25-.0317v29 29h-22-22v115 115h-37.5-37.5l-.0007-35.75zm-116.3808-69c-1.1471-3.88815-10.6185-100.75081-10.6185-108.594 0-2.19413-.1952-3.79411-.4338-3.55551-.6404.64039-9.2474 70.73455-11.0389 89.89951-.8483 9.075-1.7212 18.1875-1.9397 20.25l-.3973 3.75h12.4722c11.4084 0 12.4282-.14928 11.956-1.75zm-105.6185 104.76312c0-1.53571 35.7506-279.24404 36.5301-283.76312l.5605-3.25h54.3188 54.3188l.5973 4.25c.3285 2.3375 4.6747 31.025 9.6581 63.75 21.2223 139.36089 33.0164 217.27331 33.0164 218.1076 0 .50772-16.5649.8924-38.428.8924h-38.4281l-.5561-5.25c-.3059-2.8875-1.0158-11.775-1.5776-19.75-.5617-7.975-1.288-17.0875-1.614-20.25l-.5926-5.75h-12.9018c-12.7082 0-12.902.0338-12.9181 2.25-.025 3.49216-3.91 48.01233-4.2139 48.2926-.1484.13682-17.7073.57892-39.0198.98245-30.6531.58037-38.75.4734-38.75-.51193zm-180.33493-102.67871c-.36579-57.01607-.66507-121.52061-.66507-143.34342v-39.67784l31.15184-.70474c17.13351-.3876 31.46697-.34556 31.85214.0934.38517.43899 5.823 16.54816 12.08402 35.79816 6.2611 19.25 15.2889 46.7 20.0618 61l8.6779 26 .086-61.75.086-61.75h31.3415 31.3416l.6584 19.66081c.3622 10.81344.6585 75.61344.6585 144l.0003 124.33922h-32.9528-32.9527l-1.877-6.25c-1.0324-3.4375-9.4911-31.5578-18.7973-62.48954l-16.9202-56.23955-.25751 62.48955-.25752 62.48954h-31.32741-31.32742zm-98.66507-73.17131c5.99799-2.85007 6.5-5.06381 6.5-28.6631 0-18.19012-.23642-21.4326-1.76693-24.23307-2.28415-4.17947-6.19594-6.13693-13.8662-6.93863-6.16564-.64444-6.18145-.63941-5.53873 1.76271.3545 1.32494.6507 15.61372.65821 31.75283l.0136 29.34384 5.25-.68074c2.8875-.3744 6.825-1.42913 8.75-2.34384zm-89.33552 127.5869c-.36427-27.6375-.6628-92.4375-.66339-144l-.001-93.75 40.75.005c44.06408.005 69.14765 1.10383 81.75 3.58113 21.47754 4.22193 36.44527 19.67794 42.04269 43.41422 1.27542 5.40854 1.89328 13.21667 2.21565 28 .95275 43.69179-5.64057 56.55154-31.47089 61.38149-6.65105 1.24366-6.7129 1.28348-3.07786 1.98157 2.04028.39182 7.29763 2.50827 11.683 4.70322 9.0229 4.51611 15.44726 10.84115 19.56976 19.26723 3.68224 7.52623 4.48803 21.34291 4.51496 77.41649l.0227 47.24965h-35-35l-.0163-48.25c-.0173-51.32837-.8364-68.63063-3.49209-73.76616-1.85472-3.58663-5.68339-5.43401-13.24164-6.38923l-5.25-.6635v65.03445 65.03444h-37.3366-37.33661l-.66231-50.25zm-147.0878-91.87327c-.52506-102.20515-.42373-142.42968.36077-143.21418 1.29053-1.29053 42.80296-2.46726 91.15477-2.58392l32.59221-.0786.60312 28.68395c.33171 15.77617.37616 29.05117.0988 29.5-.27743.44883-11.50283.81605-24.94537.81605h-24.44098v26.5 26.5h23.5 23.5v27.36916 27.36916l-3.75.61983c-2.0625.34091-12.6375.62479-23.5.63084l-19.75.011v31.12313 31.12314l27.5-.41679 27.5-.41679v29.29366 29.29365h-64.84659-64.84659l-.73014-142.12327zm-133.91378 99.45919c-.36459-24.01524-.6629-75.82997-.6629-115.14384v-71.47975l-22 .72032-22 .72032v-29.61927-29.61926l72.75.48349c40.0125.26592 76.8.84767 81.75 1.29278l9 .80929.26582 27.75.26582 27.75-22.26582-.00015-22.26582-.00014.27829 114.33981.27829 114.3398-22.6899.66034c-12.47944.36319-29.29386.66034-37.36538.66034h-14.67549zm-149.99928-10.50051c-.36499-29.79052-.66362-94.31942-.66362-143.39755v-89.23297l13.28072-.71131c15.51645-.83105 33.51759-.26283 49.81088 1.57234l11.59161 1.3056.65839 34.47763c.36212 18.9627.6584 69.87058.6584 113.12862v78.65098l22.33957-.44018 22.33957-.44017.60576 28.80975c.33317 15.84536.37881 29.17697.10141 29.6258-.27739.44883-27.40416.81605-60.2817.81605h-59.77736zm-96.1325-51.08541c-.80474-3.57143-3.36343-28.03681-7.50392-71.75-2.10988-22.275-3.87914-39.825-3.9317-39-.0526.825-1.20241 9.86829-2.55522 20.09619-3.13295 23.68653-8.24042 68.84106-9.038 79.90381-.33704 4.675-.82151 9.5125-1.0766 10.75-.46138 2.23836-.39891 2.25 12.07432 2.25 12.48603 0 12.536-.009 12.03112-2.25zm-105.53112 105.3991c0-1.01271.54257-5.25544 21.43917-167.6491 7.99738-62.15 14.80111-114.51842 15.11939-116.37426l.57869-3.37426 17.68137.75486c22.1086.94387 45.96695.94261 71.25933-.004l19.57796-.73256 1.14537 7.86499c.62995 4.32575 6.11888 40.48999 12.19762 80.36499 6.07873 39.875 12.37874 81.275 14.00002 92s5.88477 38.78453 9.47443 62.3545c3.58966 23.57022 6.52665 43.25772 6.52665 43.75024 0 .51179-16.4549.8955-38.40181.8955h-38.40182l-.58916-5.75c-.32404-3.1625-1.04728-12.05-1.60721-19.75s-1.28317-16.5875-1.60721-19.75l-.58916-5.75h-12.90182c-12.70816 0-12.90205.0338-12.9181 2.25-.0408 5.63674-4.01014 48.10987-4.54631 48.64691-1.01033 1.01197-77.4374 1.26088-77.4374.25219z"/></svg>