<svg height="800pt" viewBox="0 0 422 800" width="422pt" xmlns="http://www.w3.org/2000/svg"><g stroke-width=".094"><g stroke="#000"><path d="m136.96 0h27.1c11.82.67 23.38 3.56 34.51 7.48 10.67 5.15 21.09 11.12 29.97 19.03 1.26 1.14 1.6 2.86 2.18 4.38-7.67 5.46-17.46 5.88-26.03 9.25 5.31.48 10.34-1.22 15.45-2.25.8.81.91 1.68.32 2.63-2.4 4.2-7.16 6.12-11.13 8.46l6.48-1.2c-.25 5.78-7.04 7.1-11.29 9.17 4.71 8.7 6.88 18.43 9.28 27.95 2.2 8.51 2.47 17.34 3.51 26.03 1.31 15.98-1.07 31.96-4.1 47.61-1.43 6.23-.38 12.73-2.1 18.92-1.76 9.5-7.43 17.9-15.19 23.55-1.26 3.26-3.26 6.13-5.65 8.65 1.03 1.76 2.1 3.71 4.26 4.24 5.01 1.65 10.21 2.62 15.28 4.09 1.56-2.93 3.27-6.04 6.37-7.59 5.11-3.28 12.93-2.37 16.18 3.09 3.44 4.74 3.6 10.77 3.17 16.39 14.44 9.26 29.37 17.71 43.81 26.98 5.42 3.91 10.79 7.93 16.7 11.11 4.09-4.66 10.88-6.46 16.75-4.57 4.96 1.91 6.68 7.54 6.75 12.41.63 3.3-1.16 6.25-2.58 9.07 4.71 5.34 9.82 10.32 14.27 15.9 8.05 10.21 16.94 19.73 25.34 29.65 3.19 3.8 8.29 5.57 10.87 9.94 2.59 4.22 6.35 7.47 9.93 10.82 3.45.22 7.58-.56 10.33 2.09 3.18 4.58 4.53 11.15 1.71 16.22-1.62 2.95-5.44 2.68-8.29 3.12-1.85 1.95-3.54 4.26-6.07 5.37-8.71 2.08-17.53 4.01-25.94 7.13-2.5 2.1-2.83 6.16-5.73 8.04-3.1 1.1-7.06.21-8.32-3.13-1.19-4.34-.73-9.06.64-13.3-8.85-1.64-17.86-1.06-26.74.03-3.2.5-6.08 2.06-9.03 3.3-3.54 6.37-4.55 14.48-10.4 19.34-8.98 6.06-20.51 4.99-30.77 4.15 2.12 12.05 3.52 24.21 4.62 36.39.32 4.35.78 8.7 1.64 12.98 1.64 8.31 2.49 16.75 3.58 25.15 3.07.22 6.79-.42 9.01 2.28 3.56 3.08 4.04 8.17 3.23 12.54 1.09 2.52 2.1 5.07 3.04 7.65 14.88 3.63 24.64 16.43 33.45 28 10.35 15.7 17.48 33.28 23.98 50.85 5.46 18.33 11.72 36.45 15.82 55.15 3.02 11.46 4.33 23.27 6.23 34.94 1.42 6.74 2.21 13.73.99 20.56-.25 5.62-.31 11.28.16 16.9.72-6.61-.26-13.28.69-19.87 1.05 12.29.09 24.62-.22 36.92-.3 5.41-1.7 10.68-2.25 16.07-1.64 11.38-2.99 23.14-8.44 33.46-2.97 6.52-7.95 11.73-12.68 16.99-5.34 6.4-14.11 8.86-22.16 8.96-1.75-.9-3.83-.9-5.47.22-7.21-.51-13.76-3.95-19.42-8.25-2.84-2.17-4.52-5.39-6.75-8.1-16-17.38-21.7-40.96-29.38-62.65-5.09-12.78-8.22-26.19-11.2-39.58-1.67-8.29-4.29-16.42-4.67-24.92-3.03-20.59-4.41-41.4-4.4-62.2.96-12.37 1.61-24.76 3.37-37.06-4.3 6.4-6.92 13.62-9.73 20.74-3.57-.89-6.44-3.26-8.97-5.82-2.18 3.59-4.12 7.34-5.26 11.41 2.24.79 7.17-1.06 7.35 2.6.22 4.01 1.1 8.89-2.37 11.84 1.34 2.95 3.59 5.77 3.43 9.17-4.66 1.19-9.42-.74-13.27-3.27-1.04 5.29-2.41 10.78-6.12 14.89-3.66 4.14-7.67 8.96-13.55 9.61-5.48.88-10.88-1.59-14.55-5.6-1.29 10.14-2.7 20.91-8.84 29.41-3.8 4.8-8.03 9.88-14.18 11.6-6.53 2.5-14.04 1.48-19.8-2.43-8.07-4.53-12.15-13.16-17.69-20.15-2.72-4.3-4.88-8.93-7.42-13.34-5.56-9.57-8.05-20.46-10.65-31.1-1.53-9.12-3.66-18.13-4.25-27.37-1.39-7.62-1.52-15.36-1.07-23.07-.8-10.06.49-20.08 1.17-30.1.41-6.8 2.81-13.25 3.91-19.94 1.13-6.75 3.53-13.21 6.1-19.53 2.61-5.22 5.58-10.73 10.71-13.87 6.52-4.11 15.34-4.51 21.99-.39-3.02-3-5.13-6.69-6.57-10.65-5.43-.88-11.2-1.48-15.87-4.65-3.06-2.12-6.28-4.26-8.38-7.4-5.33-8.33-6.82-18.84-4.17-28.35-8.37-5.33-13.65-14.62-14.83-24.38-.53-5.58.44-11.13 1.52-16.59-5.79-2.99-11.56-6.04-17.15-9.4-14.3-7.69-27.16-17.72-41.28-25.71-2.21-1.37-4.26-2.98-6.34-4.55-5.25 1.23-11.56.8-15.2-3.67-4.14-5.15-6.22-13.59-1.27-18.93 2.54-3.46 6.76-4.91 10.93-4.83 19.17-22.93 40.93-43.47 61.7-64.9-2.6-4.48-3.96-10.03-2.09-15.05 2-6.58 9.69-11.17 16.36-8.82 3.1.92 4.73 3.92 6.98 5.98 5.72-1.27 11.13-3.67 16.68-5.53 2.61-1 5.44-1.62 7.8-3.19 1.76-4.49 2.53-9.65 6.25-13.08 2.32-2.85 6.18-3.06 9.55-3.44.21-.66.64-1.99.86-2.65-12.26-9.88-21.22-23.39-26.66-38.09-3.34.56-7.4 1.16-9.76-1.91-4.97-5.05-.94-12.37-2.2-18.41-2.72-2.54-7.24-3.94-7.78-8.15-.89-4.56 1.75-9.04 6.09-10.6-3.23-3.31-5.8-7.16-7.65-11.39-6.39 3.54-13.86 4.12-21 3.29.86.66 2.57 1.98 3.42 2.64-2.92-1.51-5.86-2.97-8.91-4.2-5.77-6.57-4.06-15.75-3.81-23.74.53-15.13 5.75-29.62 12.27-43.12 5.46-9.72 13.44-17.89 22.41-24.44 5.7-4.71 12.49-7.79 19.35-10.4 5.57-2.01 11.51-2.54 17.24-3.91m-17.44 8.75c-3.33 1.62-6.71 3.15-10.06 4.73-12.83 8.61-24.91 19.86-30.31 34.7-7.01 15.11-9.67 31.99-9.09 48.55 6.64-5.79 14.19-10.34 21.7-14.89 26.68-15.58 55.23-27.74 84.34-37.97 16-5.42 32.33-9.79 48.56-14.48-4.62-3.44-8.93-7.35-14.08-10.03-6.99-3.77-13.73-8.46-21.7-9.86-8.37-2.8-17.13-4.28-25.93-4.68-14.52-.82-29.58-1.18-43.43 3.93m69.31 35.4c4.35.88 9.43-1.1 13.19 1.86-5.98 1.74-12.4 1.18-18.39-.23-.74.28-2.24.85-2.99 1.13 5.1 2.79 10.84 2.78 16.43 1.95 5.94.15 11.31-2.65 16.26-5.61-4.84.14-9.74.54-14.5-.66-3.42-.96-6.75.65-10 1.56m-21.2 7.36c11.59 4.93 24.65 5.18 36.76 2.08-9.3-.36-19.21-.1-27.34-5.42-3.29.62-6.43 1.88-9.42 3.34m-33.2 13.11c-1.05 4.45-2.26 8.98-4.97 12.74-2.63 3.54-4.53 7.82-8.39 10.25-3.03.32-1.86-3.05-1.2-4.74 1.83-4.15 2.72-8.62 3.64-13.04-2.14.97-4.34 1.86-6.33 3.11-1.33 8.36.87 16.68 1.16 25.03.89 13.9 3.56 27.65 7.84 40.9 4.33 14.69 11.63 28.65 22.03 39.96 4.62 5.08 10.49 8.7 15.69 13.11 4.36-2.21 9.32-3.13 14.18-2.97 4.14.63 8.52-.09 12.43 1.72 3.43-3.4 6.53-7.15 9.26-11.12 3.84-6.81 6.72-14.18 8.66-21.75 3.22-15.37 5.2-31.13 4.13-46.87-1.08-7.1-1.13-14.33-2.41-21.4-2.35-10.92-5.59-21.63-9.3-32.16-12.06 2.45-25.78 2.09-36.31-4.96-10.06 4-20.14 7.96-30.11 12.19m-8.1 4.02c-.73 3.9-1.35 7.83-2.06 11.74 3.41-4.1 5.69-8.99 6.94-14.16-1.62.81-3.25 1.62-4.88 2.42m-16.63 7.97c.47 24.81 2.79 49.86 10.18 73.66 4.71 14.02 12.74 27.08 24.11 36.66 4.75 4.25 10.73 6.66 16 10.14.45-.83.91-1.65 1.38-2.46-4.82-3.82-10.07-7.14-14.35-11.59-15.56-15.6-23.88-36.79-28.52-57.98-2.41-8.15-2.56-16.71-3.68-25.08-.09-8.53-2.3-17-1-25.53-1.37.73-2.75 1.45-4.12 2.18m-11.58 9.38c-1.78 7.26.75 14.63 4.3 20.93 1.88 2.8 4.38 5.11 6.51 7.73-1.16-12.15-2.57-24.34-2.18-36.56-3.13 2.31-8.32 3.27-8.63 7.9m-25.87 14.37c-.02.21-.06.63-.09.84 7.41 2.13 15.78 1.6 22.62-2.1-.93-4.77-.72-9.68.16-14.44-7.69 5.05-15.93 9.36-22.69 15.7m29.35 21.61c-.29 1.78-.51 4.06 1.15 5.28 2.37 1.7 5.72 2.63 6.74 5.69.89 4.73-.57 9.47-.27 14.21.24 2.44 2.63 3.67 4.81 4.04.59-1.63 1.98-3.24 1.12-5.05-1.99-7.39-3.53-14.88-4.97-22.39-.03-4-7.21-5.98-8.58-1.78m106.86 49.26c-2.75 8.5-8.01 15.86-14.41 22 .32 1.25.65 2.5.98 3.75 8.25-5.83 12.68-15.87 13.43-25.75m-42.08 24.08c-2.53 1.34-2.93 4.35-3.17 6.91 1.79 2.46 4.52 4.24 7.61 4.44 6.09.92 13.19 1.59 18.24-2.69 2.42-2.62 3.07-8.47-1.14-9.68-6.94-2.33-14.98-2.53-21.54 1.02m-19.01-1.09c.41 6.91.36 13.85.24 20.78-.41 3.06 1.82 5.51 3.4 7.88 4.52 5.46 9.03 10.94 13.36 16.56 4.79-8.72 11.24-17.46 10.8-27.9-4.18-.53-8.7-.75-12.17-3.43-2.57-1.78-3.77-4.89-3.71-7.94-4.26-1.35-8.08-3.73-11.92-5.95m-12.66 10.3c-6.66 13.96-4.65 30.1-2.01 44.81 2.29-5.72 5.29-12.79 12.26-13.64 8.7 1.33 14.96 8.37 20.77 14.39 2.21-4.12 4.6-8.19 7.51-11.86 2.31-2.99 6.86-4.87 10.26-2.53 4.83 2.47 6.22 8.14 7.82 12.87 3-12.72.06-26.1-5.23-37.82-2.66.61-5.38.85-8.1.87.09 3.65.92 7.5-.66 10.96-1.66 4.1-3.5 8.15-5.94 11.85-2.33 3.58-4.06 7.65-7.26 10.59-3.89-3.52-6.76-7.94-10.08-11.96-4.02-5.25-9.41-10.16-10.33-17.05-.05-5.89-.01-11.77.09-17.65-3.59 1.11-7.53 2.37-9.1 6.17m80.68 12.94c-1.25 1.91-1.22 4.61-3.2 5.98-6.36-1.47-12.52-3.68-18.88-5.14.41 1.37.83 2.75 1.25 4.13 5.63 1.38 11.17 3.11 16.81 4.48.4-.51 1.21-1.53 1.61-2.04.57.51 1.7 1.52 2.27 2.03.15-.97.44-2.89.59-3.86 1.47 1.13 2.7 2.54 3.48 4.23.02-.94.06-2.84.08-3.78 1.27.98 2.4 2.11 3.4 3.38.71-.44 1.43-.87 2.15-1.3 2.05 3.78 4.39 7.43 6.01 11.43 13.2 8.18 26.88 15.5 39.75 24.2 9.07 5.22 17.04 12.08 25.98 17.5.04-.85.13-2.55.17-3.4 2.29.71 3.07 2.85 3.44 4.98 0-1.71.12-3.41.35-5.1.92.95 1.83 1.96 2.67 3.01.02-1.47.35-5.31 2.61-3.24 1.65 4.28 2.1 8.93 3.71 13.22 3.33 3.76 7 7.23 10.03 11.27 6 6.98 12.61 13.43 18.3 20.68 2.87 3.83 6.44 7.08 9.12 11.06 1.05.03 3.13.07 4.17.1-6.64-7.22-13.11-14.58-19.49-22.02-6.15-8.55-14.26-15.5-20.19-24.22-.08-3.05 3.73-4.83 3.23-8.02.04-2.94-.04-6.31-2.35-8.46-1.89-2.19-5.13-1.42-7.63-1.17-3.15.38-4.7 3.44-6.92 5.27-2.2.43-4.21-.7-6.08-1.66-3.98-2.15-7.85-4.52-11.38-7.36-16.32-11.5-34.46-20.26-50.27-32.49.81-5.08 1.47-10.86-2.02-15.16-2.92-4.79-10.38-2.82-12.77 1.47m-103.52 4.53c-3.67.68-7.03 2.98-10.87 2.68-2.57-1.55-3.25-5.33-6.43-6.06-6.08-1.98-12.41 4.28-11.26 10.39-.34 3.5 2.1 6.14 3.8 8.89-1.72 2.05-3.63 3.93-5.34 5.99-1.56 2.01-4.21 3.2-4.8 5.87-7.88 8.21-16.29 15.91-24.12 24.17-6.78 7.51-14.32 14.3-20.96 21.94-3.48 3.58-6.11 7.97-10.01 11.14-4.65-.27-9.63 1.7-11.36 6.34-.78 4.41.9 9.64 5.02 11.87 1.66.6 3.39.96 5.08 1.47-4.2-2.51-5.61-8.2-3.63-12.55 7.37-6.59 15.97-12.12 21.9-20.21 3.13-3.88 7.43-6.57 10.73-10.28 2.7-2.95 5.45-5.86 8.19-8.77 10.28-11.55 21.98-21.78 31.73-33.79.29-3.36-1.17-7.32 1.35-10.09.49.9.97 1.8 1.44 2.72.36-1.49.67-3.02 1.45-4.36 2.64-.04 1.65 3.17 2.25 4.88.59-1.87 1.1-3.78 1.92-5.56 2.56-1.22 2.62 1.33 2.91 3.14.58-1.35 1.2-2.69 1.84-4.02.61.11 1.83.34 2.44.45 6.85-3.14 13.84-6.15 21.28-7.61.16-1.19.33-2.38.49-3.57-5.05 1.54-9.85 3.83-15.04 4.93m109.72 22.91c3.23 6.46 6.54 13.03 7.85 20.2.92 4.46 3.26 8.48 3.99 12.99 3.83 15.4 1.45 31.47-2.15 46.66 7.05-5.98 8.59-15.95 8.07-24.7-.58-8.56-1.35-17.14-2.99-25.57-2.72-8.97-6.25-17.72-11.01-25.82-.89-1.58-2.44-2.59-3.76-3.76m19.02 27.3c2.57 12.15 3.91 24.61 3.17 37.03-.22 2.74-1.83 5.33-1.43 8.12 4.88 19.94 7.87 40.69 5.69 61.22 5.37-.34 11.09.62 14.76 4.93 3.72-.37 7.46-.71 11.18-1.16 4.91-4.13 3.71-11.28 7.33-16.17 1.05-1.26 2.39-2.23 3.62-3.3-1.05-6.06.04-12.3 2.18-18 2.43-5.26 8.53-6.55 13.63-7.73 1.76-1.74 3.43-3.62 5.62-4.86.16-2.53 1.65-5.44 4.58-5.24 8.13-.8 12.24 8.05 19.71 9.43-3.77-5.45-8.38-10.23-12.91-15.04-6.29-8-11.51-17.2-19.82-23.33-15.96-7.06-31.88-14.18-47.75-21.44-3.15-1.58-6.22-3.32-9.56-4.46m-184.98 41.1c4.43 2.47 8.83 5.04 12.85 8.14 5.83 4.62 12.56 7.9 18.71 12.04-1.47-16.17-2.61-32.47-1.27-48.68-10.06 9.54-20.41 18.77-30.29 28.5m-22.62-4.83c1.36 2.12 4.2 2.06 5.98 3.66 4.71 3.74 9.8 6.9 13.78 11.46.57-.18 1.71-.55 2.28-.73 2.27 1.62 3.72 6.25 7.09 4.37 1.97 2.01 3.83 4.11 5.74 6.18 3.09.29 4.64 3.21 6.78 5.04 1.23 1.65 3.74.16 4.96 1.9 3.64 3.81 9.34 3.65 13.59 6.44 3.88 2.53 8.23 4.39 11.83 7.34 2 2.91.36 6.8-1.68 9.25-1.61 1.91-4.04 4.64-6.78 3.14-5.47-2.73-10.88-5.56-16.13-8.69-6.58-2.56-12.61-6.23-18.7-9.75 11.57 7.84 24.04 14.2 36.29 20.9.96.48 2.15 1.3 3.1.28 5.31-4.09 8.87-10.65 8.86-17.4-14.27-7.32-27.95-15.7-41.49-24.29-5.08-4.06-10.66-7.42-16.31-10.64-5.8-3.88-11.98-8.16-19.19-8.46m202.76 16.34c2.08 4.82 3.23 10.03 3.46 15.27-.4 3.01-1.1 5.97-1.71 8.94.55.2 1.65.6 2.2.8-.37 2.63-1.34 5.15-2.5 7.53 1.04-.6 2.17-.95 3.38-1.04-.39 2.75-1.44 5.34-2.52 7.88 3.39 2.23.12 5.99-.74 8.8.53.48 1.6 1.45 2.13 1.93-.96 2.43-2.34 4.64-3.6 6.92 2.46-1.01 4.95-1.92 7.53-2.55.99-12.8.2-25.64-1.45-38.35-.99-6.62-2.55-13.13-3.54-19.76-.9 1.2-1.78 2.41-2.64 3.63m73.7 7.29c2.22.92 4.66 1.32 6.75 2.54 2.18 2.11 2.87 5.2 4.48 7.71 1.19 1.7 1.78 4.35 4.22 4.61 4.72 1.6 11.24-.91 14.5 3.92 3.51 5.29 2.54 12.08 2.76 18.11.44 4.22-1.65 7.97-3.45 11.6-.59 2.29-.64 4.76-.36 7.11.81.78 2.2 1.95 3.29.88 1.78-2.62 2.93-5.63 4.84-8.18 3.8-5.36 4.25-12.24 3.53-18.56-.32-3.11-1.4-6.29-.54-9.39.95-.48 1.9-.48 2.85-.01 1.88 9.12 2.89 19.12-1.16 27.82 3.07-1.33 6.79-2.7 7.85-6.25 1.34-6.78.36-13.74-.48-20.52 1.68-.28 3.43-.05 3.68 1.94 1.37 7.37 1.98 15.43-.79 22.56 3.96-.78 8.23-3.38 8.11-7.94.95-5.74-2.49-10.91-2.8-16.41.57-.02 1.69-.06 2.26-.08 3.71 6.54 4.32 14.36 3.15 21.68 2.06-1.56 4.38-3.15 5.25-5.71 1.47-6.45-.98-13.52-6.09-17.72-5.14-3.95-7.33-10.87-13.47-13.65-6.05-4.11-14.06-3.58-20.35-.32.04 1.19.08 2.37.12 3.57-3.68 1.46-7.59-.01-11.16-1.1-5.61-2-8.61-8.11-14.51-9.53-.85.39-1.68.83-2.48 1.32m-11.09 9.5c-3.57.97-8.35 2.99-8.18 7.41-.29 4.52 4.33 7.44 8.26 8.27 5.75 1.06 12.19.82 17.32-2.27 4.35-2.48 4.52-9.56.08-12.05-5.29-2.79-11.8-3-17.48-1.36m26.1 9.6c.23 1.34.46 2.67.7 4.01 3.58-1.31 7.32-2.01 11.12-2.24-3.78-1.48-7.89-1.09-11.82-1.77m-36.79 3.13c.67 2.86.4 6.1 2.26 8.55 2.54 2.76 6.38 4.11 10.1 3.99 5.58.05 11.36-.21 16.55-2.45 3.58-1.69 4.88-5.68 5.26-9.34-2.74 2.63-5.93 5.08-9.79 5.65-8.38 1.85-19.02 1.34-24.38-6.4m91.57.59c1.52 4.19 2.68 8.54 2.44 13.05 1.34-.57 3.74-.09 4.05-2.01.38-3.49.35-7.56-2.01-10.37-1.47-.37-2.99-.47-4.48-.67m-265.23 1.08c-.79 3.98-2.62 7.62-4.71 11.06 2.75 1.23 6.17 1.66 8.06 4.28-1.73 4.06-.1 8.38 2.94 11.26 3.06.31 6.27-.06 9.19 1.06 2.73 1.48 2.74 5.04 4.56 7.31.96 1.76 3.67 3.33 2.42 5.59-1.53.15-2.88-.72-4.31-1.09-1.85.78-3.64 1.71-5.47 2.55 1.9 1.83 4.45 3.35 7.19 2.59 3.55-1.06 6.85-3.07 9.38-5.79 1.07-4.64-.83-9.32-1.72-13.86.65-.39 1.94-1.18 2.59-1.57 2.65 4.36 3.27 9.71 3.17 14.73.06 2.88-2.61 4.54-4.29 6.5 4.87-.43 8.95-3.67 11.63-7.57.98-5.93-2.7-11.27-3.23-17.06.4-.39 1.19-1.17 1.58-1.57 3.29 2.43 2.9 7.12 4.35 10.62 1.59 4.16 1.5 9.01-1.3 12.64 2.65-2.42 5.58-4.67 7.61-7.66.7-6.55-1.33-12.86-2.99-19.09-.47-1.93.26-2.63 2.21-2.08 3.5 5.79 4.25 12.74 4.84 19.35 3.78-4.01 2.5-10.21 1.56-15.1-1.73-5.86-4.26-12.58-10.28-15.21-5.66-.27-11.37-.17-17.05-.39-6.4-.23-12.69 1.11-19.04 1.67-3.15-.41-5.92-2.13-8.89-3.17m215.24 1.92c.36 4.72-.76 9.94 1.71 14.23 2.41.79 4.99.29 7.46.16.03-5.03.23-10.07-.24-15.08-3.01-.51-6.05-.33-8.93.69m-4.25.51c-1.61 4.07-3.67 8.28-7.91 10.16.04.93.1 1.86.17 2.79 3.04-.11 6.08-.11 9.13-.13-1.09-4.21.06-8.74-1.39-12.82m-152.96 8.47c1.37 3.93 2.34 8 2.56 12.17 2.63-.86 5.27-1.69 7.8-2.82-1.12-3.72-2.15-7.6-4.92-10.49-1.81.41-3.62.78-5.44 1.14m11.52.39c1.02 2.44 1.56 5.05 2.54 7.51 3.76.39 8.09.23 10.89 3.26 4.52 4.57 2.24 12.43 7.35 16.58 4.72 4.51 11.65 4.43 17.7 5.41 3.26.76 6.59.24 9.89.12-1.48-3.07-1.82-6.49-1.48-9.85-5.54-.4-11.39-.59-16.36-3.34-4.61-2.77-5.08-8.86-9.11-12.17-2.67-2.64-5.41-5.35-8.95-6.8-3.85-2.1-8.34-1.3-12.47-.72m94.88 17.2c-3.67 3.92-9.46 2.95-14.28 3.35.09 3.85-.35 7.72-1.56 11.39 4.46.14 8.95.23 13.37-.46 4.1-.38 8.48-1.21 11.49-4.25 4.07-4.57 4.48-11.03 7.48-16.17 1.92-2.28 4.93-3.17 7.53-4.43-.07-.77-.19-2.3-.26-3.07-5.15.1-10.44-1.07-14.39-4.59-6.46 4.19-3.78 13.44-9.38 18.23m27.58-13.9c.03.48.09 1.44.13 1.93 2.49-.26 4.96-.63 7.43-1.08-.34-.62-.68-1.24-1.01-1.85-2.17.45-4.36.77-6.55 1m-63.49 13.27c-6.03.65-10.03 7.61-7.15 13.06 1.9 4.51 7.51 4.78 11.68 5.33 3.47-.2 7.37-.63 9.92-3.28 2.83-3.05 3.14-7.63 2.37-11.52-1.31-1.91-3.33-3.23-5.4-4.18-3.8-.31-7.66.05-11.42.59m-133.17 5.13c.29 4.07 4.04 8.56 8.51 7.58 4.35-1.04 8.47-2.83 12.61-4.52-.61-1.56-1.19-3.13-1.79-4.7-4.62-.53-9.86-.21-13.07-4.28-2.5 1.26-6.32 2.49-6.26 5.92m125.73 16.86c2.11 2.14 4.12 4.38 5.95 6.77-.39-2.23-.73-4.46-1-6.7-1.65-.19-3.31-.37-4.95-.07m9.43.93c2.31 13.65 3.09 27.52 4.37 41.29 2.65 10.61 3.37 21.54 4 32.42 3.55-.75 7.15-1.16 10.73-1.75-1.17-9.57-2.15-19.18-4.17-28.61-1.39-14.73-3.05-29.42-4.83-44.11-3.34.52-6.72.93-10.1.76m-28.63 10.64c-12.32.79-24.47 3.44-36.86 3.42-18.78.63-37.77-.5-56.12-4.76-5.51-.65-10.68-2.66-15.96-4.23-1.06 8.38.04 17.25 4.45 24.58 4.22 5.93 11.5 9 18.6 9.52 8 .88 16.02-1 23.98-.38 9 8.26 16.41 17.99 24.1 27.44 3.56 4.44 6.67 9.25 10.6 13.39 4.04 4.22 7.84 8.66 11.5 13.21 1.12-2.34 2.25-5.44 5.4-5.39-.81 2.27-1.79 4.48-2.62 6.75 2.87-.91 6.09-4.87 9.02-2.04-6.86 4.69-13.25 10.04-18.89 16.16-8.55 7.9-16.42 17.72-28.03 21.09 4.95 7.2 9.93 14.48 16.35 20.48 2.3-5.73 6.24-10.53 9.32-15.83 4.53-7.6 9.29-15.1 14.84-22 2.44-3.52 5.47-6.64 7.42-10.48 2.82.4 5.84 1.87 8.58.36 4.69-2.52 6.8-9.17 3.23-13.52-2.3-3.82-7.93.01-10.18-3.79-8.93-10.45-17.47-21.25-25.73-32.24-5.14-5.85-10.1-11.89-14.63-18.24.04-.57.13-1.72.17-2.3 7.04.2 14.15 1.46 21.17.29 6.42-.93 12.9-1.33 19.34-1.99 3.44 1.57 4.85 5.51 6.8 8.52 3.52 6.46 8.47 12.05 11.53 18.78 4.81.25 9.63.26 14.44.08-6.06-10.75-13.31-20.82-19.55-31.47 3.09-1.63 7.24-2.27 8.87-5.79 3.26-6.35-.01-13.99-4.95-18.46-4.91 3.8-10.57 6.34-16.19 8.84m18.41 18.16c3.52 4.35 6.55 9.06 9.77 13.65-.7-7.53-.86-15.08-1.83-22.58-1.22 4.07-4.24 7.04-7.94 8.93m-27.73 6.78c5.86 2.53 11.41 8.35 9.9 15.23-1.82 3.88-6.56 4.52-10.18 5.73 7.17.28 14.35.1 21.52.12-4.71-7.02-9.2-14.19-13.48-21.48-2.57.38-5.17.38-7.76.4m-26.23.84c3.86 4.36 7.47 8.96 11.61 13.07 1.59 1.44 3.93 1.34 5.9 1.88 4.96.53 10.67 1.56 14.77-2.07-.83-8.22-9.8-11.3-16.77-12.46-5.18.01-10.36.11-15.51-.42m-44.48 7.57c1.9 4.7 5.31 9.44 10.58 10.52 5.27.72 10.83 1.14 15.84-1.01-3.09-3.57-6.29-7.05-9.34-10.65-5.62 1.01-11.38 1-17.08 1.14m-18.5 16.57c-6.85 6.46-9.47 15.78-12 24.53-1.4 8.75-4.78 17.17-4.99 26.1-.25 6.68-1.34 13.33-1.24 20.04.07 6.32-.02 12.64-.01 18.97-.2 6.41 1.72 12.62 1.67 19.03 1.24 6.98 1.66 14.11 3.78 20.91 2.52 8.52 4.29 17.36 8.44 25.29 3.01 5.55 5.26 11.6 9.34 16.51 5.58 6.28 9.31 14.6 17.16 18.54 6.12 3.92 14.39 2.49 19.87-1.89 4.87-4.41 9.04-9.87 10.77-16.3 2.06-7.26 3.86-14.61 4.86-22.09.89-6.34.21-12.89 1.86-19.12 2.9-.13 2.66 3.07 2.78 5.08.34 4.78-1.41 9.91 1.07 14.37 2.31 5.58 9.48 6.99 14.66 4.95 5.25-2.77 9.92-7.34 11.7-13.1 2.36-10.69 2.18-21.87.06-32.58-1-4.79-4.26-8.6-8-11.55-4.31 4.06-8.73 8.01-13.38 11.68 3.15 2.78 3.34 7.3 3.38 11.2-.9.82-1.93 1.46-3.1 1.91 1.64 2.25 3.78 5.97.91 8.16-3.36 1.67-6.58-.87-9.68-1.84-3.47 2.72-8.24 4.72-12.42 2.22-5.56-3.6-10.79-10.37-8.53-17.33.72-3.17 3.7-4.95 6.26-6.53-1.13-3.47-1.39-7.11-1.27-10.73-2.2 1.55-3.75 4.75-6.59 4.81-2.37-3.65-5.45-7.35-6.31-11.63 4.93-5.46 10.65-10.18 16.31-14.86-1.3-2.66-2.93-5.17-4.01-7.92.42-.37 1.26-1.12 1.68-1.49-1.18-1.7-1.94-3.64-1.74-5.74 0-10.59 1.03-21.14.62-31.73-2.86 5.48-6.05 10.86-7.99 16.75 3.28 10.74 6.45 21.72 6.49 33.04.33 2.61-3.23 1.94-3.17-.06-1.17-9.46-2.58-18.91-5.56-28-4.1 10.03-6.45 20.62-8.64 31.19 2.11 3.28 4.16 6.88 4.18 10.9.28 5.68-.73 12.4-5.84 15.8 3.31 11.24 5.78 22.7 8.65 34.06.41 1.86.92 3.93-.22 5.66-1.79-.29-2.01-2.27-2.55-3.61-3.45-11.55-5.52-23.45-8.93-35-3.05-.03-6.14-.33-8.96-1.56-2.34 3.79-3.88 8.18-7.16 11.32-1.51.82-2.9-.69-1.89-2.09 2.43-3.55 4.36-7.4 6.79-10.94-.41-.53-1.23-1.57-1.64-2.09-2.84 1.36-5.66 2.92-8.81 3.44.57-3.57 4.87-4.06 7.43-5.75-.33-1.9-.62-3.79-.89-5.68-2.99-.1-5.98-.16-8.95-.43.25-4.28 5.45-2.12 8.27-2.71-.04-1.45-.08-2.89-.11-4.31-2.98-2.11-6.55-3.59-8.68-6.68 3.61-.8 6.24 2.32 9.16 3.87 1.21-2.52 2.08-8.48 6.11-6.9-3.52 6.56-4.01 14.54-1.4 21.5.66 1.87 2.25 2.74 4.21 2.37.06.52.19 1.58.25 2.11 1.69.2 3.38.41 5.07.64-.18-1.57-.29-3.14-.32-4.7 2.34-.79 2.69 2.12 3.76 3.5 1.85-2.22 3.4-4.8 3.72-7.73.95-3.99-.99-7.76-1.93-11.54-1.41 4.33-.62 10.78-5.64 12.89-3.89 1.24-7.42-2.72-7-6.46.21-11.26 2.24-22.5 5.69-33.22 3.19-8.19 6.23-16.45 9.52-24.6-4.24-6.53-7.57-14.56-15.35-17.65-4.91 1.24-6.88 6.43-8.66 10.62-4.74 10.27-6.47 21.65-7.32 32.85-.9 7.98-1.92 16.01-1.36 24.06 1.04 15.07 1.3 30.44 6.05 44.93 4.08 12.24 8.87 24.38 16.08 35.15 2.47 3.88 7.09 5.48 11.36 6.43 3.38.6 6.48-1.51 8.43-4.09 4.11-5.13 6.1-11.65 7.21-18.04.88-4.29.25-8.89 2.22-12.92.33.6.99 1.81 1.32 2.41.26 6.44-1.14 12.79-1.85 19.17-1.4 6.78-4.73 13.92-11.19 17.19-4.61 2.26-9.74.52-14.08-1.49-6.48-4.32-10.56-11.26-13.96-18.09-4.3-8.08-7.03-16.86-9.61-25.61-2.23-5.62-2.61-11.74-3.75-17.62-1.07-15.49-3.99-31.1-1.47-46.6.42-11.19 1.93-22.42 5.52-33.04 2.56-5.59 4.05-12.04 8.79-16.29 2.54-2.49 6.6-3.01 9.85-1.77 6.83 2.65 10.91 9.43 13.66 15.87 2.01-4.03 4.72-7.66 6.75-11.66-1.95-5.79-6.93-9.73-10.7-14.31-6.43-5.82-17.84-8.71-24.87-2.35m47.8-3.41c.86 21.68.34 43.39-.57 65.05-.26 1.34-.69 2.64-1.29 3.89 2.51-1.02 5.04-2.02 7.46-3.23-.42-11.55.32-23.1-.1-34.64-.28-8.01-.34-16.01-.01-24.01-1.52-2.57-3.64-4.73-5.49-7.06m-21.58 1.45c4.4 4.21 9.35 8.14 12.38 13.52 1.5-2.31 3.18-4.51 5.19-6.41.07-2.23.1-4.46.15-6.69-5.83 1.55-11.9.7-17.72-.42m56.36 1.48c1.87 2.56 3.88 5.02 5.99 7.38 13.99.35 27.96.8 41.95.62-.04-2.23-.1-4.45-.18-6.67-4.89-.04-9.8.16-14.67-.32-11.03-.53-22.1.25-33.09-1.01m-25.59 9.16c1.35 16.66 1.39 33.38.55 50.05 8.62-6.48 15.54-14.88 23.77-21.82-5.51-4.9-9.91-10.83-14.93-16.19-3.48-3.73-6.23-8.05-9.39-12.04m68.07 2.72c1.17 1.62 2.31 3.25 3.43 4.91.94-.61 1.88-1.22 2.82-1.82-.09-1.02-.17-2.03-.26-3.04-2-.01-3.99-.03-5.99-.05m-88.63 12.13c-5.51 8.5-8.24 18.36-12.13 27.63-5.57 12.7-8.41 26.63-8.44 40.47-.08 2.79 2.87 1 2.88-.76 1.35-7.81 3.25-15.52 4.81-23.3 4.23-16.27 10.53-32.19 19.93-46.2 1.15-3.12.54-6.62.65-9.89-2.63 3.98-5.15 8.02-7.7 12.05m55.71-12.56c3.18 3.25 5.45 7.28 8.69 10.46 2.79.51 5.95 0 8.33 1.86 5.71 4.21 6.6 13.51 1.71 18.69-2.68 4.58-8.45 5.05-13.21 4.76-3.24 4.04-6.2 8.3-9.47 12.31-7.08 9.88-13.02 20.5-20.05 30.41.45.53.9 1.06 1.36 1.59 1.93-3.24 5.29-5.1 8.14-7.39 5.4-4.26 10.21-9.19 15.58-13.48 5.88-4.78 11.04-10.4 17.05-15.03 4.79-3.81 9.44-7.8 14.39-11.4 3.69-2.21 2.21-7.18 3-10.75-1.52-1.84-3.27-3.71-3.7-6.15-.4-2.76.64-5.42.93-8.12-1.06-2.44-2.65-4.59-3.99-6.87-9.6.2-19.19-.37-28.76-.89m53.02 4.44c-4.72.92-9.85 1.04-14.02 3.69-2.76 1.42-2.61 4.99-2.22 7.62 1.54 3.27 5.62 3.2 8.71 3.27 6.34-.18 12.81-1.14 18.61-3.81 4.61-1.91 3.35-9.53-1.04-10.89-3.33-.47-6.73-.41-10.04.12m7.12 17.08c-.04.74-.13 2.22-.17 2.96 3.23-1.28 6.57-2.3 10.07-2.4-.48-1.46-.96-2.93-1.43-4.38-2.67 1.59-5.59 2.66-8.47 3.82m-20.28 1.49c-.78 12.58-2.46 25.21-.55 37.78-.35 8.68 1.13 17.29 2.29 25.87 1.25 19.97 6.23 39.43 9.83 59.05 2.8 11.59 7.28 22.74 12.55 33.42.81 2.08 3.1 2.63 5.09 2.1-4.3-6.83-5.35-14.95-8.05-22.44-7.73-28.41-10.39-57.82-13.89-86.95-1.09-16.12-1.72-32.36-.19-48.48-2.37-.05-4.73-.15-7.08-.35m11.41.46c0 2.4-.01 4.79-.01 7.2 2.52-2.11 5.79-4.06 5.68-7.83-1.89.18-3.78.38-5.67.63m-.53 12.94c-.58 6.76.09 13.5.2 20.27 2.57-5.58 6.21-11.45 12.44-13.34 3.99-.49 8.36.11 11.66 2.57 7.82 5.26 13.1 13.24 17.83 21.2 4.74 8.62 9.47 17.31 12.68 26.64 2.71 7.27 5.95 14.37 7.66 21.97 3.56 12.88 6.53 25.91 8.88 39.07 5.13 23.23 8.27 47.09 6.96 70.92.22 10.73-2.04 21.27-3.16 31.91-.79 5.02-2.37 9.87-4.04 14.66-2.36 4.76-4.39 9.97-8.68 13.4-5.83 4.29-14.13 4.51-20.19.61-1.87-1.77-3.64-3.68-5.94-4.89-4.71-2.58-6.68-7.81-9.57-12.02-6.82-12.39-12.63-25.35-16.82-38.88-3.45-9.99-6.74-20.06-9.32-30.31-1.77-8.79-4.34-17.46-4.8-26.46-2.16-13.8-3.74-27.79-2.44-41.77-.48-6.53-2.59-12.85-3.47-19.35-2.27-11.27-2.97-22.75-4.29-34.14-1.59 8.95-2.24 18.03-2.53 27.11-.82 5.34-.75 10.74-.67 16.14.41 23.81 3.02 47.53 7.07 70.98 3.86 15.99 6.82 32.25 12.94 47.6 7.63 21.6 13.34 45.04 29.19 62.41 3.25 5.84 9.39 8.87 15.22 11.54 8.11 3.08 17.32 1.84 25.16-1.47 11.64-6.84 18.96-19.23 22.3-32.05 2.71-11.59 3.74-23.47 5.94-35.14-.31-18.67 1.39-37.66-2.43-56.09-1-9.76-1.96-19.61-4.82-29.04-3.43-15.85-8.19-31.37-13.11-46.81-2.75-10.67-6.95-20.89-11.2-31.03-5.72-12.66-11.4-25.64-20.61-36.22-7.09-8.3-14.83-17.77-26.18-19.79-8.63-1.79-16.24 3.94-21.86 9.8m-35.76 15.89c-2.95 2.68-5.65 5.63-8.82 8.06-7.56 6.07-14.5 12.86-22.24 18.68-5.65 4.95-11.61 9.52-17.21 14.53 1.27 1.64 2.63 3.21 4.05 4.73 6.71-4.57 12.17-10.73 18.51-15.79 15.39-11.83 29.67-24.98 44.66-37.3.38-3.01.35-6.06.84-9.06-6.63 5.34-13.25 10.7-19.79 16.15m40.84 2.57c-2.25 4.14-5.15 8.54-4.46 13.48 1.01 11.12 2.68 22.17 3.76 33.28 2.9 21.74 5.95 43.65 12.87 64.55 7.24-.2 14.35-1.74 21.57-2.11.71.39 2.13 1.19 2.84 1.59-.98.71-1.65 2.2-3.05 2.16-6.82.77-13.62 1.66-20.47 2.16.71 2.08 1.43 4.16 2.31 6.18 7.43-1.28 14.81-2.91 22.3-3.79.36.62 1.06 1.86 1.41 2.47-1.37.88-2.81 1.71-4.47 1.89-5.77.96-11.46 2.41-17.32 2.75-.13 1.39-.19 2.81-.5 4.19-3.46 2.77-10.07 3.29-11.9-1.5-5.65-11.58-10.7-23.57-13.53-36.17-.2 8.71 1.8 17.26 2.94 25.86 1.63 15.95 5.98 31.5 10.8 46.76 4.32 12.07 7.89 24.48 13.77 35.93 3.08 5.55 5.44 11.48 9.1 16.7 2.35 4.87 7.3 7.43 10.72 11.4 5.92 2.98 14.38 2.21 18.27-3.66 4.84-6.87 8.23-15.01 8.61-23.46 1.01-8.63 2.91-17.18 2.92-25.91-.1-5.66.92-11.27.67-16.93.35-9.74-1.12-19.4-1.9-29.08-.29-6.1-1.98-12-2.86-18.01-3.89-19.45-7.71-38.98-13.76-57.9-3.31-8.28-6.21-16.73-9.97-24.82-5.2-9.6-9.97-19.65-17.38-27.79-3.81-3.64-7.92-8.23-13.68-7.98-4.28.65-7.68 4.03-9.61 7.76m-32.66 9.33c-3.7 6.53-8.96 12.36-15.7 15.82 4 4.78 8.16 9.44 12.67 13.76 1.06-4.07 2.47-8.04 4.73-11.61 2.78-6.59 6.49-12.71 9.8-19.02.28-4.46-.47-8.93-.53-13.39-4.97 3.7-7.83 9.27-10.97 14.44m-30.92 20.46c2.53 1.55 4.61 3.67 6.41 6.01 2.41-2.18 4.55-4.64 6.78-7-.93-1.72-4.03-4.97-.81-5.95 7.28-2.94 12.55-9.28 16.11-16.08-9.45 7.72-18.7 15.71-28.49 23.02m-42.95-11.1c-2.34 2.36-5.21 4.4-6.64 7.5 2.25-1.1 4.11-2.75 5.95-4.41.78-.99 1.62-2.04 3.02-1.89.04-1.96 1.63-3.44 3.24-1.75-.43-1.88-.16-4.68 2.47-2.95.14-1.25.25-2.52.33-3.76-3.22 1.89-5.52 4.91-8.37 7.26m25.62 5.38c-.04.66-.14 1.98-.19 2.64-.95.59-1.9 1.19-2.86 1.79-1.86-1.37-3.63-2.84-5.42-4.28-1.45 3.47-1.57 7.25-1.16 10.96 2.54-2.02 5.01-4.14 7.59-6.13 1.13-.73 2.31-1.44 3.19-2.48.11-.97-.77-1.69-1.15-2.5m-25 25.78c-.48 4.64 3.07 8.47 6.44 11.17 2.48 2.34 7.65 1.48 8.28-2.18-1.8.57-3.82 3-5.68 1.38-1.91-2.35-2.78-5.36-3.78-8.18 2.34-2.84.03-5.63-1.54-8.14-1.43 1.82-3.6 3.44-3.72 5.95m8.92 2.52c.61 1.31 1.22 2.63 1.82 3.96 4.75-2.78 10.22-3.51 15.58-4.22-.51-1.91-.92-3.84-1.66-5.67-5.81-.5-11.91 1.4-15.74 5.93m44.54 7.7c2.87-.32 5.76-.58 8.65-.43-.07-2.03-.09-4.05-.1-6.07-2.88-.14-5.76-.27-8.65-.17.06 2.21.09 4.44.1 6.67z"/><path d="m147.73 10.81c1.43-.47 2.86-.47 4.28.01 9.73 2.88 18.85 7.47 27.41 12.87.51 1.24.59 3.39-1.33 3.06-4.88-.91-8.76-4.36-13.22-6.34-5.7-2.52-11.47-4.87-17.16-7.4.01-.55.01-1.65.02-2.2z"/><path d="m135.36 17.53c-1.53-.35-.8-2.09-.97-3.14 6.82.52 12.78 4.22 18.72 7.26 4.05 2.91 9.52 4.7 11.68 9.56-1.47.6-3.08 1.72-4.43.25-7.86-5.45-16.23-10.13-25-13.93z"/><path d="m120.36 23.83c.02-.62.08-1.88.11-2.5 5.97.94 11.41 3.76 16.77 6.41 4.06 1.87 7.76 4.49 11.02 7.53.76 1.44.33 2.46-1.29 3.06-3.02-.62-5.07-3.1-7.6-4.65-6.14-3.65-12.67-6.6-19.01-9.85z"/><path d="m192 79.33c2.38-3.86 5.02-7.97 9.32-9.91.81 4.07-2.93 7.03-4.45 10.5 1.62-1.08 3.27-2.16 5.03-3.02-.15 4.22-3.82 6.94-6.39 9.85 3.54 1.49 6.25 4.38 7.93 7.79 3.49 6.68 6.61 13.93 6.66 21.58-.65 4.02-1.12 8.8-4.67 11.38-1.79 1.64-4.33 1.33-6.54 1.31 1.95 1.45 5.46 2.46 4.56 5.53-2.33.95-4.13-.92-5.91-2.1-2.75-2.16-4.94-4.92-6.99-7.73.42-.34 1.26-1.04 1.68-1.38 3.18.68 6.4 2.4 9.69 1.8 4.19-1.58 3.85-6.85 3.96-10.51-.5.26-1.5.78-2.01 1.04-.4 1.54.36 4.11-1.87 4.33-1.77 1.1-1.8-2.1-2.63-3.05-3.91-.16-10.27.28-11.28-4.64.25-.21.74-.64.98-.86 4.39 1.34 9.38 2.67 13.72.46 1.04-.48 2.82-1.32 1.94-2.81-1.56-5.18-3.68-10.27-6.63-14.83-1.18-1.93-3.21-2.96-5.23-3.77-3.26 1.88-4.97 5.19-4.81 8.95-.52.2-1.54.59-2.06.79-.24-.4-.71-1.2-.95-1.6-4.59-.75-7.96-4.94-9.04-9.28-.83-3.44-2.19-7.28-.01-10.51 2.24 4.31 2.7 9.46 6.07 13.23 2.66-6.43 5.53-12.79 9.12-18.76.7-1.35 2.07-2.09 3.23-2.97.87 3.34-1.29 6.23-2.42 9.19z"/><path d="m148.11 76.05c.92-2.22 3.02-.1 3.82.95 3.91 5.44 9.26 9.53 13.77 14.43 1.79-4.77 2.02-9.92 3.42-14.77.48-.2 1.43-.61 1.91-.82 1.25 7.36.94 15.42-3.29 21.83-.75 1.34-2.31 1.73-3.6 2.33.2 2.06.13 4.13-.93 5.97-3.63-1.28-2.88-5.67-4.71-8.38-1.34-3.21-6.29-4.62-8.52-1.57-4.57 5.18-4.67 12.64-5.44 19.15 6.33 2.2 13.19 1.36 19.33-.99.44.14 1.33.42 1.77.56.41 2.54-2.17 3.38-3.78 4.62-.09 1.9-.1 3.92-1.57 5.35-.62-.41-1.86-1.22-2.48-1.63-.04-.71-.13-2.14-.17-2.85-4.41.44-8.98.74-13.2-.91.3 3.91.57 8.04 2.47 11.57 1.19 2.22 3.81 2.79 5.98 3.56 2.1-.64 4.58-.75 6.17-2.45 1.65-1.9 2.61-4.4 4.84-5.76.4.68 1.18 2.05 1.58 2.74-2.9 5.35-5.59 11.78-11.38 14.55-3.39-1.12.48-3.83 1.6-5.26-4.33.62-9.03-.71-11.76-4.27-2.02-2.93-2.69-6.53-3.23-9.98-.44-8.21-.26-16.68 2.66-24.47 1.57-3.76 4.18-7.46 8.22-8.81-3.62-3.08-9.1-5.32-10.22-10.32 3.15.03 5.29 2.56 7.96 3.82-1.58-2.74-4.85-4.52-5.1-7.93 3.75.79 5.79 4.3 8.28 6.86-1.61-2.28-3.33-4.52-4.4-7.12z"/><path d="m100.74 94.05c0-4.48.22-10.18 4.51-12.8.27 3.4-2.02 6.3-1.96 9.69-.54 3.07.63 5.97 1.96 8.66-3.37 1.3-4.53-3.02-4.51-5.55z"/><path d="m175.56 95.54c4.33-1.04 4.74 4.57 6.29 7.34 5.32 14.77 10.24 29.72 16.43 44.17.95 1.67-.99 3.12-1.98 4.24-2.7 1.65-5.48-.56-7.67-2.03-3.7-2.98-6.95-6.5-9.91-10.21-1.72 1.23-3.44 3.2-5.8 2.56-2.44-.15-3.48-2.7-4.73-4.39-1.88 4.49-2.55 9.78-5.98 13.43l-1.34-.68c.02-.49.04-1.48.05-1.98 2.31-7.13 5.2-14.08 8.2-20.95.84-2.18 2.81-3.5 4.81-4.51 1.8 1.03 4.8 1.67 4.96 4.21-.34 3.34-3.32-.27-5.04-.57-2.99 3.3-3.29 8.68-.5 12.19 2.25-1.34 2.61-5.08 5.53-5.12 4.78 5.45 9.3 11.51 15.73 15.1-4.77-12.04-9.46-24.11-13.72-36.33-1.62-5.54-4.26-10.77-5.33-16.47z"/><path d="m163.78 151.97c.86-1.12 1.78-4.1 3.5-2.42 1.63 4.55 3.22 9.95 8.16 11.96 3.42.49 7.47.64 10.15-1.94 2.3-1.74 2.45-4.81 3.4-7.31 3.1-.07 3.31 3.42 4.12 5.66 1.39 7.15.53 14.89-3.04 21.31-2.01 3.61-5.88 6.29-10.1 6.26-5.26-.03-10.6-2.43-13.74-6.72-5.49-7.69-6.06-18.21-2.45-26.8m1.75 2.52c-.95 4.86-1.02 9.84.13 14.68 1.09-2.39 2.14-4.79 3.35-7.12-1.64-2.29-2.72-4.87-3.48-7.56m24.24 9.35c1.57-.17 1.44-3.1-.04-3.31-1.7.18-1.67 3.17.04 3.31m-7.73 1.93c1.28 2.68 2.4 5.44 3.38 8.25.22-3.2.27-6.4.24-9.59-1.2.45-2.41.9-3.62 1.34m-14.82 7.16c.89 2.39 2.72 4.23 4.47 6.03-.39-4.65-.72-9.31-1.18-13.95-1.12 2.62-2.56 5.15-3.29 7.92m6.31-7.49c.48 4.24.86 8.5 1.45 12.73.97-4.14 2.2-8.21 3.48-12.25-1.64-.15-3.29-.31-4.93-.48m14.76-.36c.02 3.04.11 6.08.48 9.11.57-2.41 1.02-4.84 1.48-7.26-.65-.62-1.31-1.24-1.96-1.85m-8.1 4.02c-1.2 3.91-2.31 7.86-3.54 11.77 2.57.66 5.16.24 7.6-.72-1.41-3.67-2.71-7.37-4.06-11.05z"/><path d="m292.62 320.5c1.86-3.01 5.56-3.87 8.7-4.86 1.04 3.05-2.3 3.93-3.92 5.71-2.7 2.82-2.21 7.04-3.59 10.44-1.04.37-2.11.61-3.18.88-1.74-4.13-.13-8.54 1.99-12.17z"/><path d="m298.73 330.49c-.75-4.9 3.83-9.1 8.22-10.25 1.47-.61 2.4.9 3.26 1.79-1.82 1.23-3.88 2.11-5.54 3.58-1.68 1.76-2.11 4.26-2.92 6.47-1.01-.46-2.93-.08-3.02-1.59z"/><path d="m317.19 386.32c1.48-.82 3.05.49 4.37 1.12 5.42 3.77 10.13 8.47 14.78 13.13 2.17 2.47 4.81 4.93 5.49 8.29-.54 1.66-1.96 2.92-3.71 3.13-4.41-1.95-7.23-6.07-10.43-9.48-3.7-4.39-7.78-8.55-10.8-13.46-.24-.82-1.4-2.71.3-2.73m1.56 1.8c4.61 6.94 10.37 13.07 16.05 19.15 1.24 1.07 4.35 4.31 4.64.84-1.42-3.2-4.08-5.6-6.46-8.07-4.47-4.27-8.88-8.75-14.23-11.92z"/><path d="m302.29 400.1c-.31-3.95-1.83-8.79 1.76-11.72 1.57 2.12 2.67 4.53 3.34 7.08 2.28 8.03 4.41 16.15 5.45 24.45.25 1.89.26 4.5-1.83 5.4-2.55.61-5-1.06-5.75-3.47-2.6-6.94-1.86-14.52-2.97-21.74m1.49-8.55c-.13 5.53 1.05 10.97 1.27 16.49.39 4.32.41 8.81 2.03 12.9.46 1.75 2.04 2.37 3.71 2.61.23-5.57-1.19-11.02-2.39-16.41-1.34-5.26-2.55-10.57-4.62-15.59z"/><path d="m309.72 389.42c3.81.15 5.41 3.88 7.26 6.61 3.56 5.82 7.46 11.58 9.65 18.08 1.62 3.24-2.16 6.75-5.31 5.64-1.98-1.11-2.98-3.27-4.01-5.18-3.1-6.29-5.69-12.85-7.49-19.63-.54-1.81-.29-3.69-.1-5.52m1.54 2.24c1.3 7.23 4.17 14.07 7.24 20.71.96 2.16 2.26 4.16 3.76 6 1.66-.78 3.5-2.22 2.25-4.26-3.32-8.03-7.9-15.61-13.25-22.45z"/><path d="m308.96 443.46c3.64-6.15 6.18-13.1 11.1-18.38.5-.01 1.49-.03 1.99-.04 2.4 2.46 3.34 5.86 5.11 8.73 1.2 2.12 2.94 3.92 3.88 6.19.43 2.17-2.14 3.66-4 2.85-2.67-.83-4.97-2.48-7.37-3.85-3.19 4.5-5.28 9.67-8.55 14.11-1.58 2.26-4.46 3.2-7.08 3.48-5.17-1.07-9.23-6.3-8.04-11.67-.3-4.3 4.75-6.76 8.36-5.19 1.78.92 3.13 2.44 4.6 3.77m-.04 3.48c-1.75-2.08-3.32-4.53-5.89-5.66-1.76-.06-4.33.13-4.74 2.27-.79 3.27-.47 7.33 2.66 9.29 2.65 2.93 7.44 1.26 9.16-1.82 3.2-4.78 5.49-10.09 8.71-14.87 3.45 1.85 6.63 4.38 10.57 5.14-2.99-4.73-5.7-9.6-8.34-14.53-5.02 6.13-7.45 13.85-12.13 20.18z"/><path d="m333.39 440.61c5.52-2.35 12.7 1.21 13.59 7.31.03 4.63-3.73 8.14-7.56 10.14-.44 3.27-.18 6.62-.9 9.86-.28 2.35-2.94 2.56-4.64 3.48-2.82-3.65-2.89-8.35-3.17-12.74-1.8 2.57-3.11 5.65-5.68 7.56-2.04 1.47-5.38-.75-4.41-3.18 1.78-5.31 4.78-10.1 7.45-14.99 1.57-2.6 2.9-5.51 5.32-7.44m-.79 3.89c-3.84 6.48-8.03 12.92-10.29 20.16 4.3-.68 4.83-5.83 7.75-8.32 1.14-.5 2.01-.17 2.61.97.87 3.85-.36 8.37 2.27 11.68l1.4-.94c1.15-3.56.42-7.42.85-11.09 3.16-1.72 6.68-3.72 7.6-7.51 1.17-6.05-9.02-10.65-12.19-4.95z"/><path d="m333.91 447.94c.84-1.07 1.45-2.92 3.07-2.9 2.2-.56 3.33 1.83 4.52 3.18-1.37 3.37-5.06 5.49-8.66 4.6-1.18-1.59.42-3.41 1.07-4.88m3.53-1.13c-1.18 1.4-2.14 2.96-3.05 4.55 1.9-.49 6.33-2.67 3.05-4.55z"/><path d="m350.94 447.84c1.81-1.63 4.33.07 4.87 2.08-1.35 5.05-4.33 9.43-6.43 14.17 2.47-3.13 4.06-6.94 7-9.69 1.74-2.09 5.3-.72 6.06 1.64.65 3 .08 6.08-.18 9.09 1.9-2.16 3.91-6.02 7.37-4.79 3.05 1.68 1.12 5.26-.15 7.45 3.11-1.44 7.57-2.26 10.12.64 2.34 2.49 1.53 6.42-.6 8.78-1.57-1.37-3.05-2.83-4.46-4.35-1.49 1.28-2.93 2.62-4.34 3.98 3.23 1.34 8.38 1.39 9.62 5.26-.8 5.67-5.66 11.9-11.98 10.78-5.76-1.26-8.02-8.18-6.66-13.38-1.12 1.24-2.26 2.46-3.38 3.7-1.41-.24-2.82-.4-4.18-.81-.95-3.9.49-7.89.69-11.8-1.52 2.11-2.74 4.48-4.66 6.26s-4.83-.62-4.67-2.82c.28-2.22 1.47-4.24 2.18-6.31-1.74 2.01-2.82 4.87-5.3 6.15-1.68.1-3.64-.92-3.54-2.83.57-4.84 3.21-9.07 5.46-13.28 2.11-3.47 3.98-7.29 7.16-9.92m1.42 1.32c-2.94 2.63-4.71 6.21-6.76 9.52-2.32 4.18-4.86 8.45-5.34 13.32 2.25-.44 3.21-2.67 4.42-4.33 3.43-5.67 6.8-11.47 9.08-17.71-.35-.2-1.05-.6-1.4-.8m-2.65 18.75c-1.23 2.45-3.65 5.26-1.88 8.04 3.16-3.72 5.58-7.99 8.58-11.84.65 5.83-.98 11.52-1.2 17.32 5.09-1.74 6.73-7.47 9.98-11.25 1.45-2.55 4.79-4.97 3.72-8.17-3.89 1.14-5.29 5.69-8.45 7.99-.47-3.35-.11-6.71.24-10.04.13-1.93.26-4.86-2.48-4.57-3.68 3.54-5.75 8.3-8.51 12.52m21.7 1.32c-4.06 2.72-6.72 7.15-8.25 11.72-1.49 4.37 1.88 10.67 6.97 9.99 4.52-.6 6.58-5.22 7.92-9-2.49-1.28-5.11-2.3-7.83-2.95.08 2.31 1.8 3.98 2.72 5.98-.26 1.87-2.05 3.24-3.93 3.08-2.7-.99-4.36-4.18-3.16-6.91 1.57-3.82 3.9-7.67 7.52-9.84 2.51-1.32 4.03 1.86 5.72 3.13-.12-1.41-.32-2.81-.61-4.18-1.48-2.22-4.93-2.18-7.07-1.02m-.43 16.71c-.97-1.8-2.03-3.55-3.12-5.27-.56 2.39-.12 5.6 3.12 5.27z"/><path d="m135.59 470.38c-.04-.52-.12-1.58-.16-2.11 5.03 2.3 9.88 5.71 12.32 10.84-.11.7-.33 2.11-.44 2.81-1.56-1.55-2.83-3.34-4.16-5.07-1.99-2.73-5.24-4.09-7.56-6.47z"/><path d="m325.83 471.74c5.65-2.89 12.56 2.41 12.92 8.28-.1 4.59-4.42 6.79-7.37 9.5-1.26 4.17.02 9.33-3.14 12.76-1.34 1.37-2.99-.43-4.16-1.14-.09-3.84-.34-7.68-.96-11.47-2.18 2.73-3.56 6.07-6.08 8.51-2.1 1.79-5.3-.78-4.87-3.22.83-4.17 3.5-7.63 5.48-11.3 2.56-4.06 4.52-8.7 8.18-11.92m.43 2.3c-3.89 4.74-6.5 10.38-9.72 15.58-1.09 2.35-3.63 5.28-1.21 7.61 2.94-3.13 4.31-7.42 7.57-10.29.6.34 1.79 1.02 2.39 1.36.49 4.34.33 8.77 1.38 13.04 2.2-3.43 1.92-7.62 2.43-11.49-.03-2.48 2.7-3.22 4.27-4.54 2.48-1.61 4.52-5.28 2.46-7.96-1.52-3.38-6.4-5.91-9.57-3.31z"/><path d="m134.06 473.66c2.63-.6 4.44 1.56 6.19 3.07 2.79 2.87 6.13 5.93 6.16 10.27-2.28-.91-3.19-3.24-4.61-5.02-2.25-3.08-5.5-5.23-7.74-8.32z"/><path d="m328.17 476.01c2.01-1.7 4.3.94 4.78 2.84 1.31 4.28-5.32 6.79-8.12 4.17.71-2.49 1.68-4.99 3.34-7.01m1.65 1.11c-.97 1.69-1.86 3.42-2.68 5.19 1.27-.45 2.57-.87 3.81-1.45-.25-1.29-.69-2.52-1.13-3.74z"/><path d="m341.85 480.8c1.78-2 5.67.35 4.7 2.86-1.15 4.79-3.82 9-5.67 13.53 2.68-3.99 4.6-8.76 8.57-11.7 1.35-1.09 3.21-.33 4.37.68.57 3.83.24 7.73.21 11.59 1.84-2.3 3.43-4.99 6-6.55 1.55-.4 2.95.78 3.96 1.82.37 2.34-1.1 4.35-2.07 6.34 3.39-2.58 7.93-4.62 12.08-2.46 3.98 1.44 4.64 8.03.5 9.65-2.48 1.02-3.21-2.5-4.34-3.88-1.78 1-3.48 2.15-5.11 3.38 3.28 1.15 6.96 2.11 9.26 4.94.22 2.18-.79 4.26-1.34 6.33.52-.06 1.57-.18 2.09-.24.1-4.77 3.99-7.9 6.98-11.09 2.51-2.39 4.98-5.55 8.78-5.57.46 1.22.92 2.45 1.39 3.68-2.97 6.41-7.79 12.24-13.98 15.75-.79 2.13-1.79 4.56-4.25 5.18-2.31.22-3.56-1.89-4.66-3.52-2.83 1.22-6.25 2.26-8.91.07-4.97-2.8-5.03-9.26-3.55-14.09-1.74 2.36-3.36 4.9-5.62 6.81-1.71 1.72-5.06-.11-4.96-2.4-.3-3.36.19-6.71.48-10.05-1.63 3.31-3.29 6.85-6.7 8.67-1-1.18-2.45-2.09-2.97-3.58.21-2.4 1.17-4.64 1.94-6.89-1.43 2.04-2.37 5.04-5.02 5.78-1.68-.45-3.77-1.84-3.24-3.87.89-4.28 3.3-8.01 5.22-11.87 1.77-3.2 3.33-6.61 5.86-9.3m-6.74 15.4c-1.01 2.5-3.31 5.36-1.31 7.98 3.11-3.67 5.11-8.08 7.29-12.33 1.63-3.27 3.41-6.62 3.44-10.37-4.64 3.76-6.53 9.68-9.42 14.72m10-2.1c-2.34 3.95-4.94 7.87-6.03 12.39.38.39 1.13 1.17 1.51 1.57 2.92-3.62 4.56-8.07 7.63-11.59 1.45 5.66-1 11.47.59 17.09 4.78-3.63 7.44-9.17 10.7-14.05 1.06-2.17 3.29-4.48 1.75-7-3.05 2.58-4.97 6.12-7.64 9.04-.27.58-.54 1.16-.8 1.75-1.27-5.5-.5-11.15-.81-16.73-3.37 1.3-5.07 4.66-6.9 7.53m21.04 4.96c-5.55 3.01-8.74 9.65-8.01 15.86.62 3.74 5.03 7.54 8.77 5.33 3.73-1.17 4.66-5.21 5.67-8.49-2.32-1.6-4.85-2.97-7.69-3.34.27 2.42 2.61 3.39 3.84 5.21-1.06 2.21-4.04 5.42-6.36 2.8-2.4-3.06-1.37-7.5.69-10.47 1.85-2.79 4.94-5.87 8.63-4.72 1.11 1.09 1.57 2.63 2.37 3.95.56-1.58 2-3.36.75-5-1.99-2.6-5.98-2.68-8.66-1.13m11.04 16c.28.68.85 2.04 1.13 2.72 3.83-2.95 7.23-6.5 9.99-10.47 1.19-1.44 1.56-3.23 1.42-5.05-5 3.29-9.31 7.78-12.54 12.8m-14.43-4.57c.45 1.92.06 5.18 3.02 4.44.27-2.02-2.01-3.03-3.02-4.44m8.9 8.84c.12 1.49.58 2.89 1.22 4.25 1.33-.99 3.66-2.17 2.59-4.21-1.27-.09-2.54-.11-3.81-.04z"/><path d="m126.44 495.97c.4-.49 1.2-1.46 1.6-1.95 1.96 4.39 1.99 9.26 2.62 13.94.49 4.61 1.13 9.31.63 13.92-.34.56-1.02 1.67-1.36 2.23-1.1-2.57-1.38-5.35-1.63-8.09-.62-6.69-1.73-13.34-1.86-20.05z"/><path d="m402.39 513.74c2.62 1.65 4.85 3.91 7.67 5.26 3.56.85 7.32.21 10.85 1.28 2.13 1.97-.12 4.42-1.27 6.26-4.96 6.44-8.32 14.08-14.2 19.8-1.84 1.7-4.53 3.56-7.08 2.15-4.92-1.97-5.6-9-2.86-12.98 2.84-2.55 7.12-1.68 9.81.66 1.37-2.37 2.72-4.74 4.05-7.12-2.94-1.03-5.79-2.3-8.53-3.78-4.28 5.51-7.17 12.33-12.88 16.58-3.13 2.53-7.11.05-9.2-2.6-2.54-2.81-1.57-7.24.59-9.95 3.09-2.19 7.21-1.31 10.45.08 4.28-5.16 7.68-11.03 12.6-15.64m-12.61 18.8c-2.46-2.91-9.18-4.19-10.17.58-1.61 3.7 2.14 7 5.38 7.93 7.49-3.6 9.82-12.58 15.44-18.21 3.71 1.97 7.51 3.75 11.6 4.83-1.66 3.99-3.71 7.88-6.38 11.3-2-.17-2.92-2.45-4.8-2.89-1.41-.07-2.78.33-4.15.58-.85 3.24-1.41 7.96 2.09 9.8 2.59 1.55 4.9-1.29 6.6-2.94 5.63-6.67 9.66-14.48 14.71-21.56-2.99-.39-6.02-.27-9.01-.6-3.45-.36-5.8-3.19-8.4-5.15-4.82 5.03-8.27 11.15-12.91 16.33z"/><path d="m118.52 514.39c2.93.43 3.31 3.57 4.39 5.75 1.61 4.61 4.23 9.09 4.02 14.12-3.33-1.39-3.64-5.37-4.89-8.29-1.16-3.87-3.51-7.44-3.52-11.58z"/><path d="m294.61 522.79c.34-.38 1.03-1.16 1.37-1.55 4.19 3.02 7 7.45 9.98 11.57 4.01 6.7 9.4 13.08 10.27 21.13-2.83-.37-3.47-3.38-4.63-5.48-4.8-9.08-9.67-18.32-16.99-25.67z"/><path d="m308.41 530.8c.49-.09 1.45-.29 1.93-.38 5.37 7.99 10.01 16.48 13.83 25.33 2.08 5.61 5.26 10.85 6.25 16.83-.6-.13-1.8-.4-2.41-.54-2.08-3.47-3.22-7.41-5.08-11-3.26-8.59-7.71-16.64-12.12-24.68-1-1.76-1.78-3.64-2.4-5.56z"/><path d="m115.4 535.47c-2.01-1.09.9-3.18 1.77-1.75 2.3 3.06 6.47 5.26 6.73 9.43-3.89-1-6.26-4.63-8.5-7.68z"/><path d="m146.92 539.95c.73-2.81 2.21-6.78 5.74-6.53-1.22 2.57-2.35 6.37-5.74 6.53z"/><path d="m275.15 533.43c.53.03 1.6.07 2.14.1 2.69 8.61 3.69 17.66 5.87 26.42 2.2 14.68 5.36 29.21 7.19 43.95.37 3.63 1.68 7.27.75 10.93-2.85-2.38-3.25-6.27-3.81-9.68-1.66-12.47-4.57-24.72-6.54-37.14-1.31-11.61-5.38-22.84-5.6-34.58z"/><path d="m151.57 542.73c.23-.09.71-.26.95-.35.72 3.6-3.78 5.27-6.45 6.39-.41-.1-1.23-.3-1.63-.4 1-3.07 4.55-4.2 7.13-5.64z"/><path d="m295.36 553.05c.45-.42 1.35-1.26 1.8-1.67.95 4.79.94 9.72 1.33 14.58-.06 14.67 1.6 29.33.71 44-.17 2.82.03 6.07-2.27 8.15-1.36-6.95.01-14.08-.52-21.11-.76-8.97-.95-17.98-1.13-26.98.2-5.67-.96-11.34.08-16.97z"/><path d="m266.3 567.48c-.64-3.11-2.16-6.13-1.7-9.37 2.81 1.75 3.21 5.23 4.28 8.08 4.83 13.6 8.52 27.59 14.15 40.89 1.22 4.31 3.34 8.38 4.1 12.81-.27.53-.79 1.6-1.05 2.13-3.38-3.68-4.27-8.79-5.96-13.33-5.53-13.41-9.6-27.35-13.82-41.21z"/><path d="m147.58 567.56c4.2.43 7.65 4.37 10.27 7.6-.53.26-1.58.77-2.11 1.03-3.19-2.01-5.99-4.61-8.67-7.25z"/><path d="m194.85 570.89c1.46-1.12 2.79.62 3.84 1.43 4.14 4.06 4.61 10.2 5.59 15.6.79 8.54 1.02 18.51-5.16 25.27-2.79 3.1-6.76 5.84-11.16 5.17-2.17-.33-5.74-.78-4.61-3.9 2.55-.15 5.1.53 7.65.16 2.21-.8 4-2.43 5.71-4 2.86-2.37 2.89-6.38 3.66-9.72.94-7.75.3-15.8-2.24-23.2-.7-2.44-3.94-4.28-3.28-6.81z"/><path d="m144.68 574.99c2.01-1.73 2.69 1.48 3.69 2.58 3.16 6.1 7.46 11.87 9.17 18.56.64 2.94-3.04 1.04-3.17-.67-2.98-6.32-6.86-12.16-9.76-18.5.02-.49.05-1.48.07-1.97z"/><path d="m131.9 578.69c.59-.14 1.76-.44 2.35-.58 1.62 7.84.73 15.88 1.36 23.81.18 2.76.41 5.61-.4 8.31-2.1.71-1.68-2.13-2.3-3.22-1.94-9.3-1.07-18.89-1.01-28.32z"/><path d="m193.58 578.21c1.12.78 2.69 1.37 3.08 2.85 2.54 5.62 2.4 11.98 2.13 18.01-.1 2.51-1.89 4.57-4.16 5.48-.6-2.63 1.27-4.85 1.25-7.43.21-3.69.05-7.41-.54-11.05-.52-2.64-1.83-5.11-1.76-7.86z"/><path d="m190.78 587.39c.83.05 1.66.17 2.49.35 1.1 3.95 1.71 8.52-.47 12.22-.81.35-1.63.64-2.48.89.4-4.5 1.34-8.93.46-13.46z"/><path d="m308.01 599.07c1.66-4.22 1.62-9.38 5.07-12.68.91 6.06-2.1 11.76-3.45 17.55-2.85 8.41-3.57 17.37-6.55 25.74-3.21.86-2.44-2.18-1.81-4.12 2.17-8.86 3.81-17.84 6.74-26.49z"/><path d="m320.47 616.63c.28-.08.84-.25 1.12-.33.93 2.34-1.21 4.24-2.23 6.14-1.31 1.64-2.19 4.43-4.74 4.18-.08-.37-.26-1.13-.35-1.5 1.82-2.95 3.58-6.25 6.2-8.49z"/><path d="m281.72 639.37c-1.25-6.86 6.16-14.96 13.25-12.58-3.03 2.7-7.8 3.31-9.58 7.38-1.37 1.7-.46 6.04-3.67 5.2z"/><path d="m307.21 629.77c4.46-.92 7.7 3.02 9.96 6.28 1.97-.84 3.92-1.73 5.89-2.58.36.43 1.09 1.28 1.45 1.7-1.83 1.48-3.86 2.68-5.99 3.68 1.52 3.37 2.35 6.99 2.85 10.64 2.9.16 6.01-.26 8.56 1.48-1.93 2.83-5.53 1.63-8.37 1.73-.15 1.91-.31 3.83-.52 5.75 2.93.89 5.99 1.66 8.56 3.43-1.75 3.96-6.36-.28-9.33-.52-1.42 3.44-3.54 6.52-5.67 9.55 5.82 6.6 11.64 13.23 17.05 20.15-.08.53-.25 1.61-.33 2.15-1.7 1.16-2.68-.86-3.71-1.76-5.36-6.11-10.33-12.55-15.61-18.72-1.9.28-5.54 2.29-6.05-.79 1.16-.91 2.41-1.67 3.65-2.44-.23-.38-.68-1.13-.91-1.51-2.82 2.04-6.2 3.81-9.81 3.02-5.17-.49-9.59-4.45-11.45-9.17-.63-1.35.39-2.4 1.17-3.34 2.68 4.16 6.3 8.24 11.53 8.83 1.88-.83 3.77-1.62 5.71-2.31-1.51-1.65-2.88-3.43-3.76-5.49 2.87-1.13 4.19 2.2 6.05 3.68.58-1.46 1.18-2.9 1.75-4.36-1.57-.52-3.15-.99-4.64-1.68-.67-3.28 3.35-1.1 4.96-1.48.13-1.23.25-2.44.37-3.65-1.71-.34-3.33-.91-4.64-2.08 1.56-.66 3.17-1.2 4.8-1.7-.48-1.62-.97-3.24-1.43-4.85-1.43.33-2.84.94-4.33.81-1.2-2.14 2.16-2.59 3.13-3.82-2.66-4.4-7.96-8.02-13.25-6.11-3.52.64-4.62 4.56-7 6.73-1.65-5.66 4.01-10.4 9.26-10.53 6.24-.86 11.86 3.48 14.69 8.74.76-.58 1.53-1.15 2.29-1.72-1.72-3.11-4.8-4.96-6.88-7.74m5.57 12.12c.72 2.25 1.33 4.53 1.77 6.86.78.07 2.35.2 3.13.27-.5-2.97-1.2-5.9-2.32-8.69-.86.52-1.73 1.03-2.58 1.56m1.64 10.14c-.32 1.56-.64 3.13-.96 4.71 1.33.33 2.67.65 4.01.97.16-1.77.31-3.54.47-5.3-1.18-.14-2.35-.27-3.52-.38m-1.04 7.89c-.82 2.03-1.74 4.02-2.78 5.96.39.57 1.18 1.7 1.57 2.26 1.64-2.47 3.27-4.96 4.68-7.57-1.16-.23-2.32-.45-3.47-.65z"/><path d="m278.42 674.47c2.17-3.54 3.62-7.65 6.91-10.38.52 1.36.65 2.84-.18 4.13-2.73 6.44-6.82 12.18-9.54 18.62-.51.79-1.23 2.67-2.48 1.83-1.49-.18-.67-2.28-.41-3.19 1.5-3.86 3.58-7.47 5.7-11.01z"/><path d="m290.7 671.38c.52.06 1.55.16 2.06.21-.12 3.89-1.32 7.6-2.39 11.31-2.41 9.79-4.58 19.64-6.28 29.58-.9-.03-1.81-.04-2.71-.05 1.47-13.97 5.22-27.64 9.32-41.05z"/><path d="m298.25 681.92c.32-2.46.56-4.98 1.69-7.23 2.5 3.2 1.45 7.47 1.45 11.22-1.36 12.67-.56 25.46-1.7 38.15-.62 6.25.7 12.82-1.62 18.81-1.2-.96-2.35-2.16-2.23-3.81-.24-7.38.28-14.76.61-22.13.36-11.68.13-23.42 1.8-35.01z"/><path d="m304.64 677.37c.57.01 1.72.02 2.3.03 2.76 5.97 3.7 12.56 5.78 18.77 2.54 7.39 4.32 15.02 6.84 22.43 1.15 4.82 3.55 9.58 2.79 14.66-3.83-3.47-4.54-8.84-6.12-13.49-2.81-8.13-4.82-16.5-7.45-24.68-1.43-5.9-2.22-11.94-4.14-17.72z"/><path d="m354.66 716.03c3.08 2.28 2.39 6.69 2.45 10.06-1.33 12.11-3.64 24.32-8.58 35.52-1.24 2.41-2.51 5.06-5.14 6.23-.4-4.38 2.62-7.91 3.77-11.93 4.32-12.86 6.75-26.37 7.5-39.88z"/><path d="m340.3 754.16c1.95-4.35 2.88-9.46 6.45-12.85.35 5.39-2.46 10.15-4.08 15.11-2.06 6.62-5.74 12.76-10.58 17.72-1.12 1.62-4.8 1.87-3.37-.94 4.88-5.64 9.3-11.86 11.58-19.04z"/></g><g fill="#fefefe" stroke="#fefefe"><path d="m119.52 8.75c13.85-5.11 28.91-4.75 43.43-3.93 8.8.4 17.56 1.88 25.93 4.68 7.97 1.4 14.71 6.09 21.7 9.86 5.15 2.68 9.46 6.59 14.08 10.03-16.23 4.69-32.56 9.06-48.56 14.48-29.11 10.23-57.66 22.39-84.34 37.97-7.51 4.55-15.06 9.1-21.7 14.89-.58-16.56 2.08-33.44 9.09-48.55 5.4-14.84 17.48-26.09 30.31-34.7 3.35-1.58 6.73-3.11 10.06-4.73m28.21 2.06c-.01.55-.01 1.65-.02 2.2 5.69 2.53 11.46 4.88 17.16 7.4 4.46 1.98 8.34 5.43 13.22 6.34 1.92.33 1.84-1.82 1.33-3.06-8.56-5.4-17.68-9.99-27.41-12.87-1.42-.48-2.85-.48-4.28-.01m-12.37 6.72c8.77 3.8 17.14 8.48 25 13.93 1.35 1.47 2.96.35 4.43-.25-2.16-4.86-7.63-6.65-11.68-9.56-5.94-3.04-11.9-6.74-18.72-7.26.17 1.05-.56 2.79.97 3.14m-15 6.3c6.34 3.25 12.87 6.2 19.01 9.85 2.53 1.55 4.58 4.03 7.6 4.65 1.62-.6 2.05-1.62 1.29-3.06-3.26-3.04-6.96-5.66-11.02-7.53-5.36-2.65-10.8-5.47-16.77-6.41-.03.62-.09 1.88-.11 2.5z"/><path d="m188.83 44.15c3.25-.91 6.58-2.52 10-1.56 4.76 1.2 9.66.8 14.5.66-4.95 2.96-10.32 5.76-16.26 5.61-5.59.83-11.33.84-16.43-1.95.75-.28 2.25-.85 2.99-1.13 5.99 1.41 12.41 1.97 18.39.23-3.76-2.96-8.84-.98-13.19-1.86z"/><path d="m167.63 51.51c2.99-1.46 6.13-2.72 9.42-3.34 8.13 5.32 18.04 5.06 27.34 5.42-12.11 3.1-25.17 2.85-36.76-2.08z"/><path d="m134.43 64.62c9.97-4.23 20.05-8.19 30.11-12.19 10.53 7.05 24.25 7.41 36.31 4.96 3.71 10.53 6.95 21.24 9.3 32.16 1.28 7.07 1.33 14.3 2.41 21.4 1.07 15.74-.91 31.5-4.13 46.87-1.94 7.57-4.82 14.94-8.66 21.75-2.73 3.97-5.83 7.72-9.26 11.12-3.91-1.81-8.29-1.09-12.43-1.72-4.86-.16-9.82.76-14.18 2.97-5.2-4.41-11.07-8.03-15.69-13.11-10.4-11.31-17.7-25.27-22.03-39.96-4.28-13.25-6.95-27-7.84-40.9-.29-8.35-2.49-16.67-1.16-25.03 1.99-1.25 4.19-2.14 6.33-3.11-.92 4.42-1.81 8.89-3.64 13.04-.66 1.69-1.83 5.06 1.2 4.74 3.86-2.43 5.76-6.71 8.39-10.25 2.71-3.76 3.92-8.29 4.97-12.74m57.57 14.71c1.13-2.96 3.29-5.85 2.42-9.19-1.16.88-2.53 1.62-3.23 2.97-3.59 5.97-6.46 12.33-9.12 18.76-3.37-3.77-3.83-8.92-6.07-13.23-2.18 3.23-.82 7.07.01 10.51 1.08 4.34 4.45 8.53 9.04 9.28.24.4.71 1.2.95 1.6.52-.2 1.54-.59 2.06-.79-.16-3.76 1.55-7.07 4.81-8.95 2.02.81 4.05 1.84 5.23 3.77 2.95 4.56 5.07 9.65 6.63 14.83.88 1.49-.9 2.33-1.94 2.81-4.34 2.21-9.33.88-13.72-.46-.24.22-.73.65-.98.86 1.01 4.92 7.37 4.48 11.28 4.64.83.95.86 4.15 2.63 3.05 2.23-.22 1.47-2.79 1.87-4.33.51-.26 1.51-.78 2.01-1.04-.11 3.66.23 8.93-3.96 10.51-3.29.6-6.51-1.12-9.69-1.8-.42.34-1.26 1.04-1.68 1.38 2.05 2.81 4.24 5.57 6.99 7.73 1.78 1.18 3.58 3.05 5.91 2.1.9-3.07-2.61-4.08-4.56-5.53 2.21.02 4.75.33 6.54-1.31 3.55-2.58 4.02-7.36 4.67-11.38-.05-7.65-3.17-14.9-6.66-21.58-1.68-3.41-4.39-6.3-7.93-7.79 2.57-2.91 6.24-5.63 6.39-9.85-1.76.86-3.41 1.94-5.03 3.02 1.52-3.47 5.26-6.43 4.45-10.5-4.3 1.94-6.94 6.05-9.32 9.91m-43.89-3.28c1.07 2.6 2.79 4.84 4.4 7.12-2.49-2.56-4.53-6.07-8.28-6.86.25 3.41 3.52 5.19 5.1 7.93-2.67-1.26-4.81-3.79-7.96-3.82 1.12 5 6.6 7.24 10.22 10.32-4.04 1.35-6.65 5.05-8.22 8.81-2.92 7.79-3.1 16.26-2.66 24.47.54 3.45 1.21 7.05 3.23 9.98 2.73 3.56 7.43 4.89 11.76 4.27-1.12 1.43-4.99 4.14-1.6 5.26 5.79-2.77 8.48-9.2 11.38-14.55-.4-.69-1.18-2.06-1.58-2.74-2.23 1.36-3.19 3.86-4.84 5.76-1.59 1.7-4.07 1.81-6.17 2.45-2.17-.77-4.79-1.34-5.98-3.56-1.9-3.53-2.17-7.66-2.47-11.57 4.22 1.65 8.79 1.35 13.2.91.04.71.13 2.14.17 2.85.62.41 1.86 1.22 2.48 1.63 1.47-1.43 1.48-3.45 1.57-5.35 1.61-1.24 4.19-2.08 3.78-4.62-.44-.14-1.33-.42-1.77-.56-6.14 2.35-13 3.19-19.33.99.77-6.51.87-13.97 5.44-19.15 2.23-3.05 7.18-1.64 8.52 1.57 1.83 2.71 1.08 7.1 4.71 8.38 1.06-1.84 1.13-3.91.93-5.97 1.29-.6 2.85-.99 3.6-2.33 4.23-6.41 4.54-14.47 3.29-21.83-.48.21-1.43.62-1.91.82-1.4 4.85-1.63 10-3.42 14.77-4.51-4.9-9.86-8.99-13.77-14.43-.8-1.05-2.9-3.17-3.82-.95m27.45 19.49c1.07 5.7 3.71 10.93 5.33 16.47 4.26 12.22 8.95 24.29 13.72 36.33-6.43-3.59-10.95-9.65-15.73-15.1-2.92.04-3.28 3.78-5.53 5.12-2.79-3.51-2.49-8.89.5-12.19 1.72.3 4.7 3.91 5.04.57-.16-2.54-3.16-3.18-4.96-4.21-2 1.01-3.97 2.33-4.81 4.51-3 6.87-5.89 13.82-8.2 20.95-.01.5-.03 1.49-.05 1.98l1.34.68c3.43-3.65 4.1-8.94 5.98-13.43 1.25 1.69 2.29 4.24 4.73 4.39 2.36.64 4.08-1.33 5.8-2.56 2.96 3.71 6.21 7.23 9.91 10.21 2.19 1.47 4.97 3.68 7.67 2.03.99-1.12 2.93-2.57 1.98-4.24-6.19-14.45-11.11-29.4-16.43-44.17-1.55-2.77-1.96-8.38-6.29-7.34m-11.78 56.43c-3.61 8.59-3.04 19.11 2.45 26.8 3.14 4.29 8.48 6.69 13.74 6.72 4.22.03 8.09-2.65 10.1-6.26 3.57-6.42 4.43-14.16 3.04-21.31-.81-2.24-1.02-5.73-4.12-5.66-.95 2.5-1.1 5.57-3.4 7.31-2.68 2.58-6.73 2.43-10.15 1.94-4.94-2.01-6.53-7.41-8.16-11.96-1.72-1.68-2.64 1.3-3.5 2.42z"/><path d="m126.33 68.64c1.63-.8 3.26-1.61 4.88-2.42-1.25 5.17-3.53 10.06-6.94 14.16.71-3.91 1.33-7.84 2.06-11.74z"/><path d="m109.7 76.61c1.37-.73 2.75-1.45 4.12-2.18-1.3 8.53.91 17 1 25.53 1.12 8.37 1.27 16.93 3.68 25.08 4.64 21.19 12.96 42.38 28.52 57.98 4.28 4.45 9.53 7.77 14.35 11.59-.47.81-.93 1.63-1.38 2.46-5.27-3.48-11.25-5.89-16-10.14-11.37-9.58-19.4-22.64-24.11-36.66-7.39-23.8-9.71-48.85-10.18-73.66z"/><path d="m98.12 85.99c.31-4.63 5.5-5.59 8.63-7.9-.39 12.22 1.02 24.41 2.18 36.56-2.13-2.62-4.63-4.93-6.51-7.73-3.55-6.3-6.08-13.67-4.3-20.93m2.62 8.06c-.02 2.53 1.14 6.85 4.51 5.55-1.33-2.69-2.5-5.59-1.96-8.66-.06-3.39 2.23-6.29 1.96-9.69-4.29 2.62-4.51 8.32-4.51 12.8z"/><path d="m72.25 100.36c6.76-6.34 15-10.65 22.69-15.7-.88 4.76-1.09 9.67-.16 14.44-6.84 3.7-15.21 4.23-22.62 2.1.03-.21.07-.63.09-.84z"/><path d="m101.6 121.97c1.37-4.2 8.55-2.22 8.58 1.78 1.44 7.51 2.98 15 4.97 22.39.86 1.81-.53 3.42-1.12 5.05-2.18-.37-4.57-1.6-4.81-4.04-.3-4.74 1.16-9.48.27-14.21-1.02-3.06-4.37-3.99-6.74-5.69-1.66-1.22-1.44-3.5-1.15-5.28z"/><path d="m165.53 154.49c.76 2.69 1.84 5.27 3.48 7.56-1.21 2.33-2.26 4.73-3.35 7.12-1.15-4.84-1.08-9.82-.13-14.68z"/><path d="m189.77 163.84c-1.71-.14-1.74-3.13-.04-3.31 1.48.21 1.61 3.14.04 3.31z"/><path d="m182.04 165.77c1.21-.44 2.42-.89 3.62-1.34.03 3.19-.02 6.39-.24 9.59-.98-2.81-2.1-5.57-3.38-8.25z"/><path d="m167.22 172.93c.73-2.77 2.17-5.3 3.29-7.92.46 4.64.79 9.3 1.18 13.95-1.75-1.8-3.58-3.64-4.47-6.03z"/><path d="m173.53 165.44c1.64.17 3.29.33 4.93.48-1.28 4.04-2.51 8.11-3.48 12.25-.59-4.23-.97-8.49-1.45-12.73z"/><path d="m188.29 165.08c.65.61 1.31 1.23 1.96 1.85-.46 2.42-.91 4.85-1.48 7.26-.37-3.03-.46-6.07-.48-9.11z"/><path d="m180.19 169.1c1.35 3.68 2.65 7.38 4.06 11.05-2.44.96-5.03 1.38-7.6.72 1.23-3.91 2.34-7.86 3.54-11.77z"/><path d="m208.46 171.23c-.75 9.88-5.18 19.92-13.43 25.75-.33-1.25-.66-2.5-.98-3.75 6.4-6.14 11.66-13.5 14.41-22z"/><path d="m166.38 195.31c6.56-3.55 14.6-3.35 21.54-1.02 4.21 1.21 3.56 7.06 1.14 9.68-5.05 4.28-12.15 3.61-18.24 2.69-3.09-.2-5.82-1.98-7.61-4.44.24-2.56.64-5.57 3.17-6.91z"/><path d="m147.37 194.22c3.84 2.22 7.66 4.6 11.92 5.95-.06 3.05 1.14 6.16 3.71 7.94 3.47 2.68 7.99 2.9 12.17 3.43.44 10.44-6.01 19.18-10.8 27.9-4.33-5.62-8.84-11.1-13.36-16.56-1.58-2.37-3.81-4.82-3.4-7.88.12-6.93.17-13.87-.24-20.78z"/><path d="m134.71 204.52c1.57-3.8 5.51-5.06 9.1-6.17-.1 5.88-.14 11.76-.09 17.65.92 6.89 6.31 11.8 10.33 17.05 3.32 4.02 6.19 8.44 10.08 11.96 3.2-2.94 4.93-7.01 7.26-10.59 2.44-3.7 4.28-7.75 5.94-11.85 1.58-3.46.75-7.31.66-10.96 2.72-.02 5.44-.26 8.1-.87 5.29 11.72 8.23 25.1 5.23 37.82-1.6-4.73-2.99-10.4-7.82-12.87-3.4-2.34-7.95-.46-10.26 2.53-2.91 3.67-5.3 7.74-7.51 11.86-5.81-6.02-12.07-13.06-20.77-14.39-6.97.85-9.97 7.92-12.26 13.64-2.64-14.71-4.65-30.85 2.01-44.81z"/><path d="m215.39 217.46c2.39-4.29 9.85-6.26 12.77-1.47 3.49 4.3 2.83 10.08 2.02 15.16 15.81 12.23 33.95 20.99 50.27 32.49 3.53 2.84 7.4 5.21 11.38 7.36 1.87.96 3.88 2.09 6.08 1.66 2.22-1.83 3.77-4.89 6.92-5.27 2.5-.25 5.74-1.02 7.63 1.17 2.31 2.15 2.39 5.52 2.35 8.46.5 3.19-3.31 4.97-3.23 8.02 5.93 8.72 14.04 15.67 20.19 24.22 6.38 7.44 12.85 14.8 19.49 22.02-1.04-.03-3.12-.07-4.17-.1-2.68-3.98-6.25-7.23-9.12-11.06-5.69-7.25-12.3-13.7-18.3-20.68-3.03-4.04-6.7-7.51-10.03-11.27-1.61-4.29-2.06-8.94-3.71-13.22-2.26-2.07-2.59 1.77-2.61 3.24-.84-1.05-1.75-2.06-2.67-3.01-.23 1.69-.35 3.39-.35 5.1-.37-2.13-1.15-4.27-3.44-4.98-.04.85-.13 2.55-.17 3.4-8.94-5.42-16.91-12.28-25.98-17.5-12.87-8.7-26.55-16.02-39.75-24.2-1.62-4-3.96-7.65-6.01-11.43-.72.43-1.44.86-2.15 1.3-1-1.27-2.13-2.4-3.4-3.38-.02.94-.06 2.84-.08 3.78-.78-1.69-2.01-3.1-3.48-4.23-.15.97-.44 2.89-.59 3.86-.57-.51-1.7-1.52-2.27-2.03-.4.51-1.21 1.53-1.61 2.04-5.64-1.37-11.18-3.1-16.81-4.48-.42-1.38-.84-2.76-1.25-4.13 6.36 1.46 12.52 3.67 18.88 5.14 1.98-1.37 1.95-4.07 3.2-5.98z"/><path d="m111.87 221.99c5.19-1.1 9.99-3.39 15.04-4.93-.16 1.19-.33 2.38-.49 3.57-7.44 1.46-14.43 4.47-21.28 7.61-.61-.11-1.83-.34-2.44-.45-.64 1.33-1.26 2.67-1.84 4.02-.29-1.81-.35-4.36-2.91-3.14-.82 1.78-1.33 3.69-1.92 5.56-.6-1.71.39-4.92-2.25-4.88-.78 1.34-1.09 2.87-1.45 4.36-.47-.92-.95-1.82-1.44-2.72-2.52 2.77-1.06 6.73-1.35 10.09-9.75 12.01-21.45 22.24-31.73 33.79-2.74 2.91-5.49 5.82-8.19 8.77-3.3 3.71-7.6 6.4-10.73 10.28-5.93 8.09-14.53 13.62-21.9 20.21-1.98 4.35-.57 10.04 3.63 12.55-1.69-.51-3.42-.87-5.08-1.47-4.12-2.23-5.8-7.46-5.02-11.87 1.73-4.64 6.71-6.61 11.36-6.34 3.9-3.17 6.53-7.56 10.01-11.14 6.64-7.64 14.18-14.43 20.96-21.94 7.83-8.26 16.24-15.96 24.12-24.17.59-2.67 3.24-3.86 4.8-5.87 1.71-2.06 3.62-3.94 5.34-5.99-1.7-2.75-4.14-5.39-3.8-8.89-1.15-6.11 5.18-12.37 11.26-10.39 3.18.73 3.86 4.51 6.43 6.06 3.84.3 7.2-2 10.87-2.68z"/><path d="m221.59 244.9c1.32 1.17 2.87 2.18 3.76 3.76 4.76 8.1 8.29 16.85 11.01 25.82 1.64 8.43 2.41 17.01 2.99 25.57.52 8.75-1.02 18.72-8.07 24.7 3.6-15.19 5.98-31.26 2.15-46.66-.73-4.51-3.07-8.53-3.99-12.99-1.31-7.17-4.62-13.74-7.85-20.2z"/><path d="m33.01 308.47c7.21.3 13.39 4.58 19.19 8.46 5.65 3.22 11.23 6.58 16.31 10.64 13.54 8.59 27.22 16.97 41.49 24.29.01 6.75-3.55 13.31-8.86 17.4-.95 1.02-2.14.2-3.1-.28-12.25-6.7-24.72-13.06-36.29-20.9 6.09 3.52 12.12 7.19 18.7 9.75 5.25 3.13 10.66 5.96 16.13 8.69 2.74 1.5 5.17-1.23 6.78-3.14 2.04-2.45 3.68-6.34 1.68-9.25-3.6-2.95-7.95-4.81-11.83-7.34-4.25-2.79-9.95-2.63-13.59-6.44-1.22-1.74-3.73-.25-4.96-1.9-2.14-1.83-3.69-4.75-6.78-5.04-1.91-2.07-3.77-4.17-5.74-6.18-3.37 1.88-4.82-2.75-7.09-4.37-.57.18-1.71.55-2.28.73-3.98-4.56-9.07-7.72-13.78-11.46-1.78-1.6-4.62-1.54-5.98-3.66z"/><path d="m235.77 324.81c.86-1.22 1.74-2.43 2.64-3.63.99 6.63 2.55 13.14 3.54 19.76 1.65 12.71 2.44 25.55 1.45 38.35-2.58.63-5.07 1.54-7.53 2.55 1.26-2.28 2.64-4.49 3.6-6.92-.53-.48-1.6-1.45-2.13-1.93.86-2.81 4.13-6.57.74-8.8 1.08-2.54 2.13-5.13 2.52-7.88-1.21.09-2.34.44-3.38 1.04 1.16-2.38 2.13-4.9 2.5-7.53-.55-.2-1.65-.6-2.2-.8.61-2.97 1.31-5.93 1.71-8.94-.23-5.24-1.38-10.45-3.46-15.27z"/><path d="m309.47 332.1c.8-.49 1.63-.93 2.48-1.32 5.9 1.42 8.9 7.53 14.51 9.53 3.57 1.09 7.48 2.56 11.16 1.1-.04-1.2-.08-2.38-.12-3.57 6.29-3.26 14.3-3.79 20.35.32 6.14 2.78 8.33 9.7 13.47 13.65 5.11 4.2 7.56 11.27 6.09 17.72-.87 2.56-3.19 4.15-5.25 5.71 1.17-7.32.56-15.14-3.15-21.68-.57.02-1.69.06-2.26.08.31 5.5 3.75 10.67 2.8 16.41.12 4.56-4.15 7.16-8.11 7.94 2.77-7.13 2.16-15.19.79-22.56-.25-1.99-2-2.22-3.68-1.94.84 6.78 1.82 13.74.48 20.52-1.06 3.55-4.78 4.92-7.85 6.25 4.05-8.7 3.04-18.7 1.16-27.82-.95-.47-1.9-.47-2.85.01-.86 3.1.22 6.28.54 9.39.72 6.32.27 13.2-3.53 18.56-1.91 2.55-3.06 5.56-4.84 8.18-1.09 1.07-2.48-.1-3.29-.88-.28-2.35-.23-4.82.36-7.11 1.8-3.63 3.89-7.38 3.45-11.6-.22-6.03.75-12.82-2.76-18.11-3.26-4.83-9.78-2.32-14.5-3.92-2.44-.26-3.03-2.91-4.22-4.61-1.61-2.51-2.3-5.6-4.48-7.71-2.09-1.22-4.53-1.62-6.75-2.54z"/><path d="m298.38 341.6c5.68-1.64 12.19-1.43 17.48 1.36 4.44 2.49 4.27 9.57-.08 12.05-5.13 3.09-11.57 3.33-17.32 2.27-3.93-.83-8.55-3.75-8.26-8.27-.17-4.42 4.61-6.44 8.18-7.41z"/><path d="m287.69 354.33c5.36 7.74 16 8.25 24.38 6.4 3.86-.57 7.05-3.02 9.79-5.65-.38 3.66-1.68 7.65-5.26 9.34-5.19 2.24-10.97 2.5-16.55 2.45-3.72.12-7.56-1.23-10.1-3.99-1.86-2.45-1.59-5.69-2.26-8.55z"/><path d="m379.26 354.92c1.49.2 3.01.3 4.48.67 2.36 2.81 2.39 6.88 2.01 10.37-.31 1.92-2.71 1.44-4.05 2.01.24-4.51-.92-8.86-2.44-13.05z"/><path d="m114.03 356c2.97 1.04 5.74 2.76 8.89 3.17 6.35-.56 12.64-1.9 19.04-1.67 5.68.22 11.39.12 17.05.39 6.02 2.63 8.55 9.35 10.28 15.21.94 4.89 2.22 11.09-1.56 15.1-.59-6.61-1.34-13.56-4.84-19.35-1.95-.55-2.68.15-2.21 2.08 1.66 6.23 3.69 12.54 2.99 19.09-2.03 2.99-4.96 5.24-7.61 7.66 2.8-3.63 2.89-8.48 1.3-12.64-1.45-3.5-1.06-8.19-4.35-10.62-.39.4-1.18 1.18-1.58 1.57.53 5.79 4.21 11.13 3.23 17.06-2.68 3.9-6.76 7.14-11.63 7.57 1.68-1.96 4.35-3.62 4.29-6.5.1-5.02-.52-10.37-3.17-14.73-.65.39-1.94 1.18-2.59 1.57.89 4.54 2.79 9.22 1.72 13.86-2.53 2.72-5.83 4.73-9.38 5.79-2.74.76-5.29-.76-7.19-2.59 1.83-.84 3.62-1.77 5.47-2.55 1.43.37 2.78 1.24 4.31 1.09 1.25-2.26-1.46-3.83-2.42-5.59-1.82-2.27-1.83-5.83-4.56-7.31-2.92-1.12-6.13-.75-9.19-1.06-3.04-2.88-4.67-7.2-2.94-11.26-1.89-2.62-5.31-3.05-8.06-4.28 2.09-3.44 3.92-7.08 4.71-11.06z"/><path d="m329.27 357.92c2.88-1.02 5.92-1.2 8.93-.69.47 5.01.27 10.05.24 15.08-2.47.13-5.05.63-7.46-.16-2.47-4.29-1.35-9.51-1.71-14.23z"/><path d="m325.02 358.43c1.45 4.08.3 8.61 1.39 12.82-3.05.02-6.09.02-9.13.13-.07-.93-.13-1.86-.17-2.79 4.24-1.88 6.3-6.09 7.91-10.16z"/><path d="m172.06 366.9c1.82-.36 3.63-.73 5.44-1.14 2.77 2.89 3.8 6.77 4.92 10.49-2.53 1.13-5.17 1.96-7.8 2.82-.22-4.17-1.19-8.24-2.56-12.17z"/><path d="m183.58 367.29c4.13-.58 8.62-1.38 12.47.72 3.54 1.45 6.28 4.16 8.95 6.8 4.03 3.31 4.5 9.4 9.11 12.17 4.97 2.75 10.82 2.94 16.36 3.34-.34 3.36 0 6.78 1.48 9.85-3.3.12-6.63.64-9.89-.12-6.05-.98-12.98-.9-17.7-5.41-5.11-4.15-2.83-12.01-7.35-16.58-2.8-3.03-7.13-2.87-10.89-3.26-.98-2.46-1.52-5.07-2.54-7.51z"/><path d="m278.46 384.49c5.6-4.79 2.92-14.04 9.38-18.23 3.95 3.52 9.24 4.69 14.39 4.59.07.77.19 2.3.26 3.07-2.6 1.26-5.61 2.15-7.53 4.43-3 5.14-3.41 11.6-7.48 16.17-3.01 3.04-7.39 3.87-11.49 4.25-4.42.69-8.91.6-13.37.46 1.21-3.67 1.65-7.54 1.56-11.39 4.82-.4 10.61.57 14.28-3.35z"/><path d="m306.04 370.59c2.19-.23 4.38-.55 6.55-1 .33.61.67 1.23 1.01 1.85-2.47.45-4.94.82-7.43 1.08-.04-.49-.1-1.45-.13-1.93z"/><path d="m242.55 383.86c3.76-.54 7.62-.9 11.42-.59 2.07.95 4.09 2.27 5.4 4.18.77 3.89.46 8.47-2.37 11.52-2.55 2.65-6.45 3.08-9.92 3.28-4.17-.55-9.78-.82-11.68-5.33-2.88-5.45 1.12-12.41 7.15-13.06z"/><path d="m109.38 388.99c-.06-3.43 3.76-4.66 6.26-5.92 3.21 4.07 8.45 3.75 13.07 4.28.6 1.57 1.18 3.14 1.79 4.7-4.14 1.69-8.26 3.48-12.61 4.52-4.47.98-8.22-3.51-8.51-7.58z"/><path d="m318.75 388.12c5.35 3.17 9.76 7.65 14.23 11.92 2.38 2.47 5.04 4.87 6.46 8.07-.29 3.47-3.4.23-4.64-.84-5.68-6.08-11.44-12.21-16.05-19.15z"/><path d="m303.78 391.55c2.07 5.02 3.28 10.33 4.62 15.59 1.2 5.39 2.62 10.84 2.39 16.41-1.67-.24-3.25-.86-3.71-2.61-1.62-4.09-1.64-8.58-2.03-12.9-.22-5.52-1.4-10.96-1.27-16.49z"/><path d="m311.26 391.66c5.35 6.84 9.93 14.42 13.25 22.45 1.25 2.04-.59 3.48-2.25 4.26-1.5-1.84-2.8-3.84-3.76-6-3.07-6.64-5.94-13.48-7.24-20.71z"/><path d="m244.54 406.78c3.38.17 6.76-.24 10.1-.76 1.78 14.69 3.44 29.38 4.83 44.11 2.02 9.43 3 19.04 4.17 28.61-3.58.59-7.18 1-10.73 1.75-.63-10.88-1.35-21.81-4-32.42-1.28-13.77-2.06-27.64-4.37-41.29z"/><path d="m215.91 417.42c5.62-2.5 11.28-5.04 16.19-8.84 4.94 4.47 8.21 12.11 4.95 18.46-1.63 3.52-5.78 4.16-8.87 5.79 6.24 10.65 13.49 20.72 19.55 31.47-4.81.18-9.63.17-14.44-.08-3.06-6.73-8.01-12.32-11.53-18.78-1.95-3.01-3.36-6.95-6.8-8.52-6.44.66-12.92 1.06-19.34 1.99-7.02 1.17-14.13-.09-21.17-.29-.04.58-.13 1.73-.17 2.3 4.53 6.35 9.49 12.39 14.63 18.24 8.26 10.99 16.8 21.79 25.73 32.24 2.25 3.8 7.88-.03 10.18 3.79 3.57 4.35 1.46 11-3.23 13.52-2.74 1.51-5.76.04-8.58-.36-1.95 3.84-4.98 6.96-7.42 10.48-5.55 6.9-10.31 14.4-14.84 22-3.08 5.3-7.02 10.1-9.32 15.83-6.42-6-11.4-13.28-16.35-20.48 11.61-3.37 19.48-13.19 28.03-21.09 5.64-6.12 12.03-11.47 18.89-16.16-2.93-2.83-6.15 1.13-9.02 2.04.83-2.27 1.81-4.48 2.62-6.75-3.15-.05-4.28 3.05-5.4 5.39-3.66-4.55-7.46-8.99-11.5-13.21-3.93-4.14-7.04-8.95-10.6-13.39-7.69-9.45-15.1-19.18-24.1-27.44-7.96-.62-15.98 1.26-23.98.38-7.1-.52-14.38-3.59-18.6-9.52-4.41-7.33-5.51-16.2-4.45-24.58 5.28 1.57 10.45 3.58 15.96 4.23 18.35 4.26 37.34 5.39 56.12 4.76 12.39.02 24.54-2.63 36.86-3.42z"/><path d="m308.92 446.94c4.68-6.33 7.11-14.05 12.13-20.18 2.64 4.93 5.35 9.8 8.34 14.53-3.94-.76-7.12-3.29-10.57-5.14-3.22 4.78-5.51 10.09-8.71 14.87-1.72 3.08-6.51 4.75-9.16 1.82-3.13-1.96-3.45-6.02-2.66-9.29.41-2.14 2.98-2.33 4.74-2.27 2.57 1.13 4.14 3.58 5.89 5.66z"/><path d="m332.6 444.5c3.17-5.7 13.36-1.1 12.19 4.95-.92 3.79-4.44 5.79-7.6 7.51-.43 3.67.3 7.53-.85 11.09l-1.4.94c-2.63-3.31-1.4-7.83-2.27-11.68-.6-1.14-1.47-1.47-2.61-.97-2.92 2.49-3.45 7.64-7.75 8.32 2.26-7.24 6.45-13.68 10.29-20.16m1.31 3.44c-.65 1.47-2.25 3.29-1.07 4.88 3.6.89 7.29-1.23 8.66-4.6-1.19-1.35-2.32-3.74-4.52-3.18-1.62-.02-2.23 1.83-3.07 2.9z"/><path d="m180.36 443.2c5.15.53 10.33.43 15.51.42 6.97 1.16 15.94 4.24 16.77 12.46-4.1 3.63-9.81 2.6-14.77 2.07-1.97-.54-4.31-.44-5.9-1.88-4.14-4.11-7.75-8.71-11.61-13.07z"/><path d="m352.36 449.16 1.4.8c-2.28 6.24-5.65 12.04-9.08 17.71-1.21 1.66-2.17 3.89-4.42 4.33.48-4.87 3.02-9.14 5.34-13.32 2.05-3.31 3.82-6.89 6.76-9.52z"/><path d="m135.88 450.77c5.7-.14 11.46-.13 17.08-1.14 3.05 3.6 6.25 7.08 9.34 10.65-5.01 2.15-10.57 1.73-15.84 1.01-5.27-1.08-8.68-5.82-10.58-10.52z"/><path d="m349.71 467.91c2.76-4.22 4.83-8.98 8.51-12.52 2.74-.29 2.61 2.64 2.48 4.57-.35 3.33-.71 6.69-.24 10.04 3.16-2.3 4.56-6.85 8.45-7.99 1.07 3.2-2.27 5.62-3.72 8.17-3.25 3.78-4.89 9.51-9.98 11.25.22-5.8 1.85-11.49 1.2-17.32-3 3.85-5.42 8.12-8.58 11.84-1.77-2.78.65-5.59 1.88-8.04z"/><path d="m117.38 467.34c7.03-6.36 18.44-3.47 24.87 2.35 3.77 4.58 8.75 8.52 10.7 14.31-2.03 4-4.74 7.63-6.75 11.66-2.75-6.44-6.83-13.22-13.66-15.87-3.25-1.24-7.31-.72-9.85 1.77-4.74 4.25-6.23 10.7-8.79 16.29-3.59 10.62-5.1 21.85-5.52 33.04-2.52 15.5.4 31.11 1.47 46.6 1.14 5.88 1.52 12 3.75 17.62 2.58 8.75 5.31 17.53 9.61 25.61 3.4 6.83 7.48 13.77 13.96 18.09 4.34 2.01 9.47 3.75 14.08 1.49 6.46-3.27 9.79-10.41 11.19-17.19.71-6.38 2.11-12.73 1.85-19.17-.33-.6-.99-1.81-1.32-2.41-1.97 4.03-1.34 8.63-2.22 12.92-1.11 6.39-3.1 12.91-7.21 18.04-1.95 2.58-5.05 4.69-8.43 4.09-4.27-.95-8.89-2.55-11.36-6.43-7.21-10.77-12-22.91-16.08-35.15-4.75-14.49-5.01-29.86-6.05-44.93-.56-8.05.46-16.08 1.36-24.06.85-11.2 2.58-22.58 7.32-32.85 1.78-4.19 3.75-9.38 8.66-10.62 7.78 3.09 11.11 11.12 15.35 17.65-3.29 8.15-6.33 16.41-9.52 24.6-3.45 10.72-5.48 21.96-5.69 33.22-.42 3.74 3.11 7.7 7 6.46 5.02-2.11 4.23-8.56 5.64-12.89.94 3.78 2.88 7.55 1.93 11.54-.32 2.93-1.87 5.51-3.72 7.73-1.07-1.38-1.42-4.29-3.76-3.5.03 1.56.14 3.13.32 4.7-1.69-.23-3.38-.44-5.07-.64-.06-.53-.19-1.59-.25-2.11-1.96.37-3.55-.5-4.21-2.37-2.61-6.96-2.12-14.94 1.4-21.5-4.03-1.58-4.9 4.38-6.11 6.9-2.92-1.55-5.55-4.67-9.16-3.87 2.13 3.09 5.7 4.57 8.68 6.68.03 1.42.07 2.86.11 4.31-2.82.59-8.02-1.57-8.27 2.71 2.97.27 5.96.33 8.95.43.27 1.89.56 3.78.89 5.68-2.56 1.69-6.86 2.18-7.43 5.75 3.15-.52 5.97-2.08 8.81-3.44.41.52 1.23 1.56 1.64 2.09-2.43 3.54-4.36 7.39-6.79 10.94-1.01 1.4.38 2.91 1.89 2.09 3.28-3.14 4.82-7.53 7.16-11.32 2.82 1.23 5.91 1.53 8.96 1.56 3.41 11.55 5.48 23.45 8.93 35 .54 1.34.76 3.32 2.55 3.61 1.14-1.73.63-3.8.22-5.66-2.87-11.36-5.34-22.82-8.65-34.06 5.11-3.4 6.12-10.12 5.84-15.8-.02-4.02-2.07-7.62-4.18-10.9 2.19-10.57 4.54-21.16 8.64-31.19 2.98 9.09 4.39 18.54 5.56 28-.06 2 3.5 2.67 3.17.06-.04-11.32-3.21-22.3-6.49-33.04 1.94-5.89 5.13-11.27 7.99-16.75.41 10.59-.62 21.14-.62 31.73-.2 2.1.56 4.04 1.74 5.74-.42.37-1.26 1.12-1.68 1.49 1.08 2.75 2.71 5.26 4.01 7.92-5.66 4.68-11.38 9.4-16.31 14.86.86 4.28 3.94 7.98 6.31 11.63 2.84-.06 4.39-3.26 6.59-4.81-.12 3.62.14 7.26 1.27 10.73-2.56 1.58-5.54 3.36-6.26 6.53-2.26 6.96 2.97 13.73 8.53 17.33 4.18 2.5 8.95.5 12.42-2.22 3.1.97 6.32 3.51 9.68 1.84 2.87-2.19.73-5.91-.91-8.16 1.17-.45 2.2-1.09 3.1-1.91-.04-3.9-.23-8.42-3.38-11.2 4.65-3.67 9.07-7.62 13.38-11.68 3.74 2.95 7 6.76 8 11.55 2.12 10.71 2.3 21.89-.06 32.58-1.78 5.76-6.45 10.33-11.7 13.1-5.18 2.04-12.35.63-14.66-4.95-2.48-4.46-.73-9.59-1.07-14.37-.12-2.01.12-5.21-2.78-5.08-1.65 6.23-.97 12.78-1.86 19.12-1 7.48-2.8 14.83-4.86 22.09-1.73 6.43-5.9 11.89-10.77 16.3-5.48 4.38-13.75 5.81-19.87 1.89-7.85-3.94-11.58-12.26-17.16-18.54-4.08-4.91-6.33-10.96-9.34-16.51-4.15-7.93-5.92-16.77-8.44-25.29-2.12-6.8-2.54-13.93-3.78-20.91.05-6.41-1.87-12.62-1.67-19.03-.01-6.33.08-12.65.01-18.97-.1-6.71.99-13.36 1.24-20.04.21-8.93 3.59-17.35 4.99-26.1 2.53-8.75 5.15-18.07 12-24.53m18.21 3.04c2.32 2.38 5.57 3.74 7.56 6.47 1.33 1.73 2.6 3.52 4.16 5.07.11-.7.33-2.11.44-2.81-2.44-5.13-7.29-8.54-12.32-10.84.04.53.12 1.59.16 2.11m-1.53 3.28c2.24 3.09 5.49 5.24 7.74 8.32 1.42 1.78 2.33 4.11 4.61 5.02-.03-4.34-3.37-7.4-6.16-10.27-1.75-1.51-3.56-3.67-6.19-3.07m-7.62 22.31c.13 6.71 1.24 13.36 1.86 20.05.25 2.74.53 5.52 1.63 8.09.34-.56 1.02-1.67 1.36-2.23.5-4.61-.14-9.31-.63-13.92-.63-4.68-.66-9.55-2.62-13.94-.4.49-1.2 1.46-1.6 1.95m-7.92 18.42c.01 4.14 2.36 7.71 3.52 11.58 1.25 2.92 1.56 6.9 4.89 8.29.21-5.03-2.41-9.51-4.02-14.12-1.08-2.18-1.46-5.32-4.39-5.75m-3.12 21.08c2.24 3.05 4.61 6.68 8.5 7.68-.26-4.17-4.43-6.37-6.73-9.43-.87-1.43-3.78.66-1.77 1.75m31.52 4.48c3.39-.16 4.52-3.96 5.74-6.53-3.53-.25-5.01 3.72-5.74 6.53m4.65 2.78c-2.58 1.44-6.13 2.57-7.13 5.64.4.1 1.22.3 1.63.4 2.67-1.12 7.17-2.79 6.45-6.39-.24.09-.72.26-.95.35m-3.99 24.83-.51 1.38c2.68 2.64 5.48 5.24 8.67 7.25.53-.26 1.58-.77 2.11-1.03-2.62-3.23-6.07-7.17-10.27-7.6m47.27 3.33c-.66 2.53 2.58 4.37 3.28 6.81 2.54 7.4 3.18 15.45 2.24 23.2-.77 3.34-.8 7.35-3.66 9.72-1.71 1.57-3.5 3.2-5.71 4-2.55.37-5.1-.31-7.65-.16-1.13 3.12 2.44 3.57 4.61 3.9 4.4.67 8.37-2.07 11.16-5.17 6.18-6.76 5.95-16.73 5.16-25.27-.98-5.4-1.45-11.54-5.59-15.6-1.05-.81-2.38-2.55-3.84-1.43m-50.17 4.1c-.02.49-.05 1.48-.07 1.97 2.9 6.34 6.78 12.18 9.76 18.5.13 1.71 3.81 3.61 3.17.67-1.71-6.69-6.01-12.46-9.17-18.56-1-1.1-1.68-4.31-3.69-2.58m-12.78 3.7c-.06 9.43-.93 19.02 1.01 28.32.62 1.09.2 3.93 2.3 3.22.81-2.7.58-5.55.4-8.31-.63-7.93.26-15.97-1.36-23.81-.59.14-1.76.44-2.35.58m61.68-.48c-.07 2.75 1.24 5.22 1.76 7.86.59 3.64.75 7.36.54 11.05.02 2.58-1.85 4.8-1.25 7.43 2.27-.91 4.06-2.97 4.16-5.48.27-6.03.41-12.39-2.13-18.01-.39-1.48-1.96-2.07-3.08-2.85m-2.8 9.18c.88 4.53-.06 8.96-.46 13.46.85-.25 1.67-.54 2.48-.89 2.18-3.7 1.57-8.27.47-12.22-.83-.18-1.66-.3-2.49-.35z"/><path d="m165.18 463.93c1.85 2.33 3.97 4.49 5.49 7.06-.33 8-.27 16 .01 24.01.42 11.54-.32 23.09.1 34.64-2.42 1.21-4.95 2.21-7.46 3.23.6-1.25 1.03-2.55 1.29-3.89.91-21.66 1.43-43.37.57-65.05z"/><path d="m199.96 466.86c10.99 1.26 22.06.48 33.09 1.01 4.87.48 9.78.28 14.67.32.08 2.22.14 4.44.18 6.67-13.99.18-27.96-.27-41.95-.62-2.11-2.36-4.12-4.82-5.99-7.38z"/><path d="m371.41 469.23c2.14-1.16 5.59-1.2 7.07 1.02.29 1.37.49 2.77.61 4.18-1.69-1.27-3.21-4.45-5.72-3.13-3.62 2.17-5.95 6.02-7.52 9.84-1.2 2.73.46 5.92 3.16 6.91 1.88.16 3.67-1.21 3.93-3.08-.92-2-2.64-3.67-2.72-5.98 2.72.65 5.34 1.67 7.83 2.95-1.34 3.78-3.4 8.4-7.92 9-5.09.68-8.46-5.62-6.97-9.99 1.53-4.57 4.19-9 8.25-11.72z"/><path d="m326.26 474.04c3.17-2.6 8.05-.07 9.57 3.31 2.06 2.68.02 6.35-2.46 7.96-1.57 1.32-4.3 2.06-4.27 4.54-.51 3.87-.23 8.06-2.43 11.49-1.05-4.27-.89-8.7-1.38-13.04-.6-.34-1.79-1.02-2.39-1.36-3.26 2.87-4.63 7.16-7.57 10.29-2.42-2.33.12-5.26 1.21-7.61 3.22-5.2 5.83-10.84 9.72-15.58m1.91 1.97c-1.66 2.02-2.63 4.52-3.34 7.01 2.8 2.62 9.43.11 8.12-4.17-.48-1.9-2.77-4.54-4.78-2.84z"/><path d="m242.44 478.74c2 .02 3.99.04 5.99.05.09 1.01.17 2.02.26 3.04-.94.6-1.88 1.21-2.82 1.82-1.12-1.66-2.26-3.29-3.43-4.91z"/><path d="m153.81 490.87c2.55-4.03 5.07-8.07 7.7-12.05-.11 3.27.5 6.77-.65 9.89-9.4 14.01-15.7 29.93-19.93 46.2-1.56 7.78-3.46 15.49-4.81 23.3-.01 1.76-2.96 3.55-2.88.76.03-13.84 2.87-27.77 8.44-40.47 3.89-9.27 6.62-19.13 12.13-27.63z"/><path d="m262.54 482.75c3.31-.53 6.71-.59 10.04-.12 4.39 1.36 5.65 8.98 1.04 10.89-5.8 2.67-12.27 3.63-18.61 3.81-3.09-.07-7.17 0-8.71-3.27-.39-2.63-.54-6.2 2.22-7.62 4.17-2.65 9.3-2.77 14.02-3.69z"/><path d="m335.11 496.2c2.89-5.04 4.78-10.96 9.42-14.72-.03 3.75-1.81 7.1-3.44 10.37-2.18 4.25-4.18 8.66-7.29 12.33-2-2.62.3-5.48 1.31-7.98z"/><path d="m345.11 494.1c1.83-2.87 3.53-6.23 6.9-7.53.31 5.58-.46 11.23.81 16.73.26-.59.53-1.17.8-1.75 2.67-2.92 4.59-6.46 7.64-9.04 1.54 2.52-.69 4.83-1.75 7-3.26 4.88-5.92 10.42-10.7 14.05-1.59-5.62.86-11.43-.59-17.09-3.07 3.52-4.71 7.97-7.63 11.59-.38-.4-1.13-1.18-1.51-1.57 1.09-4.52 3.69-8.44 6.03-12.39z"/><path d="m269.66 499.83c2.88-1.16 5.8-2.23 8.47-3.82.47 1.45.95 2.92 1.43 4.38-3.5.1-6.84 1.12-10.07 2.4.04-.74.13-2.22.17-2.96z"/><path d="m366.15 499.06c2.68-1.55 6.67-1.47 8.66 1.13 1.25 1.64-.19 3.42-.75 5-.8-1.32-1.26-2.86-2.37-3.95-3.69-1.15-6.78 1.93-8.63 4.72-2.06 2.97-3.09 7.41-.69 10.47 2.32 2.62 5.3-.59 6.36-2.8-1.23-1.82-3.57-2.79-3.84-5.21 2.84.37 5.37 1.74 7.69 3.34-1.01 3.28-1.94 7.32-5.67 8.49-3.74 2.21-8.15-1.59-8.77-5.33-.73-6.21 2.46-12.85 8.01-15.86z"/><path d="m249.38 501.32c2.35.2 4.71.3 7.08.35-1.53 16.12-.9 32.36.19 48.48 3.5 29.13 6.16 58.54 13.89 86.95 2.7 7.49 3.75 15.61 8.05 22.44-1.99.53-4.28-.02-5.09-2.1-5.27-10.68-9.75-21.83-12.55-33.42-3.6-19.62-8.58-39.08-9.83-59.05-1.16-8.58-2.64-17.19-2.29-25.87-1.91-12.57-.23-25.2.55-37.78z"/><path d="m377.19 515.06c3.23-5.02 7.54-9.51 12.54-12.8.14 1.82-.23 3.61-1.42 5.05-2.76 3.97-6.16 7.52-9.99 10.47-.28-.68-.85-2.04-1.13-2.72z"/><path d="m260.26 514.72c5.62-5.86 13.23-11.59 21.86-9.8 11.35 2.02 19.09 11.49 26.18 19.79 9.21 10.58 14.89 23.56 20.61 36.22 4.25 10.14 8.45 20.36 11.2 31.03 4.92 15.44 9.68 30.96 13.11 46.81 2.86 9.43 3.82 19.28 4.82 29.04 3.82 18.43 2.12 37.42 2.43 56.09-2.2 11.67-3.23 23.55-5.94 35.14-3.34 12.82-10.66 25.21-22.3 32.05-7.84 3.31-17.05 4.55-25.16 1.47-5.83-2.67-11.97-5.7-15.22-11.54-15.85-17.37-21.56-40.81-29.19-62.41-6.12-15.35-9.08-31.61-12.94-47.6-4.05-23.45-6.66-47.17-7.07-70.98-.08-5.4-.15-10.8.67-16.14.29-9.08.94-18.16 2.53-27.11 1.32 11.39 2.02 22.87 4.29 34.14.88 6.5 2.99 12.82 3.47 19.35-1.3 13.98.28 27.97 2.44 41.77.46 9 3.03 17.67 4.8 26.46 2.58 10.25 5.87 20.32 9.32 30.31 4.19 13.53 10 26.49 16.82 38.88 2.89 4.21 4.86 9.44 9.57 12.02 2.3 1.21 4.07 3.12 5.94 4.89 6.06 3.9 14.36 3.68 20.19-.61 4.29-3.43 6.32-8.64 8.68-13.4 1.67-4.79 3.25-9.64 4.04-14.66 1.12-10.64 3.38-21.18 3.16-31.91 1.31-23.83-1.83-47.69-6.96-70.92-2.35-13.16-5.32-26.19-8.88-39.07-1.71-7.6-4.95-14.7-7.66-21.97-3.21-9.33-7.94-18.02-12.68-26.64-4.73-7.96-10.01-15.94-17.83-21.2-3.3-2.46-7.67-3.06-11.66-2.57-6.23 1.89-9.87 7.76-12.44 13.34-.11-6.77-.78-13.51-.2-20.27m34.35 8.07c7.32 7.35 12.19 16.59 16.99 25.67 1.16 2.1 1.8 5.11 4.63 5.48-.87-8.05-6.26-14.43-10.27-21.13-2.98-4.12-5.79-8.55-9.98-11.57-.34.39-1.03 1.17-1.37 1.55m13.8 8.01c.62 1.92 1.4 3.8 2.4 5.56 4.41 8.04 8.86 16.09 12.12 24.68 1.86 3.59 3 7.53 5.08 11 .61.14 1.81.41 2.41.54-.99-5.98-4.17-11.22-6.25-16.83-3.82-8.85-8.46-17.34-13.83-25.33-.48.09-1.44.29-1.93.38m46.25 185.23c-.75 13.51-3.18 27.02-7.5 39.88-1.15 4.02-4.17 7.55-3.77 11.93 2.63-1.17 3.9-3.82 5.14-6.23 4.94-11.2 7.25-23.41 8.58-35.52-.06-3.37.63-7.78-2.45-10.06m-14.36 38.13c-2.28 7.18-6.7 13.4-11.58 19.04-1.43 2.81 2.25 2.56 3.37.94 4.84-4.96 8.52-11.1 10.58-17.72 1.62-4.96 4.43-9.72 4.08-15.11-3.57 3.39-4.5 8.5-6.45 12.85z"/><path d="m224.5 530.61c6.54-5.45 13.16-10.81 19.79-16.15-.49 3-.46 6.05-.84 9.06-14.99 12.32-29.27 25.47-44.66 37.3-6.34 5.06-11.8 11.22-18.51 15.79-1.42-1.52-2.78-3.09-4.05-4.73 5.6-5.01 11.56-9.58 17.21-14.53 7.74-5.82 14.68-12.61 22.24-18.68 3.17-2.43 5.87-5.38 8.82-8.06z"/><path d="m389.78 532.54c4.64-5.18 8.09-11.3 12.91-16.33 2.6 1.96 4.95 4.79 8.4 5.15 2.99.33 6.02.21 9.01.6-5.05 7.08-9.08 14.89-14.71 21.56-1.7 1.65-4.01 4.49-6.6 2.94-3.5-1.84-2.94-6.56-2.09-9.8 1.37-.25 2.74-.65 4.15-.58 1.88.44 2.8 2.72 4.8 2.89 2.67-3.42 4.72-7.31 6.38-11.3-4.09-1.08-7.89-2.86-11.6-4.83-5.62 5.63-7.95 14.61-15.44 18.21-3.24-.93-6.99-4.23-5.38-7.93.99-4.77 7.71-3.49 10.17-.58z"/><path d="m371.66 519.33c1.27-.07 2.54-.05 3.81.04 1.07 2.04-1.26 3.22-2.59 4.21-.64-1.36-1.1-2.76-1.22-4.25z"/><path d="m265.34 533.18c1.93-3.73 5.33-7.11 9.61-7.76 5.76-.25 9.87 4.34 13.68 7.98 7.41 8.14 12.18 18.19 17.38 27.79 3.76 8.09 6.66 16.54 9.97 24.82 6.05 18.92 9.87 38.45 13.76 57.9.88 6.01 2.57 11.91 2.86 18.01.78 9.68 2.25 19.34 1.9 29.08.25 5.66-.77 11.27-.67 16.93-.01 8.73-1.91 17.28-2.92 25.91-.38 8.45-3.77 16.59-8.61 23.46-3.89 5.87-12.35 6.64-18.27 3.66-3.42-3.97-8.37-6.53-10.72-11.4-3.66-5.22-6.02-11.15-9.1-16.7-5.88-11.45-9.45-23.86-13.77-35.93-4.82-15.26-9.17-30.81-10.8-46.76-1.14-8.6-3.14-17.15-2.94-25.86 2.83 12.6 7.88 24.59 13.53 36.17 1.83 4.79 8.44 4.27 11.9 1.5.31-1.38.37-2.8.5-4.19 5.86-.34 11.55-1.79 17.32-2.75 1.66-.18 3.1-1.01 4.47-1.89-.35-.61-1.05-1.85-1.41-2.47-7.49.88-14.87 2.51-22.3 3.79-.88-2.02-1.6-4.1-2.31-6.18 6.85-.5 13.65-1.39 20.47-2.16 1.4.04 2.07-1.45 3.05-2.16-.71-.4-2.13-1.2-2.84-1.59-7.22.37-14.33 1.91-21.57 2.11-6.92-20.9-9.97-42.81-12.87-64.55-1.08-11.11-2.75-22.16-3.76-33.28-.69-4.94 2.21-9.34 4.46-13.48m9.81.25c.22 11.74 4.29 22.97 5.6 34.58 1.97 12.42 4.88 24.67 6.54 37.14.56 3.41.96 7.3 3.81 9.68.93-3.66-.38-7.3-.75-10.93-1.83-14.74-4.99-29.27-7.19-43.95-2.18-8.76-3.18-17.81-5.87-26.42-.54-.03-1.61-.07-2.14-.1m20.21 19.62c-1.04 5.63.12 11.3-.08 16.97.18 9 .37 18.01 1.13 26.98.53 7.03-.84 14.16.52 21.11 2.3-2.08 2.1-5.33 2.27-8.15.89-14.67-.77-29.33-.71-44-.39-4.86-.38-9.79-1.33-14.58-.45.41-1.35 1.25-1.8 1.67m-29.06 14.43c4.22 13.86 8.29 27.8 13.82 41.21 1.69 4.54 2.58 9.65 5.96 13.33.26-.53.78-1.6 1.05-2.13-.76-4.43-2.88-8.5-4.1-12.81-5.63-13.3-9.32-27.29-14.15-40.89-1.07-2.85-1.47-6.33-4.28-8.08-.46 3.24 1.06 6.26 1.7 9.37m41.71 31.59c-2.93 8.65-4.57 17.63-6.74 26.49-.63 1.94-1.4 4.98 1.81 4.12 2.98-8.37 3.7-17.33 6.55-25.74 1.35-5.79 4.36-11.49 3.45-17.55-3.45 3.3-3.41 8.46-5.07 12.68m12.46 17.56c-2.62 2.24-4.38 5.54-6.2 8.49.09.37.27 1.13.35 1.5 2.55.25 3.43-2.54 4.74-4.18 1.02-1.9 3.16-3.8 2.23-6.14-.28.08-.84.25-1.12.33m-38.75 22.74c3.21.84 2.3-3.5 3.67-5.2 1.78-4.07 6.55-4.68 9.58-7.38-7.09-2.38-14.5 5.72-13.25 12.58m25.49-9.6c2.08 2.78 5.16 4.63 6.88 7.74-.76.57-1.53 1.14-2.29 1.72-2.83-5.26-8.45-9.6-14.69-8.74-5.25.13-10.91 4.87-9.26 10.53 2.38-2.17 3.48-6.09 7-6.73 5.29-1.91 10.59 1.71 13.25 6.11-.97 1.23-4.33 1.68-3.13 3.82 1.49.13 2.9-.48 4.33-.81.46 1.61.95 3.23 1.43 4.85-1.63.5-3.24 1.04-4.8 1.7 1.31 1.17 2.93 1.74 4.64 2.08-.12 1.21-.24 2.42-.37 3.65-1.61.38-5.63-1.8-4.96 1.48 1.49.69 3.07 1.16 4.64 1.68-.57 1.46-1.17 2.9-1.75 4.36-1.86-1.48-3.18-4.81-6.05-3.68.88 2.06 2.25 3.84 3.76 5.49-1.94.69-3.83 1.48-5.71 2.31-5.23-.59-8.85-4.67-11.53-8.83-.78.94-1.8 1.99-1.17 3.34 1.86 4.72 6.28 8.68 11.45 9.17 3.61.79 6.99-.98 9.81-3.02.23.38.68 1.13.91 1.51-1.24.77-2.49 1.53-3.65 2.44.51 3.08 4.15 1.07 6.05.79 5.28 6.17 10.25 12.61 15.61 18.72 1.03.9 2.01 2.92 3.71 1.76.08-.54.25-1.62.33-2.15-5.41-6.92-11.23-13.55-17.05-20.15 2.13-3.03 4.25-6.11 5.67-9.55 2.97.24 7.58 4.48 9.33.52-2.57-1.77-5.63-2.54-8.56-3.43.21-1.92.37-3.84.52-5.75 2.84-.1 6.44 1.1 8.37-1.73-2.55-1.74-5.66-1.32-8.56-1.48-.5-3.65-1.33-7.27-2.85-10.64 2.13-1 4.16-2.2 5.99-3.68-.36-.42-1.09-1.27-1.45-1.7-1.97.85-3.92 1.74-5.89 2.58-2.26-3.26-5.5-7.2-9.96-6.28m-28.79 44.7c-2.12 3.54-4.2 7.15-5.7 11.01-.26.91-1.08 3.01.41 3.19 1.25.84 1.97-1.04 2.48-1.83 2.72-6.44 6.81-12.18 9.54-18.62.83-1.29.7-2.77.18-4.13-3.29 2.73-4.74 6.84-6.91 10.38m12.28-3.09c-4.1 13.41-7.85 27.08-9.32 41.05.9.01 1.81.02 2.71.05 1.7-9.94 3.87-19.79 6.28-29.58 1.07-3.71 2.27-7.42 2.39-11.31-.51-.05-1.54-.15-2.06-.21m7.55 10.54c-1.67 11.59-1.44 23.33-1.8 35.01-.33 7.37-.85 14.75-.61 22.13-.12 1.65 1.03 2.85 2.23 3.81 2.32-5.99 1-12.56 1.62-18.81 1.14-12.69.34-25.48 1.7-38.15 0-3.75 1.05-8.02-1.45-11.22-1.13 2.25-1.37 4.77-1.69 7.23m6.39-4.55c1.92 5.78 2.71 11.82 4.14 17.72 2.63 8.18 4.64 16.55 7.45 24.68 1.58 4.65 2.29 10.02 6.12 13.49.76-5.08-1.64-9.84-2.79-14.66-2.52-7.41-4.3-15.04-6.84-22.43-2.08-6.21-3.02-12.8-5.78-18.77-.58-.01-1.73-.02-2.3-.03z"/><path d="m232.68 542.51c3.14-5.17 6-10.74 10.97-14.44.06 4.46.81 8.93.53 13.39-3.31 6.31-7.02 12.43-9.8 19.02-2.26 3.57-3.67 7.54-4.73 11.61-4.51-4.32-8.67-8.98-12.67-13.76 6.74-3.46 12-9.29 15.7-15.82z"/><path d="m201.76 562.97c9.79-7.31 19.04-15.3 28.49-23.02-3.56 6.8-8.83 13.14-16.11 16.08-3.22.98-.12 4.23.81 5.95-2.23 2.36-4.37 4.82-6.78 7-1.8-2.34-3.88-4.46-6.41-6.01z"/><path d="m158.81 551.87c2.85-2.35 5.15-5.37 8.37-7.26-.08 1.24-.19 2.51-.33 3.76-2.63-1.73-2.9 1.07-2.47 2.95-1.61-1.69-3.2-.21-3.24 1.75-1.4-.15-2.24.9-3.02 1.89-1.84 1.66-3.7 3.31-5.95 4.41 1.43-3.1 4.3-5.14 6.64-7.5z"/><path d="m184.43 557.25c.38.81 1.26 1.53 1.15 2.5-.88 1.04-2.06 1.75-3.19 2.48-2.58 1.99-5.05 4.11-7.59 6.13-.41-3.71-.29-7.49 1.16-10.96 1.79 1.44 3.56 2.91 5.42 4.28.96-.6 1.91-1.2 2.86-1.79.05-.66.15-1.98.19-2.64z"/><path d="m159.43 583.03c.12-2.51 2.29-4.13 3.72-5.95 1.57 2.51 3.88 5.3 1.54 8.14 1 2.82 1.87 5.83 3.78 8.18 1.86 1.62 3.88-.81 5.68-1.38-.63 3.66-5.8 4.52-8.28 2.18-3.37-2.7-6.92-6.53-6.44-11.17z"/><path d="m168.35 585.55c3.83-4.53 9.93-6.43 15.74-5.93.74 1.83 1.15 3.76 1.66 5.67-5.36.71-10.83 1.44-15.58 4.22-.6-1.33-1.21-2.65-1.82-3.96z"/><path d="m212.89 593.25c-.01-2.23-.04-4.46-.1-6.67 2.89-.1 5.77.03 8.65.17.01 2.02.03 4.04.1 6.07-2.89-.15-5.78.11-8.65.43z"/><path d="m312.78 641.89c.85-.53 1.72-1.04 2.58-1.56 1.12 2.79 1.82 5.72 2.32 8.69-.78-.07-2.35-.2-3.13-.27-.44-2.33-1.05-4.61-1.77-6.86z"/><path d="m314.42 652.03c1.17.11 2.34.24 3.52.38-.16 1.76-.31 3.53-.47 5.3-1.34-.32-2.68-.64-4.01-.97.32-1.58.64-3.15.96-4.71z"/><path d="m313.38 659.92c1.15.2 2.31.42 3.47.65-1.41 2.61-3.04 5.1-4.68 7.57-.39-.56-1.18-1.69-1.57-2.26 1.04-1.94 1.96-3.93 2.78-5.96z"/><path d="m313.98 799.69c1.64-1.12 3.72-1.12 5.47-.22l.23.53h-5.17z"/></g></g></svg>