<svg height="1012pt" viewBox="0 0 1009 1012" width="1009pt" xmlns="http://www.w3.org/2000/svg"><g stroke-width=".09375"><g fill="#010000" stroke="#010000"><path d="m348.7 1.74c4.39-.72 8.88-.22 13.32-.35 5.48-.26 10.48 2.29 15.52 4.09 8.5 3.28 17.25 6.6 24.12 12.79 4.84 3.6 8.18 8.96 13.39 12.04 3.35.54 6.96.07 10.07 1.71 8.78 4.34 16.49 10.52 23.8 16.97 3.94 3.92 8.23 7.58 13.34 9.89 5.82 2.6 11.56 5.4 16.79 9.07 9.43 5.62 18.56 11.84 26.16 19.84 7.26 6.16 11.9 14.7 19.18 20.84 4.83 4.1 6.17 11.04 11.55 14.58 4.49 3.16 8.27 7.22 12.96 10.12 3.94 2.34 4.89 7.19 7.92 10.35 11.22-2.9 21.8-8 33.18-10.37 2.37-.66 5.05-.78 7.1-2.28 1.22-10.36.49-21.1 3.77-31.12 1.94-6.46 7.95-10.07 12.78-14.21 3.53-3.05 7.74-5.11 12.07-6.78 7.57-2.91 12.31-10 19.4-13.7 9.19-4.87 17.92-10.76 27.82-14.16 4.82-1.75 8.81-5.08 13.22-7.6 3.71-2.18 8.11-2.55 12.03-4.22 2.7-1.56 4.1-4.73 6.94-6.12 2.15-.69 4.45-.67 6.63-1.27 1.94-1.3 3.39-3.23 5.42-4.44 3.65-1.77 7.92-1.69 11.54-3.54 2.53-1.8 4.51-4.28 7.18-5.9 6.81-4.26 14.76-5.95 22.24-8.63 1.8-.78 4.37-1.03 5.37 1.1 1.05 4.35-3.58 6.52-6.52 8.5-2.97 1.69-4.38 5.01-6.99 7.06-4 2.25-8.85 3.4-11.69 7.28-3.85 5.31-9.44 8.8-15.09 11.9-4.25 2.41-8.45 4.89-12.66 7.35-4.16 2.49-6.42 6.96-9.74 10.32-3.67 3.65-10.28 2.19-13.22 6.76-4.51 6.52-7.83 13.9-13.22 19.79-5.14 5.67-14.4 2.04-19.84 7.16-3.24 5.42-4.38 11.75-6.39 17.67-1.4 5.02-4.1 9.82-3.86 15.17 6.89.06 13.79.01 20.68 0 11.41.12 22.26 4.35 32.32 9.4 3.76 1.83 7.5 4.07 11.75 4.53 2.95-.04 5.52-1.78 8.14-2.94 12.13-6.37 25.88-8.17 38.81-12.29 11.39-3.78 23.26-5.66 35.01-7.91 6.6-1.11 13.3-1.65 19.99-1.95 7.61-.42 14.84-2.94 22.21-4.63 8.15-1.67 16.43-2.81 24.74-3.29 3.07-.13 5.99-1.09 8.88-2.09h.31c.09 1.66.21 3.32.34 4.98-5.7.64-12.19.12-16.66 4.4-11.67 9.91-26.61 14.22-40.64 19.56-2.98 1.21-6.06 2.31-8.46 4.53-4.69 3.27-10.12 4.99-15.61 6.34-6.03 2.76-11.96 5.83-17.56 9.39-5.64 3.42-11.82 5.76-17.93 8.14 9.19 7.94 19.55 14.42 29.2 21.79 2.11 1.38 4.33 3.92 7.11 2.72 7.19-2.08 14.04-5.16 20.92-8.08 4-1.66 7.75-4.12 12.09-4.86 5.29-1.05 10.76-.32 16.05-1.46 9.32-1.87 18.67-3.61 28.03-5.31 4.5-.75 8.39-3.5 12.91-4.19 5.34-1.1 10.73.21 16.09.45 11.32.96 22.69.55 34.02.01 17.65.28 35.37-1.2 52.96.69 7.05.11 14.02 1.26 21.01 2.11 2.82.34 5.62 1.14 8 2.75v.49c-1.4 1.88-2.47 3.97-3.32 6.14-3.62 9.18-8.5 17.82-13.91 26.05-2.19 3.49-6.35 5.76-7.06 10.09-1.95 8.81-5.76 17.22-11.46 24.25-3.18 3.79-3.95 9.08-7.71 12.45-4.2 4.14-7.46 9.1-11.44 13.44-10.03 11.2-19 24-32.49 31.36-7.1 4.36-15.51 6.03-22.38 10.81-3.2 2.06-6 4.86-9.66 6.1-3.74 1.15-7.67 1.39-11.52 1.94-3.38 14.23-5.44 28.76-7.68 43.21-1.81 8.88-4.1 17.67-6.82 26.31-1.07 3.44-2.79 6.67-3.57 10.2-2.83 18.06-10.02 35-15.82 52.22-3.3 8.31-.5 17.35-2.09 25.94-.17.15-.53.45-.7.59-2.65.54-5.61.96-7.51 3.08.64 5.97 1.12 11.99.6 17.98-.49 3.64-3.18 6.53-3.81 10.13-.34 3.13 0 6.28.21 9.42 5.24-2.3 9.33-6.38 13.61-10.05 1.02-.04 2.05-.06 3.1-.08.97 10.98 3.74 21.65 5.42 32.51 5.95-1.22 11.23-4.33 16.92-6.3 1.71 1.73.41 4.16-.68 5.84-3.42 5.26-5.74 11.12-8.24 16.86-1.53 3.15-1.49 6.71-1.43 10.14 4.9.67 9.88 1.16 14.61 2.72 4.31 1.34 8.13 3.83 12.34 5.45-.01.99-.04 1.98-.1 2.98-9.96 1.5-20.51 1.83-29.59 6.6 12.29 4.68 25.65 4.59 38.61 4.33.04.97.04 1.95.03 2.94-24.13 4.68-48.08 10.57-71.37 18.49-7.37 2.33-11.72 9.36-18.51 12.7-5 2.41-9.57 6.13-11.84 11.31-2.54 5.97-3.8 12.39-6.11 18.45 3.62 4.7 8.34 8.66 10.73 14.2-.12.1-.35.28-.47.37.99.92 1.98 1.96 3.05 2.83 3.05 2.71 6.7 5.05 8.42 8.92 3.04 6.4 5.54 13.06 8.36 19.56 2.32 3.95 4.39 8.38 8.22 11.11.76.69 1.88 1.15 2.32 2.16 1.87 5.31 2.27 11.03 4.14 16.35 2.05 3.4 5.59 5.73 7.29 9.42 5.13 10.27 6.81 21.79 10.27 32.66 5.16 15.72 5.78 32.48 10.46 48.32 1.34 4.96 4.88 8.93 6.42 13.8 1.89 9.23.37 19.1 4.01 27.98 1.51 4.38 3.35 8.64 4.99 12.97 1.86 4.82 1.89 10.05 2.81 15.08 1.89 11.11 5 21.98 6.62 33.14.48 7.51 7.4 12.57 8.1 20.05.6 8.5 1.33 17.12 4 25.26 3.7 11.55 6.37 23.42 8.19 35.4.7 4.38.88 8.88 2.22 13.14h-4.87c-1.51-11.74-3.37-23.46-6.43-34.9-2.07-8.75-5.52-17.19-6.36-26.2-.75-4.91-.3-9.95-1.53-14.78-1.32-5.2-6.4-8.59-7.18-14-2.08-14.65-6.41-28.89-8.2-43.59-1.27-11.36-8.92-21.03-9.23-32.56-.39-4.64-.17-9.33-1.08-13.9-.82-4.64-4.14-8.24-5.62-12.62-3.75-10.44-5.15-21.51-7.16-32.37-1.89-11.82-6.17-23.06-8.92-34.68-2.29-7.1-3.52-15.11-8.98-20.61-5.73-5.4-7.93-13.45-8.9-21-2.56-3.83-5.17-7.62-7.61-11.51-4.01-6.25-5.62-13.62-8.76-20.27-2.69-5.98-8.67-9.46-11.99-14.99-2.41-3.95-5.47-7.43-8.42-10.96-13.23 10.83-28.02 19.67-43.44 27.02-6.46 3.37-13.38 5.78-19.78 9.27-5.21 2.71-10.24 5.74-15.24 8.81-5.48 3.35-11.87 4.86-18.2 5.45-11.93.89-23.9.59-35.86.64-6.38-.17-12.8-.54-19.05-1.92-8.86-1.73-17.93-1.65-26.85-2.94-17.09-2.31-34.05-5.53-50.97-8.86-10.95-2.69-22.13-5.17-32.2-10.41-4.09-2.13-7.5-5.43-11.85-7.06-4.72-1.96-10.3-1.45-14.56-4.56-2.75-1.95-5.49-3.99-8.69-5.12-20.22-7.45-40.87-13.73-60.68-22.25-17.03-6.87-34.03-14.91-47.6-27.57-3.07.02-6.23-.06-9.11 1.18-23.04 8.85-45.57 19.58-65.52 34.24-11.98 10.06-24.01 20.11-35.08 31.2-7.57 7.62-15.22 15.16-22.76 22.82-5.14 5.21-10.52 10.21-14.99 16.04-3.91 4.72-8.02 9.34-12.75 13.27-4.46 3.77-10.43 5.32-14.54 9.56-4.54 4.54-8.45 9.7-11.56 15.32-3.74 6.74-9.64 11.92-13.55 18.54-2.65 4.3-6.01 8.12-8.54 12.5-1.54 2.5-1.12 5.7-2.77 8.15-3.93 5.74-9.52 10.09-15.41 13.66-8.02 4.97-12.62 13.45-17.91 20.93-3.51 4.78-6.09 10.41-11.2 13.74-8.8 11.89-16.55 24.58-23.48 37.65-9.07 17.87-16.18 36.65-24.04 55.05-5.43 9.89-11.98 19.19-16.26 29.69-3.67 7.75-4.64 16.37-7.56 24.38-2.45 6.96-5.08 13.87-8.28 20.52h-4.26c2.32-7.16 5.87-13.84 8.16-21.01 2.7-7.1 3.32-14.79 6.2-21.83 2.63-6.67 5.65-13.22 9.62-19.2 3.57-5.54 7.26-11.07 9.77-17.19 7.05-17.67 14.35-35.28 22.74-52.36 7.08-13.77 15.4-26.88 24.4-39.46 1.93-2.73 4.79-4.59 6.87-7.19 5.55-7.45 10.05-15.74 16.42-22.56 4.92-5.4 12.62-7.41 16.95-13.43-4.19-11.51-12.37-21.03-18.03-31.83-8.33-14.96-11.42-32-15.43-48.46-2.19-11.02-3.93-22.14-5.96-33.2-2.41-18.57-4.79-37.16-6.89-55.77-.38-2.37-1.12-4.68-2.43-6.69-9.54-14.29-19.81-28.12-31.3-40.91-10.55-11.85-21.02-23.94-29.1-37.65-2.12-3.88-4.24-7.76-6.85-11.33-6.01-8.54-8.97-18.64-12.71-28.26-3.43-9.44-7.32-18.77-9.47-28.62-2.36-10.2-3.12-20.68-4.64-31.02-5.32-34.85-11.3-69.61-16.58-104.47-.45-7.39-.28-14.9-2.56-22.05.13-.15.38-.44.51-.59 7.59 2.71 14.16 7.5 21.28 11.16 17.77 10.27 35.73 20.18 53.29 30.8 15.65 9.57 31.11 19.69 44.8 31.96 5.96 5.72 11.77 11.59 17.43 17.6 6.61 6.93 10.74 15.84 17.5 22.65 3.36 3.52 8.03 5.2 12 7.87 5.04 3.23 9.21 7.62 14.36 10.7-.39-7.29-2.2-14.39-3.09-21.62-2.07-11.94-2.96-24.05-4.93-36-2.47-13.43-5.29-26.79-7.82-40.2-2.63-14.9-1.77-30.56-7.57-44.77-.58-3.97.45-8.07-.53-12.03-.7-5.48-3.38-10.37-6.48-14.83-2.71-3.85-3.23-8.62-3.96-13.13-.74-4.69-2.61-9.08-3.81-13.65.15-.12.44-.34.59-.45 5.44.79 9.76 4.4 14.42 6.99 12.54 7.23 24.99 14.69 36.77 23.12 9.12 7.29 17.99 14.92 26.4 23.03 1.86 2.36 4.21 4.19 6.81 5.68 5.59 4.41 11.36 8.65 16.28 13.83 8.18 9.13 16.88 17.75 25.07 26.86 4.82 5.66 12.15 7.83 18.15 11.87 3.68 2.24 6.57 5.48 9.69 8.42 3.14 2.83 6.39 5.56 9.03 8.89 5.11 3.21 7.78 8.77 11.82 13.06 10.37 12.3 21.85 23.76 30.6 37.34 3.35 5.1 6.41 10.39 9.49 15.66 2.65 3.92 3.65 8.95 7.3 12.15.44.55 1.32 1.65 1.75 2.2.73-11.35.06-22.73.39-34.09.32-4.31.89-8.61.71-12.93-.48-10.13 2.55-19.93 5.23-29.56 5-17.49 9.87-35.02 14.22-52.69 2.1-8.15 1.81-16.92 5.52-24.63 1.83-4.18 5.21-7.33 7.82-10.99 3.66-4.97 2.16-11.68 5.1-16.97 5.58-11.12 14.19-20.31 22.06-29.82 4.64-5.69 10.16-10.95 12.76-17.98-.79-.21-2.37-.64-3.16-.85l-.37-.11c-1.12-.17-2.23-.33-3.34-.48-4.56-1.46-8.47-4.19-12.43-6.79-3.19-2.03-6.95-3.38-9.43-6.36-3.31-3.96-5.35-8.77-8.21-13.03-5.98-9.71-12.68-19.06-17.32-29.53-2.11-4.7-2.17-10-4.18-14.74-4.81-11.81-11.66-22.65-16.67-34.37-4.34-9.76-5.83-20.47-9.81-30.35-1.97-4.13-5.46-7.34-7.19-11.62-6.14-11.7-6.69-25.28-6.65-38.22-1.15-12.29-.92-24.67-.15-36.97-.1-3.34 2.79-5.8 5.47-7.26m.19 4.04c-1.02.89-2.55 1.76-2.42 3.32-.23 8.11-.32 16.22-.22 24.33 7.43.61 14.91 2.27 21.46 5.95 15.1 6.71 27.28 18.26 41.82 25.93 12.66 7.98 20.59 20.96 30.18 32.04 5.86 7.15 13.95 12.26 18.92 20.17 4.39 7.11 7.98 14.66 11.81 22.07 5.77 10.3 10.98 20.95 15.01 32.05 1.35 3.3 3.02 6.64 2.79 10.32-.14 6.02.46 12.05 0 18.07.25 1.57-.88 2.63-1.91 3.58-.57-.38-1.71-1.15-2.29-1.54-8.65 6.9-18.13 12.64-27.1 19.11-3.6 2.84-7.55 5.52-10.19 9.32-2.53 8.46-8.77 14.94-14.35 21.49-5.89 7.23-12.38 14.03-17.24 22.03-3.31 5.17-6.67 10.66-6.98 16.96-.78 8.17-8.6 12.75-11.22 20.1-2.95 7.63-3 15.96-4.93 23.84-4.82 19.45-10.36 38.7-15.77 57.99-2 6.85-3.29 13.9-3.68 21.03-.57 15.34-.3 30.71-.36 46.06-.05 10.83.02 21.65.51 32.47.23 1.13.02 2.79 1.32 3.35 5.11 2.79 10.44 5.23 15.92 7.21 4.39 1.66 9.07.13 13.43-.83 11-2.7 22.24-5.07 33.64-4.66 9.67-.23 19.31.59 28.93 1.42 11.11.81 22.25 1.37 33.35 2.21 6.48-3.5 12.89-7.15 19.57-10.25 19.56-7.51 39.27-15.26 60.18-18.01 12.16-2.32 24.58-2.88 36.93-2.82 3.64-.14 7.2-1.42 10.88-.83 13.81 1.29 28.06 2.02 41.02 7.46 17.16 6.3 35.12 10.01 52.48 15.68 14.19 4.59 27.54 12.02 38.59 22.06 14.4-9.13 28.08-20.53 45.08-24.45 1.23-.42 3.38-.56 3.74 1.09.92 4.94 1.78 9.91 2.65 14.87 2.45-.91 5.1-1.6 7.12-3.37 2.45-1.93 1.19-6.47 4.48-7.58 2.93-1.19 6.2-.44 8.3 1.92 2.86-6.72.31-13.96.03-20.85.53-4.87 7.16-3.45 9.01-7.17 1.13-6.31-1.82-12.76.23-18.94 5.04-17.05 12.62-33.34 16.07-50.85.18-5.4 2.99-10.09 4.42-15.18 2.85-9.22 5.37-18.56 7.24-28.04 1.66-13.29 4.63-26.38 6.57-39.63-16.27-9.54-28.58-25.26-34.34-43.18-3.26-10.7-7.26-21.21-12.57-31.06-3.08-5.06-3.42-11.12-5.25-16.64-10.56-.31-21.12-.08-31.68-.23-12.12.15-23.91-3.82-36.06-3.18-7.76.32-15.29 2.57-23.06 2.7-4.64.01-8.31 3.06-12.28 4.98-3.86 2.03-8.07 3.19-12.11 4.78-3.28 6.14-7.78 11.52-12.3 16.77-4.16 3.95-8.45 7.76-12.55 11.77-1.3 1.41-3.51.66-4.28-.92.53-2.87 3.16-4.58 5.06-6.55 7.19-6.47 14.17-13.46 18.86-22.01 1.62-3.78 6.12-4.78 9.6-6.14 6.9-2.05 12.56-7.64 20.07-7.63 7.05-.05 13.85-2.21 20.88-2.54 10.08-.74 20.09 1.18 30.01 2.64 11.99.98 24.02.19 36.03.67 18.13.11 36.13 2.53 54.19 3.82-6.46-5.89-15.75-6.38-24.02-7.09-16.4-1.57-32.93-2.71-49.01-6.49-18.66-4.85-38.09-4.27-57.15-6.04-13.5.31-27.2-.12-40.44 2.98-2.91.87-6.04 1.41-8.61 3.09-4.5 4.28-7.47 9.85-11.63 14.42-2.87 3.3-7.56 4.28-10.28 7.76-.81 1.43-2.48 1.24-3.86 1.46-1.37 1.39-2.63 2.9-3.73 4.52-1.27-.29-3.03.4-3.87-.84.05-1.6.8-3.04 1.32-4.52 1.82-.38 3.63-.78 5.45-1.18.42-2.47 1.19-4.86 1.52-7.34.12-5.65-1.22-11.27-.6-16.91 1.41-2.78 3.76-4.94 5.58-7.45 2.65-3.3 4.57-7.29 7.99-9.9 6.13-3.23 12.3-6.43 18.23-10.03 3.5-2.13 6.56-5.1 10.59-6.27 9.41-3.1 18.73-6.57 28.43-8.68 2.71-.56 5.21-1.8 7.67-3.04 3.93-2 8.24-3.11 12.26-4.93 6.73-2.97 12.57-7.58 19.43-10.29 4.65-3.12 10.02-4.7 15.4-6.05 5.11-2.29 9.59-5.81 14.77-8.01 12.66-5.39 26.75-8.36 37.58-17.31-5.42.65-10.93 1.2-16.08 3.07-6.8 2.37-13.99 3.31-21.15 3.6-13.52.72-26.75 3.74-39.97 6.47-6.14 1.22-11.87 3.83-17.95 5.26-11.12 3.04-22.68 5.08-32.93 10.58-7.8 3.39-15.56 7.48-24.16 8.33-8.5 1.24-16.71 4.64-23.48 9.95-6.36 5.61-14.65 8.35-21.14 13.79-2.51 1.79-2.71 5.18-4.5 7.53-2.29 2.97-2.7 6.76-3.11 10.37-.85 9.93-1.59 19.87-2.34 29.81-.18 1.4-.07 3.14-1.46 3.98-1.31.11-3.86.02-3.46-1.95.72-16.01 2.51-31.97 3.31-47.98-.27-9.02 1.06-17.96 1.58-26.95.45-7.31-2.37-14.74-.06-21.92 3.19-10.8 6.69-21.52 10.84-31.99 1.07-2.23 1.86-4.81 3.83-6.44 4.38-2.25 9.33-3 14.2-3.32 1.86-.05 3.34-1.36 4.54-2.66 5.43-6.46 8.5-14.59 14.24-20.81 2.9-3.14 7.56-3.02 11.1-5.05 4.47-3.2 6.51-9.04 11.57-11.52 3.91-2 7.56-4.43 11.4-6.56 3.91-2.26 8.11-4.18 11.41-7.34 2.59-2.44 4.21-5.86 7.32-7.75 2.89-1.98 6.36-2.84 9.37-4.61 1.8-1.84 3.17-4.05 4.83-6.03-5.63 1.61-11.24 3.56-16.21 6.71-2.72 1.77-4.22 5.26-7.55 6.06-3.3 1.16-6.85 1.31-10.12 2.53-1.59 1.02-2.47 2.83-3.98 3.95-2.77 1.22-5.84 1.39-8.77 1.94-1.76 2.19-3.33 4.74-5.85 6.13-3.47 1.65-7.37 1.97-10.91 3.42-4.92 2.17-8.96 5.93-13.97 7.92-9.71 3.78-18.53 9.43-27.85 14.01-5.45 2.66-9.24 7.59-14.21 10.92-4.63 3.35-10.5 4.39-15.01 7.95-3.36 2.64-6.72 5.31-9.98 8.08-2.85 3.45-4.85 7.74-5.15 12.25-1.1 11.32-1.89 22.69-1.87 34.07 1.28 12.81 1 25.78-.69 38.54-.39 4.16.62 8.28.51 12.44-.22 12.08-1.85 24.4-6.95 35.47-1.09 1.43-3.5.91-4.19-.61-.14-2.11.86-4.05 1.52-6 3.27-8.53 4.22-17.73 4.64-26.79.32-5.37-1.02-10.71-.3-16.07 1.23-9.92 1.63-19.93 1.15-29.92-.65-4.56-.73-9.16-.55-13.76-9.46 2.16-18.75 4.97-27.81 8.45-3.16 1.3-6.66 1.84-9.57 3.7-1.13.59-2.07 1.91-3.51 1.5-3.07-3.73-4.48-8.64-7.91-12.09-5.45-3.7-10.48-7.97-15.48-12.24-4.48-3.72-5.92-9.8-10.34-13.57-4.06-3.63-7.83-7.63-10.76-12.23-3.42-5.84-9.22-9.6-14.11-14.09-6.81-6.4-15.28-10.56-22.92-15.84-7.53-5.05-16.79-7.28-23.44-13.66-8.75-7.84-17.6-15.93-28.48-20.71-2.35-.8-4.79.36-7.17.31-7.15-4.67-12.6-11.4-19.16-16.78-6.3-4.02-13.15-7.22-20.2-9.71-5.71-2.01-11.55-4.21-17.71-3.91-3.06.22-6.58-.77-9.15 1.36m-2.68 31.51c.19 9.62.56 19.26 1.67 28.82.68 7.66 3.74 14.93 7.77 21.4 6.02 6.18 7.3 15.11 9.93 23 4.05 17.68 14.92 32.62 21.51 49.31 2.31 5.29 2.09 11.31 4.97 16.42 4.07-5.41 10.06-8.67 16.36-10.8 2.2-4.56 2.33-9.66 3.44-14.51 1.46-1.31 3.17-2.34 5.22-2.19 5-.1 10.08-1.96 15.01-.29 6.91 2.02 13.69 4.54 20.8 5.82 4.49.75 7.8 4.06 11.61 6.23 4.2.82 8.5 1.15 12.78 1.38-1.55-4.3-3.86-8.25-5.93-12.31-5.04-9.56-9.75-19.3-15.25-28.61-4.8-7.35-11.55-13.11-17.87-19.08-10.21-12.08-18.67-26.4-32.7-34.55-10.26-4.82-18.79-12.42-28.07-18.78-3.74-2.03-7.72-3.58-11.43-5.67-5.98-3.57-13.02-4.68-19.82-5.59m296.3 95.38c-.99 6.45 1.15 12.82.74 19.27-.57 8.3-1.6 16.57-1.63 24.9 6.15-6.65 14.5-10.53 22.11-15.19 6.04-5.17 13.14-9 20.74-11.35 6.16-1.92 12.89-1.64 18.72-4.67-7.7-4.22-15.8-7.72-24.15-10.44-11.82-3.65-24.34-2.83-36.53-2.52m-227.29 20.23c-.41 4.33-.81 8.76-2.42 12.84-1.55 3.71-5.94 4.3-9.18 5.82-4.08 1.63-6.82 5.21-9.57 8.45 4.84 8.94 10.75 17.25 15.87 26.03 2.61 5.54 6.29 11.2 12.18 13.62 4.14 1.69 7.4 4.82 11.15 7.16 3.08 1.98 6.88 1.47 10.36 1.42 4.31-5.61 10.23-9.63 15.91-13.7 8.28-5.78 16.8-11.27 24.64-17.63 1.05-4.17-.19-8.65.16-12.95.73-6.65-3.22-12.36-5.59-18.26-4.67-.03-9.34-.31-13.95-1-4.64-1.43-7.81-5.91-12.75-6.57-7.81-1.57-15.39-4.02-22.98-6.36-4.63-.22-9.22.82-13.83 1.13m328.74 16.07c-5.14 2.45-11.02 2.53-16.23 4.82-6.57 2.7-13.7 3.94-20.08 7.06-7.8 5.75-16.42 10.23-25.19 14.29-3.07 5.25-6.88 10.02-10.81 14.64.61 5.17.68 10.38 1.34 15.54 8.52-4.55 11.01-15.7 19.88-19.85 12.75-5.01 26.68-5.23 40.18-5.5 4.48-.25 8.99-.45 13.45.22 14.79.96 29.62 1.48 44.31 3.55-4.22-4.49-7.96-9.49-12.61-13.55-10.06-7-19.72-14.58-29.94-21.34-1.27-1.28-2.94-.51-4.3.12m122.97 4.39c-9.46 1.83-18.93 3.55-28.39 5.39-7.42 1.95-15.48.06-22.63 3.34-9.41 4.41-18.99 8.48-28.89 11.67 3.48 3.92 6.99 7.81 10.62 11.6 12.96 3.04 26.19 4.71 39.45 5.88.43-.14 1.29-.41 1.73-.54 17.71-8.58 36.44-15.88 56.18-17.78 11.62-1.34 23.3-.07 34.95-.1 12.42.53 24.86 1.11 37.22 2.56 5.76 1.53 11.21 4.03 16.62 6.49 1.87.77 1.46 3.26 2.06 4.87 7.21-10.41 13.96-21.36 18.3-33.3-36.75-6.52-74.12-1.75-111.15-3.22-5.67-.55-11.49-1.55-17.1-.1-3.15.67-5.79 2.73-8.97 3.24m6.08 27.97c-9.23 3.11-18.46 6.34-27.22 10.6 7.06 1.09 14.4.91 21.2 3.46 3.93 1.16 6.76 4.33 10.38 6.12 3.17 1.76 6.71 2.8 9.7 4.92 12.64.55 25.3 1.38 37.85 3.16 3.79.56 8.1.7 11.12 3.4 7.48 10.32 10.99 23.31 10.17 36.02 5.94-6.69 11.7-13.54 17.61-20.26 2.48-2.48 2.52-6.37 4.93-8.93 7.05-8.5 12.1-18.87 13.44-29.9-.2-1.7-.23-3.51-.96-5.07-4.47-1.87-8.67-4.56-13.49-5.42-17.81-2.23-35.79-2.57-53.72-3.02-13.82-.89-27.77.95-41.01 4.92m-46.91 24.31c.75 3.38 1.61 6.73 2.51 10.08 4.28-.97 8.25-2.88 12.41-4.23 6.55-1.47 13.24-2.24 19.9-3.08-11.58-1.14-23.19-2.28-34.82-2.77m18.77 9.12c-5.18.67-9.87 3.04-14.77 4.69 5.38 10.08 9.7 20.71 13.04 31.63 5.21 16.56 16.12 31.51 31 40.61 4.62.64 9.36-.28 13.83-1.53 4.26-.76 6.89-4.57 10.5-6.6 6.01-4.27 13.35-5.86 19.75-9.39 9.01-4.74 16.83-11.6 23.17-19.53 2.72-12.56 0-26.29-7.05-37.06-1.29-2.24-3.82-3.27-6.26-3.57-13.95-1.99-28.01-3.34-42.1-3.55-13.78.52-27.53 1.89-41.11 4.3m-693.55 26.02c1.38 6.28 1.3 13.24 5.39 18.57 5.55 8 7.57 17.89 6.86 27.5 5.89 14.72 4.43 31.02 7.73 46.33 2.99 15.58 6.54 31.07 8.63 46.81 3.9 34.52 11.03 68.55 17.81 102.58 2.94 3.98 1.08 9.01 1.74 13.56.32 9.56 9.68 15.53 10.65 24.87 2.64 12.31 6.05 24.45 9.58 36.53 3.38 10.76 9.03 20.66 12.09 31.53 3.73-13.97 6.61-28.16 10.11-42.19.65-1.96 1.43-4.87 4.12-4.36 3.81 3.89 5.7 9.22 8.47 13.85 5.14 9.05 8.47 19.43 16.18 26.77 6.58-7.17 8.64-16.91 13.1-25.3 1.09-3.16 5.12-2.73 7.75-2.28 4.92 2.39 7.46 7.65 10.01 12.21 1.77-12.21 9.38-22.19 15.39-32.56 6.75.67 12.63 4.44 17.5 8.95 1.35-2.99 2.93-6.28 6.13-7.65 3.66-1.76 7.64-.15 11.33.66 2.67-.29 4.65-2.31 6.77-3.75-5.42-4.1-11.74-6.61-17.74-9.64.05-.71.15-2.11.19-2.82 4.07-.38 8.15-.67 12.22-1.07-.02-3.32-.02-6.63-.04-9.94-1.77-1.73-3.84-3.08-6.02-4.22-5.03-2.68-8.61-7.25-13.02-10.74.15-.49.44-1.47.59-1.96 8.31-.82 16.77-.46 25.02-2.09-7.39-7.55-17.4-12.8-22.46-22.41-1.24-3.73-1.14-7.91-.37-11.71 2.07-1.49 3.7.98 5.42 1.82 8.57 5.26 17.54 9.82 26.36 14.63-.08-7.23-.49-14.46-.5-21.69-9.35-13.86-16.71-28.97-26.11-42.8-9.94-13.61-22.22-25.29-32.29-38.79-3.42-4.52-7.88-8.07-12.14-11.76-3.7-2.95-6.58-6.85-10.63-9.36-5.04-3.46-10.85-5.65-15.67-9.43-12.42-11.92-23.26-25.44-36.02-37.01-15.58-11.97-29.28-26.21-45.05-37.94-12.8-8.26-25.75-16.32-39.08-23.7m-143.27 78.23c5.84 37.49 12.35 74.87 17.77 112.42 1.41 12.68 3.17 25.47 7.62 37.49 3.16 8.69 6.6 17.27 9.68 25.98 1.98 5.09 4.58 9.94 7.64 14.47 4.73 6.4 7.72 13.87 12.53 20.23 11.09 16.34 25.48 30.02 37.48 45.65 12.88 16.47 24.31 34.06 34.44 52.34 3.98-6.39 9.03-12.06 12.64-18.69 1.44-3.31 5.68-1.76 8.45-1.97.84 2.88 1.09 5.9 2.01 8.77 2.72 1.92 5.03 4.33 7.34 6.72 4.99-16.63 10.04-33.23 14.76-49.93.34-2.09 2.56-3.92 4.58-2.51 9.62 3.96 18.85 8.78 28.33 13.03 1.7-4.64 4.11-9.04 5.44-13.8-6.79-16.51-10.41-34.1-14.55-51.39-1.98-4.54-5.62-8.16-7.29-12.87-2.74-5.21-2.48-11.21-2.4-16.91-.46-1.6-1.58-2.95-1.8-4.62-2.98-15.39-6.02-30.77-9-46.16-8.18-6.92-16.23-14.33-25.98-19-10.45-7.07-15.08-19.53-23.79-28.29-14.74-15.36-30.6-30.01-49.12-40.72-25.48-15.59-51.59-30.14-77.62-44.79.32 4.85-.07 9.75.84 14.55m610.97 135c-43.2-1-86.4 11.4-123.22 33.84-2.5 1.46-5.12 2.81-7.93 3.53-1.32.54-3.15-.56-2.62-2.07 2.34-2.14 5.65-2.77 8.13-4.77-20.16-.58-40.18-3.55-60.36-3.13-10.82.14-21.29 3.06-31.81 5.25-3.29.66-6.74 1.58-10.07.67-8.41-2.46-16.09-6.75-23.98-10.47-9.04-4.77-18.06-9.57-26.83-14.82-.81 4.63 2.56 8.06 5.31 11.27 6.01 6.1 13.39 10.68 19.39 16.79 1.66 1.2-.3 2.86-.89 4.06-7.2 1.53-14.56 2.03-21.9 2.39 2.87 2.94 6.32 5.19 9.84 7.28 2.53 1.56 5.48 3.88 5.13 7.23-.11 3.91.32 7.88-.27 11.76-1.37 1.41-3.49 1.08-5.24 1.45 3.72 2.56 7.94 4.32 11.57 7.02.05.46.14 1.39.19 1.85-3.29 5.9-10.23 8.01-16.34 9.63 3.79 1.64 10.37 1.67 10.24 7.22-1.08 1.06-2.12 2.15-3.24 3.17-3.03 3.26-8.77 1.84-10.88 6.24 3.63.06 7.28.95 10.35 2.95 1 .73 2.7 2.12 1.64 3.48-1.95 2.31-3.96 4.6-5.37 7.3 5.65-1.06 11.45-.41 17.17-.55 2.23-.43 4.14 2.36 2.5 4.07-2.55 1-5.62 1.1-7.62 3.22-2.08 2.27-3.23 5.2-4.75 7.84 7.34.13 14.48 2.23 21.84 2.07 2 .19 4.53-.54 6.02 1.2 11.53 11.39 26.33 18.65 41.09 24.9 20.02 8.04 40.57 14.65 60.75 22.24 4.19 1.73 8.64 3.13 12.2 6.06 4.33 3.6 10.38 3.03 15.33 5.25 5.08 2.02 9.16 5.84 14.15 8.05 9.31 4.41 19.43 6.61 29.34 9.2 17.63 3.26 35.23 6.85 53.03 9.13 9.72 1.2 19.65.96 29.16 3.64 15.95 1.45 32.01.9 48 .39 9.05-.3 17.39-4.17 24.86-9.03 6.64-3.84 13.48-7.34 20.53-10.38 16.41-7.53 32.33-16.33 46.78-27.2 3.6-2.84 5.09-7.38 6.18-11.65 2.01-7.01 3.87-14.65 9.45-19.77 4.04-4.19 10.05-5.52 14.2-9.57 3.4-2.62 6.34-5.94 10.16-7.95 18.26-6.68 37.26-10.99 56.04-15.87-9.31-.47-18.32-2.84-27.24-5.34-1.5-.1-3.07-1.55-1.93-3.07 1.63-.95 3.69-.81 5.38-1.72 8.31-4.02 17.62-4.81 26.56-6.56-5.62-2.72-11.78-4.48-18.05-4.5-1.65-.16-3.76.3-4.84-1.28-.22-3.95-.71-8.14 1.05-11.83 2.54-6.14 5.05-12.3 7.99-18.26-3.78 1.43-7.45 3.16-11.29 4.42-1.36.24-4.04.72-4.17-1.28-1.02-10.11-4.25-19.85-5.01-29.99-4.07 3.21-8.6 5.81-12.44 9.31-1.32 1.21-3.83 3.27-4.86.67-.37-5.02.33-10.1-.68-15.08-.57-2.02-.2-5.07-2.83-5.65-.82 2.51-1.44 5.28-3.35 7.22-2.43 2.23-5.69 3.15-8.73 4.22-2.25.68-4.41 1.86-6.82 1.67-.27-2.36-.6-4.88 1.1-6.81-.55-3.51-1.23-7-1.69-10.52-17.17 4.41-31.09 15.89-45.49 25.61-10.19-9.82-22.52-17.36-35.85-22.1-20.73-7.43-42.78-10.72-62.98-19.67-10.8-2.77-21.99-3.72-33.07-4.71-2.75-.48-5.3.88-8.01.84m-312.54 121.99c.17 3.09-3.61 2.59-5.65 2.29-2.7-5.8-5.04-11.93-9.29-16.82-.82-1.09-2.28-1.13-3.45-1.52-4.71 8.71-6.63 19.08-13.76 26.34-1.34 1.44-3.67 3.52-5.57 1.75-10.65-9.65-14.8-23.91-22.23-35.82-.19.05-.56.16-.75.21-3.76 15.83-7.71 31.66-11.06 47.59 1.4 8.13 3.07 16.23 4 24.44 1.58 9.04 1.31 19.08 7.25 26.68 4.49 5.43 7.94 11.71 9.5 18.63 13.42-13.69 27.12-27.17 42.1-39.15 7.68-4.6 14.58-10.43 22.41-14.83 14.88-9.39 31.12-16.24 47.2-23.24-4.76-.67-9.59-.63-14.32-1.38-.07-.54-.23-1.63-.31-2.17 1.61-4.48 4.15-8.54 6.57-12.6-2.75.05-5.58-.14-8.18.91-1.64.43-3.34 1.63-5.04.74-1.73-4.86 2.04-9.16 4.39-13.05-3.46-1.16-7.09-1.49-10.7-1.76-.44-3.21-.17-6.95 2.55-9.14 3.28-2.44 7.91-2.06 10.97-4.95-4.52-1.74-9.29-2.77-13.57-5.11-.64 2.43.67 6.26-2.35 7.37-3.42-.81-5.87-3.52-8.47-5.68-2.55-2.49-5.87-3.92-9.12-5.24-7.4 10.29-14.28 22.38-13.12 35.51m-121.42-.69c-4.31 14.15-8.36 28.38-12.7 42.52-1.07 3.1-1.48 6.55-3.33 9.31-2.08.26-4.79 1.01-6.41-.77-2.19-2.17-4.25-4.47-6.7-6.36-2.55-1.91-2.92-5.29-3.76-8.13-4.57 6.98-10.01 13.37-14.12 20.65 12.03 21.02 23.65 42.27 34.84 63.75 6.35 11.3 12.23 22.97 19.85 33.49 3.79-2.78 6.26-6.94 9.5-10.31 3.17-4.68 8.79-6.3 13.31-9.25 7.39-4.68 12.71-11.79 18.25-18.41 5.58-6.09 11.56-11.81 17.31-17.73-.78-6.46-3.27-12.66-7.34-17.74-3.58-4.5-6.7-9.56-7.65-15.33-1.83-12.5-3.38-25.05-5.84-37.45-.26-.36-.79-1.09-1.05-1.45.26-3.25-.81-6.36-1.57-9.46-1.57.17-3.22.52-4.73-.14-12.91-5.09-25.04-11.93-37.86-17.19m32.64 9.75c2.9 1.29 5.83 2.51 8.78 3.7-1.35-4.41-2.97-8.73-4.83-12.94-1.44 3.02-2.74 6.11-3.95 9.24m-92.63 55.44c1.98-2.91 4.93-4.9 8.11-6.3-3.64-6.44-7.23-12.9-11.01-19.26.59 8.56 2.03 17.03 2.9 25.56m4.53 2.9c-1.76 2.51-1.46 5.69-1.47 8.59-.34.44-1.01 1.32-1.34 1.77 3.36 23.36 7.38 46.7 14.05 69.38 2.71 10.19 6.82 20.08 12.82 28.79 4.73 6.77 8.79 13.98 12.75 21.23 1.12-7.65 6.97-13.26 10.86-19.59 3.72-6.42 9.23-11.53 13.16-17.8-9.58-14.21-17.85-29.24-25.82-44.39-9.29-17.71-18.95-35.21-28.78-52.62-2.36 1.08-4.87 2.3-6.23 4.64z"/><path d="m469.18 341.91c3.28-1.84 7.16-1.62 10.79-1.6 18.11.2 36.12 5.01 52.1 13.49 13.95 6.59 27.7 13.6 41.3 20.89 3.79 2.9 7.04 6.46 10.54 9.7 2.14 1.71-.41 5.4-2.79 3.79-1.99-1.5-3.75-3.27-5.6-4.91.78 12.93 1.79 25.86 2.11 38.81-1.41 1.07-2.79 2.18-4.13 3.32.4 4.91-.43 10.34-4.79 13.35-.04 3.49.22 7.34-2 10.31-3.11 4.58-8.56 6.54-13.68 7.88-17.92 6.08-37.24 7.11-55.9 4.55-3.18-.22-5.75-2.16-8.09-4.12-1.35.04-2.69.02-4.02-.05-2.03-.97-2.93-3.75-5.47-3.72-4.68-.25-8.86-2.51-13.35-3.6-5.55-3.38-8.7-9.43-11.07-15.27-7.48-19.16-9.36-40.27-6.71-60.6 1.77-13.13 9.66-25.09 20.76-32.22m1.67 4.84c-9.23 6.11-15.45 16.24-17.35 27.09-3.2 20.34-.66 41.47 6.82 60.62 1.68 4.5 4.4 8.69 8.44 11.4 3.68-.08 6.58 2.72 10.22 2.69 3.36.03 6.79 1.02 8.97 3.72.75.02 2.25.06 2.99.08 1.84 1.61 3.6 3.55 6.1 4.09 20.46 3.14 41.84 1.38 61.17-6.23 5.57-2.46 6.15-9.14 5.08-14.4 1.53-.79 3.44-1.33 4.34-2.94 1.72-2.65.32-6 1.42-8.82.66-1.85 2.25-3.1 3.59-4.44-.42-13.6-1.68-27.16-2.15-40.76-13.75-7.5-27.7-14.62-41.85-21.35-13.7-7.34-29.14-11.18-44.59-12.23-4.39.15-9.27-1.02-13.2 1.48z"/><path d="m735.93 350.48c14.28-4.11 30.04-4.83 44.12.43 3.62.67 7.56.87 10.56 3.3 3.81 2.47 4.9 7.18 7.98 10.31 8.19 9.01 12.08 21.47 11.11 33.56-.42 4.53-.36 9.9-4.31 12.97-.95 10.51-3.93 21.13-10.48 29.58-1.44 2.05-3.69 3.25-5.85 4.39-4.35 7.45-11.7 13.02-20.13 14.95-5.23 1.48-10.81.52-16 2.21-12.15 4.06-25.67 4.3-37.81.09-5.81-2.03-11.79-4.06-18.02-3.99-2.29-.17-4.71.33-6.9-.43-1.65-.59-1.39-2.5-1.44-3.87-.05-2.76-.01-5.52-.1-8.27-1.85-1.07-4.13-2.23-3.96-4.76-1.15-11.1-3.08-22.13-6.13-32.87-2.4-8.58-2.15-17.55-2.08-26.37-1.59 2.23-3.01 4.58-4.41 6.94-.8-.14-2.41-.42-3.22-.56-1.27-1.62.04-3.63.8-5.17 2.17-3.64 4.06-7.44 6.39-10.98 8.97-3.61 18.67-5.37 27.42-9.62 6.07-2.43 11.59-5.92 17.59-8.48 4.91-1.31 9.98-1.96 14.87-3.36m-1.85 5.56c-3.73.83-7.53 1.3-11.25 2.18-12.59 7.62-26.84 12.19-40.76 16.92-1.11 10.89-1.44 22.16 1.72 32.76 2.92 10.69 4.67 21.66 5.86 32.67 1.24 1.22 2.72 2.19 4.06 3.32-.04 3.12-.03 6.25-.01 9.38 7.17-.42 14.16 1.37 20.81 3.92 12.25 4.67 26.15 4.58 38.45.11 4.32-1.71 9.08-.88 13.55-1.85 7.44-1.5 14.2-6.24 17.97-12.85 1.21-2.97 5.01-2.83 6.82-5.22 6.5-8.51 8.81-19.31 9.35-29.79 4.31-1.69 3.7-6.77 4.12-10.56.69-10.69-2.84-21.66-10.09-29.61-3.41-3.28-4.59-8.79-9.53-10.38-3.35-1.83-8.38.59-10.66-3.09-13.21-3.54-27.58-2.5-40.41 2.09z"/><path d="m509.52 377.65c5.4-.52 11.76-1.26 16.2 2.58 6.05 4.96 7.61 13.3 7.74 20.72.36 8.4-2.51 17.11-8.51 23.1-5.28 1.59-11.6 1.63-16.22-1.77-4.57-3.07-7.07-8.28-8.77-13.34-3.3-9.7-1.98-21.24 4.79-29.17 1.12-1.54 3-1.89 4.77-2.12m.99 5.03c-2.77-.04-3.87 2.68-4.92 4.76-3.84 7.78-2.71 17.29 1.37 24.74 2.36 4.29 6.92 7.78 12.02 7.41 1.37-.23 3.41.5 4.25-.98 3.72-5.03 5.65-11.34 5.33-17.59-.12-6.16-1.28-13.14-6.34-17.25-3.59-1.88-7.83-1.41-11.71-1.09z"/><path d="m742.1 396.18c3.77-.46 8.29-1.31 11.47 1.34 4.66 3.14 5.59 9.27 5.67 14.47.27 5.59-1.23 11.83-5.9 15.37-5.73 4.29-13.94 4.89-20.37 1.86-5.19-2.55-6.68-8.91-6.44-14.22-.22-5.93 2.4-11.67 6.5-15.86 2.17-2.81 6.03-1.97 9.07-2.96m-2.56 5.46c-4.54.35-6.59 5.08-7.74 8.87-.71 4.29-.8 9.21 1.77 12.95 2.71 2.67 6.88 2.59 10.43 2.34 5.11-.41 9.43-4.76 10.04-9.81.6-4.35.61-9.31-1.97-13.06-2.83-4.12-8.51-1.89-12.53-1.29z"/><path d="m459.12 452.12c2.99-1.79 3.57 2.61 4.3 4.53 5.81 5.22 13.7 8 21.47 8.31 12.37.94 24.72 2.45 37.15 2.62 7.91.24 15.6-2.11 23.02-4.59 2.86-.87 5.69-3.73 8.79-2.19.51 1.34.81 3.45-.91 4.04-4.75 3.32-10.7 3.63-16.04 5.5-7.4 2.34-15.21 2.34-22.89 1.95-10.37-.82-20.75-1.57-31.12-2.54-9.04-.49-17.82-4.5-24.28-10.8-.5-2.16-1.91-5.41.51-6.83z"/><path d="m677.84 454.48c6.14-.02 12.02 3.07 16.05 7.61 3.02 3.27 5.5 7.52 10.05 8.85 2.47.43 3.61 3.34 6.15 3.45 7.64.7 15.24 1.83 22.88 2.48 1.97.39 3.54-1.05 5.19-1.84 2.88-1.97 6.61.28 9.58-1.44 1.8-1.24 3.4-2.76 5.15-4.08 5.65-.03 11.29.17 16.94.3.23-2.03 0-4.21.93-6.08 4.29-1.33 8.88-1.29 13.32-1.96 1.78-.56 2.72 1.12 3.75 2.2-2.54 4.32-8.41 2.76-12.6 3.69-.52 2.16.43 5.35-1.49 6.82-6.26.74-12.57-.44-18.84.05-2.41 1.1-4.2 3.3-6.79 4.05-2.59.93-5.38.37-8.03.78-2.31.99-4.38 3.08-7.09 2.47-9.04-.89-18.05-1.99-27.06-3.02-1.54.06-2.26-1.29-2.63-2.55-6.37-2.27-10.61-7.69-14.86-12.62-3.25-3.56-8.76-3.03-12.07-6.3.37-.72 1.1-2.15 1.47-2.86z"/><path d="m601.23 510.33c1.87-.61 3.62-1.68 5.59-1.95 6.79-.2 13.76-.75 20.32 1.42 2.9 1.06 6.39.01 8.86 2.16 1.67 1.31 3.77 1.69 5.72 2.38 5 4.32 12.05 6.54 15.42 12.56 1.61 6.32 2.17 13.76-1.88 19.32-4.07 5.67-10.84 8.19-16.73 11.43-3.91 2.18-8.51 1.55-12.79 1.95-7.64.53-15.21-.83-22.77-1.62-2.73-.14-4.55-2.47-6.99-3.35-3.9-1.34-7.9-2.89-10.92-5.78-1.37-1.68-2.37-3.63-3.51-5.46-3.74-2.36-7.87-5.53-8.16-10.33-.09-3.56-.72-7.77 1.92-10.63 6.97-7.01 17.06-8.61 25.92-12.1m-4.17 9.11c-1.18 3.6 3.67 3.79 6.04 3.99 6.09.05 10.75 4.94 16.77 5.24 2.08.04 4.11.55 6.01 1.42 2.21 1.02 4.68.21 6.97-.1.06-3.69-.13-7.38-1.12-10.94-4.32-1.12-8.06-4.17-12.68-4.04-7.64-.72-14.77 2.53-21.99 4.43z"/><path d="m564.87 609.96c3.11-2.45 7.08-3.82 11.06-3.36 3.49.81 6.58 2.81 10.11 3.52 4.52.79 8.35 3.88 13 4.16 6.41.31 13.31-.96 19.15 2.44 6.14-2 12.91-1.24 18.79 1.31 2.01.8 2.7 2.98 3.59 4.76 5.53-.01 11.12-.22 16.55 1.03 4.54.98 9.2 1.19 13.83.7 3.65-.44 6.48 2.36 8.54 4.99 1.12.82 2.96 1.27 2.81 3.01.27 3.81 1.67 7.76.25 11.51-1.18 3.64-3.81 7.14-7.65 8.18-3.86 1.13-6.54 4.3-9.22 7.1-3.89.28-7.79-.07-11.67.23-1.67.71-3 2.32-4.88 2.4-8.53-.05-16.8 2.45-25.22 3.47-3.96-.12-7.98-.91-11.9.06-5.23 1.27-10.76 1.41-15.99.08-5.06-1.33-10.35-.55-15.47-1.47-2.23-.25-3.38-2.48-4.89-3.86-8.6.78-16.88-2.14-24.58-5.64-3.94-1.88-8.31-2.31-12.45-3.49-.56-2.77-1.69-5.36-2.38-8.08.21-2.13 2.31-3.79 1.76-6.01-.73-4.49-.96-9.94 2.57-13.35 4.14-2.81 8.56-5.24 12.3-8.6 3.31-3.12 8.49-2.25 11.99-5.09m-3.87 6.97c-4.35.53-7.08 4.25-10.76 6.18-2.86 1.62-6.47 2.93-7.55 6.4-.74 4.11.79 8.38-.56 12.44-.89 1.96-.25 5.05 2.2 5.42 7.06 1.76 13.56 5.18 20.58 7.07 4.12 1.16 8.44.87 12.67.99 1.39 1.32 2.71 2.78 4.4 3.75 4.63.84 9.44-.11 14.01 1.27 4.9 1.36 10.07 1.37 15.03.28 4.66-1.03 9.41.08 14.11-.35 7.25-1.38 14.5-2.97 21.89-3.36 2.54-.15 4.51-2.19 7.02-2.39 3.15-.21 6.31-.03 9.46-.09 2.87-3.27 6.49-5.68 10.47-7.4 4.57-1.81 4.99-7.55 3.56-11.6-1.72-1.9-2.9-4.35-4.98-5.87-6.3-.28-12.67.17-18.87-1.35-4.8-1.27-9.81-.28-14.64-1.09-2.52-1.41-3.65-4.57-6.43-5.57-3.72-1.2-7.74-1.51-11.56-.71-1.98.28-4.1 1.01-5.91-.18-5.31-2.77-11.47-.85-17.14-1.7-4.72-.18-8.51-3.34-13.04-4.24-4.31-1-8.36-3.59-12.9-3.25-3.76 1.62-6.89 4.67-11.06 5.35z"/><path d="m439.51 656.35c1.26-.56 2.56.07 3.7.62 7 3.62 11.58 10.93 19.27 13.35 5.98 1.93 10.94 6.03 16.92 7.99 4.3 1.5 9.35 2.4 11.8 6.73 5.28.18 10.55-.65 15.83-.4 5.84.86 10.58 4.73 15.41 7.84 7.49 4.82 14.81 9.93 22.43 14.56 4.73 2.77 9.41 5.86 14.78 7.27 9.97 3.23 20.37 4.74 30.53 7.23 8.21 2.39 15.97 6.07 23.64 9.81 3.81 1.82 8.04 2.56 12.23 2.68 7.19.17 14.55.39 21.52-1.67 7.24-2.21 13.49-6.86 20.87-8.72 10.18-3.31 21.01-2.51 31.55-2.57 6.05-.07 12.04 1.5 18.1.84 10.44-.86 20.52-4.05 30.97-4.89 8.28-.73 16.67-.7 24.94.28 10.66 1.28 21.6.53 31.93-2.4 2.59-.36 5.28-.32 7.83.36 1.08 1.22.97 2.23-.34 3.06-2.5.92-5.5.69-7.56 2.62-3.43 2.86-5.87 6.75-9.49 9.41-3.61 2.8-8.34 4.04-11.3 7.67-2.67 3.25-4.46 7.11-7.04 10.43 5.05-.7 10.33-.59 15.04 1.58.73 3.5-3.43 6.12-4.72 9.29-4.34 7.16-7.01 15.15-10.02 22.92 2.38 2.29 4.96 4.64 6.11 7.83-4.86 4.24-11.69 4.87-17.59 6.97-5.14 1.73-11.24 4.02-13.16 9.63-1.75 7.48.55 15.75-3.08 22.83-3.27 3.94-8.22 5.97-11.99 9.38.02 2.59.03 5.2.08 7.81 4.41.68 7.15 5.04 6.53 9.35-3.2 3.35-7.54 5.31-11.14 8.19-7.1 5.56-14.51 10.73-21.52 16.4-4.15 3.24-7.73 7.35-9.67 12.29-2.4 5.72-1.51 12.02-1.63 18.05.11 5.44-.62 10.85-1.63 16.19-2.39 12.81-3.98 25.82-3.69 38.87.25 8.34.55 16.7.03 25.03-.04 4.21-3.51 7.08-5.2 10.64-1.45 3.27-1.89 6.86-2.79 10.3h-4.08c1.27-4.86 1.64-10.2 4.69-14.38 1.34-2.05 3.32-3.95 3.37-6.55 1.15-12.7-.74-25.46.35-38.16.65-10.68 2.39-21.24 4.34-31.74 1.88-10.13-1.25-20.89 2.87-30.62 2.27-5.9 6.88-10.48 11.78-14.29 9.62-7.88 20.11-14.57 30.11-21.91-.26-.72-.79-2.15-1.05-2.87-1.82-.45-3.8-.44-5.39-1.49-.27-4.25-.51-8.59.14-12.81 3.14-4.37 8.82-5.97 12.27-10.05 2.68-6.42.87-13.56 2.05-20.23.99-5.27 5.18-9.39 10.01-11.38 6.38-2.58 13.13-4.1 19.52-6.63-1.11-2.02-3.18-2.97-5.02-4.16.54-4.37 2.81-8.29 4.21-12.42 2.58-7.11 5.97-13.88 10.11-20.2-4.95-.46-9.87.22-14.7 1.24-.69-3.25-.61-7.73 3.05-9.11 2.06-3.69 3.74-7.78 7.02-10.61 2.91-2.61 6.84-3.58 9.93-5.93 2.77-2.02 4.99-4.67 7.17-7.29-5.91.46-11.76 1.72-17.7 1.59-8.02-.51-15.99-1.87-24.05-1.6-14.23-.24-27.89 4.46-41.99 5.56-5.7.53-11.3-1.05-16.99-.95-7.6.09-15.26-.41-22.81.66-9.26 1.59-17.76 5.77-26.29 9.52-6.19 2.96-13.23 2.89-19.93 2.83-6.38.1-13.04-.19-18.84-3.11-7.76-3.84-15.57-7.87-24.08-9.78-10.52-2.63-21.48-3.75-31.65-7.68-15.78-7.19-29.56-17.91-44.29-26.9-6.72-4.4-14.74-.31-22.05-1.52-2.06-.34-2.79-2.44-3.65-4.02-4.18-1.62-8.6-2.59-12.61-4.63-4.98-2.44-9.61-5.55-14.8-7.54-4.57-1.66-7.89-5.3-11.7-8.14 1.85 4.66 3.15 9.5 4.6 14.29.98 3.21 1.73 6.63 1.1 9.99-.58 2.44-3.5 4.01-5.85 3-2.1-1.94-3.67-4.58-6.43-5.67-8.45-3.66-17.74-4.36-26.67-6.16-9.19-1.47-18.23-4.12-27.55-4.5 1.44 2.66 3.12 5.24 3.76 8.26 2.13 5.33 8.11 8.02 10.56 13.08-.82 3.31-2.48 6.33-3.8 9.46-4.33-.39-7.85-3.33-12.17-3.72-5.82-.8-11.67-2.54-16.32-6.25-3-2.49-7.14-1.86-10.72-1.63.02 10.05.42 20.13.57 30.2-.16 3.34-.69 6.68-1.38 9.96-.97 4.14-4.05 7.22-6.82 10.25-2.37 2.29-1.75 5.83-1.99 8.81.13 5.29-.82 11.01 1.92 15.84 4.16 7.85 11.12 13.68 17.85 19.27 2.04.29 5.8-.45 5.52 2.78-.37.29-1.11.87-1.48 1.16-6.33.39-12.91-1.56-19.03.86-2.98.81-4.31 4.24-3.63 7.07.68 4.14 1.81 8.69 5.13 11.54 5.11 3.51 10.88 6.14 15.54 10.27.78 4.88 1.08 10.44 5.09 13.97 3.59 3.87 10.69 5.13 11.34 11.17-.16 7.21-4.33 13.53-8.07 19.43-1.7 3.07-5.73 4.69-6.07 8.46-1.01 8.3.37 16.7-.83 24.99-1.37 11.65-3.8 23.14-5.7 34.7-.67 5.06-1.86 10.31-.2 15.32 1.71 5.85 2.41 11.97 2.44 18.07-.02 4.88 1.95 9.42 3.17 14.07.84 2.63 1.32 5.52 3.08 7.74 2.65 3.05 6.26 5.2 8.47 8.65 1.59 3.96 1.35 8.36 1.52 12.57h-3.75c-.34-3.5-.15-7.11-1.19-10.5-2.16-3.69-6.19-5.7-8.81-9-1.26-1.69-1.76-3.78-2.39-5.74-1.39-4.97-3.43-9.79-3.9-14.96-.43-4.96-.08-10-1.25-14.87-1.01-4.58-2.72-9.17-2.07-13.93 1.6-14.41 5.12-28.53 6.77-42.93.96-8.53-.5-17.18.92-25.68.53-4.63 5.38-6.6 7.42-10.41 2.93-5.07 6.7-10.42 6.47-16.51-2.94-3.92-8.47-4.86-11.38-8.9-3.38-3.71-3.79-8.87-5.02-13.48-4.19-3.71-9.32-6.12-13.9-9.3-3.74-2.81-5.19-7.56-6.29-11.91-.99-3.99-1.03-8.84 2.22-11.84 3.65-2.99 8.67-2.96 13.12-3.44-5.93-5.39-11.97-11.1-15.34-18.51-2.36-5.02-1.41-10.71-1.57-16.05.2-3.57-.33-7.67 2.2-10.58 2.48-2.84 5.75-5.34 6.61-9.23 2.58-10.57.64-21.51.82-32.24.3-3.48-1.44-7.84 1.2-10.66 5.38-.99 11.71-1.44 16.17 2.36 6.79 5.35 15.9 4.62 23.59 7.86.73-1.17 1.31-2.41 1.94-3.62-4.18-4.58-9.58-8.68-11.11-14.99-.54-2.03-2.07-3.55-3.3-5.16.8-1.93 1.4-4.01 2.72-5.66 2.2-.72 4.57-.37 6.82-.07 11.99 2.04 23.9 4.52 35.91 6.5 7.84 1.31 15.95 3.57 21.65 9.47-1.19-9.33-4.57-18.21-7.62-27.05-1.11-.29-2.23-.56-3.33-.83.24-1.29.55-2.55.92-3.79z"/><path d="m260.01 787.91c10.89-7.32 20.95-16.7 33.99-19.98 2.09-.78 5.14.3 4.37 3-2.34 42.99-4.86 85.99-7.29 128.98-2.57 37.35-4.9 74.72-7.17 112.09h-3.54c1.39-14.62 1.64-29.31 2.99-43.93-.08-9.59 1.44-19.09 1.34-28.68-4.67-.05-9.45.35-14-.98-6.74-1.87-12.58-5.96-17.99-10.27-1.98-1.6-3.9-3.25-5.79-4.95-9.21-9.5-19.92-17.62-27.73-28.41-11.18-14.69-21.34-30.13-31.81-45.31-8.5 10.53-16.31 21.61-24.65 32.26-6.19 7.54-13.69 14.07-18.7 22.52-2.27 3.73-4.49 7.48-6.74 11.22-3.78 5.9-3.86 13.17-6.29 19.6-5.2 17.04-15.44 32.12-19.7 49.49-2.49 9.27-5.55 18.37-8.66 27.44h-4.73c4.72-11.62 7.31-23.93 11.1-35.85 6.06-16.49 15.64-31.67 19.62-48.92-1.67-4.32 2.2-7.97 2.24-12.26-.19-2.36 1.65-3.28 3.57-3.89 2.55-3.77 4.69-7.8 7.19-11.59 4.96-7.21 11.51-13.08 17.06-19.79 11.33-14.05 21.28-29.18 33.21-42.75 4.52-5.29 10.63-8.79 16.02-13.07 6.69-5.27 13.56-10.6 21.62-13.61 4.31-1.59 8.6-3.54 11.91-6.82 5.75-5.67 11.82-11.06 18.56-15.54m19.4-7.77c1.13 3.8 2.36 7.65 4.73 10.9 3.45 4.98 5.77 10.6 8.35 16.06.54-11.35 1.25-22.7 1.92-34.04-5.45 1.23-10.35 4.08-15 7.08m-33.54 25.79c-3.37 3.45-7.31 6.53-11.95 8.03-1.95.68-4.01 1.07-5.85 2.05.73 2.67 2.32 5.01 3.55 7.48 3.46 6.41 6.5 13.09 10.76 19.03 5.92 7.73 10.64 16.29 15.97 24.42 6.01 9.55 11.98 19.13 17.93 28.71 3.31 5.22 6.33 10.64 10.08 15.55 1.98-28.71 3.3-57.45 5.12-86.17.04-2.88.62-5.81.04-8.65-4.05-7.36-6.58-15.51-11.37-22.48-2.32-3.26-3.78-7-4.91-10.8-10.05 7.26-20.6 13.98-29.37 22.83m-42.52 27.4c-4.86 3.03-8.58 7.5-12.07 11.96-.11 2.67 2.19 4.78 3.38 7.06 8.02 11.61 15.88 23.33 24.33 34.63 4.9 6.68 9.86 13.48 16.31 18.79 10.42 9.97 20.15 21.44 33.69 27.27 4.89 2.36 10.45 1.77 15.69 1.57.46-5.16 1.22-10.35.92-15.53-5.78-9.97-12.29-19.52-18.39-29.31-10.32-15.75-19.64-32.19-30.88-47.33-4.88-7.56-8.56-15.8-12.79-23.72-7.27 4.07-13.26 10.01-20.19 14.61z"/><path d="m812.06 831.73c1.11.23 2.21.52 3.32.87.9 2.03 1.35 4.24 1.92 6.4 5.43 21.87 12.07 43.56 14.64 66.01 1.07 22.08 8.89 43.1 11.02 65.04 1.39 13.92 1.81 27.96 1.24 41.95h-4.6c1.31-10.34-.01-20.7-.17-31.05-.87-24.43-9.64-47.65-11.7-71.94-1.05-16.05-5.33-31.63-9.23-47.17-1.39-5.16-2.2-10.57-4.92-15.25-3.05 11.1-7.5 21.91-8.74 33.43-2.13 12.37-4.52 24.69-6.96 37-1.05 13.02-1.1 26.23-4.3 38.98-1.47 5.6-2.65 11.27-3.68 16.97-2.52 13.02-6.84 25.74-7.75 39.03h-3.78c1.25-10.61 3.63-21.04 6.25-31.38 2.19-8.64 3.36-17.5 5.7-26.11 3.31-13.25 2.84-27.02 4.68-40.48 2.66-14.64 5.92-29.19 7.85-43.96 1.02-6.13 3.74-11.79 5.31-17.78 1.76-6.76 3.22-13.61 3.9-20.56z"/></g><g fill="#ffc000" stroke="#ffc000"><path d="m348.89 5.78c2.57-2.13 6.09-1.14 9.15-1.36 6.16-.3 12 1.9 17.71 3.91 7.05 2.49 13.9 5.69 20.2 9.71 6.56 5.38 12.01 12.11 19.16 16.78 2.38.05 4.82-1.11 7.17-.31 10.88 4.78 19.73 12.87 28.48 20.71 6.65 6.38 15.91 8.61 23.44 13.66 7.64 5.28 16.11 9.44 22.92 15.84 4.89 4.49 10.69 8.25 14.11 14.09 2.93 4.6 6.7 8.6 10.76 12.23 4.42 3.77 5.86 9.85 10.34 13.57 5 4.27 10.03 8.54 15.48 12.24 3.43 3.45 4.84 8.36 7.91 12.09 1.44.41 2.38-.91 3.51-1.5 2.91-1.86 6.41-2.4 9.57-3.7 9.06-3.48 18.35-6.29 27.81-8.45-.18 4.6-.1 9.2.55 13.76.48 9.99.08 20-1.15 29.92-.72 5.36.62 10.7.3 16.07-.42 9.06-1.37 18.26-4.64 26.79-.66 1.95-1.66 3.89-1.52 6 .69 1.52 3.1 2.04 4.19.61 5.1-11.07 6.73-23.39 6.95-35.47.11-4.16-.9-8.28-.51-12.44 1.69-12.76 1.97-25.73.69-38.54-.02-11.38.77-22.75 1.87-34.07.3-4.51 2.3-8.8 5.15-12.25 3.26-2.77 6.62-5.44 9.98-8.08 4.51-3.56 10.38-4.6 15.01-7.95 4.97-3.33 8.76-8.26 14.21-10.92 9.32-4.58 18.14-10.23 27.85-14.01 5.01-1.99 9.05-5.75 13.97-7.92 3.54-1.45 7.44-1.77 10.91-3.42 2.52-1.39 4.09-3.94 5.85-6.13 2.93-.55 6-.72 8.77-1.94 1.51-1.12 2.39-2.93 3.98-3.95 3.27-1.22 6.82-1.37 10.12-2.53 3.33-.8 4.83-4.29 7.55-6.06 4.97-3.15 10.58-5.1 16.21-6.71-1.66 1.98-3.03 4.19-4.83 6.03-3.01 1.77-6.48 2.63-9.37 4.61-3.11 1.89-4.73 5.31-7.32 7.75-3.3 3.16-7.5 5.08-11.41 7.34-3.84 2.13-7.49 4.56-11.4 6.56-5.06 2.48-7.1 8.32-11.57 11.52-3.54 2.03-8.2 1.91-11.1 5.05-5.74 6.22-8.81 14.35-14.24 20.81-1.2 1.3-2.68 2.61-4.54 2.66-4.87.32-9.82 1.07-14.2 3.32-1.97 1.63-2.76 4.21-3.83 6.44-4.15 10.47-7.65 21.19-10.84 31.99-2.31 7.18.51 14.61.06 21.92-.52 8.99-1.85 17.93-1.58 26.95-.8 16.01-2.59 31.97-3.31 47.98-.4 1.97 2.15 2.06 3.46 1.95 1.39-.84 1.28-2.58 1.46-3.98.75-9.94 1.49-19.88 2.34-29.81.41-3.61.82-7.4 3.11-10.37 1.79-2.35 1.99-5.74 4.5-7.53 6.49-5.44 14.78-8.18 21.14-13.79 6.77-5.31 14.98-8.71 23.48-9.95 8.6-.85 16.36-4.94 24.16-8.33 10.25-5.5 21.81-7.54 32.93-10.58 6.08-1.43 11.81-4.04 17.95-5.26 13.22-2.73 26.45-5.75 39.97-6.47 7.16-.29 14.35-1.23 21.15-3.6 5.15-1.87 10.66-2.42 16.08-3.07-10.83 8.95-24.92 11.92-37.58 17.31-5.18 2.2-9.66 5.72-14.77 8.01-5.38 1.35-10.75 2.93-15.4 6.05-6.86 2.71-12.7 7.32-19.43 10.29-4.02 1.82-8.33 2.93-12.26 4.93-2.46 1.24-4.96 2.48-7.67 3.04-9.7 2.11-19.02 5.58-28.43 8.68-4.03 1.17-7.09 4.14-10.59 6.27-5.93 3.6-12.1 6.8-18.23 10.03-3.42 2.61-5.34 6.6-7.99 9.9-1.82 2.51-4.17 4.67-5.58 7.45-.62 5.64.72 11.26.6 16.91-.33 2.48-1.1 4.87-1.52 7.34-1.82.4-3.63.8-5.45 1.18-.52 1.48-1.27 2.92-1.32 4.52.84 1.24 2.6.55 3.87.84 1.1-1.62 2.36-3.13 3.73-4.52 1.38-.22 3.05-.03 3.86-1.46 2.72-3.48 7.41-4.46 10.28-7.76 4.16-4.57 7.13-10.14 11.63-14.42 2.57-1.68 5.7-2.22 8.61-3.09 13.24-3.1 26.94-2.67 40.44-2.98 19.06 1.77 38.49 1.19 57.15 6.04 16.08 3.78 32.61 4.92 49.01 6.49 8.27.71 17.56 1.2 24.02 7.09-18.06-1.29-36.06-3.71-54.19-3.82-12.01-.48-24.04.31-36.03-.67-9.92-1.46-19.93-3.38-30.01-2.64-7.03.33-13.83 2.49-20.88 2.54-7.51-.01-13.17 5.58-20.07 7.63-3.48 1.36-7.98 2.36-9.6 6.14-4.69 8.55-11.67 15.54-18.86 22.01-1.9 1.97-4.53 3.68-5.06 6.55.77 1.58 2.98 2.33 4.28.92 4.1-4.01 8.39-7.82 12.55-11.77 4.52-5.25 9.02-10.63 12.3-16.77 4.04-1.59 8.25-2.75 12.11-4.78 3.97-1.92 7.64-4.97 12.28-4.98 7.77-.13 15.3-2.38 23.06-2.7 12.15-.64 23.94 3.33 36.06 3.18 10.56.15 21.12-.08 31.68.23 1.83 5.52 2.17 11.58 5.25 16.64 5.31 9.85 9.31 20.36 12.57 31.06 5.76 17.92 18.07 33.64 34.34 43.18-1.94 13.25-4.91 26.34-6.57 39.63-1.87 9.48-4.39 18.82-7.24 28.04-1.43 5.09-4.24 9.78-4.42 15.18-3.45 17.51-11.03 33.8-16.07 50.85-2.05 6.18.9 12.63-.23 18.94-1.85 3.72-8.48 2.3-9.01 7.17.28 6.89 2.83 14.13-.03 20.85-2.1-2.36-5.37-3.11-8.3-1.92-3.29 1.11-2.03 5.65-4.48 7.58-2.02 1.77-4.67 2.46-7.12 3.37-.87-4.96-1.73-9.93-2.65-14.87-.36-1.65-2.51-1.51-3.74-1.09-17 3.92-30.68 15.32-45.08 24.45-11.05-10.04-24.4-17.47-38.59-22.06-17.36-5.67-35.32-9.38-52.48-15.68-12.96-5.44-27.21-6.17-41.02-7.46-3.68-.59-7.24.69-10.88.83-12.35-.06-24.77.5-36.93 2.82-20.91 2.75-40.62 10.5-60.18 18.01-6.68 3.1-13.09 6.75-19.57 10.25-11.1-.84-22.24-1.4-33.35-2.21-9.62-.83-19.26-1.65-28.93-1.42-11.4-.41-22.64 1.96-33.64 4.66-4.36.96-9.04 2.49-13.43.83-5.48-1.98-10.81-4.42-15.92-7.21-1.3-.56-1.09-2.22-1.32-3.35-.49-10.82-.56-21.64-.51-32.47.06-15.35-.21-30.72.36-46.06.39-7.13 1.68-14.18 3.68-21.03 5.41-19.29 10.95-38.54 15.77-57.99 1.93-7.88 1.98-16.21 4.93-23.84 2.62-7.35 10.44-11.93 11.22-20.1.31-6.3 3.67-11.79 6.98-16.96 4.86-8 11.35-14.8 17.24-22.03 5.58-6.55 11.82-13.03 14.35-21.49 2.64-3.8 6.59-6.48 10.19-9.32 8.97-6.47 18.45-12.21 27.1-19.11.58.39 1.72 1.16 2.29 1.54 1.03-.95 2.16-2.01 1.91-3.58.46-6.02-.14-12.05 0-18.07.23-3.68-1.44-7.02-2.79-10.32-4.03-11.1-9.24-21.75-15.01-32.05-3.83-7.41-7.42-14.96-11.81-22.07-4.97-7.91-13.06-13.02-18.92-20.17-9.59-11.08-17.52-24.06-30.18-32.04-14.54-7.67-26.72-19.22-41.82-25.93-6.55-3.68-14.03-5.34-21.46-5.95-.1-8.11-.01-16.22.22-24.33-.13-1.56 1.4-2.43 2.42-3.32m120.29 336.13c-11.1 7.13-18.99 19.09-20.76 32.22-2.65 20.33-.77 41.44 6.71 60.6 2.37 5.84 5.52 11.89 11.07 15.27 4.49 1.09 8.67 3.35 13.35 3.6 2.54-.03 3.44 2.75 5.47 3.72 1.33.07 2.67.09 4.02.05 2.34 1.96 4.91 3.9 8.09 4.12 18.66 2.56 37.98 1.53 55.9-4.55 5.12-1.34 10.57-3.3 13.68-7.88 2.22-2.97 1.96-6.82 2-10.31 4.36-3.01 5.19-8.44 4.79-13.35 1.34-1.14 2.72-2.25 4.13-3.32-.32-12.95-1.33-25.88-2.11-38.81 1.85 1.64 3.61 3.41 5.6 4.91 2.38 1.61 4.93-2.08 2.79-3.79-3.5-3.24-6.75-6.8-10.54-9.7-13.6-7.29-27.35-14.3-41.3-20.89-15.98-8.48-33.99-13.29-52.1-13.49-3.63-.02-7.51-.24-10.79 1.6m266.75 8.57c-4.89 1.4-9.96 2.05-14.87 3.36-6 2.56-11.52 6.05-17.59 8.48-8.75 4.25-18.45 6.01-27.42 9.62-2.33 3.54-4.22 7.34-6.39 10.98-.76 1.54-2.07 3.55-.8 5.17.81.14 2.42.42 3.22.56 1.4-2.36 2.82-4.71 4.41-6.94-.07 8.82-.32 17.79 2.08 26.37 3.05 10.74 4.98 21.77 6.13 32.87-.17 2.53 2.11 3.69 3.96 4.76.09 2.75.05 5.51.1 8.27.05 1.37-.21 3.28 1.44 3.87 2.19.76 4.61.26 6.9.43 6.23-.07 12.21 1.96 18.02 3.99 12.14 4.21 25.66 3.97 37.81-.09 5.19-1.69 10.77-.73 16-2.21 8.43-1.93 15.78-7.5 20.13-14.95 2.16-1.14 4.41-2.34 5.85-4.39 6.55-8.45 9.53-19.07 10.48-29.58 3.95-3.07 3.89-8.44 4.31-12.97.97-12.09-2.92-24.55-11.11-33.56-3.08-3.13-4.17-7.84-7.98-10.31-3-2.43-6.94-2.63-10.56-3.3-14.08-5.26-29.84-4.54-44.12-.43m-276.81 101.64c-2.42 1.42-1.01 4.67-.51 6.83 6.46 6.3 15.24 10.31 24.28 10.8 10.37.97 20.75 1.72 31.12 2.54 7.68.39 15.49.39 22.89-1.95 5.34-1.87 11.29-2.18 16.04-5.5 1.72-.59 1.42-2.7.91-4.04-3.1-1.54-5.93 1.32-8.79 2.19-7.42 2.48-15.11 4.83-23.02 4.59-12.43-.17-24.78-1.68-37.15-2.62-7.77-.31-15.66-3.09-21.47-8.31-.73-1.92-1.31-6.32-4.3-4.53m218.72 2.36c-.37.71-1.1 2.14-1.47 2.86 3.31 3.27 8.82 2.74 12.07 6.3 4.25 4.93 8.49 10.35 14.86 12.62.37 1.26 1.09 2.61 2.63 2.55 9.01 1.03 18.02 2.13 27.06 3.02 2.71.61 4.78-1.48 7.09-2.47 2.65-.41 5.44.15 8.03-.78 2.59-.75 4.38-2.95 6.79-4.05 6.27-.49 12.58.69 18.84-.05 1.92-1.47.97-4.66 1.49-6.82 4.19-.93 10.06.63 12.6-3.69-1.03-1.08-1.97-2.76-3.75-2.2-4.44.67-9.03.63-13.32 1.96-.93 1.87-.7 4.05-.93 6.08-5.65-.13-11.29-.33-16.94-.3-1.75 1.32-3.35 2.84-5.15 4.08-2.97 1.72-6.7-.53-9.58 1.44-1.65.79-3.22 2.23-5.19 1.84-7.64-.65-15.24-1.78-22.88-2.48-2.54-.11-3.68-3.02-6.15-3.45-4.55-1.33-7.03-5.58-10.05-8.85-4.03-4.54-9.91-7.63-16.05-7.61z"/><path d="m642.51 132.67c12.19-.31 24.71-1.13 36.53 2.52 8.35 2.72 16.45 6.22 24.15 10.44-5.83 3.03-12.56 2.75-18.72 4.67-7.6 2.35-14.7 6.18-20.74 11.35-7.61 4.66-15.96 8.54-22.11 15.19.03-8.33 1.06-16.6 1.63-24.9.41-6.45-1.73-12.82-.74-19.27z"/><path d="m743.96 168.97c1.36-.63 3.03-1.4 4.3-.12 10.22 6.76 19.88 14.34 29.94 21.34 4.65 4.06 8.39 9.06 12.61 13.55-14.69-2.07-29.52-2.59-44.31-3.55-4.46-.67-8.97-.47-13.45-.22-13.5.27-27.43.49-40.18 5.5-8.87 4.15-11.36 15.3-19.88 19.85-.66-5.16-.73-10.37-1.34-15.54 3.93-4.62 7.74-9.39 10.81-14.64 8.77-4.06 17.39-8.54 25.19-14.29 6.38-3.12 13.51-4.36 20.08-7.06 5.21-2.29 11.09-2.37 16.23-4.82z"/><path d="m866.93 173.36c3.18-.51 5.82-2.57 8.97-3.24 5.61-1.45 11.43-.45 17.1.1 37.03 1.47 74.4-3.3 111.15 3.22-4.34 11.94-11.09 22.89-18.3 33.3-.6-1.61-.19-4.1-2.06-4.87-5.41-2.46-10.86-4.96-16.62-6.49-12.36-1.45-24.8-2.03-37.22-2.56-11.65.03-23.33-1.24-34.95.1-19.74 1.9-38.47 9.2-56.18 17.78-.44.13-1.3.4-1.73.54-13.26-1.17-26.49-2.84-39.45-5.88-3.63-3.79-7.14-7.68-10.62-11.6 9.9-3.19 19.48-7.26 28.89-11.67 7.15-3.28 15.21-1.39 22.63-3.34 9.46-1.84 18.93-3.56 28.39-5.39z"/><path d="m306.48 596c-1.16-13.13 5.72-25.22 13.12-35.51 3.25 1.32 6.57 2.75 9.12 5.24 2.6 2.16 5.05 4.87 8.47 5.68 3.02-1.11 1.71-4.94 2.35-7.37 4.28 2.34 9.05 3.37 13.57 5.11-3.06 2.89-7.69 2.51-10.97 4.95-2.72 2.19-2.99 5.93-2.55 9.14 3.61.27 7.24.6 10.7 1.76-2.35 3.89-6.12 8.19-4.39 13.05 1.7.89 3.4-.31 5.04-.74 2.6-1.05 5.43-.86 8.18-.91-2.42 4.06-4.96 8.12-6.57 12.6.08.54.24 1.63.31 2.17 4.73.75 9.56.71 14.32 1.38-16.08 7-32.32 13.85-47.2 23.24-7.83 4.4-14.73 10.23-22.41 14.83-14.98 11.98-28.68 25.46-42.1 39.15-1.56-6.92-5.01-13.2-9.5-18.63-5.94-7.6-5.67-17.64-7.25-26.68-.93-8.21-2.6-16.31-4-24.44 3.35-15.93 7.3-31.76 11.06-47.59.19-.05.56-.16.75-.21 7.43 11.91 11.58 26.17 22.23 35.82 1.9 1.77 4.23-.31 5.57-1.75 7.13-7.26 9.05-17.63 13.76-26.34 1.17.39 2.63.43 3.45 1.52 4.25 4.89 6.59 11.02 9.29 16.82 2.04.3 5.82.8 5.65-2.29z"/><path d="m185.06 595.31c12.82 5.26 24.95 12.1 37.86 17.19 1.51.66 3.16.31 4.73.14.76 3.1 1.83 6.21 1.57 9.46.26.36.79 1.09 1.05 1.45 2.46 12.4 4.01 24.95 5.84 37.45.95 5.77 4.07 10.83 7.65 15.33 4.07 5.08 6.56 11.28 7.34 17.74-5.75 5.92-11.73 11.64-17.31 17.73-5.54 6.62-10.86 13.73-18.25 18.41-4.52 2.95-10.14 4.57-13.31 9.25-3.24 3.37-5.71 7.53-9.5 10.31-7.62-10.52-13.5-22.19-19.85-33.49-11.19-21.48-22.81-42.73-34.84-63.75 4.11-7.28 9.55-13.67 14.12-20.65.84 2.84 1.21 6.22 3.76 8.13 2.45 1.89 4.51 4.19 6.7 6.36 1.62 1.78 4.33 1.03 6.41.77 1.85-2.76 2.26-6.21 3.33-9.31 4.34-14.14 8.39-28.37 12.7-42.52z"/><path d="m217.7 605.06c1.21-3.13 2.51-6.22 3.95-9.24 1.86 4.21 3.48 8.53 4.83 12.94-2.95-1.19-5.88-2.41-8.78-3.7z"/><path d="m372.46 614.74c2.88-1.24 6.04-1.16 9.11-1.18 13.57 12.66 30.57 20.7 47.6 27.57 19.81 8.52 40.46 14.8 60.68 22.25 3.2 1.13 5.94 3.17 8.69 5.12 4.26 3.11 9.84 2.6 14.56 4.56 4.35 1.63 7.76 4.93 11.85 7.06 10.07 5.24 21.25 7.72 32.2 10.41 16.92 3.33 33.88 6.55 50.97 8.86 8.92 1.29 17.99 1.21 26.85 2.94 6.25 1.38 12.67 1.75 19.05 1.92 11.96-.05 23.93.25 35.86-.64 6.33-.59 12.72-2.1 18.2-5.45 5-3.07 10.03-6.1 15.24-8.81 6.4-3.49 13.32-5.9 19.78-9.27 15.42-7.35 30.21-16.19 43.44-27.02 2.95 3.53 6.01 7.01 8.42 10.96 3.32 5.53 9.3 9.01 11.99 14.99 3.14 6.65 4.75 14.02 8.76 20.27 2.44 3.89 5.05 7.68 7.61 11.51.97 7.55 3.17 15.6 8.9 21 5.46 5.5 6.69 13.51 8.98 20.61 2.75 11.62 7.03 22.86 8.92 34.68 2.01 10.86 3.41 21.93 7.16 32.37 1.48 4.38 4.8 7.98 5.62 12.62.91 4.57.69 9.26 1.08 13.9.31 11.53 7.96 21.2 9.23 32.56 1.79 14.7 6.12 28.94 8.2 43.59.78 5.41 5.86 8.8 7.18 14 1.23 4.83.78 9.87 1.53 14.78.84 9.01 4.29 17.45 6.36 26.2 3.06 11.44 4.92 23.16 6.43 34.9h-58.71c.57-13.99.15-28.03-1.24-41.95-2.13-21.94-9.95-42.96-11.02-65.04-2.57-22.45-9.21-44.14-14.64-66.01-.57-2.16-1.02-4.37-1.92-6.4-1.11-.35-2.21-.64-3.32-.87-.68 6.95-2.14 13.8-3.9 20.56-1.57 5.99-4.29 11.65-5.31 17.78-1.93 14.77-5.19 29.32-7.85 43.96-1.84 13.46-1.37 27.23-4.68 40.48-2.34 8.61-3.51 17.47-5.7 26.11-2.62 10.34-5 20.77-6.25 31.38h-90.38c.9-3.44 1.34-7.03 2.79-10.3 1.69-3.56 5.16-6.43 5.2-10.64.52-8.33.22-16.69-.03-25.03-.29-13.05 1.3-26.06 3.69-38.87 1.01-5.34 1.74-10.75 1.63-16.19.12-6.03-.77-12.33 1.63-18.05 1.94-4.94 5.52-9.05 9.67-12.29 7.01-5.67 14.42-10.84 21.52-16.4 3.6-2.88 7.94-4.84 11.14-8.19.62-4.31-2.12-8.67-6.53-9.35-.05-2.61-.06-5.22-.08-7.81 3.77-3.41 8.72-5.44 11.99-9.38 3.63-7.08 1.33-15.35 3.08-22.83 1.92-5.61 8.02-7.9 13.16-9.63 5.9-2.1 12.73-2.73 17.59-6.97-1.15-3.19-3.73-5.54-6.11-7.83 3.01-7.77 5.68-15.76 10.02-22.92 1.29-3.17 5.45-5.79 4.72-9.29-4.71-2.17-9.99-2.28-15.04-1.58 2.58-3.32 4.37-7.18 7.04-10.43 2.96-3.63 7.69-4.87 11.3-7.67 3.62-2.66 6.06-6.55 9.49-9.41 2.06-1.93 5.06-1.7 7.56-2.62 1.31-.83 1.42-1.84.34-3.06-2.55-.68-5.24-.72-7.83-.36-10.33 2.93-21.27 3.68-31.93 2.4-8.27-.98-16.66-1.01-24.94-.28-10.45.84-20.53 4.03-30.97 4.89-6.06.66-12.05-.91-18.1-.84-10.54.06-21.37-.74-31.55 2.57-7.38 1.86-13.63 6.51-20.87 8.72-6.97 2.06-14.33 1.84-21.52 1.67-4.19-.12-8.42-.86-12.23-2.68-7.67-3.74-15.43-7.42-23.64-9.81-10.16-2.49-20.56-4-30.53-7.23-5.37-1.41-10.05-4.5-14.78-7.27-7.62-4.63-14.94-9.74-22.43-14.56-4.83-3.11-9.57-6.98-15.41-7.84-5.28-.25-10.55.58-15.83.4-2.45-4.33-7.5-5.23-11.8-6.73-5.98-1.96-10.94-6.06-16.92-7.99-7.69-2.42-12.27-9.73-19.27-13.35-1.14-.55-2.44-1.18-3.7-.62-.37 1.24-.68 2.5-.92 3.79 1.1.27 2.22.54 3.33.83 3.05 8.84 6.43 17.72 7.62 27.05-5.7-5.9-13.81-8.16-21.65-9.47-12.01-1.98-23.92-4.46-35.91-6.5-2.25-.3-4.62-.65-6.82.07-1.32 1.65-1.92 3.73-2.72 5.66 1.23 1.61 2.76 3.13 3.3 5.16 1.53 6.31 6.93 10.41 11.11 14.99-.63 1.21-1.21 2.45-1.94 3.62-7.69-3.24-16.8-2.51-23.59-7.86-4.46-3.8-10.79-3.35-16.17-2.36-2.64 2.82-.9 7.18-1.2 10.66-.18 10.73 1.76 21.67-.82 32.24-.86 3.89-4.13 6.39-6.61 9.23-2.53 2.91-2 7.01-2.2 10.58.16 5.34-.79 11.03 1.57 16.05 3.37 7.41 9.41 13.12 15.34 18.51-4.45.48-9.47.45-13.12 3.44-3.25 3-3.21 7.85-2.22 11.84 1.1 4.35 2.55 9.1 6.29 11.91 4.58 3.18 9.71 5.59 13.9 9.3 1.23 4.61 1.64 9.77 5.02 13.48 2.91 4.04 8.44 4.98 11.38 8.9.23 6.09-3.54 11.44-6.47 16.51-2.04 3.81-6.89 5.78-7.42 10.41-1.42 8.5.04 17.15-.92 25.68-1.65 14.4-5.17 28.52-6.77 42.93-.65 4.76 1.06 9.35 2.07 13.93 1.17 4.87.82 9.91 1.25 14.87.47 5.17 2.51 9.99 3.9 14.96.63 1.96 1.13 4.05 2.39 5.74 2.62 3.3 6.65 5.31 8.81 9 1.04 3.39.85 7 1.19 10.5h-96.6c2.27-37.37 4.6-74.74 7.17-112.09 2.43-42.99 4.95-85.99 7.29-128.98.77-2.7-2.28-3.78-4.37-3-13.04 3.28-23.1 12.66-33.99 19.98-6.74 4.48-12.81 9.87-18.56 15.54-3.31 3.28-7.6 5.23-11.91 6.82-8.06 3.01-14.93 8.34-21.62 13.61-5.39 4.28-11.5 7.78-16.02 13.07-11.93 13.57-21.88 28.7-33.21 42.75-5.55 6.71-12.1 12.58-17.06 19.79-2.5 3.79-4.64 7.82-7.19 11.59-1.92.61-3.76 1.53-3.57 3.89-.04 4.29-3.91 7.94-2.24 12.26-3.98 17.25-13.56 32.43-19.62 48.92-3.79 11.92-6.38 24.23-11.1 35.85h-51.65c3.2-6.65 5.83-13.56 8.28-20.52 2.92-8.01 3.89-16.63 7.56-24.38 4.28-10.5 10.83-19.8 16.26-29.69 7.86-18.4 14.97-37.18 24.04-55.05 6.93-13.07 14.68-25.76 23.48-37.65 5.11-3.33 7.69-8.96 11.2-13.74 5.29-7.48 9.89-15.96 17.91-20.93 5.89-3.57 11.48-7.92 15.41-13.66 1.65-2.45 1.23-5.65 2.77-8.15 2.53-4.38 5.89-8.2 8.54-12.5 3.91-6.62 9.81-11.8 13.55-18.54 3.11-5.62 7.02-10.78 11.56-15.32 4.11-4.24 10.08-5.79 14.54-9.56 4.73-3.93 8.84-8.55 12.75-13.27 4.47-5.83 9.85-10.83 14.99-16.04 7.54-7.66 15.19-15.2 22.76-22.82 11.07-11.09 23.1-21.14 35.08-31.2 19.95-14.66 42.48-25.39 65.52-34.24z"/><path d="m129.6 663.4c1.36-2.34 3.87-3.56 6.23-4.64 9.83 17.41 19.49 34.91 28.78 52.62 7.97 15.15 16.24 30.18 25.82 44.39-3.93 6.27-9.44 11.38-13.16 17.8-3.89 6.33-9.74 11.94-10.86 19.59-3.96-7.25-8.02-14.46-12.75-21.23-6-8.71-10.11-18.6-12.82-28.79-6.67-22.68-10.69-46.02-14.05-69.38.33-.45 1-1.33 1.34-1.77.01-2.9-.29-6.08 1.47-8.59z"/><path d="m279.41 780.14c4.65-3 9.55-5.85 15-7.08-.67 11.34-1.38 22.69-1.92 34.04-2.58-5.46-4.9-11.08-8.35-16.06-2.37-3.25-3.6-7.1-4.73-10.9z"/><path d="m245.87 805.93c8.77-8.85 19.32-15.57 29.37-22.83 1.13 3.8 2.59 7.54 4.91 10.8 4.79 6.97 7.32 15.12 11.37 22.48.58 2.84 0 5.77-.04 8.65-1.82 28.72-3.14 57.46-5.12 86.17-3.75-4.91-6.77-10.33-10.08-15.55-5.95-9.58-11.92-19.16-17.93-28.71-5.33-8.13-10.05-16.69-15.97-24.42-4.26-5.94-7.3-12.62-10.76-19.03-1.23-2.47-2.82-4.81-3.55-7.48 1.84-.98 3.9-1.37 5.85-2.05 4.64-1.5 8.58-4.58 11.95-8.03z"/><path d="m203.35 833.33c6.93-4.6 12.92-10.54 20.19-14.61 4.23 7.92 7.91 16.16 12.79 23.72 11.24 15.14 20.56 31.58 30.88 47.33 6.1 9.79 12.61 19.34 18.39 29.31.3 5.18-.46 10.37-.92 15.53-5.24.2-10.8.79-15.69-1.57-13.54-5.83-23.27-17.3-33.69-27.27-6.45-5.31-11.41-12.11-16.31-18.79-8.45-11.3-16.31-23.02-24.33-34.63-1.19-2.28-3.49-4.39-3.38-7.06 3.49-4.46 7.21-8.93 12.07-11.96z"/></g><path d="m346.21 37.29c6.8.91 13.84 2.02 19.82 5.59 3.71 2.09 7.69 3.64 11.43 5.67 9.28 6.36 17.81 13.96 28.07 18.78 14.03 8.15 22.49 22.47 32.7 34.55 6.32 5.97 13.07 11.73 17.87 19.08 5.5 9.31 10.21 19.05 15.25 28.61 2.07 4.06 4.38 8.01 5.93 12.31-4.28-.23-8.58-.56-12.78-1.38-3.81-2.17-7.12-5.48-11.61-6.23-7.11-1.28-13.89-3.8-20.8-5.82-4.93-1.67-10.01.19-15.01.29-2.05-.15-3.76.88-5.22 2.19-1.11 4.85-1.24 9.95-3.44 14.51-6.3 2.13-12.29 5.39-16.36 10.8-2.88-5.11-2.66-11.13-4.97-16.42-6.59-16.69-17.46-31.63-21.51-49.31-2.63-7.89-3.91-16.82-9.93-23-4.03-6.47-7.09-13.74-7.77-21.4-1.11-9.56-1.48-19.2-1.67-28.82z" fill="#fff" stroke="#fff"/><path d="m873.01 201.33c13.24-3.97 27.19-5.81 41.01-4.92 17.93.45 35.91.79 53.72 3.02 4.82.86 9.02 3.55 13.49 5.42.73 1.56.76 3.37.96 5.07-1.34 11.03-6.39 21.4-13.44 29.9-2.41 2.56-2.45 6.45-4.93 8.93-5.91 6.72-11.67 13.57-17.61 20.26.82-12.71-2.69-25.7-10.17-36.02-3.02-2.7-7.33-2.84-11.12-3.4-12.55-1.78-25.21-2.61-37.85-3.16-2.99-2.12-6.53-3.16-9.7-4.92-3.62-1.79-6.45-4.96-10.38-6.12-6.8-2.55-14.14-2.37-21.2-3.46 8.76-4.26 17.99-7.49 27.22-10.6z" fill="#fff" stroke="#fff"/><path d="m826.1 225.64c11.63.49 23.24 1.63 34.82 2.77-6.66.84-13.35 1.61-19.9 3.08-4.16 1.35-8.13 3.26-12.41 4.23-.9-3.35-1.76-6.7-2.51-10.08z" fill="#fff" stroke="#fff"/><path d="m151.32 260.78c13.33 7.38 26.28 15.44 39.08 23.7 15.77 11.73 29.47 25.97 45.05 37.94 12.76 11.57 23.6 25.09 36.02 37.01 4.82 3.78 10.63 5.97 15.67 9.43 4.05 2.51 6.93 6.41 10.63 9.36 4.26 3.69 8.72 7.24 12.14 11.76 10.07 13.5 22.35 25.18 32.29 38.79 9.4 13.83 16.76 28.94 26.11 42.8.01 7.23.42 14.46.5 21.69-8.82-4.81-17.79-9.37-26.36-14.63-1.72-.84-3.35-3.31-5.42-1.82-.77 3.8-.87 7.98.37 11.71 5.06 9.61 15.07 14.86 22.46 22.41-8.25 1.63-16.71 1.27-25.02 2.09-.15.49-.44 1.47-.59 1.96 4.41 3.49 7.99 8.06 13.02 10.74 2.18 1.14 4.25 2.49 6.02 4.22.02 3.31.02 6.62.04 9.94-4.07.4-8.15.69-12.22 1.07-.04.71-.14 2.11-.19 2.82 6 3.03 12.32 5.54 17.74 9.64-2.12 1.44-4.1 3.46-6.77 3.75-3.69-.81-7.67-2.42-11.33-.66-3.2 1.37-4.78 4.66-6.13 7.65-4.87-4.51-10.75-8.28-17.5-8.95-6.01 10.37-13.62 20.35-15.39 32.56-2.55-4.56-5.09-9.82-10.01-12.21-2.63-.45-6.66-.88-7.75 2.28-4.46 8.39-6.52 18.13-13.1 25.3-7.71-7.34-11.04-17.72-16.18-26.77-2.77-4.63-4.66-9.96-8.47-13.85-2.69-.51-3.47 2.4-4.12 4.36-3.5 14.03-6.38 28.22-10.11 42.19-3.06-10.87-8.71-20.77-12.09-31.53-3.53-12.08-6.94-24.22-9.58-36.53-.97-9.34-10.33-15.31-10.65-24.87-.66-4.55 1.2-9.58-1.74-13.56-6.78-34.03-13.91-68.06-17.81-102.58-2.09-15.74-5.64-31.23-8.63-46.81-3.3-15.31-1.84-31.61-7.73-46.33.71-9.61-1.31-19.5-6.86-27.5-4.09-5.33-4.01-12.29-5.39-18.57z" fill="#fff" stroke="#fff"/><path d="m8.05 339.01c-.91-4.8-.52-9.7-.84-14.55 26.03 14.65 52.14 29.2 77.62 44.79 18.52 10.71 34.38 25.36 49.12 40.72 8.71 8.76 13.34 21.22 23.79 28.29 9.75 4.67 17.8 12.08 25.98 19 2.98 15.39 6.02 30.77 9 46.16.22 1.67 1.34 3.02 1.8 4.62-.08 5.7-.34 11.7 2.4 16.91 1.67 4.71 5.31 8.33 7.29 12.87 4.14 17.29 7.76 34.88 14.55 51.39-1.33 4.76-3.74 9.16-5.44 13.8-9.48-4.25-18.71-9.07-28.33-13.03-2.02-1.41-4.24.42-4.58 2.51-4.72 16.7-9.77 33.3-14.76 49.93-2.31-2.39-4.62-4.8-7.34-6.72-.92-2.87-1.17-5.89-2.01-8.77-2.77.21-7.01-1.34-8.45 1.97-3.61 6.63-8.66 12.3-12.64 18.69-10.13-18.28-21.56-35.87-34.44-52.34-12-15.63-26.39-29.31-37.48-45.65-4.81-6.36-7.8-13.83-12.53-20.23-3.06-4.53-5.66-9.38-7.64-14.47-3.08-8.71-6.52-17.29-9.68-25.98-4.45-12.02-6.21-24.81-7.62-37.49-5.42-37.55-11.93-74.93-17.77-112.42z" fill="#fff" stroke="#fff"/><path d="m470.85 346.75c3.93-2.5 8.81-1.33 13.2-1.48 15.45 1.05 30.89 4.89 44.59 12.23 14.15 6.73 28.1 13.85 41.85 21.35.47 13.6 1.73 27.16 2.15 40.76-1.34 1.34-2.93 2.59-3.59 4.44-1.1 2.82.3 6.17-1.42 8.82-.9 1.61-2.81 2.15-4.34 2.94 1.07 5.26.49 11.94-5.08 14.4-19.33 7.61-40.71 9.37-61.17 6.23-2.5-.54-4.26-2.48-6.1-4.09-.74-.02-2.24-.06-2.99-.08-2.18-2.7-5.61-3.69-8.97-3.72-3.64.03-6.54-2.77-10.22-2.69-4.04-2.71-6.76-6.9-8.44-11.4-7.48-19.15-10.02-40.28-6.82-60.62 1.9-10.85 8.12-20.98 17.35-27.09m38.67 30.9c-1.77.23-3.65.58-4.77 2.12-6.77 7.93-8.09 19.47-4.79 29.17 1.7 5.06 4.2 10.27 8.77 13.34 4.62 3.4 10.94 3.36 16.22 1.77 6-5.99 8.87-14.7 8.51-23.1-.13-7.42-1.69-15.76-7.74-20.72-4.44-3.84-10.8-3.1-16.2-2.58z" fill="#fff" stroke="#fff"/><path d="m734.08 356.04c12.83-4.59 27.2-5.63 40.41-2.09 2.28 3.68 7.31 1.26 10.66 3.09 4.94 1.59 6.12 7.1 9.53 10.38 7.25 7.95 10.78 18.92 10.09 29.61-.42 3.79.19 8.87-4.12 10.56-.54 10.48-2.85 21.28-9.35 29.79-1.81 2.39-5.61 2.25-6.82 5.22-3.77 6.61-10.53 11.35-17.97 12.85-4.47.97-9.23.14-13.55 1.85-12.3 4.47-26.2 4.56-38.45-.11-6.65-2.55-13.64-4.34-20.81-3.92-.02-3.13-.03-6.26.01-9.38-1.34-1.13-2.82-2.1-4.06-3.32-1.19-11.01-2.94-21.98-5.86-32.67-3.16-10.6-2.83-21.87-1.72-32.76 13.92-4.73 28.17-9.3 40.76-16.92 3.72-.88 7.52-1.35 11.25-2.18m8.02 40.14c-3.04.99-6.9.15-9.07 2.96-4.1 4.19-6.72 9.93-6.5 15.86-.24 5.31 1.25 11.67 6.44 14.22 6.43 3.03 14.64 2.43 20.37-1.86 4.67-3.54 6.17-9.78 5.9-15.37-.08-5.2-1.01-11.33-5.67-14.47-3.18-2.65-7.7-1.8-11.47-1.34z" fill="#fff" stroke="#fff"/><path d="m619.02 474.01c2.71.04 5.26-1.32 8.01-.84 11.08.99 22.27 1.94 33.07 4.71 20.2 8.95 42.25 12.24 62.98 19.67 13.33 4.74 25.66 12.28 35.85 22.1 14.4-9.72 28.32-21.2 45.49-25.61.46 3.52 1.14 7.01 1.69 10.52-1.7 1.93-1.37 4.45-1.1 6.81 2.41.19 4.57-.99 6.82-1.67 3.04-1.07 6.3-1.99 8.73-4.22 1.91-1.94 2.53-4.71 3.35-7.22 2.63.58 2.26 3.63 2.83 5.65 1.01 4.98.31 10.06.68 15.08 1.03 2.6 3.54.54 4.86-.67 3.84-3.5 8.37-6.1 12.44-9.31.76 10.14 3.99 19.88 5.01 29.99.13 2 2.81 1.52 4.17 1.28 3.84-1.26 7.51-2.99 11.29-4.42-2.94 5.96-5.45 12.12-7.99 18.26-1.76 3.69-1.27 7.88-1.05 11.83 1.08 1.58 3.19 1.12 4.84 1.28 6.27.02 12.43 1.78 18.05 4.5-8.94 1.75-18.25 2.54-26.56 6.56-1.69.91-3.75.77-5.38 1.72-1.14 1.52.43 2.97 1.93 3.07 8.92 2.5 17.93 4.87 27.24 5.34-18.78 4.88-37.78 9.19-56.04 15.87-3.82 2.01-6.76 5.33-10.16 7.95-4.15 4.05-10.16 5.38-14.2 9.57-5.58 5.12-7.44 12.76-9.45 19.77-1.09 4.27-2.58 8.81-6.18 11.65-14.45 10.87-30.37 19.67-46.78 27.2-7.05 3.04-13.89 6.54-20.53 10.38-7.47 4.86-15.81 8.73-24.86 9.03-15.99.51-32.05 1.06-48-.39-9.51-2.68-19.44-2.44-29.16-3.64-17.8-2.28-35.4-5.87-53.03-9.13-9.91-2.59-20.03-4.79-29.34-9.2-4.99-2.21-9.07-6.03-14.15-8.05-4.95-2.22-11-1.65-15.33-5.25-3.56-2.93-8.01-4.33-12.2-6.06-20.18-7.59-40.73-14.2-60.75-22.24-14.76-6.25-29.56-13.51-41.09-24.9-1.49-1.74-4.02-1.01-6.02-1.2-7.36.16-14.5-1.94-21.84-2.07 1.52-2.64 2.67-5.57 4.75-7.84 2-2.12 5.07-2.22 7.62-3.22 1.64-1.71-.27-4.5-2.5-4.07-5.72.14-11.52-.51-17.17.55 1.41-2.7 3.42-4.99 5.37-7.3 1.06-1.36-.64-2.75-1.64-3.48-3.07-2-6.72-2.89-10.35-2.95 2.11-4.4 7.85-2.98 10.88-6.24 1.12-1.02 2.16-2.11 3.24-3.17.13-5.55-6.45-5.58-10.24-7.22 6.11-1.62 13.05-3.73 16.34-9.63-.05-.46-.14-1.39-.19-1.85-3.63-2.7-7.85-4.46-11.57-7.02 1.75-.37 3.87-.04 5.24-1.45.59-3.88.16-7.85.27-11.76.35-3.35-2.6-5.67-5.13-7.23-3.52-2.09-6.97-4.34-9.84-7.28 7.34-.36 14.7-.86 21.9-2.39.59-1.2 2.55-2.86.89-4.06-6-6.11-13.38-10.69-19.39-16.79-2.75-3.21-6.12-6.64-5.31-11.27 8.77 5.25 17.79 10.05 26.83 14.82 7.89 3.72 15.57 8.01 23.98 10.47 3.33.91 6.78-.01 10.07-.67 10.52-2.19 20.99-5.11 31.81-5.25 20.18-.42 40.2 2.55 60.36 3.13-2.48 2-5.79 2.63-8.13 4.77-.53 1.51 1.3 2.61 2.62 2.07 2.81-.72 5.43-2.07 7.93-3.53 36.82-22.44 80.02-34.84 123.22-33.84m-17.79 36.32c-8.86 3.49-18.95 5.09-25.92 12.1-2.64 2.86-2.01 7.07-1.92 10.63.29 4.8 4.42 7.97 8.16 10.33 1.14 1.83 2.14 3.78 3.51 5.46 3.02 2.89 7.02 4.44 10.92 5.78 2.44.88 4.26 3.21 6.99 3.35 7.56.79 15.13 2.15 22.77 1.62 4.28-.4 8.88.23 12.79-1.95 5.89-3.24 12.66-5.76 16.73-11.43 4.05-5.56 3.49-13 1.88-19.32-3.37-6.02-10.42-8.24-15.42-12.56-1.95-.69-4.05-1.07-5.72-2.38-2.47-2.15-5.96-1.1-8.86-2.16-6.56-2.17-13.53-1.62-20.32-1.42-1.97.27-3.72 1.34-5.59 1.95m-36.36 99.63c-3.5 2.84-8.68 1.97-11.99 5.09-3.74 3.36-8.16 5.79-12.3 8.6-3.53 3.41-3.3 8.86-2.57 13.35.55 2.22-1.55 3.88-1.76 6.01.69 2.72 1.82 5.31 2.38 8.08 4.14 1.18 8.51 1.61 12.45 3.49 7.7 3.5 15.98 6.42 24.58 5.64 1.51 1.38 2.66 3.61 4.89 3.86 5.12.92 10.41.14 15.47 1.47 5.23 1.33 10.76 1.19 15.99-.08 3.92-.97 7.94-.18 11.9-.06 8.42-1.02 16.69-3.52 25.22-3.47 1.88-.08 3.21-1.69 4.88-2.4 3.88-.3 7.78.05 11.67-.23 2.68-2.8 5.36-5.97 9.22-7.1 3.84-1.04 6.47-4.54 7.65-8.18 1.42-3.75.02-7.7-.25-11.51.15-1.74-1.69-2.19-2.81-3.01-2.06-2.63-4.89-5.43-8.54-4.99-4.63.49-9.29.28-13.83-.7-5.43-1.25-11.02-1.04-16.55-1.03-.89-1.78-1.58-3.96-3.59-4.76-5.88-2.55-12.65-3.31-18.79-1.31-5.84-3.4-12.74-2.13-19.15-2.44-4.65-.28-8.48-3.37-13-4.16-3.53-.71-6.62-2.71-10.11-3.52-3.98-.46-7.95.91-11.06 3.36z" fill="#fff" stroke="#fff"/><path d="m125.07 660.5c-.87-8.53-2.31-17-2.9-25.56 3.78 6.36 7.37 12.82 11.01 19.26-3.18 1.4-6.13 3.39-8.11 6.3z" fill="#fff" stroke="#fff"/><path d="m447.31 664.7c3.81 2.84 7.13 6.48 11.7 8.14 5.19 1.99 9.82 5.1 14.8 7.54 4.01 2.04 8.43 3.01 12.61 4.63.86 1.58 1.59 3.68 3.65 4.02 7.31 1.21 15.33-2.88 22.05 1.52 14.73 8.99 28.51 19.71 44.29 26.9 10.17 3.93 21.13 5.05 31.65 7.68 8.51 1.91 16.32 5.94 24.08 9.78 5.8 2.92 12.46 3.21 18.84 3.11 6.7.06 13.74.13 19.93-2.83 8.53-3.75 17.03-7.93 26.29-9.52 7.55-1.07 15.21-.57 22.81-.66 5.69-.1 11.29 1.48 16.99.95 14.1-1.1 27.76-5.8 41.99-5.56 8.06-.27 16.03 1.09 24.05 1.6 5.94.13 11.79-1.13 17.7-1.59-2.18 2.62-4.4 5.27-7.17 7.29-3.09 2.35-7.02 3.32-9.93 5.93-3.28 2.83-4.96 6.92-7.02 10.61-3.66 1.38-3.74 5.86-3.05 9.11 4.83-1.02 9.75-1.7 14.7-1.24-4.14 6.32-7.53 13.09-10.11 20.2-1.4 4.13-3.67 8.05-4.21 12.42 1.84 1.19 3.91 2.14 5.02 4.16-6.39 2.53-13.14 4.05-19.52 6.63-4.83 1.99-9.02 6.11-10.01 11.38-1.18 6.67.63 13.81-2.05 20.23-3.45 4.08-9.13 5.68-12.27 10.05-.65 4.22-.41 8.56-.14 12.81 1.59 1.05 3.57 1.04 5.39 1.49.26.72.79 2.15 1.05 2.87-10 7.34-20.49 14.03-30.11 21.91-4.9 3.81-9.51 8.39-11.78 14.29-4.12 9.73-.99 20.49-2.87 30.62-1.95 10.5-3.69 21.06-4.34 31.74-1.09 12.7.8 25.46-.35 38.16-.05 2.6-2.03 4.5-3.37 6.55-3.05 4.18-3.42 9.52-4.69 14.38h-299.65c-.17-4.21.07-8.61-1.52-12.57-2.21-3.45-5.82-5.6-8.47-8.65-1.76-2.22-2.24-5.11-3.08-7.74-1.22-4.65-3.19-9.19-3.17-14.07-.03-6.1-.73-12.22-2.44-18.07-1.66-5.01-.47-10.26.2-15.32 1.9-11.56 4.33-23.05 5.7-34.7 1.2-8.29-.18-16.69.83-24.99.34-3.77 4.37-5.39 6.07-8.46 3.74-5.9 7.91-12.22 8.07-19.43-.65-6.04-7.75-7.3-11.34-11.17-4.01-3.53-4.31-9.09-5.09-13.97-4.66-4.13-10.43-6.76-15.54-10.27-3.32-2.85-4.45-7.4-5.13-11.54-.68-2.83.65-6.26 3.63-7.07 6.12-2.42 12.7-.47 19.03-.86.37-.29 1.11-.87 1.48-1.16.28-3.23-3.48-2.49-5.52-2.78-6.73-5.59-13.69-11.42-17.85-19.27-2.74-4.83-1.79-10.55-1.92-15.84.24-2.98-.38-6.52 1.99-8.81 2.77-3.03 5.85-6.11 6.82-10.25.69-3.28 1.22-6.62 1.38-9.96-.15-10.07-.55-20.15-.57-30.2 3.58-.23 7.72-.86 10.72 1.63 4.65 3.71 10.5 5.45 16.32 6.25 4.32.39 7.84 3.33 12.17 3.72 1.32-3.13 2.98-6.15 3.8-9.46-2.45-5.06-8.43-7.75-10.56-13.08-.64-3.02-2.32-5.6-3.76-8.26 9.32.38 18.36 3.03 27.55 4.5 8.93 1.8 18.22 2.5 26.67 6.16 2.76 1.09 4.33 3.73 6.43 5.67 2.35 1.01 5.27-.56 5.85-3 .63-3.36-.12-6.78-1.1-9.99-1.45-4.79-2.75-9.63-4.6-14.29z" fill="#fff" stroke="#fff"/><path d="m415.22 152.9c4.61-.31 9.2-1.35 13.83-1.13 7.59 2.34 15.17 4.79 22.98 6.36 4.94.66 8.11 5.14 12.75 6.57 4.61.69 9.28.97 13.95 1 2.37 5.9 6.32 11.61 5.59 18.26-.35 4.3.89 8.78-.16 12.95-7.84 6.36-16.36 11.85-24.64 17.63-5.68 4.07-11.6 8.09-15.91 13.7-3.48.05-7.28.56-10.36-1.42-3.75-2.34-7.01-5.47-11.15-7.16-5.89-2.42-9.57-8.08-12.18-13.62-5.12-8.78-11.03-17.09-15.87-26.03 2.75-3.24 5.49-6.82 9.57-8.45 3.24-1.52 7.63-2.11 9.18-5.82 1.61-4.08 2.01-8.51 2.42-12.84z" fill="#cfcfcf" stroke="#cfcfcf"/><path d="m844.87 234.76c13.58-2.41 27.33-3.78 41.11-4.3 14.09.21 28.15 1.56 42.1 3.55 2.44.3 4.97 1.33 6.26 3.57 7.05 10.77 9.77 24.5 7.05 37.06-6.34 7.93-14.16 14.79-23.17 19.53-6.4 3.53-13.74 5.12-19.75 9.39-3.61 2.03-6.24 5.84-10.5 6.6-4.47 1.25-9.21 2.17-13.83 1.53-14.88-9.1-25.79-24.05-31-40.61-3.34-10.92-7.66-21.55-13.04-31.63 4.9-1.65 9.59-4.02 14.77-4.69z" fill="#cfcfcf" stroke="#cfcfcf"/><path d="m510.51 382.68c3.88-.32 8.12-.79 11.71 1.09 5.06 4.11 6.22 11.09 6.34 17.25.32 6.25-1.61 12.56-5.33 17.59-.84 1.48-2.88.75-4.25.98-5.1.37-9.66-3.12-12.02-7.41-4.08-7.45-5.21-16.96-1.37-24.74 1.05-2.08 2.15-4.8 4.92-4.76z" fill="#00c5f2" stroke="#00c5f2"/><path d="m739.54 401.64c4.02-.6 9.7-2.83 12.53 1.29 2.58 3.75 2.57 8.71 1.97 13.06-.61 5.05-4.93 9.4-10.04 9.81-3.55.25-7.72.33-10.43-2.34-2.57-3.74-2.48-8.66-1.77-12.95 1.15-3.79 3.2-8.52 7.74-8.87z" fill="#00c5f2" stroke="#00c5f2"/><path d="m597.06 519.44c7.22-1.9 14.35-5.15 21.99-4.43 4.62-.13 8.36 2.92 12.68 4.04.99 3.56 1.18 7.25 1.12 10.94-2.29.31-4.76 1.12-6.97.1-1.9-.87-3.93-1.38-6.01-1.42-6.02-.3-10.68-5.19-16.77-5.24-2.37-.2-7.22-.39-6.04-3.99z" fill="#a9e0ef" stroke="#a9e0ef"/><path d="m561 616.93c4.17-.68 7.3-3.73 11.06-5.35 4.54-.34 8.59 2.25 12.9 3.25 4.53.9 8.32 4.06 13.04 4.24 5.67.85 11.83-1.07 17.14 1.7 1.81 1.19 3.93.46 5.91.18 3.82-.8 7.84-.49 11.56.71 2.78 1 3.91 4.16 6.43 5.57 4.83.81 9.84-.18 14.64 1.09 6.2 1.52 12.57 1.07 18.87 1.35 2.08 1.52 3.26 3.97 4.98 5.87 1.43 4.05 1.01 9.79-3.56 11.6-3.98 1.72-7.6 4.13-10.47 7.4-3.15.06-6.31-.12-9.46.09-2.51.2-4.48 2.24-7.02 2.39-7.39.39-14.64 1.98-21.89 3.36-4.7.43-9.45-.68-14.11.35-4.96 1.09-10.13 1.08-15.03-.28-4.57-1.38-9.38-.43-14.01-1.27-1.69-.97-3.01-2.43-4.4-3.75-4.23-.12-8.55.17-12.67-.99-7.02-1.89-13.52-5.31-20.58-7.07-2.45-.37-3.09-3.46-2.2-5.42 1.35-4.06-.18-8.33.56-12.44 1.08-3.47 4.69-4.78 7.55-6.4 3.68-1.93 6.41-5.65 10.76-6.18z" fill="#9a131b" stroke="#9a131b"/></g></svg>