<svg height="982pt" viewBox="0 0 1000 982" width="1000pt" xmlns="http://www.w3.org/2000/svg"><g stroke-width=".09375"><path d="m204.6 0h4.15c-9.4 17.47-16.75 36.07-21.48 55.34-5.27 20.16-8.66 40.73-11.78 61.31-1.32-.55-3.17-.72-3.7-2.28-7.42-20.58-12.83-41.87-16.51-63.44-6.02 19.13-10.82 38.67-13.76 58.52-5.53 37.38-9.13 75.03-12 112.7-.18 3.52-.48 7.04-1.05 10.52-1.63-.55-3.61-1.03-4.06-2.97-4.87-12.82-8.86-26.03-11.46-39.51-2.33-11.74-3.18-23.7-4.53-35.57-14.87 41.44-22.78 84.95-29.34 128.37-1.33 8.05-2 16.2-3.66 24.2-1.03-5-1.99-10.14-1.35-15.26.9-7.63 2.23-15.19 3.41-22.78.2-1.88.55-3.82.07-5.67-1.66-2.91-4.15-5.21-6.3-7.74-18.19-20.37-39.12-38.27-62.13-52.98 3.9 9.02 7.62 18.16 9.93 27.74 1.25 5.1 2.78 10.24 2.46 15.56-4.14-1.08-5.91-5.19-8.2-8.36-4.21-6.29-8.91-12.23-13.31-18.39v-6.17c5.49 6.95 10.4 14.35 16.01 21.21-2.3-11.35-6.65-22.17-11.74-32.53-1.08-2.06-1.73-4.3-2.01-6.6 2.16.35 4.29 1 6.09 2.28 11.4 7.49 22.42 15.56 33.01 24.15 13.74 11.17 26 24.03 37.74 37.24 6.46-39.58 15.41-78.92 29.61-116.5.75.2 2.25.58 3 .77.25 2.27.47 4.54.54 6.82.93 24.5 5 48.95 13.31 72.06 3.25-36.31 6.31-72.67 11.62-108.76 3.27-23.34 8.72-46.38 16.25-68.71.42-1.42 1.34-2.6 2.51-3.48 2.34 1.28 2.22 4.18 2.71 6.46 3.09 20.01 7.81 39.79 14.5 58.91 6.07-36.52 13.19-73.78 31.45-106.46z" fill="#000104" stroke="#000104"/><path d="m208.75 0h37.51c8.91 39.26 18.89 78.44 33.82 115.9 2.43 6.47 5.29 12.76 7.76 19.2-18.13-14.99-35.28-31.65-47.75-51.78-.75.29-2.26.85-3.02 1.13.72 3.31 1.74 6.55 2.86 9.75 6.29 18.29 13.48 36.3 22.35 53.5 11.54 22.98 24.8 45.02 38 67.06-16.44-8.75-30.74-20.93-43.37-34.52-.95.44-1.9.88-2.84 1.32 2.12 6.26 5.54 11.95 8.64 17.76 8.24 15.3 18.18 29.57 28.31 43.66 10.98 15.28 22.35 30.26 33.83 45.16 3.19 4.15 6.74 8.36 11.83 10.17-2.36-5.03-6.27-9.04-9.58-13.42-5.86-7.65-11.76-15.26-17.46-23.03 26.58-21.51 54.7-41.32 85.16-56.99-9.35 13.15-18.39 26.71-24.76 41.59.75.3 2.26.91 3.01 1.22 21.2-17.11 42.81-33.73 64.79-49.82 20.54-15.16 41.61-29.72 64.12-41.84-9.57 8.74-18.9 17.74-27.56 27.39-2.13 2.6-5.57 4.64-6.06 8.2 1.06 1.51 3.01.76 4.32.04 34.42-20.68 69.38-40.48 105.07-58.88 29.01-15.03 59.07-28.28 90.33-37.86-11.41 10.63-23.07 21.01-33.94 32.2-26.34 26.65-49.3 56.34-71.69 86.31-10.52 13.91-20.34 28.33-30.8 42.28-.5-8.9-1.06-17.81-1.31-26.72-.06-3.77-.79-7.48-1.95-11.05-1.86.81-3.94 1.48-5.13 3.24-8.03 10.98-13.57 23.49-19.88 35.47-1.48.24-2.96.49-4.43.73-.28-3.34-.62-6.67-1.08-9.99-2.12.9-4.48 1.66-5.85 3.64-2.96 3.79-5.43 7.93-7.89 12.05-8.3 15.09-15.67 30.76-20.76 47.25-14.23 24.8-27.83 49.97-40.09 75.79.24-12.89 1.05-25.82 2.98-38.58.74-5.52 2.38-10.93 2.32-16.53-5.29 1.28-8 6.36-11.53 10-15.32 17.23-26.32 37.66-36.82 58.04-2.53-9.32-3.05-19.91-9.77-27.44.16 2.54.59 5.07 1.23 7.54 4.97 18.99 8.5 38.41 9.86 58.01.44 11.28.23 22.58.19 33.87.02 8.3-1.56 16.52-1.24 24.82 1.68-.59 3.6-1.05 4.57-2.7 6.57-9.16 10.14-20.09 12.48-31.02 5.11 36.27 4.2 73.15-.24 109.44-.41 3.65-1.39 7.4-.45 11.06 2.36.01 3.88-1.91 5.26-3.54 5.78-7.05 10.64-14.78 15.37-22.56 2.65 34.46.26 69.01-1.92 103.42.18 3.44-3.03 5.34-5.24 7.38-5.6 4.53-10.3 10.01-15.52 14.96-10.99-32.2-21.89-64.61-37.6-94.88-.7.18-2.1.56-2.8.75-1.21 13.02-3.47 26.06-8.46 38.22-4.3-32.79-9.25-65.88-21.34-96.85-.54-1.32-1.47-2.43-2.53-3.35-3.55 2.18-5.25 6.19-6.93 9.82-5.26 12.04-5.82 25.33-7.37 38.19-10.64-44.18-21.82-88.39-38.12-130.88-4.57-11.74-9.52-23.36-15.38-34.53-5.79-10.75-12.17-21.5-21.29-29.78-5.91-5.59-14.27-9.19-22.45-7.25-10.02 2.39-18.02 9.56-24.94 16.84-16.64 18.62-28.83 40.68-40.09 62.82-10.76 21.55-20.36 43.65-29.26 66.03-5.42 12.7-9.64 25.88-14.73 38.71-4.53-8.53-8.48-17.43-10.91-26.8-1.35-4.67-1.8-9.72-4.54-13.87-3.93 5.2-4.49 11.9-6.26 17.97-8.27 32.49-9.55 66.19-9.7 99.56-7.02-16.38-12.62-33.39-16.42-50.8-.71-.19-2.13-.57-2.84-.77-8.73 15.61-15.46 32.37-19.49 49.81-.66.87-1.36 1.74-2.05 2.61-4.62-6.39-8.74-13.42-15.56-17.77-3.41-6.54-7.82-12.52-11.15-19.08-.63-5.98.2-12.01.51-18 .8-19.91 2.58-39.95 7.85-59.24 3.82 10.72 8.79 20.96 14.62 30.72 1.03-.04 2.06-.07 3.09-.1-.08-6.9-1.66-13.65-2.3-20.49-2.75-24.7-4.93-49.62-3.34-74.48 3.34 8.93 5.1 18.48 9.65 26.95.61.96 1.35 1.81 2.24 2.55 2.23-1.06 2.05-3.77 2.28-5.85.14-7.39.17-14.78.89-22.14 1.32-20.46 3.46-41.01 9.12-60.79 1.21-6.41 3.78-12.46 4.98-18.85-7.04 6.68-7.62 17-10.76 25.68-12-28.75-23.57-58.08-41.41-83.83v-99.82c4.4 6.16 9.1 12.1 13.31 18.39 2.29 3.17 4.06 7.28 8.2 8.36.32-5.32-1.21-10.46-2.46-15.56-2.31-9.58-6.03-18.72-9.93-27.74 23.01 14.71 43.94 32.61 62.13 52.98 2.15 2.53 4.64 4.83 6.3 7.74.48 1.85.13 3.79-.07 5.67-1.18 7.59-2.51 15.15-3.41 22.78-.64 5.12.32 10.26 1.35 15.26 1.66-8 2.33-16.15 3.66-24.2 6.56-43.42 14.47-86.93 29.34-128.37 1.35 11.87 2.2 23.83 4.53 35.57 2.6 13.48 6.59 26.69 11.46 39.51.45 1.94 2.43 2.42 4.06 2.97.57-3.48.87-7 1.05-10.52 2.87-37.67 6.47-75.32 12-112.7 2.94-19.85 7.74-39.39 13.76-58.52 3.68 21.57 9.09 42.86 16.51 63.44.53 1.56 2.38 1.73 3.7 2.28 3.12-20.58 6.51-41.15 11.78-61.31 4.73-19.27 12.08-37.87 21.48-55.34m35.86 300.68c-10.73 9.14-18.7 20.93-26.16 32.75-2.29 3.81-4.73 7.58-6.3 11.77 12.06-10.94 18.71-26.36 30.52-37.53 6.17-5.47 11.99-11.32 18.27-16.68-6.59.78-11.46 5.66-16.33 9.69m-41.25 32.67c-1.54 4.27.05 8.87 3.04 12.08.29-5.26-.48-10.93 2.31-15.68 2.08-3.19 5.02-5.7 7.3-8.73-6.53.62-11.54 6.03-12.65 12.33m67.12 6.51c-11.45 1.62-23.12 3.84-33.42 9.33-4.76 2.74-10.11 6.97-9.85 13.04.02 5.6 4.93 9.62 9.53 11.92 12.82 6 27.44 6.2 41.3 5.11 13.06-1.75 26.17-4.13 38.54-8.84 5.34-2.13 10.99-4.56 14.55-9.29 2.47-3.09 2.17-7.89-.44-10.8-4.23-5.11-10.79-7.34-17-8.97-14.11-3.42-28.88-3.38-43.21-1.5m-122.1 1.48c-13.39 1.71-26.76 4.52-39.25 9.77-5.31 2.26-10.58 5.23-14.15 9.89-1.89 2.35-2.29 5.64-1.3 8.45 2.26 3.52 6.21 5.44 10.09 6.62 10.77 3.19 22.09 3.66 33.24 4.17 15.2-.6 30.81-1.47 45.12-7.14 4.68-2.08 10.48-5.31 10.58-11.13.3-7.05-5.49-12.37-11.11-15.61-10.02-5.51-22.04-6.54-33.22-5.02z" fill="#efb647" stroke="#efb647"/><path d="m246.26 0h3.74c8.94 38.21 18.49 76.45 32.99 113 3.68 9.92 8.22 19.5 11.92 29.42-.74.32-2.21.98-2.94 1.3-14.28-12.19-28.83-24.29-40.83-38.81-1.76-2.14-3.49-4.29-5.42-6.27 4.19 13.64 10.07 26.7 16.05 39.63 12.28 25.04 26.3 49.2 40.94 72.92 1.95 3.38 4.97 6.53 4.73 10.7-2.88-.6-5.59-1.77-8.11-3.25-8.13-4.68-16.18-9.57-23.46-15.5-4.21-3.27-8.01-7.03-12.22-10.29 11.87 23.53 28.02 44.5 43.46 65.75 11.83-8.65 23.24-17.89 35.3-26.24 17.19-12.31 35.52-22.96 54.21-32.8 2.2-1.28 4.62-2.11 7.18-2.18-.55 2.32-1.51 4.53-3.05 6.35-8.59 10.84-16.34 22.39-22.59 34.74 42.68-32.61 84.67-66.92 132.67-91.57 2.45-1.48 5.15-2.57 8.06-2.57-.36 1.84-1.02 3.7-2.65 4.79-12.62 10.04-24.41 21.12-35.28 33.03 34.2-19.88 68.58-39.55 103.99-57.23 27.56-14.07 56.35-25.69 85.83-35.1 2.61-.93 5.36-1.45 8.15-1.35-.57 1.46-.97 3.1-2.2 4.17-28.12 24.15-54.4 50.56-77.6 79.5-22.89 28.35-44.48 57.73-65.41 87.56-2.34 2.95-1.34 6.92-1.34 10.37 2.67 35.89 9.75 71.3 18.39 106.19 13.79-13.48 29.58-24.9 46.82-33.56 31.44-15.69 66.28-24.43 101.36-25.96 38.93-1.12 78.53 7.09 112.77 25.99.24-14.93 1.07-29.98 4.8-44.51 5.95-23.24 16.11-45.35 29.36-65.32 4.12-6.08 8.55-12.06 14.09-16.93 1.95-1.71 4.57-3.28 7.25-2.36 2.62 2.61 3.13 6.52 4.23 9.91 5.03 19.97 9.61 40.12 16.65 59.52 5.67 15.78 14.81 29.98 21.32 45.39 7.27 17.29 10.73 36.02 11.4 54.71.39 8.16-1.19 16.19-1.76 24.3 12.27 5.34 21.73 15.16 31.1 24.4 14.98 15.71 32.43 28.75 49.84 41.59v4.29c-18.45-12.78-36.39-26.52-51.99-42.73-8.89-9.03-18.15-18.02-29.49-23.92-2.19 6.01-3.26 12.35-4.92 18.52-3.67 13.93-8.53 27.55-14.33 40.73-7 15.82-16.39 30.43-26.44 44.46-8.14 12-17.44 23.39-23.36 36.74-4.06 9.11-5.35 19.13-6.32 28.96 32.77 5.91 65.86 10.35 99.13 11.95 19.24.65 38.51.45 57.72-.77v3.7c-52.75 3.93-105.7-1.73-157.58-11.22-2.45 10.94-4.67 22-8.99 32.4 26.26 6.18 52.43 12.86 78.21 20.83 29.83 9.34 59.33 19.78 88.36 31.36v4.22c-11.51-5.21-23.59-9.03-35.33-13.68-3.24-1.09-7.02-3.11-10.24-.88-15.67 9.16-28.09 23-38.18 37.91-11.31 16.95-19.69 35.71-25.99 55.05-6.53 20.35-11.44 41.33-12.93 62.69-3.07 41.3 4.23 82.88 17.81 121.84 5.49 15.81 11.99 31.3 19.8 46.12h-3.95c-5.48-8.71-8.96-18.48-13.08-27.86-16.19-40.29-25.84-83.59-25.12-127.14.61-24.65 5.2-49.08 12.55-72.58 5.58-18.49 13.21-36.38 23.1-52.98 11.02-18.41 25.51-35 43.83-46.42-12.03-4.75-24.46-8.38-36.7-12.51-7.59-2.11-15.28-6.06-23.33-4.01-14.23 3-27.32 9.79-39.87 16.91-22.48 13.2-43.37 28.91-63.36 45.59-19.11 16.15-37.74 32.88-55.56 50.44-7.96 7.37-15.54 15.16-23.74 22.28-22.85 19.73-48.17 37.73-77.37 46.61-12.99 3.72-26.71 5.91-40.2 4.11-16.75-1.69-32.87-8.96-45.37-20.22-1.98-1.72-4.01-3.4-6.1-4.96 1.96 30.44 8.35 60.8 20.16 89 10.55 25.12 24.1 48.91 39.37 71.46 5.2 7.53 10.27 15.19 16.07 22.28h-3.41c-4.43-7.09-9.56-13.69-14.21-20.63-15.61-23.27-29.66-47.7-40.3-73.66-14.84-35.59-20.48-74.36-21.31-112.7-.39-6.66.15-13.31.44-19.95-.15-1.47.42-3.57-1.25-4.33-4.24-2.53-9.39-3.44-13.16-6.79-6.25-5.17-8.63-13.44-9.52-21.19-1.51-12.04 1.67-23.9 4.82-35.4 2.24-7.22.64-14.91-1.99-21.79-.77-2.1-2.54-3.53-4.09-5.03-4.84 6.12-7.04 13.72-9.96 20.84-14.75 39.06-25.43 80.55-23.7 122.61 2.03 33.75 11.25 66.67 23.37 98.1 9.58 24.09 20.98 47.47 34.04 69.87 2.02 3.39 3.96 6.84 6.28 10.05h-2.66c-13.61-22.04-25.44-45.2-35.51-69.07-12.44-29.75-22.18-60.85-26.27-92.92-3.07-22.49-1.73-45.4 2.15-67.71 5.18-29.59 14.35-58.42 26.22-85.99 1.81-4.72 5.57-9.35 4.2-14.69-1.27-5.92-2.3-11.89-3.03-17.9-10.76 11.22-18.94 24.61-26.8 37.94-21.08 37.4-33.59 79.44-37.89 122.09-1.04 17.57-.74 35.27 2.05 52.68 7.4 48.25 26.76 94.02 52 135.57h-4.15c-14.27-22.46-25.68-46.7-35.04-71.58-14.35-39.3-22.64-81.62-17.95-123.51 4.96-40.07 16.78-79.51 36.4-114.89 7.21-13.56 16.28-25.96 25.44-38.23-33.37.77-65.61 15.29-90.12 37.61-12.93 11.58-23.76 25.34-32.96 40.03-11.07 18.12-19.7 37.88-24.1 58.71-5.35 24.14-4.74 49.46 1.05 73.47 1.16 7.66 4.84 14.8 5.06 22.61-3.31-4.14-4.85-9.27-6.69-14.15-9.68 18.59-15.84 39.03-17.53 59.95-1.94 23.28-1.01 46.71.74 69.98h-3.99c-1.49-24.99-3-50.14-.12-75.09 2.27-19.46 7.9-38.61 17.26-55.87 2.89-4.6.77-9.97-.2-14.8-8.21-39.17-.18-80.66 18.73-115.61 3.76-7.15 8.32-13.83 12.43-20.79-4.47.74-8.87 1.82-13.26 2.9-32.72 7.19-66.31 9.96-99.78 9.57-24.1-.63-48.16-2.7-72.01-6.32-39.47-5.43-79.16-9.6-119-11.07-7-.44-14.02-.56-21.04-.45-8.04.03-16.09-.16-24.13.09-1.3 15.78-3.88 31.5-8.69 46.62-1.16 4.22-3.35 8.76-1.46 13.11 17.16 40.27 32.18 81.94 38.69 125.39 4.65 33.91 3.98 68.49-.97 102.32h-3.81c2.5-20.58 4.66-41.27 4.06-62.04-.73-30.11-5.27-60.18-14.38-88.92-5.96-22.09-14.15-43.49-22.65-64.71-1.28-3.04-2.77-5.98-4.31-8.89-3.17 6.25-6.71 12.38-11.57 17.5 1.89-6.52 5.04-12.56 7.34-18.92 8.71-23.28 14.32-48.05 13.72-73.01.01-16.42-3.34-32.84-9.8-47.93-4.89-11.8-10.57-23.38-17.99-33.8v-35.64c1.14-17.37 3.81-34.65 8.41-51.45.47-1.7 1.62-3.07 2.61-4.47 2.84 3.47 3.38 8.03 4.89 12.12 2.02 6.29 5.03 12.18 7.92 18.11-1.96-15.93-3.78-31.89-4.48-47.92-1.4-17.56-.35-35.18.52-52.73-.13-1.9 2-2.47 3.16-3.5 3.45 12.83 5.01 26.26 10.26 38.59.97-18.67 2.12-37.38 5.09-55.86.47-3.4 1.67-6.79 1.29-10.24-11.69-27.35-22.39-55.41-38.47-80.58.02 7.45 1.59 14.88.74 22.34-.53 5.51-.06 11.21-1.94 16.51v-47.43c17.84 25.75 29.41 55.08 41.41 83.83 3.14-8.68 3.72-19 10.76-25.68-1.2 6.39-3.77 12.44-4.98 18.85-5.66 19.78-7.8 40.33-9.12 60.79-.72 7.36-.75 14.75-.89 22.14-.23 2.08-.05 4.79-2.28 5.85-.89-.74-1.63-1.59-2.24-2.55-4.55-8.47-6.31-18.02-9.65-26.95-1.59 24.86.59 49.78 3.34 74.48.64 6.84 2.22 13.59 2.3 20.49-1.03.03-2.06.06-3.09.1-5.83-9.76-10.8-20-14.62-30.72-5.27 19.29-7.05 39.33-7.85 59.24-.31 5.99-1.14 12.02-.51 18 3.33 6.56 7.74 12.54 11.15 19.08 5.01 10.57 9.79 21.26 13.36 32.42 1.58-5.71 2.89-11.49 4.25-17.26 4.03-17.44 10.76-34.2 19.49-49.81.71.2 2.13.58 2.84.77 3.8 17.41 9.4 34.42 16.42 50.8.15-33.37 1.43-67.07 9.7-99.56 1.77-6.07 2.33-12.77 6.26-17.97 2.74 4.15 3.19 9.2 4.54 13.87 2.43 9.37 6.38 18.27 10.91 26.8 5.09-12.83 9.31-26.01 14.73-38.71 8.9-22.38 18.5-44.48 29.26-66.03 11.26-22.14 23.45-44.2 40.09-62.82 6.92-7.28 14.92-14.45 24.94-16.84 8.18-1.94 16.54 1.66 22.45 7.25 9.12 8.28 15.5 19.03 21.29 29.78 5.86 11.17 10.81 22.79 15.38 34.53 16.3 42.49 27.48 86.7 38.12 130.88 1.55-12.86 2.11-26.15 7.37-38.19 1.68-3.63 3.38-7.64 6.93-9.82 1.06.92 1.99 2.03 2.53 3.35 12.09 30.97 17.04 64.06 21.34 96.85 4.99-12.16 7.25-25.2 8.46-38.22.7-.19 2.1-.57 2.8-.75 15.71 30.27 26.61 62.68 37.6 94.88 5.22-4.95 9.92-10.43 15.52-14.96 2.21-2.04 5.42-3.94 5.24-7.38 2.18-34.41 4.57-68.96 1.92-103.42-4.73 7.78-9.59 15.51-15.37 22.56-1.38 1.63-2.9 3.55-5.26 3.54-.94-3.66.04-7.41.45-11.06 4.44-36.29 5.35-73.17.24-109.44-2.34 10.93-5.91 21.86-12.48 31.02-.97 1.65-2.89 2.11-4.57 2.7-.32-8.3 1.26-16.52 1.24-24.82.04-11.29.25-22.59-.19-33.87-1.36-19.6-4.89-39.02-9.86-58.01-.64-2.47-1.07-5-1.23-7.54 6.72 7.53 7.24 18.12 9.77 27.44 10.5-20.38 21.5-40.81 36.82-58.04 3.53-3.64 6.24-8.72 11.53-10 .06 5.6-1.58 11.01-2.32 16.53-1.93 12.76-2.74 25.69-2.98 38.58 12.26-25.82 25.86-50.99 40.09-75.79 8.96-14.72 18-29.53 29.61-42.37 3.35-3.87 7.1-7.39 10.4-11.31 6.31-11.98 11.85-24.49 19.88-35.47 1.19-1.76 3.27-2.43 5.13-3.24 1.16 3.57 1.89 7.28 1.95 11.05.25 8.91.81 17.82 1.31 26.72 10.46-13.95 20.28-28.37 30.8-42.28 22.39-29.97 45.35-59.66 71.69-86.31 10.87-11.19 22.53-21.57 33.94-32.2-31.26 9.58-61.32 22.83-90.33 37.86-35.69 18.4-70.65 38.2-105.07 58.88-1.31.72-3.26 1.47-4.32-.04.49-3.56 3.93-5.6 6.06-8.2 8.66-9.65 17.99-18.65 27.56-27.39-22.51 12.12-43.58 26.68-64.12 41.84-21.98 16.09-43.59 32.71-64.79 49.82-.75-.31-2.26-.92-3.01-1.22 6.37-14.88 15.41-28.44 24.76-41.59-30.46 15.67-58.58 35.48-85.16 56.99 5.7 7.77 11.6 15.38 17.46 23.03 3.31 4.38 7.22 8.39 9.58 13.42-5.09-1.81-8.64-6.02-11.83-10.17-11.48-14.9-22.85-29.88-33.83-45.16-10.13-14.09-20.07-28.36-28.31-43.66-3.1-5.81-6.52-11.5-8.64-17.76.94-.44 1.89-.88 2.84-1.32 12.63 13.59 26.93 25.77 43.37 34.52-13.2-22.04-26.46-44.08-38-67.06-8.87-17.2-16.06-35.21-22.35-53.5-1.12-3.2-2.14-6.44-2.86-9.75.76-.28 2.27-.84 3.02-1.13 12.47 20.13 29.62 36.79 47.75 51.78-2.47-6.44-5.33-12.73-7.76-19.2-14.93-37.46-24.91-76.64-33.82-115.9m610.91 224.17c-9.31 11.25-16.65 23.98-23.06 37.06-9.76 20.62-17.11 42.8-17.99 65.75-1.13 10.31.27 20.63.22 30.95.5 14.31 1.21 28.91-2.55 42.88-2.37 9.46-7.18 18-11.2 26.81-8.6 18.24-15.18 37.34-21.47 56.48-1.82 5.36-2.89 11-5.42 16.1-.41-9.12 2.03-18.05 4.87-26.62.86-2.76 2.02-5.87.53-8.64-3.74-8.06-10-14.65-16.66-20.38-14.24-11.72-31.26-19.43-48.54-25.5-20.14-7.2-41.28-11.37-62.54-13.39-23.53-1.88-47.39-1.69-70.69 2.3 4.84 2.2 9.86 4.08 14.31 7.05 12.06 7.57 20.98 19.29 27.02 32.05 13.46-7.22 27.08-14.23 41.37-19.69 9.53-3.81 19.64-6.18 29.87-6.94 3.65-.26 7.39-.57 10.96.53-7.01 2.43-14.54 2.48-21.64 4.57-16.85 3.83-32.53 11.4-47.87 19.17-4.83 2.49-9.39 5.63-14.67 7.15-3.41-7.21-7.14-14.38-12.41-20.43-9.31-11.42-22.79-19.84-37.58-21.46-12.33-2.09-24.95 2.54-34.6 10.1-1.47-.44-2.93-.88-4.39-1.3 7.63-6.48 16.92-11.3 26.91-12.67 5.06-.78 10.22-.05 15.29-.88 19.38-3.42 39.08-4.91 58.75-4.48 37.23 1.07 74.69 8.63 108.24 25.16 16.68 8.32 32.74 19.67 42.01 36.29 6.04-15.36 11.87-30.85 19.35-45.59 5.68-10.97 8.93-23.2 9.16-35.56.02-10.35.18-20.72-.5-31.05.12-2.92-2.76-4.17-4.88-5.37-22.76-12.01-47.84-19.4-73.33-22.6-46.07-5.52-93.5 3.54-134.95 24.15-31.17 15.71-58.73 40.63-72.76 73.05.05-1.72-1.42-2.75-2.42-3.88 5.32-11.51 12.17-22.33 20.59-31.83 1.43-1.82 3.71-3.82 2.58-6.38-10.46-41.88-18.31-84.64-19.62-127.88-.72-8.24-.46-16.54-1.37-24.76-2.03 2.23-3.82 4.67-5.33 7.29-9.65 16.57-17.55 34.15-23.65 52.33-7.32 22.01-11.03 45.01-13.69 67.99-2.4 19.88-3.29 39.89-4.09 59.88-.56 11.61 1.26 23.6-2.62 34.82-5.53 17.27-10.53 34.96-11.11 53.2-.13 11.6 2.23 23.05 5.19 34.21 3.07 11.82 6.35 24.02 4.48 36.33-1.74 11.4-7.31 21.9-8.41 33.42-.87 8.51 4.26 18.12 13 20.09 8.83 2.04 17.88-.79 26.01-4.18-.5-5.6-1.45-11.19-3.16-16.55-1.43-4.78-6.04-7.33-9.41-10.61-8.9-8.08-12.82-20.1-14.47-31.68-1.35-9.78 1.03-20.15 7.34-27.86 4.85-6.05 11.74-11.89 20.03-11.05-5.55 4.11-12.05 7.15-16.39 12.72-6.43 7.5-8.83 17.86-6.99 27.51 1.95 9.59 4.94 19.65 12.18 26.66 3.73 3.9 9.05 6.63 11 11.96 2.43 7.06 3.19 14.55 4.23 21.9 1.36 9.03 1.27 18.29 3.74 27.15 2.04 8.1 5.08 15.92 7.05 24.05 1.15 4.45.83 9.14-.47 13.52-3.43 12.09-6.69 24.78-4.48 37.4 1.03 6.67 3.45 13.69 9.08 17.85 7.63 5.74 17.65 6.3 26.84 5.82-1.94-5.83-3.91-11.99-2.63-18.18 3.54 4.88 3.38 11.44 6.6 16.55 3.85 7.66 13.02 10.42 21.04 10.28 15.66-.38 30.45-6.43 44.54-12.77 17.49-7.91 32.56-20.61 44.3-35.72 20.86-27.53 31.64-61.55 35.53-95.57.58-3.27-.33-7.17 2.2-9.76 2.06 12.12-.14 24.45-2.8 36.3-5.77 24.98-15.38 49.48-30.94 70.05-4.23 5.89-9.5 10.9-14.07 16.51 3.23-.64 6.55-1.34 9.33-3.2 4.33-2.59 7.36-6.86 11.82-9.25 6.59-3.64 13.1-7.44 19.33-11.67 22.34-15.29 42.78-34.69 54.62-59.39 13.57-28.29 19.92-59.59 22.18-90.73.33-.92.74-1.79 1.25-2.62 3.27 11.37.47 23.14-1.3 34.51-2.54 15.3-6.8 30.22-11.68 44.92 7.49 6.65 16.71 11.63 26.76 12.85 9.03 1.39 18.96.36 26.52-5.17 8.49-6.01 13.15-15.77 16.78-25.22 5.16-14.57 7.68-29.9 9.85-45.16 1.92-12.96 8.46-24.64 15.66-35.38 10.04-14.65 21-28.72 29.74-44.22 8.65-14.44 14.64-30.27 19.88-46.21 4.34-14.12 7.98-28.51 9.88-43.17 2.02-17.61-.7-35.42-5.2-52.44-5.02-18.66-15.76-34.94-23.47-52.48-7.35-17.55-12.01-36.08-16.57-54.51-1.8-7.01-3.1-14.19-5.94-20.88-2.99 2.04-5.75 4.42-8.03 7.24m-381.11 72.8c-20.15 31.96-37.25 65.7-53.87 99.59-.73-.19-2.2-.56-2.93-.75.13-18.99 1.18-38.03 4.56-56.75-17.84 18.87-30.32 41.9-41.82 64.97-.88 1.29-.45 2.86-.24 4.28 4.75 25.92 4.77 52.48 2.74 78.68 5.32-8.89 8.03-19 10.27-29.03.62-2.49.75-5.2 2.2-7.4 1.74-.58 2.79.53 3.09 2.16 4.67 30.83 6.05 62.18 3.46 93.27-.36 9.41-2.14 18.71-2.29 28.13 6.32-8.31 11.84-17.21 16.44-26.58.93.02 1.86.03 2.8.04 1.43 7.71.82 15.61 1.69 23.38.22 13.02.17 26.05.03 39.07-.96 9.09-.52 18.26-1.66 27.33 8.48 1.75 17.06 3.08 25.64 4.29 3.56.63 6.78-1.24 9.99-2.44 12.12-4.71 24.92-7.79 37.89-8.83 4.06-.45 8.3.34 12.22-1.06.56-1.74.41-3.59.51-5.37-9.5 3.15-19.95 6.58-29.86 3.11-8.42-2.76-13.58-11.48-13.92-20.05-.22-15.24 9.48-28.71 8.83-44 .36-8.18-1.72-16.15-3.69-24.01-3.47-12.73-6.46-25.77-6.39-39.03.7-14.93 3.78-29.65 8.19-43.9 2.18-7.52 5.28-14.94 5.35-22.89.38-42.28 2.64-84.81 11.61-126.24 2.81-13.69 7.62-26.83 12.17-40-8.69 9.17-16.33 19.32-23.01 30.03m-279.01 86.04c-11.92 9.84-20.71 22.74-29.07 35.58 3.7-1.26 8.31-2.54 11.47.63-8.69 1.2-16.73 6.78-20.52 14.74-1.38 2.71-2.98 5.77-2 8.89.57 2.08 1.67 4.88 4.25 4.88 7.27.82 13.56-4.48 20.83-4.02 8.16.14 14.29 6.28 21.82 8.44 3.62.91 7.42.8 11.11.48 6.63-.98 10.47-7.81 17.04-8.92 6.8-.67 12.1 5.36 18.88 4.91 5.53-.18 10.1-3.75 13.78-7.56-2.14-5.03-3.68-10.4-6.66-15.01-4.97-5.64-12.77-3.16-19.23-2.97 3.77-5.17 10.69-4.34 16.31-4.4-5.81-11.36-11.68-22.9-20.28-32.46-4.86-5.41-11.06-10.99-18.76-11.06-7.17-.46-13.57 3.6-18.97 7.85m-44.04 62.06c-4.8 9.09-9.14 18.4-13.72 27.6 10.81 3.72 21.93 6.48 33.14 8.65 18.35 3.43 37.28 5.2 55.83 2.34 16.14-2.19 31.6-7.53 46.72-13.38-2.36-8.49-5.42-16.78-8.76-24.93-4.63 3.71-10.02 7.33-16.23 7.03-6.17.28-11.04-4.43-16.99-4.96-4.39.64-7.29 4.48-11.02 6.53-6.53 3.88-14.86 3.48-21.81.99-5.85-2.11-10.8-6.57-17.14-7.29-7.68-.95-14.26 5.01-21.94 3.99-3.89-.1-6.12-3.73-8.08-6.57m116.13 45.11c-5.06 8.66-10.05 17.6-17.39 24.58-7.52 6.65-18.01 7.8-27.55 9.18-12.35 1.03-24.87.92-37.11-1.1-6.46-1.02-11.84-5.12-16.62-9.33-7.08-6.25-13.28-13.39-19.42-20.54-4.49-5.52-8.36-11.53-13.04-16.89-7.53 16.17-14.41 32.65-20.78 49.32-1.23 2.12.37 4.21 1.34 6.06 9.68 16.56 19.81 33.03 32.59 47.42 4.29 4.79 9.22 9.26 15.26 11.69 8.75 3.6 18.13 5.31 27.46 6.52 18.39 2.07 37.11 2.21 55.39-.93 7.84-1.6 16.54-3.47 21.77-10.09 9.27-11.21 16.4-23.97 23.24-36.74 1.38-2.51 2.69-5.36 1.51-8.21-5.84-22.56-11.97-45.07-19.36-67.17-2.64 5.31-4.61 10.93-7.29 16.23m-15.83-8.31c.16 4.76.27 9.54.82 14.28 4.23-2.19 8.51-4.71 11.46-8.55 2.45-3.53 4.07-7.56 5.61-11.56-6.06 1.63-11.75 4.44-17.89 5.83m-108.24-3.1c3.48 4.51 6.46 9.75 11.54 12.69 5.49 3.29 11.41 6.03 17.64 7.56.08-4.47.85-8.88 1.55-13.28-10.38-1.74-20.54-4.44-30.73-6.97m70.2 9.88c-.12 5.37.36 10.72.57 16.08 11.44.26 23.07-1.78 33.58-6.34.2-.36.59-1.09.78-1.45.19-4.62-.63-9.2-.66-13.82-11.23 2.81-22.66 5.19-34.27 5.53m-35.68-2.26c-1.12 4.64-1.55 9.42-1.37 14.19 10.93 3.05 22.27 4.6 33.62 4.25-.01-5.17-.21-10.33-.43-15.48-10.6-.96-21.3-1.03-31.82-2.96m74.17 14.39c-.21 2.37-.36 4.76-.47 7.15 2.6-3.61 5.28-7.18 7.49-11.05-2.35 1.28-4.69 2.57-7.02 3.9m-93.56-2.82c4.69 4.91 9.3 9.94 14.55 14.26-.25-2.9.27-6.14-1.03-8.78-4.4-2.05-9.05-3.56-13.52-5.48m56.08 10.81c.01 3.97.27 7.93.42 11.9 8.67-.29 17.36-1.68 25.59-4.47 2.16-.94 4.6-1.89 5.93-3.95 1.23-3.15 1.38-6.57 1.64-9.89-10.66 4.25-22.15 6.08-33.58 6.41m-38.1-4.37c.16 3.9.31 7.93 1.8 11.6 2.35 1.62 5.06 2.69 7.87 3.2 8.26 1.25 16.62 1.8 24.97 1.48-.06-3.98-.11-7.95-.4-11.92-11.54.08-23.11-1.26-34.24-4.36m-92.37 21.46c-7.82 25.88-10.5 52.96-11.5 79.87 7.82-6.25 14.92-13.46 20.69-21.66 2.47-3.24.58-7.4.77-11.07-.35-6.18 1.83-12.43.54-18.54-4.48-9.14-8.28-18.63-10.5-28.6m228.96 25.11c2.7 12.65 4.67 25.69 3.08 38.63-.14 1.61-.6 3.51.71 4.8 5.9 7.19 13.26 13.09 21.27 17.8-.15-7.07-1.85-13.98-2.87-20.95-3.28-20.2-8.24-40.15-15.49-59.3-3.3 5.88-5.96 12.28-6.7 19.02m-200.29-18.18c-3.75 8.79-6.55 17.94-9.99 26.84-.5 1.92-2.38 2.68-3.98 3.49-2.26 13.08.98 26.18 2.18 39.18-3.8-3.56-4.49-8.9-5.75-13.67-6.98 7.77-13.84 15.8-22.6 21.67-.25 11.39-.6 22.78-.52 34.18-1.55-.3-3.53-.37-4.13-2.14-3.74-7.96-6.36-16.4-9.79-24.5-6.25 1.47-12.47 3.05-18.78 4.29-1.4.43-3.38.43-3.78 2.21-1.69 4.38-2.81 9.01-3.39 13.67-1.71 5.25-2.88 10.66-3.89 16.08-.95 4.62.22 9.27.76 13.86.97 7.42.86 14.92 1.09 22.39 8.71.27 17.42-.04 26.14.12 8.32.4 16.69-.19 24.99.77 37.48 1.78 74.86 5.49 112.01 10.7 41.3 6.22 83.33 8.57 124.95 4.35 20.94-2.07 41.8-5.49 62.05-11.27 4.66-1.12 6.96-5.66 9.72-9.11-5.23-16.94-11.55-33.51-17.37-50.25-.94-2.21-1.62-5.09-4.25-5.81-6.28-2.22-12.49-4.63-18.79-6.8-2.14 4.87-2.27 11.33-7.2 14.41-1.95-5.1-1.97-10.61-2.69-15.95-.29-1.75-.57-3.77-2.19-4.82-3.2-2.5-6.79-4.46-10.03-6.91-4.55-3.27-8.47-7.28-12.47-11.17-3.23 11.26-5.71 23.06-12.24 33-1.06 1.62-2.74 2.65-4.32 3.71 2.08-6.71 5.46-12.93 7.52-19.64 5.56-16.3 9.2-33.94 5.47-51.06-2.2 7.94-1.47 16.27-2.28 24.39-.04 1.44-.97 3.25-2.68 2.73-2.27-3.1-2.31-7.14-3.2-10.74-2.19-9.9-4.09-19.9-7.18-29.57-8.35 13.6-15.27 28.38-26.55 39.92-6.32 5.75-15.07 7.4-23.2 8.89-23.3 3.48-47.28 2.86-70.32-2.04-9.06-2.04-18.2-5.42-24.95-12.03-15.75-15.47-26.61-34.92-38.37-53.37m-75.67 85.82c6.74-1.04 13.55-2.31 19.81-5.13-3.1-8-4.94-16.4-7.48-24.58-4.92 9.52-9.33 19.39-12.33 29.71m318.74-22.57c-1.16 6.07-2.02 12.2-3.73 18.16-.29 1.65-1.08 3.5-.34 5.14 5.4 2.54 11.01 4.66 16.75 6.28-3.6-10.12-8.48-19.71-12.68-29.58m474.41 24.25c-2.99 5.93-6.44 11.76-11.36 16.31-5.75 5.69-13.69 8.68-21.65 9.43-14.21 1.28-28.37-4.17-39.16-13.27-3.95 8.53-7.8 17.16-12.93 25.07-16.78 25.72-41.72 45.09-68.45 59.63-4.67 2.88-7.93 7.64-13 9.96-4.84 2.74-10.59 2.49-15.74 4.22-3.76 2.11-6.88 5.17-10.54 7.44-12.27 7.98-25.86 13.8-39.78 18.21-11.35 3.26-23.83 5.97-35.27 1.62-3.75-1.2-6.39-4.22-9.55-6.37-4.93-.55-9.93.17-14.89-.07-.5 11.3-.52 22.63-.01 33.94.1 2.91.66 6 2.81 8.15 13.01 14.82 31.79 24.61 51.51 26.19 15.06 1.57 30.26-1.36 44.42-6.42 24.74-9.11 46.54-24.52 66.54-41.42 20.3-17.99 38.99-37.73 59.42-55.6 20.19-17.96 41.03-35.29 63.3-50.64 18.85-12.8 38.62-25.14 60.78-31.23.04-.24.14-.73.19-.98-18.8-5.05-37.6-10.15-56.64-14.17m-412.56 38.89c7.23-4.76 14.78-9.04 21.83-14.06-6.82-1.46-13.71-2.54-20.56-3.79-.48 5.94-1 11.89-1.27 17.85z" fill="#000102" stroke="#000102"/><path d="m133.29 356.28c11.55-5.91 25.48-8.92 38.06-4.62 5.44 1.68 9.69 7.15 9.27 12.92-.63 1.03-1.68 1.7-2.68 2.32-9.46 5.28-20.52 8.18-31.35 6.39-8.62-1.55-17.32-3.98-24.79-8.68 2.63-4.15 7.35-6.07 11.49-8.33m5.52 1.47c7.09-.25 14.09-1.74 21.19-1.94 4.37-.09 8.72.57 13.09.7-10.8-5.3-23.57-3.17-34.28 1.24m29.48 2.43c-2.98 3.68-7.48 6.23-12.34 5.58-4.28.17-7.71-2.48-11.24-4.44-5.69.2-11.13 2.36-16.84 2.5 8.93 3.6 18.47 6.49 28.2 5.94 7.39-.16 14.32-3.21 20.77-6.58-.32-4.22-5.67-2.47-8.55-3z" fill="#000102" stroke="#000102"/><path d="m811.1 542.19c6.27-3.48 12.82-6.73 19.91-8.13-7.38 7.85-18.95 9.77-26.08 17.86-4.16 4.87-2.48 11.8-1.34 17.49 1.2 6.82 4.56 13.03 5.7 19.86-3.41-2.96-6.1-6.78-7.35-11.14-2.18-7.12-4-14.62-3.03-22.1 1.15-6.51 6.85-10.72 12.19-13.84z" fill="#000102" stroke="#000102"/><path d="m535.67 666.02c.03-5 .08-10.68 3.44-14.72.69 7.91-.6 16.05 1.88 23.76 1.49 5.85 5.36 11.83 11.56 13.35 6.39 1.36 12.99 1.29 19.41 2.59 14.62 2.43 29.65 6.88 44.47 3.3 11.08-3.6 19.45-12.47 26.42-21.44 2.05-2.73 3.95-5.58 6.29-8.07-1.19 8.32-6.54 15.25-12.46 20.9-6.51 6.32-14.4 11.97-23.61 13.2-16.46 2.2-32.51-3.14-48.68-5.15-6.56-.81-13.89-.44-19.32-4.83-6.74-5.48-8.9-14.61-9.4-22.89z" fill="#000102" stroke="#000102"/><path d="m857.17 224.17c2.28-2.82 5.04-5.2 8.03-7.24 2.84 6.69 4.14 13.87 5.94 20.88 4.56 18.43 9.22 36.96 16.57 54.51 7.71 17.54 18.45 33.82 23.47 52.48 4.5 17.02 7.22 34.83 5.2 52.44-1.9 14.66-5.54 29.05-9.88 43.17-5.24 15.94-11.23 31.77-19.88 46.21-8.74 15.5-19.7 29.57-29.74 44.22-7.2 10.74-13.74 22.42-15.66 35.38-2.17 15.26-4.69 30.59-9.85 45.16-3.63 9.45-8.29 19.21-16.78 25.22-7.56 5.53-17.49 6.56-26.52 5.17-10.05-1.22-19.27-6.2-26.76-12.85 4.88-14.7 9.14-29.62 11.68-44.92 1.77-11.37 4.57-23.14 1.3-34.51-.51.83-.92 1.7-1.25 2.62-2.26 31.14-8.61 62.44-22.18 90.73-11.84 24.7-32.28 44.1-54.62 59.39-6.23 4.23-12.74 8.03-19.33 11.67-4.46 2.39-7.49 6.66-11.82 9.25-2.78 1.86-6.1 2.56-9.33 3.2 4.57-5.61 9.84-10.62 14.07-16.51 15.56-20.57 25.17-45.07 30.94-70.05 2.66-11.85 4.86-24.18 2.8-36.3-2.53 2.59-1.62 6.49-2.2 9.76-3.89 34.02-14.67 68.04-35.53 95.57-11.74 15.11-26.81 27.81-44.3 35.72-14.09 6.34-28.88 12.39-44.54 12.77-8.02.14-17.19-2.62-21.04-10.28-3.22-5.11-3.06-11.67-6.6-16.55-1.28 6.19.69 12.35 2.63 18.18-9.19.48-19.21-.08-26.84-5.82-5.63-4.16-8.05-11.18-9.08-17.85-2.21-12.62 1.05-25.31 4.48-37.4 1.3-4.38 1.62-9.07.47-13.52-1.97-8.13-5.01-15.95-7.05-24.05-2.47-8.86-2.38-18.12-3.74-27.15-1.04-7.35-1.8-14.84-4.23-21.9-1.95-5.33-7.27-8.06-11-11.96-7.24-7.01-10.23-17.07-12.18-26.66-1.84-9.65.56-20.01 6.99-27.51 4.34-5.57 10.84-8.61 16.39-12.72-8.29-.84-15.18 5-20.03 11.05-6.31 7.71-8.69 18.08-7.34 27.86 1.65 11.58 5.57 23.6 14.47 31.68 3.37 3.28 7.98 5.83 9.41 10.61 1.71 5.36 2.66 10.95 3.16 16.55-8.13 3.39-17.18 6.22-26.01 4.18-8.74-1.97-13.87-11.58-13-20.09 1.1-11.52 6.67-22.02 8.41-33.42 1.87-12.31-1.41-24.51-4.48-36.33-2.96-11.16-5.32-22.61-5.19-34.21.58-18.24 5.58-35.93 11.11-53.2 3.88-11.22 2.06-23.21 2.62-34.82.8-19.99 1.69-40 4.09-59.88 2.66-22.98 6.37-45.98 13.69-67.99 6.1-18.18 14-35.76 23.65-52.33 1.51-2.62 3.3-5.06 5.33-7.29.91 8.22.65 16.52 1.37 24.76 1.31 43.24 9.16 86 19.62 127.88 1.13 2.56-1.15 4.56-2.58 6.38-8.42 9.5-15.27 20.32-20.59 31.83-3.03 6.28-5.09 12.96-6.91 19.68-1.16 3.36-2.18 7.75-6.08 8.86-5.56 1.97-11.45 3.98-15.44 8.58-6.62 7.09-7.24 17.66-5.59 26.75 3.28 15.56 11.67 29.84 23.01 40.9 7.83 7.73 18.72 11.47 29.48 12.55 11.13 1.54 22.24-.88 33.24-2.37-1.78 7.58-3.58 15.15-5.93 22.57-7.38 1.38-14.94 2.17-22.03 4.77-4.76 1.73-9.86 3.82-12.76 8.21-1.76 2.19-2.8 5.45-5.87 6.09-5.99 1.89-12.99 3.97-15.98 10.07-3.3 7.28.78 14.91 2.87 21.92 3.94 10.97 2.86 22.78 4.26 34.16 1.12 9 1.85 18.56 7.13 26.28-.12-6.56-2.6-12.82-2.53-19.42-2.19-14.86-.57-30.38-5.99-44.66-1.66-5.32-4.55-11.19-2.16-16.73 2.94-5.17 9.24-6.64 14.49-8.32 1.53 2.6 2.57 5.72 5.09 7.57 3.98 1.95 8.78.53 12.8 2.25 5.53 4.92 7.39 13.06 13.87 17.1 5.53 3.72 12.82 3.18 18.59.32 9.37-4.24 18.64-11.24 29.5-9.6 9.3 1.93 18.37 6.02 28.07 5.29 4.31-.46 9.15-1.6 11.83-5.32 2.22-3.15 1.82-7.21 2.03-10.85 6.48 2.8 12.97 5.69 19.87 7.33 14.13 3.73 28.84 3.71 43.31 4.92 2.11.34 5.28.06 5.97 2.7 2.83 8.94 1.93 18.71-.48 27.66-1.35 5.01-3.43 9.79-4.8 14.8 7.17-5.54 9.41-14.81 10.38-23.37.5-6.15.62-12.44-.76-18.48-.6-2.59-1.87-5.61-4.78-6.18-6.36-1.56-12.97-1.46-19.47-1.85-16.8-.85-33.95-3.6-48.81-11.89-3.7-2.25-5.37-6.58-8.82-9.12-5.84-4.41-15.49-4.83-20.05 1.67 5.27-.4 10.96-2.1 15.99.34 6.34 3.29 9.35 11.25 8.14 18.09-.89 3.36-4.51 4.89-7.65 5.34-9.38 1.39-18.43-2.13-27.31-4.54-9.99-2.55-19.76 2.25-28.32 6.88-5.5 3.01-12.06 6.23-18.36 3.71-7.48-3.53-9.38-12.52-15.2-17.77-4.19-3.05-9.75-2.16-14.61-2.66-1.02-4.4-2.11-10.15 2.2-13.2 8.13-6.29 18.75-7.78 28.65-9.2-2.12 4.91-4.89 9.51-6.86 14.49 3.75-2.37 6.74-5.79 8.82-9.7 6.77-12.04 6.41-26.71 13.28-38.69 3.45-6.1 10-9.16 15.71-12.7-2.31-5.36-5.93-10.5-5.83-16.57-.16-8.2 5.14-15.06 6.83-22.86-6.14 4.92-9 12.57-10.95 19.93-8.15-12.22-16.95-24.29-28.59-33.45-11.61-9.59-26.42-15.78-41.65-15.14 4.15-8.95 11.18-16.17 18.68-22.41 9.65-7.56 22.27-12.19 34.6-10.1 14.79 1.62 28.27 10.04 37.58 21.46 5.27 6.05 9 13.22 12.41 20.43 5.28-1.52 9.84-4.66 14.67-7.15 15.34-7.77 31.02-15.34 47.87-19.17 7.1-2.09 14.63-2.14 21.64-4.57-3.57-1.1-7.31-.79-10.96-.53-10.23.76-20.34 3.13-29.87 6.94-14.29 5.46-27.91 12.47-41.37 19.69-6.04-12.76-14.96-24.48-27.02-32.05-4.45-2.97-9.47-4.85-14.31-7.05 23.3-3.99 47.16-4.18 70.69-2.3 21.26 2.02 42.4 6.19 62.54 13.39 17.28 6.07 34.3 13.78 48.54 25.5 6.66 5.73 12.92 12.32 16.66 20.38 1.49 2.77.33 5.88-.53 8.64-2.84 8.57-5.28 17.5-4.87 26.62 2.53-5.1 3.6-10.74 5.42-16.1 6.29-19.14 12.87-38.24 21.47-56.48 4.02-8.81 8.83-17.35 11.2-26.81 3.76-13.97 3.05-28.57 2.55-42.88.05-10.32-1.35-20.64-.22-30.95.88-22.95 8.23-45.13 17.99-65.75 6.41-13.08 13.75-25.81 23.06-37.06m-.61 25.27c-3.27 9.45-5.14 19.32-7.01 29.12-2.16 12.39-4.08 24.86-4.79 37.43-.25 10.34-.15 20.68.09 31.01.95 13.33 1.06 26.7.84 40.06-.62 15.84-3.87 32.22-13.21 45.37-7.3 10.21-14.36 20.6-20.5 31.55-5.01 9.27-10.62 18.39-13.4 28.64-1.36 4.33-3.29 8.54-3.46 13.15 1.29-1.29 2.42-2.76 3.07-4.49 3.46-8.86 7.42-17.55 12.05-25.87 6.97 7.31 4.62 17.99 6.21 27.03 3.87-4.72 1.88-11.3 3.47-16.61 4.01-2.29 8.6-3.39 13.13-4.13 4.87-.8 10.62.34 13.49 4.74 4.49 7.13 3.35 16.83-1.66 23.42-6.49 8.77-16.85 13.26-24.82 20.44 3.57.02 6.7-1.91 9.78-3.48 8.1-4.42 16.17-10.04 20.49-18.46 3.89-7.45 3.98-16.9-.59-24.08-2.67-4.29-7.8-6.36-12.69-6.56-6.48-.29-12.64 2.06-18.65 4.2-1.76-3.76-3.8-7.36-6.03-10.85 3.03-7.13 9.27-12.03 15.5-16.26 4.86-3.08 10.25-5.89 16.13-6.07 6.35-.06 11.71 4 16.03 8.25 4.88 4.61 8.02 10.75 13.13 15.15-1.18-5.72-4.36-10.82-7.97-15.31-5.42-6.16-12.62-11.88-21.19-12.02-7.85.42-15.01 4.23-21.17 8.88 6.25-11.2 15.58-20.55 20.15-32.7 8.61-21.58 6.63-45.3 6.12-68.01-1.7-23.42-.88-47.06 3.59-70.15 13.86 22.04 20.72 47.49 26.14 72.71 1.36 5.86 2.05 11.89 4.04 17.59 1.89-11.23-1.09-22.48-3.74-33.33-4.67-19.88-11.46-39.4-21.97-56.98-1.49-2.62-3.69-5.33-2.85-8.55 1.53-8.67 3.72-17.23 6.3-25.65 1.47-5.01 4.26-9.63 4.79-14.91-4.29 4.37-6.35 10.28-8.84 15.73m-144.67 214.56c-17.51 3.66-35.47 7.47-50.86 17.06-13.11 7.52-24.01 18.3-37.15 25.76-2.76 1.47-6.44 1.29-8.73-.97-4.36-4.15-6.94-10.75-5.01-16.66 1.75-5.86 5.94-10.64 10.55-14.5 3.63-3.1 8.23-5.13 10.98-9.18-4.4.57-8.75 2.08-12.13 5.04-5.48 4.59-10.78 10.02-12.94 17.01-2.62 7.81.64 16.81 6.87 21.96 2.39 2.01 5.67 1.95 8.62 2.23 1.8 4.84 4.16 9.6 7.95 13.21 9.15 9.04 21.77 13.31 34.09 15.92 15.66 2.85 31.97 4.79 47.64.99 11.57-2.74 22.16-9.18 30.14-17.95 12.77-14.23 19.5-33.04 21.35-51.88.02-2.98.53-6.44-1.37-8.98-2.8-2.87-7.1-3.33-10.89-3.55-13.18-.52-26.23 1.98-39.11 4.49m99.21 78.19c-5.34 3.12-11.04 7.33-12.19 13.84-.97 7.48.85 14.98 3.03 22.1 1.25 4.36 3.94 8.18 7.35 11.14-1.14-6.83-4.5-13.04-5.7-19.86-1.14-5.69-2.82-12.62 1.34-17.49 7.13-8.09 18.7-10.01 26.08-17.86-7.09 1.4-13.64 4.65-19.91 8.13m-282.99 52.88c2.59.22 5.33.74 7.81-.29 3.18-1.38 7.12-3.95 5.4-7.95-4.31 2.89-8.58 5.86-13.21 8.24m10.77 5.22c2.4 7.2 7.21 13.4 9.1 20.8 3.67 12.76 7.2 25.62 8.89 38.82.57 4.5 1.67 9.89 6.45 11.72 12.47 4.92 26.47 4.23 39.25.89 7.02-1.82 13.71-5.01 19.33-9.63 9.49-7.8 17.79-16.93 25.53-26.44 5.81-6.57 11.25-13.47 16.52-20.48 2.34-2.99 3.73-6.87 7.19-8.82 3.63-2.21 7.34-4.98 11.79-4.99 3.99-.36 7.98.26 11.77 1.54-.05-.52-.16-1.56-.21-2.08-3.3-1.58-6.66-3.4-10.41-3.42-4.86-.29-9.3 2.12-13.25 4.66-7.11 4.64-14.26 9.26-21.72 13.32-6.97 3.77-13.67 8.17-21.21 10.75-13.62 5.16-28.44 5.33-42.8 4.63-9.47-.75-19.38-2.02-27.64-7.04-8.28-7.98-11.44-19.64-18.75-28.41-.04 1.38-.23 2.81.17 4.18m-3.21 65.73c.5 8.28 2.66 17.41 9.4 22.89 5.43 4.39 12.76 4.02 19.32 4.83 16.17 2.01 32.22 7.35 48.68 5.15 9.21-1.23 17.1-6.88 23.61-13.2 5.92-5.65 11.27-12.58 12.46-20.9-2.34 2.49-4.24 5.34-6.29 8.07-6.97 8.97-15.34 17.84-26.42 21.44-14.82 3.58-29.85-.87-44.47-3.3-6.42-1.3-13.02-1.23-19.41-2.59-6.2-1.52-10.07-7.5-11.56-13.35-2.48-7.71-1.19-15.85-1.88-23.76-3.36 4.04-3.41 9.72-3.44 14.72z" fill="#84a463" stroke="#84a463"/><path d="m831.96 620.29c19.04 4.02 37.84 9.12 56.64 14.17-.05.25-.15.74-.19.98-22.16 6.09-41.93 18.43-60.78 31.23-22.27 15.35-43.11 32.68-63.3 50.64-20.43 17.87-39.12 37.61-59.42 55.6-20 16.9-41.8 32.31-66.54 41.42-14.16 5.06-29.36 7.99-44.42 6.42-19.72-1.58-38.5-11.37-51.51-26.19-2.15-2.15-2.71-5.24-2.81-8.15-.51-11.31-.49-22.64.01-33.94 4.96.24 9.96-.48 14.89.07 3.16 2.15 5.8 5.17 9.55 6.37 11.44 4.35 23.92 1.64 35.27-1.62 13.92-4.41 27.51-10.23 39.78-18.21 3.66-2.27 6.78-5.33 10.54-7.44 5.15-1.73 10.9-1.48 15.74-4.22 5.07-2.32 8.33-7.08 13-9.96 26.73-14.54 51.67-33.91 68.45-59.63 5.13-7.91 8.98-16.54 12.93-25.07 10.79 9.1 24.95 14.55 39.16 13.27 7.96-.75 15.9-3.74 21.65-9.43 4.92-4.55 8.37-10.38 11.36-16.31z" fill="#84a463" stroke="#84a463"/><path d="m411.36 671.4c24.51-22.32 56.75-36.84 90.12-37.61-9.16 12.27-18.23 24.67-25.44 38.23-19.62 35.38-31.44 74.82-36.4 114.89-4.69 41.89 3.6 84.21 17.95 123.51 9.36 24.88 20.77 49.12 35.04 71.58h-155.7c-1.75-23.27-2.68-46.7-.74-69.98 1.69-20.92 7.85-41.36 17.53-59.95 1.84 4.88 3.38 10.01 6.69 14.15-.22-7.81-3.9-14.95-5.06-22.61-5.79-24.01-6.4-49.33-1.05-73.47 4.4-20.83 13.03-40.59 24.1-58.71 9.2-14.69 20.03-28.45 32.96-40.03z" fill="#84a463" stroke="#84a463"/><path d="m954.43 658.39c3.22-2.23 7-.21 10.24.88 11.74 4.65 23.82 8.47 35.33 13.68v309.05h-85.06c-7.81-14.82-14.31-30.31-19.8-46.12-13.58-38.96-20.88-80.54-17.81-121.84 1.49-21.36 6.4-42.34 12.93-62.69 6.3-19.34 14.68-38.1 25.99-55.05 10.09-14.91 22.51-28.75 38.18-37.91z" fill="#84a463" stroke="#84a463"/><path d="m856.56 249.44c2.49-5.45 4.55-11.36 8.84-15.73-.53 5.28-3.32 9.9-4.79 14.91-2.58 8.42-4.77 16.98-6.3 25.65-.84 3.22 1.36 5.93 2.85 8.55 10.51 17.58 17.3 37.1 21.97 56.98 2.65 10.85 5.63 22.1 3.74 33.33-1.99-5.7-2.68-11.73-4.04-17.59-5.42-25.22-12.28-50.67-26.14-72.71-4.47 23.09-5.29 46.73-3.59 70.15.51 22.71 2.49 46.43-6.12 68.01-4.57 12.15-13.9 21.5-20.15 32.7 6.16-4.65 13.32-8.46 21.17-8.88 8.57.14 15.77 5.86 21.19 12.02 3.61 4.49 6.79 9.59 7.97 15.31-5.11-4.4-8.25-10.54-13.13-15.15-4.32-4.25-9.68-8.31-16.03-8.25-5.88.18-11.27 2.99-16.13 6.07-6.23 4.23-12.47 9.13-15.5 16.26 2.23 3.49 4.27 7.09 6.03 10.85 6.01-2.14 12.17-4.49 18.65-4.2 4.89.2 10.02 2.27 12.69 6.56 4.57 7.18 4.48 16.63.59 24.08-4.32 8.42-12.39 14.04-20.49 18.46-3.08 1.57-6.21 3.5-9.78 3.48 7.97-7.18 18.33-11.67 24.82-20.44 5.01-6.59 6.15-16.29 1.66-23.42-2.87-4.4-8.62-5.54-13.49-4.74-4.53.74-9.12 1.84-13.13 4.13-1.59 5.31.4 11.89-3.47 16.61-1.59-9.04.76-19.72-6.21-27.03-4.63 8.32-8.59 17.01-12.05 25.87-.65 1.73-1.78 3.2-3.07 4.49.17-4.61 2.1-8.82 3.46-13.15 2.78-10.25 8.39-19.37 13.4-28.64 6.14-10.95 13.2-21.34 20.5-31.55 9.34-13.15 12.59-29.53 13.21-45.37.22-13.36.11-26.73-.84-40.06-.24-10.33-.34-20.67-.09-31.01.71-12.57 2.63-25.04 4.79-37.43 1.87-9.8 3.74-19.67 7.01-29.12z" fill="#010102" stroke="#010102"/><path d="m248.82 355.81c3.04-2.89 6.8-5.37 11.14-5.45 10.2-.43 20.67.7 30.2 4.51 5.34 2.55 11.22 6.16 12.77 12.28-9.27 3.01-19.02 4.26-28.68 5.38-11.25 1.5-22.83-.55-33.14-5.23.73-4.79 4.37-8.3 7.71-11.49m9.49-1.38c-2.29.2-3.93 1.99-5.64 3.32 4.8-.33 9.46-1.76 14.29-1.89 5.74-.18 11.45.67 17.18.88-8.39-2.32-17.17-3.18-25.83-2.31m7.7 12.33c-4.59.14-8.52-2.52-11.85-5.37-3.02.66-6.5.86-8.33 3.73 6.39 2.66 13.29 3.92 20.19 4.14 10.57-.57 21.1-2 31.45-4.28-.93-1.2-1.88-2.36-2.83-3.52-4.67.32-9.25-.65-13.85-1.24-3.5 4.48-9.06 7.14-14.78 6.54z" fill="#010102" stroke="#010102"/><path d="m255.7 532.72c5.32-2.92 8-8.81 13.15-11.94-.67 6.56-5.57 11.76-10.94 15.09-9.51 5.78-20.75 7.71-31.69 8.58-18.02 1.02-36.81.39-53.52-7.16-6.44-3.11-13.13-6.92-16.77-13.34 6.02 1.8 10.73 6.22 16.33 8.9 13.79 6.9 29.54 8.26 44.74 8.24 13.19-.41 27.09-1.47 38.7-8.37z" fill="#010102" stroke="#010102"/><path d="m492 251.02c1.37-1.98 3.73-2.74 5.85-3.64.46 3.32.8 6.65 1.08 9.99 1.47-.24 2.95-.49 4.43-.73-3.3 3.92-7.05 7.44-10.4 11.31-11.61 12.84-20.65 27.65-29.61 42.37 5.09-16.49 12.46-32.16 20.76-47.25 2.46-4.12 4.93-8.26 7.89-12.05z" fill="#d29f3e" stroke="#d29f3e"/><path d="m244.61 300.68c4.87-4.03 9.74-8.91 16.33-9.69-6.28 5.36-12.1 11.21-18.27 16.68-11.81 11.17-18.46 26.59-30.52 37.53 1.57-4.19 4.01-7.96 6.3-11.77 7.46-11.82 15.43-23.61 26.16-32.75z" fill="#000204" stroke="#000204"/><path d="m203.36 333.35c1.11-6.3 6.12-11.71 12.65-12.33-2.28 3.03-5.22 5.54-7.3 8.73-2.79 4.75-2.02 10.42-2.31 15.68-2.99-3.21-4.58-7.81-3.04-12.08z" fill="#000204" stroke="#000204"/><path d="m599.09 346.17c41.45-20.61 88.88-29.67 134.95-24.15 25.49 3.2 50.57 10.59 73.33 22.6 2.12 1.2 5 2.45 4.88 5.37.68 10.33.52 20.7.5 31.05-.23 12.36-3.48 24.59-9.16 35.56-7.48 14.74-13.31 30.23-19.35 45.59-9.27-16.62-25.33-27.97-42.01-36.29-33.55-16.53-71.01-24.09-108.24-25.16-19.67-.43-39.37 1.06-58.75 4.48-5.07.83-10.23.1-15.29.88-9.99 1.37-19.28 6.19-26.91 12.67-3.83 3.2-7.23 6.87-10.57 10.56 1.25-3.38 2.55-6.75 3.86-10.11 14.03-32.42 41.59-57.34 72.76-73.05z" fill="#da4e55" stroke="#da4e55"/><path d="m913.6 429.59c1.66-6.17 2.73-12.51 4.92-18.52 11.34 5.9 20.6 14.89 29.49 23.92 15.6 16.21 33.54 29.95 51.99 42.73v113.94c-19.21 1.22-38.48 1.42-57.72.77-33.27-1.6-66.36-6.04-99.13-11.95.97-9.83 2.26-19.85 6.32-28.96 5.92-13.35 15.22-24.74 23.36-36.74 10.05-14.03 19.44-28.64 26.44-44.46 5.8-13.18 10.66-26.8 14.33-40.73z" fill="#da4e55" stroke="#da4e55"/><path d="m480.62 671.66c7.86-13.33 16.04-26.72 26.8-37.94.73 6.01 1.76 11.98 3.03 17.9 1.37 5.34-2.39 9.97-4.2 14.69-11.87 27.57-21.04 56.4-26.22 85.99-3.88 22.31-5.22 45.22-2.15 67.71 4.09 32.07 13.83 63.17 26.27 92.92 10.07 23.87 21.9 47.03 35.51 69.07h-42.88c-25.24-41.55-44.6-87.32-52-135.57-2.79-17.41-3.09-35.11-2.05-52.68 4.3-42.65 16.81-84.69 37.89-122.09z" fill="#da4e55" stroke="#da4e55"/><path d="m852.37 655.41c12.55-7.12 25.64-13.91 39.87-16.91 8.05-2.05 15.74 1.9 23.33 4.01 12.24 4.13 24.67 7.76 36.7 12.51-18.32 11.42-32.81 28.01-43.83 46.42-9.89 16.6-17.52 34.49-23.1 52.98-7.35 23.5-11.94 47.93-12.55 72.58-.72 43.55 8.93 86.85 25.12 127.14 4.12 9.38 7.6 19.15 13.08 27.86h-9.39c-9.65-13.27-17.96-27.47-25.85-41.85-15.61-29.05-26.89-60.16-37.66-91.25-1.95-5.02-4.61-9.76-7.82-14.07 1.25 8.23 4.68 15.89 7.23 23.77 6.5 19.29 13.87 38.28 22.04 56.93 10.23 23.3 22.95 45.46 37.28 66.47h-280.55c-5.8-7.09-10.87-14.75-16.07-22.28-15.27-22.55-28.82-46.34-39.37-71.46-11.81-28.2-18.2-58.56-20.16-89 2.09 1.56 4.12 3.24 6.1 4.96 12.5 11.26 28.62 18.53 45.37 20.22 13.49 1.8 27.21-.39 40.2-4.11 29.2-8.88 54.52-26.88 77.37-46.61 8.2-7.12 15.78-14.91 23.74-22.28 17.82-17.56 36.45-34.29 55.56-50.44 19.99-16.68 40.88-32.39 63.36-45.59z" fill="#da4e55" stroke="#da4e55"/><path d="m270.48 339.86c14.33-1.88 29.1-1.92 43.21 1.5 6.21 1.63 12.77 3.86 17 8.97 2.61 2.91 2.91 7.71.44 10.8-3.56 4.73-9.21 7.16-14.55 9.29-12.37 4.71-25.48 7.09-38.54 8.84-13.86 1.09-28.48.89-41.3-5.11-4.6-2.3-9.51-6.32-9.53-11.92-.26-6.07 5.09-10.3 9.85-13.04 10.3-5.49 21.97-7.71 33.42-9.33m9.97 2.76c-14.26 1.36-28.96 3.27-41.8 10.04-3.36 2.05-7.71 4.78-7.49 9.28-.25 4.62 4.2 7.32 7.82 9.08 11.76 5.54 25.11 5.1 37.79 4.56 11.71-1.32 23.36-3.63 34.59-7.27 5.57-1.97 11.4-4.04 15.74-8.2 2.37-2.08 2.36-6.16-.02-8.22-4.04-3.83-9.51-5.64-14.79-7.01-10.41-2.37-21.19-3.09-31.84-2.26z" fill="#000103" stroke="#000103"/><path d="m148.38 341.34c11.18-1.52 23.2-.49 33.22 5.02 5.62 3.24 11.41 8.56 11.11 15.61-.1 5.82-5.9 9.05-10.58 11.13-14.31 5.67-29.92 6.54-45.12 7.14-11.15-.51-22.47-.98-33.24-4.17-3.88-1.18-7.83-3.1-10.09-6.62-.99-2.81-.59-6.1 1.3-8.45 3.57-4.66 8.84-7.63 14.15-9.89 12.49-5.25 25.86-8.06 39.25-9.77m-3.96 4.32c-13.87 2.33-28.11 5.16-40.38 12.39-3.07 2.02-7.27 4.55-6.85 8.8-.08 2.47 2.75 3.35 4.52 4.38 9.56 3.96 20.1 4.36 30.29 5 13 .28 26.1-.58 38.8-3.45 4.99-1.25 10.09-2.68 14.39-5.61 1.74-1.25 3.71-2.9 3.58-5.27.42-4.96-3.7-8.69-7.44-11.22-10.89-6.97-24.55-7.1-36.91-5.02z" fill="#000103" stroke="#000103"/><g fill="#bf916a" stroke="#bf916a"><path d="m280.45 342.62c10.65-.83 21.43-.11 31.84 2.26 5.28 1.37 10.75 3.18 14.79 7.01 2.38 2.06 2.39 6.14.02 8.22-4.34 4.16-10.17 6.23-15.74 8.2-11.23 3.64-22.88 5.95-34.59 7.27-12.68.54-26.03.98-37.79-4.56-3.62-1.76-8.07-4.46-7.82-9.08-.22-4.5 4.13-7.23 7.49-9.28 12.84-6.77 27.54-8.68 41.8-10.04m-31.63 13.19c-3.34 3.19-6.98 6.7-7.71 11.49 10.31 4.68 21.89 6.73 33.14 5.23 9.66-1.12 19.41-2.37 28.68-5.38-1.55-6.12-7.43-9.73-12.77-12.28-9.53-3.81-20-4.94-30.2-4.51-4.34.08-8.1 2.56-11.14 5.45z"/><path d="m144.42 345.66c12.36-2.08 26.02-1.95 36.91 5.02 3.74 2.53 7.86 6.26 7.44 11.22.13 2.37-1.84 4.02-3.58 5.27-4.3 2.93-9.4 4.36-14.39 5.61-12.7 2.87-25.8 3.73-38.8 3.45-10.19-.64-20.73-1.04-30.29-5-1.77-1.03-4.6-1.91-4.52-4.38-.42-4.25 3.78-6.78 6.85-8.8 12.27-7.23 26.51-10.06 40.38-12.39m-11.13 10.62c-4.14 2.26-8.86 4.18-11.49 8.33 7.47 4.7 16.17 7.13 24.79 8.68 10.83 1.79 21.89-1.11 31.35-6.39 1-.62 2.05-1.29 2.68-2.32.42-5.77-3.83-11.24-9.27-12.92-12.58-4.3-26.51-1.29-38.06 4.62z"/><path d="m197.05 383.01c5.4-4.25 11.8-8.31 18.97-7.85 7.7.07 13.9 5.65 18.76 11.06 8.6 9.56 14.47 21.1 20.28 32.46-5.62.06-12.54-.77-16.31 4.4 6.46-.19 14.26-2.67 19.23 2.97 2.98 4.61 4.52 9.98 6.66 15.01-3.68 3.81-8.25 7.38-13.78 7.56-6.78.45-12.08-5.58-18.88-4.91-6.57 1.11-10.41 7.94-17.04 8.92-3.69.32-7.49.43-11.11-.48-7.53-2.16-13.66-8.3-21.82-8.44-7.27-.46-13.56 4.84-20.83 4.02-2.58 0-3.68-2.8-4.25-4.88-.98-3.12.62-6.18 2-8.89 3.79-7.96 11.83-13.54 20.52-14.74-3.16-3.17-7.77-1.89-11.47-.63 8.36-12.84 17.15-25.74 29.07-35.58z"/><path d="m153.01 445.07c1.96 2.84 4.19 6.47 8.08 6.57 7.68 1.02 14.26-4.94 21.94-3.99 6.34.72 11.29 5.18 17.14 7.29 6.95 2.49 15.28 2.89 21.81-.99 3.73-2.05 6.63-5.89 11.02-6.53 5.95.53 10.82 5.24 16.99 4.96 6.21.3 11.6-3.32 16.23-7.03 3.34 8.15 6.4 16.44 8.76 24.93-15.12 5.85-30.58 11.19-46.72 13.38-18.55 2.86-37.48 1.09-55.83-2.34-11.21-2.17-22.33-4.93-33.14-8.65 4.58-9.2 8.92-18.51 13.72-27.6z"/><path d="m269.14 490.18c2.68-5.3 4.65-10.92 7.29-16.23 7.39 22.1 13.52 44.61 19.36 67.17 1.18 2.85-.13 5.7-1.51 8.21-6.84 12.77-13.97 25.53-23.24 36.74-5.23 6.62-13.93 8.49-21.77 10.09-18.28 3.14-37 3-55.39.93-9.33-1.21-18.71-2.92-27.46-6.52-6.04-2.43-10.97-6.9-15.26-11.69-12.78-14.39-22.91-30.86-32.59-47.42-.97-1.85-2.57-3.94-1.34-6.06 6.37-16.67 13.25-33.15 20.78-49.32 4.68 5.36 8.55 11.37 13.04 16.89 6.14 7.15 12.34 14.29 19.42 20.54 4.78 4.21 10.16 8.31 16.62 9.33 12.24 2.02 24.76 2.13 37.11 1.1 9.54-1.38 20.03-2.53 27.55-9.18 7.34-6.98 12.33-15.92 17.39-24.58m-13.44 42.54c-11.61 6.9-25.51 7.96-38.7 8.37-15.2.02-30.95-1.34-44.74-8.24-5.6-2.68-10.31-7.1-16.33-8.9 3.64 6.42 10.33 10.23 16.77 13.34 16.71 7.55 35.5 8.18 53.52 7.16 10.94-.87 22.18-2.8 31.69-8.58 5.37-3.33 10.27-8.53 10.94-15.09-5.15 3.13-7.83 9.02-13.15 11.94m-40.6 37.99c.36 6.03 2.52 11.8 2.47 17.92 4.37-5.24 3.59-14.3-2.47-17.92z"/></g><path d="m138.81 357.75c10.71-4.41 23.48-6.54 34.28-1.24-4.37-.13-8.72-.79-13.09-.7-7.1.2-14.1 1.69-21.19 1.94z" fill="#b48f6c" stroke="#b48f6c"/><path d="m258.31 354.43c8.66-.87 17.44-.01 25.83 2.31-5.73-.21-11.44-1.06-17.18-.88-4.83.13-9.49 1.56-14.29 1.89 1.71-1.33 3.35-3.12 5.64-3.32z" fill="#b48f6c" stroke="#b48f6c"/><g fill="#f3f3f3" stroke="#f3f3f3"><path d="m168.29 360.18c2.88.53 8.23-1.22 8.55 3-6.45 3.37-13.38 6.42-20.77 6.58-9.73.55-19.27-2.34-28.2-5.94 5.71-.14 11.15-2.3 16.84-2.5 3.53 1.96 6.96 4.61 11.24 4.44 4.86.65 9.36-1.9 12.34-5.58z"/><path d="m266.01 366.76c5.72.6 11.28-2.06 14.78-6.54 4.6.59 9.18 1.56 13.85 1.24.95 1.16 1.9 2.32 2.83 3.52-10.35 2.28-20.88 3.71-31.45 4.28-6.9-.22-13.8-1.48-20.19-4.14 1.83-2.87 5.31-3.07 8.33-3.73 3.33 2.85 7.26 5.51 11.85 5.37z"/><path d="m145.07 478.77c10.19 2.53 20.35 5.23 30.73 6.97-.7 4.4-1.47 8.81-1.55 13.28-6.23-1.53-12.15-4.27-17.64-7.56-5.08-2.94-8.06-8.18-11.54-12.69z"/><path d="m215.27 488.65c11.61-.34 23.04-2.72 34.27-5.53.03 4.62.85 9.2.66 13.82-.19.36-.58 1.09-.78 1.45-10.51 4.56-22.14 6.6-33.58 6.34-.21-5.36-.69-10.71-.57-16.08z"/><path d="m179.59 486.39c10.52 1.93 21.22 2 31.82 2.96.22 5.15.42 10.31.43 15.48-11.35.35-22.69-1.2-33.62-4.25-.18-4.77.25-9.55 1.37-14.19z"/><path d="m520.19 497.58c6.22-.96 12.51-.12 18.43 1.9-.22 4.97-.01 11.15 4.98 13.84 5.73 3.21 12.03-.85 15.92-5.09 8.23 2.61 16.52 5.08 25 6.77-1.94 2.52-3.59 5.31-5.96 7.46-14.52 2.83-29.94 2.59-44.08-2.03-9.47-3.2-14.01-13.47-14.29-22.85z"/><path d="m160.2 497.96c4.47 1.92 9.12 3.43 13.52 5.48 1.3 2.64.78 5.88 1.03 8.78-5.25-4.32-9.86-9.35-14.55-14.26z"/><path d="m216.28 508.77c11.43-.33 22.92-2.16 33.58-6.41-.26 3.32-.41 6.74-1.64 9.89-1.33 2.06-3.77 3.01-5.93 3.95-8.23 2.79-16.92 4.18-25.59 4.47-.15-3.97-.41-7.93-.42-11.9z"/><path d="m178.18 504.4c11.13 3.1 22.7 4.44 34.24 4.36.29 3.97.34 7.94.4 11.92-8.35.32-16.71-.23-24.97-1.48-2.81-.51-5.52-1.58-7.87-3.2-1.49-3.67-1.64-7.7-1.8-11.6z"/><path d="m626.32 509.17c2.21.81 4.35 1.95 6.73 2.18 10.47 1.33 20.99 2.51 31.55 2.48 2.01 4.55 4.9 9.8 10.36 10.55 7.09 1.37 12.63-5.62 13.04-12.14 8.39-.38 16.53 2.42 24.01 5.96-4.39 7.23-11.57 13.36-20.2 14.39-5.43.45-10.93.19-16.27-.85-15.72-2.43-30.83-7.71-45.52-13.66-2.91-1.83-3.85-5.66-3.7-8.91z"/><path d="m646.81 623.82c3.08-5.15 9.28-6.7 13.98-9.95-8.5 11.04-17.09 22.11-26.82 32.1-2.98-.98-2.35-5.46-3.47-7.98 5.67-4.43 11.66-8.61 16.31-14.17z"/><path d="m553.1 625.56c6.45 6.4 16.05 7.4 24.55 9.06-.67 4.09-1.08 8.22-1.4 12.35-6.43-.24-12.68-2.13-18.63-4.48-1.44-5.66-2.73-11.37-4.52-16.93z"/><path d="m611.54 634.77c4.95-.6 9.73-2.11 14.67-2.76.08 1.36.16 2.73.25 4.1-4.84 3.06-9.89 5.81-15.25 7.85-.04-3.08.08-6.14.33-9.19z"/><path d="m580.77 647.96c-1.37-4.01.12-8.65.7-12.8 8.76.67 17.55.79 26.31.1-.26 3.45-.49 6.92-1.11 10.35-8.39 2.35-17.23 3.23-25.9 2.35z"/><path d="m558.77 647.2c5.71 1.64 11.5 2.99 17.35 4.06.21 6.56.43 13.13 1.55 19.6-5.37-.18-11.47-.97-15.49-4.83-2.08-6.02-2.23-12.58-3.41-18.83z"/><path d="m580.25 651.56c8.64.63 17.45.42 25.83-1.97.25.25.74.73.99.98.53 5.19 1.23 10.39 2.61 15.45-7.51 3.21-15.6 4.85-23.74 5.29-1.45-.18-3.28.56-4.44-.55-1.43-6.29-1.34-12.79-1.25-19.2z"/></g><path d="m517 435.02c1.82-6.72 3.88-13.4 6.91-19.68 1 1.13 2.47 2.16 2.42 3.88-1.31 3.36-2.61 6.73-3.86 10.11 3.34-3.69 6.74-7.36 10.57-10.56 1.46.42 2.92.86 4.39 1.3-7.5 6.24-14.53 13.46-18.68 22.41 15.23-.64 30.04 5.55 41.65 15.14 11.64 9.16 20.44 21.23 28.59 33.45 1.95-7.36 4.81-15.01 10.95-19.93-1.69 7.8-6.99 14.66-6.83 22.86-.1 6.07 3.52 11.21 5.83 16.57-5.71 3.54-12.26 6.6-15.71 12.7-6.87 11.98-6.51 26.65-13.28 38.69-2.08 3.91-5.07 7.33-8.82 9.7 1.97-4.98 4.74-9.58 6.86-14.49-9.9 1.42-20.52 2.91-28.65 9.2-4.31 3.05-3.22 8.8-2.2 13.2 4.86.5 10.42-.39 14.61 2.66 5.82 5.25 7.72 14.24 15.2 17.77 6.3 2.52 12.86-.7 18.36-3.71 8.56-4.63 18.33-9.43 28.32-6.88 8.88 2.41 17.93 5.93 27.31 4.54 3.14-.45 6.76-1.98 7.65-5.34 1.21-6.84-1.8-14.8-8.14-18.09-5.03-2.44-10.72-.74-15.99-.34 4.56-6.5 14.21-6.08 20.05-1.67 3.45 2.54 5.12 6.87 8.82 9.12 14.86 8.29 32.01 11.04 48.81 11.89 6.5.39 13.11.29 19.47 1.85 2.91.57 4.18 3.59 4.78 6.18 1.38 6.04 1.26 12.33.76 18.48-.97 8.56-3.21 17.83-10.38 23.37 1.37-5.01 3.45-9.79 4.8-14.8 2.41-8.95 3.31-18.72.48-27.66-.69-2.64-3.86-2.36-5.97-2.7-14.47-1.21-29.18-1.19-43.31-4.92-6.9-1.64-13.39-4.53-19.87-7.33-.21 3.64.19 7.7-2.03 10.85-2.68 3.72-7.52 4.86-11.83 5.32-9.7.73-18.77-3.36-28.07-5.29-10.86-1.64-20.13 5.36-29.5 9.6-5.77 2.86-13.06 3.4-18.59-.32-6.48-4.04-8.34-12.18-13.87-17.1-4.02-1.72-8.82-.3-12.8-2.25-2.52-1.85-3.56-4.97-5.09-7.57-5.25 1.68-11.55 3.15-14.49 8.32-2.39 5.54.5 11.41 2.16 16.73 5.42 14.28 3.8 29.8 5.99 44.66-.07 6.6 2.41 12.86 2.53 19.42-5.28-7.72-6.01-17.28-7.13-26.28-1.4-11.38-.32-23.19-4.26-34.16-2.09-7.01-6.17-14.64-2.87-21.92 2.99-6.1 9.99-8.18 15.98-10.07 3.07-.64 4.11-3.9 5.87-6.09 2.9-4.39 8-6.48 12.76-8.21 7.09-2.6 14.65-3.39 22.03-4.77 2.35-7.42 4.15-14.99 5.93-22.57-11 1.49-22.11 3.91-33.24 2.37-10.76-1.08-21.65-4.82-29.48-12.55-11.34-11.06-19.73-25.34-23.01-40.9-1.65-9.09-1.03-19.66 5.59-26.75 3.99-4.6 9.88-6.61 15.44-8.58 3.9-1.11 4.92-5.5 6.08-8.86m3.62 53.5c-.18 1.63-.35 3.27-.52 4.92 8.57-.75 17.12.98 24.9 4.58 10.49 4.93 21.46 8.78 32.73 11.52 5.02 1.16 10.68 3.71 15.37.23-10.16-2.23-20.28-5.29-29.29-10.6-5.36-3.16-10.48-6.96-16.55-8.67-8.58-2.86-17.74-2.46-26.64-1.98m-.43 9.06c.28 9.38 4.82 19.65 14.29 22.85 14.14 4.62 29.56 4.86 44.08 2.03 2.37-2.15 4.02-4.94 5.96-7.46-8.48-1.69-16.77-4.16-25-6.77-3.89 4.24-10.19 8.3-15.92 5.09-4.99-2.69-5.2-8.87-4.98-13.84-5.92-2.02-12.21-2.86-18.43-1.9z" fill="#040205" stroke="#040205"/><path d="m711.89 464c12.88-2.51 25.93-5.01 39.11-4.49 3.79.22 8.09.68 10.89 3.55 1.9 2.54 1.39 6 1.37 8.98-1.85 18.84-8.58 37.65-21.35 51.88-7.98 8.77-18.57 15.21-30.14 17.95-15.67 3.8-31.98 1.86-47.64-.99-12.32-2.61-24.94-6.88-34.09-15.92-3.79-3.61-6.15-8.37-7.95-13.21-2.95-.28-6.23-.22-8.62-2.23-6.23-5.15-9.49-14.15-6.87-21.96 2.16-6.99 7.46-12.42 12.94-17.01 3.38-2.96 7.73-4.47 12.13-5.04-2.75 4.05-7.35 6.08-10.98 9.18-4.61 3.86-8.8 8.64-10.55 14.5-1.93 5.91.65 12.51 5.01 16.66 2.29 2.26 5.97 2.44 8.73.97 13.14-7.46 24.04-18.24 37.15-25.76 15.39-9.59 33.35-13.4 50.86-17.06m-32.85 39.29c-13.01 2.05-26.1 3.59-39.17 5.17 11.69 1 23.46 2.46 35.2 1.31 5-.32 9.91-1.68 14.96-1.37 8.41.11 16.38 3.15 24.07 6.28.89-2.23 1.76-4.46 2.59-6.71-5.4-2.71-10.92-5.43-16.89-6.57-6.98-.83-13.87 1.1-20.76 1.89m-52.72 5.88c-.15 3.25.79 7.08 3.7 8.91 14.69 5.95 29.8 11.23 45.52 13.66 5.34 1.04 10.84 1.3 16.27.85 8.63-1.03 15.81-7.16 20.2-14.39-7.48-3.54-15.62-6.34-24.01-5.96-.41 6.52-5.95 13.51-13.04 12.14-5.46-.75-8.35-6-10.36-10.55-10.56.03-21.08-1.15-31.55-2.48-2.38-.23-4.52-1.37-6.73-2.18z" fill="#040205" stroke="#040205"/><path d="m253.31 481.87c6.14-1.39 11.83-4.2 17.89-5.83-1.54 4-3.16 8.03-5.61 11.56-2.95 3.84-7.23 6.36-11.46 8.55-.55-4.74-.66-9.52-.82-14.28z" fill="#f3f3f2" stroke="#f3f3f2"/><path d="m520.62 488.52c8.9-.48 18.06-.88 26.64 1.98 6.07 1.71 11.19 5.51 16.55 8.67 9.01 5.31 19.13 8.37 29.29 10.6-4.69 3.48-10.35.93-15.37-.23-11.27-2.74-22.24-6.59-32.73-11.52-7.78-3.6-16.33-5.33-24.9-4.58.17-1.65.34-3.29.52-4.92z" fill="#9fa78a" stroke="#9fa78a"/><path d="m253.76 500.78c2.33-1.33 4.67-2.62 7.02-3.9-2.21 3.87-4.89 7.44-7.49 11.05.11-2.39.26-4.78.47-7.15z" fill="#eee" stroke="#eee"/><path d="m630.24 630.21c2.99-1.31 5.91-2.78 8.85-4.19-2.68 2.75-5.68 5.16-8.79 7.4-.02-.81-.05-2.41-.06-3.21z" fill="#eee" stroke="#eee"/><path d="m679.04 503.29c6.89-.79 13.78-2.72 20.76-1.89 5.97 1.14 11.49 3.86 16.89 6.57-.83 2.25-1.7 4.48-2.59 6.71-7.69-3.13-15.66-6.17-24.07-6.28-5.05-.31-9.96 1.05-14.96 1.37-11.74 1.15-23.51-.31-35.2-1.31 13.07-1.58 26.16-3.12 39.17-5.17z" fill="#9fa789" stroke="#9fa789"/><path d="m114.48 532.79c11.76 18.45 22.62 37.9 38.37 53.37 6.75 6.61 15.89 9.99 24.95 12.03 23.04 4.9 47.02 5.52 70.32 2.04 8.13-1.49 16.88-3.14 23.2-8.89 11.28-11.54 18.2-26.32 26.55-39.92 3.09 9.67 4.99 19.67 7.18 29.57.89 3.6.93 7.64 3.2 10.74 1.71.52 2.64-1.29 2.68-2.73.81-8.12.08-16.45 2.28-24.39 3.73 17.12.09 34.76-5.47 51.06-2.06 6.71-5.44 12.93-7.52 19.64 1.58-1.06 3.26-2.09 4.32-3.71 6.53-9.94 9.01-21.74 12.24-33 4 3.89 7.92 7.9 12.47 11.17 3.24 2.45 6.83 4.41 10.03 6.91 1.62 1.05 1.9 3.07 2.19 4.82.72 5.34.74 10.85 2.69 15.95 4.93-3.08 5.06-9.54 7.2-14.41 6.3 2.17 12.51 4.58 18.79 6.8 2.63.72 3.31 3.6 4.25 5.81 5.82 16.74 12.14 33.31 17.37 50.25-2.76 3.45-5.06 7.99-9.72 9.11-20.25 5.78-41.11 9.2-62.05 11.27-41.62 4.22-83.65 1.87-124.95-4.35-37.15-5.21-74.53-8.92-112.01-10.7-8.3-.96-16.67-.37-24.99-.77-2.9-1.38-4.65-4.13-5.31-7.19-3.2-12.71-9.21-24.43-14.66-36.28-.95-2.15-2.36-4.05-4.07-5.65-.04-1.11-.07-2.23-.06-3.33.58-4.66 1.7-9.29 3.39-13.67.4-1.78 2.38-1.78 3.78-2.21 6.31-1.24 12.53-2.82 18.78-4.29 3.43 8.1 6.05 16.54 9.79 24.5.6 1.77 2.58 1.84 4.13 2.14-.08-11.4.27-22.79.52-34.18 8.76-5.87 15.62-13.9 22.6-21.67 1.26 4.77 1.95 10.11 5.75 13.67-1.2-13-4.44-26.1-2.18-39.18 1.6-.81 3.48-1.57 3.98-3.49 3.44-8.9 6.24-18.05 9.99-26.84m150.17 88.84c-1.72 5.96-4.01 11.76-6.68 17.36-6.39 12.86-16.63 23.31-27.62 32.35-3.54 3.04-7.51 5.81-9.82 10 6.44-1.05 11-6.08 15.84-9.97 13.47-11.36 24.88-25.77 30.08-42.81 1.26-4.24 1.44-8.72 1.01-13.1-1.22 1.91-2.19 3.98-2.81 6.17z" fill="#4e783d" stroke="#4e783d"/><path d="m55.95 694.47c7.02-.11 14.04.01 21.04.45 39.84 1.47 79.53 5.64 119 11.07 23.85 3.62 47.91 5.69 72.01 6.32 33.47.39 67.06-2.38 99.78-9.57 1.12.24 2.25.5 3.37.79-5.94 7.28-13.03 13.6-18.06 21.61-11.21 14.43-19.31 30.95-26.21 47.79-10.75 29.58-14.22 62.13-7.84 93.08.67 3.28 2.07 6.47 2.16 9.86-.43 2.31-1.89 4.25-3.02 6.26-5.03 7.83-7.37 16.93-10.41 25.62-4.19 11.99-5.58 24.69-6.7 37.28-1.41 12.27-1.02 24.64-.98 36.97h-211.08c.22-20.41.85-40.9-1.81-61.19-2.82-25.18-9.24-49.8-17.26-73.79-5.22-15.16-10.18-30.45-16.71-45.13-2.01-4.98-4.58-9.74-6.17-14.88-1.14-3.8.71-7.58 1.76-11.17 4.78-15.09 7.8-30.75 8.69-46.56 1.09-11.63-.34-23.26-1.56-34.81m173.58 82.72c.04 5.38 1.59 10.56 2.51 15.81 2.11 12.51 3.25 25.23 2.53 37.92-1.97 24.1-7.21 47.79-13.52 71.09-2.1 7.99-4.85 15.8-6.6 23.89.7.28 2.11.85 2.81 1.13 3.46-7.45 5.11-15.55 7.41-23.39 6.14-22.5 11.2-45.38 13.48-68.61 1-18.21-.01-36.7-4.79-54.36-.3-1.99-1.95-3.14-3.83-3.48z" fill="#4e783d" stroke="#4e783d"/><path d="m215.1 570.71c6.06 3.62 6.84 12.68 2.47 17.92.05-6.12-2.11-11.89-2.47-17.92z" fill="#010000" stroke="#010000"/><path d="m528.11 595.07c4.63-2.38 8.9-5.35 13.21-8.24 1.72 4-2.22 6.57-5.4 7.95-2.48 1.03-5.22.51-7.81.29z" fill="#000202" stroke="#000202"/><path d="m538.88 600.29c-.4-1.37-.21-2.8-.17-4.18 7.31 8.77 10.47 20.43 18.75 28.41 8.26 5.02 18.17 6.29 27.64 7.04 14.36.7 29.18.53 42.8-4.63 7.54-2.58 14.24-6.98 21.21-10.75 7.46-4.06 14.61-8.68 21.72-13.32 3.95-2.54 8.39-4.95 13.25-4.66 3.75.02 7.11 1.84 10.41 3.42.05.52.16 1.56.21 2.08-3.79-1.28-7.78-1.9-11.77-1.54-4.45.01-8.16 2.78-11.79 4.99-3.46 1.95-4.85 5.83-7.19 8.82-5.27 7.01-10.71 13.91-16.52 20.48-7.74 9.51-16.04 18.64-25.53 26.44-5.62 4.62-12.31 7.81-19.33 9.63-12.78 3.34-26.78 4.03-39.25-.89-4.78-1.83-5.88-7.22-6.45-11.72-1.69-13.2-5.22-26.06-8.89-38.82-1.89-7.4-6.7-13.6-9.1-20.8m107.93 23.53c-4.65 5.56-10.64 9.74-16.31 14.17 1.12 2.52.49 7 3.47 7.98 9.73-9.99 18.32-21.06 26.82-32.1-4.7 3.25-10.9 4.8-13.98 9.95m-93.71 1.74c1.79 5.56 3.08 11.27 4.52 16.93 5.95 2.35 12.2 4.24 18.63 4.48.32-4.13.73-8.26 1.4-12.35-8.5-1.66-18.1-2.66-24.55-9.06m77.14 4.65c.01.8.04 2.4.06 3.21 3.11-2.24 6.11-4.65 8.79-7.4-2.94 1.41-5.86 2.88-8.85 4.19m-18.7 4.56c-.25 3.05-.37 6.11-.33 9.19 5.36-2.04 10.41-4.79 15.25-7.85-.09-1.37-.17-2.74-.25-4.1-4.94.65-9.72 2.16-14.67 2.76m-30.77 13.19c8.67.88 17.51 0 25.9-2.35.62-3.43.85-6.9 1.11-10.35-8.76.69-17.55.57-26.31-.1-.58 4.15-2.07 8.79-.7 12.8m33.86-1.35c-1.34.67-2.99 1.03-3.86 2.35.1 5.11 1.13 10.17 2.22 15.16 5.65-2.71 10.15-7.2 14.6-11.51.78-.91 1.92-1.61 2.27-2.81-.5-3.29-1.95-6.35-2.79-9.56-4.05 2.3-8.13 4.59-12.44 6.37m-55.86.59c1.18 6.25 1.33 12.81 3.41 18.83 4.02 3.86 10.12 4.65 15.49 4.83-1.12-6.47-1.34-13.04-1.55-19.6-5.85-1.07-11.64-2.42-17.35-4.06m21.48 4.36c-.09 6.41-.18 12.91 1.25 19.2 1.16 1.11 2.99.37 4.44.55 8.14-.44 16.23-2.08 23.74-5.29-1.38-5.06-2.08-10.26-2.61-15.45-.25-.25-.74-.73-.99-.98-8.38 2.39-17.19 2.6-25.83 1.97z" fill="#010101" stroke="#010101"/><path d="m0 601.28c7.42 10.42 13.1 22 17.99 33.8 6.46 15.09 9.81 31.51 9.8 47.93.6 24.96-5.01 49.73-13.72 73.01-2.3 6.36-5.45 12.4-7.34 18.92 4.86-5.12 8.4-11.25 11.57-17.5 1.54 2.91 3.03 5.85 4.31 8.89 8.5 21.22 16.69 42.62 22.65 64.71 9.11 28.74 13.65 58.81 14.38 88.92.6 20.77-1.56 41.46-4.06 62.04h-55.58z" fill="#024858" stroke="#024858"/><path d="m13.73 616.08c6.82 4.35 10.94 11.38 15.56 17.77.69-.87 1.39-1.74 2.05-2.61-1.36 5.77-2.67 11.55-4.25 17.26-3.57-11.16-8.35-21.85-13.36-32.42z" fill="#d2a03f" stroke="#d2a03f"/><path d="m264.65 621.63c.62-2.19 1.59-4.26 2.81-6.17.43 4.38.25 8.86-1.01 13.1-5.2 17.04-16.61 31.45-30.08 42.81-4.84 3.89-9.4 8.92-15.84 9.97 2.31-4.19 6.28-6.96 9.82-10 10.99-9.04 21.23-19.49 27.62-32.35 2.67-5.6 4.96-11.4 6.68-17.36z" fill="#000100" stroke="#000100"/><path d="m30.06 654.09c1.01-5.42 2.18-10.83 3.89-16.08-.01 1.1.02 2.22.06 3.33 1.71 1.6 3.12 3.5 4.07 5.65 5.45 11.85 11.46 23.57 14.66 36.28.66 3.06 2.41 5.81 5.31 7.19-8.72-.16-17.43.15-26.14-.12-.23-7.47-.12-14.97-1.09-22.39-.54-4.59-1.71-9.24-.76-13.86z" fill="#426935" stroke="#426935"/><path d="m31.82 694.56c8.04-.25 16.09-.06 24.13-.09 1.22 11.55 2.65 23.18 1.56 34.81-.89 15.81-3.91 31.47-8.69 46.56-1.05 3.59-2.9 7.37-1.76 11.17 1.59 5.14 4.16 9.9 6.17 14.88 6.53 14.68 11.49 29.97 16.71 45.13 8.02 23.99 14.44 48.61 17.26 73.79 2.66 20.29 2.03 40.78 1.81 61.19h-29.62c4.95-33.83 5.62-68.41.97-102.32-6.51-43.45-21.53-85.12-38.69-125.39-1.89-4.35.3-8.89 1.46-13.11 4.81-15.12 7.39-30.84 8.69-46.62z" fill="#426935" stroke="#426935"/><path d="m367.78 702.74c4.39-1.08 8.79-2.16 13.26-2.9-4.11 6.96-8.67 13.64-12.43 20.79-18.91 34.95-26.94 76.44-18.73 115.61.97 4.83 3.09 10.2.2 14.8-9.36 17.26-14.99 36.41-17.26 55.87-2.88 24.95-1.37 50.1.12 75.09h-32.85c-.04-12.33-.43-24.7.98-36.97 1.12-12.59 2.51-25.29 6.7-37.28 3.04-8.69 5.38-17.79 10.41-25.62 1.13-2.01 2.59-3.95 3.02-6.26-.09-3.39-1.49-6.58-2.16-9.86-6.38-30.95-2.91-63.5 7.84-93.08 6.9-16.84 15-33.36 26.21-47.79 5.03-8.01 12.12-14.33 18.06-21.61-1.12-.29-2.25-.55-3.37-.79z" fill="#426935" stroke="#426935"/><path d="m614.63 646.61c4.31-1.78 8.39-4.07 12.44-6.37.84 3.21 2.29 6.27 2.79 9.56-.35 1.2-1.49 1.9-2.27 2.81-4.45 4.31-8.95 8.8-14.6 11.51-1.09-4.99-2.12-10.05-2.22-15.16.87-1.32 2.52-1.68 3.86-2.35z" fill="#f4f4f4" stroke="#f4f4f4"/><path d="m419.4 659.18c.27-5.96.79-11.91 1.27-17.85 6.85 1.25 13.74 2.33 20.56 3.79-7.05 5.02-14.6 9.3-21.83 14.06z" fill="#4d783b" stroke="#4d783b"/><path d="m512.29 660.53c1.55 1.5 3.32 2.93 4.09 5.03 2.63 6.88 4.23 14.57 1.99 21.79-3.15 11.5-6.33 23.36-4.82 35.4.89 7.75 3.27 16.02 9.52 21.19 3.77 3.35 8.92 4.26 13.16 6.79 1.67.76 1.1 2.86 1.25 4.33-.29 6.64-.83 13.29-.44 19.95.83 38.34 6.47 77.11 21.31 112.7 10.64 25.96 24.69 50.39 40.3 73.66 4.65 6.94 9.78 13.54 14.21 20.63h-70.54c-2.32-3.21-4.26-6.66-6.28-10.05-13.06-22.4-24.46-45.78-34.04-69.87-12.12-31.43-21.34-64.35-23.37-98.1-1.73-42.06 8.95-83.55 23.7-122.61 2.92-7.12 5.12-14.72 9.96-20.84z" fill="#584282" stroke="#584282"/><path d="m229.53 777.19c1.88.34 3.53 1.49 3.83 3.48 4.78 17.66 5.79 36.15 4.79 54.36-2.28 23.23-7.34 46.11-13.48 68.61-2.3 7.84-3.95 15.94-7.41 23.39-.7-.28-2.11-.85-2.81-1.13 1.75-8.09 4.5-15.9 6.6-23.89 6.31-23.3 11.55-46.99 13.52-71.09.72-12.69-.42-25.41-2.53-37.92-.92-5.25-2.47-10.43-2.51-15.81z" fill="#020003" stroke="#020003"/><path d="m830.27 834.83c3.21 4.31 5.87 9.05 7.82 14.07 10.77 31.09 22.05 62.2 37.66 91.25 7.89 14.38 16.2 28.58 25.85 41.85h-4.78c-14.33-21.01-27.05-43.17-37.28-66.47-8.17-18.65-15.54-37.64-22.04-56.93-2.55-7.88-5.98-15.54-7.23-23.77z" fill="#000200" stroke="#000200"/></g></svg>