<svg height="52" viewBox="0 0 72 52" width="72" xmlns="http://www.w3.org/2000/svg"><path d="m10 0c-5.523 0-10 4.477-10 10v32c0 5.523 4.477 10 10 10h52c5.523 0 10-4.477 10-10v-32c0-5.523-4.477-10-10-10z" fill="#c00"/><g fill="#ffd700"><path d="m17.333 3.25-.729 2.246h-2.362l1.911 1.388-.73 2.245 1.91-1.388 1.911 1.388-.73-2.245 1.91-1.388h-2.361zm0 1.17.467 1.437h1.512l-1.223.889.467 1.437-1.223-.889-1.222.889.467-1.437-1.223-.889h1.511z"/><path d="m12.116 15.009 1.617 1.624 1.525-1.51c2.32 2.482 4.754 4.874 7.056 7.365.346.348.909.35 1.257.005.348-.346.35-.907.004-1.254-2.471-2.325-4.949-4.67-7.421-7.003l2.055-2.036-2.859-.394z"/><path d="m17.333 9.75c1.331.747 2.341 1.82 2.937 2.941.604 1.137.869 2.323.875 3.272.011 1.945-1.581 3.521-3.531 3.521-1.041 0-1.976-.449-2.622-1.163l-.358.3c-.061-.023-.125-.035-.191-.035-.156 0-.305.069-.407.188-.255.034-.468.209-.549.453-.269.538-.74.959-1.311 1.153-.005.001-.01.004-.015.006-.264.097-.528.271-.754.496-.445.448-.662 1.021-.54 1.423-.012.035-.018.072-.018.109 0 .185.151.336.337.336.046 0 .092-.01.135-.029.402.091.949-.132 1.376-.561.243-.243.424-.532.513-.815.199-.566.626-1.028 1.168-1.287.013-.006.024-.013.033-.019.182-.087.315-.251.363-.446.831.979 2.079 1.604 3.474 1.636 2.558.06 4.47-1.818 4.558-4.518.044-1.359-.483-3.112-1.684-4.549-.918-1.098-2.264-2.01-3.789-2.412z"/></g></svg>