<svg height="1597pt" viewBox="0 0 1200 1597" width="1600" xmlns="http://www.w3.org/2000/svg"><g stroke-width=".094"><path d="m484.75 0h45.59c1.29.41 2.58.87 3.89 1.27-17.49-.85-35.02-1.17-52.51 0 .76-.32 2.27-.95 3.03-1.27z" opacity=".2" stroke="#000"/><path d="m382.01 15.85c32.68-8.04 66.24-11.75 99.71-14.58 17.49-1.17 35.02-.85 52.51 0 29.19 1.58 58.28 5.25 86.96 10.97 33.86 6.93 67.45 16.95 97.8 33.8 31.5 17.3 60.74 38.56 87.81 62.14 24.88 21.89 48.03 46.21 65.49 74.53 27.96 44.67 49.89 93.08 65.71 143.33 9.03 28.93 15.45 58.74 18.03 88.95.07 1.58.64 3.08 1.72 4.25 11.93 14.51 23.07 29.63 34.23 44.72 32.59 44.1 64.54 88.86 91.28 136.81 7.86 12.04 11.7 26.82 9.74 41.14-1.23 8.34-4.67 16.45-10.38 22.72-5.6 7.33-12.25 13.83-19.81 19.13-15.75 11.14-33.81 18.51-52.03 24.54-41.73 13.33-85.27 20.16-128.82 23.96-14.02 1.28-28.09 1.11-42.14 1.11-7.44 10.13-16.03 19.42-25.67 27.5 35.09 23.44 69.44 48.02 102.72 73.98 13.8-7.77 30.23-13 46.05-9.09 9.15 2.03 16.87 7.68 23.74 13.8 23.3-5.35 47.42-5.86 71.21-5.1 13.59-6.44 27.52-12.36 42.05-16.4 17.64-5.26 37.05-6.89 54.62-.47 12.88 4.68 23.07 15.15 28.72 27.5 5.35 11.1 6.64 23.68 6.36 35.86-.23 10.78-1.68 21.71-5.86 31.71-5.8 13.94-17.35 25.69-31.86 30.38 8.1 7.59 15.77 15.63 23.8 23.3 19.56 19.68 28.8 49.78 21.33 76.8-3.9 16.24-13.17 31.61-27.52 40.61-1.38 10.99-4.55 21.9-10.53 31.3-7.07 11.38-18.17 20.39-31.1 24.15-12.07 3.43-25.02 4.5-37.29 1.45-8.59 9.03-20.37 14.65-32.74 15.99-19.9 3.07-41.1-1.83-56.87-14.57-18.88 12.83-44.7 13.41-64.63 2.64-10.36-5.49-19.04-14.17-24.19-24.74-4.73-9.63-6.14-20.48-6.63-31.08-.5-14.11.22-28.26 1.9-42.27-12.31-13.53-24.16-28.12-29.98-45.74-16.88-6.91-27.14-24.3-29.91-41.73-2.46-1.81-4.96-3.53-7.51-5.16 1.58 9.76 3.27 19.5 4.93 29.26 2.22 13.35 6.2 26.37 7.65 39.86 6.14 47.05-5.42 95.47-29.24 136.24-7.58 13.04-16.17 25.51-25.82 37.1-12.04 13.32-25.62 25.13-39.11 36.95-16.65 14.4-33.63 28.42-50.7 42.32-14.4 11.9-29.49 23.04-42.7 36.31-10.92 11.18-21.43 22.9-30.2 35.87-8.22 12.85-15.16 28.72-10.6 44.14 5.66 24 21.5 44.19 40.14 59.72 12.05 9.93 24.61 19.62 39.13 25.68 20.3 8.76 41.87 14.29 63.52 18.53 37.99 2.87 76.01 6.77 113.4 14.34 16.79 3.58 33.7 7.55 49.33 14.85 6.5 3.3 13.61 7.23 16.64 14.25 2.08 4.52.66 9.91-2.43 13.6-4.24 5.11-10.24 8.3-16.15 11.07-9.66 4.36-19.87 7.34-30.1 10-21.64 5.41-43.69 8.96-65.78 11.86-50.92 6.57-102.26 9.2-153.56 10.37-14.12-.37-28.25.44-42.37-.01-14.08.16-28.14-.6-42.22-.61-11.62-.13-23.22-.84-34.83-1.25-47.38-2.58-94.82-6.46-141.5-15.29-18.62-3.77-37.42-7.87-54.75-15.87-6.69-3.38-14.11-7.41-17.01-14.76-2.05-4.69-.21-10.11 3.05-13.74 5.03-5.66 12.04-8.99 18.89-11.92 14.6-5.97 30.02-9.59 45.42-12.8 26.39-5.3 53.12-8.7 79.88-11.37 3.5-.48 7.52.12 10.43-2.28 5.17-3.88 9.6-8.84 12.43-14.68 5.02-10.09 6.1-21.79 4.67-32.86-1.09-10.83-5.58-20.86-9.06-31.06-3.24-9.01-5.6-18.34-6.64-27.87-.83-8.62-1.87-17.3-1.01-25.96 1.55-17.6 8.17-34.33 16.45-49.79 8.08-15.12 17.83-29.26 27.98-43.04 12.18-16.39 24.88-32.39 37.86-48.14 12.01-14.39 24.48-28.49 34.67-44.27 3.95-6.31 7.8-12.9 9.41-20.24 1.67-9.55.43-19.53-3.34-28.44-2.72-6.38-6.41-12.61-12.01-16.86-9.52-7.45-20.83-12.25-32.35-15.67-16.13-4.51-32.94-5.46-49.46-7.79-20.19-2.93-40.19-8.22-58.48-17.41-42.93-20.71-79.33-56.63-96.6-101.46-12.77-33.73-16.63-70.89-10.51-106.47-2.88 1-5.73 2.04-8.55 3.16.35 18.46-3.84 37.54-14.63 52.79-10.06 14.29-25.67 25.18-43.19 27.59-3.78 0-5.97 3.31-8.55 5.53-11.38 10.08-23.62 19.13-36.07 27.84-1.29 9.57-2.12 19.24-4.33 28.67-2.93 13.46-8.55 26.8-18.5 36.59-12.82 12.86-31.58 18.97-49.54 17.67-12.19-.94-24.59-5.13-33.48-13.78-1.25-1.06-2.46-2.93-4.3-1.84-17.71 5.57-37.68 4.02-54.08-4.81-12.06-6.46-21.95-17.1-26.88-29.93-16.84-2.33-32.38-12.39-41.36-26.82-8.48-13.3-11.34-29.83-8.6-45.3-12.32-13.96-16.55-33.55-14.55-51.72 2.55-18.74 14.33-34.85 28.46-46.8 11.66-9.65 24.49-17.81 37.51-25.46-3.16-3.02-6.21-6.18-8.73-9.76-8.85-11.92-15.87-25.9-16.63-40.96-.9-15.07 4.8-29.93 13.85-41.8 8.68-11.8 21.72-19.77 35.68-23.8-11.36-30.51-12.84-64.92-2.49-95.92 9.41-28.9 30.07-53.53 55.92-69.25 32.34-19.97 73.07-26.81 109.74-15.94-13.21-12.22-25.84-25.1-37.36-38.93-9.62-11.85-18.89-24.67-22.57-39.75-3.13-11.8-2.89-24.91 2.63-35.99 4.65-9.01 12.98-15.36 21.51-20.47 11.51-6.8 23.78-12.17 35.61-18.37 23.79-11.74 48.38-21.73 72.9-31.79 25.75-10.44 51.64-20.57 77.69-30.25 4.11-1.81 8.7-3.23 12.06-6.24 5.97-11.66 12.86-22.86 20.7-33.36 5.09-6.52 8.53-14.09 12.65-21.22-10.33-9.32-20.48-18.81-30.77-28.16-19.94-18.64-40.23-36.95-58.92-56.86-14.29-16.89-30.36-32.73-40.67-52.54-7.11-13.41-9.79-29.59-5.11-44.24 3.48-11.58 11.69-21.25 21.67-27.87 13.84-9.23 29.93-14.31 45.91-18.46m65.21 23.3c-20.38 2.12-40.68 5.56-60.53 10.71-11.5 3.27-23.3 6.8-33.11 13.88-4.32 2.99-7.46 7.93-7.37 13.29-.29 5.72 2.15 11.09 4.82 15.99 6.15 10.78 14.54 20.01 22.56 29.4 6.96 7.64 13.27 15.88 20.96 22.83 6.2 6.81 13.21 12.99 19.88 19.39 11.2 10.85 22.83 21.23 34.16 31.95 9.18 8.31 18.29 16.69 27.4 25.08 4.54 4.01 9 8.13 13.27 12.44 2.95-1.02 5.13-3.37 7.75-4.97 13.02-8.45 27.17-16.08 42.8-17.98 3.02-.45 6.58-.73 8.91 1.66-1.44 1.64-3.05 3.12-4.71 4.53-20.74 11.99-39.55 27.38-55.32 45.46-11.59 13.13-22.93 26.68-31.73 41.88 35.8-10.31 72.94-15.29 110.04-17.65 29.93-2.04 59.98-1.52 89.9.33 36.01 1.92 71.78 8.11 106.29 18.6 6.73 2.44 13.78 4.64 20.63 6.98l-.04.21c6.2 2.04 12.17 4.7 18.32 6.87l-.01.18c35.67 13.62 67.61 35.4 96.21 60.42 7.06 6.66 14.29 13.19 20.99 20.23.24.34.71 1.02.95 1.35-.56-8.83-2.58-17.51-4.23-26.2-4.34-20.32-10.22-40.3-17.2-59.86-3.15-8.43-5.9-17.09-9.84-25.16-1.12-4-3-7.72-4.56-11.54-9.52-22.09-20.22-43.68-32.38-64.44-8.32-14.08-17.06-28-27.62-40.54-10.27-12.22-21.33-23.79-33.28-34.37-11.1-10.46-23.01-20.02-35.12-29.27-29.43-22-60.99-42.14-96.23-53.38-21.41-6.9-43.43-12.03-65.67-15.33l.99-.06c-34.79-5.29-70.02-8.63-105.24-7.24-14.23 1.22-28.54 2.23-42.64 4.33m53.54 271.64c-19.38 3.67-38.9 7.84-56.95 16.02-41.83 14.84-83.12 31.14-124.15 48.05-13.74 5.73-27.43 11.59-40.94 17.85-9.76 4.53-19.21 9.69-28.93 14.32-7.31 3.75-14.88 7.25-21.22 12.56-3.13 2.43-4.02 6.76-3.8 10.52.97 6.02 4.8 10.99 8.15 15.9 9.46 14.24 21.29 26.68 33.36 38.71 26.96 26.34 55.21 51.66 86.74 72.45 3.28-3.96 6.43-8.04 9.59-12.1 1.83-2.66 4.03-5.08 5.56-7.93 2.26-19.9 7.07-39.6 15.15-57.96 4.23-10.08 10.05-19.36 15.91-28.54-28.6.23-57.3-1.07-85.47-6.26-10.19-1.89-20.14-4.8-29.94-8.14-4.91-2.16-10.32-4.01-13.95-8.16-1.13-1.22-1.9-3.33-.37-4.55 5.23-.84 10.32 1.03 15.37 2.15 13.23 2.93 26.71 4.6 40.17 6.07 10.62 1.28 21.24 2.77 31.95 2.81 14.33.15 28.66 1.11 42.99.3 11.55-.27 23.15-.62 34.61-2.06 20.22-1.18 40.16-5.02 60.23-7.64 23.98-3.26 48.05-5.84 72.18-7.66 2.41-.14 4.88-.14 7.21-.9 1.16-4.46 3.1-8.65 4.74-12.94l.18.02c8.14-18.32 21.6-33.89 36.9-46.66 23.93-20.03 54.59-32.63 86-32.6 23.52-.26 46.69 6.41 67.58 16.91 17.41 8.93 32.7 22.03 43.81 38.17 15.17 22.09 22.71 49.2 21.29 75.95-.34 2.26-.39 4.56-.54 6.85 43.09 22.46 82.97 50.9 118.83 83.67 15.87 14.42 31.59 29.05 46.45 44.53 6.16 6.87 12.23 13.81 18.48 20.6 6.18 6.94 12.67 13.86 16.75 22.31.98 1.72.88 3.71.6 5.61-3.34-.52-5.89-2.82-8.43-4.84-5.68-4.75-11.04-9.88-16.53-14.84-6.73-5.76-13.07-11.96-19.57-17.97-1.89-1.87-3.83-3.67-5.78-5.46-15.18-13.46-29.52-27.86-45.16-40.81-3.4 16.67-10.98 32.24-20.31 46.36-15.89 23.77-39.51 41.99-66.17 52.15-.93 8.75-2.52 17.42-4.98 25.88-.86 2.71-1.75 5.41-2.73 8.08-1.44 3.93-3.22 7.72-4.73 11.62 19.39.8 38.79-.69 58.05-2.83 27.67-3.19 55.22-7.79 82.18-14.86 16.71-4.49 33.3-9.84 48.79-17.66 9.07-4.75 18.1-10.3 24.44-18.52 3.58-4.82 6.13-11.28 4.09-17.24-2.81-9.43-9.01-17.23-13.67-25.76-21.44-36.52-45.83-71.2-70.89-105.3-15.49-21.06-30.8-42.29-47.63-62.3-10.73-16.23-24.9-29.81-39.3-42.74-26.5-23.22-56.09-43.46-89.07-56.29-22.08-9.2-44.85-16.73-68.13-22.26l-.28.13c-35.46-8.65-72.1-10.89-108.46-11.82-40.25-.73-80.6 1.97-120.25 9.05m164.13 36.35c-18.51 6.58-35.29 17.72-48.99 31.76-10.77 10.83-19.72 23.68-24.91 38.12-7.81 20.67-9.07 43.18-7.07 65.01l.31-.8c-.12 4.28.93 8.47 1.55 12.68 4.23 22.98 12.8 45.21 25.43 64.88 8.23 13.06 18.71 24.5 29.74 35.23 29.75 26.81 67.24 44.64 106.59 51.73 35.13 6.44 72.59 4.99 105.68-9.37 21.86-9.41 40.99-25.18 53.92-45.21 9.29-14.52 16.87-30.7 18.37-48.09-4.67-3.67-9.16-7.58-13.91-11.15l.05-.13c-3.06-2.26-5.99-4.65-9.02-6.92-8.26-6.23-16.64-12.3-25.2-18.1-14.32-9.59-29.06-18.58-44.23-26.77-.95-.49-1.95-.79-3-.9-3.09 10.9-9.72 20.54-17.96 28.2-14.35 13.29-32.86 21.98-52.22 24.69-15.32 2.08-31.36.25-45.38-6.47-14.93-6.98-27.39-19.73-32.91-35.38-5.08-14.14-4.17-30.42 2.96-43.71 3.35-6.54 8.23-12.53 14.89-15.9 8.2-4.79 18.89-6.03 27.54-1.72 2.39 1.3 5.61 3.42 4.34 6.62-7.4.5-15.45-.15-21.95 4.09-8.35 5.29-13.65 14.82-14.78 24.54-1.14 9.76.58 20.01 5.84 28.41 7.21 11.97 19.94 19.89 33.44 22.81 20.67 4.61 42.83-1.18 59.8-13.5 9.77-6.99 18.1-16.59 21.53-28.29 6.16-20.16 3.81-42.15-3.18-61.79-.06.01-.2.03-.27.04-7.7-22.03-23.6-41.04-43.74-52.81-13.92-8.06-29.26-13.76-45.1-16.61-19.37-3.54-39.63-1.83-58.16 4.81m-143.93 90.67.47.41c-5.34.39-10.72.88-15.96 1.88-7.48.77-14.93 1.84-22.36 3.03-6.79.9-13.57 1.95-20.33 3.04-12.82 1.38-25.65 2.89-38.54 3.38-1.87 1.92-3.64 3.93-5.31 6.03-4.39 5.53-8.44 11.33-11.92 17.47-12.78 22.51-19.47 48.18-21.04 73.93-2.23 36.9 8.96 74.04 29.54 104.59 21.43 32.26 52.03 57.59 85.71 76.26 28.44 15.68 59.2 27.1 90.86 34.24 20.38 4.31 41.2 6.44 62.02 6.73 4.91-6.07 11.05-11.01 17.66-15.12 19.39-10.1 42.35-12.15 63.7-8.46 8.47 1.35 16.66 3.96 24.81 6.55 3.6-.74 6.77-2.83 10.11-4.31 20.85-10.23 37.66-27.53 49.15-47.54 6.98-12.45 12.62-26.04 14.26-40.3-13.2 3.59-26.87 4.73-40.45 5.79l-.07-.21c-8.6.39-17.19-.06-25.76-.71-18.41-1.53-36.59-5.35-54.18-10.97-32.86-10.61-63.35-28.59-88.3-52.48-6.36-6.34-12.97-12.5-18.26-19.81-22.25-29.92-36.81-65.94-39.45-103.27-1.48-14.87-.38-29.91 2.3-44.58-16.25 1.09-32.43 3.13-48.66 4.43m-383.49 154.86c-9.25 11.94-14.92 26.44-16.98 41.36-3.02 20.71.47 42.18 9.16 61.17 13.94 30.03 41.39 52.29 71.98 63.89 6.07 1.08 12.08 2.53 18.17 3.52 2.87-3.41 6.49-6.06 10.14-8.58 8.28-5.22 17.75-8.2 27.36-9.79 4.4.11 8.84-.17 13.2.59 13.31 2.27 25.61 9.39 34.67 19.34 15.06-7.91 30.54-14.98 46.03-21.99 17.28-8.03 34.95-15.32 53.11-21.13l.16-.33c12.79-3.84 25.54-7.87 38.61-10.68-4.77-4.47-9.83-8.63-14.26-13.45l-.08.08c-9.47-9.58-18.16-19.94-25.93-30.94-7.37-10.5-13.63-21.75-19.02-33.38-7.2-16.33-12.31-33.6-14.72-51.29-.72-4.22-.65-8.54-1.52-12.73-5.45 6.9-11.58 13.24-17.91 19.33-12.52 12.15-27.87 21.16-44.08 27.44 1.17 17.07-.65 35.35-10.64 49.78-12.58 17.22-32.94 27.94-53.95 30.4-13.53 1.37-27.72.05-39.93-6.28-12.96-7.05-23.23-19.51-26.44-34.04-2.63-11.36-.26-23.6 5.7-33.54 10.15-16.69 32.96-23.19 50.94-16.69 8.88 3.24 15.87 12.52 14.54 22.2-.12 4.51-3.09 9.99-8.16 9.94-2.12-3.72 1.03-7.99-1.09-11.74-3.21-7.17-11.95-10.16-19.34-9.31-9.15 1.38-18.33 6.06-23.23 14.16-2.98 5.11-4.67 11.07-4.4 17 .86 11.47 8.52 21.51 18.15 27.31 10.24 5.57 22.43 6.27 33.79 4.84 15.78-2.25 30.68-10.69 40.25-23.49 4.05-5.8 6.17-12.72 7.28-19.65 2.76-18.82-1.53-38.87-13-54.21-10.03-13.63-25.59-22.51-42.01-25.96-35.71-7.33-74.51 8.06-96.55 36.85m274.82 142.48c-19.59 6.3-38.69 14.04-57.28 22.84-19.45 8.87-38.99 17.71-57.32 28.77-6.67 4.14-13.4 8.43-18.79 14.22-1.99 2.08-3.65 4.57-4.25 7.43-1.78 10.29.76 20.89 5.64 29.99 1.74 2.9 3.74 5.65 6.04 8.14 4.23 4.21 9.74 7.39 15.78 7.83 30.21-14.62 62.02-25.75 94.27-34.91 2.22-4.79 4.55-9.54 7.28-14.06 8.53-15.02 19.54-28.39 30.2-41.91l.12-.02c10.4-12.25 21.35-24.01 32.76-35.32-2.32-1.59-4.63-3.19-6.82-4.95-16.24 2.23-32.02 7.05-47.63 11.95m-325.37 6.76c-4.75 4.75-6.8 11.5-7.05 18.09.25 9.83 5.81 18.78 13.61 24.5 9.41 7.25 20.35 12.07 30.91 17.35 1.97 15.38 3.36 31.88 12.94 44.76 3.12 4.82 8.65 7.28 12.01 11.88.84 1.18.28 2.56.01 3.84-8.56 1.5-16.79-3.02-23.09-8.41-7.21-5.72-11.17-14.32-14.16-22.79-2.46 2.84-4.78 5.95-8.03 7.97-7.73 5.05-15.66 9.79-23.54 14.6-12.63 7.97-26.57 15.05-35.49 27.48-6.33 8.65-10.89 20.06-7.47 30.75 1.66 5.55 6.34 9.53 11.59 11.61 17.04-14.01 33.99-28.47 53.57-38.88 3.61-1.75 8.38-3.92 11.97-.97.33 2.96-1.29 5.6-3.4 7.55-16.53 14.48-34.11 27.89-49.18 43.95-7.03 7.02-10.43 17.46-8.35 27.23 2.2 5.95 6.61 11.53 12.71 13.78 6.35 1.98 13.37 1.14 19.48-1.29 5.87-2.24 9.78-7.42 13.69-12.07 8.45-10.2 16.97-20.54 27.47-28.73 2.97-2.24 6.12-4.38 9.72-5.43 2.97-.83 5.36 1.86 5.8 4.56-2.15 2.96-4.63 5.64-7.2 8.23-10.83 10.96-20.88 22.92-28.05 36.64-2.4 4.68-4.73 9.53-5.45 14.8-.77 5.44.97 11.31 4.99 15.14 5.77 5.68 14.6 8.03 22.46 6.15 8.97-2.83 13.92-11.41 19.14-18.56 7.93-10.21 14.98-21.06 23.01-31.19 1.67-1.94 3.66-4.45 6.55-3.94 2.76 1.41 3.02 4.93 2.4 7.63-3.29 13.13-6.9 26.3-7.8 39.87-.18 5.23.09 10.86 2.92 15.44 3.76 6.05 11.65 8.76 18.46 7.23 7.72-1.41 14.02-7.5 16.47-14.86 5.82-16.83 7.65-34.68 11.78-51.94.24-2.29 2.92-2.82 4.49-4.01 15.97-9.01 31.97-19.44 42.17-35.1-9.63-4.2-17.64-11.21-24.63-18.92-2.79-3.49-5.35-7.46-6.11-11.93-.44-1.77.41-4.49 2.61-4.27 3.34.53 5.77 3.18 8.33 5.16 11.12 8.25 23.3 17.25 37.82 17.06 9.98.77 19.24-4.92 25.39-12.4 8.47-10.37 10.97-24.26 10.87-37.31-3.51 1.46-7.01 2.97-10.33 4.82-2.27 1.08-4.59 2.08-6.75 3.38-3.44.19-6.87-.14-10.24-.8-2.98-.73-5.86-1.75-8.68-2.92-2.74-1.43-5.38-3.05-7.84-4.91-2.43-1.76-4.34-4.11-6.53-6.09l-.56.26.08-.82c-9.35-11.8-14.78-26.96-14.17-42.1-.09-8.15 2.72-16.44 8.54-22.28l-.59-.53.54.48c3.69-4.35 8.28-7.81 12.87-11.15 3.43-2.32 6.83-4.7 10.48-6.66-.89-2.32-3.28-3.44-5.1-4.9-5.8-4.31-12.73-7.3-20.02-7.51-14.6-.75-30.31 5.88-37.67 18.99-7 12.59-9.76 27.27-9.4 41.58.61 4.04.67 8.15.44 12.23-.57.31-1.71.94-2.29 1.25-5.82-1.87-9.33-7.74-10.47-13.46-3.22-15.97-.54-32.84 6.45-47.46-15.91-2.89-32.11-3.44-48.13-5.5-4.3-1.08-7.86-3.91-11.44-6.38-12.05-8.72-23.24-19-36.93-25.17-9.38-4.52-21.56-2.36-28.6 5.4m363.2 29.85c-8.25 9.71-15.81 20.04-22.26 31.04-2.9 4.85-5.27 9.99-8.17 14.84-9.93 18-15.67 38.08-18.63 58.34-3.05 21.21-.65 42.85 4.78 63.47 6.12 26.05 20.25 49.98 39.58 68.41l.02.22c11.57 10.76 24.25 20.52 38.38 27.69l-.03.27c12.86 6.86 26.37 12.51 40.38 16.58 44.13 12.8 91.72 10.84 135.73-1.51 19.05-5.11 37.69-12.32 54.48-22.78 5.62-3.4 9.97-8.72 16.07-11.34 2.95-1.33 4.99 2.52 4.83 5.02-.66 6.13-4.56 11.25-8.38 15.84-5.05 6.23-12.15 10.22-18.88 14.34-23.73 13.54-50.32 21.49-77.21 25.73 10.93 8.54 20.19 19.22 26.75 31.47 8.94 16.7 13.42 36.61 8.81 55.28-4.27 14.79-12.73 27.89-21.08 40.67-23.09 34.4-50.8 65.34-75.09 98.86-9.83 13.67-19.19 27.92-25.29 43.7-6.02 15.9-9.03 33.55-5.06 50.32 4.75 20.49 16.98 38.64 19.69 59.7 1.53 9.99.36 20.31-2.83 29.88-3.08 8.96-8.93 16.66-15.49 23.38-12.36 12.53-27.2 22.22-42.31 31.09 23.88.22 47.77.31 71.66.18 16.27.08 32.54.16 48.82.09 10.11.11 20.25.13 30.37-.08 29.2.29 58.44.15 87.65.02 9.19.31 18.41.02 27.61.13 10.99-.21 22.01.42 32.97-.35-26.32-6.17-52.58-12.71-78.41-20.72-15.36-4.81-30.67-10.22-44.58-18.44-18.4-10.57-35.29-23.73-50.16-38.86-13.16-13.32-24.79-28.42-32.64-45.49-6.6-14.5-10.31-30.92-7.32-46.79 2.49-12.83 8.47-24.68 15.47-35.61 9.53-14.74 20.77-28.34 33.05-40.86 12.12-12.61 25.24-24.23 39.13-34.85 30.57-24.96 59.88-51.44 88.32-78.79 26.59-25.7 46.38-58.68 55-94.74 9.21-37.67 6.51-78.89-11.16-113.75-9.19-18.26-22.92-33.56-35.55-49.44-10.18-13.54-20.78-26.77-30.58-40.59-1.02-1.48-2.9-1.8-4.44-2.47-6.01-2.12-11.9-4.59-17.94-6.64-3.76-1.89-7.87-3.2-11.75-4.89-9.98-4.31-19.82-9.05-29.02-14.85-9.84-6.46-19.92-13.69-25.57-24.32-7.11-13.13-8.47-28.84-5.2-43.29-47.27-1.21-93.71-14.16-136.2-34.53-8.95-4.3-17.61-9.16-26.22-14.07-11.26 10.6-22.17 21.61-32.1 33.49m239.26-8.28c-11.01 3.49-21 10.89-26.7 21.01-6.31 13.28-4.81 30.11 3.78 42.04 7.89 9.17 18.52 15.47 29.13 21.02 21.05 10.86 43.89 17.55 65.54 27.02 23.66 10.11 46.75 21.51 69.26 33.97 6.88 3.62 13.34 8.02 20.31 11.47 1.33-4.92 2.96-9.76 5-14.42l-.3-.16c6.18-13.56 13.79-26.52 23.47-37.89 3.2-3.87 6.83-7.35 10.1-11.16-20.48-15.79-41.45-30.94-62.6-45.81-16.16-11.27-32.38-22.49-49.17-32.8-13.19-8.34-28.13-13.68-43.4-16.64-14.72-2.84-30.1-2.1-44.42 2.35m228.65 89.56c-14.44 9.96-26.7 22.91-36.4 37.49-10.77 16.51-18.43 35.6-19.02 55.49-.11 12.26 3.15 25.33 12.21 34.11 5.28 5.67 13.14 8.14 20.73 8.25-1.73-10.41-.23-21.03 2.17-31.22 2.27-8.88 5.91-18.07 13.23-23.99.63.11 1.89.33 2.52.43.86 3.58-.72 7.06-1.15 10.58-2.24 14.35-3.84 29.42.8 43.48 4.01 12.94 11.76 24.41 20.83 34.34 4.2 4.84 9.36 8.83 13.24 13.91-1.01 16.44-4.77 32.61-5.56 49.07-.09 6.49-.5 13.54 3.14 19.26 3.08 5.57 8.77 9.96 15.28 10.3 7.51.65 15.33-2.6 20.03-8.53 3.17-5.02 3.96-11.09 5.01-16.82 2.29-15.22 3.29-30.58 4.8-45.88.6-3.14 4.15-4.92 7.09-3.84 2.95 1.3 4.3 4.53 5.18 7.44 5.24 17 9.46 34.36 15.99 50.95 3.38 8.28 9.15 16.58 18.11 19.3 6.38 2.19 13.81 1.59 19.37-2.37 6.41-4.41 9.9-12.13 10.49-19.73-.56-3.54-.75-7.15-1.89-10.57-5.7-19.37-16.95-36.38-25.55-54.47-1.66-3.13 1.74-4.89 4.29-5.35 5.85 1.46 9.84 6.37 13.51 10.82 11.73 14.64 18.83 32.17 27.3 48.73 3.37 6.31 6.94 12.99 13.06 17.06 6.89 3.47 15.53 2.54 21.79-1.88 7.75-5.01 12.41-14.33 11.71-23.53-.76-8.4-4.43-16.2-8.82-23.28-9.87-15.74-23.21-28.83-34.83-43.21-4.17-5.5-9.47-10.56-11.16-17.49.32-.59.96-1.79 1.28-2.38 3.77-.65 7.04 1.72 10.02 3.69 7.48 5.38 13.94 12.03 20.33 18.64 12.99 13.45 23.37 29.12 35.92 42.96 9.15-1.74 16.68-9.57 18.41-18.68 1.81-7.83-.2-16.02-3.49-23.17-4.52-9.83-12.01-17.82-19.5-25.46-7.47-7.51-14.87-15.09-22.4-22.54-3.58-3.78-7.5-7.3-10.55-11.53-2.75-5.23-5.7-10.34-8.73-15.4-3.33 1.5-5.99 4.13-9.29 5.69-12.94 6.64-27.93 9.25-42.36 7.45-4.71-1.05-10.35-2.37-12.68-7.1.29-.58.88-1.75 1.18-2.34 1.98-.92 4.11-1.48 6.32-1.47 5.87-.01 11.74-.43 17.59-.92 15.64-2.3 30.77-11.07 39.3-24.55 8.13-1.5 16.2-3.4 24.15-5.7 8.33-2.48 16.76-5.7 23.29-11.65 6.29-5.99 9.63-14.77 9.42-23.4.19-9-3.22-18.68-10.89-23.91-5.81-3.9-13.28-3.01-19.7-1.42-17.6 4.57-33.33 14.05-50.25 20.41-7.95 3.33-16.58.27-24.82.29-12.98-1.05-26.09-1.3-39.01.51-19.86 2.86-39.51 8.01-57.78 16.38-1.96 1.08-5.59.69-4.88-2.3 1.97-3.49 5.19-5.98 8.19-8.53 8.26-6.23 17.76-10.52 27.44-14.03-3.91-8.45-10.86-15.56-19.54-19.07-6.24-2.46-13.22-2.43-19.67-.87-8.96 2.07-17.24 6.41-24.8 11.55z" stroke="#000"/><g fill="#ea4592" stroke="#ea4592"><path d="m447.22 39.15c14.1-2.1 28.41-3.11 42.64-4.33 35.22-1.39 70.45 1.95 105.24 7.24l-.99.06c-16.75.88-33.39 3.87-49.42 8.79-20.22 6.14-38.18 18.01-54.11 31.65-8.64 7.69-16.96 15.89-23.55 25.44-17.46 25.52-25.18 58.18-18.44 88.59-11.33-10.72-22.96-21.1-34.16-31.95-6.67-6.4-13.68-12.58-19.88-19.39-2.59-13.39-2.18-27.16.27-40.53 3.08-18.76 13.4-35.81 26.97-48.9 7.32-7.12 16.07-12.63 25.43-16.67z"/><path d="m631.72 116.82c19.9-3.56 40.14-5.33 60.36-5.14-.91.64-1.81 1.28-2.7 1.93 3.42 5.15 8.01 9.36 11.7 14.31 6.58 8.84 13.35 17.56 19.06 27.01 4.89 8.18 10.21 16.14 14.26 24.79 4.71 9.78 10.31 19.23 13.31 29.73-1.27.17-2.54.33-3.8.47-1.39-.22-2.76-.45-4.12-.69-25-4.55-50.34-7.68-75.78-7.86-22.43-.37-44.87 1.43-67.04 4.84-17.84 2.72-35.7 5.75-52.96 11.14 1.66-1.41 3.27-2.89 4.71-4.53-2.33-2.39-5.89-2.11-8.91-1.66-15.63 1.9-29.78 9.53-42.8 17.98-2.62 1.6-4.8 3.95-7.75 4.97-4.27-4.31-8.73-8.43-13.27-12.44 10.35-24.34 29.88-43.22 50.58-59.01 15.48-11.92 32.37-22.05 50.29-29.88 17.53-7.6 36.09-12.56 54.86-15.96z"/><path d="m740.6 117.65c17.95 4.48 35.48 11.54 50.53 22.45 11.95 10.58 23.01 22.15 33.28 34.37 10.56 12.54 19.3 26.46 27.62 40.54 12.16 20.76 22.86 42.35 32.38 64.44 1.56 3.82 3.44 7.54 4.56 11.54-9.05-10.4-18.29-20.68-28.71-29.74-.9-.86-1.81-1.71-2.74-2.53-.6-2.06-1.25-4.12-2.18-6.05-9.43-18.08-19.35-36.03-31.94-52.14-20.4-26.11-43.75-49.88-69.09-71.2-4.4-4.09-9.26-7.65-13.71-11.68z"/><path d="m797.88 335.69c32.98 12.83 62.57 33.07 89.07 56.29 14.4 12.93 28.57 26.51 39.3 42.74 16.83 20.01 32.14 41.24 47.63 62.3 25.06 34.1 49.45 68.78 70.89 105.3 4.66 8.53 10.86 16.33 13.67 25.76 2.04 5.96-.51 12.42-4.09 17.24-6.34 8.22-15.37 13.77-24.44 18.52-15.49 7.82-32.08 13.17-48.79 17.66-26.96 7.07-54.51 11.67-82.18 14.86-19.26 2.14-38.66 3.63-58.05 2.83 1.51-3.9 3.29-7.69 4.73-11.62 13.09-1.3 26.25-1.43 39.37-2.5 11.16-.17 22.19-2.05 33.21-3.7 7.78-.74 15.42-2.41 23.05-4.08 9.65-1.82 16.92-8.97 24.87-14.19 16.36-12.77 31.93-26.93 44.2-43.76 5.49 4.96 10.85 10.09 16.53 14.84 2.54 2.02 5.09 4.32 8.43 4.84.28-1.9.38-3.89-.6-5.61-4.08-8.45-10.57-15.37-16.75-22.31-6.25-6.79-12.32-13.73-18.48-20.6-14.86-15.48-30.58-30.11-46.45-44.53-35.86-32.77-75.74-61.21-118.83-83.67.15-2.29.2-4.59.54-6.85.52-2.4 1.17-4.77 1.81-7.13 6 2.72 11.67 6.13 17.81 8.55 23.53 11.86 45.21 26.98 66.23 42.79 9.25 6.95 18.46 13.99 27.35 21.42 19.01 16.28 35.87 34.82 53.9 52.14 2.17 2.13 4.65 3.94 7.49 5.1-.71-4.71-3.73-8.48-6.14-12.42-19-29.48-39.65-57.91-61.53-85.31-15.91-19.78-30.94-40.25-46.87-60-3.58-3.92-7.97-6.95-12.1-10.23-15.44-11.86-31.91-22.29-48.47-32.49-3.75-2.29-7.53-4.52-11.43-6.53-3.68 2.02-6.66 4.99-9.34 8.16-11.11-16.14-26.4-29.24-43.81-38.17 9.15-3.28 19.23-2.04 28.27-5.64z"/></g><g fill="#fafbfa" stroke="#fafbfa"><path d="m386.69 49.86c19.85-5.15 40.15-8.59 60.53-10.71-9.36 4.04-18.11 9.55-25.43 16.67-13.57 13.09-23.89 30.14-26.97 48.9-2.45 13.37-2.86 27.14-.27 40.53-7.69-6.95-14-15.19-20.96-22.83-8.02-9.39-16.41-18.62-22.56-29.4-2.67-4.9-5.11-10.27-4.82-15.99-.09-5.36 3.05-10.3 7.37-13.29 9.81-7.08 21.61-10.61 33.11-13.88z"/><path d="m544.69 50.91c16.03-4.92 32.67-7.91 49.42-8.79 22.24 3.3 44.26 8.43 65.67 15.33 35.24 11.24 66.8 31.38 96.23 53.38 12.11 9.25 24.02 18.81 35.12 29.27-15.05-10.91-32.58-17.97-50.53-22.45-1.05-.31-2.08-.62-3.12-.88-4.11-5.17-10.05-8.29-15.37-12.02-17.55-11.77-36.58-21.27-56.46-28.44-6.45-2.23-12.82-5.32-19.8-5.26 6.5 6.97 14.85 11.84 21.45 18.7 4.92 5.08 10.01 9.99 14.92 15.08 2.23 2.16 4.41 4.95 7.76 5.23 3.77.53 7.54 1.14 11.26 2.01-3.05-.25-6.11-.36-9.16-.39-20.22-.19-40.46 1.58-60.36 5.14-18.77 3.4-37.33 8.36-54.86 15.96-17.92 7.83-34.81 17.96-50.29 29.88-20.7 15.79-40.23 34.67-50.58 59.01-9.11-8.39-18.22-16.77-27.4-25.08-6.74-30.41.98-63.07 18.44-88.59 6.59-9.55 14.91-17.75 23.55-25.44 15.93-13.64 33.89-25.51 54.11-31.65z"/><path d="m596.97 206.21c22.17-3.41 44.61-5.21 67.04-4.84 25.44.18 50.78 3.31 75.78 7.86-.9 5.11 2.25 9.53 3.77 14.17 6.74 19.41 12.24 39.31 15.36 59.63 1.31 7.66.8 15.78 4.27 22.94-34.51-10.49-70.28-16.68-106.29-18.6-29.92-1.85-59.97-2.37-89.9-.33-37.1 2.36-74.24 7.34-110.04 17.65 8.8-15.2 20.14-28.75 31.73-41.88 15.77-18.08 34.58-33.47 55.32-45.46 17.26-5.39 35.12-8.42 52.96-11.14z"/><path d="m861.45 265.66c-.52-1.44-.83-2.93-1.19-4.41 10.42 9.06 19.66 19.34 28.71 29.74 3.94 8.07 6.69 16.73 9.84 25.16 6.98 19.56 12.86 39.54 17.2 59.86 1.65 8.69 3.67 17.37 4.23 26.2-.24-.33-.71-1.01-.95-1.35-6.7-7.04-13.93-13.57-20.99-20.23-.94-6.22-1.83-12.45-3.27-18.57-7.52-33.27-19.47-65.41-33.58-96.4z"/><path d="m86.92 741.91c7.04-7.76 19.22-9.92 28.6-5.4 13.69 6.17 24.88 16.45 36.93 25.17 3.58 2.47 7.14 5.3 11.44 6.38 16.02 2.06 32.22 2.61 48.13 5.5-6.99 14.62-9.67 31.49-6.45 47.46 1.14 5.72 4.65 11.59 10.47 13.46.58-.31 1.72-.94 2.29-1.25.23-4.08.17-8.19-.44-12.23-.36-14.31 2.4-28.99 9.4-41.58 7.36-13.11 23.07-19.74 37.67-18.99 7.29.21 14.22 3.2 20.02 7.51 1.82 1.46 4.21 2.58 5.1 4.9-3.65 1.96-7.05 4.34-10.48 6.66-3.71-3.72-8.26-6.86-13.55-7.65-6.22-.89-13.14.41-17.78 4.89 6.33 3.97 12.42 8.34 17.92 13.43l.59.53c-5.82 5.84-8.63 14.13-8.54 22.28-.61 15.14 4.82 30.3 14.17 42.1l-.08.82c-5.18 10.16-13.01 18.73-22.41 25.15 2 2.46 4.16 4.83 6.7 6.76 2.57 1.99 5.29 3.79 8.13 5.38 3.1 1.72 6.3 3.43 9.85 4.02 4.07.17 8.14.07 12.22.05 3.98-.2 8.09.54 12-.4 10.32-5.89 14.83-18.46 14.11-29.88 3.32-1.85 6.82-3.36 10.33-4.82.1 13.05-2.4 26.94-10.87 37.31-6.15 7.48-15.41 13.17-25.39 12.4-14.52.19-26.7-8.81-37.82-17.06-2.56-1.98-4.99-4.63-8.33-5.16-2.2-.22-3.05 2.5-2.61 4.27.76 4.47 3.32 8.44 6.11 11.93 6.99 7.71 15 14.72 24.63 18.92-10.2 15.66-26.2 26.09-42.17 35.1-1.57 1.19-4.25 1.72-4.49 4.01-4.13 17.26-5.96 35.11-11.78 51.94-2.45 7.36-8.75 13.45-16.47 14.86-6.81 1.53-14.7-1.18-18.46-7.23-2.83-4.58-3.1-10.21-2.92-15.44.9-13.57 4.51-26.74 7.8-39.87.62-2.7.36-6.22-2.4-7.63-2.89-.51-4.88 2-6.55 3.94-8.03 10.13-15.08 20.98-23.01 31.19-5.22 7.15-10.17 15.73-19.14 18.56-7.86 1.88-16.69-.47-22.46-6.15-4.02-3.83-5.76-9.7-4.99-15.14.72-5.27 3.05-10.12 5.45-14.8 7.17-13.72 17.22-25.68 28.05-36.64 2.57-2.59 5.05-5.27 7.2-8.23-.44-2.7-2.83-5.39-5.8-4.56-3.6 1.05-6.75 3.19-9.72 5.43-10.5 8.19-19.02 18.53-27.47 28.73-3.91 4.65-7.82 9.83-13.69 12.07-6.11 2.43-13.13 3.27-19.48 1.29-6.1-2.25-10.51-7.83-12.71-13.78-2.08-9.77 1.32-20.21 8.35-27.23 15.07-16.06 32.65-29.47 49.18-43.95 2.11-1.95 3.73-4.59 3.4-7.55-3.59-2.95-8.36-.78-11.97.97-19.58 10.41-36.53 24.87-53.57 38.88-5.25-2.08-9.93-6.06-11.59-11.61-3.42-10.69 1.14-22.1 7.47-30.75 8.92-12.43 22.86-19.51 35.49-27.48 7.88-4.81 15.81-9.55 23.54-14.6 3.25-2.02 5.57-5.13 8.03-7.97 2.99 8.47 6.95 17.07 14.16 22.79 6.3 5.39 14.53 9.91 23.09 8.41.27-1.28.83-2.66-.01-3.84-3.36-4.6-8.89-7.06-12.01-11.88-9.58-12.88-10.97-29.38-12.94-44.76-10.56-5.28-21.5-10.1-30.91-17.35-7.8-5.72-13.36-14.67-13.61-24.5.25-6.59 2.3-13.34 7.05-18.09m11.67 8.68c-4.47 2.49-5.13 7.89-4.85 12.51.1 2.23.09 4.66 1.61 6.48 3.06 4.26 7.02 8.6 12.3 9.82 10.24-5.51 21.91-7.77 33.46-7.81-5.46-6.69-13.08-11.15-19.84-16.4l-.49.22c-6.01-4.71-14.86-9.58-22.19-4.82m-47.6 144.42c-.59 5.07-.46 10.21-.13 15.3 2.95-1.77 5.59-4 8.24-6.18 2.16-1.83 4.76-3.33 6.08-5.93-3.93-2.14-7.81-4.35-11.62-6.67-1.72.03-2.43 2.03-2.57 3.48m17.26 53.01c-.68 5-.78 10.06-.42 15.1 5.03.1 10.13.54 15.13-.19 4.01-2.39 7.87-5.55 10.14-9.69-3.82-1.08-7.77-1.5-11.71-1.89-4.53-.47-8.73-2.35-13.14-3.33m119.33 52.6c-2.96 4.77-3.33 10.54-3.1 16.02 1.41 3.15 5.71 2.18 8.51 2.42 3.84.26 6.42-3.34 7.5-6.59 2.42-7.34 3.53-15.03 5.24-22.55 1.47-7.61 3.23-15.17 4.24-22.85-9.46 9.68-16.65 21.35-22.39 33.55m-58.61-8.71c-3.08 1.75-6.59 2.59-9.61 4.43-1.26 2.32-.98 5.08-1.17 7.64 3.19.29 6.49.83 9.65 0 4.23-1.91 7.16-5.72 9.94-9.3 2.7-3.72 5.89-7.22 7.42-11.64-5.63 2.55-10.84 5.88-16.23 8.87z"/><path d="m918.03 853.04c7.56-5.14 15.84-9.48 24.8-11.55 6.45-1.56 13.43-1.59 19.67.87 8.68 3.51 15.63 10.62 19.54 19.07-9.68 3.51-19.18 7.8-27.44 14.03-3 2.55-6.22 5.04-8.19 8.53-.71 2.99 2.92 3.38 4.88 2.3 18.27-8.37 37.92-13.52 57.78-16.38 12.92-1.81 26.03-1.56 39.01-.51 8.24-.02 16.87 3.04 24.82-.29 16.92-6.36 32.65-15.84 50.25-20.41 6.42-1.59 13.89-2.48 19.7 1.42 7.67 5.23 11.08 14.91 10.89 23.91.21 8.63-3.13 17.41-9.42 23.4-6.53 5.95-14.96 9.17-23.29 11.65-7.95 2.3-16.02 4.2-24.15 5.7-8.53 13.48-23.66 22.25-39.3 24.55-5.85.49-11.72.91-17.59.92-2.21-.01-4.34.55-6.32 1.47-.3.59-.89 1.76-1.18 2.34 2.33 4.73 7.97 6.05 12.68 7.1 14.43 1.8 29.42-.81 42.36-7.45 3.3-1.56 5.96-4.19 9.29-5.69 3.03 5.06 5.98 10.17 8.73 15.4 3.05 4.23 6.97 7.75 10.55 11.53 7.53 7.45 14.93 15.03 22.4 22.54 7.49 7.64 14.98 15.63 19.5 25.46 3.29 7.15 5.3 15.34 3.49 23.17-1.73 9.11-9.26 16.94-18.41 18.68-12.55-13.84-22.93-29.51-35.92-42.96-6.39-6.61-12.85-13.26-20.33-18.64-2.98-1.97-6.25-4.34-10.02-3.69-.32.59-.96 1.79-1.28 2.38 1.69 6.93 6.99 11.99 11.16 17.49 11.62 14.38 24.96 27.47 34.83 43.21 4.39 7.08 8.06 14.88 8.82 23.28.7 9.2-3.96 18.52-11.71 23.53-6.26 4.42-14.9 5.35-21.79 1.88-6.12-4.07-9.69-10.75-13.06-17.06-8.47-16.56-15.57-34.09-27.3-48.73-3.67-4.45-7.66-9.36-13.51-10.82-2.55.46-5.95 2.22-4.29 5.35 8.6 18.09 19.85 35.1 25.55 54.47 1.14 3.42 1.33 7.03 1.89 10.57-.59 7.6-4.08 15.32-10.49 19.73-5.56 3.96-12.99 4.56-19.37 2.37-8.96-2.72-14.73-11.02-18.11-19.3-6.53-16.59-10.75-33.95-15.99-50.95-.88-2.91-2.23-6.14-5.18-7.44-2.94-1.08-6.49.7-7.09 3.84-1.51 15.3-2.51 30.66-4.8 45.88-1.05 5.73-1.84 11.8-5.01 16.82-4.7 5.93-12.52 9.18-20.03 8.53-6.51-.34-12.2-4.73-15.28-10.3-3.64-5.72-3.23-12.77-3.14-19.26.79-16.46 4.55-32.63 5.56-49.07-3.88-5.08-9.04-9.07-13.24-13.91-9.07-9.93-16.82-21.4-20.83-34.34-4.64-14.06-3.04-29.13-.8-43.48.43-3.52 2.01-7 1.15-10.58-.63-.1-1.89-.32-2.52-.43-7.32 5.92-10.96 15.11-13.23 23.99-2.4 10.19-3.9 20.81-2.17 31.22-7.59-.11-15.45-2.58-20.73-8.25-9.06-8.78-12.32-21.85-12.21-34.11.59-19.89 8.25-38.98 19.02-55.49 9.7-14.58 21.96-27.53 36.4-37.49m29.53-1.35c3.09 3.77 5.52 8.12 9.14 11.43 3.42-1.49 6.77-3.17 9.89-5.24-4.25-5.56-12.28-9.3-19.03-6.19m166.26 11.06c-1.58.78-1.6 2.71-2 4.2-1.22 7.64-3.54 15.1-6.8 22.12-2.66 5.96-7.35 10.71-10.04 16.64 7.17-.73 14.35-2.04 21.14-4.5 4.62-1.01 9.03-2.77 13.45-4.44l-.18-.28c8.18-3.23 14.57-11.53 13.91-20.55.54-5.9-1.65-12.15-6.72-15.51l.07-.49c-3.45-1.41-7.2-1.25-10.84-1.07-4.07 1-8.29 1.84-11.99 3.88m-234.63 56.32c-4.21 8.62-6.52 18.27-6.17 27.89.19 4.74-.79 9.67.82 14.26 1.82 6.47 5.67 12.78 11.88 15.82.3-3.27.63-6.53.65-9.8 1.38-10.44 3.21-20.87 6.98-30.74 1.21-2.54-1.7-4.11-3.08-5.74-4.07-3.55-6.62-8.56-11.08-11.69m218.74 39.97c.83 2.4 1.8 4.77 3.03 7.02 10.93 19.51 21.28 39.33 32.05 58.92 2.01 4.18 3.91 8.47 6.74 12.19 1.31 1.66 2.63 4.26 5.22 3.6 4.16.02 6.39-4.08 7.55-7.5l-.36-.47c1.58-8.39-.88-17.23-6.23-23.82-4.52-5.53-9.37-10.82-14.59-15.69-.02-.95-.85-1.59-1.36-2.24-10.47-10.87-20.73-22.02-32.05-32.01m4.45 83.84c.26 4.66 1.34 9.27 1.22 13.96-.16 8.46-2.62 16.75-6.57 24.2-1.59 2.77-.85 6.28 1.63 8.25 1.92 2.55 5.25 2.09 8.06 2.1 5.63.53 11.06-3.48 12.79-8.74.93-6.18.42-12.76-2.75-18.26.1-1.63-.98-3.09-1.58-4.52-3.38-6.26-7.67-12.07-12.8-16.99m-56.83 23.11c-1.2 11.29-5.09 22.43-12.3 31.3-1.93 1.94.16 4.51 1.35 6.24 2.58 3.64 7.5 2.86 11.38 2.9 3.26.17 6.24-1.85 7.91-4.55.56-4.29.15-8.63.22-12.94.25-8.46-4.65-15.82-8.56-22.95m-92.99 23.55c-.36 4.2-1.63 9.67 2.65 12.36 4.82.97 9.84.42 14.74.3 6.13-8.59 6.93-19.8 6.83-30.03-6.19 8.01-15.13 13.28-24.22 17.37z"/></g><path d="m645.85 71.05c6.98-.06 13.35 3.03 19.8 5.26 19.88 7.17 38.91 16.67 56.46 28.44 5.32 3.73 11.26 6.85 15.37 12.02-11.91-2.66-24.06-4.1-36.24-4.7-3.72-.87-7.49-1.48-11.26-2.01-3.35-.28-5.53-3.07-7.76-5.23-4.91-5.09-10-10-14.92-15.08-6.6-6.86-14.95-11.73-21.45-18.7z" fill="#efedee" stroke="#efedee"/><path d="m692.08 111.68c3.05.03 6.11.14 9.16.39 12.18.6 24.33 2.04 36.24 4.7 1.04.26 2.07.57 3.12.88 4.45 4.03 9.31 7.59 13.71 11.68.7 5.15 4.65 8.88 7.04 13.28 12.4 21.31 23.06 43.67 31.05 67.02 1.68 4.48 3.38 9.01 3.66 13.84-3.08-1.09-6.17-2.11-9.29-3.06-7.04-2.14-14.11-4.19-21.28-5.85-7.16-1.71-14.35-3.28-21.58-4.64 1.26-.14 2.53-.3 3.8-.47-3-10.5-8.6-19.95-13.31-29.73-4.05-8.65-9.37-16.61-14.26-24.79-5.71-9.45-12.48-18.17-19.06-27.01-3.69-4.95-8.28-9.16-11.7-14.31.89-.65 1.79-1.29 2.7-1.93z" fill="#dc3f87" stroke="#dc3f87"/><path d="m761.35 142.61c-2.39-4.4-6.34-8.13-7.04-13.28 25.34 21.32 48.69 45.09 69.09 71.2 12.59 16.11 22.51 34.06 31.94 52.14.93 1.93 1.58 3.99 2.18 6.05-11.64-9.88-24.17-18.86-37.99-25.46-7.61-3.75-15.49-6.92-23.47-9.79-.28-4.83-1.98-9.36-3.66-13.84-7.99-23.35-18.65-45.71-31.05-67.02z" fill="#d13a80" stroke="#d13a80"/><path d="m739.79 209.23c1.36.24 2.73.47 4.12.69 7.23 1.36 14.42 2.93 21.58 4.64.31 6.87 3.52 13.07 5.25 19.62 4.32 13.44 7.27 27.28 9.8 41.16 1.26 10.76 3.31 21.43 3.94 32.26.1 1.81-.32 3.58-.66 5.35-6.85-2.34-13.9-4.54-20.63-6.98-3.47-7.16-2.96-15.28-4.27-22.94-3.12-20.32-8.62-40.22-15.36-59.63-1.52-4.64-4.67-9.06-3.77-14.17z" fill="#f4f2f3" stroke="#f4f2f3"/><path d="m770.74 234.18c-1.73-6.55-4.94-12.75-5.25-19.62 7.17 1.66 14.24 3.71 21.28 5.85-1.16 1.99-1.61 4.28-.63 6.45 4.93 15.03 8.72 30.44 10.96 46.1 2.47 11.33 2.94 22.95 4.57 34.4.57 4.2.75 8.45.43 12.67-6.15-2.17-12.12-4.83-18.32-6.87l.04-.21c.34-1.77.76-3.54.66-5.35-.63-10.83-2.68-21.5-3.94-32.26-2.53-13.88-5.48-27.72-9.8-41.16z" fill="#ebe8ea" stroke="#ebe8ea"/><path d="m786.77 220.41c3.12.95 6.21 1.97 9.29 3.06 7.98 2.87 15.86 6.04 23.47 9.79 13.82 6.6 26.35 15.58 37.99 25.46.93.82 1.84 1.67 2.74 2.53.36 1.48.67 2.97 1.19 4.41 14.11 30.99 26.06 63.13 33.58 96.4 1.44 6.12 2.33 12.35 3.27 18.57-28.6-25.02-60.54-46.8-96.21-60.42l.01-.18c.32-4.22.14-8.47-.43-12.67-1.63-11.45-2.1-23.07-4.57-34.4-2.24-15.66-6.03-31.07-10.96-46.1-.98-2.17-.53-4.46.63-6.45z" fill="#e1dcdf" stroke="#e1dcdf"/><path d="m500.76 310.79c39.65-7.08 80-9.78 120.25-9.05 36.36.93 73 3.17 108.46 11.82-4.38 2.61-9.52 2.8-14.43 3.35-17.65 2.84-35.37 5.29-53.01 8.22-8.94 1.69-18.05 2.27-26.98 3.98-42.21 6.58-84.47 12.7-126.65 19.46-20.14 2.51-40.07 6.41-60.22 8.89-10.67 2.33-21.62 2.88-32.3 5.14-11.21 1.33-22.25 3.74-33.48 4.89-6.06.67-11.96 2.26-18 3.07-14.57 1.56-28.95 4.46-43.47 6.38-.42-.7-.85-1.39-1.27-2.08 41.03-16.91 82.32-33.21 124.15-48.05 18.05-8.18 37.57-12.35 56.95-16.02z" fill="#f64a9b" stroke="#f64a9b"/><path d="m729.47 313.56.28-.13c23.28 5.53 46.05 13.06 68.13 22.26-9.04 3.6-19.12 2.36-28.27 5.64-20.89-10.5-44.06-17.17-67.58-16.91-31.41-.03-62.07 12.57-86 32.6-15.3 12.77-28.76 28.34-36.9 46.66l-.18-.02c-7.3-1.38-14.65.23-21.96.58-22.96 1.97-45.83 4.91-68.62 8.29-14.13 2.3-28.27 4.63-42.51 6.15-4.97.45-9.95 1.12-14.71 2.69 1.83 3.11 3.82 6.12 5.86 9.1-2.06.32-4.11.64-6.15.99.93.34 2.8 1.01 3.73 1.34-11.46 1.44-23.06 1.79-34.61 2.06-14.33.81-28.66-.15-42.99-.3-10.71-.04-21.33-1.53-31.95-2.81-13.46-1.47-26.94-3.14-40.17-6.07-5.05-1.12-10.14-2.99-15.37-2.15-1.53 1.22-.76 3.33.37 4.55 3.63 4.15 9.04 6 13.95 8.16-.42.92-.85 1.85-1.27 2.78 5.95 11.7 11.33 23.67 16.77 35.62 5.75 10.84 10.27 22.28 16.03 33.11 2.19 3.98 6.11 6.51 9.57 9.28 10.05 7.4 19.47 15.69 30.11 22.26 2.64 1.77 5.1 3.78 7.58 5.78-3.16 4.06-6.31 8.14-9.59 12.1-31.53-20.79-59.78-46.11-86.74-72.45-12.07-12.03-23.9-24.47-33.36-38.71-3.35-4.91-7.18-9.88-8.15-15.9-.22-3.76.67-8.09 3.8-10.52 6.34-5.31 13.91-8.81 21.22-12.56 9.72-4.63 19.17-9.79 28.93-14.32 13.51-6.26 27.2-12.12 40.94-17.85.42.69.85 1.38 1.27 2.08 14.52-1.92 28.9-4.82 43.47-6.38 6.04-.81 11.94-2.4 18-3.07 11.23-1.15 22.27-3.56 33.48-4.89 10.68-2.26 21.63-2.81 32.3-5.14 20.15-2.48 40.08-6.38 60.22-8.89 42.18-6.76 84.44-12.88 126.65-19.46 8.93-1.71 18.04-2.29 26.98-3.98 17.64-2.93 35.36-5.38 53.01-8.22 4.91-.55 10.05-.74 14.43-3.35z" fill="#ed4694" stroke="#ed4694"/><path d="m664.89 347.14c18.53-6.64 38.79-8.35 58.16-4.81 15.84 2.85 31.18 8.55 45.1 16.61 20.14 11.77 36.04 30.78 43.74 52.81-3.97 1.04-7.7-1.3-11.43-2.29-3.91-1.43-8.29-1.8-11.84-4.07-3.05-3.28-4.94-7.5-8.34-10.5-.23 3.01-.41 6.02-.59 9.04-11.29-.27-22.33-3.39-33.65-3.1-10.45-.06-20.74 1.98-31.11 2.93-35.57 5.76-69.39 21.24-97.48 43.74-10.46 8.08-19.2 18.06-28.71 27.18-3.06 2.57-2.81 6.78-3.21 10.39-.23-1.79-.48-3.57-.73-5.33-.14.37-.42 1.12-.57 1.49l-.31.8c-2-21.83-.74-44.34 7.07-65.01 5.19-14.44 14.14-27.29 24.91-38.12 13.7-14.04 30.48-25.18 48.99-31.76z" fill="#ffccce" stroke="#ffccce"/><path d="m813.42 379.5c2.68-3.17 5.66-6.14 9.34-8.16 3.9 2.01 7.68 4.24 11.43 6.53 16.56 10.2 33.03 20.63 48.47 32.49 4.13 3.28 8.52 6.31 12.1 10.23-12.21 10.14-23.16 21.76-35.81 31.39-1.76 1.41-3.2 3.16-4.62 4.89-6.14-2.42-11.81-5.83-17.81-8.55-.64 2.36-1.29 4.73-1.81 7.13 1.42-26.75-6.12-53.86-21.29-75.95z" fill="#e1418d" stroke="#e1418d"/><path d="m780.28 394.89c3.4 3 5.29 7.22 8.34 10.5 3.55 2.27 7.93 2.64 11.84 4.07 3.73.99 7.46 3.33 11.43 2.29.07-.01.21-.03.27-.04 6.99 19.64 9.34 41.63 3.18 61.79-3.43 11.7-11.76 21.3-21.53 28.29-16.97 12.32-39.13 18.11-59.8 13.5-13.5-2.92-26.23-10.84-33.44-22.81-5.26-8.4-6.98-18.65-5.84-28.41 1.13-9.72 6.43-19.25 14.78-24.54 6.5-4.24 14.55-3.59 21.95-4.09 1.27-3.2-1.95-5.32-4.34-6.62-8.65-4.31-19.34-3.07-27.54 1.72-6.66 3.37-11.54 9.36-14.89 15.9-7.13 13.29-8.04 29.57-2.96 43.71 5.52 15.65 17.98 28.4 32.91 35.38 14.02 6.72 30.06 8.55 45.38 6.47 19.36-2.71 37.87-11.4 52.22-24.69 8.24-7.66 14.87-17.3 17.96-28.2 1.05.11 2.05.41 3 .9 15.17 8.19 29.91 17.18 44.23 26.77-30.13 25.44-67.9 41.17-106.77 46.85-8.89.56-17.73 2.75-26.66 1.7-6.68-.35-13.4.97-20.04-.39-35.91-2.87-71.11-14.83-101.2-34.68-5.09-3.19-9.8-6.93-14.85-10.18.9 7.6 4.88 14.25 8.03 21.07 6.14 11.9 13.47 23.27 22.25 33.39 13.86 16.62 29.93 31.83 49.05 42.23 23.19 13.42 49.3 21.34 75.82 24.6 10.24 1.45 20.6.66 30.9.87 34.78 1.13 69.28-15.13 91.49-41.76 7.97-9.32 14.23-20.03 18.88-31.37 4.18-8.56 4.5-18.22 7.27-27.18 4.75 3.57 9.24 7.48 13.91 11.15-1.5 17.39-9.08 33.57-18.37 48.09-12.93 20.03-32.06 35.8-53.92 45.21-33.09 14.36-70.55 15.81-105.68 9.37-39.35-7.09-76.84-24.92-106.59-51.73-11.03-10.73-21.51-22.17-29.74-35.23-12.63-19.67-21.2-41.9-25.43-64.88-.62-4.21-1.67-8.4-1.55-12.68.15-.37.43-1.12.57-1.49.25 1.76.5 3.54.73 5.33.4-3.61.15-7.82 3.21-10.39 9.51-9.12 18.25-19.1 28.71-27.18 28.09-22.5 61.91-37.98 97.48-43.74 10.37-.95 20.66-2.99 31.11-2.93 11.32-.29 22.36 2.83 33.65 3.1.18-3.02.36-6.03.59-9.04m14.07 25.93c-2.43 4.79-4.17 9.92-7.06 14.47-2.97 4.65-4.62 9.96-7.26 14.79-8.86 16.42-23.96 29.49-41.71 35.39-4.96 1.84-10.23 2.48-15.3 3.91 5.61 5.83 13.97 8.86 22.01 8.53 6.79-.22 13.88 1.17 20.37-1.45 23.1-7.81 38.21-33.47 34.53-57.46-1.14-6.22-2.41-12.65-5.58-18.18z" fill="#ffbfc5" stroke="#ffbfc5"/><path d="m556.99 404.24c7.31-.35 14.66-1.96 21.96-.58-1.64 4.29-3.58 8.48-4.74 12.94-2.33.76-4.8.76-7.21.9-24.13 1.82-48.2 4.4-72.18 7.66-20.07 2.62-40.01 6.46-60.23 7.64-.93-.33-2.8-1-3.73-1.34 2.04-.35 4.09-.67 6.15-.99-2.04-2.98-4.03-5.99-5.86-9.1 4.76-1.57 9.74-2.24 14.71-2.69 14.24-1.52 28.38-3.85 42.51-6.15 22.79-3.38 45.66-6.32 68.62-8.29z" fill="#f74a9c" stroke="#f74a9c"/><path d="m794.35 420.82c3.17 5.53 4.44 11.96 5.58 18.18 3.68 23.99-11.43 49.65-34.53 57.46-6.49 2.62-13.58 1.23-20.37 1.45-8.04.33-16.4-2.7-22.01-8.53 5.07-1.43 10.34-2.07 15.3-3.91 17.75-5.9 32.85-18.97 41.71-35.39 2.64-4.83 4.29-10.14 7.26-14.79 2.89-4.55 4.63-9.68 7.06-14.47z" fill="#fbaeb5" stroke="#fbaeb5"/><path d="m858.95 451.98c12.65-9.63 23.6-21.25 35.81-31.39 15.93 19.75 30.96 40.22 46.87 60-4.56 3.42-8.24 7.82-12.71 11.32-2.99 2.36-5.78 4.95-8.36 7.75-21.02-15.81-42.7-30.93-66.23-42.79 1.42-1.73 2.86-3.48 4.62-4.89z" fill="#de3f8a" stroke="#de3f8a"/><path d="m520.96 437.81c16.23-1.3 32.41-3.34 48.66-4.43-2.68 14.67-3.78 29.71-2.3 44.58-11.05-.61-22.12-.49-33.17-.22-.91-.41-1.82-.83-2.71-1.26-1.38-9.86-2.75-19.76-5.61-29.33-1.01-3.16-1.39-6.95-4.4-8.93z" fill="#7b2f8b" stroke="#7b2f8b"/><path d="m283.82 436.24c9.8 3.34 19.75 6.25 29.94 8.14-.47.94-.92 1.89-1.38 2.84 5.85 12.85 11.46 25.83 17.96 38.38 2.41 4.97 4.4 10.13 6.98 15.02 4.96 9.28 8.67 19.16 13.54 28.48 1.75 3.24 3.15 6.65 4.17 10.19-10.64-6.57-20.06-14.86-30.11-22.26-3.46-2.77-7.38-5.3-9.57-9.28-5.76-10.83-10.28-22.27-16.03-33.11-5.44-11.95-10.82-23.92-16.77-35.62.42-.93.85-1.86 1.27-2.78z" fill="#e1418c" stroke="#e1418c"/><path d="m505.47 440.1c5.24-1 10.62-1.49 15.96-1.88 3.01 1.98 3.39 5.77 4.4 8.93 2.86 9.57 4.23 19.47 5.61 29.33.89.43 1.8.85 2.71 1.26-3.95.25-7.9.54-11.86.61-2.95-.15-5.88-.49-8.8-.81-1.3-8.94-2.67-17.93-5.51-26.53-1.12-3.57-2-7.21-2.51-10.91z" fill="#803390" stroke="#803390"/><path d="m483.11 443.13c7.43-1.19 14.88-2.26 22.36-3.03.51 3.7 1.39 7.34 2.51 10.91 2.84 8.6 4.21 17.59 5.51 26.53 2.92.32 5.85.66 8.8.81-8.59.69-17.21 1.11-25.77 2.19-1.92-3.42-2.1-7.4-2.81-11.16-1.29-7.86-3.45-15.56-6.19-23.02-.55-1.98-2.83-2.39-4.41-3.23z" fill="#863795" stroke="#863795"/><path d="m462.78 446.17c6.76-1.09 13.54-2.14 20.33-3.04 1.58.84 3.86 1.25 4.41 3.23 2.74 7.46 4.9 15.16 6.19 23.02.71 3.76.89 7.74 2.81 11.16-5.44.51-10.87 1.13-16.28 1.91-1.68-.25-3.33-.54-4.98-.83-1.11-10.73-3.65-21.29-7.53-31.35-.63-2.35-2.83-3.4-4.95-4.1z" fill="#8c3c9b" stroke="#8c3c9b"/><path d="m313.76 444.38c28.17 5.19 56.87 6.49 85.47 6.26-5.86 9.18-11.68 18.46-15.91 28.54-8.08 18.36-12.89 38.06-15.15 57.96-1.53 2.85-3.73 5.27-5.56 7.93-2.48-2-4.94-4.01-7.58-5.78-1.02-3.54-2.42-6.95-4.17-10.19-4.87-9.32-8.58-19.2-13.54-28.48-2.58-4.89-4.57-10.05-6.98-15.02-6.5-12.55-12.11-25.53-17.96-38.38.46-.95.91-1.9 1.38-2.84z" fill="#d33b85" stroke="#d33b85"/><path d="m939.81 555.1c15.64 12.95 29.98 27.35 45.16 40.81 1.95 1.79 3.89 3.59 5.78 5.46-3.69 4.74-7.74 9.16-11.82 13.55-3.16 3.85-6.58 7.49-10.5 10.57-24.84 23.43-55.53 40.63-88.57 49.33-10.26 2.71-20.84 5.16-31.51 4.67 2.46-8.46 4.05-17.13 4.98-25.88 26.66-10.16 50.28-28.38 66.17-52.15 9.33-14.12 16.91-29.69 20.31-46.36z" fill="#d33b85" stroke="#d33b85"/><path d="m424.24 449.55c12.89-.49 25.72-2 38.54-3.38 2.12.7 4.32 1.75 4.95 4.1 3.88 10.06 6.42 20.62 7.53 31.35 1.65.29 3.3.58 4.98.83-16.68 2.4-33.38 4.84-49.77 8.8-.8-12.63-4.7-25.01-11.54-35.67 1.67-2.1 3.44-4.11 5.31-6.03z" fill="#9644a3" stroke="#9644a3"/><path d="m407.01 473.05c3.48-6.14 7.53-11.94 11.92-17.47 6.84 10.66 10.74 23.04 11.54 35.67-6.05 1.51-11.98 3.51-18.12 4.66-.76-7.8-.85-16.09-5.34-22.86z" fill="#9f4baa" stroke="#9f4baa"/><g fill="#a651b1" stroke="#a651b1"><path d="m385.97 546.98c1.57-25.75 8.26-51.42 21.04-73.93 4.49 6.77 4.58 15.06 5.34 22.86 6.14-1.15 12.07-3.15 18.12-4.66 16.39-3.96 33.09-6.4 49.77-8.8 5.41-.78 10.84-1.4 16.28-1.91 8.56-1.08 17.18-1.5 25.77-2.19 3.96-.07 7.91-.36 11.86-.61 11.05-.27 22.12-.39 33.17.22 2.64 37.33 17.2 73.35 39.45 103.27 5.29 7.31 11.9 13.47 18.26 19.81 24.95 23.89 55.44 41.87 88.3 52.48-7.5 4.06-14.59 8.86-22.28 12.57-6.29 3.35-13.06 5.87-18.82 10.15-23.33-10.16-45.18-23.6-65-39.53-4.04-3.34-8.4-8.44-14.25-6.97-5.36 2.5-6.46 9-7.99 14.1-4.45 18.8-2.4 38.44.49 57.31-2.83 4.17-8.2 2.81-12.47 2.9-8.93-.56-17.9.63-26.81-.38-22.22-1.87-44.18-6.55-65.34-13.58-3.69-1.36-7.29-2.99-11.1-3.99 2.42 2.96 5.41 5.37 8.47 7.67 14.71 11.9 31.22 21.37 48.07 29.88 14.65 6.51 29.34 13.26 44.91 17.27 17.49 5.61 35.53 9.41 53.8 11.33 15.5 2.1 31.18.3 46.75 1.43-6.61 4.11-12.75 9.05-17.66 15.12-20.82-.29-41.64-2.42-62.02-6.73-31.66-7.14-62.42-18.56-90.86-34.24-33.68-18.67-64.28-44-85.71-76.26-20.58-30.55-31.77-67.69-29.54-104.59m72.52-46.36c-6.56.85-13.13 2.64-18.77 6.19-5.23 3.37-9.66 8.75-10.04 15.19-.34 6.09 3.51 11.53 8.02 15.24 9.64 7.76 21.94 11.35 34.01 13.05 12.24 1.31 25.16.25 36.26-5.41 5.55-2.89 10.86-8.16 10.57-14.87-.27-8.07-6.13-14.67-12.37-19.16-13.76-9.59-31.34-11.7-47.68-10.23z"/><path d="m807.1 688.87c3.74 4.11 7.88 7.85 12.43 11.05-11.49 20.01-28.3 37.31-49.15 47.54-3.34 1.48-6.51 3.57-10.11 4.31-8.15-2.59-16.34-5.2-24.81-6.55 3.49-1.5 7.07-2.82 10.69-4.01 14.38-4.94 28.14-12.3 39.2-22.84 8.99-8.41 15.92-18.72 21.75-29.5z"/><path d="m508.44 752.34c42.49 20.37 88.93 33.32 136.2 34.53-3.27 14.45-1.91 30.16 5.2 43.29 5.65 10.63 15.73 17.86 25.57 24.32 9.2 5.8 19.04 10.54 29.02 14.85.07 2.27.26 4.62 1.4 6.66 11.03 20.53 19.71 42.29 26.37 64.61 6.18 19.67 10.3 39.92 13 60.35 2.01 11.21 2.7 22.63 2.68 34.01.76 8.44 1.6 16.95.49 25.41-.88 6.14-.29 12.35-.74 18.53-2.87 33.88-9.78 67.46-21.34 99.47-2.55 7.67-6.1 14.98-8.51 22.69 5.87-3.37 10.1-8.74 14.96-13.31 2.55-2.48 5.38-4.64 7.93-7.1 11.08-11.99 22.32-24.04 31.06-37.9 12.63-17.82 22.37-37.77 28.07-58.88 1.48-5.5.96-11.24 1.01-16.85.01-15-.05-30 .03-45 .36-9.55-3.46-18.53-6.51-27.38-5.33-15.09-14.13-28.62-23.62-41.39-9.21-12.98-19.66-25.05-28.91-38.02-6.47-8.91-12.83-17.92-18.72-27.23-2.65-4.4-5.75-8.68-6.9-13.78 6.04 2.05 11.93 4.52 17.94 6.64 1.54.67 3.42.99 4.44 2.47 9.8 13.82 20.4 27.05 30.58 40.59 12.63 15.88 26.36 31.18 35.55 49.44 17.67 34.86 20.37 76.08 11.16 113.75-8.62 36.06-28.41 69.04-55 94.74-28.44 27.35-57.75 53.83-88.32 78.79-13.89 10.62-27.01 22.24-39.13 34.85-12.28 12.52-23.52 26.12-33.05 40.86-7 10.93-12.98 22.78-15.47 35.61-2.99 15.87.72 32.29 7.32 46.79 7.85 17.07 19.48 32.17 32.64 45.49 14.87 15.13 31.76 28.29 50.16 38.86 13.91 8.22 29.22 13.63 44.58 18.44 25.83 8.01 52.09 14.55 78.41 20.72-10.96.77-21.98.14-32.97.35-9.2-.11-18.42.18-27.61-.13-20.88-5.75-41.61-12.25-61.45-21.01-3.8-1.72-7.6-3.42-11.32-5.29-10.45-5-20.43-11.1-29.11-18.81-5.05-4.61-10.49-8.79-15.33-13.62-3.25-3.26-6.44-6.58-9.87-9.63-.91 11.16-2.87 22.34-7.48 32.62-2.36 5.16-5.16 10.12-8.21 14.91-3.84 6.02-9.54 10.47-14.36 15.66-2.52 2.82-6.15 4.19-9.71 5.14-23.89.13-47.78.04-71.66-.18 15.11-8.87 29.95-18.56 42.31-31.09 6.56-6.72 12.41-14.42 15.49-23.38 3.19-9.57 4.36-19.89 2.83-29.88-2.71-21.06-14.94-39.21-19.69-59.7-3.97-16.77-.96-34.42 5.06-50.32 6.1-15.78 15.46-30.03 25.29-43.7 24.29-33.52 52-64.46 75.09-98.86 8.35-12.78 16.81-25.88 21.08-40.67 4.61-18.67.13-38.58-8.81-55.28-6.56-12.25-15.82-22.93-26.75-31.47 26.89-4.24 53.48-12.19 77.21-25.73 6.73-4.12 13.83-8.11 18.88-14.34 3.82-4.59 7.72-9.71 8.38-15.84.16-2.5-1.88-6.35-4.83-5.02-6.1 2.62-10.45 7.94-16.07 11.34-16.79 10.46-35.43 17.67-54.48 22.78-44.01 12.35-91.6 14.31-135.73 1.51-14.01-4.07-27.52-9.72-40.38-16.58l.03-.27c.32-1.73.11-3.49-.42-5.14-2-6.57-2.67-13.48-5.05-19.95 19.57 15.04 43.07 24.4 67.28 28.68 6.71 1.34 13.56.66 20.34.76 16.34.09 32.67-.17 49.01-.2 8.26-.34 16.64-.21 24.69-2.37 12.75-3.12 25.75-6.13 37.5-12.13-11.36-2.08-22.88-3.41-34.03-6.51-18.37-4.09-36.38-9.86-53.59-17.48-13.67-5.35-26.76-12.12-39.21-19.86-10.8-5.8-20.59-13.23-30.5-20.37-9.53-7.41-18.88-15.08-27.62-23.41-3.12-3.17-6.18-6.38-9.47-9.35-.29.42-.85 1.27-1.13 1.69-3.72-1.76-7.86-.78-11.76-1.56-2.33-.38-4.84-1.04-6.93.47-2.33-1.63-4.75-3.43-7.72-3.42-7.7-.65-14.44-4.67-21.77-6.68-3.34-1.34-6.45-3.34-10.08-3.83-.87 1.35-1.74 2.71-2.61 4.07-.11-12.62.02-25.24.37-37.86.39-1.29.83-2.56 1.27-3.81 2.43 2.61 5.96 3.42 9.01 5.04 7.99 4.43 17.11 6.01 25.58 9.26 2.88.26 5.72.7 7.93 2.8 1.45-7.48 1.49-15.15 3.09-22.59.84-3.97 1.58-7.96 2.2-11.96 3.44-19.01 8.58-37.69 14.98-55.91 6.7-17.7 13.29-35.63 23.26-51.81z"/><path d="m689.38 763.48c14.32-4.45 29.7-5.19 44.42-2.35 15.27 2.96 30.21 8.3 43.4 16.64 16.79 10.31 33.01 21.53 49.17 32.8 21.15 14.87 42.12 30.02 62.6 45.81-3.27 3.81-6.9 7.29-10.1 11.16-7-3.92-13.14-9.14-19.85-13.5-4.48-2.88-8.74-6.09-13.28-8.86-2.94-1.95-6.55-.77-9.73-.32-6.4 1.29-12.91 1.84-19.37 2.67-13.09 2.39-26.44.98-39.66 1.28-15.28-1.87-30.71-3.24-45.62-7.32-6.92-1.67-13.52-4.61-20.64-5.4 3.54 2.88 7.91 4.32 11.98 6.25 10.25 5.02 21.01 8.86 31.44 13.46 27.82 12.13 55.59 24.44 82.37 38.75 6.43 3.39 12.43 7.53 18.89 10.88l.3.16c-2.04 4.66-3.67 9.5-5 14.42-6.97-3.45-13.43-7.85-20.31-11.47-22.51-12.46-45.6-23.86-69.26-33.97-21.65-9.47-44.49-16.16-65.54-27.02-10.61-5.55-21.24-11.85-29.13-21.02-8.59-11.93-10.09-28.76-3.78-42.04 5.7-10.12 15.69-17.52 26.7-21.01z"/></g><path d="m928.92 491.91c4.47-3.5 8.15-7.9 12.71-11.32 21.88 27.4 42.53 55.83 61.53 85.31 2.41 3.94 5.43 7.71 6.14 12.42-2.84-1.16-5.32-2.97-7.49-5.1-18.03-17.32-34.89-35.86-53.9-52.14-8.89-7.43-18.1-14.47-27.35-21.42 2.58-2.8 5.37-5.39 8.36-7.75z" fill="#d83e87" stroke="#d83e87"/><path d="m458.49 500.62c16.34-1.47 33.92.64 47.68 10.23 6.24 4.49 12.1 11.09 12.37 19.16.29 6.71-5.02 11.98-10.57 14.87-11.1 5.66-24.02 6.72-36.26 5.41-12.07-1.7-24.37-5.29-34.01-13.05-4.51-3.71-8.36-9.15-8.02-15.24.38-6.44 4.81-11.82 10.04-15.19 5.64-3.55 12.21-5.34 18.77-6.19z" fill="#ffa3c2" stroke="#ffa3c2"/><path d="m793.34 665.41c13.58-1.06 27.25-2.2 40.45-5.79-1.64 14.26-7.28 27.85-14.26 40.3-4.55-3.2-8.69-6.94-12.43-11.05-6.13-6.76-11.46-14.52-13.76-23.46z" fill="#ffa3c2" stroke="#ffa3c2"/><path d="m877.43 506.78c8.56 5.8 16.94 11.87 25.2 18.1-10.01 9.89-21.9 17.52-33.68 25.09-14.76 8.43-30 16.2-46.05 21.87-17.15 5.74-34.79 10.47-52.85 12.01-7.38.46-14.65 2.15-22.07 2.08-9.62-.11-19.3.39-28.82-1.33-22.24-1.81-44.25-6.71-65.08-14.77-5.37-1.56-10.21-4.92-15.89-5.29-8.78-10.12-16.11-21.49-22.25-33.39-3.15-6.82-7.13-13.47-8.03-21.07 5.05 3.25 9.76 6.99 14.85 10.18 30.09 19.85 65.29 31.81 101.2 34.68 6.64 1.36 13.36.04 20.04.39 8.93 1.05 17.77-1.14 26.66-1.7 38.87-5.68 76.64-21.41 106.77-46.85z" fill="#fdb6bc" stroke="#fdb6bc"/><path d="m902.63 524.88c3.03 2.27 5.96 4.66 9.02 6.92l-.05.13c-2.77 8.96-3.09 18.62-7.27 27.18-.21-.53-.64-1.58-.85-2.1-10.62 6.92-20.91 14.42-32.2 20.27-8.53 5.24-17.86 8.88-26.96 12.97-25.37 10.5-52.39 17.04-79.75 19.28-10.1 1.77-20.37 1.42-30.57 1.45-9.43-.28-18.76-1.9-28.16-2.62-6.23-.3-12.34-3.12-18.6-1.59-19.12-10.4-35.19-25.61-49.05-42.23 5.68.37 10.52 3.73 15.89 5.29 20.83 8.06 42.84 12.96 65.08 14.77 9.52 1.72 19.2 1.22 28.82 1.33 7.42.07 14.69-1.62 22.07-2.08 18.06-1.54 35.7-6.27 52.85-12.01 16.05-5.67 31.29-13.44 46.05-21.87 11.78-7.57 23.67-15.2 33.68-25.09z" fill="#fbabb2" stroke="#fbabb2"/><path d="m137.47 592.67c22.04-28.79 60.84-44.18 96.55-36.85 16.42 3.45 31.98 12.33 42.01 25.96 11.47 15.34 15.76 35.39 13 54.21-1.11 6.93-3.23 13.85-7.28 19.65-9.57 12.8-24.47 21.24-40.25 23.49-11.36 1.43-23.55.73-33.79-4.84-9.63-5.8-17.29-15.84-18.15-27.31-.27-5.93 1.42-11.89 4.4-17 4.9-8.1 14.08-12.78 23.23-14.16 7.39-.85 16.13 2.14 19.34 9.31 2.12 3.75-1.03 8.02 1.09 11.74 5.07.05 8.04-5.43 8.16-9.94 1.33-9.68-5.66-18.96-14.54-22.2-17.98-6.5-40.79 0-50.94 16.69-5.96 9.94-8.33 22.18-5.7 33.54 3.21 14.53 13.48 26.99 26.44 34.04 12.21 6.33 26.4 7.65 39.93 6.28 21.01-2.46 41.37-13.18 53.95-30.4 9.99-14.43 11.81-32.71 10.64-49.78 16.21-6.28 31.56-15.29 44.08-27.44 6.33-6.09 12.46-12.43 17.91-19.33.87 4.19.8 8.51 1.52 12.73 2.41 17.69 7.52 34.96 14.72 51.29-10.77 8.65-18.91 20.25-30.34 28.17-43.45 35.81-101.43 53.4-157.45 47.62-11.28-.89-22.49-2.79-33.41-5.79-3.94-1.1-7.88-2.21-11.9-2.97 1.42 3.36 3.42 6.43 5.78 9.21 11.01 14.07 24.46 26.65 40.84 34.18 10.34 5.19 21.66 7.79 32.63 11.26-3.65 2.52-7.27 5.17-10.14 8.58-6.09-.99-12.1-2.44-18.17-3.52-30.59-11.6-58.04-33.86-71.98-63.89-8.69-18.99-12.18-40.46-9.16-61.17 2.06-14.92 7.73-29.42 16.98-41.36m126.8 4.26c-2.21 20.76-11.26 41.25-27.05 55.24-4.28 5.2-10.19 8.47-15.28 12.73 1.84 1.03 3.79 2.08 5.99 1.98 12.67.23 26.12-3.42 35.26-12.59 13.22-14.32 14.24-37.45 4.5-53.92-.71-1.54-2.04-2.56-3.42-3.44z" fill="#f6bdc4" stroke="#f6bdc4"/><path d="m871.28 577.28c11.29-5.85 21.58-13.35 32.2-20.27.21.52.64 1.57.85 2.1-4.65 11.34-10.91 22.05-18.88 31.37-22.21 26.63-56.71 42.89-91.49 41.76-10.3-.21-20.66.58-30.9-.87-26.52-3.26-52.63-11.18-75.82-24.6 6.26-1.53 12.37 1.29 18.6 1.59 9.4.72 18.73 2.34 28.16 2.62 10.2-.03 20.47.32 30.57-1.45 27.36-2.24 54.38-8.78 79.75-19.28 9.1-4.09 18.43-7.73 26.96-12.97z" fill="#f89fa7" stroke="#f89fa7"/><path d="m264.27 596.93c1.38.88 2.71 1.9 3.42 3.44 9.74 16.47 8.72 39.6-4.5 53.92-9.14 9.17-22.59 12.82-35.26 12.59-2.2.1-4.15-.95-5.99-1.98 5.09-4.26 11-7.53 15.28-12.73 15.79-13.99 24.84-34.48 27.05-55.24z" fill="#f2b0b8" stroke="#f2b0b8"/><path d="m978.93 614.92c4.08-4.39 8.13-8.81 11.82-13.55 6.5 6.01 12.84 12.21 19.57 17.97-12.27 16.83-27.84 30.99-44.2 43.76-7.95 5.22-15.22 12.37-24.87 14.19-7.63 1.67-15.27 3.34-23.05 4.08-11.02 1.65-22.05 3.53-33.21 3.7-13.12 1.07-26.28 1.2-39.37 2.5.98-2.67 1.87-5.37 2.73-8.08 10.67.49 21.25-1.96 31.51-4.67 33.04-8.7 63.73-25.9 88.57-49.33 3.92-3.08 7.34-6.72 10.5-10.57z" fill="#e0418c" stroke="#e0418c"/><path d="m584.99 643.84c1.53-5.1 2.63-11.6 7.99-14.1 5.85-1.47 10.21 3.63 14.25 6.97 19.82 15.93 41.67 29.37 65 39.53 3.99 1.87 8.11 3.48 12.02 5.55 2.09 1.18 4.34 2.68 5.05 5.13.14 3.19-2.38 6.06-5.42 6.76-5.18 1.61-10.56.22-15.74-.6-15.98 13.22-32.99 25.58-52.05 33.97-5.42 2.23-11.21 4.5-17.18 3.59-2.95-.45-4.82-3.12-6.07-5.59-3.78-7.48-5.88-15.69-7.36-23.9-2.89-18.87-4.94-38.51-.49-57.31m15.43 8.66c-3.46 20.47-1.24 41.84 5.59 61.42 16.58-4.62 30.82-15.14 42.9-27.11.94-.66 1.56-2.28.08-2.75-16.72-9.66-33.14-19.93-48.57-31.56z" fill="#fde14f" stroke="#fde14f"/><path d="m353.45 660.52c11.43-7.92 19.57-19.52 30.34-28.17 5.39 11.63 11.65 22.88 19.02 33.38-10.94 11.13-22.05 22.23-34.93 31.14-8.1 6.47-17.15 11.54-25.93 16.99-15.66 8.41-31.81 16.09-48.92 21.05-11.62 4.19-23.92 5.83-35.73 9.33-9.61 1.59-19.08 4.57-27.36 9.79-10.97-3.47-22.29-6.07-32.63-11.26-16.38-7.53-29.83-20.11-40.84-34.18-2.36-2.78-4.36-5.85-5.78-9.21 4.02.76 7.96 1.87 11.9 2.97 10.92 3 22.13 4.9 33.41 5.79 56.02 5.78 114-11.81 157.45-47.62z" fill="#f2b0ba" stroke="#f2b0ba"/><path d="m600.42 652.5c15.43 11.63 31.85 21.9 48.57 31.56 1.48.47.86 2.09-.08 2.75-12.08 11.97-26.32 22.49-42.9 27.11-6.83-19.58-9.05-40.95-5.59-61.42z" fill="#9f2946" stroke="#9f2946"/><path d="m713.33 653.52c17.59 5.62 35.77 9.44 54.18 10.97-3.96 5.15-9.61 8.48-14.56 12.55-12.56 9.73-26.2 17.98-39.98 25.86-32.11 17.18-67.3 28.64-103.36 33.68-8.87.71-17.63 2.91-26.56 2.41-4.04-.2-8.34-.45-11.84 1.93-15.57-4.01-30.26-10.76-44.91-17.27-16.85-8.51-33.36-17.98-48.07-29.88-3.06-2.3-6.05-4.71-8.47-7.67 3.81 1 7.41 2.63 11.1 3.99 21.16 7.03 43.12 11.71 65.34 13.58 8.91 1.01 17.88-.18 26.81.38 4.27-.09 9.64 1.27 12.47-2.9 1.48 8.21 3.58 16.42 7.36 23.9 1.25 2.47 3.12 5.14 6.07 5.59 5.97.91 11.76-1.36 17.18-3.59 19.06-8.39 36.07-20.75 52.05-33.97 5.18.82 10.56 2.21 15.74.6 3.04-.7 5.56-3.57 5.42-6.76-.71-2.45-2.96-3.95-5.05-5.13-3.91-2.07-8.03-3.68-12.02-5.55 5.76-4.28 12.53-6.8 18.82-10.15 7.69-3.71 14.78-8.51 22.28-12.57z" fill="#9c4aa8" stroke="#9c4aa8"/><path d="m767.51 664.49c8.57.65 17.16 1.1 25.76.71l.07.21c2.3 8.94 7.63 16.7 13.76 23.46-5.83 10.78-12.76 21.09-21.75 29.5-11.06 10.54-24.82 17.9-39.2 22.84-3.62 1.19-7.2 2.51-10.69 4.01-21.35-3.69-44.31-1.64-63.7 8.46-15.57-1.13-31.25.67-46.75-1.43-18.27-1.92-36.31-5.72-53.8-11.33 3.5-2.38 7.8-2.13 11.84-1.93 8.93.5 17.69-1.7 26.56-2.41 36.06-5.04 71.25-16.5 103.36-33.68 13.78-7.88 27.42-16.13 39.98-25.86 4.95-4.07 10.6-7.4 14.56-12.55z" fill="#9342a0" stroke="#9342a0"/><path d="m402.81 665.73c7.77 11 16.46 21.36 25.93 30.94-6.41 6.65-13.72 12.32-20.6 18.45-1.71 1.5-2.67 3.6-3.67 5.6l-.16.33c-18.16 5.81-35.83 13.1-53.11 21.13-15.49 7.01-30.97 14.08-46.03 21.99-9.06-9.95-21.36-17.07-34.67-19.34-4.36-.76-8.8-.48-13.2-.59 11.81-3.5 24.11-5.14 35.73-9.33 17.11-4.96 33.26-12.64 48.92-21.05 8.78-5.45 17.83-10.52 25.93-16.99 12.88-8.91 23.99-20.01 34.93-31.14z" fill="#efa2ac" stroke="#efa2ac"/><path d="m428.74 696.67.08-.08c4.43 4.82 9.49 8.98 14.26 13.45-13.07 2.81-25.82 6.84-38.61 10.68 1-2 1.96-4.1 3.67-5.6 6.88-6.13 14.19-11.8 20.6-18.45z" fill="#ec95a0" stroke="#ec95a0"/><path d="m412.29 735.15c15.61-4.9 31.39-9.72 47.63-11.95 2.19 1.76 4.5 3.36 6.82 4.95-11.41 11.31-22.36 23.07-32.76 35.32l-.12.02c-2 .25-4.02.59-5.85 1.46-16.22 8.1-32.42 16.24-48.64 24.34-16.42 7.26-32.21 15.84-48.34 23.7-16.92 8.46-33.87 16.85-50.74 25.41-4.88-9.1-7.42-19.7-5.64-29.99.6-2.86 2.26-5.35 4.25-7.43 5.39-5.79 12.12-10.08 18.79-14.22 18.33-11.06 37.87-19.9 57.32-28.77 18.59-8.8 37.69-16.54 57.28-22.84z" fill="#a34eab" stroke="#a34eab"/><path d="m398.11 805.19c1.83-.55 3.87-1 5.55.21-2.73 4.52-5.06 9.27-7.28 14.06-32.25 9.16-64.06 20.29-94.27 34.91-6.04-.44-11.55-3.62-15.78-7.83 5.47-4.03 11.88-6.39 18.07-9.04 30.45-12.91 61.92-23.26 93.71-32.31z" fill="#a34eab" stroke="#a34eab"/><path d="m450.12 771.76c9.93-11.88 20.84-22.89 32.1-33.49 8.61 4.91 17.27 9.77 26.22 14.07-9.97 16.18-16.56 34.11-23.26 51.81-6.4 18.22-11.54 36.9-14.98 55.91-.62 4-1.36 7.99-2.2 11.96-1.6 7.44-1.64 15.11-3.09 22.59-2.21-2.1-5.05-2.54-7.93-2.8-8.47-3.25-17.59-4.83-25.58-9.26-3.05-1.62-6.58-2.43-9.01-5.04-.44 1.25-.88 2.52-1.27 3.81-.55-6.01-.53-12.14 1.21-17.96 1.92-6.64 3.23-13.53 6.28-19.77.97-2.41 4.86-1.89 4.93-4.94 4.32-19.13 10.06-37.91 16.99-56.25.9-2.37 2.02-4.72 2.29-7.26-.79-1.22-1.78-2.29-2.7-3.38z" fill="#af5ab8" stroke="#af5ab8"/><path d="m98.59 750.59c7.33-4.76 16.18.11 22.19 4.82-3.43 1.58-7.03 2.75-10.65 3.81-4.85 1.4-9.35 3.72-14.05 5.53-.78-.56-1.56-1.11-2.34-1.65-.28-4.62.38-10.02 4.85-12.51z" fill="#e8e8e8" stroke="#e8e8e8"/><path d="m120.78 755.41.49-.22c6.76 5.25 14.38 9.71 19.84 16.4-11.55.04-23.22 2.3-33.46 7.81-5.28-1.22-9.24-5.56-12.3-9.82-1.52-1.82-1.51-4.25-1.61-6.48.78.54 1.56 1.09 2.34 1.65 4.7-1.81 9.2-4.13 14.05-5.53 3.62-1.06 7.22-2.23 10.65-3.81z" fill="#f1f1f1" stroke="#f1f1f1"/><path d="m428.01 764.95c1.83-.87 3.85-1.21 5.85-1.46-10.66 13.52-21.67 26.89-30.2 41.91-1.68-1.21-3.72-.76-5.55-.21-31.79 9.05-63.26 19.4-93.71 32.31-6.19 2.65-12.6 5.01-18.07 9.04-2.3-2.49-4.3-5.24-6.04-8.14 16.87-8.56 33.82-16.95 50.74-25.41 16.13-7.86 31.92-16.44 48.34-23.7 16.22-8.1 32.42-16.24 48.64-24.34z" fill="#9643a0" stroke="#9643a0"/><g fill="#ededed" stroke="#ededed"><path d="m248.27 776.74c4.64-4.48 11.56-5.78 17.78-4.89 5.29.79 9.84 3.93 13.55 7.65-4.59 3.34-9.18 6.8-12.87 11.15l-.54-.48c-5.5-5.09-11.59-9.46-17.92-13.43z"/><path d="m947.56 851.69c6.75-3.11 14.78.63 19.03 6.19-3.12 2.07-6.47 3.75-9.89 5.24-3.62-3.31-6.05-7.66-9.14-11.43z"/><path d="m1113.82 862.75c3.7-2.04 7.92-2.88 11.99-3.88-2.09 8.55-3.23 17.36-6.17 25.69-1.92 5.61-4.94 10.74-7.36 16.13 1.26.18 2.55.35 3.84.52-6.79 2.46-13.97 3.77-21.14 4.5 2.69-5.93 7.38-10.68 10.04-16.64 3.26-7.02 5.58-14.48 6.8-22.12.4-1.49.42-3.42 2-4.2z"/><path d="m187.58 1000.62c5.74-12.2 12.93-23.87 22.39-33.55-1.01 7.68-2.77 15.24-4.24 22.85-1.71 7.52-2.82 15.21-5.24 22.55-1.08 3.25-3.66 6.85-7.5 6.59-2.8-.24-7.1.73-8.51-2.42-.23-5.48.14-11.25 3.1-16.02z"/></g><path d="m427.86 802.8c6.45-11 14.01-21.33 22.26-31.04.92 1.09 1.91 2.16 2.7 3.38-.27 2.54-1.39 4.89-2.29 7.26-6.93 18.34-12.67 37.12-16.99 56.25-.07 3.05-3.96 2.53-4.93 4.94-3.05 6.24-4.36 13.13-6.28 19.77-1.74 5.82-1.76 11.95-1.21 17.96-.35 12.62-.48 25.24-.37 37.86.22 17.02 7.61 33.05 16.51 47.22 1.64 2.43 3.29 4.86 5.05 7.22-1.42 11.54 3.19 22.71 3.11 34.24-19.33-18.43-33.46-42.36-39.58-68.41-5.43-20.62-7.83-42.26-4.78-63.47 2.96-20.26 8.7-40.34 18.63-58.34 2.9-4.85 5.27-9.99 8.17-14.84z" fill="#b660bd" stroke="#b660bd"/><path d="m710.72 836.09c7.12.79 13.72 3.73 20.64 5.4 14.91 4.08 30.34 5.45 45.62 7.32 13.22-.3 26.57 1.11 39.66-1.28 6.46-.83 12.97-1.38 19.37-2.67 3.18-.45 6.79-1.63 9.73.32 4.54 2.77 8.8 5.98 13.28 8.86 6.71 4.36 12.85 9.58 19.85 13.5-9.68 11.37-17.29 24.33-23.47 37.89-6.46-3.35-12.46-7.49-18.89-10.88-26.78-14.31-54.55-26.62-82.37-38.75-10.43-4.6-21.19-8.44-31.44-13.46-4.07-1.93-8.44-3.37-11.98-6.25z" fill="#9a49a8" stroke="#9a49a8"/><path d="m704.43 869.33c3.88 1.69 7.99 3 11.75 4.89 1.15 5.1 4.25 9.38 6.9 13.78 5.89 9.31 12.25 18.32 18.72 27.23 9.25 12.97 19.7 25.04 28.91 38.02-.18 6.07 2.28 11.77 3.03 17.74 1.04 7.72 3.24 15.24 3.91 23.02.68 7.34 2.19 14.58 2.64 21.95 1.06 8.71.02 17.52 1.22 26.23 1.34 10.3-.9 20.56-.65 30.87-.19 12.76-2.23 25.39-3.69 38.04-1.63 10.58-4.39 20.99-5.44 31.65-8.74 13.86-19.98 25.91-31.06 37.9-2.55 2.46-5.38 4.62-7.93 7.1-4.86 4.57-9.09 9.94-14.96 13.31 2.41-7.71 5.96-15.02 8.51-22.69 11.56-32.01 18.47-65.59 21.34-99.47.45-6.18-.14-12.39.74-18.53 1.11-8.46.27-16.97-.49-25.41.02-11.38-.67-22.8-2.68-34.01-2.7-20.43-6.82-40.68-13-60.35-6.66-22.32-15.34-44.08-26.37-64.61-1.14-2.04-1.33-4.39-1.4-6.66z" fill="#9a49a8" stroke="#9a49a8"/><path d="m272.33 855.9.56-.26c2.19 1.98 4.1 4.33 6.53 6.09-3.27 5.76-6.85 11.4-11.33 16.31-3.4 3.73-7.61 6.56-11.47 9.77-2.54-1.93-4.7-4.3-6.7-6.76 9.4-6.42 17.23-14.99 22.41-25.15z" fill="#f2f2f2" stroke="#f2f2f2"/><path d="m1125.81 858.87c3.64-.18 7.39-.34 10.84 1.07l-.07.49c-1.14 11.77-4.05 23.28-8.29 34.31.27.44.82 1.31 1.1 1.75l.18.28c-4.42 1.67-8.83 3.43-13.45 4.44-1.29-.17-2.58-.34-3.84-.52 2.42-5.39 5.44-10.52 7.36-16.13 2.94-8.33 4.08-17.14 6.17-25.69z" fill="#e2e2e2" stroke="#e2e2e2"/><path d="m1128.29 894.74c4.24-11.03 7.15-22.54 8.29-34.31 5.07 3.36 7.26 9.61 6.72 15.51.66 9.02-5.73 17.32-13.91 20.55-.28-.44-.83-1.31-1.1-1.75z" fill="#d9d9d9" stroke="#d9d9d9"/><path d="m279.42 861.73c2.46 1.86 5.1 3.48 7.84 4.91-3.38 4.83-6.06 10.17-10.04 14.55-3.89 4.27-8.14 8.19-12.47 12-2.84-1.59-5.56-3.39-8.13-5.38 3.86-3.21 8.07-6.04 11.47-9.77 4.48-4.91 8.06-10.55 11.33-16.31z" fill="#ebebeb" stroke="#ebebeb"/><path d="m287.26 866.64c2.82 1.17 5.7 2.19 8.68 2.92-3.53 5.56-6.68 11.39-10.93 16.45-3.24 3.95-6.99 7.42-10.41 11.2-3.55-.59-6.75-2.3-9.85-4.02 4.33-3.81 8.58-7.73 12.47-12 3.98-4.38 6.66-9.72 10.04-14.55z" fill="#e3e3e3" stroke="#e3e3e3"/><path d="m306.18 870.36c2.16-1.3 4.48-2.3 6.75-3.38.72 11.42-3.79 23.99-14.11 29.88-3.91.94-8.02.2-12 .4 5.09-6.16 9.92-12.59 13.74-19.62 1.47-2.71 3.19-5.34 5.62-7.28z" fill="#d1d1d1" stroke="#d1d1d1"/><path d="m295.94 869.56c3.37.66 6.8.99 10.24.8-2.43 1.94-4.15 4.57-5.62 7.28-3.82 7.03-8.65 13.46-13.74 19.62-4.08.02-8.15.12-12.22-.05 3.42-3.78 7.17-7.25 10.41-11.2 4.25-5.06 7.4-10.89 10.93-16.45z" fill="#dbdbdb" stroke="#dbdbdb"/><path d="m1106.72 1091.39c5.18-8.23 7.78-17.65 10.04-27 3.17 5.5 3.68 12.08 2.75 18.26-1.73 5.26-7.16 9.27-12.79 8.74z" fill="#dbdbdb" stroke="#dbdbdb"/><path d="m50.99 895.01c.14-1.45.85-3.45 2.57-3.48 3.81 2.32 7.69 4.53 11.62 6.67-1.32 2.6-3.92 4.1-6.08 5.93-2.65 2.18-5.29 4.41-8.24 6.18-.33-5.09-.46-10.23.13-15.3z" fill="#e9e9e9" stroke="#e9e9e9"/><path d="m128.97 991.91c5.39-2.99 10.6-6.32 16.23-8.87-1.53 4.42-4.72 7.92-7.42 11.64-2.78 3.58-5.71 7.39-9.94 9.3-3.16.83-6.46.29-9.65 0 .19-2.56-.09-5.32 1.17-7.64 3.02-1.84 6.53-2.68 9.61-4.43z" fill="#e9e9e9" stroke="#e9e9e9"/><path d="m423.36 915.11c3.63.49 6.74 2.49 10.08 3.83 7.33 2.01 14.07 6.03 21.77 6.68 2.97-.01 5.39 1.79 7.72 3.42 2.09-1.51 4.6-.85 6.93-.47 3.9.78 8.04-.2 11.76 1.56.28-.42.84-1.27 1.13-1.69 3.29 2.97 6.35 6.18 9.47 9.35 8.74 8.33 18.09 16 27.62 23.41 9.91 7.14 19.7 14.57 30.5 20.37 12.45 7.74 25.54 14.51 39.21 19.86 17.21 7.62 35.22 13.39 53.59 17.48 11.15 3.1 22.67 4.43 34.03 6.51-11.75 6-24.75 9.01-37.5 12.13-8.05 2.16-16.43 2.03-24.69 2.37-16.34.03-32.67.29-49.01.2-6.78-.1-13.63.58-20.34-.76 16.81-.93 33.66-.2 50.48-.78-7.15-3.29-14.77-5.38-21.82-8.9-30.91-13.6-60.21-31.12-86.06-52.91-2.02-1.87-4.71-2.67-7.41-2.64-8.85-.03-17.45-2.43-26.06-4.09-3.48.38-6.36-2.13-9.8-2.19-2.67-.06-5.07-2.62-7.7-1.45-8.9-14.17-16.29-30.2-16.51-47.22.87-1.36 1.74-2.72 2.61-4.07z" fill="#9e4ba9" stroke="#9e4ba9"/><path d="m879.19 919.07c4.46 3.13 7.01 8.14 11.08 11.69 1.38 1.63 4.29 3.2 3.08 5.74-3.77 9.87-5.6 20.3-6.98 30.74-.19-2.86.14-6.3-2.45-8.21-3.65-3.24-7.17-6.68-9.8-10.82-.07 4.33-.29 8.67-.28 13.01-1.61-4.59-.63-9.52-.82-14.26-.35-9.62 1.96-19.27 6.17-27.89z" fill="#eaeaea" stroke="#eaeaea"/><path d="m68.25 948.02c4.41.98 8.61 2.86 13.14 3.33 3.94.39 7.89.81 11.71 1.89-2.27 4.14-6.13 7.3-10.14 9.69-5 .73-10.1.29-15.13.19-.36-5.04-.26-10.1.42-15.1z" fill="#e8e9e9" stroke="#e8e9e9"/><path d="m874.12 948.21c2.63 4.14 6.15 7.58 9.8 10.82 2.59 1.91 2.26 5.35 2.45 8.21-.02 3.27-.35 6.53-.65 9.8-6.21-3.04-10.06-9.35-11.88-15.82-.01-4.34.21-8.68.28-13.01z" fill="#dcdcdc" stroke="#dcdcdc"/><path d="m773.74 970.99c-.75-5.97-3.21-11.67-3.03-17.74 9.49 12.77 18.29 26.3 23.62 41.39 3.05 8.85 6.87 17.83 6.51 27.38-.08 15-.02 30-.03 45-.05 5.61.47 11.35-1.01 16.85-5.7 21.11-15.44 41.06-28.07 58.88 1.05-10.66 3.81-21.07 5.44-31.65 1.46-12.65 3.5-25.28 3.69-38.04-.25-10.31 1.99-20.57.65-30.87-1.2-8.71-.16-17.52-1.22-26.23-.45-7.37-1.96-14.61-2.64-21.95-.67-7.78-2.87-15.3-3.91-23.02z" fill="#92419f" stroke="#92419f"/><path d="m1097.93 959.04c11.32 9.99 21.58 21.14 32.05 32.01.51.65 1.34 1.29 1.36 2.24.23 1.96.38 4.01 1.42 5.77 4.99 8.72 9.71 17.61 14.5 26.45 1.41 2.56 3.08 4.98 4.9 7.29l.36.47c-1.16 3.42-3.39 7.52-7.55 7.5-2.59.66-3.91-1.94-5.22-3.6-2.83-3.72-4.73-8.01-6.74-12.19-10.77-19.59-21.12-39.41-32.05-58.92-1.23-2.25-2.2-4.62-3.03-7.02z" fill="#e6e6e6" stroke="#e6e6e6"/><path d="m437.26 966.4c2.63-1.17 5.03 1.39 7.7 1.45 3.44.06 6.32 2.57 9.8 2.19 8.61 1.66 17.21 4.06 26.06 4.09 2.7-.03 5.39.77 7.41 2.64 25.85 21.79 55.15 39.31 86.06 52.91 7.05 3.52 14.67 5.61 21.82 8.9-16.82.58-33.67-.15-50.48.78-24.21-4.28-47.71-13.64-67.28-28.68-13.83-10.44-25.48-23.4-36.04-37.06-1.76-2.36-3.41-4.79-5.05-7.22z" fill="#9442a1" stroke="#9442a1"/><path d="m442.31 973.62c10.56 13.66 22.21 26.62 36.04 37.06 2.38 6.47 3.05 13.38 5.05 19.95.53 1.65.74 3.41.42 5.14-14.13-7.17-26.81-16.93-38.38-27.69l-.02-.22c.08-11.53-4.53-22.7-3.11-34.24z" fill="#ad57b6" stroke="#ad57b6"/><path d="m1132.76 999.06c-1.04-1.76-1.19-3.81-1.42-5.77 5.22 4.87 10.07 10.16 14.59 15.69 5.35 6.59 7.81 15.43 6.23 23.82-1.82-2.31-3.49-4.73-4.9-7.29-4.79-8.84-9.51-17.73-14.5-26.45z" fill="#d4d5d4" stroke="#d4d5d4"/><path d="m1102.38 1042.88c5.13 4.92 9.42 10.73 12.8 16.99.6 1.43 1.68 2.89 1.58 4.52-2.26 9.35-4.86 18.77-10.04 27-2.81-.01-6.14.45-8.06-2.1-2.48-1.97-3.22-5.48-1.63-8.25 3.95-7.45 6.41-15.74 6.57-24.2.12-4.69-.96-9.3-1.22-13.96z" fill="#e9eae9" stroke="#e9eae9"/><path d="m1045.55 1065.99c3.91 7.13 8.81 14.49 8.56 22.95-.07 4.31.34 8.65-.22 12.94-1.67 2.7-4.65 4.72-7.91 4.55-3.88-.04-8.8.74-11.38-2.9-1.19-1.73-3.28-4.3-1.35-6.24 7.21-8.87 11.1-20.01 12.3-31.3z" fill="#e8e7e8" stroke="#e8e7e8"/><path d="m952.56 1089.54c9.09-4.09 18.03-9.36 24.22-17.37.1 10.23-.7 21.44-6.83 30.03-4.9.12-9.92.67-14.74-.3-4.28-2.69-3.01-8.16-2.65-12.36z" fill="#e4e5e5" stroke="#e4e5e5"/><path d="m610.33 1474.12c3.43 3.05 6.62 6.37 9.87 9.63 4.84 4.83 10.28 9.01 15.33 13.62-1.61 1.64-2.75 3.65-3.29 5.9-3.69 13.25-10.01 25.71-18.18 36.76 1.75.86 3.51 1.73 5.33 2.51-16.28.07-32.55-.01-48.82-.09 3.56-.95 7.19-2.32 9.71-5.14 4.82-5.19 10.52-9.64 14.36-15.66 3.05-4.79 5.85-9.75 8.21-14.91 4.61-10.28 6.57-21.46 7.48-32.62z" fill="#9a48a7" stroke="#9a48a7"/><path d="m632.24 1503.27c.54-2.25 1.68-4.26 3.29-5.9 8.68 7.71 18.66 13.81 29.11 18.81-2.82 4.17-3.99 9.11-5.93 13.7-1.45 3.5-2.98 6.97-4.44 10.48 1.31.45 2.62.91 3.96 1.35-2.84.04-5.66.41-8.47.75-10.12.21-20.26.19-30.37.08-1.82-.78-3.58-1.65-5.33-2.51 8.17-11.05 14.49-23.51 18.18-36.76z" fill="#8c3c9a" stroke="#8c3c9a"/><path d="m658.71 1529.88c1.94-4.59 3.11-9.53 5.93-13.7 3.72 1.87 7.52 3.57 11.32 5.29-2.28 6.42-4.96 12.69-7.54 19 1.17.38 2.34.8 3.53 1.23-4.58.09-9.15.22-13.72.01-1.34-.44-2.65-.9-3.96-1.35 1.46-3.51 2.99-6.98 4.44-10.48z" fill="#7e318e" stroke="#7e318e"/><path d="m668.42 1540.47c2.58-6.31 5.26-12.58 7.54-19 19.84 8.76 40.57 15.26 61.45 21.01-29.21.13-58.45.27-87.65-.02 2.81-.34 5.63-.71 8.47-.75 4.57.21 9.14.08 13.72-.01-1.19-.43-2.36-.85-3.53-1.23z" fill="#752a86" stroke="#752a86"/><path d="m593.79 1595.69c14.08.01 28.14.77 42.22.61 14.12.45 28.25-.36 42.37.01l1.5.69h-78.86c-2.4-.53-4.79-1.09-7.23-1.31z" opacity=".25" stroke="#000"/></g></svg>